<?xml version="1.0" encoding="utf-8" standalone="no"?>
<!DOCTYPE svg PUBLIC "-//W3C//DTD SVG 1.1//EN"
  "http://www.w3.org/Graphics/SVG/1.1/DTD/svg11.dtd">
<!-- Created with matplotlib (http://matplotlib.org/) -->
<svg height="345pt" version="1.1" viewBox="0 0 460 345" width="460pt" xmlns="http://www.w3.org/2000/svg" xmlns:xlink="http://www.w3.org/1999/xlink">
 <defs>
  <style type="text/css">
*{stroke-linecap:butt;stroke-linejoin:round;}
  </style>
 </defs>
 <g id="figure_1">
  <g id="patch_1">
   <path d="M 0 345.6 
L 460.8 345.6 
L 460.8 0 
L 0 0 
z
" style="fill:#ffffff;"/>
  </g>
  <g id="axes_1">
   <g id="patch_2">
    <path d="M 57.6 307.584 
L 414.72 307.584 
L 414.72 41.472 
L 57.6 41.472 
z
" style="fill:#ffffff;"/>
   </g>
   <g id="matplotlib.axis_1">
    <g id="xtick_1">
     <g id="line2d_1">
      <defs>
       <path d="M 0 0 
L 0 3.5 
" id="m0a813f328f" style="stroke:#000000;stroke-width:0.8;"/>
      </defs>
      <g>
       <use style="stroke:#000000;stroke-width:0.8;" x="57.6" xlink:href="#m0a813f328f" y="307.584"/>
      </g>
     </g>
     <g id="text_1">
      <!-- 0 -->
      <defs>
       <path d="M 31.78125 66.40625 
Q 24.171875 66.40625 20.328125 58.90625 
Q 16.5 51.421875 16.5 36.375 
Q 16.5 21.390625 20.328125 13.890625 
Q 24.171875 6.390625 31.78125 6.390625 
Q 39.453125 6.390625 43.28125 13.890625 
Q 47.125 21.390625 47.125 36.375 
Q 47.125 51.421875 43.28125 58.90625 
Q 39.453125 66.40625 31.78125 66.40625 
M 31.78125 74.21875 
Q 44.046875 74.21875 50.515625 64.515625 
Q 56.984375 54.828125 56.984375 36.375 
Q 56.984375 17.96875 50.515625 8.265625 
Q 44.046875 -1.421875 31.78125 -1.421875 
Q 19.53125 -1.421875 13.0625 8.265625 
Q 6.59375 17.96875 6.59375 36.375 
Q 6.59375 54.828125 13.0625 64.515625 
Q 19.53125 74.21875 31.78125 74.21875 
" id="DejaVuSans-30"/>
      </defs>
      <g transform="translate(54.41875 322.182437)scale(0.1 -0.1)">
       <use xlink:href="#DejaVuSans-30"/>
      </g>
     </g>
    </g>
    <g id="xtick_2">
     <g id="line2d_2">
      <g>
       <use style="stroke:#000000;stroke-width:0.8;" x="129.095495" xlink:href="#m0a813f328f" y="307.584"/>
      </g>
     </g>
     <g id="text_2">
      <!-- 200 -->
      <defs>
       <path d="M 19.1875 8.296875 
L 53.609375 8.296875 
L 53.609375 0 
L 7.328125 0 
L 7.328125 8.296875 
Q 12.9375 14.109375 22.625 23.890625 
Q 32.328125 33.6875 34.8125 36.53125 
Q 39.546875 41.84375 41.421875 45.53125 
Q 43.3125 49.21875 43.3125 52.78125 
Q 43.3125 58.59375 39.234375 62.25 
Q 35.15625 65.921875 28.609375 65.921875 
Q 23.96875 65.921875 18.8125 64.3125 
Q 13.671875 62.703125 7.8125 59.421875 
L 7.8125 69.390625 
Q 13.765625 71.78125 18.9375 73 
Q 24.125 74.21875 28.421875 74.21875 
Q 39.75 74.21875 46.484375 68.546875 
Q 53.21875 62.890625 53.21875 53.421875 
Q 53.21875 48.921875 51.53125 44.890625 
Q 49.859375 40.875 45.40625 35.40625 
Q 44.1875 33.984375 37.640625 27.21875 
Q 31.109375 20.453125 19.1875 8.296875 
" id="DejaVuSans-32"/>
      </defs>
      <g transform="translate(119.551745 322.182437)scale(0.1 -0.1)">
       <use xlink:href="#DejaVuSans-32"/>
       <use x="63.623047" xlink:href="#DejaVuSans-30"/>
       <use x="127.246094" xlink:href="#DejaVuSans-30"/>
      </g>
     </g>
    </g>
    <g id="xtick_3">
     <g id="line2d_3">
      <g>
       <use style="stroke:#000000;stroke-width:0.8;" x="200.590991" xlink:href="#m0a813f328f" y="307.584"/>
      </g>
     </g>
     <g id="text_3">
      <!-- 400 -->
      <defs>
       <path d="M 37.796875 64.3125 
L 12.890625 25.390625 
L 37.796875 25.390625 
z
M 35.203125 72.90625 
L 47.609375 72.90625 
L 47.609375 25.390625 
L 58.015625 25.390625 
L 58.015625 17.1875 
L 47.609375 17.1875 
L 47.609375 0 
L 37.796875 0 
L 37.796875 17.1875 
L 4.890625 17.1875 
L 4.890625 26.703125 
z
" id="DejaVuSans-34"/>
      </defs>
      <g transform="translate(191.047241 322.182437)scale(0.1 -0.1)">
       <use xlink:href="#DejaVuSans-34"/>
       <use x="63.623047" xlink:href="#DejaVuSans-30"/>
       <use x="127.246094" xlink:href="#DejaVuSans-30"/>
      </g>
     </g>
    </g>
    <g id="xtick_4">
     <g id="line2d_4">
      <g>
       <use style="stroke:#000000;stroke-width:0.8;" x="272.086486" xlink:href="#m0a813f328f" y="307.584"/>
      </g>
     </g>
     <g id="text_4">
      <!-- 600 -->
      <defs>
       <path d="M 33.015625 40.375 
Q 26.375 40.375 22.484375 35.828125 
Q 18.609375 31.296875 18.609375 23.390625 
Q 18.609375 15.53125 22.484375 10.953125 
Q 26.375 6.390625 33.015625 6.390625 
Q 39.65625 6.390625 43.53125 10.953125 
Q 47.40625 15.53125 47.40625 23.390625 
Q 47.40625 31.296875 43.53125 35.828125 
Q 39.65625 40.375 33.015625 40.375 
M 52.59375 71.296875 
L 52.59375 62.3125 
Q 48.875 64.0625 45.09375 64.984375 
Q 41.3125 65.921875 37.59375 65.921875 
Q 27.828125 65.921875 22.671875 59.328125 
Q 17.53125 52.734375 16.796875 39.40625 
Q 19.671875 43.65625 24.015625 45.921875 
Q 28.375 48.1875 33.59375 48.1875 
Q 44.578125 48.1875 50.953125 41.515625 
Q 57.328125 34.859375 57.328125 23.390625 
Q 57.328125 12.15625 50.6875 5.359375 
Q 44.046875 -1.421875 33.015625 -1.421875 
Q 20.359375 -1.421875 13.671875 8.265625 
Q 6.984375 17.96875 6.984375 36.375 
Q 6.984375 53.65625 15.1875 63.9375 
Q 23.390625 74.21875 37.203125 74.21875 
Q 40.921875 74.21875 44.703125 73.484375 
Q 48.484375 72.75 52.59375 71.296875 
" id="DejaVuSans-36"/>
      </defs>
      <g transform="translate(262.542736 322.182437)scale(0.1 -0.1)">
       <use xlink:href="#DejaVuSans-36"/>
       <use x="63.623047" xlink:href="#DejaVuSans-30"/>
       <use x="127.246094" xlink:href="#DejaVuSans-30"/>
      </g>
     </g>
    </g>
    <g id="xtick_5">
     <g id="line2d_5">
      <g>
       <use style="stroke:#000000;stroke-width:0.8;" x="343.581982" xlink:href="#m0a813f328f" y="307.584"/>
      </g>
     </g>
     <g id="text_5">
      <!-- 800 -->
      <defs>
       <path d="M 31.78125 34.625 
Q 24.75 34.625 20.71875 30.859375 
Q 16.703125 27.09375 16.703125 20.515625 
Q 16.703125 13.921875 20.71875 10.15625 
Q 24.75 6.390625 31.78125 6.390625 
Q 38.8125 6.390625 42.859375 10.171875 
Q 46.921875 13.96875 46.921875 20.515625 
Q 46.921875 27.09375 42.890625 30.859375 
Q 38.875 34.625 31.78125 34.625 
M 21.921875 38.8125 
Q 15.578125 40.375 12.03125 44.71875 
Q 8.5 49.078125 8.5 55.328125 
Q 8.5 64.0625 14.71875 69.140625 
Q 20.953125 74.21875 31.78125 74.21875 
Q 42.671875 74.21875 48.875 69.140625 
Q 55.078125 64.0625 55.078125 55.328125 
Q 55.078125 49.078125 51.53125 44.71875 
Q 48 40.375 41.703125 38.8125 
Q 48.828125 37.15625 52.796875 32.3125 
Q 56.78125 27.484375 56.78125 20.515625 
Q 56.78125 9.90625 50.3125 4.234375 
Q 43.84375 -1.421875 31.78125 -1.421875 
Q 19.734375 -1.421875 13.25 4.234375 
Q 6.78125 9.90625 6.78125 20.515625 
Q 6.78125 27.484375 10.78125 32.3125 
Q 14.796875 37.15625 21.921875 38.8125 
M 18.3125 54.390625 
Q 18.3125 48.734375 21.84375 45.5625 
Q 25.390625 42.390625 31.78125 42.390625 
Q 38.140625 42.390625 41.71875 45.5625 
Q 45.3125 48.734375 45.3125 54.390625 
Q 45.3125 60.0625 41.71875 63.234375 
Q 38.140625 66.40625 31.78125 66.40625 
Q 25.390625 66.40625 21.84375 63.234375 
Q 18.3125 60.0625 18.3125 54.390625 
" id="DejaVuSans-38"/>
      </defs>
      <g transform="translate(334.038232 322.182437)scale(0.1 -0.1)">
       <use xlink:href="#DejaVuSans-38"/>
       <use x="63.623047" xlink:href="#DejaVuSans-30"/>
       <use x="127.246094" xlink:href="#DejaVuSans-30"/>
      </g>
     </g>
    </g>
    <g id="xtick_6">
     <g id="line2d_6">
      <g>
       <use style="stroke:#000000;stroke-width:0.8;" x="415.077477" xlink:href="#m0a813f328f" y="307.584"/>
      </g>
     </g>
     <g id="text_6">
      <!-- 1000 -->
      <defs>
       <path d="M 12.40625 8.296875 
L 28.515625 8.296875 
L 28.515625 63.921875 
L 10.984375 60.40625 
L 10.984375 69.390625 
L 28.421875 72.90625 
L 38.28125 72.90625 
L 38.28125 8.296875 
L 54.390625 8.296875 
L 54.390625 0 
L 12.40625 0 
z
" id="DejaVuSans-31"/>
      </defs>
      <g transform="translate(402.352477 322.182437)scale(0.1 -0.1)">
       <use xlink:href="#DejaVuSans-31"/>
       <use x="63.623047" xlink:href="#DejaVuSans-30"/>
       <use x="127.246094" xlink:href="#DejaVuSans-30"/>
       <use x="190.869141" xlink:href="#DejaVuSans-30"/>
      </g>
     </g>
    </g>
   </g>
   <g id="matplotlib.axis_2">
    <g id="ytick_1">
     <g id="line2d_7">
      <defs>
       <path d="M 0 0 
L -3.5 0 
" id="m21184a34d0" style="stroke:#000000;stroke-width:0.8;"/>
      </defs>
      <g>
       <use style="stroke:#000000;stroke-width:0.8;" x="57.6" xlink:href="#m21184a34d0" y="295.490661"/>
      </g>
     </g>
     <g id="text_7">
      <!-- 0.0 -->
      <defs>
       <path d="M 10.6875 12.40625 
L 21 12.40625 
L 21 0 
L 10.6875 0 
z
" id="DejaVuSans-2e"/>
      </defs>
      <g transform="translate(34.696875 299.28988)scale(0.1 -0.1)">
       <use xlink:href="#DejaVuSans-30"/>
       <use x="63.623047" xlink:href="#DejaVuSans-2e"/>
       <use x="95.410156" xlink:href="#DejaVuSans-30"/>
      </g>
     </g>
    </g>
    <g id="ytick_2">
     <g id="line2d_8">
      <g>
       <use style="stroke:#000000;stroke-width:0.8;" x="57.6" xlink:href="#m21184a34d0" y="247.106129"/>
      </g>
     </g>
     <g id="text_8">
      <!-- 0.2 -->
      <g transform="translate(34.696875 250.905348)scale(0.1 -0.1)">
       <use xlink:href="#DejaVuSans-30"/>
       <use x="63.623047" xlink:href="#DejaVuSans-2e"/>
       <use x="95.410156" xlink:href="#DejaVuSans-32"/>
      </g>
     </g>
    </g>
    <g id="ytick_3">
     <g id="line2d_9">
      <g>
       <use style="stroke:#000000;stroke-width:0.8;" x="57.6" xlink:href="#m21184a34d0" y="198.721597"/>
      </g>
     </g>
     <g id="text_9">
      <!-- 0.4 -->
      <g transform="translate(34.696875 202.520815)scale(0.1 -0.1)">
       <use xlink:href="#DejaVuSans-30"/>
       <use x="63.623047" xlink:href="#DejaVuSans-2e"/>
       <use x="95.410156" xlink:href="#DejaVuSans-34"/>
      </g>
     </g>
    </g>
    <g id="ytick_4">
     <g id="line2d_10">
      <g>
       <use style="stroke:#000000;stroke-width:0.8;" x="57.6" xlink:href="#m21184a34d0" y="150.337064"/>
      </g>
     </g>
     <g id="text_10">
      <!-- 0.6 -->
      <g transform="translate(34.696875 154.136283)scale(0.1 -0.1)">
       <use xlink:href="#DejaVuSans-30"/>
       <use x="63.623047" xlink:href="#DejaVuSans-2e"/>
       <use x="95.410156" xlink:href="#DejaVuSans-36"/>
      </g>
     </g>
    </g>
    <g id="ytick_5">
     <g id="line2d_11">
      <g>
       <use style="stroke:#000000;stroke-width:0.8;" x="57.6" xlink:href="#m21184a34d0" y="101.952532"/>
      </g>
     </g>
     <g id="text_11">
      <!-- 0.8 -->
      <g transform="translate(34.696875 105.751751)scale(0.1 -0.1)">
       <use xlink:href="#DejaVuSans-30"/>
       <use x="63.623047" xlink:href="#DejaVuSans-2e"/>
       <use x="95.410156" xlink:href="#DejaVuSans-38"/>
      </g>
     </g>
    </g>
    <g id="ytick_6">
     <g id="line2d_12">
      <g>
       <use style="stroke:#000000;stroke-width:0.8;" x="57.6" xlink:href="#m21184a34d0" y="53.568"/>
      </g>
     </g>
     <g id="text_12">
      <!-- 1.0 -->
      <g transform="translate(34.696875 57.367219)scale(0.1 -0.1)">
       <use xlink:href="#DejaVuSans-31"/>
       <use x="63.623047" xlink:href="#DejaVuSans-2e"/>
       <use x="95.410156" xlink:href="#DejaVuSans-30"/>
      </g>
     </g>
    </g>
   </g>
   <g id="line2d_13">
    <path clip-path="url(#p9d144383c2)" d="M 57.6 295.48679 
L 62.962162 295.37599 
L 64.034595 295.295188 
L 65.821982 294.943432 
L 66.536937 294.521277 
L 66.894414 294.31903 
L 67.251892 293.850426 
L 67.609369 293.618906 
L 68.324324 292.883944 
L 68.681802 291.389104 
L 69.039279 291.291126 
L 70.111712 286.057129 
L 70.469189 285.729808 
L 70.826667 280.879016 
L 71.184144 279.374257 
L 72.614054 256.830452 
L 72.971532 244.738916 
L 73.329009 237.119561 
L 73.686486 215.168709 
L 74.043964 204.771599 
L 74.401441 171.201442 
L 74.758919 155.855804 
L 75.116396 128.086712 
L 75.473874 111.879829 
L 75.831351 108.283648 
L 76.188829 89.467871 
L 76.546306 83.384726 
L 76.903784 81.656914 
L 77.618739 62.994275 
L 77.976216 64.661847 
L 78.333694 65.202787 
L 79.406126 58.099453 
L 79.763604 57.409248 
L 80.121081 61.362748 
L 80.478559 60.414411 
L 80.836036 54.770356 
L 81.193514 56.091737 
L 81.550991 56.205441 
L 81.908468 59.796057 
L 82.265946 55.386291 
L 82.623423 57.972444 
L 82.980901 57.881723 
L 83.338378 53.568 
L 83.695856 54.549964 
L 84.053333 53.794923 
L 84.410811 53.568 
L 84.768288 55.271619 
L 85.125766 54.260383 
L 85.483243 53.979269 
L 85.840721 60.738104 
L 86.198198 54.008541 
L 86.555676 55.09937 
L 86.913153 54.044346 
L 87.270631 57.764632 
L 87.628108 53.568 
L 87.985586 53.568 
L 88.343063 54.88793 
L 88.700541 54.472791 
L 89.058018 53.568 
L 89.415495 57.279094 
L 89.772973 53.568 
L 90.13045 53.568 
L 90.487928 54.409891 
L 90.845405 55.682646 
L 91.202883 53.568 
L 91.56036 54.537384 
L 91.917838 58.055907 
L 92.275315 54.284091 
L 92.632793 53.568 
L 92.99027 54.708907 
L 94.062703 53.568 
L 94.42018 53.568 
L 94.777658 54.277559 
L 95.135135 57.674879 
L 95.492613 53.568 
L 95.85009 53.568 
L 96.207568 55.810623 
L 96.565045 53.901611 
L 96.922523 54.16942 
L 97.28 53.568 
L 97.637477 53.568 
L 97.994955 56.276566 
L 98.352432 54.62496 
L 98.70991 55.138078 
L 99.067387 53.568 
L 99.424865 55.155738 
L 99.782342 53.568 
L 100.854775 53.568 
L 101.212252 57.666412 
L 101.927207 53.568 
L 102.284685 53.568 
L 102.642162 57.886803 
L 102.99964 53.568 
L 104.072072 53.568 
L 104.42955 56.119316 
L 104.787027 53.568 
L 105.144505 53.568 
L 105.501982 55.583942 
L 105.859459 53.568 
L 106.931892 56.030773 
L 107.289369 53.568 
L 107.646847 54.069022 
L 108.004324 53.568 
L 108.361802 54.737696 
L 108.719279 53.816213 
L 109.076757 53.568 
L 109.434234 54.264253 
L 109.791712 53.568 
L 110.149189 54.981312 
L 110.506667 54.46142 
L 110.864144 54.296187 
L 111.221622 53.719444 
L 111.579099 56.012628 
L 111.936577 55.749175 
L 112.294054 58.04865 
L 112.651532 53.568 
L 113.009009 53.568 
L 113.366486 57.103216 
L 113.723964 53.568 
L 114.081441 56.444702 
L 114.438919 53.584209 
L 114.796396 59.196089 
L 115.153874 54.56956 
L 115.511351 56.366803 
L 115.868829 53.568 
L 116.226306 53.568 
L 116.583784 58.944005 
L 116.941261 53.568 
L 117.656216 58.839253 
L 118.013694 54.933411 
L 118.371171 57.878336 
L 118.728649 53.568 
L 119.086126 53.568 
L 119.443604 53.761296 
L 119.801081 57.404651 
L 120.158559 55.368147 
L 120.516036 57.100555 
L 121.230991 53.568 
L 121.588468 53.911288 
L 121.945946 53.568 
L 122.660901 53.568 
L 123.018378 60.095799 
L 123.375856 53.568 
L 123.733333 53.568 
L 124.090811 55.798769 
L 124.448288 53.568 
L 125.163243 53.611546 
L 125.520721 53.746539 
L 125.878198 53.568 
L 126.235676 53.568 
L 126.593153 55.07421 
L 126.950631 53.568 
L 127.308108 55.157916 
L 127.665586 54.818498 
L 128.023063 56.047465 
L 128.380541 55.534589 
L 128.738018 53.568 
L 130.525405 53.568 
L 130.882883 58.454596 
L 131.597838 53.568 
L 132.312793 53.568 
L 132.67027 54.629315 
L 133.027748 53.568 
L 133.385225 55.058969 
L 133.742703 57.61077 
L 134.10018 55.909569 
L 134.457658 53.568 
L 135.53009 53.568 
L 135.887568 53.872339 
L 136.245045 53.568 
L 136.96 53.568 
L 137.317477 58.081793 
L 137.674955 53.568 
L 138.38991 53.568 
L 138.747387 55.624101 
L 139.462342 53.568 
L 139.81982 53.952657 
L 140.177297 59.56115 
L 140.534775 53.568 
L 140.892252 53.568 
L 141.24973 54.218772 
L 141.607207 58.062923 
L 141.964685 54.78729 
L 142.322162 53.568968 
L 142.67964 57.34151 
L 143.037117 54.683989 
L 143.394595 54.178855 
L 143.752072 55.096951 
L 144.10955 53.568 
L 144.467027 53.568 
L 144.824505 54.839546 
L 145.181982 58.394599 
L 145.539459 53.643238 
L 145.896937 53.568 
L 146.254414 56.752428 
L 146.969369 53.568 
L 147.326847 58.001959 
L 147.684324 53.568 
L 148.041802 53.568 
L 148.399279 57.252482 
L 148.756757 56.109639 
L 149.114234 54.255302 
L 149.471712 57.220306 
L 149.829189 53.568 
L 150.186667 53.568 
L 150.544144 59.233829 
L 150.901622 53.568 
L 151.616577 53.568 
L 151.974054 56.616226 
L 152.331532 53.568 
L 152.689009 53.568 
L 153.403964 56.009725 
L 153.761441 55.098887 
L 154.118919 58.151951 
L 154.476396 53.568 
L 155.191351 53.568 
L 155.548829 54.890107 
L 155.906306 53.568 
L 156.263784 53.568 
L 156.621261 54.557948 
L 156.978739 53.568 
L 157.336216 54.657862 
L 157.693694 56.306806 
L 158.051171 53.568 
L 158.766126 53.568 
L 159.123604 54.891075 
L 159.481081 53.568 
L 160.553514 53.568 
L 160.910991 54.574882 
L 161.268468 53.568 
L 161.625946 53.568 
L 161.983423 54.917928 
L 162.340901 54.843658 
L 162.698378 53.568 
L 163.055856 56.382044 
L 163.413333 53.726943 
L 164.128288 56.06948 
L 164.485766 53.568 
L 165.200721 53.568 
L 165.558198 54.793338 
L 165.915676 53.568 
L 166.630631 53.568 
L 166.988108 56.372851 
L 167.345586 55.408548 
L 167.703063 53.568 
L 168.060541 53.773392 
L 168.418018 56.064884 
L 168.775495 53.568 
L 169.132973 54.407472 
L 169.49045 53.568 
L 169.847928 55.577652 
L 170.205405 56.593001 
L 170.562883 53.568 
L 170.92036 53.568 
L 171.635315 58.775385 
L 171.992793 53.568 
L 172.35027 55.279845 
L 172.707748 54.918412 
L 173.065225 53.568 
L 173.422703 54.518756 
L 173.78018 53.568 
L 174.137658 53.568 
L 174.495135 53.831696 
L 174.852613 53.568 
L 175.567568 53.568 
L 175.925045 55.282264 
L 176.282523 53.734685 
L 176.64 53.568 
L 177.354955 53.568 
L 177.712432 57.219339 
L 178.06991 53.568 
L 178.784865 53.568 
L 179.142342 53.73154 
L 179.49982 56.149073 
L 179.857297 54.983973 
L 180.214775 55.509913 
L 180.572252 53.631384 
L 180.92973 53.568 
L 181.287207 54.982522 
L 181.644685 55.380485 
L 182.002162 53.871371 
L 182.35964 53.817664 
L 182.717117 53.568 
L 183.074595 57.848338 
L 183.432072 53.568 
L 183.78955 53.568 
L 184.147027 53.772667 
L 184.504505 53.568 
L 184.861982 53.932577 
L 185.219459 58.454596 
L 185.576937 54.570286 
L 185.934414 53.568 
L 186.291892 53.568 
L 186.649369 55.582248 
L 187.006847 53.568 
L 187.364324 53.568 
L 187.721802 54.167968 
L 188.079279 53.568 
L 188.436757 53.568 
L 188.794234 54.884301 
L 189.151712 53.568 
L 189.509189 53.568 
L 189.866667 54.633185 
L 190.224144 56.361481 
L 190.581622 53.568 
L 190.939099 56.248745 
L 191.296577 53.568 
L 191.654054 54.683263 
L 192.011532 53.568 
L 193.083964 53.669366 
L 193.441441 56.982496 
L 193.798919 57.394249 
L 194.156396 53.568 
L 196.301261 53.568 
L 196.658739 54.429245 
L 197.016216 53.789601 
L 197.373694 53.568 
L 197.731171 54.675764 
L 198.088649 54.628105 
L 198.446126 53.568 
L 199.876036 53.568 
L 200.233514 56.397769 
L 200.590991 54.803499 
L 200.948468 57.675847 
L 201.305946 53.568 
L 201.663423 57.028704 
L 202.020901 54.907042 
L 202.378378 54.456098 
L 202.735856 53.568 
L 203.450811 53.568 
L 203.808288 57.329655 
L 204.165766 53.568 
L 204.523243 54.487548 
L 204.880721 53.568 
L 205.238198 53.568 
L 205.595676 54.867609 
L 205.953153 53.965721 
L 206.310631 53.568 
L 206.668108 55.165657 
L 207.025586 54.042894 
L 207.383063 55.510397 
L 207.740541 55.952632 
L 208.098018 55.178479 
L 208.455495 53.568 
L 209.17045 53.568 
L 209.527928 60.097976 
L 209.885405 55.126224 
L 210.242883 58.072842 
L 210.60036 53.568 
L 210.957838 53.568 
L 211.315315 54.274656 
L 211.672793 53.568 
L 212.745225 53.568 
L 213.102703 54.017492 
L 213.46018 54.903897 
L 213.817658 54.796483 
L 214.175135 55.110983 
L 214.532613 53.568 
L 215.247568 53.568 
L 215.605045 57.543999 
L 215.962523 59.576875 
L 216.32 53.568 
L 216.677477 53.568 
L 217.034955 55.570878 
L 217.392432 54.542948 
L 217.74991 56.568325 
L 218.107387 54.171597 
L 218.464865 53.568 
L 218.822342 54.237158 
L 219.17982 58.059778 
L 219.537297 53.568 
L 219.894775 57.452068 
L 220.252252 53.568 
L 221.682162 53.568 
L 222.03964 54.652539 
L 222.397117 53.568 
L 222.754595 55.493704 
L 223.46955 53.568 
L 223.827027 58.062923 
L 224.184505 58.692164 
L 224.541982 53.568 
L 224.899459 55.484511 
L 225.256937 53.568 
L 225.614414 53.568 
L 225.971892 54.760921 
L 226.329369 53.568 
L 226.686847 54.589639 
L 227.044324 53.568 
L 227.401802 54.485613 
L 227.759279 53.568 
L 228.474234 53.568 
L 228.831712 54.342153 
L 229.189189 53.568 
L 229.546667 53.861936 
L 229.904144 54.388118 
L 230.261622 55.298473 
L 230.619099 54.16192 
L 230.976577 54.017008 
L 231.334054 53.568 
L 231.691532 53.568 
L 232.049009 59.048758 
L 232.406486 53.568 
L 232.763964 57.481825 
L 233.121441 56.379383 
L 233.478919 54.68786 
L 233.836396 55.507252 
L 234.551351 53.568 
L 234.908829 53.568 
L 235.266306 54.122245 
L 235.623784 54.975264 
L 235.981261 54.524804 
L 236.338739 53.568 
L 236.696216 55.421128 
L 237.053694 53.861452 
L 237.411171 53.568 
L 237.768649 53.568 
L 238.126126 55.603779 
L 238.483604 53.568 
L 238.841081 54.01096 
L 239.198559 53.568 
L 239.556036 53.568 
L 239.913514 56.972578 
L 240.270991 53.568 
L 240.628468 53.568 
L 240.985946 54.429003 
L 241.343423 53.747507 
L 241.700901 56.467443 
L 242.058378 53.568 
L 243.488288 53.568 
L 243.845766 55.969324 
L 244.203243 53.568 
L 244.560721 53.568 
L 244.918198 54.971877 
L 245.275676 53.568 
L 246.348108 53.568 
L 246.705586 55.523703 
L 247.063063 53.590015 
L 248.85045 53.568 
L 249.207928 56.506876 
L 249.565405 53.568 
L 249.922883 53.568 
L 250.28036 54.623025 
L 250.637838 53.941771 
L 250.995315 54.114987 
L 251.352793 53.568 
L 251.71027 53.568 
L 252.067748 56.561067 
L 252.425225 54.955426 
L 252.782703 54.765759 
L 253.14018 53.568 
L 253.497658 55.829009 
L 253.855135 55.059937 
L 254.212613 53.568 
L 254.57009 55.329681 
L 254.927568 55.67055 
L 255.285045 53.568 
L 255.642523 53.568 
L 256 59.14093 
L 256.357477 53.959673 
L 256.714955 53.568 
L 257.072432 55.266781 
L 257.42991 53.568 
L 257.787387 54.361022 
L 258.144865 53.568 
L 258.502342 53.568 
L 258.85982 56.284066 
L 259.217297 57.374895 
L 259.932252 56.65711 
L 260.28973 53.568 
L 261.004685 57.064024 
L 261.362162 57.492227 
L 262.077117 53.568 
L 262.792072 53.568 
L 263.14955 54.125148 
L 263.507027 53.568 
L 264.221982 53.568 
L 264.579459 56.098753 
L 264.936937 53.568 
L 265.294414 53.568 
L 265.651892 57.141198 
L 266.009369 54.471339 
L 266.366847 53.568 
L 266.724324 53.568 
L 267.439279 55.351938 
L 267.796757 53.568 
L 268.154234 57.357235 
L 268.511712 57.300383 
L 268.869189 54.147405 
L 269.226667 53.568 
L 269.584144 53.568 
L 269.941622 56.392689 
L 270.299099 54.870995 
L 270.656577 57.555853 
L 271.014054 53.568 
L 271.371532 53.568 
L 271.729009 54.408197 
L 272.086486 53.568 
L 272.443964 53.568 
L 272.801441 54.042652 
L 273.158919 58.538543 
L 273.516396 53.568 
L 273.873874 54.976716 
L 274.231351 54.945991 
L 274.946306 53.568 
L 275.661261 53.568 
L 276.018739 55.810139 
L 276.376216 54.131922 
L 276.733694 53.568 
L 277.091171 58.024699 
L 277.448649 55.140981 
L 277.806126 53.568 
L 278.163604 53.568 
L 278.521081 57.339332 
L 279.236036 53.568 
L 279.593514 53.568 
L 279.950991 56.618161 
L 280.308468 57.11507 
L 280.665946 53.568 
L 282.453333 53.568 
L 282.810811 56.650579 
L 283.168288 53.568 
L 283.525766 53.894354 
L 283.883243 55.273313 
L 284.240721 53.568 
L 284.598198 53.970801 
L 284.955676 53.568 
L 285.313153 54.976958 
L 285.670631 59.187138 
L 286.028108 53.957012 
L 286.385586 56.943789 
L 286.743063 55.260249 
L 287.100541 57.911721 
L 287.458018 54.375054 
L 287.815495 53.568 
L 288.172973 55.654825 
L 288.53045 53.568 
L 289.245405 56.565422 
L 289.602883 53.568 
L 289.96036 56.367771 
L 290.675315 54.238368 
L 291.032793 55.701032 
L 291.39027 54.196031 
L 291.747748 53.568 
L 292.105225 57.137327 
L 292.462703 53.568 
L 292.82018 55.127675 
L 293.177658 53.568 
L 293.535135 55.882474 
L 293.892613 53.568 
L 295.322523 53.568 
L 296.037477 56.178829 
L 296.394955 53.568 
L 296.752432 55.396693 
L 297.10991 53.568 
L 297.824865 53.568 
L 298.182342 56.680335 
L 298.53982 53.568 
L 298.897297 53.568 
L 299.254775 55.589506 
L 299.612252 55.036471 
L 300.327207 58.006555 
L 300.684685 53.568 
L 301.042162 53.568 
L 301.39964 54.228933 
L 301.757117 57.312721 
L 302.114595 54.523595 
L 302.472072 54.88914 
L 302.82955 53.568 
L 303.187027 55.344196 
L 303.544505 53.568 
L 303.901982 56.128993 
L 304.259459 53.568 
L 304.616937 55.143158 
L 304.974414 53.568 
L 307.119279 53.568 
L 307.476757 54.858415 
L 307.834234 53.568 
L 308.191712 53.808471 
L 308.549189 56.467443 
L 308.906667 56.085205 
L 309.264144 57.160552 
L 309.621622 53.568 
L 309.979099 54.489483 
L 310.336577 53.568 
L 310.694054 55.371775 
L 311.051532 53.568 
L 311.409009 57.035719 
L 311.766486 53.568 
L 312.481441 53.568 
L 312.838919 58.702325 
L 313.196396 55.321939 
L 313.553874 55.574507 
L 313.911351 55.552008 
L 314.268829 53.568 
L 314.626306 56.775894 
L 314.983784 53.568 
L 315.341261 53.568 
L 315.698739 56.006822 
L 316.056216 56.953224 
L 316.413694 53.568 
L 316.771171 54.057651 
L 317.128649 53.568 
L 317.486126 54.733825 
L 317.843604 58.678374 
L 318.201081 53.568 
L 319.630991 53.568 
L 319.988468 55.980453 
L 320.345946 53.568 
L 320.703423 55.028729 
L 321.060901 58.36581 
L 321.418378 53.568 
L 322.848288 53.568 
L 323.205766 56.757266 
L 323.563243 53.568 
L 323.920721 56.237617 
L 324.278198 56.516311 
L 324.635676 58.564913 
L 324.993153 55.445562 
L 325.350631 54.398037 
L 325.708108 54.878737 
L 326.065586 53.983865 
L 326.423063 53.568 
L 327.495495 53.568 
L 327.852973 55.151868 
L 328.21045 53.568 
L 328.567928 53.837502 
L 328.925405 53.568 
L 329.282883 53.568 
L 329.997838 56.883308 
L 330.355315 54.066603 
L 330.712793 55.485721 
L 331.07027 55.117031 
L 331.427748 53.568 
L 331.785225 53.853711 
L 332.142703 55.109047 
L 332.50018 55.521525 
L 332.857658 53.568 
L 333.215135 53.720169 
L 333.572613 53.568 
L 333.93009 57.3478 
L 334.287568 53.568 
L 334.645045 54.665603 
L 335.002523 53.568 
L 335.36 53.568 
L 335.717477 53.937174 
L 336.074955 57.606657 
L 336.432432 53.938626 
L 336.78991 53.568 
L 337.862342 53.568 
L 338.21982 55.278151 
L 338.577297 53.568 
L 338.934775 54.712778 
L 339.292252 53.568 
L 339.64973 56.261325 
L 340.007207 54.309251 
L 340.364685 53.568 
L 342.152072 53.568 
L 342.50955 53.705412 
L 342.867027 53.568 
L 343.224505 53.568 
L 343.581982 53.685091 
L 343.939459 53.568 
L 344.296937 53.943222 
L 344.654414 53.568 
L 345.011892 53.568 
L 345.369369 56.216327 
L 345.726847 53.996203 
L 346.084324 54.250948 
L 346.441802 53.568 
L 346.799279 53.568 
L 347.156757 54.474726 
L 347.514234 53.568 
L 348.229189 53.568 
L 348.586667 54.6073 
L 348.944144 54.557948 
L 349.301622 55.132998 
L 349.659099 56.131654 
L 350.016577 53.568 
L 350.374054 57.238693 
L 350.731532 53.568 
L 351.089009 54.164581 
L 351.446486 53.568 
L 351.803964 53.568 
L 352.161441 54.27635 
L 352.518919 53.568 
L 353.591351 53.568 
L 353.948829 55.157916 
L 354.306306 53.568 
L 354.663784 55.331858 
L 355.021261 54.2928 
L 355.378739 59.708239 
L 355.736216 53.568 
L 356.093694 60.449248 
L 356.451171 53.568 
L 356.808649 53.568 
L 357.166126 57.61077 
L 357.523604 53.568 
L 357.881081 53.669124 
L 358.238559 53.568 
L 358.596036 53.8046 
L 358.953514 59.639291 
L 359.310991 53.568 
L 361.098378 53.568 
L 361.455856 55.090661 
L 362.170811 53.568 
L 362.528288 53.687026 
L 362.885766 55.319278 
L 363.243243 53.568 
L 363.600721 57.022898 
L 363.958198 53.568 
L 366.103063 53.568 
L 366.460541 55.780625 
L 366.818018 56.371884 
L 367.532973 53.568 
L 367.89045 56.120284 
L 368.247928 53.767586 
L 368.605405 58.913281 
L 368.962883 53.568 
L 370.035315 53.568 
L 370.392793 55.36984 
L 370.75027 53.568 
L 372.18018 53.568 
L 372.537658 57.35796 
L 372.895135 54.305138 
L 373.252613 54.232562 
L 373.61009 53.568 
L 373.967568 57.110715 
L 374.325045 53.568 
L 374.682523 56.954191 
L 375.04 53.568 
L 375.397477 55.694984 
L 375.754955 53.568 
L 376.112432 56.661223 
L 376.46991 53.568 
L 377.184865 53.568 
L 377.542342 56.053997 
L 377.89982 53.946125 
L 378.257297 57.551015 
L 378.614775 53.584451 
L 379.32973 53.568 
L 379.687207 56.420752 
L 380.044685 56.498409 
L 380.402162 55.192269 
L 380.75964 57.803098 
L 381.117117 57.899625 
L 381.474595 53.568 
L 382.18955 53.568 
L 382.547027 57.754955 
L 382.904505 57.125957 
L 383.261982 53.568 
L 383.619459 56.391963 
L 383.976937 53.568 
L 384.691892 53.568 
L 385.049369 54.298123 
L 385.406847 53.568 
L 385.764324 54.358361 
L 386.121802 53.712428 
L 386.479279 53.568 
L 386.836757 56.50107 
L 387.194234 53.568 
L 387.909189 53.568 
L 388.624144 55.248395 
L 388.981622 53.568 
L 389.339099 57.897932 
L 389.696577 53.568 
L 390.411532 53.568 
L 391.126486 53.568 
L 391.483964 55.129611 
L 391.841441 53.568 
L 392.198919 53.568 
L 392.556396 54.233529 
L 392.913874 53.736862 
L 393.271351 53.728395 
L 393.628829 55.079291 
L 393.986306 54.931476 
L 394.343784 56.397286 
L 394.701261 53.568 
L 395.058739 53.568 
L 395.416216 56.234472 
L 395.773694 53.568 
L 396.488649 53.568 
L 396.846126 55.904489 
L 397.203604 55.792237 
L 397.561081 53.568 
L 398.633514 53.568 
L 398.990991 54.658587 
L 399.348468 54.915993 
L 399.705946 55.379275 
L 400.063423 53.568 
L 400.420901 53.568 
L 400.778378 55.78885 
L 401.135856 55.2138 
L 401.493333 54.001283 
L 401.850811 55.552008 
L 402.208288 53.568 
L 402.565766 53.891451 
L 402.923243 55.10566 
L 403.280721 55.657486 
L 403.638198 58.189932 
L 403.995676 53.568 
L 404.353153 53.568 
L 404.710631 54.661007 
L 405.068108 53.568 
L 405.425586 53.568 
L 405.783063 54.303203 
L 406.140541 53.568 
L 407.927928 53.568 
L 408.285405 56.214876 
L 408.642883 55.459351 
L 409.00036 53.568 
L 409.357838 55.630149 
L 409.715315 53.568 
L 410.072793 53.568 
L 410.43027 55.583458 
L 411.145225 53.568 
L 411.502703 53.792988 
L 411.86018 53.568 
L 412.217658 53.568 
L 412.575135 54.679877 
L 412.932613 53.568 
L 413.29009 57.470938 
L 413.647568 53.568 
L 414.005045 53.568 
L 414.362523 55.594102 
L 414.72 55.91344 
L 414.72 55.91344 
" style="fill:none;stroke:#1f77b4;stroke-linecap:square;stroke-width:1.5;"/>
   </g>
   <g id="line2d_14">
    <path clip-path="url(#p9d144383c2)" d="M 57.6 295.487032 
L 69.039279 295.379861 
L 74.043964 294.970044 
L 74.401441 294.862146 
L 74.758919 294.6374 
L 75.116396 294.688688 
L 76.188829 294.430556 
L 76.546306 294.439023 
L 77.618739 293.601729 
L 77.976216 293.618906 
L 78.333694 293.240538 
L 79.048649 292.787901 
L 79.406126 292.889509 
L 79.763604 292.364537 
L 80.121081 292.198578 
L 80.478559 291.498211 
L 80.836036 291.218791 
L 81.193514 291.14065 
L 81.550991 288.908187 
L 81.908468 288.740051 
L 82.265946 290.048127 
L 82.623423 287.834051 
L 83.338378 286.024711 
L 83.695856 283.137364 
L 84.053333 284.175938 
L 84.410811 283.451864 
L 84.768288 280.66685 
L 85.125766 279.98995 
L 85.483243 278.50382 
L 85.840721 273.871001 
L 86.198198 273.512229 
L 86.555676 271.015104 
L 86.913153 265.613696 
L 87.270631 263.905239 
L 87.628108 261.127241 
L 87.985586 253.158308 
L 89.772973 226.632214 
L 90.13045 214.68946 
L 90.487928 216.061887 
L 90.845405 191.486416 
L 91.202883 188.312632 
L 91.56036 163.812399 
L 91.917838 153.770189 
L 92.275315 161.832987 
L 92.632793 147.351255 
L 92.99027 128.323796 
L 93.347748 126.267453 
L 93.705225 120.632107 
L 94.42018 85.427279 
L 94.777658 101.245876 
L 95.492613 88.353334 
L 95.85009 84.564099 
L 96.207568 87.441769 
L 96.565045 76.377678 
L 96.922523 71.665025 
L 97.28 75.329911 
L 97.637477 76.114224 
L 97.994955 75.439986 
L 98.352432 72.088389 
L 98.70991 63.819473 
L 99.067387 67.774908 
L 99.424865 54.70794 
L 99.782342 64.543547 
L 100.13982 64.198324 
L 100.497297 66.164187 
L 100.854775 57.806485 
L 101.212252 64.754988 
L 101.56973 58.870461 
L 101.927207 57.558272 
L 102.284685 60.385381 
L 102.642162 57.782535 
L 102.99964 63.086689 
L 103.357117 60.533679 
L 103.714595 60.664801 
L 104.072072 62.420918 
L 104.42955 57.134424 
L 104.787027 55.726192 
L 105.501982 62.398903 
L 105.859459 55.609343 
L 106.216937 53.568 
L 106.574414 58.787965 
L 106.931892 57.481825 
L 107.289369 55.065017 
L 107.646847 57.022172 
L 108.361802 55.323633 
L 108.719279 56.005371 
L 109.076757 53.568 
L 109.434234 57.534322 
L 109.791712 55.87691 
L 110.149189 55.60136 
L 110.506667 53.962334 
L 110.864144 56.951772 
L 111.221622 54.163372 
L 111.579099 53.568 
L 112.294054 56.478088 
L 112.651532 54.840755 
L 113.009009 57.92793 
L 113.366486 55.018084 
L 113.723964 53.568 
L 114.081441 54.239577 
L 114.438919 53.628481 
L 114.796396 53.568 
L 115.153874 57.067411 
L 115.511351 56.213908 
L 115.868829 53.568 
L 116.226306 53.568 
L 116.583784 53.872823 
L 116.941261 57.931801 
L 117.298739 53.568 
L 119.086126 53.568 
L 119.443604 54.396585 
L 119.801081 53.568 
L 120.158559 54.231352 
L 120.516036 56.947901 
L 120.873514 54.359813 
L 121.230991 53.568 
L 121.588468 53.849114 
L 121.945946 55.615633 
L 122.303423 55.068646 
L 122.660901 53.568 
L 123.375856 53.568 
L 123.733333 54.038781 
L 124.090811 53.673478 
L 124.448288 54.216111 
L 124.805766 53.568 
L 125.163243 57.323607 
L 125.520721 54.621815 
L 125.878198 53.568 
L 126.950631 53.568 
L 127.308108 53.681946 
L 128.023063 53.568 
L 129.095495 53.568 
L 129.452973 53.772667 
L 129.81045 56.38906 
L 130.167928 54.211514 
L 130.525405 53.568 
L 130.882883 53.568 
L 131.24036 57.176518 
L 131.597838 54.573431 
L 131.955315 53.824922 
L 132.312793 53.568 
L 132.67027 53.863871 
L 133.027748 53.568 
L 133.385225 57.501421 
L 133.742703 53.568 
L 134.10018 55.36984 
L 134.457658 54.845835 
L 134.815135 53.593644 
L 135.172613 55.221299 
L 135.53009 53.568 
L 135.887568 54.175226 
L 136.245045 56.117623 
L 136.602523 53.568 
L 136.96 54.675038 
L 137.317477 53.568 
L 138.032432 53.568 
L 138.38991 55.072517 
L 138.747387 53.568 
L 139.104865 53.568 
L 139.462342 56.045288 
L 139.81982 53.568 
L 140.177297 54.598107 
L 140.534775 53.568 
L 141.24973 61.085505 
L 141.607207 53.568 
L 141.964685 54.163856 
L 142.322162 53.568 
L 142.67964 55.80022 
L 143.037117 55.261942 
L 143.394595 54.300784 
L 143.752072 56.436477 
L 144.10955 53.568 
L 144.824505 55.887554 
L 145.181982 57.952606 
L 145.539459 53.568 
L 145.896937 53.568 
L 146.611892 57.093055 
L 146.969369 53.568 
L 147.326847 53.568 
L 147.684324 54.898575 
L 148.041802 55.097435 
L 148.399279 53.568 
L 148.756757 54.670925 
L 149.471712 53.568 
L 150.186667 53.568 
L 150.544144 54.022089 
L 150.901622 53.568 
L 151.616577 53.568 
L 151.974054 55.695952 
L 152.689009 53.568 
L 153.046486 54.590849 
L 153.403964 53.568 
L 153.761441 56.268825 
L 154.118919 57.999297 
L 154.476396 53.568 
L 154.833874 54.517063 
L 155.191351 53.568 
L 155.548829 53.568 
L 155.906306 57.363283 
L 156.263784 53.568 
L 156.621261 58.134048 
L 156.978739 53.568 
L 157.336216 53.568 
L 157.693694 56.722188 
L 158.051171 55.692565 
L 158.408649 55.399596 
L 158.766126 53.568 
L 159.838559 53.568 
L 160.196036 55.279361 
L 160.553514 53.568 
L 161.268468 53.568 
L 161.625946 55.135659 
L 161.983423 53.568 
L 162.340901 55.889732 
L 162.698378 54.244174 
L 163.055856 57.988169 
L 163.413333 53.568 
L 163.770811 53.568 
L 164.128288 54.144744 
L 164.485766 53.568 
L 165.200721 56.203505 
L 165.558198 53.568 
L 166.273153 53.568 
L 166.630631 56.969916 
L 166.988108 54.771081 
L 167.345586 53.568 
L 167.703063 53.568 
L 168.060541 57.84858 
L 168.418018 55.749175 
L 168.775495 56.492119 
L 169.132973 53.568 
L 169.49045 53.653883 
L 169.847928 61.053571 
L 170.205405 53.568 
L 170.562883 53.568 
L 170.92036 56.241245 
L 171.277838 54.297881 
L 171.635315 54.187806 
L 171.992793 55.156948 
L 172.35027 54.597865 
L 172.707748 53.568 
L 173.065225 53.568 
L 173.422703 56.098995 
L 173.78018 54.152001 
L 174.137658 53.568 
L 174.852613 53.568 
L 175.21009 55.184043 
L 175.567568 55.227348 
L 175.925045 53.568 
L 176.282523 53.568 
L 176.64 55.427418 
L 176.997477 53.568 
L 177.354955 53.568 
L 178.06991 54.015315 
L 178.427387 53.974914 
L 178.784865 53.568 
L 180.214775 53.568 
L 180.572252 54.209579 
L 180.92973 53.568 
L 182.35964 53.660898 
L 182.717117 57.636171 
L 183.074595 53.568 
L 183.432072 55.846911 
L 183.78955 53.568 
L 186.291892 53.665979 
L 186.649369 54.863254 
L 187.006847 53.568 
L 187.364324 53.568 
L 187.721802 55.398871 
L 188.079279 55.132756 
L 188.436757 55.103483 
L 188.794234 55.262668 
L 189.151712 53.568 
L 189.866667 53.568 
L 190.224144 57.038139 
L 190.581622 58.04115 
L 190.939099 54.27635 
L 191.296577 53.568 
L 191.654054 53.568 
L 192.011532 58.763047 
L 192.369009 53.568 
L 192.726486 55.378307 
L 193.083964 59.095207 
L 193.441441 53.568 
L 194.156396 53.568 
L 194.513874 54.587704 
L 194.871351 53.568 
L 195.586306 53.568 
L 195.943784 59.133673 
L 196.301261 53.568 
L 196.658739 53.568 
L 197.016216 55.889974 
L 197.373694 53.568 
L 197.731171 53.688961 
L 198.088649 53.568 
L 198.446126 58.011152 
L 198.803604 54.088859 
L 199.161081 56.647434 
L 199.518559 53.568 
L 200.233514 55.184285 
L 200.590991 55.252507 
L 200.948468 53.568 
L 202.020901 53.568 
L 202.735856 55.653131 
L 203.093333 53.568 
L 203.450811 54.749792 
L 203.808288 56.955159 
L 204.165766 53.568 
L 204.523243 53.568 
L 204.880721 58.625877 
L 205.238198 56.504215 
L 205.953153 55.176302 
L 206.310631 56.472765 
L 206.668108 57.334252 
L 207.025586 53.568 
L 207.383063 53.568 
L 207.740541 54.258447 
L 208.098018 53.568 
L 208.812973 53.568 
L 209.17045 54.952765 
L 209.527928 53.568 
L 209.885405 53.803149 
L 210.242883 53.568 
L 210.60036 53.667914 
L 210.957838 57.828984 
L 211.315315 53.568 
L 211.672793 55.733208 
L 212.03027 53.568 
L 212.387748 53.568 
L 212.745225 55.423305 
L 213.102703 53.907176 
L 213.46018 54.367071 
L 213.817658 56.739364 
L 214.175135 53.568 
L 214.89009 57.427392 
L 215.247568 56.90363 
L 215.605045 53.568 
L 215.962523 55.142917 
L 216.32 53.91903 
L 216.677477 58.71684 
L 217.034955 53.568 
L 217.392432 53.919756 
L 217.74991 59.859683 
L 218.107387 54.047249 
L 218.464865 55.809172 
L 218.822342 53.568 
L 219.17982 53.568 
L 219.537297 53.97951 
L 219.894775 53.568 
L 220.252252 54.369974 
L 220.967207 53.568 
L 221.324685 53.568 
L 221.682162 55.010585 
L 222.03964 55.338874 
L 222.397117 53.568 
L 222.754595 56.305597 
L 223.112072 54.621573 
L 223.46955 53.568 
L 223.827027 53.568 
L 224.184505 58.399679 
L 224.541982 53.568 
L 224.899459 58.427259 
L 225.256937 58.012845 
L 225.614414 53.568 
L 225.971892 57.93543 
L 226.686847 53.568 
L 227.044324 55.505317 
L 227.401802 55.301618 
L 227.759279 53.568 
L 228.116757 54.593994 
L 228.474234 53.568 
L 228.831712 53.568 
L 229.189189 58.559832 
L 229.546667 53.568 
L 229.904144 53.568 
L 230.261622 53.701299 
L 230.619099 53.568 
L 230.976577 56.087141 
L 231.334054 53.568 
L 231.691532 54.629315 
L 232.049009 53.724766 
L 232.406486 53.568 
L 234.193874 53.568 
L 234.551351 54.007332 
L 234.908829 53.568 
L 235.266306 55.246943 
L 235.623784 53.568 
L 235.981261 53.568 
L 236.338739 53.780408 
L 236.696216 53.568 
L 237.053694 53.568 
L 237.411171 54.884301 
L 237.768649 53.842098 
L 238.126126 55.38363 
L 238.483604 54.834949 
L 238.841081 53.568 
L 239.198559 53.568 
L 239.556036 55.021229 
L 239.913514 54.433599 
L 240.270991 55.685549 
L 240.628468 54.879221 
L 240.985946 53.568 
L 241.343423 55.746514 
L 241.700901 55.438546 
L 242.058378 56.007064 
L 242.415856 54.574156 
L 242.773333 53.733959 
L 243.130811 56.160201 
L 243.488288 53.568 
L 243.845766 53.568 
L 244.203243 54.694876 
L 244.560721 53.568 
L 244.918198 53.568 
L 245.275676 54.235707 
L 245.633153 55.677566 
L 245.990631 53.568 
L 246.348108 56.92129 
L 246.705586 53.568 
L 247.063063 53.568 
L 247.420541 53.782102 
L 247.778018 53.593886 
L 248.492973 53.568 
L 249.207928 57.549563 
L 249.565405 53.568 
L 249.922883 53.568 
L 250.28036 54.442308 
L 250.637838 57.943897 
L 250.995315 55.785463 
L 251.352793 56.241487 
L 251.71027 53.721379 
L 252.067748 53.944674 
L 252.425225 59.009083 
L 252.782703 53.568 
L 253.14018 53.813068 
L 253.497658 55.377823 
L 253.855135 53.568 
L 254.57009 53.568 
L 254.927568 57.533112 
L 255.285045 53.568 
L 255.642523 53.568 
L 256 55.501688 
L 256.357477 53.568 
L 257.072432 53.568 
L 257.42991 54.463598 
L 257.787387 53.752345 
L 258.144865 53.760087 
L 258.502342 55.302585 
L 258.85982 53.663559 
L 259.217297 53.568 
L 259.574775 53.716057 
L 259.932252 53.568 
L 260.28973 53.568 
L 261.004685 56.686867 
L 261.71964 53.568 
L 262.077117 56.604129 
L 262.792072 53.568 
L 263.14955 56.544133 
L 263.507027 53.568 
L 263.864505 57.49126 
L 264.221982 54.495048 
L 264.579459 53.568 
L 264.936937 54.114261 
L 265.294414 53.568 
L 265.651892 53.568 
L 266.009369 54.524562 
L 266.366847 53.871129 
L 266.724324 53.568 
L 267.081802 53.568 
L 267.439279 54.764791 
L 267.796757 53.95435 
L 268.154234 53.568 
L 268.511712 54.575608 
L 268.869189 53.568 
L 269.226667 53.568 
L 269.584144 54.544884 
L 269.941622 56.640418 
L 270.299099 54.515853 
L 270.656577 53.568 
L 271.014054 55.303311 
L 271.371532 53.568 
L 271.729009 55.059211 
L 272.086486 53.568 
L 272.801441 53.568 
L 273.158919 57.364976 
L 273.516396 54.609719 
L 273.873874 53.568 
L 274.588829 60.203939 
L 274.946306 53.568 
L 275.303784 54.489967 
L 275.661261 56.355191 
L 276.376216 53.568 
L 277.091171 53.568 
L 277.448649 59.29939 
L 277.806126 53.568 
L 278.163604 53.568 
L 278.521081 53.781134 
L 278.878559 53.568 
L 279.236036 56.022789 
L 279.593514 56.178829 
L 279.950991 54.48658 
L 280.308468 55.995452 
L 280.665946 54.058861 
L 281.023423 53.568 
L 281.380901 53.647834 
L 281.738378 53.568 
L 282.095856 53.893386 
L 282.453333 53.568 
L 282.810811 57.202888 
L 283.168288 53.568 
L 283.525766 54.46892 
L 283.883243 53.568 
L 284.955676 53.568 
L 285.313153 55.017601 
L 285.670631 55.358953 
L 286.028108 53.568 
L 286.385586 54.496015 
L 286.743063 57.129343 
L 287.100541 53.568 
L 287.458018 53.877903 
L 287.815495 53.568 
L 288.172973 53.568 
L 288.53045 55.038406 
L 288.887928 53.568 
L 289.602883 53.568 
L 289.96036 56.73259 
L 290.317838 53.83605 
L 290.675315 53.568 
L 291.39027 53.568 
L 291.747748 55.535073 
L 292.105225 53.568 
L 293.892613 53.568 
L 294.25009 54.511982 
L 294.607568 53.568 
L 294.965045 53.568 
L 295.322523 55.567007 
L 295.68 53.568 
L 296.037477 53.568 
L 296.394955 53.836776 
L 296.752432 58.437661 
L 297.10991 58.510722 
L 297.467387 53.568 
L 297.824865 54.189499 
L 298.182342 53.568 
L 298.53982 54.163856 
L 298.897297 53.568 
L 299.612252 53.568 
L 299.96973 54.017008 
L 300.684685 55.188156 
L 301.042162 53.568 
L 301.39964 56.792829 
L 301.757117 53.568 
L 302.114595 54.772533 
L 302.472072 55.075904 
L 302.82955 55.01373 
L 303.187027 53.747507 
L 303.544505 53.568 
L 303.901982 56.26447 
L 304.259459 54.436502 
L 304.616937 55.814494 
L 304.974414 53.568 
L 305.331892 53.750652 
L 305.689369 53.568 
L 306.046847 54.895913 
L 306.404324 53.568 
L 306.761802 54.831562 
L 307.119279 53.568 
L 307.476757 54.455614 
L 307.834234 53.568 
L 308.191712 53.568 
L 308.549189 55.13203 
L 308.906667 53.613723 
L 309.264144 53.568 
L 309.621622 53.849356 
L 309.979099 53.568 
L 310.694054 56.997979 
L 311.051532 53.568 
L 311.409009 54.03104 
L 311.766486 56.665094 
L 312.123964 58.305088 
L 312.481441 53.596305 
L 312.838919 53.568 
L 313.196396 53.871129 
L 313.553874 53.568 
L 314.626306 53.568 
L 314.983784 56.115688 
L 315.341261 53.568 
L 315.698739 55.507494 
L 316.056216 54.504483 
L 316.413694 57.40949 
L 316.771171 53.568 
L 317.128649 53.770973 
L 317.486126 54.556012 
L 317.843604 53.568 
L 318.201081 57.597948 
L 318.558559 53.568 
L 319.630991 53.568 
L 319.988468 55.481366 
L 320.345946 55.674904 
L 320.703423 53.568 
L 321.060901 54.628105 
L 321.418378 53.568 
L 322.490811 53.568 
L 322.848288 56.200844 
L 323.205766 55.077839 
L 323.563243 53.568 
L 323.920721 57.371024 
L 324.278198 53.568 
L 324.993153 53.568 
L 325.350631 53.993542 
L 325.708108 53.568 
L 326.065586 53.568 
L 326.423063 54.304655 
L 326.780541 55.309359 
L 327.138018 54.18708 
L 327.495495 53.568 
L 329.282883 53.568 
L 329.64036 55.098645 
L 329.997838 55.18356 
L 330.355315 53.568 
L 331.07027 53.568 
L 331.427748 53.90524 
L 331.785225 55.931826 
L 332.142703 55.426692 
L 332.50018 53.970559 
L 332.857658 54.431422 
L 333.215135 53.568 
L 333.572613 54.154421 
L 333.93009 53.568 
L 334.287568 54.179339 
L 334.645045 54.126358 
L 335.002523 53.568 
L 335.36 53.568 
L 335.717477 54.684715 
L 336.074955 53.568 
L 336.432432 53.994752 
L 336.78991 57.072008 
L 337.147387 56.299065 
L 337.504865 53.568 
L 337.862342 53.875726 
L 338.21982 53.568 
L 338.934775 53.568 
L 339.292252 55.575474 
L 339.64973 53.863629 
L 340.007207 53.568 
L 340.364685 54.093698 
L 340.722162 56.345272 
L 341.07964 53.568 
L 341.437117 55.699822 
L 341.794595 55.605956 
L 342.152072 55.141949 
L 342.50955 53.568 
L 342.867027 53.96185 
L 343.224505 53.568 
L 343.581982 54.001767 
L 343.939459 53.568 
L 344.296937 57.769229 
L 345.011892 54.223368 
L 345.369369 57.811565 
L 346.084324 53.568 
L 346.441802 53.568 
L 346.799279 54.289897 
L 347.514234 53.568 
L 348.229189 53.568 
L 348.586667 53.82347 
L 348.944144 53.568 
L 349.301622 53.568 
L 349.659099 56.761379 
L 350.016577 55.342745 
L 350.374054 56.053271 
L 350.731532 55.015907 
L 351.089009 55.178237 
L 351.446486 59.264311 
L 351.803964 56.071416 
L 352.161441 55.167109 
L 352.518919 53.568 
L 352.876396 56.602436 
L 353.233874 53.568 
L 353.948829 53.568 
L 354.306306 57.394249 
L 354.663784 53.568 
L 355.021261 54.440131 
L 355.378739 53.568 
L 355.736216 54.953491 
L 356.093694 53.568 
L 356.451171 56.787507 
L 356.808649 53.568 
L 357.523604 53.568 
L 357.881081 55.268958 
L 358.238559 53.568 
L 358.596036 53.568 
L 358.953514 56.373819 
L 359.310991 53.862178 
L 360.025946 56.065851 
L 360.383423 53.568 
L 360.740901 54.322315 
L 361.098378 53.568 
L 361.455856 56.946934 
L 361.813333 53.568 
L 362.170811 53.568 
L 362.528288 54.679635 
L 362.885766 53.568 
L 363.243243 54.665361 
L 363.600721 54.824788 
L 363.958198 53.568 
L 364.315676 53.568 
L 365.030631 56.122945 
L 365.388108 56.710575 
L 366.103063 53.568 
L 366.818018 53.568 
L 367.175495 53.97564 
L 367.532973 53.568 
L 367.89045 55.120176 
L 368.247928 53.568 
L 368.605405 59.964435 
L 369.32036 53.568 
L 369.677838 55.234121 
L 370.035315 53.568 
L 370.75027 53.568 
L 371.107748 53.932819 
L 371.465225 55.730063 
L 371.822703 54.286752 
L 372.18018 53.568 
L 372.537658 57.059428 
L 372.895135 56.856939 
L 373.252613 53.568 
L 373.61009 53.568 
L 373.967568 56.444219 
L 374.325045 53.568 
L 374.682523 53.568 
L 375.04 53.912498 
L 375.397477 53.650012 
L 375.754955 55.874491 
L 376.112432 56.334144 
L 376.46991 53.568 
L 376.827387 56.314064 
L 377.184865 55.164931 
L 377.542342 53.568 
L 378.614775 53.568 
L 378.972252 56.020854 
L 379.687207 54.920348 
L 380.044685 55.05655 
L 380.402162 53.568 
L 380.75964 53.568 
L 381.117117 56.211731 
L 382.18955 53.568 
L 382.904505 55.035987 
L 383.261982 53.568 
L 383.619459 53.568 
L 383.976937 54.535933 
L 384.334414 53.568 
L 384.691892 53.568 
L 385.049369 56.323257 
L 385.406847 53.568 
L 386.121802 53.568 
L 386.479279 56.165282 
L 386.836757 53.568 
L 387.194234 60.52497 
L 387.551712 53.568 
L 387.909189 53.568 
L 388.266667 56.873873 
L 388.624144 56.919597 
L 388.981622 53.568 
L 389.339099 53.568 
L 389.696577 54.140631 
L 390.054054 53.701541 
L 390.411532 54.895913 
L 390.769009 54.807854 
L 391.126486 53.568 
L 391.483964 56.377448 
L 392.198919 53.568 
L 393.271351 53.568 
L 393.628829 55.140497 
L 393.986306 58.783369 
L 394.343784 53.568 
L 394.701261 53.568 
L 395.058739 53.994026 
L 395.416216 53.568 
L 395.773694 54.51803 
L 396.131171 53.568 
L 396.488649 54.23619 
L 396.846126 53.568 
L 398.633514 53.568 
L 399.348468 55.098403 
L 399.705946 53.568 
L 400.420901 55.073001 
L 400.778378 58.01091 
L 401.135856 55.160577 
L 401.493333 53.568 
L 401.850811 53.977575 
L 402.208288 53.568 
L 402.923243 53.568 
L 403.280721 53.811858 
L 403.638198 55.505801 
L 403.995676 53.756216 
L 404.353153 55.795624 
L 404.710631 54.307316 
L 405.068108 55.07663 
L 405.425586 55.365243 
L 405.783063 54.8993 
L 406.140541 55.737804 
L 406.498018 53.568 
L 406.855495 53.568 
L 407.212973 54.702859 
L 407.57045 53.568 
L 408.642883 53.568 
L 409.00036 55.917311 
L 409.357838 53.985317 
L 409.715315 54.786564 
L 410.072793 53.568 
L 410.43027 54.556254 
L 410.787748 56.468653 
L 411.145225 53.568 
L 411.502703 54.093456 
L 411.86018 53.568 
L 414.005045 53.568 
L 414.362523 58.569993 
L 414.72 53.568 
L 414.72 53.568 
" style="fill:none;stroke:#ff7f0e;stroke-linecap:square;stroke-width:1.5;"/>
   </g>
   <g id="line2d_15">
    <path clip-path="url(#p9d144383c2)" d="M 57.6 295.487516 
L 81.193514 295.365587 
L 89.058018 295.09294 
L 89.415495 295.008509 
L 89.772973 295.070683 
L 90.13045 294.98093 
L 90.845405 294.98843 
L 91.56036 294.845453 
L 92.275315 294.854888 
L 92.99027 294.778441 
L 96.565045 294.197101 
L 96.922523 293.97937 
L 97.28 294.021223 
L 97.637477 294.222744 
L 97.994955 293.876553 
L 98.352432 293.769865 
L 98.70991 293.857441 
L 99.067387 293.205218 
L 99.424865 293.825266 
L 99.782342 293.639953 
L 100.13982 292.850559 
L 101.212252 292.827818 
L 101.56973 292.621458 
L 101.927207 292.95507 
L 102.284685 292.506061 
L 102.642162 291.854322 
L 102.99964 292.264139 
L 103.357117 292.145113 
L 103.714595 291.544661 
L 104.072072 292.538721 
L 104.42955 290.834618 
L 104.787027 289.85604 
L 105.144505 290.87139 
L 105.501982 290.397221 
L 105.859459 288.910123 
L 106.216937 289.350664 
L 106.574414 290.667933 
L 106.931892 288.152421 
L 107.289369 288.365071 
L 107.646847 287.582693 
L 108.004324 288.674732 
L 108.361802 288.201773 
L 108.719279 286.827653 
L 109.076757 286.19696 
L 109.434234 286.914503 
L 109.791712 283.726688 
L 110.149189 284.455359 
L 110.506667 284.441086 
L 110.864144 282.841009 
L 111.221622 281.897753 
L 111.579099 281.583495 
L 111.936577 282.175722 
L 112.294054 279.042339 
L 112.651532 278.529221 
L 113.009009 276.020483 
L 113.366486 279.467639 
L 113.723964 277.244128 
L 114.081441 277.227678 
L 114.438919 271.198723 
L 115.153874 274.679264 
L 115.868829 268.323714 
L 116.226306 269.960079 
L 116.583784 275.058357 
L 116.941261 263.680734 
L 117.298739 260.440664 
L 117.656216 264.27659 
L 118.013694 261.450691 
L 118.371171 252.133766 
L 118.728649 261.668905 
L 119.086126 251.969016 
L 119.443604 245.727896 
L 119.801081 244.710611 
L 120.158559 244.382322 
L 120.516036 244.854071 
L 120.873514 235.58432 
L 121.230991 242.153004 
L 121.588468 231.734847 
L 121.945946 233.81393 
L 122.303423 232.067974 
L 122.660901 222.076568 
L 123.018378 215.221932 
L 123.375856 219.762336 
L 123.733333 206.581422 
L 124.090811 204.39057 
L 124.448288 198.776755 
L 124.805766 189.922144 
L 125.163243 187.915879 
L 125.520721 190.645251 
L 125.878198 170.199399 
L 126.235676 166.840786 
L 126.593153 157.649419 
L 126.950631 172.720959 
L 127.308108 150.515845 
L 127.665586 136.982934 
L 128.023063 136.085642 
L 128.380541 134.879416 
L 128.738018 129.947581 
L 129.095495 143.300744 
L 129.452973 116.451925 
L 129.81045 124.184257 
L 130.167928 121.564235 
L 130.525405 115.752769 
L 130.882883 105.148089 
L 131.24036 106.467777 
L 131.597838 92.142568 
L 131.955315 108.869585 
L 132.312793 95.00282 
L 132.67027 95.24571 
L 133.027748 104.741175 
L 133.385225 85.432843 
L 133.742703 85.144472 
L 134.10018 89.097246 
L 134.457658 78.939397 
L 134.815135 86.03886 
L 135.172613 75.460065 
L 135.53009 82.201724 
L 135.887568 79.26696 
L 136.245045 77.58076 
L 136.602523 80.702288 
L 136.96 72.964875 
L 137.317477 72.824318 
L 137.674955 69.026132 
L 138.38991 77.506731 
L 138.747387 66.807218 
L 139.104865 73.361144 
L 140.177297 63.468201 
L 140.534775 63.609726 
L 140.892252 63.194587 
L 141.24973 65.812432 
L 141.964685 62.827106 
L 142.322162 58.253074 
L 142.67964 57.008866 
L 143.037117 65.818238 
L 143.394595 60.915433 
L 143.752072 61.827965 
L 144.10955 58.820625 
L 144.467027 60.706412 
L 145.181982 59.839119 
L 145.539459 62.864362 
L 145.896937 64.180179 
L 146.254414 57.545209 
L 146.611892 60.856404 
L 146.969369 59.184235 
L 147.326847 59.246167 
L 147.684324 61.381134 
L 148.041802 60.724314 
L 148.399279 63.892533 
L 149.471712 55.069372 
L 149.829189 61.259205 
L 150.186667 61.672409 
L 150.544144 58.506125 
L 150.901622 53.568 
L 151.616577 60.643028 
L 151.974054 56.644289 
L 152.331532 60.973737 
L 152.689009 60.370865 
L 153.046486 54.674312 
L 153.403964 62.10666 
L 153.761441 53.568 
L 154.118919 58.923684 
L 154.476396 53.568 
L 154.833874 53.568 
L 155.548829 58.999648 
L 155.906306 59.763156 
L 156.263784 53.780892 
L 156.621261 56.74009 
L 156.978739 53.672027 
L 157.336216 60.454812 
L 157.693694 57.518839 
L 158.051171 55.799495 
L 158.408649 56.619612 
L 158.766126 53.568 
L 159.481081 56.417365 
L 159.838559 59.72348 
L 160.196036 61.685473 
L 160.553514 54.659071 
L 160.910991 54.28143 
L 161.268468 53.568 
L 161.625946 53.568 
L 161.983423 58.888847 
L 162.340901 56.749767 
L 162.698378 55.859733 
L 163.055856 53.568 
L 163.413333 56.129719 
L 163.770811 53.862662 
L 164.128288 53.568 
L 164.485766 53.568 
L 165.200721 56.969191 
L 165.558198 57.847128 
L 165.915676 53.568 
L 166.273153 54.081844 
L 166.630631 54.032733 
L 166.988108 53.568 
L 167.345586 54.41352 
L 167.703063 55.928439 
L 168.060541 53.568 
L 168.418018 54.66899 
L 168.775495 57.029429 
L 169.132973 54.631008 
L 169.49045 53.568 
L 169.847928 54.973087 
L 170.205405 53.568 
L 170.562883 56.245116 
L 170.92036 53.568 
L 171.277838 53.875968 
L 171.635315 53.568 
L 171.992793 56.184636 
L 172.35027 57.036445 
L 172.707748 53.982655 
L 173.065225 54.993408 
L 173.422703 53.568 
L 173.78018 54.373119 
L 174.137658 53.568 
L 174.495135 53.568 
L 174.852613 56.272212 
L 175.21009 53.568 
L 176.282523 53.568 
L 176.64 60.811648 
L 176.997477 57.518113 
L 177.354955 55.498785 
L 177.712432 54.874866 
L 178.06991 53.568 
L 178.784865 53.568 
L 179.142342 54.241755 
L 179.49982 57.983572 
L 179.857297 53.568 
L 180.214775 55.433708 
L 180.572252 53.568 
L 180.92973 53.568 
L 181.287207 54.610687 
L 181.644685 56.970642 
L 182.002162 53.568 
L 182.35964 56.992657 
L 182.717117 54.125148 
L 183.074595 58.034134 
L 183.432072 53.568 
L 184.861982 53.568 
L 185.219459 54.068054 
L 185.576937 53.568 
L 185.934414 55.24525 
L 186.291892 54.48271 
L 186.649369 58.23493 
L 187.006847 55.95747 
L 187.364324 56.036095 
L 187.721802 53.954834 
L 188.079279 56.422204 
L 188.436757 55.568942 
L 188.794234 53.670091 
L 189.151712 56.816296 
L 189.866667 53.657511 
L 190.224144 56.573647 
L 190.581622 58.525237 
L 190.939099 54.371909 
L 191.296577 53.568 
L 191.654054 56.985641 
L 192.369009 53.568 
L 192.726486 58.723372 
L 193.083964 57.80963 
L 193.441441 53.568 
L 194.156396 53.568 
L 194.513874 53.809681 
L 194.871351 53.568 
L 195.228829 56.28842 
L 195.586306 55.368872 
L 195.943784 54.808579 
L 196.301261 53.568 
L 197.016216 53.568 
L 197.373694 55.201704 
L 197.731171 53.568 
L 198.088649 53.701783 
L 198.446126 53.568 
L 198.803604 57.870353 
L 199.161081 53.568 
L 199.518559 54.05499 
L 199.876036 53.568 
L 200.233514 53.568 
L 200.590991 53.97322 
L 200.948468 53.568 
L 201.305946 53.568 
L 201.663423 55.164206 
L 202.020901 55.73974 
L 202.378378 55.025342 
L 202.735856 55.948035 
L 203.093333 53.84984 
L 203.450811 53.568 
L 203.808288 53.814035 
L 204.165766 53.662108 
L 204.880721 54.612622 
L 205.238198 54.678183 
L 205.595676 53.568 
L 205.953153 54.693666 
L 206.310631 53.568 
L 206.668108 53.568 
L 207.025586 54.599558 
L 207.383063 53.568 
L 209.17045 53.568 
L 209.527928 54.863012 
L 209.885405 53.568 
L 210.242883 53.568 
L 210.60036 57.830919 
L 210.957838 60.319578 
L 211.315315 54.675764 
L 211.672793 53.903789 
L 212.03027 58.305813 
L 212.387748 54.82624 
L 212.745225 53.568 
L 213.102703 53.568 
L 213.46018 58.763047 
L 213.817658 55.097677 
L 214.175135 53.920481 
L 214.532613 53.568 
L 214.89009 58.201787 
L 215.247568 56.410107 
L 215.605045 54.020879 
L 215.962523 55.069614 
L 216.32 58.763773 
L 216.677477 53.568 
L 217.034955 55.38121 
L 217.392432 55.352422 
L 217.74991 54.66149 
L 218.107387 53.568 
L 218.464865 53.568 
L 218.822342 58.89175 
L 219.17982 55.373469 
L 219.537297 57.937365 
L 219.894775 54.571495 
L 220.967207 55.960131 
L 221.324685 59.100287 
L 221.682162 53.568 
L 222.03964 55.030664 
L 222.754595 53.568 
L 223.112072 57.273287 
L 223.46955 56.936047 
L 223.827027 54.781726 
L 224.184505 58.195013 
L 224.541982 53.568 
L 224.899459 54.680602 
L 225.256937 57.004995 
L 225.614414 60.583273 
L 225.971892 54.600768 
L 226.329369 58.72821 
L 226.686847 54.837126 
L 227.044324 54.015073 
L 227.401802 60.447555 
L 227.759279 54.601977 
L 228.116757 53.568 
L 228.474234 59.029404 
L 228.831712 59.250279 
L 229.189189 60.152409 
L 229.546667 55.830461 
L 229.904144 59.671225 
L 230.261622 55.467335 
L 230.976577 58.188481 
L 231.334054 56.13359 
L 231.691532 61.938524 
L 232.049009 56.73501 
L 232.406486 61.131228 
L 232.763964 57.451826 
L 233.121441 61.342669 
L 233.478919 57.175309 
L 233.836396 56.935805 
L 234.193874 57.892368 
L 234.551351 62.285683 
L 234.908829 55.284925 
L 235.266306 58.696518 
L 235.623784 60.169344 
L 235.981261 53.568 
L 236.338739 54.857206 
L 236.696216 56.667997 
L 237.053694 55.614424 
L 237.411171 58.20348 
L 237.768649 56.577276 
L 238.126126 56.897824 
L 238.483604 62.79614 
L 238.841081 59.554618 
L 239.198559 54.014831 
L 239.556036 63.069029 
L 239.913514 62.502204 
L 240.270991 59.160768 
L 240.628468 58.980294 
L 240.985946 57.933736 
L 241.343423 56.235439 
L 242.058378 66.351193 
L 242.415856 62.373259 
L 242.773333 61.796999 
L 243.130811 59.884359 
L 243.488288 63.00758 
L 243.845766 60.828341 
L 244.203243 61.408472 
L 244.918198 58.96723 
L 245.275676 56.505667 
L 245.633153 57.619237 
L 245.990631 56.574373 
L 246.348108 56.558648 
L 246.705586 55.906183 
L 247.063063 59.751785 
L 247.420541 58.677649 
L 247.778018 54.981554 
L 248.135495 64.414603 
L 248.492973 57.621656 
L 248.85045 61.837158 
L 249.207928 56.078673 
L 249.565405 56.057868 
L 249.922883 61.782242 
L 250.28036 63.548277 
L 250.637838 62.948067 
L 250.995315 55.969082 
L 251.352793 58.419275 
L 251.71027 68.607848 
L 252.067748 58.327103 
L 252.425225 61.227513 
L 252.782703 62.825413 
L 253.14018 65.332215 
L 253.497658 60.32611 
L 253.855135 63.867132 
L 254.212613 58.819899 
L 254.57009 61.226304 
L 254.927568 53.568 
L 255.285045 62.913956 
L 255.642523 60.247969 
L 256 59.742592 
L 256.357477 61.213966 
L 256.714955 59.991289 
L 257.072432 62.898715 
L 257.42991 61.683538 
L 257.787387 70.596452 
L 258.144865 61.761437 
L 258.502342 63.964384 
L 258.85982 62.723805 
L 259.217297 62.649293 
L 259.574775 64.251789 
L 259.932252 62.982904 
L 260.28973 63.92229 
L 260.647207 67.323239 
L 261.004685 57.976799 
L 261.362162 61.696359 
L 261.71964 62.639616 
L 262.077117 58.869493 
L 262.434595 68.874205 
L 262.792072 62.234879 
L 263.14955 64.407345 
L 263.507027 63.46675 
L 263.864505 59.637114 
L 264.221982 61.283639 
L 264.579459 63.619161 
L 264.936937 64.634026 
L 265.294414 58.622006 
L 265.651892 59.342452 
L 266.009369 65.894927 
L 266.366847 61.12639 
L 266.724324 57.963977 
L 267.081802 70.271792 
L 267.439279 64.950461 
L 267.796757 64.018091 
L 268.154234 59.024082 
L 268.511712 61.141147 
L 268.869189 60.900434 
L 269.226667 63.438928 
L 269.584144 63.681577 
L 269.941622 62.699129 
L 270.299099 62.603328 
L 270.656577 66.506992 
L 271.371532 58.44129 
L 271.729009 60.238292 
L 272.086486 57.800195 
L 272.801441 69.431837 
L 273.158919 56.362207 
L 273.516396 62.562926 
L 273.873874 62.526638 
L 274.231351 59.375353 
L 274.588829 53.978059 
L 275.303784 61.393472 
L 275.661261 61.879253 
L 276.018739 59.130528 
L 276.733694 61.529917 
L 277.091171 58.184368 
L 277.448649 59.921615 
L 277.806126 60.437636 
L 278.163604 60.646657 
L 278.521081 61.19945 
L 278.878559 57.397878 
L 279.236036 62.834364 
L 279.950991 57.880997 
L 280.308468 57.920914 
L 280.665946 67.149538 
L 281.023423 61.694424 
L 281.380901 62.421886 
L 281.738378 56.410349 
L 282.095856 59.935888 
L 282.453333 65.796465 
L 283.168288 61.002283 
L 283.525766 60.578919 
L 283.883243 62.006262 
L 284.240721 66.059677 
L 284.598198 63.863987 
L 284.955676 65.218753 
L 285.313153 59.708723 
L 285.670631 64.798292 
L 286.028108 64.029704 
L 286.385586 61.039539 
L 286.743063 62.306247 
L 287.100541 67.93119 
L 287.458018 60.192084 
L 287.815495 58.960214 
L 288.172973 63.287727 
L 288.53045 64.001399 
L 288.887928 67.859339 
L 289.245405 58.52185 
L 289.602883 61.269366 
L 289.96036 58.829092 
L 290.317838 61.287994 
L 290.675315 60.760361 
L 291.032793 59.109239 
L 291.39027 58.394357 
L 291.747748 54.612138 
L 292.105225 61.146227 
L 292.462703 64.918285 
L 293.177658 58.777805 
L 293.535135 60.873581 
L 293.892613 67.070188 
L 294.25009 62.627278 
L 294.607568 62.742191 
L 294.965045 59.987176 
L 295.322523 60.328529 
L 295.68 60.295627 
L 296.037477 62.368663 
L 296.394955 57.93422 
L 296.752432 60.965995 
L 297.10991 61.821434 
L 297.467387 60.65585 
L 297.824865 60.740281 
L 298.182342 55.674904 
L 298.53982 61.571527 
L 298.897297 61.115987 
L 299.254775 64.318559 
L 299.612252 68.585349 
L 299.96973 62.270926 
L 300.684685 56.7413 
L 301.042162 57.192727 
L 301.39964 59.570343 
L 301.757117 59.932985 
L 302.114595 60.953899 
L 302.472072 64.477019 
L 302.82955 56.801538 
L 303.187027 61.485161 
L 303.544505 60.19281 
L 304.259459 64.659186 
L 304.616937 58.636764 
L 304.974414 63.292323 
L 305.331892 62.918795 
L 306.046847 57.874465 
L 307.119279 61.156146 
L 307.476757 60.154103 
L 307.834234 57.66617 
L 308.191712 63.059836 
L 308.549189 57.971718 
L 308.906667 65.108195 
L 309.264144 61.45855 
L 309.621622 63.146686 
L 309.979099 63.842939 
L 310.336577 57.3328 
L 310.694054 56.316725 
L 311.051532 64.353638 
L 311.766486 58.796433 
L 312.123964 63.480539 
L 312.481441 56.56518 
L 312.838919 54.227723 
L 313.196396 59.318018 
L 313.553874 57.857047 
L 313.911351 57.576417 
L 314.268829 56.406721 
L 314.626306 63.163379 
L 314.983784 57.123295 
L 315.341261 55.98263 
L 315.698739 63.016773 
L 316.056216 56.270518 
L 316.413694 56.068029 
L 316.771171 58.675229 
L 317.128649 56.412285 
L 317.486126 61.404359 
L 317.843604 62.394548 
L 318.201081 56.644047 
L 318.558559 54.412794 
L 319.273514 60.602385 
L 319.630991 58.539269 
L 319.988468 58.960456 
L 320.345946 57.894061 
L 320.703423 55.38121 
L 321.060901 61.390811 
L 321.418378 61.306138 
L 321.775856 54.464323 
L 322.133333 56.948627 
L 322.490811 56.613564 
L 322.848288 58.586444 
L 323.205766 58.355891 
L 323.563243 58.52306 
L 323.920721 54.941637 
L 324.278198 56.999431 
L 324.993153 59.236006 
L 325.350631 54.790677 
L 325.708108 60.118298 
L 326.065586 61.346539 
L 326.423063 57.681411 
L 326.780541 63.630773 
L 327.138018 55.0955 
L 327.495495 56.49599 
L 327.852973 56.757508 
L 328.21045 61.703133 
L 328.567928 61.33904 
L 329.282883 57.901803 
L 329.64036 56.311887 
L 329.997838 58.508787 
L 330.355315 58.533221 
L 330.712793 58.123162 
L 331.07027 65.100211 
L 331.427748 58.848446 
L 331.785225 62.149723 
L 332.142703 63.09685 
L 332.50018 60.149264 
L 332.857658 54.934379 
L 333.215135 55.53967 
L 333.572613 60.798343 
L 333.93009 58.615958 
L 334.287568 58.115904 
L 334.645045 54.837852 
L 335.002523 60.307481 
L 335.36 55.988436 
L 335.717477 56.58913 
L 336.074955 55.227589 
L 336.432432 56.996286 
L 336.78991 53.568 
L 337.504865 56.05061 
L 337.862342 57.070072 
L 338.21982 53.568 
L 338.577297 54.543916 
L 338.934775 66.202653 
L 339.292252 58.699422 
L 339.64973 56.609936 
L 340.007207 58.426291 
L 340.364685 54.662942 
L 340.722162 56.909678 
L 341.07964 56.053997 
L 341.437117 61.50016 
L 342.152072 57.870111 
L 342.50955 57.123295 
L 342.867027 55.619746 
L 343.224505 54.885753 
L 343.581982 57.161035 
L 343.939459 56.512199 
L 344.296937 56.487765 
L 344.654414 55.457416 
L 345.011892 59.184477 
L 345.369369 58.625393 
L 345.726847 55.127675 
L 346.441802 60.071607 
L 346.799279 56.796942 
L 347.156757 57.584884 
L 347.514234 53.568 
L 347.871712 54.634395 
L 348.229189 54.955668 
L 348.586667 57.514242 
L 348.944144 57.391104 
L 349.301622 55.774819 
L 349.659099 55.135417 
L 350.016577 60.091203 
L 350.374054 58.593218 
L 350.731532 59.464139 
L 351.089009 54.707456 
L 351.446486 57.29119 
L 351.803964 56.834682 
L 352.161441 55.061631 
L 352.518919 55.38992 
L 352.876396 53.990397 
L 353.233874 57.674153 
L 353.591351 54.342394 
L 353.948829 58.905056 
L 354.306306 54.152727 
L 354.663784 53.568 
L 355.021261 54.024024 
L 355.378739 61.701682 
L 355.736216 54.402391 
L 356.093694 56.431397 
L 356.451171 55.597005 
L 356.808649 57.103942 
L 357.166126 53.879354 
L 357.523604 56.633644 
L 357.881081 55.235089 
L 358.596036 58.769095 
L 358.953514 55.752804 
L 359.310991 58.56588 
L 359.668468 53.568 
L 360.025946 59.822427 
L 360.740901 54.353765 
L 361.098378 53.568 
L 361.455856 56.976932 
L 361.813333 57.994701 
L 362.170811 53.937174 
L 362.528288 53.568 
L 362.885766 56.77662 
L 363.243243 55.342019 
L 363.600721 56.844601 
L 363.958198 53.568 
L 364.315676 57.469971 
L 364.673153 54.244658 
L 365.030631 55.450642 
L 365.388108 58.316458 
L 365.745586 53.568 
L 366.460541 56.86468 
L 367.175495 54.486338 
L 367.532973 53.568 
L 367.89045 54.803741 
L 368.247928 56.77662 
L 368.605405 56.383012 
L 368.962883 58.963601 
L 369.32036 56.659288 
L 369.677838 60.357076 
L 370.035315 54.469646 
L 370.392793 59.703643 
L 370.75027 54.384247 
L 371.107748 54.942121 
L 371.465225 58.225495 
L 371.822703 56.578244 
L 372.18018 53.568 
L 372.537658 57.241596 
L 372.895135 59.519056 
L 373.252613 54.823337 
L 373.61009 60.237808 
L 373.967568 59.925728 
L 374.325045 53.568 
L 374.682523 59.740899 
L 375.04 53.863629 
L 375.397477 54.14934 
L 375.754955 57.941236 
L 376.112432 53.568 
L 376.46991 56.368013 
L 376.827387 54.801806 
L 377.184865 60.62561 
L 377.542342 55.004779 
L 377.89982 57.12136 
L 378.257297 53.568 
L 378.614775 57.839145 
L 378.972252 59.603245 
L 379.32973 59.740173 
L 379.687207 55.095984 
L 380.044685 53.568 
L 380.402162 53.568 
L 380.75964 56.387367 
L 381.117117 55.425724 
L 381.474595 53.74799 
L 381.832072 58.086631 
L 382.18955 53.568 
L 382.547027 53.568 
L 382.904505 58.019135 
L 383.261982 53.568 
L 383.619459 60.171763 
L 383.976937 53.988945 
L 384.334414 54.438196 
L 384.691892 56.229633 
L 385.049369 54.399488 
L 385.406847 59.738963 
L 385.764324 53.587838 
L 386.121802 53.568 
L 386.479279 57.047574 
L 386.836757 58.074535 
L 387.194234 53.568 
L 387.551712 56.392205 
L 387.909189 53.568 
L 388.981622 53.568 
L 389.339099 56.805409 
L 389.696577 53.568 
L 390.054054 57.199017 
L 390.411532 57.521016 
L 390.769009 56.94137 
L 391.126486 54.995828 
L 391.483964 58.605072 
L 391.841441 54.776888 
L 392.198919 53.568 
L 392.913874 53.568 
L 393.271351 54.325218 
L 393.628829 53.568 
L 394.701261 53.568 
L 395.058739 55.242831 
L 395.416216 53.568 
L 395.773694 54.221191 
L 396.131171 53.568 
L 396.488649 53.568 
L 396.846126 54.953491 
L 397.561081 53.568 
L 397.918559 53.568 
L 398.276036 55.869894 
L 398.633514 53.568 
L 398.990991 53.568 
L 399.348468 55.221541 
L 400.063423 53.568 
L 400.420901 56.127058 
L 400.778378 54.608026 
L 401.135856 56.750009 
L 401.493333 54.345539 
L 401.850811 53.568 
L 402.208288 53.739523 
L 402.565766 53.568 
L 402.923243 54.740599 
L 403.280721 54.765517 
L 403.638198 57.840112 
L 403.995676 54.059345 
L 404.353153 53.568 
L 404.710631 58.067278 
L 405.068108 53.568 
L 405.425586 55.652889 
L 405.783063 54.74568 
L 406.140541 55.377098 
L 406.498018 54.962684 
L 406.855495 53.568 
L 407.212973 54.667055 
L 407.57045 54.983489 
L 407.927928 53.675656 
L 408.285405 53.568 
L 408.642883 54.572463 
L 409.00036 53.724766 
L 409.357838 55.160093 
L 409.715315 57.969541 
L 410.072793 54.518272 
L 410.43027 57.171922 
L 410.787748 55.536283 
L 411.145225 56.756057 
L 411.502703 61.008331 
L 411.86018 53.686542 
L 412.217658 58.201061 
L 412.575135 55.627004 
L 412.932613 54.822853 
L 413.29009 53.623158 
L 413.647568 55.008649 
L 414.005045 53.568 
L 414.362523 57.170228 
L 414.72 56.694608 
L 414.72 56.694608 
" style="fill:none;stroke:#2ca02c;stroke-linecap:square;stroke-width:1.5;"/>
   </g>
   <g id="line2d_16">
    <path clip-path="url(#p9d144383c2)" d="M 57.6 295.488 
L 111.579099 295.282608 
L 112.294054 295.30801 
L 126.593153 294.916337 
L 126.950631 294.683123 
L 127.308108 294.708041 
L 127.665586 294.848598 
L 128.023063 294.627481 
L 128.738018 294.746749 
L 129.095495 294.827067 
L 129.452973 294.640787 
L 131.24036 294.537002 
L 131.597838 294.412412 
L 131.955315 294.579097 
L 132.67027 294.359431 
L 133.027748 294.455474 
L 133.742703 294.078559 
L 134.10018 294.258065 
L 134.457658 294.242098 
L 134.815135 294.366688 
L 135.172613 294.34419 
L 135.53009 294.13033 
L 135.887568 294.314191 
L 136.245045 294.089203 
L 136.602523 294.301611 
L 136.96 293.918648 
L 137.674955 294.157183 
L 138.38991 293.759463 
L 138.747387 293.74906 
L 139.104865 293.54149 
L 139.81982 293.889375 
L 140.177297 293.837362 
L 140.534775 293.298116 
L 141.24973 293.508347 
L 141.607207 293.124658 
L 141.964685 293.588665 
L 142.67964 293.496735 
L 143.037117 293.490687 
L 143.394595 293.285294 
L 143.752072 293.259167 
L 144.10955 293.036598 
L 144.467027 292.506545 
L 144.824505 293.147156 
L 145.181982 292.313733 
L 145.539459 292.914911 
L 145.896937 292.77266 
L 146.254414 292.826367 
L 146.611892 292.318813 
L 146.969369 292.558075 
L 147.684324 292.626539 
L 148.041802 292.314942 
L 148.399279 292.395986 
L 149.114234 291.74086 
L 150.186667 291.543209 
L 150.901622 290.604065 
L 151.259099 291.218791 
L 151.974054 291.490228 
L 152.331532 291.178632 
L 153.046486 290.824699 
L 153.761441 290.114172 
L 154.118919 290.345934 
L 154.833874 290.309162 
L 155.191351 289.263088 
L 155.548829 289.17406 
L 155.906306 290.162556 
L 156.621261 288.763276 
L 156.978739 289.416951 
L 157.336216 288.340153 
L 157.693694 288.027347 
L 158.051171 288.511434 
L 158.408649 286.32784 
L 158.766126 288.952701 
L 159.123604 287.858727 
L 159.481081 287.677769 
L 159.838559 288.196693 
L 160.196036 286.580166 
L 160.553514 286.58573 
L 160.910991 287.362302 
L 161.268468 286.130673 
L 161.625946 285.795852 
L 161.983423 284.294722 
L 162.340901 285.487885 
L 162.698378 285.751581 
L 163.055856 283.856842 
L 163.413333 284.74494 
L 163.770811 283.123575 
L 164.128288 284.973799 
L 164.485766 282.025488 
L 165.200721 284.747843 
L 165.558198 283.212602 
L 165.915676 283.306226 
L 166.273153 284.410119 
L 166.630631 284.871466 
L 166.988108 285.647312 
L 167.345586 285.183788 
L 167.703063 285.288541 
L 168.060541 285.037183 
L 168.418018 284.364638 
L 168.775495 286.230104 
L 169.132973 285.642232 
L 169.49045 285.824883 
L 169.847928 285.507723 
L 170.205405 284.636317 
L 170.562883 284.623253 
L 171.277838 288.122907 
L 171.635315 286.528394 
L 171.992793 287.027723 
L 172.35027 287.206745 
L 172.707748 287.88679 
L 173.065225 286.449044 
L 173.422703 287.839615 
L 173.78018 286.991434 
L 174.137658 287.118686 
L 174.495135 288.058555 
L 174.852613 286.349371 
L 175.21009 287.86671 
L 175.567568 288.3133 
L 175.925045 289.042938 
L 176.282523 287.969769 
L 176.64 288.549416 
L 177.354955 286.902407 
L 177.712432 288.660701 
L 178.06991 289.304457 
L 178.427387 288.793274 
L 178.784865 289.042696 
L 179.142342 288.934557 
L 179.49982 287.942674 
L 179.857297 288.862706 
L 180.214775 289.363728 
L 180.572252 289.451062 
L 180.92973 288.818192 
L 181.287207 288.766905 
L 182.717117 289.831606 
L 183.074595 289.399774 
L 183.432072 289.97555 
L 183.78955 290.32779 
L 184.147027 288.929961 
L 184.504505 290.185297 
L 184.861982 289.220026 
L 185.219459 289.504285 
L 185.576937 290.677852 
L 185.934414 289.571056 
L 186.291892 290.254729 
L 186.649369 289.772819 
L 187.006847 290.483104 
L 187.364324 289.550734 
L 187.721802 289.298893 
L 188.079279 290.930177 
L 188.436757 290.252552 
L 188.794234 289.8812 
L 189.151712 289.861121 
L 189.509189 290.742203 
L 189.866667 290.623903 
L 190.224144 291.220484 
L 190.581622 290.571406 
L 190.939099 290.809942 
L 191.296577 289.850234 
L 191.654054 290.601404 
L 192.011532 291.694653 
L 192.369009 290.856633 
L 192.726486 291.146214 
L 193.083964 291.0538 
L 193.441441 290.422865 
L 193.798919 290.533182 
L 194.156396 291.328624 
L 194.513874 291.34701 
L 194.871351 291.169197 
L 195.228829 291.252176 
L 195.586306 290.50899 
L 195.943784 290.347627 
L 196.301261 290.6285 
L 196.658739 291.333704 
L 197.016216 291.253386 
L 197.373694 291.779326 
L 197.731171 291.049687 
L 198.088649 290.949289 
L 198.446126 291.009528 
L 198.803604 290.835827 
L 199.161081 291.111135 
L 199.518559 291.78368 
L 199.876036 292.000201 
L 200.233514 291.385959 
L 200.590991 291.605383 
L 200.948468 291.509098 
L 201.305946 291.170406 
L 201.663423 291.820936 
L 202.020901 291.905367 
L 202.378378 291.248789 
L 202.735856 292.104954 
L 203.093333 292.146322 
L 203.450811 291.829887 
L 203.808288 290.719221 
L 204.165766 291.369509 
L 204.523243 291.63272 
L 204.880721 291.553612 
L 205.238198 291.876095 
L 205.595676 291.506921 
L 205.953153 291.479583 
L 206.668108 292.140516 
L 207.025586 290.672771 
L 207.383063 292.302604 
L 207.740541 292.184062 
L 208.098018 291.875369 
L 208.455495 292.288573 
L 208.812973 292.408083 
L 209.17045 292.37373 
L 209.527928 291.686427 
L 209.885405 292.301153 
L 210.242883 292.496626 
L 210.60036 292.3851 
L 210.957838 292.642022 
L 211.315315 291.647478 
L 211.672793 291.810534 
L 212.03027 292.638635 
L 212.387748 292.675407 
L 212.745225 292.402035 
L 213.102703 291.875853 
L 213.46018 292.072778 
L 213.817658 292.091406 
L 214.175135 291.785132 
L 214.532613 292.34615 
L 214.89009 292.631135 
L 215.247568 292.219867 
L 215.605045 292.457435 
L 215.962523 292.919265 
L 216.32 292.194949 
L 216.677477 292.321232 
L 217.392432 292.891444 
L 217.74991 292.538479 
L 218.107387 292.36115 
L 218.464865 292.838221 
L 218.822342 292.553962 
L 219.17982 293.028372 
L 219.537297 292.200513 
L 219.894775 292.66573 
L 220.967207 292.34736 
L 221.682162 292.261961 
L 222.03964 292.255671 
L 222.397117 292.711937 
L 222.754595 292.732743 
L 223.112072 292.541382 
L 223.46955 292.689923 
L 223.827027 293.474236 
L 224.184505 292.65436 
L 224.541982 292.740242 
L 224.899459 293.289407 
L 225.256937 292.883219 
L 225.971892 292.754032 
L 226.329369 292.936442 
L 226.686847 292.850317 
L 227.401802 292.457435 
L 227.759279 293.052806 
L 228.116757 292.147048 
L 228.474234 292.832657 
L 228.831712 292.170273 
L 229.189189 292.897734 
L 229.546667 293.227958 
L 229.904144 292.642264 
L 230.261622 292.96765 
L 230.976577 293.284085 
L 231.691532 292.581783 
L 232.049009 292.837011 
L 232.406486 292.832899 
L 232.763964 293.081353 
L 233.121441 292.586863 
L 234.193874 292.981923 
L 234.551351 293.521653 
L 234.908829 292.608153 
L 235.266306 293.50496 
L 235.623784 292.762499 
L 236.338739 292.738307 
L 236.696216 292.773144 
L 237.053694 292.989423 
L 237.411171 292.993777 
L 237.768649 292.477272 
L 238.483604 293.125383 
L 239.556036 292.6367 
L 239.913514 293.00539 
L 240.985946 293.191186 
L 241.343423 292.893863 
L 241.700901 292.924829 
L 242.058378 293.226749 
L 242.415856 293.14885 
L 242.773333 293.339001 
L 243.130811 293.130948 
L 243.488288 292.731049 
L 244.203243 292.931603 
L 244.560721 293.411094 
L 244.918198 293.571005 
L 245.275676 292.670569 
L 245.633153 293.040468 
L 246.348108 292.657021 
L 247.063063 293.113287 
L 247.420541 292.6367 
L 247.778018 292.692342 
L 248.135495 293.138205 
L 248.492973 293.262312 
L 248.85045 293.223846 
L 249.565405 293.361742 
L 249.922883 292.745807 
L 250.28036 293.352549 
L 250.995315 292.745323 
L 251.352793 293.366822 
L 251.71027 292.869187 
L 252.067748 293.009502 
L 252.425225 293.466978 
L 252.782703 293.109658 
L 253.14018 293.105546 
L 253.497658 293.422948 
L 253.855135 293.004664 
L 254.212613 293.403352 
L 254.57009 292.805803 
L 255.285045 293.346259 
L 256 293.231829 
L 256.357477 292.844753 
L 257.072432 293.138931 
L 257.42991 292.813061 
L 257.787387 293.164333 
L 258.144865 293.221185 
L 258.502342 293.007325 
L 258.85982 293.519233 
L 259.217297 293.482461 
L 259.574775 293.670435 
L 259.932252 293.140382 
L 260.647207 293.171832 
L 261.004685 292.955312 
L 261.362162 292.898944 
L 261.71964 293.316502 
L 262.434595 293.150543 
L 263.14955 293.423432 
L 263.507027 293.056919 
L 263.864505 293.280456 
L 264.221982 293.145463 
L 264.936937 293.316744 
L 265.294414 293.046033 
L 266.009369 293.274891 
L 266.366847 292.860478 
L 266.724324 293.323276 
L 267.081802 293.214653 
L 267.439279 293.349162 
L 267.796757 292.976117 
L 268.154234 293.581408 
L 268.511712 292.97152 
L 269.226667 293.279488 
L 269.941622 292.928942 
L 270.299099 293.557457 
L 270.656577 293.231345 
L 271.729009 292.946119 
L 272.086486 293.441818 
L 272.443964 293.380128 
L 272.801441 292.838463 
L 273.158919 292.779918 
L 273.516396 293.435044 
L 273.873874 293.052565 
L 274.231351 292.971037 
L 274.946306 293.500847 
L 275.661261 292.818383 
L 276.018739 293.156107 
L 276.733694 293.249248 
L 277.091171 292.932329 
L 277.448649 292.889751 
L 277.806126 293.573908 
L 278.163604 292.957973 
L 278.521081 293.375289 
L 278.878559 293.083289 
L 279.236036 293.368032 
L 279.593514 293.228926 
L 279.950991 293.36658 
L 280.665946 293.09103 
L 281.023423 293.480526 
L 281.380901 292.988213 
L 281.738378 292.8733 
L 282.095856 293.401659 
L 283.168288 293.194331 
L 283.525766 292.908137 
L 283.883243 293.294003 
L 284.598198 293.592052 
L 284.955676 293.191186 
L 285.313153 293.144495 
L 286.028108 292.795159 
L 286.385586 293.182961 
L 287.100541 293.240297 
L 287.458018 293.12369 
L 287.815495 293.294245 
L 288.172973 293.241264 
L 288.53045 292.986036 
L 288.887928 293.001277 
L 289.245405 292.879348 
L 289.96036 293.313599 
L 290.317838 292.850559 
L 290.675315 293.528668 
L 291.032793 292.972972 
L 291.39027 293.382547 
L 291.747748 293.391014 
L 292.105225 293.166268 
L 292.82018 293.358839 
L 293.177658 292.657021 
L 293.535135 292.70347 
L 293.892613 293.345291 
L 294.25009 293.179332 
L 294.607568 293.421255 
L 295.68 293.058371 
L 296.394955 293.095143 
L 296.752432 293.48488 
L 297.824865 292.876929 
L 298.182342 293.448834 
L 298.53982 293.249973 
L 298.897297 292.902814 
L 299.254775 293.211992 
L 299.612252 292.901847 
L 299.96973 292.986278 
L 300.327207 292.835318 
L 300.684685 293.091272 
L 301.042162 292.866768 
L 301.39964 292.899428 
L 301.757117 293.181509 
L 302.114595 292.987971 
L 302.472072 293.139899 
L 303.187027 293.163849 
L 303.544505 292.571622 
L 303.901982 292.86072 
L 304.259459 292.736855 
L 304.616937 293.196509 
L 304.974414 293.084256 
L 305.331892 293.354968 
L 305.689369 293.04942 
L 307.476757 292.893138 
L 307.834234 292.682181 
L 308.191712 292.934022 
L 308.549189 293.026437 
L 308.906667 292.699116 
L 309.264144 293.079418 
L 309.621622 292.53485 
L 309.979099 292.483804 
L 310.336577 293.324486 
L 310.694054 293.19796 
L 311.051532 292.905718 
L 311.409009 292.836528 
L 311.766486 293.003696 
L 312.123964 293.680354 
L 312.481441 292.910556 
L 312.838919 293.130706 
L 313.911351 292.877654 
L 314.268829 292.819835 
L 314.626306 292.969101 
L 314.983784 292.586863 
L 315.341261 293.241748 
L 315.698739 292.811368 
L 316.056216 292.887815 
L 316.413694 292.530495 
L 316.771171 293.018937 
L 317.128649 292.827818 
L 317.486126 292.811368 
L 317.843604 293.196267 
L 318.201081 292.493723 
L 318.558559 292.706373 
L 318.916036 292.286396 
L 319.273514 292.871606 
L 319.988468 292.565332 
L 320.345946 293.004906 
L 320.703423 292.403002 
L 321.060901 292.874268 
L 321.775856 292.574283 
L 322.133333 292.976843 
L 322.490811 292.412437 
L 322.848288 292.866284 
L 323.205766 292.90983 
L 323.563243 292.420905 
L 323.920721 292.73613 
L 324.278198 292.564848 
L 324.635676 292.862413 
L 324.993153 292.773144 
L 325.350631 292.566542 
L 326.065586 293.211508 
L 326.423063 292.701535 
L 327.495495 292.931361 
L 327.852973 293.166268 
L 328.21045 292.502432 
L 328.567928 292.508239 
L 328.925405 292.730324 
L 329.282883 292.323168 
L 329.64036 292.529286 
L 329.997838 292.452596 
L 330.355315 292.88588 
L 330.712793 292.567752 
L 331.427748 292.39018 
L 331.785225 292.953376 
L 332.142703 292.460338 
L 332.50018 292.676859 
L 332.857658 293.176913 
L 333.215135 292.901605 
L 333.572613 292.897976 
L 333.93009 292.00891 
L 334.287568 293.076999 
L 334.645045 293.047726 
L 335.002523 292.438323 
L 335.36 292.879106 
L 335.717477 292.877171 
L 336.074955 292.525173 
L 336.78991 292.449935 
L 337.147387 292.655086 
L 337.504865 292.252042 
L 337.862342 293.184412 
L 338.21982 292.712421 
L 338.934775 292.093825 
L 339.64973 293.045065 
L 340.007207 292.900637 
L 340.364685 292.537995 
L 340.722162 293.101191 
L 341.07964 292.362359 
L 341.437117 292.598234 
L 341.794595 292.19132 
L 342.152072 292.637909 
L 342.50955 292.238737 
L 342.867027 292.691858 
L 343.224505 292.674439 
L 343.581982 292.210432 
L 343.939459 292.188175 
L 344.654414 292.5663 
L 345.011892 292.59267 
L 345.726847 291.897868 
L 346.084324 292.662343 
L 346.441802 292.934264 
L 346.799279 292.814513 
L 347.156757 292.044231 
L 347.514234 291.957865 
L 347.871712 292.706615 
L 348.229189 292.326313 
L 348.586667 292.726695 
L 348.944144 292.197852 
L 349.301622 292.137855 
L 349.659099 292.381471 
L 350.731532 292.313733 
L 351.089009 291.604899 
L 351.446486 292.273816 
L 352.876396 292.465418 
L 353.233874 292.288089 
L 353.591351 292.388487 
L 353.948829 292.032861 
L 354.306306 292.326071 
L 354.663784 292.455499 
L 355.021261 292.058021 
L 355.378739 292.450903 
L 356.451171 292.178498 
L 356.808649 291.848274 
L 357.166126 292.023667 
L 357.523604 292.421872 
L 357.881081 291.290884 
L 358.238559 291.4716 
L 358.596036 292.157935 
L 359.310991 291.672154 
L 359.668468 292.322442 
L 360.025946 292.044473 
L 360.383423 292.112937 
L 360.740901 291.919399 
L 361.098378 291.577804 
L 361.455856 292.410744 
L 361.813333 292.296314 
L 362.170811 291.335639 
L 362.885766 292.251559 
L 363.243243 292.138823 
L 363.600721 291.732151 
L 363.958198 292.697664 
L 364.315676 291.772794 
L 364.673153 291.750779 
L 365.030631 291.541758 
L 365.388108 292.170515 
L 366.103063 292.326555 
L 366.460541 291.873917 
L 366.818018 292.155757 
L 367.175495 292.185756 
L 367.532973 291.727796 
L 367.89045 291.71691 
L 368.247928 291.914802 
L 368.605405 292.362843 
L 368.962883 292.043505 
L 369.32036 291.875127 
L 369.677838 291.439182 
L 370.035315 292.589767 
L 370.392793 291.584094 
L 370.75027 291.848757 
L 371.107748 291.49797 
L 371.465225 291.5899 
L 371.822703 290.767605 
L 372.18018 291.041945 
L 372.537658 292.465176 
L 372.895135 291.607077 
L 373.61009 292.533157 
L 373.967568 291.418377 
L 374.325045 291.866902 
L 374.682523 291.073153 
L 375.04 291.447408 
L 375.397477 291.08283 
L 375.754955 291.597158 
L 376.112432 291.538854 
L 376.46991 291.831581 
L 377.184865 291.391282 
L 377.542342 291.974315 
L 377.89982 291.851177 
L 378.257297 291.312657 
L 378.614775 292.146564 
L 378.972252 291.935608 
L 379.32973 291.13944 
L 380.044685 292.09189 
L 380.402162 291.113313 
L 380.75964 292.033586 
L 381.117117 291.160246 
L 381.474595 291.075331 
L 382.18955 291.540548 
L 382.904505 290.779459 
L 383.261982 291.457085 
L 383.619459 291.559418 
L 383.976937 291.011705 
L 384.334414 291.621592 
L 384.691892 290.867519 
L 385.049369 291.142343 
L 385.406847 291.13315 
L 385.764324 291.486115 
L 386.121802 292.204868 
L 386.479279 290.889292 
L 386.836757 291.379427 
L 387.194234 290.691399 
L 387.551712 291.614092 
L 387.909189 290.95703 
L 388.266667 291.248063 
L 388.624144 291.324995 
L 389.339099 290.648337 
L 389.696577 291.678444 
L 390.054054 291.719329 
L 390.411532 290.878648 
L 390.769009 291.640462 
L 391.126486 290.189652 
L 391.483964 291.144762 
L 391.841441 290.561971 
L 392.556396 291.417409 
L 393.271351 291.089604 
L 393.628829 291.209114 
L 393.986306 291.494099 
L 394.343784 290.438106 
L 394.701261 291.157101 
L 395.058739 290.967433 
L 395.416216 290.387786 
L 395.773694 291.157826 
L 396.131171 290.967433 
L 396.488649 291.532806 
L 396.846126 290.973723 
L 397.203604 291.953994 
L 397.561081 291.054767 
L 397.918559 290.542617 
L 398.276036 290.26997 
L 398.633514 290.848891 
L 398.990991 291.043639 
L 399.705946 290.221586 
L 400.063423 290.248681 
L 400.420901 290.06869 
L 400.778378 290.714382 
L 401.135856 290.982916 
L 401.493333 290.12143 
L 401.850811 290.92679 
L 402.208288 290.240939 
L 402.565766 290.823005 
L 403.280721 290.537053 
L 403.995676 290.116349 
L 404.353153 291.136295 
L 404.710631 291.125409 
L 405.068108 290.474637 
L 405.425586 290.665514 
L 405.783063 290.410769 
L 406.140541 290.354401 
L 406.498018 289.134385 
L 406.855495 290.212634 
L 407.212973 289.585087 
L 407.57045 290.750187 
L 407.927928 290.682448 
L 408.285405 290.841391 
L 408.642883 290.279163 
L 409.00036 289.226558 
L 409.357838 290.399399 
L 409.715315 290.563664 
L 410.072793 290.291259 
L 410.787748 290.453589 
L 411.145225 290.219166 
L 411.502703 288.911574 
L 411.86018 289.713306 
L 412.575135 290.33408 
L 412.932613 290.050304 
L 413.29009 289.948455 
L 413.647568 290.302146 
L 414.005045 290.245778 
L 414.362523 289.580491 
L 414.72 289.224138 
L 414.72 289.224138 
" style="fill:none;stroke:#d62728;stroke-linecap:square;stroke-width:1.5;"/>
   </g>
   <g id="patch_3">
    <path d="M 57.6 307.584 
L 57.6 41.472 
" style="fill:none;stroke:#000000;stroke-linecap:square;stroke-linejoin:miter;stroke-width:0.8;"/>
   </g>
   <g id="patch_4">
    <path d="M 414.72 307.584 
L 414.72 41.472 
" style="fill:none;stroke:#000000;stroke-linecap:square;stroke-linejoin:miter;stroke-width:0.8;"/>
   </g>
   <g id="patch_5">
    <path d="M 57.6 307.584 
L 414.72 307.584 
" style="fill:none;stroke:#000000;stroke-linecap:square;stroke-linejoin:miter;stroke-width:0.8;"/>
   </g>
   <g id="patch_6">
    <path d="M 57.6 41.472 
L 414.72 41.472 
" style="fill:none;stroke:#000000;stroke-linecap:square;stroke-linejoin:miter;stroke-width:0.8;"/>
   </g>
   <g id="legend_1">
    <g id="patch_7">
     <path d="M 369.3575 205.38425 
L 407.72 205.38425 
Q 409.72 205.38425 409.72 203.38425 
L 409.72 145.67175 
Q 409.72 143.67175 407.72 143.67175 
L 369.3575 143.67175 
Q 367.3575 143.67175 367.3575 145.67175 
L 367.3575 203.38425 
Q 367.3575 205.38425 369.3575 205.38425 
z
" style="fill:#ffffff;opacity:0.8;stroke:#cccccc;stroke-linejoin:miter;"/>
    </g>
    <g id="line2d_17">
     <path d="M 371.3575 151.770188 
L 391.3575 151.770188 
" style="fill:none;stroke:#1f77b4;stroke-linecap:square;stroke-width:1.5;"/>
    </g>
    <g id="line2d_18"/>
    <g id="text_13">
     <!-- 1 -->
     <g transform="translate(399.3575 155.270188)scale(0.1 -0.1)">
      <use xlink:href="#DejaVuSans-31"/>
     </g>
    </g>
    <g id="line2d_19">
     <path d="M 371.3575 166.448313 
L 391.3575 166.448313 
" style="fill:none;stroke:#ff7f0e;stroke-linecap:square;stroke-width:1.5;"/>
    </g>
    <g id="line2d_20"/>
    <g id="text_14">
     <!-- 2 -->
     <g transform="translate(399.3575 169.948313)scale(0.1 -0.1)">
      <use xlink:href="#DejaVuSans-32"/>
     </g>
    </g>
    <g id="line2d_21">
     <path d="M 371.3575 181.126438 
L 391.3575 181.126438 
" style="fill:none;stroke:#2ca02c;stroke-linecap:square;stroke-width:1.5;"/>
    </g>
    <g id="line2d_22"/>
    <g id="text_15">
     <!-- 4 -->
     <g transform="translate(399.3575 184.626438)scale(0.1 -0.1)">
      <use xlink:href="#DejaVuSans-34"/>
     </g>
    </g>
    <g id="line2d_23">
     <path d="M 371.3575 195.804563 
L 391.3575 195.804563 
" style="fill:none;stroke:#d62728;stroke-linecap:square;stroke-width:1.5;"/>
    </g>
    <g id="line2d_24"/>
    <g id="text_16">
     <!-- 8 -->
     <g transform="translate(399.3575 199.304563)scale(0.1 -0.1)">
      <use xlink:href="#DejaVuSans-38"/>
     </g>
    </g>
   </g>
  </g>
 </g>
 <defs>
  <clipPath id="p9d144383c2">
   <rect height="266.112" width="357.12" x="57.6" y="41.472"/>
  </clipPath>
 </defs>
</svg>
