<?xml version="1.0" encoding="utf-8" standalone="no"?>
<!DOCTYPE svg PUBLIC "-//W3C//DTD SVG 1.1//EN"
  "http://www.w3.org/Graphics/SVG/1.1/DTD/svg11.dtd">
<!-- Created with matplotlib (http://matplotlib.org/) -->
<svg height="345pt" version="1.1" viewBox="0 0 460 345" width="460pt" xmlns="http://www.w3.org/2000/svg" xmlns:xlink="http://www.w3.org/1999/xlink">
 <defs>
  <style type="text/css">
*{stroke-linecap:butt;stroke-linejoin:round;}
  </style>
 </defs>
 <g id="figure_1">
  <g id="patch_1">
   <path d="M 0 345.6 
L 460.8 345.6 
L 460.8 0 
L 0 0 
z
" style="fill:#ffffff;"/>
  </g>
  <g id="axes_1">
   <g id="patch_2">
    <path d="M 57.6 307.584 
L 414.72 307.584 
L 414.72 41.472 
L 57.6 41.472 
z
" style="fill:#ffffff;"/>
   </g>
   <g id="matplotlib.axis_1">
    <g id="xtick_1">
     <g id="line2d_1">
      <path clip-path="url(#p6ac965a6d1)" d="M 57.239273 307.584 
L 57.239273 41.472 
" style="fill:none;stroke:#b0b0b0;stroke-linecap:square;stroke-width:0.8;"/>
     </g>
     <g id="line2d_2">
      <defs>
       <path d="M 0 0 
L 0 3.5 
" id="m255203cec3" style="stroke:#000000;stroke-width:0.8;"/>
      </defs>
      <g>
       <use style="stroke:#000000;stroke-width:0.8;" x="57.239273" xlink:href="#m255203cec3" y="307.584"/>
      </g>
     </g>
     <g id="text_1">
      <!-- 0 -->
      <defs>
       <path d="M 31.78125 66.40625 
Q 24.171875 66.40625 20.328125 58.90625 
Q 16.5 51.421875 16.5 36.375 
Q 16.5 21.390625 20.328125 13.890625 
Q 24.171875 6.390625 31.78125 6.390625 
Q 39.453125 6.390625 43.28125 13.890625 
Q 47.125 21.390625 47.125 36.375 
Q 47.125 51.421875 43.28125 58.90625 
Q 39.453125 66.40625 31.78125 66.40625 
M 31.78125 74.21875 
Q 44.046875 74.21875 50.515625 64.515625 
Q 56.984375 54.828125 56.984375 36.375 
Q 56.984375 17.96875 50.515625 8.265625 
Q 44.046875 -1.421875 31.78125 -1.421875 
Q 19.53125 -1.421875 13.0625 8.265625 
Q 6.59375 17.96875 6.59375 36.375 
Q 6.59375 54.828125 13.0625 64.515625 
Q 19.53125 74.21875 31.78125 74.21875 
" id="DejaVuSans-30"/>
      </defs>
      <g transform="translate(54.058023 322.182437)scale(0.1 -0.1)">
       <use xlink:href="#DejaVuSans-30"/>
      </g>
     </g>
    </g>
    <g id="xtick_2">
     <g id="line2d_3">
      <path clip-path="url(#p6ac965a6d1)" d="M 129.384727 307.584 
L 129.384727 41.472 
" style="fill:none;stroke:#b0b0b0;stroke-linecap:square;stroke-width:0.8;"/>
     </g>
     <g id="line2d_4">
      <g>
       <use style="stroke:#000000;stroke-width:0.8;" x="129.384727" xlink:href="#m255203cec3" y="307.584"/>
      </g>
     </g>
     <g id="text_2">
      <!-- 200 -->
      <defs>
       <path d="M 19.1875 8.296875 
L 53.609375 8.296875 
L 53.609375 0 
L 7.328125 0 
L 7.328125 8.296875 
Q 12.9375 14.109375 22.625 23.890625 
Q 32.328125 33.6875 34.8125 36.53125 
Q 39.546875 41.84375 41.421875 45.53125 
Q 43.3125 49.21875 43.3125 52.78125 
Q 43.3125 58.59375 39.234375 62.25 
Q 35.15625 65.921875 28.609375 65.921875 
Q 23.96875 65.921875 18.8125 64.3125 
Q 13.671875 62.703125 7.8125 59.421875 
L 7.8125 69.390625 
Q 13.765625 71.78125 18.9375 73 
Q 24.125 74.21875 28.421875 74.21875 
Q 39.75 74.21875 46.484375 68.546875 
Q 53.21875 62.890625 53.21875 53.421875 
Q 53.21875 48.921875 51.53125 44.890625 
Q 49.859375 40.875 45.40625 35.40625 
Q 44.1875 33.984375 37.640625 27.21875 
Q 31.109375 20.453125 19.1875 8.296875 
" id="DejaVuSans-32"/>
      </defs>
      <g transform="translate(119.840977 322.182437)scale(0.1 -0.1)">
       <use xlink:href="#DejaVuSans-32"/>
       <use x="63.623047" xlink:href="#DejaVuSans-30"/>
       <use x="127.246094" xlink:href="#DejaVuSans-30"/>
      </g>
     </g>
    </g>
    <g id="xtick_3">
     <g id="line2d_5">
      <path clip-path="url(#p6ac965a6d1)" d="M 201.530182 307.584 
L 201.530182 41.472 
" style="fill:none;stroke:#b0b0b0;stroke-linecap:square;stroke-width:0.8;"/>
     </g>
     <g id="line2d_6">
      <g>
       <use style="stroke:#000000;stroke-width:0.8;" x="201.530182" xlink:href="#m255203cec3" y="307.584"/>
      </g>
     </g>
     <g id="text_3">
      <!-- 400 -->
      <defs>
       <path d="M 37.796875 64.3125 
L 12.890625 25.390625 
L 37.796875 25.390625 
z
M 35.203125 72.90625 
L 47.609375 72.90625 
L 47.609375 25.390625 
L 58.015625 25.390625 
L 58.015625 17.1875 
L 47.609375 17.1875 
L 47.609375 0 
L 37.796875 0 
L 37.796875 17.1875 
L 4.890625 17.1875 
L 4.890625 26.703125 
z
" id="DejaVuSans-34"/>
      </defs>
      <g transform="translate(191.986432 322.182437)scale(0.1 -0.1)">
       <use xlink:href="#DejaVuSans-34"/>
       <use x="63.623047" xlink:href="#DejaVuSans-30"/>
       <use x="127.246094" xlink:href="#DejaVuSans-30"/>
      </g>
     </g>
    </g>
    <g id="xtick_4">
     <g id="line2d_7">
      <path clip-path="url(#p6ac965a6d1)" d="M 273.675636 307.584 
L 273.675636 41.472 
" style="fill:none;stroke:#b0b0b0;stroke-linecap:square;stroke-width:0.8;"/>
     </g>
     <g id="line2d_8">
      <g>
       <use style="stroke:#000000;stroke-width:0.8;" x="273.675636" xlink:href="#m255203cec3" y="307.584"/>
      </g>
     </g>
     <g id="text_4">
      <!-- 600 -->
      <defs>
       <path d="M 33.015625 40.375 
Q 26.375 40.375 22.484375 35.828125 
Q 18.609375 31.296875 18.609375 23.390625 
Q 18.609375 15.53125 22.484375 10.953125 
Q 26.375 6.390625 33.015625 6.390625 
Q 39.65625 6.390625 43.53125 10.953125 
Q 47.40625 15.53125 47.40625 23.390625 
Q 47.40625 31.296875 43.53125 35.828125 
Q 39.65625 40.375 33.015625 40.375 
M 52.59375 71.296875 
L 52.59375 62.3125 
Q 48.875 64.0625 45.09375 64.984375 
Q 41.3125 65.921875 37.59375 65.921875 
Q 27.828125 65.921875 22.671875 59.328125 
Q 17.53125 52.734375 16.796875 39.40625 
Q 19.671875 43.65625 24.015625 45.921875 
Q 28.375 48.1875 33.59375 48.1875 
Q 44.578125 48.1875 50.953125 41.515625 
Q 57.328125 34.859375 57.328125 23.390625 
Q 57.328125 12.15625 50.6875 5.359375 
Q 44.046875 -1.421875 33.015625 -1.421875 
Q 20.359375 -1.421875 13.671875 8.265625 
Q 6.984375 17.96875 6.984375 36.375 
Q 6.984375 53.65625 15.1875 63.9375 
Q 23.390625 74.21875 37.203125 74.21875 
Q 40.921875 74.21875 44.703125 73.484375 
Q 48.484375 72.75 52.59375 71.296875 
" id="DejaVuSans-36"/>
      </defs>
      <g transform="translate(264.131886 322.182437)scale(0.1 -0.1)">
       <use xlink:href="#DejaVuSans-36"/>
       <use x="63.623047" xlink:href="#DejaVuSans-30"/>
       <use x="127.246094" xlink:href="#DejaVuSans-30"/>
      </g>
     </g>
    </g>
    <g id="xtick_5">
     <g id="line2d_9">
      <path clip-path="url(#p6ac965a6d1)" d="M 345.821091 307.584 
L 345.821091 41.472 
" style="fill:none;stroke:#b0b0b0;stroke-linecap:square;stroke-width:0.8;"/>
     </g>
     <g id="line2d_10">
      <g>
       <use style="stroke:#000000;stroke-width:0.8;" x="345.821091" xlink:href="#m255203cec3" y="307.584"/>
      </g>
     </g>
     <g id="text_5">
      <!-- 800 -->
      <defs>
       <path d="M 31.78125 34.625 
Q 24.75 34.625 20.71875 30.859375 
Q 16.703125 27.09375 16.703125 20.515625 
Q 16.703125 13.921875 20.71875 10.15625 
Q 24.75 6.390625 31.78125 6.390625 
Q 38.8125 6.390625 42.859375 10.171875 
Q 46.921875 13.96875 46.921875 20.515625 
Q 46.921875 27.09375 42.890625 30.859375 
Q 38.875 34.625 31.78125 34.625 
M 21.921875 38.8125 
Q 15.578125 40.375 12.03125 44.71875 
Q 8.5 49.078125 8.5 55.328125 
Q 8.5 64.0625 14.71875 69.140625 
Q 20.953125 74.21875 31.78125 74.21875 
Q 42.671875 74.21875 48.875 69.140625 
Q 55.078125 64.0625 55.078125 55.328125 
Q 55.078125 49.078125 51.53125 44.71875 
Q 48 40.375 41.703125 38.8125 
Q 48.828125 37.15625 52.796875 32.3125 
Q 56.78125 27.484375 56.78125 20.515625 
Q 56.78125 9.90625 50.3125 4.234375 
Q 43.84375 -1.421875 31.78125 -1.421875 
Q 19.734375 -1.421875 13.25 4.234375 
Q 6.78125 9.90625 6.78125 20.515625 
Q 6.78125 27.484375 10.78125 32.3125 
Q 14.796875 37.15625 21.921875 38.8125 
M 18.3125 54.390625 
Q 18.3125 48.734375 21.84375 45.5625 
Q 25.390625 42.390625 31.78125 42.390625 
Q 38.140625 42.390625 41.71875 45.5625 
Q 45.3125 48.734375 45.3125 54.390625 
Q 45.3125 60.0625 41.71875 63.234375 
Q 38.140625 66.40625 31.78125 66.40625 
Q 25.390625 66.40625 21.84375 63.234375 
Q 18.3125 60.0625 18.3125 54.390625 
" id="DejaVuSans-38"/>
      </defs>
      <g transform="translate(336.277341 322.182437)scale(0.1 -0.1)">
       <use xlink:href="#DejaVuSans-38"/>
       <use x="63.623047" xlink:href="#DejaVuSans-30"/>
       <use x="127.246094" xlink:href="#DejaVuSans-30"/>
      </g>
     </g>
    </g>
    <g id="text_6">
     <!-- Number of clients -->
     <defs>
      <path d="M 9.8125 72.90625 
L 23.09375 72.90625 
L 55.421875 11.921875 
L 55.421875 72.90625 
L 64.984375 72.90625 
L 64.984375 0 
L 51.703125 0 
L 19.390625 60.984375 
L 19.390625 0 
L 9.8125 0 
z
" id="DejaVuSans-4e"/>
      <path d="M 8.5 21.578125 
L 8.5 54.6875 
L 17.484375 54.6875 
L 17.484375 21.921875 
Q 17.484375 14.15625 20.5 10.265625 
Q 23.53125 6.390625 29.59375 6.390625 
Q 36.859375 6.390625 41.078125 11.03125 
Q 45.3125 15.671875 45.3125 23.6875 
L 45.3125 54.6875 
L 54.296875 54.6875 
L 54.296875 0 
L 45.3125 0 
L 45.3125 8.40625 
Q 42.046875 3.421875 37.71875 1 
Q 33.40625 -1.421875 27.6875 -1.421875 
Q 18.265625 -1.421875 13.375 4.4375 
Q 8.5 10.296875 8.5 21.578125 
M 31.109375 56 
z
" id="DejaVuSans-75"/>
      <path d="M 52 44.1875 
Q 55.375 50.25 60.0625 53.125 
Q 64.75 56 71.09375 56 
Q 79.640625 56 84.28125 50.015625 
Q 88.921875 44.046875 88.921875 33.015625 
L 88.921875 0 
L 79.890625 0 
L 79.890625 32.71875 
Q 79.890625 40.578125 77.09375 44.375 
Q 74.3125 48.1875 68.609375 48.1875 
Q 61.625 48.1875 57.5625 43.546875 
Q 53.515625 38.921875 53.515625 30.90625 
L 53.515625 0 
L 44.484375 0 
L 44.484375 32.71875 
Q 44.484375 40.625 41.703125 44.40625 
Q 38.921875 48.1875 33.109375 48.1875 
Q 26.21875 48.1875 22.15625 43.53125 
Q 18.109375 38.875 18.109375 30.90625 
L 18.109375 0 
L 9.078125 0 
L 9.078125 54.6875 
L 18.109375 54.6875 
L 18.109375 46.1875 
Q 21.1875 51.21875 25.484375 53.609375 
Q 29.78125 56 35.6875 56 
Q 41.65625 56 45.828125 52.96875 
Q 50 49.953125 52 44.1875 
" id="DejaVuSans-6d"/>
      <path d="M 48.6875 27.296875 
Q 48.6875 37.203125 44.609375 42.84375 
Q 40.53125 48.484375 33.40625 48.484375 
Q 26.265625 48.484375 22.1875 42.84375 
Q 18.109375 37.203125 18.109375 27.296875 
Q 18.109375 17.390625 22.1875 11.75 
Q 26.265625 6.109375 33.40625 6.109375 
Q 40.53125 6.109375 44.609375 11.75 
Q 48.6875 17.390625 48.6875 27.296875 
M 18.109375 46.390625 
Q 20.953125 51.265625 25.265625 53.625 
Q 29.59375 56 35.59375 56 
Q 45.5625 56 51.78125 48.09375 
Q 58.015625 40.1875 58.015625 27.296875 
Q 58.015625 14.40625 51.78125 6.484375 
Q 45.5625 -1.421875 35.59375 -1.421875 
Q 29.59375 -1.421875 25.265625 0.953125 
Q 20.953125 3.328125 18.109375 8.203125 
L 18.109375 0 
L 9.078125 0 
L 9.078125 75.984375 
L 18.109375 75.984375 
z
" id="DejaVuSans-62"/>
      <path d="M 56.203125 29.59375 
L 56.203125 25.203125 
L 14.890625 25.203125 
Q 15.484375 15.921875 20.484375 11.0625 
Q 25.484375 6.203125 34.421875 6.203125 
Q 39.59375 6.203125 44.453125 7.46875 
Q 49.3125 8.734375 54.109375 11.28125 
L 54.109375 2.78125 
Q 49.265625 0.734375 44.1875 -0.34375 
Q 39.109375 -1.421875 33.890625 -1.421875 
Q 20.796875 -1.421875 13.15625 6.1875 
Q 5.515625 13.8125 5.515625 26.8125 
Q 5.515625 40.234375 12.765625 48.109375 
Q 20.015625 56 32.328125 56 
Q 43.359375 56 49.78125 48.890625 
Q 56.203125 41.796875 56.203125 29.59375 
M 47.21875 32.234375 
Q 47.125 39.59375 43.09375 43.984375 
Q 39.0625 48.390625 32.421875 48.390625 
Q 24.90625 48.390625 20.390625 44.140625 
Q 15.875 39.890625 15.1875 32.171875 
z
" id="DejaVuSans-65"/>
      <path d="M 41.109375 46.296875 
Q 39.59375 47.171875 37.8125 47.578125 
Q 36.03125 48 33.890625 48 
Q 26.265625 48 22.1875 43.046875 
Q 18.109375 38.09375 18.109375 28.8125 
L 18.109375 0 
L 9.078125 0 
L 9.078125 54.6875 
L 18.109375 54.6875 
L 18.109375 46.1875 
Q 20.953125 51.171875 25.484375 53.578125 
Q 30.03125 56 36.53125 56 
Q 37.453125 56 38.578125 55.875 
Q 39.703125 55.765625 41.0625 55.515625 
z
" id="DejaVuSans-72"/>
      <path id="DejaVuSans-20"/>
      <path d="M 30.609375 48.390625 
Q 23.390625 48.390625 19.1875 42.75 
Q 14.984375 37.109375 14.984375 27.296875 
Q 14.984375 17.484375 19.15625 11.84375 
Q 23.34375 6.203125 30.609375 6.203125 
Q 37.796875 6.203125 41.984375 11.859375 
Q 46.1875 17.53125 46.1875 27.296875 
Q 46.1875 37.015625 41.984375 42.703125 
Q 37.796875 48.390625 30.609375 48.390625 
M 30.609375 56 
Q 42.328125 56 49.015625 48.375 
Q 55.71875 40.765625 55.71875 27.296875 
Q 55.71875 13.875 49.015625 6.21875 
Q 42.328125 -1.421875 30.609375 -1.421875 
Q 18.84375 -1.421875 12.171875 6.21875 
Q 5.515625 13.875 5.515625 27.296875 
Q 5.515625 40.765625 12.171875 48.375 
Q 18.84375 56 30.609375 56 
" id="DejaVuSans-6f"/>
      <path d="M 37.109375 75.984375 
L 37.109375 68.5 
L 28.515625 68.5 
Q 23.6875 68.5 21.796875 66.546875 
Q 19.921875 64.59375 19.921875 59.515625 
L 19.921875 54.6875 
L 34.71875 54.6875 
L 34.71875 47.703125 
L 19.921875 47.703125 
L 19.921875 0 
L 10.890625 0 
L 10.890625 47.703125 
L 2.296875 47.703125 
L 2.296875 54.6875 
L 10.890625 54.6875 
L 10.890625 58.5 
Q 10.890625 67.625 15.140625 71.796875 
Q 19.390625 75.984375 28.609375 75.984375 
z
" id="DejaVuSans-66"/>
      <path d="M 48.78125 52.59375 
L 48.78125 44.1875 
Q 44.96875 46.296875 41.140625 47.34375 
Q 37.3125 48.390625 33.40625 48.390625 
Q 24.65625 48.390625 19.8125 42.84375 
Q 14.984375 37.3125 14.984375 27.296875 
Q 14.984375 17.28125 19.8125 11.734375 
Q 24.65625 6.203125 33.40625 6.203125 
Q 37.3125 6.203125 41.140625 7.25 
Q 44.96875 8.296875 48.78125 10.40625 
L 48.78125 2.09375 
Q 45.015625 0.34375 40.984375 -0.53125 
Q 36.96875 -1.421875 32.421875 -1.421875 
Q 20.0625 -1.421875 12.78125 6.34375 
Q 5.515625 14.109375 5.515625 27.296875 
Q 5.515625 40.671875 12.859375 48.328125 
Q 20.21875 56 33.015625 56 
Q 37.15625 56 41.109375 55.140625 
Q 45.0625 54.296875 48.78125 52.59375 
" id="DejaVuSans-63"/>
      <path d="M 9.421875 75.984375 
L 18.40625 75.984375 
L 18.40625 0 
L 9.421875 0 
z
" id="DejaVuSans-6c"/>
      <path d="M 9.421875 54.6875 
L 18.40625 54.6875 
L 18.40625 0 
L 9.421875 0 
z
M 9.421875 75.984375 
L 18.40625 75.984375 
L 18.40625 64.59375 
L 9.421875 64.59375 
z
" id="DejaVuSans-69"/>
      <path d="M 54.890625 33.015625 
L 54.890625 0 
L 45.90625 0 
L 45.90625 32.71875 
Q 45.90625 40.484375 42.875 44.328125 
Q 39.84375 48.1875 33.796875 48.1875 
Q 26.515625 48.1875 22.3125 43.546875 
Q 18.109375 38.921875 18.109375 30.90625 
L 18.109375 0 
L 9.078125 0 
L 9.078125 54.6875 
L 18.109375 54.6875 
L 18.109375 46.1875 
Q 21.34375 51.125 25.703125 53.5625 
Q 30.078125 56 35.796875 56 
Q 45.21875 56 50.046875 50.171875 
Q 54.890625 44.34375 54.890625 33.015625 
" id="DejaVuSans-6e"/>
      <path d="M 18.3125 70.21875 
L 18.3125 54.6875 
L 36.8125 54.6875 
L 36.8125 47.703125 
L 18.3125 47.703125 
L 18.3125 18.015625 
Q 18.3125 11.328125 20.140625 9.421875 
Q 21.96875 7.515625 27.59375 7.515625 
L 36.8125 7.515625 
L 36.8125 0 
L 27.59375 0 
Q 17.1875 0 13.234375 3.875 
Q 9.28125 7.765625 9.28125 18.015625 
L 9.28125 47.703125 
L 2.6875 47.703125 
L 2.6875 54.6875 
L 9.28125 54.6875 
L 9.28125 70.21875 
z
" id="DejaVuSans-74"/>
      <path d="M 44.28125 53.078125 
L 44.28125 44.578125 
Q 40.484375 46.53125 36.375 47.5 
Q 32.28125 48.484375 27.875 48.484375 
Q 21.1875 48.484375 17.84375 46.4375 
Q 14.5 44.390625 14.5 40.28125 
Q 14.5 37.15625 16.890625 35.375 
Q 19.28125 33.59375 26.515625 31.984375 
L 29.59375 31.296875 
Q 39.15625 29.25 43.1875 25.515625 
Q 47.21875 21.78125 47.21875 15.09375 
Q 47.21875 7.46875 41.1875 3.015625 
Q 35.15625 -1.421875 24.609375 -1.421875 
Q 20.21875 -1.421875 15.453125 -0.5625 
Q 10.6875 0.296875 5.421875 2 
L 5.421875 11.28125 
Q 10.40625 8.6875 15.234375 7.390625 
Q 20.0625 6.109375 24.8125 6.109375 
Q 31.15625 6.109375 34.5625 8.28125 
Q 37.984375 10.453125 37.984375 14.40625 
Q 37.984375 18.0625 35.515625 20.015625 
Q 33.0625 21.96875 24.703125 23.78125 
L 21.578125 24.515625 
Q 13.234375 26.265625 9.515625 29.90625 
Q 5.8125 33.546875 5.8125 39.890625 
Q 5.8125 47.609375 11.28125 51.796875 
Q 16.75 56 26.8125 56 
Q 31.78125 56 36.171875 55.265625 
Q 40.578125 54.546875 44.28125 53.078125 
" id="DejaVuSans-73"/>
     </defs>
     <g transform="translate(191.738906 335.860562)scale(0.1 -0.1)">
      <use xlink:href="#DejaVuSans-4e"/>
      <use x="74.804688" xlink:href="#DejaVuSans-75"/>
      <use x="138.183594" xlink:href="#DejaVuSans-6d"/>
      <use x="235.595703" xlink:href="#DejaVuSans-62"/>
      <use x="299.072266" xlink:href="#DejaVuSans-65"/>
      <use x="360.595703" xlink:href="#DejaVuSans-72"/>
      <use x="401.708984" xlink:href="#DejaVuSans-20"/>
      <use x="433.496094" xlink:href="#DejaVuSans-6f"/>
      <use x="494.677734" xlink:href="#DejaVuSans-66"/>
      <use x="529.882812" xlink:href="#DejaVuSans-20"/>
      <use x="561.669922" xlink:href="#DejaVuSans-63"/>
      <use x="616.650391" xlink:href="#DejaVuSans-6c"/>
      <use x="644.433594" xlink:href="#DejaVuSans-69"/>
      <use x="672.216797" xlink:href="#DejaVuSans-65"/>
      <use x="733.740234" xlink:href="#DejaVuSans-6e"/>
      <use x="797.119141" xlink:href="#DejaVuSans-74"/>
      <use x="836.328125" xlink:href="#DejaVuSans-73"/>
     </g>
    </g>
   </g>
   <g id="matplotlib.axis_2">
    <g id="ytick_1">
     <g id="line2d_11">
      <path clip-path="url(#p6ac965a6d1)" d="M 57.6 295.491145 
L 414.72 295.491145 
" style="fill:none;stroke:#b0b0b0;stroke-linecap:square;stroke-width:0.8;"/>
     </g>
     <g id="line2d_12">
      <defs>
       <path d="M 0 0 
L -3.5 0 
" id="m036d89e0b9" style="stroke:#000000;stroke-width:0.8;"/>
      </defs>
      <g>
       <use style="stroke:#000000;stroke-width:0.8;" x="57.6" xlink:href="#m036d89e0b9" y="295.491145"/>
      </g>
     </g>
     <g id="text_7">
      <!-- 0.0 -->
      <defs>
       <path d="M 10.6875 12.40625 
L 21 12.40625 
L 21 0 
L 10.6875 0 
z
" id="DejaVuSans-2e"/>
      </defs>
      <g transform="translate(34.696875 299.290364)scale(0.1 -0.1)">
       <use xlink:href="#DejaVuSans-30"/>
       <use x="63.623047" xlink:href="#DejaVuSans-2e"/>
       <use x="95.410156" xlink:href="#DejaVuSans-30"/>
      </g>
     </g>
    </g>
    <g id="ytick_2">
     <g id="line2d_13">
      <path clip-path="url(#p6ac965a6d1)" d="M 57.6 247.106516 
L 414.72 247.106516 
" style="fill:none;stroke:#b0b0b0;stroke-linecap:square;stroke-width:0.8;"/>
     </g>
     <g id="line2d_14">
      <g>
       <use style="stroke:#000000;stroke-width:0.8;" x="57.6" xlink:href="#m036d89e0b9" y="247.106516"/>
      </g>
     </g>
     <g id="text_8">
      <!-- 0.2 -->
      <g transform="translate(34.696875 250.905735)scale(0.1 -0.1)">
       <use xlink:href="#DejaVuSans-30"/>
       <use x="63.623047" xlink:href="#DejaVuSans-2e"/>
       <use x="95.410156" xlink:href="#DejaVuSans-32"/>
      </g>
     </g>
    </g>
    <g id="ytick_3">
     <g id="line2d_15">
      <path clip-path="url(#p6ac965a6d1)" d="M 57.6 198.721887 
L 414.72 198.721887 
" style="fill:none;stroke:#b0b0b0;stroke-linecap:square;stroke-width:0.8;"/>
     </g>
     <g id="line2d_16">
      <g>
       <use style="stroke:#000000;stroke-width:0.8;" x="57.6" xlink:href="#m036d89e0b9" y="198.721887"/>
      </g>
     </g>
     <g id="text_9">
      <!-- 0.4 -->
      <g transform="translate(34.696875 202.521106)scale(0.1 -0.1)">
       <use xlink:href="#DejaVuSans-30"/>
       <use x="63.623047" xlink:href="#DejaVuSans-2e"/>
       <use x="95.410156" xlink:href="#DejaVuSans-34"/>
      </g>
     </g>
    </g>
    <g id="ytick_4">
     <g id="line2d_17">
      <path clip-path="url(#p6ac965a6d1)" d="M 57.6 150.337258 
L 414.72 150.337258 
" style="fill:none;stroke:#b0b0b0;stroke-linecap:square;stroke-width:0.8;"/>
     </g>
     <g id="line2d_18">
      <g>
       <use style="stroke:#000000;stroke-width:0.8;" x="57.6" xlink:href="#m036d89e0b9" y="150.337258"/>
      </g>
     </g>
     <g id="text_10">
      <!-- 0.6 -->
      <g transform="translate(34.696875 154.136477)scale(0.1 -0.1)">
       <use xlink:href="#DejaVuSans-30"/>
       <use x="63.623047" xlink:href="#DejaVuSans-2e"/>
       <use x="95.410156" xlink:href="#DejaVuSans-36"/>
      </g>
     </g>
    </g>
    <g id="ytick_5">
     <g id="line2d_19">
      <path clip-path="url(#p6ac965a6d1)" d="M 57.6 101.952629 
L 414.72 101.952629 
" style="fill:none;stroke:#b0b0b0;stroke-linecap:square;stroke-width:0.8;"/>
     </g>
     <g id="line2d_20">
      <g>
       <use style="stroke:#000000;stroke-width:0.8;" x="57.6" xlink:href="#m036d89e0b9" y="101.952629"/>
      </g>
     </g>
     <g id="text_11">
      <!-- 0.8 -->
      <g transform="translate(34.696875 105.751848)scale(0.1 -0.1)">
       <use xlink:href="#DejaVuSans-30"/>
       <use x="63.623047" xlink:href="#DejaVuSans-2e"/>
       <use x="95.410156" xlink:href="#DejaVuSans-38"/>
      </g>
     </g>
    </g>
    <g id="ytick_6">
     <g id="line2d_21">
      <path clip-path="url(#p6ac965a6d1)" d="M 57.6 53.568 
L 414.72 53.568 
" style="fill:none;stroke:#b0b0b0;stroke-linecap:square;stroke-width:0.8;"/>
     </g>
     <g id="line2d_22">
      <g>
       <use style="stroke:#000000;stroke-width:0.8;" x="57.6" xlink:href="#m036d89e0b9" y="53.568"/>
      </g>
     </g>
     <g id="text_12">
      <!-- 1.0 -->
      <defs>
       <path d="M 12.40625 8.296875 
L 28.515625 8.296875 
L 28.515625 63.921875 
L 10.984375 60.40625 
L 10.984375 69.390625 
L 28.421875 72.90625 
L 38.28125 72.90625 
L 38.28125 8.296875 
L 54.390625 8.296875 
L 54.390625 0 
L 12.40625 0 
z
" id="DejaVuSans-31"/>
      </defs>
      <g transform="translate(34.696875 57.367219)scale(0.1 -0.1)">
       <use xlink:href="#DejaVuSans-31"/>
       <use x="63.623047" xlink:href="#DejaVuSans-2e"/>
       <use x="95.410156" xlink:href="#DejaVuSans-30"/>
      </g>
     </g>
    </g>
    <g id="text_13">
     <!-- Collision probability -->
     <defs>
      <path d="M 64.40625 67.28125 
L 64.40625 56.890625 
Q 59.421875 61.53125 53.78125 63.8125 
Q 48.140625 66.109375 41.796875 66.109375 
Q 29.296875 66.109375 22.65625 58.46875 
Q 16.015625 50.828125 16.015625 36.375 
Q 16.015625 21.96875 22.65625 14.328125 
Q 29.296875 6.6875 41.796875 6.6875 
Q 48.140625 6.6875 53.78125 8.984375 
Q 59.421875 11.28125 64.40625 15.921875 
L 64.40625 5.609375 
Q 59.234375 2.09375 53.4375 0.328125 
Q 47.65625 -1.421875 41.21875 -1.421875 
Q 24.65625 -1.421875 15.125 8.703125 
Q 5.609375 18.84375 5.609375 36.375 
Q 5.609375 53.953125 15.125 64.078125 
Q 24.65625 74.21875 41.21875 74.21875 
Q 47.75 74.21875 53.53125 72.484375 
Q 59.328125 70.75 64.40625 67.28125 
" id="DejaVuSans-43"/>
      <path d="M 18.109375 8.203125 
L 18.109375 -20.796875 
L 9.078125 -20.796875 
L 9.078125 54.6875 
L 18.109375 54.6875 
L 18.109375 46.390625 
Q 20.953125 51.265625 25.265625 53.625 
Q 29.59375 56 35.59375 56 
Q 45.5625 56 51.78125 48.09375 
Q 58.015625 40.1875 58.015625 27.296875 
Q 58.015625 14.40625 51.78125 6.484375 
Q 45.5625 -1.421875 35.59375 -1.421875 
Q 29.59375 -1.421875 25.265625 0.953125 
Q 20.953125 3.328125 18.109375 8.203125 
M 48.6875 27.296875 
Q 48.6875 37.203125 44.609375 42.84375 
Q 40.53125 48.484375 33.40625 48.484375 
Q 26.265625 48.484375 22.1875 42.84375 
Q 18.109375 37.203125 18.109375 27.296875 
Q 18.109375 17.390625 22.1875 11.75 
Q 26.265625 6.109375 33.40625 6.109375 
Q 40.53125 6.109375 44.609375 11.75 
Q 48.6875 17.390625 48.6875 27.296875 
" id="DejaVuSans-70"/>
      <path d="M 34.28125 27.484375 
Q 23.390625 27.484375 19.1875 25 
Q 14.984375 22.515625 14.984375 16.5 
Q 14.984375 11.71875 18.140625 8.90625 
Q 21.296875 6.109375 26.703125 6.109375 
Q 34.1875 6.109375 38.703125 11.40625 
Q 43.21875 16.703125 43.21875 25.484375 
L 43.21875 27.484375 
z
M 52.203125 31.203125 
L 52.203125 0 
L 43.21875 0 
L 43.21875 8.296875 
Q 40.140625 3.328125 35.546875 0.953125 
Q 30.953125 -1.421875 24.3125 -1.421875 
Q 15.921875 -1.421875 10.953125 3.296875 
Q 6 8.015625 6 15.921875 
Q 6 25.140625 12.171875 29.828125 
Q 18.359375 34.515625 30.609375 34.515625 
L 43.21875 34.515625 
L 43.21875 35.40625 
Q 43.21875 41.609375 39.140625 45 
Q 35.0625 48.390625 27.6875 48.390625 
Q 23 48.390625 18.546875 47.265625 
Q 14.109375 46.140625 10.015625 43.890625 
L 10.015625 52.203125 
Q 14.9375 54.109375 19.578125 55.046875 
Q 24.21875 56 28.609375 56 
Q 40.484375 56 46.34375 49.84375 
Q 52.203125 43.703125 52.203125 31.203125 
" id="DejaVuSans-61"/>
      <path d="M 32.171875 -5.078125 
Q 28.375 -14.84375 24.75 -17.8125 
Q 21.140625 -20.796875 15.09375 -20.796875 
L 7.90625 -20.796875 
L 7.90625 -13.28125 
L 13.1875 -13.28125 
Q 16.890625 -13.28125 18.9375 -11.515625 
Q 21 -9.765625 23.484375 -3.21875 
L 25.09375 0.875 
L 2.984375 54.6875 
L 12.5 54.6875 
L 29.59375 11.921875 
L 46.6875 54.6875 
L 56.203125 54.6875 
z
" id="DejaVuSans-79"/>
     </defs>
     <g transform="translate(28.617187 223.843625)rotate(-90)scale(0.1 -0.1)">
      <use xlink:href="#DejaVuSans-43"/>
      <use x="69.824219" xlink:href="#DejaVuSans-6f"/>
      <use x="131.005859" xlink:href="#DejaVuSans-6c"/>
      <use x="158.789062" xlink:href="#DejaVuSans-6c"/>
      <use x="186.572266" xlink:href="#DejaVuSans-69"/>
      <use x="214.355469" xlink:href="#DejaVuSans-73"/>
      <use x="266.455078" xlink:href="#DejaVuSans-69"/>
      <use x="294.238281" xlink:href="#DejaVuSans-6f"/>
      <use x="355.419922" xlink:href="#DejaVuSans-6e"/>
      <use x="418.798828" xlink:href="#DejaVuSans-20"/>
      <use x="450.585938" xlink:href="#DejaVuSans-70"/>
      <use x="514.0625" xlink:href="#DejaVuSans-72"/>
      <use x="555.144531" xlink:href="#DejaVuSans-6f"/>
      <use x="616.326172" xlink:href="#DejaVuSans-62"/>
      <use x="679.802734" xlink:href="#DejaVuSans-61"/>
      <use x="741.082031" xlink:href="#DejaVuSans-62"/>
      <use x="804.558594" xlink:href="#DejaVuSans-69"/>
      <use x="832.341797" xlink:href="#DejaVuSans-6c"/>
      <use x="860.125" xlink:href="#DejaVuSans-69"/>
      <use x="887.908203" xlink:href="#DejaVuSans-74"/>
      <use x="927.117188" xlink:href="#DejaVuSans-79"/>
     </g>
    </g>
   </g>
   <g id="line2d_23">
    <path clip-path="url(#p6ac965a6d1)" d="M 57.6 295.487032 
L 61.207273 295.457518 
L 64.814545 295.21632 
L 68.421818 292.808701 
L 72.029091 270.333799 
L 75.636364 110.966443 
L 79.243636 63.394918 
L 82.850909 60.398216 
L 86.458182 53.568 
L 90.065455 53.568 
L 93.672727 57.158139 
L 97.28 55.05873 
L 100.887273 53.568 
L 104.494545 53.568 
L 108.101818 53.568 
L 111.709091 54.095634 
L 115.316364 53.568 
L 118.923636 53.568 
L 122.530909 54.215386 
L 126.138182 53.568 
L 129.745455 56.871944 
L 133.352727 53.568 
L 136.96 53.568 
L 140.567273 53.568 
L 144.174545 53.568 
L 147.781818 53.568 
L 151.389091 58.860795 
L 154.996364 53.568 
L 158.603636 53.568 
L 162.210909 53.568 
L 165.818182 55.704181 
L 169.425455 53.568 
L 173.032727 57.665694 
L 176.64 53.924837 
L 180.247273 53.678317 
L 183.854545 54.60585 
L 187.461818 56.218268 
L 191.069091 53.568 
L 194.676364 53.568 
L 198.283636 54.181759 
L 201.890909 56.035858 
L 205.498182 53.568 
L 209.105455 54.17184 
L 212.712727 53.886371 
L 216.32 53.568 
L 219.927273 53.568 
L 223.534545 53.568 
L 227.141818 53.568 
L 230.749091 55.375166 
L 234.356364 57.911004 
L 237.963636 53.568 
L 241.570909 55.141468 
L 245.178182 53.568 
L 248.785455 53.568 
L 252.392727 53.568 
L 256 53.568 
L 259.607273 53.568 
L 263.214545 55.799499 
L 266.821818 53.568 
L 270.429091 53.568 
L 274.036364 56.532526 
L 277.643636 53.568 
L 281.250909 58.242197 
L 284.858182 55.028974 
L 288.465455 53.873065 
L 292.072727 53.568 
L 295.68 53.735653 
L 299.287273 55.690392 
L 302.894545 55.328475 
L 306.501818 53.948787 
L 310.109091 53.568 
L 313.716364 53.568 
L 317.323636 53.568 
L 320.930909 54.608511 
L 324.538182 54.075071 
L 328.145455 53.568 
L 331.752727 57.269666 
L 335.36 53.568 
L 338.967273 53.568 
L 342.574545 54.023783 
L 346.181818 53.568 
L 349.789091 53.568 
L 353.396364 55.740228 
L 357.003636 53.568 
L 360.610909 57.779156 
L 364.218182 53.880807 
L 367.825455 53.568 
L 371.432727 53.579612 
L 375.04 53.568 
L 378.647273 57.844717 
L 382.254545 53.568 
L 385.861818 53.568 
L 389.469091 53.985317 
L 393.076364 54.97067 
L 396.683636 53.568 
L 400.290909 57.542072 
L 403.898182 53.568 
L 407.505455 56.087388 
L 411.112727 53.568 
L 414.72 54.566175 
" style="fill:none;stroke:#000080;stroke-linecap:square;"/>
    <defs>
     <path d="M 0 1.5 
C 0.397805 1.5 0.77937 1.341951 1.06066 1.06066 
C 1.341951 0.77937 1.5 0.397805 1.5 0 
C 1.5 -0.397805 1.341951 -0.77937 1.06066 -1.06066 
C 0.77937 -1.341951 0.397805 -1.5 0 -1.5 
C -0.397805 -1.5 -0.77937 -1.341951 -1.06066 -1.06066 
C -1.341951 -0.77937 -1.5 -0.397805 -1.5 0 
C -1.5 0.397805 -1.341951 0.77937 -1.06066 1.06066 
C -0.77937 1.341951 -0.397805 1.5 0 1.5 
z
" id="mc38eaa061d" style="stroke:#000080;"/>
    </defs>
    <g clip-path="url(#p6ac965a6d1)">
     <use style="fill:#000080;stroke:#000080;" x="57.6" xlink:href="#mc38eaa061d" y="295.487032"/>
     <use style="fill:#000080;stroke:#000080;" x="61.207273" xlink:href="#mc38eaa061d" y="295.457518"/>
     <use style="fill:#000080;stroke:#000080;" x="64.814545" xlink:href="#mc38eaa061d" y="295.21632"/>
     <use style="fill:#000080;stroke:#000080;" x="68.421818" xlink:href="#mc38eaa061d" y="292.808701"/>
     <use style="fill:#000080;stroke:#000080;" x="72.029091" xlink:href="#mc38eaa061d" y="270.333799"/>
     <use style="fill:#000080;stroke:#000080;" x="75.636364" xlink:href="#mc38eaa061d" y="110.966443"/>
     <use style="fill:#000080;stroke:#000080;" x="79.243636" xlink:href="#mc38eaa061d" y="63.394918"/>
     <use style="fill:#000080;stroke:#000080;" x="82.850909" xlink:href="#mc38eaa061d" y="60.398216"/>
     <use style="fill:#000080;stroke:#000080;" x="86.458182" xlink:href="#mc38eaa061d" y="53.568"/>
     <use style="fill:#000080;stroke:#000080;" x="90.065455" xlink:href="#mc38eaa061d" y="53.568"/>
     <use style="fill:#000080;stroke:#000080;" x="93.672727" xlink:href="#mc38eaa061d" y="57.158139"/>
     <use style="fill:#000080;stroke:#000080;" x="97.28" xlink:href="#mc38eaa061d" y="55.05873"/>
     <use style="fill:#000080;stroke:#000080;" x="100.887273" xlink:href="#mc38eaa061d" y="53.568"/>
     <use style="fill:#000080;stroke:#000080;" x="104.494545" xlink:href="#mc38eaa061d" y="53.568"/>
     <use style="fill:#000080;stroke:#000080;" x="108.101818" xlink:href="#mc38eaa061d" y="53.568"/>
     <use style="fill:#000080;stroke:#000080;" x="111.709091" xlink:href="#mc38eaa061d" y="54.095634"/>
     <use style="fill:#000080;stroke:#000080;" x="115.316364" xlink:href="#mc38eaa061d" y="53.568"/>
     <use style="fill:#000080;stroke:#000080;" x="118.923636" xlink:href="#mc38eaa061d" y="53.568"/>
     <use style="fill:#000080;stroke:#000080;" x="122.530909" xlink:href="#mc38eaa061d" y="54.215386"/>
     <use style="fill:#000080;stroke:#000080;" x="126.138182" xlink:href="#mc38eaa061d" y="53.568"/>
     <use style="fill:#000080;stroke:#000080;" x="129.745455" xlink:href="#mc38eaa061d" y="56.871944"/>
     <use style="fill:#000080;stroke:#000080;" x="133.352727" xlink:href="#mc38eaa061d" y="53.568"/>
     <use style="fill:#000080;stroke:#000080;" x="136.96" xlink:href="#mc38eaa061d" y="53.568"/>
     <use style="fill:#000080;stroke:#000080;" x="140.567273" xlink:href="#mc38eaa061d" y="53.568"/>
     <use style="fill:#000080;stroke:#000080;" x="144.174545" xlink:href="#mc38eaa061d" y="53.568"/>
     <use style="fill:#000080;stroke:#000080;" x="147.781818" xlink:href="#mc38eaa061d" y="53.568"/>
     <use style="fill:#000080;stroke:#000080;" x="151.389091" xlink:href="#mc38eaa061d" y="58.860795"/>
     <use style="fill:#000080;stroke:#000080;" x="154.996364" xlink:href="#mc38eaa061d" y="53.568"/>
     <use style="fill:#000080;stroke:#000080;" x="158.603636" xlink:href="#mc38eaa061d" y="53.568"/>
     <use style="fill:#000080;stroke:#000080;" x="162.210909" xlink:href="#mc38eaa061d" y="53.568"/>
     <use style="fill:#000080;stroke:#000080;" x="165.818182" xlink:href="#mc38eaa061d" y="55.704181"/>
     <use style="fill:#000080;stroke:#000080;" x="169.425455" xlink:href="#mc38eaa061d" y="53.568"/>
     <use style="fill:#000080;stroke:#000080;" x="173.032727" xlink:href="#mc38eaa061d" y="57.665694"/>
     <use style="fill:#000080;stroke:#000080;" x="176.64" xlink:href="#mc38eaa061d" y="53.924837"/>
     <use style="fill:#000080;stroke:#000080;" x="180.247273" xlink:href="#mc38eaa061d" y="53.678317"/>
     <use style="fill:#000080;stroke:#000080;" x="183.854545" xlink:href="#mc38eaa061d" y="54.60585"/>
     <use style="fill:#000080;stroke:#000080;" x="187.461818" xlink:href="#mc38eaa061d" y="56.218268"/>
     <use style="fill:#000080;stroke:#000080;" x="191.069091" xlink:href="#mc38eaa061d" y="53.568"/>
     <use style="fill:#000080;stroke:#000080;" x="194.676364" xlink:href="#mc38eaa061d" y="53.568"/>
     <use style="fill:#000080;stroke:#000080;" x="198.283636" xlink:href="#mc38eaa061d" y="54.181759"/>
     <use style="fill:#000080;stroke:#000080;" x="201.890909" xlink:href="#mc38eaa061d" y="56.035858"/>
     <use style="fill:#000080;stroke:#000080;" x="205.498182" xlink:href="#mc38eaa061d" y="53.568"/>
     <use style="fill:#000080;stroke:#000080;" x="209.105455" xlink:href="#mc38eaa061d" y="54.17184"/>
     <use style="fill:#000080;stroke:#000080;" x="212.712727" xlink:href="#mc38eaa061d" y="53.886371"/>
     <use style="fill:#000080;stroke:#000080;" x="216.32" xlink:href="#mc38eaa061d" y="53.568"/>
     <use style="fill:#000080;stroke:#000080;" x="219.927273" xlink:href="#mc38eaa061d" y="53.568"/>
     <use style="fill:#000080;stroke:#000080;" x="223.534545" xlink:href="#mc38eaa061d" y="53.568"/>
     <use style="fill:#000080;stroke:#000080;" x="227.141818" xlink:href="#mc38eaa061d" y="53.568"/>
     <use style="fill:#000080;stroke:#000080;" x="230.749091" xlink:href="#mc38eaa061d" y="55.375166"/>
     <use style="fill:#000080;stroke:#000080;" x="234.356364" xlink:href="#mc38eaa061d" y="57.911004"/>
     <use style="fill:#000080;stroke:#000080;" x="237.963636" xlink:href="#mc38eaa061d" y="53.568"/>
     <use style="fill:#000080;stroke:#000080;" x="241.570909" xlink:href="#mc38eaa061d" y="55.141468"/>
     <use style="fill:#000080;stroke:#000080;" x="245.178182" xlink:href="#mc38eaa061d" y="53.568"/>
     <use style="fill:#000080;stroke:#000080;" x="248.785455" xlink:href="#mc38eaa061d" y="53.568"/>
     <use style="fill:#000080;stroke:#000080;" x="252.392727" xlink:href="#mc38eaa061d" y="53.568"/>
     <use style="fill:#000080;stroke:#000080;" x="256" xlink:href="#mc38eaa061d" y="53.568"/>
     <use style="fill:#000080;stroke:#000080;" x="259.607273" xlink:href="#mc38eaa061d" y="53.568"/>
     <use style="fill:#000080;stroke:#000080;" x="263.214545" xlink:href="#mc38eaa061d" y="55.799499"/>
     <use style="fill:#000080;stroke:#000080;" x="266.821818" xlink:href="#mc38eaa061d" y="53.568"/>
     <use style="fill:#000080;stroke:#000080;" x="270.429091" xlink:href="#mc38eaa061d" y="53.568"/>
     <use style="fill:#000080;stroke:#000080;" x="274.036364" xlink:href="#mc38eaa061d" y="56.532526"/>
     <use style="fill:#000080;stroke:#000080;" x="277.643636" xlink:href="#mc38eaa061d" y="53.568"/>
     <use style="fill:#000080;stroke:#000080;" x="281.250909" xlink:href="#mc38eaa061d" y="58.242197"/>
     <use style="fill:#000080;stroke:#000080;" x="284.858182" xlink:href="#mc38eaa061d" y="55.028974"/>
     <use style="fill:#000080;stroke:#000080;" x="288.465455" xlink:href="#mc38eaa061d" y="53.873065"/>
     <use style="fill:#000080;stroke:#000080;" x="292.072727" xlink:href="#mc38eaa061d" y="53.568"/>
     <use style="fill:#000080;stroke:#000080;" x="295.68" xlink:href="#mc38eaa061d" y="53.735653"/>
     <use style="fill:#000080;stroke:#000080;" x="299.287273" xlink:href="#mc38eaa061d" y="55.690392"/>
     <use style="fill:#000080;stroke:#000080;" x="302.894545" xlink:href="#mc38eaa061d" y="55.328475"/>
     <use style="fill:#000080;stroke:#000080;" x="306.501818" xlink:href="#mc38eaa061d" y="53.948787"/>
     <use style="fill:#000080;stroke:#000080;" x="310.109091" xlink:href="#mc38eaa061d" y="53.568"/>
     <use style="fill:#000080;stroke:#000080;" x="313.716364" xlink:href="#mc38eaa061d" y="53.568"/>
     <use style="fill:#000080;stroke:#000080;" x="317.323636" xlink:href="#mc38eaa061d" y="53.568"/>
     <use style="fill:#000080;stroke:#000080;" x="320.930909" xlink:href="#mc38eaa061d" y="54.608511"/>
     <use style="fill:#000080;stroke:#000080;" x="324.538182" xlink:href="#mc38eaa061d" y="54.075071"/>
     <use style="fill:#000080;stroke:#000080;" x="328.145455" xlink:href="#mc38eaa061d" y="53.568"/>
     <use style="fill:#000080;stroke:#000080;" x="331.752727" xlink:href="#mc38eaa061d" y="57.269666"/>
     <use style="fill:#000080;stroke:#000080;" x="335.36" xlink:href="#mc38eaa061d" y="53.568"/>
     <use style="fill:#000080;stroke:#000080;" x="338.967273" xlink:href="#mc38eaa061d" y="53.568"/>
     <use style="fill:#000080;stroke:#000080;" x="342.574545" xlink:href="#mc38eaa061d" y="54.023783"/>
     <use style="fill:#000080;stroke:#000080;" x="346.181818" xlink:href="#mc38eaa061d" y="53.568"/>
     <use style="fill:#000080;stroke:#000080;" x="349.789091" xlink:href="#mc38eaa061d" y="53.568"/>
     <use style="fill:#000080;stroke:#000080;" x="353.396364" xlink:href="#mc38eaa061d" y="55.740228"/>
     <use style="fill:#000080;stroke:#000080;" x="357.003636" xlink:href="#mc38eaa061d" y="53.568"/>
     <use style="fill:#000080;stroke:#000080;" x="360.610909" xlink:href="#mc38eaa061d" y="57.779156"/>
     <use style="fill:#000080;stroke:#000080;" x="364.218182" xlink:href="#mc38eaa061d" y="53.880807"/>
     <use style="fill:#000080;stroke:#000080;" x="367.825455" xlink:href="#mc38eaa061d" y="53.568"/>
     <use style="fill:#000080;stroke:#000080;" x="371.432727" xlink:href="#mc38eaa061d" y="53.579612"/>
     <use style="fill:#000080;stroke:#000080;" x="375.04" xlink:href="#mc38eaa061d" y="53.568"/>
     <use style="fill:#000080;stroke:#000080;" x="378.647273" xlink:href="#mc38eaa061d" y="57.844717"/>
     <use style="fill:#000080;stroke:#000080;" x="382.254545" xlink:href="#mc38eaa061d" y="53.568"/>
     <use style="fill:#000080;stroke:#000080;" x="385.861818" xlink:href="#mc38eaa061d" y="53.568"/>
     <use style="fill:#000080;stroke:#000080;" x="389.469091" xlink:href="#mc38eaa061d" y="53.985317"/>
     <use style="fill:#000080;stroke:#000080;" x="393.076364" xlink:href="#mc38eaa061d" y="54.97067"/>
     <use style="fill:#000080;stroke:#000080;" x="396.683636" xlink:href="#mc38eaa061d" y="53.568"/>
     <use style="fill:#000080;stroke:#000080;" x="400.290909" xlink:href="#mc38eaa061d" y="57.542072"/>
     <use style="fill:#000080;stroke:#000080;" x="403.898182" xlink:href="#mc38eaa061d" y="53.568"/>
     <use style="fill:#000080;stroke:#000080;" x="407.505455" xlink:href="#mc38eaa061d" y="56.087388"/>
     <use style="fill:#000080;stroke:#000080;" x="411.112727" xlink:href="#mc38eaa061d" y="53.568"/>
     <use style="fill:#000080;stroke:#000080;" x="414.72" xlink:href="#mc38eaa061d" y="54.566175"/>
    </g>
   </g>
   <g id="line2d_24">
    <path clip-path="url(#p6ac965a6d1)" d="M 57.6 295.488 
L 61.207273 295.482436 
L 64.814545 295.456308 
L 68.421818 295.393892 
L 72.029091 295.213417 
L 75.636364 294.729813 
L 79.243636 292.702013 
L 82.850909 287.302288 
L 86.458182 270.969573 
L 90.065455 226.969559 
L 93.672727 129.092777 
L 97.28 78.216098 
L 100.887273 59.462216 
L 104.494545 60.565385 
L 108.101818 55.743615 
L 111.709091 58.941839 
L 115.316364 53.568 
L 118.923636 57.089191 
L 122.530909 54.08378 
L 126.138182 57.71166 
L 129.745455 53.568 
L 133.352727 53.568 
L 136.96 56.073598 
L 140.567273 55.020748 
L 144.174545 57.557071 
L 147.781818 53.568 
L 151.389091 54.546337 
L 154.996364 53.568 
L 158.603636 53.568 
L 162.210909 54.536902 
L 165.818182 53.568 
L 169.425455 55.99086 
L 173.032727 53.568 
L 176.64 53.568 
L 180.247273 53.568 
L 183.854545 53.568 
L 187.461818 56.447611 
L 191.069091 54.68762 
L 194.676364 53.568 
L 198.283636 56.951295 
L 201.890909 53.568 
L 205.498182 53.568 
L 209.105455 54.734311 
L 212.712727 55.984086 
L 216.32 53.568 
L 219.927273 54.509081 
L 223.534545 53.568 
L 227.141818 53.948545 
L 230.749091 53.568 
L 234.356364 53.568 
L 237.963636 53.568 
L 241.570909 56.009005 
L 245.178182 53.568 
L 248.785455 53.568 
L 252.392727 53.568 
L 256 53.568 
L 259.607273 53.568 
L 263.214545 56.61357 
L 266.821818 59.566242 
L 270.429091 58.060755 
L 274.036364 53.568 
L 277.643636 55.555399 
L 281.250909 53.568 
L 284.858182 54.462874 
L 288.465455 53.568 
L 292.072727 53.568 
L 295.68 53.568 
L 299.287273 53.568 
L 302.894545 54.568836 
L 306.501818 53.568 
L 310.109091 53.568 
L 313.716364 53.568 
L 317.323636 53.568 
L 320.930909 55.354361 
L 324.538182 55.766839 
L 328.145455 53.568 
L 331.752727 53.568 
L 335.36 53.568 
L 338.967273 54.98567 
L 342.574545 53.568 
L 346.181818 53.568 
L 349.789091 53.568 
L 353.396364 53.827342 
L 357.003636 53.568 
L 360.610909 57.384096 
L 364.218182 54.819952 
L 367.825455 57.538685 
L 371.432727 56.921297 
L 375.04 53.568 
L 378.647273 53.568 
L 382.254545 53.568 
L 385.861818 55.201949 
L 389.469091 53.568 
L 393.076364 54.114746 
L 396.683636 53.568 
L 400.290909 53.568 
L 403.898182 53.568 
L 407.505455 56.700663 
L 411.112727 53.568 
L 414.72 56.083517 
" style="fill:none;stroke:#00d4ff;stroke-linecap:square;"/>
    <defs>
     <path d="M 0 1.5 
C 0.397805 1.5 0.77937 1.341951 1.06066 1.06066 
C 1.341951 0.77937 1.5 0.397805 1.5 0 
C 1.5 -0.397805 1.341951 -0.77937 1.06066 -1.06066 
C 0.77937 -1.341951 0.397805 -1.5 0 -1.5 
C -0.397805 -1.5 -0.77937 -1.341951 -1.06066 -1.06066 
C -1.341951 -0.77937 -1.5 -0.397805 -1.5 0 
C -1.5 0.397805 -1.341951 0.77937 -1.06066 1.06066 
C -0.77937 1.341951 -0.397805 1.5 0 1.5 
z
" id="mb00e93c2e2" style="stroke:#00d4ff;"/>
    </defs>
    <g clip-path="url(#p6ac965a6d1)">
     <use style="fill:#00d4ff;stroke:#00d4ff;" x="57.6" xlink:href="#mb00e93c2e2" y="295.488"/>
     <use style="fill:#00d4ff;stroke:#00d4ff;" x="61.207273" xlink:href="#mb00e93c2e2" y="295.482436"/>
     <use style="fill:#00d4ff;stroke:#00d4ff;" x="64.814545" xlink:href="#mb00e93c2e2" y="295.456308"/>
     <use style="fill:#00d4ff;stroke:#00d4ff;" x="68.421818" xlink:href="#mb00e93c2e2" y="295.393892"/>
     <use style="fill:#00d4ff;stroke:#00d4ff;" x="72.029091" xlink:href="#mb00e93c2e2" y="295.213417"/>
     <use style="fill:#00d4ff;stroke:#00d4ff;" x="75.636364" xlink:href="#mb00e93c2e2" y="294.729813"/>
     <use style="fill:#00d4ff;stroke:#00d4ff;" x="79.243636" xlink:href="#mb00e93c2e2" y="292.702013"/>
     <use style="fill:#00d4ff;stroke:#00d4ff;" x="82.850909" xlink:href="#mb00e93c2e2" y="287.302288"/>
     <use style="fill:#00d4ff;stroke:#00d4ff;" x="86.458182" xlink:href="#mb00e93c2e2" y="270.969573"/>
     <use style="fill:#00d4ff;stroke:#00d4ff;" x="90.065455" xlink:href="#mb00e93c2e2" y="226.969559"/>
     <use style="fill:#00d4ff;stroke:#00d4ff;" x="93.672727" xlink:href="#mb00e93c2e2" y="129.092777"/>
     <use style="fill:#00d4ff;stroke:#00d4ff;" x="97.28" xlink:href="#mb00e93c2e2" y="78.216098"/>
     <use style="fill:#00d4ff;stroke:#00d4ff;" x="100.887273" xlink:href="#mb00e93c2e2" y="59.462216"/>
     <use style="fill:#00d4ff;stroke:#00d4ff;" x="104.494545" xlink:href="#mb00e93c2e2" y="60.565385"/>
     <use style="fill:#00d4ff;stroke:#00d4ff;" x="108.101818" xlink:href="#mb00e93c2e2" y="55.743615"/>
     <use style="fill:#00d4ff;stroke:#00d4ff;" x="111.709091" xlink:href="#mb00e93c2e2" y="58.941839"/>
     <use style="fill:#00d4ff;stroke:#00d4ff;" x="115.316364" xlink:href="#mb00e93c2e2" y="53.568"/>
     <use style="fill:#00d4ff;stroke:#00d4ff;" x="118.923636" xlink:href="#mb00e93c2e2" y="57.089191"/>
     <use style="fill:#00d4ff;stroke:#00d4ff;" x="122.530909" xlink:href="#mb00e93c2e2" y="54.08378"/>
     <use style="fill:#00d4ff;stroke:#00d4ff;" x="126.138182" xlink:href="#mb00e93c2e2" y="57.71166"/>
     <use style="fill:#00d4ff;stroke:#00d4ff;" x="129.745455" xlink:href="#mb00e93c2e2" y="53.568"/>
     <use style="fill:#00d4ff;stroke:#00d4ff;" x="133.352727" xlink:href="#mb00e93c2e2" y="53.568"/>
     <use style="fill:#00d4ff;stroke:#00d4ff;" x="136.96" xlink:href="#mb00e93c2e2" y="56.073598"/>
     <use style="fill:#00d4ff;stroke:#00d4ff;" x="140.567273" xlink:href="#mb00e93c2e2" y="55.020748"/>
     <use style="fill:#00d4ff;stroke:#00d4ff;" x="144.174545" xlink:href="#mb00e93c2e2" y="57.557071"/>
     <use style="fill:#00d4ff;stroke:#00d4ff;" x="147.781818" xlink:href="#mb00e93c2e2" y="53.568"/>
     <use style="fill:#00d4ff;stroke:#00d4ff;" x="151.389091" xlink:href="#mb00e93c2e2" y="54.546337"/>
     <use style="fill:#00d4ff;stroke:#00d4ff;" x="154.996364" xlink:href="#mb00e93c2e2" y="53.568"/>
     <use style="fill:#00d4ff;stroke:#00d4ff;" x="158.603636" xlink:href="#mb00e93c2e2" y="53.568"/>
     <use style="fill:#00d4ff;stroke:#00d4ff;" x="162.210909" xlink:href="#mb00e93c2e2" y="54.536902"/>
     <use style="fill:#00d4ff;stroke:#00d4ff;" x="165.818182" xlink:href="#mb00e93c2e2" y="53.568"/>
     <use style="fill:#00d4ff;stroke:#00d4ff;" x="169.425455" xlink:href="#mb00e93c2e2" y="55.99086"/>
     <use style="fill:#00d4ff;stroke:#00d4ff;" x="173.032727" xlink:href="#mb00e93c2e2" y="53.568"/>
     <use style="fill:#00d4ff;stroke:#00d4ff;" x="176.64" xlink:href="#mb00e93c2e2" y="53.568"/>
     <use style="fill:#00d4ff;stroke:#00d4ff;" x="180.247273" xlink:href="#mb00e93c2e2" y="53.568"/>
     <use style="fill:#00d4ff;stroke:#00d4ff;" x="183.854545" xlink:href="#mb00e93c2e2" y="53.568"/>
     <use style="fill:#00d4ff;stroke:#00d4ff;" x="187.461818" xlink:href="#mb00e93c2e2" y="56.447611"/>
     <use style="fill:#00d4ff;stroke:#00d4ff;" x="191.069091" xlink:href="#mb00e93c2e2" y="54.68762"/>
     <use style="fill:#00d4ff;stroke:#00d4ff;" x="194.676364" xlink:href="#mb00e93c2e2" y="53.568"/>
     <use style="fill:#00d4ff;stroke:#00d4ff;" x="198.283636" xlink:href="#mb00e93c2e2" y="56.951295"/>
     <use style="fill:#00d4ff;stroke:#00d4ff;" x="201.890909" xlink:href="#mb00e93c2e2" y="53.568"/>
     <use style="fill:#00d4ff;stroke:#00d4ff;" x="205.498182" xlink:href="#mb00e93c2e2" y="53.568"/>
     <use style="fill:#00d4ff;stroke:#00d4ff;" x="209.105455" xlink:href="#mb00e93c2e2" y="54.734311"/>
     <use style="fill:#00d4ff;stroke:#00d4ff;" x="212.712727" xlink:href="#mb00e93c2e2" y="55.984086"/>
     <use style="fill:#00d4ff;stroke:#00d4ff;" x="216.32" xlink:href="#mb00e93c2e2" y="53.568"/>
     <use style="fill:#00d4ff;stroke:#00d4ff;" x="219.927273" xlink:href="#mb00e93c2e2" y="54.509081"/>
     <use style="fill:#00d4ff;stroke:#00d4ff;" x="223.534545" xlink:href="#mb00e93c2e2" y="53.568"/>
     <use style="fill:#00d4ff;stroke:#00d4ff;" x="227.141818" xlink:href="#mb00e93c2e2" y="53.948545"/>
     <use style="fill:#00d4ff;stroke:#00d4ff;" x="230.749091" xlink:href="#mb00e93c2e2" y="53.568"/>
     <use style="fill:#00d4ff;stroke:#00d4ff;" x="234.356364" xlink:href="#mb00e93c2e2" y="53.568"/>
     <use style="fill:#00d4ff;stroke:#00d4ff;" x="237.963636" xlink:href="#mb00e93c2e2" y="53.568"/>
     <use style="fill:#00d4ff;stroke:#00d4ff;" x="241.570909" xlink:href="#mb00e93c2e2" y="56.009005"/>
     <use style="fill:#00d4ff;stroke:#00d4ff;" x="245.178182" xlink:href="#mb00e93c2e2" y="53.568"/>
     <use style="fill:#00d4ff;stroke:#00d4ff;" x="248.785455" xlink:href="#mb00e93c2e2" y="53.568"/>
     <use style="fill:#00d4ff;stroke:#00d4ff;" x="252.392727" xlink:href="#mb00e93c2e2" y="53.568"/>
     <use style="fill:#00d4ff;stroke:#00d4ff;" x="256" xlink:href="#mb00e93c2e2" y="53.568"/>
     <use style="fill:#00d4ff;stroke:#00d4ff;" x="259.607273" xlink:href="#mb00e93c2e2" y="53.568"/>
     <use style="fill:#00d4ff;stroke:#00d4ff;" x="263.214545" xlink:href="#mb00e93c2e2" y="56.61357"/>
     <use style="fill:#00d4ff;stroke:#00d4ff;" x="266.821818" xlink:href="#mb00e93c2e2" y="59.566242"/>
     <use style="fill:#00d4ff;stroke:#00d4ff;" x="270.429091" xlink:href="#mb00e93c2e2" y="58.060755"/>
     <use style="fill:#00d4ff;stroke:#00d4ff;" x="274.036364" xlink:href="#mb00e93c2e2" y="53.568"/>
     <use style="fill:#00d4ff;stroke:#00d4ff;" x="277.643636" xlink:href="#mb00e93c2e2" y="55.555399"/>
     <use style="fill:#00d4ff;stroke:#00d4ff;" x="281.250909" xlink:href="#mb00e93c2e2" y="53.568"/>
     <use style="fill:#00d4ff;stroke:#00d4ff;" x="284.858182" xlink:href="#mb00e93c2e2" y="54.462874"/>
     <use style="fill:#00d4ff;stroke:#00d4ff;" x="288.465455" xlink:href="#mb00e93c2e2" y="53.568"/>
     <use style="fill:#00d4ff;stroke:#00d4ff;" x="292.072727" xlink:href="#mb00e93c2e2" y="53.568"/>
     <use style="fill:#00d4ff;stroke:#00d4ff;" x="295.68" xlink:href="#mb00e93c2e2" y="53.568"/>
     <use style="fill:#00d4ff;stroke:#00d4ff;" x="299.287273" xlink:href="#mb00e93c2e2" y="53.568"/>
     <use style="fill:#00d4ff;stroke:#00d4ff;" x="302.894545" xlink:href="#mb00e93c2e2" y="54.568836"/>
     <use style="fill:#00d4ff;stroke:#00d4ff;" x="306.501818" xlink:href="#mb00e93c2e2" y="53.568"/>
     <use style="fill:#00d4ff;stroke:#00d4ff;" x="310.109091" xlink:href="#mb00e93c2e2" y="53.568"/>
     <use style="fill:#00d4ff;stroke:#00d4ff;" x="313.716364" xlink:href="#mb00e93c2e2" y="53.568"/>
     <use style="fill:#00d4ff;stroke:#00d4ff;" x="317.323636" xlink:href="#mb00e93c2e2" y="53.568"/>
     <use style="fill:#00d4ff;stroke:#00d4ff;" x="320.930909" xlink:href="#mb00e93c2e2" y="55.354361"/>
     <use style="fill:#00d4ff;stroke:#00d4ff;" x="324.538182" xlink:href="#mb00e93c2e2" y="55.766839"/>
     <use style="fill:#00d4ff;stroke:#00d4ff;" x="328.145455" xlink:href="#mb00e93c2e2" y="53.568"/>
     <use style="fill:#00d4ff;stroke:#00d4ff;" x="331.752727" xlink:href="#mb00e93c2e2" y="53.568"/>
     <use style="fill:#00d4ff;stroke:#00d4ff;" x="335.36" xlink:href="#mb00e93c2e2" y="53.568"/>
     <use style="fill:#00d4ff;stroke:#00d4ff;" x="338.967273" xlink:href="#mb00e93c2e2" y="54.98567"/>
     <use style="fill:#00d4ff;stroke:#00d4ff;" x="342.574545" xlink:href="#mb00e93c2e2" y="53.568"/>
     <use style="fill:#00d4ff;stroke:#00d4ff;" x="346.181818" xlink:href="#mb00e93c2e2" y="53.568"/>
     <use style="fill:#00d4ff;stroke:#00d4ff;" x="349.789091" xlink:href="#mb00e93c2e2" y="53.568"/>
     <use style="fill:#00d4ff;stroke:#00d4ff;" x="353.396364" xlink:href="#mb00e93c2e2" y="53.827342"/>
     <use style="fill:#00d4ff;stroke:#00d4ff;" x="357.003636" xlink:href="#mb00e93c2e2" y="53.568"/>
     <use style="fill:#00d4ff;stroke:#00d4ff;" x="360.610909" xlink:href="#mb00e93c2e2" y="57.384096"/>
     <use style="fill:#00d4ff;stroke:#00d4ff;" x="364.218182" xlink:href="#mb00e93c2e2" y="54.819952"/>
     <use style="fill:#00d4ff;stroke:#00d4ff;" x="367.825455" xlink:href="#mb00e93c2e2" y="57.538685"/>
     <use style="fill:#00d4ff;stroke:#00d4ff;" x="371.432727" xlink:href="#mb00e93c2e2" y="56.921297"/>
     <use style="fill:#00d4ff;stroke:#00d4ff;" x="375.04" xlink:href="#mb00e93c2e2" y="53.568"/>
     <use style="fill:#00d4ff;stroke:#00d4ff;" x="378.647273" xlink:href="#mb00e93c2e2" y="53.568"/>
     <use style="fill:#00d4ff;stroke:#00d4ff;" x="382.254545" xlink:href="#mb00e93c2e2" y="53.568"/>
     <use style="fill:#00d4ff;stroke:#00d4ff;" x="385.861818" xlink:href="#mb00e93c2e2" y="55.201949"/>
     <use style="fill:#00d4ff;stroke:#00d4ff;" x="389.469091" xlink:href="#mb00e93c2e2" y="53.568"/>
     <use style="fill:#00d4ff;stroke:#00d4ff;" x="393.076364" xlink:href="#mb00e93c2e2" y="54.114746"/>
     <use style="fill:#00d4ff;stroke:#00d4ff;" x="396.683636" xlink:href="#mb00e93c2e2" y="53.568"/>
     <use style="fill:#00d4ff;stroke:#00d4ff;" x="400.290909" xlink:href="#mb00e93c2e2" y="53.568"/>
     <use style="fill:#00d4ff;stroke:#00d4ff;" x="403.898182" xlink:href="#mb00e93c2e2" y="53.568"/>
     <use style="fill:#00d4ff;stroke:#00d4ff;" x="407.505455" xlink:href="#mb00e93c2e2" y="56.700663"/>
     <use style="fill:#00d4ff;stroke:#00d4ff;" x="411.112727" xlink:href="#mb00e93c2e2" y="53.568"/>
     <use style="fill:#00d4ff;stroke:#00d4ff;" x="414.72" xlink:href="#mb00e93c2e2" y="56.083517"/>
    </g>
   </g>
   <g id="line2d_25">
    <path clip-path="url(#p6ac965a6d1)" d="M 57.6 295.487758 
L 61.207273 295.484613 
L 64.814545 295.480742 
L 68.421818 295.474452 
L 72.029091 295.46284 
L 75.636364 295.435019 
L 79.243636 295.401633 
L 82.850909 295.329782 
L 86.458182 295.245593 
L 90.065455 295.077456 
L 93.672727 294.785697 
L 97.28 294.41628 
L 100.887273 293.33561 
L 104.494545 291.652309 
L 108.101818 288.353203 
L 111.709091 282.69583 
L 115.316364 271.968474 
L 118.923636 261.558763 
L 122.530909 231.338691 
L 126.138182 176.519632 
L 129.745455 124.903394 
L 133.352727 106.972776 
L 136.96 76.77859 
L 140.567273 68.774079 
L 144.174545 60.058314 
L 147.781818 62.099178 
L 151.389091 54.904867 
L 154.996364 58.976434 
L 158.603636 54.130713 
L 162.210909 62.103774 
L 165.818182 56.608974 
L 169.425455 53.568 
L 173.032727 54.276109 
L 176.64 60.7761 
L 180.247273 57.8752 
L 183.854545 55.627008 
L 187.461818 53.67493 
L 191.069091 53.568 
L 194.676364 53.568 
L 198.283636 53.568 
L 201.890909 55.188159 
L 205.498182 53.568 
L 209.105455 55.835062 
L 212.712727 54.067329 
L 216.32 56.92299 
L 219.927273 54.054749 
L 223.534545 55.925057 
L 227.141818 57.131528 
L 230.749091 56.354713 
L 234.356364 58.031724 
L 237.963636 62.492303 
L 241.570909 66.021236 
L 245.178182 64.340838 
L 248.785455 63.300326 
L 252.392727 65.460942 
L 256 53.568 
L 259.607273 64.046901 
L 263.214545 61.811047 
L 266.821818 61.580736 
L 270.429091 67.198676 
L 274.036364 62.8039 
L 277.643636 64.608647 
L 281.250909 56.254798 
L 284.858182 56.793077 
L 288.465455 60.496679 
L 292.072727 59.022641 
L 295.68 64.0619 
L 299.287273 60.54337 
L 302.894545 60.273384 
L 306.501818 55.458146 
L 310.109091 60.079361 
L 313.716364 56.61478 
L 317.323636 61.092052 
L 320.930909 64.799524 
L 324.538182 57.658678 
L 328.145455 55.754985 
L 331.752727 65.444007 
L 335.36 57.860684 
L 338.967273 57.369822 
L 342.574545 55.164451 
L 346.181818 55.046392 
L 349.789091 59.243033 
L 353.396364 55.261704 
L 357.003636 55.270897 
L 360.610909 55.712165 
L 364.218182 57.707063 
L 367.825455 57.236764 
L 371.432727 59.603257 
L 375.04 55.539916 
L 378.647273 56.856219 
L 382.254545 54.834952 
L 385.861818 53.568 
L 389.469091 59.321416 
L 393.076364 59.533341 
L 396.683636 55.393552 
L 400.290909 53.568 
L 403.898182 53.568 
L 407.505455 53.568 
L 411.112727 54.171356 
L 414.72 57.324099 
" style="fill:none;stroke:#ffe600;stroke-linecap:square;"/>
    <defs>
     <path d="M 0 1.5 
C 0.397805 1.5 0.77937 1.341951 1.06066 1.06066 
C 1.341951 0.77937 1.5 0.397805 1.5 0 
C 1.5 -0.397805 1.341951 -0.77937 1.06066 -1.06066 
C 0.77937 -1.341951 0.397805 -1.5 0 -1.5 
C -0.397805 -1.5 -0.77937 -1.341951 -1.06066 -1.06066 
C -1.341951 -0.77937 -1.5 -0.397805 -1.5 0 
C -1.5 0.397805 -1.341951 0.77937 -1.06066 1.06066 
C -0.77937 1.341951 -0.397805 1.5 0 1.5 
z
" id="m9c99bca502" style="stroke:#ffe600;"/>
    </defs>
    <g clip-path="url(#p6ac965a6d1)">
     <use style="fill:#ffe600;stroke:#ffe600;" x="57.6" xlink:href="#m9c99bca502" y="295.487758"/>
     <use style="fill:#ffe600;stroke:#ffe600;" x="61.207273" xlink:href="#m9c99bca502" y="295.484613"/>
     <use style="fill:#ffe600;stroke:#ffe600;" x="64.814545" xlink:href="#m9c99bca502" y="295.480742"/>
     <use style="fill:#ffe600;stroke:#ffe600;" x="68.421818" xlink:href="#m9c99bca502" y="295.474452"/>
     <use style="fill:#ffe600;stroke:#ffe600;" x="72.029091" xlink:href="#m9c99bca502" y="295.46284"/>
     <use style="fill:#ffe600;stroke:#ffe600;" x="75.636364" xlink:href="#m9c99bca502" y="295.435019"/>
     <use style="fill:#ffe600;stroke:#ffe600;" x="79.243636" xlink:href="#m9c99bca502" y="295.401633"/>
     <use style="fill:#ffe600;stroke:#ffe600;" x="82.850909" xlink:href="#m9c99bca502" y="295.329782"/>
     <use style="fill:#ffe600;stroke:#ffe600;" x="86.458182" xlink:href="#m9c99bca502" y="295.245593"/>
     <use style="fill:#ffe600;stroke:#ffe600;" x="90.065455" xlink:href="#m9c99bca502" y="295.077456"/>
     <use style="fill:#ffe600;stroke:#ffe600;" x="93.672727" xlink:href="#m9c99bca502" y="294.785697"/>
     <use style="fill:#ffe600;stroke:#ffe600;" x="97.28" xlink:href="#m9c99bca502" y="294.41628"/>
     <use style="fill:#ffe600;stroke:#ffe600;" x="100.887273" xlink:href="#m9c99bca502" y="293.33561"/>
     <use style="fill:#ffe600;stroke:#ffe600;" x="104.494545" xlink:href="#m9c99bca502" y="291.652309"/>
     <use style="fill:#ffe600;stroke:#ffe600;" x="108.101818" xlink:href="#m9c99bca502" y="288.353203"/>
     <use style="fill:#ffe600;stroke:#ffe600;" x="111.709091" xlink:href="#m9c99bca502" y="282.69583"/>
     <use style="fill:#ffe600;stroke:#ffe600;" x="115.316364" xlink:href="#m9c99bca502" y="271.968474"/>
     <use style="fill:#ffe600;stroke:#ffe600;" x="118.923636" xlink:href="#m9c99bca502" y="261.558763"/>
     <use style="fill:#ffe600;stroke:#ffe600;" x="122.530909" xlink:href="#m9c99bca502" y="231.338691"/>
     <use style="fill:#ffe600;stroke:#ffe600;" x="126.138182" xlink:href="#m9c99bca502" y="176.519632"/>
     <use style="fill:#ffe600;stroke:#ffe600;" x="129.745455" xlink:href="#m9c99bca502" y="124.903394"/>
     <use style="fill:#ffe600;stroke:#ffe600;" x="133.352727" xlink:href="#m9c99bca502" y="106.972776"/>
     <use style="fill:#ffe600;stroke:#ffe600;" x="136.96" xlink:href="#m9c99bca502" y="76.77859"/>
     <use style="fill:#ffe600;stroke:#ffe600;" x="140.567273" xlink:href="#m9c99bca502" y="68.774079"/>
     <use style="fill:#ffe600;stroke:#ffe600;" x="144.174545" xlink:href="#m9c99bca502" y="60.058314"/>
     <use style="fill:#ffe600;stroke:#ffe600;" x="147.781818" xlink:href="#m9c99bca502" y="62.099178"/>
     <use style="fill:#ffe600;stroke:#ffe600;" x="151.389091" xlink:href="#m9c99bca502" y="54.904867"/>
     <use style="fill:#ffe600;stroke:#ffe600;" x="154.996364" xlink:href="#m9c99bca502" y="58.976434"/>
     <use style="fill:#ffe600;stroke:#ffe600;" x="158.603636" xlink:href="#m9c99bca502" y="54.130713"/>
     <use style="fill:#ffe600;stroke:#ffe600;" x="162.210909" xlink:href="#m9c99bca502" y="62.103774"/>
     <use style="fill:#ffe600;stroke:#ffe600;" x="165.818182" xlink:href="#m9c99bca502" y="56.608974"/>
     <use style="fill:#ffe600;stroke:#ffe600;" x="169.425455" xlink:href="#m9c99bca502" y="53.568"/>
     <use style="fill:#ffe600;stroke:#ffe600;" x="173.032727" xlink:href="#m9c99bca502" y="54.276109"/>
     <use style="fill:#ffe600;stroke:#ffe600;" x="176.64" xlink:href="#m9c99bca502" y="60.7761"/>
     <use style="fill:#ffe600;stroke:#ffe600;" x="180.247273" xlink:href="#m9c99bca502" y="57.8752"/>
     <use style="fill:#ffe600;stroke:#ffe600;" x="183.854545" xlink:href="#m9c99bca502" y="55.627008"/>
     <use style="fill:#ffe600;stroke:#ffe600;" x="187.461818" xlink:href="#m9c99bca502" y="53.67493"/>
     <use style="fill:#ffe600;stroke:#ffe600;" x="191.069091" xlink:href="#m9c99bca502" y="53.568"/>
     <use style="fill:#ffe600;stroke:#ffe600;" x="194.676364" xlink:href="#m9c99bca502" y="53.568"/>
     <use style="fill:#ffe600;stroke:#ffe600;" x="198.283636" xlink:href="#m9c99bca502" y="53.568"/>
     <use style="fill:#ffe600;stroke:#ffe600;" x="201.890909" xlink:href="#m9c99bca502" y="55.188159"/>
     <use style="fill:#ffe600;stroke:#ffe600;" x="205.498182" xlink:href="#m9c99bca502" y="53.568"/>
     <use style="fill:#ffe600;stroke:#ffe600;" x="209.105455" xlink:href="#m9c99bca502" y="55.835062"/>
     <use style="fill:#ffe600;stroke:#ffe600;" x="212.712727" xlink:href="#m9c99bca502" y="54.067329"/>
     <use style="fill:#ffe600;stroke:#ffe600;" x="216.32" xlink:href="#m9c99bca502" y="56.92299"/>
     <use style="fill:#ffe600;stroke:#ffe600;" x="219.927273" xlink:href="#m9c99bca502" y="54.054749"/>
     <use style="fill:#ffe600;stroke:#ffe600;" x="223.534545" xlink:href="#m9c99bca502" y="55.925057"/>
     <use style="fill:#ffe600;stroke:#ffe600;" x="227.141818" xlink:href="#m9c99bca502" y="57.131528"/>
     <use style="fill:#ffe600;stroke:#ffe600;" x="230.749091" xlink:href="#m9c99bca502" y="56.354713"/>
     <use style="fill:#ffe600;stroke:#ffe600;" x="234.356364" xlink:href="#m9c99bca502" y="58.031724"/>
     <use style="fill:#ffe600;stroke:#ffe600;" x="237.963636" xlink:href="#m9c99bca502" y="62.492303"/>
     <use style="fill:#ffe600;stroke:#ffe600;" x="241.570909" xlink:href="#m9c99bca502" y="66.021236"/>
     <use style="fill:#ffe600;stroke:#ffe600;" x="245.178182" xlink:href="#m9c99bca502" y="64.340838"/>
     <use style="fill:#ffe600;stroke:#ffe600;" x="248.785455" xlink:href="#m9c99bca502" y="63.300326"/>
     <use style="fill:#ffe600;stroke:#ffe600;" x="252.392727" xlink:href="#m9c99bca502" y="65.460942"/>
     <use style="fill:#ffe600;stroke:#ffe600;" x="256" xlink:href="#m9c99bca502" y="53.568"/>
     <use style="fill:#ffe600;stroke:#ffe600;" x="259.607273" xlink:href="#m9c99bca502" y="64.046901"/>
     <use style="fill:#ffe600;stroke:#ffe600;" x="263.214545" xlink:href="#m9c99bca502" y="61.811047"/>
     <use style="fill:#ffe600;stroke:#ffe600;" x="266.821818" xlink:href="#m9c99bca502" y="61.580736"/>
     <use style="fill:#ffe600;stroke:#ffe600;" x="270.429091" xlink:href="#m9c99bca502" y="67.198676"/>
     <use style="fill:#ffe600;stroke:#ffe600;" x="274.036364" xlink:href="#m9c99bca502" y="62.8039"/>
     <use style="fill:#ffe600;stroke:#ffe600;" x="277.643636" xlink:href="#m9c99bca502" y="64.608647"/>
     <use style="fill:#ffe600;stroke:#ffe600;" x="281.250909" xlink:href="#m9c99bca502" y="56.254798"/>
     <use style="fill:#ffe600;stroke:#ffe600;" x="284.858182" xlink:href="#m9c99bca502" y="56.793077"/>
     <use style="fill:#ffe600;stroke:#ffe600;" x="288.465455" xlink:href="#m9c99bca502" y="60.496679"/>
     <use style="fill:#ffe600;stroke:#ffe600;" x="292.072727" xlink:href="#m9c99bca502" y="59.022641"/>
     <use style="fill:#ffe600;stroke:#ffe600;" x="295.68" xlink:href="#m9c99bca502" y="64.0619"/>
     <use style="fill:#ffe600;stroke:#ffe600;" x="299.287273" xlink:href="#m9c99bca502" y="60.54337"/>
     <use style="fill:#ffe600;stroke:#ffe600;" x="302.894545" xlink:href="#m9c99bca502" y="60.273384"/>
     <use style="fill:#ffe600;stroke:#ffe600;" x="306.501818" xlink:href="#m9c99bca502" y="55.458146"/>
     <use style="fill:#ffe600;stroke:#ffe600;" x="310.109091" xlink:href="#m9c99bca502" y="60.079361"/>
     <use style="fill:#ffe600;stroke:#ffe600;" x="313.716364" xlink:href="#m9c99bca502" y="56.61478"/>
     <use style="fill:#ffe600;stroke:#ffe600;" x="317.323636" xlink:href="#m9c99bca502" y="61.092052"/>
     <use style="fill:#ffe600;stroke:#ffe600;" x="320.930909" xlink:href="#m9c99bca502" y="64.799524"/>
     <use style="fill:#ffe600;stroke:#ffe600;" x="324.538182" xlink:href="#m9c99bca502" y="57.658678"/>
     <use style="fill:#ffe600;stroke:#ffe600;" x="328.145455" xlink:href="#m9c99bca502" y="55.754985"/>
     <use style="fill:#ffe600;stroke:#ffe600;" x="331.752727" xlink:href="#m9c99bca502" y="65.444007"/>
     <use style="fill:#ffe600;stroke:#ffe600;" x="335.36" xlink:href="#m9c99bca502" y="57.860684"/>
     <use style="fill:#ffe600;stroke:#ffe600;" x="338.967273" xlink:href="#m9c99bca502" y="57.369822"/>
     <use style="fill:#ffe600;stroke:#ffe600;" x="342.574545" xlink:href="#m9c99bca502" y="55.164451"/>
     <use style="fill:#ffe600;stroke:#ffe600;" x="346.181818" xlink:href="#m9c99bca502" y="55.046392"/>
     <use style="fill:#ffe600;stroke:#ffe600;" x="349.789091" xlink:href="#m9c99bca502" y="59.243033"/>
     <use style="fill:#ffe600;stroke:#ffe600;" x="353.396364" xlink:href="#m9c99bca502" y="55.261704"/>
     <use style="fill:#ffe600;stroke:#ffe600;" x="357.003636" xlink:href="#m9c99bca502" y="55.270897"/>
     <use style="fill:#ffe600;stroke:#ffe600;" x="360.610909" xlink:href="#m9c99bca502" y="55.712165"/>
     <use style="fill:#ffe600;stroke:#ffe600;" x="364.218182" xlink:href="#m9c99bca502" y="57.707063"/>
     <use style="fill:#ffe600;stroke:#ffe600;" x="367.825455" xlink:href="#m9c99bca502" y="57.236764"/>
     <use style="fill:#ffe600;stroke:#ffe600;" x="371.432727" xlink:href="#m9c99bca502" y="59.603257"/>
     <use style="fill:#ffe600;stroke:#ffe600;" x="375.04" xlink:href="#m9c99bca502" y="55.539916"/>
     <use style="fill:#ffe600;stroke:#ffe600;" x="378.647273" xlink:href="#m9c99bca502" y="56.856219"/>
     <use style="fill:#ffe600;stroke:#ffe600;" x="382.254545" xlink:href="#m9c99bca502" y="54.834952"/>
     <use style="fill:#ffe600;stroke:#ffe600;" x="385.861818" xlink:href="#m9c99bca502" y="53.568"/>
     <use style="fill:#ffe600;stroke:#ffe600;" x="389.469091" xlink:href="#m9c99bca502" y="59.321416"/>
     <use style="fill:#ffe600;stroke:#ffe600;" x="393.076364" xlink:href="#m9c99bca502" y="59.533341"/>
     <use style="fill:#ffe600;stroke:#ffe600;" x="396.683636" xlink:href="#m9c99bca502" y="55.393552"/>
     <use style="fill:#ffe600;stroke:#ffe600;" x="400.290909" xlink:href="#m9c99bca502" y="53.568"/>
     <use style="fill:#ffe600;stroke:#ffe600;" x="403.898182" xlink:href="#m9c99bca502" y="53.568"/>
     <use style="fill:#ffe600;stroke:#ffe600;" x="407.505455" xlink:href="#m9c99bca502" y="53.568"/>
     <use style="fill:#ffe600;stroke:#ffe600;" x="411.112727" xlink:href="#m9c99bca502" y="54.171356"/>
     <use style="fill:#ffe600;stroke:#ffe600;" x="414.72" xlink:href="#m9c99bca502" y="57.324099"/>
    </g>
   </g>
   <g id="line2d_26">
    <path clip-path="url(#p6ac965a6d1)" d="M 57.6 295.487758 
L 61.207273 295.486548 
L 64.814545 295.485097 
L 68.421818 295.482678 
L 72.029091 295.48292 
L 75.636364 295.478323 
L 79.243636 295.474452 
L 82.850909 295.471791 
L 86.458182 295.461147 
L 90.065455 295.454131 
L 93.672727 295.441309 
L 97.28 295.428245 
L 100.887273 295.39365 
L 104.494545 295.393166 
L 108.101818 295.32446 
L 111.709091 295.2918 
L 115.316364 295.246561 
L 118.923636 295.15971 
L 122.530909 295.113987 
L 126.138182 294.837711 
L 129.745455 294.677557 
L 133.352727 294.533613 
L 136.96 294.065976 
L 140.567273 293.695833 
L 144.174545 293.018932 
L 147.781818 291.703112 
L 151.389091 291.648196 
L 154.996364 288.674477 
L 158.603636 287.49752 
L 162.210909 288.51771 
L 165.818182 283.491999 
L 169.425455 286.615227 
L 173.032727 285.158366 
L 176.64 287.191246 
L 180.247273 288.458439 
L 183.854545 289.689586 
L 187.461818 289.888689 
L 191.069091 290.279153 
L 194.676364 290.690422 
L 198.283636 291.158785 
L 201.890909 291.069274 
L 205.498182 291.371436 
L 209.105455 292.259294 
L 212.712727 291.744481 
L 216.32 292.092125 
L 219.927273 292.611292 
L 223.534545 292.330903 
L 227.141818 292.35437 
L 230.749091 293.136265 
L 234.356364 293.159006 
L 237.963636 293.442056 
L 241.570909 292.877649 
L 245.178182 293.125379 
L 248.785455 293.113766 
L 252.392727 292.85636 
L 256 293.114976 
L 259.607273 293.126346 
L 263.214545 293.08909 
L 266.821818 293.469635 
L 270.429091 293.390768 
L 274.036364 293.122234 
L 277.643636 293.703817 
L 281.250909 293.432863 
L 284.858182 293.224567 
L 288.465455 293.24634 
L 292.072727 293.832762 
L 295.68 293.245614 
L 299.287273 293.034415 
L 302.894545 292.728383 
L 306.501818 293.03127 
L 310.109091 293.040464 
L 313.716364 293.0274 
L 317.323636 292.94321 
L 320.930909 292.48404 
L 324.538182 292.996917 
L 328.145455 292.722093 
L 331.752727 292.682901 
L 335.36 293.033932 
L 338.967273 292.48646 
L 342.574545 292.790557 
L 346.181818 292.660402 
L 349.789091 292.557101 
L 353.396364 292.563149 
L 357.003636 292.219376 
L 360.610909 292.569681 
L 364.218182 291.832057 
L 367.825455 292.248407 
L 371.432727 291.824558 
L 375.04 290.692357 
L 378.647273 290.760822 
L 382.254545 291.435303 
L 385.861818 291.463608 
L 389.469091 291.104111 
L 393.076364 290.641796 
L 396.683636 290.677116 
L 400.290909 290.085372 
L 403.898182 290.596798 
L 407.505455 290.590266 
L 411.112727 290.589056 
L 414.72 289.466775 
" style="fill:none;stroke:#800000;stroke-linecap:square;"/>
    <defs>
     <path d="M 0 1.5 
C 0.397805 1.5 0.77937 1.341951 1.06066 1.06066 
C 1.341951 0.77937 1.5 0.397805 1.5 0 
C 1.5 -0.397805 1.341951 -0.77937 1.06066 -1.06066 
C 0.77937 -1.341951 0.397805 -1.5 0 -1.5 
C -0.397805 -1.5 -0.77937 -1.341951 -1.06066 -1.06066 
C -1.341951 -0.77937 -1.5 -0.397805 -1.5 0 
C -1.5 0.397805 -1.341951 0.77937 -1.06066 1.06066 
C -0.77937 1.341951 -0.397805 1.5 0 1.5 
z
" id="maf6233c6ac" style="stroke:#800000;"/>
    </defs>
    <g clip-path="url(#p6ac965a6d1)">
     <use style="fill:#800000;stroke:#800000;" x="57.6" xlink:href="#maf6233c6ac" y="295.487758"/>
     <use style="fill:#800000;stroke:#800000;" x="61.207273" xlink:href="#maf6233c6ac" y="295.486548"/>
     <use style="fill:#800000;stroke:#800000;" x="64.814545" xlink:href="#maf6233c6ac" y="295.485097"/>
     <use style="fill:#800000;stroke:#800000;" x="68.421818" xlink:href="#maf6233c6ac" y="295.482678"/>
     <use style="fill:#800000;stroke:#800000;" x="72.029091" xlink:href="#maf6233c6ac" y="295.48292"/>
     <use style="fill:#800000;stroke:#800000;" x="75.636364" xlink:href="#maf6233c6ac" y="295.478323"/>
     <use style="fill:#800000;stroke:#800000;" x="79.243636" xlink:href="#maf6233c6ac" y="295.474452"/>
     <use style="fill:#800000;stroke:#800000;" x="82.850909" xlink:href="#maf6233c6ac" y="295.471791"/>
     <use style="fill:#800000;stroke:#800000;" x="86.458182" xlink:href="#maf6233c6ac" y="295.461147"/>
     <use style="fill:#800000;stroke:#800000;" x="90.065455" xlink:href="#maf6233c6ac" y="295.454131"/>
     <use style="fill:#800000;stroke:#800000;" x="93.672727" xlink:href="#maf6233c6ac" y="295.441309"/>
     <use style="fill:#800000;stroke:#800000;" x="97.28" xlink:href="#maf6233c6ac" y="295.428245"/>
     <use style="fill:#800000;stroke:#800000;" x="100.887273" xlink:href="#maf6233c6ac" y="295.39365"/>
     <use style="fill:#800000;stroke:#800000;" x="104.494545" xlink:href="#maf6233c6ac" y="295.393166"/>
     <use style="fill:#800000;stroke:#800000;" x="108.101818" xlink:href="#maf6233c6ac" y="295.32446"/>
     <use style="fill:#800000;stroke:#800000;" x="111.709091" xlink:href="#maf6233c6ac" y="295.2918"/>
     <use style="fill:#800000;stroke:#800000;" x="115.316364" xlink:href="#maf6233c6ac" y="295.246561"/>
     <use style="fill:#800000;stroke:#800000;" x="118.923636" xlink:href="#maf6233c6ac" y="295.15971"/>
     <use style="fill:#800000;stroke:#800000;" x="122.530909" xlink:href="#maf6233c6ac" y="295.113987"/>
     <use style="fill:#800000;stroke:#800000;" x="126.138182" xlink:href="#maf6233c6ac" y="294.837711"/>
     <use style="fill:#800000;stroke:#800000;" x="129.745455" xlink:href="#maf6233c6ac" y="294.677557"/>
     <use style="fill:#800000;stroke:#800000;" x="133.352727" xlink:href="#maf6233c6ac" y="294.533613"/>
     <use style="fill:#800000;stroke:#800000;" x="136.96" xlink:href="#maf6233c6ac" y="294.065976"/>
     <use style="fill:#800000;stroke:#800000;" x="140.567273" xlink:href="#maf6233c6ac" y="293.695833"/>
     <use style="fill:#800000;stroke:#800000;" x="144.174545" xlink:href="#maf6233c6ac" y="293.018932"/>
     <use style="fill:#800000;stroke:#800000;" x="147.781818" xlink:href="#maf6233c6ac" y="291.703112"/>
     <use style="fill:#800000;stroke:#800000;" x="151.389091" xlink:href="#maf6233c6ac" y="291.648196"/>
     <use style="fill:#800000;stroke:#800000;" x="154.996364" xlink:href="#maf6233c6ac" y="288.674477"/>
     <use style="fill:#800000;stroke:#800000;" x="158.603636" xlink:href="#maf6233c6ac" y="287.49752"/>
     <use style="fill:#800000;stroke:#800000;" x="162.210909" xlink:href="#maf6233c6ac" y="288.51771"/>
     <use style="fill:#800000;stroke:#800000;" x="165.818182" xlink:href="#maf6233c6ac" y="283.491999"/>
     <use style="fill:#800000;stroke:#800000;" x="169.425455" xlink:href="#maf6233c6ac" y="286.615227"/>
     <use style="fill:#800000;stroke:#800000;" x="173.032727" xlink:href="#maf6233c6ac" y="285.158366"/>
     <use style="fill:#800000;stroke:#800000;" x="176.64" xlink:href="#maf6233c6ac" y="287.191246"/>
     <use style="fill:#800000;stroke:#800000;" x="180.247273" xlink:href="#maf6233c6ac" y="288.458439"/>
     <use style="fill:#800000;stroke:#800000;" x="183.854545" xlink:href="#maf6233c6ac" y="289.689586"/>
     <use style="fill:#800000;stroke:#800000;" x="187.461818" xlink:href="#maf6233c6ac" y="289.888689"/>
     <use style="fill:#800000;stroke:#800000;" x="191.069091" xlink:href="#maf6233c6ac" y="290.279153"/>
     <use style="fill:#800000;stroke:#800000;" x="194.676364" xlink:href="#maf6233c6ac" y="290.690422"/>
     <use style="fill:#800000;stroke:#800000;" x="198.283636" xlink:href="#maf6233c6ac" y="291.158785"/>
     <use style="fill:#800000;stroke:#800000;" x="201.890909" xlink:href="#maf6233c6ac" y="291.069274"/>
     <use style="fill:#800000;stroke:#800000;" x="205.498182" xlink:href="#maf6233c6ac" y="291.371436"/>
     <use style="fill:#800000;stroke:#800000;" x="209.105455" xlink:href="#maf6233c6ac" y="292.259294"/>
     <use style="fill:#800000;stroke:#800000;" x="212.712727" xlink:href="#maf6233c6ac" y="291.744481"/>
     <use style="fill:#800000;stroke:#800000;" x="216.32" xlink:href="#maf6233c6ac" y="292.092125"/>
     <use style="fill:#800000;stroke:#800000;" x="219.927273" xlink:href="#maf6233c6ac" y="292.611292"/>
     <use style="fill:#800000;stroke:#800000;" x="223.534545" xlink:href="#maf6233c6ac" y="292.330903"/>
     <use style="fill:#800000;stroke:#800000;" x="227.141818" xlink:href="#maf6233c6ac" y="292.35437"/>
     <use style="fill:#800000;stroke:#800000;" x="230.749091" xlink:href="#maf6233c6ac" y="293.136265"/>
     <use style="fill:#800000;stroke:#800000;" x="234.356364" xlink:href="#maf6233c6ac" y="293.159006"/>
     <use style="fill:#800000;stroke:#800000;" x="237.963636" xlink:href="#maf6233c6ac" y="293.442056"/>
     <use style="fill:#800000;stroke:#800000;" x="241.570909" xlink:href="#maf6233c6ac" y="292.877649"/>
     <use style="fill:#800000;stroke:#800000;" x="245.178182" xlink:href="#maf6233c6ac" y="293.125379"/>
     <use style="fill:#800000;stroke:#800000;" x="248.785455" xlink:href="#maf6233c6ac" y="293.113766"/>
     <use style="fill:#800000;stroke:#800000;" x="252.392727" xlink:href="#maf6233c6ac" y="292.85636"/>
     <use style="fill:#800000;stroke:#800000;" x="256" xlink:href="#maf6233c6ac" y="293.114976"/>
     <use style="fill:#800000;stroke:#800000;" x="259.607273" xlink:href="#maf6233c6ac" y="293.126346"/>
     <use style="fill:#800000;stroke:#800000;" x="263.214545" xlink:href="#maf6233c6ac" y="293.08909"/>
     <use style="fill:#800000;stroke:#800000;" x="266.821818" xlink:href="#maf6233c6ac" y="293.469635"/>
     <use style="fill:#800000;stroke:#800000;" x="270.429091" xlink:href="#maf6233c6ac" y="293.390768"/>
     <use style="fill:#800000;stroke:#800000;" x="274.036364" xlink:href="#maf6233c6ac" y="293.122234"/>
     <use style="fill:#800000;stroke:#800000;" x="277.643636" xlink:href="#maf6233c6ac" y="293.703817"/>
     <use style="fill:#800000;stroke:#800000;" x="281.250909" xlink:href="#maf6233c6ac" y="293.432863"/>
     <use style="fill:#800000;stroke:#800000;" x="284.858182" xlink:href="#maf6233c6ac" y="293.224567"/>
     <use style="fill:#800000;stroke:#800000;" x="288.465455" xlink:href="#maf6233c6ac" y="293.24634"/>
     <use style="fill:#800000;stroke:#800000;" x="292.072727" xlink:href="#maf6233c6ac" y="293.832762"/>
     <use style="fill:#800000;stroke:#800000;" x="295.68" xlink:href="#maf6233c6ac" y="293.245614"/>
     <use style="fill:#800000;stroke:#800000;" x="299.287273" xlink:href="#maf6233c6ac" y="293.034415"/>
     <use style="fill:#800000;stroke:#800000;" x="302.894545" xlink:href="#maf6233c6ac" y="292.728383"/>
     <use style="fill:#800000;stroke:#800000;" x="306.501818" xlink:href="#maf6233c6ac" y="293.03127"/>
     <use style="fill:#800000;stroke:#800000;" x="310.109091" xlink:href="#maf6233c6ac" y="293.040464"/>
     <use style="fill:#800000;stroke:#800000;" x="313.716364" xlink:href="#maf6233c6ac" y="293.0274"/>
     <use style="fill:#800000;stroke:#800000;" x="317.323636" xlink:href="#maf6233c6ac" y="292.94321"/>
     <use style="fill:#800000;stroke:#800000;" x="320.930909" xlink:href="#maf6233c6ac" y="292.48404"/>
     <use style="fill:#800000;stroke:#800000;" x="324.538182" xlink:href="#maf6233c6ac" y="292.996917"/>
     <use style="fill:#800000;stroke:#800000;" x="328.145455" xlink:href="#maf6233c6ac" y="292.722093"/>
     <use style="fill:#800000;stroke:#800000;" x="331.752727" xlink:href="#maf6233c6ac" y="292.682901"/>
     <use style="fill:#800000;stroke:#800000;" x="335.36" xlink:href="#maf6233c6ac" y="293.033932"/>
     <use style="fill:#800000;stroke:#800000;" x="338.967273" xlink:href="#maf6233c6ac" y="292.48646"/>
     <use style="fill:#800000;stroke:#800000;" x="342.574545" xlink:href="#maf6233c6ac" y="292.790557"/>
     <use style="fill:#800000;stroke:#800000;" x="346.181818" xlink:href="#maf6233c6ac" y="292.660402"/>
     <use style="fill:#800000;stroke:#800000;" x="349.789091" xlink:href="#maf6233c6ac" y="292.557101"/>
     <use style="fill:#800000;stroke:#800000;" x="353.396364" xlink:href="#maf6233c6ac" y="292.563149"/>
     <use style="fill:#800000;stroke:#800000;" x="357.003636" xlink:href="#maf6233c6ac" y="292.219376"/>
     <use style="fill:#800000;stroke:#800000;" x="360.610909" xlink:href="#maf6233c6ac" y="292.569681"/>
     <use style="fill:#800000;stroke:#800000;" x="364.218182" xlink:href="#maf6233c6ac" y="291.832057"/>
     <use style="fill:#800000;stroke:#800000;" x="367.825455" xlink:href="#maf6233c6ac" y="292.248407"/>
     <use style="fill:#800000;stroke:#800000;" x="371.432727" xlink:href="#maf6233c6ac" y="291.824558"/>
     <use style="fill:#800000;stroke:#800000;" x="375.04" xlink:href="#maf6233c6ac" y="290.692357"/>
     <use style="fill:#800000;stroke:#800000;" x="378.647273" xlink:href="#maf6233c6ac" y="290.760822"/>
     <use style="fill:#800000;stroke:#800000;" x="382.254545" xlink:href="#maf6233c6ac" y="291.435303"/>
     <use style="fill:#800000;stroke:#800000;" x="385.861818" xlink:href="#maf6233c6ac" y="291.463608"/>
     <use style="fill:#800000;stroke:#800000;" x="389.469091" xlink:href="#maf6233c6ac" y="291.104111"/>
     <use style="fill:#800000;stroke:#800000;" x="393.076364" xlink:href="#maf6233c6ac" y="290.641796"/>
     <use style="fill:#800000;stroke:#800000;" x="396.683636" xlink:href="#maf6233c6ac" y="290.677116"/>
     <use style="fill:#800000;stroke:#800000;" x="400.290909" xlink:href="#maf6233c6ac" y="290.085372"/>
     <use style="fill:#800000;stroke:#800000;" x="403.898182" xlink:href="#maf6233c6ac" y="290.596798"/>
     <use style="fill:#800000;stroke:#800000;" x="407.505455" xlink:href="#maf6233c6ac" y="290.590266"/>
     <use style="fill:#800000;stroke:#800000;" x="411.112727" xlink:href="#maf6233c6ac" y="290.589056"/>
     <use style="fill:#800000;stroke:#800000;" x="414.72" xlink:href="#maf6233c6ac" y="289.466775"/>
    </g>
   </g>
   <g id="patch_3">
    <path d="M 57.6 307.584 
L 57.6 41.472 
" style="fill:none;stroke:#000000;stroke-linecap:square;stroke-linejoin:miter;stroke-width:0.8;"/>
   </g>
   <g id="patch_4">
    <path d="M 414.72 307.584 
L 414.72 41.472 
" style="fill:none;stroke:#000000;stroke-linecap:square;stroke-linejoin:miter;stroke-width:0.8;"/>
   </g>
   <g id="patch_5">
    <path d="M 57.6 307.584 
L 414.72 307.584 
" style="fill:none;stroke:#000000;stroke-linecap:square;stroke-linejoin:miter;stroke-width:0.8;"/>
   </g>
   <g id="patch_6">
    <path d="M 57.6 41.472 
L 414.72 41.472 
" style="fill:none;stroke:#000000;stroke-linecap:square;stroke-linejoin:miter;stroke-width:0.8;"/>
   </g>
   <g id="text_14">
    <!-- Test -->
    <defs>
     <path d="M -0.296875 72.90625 
L 61.375 72.90625 
L 61.375 64.59375 
L 35.5 64.59375 
L 35.5 0 
L 25.59375 0 
L 25.59375 64.59375 
L -0.296875 64.59375 
z
" id="DejaVuSans-54"/>
    </defs>
    <g transform="translate(223.341563 35.472)scale(0.12 -0.12)">
     <use xlink:href="#DejaVuSans-54"/>
     <use x="60.818359" xlink:href="#DejaVuSans-65"/>
     <use x="122.341797" xlink:href="#DejaVuSans-73"/>
     <use x="174.441406" xlink:href="#DejaVuSans-74"/>
    </g>
   </g>
   <g id="legend_1">
    <g id="patch_7">
     <path d="M 369.3575 205.38425 
L 407.72 205.38425 
Q 409.72 205.38425 409.72 203.38425 
L 409.72 145.67175 
Q 409.72 143.67175 407.72 143.67175 
L 369.3575 143.67175 
Q 367.3575 143.67175 367.3575 145.67175 
L 367.3575 203.38425 
Q 367.3575 205.38425 369.3575 205.38425 
z
" style="fill:#ffffff;opacity:0.8;stroke:#cccccc;stroke-linejoin:miter;"/>
    </g>
    <g id="line2d_27">
     <path d="M 371.3575 151.770188 
L 391.3575 151.770188 
" style="fill:none;stroke:#000080;stroke-linecap:square;"/>
    </g>
    <g id="line2d_28">
     <g>
      <use style="fill:#000080;stroke:#000080;" x="381.3575" xlink:href="#mc38eaa061d" y="151.770188"/>
     </g>
    </g>
    <g id="text_15">
     <!-- 1 -->
     <g transform="translate(399.3575 155.270188)scale(0.1 -0.1)">
      <use xlink:href="#DejaVuSans-31"/>
     </g>
    </g>
    <g id="line2d_29">
     <path d="M 371.3575 166.448313 
L 391.3575 166.448313 
" style="fill:none;stroke:#00d4ff;stroke-linecap:square;"/>
    </g>
    <g id="line2d_30">
     <g>
      <use style="fill:#00d4ff;stroke:#00d4ff;" x="381.3575" xlink:href="#mb00e93c2e2" y="166.448313"/>
     </g>
    </g>
    <g id="text_16">
     <!-- 2 -->
     <g transform="translate(399.3575 169.948313)scale(0.1 -0.1)">
      <use xlink:href="#DejaVuSans-32"/>
     </g>
    </g>
    <g id="line2d_31">
     <path d="M 371.3575 181.126438 
L 391.3575 181.126438 
" style="fill:none;stroke:#ffe600;stroke-linecap:square;"/>
    </g>
    <g id="line2d_32">
     <g>
      <use style="fill:#ffe600;stroke:#ffe600;" x="381.3575" xlink:href="#m9c99bca502" y="181.126438"/>
     </g>
    </g>
    <g id="text_17">
     <!-- 4 -->
     <g transform="translate(399.3575 184.626438)scale(0.1 -0.1)">
      <use xlink:href="#DejaVuSans-34"/>
     </g>
    </g>
    <g id="line2d_33">
     <path d="M 371.3575 195.804563 
L 391.3575 195.804563 
" style="fill:none;stroke:#800000;stroke-linecap:square;"/>
    </g>
    <g id="line2d_34">
     <g>
      <use style="fill:#800000;stroke:#800000;" x="381.3575" xlink:href="#maf6233c6ac" y="195.804563"/>
     </g>
    </g>
    <g id="text_18">
     <!-- 8 -->
     <g transform="translate(399.3575 199.304563)scale(0.1 -0.1)">
      <use xlink:href="#DejaVuSans-38"/>
     </g>
    </g>
   </g>
  </g>
 </g>
 <defs>
  <clipPath id="p6ac965a6d1">
   <rect height="266.112" width="357.12" x="57.6" y="41.472"/>
  </clipPath>
 </defs>
</svg>
