<?xml version="1.0" encoding="utf-8" standalone="no"?>
<!DOCTYPE svg PUBLIC "-//W3C//DTD SVG 1.1//EN"
  "http://www.w3.org/Graphics/SVG/1.1/DTD/svg11.dtd">
<!-- Created with matplotlib (http://matplotlib.org/) -->
<svg height="345pt" version="1.1" viewBox="0 0 460 345" width="460pt" xmlns="http://www.w3.org/2000/svg" xmlns:xlink="http://www.w3.org/1999/xlink">
 <defs>
  <style type="text/css">
*{stroke-linecap:butt;stroke-linejoin:round;}
  </style>
 </defs>
 <g id="figure_1">
  <g id="patch_1">
   <path d="M 0 345.6 
L 460.8 345.6 
L 460.8 0 
L 0 0 
z
" style="fill:#ffffff;"/>
  </g>
  <g id="axes_1">
   <g id="patch_2">
    <path d="M 57.6 307.584 
L 414.72 307.584 
L 414.72 41.472 
L 57.6 41.472 
z
" style="fill:#ffffff;"/>
   </g>
   <g id="matplotlib.axis_1">
    <g id="xtick_1">
     <g id="line2d_1">
      <path clip-path="url(#p0b1a4a12ad)" d="M 57.239273 307.584 
L 57.239273 41.472 
" style="fill:none;stroke:#b0b0b0;stroke-linecap:square;stroke-width:0.8;"/>
     </g>
     <g id="line2d_2">
      <defs>
       <path d="M 0 0 
L 0 3.5 
" id="mf1dbf584ce" style="stroke:#000000;stroke-width:0.8;"/>
      </defs>
      <g>
       <use style="stroke:#000000;stroke-width:0.8;" x="57.239273" xlink:href="#mf1dbf584ce" y="307.584"/>
      </g>
     </g>
     <g id="text_1">
      <!-- 0 -->
      <defs>
       <path d="M 31.78125 66.40625 
Q 24.171875 66.40625 20.328125 58.90625 
Q 16.5 51.421875 16.5 36.375 
Q 16.5 21.390625 20.328125 13.890625 
Q 24.171875 6.390625 31.78125 6.390625 
Q 39.453125 6.390625 43.28125 13.890625 
Q 47.125 21.390625 47.125 36.375 
Q 47.125 51.421875 43.28125 58.90625 
Q 39.453125 66.40625 31.78125 66.40625 
M 31.78125 74.21875 
Q 44.046875 74.21875 50.515625 64.515625 
Q 56.984375 54.828125 56.984375 36.375 
Q 56.984375 17.96875 50.515625 8.265625 
Q 44.046875 -1.421875 31.78125 -1.421875 
Q 19.53125 -1.421875 13.0625 8.265625 
Q 6.59375 17.96875 6.59375 36.375 
Q 6.59375 54.828125 13.0625 64.515625 
Q 19.53125 74.21875 31.78125 74.21875 
" id="DejaVuSans-30"/>
      </defs>
      <g transform="translate(54.058023 322.182437)scale(0.1 -0.1)">
       <use xlink:href="#DejaVuSans-30"/>
      </g>
     </g>
    </g>
    <g id="xtick_2">
     <g id="line2d_3">
      <path clip-path="url(#p0b1a4a12ad)" d="M 129.384727 307.584 
L 129.384727 41.472 
" style="fill:none;stroke:#b0b0b0;stroke-linecap:square;stroke-width:0.8;"/>
     </g>
     <g id="line2d_4">
      <g>
       <use style="stroke:#000000;stroke-width:0.8;" x="129.384727" xlink:href="#mf1dbf584ce" y="307.584"/>
      </g>
     </g>
     <g id="text_2">
      <!-- 200 -->
      <defs>
       <path d="M 19.1875 8.296875 
L 53.609375 8.296875 
L 53.609375 0 
L 7.328125 0 
L 7.328125 8.296875 
Q 12.9375 14.109375 22.625 23.890625 
Q 32.328125 33.6875 34.8125 36.53125 
Q 39.546875 41.84375 41.421875 45.53125 
Q 43.3125 49.21875 43.3125 52.78125 
Q 43.3125 58.59375 39.234375 62.25 
Q 35.15625 65.921875 28.609375 65.921875 
Q 23.96875 65.921875 18.8125 64.3125 
Q 13.671875 62.703125 7.8125 59.421875 
L 7.8125 69.390625 
Q 13.765625 71.78125 18.9375 73 
Q 24.125 74.21875 28.421875 74.21875 
Q 39.75 74.21875 46.484375 68.546875 
Q 53.21875 62.890625 53.21875 53.421875 
Q 53.21875 48.921875 51.53125 44.890625 
Q 49.859375 40.875 45.40625 35.40625 
Q 44.1875 33.984375 37.640625 27.21875 
Q 31.109375 20.453125 19.1875 8.296875 
" id="DejaVuSans-32"/>
      </defs>
      <g transform="translate(119.840977 322.182437)scale(0.1 -0.1)">
       <use xlink:href="#DejaVuSans-32"/>
       <use x="63.623047" xlink:href="#DejaVuSans-30"/>
       <use x="127.246094" xlink:href="#DejaVuSans-30"/>
      </g>
     </g>
    </g>
    <g id="xtick_3">
     <g id="line2d_5">
      <path clip-path="url(#p0b1a4a12ad)" d="M 201.530182 307.584 
L 201.530182 41.472 
" style="fill:none;stroke:#b0b0b0;stroke-linecap:square;stroke-width:0.8;"/>
     </g>
     <g id="line2d_6">
      <g>
       <use style="stroke:#000000;stroke-width:0.8;" x="201.530182" xlink:href="#mf1dbf584ce" y="307.584"/>
      </g>
     </g>
     <g id="text_3">
      <!-- 400 -->
      <defs>
       <path d="M 37.796875 64.3125 
L 12.890625 25.390625 
L 37.796875 25.390625 
z
M 35.203125 72.90625 
L 47.609375 72.90625 
L 47.609375 25.390625 
L 58.015625 25.390625 
L 58.015625 17.1875 
L 47.609375 17.1875 
L 47.609375 0 
L 37.796875 0 
L 37.796875 17.1875 
L 4.890625 17.1875 
L 4.890625 26.703125 
z
" id="DejaVuSans-34"/>
      </defs>
      <g transform="translate(191.986432 322.182437)scale(0.1 -0.1)">
       <use xlink:href="#DejaVuSans-34"/>
       <use x="63.623047" xlink:href="#DejaVuSans-30"/>
       <use x="127.246094" xlink:href="#DejaVuSans-30"/>
      </g>
     </g>
    </g>
    <g id="xtick_4">
     <g id="line2d_7">
      <path clip-path="url(#p0b1a4a12ad)" d="M 273.675636 307.584 
L 273.675636 41.472 
" style="fill:none;stroke:#b0b0b0;stroke-linecap:square;stroke-width:0.8;"/>
     </g>
     <g id="line2d_8">
      <g>
       <use style="stroke:#000000;stroke-width:0.8;" x="273.675636" xlink:href="#mf1dbf584ce" y="307.584"/>
      </g>
     </g>
     <g id="text_4">
      <!-- 600 -->
      <defs>
       <path d="M 33.015625 40.375 
Q 26.375 40.375 22.484375 35.828125 
Q 18.609375 31.296875 18.609375 23.390625 
Q 18.609375 15.53125 22.484375 10.953125 
Q 26.375 6.390625 33.015625 6.390625 
Q 39.65625 6.390625 43.53125 10.953125 
Q 47.40625 15.53125 47.40625 23.390625 
Q 47.40625 31.296875 43.53125 35.828125 
Q 39.65625 40.375 33.015625 40.375 
M 52.59375 71.296875 
L 52.59375 62.3125 
Q 48.875 64.0625 45.09375 64.984375 
Q 41.3125 65.921875 37.59375 65.921875 
Q 27.828125 65.921875 22.671875 59.328125 
Q 17.53125 52.734375 16.796875 39.40625 
Q 19.671875 43.65625 24.015625 45.921875 
Q 28.375 48.1875 33.59375 48.1875 
Q 44.578125 48.1875 50.953125 41.515625 
Q 57.328125 34.859375 57.328125 23.390625 
Q 57.328125 12.15625 50.6875 5.359375 
Q 44.046875 -1.421875 33.015625 -1.421875 
Q 20.359375 -1.421875 13.671875 8.265625 
Q 6.984375 17.96875 6.984375 36.375 
Q 6.984375 53.65625 15.1875 63.9375 
Q 23.390625 74.21875 37.203125 74.21875 
Q 40.921875 74.21875 44.703125 73.484375 
Q 48.484375 72.75 52.59375 71.296875 
" id="DejaVuSans-36"/>
      </defs>
      <g transform="translate(264.131886 322.182437)scale(0.1 -0.1)">
       <use xlink:href="#DejaVuSans-36"/>
       <use x="63.623047" xlink:href="#DejaVuSans-30"/>
       <use x="127.246094" xlink:href="#DejaVuSans-30"/>
      </g>
     </g>
    </g>
    <g id="xtick_5">
     <g id="line2d_9">
      <path clip-path="url(#p0b1a4a12ad)" d="M 345.821091 307.584 
L 345.821091 41.472 
" style="fill:none;stroke:#b0b0b0;stroke-linecap:square;stroke-width:0.8;"/>
     </g>
     <g id="line2d_10">
      <g>
       <use style="stroke:#000000;stroke-width:0.8;" x="345.821091" xlink:href="#mf1dbf584ce" y="307.584"/>
      </g>
     </g>
     <g id="text_5">
      <!-- 800 -->
      <defs>
       <path d="M 31.78125 34.625 
Q 24.75 34.625 20.71875 30.859375 
Q 16.703125 27.09375 16.703125 20.515625 
Q 16.703125 13.921875 20.71875 10.15625 
Q 24.75 6.390625 31.78125 6.390625 
Q 38.8125 6.390625 42.859375 10.171875 
Q 46.921875 13.96875 46.921875 20.515625 
Q 46.921875 27.09375 42.890625 30.859375 
Q 38.875 34.625 31.78125 34.625 
M 21.921875 38.8125 
Q 15.578125 40.375 12.03125 44.71875 
Q 8.5 49.078125 8.5 55.328125 
Q 8.5 64.0625 14.71875 69.140625 
Q 20.953125 74.21875 31.78125 74.21875 
Q 42.671875 74.21875 48.875 69.140625 
Q 55.078125 64.0625 55.078125 55.328125 
Q 55.078125 49.078125 51.53125 44.71875 
Q 48 40.375 41.703125 38.8125 
Q 48.828125 37.15625 52.796875 32.3125 
Q 56.78125 27.484375 56.78125 20.515625 
Q 56.78125 9.90625 50.3125 4.234375 
Q 43.84375 -1.421875 31.78125 -1.421875 
Q 19.734375 -1.421875 13.25 4.234375 
Q 6.78125 9.90625 6.78125 20.515625 
Q 6.78125 27.484375 10.78125 32.3125 
Q 14.796875 37.15625 21.921875 38.8125 
M 18.3125 54.390625 
Q 18.3125 48.734375 21.84375 45.5625 
Q 25.390625 42.390625 31.78125 42.390625 
Q 38.140625 42.390625 41.71875 45.5625 
Q 45.3125 48.734375 45.3125 54.390625 
Q 45.3125 60.0625 41.71875 63.234375 
Q 38.140625 66.40625 31.78125 66.40625 
Q 25.390625 66.40625 21.84375 63.234375 
Q 18.3125 60.0625 18.3125 54.390625 
" id="DejaVuSans-38"/>
      </defs>
      <g transform="translate(336.277341 322.182437)scale(0.1 -0.1)">
       <use xlink:href="#DejaVuSans-38"/>
       <use x="63.623047" xlink:href="#DejaVuSans-30"/>
       <use x="127.246094" xlink:href="#DejaVuSans-30"/>
      </g>
     </g>
    </g>
    <g id="text_6">
     <!-- Number of clients -->
     <defs>
      <path d="M 9.8125 72.90625 
L 23.09375 72.90625 
L 55.421875 11.921875 
L 55.421875 72.90625 
L 64.984375 72.90625 
L 64.984375 0 
L 51.703125 0 
L 19.390625 60.984375 
L 19.390625 0 
L 9.8125 0 
z
" id="DejaVuSans-4e"/>
      <path d="M 8.5 21.578125 
L 8.5 54.6875 
L 17.484375 54.6875 
L 17.484375 21.921875 
Q 17.484375 14.15625 20.5 10.265625 
Q 23.53125 6.390625 29.59375 6.390625 
Q 36.859375 6.390625 41.078125 11.03125 
Q 45.3125 15.671875 45.3125 23.6875 
L 45.3125 54.6875 
L 54.296875 54.6875 
L 54.296875 0 
L 45.3125 0 
L 45.3125 8.40625 
Q 42.046875 3.421875 37.71875 1 
Q 33.40625 -1.421875 27.6875 -1.421875 
Q 18.265625 -1.421875 13.375 4.4375 
Q 8.5 10.296875 8.5 21.578125 
M 31.109375 56 
z
" id="DejaVuSans-75"/>
      <path d="M 52 44.1875 
Q 55.375 50.25 60.0625 53.125 
Q 64.75 56 71.09375 56 
Q 79.640625 56 84.28125 50.015625 
Q 88.921875 44.046875 88.921875 33.015625 
L 88.921875 0 
L 79.890625 0 
L 79.890625 32.71875 
Q 79.890625 40.578125 77.09375 44.375 
Q 74.3125 48.1875 68.609375 48.1875 
Q 61.625 48.1875 57.5625 43.546875 
Q 53.515625 38.921875 53.515625 30.90625 
L 53.515625 0 
L 44.484375 0 
L 44.484375 32.71875 
Q 44.484375 40.625 41.703125 44.40625 
Q 38.921875 48.1875 33.109375 48.1875 
Q 26.21875 48.1875 22.15625 43.53125 
Q 18.109375 38.875 18.109375 30.90625 
L 18.109375 0 
L 9.078125 0 
L 9.078125 54.6875 
L 18.109375 54.6875 
L 18.109375 46.1875 
Q 21.1875 51.21875 25.484375 53.609375 
Q 29.78125 56 35.6875 56 
Q 41.65625 56 45.828125 52.96875 
Q 50 49.953125 52 44.1875 
" id="DejaVuSans-6d"/>
      <path d="M 48.6875 27.296875 
Q 48.6875 37.203125 44.609375 42.84375 
Q 40.53125 48.484375 33.40625 48.484375 
Q 26.265625 48.484375 22.1875 42.84375 
Q 18.109375 37.203125 18.109375 27.296875 
Q 18.109375 17.390625 22.1875 11.75 
Q 26.265625 6.109375 33.40625 6.109375 
Q 40.53125 6.109375 44.609375 11.75 
Q 48.6875 17.390625 48.6875 27.296875 
M 18.109375 46.390625 
Q 20.953125 51.265625 25.265625 53.625 
Q 29.59375 56 35.59375 56 
Q 45.5625 56 51.78125 48.09375 
Q 58.015625 40.1875 58.015625 27.296875 
Q 58.015625 14.40625 51.78125 6.484375 
Q 45.5625 -1.421875 35.59375 -1.421875 
Q 29.59375 -1.421875 25.265625 0.953125 
Q 20.953125 3.328125 18.109375 8.203125 
L 18.109375 0 
L 9.078125 0 
L 9.078125 75.984375 
L 18.109375 75.984375 
z
" id="DejaVuSans-62"/>
      <path d="M 56.203125 29.59375 
L 56.203125 25.203125 
L 14.890625 25.203125 
Q 15.484375 15.921875 20.484375 11.0625 
Q 25.484375 6.203125 34.421875 6.203125 
Q 39.59375 6.203125 44.453125 7.46875 
Q 49.3125 8.734375 54.109375 11.28125 
L 54.109375 2.78125 
Q 49.265625 0.734375 44.1875 -0.34375 
Q 39.109375 -1.421875 33.890625 -1.421875 
Q 20.796875 -1.421875 13.15625 6.1875 
Q 5.515625 13.8125 5.515625 26.8125 
Q 5.515625 40.234375 12.765625 48.109375 
Q 20.015625 56 32.328125 56 
Q 43.359375 56 49.78125 48.890625 
Q 56.203125 41.796875 56.203125 29.59375 
M 47.21875 32.234375 
Q 47.125 39.59375 43.09375 43.984375 
Q 39.0625 48.390625 32.421875 48.390625 
Q 24.90625 48.390625 20.390625 44.140625 
Q 15.875 39.890625 15.1875 32.171875 
z
" id="DejaVuSans-65"/>
      <path d="M 41.109375 46.296875 
Q 39.59375 47.171875 37.8125 47.578125 
Q 36.03125 48 33.890625 48 
Q 26.265625 48 22.1875 43.046875 
Q 18.109375 38.09375 18.109375 28.8125 
L 18.109375 0 
L 9.078125 0 
L 9.078125 54.6875 
L 18.109375 54.6875 
L 18.109375 46.1875 
Q 20.953125 51.171875 25.484375 53.578125 
Q 30.03125 56 36.53125 56 
Q 37.453125 56 38.578125 55.875 
Q 39.703125 55.765625 41.0625 55.515625 
z
" id="DejaVuSans-72"/>
      <path id="DejaVuSans-20"/>
      <path d="M 30.609375 48.390625 
Q 23.390625 48.390625 19.1875 42.75 
Q 14.984375 37.109375 14.984375 27.296875 
Q 14.984375 17.484375 19.15625 11.84375 
Q 23.34375 6.203125 30.609375 6.203125 
Q 37.796875 6.203125 41.984375 11.859375 
Q 46.1875 17.53125 46.1875 27.296875 
Q 46.1875 37.015625 41.984375 42.703125 
Q 37.796875 48.390625 30.609375 48.390625 
M 30.609375 56 
Q 42.328125 56 49.015625 48.375 
Q 55.71875 40.765625 55.71875 27.296875 
Q 55.71875 13.875 49.015625 6.21875 
Q 42.328125 -1.421875 30.609375 -1.421875 
Q 18.84375 -1.421875 12.171875 6.21875 
Q 5.515625 13.875 5.515625 27.296875 
Q 5.515625 40.765625 12.171875 48.375 
Q 18.84375 56 30.609375 56 
" id="DejaVuSans-6f"/>
      <path d="M 37.109375 75.984375 
L 37.109375 68.5 
L 28.515625 68.5 
Q 23.6875 68.5 21.796875 66.546875 
Q 19.921875 64.59375 19.921875 59.515625 
L 19.921875 54.6875 
L 34.71875 54.6875 
L 34.71875 47.703125 
L 19.921875 47.703125 
L 19.921875 0 
L 10.890625 0 
L 10.890625 47.703125 
L 2.296875 47.703125 
L 2.296875 54.6875 
L 10.890625 54.6875 
L 10.890625 58.5 
Q 10.890625 67.625 15.140625 71.796875 
Q 19.390625 75.984375 28.609375 75.984375 
z
" id="DejaVuSans-66"/>
      <path d="M 48.78125 52.59375 
L 48.78125 44.1875 
Q 44.96875 46.296875 41.140625 47.34375 
Q 37.3125 48.390625 33.40625 48.390625 
Q 24.65625 48.390625 19.8125 42.84375 
Q 14.984375 37.3125 14.984375 27.296875 
Q 14.984375 17.28125 19.8125 11.734375 
Q 24.65625 6.203125 33.40625 6.203125 
Q 37.3125 6.203125 41.140625 7.25 
Q 44.96875 8.296875 48.78125 10.40625 
L 48.78125 2.09375 
Q 45.015625 0.34375 40.984375 -0.53125 
Q 36.96875 -1.421875 32.421875 -1.421875 
Q 20.0625 -1.421875 12.78125 6.34375 
Q 5.515625 14.109375 5.515625 27.296875 
Q 5.515625 40.671875 12.859375 48.328125 
Q 20.21875 56 33.015625 56 
Q 37.15625 56 41.109375 55.140625 
Q 45.0625 54.296875 48.78125 52.59375 
" id="DejaVuSans-63"/>
      <path d="M 9.421875 75.984375 
L 18.40625 75.984375 
L 18.40625 0 
L 9.421875 0 
z
" id="DejaVuSans-6c"/>
      <path d="M 9.421875 54.6875 
L 18.40625 54.6875 
L 18.40625 0 
L 9.421875 0 
z
M 9.421875 75.984375 
L 18.40625 75.984375 
L 18.40625 64.59375 
L 9.421875 64.59375 
z
" id="DejaVuSans-69"/>
      <path d="M 54.890625 33.015625 
L 54.890625 0 
L 45.90625 0 
L 45.90625 32.71875 
Q 45.90625 40.484375 42.875 44.328125 
Q 39.84375 48.1875 33.796875 48.1875 
Q 26.515625 48.1875 22.3125 43.546875 
Q 18.109375 38.921875 18.109375 30.90625 
L 18.109375 0 
L 9.078125 0 
L 9.078125 54.6875 
L 18.109375 54.6875 
L 18.109375 46.1875 
Q 21.34375 51.125 25.703125 53.5625 
Q 30.078125 56 35.796875 56 
Q 45.21875 56 50.046875 50.171875 
Q 54.890625 44.34375 54.890625 33.015625 
" id="DejaVuSans-6e"/>
      <path d="M 18.3125 70.21875 
L 18.3125 54.6875 
L 36.8125 54.6875 
L 36.8125 47.703125 
L 18.3125 47.703125 
L 18.3125 18.015625 
Q 18.3125 11.328125 20.140625 9.421875 
Q 21.96875 7.515625 27.59375 7.515625 
L 36.8125 7.515625 
L 36.8125 0 
L 27.59375 0 
Q 17.1875 0 13.234375 3.875 
Q 9.28125 7.765625 9.28125 18.015625 
L 9.28125 47.703125 
L 2.6875 47.703125 
L 2.6875 54.6875 
L 9.28125 54.6875 
L 9.28125 70.21875 
z
" id="DejaVuSans-74"/>
      <path d="M 44.28125 53.078125 
L 44.28125 44.578125 
Q 40.484375 46.53125 36.375 47.5 
Q 32.28125 48.484375 27.875 48.484375 
Q 21.1875 48.484375 17.84375 46.4375 
Q 14.5 44.390625 14.5 40.28125 
Q 14.5 37.15625 16.890625 35.375 
Q 19.28125 33.59375 26.515625 31.984375 
L 29.59375 31.296875 
Q 39.15625 29.25 43.1875 25.515625 
Q 47.21875 21.78125 47.21875 15.09375 
Q 47.21875 7.46875 41.1875 3.015625 
Q 35.15625 -1.421875 24.609375 -1.421875 
Q 20.21875 -1.421875 15.453125 -0.5625 
Q 10.6875 0.296875 5.421875 2 
L 5.421875 11.28125 
Q 10.40625 8.6875 15.234375 7.390625 
Q 20.0625 6.109375 24.8125 6.109375 
Q 31.15625 6.109375 34.5625 8.28125 
Q 37.984375 10.453125 37.984375 14.40625 
Q 37.984375 18.0625 35.515625 20.015625 
Q 33.0625 21.96875 24.703125 23.78125 
L 21.578125 24.515625 
Q 13.234375 26.265625 9.515625 29.90625 
Q 5.8125 33.546875 5.8125 39.890625 
Q 5.8125 47.609375 11.28125 51.796875 
Q 16.75 56 26.8125 56 
Q 31.78125 56 36.171875 55.265625 
Q 40.578125 54.546875 44.28125 53.078125 
" id="DejaVuSans-73"/>
     </defs>
     <g transform="translate(191.738906 335.860562)scale(0.1 -0.1)">
      <use xlink:href="#DejaVuSans-4e"/>
      <use x="74.804688" xlink:href="#DejaVuSans-75"/>
      <use x="138.183594" xlink:href="#DejaVuSans-6d"/>
      <use x="235.595703" xlink:href="#DejaVuSans-62"/>
      <use x="299.072266" xlink:href="#DejaVuSans-65"/>
      <use x="360.595703" xlink:href="#DejaVuSans-72"/>
      <use x="401.708984" xlink:href="#DejaVuSans-20"/>
      <use x="433.496094" xlink:href="#DejaVuSans-6f"/>
      <use x="494.677734" xlink:href="#DejaVuSans-66"/>
      <use x="529.882812" xlink:href="#DejaVuSans-20"/>
      <use x="561.669922" xlink:href="#DejaVuSans-63"/>
      <use x="616.650391" xlink:href="#DejaVuSans-6c"/>
      <use x="644.433594" xlink:href="#DejaVuSans-69"/>
      <use x="672.216797" xlink:href="#DejaVuSans-65"/>
      <use x="733.740234" xlink:href="#DejaVuSans-6e"/>
      <use x="797.119141" xlink:href="#DejaVuSans-74"/>
      <use x="836.328125" xlink:href="#DejaVuSans-73"/>
     </g>
    </g>
   </g>
   <g id="matplotlib.axis_2">
    <g id="ytick_1">
     <g id="line2d_11">
      <path clip-path="url(#p0b1a4a12ad)" d="M 57.6 295.516032 
L 414.72 295.516032 
" style="fill:none;stroke:#b0b0b0;stroke-linecap:square;stroke-width:0.8;"/>
     </g>
     <g id="line2d_12">
      <defs>
       <path d="M 0 0 
L -3.5 0 
" id="mb6805d0613" style="stroke:#000000;stroke-width:0.8;"/>
      </defs>
      <g>
       <use style="stroke:#000000;stroke-width:0.8;" x="57.6" xlink:href="#mb6805d0613" y="295.516032"/>
      </g>
     </g>
     <g id="text_7">
      <!-- 0 -->
      <g transform="translate(44.2375 299.315251)scale(0.1 -0.1)">
       <use xlink:href="#DejaVuSans-30"/>
      </g>
     </g>
    </g>
    <g id="ytick_2">
     <g id="line2d_13">
      <path clip-path="url(#p0b1a4a12ad)" d="M 57.6 249.466175 
L 414.72 249.466175 
" style="fill:none;stroke:#b0b0b0;stroke-linecap:square;stroke-width:0.8;"/>
     </g>
     <g id="line2d_14">
      <g>
       <use style="stroke:#000000;stroke-width:0.8;" x="57.6" xlink:href="#mb6805d0613" y="249.466175"/>
      </g>
     </g>
     <g id="text_8">
      <!-- 200 -->
      <g transform="translate(31.5125 253.265394)scale(0.1 -0.1)">
       <use xlink:href="#DejaVuSans-32"/>
       <use x="63.623047" xlink:href="#DejaVuSans-30"/>
       <use x="127.246094" xlink:href="#DejaVuSans-30"/>
      </g>
     </g>
    </g>
    <g id="ytick_3">
     <g id="line2d_15">
      <path clip-path="url(#p0b1a4a12ad)" d="M 57.6 203.416318 
L 414.72 203.416318 
" style="fill:none;stroke:#b0b0b0;stroke-linecap:square;stroke-width:0.8;"/>
     </g>
     <g id="line2d_16">
      <g>
       <use style="stroke:#000000;stroke-width:0.8;" x="57.6" xlink:href="#mb6805d0613" y="203.416318"/>
      </g>
     </g>
     <g id="text_9">
      <!-- 400 -->
      <g transform="translate(31.5125 207.215537)scale(0.1 -0.1)">
       <use xlink:href="#DejaVuSans-34"/>
       <use x="63.623047" xlink:href="#DejaVuSans-30"/>
       <use x="127.246094" xlink:href="#DejaVuSans-30"/>
      </g>
     </g>
    </g>
    <g id="ytick_4">
     <g id="line2d_17">
      <path clip-path="url(#p0b1a4a12ad)" d="M 57.6 157.366461 
L 414.72 157.366461 
" style="fill:none;stroke:#b0b0b0;stroke-linecap:square;stroke-width:0.8;"/>
     </g>
     <g id="line2d_18">
      <g>
       <use style="stroke:#000000;stroke-width:0.8;" x="57.6" xlink:href="#mb6805d0613" y="157.366461"/>
      </g>
     </g>
     <g id="text_10">
      <!-- 600 -->
      <g transform="translate(31.5125 161.16568)scale(0.1 -0.1)">
       <use xlink:href="#DejaVuSans-36"/>
       <use x="63.623047" xlink:href="#DejaVuSans-30"/>
       <use x="127.246094" xlink:href="#DejaVuSans-30"/>
      </g>
     </g>
    </g>
    <g id="ytick_5">
     <g id="line2d_19">
      <path clip-path="url(#p0b1a4a12ad)" d="M 57.6 111.316604 
L 414.72 111.316604 
" style="fill:none;stroke:#b0b0b0;stroke-linecap:square;stroke-width:0.8;"/>
     </g>
     <g id="line2d_20">
      <g>
       <use style="stroke:#000000;stroke-width:0.8;" x="57.6" xlink:href="#mb6805d0613" y="111.316604"/>
      </g>
     </g>
     <g id="text_11">
      <!-- 800 -->
      <g transform="translate(31.5125 115.115823)scale(0.1 -0.1)">
       <use xlink:href="#DejaVuSans-38"/>
       <use x="63.623047" xlink:href="#DejaVuSans-30"/>
       <use x="127.246094" xlink:href="#DejaVuSans-30"/>
      </g>
     </g>
    </g>
    <g id="ytick_6">
     <g id="line2d_21">
      <path clip-path="url(#p0b1a4a12ad)" d="M 57.6 65.266747 
L 414.72 65.266747 
" style="fill:none;stroke:#b0b0b0;stroke-linecap:square;stroke-width:0.8;"/>
     </g>
     <g id="line2d_22">
      <g>
       <use style="stroke:#000000;stroke-width:0.8;" x="57.6" xlink:href="#mb6805d0613" y="65.266747"/>
      </g>
     </g>
     <g id="text_12">
      <!-- 1000 -->
      <defs>
       <path d="M 12.40625 8.296875 
L 28.515625 8.296875 
L 28.515625 63.921875 
L 10.984375 60.40625 
L 10.984375 69.390625 
L 28.421875 72.90625 
L 38.28125 72.90625 
L 38.28125 8.296875 
L 54.390625 8.296875 
L 54.390625 0 
L 12.40625 0 
z
" id="DejaVuSans-31"/>
      </defs>
      <g transform="translate(25.15 69.065966)scale(0.1 -0.1)">
       <use xlink:href="#DejaVuSans-31"/>
       <use x="63.623047" xlink:href="#DejaVuSans-30"/>
       <use x="127.246094" xlink:href="#DejaVuSans-30"/>
       <use x="190.869141" xlink:href="#DejaVuSans-30"/>
      </g>
     </g>
    </g>
    <g id="text_13">
     <!-- Delay -->
     <defs>
      <path d="M 19.671875 64.796875 
L 19.671875 8.109375 
L 31.59375 8.109375 
Q 46.6875 8.109375 53.6875 14.9375 
Q 60.6875 21.78125 60.6875 36.53125 
Q 60.6875 51.171875 53.6875 57.984375 
Q 46.6875 64.796875 31.59375 64.796875 
z
M 9.8125 72.90625 
L 30.078125 72.90625 
Q 51.265625 72.90625 61.171875 64.09375 
Q 71.09375 55.28125 71.09375 36.53125 
Q 71.09375 17.671875 61.125 8.828125 
Q 51.171875 0 30.078125 0 
L 9.8125 0 
z
" id="DejaVuSans-44"/>
      <path d="M 34.28125 27.484375 
Q 23.390625 27.484375 19.1875 25 
Q 14.984375 22.515625 14.984375 16.5 
Q 14.984375 11.71875 18.140625 8.90625 
Q 21.296875 6.109375 26.703125 6.109375 
Q 34.1875 6.109375 38.703125 11.40625 
Q 43.21875 16.703125 43.21875 25.484375 
L 43.21875 27.484375 
z
M 52.203125 31.203125 
L 52.203125 0 
L 43.21875 0 
L 43.21875 8.296875 
Q 40.140625 3.328125 35.546875 0.953125 
Q 30.953125 -1.421875 24.3125 -1.421875 
Q 15.921875 -1.421875 10.953125 3.296875 
Q 6 8.015625 6 15.921875 
Q 6 25.140625 12.171875 29.828125 
Q 18.359375 34.515625 30.609375 34.515625 
L 43.21875 34.515625 
L 43.21875 35.40625 
Q 43.21875 41.609375 39.140625 45 
Q 35.0625 48.390625 27.6875 48.390625 
Q 23 48.390625 18.546875 47.265625 
Q 14.109375 46.140625 10.015625 43.890625 
L 10.015625 52.203125 
Q 14.9375 54.109375 19.578125 55.046875 
Q 24.21875 56 28.609375 56 
Q 40.484375 56 46.34375 49.84375 
Q 52.203125 43.703125 52.203125 31.203125 
" id="DejaVuSans-61"/>
      <path d="M 32.171875 -5.078125 
Q 28.375 -14.84375 24.75 -17.8125 
Q 21.140625 -20.796875 15.09375 -20.796875 
L 7.90625 -20.796875 
L 7.90625 -13.28125 
L 13.1875 -13.28125 
Q 16.890625 -13.28125 18.9375 -11.515625 
Q 21 -9.765625 23.484375 -3.21875 
L 25.09375 0.875 
L 2.984375 54.6875 
L 12.5 54.6875 
L 29.59375 11.921875 
L 46.6875 54.6875 
L 56.203125 54.6875 
z
" id="DejaVuSans-79"/>
     </defs>
     <g transform="translate(19.070312 188.867063)rotate(-90)scale(0.1 -0.1)">
      <use xlink:href="#DejaVuSans-44"/>
      <use x="77.001953" xlink:href="#DejaVuSans-65"/>
      <use x="138.525391" xlink:href="#DejaVuSans-6c"/>
      <use x="166.308594" xlink:href="#DejaVuSans-61"/>
      <use x="227.587891" xlink:href="#DejaVuSans-79"/>
     </g>
    </g>
   </g>
   <g id="line2d_23">
    <path clip-path="url(#p0b1a4a12ad)" d="M 57.6 295.477764 
L 61.207273 295.46535 
L 64.814545 295.429743 
L 68.421818 295.422297 
L 72.029091 295.339112 
L 75.636364 295.235051 
L 79.243636 295.15542 
L 82.850909 294.966596 
L 86.458182 295.000239 
L 90.065455 295.26256 
L 93.672727 294.819764 
L 97.28 294.846898 
L 100.887273 294.654569 
L 104.494545 294.675314 
L 108.101818 294.648158 
L 111.709091 294.615704 
L 115.316364 294.715508 
L 118.923636 294.059218 
L 122.530909 294.450125 
L 126.138182 293.748071 
L 129.745455 293.79412 
L 133.352727 293.931477 
L 136.96 293.36581 
L 140.567273 294.094537 
L 144.174545 293.222091 
L 147.781818 294.188455 
L 151.389091 293.365969 
L 154.996364 292.644751 
L 158.603636 292.928001 
L 162.210909 293.704268 
L 165.818182 292.881235 
L 169.425455 292.303041 
L 173.032727 290.733904 
L 176.64 292.026387 
L 180.247273 291.217124 
L 183.854545 291.191712 
L 187.461818 289.279031 
L 191.069091 291.994135 
L 194.676364 290.556893 
L 198.283636 292.328289 
L 201.890909 289.560708 
L 205.498182 289.677207 
L 209.105455 289.158312 
L 212.712727 289.045225 
L 216.32 288.415819 
L 219.927273 289.378912 
L 223.534545 287.788027 
L 227.141818 285.157521 
L 230.749091 286.379462 
L 234.356364 287.970516 
L 237.963636 289.726929 
L 241.570909 287.015751 
L 245.178182 288.099801 
L 248.785455 285.374617 
L 252.392727 289.025853 
L 256 287.912436 
L 259.607273 283.576815 
L 263.214545 286.777767 
L 266.821818 283.535825 
L 270.429091 283.378181 
L 274.036364 283.823081 
L 277.643636 279.206269 
L 281.250909 280.18192 
L 284.858182 279.646481 
L 288.465455 281.853827 
L 292.072727 280.882818 
L 295.68 282.046993 
L 299.287273 281.203153 
L 302.894545 281.521425 
L 306.501818 277.301684 
L 310.109091 282.006082 
L 313.716364 278.227002 
L 317.323636 278.018175 
L 320.930909 277.901359 
L 324.538182 277.768891 
L 328.145455 280.877508 
L 331.752727 280.937955 
L 335.36 274.116564 
L 338.967273 276.291034 
L 342.574545 281.570009 
L 346.181818 271.347061 
L 349.789091 274.377848 
L 353.396364 275.865021 
L 357.003636 277.345669 
L 360.610909 269.065482 
L 364.218182 276.971018 
L 367.825455 270.707623 
L 371.432727 264.379268 
L 375.04 272.819451 
L 378.647273 270.864394 
L 382.254545 270.452193 
L 385.861818 273.141587 
L 389.469091 265.675302 
L 393.076364 270.656504 
L 396.683636 269.590195 
L 400.290909 261.15473 
L 403.898182 273.596447 
L 407.505455 268.479894 
L 411.112727 256.291338 
L 414.72 264.926673 
" style="fill:none;stroke:#000080;stroke-linecap:square;"/>
    <defs>
     <path d="M 0 1.5 
C 0.397805 1.5 0.77937 1.341951 1.06066 1.06066 
C 1.341951 0.77937 1.5 0.397805 1.5 0 
C 1.5 -0.397805 1.341951 -0.77937 1.06066 -1.06066 
C 0.77937 -1.341951 0.397805 -1.5 0 -1.5 
C -0.397805 -1.5 -0.77937 -1.341951 -1.06066 -1.06066 
C -1.341951 -0.77937 -1.5 -0.397805 -1.5 0 
C -1.5 0.397805 -1.341951 0.77937 -1.06066 1.06066 
C -0.77937 1.341951 -0.397805 1.5 0 1.5 
z
" id="m8c9895786d" style="stroke:#000080;"/>
    </defs>
    <g clip-path="url(#p0b1a4a12ad)">
     <use style="fill:#000080;stroke:#000080;" x="57.6" xlink:href="#m8c9895786d" y="295.477764"/>
     <use style="fill:#000080;stroke:#000080;" x="61.207273" xlink:href="#m8c9895786d" y="295.46535"/>
     <use style="fill:#000080;stroke:#000080;" x="64.814545" xlink:href="#m8c9895786d" y="295.429743"/>
     <use style="fill:#000080;stroke:#000080;" x="68.421818" xlink:href="#m8c9895786d" y="295.422297"/>
     <use style="fill:#000080;stroke:#000080;" x="72.029091" xlink:href="#m8c9895786d" y="295.339112"/>
     <use style="fill:#000080;stroke:#000080;" x="75.636364" xlink:href="#m8c9895786d" y="295.235051"/>
     <use style="fill:#000080;stroke:#000080;" x="79.243636" xlink:href="#m8c9895786d" y="295.15542"/>
     <use style="fill:#000080;stroke:#000080;" x="82.850909" xlink:href="#m8c9895786d" y="294.966596"/>
     <use style="fill:#000080;stroke:#000080;" x="86.458182" xlink:href="#m8c9895786d" y="295.000239"/>
     <use style="fill:#000080;stroke:#000080;" x="90.065455" xlink:href="#m8c9895786d" y="295.26256"/>
     <use style="fill:#000080;stroke:#000080;" x="93.672727" xlink:href="#m8c9895786d" y="294.819764"/>
     <use style="fill:#000080;stroke:#000080;" x="97.28" xlink:href="#m8c9895786d" y="294.846898"/>
     <use style="fill:#000080;stroke:#000080;" x="100.887273" xlink:href="#m8c9895786d" y="294.654569"/>
     <use style="fill:#000080;stroke:#000080;" x="104.494545" xlink:href="#m8c9895786d" y="294.675314"/>
     <use style="fill:#000080;stroke:#000080;" x="108.101818" xlink:href="#m8c9895786d" y="294.648158"/>
     <use style="fill:#000080;stroke:#000080;" x="111.709091" xlink:href="#m8c9895786d" y="294.615704"/>
     <use style="fill:#000080;stroke:#000080;" x="115.316364" xlink:href="#m8c9895786d" y="294.715508"/>
     <use style="fill:#000080;stroke:#000080;" x="118.923636" xlink:href="#m8c9895786d" y="294.059218"/>
     <use style="fill:#000080;stroke:#000080;" x="122.530909" xlink:href="#m8c9895786d" y="294.450125"/>
     <use style="fill:#000080;stroke:#000080;" x="126.138182" xlink:href="#m8c9895786d" y="293.748071"/>
     <use style="fill:#000080;stroke:#000080;" x="129.745455" xlink:href="#m8c9895786d" y="293.79412"/>
     <use style="fill:#000080;stroke:#000080;" x="133.352727" xlink:href="#m8c9895786d" y="293.931477"/>
     <use style="fill:#000080;stroke:#000080;" x="136.96" xlink:href="#m8c9895786d" y="293.36581"/>
     <use style="fill:#000080;stroke:#000080;" x="140.567273" xlink:href="#m8c9895786d" y="294.094537"/>
     <use style="fill:#000080;stroke:#000080;" x="144.174545" xlink:href="#m8c9895786d" y="293.222091"/>
     <use style="fill:#000080;stroke:#000080;" x="147.781818" xlink:href="#m8c9895786d" y="294.188455"/>
     <use style="fill:#000080;stroke:#000080;" x="151.389091" xlink:href="#m8c9895786d" y="293.365969"/>
     <use style="fill:#000080;stroke:#000080;" x="154.996364" xlink:href="#m8c9895786d" y="292.644751"/>
     <use style="fill:#000080;stroke:#000080;" x="158.603636" xlink:href="#m8c9895786d" y="292.928001"/>
     <use style="fill:#000080;stroke:#000080;" x="162.210909" xlink:href="#m8c9895786d" y="293.704268"/>
     <use style="fill:#000080;stroke:#000080;" x="165.818182" xlink:href="#m8c9895786d" y="292.881235"/>
     <use style="fill:#000080;stroke:#000080;" x="169.425455" xlink:href="#m8c9895786d" y="292.303041"/>
     <use style="fill:#000080;stroke:#000080;" x="173.032727" xlink:href="#m8c9895786d" y="290.733904"/>
     <use style="fill:#000080;stroke:#000080;" x="176.64" xlink:href="#m8c9895786d" y="292.026387"/>
     <use style="fill:#000080;stroke:#000080;" x="180.247273" xlink:href="#m8c9895786d" y="291.217124"/>
     <use style="fill:#000080;stroke:#000080;" x="183.854545" xlink:href="#m8c9895786d" y="291.191712"/>
     <use style="fill:#000080;stroke:#000080;" x="187.461818" xlink:href="#m8c9895786d" y="289.279031"/>
     <use style="fill:#000080;stroke:#000080;" x="191.069091" xlink:href="#m8c9895786d" y="291.994135"/>
     <use style="fill:#000080;stroke:#000080;" x="194.676364" xlink:href="#m8c9895786d" y="290.556893"/>
     <use style="fill:#000080;stroke:#000080;" x="198.283636" xlink:href="#m8c9895786d" y="292.328289"/>
     <use style="fill:#000080;stroke:#000080;" x="201.890909" xlink:href="#m8c9895786d" y="289.560708"/>
     <use style="fill:#000080;stroke:#000080;" x="205.498182" xlink:href="#m8c9895786d" y="289.677207"/>
     <use style="fill:#000080;stroke:#000080;" x="209.105455" xlink:href="#m8c9895786d" y="289.158312"/>
     <use style="fill:#000080;stroke:#000080;" x="212.712727" xlink:href="#m8c9895786d" y="289.045225"/>
     <use style="fill:#000080;stroke:#000080;" x="216.32" xlink:href="#m8c9895786d" y="288.415819"/>
     <use style="fill:#000080;stroke:#000080;" x="219.927273" xlink:href="#m8c9895786d" y="289.378912"/>
     <use style="fill:#000080;stroke:#000080;" x="223.534545" xlink:href="#m8c9895786d" y="287.788027"/>
     <use style="fill:#000080;stroke:#000080;" x="227.141818" xlink:href="#m8c9895786d" y="285.157521"/>
     <use style="fill:#000080;stroke:#000080;" x="230.749091" xlink:href="#m8c9895786d" y="286.379462"/>
     <use style="fill:#000080;stroke:#000080;" x="234.356364" xlink:href="#m8c9895786d" y="287.970516"/>
     <use style="fill:#000080;stroke:#000080;" x="237.963636" xlink:href="#m8c9895786d" y="289.726929"/>
     <use style="fill:#000080;stroke:#000080;" x="241.570909" xlink:href="#m8c9895786d" y="287.015751"/>
     <use style="fill:#000080;stroke:#000080;" x="245.178182" xlink:href="#m8c9895786d" y="288.099801"/>
     <use style="fill:#000080;stroke:#000080;" x="248.785455" xlink:href="#m8c9895786d" y="285.374617"/>
     <use style="fill:#000080;stroke:#000080;" x="252.392727" xlink:href="#m8c9895786d" y="289.025853"/>
     <use style="fill:#000080;stroke:#000080;" x="256" xlink:href="#m8c9895786d" y="287.912436"/>
     <use style="fill:#000080;stroke:#000080;" x="259.607273" xlink:href="#m8c9895786d" y="283.576815"/>
     <use style="fill:#000080;stroke:#000080;" x="263.214545" xlink:href="#m8c9895786d" y="286.777767"/>
     <use style="fill:#000080;stroke:#000080;" x="266.821818" xlink:href="#m8c9895786d" y="283.535825"/>
     <use style="fill:#000080;stroke:#000080;" x="270.429091" xlink:href="#m8c9895786d" y="283.378181"/>
     <use style="fill:#000080;stroke:#000080;" x="274.036364" xlink:href="#m8c9895786d" y="283.823081"/>
     <use style="fill:#000080;stroke:#000080;" x="277.643636" xlink:href="#m8c9895786d" y="279.206269"/>
     <use style="fill:#000080;stroke:#000080;" x="281.250909" xlink:href="#m8c9895786d" y="280.18192"/>
     <use style="fill:#000080;stroke:#000080;" x="284.858182" xlink:href="#m8c9895786d" y="279.646481"/>
     <use style="fill:#000080;stroke:#000080;" x="288.465455" xlink:href="#m8c9895786d" y="281.853827"/>
     <use style="fill:#000080;stroke:#000080;" x="292.072727" xlink:href="#m8c9895786d" y="280.882818"/>
     <use style="fill:#000080;stroke:#000080;" x="295.68" xlink:href="#m8c9895786d" y="282.046993"/>
     <use style="fill:#000080;stroke:#000080;" x="299.287273" xlink:href="#m8c9895786d" y="281.203153"/>
     <use style="fill:#000080;stroke:#000080;" x="302.894545" xlink:href="#m8c9895786d" y="281.521425"/>
     <use style="fill:#000080;stroke:#000080;" x="306.501818" xlink:href="#m8c9895786d" y="277.301684"/>
     <use style="fill:#000080;stroke:#000080;" x="310.109091" xlink:href="#m8c9895786d" y="282.006082"/>
     <use style="fill:#000080;stroke:#000080;" x="313.716364" xlink:href="#m8c9895786d" y="278.227002"/>
     <use style="fill:#000080;stroke:#000080;" x="317.323636" xlink:href="#m8c9895786d" y="278.018175"/>
     <use style="fill:#000080;stroke:#000080;" x="320.930909" xlink:href="#m8c9895786d" y="277.901359"/>
     <use style="fill:#000080;stroke:#000080;" x="324.538182" xlink:href="#m8c9895786d" y="277.768891"/>
     <use style="fill:#000080;stroke:#000080;" x="328.145455" xlink:href="#m8c9895786d" y="280.877508"/>
     <use style="fill:#000080;stroke:#000080;" x="331.752727" xlink:href="#m8c9895786d" y="280.937955"/>
     <use style="fill:#000080;stroke:#000080;" x="335.36" xlink:href="#m8c9895786d" y="274.116564"/>
     <use style="fill:#000080;stroke:#000080;" x="338.967273" xlink:href="#m8c9895786d" y="276.291034"/>
     <use style="fill:#000080;stroke:#000080;" x="342.574545" xlink:href="#m8c9895786d" y="281.570009"/>
     <use style="fill:#000080;stroke:#000080;" x="346.181818" xlink:href="#m8c9895786d" y="271.347061"/>
     <use style="fill:#000080;stroke:#000080;" x="349.789091" xlink:href="#m8c9895786d" y="274.377848"/>
     <use style="fill:#000080;stroke:#000080;" x="353.396364" xlink:href="#m8c9895786d" y="275.865021"/>
     <use style="fill:#000080;stroke:#000080;" x="357.003636" xlink:href="#m8c9895786d" y="277.345669"/>
     <use style="fill:#000080;stroke:#000080;" x="360.610909" xlink:href="#m8c9895786d" y="269.065482"/>
     <use style="fill:#000080;stroke:#000080;" x="364.218182" xlink:href="#m8c9895786d" y="276.971018"/>
     <use style="fill:#000080;stroke:#000080;" x="367.825455" xlink:href="#m8c9895786d" y="270.707623"/>
     <use style="fill:#000080;stroke:#000080;" x="371.432727" xlink:href="#m8c9895786d" y="264.379268"/>
     <use style="fill:#000080;stroke:#000080;" x="375.04" xlink:href="#m8c9895786d" y="272.819451"/>
     <use style="fill:#000080;stroke:#000080;" x="378.647273" xlink:href="#m8c9895786d" y="270.864394"/>
     <use style="fill:#000080;stroke:#000080;" x="382.254545" xlink:href="#m8c9895786d" y="270.452193"/>
     <use style="fill:#000080;stroke:#000080;" x="385.861818" xlink:href="#m8c9895786d" y="273.141587"/>
     <use style="fill:#000080;stroke:#000080;" x="389.469091" xlink:href="#m8c9895786d" y="265.675302"/>
     <use style="fill:#000080;stroke:#000080;" x="393.076364" xlink:href="#m8c9895786d" y="270.656504"/>
     <use style="fill:#000080;stroke:#000080;" x="396.683636" xlink:href="#m8c9895786d" y="269.590195"/>
     <use style="fill:#000080;stroke:#000080;" x="400.290909" xlink:href="#m8c9895786d" y="261.15473"/>
     <use style="fill:#000080;stroke:#000080;" x="403.898182" xlink:href="#m8c9895786d" y="273.596447"/>
     <use style="fill:#000080;stroke:#000080;" x="407.505455" xlink:href="#m8c9895786d" y="268.479894"/>
     <use style="fill:#000080;stroke:#000080;" x="411.112727" xlink:href="#m8c9895786d" y="256.291338"/>
     <use style="fill:#000080;stroke:#000080;" x="414.72" xlink:href="#m8c9895786d" y="264.926673"/>
    </g>
   </g>
   <g id="line2d_24">
    <path clip-path="url(#p0b1a4a12ad)" d="M 57.6 295.488 
L 61.207273 295.479968 
L 64.814545 295.427528 
L 68.421818 295.347747 
L 72.029091 295.368648 
L 75.636364 295.29461 
L 79.243636 295.098099 
L 82.850909 294.911483 
L 86.458182 294.541336 
L 90.065455 294.621702 
L 93.672727 293.81366 
L 97.28 293.218837 
L 100.887273 292.534078 
L 104.494545 292.159944 
L 108.101818 289.563335 
L 111.709091 288.330094 
L 115.316364 289.83841 
L 118.923636 288.904034 
L 122.530909 287.803798 
L 126.138182 283.498228 
L 129.745455 291.537144 
L 133.352727 284.108451 
L 136.96 279.883742 
L 140.567273 280.236075 
L 144.174545 274.591346 
L 147.781818 276.895392 
L 151.389091 271.432086 
L 154.996364 267.583421 
L 158.603636 267.192442 
L 162.210909 265.957075 
L 165.818182 259.22262 
L 169.425455 265.753022 
L 173.032727 247.681508 
L 176.64 253.47681 
L 180.247273 249.897575 
L 183.854545 263.362407 
L 187.461818 242.503351 
L 191.069091 225.01112 
L 194.676364 232.022406 
L 198.283636 213.436475 
L 201.890909 204.50429 
L 205.498182 214.502298 
L 209.105455 172.897236 
L 212.712727 199.453132 
L 216.32 170.537182 
L 219.927273 178.229567 
L 223.534545 166.851869 
L 227.141818 157.629912 
L 230.749091 143.887199 
L 234.356364 153.132579 
L 237.963636 170.884553 
L 241.570909 126.913971 
L 245.178182 128.438038 
L 248.785455 151.429247 
L 252.392727 139.001803 
L 256 110.417784 
L 259.607273 137.050776 
L 263.214545 114.91814 
L 266.821818 121.104704 
L 270.429091 136.203649 
L 274.036364 107.881042 
L 277.643636 115.588622 
L 281.250909 106.969327 
L 284.858182 109.395519 
L 288.465455 111.727592 
L 292.072727 110.041242 
L 295.68 79.70793 
L 299.287273 87.836129 
L 302.894545 78.250913 
L 306.501818 89.337805 
L 310.109091 93.80193 
L 313.716364 88.883229 
L 317.323636 82.467114 
L 320.930909 83.381984 
L 324.538182 94.828147 
L 328.145455 85.540984 
L 331.752727 76.310776 
L 335.36 81.655369 
L 338.967273 87.277519 
L 342.574545 79.125197 
L 346.181818 91.175062 
L 349.789091 84.541635 
L 353.396364 80.975554 
L 357.003636 79.138073 
L 360.610909 71.131721 
L 364.218182 79.725338 
L 367.825455 83.554716 
L 371.432727 82.826267 
L 375.04 74.748133 
L 378.647273 80.828441 
L 382.254545 79.602379 
L 385.861818 73.877593 
L 389.469091 71.873599 
L 393.076364 70.806061 
L 396.683636 81.992163 
L 400.290909 69.191657 
L 403.898182 75.803355 
L 407.505455 75.000263 
L 411.112727 73.521313 
L 414.72 69.313108 
" style="fill:none;stroke:#00d4ff;stroke-linecap:square;"/>
    <defs>
     <path d="M 0 1.5 
C 0.397805 1.5 0.77937 1.341951 1.06066 1.06066 
C 1.341951 0.77937 1.5 0.397805 1.5 0 
C 1.5 -0.397805 1.341951 -0.77937 1.06066 -1.06066 
C 0.77937 -1.341951 0.397805 -1.5 0 -1.5 
C -0.397805 -1.5 -0.77937 -1.341951 -1.06066 -1.06066 
C -1.341951 -0.77937 -1.5 -0.397805 -1.5 0 
C -1.5 0.397805 -1.341951 0.77937 -1.06066 1.06066 
C -0.77937 1.341951 -0.397805 1.5 0 1.5 
z
" id="m23324c478d" style="stroke:#00d4ff;"/>
    </defs>
    <g clip-path="url(#p0b1a4a12ad)">
     <use style="fill:#00d4ff;stroke:#00d4ff;" x="57.6" xlink:href="#m23324c478d" y="295.488"/>
     <use style="fill:#00d4ff;stroke:#00d4ff;" x="61.207273" xlink:href="#m23324c478d" y="295.479968"/>
     <use style="fill:#00d4ff;stroke:#00d4ff;" x="64.814545" xlink:href="#m23324c478d" y="295.427528"/>
     <use style="fill:#00d4ff;stroke:#00d4ff;" x="68.421818" xlink:href="#m23324c478d" y="295.347747"/>
     <use style="fill:#00d4ff;stroke:#00d4ff;" x="72.029091" xlink:href="#m23324c478d" y="295.368648"/>
     <use style="fill:#00d4ff;stroke:#00d4ff;" x="75.636364" xlink:href="#m23324c478d" y="295.29461"/>
     <use style="fill:#00d4ff;stroke:#00d4ff;" x="79.243636" xlink:href="#m23324c478d" y="295.098099"/>
     <use style="fill:#00d4ff;stroke:#00d4ff;" x="82.850909" xlink:href="#m23324c478d" y="294.911483"/>
     <use style="fill:#00d4ff;stroke:#00d4ff;" x="86.458182" xlink:href="#m23324c478d" y="294.541336"/>
     <use style="fill:#00d4ff;stroke:#00d4ff;" x="90.065455" xlink:href="#m23324c478d" y="294.621702"/>
     <use style="fill:#00d4ff;stroke:#00d4ff;" x="93.672727" xlink:href="#m23324c478d" y="293.81366"/>
     <use style="fill:#00d4ff;stroke:#00d4ff;" x="97.28" xlink:href="#m23324c478d" y="293.218837"/>
     <use style="fill:#00d4ff;stroke:#00d4ff;" x="100.887273" xlink:href="#m23324c478d" y="292.534078"/>
     <use style="fill:#00d4ff;stroke:#00d4ff;" x="104.494545" xlink:href="#m23324c478d" y="292.159944"/>
     <use style="fill:#00d4ff;stroke:#00d4ff;" x="108.101818" xlink:href="#m23324c478d" y="289.563335"/>
     <use style="fill:#00d4ff;stroke:#00d4ff;" x="111.709091" xlink:href="#m23324c478d" y="288.330094"/>
     <use style="fill:#00d4ff;stroke:#00d4ff;" x="115.316364" xlink:href="#m23324c478d" y="289.83841"/>
     <use style="fill:#00d4ff;stroke:#00d4ff;" x="118.923636" xlink:href="#m23324c478d" y="288.904034"/>
     <use style="fill:#00d4ff;stroke:#00d4ff;" x="122.530909" xlink:href="#m23324c478d" y="287.803798"/>
     <use style="fill:#00d4ff;stroke:#00d4ff;" x="126.138182" xlink:href="#m23324c478d" y="283.498228"/>
     <use style="fill:#00d4ff;stroke:#00d4ff;" x="129.745455" xlink:href="#m23324c478d" y="291.537144"/>
     <use style="fill:#00d4ff;stroke:#00d4ff;" x="133.352727" xlink:href="#m23324c478d" y="284.108451"/>
     <use style="fill:#00d4ff;stroke:#00d4ff;" x="136.96" xlink:href="#m23324c478d" y="279.883742"/>
     <use style="fill:#00d4ff;stroke:#00d4ff;" x="140.567273" xlink:href="#m23324c478d" y="280.236075"/>
     <use style="fill:#00d4ff;stroke:#00d4ff;" x="144.174545" xlink:href="#m23324c478d" y="274.591346"/>
     <use style="fill:#00d4ff;stroke:#00d4ff;" x="147.781818" xlink:href="#m23324c478d" y="276.895392"/>
     <use style="fill:#00d4ff;stroke:#00d4ff;" x="151.389091" xlink:href="#m23324c478d" y="271.432086"/>
     <use style="fill:#00d4ff;stroke:#00d4ff;" x="154.996364" xlink:href="#m23324c478d" y="267.583421"/>
     <use style="fill:#00d4ff;stroke:#00d4ff;" x="158.603636" xlink:href="#m23324c478d" y="267.192442"/>
     <use style="fill:#00d4ff;stroke:#00d4ff;" x="162.210909" xlink:href="#m23324c478d" y="265.957075"/>
     <use style="fill:#00d4ff;stroke:#00d4ff;" x="165.818182" xlink:href="#m23324c478d" y="259.22262"/>
     <use style="fill:#00d4ff;stroke:#00d4ff;" x="169.425455" xlink:href="#m23324c478d" y="265.753022"/>
     <use style="fill:#00d4ff;stroke:#00d4ff;" x="173.032727" xlink:href="#m23324c478d" y="247.681508"/>
     <use style="fill:#00d4ff;stroke:#00d4ff;" x="176.64" xlink:href="#m23324c478d" y="253.47681"/>
     <use style="fill:#00d4ff;stroke:#00d4ff;" x="180.247273" xlink:href="#m23324c478d" y="249.897575"/>
     <use style="fill:#00d4ff;stroke:#00d4ff;" x="183.854545" xlink:href="#m23324c478d" y="263.362407"/>
     <use style="fill:#00d4ff;stroke:#00d4ff;" x="187.461818" xlink:href="#m23324c478d" y="242.503351"/>
     <use style="fill:#00d4ff;stroke:#00d4ff;" x="191.069091" xlink:href="#m23324c478d" y="225.01112"/>
     <use style="fill:#00d4ff;stroke:#00d4ff;" x="194.676364" xlink:href="#m23324c478d" y="232.022406"/>
     <use style="fill:#00d4ff;stroke:#00d4ff;" x="198.283636" xlink:href="#m23324c478d" y="213.436475"/>
     <use style="fill:#00d4ff;stroke:#00d4ff;" x="201.890909" xlink:href="#m23324c478d" y="204.50429"/>
     <use style="fill:#00d4ff;stroke:#00d4ff;" x="205.498182" xlink:href="#m23324c478d" y="214.502298"/>
     <use style="fill:#00d4ff;stroke:#00d4ff;" x="209.105455" xlink:href="#m23324c478d" y="172.897236"/>
     <use style="fill:#00d4ff;stroke:#00d4ff;" x="212.712727" xlink:href="#m23324c478d" y="199.453132"/>
     <use style="fill:#00d4ff;stroke:#00d4ff;" x="216.32" xlink:href="#m23324c478d" y="170.537182"/>
     <use style="fill:#00d4ff;stroke:#00d4ff;" x="219.927273" xlink:href="#m23324c478d" y="178.229567"/>
     <use style="fill:#00d4ff;stroke:#00d4ff;" x="223.534545" xlink:href="#m23324c478d" y="166.851869"/>
     <use style="fill:#00d4ff;stroke:#00d4ff;" x="227.141818" xlink:href="#m23324c478d" y="157.629912"/>
     <use style="fill:#00d4ff;stroke:#00d4ff;" x="230.749091" xlink:href="#m23324c478d" y="143.887199"/>
     <use style="fill:#00d4ff;stroke:#00d4ff;" x="234.356364" xlink:href="#m23324c478d" y="153.132579"/>
     <use style="fill:#00d4ff;stroke:#00d4ff;" x="237.963636" xlink:href="#m23324c478d" y="170.884553"/>
     <use style="fill:#00d4ff;stroke:#00d4ff;" x="241.570909" xlink:href="#m23324c478d" y="126.913971"/>
     <use style="fill:#00d4ff;stroke:#00d4ff;" x="245.178182" xlink:href="#m23324c478d" y="128.438038"/>
     <use style="fill:#00d4ff;stroke:#00d4ff;" x="248.785455" xlink:href="#m23324c478d" y="151.429247"/>
     <use style="fill:#00d4ff;stroke:#00d4ff;" x="252.392727" xlink:href="#m23324c478d" y="139.001803"/>
     <use style="fill:#00d4ff;stroke:#00d4ff;" x="256" xlink:href="#m23324c478d" y="110.417784"/>
     <use style="fill:#00d4ff;stroke:#00d4ff;" x="259.607273" xlink:href="#m23324c478d" y="137.050776"/>
     <use style="fill:#00d4ff;stroke:#00d4ff;" x="263.214545" xlink:href="#m23324c478d" y="114.91814"/>
     <use style="fill:#00d4ff;stroke:#00d4ff;" x="266.821818" xlink:href="#m23324c478d" y="121.104704"/>
     <use style="fill:#00d4ff;stroke:#00d4ff;" x="270.429091" xlink:href="#m23324c478d" y="136.203649"/>
     <use style="fill:#00d4ff;stroke:#00d4ff;" x="274.036364" xlink:href="#m23324c478d" y="107.881042"/>
     <use style="fill:#00d4ff;stroke:#00d4ff;" x="277.643636" xlink:href="#m23324c478d" y="115.588622"/>
     <use style="fill:#00d4ff;stroke:#00d4ff;" x="281.250909" xlink:href="#m23324c478d" y="106.969327"/>
     <use style="fill:#00d4ff;stroke:#00d4ff;" x="284.858182" xlink:href="#m23324c478d" y="109.395519"/>
     <use style="fill:#00d4ff;stroke:#00d4ff;" x="288.465455" xlink:href="#m23324c478d" y="111.727592"/>
     <use style="fill:#00d4ff;stroke:#00d4ff;" x="292.072727" xlink:href="#m23324c478d" y="110.041242"/>
     <use style="fill:#00d4ff;stroke:#00d4ff;" x="295.68" xlink:href="#m23324c478d" y="79.70793"/>
     <use style="fill:#00d4ff;stroke:#00d4ff;" x="299.287273" xlink:href="#m23324c478d" y="87.836129"/>
     <use style="fill:#00d4ff;stroke:#00d4ff;" x="302.894545" xlink:href="#m23324c478d" y="78.250913"/>
     <use style="fill:#00d4ff;stroke:#00d4ff;" x="306.501818" xlink:href="#m23324c478d" y="89.337805"/>
     <use style="fill:#00d4ff;stroke:#00d4ff;" x="310.109091" xlink:href="#m23324c478d" y="93.80193"/>
     <use style="fill:#00d4ff;stroke:#00d4ff;" x="313.716364" xlink:href="#m23324c478d" y="88.883229"/>
     <use style="fill:#00d4ff;stroke:#00d4ff;" x="317.323636" xlink:href="#m23324c478d" y="82.467114"/>
     <use style="fill:#00d4ff;stroke:#00d4ff;" x="320.930909" xlink:href="#m23324c478d" y="83.381984"/>
     <use style="fill:#00d4ff;stroke:#00d4ff;" x="324.538182" xlink:href="#m23324c478d" y="94.828147"/>
     <use style="fill:#00d4ff;stroke:#00d4ff;" x="328.145455" xlink:href="#m23324c478d" y="85.540984"/>
     <use style="fill:#00d4ff;stroke:#00d4ff;" x="331.752727" xlink:href="#m23324c478d" y="76.310776"/>
     <use style="fill:#00d4ff;stroke:#00d4ff;" x="335.36" xlink:href="#m23324c478d" y="81.655369"/>
     <use style="fill:#00d4ff;stroke:#00d4ff;" x="338.967273" xlink:href="#m23324c478d" y="87.277519"/>
     <use style="fill:#00d4ff;stroke:#00d4ff;" x="342.574545" xlink:href="#m23324c478d" y="79.125197"/>
     <use style="fill:#00d4ff;stroke:#00d4ff;" x="346.181818" xlink:href="#m23324c478d" y="91.175062"/>
     <use style="fill:#00d4ff;stroke:#00d4ff;" x="349.789091" xlink:href="#m23324c478d" y="84.541635"/>
     <use style="fill:#00d4ff;stroke:#00d4ff;" x="353.396364" xlink:href="#m23324c478d" y="80.975554"/>
     <use style="fill:#00d4ff;stroke:#00d4ff;" x="357.003636" xlink:href="#m23324c478d" y="79.138073"/>
     <use style="fill:#00d4ff;stroke:#00d4ff;" x="360.610909" xlink:href="#m23324c478d" y="71.131721"/>
     <use style="fill:#00d4ff;stroke:#00d4ff;" x="364.218182" xlink:href="#m23324c478d" y="79.725338"/>
     <use style="fill:#00d4ff;stroke:#00d4ff;" x="367.825455" xlink:href="#m23324c478d" y="83.554716"/>
     <use style="fill:#00d4ff;stroke:#00d4ff;" x="371.432727" xlink:href="#m23324c478d" y="82.826267"/>
     <use style="fill:#00d4ff;stroke:#00d4ff;" x="375.04" xlink:href="#m23324c478d" y="74.748133"/>
     <use style="fill:#00d4ff;stroke:#00d4ff;" x="378.647273" xlink:href="#m23324c478d" y="80.828441"/>
     <use style="fill:#00d4ff;stroke:#00d4ff;" x="382.254545" xlink:href="#m23324c478d" y="79.602379"/>
     <use style="fill:#00d4ff;stroke:#00d4ff;" x="385.861818" xlink:href="#m23324c478d" y="73.877593"/>
     <use style="fill:#00d4ff;stroke:#00d4ff;" x="389.469091" xlink:href="#m23324c478d" y="71.873599"/>
     <use style="fill:#00d4ff;stroke:#00d4ff;" x="393.076364" xlink:href="#m23324c478d" y="70.806061"/>
     <use style="fill:#00d4ff;stroke:#00d4ff;" x="396.683636" xlink:href="#m23324c478d" y="81.992163"/>
     <use style="fill:#00d4ff;stroke:#00d4ff;" x="400.290909" xlink:href="#m23324c478d" y="69.191657"/>
     <use style="fill:#00d4ff;stroke:#00d4ff;" x="403.898182" xlink:href="#m23324c478d" y="75.803355"/>
     <use style="fill:#00d4ff;stroke:#00d4ff;" x="407.505455" xlink:href="#m23324c478d" y="75.000263"/>
     <use style="fill:#00d4ff;stroke:#00d4ff;" x="411.112727" xlink:href="#m23324c478d" y="73.521313"/>
     <use style="fill:#00d4ff;stroke:#00d4ff;" x="414.72" xlink:href="#m23324c478d" y="69.313108"/>
    </g>
   </g>
   <g id="line2d_25">
    <path clip-path="url(#p0b1a4a12ad)" d="M 57.6 295.486137 
L 61.207273 295.473966 
L 64.814545 295.43127 
L 68.421818 295.423104 
L 72.029091 295.397088 
L 75.636364 295.248312 
L 79.243636 295.221802 
L 82.850909 294.889435 
L 86.458182 294.824268 
L 90.065455 294.123626 
L 93.672727 293.277369 
L 97.28 292.887271 
L 100.887273 293.481625 
L 104.494545 290.665355 
L 108.101818 285.922707 
L 111.709091 285.458516 
L 115.316364 278.743096 
L 118.923636 276.282567 
L 122.530909 252.631676 
L 126.138182 229.818753 
L 129.745455 221.036628 
L 133.352727 185.18315 
L 136.96 162.664639 
L 140.567273 116.548564 
L 144.174545 106.615756 
L 147.781818 103.596621 
L 151.389091 92.817401 
L 154.996364 92.458123 
L 158.603636 85.259301 
L 162.210909 68.789308 
L 165.818182 74.900567 
L 169.425455 85.222869 
L 173.032727 87.156398 
L 176.64 67.588891 
L 180.247273 68.805922 
L 183.854545 78.210088 
L 187.461818 66.904361 
L 191.069091 71.406379 
L 194.676364 70.932596 
L 198.283636 68.686732 
L 201.890909 62.591673 
L 205.498182 64.907769 
L 209.105455 69.481886 
L 212.712727 60.288214 
L 216.32 62.030298 
L 219.927273 55.763213 
L 223.534545 65.460529 
L 227.141818 74.299745 
L 230.749091 67.871596 
L 234.356364 73.605318 
L 237.963636 61.483311 
L 241.570909 68.073147 
L 245.178182 72.407595 
L 248.785455 66.401595 
L 252.392727 67.613283 
L 256 60.733576 
L 259.607273 65.824924 
L 263.214545 58.408627 
L 266.821818 68.996209 
L 270.429091 58.4731 
L 274.036364 61.535427 
L 277.643636 64.300951 
L 281.250909 69.568246 
L 284.858182 68.531629 
L 288.465455 73.424965 
L 292.072727 68.343734 
L 295.68 60.68307 
L 299.287273 63.365702 
L 302.894545 71.249875 
L 306.501818 53.568 
L 310.109091 69.428987 
L 313.716364 68.527541 
L 317.323636 69.873254 
L 320.930909 65.266747 
L 324.538182 63.712533 
L 328.145455 64.244783 
L 331.752727 57.376636 
L 335.36 65.882387 
L 338.967273 73.026053 
L 342.574545 64.092327 
L 346.181818 65.566736 
L 349.789091 61.26787 
L 353.396364 75.093059 
L 357.003636 65.891605 
L 360.610909 62.665922 
L 364.218182 71.811143 
L 367.825455 68.481227 
L 371.432727 58.604497 
L 375.04 68.142452 
L 378.647273 75.653917 
L 382.254545 60.276717 
L 385.861818 70.292949 
L 389.469091 65.0107 
L 393.076364 67.608876 
L 396.683636 58.568005 
L 400.290909 61.555703 
L 403.898182 68.989543 
L 407.505455 67.412892 
L 411.112727 64.928004 
L 414.72 62.426971 
" style="fill:none;stroke:#ffe600;stroke-linecap:square;"/>
    <defs>
     <path d="M 0 1.5 
C 0.397805 1.5 0.77937 1.341951 1.06066 1.06066 
C 1.341951 0.77937 1.5 0.397805 1.5 0 
C 1.5 -0.397805 1.341951 -0.77937 1.06066 -1.06066 
C 0.77937 -1.341951 0.397805 -1.5 0 -1.5 
C -0.397805 -1.5 -0.77937 -1.341951 -1.06066 -1.06066 
C -1.341951 -0.77937 -1.5 -0.397805 -1.5 0 
C -1.5 0.397805 -1.341951 0.77937 -1.06066 1.06066 
C -0.77937 1.341951 -0.397805 1.5 0 1.5 
z
" id="m878a0625ff" style="stroke:#ffe600;"/>
    </defs>
    <g clip-path="url(#p0b1a4a12ad)">
     <use style="fill:#ffe600;stroke:#ffe600;" x="57.6" xlink:href="#m878a0625ff" y="295.486137"/>
     <use style="fill:#ffe600;stroke:#ffe600;" x="61.207273" xlink:href="#m878a0625ff" y="295.473966"/>
     <use style="fill:#ffe600;stroke:#ffe600;" x="64.814545" xlink:href="#m878a0625ff" y="295.43127"/>
     <use style="fill:#ffe600;stroke:#ffe600;" x="68.421818" xlink:href="#m878a0625ff" y="295.423104"/>
     <use style="fill:#ffe600;stroke:#ffe600;" x="72.029091" xlink:href="#m878a0625ff" y="295.397088"/>
     <use style="fill:#ffe600;stroke:#ffe600;" x="75.636364" xlink:href="#m878a0625ff" y="295.248312"/>
     <use style="fill:#ffe600;stroke:#ffe600;" x="79.243636" xlink:href="#m878a0625ff" y="295.221802"/>
     <use style="fill:#ffe600;stroke:#ffe600;" x="82.850909" xlink:href="#m878a0625ff" y="294.889435"/>
     <use style="fill:#ffe600;stroke:#ffe600;" x="86.458182" xlink:href="#m878a0625ff" y="294.824268"/>
     <use style="fill:#ffe600;stroke:#ffe600;" x="90.065455" xlink:href="#m878a0625ff" y="294.123626"/>
     <use style="fill:#ffe600;stroke:#ffe600;" x="93.672727" xlink:href="#m878a0625ff" y="293.277369"/>
     <use style="fill:#ffe600;stroke:#ffe600;" x="97.28" xlink:href="#m878a0625ff" y="292.887271"/>
     <use style="fill:#ffe600;stroke:#ffe600;" x="100.887273" xlink:href="#m878a0625ff" y="293.481625"/>
     <use style="fill:#ffe600;stroke:#ffe600;" x="104.494545" xlink:href="#m878a0625ff" y="290.665355"/>
     <use style="fill:#ffe600;stroke:#ffe600;" x="108.101818" xlink:href="#m878a0625ff" y="285.922707"/>
     <use style="fill:#ffe600;stroke:#ffe600;" x="111.709091" xlink:href="#m878a0625ff" y="285.458516"/>
     <use style="fill:#ffe600;stroke:#ffe600;" x="115.316364" xlink:href="#m878a0625ff" y="278.743096"/>
     <use style="fill:#ffe600;stroke:#ffe600;" x="118.923636" xlink:href="#m878a0625ff" y="276.282567"/>
     <use style="fill:#ffe600;stroke:#ffe600;" x="122.530909" xlink:href="#m878a0625ff" y="252.631676"/>
     <use style="fill:#ffe600;stroke:#ffe600;" x="126.138182" xlink:href="#m878a0625ff" y="229.818753"/>
     <use style="fill:#ffe600;stroke:#ffe600;" x="129.745455" xlink:href="#m878a0625ff" y="221.036628"/>
     <use style="fill:#ffe600;stroke:#ffe600;" x="133.352727" xlink:href="#m878a0625ff" y="185.18315"/>
     <use style="fill:#ffe600;stroke:#ffe600;" x="136.96" xlink:href="#m878a0625ff" y="162.664639"/>
     <use style="fill:#ffe600;stroke:#ffe600;" x="140.567273" xlink:href="#m878a0625ff" y="116.548564"/>
     <use style="fill:#ffe600;stroke:#ffe600;" x="144.174545" xlink:href="#m878a0625ff" y="106.615756"/>
     <use style="fill:#ffe600;stroke:#ffe600;" x="147.781818" xlink:href="#m878a0625ff" y="103.596621"/>
     <use style="fill:#ffe600;stroke:#ffe600;" x="151.389091" xlink:href="#m878a0625ff" y="92.817401"/>
     <use style="fill:#ffe600;stroke:#ffe600;" x="154.996364" xlink:href="#m878a0625ff" y="92.458123"/>
     <use style="fill:#ffe600;stroke:#ffe600;" x="158.603636" xlink:href="#m878a0625ff" y="85.259301"/>
     <use style="fill:#ffe600;stroke:#ffe600;" x="162.210909" xlink:href="#m878a0625ff" y="68.789308"/>
     <use style="fill:#ffe600;stroke:#ffe600;" x="165.818182" xlink:href="#m878a0625ff" y="74.900567"/>
     <use style="fill:#ffe600;stroke:#ffe600;" x="169.425455" xlink:href="#m878a0625ff" y="85.222869"/>
     <use style="fill:#ffe600;stroke:#ffe600;" x="173.032727" xlink:href="#m878a0625ff" y="87.156398"/>
     <use style="fill:#ffe600;stroke:#ffe600;" x="176.64" xlink:href="#m878a0625ff" y="67.588891"/>
     <use style="fill:#ffe600;stroke:#ffe600;" x="180.247273" xlink:href="#m878a0625ff" y="68.805922"/>
     <use style="fill:#ffe600;stroke:#ffe600;" x="183.854545" xlink:href="#m878a0625ff" y="78.210088"/>
     <use style="fill:#ffe600;stroke:#ffe600;" x="187.461818" xlink:href="#m878a0625ff" y="66.904361"/>
     <use style="fill:#ffe600;stroke:#ffe600;" x="191.069091" xlink:href="#m878a0625ff" y="71.406379"/>
     <use style="fill:#ffe600;stroke:#ffe600;" x="194.676364" xlink:href="#m878a0625ff" y="70.932596"/>
     <use style="fill:#ffe600;stroke:#ffe600;" x="198.283636" xlink:href="#m878a0625ff" y="68.686732"/>
     <use style="fill:#ffe600;stroke:#ffe600;" x="201.890909" xlink:href="#m878a0625ff" y="62.591673"/>
     <use style="fill:#ffe600;stroke:#ffe600;" x="205.498182" xlink:href="#m878a0625ff" y="64.907769"/>
     <use style="fill:#ffe600;stroke:#ffe600;" x="209.105455" xlink:href="#m878a0625ff" y="69.481886"/>
     <use style="fill:#ffe600;stroke:#ffe600;" x="212.712727" xlink:href="#m878a0625ff" y="60.288214"/>
     <use style="fill:#ffe600;stroke:#ffe600;" x="216.32" xlink:href="#m878a0625ff" y="62.030298"/>
     <use style="fill:#ffe600;stroke:#ffe600;" x="219.927273" xlink:href="#m878a0625ff" y="55.763213"/>
     <use style="fill:#ffe600;stroke:#ffe600;" x="223.534545" xlink:href="#m878a0625ff" y="65.460529"/>
     <use style="fill:#ffe600;stroke:#ffe600;" x="227.141818" xlink:href="#m878a0625ff" y="74.299745"/>
     <use style="fill:#ffe600;stroke:#ffe600;" x="230.749091" xlink:href="#m878a0625ff" y="67.871596"/>
     <use style="fill:#ffe600;stroke:#ffe600;" x="234.356364" xlink:href="#m878a0625ff" y="73.605318"/>
     <use style="fill:#ffe600;stroke:#ffe600;" x="237.963636" xlink:href="#m878a0625ff" y="61.483311"/>
     <use style="fill:#ffe600;stroke:#ffe600;" x="241.570909" xlink:href="#m878a0625ff" y="68.073147"/>
     <use style="fill:#ffe600;stroke:#ffe600;" x="245.178182" xlink:href="#m878a0625ff" y="72.407595"/>
     <use style="fill:#ffe600;stroke:#ffe600;" x="248.785455" xlink:href="#m878a0625ff" y="66.401595"/>
     <use style="fill:#ffe600;stroke:#ffe600;" x="252.392727" xlink:href="#m878a0625ff" y="67.613283"/>
     <use style="fill:#ffe600;stroke:#ffe600;" x="256" xlink:href="#m878a0625ff" y="60.733576"/>
     <use style="fill:#ffe600;stroke:#ffe600;" x="259.607273" xlink:href="#m878a0625ff" y="65.824924"/>
     <use style="fill:#ffe600;stroke:#ffe600;" x="263.214545" xlink:href="#m878a0625ff" y="58.408627"/>
     <use style="fill:#ffe600;stroke:#ffe600;" x="266.821818" xlink:href="#m878a0625ff" y="68.996209"/>
     <use style="fill:#ffe600;stroke:#ffe600;" x="270.429091" xlink:href="#m878a0625ff" y="58.4731"/>
     <use style="fill:#ffe600;stroke:#ffe600;" x="274.036364" xlink:href="#m878a0625ff" y="61.535427"/>
     <use style="fill:#ffe600;stroke:#ffe600;" x="277.643636" xlink:href="#m878a0625ff" y="64.300951"/>
     <use style="fill:#ffe600;stroke:#ffe600;" x="281.250909" xlink:href="#m878a0625ff" y="69.568246"/>
     <use style="fill:#ffe600;stroke:#ffe600;" x="284.858182" xlink:href="#m878a0625ff" y="68.531629"/>
     <use style="fill:#ffe600;stroke:#ffe600;" x="288.465455" xlink:href="#m878a0625ff" y="73.424965"/>
     <use style="fill:#ffe600;stroke:#ffe600;" x="292.072727" xlink:href="#m878a0625ff" y="68.343734"/>
     <use style="fill:#ffe600;stroke:#ffe600;" x="295.68" xlink:href="#m878a0625ff" y="60.68307"/>
     <use style="fill:#ffe600;stroke:#ffe600;" x="299.287273" xlink:href="#m878a0625ff" y="63.365702"/>
     <use style="fill:#ffe600;stroke:#ffe600;" x="302.894545" xlink:href="#m878a0625ff" y="71.249875"/>
     <use style="fill:#ffe600;stroke:#ffe600;" x="306.501818" xlink:href="#m878a0625ff" y="53.568"/>
     <use style="fill:#ffe600;stroke:#ffe600;" x="310.109091" xlink:href="#m878a0625ff" y="69.428987"/>
     <use style="fill:#ffe600;stroke:#ffe600;" x="313.716364" xlink:href="#m878a0625ff" y="68.527541"/>
     <use style="fill:#ffe600;stroke:#ffe600;" x="317.323636" xlink:href="#m878a0625ff" y="69.873254"/>
     <use style="fill:#ffe600;stroke:#ffe600;" x="320.930909" xlink:href="#m878a0625ff" y="65.266747"/>
     <use style="fill:#ffe600;stroke:#ffe600;" x="324.538182" xlink:href="#m878a0625ff" y="63.712533"/>
     <use style="fill:#ffe600;stroke:#ffe600;" x="328.145455" xlink:href="#m878a0625ff" y="64.244783"/>
     <use style="fill:#ffe600;stroke:#ffe600;" x="331.752727" xlink:href="#m878a0625ff" y="57.376636"/>
     <use style="fill:#ffe600;stroke:#ffe600;" x="335.36" xlink:href="#m878a0625ff" y="65.882387"/>
     <use style="fill:#ffe600;stroke:#ffe600;" x="338.967273" xlink:href="#m878a0625ff" y="73.026053"/>
     <use style="fill:#ffe600;stroke:#ffe600;" x="342.574545" xlink:href="#m878a0625ff" y="64.092327"/>
     <use style="fill:#ffe600;stroke:#ffe600;" x="346.181818" xlink:href="#m878a0625ff" y="65.566736"/>
     <use style="fill:#ffe600;stroke:#ffe600;" x="349.789091" xlink:href="#m878a0625ff" y="61.26787"/>
     <use style="fill:#ffe600;stroke:#ffe600;" x="353.396364" xlink:href="#m878a0625ff" y="75.093059"/>
     <use style="fill:#ffe600;stroke:#ffe600;" x="357.003636" xlink:href="#m878a0625ff" y="65.891605"/>
     <use style="fill:#ffe600;stroke:#ffe600;" x="360.610909" xlink:href="#m878a0625ff" y="62.665922"/>
     <use style="fill:#ffe600;stroke:#ffe600;" x="364.218182" xlink:href="#m878a0625ff" y="71.811143"/>
     <use style="fill:#ffe600;stroke:#ffe600;" x="367.825455" xlink:href="#m878a0625ff" y="68.481227"/>
     <use style="fill:#ffe600;stroke:#ffe600;" x="371.432727" xlink:href="#m878a0625ff" y="58.604497"/>
     <use style="fill:#ffe600;stroke:#ffe600;" x="375.04" xlink:href="#m878a0625ff" y="68.142452"/>
     <use style="fill:#ffe600;stroke:#ffe600;" x="378.647273" xlink:href="#m878a0625ff" y="75.653917"/>
     <use style="fill:#ffe600;stroke:#ffe600;" x="382.254545" xlink:href="#m878a0625ff" y="60.276717"/>
     <use style="fill:#ffe600;stroke:#ffe600;" x="385.861818" xlink:href="#m878a0625ff" y="70.292949"/>
     <use style="fill:#ffe600;stroke:#ffe600;" x="389.469091" xlink:href="#m878a0625ff" y="65.0107"/>
     <use style="fill:#ffe600;stroke:#ffe600;" x="393.076364" xlink:href="#m878a0625ff" y="67.608876"/>
     <use style="fill:#ffe600;stroke:#ffe600;" x="396.683636" xlink:href="#m878a0625ff" y="58.568005"/>
     <use style="fill:#ffe600;stroke:#ffe600;" x="400.290909" xlink:href="#m878a0625ff" y="61.555703"/>
     <use style="fill:#ffe600;stroke:#ffe600;" x="403.898182" xlink:href="#m878a0625ff" y="68.989543"/>
     <use style="fill:#ffe600;stroke:#ffe600;" x="407.505455" xlink:href="#m878a0625ff" y="67.412892"/>
     <use style="fill:#ffe600;stroke:#ffe600;" x="411.112727" xlink:href="#m878a0625ff" y="64.928004"/>
     <use style="fill:#ffe600;stroke:#ffe600;" x="414.72" xlink:href="#m878a0625ff" y="62.426971"/>
    </g>
   </g>
   <g id="line2d_26">
    <path clip-path="url(#p0b1a4a12ad)" d="M 57.6 295.484462 
L 61.207273 295.473288 
L 64.814545 295.403653 
L 68.421818 295.39143 
L 72.029091 295.398199 
L 75.636364 295.361014 
L 79.243636 295.162515 
L 82.850909 295.130986 
L 86.458182 294.787348 
L 90.065455 294.441088 
L 93.672727 293.742906 
L 97.28 293.548845 
L 100.887273 292.544707 
L 104.494545 291.885723 
L 108.101818 288.555867 
L 111.709091 288.191209 
L 115.316364 274.942692 
L 118.923636 270.888216 
L 122.530909 251.728292 
L 126.138182 256.751668 
L 129.745455 218.654632 
L 133.352727 185.407004 
L 136.96 149.745933 
L 140.567273 116.069674 
L 144.174545 95.811392 
L 147.781818 87.86313 
L 151.389091 79.496235 
L 154.996364 81.653379 
L 158.603636 70.468816 
L 162.210909 62.873712 
L 165.818182 62.033499 
L 169.425455 64.074009 
L 173.032727 68.41139 
L 176.64 69.496523 
L 180.247273 59.532901 
L 183.854545 57.890758 
L 187.461818 69.856772 
L 191.069091 74.367488 
L 194.676364 60.268722 
L 198.283636 71.093357 
L 201.890909 67.803609 
L 205.498182 70.706661 
L 209.105455 61.591263 
L 212.712727 68.540033 
L 216.32 71.242618 
L 219.927273 65.345491 
L 223.534545 59.692477 
L 227.141818 66.995738 
L 230.749091 65.915708 
L 234.356364 63.785404 
L 237.963636 68.6899 
L 241.570909 58.168356 
L 245.178182 61.702198 
L 248.785455 62.260511 
L 252.392727 64.709043 
L 256 70.048289 
L 259.607273 72.083927 
L 263.214545 68.133142 
L 266.821818 67.748985 
L 270.429091 61.14518 
L 274.036364 67.176243 
L 277.643636 70.073786 
L 281.250909 65.443072 
L 284.858182 66.954962 
L 288.465455 65.906204 
L 292.072727 66.932208 
L 295.68 62.589442 
L 299.287273 65.397584 
L 302.894545 63.243491 
L 306.501818 55.023402 
L 310.109091 68.086326 
L 313.716364 74.235066 
L 317.323636 62.637523 
L 320.930909 68.518924 
L 324.538182 67.979031 
L 328.145455 62.103341 
L 331.752727 65.310732 
L 335.36 63.414085 
L 338.967273 61.064864 
L 342.574545 62.95603 
L 346.181818 67.939867 
L 349.789091 66.003594 
L 353.396364 67.062866 
L 357.003636 56.325272 
L 360.610909 64.176219 
L 364.218182 75.683812 
L 367.825455 60.948722 
L 371.432727 69.021568 
L 375.04 64.167 
L 378.647273 70.33876 
L 382.254545 63.498168 
L 385.861818 56.065557 
L 389.469091 64.661064 
L 393.076364 55.173864 
L 396.683636 63.557491 
L 400.290909 67.300286 
L 403.898182 62.518828 
L 407.505455 64.904263 
L 411.112727 69.166912 
L 414.72 58.010971 
" style="fill:none;stroke:#800000;stroke-linecap:square;"/>
    <defs>
     <path d="M 0 1.5 
C 0.397805 1.5 0.77937 1.341951 1.06066 1.06066 
C 1.341951 0.77937 1.5 0.397805 1.5 0 
C 1.5 -0.397805 1.341951 -0.77937 1.06066 -1.06066 
C 0.77937 -1.341951 0.397805 -1.5 0 -1.5 
C -0.397805 -1.5 -0.77937 -1.341951 -1.06066 -1.06066 
C -1.341951 -0.77937 -1.5 -0.397805 -1.5 0 
C -1.5 0.397805 -1.341951 0.77937 -1.06066 1.06066 
C -0.77937 1.341951 -0.397805 1.5 0 1.5 
z
" id="m429b07e777" style="stroke:#800000;"/>
    </defs>
    <g clip-path="url(#p0b1a4a12ad)">
     <use style="fill:#800000;stroke:#800000;" x="57.6" xlink:href="#m429b07e777" y="295.484462"/>
     <use style="fill:#800000;stroke:#800000;" x="61.207273" xlink:href="#m429b07e777" y="295.473288"/>
     <use style="fill:#800000;stroke:#800000;" x="64.814545" xlink:href="#m429b07e777" y="295.403653"/>
     <use style="fill:#800000;stroke:#800000;" x="68.421818" xlink:href="#m429b07e777" y="295.39143"/>
     <use style="fill:#800000;stroke:#800000;" x="72.029091" xlink:href="#m429b07e777" y="295.398199"/>
     <use style="fill:#800000;stroke:#800000;" x="75.636364" xlink:href="#m429b07e777" y="295.361014"/>
     <use style="fill:#800000;stroke:#800000;" x="79.243636" xlink:href="#m429b07e777" y="295.162515"/>
     <use style="fill:#800000;stroke:#800000;" x="82.850909" xlink:href="#m429b07e777" y="295.130986"/>
     <use style="fill:#800000;stroke:#800000;" x="86.458182" xlink:href="#m429b07e777" y="294.787348"/>
     <use style="fill:#800000;stroke:#800000;" x="90.065455" xlink:href="#m429b07e777" y="294.441088"/>
     <use style="fill:#800000;stroke:#800000;" x="93.672727" xlink:href="#m429b07e777" y="293.742906"/>
     <use style="fill:#800000;stroke:#800000;" x="97.28" xlink:href="#m429b07e777" y="293.548845"/>
     <use style="fill:#800000;stroke:#800000;" x="100.887273" xlink:href="#m429b07e777" y="292.544707"/>
     <use style="fill:#800000;stroke:#800000;" x="104.494545" xlink:href="#m429b07e777" y="291.885723"/>
     <use style="fill:#800000;stroke:#800000;" x="108.101818" xlink:href="#m429b07e777" y="288.555867"/>
     <use style="fill:#800000;stroke:#800000;" x="111.709091" xlink:href="#m429b07e777" y="288.191209"/>
     <use style="fill:#800000;stroke:#800000;" x="115.316364" xlink:href="#m429b07e777" y="274.942692"/>
     <use style="fill:#800000;stroke:#800000;" x="118.923636" xlink:href="#m429b07e777" y="270.888216"/>
     <use style="fill:#800000;stroke:#800000;" x="122.530909" xlink:href="#m429b07e777" y="251.728292"/>
     <use style="fill:#800000;stroke:#800000;" x="126.138182" xlink:href="#m429b07e777" y="256.751668"/>
     <use style="fill:#800000;stroke:#800000;" x="129.745455" xlink:href="#m429b07e777" y="218.654632"/>
     <use style="fill:#800000;stroke:#800000;" x="133.352727" xlink:href="#m429b07e777" y="185.407004"/>
     <use style="fill:#800000;stroke:#800000;" x="136.96" xlink:href="#m429b07e777" y="149.745933"/>
     <use style="fill:#800000;stroke:#800000;" x="140.567273" xlink:href="#m429b07e777" y="116.069674"/>
     <use style="fill:#800000;stroke:#800000;" x="144.174545" xlink:href="#m429b07e777" y="95.811392"/>
     <use style="fill:#800000;stroke:#800000;" x="147.781818" xlink:href="#m429b07e777" y="87.86313"/>
     <use style="fill:#800000;stroke:#800000;" x="151.389091" xlink:href="#m429b07e777" y="79.496235"/>
     <use style="fill:#800000;stroke:#800000;" x="154.996364" xlink:href="#m429b07e777" y="81.653379"/>
     <use style="fill:#800000;stroke:#800000;" x="158.603636" xlink:href="#m429b07e777" y="70.468816"/>
     <use style="fill:#800000;stroke:#800000;" x="162.210909" xlink:href="#m429b07e777" y="62.873712"/>
     <use style="fill:#800000;stroke:#800000;" x="165.818182" xlink:href="#m429b07e777" y="62.033499"/>
     <use style="fill:#800000;stroke:#800000;" x="169.425455" xlink:href="#m429b07e777" y="64.074009"/>
     <use style="fill:#800000;stroke:#800000;" x="173.032727" xlink:href="#m429b07e777" y="68.41139"/>
     <use style="fill:#800000;stroke:#800000;" x="176.64" xlink:href="#m429b07e777" y="69.496523"/>
     <use style="fill:#800000;stroke:#800000;" x="180.247273" xlink:href="#m429b07e777" y="59.532901"/>
     <use style="fill:#800000;stroke:#800000;" x="183.854545" xlink:href="#m429b07e777" y="57.890758"/>
     <use style="fill:#800000;stroke:#800000;" x="187.461818" xlink:href="#m429b07e777" y="69.856772"/>
     <use style="fill:#800000;stroke:#800000;" x="191.069091" xlink:href="#m429b07e777" y="74.367488"/>
     <use style="fill:#800000;stroke:#800000;" x="194.676364" xlink:href="#m429b07e777" y="60.268722"/>
     <use style="fill:#800000;stroke:#800000;" x="198.283636" xlink:href="#m429b07e777" y="71.093357"/>
     <use style="fill:#800000;stroke:#800000;" x="201.890909" xlink:href="#m429b07e777" y="67.803609"/>
     <use style="fill:#800000;stroke:#800000;" x="205.498182" xlink:href="#m429b07e777" y="70.706661"/>
     <use style="fill:#800000;stroke:#800000;" x="209.105455" xlink:href="#m429b07e777" y="61.591263"/>
     <use style="fill:#800000;stroke:#800000;" x="212.712727" xlink:href="#m429b07e777" y="68.540033"/>
     <use style="fill:#800000;stroke:#800000;" x="216.32" xlink:href="#m429b07e777" y="71.242618"/>
     <use style="fill:#800000;stroke:#800000;" x="219.927273" xlink:href="#m429b07e777" y="65.345491"/>
     <use style="fill:#800000;stroke:#800000;" x="223.534545" xlink:href="#m429b07e777" y="59.692477"/>
     <use style="fill:#800000;stroke:#800000;" x="227.141818" xlink:href="#m429b07e777" y="66.995738"/>
     <use style="fill:#800000;stroke:#800000;" x="230.749091" xlink:href="#m429b07e777" y="65.915708"/>
     <use style="fill:#800000;stroke:#800000;" x="234.356364" xlink:href="#m429b07e777" y="63.785404"/>
     <use style="fill:#800000;stroke:#800000;" x="237.963636" xlink:href="#m429b07e777" y="68.6899"/>
     <use style="fill:#800000;stroke:#800000;" x="241.570909" xlink:href="#m429b07e777" y="58.168356"/>
     <use style="fill:#800000;stroke:#800000;" x="245.178182" xlink:href="#m429b07e777" y="61.702198"/>
     <use style="fill:#800000;stroke:#800000;" x="248.785455" xlink:href="#m429b07e777" y="62.260511"/>
     <use style="fill:#800000;stroke:#800000;" x="252.392727" xlink:href="#m429b07e777" y="64.709043"/>
     <use style="fill:#800000;stroke:#800000;" x="256" xlink:href="#m429b07e777" y="70.048289"/>
     <use style="fill:#800000;stroke:#800000;" x="259.607273" xlink:href="#m429b07e777" y="72.083927"/>
     <use style="fill:#800000;stroke:#800000;" x="263.214545" xlink:href="#m429b07e777" y="68.133142"/>
     <use style="fill:#800000;stroke:#800000;" x="266.821818" xlink:href="#m429b07e777" y="67.748985"/>
     <use style="fill:#800000;stroke:#800000;" x="270.429091" xlink:href="#m429b07e777" y="61.14518"/>
     <use style="fill:#800000;stroke:#800000;" x="274.036364" xlink:href="#m429b07e777" y="67.176243"/>
     <use style="fill:#800000;stroke:#800000;" x="277.643636" xlink:href="#m429b07e777" y="70.073786"/>
     <use style="fill:#800000;stroke:#800000;" x="281.250909" xlink:href="#m429b07e777" y="65.443072"/>
     <use style="fill:#800000;stroke:#800000;" x="284.858182" xlink:href="#m429b07e777" y="66.954962"/>
     <use style="fill:#800000;stroke:#800000;" x="288.465455" xlink:href="#m429b07e777" y="65.906204"/>
     <use style="fill:#800000;stroke:#800000;" x="292.072727" xlink:href="#m429b07e777" y="66.932208"/>
     <use style="fill:#800000;stroke:#800000;" x="295.68" xlink:href="#m429b07e777" y="62.589442"/>
     <use style="fill:#800000;stroke:#800000;" x="299.287273" xlink:href="#m429b07e777" y="65.397584"/>
     <use style="fill:#800000;stroke:#800000;" x="302.894545" xlink:href="#m429b07e777" y="63.243491"/>
     <use style="fill:#800000;stroke:#800000;" x="306.501818" xlink:href="#m429b07e777" y="55.023402"/>
     <use style="fill:#800000;stroke:#800000;" x="310.109091" xlink:href="#m429b07e777" y="68.086326"/>
     <use style="fill:#800000;stroke:#800000;" x="313.716364" xlink:href="#m429b07e777" y="74.235066"/>
     <use style="fill:#800000;stroke:#800000;" x="317.323636" xlink:href="#m429b07e777" y="62.637523"/>
     <use style="fill:#800000;stroke:#800000;" x="320.930909" xlink:href="#m429b07e777" y="68.518924"/>
     <use style="fill:#800000;stroke:#800000;" x="324.538182" xlink:href="#m429b07e777" y="67.979031"/>
     <use style="fill:#800000;stroke:#800000;" x="328.145455" xlink:href="#m429b07e777" y="62.103341"/>
     <use style="fill:#800000;stroke:#800000;" x="331.752727" xlink:href="#m429b07e777" y="65.310732"/>
     <use style="fill:#800000;stroke:#800000;" x="335.36" xlink:href="#m429b07e777" y="63.414085"/>
     <use style="fill:#800000;stroke:#800000;" x="338.967273" xlink:href="#m429b07e777" y="61.064864"/>
     <use style="fill:#800000;stroke:#800000;" x="342.574545" xlink:href="#m429b07e777" y="62.95603"/>
     <use style="fill:#800000;stroke:#800000;" x="346.181818" xlink:href="#m429b07e777" y="67.939867"/>
     <use style="fill:#800000;stroke:#800000;" x="349.789091" xlink:href="#m429b07e777" y="66.003594"/>
     <use style="fill:#800000;stroke:#800000;" x="353.396364" xlink:href="#m429b07e777" y="67.062866"/>
     <use style="fill:#800000;stroke:#800000;" x="357.003636" xlink:href="#m429b07e777" y="56.325272"/>
     <use style="fill:#800000;stroke:#800000;" x="360.610909" xlink:href="#m429b07e777" y="64.176219"/>
     <use style="fill:#800000;stroke:#800000;" x="364.218182" xlink:href="#m429b07e777" y="75.683812"/>
     <use style="fill:#800000;stroke:#800000;" x="367.825455" xlink:href="#m429b07e777" y="60.948722"/>
     <use style="fill:#800000;stroke:#800000;" x="371.432727" xlink:href="#m429b07e777" y="69.021568"/>
     <use style="fill:#800000;stroke:#800000;" x="375.04" xlink:href="#m429b07e777" y="64.167"/>
     <use style="fill:#800000;stroke:#800000;" x="378.647273" xlink:href="#m429b07e777" y="70.33876"/>
     <use style="fill:#800000;stroke:#800000;" x="382.254545" xlink:href="#m429b07e777" y="63.498168"/>
     <use style="fill:#800000;stroke:#800000;" x="385.861818" xlink:href="#m429b07e777" y="56.065557"/>
     <use style="fill:#800000;stroke:#800000;" x="389.469091" xlink:href="#m429b07e777" y="64.661064"/>
     <use style="fill:#800000;stroke:#800000;" x="393.076364" xlink:href="#m429b07e777" y="55.173864"/>
     <use style="fill:#800000;stroke:#800000;" x="396.683636" xlink:href="#m429b07e777" y="63.557491"/>
     <use style="fill:#800000;stroke:#800000;" x="400.290909" xlink:href="#m429b07e777" y="67.300286"/>
     <use style="fill:#800000;stroke:#800000;" x="403.898182" xlink:href="#m429b07e777" y="62.518828"/>
     <use style="fill:#800000;stroke:#800000;" x="407.505455" xlink:href="#m429b07e777" y="64.904263"/>
     <use style="fill:#800000;stroke:#800000;" x="411.112727" xlink:href="#m429b07e777" y="69.166912"/>
     <use style="fill:#800000;stroke:#800000;" x="414.72" xlink:href="#m429b07e777" y="58.010971"/>
    </g>
   </g>
   <g id="patch_3">
    <path d="M 57.6 307.584 
L 57.6 41.472 
" style="fill:none;stroke:#000000;stroke-linecap:square;stroke-linejoin:miter;stroke-width:0.8;"/>
   </g>
   <g id="patch_4">
    <path d="M 414.72 307.584 
L 414.72 41.472 
" style="fill:none;stroke:#000000;stroke-linecap:square;stroke-linejoin:miter;stroke-width:0.8;"/>
   </g>
   <g id="patch_5">
    <path d="M 57.6 307.584 
L 414.72 307.584 
" style="fill:none;stroke:#000000;stroke-linecap:square;stroke-linejoin:miter;stroke-width:0.8;"/>
   </g>
   <g id="patch_6">
    <path d="M 57.6 41.472 
L 414.72 41.472 
" style="fill:none;stroke:#000000;stroke-linecap:square;stroke-linejoin:miter;stroke-width:0.8;"/>
   </g>
   <g id="text_14">
    <!-- Test -->
    <defs>
     <path d="M -0.296875 72.90625 
L 61.375 72.90625 
L 61.375 64.59375 
L 35.5 64.59375 
L 35.5 0 
L 25.59375 0 
L 25.59375 64.59375 
L -0.296875 64.59375 
z
" id="DejaVuSans-54"/>
    </defs>
    <g transform="translate(223.341563 35.472)scale(0.12 -0.12)">
     <use xlink:href="#DejaVuSans-54"/>
     <use x="60.818359" xlink:href="#DejaVuSans-65"/>
     <use x="122.341797" xlink:href="#DejaVuSans-73"/>
     <use x="174.441406" xlink:href="#DejaVuSans-74"/>
    </g>
   </g>
   <g id="legend_1">
    <g id="patch_7">
     <path d="M 64.6 108.1845 
L 102.9625 108.1845 
Q 104.9625 108.1845 104.9625 106.1845 
L 104.9625 48.472 
Q 104.9625 46.472 102.9625 46.472 
L 64.6 46.472 
Q 62.6 46.472 62.6 48.472 
L 62.6 106.1845 
Q 62.6 108.1845 64.6 108.1845 
z
" style="fill:#ffffff;opacity:0.8;stroke:#cccccc;stroke-linejoin:miter;"/>
    </g>
    <g id="line2d_27">
     <path d="M 66.6 54.570438 
L 86.6 54.570438 
" style="fill:none;stroke:#000080;stroke-linecap:square;"/>
    </g>
    <g id="line2d_28">
     <g>
      <use style="fill:#000080;stroke:#000080;" x="76.6" xlink:href="#m8c9895786d" y="54.570438"/>
     </g>
    </g>
    <g id="text_15">
     <!-- 1 -->
     <g transform="translate(94.6 58.070438)scale(0.1 -0.1)">
      <use xlink:href="#DejaVuSans-31"/>
     </g>
    </g>
    <g id="line2d_29">
     <path d="M 66.6 69.248563 
L 86.6 69.248563 
" style="fill:none;stroke:#00d4ff;stroke-linecap:square;"/>
    </g>
    <g id="line2d_30">
     <g>
      <use style="fill:#00d4ff;stroke:#00d4ff;" x="76.6" xlink:href="#m23324c478d" y="69.248563"/>
     </g>
    </g>
    <g id="text_16">
     <!-- 2 -->
     <g transform="translate(94.6 72.748563)scale(0.1 -0.1)">
      <use xlink:href="#DejaVuSans-32"/>
     </g>
    </g>
    <g id="line2d_31">
     <path d="M 66.6 83.926688 
L 86.6 83.926688 
" style="fill:none;stroke:#ffe600;stroke-linecap:square;"/>
    </g>
    <g id="line2d_32">
     <g>
      <use style="fill:#ffe600;stroke:#ffe600;" x="76.6" xlink:href="#m878a0625ff" y="83.926688"/>
     </g>
    </g>
    <g id="text_17">
     <!-- 4 -->
     <g transform="translate(94.6 87.426688)scale(0.1 -0.1)">
      <use xlink:href="#DejaVuSans-34"/>
     </g>
    </g>
    <g id="line2d_33">
     <path d="M 66.6 98.604813 
L 86.6 98.604813 
" style="fill:none;stroke:#800000;stroke-linecap:square;"/>
    </g>
    <g id="line2d_34">
     <g>
      <use style="fill:#800000;stroke:#800000;" x="76.6" xlink:href="#m429b07e777" y="98.604813"/>
     </g>
    </g>
    <g id="text_18">
     <!-- 8 -->
     <g transform="translate(94.6 102.104813)scale(0.1 -0.1)">
      <use xlink:href="#DejaVuSans-38"/>
     </g>
    </g>
   </g>
  </g>
 </g>
 <defs>
  <clipPath id="p0b1a4a12ad">
   <rect height="266.112" width="357.12" x="57.6" y="41.472"/>
  </clipPath>
 </defs>
</svg>
