<?xml version="1.0" encoding="utf-8" standalone="no"?>
<!DOCTYPE svg PUBLIC "-//W3C//DTD SVG 1.1//EN"
  "http://www.w3.org/Graphics/SVG/1.1/DTD/svg11.dtd">
<!-- Created with matplotlib (http://matplotlib.org/) -->
<svg height="345pt" version="1.1" viewBox="0 0 460 345" width="460pt" xmlns="http://www.w3.org/2000/svg" xmlns:xlink="http://www.w3.org/1999/xlink">
 <defs>
  <style type="text/css">
*{stroke-linecap:butt;stroke-linejoin:round;}
  </style>
 </defs>
 <g id="figure_1">
  <g id="patch_1">
   <path d="M 0 345.6 
L 460.8 345.6 
L 460.8 0 
L 0 0 
z
" style="fill:#ffffff;"/>
  </g>
  <g id="axes_1">
   <g id="patch_2">
    <path d="M 57.6 307.584 
L 414.72 307.584 
L 414.72 41.472 
L 57.6 41.472 
z
" style="fill:#ffffff;"/>
   </g>
   <g id="matplotlib.axis_1">
    <g id="xtick_1">
     <g id="line2d_1">
      <path clip-path="url(#p615e68bbda)" d="M 57.239273 307.584 
L 57.239273 41.472 
" style="fill:none;stroke:#b0b0b0;stroke-linecap:square;stroke-width:0.8;"/>
     </g>
     <g id="line2d_2">
      <defs>
       <path d="M 0 0 
L 0 3.5 
" id="m841b8b12e1" style="stroke:#000000;stroke-width:0.8;"/>
      </defs>
      <g>
       <use style="stroke:#000000;stroke-width:0.8;" x="57.239273" xlink:href="#m841b8b12e1" y="307.584"/>
      </g>
     </g>
     <g id="text_1">
      <!-- 0 -->
      <defs>
       <path d="M 31.78125 66.40625 
Q 24.171875 66.40625 20.328125 58.90625 
Q 16.5 51.421875 16.5 36.375 
Q 16.5 21.390625 20.328125 13.890625 
Q 24.171875 6.390625 31.78125 6.390625 
Q 39.453125 6.390625 43.28125 13.890625 
Q 47.125 21.390625 47.125 36.375 
Q 47.125 51.421875 43.28125 58.90625 
Q 39.453125 66.40625 31.78125 66.40625 
M 31.78125 74.21875 
Q 44.046875 74.21875 50.515625 64.515625 
Q 56.984375 54.828125 56.984375 36.375 
Q 56.984375 17.96875 50.515625 8.265625 
Q 44.046875 -1.421875 31.78125 -1.421875 
Q 19.53125 -1.421875 13.0625 8.265625 
Q 6.59375 17.96875 6.59375 36.375 
Q 6.59375 54.828125 13.0625 64.515625 
Q 19.53125 74.21875 31.78125 74.21875 
" id="DejaVuSans-30"/>
      </defs>
      <g transform="translate(54.058023 322.182437)scale(0.1 -0.1)">
       <use xlink:href="#DejaVuSans-30"/>
      </g>
     </g>
    </g>
    <g id="xtick_2">
     <g id="line2d_3">
      <path clip-path="url(#p615e68bbda)" d="M 129.384727 307.584 
L 129.384727 41.472 
" style="fill:none;stroke:#b0b0b0;stroke-linecap:square;stroke-width:0.8;"/>
     </g>
     <g id="line2d_4">
      <g>
       <use style="stroke:#000000;stroke-width:0.8;" x="129.384727" xlink:href="#m841b8b12e1" y="307.584"/>
      </g>
     </g>
     <g id="text_2">
      <!-- 200 -->
      <defs>
       <path d="M 19.1875 8.296875 
L 53.609375 8.296875 
L 53.609375 0 
L 7.328125 0 
L 7.328125 8.296875 
Q 12.9375 14.109375 22.625 23.890625 
Q 32.328125 33.6875 34.8125 36.53125 
Q 39.546875 41.84375 41.421875 45.53125 
Q 43.3125 49.21875 43.3125 52.78125 
Q 43.3125 58.59375 39.234375 62.25 
Q 35.15625 65.921875 28.609375 65.921875 
Q 23.96875 65.921875 18.8125 64.3125 
Q 13.671875 62.703125 7.8125 59.421875 
L 7.8125 69.390625 
Q 13.765625 71.78125 18.9375 73 
Q 24.125 74.21875 28.421875 74.21875 
Q 39.75 74.21875 46.484375 68.546875 
Q 53.21875 62.890625 53.21875 53.421875 
Q 53.21875 48.921875 51.53125 44.890625 
Q 49.859375 40.875 45.40625 35.40625 
Q 44.1875 33.984375 37.640625 27.21875 
Q 31.109375 20.453125 19.1875 8.296875 
" id="DejaVuSans-32"/>
      </defs>
      <g transform="translate(119.840977 322.182437)scale(0.1 -0.1)">
       <use xlink:href="#DejaVuSans-32"/>
       <use x="63.623047" xlink:href="#DejaVuSans-30"/>
       <use x="127.246094" xlink:href="#DejaVuSans-30"/>
      </g>
     </g>
    </g>
    <g id="xtick_3">
     <g id="line2d_5">
      <path clip-path="url(#p615e68bbda)" d="M 201.530182 307.584 
L 201.530182 41.472 
" style="fill:none;stroke:#b0b0b0;stroke-linecap:square;stroke-width:0.8;"/>
     </g>
     <g id="line2d_6">
      <g>
       <use style="stroke:#000000;stroke-width:0.8;" x="201.530182" xlink:href="#m841b8b12e1" y="307.584"/>
      </g>
     </g>
     <g id="text_3">
      <!-- 400 -->
      <defs>
       <path d="M 37.796875 64.3125 
L 12.890625 25.390625 
L 37.796875 25.390625 
z
M 35.203125 72.90625 
L 47.609375 72.90625 
L 47.609375 25.390625 
L 58.015625 25.390625 
L 58.015625 17.1875 
L 47.609375 17.1875 
L 47.609375 0 
L 37.796875 0 
L 37.796875 17.1875 
L 4.890625 17.1875 
L 4.890625 26.703125 
z
" id="DejaVuSans-34"/>
      </defs>
      <g transform="translate(191.986432 322.182437)scale(0.1 -0.1)">
       <use xlink:href="#DejaVuSans-34"/>
       <use x="63.623047" xlink:href="#DejaVuSans-30"/>
       <use x="127.246094" xlink:href="#DejaVuSans-30"/>
      </g>
     </g>
    </g>
    <g id="xtick_4">
     <g id="line2d_7">
      <path clip-path="url(#p615e68bbda)" d="M 273.675636 307.584 
L 273.675636 41.472 
" style="fill:none;stroke:#b0b0b0;stroke-linecap:square;stroke-width:0.8;"/>
     </g>
     <g id="line2d_8">
      <g>
       <use style="stroke:#000000;stroke-width:0.8;" x="273.675636" xlink:href="#m841b8b12e1" y="307.584"/>
      </g>
     </g>
     <g id="text_4">
      <!-- 600 -->
      <defs>
       <path d="M 33.015625 40.375 
Q 26.375 40.375 22.484375 35.828125 
Q 18.609375 31.296875 18.609375 23.390625 
Q 18.609375 15.53125 22.484375 10.953125 
Q 26.375 6.390625 33.015625 6.390625 
Q 39.65625 6.390625 43.53125 10.953125 
Q 47.40625 15.53125 47.40625 23.390625 
Q 47.40625 31.296875 43.53125 35.828125 
Q 39.65625 40.375 33.015625 40.375 
M 52.59375 71.296875 
L 52.59375 62.3125 
Q 48.875 64.0625 45.09375 64.984375 
Q 41.3125 65.921875 37.59375 65.921875 
Q 27.828125 65.921875 22.671875 59.328125 
Q 17.53125 52.734375 16.796875 39.40625 
Q 19.671875 43.65625 24.015625 45.921875 
Q 28.375 48.1875 33.59375 48.1875 
Q 44.578125 48.1875 50.953125 41.515625 
Q 57.328125 34.859375 57.328125 23.390625 
Q 57.328125 12.15625 50.6875 5.359375 
Q 44.046875 -1.421875 33.015625 -1.421875 
Q 20.359375 -1.421875 13.671875 8.265625 
Q 6.984375 17.96875 6.984375 36.375 
Q 6.984375 53.65625 15.1875 63.9375 
Q 23.390625 74.21875 37.203125 74.21875 
Q 40.921875 74.21875 44.703125 73.484375 
Q 48.484375 72.75 52.59375 71.296875 
" id="DejaVuSans-36"/>
      </defs>
      <g transform="translate(264.131886 322.182437)scale(0.1 -0.1)">
       <use xlink:href="#DejaVuSans-36"/>
       <use x="63.623047" xlink:href="#DejaVuSans-30"/>
       <use x="127.246094" xlink:href="#DejaVuSans-30"/>
      </g>
     </g>
    </g>
    <g id="xtick_5">
     <g id="line2d_9">
      <path clip-path="url(#p615e68bbda)" d="M 345.821091 307.584 
L 345.821091 41.472 
" style="fill:none;stroke:#b0b0b0;stroke-linecap:square;stroke-width:0.8;"/>
     </g>
     <g id="line2d_10">
      <g>
       <use style="stroke:#000000;stroke-width:0.8;" x="345.821091" xlink:href="#m841b8b12e1" y="307.584"/>
      </g>
     </g>
     <g id="text_5">
      <!-- 800 -->
      <defs>
       <path d="M 31.78125 34.625 
Q 24.75 34.625 20.71875 30.859375 
Q 16.703125 27.09375 16.703125 20.515625 
Q 16.703125 13.921875 20.71875 10.15625 
Q 24.75 6.390625 31.78125 6.390625 
Q 38.8125 6.390625 42.859375 10.171875 
Q 46.921875 13.96875 46.921875 20.515625 
Q 46.921875 27.09375 42.890625 30.859375 
Q 38.875 34.625 31.78125 34.625 
M 21.921875 38.8125 
Q 15.578125 40.375 12.03125 44.71875 
Q 8.5 49.078125 8.5 55.328125 
Q 8.5 64.0625 14.71875 69.140625 
Q 20.953125 74.21875 31.78125 74.21875 
Q 42.671875 74.21875 48.875 69.140625 
Q 55.078125 64.0625 55.078125 55.328125 
Q 55.078125 49.078125 51.53125 44.71875 
Q 48 40.375 41.703125 38.8125 
Q 48.828125 37.15625 52.796875 32.3125 
Q 56.78125 27.484375 56.78125 20.515625 
Q 56.78125 9.90625 50.3125 4.234375 
Q 43.84375 -1.421875 31.78125 -1.421875 
Q 19.734375 -1.421875 13.25 4.234375 
Q 6.78125 9.90625 6.78125 20.515625 
Q 6.78125 27.484375 10.78125 32.3125 
Q 14.796875 37.15625 21.921875 38.8125 
M 18.3125 54.390625 
Q 18.3125 48.734375 21.84375 45.5625 
Q 25.390625 42.390625 31.78125 42.390625 
Q 38.140625 42.390625 41.71875 45.5625 
Q 45.3125 48.734375 45.3125 54.390625 
Q 45.3125 60.0625 41.71875 63.234375 
Q 38.140625 66.40625 31.78125 66.40625 
Q 25.390625 66.40625 21.84375 63.234375 
Q 18.3125 60.0625 18.3125 54.390625 
" id="DejaVuSans-38"/>
      </defs>
      <g transform="translate(336.277341 322.182437)scale(0.1 -0.1)">
       <use xlink:href="#DejaVuSans-38"/>
       <use x="63.623047" xlink:href="#DejaVuSans-30"/>
       <use x="127.246094" xlink:href="#DejaVuSans-30"/>
      </g>
     </g>
    </g>
    <g id="text_6">
     <!-- Number of clients -->
     <defs>
      <path d="M 9.8125 72.90625 
L 23.09375 72.90625 
L 55.421875 11.921875 
L 55.421875 72.90625 
L 64.984375 72.90625 
L 64.984375 0 
L 51.703125 0 
L 19.390625 60.984375 
L 19.390625 0 
L 9.8125 0 
z
" id="DejaVuSans-4e"/>
      <path d="M 8.5 21.578125 
L 8.5 54.6875 
L 17.484375 54.6875 
L 17.484375 21.921875 
Q 17.484375 14.15625 20.5 10.265625 
Q 23.53125 6.390625 29.59375 6.390625 
Q 36.859375 6.390625 41.078125 11.03125 
Q 45.3125 15.671875 45.3125 23.6875 
L 45.3125 54.6875 
L 54.296875 54.6875 
L 54.296875 0 
L 45.3125 0 
L 45.3125 8.40625 
Q 42.046875 3.421875 37.71875 1 
Q 33.40625 -1.421875 27.6875 -1.421875 
Q 18.265625 -1.421875 13.375 4.4375 
Q 8.5 10.296875 8.5 21.578125 
M 31.109375 56 
z
" id="DejaVuSans-75"/>
      <path d="M 52 44.1875 
Q 55.375 50.25 60.0625 53.125 
Q 64.75 56 71.09375 56 
Q 79.640625 56 84.28125 50.015625 
Q 88.921875 44.046875 88.921875 33.015625 
L 88.921875 0 
L 79.890625 0 
L 79.890625 32.71875 
Q 79.890625 40.578125 77.09375 44.375 
Q 74.3125 48.1875 68.609375 48.1875 
Q 61.625 48.1875 57.5625 43.546875 
Q 53.515625 38.921875 53.515625 30.90625 
L 53.515625 0 
L 44.484375 0 
L 44.484375 32.71875 
Q 44.484375 40.625 41.703125 44.40625 
Q 38.921875 48.1875 33.109375 48.1875 
Q 26.21875 48.1875 22.15625 43.53125 
Q 18.109375 38.875 18.109375 30.90625 
L 18.109375 0 
L 9.078125 0 
L 9.078125 54.6875 
L 18.109375 54.6875 
L 18.109375 46.1875 
Q 21.1875 51.21875 25.484375 53.609375 
Q 29.78125 56 35.6875 56 
Q 41.65625 56 45.828125 52.96875 
Q 50 49.953125 52 44.1875 
" id="DejaVuSans-6d"/>
      <path d="M 48.6875 27.296875 
Q 48.6875 37.203125 44.609375 42.84375 
Q 40.53125 48.484375 33.40625 48.484375 
Q 26.265625 48.484375 22.1875 42.84375 
Q 18.109375 37.203125 18.109375 27.296875 
Q 18.109375 17.390625 22.1875 11.75 
Q 26.265625 6.109375 33.40625 6.109375 
Q 40.53125 6.109375 44.609375 11.75 
Q 48.6875 17.390625 48.6875 27.296875 
M 18.109375 46.390625 
Q 20.953125 51.265625 25.265625 53.625 
Q 29.59375 56 35.59375 56 
Q 45.5625 56 51.78125 48.09375 
Q 58.015625 40.1875 58.015625 27.296875 
Q 58.015625 14.40625 51.78125 6.484375 
Q 45.5625 -1.421875 35.59375 -1.421875 
Q 29.59375 -1.421875 25.265625 0.953125 
Q 20.953125 3.328125 18.109375 8.203125 
L 18.109375 0 
L 9.078125 0 
L 9.078125 75.984375 
L 18.109375 75.984375 
z
" id="DejaVuSans-62"/>
      <path d="M 56.203125 29.59375 
L 56.203125 25.203125 
L 14.890625 25.203125 
Q 15.484375 15.921875 20.484375 11.0625 
Q 25.484375 6.203125 34.421875 6.203125 
Q 39.59375 6.203125 44.453125 7.46875 
Q 49.3125 8.734375 54.109375 11.28125 
L 54.109375 2.78125 
Q 49.265625 0.734375 44.1875 -0.34375 
Q 39.109375 -1.421875 33.890625 -1.421875 
Q 20.796875 -1.421875 13.15625 6.1875 
Q 5.515625 13.8125 5.515625 26.8125 
Q 5.515625 40.234375 12.765625 48.109375 
Q 20.015625 56 32.328125 56 
Q 43.359375 56 49.78125 48.890625 
Q 56.203125 41.796875 56.203125 29.59375 
M 47.21875 32.234375 
Q 47.125 39.59375 43.09375 43.984375 
Q 39.0625 48.390625 32.421875 48.390625 
Q 24.90625 48.390625 20.390625 44.140625 
Q 15.875 39.890625 15.1875 32.171875 
z
" id="DejaVuSans-65"/>
      <path d="M 41.109375 46.296875 
Q 39.59375 47.171875 37.8125 47.578125 
Q 36.03125 48 33.890625 48 
Q 26.265625 48 22.1875 43.046875 
Q 18.109375 38.09375 18.109375 28.8125 
L 18.109375 0 
L 9.078125 0 
L 9.078125 54.6875 
L 18.109375 54.6875 
L 18.109375 46.1875 
Q 20.953125 51.171875 25.484375 53.578125 
Q 30.03125 56 36.53125 56 
Q 37.453125 56 38.578125 55.875 
Q 39.703125 55.765625 41.0625 55.515625 
z
" id="DejaVuSans-72"/>
      <path id="DejaVuSans-20"/>
      <path d="M 30.609375 48.390625 
Q 23.390625 48.390625 19.1875 42.75 
Q 14.984375 37.109375 14.984375 27.296875 
Q 14.984375 17.484375 19.15625 11.84375 
Q 23.34375 6.203125 30.609375 6.203125 
Q 37.796875 6.203125 41.984375 11.859375 
Q 46.1875 17.53125 46.1875 27.296875 
Q 46.1875 37.015625 41.984375 42.703125 
Q 37.796875 48.390625 30.609375 48.390625 
M 30.609375 56 
Q 42.328125 56 49.015625 48.375 
Q 55.71875 40.765625 55.71875 27.296875 
Q 55.71875 13.875 49.015625 6.21875 
Q 42.328125 -1.421875 30.609375 -1.421875 
Q 18.84375 -1.421875 12.171875 6.21875 
Q 5.515625 13.875 5.515625 27.296875 
Q 5.515625 40.765625 12.171875 48.375 
Q 18.84375 56 30.609375 56 
" id="DejaVuSans-6f"/>
      <path d="M 37.109375 75.984375 
L 37.109375 68.5 
L 28.515625 68.5 
Q 23.6875 68.5 21.796875 66.546875 
Q 19.921875 64.59375 19.921875 59.515625 
L 19.921875 54.6875 
L 34.71875 54.6875 
L 34.71875 47.703125 
L 19.921875 47.703125 
L 19.921875 0 
L 10.890625 0 
L 10.890625 47.703125 
L 2.296875 47.703125 
L 2.296875 54.6875 
L 10.890625 54.6875 
L 10.890625 58.5 
Q 10.890625 67.625 15.140625 71.796875 
Q 19.390625 75.984375 28.609375 75.984375 
z
" id="DejaVuSans-66"/>
      <path d="M 48.78125 52.59375 
L 48.78125 44.1875 
Q 44.96875 46.296875 41.140625 47.34375 
Q 37.3125 48.390625 33.40625 48.390625 
Q 24.65625 48.390625 19.8125 42.84375 
Q 14.984375 37.3125 14.984375 27.296875 
Q 14.984375 17.28125 19.8125 11.734375 
Q 24.65625 6.203125 33.40625 6.203125 
Q 37.3125 6.203125 41.140625 7.25 
Q 44.96875 8.296875 48.78125 10.40625 
L 48.78125 2.09375 
Q 45.015625 0.34375 40.984375 -0.53125 
Q 36.96875 -1.421875 32.421875 -1.421875 
Q 20.0625 -1.421875 12.78125 6.34375 
Q 5.515625 14.109375 5.515625 27.296875 
Q 5.515625 40.671875 12.859375 48.328125 
Q 20.21875 56 33.015625 56 
Q 37.15625 56 41.109375 55.140625 
Q 45.0625 54.296875 48.78125 52.59375 
" id="DejaVuSans-63"/>
      <path d="M 9.421875 75.984375 
L 18.40625 75.984375 
L 18.40625 0 
L 9.421875 0 
z
" id="DejaVuSans-6c"/>
      <path d="M 9.421875 54.6875 
L 18.40625 54.6875 
L 18.40625 0 
L 9.421875 0 
z
M 9.421875 75.984375 
L 18.40625 75.984375 
L 18.40625 64.59375 
L 9.421875 64.59375 
z
" id="DejaVuSans-69"/>
      <path d="M 54.890625 33.015625 
L 54.890625 0 
L 45.90625 0 
L 45.90625 32.71875 
Q 45.90625 40.484375 42.875 44.328125 
Q 39.84375 48.1875 33.796875 48.1875 
Q 26.515625 48.1875 22.3125 43.546875 
Q 18.109375 38.921875 18.109375 30.90625 
L 18.109375 0 
L 9.078125 0 
L 9.078125 54.6875 
L 18.109375 54.6875 
L 18.109375 46.1875 
Q 21.34375 51.125 25.703125 53.5625 
Q 30.078125 56 35.796875 56 
Q 45.21875 56 50.046875 50.171875 
Q 54.890625 44.34375 54.890625 33.015625 
" id="DejaVuSans-6e"/>
      <path d="M 18.3125 70.21875 
L 18.3125 54.6875 
L 36.8125 54.6875 
L 36.8125 47.703125 
L 18.3125 47.703125 
L 18.3125 18.015625 
Q 18.3125 11.328125 20.140625 9.421875 
Q 21.96875 7.515625 27.59375 7.515625 
L 36.8125 7.515625 
L 36.8125 0 
L 27.59375 0 
Q 17.1875 0 13.234375 3.875 
Q 9.28125 7.765625 9.28125 18.015625 
L 9.28125 47.703125 
L 2.6875 47.703125 
L 2.6875 54.6875 
L 9.28125 54.6875 
L 9.28125 70.21875 
z
" id="DejaVuSans-74"/>
      <path d="M 44.28125 53.078125 
L 44.28125 44.578125 
Q 40.484375 46.53125 36.375 47.5 
Q 32.28125 48.484375 27.875 48.484375 
Q 21.1875 48.484375 17.84375 46.4375 
Q 14.5 44.390625 14.5 40.28125 
Q 14.5 37.15625 16.890625 35.375 
Q 19.28125 33.59375 26.515625 31.984375 
L 29.59375 31.296875 
Q 39.15625 29.25 43.1875 25.515625 
Q 47.21875 21.78125 47.21875 15.09375 
Q 47.21875 7.46875 41.1875 3.015625 
Q 35.15625 -1.421875 24.609375 -1.421875 
Q 20.21875 -1.421875 15.453125 -0.5625 
Q 10.6875 0.296875 5.421875 2 
L 5.421875 11.28125 
Q 10.40625 8.6875 15.234375 7.390625 
Q 20.0625 6.109375 24.8125 6.109375 
Q 31.15625 6.109375 34.5625 8.28125 
Q 37.984375 10.453125 37.984375 14.40625 
Q 37.984375 18.0625 35.515625 20.015625 
Q 33.0625 21.96875 24.703125 23.78125 
L 21.578125 24.515625 
Q 13.234375 26.265625 9.515625 29.90625 
Q 5.8125 33.546875 5.8125 39.890625 
Q 5.8125 47.609375 11.28125 51.796875 
Q 16.75 56 26.8125 56 
Q 31.78125 56 36.171875 55.265625 
Q 40.578125 54.546875 44.28125 53.078125 
" id="DejaVuSans-73"/>
     </defs>
     <g transform="translate(191.738906 335.860562)scale(0.1 -0.1)">
      <use xlink:href="#DejaVuSans-4e"/>
      <use x="74.804688" xlink:href="#DejaVuSans-75"/>
      <use x="138.183594" xlink:href="#DejaVuSans-6d"/>
      <use x="235.595703" xlink:href="#DejaVuSans-62"/>
      <use x="299.072266" xlink:href="#DejaVuSans-65"/>
      <use x="360.595703" xlink:href="#DejaVuSans-72"/>
      <use x="401.708984" xlink:href="#DejaVuSans-20"/>
      <use x="433.496094" xlink:href="#DejaVuSans-6f"/>
      <use x="494.677734" xlink:href="#DejaVuSans-66"/>
      <use x="529.882812" xlink:href="#DejaVuSans-20"/>
      <use x="561.669922" xlink:href="#DejaVuSans-63"/>
      <use x="616.650391" xlink:href="#DejaVuSans-6c"/>
      <use x="644.433594" xlink:href="#DejaVuSans-69"/>
      <use x="672.216797" xlink:href="#DejaVuSans-65"/>
      <use x="733.740234" xlink:href="#DejaVuSans-6e"/>
      <use x="797.119141" xlink:href="#DejaVuSans-74"/>
      <use x="836.328125" xlink:href="#DejaVuSans-73"/>
     </g>
    </g>
   </g>
   <g id="matplotlib.axis_2">
    <g id="ytick_1">
     <g id="line2d_11">
      <path clip-path="url(#p615e68bbda)" d="M 57.6 296.059343 
L 414.72 296.059343 
" style="fill:none;stroke:#b0b0b0;stroke-linecap:square;stroke-width:0.8;"/>
     </g>
     <g id="line2d_12">
      <defs>
       <path d="M 0 0 
L -3.5 0 
" id="m8fb5bc2a80" style="stroke:#000000;stroke-width:0.8;"/>
      </defs>
      <g>
       <use style="stroke:#000000;stroke-width:0.8;" x="57.6" xlink:href="#m8fb5bc2a80" y="296.059343"/>
      </g>
     </g>
     <g id="text_7">
      <!-- 0 -->
      <g transform="translate(44.2375 299.858562)scale(0.1 -0.1)">
       <use xlink:href="#DejaVuSans-30"/>
      </g>
     </g>
    </g>
    <g id="ytick_2">
     <g id="line2d_13">
      <path clip-path="url(#p615e68bbda)" d="M 57.6 241.573053 
L 414.72 241.573053 
" style="fill:none;stroke:#b0b0b0;stroke-linecap:square;stroke-width:0.8;"/>
     </g>
     <g id="line2d_14">
      <g>
       <use style="stroke:#000000;stroke-width:0.8;" x="57.6" xlink:href="#m8fb5bc2a80" y="241.573053"/>
      </g>
     </g>
     <g id="text_8">
      <!-- 500 -->
      <defs>
       <path d="M 10.796875 72.90625 
L 49.515625 72.90625 
L 49.515625 64.59375 
L 19.828125 64.59375 
L 19.828125 46.734375 
Q 21.96875 47.46875 24.109375 47.828125 
Q 26.265625 48.1875 28.421875 48.1875 
Q 40.625 48.1875 47.75 41.5 
Q 54.890625 34.8125 54.890625 23.390625 
Q 54.890625 11.625 47.5625 5.09375 
Q 40.234375 -1.421875 26.90625 -1.421875 
Q 22.3125 -1.421875 17.546875 -0.640625 
Q 12.796875 0.140625 7.71875 1.703125 
L 7.71875 11.625 
Q 12.109375 9.234375 16.796875 8.0625 
Q 21.484375 6.890625 26.703125 6.890625 
Q 35.15625 6.890625 40.078125 11.328125 
Q 45.015625 15.765625 45.015625 23.390625 
Q 45.015625 31 40.078125 35.4375 
Q 35.15625 39.890625 26.703125 39.890625 
Q 22.75 39.890625 18.8125 39.015625 
Q 14.890625 38.140625 10.796875 36.28125 
z
" id="DejaVuSans-35"/>
      </defs>
      <g transform="translate(31.5125 245.372272)scale(0.1 -0.1)">
       <use xlink:href="#DejaVuSans-35"/>
       <use x="63.623047" xlink:href="#DejaVuSans-30"/>
       <use x="127.246094" xlink:href="#DejaVuSans-30"/>
      </g>
     </g>
    </g>
    <g id="ytick_3">
     <g id="line2d_15">
      <path clip-path="url(#p615e68bbda)" d="M 57.6 187.086763 
L 414.72 187.086763 
" style="fill:none;stroke:#b0b0b0;stroke-linecap:square;stroke-width:0.8;"/>
     </g>
     <g id="line2d_16">
      <g>
       <use style="stroke:#000000;stroke-width:0.8;" x="57.6" xlink:href="#m8fb5bc2a80" y="187.086763"/>
      </g>
     </g>
     <g id="text_9">
      <!-- 1000 -->
      <defs>
       <path d="M 12.40625 8.296875 
L 28.515625 8.296875 
L 28.515625 63.921875 
L 10.984375 60.40625 
L 10.984375 69.390625 
L 28.421875 72.90625 
L 38.28125 72.90625 
L 38.28125 8.296875 
L 54.390625 8.296875 
L 54.390625 0 
L 12.40625 0 
z
" id="DejaVuSans-31"/>
      </defs>
      <g transform="translate(25.15 190.885982)scale(0.1 -0.1)">
       <use xlink:href="#DejaVuSans-31"/>
       <use x="63.623047" xlink:href="#DejaVuSans-30"/>
       <use x="127.246094" xlink:href="#DejaVuSans-30"/>
       <use x="190.869141" xlink:href="#DejaVuSans-30"/>
      </g>
     </g>
    </g>
    <g id="ytick_4">
     <g id="line2d_17">
      <path clip-path="url(#p615e68bbda)" d="M 57.6 132.600473 
L 414.72 132.600473 
" style="fill:none;stroke:#b0b0b0;stroke-linecap:square;stroke-width:0.8;"/>
     </g>
     <g id="line2d_18">
      <g>
       <use style="stroke:#000000;stroke-width:0.8;" x="57.6" xlink:href="#m8fb5bc2a80" y="132.600473"/>
      </g>
     </g>
     <g id="text_10">
      <!-- 1500 -->
      <g transform="translate(25.15 136.399692)scale(0.1 -0.1)">
       <use xlink:href="#DejaVuSans-31"/>
       <use x="63.623047" xlink:href="#DejaVuSans-35"/>
       <use x="127.246094" xlink:href="#DejaVuSans-30"/>
       <use x="190.869141" xlink:href="#DejaVuSans-30"/>
      </g>
     </g>
    </g>
    <g id="ytick_5">
     <g id="line2d_19">
      <path clip-path="url(#p615e68bbda)" d="M 57.6 78.114183 
L 414.72 78.114183 
" style="fill:none;stroke:#b0b0b0;stroke-linecap:square;stroke-width:0.8;"/>
     </g>
     <g id="line2d_20">
      <g>
       <use style="stroke:#000000;stroke-width:0.8;" x="57.6" xlink:href="#m8fb5bc2a80" y="78.114183"/>
      </g>
     </g>
     <g id="text_11">
      <!-- 2000 -->
      <g transform="translate(25.15 81.913401)scale(0.1 -0.1)">
       <use xlink:href="#DejaVuSans-32"/>
       <use x="63.623047" xlink:href="#DejaVuSans-30"/>
       <use x="127.246094" xlink:href="#DejaVuSans-30"/>
       <use x="190.869141" xlink:href="#DejaVuSans-30"/>
      </g>
     </g>
    </g>
    <g id="text_12">
     <!-- Packets per second -->
     <defs>
      <path d="M 19.671875 64.796875 
L 19.671875 37.40625 
L 32.078125 37.40625 
Q 38.96875 37.40625 42.71875 40.96875 
Q 46.484375 44.53125 46.484375 51.125 
Q 46.484375 57.671875 42.71875 61.234375 
Q 38.96875 64.796875 32.078125 64.796875 
z
M 9.8125 72.90625 
L 32.078125 72.90625 
Q 44.34375 72.90625 50.609375 67.359375 
Q 56.890625 61.8125 56.890625 51.125 
Q 56.890625 40.328125 50.609375 34.8125 
Q 44.34375 29.296875 32.078125 29.296875 
L 19.671875 29.296875 
L 19.671875 0 
L 9.8125 0 
z
" id="DejaVuSans-50"/>
      <path d="M 34.28125 27.484375 
Q 23.390625 27.484375 19.1875 25 
Q 14.984375 22.515625 14.984375 16.5 
Q 14.984375 11.71875 18.140625 8.90625 
Q 21.296875 6.109375 26.703125 6.109375 
Q 34.1875 6.109375 38.703125 11.40625 
Q 43.21875 16.703125 43.21875 25.484375 
L 43.21875 27.484375 
z
M 52.203125 31.203125 
L 52.203125 0 
L 43.21875 0 
L 43.21875 8.296875 
Q 40.140625 3.328125 35.546875 0.953125 
Q 30.953125 -1.421875 24.3125 -1.421875 
Q 15.921875 -1.421875 10.953125 3.296875 
Q 6 8.015625 6 15.921875 
Q 6 25.140625 12.171875 29.828125 
Q 18.359375 34.515625 30.609375 34.515625 
L 43.21875 34.515625 
L 43.21875 35.40625 
Q 43.21875 41.609375 39.140625 45 
Q 35.0625 48.390625 27.6875 48.390625 
Q 23 48.390625 18.546875 47.265625 
Q 14.109375 46.140625 10.015625 43.890625 
L 10.015625 52.203125 
Q 14.9375 54.109375 19.578125 55.046875 
Q 24.21875 56 28.609375 56 
Q 40.484375 56 46.34375 49.84375 
Q 52.203125 43.703125 52.203125 31.203125 
" id="DejaVuSans-61"/>
      <path d="M 9.078125 75.984375 
L 18.109375 75.984375 
L 18.109375 31.109375 
L 44.921875 54.6875 
L 56.390625 54.6875 
L 27.390625 29.109375 
L 57.625 0 
L 45.90625 0 
L 18.109375 26.703125 
L 18.109375 0 
L 9.078125 0 
z
" id="DejaVuSans-6b"/>
      <path d="M 18.109375 8.203125 
L 18.109375 -20.796875 
L 9.078125 -20.796875 
L 9.078125 54.6875 
L 18.109375 54.6875 
L 18.109375 46.390625 
Q 20.953125 51.265625 25.265625 53.625 
Q 29.59375 56 35.59375 56 
Q 45.5625 56 51.78125 48.09375 
Q 58.015625 40.1875 58.015625 27.296875 
Q 58.015625 14.40625 51.78125 6.484375 
Q 45.5625 -1.421875 35.59375 -1.421875 
Q 29.59375 -1.421875 25.265625 0.953125 
Q 20.953125 3.328125 18.109375 8.203125 
M 48.6875 27.296875 
Q 48.6875 37.203125 44.609375 42.84375 
Q 40.53125 48.484375 33.40625 48.484375 
Q 26.265625 48.484375 22.1875 42.84375 
Q 18.109375 37.203125 18.109375 27.296875 
Q 18.109375 17.390625 22.1875 11.75 
Q 26.265625 6.109375 33.40625 6.109375 
Q 40.53125 6.109375 44.609375 11.75 
Q 48.6875 17.390625 48.6875 27.296875 
" id="DejaVuSans-70"/>
      <path d="M 45.40625 46.390625 
L 45.40625 75.984375 
L 54.390625 75.984375 
L 54.390625 0 
L 45.40625 0 
L 45.40625 8.203125 
Q 42.578125 3.328125 38.25 0.953125 
Q 33.9375 -1.421875 27.875 -1.421875 
Q 17.96875 -1.421875 11.734375 6.484375 
Q 5.515625 14.40625 5.515625 27.296875 
Q 5.515625 40.1875 11.734375 48.09375 
Q 17.96875 56 27.875 56 
Q 33.9375 56 38.25 53.625 
Q 42.578125 51.265625 45.40625 46.390625 
M 14.796875 27.296875 
Q 14.796875 17.390625 18.875 11.75 
Q 22.953125 6.109375 30.078125 6.109375 
Q 37.203125 6.109375 41.296875 11.75 
Q 45.40625 17.390625 45.40625 27.296875 
Q 45.40625 37.203125 41.296875 42.84375 
Q 37.203125 48.484375 30.078125 48.484375 
Q 22.953125 48.484375 18.875 42.84375 
Q 14.796875 37.203125 14.796875 27.296875 
" id="DejaVuSans-64"/>
     </defs>
     <g transform="translate(19.070312 223.204563)rotate(-90)scale(0.1 -0.1)">
      <use xlink:href="#DejaVuSans-50"/>
      <use x="60.240234" xlink:href="#DejaVuSans-61"/>
      <use x="121.519531" xlink:href="#DejaVuSans-63"/>
      <use x="176.5" xlink:href="#DejaVuSans-6b"/>
      <use x="234.363281" xlink:href="#DejaVuSans-65"/>
      <use x="295.886719" xlink:href="#DejaVuSans-74"/>
      <use x="335.095703" xlink:href="#DejaVuSans-73"/>
      <use x="387.195312" xlink:href="#DejaVuSans-20"/>
      <use x="418.982422" xlink:href="#DejaVuSans-70"/>
      <use x="482.458984" xlink:href="#DejaVuSans-65"/>
      <use x="543.982422" xlink:href="#DejaVuSans-72"/>
      <use x="585.095703" xlink:href="#DejaVuSans-20"/>
      <use x="616.882812" xlink:href="#DejaVuSans-73"/>
      <use x="668.982422" xlink:href="#DejaVuSans-65"/>
      <use x="730.505859" xlink:href="#DejaVuSans-63"/>
      <use x="785.486328" xlink:href="#DejaVuSans-6f"/>
      <use x="846.667969" xlink:href="#DejaVuSans-6e"/>
      <use x="910.046875" xlink:href="#DejaVuSans-64"/>
     </g>
    </g>
   </g>
   <g id="line2d_21">
    <path clip-path="url(#p615e68bbda)" d="M 57.6 294.472049 
L 61.207273 289.708094 
L 64.814545 285.508291 
L 68.421818 285.326743 
L 72.029091 276.778171 
L 75.636364 264.684394 
L 79.243636 263.840183 
L 82.850909 258.193333 
L 86.458182 261.960624 
L 90.065455 255.143409 
L 93.672727 245.290217 
L 97.28 251.330022 
L 100.887273 245.13395 
L 104.494545 235.287188 
L 108.101818 237.508485 
L 111.709091 237.298168 
L 115.316364 242.44843 
L 118.923636 237.298604 
L 122.530909 236.69871 
L 126.138182 237.519382 
L 129.745455 224.764795 
L 133.352727 225.767125 
L 136.96 217.661091 
L 140.567273 215.147311 
L 144.174545 217.616085 
L 147.781818 222.254503 
L 151.389091 212.156777 
L 154.996364 217.336462 
L 158.603636 220.045738 
L 162.210909 215.08171 
L 165.818182 215.257592 
L 169.425455 209.151749 
L 173.032727 209.889602 
L 176.64 215.150363 
L 180.247273 202.838967 
L 183.854545 208.100817 
L 187.461818 208.75498 
L 191.069091 202.507691 
L 194.676364 208.380659 
L 198.283636 195.081536 
L 201.890909 197.712134 
L 205.498182 187.278446 
L 209.105455 198.369784 
L 212.712727 180.86748 
L 216.32 201.644737 
L 219.927273 203.575186 
L 223.534545 178.403937 
L 227.141818 188.619135 
L 230.749091 185.227146 
L 234.356364 181.972244 
L 237.963636 184.142542 
L 241.570909 171.373462 
L 245.178182 176.422924 
L 248.785455 186.123336 
L 252.392727 178.182395 
L 256 160.259457 
L 259.607273 178.975716 
L 263.214545 162.450351 
L 266.821818 172.459591 
L 270.429091 170.892457 
L 274.036364 165.90391 
L 277.643636 164.261911 
L 281.250909 162.54374 
L 284.858182 162.769532 
L 288.465455 156.474513 
L 292.072727 154.520416 
L 295.68 165.690542 
L 299.287273 145.017789 
L 302.894545 159.148373 
L 306.501818 141.829906 
L 310.109091 156.223331 
L 313.716364 152.317754 
L 317.323636 149.368084 
L 320.930909 145.814052 
L 324.538182 155.225142 
L 328.145455 152.436534 
L 331.752727 148.173962 
L 335.36 125.737707 
L 338.967273 138.260182 
L 342.574545 148.626852 
L 346.181818 124.126111 
L 349.789091 139.175987 
L 353.396364 136.482839 
L 357.003636 139.68162 
L 360.610909 145.329887 
L 364.218182 121.48952 
L 367.825455 117.219865 
L 371.432727 133.97745 
L 375.04 125.28024 
L 378.647273 134.258273 
L 382.254545 134.001751 
L 385.861818 137.103765 
L 389.469091 109.726692 
L 393.076364 121.568852 
L 396.683636 133.885042 
L 400.290909 122.702493 
L 403.898182 116.205003 
L 407.505455 120.436844 
L 411.112727 105.995253 
L 414.72 105.164882 
" style="fill:none;stroke:#000080;stroke-linecap:square;"/>
    <defs>
     <path d="M 0 1.5 
C 0.397805 1.5 0.77937 1.341951 1.06066 1.06066 
C 1.341951 0.77937 1.5 0.397805 1.5 0 
C 1.5 -0.397805 1.341951 -0.77937 1.06066 -1.06066 
C 0.77937 -1.341951 0.397805 -1.5 0 -1.5 
C -0.397805 -1.5 -0.77937 -1.341951 -1.06066 -1.06066 
C -1.341951 -0.77937 -1.5 -0.397805 -1.5 0 
C -1.5 0.397805 -1.341951 0.77937 -1.06066 1.06066 
C -0.77937 1.341951 -0.397805 1.5 0 1.5 
z
" id="m0d07b6b0ae" style="stroke:#000080;"/>
    </defs>
    <g clip-path="url(#p615e68bbda)">
     <use style="fill:#000080;stroke:#000080;" x="57.6" xlink:href="#m0d07b6b0ae" y="294.472049"/>
     <use style="fill:#000080;stroke:#000080;" x="61.207273" xlink:href="#m0d07b6b0ae" y="289.708094"/>
     <use style="fill:#000080;stroke:#000080;" x="64.814545" xlink:href="#m0d07b6b0ae" y="285.508291"/>
     <use style="fill:#000080;stroke:#000080;" x="68.421818" xlink:href="#m0d07b6b0ae" y="285.326743"/>
     <use style="fill:#000080;stroke:#000080;" x="72.029091" xlink:href="#m0d07b6b0ae" y="276.778171"/>
     <use style="fill:#000080;stroke:#000080;" x="75.636364" xlink:href="#m0d07b6b0ae" y="264.684394"/>
     <use style="fill:#000080;stroke:#000080;" x="79.243636" xlink:href="#m0d07b6b0ae" y="263.840183"/>
     <use style="fill:#000080;stroke:#000080;" x="82.850909" xlink:href="#m0d07b6b0ae" y="258.193333"/>
     <use style="fill:#000080;stroke:#000080;" x="86.458182" xlink:href="#m0d07b6b0ae" y="261.960624"/>
     <use style="fill:#000080;stroke:#000080;" x="90.065455" xlink:href="#m0d07b6b0ae" y="255.143409"/>
     <use style="fill:#000080;stroke:#000080;" x="93.672727" xlink:href="#m0d07b6b0ae" y="245.290217"/>
     <use style="fill:#000080;stroke:#000080;" x="97.28" xlink:href="#m0d07b6b0ae" y="251.330022"/>
     <use style="fill:#000080;stroke:#000080;" x="100.887273" xlink:href="#m0d07b6b0ae" y="245.13395"/>
     <use style="fill:#000080;stroke:#000080;" x="104.494545" xlink:href="#m0d07b6b0ae" y="235.287188"/>
     <use style="fill:#000080;stroke:#000080;" x="108.101818" xlink:href="#m0d07b6b0ae" y="237.508485"/>
     <use style="fill:#000080;stroke:#000080;" x="111.709091" xlink:href="#m0d07b6b0ae" y="237.298168"/>
     <use style="fill:#000080;stroke:#000080;" x="115.316364" xlink:href="#m0d07b6b0ae" y="242.44843"/>
     <use style="fill:#000080;stroke:#000080;" x="118.923636" xlink:href="#m0d07b6b0ae" y="237.298604"/>
     <use style="fill:#000080;stroke:#000080;" x="122.530909" xlink:href="#m0d07b6b0ae" y="236.69871"/>
     <use style="fill:#000080;stroke:#000080;" x="126.138182" xlink:href="#m0d07b6b0ae" y="237.519382"/>
     <use style="fill:#000080;stroke:#000080;" x="129.745455" xlink:href="#m0d07b6b0ae" y="224.764795"/>
     <use style="fill:#000080;stroke:#000080;" x="133.352727" xlink:href="#m0d07b6b0ae" y="225.767125"/>
     <use style="fill:#000080;stroke:#000080;" x="136.96" xlink:href="#m0d07b6b0ae" y="217.661091"/>
     <use style="fill:#000080;stroke:#000080;" x="140.567273" xlink:href="#m0d07b6b0ae" y="215.147311"/>
     <use style="fill:#000080;stroke:#000080;" x="144.174545" xlink:href="#m0d07b6b0ae" y="217.616085"/>
     <use style="fill:#000080;stroke:#000080;" x="147.781818" xlink:href="#m0d07b6b0ae" y="222.254503"/>
     <use style="fill:#000080;stroke:#000080;" x="151.389091" xlink:href="#m0d07b6b0ae" y="212.156777"/>
     <use style="fill:#000080;stroke:#000080;" x="154.996364" xlink:href="#m0d07b6b0ae" y="217.336462"/>
     <use style="fill:#000080;stroke:#000080;" x="158.603636" xlink:href="#m0d07b6b0ae" y="220.045738"/>
     <use style="fill:#000080;stroke:#000080;" x="162.210909" xlink:href="#m0d07b6b0ae" y="215.08171"/>
     <use style="fill:#000080;stroke:#000080;" x="165.818182" xlink:href="#m0d07b6b0ae" y="215.257592"/>
     <use style="fill:#000080;stroke:#000080;" x="169.425455" xlink:href="#m0d07b6b0ae" y="209.151749"/>
     <use style="fill:#000080;stroke:#000080;" x="173.032727" xlink:href="#m0d07b6b0ae" y="209.889602"/>
     <use style="fill:#000080;stroke:#000080;" x="176.64" xlink:href="#m0d07b6b0ae" y="215.150363"/>
     <use style="fill:#000080;stroke:#000080;" x="180.247273" xlink:href="#m0d07b6b0ae" y="202.838967"/>
     <use style="fill:#000080;stroke:#000080;" x="183.854545" xlink:href="#m0d07b6b0ae" y="208.100817"/>
     <use style="fill:#000080;stroke:#000080;" x="187.461818" xlink:href="#m0d07b6b0ae" y="208.75498"/>
     <use style="fill:#000080;stroke:#000080;" x="191.069091" xlink:href="#m0d07b6b0ae" y="202.507691"/>
     <use style="fill:#000080;stroke:#000080;" x="194.676364" xlink:href="#m0d07b6b0ae" y="208.380659"/>
     <use style="fill:#000080;stroke:#000080;" x="198.283636" xlink:href="#m0d07b6b0ae" y="195.081536"/>
     <use style="fill:#000080;stroke:#000080;" x="201.890909" xlink:href="#m0d07b6b0ae" y="197.712134"/>
     <use style="fill:#000080;stroke:#000080;" x="205.498182" xlink:href="#m0d07b6b0ae" y="187.278446"/>
     <use style="fill:#000080;stroke:#000080;" x="209.105455" xlink:href="#m0d07b6b0ae" y="198.369784"/>
     <use style="fill:#000080;stroke:#000080;" x="212.712727" xlink:href="#m0d07b6b0ae" y="180.86748"/>
     <use style="fill:#000080;stroke:#000080;" x="216.32" xlink:href="#m0d07b6b0ae" y="201.644737"/>
     <use style="fill:#000080;stroke:#000080;" x="219.927273" xlink:href="#m0d07b6b0ae" y="203.575186"/>
     <use style="fill:#000080;stroke:#000080;" x="223.534545" xlink:href="#m0d07b6b0ae" y="178.403937"/>
     <use style="fill:#000080;stroke:#000080;" x="227.141818" xlink:href="#m0d07b6b0ae" y="188.619135"/>
     <use style="fill:#000080;stroke:#000080;" x="230.749091" xlink:href="#m0d07b6b0ae" y="185.227146"/>
     <use style="fill:#000080;stroke:#000080;" x="234.356364" xlink:href="#m0d07b6b0ae" y="181.972244"/>
     <use style="fill:#000080;stroke:#000080;" x="237.963636" xlink:href="#m0d07b6b0ae" y="184.142542"/>
     <use style="fill:#000080;stroke:#000080;" x="241.570909" xlink:href="#m0d07b6b0ae" y="171.373462"/>
     <use style="fill:#000080;stroke:#000080;" x="245.178182" xlink:href="#m0d07b6b0ae" y="176.422924"/>
     <use style="fill:#000080;stroke:#000080;" x="248.785455" xlink:href="#m0d07b6b0ae" y="186.123336"/>
     <use style="fill:#000080;stroke:#000080;" x="252.392727" xlink:href="#m0d07b6b0ae" y="178.182395"/>
     <use style="fill:#000080;stroke:#000080;" x="256" xlink:href="#m0d07b6b0ae" y="160.259457"/>
     <use style="fill:#000080;stroke:#000080;" x="259.607273" xlink:href="#m0d07b6b0ae" y="178.975716"/>
     <use style="fill:#000080;stroke:#000080;" x="263.214545" xlink:href="#m0d07b6b0ae" y="162.450351"/>
     <use style="fill:#000080;stroke:#000080;" x="266.821818" xlink:href="#m0d07b6b0ae" y="172.459591"/>
     <use style="fill:#000080;stroke:#000080;" x="270.429091" xlink:href="#m0d07b6b0ae" y="170.892457"/>
     <use style="fill:#000080;stroke:#000080;" x="274.036364" xlink:href="#m0d07b6b0ae" y="165.90391"/>
     <use style="fill:#000080;stroke:#000080;" x="277.643636" xlink:href="#m0d07b6b0ae" y="164.261911"/>
     <use style="fill:#000080;stroke:#000080;" x="281.250909" xlink:href="#m0d07b6b0ae" y="162.54374"/>
     <use style="fill:#000080;stroke:#000080;" x="284.858182" xlink:href="#m0d07b6b0ae" y="162.769532"/>
     <use style="fill:#000080;stroke:#000080;" x="288.465455" xlink:href="#m0d07b6b0ae" y="156.474513"/>
     <use style="fill:#000080;stroke:#000080;" x="292.072727" xlink:href="#m0d07b6b0ae" y="154.520416"/>
     <use style="fill:#000080;stroke:#000080;" x="295.68" xlink:href="#m0d07b6b0ae" y="165.690542"/>
     <use style="fill:#000080;stroke:#000080;" x="299.287273" xlink:href="#m0d07b6b0ae" y="145.017789"/>
     <use style="fill:#000080;stroke:#000080;" x="302.894545" xlink:href="#m0d07b6b0ae" y="159.148373"/>
     <use style="fill:#000080;stroke:#000080;" x="306.501818" xlink:href="#m0d07b6b0ae" y="141.829906"/>
     <use style="fill:#000080;stroke:#000080;" x="310.109091" xlink:href="#m0d07b6b0ae" y="156.223331"/>
     <use style="fill:#000080;stroke:#000080;" x="313.716364" xlink:href="#m0d07b6b0ae" y="152.317754"/>
     <use style="fill:#000080;stroke:#000080;" x="317.323636" xlink:href="#m0d07b6b0ae" y="149.368084"/>
     <use style="fill:#000080;stroke:#000080;" x="320.930909" xlink:href="#m0d07b6b0ae" y="145.814052"/>
     <use style="fill:#000080;stroke:#000080;" x="324.538182" xlink:href="#m0d07b6b0ae" y="155.225142"/>
     <use style="fill:#000080;stroke:#000080;" x="328.145455" xlink:href="#m0d07b6b0ae" y="152.436534"/>
     <use style="fill:#000080;stroke:#000080;" x="331.752727" xlink:href="#m0d07b6b0ae" y="148.173962"/>
     <use style="fill:#000080;stroke:#000080;" x="335.36" xlink:href="#m0d07b6b0ae" y="125.737707"/>
     <use style="fill:#000080;stroke:#000080;" x="338.967273" xlink:href="#m0d07b6b0ae" y="138.260182"/>
     <use style="fill:#000080;stroke:#000080;" x="342.574545" xlink:href="#m0d07b6b0ae" y="148.626852"/>
     <use style="fill:#000080;stroke:#000080;" x="346.181818" xlink:href="#m0d07b6b0ae" y="124.126111"/>
     <use style="fill:#000080;stroke:#000080;" x="349.789091" xlink:href="#m0d07b6b0ae" y="139.175987"/>
     <use style="fill:#000080;stroke:#000080;" x="353.396364" xlink:href="#m0d07b6b0ae" y="136.482839"/>
     <use style="fill:#000080;stroke:#000080;" x="357.003636" xlink:href="#m0d07b6b0ae" y="139.68162"/>
     <use style="fill:#000080;stroke:#000080;" x="360.610909" xlink:href="#m0d07b6b0ae" y="145.329887"/>
     <use style="fill:#000080;stroke:#000080;" x="364.218182" xlink:href="#m0d07b6b0ae" y="121.48952"/>
     <use style="fill:#000080;stroke:#000080;" x="367.825455" xlink:href="#m0d07b6b0ae" y="117.219865"/>
     <use style="fill:#000080;stroke:#000080;" x="371.432727" xlink:href="#m0d07b6b0ae" y="133.97745"/>
     <use style="fill:#000080;stroke:#000080;" x="375.04" xlink:href="#m0d07b6b0ae" y="125.28024"/>
     <use style="fill:#000080;stroke:#000080;" x="378.647273" xlink:href="#m0d07b6b0ae" y="134.258273"/>
     <use style="fill:#000080;stroke:#000080;" x="382.254545" xlink:href="#m0d07b6b0ae" y="134.001751"/>
     <use style="fill:#000080;stroke:#000080;" x="385.861818" xlink:href="#m0d07b6b0ae" y="137.103765"/>
     <use style="fill:#000080;stroke:#000080;" x="389.469091" xlink:href="#m0d07b6b0ae" y="109.726692"/>
     <use style="fill:#000080;stroke:#000080;" x="393.076364" xlink:href="#m0d07b6b0ae" y="121.568852"/>
     <use style="fill:#000080;stroke:#000080;" x="396.683636" xlink:href="#m0d07b6b0ae" y="133.885042"/>
     <use style="fill:#000080;stroke:#000080;" x="400.290909" xlink:href="#m0d07b6b0ae" y="122.702493"/>
     <use style="fill:#000080;stroke:#000080;" x="403.898182" xlink:href="#m0d07b6b0ae" y="116.205003"/>
     <use style="fill:#000080;stroke:#000080;" x="407.505455" xlink:href="#m0d07b6b0ae" y="120.436844"/>
     <use style="fill:#000080;stroke:#000080;" x="411.112727" xlink:href="#m0d07b6b0ae" y="105.995253"/>
     <use style="fill:#000080;stroke:#000080;" x="414.72" xlink:href="#m0d07b6b0ae" y="105.164882"/>
    </g>
   </g>
   <g id="line2d_22">
    <path clip-path="url(#p615e68bbda)" d="M 57.6 295.488 
L 61.207273 289.705697 
L 64.814545 283.845152 
L 68.421818 284.469455 
L 72.029091 272.123407 
L 75.636364 268.168356 
L 79.243636 263.51915 
L 82.850909 261.083722 
L 86.458182 250.914074 
L 90.065455 248.777121 
L 93.672727 244.839397 
L 97.28 234.833208 
L 100.887273 233.373629 
L 104.494545 245.666608 
L 108.101818 227.716972 
L 111.709091 224.664977 
L 115.316364 215.561952 
L 118.923636 206.882068 
L 122.530909 209.637331 
L 126.138182 209.647247 
L 129.745455 210.024074 
L 133.352727 221.637609 
L 136.96 210.461272 
L 140.567273 194.349132 
L 144.174545 185.248396 
L 147.781818 198.830411 
L 151.389091 200.649926 
L 154.996364 198.510032 
L 158.603636 188.554733 
L 162.210909 189.515871 
L 165.818182 171.159004 
L 169.425455 192.864707 
L 173.032727 186.386069 
L 176.64 180.416006 
L 180.247273 171.334123 
L 183.854545 155.083587 
L 187.461818 178.018392 
L 191.069091 181.54518 
L 194.676364 170.639313 
L 198.283636 159.308671 
L 201.890909 172.376663 
L 205.498182 160.752449 
L 209.105455 159.92404 
L 212.712727 162.385185 
L 216.32 142.095908 
L 219.927273 153.808498 
L 223.534545 148.787042 
L 227.141818 141.443925 
L 230.749091 161.093206 
L 234.356364 146.104682 
L 237.963636 154.009662 
L 241.570909 142.547272 
L 245.178182 135.769504 
L 248.785455 142.869831 
L 252.392727 136.892794 
L 256 133.088997 
L 259.607273 145.03686 
L 263.214545 108.495956 
L 266.821818 125.315983 
L 270.429091 135.610078 
L 274.036364 128.06122 
L 277.643636 136.069179 
L 281.250909 109.288841 
L 284.858182 114.844699 
L 288.465455 117.826624 
L 292.072727 115.367658 
L 295.68 110.333888 
L 299.287273 111.577374 
L 302.894545 125.546351 
L 306.501818 118.056338 
L 310.109091 124.705736 
L 313.716364 94.741764 
L 317.323636 110.087174 
L 320.930909 124.836612 
L 324.538182 113.713018 
L 328.145455 99.689773 
L 331.752727 105.342725 
L 335.36 98.233899 
L 338.967273 103.801962 
L 342.574545 96.40098 
L 346.181818 83.789366 
L 349.789091 98.569644 
L 353.396364 87.614085 
L 357.003636 78.892356 
L 360.610909 83.53328 
L 364.218182 71.367908 
L 367.825455 80.511579 
L 371.432727 79.295445 
L 375.04 89.195713 
L 378.647273 80.671442 
L 382.254545 83.456563 
L 385.861818 77.933506 
L 389.469091 58.313647 
L 393.076364 75.689434 
L 396.683636 75.83622 
L 400.290909 82.502726 
L 403.898182 56.47942 
L 407.505455 53.568 
L 411.112727 69.298083 
L 414.72 73.928982 
" style="fill:none;stroke:#00d4ff;stroke-linecap:square;"/>
    <defs>
     <path d="M 0 1.5 
C 0.397805 1.5 0.77937 1.341951 1.06066 1.06066 
C 1.341951 0.77937 1.5 0.397805 1.5 0 
C 1.5 -0.397805 1.341951 -0.77937 1.06066 -1.06066 
C 0.77937 -1.341951 0.397805 -1.5 0 -1.5 
C -0.397805 -1.5 -0.77937 -1.341951 -1.06066 -1.06066 
C -1.341951 -0.77937 -1.5 -0.397805 -1.5 0 
C -1.5 0.397805 -1.341951 0.77937 -1.06066 1.06066 
C -0.77937 1.341951 -0.397805 1.5 0 1.5 
z
" id="m75b769bd35" style="stroke:#00d4ff;"/>
    </defs>
    <g clip-path="url(#p615e68bbda)">
     <use style="fill:#00d4ff;stroke:#00d4ff;" x="57.6" xlink:href="#m75b769bd35" y="295.488"/>
     <use style="fill:#00d4ff;stroke:#00d4ff;" x="61.207273" xlink:href="#m75b769bd35" y="289.705697"/>
     <use style="fill:#00d4ff;stroke:#00d4ff;" x="64.814545" xlink:href="#m75b769bd35" y="283.845152"/>
     <use style="fill:#00d4ff;stroke:#00d4ff;" x="68.421818" xlink:href="#m75b769bd35" y="284.469455"/>
     <use style="fill:#00d4ff;stroke:#00d4ff;" x="72.029091" xlink:href="#m75b769bd35" y="272.123407"/>
     <use style="fill:#00d4ff;stroke:#00d4ff;" x="75.636364" xlink:href="#m75b769bd35" y="268.168356"/>
     <use style="fill:#00d4ff;stroke:#00d4ff;" x="79.243636" xlink:href="#m75b769bd35" y="263.51915"/>
     <use style="fill:#00d4ff;stroke:#00d4ff;" x="82.850909" xlink:href="#m75b769bd35" y="261.083722"/>
     <use style="fill:#00d4ff;stroke:#00d4ff;" x="86.458182" xlink:href="#m75b769bd35" y="250.914074"/>
     <use style="fill:#00d4ff;stroke:#00d4ff;" x="90.065455" xlink:href="#m75b769bd35" y="248.777121"/>
     <use style="fill:#00d4ff;stroke:#00d4ff;" x="93.672727" xlink:href="#m75b769bd35" y="244.839397"/>
     <use style="fill:#00d4ff;stroke:#00d4ff;" x="97.28" xlink:href="#m75b769bd35" y="234.833208"/>
     <use style="fill:#00d4ff;stroke:#00d4ff;" x="100.887273" xlink:href="#m75b769bd35" y="233.373629"/>
     <use style="fill:#00d4ff;stroke:#00d4ff;" x="104.494545" xlink:href="#m75b769bd35" y="245.666608"/>
     <use style="fill:#00d4ff;stroke:#00d4ff;" x="108.101818" xlink:href="#m75b769bd35" y="227.716972"/>
     <use style="fill:#00d4ff;stroke:#00d4ff;" x="111.709091" xlink:href="#m75b769bd35" y="224.664977"/>
     <use style="fill:#00d4ff;stroke:#00d4ff;" x="115.316364" xlink:href="#m75b769bd35" y="215.561952"/>
     <use style="fill:#00d4ff;stroke:#00d4ff;" x="118.923636" xlink:href="#m75b769bd35" y="206.882068"/>
     <use style="fill:#00d4ff;stroke:#00d4ff;" x="122.530909" xlink:href="#m75b769bd35" y="209.637331"/>
     <use style="fill:#00d4ff;stroke:#00d4ff;" x="126.138182" xlink:href="#m75b769bd35" y="209.647247"/>
     <use style="fill:#00d4ff;stroke:#00d4ff;" x="129.745455" xlink:href="#m75b769bd35" y="210.024074"/>
     <use style="fill:#00d4ff;stroke:#00d4ff;" x="133.352727" xlink:href="#m75b769bd35" y="221.637609"/>
     <use style="fill:#00d4ff;stroke:#00d4ff;" x="136.96" xlink:href="#m75b769bd35" y="210.461272"/>
     <use style="fill:#00d4ff;stroke:#00d4ff;" x="140.567273" xlink:href="#m75b769bd35" y="194.349132"/>
     <use style="fill:#00d4ff;stroke:#00d4ff;" x="144.174545" xlink:href="#m75b769bd35" y="185.248396"/>
     <use style="fill:#00d4ff;stroke:#00d4ff;" x="147.781818" xlink:href="#m75b769bd35" y="198.830411"/>
     <use style="fill:#00d4ff;stroke:#00d4ff;" x="151.389091" xlink:href="#m75b769bd35" y="200.649926"/>
     <use style="fill:#00d4ff;stroke:#00d4ff;" x="154.996364" xlink:href="#m75b769bd35" y="198.510032"/>
     <use style="fill:#00d4ff;stroke:#00d4ff;" x="158.603636" xlink:href="#m75b769bd35" y="188.554733"/>
     <use style="fill:#00d4ff;stroke:#00d4ff;" x="162.210909" xlink:href="#m75b769bd35" y="189.515871"/>
     <use style="fill:#00d4ff;stroke:#00d4ff;" x="165.818182" xlink:href="#m75b769bd35" y="171.159004"/>
     <use style="fill:#00d4ff;stroke:#00d4ff;" x="169.425455" xlink:href="#m75b769bd35" y="192.864707"/>
     <use style="fill:#00d4ff;stroke:#00d4ff;" x="173.032727" xlink:href="#m75b769bd35" y="186.386069"/>
     <use style="fill:#00d4ff;stroke:#00d4ff;" x="176.64" xlink:href="#m75b769bd35" y="180.416006"/>
     <use style="fill:#00d4ff;stroke:#00d4ff;" x="180.247273" xlink:href="#m75b769bd35" y="171.334123"/>
     <use style="fill:#00d4ff;stroke:#00d4ff;" x="183.854545" xlink:href="#m75b769bd35" y="155.083587"/>
     <use style="fill:#00d4ff;stroke:#00d4ff;" x="187.461818" xlink:href="#m75b769bd35" y="178.018392"/>
     <use style="fill:#00d4ff;stroke:#00d4ff;" x="191.069091" xlink:href="#m75b769bd35" y="181.54518"/>
     <use style="fill:#00d4ff;stroke:#00d4ff;" x="194.676364" xlink:href="#m75b769bd35" y="170.639313"/>
     <use style="fill:#00d4ff;stroke:#00d4ff;" x="198.283636" xlink:href="#m75b769bd35" y="159.308671"/>
     <use style="fill:#00d4ff;stroke:#00d4ff;" x="201.890909" xlink:href="#m75b769bd35" y="172.376663"/>
     <use style="fill:#00d4ff;stroke:#00d4ff;" x="205.498182" xlink:href="#m75b769bd35" y="160.752449"/>
     <use style="fill:#00d4ff;stroke:#00d4ff;" x="209.105455" xlink:href="#m75b769bd35" y="159.92404"/>
     <use style="fill:#00d4ff;stroke:#00d4ff;" x="212.712727" xlink:href="#m75b769bd35" y="162.385185"/>
     <use style="fill:#00d4ff;stroke:#00d4ff;" x="216.32" xlink:href="#m75b769bd35" y="142.095908"/>
     <use style="fill:#00d4ff;stroke:#00d4ff;" x="219.927273" xlink:href="#m75b769bd35" y="153.808498"/>
     <use style="fill:#00d4ff;stroke:#00d4ff;" x="223.534545" xlink:href="#m75b769bd35" y="148.787042"/>
     <use style="fill:#00d4ff;stroke:#00d4ff;" x="227.141818" xlink:href="#m75b769bd35" y="141.443925"/>
     <use style="fill:#00d4ff;stroke:#00d4ff;" x="230.749091" xlink:href="#m75b769bd35" y="161.093206"/>
     <use style="fill:#00d4ff;stroke:#00d4ff;" x="234.356364" xlink:href="#m75b769bd35" y="146.104682"/>
     <use style="fill:#00d4ff;stroke:#00d4ff;" x="237.963636" xlink:href="#m75b769bd35" y="154.009662"/>
     <use style="fill:#00d4ff;stroke:#00d4ff;" x="241.570909" xlink:href="#m75b769bd35" y="142.547272"/>
     <use style="fill:#00d4ff;stroke:#00d4ff;" x="245.178182" xlink:href="#m75b769bd35" y="135.769504"/>
     <use style="fill:#00d4ff;stroke:#00d4ff;" x="248.785455" xlink:href="#m75b769bd35" y="142.869831"/>
     <use style="fill:#00d4ff;stroke:#00d4ff;" x="252.392727" xlink:href="#m75b769bd35" y="136.892794"/>
     <use style="fill:#00d4ff;stroke:#00d4ff;" x="256" xlink:href="#m75b769bd35" y="133.088997"/>
     <use style="fill:#00d4ff;stroke:#00d4ff;" x="259.607273" xlink:href="#m75b769bd35" y="145.03686"/>
     <use style="fill:#00d4ff;stroke:#00d4ff;" x="263.214545" xlink:href="#m75b769bd35" y="108.495956"/>
     <use style="fill:#00d4ff;stroke:#00d4ff;" x="266.821818" xlink:href="#m75b769bd35" y="125.315983"/>
     <use style="fill:#00d4ff;stroke:#00d4ff;" x="270.429091" xlink:href="#m75b769bd35" y="135.610078"/>
     <use style="fill:#00d4ff;stroke:#00d4ff;" x="274.036364" xlink:href="#m75b769bd35" y="128.06122"/>
     <use style="fill:#00d4ff;stroke:#00d4ff;" x="277.643636" xlink:href="#m75b769bd35" y="136.069179"/>
     <use style="fill:#00d4ff;stroke:#00d4ff;" x="281.250909" xlink:href="#m75b769bd35" y="109.288841"/>
     <use style="fill:#00d4ff;stroke:#00d4ff;" x="284.858182" xlink:href="#m75b769bd35" y="114.844699"/>
     <use style="fill:#00d4ff;stroke:#00d4ff;" x="288.465455" xlink:href="#m75b769bd35" y="117.826624"/>
     <use style="fill:#00d4ff;stroke:#00d4ff;" x="292.072727" xlink:href="#m75b769bd35" y="115.367658"/>
     <use style="fill:#00d4ff;stroke:#00d4ff;" x="295.68" xlink:href="#m75b769bd35" y="110.333888"/>
     <use style="fill:#00d4ff;stroke:#00d4ff;" x="299.287273" xlink:href="#m75b769bd35" y="111.577374"/>
     <use style="fill:#00d4ff;stroke:#00d4ff;" x="302.894545" xlink:href="#m75b769bd35" y="125.546351"/>
     <use style="fill:#00d4ff;stroke:#00d4ff;" x="306.501818" xlink:href="#m75b769bd35" y="118.056338"/>
     <use style="fill:#00d4ff;stroke:#00d4ff;" x="310.109091" xlink:href="#m75b769bd35" y="124.705736"/>
     <use style="fill:#00d4ff;stroke:#00d4ff;" x="313.716364" xlink:href="#m75b769bd35" y="94.741764"/>
     <use style="fill:#00d4ff;stroke:#00d4ff;" x="317.323636" xlink:href="#m75b769bd35" y="110.087174"/>
     <use style="fill:#00d4ff;stroke:#00d4ff;" x="320.930909" xlink:href="#m75b769bd35" y="124.836612"/>
     <use style="fill:#00d4ff;stroke:#00d4ff;" x="324.538182" xlink:href="#m75b769bd35" y="113.713018"/>
     <use style="fill:#00d4ff;stroke:#00d4ff;" x="328.145455" xlink:href="#m75b769bd35" y="99.689773"/>
     <use style="fill:#00d4ff;stroke:#00d4ff;" x="331.752727" xlink:href="#m75b769bd35" y="105.342725"/>
     <use style="fill:#00d4ff;stroke:#00d4ff;" x="335.36" xlink:href="#m75b769bd35" y="98.233899"/>
     <use style="fill:#00d4ff;stroke:#00d4ff;" x="338.967273" xlink:href="#m75b769bd35" y="103.801962"/>
     <use style="fill:#00d4ff;stroke:#00d4ff;" x="342.574545" xlink:href="#m75b769bd35" y="96.40098"/>
     <use style="fill:#00d4ff;stroke:#00d4ff;" x="346.181818" xlink:href="#m75b769bd35" y="83.789366"/>
     <use style="fill:#00d4ff;stroke:#00d4ff;" x="349.789091" xlink:href="#m75b769bd35" y="98.569644"/>
     <use style="fill:#00d4ff;stroke:#00d4ff;" x="353.396364" xlink:href="#m75b769bd35" y="87.614085"/>
     <use style="fill:#00d4ff;stroke:#00d4ff;" x="357.003636" xlink:href="#m75b769bd35" y="78.892356"/>
     <use style="fill:#00d4ff;stroke:#00d4ff;" x="360.610909" xlink:href="#m75b769bd35" y="83.53328"/>
     <use style="fill:#00d4ff;stroke:#00d4ff;" x="364.218182" xlink:href="#m75b769bd35" y="71.367908"/>
     <use style="fill:#00d4ff;stroke:#00d4ff;" x="367.825455" xlink:href="#m75b769bd35" y="80.511579"/>
     <use style="fill:#00d4ff;stroke:#00d4ff;" x="371.432727" xlink:href="#m75b769bd35" y="79.295445"/>
     <use style="fill:#00d4ff;stroke:#00d4ff;" x="375.04" xlink:href="#m75b769bd35" y="89.195713"/>
     <use style="fill:#00d4ff;stroke:#00d4ff;" x="378.647273" xlink:href="#m75b769bd35" y="80.671442"/>
     <use style="fill:#00d4ff;stroke:#00d4ff;" x="382.254545" xlink:href="#m75b769bd35" y="83.456563"/>
     <use style="fill:#00d4ff;stroke:#00d4ff;" x="385.861818" xlink:href="#m75b769bd35" y="77.933506"/>
     <use style="fill:#00d4ff;stroke:#00d4ff;" x="389.469091" xlink:href="#m75b769bd35" y="58.313647"/>
     <use style="fill:#00d4ff;stroke:#00d4ff;" x="393.076364" xlink:href="#m75b769bd35" y="75.689434"/>
     <use style="fill:#00d4ff;stroke:#00d4ff;" x="396.683636" xlink:href="#m75b769bd35" y="75.83622"/>
     <use style="fill:#00d4ff;stroke:#00d4ff;" x="400.290909" xlink:href="#m75b769bd35" y="82.502726"/>
     <use style="fill:#00d4ff;stroke:#00d4ff;" x="403.898182" xlink:href="#m75b769bd35" y="56.47942"/>
     <use style="fill:#00d4ff;stroke:#00d4ff;" x="407.505455" xlink:href="#m75b769bd35" y="53.568"/>
     <use style="fill:#00d4ff;stroke:#00d4ff;" x="411.112727" xlink:href="#m75b769bd35" y="69.298083"/>
     <use style="fill:#00d4ff;stroke:#00d4ff;" x="414.72" xlink:href="#m75b769bd35" y="73.928982"/>
    </g>
   </g>
   <g id="line2d_23">
    <path clip-path="url(#p615e68bbda)" d="M 57.6 294.767582 
L 61.207273 289.78917 
L 64.814545 286.103281 
L 68.421818 277.718931 
L 72.029091 274.141688 
L 75.636364 259.249931 
L 79.243636 253.856987 
L 82.850909 262.059789 
L 86.458182 255.561536 
L 90.065455 242.875166 
L 93.672727 238.874892 
L 97.28 244.574594 
L 100.887273 236.155481 
L 104.494545 218.916128 
L 108.101818 212.07799 
L 111.709091 210.776094 
L 115.316364 204.486524 
L 118.923636 208.235181 
L 122.530909 188.476163 
L 126.138182 208.410517 
L 129.745455 184.587586 
L 133.352727 181.440022 
L 136.96 177.349409 
L 140.567273 163.196813 
L 144.174545 167.690298 
L 147.781818 173.664065 
L 151.389091 151.069909 
L 154.996364 155.635206 
L 158.603636 150.678806 
L 162.210909 147.526556 
L 165.818182 137.82658 
L 169.425455 143.580659 
L 173.032727 144.350005 
L 176.64 145.890987 
L 180.247273 127.864633 
L 183.854545 127.419589 
L 187.461818 119.238364 
L 191.069091 128.961334 
L 194.676364 134.026052 
L 198.283636 104.216712 
L 201.890909 128.725299 
L 205.498182 132.074353 
L 209.105455 129.834095 
L 212.712727 139.144821 
L 216.32 157.056971 
L 219.927273 156.996818 
L 223.534545 160.496909 
L 227.141818 174.103443 
L 230.749091 166.575399 
L 234.356364 171.984471 
L 237.963636 154.643555 
L 241.570909 157.925156 
L 245.178182 154.132256 
L 248.785455 157.90772 
L 252.392727 166.504785 
L 256 155.362556 
L 259.607273 152.667665 
L 263.214545 165.049129 
L 266.821818 168.087285 
L 270.429091 161.50643 
L 274.036364 156.599722 
L 277.643636 150.482219 
L 281.250909 160.087281 
L 284.858182 150.581058 
L 288.465455 172.946481 
L 292.072727 162.06655 
L 295.68 156.459692 
L 299.287273 162.799499 
L 302.894545 171.014942 
L 306.501818 169.331969 
L 310.109091 165.516512 
L 313.716364 163.802047 
L 317.323636 157.720723 
L 320.930909 166.167951 
L 324.538182 159.737261 
L 328.145455 155.731647 
L 331.752727 151.731263 
L 335.36 171.914946 
L 338.967273 175.733237 
L 342.574545 161.464585 
L 346.181818 153.127965 
L 349.789091 159.035477 
L 353.396364 158.332931 
L 357.003636 150.791919 
L 360.610909 143.517455 
L 364.218182 143.972633 
L 367.825455 159.982449 
L 371.432727 150.355048 
L 375.04 145.233446 
L 378.647273 158.026391 
L 382.254545 145.588261 
L 385.861818 138.103152 
L 389.469091 139.539847 
L 393.076364 136.418 
L 396.683636 147.884422 
L 400.290909 131.671482 
L 403.898182 147.557722 
L 407.505455 149.424423 
L 411.112727 135.374152 
L 414.72 132.426335 
" style="fill:none;stroke:#ffe600;stroke-linecap:square;"/>
    <defs>
     <path d="M 0 1.5 
C 0.397805 1.5 0.77937 1.341951 1.06066 1.06066 
C 1.341951 0.77937 1.5 0.397805 1.5 0 
C 1.5 -0.397805 1.341951 -0.77937 1.06066 -1.06066 
C 0.77937 -1.341951 0.397805 -1.5 0 -1.5 
C -0.397805 -1.5 -0.77937 -1.341951 -1.06066 -1.06066 
C -1.341951 -0.77937 -1.5 -0.397805 -1.5 0 
C -1.5 0.397805 -1.341951 0.77937 -1.06066 1.06066 
C -0.77937 1.341951 -0.397805 1.5 0 1.5 
z
" id="mf48ae3e2a0" style="stroke:#ffe600;"/>
    </defs>
    <g clip-path="url(#p615e68bbda)">
     <use style="fill:#ffe600;stroke:#ffe600;" x="57.6" xlink:href="#mf48ae3e2a0" y="294.767582"/>
     <use style="fill:#ffe600;stroke:#ffe600;" x="61.207273" xlink:href="#mf48ae3e2a0" y="289.78917"/>
     <use style="fill:#ffe600;stroke:#ffe600;" x="64.814545" xlink:href="#mf48ae3e2a0" y="286.103281"/>
     <use style="fill:#ffe600;stroke:#ffe600;" x="68.421818" xlink:href="#mf48ae3e2a0" y="277.718931"/>
     <use style="fill:#ffe600;stroke:#ffe600;" x="72.029091" xlink:href="#mf48ae3e2a0" y="274.141688"/>
     <use style="fill:#ffe600;stroke:#ffe600;" x="75.636364" xlink:href="#mf48ae3e2a0" y="259.249931"/>
     <use style="fill:#ffe600;stroke:#ffe600;" x="79.243636" xlink:href="#mf48ae3e2a0" y="253.856987"/>
     <use style="fill:#ffe600;stroke:#ffe600;" x="82.850909" xlink:href="#mf48ae3e2a0" y="262.059789"/>
     <use style="fill:#ffe600;stroke:#ffe600;" x="86.458182" xlink:href="#mf48ae3e2a0" y="255.561536"/>
     <use style="fill:#ffe600;stroke:#ffe600;" x="90.065455" xlink:href="#mf48ae3e2a0" y="242.875166"/>
     <use style="fill:#ffe600;stroke:#ffe600;" x="93.672727" xlink:href="#mf48ae3e2a0" y="238.874892"/>
     <use style="fill:#ffe600;stroke:#ffe600;" x="97.28" xlink:href="#mf48ae3e2a0" y="244.574594"/>
     <use style="fill:#ffe600;stroke:#ffe600;" x="100.887273" xlink:href="#mf48ae3e2a0" y="236.155481"/>
     <use style="fill:#ffe600;stroke:#ffe600;" x="104.494545" xlink:href="#mf48ae3e2a0" y="218.916128"/>
     <use style="fill:#ffe600;stroke:#ffe600;" x="108.101818" xlink:href="#mf48ae3e2a0" y="212.07799"/>
     <use style="fill:#ffe600;stroke:#ffe600;" x="111.709091" xlink:href="#mf48ae3e2a0" y="210.776094"/>
     <use style="fill:#ffe600;stroke:#ffe600;" x="115.316364" xlink:href="#mf48ae3e2a0" y="204.486524"/>
     <use style="fill:#ffe600;stroke:#ffe600;" x="118.923636" xlink:href="#mf48ae3e2a0" y="208.235181"/>
     <use style="fill:#ffe600;stroke:#ffe600;" x="122.530909" xlink:href="#mf48ae3e2a0" y="188.476163"/>
     <use style="fill:#ffe600;stroke:#ffe600;" x="126.138182" xlink:href="#mf48ae3e2a0" y="208.410517"/>
     <use style="fill:#ffe600;stroke:#ffe600;" x="129.745455" xlink:href="#mf48ae3e2a0" y="184.587586"/>
     <use style="fill:#ffe600;stroke:#ffe600;" x="133.352727" xlink:href="#mf48ae3e2a0" y="181.440022"/>
     <use style="fill:#ffe600;stroke:#ffe600;" x="136.96" xlink:href="#mf48ae3e2a0" y="177.349409"/>
     <use style="fill:#ffe600;stroke:#ffe600;" x="140.567273" xlink:href="#mf48ae3e2a0" y="163.196813"/>
     <use style="fill:#ffe600;stroke:#ffe600;" x="144.174545" xlink:href="#mf48ae3e2a0" y="167.690298"/>
     <use style="fill:#ffe600;stroke:#ffe600;" x="147.781818" xlink:href="#mf48ae3e2a0" y="173.664065"/>
     <use style="fill:#ffe600;stroke:#ffe600;" x="151.389091" xlink:href="#mf48ae3e2a0" y="151.069909"/>
     <use style="fill:#ffe600;stroke:#ffe600;" x="154.996364" xlink:href="#mf48ae3e2a0" y="155.635206"/>
     <use style="fill:#ffe600;stroke:#ffe600;" x="158.603636" xlink:href="#mf48ae3e2a0" y="150.678806"/>
     <use style="fill:#ffe600;stroke:#ffe600;" x="162.210909" xlink:href="#mf48ae3e2a0" y="147.526556"/>
     <use style="fill:#ffe600;stroke:#ffe600;" x="165.818182" xlink:href="#mf48ae3e2a0" y="137.82658"/>
     <use style="fill:#ffe600;stroke:#ffe600;" x="169.425455" xlink:href="#mf48ae3e2a0" y="143.580659"/>
     <use style="fill:#ffe600;stroke:#ffe600;" x="173.032727" xlink:href="#mf48ae3e2a0" y="144.350005"/>
     <use style="fill:#ffe600;stroke:#ffe600;" x="176.64" xlink:href="#mf48ae3e2a0" y="145.890987"/>
     <use style="fill:#ffe600;stroke:#ffe600;" x="180.247273" xlink:href="#mf48ae3e2a0" y="127.864633"/>
     <use style="fill:#ffe600;stroke:#ffe600;" x="183.854545" xlink:href="#mf48ae3e2a0" y="127.419589"/>
     <use style="fill:#ffe600;stroke:#ffe600;" x="187.461818" xlink:href="#mf48ae3e2a0" y="119.238364"/>
     <use style="fill:#ffe600;stroke:#ffe600;" x="191.069091" xlink:href="#mf48ae3e2a0" y="128.961334"/>
     <use style="fill:#ffe600;stroke:#ffe600;" x="194.676364" xlink:href="#mf48ae3e2a0" y="134.026052"/>
     <use style="fill:#ffe600;stroke:#ffe600;" x="198.283636" xlink:href="#mf48ae3e2a0" y="104.216712"/>
     <use style="fill:#ffe600;stroke:#ffe600;" x="201.890909" xlink:href="#mf48ae3e2a0" y="128.725299"/>
     <use style="fill:#ffe600;stroke:#ffe600;" x="205.498182" xlink:href="#mf48ae3e2a0" y="132.074353"/>
     <use style="fill:#ffe600;stroke:#ffe600;" x="209.105455" xlink:href="#mf48ae3e2a0" y="129.834095"/>
     <use style="fill:#ffe600;stroke:#ffe600;" x="212.712727" xlink:href="#mf48ae3e2a0" y="139.144821"/>
     <use style="fill:#ffe600;stroke:#ffe600;" x="216.32" xlink:href="#mf48ae3e2a0" y="157.056971"/>
     <use style="fill:#ffe600;stroke:#ffe600;" x="219.927273" xlink:href="#mf48ae3e2a0" y="156.996818"/>
     <use style="fill:#ffe600;stroke:#ffe600;" x="223.534545" xlink:href="#mf48ae3e2a0" y="160.496909"/>
     <use style="fill:#ffe600;stroke:#ffe600;" x="227.141818" xlink:href="#mf48ae3e2a0" y="174.103443"/>
     <use style="fill:#ffe600;stroke:#ffe600;" x="230.749091" xlink:href="#mf48ae3e2a0" y="166.575399"/>
     <use style="fill:#ffe600;stroke:#ffe600;" x="234.356364" xlink:href="#mf48ae3e2a0" y="171.984471"/>
     <use style="fill:#ffe600;stroke:#ffe600;" x="237.963636" xlink:href="#mf48ae3e2a0" y="154.643555"/>
     <use style="fill:#ffe600;stroke:#ffe600;" x="241.570909" xlink:href="#mf48ae3e2a0" y="157.925156"/>
     <use style="fill:#ffe600;stroke:#ffe600;" x="245.178182" xlink:href="#mf48ae3e2a0" y="154.132256"/>
     <use style="fill:#ffe600;stroke:#ffe600;" x="248.785455" xlink:href="#mf48ae3e2a0" y="157.90772"/>
     <use style="fill:#ffe600;stroke:#ffe600;" x="252.392727" xlink:href="#mf48ae3e2a0" y="166.504785"/>
     <use style="fill:#ffe600;stroke:#ffe600;" x="256" xlink:href="#mf48ae3e2a0" y="155.362556"/>
     <use style="fill:#ffe600;stroke:#ffe600;" x="259.607273" xlink:href="#mf48ae3e2a0" y="152.667665"/>
     <use style="fill:#ffe600;stroke:#ffe600;" x="263.214545" xlink:href="#mf48ae3e2a0" y="165.049129"/>
     <use style="fill:#ffe600;stroke:#ffe600;" x="266.821818" xlink:href="#mf48ae3e2a0" y="168.087285"/>
     <use style="fill:#ffe600;stroke:#ffe600;" x="270.429091" xlink:href="#mf48ae3e2a0" y="161.50643"/>
     <use style="fill:#ffe600;stroke:#ffe600;" x="274.036364" xlink:href="#mf48ae3e2a0" y="156.599722"/>
     <use style="fill:#ffe600;stroke:#ffe600;" x="277.643636" xlink:href="#mf48ae3e2a0" y="150.482219"/>
     <use style="fill:#ffe600;stroke:#ffe600;" x="281.250909" xlink:href="#mf48ae3e2a0" y="160.087281"/>
     <use style="fill:#ffe600;stroke:#ffe600;" x="284.858182" xlink:href="#mf48ae3e2a0" y="150.581058"/>
     <use style="fill:#ffe600;stroke:#ffe600;" x="288.465455" xlink:href="#mf48ae3e2a0" y="172.946481"/>
     <use style="fill:#ffe600;stroke:#ffe600;" x="292.072727" xlink:href="#mf48ae3e2a0" y="162.06655"/>
     <use style="fill:#ffe600;stroke:#ffe600;" x="295.68" xlink:href="#mf48ae3e2a0" y="156.459692"/>
     <use style="fill:#ffe600;stroke:#ffe600;" x="299.287273" xlink:href="#mf48ae3e2a0" y="162.799499"/>
     <use style="fill:#ffe600;stroke:#ffe600;" x="302.894545" xlink:href="#mf48ae3e2a0" y="171.014942"/>
     <use style="fill:#ffe600;stroke:#ffe600;" x="306.501818" xlink:href="#mf48ae3e2a0" y="169.331969"/>
     <use style="fill:#ffe600;stroke:#ffe600;" x="310.109091" xlink:href="#mf48ae3e2a0" y="165.516512"/>
     <use style="fill:#ffe600;stroke:#ffe600;" x="313.716364" xlink:href="#mf48ae3e2a0" y="163.802047"/>
     <use style="fill:#ffe600;stroke:#ffe600;" x="317.323636" xlink:href="#mf48ae3e2a0" y="157.720723"/>
     <use style="fill:#ffe600;stroke:#ffe600;" x="320.930909" xlink:href="#mf48ae3e2a0" y="166.167951"/>
     <use style="fill:#ffe600;stroke:#ffe600;" x="324.538182" xlink:href="#mf48ae3e2a0" y="159.737261"/>
     <use style="fill:#ffe600;stroke:#ffe600;" x="328.145455" xlink:href="#mf48ae3e2a0" y="155.731647"/>
     <use style="fill:#ffe600;stroke:#ffe600;" x="331.752727" xlink:href="#mf48ae3e2a0" y="151.731263"/>
     <use style="fill:#ffe600;stroke:#ffe600;" x="335.36" xlink:href="#mf48ae3e2a0" y="171.914946"/>
     <use style="fill:#ffe600;stroke:#ffe600;" x="338.967273" xlink:href="#mf48ae3e2a0" y="175.733237"/>
     <use style="fill:#ffe600;stroke:#ffe600;" x="342.574545" xlink:href="#mf48ae3e2a0" y="161.464585"/>
     <use style="fill:#ffe600;stroke:#ffe600;" x="346.181818" xlink:href="#mf48ae3e2a0" y="153.127965"/>
     <use style="fill:#ffe600;stroke:#ffe600;" x="349.789091" xlink:href="#mf48ae3e2a0" y="159.035477"/>
     <use style="fill:#ffe600;stroke:#ffe600;" x="353.396364" xlink:href="#mf48ae3e2a0" y="158.332931"/>
     <use style="fill:#ffe600;stroke:#ffe600;" x="357.003636" xlink:href="#mf48ae3e2a0" y="150.791919"/>
     <use style="fill:#ffe600;stroke:#ffe600;" x="360.610909" xlink:href="#mf48ae3e2a0" y="143.517455"/>
     <use style="fill:#ffe600;stroke:#ffe600;" x="364.218182" xlink:href="#mf48ae3e2a0" y="143.972633"/>
     <use style="fill:#ffe600;stroke:#ffe600;" x="367.825455" xlink:href="#mf48ae3e2a0" y="159.982449"/>
     <use style="fill:#ffe600;stroke:#ffe600;" x="371.432727" xlink:href="#mf48ae3e2a0" y="150.355048"/>
     <use style="fill:#ffe600;stroke:#ffe600;" x="375.04" xlink:href="#mf48ae3e2a0" y="145.233446"/>
     <use style="fill:#ffe600;stroke:#ffe600;" x="378.647273" xlink:href="#mf48ae3e2a0" y="158.026391"/>
     <use style="fill:#ffe600;stroke:#ffe600;" x="382.254545" xlink:href="#mf48ae3e2a0" y="145.588261"/>
     <use style="fill:#ffe600;stroke:#ffe600;" x="385.861818" xlink:href="#mf48ae3e2a0" y="138.103152"/>
     <use style="fill:#ffe600;stroke:#ffe600;" x="389.469091" xlink:href="#mf48ae3e2a0" y="139.539847"/>
     <use style="fill:#ffe600;stroke:#ffe600;" x="393.076364" xlink:href="#mf48ae3e2a0" y="136.418"/>
     <use style="fill:#ffe600;stroke:#ffe600;" x="396.683636" xlink:href="#mf48ae3e2a0" y="147.884422"/>
     <use style="fill:#ffe600;stroke:#ffe600;" x="400.290909" xlink:href="#mf48ae3e2a0" y="131.671482"/>
     <use style="fill:#ffe600;stroke:#ffe600;" x="403.898182" xlink:href="#mf48ae3e2a0" y="147.557722"/>
     <use style="fill:#ffe600;stroke:#ffe600;" x="407.505455" xlink:href="#mf48ae3e2a0" y="149.424423"/>
     <use style="fill:#ffe600;stroke:#ffe600;" x="411.112727" xlink:href="#mf48ae3e2a0" y="135.374152"/>
     <use style="fill:#ffe600;stroke:#ffe600;" x="414.72" xlink:href="#mf48ae3e2a0" y="132.426335"/>
    </g>
   </g>
   <g id="line2d_24">
    <path clip-path="url(#p615e68bbda)" d="M 57.6 294.929516 
L 61.207273 288.193267 
L 64.814545 285.151406 
L 68.421818 276.244423 
L 72.029091 268.851614 
L 75.636364 264.37829 
L 79.243636 264.389187 
L 82.850909 256.702915 
L 86.458182 252.722365 
L 90.065455 252.021998 
L 93.672727 251.713279 
L 97.28 229.93914 
L 100.887273 227.760561 
L 104.494545 226.15376 
L 108.101818 222.253413 
L 111.709091 220.865756 
L 115.316364 213.639785 
L 118.923636 206.209271 
L 122.530909 192.458348 
L 126.138182 187.583678 
L 129.745455 173.17783 
L 133.352727 178.36536 
L 136.96 186.896497 
L 140.567273 165.09359 
L 144.174545 179.590321 
L 147.781818 152.610781 
L 151.389091 145.510781 
L 154.996364 143.747169 
L 158.603636 137.768715 
L 162.210909 136.059698 
L 165.818182 131.503882 
L 169.425455 125.97385 
L 173.032727 132.261241 
L 176.64 133.193611 
L 180.247273 137.096246 
L 183.854545 153.238136 
L 187.461818 155.944906 
L 191.069091 148.465355 
L 194.676364 146.642462 
L 198.283636 142.615816 
L 201.890909 153.521792 
L 205.498182 174.429707 
L 209.105455 157.146111 
L 212.712727 140.752167 
L 216.32 153.192367 
L 219.927273 148.094957 
L 223.534545 139.921687 
L 227.141818 159.272384 
L 230.749091 175.832075 
L 234.356364 143.541102 
L 237.963636 175.859318 
L 241.570909 166.573111 
L 245.178182 152.697523 
L 248.785455 163.45279 
L 252.392727 171.268848 
L 256 159.891457 
L 259.607273 170.962853 
L 263.214545 165.618947 
L 266.821818 168.054375 
L 270.429091 174.375002 
L 274.036364 170.601064 
L 277.643636 173.066569 
L 281.250909 165.694465 
L 284.858182 161.19782 
L 288.465455 166.327377 
L 292.072727 149.981817 
L 295.68 164.051049 
L 299.287273 156.653228 
L 302.894545 170.033317 
L 306.501818 156.895365 
L 310.109091 149.632233 
L 313.716364 169.859724 
L 317.323636 163.817521 
L 320.930909 163.404624 
L 324.538182 169.306579 
L 328.145455 186.540156 
L 331.752727 166.941547 
L 335.36 169.577594 
L 338.967273 162.006724 
L 342.574545 164.526279 
L 346.181818 168.943046 
L 349.789091 165.486545 
L 353.396364 154.337233 
L 357.003636 155.321583 
L 360.610909 159.736498 
L 364.218182 142.600342 
L 367.825455 160.770648 
L 371.432727 158.982299 
L 375.04 155.49049 
L 378.647273 166.861016 
L 382.254545 142.23463 
L 385.861818 158.435038 
L 389.469091 164.268341 
L 393.076364 144.098388 
L 396.683636 148.252967 
L 400.290909 146.142059 
L 403.898182 156.233792 
L 407.505455 158.880954 
L 411.112727 179.159335 
L 414.72 162.297898 
" style="fill:none;stroke:#800000;stroke-linecap:square;"/>
    <defs>
     <path d="M 0 1.5 
C 0.397805 1.5 0.77937 1.341951 1.06066 1.06066 
C 1.341951 0.77937 1.5 0.397805 1.5 0 
C 1.5 -0.397805 1.341951 -0.77937 1.06066 -1.06066 
C 0.77937 -1.341951 0.397805 -1.5 0 -1.5 
C -0.397805 -1.5 -0.77937 -1.341951 -1.06066 -1.06066 
C -1.341951 -0.77937 -1.5 -0.397805 -1.5 0 
C -1.5 0.397805 -1.341951 0.77937 -1.06066 1.06066 
C -0.77937 1.341951 -0.397805 1.5 0 1.5 
z
" id="mc70502da24" style="stroke:#800000;"/>
    </defs>
    <g clip-path="url(#p615e68bbda)">
     <use style="fill:#800000;stroke:#800000;" x="57.6" xlink:href="#mc70502da24" y="294.929516"/>
     <use style="fill:#800000;stroke:#800000;" x="61.207273" xlink:href="#mc70502da24" y="288.193267"/>
     <use style="fill:#800000;stroke:#800000;" x="64.814545" xlink:href="#mc70502da24" y="285.151406"/>
     <use style="fill:#800000;stroke:#800000;" x="68.421818" xlink:href="#mc70502da24" y="276.244423"/>
     <use style="fill:#800000;stroke:#800000;" x="72.029091" xlink:href="#mc70502da24" y="268.851614"/>
     <use style="fill:#800000;stroke:#800000;" x="75.636364" xlink:href="#mc70502da24" y="264.37829"/>
     <use style="fill:#800000;stroke:#800000;" x="79.243636" xlink:href="#mc70502da24" y="264.389187"/>
     <use style="fill:#800000;stroke:#800000;" x="82.850909" xlink:href="#mc70502da24" y="256.702915"/>
     <use style="fill:#800000;stroke:#800000;" x="86.458182" xlink:href="#mc70502da24" y="252.722365"/>
     <use style="fill:#800000;stroke:#800000;" x="90.065455" xlink:href="#mc70502da24" y="252.021998"/>
     <use style="fill:#800000;stroke:#800000;" x="93.672727" xlink:href="#mc70502da24" y="251.713279"/>
     <use style="fill:#800000;stroke:#800000;" x="97.28" xlink:href="#mc70502da24" y="229.93914"/>
     <use style="fill:#800000;stroke:#800000;" x="100.887273" xlink:href="#mc70502da24" y="227.760561"/>
     <use style="fill:#800000;stroke:#800000;" x="104.494545" xlink:href="#mc70502da24" y="226.15376"/>
     <use style="fill:#800000;stroke:#800000;" x="108.101818" xlink:href="#mc70502da24" y="222.253413"/>
     <use style="fill:#800000;stroke:#800000;" x="111.709091" xlink:href="#mc70502da24" y="220.865756"/>
     <use style="fill:#800000;stroke:#800000;" x="115.316364" xlink:href="#mc70502da24" y="213.639785"/>
     <use style="fill:#800000;stroke:#800000;" x="118.923636" xlink:href="#mc70502da24" y="206.209271"/>
     <use style="fill:#800000;stroke:#800000;" x="122.530909" xlink:href="#mc70502da24" y="192.458348"/>
     <use style="fill:#800000;stroke:#800000;" x="126.138182" xlink:href="#mc70502da24" y="187.583678"/>
     <use style="fill:#800000;stroke:#800000;" x="129.745455" xlink:href="#mc70502da24" y="173.17783"/>
     <use style="fill:#800000;stroke:#800000;" x="133.352727" xlink:href="#mc70502da24" y="178.36536"/>
     <use style="fill:#800000;stroke:#800000;" x="136.96" xlink:href="#mc70502da24" y="186.896497"/>
     <use style="fill:#800000;stroke:#800000;" x="140.567273" xlink:href="#mc70502da24" y="165.09359"/>
     <use style="fill:#800000;stroke:#800000;" x="144.174545" xlink:href="#mc70502da24" y="179.590321"/>
     <use style="fill:#800000;stroke:#800000;" x="147.781818" xlink:href="#mc70502da24" y="152.610781"/>
     <use style="fill:#800000;stroke:#800000;" x="151.389091" xlink:href="#mc70502da24" y="145.510781"/>
     <use style="fill:#800000;stroke:#800000;" x="154.996364" xlink:href="#mc70502da24" y="143.747169"/>
     <use style="fill:#800000;stroke:#800000;" x="158.603636" xlink:href="#mc70502da24" y="137.768715"/>
     <use style="fill:#800000;stroke:#800000;" x="162.210909" xlink:href="#mc70502da24" y="136.059698"/>
     <use style="fill:#800000;stroke:#800000;" x="165.818182" xlink:href="#mc70502da24" y="131.503882"/>
     <use style="fill:#800000;stroke:#800000;" x="169.425455" xlink:href="#mc70502da24" y="125.97385"/>
     <use style="fill:#800000;stroke:#800000;" x="173.032727" xlink:href="#mc70502da24" y="132.261241"/>
     <use style="fill:#800000;stroke:#800000;" x="176.64" xlink:href="#mc70502da24" y="133.193611"/>
     <use style="fill:#800000;stroke:#800000;" x="180.247273" xlink:href="#mc70502da24" y="137.096246"/>
     <use style="fill:#800000;stroke:#800000;" x="183.854545" xlink:href="#mc70502da24" y="153.238136"/>
     <use style="fill:#800000;stroke:#800000;" x="187.461818" xlink:href="#mc70502da24" y="155.944906"/>
     <use style="fill:#800000;stroke:#800000;" x="191.069091" xlink:href="#mc70502da24" y="148.465355"/>
     <use style="fill:#800000;stroke:#800000;" x="194.676364" xlink:href="#mc70502da24" y="146.642462"/>
     <use style="fill:#800000;stroke:#800000;" x="198.283636" xlink:href="#mc70502da24" y="142.615816"/>
     <use style="fill:#800000;stroke:#800000;" x="201.890909" xlink:href="#mc70502da24" y="153.521792"/>
     <use style="fill:#800000;stroke:#800000;" x="205.498182" xlink:href="#mc70502da24" y="174.429707"/>
     <use style="fill:#800000;stroke:#800000;" x="209.105455" xlink:href="#mc70502da24" y="157.146111"/>
     <use style="fill:#800000;stroke:#800000;" x="212.712727" xlink:href="#mc70502da24" y="140.752167"/>
     <use style="fill:#800000;stroke:#800000;" x="216.32" xlink:href="#mc70502da24" y="153.192367"/>
     <use style="fill:#800000;stroke:#800000;" x="219.927273" xlink:href="#mc70502da24" y="148.094957"/>
     <use style="fill:#800000;stroke:#800000;" x="223.534545" xlink:href="#mc70502da24" y="139.921687"/>
     <use style="fill:#800000;stroke:#800000;" x="227.141818" xlink:href="#mc70502da24" y="159.272384"/>
     <use style="fill:#800000;stroke:#800000;" x="230.749091" xlink:href="#mc70502da24" y="175.832075"/>
     <use style="fill:#800000;stroke:#800000;" x="234.356364" xlink:href="#mc70502da24" y="143.541102"/>
     <use style="fill:#800000;stroke:#800000;" x="237.963636" xlink:href="#mc70502da24" y="175.859318"/>
     <use style="fill:#800000;stroke:#800000;" x="241.570909" xlink:href="#mc70502da24" y="166.573111"/>
     <use style="fill:#800000;stroke:#800000;" x="245.178182" xlink:href="#mc70502da24" y="152.697523"/>
     <use style="fill:#800000;stroke:#800000;" x="248.785455" xlink:href="#mc70502da24" y="163.45279"/>
     <use style="fill:#800000;stroke:#800000;" x="252.392727" xlink:href="#mc70502da24" y="171.268848"/>
     <use style="fill:#800000;stroke:#800000;" x="256" xlink:href="#mc70502da24" y="159.891457"/>
     <use style="fill:#800000;stroke:#800000;" x="259.607273" xlink:href="#mc70502da24" y="170.962853"/>
     <use style="fill:#800000;stroke:#800000;" x="263.214545" xlink:href="#mc70502da24" y="165.618947"/>
     <use style="fill:#800000;stroke:#800000;" x="266.821818" xlink:href="#mc70502da24" y="168.054375"/>
     <use style="fill:#800000;stroke:#800000;" x="270.429091" xlink:href="#mc70502da24" y="174.375002"/>
     <use style="fill:#800000;stroke:#800000;" x="274.036364" xlink:href="#mc70502da24" y="170.601064"/>
     <use style="fill:#800000;stroke:#800000;" x="277.643636" xlink:href="#mc70502da24" y="173.066569"/>
     <use style="fill:#800000;stroke:#800000;" x="281.250909" xlink:href="#mc70502da24" y="165.694465"/>
     <use style="fill:#800000;stroke:#800000;" x="284.858182" xlink:href="#mc70502da24" y="161.19782"/>
     <use style="fill:#800000;stroke:#800000;" x="288.465455" xlink:href="#mc70502da24" y="166.327377"/>
     <use style="fill:#800000;stroke:#800000;" x="292.072727" xlink:href="#mc70502da24" y="149.981817"/>
     <use style="fill:#800000;stroke:#800000;" x="295.68" xlink:href="#mc70502da24" y="164.051049"/>
     <use style="fill:#800000;stroke:#800000;" x="299.287273" xlink:href="#mc70502da24" y="156.653228"/>
     <use style="fill:#800000;stroke:#800000;" x="302.894545" xlink:href="#mc70502da24" y="170.033317"/>
     <use style="fill:#800000;stroke:#800000;" x="306.501818" xlink:href="#mc70502da24" y="156.895365"/>
     <use style="fill:#800000;stroke:#800000;" x="310.109091" xlink:href="#mc70502da24" y="149.632233"/>
     <use style="fill:#800000;stroke:#800000;" x="313.716364" xlink:href="#mc70502da24" y="169.859724"/>
     <use style="fill:#800000;stroke:#800000;" x="317.323636" xlink:href="#mc70502da24" y="163.817521"/>
     <use style="fill:#800000;stroke:#800000;" x="320.930909" xlink:href="#mc70502da24" y="163.404624"/>
     <use style="fill:#800000;stroke:#800000;" x="324.538182" xlink:href="#mc70502da24" y="169.306579"/>
     <use style="fill:#800000;stroke:#800000;" x="328.145455" xlink:href="#mc70502da24" y="186.540156"/>
     <use style="fill:#800000;stroke:#800000;" x="331.752727" xlink:href="#mc70502da24" y="166.941547"/>
     <use style="fill:#800000;stroke:#800000;" x="335.36" xlink:href="#mc70502da24" y="169.577594"/>
     <use style="fill:#800000;stroke:#800000;" x="338.967273" xlink:href="#mc70502da24" y="162.006724"/>
     <use style="fill:#800000;stroke:#800000;" x="342.574545" xlink:href="#mc70502da24" y="164.526279"/>
     <use style="fill:#800000;stroke:#800000;" x="346.181818" xlink:href="#mc70502da24" y="168.943046"/>
     <use style="fill:#800000;stroke:#800000;" x="349.789091" xlink:href="#mc70502da24" y="165.486545"/>
     <use style="fill:#800000;stroke:#800000;" x="353.396364" xlink:href="#mc70502da24" y="154.337233"/>
     <use style="fill:#800000;stroke:#800000;" x="357.003636" xlink:href="#mc70502da24" y="155.321583"/>
     <use style="fill:#800000;stroke:#800000;" x="360.610909" xlink:href="#mc70502da24" y="159.736498"/>
     <use style="fill:#800000;stroke:#800000;" x="364.218182" xlink:href="#mc70502da24" y="142.600342"/>
     <use style="fill:#800000;stroke:#800000;" x="367.825455" xlink:href="#mc70502da24" y="160.770648"/>
     <use style="fill:#800000;stroke:#800000;" x="371.432727" xlink:href="#mc70502da24" y="158.982299"/>
     <use style="fill:#800000;stroke:#800000;" x="375.04" xlink:href="#mc70502da24" y="155.49049"/>
     <use style="fill:#800000;stroke:#800000;" x="378.647273" xlink:href="#mc70502da24" y="166.861016"/>
     <use style="fill:#800000;stroke:#800000;" x="382.254545" xlink:href="#mc70502da24" y="142.23463"/>
     <use style="fill:#800000;stroke:#800000;" x="385.861818" xlink:href="#mc70502da24" y="158.435038"/>
     <use style="fill:#800000;stroke:#800000;" x="389.469091" xlink:href="#mc70502da24" y="164.268341"/>
     <use style="fill:#800000;stroke:#800000;" x="393.076364" xlink:href="#mc70502da24" y="144.098388"/>
     <use style="fill:#800000;stroke:#800000;" x="396.683636" xlink:href="#mc70502da24" y="148.252967"/>
     <use style="fill:#800000;stroke:#800000;" x="400.290909" xlink:href="#mc70502da24" y="146.142059"/>
     <use style="fill:#800000;stroke:#800000;" x="403.898182" xlink:href="#mc70502da24" y="156.233792"/>
     <use style="fill:#800000;stroke:#800000;" x="407.505455" xlink:href="#mc70502da24" y="158.880954"/>
     <use style="fill:#800000;stroke:#800000;" x="411.112727" xlink:href="#mc70502da24" y="179.159335"/>
     <use style="fill:#800000;stroke:#800000;" x="414.72" xlink:href="#mc70502da24" y="162.297898"/>
    </g>
   </g>
   <g id="patch_3">
    <path d="M 57.6 307.584 
L 57.6 41.472 
" style="fill:none;stroke:#000000;stroke-linecap:square;stroke-linejoin:miter;stroke-width:0.8;"/>
   </g>
   <g id="patch_4">
    <path d="M 414.72 307.584 
L 414.72 41.472 
" style="fill:none;stroke:#000000;stroke-linecap:square;stroke-linejoin:miter;stroke-width:0.8;"/>
   </g>
   <g id="patch_5">
    <path d="M 57.6 307.584 
L 414.72 307.584 
" style="fill:none;stroke:#000000;stroke-linecap:square;stroke-linejoin:miter;stroke-width:0.8;"/>
   </g>
   <g id="patch_6">
    <path d="M 57.6 41.472 
L 414.72 41.472 
" style="fill:none;stroke:#000000;stroke-linecap:square;stroke-linejoin:miter;stroke-width:0.8;"/>
   </g>
   <g id="text_13">
    <!-- Test -->
    <defs>
     <path d="M -0.296875 72.90625 
L 61.375 72.90625 
L 61.375 64.59375 
L 35.5 64.59375 
L 35.5 0 
L 25.59375 0 
L 25.59375 64.59375 
L -0.296875 64.59375 
z
" id="DejaVuSans-54"/>
    </defs>
    <g transform="translate(223.341563 35.472)scale(0.12 -0.12)">
     <use xlink:href="#DejaVuSans-54"/>
     <use x="60.818359" xlink:href="#DejaVuSans-65"/>
     <use x="122.341797" xlink:href="#DejaVuSans-73"/>
     <use x="174.441406" xlink:href="#DejaVuSans-74"/>
    </g>
   </g>
   <g id="legend_1">
    <g id="patch_7">
     <path d="M 64.6 108.1845 
L 102.9625 108.1845 
Q 104.9625 108.1845 104.9625 106.1845 
L 104.9625 48.472 
Q 104.9625 46.472 102.9625 46.472 
L 64.6 46.472 
Q 62.6 46.472 62.6 48.472 
L 62.6 106.1845 
Q 62.6 108.1845 64.6 108.1845 
z
" style="fill:#ffffff;opacity:0.8;stroke:#cccccc;stroke-linejoin:miter;"/>
    </g>
    <g id="line2d_25">
     <path d="M 66.6 54.570438 
L 86.6 54.570438 
" style="fill:none;stroke:#000080;stroke-linecap:square;"/>
    </g>
    <g id="line2d_26">
     <g>
      <use style="fill:#000080;stroke:#000080;" x="76.6" xlink:href="#m0d07b6b0ae" y="54.570438"/>
     </g>
    </g>
    <g id="text_14">
     <!-- 1 -->
     <g transform="translate(94.6 58.070438)scale(0.1 -0.1)">
      <use xlink:href="#DejaVuSans-31"/>
     </g>
    </g>
    <g id="line2d_27">
     <path d="M 66.6 69.248563 
L 86.6 69.248563 
" style="fill:none;stroke:#00d4ff;stroke-linecap:square;"/>
    </g>
    <g id="line2d_28">
     <g>
      <use style="fill:#00d4ff;stroke:#00d4ff;" x="76.6" xlink:href="#m75b769bd35" y="69.248563"/>
     </g>
    </g>
    <g id="text_15">
     <!-- 2 -->
     <g transform="translate(94.6 72.748563)scale(0.1 -0.1)">
      <use xlink:href="#DejaVuSans-32"/>
     </g>
    </g>
    <g id="line2d_29">
     <path d="M 66.6 83.926688 
L 86.6 83.926688 
" style="fill:none;stroke:#ffe600;stroke-linecap:square;"/>
    </g>
    <g id="line2d_30">
     <g>
      <use style="fill:#ffe600;stroke:#ffe600;" x="76.6" xlink:href="#mf48ae3e2a0" y="83.926688"/>
     </g>
    </g>
    <g id="text_16">
     <!-- 4 -->
     <g transform="translate(94.6 87.426688)scale(0.1 -0.1)">
      <use xlink:href="#DejaVuSans-34"/>
     </g>
    </g>
    <g id="line2d_31">
     <path d="M 66.6 98.604813 
L 86.6 98.604813 
" style="fill:none;stroke:#800000;stroke-linecap:square;"/>
    </g>
    <g id="line2d_32">
     <g>
      <use style="fill:#800000;stroke:#800000;" x="76.6" xlink:href="#mc70502da24" y="98.604813"/>
     </g>
    </g>
    <g id="text_17">
     <!-- 8 -->
     <g transform="translate(94.6 102.104813)scale(0.1 -0.1)">
      <use xlink:href="#DejaVuSans-38"/>
     </g>
    </g>
   </g>
  </g>
 </g>
 <defs>
  <clipPath id="p615e68bbda">
   <rect height="266.112" width="357.12" x="57.6" y="41.472"/>
  </clipPath>
 </defs>
</svg>
