<?xml version="1.0" encoding="utf-8" standalone="no"?>
<!DOCTYPE svg PUBLIC "-//W3C//DTD SVG 1.1//EN"
  "http://www.w3.org/Graphics/SVG/1.1/DTD/svg11.dtd">
<!-- Created with matplotlib (http://matplotlib.org/) -->
<svg height="345pt" version="1.1" viewBox="0 0 460 345" width="460pt" xmlns="http://www.w3.org/2000/svg" xmlns:xlink="http://www.w3.org/1999/xlink">
 <defs>
  <style type="text/css">
*{stroke-linecap:butt;stroke-linejoin:round;}
  </style>
 </defs>
 <g id="figure_1">
  <g id="patch_1">
   <path d="M 0 345.6 
L 460.8 345.6 
L 460.8 0 
L 0 0 
z
" style="fill:#ffffff;"/>
  </g>
  <g id="axes_1">
   <g id="patch_2">
    <path d="M 57.6 307.584 
L 414.72 307.584 
L 414.72 41.472 
L 57.6 41.472 
z
" style="fill:#ffffff;"/>
   </g>
   <g id="matplotlib.axis_1">
    <g id="xtick_1">
     <g id="line2d_1">
      <path clip-path="url(#p23f6216137)" d="M 57.239273 307.584 
L 57.239273 41.472 
" style="fill:none;stroke:#b0b0b0;stroke-linecap:square;stroke-width:0.8;"/>
     </g>
     <g id="line2d_2">
      <defs>
       <path d="M 0 0 
L 0 3.5 
" id="m5e97a396a9" style="stroke:#000000;stroke-width:0.8;"/>
      </defs>
      <g>
       <use style="stroke:#000000;stroke-width:0.8;" x="57.239273" xlink:href="#m5e97a396a9" y="307.584"/>
      </g>
     </g>
     <g id="text_1">
      <!-- 0 -->
      <defs>
       <path d="M 31.78125 66.40625 
Q 24.171875 66.40625 20.328125 58.90625 
Q 16.5 51.421875 16.5 36.375 
Q 16.5 21.390625 20.328125 13.890625 
Q 24.171875 6.390625 31.78125 6.390625 
Q 39.453125 6.390625 43.28125 13.890625 
Q 47.125 21.390625 47.125 36.375 
Q 47.125 51.421875 43.28125 58.90625 
Q 39.453125 66.40625 31.78125 66.40625 
M 31.78125 74.21875 
Q 44.046875 74.21875 50.515625 64.515625 
Q 56.984375 54.828125 56.984375 36.375 
Q 56.984375 17.96875 50.515625 8.265625 
Q 44.046875 -1.421875 31.78125 -1.421875 
Q 19.53125 -1.421875 13.0625 8.265625 
Q 6.59375 17.96875 6.59375 36.375 
Q 6.59375 54.828125 13.0625 64.515625 
Q 19.53125 74.21875 31.78125 74.21875 
" id="DejaVuSans-30"/>
      </defs>
      <g transform="translate(54.058023 322.182437)scale(0.1 -0.1)">
       <use xlink:href="#DejaVuSans-30"/>
      </g>
     </g>
    </g>
    <g id="xtick_2">
     <g id="line2d_3">
      <path clip-path="url(#p23f6216137)" d="M 129.384727 307.584 
L 129.384727 41.472 
" style="fill:none;stroke:#b0b0b0;stroke-linecap:square;stroke-width:0.8;"/>
     </g>
     <g id="line2d_4">
      <g>
       <use style="stroke:#000000;stroke-width:0.8;" x="129.384727" xlink:href="#m5e97a396a9" y="307.584"/>
      </g>
     </g>
     <g id="text_2">
      <!-- 200 -->
      <defs>
       <path d="M 19.1875 8.296875 
L 53.609375 8.296875 
L 53.609375 0 
L 7.328125 0 
L 7.328125 8.296875 
Q 12.9375 14.109375 22.625 23.890625 
Q 32.328125 33.6875 34.8125 36.53125 
Q 39.546875 41.84375 41.421875 45.53125 
Q 43.3125 49.21875 43.3125 52.78125 
Q 43.3125 58.59375 39.234375 62.25 
Q 35.15625 65.921875 28.609375 65.921875 
Q 23.96875 65.921875 18.8125 64.3125 
Q 13.671875 62.703125 7.8125 59.421875 
L 7.8125 69.390625 
Q 13.765625 71.78125 18.9375 73 
Q 24.125 74.21875 28.421875 74.21875 
Q 39.75 74.21875 46.484375 68.546875 
Q 53.21875 62.890625 53.21875 53.421875 
Q 53.21875 48.921875 51.53125 44.890625 
Q 49.859375 40.875 45.40625 35.40625 
Q 44.1875 33.984375 37.640625 27.21875 
Q 31.109375 20.453125 19.1875 8.296875 
" id="DejaVuSans-32"/>
      </defs>
      <g transform="translate(119.840977 322.182437)scale(0.1 -0.1)">
       <use xlink:href="#DejaVuSans-32"/>
       <use x="63.623047" xlink:href="#DejaVuSans-30"/>
       <use x="127.246094" xlink:href="#DejaVuSans-30"/>
      </g>
     </g>
    </g>
    <g id="xtick_3">
     <g id="line2d_5">
      <path clip-path="url(#p23f6216137)" d="M 201.530182 307.584 
L 201.530182 41.472 
" style="fill:none;stroke:#b0b0b0;stroke-linecap:square;stroke-width:0.8;"/>
     </g>
     <g id="line2d_6">
      <g>
       <use style="stroke:#000000;stroke-width:0.8;" x="201.530182" xlink:href="#m5e97a396a9" y="307.584"/>
      </g>
     </g>
     <g id="text_3">
      <!-- 400 -->
      <defs>
       <path d="M 37.796875 64.3125 
L 12.890625 25.390625 
L 37.796875 25.390625 
z
M 35.203125 72.90625 
L 47.609375 72.90625 
L 47.609375 25.390625 
L 58.015625 25.390625 
L 58.015625 17.1875 
L 47.609375 17.1875 
L 47.609375 0 
L 37.796875 0 
L 37.796875 17.1875 
L 4.890625 17.1875 
L 4.890625 26.703125 
z
" id="DejaVuSans-34"/>
      </defs>
      <g transform="translate(191.986432 322.182437)scale(0.1 -0.1)">
       <use xlink:href="#DejaVuSans-34"/>
       <use x="63.623047" xlink:href="#DejaVuSans-30"/>
       <use x="127.246094" xlink:href="#DejaVuSans-30"/>
      </g>
     </g>
    </g>
    <g id="xtick_4">
     <g id="line2d_7">
      <path clip-path="url(#p23f6216137)" d="M 273.675636 307.584 
L 273.675636 41.472 
" style="fill:none;stroke:#b0b0b0;stroke-linecap:square;stroke-width:0.8;"/>
     </g>
     <g id="line2d_8">
      <g>
       <use style="stroke:#000000;stroke-width:0.8;" x="273.675636" xlink:href="#m5e97a396a9" y="307.584"/>
      </g>
     </g>
     <g id="text_4">
      <!-- 600 -->
      <defs>
       <path d="M 33.015625 40.375 
Q 26.375 40.375 22.484375 35.828125 
Q 18.609375 31.296875 18.609375 23.390625 
Q 18.609375 15.53125 22.484375 10.953125 
Q 26.375 6.390625 33.015625 6.390625 
Q 39.65625 6.390625 43.53125 10.953125 
Q 47.40625 15.53125 47.40625 23.390625 
Q 47.40625 31.296875 43.53125 35.828125 
Q 39.65625 40.375 33.015625 40.375 
M 52.59375 71.296875 
L 52.59375 62.3125 
Q 48.875 64.0625 45.09375 64.984375 
Q 41.3125 65.921875 37.59375 65.921875 
Q 27.828125 65.921875 22.671875 59.328125 
Q 17.53125 52.734375 16.796875 39.40625 
Q 19.671875 43.65625 24.015625 45.921875 
Q 28.375 48.1875 33.59375 48.1875 
Q 44.578125 48.1875 50.953125 41.515625 
Q 57.328125 34.859375 57.328125 23.390625 
Q 57.328125 12.15625 50.6875 5.359375 
Q 44.046875 -1.421875 33.015625 -1.421875 
Q 20.359375 -1.421875 13.671875 8.265625 
Q 6.984375 17.96875 6.984375 36.375 
Q 6.984375 53.65625 15.1875 63.9375 
Q 23.390625 74.21875 37.203125 74.21875 
Q 40.921875 74.21875 44.703125 73.484375 
Q 48.484375 72.75 52.59375 71.296875 
" id="DejaVuSans-36"/>
      </defs>
      <g transform="translate(264.131886 322.182437)scale(0.1 -0.1)">
       <use xlink:href="#DejaVuSans-36"/>
       <use x="63.623047" xlink:href="#DejaVuSans-30"/>
       <use x="127.246094" xlink:href="#DejaVuSans-30"/>
      </g>
     </g>
    </g>
    <g id="xtick_5">
     <g id="line2d_9">
      <path clip-path="url(#p23f6216137)" d="M 345.821091 307.584 
L 345.821091 41.472 
" style="fill:none;stroke:#b0b0b0;stroke-linecap:square;stroke-width:0.8;"/>
     </g>
     <g id="line2d_10">
      <g>
       <use style="stroke:#000000;stroke-width:0.8;" x="345.821091" xlink:href="#m5e97a396a9" y="307.584"/>
      </g>
     </g>
     <g id="text_5">
      <!-- 800 -->
      <defs>
       <path d="M 31.78125 34.625 
Q 24.75 34.625 20.71875 30.859375 
Q 16.703125 27.09375 16.703125 20.515625 
Q 16.703125 13.921875 20.71875 10.15625 
Q 24.75 6.390625 31.78125 6.390625 
Q 38.8125 6.390625 42.859375 10.171875 
Q 46.921875 13.96875 46.921875 20.515625 
Q 46.921875 27.09375 42.890625 30.859375 
Q 38.875 34.625 31.78125 34.625 
M 21.921875 38.8125 
Q 15.578125 40.375 12.03125 44.71875 
Q 8.5 49.078125 8.5 55.328125 
Q 8.5 64.0625 14.71875 69.140625 
Q 20.953125 74.21875 31.78125 74.21875 
Q 42.671875 74.21875 48.875 69.140625 
Q 55.078125 64.0625 55.078125 55.328125 
Q 55.078125 49.078125 51.53125 44.71875 
Q 48 40.375 41.703125 38.8125 
Q 48.828125 37.15625 52.796875 32.3125 
Q 56.78125 27.484375 56.78125 20.515625 
Q 56.78125 9.90625 50.3125 4.234375 
Q 43.84375 -1.421875 31.78125 -1.421875 
Q 19.734375 -1.421875 13.25 4.234375 
Q 6.78125 9.90625 6.78125 20.515625 
Q 6.78125 27.484375 10.78125 32.3125 
Q 14.796875 37.15625 21.921875 38.8125 
M 18.3125 54.390625 
Q 18.3125 48.734375 21.84375 45.5625 
Q 25.390625 42.390625 31.78125 42.390625 
Q 38.140625 42.390625 41.71875 45.5625 
Q 45.3125 48.734375 45.3125 54.390625 
Q 45.3125 60.0625 41.71875 63.234375 
Q 38.140625 66.40625 31.78125 66.40625 
Q 25.390625 66.40625 21.84375 63.234375 
Q 18.3125 60.0625 18.3125 54.390625 
" id="DejaVuSans-38"/>
      </defs>
      <g transform="translate(336.277341 322.182437)scale(0.1 -0.1)">
       <use xlink:href="#DejaVuSans-38"/>
       <use x="63.623047" xlink:href="#DejaVuSans-30"/>
       <use x="127.246094" xlink:href="#DejaVuSans-30"/>
      </g>
     </g>
    </g>
    <g id="text_6">
     <!-- Number of clients -->
     <defs>
      <path d="M 9.8125 72.90625 
L 23.09375 72.90625 
L 55.421875 11.921875 
L 55.421875 72.90625 
L 64.984375 72.90625 
L 64.984375 0 
L 51.703125 0 
L 19.390625 60.984375 
L 19.390625 0 
L 9.8125 0 
z
" id="DejaVuSans-4e"/>
      <path d="M 8.5 21.578125 
L 8.5 54.6875 
L 17.484375 54.6875 
L 17.484375 21.921875 
Q 17.484375 14.15625 20.5 10.265625 
Q 23.53125 6.390625 29.59375 6.390625 
Q 36.859375 6.390625 41.078125 11.03125 
Q 45.3125 15.671875 45.3125 23.6875 
L 45.3125 54.6875 
L 54.296875 54.6875 
L 54.296875 0 
L 45.3125 0 
L 45.3125 8.40625 
Q 42.046875 3.421875 37.71875 1 
Q 33.40625 -1.421875 27.6875 -1.421875 
Q 18.265625 -1.421875 13.375 4.4375 
Q 8.5 10.296875 8.5 21.578125 
M 31.109375 56 
z
" id="DejaVuSans-75"/>
      <path d="M 52 44.1875 
Q 55.375 50.25 60.0625 53.125 
Q 64.75 56 71.09375 56 
Q 79.640625 56 84.28125 50.015625 
Q 88.921875 44.046875 88.921875 33.015625 
L 88.921875 0 
L 79.890625 0 
L 79.890625 32.71875 
Q 79.890625 40.578125 77.09375 44.375 
Q 74.3125 48.1875 68.609375 48.1875 
Q 61.625 48.1875 57.5625 43.546875 
Q 53.515625 38.921875 53.515625 30.90625 
L 53.515625 0 
L 44.484375 0 
L 44.484375 32.71875 
Q 44.484375 40.625 41.703125 44.40625 
Q 38.921875 48.1875 33.109375 48.1875 
Q 26.21875 48.1875 22.15625 43.53125 
Q 18.109375 38.875 18.109375 30.90625 
L 18.109375 0 
L 9.078125 0 
L 9.078125 54.6875 
L 18.109375 54.6875 
L 18.109375 46.1875 
Q 21.1875 51.21875 25.484375 53.609375 
Q 29.78125 56 35.6875 56 
Q 41.65625 56 45.828125 52.96875 
Q 50 49.953125 52 44.1875 
" id="DejaVuSans-6d"/>
      <path d="M 48.6875 27.296875 
Q 48.6875 37.203125 44.609375 42.84375 
Q 40.53125 48.484375 33.40625 48.484375 
Q 26.265625 48.484375 22.1875 42.84375 
Q 18.109375 37.203125 18.109375 27.296875 
Q 18.109375 17.390625 22.1875 11.75 
Q 26.265625 6.109375 33.40625 6.109375 
Q 40.53125 6.109375 44.609375 11.75 
Q 48.6875 17.390625 48.6875 27.296875 
M 18.109375 46.390625 
Q 20.953125 51.265625 25.265625 53.625 
Q 29.59375 56 35.59375 56 
Q 45.5625 56 51.78125 48.09375 
Q 58.015625 40.1875 58.015625 27.296875 
Q 58.015625 14.40625 51.78125 6.484375 
Q 45.5625 -1.421875 35.59375 -1.421875 
Q 29.59375 -1.421875 25.265625 0.953125 
Q 20.953125 3.328125 18.109375 8.203125 
L 18.109375 0 
L 9.078125 0 
L 9.078125 75.984375 
L 18.109375 75.984375 
z
" id="DejaVuSans-62"/>
      <path d="M 56.203125 29.59375 
L 56.203125 25.203125 
L 14.890625 25.203125 
Q 15.484375 15.921875 20.484375 11.0625 
Q 25.484375 6.203125 34.421875 6.203125 
Q 39.59375 6.203125 44.453125 7.46875 
Q 49.3125 8.734375 54.109375 11.28125 
L 54.109375 2.78125 
Q 49.265625 0.734375 44.1875 -0.34375 
Q 39.109375 -1.421875 33.890625 -1.421875 
Q 20.796875 -1.421875 13.15625 6.1875 
Q 5.515625 13.8125 5.515625 26.8125 
Q 5.515625 40.234375 12.765625 48.109375 
Q 20.015625 56 32.328125 56 
Q 43.359375 56 49.78125 48.890625 
Q 56.203125 41.796875 56.203125 29.59375 
M 47.21875 32.234375 
Q 47.125 39.59375 43.09375 43.984375 
Q 39.0625 48.390625 32.421875 48.390625 
Q 24.90625 48.390625 20.390625 44.140625 
Q 15.875 39.890625 15.1875 32.171875 
z
" id="DejaVuSans-65"/>
      <path d="M 41.109375 46.296875 
Q 39.59375 47.171875 37.8125 47.578125 
Q 36.03125 48 33.890625 48 
Q 26.265625 48 22.1875 43.046875 
Q 18.109375 38.09375 18.109375 28.8125 
L 18.109375 0 
L 9.078125 0 
L 9.078125 54.6875 
L 18.109375 54.6875 
L 18.109375 46.1875 
Q 20.953125 51.171875 25.484375 53.578125 
Q 30.03125 56 36.53125 56 
Q 37.453125 56 38.578125 55.875 
Q 39.703125 55.765625 41.0625 55.515625 
z
" id="DejaVuSans-72"/>
      <path id="DejaVuSans-20"/>
      <path d="M 30.609375 48.390625 
Q 23.390625 48.390625 19.1875 42.75 
Q 14.984375 37.109375 14.984375 27.296875 
Q 14.984375 17.484375 19.15625 11.84375 
Q 23.34375 6.203125 30.609375 6.203125 
Q 37.796875 6.203125 41.984375 11.859375 
Q 46.1875 17.53125 46.1875 27.296875 
Q 46.1875 37.015625 41.984375 42.703125 
Q 37.796875 48.390625 30.609375 48.390625 
M 30.609375 56 
Q 42.328125 56 49.015625 48.375 
Q 55.71875 40.765625 55.71875 27.296875 
Q 55.71875 13.875 49.015625 6.21875 
Q 42.328125 -1.421875 30.609375 -1.421875 
Q 18.84375 -1.421875 12.171875 6.21875 
Q 5.515625 13.875 5.515625 27.296875 
Q 5.515625 40.765625 12.171875 48.375 
Q 18.84375 56 30.609375 56 
" id="DejaVuSans-6f"/>
      <path d="M 37.109375 75.984375 
L 37.109375 68.5 
L 28.515625 68.5 
Q 23.6875 68.5 21.796875 66.546875 
Q 19.921875 64.59375 19.921875 59.515625 
L 19.921875 54.6875 
L 34.71875 54.6875 
L 34.71875 47.703125 
L 19.921875 47.703125 
L 19.921875 0 
L 10.890625 0 
L 10.890625 47.703125 
L 2.296875 47.703125 
L 2.296875 54.6875 
L 10.890625 54.6875 
L 10.890625 58.5 
Q 10.890625 67.625 15.140625 71.796875 
Q 19.390625 75.984375 28.609375 75.984375 
z
" id="DejaVuSans-66"/>
      <path d="M 48.78125 52.59375 
L 48.78125 44.1875 
Q 44.96875 46.296875 41.140625 47.34375 
Q 37.3125 48.390625 33.40625 48.390625 
Q 24.65625 48.390625 19.8125 42.84375 
Q 14.984375 37.3125 14.984375 27.296875 
Q 14.984375 17.28125 19.8125 11.734375 
Q 24.65625 6.203125 33.40625 6.203125 
Q 37.3125 6.203125 41.140625 7.25 
Q 44.96875 8.296875 48.78125 10.40625 
L 48.78125 2.09375 
Q 45.015625 0.34375 40.984375 -0.53125 
Q 36.96875 -1.421875 32.421875 -1.421875 
Q 20.0625 -1.421875 12.78125 6.34375 
Q 5.515625 14.109375 5.515625 27.296875 
Q 5.515625 40.671875 12.859375 48.328125 
Q 20.21875 56 33.015625 56 
Q 37.15625 56 41.109375 55.140625 
Q 45.0625 54.296875 48.78125 52.59375 
" id="DejaVuSans-63"/>
      <path d="M 9.421875 75.984375 
L 18.40625 75.984375 
L 18.40625 0 
L 9.421875 0 
z
" id="DejaVuSans-6c"/>
      <path d="M 9.421875 54.6875 
L 18.40625 54.6875 
L 18.40625 0 
L 9.421875 0 
z
M 9.421875 75.984375 
L 18.40625 75.984375 
L 18.40625 64.59375 
L 9.421875 64.59375 
z
" id="DejaVuSans-69"/>
      <path d="M 54.890625 33.015625 
L 54.890625 0 
L 45.90625 0 
L 45.90625 32.71875 
Q 45.90625 40.484375 42.875 44.328125 
Q 39.84375 48.1875 33.796875 48.1875 
Q 26.515625 48.1875 22.3125 43.546875 
Q 18.109375 38.921875 18.109375 30.90625 
L 18.109375 0 
L 9.078125 0 
L 9.078125 54.6875 
L 18.109375 54.6875 
L 18.109375 46.1875 
Q 21.34375 51.125 25.703125 53.5625 
Q 30.078125 56 35.796875 56 
Q 45.21875 56 50.046875 50.171875 
Q 54.890625 44.34375 54.890625 33.015625 
" id="DejaVuSans-6e"/>
      <path d="M 18.3125 70.21875 
L 18.3125 54.6875 
L 36.8125 54.6875 
L 36.8125 47.703125 
L 18.3125 47.703125 
L 18.3125 18.015625 
Q 18.3125 11.328125 20.140625 9.421875 
Q 21.96875 7.515625 27.59375 7.515625 
L 36.8125 7.515625 
L 36.8125 0 
L 27.59375 0 
Q 17.1875 0 13.234375 3.875 
Q 9.28125 7.765625 9.28125 18.015625 
L 9.28125 47.703125 
L 2.6875 47.703125 
L 2.6875 54.6875 
L 9.28125 54.6875 
L 9.28125 70.21875 
z
" id="DejaVuSans-74"/>
      <path d="M 44.28125 53.078125 
L 44.28125 44.578125 
Q 40.484375 46.53125 36.375 47.5 
Q 32.28125 48.484375 27.875 48.484375 
Q 21.1875 48.484375 17.84375 46.4375 
Q 14.5 44.390625 14.5 40.28125 
Q 14.5 37.15625 16.890625 35.375 
Q 19.28125 33.59375 26.515625 31.984375 
L 29.59375 31.296875 
Q 39.15625 29.25 43.1875 25.515625 
Q 47.21875 21.78125 47.21875 15.09375 
Q 47.21875 7.46875 41.1875 3.015625 
Q 35.15625 -1.421875 24.609375 -1.421875 
Q 20.21875 -1.421875 15.453125 -0.5625 
Q 10.6875 0.296875 5.421875 2 
L 5.421875 11.28125 
Q 10.40625 8.6875 15.234375 7.390625 
Q 20.0625 6.109375 24.8125 6.109375 
Q 31.15625 6.109375 34.5625 8.28125 
Q 37.984375 10.453125 37.984375 14.40625 
Q 37.984375 18.0625 35.515625 20.015625 
Q 33.0625 21.96875 24.703125 23.78125 
L 21.578125 24.515625 
Q 13.234375 26.265625 9.515625 29.90625 
Q 5.8125 33.546875 5.8125 39.890625 
Q 5.8125 47.609375 11.28125 51.796875 
Q 16.75 56 26.8125 56 
Q 31.78125 56 36.171875 55.265625 
Q 40.578125 54.546875 44.28125 53.078125 
" id="DejaVuSans-73"/>
     </defs>
     <g transform="translate(191.738906 335.860562)scale(0.1 -0.1)">
      <use xlink:href="#DejaVuSans-4e"/>
      <use x="74.804688" xlink:href="#DejaVuSans-75"/>
      <use x="138.183594" xlink:href="#DejaVuSans-6d"/>
      <use x="235.595703" xlink:href="#DejaVuSans-62"/>
      <use x="299.072266" xlink:href="#DejaVuSans-65"/>
      <use x="360.595703" xlink:href="#DejaVuSans-72"/>
      <use x="401.708984" xlink:href="#DejaVuSans-20"/>
      <use x="433.496094" xlink:href="#DejaVuSans-6f"/>
      <use x="494.677734" xlink:href="#DejaVuSans-66"/>
      <use x="529.882812" xlink:href="#DejaVuSans-20"/>
      <use x="561.669922" xlink:href="#DejaVuSans-63"/>
      <use x="616.650391" xlink:href="#DejaVuSans-6c"/>
      <use x="644.433594" xlink:href="#DejaVuSans-69"/>
      <use x="672.216797" xlink:href="#DejaVuSans-65"/>
      <use x="733.740234" xlink:href="#DejaVuSans-6e"/>
      <use x="797.119141" xlink:href="#DejaVuSans-74"/>
      <use x="836.328125" xlink:href="#DejaVuSans-73"/>
     </g>
    </g>
   </g>
   <g id="matplotlib.axis_2">
    <g id="ytick_1">
     <g id="line2d_11">
      <path clip-path="url(#p23f6216137)" d="M 57.6 296.275705 
L 414.72 296.275705 
" style="fill:none;stroke:#b0b0b0;stroke-linecap:square;stroke-width:0.8;"/>
     </g>
     <g id="line2d_12">
      <defs>
       <path d="M 0 0 
L -3.5 0 
" id="maab8ada1eb" style="stroke:#000000;stroke-width:0.8;"/>
      </defs>
      <g>
       <use style="stroke:#000000;stroke-width:0.8;" x="57.6" xlink:href="#maab8ada1eb" y="296.275705"/>
      </g>
     </g>
     <g id="text_7">
      <!-- 0 -->
      <g transform="translate(44.2375 300.074924)scale(0.1 -0.1)">
       <use xlink:href="#DejaVuSans-30"/>
      </g>
     </g>
    </g>
    <g id="ytick_2">
     <g id="line2d_13">
      <path clip-path="url(#p23f6216137)" d="M 57.6 254.062145 
L 414.72 254.062145 
" style="fill:none;stroke:#b0b0b0;stroke-linecap:square;stroke-width:0.8;"/>
     </g>
     <g id="line2d_14">
      <g>
       <use style="stroke:#000000;stroke-width:0.8;" x="57.6" xlink:href="#maab8ada1eb" y="254.062145"/>
      </g>
     </g>
     <g id="text_8">
      <!-- 50 -->
      <defs>
       <path d="M 10.796875 72.90625 
L 49.515625 72.90625 
L 49.515625 64.59375 
L 19.828125 64.59375 
L 19.828125 46.734375 
Q 21.96875 47.46875 24.109375 47.828125 
Q 26.265625 48.1875 28.421875 48.1875 
Q 40.625 48.1875 47.75 41.5 
Q 54.890625 34.8125 54.890625 23.390625 
Q 54.890625 11.625 47.5625 5.09375 
Q 40.234375 -1.421875 26.90625 -1.421875 
Q 22.3125 -1.421875 17.546875 -0.640625 
Q 12.796875 0.140625 7.71875 1.703125 
L 7.71875 11.625 
Q 12.109375 9.234375 16.796875 8.0625 
Q 21.484375 6.890625 26.703125 6.890625 
Q 35.15625 6.890625 40.078125 11.328125 
Q 45.015625 15.765625 45.015625 23.390625 
Q 45.015625 31 40.078125 35.4375 
Q 35.15625 39.890625 26.703125 39.890625 
Q 22.75 39.890625 18.8125 39.015625 
Q 14.890625 38.140625 10.796875 36.28125 
z
" id="DejaVuSans-35"/>
      </defs>
      <g transform="translate(37.875 257.861364)scale(0.1 -0.1)">
       <use xlink:href="#DejaVuSans-35"/>
       <use x="63.623047" xlink:href="#DejaVuSans-30"/>
      </g>
     </g>
    </g>
    <g id="ytick_3">
     <g id="line2d_15">
      <path clip-path="url(#p23f6216137)" d="M 57.6 211.848586 
L 414.72 211.848586 
" style="fill:none;stroke:#b0b0b0;stroke-linecap:square;stroke-width:0.8;"/>
     </g>
     <g id="line2d_16">
      <g>
       <use style="stroke:#000000;stroke-width:0.8;" x="57.6" xlink:href="#maab8ada1eb" y="211.848586"/>
      </g>
     </g>
     <g id="text_9">
      <!-- 100 -->
      <defs>
       <path d="M 12.40625 8.296875 
L 28.515625 8.296875 
L 28.515625 63.921875 
L 10.984375 60.40625 
L 10.984375 69.390625 
L 28.421875 72.90625 
L 38.28125 72.90625 
L 38.28125 8.296875 
L 54.390625 8.296875 
L 54.390625 0 
L 12.40625 0 
z
" id="DejaVuSans-31"/>
      </defs>
      <g transform="translate(31.5125 215.647805)scale(0.1 -0.1)">
       <use xlink:href="#DejaVuSans-31"/>
       <use x="63.623047" xlink:href="#DejaVuSans-30"/>
       <use x="127.246094" xlink:href="#DejaVuSans-30"/>
      </g>
     </g>
    </g>
    <g id="ytick_4">
     <g id="line2d_17">
      <path clip-path="url(#p23f6216137)" d="M 57.6 169.635026 
L 414.72 169.635026 
" style="fill:none;stroke:#b0b0b0;stroke-linecap:square;stroke-width:0.8;"/>
     </g>
     <g id="line2d_18">
      <g>
       <use style="stroke:#000000;stroke-width:0.8;" x="57.6" xlink:href="#maab8ada1eb" y="169.635026"/>
      </g>
     </g>
     <g id="text_10">
      <!-- 150 -->
      <g transform="translate(31.5125 173.434245)scale(0.1 -0.1)">
       <use xlink:href="#DejaVuSans-31"/>
       <use x="63.623047" xlink:href="#DejaVuSans-35"/>
       <use x="127.246094" xlink:href="#DejaVuSans-30"/>
      </g>
     </g>
    </g>
    <g id="ytick_5">
     <g id="line2d_19">
      <path clip-path="url(#p23f6216137)" d="M 57.6 127.421467 
L 414.72 127.421467 
" style="fill:none;stroke:#b0b0b0;stroke-linecap:square;stroke-width:0.8;"/>
     </g>
     <g id="line2d_20">
      <g>
       <use style="stroke:#000000;stroke-width:0.8;" x="57.6" xlink:href="#maab8ada1eb" y="127.421467"/>
      </g>
     </g>
     <g id="text_11">
      <!-- 200 -->
      <g transform="translate(31.5125 131.220685)scale(0.1 -0.1)">
       <use xlink:href="#DejaVuSans-32"/>
       <use x="63.623047" xlink:href="#DejaVuSans-30"/>
       <use x="127.246094" xlink:href="#DejaVuSans-30"/>
      </g>
     </g>
    </g>
    <g id="ytick_6">
     <g id="line2d_21">
      <path clip-path="url(#p23f6216137)" d="M 57.6 85.207907 
L 414.72 85.207907 
" style="fill:none;stroke:#b0b0b0;stroke-linecap:square;stroke-width:0.8;"/>
     </g>
     <g id="line2d_22">
      <g>
       <use style="stroke:#000000;stroke-width:0.8;" x="57.6" xlink:href="#maab8ada1eb" y="85.207907"/>
      </g>
     </g>
     <g id="text_12">
      <!-- 250 -->
      <g transform="translate(31.5125 89.007126)scale(0.1 -0.1)">
       <use xlink:href="#DejaVuSans-32"/>
       <use x="63.623047" xlink:href="#DejaVuSans-35"/>
       <use x="127.246094" xlink:href="#DejaVuSans-30"/>
      </g>
     </g>
    </g>
    <g id="ytick_7">
     <g id="line2d_23">
      <path clip-path="url(#p23f6216137)" d="M 57.6 42.994348 
L 414.72 42.994348 
" style="fill:none;stroke:#b0b0b0;stroke-linecap:square;stroke-width:0.8;"/>
     </g>
     <g id="line2d_24">
      <g>
       <use style="stroke:#000000;stroke-width:0.8;" x="57.6" xlink:href="#maab8ada1eb" y="42.994348"/>
      </g>
     </g>
     <g id="text_13">
      <!-- 300 -->
      <defs>
       <path d="M 40.578125 39.3125 
Q 47.65625 37.796875 51.625 33 
Q 55.609375 28.21875 55.609375 21.1875 
Q 55.609375 10.40625 48.1875 4.484375 
Q 40.765625 -1.421875 27.09375 -1.421875 
Q 22.515625 -1.421875 17.65625 -0.515625 
Q 12.796875 0.390625 7.625 2.203125 
L 7.625 11.71875 
Q 11.71875 9.328125 16.59375 8.109375 
Q 21.484375 6.890625 26.8125 6.890625 
Q 36.078125 6.890625 40.9375 10.546875 
Q 45.796875 14.203125 45.796875 21.1875 
Q 45.796875 27.640625 41.28125 31.265625 
Q 36.765625 34.90625 28.71875 34.90625 
L 20.21875 34.90625 
L 20.21875 43.015625 
L 29.109375 43.015625 
Q 36.375 43.015625 40.234375 45.921875 
Q 44.09375 48.828125 44.09375 54.296875 
Q 44.09375 59.90625 40.109375 62.90625 
Q 36.140625 65.921875 28.71875 65.921875 
Q 24.65625 65.921875 20.015625 65.03125 
Q 15.375 64.15625 9.8125 62.3125 
L 9.8125 71.09375 
Q 15.4375 72.65625 20.34375 73.4375 
Q 25.25 74.21875 29.59375 74.21875 
Q 40.828125 74.21875 47.359375 69.109375 
Q 53.90625 64.015625 53.90625 55.328125 
Q 53.90625 49.265625 50.4375 45.09375 
Q 46.96875 40.921875 40.578125 39.3125 
" id="DejaVuSans-33"/>
      </defs>
      <g transform="translate(31.5125 46.793566)scale(0.1 -0.1)">
       <use xlink:href="#DejaVuSans-33"/>
       <use x="63.623047" xlink:href="#DejaVuSans-30"/>
       <use x="127.246094" xlink:href="#DejaVuSans-30"/>
      </g>
     </g>
    </g>
    <g id="text_14">
     <!-- Successful download requests per second -->
     <defs>
      <path d="M 53.515625 70.515625 
L 53.515625 60.890625 
Q 47.90625 63.578125 42.921875 64.890625 
Q 37.9375 66.21875 33.296875 66.21875 
Q 25.25 66.21875 20.875 63.09375 
Q 16.5 59.96875 16.5 54.203125 
Q 16.5 49.359375 19.40625 46.890625 
Q 22.3125 44.4375 30.421875 42.921875 
L 36.375 41.703125 
Q 47.40625 39.59375 52.65625 34.296875 
Q 57.90625 29 57.90625 20.125 
Q 57.90625 9.515625 50.796875 4.046875 
Q 43.703125 -1.421875 29.984375 -1.421875 
Q 24.8125 -1.421875 18.96875 -0.25 
Q 13.140625 0.921875 6.890625 3.21875 
L 6.890625 13.375 
Q 12.890625 10.015625 18.65625 8.296875 
Q 24.421875 6.59375 29.984375 6.59375 
Q 38.421875 6.59375 43.015625 9.90625 
Q 47.609375 13.234375 47.609375 19.390625 
Q 47.609375 24.75 44.3125 27.78125 
Q 41.015625 30.8125 33.5 32.328125 
L 27.484375 33.5 
Q 16.453125 35.6875 11.515625 40.375 
Q 6.59375 45.0625 6.59375 53.421875 
Q 6.59375 63.09375 13.40625 68.65625 
Q 20.21875 74.21875 32.171875 74.21875 
Q 37.3125 74.21875 42.625 73.28125 
Q 47.953125 72.359375 53.515625 70.515625 
" id="DejaVuSans-53"/>
      <path d="M 45.40625 46.390625 
L 45.40625 75.984375 
L 54.390625 75.984375 
L 54.390625 0 
L 45.40625 0 
L 45.40625 8.203125 
Q 42.578125 3.328125 38.25 0.953125 
Q 33.9375 -1.421875 27.875 -1.421875 
Q 17.96875 -1.421875 11.734375 6.484375 
Q 5.515625 14.40625 5.515625 27.296875 
Q 5.515625 40.1875 11.734375 48.09375 
Q 17.96875 56 27.875 56 
Q 33.9375 56 38.25 53.625 
Q 42.578125 51.265625 45.40625 46.390625 
M 14.796875 27.296875 
Q 14.796875 17.390625 18.875 11.75 
Q 22.953125 6.109375 30.078125 6.109375 
Q 37.203125 6.109375 41.296875 11.75 
Q 45.40625 17.390625 45.40625 27.296875 
Q 45.40625 37.203125 41.296875 42.84375 
Q 37.203125 48.484375 30.078125 48.484375 
Q 22.953125 48.484375 18.875 42.84375 
Q 14.796875 37.203125 14.796875 27.296875 
" id="DejaVuSans-64"/>
      <path d="M 4.203125 54.6875 
L 13.1875 54.6875 
L 24.421875 12.015625 
L 35.59375 54.6875 
L 46.1875 54.6875 
L 57.421875 12.015625 
L 68.609375 54.6875 
L 77.59375 54.6875 
L 63.28125 0 
L 52.6875 0 
L 40.921875 44.828125 
L 29.109375 0 
L 18.5 0 
z
" id="DejaVuSans-77"/>
      <path d="M 34.28125 27.484375 
Q 23.390625 27.484375 19.1875 25 
Q 14.984375 22.515625 14.984375 16.5 
Q 14.984375 11.71875 18.140625 8.90625 
Q 21.296875 6.109375 26.703125 6.109375 
Q 34.1875 6.109375 38.703125 11.40625 
Q 43.21875 16.703125 43.21875 25.484375 
L 43.21875 27.484375 
z
M 52.203125 31.203125 
L 52.203125 0 
L 43.21875 0 
L 43.21875 8.296875 
Q 40.140625 3.328125 35.546875 0.953125 
Q 30.953125 -1.421875 24.3125 -1.421875 
Q 15.921875 -1.421875 10.953125 3.296875 
Q 6 8.015625 6 15.921875 
Q 6 25.140625 12.171875 29.828125 
Q 18.359375 34.515625 30.609375 34.515625 
L 43.21875 34.515625 
L 43.21875 35.40625 
Q 43.21875 41.609375 39.140625 45 
Q 35.0625 48.390625 27.6875 48.390625 
Q 23 48.390625 18.546875 47.265625 
Q 14.109375 46.140625 10.015625 43.890625 
L 10.015625 52.203125 
Q 14.9375 54.109375 19.578125 55.046875 
Q 24.21875 56 28.609375 56 
Q 40.484375 56 46.34375 49.84375 
Q 52.203125 43.703125 52.203125 31.203125 
" id="DejaVuSans-61"/>
      <path d="M 14.796875 27.296875 
Q 14.796875 17.390625 18.875 11.75 
Q 22.953125 6.109375 30.078125 6.109375 
Q 37.203125 6.109375 41.296875 11.75 
Q 45.40625 17.390625 45.40625 27.296875 
Q 45.40625 37.203125 41.296875 42.84375 
Q 37.203125 48.484375 30.078125 48.484375 
Q 22.953125 48.484375 18.875 42.84375 
Q 14.796875 37.203125 14.796875 27.296875 
M 45.40625 8.203125 
Q 42.578125 3.328125 38.25 0.953125 
Q 33.9375 -1.421875 27.875 -1.421875 
Q 17.96875 -1.421875 11.734375 6.484375 
Q 5.515625 14.40625 5.515625 27.296875 
Q 5.515625 40.1875 11.734375 48.09375 
Q 17.96875 56 27.875 56 
Q 33.9375 56 38.25 53.625 
Q 42.578125 51.265625 45.40625 46.390625 
L 45.40625 54.6875 
L 54.390625 54.6875 
L 54.390625 -20.796875 
L 45.40625 -20.796875 
z
" id="DejaVuSans-71"/>
      <path d="M 18.109375 8.203125 
L 18.109375 -20.796875 
L 9.078125 -20.796875 
L 9.078125 54.6875 
L 18.109375 54.6875 
L 18.109375 46.390625 
Q 20.953125 51.265625 25.265625 53.625 
Q 29.59375 56 35.59375 56 
Q 45.5625 56 51.78125 48.09375 
Q 58.015625 40.1875 58.015625 27.296875 
Q 58.015625 14.40625 51.78125 6.484375 
Q 45.5625 -1.421875 35.59375 -1.421875 
Q 29.59375 -1.421875 25.265625 0.953125 
Q 20.953125 3.328125 18.109375 8.203125 
M 48.6875 27.296875 
Q 48.6875 37.203125 44.609375 42.84375 
Q 40.53125 48.484375 33.40625 48.484375 
Q 26.265625 48.484375 22.1875 42.84375 
Q 18.109375 37.203125 18.109375 27.296875 
Q 18.109375 17.390625 22.1875 11.75 
Q 26.265625 6.109375 33.40625 6.109375 
Q 40.53125 6.109375 44.609375 11.75 
Q 48.6875 17.390625 48.6875 27.296875 
" id="DejaVuSans-70"/>
     </defs>
     <g transform="translate(25.432812 279.366281)rotate(-90)scale(0.1 -0.1)">
      <use xlink:href="#DejaVuSans-53"/>
      <use x="63.476562" xlink:href="#DejaVuSans-75"/>
      <use x="126.855469" xlink:href="#DejaVuSans-63"/>
      <use x="181.835938" xlink:href="#DejaVuSans-63"/>
      <use x="236.816406" xlink:href="#DejaVuSans-65"/>
      <use x="298.339844" xlink:href="#DejaVuSans-73"/>
      <use x="350.439453" xlink:href="#DejaVuSans-73"/>
      <use x="402.539062" xlink:href="#DejaVuSans-66"/>
      <use x="437.744141" xlink:href="#DejaVuSans-75"/>
      <use x="501.123047" xlink:href="#DejaVuSans-6c"/>
      <use x="528.90625" xlink:href="#DejaVuSans-20"/>
      <use x="560.693359" xlink:href="#DejaVuSans-64"/>
      <use x="624.169922" xlink:href="#DejaVuSans-6f"/>
      <use x="685.351562" xlink:href="#DejaVuSans-77"/>
      <use x="767.138672" xlink:href="#DejaVuSans-6e"/>
      <use x="830.517578" xlink:href="#DejaVuSans-6c"/>
      <use x="858.300781" xlink:href="#DejaVuSans-6f"/>
      <use x="919.482422" xlink:href="#DejaVuSans-61"/>
      <use x="980.761719" xlink:href="#DejaVuSans-64"/>
      <use x="1044.238281" xlink:href="#DejaVuSans-20"/>
      <use x="1076.025391" xlink:href="#DejaVuSans-72"/>
      <use x="1117.107422" xlink:href="#DejaVuSans-65"/>
      <use x="1178.630859" xlink:href="#DejaVuSans-71"/>
      <use x="1242.107422" xlink:href="#DejaVuSans-75"/>
      <use x="1305.486328" xlink:href="#DejaVuSans-65"/>
      <use x="1367.009766" xlink:href="#DejaVuSans-73"/>
      <use x="1419.109375" xlink:href="#DejaVuSans-74"/>
      <use x="1458.318359" xlink:href="#DejaVuSans-73"/>
      <use x="1510.417969" xlink:href="#DejaVuSans-20"/>
      <use x="1542.205078" xlink:href="#DejaVuSans-70"/>
      <use x="1605.681641" xlink:href="#DejaVuSans-65"/>
      <use x="1667.205078" xlink:href="#DejaVuSans-72"/>
      <use x="1708.318359" xlink:href="#DejaVuSans-20"/>
      <use x="1740.105469" xlink:href="#DejaVuSans-73"/>
      <use x="1792.205078" xlink:href="#DejaVuSans-65"/>
      <use x="1853.728516" xlink:href="#DejaVuSans-63"/>
      <use x="1908.708984" xlink:href="#DejaVuSans-6f"/>
      <use x="1969.890625" xlink:href="#DejaVuSans-6e"/>
      <use x="2033.269531" xlink:href="#DejaVuSans-64"/>
     </g>
    </g>
   </g>
   <g id="line2d_25">
    <path clip-path="url(#p23f6216137)" d="M 57.6 295.480402 
L 61.207273 287.144068 
L 64.814545 279.294034 
L 68.421818 271.750471 
L 72.029091 263.187028 
L 75.636364 254.565331 
L 79.243636 248.414815 
L 82.850909 244.880696 
L 86.458182 240.987762 
L 90.065455 235.821666 
L 93.672727 233.392698 
L 97.28 232.708838 
L 100.887273 227.821353 
L 104.494545 229.709143 
L 108.101818 223.751121 
L 111.709091 225.206645 
L 115.316364 221.867552 
L 118.923636 220.312405 
L 122.530909 217.420776 
L 126.138182 218.446565 
L 129.745455 213.101484 
L 133.352727 214.186373 
L 136.96 212.721562 
L 140.567273 210.288373 
L 144.174545 210.700377 
L 147.781818 205.488691 
L 151.389091 207.509032 
L 154.996364 206.632678 
L 158.603636 204.453615 
L 162.210909 202.400347 
L 165.818182 203.122199 
L 169.425455 200.808052 
L 173.032727 201.192195 
L 176.64 197.976366 
L 180.247273 199.213223 
L 183.854545 197.404794 
L 187.461818 195.403872 
L 191.069091 195.241772 
L 194.676364 188.559365 
L 198.283636 189.5784 
L 201.890909 187.13508 
L 205.498182 188.54839 
L 209.105455 189.835059 
L 212.712727 186.320358 
L 216.32 184.287353 
L 219.927273 183.009126 
L 223.534545 180.971056 
L 227.141818 182.644401 
L 230.749091 182.932298 
L 234.356364 181.090942 
L 237.963636 182.283053 
L 241.570909 179.621066 
L 245.178182 176.093701 
L 248.785455 181.627899 
L 252.392727 181.854163 
L 256 178.761598 
L 259.607273 172.634722 
L 263.214545 172.91502 
L 266.821818 178.146968 
L 270.429091 177.690218 
L 274.036364 173.51192 
L 277.643636 170.579766 
L 281.250909 174.986017 
L 284.858182 168.602483 
L 288.465455 172.733502 
L 292.072727 170.583987 
L 295.68 169.819077 
L 299.287273 172.042043 
L 302.894545 165.899126 
L 306.501818 163.752145 
L 310.109091 168.799198 
L 313.716364 163.973344 
L 317.323636 166.204752 
L 320.930909 164.129534 
L 324.538182 161.72505 
L 328.145455 165.653443 
L 331.752727 163.862744 
L 335.36 165.32671 
L 338.967273 165.617984 
L 342.574545 159.582289 
L 346.181818 165.701567 
L 349.789091 161.838182 
L 353.396364 161.131527 
L 357.003636 162.712003 
L 360.610909 157.221707 
L 364.218182 164.29079 
L 367.825455 160.416429 
L 371.432727 154.377357 
L 375.04 153.944246 
L 378.647273 162.032364 
L 382.254545 161.610229 
L 385.861818 161.384808 
L 389.469091 152.536002 
L 393.076364 153.761884 
L 396.683636 154.349496 
L 400.290909 153.226616 
L 403.898182 159.332385 
L 407.505455 154.189085 
L 411.112727 151.649517 
L 414.72 151.560869 
" style="fill:none;stroke:#000080;stroke-linecap:square;"/>
    <defs>
     <path d="M 0 1.5 
C 0.397805 1.5 0.77937 1.341951 1.06066 1.06066 
C 1.341951 0.77937 1.5 0.397805 1.5 0 
C 1.5 -0.397805 1.341951 -0.77937 1.06066 -1.06066 
C 0.77937 -1.341951 0.397805 -1.5 0 -1.5 
C -0.397805 -1.5 -0.77937 -1.341951 -1.06066 -1.06066 
C -1.341951 -0.77937 -1.5 -0.397805 -1.5 0 
C -1.5 0.397805 -1.341951 0.77937 -1.06066 1.06066 
C -0.77937 1.341951 -0.397805 1.5 0 1.5 
z
" id="m9d489cd91f" style="stroke:#000080;"/>
    </defs>
    <g clip-path="url(#p23f6216137)">
     <use style="fill:#000080;stroke:#000080;" x="57.6" xlink:href="#m9d489cd91f" y="295.480402"/>
     <use style="fill:#000080;stroke:#000080;" x="61.207273" xlink:href="#m9d489cd91f" y="287.144068"/>
     <use style="fill:#000080;stroke:#000080;" x="64.814545" xlink:href="#m9d489cd91f" y="279.294034"/>
     <use style="fill:#000080;stroke:#000080;" x="68.421818" xlink:href="#m9d489cd91f" y="271.750471"/>
     <use style="fill:#000080;stroke:#000080;" x="72.029091" xlink:href="#m9d489cd91f" y="263.187028"/>
     <use style="fill:#000080;stroke:#000080;" x="75.636364" xlink:href="#m9d489cd91f" y="254.565331"/>
     <use style="fill:#000080;stroke:#000080;" x="79.243636" xlink:href="#m9d489cd91f" y="248.414815"/>
     <use style="fill:#000080;stroke:#000080;" x="82.850909" xlink:href="#m9d489cd91f" y="244.880696"/>
     <use style="fill:#000080;stroke:#000080;" x="86.458182" xlink:href="#m9d489cd91f" y="240.987762"/>
     <use style="fill:#000080;stroke:#000080;" x="90.065455" xlink:href="#m9d489cd91f" y="235.821666"/>
     <use style="fill:#000080;stroke:#000080;" x="93.672727" xlink:href="#m9d489cd91f" y="233.392698"/>
     <use style="fill:#000080;stroke:#000080;" x="97.28" xlink:href="#m9d489cd91f" y="232.708838"/>
     <use style="fill:#000080;stroke:#000080;" x="100.887273" xlink:href="#m9d489cd91f" y="227.821353"/>
     <use style="fill:#000080;stroke:#000080;" x="104.494545" xlink:href="#m9d489cd91f" y="229.709143"/>
     <use style="fill:#000080;stroke:#000080;" x="108.101818" xlink:href="#m9d489cd91f" y="223.751121"/>
     <use style="fill:#000080;stroke:#000080;" x="111.709091" xlink:href="#m9d489cd91f" y="225.206645"/>
     <use style="fill:#000080;stroke:#000080;" x="115.316364" xlink:href="#m9d489cd91f" y="221.867552"/>
     <use style="fill:#000080;stroke:#000080;" x="118.923636" xlink:href="#m9d489cd91f" y="220.312405"/>
     <use style="fill:#000080;stroke:#000080;" x="122.530909" xlink:href="#m9d489cd91f" y="217.420776"/>
     <use style="fill:#000080;stroke:#000080;" x="126.138182" xlink:href="#m9d489cd91f" y="218.446565"/>
     <use style="fill:#000080;stroke:#000080;" x="129.745455" xlink:href="#m9d489cd91f" y="213.101484"/>
     <use style="fill:#000080;stroke:#000080;" x="133.352727" xlink:href="#m9d489cd91f" y="214.186373"/>
     <use style="fill:#000080;stroke:#000080;" x="136.96" xlink:href="#m9d489cd91f" y="212.721562"/>
     <use style="fill:#000080;stroke:#000080;" x="140.567273" xlink:href="#m9d489cd91f" y="210.288373"/>
     <use style="fill:#000080;stroke:#000080;" x="144.174545" xlink:href="#m9d489cd91f" y="210.700377"/>
     <use style="fill:#000080;stroke:#000080;" x="147.781818" xlink:href="#m9d489cd91f" y="205.488691"/>
     <use style="fill:#000080;stroke:#000080;" x="151.389091" xlink:href="#m9d489cd91f" y="207.509032"/>
     <use style="fill:#000080;stroke:#000080;" x="154.996364" xlink:href="#m9d489cd91f" y="206.632678"/>
     <use style="fill:#000080;stroke:#000080;" x="158.603636" xlink:href="#m9d489cd91f" y="204.453615"/>
     <use style="fill:#000080;stroke:#000080;" x="162.210909" xlink:href="#m9d489cd91f" y="202.400347"/>
     <use style="fill:#000080;stroke:#000080;" x="165.818182" xlink:href="#m9d489cd91f" y="203.122199"/>
     <use style="fill:#000080;stroke:#000080;" x="169.425455" xlink:href="#m9d489cd91f" y="200.808052"/>
     <use style="fill:#000080;stroke:#000080;" x="173.032727" xlink:href="#m9d489cd91f" y="201.192195"/>
     <use style="fill:#000080;stroke:#000080;" x="176.64" xlink:href="#m9d489cd91f" y="197.976366"/>
     <use style="fill:#000080;stroke:#000080;" x="180.247273" xlink:href="#m9d489cd91f" y="199.213223"/>
     <use style="fill:#000080;stroke:#000080;" x="183.854545" xlink:href="#m9d489cd91f" y="197.404794"/>
     <use style="fill:#000080;stroke:#000080;" x="187.461818" xlink:href="#m9d489cd91f" y="195.403872"/>
     <use style="fill:#000080;stroke:#000080;" x="191.069091" xlink:href="#m9d489cd91f" y="195.241772"/>
     <use style="fill:#000080;stroke:#000080;" x="194.676364" xlink:href="#m9d489cd91f" y="188.559365"/>
     <use style="fill:#000080;stroke:#000080;" x="198.283636" xlink:href="#m9d489cd91f" y="189.5784"/>
     <use style="fill:#000080;stroke:#000080;" x="201.890909" xlink:href="#m9d489cd91f" y="187.13508"/>
     <use style="fill:#000080;stroke:#000080;" x="205.498182" xlink:href="#m9d489cd91f" y="188.54839"/>
     <use style="fill:#000080;stroke:#000080;" x="209.105455" xlink:href="#m9d489cd91f" y="189.835059"/>
     <use style="fill:#000080;stroke:#000080;" x="212.712727" xlink:href="#m9d489cd91f" y="186.320358"/>
     <use style="fill:#000080;stroke:#000080;" x="216.32" xlink:href="#m9d489cd91f" y="184.287353"/>
     <use style="fill:#000080;stroke:#000080;" x="219.927273" xlink:href="#m9d489cd91f" y="183.009126"/>
     <use style="fill:#000080;stroke:#000080;" x="223.534545" xlink:href="#m9d489cd91f" y="180.971056"/>
     <use style="fill:#000080;stroke:#000080;" x="227.141818" xlink:href="#m9d489cd91f" y="182.644401"/>
     <use style="fill:#000080;stroke:#000080;" x="230.749091" xlink:href="#m9d489cd91f" y="182.932298"/>
     <use style="fill:#000080;stroke:#000080;" x="234.356364" xlink:href="#m9d489cd91f" y="181.090942"/>
     <use style="fill:#000080;stroke:#000080;" x="237.963636" xlink:href="#m9d489cd91f" y="182.283053"/>
     <use style="fill:#000080;stroke:#000080;" x="241.570909" xlink:href="#m9d489cd91f" y="179.621066"/>
     <use style="fill:#000080;stroke:#000080;" x="245.178182" xlink:href="#m9d489cd91f" y="176.093701"/>
     <use style="fill:#000080;stroke:#000080;" x="248.785455" xlink:href="#m9d489cd91f" y="181.627899"/>
     <use style="fill:#000080;stroke:#000080;" x="252.392727" xlink:href="#m9d489cd91f" y="181.854163"/>
     <use style="fill:#000080;stroke:#000080;" x="256" xlink:href="#m9d489cd91f" y="178.761598"/>
     <use style="fill:#000080;stroke:#000080;" x="259.607273" xlink:href="#m9d489cd91f" y="172.634722"/>
     <use style="fill:#000080;stroke:#000080;" x="263.214545" xlink:href="#m9d489cd91f" y="172.91502"/>
     <use style="fill:#000080;stroke:#000080;" x="266.821818" xlink:href="#m9d489cd91f" y="178.146968"/>
     <use style="fill:#000080;stroke:#000080;" x="270.429091" xlink:href="#m9d489cd91f" y="177.690218"/>
     <use style="fill:#000080;stroke:#000080;" x="274.036364" xlink:href="#m9d489cd91f" y="173.51192"/>
     <use style="fill:#000080;stroke:#000080;" x="277.643636" xlink:href="#m9d489cd91f" y="170.579766"/>
     <use style="fill:#000080;stroke:#000080;" x="281.250909" xlink:href="#m9d489cd91f" y="174.986017"/>
     <use style="fill:#000080;stroke:#000080;" x="284.858182" xlink:href="#m9d489cd91f" y="168.602483"/>
     <use style="fill:#000080;stroke:#000080;" x="288.465455" xlink:href="#m9d489cd91f" y="172.733502"/>
     <use style="fill:#000080;stroke:#000080;" x="292.072727" xlink:href="#m9d489cd91f" y="170.583987"/>
     <use style="fill:#000080;stroke:#000080;" x="295.68" xlink:href="#m9d489cd91f" y="169.819077"/>
     <use style="fill:#000080;stroke:#000080;" x="299.287273" xlink:href="#m9d489cd91f" y="172.042043"/>
     <use style="fill:#000080;stroke:#000080;" x="302.894545" xlink:href="#m9d489cd91f" y="165.899126"/>
     <use style="fill:#000080;stroke:#000080;" x="306.501818" xlink:href="#m9d489cd91f" y="163.752145"/>
     <use style="fill:#000080;stroke:#000080;" x="310.109091" xlink:href="#m9d489cd91f" y="168.799198"/>
     <use style="fill:#000080;stroke:#000080;" x="313.716364" xlink:href="#m9d489cd91f" y="163.973344"/>
     <use style="fill:#000080;stroke:#000080;" x="317.323636" xlink:href="#m9d489cd91f" y="166.204752"/>
     <use style="fill:#000080;stroke:#000080;" x="320.930909" xlink:href="#m9d489cd91f" y="164.129534"/>
     <use style="fill:#000080;stroke:#000080;" x="324.538182" xlink:href="#m9d489cd91f" y="161.72505"/>
     <use style="fill:#000080;stroke:#000080;" x="328.145455" xlink:href="#m9d489cd91f" y="165.653443"/>
     <use style="fill:#000080;stroke:#000080;" x="331.752727" xlink:href="#m9d489cd91f" y="163.862744"/>
     <use style="fill:#000080;stroke:#000080;" x="335.36" xlink:href="#m9d489cd91f" y="165.32671"/>
     <use style="fill:#000080;stroke:#000080;" x="338.967273" xlink:href="#m9d489cd91f" y="165.617984"/>
     <use style="fill:#000080;stroke:#000080;" x="342.574545" xlink:href="#m9d489cd91f" y="159.582289"/>
     <use style="fill:#000080;stroke:#000080;" x="346.181818" xlink:href="#m9d489cd91f" y="165.701567"/>
     <use style="fill:#000080;stroke:#000080;" x="349.789091" xlink:href="#m9d489cd91f" y="161.838182"/>
     <use style="fill:#000080;stroke:#000080;" x="353.396364" xlink:href="#m9d489cd91f" y="161.131527"/>
     <use style="fill:#000080;stroke:#000080;" x="357.003636" xlink:href="#m9d489cd91f" y="162.712003"/>
     <use style="fill:#000080;stroke:#000080;" x="360.610909" xlink:href="#m9d489cd91f" y="157.221707"/>
     <use style="fill:#000080;stroke:#000080;" x="364.218182" xlink:href="#m9d489cd91f" y="164.29079"/>
     <use style="fill:#000080;stroke:#000080;" x="367.825455" xlink:href="#m9d489cd91f" y="160.416429"/>
     <use style="fill:#000080;stroke:#000080;" x="371.432727" xlink:href="#m9d489cd91f" y="154.377357"/>
     <use style="fill:#000080;stroke:#000080;" x="375.04" xlink:href="#m9d489cd91f" y="153.944246"/>
     <use style="fill:#000080;stroke:#000080;" x="378.647273" xlink:href="#m9d489cd91f" y="162.032364"/>
     <use style="fill:#000080;stroke:#000080;" x="382.254545" xlink:href="#m9d489cd91f" y="161.610229"/>
     <use style="fill:#000080;stroke:#000080;" x="385.861818" xlink:href="#m9d489cd91f" y="161.384808"/>
     <use style="fill:#000080;stroke:#000080;" x="389.469091" xlink:href="#m9d489cd91f" y="152.536002"/>
     <use style="fill:#000080;stroke:#000080;" x="393.076364" xlink:href="#m9d489cd91f" y="153.761884"/>
     <use style="fill:#000080;stroke:#000080;" x="396.683636" xlink:href="#m9d489cd91f" y="154.349496"/>
     <use style="fill:#000080;stroke:#000080;" x="400.290909" xlink:href="#m9d489cd91f" y="153.226616"/>
     <use style="fill:#000080;stroke:#000080;" x="403.898182" xlink:href="#m9d489cd91f" y="159.332385"/>
     <use style="fill:#000080;stroke:#000080;" x="407.505455" xlink:href="#m9d489cd91f" y="154.189085"/>
     <use style="fill:#000080;stroke:#000080;" x="411.112727" xlink:href="#m9d489cd91f" y="151.649517"/>
     <use style="fill:#000080;stroke:#000080;" x="414.72" xlink:href="#m9d489cd91f" y="151.560869"/>
    </g>
   </g>
   <g id="line2d_26">
    <path clip-path="url(#p23f6216137)" d="M 57.6 295.455073 
L 61.207273 287.473334 
L 64.814545 279.469643 
L 68.421818 270.557516 
L 72.029091 263.364325 
L 75.636364 254.004735 
L 79.243636 245.1897 
L 82.850909 238.048854 
L 86.458182 231.235585 
L 90.065455 224.346332 
L 93.672727 213.786188 
L 97.28 204.811586 
L 100.887273 197.186972 
L 104.494545 198.202631 
L 108.101818 189.714328 
L 111.709091 186.696903 
L 115.316364 187.337705 
L 118.923636 182.125174 
L 122.530909 177.990778 
L 126.138182 177.355042 
L 129.745455 169.852848 
L 133.352727 167.69067 
L 136.96 164.842943 
L 140.567273 170.89299 
L 144.174545 167.226321 
L 147.781818 160.214648 
L 151.389091 156.478748 
L 154.996364 161.079182 
L 158.603636 158.041494 
L 162.210909 156.186631 
L 165.818182 153.710383 
L 169.425455 153.517045 
L 173.032727 149.756661 
L 176.64 139.989288 
L 180.247273 142.312722 
L 183.854545 139.662555 
L 187.461818 142.382797 
L 191.069091 133.230897 
L 194.676364 132.586718 
L 198.283636 131.542354 
L 201.890909 133.512039 
L 205.498182 136.252543 
L 209.105455 125.123361 
L 212.712727 127.745667 
L 216.32 132.205107 
L 219.927273 122.094116 
L 223.534545 126.31125 
L 227.141818 121.242246 
L 230.749091 117.305409 
L 234.356364 115.670056 
L 237.963636 112.839215 
L 241.570909 122.295896 
L 245.178182 121.406035 
L 248.785455 115.545948 
L 252.392727 108.281839 
L 256 117.273327 
L 259.607273 110.463436 
L 263.214545 106.31131 
L 266.821818 113.050283 
L 270.429091 104.48093 
L 274.036364 98.450301 
L 277.643636 105.128486 
L 281.250909 103.141072 
L 284.858182 104.615169 
L 288.465455 101.181518 
L 292.072727 104.786556 
L 295.68 92.840119 
L 299.287273 101.34193 
L 302.894545 99.07675 
L 306.501818 93.789924 
L 310.109091 88.61623 
L 313.716364 99.062397 
L 317.323636 87.163239 
L 320.930909 93.284205 
L 324.538182 93.85831 
L 328.145455 85.323572 
L 331.752727 81.05156 
L 335.36 82.867587 
L 338.967273 90.872967 
L 342.574545 87.684155 
L 346.181818 87.690064 
L 349.789091 79.32587 
L 353.396364 85.966907 
L 357.003636 81.303997 
L 360.610909 77.150183 
L 364.218182 83.479684 
L 367.825455 83.824147 
L 371.432727 85.028077 
L 375.04 80.630269 
L 378.647273 75.028529 
L 382.254545 78.522968 
L 385.861818 68.526797 
L 389.469091 76.29578 
L 393.076364 79.229623 
L 396.683636 79.360485 
L 400.290909 67.567705 
L 403.898182 75.834808 
L 407.505455 77.082641 
L 411.112727 75.290253 
L 414.72 66.070812 
" style="fill:none;stroke:#00d4ff;stroke-linecap:square;"/>
    <defs>
     <path d="M 0 1.5 
C 0.397805 1.5 0.77937 1.341951 1.06066 1.06066 
C 1.341951 0.77937 1.5 0.397805 1.5 0 
C 1.5 -0.397805 1.341951 -0.77937 1.06066 -1.06066 
C 0.77937 -1.341951 0.397805 -1.5 0 -1.5 
C -0.397805 -1.5 -0.77937 -1.341951 -1.06066 -1.06066 
C -1.341951 -0.77937 -1.5 -0.397805 -1.5 0 
C -1.5 0.397805 -1.341951 0.77937 -1.06066 1.06066 
C -0.77937 1.341951 -0.397805 1.5 0 1.5 
z
" id="meebf6596bf" style="stroke:#00d4ff;"/>
    </defs>
    <g clip-path="url(#p23f6216137)">
     <use style="fill:#00d4ff;stroke:#00d4ff;" x="57.6" xlink:href="#meebf6596bf" y="295.455073"/>
     <use style="fill:#00d4ff;stroke:#00d4ff;" x="61.207273" xlink:href="#meebf6596bf" y="287.473334"/>
     <use style="fill:#00d4ff;stroke:#00d4ff;" x="64.814545" xlink:href="#meebf6596bf" y="279.469643"/>
     <use style="fill:#00d4ff;stroke:#00d4ff;" x="68.421818" xlink:href="#meebf6596bf" y="270.557516"/>
     <use style="fill:#00d4ff;stroke:#00d4ff;" x="72.029091" xlink:href="#meebf6596bf" y="263.364325"/>
     <use style="fill:#00d4ff;stroke:#00d4ff;" x="75.636364" xlink:href="#meebf6596bf" y="254.004735"/>
     <use style="fill:#00d4ff;stroke:#00d4ff;" x="79.243636" xlink:href="#meebf6596bf" y="245.1897"/>
     <use style="fill:#00d4ff;stroke:#00d4ff;" x="82.850909" xlink:href="#meebf6596bf" y="238.048854"/>
     <use style="fill:#00d4ff;stroke:#00d4ff;" x="86.458182" xlink:href="#meebf6596bf" y="231.235585"/>
     <use style="fill:#00d4ff;stroke:#00d4ff;" x="90.065455" xlink:href="#meebf6596bf" y="224.346332"/>
     <use style="fill:#00d4ff;stroke:#00d4ff;" x="93.672727" xlink:href="#meebf6596bf" y="213.786188"/>
     <use style="fill:#00d4ff;stroke:#00d4ff;" x="97.28" xlink:href="#meebf6596bf" y="204.811586"/>
     <use style="fill:#00d4ff;stroke:#00d4ff;" x="100.887273" xlink:href="#meebf6596bf" y="197.186972"/>
     <use style="fill:#00d4ff;stroke:#00d4ff;" x="104.494545" xlink:href="#meebf6596bf" y="198.202631"/>
     <use style="fill:#00d4ff;stroke:#00d4ff;" x="108.101818" xlink:href="#meebf6596bf" y="189.714328"/>
     <use style="fill:#00d4ff;stroke:#00d4ff;" x="111.709091" xlink:href="#meebf6596bf" y="186.696903"/>
     <use style="fill:#00d4ff;stroke:#00d4ff;" x="115.316364" xlink:href="#meebf6596bf" y="187.337705"/>
     <use style="fill:#00d4ff;stroke:#00d4ff;" x="118.923636" xlink:href="#meebf6596bf" y="182.125174"/>
     <use style="fill:#00d4ff;stroke:#00d4ff;" x="122.530909" xlink:href="#meebf6596bf" y="177.990778"/>
     <use style="fill:#00d4ff;stroke:#00d4ff;" x="126.138182" xlink:href="#meebf6596bf" y="177.355042"/>
     <use style="fill:#00d4ff;stroke:#00d4ff;" x="129.745455" xlink:href="#meebf6596bf" y="169.852848"/>
     <use style="fill:#00d4ff;stroke:#00d4ff;" x="133.352727" xlink:href="#meebf6596bf" y="167.69067"/>
     <use style="fill:#00d4ff;stroke:#00d4ff;" x="136.96" xlink:href="#meebf6596bf" y="164.842943"/>
     <use style="fill:#00d4ff;stroke:#00d4ff;" x="140.567273" xlink:href="#meebf6596bf" y="170.89299"/>
     <use style="fill:#00d4ff;stroke:#00d4ff;" x="144.174545" xlink:href="#meebf6596bf" y="167.226321"/>
     <use style="fill:#00d4ff;stroke:#00d4ff;" x="147.781818" xlink:href="#meebf6596bf" y="160.214648"/>
     <use style="fill:#00d4ff;stroke:#00d4ff;" x="151.389091" xlink:href="#meebf6596bf" y="156.478748"/>
     <use style="fill:#00d4ff;stroke:#00d4ff;" x="154.996364" xlink:href="#meebf6596bf" y="161.079182"/>
     <use style="fill:#00d4ff;stroke:#00d4ff;" x="158.603636" xlink:href="#meebf6596bf" y="158.041494"/>
     <use style="fill:#00d4ff;stroke:#00d4ff;" x="162.210909" xlink:href="#meebf6596bf" y="156.186631"/>
     <use style="fill:#00d4ff;stroke:#00d4ff;" x="165.818182" xlink:href="#meebf6596bf" y="153.710383"/>
     <use style="fill:#00d4ff;stroke:#00d4ff;" x="169.425455" xlink:href="#meebf6596bf" y="153.517045"/>
     <use style="fill:#00d4ff;stroke:#00d4ff;" x="173.032727" xlink:href="#meebf6596bf" y="149.756661"/>
     <use style="fill:#00d4ff;stroke:#00d4ff;" x="176.64" xlink:href="#meebf6596bf" y="139.989288"/>
     <use style="fill:#00d4ff;stroke:#00d4ff;" x="180.247273" xlink:href="#meebf6596bf" y="142.312722"/>
     <use style="fill:#00d4ff;stroke:#00d4ff;" x="183.854545" xlink:href="#meebf6596bf" y="139.662555"/>
     <use style="fill:#00d4ff;stroke:#00d4ff;" x="187.461818" xlink:href="#meebf6596bf" y="142.382797"/>
     <use style="fill:#00d4ff;stroke:#00d4ff;" x="191.069091" xlink:href="#meebf6596bf" y="133.230897"/>
     <use style="fill:#00d4ff;stroke:#00d4ff;" x="194.676364" xlink:href="#meebf6596bf" y="132.586718"/>
     <use style="fill:#00d4ff;stroke:#00d4ff;" x="198.283636" xlink:href="#meebf6596bf" y="131.542354"/>
     <use style="fill:#00d4ff;stroke:#00d4ff;" x="201.890909" xlink:href="#meebf6596bf" y="133.512039"/>
     <use style="fill:#00d4ff;stroke:#00d4ff;" x="205.498182" xlink:href="#meebf6596bf" y="136.252543"/>
     <use style="fill:#00d4ff;stroke:#00d4ff;" x="209.105455" xlink:href="#meebf6596bf" y="125.123361"/>
     <use style="fill:#00d4ff;stroke:#00d4ff;" x="212.712727" xlink:href="#meebf6596bf" y="127.745667"/>
     <use style="fill:#00d4ff;stroke:#00d4ff;" x="216.32" xlink:href="#meebf6596bf" y="132.205107"/>
     <use style="fill:#00d4ff;stroke:#00d4ff;" x="219.927273" xlink:href="#meebf6596bf" y="122.094116"/>
     <use style="fill:#00d4ff;stroke:#00d4ff;" x="223.534545" xlink:href="#meebf6596bf" y="126.31125"/>
     <use style="fill:#00d4ff;stroke:#00d4ff;" x="227.141818" xlink:href="#meebf6596bf" y="121.242246"/>
     <use style="fill:#00d4ff;stroke:#00d4ff;" x="230.749091" xlink:href="#meebf6596bf" y="117.305409"/>
     <use style="fill:#00d4ff;stroke:#00d4ff;" x="234.356364" xlink:href="#meebf6596bf" y="115.670056"/>
     <use style="fill:#00d4ff;stroke:#00d4ff;" x="237.963636" xlink:href="#meebf6596bf" y="112.839215"/>
     <use style="fill:#00d4ff;stroke:#00d4ff;" x="241.570909" xlink:href="#meebf6596bf" y="122.295896"/>
     <use style="fill:#00d4ff;stroke:#00d4ff;" x="245.178182" xlink:href="#meebf6596bf" y="121.406035"/>
     <use style="fill:#00d4ff;stroke:#00d4ff;" x="248.785455" xlink:href="#meebf6596bf" y="115.545948"/>
     <use style="fill:#00d4ff;stroke:#00d4ff;" x="252.392727" xlink:href="#meebf6596bf" y="108.281839"/>
     <use style="fill:#00d4ff;stroke:#00d4ff;" x="256" xlink:href="#meebf6596bf" y="117.273327"/>
     <use style="fill:#00d4ff;stroke:#00d4ff;" x="259.607273" xlink:href="#meebf6596bf" y="110.463436"/>
     <use style="fill:#00d4ff;stroke:#00d4ff;" x="263.214545" xlink:href="#meebf6596bf" y="106.31131"/>
     <use style="fill:#00d4ff;stroke:#00d4ff;" x="266.821818" xlink:href="#meebf6596bf" y="113.050283"/>
     <use style="fill:#00d4ff;stroke:#00d4ff;" x="270.429091" xlink:href="#meebf6596bf" y="104.48093"/>
     <use style="fill:#00d4ff;stroke:#00d4ff;" x="274.036364" xlink:href="#meebf6596bf" y="98.450301"/>
     <use style="fill:#00d4ff;stroke:#00d4ff;" x="277.643636" xlink:href="#meebf6596bf" y="105.128486"/>
     <use style="fill:#00d4ff;stroke:#00d4ff;" x="281.250909" xlink:href="#meebf6596bf" y="103.141072"/>
     <use style="fill:#00d4ff;stroke:#00d4ff;" x="284.858182" xlink:href="#meebf6596bf" y="104.615169"/>
     <use style="fill:#00d4ff;stroke:#00d4ff;" x="288.465455" xlink:href="#meebf6596bf" y="101.181518"/>
     <use style="fill:#00d4ff;stroke:#00d4ff;" x="292.072727" xlink:href="#meebf6596bf" y="104.786556"/>
     <use style="fill:#00d4ff;stroke:#00d4ff;" x="295.68" xlink:href="#meebf6596bf" y="92.840119"/>
     <use style="fill:#00d4ff;stroke:#00d4ff;" x="299.287273" xlink:href="#meebf6596bf" y="101.34193"/>
     <use style="fill:#00d4ff;stroke:#00d4ff;" x="302.894545" xlink:href="#meebf6596bf" y="99.07675"/>
     <use style="fill:#00d4ff;stroke:#00d4ff;" x="306.501818" xlink:href="#meebf6596bf" y="93.789924"/>
     <use style="fill:#00d4ff;stroke:#00d4ff;" x="310.109091" xlink:href="#meebf6596bf" y="88.61623"/>
     <use style="fill:#00d4ff;stroke:#00d4ff;" x="313.716364" xlink:href="#meebf6596bf" y="99.062397"/>
     <use style="fill:#00d4ff;stroke:#00d4ff;" x="317.323636" xlink:href="#meebf6596bf" y="87.163239"/>
     <use style="fill:#00d4ff;stroke:#00d4ff;" x="320.930909" xlink:href="#meebf6596bf" y="93.284205"/>
     <use style="fill:#00d4ff;stroke:#00d4ff;" x="324.538182" xlink:href="#meebf6596bf" y="93.85831"/>
     <use style="fill:#00d4ff;stroke:#00d4ff;" x="328.145455" xlink:href="#meebf6596bf" y="85.323572"/>
     <use style="fill:#00d4ff;stroke:#00d4ff;" x="331.752727" xlink:href="#meebf6596bf" y="81.05156"/>
     <use style="fill:#00d4ff;stroke:#00d4ff;" x="335.36" xlink:href="#meebf6596bf" y="82.867587"/>
     <use style="fill:#00d4ff;stroke:#00d4ff;" x="338.967273" xlink:href="#meebf6596bf" y="90.872967"/>
     <use style="fill:#00d4ff;stroke:#00d4ff;" x="342.574545" xlink:href="#meebf6596bf" y="87.684155"/>
     <use style="fill:#00d4ff;stroke:#00d4ff;" x="346.181818" xlink:href="#meebf6596bf" y="87.690064"/>
     <use style="fill:#00d4ff;stroke:#00d4ff;" x="349.789091" xlink:href="#meebf6596bf" y="79.32587"/>
     <use style="fill:#00d4ff;stroke:#00d4ff;" x="353.396364" xlink:href="#meebf6596bf" y="85.966907"/>
     <use style="fill:#00d4ff;stroke:#00d4ff;" x="357.003636" xlink:href="#meebf6596bf" y="81.303997"/>
     <use style="fill:#00d4ff;stroke:#00d4ff;" x="360.610909" xlink:href="#meebf6596bf" y="77.150183"/>
     <use style="fill:#00d4ff;stroke:#00d4ff;" x="364.218182" xlink:href="#meebf6596bf" y="83.479684"/>
     <use style="fill:#00d4ff;stroke:#00d4ff;" x="367.825455" xlink:href="#meebf6596bf" y="83.824147"/>
     <use style="fill:#00d4ff;stroke:#00d4ff;" x="371.432727" xlink:href="#meebf6596bf" y="85.028077"/>
     <use style="fill:#00d4ff;stroke:#00d4ff;" x="375.04" xlink:href="#meebf6596bf" y="80.630269"/>
     <use style="fill:#00d4ff;stroke:#00d4ff;" x="378.647273" xlink:href="#meebf6596bf" y="75.028529"/>
     <use style="fill:#00d4ff;stroke:#00d4ff;" x="382.254545" xlink:href="#meebf6596bf" y="78.522968"/>
     <use style="fill:#00d4ff;stroke:#00d4ff;" x="385.861818" xlink:href="#meebf6596bf" y="68.526797"/>
     <use style="fill:#00d4ff;stroke:#00d4ff;" x="389.469091" xlink:href="#meebf6596bf" y="76.29578"/>
     <use style="fill:#00d4ff;stroke:#00d4ff;" x="393.076364" xlink:href="#meebf6596bf" y="79.229623"/>
     <use style="fill:#00d4ff;stroke:#00d4ff;" x="396.683636" xlink:href="#meebf6596bf" y="79.360485"/>
     <use style="fill:#00d4ff;stroke:#00d4ff;" x="400.290909" xlink:href="#meebf6596bf" y="67.567705"/>
     <use style="fill:#00d4ff;stroke:#00d4ff;" x="403.898182" xlink:href="#meebf6596bf" y="75.834808"/>
     <use style="fill:#00d4ff;stroke:#00d4ff;" x="407.505455" xlink:href="#meebf6596bf" y="77.082641"/>
     <use style="fill:#00d4ff;stroke:#00d4ff;" x="411.112727" xlink:href="#meebf6596bf" y="75.290253"/>
     <use style="fill:#00d4ff;stroke:#00d4ff;" x="414.72" xlink:href="#meebf6596bf" y="66.070812"/>
    </g>
   </g>
   <g id="line2d_27">
    <path clip-path="url(#p23f6216137)" d="M 57.6 295.488 
L 61.207273 287.299414 
L 64.814545 279.609792 
L 68.421818 271.625519 
L 72.029091 263.027461 
L 75.636364 253.914398 
L 79.243636 245.384726 
L 82.850909 238.149322 
L 86.458182 228.967029 
L 90.065455 224.351398 
L 93.672727 216.722563 
L 97.28 206.025647 
L 100.887273 196.614557 
L 104.494545 192.094329 
L 108.101818 181.108672 
L 111.709091 173.324491 
L 115.316364 160.424028 
L 118.923636 152.016775 
L 122.530909 149.495781 
L 126.138182 143.000803 
L 129.745455 134.975161 
L 133.352727 128.63384 
L 136.96 113.949431 
L 140.567273 110.136703 
L 144.174545 100.082277 
L 147.781818 101.054033 
L 151.389091 94.277068 
L 154.996364 83.187566 
L 158.603636 90.222034 
L 162.210909 87.04673 
L 165.818182 79.426338 
L 169.425455 84.93774 
L 173.032727 79.710013 
L 176.64 74.494106 
L 180.247273 74.140356 
L 183.854545 59.558104 
L 187.461818 57.596862 
L 191.069091 63.364923 
L 194.676364 62.52234 
L 198.283636 57.745454 
L 201.890909 54.571838 
L 205.498182 76.065294 
L 209.105455 81.082798 
L 212.712727 100.109294 
L 216.32 106.784946 
L 219.927273 110.277696 
L 223.534545 121.249844 
L 227.141818 128.154294 
L 230.749091 130.372195 
L 234.356364 139.549422 
L 237.963636 146.225075 
L 241.570909 144.675837 
L 245.178182 154.147716 
L 248.785455 153.940869 
L 252.392727 160.402077 
L 256 164.084787 
L 259.607273 161.76473 
L 263.214545 171.908649 
L 266.821818 168.936814 
L 270.429091 170.062228 
L 274.036364 173.252728 
L 277.643636 174.234616 
L 281.250909 182.189339 
L 284.858182 179.224259 
L 288.465455 185.254888 
L 292.072727 181.61439 
L 295.68 180.570027 
L 299.287273 183.460811 
L 302.894545 188.214902 
L 306.501818 186.690993 
L 310.109091 188.024097 
L 313.716364 194.327426 
L 317.323636 191.318443 
L 320.930909 192.264027 
L 324.538182 192.085042 
L 328.145455 197.293351 
L 331.752727 195.582857 
L 335.36 198.152819 
L 338.967273 196.377316 
L 342.574545 197.17262 
L 346.181818 200.424752 
L 349.789091 200.860396 
L 353.396364 200.790322 
L 357.003636 199.844738 
L 360.610909 204.374253 
L 364.218182 200.759084 
L 367.825455 204.489074 
L 371.432727 206.347315 
L 375.04 201.268179 
L 378.647273 206.025647 
L 382.254545 202.112451 
L 385.861818 202.248378 
L 389.469091 202.667981 
L 393.076364 203.740205 
L 396.683636 204.277162 
L 400.290909 207.712501 
L 403.898182 204.745732 
L 407.505455 209.943066 
L 411.112727 207.570664 
L 414.72 207.937077 
" style="fill:none;stroke:#ffe600;stroke-linecap:square;"/>
    <defs>
     <path d="M 0 1.5 
C 0.397805 1.5 0.77937 1.341951 1.06066 1.06066 
C 1.341951 0.77937 1.5 0.397805 1.5 0 
C 1.5 -0.397805 1.341951 -0.77937 1.06066 -1.06066 
C 0.77937 -1.341951 0.397805 -1.5 0 -1.5 
C -0.397805 -1.5 -0.77937 -1.341951 -1.06066 -1.06066 
C -1.341951 -0.77937 -1.5 -0.397805 -1.5 0 
C -1.5 0.397805 -1.341951 0.77937 -1.06066 1.06066 
C -0.77937 1.341951 -0.397805 1.5 0 1.5 
z
" id="m77be9dd76b" style="stroke:#ffe600;"/>
    </defs>
    <g clip-path="url(#p23f6216137)">
     <use style="fill:#ffe600;stroke:#ffe600;" x="57.6" xlink:href="#m77be9dd76b" y="295.488"/>
     <use style="fill:#ffe600;stroke:#ffe600;" x="61.207273" xlink:href="#m77be9dd76b" y="287.299414"/>
     <use style="fill:#ffe600;stroke:#ffe600;" x="64.814545" xlink:href="#m77be9dd76b" y="279.609792"/>
     <use style="fill:#ffe600;stroke:#ffe600;" x="68.421818" xlink:href="#m77be9dd76b" y="271.625519"/>
     <use style="fill:#ffe600;stroke:#ffe600;" x="72.029091" xlink:href="#m77be9dd76b" y="263.027461"/>
     <use style="fill:#ffe600;stroke:#ffe600;" x="75.636364" xlink:href="#m77be9dd76b" y="253.914398"/>
     <use style="fill:#ffe600;stroke:#ffe600;" x="79.243636" xlink:href="#m77be9dd76b" y="245.384726"/>
     <use style="fill:#ffe600;stroke:#ffe600;" x="82.850909" xlink:href="#m77be9dd76b" y="238.149322"/>
     <use style="fill:#ffe600;stroke:#ffe600;" x="86.458182" xlink:href="#m77be9dd76b" y="228.967029"/>
     <use style="fill:#ffe600;stroke:#ffe600;" x="90.065455" xlink:href="#m77be9dd76b" y="224.351398"/>
     <use style="fill:#ffe600;stroke:#ffe600;" x="93.672727" xlink:href="#m77be9dd76b" y="216.722563"/>
     <use style="fill:#ffe600;stroke:#ffe600;" x="97.28" xlink:href="#m77be9dd76b" y="206.025647"/>
     <use style="fill:#ffe600;stroke:#ffe600;" x="100.887273" xlink:href="#m77be9dd76b" y="196.614557"/>
     <use style="fill:#ffe600;stroke:#ffe600;" x="104.494545" xlink:href="#m77be9dd76b" y="192.094329"/>
     <use style="fill:#ffe600;stroke:#ffe600;" x="108.101818" xlink:href="#m77be9dd76b" y="181.108672"/>
     <use style="fill:#ffe600;stroke:#ffe600;" x="111.709091" xlink:href="#m77be9dd76b" y="173.324491"/>
     <use style="fill:#ffe600;stroke:#ffe600;" x="115.316364" xlink:href="#m77be9dd76b" y="160.424028"/>
     <use style="fill:#ffe600;stroke:#ffe600;" x="118.923636" xlink:href="#m77be9dd76b" y="152.016775"/>
     <use style="fill:#ffe600;stroke:#ffe600;" x="122.530909" xlink:href="#m77be9dd76b" y="149.495781"/>
     <use style="fill:#ffe600;stroke:#ffe600;" x="126.138182" xlink:href="#m77be9dd76b" y="143.000803"/>
     <use style="fill:#ffe600;stroke:#ffe600;" x="129.745455" xlink:href="#m77be9dd76b" y="134.975161"/>
     <use style="fill:#ffe600;stroke:#ffe600;" x="133.352727" xlink:href="#m77be9dd76b" y="128.63384"/>
     <use style="fill:#ffe600;stroke:#ffe600;" x="136.96" xlink:href="#m77be9dd76b" y="113.949431"/>
     <use style="fill:#ffe600;stroke:#ffe600;" x="140.567273" xlink:href="#m77be9dd76b" y="110.136703"/>
     <use style="fill:#ffe600;stroke:#ffe600;" x="144.174545" xlink:href="#m77be9dd76b" y="100.082277"/>
     <use style="fill:#ffe600;stroke:#ffe600;" x="147.781818" xlink:href="#m77be9dd76b" y="101.054033"/>
     <use style="fill:#ffe600;stroke:#ffe600;" x="151.389091" xlink:href="#m77be9dd76b" y="94.277068"/>
     <use style="fill:#ffe600;stroke:#ffe600;" x="154.996364" xlink:href="#m77be9dd76b" y="83.187566"/>
     <use style="fill:#ffe600;stroke:#ffe600;" x="158.603636" xlink:href="#m77be9dd76b" y="90.222034"/>
     <use style="fill:#ffe600;stroke:#ffe600;" x="162.210909" xlink:href="#m77be9dd76b" y="87.04673"/>
     <use style="fill:#ffe600;stroke:#ffe600;" x="165.818182" xlink:href="#m77be9dd76b" y="79.426338"/>
     <use style="fill:#ffe600;stroke:#ffe600;" x="169.425455" xlink:href="#m77be9dd76b" y="84.93774"/>
     <use style="fill:#ffe600;stroke:#ffe600;" x="173.032727" xlink:href="#m77be9dd76b" y="79.710013"/>
     <use style="fill:#ffe600;stroke:#ffe600;" x="176.64" xlink:href="#m77be9dd76b" y="74.494106"/>
     <use style="fill:#ffe600;stroke:#ffe600;" x="180.247273" xlink:href="#m77be9dd76b" y="74.140356"/>
     <use style="fill:#ffe600;stroke:#ffe600;" x="183.854545" xlink:href="#m77be9dd76b" y="59.558104"/>
     <use style="fill:#ffe600;stroke:#ffe600;" x="187.461818" xlink:href="#m77be9dd76b" y="57.596862"/>
     <use style="fill:#ffe600;stroke:#ffe600;" x="191.069091" xlink:href="#m77be9dd76b" y="63.364923"/>
     <use style="fill:#ffe600;stroke:#ffe600;" x="194.676364" xlink:href="#m77be9dd76b" y="62.52234"/>
     <use style="fill:#ffe600;stroke:#ffe600;" x="198.283636" xlink:href="#m77be9dd76b" y="57.745454"/>
     <use style="fill:#ffe600;stroke:#ffe600;" x="201.890909" xlink:href="#m77be9dd76b" y="54.571838"/>
     <use style="fill:#ffe600;stroke:#ffe600;" x="205.498182" xlink:href="#m77be9dd76b" y="76.065294"/>
     <use style="fill:#ffe600;stroke:#ffe600;" x="209.105455" xlink:href="#m77be9dd76b" y="81.082798"/>
     <use style="fill:#ffe600;stroke:#ffe600;" x="212.712727" xlink:href="#m77be9dd76b" y="100.109294"/>
     <use style="fill:#ffe600;stroke:#ffe600;" x="216.32" xlink:href="#m77be9dd76b" y="106.784946"/>
     <use style="fill:#ffe600;stroke:#ffe600;" x="219.927273" xlink:href="#m77be9dd76b" y="110.277696"/>
     <use style="fill:#ffe600;stroke:#ffe600;" x="223.534545" xlink:href="#m77be9dd76b" y="121.249844"/>
     <use style="fill:#ffe600;stroke:#ffe600;" x="227.141818" xlink:href="#m77be9dd76b" y="128.154294"/>
     <use style="fill:#ffe600;stroke:#ffe600;" x="230.749091" xlink:href="#m77be9dd76b" y="130.372195"/>
     <use style="fill:#ffe600;stroke:#ffe600;" x="234.356364" xlink:href="#m77be9dd76b" y="139.549422"/>
     <use style="fill:#ffe600;stroke:#ffe600;" x="237.963636" xlink:href="#m77be9dd76b" y="146.225075"/>
     <use style="fill:#ffe600;stroke:#ffe600;" x="241.570909" xlink:href="#m77be9dd76b" y="144.675837"/>
     <use style="fill:#ffe600;stroke:#ffe600;" x="245.178182" xlink:href="#m77be9dd76b" y="154.147716"/>
     <use style="fill:#ffe600;stroke:#ffe600;" x="248.785455" xlink:href="#m77be9dd76b" y="153.940869"/>
     <use style="fill:#ffe600;stroke:#ffe600;" x="252.392727" xlink:href="#m77be9dd76b" y="160.402077"/>
     <use style="fill:#ffe600;stroke:#ffe600;" x="256" xlink:href="#m77be9dd76b" y="164.084787"/>
     <use style="fill:#ffe600;stroke:#ffe600;" x="259.607273" xlink:href="#m77be9dd76b" y="161.76473"/>
     <use style="fill:#ffe600;stroke:#ffe600;" x="263.214545" xlink:href="#m77be9dd76b" y="171.908649"/>
     <use style="fill:#ffe600;stroke:#ffe600;" x="266.821818" xlink:href="#m77be9dd76b" y="168.936814"/>
     <use style="fill:#ffe600;stroke:#ffe600;" x="270.429091" xlink:href="#m77be9dd76b" y="170.062228"/>
     <use style="fill:#ffe600;stroke:#ffe600;" x="274.036364" xlink:href="#m77be9dd76b" y="173.252728"/>
     <use style="fill:#ffe600;stroke:#ffe600;" x="277.643636" xlink:href="#m77be9dd76b" y="174.234616"/>
     <use style="fill:#ffe600;stroke:#ffe600;" x="281.250909" xlink:href="#m77be9dd76b" y="182.189339"/>
     <use style="fill:#ffe600;stroke:#ffe600;" x="284.858182" xlink:href="#m77be9dd76b" y="179.224259"/>
     <use style="fill:#ffe600;stroke:#ffe600;" x="288.465455" xlink:href="#m77be9dd76b" y="185.254888"/>
     <use style="fill:#ffe600;stroke:#ffe600;" x="292.072727" xlink:href="#m77be9dd76b" y="181.61439"/>
     <use style="fill:#ffe600;stroke:#ffe600;" x="295.68" xlink:href="#m77be9dd76b" y="180.570027"/>
     <use style="fill:#ffe600;stroke:#ffe600;" x="299.287273" xlink:href="#m77be9dd76b" y="183.460811"/>
     <use style="fill:#ffe600;stroke:#ffe600;" x="302.894545" xlink:href="#m77be9dd76b" y="188.214902"/>
     <use style="fill:#ffe600;stroke:#ffe600;" x="306.501818" xlink:href="#m77be9dd76b" y="186.690993"/>
     <use style="fill:#ffe600;stroke:#ffe600;" x="310.109091" xlink:href="#m77be9dd76b" y="188.024097"/>
     <use style="fill:#ffe600;stroke:#ffe600;" x="313.716364" xlink:href="#m77be9dd76b" y="194.327426"/>
     <use style="fill:#ffe600;stroke:#ffe600;" x="317.323636" xlink:href="#m77be9dd76b" y="191.318443"/>
     <use style="fill:#ffe600;stroke:#ffe600;" x="320.930909" xlink:href="#m77be9dd76b" y="192.264027"/>
     <use style="fill:#ffe600;stroke:#ffe600;" x="324.538182" xlink:href="#m77be9dd76b" y="192.085042"/>
     <use style="fill:#ffe600;stroke:#ffe600;" x="328.145455" xlink:href="#m77be9dd76b" y="197.293351"/>
     <use style="fill:#ffe600;stroke:#ffe600;" x="331.752727" xlink:href="#m77be9dd76b" y="195.582857"/>
     <use style="fill:#ffe600;stroke:#ffe600;" x="335.36" xlink:href="#m77be9dd76b" y="198.152819"/>
     <use style="fill:#ffe600;stroke:#ffe600;" x="338.967273" xlink:href="#m77be9dd76b" y="196.377316"/>
     <use style="fill:#ffe600;stroke:#ffe600;" x="342.574545" xlink:href="#m77be9dd76b" y="197.17262"/>
     <use style="fill:#ffe600;stroke:#ffe600;" x="346.181818" xlink:href="#m77be9dd76b" y="200.424752"/>
     <use style="fill:#ffe600;stroke:#ffe600;" x="349.789091" xlink:href="#m77be9dd76b" y="200.860396"/>
     <use style="fill:#ffe600;stroke:#ffe600;" x="353.396364" xlink:href="#m77be9dd76b" y="200.790322"/>
     <use style="fill:#ffe600;stroke:#ffe600;" x="357.003636" xlink:href="#m77be9dd76b" y="199.844738"/>
     <use style="fill:#ffe600;stroke:#ffe600;" x="360.610909" xlink:href="#m77be9dd76b" y="204.374253"/>
     <use style="fill:#ffe600;stroke:#ffe600;" x="364.218182" xlink:href="#m77be9dd76b" y="200.759084"/>
     <use style="fill:#ffe600;stroke:#ffe600;" x="367.825455" xlink:href="#m77be9dd76b" y="204.489074"/>
     <use style="fill:#ffe600;stroke:#ffe600;" x="371.432727" xlink:href="#m77be9dd76b" y="206.347315"/>
     <use style="fill:#ffe600;stroke:#ffe600;" x="375.04" xlink:href="#m77be9dd76b" y="201.268179"/>
     <use style="fill:#ffe600;stroke:#ffe600;" x="378.647273" xlink:href="#m77be9dd76b" y="206.025647"/>
     <use style="fill:#ffe600;stroke:#ffe600;" x="382.254545" xlink:href="#m77be9dd76b" y="202.112451"/>
     <use style="fill:#ffe600;stroke:#ffe600;" x="385.861818" xlink:href="#m77be9dd76b" y="202.248378"/>
     <use style="fill:#ffe600;stroke:#ffe600;" x="389.469091" xlink:href="#m77be9dd76b" y="202.667981"/>
     <use style="fill:#ffe600;stroke:#ffe600;" x="393.076364" xlink:href="#m77be9dd76b" y="203.740205"/>
     <use style="fill:#ffe600;stroke:#ffe600;" x="396.683636" xlink:href="#m77be9dd76b" y="204.277162"/>
     <use style="fill:#ffe600;stroke:#ffe600;" x="400.290909" xlink:href="#m77be9dd76b" y="207.712501"/>
     <use style="fill:#ffe600;stroke:#ffe600;" x="403.898182" xlink:href="#m77be9dd76b" y="204.745732"/>
     <use style="fill:#ffe600;stroke:#ffe600;" x="407.505455" xlink:href="#m77be9dd76b" y="209.943066"/>
     <use style="fill:#ffe600;stroke:#ffe600;" x="411.112727" xlink:href="#m77be9dd76b" y="207.570664"/>
     <use style="fill:#ffe600;stroke:#ffe600;" x="414.72" xlink:href="#m77be9dd76b" y="207.937077"/>
    </g>
   </g>
   <g id="line2d_28">
    <path clip-path="url(#p23f6216137)" d="M 57.6 295.457606 
L 61.207273 287.533277 
L 64.814545 278.78325 
L 68.421818 271.205916 
L 72.029091 263.426802 
L 75.636364 254.559421 
L 79.243636 247.972417 
L 82.850909 236.378885 
L 86.458182 230.93418 
L 90.065455 220.011844 
L 93.672727 215.141244 
L 97.28 207.219447 
L 100.887273 196.492981 
L 104.494545 186.465573 
L 108.101818 181.941967 
L 111.709091 173.08303 
L 115.316364 165.343596 
L 118.923636 156.776776 
L 122.530909 150.105345 
L 126.138182 140.268741 
L 129.745455 127.385163 
L 133.352727 122.212313 
L 136.96 117.175392 
L 140.567273 101.24906 
L 144.174545 96.652003 
L 147.781818 95.726682 
L 151.389091 87.87496 
L 154.996364 70.729501 
L 158.603636 64.249719 
L 162.210909 53.568 
L 165.818182 60.216636 
L 169.425455 63.035657 
L 173.032727 69.158312 
L 176.64 67.679993 
L 180.247273 84.771419 
L 183.854545 89.660593 
L 187.461818 86.161089 
L 191.069091 96.627519 
L 194.676364 97.036991 
L 198.283636 106.513091 
L 201.890909 113.500279 
L 205.498182 120.328744 
L 209.105455 124.974769 
L 212.712727 120.619174 
L 216.32 133.768698 
L 219.927273 137.632083 
L 223.534545 137.300284 
L 227.141818 135.401518 
L 230.749091 146.575447 
L 234.356364 148.670928 
L 237.963636 146.542521 
L 241.570909 151.668935 
L 245.178182 152.994441 
L 248.785455 159.04871 
L 252.392727 158.320948 
L 256 163.836572 
L 259.607273 168.150798 
L 263.214545 164.972961 
L 266.821818 170.812785 
L 270.429091 174.024392 
L 274.036364 172.589131 
L 277.643636 174.326641 
L 281.250909 174.877106 
L 284.858182 177.980647 
L 288.465455 182.31598 
L 292.072727 186.729829 
L 295.68 184.242606 
L 299.287273 189.035534 
L 302.894545 191.243303 
L 306.501818 188.013966 
L 310.109091 193.02556 
L 313.716364 191.882416 
L 317.323636 191.412157 
L 320.930909 195.392896 
L 324.538182 194.608568 
L 328.145455 197.392975 
L 331.752727 196.644106 
L 335.36 201.47587 
L 338.967273 202.78449 
L 342.574545 204.773593 
L 346.181818 206.473955 
L 349.789091 204.635977 
L 353.396364 204.229883 
L 357.003636 211.142775 
L 360.610909 210.732459 
L 364.218182 210.625237 
L 367.825455 213.664613 
L 371.432727 211.541271 
L 375.04 213.613957 
L 378.647273 214.17793 
L 382.254545 212.467437 
L 385.861818 217.007927 
L 389.469091 216.129885 
L 393.076364 215.705217 
L 396.683636 218.958194 
L 400.290909 218.982677 
L 403.898182 222.471206 
L 407.505455 221.062117 
L 411.112727 222.75066 
L 414.72 222.1774 
" style="fill:none;stroke:#800000;stroke-linecap:square;"/>
    <defs>
     <path d="M 0 1.5 
C 0.397805 1.5 0.77937 1.341951 1.06066 1.06066 
C 1.341951 0.77937 1.5 0.397805 1.5 0 
C 1.5 -0.397805 1.341951 -0.77937 1.06066 -1.06066 
C 0.77937 -1.341951 0.397805 -1.5 0 -1.5 
C -0.397805 -1.5 -0.77937 -1.341951 -1.06066 -1.06066 
C -1.341951 -0.77937 -1.5 -0.397805 -1.5 0 
C -1.5 0.397805 -1.341951 0.77937 -1.06066 1.06066 
C -0.77937 1.341951 -0.397805 1.5 0 1.5 
z
" id="mbfffd0918b" style="stroke:#800000;"/>
    </defs>
    <g clip-path="url(#p23f6216137)">
     <use style="fill:#800000;stroke:#800000;" x="57.6" xlink:href="#mbfffd0918b" y="295.457606"/>
     <use style="fill:#800000;stroke:#800000;" x="61.207273" xlink:href="#mbfffd0918b" y="287.533277"/>
     <use style="fill:#800000;stroke:#800000;" x="64.814545" xlink:href="#mbfffd0918b" y="278.78325"/>
     <use style="fill:#800000;stroke:#800000;" x="68.421818" xlink:href="#mbfffd0918b" y="271.205916"/>
     <use style="fill:#800000;stroke:#800000;" x="72.029091" xlink:href="#mbfffd0918b" y="263.426802"/>
     <use style="fill:#800000;stroke:#800000;" x="75.636364" xlink:href="#mbfffd0918b" y="254.559421"/>
     <use style="fill:#800000;stroke:#800000;" x="79.243636" xlink:href="#mbfffd0918b" y="247.972417"/>
     <use style="fill:#800000;stroke:#800000;" x="82.850909" xlink:href="#mbfffd0918b" y="236.378885"/>
     <use style="fill:#800000;stroke:#800000;" x="86.458182" xlink:href="#mbfffd0918b" y="230.93418"/>
     <use style="fill:#800000;stroke:#800000;" x="90.065455" xlink:href="#mbfffd0918b" y="220.011844"/>
     <use style="fill:#800000;stroke:#800000;" x="93.672727" xlink:href="#mbfffd0918b" y="215.141244"/>
     <use style="fill:#800000;stroke:#800000;" x="97.28" xlink:href="#mbfffd0918b" y="207.219447"/>
     <use style="fill:#800000;stroke:#800000;" x="100.887273" xlink:href="#mbfffd0918b" y="196.492981"/>
     <use style="fill:#800000;stroke:#800000;" x="104.494545" xlink:href="#mbfffd0918b" y="186.465573"/>
     <use style="fill:#800000;stroke:#800000;" x="108.101818" xlink:href="#mbfffd0918b" y="181.941967"/>
     <use style="fill:#800000;stroke:#800000;" x="111.709091" xlink:href="#mbfffd0918b" y="173.08303"/>
     <use style="fill:#800000;stroke:#800000;" x="115.316364" xlink:href="#mbfffd0918b" y="165.343596"/>
     <use style="fill:#800000;stroke:#800000;" x="118.923636" xlink:href="#mbfffd0918b" y="156.776776"/>
     <use style="fill:#800000;stroke:#800000;" x="122.530909" xlink:href="#mbfffd0918b" y="150.105345"/>
     <use style="fill:#800000;stroke:#800000;" x="126.138182" xlink:href="#mbfffd0918b" y="140.268741"/>
     <use style="fill:#800000;stroke:#800000;" x="129.745455" xlink:href="#mbfffd0918b" y="127.385163"/>
     <use style="fill:#800000;stroke:#800000;" x="133.352727" xlink:href="#mbfffd0918b" y="122.212313"/>
     <use style="fill:#800000;stroke:#800000;" x="136.96" xlink:href="#mbfffd0918b" y="117.175392"/>
     <use style="fill:#800000;stroke:#800000;" x="140.567273" xlink:href="#mbfffd0918b" y="101.24906"/>
     <use style="fill:#800000;stroke:#800000;" x="144.174545" xlink:href="#mbfffd0918b" y="96.652003"/>
     <use style="fill:#800000;stroke:#800000;" x="147.781818" xlink:href="#mbfffd0918b" y="95.726682"/>
     <use style="fill:#800000;stroke:#800000;" x="151.389091" xlink:href="#mbfffd0918b" y="87.87496"/>
     <use style="fill:#800000;stroke:#800000;" x="154.996364" xlink:href="#mbfffd0918b" y="70.729501"/>
     <use style="fill:#800000;stroke:#800000;" x="158.603636" xlink:href="#mbfffd0918b" y="64.249719"/>
     <use style="fill:#800000;stroke:#800000;" x="162.210909" xlink:href="#mbfffd0918b" y="53.568"/>
     <use style="fill:#800000;stroke:#800000;" x="165.818182" xlink:href="#mbfffd0918b" y="60.216636"/>
     <use style="fill:#800000;stroke:#800000;" x="169.425455" xlink:href="#mbfffd0918b" y="63.035657"/>
     <use style="fill:#800000;stroke:#800000;" x="173.032727" xlink:href="#mbfffd0918b" y="69.158312"/>
     <use style="fill:#800000;stroke:#800000;" x="176.64" xlink:href="#mbfffd0918b" y="67.679993"/>
     <use style="fill:#800000;stroke:#800000;" x="180.247273" xlink:href="#mbfffd0918b" y="84.771419"/>
     <use style="fill:#800000;stroke:#800000;" x="183.854545" xlink:href="#mbfffd0918b" y="89.660593"/>
     <use style="fill:#800000;stroke:#800000;" x="187.461818" xlink:href="#mbfffd0918b" y="86.161089"/>
     <use style="fill:#800000;stroke:#800000;" x="191.069091" xlink:href="#mbfffd0918b" y="96.627519"/>
     <use style="fill:#800000;stroke:#800000;" x="194.676364" xlink:href="#mbfffd0918b" y="97.036991"/>
     <use style="fill:#800000;stroke:#800000;" x="198.283636" xlink:href="#mbfffd0918b" y="106.513091"/>
     <use style="fill:#800000;stroke:#800000;" x="201.890909" xlink:href="#mbfffd0918b" y="113.500279"/>
     <use style="fill:#800000;stroke:#800000;" x="205.498182" xlink:href="#mbfffd0918b" y="120.328744"/>
     <use style="fill:#800000;stroke:#800000;" x="209.105455" xlink:href="#mbfffd0918b" y="124.974769"/>
     <use style="fill:#800000;stroke:#800000;" x="212.712727" xlink:href="#mbfffd0918b" y="120.619174"/>
     <use style="fill:#800000;stroke:#800000;" x="216.32" xlink:href="#mbfffd0918b" y="133.768698"/>
     <use style="fill:#800000;stroke:#800000;" x="219.927273" xlink:href="#mbfffd0918b" y="137.632083"/>
     <use style="fill:#800000;stroke:#800000;" x="223.534545" xlink:href="#mbfffd0918b" y="137.300284"/>
     <use style="fill:#800000;stroke:#800000;" x="227.141818" xlink:href="#mbfffd0918b" y="135.401518"/>
     <use style="fill:#800000;stroke:#800000;" x="230.749091" xlink:href="#mbfffd0918b" y="146.575447"/>
     <use style="fill:#800000;stroke:#800000;" x="234.356364" xlink:href="#mbfffd0918b" y="148.670928"/>
     <use style="fill:#800000;stroke:#800000;" x="237.963636" xlink:href="#mbfffd0918b" y="146.542521"/>
     <use style="fill:#800000;stroke:#800000;" x="241.570909" xlink:href="#mbfffd0918b" y="151.668935"/>
     <use style="fill:#800000;stroke:#800000;" x="245.178182" xlink:href="#mbfffd0918b" y="152.994441"/>
     <use style="fill:#800000;stroke:#800000;" x="248.785455" xlink:href="#mbfffd0918b" y="159.04871"/>
     <use style="fill:#800000;stroke:#800000;" x="252.392727" xlink:href="#mbfffd0918b" y="158.320948"/>
     <use style="fill:#800000;stroke:#800000;" x="256" xlink:href="#mbfffd0918b" y="163.836572"/>
     <use style="fill:#800000;stroke:#800000;" x="259.607273" xlink:href="#mbfffd0918b" y="168.150798"/>
     <use style="fill:#800000;stroke:#800000;" x="263.214545" xlink:href="#mbfffd0918b" y="164.972961"/>
     <use style="fill:#800000;stroke:#800000;" x="266.821818" xlink:href="#mbfffd0918b" y="170.812785"/>
     <use style="fill:#800000;stroke:#800000;" x="270.429091" xlink:href="#mbfffd0918b" y="174.024392"/>
     <use style="fill:#800000;stroke:#800000;" x="274.036364" xlink:href="#mbfffd0918b" y="172.589131"/>
     <use style="fill:#800000;stroke:#800000;" x="277.643636" xlink:href="#mbfffd0918b" y="174.326641"/>
     <use style="fill:#800000;stroke:#800000;" x="281.250909" xlink:href="#mbfffd0918b" y="174.877106"/>
     <use style="fill:#800000;stroke:#800000;" x="284.858182" xlink:href="#mbfffd0918b" y="177.980647"/>
     <use style="fill:#800000;stroke:#800000;" x="288.465455" xlink:href="#mbfffd0918b" y="182.31598"/>
     <use style="fill:#800000;stroke:#800000;" x="292.072727" xlink:href="#mbfffd0918b" y="186.729829"/>
     <use style="fill:#800000;stroke:#800000;" x="295.68" xlink:href="#mbfffd0918b" y="184.242606"/>
     <use style="fill:#800000;stroke:#800000;" x="299.287273" xlink:href="#mbfffd0918b" y="189.035534"/>
     <use style="fill:#800000;stroke:#800000;" x="302.894545" xlink:href="#mbfffd0918b" y="191.243303"/>
     <use style="fill:#800000;stroke:#800000;" x="306.501818" xlink:href="#mbfffd0918b" y="188.013966"/>
     <use style="fill:#800000;stroke:#800000;" x="310.109091" xlink:href="#mbfffd0918b" y="193.02556"/>
     <use style="fill:#800000;stroke:#800000;" x="313.716364" xlink:href="#mbfffd0918b" y="191.882416"/>
     <use style="fill:#800000;stroke:#800000;" x="317.323636" xlink:href="#mbfffd0918b" y="191.412157"/>
     <use style="fill:#800000;stroke:#800000;" x="320.930909" xlink:href="#mbfffd0918b" y="195.392896"/>
     <use style="fill:#800000;stroke:#800000;" x="324.538182" xlink:href="#mbfffd0918b" y="194.608568"/>
     <use style="fill:#800000;stroke:#800000;" x="328.145455" xlink:href="#mbfffd0918b" y="197.392975"/>
     <use style="fill:#800000;stroke:#800000;" x="331.752727" xlink:href="#mbfffd0918b" y="196.644106"/>
     <use style="fill:#800000;stroke:#800000;" x="335.36" xlink:href="#mbfffd0918b" y="201.47587"/>
     <use style="fill:#800000;stroke:#800000;" x="338.967273" xlink:href="#mbfffd0918b" y="202.78449"/>
     <use style="fill:#800000;stroke:#800000;" x="342.574545" xlink:href="#mbfffd0918b" y="204.773593"/>
     <use style="fill:#800000;stroke:#800000;" x="346.181818" xlink:href="#mbfffd0918b" y="206.473955"/>
     <use style="fill:#800000;stroke:#800000;" x="349.789091" xlink:href="#mbfffd0918b" y="204.635977"/>
     <use style="fill:#800000;stroke:#800000;" x="353.396364" xlink:href="#mbfffd0918b" y="204.229883"/>
     <use style="fill:#800000;stroke:#800000;" x="357.003636" xlink:href="#mbfffd0918b" y="211.142775"/>
     <use style="fill:#800000;stroke:#800000;" x="360.610909" xlink:href="#mbfffd0918b" y="210.732459"/>
     <use style="fill:#800000;stroke:#800000;" x="364.218182" xlink:href="#mbfffd0918b" y="210.625237"/>
     <use style="fill:#800000;stroke:#800000;" x="367.825455" xlink:href="#mbfffd0918b" y="213.664613"/>
     <use style="fill:#800000;stroke:#800000;" x="371.432727" xlink:href="#mbfffd0918b" y="211.541271"/>
     <use style="fill:#800000;stroke:#800000;" x="375.04" xlink:href="#mbfffd0918b" y="213.613957"/>
     <use style="fill:#800000;stroke:#800000;" x="378.647273" xlink:href="#mbfffd0918b" y="214.17793"/>
     <use style="fill:#800000;stroke:#800000;" x="382.254545" xlink:href="#mbfffd0918b" y="212.467437"/>
     <use style="fill:#800000;stroke:#800000;" x="385.861818" xlink:href="#mbfffd0918b" y="217.007927"/>
     <use style="fill:#800000;stroke:#800000;" x="389.469091" xlink:href="#mbfffd0918b" y="216.129885"/>
     <use style="fill:#800000;stroke:#800000;" x="393.076364" xlink:href="#mbfffd0918b" y="215.705217"/>
     <use style="fill:#800000;stroke:#800000;" x="396.683636" xlink:href="#mbfffd0918b" y="218.958194"/>
     <use style="fill:#800000;stroke:#800000;" x="400.290909" xlink:href="#mbfffd0918b" y="218.982677"/>
     <use style="fill:#800000;stroke:#800000;" x="403.898182" xlink:href="#mbfffd0918b" y="222.471206"/>
     <use style="fill:#800000;stroke:#800000;" x="407.505455" xlink:href="#mbfffd0918b" y="221.062117"/>
     <use style="fill:#800000;stroke:#800000;" x="411.112727" xlink:href="#mbfffd0918b" y="222.75066"/>
     <use style="fill:#800000;stroke:#800000;" x="414.72" xlink:href="#mbfffd0918b" y="222.1774"/>
    </g>
   </g>
   <g id="patch_3">
    <path d="M 57.6 307.584 
L 57.6 41.472 
" style="fill:none;stroke:#000000;stroke-linecap:square;stroke-linejoin:miter;stroke-width:0.8;"/>
   </g>
   <g id="patch_4">
    <path d="M 414.72 307.584 
L 414.72 41.472 
" style="fill:none;stroke:#000000;stroke-linecap:square;stroke-linejoin:miter;stroke-width:0.8;"/>
   </g>
   <g id="patch_5">
    <path d="M 57.6 307.584 
L 414.72 307.584 
" style="fill:none;stroke:#000000;stroke-linecap:square;stroke-linejoin:miter;stroke-width:0.8;"/>
   </g>
   <g id="patch_6">
    <path d="M 57.6 41.472 
L 414.72 41.472 
" style="fill:none;stroke:#000000;stroke-linecap:square;stroke-linejoin:miter;stroke-width:0.8;"/>
   </g>
   <g id="text_15">
    <!-- Test -->
    <defs>
     <path d="M -0.296875 72.90625 
L 61.375 72.90625 
L 61.375 64.59375 
L 35.5 64.59375 
L 35.5 0 
L 25.59375 0 
L 25.59375 64.59375 
L -0.296875 64.59375 
z
" id="DejaVuSans-54"/>
    </defs>
    <g transform="translate(223.341563 35.472)scale(0.12 -0.12)">
     <use xlink:href="#DejaVuSans-54"/>
     <use x="60.818359" xlink:href="#DejaVuSans-65"/>
     <use x="122.341797" xlink:href="#DejaVuSans-73"/>
     <use x="174.441406" xlink:href="#DejaVuSans-74"/>
    </g>
   </g>
   <g id="legend_1">
    <g id="patch_7">
     <path d="M 64.6 108.1845 
L 102.9625 108.1845 
Q 104.9625 108.1845 104.9625 106.1845 
L 104.9625 48.472 
Q 104.9625 46.472 102.9625 46.472 
L 64.6 46.472 
Q 62.6 46.472 62.6 48.472 
L 62.6 106.1845 
Q 62.6 108.1845 64.6 108.1845 
z
" style="fill:#ffffff;opacity:0.8;stroke:#cccccc;stroke-linejoin:miter;"/>
    </g>
    <g id="line2d_29">
     <path d="M 66.6 54.570438 
L 86.6 54.570438 
" style="fill:none;stroke:#000080;stroke-linecap:square;"/>
    </g>
    <g id="line2d_30">
     <g>
      <use style="fill:#000080;stroke:#000080;" x="76.6" xlink:href="#m9d489cd91f" y="54.570438"/>
     </g>
    </g>
    <g id="text_16">
     <!-- 1 -->
     <g transform="translate(94.6 58.070438)scale(0.1 -0.1)">
      <use xlink:href="#DejaVuSans-31"/>
     </g>
    </g>
    <g id="line2d_31">
     <path d="M 66.6 69.248563 
L 86.6 69.248563 
" style="fill:none;stroke:#00d4ff;stroke-linecap:square;"/>
    </g>
    <g id="line2d_32">
     <g>
      <use style="fill:#00d4ff;stroke:#00d4ff;" x="76.6" xlink:href="#meebf6596bf" y="69.248563"/>
     </g>
    </g>
    <g id="text_17">
     <!-- 2 -->
     <g transform="translate(94.6 72.748563)scale(0.1 -0.1)">
      <use xlink:href="#DejaVuSans-32"/>
     </g>
    </g>
    <g id="line2d_33">
     <path d="M 66.6 83.926688 
L 86.6 83.926688 
" style="fill:none;stroke:#ffe600;stroke-linecap:square;"/>
    </g>
    <g id="line2d_34">
     <g>
      <use style="fill:#ffe600;stroke:#ffe600;" x="76.6" xlink:href="#m77be9dd76b" y="83.926688"/>
     </g>
    </g>
    <g id="text_18">
     <!-- 4 -->
     <g transform="translate(94.6 87.426688)scale(0.1 -0.1)">
      <use xlink:href="#DejaVuSans-34"/>
     </g>
    </g>
    <g id="line2d_35">
     <path d="M 66.6 98.604813 
L 86.6 98.604813 
" style="fill:none;stroke:#800000;stroke-linecap:square;"/>
    </g>
    <g id="line2d_36">
     <g>
      <use style="fill:#800000;stroke:#800000;" x="76.6" xlink:href="#mbfffd0918b" y="98.604813"/>
     </g>
    </g>
    <g id="text_19">
     <!-- 8 -->
     <g transform="translate(94.6 102.104813)scale(0.1 -0.1)">
      <use xlink:href="#DejaVuSans-38"/>
     </g>
    </g>
   </g>
  </g>
 </g>
 <defs>
  <clipPath id="p23f6216137">
   <rect height="266.112" width="357.12" x="57.6" y="41.472"/>
  </clipPath>
 </defs>
</svg>
