<?xml version="1.0" encoding="utf-8" standalone="no"?>
<!DOCTYPE svg PUBLIC "-//W3C//DTD SVG 1.1//EN"
  "http://www.w3.org/Graphics/SVG/1.1/DTD/svg11.dtd">
<!-- Created with matplotlib (http://matplotlib.org/) -->
<svg height="345pt" version="1.1" viewBox="0 0 460 345" width="460pt" xmlns="http://www.w3.org/2000/svg" xmlns:xlink="http://www.w3.org/1999/xlink">
 <defs>
  <style type="text/css">
*{stroke-linecap:butt;stroke-linejoin:round;}
  </style>
 </defs>
 <g id="figure_1">
  <g id="patch_1">
   <path d="M 0 345.6 
L 460.8 345.6 
L 460.8 0 
L 0 0 
z
" style="fill:#ffffff;"/>
  </g>
  <g id="axes_1">
   <g id="patch_2">
    <path d="M 57.6 307.584 
L 414.72 307.584 
L 414.72 41.472 
L 57.6 41.472 
z
" style="fill:#ffffff;"/>
   </g>
   <g id="PolyCollection_1">
    <defs>
     <path d="M 73.832727 -50.112653 
L 73.832727 -50.112 
L 74.157382 -50.112053 
L 74.482036 -50.113159 
L 74.806691 -50.113911 
L 75.131345 -50.115477 
L 75.456 -50.11695 
L 75.780655 -50.118961 
L 76.105309 -50.122175 
L 76.429964 -50.125506 
L 76.754618 -50.129385 
L 77.079273 -50.13471 
L 77.403927 -50.141704 
L 77.728582 -50.148707 
L 78.053236 -50.157137 
L 78.377891 -50.171158 
L 78.702545 -50.184112 
L 79.0272 -50.199042 
L 79.351855 -50.227621 
L 79.676509 -50.253652 
L 80.001164 -50.291516 
L 80.325818 -50.325599 
L 80.650473 -50.385387 
L 80.975127 -50.459838 
L 81.299782 -50.56171 
L 81.624436 -50.7191 
L 81.949091 -50.79228 
L 82.273745 -50.896675 
L 82.5984 -51.187484 
L 82.923055 -51.411718 
L 83.247709 -51.764559 
L 83.572364 -52.390116 
L 83.897018 -52.632559 
L 84.221673 -53.351105 
L 84.546327 -54.065272 
L 84.870982 -54.905745 
L 85.195636 -56.40392 
L 85.520291 -58.386524 
L 85.844945 -59.996139 
L 86.1696 -61.800101 
L 86.494255 -64.584812 
L 86.818909 -67.594402 
L 87.143564 -73.11938 
L 87.468218 -80.294923 
L 87.792873 -87.277864 
L 88.117527 -97.240691 
L 88.442182 -104.951659 
L 88.766836 -121.85797 
L 89.091491 -141.459159 
L 89.416145 -165.985335 
L 89.7408 -191.07532 
L 90.065455 -208.458736 
L 90.390109 -226.566934 
L 90.714764 -236.807271 
L 91.039418 -247.452024 
L 91.364073 -254.367634 
L 91.688727 -262.056106 
L 92.013382 -51.482338 
L 92.338036 -51.54424 
L 92.662691 -51.698742 
L 92.987345 -51.969469 
L 93.312 -52.147406 
L 93.636655 -52.297239 
L 93.961309 -52.935522 
L 94.285964 -52.912094 
L 94.610618 -53.364092 
L 94.935273 -53.751156 
L 95.259927 -54.360502 
L 95.584582 -54.274787 
L 95.909236 -55.112161 
L 96.233891 -55.205544 
L 96.558545 -56.017803 
L 96.8832 -57.35739 
L 97.207855 -57.712262 
L 97.532509 -58.982545 
L 97.857164 -59.429578 
L 98.181818 -61.13875 
L 98.506473 -61.700031 
L 98.831127 -62.782895 
L 99.155782 -65.856779 
L 99.480436 -68.083881 
L 99.805091 -68.278101 
L 100.129745 -72.256567 
L 100.4544 -73.805656 
L 100.779055 -76.632467 
L 101.103709 -81.050338 
L 101.428364 -83.617851 
L 101.753018 -87.782086 
L 102.077673 -90.779064 
L 102.402327 -96.464394 
L 102.726982 -100.572972 
L 103.051636 -108.441115 
L 103.376291 -116.245045 
L 103.700945 -124.858565 
L 104.0256 -127.405066 
L 104.350255 -141.479882 
L 104.674909 -151.234499 
L 104.999564 -164.636531 
L 105.324218 -178.624017 
L 105.648873 -192.801139 
L 105.973527 -199.350595 
L 106.298182 -208.57185 
L 106.622836 -216.106103 
L 106.947491 -224.603063 
L 107.272145 -229.25223 
L 107.5968 -236.652168 
L 107.921455 -242.541984 
L 108.246109 -245.62649 
L 108.570764 -253.30509 
L 108.895418 -255.591776 
L 109.220073 -256.320987 
L 109.544727 -259.391468 
L 109.869382 -264.536677 
L 110.194036 -267.16293 
L 110.518691 -270.177788 
L 110.843345 -273.264041 
L 111.168 -272.388205 
L 111.492655 -63.935215 
L 111.817309 -64.666773 
L 112.141964 -66.862475 
L 112.466618 -68.282101 
L 112.791273 -69.321586 
L 113.115927 -69.135272 
L 113.440582 -72.924083 
L 113.765236 -73.056455 
L 114.089891 -76.601053 
L 114.414545 -77.317051 
L 114.7392 -77.692041 
L 115.063855 -79.267569 
L 115.388509 -83.221137 
L 115.713164 -86.161376 
L 116.037818 -89.556926 
L 116.362473 -92.903786 
L 116.687127 -93.824974 
L 117.011782 -101.702167 
L 117.336436 -103.612505 
L 117.661091 -107.818668 
L 117.985745 -113.982165 
L 118.3104 -118.999061 
L 118.635055 -120.693858 
L 118.959709 -125.675792 
L 119.284364 -136.121569 
L 119.609018 -145.158447 
L 119.933673 -148.305567 
L 120.258327 -158.955709 
L 120.582982 -162.46397 
L 120.907636 -171.618945 
L 121.232291 -180.952194 
L 121.556945 -189.274399 
L 121.8816 -194.322907 
L 122.206255 -201.853573 
L 122.530909 -205.683704 
L 122.855564 -209.097281 
L 123.180218 -215.413575 
L 123.504873 -223.45138 
L 123.829527 -228.085188 
L 124.154182 -229.47014 
L 124.478836 -237.546194 
L 124.803491 -239.810059 
L 125.128145 -244.895826 
L 125.4528 -242.616803 
L 125.777455 -249.594663 
L 126.102109 -251.734744 
L 126.426764 -254.643258 
L 126.751418 -258.956858 
L 127.076073 -262.13516 
L 127.400727 -258.648853 
L 127.725382 -262.029955 
L 128.050036 -265.87397 
L 128.374691 -266.345239 
L 128.699345 -270.411089 
L 129.024 -272.668513 
L 129.348655 -272.032287 
L 129.673309 -272.69534 
L 129.997964 -273.936544 
L 130.322618 -276.24767 
L 130.647273 -274.586395 
L 130.971927 -95.952747 
L 131.296582 -98.352706 
L 131.621236 -102.053573 
L 131.945891 -102.535562 
L 132.270545 -105.710247 
L 132.5952 -113.141407 
L 132.919855 -113.735448 
L 133.244509 -116.896854 
L 133.569164 -121.758203 
L 133.893818 -123.941419 
L 134.218473 -132.192873 
L 134.543127 -134.241692 
L 134.867782 -141.668506 
L 135.192436 -148.475912 
L 135.517091 -154.93223 
L 135.841745 -154.338198 
L 136.1664 -164.36538 
L 136.491055 -175.280797 
L 136.815709 -176.6927 
L 137.140364 -180.567695 
L 137.465018 -188.529435 
L 137.789673 -192.548733 
L 138.114327 -199.066231 
L 138.438982 -202.153239 
L 138.763636 -202.687363 
L 139.088291 -211.97689 
L 139.412945 -215.716205 
L 139.7376 -219.107403 
L 140.062255 -225.576847 
L 140.386909 -226.917652 
L 140.711564 -229.304295 
L 141.036218 -229.798575 
L 141.360873 -234.15189 
L 141.685527 -237.915356 
L 142.010182 -238.411647 
L 142.334836 -243.032276 
L 142.659491 -247.049717 
L 142.984145 -252.755881 
L 143.3088 -247.628973 
L 143.633455 -253.480168 
L 143.958109 -255.929734 
L 144.282764 -256.648219 
L 144.607418 -257.07078 
L 144.932073 -259.308134 
L 145.256727 -262.029349 
L 145.581382 -262.285874 
L 145.906036 -262.066824 
L 146.230691 -266.315492 
L 146.555345 -267.775709 
L 146.88 -265.500034 
L 147.204655 -269.867765 
L 147.529309 -268.453678 
L 147.853964 -273.207644 
L 148.178618 -273.447819 
L 148.503273 -270.335318 
L 148.827927 -271.527046 
L 149.152582 -275.732662 
L 149.477236 -277.006032 
L 149.801891 -275.135953 
L 150.126545 -276.559737 
L 150.4512 -144.087227 
L 150.775855 -148.539883 
L 151.100509 -157.877297 
L 151.425164 -154.962752 
L 151.749818 -162.184936 
L 152.074473 -175.661202 
L 152.399127 -172.906153 
L 152.723782 -181.092358 
L 153.048436 -188.249302 
L 153.373091 -181.808088 
L 153.697745 -197.108269 
L 154.0224 -193.77422 
L 154.347055 -199.388011 
L 154.671709 -201.112484 
L 154.996364 -208.675751 
L 155.321018 -211.648832 
L 155.645673 -213.112157 
L 155.970327 -217.158062 
L 156.294982 -216.092779 
L 156.619636 -220.256701 
L 156.944291 -222.875346 
L 157.268945 -229.573656 
L 157.5936 -232.055637 
L 157.918255 -230.861488 
L 158.242909 -236.0561 
L 158.567564 -236.918641 
L 158.892218 -240.91645 
L 159.216873 -243.140968 
L 159.541527 -243.516799 
L 159.866182 -246.219811 
L 160.190836 -248.196948 
L 160.515491 -254.387605 
L 160.840145 -252.221723 
L 161.1648 -250.461016 
L 161.489455 -255.701023 
L 161.814109 -254.232515 
L 162.138764 -259.168911 
L 162.463418 -257.932606 
L 162.788073 -259.957662 
L 163.112727 -260.266832 
L 163.437382 -263.593603 
L 163.762036 -265.716696 
L 164.086691 -266.283357 
L 164.411345 -265.255444 
L 164.736 -267.884406 
L 165.060655 -266.101664 
L 165.385309 -271.648039 
L 165.709964 -266.903665 
L 166.034618 -269.153276 
L 166.359273 -270.186455 
L 166.683927 -270.463641 
L 167.008582 -273.88896 
L 167.333236 -272.893051 
L 167.657891 -275.430676 
L 167.982545 -276.960529 
L 168.3072 -274.637795 
L 168.631855 -275.759973 
L 168.956509 -275.830963 
L 169.281164 -275.032466 
L 169.605818 -274.933915 
L 169.930473 -277.009539 
L 170.255127 -280.375561 
L 170.579782 -278.529766 
L 170.904436 -277.324428 
L 171.229091 -279.166154 
L 171.553745 -278.330068 
L 171.8784 -279.543016 
L 172.203055 -279.451584 
L 172.527709 -278.776542 
L 172.852364 -279.10125 
L 173.177018 -220.587546 
L 173.501673 -225.683857 
L 173.826327 -226.688945 
L 174.150982 -232.131202 
L 174.475636 -233.901625 
L 174.800291 -243.068485 
L 175.124945 -234.48519 
L 175.4496 -238.894193 
L 175.774255 -242.74877 
L 176.098909 -239.772059 
L 176.423564 -245.993619 
L 176.748218 -244.543114 
L 177.072873 -248.787332 
L 177.397527 -246.295487 
L 177.722182 -249.056814 
L 178.046836 -254.648701 
L 178.371491 -252.602898 
L 178.696145 -254.024366 
L 179.0208 -255.190328 
L 179.345455 -254.965736 
L 179.670109 -258.081498 
L 179.994764 -257.766558 
L 180.319418 -258.437089 
L 180.644073 -260.623371 
L 180.968727 -257.947147 
L 181.293382 -259.241849 
L 181.618036 -260.074415 
L 181.942691 -264.551942 
L 182.267345 -264.178129 
L 182.592 -265.426975 
L 182.916655 -268.810608 
L 183.241309 -267.542225 
L 183.565964 -268.386031 
L 183.890618 -267.882732 
L 184.215273 -268.280376 
L 184.539927 -268.53344 
L 184.864582 -270.880748 
L 185.189236 -271.295054 
L 185.513891 -273.203756 
L 185.838545 -272.398582 
L 186.1632 -274.092591 
L 186.487855 -273.865086 
L 186.812509 -270.291318 
L 187.137164 -275.197017 
L 187.461818 -276.497582 
L 187.786473 -275.041566 
L 188.111127 -276.240065 
L 188.435782 -276.807954 
L 188.760436 -278.324348 
L 189.085091 -278.172258 
L 189.409745 -228.441725 
L 189.7344 -219.724983 
L 190.059055 -228.2749 
L 190.383709 -224.727368 
L 190.708364 -227.775432 
L 191.033018 -231.989825 
L 191.357673 -231.485934 
L 191.682327 -237.07923 
L 192.006982 -235.351737 
L 192.331636 -237.749536 
L 192.656291 -233.243353 
L 192.980945 -244.563412 
L 193.3056 -241.593216 
L 193.630255 -244.005242 
L 193.954909 -244.72102 
L 194.279564 -245.723195 
L 194.604218 -252.193843 
L 194.928873 -249.786451 
L 195.253527 -250.165811 
L 195.578182 -248.105768 
L 195.902836 -251.934273 
L 196.227491 -253.307958 
L 196.552145 -251.239136 
L 196.8768 -255.245921 
L 197.201455 -254.493522 
L 197.526109 -261.005205 
L 197.850764 -258.52236 
L 198.175418 -254.663315 
L 198.500073 -260.696674 
L 198.824727 -259.154278 
L 199.149382 -260.996413 
L 199.474036 -264.119822 
L 199.798691 -263.192599 
L 200.123345 -267.229518 
L 200.448 -265.758148 
L 200.772655 -265.576395 
L 201.097309 -266.936609 
L 201.421964 -266.198567 
L 201.746618 -267.674131 
L 202.071273 -270.086957 
L 202.395927 -268.734444 
L 202.720582 -269.764069 
L 203.045236 -271.809123 
L 203.369891 -268.011703 
L 203.694545 -269.574663 
L 204.0192 -270.584314 
L 204.343855 -271.935612 
L 204.668509 -270.972897 
L 204.993164 -272.159096 
L 205.317818 -275.475476 
L 205.642473 -275.004749 
L 205.967127 -273.245695 
L 206.291782 -274.219041 
L 206.616436 -275.463861 
L 206.941091 -276.679337 
L 207.265745 -276.803554 
L 207.5904 -275.023979 
L 207.915055 -278.629225 
L 208.239709 -277.39494 
L 208.564364 -277.028885 
L 208.889018 -278.077036 
L 209.213673 -277.713665 
L 209.538327 -280.752046 
L 209.862982 -281.171107 
L 210.187636 -279.548777 
L 210.512291 -279.846563 
L 210.836945 -280.844894 
L 211.1616 -280.084863 
L 211.486255 -280.907382 
L 211.810909 -280.352407 
L 212.135564 -247.171767 
L 212.460218 -252.636591 
L 212.784873 -250.455583 
L 213.109527 -250.220741 
L 213.434182 -249.642539 
L 213.758836 -250.155936 
L 214.083491 -254.189675 
L 214.408145 -254.734625 
L 214.7328 -256.355128 
L 215.057455 -254.952883 
L 215.382109 -257.035269 
L 215.706764 -260.034511 
L 216.031418 -259.630927 
L 216.356073 -259.108269 
L 216.680727 -261.573063 
L 217.005382 -262.098057 
L 217.330036 -265.170347 
L 217.654691 -264.477512 
L 217.979345 -264.25338 
L 218.304 -263.997154 
L 218.628655 -265.844978 
L 218.953309 -264.058023 
L 219.277964 -266.2985 
L 219.602618 -267.807038 
L 219.927273 -266.686857 
L 220.251927 -270.061319 
L 220.576582 -269.679055 
L 220.901236 -272.102508 
L 221.225891 -268.660662 
L 221.550545 -269.69229 
L 221.8752 -268.885633 
L 222.199855 -268.686702 
L 222.524509 -271.379012 
L 222.849164 -273.828701 
L 223.173818 -273.692323 
L 223.498473 -273.637993 
L 223.823127 -272.787385 
L 224.147782 -272.859377 
L 224.472436 -276.614273 
L 224.797091 -275.519014 
L 225.121745 -276.962073 
L 225.4464 -276.800702 
L 225.771055 -274.491629 
L 226.095709 -276.632192 
L 226.420364 -277.654927 
L 226.745018 -275.127714 
L 227.069673 -276.385789 
L 227.394327 -279.24225 
L 227.718982 -278.17669 
L 228.043636 -277.252371 
L 228.368291 -243.045212 
L 228.692945 -248.037553 
L 229.0176 -246.979713 
L 229.342255 -247.606886 
L 229.666909 -246.831483 
L 229.991564 -253.195959 
L 230.316218 -250.165514 
L 230.640873 -252.636979 
L 230.965527 -254.292693 
L 231.290182 -251.821422 
L 231.614836 -253.387076 
L 231.939491 -252.223464 
L 232.264145 -254.467329 
L 232.5888 -257.165529 
L 232.913455 -257.296962 
L 233.238109 -256.850037 
L 233.562764 -258.296095 
L 233.887418 -258.619665 
L 234.212073 -258.329654 
L 234.536727 -260.565233 
L 234.861382 -263.631363 
L 235.186036 -260.087181 
L 235.510691 -261.124321 
L 235.835345 -263.335555 
L 236.16 -264.038153 
L 236.484655 -265.249146 
L 236.809309 -267.564275 
L 237.133964 -263.568438 
L 237.458618 -267.75194 
L 237.783273 -268.485939 
L 238.107927 -266.961 
L 238.432582 -268.351394 
L 238.757236 -269.895363 
L 239.081891 -268.457451 
L 239.406545 -269.505597 
L 239.7312 -269.219011 
L 240.055855 -271.172152 
L 240.380509 -272.468454 
L 240.705164 -268.956942 
L 241.029818 -273.063951 
L 241.354473 -271.803396 
L 241.679127 -270.757936 
L 242.003782 -273.872946 
L 242.328436 -274.374144 
L 242.653091 -274.781313 
L 242.977745 -275.826045 
L 243.3024 -273.046183 
L 243.627055 -271.85012 
L 243.951709 -273.496703 
L 244.276364 -276.420989 
L 244.601018 -276.738441 
L 244.925673 -276.680486 
L 245.250327 -277.016489 
L 245.574982 -277.437026 
L 245.899636 -274.80058 
L 246.224291 -276.757602 
L 246.548945 -276.280245 
L 246.8736 -278.050536 
L 247.198255 -277.108233 
L 247.522909 -278.841132 
L 247.847564 -278.993164 
L 248.172218 -279.47497 
L 248.496873 -280.303701 
L 248.821527 -279.618159 
L 249.146182 -278.257327 
L 249.470836 -280.779729 
L 249.795491 -278.314064 
L 250.120145 -280.511123 
L 250.4448 -278.676346 
L 250.769455 -280.314602 
L 251.094109 -261.998634 
L 251.418764 -258.501366 
L 251.743418 -256.883372 
L 252.068073 -261.004078 
L 252.392727 -259.733359 
L 252.717382 -262.135635 
L 253.042036 -263.383408 
L 253.366691 -259.794749 
L 253.691345 -262.122694 
L 254.016 -261.963823 
L 254.340655 -264.780795 
L 254.665309 -265.191895 
L 254.989964 -266.213752 
L 255.314618 -263.768945 
L 255.639273 -266.584876 
L 255.963927 -267.665699 
L 256.288582 -266.526468 
L 256.613236 -271.342695 
L 256.937891 -266.000298 
L 257.262545 -270.280209 
L 257.5872 -269.542717 
L 257.911855 -269.314433 
L 258.236509 -269.628377 
L 258.561164 -272.172581 
L 258.885818 -270.699094 
L 259.210473 -271.357643 
L 259.535127 -272.146398 
L 259.859782 -272.467028 
L 260.184436 -272.721498 
L 260.509091 -274.839784 
L 260.833745 -272.300695 
L 261.1584 -271.910998 
L 261.483055 -273.192068 
L 261.807709 -275.985794 
L 262.132364 -272.950188 
L 262.457018 -274.245452 
L 262.781673 -271.686596 
L 263.106327 -275.701581 
L 263.430982 -274.399369 
L 263.755636 -276.856091 
L 264.080291 -275.579287 
L 264.404945 -278.409744 
L 264.7296 -277.063255 
L 265.054255 -276.209065 
L 265.378909 -277.087156 
L 265.703564 -278.668459 
L 266.028218 -278.234833 
L 266.352873 -277.981925 
L 266.677527 -278.972613 
L 267.002182 -278.613471 
L 267.326836 -278.040744 
L 267.651491 -282.584071 
L 267.976145 -280.150251 
L 268.3008 -278.625152 
L 268.625455 -278.727697 
L 268.950109 -280.926575 
L 269.274764 -281.262095 
L 269.599418 -279.779913 
L 269.924073 -279.036931 
L 270.248727 -279.850441 
L 270.573382 -279.141555 
L 270.898036 -280.609721 
L 271.222691 -280.802676 
L 271.547345 -279.867971 
L 271.872 -280.800881 
L 272.196655 -281.909594 
L 272.521309 -281.333044 
L 272.845964 -282.614893 
L 273.170618 -282.675429 
L 273.495273 -282.151233 
L 273.819927 -279.757925 
L 274.144582 -280.736682 
L 274.469236 -279.860304 
L 274.793891 -282.372808 
L 275.118545 -281.664403 
L 275.4432 -281.385996 
L 275.767855 -281.886695 
L 276.092509 -279.830345 
L 276.417164 -282.751855 
L 276.741818 -282.751856 
L 277.066473 -283.716494 
L 277.391127 -282.134038 
L 277.715782 -283.4085 
L 278.040436 -282.161865 
L 278.365091 -280.761614 
L 278.689745 -283.248678 
L 279.0144 -281.633468 
L 279.339055 -284.851488 
L 279.663709 -281.510798 
L 279.988364 -280.704985 
L 280.313018 -282.895251 
L 280.637673 -281.185773 
L 280.962327 -282.179708 
L 281.286982 -280.557602 
L 281.611636 -283.588244 
L 281.936291 -281.410254 
L 282.260945 -283.906746 
L 282.5856 -282.385405 
L 282.910255 -284.457468 
L 283.234909 -284.93837 
L 283.559564 -283.939212 
L 283.884218 -285.038886 
L 284.208873 -283.763043 
L 284.533527 -283.683481 
L 284.858182 -284.016332 
L 285.182836 -283.395437 
L 285.507491 -283.95858 
L 285.832145 -283.060059 
L 286.1568 -283.763506 
L 286.481455 -283.639441 
L 286.806109 -282.586201 
L 287.130764 -282.421927 
L 287.455418 -285.633421 
L 287.780073 -284.741271 
L 288.104727 -285.697534 
L 288.429382 -283.298566 
L 288.754036 -283.703102 
L 289.078691 -283.56437 
L 289.403345 -285.002888 
L 289.728 -283.521858 
L 290.052655 -285.569585 
L 290.377309 -284.279199 
L 290.701964 -284.055276 
L 291.026618 -284.390719 
L 291.351273 -285.569986 
L 291.675927 -284.009294 
L 292.000582 -284.727671 
L 292.325236 -283.361019 
L 292.649891 -285.41901 
L 292.974545 -284.843075 
L 293.2992 -285.512273 
L 293.623855 -285.35529 
L 293.948509 -283.65015 
L 294.273164 -284.337354 
L 294.597818 -283.712287 
L 294.922473 -286.505436 
L 295.247127 -285.395814 
L 295.571782 -286.713406 
L 295.896436 -288.489937 
L 296.221091 -286.444216 
L 296.545745 -286.480081 
L 296.8704 -285.685428 
L 297.195055 -285.002649 
L 297.519709 -285.293795 
L 297.844364 -284.445973 
L 298.169018 -285.118172 
L 298.493673 -285.908873 
L 298.818327 -286.381197 
L 299.142982 -286.518182 
L 299.467636 -287.06825 
L 299.792291 -286.637966 
L 300.116945 -285.788292 
L 300.4416 -287.127116 
L 300.766255 -286.870137 
L 301.090909 -286.913483 
L 301.415564 -286.682313 
L 301.740218 -287.101143 
L 302.064873 -285.842401 
L 302.389527 -285.517188 
L 302.714182 -286.915167 
L 303.038836 -286.56003 
L 303.363491 -286.897721 
L 303.688145 -285.489299 
L 304.0128 -287.388417 
L 304.337455 -287.818306 
L 304.662109 -287.124053 
L 304.986764 -287.243058 
L 305.311418 -287.603134 
L 305.636073 -286.58941 
L 305.960727 -286.619884 
L 306.285382 -286.950942 
L 306.610036 -284.760713 
L 306.934691 -285.800703 
L 307.259345 -285.975362 
L 307.584 -285.810559 
L 307.908655 -287.144641 
L 308.233309 -286.941206 
L 308.557964 -288.131102 
L 308.882618 -287.166505 
L 309.207273 -285.960844 
L 309.531927 -287.191985 
L 309.856582 -287.462168 
L 310.181236 -287.887427 
L 310.505891 -286.843903 
L 310.830545 -286.698501 
L 311.1552 -287.672444 
L 311.479855 -285.93494 
L 311.804509 -286.598595 
L 312.129164 -286.740951 
L 312.453818 -285.46407 
L 312.778473 -285.158264 
L 313.103127 -284.046349 
L 313.427782 -288.106713 
L 313.752436 -287.484405 
L 314.077091 -287.796619 
L 314.401745 -284.970394 
L 314.7264 -285.926901 
L 315.051055 -287.556282 
L 315.375709 -285.619246 
L 315.700364 -286.11034 
L 316.025018 -288.100605 
L 316.349673 -286.726732 
L 316.674327 -288.395972 
L 316.998982 -288.721215 
L 317.323636 -287.195761 
L 317.648291 -287.781126 
L 317.972945 -286.94659 
L 318.2976 -285.887396 
L 318.622255 -286.830163 
L 318.946909 -287.761341 
L 319.271564 -285.747004 
L 319.596218 -286.398102 
L 319.920873 -286.58645 
L 320.245527 -287.602369 
L 320.570182 -288.071464 
L 320.894836 -285.636606 
L 321.219491 -286.970597 
L 321.544145 -285.544586 
L 321.8688 -285.987793 
L 322.193455 -287.05622 
L 322.518109 -288.523908 
L 322.842764 -287.244375 
L 323.167418 -286.400536 
L 323.492073 -287.712259 
L 323.816727 -288.240595 
L 324.141382 -288.661475 
L 324.466036 -289.133401 
L 324.790691 -287.690855 
L 325.115345 -287.429424 
L 325.44 -287.211908 
L 325.764655 -288.442561 
L 326.089309 -288.867164 
L 326.413964 -288.423399 
L 326.738618 -288.732409 
L 327.063273 -286.721302 
L 327.387927 -287.015793 
L 327.712582 -288.313579 
L 328.037236 -289.490628 
L 328.361891 -288.652201 
L 328.686545 -288.166301 
L 329.0112 -286.962699 
L 329.335855 -285.454708 
L 329.660509 -287.482219 
L 329.985164 -288.128026 
L 330.309818 -288.628826 
L 330.634473 -288.237056 
L 330.959127 -289.085791 
L 331.283782 -286.956535 
L 331.608436 -288.85005 
L 331.933091 -289.310429 
L 332.257745 -289.047147 
L 332.5824 -286.195678 
L 332.907055 -287.790112 
L 333.231709 -288.083657 
L 333.556364 -287.125484 
L 333.881018 -287.45837 
L 334.205673 -288.233848 
L 334.530327 -287.618355 
L 334.854982 -287.646096 
L 335.179636 -288.156813 
L 335.504291 -286.594658 
L 335.828945 -287.00649 
L 336.1536 -288.629296 
L 336.478255 -287.745271 
L 336.802909 -289.876762 
L 337.127564 -289.249883 
L 337.452218 -286.54385 
L 337.776873 -289.151981 
L 338.101527 -288.081901 
L 338.426182 -288.004973 
L 338.750836 -286.46801 
L 339.075491 -287.103226 
L 339.400145 -285.536588 
L 339.7248 -288.329377 
L 340.049455 -287.151461 
L 340.374109 -288.461081 
L 340.698764 -287.826072 
L 341.023418 -289.202045 
L 341.348073 -286.997526 
L 341.672727 -288.287426 
L 341.997382 -287.017448 
L 342.322036 -289.204981 
L 342.646691 -287.430493 
L 342.971345 -287.966836 
L 343.296 -288.697109 
L 343.620655 -288.341406 
L 343.945309 -288.385429 
L 344.269964 -287.415346 
L 344.594618 -288.103593 
L 344.919273 -288.365076 
L 345.243927 -289.585814 
L 345.568582 -287.443457 
L 345.893236 -289.966122 
L 346.217891 -288.687313 
L 346.542545 -288.578086 
L 346.8672 -289.183495 
L 347.191855 -288.913901 
L 347.516509 -288.6067 
L 347.841164 -288.628087 
L 348.165818 -287.160143 
L 348.490473 -289.115441 
L 348.815127 -287.541866 
L 349.139782 -288.587424 
L 349.464436 -287.431899 
L 349.789091 -289.186223 
L 350.113745 -288.169911 
L 350.4384 -288.783479 
L 350.763055 -287.78641 
L 351.087709 -289.211064 
L 351.412364 -287.072976 
L 351.737018 -288.346195 
L 352.061673 -288.434334 
L 352.386327 -288.819135 
L 352.710982 -286.911641 
L 353.035636 -289.193262 
L 353.360291 -287.021073 
L 353.684945 -288.770608 
L 354.0096 -289.905442 
L 354.334255 -288.953708 
L 354.658909 -289.857964 
L 354.983564 -287.543176 
L 355.308218 -289.376323 
L 355.632873 -288.176515 
L 355.957527 -286.739581 
L 356.282182 -286.067518 
L 356.606836 -287.624963 
L 356.931491 -289.464816 
L 357.256145 -288.31431 
L 357.5808 -288.106033 
L 357.905455 -289.833269 
L 358.230109 -288.816745 
L 358.554764 -289.043365 
L 358.879418 -289.341531 
L 359.204073 -288.785894 
L 359.528727 -288.190007 
L 359.853382 -287.759406 
L 360.178036 -287.26913 
L 360.502691 -288.55152 
L 360.827345 -288.336848 
L 361.152 -288.251271 
L 361.476655 -288.13245 
L 361.801309 -289.477571 
L 362.125964 -289.084978 
L 362.450618 -287.010762 
L 362.775273 -287.87481 
L 363.099927 -289.348572 
L 363.424582 -290.363269 
L 363.749236 -289.988692 
L 364.073891 -288.495177 
L 364.398545 -290.474931 
L 364.7232 -289.544475 
L 365.047855 -289.042298 
L 365.372509 -288.939196 
L 365.697164 -287.105524 
L 366.021818 -288.645033 
L 366.346473 -288.877292 
L 366.671127 -288.754458 
L 366.995782 -288.43806 
L 367.320436 -287.223045 
L 367.645091 -287.536467 
L 367.969745 -288.745941 
L 368.2944 -288.133093 
L 368.619055 -287.774557 
L 368.943709 -287.266181 
L 369.268364 -289.904855 
L 369.593018 -289.326572 
L 369.917673 -288.811578 
L 370.242327 -289.012609 
L 370.566982 -289.339355 
L 370.891636 -289.791427 
L 371.216291 -287.683379 
L 371.540945 -288.764184 
L 371.8656 -287.14879 
L 372.190255 -289.340625 
L 372.514909 -289.056863 
L 372.839564 -288.704267 
L 373.164218 -288.143216 
L 373.488873 -288.909603 
L 373.813527 -288.897342 
L 374.138182 -288.468504 
L 374.462836 -287.898703 
L 374.787491 -289.1748 
L 375.112145 -289.008862 
L 375.4368 -287.520897 
L 375.761455 -289.603434 
L 376.086109 -289.433811 
L 376.410764 -288.097577 
L 376.735418 -289.500185 
L 377.060073 -288.471012 
L 377.384727 -288.941626 
L 377.709382 -288.307093 
L 378.034036 -289.370054 
L 378.358691 -288.166771 
L 378.683345 -289.15312 
L 379.008 -288.505536 
L 379.332655 -288.420374 
L 379.657309 -288.953741 
L 379.981964 -289.381949 
L 380.306618 -290.323591 
L 380.631273 -289.605025 
L 380.955927 -288.869869 
L 381.280582 -288.938339 
L 381.605236 -289.11207 
L 381.929891 -287.605026 
L 382.254545 -287.607042 
L 382.5792 -289.079018 
L 382.903855 -290.07528 
L 383.228509 -287.583444 
L 383.553164 -288.468958 
L 383.877818 -288.385036 
L 384.202473 -288.427939 
L 384.527127 -289.001892 
L 384.851782 -289.495906 
L 385.176436 -288.962535 
L 385.501091 -288.428357 
L 385.825745 -288.272407 
L 386.1504 -288.677094 
L 386.475055 -290.464445 
L 386.799709 -287.744917 
L 387.124364 -287.348127 
L 387.449018 -288.93578 
L 387.773673 -289.533131 
L 388.098327 -287.627353 
L 388.422982 -288.99803 
L 388.747636 -289.105442 
L 389.072291 -287.882138 
L 389.396945 -288.295334 
L 389.7216 -289.065773 
L 390.046255 -287.954005 
L 390.370909 -288.047784 
L 390.695564 -289.516968 
L 391.020218 -287.739244 
L 391.344873 -288.723408 
L 391.669527 -290.437471 
L 391.994182 -289.400282 
L 392.318836 -287.865109 
L 392.643491 -289.250188 
L 392.968145 -287.712228 
L 393.2928 -288.490426 
L 393.617455 -288.787399 
L 393.942109 -289.281989 
L 394.266764 -288.711353 
L 394.591418 -289.234127 
L 394.916073 -288.349259 
L 395.240727 -288.949011 
L 395.565382 -287.663062 
L 395.890036 -289.106095 
L 396.214691 -288.926396 
L 396.539345 -288.54712 
L 396.864 -289.956174 
L 397.188655 -288.554391 
L 397.513309 -287.600453 
L 397.837964 -287.491124 
L 398.162618 -288.564341 
L 398.487273 -288.137898 
L 398.487273 -290.766495 
L 398.487273 -290.766495 
L 398.162618 -291.451374 
L 397.837964 -290.759627 
L 397.513309 -290.998628 
L 397.188655 -291.199897 
L 396.864 -291.228911 
L 396.539345 -290.984711 
L 396.214691 -291.589198 
L 395.890036 -291.247883 
L 395.565382 -290.774547 
L 395.240727 -291.231115 
L 394.916073 -291.299244 
L 394.591418 -291.505755 
L 394.266764 -291.135136 
L 393.942109 -291.249791 
L 393.617455 -291.821792 
L 393.2928 -291.181537 
L 392.968145 -291.998753 
L 392.643491 -291.341999 
L 392.318836 -291.710076 
L 391.994182 -291.185354 
L 391.669527 -291.114827 
L 391.344873 -291.299244 
L 391.020218 -291.620855 
L 390.695564 -291.024446 
L 390.370909 -292.032 
L 390.046255 -290.852456 
L 389.7216 -291.786011 
L 389.396945 -291.560644 
L 389.072291 -291.13729 
L 388.747636 -291.356296 
L 388.422982 -291.287593 
L 388.098327 -291.610292 
L 387.773673 -291.399582 
L 387.449018 -291.437178 
L 387.124364 -290.746306 
L 386.799709 -291.684789 
L 386.475055 -291.083517 
L 386.1504 -290.839804 
L 385.825745 -291.268817 
L 385.501091 -291.180789 
L 385.176436 -290.844693 
L 384.851782 -291.388635 
L 384.527127 -291.151258 
L 384.202473 -291.479872 
L 383.877818 -291.701733 
L 383.553164 -291.100928 
L 383.228509 -291.27798 
L 382.903855 -291.23905 
L 382.5792 -290.632156 
L 382.254545 -290.899983 
L 381.929891 -290.890438 
L 381.605236 -291.331892 
L 381.280582 -291.6762 
L 380.955927 -291.172245 
L 380.631273 -291.058022 
L 380.306618 -291.019063 
L 379.981964 -291.452493 
L 379.657309 -291.177683 
L 379.332655 -290.977202 
L 379.008 -290.945125 
L 378.683345 -291.426783 
L 378.358691 -290.933922 
L 378.034036 -291.274207 
L 377.709382 -291.217705 
L 377.384727 -291.224916 
L 377.060073 -291.421625 
L 376.735418 -291.459456 
L 376.410764 -291.04281 
L 376.086109 -291.303999 
L 375.761455 -291.287177 
L 375.4368 -291.527097 
L 375.112145 -290.930935 
L 374.787491 -291.366758 
L 374.462836 -291.399109 
L 374.138182 -290.876661 
L 373.813527 -290.946593 
L 373.488873 -291.119216 
L 373.164218 -291.10946 
L 372.839564 -291.21472 
L 372.514909 -291.322598 
L 372.190255 -291.171501 
L 371.8656 -291.673037 
L 371.540945 -290.883981 
L 371.216291 -290.603935 
L 370.891636 -291.208967 
L 370.566982 -291.313432 
L 370.242327 -291.266365 
L 369.917673 -290.826905 
L 369.593018 -291.177605 
L 369.268364 -291.324307 
L 368.943709 -291.306068 
L 368.619055 -291.043128 
L 368.2944 -291.21212 
L 367.969745 -291.498398 
L 367.645091 -291.231216 
L 367.320436 -290.694116 
L 366.995782 -290.995259 
L 366.671127 -291.125365 
L 366.346473 -291.778097 
L 366.021818 -290.788094 
L 365.697164 -290.684176 
L 365.372509 -291.042269 
L 365.047855 -291.242119 
L 364.7232 -291.024589 
L 364.398545 -291.213548 
L 364.073891 -291.385947 
L 363.749236 -291.32506 
L 363.424582 -291.26938 
L 363.099927 -291.204259 
L 362.775273 -291.151747 
L 362.450618 -291.774552 
L 362.125964 -291.388225 
L 361.801309 -291.166112 
L 361.476655 -290.008807 
L 361.152 -290.708424 
L 360.827345 -291.311944 
L 360.502691 -290.885701 
L 360.178036 -291.375184 
L 359.853382 -291.112857 
L 359.528727 -291.431809 
L 359.204073 -291.284015 
L 358.879418 -291.412561 
L 358.554764 -291.233441 
L 358.230109 -291.505247 
L 357.905455 -291.084992 
L 357.5808 -291.289857 
L 357.256145 -290.786047 
L 356.931491 -291.219475 
L 356.606836 -290.760525 
L 356.282182 -291.181983 
L 355.957527 -290.976223 
L 355.632873 -290.963583 
L 355.308218 -291.18277 
L 354.983564 -290.211984 
L 354.658909 -291.250335 
L 354.334255 -291.333792 
L 354.0096 -291.273477 
L 353.684945 -291.068606 
L 353.360291 -290.965841 
L 353.035636 -291.408222 
L 352.710982 -290.235688 
L 352.386327 -290.813905 
L 352.061673 -291.38908 
L 351.737018 -291.421436 
L 351.412364 -290.545906 
L 351.087709 -291.040211 
L 350.763055 -290.562756 
L 350.4384 -290.868974 
L 350.113745 -290.743009 
L 349.789091 -291.307116 
L 349.464436 -291.166026 
L 349.139782 -291.347411 
L 348.815127 -291.537873 
L 348.490473 -291.429538 
L 348.165818 -289.704081 
L 347.841164 -291.190847 
L 347.516509 -291.245424 
L 347.191855 -291.41286 
L 346.8672 -291.482298 
L 346.542545 -291.248652 
L 346.217891 -290.523694 
L 345.893236 -291.325808 
L 345.568582 -291.892073 
L 345.243927 -291.368335 
L 344.919273 -291.17239 
L 344.594618 -291.332135 
L 344.269964 -291.519925 
L 343.945309 -290.981895 
L 343.620655 -290.868878 
L 343.296 -291.090755 
L 342.971345 -290.79203 
L 342.646691 -291.150235 
L 342.322036 -291.308012 
L 341.997382 -291.490396 
L 341.672727 -291.452073 
L 341.348073 -291.152353 
L 341.023418 -291.122404 
L 340.698764 -291.57136 
L 340.374109 -291.127593 
L 340.049455 -291.092932 
L 339.7248 -290.190606 
L 339.400145 -291.094966 
L 339.075491 -290.846741 
L 338.750836 -291.171249 
L 338.426182 -290.856018 
L 338.101527 -290.772827 
L 337.776873 -291.328063 
L 337.452218 -290.807968 
L 337.127564 -291.196874 
L 336.802909 -291.228646 
L 336.478255 -291.315006 
L 336.1536 -291.239111 
L 335.828945 -290.928014 
L 335.504291 -291.699159 
L 335.179636 -290.89065 
L 334.854982 -290.954864 
L 334.530327 -291.509363 
L 334.205673 -291.432478 
L 333.881018 -290.7919 
L 333.556364 -291.103108 
L 333.231709 -291.148641 
L 332.907055 -291.025646 
L 332.5824 -291.188994 
L 332.257745 -291.261357 
L 331.933091 -290.868927 
L 331.608436 -291.098177 
L 331.283782 -290.786535 
L 330.959127 -290.453169 
L 330.634473 -291.345163 
L 330.309818 -290.994338 
L 329.985164 -291.951084 
L 329.660509 -290.32805 
L 329.335855 -290.56598 
L 329.0112 -291.191179 
L 328.686545 -291.017682 
L 328.361891 -291.189759 
L 328.037236 -291.186631 
L 327.712582 -291.159627 
L 327.387927 -291.468735 
L 327.063273 -290.992768 
L 326.738618 -290.803468 
L 326.413964 -291.066667 
L 326.089309 -291.196579 
L 325.764655 -290.598255 
L 325.44 -291.384957 
L 325.115345 -290.759475 
L 324.790691 -291.194992 
L 324.466036 -290.998168 
L 324.141382 -291.113815 
L 323.816727 -291.459499 
L 323.492073 -290.524763 
L 323.167418 -290.807875 
L 322.842764 -291.351719 
L 322.518109 -290.506118 
L 322.193455 -290.635835 
L 321.8688 -289.587355 
L 321.544145 -291.009893 
L 321.219491 -291.07658 
L 320.894836 -290.972067 
L 320.570182 -290.704263 
L 320.245527 -291.625739 
L 319.920873 -291.211294 
L 319.596218 -291.341065 
L 319.271564 -291.05951 
L 318.946909 -291.497789 
L 318.622255 -290.993594 
L 318.2976 -290.548099 
L 317.972945 -291.576572 
L 317.648291 -291.287967 
L 317.323636 -290.52356 
L 316.998982 -291.329425 
L 316.674327 -291.26992 
L 316.349673 -290.894366 
L 316.025018 -290.835534 
L 315.700364 -289.720262 
L 315.375709 -289.933261 
L 315.051055 -290.972034 
L 314.7264 -291.760241 
L 314.401745 -291.255988 
L 314.077091 -290.914173 
L 313.752436 -290.45954 
L 313.427782 -290.852308 
L 313.103127 -290.188709 
L 312.778473 -291.097454 
L 312.453818 -289.968972 
L 312.129164 -290.478732 
L 311.804509 -290.797638 
L 311.479855 -290.093938 
L 311.1552 -290.937187 
L 310.830545 -290.89172 
L 310.505891 -290.242633 
L 310.181236 -290.925585 
L 309.856582 -291.142839 
L 309.531927 -290.799554 
L 309.207273 -290.247088 
L 308.882618 -289.650607 
L 308.557964 -290.507625 
L 308.233309 -290.970175 
L 307.908655 -291.040356 
L 307.584 -288.697584 
L 307.259345 -290.997827 
L 306.934691 -290.109431 
L 306.610036 -289.604939 
L 306.285382 -290.26903 
L 305.960727 -290.797785 
L 305.636073 -290.84353 
L 305.311418 -291.185744 
L 304.986764 -290.694722 
L 304.662109 -290.385384 
L 304.337455 -290.853707 
L 304.0128 -290.109169 
L 303.688145 -289.354794 
L 303.363491 -291.221425 
L 303.038836 -290.977875 
L 302.714182 -291.343485 
L 302.389527 -289.841187 
L 302.064873 -289.864979 
L 301.740218 -290.724107 
L 301.415564 -291.114034 
L 301.090909 -290.145884 
L 300.766255 -290.599895 
L 300.4416 -291.229324 
L 300.116945 -289.783869 
L 299.792291 -290.005054 
L 299.467636 -289.863703 
L 299.142982 -290.485595 
L 298.818327 -290.155796 
L 298.493673 -289.637468 
L 298.169018 -290.12883 
L 297.844364 -289.02643 
L 297.519709 -289.212181 
L 297.195055 -288.175569 
L 296.8704 -290.191467 
L 296.545745 -290.950113 
L 296.221091 -290.17149 
L 295.896436 -290.895307 
L 295.571782 -290.343939 
L 295.247127 -289.228616 
L 294.922473 -291.200203 
L 294.597818 -289.12897 
L 294.273164 -290.464493 
L 293.948509 -288.709823 
L 293.623855 -288.601432 
L 293.2992 -289.726636 
L 292.974545 -288.612709 
L 292.649891 -289.564686 
L 292.325236 -290.776877 
L 292.000582 -288.944549 
L 291.675927 -288.732392 
L 291.351273 -289.445262 
L 291.026618 -289.4554 
L 290.701964 -288.665118 
L 290.377309 -290.917319 
L 290.052655 -290.36372 
L 289.728 -289.462229 
L 289.403345 -288.046615 
L 289.078691 -288.316632 
L 288.754036 -288.201792 
L 288.429382 -289.308817 
L 288.104727 -289.587764 
L 287.780073 -288.011158 
L 287.455418 -290.292609 
L 287.130764 -289.31716 
L 286.806109 -288.608498 
L 286.481455 -290.293099 
L 286.1568 -287.714153 
L 285.832145 -287.965364 
L 285.507491 -286.972957 
L 285.182836 -289.486814 
L 284.858182 -289.732818 
L 284.533527 -287.666861 
L 284.208873 -289.457855 
L 283.884218 -290.02858 
L 283.559564 -288.091796 
L 283.234909 -289.800131 
L 282.910255 -288.810783 
L 282.5856 -288.228631 
L 282.260945 -286.779018 
L 281.936291 -288.179651 
L 281.611636 -287.492818 
L 281.286982 -288.389114 
L 280.962327 -288.533851 
L 280.637673 -288.055176 
L 280.313018 -286.860028 
L 279.988364 -288.116388 
L 279.663709 -285.754242 
L 279.339055 -289.349802 
L 279.0144 -286.579593 
L 278.689745 -287.249361 
L 278.365091 -287.336797 
L 278.040436 -288.111983 
L 277.715782 -288.728678 
L 277.391127 -287.659103 
L 277.066473 -286.589291 
L 276.741818 -286.313988 
L 276.417164 -285.797878 
L 276.092509 -287.026777 
L 275.767855 -288.156506 
L 275.4432 -288.909721 
L 275.118545 -289.28303 
L 274.793891 -286.84603 
L 274.469236 -287.157326 
L 274.144582 -284.29078 
L 273.819927 -284.290736 
L 273.495273 -286.845051 
L 273.170618 -286.74125 
L 272.845964 -287.428838 
L 272.521309 -284.965575 
L 272.196655 -285.43016 
L 271.872 -286.357941 
L 271.547345 -285.47651 
L 271.222691 -286.730585 
L 270.898036 -285.338111 
L 270.573382 -284.3434 
L 270.248727 -286.950561 
L 269.924073 -283.962742 
L 269.599418 -285.249814 
L 269.274764 -284.259609 
L 268.950109 -285.478359 
L 268.625455 -284.039885 
L 268.3008 -284.734894 
L 267.976145 -284.626574 
L 267.651491 -284.690074 
L 267.326836 -284.076422 
L 267.002182 -285.340002 
L 266.677527 -282.545345 
L 266.352873 -284.968035 
L 266.028218 -283.501921 
L 265.703564 -282.892228 
L 265.378909 -282.231666 
L 265.054255 -281.693604 
L 264.7296 -283.092358 
L 264.404945 -283.885418 
L 264.080291 -283.144373 
L 263.755636 -282.857402 
L 263.430982 -280.86633 
L 263.106327 -282.00604 
L 262.781673 -280.45136 
L 262.457018 -280.626299 
L 262.132364 -279.5848 
L 261.807709 -281.080083 
L 261.483055 -280.540373 
L 261.1584 -279.138084 
L 260.833745 -279.58224 
L 260.509091 -279.643606 
L 260.184436 -276.008885 
L 259.859782 -279.08964 
L 259.535127 -279.799594 
L 259.210473 -276.304195 
L 258.885818 -278.596392 
L 258.561164 -278.06158 
L 258.236509 -277.450342 
L 257.911855 -276.46071 
L 257.5872 -276.223515 
L 257.262545 -277.238655 
L 256.937891 -275.39902 
L 256.613236 -277.332242 
L 256.288582 -271.971081 
L 255.963927 -274.13224 
L 255.639273 -271.66059 
L 255.314618 -270.420797 
L 254.989964 -274.125691 
L 254.665309 -273.87803 
L 254.340655 -271.690409 
L 254.016 -272.279486 
L 253.691345 -272.277511 
L 253.366691 -269.705426 
L 253.042036 -271.649773 
L 252.717382 -274.047743 
L 252.392727 -268.657806 
L 252.068073 -269.779006 
L 251.743418 -265.835329 
L 251.418764 -266.297631 
L 251.094109 -265.789612 
L 250.769455 -284.54503 
L 250.4448 -283.41712 
L 250.120145 -284.800553 
L 249.795491 -284.584352 
L 249.470836 -285.937646 
L 249.146182 -284.085043 
L 248.821527 -285.736053 
L 248.496873 -285.361218 
L 248.172218 -283.087352 
L 247.847564 -284.517804 
L 247.522909 -285.042299 
L 247.198255 -283.206058 
L 246.8736 -284.476139 
L 246.548945 -282.166523 
L 246.224291 -282.553127 
L 245.899636 -282.123239 
L 245.574982 -282.954774 
L 245.250327 -282.001549 
L 244.925673 -283.068654 
L 244.601018 -282.342508 
L 244.276364 -280.094237 
L 243.951709 -280.793856 
L 243.627055 -280.566317 
L 243.3024 -279.797826 
L 242.977745 -280.959714 
L 242.653091 -283.241785 
L 242.328436 -278.32034 
L 242.003782 -280.011525 
L 241.679127 -277.291829 
L 241.354473 -280.96956 
L 241.029818 -277.619604 
L 240.705164 -277.014934 
L 240.380509 -278.263706 
L 240.055855 -277.598984 
L 239.7312 -276.964388 
L 239.406545 -276.532949 
L 239.081891 -276.800472 
L 238.757236 -274.95074 
L 238.432582 -275.382231 
L 238.107927 -273.048275 
L 237.783273 -274.707246 
L 237.458618 -273.304925 
L 237.133964 -272.416858 
L 236.809309 -273.930616 
L 236.484655 -273.677661 
L 236.16 -272.350629 
L 235.835345 -272.357917 
L 235.510691 -268.987249 
L 235.186036 -268.831223 
L 234.861382 -269.739845 
L 234.536727 -267.487862 
L 234.212073 -266.661404 
L 233.887418 -265.786444 
L 233.562764 -267.130532 
L 233.238109 -269.288376 
L 232.913455 -264.730089 
L 232.5888 -267.62923 
L 232.264145 -263.3946 
L 231.939491 -262.473437 
L 231.614836 -264.823424 
L 231.290182 -260.663143 
L 230.965527 -260.042823 
L 230.640873 -261.957557 
L 230.316218 -259.38597 
L 229.991564 -261.513756 
L 229.666909 -255.291822 
L 229.342255 -258.170535 
L 229.0176 -259.525005 
L 228.692945 -255.640302 
L 228.368291 -254.906998 
L 228.043636 -283.984505 
L 227.718982 -283.563147 
L 227.394327 -284.435923 
L 227.069673 -279.956501 
L 226.745018 -281.282016 
L 226.420364 -283.524336 
L 226.095709 -281.820213 
L 225.771055 -281.006596 
L 225.4464 -284.050512 
L 225.121745 -284.029706 
L 224.797091 -282.112737 
L 224.472436 -281.924022 
L 224.147782 -278.667665 
L 223.823127 -278.506361 
L 223.498473 -278.948297 
L 223.173818 -279.843143 
L 222.849164 -279.700696 
L 222.524509 -276.740746 
L 222.199855 -277.460857 
L 221.8752 -277.264286 
L 221.550545 -277.694294 
L 221.225891 -275.616677 
L 220.901236 -275.370449 
L 220.576582 -275.081687 
L 220.251927 -275.02068 
L 219.927273 -278.024605 
L 219.602618 -273.91161 
L 219.277964 -274.413408 
L 218.953309 -272.042403 
L 218.628655 -272.318837 
L 218.304 -268.915218 
L 217.979345 -270.996815 
L 217.654691 -271.144809 
L 217.330036 -271.467627 
L 217.005382 -268.762535 
L 216.680727 -269.974459 
L 216.356073 -268.531946 
L 216.031418 -267.303524 
L 215.706764 -271.541769 
L 215.382109 -265.964995 
L 215.057455 -267.938224 
L 214.7328 -268.357498 
L 214.408145 -264.692019 
L 214.083491 -264.186102 
L 213.758836 -264.473091 
L 213.434182 -258.903167 
L 213.109527 -258.671128 
L 212.784873 -255.120721 
L 212.460218 -257.914023 
L 212.135564 -257.496596 
L 211.810909 -283.543068 
L 211.486255 -285.972814 
L 211.1616 -285.130855 
L 210.836945 -286.578776 
L 210.512291 -283.075843 
L 210.187636 -285.819838 
L 209.862982 -285.372369 
L 209.538327 -285.441607 
L 209.213673 -282.160336 
L 208.889018 -284.775087 
L 208.564364 -285.546732 
L 208.239709 -283.455165 
L 207.915055 -285.946002 
L 207.5904 -283.219023 
L 207.265745 -281.607713 
L 206.941091 -283.636399 
L 206.616436 -282.122223 
L 206.291782 -281.37201 
L 205.967127 -280.259278 
L 205.642473 -280.464669 
L 205.317818 -281.978281 
L 204.993164 -278.363951 
L 204.668509 -277.829696 
L 204.343855 -279.889517 
L 204.0192 -279.442611 
L 203.694545 -277.941166 
L 203.369891 -278.789498 
L 203.045236 -277.956568 
L 202.720582 -275.493372 
L 202.395927 -276.821325 
L 202.071273 -275.473918 
L 201.746618 -274.961418 
L 201.421964 -272.241657 
L 201.097309 -273.806032 
L 200.772655 -272.849281 
L 200.448 -272.716326 
L 200.123345 -274.840254 
L 199.798691 -270.44336 
L 199.474036 -271.772213 
L 199.149382 -266.445286 
L 198.824727 -266.694382 
L 198.500073 -267.880771 
L 198.175418 -265.01281 
L 197.850764 -264.644771 
L 197.526109 -268.144086 
L 197.201455 -261.896326 
L 196.8768 -265.082786 
L 196.552145 -262.098792 
L 196.227491 -264.960445 
L 195.902836 -262.899388 
L 195.578182 -259.464267 
L 195.253527 -259.362117 
L 194.928873 -258.267277 
L 194.604218 -258.942058 
L 194.279564 -252.858523 
L 193.954909 -256.247222 
L 193.630255 -256.443131 
L 193.3056 -251.125423 
L 192.980945 -252.993837 
L 192.656291 -245.662278 
L 192.331636 -249.333779 
L 192.006982 -249.334456 
L 191.682327 -244.130215 
L 191.357673 -245.344795 
L 191.033018 -238.765532 
L 190.708364 -239.825496 
L 190.383709 -238.295846 
L 190.059055 -239.707114 
L 189.7344 -233.196424 
L 189.409745 -240.209683 
L 189.085091 -284.729337 
L 188.760436 -287.073796 
L 188.435782 -282.660152 
L 188.111127 -282.152029 
L 187.786473 -281.977826 
L 187.461818 -282.302671 
L 187.137164 -283.126529 
L 186.812509 -278.424854 
L 186.487855 -280.180761 
L 186.1632 -280.237468 
L 185.838545 -280.320855 
L 185.513891 -279.097454 
L 185.189236 -281.027544 
L 184.864582 -276.014436 
L 184.539927 -275.290555 
L 184.215273 -275.917142 
L 183.890618 -274.07562 
L 183.565964 -272.577043 
L 183.241309 -278.073952 
L 182.916655 -272.883232 
L 182.592 -273.642613 
L 182.267345 -274.767031 
L 181.942691 -272.417936 
L 181.618036 -269.32956 
L 181.293382 -270.399324 
L 180.968727 -270.731507 
L 180.644073 -265.04715 
L 180.319418 -267.9694 
L 179.994764 -268.42099 
L 179.670109 -268.000072 
L 179.345455 -263.077559 
L 179.0208 -262.353764 
L 178.696145 -260.179448 
L 178.371491 -261.612863 
L 178.046836 -261.80194 
L 177.722182 -255.434854 
L 177.397527 -257.549428 
L 177.072873 -254.726209 
L 176.748218 -252.675729 
L 176.423564 -251.925256 
L 176.098909 -251.799706 
L 175.774255 -249.685318 
L 175.4496 -246.293034 
L 175.124945 -244.242013 
L 174.800291 -250.704344 
L 174.475636 -247.457538 
L 174.150982 -240.088914 
L 173.826327 -240.422028 
L 173.501673 -236.132752 
L 173.177018 -231.642451 
L 172.852364 -286.169577 
L 172.527709 -286.076202 
L 172.203055 -285.160446 
L 171.8784 -283.130149 
L 171.553745 -286.236247 
L 171.229091 -283.907559 
L 170.904436 -284.311503 
L 170.579782 -285.806866 
L 170.255127 -285.947962 
L 169.930473 -283.966872 
L 169.605818 -281.980703 
L 169.281164 -282.697988 
L 168.956509 -282.211115 
L 168.631855 -281.764595 
L 168.3072 -283.409437 
L 167.982545 -283.149225 
L 167.657891 -282.385428 
L 167.333236 -279.79387 
L 167.008582 -279.046865 
L 166.683927 -277.012495 
L 166.359273 -278.021265 
L 166.034618 -276.00864 
L 165.709964 -274.514199 
L 165.385309 -277.101854 
L 165.060655 -277.874457 
L 164.736 -273.681634 
L 164.411345 -273.992331 
L 164.086691 -271.908397 
L 163.762036 -272.757923 
L 163.437382 -271.003046 
L 163.112727 -269.387877 
L 162.788073 -265.841285 
L 162.463418 -267.470995 
L 162.138764 -267.357622 
L 161.814109 -264.529455 
L 161.489455 -261.96292 
L 161.1648 -261.083911 
L 160.840145 -264.867675 
L 160.515491 -258.300004 
L 160.190836 -255.656204 
L 159.866182 -256.204374 
L 159.541527 -255.122966 
L 159.216873 -250.222449 
L 158.892218 -251.203029 
L 158.567564 -248.808206 
L 158.242909 -246.74282 
L 157.918255 -242.784463 
L 157.5936 -243.734583 
L 157.268945 -242.29365 
L 156.944291 -235.945173 
L 156.619636 -231.908265 
L 156.294982 -234.135442 
L 155.970327 -227.191087 
L 155.645673 -221.020872 
L 155.321018 -228.817578 
L 154.996364 -218.437836 
L 154.671709 -216.082011 
L 154.347055 -210.700043 
L 154.0224 -206.934941 
L 153.697745 -209.049405 
L 153.373091 -196.804307 
L 153.048436 -199.660288 
L 152.723782 -195.872997 
L 152.399127 -185.075537 
L 152.074473 -183.546603 
L 151.749818 -173.39906 
L 151.425164 -171.063103 
L 151.100509 -170.710138 
L 150.775855 -160.55582 
L 150.4512 -151.35482 
L 150.126545 -284.007359 
L 149.801891 -281.902033 
L 149.477236 -280.14116 
L 149.152582 -282.733375 
L 148.827927 -280.399292 
L 148.503273 -278.209315 
L 148.178618 -279.390073 
L 147.853964 -278.889029 
L 147.529309 -276.874383 
L 147.204655 -275.771341 
L 146.88 -272.569701 
L 146.555345 -274.527263 
L 146.230691 -270.898954 
L 145.906036 -270.417879 
L 145.581382 -267.733688 
L 145.256727 -268.169508 
L 144.932073 -269.920304 
L 144.607418 -263.490309 
L 144.282764 -264.920526 
L 143.958109 -267.044663 
L 143.633455 -260.183449 
L 143.3088 -258.704494 
L 142.984145 -260.371296 
L 142.659491 -256.691628 
L 142.334836 -255.171294 
L 142.010182 -249.637271 
L 141.685527 -248.181643 
L 141.360873 -247.351114 
L 141.036218 -241.746173 
L 140.711564 -238.752963 
L 140.386909 -243.231272 
L 140.062255 -232.727849 
L 139.7376 -228.281527 
L 139.412945 -228.818164 
L 139.088291 -221.296997 
L 138.763636 -219.677116 
L 138.438982 -215.254272 
L 138.114327 -207.608374 
L 137.789673 -207.034268 
L 137.465018 -199.062078 
L 137.140364 -201.625837 
L 136.815709 -192.556554 
L 136.491055 -182.790348 
L 136.1664 -175.221928 
L 135.841745 -167.873658 
L 135.517091 -162.610147 
L 135.192436 -159.239188 
L 134.867782 -151.023754 
L 134.543127 -147.327712 
L 134.218473 -143.460896 
L 133.893818 -138.875639 
L 133.569164 -128.673129 
L 133.244509 -126.611909 
L 132.919855 -125.808396 
L 132.5952 -122.343196 
L 132.270545 -113.576366 
L 131.945891 -113.367564 
L 131.621236 -110.262732 
L 131.296582 -106.985007 
L 130.971927 -104.542358 
L 130.647273 -282.413054 
L 130.322618 -280.895234 
L 129.997964 -278.008484 
L 129.673309 -278.935608 
L 129.348655 -280.48218 
L 129.024 -278.626582 
L 128.699345 -276.133935 
L 128.374691 -272.73196 
L 128.050036 -272.155445 
L 127.725382 -272.965796 
L 127.400727 -270.165307 
L 127.076073 -269.249589 
L 126.751418 -264.591698 
L 126.426764 -261.774096 
L 126.102109 -260.59071 
L 125.777455 -256.988286 
L 125.4528 -252.771176 
L 125.128145 -254.422438 
L 124.803491 -253.193467 
L 124.478836 -250.113255 
L 124.154182 -240.657203 
L 123.829527 -241.743297 
L 123.504873 -233.661161 
L 123.180218 -226.347306 
L 122.855564 -222.51179 
L 122.530909 -215.333074 
L 122.206255 -212.874096 
L 121.8816 -207.186868 
L 121.556945 -200.807304 
L 121.232291 -195.973613 
L 120.907636 -181.511754 
L 120.582982 -181.802116 
L 120.258327 -166.028817 
L 119.933673 -161.755834 
L 119.609018 -154.210706 
L 119.284364 -147.641431 
L 118.959709 -139.194201 
L 118.635055 -131.027706 
L 118.3104 -128.591776 
L 117.985745 -121.4942 
L 117.661091 -119.161792 
L 117.336436 -110.337786 
L 117.011782 -107.777256 
L 116.687127 -103.615512 
L 116.362473 -98.215411 
L 116.037818 -96.932677 
L 115.713164 -93.187006 
L 115.388509 -90.65431 
L 115.063855 -86.355768 
L 114.7392 -81.183446 
L 114.414545 -80.278031 
L 114.089891 -80.193607 
L 113.765236 -78.851567 
L 113.440582 -75.92012 
L 113.115927 -74.067297 
L 112.791273 -72.334574 
L 112.466618 -71.051506 
L 112.141964 -69.554959 
L 111.817309 -68.590739 
L 111.492655 -66.481465 
L 111.168 -279.065182 
L 110.843345 -278.630889 
L 110.518691 -277.566905 
L 110.194036 -272.868069 
L 109.869382 -273.61312 
L 109.544727 -265.549973 
L 109.220073 -266.052082 
L 108.895418 -262.628647 
L 108.570764 -261.5897 
L 108.246109 -257.556304 
L 107.921455 -252.243945 
L 107.5968 -246.514254 
L 107.272145 -238.528089 
L 106.947491 -234.118077 
L 106.622836 -226.878822 
L 106.298182 -219.515144 
L 105.973527 -206.725765 
L 105.648873 -201.859336 
L 105.324218 -187.974008 
L 104.999564 -175.579082 
L 104.674909 -169.521608 
L 104.350255 -150.482575 
L 104.0256 -138.499897 
L 103.700945 -132.638455 
L 103.376291 -125.580839 
L 103.051636 -116.69533 
L 102.726982 -106.695802 
L 102.402327 -102.811194 
L 102.077673 -98.085117 
L 101.753018 -95.188571 
L 101.428364 -88.581025 
L 101.103709 -83.821038 
L 100.779055 -81.775128 
L 100.4544 -78.224145 
L 100.129745 -75.744968 
L 99.805091 -71.861179 
L 99.480436 -70.842049 
L 99.155782 -68.064251 
L 98.831127 -65.754171 
L 98.506473 -63.63347 
L 98.181818 -63.209446 
L 97.857164 -61.082221 
L 97.532509 -60.901527 
L 97.207855 -59.659413 
L 96.8832 -58.230148 
L 96.558545 -57.293861 
L 96.233891 -56.661643 
L 95.909236 -55.774056 
L 95.584582 -55.683353 
L 95.259927 -55.077528 
L 94.935273 -54.233003 
L 94.610618 -53.870128 
L 94.285964 -53.523584 
L 93.961309 -53.242725 
L 93.636655 -52.813185 
L 93.312 -52.700531 
L 92.987345 -52.230269 
L 92.662691 -52.110467 
L 92.338036 -51.846213 
L 92.013382 -51.673277 
L 91.688727 -267.442816 
L 91.364073 -265.358301 
L 91.039418 -256.37237 
L 90.714764 -244.451502 
L 90.390109 -234.277857 
L 90.065455 -221.596652 
L 89.7408 -199.6251 
L 89.416145 -178.728459 
L 89.091491 -151.256704 
L 88.766836 -132.677017 
L 88.442182 -115.161003 
L 88.117527 -105.359278 
L 87.792873 -95.275963 
L 87.468218 -84.403131 
L 87.143564 -78.391129 
L 86.818909 -72.349782 
L 86.494255 -68.074215 
L 86.1696 -64.124515 
L 85.844945 -61.548365 
L 85.520291 -59.269509 
L 85.195636 -57.5729 
L 84.870982 -56.154275 
L 84.546327 -54.88603 
L 84.221673 -53.851466 
L 83.897018 -53.12934 
L 83.572364 -52.735049 
L 83.247709 -52.155493 
L 82.923055 -51.630549 
L 82.5984 -51.446816 
L 82.273745 -51.115487 
L 81.949091 -50.910476 
L 81.624436 -50.797664 
L 81.299782 -50.65321 
L 80.975127 -50.566442 
L 80.650473 -50.454998 
L 80.325818 -50.378267 
L 80.001164 -50.324677 
L 79.676509 -50.285997 
L 79.351855 -50.254462 
L 79.0272 -50.215649 
L 78.702545 -50.19816 
L 78.377891 -50.180476 
L 78.053236 -50.167859 
L 77.728582 -50.156875 
L 77.403927 -50.148318 
L 77.079273 -50.140572 
L 76.754618 -50.13395 
L 76.429964 -50.128147 
L 76.105309 -50.124445 
L 75.780655 -50.120674 
L 75.456 -50.118879 
L 75.131345 -50.117124 
L 74.806691 -50.115222 
L 74.482036 -50.113662 
L 74.157382 -50.112793 
L 73.832727 -50.112653 
z
" id="m213b09283e" style="stroke:#008000;stroke-opacity:0.1;"/>
    </defs>
    <g clip-path="url(#p4810a9a3f5)">
     <use style="fill:#008000;fill-opacity:0.1;stroke:#008000;stroke-opacity:0.1;" x="0" xlink:href="#m213b09283e" y="345.6"/>
    </g>
   </g>
   <g id="matplotlib.axis_1">
    <g id="xtick_1">
     <g id="line2d_1">
      <path clip-path="url(#p4810a9a3f5)" d="M 73.508073 307.584 
L 73.508073 41.472 
" style="fill:none;stroke:#b0b0b0;stroke-linecap:square;stroke-width:0.8;"/>
     </g>
     <g id="line2d_2">
      <defs>
       <path d="M 0 0 
L 0 3.5 
" id="m57f7cbfaf7" style="stroke:#000000;stroke-width:0.8;"/>
      </defs>
      <g>
       <use style="stroke:#000000;stroke-width:0.8;" x="73.508073" xlink:href="#m57f7cbfaf7" y="307.584"/>
      </g>
     </g>
     <g id="text_1">
      <!-- 0 -->
      <defs>
       <path d="M 31.78125 66.40625 
Q 24.171875 66.40625 20.328125 58.90625 
Q 16.5 51.421875 16.5 36.375 
Q 16.5 21.390625 20.328125 13.890625 
Q 24.171875 6.390625 31.78125 6.390625 
Q 39.453125 6.390625 43.28125 13.890625 
Q 47.125 21.390625 47.125 36.375 
Q 47.125 51.421875 43.28125 58.90625 
Q 39.453125 66.40625 31.78125 66.40625 
M 31.78125 74.21875 
Q 44.046875 74.21875 50.515625 64.515625 
Q 56.984375 54.828125 56.984375 36.375 
Q 56.984375 17.96875 50.515625 8.265625 
Q 44.046875 -1.421875 31.78125 -1.421875 
Q 19.53125 -1.421875 13.0625 8.265625 
Q 6.59375 17.96875 6.59375 36.375 
Q 6.59375 54.828125 13.0625 64.515625 
Q 19.53125 74.21875 31.78125 74.21875 
" id="DejaVuSans-30"/>
      </defs>
      <g transform="translate(70.326823 322.182437)scale(0.1 -0.1)">
       <use xlink:href="#DejaVuSans-30"/>
      </g>
     </g>
    </g>
    <g id="xtick_2">
     <g id="line2d_3">
      <path clip-path="url(#p4810a9a3f5)" d="M 138.438982 307.584 
L 138.438982 41.472 
" style="fill:none;stroke:#b0b0b0;stroke-linecap:square;stroke-width:0.8;"/>
     </g>
     <g id="line2d_4">
      <g>
       <use style="stroke:#000000;stroke-width:0.8;" x="138.438982" xlink:href="#m57f7cbfaf7" y="307.584"/>
      </g>
     </g>
     <g id="text_2">
      <!-- 200 -->
      <defs>
       <path d="M 19.1875 8.296875 
L 53.609375 8.296875 
L 53.609375 0 
L 7.328125 0 
L 7.328125 8.296875 
Q 12.9375 14.109375 22.625 23.890625 
Q 32.328125 33.6875 34.8125 36.53125 
Q 39.546875 41.84375 41.421875 45.53125 
Q 43.3125 49.21875 43.3125 52.78125 
Q 43.3125 58.59375 39.234375 62.25 
Q 35.15625 65.921875 28.609375 65.921875 
Q 23.96875 65.921875 18.8125 64.3125 
Q 13.671875 62.703125 7.8125 59.421875 
L 7.8125 69.390625 
Q 13.765625 71.78125 18.9375 73 
Q 24.125 74.21875 28.421875 74.21875 
Q 39.75 74.21875 46.484375 68.546875 
Q 53.21875 62.890625 53.21875 53.421875 
Q 53.21875 48.921875 51.53125 44.890625 
Q 49.859375 40.875 45.40625 35.40625 
Q 44.1875 33.984375 37.640625 27.21875 
Q 31.109375 20.453125 19.1875 8.296875 
" id="DejaVuSans-32"/>
      </defs>
      <g transform="translate(128.895232 322.182437)scale(0.1 -0.1)">
       <use xlink:href="#DejaVuSans-32"/>
       <use x="63.623047" xlink:href="#DejaVuSans-30"/>
       <use x="127.246094" xlink:href="#DejaVuSans-30"/>
      </g>
     </g>
    </g>
    <g id="xtick_3">
     <g id="line2d_5">
      <path clip-path="url(#p4810a9a3f5)" d="M 203.369891 307.584 
L 203.369891 41.472 
" style="fill:none;stroke:#b0b0b0;stroke-linecap:square;stroke-width:0.8;"/>
     </g>
     <g id="line2d_6">
      <g>
       <use style="stroke:#000000;stroke-width:0.8;" x="203.369891" xlink:href="#m57f7cbfaf7" y="307.584"/>
      </g>
     </g>
     <g id="text_3">
      <!-- 400 -->
      <defs>
       <path d="M 37.796875 64.3125 
L 12.890625 25.390625 
L 37.796875 25.390625 
z
M 35.203125 72.90625 
L 47.609375 72.90625 
L 47.609375 25.390625 
L 58.015625 25.390625 
L 58.015625 17.1875 
L 47.609375 17.1875 
L 47.609375 0 
L 37.796875 0 
L 37.796875 17.1875 
L 4.890625 17.1875 
L 4.890625 26.703125 
z
" id="DejaVuSans-34"/>
      </defs>
      <g transform="translate(193.826141 322.182437)scale(0.1 -0.1)">
       <use xlink:href="#DejaVuSans-34"/>
       <use x="63.623047" xlink:href="#DejaVuSans-30"/>
       <use x="127.246094" xlink:href="#DejaVuSans-30"/>
      </g>
     </g>
    </g>
    <g id="xtick_4">
     <g id="line2d_7">
      <path clip-path="url(#p4810a9a3f5)" d="M 268.3008 307.584 
L 268.3008 41.472 
" style="fill:none;stroke:#b0b0b0;stroke-linecap:square;stroke-width:0.8;"/>
     </g>
     <g id="line2d_8">
      <g>
       <use style="stroke:#000000;stroke-width:0.8;" x="268.3008" xlink:href="#m57f7cbfaf7" y="307.584"/>
      </g>
     </g>
     <g id="text_4">
      <!-- 600 -->
      <defs>
       <path d="M 33.015625 40.375 
Q 26.375 40.375 22.484375 35.828125 
Q 18.609375 31.296875 18.609375 23.390625 
Q 18.609375 15.53125 22.484375 10.953125 
Q 26.375 6.390625 33.015625 6.390625 
Q 39.65625 6.390625 43.53125 10.953125 
Q 47.40625 15.53125 47.40625 23.390625 
Q 47.40625 31.296875 43.53125 35.828125 
Q 39.65625 40.375 33.015625 40.375 
M 52.59375 71.296875 
L 52.59375 62.3125 
Q 48.875 64.0625 45.09375 64.984375 
Q 41.3125 65.921875 37.59375 65.921875 
Q 27.828125 65.921875 22.671875 59.328125 
Q 17.53125 52.734375 16.796875 39.40625 
Q 19.671875 43.65625 24.015625 45.921875 
Q 28.375 48.1875 33.59375 48.1875 
Q 44.578125 48.1875 50.953125 41.515625 
Q 57.328125 34.859375 57.328125 23.390625 
Q 57.328125 12.15625 50.6875 5.359375 
Q 44.046875 -1.421875 33.015625 -1.421875 
Q 20.359375 -1.421875 13.671875 8.265625 
Q 6.984375 17.96875 6.984375 36.375 
Q 6.984375 53.65625 15.1875 63.9375 
Q 23.390625 74.21875 37.203125 74.21875 
Q 40.921875 74.21875 44.703125 73.484375 
Q 48.484375 72.75 52.59375 71.296875 
" id="DejaVuSans-36"/>
      </defs>
      <g transform="translate(258.75705 322.182437)scale(0.1 -0.1)">
       <use xlink:href="#DejaVuSans-36"/>
       <use x="63.623047" xlink:href="#DejaVuSans-30"/>
       <use x="127.246094" xlink:href="#DejaVuSans-30"/>
      </g>
     </g>
    </g>
    <g id="xtick_5">
     <g id="line2d_9">
      <path clip-path="url(#p4810a9a3f5)" d="M 333.231709 307.584 
L 333.231709 41.472 
" style="fill:none;stroke:#b0b0b0;stroke-linecap:square;stroke-width:0.8;"/>
     </g>
     <g id="line2d_10">
      <g>
       <use style="stroke:#000000;stroke-width:0.8;" x="333.231709" xlink:href="#m57f7cbfaf7" y="307.584"/>
      </g>
     </g>
     <g id="text_5">
      <!-- 800 -->
      <defs>
       <path d="M 31.78125 34.625 
Q 24.75 34.625 20.71875 30.859375 
Q 16.703125 27.09375 16.703125 20.515625 
Q 16.703125 13.921875 20.71875 10.15625 
Q 24.75 6.390625 31.78125 6.390625 
Q 38.8125 6.390625 42.859375 10.171875 
Q 46.921875 13.96875 46.921875 20.515625 
Q 46.921875 27.09375 42.890625 30.859375 
Q 38.875 34.625 31.78125 34.625 
M 21.921875 38.8125 
Q 15.578125 40.375 12.03125 44.71875 
Q 8.5 49.078125 8.5 55.328125 
Q 8.5 64.0625 14.71875 69.140625 
Q 20.953125 74.21875 31.78125 74.21875 
Q 42.671875 74.21875 48.875 69.140625 
Q 55.078125 64.0625 55.078125 55.328125 
Q 55.078125 49.078125 51.53125 44.71875 
Q 48 40.375 41.703125 38.8125 
Q 48.828125 37.15625 52.796875 32.3125 
Q 56.78125 27.484375 56.78125 20.515625 
Q 56.78125 9.90625 50.3125 4.234375 
Q 43.84375 -1.421875 31.78125 -1.421875 
Q 19.734375 -1.421875 13.25 4.234375 
Q 6.78125 9.90625 6.78125 20.515625 
Q 6.78125 27.484375 10.78125 32.3125 
Q 14.796875 37.15625 21.921875 38.8125 
M 18.3125 54.390625 
Q 18.3125 48.734375 21.84375 45.5625 
Q 25.390625 42.390625 31.78125 42.390625 
Q 38.140625 42.390625 41.71875 45.5625 
Q 45.3125 48.734375 45.3125 54.390625 
Q 45.3125 60.0625 41.71875 63.234375 
Q 38.140625 66.40625 31.78125 66.40625 
Q 25.390625 66.40625 21.84375 63.234375 
Q 18.3125 60.0625 18.3125 54.390625 
" id="DejaVuSans-38"/>
      </defs>
      <g transform="translate(323.687959 322.182437)scale(0.1 -0.1)">
       <use xlink:href="#DejaVuSans-38"/>
       <use x="63.623047" xlink:href="#DejaVuSans-30"/>
       <use x="127.246094" xlink:href="#DejaVuSans-30"/>
      </g>
     </g>
    </g>
    <g id="xtick_6">
     <g id="line2d_11">
      <path clip-path="url(#p4810a9a3f5)" d="M 398.162618 307.584 
L 398.162618 41.472 
" style="fill:none;stroke:#b0b0b0;stroke-linecap:square;stroke-width:0.8;"/>
     </g>
     <g id="line2d_12">
      <g>
       <use style="stroke:#000000;stroke-width:0.8;" x="398.162618" xlink:href="#m57f7cbfaf7" y="307.584"/>
      </g>
     </g>
     <g id="text_6">
      <!-- 1000 -->
      <defs>
       <path d="M 12.40625 8.296875 
L 28.515625 8.296875 
L 28.515625 63.921875 
L 10.984375 60.40625 
L 10.984375 69.390625 
L 28.421875 72.90625 
L 38.28125 72.90625 
L 38.28125 8.296875 
L 54.390625 8.296875 
L 54.390625 0 
L 12.40625 0 
z
" id="DejaVuSans-31"/>
      </defs>
      <g transform="translate(385.437618 322.182437)scale(0.1 -0.1)">
       <use xlink:href="#DejaVuSans-31"/>
       <use x="63.623047" xlink:href="#DejaVuSans-30"/>
       <use x="127.246094" xlink:href="#DejaVuSans-30"/>
       <use x="190.869141" xlink:href="#DejaVuSans-30"/>
      </g>
     </g>
    </g>
    <g id="text_7">
     <!-- Number of clients -->
     <defs>
      <path d="M 9.8125 72.90625 
L 23.09375 72.90625 
L 55.421875 11.921875 
L 55.421875 72.90625 
L 64.984375 72.90625 
L 64.984375 0 
L 51.703125 0 
L 19.390625 60.984375 
L 19.390625 0 
L 9.8125 0 
z
" id="DejaVuSans-4e"/>
      <path d="M 8.5 21.578125 
L 8.5 54.6875 
L 17.484375 54.6875 
L 17.484375 21.921875 
Q 17.484375 14.15625 20.5 10.265625 
Q 23.53125 6.390625 29.59375 6.390625 
Q 36.859375 6.390625 41.078125 11.03125 
Q 45.3125 15.671875 45.3125 23.6875 
L 45.3125 54.6875 
L 54.296875 54.6875 
L 54.296875 0 
L 45.3125 0 
L 45.3125 8.40625 
Q 42.046875 3.421875 37.71875 1 
Q 33.40625 -1.421875 27.6875 -1.421875 
Q 18.265625 -1.421875 13.375 4.4375 
Q 8.5 10.296875 8.5 21.578125 
M 31.109375 56 
z
" id="DejaVuSans-75"/>
      <path d="M 52 44.1875 
Q 55.375 50.25 60.0625 53.125 
Q 64.75 56 71.09375 56 
Q 79.640625 56 84.28125 50.015625 
Q 88.921875 44.046875 88.921875 33.015625 
L 88.921875 0 
L 79.890625 0 
L 79.890625 32.71875 
Q 79.890625 40.578125 77.09375 44.375 
Q 74.3125 48.1875 68.609375 48.1875 
Q 61.625 48.1875 57.5625 43.546875 
Q 53.515625 38.921875 53.515625 30.90625 
L 53.515625 0 
L 44.484375 0 
L 44.484375 32.71875 
Q 44.484375 40.625 41.703125 44.40625 
Q 38.921875 48.1875 33.109375 48.1875 
Q 26.21875 48.1875 22.15625 43.53125 
Q 18.109375 38.875 18.109375 30.90625 
L 18.109375 0 
L 9.078125 0 
L 9.078125 54.6875 
L 18.109375 54.6875 
L 18.109375 46.1875 
Q 21.1875 51.21875 25.484375 53.609375 
Q 29.78125 56 35.6875 56 
Q 41.65625 56 45.828125 52.96875 
Q 50 49.953125 52 44.1875 
" id="DejaVuSans-6d"/>
      <path d="M 48.6875 27.296875 
Q 48.6875 37.203125 44.609375 42.84375 
Q 40.53125 48.484375 33.40625 48.484375 
Q 26.265625 48.484375 22.1875 42.84375 
Q 18.109375 37.203125 18.109375 27.296875 
Q 18.109375 17.390625 22.1875 11.75 
Q 26.265625 6.109375 33.40625 6.109375 
Q 40.53125 6.109375 44.609375 11.75 
Q 48.6875 17.390625 48.6875 27.296875 
M 18.109375 46.390625 
Q 20.953125 51.265625 25.265625 53.625 
Q 29.59375 56 35.59375 56 
Q 45.5625 56 51.78125 48.09375 
Q 58.015625 40.1875 58.015625 27.296875 
Q 58.015625 14.40625 51.78125 6.484375 
Q 45.5625 -1.421875 35.59375 -1.421875 
Q 29.59375 -1.421875 25.265625 0.953125 
Q 20.953125 3.328125 18.109375 8.203125 
L 18.109375 0 
L 9.078125 0 
L 9.078125 75.984375 
L 18.109375 75.984375 
z
" id="DejaVuSans-62"/>
      <path d="M 56.203125 29.59375 
L 56.203125 25.203125 
L 14.890625 25.203125 
Q 15.484375 15.921875 20.484375 11.0625 
Q 25.484375 6.203125 34.421875 6.203125 
Q 39.59375 6.203125 44.453125 7.46875 
Q 49.3125 8.734375 54.109375 11.28125 
L 54.109375 2.78125 
Q 49.265625 0.734375 44.1875 -0.34375 
Q 39.109375 -1.421875 33.890625 -1.421875 
Q 20.796875 -1.421875 13.15625 6.1875 
Q 5.515625 13.8125 5.515625 26.8125 
Q 5.515625 40.234375 12.765625 48.109375 
Q 20.015625 56 32.328125 56 
Q 43.359375 56 49.78125 48.890625 
Q 56.203125 41.796875 56.203125 29.59375 
M 47.21875 32.234375 
Q 47.125 39.59375 43.09375 43.984375 
Q 39.0625 48.390625 32.421875 48.390625 
Q 24.90625 48.390625 20.390625 44.140625 
Q 15.875 39.890625 15.1875 32.171875 
z
" id="DejaVuSans-65"/>
      <path d="M 41.109375 46.296875 
Q 39.59375 47.171875 37.8125 47.578125 
Q 36.03125 48 33.890625 48 
Q 26.265625 48 22.1875 43.046875 
Q 18.109375 38.09375 18.109375 28.8125 
L 18.109375 0 
L 9.078125 0 
L 9.078125 54.6875 
L 18.109375 54.6875 
L 18.109375 46.1875 
Q 20.953125 51.171875 25.484375 53.578125 
Q 30.03125 56 36.53125 56 
Q 37.453125 56 38.578125 55.875 
Q 39.703125 55.765625 41.0625 55.515625 
z
" id="DejaVuSans-72"/>
      <path id="DejaVuSans-20"/>
      <path d="M 30.609375 48.390625 
Q 23.390625 48.390625 19.1875 42.75 
Q 14.984375 37.109375 14.984375 27.296875 
Q 14.984375 17.484375 19.15625 11.84375 
Q 23.34375 6.203125 30.609375 6.203125 
Q 37.796875 6.203125 41.984375 11.859375 
Q 46.1875 17.53125 46.1875 27.296875 
Q 46.1875 37.015625 41.984375 42.703125 
Q 37.796875 48.390625 30.609375 48.390625 
M 30.609375 56 
Q 42.328125 56 49.015625 48.375 
Q 55.71875 40.765625 55.71875 27.296875 
Q 55.71875 13.875 49.015625 6.21875 
Q 42.328125 -1.421875 30.609375 -1.421875 
Q 18.84375 -1.421875 12.171875 6.21875 
Q 5.515625 13.875 5.515625 27.296875 
Q 5.515625 40.765625 12.171875 48.375 
Q 18.84375 56 30.609375 56 
" id="DejaVuSans-6f"/>
      <path d="M 37.109375 75.984375 
L 37.109375 68.5 
L 28.515625 68.5 
Q 23.6875 68.5 21.796875 66.546875 
Q 19.921875 64.59375 19.921875 59.515625 
L 19.921875 54.6875 
L 34.71875 54.6875 
L 34.71875 47.703125 
L 19.921875 47.703125 
L 19.921875 0 
L 10.890625 0 
L 10.890625 47.703125 
L 2.296875 47.703125 
L 2.296875 54.6875 
L 10.890625 54.6875 
L 10.890625 58.5 
Q 10.890625 67.625 15.140625 71.796875 
Q 19.390625 75.984375 28.609375 75.984375 
z
" id="DejaVuSans-66"/>
      <path d="M 48.78125 52.59375 
L 48.78125 44.1875 
Q 44.96875 46.296875 41.140625 47.34375 
Q 37.3125 48.390625 33.40625 48.390625 
Q 24.65625 48.390625 19.8125 42.84375 
Q 14.984375 37.3125 14.984375 27.296875 
Q 14.984375 17.28125 19.8125 11.734375 
Q 24.65625 6.203125 33.40625 6.203125 
Q 37.3125 6.203125 41.140625 7.25 
Q 44.96875 8.296875 48.78125 10.40625 
L 48.78125 2.09375 
Q 45.015625 0.34375 40.984375 -0.53125 
Q 36.96875 -1.421875 32.421875 -1.421875 
Q 20.0625 -1.421875 12.78125 6.34375 
Q 5.515625 14.109375 5.515625 27.296875 
Q 5.515625 40.671875 12.859375 48.328125 
Q 20.21875 56 33.015625 56 
Q 37.15625 56 41.109375 55.140625 
Q 45.0625 54.296875 48.78125 52.59375 
" id="DejaVuSans-63"/>
      <path d="M 9.421875 75.984375 
L 18.40625 75.984375 
L 18.40625 0 
L 9.421875 0 
z
" id="DejaVuSans-6c"/>
      <path d="M 9.421875 54.6875 
L 18.40625 54.6875 
L 18.40625 0 
L 9.421875 0 
z
M 9.421875 75.984375 
L 18.40625 75.984375 
L 18.40625 64.59375 
L 9.421875 64.59375 
z
" id="DejaVuSans-69"/>
      <path d="M 54.890625 33.015625 
L 54.890625 0 
L 45.90625 0 
L 45.90625 32.71875 
Q 45.90625 40.484375 42.875 44.328125 
Q 39.84375 48.1875 33.796875 48.1875 
Q 26.515625 48.1875 22.3125 43.546875 
Q 18.109375 38.921875 18.109375 30.90625 
L 18.109375 0 
L 9.078125 0 
L 9.078125 54.6875 
L 18.109375 54.6875 
L 18.109375 46.1875 
Q 21.34375 51.125 25.703125 53.5625 
Q 30.078125 56 35.796875 56 
Q 45.21875 56 50.046875 50.171875 
Q 54.890625 44.34375 54.890625 33.015625 
" id="DejaVuSans-6e"/>
      <path d="M 18.3125 70.21875 
L 18.3125 54.6875 
L 36.8125 54.6875 
L 36.8125 47.703125 
L 18.3125 47.703125 
L 18.3125 18.015625 
Q 18.3125 11.328125 20.140625 9.421875 
Q 21.96875 7.515625 27.59375 7.515625 
L 36.8125 7.515625 
L 36.8125 0 
L 27.59375 0 
Q 17.1875 0 13.234375 3.875 
Q 9.28125 7.765625 9.28125 18.015625 
L 9.28125 47.703125 
L 2.6875 47.703125 
L 2.6875 54.6875 
L 9.28125 54.6875 
L 9.28125 70.21875 
z
" id="DejaVuSans-74"/>
      <path d="M 44.28125 53.078125 
L 44.28125 44.578125 
Q 40.484375 46.53125 36.375 47.5 
Q 32.28125 48.484375 27.875 48.484375 
Q 21.1875 48.484375 17.84375 46.4375 
Q 14.5 44.390625 14.5 40.28125 
Q 14.5 37.15625 16.890625 35.375 
Q 19.28125 33.59375 26.515625 31.984375 
L 29.59375 31.296875 
Q 39.15625 29.25 43.1875 25.515625 
Q 47.21875 21.78125 47.21875 15.09375 
Q 47.21875 7.46875 41.1875 3.015625 
Q 35.15625 -1.421875 24.609375 -1.421875 
Q 20.21875 -1.421875 15.453125 -0.5625 
Q 10.6875 0.296875 5.421875 2 
L 5.421875 11.28125 
Q 10.40625 8.6875 15.234375 7.390625 
Q 20.0625 6.109375 24.8125 6.109375 
Q 31.15625 6.109375 34.5625 8.28125 
Q 37.984375 10.453125 37.984375 14.40625 
Q 37.984375 18.0625 35.515625 20.015625 
Q 33.0625 21.96875 24.703125 23.78125 
L 21.578125 24.515625 
Q 13.234375 26.265625 9.515625 29.90625 
Q 5.8125 33.546875 5.8125 39.890625 
Q 5.8125 47.609375 11.28125 51.796875 
Q 16.75 56 26.8125 56 
Q 31.78125 56 36.171875 55.265625 
Q 40.578125 54.546875 44.28125 53.078125 
" id="DejaVuSans-73"/>
     </defs>
     <g transform="translate(191.738906 335.860562)scale(0.1 -0.1)">
      <use xlink:href="#DejaVuSans-4e"/>
      <use x="74.804688" xlink:href="#DejaVuSans-75"/>
      <use x="138.183594" xlink:href="#DejaVuSans-6d"/>
      <use x="235.595703" xlink:href="#DejaVuSans-62"/>
      <use x="299.072266" xlink:href="#DejaVuSans-65"/>
      <use x="360.595703" xlink:href="#DejaVuSans-72"/>
      <use x="401.708984" xlink:href="#DejaVuSans-20"/>
      <use x="433.496094" xlink:href="#DejaVuSans-6f"/>
      <use x="494.677734" xlink:href="#DejaVuSans-66"/>
      <use x="529.882812" xlink:href="#DejaVuSans-20"/>
      <use x="561.669922" xlink:href="#DejaVuSans-63"/>
      <use x="616.650391" xlink:href="#DejaVuSans-6c"/>
      <use x="644.433594" xlink:href="#DejaVuSans-69"/>
      <use x="672.216797" xlink:href="#DejaVuSans-65"/>
      <use x="733.740234" xlink:href="#DejaVuSans-6e"/>
      <use x="797.119141" xlink:href="#DejaVuSans-74"/>
      <use x="836.328125" xlink:href="#DejaVuSans-73"/>
     </g>
    </g>
   </g>
   <g id="matplotlib.axis_2">
    <g id="ytick_1">
     <g id="line2d_13">
      <path clip-path="url(#p4810a9a3f5)" d="M 57.6 295.491383 
L 414.72 295.491383 
" style="fill:none;stroke:#b0b0b0;stroke-linecap:square;stroke-width:0.8;"/>
     </g>
     <g id="line2d_14">
      <defs>
       <path d="M 0 0 
L -3.5 0 
" id="m449f3e2870" style="stroke:#000000;stroke-width:0.8;"/>
      </defs>
      <g>
       <use style="stroke:#000000;stroke-width:0.8;" x="57.6" xlink:href="#m449f3e2870" y="295.491383"/>
      </g>
     </g>
     <g id="text_8">
      <!-- 0.0 -->
      <defs>
       <path d="M 10.6875 12.40625 
L 21 12.40625 
L 21 0 
L 10.6875 0 
z
" id="DejaVuSans-2e"/>
      </defs>
      <g transform="translate(34.696875 299.290601)scale(0.1 -0.1)">
       <use xlink:href="#DejaVuSans-30"/>
       <use x="63.623047" xlink:href="#DejaVuSans-2e"/>
       <use x="95.410156" xlink:href="#DejaVuSans-30"/>
      </g>
     </g>
    </g>
    <g id="ytick_2">
     <g id="line2d_15">
      <path clip-path="url(#p4810a9a3f5)" d="M 57.6 247.319637 
L 414.72 247.319637 
" style="fill:none;stroke:#b0b0b0;stroke-linecap:square;stroke-width:0.8;"/>
     </g>
     <g id="line2d_16">
      <g>
       <use style="stroke:#000000;stroke-width:0.8;" x="57.6" xlink:href="#m449f3e2870" y="247.319637"/>
      </g>
     </g>
     <g id="text_9">
      <!-- 0.2 -->
      <g transform="translate(34.696875 251.118856)scale(0.1 -0.1)">
       <use xlink:href="#DejaVuSans-30"/>
       <use x="63.623047" xlink:href="#DejaVuSans-2e"/>
       <use x="95.410156" xlink:href="#DejaVuSans-32"/>
      </g>
     </g>
    </g>
    <g id="ytick_3">
     <g id="line2d_17">
      <path clip-path="url(#p4810a9a3f5)" d="M 57.6 199.147892 
L 414.72 199.147892 
" style="fill:none;stroke:#b0b0b0;stroke-linecap:square;stroke-width:0.8;"/>
     </g>
     <g id="line2d_18">
      <g>
       <use style="stroke:#000000;stroke-width:0.8;" x="57.6" xlink:href="#m449f3e2870" y="199.147892"/>
      </g>
     </g>
     <g id="text_10">
      <!-- 0.4 -->
      <g transform="translate(34.696875 202.947111)scale(0.1 -0.1)">
       <use xlink:href="#DejaVuSans-30"/>
       <use x="63.623047" xlink:href="#DejaVuSans-2e"/>
       <use x="95.410156" xlink:href="#DejaVuSans-34"/>
      </g>
     </g>
    </g>
    <g id="ytick_4">
     <g id="line2d_19">
      <path clip-path="url(#p4810a9a3f5)" d="M 57.6 150.976147 
L 414.72 150.976147 
" style="fill:none;stroke:#b0b0b0;stroke-linecap:square;stroke-width:0.8;"/>
     </g>
     <g id="line2d_20">
      <g>
       <use style="stroke:#000000;stroke-width:0.8;" x="57.6" xlink:href="#m449f3e2870" y="150.976147"/>
      </g>
     </g>
     <g id="text_11">
      <!-- 0.6 -->
      <g transform="translate(34.696875 154.775366)scale(0.1 -0.1)">
       <use xlink:href="#DejaVuSans-30"/>
       <use x="63.623047" xlink:href="#DejaVuSans-2e"/>
       <use x="95.410156" xlink:href="#DejaVuSans-36"/>
      </g>
     </g>
    </g>
    <g id="ytick_5">
     <g id="line2d_21">
      <path clip-path="url(#p4810a9a3f5)" d="M 57.6 102.804402 
L 414.72 102.804402 
" style="fill:none;stroke:#b0b0b0;stroke-linecap:square;stroke-width:0.8;"/>
     </g>
     <g id="line2d_22">
      <g>
       <use style="stroke:#000000;stroke-width:0.8;" x="57.6" xlink:href="#m449f3e2870" y="102.804402"/>
      </g>
     </g>
     <g id="text_12">
      <!-- 0.8 -->
      <g transform="translate(34.696875 106.603621)scale(0.1 -0.1)">
       <use xlink:href="#DejaVuSans-30"/>
       <use x="63.623047" xlink:href="#DejaVuSans-2e"/>
       <use x="95.410156" xlink:href="#DejaVuSans-38"/>
      </g>
     </g>
    </g>
    <g id="ytick_6">
     <g id="line2d_23">
      <path clip-path="url(#p4810a9a3f5)" d="M 57.6 54.632657 
L 414.72 54.632657 
" style="fill:none;stroke:#b0b0b0;stroke-linecap:square;stroke-width:0.8;"/>
     </g>
     <g id="line2d_24">
      <g>
       <use style="stroke:#000000;stroke-width:0.8;" x="57.6" xlink:href="#m449f3e2870" y="54.632657"/>
      </g>
     </g>
     <g id="text_13">
      <!-- 1.0 -->
      <g transform="translate(34.696875 58.431876)scale(0.1 -0.1)">
       <use xlink:href="#DejaVuSans-31"/>
       <use x="63.623047" xlink:href="#DejaVuSans-2e"/>
       <use x="95.410156" xlink:href="#DejaVuSans-30"/>
      </g>
     </g>
    </g>
    <g id="text_14">
     <!-- Collision probability -->
     <defs>
      <path d="M 64.40625 67.28125 
L 64.40625 56.890625 
Q 59.421875 61.53125 53.78125 63.8125 
Q 48.140625 66.109375 41.796875 66.109375 
Q 29.296875 66.109375 22.65625 58.46875 
Q 16.015625 50.828125 16.015625 36.375 
Q 16.015625 21.96875 22.65625 14.328125 
Q 29.296875 6.6875 41.796875 6.6875 
Q 48.140625 6.6875 53.78125 8.984375 
Q 59.421875 11.28125 64.40625 15.921875 
L 64.40625 5.609375 
Q 59.234375 2.09375 53.4375 0.328125 
Q 47.65625 -1.421875 41.21875 -1.421875 
Q 24.65625 -1.421875 15.125 8.703125 
Q 5.609375 18.84375 5.609375 36.375 
Q 5.609375 53.953125 15.125 64.078125 
Q 24.65625 74.21875 41.21875 74.21875 
Q 47.75 74.21875 53.53125 72.484375 
Q 59.328125 70.75 64.40625 67.28125 
" id="DejaVuSans-43"/>
      <path d="M 18.109375 8.203125 
L 18.109375 -20.796875 
L 9.078125 -20.796875 
L 9.078125 54.6875 
L 18.109375 54.6875 
L 18.109375 46.390625 
Q 20.953125 51.265625 25.265625 53.625 
Q 29.59375 56 35.59375 56 
Q 45.5625 56 51.78125 48.09375 
Q 58.015625 40.1875 58.015625 27.296875 
Q 58.015625 14.40625 51.78125 6.484375 
Q 45.5625 -1.421875 35.59375 -1.421875 
Q 29.59375 -1.421875 25.265625 0.953125 
Q 20.953125 3.328125 18.109375 8.203125 
M 48.6875 27.296875 
Q 48.6875 37.203125 44.609375 42.84375 
Q 40.53125 48.484375 33.40625 48.484375 
Q 26.265625 48.484375 22.1875 42.84375 
Q 18.109375 37.203125 18.109375 27.296875 
Q 18.109375 17.390625 22.1875 11.75 
Q 26.265625 6.109375 33.40625 6.109375 
Q 40.53125 6.109375 44.609375 11.75 
Q 48.6875 17.390625 48.6875 27.296875 
" id="DejaVuSans-70"/>
      <path d="M 34.28125 27.484375 
Q 23.390625 27.484375 19.1875 25 
Q 14.984375 22.515625 14.984375 16.5 
Q 14.984375 11.71875 18.140625 8.90625 
Q 21.296875 6.109375 26.703125 6.109375 
Q 34.1875 6.109375 38.703125 11.40625 
Q 43.21875 16.703125 43.21875 25.484375 
L 43.21875 27.484375 
z
M 52.203125 31.203125 
L 52.203125 0 
L 43.21875 0 
L 43.21875 8.296875 
Q 40.140625 3.328125 35.546875 0.953125 
Q 30.953125 -1.421875 24.3125 -1.421875 
Q 15.921875 -1.421875 10.953125 3.296875 
Q 6 8.015625 6 15.921875 
Q 6 25.140625 12.171875 29.828125 
Q 18.359375 34.515625 30.609375 34.515625 
L 43.21875 34.515625 
L 43.21875 35.40625 
Q 43.21875 41.609375 39.140625 45 
Q 35.0625 48.390625 27.6875 48.390625 
Q 23 48.390625 18.546875 47.265625 
Q 14.109375 46.140625 10.015625 43.890625 
L 10.015625 52.203125 
Q 14.9375 54.109375 19.578125 55.046875 
Q 24.21875 56 28.609375 56 
Q 40.484375 56 46.34375 49.84375 
Q 52.203125 43.703125 52.203125 31.203125 
" id="DejaVuSans-61"/>
      <path d="M 32.171875 -5.078125 
Q 28.375 -14.84375 24.75 -17.8125 
Q 21.140625 -20.796875 15.09375 -20.796875 
L 7.90625 -20.796875 
L 7.90625 -13.28125 
L 13.1875 -13.28125 
Q 16.890625 -13.28125 18.9375 -11.515625 
Q 21 -9.765625 23.484375 -3.21875 
L 25.09375 0.875 
L 2.984375 54.6875 
L 12.5 54.6875 
L 29.59375 11.921875 
L 46.6875 54.6875 
L 56.203125 54.6875 
z
" id="DejaVuSans-79"/>
     </defs>
     <g transform="translate(28.617187 223.843625)rotate(-90)scale(0.1 -0.1)">
      <use xlink:href="#DejaVuSans-43"/>
      <use x="69.824219" xlink:href="#DejaVuSans-6f"/>
      <use x="131.005859" xlink:href="#DejaVuSans-6c"/>
      <use x="158.789062" xlink:href="#DejaVuSans-6c"/>
      <use x="186.572266" xlink:href="#DejaVuSans-69"/>
      <use x="214.355469" xlink:href="#DejaVuSans-73"/>
      <use x="266.455078" xlink:href="#DejaVuSans-69"/>
      <use x="294.238281" xlink:href="#DejaVuSans-6f"/>
      <use x="355.419922" xlink:href="#DejaVuSans-6e"/>
      <use x="418.798828" xlink:href="#DejaVuSans-20"/>
      <use x="450.585938" xlink:href="#DejaVuSans-70"/>
      <use x="514.0625" xlink:href="#DejaVuSans-72"/>
      <use x="555.144531" xlink:href="#DejaVuSans-6f"/>
      <use x="616.326172" xlink:href="#DejaVuSans-62"/>
      <use x="679.802734" xlink:href="#DejaVuSans-61"/>
      <use x="741.082031" xlink:href="#DejaVuSans-62"/>
      <use x="804.558594" xlink:href="#DejaVuSans-69"/>
      <use x="832.341797" xlink:href="#DejaVuSans-6c"/>
      <use x="860.125" xlink:href="#DejaVuSans-69"/>
      <use x="887.908203" xlink:href="#DejaVuSans-74"/>
      <use x="927.117188" xlink:href="#DejaVuSans-79"/>
     </g>
    </g>
   </g>
   <g id="line2d_25">
    <path clip-path="url(#p4810a9a3f5)" d="M 73.832727 295.487673 
L 79.0272 295.392655 
L 80.975127 295.08686 
L 82.273745 294.593919 
L 83.247709 293.639974 
L 83.572364 293.037417 
L 83.897018 292.71905 
L 84.546327 291.124349 
L 84.870982 290.06999 
L 85.520291 286.771984 
L 86.1696 282.637692 
L 86.818909 275.627908 
L 87.468218 263.250973 
L 88.442182 235.543669 
L 89.091491 199.242068 
L 89.7408 150.24979 
L 90.390109 115.177604 
L 91.364073 85.737033 
L 91.688727 80.850539 
L 92.013382 294.022192 
L 92.662691 293.695395 
L 93.636655 293.044788 
L 93.961309 292.510876 
L 94.285964 292.382161 
L 94.935273 291.607921 
L 95.259927 290.880985 
L 95.584582 290.62093 
L 96.233891 289.666407 
L 96.558545 288.944168 
L 97.532509 285.657964 
L 97.857164 285.344101 
L 98.181818 283.425902 
L 98.506473 282.933249 
L 98.831127 281.331467 
L 99.480436 276.137035 
L 99.805091 275.53036 
L 100.129745 271.599233 
L 100.4544 269.5851 
L 101.428364 259.500562 
L 101.753018 254.114672 
L 102.077673 251.16791 
L 102.726982 241.965613 
L 103.700945 216.85149 
L 104.0256 212.647518 
L 105.648873 148.269762 
L 105.973527 142.56182 
L 106.622836 124.107538 
L 106.947491 116.23943 
L 107.272145 111.709841 
L 107.921455 98.207036 
L 108.246109 94.008603 
L 108.570764 88.152605 
L 109.544727 83.129279 
L 109.869382 76.525102 
L 110.194036 75.5845 
L 110.518691 71.727653 
L 110.843345 69.652535 
L 111.168 69.873306 
L 111.492655 280.39166 
L 112.791273 274.77192 
L 113.115927 273.998715 
L 113.440582 271.177898 
L 113.765236 269.645989 
L 114.089891 267.20267 
L 114.414545 266.802459 
L 114.7392 266.162256 
L 116.687127 246.879757 
L 117.011782 240.860288 
L 117.336436 238.624854 
L 117.661091 232.10977 
L 117.985745 227.861817 
L 118.3104 221.804582 
L 118.635055 219.739218 
L 118.959709 213.165003 
L 119.609018 195.915424 
L 119.933673 190.569299 
L 120.907636 169.034651 
L 121.232291 157.137097 
L 122.206255 138.236166 
L 122.530909 135.091611 
L 123.180218 124.71956 
L 123.829527 110.685757 
L 124.154182 110.536329 
L 124.478836 101.770275 
L 125.128145 95.940868 
L 125.4528 97.90601 
L 125.777455 92.308526 
L 127.076073 79.907625 
L 127.400727 81.19292 
L 127.725382 78.102124 
L 128.050036 76.585292 
L 128.374691 76.0614 
L 128.699345 72.327488 
L 129.024 69.952452 
L 129.348655 69.342767 
L 129.673309 69.784526 
L 129.997964 69.627486 
L 130.322618 67.028548 
L 130.647273 67.100276 
L 130.971927 245.352448 
L 131.296582 242.931143 
L 131.621236 239.441847 
L 132.270545 235.956694 
L 132.5952 227.857698 
L 133.244509 223.845618 
L 133.569164 220.384334 
L 134.218473 207.773116 
L 134.543127 204.815298 
L 134.867782 199.25387 
L 135.192436 191.74245 
L 135.517091 186.828812 
L 135.841745 184.494072 
L 136.815709 160.975373 
L 137.140364 154.503234 
L 137.465018 151.804244 
L 137.789673 145.808499 
L 138.114327 142.262698 
L 138.438982 136.896245 
L 138.763636 134.41776 
L 139.412945 123.332816 
L 139.7376 121.905535 
L 140.386909 110.525538 
L 140.711564 111.571371 
L 141.036218 109.827626 
L 141.360873 104.848498 
L 141.685527 102.551501 
L 142.010182 101.575541 
L 142.334836 96.498215 
L 142.659491 93.729327 
L 142.984145 89.036412 
L 143.3088 92.433266 
L 143.958109 84.112802 
L 144.607418 85.319456 
L 144.932073 80.985781 
L 145.256727 80.500571 
L 145.581382 80.590219 
L 145.906036 79.357648 
L 146.555345 74.448514 
L 146.88 76.565132 
L 147.204655 72.780447 
L 147.529309 72.935969 
L 147.853964 69.551664 
L 148.178618 69.181054 
L 148.503273 71.327683 
L 148.827927 69.636831 
L 149.152582 66.366981 
L 149.477236 67.026404 
L 149.801891 67.081007 
L 150.126545 65.316452 
L 150.4512 197.878976 
L 150.775855 191.052149 
L 151.100509 181.306282 
L 151.425164 182.587073 
L 151.749818 177.808002 
L 152.074473 165.996097 
L 152.399127 166.609155 
L 152.723782 157.117322 
L 153.048436 151.645205 
L 153.373091 156.293802 
L 153.697745 142.521163 
L 154.0224 145.24542 
L 155.321018 125.366795 
L 155.645673 128.533485 
L 155.970327 123.425426 
L 156.294982 120.48589 
L 156.619636 119.517517 
L 156.944291 116.189741 
L 157.268945 109.666347 
L 157.5936 107.70489 
L 157.918255 108.777024 
L 158.242909 104.20054 
L 158.567564 102.736577 
L 158.892218 99.540261 
L 159.216873 98.918291 
L 159.866182 94.387907 
L 160.190836 93.673424 
L 160.515491 89.256195 
L 160.840145 87.055301 
L 161.1648 89.827536 
L 161.489455 86.768028 
L 161.814109 86.219015 
L 162.138764 82.336734 
L 162.463418 82.898199 
L 162.788073 82.700527 
L 163.762036 76.362691 
L 164.086691 76.504123 
L 164.411345 75.976112 
L 165.060655 73.611939 
L 165.385309 71.225054 
L 165.709964 74.891068 
L 166.359273 71.49614 
L 166.683927 71.861932 
L 167.008582 69.132088 
L 167.333236 69.256539 
L 167.657891 66.691948 
L 167.982545 65.545123 
L 168.3072 66.576384 
L 168.631855 66.837716 
L 168.956509 66.578961 
L 169.281164 66.734773 
L 169.605818 67.142691 
L 170.255127 62.438238 
L 170.904436 64.782035 
L 171.553745 63.316843 
L 171.8784 64.263418 
L 172.203055 63.293985 
L 172.852364 62.964587 
L 173.177018 119.485001 
L 173.501673 114.691696 
L 174.150982 109.489942 
L 174.475636 104.920419 
L 174.800291 98.713585 
L 175.124945 106.236398 
L 175.774255 99.382956 
L 176.098909 99.814117 
L 176.423564 96.640563 
L 176.748218 96.990579 
L 177.072873 93.843229 
L 177.397527 93.677543 
L 177.722182 93.354166 
L 178.046836 87.374679 
L 178.371491 88.492119 
L 178.696145 88.498093 
L 179.0208 86.827954 
L 179.345455 86.578352 
L 179.670109 82.559215 
L 180.319418 82.396756 
L 180.644073 82.76474 
L 180.968727 81.260673 
L 181.293382 80.779413 
L 181.618036 80.898012 
L 181.942691 77.115061 
L 182.267345 76.12742 
L 182.592 76.065206 
L 182.916655 74.75308 
L 183.241309 72.791912 
L 183.565964 75.118463 
L 183.890618 74.620824 
L 184.215273 73.501241 
L 184.539927 73.688003 
L 184.864582 72.152408 
L 185.189236 69.438701 
L 185.513891 69.449395 
L 185.838545 69.240281 
L 186.1632 68.43497 
L 186.487855 68.577077 
L 186.812509 71.241914 
L 187.137164 66.438227 
L 187.461818 66.199873 
L 187.786473 67.090304 
L 188.435782 65.865947 
L 188.760436 62.900928 
L 189.085091 64.149202 
L 189.409745 111.274296 
L 189.7344 119.139297 
L 190.059055 111.608993 
L 190.383709 114.088393 
L 192.006982 103.256904 
L 192.331636 102.058342 
L 192.656291 106.147184 
L 192.980945 96.821375 
L 193.3056 99.240681 
L 193.630255 95.375813 
L 193.954909 95.115879 
L 194.279564 96.309141 
L 194.604218 90.03205 
L 194.928873 91.573136 
L 195.253527 90.836036 
L 195.578182 91.814982 
L 195.902836 88.18317 
L 196.227491 86.465799 
L 196.552145 88.931036 
L 196.8768 85.435646 
L 197.201455 87.405076 
L 197.526109 81.025354 
L 197.850764 84.016434 
L 198.175418 85.761937 
L 198.500073 81.311278 
L 198.824727 82.67567 
L 199.149382 81.87915 
L 199.474036 77.653982 
L 199.798691 78.78202 
L 200.123345 74.565114 
L 200.448 76.362763 
L 200.772655 76.387162 
L 201.097309 75.22868 
L 201.421964 76.379888 
L 202.071273 72.819562 
L 202.395927 72.822116 
L 202.720582 72.971279 
L 203.045236 70.717155 
L 203.369891 72.199399 
L 203.694545 71.842085 
L 204.343855 69.687436 
L 204.668509 71.198704 
L 204.993164 70.338477 
L 205.317818 66.873122 
L 205.967127 68.847513 
L 206.941091 65.442132 
L 207.265745 66.394367 
L 207.5904 66.478499 
L 207.915055 63.312387 
L 208.239709 65.174947 
L 208.564364 64.312191 
L 208.889018 64.173938 
L 209.213673 65.662999 
L 209.538327 62.503174 
L 209.862982 62.328262 
L 210.187636 62.915693 
L 210.512291 64.138797 
L 210.836945 61.888165 
L 211.1616 62.992141 
L 211.486255 62.159902 
L 211.810909 63.652263 
L 212.135564 93.265819 
L 212.460218 90.324693 
L 212.784873 92.811848 
L 213.109527 91.154066 
L 213.434182 91.327147 
L 213.758836 88.285487 
L 214.083491 86.412111 
L 214.408145 85.886678 
L 214.7328 83.243687 
L 215.057455 84.154446 
L 215.382109 84.099868 
L 215.706764 79.81186 
L 216.031418 82.132775 
L 216.356073 81.779892 
L 216.680727 79.826239 
L 217.005382 80.169704 
L 217.330036 77.281013 
L 217.654691 77.788839 
L 217.979345 77.974903 
L 218.304 79.143814 
L 218.628655 76.518093 
L 218.953309 77.549787 
L 219.277964 75.244046 
L 219.602618 74.740676 
L 219.927273 73.244269 
L 220.251927 73.059 
L 220.576582 73.219629 
L 220.901236 71.863522 
L 221.225891 73.461331 
L 221.550545 71.906708 
L 221.8752 72.52504 
L 222.199855 72.526221 
L 222.524509 71.540121 
L 222.849164 68.835301 
L 223.173818 68.832267 
L 223.823127 69.953127 
L 224.147782 69.836479 
L 224.472436 66.330852 
L 224.797091 66.784125 
L 225.121745 65.104111 
L 225.4464 65.174393 
L 225.771055 67.850888 
L 226.420364 65.010369 
L 226.745018 67.395135 
L 227.069673 67.428855 
L 227.394327 63.760914 
L 227.718982 64.730081 
L 228.043636 64.981562 
L 228.368291 96.623895 
L 228.692945 93.761072 
L 229.0176 92.347641 
L 229.342255 92.71129 
L 229.666909 94.538348 
L 229.991564 88.245143 
L 230.316218 90.824258 
L 230.640873 88.302732 
L 230.965527 88.432242 
L 231.290182 89.357717 
L 231.614836 86.49475 
L 231.939491 88.25155 
L 232.264145 86.669035 
L 232.5888 83.202621 
L 232.913455 84.586475 
L 233.238109 82.530794 
L 233.887418 83.396946 
L 234.212073 83.104471 
L 234.536727 81.573452 
L 234.861382 78.914396 
L 235.186036 81.140798 
L 235.510691 80.544215 
L 235.835345 77.753264 
L 236.16 77.405609 
L 236.809309 74.852555 
L 237.133964 77.607352 
L 237.458618 75.071567 
L 237.783273 74.003407 
L 238.107927 75.595363 
L 238.432582 73.733188 
L 238.757236 73.176949 
L 239.081891 72.971038 
L 239.406545 72.580727 
L 239.7312 72.508301 
L 240.380509 70.23392 
L 240.705164 72.614062 
L 241.029818 70.258223 
L 241.354473 69.213522 
L 241.679127 71.575118 
L 242.003782 68.657765 
L 242.328436 69.252758 
L 242.653091 66.588451 
L 242.977745 67.207121 
L 243.3024 69.177995 
L 243.627055 69.391781 
L 244.276364 67.342387 
L 244.601018 66.059525 
L 244.925673 65.72543 
L 245.250327 66.090981 
L 245.574982 65.4041 
L 245.899636 67.13809 
L 246.224291 65.944636 
L 246.548945 66.376616 
L 246.8736 64.336663 
L 247.198255 65.442855 
L 247.522909 63.658284 
L 247.847564 63.844516 
L 248.172218 64.318839 
L 248.496873 62.76754 
L 248.821527 62.922894 
L 249.146182 64.428815 
L 249.470836 62.241312 
L 249.795491 64.150792 
L 250.120145 62.944162 
L 250.4448 64.553267 
L 250.769455 63.170184 
L 251.094109 81.705877 
L 251.743418 84.24065 
L 252.068073 80.208458 
L 252.392727 81.404418 
L 252.717382 77.508311 
L 253.042036 78.083409 
L 253.366691 80.849913 
L 253.691345 78.399898 
L 254.016 78.478346 
L 254.989964 75.430278 
L 255.314618 78.505129 
L 255.963927 74.70103 
L 256.288582 76.351226 
L 256.613236 71.262531 
L 256.937891 74.900341 
L 257.262545 71.840568 
L 257.5872 72.716884 
L 257.911855 72.712428 
L 258.236509 72.060641 
L 258.561164 70.48292 
L 258.885818 70.952257 
L 259.210473 71.769081 
L 259.535127 69.627004 
L 259.859782 69.821666 
L 260.184436 71.234808 
L 260.509091 68.358305 
L 260.833745 69.658533 
L 261.1584 70.075459 
L 261.807709 67.067061 
L 262.132364 69.332506 
L 262.457018 68.164125 
L 262.781673 69.531022 
L 263.106327 66.746189 
L 263.430982 67.96715 
L 263.755636 65.743254 
L 264.080291 66.23817 
L 264.404945 64.452419 
L 265.054255 66.648666 
L 265.378909 65.940589 
L 265.703564 64.819657 
L 266.028218 64.731623 
L 266.352873 64.12502 
L 266.677527 64.841021 
L 267.002182 63.623263 
L 267.326836 64.541417 
L 267.651491 61.962928 
L 267.976145 63.211587 
L 268.3008 63.919977 
L 268.625455 64.216209 
L 268.950109 62.397533 
L 269.274764 62.839148 
L 269.599418 63.085137 
L 269.924073 64.100163 
L 270.248727 62.199499 
L 270.573382 63.857522 
L 270.898036 62.626084 
L 271.222691 61.83337 
L 271.547345 62.92776 
L 271.872 62.020589 
L 272.196655 61.930123 
L 272.521309 62.450691 
L 272.845964 60.578135 
L 273.495273 61.101858 
L 273.819927 63.57567 
L 274.144582 63.086269 
L 275.118545 60.126284 
L 275.4432 60.452141 
L 275.767855 60.578399 
L 276.092509 62.171439 
L 276.417164 61.325134 
L 276.741818 61.067078 
L 277.066473 60.447107 
L 277.391127 60.703429 
L 277.715782 59.531411 
L 278.365091 61.550794 
L 278.689745 60.350981 
L 279.0144 61.49347 
L 279.339055 58.499355 
L 279.663709 61.96748 
L 279.988364 61.189314 
L 280.313018 60.722361 
L 280.637673 60.979526 
L 280.962327 60.24322 
L 281.286982 61.126642 
L 281.611636 60.059469 
L 281.936291 60.805048 
L 282.260945 60.257118 
L 282.5856 60.292982 
L 282.910255 58.965874 
L 283.234909 58.230749 
L 283.559564 59.584496 
L 283.884218 58.066267 
L 284.533527 59.924829 
L 284.858182 58.725425 
L 285.182836 59.158874 
L 285.507491 60.134232 
L 285.832145 60.087289 
L 286.1568 59.86117 
L 286.481455 58.63373 
L 286.806109 60.002651 
L 287.130764 59.730456 
L 287.455418 57.636985 
L 287.780073 59.223786 
L 288.104727 57.957351 
L 288.429382 59.296308 
L 288.754036 59.647553 
L 289.078691 59.659499 
L 289.403345 59.075248 
L 289.728 59.107957 
L 290.052655 57.633348 
L 290.377309 58.001741 
L 290.701964 59.239803 
L 291.351273 58.092376 
L 291.675927 59.229157 
L 292.000582 58.76389 
L 292.325236 58.531052 
L 292.649891 58.108152 
L 292.974545 58.872108 
L 293.2992 57.980545 
L 293.948509 59.420013 
L 294.273164 58.199077 
L 294.597818 59.179372 
L 294.922473 56.74718 
L 295.247127 58.287785 
L 295.896436 55.907378 
L 296.221091 57.292147 
L 296.545745 56.884903 
L 296.8704 57.661552 
L 297.195055 59.010891 
L 297.519709 58.347012 
L 297.844364 58.863798 
L 298.169018 57.976499 
L 298.493673 57.826829 
L 298.818327 57.331503 
L 299.142982 57.098111 
L 299.792291 57.27849 
L 300.116945 57.813919 
L 300.4416 56.42178 
L 300.766255 56.864984 
L 301.090909 57.070316 
L 301.415564 56.701826 
L 301.740218 56.687375 
L 302.064873 57.74631 
L 302.389527 57.920812 
L 302.714182 56.470674 
L 303.038836 56.831047 
L 303.363491 56.540427 
L 303.688145 58.177953 
L 304.0128 56.851207 
L 304.337455 56.263993 
L 304.662109 56.845282 
L 304.986764 56.63111 
L 305.311418 56.205561 
L 305.636073 56.88353 
L 306.285382 56.990014 
L 306.610036 58.417174 
L 307.259345 57.113406 
L 307.584 58.345928 
L 307.908655 56.507502 
L 308.233309 56.644309 
L 308.557964 56.280637 
L 308.882618 57.191444 
L 309.207273 57.496034 
L 309.531927 56.60423 
L 309.856582 56.297497 
L 310.181236 56.193494 
L 310.505891 57.056732 
L 310.830545 56.80489 
L 311.1552 56.295185 
L 311.479855 57.585561 
L 311.804509 56.901884 
L 312.129164 56.990158 
L 312.453818 57.883479 
L 312.778473 57.472141 
L 313.103127 58.482471 
L 313.427782 56.12049 
L 313.752436 56.628027 
L 314.077091 56.244604 
L 314.401745 57.486809 
L 314.7264 56.756429 
L 315.051055 56.335842 
L 315.375709 57.823746 
L 315.700364 57.684699 
L 316.025018 56.131931 
L 316.349673 56.789451 
L 316.674327 55.767054 
L 316.998982 55.57468 
L 317.323636 56.74034 
L 317.648291 56.065454 
L 317.972945 56.338419 
L 318.2976 57.382252 
L 318.946909 55.970435 
L 319.271564 57.196743 
L 319.596218 56.730416 
L 319.920873 56.701128 
L 320.245527 55.985946 
L 320.570182 56.212137 
L 320.894836 57.295664 
L 321.219491 56.576411 
L 321.8688 57.812426 
L 322.193455 56.753972 
L 322.518109 56.084987 
L 322.842764 56.301953 
L 323.167418 56.995795 
L 323.492073 56.481489 
L 323.816727 55.749953 
L 324.141382 55.712355 
L 324.466036 55.534216 
L 324.790691 56.157076 
L 325.115345 56.505551 
L 325.764655 56.079592 
L 326.089309 55.568129 
L 326.413964 55.854967 
L 326.738618 55.832061 
L 327.063273 56.742965 
L 327.712582 55.863397 
L 328.037236 55.261371 
L 329.0112 56.523061 
L 329.335855 57.589656 
L 329.985164 55.560445 
L 330.309818 55.788418 
L 330.959127 55.83052 
L 331.283782 56.728465 
L 331.608436 55.625886 
L 332.257745 55.445748 
L 332.5824 56.907664 
L 332.907055 56.192121 
L 333.231709 55.983851 
L 333.556364 56.485704 
L 333.881018 56.474865 
L 334.205673 55.766837 
L 334.854982 56.29952 
L 335.179636 56.076268 
L 335.504291 56.453092 
L 335.828945 56.632748 
L 336.1536 55.665797 
L 336.478255 56.069861 
L 336.802909 55.047296 
L 337.127564 55.376622 
L 337.452218 56.924091 
L 337.776873 55.359978 
L 338.101527 56.172636 
L 338.426182 56.169505 
L 338.750836 56.78037 
L 339.075491 56.625017 
L 339.400145 57.284223 
L 339.7248 56.340008 
L 340.049455 56.477804 
L 340.374109 55.805663 
L 340.698764 55.901284 
L 341.023418 55.437776 
L 341.348073 56.52506 
L 341.672727 55.730251 
L 341.997382 56.346078 
L 342.322036 55.343504 
L 342.646691 56.309636 
L 342.971345 56.220567 
L 343.296 55.706068 
L 343.620655 55.994858 
L 343.945309 55.916338 
L 344.269964 56.132364 
L 344.594618 55.882136 
L 344.919273 55.831267 
L 345.243927 55.122925 
L 345.568582 55.932235 
L 345.893236 54.954035 
L 346.217891 55.994497 
L 346.8672 55.267103 
L 347.841164 55.690533 
L 348.165818 57.167888 
L 348.490473 55.327511 
L 348.815127 56.060131 
L 349.139782 55.632582 
L 349.464436 56.301038 
L 349.789091 55.353331 
L 350.113745 56.14354 
L 350.4384 55.773774 
L 350.763055 56.425417 
L 351.087709 55.474362 
L 351.412364 56.790559 
L 351.737018 55.716184 
L 352.061673 55.688293 
L 352.386327 55.78348 
L 352.710982 57.026335 
L 353.035636 55.299258 
L 353.360291 56.606543 
L 354.0096 55.010541 
L 354.334255 55.45625 
L 354.658909 55.04585 
L 354.983564 56.72242 
L 355.308218 55.320453 
L 355.957527 56.742098 
L 356.282182 56.975249 
L 356.606836 56.407256 
L 356.931491 55.257854 
L 357.256145 56.049822 
L 357.5808 55.902055 
L 357.905455 55.140869 
L 358.230109 55.439004 
L 358.554764 55.461597 
L 358.879418 55.222954 
L 359.853382 56.163868 
L 360.178036 56.277843 
L 360.502691 55.881389 
L 360.827345 55.775604 
L 361.476655 56.529372 
L 361.801309 55.278159 
L 362.125964 55.363399 
L 362.450618 56.207343 
L 362.775273 56.086721 
L 363.424582 54.783676 
L 363.749236 54.943124 
L 364.073891 55.659438 
L 364.398545 54.75576 
L 364.7232 55.315468 
L 365.372509 55.609267 
L 365.697164 56.70515 
L 366.346473 55.272306 
L 366.995782 55.88334 
L 367.320436 56.641419 
L 367.645091 56.216159 
L 367.969745 55.477831 
L 368.619055 56.191158 
L 368.943709 56.313875 
L 369.268364 54.985419 
L 369.917673 55.780759 
L 370.566982 55.273606 
L 370.891636 55.099803 
L 371.216291 56.456343 
L 371.540945 55.775917 
L 371.8656 56.189086 
L 372.190255 55.343937 
L 372.514909 55.41027 
L 373.164218 55.973662 
L 373.488873 55.585591 
L 373.813527 55.678032 
L 374.138182 55.927417 
L 374.462836 55.951094 
L 374.787491 55.329221 
L 375.4368 56.076003 
L 375.761455 55.154695 
L 376.086109 55.231095 
L 376.410764 56.029807 
L 376.735418 55.120179 
L 377.060073 55.653682 
L 377.384727 55.516729 
L 377.709382 55.837601 
L 378.034036 55.27787 
L 378.358691 56.049653 
L 378.683345 55.310048 
L 379.008 55.874669 
L 379.332655 55.901212 
L 380.306618 54.928673 
L 380.955927 55.578943 
L 381.280582 55.292731 
L 381.605236 55.378019 
L 381.929891 56.352268 
L 382.254545 56.346488 
L 382.903855 54.942835 
L 383.228509 56.169288 
L 383.877818 55.556615 
L 384.202473 55.646094 
L 384.527127 55.523425 
L 384.851782 55.157729 
L 385.176436 55.696386 
L 385.825745 55.829388 
L 386.1504 55.841551 
L 386.475055 54.826019 
L 386.799709 55.885147 
L 387.124364 56.552783 
L 387.449018 55.413521 
L 387.773673 55.133643 
L 388.098327 55.981177 
L 388.422982 55.457189 
L 388.747636 55.369131 
L 389.072291 56.090286 
L 389.7216 55.174108 
L 390.046255 56.19677 
L 390.370909 55.560108 
L 390.695564 55.329293 
L 391.020218 55.919951 
L 391.344873 55.588674 
L 391.669527 54.823851 
L 392.318836 55.812407 
L 392.643491 55.303906 
L 392.968145 55.744509 
L 393.2928 55.764019 
L 393.617455 55.295404 
L 393.942109 55.33411 
L 394.266764 55.676756 
L 394.591418 55.230059 
L 394.916073 55.775749 
L 395.240727 55.509937 
L 395.565382 56.381195 
L 395.890036 55.423011 
L 396.214691 55.342203 
L 396.539345 55.834085 
L 396.864 55.007458 
L 397.513309 56.300459 
L 397.837964 56.474624 
L 398.162618 55.592142 
L 398.487273 56.147803 
L 398.487273 56.147803 
" style="fill:none;stroke:#008000;stroke-linecap:square;"/>
   </g>
   <g id="patch_3">
    <path d="M 57.6 307.584 
L 57.6 41.472 
" style="fill:none;stroke:#000000;stroke-linecap:square;stroke-linejoin:miter;stroke-width:0.8;"/>
   </g>
   <g id="patch_4">
    <path d="M 414.72 307.584 
L 414.72 41.472 
" style="fill:none;stroke:#000000;stroke-linecap:square;stroke-linejoin:miter;stroke-width:0.8;"/>
   </g>
   <g id="patch_5">
    <path d="M 57.6 307.584 
L 414.72 307.584 
" style="fill:none;stroke:#000000;stroke-linecap:square;stroke-linejoin:miter;stroke-width:0.8;"/>
   </g>
   <g id="patch_6">
    <path d="M 57.6 41.472 
L 414.72 41.472 
" style="fill:none;stroke:#000000;stroke-linecap:square;stroke-linejoin:miter;stroke-width:0.8;"/>
   </g>
   <g id="text_15">
    <!-- Test -->
    <defs>
     <path d="M -0.296875 72.90625 
L 61.375 72.90625 
L 61.375 64.59375 
L 35.5 64.59375 
L 35.5 0 
L 25.59375 0 
L 25.59375 64.59375 
L -0.296875 64.59375 
z
" id="DejaVuSans-54"/>
    </defs>
    <g transform="translate(223.341563 35.472)scale(0.12 -0.12)">
     <use xlink:href="#DejaVuSans-54"/>
     <use x="60.818359" xlink:href="#DejaVuSans-65"/>
     <use x="122.341797" xlink:href="#DejaVuSans-73"/>
     <use x="174.441406" xlink:href="#DejaVuSans-74"/>
    </g>
   </g>
  </g>
 </g>
 <defs>
  <clipPath id="p4810a9a3f5">
   <rect height="266.112" width="357.12" x="57.6" y="41.472"/>
  </clipPath>
 </defs>
</svg>
