<?xml version="1.0" encoding="utf-8" standalone="no"?>
<!DOCTYPE svg PUBLIC "-//W3C//DTD SVG 1.1//EN"
  "http://www.w3.org/Graphics/SVG/1.1/DTD/svg11.dtd">
<!-- Created with matplotlib (http://matplotlib.org/) -->
<svg height="345pt" version="1.1" viewBox="0 0 460 345" width="460pt" xmlns="http://www.w3.org/2000/svg" xmlns:xlink="http://www.w3.org/1999/xlink">
 <defs>
  <style type="text/css">
*{stroke-linecap:butt;stroke-linejoin:round;}
  </style>
 </defs>
 <g id="figure_1">
  <g id="patch_1">
   <path d="M 0 345.6 
L 460.8 345.6 
L 460.8 0 
L 0 0 
z
" style="fill:#ffffff;"/>
  </g>
  <g id="axes_1">
   <g id="patch_2">
    <path d="M 57.6 307.584 
L 414.72 307.584 
L 414.72 41.472 
L 57.6 41.472 
z
" style="fill:#ffffff;"/>
   </g>
   <g id="PolyCollection_1">
    <defs>
     <path d="M 73.832727 -50.13147 
L 73.832727 -50.118878 
L 74.157382 -50.112 
L 74.482036 -50.119843 
L 74.806691 -50.118842 
L 75.131345 -50.12181 
L 75.456 -50.116331 
L 75.780655 -50.123411 
L 76.105309 -50.123027 
L 76.429964 -50.127264 
L 76.754618 -50.124036 
L 77.079273 -50.126635 
L 77.403927 -50.132786 
L 77.728582 -50.136931 
L 78.053236 -50.127072 
L 78.377891 -50.132878 
L 78.702545 -50.147565 
L 79.0272 -50.147207 
L 79.351855 -50.14506 
L 79.676509 -50.15097 
L 80.001164 -50.141159 
L 80.325818 -50.155889 
L 80.650473 -50.150265 
L 80.975127 -50.157506 
L 81.299782 -50.149304 
L 81.624436 -50.164331 
L 81.949091 -50.153036 
L 82.273745 -50.163175 
L 82.5984 -50.167865 
L 82.923055 -50.171318 
L 83.247709 -50.171746 
L 83.572364 -50.185528 
L 83.897018 -50.175225 
L 84.221673 -50.181273 
L 84.546327 -50.192902 
L 84.870982 -50.188878 
L 85.195636 -50.192681 
L 85.520291 -50.21327 
L 85.844945 -50.218783 
L 86.1696 -50.225655 
L 86.494255 -50.224476 
L 86.818909 -50.216525 
L 87.143564 -50.244229 
L 87.468218 -50.206807 
L 87.792873 -50.249177 
L 88.117527 -50.227944 
L 88.442182 -50.241028 
L 88.766836 -50.261085 
L 89.091491 -50.274626 
L 89.416145 -50.286648 
L 89.7408 -50.282804 
L 90.065455 -50.271247 
L 90.390109 -50.329641 
L 90.714764 -50.306943 
L 91.039418 -50.327163 
L 91.364073 -50.355331 
L 91.688727 -50.349461 
L 92.013382 -50.369415 
L 92.338036 -50.335744 
L 92.662691 -50.358882 
L 92.987345 -50.355021 
L 93.312 -50.352581 
L 93.636655 -50.357512 
L 93.961309 -50.403823 
L 94.285964 -50.38858 
L 94.610618 -50.419136 
L 94.935273 -50.431158 
L 95.259927 -50.413823 
L 95.584582 -50.445936 
L 95.909236 -50.549126 
L 96.233891 -50.509843 
L 96.558545 -50.50457 
L 96.8832 -50.484825 
L 97.207855 -50.490873 
L 97.532509 -50.540851 
L 97.857164 -50.645472 
L 98.181818 -50.583071 
L 98.506473 -50.68337 
L 98.831127 -50.720571 
L 99.155782 -50.792977 
L 99.480436 -50.741982 
L 99.805091 -50.612869 
L 100.129745 -50.721607 
L 100.4544 -50.67981 
L 100.779055 -50.846788 
L 101.103709 -50.782292 
L 101.428364 -50.925297 
L 101.753018 -50.975844 
L 102.077673 -50.957586 
L 102.402327 -50.942056 
L 102.726982 -51.192778 
L 103.051636 -51.144881 
L 103.376291 -50.993526 
L 103.700945 -51.119689 
L 104.0256 -51.185963 
L 104.350255 -51.134227 
L 104.674909 -51.212322 
L 104.999564 -51.106778 
L 105.324218 -51.579162 
L 105.648873 -51.48473 
L 105.973527 -51.347812 
L 106.298182 -51.426761 
L 106.622836 -51.553544 
L 106.947491 -51.580871 
L 107.272145 -51.557144 
L 107.5968 -51.529544 
L 107.921455 -51.791491 
L 108.246109 -51.65568 
L 108.570764 -51.561195 
L 108.895418 -51.986751 
L 109.220073 -51.889512 
L 109.544727 -52.238499 
L 109.869382 -52.058978 
L 110.194036 -52.028393 
L 110.518691 -51.843607 
L 110.843345 -52.305652 
L 111.168 -52.341413 
L 111.492655 -52.919569 
L 111.817309 -52.851426 
L 112.141964 -52.868759 
L 112.466618 -52.948724 
L 112.791273 -53.316547 
L 113.115927 -52.598634 
L 113.440582 -53.271149 
L 113.765236 -53.465508 
L 114.089891 -54.121946 
L 114.414545 -53.669721 
L 114.7392 -54.049404 
L 115.063855 -54.468212 
L 115.388509 -54.438896 
L 115.713164 -54.101808 
L 116.037818 -54.301298 
L 116.362473 -55.16042 
L 116.687127 -54.784642 
L 117.011782 -55.114564 
L 117.336436 -55.342275 
L 117.661091 -54.867899 
L 117.985745 -55.716111 
L 118.3104 -56.612642 
L 118.635055 -56.351254 
L 118.959709 -55.879779 
L 119.284364 -57.000947 
L 119.609018 -56.94156 
L 119.933673 -56.607147 
L 120.258327 -57.355751 
L 120.582982 -57.842417 
L 120.907636 -58.767062 
L 121.232291 -57.747421 
L 121.556945 -58.593352 
L 121.8816 -58.379957 
L 122.206255 -58.544622 
L 122.530909 -60.752166 
L 122.855564 -59.540906 
L 123.180218 -61.784995 
L 123.504873 -61.274198 
L 123.829527 -61.952968 
L 124.154182 -60.789481 
L 124.478836 -61.110894 
L 124.803491 -61.115837 
L 125.128145 -63.025226 
L 125.4528 -65.630473 
L 125.777455 -67.168355 
L 126.102109 -64.384058 
L 126.426764 -64.167096 
L 126.751418 -62.961403 
L 127.076073 -63.486247 
L 127.400727 -67.640037 
L 127.725382 -68.809516 
L 128.050036 -73.143121 
L 128.374691 -69.922405 
L 128.699345 -72.710748 
L 129.024 -71.684488 
L 129.348655 -72.49748 
L 129.673309 -71.29959 
L 129.997964 -72.656373 
L 130.322618 -77.190127 
L 130.647273 -77.252685 
L 130.971927 -75.867143 
L 131.296582 -76.853757 
L 131.621236 -81.03443 
L 131.945891 -80.416014 
L 132.270545 -77.609209 
L 132.5952 -84.639083 
L 132.919855 -87.07474 
L 133.244509 -85.255416 
L 133.569164 -84.588527 
L 133.893818 -89.886281 
L 134.218473 -97.380004 
L 134.543127 -83.132703 
L 134.867782 -95.159756 
L 135.192436 -94.942496 
L 135.517091 -99.747268 
L 135.841745 -99.453807 
L 136.1664 -95.300973 
L 136.491055 -110.977188 
L 136.815709 -110.758349 
L 137.140364 -105.480796 
L 137.465018 -112.577954 
L 137.789673 -114.573588 
L 138.114327 -111.781801 
L 138.438982 -115.3638 
L 138.763636 -118.816535 
L 139.088291 -123.205754 
L 139.412945 -118.426676 
L 139.7376 -137.439969 
L 140.062255 -139.607267 
L 140.386909 -138.211889 
L 140.711564 -139.130602 
L 141.036218 -128.630095 
L 141.360873 -148.4989 
L 141.685527 -150.250141 
L 142.010182 -161.647766 
L 142.334836 -160.882649 
L 142.659491 -167.128197 
L 142.984145 -165.704509 
L 143.3088 -173.613918 
L 143.633455 -175.360868 
L 143.958109 -171.864108 
L 144.282764 -184.853266 
L 144.607418 -195.845157 
L 144.932073 -201.112293 
L 145.256727 -195.441861 
L 145.581382 -194.212873 
L 145.906036 -197.450342 
L 146.230691 -200.80221 
L 146.555345 -211.923198 
L 146.88 -215.840849 
L 147.204655 -213.042918 
L 147.529309 -207.538961 
L 147.853964 -222.667521 
L 148.178618 -221.755153 
L 148.503273 -218.777656 
L 148.827927 -217.360606 
L 149.152582 -224.016813 
L 149.477236 -233.247487 
L 149.801891 -234.915178 
L 150.126545 -230.460303 
L 150.4512 -231.415172 
L 150.775855 -237.969435 
L 151.100509 -239.163126 
L 151.425164 -236.112409 
L 151.749818 -241.907147 
L 152.074473 -244.867408 
L 152.399127 -239.773137 
L 152.723782 -245.754744 
L 153.048436 -252.393773 
L 153.373091 -247.112884 
L 153.697745 -254.526174 
L 154.0224 -250.301816 
L 154.347055 -251.346783 
L 154.671709 -256.859517 
L 154.996364 -258.681244 
L 155.321018 -256.463188 
L 155.645673 -254.398812 
L 155.970327 -260.194581 
L 156.294982 -256.125677 
L 156.619636 -263.79133 
L 156.944291 -257.790506 
L 157.268945 -259.714261 
L 157.5936 -260.227153 
L 157.918255 -265.561096 
L 158.242909 -261.069727 
L 158.567564 -267.028899 
L 158.892218 -262.766774 
L 159.216873 -262.322185 
L 159.541527 -269.357864 
L 159.866182 -270.570538 
L 160.190836 -265.420698 
L 160.515491 -271.518758 
L 160.840145 -268.788801 
L 161.1648 -269.642719 
L 161.489455 -270.377038 
L 161.814109 -269.278056 
L 162.138764 -267.149879 
L 162.463418 -271.128619 
L 162.788073 -272.848992 
L 163.112727 -274.429444 
L 163.437382 -273.02078 
L 163.762036 -274.255959 
L 164.086691 -274.58918 
L 164.411345 -271.806725 
L 164.736 -273.044547 
L 165.060655 -281.266797 
L 165.385309 -279.080089 
L 165.709964 -277.807286 
L 166.034618 -275.191252 
L 166.359273 -277.423115 
L 166.683927 -278.738466 
L 167.008582 -278.972018 
L 167.333236 -276.694164 
L 167.657891 -276.812045 
L 167.982545 -277.605109 
L 168.3072 -275.559215 
L 168.631855 -277.174161 
L 168.956509 -277.997581 
L 169.281164 -277.431295 
L 169.605818 -276.960752 
L 169.930473 -279.625744 
L 170.255127 -280.077575 
L 170.579782 -276.132009 
L 170.904436 -277.916078 
L 171.229091 -278.110312 
L 171.553745 -277.630534 
L 171.8784 -276.622897 
L 172.203055 -283.176084 
L 172.527709 -278.061909 
L 172.852364 -282.358409 
L 173.177018 -61.594657 
L 173.501673 -60.619665 
L 173.826327 -60.496912 
L 174.150982 -61.678837 
L 174.475636 -61.921914 
L 174.800291 -63.57088 
L 175.124945 -63.27826 
L 175.4496 -63.188986 
L 175.774255 -60.115615 
L 176.098909 -62.32268 
L 176.423564 -65.798282 
L 176.748218 -63.769467 
L 177.072873 -63.555793 
L 177.397527 -62.039035 
L 177.722182 -66.27276 
L 178.046836 -65.593604 
L 178.371491 -64.54477 
L 178.696145 -63.062714 
L 179.0208 -65.079466 
L 179.345455 -64.885099 
L 179.670109 -67.613525 
L 179.994764 -66.518484 
L 180.319418 -63.472423 
L 180.644073 -65.365547 
L 180.968727 -68.196727 
L 181.293382 -67.434543 
L 181.618036 -69.118334 
L 181.942691 -66.933024 
L 182.267345 -68.344316 
L 182.592 -69.109339 
L 182.916655 -69.348414 
L 183.241309 -68.891265 
L 183.565964 -71.245859 
L 183.890618 -71.269099 
L 184.215273 -72.041293 
L 184.539927 -70.772933 
L 184.864582 -71.685093 
L 185.189236 -71.427054 
L 185.513891 -70.032089 
L 185.838545 -72.45485 
L 186.1632 -75.277668 
L 186.487855 -75.78181 
L 186.812509 -72.066696 
L 187.137164 -74.300042 
L 187.461818 -74.127811 
L 187.786473 -74.335547 
L 188.111127 -74.759306 
L 188.435782 -76.713581 
L 188.760436 -77.977607 
L 189.085091 -79.846514 
L 189.409745 -77.502216 
L 189.7344 -79.477683 
L 190.059055 -77.264433 
L 190.383709 -77.017411 
L 190.708364 -81.019643 
L 191.033018 -85.41461 
L 191.357673 -80.918015 
L 191.682327 -79.78685 
L 192.006982 -86.958758 
L 192.331636 -81.802428 
L 192.656291 -87.140237 
L 192.980945 -80.705524 
L 193.3056 -87.414135 
L 193.630255 -85.88802 
L 193.954909 -89.105252 
L 194.279564 -84.727124 
L 194.604218 -90.39668 
L 194.928873 -88.961928 
L 195.253527 -89.516896 
L 195.578182 -94.199224 
L 195.902836 -97.117081 
L 196.227491 -96.176646 
L 196.552145 -94.264854 
L 196.8768 -92.155957 
L 197.201455 -96.969775 
L 197.526109 -102.752551 
L 197.850764 -99.334543 
L 198.175418 -95.144091 
L 198.500073 -100.653694 
L 198.824727 -103.162266 
L 199.149382 -103.937669 
L 199.474036 -96.446935 
L 199.798691 -105.622347 
L 200.123345 -104.581109 
L 200.448 -102.267123 
L 200.772655 -111.244875 
L 201.097309 -114.706009 
L 201.421964 -108.830528 
L 201.746618 -110.40702 
L 202.071273 -121.289872 
L 202.395927 -110.595042 
L 202.720582 -116.003246 
L 203.045236 -121.689775 
L 203.369891 -115.265529 
L 203.694545 -110.817086 
L 204.0192 -122.10355 
L 204.343855 -124.827126 
L 204.668509 -123.59926 
L 204.993164 -128.362707 
L 205.317818 -127.049535 
L 205.642473 -126.37892 
L 205.967127 -130.087621 
L 206.291782 -133.515502 
L 206.616436 -137.758725 
L 206.941091 -125.351025 
L 207.265745 -135.13056 
L 207.5904 -150.480747 
L 207.915055 -138.028745 
L 208.239709 -146.145522 
L 208.564364 -136.338191 
L 208.889018 -148.078601 
L 209.213673 -148.933278 
L 209.538327 -150.631663 
L 209.862982 -155.083702 
L 210.187636 -156.592172 
L 210.512291 -162.534479 
L 210.836945 -168.426032 
L 211.1616 -160.678539 
L 211.486255 -156.459997 
L 211.810909 -172.775922 
L 212.135564 -173.687302 
L 212.460218 -167.674474 
L 212.784873 -173.164001 
L 213.109527 -177.897875 
L 213.434182 -181.224605 
L 213.758836 -181.918698 
L 214.083491 -190.82569 
L 214.408145 -193.328094 
L 214.7328 -182.934954 
L 215.057455 -187.659997 
L 215.382109 -191.369373 
L 215.706764 -185.243787 
L 216.031418 -192.546654 
L 216.356073 -190.211959 
L 216.680727 -193.569543 
L 217.005382 -185.840321 
L 217.330036 -194.923324 
L 217.654691 -198.886314 
L 217.979345 -204.53021 
L 218.304 -204.180784 
L 218.628655 -206.99885 
L 218.953309 -209.699249 
L 219.277964 -209.149011 
L 219.602618 -201.553697 
L 219.927273 -212.351759 
L 220.251927 -216.26387 
L 220.576582 -202.646348 
L 220.901236 -211.112769 
L 221.225891 -221.087866 
L 221.550545 -223.703451 
L 221.8752 -219.19928 
L 222.199855 -223.748707 
L 222.524509 -214.207299 
L 222.849164 -218.447696 
L 223.173818 -221.738065 
L 223.498473 -227.440491 
L 223.823127 -228.089782 
L 224.147782 -223.981219 
L 224.472436 -220.919247 
L 224.797091 -227.817678 
L 225.121745 -229.552385 
L 225.4464 -224.289814 
L 225.771055 -235.57468 
L 226.095709 -235.856395 
L 226.420364 -240.657997 
L 226.745018 -235.077499 
L 227.069673 -230.931165 
L 227.394327 -233.141885 
L 227.718982 -238.954772 
L 228.043636 -241.818638 
L 228.368291 -235.632569 
L 228.692945 -234.868076 
L 229.0176 -241.084622 
L 229.342255 -240.955966 
L 229.666909 -239.158088 
L 229.991564 -243.380791 
L 230.316218 -250.309497 
L 230.640873 -245.5908 
L 230.965527 -243.793992 
L 231.290182 -240.773637 
L 231.614836 -241.755688 
L 231.939491 -254.956895 
L 232.264145 -245.211849 
L 232.5888 -250.202085 
L 232.913455 -244.743273 
L 233.238109 -252.821168 
L 233.562764 -246.257604 
L 233.887418 -252.002866 
L 234.212073 -250.877809 
L 234.536727 -255.748291 
L 234.861382 -250.080674 
L 235.186036 -253.370484 
L 235.510691 -260.330574 
L 235.835345 -259.951534 
L 236.16 -257.213771 
L 236.484655 -255.885709 
L 236.809309 -258.067717 
L 237.133964 -257.175752 
L 237.458618 -257.113711 
L 237.783273 -256.213053 
L 238.107927 -254.849059 
L 238.432582 -263.705267 
L 238.757236 -264.272602 
L 239.081891 -265.14304 
L 239.406545 -260.645025 
L 239.7312 -261.07041 
L 240.055855 -257.912593 
L 240.380509 -259.764186 
L 240.705164 -258.381929 
L 241.029818 -262.220401 
L 241.354473 -262.292354 
L 241.679127 -261.593357 
L 242.003782 -260.838215 
L 242.328436 -264.54329 
L 242.653091 -270.808797 
L 242.977745 -257.4901 
L 243.3024 -260.462725 
L 243.627055 -264.666113 
L 243.951709 -266.36844 
L 244.276364 -268.027293 
L 244.601018 -263.753908 
L 244.925673 -267.85771 
L 245.250327 -265.7792 
L 245.574982 -270.106187 
L 245.899636 -268.966367 
L 246.224291 -270.673062 
L 246.548945 -265.556103 
L 246.8736 -272.292927 
L 247.198255 -264.567064 
L 247.522909 -274.303697 
L 247.847564 -266.781924 
L 248.172218 -267.043509 
L 248.496873 -267.806664 
L 248.821527 -272.660667 
L 249.146182 -273.432392 
L 249.470836 -269.015162 
L 249.795491 -270.458658 
L 250.120145 -270.177217 
L 250.4448 -267.075011 
L 250.769455 -269.667405 
L 251.094109 -273.514482 
L 251.418764 -268.882125 
L 251.743418 -272.079134 
L 252.068073 -271.065829 
L 252.392727 -269.858659 
L 252.717382 -275.484631 
L 253.042036 -271.256155 
L 253.366691 -270.226427 
L 253.691345 -273.28144 
L 254.016 -273.961972 
L 254.340655 -273.137206 
L 254.665309 -272.942448 
L 254.989964 -272.711847 
L 255.314618 -271.394723 
L 255.639273 -271.862425 
L 255.963927 -277.050719 
L 256.288582 -276.723053 
L 256.613236 -272.696013 
L 256.937891 -277.31344 
L 257.262545 -278.3785 
L 257.5872 -271.572935 
L 257.911855 -276.436719 
L 258.236509 -272.037608 
L 258.561164 -274.599912 
L 258.885818 -276.145954 
L 259.210473 -276.034668 
L 259.535127 -274.680281 
L 259.859782 -279.997964 
L 260.184436 -276.163503 
L 260.509091 -276.909584 
L 260.833745 -275.975894 
L 261.1584 -279.093974 
L 261.483055 -277.393067 
L 261.807709 -276.80441 
L 262.132364 -279.685856 
L 262.457018 -279.502825 
L 262.781673 -276.389842 
L 263.106327 -277.787567 
L 263.430982 -281.226702 
L 263.755636 -278.851573 
L 264.080291 -274.935267 
L 264.404945 -280.258678 
L 264.7296 -275.973595 
L 265.054255 -281.37167 
L 265.378909 -277.486743 
L 265.703564 -281.104128 
L 266.028218 -278.723243 
L 266.352873 -276.547676 
L 266.677527 -277.307361 
L 267.002182 -277.011013 
L 267.326836 -113.104355 
L 267.651491 -119.445211 
L 267.976145 -119.653149 
L 268.3008 -117.357839 
L 268.625455 -118.732254 
L 268.950109 -115.046467 
L 269.274764 -122.714138 
L 269.599418 -127.015293 
L 269.924073 -120.551449 
L 270.248727 -121.637792 
L 270.573382 -129.051261 
L 270.898036 -118.638763 
L 271.222691 -112.83903 
L 271.547345 -121.923448 
L 271.872 -128.526167 
L 272.196655 -125.51053 
L 272.521309 -128.382002 
L 272.845964 -125.288861 
L 273.170618 -126.821609 
L 273.495273 -127.318093 
L 273.819927 -118.364826 
L 274.144582 -123.344446 
L 274.469236 -135.693322 
L 274.793891 -129.931868 
L 275.118545 -132.776394 
L 275.4432 -136.562732 
L 275.767855 -132.281414 
L 276.092509 -132.791495 
L 276.417164 -128.442742 
L 276.741818 -135.719026 
L 277.066473 -137.939093 
L 277.391127 -135.857707 
L 277.715782 -134.024571 
L 278.040436 -138.777822 
L 278.365091 -134.496262 
L 278.689745 -138.95973 
L 279.0144 -135.37001 
L 279.339055 -141.556647 
L 279.663709 -131.944994 
L 279.988364 -140.271995 
L 280.313018 -135.192358 
L 280.637673 -135.577866 
L 280.962327 -132.312678 
L 281.286982 -139.144568 
L 281.611636 -137.697485 
L 281.936291 -139.7389 
L 282.260945 -148.963696 
L 282.5856 -141.227001 
L 282.910255 -141.841102 
L 283.234909 -138.58653 
L 283.559564 -141.347442 
L 283.884218 -130.366566 
L 284.208873 -143.853043 
L 284.533527 -142.982764 
L 284.858182 -152.343615 
L 285.182836 -142.25096 
L 285.507491 -148.684844 
L 285.832145 -149.50739 
L 286.1568 -149.352978 
L 286.481455 -149.016271 
L 286.806109 -147.001528 
L 287.130764 -149.77966 
L 287.455418 -156.356229 
L 287.780073 -144.603482 
L 288.104727 -150.526306 
L 288.429382 -144.945144 
L 288.754036 -155.764697 
L 289.078691 -151.846462 
L 289.403345 -160.929376 
L 289.728 -158.313282 
L 290.052655 -155.409385 
L 290.377309 -157.655419 
L 290.701964 -152.388572 
L 291.026618 -155.338421 
L 291.351273 -163.273702 
L 291.675927 -151.736167 
L 292.000582 -161.972919 
L 292.325236 -158.880735 
L 292.649891 -163.000012 
L 292.974545 -164.192688 
L 293.2992 -158.617148 
L 293.623855 -162.550967 
L 293.948509 -159.73787 
L 294.273164 -164.430083 
L 294.597818 -169.991294 
L 294.922473 -163.930476 
L 295.247127 -165.388913 
L 295.571782 -172.868955 
L 295.896436 -172.504106 
L 296.221091 -155.261903 
L 296.545745 -166.554109 
L 296.8704 -161.158885 
L 297.195055 -167.02332 
L 297.519709 -162.942465 
L 297.844364 -165.876552 
L 298.169018 -159.749828 
L 298.493673 -167.835294 
L 298.818327 -181.532115 
L 299.142982 -166.990206 
L 299.467636 -173.710609 
L 299.792291 -166.336762 
L 300.116945 -178.678434 
L 300.4416 -174.444793 
L 300.766255 -178.140929 
L 301.090909 -173.25936 
L 301.415564 -172.221432 
L 301.740218 -171.638707 
L 302.064873 -175.134084 
L 302.389527 -183.583187 
L 302.714182 -173.220447 
L 303.038836 -175.774944 
L 303.363491 -180.013451 
L 303.688145 -180.619509 
L 304.0128 -171.006953 
L 304.337455 -174.8254 
L 304.662109 -181.040564 
L 304.986764 -182.21159 
L 305.311418 -183.313509 
L 305.636073 -181.175114 
L 305.960727 -176.010322 
L 306.285382 -170.806043 
L 306.610036 -176.731805 
L 306.934691 -179.174124 
L 307.259345 -183.145255 
L 307.584 -182.131071 
L 307.908655 -187.109754 
L 308.233309 -193.20391 
L 308.557964 -180.006865 
L 308.882618 -192.527358 
L 309.207273 -186.065143 
L 309.531927 -187.671639 
L 309.856582 -182.213272 
L 310.181236 -179.588424 
L 310.505891 -190.518647 
L 310.830545 -192.313018 
L 311.1552 -193.439908 
L 311.479855 -195.760629 
L 311.804509 -193.455867 
L 312.129164 -190.757581 
L 312.453818 -195.821134 
L 312.778473 -193.224798 
L 313.103127 -199.842488 
L 313.427782 -197.25998 
L 313.752436 -201.582168 
L 314.077091 -188.490389 
L 314.401745 -181.524528 
L 314.7264 -190.14166 
L 315.051055 -194.862748 
L 315.375709 -188.12219 
L 315.700364 -190.849521 
L 316.025018 -189.925384 
L 316.349673 -197.172232 
L 316.674327 -192.029518 
L 316.998982 -198.054076 
L 317.323636 -203.891595 
L 317.648291 -194.016569 
L 317.972945 -205.614016 
L 318.2976 -200.370717 
L 318.622255 -194.171261 
L 318.946909 -196.891494 
L 319.271564 -204.020582 
L 319.596218 -202.20533 
L 319.920873 -203.192116 
L 320.245527 -200.238544 
L 320.570182 -196.157428 
L 320.894836 -190.46908 
L 321.219491 -204.765998 
L 321.544145 -209.433266 
L 321.8688 -209.824761 
L 322.193455 -206.999775 
L 322.518109 -207.963913 
L 322.842764 -202.551622 
L 323.167418 -199.969115 
L 323.492073 -211.145697 
L 323.816727 -210.830109 
L 324.141382 -200.252922 
L 324.466036 -207.498207 
L 324.790691 -216.06279 
L 325.115345 -205.821112 
L 325.44 -202.191526 
L 325.764655 -209.863296 
L 326.089309 -208.65928 
L 326.413964 -206.217895 
L 326.738618 -216.765139 
L 327.063273 -202.501887 
L 327.387927 -213.763233 
L 327.712582 -202.624642 
L 328.037236 -215.082321 
L 328.361891 -209.90717 
L 328.686545 -212.843938 
L 329.0112 -214.850353 
L 329.335855 -210.572624 
L 329.660509 -214.599569 
L 329.985164 -209.603547 
L 330.309818 -219.223722 
L 330.634473 -208.395915 
L 330.959127 -207.492483 
L 331.283782 -211.486381 
L 331.608436 -214.848777 
L 331.933091 -211.314016 
L 332.257745 -214.16826 
L 332.5824 -203.554334 
L 332.907055 -213.040811 
L 333.231709 -211.44997 
L 333.556364 -215.604485 
L 333.881018 -221.245276 
L 334.205673 -206.434304 
L 334.530327 -217.571535 
L 334.854982 -221.2796 
L 335.179636 -214.083475 
L 335.504291 -218.672101 
L 335.828945 -213.977657 
L 336.1536 -219.003662 
L 336.478255 -220.749843 
L 336.802909 -211.051268 
L 337.127564 -220.123886 
L 337.452218 -217.855442 
L 337.776873 -211.783801 
L 338.101527 -216.080488 
L 338.426182 -220.364893 
L 338.750836 -222.173003 
L 339.075491 -217.897982 
L 339.400145 -218.686704 
L 339.7248 -221.974394 
L 340.049455 -227.159534 
L 340.374109 -225.142151 
L 340.698764 -225.49576 
L 341.023418 -223.242688 
L 341.348073 -219.641004 
L 341.672727 -218.560292 
L 341.997382 -229.379041 
L 342.322036 -218.624726 
L 342.646691 -224.768931 
L 342.971345 -222.172943 
L 343.296 -222.072885 
L 343.620655 -218.348107 
L 343.945309 -226.825744 
L 344.269964 -220.886445 
L 344.594618 -227.471465 
L 344.919273 -222.12439 
L 345.243927 -228.62392 
L 345.568582 -226.283497 
L 345.893236 -223.811713 
L 346.217891 -231.06469 
L 346.542545 -226.564394 
L 346.8672 -219.340268 
L 347.191855 -225.791847 
L 347.516509 -229.060906 
L 347.841164 -234.642622 
L 348.165818 -225.813379 
L 348.490473 -232.287595 
L 348.815127 -226.034831 
L 349.139782 -229.865849 
L 349.464436 -233.363251 
L 349.789091 -232.016813 
L 350.113745 -227.885385 
L 350.4384 -229.253049 
L 350.763055 -227.993179 
L 351.087709 -226.697781 
L 351.412364 -224.91441 
L 351.737018 -225.850318 
L 352.061673 -234.321154 
L 352.386327 -227.488931 
L 352.710982 -232.988939 
L 353.035636 -225.932383 
L 353.360291 -232.812054 
L 353.684945 -232.119744 
L 354.0096 -229.539489 
L 354.334255 -230.740794 
L 354.658909 -231.726697 
L 354.983564 -228.580436 
L 355.308218 -239.645895 
L 355.632873 -226.379052 
L 355.957527 -231.151249 
L 356.282182 -229.331125 
L 356.606836 -226.589638 
L 356.931491 -235.950945 
L 357.256145 -239.41725 
L 357.5808 -234.703536 
L 357.905455 -228.486734 
L 358.230109 -233.278038 
L 358.554764 -234.690236 
L 358.879418 -232.26625 
L 359.204073 -238.869567 
L 359.528727 -241.113273 
L 359.853382 -229.216644 
L 360.178036 -238.273754 
L 360.502691 -237.242581 
L 360.827345 -236.396187 
L 361.152 -235.436425 
L 361.476655 -232.61942 
L 361.801309 -245.128564 
L 362.125964 -237.779266 
L 362.450618 -241.909003 
L 362.775273 -232.059356 
L 363.099927 -234.118276 
L 363.424582 -240.488693 
L 363.749236 -236.807556 
L 364.073891 -240.95172 
L 364.398545 -237.952473 
L 364.7232 -240.45132 
L 365.047855 -243.429177 
L 365.372509 -243.992017 
L 365.697164 -235.79817 
L 366.021818 -233.844042 
L 366.346473 -240.121803 
L 366.671127 -245.721762 
L 366.995782 -243.498448 
L 367.320436 -234.679001 
L 367.645091 -243.178147 
L 367.969745 -238.661657 
L 368.2944 -242.06261 
L 368.619055 -247.499459 
L 368.943709 -242.118682 
L 369.268364 -236.834034 
L 369.593018 -244.558717 
L 369.917673 -238.662139 
L 370.242327 -240.22735 
L 370.566982 -242.479262 
L 370.891636 -245.092654 
L 371.216291 -235.251935 
L 371.540945 -236.871188 
L 371.8656 -252.325198 
L 372.190255 -243.495227 
L 372.514909 -245.150332 
L 372.839564 -237.781594 
L 373.164218 -239.510276 
L 373.488873 -248.259269 
L 373.813527 -248.291547 
L 374.138182 -246.312976 
L 374.462836 -244.788787 
L 374.787491 -249.639922 
L 375.112145 -245.252949 
L 375.4368 -246.647657 
L 375.761455 -238.036341 
L 376.086109 -242.937574 
L 376.410764 -246.58095 
L 376.735418 -244.52725 
L 377.060073 -253.859252 
L 377.384727 -248.307939 
L 377.709382 -246.205561 
L 378.034036 -248.690892 
L 378.358691 -248.509546 
L 378.683345 -247.976485 
L 379.008 -251.546856 
L 379.332655 -244.609496 
L 379.657309 -243.093381 
L 379.981964 -236.552859 
L 380.306618 -254.25133 
L 380.631273 -244.679112 
L 380.955927 -250.434503 
L 381.280582 -248.431279 
L 381.605236 -250.01029 
L 381.929891 -251.115054 
L 382.254545 -250.04952 
L 382.5792 -246.248769 
L 382.903855 -247.038893 
L 383.228509 -246.905141 
L 383.553164 -247.888907 
L 383.877818 -251.870954 
L 384.202473 -250.609463 
L 384.527127 -249.94224 
L 384.851782 -251.49673 
L 385.176436 -251.645488 
L 385.501091 -252.90847 
L 385.825745 -248.310979 
L 386.1504 -253.541938 
L 386.475055 -250.040182 
L 386.799709 -251.135678 
L 387.124364 -246.606929 
L 387.449018 -255.675141 
L 387.773673 -249.795344 
L 388.098327 -250.632916 
L 388.422982 -250.438177 
L 388.747636 -253.695281 
L 389.072291 -253.291731 
L 389.396945 -251.172211 
L 389.7216 -247.471323 
L 390.046255 -250.535036 
L 390.370909 -253.245658 
L 390.695564 -253.78782 
L 391.020218 -258.377725 
L 391.344873 -250.600011 
L 391.669527 -255.585471 
L 391.994182 -248.68862 
L 392.318836 -255.981886 
L 392.643491 -254.485012 
L 392.968145 -250.133891 
L 393.2928 -251.811815 
L 393.617455 -248.185634 
L 393.942109 -258.871589 
L 394.266764 -257.390261 
L 394.591418 -255.546397 
L 394.916073 -256.473749 
L 395.240727 -253.430935 
L 395.565382 -249.568763 
L 395.890036 -253.770993 
L 396.214691 -255.290047 
L 396.539345 -251.133425 
L 396.864 -256.416133 
L 397.188655 -253.917613 
L 397.513309 -256.448655 
L 397.837964 -250.127991 
L 398.162618 -252.507586 
L 398.487273 -256.68619 
L 398.487273 -265.451417 
L 398.487273 -265.451417 
L 398.162618 -271.51428 
L 397.837964 -270.920868 
L 397.513309 -272.757853 
L 397.188655 -272.346235 
L 396.864 -272.963804 
L 396.539345 -274.721149 
L 396.214691 -267.149088 
L 395.890036 -266.577675 
L 395.565382 -264.618968 
L 395.240727 -268.080625 
L 394.916073 -274.200854 
L 394.591418 -267.113318 
L 394.266764 -275.790244 
L 393.942109 -273.871399 
L 393.617455 -265.95686 
L 393.2928 -266.567078 
L 392.968145 -271.083301 
L 392.643491 -267.991404 
L 392.318836 -273.6729 
L 391.994182 -268.286745 
L 391.669527 -270.840448 
L 391.344873 -267.900304 
L 391.020218 -268.378429 
L 390.695564 -263.929069 
L 390.370909 -269.902063 
L 390.046255 -259.912673 
L 389.7216 -263.629962 
L 389.396945 -267.71754 
L 389.072291 -265.66272 
L 388.747636 -271.306118 
L 388.422982 -268.07897 
L 388.098327 -263.09208 
L 387.773673 -263.935964 
L 387.449018 -272.619965 
L 387.124364 -261.725482 
L 386.799709 -276.2504 
L 386.475055 -265.778235 
L 386.1504 -265.012225 
L 385.825745 -265.659486 
L 385.501091 -266.055872 
L 385.176436 -269.431719 
L 384.851782 -265.20861 
L 384.527127 -264.8757 
L 384.202473 -268.247901 
L 383.877818 -261.989415 
L 383.553164 -262.523218 
L 383.228509 -259.7818 
L 382.903855 -265.071105 
L 382.5792 -263.278163 
L 382.254545 -261.092445 
L 381.929891 -263.218728 
L 381.605236 -262.561135 
L 381.280582 -272.497158 
L 380.955927 -263.945449 
L 380.631273 -264.200487 
L 380.306618 -265.331615 
L 379.981964 -259.55722 
L 379.657309 -262.981329 
L 379.332655 -265.607221 
L 379.008 -261.590829 
L 378.683345 -262.771475 
L 378.358691 -269.01471 
L 378.034036 -269.809756 
L 377.709382 -263.113702 
L 377.384727 -269.86899 
L 377.060073 -266.314817 
L 376.735418 -260.788532 
L 376.410764 -261.619038 
L 376.086109 -261.398324 
L 375.761455 -258.411492 
L 375.4368 -267.357702 
L 375.112145 -260.732279 
L 374.787491 -264.471591 
L 374.462836 -264.52927 
L 374.138182 -261.866826 
L 373.813527 -261.883215 
L 373.488873 -260.473991 
L 373.164218 -259.971095 
L 372.839564 -259.707816 
L 372.514909 -264.448738 
L 372.190255 -257.425918 
L 371.8656 -265.021947 
L 371.540945 -260.175247 
L 371.216291 -261.296473 
L 370.891636 -260.696111 
L 370.566982 -260.649038 
L 370.242327 -261.671316 
L 369.917673 -259.897715 
L 369.593018 -260.642567 
L 369.268364 -258.69549 
L 368.943709 -255.142421 
L 368.619055 -257.608593 
L 368.2944 -257.189286 
L 367.969745 -260.195965 
L 367.645091 -267.592874 
L 367.320436 -261.670539 
L 366.995782 -260.806431 
L 366.671127 -261.173774 
L 366.346473 -261.543489 
L 366.021818 -254.000913 
L 365.697164 -254.763643 
L 365.372509 -257.324871 
L 365.047855 -254.949686 
L 364.7232 -252.497239 
L 364.398545 -254.705232 
L 364.073891 -257.063438 
L 363.749236 -259.472573 
L 363.424582 -253.267085 
L 363.099927 -258.380793 
L 362.775273 -251.982334 
L 362.450618 -247.441931 
L 362.125964 -258.675959 
L 361.801309 -255.371034 
L 361.476655 -247.295397 
L 361.152 -255.683656 
L 360.827345 -259.936198 
L 360.502691 -254.197774 
L 360.178036 -251.495976 
L 359.853382 -251.583068 
L 359.528727 -253.124352 
L 359.204073 -253.148216 
L 358.879418 -259.036286 
L 358.554764 -245.2358 
L 358.230109 -251.570897 
L 357.905455 -251.67546 
L 357.5808 -246.989604 
L 357.256145 -258.317701 
L 356.931491 -252.947562 
L 356.606836 -243.462298 
L 356.282182 -248.538713 
L 355.957527 -247.657368 
L 355.632873 -251.368338 
L 355.308218 -252.436026 
L 354.983564 -252.678658 
L 354.658909 -250.905599 
L 354.334255 -246.090989 
L 354.0096 -253.153718 
L 353.684945 -247.196389 
L 353.360291 -250.533043 
L 353.035636 -244.439048 
L 352.710982 -247.360546 
L 352.386327 -249.539491 
L 352.061673 -250.409899 
L 351.737018 -244.813466 
L 351.412364 -240.147923 
L 351.087709 -246.652503 
L 350.763055 -250.328497 
L 350.4384 -244.993178 
L 350.113745 -248.300559 
L 349.789091 -247.413605 
L 349.464436 -253.7914 
L 349.139782 -246.987557 
L 348.815127 -236.622706 
L 348.490473 -249.283336 
L 348.165818 -246.835294 
L 347.841164 -253.828916 
L 347.516509 -244.174499 
L 347.191855 -246.988467 
L 346.8672 -241.265221 
L 346.542545 -247.342577 
L 346.217891 -249.493429 
L 345.893236 -246.971481 
L 345.568582 -244.071928 
L 345.243927 -245.001569 
L 344.919273 -245.068911 
L 344.594618 -247.6376 
L 344.269964 -245.697159 
L 343.945309 -243.467002 
L 343.620655 -246.597962 
L 343.296 -243.94609 
L 342.971345 -246.143477 
L 342.646691 -249.465612 
L 342.322036 -245.856838 
L 341.997382 -244.258595 
L 341.672727 -237.037271 
L 341.348073 -244.362452 
L 341.023418 -240.202706 
L 340.698764 -235.925892 
L 340.374109 -247.320278 
L 340.049455 -253.34197 
L 339.7248 -236.089164 
L 339.400145 -241.489824 
L 339.075491 -234.523697 
L 338.750836 -243.327783 
L 338.426182 -231.689686 
L 338.101527 -248.303079 
L 337.776873 -234.409934 
L 337.452218 -241.762395 
L 337.127564 -239.085045 
L 336.802909 -233.32211 
L 336.478255 -238.091071 
L 336.1536 -242.528763 
L 335.828945 -237.282336 
L 335.504291 -234.049845 
L 335.179636 -238.18632 
L 334.854982 -239.350976 
L 334.530327 -236.384915 
L 334.205673 -232.934744 
L 333.881018 -238.405373 
L 333.556364 -236.104896 
L 333.231709 -237.449156 
L 332.907055 -227.467016 
L 332.5824 -237.186089 
L 332.257745 -242.588273 
L 331.933091 -230.770948 
L 331.608436 -237.647264 
L 331.283782 -231.485423 
L 330.959127 -227.560263 
L 330.634473 -231.402108 
L 330.309818 -241.422557 
L 329.985164 -226.416207 
L 329.660509 -232.712914 
L 329.335855 -238.386166 
L 329.0112 -243.447894 
L 328.686545 -231.867196 
L 328.361891 -230.697611 
L 328.037236 -232.3279 
L 327.712582 -221.402661 
L 327.387927 -228.669898 
L 327.063273 -230.881588 
L 326.738618 -241.318203 
L 326.413964 -220.855251 
L 326.089309 -229.863943 
L 325.764655 -225.256785 
L 325.44 -224.855002 
L 325.115345 -234.009442 
L 324.790691 -225.822138 
L 324.466036 -236.092691 
L 324.141382 -226.06467 
L 323.816727 -235.711339 
L 323.492073 -228.816242 
L 323.167418 -214.462091 
L 322.842764 -220.890559 
L 322.518109 -223.125254 
L 322.193455 -227.156401 
L 321.8688 -228.911035 
L 321.544145 -230.564806 
L 321.219491 -222.815221 
L 320.894836 -225.306841 
L 320.570182 -219.155919 
L 320.245527 -221.415553 
L 319.920873 -225.039628 
L 319.596218 -223.60841 
L 319.271564 -224.190372 
L 318.946909 -223.707096 
L 318.622255 -218.175044 
L 318.2976 -222.97772 
L 317.972945 -228.027086 
L 317.648291 -216.290536 
L 317.323636 -229.378239 
L 316.998982 -223.810032 
L 316.674327 -211.727824 
L 316.349673 -210.264233 
L 316.025018 -217.578792 
L 315.700364 -215.566757 
L 315.375709 -212.698065 
L 315.051055 -221.184785 
L 314.7264 -209.934672 
L 314.401745 -211.62852 
L 314.077091 -215.642944 
L 313.752436 -225.729584 
L 313.427782 -211.869136 
L 313.103127 -213.000679 
L 312.778473 -212.558446 
L 312.453818 -220.760613 
L 312.129164 -214.831706 
L 311.804509 -211.846439 
L 311.479855 -215.931395 
L 311.1552 -218.954739 
L 310.830545 -220.214719 
L 310.505891 -209.827382 
L 310.181236 -219.364617 
L 309.856582 -214.633245 
L 309.531927 -204.794949 
L 309.207273 -216.029609 
L 308.882618 -216.701092 
L 308.557964 -208.335388 
L 308.233309 -217.910271 
L 307.908655 -213.186626 
L 307.584 -199.850884 
L 307.259345 -210.022079 
L 306.934691 -199.82005 
L 306.610036 -209.750842 
L 306.285382 -200.926469 
L 305.960727 -202.88805 
L 305.636073 -206.869257 
L 305.311418 -211.292063 
L 304.986764 -214.880375 
L 304.662109 -198.901394 
L 304.337455 -189.374655 
L 304.0128 -192.551935 
L 303.688145 -198.097453 
L 303.363491 -204.252967 
L 303.038836 -196.502329 
L 302.714182 -201.852962 
L 302.389527 -207.085814 
L 302.064873 -198.237345 
L 301.740218 -201.824728 
L 301.415564 -197.137372 
L 301.090909 -206.380717 
L 300.766255 -202.858817 
L 300.4416 -192.401368 
L 300.116945 -200.806765 
L 299.792291 -195.156376 
L 299.467636 -195.81146 
L 299.142982 -190.281164 
L 298.818327 -201.96798 
L 298.493673 -183.571917 
L 298.169018 -203.698936 
L 297.844364 -193.111885 
L 297.519709 -189.734647 
L 297.195055 -191.637307 
L 296.8704 -183.296884 
L 296.545745 -188.997599 
L 296.221091 -183.528125 
L 295.896436 -197.634356 
L 295.571782 -195.282542 
L 295.247127 -191.196931 
L 294.922473 -183.140431 
L 294.597818 -191.410232 
L 294.273164 -186.507218 
L 293.948509 -187.574988 
L 293.623855 -192.702362 
L 293.2992 -185.652537 
L 292.974545 -185.955346 
L 292.649891 -186.207752 
L 292.325236 -179.681465 
L 292.000582 -185.413844 
L 291.675927 -186.930871 
L 291.351273 -175.419061 
L 291.026618 -177.761256 
L 290.701964 -177.275593 
L 290.377309 -172.814492 
L 290.052655 -187.422999 
L 289.728 -177.332341 
L 289.403345 -177.09294 
L 289.078691 -181.435064 
L 288.754036 -179.942207 
L 288.429382 -167.829559 
L 288.104727 -182.264426 
L 287.780073 -174.129658 
L 287.455418 -177.558479 
L 287.130764 -177.529566 
L 286.806109 -170.281356 
L 286.481455 -165.058866 
L 286.1568 -169.971088 
L 285.832145 -164.438609 
L 285.507491 -166.264058 
L 285.182836 -164.018383 
L 284.858182 -176.728793 
L 284.533527 -165.95319 
L 284.208873 -169.31027 
L 283.884218 -160.780816 
L 283.559564 -171.131102 
L 283.234909 -165.646896 
L 282.910255 -162.866822 
L 282.5856 -164.11474 
L 282.260945 -163.802308 
L 281.936291 -162.841687 
L 281.611636 -161.975731 
L 281.286982 -162.9269 
L 280.962327 -153.958216 
L 280.637673 -159.974926 
L 280.313018 -160.734744 
L 279.988364 -162.389248 
L 279.663709 -151.946376 
L 279.339055 -161.614474 
L 279.0144 -154.623564 
L 278.689745 -157.396235 
L 278.365091 -158.57451 
L 278.040436 -155.565705 
L 277.715782 -155.130465 
L 277.391127 -160.10139 
L 277.066473 -154.591163 
L 276.741818 -150.125004 
L 276.417164 -149.973429 
L 276.092509 -160.898557 
L 275.767855 -150.671708 
L 275.4432 -150.655172 
L 275.118545 -145.538537 
L 274.793891 -151.073744 
L 274.469236 -152.576551 
L 274.144582 -152.06638 
L 273.819927 -144.374513 
L 273.495273 -151.367484 
L 273.170618 -153.184265 
L 272.845964 -149.07063 
L 272.521309 -149.073762 
L 272.196655 -148.881987 
L 271.872 -151.463478 
L 271.547345 -138.996454 
L 271.222691 -140.281381 
L 270.898036 -135.186979 
L 270.573382 -151.049203 
L 270.248727 -142.426875 
L 269.924073 -144.529987 
L 269.599418 -138.049501 
L 269.274764 -146.243462 
L 268.950109 -137.960604 
L 268.625455 -137.458936 
L 268.3008 -144.49419 
L 267.976145 -139.256779 
L 267.651491 -139.290046 
L 267.326836 -139.773996 
L 267.002182 -286.614661 
L 266.677527 -292.032 
L 266.352873 -287.081954 
L 266.028218 -287.177462 
L 265.703564 -290.179268 
L 265.378909 -284.259822 
L 265.054255 -290.328942 
L 264.7296 -287.326959 
L 264.404945 -288.405282 
L 264.080291 -291.796438 
L 263.755636 -288.394769 
L 263.430982 -288.802089 
L 263.106327 -288.039378 
L 262.781673 -285.969128 
L 262.457018 -288.902873 
L 262.132364 -287.272461 
L 261.807709 -286.666413 
L 261.483055 -286.800922 
L 261.1584 -286.05774 
L 260.833745 -284.374321 
L 260.509091 -288.349159 
L 260.184436 -283.573115 
L 259.859782 -290.959258 
L 259.535127 -283.22647 
L 259.210473 -287.575905 
L 258.885818 -282.896237 
L 258.561164 -284.422956 
L 258.236509 -285.339641 
L 257.911855 -288.261732 
L 257.5872 -285.098917 
L 257.262545 -288.800719 
L 256.937891 -283.906377 
L 256.613236 -286.163542 
L 256.288582 -283.194847 
L 255.963927 -287.807896 
L 255.639273 -284.571625 
L 255.314618 -288.91562 
L 254.989964 -282.945191 
L 254.665309 -287.582602 
L 254.340655 -281.388628 
L 254.016 -284.683443 
L 253.691345 -283.540593 
L 253.366691 -280.180229 
L 253.042036 -284.894626 
L 252.717382 -285.267723 
L 252.392727 -284.357988 
L 252.068073 -285.148529 
L 251.743418 -282.264934 
L 251.418764 -284.167927 
L 251.094109 -280.642191 
L 250.769455 -283.913448 
L 250.4448 -281.800543 
L 250.120145 -280.250763 
L 249.795491 -283.198691 
L 249.470836 -283.91357 
L 249.146182 -281.038883 
L 248.821527 -278.939361 
L 248.496873 -281.9259 
L 248.172218 -283.927447 
L 247.847564 -282.562508 
L 247.522909 -282.452727 
L 247.198255 -279.525053 
L 246.8736 -279.631805 
L 246.548945 -278.650902 
L 246.224291 -278.16446 
L 245.899636 -280.901371 
L 245.574982 -283.338087 
L 245.250327 -279.657542 
L 244.925673 -280.666454 
L 244.601018 -276.708874 
L 244.276364 -281.423614 
L 243.951709 -278.740762 
L 243.627055 -283.493279 
L 243.3024 -279.283097 
L 242.977745 -272.430725 
L 242.653091 -280.446102 
L 242.328436 -278.51552 
L 242.003782 -270.526039 
L 241.679127 -277.549998 
L 241.354473 -275.034497 
L 241.029818 -280.957847 
L 240.705164 -275.553271 
L 240.380509 -274.257487 
L 240.055855 -273.648038 
L 239.7312 -275.997625 
L 239.406545 -274.092682 
L 239.081891 -277.206324 
L 238.757236 -274.354656 
L 238.432582 -272.429964 
L 238.107927 -270.87725 
L 237.783273 -271.42229 
L 237.458618 -269.290678 
L 237.133964 -272.940596 
L 236.809309 -270.014251 
L 236.484655 -274.477199 
L 236.16 -273.655743 
L 235.835345 -267.532423 
L 235.510691 -270.39973 
L 235.186036 -268.430668 
L 234.861382 -264.126231 
L 234.536727 -266.39238 
L 234.212073 -269.326519 
L 233.887418 -265.057374 
L 233.562764 -265.312064 
L 233.238109 -262.387914 
L 232.913455 -261.683588 
L 232.5888 -263.402291 
L 232.264145 -261.700518 
L 231.939491 -273.576567 
L 231.614836 -263.252059 
L 231.290182 -264.02212 
L 230.965527 -265.258783 
L 230.640873 -257.100188 
L 230.316218 -263.940568 
L 229.991564 -261.682953 
L 229.666909 -256.095644 
L 229.342255 -254.627501 
L 229.0176 -254.199106 
L 228.692945 -257.544805 
L 228.368291 -259.103886 
L 228.043636 -260.641368 
L 227.718982 -255.07682 
L 227.394327 -252.60479 
L 227.069673 -256.35323 
L 226.745018 -249.988518 
L 226.420364 -252.005584 
L 226.095709 -248.090547 
L 225.771055 -250.029535 
L 225.4464 -244.410007 
L 225.121745 -249.380706 
L 224.797091 -247.491645 
L 224.472436 -247.6664 
L 224.147782 -243.846662 
L 223.823127 -245.269348 
L 223.498473 -244.039727 
L 223.173818 -244.362047 
L 222.849164 -240.694126 
L 222.524509 -230.01092 
L 222.199855 -245.624628 
L 221.8752 -237.058489 
L 221.550545 -246.700126 
L 221.225891 -232.576783 
L 220.901236 -235.133171 
L 220.576582 -232.729848 
L 220.251927 -240.982228 
L 219.927273 -235.551222 
L 219.602618 -228.963281 
L 219.277964 -231.832131 
L 218.953309 -237.539789 
L 218.628655 -225.84513 
L 218.304 -225.146134 
L 217.979345 -220.877178 
L 217.654691 -228.251008 
L 217.330036 -228.494612 
L 217.005382 -223.019686 
L 216.680727 -213.919999 
L 216.356073 -216.945635 
L 216.031418 -215.44425 
L 215.706764 -215.719277 
L 215.382109 -207.222114 
L 215.057455 -205.190781 
L 214.7328 -216.390961 
L 214.408145 -207.543761 
L 214.083491 -209.156974 
L 213.758836 -202.419239 
L 213.434182 -208.091109 
L 213.109527 -204.199647 
L 212.784873 -197.992587 
L 212.460218 -196.316643 
L 212.135564 -197.580177 
L 211.810909 -191.987525 
L 211.486255 -190.627607 
L 211.1616 -185.642474 
L 210.836945 -185.983554 
L 210.512291 -187.496903 
L 210.187636 -183.36567 
L 209.862982 -182.947563 
L 209.538327 -167.360096 
L 209.213673 -175.482073 
L 208.889018 -164.753132 
L 208.564364 -170.563123 
L 208.239709 -167.248218 
L 207.915055 -163.989371 
L 207.5904 -171.632405 
L 207.265745 -161.490722 
L 206.941091 -141.645455 
L 206.616436 -159.121136 
L 206.291782 -156.274183 
L 205.967127 -151.047536 
L 205.642473 -140.663952 
L 205.317818 -148.708165 
L 204.993164 -149.248757 
L 204.668509 -153.380965 
L 204.343855 -145.262005 
L 204.0192 -138.710255 
L 203.694545 -135.688293 
L 203.369891 -140.866094 
L 203.045236 -137.25947 
L 202.720582 -136.695305 
L 202.395927 -130.931958 
L 202.071273 -138.11776 
L 201.746618 -130.711461 
L 201.421964 -120.53639 
L 201.097309 -130.261077 
L 200.772655 -125.566108 
L 200.448 -124.631287 
L 200.123345 -121.113075 
L 199.798691 -127.151778 
L 199.474036 -117.421906 
L 199.149382 -120.585596 
L 198.824727 -122.52558 
L 198.500073 -118.012568 
L 198.175418 -109.689484 
L 197.850764 -112.416924 
L 197.526109 -114.070227 
L 197.201455 -112.087771 
L 196.8768 -104.039625 
L 196.552145 -111.664798 
L 196.227491 -112.584057 
L 195.902836 -106.855601 
L 195.578182 -107.675031 
L 195.253527 -107.615087 
L 194.928873 -107.288951 
L 194.604218 -105.934815 
L 194.279564 -102.921399 
L 193.954909 -103.376023 
L 193.630255 -97.163723 
L 193.3056 -97.010723 
L 192.980945 -101.861714 
L 192.656291 -98.534843 
L 192.331636 -95.679768 
L 192.006982 -97.308854 
L 191.682327 -90.891289 
L 191.357673 -96.407481 
L 191.033018 -93.136641 
L 190.708364 -93.224402 
L 190.383709 -93.895299 
L 190.059055 -88.147383 
L 189.7344 -86.656576 
L 189.409745 -88.037142 
L 189.085091 -89.877465 
L 188.760436 -87.757095 
L 188.435782 -88.242411 
L 188.111127 -88.434396 
L 187.786473 -84.388331 
L 187.461818 -89.07968 
L 187.137164 -81.786365 
L 186.812509 -84.806967 
L 186.487855 -83.90393 
L 186.1632 -79.166933 
L 185.838545 -82.707776 
L 185.513891 -79.700988 
L 185.189236 -81.93415 
L 184.864582 -82.169777 
L 184.539927 -81.465743 
L 184.215273 -79.707829 
L 183.890618 -79.824801 
L 183.565964 -79.626381 
L 183.241309 -79.248015 
L 182.916655 -78.065093 
L 182.592 -76.12775 
L 182.267345 -76.729615 
L 181.942691 -74.742284 
L 181.618036 -74.452381 
L 181.293382 -73.847692 
L 180.968727 -75.023353 
L 180.644073 -74.33442 
L 180.319418 -72.578519 
L 179.994764 -70.343642 
L 179.670109 -73.214158 
L 179.345455 -72.130778 
L 179.0208 -71.589861 
L 178.696145 -70.629098 
L 178.371491 -71.57797 
L 178.046836 -71.643101 
L 177.722182 -70.077176 
L 177.397527 -69.119916 
L 177.072873 -69.446997 
L 176.748218 -69.90362 
L 176.423564 -69.241837 
L 176.098909 -67.946622 
L 175.774255 -67.002065 
L 175.4496 -67.041896 
L 175.124945 -67.949088 
L 174.800291 -67.976474 
L 174.475636 -64.926133 
L 174.150982 -66.717933 
L 173.826327 -66.643628 
L 173.501673 -66.316556 
L 173.177018 -67.338261 
L 172.852364 -290.785897 
L 172.527709 -287.307161 
L 172.203055 -291.030004 
L 171.8784 -289.108036 
L 171.553745 -289.155863 
L 171.229091 -285.991463 
L 170.904436 -286.740998 
L 170.579782 -287.501577 
L 170.255127 -291.233427 
L 169.930473 -287.469775 
L 169.605818 -287.242623 
L 169.281164 -291.315709 
L 168.956509 -288.611256 
L 168.631855 -287.296958 
L 168.3072 -287.496445 
L 167.982545 -286.559093 
L 167.657891 -285.844299 
L 167.333236 -289.659798 
L 167.008582 -288.414178 
L 166.683927 -286.915187 
L 166.359273 -288.504853 
L 166.034618 -286.516658 
L 165.709964 -286.96338 
L 165.385309 -290.272615 
L 165.060655 -289.410416 
L 164.736 -286.281904 
L 164.411345 -283.931438 
L 164.086691 -284.576467 
L 163.762036 -287.068169 
L 163.437382 -284.425085 
L 163.112727 -287.424833 
L 162.788073 -282.309876 
L 162.463418 -280.554168 
L 162.138764 -282.862618 
L 161.814109 -285.848095 
L 161.489455 -282.628449 
L 161.1648 -279.128172 
L 160.840145 -285.747548 
L 160.515491 -279.069569 
L 160.190836 -277.060726 
L 159.866182 -280.172339 
L 159.541527 -280.090319 
L 159.216873 -276.396703 
L 158.892218 -283.099078 
L 158.567564 -276.19487 
L 158.242909 -275.152858 
L 157.918255 -274.638337 
L 157.5936 -274.282795 
L 157.268945 -276.666354 
L 156.944291 -273.086782 
L 156.619636 -276.873646 
L 156.294982 -271.667684 
L 155.970327 -279.427104 
L 155.645673 -266.475177 
L 155.321018 -269.679711 
L 154.996364 -273.109412 
L 154.671709 -269.480341 
L 154.347055 -269.542861 
L 154.0224 -264.773149 
L 153.697745 -266.963874 
L 153.373091 -271.772996 
L 153.048436 -264.790984 
L 152.723782 -270.73095 
L 152.399127 -258.305051 
L 152.074473 -258.741068 
L 151.749818 -259.44107 
L 151.425164 -255.086958 
L 151.100509 -258.588956 
L 150.775855 -258.266414 
L 150.4512 -257.038405 
L 150.126545 -249.092177 
L 149.801891 -261.241578 
L 149.477236 -246.771891 
L 149.152582 -249.926436 
L 148.827927 -242.106321 
L 148.503273 -241.396306 
L 148.178618 -239.671912 
L 147.853964 -242.393286 
L 147.529309 -228.671064 
L 147.204655 -232.774195 
L 146.88 -246.279341 
L 146.555345 -230.92128 
L 146.230691 -224.657083 
L 145.906036 -226.779358 
L 145.581382 -219.290783 
L 145.256727 -220.632164 
L 144.932073 -215.80444 
L 144.607418 -216.645115 
L 144.282764 -210.563605 
L 143.958109 -204.936943 
L 143.633455 -193.994103 
L 143.3088 -202.239493 
L 142.984145 -191.638434 
L 142.659491 -200.513309 
L 142.334836 -179.447262 
L 142.010182 -183.247483 
L 141.685527 -173.88971 
L 141.360873 -172.945307 
L 141.036218 -165.656079 
L 140.711564 -159.586184 
L 140.386909 -154.428375 
L 140.062255 -157.81467 
L 139.7376 -159.10434 
L 139.412945 -154.442506 
L 139.088291 -144.875261 
L 138.763636 -135.362335 
L 138.438982 -133.81664 
L 138.114327 -133.717125 
L 137.789673 -140.243633 
L 137.465018 -134.450674 
L 137.140364 -124.058264 
L 136.815709 -130.350895 
L 136.491055 -124.33188 
L 136.1664 -117.822216 
L 135.841745 -111.938915 
L 135.517091 -116.166662 
L 135.192436 -105.781477 
L 134.867782 -106.523959 
L 134.543127 -106.195413 
L 134.218473 -102.593788 
L 133.893818 -99.315901 
L 133.569164 -99.172422 
L 133.244509 -98.466918 
L 132.919855 -97.056967 
L 132.5952 -92.687829 
L 132.270545 -92.379072 
L 131.945891 -93.025044 
L 131.621236 -89.894127 
L 131.296582 -88.429995 
L 130.971927 -86.701852 
L 130.647273 -84.062044 
L 130.322618 -86.555522 
L 129.997964 -84.83326 
L 129.673309 -81.353004 
L 129.348655 -78.599602 
L 129.024 -80.296079 
L 128.699345 -80.118696 
L 128.374691 -81.135028 
L 128.050036 -77.959619 
L 127.725382 -77.256832 
L 127.400727 -74.044497 
L 127.076073 -72.534051 
L 126.751418 -70.755508 
L 126.426764 -70.697633 
L 126.102109 -71.150381 
L 125.777455 -71.189289 
L 125.4528 -70.969017 
L 125.128145 -69.685627 
L 124.803491 -67.458194 
L 124.478836 -66.04497 
L 124.154182 -65.340254 
L 123.829527 -65.460648 
L 123.504873 -65.735247 
L 123.180218 -65.017018 
L 122.855564 -63.975848 
L 122.530909 -64.162161 
L 122.206255 -64.199944 
L 121.8816 -62.067238 
L 121.556945 -63.11431 
L 121.232291 -61.952432 
L 120.907636 -61.770647 
L 120.582982 -61.255602 
L 120.258327 -61.373596 
L 119.933673 -60.451754 
L 119.609018 -59.920801 
L 119.284364 -59.670568 
L 118.959709 -58.67605 
L 118.635055 -58.510201 
L 118.3104 -58.623038 
L 117.985745 -57.981148 
L 117.661091 -57.991075 
L 117.336436 -57.445107 
L 117.011782 -57.692732 
L 116.687127 -56.795176 
L 116.362473 -56.912186 
L 116.037818 -56.461789 
L 115.713164 -55.808495 
L 115.388509 -56.259884 
L 115.063855 -55.969171 
L 114.7392 -55.313085 
L 114.414545 -55.759366 
L 114.089891 -55.313088 
L 113.765236 -54.876753 
L 113.440582 -54.612762 
L 113.115927 -54.413583 
L 112.791273 -54.738547 
L 112.466618 -53.992628 
L 112.141964 -54.375415 
L 111.817309 -53.771929 
L 111.492655 -53.994406 
L 111.168 -53.416479 
L 110.843345 -53.332417 
L 110.518691 -53.149846 
L 110.194036 -52.991076 
L 109.869382 -52.94051 
L 109.544727 -52.864863 
L 109.220073 -52.729364 
L 108.895418 -52.876573 
L 108.570764 -52.564324 
L 108.246109 -52.666815 
L 107.921455 -52.287441 
L 107.5968 -52.350728 
L 107.272145 -52.261137 
L 106.947491 -52.193811 
L 106.622836 -52.136178 
L 106.298182 -52.161984 
L 105.973527 -51.806713 
L 105.648873 -51.933793 
L 105.324218 -51.994446 
L 104.999564 -51.771769 
L 104.674909 -51.593062 
L 104.350255 -51.555443 
L 104.0256 -51.610421 
L 103.700945 -51.573773 
L 103.376291 -51.391472 
L 103.051636 -51.472611 
L 102.726982 -51.432891 
L 102.402327 -51.310419 
L 102.077673 -51.283779 
L 101.753018 -51.210613 
L 101.428364 -51.305061 
L 101.103709 -51.147115 
L 100.779055 -51.192663 
L 100.4544 -51.031274 
L 100.129745 -51.062964 
L 99.805091 -50.891912 
L 99.480436 -50.928856 
L 99.155782 -50.977756 
L 98.831127 -50.880311 
L 98.506473 -50.884944 
L 98.181818 -50.801067 
L 97.857164 -50.783998 
L 97.532509 -50.789221 
L 97.207855 -50.788268 
L 96.8832 -50.737414 
L 96.558545 -50.642496 
L 96.233891 -50.685866 
L 95.909236 -50.718868 
L 95.584582 -50.606906 
L 95.259927 -50.582464 
L 94.935273 -50.592806 
L 94.610618 -50.557791 
L 94.285964 -50.549507 
L 93.961309 -50.502467 
L 93.636655 -50.554441 
L 93.312 -50.49022 
L 92.987345 -50.495502 
L 92.662691 -50.556214 
L 92.338036 -50.481891 
L 92.013382 -50.44294 
L 91.688727 -50.424483 
L 91.364073 -50.433148 
L 91.039418 -50.406444 
L 90.714764 -50.385325 
L 90.390109 -50.40931 
L 90.065455 -50.333226 
L 89.7408 -50.374957 
L 89.416145 -50.34892 
L 89.091491 -50.349619 
L 88.766836 -50.345358 
L 88.442182 -50.325633 
L 88.117527 -50.30444 
L 87.792873 -50.300956 
L 87.468218 -50.304817 
L 87.143564 -50.298327 
L 86.818909 -50.314067 
L 86.494255 -50.299156 
L 86.1696 -50.288211 
L 85.844945 -50.265803 
L 85.520291 -50.247333 
L 85.195636 -50.258148 
L 84.870982 -50.227963 
L 84.546327 -50.228196 
L 84.221673 -50.216645 
L 83.897018 -50.234095 
L 83.572364 -50.217767 
L 83.247709 -50.220815 
L 82.923055 -50.210063 
L 82.5984 -50.200283 
L 82.273745 -50.19467 
L 81.949091 -50.202289 
L 81.624436 -50.198925 
L 81.299782 -50.185554 
L 80.975127 -50.193834 
L 80.650473 -50.184962 
L 80.325818 -50.180342 
L 80.001164 -50.168461 
L 79.676509 -50.169765 
L 79.351855 -50.164995 
L 79.0272 -50.162864 
L 78.702545 -50.162902 
L 78.377891 -50.160912 
L 78.053236 -50.152715 
L 77.728582 -50.157584 
L 77.403927 -50.144484 
L 77.079273 -50.152073 
L 76.754618 -50.145084 
L 76.429964 -50.142179 
L 76.105309 -50.13861 
L 75.780655 -50.140109 
L 75.456 -50.133769 
L 75.131345 -50.139582 
L 74.806691 -50.135599 
L 74.482036 -50.131299 
L 74.157382 -50.128328 
L 73.832727 -50.13147 
z
" id="m7ebcd62c0d" style="stroke:#008000;stroke-opacity:0.1;"/>
    </defs>
    <g clip-path="url(#pcb431a9272)">
     <use style="fill:#008000;fill-opacity:0.1;stroke:#008000;stroke-opacity:0.1;" x="0" xlink:href="#m7ebcd62c0d" y="345.6"/>
    </g>
   </g>
   <g id="matplotlib.axis_1">
    <g id="xtick_1">
     <g id="line2d_1">
      <path clip-path="url(#pcb431a9272)" d="M 73.508073 307.584 
L 73.508073 41.472 
" style="fill:none;stroke:#b0b0b0;stroke-linecap:square;stroke-width:0.8;"/>
     </g>
     <g id="line2d_2">
      <defs>
       <path d="M 0 0 
L 0 3.5 
" id="ma43362bb46" style="stroke:#000000;stroke-width:0.8;"/>
      </defs>
      <g>
       <use style="stroke:#000000;stroke-width:0.8;" x="73.508073" xlink:href="#ma43362bb46" y="307.584"/>
      </g>
     </g>
     <g id="text_1">
      <!-- 0 -->
      <defs>
       <path d="M 31.78125 66.40625 
Q 24.171875 66.40625 20.328125 58.90625 
Q 16.5 51.421875 16.5 36.375 
Q 16.5 21.390625 20.328125 13.890625 
Q 24.171875 6.390625 31.78125 6.390625 
Q 39.453125 6.390625 43.28125 13.890625 
Q 47.125 21.390625 47.125 36.375 
Q 47.125 51.421875 43.28125 58.90625 
Q 39.453125 66.40625 31.78125 66.40625 
M 31.78125 74.21875 
Q 44.046875 74.21875 50.515625 64.515625 
Q 56.984375 54.828125 56.984375 36.375 
Q 56.984375 17.96875 50.515625 8.265625 
Q 44.046875 -1.421875 31.78125 -1.421875 
Q 19.53125 -1.421875 13.0625 8.265625 
Q 6.59375 17.96875 6.59375 36.375 
Q 6.59375 54.828125 13.0625 64.515625 
Q 19.53125 74.21875 31.78125 74.21875 
" id="DejaVuSans-30"/>
      </defs>
      <g transform="translate(70.326823 322.182437)scale(0.1 -0.1)">
       <use xlink:href="#DejaVuSans-30"/>
      </g>
     </g>
    </g>
    <g id="xtick_2">
     <g id="line2d_3">
      <path clip-path="url(#pcb431a9272)" d="M 138.438982 307.584 
L 138.438982 41.472 
" style="fill:none;stroke:#b0b0b0;stroke-linecap:square;stroke-width:0.8;"/>
     </g>
     <g id="line2d_4">
      <g>
       <use style="stroke:#000000;stroke-width:0.8;" x="138.438982" xlink:href="#ma43362bb46" y="307.584"/>
      </g>
     </g>
     <g id="text_2">
      <!-- 200 -->
      <defs>
       <path d="M 19.1875 8.296875 
L 53.609375 8.296875 
L 53.609375 0 
L 7.328125 0 
L 7.328125 8.296875 
Q 12.9375 14.109375 22.625 23.890625 
Q 32.328125 33.6875 34.8125 36.53125 
Q 39.546875 41.84375 41.421875 45.53125 
Q 43.3125 49.21875 43.3125 52.78125 
Q 43.3125 58.59375 39.234375 62.25 
Q 35.15625 65.921875 28.609375 65.921875 
Q 23.96875 65.921875 18.8125 64.3125 
Q 13.671875 62.703125 7.8125 59.421875 
L 7.8125 69.390625 
Q 13.765625 71.78125 18.9375 73 
Q 24.125 74.21875 28.421875 74.21875 
Q 39.75 74.21875 46.484375 68.546875 
Q 53.21875 62.890625 53.21875 53.421875 
Q 53.21875 48.921875 51.53125 44.890625 
Q 49.859375 40.875 45.40625 35.40625 
Q 44.1875 33.984375 37.640625 27.21875 
Q 31.109375 20.453125 19.1875 8.296875 
" id="DejaVuSans-32"/>
      </defs>
      <g transform="translate(128.895232 322.182437)scale(0.1 -0.1)">
       <use xlink:href="#DejaVuSans-32"/>
       <use x="63.623047" xlink:href="#DejaVuSans-30"/>
       <use x="127.246094" xlink:href="#DejaVuSans-30"/>
      </g>
     </g>
    </g>
    <g id="xtick_3">
     <g id="line2d_5">
      <path clip-path="url(#pcb431a9272)" d="M 203.369891 307.584 
L 203.369891 41.472 
" style="fill:none;stroke:#b0b0b0;stroke-linecap:square;stroke-width:0.8;"/>
     </g>
     <g id="line2d_6">
      <g>
       <use style="stroke:#000000;stroke-width:0.8;" x="203.369891" xlink:href="#ma43362bb46" y="307.584"/>
      </g>
     </g>
     <g id="text_3">
      <!-- 400 -->
      <defs>
       <path d="M 37.796875 64.3125 
L 12.890625 25.390625 
L 37.796875 25.390625 
z
M 35.203125 72.90625 
L 47.609375 72.90625 
L 47.609375 25.390625 
L 58.015625 25.390625 
L 58.015625 17.1875 
L 47.609375 17.1875 
L 47.609375 0 
L 37.796875 0 
L 37.796875 17.1875 
L 4.890625 17.1875 
L 4.890625 26.703125 
z
" id="DejaVuSans-34"/>
      </defs>
      <g transform="translate(193.826141 322.182437)scale(0.1 -0.1)">
       <use xlink:href="#DejaVuSans-34"/>
       <use x="63.623047" xlink:href="#DejaVuSans-30"/>
       <use x="127.246094" xlink:href="#DejaVuSans-30"/>
      </g>
     </g>
    </g>
    <g id="xtick_4">
     <g id="line2d_7">
      <path clip-path="url(#pcb431a9272)" d="M 268.3008 307.584 
L 268.3008 41.472 
" style="fill:none;stroke:#b0b0b0;stroke-linecap:square;stroke-width:0.8;"/>
     </g>
     <g id="line2d_8">
      <g>
       <use style="stroke:#000000;stroke-width:0.8;" x="268.3008" xlink:href="#ma43362bb46" y="307.584"/>
      </g>
     </g>
     <g id="text_4">
      <!-- 600 -->
      <defs>
       <path d="M 33.015625 40.375 
Q 26.375 40.375 22.484375 35.828125 
Q 18.609375 31.296875 18.609375 23.390625 
Q 18.609375 15.53125 22.484375 10.953125 
Q 26.375 6.390625 33.015625 6.390625 
Q 39.65625 6.390625 43.53125 10.953125 
Q 47.40625 15.53125 47.40625 23.390625 
Q 47.40625 31.296875 43.53125 35.828125 
Q 39.65625 40.375 33.015625 40.375 
M 52.59375 71.296875 
L 52.59375 62.3125 
Q 48.875 64.0625 45.09375 64.984375 
Q 41.3125 65.921875 37.59375 65.921875 
Q 27.828125 65.921875 22.671875 59.328125 
Q 17.53125 52.734375 16.796875 39.40625 
Q 19.671875 43.65625 24.015625 45.921875 
Q 28.375 48.1875 33.59375 48.1875 
Q 44.578125 48.1875 50.953125 41.515625 
Q 57.328125 34.859375 57.328125 23.390625 
Q 57.328125 12.15625 50.6875 5.359375 
Q 44.046875 -1.421875 33.015625 -1.421875 
Q 20.359375 -1.421875 13.671875 8.265625 
Q 6.984375 17.96875 6.984375 36.375 
Q 6.984375 53.65625 15.1875 63.9375 
Q 23.390625 74.21875 37.203125 74.21875 
Q 40.921875 74.21875 44.703125 73.484375 
Q 48.484375 72.75 52.59375 71.296875 
" id="DejaVuSans-36"/>
      </defs>
      <g transform="translate(258.75705 322.182437)scale(0.1 -0.1)">
       <use xlink:href="#DejaVuSans-36"/>
       <use x="63.623047" xlink:href="#DejaVuSans-30"/>
       <use x="127.246094" xlink:href="#DejaVuSans-30"/>
      </g>
     </g>
    </g>
    <g id="xtick_5">
     <g id="line2d_9">
      <path clip-path="url(#pcb431a9272)" d="M 333.231709 307.584 
L 333.231709 41.472 
" style="fill:none;stroke:#b0b0b0;stroke-linecap:square;stroke-width:0.8;"/>
     </g>
     <g id="line2d_10">
      <g>
       <use style="stroke:#000000;stroke-width:0.8;" x="333.231709" xlink:href="#ma43362bb46" y="307.584"/>
      </g>
     </g>
     <g id="text_5">
      <!-- 800 -->
      <defs>
       <path d="M 31.78125 34.625 
Q 24.75 34.625 20.71875 30.859375 
Q 16.703125 27.09375 16.703125 20.515625 
Q 16.703125 13.921875 20.71875 10.15625 
Q 24.75 6.390625 31.78125 6.390625 
Q 38.8125 6.390625 42.859375 10.171875 
Q 46.921875 13.96875 46.921875 20.515625 
Q 46.921875 27.09375 42.890625 30.859375 
Q 38.875 34.625 31.78125 34.625 
M 21.921875 38.8125 
Q 15.578125 40.375 12.03125 44.71875 
Q 8.5 49.078125 8.5 55.328125 
Q 8.5 64.0625 14.71875 69.140625 
Q 20.953125 74.21875 31.78125 74.21875 
Q 42.671875 74.21875 48.875 69.140625 
Q 55.078125 64.0625 55.078125 55.328125 
Q 55.078125 49.078125 51.53125 44.71875 
Q 48 40.375 41.703125 38.8125 
Q 48.828125 37.15625 52.796875 32.3125 
Q 56.78125 27.484375 56.78125 20.515625 
Q 56.78125 9.90625 50.3125 4.234375 
Q 43.84375 -1.421875 31.78125 -1.421875 
Q 19.734375 -1.421875 13.25 4.234375 
Q 6.78125 9.90625 6.78125 20.515625 
Q 6.78125 27.484375 10.78125 32.3125 
Q 14.796875 37.15625 21.921875 38.8125 
M 18.3125 54.390625 
Q 18.3125 48.734375 21.84375 45.5625 
Q 25.390625 42.390625 31.78125 42.390625 
Q 38.140625 42.390625 41.71875 45.5625 
Q 45.3125 48.734375 45.3125 54.390625 
Q 45.3125 60.0625 41.71875 63.234375 
Q 38.140625 66.40625 31.78125 66.40625 
Q 25.390625 66.40625 21.84375 63.234375 
Q 18.3125 60.0625 18.3125 54.390625 
" id="DejaVuSans-38"/>
      </defs>
      <g transform="translate(323.687959 322.182437)scale(0.1 -0.1)">
       <use xlink:href="#DejaVuSans-38"/>
       <use x="63.623047" xlink:href="#DejaVuSans-30"/>
       <use x="127.246094" xlink:href="#DejaVuSans-30"/>
      </g>
     </g>
    </g>
    <g id="xtick_6">
     <g id="line2d_11">
      <path clip-path="url(#pcb431a9272)" d="M 398.162618 307.584 
L 398.162618 41.472 
" style="fill:none;stroke:#b0b0b0;stroke-linecap:square;stroke-width:0.8;"/>
     </g>
     <g id="line2d_12">
      <g>
       <use style="stroke:#000000;stroke-width:0.8;" x="398.162618" xlink:href="#ma43362bb46" y="307.584"/>
      </g>
     </g>
     <g id="text_6">
      <!-- 1000 -->
      <defs>
       <path d="M 12.40625 8.296875 
L 28.515625 8.296875 
L 28.515625 63.921875 
L 10.984375 60.40625 
L 10.984375 69.390625 
L 28.421875 72.90625 
L 38.28125 72.90625 
L 38.28125 8.296875 
L 54.390625 8.296875 
L 54.390625 0 
L 12.40625 0 
z
" id="DejaVuSans-31"/>
      </defs>
      <g transform="translate(385.437618 322.182437)scale(0.1 -0.1)">
       <use xlink:href="#DejaVuSans-31"/>
       <use x="63.623047" xlink:href="#DejaVuSans-30"/>
       <use x="127.246094" xlink:href="#DejaVuSans-30"/>
       <use x="190.869141" xlink:href="#DejaVuSans-30"/>
      </g>
     </g>
    </g>
    <g id="text_7">
     <!-- Number of clients -->
     <defs>
      <path d="M 9.8125 72.90625 
L 23.09375 72.90625 
L 55.421875 11.921875 
L 55.421875 72.90625 
L 64.984375 72.90625 
L 64.984375 0 
L 51.703125 0 
L 19.390625 60.984375 
L 19.390625 0 
L 9.8125 0 
z
" id="DejaVuSans-4e"/>
      <path d="M 8.5 21.578125 
L 8.5 54.6875 
L 17.484375 54.6875 
L 17.484375 21.921875 
Q 17.484375 14.15625 20.5 10.265625 
Q 23.53125 6.390625 29.59375 6.390625 
Q 36.859375 6.390625 41.078125 11.03125 
Q 45.3125 15.671875 45.3125 23.6875 
L 45.3125 54.6875 
L 54.296875 54.6875 
L 54.296875 0 
L 45.3125 0 
L 45.3125 8.40625 
Q 42.046875 3.421875 37.71875 1 
Q 33.40625 -1.421875 27.6875 -1.421875 
Q 18.265625 -1.421875 13.375 4.4375 
Q 8.5 10.296875 8.5 21.578125 
M 31.109375 56 
z
" id="DejaVuSans-75"/>
      <path d="M 52 44.1875 
Q 55.375 50.25 60.0625 53.125 
Q 64.75 56 71.09375 56 
Q 79.640625 56 84.28125 50.015625 
Q 88.921875 44.046875 88.921875 33.015625 
L 88.921875 0 
L 79.890625 0 
L 79.890625 32.71875 
Q 79.890625 40.578125 77.09375 44.375 
Q 74.3125 48.1875 68.609375 48.1875 
Q 61.625 48.1875 57.5625 43.546875 
Q 53.515625 38.921875 53.515625 30.90625 
L 53.515625 0 
L 44.484375 0 
L 44.484375 32.71875 
Q 44.484375 40.625 41.703125 44.40625 
Q 38.921875 48.1875 33.109375 48.1875 
Q 26.21875 48.1875 22.15625 43.53125 
Q 18.109375 38.875 18.109375 30.90625 
L 18.109375 0 
L 9.078125 0 
L 9.078125 54.6875 
L 18.109375 54.6875 
L 18.109375 46.1875 
Q 21.1875 51.21875 25.484375 53.609375 
Q 29.78125 56 35.6875 56 
Q 41.65625 56 45.828125 52.96875 
Q 50 49.953125 52 44.1875 
" id="DejaVuSans-6d"/>
      <path d="M 48.6875 27.296875 
Q 48.6875 37.203125 44.609375 42.84375 
Q 40.53125 48.484375 33.40625 48.484375 
Q 26.265625 48.484375 22.1875 42.84375 
Q 18.109375 37.203125 18.109375 27.296875 
Q 18.109375 17.390625 22.1875 11.75 
Q 26.265625 6.109375 33.40625 6.109375 
Q 40.53125 6.109375 44.609375 11.75 
Q 48.6875 17.390625 48.6875 27.296875 
M 18.109375 46.390625 
Q 20.953125 51.265625 25.265625 53.625 
Q 29.59375 56 35.59375 56 
Q 45.5625 56 51.78125 48.09375 
Q 58.015625 40.1875 58.015625 27.296875 
Q 58.015625 14.40625 51.78125 6.484375 
Q 45.5625 -1.421875 35.59375 -1.421875 
Q 29.59375 -1.421875 25.265625 0.953125 
Q 20.953125 3.328125 18.109375 8.203125 
L 18.109375 0 
L 9.078125 0 
L 9.078125 75.984375 
L 18.109375 75.984375 
z
" id="DejaVuSans-62"/>
      <path d="M 56.203125 29.59375 
L 56.203125 25.203125 
L 14.890625 25.203125 
Q 15.484375 15.921875 20.484375 11.0625 
Q 25.484375 6.203125 34.421875 6.203125 
Q 39.59375 6.203125 44.453125 7.46875 
Q 49.3125 8.734375 54.109375 11.28125 
L 54.109375 2.78125 
Q 49.265625 0.734375 44.1875 -0.34375 
Q 39.109375 -1.421875 33.890625 -1.421875 
Q 20.796875 -1.421875 13.15625 6.1875 
Q 5.515625 13.8125 5.515625 26.8125 
Q 5.515625 40.234375 12.765625 48.109375 
Q 20.015625 56 32.328125 56 
Q 43.359375 56 49.78125 48.890625 
Q 56.203125 41.796875 56.203125 29.59375 
M 47.21875 32.234375 
Q 47.125 39.59375 43.09375 43.984375 
Q 39.0625 48.390625 32.421875 48.390625 
Q 24.90625 48.390625 20.390625 44.140625 
Q 15.875 39.890625 15.1875 32.171875 
z
" id="DejaVuSans-65"/>
      <path d="M 41.109375 46.296875 
Q 39.59375 47.171875 37.8125 47.578125 
Q 36.03125 48 33.890625 48 
Q 26.265625 48 22.1875 43.046875 
Q 18.109375 38.09375 18.109375 28.8125 
L 18.109375 0 
L 9.078125 0 
L 9.078125 54.6875 
L 18.109375 54.6875 
L 18.109375 46.1875 
Q 20.953125 51.171875 25.484375 53.578125 
Q 30.03125 56 36.53125 56 
Q 37.453125 56 38.578125 55.875 
Q 39.703125 55.765625 41.0625 55.515625 
z
" id="DejaVuSans-72"/>
      <path id="DejaVuSans-20"/>
      <path d="M 30.609375 48.390625 
Q 23.390625 48.390625 19.1875 42.75 
Q 14.984375 37.109375 14.984375 27.296875 
Q 14.984375 17.484375 19.15625 11.84375 
Q 23.34375 6.203125 30.609375 6.203125 
Q 37.796875 6.203125 41.984375 11.859375 
Q 46.1875 17.53125 46.1875 27.296875 
Q 46.1875 37.015625 41.984375 42.703125 
Q 37.796875 48.390625 30.609375 48.390625 
M 30.609375 56 
Q 42.328125 56 49.015625 48.375 
Q 55.71875 40.765625 55.71875 27.296875 
Q 55.71875 13.875 49.015625 6.21875 
Q 42.328125 -1.421875 30.609375 -1.421875 
Q 18.84375 -1.421875 12.171875 6.21875 
Q 5.515625 13.875 5.515625 27.296875 
Q 5.515625 40.765625 12.171875 48.375 
Q 18.84375 56 30.609375 56 
" id="DejaVuSans-6f"/>
      <path d="M 37.109375 75.984375 
L 37.109375 68.5 
L 28.515625 68.5 
Q 23.6875 68.5 21.796875 66.546875 
Q 19.921875 64.59375 19.921875 59.515625 
L 19.921875 54.6875 
L 34.71875 54.6875 
L 34.71875 47.703125 
L 19.921875 47.703125 
L 19.921875 0 
L 10.890625 0 
L 10.890625 47.703125 
L 2.296875 47.703125 
L 2.296875 54.6875 
L 10.890625 54.6875 
L 10.890625 58.5 
Q 10.890625 67.625 15.140625 71.796875 
Q 19.390625 75.984375 28.609375 75.984375 
z
" id="DejaVuSans-66"/>
      <path d="M 48.78125 52.59375 
L 48.78125 44.1875 
Q 44.96875 46.296875 41.140625 47.34375 
Q 37.3125 48.390625 33.40625 48.390625 
Q 24.65625 48.390625 19.8125 42.84375 
Q 14.984375 37.3125 14.984375 27.296875 
Q 14.984375 17.28125 19.8125 11.734375 
Q 24.65625 6.203125 33.40625 6.203125 
Q 37.3125 6.203125 41.140625 7.25 
Q 44.96875 8.296875 48.78125 10.40625 
L 48.78125 2.09375 
Q 45.015625 0.34375 40.984375 -0.53125 
Q 36.96875 -1.421875 32.421875 -1.421875 
Q 20.0625 -1.421875 12.78125 6.34375 
Q 5.515625 14.109375 5.515625 27.296875 
Q 5.515625 40.671875 12.859375 48.328125 
Q 20.21875 56 33.015625 56 
Q 37.15625 56 41.109375 55.140625 
Q 45.0625 54.296875 48.78125 52.59375 
" id="DejaVuSans-63"/>
      <path d="M 9.421875 75.984375 
L 18.40625 75.984375 
L 18.40625 0 
L 9.421875 0 
z
" id="DejaVuSans-6c"/>
      <path d="M 9.421875 54.6875 
L 18.40625 54.6875 
L 18.40625 0 
L 9.421875 0 
z
M 9.421875 75.984375 
L 18.40625 75.984375 
L 18.40625 64.59375 
L 9.421875 64.59375 
z
" id="DejaVuSans-69"/>
      <path d="M 54.890625 33.015625 
L 54.890625 0 
L 45.90625 0 
L 45.90625 32.71875 
Q 45.90625 40.484375 42.875 44.328125 
Q 39.84375 48.1875 33.796875 48.1875 
Q 26.515625 48.1875 22.3125 43.546875 
Q 18.109375 38.921875 18.109375 30.90625 
L 18.109375 0 
L 9.078125 0 
L 9.078125 54.6875 
L 18.109375 54.6875 
L 18.109375 46.1875 
Q 21.34375 51.125 25.703125 53.5625 
Q 30.078125 56 35.796875 56 
Q 45.21875 56 50.046875 50.171875 
Q 54.890625 44.34375 54.890625 33.015625 
" id="DejaVuSans-6e"/>
      <path d="M 18.3125 70.21875 
L 18.3125 54.6875 
L 36.8125 54.6875 
L 36.8125 47.703125 
L 18.3125 47.703125 
L 18.3125 18.015625 
Q 18.3125 11.328125 20.140625 9.421875 
Q 21.96875 7.515625 27.59375 7.515625 
L 36.8125 7.515625 
L 36.8125 0 
L 27.59375 0 
Q 17.1875 0 13.234375 3.875 
Q 9.28125 7.765625 9.28125 18.015625 
L 9.28125 47.703125 
L 2.6875 47.703125 
L 2.6875 54.6875 
L 9.28125 54.6875 
L 9.28125 70.21875 
z
" id="DejaVuSans-74"/>
      <path d="M 44.28125 53.078125 
L 44.28125 44.578125 
Q 40.484375 46.53125 36.375 47.5 
Q 32.28125 48.484375 27.875 48.484375 
Q 21.1875 48.484375 17.84375 46.4375 
Q 14.5 44.390625 14.5 40.28125 
Q 14.5 37.15625 16.890625 35.375 
Q 19.28125 33.59375 26.515625 31.984375 
L 29.59375 31.296875 
Q 39.15625 29.25 43.1875 25.515625 
Q 47.21875 21.78125 47.21875 15.09375 
Q 47.21875 7.46875 41.1875 3.015625 
Q 35.15625 -1.421875 24.609375 -1.421875 
Q 20.21875 -1.421875 15.453125 -0.5625 
Q 10.6875 0.296875 5.421875 2 
L 5.421875 11.28125 
Q 10.40625 8.6875 15.234375 7.390625 
Q 20.0625 6.109375 24.8125 6.109375 
Q 31.15625 6.109375 34.5625 8.28125 
Q 37.984375 10.453125 37.984375 14.40625 
Q 37.984375 18.0625 35.515625 20.015625 
Q 33.0625 21.96875 24.703125 23.78125 
L 21.578125 24.515625 
Q 13.234375 26.265625 9.515625 29.90625 
Q 5.8125 33.546875 5.8125 39.890625 
Q 5.8125 47.609375 11.28125 51.796875 
Q 16.75 56 26.8125 56 
Q 31.78125 56 36.171875 55.265625 
Q 40.578125 54.546875 44.28125 53.078125 
" id="DejaVuSans-73"/>
     </defs>
     <g transform="translate(191.738906 335.860562)scale(0.1 -0.1)">
      <use xlink:href="#DejaVuSans-4e"/>
      <use x="74.804688" xlink:href="#DejaVuSans-75"/>
      <use x="138.183594" xlink:href="#DejaVuSans-6d"/>
      <use x="235.595703" xlink:href="#DejaVuSans-62"/>
      <use x="299.072266" xlink:href="#DejaVuSans-65"/>
      <use x="360.595703" xlink:href="#DejaVuSans-72"/>
      <use x="401.708984" xlink:href="#DejaVuSans-20"/>
      <use x="433.496094" xlink:href="#DejaVuSans-6f"/>
      <use x="494.677734" xlink:href="#DejaVuSans-66"/>
      <use x="529.882812" xlink:href="#DejaVuSans-20"/>
      <use x="561.669922" xlink:href="#DejaVuSans-63"/>
      <use x="616.650391" xlink:href="#DejaVuSans-6c"/>
      <use x="644.433594" xlink:href="#DejaVuSans-69"/>
      <use x="672.216797" xlink:href="#DejaVuSans-65"/>
      <use x="733.740234" xlink:href="#DejaVuSans-6e"/>
      <use x="797.119141" xlink:href="#DejaVuSans-74"/>
      <use x="836.328125" xlink:href="#DejaVuSans-73"/>
     </g>
    </g>
   </g>
   <g id="matplotlib.axis_2">
    <g id="ytick_1">
     <g id="line2d_13">
      <path clip-path="url(#pcb431a9272)" d="M 57.6 295.513087 
L 414.72 295.513087 
" style="fill:none;stroke:#b0b0b0;stroke-linecap:square;stroke-width:0.8;"/>
     </g>
     <g id="line2d_14">
      <defs>
       <path d="M 0 0 
L -3.5 0 
" id="mc69c44b5f9" style="stroke:#000000;stroke-width:0.8;"/>
      </defs>
      <g>
       <use style="stroke:#000000;stroke-width:0.8;" x="57.6" xlink:href="#mc69c44b5f9" y="295.513087"/>
      </g>
     </g>
     <g id="text_8">
      <!-- 0 -->
      <g transform="translate(44.2375 299.312306)scale(0.1 -0.1)">
       <use xlink:href="#DejaVuSans-30"/>
      </g>
     </g>
    </g>
    <g id="ytick_2">
     <g id="line2d_15">
      <path clip-path="url(#pcb431a9272)" d="M 57.6 247.984551 
L 414.72 247.984551 
" style="fill:none;stroke:#b0b0b0;stroke-linecap:square;stroke-width:0.8;"/>
     </g>
     <g id="line2d_16">
      <g>
       <use style="stroke:#000000;stroke-width:0.8;" x="57.6" xlink:href="#mc69c44b5f9" y="247.984551"/>
      </g>
     </g>
     <g id="text_9">
      <!-- 200 -->
      <g transform="translate(31.5125 251.783769)scale(0.1 -0.1)">
       <use xlink:href="#DejaVuSans-32"/>
       <use x="63.623047" xlink:href="#DejaVuSans-30"/>
       <use x="127.246094" xlink:href="#DejaVuSans-30"/>
      </g>
     </g>
    </g>
    <g id="ytick_3">
     <g id="line2d_17">
      <path clip-path="url(#pcb431a9272)" d="M 57.6 200.456014 
L 414.72 200.456014 
" style="fill:none;stroke:#b0b0b0;stroke-linecap:square;stroke-width:0.8;"/>
     </g>
     <g id="line2d_18">
      <g>
       <use style="stroke:#000000;stroke-width:0.8;" x="57.6" xlink:href="#mc69c44b5f9" y="200.456014"/>
      </g>
     </g>
     <g id="text_10">
      <!-- 400 -->
      <g transform="translate(31.5125 204.255233)scale(0.1 -0.1)">
       <use xlink:href="#DejaVuSans-34"/>
       <use x="63.623047" xlink:href="#DejaVuSans-30"/>
       <use x="127.246094" xlink:href="#DejaVuSans-30"/>
      </g>
     </g>
    </g>
    <g id="ytick_4">
     <g id="line2d_19">
      <path clip-path="url(#pcb431a9272)" d="M 57.6 152.927478 
L 414.72 152.927478 
" style="fill:none;stroke:#b0b0b0;stroke-linecap:square;stroke-width:0.8;"/>
     </g>
     <g id="line2d_20">
      <g>
       <use style="stroke:#000000;stroke-width:0.8;" x="57.6" xlink:href="#mc69c44b5f9" y="152.927478"/>
      </g>
     </g>
     <g id="text_11">
      <!-- 600 -->
      <g transform="translate(31.5125 156.726697)scale(0.1 -0.1)">
       <use xlink:href="#DejaVuSans-36"/>
       <use x="63.623047" xlink:href="#DejaVuSans-30"/>
       <use x="127.246094" xlink:href="#DejaVuSans-30"/>
      </g>
     </g>
    </g>
    <g id="ytick_5">
     <g id="line2d_21">
      <path clip-path="url(#pcb431a9272)" d="M 57.6 105.398942 
L 414.72 105.398942 
" style="fill:none;stroke:#b0b0b0;stroke-linecap:square;stroke-width:0.8;"/>
     </g>
     <g id="line2d_22">
      <g>
       <use style="stroke:#000000;stroke-width:0.8;" x="57.6" xlink:href="#mc69c44b5f9" y="105.398942"/>
      </g>
     </g>
     <g id="text_12">
      <!-- 800 -->
      <g transform="translate(31.5125 109.198161)scale(0.1 -0.1)">
       <use xlink:href="#DejaVuSans-38"/>
       <use x="63.623047" xlink:href="#DejaVuSans-30"/>
       <use x="127.246094" xlink:href="#DejaVuSans-30"/>
      </g>
     </g>
    </g>
    <g id="ytick_6">
     <g id="line2d_23">
      <path clip-path="url(#pcb431a9272)" d="M 57.6 57.870406 
L 414.72 57.870406 
" style="fill:none;stroke:#b0b0b0;stroke-linecap:square;stroke-width:0.8;"/>
     </g>
     <g id="line2d_24">
      <g>
       <use style="stroke:#000000;stroke-width:0.8;" x="57.6" xlink:href="#mc69c44b5f9" y="57.870406"/>
      </g>
     </g>
     <g id="text_13">
      <!-- 1000 -->
      <g transform="translate(25.15 61.669624)scale(0.1 -0.1)">
       <use xlink:href="#DejaVuSans-31"/>
       <use x="63.623047" xlink:href="#DejaVuSans-30"/>
       <use x="127.246094" xlink:href="#DejaVuSans-30"/>
       <use x="190.869141" xlink:href="#DejaVuSans-30"/>
      </g>
     </g>
    </g>
    <g id="text_14">
     <!-- Delay -->
     <defs>
      <path d="M 19.671875 64.796875 
L 19.671875 8.109375 
L 31.59375 8.109375 
Q 46.6875 8.109375 53.6875 14.9375 
Q 60.6875 21.78125 60.6875 36.53125 
Q 60.6875 51.171875 53.6875 57.984375 
Q 46.6875 64.796875 31.59375 64.796875 
z
M 9.8125 72.90625 
L 30.078125 72.90625 
Q 51.265625 72.90625 61.171875 64.09375 
Q 71.09375 55.28125 71.09375 36.53125 
Q 71.09375 17.671875 61.125 8.828125 
Q 51.171875 0 30.078125 0 
L 9.8125 0 
z
" id="DejaVuSans-44"/>
      <path d="M 34.28125 27.484375 
Q 23.390625 27.484375 19.1875 25 
Q 14.984375 22.515625 14.984375 16.5 
Q 14.984375 11.71875 18.140625 8.90625 
Q 21.296875 6.109375 26.703125 6.109375 
Q 34.1875 6.109375 38.703125 11.40625 
Q 43.21875 16.703125 43.21875 25.484375 
L 43.21875 27.484375 
z
M 52.203125 31.203125 
L 52.203125 0 
L 43.21875 0 
L 43.21875 8.296875 
Q 40.140625 3.328125 35.546875 0.953125 
Q 30.953125 -1.421875 24.3125 -1.421875 
Q 15.921875 -1.421875 10.953125 3.296875 
Q 6 8.015625 6 15.921875 
Q 6 25.140625 12.171875 29.828125 
Q 18.359375 34.515625 30.609375 34.515625 
L 43.21875 34.515625 
L 43.21875 35.40625 
Q 43.21875 41.609375 39.140625 45 
Q 35.0625 48.390625 27.6875 48.390625 
Q 23 48.390625 18.546875 47.265625 
Q 14.109375 46.140625 10.015625 43.890625 
L 10.015625 52.203125 
Q 14.9375 54.109375 19.578125 55.046875 
Q 24.21875 56 28.609375 56 
Q 40.484375 56 46.34375 49.84375 
Q 52.203125 43.703125 52.203125 31.203125 
" id="DejaVuSans-61"/>
      <path d="M 32.171875 -5.078125 
Q 28.375 -14.84375 24.75 -17.8125 
Q 21.140625 -20.796875 15.09375 -20.796875 
L 7.90625 -20.796875 
L 7.90625 -13.28125 
L 13.1875 -13.28125 
Q 16.890625 -13.28125 18.9375 -11.515625 
Q 21 -9.765625 23.484375 -3.21875 
L 25.09375 0.875 
L 2.984375 54.6875 
L 12.5 54.6875 
L 29.59375 11.921875 
L 46.6875 54.6875 
L 56.203125 54.6875 
z
" id="DejaVuSans-79"/>
     </defs>
     <g transform="translate(19.070312 188.867063)rotate(-90)scale(0.1 -0.1)">
      <use xlink:href="#DejaVuSans-44"/>
      <use x="77.001953" xlink:href="#DejaVuSans-65"/>
      <use x="138.525391" xlink:href="#DejaVuSans-6c"/>
      <use x="166.308594" xlink:href="#DejaVuSans-61"/>
      <use x="227.587891" xlink:href="#DejaVuSans-79"/>
     </g>
    </g>
   </g>
   <g id="line2d_25">
    <path clip-path="url(#pcb431a9272)" d="M 73.832727 295.474826 
L 79.0272 295.444964 
L 86.818909 295.334704 
L 95.584582 295.073579 
L 95.909236 294.966003 
L 96.8832 294.98888 
L 99.480436 294.764581 
L 99.805091 294.847609 
L 100.129745 294.707714 
L 100.4544 294.744458 
L 100.779055 294.580275 
L 101.103709 294.635296 
L 101.428364 294.484821 
L 102.402327 294.473763 
L 102.726982 294.287166 
L 103.051636 294.291254 
L 103.376291 294.407501 
L 104.0256 294.201808 
L 104.674909 294.197308 
L 104.999564 294.160726 
L 105.324218 293.813196 
L 105.973527 294.022737 
L 106.298182 293.805628 
L 108.570764 293.53724 
L 108.895418 293.168338 
L 109.220073 293.290562 
L 109.544727 293.048319 
L 110.518691 293.103274 
L 110.843345 292.780965 
L 111.168 292.721054 
L 111.492655 292.143013 
L 111.817309 292.288322 
L 112.141964 291.977913 
L 112.466618 292.129324 
L 112.791273 291.572453 
L 113.115927 292.093892 
L 113.440582 291.658044 
L 113.765236 291.428869 
L 114.089891 290.882483 
L 114.7392 290.918756 
L 115.063855 290.381309 
L 115.388509 290.25061 
L 115.713164 290.644848 
L 116.037818 290.218457 
L 116.362473 289.563697 
L 116.687127 289.810091 
L 117.011782 289.196352 
L 117.661091 289.170513 
L 117.985745 288.75137 
L 118.3104 287.98216 
L 118.959709 288.322085 
L 119.284364 287.264242 
L 119.933673 287.070549 
L 120.258327 286.235326 
L 120.582982 286.050991 
L 120.907636 285.331145 
L 121.232291 285.750074 
L 121.556945 284.746169 
L 121.8816 285.376403 
L 122.530909 283.142836 
L 122.855564 283.841623 
L 123.180218 282.198994 
L 123.829527 281.893192 
L 124.154182 282.535132 
L 124.803491 281.312985 
L 125.4528 277.300255 
L 125.777455 276.421178 
L 126.102109 277.83278 
L 126.426764 278.167636 
L 126.751418 278.741544 
L 127.076073 277.589851 
L 128.050036 270.04863 
L 128.374691 270.071283 
L 128.699345 269.185278 
L 129.348655 270.051459 
L 129.673309 269.273703 
L 130.322618 263.727175 
L 130.647273 264.942636 
L 130.971927 264.315503 
L 131.296582 262.958124 
L 131.621236 260.135722 
L 131.945891 258.879471 
L 132.270545 260.60586 
L 132.919855 253.534146 
L 133.244509 253.738833 
L 133.569164 253.719526 
L 133.893818 250.998909 
L 134.218473 245.613104 
L 134.543127 250.935942 
L 134.867782 244.758143 
L 135.192436 245.238014 
L 135.517091 237.643035 
L 135.841745 239.903639 
L 136.1664 239.038405 
L 136.491055 227.945466 
L 136.815709 225.045378 
L 137.140364 230.83047 
L 137.465018 222.085686 
L 137.789673 218.19139 
L 138.114327 222.850537 
L 138.438982 221.00978 
L 138.763636 218.510565 
L 139.088291 211.559492 
L 139.412945 209.165409 
L 139.7376 197.327845 
L 140.062255 196.889032 
L 140.386909 199.279868 
L 140.711564 196.241607 
L 141.036218 198.456913 
L 141.360873 184.877897 
L 141.685527 183.530075 
L 142.010182 173.152375 
L 142.334836 175.435045 
L 142.659491 161.779247 
L 142.984145 166.928528 
L 143.3088 157.673294 
L 143.633455 160.922514 
L 143.958109 157.199474 
L 144.607418 139.354864 
L 144.932073 137.141633 
L 145.256727 137.562987 
L 145.581382 138.848172 
L 145.906036 133.48515 
L 146.230691 132.870353 
L 146.88 114.539905 
L 147.204655 122.691444 
L 147.529309 127.494987 
L 147.853964 113.069597 
L 148.178618 114.886468 
L 148.503273 115.513019 
L 148.827927 115.866537 
L 149.152582 108.628376 
L 149.477236 105.590311 
L 149.801891 97.521622 
L 150.126545 105.82376 
L 150.775855 97.482076 
L 151.100509 96.723959 
L 151.425164 100.000317 
L 151.749818 94.925892 
L 152.074473 93.795762 
L 152.399127 96.560906 
L 152.723782 87.357153 
L 153.048436 87.007622 
L 153.373091 86.15706 
L 153.697745 84.854976 
L 154.0224 88.062517 
L 154.996364 79.704672 
L 155.645673 85.163005 
L 155.970327 75.789157 
L 156.294982 81.70332 
L 156.619636 75.267512 
L 156.944291 80.161356 
L 157.268945 77.409692 
L 157.5936 78.345026 
L 157.918255 75.500284 
L 158.242909 77.488707 
L 158.567564 73.988116 
L 158.892218 72.667074 
L 159.216873 76.240556 
L 159.541527 70.875908 
L 159.866182 70.228562 
L 160.190836 74.359288 
L 160.515491 70.305836 
L 160.840145 68.331825 
L 161.1648 71.214554 
L 161.489455 69.097256 
L 161.814109 68.036924 
L 162.138764 70.593751 
L 162.463418 69.758606 
L 162.788073 68.020566 
L 163.112727 64.672861 
L 163.437382 66.877067 
L 163.762036 64.937936 
L 164.086691 66.017177 
L 164.411345 67.730918 
L 164.736 65.936774 
L 165.060655 60.261394 
L 165.385309 60.923648 
L 166.034618 64.746045 
L 166.359273 62.636016 
L 166.683927 62.773173 
L 167.008582 61.906902 
L 167.333236 62.423019 
L 167.657891 64.271828 
L 167.982545 63.517899 
L 168.3072 64.07217 
L 168.631855 63.364441 
L 169.281164 61.226498 
L 169.605818 63.498312 
L 169.930473 62.052241 
L 170.255127 59.944499 
L 170.579782 63.783207 
L 170.904436 63.271462 
L 171.229091 63.549113 
L 171.553745 62.206802 
L 171.8784 62.734534 
L 172.203055 58.496956 
L 172.527709 62.915465 
L 172.852364 59.027847 
L 173.177018 281.133541 
L 173.501673 282.13189 
L 173.826327 282.02973 
L 174.150982 281.401615 
L 174.475636 282.175976 
L 174.800291 279.826323 
L 175.124945 279.986326 
L 175.4496 280.484559 
L 175.774255 282.04116 
L 176.098909 280.465349 
L 176.423564 278.079941 
L 176.748218 278.763457 
L 177.072873 279.098605 
L 177.397527 280.020524 
L 177.722182 277.425032 
L 178.046836 276.981648 
L 178.371491 277.53863 
L 178.696145 278.754094 
L 179.0208 277.265336 
L 179.345455 277.092061 
L 179.670109 275.186158 
L 179.994764 277.168937 
L 180.319418 277.574529 
L 180.968727 273.98996 
L 181.293382 274.958882 
L 181.618036 273.814642 
L 181.942691 274.762346 
L 182.267345 273.063035 
L 182.592 272.981456 
L 182.916655 271.893247 
L 183.241309 271.53036 
L 183.565964 270.16388 
L 183.890618 270.05305 
L 184.539927 269.480662 
L 184.864582 268.672565 
L 185.189236 268.919398 
L 185.513891 270.733461 
L 185.838545 268.018687 
L 186.1632 268.377699 
L 186.487855 265.75713 
L 186.812509 267.163168 
L 187.137164 267.556796 
L 187.461818 263.996255 
L 187.786473 266.238061 
L 188.111127 264.003149 
L 188.435782 263.122004 
L 188.760436 262.732649 
L 189.085091 260.738011 
L 189.409745 262.830321 
L 189.7344 262.532871 
L 190.059055 262.894092 
L 190.383709 260.143645 
L 191.033018 256.324375 
L 191.357673 256.937252 
L 191.682327 260.260931 
L 192.006982 253.466194 
L 192.331636 256.858902 
L 192.656291 252.76246 
L 192.980945 254.316381 
L 193.3056 253.387571 
L 193.630255 254.074129 
L 193.954909 249.359362 
L 194.279564 251.775739 
L 194.604218 247.434252 
L 194.928873 247.474561 
L 195.253527 247.034009 
L 195.578182 244.662873 
L 195.902836 243.613659 
L 196.227491 241.219648 
L 196.552145 242.635174 
L 196.8768 247.502209 
L 197.201455 241.071227 
L 197.526109 237.188611 
L 197.850764 239.724266 
L 198.175418 243.183213 
L 198.500073 236.266869 
L 198.824727 232.756077 
L 199.149382 233.338368 
L 199.474036 238.66558 
L 199.798691 229.212937 
L 200.123345 232.752908 
L 200.448 232.150795 
L 201.097309 223.116457 
L 201.421964 230.916541 
L 201.746618 225.04076 
L 202.071273 215.896184 
L 202.395927 224.8365 
L 202.720582 219.250724 
L 203.045236 216.125377 
L 203.369891 217.534189 
L 203.694545 222.34731 
L 204.0192 215.193098 
L 204.668509 207.109887 
L 204.993164 206.794268 
L 205.317818 207.72115 
L 205.642473 212.078564 
L 205.967127 205.032422 
L 206.616436 197.16007 
L 206.941091 212.10176 
L 207.5904 184.543424 
L 207.915055 194.590942 
L 208.239709 188.90313 
L 208.564364 192.149343 
L 208.889018 189.184134 
L 209.213673 183.392325 
L 209.538327 186.60412 
L 209.862982 176.584368 
L 210.187636 175.621079 
L 210.512291 170.584309 
L 210.836945 168.395207 
L 211.1616 172.439494 
L 211.486255 172.056198 
L 211.810909 163.218277 
L 212.135564 159.96626 
L 212.460218 163.604441 
L 212.784873 160.021706 
L 213.434182 150.942143 
L 213.758836 153.431031 
L 214.083491 145.608668 
L 214.408145 145.164073 
L 214.7328 145.937042 
L 215.057455 149.174611 
L 215.382109 146.304256 
L 215.706764 145.118468 
L 216.031418 141.604548 
L 216.356073 142.021203 
L 216.680727 141.855229 
L 217.005382 141.169997 
L 217.330036 133.891032 
L 217.654691 132.031339 
L 217.979345 132.896306 
L 218.628655 129.17801 
L 218.953309 121.980481 
L 219.277964 125.109429 
L 219.602618 130.341511 
L 219.927273 121.648509 
L 220.251927 116.976951 
L 220.576582 127.911902 
L 221.550545 110.398212 
L 221.8752 117.471115 
L 222.199855 110.913333 
L 222.524509 123.49089 
L 222.849164 116.029089 
L 223.498473 109.859891 
L 223.823127 108.920435 
L 224.147782 111.68606 
L 224.472436 111.307176 
L 224.797091 107.945339 
L 225.121745 106.133455 
L 225.4464 111.25009 
L 225.771055 102.797892 
L 226.095709 103.626529 
L 226.420364 99.26821 
L 226.745018 103.066991 
L 227.069673 101.957802 
L 227.394327 102.726662 
L 228.043636 94.369997 
L 228.368291 98.231773 
L 228.692945 99.393559 
L 229.0176 97.958136 
L 229.342255 97.808266 
L 229.666909 97.973134 
L 230.316218 88.474968 
L 230.640873 94.254506 
L 230.965527 91.073613 
L 231.290182 93.202121 
L 231.614836 93.096126 
L 231.939491 81.333269 
L 232.264145 92.143817 
L 232.5888 88.797812 
L 232.913455 92.386569 
L 233.238109 87.995459 
L 233.562764 89.815166 
L 233.887418 87.06988 
L 234.212073 85.497836 
L 234.536727 84.529664 
L 234.861382 88.496547 
L 235.510691 80.234848 
L 235.835345 81.858022 
L 236.16 80.165243 
L 236.484655 80.418546 
L 236.809309 81.559016 
L 237.133964 80.541826 
L 237.458618 82.397806 
L 237.783273 81.782329 
L 238.107927 82.736845 
L 238.432582 77.532385 
L 238.757236 76.286371 
L 239.081891 74.425318 
L 239.406545 78.231147 
L 239.7312 77.065983 
L 240.055855 79.819685 
L 240.380509 78.589163 
L 240.705164 78.6324 
L 241.029818 74.010876 
L 241.354473 76.936574 
L 241.679127 76.028323 
L 242.003782 79.917873 
L 242.653091 69.972551 
L 242.977745 80.639587 
L 243.627055 71.520304 
L 243.951709 73.045399 
L 244.276364 70.874546 
L 244.601018 75.368609 
L 244.925673 71.337918 
L 245.250327 72.881629 
L 245.574982 68.877863 
L 245.899636 70.666131 
L 246.224291 71.181239 
L 246.548945 73.496498 
L 246.8736 69.637634 
L 247.198255 73.553942 
L 247.522909 67.221788 
L 247.847564 70.927784 
L 248.172218 70.114522 
L 248.496873 70.733718 
L 248.821527 69.799986 
L 249.146182 68.364363 
L 249.470836 69.135634 
L 249.795491 68.771325 
L 250.120145 70.38601 
L 250.4448 71.162223 
L 250.769455 68.809574 
L 251.094109 68.521663 
L 251.418764 69.074974 
L 251.743418 68.427966 
L 252.068073 67.492821 
L 252.392727 68.491677 
L 252.717382 65.223823 
L 253.366691 70.396672 
L 253.691345 67.188983 
L 254.016 66.277292 
L 254.340655 68.337083 
L 254.665309 65.337475 
L 254.989964 67.771481 
L 255.314618 65.444828 
L 255.639273 67.382975 
L 255.963927 63.170693 
L 256.288582 65.64105 
L 256.613236 66.170223 
L 256.937891 64.990092 
L 257.262545 62.01039 
L 257.5872 67.264074 
L 257.911855 63.250774 
L 258.236509 66.911375 
L 258.561164 66.088566 
L 258.885818 66.078904 
L 259.210473 63.794713 
L 259.535127 66.646625 
L 259.859782 60.121389 
L 260.184436 65.731691 
L 260.509091 62.970629 
L 260.833745 65.424892 
L 261.1584 63.024143 
L 261.807709 63.864588 
L 262.132364 62.120841 
L 262.457018 61.397151 
L 262.781673 64.420515 
L 263.430982 60.585605 
L 263.755636 61.976829 
L 264.080291 62.234148 
L 264.404945 61.26802 
L 264.7296 63.949723 
L 265.054255 59.749694 
L 265.378909 64.726718 
L 265.703564 59.958302 
L 266.028218 62.649648 
L 266.352873 63.785185 
L 266.677527 60.930319 
L 267.002182 63.787163 
L 267.326836 219.160824 
L 267.651491 216.232372 
L 267.976145 216.145036 
L 268.3008 214.673985 
L 268.625455 217.504405 
L 268.950109 219.096465 
L 269.274764 211.1212 
L 269.599418 213.067603 
L 269.924073 213.059282 
L 270.248727 213.567667 
L 270.573382 205.549768 
L 270.898036 218.687129 
L 271.222691 219.039795 
L 271.547345 215.140049 
L 271.872 205.605178 
L 272.196655 208.403741 
L 272.521309 206.872118 
L 272.845964 208.420255 
L 273.170618 205.597063 
L 273.495273 206.257212 
L 273.819927 214.23033 
L 274.469236 201.465064 
L 274.793891 205.097194 
L 275.118545 206.442535 
L 275.4432 201.991048 
L 275.767855 204.123439 
L 276.092509 198.754974 
L 276.417164 206.391914 
L 277.066473 199.334872 
L 277.391127 197.620452 
L 277.715782 201.022482 
L 278.040436 198.428236 
L 278.365091 199.064614 
L 278.689745 197.422017 
L 279.0144 200.603213 
L 279.339055 194.014439 
L 279.663709 203.654315 
L 279.988364 194.269378 
L 280.313018 197.636449 
L 280.637673 197.823604 
L 280.962327 202.464553 
L 281.286982 194.564266 
L 281.611636 195.763392 
L 281.936291 194.309706 
L 282.260945 189.216998 
L 282.5856 192.929129 
L 283.234909 193.483287 
L 283.559564 189.360728 
L 283.884218 200.026309 
L 284.208873 189.018343 
L 284.533527 191.132023 
L 284.858182 181.063796 
L 285.182836 192.465328 
L 285.507491 188.125549 
L 285.832145 188.627 
L 286.1568 185.937967 
L 286.481455 188.562431 
L 286.806109 186.958558 
L 287.455418 178.642646 
L 287.780073 186.23343 
L 288.104727 179.204634 
L 288.429382 189.212648 
L 288.754036 177.746548 
L 289.078691 178.959237 
L 289.403345 176.588842 
L 289.728 177.777188 
L 290.052655 174.183808 
L 290.377309 180.365045 
L 290.701964 180.767918 
L 291.026618 179.050162 
L 291.351273 176.253619 
L 291.675927 176.266481 
L 292.000582 171.906619 
L 292.325236 176.3189 
L 292.649891 170.996118 
L 292.974545 170.525983 
L 293.2992 173.465158 
L 293.623855 167.973335 
L 293.948509 171.943571 
L 294.273164 170.131349 
L 294.597818 164.899237 
L 294.922473 172.064547 
L 295.571782 161.524252 
L 295.896436 160.530769 
L 296.221091 176.204986 
L 296.545745 167.824146 
L 296.8704 173.372116 
L 297.195055 166.269687 
L 297.519709 169.261444 
L 298.169018 163.875618 
L 298.493673 169.896395 
L 298.818327 153.849952 
L 299.142982 166.964315 
L 299.467636 160.838966 
L 299.792291 164.853431 
L 300.116945 155.8574 
L 300.4416 162.17692 
L 300.766255 155.100127 
L 301.090909 155.779961 
L 301.415564 160.920598 
L 301.740218 158.868282 
L 302.064873 158.914285 
L 302.389527 150.265499 
L 302.714182 158.063295 
L 303.038836 159.461363 
L 303.363491 153.466791 
L 303.688145 156.241519 
L 304.0128 163.820556 
L 304.337455 163.499972 
L 304.986764 147.054018 
L 305.311418 148.297214 
L 305.636073 151.577815 
L 306.285382 159.733744 
L 306.610036 152.358676 
L 306.934691 156.102913 
L 307.259345 149.016333 
L 307.584 154.609023 
L 307.908655 145.45181 
L 308.233309 140.04291 
L 308.557964 151.428873 
L 308.882618 140.985775 
L 309.207273 144.552624 
L 309.531927 149.366706 
L 309.856582 147.176741 
L 310.505891 145.426985 
L 310.830545 139.336132 
L 311.1552 139.402677 
L 311.479855 139.753988 
L 311.804509 142.948847 
L 312.129164 142.805357 
L 312.453818 137.309127 
L 312.778473 142.708378 
L 313.103127 139.178416 
L 313.427782 141.035442 
L 313.752436 131.944124 
L 314.077091 143.533333 
L 314.401745 149.023476 
L 314.7264 145.561834 
L 315.051055 137.576234 
L 315.375709 145.189873 
L 315.700364 142.391861 
L 316.025018 141.847912 
L 316.349673 141.881768 
L 316.674327 143.721329 
L 316.998982 134.667946 
L 317.323636 128.965083 
L 317.648291 140.446447 
L 317.972945 128.779449 
L 318.622255 139.426847 
L 319.271564 131.494523 
L 319.596218 132.69313 
L 319.920873 131.484128 
L 320.570182 137.943327 
L 320.894836 137.712039 
L 321.544145 125.600964 
L 321.8688 126.232102 
L 322.842764 133.87891 
L 323.167418 138.384397 
L 323.492073 125.619031 
L 323.816727 122.329276 
L 324.141382 132.441204 
L 324.466036 123.804551 
L 325.115345 125.684723 
L 325.44 132.076736 
L 325.764655 128.039959 
L 326.089309 126.338389 
L 326.413964 132.063427 
L 326.738618 116.558329 
L 327.063273 128.908263 
L 327.387927 124.383434 
L 327.712582 133.586348 
L 328.037236 121.89489 
L 328.361891 125.297609 
L 328.686545 123.244433 
L 329.0112 116.450877 
L 329.335855 121.120605 
L 329.660509 121.943759 
L 329.985164 127.590123 
L 330.309818 115.27686 
L 330.634473 125.700989 
L 330.959127 128.073627 
L 331.608436 119.351979 
L 331.933091 124.557518 
L 332.257745 117.221733 
L 332.5824 125.229789 
L 332.907055 125.346087 
L 333.231709 121.150437 
L 333.556364 119.74531 
L 333.881018 115.774676 
L 334.205673 125.915476 
L 334.530327 118.621775 
L 334.854982 115.284712 
L 335.179636 119.465102 
L 335.504291 119.239027 
L 335.828945 119.970004 
L 336.1536 114.833788 
L 336.478255 116.179543 
L 336.802909 123.413311 
L 337.127564 115.995535 
L 337.452218 115.791081 
L 337.776873 122.503133 
L 338.101527 113.408217 
L 338.426182 119.572711 
L 338.750836 112.849607 
L 339.075491 119.389161 
L 339.400145 115.511736 
L 339.7248 116.568221 
L 340.049455 105.349248 
L 340.374109 109.368785 
L 340.698764 114.889174 
L 341.023418 113.877303 
L 341.348073 113.598272 
L 341.672727 117.801218 
L 341.997382 108.781182 
L 342.322036 113.359218 
L 342.646691 108.482728 
L 342.971345 111.44179 
L 343.296 112.590512 
L 343.620655 113.126965 
L 343.945309 110.453627 
L 344.269964 112.308198 
L 344.594618 108.045468 
L 344.919273 112.00335 
L 345.243927 108.787256 
L 345.568582 110.422288 
L 345.893236 110.208403 
L 346.217891 105.32094 
L 346.542545 108.646514 
L 346.8672 115.297255 
L 347.191855 109.209843 
L 347.516509 108.982298 
L 347.841164 101.364231 
L 348.165818 109.275664 
L 348.490473 104.814535 
L 348.815127 114.271232 
L 349.464436 102.022675 
L 349.789091 105.884791 
L 350.113745 107.507028 
L 350.4384 108.476887 
L 350.763055 106.439162 
L 351.087709 108.924858 
L 351.412364 113.068833 
L 351.737018 110.268108 
L 352.061673 103.234474 
L 352.386327 107.085789 
L 352.710982 105.425257 
L 353.035636 110.414284 
L 353.360291 103.927451 
L 353.684945 105.941934 
L 354.0096 104.253397 
L 354.334255 107.184109 
L 354.658909 104.283852 
L 354.983564 104.970453 
L 355.308218 99.559039 
L 355.632873 106.726305 
L 355.957527 106.195691 
L 356.282182 106.665081 
L 356.606836 110.574032 
L 356.931491 101.150746 
L 357.256145 96.732525 
L 357.5808 104.75343 
L 357.905455 105.518903 
L 358.230109 103.175532 
L 358.554764 105.636982 
L 358.879418 99.948732 
L 359.204073 99.591108 
L 359.528727 98.481188 
L 359.853382 105.200144 
L 360.178036 100.715135 
L 360.502691 99.879823 
L 360.827345 97.433807 
L 361.152 100.039959 
L 361.476655 105.642591 
L 361.801309 95.350201 
L 362.125964 97.372387 
L 362.775273 103.579155 
L 363.099927 99.350465 
L 363.424582 98.722111 
L 364.073891 96.592421 
L 364.398545 99.271148 
L 364.7232 99.125721 
L 365.047855 96.410568 
L 365.372509 94.941556 
L 365.697164 100.319093 
L 366.021818 101.677523 
L 366.346473 94.767354 
L 366.671127 92.152232 
L 366.995782 93.44756 
L 367.320436 97.42523 
L 367.645091 90.214489 
L 367.969745 96.171189 
L 368.2944 95.974052 
L 368.619055 93.045974 
L 368.943709 96.969449 
L 369.268364 97.835238 
L 369.593018 92.999358 
L 369.917673 96.320073 
L 370.242327 94.650667 
L 370.566982 94.03585 
L 370.891636 92.705617 
L 371.216291 97.325796 
L 371.540945 97.076782 
L 371.8656 86.926428 
L 372.190255 95.139427 
L 372.514909 90.800465 
L 372.839564 96.855295 
L 373.164218 95.859315 
L 373.488873 91.23337 
L 373.813527 90.512619 
L 374.138182 91.510099 
L 374.462836 90.940971 
L 374.787491 88.544244 
L 375.112145 92.607386 
L 375.4368 88.59732 
L 375.761455 97.376084 
L 376.086109 93.432051 
L 376.410764 91.500006 
L 376.735418 92.942109 
L 377.060073 85.512966 
L 377.384727 86.511536 
L 377.709382 90.940369 
L 378.034036 86.349676 
L 378.358691 86.837872 
L 378.683345 90.22602 
L 379.008 89.031157 
L 379.332655 90.491641 
L 379.657309 92.562645 
L 379.981964 97.54496 
L 380.306618 85.808528 
L 380.631273 91.1602 
L 381.280582 85.135781 
L 381.605236 89.314287 
L 381.929891 88.433109 
L 382.254545 90.029018 
L 382.5792 90.836534 
L 382.903855 89.545001 
L 383.228509 92.25653 
L 384.202473 86.171318 
L 384.527127 88.19103 
L 384.851782 87.24733 
L 385.176436 85.061396 
L 385.501091 86.117829 
L 385.825745 88.614768 
L 386.1504 86.322919 
L 386.475055 87.690792 
L 386.799709 81.906961 
L 387.124364 91.433795 
L 387.449018 81.452447 
L 387.773673 88.734346 
L 388.098327 88.737502 
L 388.422982 86.341427 
L 388.747636 83.0993 
L 389.072291 86.122775 
L 389.396945 86.155124 
L 389.7216 90.049358 
L 390.046255 90.376145 
L 390.370909 84.026139 
L 390.695564 86.741555 
L 391.020218 82.221923 
L 391.344873 86.349842 
L 391.669527 82.38704 
L 391.994182 87.112318 
L 392.318836 80.772607 
L 392.643491 84.361792 
L 392.968145 84.991404 
L 393.2928 86.410554 
L 393.617455 88.528753 
L 393.942109 79.228506 
L 394.266764 79.009748 
L 394.591418 84.270143 
L 394.916073 80.262698 
L 395.565382 88.506135 
L 395.890036 85.425666 
L 396.214691 84.380433 
L 396.864 80.910031 
L 397.188655 82.468076 
L 397.513309 80.996746 
L 397.837964 85.075571 
L 398.162618 83.589067 
L 398.487273 84.531196 
L 398.487273 84.531196 
" style="fill:none;stroke:#008000;stroke-linecap:square;"/>
   </g>
   <g id="patch_3">
    <path d="M 57.6 307.584 
L 57.6 41.472 
" style="fill:none;stroke:#000000;stroke-linecap:square;stroke-linejoin:miter;stroke-width:0.8;"/>
   </g>
   <g id="patch_4">
    <path d="M 414.72 307.584 
L 414.72 41.472 
" style="fill:none;stroke:#000000;stroke-linecap:square;stroke-linejoin:miter;stroke-width:0.8;"/>
   </g>
   <g id="patch_5">
    <path d="M 57.6 307.584 
L 414.72 307.584 
" style="fill:none;stroke:#000000;stroke-linecap:square;stroke-linejoin:miter;stroke-width:0.8;"/>
   </g>
   <g id="patch_6">
    <path d="M 57.6 41.472 
L 414.72 41.472 
" style="fill:none;stroke:#000000;stroke-linecap:square;stroke-linejoin:miter;stroke-width:0.8;"/>
   </g>
   <g id="text_15">
    <!-- Test -->
    <defs>
     <path d="M -0.296875 72.90625 
L 61.375 72.90625 
L 61.375 64.59375 
L 35.5 64.59375 
L 35.5 0 
L 25.59375 0 
L 25.59375 64.59375 
L -0.296875 64.59375 
z
" id="DejaVuSans-54"/>
    </defs>
    <g transform="translate(223.341563 35.472)scale(0.12 -0.12)">
     <use xlink:href="#DejaVuSans-54"/>
     <use x="60.818359" xlink:href="#DejaVuSans-65"/>
     <use x="122.341797" xlink:href="#DejaVuSans-73"/>
     <use x="174.441406" xlink:href="#DejaVuSans-74"/>
    </g>
   </g>
  </g>
 </g>
 <defs>
  <clipPath id="pcb431a9272">
   <rect height="266.112" width="357.12" x="57.6" y="41.472"/>
  </clipPath>
 </defs>
</svg>
