<?xml version="1.0" encoding="utf-8" standalone="no"?>
<!DOCTYPE svg PUBLIC "-//W3C//DTD SVG 1.1//EN"
  "http://www.w3.org/Graphics/SVG/1.1/DTD/svg11.dtd">
<!-- Created with matplotlib (http://matplotlib.org/) -->
<svg height="345pt" version="1.1" viewBox="0 0 460 345" width="460pt" xmlns="http://www.w3.org/2000/svg" xmlns:xlink="http://www.w3.org/1999/xlink">
 <defs>
  <style type="text/css">
*{stroke-linecap:butt;stroke-linejoin:round;}
  </style>
 </defs>
 <g id="figure_1">
  <g id="patch_1">
   <path d="M 0 345.6 
L 460.8 345.6 
L 460.8 0 
L 0 0 
z
" style="fill:#ffffff;"/>
  </g>
  <g id="axes_1">
   <g id="patch_2">
    <path d="M 57.6 307.584 
L 414.72 307.584 
L 414.72 41.472 
L 57.6 41.472 
z
" style="fill:#ffffff;"/>
   </g>
   <g id="matplotlib.axis_1">
    <g id="xtick_1">
     <g id="line2d_1">
      <path clip-path="url(#p6858f8f8ef)" d="M 57.6 307.584 
L 57.6 41.472 
" style="fill:none;stroke:#b0b0b0;stroke-linecap:square;stroke-width:0.8;"/>
     </g>
     <g id="line2d_2">
      <defs>
       <path d="M 0 0 
L 0 3.5 
" id="m3b336abcf1" style="stroke:#000000;stroke-width:0.8;"/>
      </defs>
      <g>
       <use style="stroke:#000000;stroke-width:0.8;" x="57.6" xlink:href="#m3b336abcf1" y="307.584"/>
      </g>
     </g>
     <g id="text_1">
      <!-- 0 -->
      <defs>
       <path d="M 31.78125 66.40625 
Q 24.171875 66.40625 20.328125 58.90625 
Q 16.5 51.421875 16.5 36.375 
Q 16.5 21.390625 20.328125 13.890625 
Q 24.171875 6.390625 31.78125 6.390625 
Q 39.453125 6.390625 43.28125 13.890625 
Q 47.125 21.390625 47.125 36.375 
Q 47.125 51.421875 43.28125 58.90625 
Q 39.453125 66.40625 31.78125 66.40625 
M 31.78125 74.21875 
Q 44.046875 74.21875 50.515625 64.515625 
Q 56.984375 54.828125 56.984375 36.375 
Q 56.984375 17.96875 50.515625 8.265625 
Q 44.046875 -1.421875 31.78125 -1.421875 
Q 19.53125 -1.421875 13.0625 8.265625 
Q 6.59375 17.96875 6.59375 36.375 
Q 6.59375 54.828125 13.0625 64.515625 
Q 19.53125 74.21875 31.78125 74.21875 
" id="DejaVuSans-30"/>
      </defs>
      <g transform="translate(54.41875 322.182437)scale(0.1 -0.1)">
       <use xlink:href="#DejaVuSans-30"/>
      </g>
     </g>
    </g>
    <g id="xtick_2">
     <g id="line2d_3">
      <path clip-path="url(#p6858f8f8ef)" d="M 129.024 307.584 
L 129.024 41.472 
" style="fill:none;stroke:#b0b0b0;stroke-linecap:square;stroke-width:0.8;"/>
     </g>
     <g id="line2d_4">
      <g>
       <use style="stroke:#000000;stroke-width:0.8;" x="129.024" xlink:href="#m3b336abcf1" y="307.584"/>
      </g>
     </g>
     <g id="text_2">
      <!-- 200 -->
      <defs>
       <path d="M 19.1875 8.296875 
L 53.609375 8.296875 
L 53.609375 0 
L 7.328125 0 
L 7.328125 8.296875 
Q 12.9375 14.109375 22.625 23.890625 
Q 32.328125 33.6875 34.8125 36.53125 
Q 39.546875 41.84375 41.421875 45.53125 
Q 43.3125 49.21875 43.3125 52.78125 
Q 43.3125 58.59375 39.234375 62.25 
Q 35.15625 65.921875 28.609375 65.921875 
Q 23.96875 65.921875 18.8125 64.3125 
Q 13.671875 62.703125 7.8125 59.421875 
L 7.8125 69.390625 
Q 13.765625 71.78125 18.9375 73 
Q 24.125 74.21875 28.421875 74.21875 
Q 39.75 74.21875 46.484375 68.546875 
Q 53.21875 62.890625 53.21875 53.421875 
Q 53.21875 48.921875 51.53125 44.890625 
Q 49.859375 40.875 45.40625 35.40625 
Q 44.1875 33.984375 37.640625 27.21875 
Q 31.109375 20.453125 19.1875 8.296875 
" id="DejaVuSans-32"/>
      </defs>
      <g transform="translate(119.48025 322.182437)scale(0.1 -0.1)">
       <use xlink:href="#DejaVuSans-32"/>
       <use x="63.623047" xlink:href="#DejaVuSans-30"/>
       <use x="127.246094" xlink:href="#DejaVuSans-30"/>
      </g>
     </g>
    </g>
    <g id="xtick_3">
     <g id="line2d_5">
      <path clip-path="url(#p6858f8f8ef)" d="M 200.448 307.584 
L 200.448 41.472 
" style="fill:none;stroke:#b0b0b0;stroke-linecap:square;stroke-width:0.8;"/>
     </g>
     <g id="line2d_6">
      <g>
       <use style="stroke:#000000;stroke-width:0.8;" x="200.448" xlink:href="#m3b336abcf1" y="307.584"/>
      </g>
     </g>
     <g id="text_3">
      <!-- 400 -->
      <defs>
       <path d="M 37.796875 64.3125 
L 12.890625 25.390625 
L 37.796875 25.390625 
z
M 35.203125 72.90625 
L 47.609375 72.90625 
L 47.609375 25.390625 
L 58.015625 25.390625 
L 58.015625 17.1875 
L 47.609375 17.1875 
L 47.609375 0 
L 37.796875 0 
L 37.796875 17.1875 
L 4.890625 17.1875 
L 4.890625 26.703125 
z
" id="DejaVuSans-34"/>
      </defs>
      <g transform="translate(190.90425 322.182437)scale(0.1 -0.1)">
       <use xlink:href="#DejaVuSans-34"/>
       <use x="63.623047" xlink:href="#DejaVuSans-30"/>
       <use x="127.246094" xlink:href="#DejaVuSans-30"/>
      </g>
     </g>
    </g>
    <g id="xtick_4">
     <g id="line2d_7">
      <path clip-path="url(#p6858f8f8ef)" d="M 271.872 307.584 
L 271.872 41.472 
" style="fill:none;stroke:#b0b0b0;stroke-linecap:square;stroke-width:0.8;"/>
     </g>
     <g id="line2d_8">
      <g>
       <use style="stroke:#000000;stroke-width:0.8;" x="271.872" xlink:href="#m3b336abcf1" y="307.584"/>
      </g>
     </g>
     <g id="text_4">
      <!-- 600 -->
      <defs>
       <path d="M 33.015625 40.375 
Q 26.375 40.375 22.484375 35.828125 
Q 18.609375 31.296875 18.609375 23.390625 
Q 18.609375 15.53125 22.484375 10.953125 
Q 26.375 6.390625 33.015625 6.390625 
Q 39.65625 6.390625 43.53125 10.953125 
Q 47.40625 15.53125 47.40625 23.390625 
Q 47.40625 31.296875 43.53125 35.828125 
Q 39.65625 40.375 33.015625 40.375 
M 52.59375 71.296875 
L 52.59375 62.3125 
Q 48.875 64.0625 45.09375 64.984375 
Q 41.3125 65.921875 37.59375 65.921875 
Q 27.828125 65.921875 22.671875 59.328125 
Q 17.53125 52.734375 16.796875 39.40625 
Q 19.671875 43.65625 24.015625 45.921875 
Q 28.375 48.1875 33.59375 48.1875 
Q 44.578125 48.1875 50.953125 41.515625 
Q 57.328125 34.859375 57.328125 23.390625 
Q 57.328125 12.15625 50.6875 5.359375 
Q 44.046875 -1.421875 33.015625 -1.421875 
Q 20.359375 -1.421875 13.671875 8.265625 
Q 6.984375 17.96875 6.984375 36.375 
Q 6.984375 53.65625 15.1875 63.9375 
Q 23.390625 74.21875 37.203125 74.21875 
Q 40.921875 74.21875 44.703125 73.484375 
Q 48.484375 72.75 52.59375 71.296875 
" id="DejaVuSans-36"/>
      </defs>
      <g transform="translate(262.32825 322.182437)scale(0.1 -0.1)">
       <use xlink:href="#DejaVuSans-36"/>
       <use x="63.623047" xlink:href="#DejaVuSans-30"/>
       <use x="127.246094" xlink:href="#DejaVuSans-30"/>
      </g>
     </g>
    </g>
    <g id="xtick_5">
     <g id="line2d_9">
      <path clip-path="url(#p6858f8f8ef)" d="M 343.296 307.584 
L 343.296 41.472 
" style="fill:none;stroke:#b0b0b0;stroke-linecap:square;stroke-width:0.8;"/>
     </g>
     <g id="line2d_10">
      <g>
       <use style="stroke:#000000;stroke-width:0.8;" x="343.296" xlink:href="#m3b336abcf1" y="307.584"/>
      </g>
     </g>
     <g id="text_5">
      <!-- 800 -->
      <defs>
       <path d="M 31.78125 34.625 
Q 24.75 34.625 20.71875 30.859375 
Q 16.703125 27.09375 16.703125 20.515625 
Q 16.703125 13.921875 20.71875 10.15625 
Q 24.75 6.390625 31.78125 6.390625 
Q 38.8125 6.390625 42.859375 10.171875 
Q 46.921875 13.96875 46.921875 20.515625 
Q 46.921875 27.09375 42.890625 30.859375 
Q 38.875 34.625 31.78125 34.625 
M 21.921875 38.8125 
Q 15.578125 40.375 12.03125 44.71875 
Q 8.5 49.078125 8.5 55.328125 
Q 8.5 64.0625 14.71875 69.140625 
Q 20.953125 74.21875 31.78125 74.21875 
Q 42.671875 74.21875 48.875 69.140625 
Q 55.078125 64.0625 55.078125 55.328125 
Q 55.078125 49.078125 51.53125 44.71875 
Q 48 40.375 41.703125 38.8125 
Q 48.828125 37.15625 52.796875 32.3125 
Q 56.78125 27.484375 56.78125 20.515625 
Q 56.78125 9.90625 50.3125 4.234375 
Q 43.84375 -1.421875 31.78125 -1.421875 
Q 19.734375 -1.421875 13.25 4.234375 
Q 6.78125 9.90625 6.78125 20.515625 
Q 6.78125 27.484375 10.78125 32.3125 
Q 14.796875 37.15625 21.921875 38.8125 
M 18.3125 54.390625 
Q 18.3125 48.734375 21.84375 45.5625 
Q 25.390625 42.390625 31.78125 42.390625 
Q 38.140625 42.390625 41.71875 45.5625 
Q 45.3125 48.734375 45.3125 54.390625 
Q 45.3125 60.0625 41.71875 63.234375 
Q 38.140625 66.40625 31.78125 66.40625 
Q 25.390625 66.40625 21.84375 63.234375 
Q 18.3125 60.0625 18.3125 54.390625 
" id="DejaVuSans-38"/>
      </defs>
      <g transform="translate(333.75225 322.182437)scale(0.1 -0.1)">
       <use xlink:href="#DejaVuSans-38"/>
       <use x="63.623047" xlink:href="#DejaVuSans-30"/>
       <use x="127.246094" xlink:href="#DejaVuSans-30"/>
      </g>
     </g>
    </g>
    <g id="xtick_6">
     <g id="line2d_11">
      <path clip-path="url(#p6858f8f8ef)" d="M 414.72 307.584 
L 414.72 41.472 
" style="fill:none;stroke:#b0b0b0;stroke-linecap:square;stroke-width:0.8;"/>
     </g>
     <g id="line2d_12">
      <g>
       <use style="stroke:#000000;stroke-width:0.8;" x="414.72" xlink:href="#m3b336abcf1" y="307.584"/>
      </g>
     </g>
     <g id="text_6">
      <!-- 1000 -->
      <defs>
       <path d="M 12.40625 8.296875 
L 28.515625 8.296875 
L 28.515625 63.921875 
L 10.984375 60.40625 
L 10.984375 69.390625 
L 28.421875 72.90625 
L 38.28125 72.90625 
L 38.28125 8.296875 
L 54.390625 8.296875 
L 54.390625 0 
L 12.40625 0 
z
" id="DejaVuSans-31"/>
      </defs>
      <g transform="translate(401.995 322.182437)scale(0.1 -0.1)">
       <use xlink:href="#DejaVuSans-31"/>
       <use x="63.623047" xlink:href="#DejaVuSans-30"/>
       <use x="127.246094" xlink:href="#DejaVuSans-30"/>
       <use x="190.869141" xlink:href="#DejaVuSans-30"/>
      </g>
     </g>
    </g>
    <g id="text_7">
     <!-- Number of clients -->
     <defs>
      <path d="M 9.8125 72.90625 
L 23.09375 72.90625 
L 55.421875 11.921875 
L 55.421875 72.90625 
L 64.984375 72.90625 
L 64.984375 0 
L 51.703125 0 
L 19.390625 60.984375 
L 19.390625 0 
L 9.8125 0 
z
" id="DejaVuSans-4e"/>
      <path d="M 8.5 21.578125 
L 8.5 54.6875 
L 17.484375 54.6875 
L 17.484375 21.921875 
Q 17.484375 14.15625 20.5 10.265625 
Q 23.53125 6.390625 29.59375 6.390625 
Q 36.859375 6.390625 41.078125 11.03125 
Q 45.3125 15.671875 45.3125 23.6875 
L 45.3125 54.6875 
L 54.296875 54.6875 
L 54.296875 0 
L 45.3125 0 
L 45.3125 8.40625 
Q 42.046875 3.421875 37.71875 1 
Q 33.40625 -1.421875 27.6875 -1.421875 
Q 18.265625 -1.421875 13.375 4.4375 
Q 8.5 10.296875 8.5 21.578125 
M 31.109375 56 
z
" id="DejaVuSans-75"/>
      <path d="M 52 44.1875 
Q 55.375 50.25 60.0625 53.125 
Q 64.75 56 71.09375 56 
Q 79.640625 56 84.28125 50.015625 
Q 88.921875 44.046875 88.921875 33.015625 
L 88.921875 0 
L 79.890625 0 
L 79.890625 32.71875 
Q 79.890625 40.578125 77.09375 44.375 
Q 74.3125 48.1875 68.609375 48.1875 
Q 61.625 48.1875 57.5625 43.546875 
Q 53.515625 38.921875 53.515625 30.90625 
L 53.515625 0 
L 44.484375 0 
L 44.484375 32.71875 
Q 44.484375 40.625 41.703125 44.40625 
Q 38.921875 48.1875 33.109375 48.1875 
Q 26.21875 48.1875 22.15625 43.53125 
Q 18.109375 38.875 18.109375 30.90625 
L 18.109375 0 
L 9.078125 0 
L 9.078125 54.6875 
L 18.109375 54.6875 
L 18.109375 46.1875 
Q 21.1875 51.21875 25.484375 53.609375 
Q 29.78125 56 35.6875 56 
Q 41.65625 56 45.828125 52.96875 
Q 50 49.953125 52 44.1875 
" id="DejaVuSans-6d"/>
      <path d="M 48.6875 27.296875 
Q 48.6875 37.203125 44.609375 42.84375 
Q 40.53125 48.484375 33.40625 48.484375 
Q 26.265625 48.484375 22.1875 42.84375 
Q 18.109375 37.203125 18.109375 27.296875 
Q 18.109375 17.390625 22.1875 11.75 
Q 26.265625 6.109375 33.40625 6.109375 
Q 40.53125 6.109375 44.609375 11.75 
Q 48.6875 17.390625 48.6875 27.296875 
M 18.109375 46.390625 
Q 20.953125 51.265625 25.265625 53.625 
Q 29.59375 56 35.59375 56 
Q 45.5625 56 51.78125 48.09375 
Q 58.015625 40.1875 58.015625 27.296875 
Q 58.015625 14.40625 51.78125 6.484375 
Q 45.5625 -1.421875 35.59375 -1.421875 
Q 29.59375 -1.421875 25.265625 0.953125 
Q 20.953125 3.328125 18.109375 8.203125 
L 18.109375 0 
L 9.078125 0 
L 9.078125 75.984375 
L 18.109375 75.984375 
z
" id="DejaVuSans-62"/>
      <path d="M 56.203125 29.59375 
L 56.203125 25.203125 
L 14.890625 25.203125 
Q 15.484375 15.921875 20.484375 11.0625 
Q 25.484375 6.203125 34.421875 6.203125 
Q 39.59375 6.203125 44.453125 7.46875 
Q 49.3125 8.734375 54.109375 11.28125 
L 54.109375 2.78125 
Q 49.265625 0.734375 44.1875 -0.34375 
Q 39.109375 -1.421875 33.890625 -1.421875 
Q 20.796875 -1.421875 13.15625 6.1875 
Q 5.515625 13.8125 5.515625 26.8125 
Q 5.515625 40.234375 12.765625 48.109375 
Q 20.015625 56 32.328125 56 
Q 43.359375 56 49.78125 48.890625 
Q 56.203125 41.796875 56.203125 29.59375 
M 47.21875 32.234375 
Q 47.125 39.59375 43.09375 43.984375 
Q 39.0625 48.390625 32.421875 48.390625 
Q 24.90625 48.390625 20.390625 44.140625 
Q 15.875 39.890625 15.1875 32.171875 
z
" id="DejaVuSans-65"/>
      <path d="M 41.109375 46.296875 
Q 39.59375 47.171875 37.8125 47.578125 
Q 36.03125 48 33.890625 48 
Q 26.265625 48 22.1875 43.046875 
Q 18.109375 38.09375 18.109375 28.8125 
L 18.109375 0 
L 9.078125 0 
L 9.078125 54.6875 
L 18.109375 54.6875 
L 18.109375 46.1875 
Q 20.953125 51.171875 25.484375 53.578125 
Q 30.03125 56 36.53125 56 
Q 37.453125 56 38.578125 55.875 
Q 39.703125 55.765625 41.0625 55.515625 
z
" id="DejaVuSans-72"/>
      <path id="DejaVuSans-20"/>
      <path d="M 30.609375 48.390625 
Q 23.390625 48.390625 19.1875 42.75 
Q 14.984375 37.109375 14.984375 27.296875 
Q 14.984375 17.484375 19.15625 11.84375 
Q 23.34375 6.203125 30.609375 6.203125 
Q 37.796875 6.203125 41.984375 11.859375 
Q 46.1875 17.53125 46.1875 27.296875 
Q 46.1875 37.015625 41.984375 42.703125 
Q 37.796875 48.390625 30.609375 48.390625 
M 30.609375 56 
Q 42.328125 56 49.015625 48.375 
Q 55.71875 40.765625 55.71875 27.296875 
Q 55.71875 13.875 49.015625 6.21875 
Q 42.328125 -1.421875 30.609375 -1.421875 
Q 18.84375 -1.421875 12.171875 6.21875 
Q 5.515625 13.875 5.515625 27.296875 
Q 5.515625 40.765625 12.171875 48.375 
Q 18.84375 56 30.609375 56 
" id="DejaVuSans-6f"/>
      <path d="M 37.109375 75.984375 
L 37.109375 68.5 
L 28.515625 68.5 
Q 23.6875 68.5 21.796875 66.546875 
Q 19.921875 64.59375 19.921875 59.515625 
L 19.921875 54.6875 
L 34.71875 54.6875 
L 34.71875 47.703125 
L 19.921875 47.703125 
L 19.921875 0 
L 10.890625 0 
L 10.890625 47.703125 
L 2.296875 47.703125 
L 2.296875 54.6875 
L 10.890625 54.6875 
L 10.890625 58.5 
Q 10.890625 67.625 15.140625 71.796875 
Q 19.390625 75.984375 28.609375 75.984375 
z
" id="DejaVuSans-66"/>
      <path d="M 48.78125 52.59375 
L 48.78125 44.1875 
Q 44.96875 46.296875 41.140625 47.34375 
Q 37.3125 48.390625 33.40625 48.390625 
Q 24.65625 48.390625 19.8125 42.84375 
Q 14.984375 37.3125 14.984375 27.296875 
Q 14.984375 17.28125 19.8125 11.734375 
Q 24.65625 6.203125 33.40625 6.203125 
Q 37.3125 6.203125 41.140625 7.25 
Q 44.96875 8.296875 48.78125 10.40625 
L 48.78125 2.09375 
Q 45.015625 0.34375 40.984375 -0.53125 
Q 36.96875 -1.421875 32.421875 -1.421875 
Q 20.0625 -1.421875 12.78125 6.34375 
Q 5.515625 14.109375 5.515625 27.296875 
Q 5.515625 40.671875 12.859375 48.328125 
Q 20.21875 56 33.015625 56 
Q 37.15625 56 41.109375 55.140625 
Q 45.0625 54.296875 48.78125 52.59375 
" id="DejaVuSans-63"/>
      <path d="M 9.421875 75.984375 
L 18.40625 75.984375 
L 18.40625 0 
L 9.421875 0 
z
" id="DejaVuSans-6c"/>
      <path d="M 9.421875 54.6875 
L 18.40625 54.6875 
L 18.40625 0 
L 9.421875 0 
z
M 9.421875 75.984375 
L 18.40625 75.984375 
L 18.40625 64.59375 
L 9.421875 64.59375 
z
" id="DejaVuSans-69"/>
      <path d="M 54.890625 33.015625 
L 54.890625 0 
L 45.90625 0 
L 45.90625 32.71875 
Q 45.90625 40.484375 42.875 44.328125 
Q 39.84375 48.1875 33.796875 48.1875 
Q 26.515625 48.1875 22.3125 43.546875 
Q 18.109375 38.921875 18.109375 30.90625 
L 18.109375 0 
L 9.078125 0 
L 9.078125 54.6875 
L 18.109375 54.6875 
L 18.109375 46.1875 
Q 21.34375 51.125 25.703125 53.5625 
Q 30.078125 56 35.796875 56 
Q 45.21875 56 50.046875 50.171875 
Q 54.890625 44.34375 54.890625 33.015625 
" id="DejaVuSans-6e"/>
      <path d="M 18.3125 70.21875 
L 18.3125 54.6875 
L 36.8125 54.6875 
L 36.8125 47.703125 
L 18.3125 47.703125 
L 18.3125 18.015625 
Q 18.3125 11.328125 20.140625 9.421875 
Q 21.96875 7.515625 27.59375 7.515625 
L 36.8125 7.515625 
L 36.8125 0 
L 27.59375 0 
Q 17.1875 0 13.234375 3.875 
Q 9.28125 7.765625 9.28125 18.015625 
L 9.28125 47.703125 
L 2.6875 47.703125 
L 2.6875 54.6875 
L 9.28125 54.6875 
L 9.28125 70.21875 
z
" id="DejaVuSans-74"/>
      <path d="M 44.28125 53.078125 
L 44.28125 44.578125 
Q 40.484375 46.53125 36.375 47.5 
Q 32.28125 48.484375 27.875 48.484375 
Q 21.1875 48.484375 17.84375 46.4375 
Q 14.5 44.390625 14.5 40.28125 
Q 14.5 37.15625 16.890625 35.375 
Q 19.28125 33.59375 26.515625 31.984375 
L 29.59375 31.296875 
Q 39.15625 29.25 43.1875 25.515625 
Q 47.21875 21.78125 47.21875 15.09375 
Q 47.21875 7.46875 41.1875 3.015625 
Q 35.15625 -1.421875 24.609375 -1.421875 
Q 20.21875 -1.421875 15.453125 -0.5625 
Q 10.6875 0.296875 5.421875 2 
L 5.421875 11.28125 
Q 10.40625 8.6875 15.234375 7.390625 
Q 20.0625 6.109375 24.8125 6.109375 
Q 31.15625 6.109375 34.5625 8.28125 
Q 37.984375 10.453125 37.984375 14.40625 
Q 37.984375 18.0625 35.515625 20.015625 
Q 33.0625 21.96875 24.703125 23.78125 
L 21.578125 24.515625 
Q 13.234375 26.265625 9.515625 29.90625 
Q 5.8125 33.546875 5.8125 39.890625 
Q 5.8125 47.609375 11.28125 51.796875 
Q 16.75 56 26.8125 56 
Q 31.78125 56 36.171875 55.265625 
Q 40.578125 54.546875 44.28125 53.078125 
" id="DejaVuSans-73"/>
     </defs>
     <g transform="translate(191.738906 335.860562)scale(0.1 -0.1)">
      <use xlink:href="#DejaVuSans-4e"/>
      <use x="74.804688" xlink:href="#DejaVuSans-75"/>
      <use x="138.183594" xlink:href="#DejaVuSans-6d"/>
      <use x="235.595703" xlink:href="#DejaVuSans-62"/>
      <use x="299.072266" xlink:href="#DejaVuSans-65"/>
      <use x="360.595703" xlink:href="#DejaVuSans-72"/>
      <use x="401.708984" xlink:href="#DejaVuSans-20"/>
      <use x="433.496094" xlink:href="#DejaVuSans-6f"/>
      <use x="494.677734" xlink:href="#DejaVuSans-66"/>
      <use x="529.882812" xlink:href="#DejaVuSans-20"/>
      <use x="561.669922" xlink:href="#DejaVuSans-63"/>
      <use x="616.650391" xlink:href="#DejaVuSans-6c"/>
      <use x="644.433594" xlink:href="#DejaVuSans-69"/>
      <use x="672.216797" xlink:href="#DejaVuSans-65"/>
      <use x="733.740234" xlink:href="#DejaVuSans-6e"/>
      <use x="797.119141" xlink:href="#DejaVuSans-74"/>
      <use x="836.328125" xlink:href="#DejaVuSans-73"/>
     </g>
    </g>
   </g>
   <g id="matplotlib.axis_2">
    <g id="ytick_1">
     <g id="line2d_13">
      <path clip-path="url(#p6858f8f8ef)" d="M 57.6 295.911476 
L 414.72 295.911476 
" style="fill:none;stroke:#b0b0b0;stroke-linecap:square;stroke-width:0.8;"/>
     </g>
     <g id="line2d_14">
      <defs>
       <path d="M 0 0 
L -3.5 0 
" id="m0fcb04d67f" style="stroke:#000000;stroke-width:0.8;"/>
      </defs>
      <g>
       <use style="stroke:#000000;stroke-width:0.8;" x="57.6" xlink:href="#m0fcb04d67f" y="295.911476"/>
      </g>
     </g>
     <g id="text_8">
      <!-- 0 -->
      <g transform="translate(44.2375 299.710694)scale(0.1 -0.1)">
       <use xlink:href="#DejaVuSans-30"/>
      </g>
     </g>
    </g>
    <g id="ytick_2">
     <g id="line2d_15">
      <path clip-path="url(#p6858f8f8ef)" d="M 57.6 251.707331 
L 414.72 251.707331 
" style="fill:none;stroke:#b0b0b0;stroke-linecap:square;stroke-width:0.8;"/>
     </g>
     <g id="line2d_16">
      <g>
       <use style="stroke:#000000;stroke-width:0.8;" x="57.6" xlink:href="#m0fcb04d67f" y="251.707331"/>
      </g>
     </g>
     <g id="text_9">
      <!-- 100 -->
      <g transform="translate(31.5125 255.50655)scale(0.1 -0.1)">
       <use xlink:href="#DejaVuSans-31"/>
       <use x="63.623047" xlink:href="#DejaVuSans-30"/>
       <use x="127.246094" xlink:href="#DejaVuSans-30"/>
      </g>
     </g>
    </g>
    <g id="ytick_3">
     <g id="line2d_17">
      <path clip-path="url(#p6858f8f8ef)" d="M 57.6 207.503187 
L 414.72 207.503187 
" style="fill:none;stroke:#b0b0b0;stroke-linecap:square;stroke-width:0.8;"/>
     </g>
     <g id="line2d_18">
      <g>
       <use style="stroke:#000000;stroke-width:0.8;" x="57.6" xlink:href="#m0fcb04d67f" y="207.503187"/>
      </g>
     </g>
     <g id="text_10">
      <!-- 200 -->
      <g transform="translate(31.5125 211.302405)scale(0.1 -0.1)">
       <use xlink:href="#DejaVuSans-32"/>
       <use x="63.623047" xlink:href="#DejaVuSans-30"/>
       <use x="127.246094" xlink:href="#DejaVuSans-30"/>
      </g>
     </g>
    </g>
    <g id="ytick_4">
     <g id="line2d_19">
      <path clip-path="url(#p6858f8f8ef)" d="M 57.6 163.299042 
L 414.72 163.299042 
" style="fill:none;stroke:#b0b0b0;stroke-linecap:square;stroke-width:0.8;"/>
     </g>
     <g id="line2d_20">
      <g>
       <use style="stroke:#000000;stroke-width:0.8;" x="57.6" xlink:href="#m0fcb04d67f" y="163.299042"/>
      </g>
     </g>
     <g id="text_11">
      <!-- 300 -->
      <defs>
       <path d="M 40.578125 39.3125 
Q 47.65625 37.796875 51.625 33 
Q 55.609375 28.21875 55.609375 21.1875 
Q 55.609375 10.40625 48.1875 4.484375 
Q 40.765625 -1.421875 27.09375 -1.421875 
Q 22.515625 -1.421875 17.65625 -0.515625 
Q 12.796875 0.390625 7.625 2.203125 
L 7.625 11.71875 
Q 11.71875 9.328125 16.59375 8.109375 
Q 21.484375 6.890625 26.8125 6.890625 
Q 36.078125 6.890625 40.9375 10.546875 
Q 45.796875 14.203125 45.796875 21.1875 
Q 45.796875 27.640625 41.28125 31.265625 
Q 36.765625 34.90625 28.71875 34.90625 
L 20.21875 34.90625 
L 20.21875 43.015625 
L 29.109375 43.015625 
Q 36.375 43.015625 40.234375 45.921875 
Q 44.09375 48.828125 44.09375 54.296875 
Q 44.09375 59.90625 40.109375 62.90625 
Q 36.140625 65.921875 28.71875 65.921875 
Q 24.65625 65.921875 20.015625 65.03125 
Q 15.375 64.15625 9.8125 62.3125 
L 9.8125 71.09375 
Q 15.4375 72.65625 20.34375 73.4375 
Q 25.25 74.21875 29.59375 74.21875 
Q 40.828125 74.21875 47.359375 69.109375 
Q 53.90625 64.015625 53.90625 55.328125 
Q 53.90625 49.265625 50.4375 45.09375 
Q 46.96875 40.921875 40.578125 39.3125 
" id="DejaVuSans-33"/>
      </defs>
      <g transform="translate(31.5125 167.098261)scale(0.1 -0.1)">
       <use xlink:href="#DejaVuSans-33"/>
       <use x="63.623047" xlink:href="#DejaVuSans-30"/>
       <use x="127.246094" xlink:href="#DejaVuSans-30"/>
      </g>
     </g>
    </g>
    <g id="ytick_5">
     <g id="line2d_21">
      <path clip-path="url(#p6858f8f8ef)" d="M 57.6 119.094898 
L 414.72 119.094898 
" style="fill:none;stroke:#b0b0b0;stroke-linecap:square;stroke-width:0.8;"/>
     </g>
     <g id="line2d_22">
      <g>
       <use style="stroke:#000000;stroke-width:0.8;" x="57.6" xlink:href="#m0fcb04d67f" y="119.094898"/>
      </g>
     </g>
     <g id="text_12">
      <!-- 400 -->
      <g transform="translate(31.5125 122.894116)scale(0.1 -0.1)">
       <use xlink:href="#DejaVuSans-34"/>
       <use x="63.623047" xlink:href="#DejaVuSans-30"/>
       <use x="127.246094" xlink:href="#DejaVuSans-30"/>
      </g>
     </g>
    </g>
    <g id="ytick_6">
     <g id="line2d_23">
      <path clip-path="url(#p6858f8f8ef)" d="M 57.6 74.890753 
L 414.72 74.890753 
" style="fill:none;stroke:#b0b0b0;stroke-linecap:square;stroke-width:0.8;"/>
     </g>
     <g id="line2d_24">
      <g>
       <use style="stroke:#000000;stroke-width:0.8;" x="57.6" xlink:href="#m0fcb04d67f" y="74.890753"/>
      </g>
     </g>
     <g id="text_13">
      <!-- 500 -->
      <defs>
       <path d="M 10.796875 72.90625 
L 49.515625 72.90625 
L 49.515625 64.59375 
L 19.828125 64.59375 
L 19.828125 46.734375 
Q 21.96875 47.46875 24.109375 47.828125 
Q 26.265625 48.1875 28.421875 48.1875 
Q 40.625 48.1875 47.75 41.5 
Q 54.890625 34.8125 54.890625 23.390625 
Q 54.890625 11.625 47.5625 5.09375 
Q 40.234375 -1.421875 26.90625 -1.421875 
Q 22.3125 -1.421875 17.546875 -0.640625 
Q 12.796875 0.140625 7.71875 1.703125 
L 7.71875 11.625 
Q 12.109375 9.234375 16.796875 8.0625 
Q 21.484375 6.890625 26.703125 6.890625 
Q 35.15625 6.890625 40.078125 11.328125 
Q 45.015625 15.765625 45.015625 23.390625 
Q 45.015625 31 40.078125 35.4375 
Q 35.15625 39.890625 26.703125 39.890625 
Q 22.75 39.890625 18.8125 39.015625 
Q 14.890625 38.140625 10.796875 36.28125 
z
" id="DejaVuSans-35"/>
      </defs>
      <g transform="translate(31.5125 78.689972)scale(0.1 -0.1)">
       <use xlink:href="#DejaVuSans-35"/>
       <use x="63.623047" xlink:href="#DejaVuSans-30"/>
       <use x="127.246094" xlink:href="#DejaVuSans-30"/>
      </g>
     </g>
    </g>
    <g id="text_14">
     <!-- Successful download requests per second -->
     <defs>
      <path d="M 53.515625 70.515625 
L 53.515625 60.890625 
Q 47.90625 63.578125 42.921875 64.890625 
Q 37.9375 66.21875 33.296875 66.21875 
Q 25.25 66.21875 20.875 63.09375 
Q 16.5 59.96875 16.5 54.203125 
Q 16.5 49.359375 19.40625 46.890625 
Q 22.3125 44.4375 30.421875 42.921875 
L 36.375 41.703125 
Q 47.40625 39.59375 52.65625 34.296875 
Q 57.90625 29 57.90625 20.125 
Q 57.90625 9.515625 50.796875 4.046875 
Q 43.703125 -1.421875 29.984375 -1.421875 
Q 24.8125 -1.421875 18.96875 -0.25 
Q 13.140625 0.921875 6.890625 3.21875 
L 6.890625 13.375 
Q 12.890625 10.015625 18.65625 8.296875 
Q 24.421875 6.59375 29.984375 6.59375 
Q 38.421875 6.59375 43.015625 9.90625 
Q 47.609375 13.234375 47.609375 19.390625 
Q 47.609375 24.75 44.3125 27.78125 
Q 41.015625 30.8125 33.5 32.328125 
L 27.484375 33.5 
Q 16.453125 35.6875 11.515625 40.375 
Q 6.59375 45.0625 6.59375 53.421875 
Q 6.59375 63.09375 13.40625 68.65625 
Q 20.21875 74.21875 32.171875 74.21875 
Q 37.3125 74.21875 42.625 73.28125 
Q 47.953125 72.359375 53.515625 70.515625 
" id="DejaVuSans-53"/>
      <path d="M 45.40625 46.390625 
L 45.40625 75.984375 
L 54.390625 75.984375 
L 54.390625 0 
L 45.40625 0 
L 45.40625 8.203125 
Q 42.578125 3.328125 38.25 0.953125 
Q 33.9375 -1.421875 27.875 -1.421875 
Q 17.96875 -1.421875 11.734375 6.484375 
Q 5.515625 14.40625 5.515625 27.296875 
Q 5.515625 40.1875 11.734375 48.09375 
Q 17.96875 56 27.875 56 
Q 33.9375 56 38.25 53.625 
Q 42.578125 51.265625 45.40625 46.390625 
M 14.796875 27.296875 
Q 14.796875 17.390625 18.875 11.75 
Q 22.953125 6.109375 30.078125 6.109375 
Q 37.203125 6.109375 41.296875 11.75 
Q 45.40625 17.390625 45.40625 27.296875 
Q 45.40625 37.203125 41.296875 42.84375 
Q 37.203125 48.484375 30.078125 48.484375 
Q 22.953125 48.484375 18.875 42.84375 
Q 14.796875 37.203125 14.796875 27.296875 
" id="DejaVuSans-64"/>
      <path d="M 4.203125 54.6875 
L 13.1875 54.6875 
L 24.421875 12.015625 
L 35.59375 54.6875 
L 46.1875 54.6875 
L 57.421875 12.015625 
L 68.609375 54.6875 
L 77.59375 54.6875 
L 63.28125 0 
L 52.6875 0 
L 40.921875 44.828125 
L 29.109375 0 
L 18.5 0 
z
" id="DejaVuSans-77"/>
      <path d="M 34.28125 27.484375 
Q 23.390625 27.484375 19.1875 25 
Q 14.984375 22.515625 14.984375 16.5 
Q 14.984375 11.71875 18.140625 8.90625 
Q 21.296875 6.109375 26.703125 6.109375 
Q 34.1875 6.109375 38.703125 11.40625 
Q 43.21875 16.703125 43.21875 25.484375 
L 43.21875 27.484375 
z
M 52.203125 31.203125 
L 52.203125 0 
L 43.21875 0 
L 43.21875 8.296875 
Q 40.140625 3.328125 35.546875 0.953125 
Q 30.953125 -1.421875 24.3125 -1.421875 
Q 15.921875 -1.421875 10.953125 3.296875 
Q 6 8.015625 6 15.921875 
Q 6 25.140625 12.171875 29.828125 
Q 18.359375 34.515625 30.609375 34.515625 
L 43.21875 34.515625 
L 43.21875 35.40625 
Q 43.21875 41.609375 39.140625 45 
Q 35.0625 48.390625 27.6875 48.390625 
Q 23 48.390625 18.546875 47.265625 
Q 14.109375 46.140625 10.015625 43.890625 
L 10.015625 52.203125 
Q 14.9375 54.109375 19.578125 55.046875 
Q 24.21875 56 28.609375 56 
Q 40.484375 56 46.34375 49.84375 
Q 52.203125 43.703125 52.203125 31.203125 
" id="DejaVuSans-61"/>
      <path d="M 14.796875 27.296875 
Q 14.796875 17.390625 18.875 11.75 
Q 22.953125 6.109375 30.078125 6.109375 
Q 37.203125 6.109375 41.296875 11.75 
Q 45.40625 17.390625 45.40625 27.296875 
Q 45.40625 37.203125 41.296875 42.84375 
Q 37.203125 48.484375 30.078125 48.484375 
Q 22.953125 48.484375 18.875 42.84375 
Q 14.796875 37.203125 14.796875 27.296875 
M 45.40625 8.203125 
Q 42.578125 3.328125 38.25 0.953125 
Q 33.9375 -1.421875 27.875 -1.421875 
Q 17.96875 -1.421875 11.734375 6.484375 
Q 5.515625 14.40625 5.515625 27.296875 
Q 5.515625 40.1875 11.734375 48.09375 
Q 17.96875 56 27.875 56 
Q 33.9375 56 38.25 53.625 
Q 42.578125 51.265625 45.40625 46.390625 
L 45.40625 54.6875 
L 54.390625 54.6875 
L 54.390625 -20.796875 
L 45.40625 -20.796875 
z
" id="DejaVuSans-71"/>
      <path d="M 18.109375 8.203125 
L 18.109375 -20.796875 
L 9.078125 -20.796875 
L 9.078125 54.6875 
L 18.109375 54.6875 
L 18.109375 46.390625 
Q 20.953125 51.265625 25.265625 53.625 
Q 29.59375 56 35.59375 56 
Q 45.5625 56 51.78125 48.09375 
Q 58.015625 40.1875 58.015625 27.296875 
Q 58.015625 14.40625 51.78125 6.484375 
Q 45.5625 -1.421875 35.59375 -1.421875 
Q 29.59375 -1.421875 25.265625 0.953125 
Q 20.953125 3.328125 18.109375 8.203125 
M 48.6875 27.296875 
Q 48.6875 37.203125 44.609375 42.84375 
Q 40.53125 48.484375 33.40625 48.484375 
Q 26.265625 48.484375 22.1875 42.84375 
Q 18.109375 37.203125 18.109375 27.296875 
Q 18.109375 17.390625 22.1875 11.75 
Q 26.265625 6.109375 33.40625 6.109375 
Q 40.53125 6.109375 44.609375 11.75 
Q 48.6875 17.390625 48.6875 27.296875 
" id="DejaVuSans-70"/>
     </defs>
     <g transform="translate(25.432812 279.366281)rotate(-90)scale(0.1 -0.1)">
      <use xlink:href="#DejaVuSans-53"/>
      <use x="63.476562" xlink:href="#DejaVuSans-75"/>
      <use x="126.855469" xlink:href="#DejaVuSans-63"/>
      <use x="181.835938" xlink:href="#DejaVuSans-63"/>
      <use x="236.816406" xlink:href="#DejaVuSans-65"/>
      <use x="298.339844" xlink:href="#DejaVuSans-73"/>
      <use x="350.439453" xlink:href="#DejaVuSans-73"/>
      <use x="402.539062" xlink:href="#DejaVuSans-66"/>
      <use x="437.744141" xlink:href="#DejaVuSans-75"/>
      <use x="501.123047" xlink:href="#DejaVuSans-6c"/>
      <use x="528.90625" xlink:href="#DejaVuSans-20"/>
      <use x="560.693359" xlink:href="#DejaVuSans-64"/>
      <use x="624.169922" xlink:href="#DejaVuSans-6f"/>
      <use x="685.351562" xlink:href="#DejaVuSans-77"/>
      <use x="767.138672" xlink:href="#DejaVuSans-6e"/>
      <use x="830.517578" xlink:href="#DejaVuSans-6c"/>
      <use x="858.300781" xlink:href="#DejaVuSans-6f"/>
      <use x="919.482422" xlink:href="#DejaVuSans-61"/>
      <use x="980.761719" xlink:href="#DejaVuSans-64"/>
      <use x="1044.238281" xlink:href="#DejaVuSans-20"/>
      <use x="1076.025391" xlink:href="#DejaVuSans-72"/>
      <use x="1117.107422" xlink:href="#DejaVuSans-65"/>
      <use x="1178.630859" xlink:href="#DejaVuSans-71"/>
      <use x="1242.107422" xlink:href="#DejaVuSans-75"/>
      <use x="1305.486328" xlink:href="#DejaVuSans-65"/>
      <use x="1367.009766" xlink:href="#DejaVuSans-73"/>
      <use x="1419.109375" xlink:href="#DejaVuSans-74"/>
      <use x="1458.318359" xlink:href="#DejaVuSans-73"/>
      <use x="1510.417969" xlink:href="#DejaVuSans-20"/>
      <use x="1542.205078" xlink:href="#DejaVuSans-70"/>
      <use x="1605.681641" xlink:href="#DejaVuSans-65"/>
      <use x="1667.205078" xlink:href="#DejaVuSans-72"/>
      <use x="1708.318359" xlink:href="#DejaVuSans-20"/>
      <use x="1740.105469" xlink:href="#DejaVuSans-73"/>
      <use x="1792.205078" xlink:href="#DejaVuSans-65"/>
      <use x="1853.728516" xlink:href="#DejaVuSans-63"/>
      <use x="1908.708984" xlink:href="#DejaVuSans-6f"/>
      <use x="1969.890625" xlink:href="#DejaVuSans-6e"/>
      <use x="2033.269531" xlink:href="#DejaVuSans-64"/>
     </g>
    </g>
   </g>
   <g id="line2d_25">
    <path clip-path="url(#p6858f8f8ef)" d="M 57.6 295.480927 
L 57.95712 295.488 
L 59.74272 293.394934 
L 60.09984 292.840172 
L 60.81408 292.153239 
L 62.59968 289.748092 
L 62.9568 289.718475 
L 63.31392 288.894068 
L 63.67104 288.77339 
L 64.02816 288.029435 
L 64.38528 287.954288 
L 64.7424 287.237296 
L 65.09952 287.258956 
L 65.45664 286.698448 
L 65.81376 285.911172 
L 66.17088 285.800662 
L 67.24224 284.649586 
L 67.59936 283.66516 
L 67.95648 283.971494 
L 68.3136 283.324346 
L 68.67072 283.149297 
L 69.02784 281.921748 
L 69.38496 282.26654 
L 69.74208 281.922632 
L 70.0992 280.723816 
L 70.45632 280.833442 
L 70.81344 279.679714 
L 71.17056 279.431287 
L 71.52768 279.708447 
L 71.8848 279.446316 
L 72.24192 277.88812 
L 72.59904 277.964151 
L 72.95616 277.919063 
L 73.31328 277.315234 
L 73.6704 276.380316 
L 74.02752 276.565532 
L 74.38464 276.037292 
L 75.09888 274.689508 
L 75.456 274.45611 
L 75.81312 273.614905 
L 76.17024 274.461857 
L 76.52736 272.939024 
L 76.88448 273.225909 
L 77.2416 273.076499 
L 77.59872 272.229547 
L 77.95584 270.804848 
L 78.31296 271.152292 
L 78.67008 270.67975 
L 79.0272 271.074935 
L 79.38432 270.33982 
L 79.74144 270.158583 
L 80.09856 268.694542 
L 80.45568 268.765269 
L 80.8128 267.786147 
L 81.16992 267.24111 
L 81.52704 267.563358 
L 81.88416 267.378142 
L 82.24128 267.353388 
L 82.5984 265.869455 
L 82.95552 264.988024 
L 83.31264 264.92216 
L 83.66976 264.552614 
L 84.02688 264.487191 
L 84.384 264.976973 
L 84.74112 264.651631 
L 85.09824 262.203163 
L 85.45536 263.831202 
L 85.81248 263.337 
L 86.52672 261.183816 
L 86.88384 262.176199 
L 87.24096 261.762006 
L 87.59808 259.840452 
L 87.9552 260.623749 
L 88.31232 258.931172 
L 88.66944 259.839126 
L 89.02656 257.632455 
L 89.38368 259.158382 
L 89.7408 256.484031 
L 90.09792 257.882208 
L 90.45504 256.47077 
L 90.81216 257.259372 
L 91.16928 256.191842 
L 91.5264 254.252606 
L 91.88352 255.373623 
L 92.24064 254.816209 
L 92.59776 253.910466 
L 93.312 252.697504 
L 93.66912 252.574617 
L 94.02624 253.370291 
L 94.38336 251.07919 
L 94.74048 252.941511 
L 95.0976 249.870649 
L 95.45472 251.291812 
L 95.81184 250.781696 
L 96.16896 250.794516 
L 96.52608 248.332787 
L 96.8832 249.022814 
L 97.24032 250.097416 
L 97.59744 247.830628 
L 97.95456 247.271887 
L 98.31168 246.474887 
L 98.6688 247.083578 
L 99.02592 246.79183 
L 99.38304 246.241931 
L 99.74016 245.163792 
L 100.09728 245.359616 
L 100.4544 246.535004 
L 100.81152 242.907612 
L 101.16864 245.228772 
L 101.52576 243.587914 
L 101.88288 242.901866 
L 102.24 240.687238 
L 102.59712 242.596415 
L 102.95424 242.805943 
L 103.31136 243.175931 
L 103.66848 239.514944 
L 104.0256 238.771872 
L 104.38272 239.933557 
L 104.73984 239.837192 
L 105.09696 237.774185 
L 105.45408 238.290931 
L 105.8112 238.215784 
L 106.16832 238.360774 
L 106.52544 237.776395 
L 106.88256 237.76667 
L 107.23968 236.252678 
L 107.5968 236.278317 
L 107.95392 233.692816 
L 108.31104 234.507941 
L 108.66816 233.796696 
L 109.02528 234.333776 
L 109.3824 233.080589 
L 109.73952 233.898808 
L 110.09664 233.419635 
L 110.45376 234.217077 
L 110.81088 232.398519 
L 111.168 233.898808 
L 111.52512 231.826517 
L 111.88224 232.342822 
L 112.23936 229.576526 
L 112.59648 230.057467 
L 112.9536 232.124011 
L 113.31072 229.530554 
L 114.02496 228.489104 
L 114.38208 227.65895 
L 114.7392 229.823627 
L 115.45344 225.734302 
L 115.81056 224.156214 
L 116.16768 225.137104 
L 116.5248 223.57714 
L 116.88192 226.318239 
L 117.23904 222.571053 
L 117.59616 223.254892 
L 117.95328 222.775277 
L 118.3104 223.804791 
L 118.66752 222.698361 
L 119.02464 223.797276 
L 119.38176 220.883781 
L 119.73888 222.388048 
L 120.096 220.395325 
L 120.45312 219.914826 
L 120.81024 219.882999 
L 121.16736 220.40063 
L 121.52448 222.009219 
L 122.23872 218.920675 
L 122.59584 216.186207 
L 122.95296 216.252513 
L 123.31008 215.742839 
L 123.6672 217.883204 
L 124.02432 215.487339 
L 124.38144 214.962636 
L 124.73856 213.459253 
L 125.09568 213.394715 
L 125.4528 213.087496 
L 125.80992 211.930674 
L 126.16704 215.55453 
L 126.52416 212.562351 
L 126.88128 215.329973 
L 127.2384 214.618728 
L 127.59552 210.423755 
L 127.95264 210.5851 
L 128.30976 214.391519 
L 128.66688 210.666877 
L 129.024 209.093652 
L 129.38112 211.564221 
L 129.73824 212.288285 
L 130.09536 212.050025 
L 130.45248 207.799354 
L 130.8096 208.153872 
L 131.16672 208.6883 
L 131.52384 210.705335 
L 131.88096 207.024014 
L 132.23808 209.157748 
L 132.5952 209.216981 
L 132.95232 208.699793 
L 133.30944 206.567385 
L 133.66656 205.421171 
L 134.02368 207.161489 
L 134.3808 201.451197 
L 134.73792 206.205353 
L 135.09504 205.071517 
L 135.45216 201.212495 
L 135.80928 201.46269 
L 136.1664 205.361054 
L 136.52352 200.955669 
L 136.88064 204.132179 
L 137.23776 199.496048 
L 137.59488 199.354595 
L 137.952 201.186414 
L 138.30912 201.289852 
L 138.66624 201.060875 
L 139.02336 196.706324 
L 139.38048 194.768857 
L 139.7376 194.989435 
L 140.09472 199.854102 
L 140.45184 195.468608 
L 140.80896 196.57106 
L 141.16608 198.345856 
L 141.5232 196.641786 
L 141.88032 192.801772 
L 142.23744 192.306244 
L 142.59456 190.90453 
L 142.95168 194.101816 
L 143.3088 190.86121 
L 143.66592 190.997801 
L 144.02304 191.54328 
L 144.38016 188.690787 
L 144.73728 195.007117 
L 145.0944 193.789735 
L 145.45152 188.235042 
L 145.80864 186.74271 
L 146.16576 192.086549 
L 146.52288 193.108549 
L 146.88 190.723293 
L 147.23712 184.982501 
L 147.59424 190.201685 
L 147.95136 189.265441 
L 148.30848 183.892427 
L 148.6656 184.966146 
L 149.02272 184.871991 
L 149.37984 189.694663 
L 149.73696 182.886783 
L 150.09408 185.606222 
L 150.4512 182.082709 
L 150.80832 185.432941 
L 151.16544 186.955332 
L 151.52256 184.504654 
L 151.87968 184.269046 
L 152.2368 182.115862 
L 152.59392 185.07754 
L 152.95104 185.751653 
L 153.30816 185.596055 
L 153.66528 180.13198 
L 154.0224 183.051664 
L 154.37952 177.409447 
L 154.73664 176.989066 
L 155.09376 179.145344 
L 155.45088 182.770084 
L 155.808 174.69045 
L 156.16512 176.854243 
L 156.52224 174.854448 
L 156.87936 179.372111 
L 157.5936 172.876312 
L 157.95072 174.567121 
L 158.30784 172.285303 
L 158.66496 171.707113 
L 159.02208 171.733635 
L 159.73632 175.611665 
L 160.09344 174.720509 
L 160.45056 176.641621 
L 160.80768 176.048844 
L 161.1648 169.047349 
L 161.52192 170.248818 
L 161.87904 168.832075 
L 162.23616 172.195568 
L 162.59328 173.610985 
L 162.9504 173.414277 
L 163.30752 174.226307 
L 163.66464 166.22403 
L 164.02176 164.717995 
L 164.37888 170.772637 
L 164.736 169.917729 
L 165.09312 165.949081 
L 165.45024 170.301863 
L 165.80736 167.335765 
L 166.16448 167.927216 
L 166.5216 167.280067 
L 166.87872 165.078259 
L 167.23584 164.81215 
L 167.59296 160.182208 
L 167.95008 162.676648 
L 168.3072 161.171055 
L 168.66432 168.040379 
L 169.02144 158.921506 
L 169.37856 160.409417 
L 169.73568 164.232192 
L 170.0928 162.857885 
L 170.44992 163.422814 
L 170.80704 161.944185 
L 171.16416 162.65322 
L 171.52128 163.991279 
L 171.8784 159.201318 
L 172.23552 157.889781 
L 172.59264 162.879987 
L 173.30688 158.274357 
L 173.664 153.334102 
L 174.02112 160.763492 
L 174.37824 151.879786 
L 174.73536 156.341752 
L 175.09248 157.992777 
L 175.4496 155.245489 
L 175.80672 159.643359 
L 176.16384 158.060409 
L 176.52096 150.720753 
L 176.87808 158.005154 
L 177.2352 155.456785 
L 177.59232 150.36933 
L 177.94944 152.178164 
L 178.30656 151.165889 
L 178.66368 151.556211 
L 179.0208 147.153478 
L 179.37792 146.399356 
L 179.73504 154.056398 
L 180.09216 152.262151 
L 180.44928 154.174423 
L 180.8064 147.63442 
L 181.16352 152.215295 
L 181.52064 151.756898 
L 181.87776 148.832794 
L 182.23488 147.535402 
L 182.592 147.456719 
L 182.94912 142.829429 
L 183.30624 140.661216 
L 183.66336 143.311696 
L 184.02048 140.962246 
L 184.3776 148.565359 
L 184.73472 143.369604 
L 185.09184 144.167488 
L 185.44896 141.249573 
L 185.80608 143.99465 
L 186.1632 142.36838 
L 186.52032 136.903863 
L 186.87744 147.249843 
L 187.23456 143.232571 
L 187.59168 136.004751 
L 187.9488 146.490858 
L 188.30592 143.077414 
L 188.66304 137.263243 
L 189.02016 136.67798 
L 189.37728 137.916138 
L 189.7344 141.954629 
L 190.09152 140.336757 
L 190.44864 136.726163 
L 190.80576 137.407791 
L 191.16288 143.201628 
L 191.52 135.216591 
L 191.87712 135.480932 
L 192.23424 136.042325 
L 192.59136 140.419419 
L 192.94848 141.228797 
L 193.3056 144.003049 
L 193.66272 135.967178 
L 194.01984 142.940823 
L 194.37696 134.897437 
L 195.0912 139.655571 
L 195.44832 138.78696 
L 195.80544 137.031171 
L 196.16256 142.642003 
L 196.51968 142.536356 
L 196.8768 142.223832 
L 197.23392 132.112576 
L 197.59104 141.760131 
L 197.94816 134.84616 
L 198.30528 133.250833 
L 198.6624 137.351651 
L 199.01952 135.117574 
L 199.37664 140.871185 
L 199.73376 131.114005 
L 200.09088 136.504258 
L 200.448 133.912127 
L 200.80512 134.983635 
L 201.16224 136.818549 
L 201.51936 129.898833 
L 201.87648 131.06538 
L 202.2336 131.589641 
L 202.59072 134.65343 
L 202.94784 133.913895 
L 203.30496 128.334448 
L 203.66208 137.936472 
L 204.0192 137.518301 
L 204.37632 137.572672 
L 204.73344 128.806548 
L 205.09056 127.621435 
L 205.44768 132.182419 
L 205.8048 132.257124 
L 206.16192 127.309796 
L 206.51904 132.814096 
L 206.87616 127.679343 
L 207.23328 127.883566 
L 207.5904 136.257599 
L 207.94752 126.038927 
L 208.30464 128.359202 
L 208.66176 132.359677 
L 209.01888 129.231792 
L 209.376 130.509734 
L 209.73312 134.994686 
L 210.09024 126.708177 
L 210.44736 128.337984 
L 210.80448 124.735347 
L 211.1616 133.693758 
L 211.51872 129.210132 
L 211.87584 127.241279 
L 212.23296 128.640783 
L 212.59008 128.048005 
L 212.9472 129.319316 
L 213.30432 125.914713 
L 213.66144 131.107374 
L 214.01856 131.549415 
L 214.7328 128.542649 
L 215.08992 133.212817 
L 215.44704 130.087584 
L 215.80416 129.813519 
L 216.16128 131.885367 
L 216.5184 126.377973 
L 216.87552 130.47216 
L 217.58976 124.663736 
L 217.94688 130.881933 
L 218.304 124.316733 
L 218.66112 121.652107 
L 219.01824 125.621198 
L 219.37536 127.29344 
L 219.73248 120.553192 
L 220.0896 127.980815 
L 220.44672 120.500147 
L 220.80384 128.103702 
L 221.16096 120.721168 
L 221.51808 119.884384 
L 221.8752 127.436662 
L 222.23232 123.847727 
L 222.58944 130.561011 
L 222.94656 126.732932 
L 223.30368 127.7567 
L 223.6608 121.488552 
L 224.01792 118.154233 
L 224.37504 124.209317 
L 224.73216 121.660506 
L 225.08928 128.494909 
L 225.4464 118.516707 
L 225.80352 128.433907 
L 226.16064 124.664178 
L 226.51776 124.279602 
L 226.87488 118.487975 
L 227.232 127.235975 
L 227.58912 123.06222 
L 227.94624 127.632486 
L 228.30336 117.167597 
L 228.66048 123.699643 
L 229.0176 118.11887 
L 229.37472 125.348016 
L 230.08896 121.401028 
L 230.44608 115.977179 
L 230.8032 123.143997 
L 231.16032 126.293985 
L 231.51744 124.958577 
L 231.87456 121.546018 
L 232.23168 122.410209 
L 232.5888 125.049638 
L 232.94592 121.003191 
L 233.30304 121.806822 
L 233.66016 121.192384 
L 234.3744 113.862011 
L 234.73152 116.152228 
L 235.08864 116.572167 
L 235.44576 121.914238 
L 235.80288 124.089966 
L 236.16 112.35686 
L 236.51712 122.155151 
L 236.87424 118.291266 
L 237.23136 117.466417 
L 237.58848 117.725895 
L 237.9456 119.381783 
L 238.65984 112.306909 
L 239.01696 120.158449 
L 239.7312 112.134513 
L 240.08832 112.588932 
L 240.44544 123.122337 
L 241.15968 111.497089 
L 241.5168 111.18545 
L 241.87392 117.292695 
L 242.23104 113.904005 
L 242.58816 111.947972 
L 242.94528 112.552684 
L 243.3024 117.427075 
L 243.65952 120.540815 
L 244.01664 110.586042 
L 244.73088 117.135328 
L 245.088 108.521708 
L 245.44512 109.854021 
L 245.80224 120.564243 
L 246.51648 111.835251 
L 246.8736 111.829947 
L 247.23072 115.986462 
L 247.58784 112.296742 
L 247.94496 113.206022 
L 248.30208 111.667275 
L 248.6592 115.348154 
L 249.01632 111.090411 
L 249.37344 113.45047 
L 249.73056 108.826275 
L 250.08768 110.37784 
L 250.4448 113.875272 
L 250.80192 109.068514 
L 251.15904 107.440033 
L 251.51616 113.772719 
L 251.87328 107.286645 
L 252.2304 106.629329 
L 252.58752 108.217584 
L 252.94464 113.488928 
L 253.30176 108.496954 
L 253.65888 117.154778 
L 254.016 109.127747 
L 254.37312 116.230027 
L 255.08736 105.072459 
L 255.44448 112.148658 
L 255.8016 103.737936 
L 256.15872 105.448636 
L 256.51584 107.890031 
L 256.87296 103.62831 
L 257.23008 113.299292 
L 257.5872 115.835284 
L 257.94432 104.306401 
L 258.30144 114.976398 
L 258.65856 105.42123 
L 259.01568 110.007852 
L 259.3728 108.902306 
L 259.72992 104.550408 
L 260.08704 109.596311 
L 260.44416 103.062497 
L 260.80128 108.973033 
L 261.1584 102.048895 
L 261.51552 113.03893 
L 262.22976 103.112005 
L 262.58688 101.559998 
L 262.944 112.366143 
L 263.30112 107.522253 
L 263.65824 105.067597 
L 264.01536 107.55629 
L 264.37248 106.854328 
L 265.08672 110.927298 
L 265.44384 104.097316 
L 265.80096 105.221427 
L 266.15808 106.925055 
L 266.5152 110.753134 
L 266.87232 105.985717 
L 267.22944 111.81978 
L 267.94368 102.474581 
L 268.3008 101.960487 
L 268.65792 111.642079 
L 269.37216 99.113298 
L 269.72928 109.05039 
L 270.0864 105.669215 
L 270.44352 106.823385 
L 270.80064 106.770782 
L 271.15776 111.154065 
L 271.51488 109.546802 
L 271.872 105.556494 
L 272.22912 106.256246 
L 272.58624 97.378286 
L 272.94336 109.530447 
L 273.30048 103.086367 
L 274.01472 97.443708 
L 274.37184 102.830867 
L 274.72896 103.115099 
L 275.08608 101.059165 
L 275.4432 101.006562 
L 275.80032 98.947533 
L 276.15744 98.950185 
L 276.51456 105.908801 
L 276.87168 105.101634 
L 277.94304 99.855486 
L 278.30016 106.953787 
L 278.65728 100.713046 
L 279.0144 107.822399 
L 279.37152 102.577577 
L 279.72864 99.870957 
L 280.44288 107.205751 
L 280.8 96.25108 
L 281.15712 94.909484 
L 281.51424 100.916385 
L 281.87136 94.024959 
L 282.22848 96.914142 
L 282.5856 106.959092 
L 282.94272 106.418475 
L 283.29984 95.797545 
L 283.65696 93.254923 
L 284.01408 98.250875 
L 284.3712 94.194703 
L 284.72832 98.913053 
L 285.08544 105.866365 
L 285.44256 104.752863 
L 285.79968 104.010233 
L 286.1568 104.240095 
L 286.51392 104.212688 
L 286.87104 102.250466 
L 287.22816 93.703153 
L 287.58528 94.559387 
L 288.29952 104.855859 
L 288.65664 103.780814 
L 289.01376 99.049644 
L 289.37088 97.466252 
L 289.728 99.886429 
L 290.08512 92.880514 
L 290.44224 89.819377 
L 290.79936 96.369105 
L 291.15648 98.189432 
L 291.5136 97.887075 
L 291.87072 89.340204 
L 292.22784 101.98701 
L 292.94208 90.02581 
L 293.2992 99.218062 
L 293.65632 100.121595 
L 294.01344 100.634805 
L 294.37056 95.002313 
L 295.0848 100.346594 
L 295.44192 92.25812 
L 295.79904 96.556973 
L 296.15616 88.573262 
L 296.51328 93.648782 
L 296.8704 94.80472 
L 297.22752 91.347514 
L 297.58464 95.865178 
L 297.94176 96.762522 
L 298.29888 92.056991 
L 298.656 90.845355 
L 299.37024 90.221193 
L 299.72736 94.067837 
L 300.08448 99.959808 
L 300.4416 97.766398 
L 300.79872 87.972528 
L 301.15584 95.578293 
L 301.87008 86.259617 
L 302.2272 90.181409 
L 302.58432 96.171954 
L 302.94144 90.590739 
L 303.29856 98.213302 
L 303.65568 90.677379 
L 304.0128 92.842056 
L 304.36992 93.368086 
L 304.72704 85.549699 
L 305.08416 84.932609 
L 305.44128 89.010883 
L 305.7984 91.168045 
L 306.15552 96.605597 
L 306.51264 87.386381 
L 306.86976 95.472203 
L 307.22688 95.707369 
L 307.584 88.255876 
L 307.94112 83.771366 
L 308.29824 95.939883 
L 308.65536 95.447449 
L 309.01248 95.311742 
L 309.3696 97.189976 
L 309.72672 89.475027 
L 310.08384 94.74195 
L 310.44096 83.565817 
L 310.79808 84.784525 
L 311.1552 94.531097 
L 311.51232 94.755654 
L 311.86944 87.417766 
L 312.22656 92.928696 
L 312.58368 86.975724 
L 313.29792 83.276279 
L 313.65504 83.076035 
L 314.36928 94.058996 
L 314.7264 87.064133 
L 315.08352 85.22524 
L 315.44064 93.025946 
L 315.79776 84.135166 
L 316.15488 87.027885 
L 316.512 81.367986 
L 317.22624 92.827911 
L 317.58336 84.849063 
L 317.94048 86.904998 
L 318.2976 85.452449 
L 318.65472 87.723658 
L 319.01184 85.709718 
L 319.36896 87.029211 
L 319.72608 90.79231 
L 320.0832 92.45085 
L 320.44032 83.601622 
L 320.79744 93.798192 
L 321.15456 93.561258 
L 321.51168 91.513722 
L 321.8688 86.952738 
L 322.22592 87.839031 
L 322.58304 89.732295 
L 322.94016 80.436605 
L 323.29728 83.671022 
L 323.6544 78.37625 
L 324.01152 87.631272 
L 324.36864 81.416611 
L 324.72576 77.794081 
L 325.44 81.483359 
L 325.79712 91.564114 
L 326.15424 83.143225 
L 326.51136 87.409809 
L 327.2256 87.76079 
L 327.58272 89.580232 
L 327.93984 84.548033 
L 328.29696 83.216162 
L 328.65408 85.48295 
L 329.0112 89.876842 
L 329.36832 79.875213 
L 329.72544 82.23704 
L 330.08256 78.526986 
L 330.43968 87.231666 
L 331.15392 81.643378 
L 331.51104 79.718288 
L 331.86816 78.811661 
L 332.22528 88.036624 
L 332.5824 89.084262 
L 332.93952 75.09586 
L 333.29664 86.256081 
L 333.65376 78.42178 
L 334.01088 81.158017 
L 334.368 77.534161 
L 334.72512 80.61519 
L 335.08224 78.712201 
L 335.43936 87.144584 
L 335.79648 88.401308 
L 336.1536 81.597848 
L 336.51072 87.944679 
L 336.86784 74.419979 
L 337.22496 76.701797 
L 337.58208 81.138567 
L 337.9392 87.748855 
L 338.29632 85.030742 
L 338.65344 84.856136 
L 339.01056 80.774325 
L 339.36768 80.67575 
L 339.7248 85.458638 
L 340.08192 72.574014 
L 340.43904 80.741172 
L 340.79616 73.403726 
L 341.15328 77.911664 
L 341.86752 75.783235 
L 342.22464 85.968754 
L 342.58176 79.558269 
L 342.93888 79.03666 
L 343.296 75.321302 
L 343.65312 86.127005 
L 344.01024 77.704789 
L 344.72448 86.146012 
L 345.0816 73.832064 
L 345.43872 79.365097 
L 345.79584 82.283454 
L 346.15296 82.031049 
L 346.51008 75.631615 
L 346.8672 71.42338 
L 347.22432 81.462583 
L 347.58144 83.28291 
L 347.93856 80.165634 
L 348.29568 73.084572 
L 348.6528 84.905202 
L 349.36704 82.531882 
L 349.72416 82.359485 
L 350.08128 83.695777 
L 350.4384 76.119628 
L 350.79552 76.357447 
L 351.50976 74.04999 
L 351.86688 79.7815 
L 352.224 72.582855 
L 352.58112 79.690439 
L 352.93824 73.904559 
L 353.29536 82.934581 
L 353.65248 74.926116 
L 354.0096 75.805337 
L 354.36672 70.086205 
L 354.72384 81.739743 
L 355.08096 69.444361 
L 355.43808 76.276553 
L 356.15232 82.112826 
L 356.50944 67.806597 
L 356.86656 75.037069 
L 357.5808 75.829207 
L 357.93792 74.740901 
L 358.29504 68.044415 
L 358.65216 71.082566 
L 359.00928 72.757019 
L 359.72352 71.764636 
L 360.08064 67.321678 
L 360.43776 69.626924 
L 360.79488 75.497234 
L 361.152 75.841142 
L 361.50912 77.202188 
L 361.86624 70.120684 
L 362.22336 70.995926 
L 362.58048 75.977291 
L 362.9376 76.921492 
L 363.29472 65.442559 
L 363.65184 64.69993 
L 364.00896 67.939651 
L 364.36608 80.028601 
L 364.7232 79.518927 
L 365.08032 77.776842 
L 365.43744 73.080593 
L 365.79456 76.950224 
L 366.15168 67.490979 
L 366.5088 64.863043 
L 366.86592 64.833426 
L 367.22304 73.863007 
L 367.58016 72.520085 
L 367.93728 75.473806 
L 368.2944 72.160263 
L 368.65152 65.699385 
L 369.00864 75.778372 
L 369.36576 74.45048 
L 369.72288 78.734746 
L 370.08 66.665688 
L 370.43712 64.237996 
L 370.79424 65.68082 
L 371.15136 63.447184 
L 371.50848 78.024827 
L 371.8656 75.434906 
L 372.22272 70.960563 
L 372.93696 68.438716 
L 373.29408 68.971376 
L 373.6512 71.44062 
L 374.00832 69.153055 
L 374.36544 68.291958 
L 374.72256 68.958115 
L 375.07968 72.845427 
L 375.4368 71.607269 
L 375.79392 69.562386 
L 376.15104 63.121842 
L 376.50816 60.857705 
L 376.86528 62.675822 
L 377.2224 61.958389 
L 377.57952 76.044923 
L 377.93664 70.401822 
L 378.29376 75.594483 
L 378.65088 75.179848 
L 379.008 60.197296 
L 379.36512 68.697753 
L 379.72224 69.866952 
L 380.7936 61.478332 
L 381.15072 70.215281 
L 381.50784 73.128334 
L 381.86496 72.197837 
L 382.22208 71.598871 
L 382.5792 71.347791 
L 382.93632 62.71428 
L 383.29344 73.170328 
L 383.65056 73.983684 
L 384.00768 72.869298 
L 384.3648 70.806732 
L 384.72192 60.68973 
L 385.07904 70.437628 
L 385.43616 70.302805 
L 385.79328 59.173086 
L 386.1504 67.533857 
L 386.50752 59.411346 
L 386.86464 64.526649 
L 387.22176 73.902791 
L 387.57888 61.665315 
L 387.936 63.715945 
L 388.65024 65.96682 
L 389.00736 65.697617 
L 389.36448 57.998581 
L 389.7216 60.990318 
L 390.07872 61.75726 
L 390.43584 68.523588 
L 390.79296 65.271931 
L 391.15008 60.356873 
L 391.5072 65.605231 
L 391.86432 61.54287 
L 392.22144 71.884871 
L 392.57856 57.892933 
L 392.93568 63.721692 
L 393.2928 71.892828 
L 393.64992 70.701526 
L 394.00704 62.659908 
L 394.36416 68.518284 
L 394.72128 66.397811 
L 395.0784 71.656778 
L 395.43552 55.577078 
L 395.79264 60.07706 
L 396.14976 57.730704 
L 396.50688 67.891027 
L 396.864 61.476563 
L 397.22112 60.665417 
L 397.93536 69.374076 
L 398.29248 56.808606 
L 398.6496 64.931117 
L 399.00672 60.988108 
L 399.36384 63.394581 
L 399.72096 64.497917 
L 400.07808 68.365779 
L 400.4352 65.351499 
L 400.79232 57.413761 
L 401.14944 63.76236 
L 401.50656 67.875113 
L 401.86368 65.280772 
L 402.2208 68.768921 
L 402.57792 63.180191 
L 402.93504 65.462893 
L 403.29216 65.416479 
L 403.64928 56.737879 
L 404.0064 69.360373 
L 404.36352 67.202768 
L 404.72064 62.401314 
L 405.07776 65.168052 
L 405.43488 64.303419 
L 405.792 56.183559 
L 406.14912 66.157782 
L 406.86336 55.420154 
L 407.22048 63.714619 
L 407.5776 60.042581 
L 407.93472 58.797792 
L 408.29184 56.815678 
L 408.64896 59.045336 
L 409.00608 66.81112 
L 409.3632 67.606794 
L 409.72032 60.018711 
L 410.07744 66.268293 
L 410.43456 66.68779 
L 410.79168 62.214773 
L 411.1488 64.917856 
L 411.50592 53.568 
L 411.86304 61.117626 
L 412.22016 57.443819 
L 412.57728 57.070294 
L 412.9344 66.713871 
L 413.29152 58.044996 
L 413.64864 55.742402 
L 414.00576 64.535932 
L 414.36288 54.856109 
L 414.72 56.775453 
L 414.72 56.775453 
" style="fill:none;stroke:#000080;stroke-linecap:square;stroke-width:0.5;"/>
   </g>
   <g id="patch_3">
    <path d="M 57.6 307.584 
L 57.6 41.472 
" style="fill:none;stroke:#000000;stroke-linecap:square;stroke-linejoin:miter;stroke-width:0.8;"/>
   </g>
   <g id="patch_4">
    <path d="M 414.72 307.584 
L 414.72 41.472 
" style="fill:none;stroke:#000000;stroke-linecap:square;stroke-linejoin:miter;stroke-width:0.8;"/>
   </g>
   <g id="patch_5">
    <path d="M 57.6 307.584 
L 414.72 307.584 
" style="fill:none;stroke:#000000;stroke-linecap:square;stroke-linejoin:miter;stroke-width:0.8;"/>
   </g>
   <g id="patch_6">
    <path d="M 57.6 41.472 
L 414.72 41.472 
" style="fill:none;stroke:#000000;stroke-linecap:square;stroke-linejoin:miter;stroke-width:0.8;"/>
   </g>
   <g id="text_15">
    <!-- Test -->
    <defs>
     <path d="M -0.296875 72.90625 
L 61.375 72.90625 
L 61.375 64.59375 
L 35.5 64.59375 
L 35.5 0 
L 25.59375 0 
L 25.59375 64.59375 
L -0.296875 64.59375 
z
" id="DejaVuSans-54"/>
    </defs>
    <g transform="translate(223.341563 35.472)scale(0.12 -0.12)">
     <use xlink:href="#DejaVuSans-54"/>
     <use x="60.818359" xlink:href="#DejaVuSans-65"/>
     <use x="122.341797" xlink:href="#DejaVuSans-73"/>
     <use x="174.441406" xlink:href="#DejaVuSans-74"/>
    </g>
   </g>
   <g id="legend_1">
    <g id="patch_7">
     <path d="M 64.6 64.150125 
L 306.276563 64.150125 
Q 308.276563 64.150125 308.276563 62.150125 
L 308.276563 48.472 
Q 308.276563 46.472 306.276563 46.472 
L 64.6 46.472 
Q 62.6 46.472 62.6 48.472 
L 62.6 62.150125 
Q 62.6 64.150125 64.6 64.150125 
z
" style="fill:#ffffff;opacity:0.8;stroke:#cccccc;stroke-linejoin:miter;"/>
    </g>
    <g id="line2d_26">
     <path d="M 66.6 54.570438 
L 86.6 54.570438 
" style="fill:none;stroke:#000080;stroke-linecap:square;stroke-width:0.5;"/>
    </g>
    <g id="line2d_27"/>
    <g id="text_16">
     <!-- Successful download requests per second -->
     <g transform="translate(94.6 58.070438)scale(0.1 -0.1)">
      <use xlink:href="#DejaVuSans-53"/>
      <use x="63.476562" xlink:href="#DejaVuSans-75"/>
      <use x="126.855469" xlink:href="#DejaVuSans-63"/>
      <use x="181.835938" xlink:href="#DejaVuSans-63"/>
      <use x="236.816406" xlink:href="#DejaVuSans-65"/>
      <use x="298.339844" xlink:href="#DejaVuSans-73"/>
      <use x="350.439453" xlink:href="#DejaVuSans-73"/>
      <use x="402.539062" xlink:href="#DejaVuSans-66"/>
      <use x="437.744141" xlink:href="#DejaVuSans-75"/>
      <use x="501.123047" xlink:href="#DejaVuSans-6c"/>
      <use x="528.90625" xlink:href="#DejaVuSans-20"/>
      <use x="560.693359" xlink:href="#DejaVuSans-64"/>
      <use x="624.169922" xlink:href="#DejaVuSans-6f"/>
      <use x="685.351562" xlink:href="#DejaVuSans-77"/>
      <use x="767.138672" xlink:href="#DejaVuSans-6e"/>
      <use x="830.517578" xlink:href="#DejaVuSans-6c"/>
      <use x="858.300781" xlink:href="#DejaVuSans-6f"/>
      <use x="919.482422" xlink:href="#DejaVuSans-61"/>
      <use x="980.761719" xlink:href="#DejaVuSans-64"/>
      <use x="1044.238281" xlink:href="#DejaVuSans-20"/>
      <use x="1076.025391" xlink:href="#DejaVuSans-72"/>
      <use x="1117.107422" xlink:href="#DejaVuSans-65"/>
      <use x="1178.630859" xlink:href="#DejaVuSans-71"/>
      <use x="1242.107422" xlink:href="#DejaVuSans-75"/>
      <use x="1305.486328" xlink:href="#DejaVuSans-65"/>
      <use x="1367.009766" xlink:href="#DejaVuSans-73"/>
      <use x="1419.109375" xlink:href="#DejaVuSans-74"/>
      <use x="1458.318359" xlink:href="#DejaVuSans-73"/>
      <use x="1510.417969" xlink:href="#DejaVuSans-20"/>
      <use x="1542.205078" xlink:href="#DejaVuSans-70"/>
      <use x="1605.681641" xlink:href="#DejaVuSans-65"/>
      <use x="1667.205078" xlink:href="#DejaVuSans-72"/>
      <use x="1708.318359" xlink:href="#DejaVuSans-20"/>
      <use x="1740.105469" xlink:href="#DejaVuSans-73"/>
      <use x="1792.205078" xlink:href="#DejaVuSans-65"/>
      <use x="1853.728516" xlink:href="#DejaVuSans-63"/>
      <use x="1908.708984" xlink:href="#DejaVuSans-6f"/>
      <use x="1969.890625" xlink:href="#DejaVuSans-6e"/>
      <use x="2033.269531" xlink:href="#DejaVuSans-64"/>
     </g>
    </g>
   </g>
  </g>
 </g>
 <defs>
  <clipPath id="p6858f8f8ef">
   <rect height="266.112" width="357.12" x="57.6" y="41.472"/>
  </clipPath>
 </defs>
</svg>
