<?xml version="1.0" encoding="utf-8" standalone="no"?>
<!DOCTYPE svg PUBLIC "-//W3C//DTD SVG 1.1//EN"
  "http://www.w3.org/Graphics/SVG/1.1/DTD/svg11.dtd">
<!-- Created with matplotlib (http://matplotlib.org/) -->
<svg height="345pt" version="1.1" viewBox="0 0 460 345" width="460pt" xmlns="http://www.w3.org/2000/svg" xmlns:xlink="http://www.w3.org/1999/xlink">
 <defs>
  <style type="text/css">
*{stroke-linecap:butt;stroke-linejoin:round;}
  </style>
 </defs>
 <g id="figure_1">
  <g id="patch_1">
   <path d="M 0 345.6 
L 460.8 345.6 
L 460.8 0 
L 0 0 
z
" style="fill:#ffffff;"/>
  </g>
  <g id="axes_1">
   <g id="patch_2">
    <path d="M 57.6 307.584 
L 414.72 307.584 
L 414.72 41.472 
L 57.6 41.472 
z
" style="fill:#ffffff;"/>
   </g>
   <g id="matplotlib.axis_1">
    <g id="xtick_1">
     <g id="line2d_1">
      <path clip-path="url(#p753fcc1f1a)" d="M 57.6 307.584 
L 57.6 41.472 
" style="fill:none;stroke:#b0b0b0;stroke-linecap:square;stroke-width:0.8;"/>
     </g>
     <g id="line2d_2">
      <defs>
       <path d="M 0 0 
L 0 3.5 
" id="mce693745bc" style="stroke:#000000;stroke-width:0.8;"/>
      </defs>
      <g>
       <use style="stroke:#000000;stroke-width:0.8;" x="57.6" xlink:href="#mce693745bc" y="307.584"/>
      </g>
     </g>
     <g id="text_1">
      <!-- 0 -->
      <defs>
       <path d="M 31.78125 66.40625 
Q 24.171875 66.40625 20.328125 58.90625 
Q 16.5 51.421875 16.5 36.375 
Q 16.5 21.390625 20.328125 13.890625 
Q 24.171875 6.390625 31.78125 6.390625 
Q 39.453125 6.390625 43.28125 13.890625 
Q 47.125 21.390625 47.125 36.375 
Q 47.125 51.421875 43.28125 58.90625 
Q 39.453125 66.40625 31.78125 66.40625 
M 31.78125 74.21875 
Q 44.046875 74.21875 50.515625 64.515625 
Q 56.984375 54.828125 56.984375 36.375 
Q 56.984375 17.96875 50.515625 8.265625 
Q 44.046875 -1.421875 31.78125 -1.421875 
Q 19.53125 -1.421875 13.0625 8.265625 
Q 6.59375 17.96875 6.59375 36.375 
Q 6.59375 54.828125 13.0625 64.515625 
Q 19.53125 74.21875 31.78125 74.21875 
" id="DejaVuSans-30"/>
      </defs>
      <g transform="translate(54.41875 322.182437)scale(0.1 -0.1)">
       <use xlink:href="#DejaVuSans-30"/>
      </g>
     </g>
    </g>
    <g id="xtick_2">
     <g id="line2d_3">
      <path clip-path="url(#p753fcc1f1a)" d="M 129.024 307.584 
L 129.024 41.472 
" style="fill:none;stroke:#b0b0b0;stroke-linecap:square;stroke-width:0.8;"/>
     </g>
     <g id="line2d_4">
      <g>
       <use style="stroke:#000000;stroke-width:0.8;" x="129.024" xlink:href="#mce693745bc" y="307.584"/>
      </g>
     </g>
     <g id="text_2">
      <!-- 200 -->
      <defs>
       <path d="M 19.1875 8.296875 
L 53.609375 8.296875 
L 53.609375 0 
L 7.328125 0 
L 7.328125 8.296875 
Q 12.9375 14.109375 22.625 23.890625 
Q 32.328125 33.6875 34.8125 36.53125 
Q 39.546875 41.84375 41.421875 45.53125 
Q 43.3125 49.21875 43.3125 52.78125 
Q 43.3125 58.59375 39.234375 62.25 
Q 35.15625 65.921875 28.609375 65.921875 
Q 23.96875 65.921875 18.8125 64.3125 
Q 13.671875 62.703125 7.8125 59.421875 
L 7.8125 69.390625 
Q 13.765625 71.78125 18.9375 73 
Q 24.125 74.21875 28.421875 74.21875 
Q 39.75 74.21875 46.484375 68.546875 
Q 53.21875 62.890625 53.21875 53.421875 
Q 53.21875 48.921875 51.53125 44.890625 
Q 49.859375 40.875 45.40625 35.40625 
Q 44.1875 33.984375 37.640625 27.21875 
Q 31.109375 20.453125 19.1875 8.296875 
" id="DejaVuSans-32"/>
      </defs>
      <g transform="translate(119.48025 322.182437)scale(0.1 -0.1)">
       <use xlink:href="#DejaVuSans-32"/>
       <use x="63.623047" xlink:href="#DejaVuSans-30"/>
       <use x="127.246094" xlink:href="#DejaVuSans-30"/>
      </g>
     </g>
    </g>
    <g id="xtick_3">
     <g id="line2d_5">
      <path clip-path="url(#p753fcc1f1a)" d="M 200.448 307.584 
L 200.448 41.472 
" style="fill:none;stroke:#b0b0b0;stroke-linecap:square;stroke-width:0.8;"/>
     </g>
     <g id="line2d_6">
      <g>
       <use style="stroke:#000000;stroke-width:0.8;" x="200.448" xlink:href="#mce693745bc" y="307.584"/>
      </g>
     </g>
     <g id="text_3">
      <!-- 400 -->
      <defs>
       <path d="M 37.796875 64.3125 
L 12.890625 25.390625 
L 37.796875 25.390625 
z
M 35.203125 72.90625 
L 47.609375 72.90625 
L 47.609375 25.390625 
L 58.015625 25.390625 
L 58.015625 17.1875 
L 47.609375 17.1875 
L 47.609375 0 
L 37.796875 0 
L 37.796875 17.1875 
L 4.890625 17.1875 
L 4.890625 26.703125 
z
" id="DejaVuSans-34"/>
      </defs>
      <g transform="translate(190.90425 322.182437)scale(0.1 -0.1)">
       <use xlink:href="#DejaVuSans-34"/>
       <use x="63.623047" xlink:href="#DejaVuSans-30"/>
       <use x="127.246094" xlink:href="#DejaVuSans-30"/>
      </g>
     </g>
    </g>
    <g id="xtick_4">
     <g id="line2d_7">
      <path clip-path="url(#p753fcc1f1a)" d="M 271.872 307.584 
L 271.872 41.472 
" style="fill:none;stroke:#b0b0b0;stroke-linecap:square;stroke-width:0.8;"/>
     </g>
     <g id="line2d_8">
      <g>
       <use style="stroke:#000000;stroke-width:0.8;" x="271.872" xlink:href="#mce693745bc" y="307.584"/>
      </g>
     </g>
     <g id="text_4">
      <!-- 600 -->
      <defs>
       <path d="M 33.015625 40.375 
Q 26.375 40.375 22.484375 35.828125 
Q 18.609375 31.296875 18.609375 23.390625 
Q 18.609375 15.53125 22.484375 10.953125 
Q 26.375 6.390625 33.015625 6.390625 
Q 39.65625 6.390625 43.53125 10.953125 
Q 47.40625 15.53125 47.40625 23.390625 
Q 47.40625 31.296875 43.53125 35.828125 
Q 39.65625 40.375 33.015625 40.375 
M 52.59375 71.296875 
L 52.59375 62.3125 
Q 48.875 64.0625 45.09375 64.984375 
Q 41.3125 65.921875 37.59375 65.921875 
Q 27.828125 65.921875 22.671875 59.328125 
Q 17.53125 52.734375 16.796875 39.40625 
Q 19.671875 43.65625 24.015625 45.921875 
Q 28.375 48.1875 33.59375 48.1875 
Q 44.578125 48.1875 50.953125 41.515625 
Q 57.328125 34.859375 57.328125 23.390625 
Q 57.328125 12.15625 50.6875 5.359375 
Q 44.046875 -1.421875 33.015625 -1.421875 
Q 20.359375 -1.421875 13.671875 8.265625 
Q 6.984375 17.96875 6.984375 36.375 
Q 6.984375 53.65625 15.1875 63.9375 
Q 23.390625 74.21875 37.203125 74.21875 
Q 40.921875 74.21875 44.703125 73.484375 
Q 48.484375 72.75 52.59375 71.296875 
" id="DejaVuSans-36"/>
      </defs>
      <g transform="translate(262.32825 322.182437)scale(0.1 -0.1)">
       <use xlink:href="#DejaVuSans-36"/>
       <use x="63.623047" xlink:href="#DejaVuSans-30"/>
       <use x="127.246094" xlink:href="#DejaVuSans-30"/>
      </g>
     </g>
    </g>
    <g id="xtick_5">
     <g id="line2d_9">
      <path clip-path="url(#p753fcc1f1a)" d="M 343.296 307.584 
L 343.296 41.472 
" style="fill:none;stroke:#b0b0b0;stroke-linecap:square;stroke-width:0.8;"/>
     </g>
     <g id="line2d_10">
      <g>
       <use style="stroke:#000000;stroke-width:0.8;" x="343.296" xlink:href="#mce693745bc" y="307.584"/>
      </g>
     </g>
     <g id="text_5">
      <!-- 800 -->
      <defs>
       <path d="M 31.78125 34.625 
Q 24.75 34.625 20.71875 30.859375 
Q 16.703125 27.09375 16.703125 20.515625 
Q 16.703125 13.921875 20.71875 10.15625 
Q 24.75 6.390625 31.78125 6.390625 
Q 38.8125 6.390625 42.859375 10.171875 
Q 46.921875 13.96875 46.921875 20.515625 
Q 46.921875 27.09375 42.890625 30.859375 
Q 38.875 34.625 31.78125 34.625 
M 21.921875 38.8125 
Q 15.578125 40.375 12.03125 44.71875 
Q 8.5 49.078125 8.5 55.328125 
Q 8.5 64.0625 14.71875 69.140625 
Q 20.953125 74.21875 31.78125 74.21875 
Q 42.671875 74.21875 48.875 69.140625 
Q 55.078125 64.0625 55.078125 55.328125 
Q 55.078125 49.078125 51.53125 44.71875 
Q 48 40.375 41.703125 38.8125 
Q 48.828125 37.15625 52.796875 32.3125 
Q 56.78125 27.484375 56.78125 20.515625 
Q 56.78125 9.90625 50.3125 4.234375 
Q 43.84375 -1.421875 31.78125 -1.421875 
Q 19.734375 -1.421875 13.25 4.234375 
Q 6.78125 9.90625 6.78125 20.515625 
Q 6.78125 27.484375 10.78125 32.3125 
Q 14.796875 37.15625 21.921875 38.8125 
M 18.3125 54.390625 
Q 18.3125 48.734375 21.84375 45.5625 
Q 25.390625 42.390625 31.78125 42.390625 
Q 38.140625 42.390625 41.71875 45.5625 
Q 45.3125 48.734375 45.3125 54.390625 
Q 45.3125 60.0625 41.71875 63.234375 
Q 38.140625 66.40625 31.78125 66.40625 
Q 25.390625 66.40625 21.84375 63.234375 
Q 18.3125 60.0625 18.3125 54.390625 
" id="DejaVuSans-38"/>
      </defs>
      <g transform="translate(333.75225 322.182437)scale(0.1 -0.1)">
       <use xlink:href="#DejaVuSans-38"/>
       <use x="63.623047" xlink:href="#DejaVuSans-30"/>
       <use x="127.246094" xlink:href="#DejaVuSans-30"/>
      </g>
     </g>
    </g>
    <g id="xtick_6">
     <g id="line2d_11">
      <path clip-path="url(#p753fcc1f1a)" d="M 414.72 307.584 
L 414.72 41.472 
" style="fill:none;stroke:#b0b0b0;stroke-linecap:square;stroke-width:0.8;"/>
     </g>
     <g id="line2d_12">
      <g>
       <use style="stroke:#000000;stroke-width:0.8;" x="414.72" xlink:href="#mce693745bc" y="307.584"/>
      </g>
     </g>
     <g id="text_6">
      <!-- 1000 -->
      <defs>
       <path d="M 12.40625 8.296875 
L 28.515625 8.296875 
L 28.515625 63.921875 
L 10.984375 60.40625 
L 10.984375 69.390625 
L 28.421875 72.90625 
L 38.28125 72.90625 
L 38.28125 8.296875 
L 54.390625 8.296875 
L 54.390625 0 
L 12.40625 0 
z
" id="DejaVuSans-31"/>
      </defs>
      <g transform="translate(401.995 322.182437)scale(0.1 -0.1)">
       <use xlink:href="#DejaVuSans-31"/>
       <use x="63.623047" xlink:href="#DejaVuSans-30"/>
       <use x="127.246094" xlink:href="#DejaVuSans-30"/>
       <use x="190.869141" xlink:href="#DejaVuSans-30"/>
      </g>
     </g>
    </g>
    <g id="text_7">
     <!-- Number of clients -->
     <defs>
      <path d="M 9.8125 72.90625 
L 23.09375 72.90625 
L 55.421875 11.921875 
L 55.421875 72.90625 
L 64.984375 72.90625 
L 64.984375 0 
L 51.703125 0 
L 19.390625 60.984375 
L 19.390625 0 
L 9.8125 0 
z
" id="DejaVuSans-4e"/>
      <path d="M 8.5 21.578125 
L 8.5 54.6875 
L 17.484375 54.6875 
L 17.484375 21.921875 
Q 17.484375 14.15625 20.5 10.265625 
Q 23.53125 6.390625 29.59375 6.390625 
Q 36.859375 6.390625 41.078125 11.03125 
Q 45.3125 15.671875 45.3125 23.6875 
L 45.3125 54.6875 
L 54.296875 54.6875 
L 54.296875 0 
L 45.3125 0 
L 45.3125 8.40625 
Q 42.046875 3.421875 37.71875 1 
Q 33.40625 -1.421875 27.6875 -1.421875 
Q 18.265625 -1.421875 13.375 4.4375 
Q 8.5 10.296875 8.5 21.578125 
M 31.109375 56 
z
" id="DejaVuSans-75"/>
      <path d="M 52 44.1875 
Q 55.375 50.25 60.0625 53.125 
Q 64.75 56 71.09375 56 
Q 79.640625 56 84.28125 50.015625 
Q 88.921875 44.046875 88.921875 33.015625 
L 88.921875 0 
L 79.890625 0 
L 79.890625 32.71875 
Q 79.890625 40.578125 77.09375 44.375 
Q 74.3125 48.1875 68.609375 48.1875 
Q 61.625 48.1875 57.5625 43.546875 
Q 53.515625 38.921875 53.515625 30.90625 
L 53.515625 0 
L 44.484375 0 
L 44.484375 32.71875 
Q 44.484375 40.625 41.703125 44.40625 
Q 38.921875 48.1875 33.109375 48.1875 
Q 26.21875 48.1875 22.15625 43.53125 
Q 18.109375 38.875 18.109375 30.90625 
L 18.109375 0 
L 9.078125 0 
L 9.078125 54.6875 
L 18.109375 54.6875 
L 18.109375 46.1875 
Q 21.1875 51.21875 25.484375 53.609375 
Q 29.78125 56 35.6875 56 
Q 41.65625 56 45.828125 52.96875 
Q 50 49.953125 52 44.1875 
" id="DejaVuSans-6d"/>
      <path d="M 48.6875 27.296875 
Q 48.6875 37.203125 44.609375 42.84375 
Q 40.53125 48.484375 33.40625 48.484375 
Q 26.265625 48.484375 22.1875 42.84375 
Q 18.109375 37.203125 18.109375 27.296875 
Q 18.109375 17.390625 22.1875 11.75 
Q 26.265625 6.109375 33.40625 6.109375 
Q 40.53125 6.109375 44.609375 11.75 
Q 48.6875 17.390625 48.6875 27.296875 
M 18.109375 46.390625 
Q 20.953125 51.265625 25.265625 53.625 
Q 29.59375 56 35.59375 56 
Q 45.5625 56 51.78125 48.09375 
Q 58.015625 40.1875 58.015625 27.296875 
Q 58.015625 14.40625 51.78125 6.484375 
Q 45.5625 -1.421875 35.59375 -1.421875 
Q 29.59375 -1.421875 25.265625 0.953125 
Q 20.953125 3.328125 18.109375 8.203125 
L 18.109375 0 
L 9.078125 0 
L 9.078125 75.984375 
L 18.109375 75.984375 
z
" id="DejaVuSans-62"/>
      <path d="M 56.203125 29.59375 
L 56.203125 25.203125 
L 14.890625 25.203125 
Q 15.484375 15.921875 20.484375 11.0625 
Q 25.484375 6.203125 34.421875 6.203125 
Q 39.59375 6.203125 44.453125 7.46875 
Q 49.3125 8.734375 54.109375 11.28125 
L 54.109375 2.78125 
Q 49.265625 0.734375 44.1875 -0.34375 
Q 39.109375 -1.421875 33.890625 -1.421875 
Q 20.796875 -1.421875 13.15625 6.1875 
Q 5.515625 13.8125 5.515625 26.8125 
Q 5.515625 40.234375 12.765625 48.109375 
Q 20.015625 56 32.328125 56 
Q 43.359375 56 49.78125 48.890625 
Q 56.203125 41.796875 56.203125 29.59375 
M 47.21875 32.234375 
Q 47.125 39.59375 43.09375 43.984375 
Q 39.0625 48.390625 32.421875 48.390625 
Q 24.90625 48.390625 20.390625 44.140625 
Q 15.875 39.890625 15.1875 32.171875 
z
" id="DejaVuSans-65"/>
      <path d="M 41.109375 46.296875 
Q 39.59375 47.171875 37.8125 47.578125 
Q 36.03125 48 33.890625 48 
Q 26.265625 48 22.1875 43.046875 
Q 18.109375 38.09375 18.109375 28.8125 
L 18.109375 0 
L 9.078125 0 
L 9.078125 54.6875 
L 18.109375 54.6875 
L 18.109375 46.1875 
Q 20.953125 51.171875 25.484375 53.578125 
Q 30.03125 56 36.53125 56 
Q 37.453125 56 38.578125 55.875 
Q 39.703125 55.765625 41.0625 55.515625 
z
" id="DejaVuSans-72"/>
      <path id="DejaVuSans-20"/>
      <path d="M 30.609375 48.390625 
Q 23.390625 48.390625 19.1875 42.75 
Q 14.984375 37.109375 14.984375 27.296875 
Q 14.984375 17.484375 19.15625 11.84375 
Q 23.34375 6.203125 30.609375 6.203125 
Q 37.796875 6.203125 41.984375 11.859375 
Q 46.1875 17.53125 46.1875 27.296875 
Q 46.1875 37.015625 41.984375 42.703125 
Q 37.796875 48.390625 30.609375 48.390625 
M 30.609375 56 
Q 42.328125 56 49.015625 48.375 
Q 55.71875 40.765625 55.71875 27.296875 
Q 55.71875 13.875 49.015625 6.21875 
Q 42.328125 -1.421875 30.609375 -1.421875 
Q 18.84375 -1.421875 12.171875 6.21875 
Q 5.515625 13.875 5.515625 27.296875 
Q 5.515625 40.765625 12.171875 48.375 
Q 18.84375 56 30.609375 56 
" id="DejaVuSans-6f"/>
      <path d="M 37.109375 75.984375 
L 37.109375 68.5 
L 28.515625 68.5 
Q 23.6875 68.5 21.796875 66.546875 
Q 19.921875 64.59375 19.921875 59.515625 
L 19.921875 54.6875 
L 34.71875 54.6875 
L 34.71875 47.703125 
L 19.921875 47.703125 
L 19.921875 0 
L 10.890625 0 
L 10.890625 47.703125 
L 2.296875 47.703125 
L 2.296875 54.6875 
L 10.890625 54.6875 
L 10.890625 58.5 
Q 10.890625 67.625 15.140625 71.796875 
Q 19.390625 75.984375 28.609375 75.984375 
z
" id="DejaVuSans-66"/>
      <path d="M 48.78125 52.59375 
L 48.78125 44.1875 
Q 44.96875 46.296875 41.140625 47.34375 
Q 37.3125 48.390625 33.40625 48.390625 
Q 24.65625 48.390625 19.8125 42.84375 
Q 14.984375 37.3125 14.984375 27.296875 
Q 14.984375 17.28125 19.8125 11.734375 
Q 24.65625 6.203125 33.40625 6.203125 
Q 37.3125 6.203125 41.140625 7.25 
Q 44.96875 8.296875 48.78125 10.40625 
L 48.78125 2.09375 
Q 45.015625 0.34375 40.984375 -0.53125 
Q 36.96875 -1.421875 32.421875 -1.421875 
Q 20.0625 -1.421875 12.78125 6.34375 
Q 5.515625 14.109375 5.515625 27.296875 
Q 5.515625 40.671875 12.859375 48.328125 
Q 20.21875 56 33.015625 56 
Q 37.15625 56 41.109375 55.140625 
Q 45.0625 54.296875 48.78125 52.59375 
" id="DejaVuSans-63"/>
      <path d="M 9.421875 75.984375 
L 18.40625 75.984375 
L 18.40625 0 
L 9.421875 0 
z
" id="DejaVuSans-6c"/>
      <path d="M 9.421875 54.6875 
L 18.40625 54.6875 
L 18.40625 0 
L 9.421875 0 
z
M 9.421875 75.984375 
L 18.40625 75.984375 
L 18.40625 64.59375 
L 9.421875 64.59375 
z
" id="DejaVuSans-69"/>
      <path d="M 54.890625 33.015625 
L 54.890625 0 
L 45.90625 0 
L 45.90625 32.71875 
Q 45.90625 40.484375 42.875 44.328125 
Q 39.84375 48.1875 33.796875 48.1875 
Q 26.515625 48.1875 22.3125 43.546875 
Q 18.109375 38.921875 18.109375 30.90625 
L 18.109375 0 
L 9.078125 0 
L 9.078125 54.6875 
L 18.109375 54.6875 
L 18.109375 46.1875 
Q 21.34375 51.125 25.703125 53.5625 
Q 30.078125 56 35.796875 56 
Q 45.21875 56 50.046875 50.171875 
Q 54.890625 44.34375 54.890625 33.015625 
" id="DejaVuSans-6e"/>
      <path d="M 18.3125 70.21875 
L 18.3125 54.6875 
L 36.8125 54.6875 
L 36.8125 47.703125 
L 18.3125 47.703125 
L 18.3125 18.015625 
Q 18.3125 11.328125 20.140625 9.421875 
Q 21.96875 7.515625 27.59375 7.515625 
L 36.8125 7.515625 
L 36.8125 0 
L 27.59375 0 
Q 17.1875 0 13.234375 3.875 
Q 9.28125 7.765625 9.28125 18.015625 
L 9.28125 47.703125 
L 2.6875 47.703125 
L 2.6875 54.6875 
L 9.28125 54.6875 
L 9.28125 70.21875 
z
" id="DejaVuSans-74"/>
      <path d="M 44.28125 53.078125 
L 44.28125 44.578125 
Q 40.484375 46.53125 36.375 47.5 
Q 32.28125 48.484375 27.875 48.484375 
Q 21.1875 48.484375 17.84375 46.4375 
Q 14.5 44.390625 14.5 40.28125 
Q 14.5 37.15625 16.890625 35.375 
Q 19.28125 33.59375 26.515625 31.984375 
L 29.59375 31.296875 
Q 39.15625 29.25 43.1875 25.515625 
Q 47.21875 21.78125 47.21875 15.09375 
Q 47.21875 7.46875 41.1875 3.015625 
Q 35.15625 -1.421875 24.609375 -1.421875 
Q 20.21875 -1.421875 15.453125 -0.5625 
Q 10.6875 0.296875 5.421875 2 
L 5.421875 11.28125 
Q 10.40625 8.6875 15.234375 7.390625 
Q 20.0625 6.109375 24.8125 6.109375 
Q 31.15625 6.109375 34.5625 8.28125 
Q 37.984375 10.453125 37.984375 14.40625 
Q 37.984375 18.0625 35.515625 20.015625 
Q 33.0625 21.96875 24.703125 23.78125 
L 21.578125 24.515625 
Q 13.234375 26.265625 9.515625 29.90625 
Q 5.8125 33.546875 5.8125 39.890625 
Q 5.8125 47.609375 11.28125 51.796875 
Q 16.75 56 26.8125 56 
Q 31.78125 56 36.171875 55.265625 
Q 40.578125 54.546875 44.28125 53.078125 
" id="DejaVuSans-73"/>
     </defs>
     <g transform="translate(191.738906 335.860562)scale(0.1 -0.1)">
      <use xlink:href="#DejaVuSans-4e"/>
      <use x="74.804688" xlink:href="#DejaVuSans-75"/>
      <use x="138.183594" xlink:href="#DejaVuSans-6d"/>
      <use x="235.595703" xlink:href="#DejaVuSans-62"/>
      <use x="299.072266" xlink:href="#DejaVuSans-65"/>
      <use x="360.595703" xlink:href="#DejaVuSans-72"/>
      <use x="401.708984" xlink:href="#DejaVuSans-20"/>
      <use x="433.496094" xlink:href="#DejaVuSans-6f"/>
      <use x="494.677734" xlink:href="#DejaVuSans-66"/>
      <use x="529.882812" xlink:href="#DejaVuSans-20"/>
      <use x="561.669922" xlink:href="#DejaVuSans-63"/>
      <use x="616.650391" xlink:href="#DejaVuSans-6c"/>
      <use x="644.433594" xlink:href="#DejaVuSans-69"/>
      <use x="672.216797" xlink:href="#DejaVuSans-65"/>
      <use x="733.740234" xlink:href="#DejaVuSans-6e"/>
      <use x="797.119141" xlink:href="#DejaVuSans-74"/>
      <use x="836.328125" xlink:href="#DejaVuSans-73"/>
     </g>
    </g>
   </g>
   <g id="matplotlib.axis_2">
    <g id="ytick_1">
     <g id="line2d_13">
      <path clip-path="url(#p753fcc1f1a)" d="M 57.6 296.32645 
L 414.72 296.32645 
" style="fill:none;stroke:#b0b0b0;stroke-linecap:square;stroke-width:0.8;"/>
     </g>
     <g id="line2d_14">
      <defs>
       <path d="M 0 0 
L -3.5 0 
" id="mffd83efc02" style="stroke:#000000;stroke-width:0.8;"/>
      </defs>
      <g>
       <use style="stroke:#000000;stroke-width:0.8;" x="57.6" xlink:href="#mffd83efc02" y="296.32645"/>
      </g>
     </g>
     <g id="text_8">
      <!-- 0 -->
      <g transform="translate(44.2375 300.125668)scale(0.1 -0.1)">
       <use xlink:href="#DejaVuSans-30"/>
      </g>
     </g>
    </g>
    <g id="ytick_2">
     <g id="line2d_15">
      <path clip-path="url(#p753fcc1f1a)" d="M 57.6 253.06279 
L 414.72 253.06279 
" style="fill:none;stroke:#b0b0b0;stroke-linecap:square;stroke-width:0.8;"/>
     </g>
     <g id="line2d_16">
      <g>
       <use style="stroke:#000000;stroke-width:0.8;" x="57.6" xlink:href="#mffd83efc02" y="253.06279"/>
      </g>
     </g>
     <g id="text_9">
      <!-- 50 -->
      <defs>
       <path d="M 10.796875 72.90625 
L 49.515625 72.90625 
L 49.515625 64.59375 
L 19.828125 64.59375 
L 19.828125 46.734375 
Q 21.96875 47.46875 24.109375 47.828125 
Q 26.265625 48.1875 28.421875 48.1875 
Q 40.625 48.1875 47.75 41.5 
Q 54.890625 34.8125 54.890625 23.390625 
Q 54.890625 11.625 47.5625 5.09375 
Q 40.234375 -1.421875 26.90625 -1.421875 
Q 22.3125 -1.421875 17.546875 -0.640625 
Q 12.796875 0.140625 7.71875 1.703125 
L 7.71875 11.625 
Q 12.109375 9.234375 16.796875 8.0625 
Q 21.484375 6.890625 26.703125 6.890625 
Q 35.15625 6.890625 40.078125 11.328125 
Q 45.015625 15.765625 45.015625 23.390625 
Q 45.015625 31 40.078125 35.4375 
Q 35.15625 39.890625 26.703125 39.890625 
Q 22.75 39.890625 18.8125 39.015625 
Q 14.890625 38.140625 10.796875 36.28125 
z
" id="DejaVuSans-35"/>
      </defs>
      <g transform="translate(37.875 256.862009)scale(0.1 -0.1)">
       <use xlink:href="#DejaVuSans-35"/>
       <use x="63.623047" xlink:href="#DejaVuSans-30"/>
      </g>
     </g>
    </g>
    <g id="ytick_3">
     <g id="line2d_17">
      <path clip-path="url(#p753fcc1f1a)" d="M 57.6 209.799131 
L 414.72 209.799131 
" style="fill:none;stroke:#b0b0b0;stroke-linecap:square;stroke-width:0.8;"/>
     </g>
     <g id="line2d_18">
      <g>
       <use style="stroke:#000000;stroke-width:0.8;" x="57.6" xlink:href="#mffd83efc02" y="209.799131"/>
      </g>
     </g>
     <g id="text_10">
      <!-- 100 -->
      <g transform="translate(31.5125 213.59835)scale(0.1 -0.1)">
       <use xlink:href="#DejaVuSans-31"/>
       <use x="63.623047" xlink:href="#DejaVuSans-30"/>
       <use x="127.246094" xlink:href="#DejaVuSans-30"/>
      </g>
     </g>
    </g>
    <g id="ytick_4">
     <g id="line2d_19">
      <path clip-path="url(#p753fcc1f1a)" d="M 57.6 166.535472 
L 414.72 166.535472 
" style="fill:none;stroke:#b0b0b0;stroke-linecap:square;stroke-width:0.8;"/>
     </g>
     <g id="line2d_20">
      <g>
       <use style="stroke:#000000;stroke-width:0.8;" x="57.6" xlink:href="#mffd83efc02" y="166.535472"/>
      </g>
     </g>
     <g id="text_11">
      <!-- 150 -->
      <g transform="translate(31.5125 170.33469)scale(0.1 -0.1)">
       <use xlink:href="#DejaVuSans-31"/>
       <use x="63.623047" xlink:href="#DejaVuSans-35"/>
       <use x="127.246094" xlink:href="#DejaVuSans-30"/>
      </g>
     </g>
    </g>
    <g id="ytick_5">
     <g id="line2d_21">
      <path clip-path="url(#p753fcc1f1a)" d="M 57.6 123.271812 
L 414.72 123.271812 
" style="fill:none;stroke:#b0b0b0;stroke-linecap:square;stroke-width:0.8;"/>
     </g>
     <g id="line2d_22">
      <g>
       <use style="stroke:#000000;stroke-width:0.8;" x="57.6" xlink:href="#mffd83efc02" y="123.271812"/>
      </g>
     </g>
     <g id="text_12">
      <!-- 200 -->
      <g transform="translate(31.5125 127.071031)scale(0.1 -0.1)">
       <use xlink:href="#DejaVuSans-32"/>
       <use x="63.623047" xlink:href="#DejaVuSans-30"/>
       <use x="127.246094" xlink:href="#DejaVuSans-30"/>
      </g>
     </g>
    </g>
    <g id="ytick_6">
     <g id="line2d_23">
      <path clip-path="url(#p753fcc1f1a)" d="M 57.6 80.008153 
L 414.72 80.008153 
" style="fill:none;stroke:#b0b0b0;stroke-linecap:square;stroke-width:0.8;"/>
     </g>
     <g id="line2d_24">
      <g>
       <use style="stroke:#000000;stroke-width:0.8;" x="57.6" xlink:href="#mffd83efc02" y="80.008153"/>
      </g>
     </g>
     <g id="text_13">
      <!-- 250 -->
      <g transform="translate(31.5125 83.807372)scale(0.1 -0.1)">
       <use xlink:href="#DejaVuSans-32"/>
       <use x="63.623047" xlink:href="#DejaVuSans-35"/>
       <use x="127.246094" xlink:href="#DejaVuSans-30"/>
      </g>
     </g>
    </g>
    <g id="text_14">
     <!-- Successful download requests per second -->
     <defs>
      <path d="M 53.515625 70.515625 
L 53.515625 60.890625 
Q 47.90625 63.578125 42.921875 64.890625 
Q 37.9375 66.21875 33.296875 66.21875 
Q 25.25 66.21875 20.875 63.09375 
Q 16.5 59.96875 16.5 54.203125 
Q 16.5 49.359375 19.40625 46.890625 
Q 22.3125 44.4375 30.421875 42.921875 
L 36.375 41.703125 
Q 47.40625 39.59375 52.65625 34.296875 
Q 57.90625 29 57.90625 20.125 
Q 57.90625 9.515625 50.796875 4.046875 
Q 43.703125 -1.421875 29.984375 -1.421875 
Q 24.8125 -1.421875 18.96875 -0.25 
Q 13.140625 0.921875 6.890625 3.21875 
L 6.890625 13.375 
Q 12.890625 10.015625 18.65625 8.296875 
Q 24.421875 6.59375 29.984375 6.59375 
Q 38.421875 6.59375 43.015625 9.90625 
Q 47.609375 13.234375 47.609375 19.390625 
Q 47.609375 24.75 44.3125 27.78125 
Q 41.015625 30.8125 33.5 32.328125 
L 27.484375 33.5 
Q 16.453125 35.6875 11.515625 40.375 
Q 6.59375 45.0625 6.59375 53.421875 
Q 6.59375 63.09375 13.40625 68.65625 
Q 20.21875 74.21875 32.171875 74.21875 
Q 37.3125 74.21875 42.625 73.28125 
Q 47.953125 72.359375 53.515625 70.515625 
" id="DejaVuSans-53"/>
      <path d="M 45.40625 46.390625 
L 45.40625 75.984375 
L 54.390625 75.984375 
L 54.390625 0 
L 45.40625 0 
L 45.40625 8.203125 
Q 42.578125 3.328125 38.25 0.953125 
Q 33.9375 -1.421875 27.875 -1.421875 
Q 17.96875 -1.421875 11.734375 6.484375 
Q 5.515625 14.40625 5.515625 27.296875 
Q 5.515625 40.1875 11.734375 48.09375 
Q 17.96875 56 27.875 56 
Q 33.9375 56 38.25 53.625 
Q 42.578125 51.265625 45.40625 46.390625 
M 14.796875 27.296875 
Q 14.796875 17.390625 18.875 11.75 
Q 22.953125 6.109375 30.078125 6.109375 
Q 37.203125 6.109375 41.296875 11.75 
Q 45.40625 17.390625 45.40625 27.296875 
Q 45.40625 37.203125 41.296875 42.84375 
Q 37.203125 48.484375 30.078125 48.484375 
Q 22.953125 48.484375 18.875 42.84375 
Q 14.796875 37.203125 14.796875 27.296875 
" id="DejaVuSans-64"/>
      <path d="M 4.203125 54.6875 
L 13.1875 54.6875 
L 24.421875 12.015625 
L 35.59375 54.6875 
L 46.1875 54.6875 
L 57.421875 12.015625 
L 68.609375 54.6875 
L 77.59375 54.6875 
L 63.28125 0 
L 52.6875 0 
L 40.921875 44.828125 
L 29.109375 0 
L 18.5 0 
z
" id="DejaVuSans-77"/>
      <path d="M 34.28125 27.484375 
Q 23.390625 27.484375 19.1875 25 
Q 14.984375 22.515625 14.984375 16.5 
Q 14.984375 11.71875 18.140625 8.90625 
Q 21.296875 6.109375 26.703125 6.109375 
Q 34.1875 6.109375 38.703125 11.40625 
Q 43.21875 16.703125 43.21875 25.484375 
L 43.21875 27.484375 
z
M 52.203125 31.203125 
L 52.203125 0 
L 43.21875 0 
L 43.21875 8.296875 
Q 40.140625 3.328125 35.546875 0.953125 
Q 30.953125 -1.421875 24.3125 -1.421875 
Q 15.921875 -1.421875 10.953125 3.296875 
Q 6 8.015625 6 15.921875 
Q 6 25.140625 12.171875 29.828125 
Q 18.359375 34.515625 30.609375 34.515625 
L 43.21875 34.515625 
L 43.21875 35.40625 
Q 43.21875 41.609375 39.140625 45 
Q 35.0625 48.390625 27.6875 48.390625 
Q 23 48.390625 18.546875 47.265625 
Q 14.109375 46.140625 10.015625 43.890625 
L 10.015625 52.203125 
Q 14.9375 54.109375 19.578125 55.046875 
Q 24.21875 56 28.609375 56 
Q 40.484375 56 46.34375 49.84375 
Q 52.203125 43.703125 52.203125 31.203125 
" id="DejaVuSans-61"/>
      <path d="M 14.796875 27.296875 
Q 14.796875 17.390625 18.875 11.75 
Q 22.953125 6.109375 30.078125 6.109375 
Q 37.203125 6.109375 41.296875 11.75 
Q 45.40625 17.390625 45.40625 27.296875 
Q 45.40625 37.203125 41.296875 42.84375 
Q 37.203125 48.484375 30.078125 48.484375 
Q 22.953125 48.484375 18.875 42.84375 
Q 14.796875 37.203125 14.796875 27.296875 
M 45.40625 8.203125 
Q 42.578125 3.328125 38.25 0.953125 
Q 33.9375 -1.421875 27.875 -1.421875 
Q 17.96875 -1.421875 11.734375 6.484375 
Q 5.515625 14.40625 5.515625 27.296875 
Q 5.515625 40.1875 11.734375 48.09375 
Q 17.96875 56 27.875 56 
Q 33.9375 56 38.25 53.625 
Q 42.578125 51.265625 45.40625 46.390625 
L 45.40625 54.6875 
L 54.390625 54.6875 
L 54.390625 -20.796875 
L 45.40625 -20.796875 
z
" id="DejaVuSans-71"/>
      <path d="M 18.109375 8.203125 
L 18.109375 -20.796875 
L 9.078125 -20.796875 
L 9.078125 54.6875 
L 18.109375 54.6875 
L 18.109375 46.390625 
Q 20.953125 51.265625 25.265625 53.625 
Q 29.59375 56 35.59375 56 
Q 45.5625 56 51.78125 48.09375 
Q 58.015625 40.1875 58.015625 27.296875 
Q 58.015625 14.40625 51.78125 6.484375 
Q 45.5625 -1.421875 35.59375 -1.421875 
Q 29.59375 -1.421875 25.265625 0.953125 
Q 20.953125 3.328125 18.109375 8.203125 
M 48.6875 27.296875 
Q 48.6875 37.203125 44.609375 42.84375 
Q 40.53125 48.484375 33.40625 48.484375 
Q 26.265625 48.484375 22.1875 42.84375 
Q 18.109375 37.203125 18.109375 27.296875 
Q 18.109375 17.390625 22.1875 11.75 
Q 26.265625 6.109375 33.40625 6.109375 
Q 40.53125 6.109375 44.609375 11.75 
Q 48.6875 17.390625 48.6875 27.296875 
" id="DejaVuSans-70"/>
     </defs>
     <g transform="translate(25.432812 279.366281)rotate(-90)scale(0.1 -0.1)">
      <use xlink:href="#DejaVuSans-53"/>
      <use x="63.476562" xlink:href="#DejaVuSans-75"/>
      <use x="126.855469" xlink:href="#DejaVuSans-63"/>
      <use x="181.835938" xlink:href="#DejaVuSans-63"/>
      <use x="236.816406" xlink:href="#DejaVuSans-65"/>
      <use x="298.339844" xlink:href="#DejaVuSans-73"/>
      <use x="350.439453" xlink:href="#DejaVuSans-73"/>
      <use x="402.539062" xlink:href="#DejaVuSans-66"/>
      <use x="437.744141" xlink:href="#DejaVuSans-75"/>
      <use x="501.123047" xlink:href="#DejaVuSans-6c"/>
      <use x="528.90625" xlink:href="#DejaVuSans-20"/>
      <use x="560.693359" xlink:href="#DejaVuSans-64"/>
      <use x="624.169922" xlink:href="#DejaVuSans-6f"/>
      <use x="685.351562" xlink:href="#DejaVuSans-77"/>
      <use x="767.138672" xlink:href="#DejaVuSans-6e"/>
      <use x="830.517578" xlink:href="#DejaVuSans-6c"/>
      <use x="858.300781" xlink:href="#DejaVuSans-6f"/>
      <use x="919.482422" xlink:href="#DejaVuSans-61"/>
      <use x="980.761719" xlink:href="#DejaVuSans-64"/>
      <use x="1044.238281" xlink:href="#DejaVuSans-20"/>
      <use x="1076.025391" xlink:href="#DejaVuSans-72"/>
      <use x="1117.107422" xlink:href="#DejaVuSans-65"/>
      <use x="1178.630859" xlink:href="#DejaVuSans-71"/>
      <use x="1242.107422" xlink:href="#DejaVuSans-75"/>
      <use x="1305.486328" xlink:href="#DejaVuSans-65"/>
      <use x="1367.009766" xlink:href="#DejaVuSans-73"/>
      <use x="1419.109375" xlink:href="#DejaVuSans-74"/>
      <use x="1458.318359" xlink:href="#DejaVuSans-73"/>
      <use x="1510.417969" xlink:href="#DejaVuSans-20"/>
      <use x="1542.205078" xlink:href="#DejaVuSans-70"/>
      <use x="1605.681641" xlink:href="#DejaVuSans-65"/>
      <use x="1667.205078" xlink:href="#DejaVuSans-72"/>
      <use x="1708.318359" xlink:href="#DejaVuSans-20"/>
      <use x="1740.105469" xlink:href="#DejaVuSans-73"/>
      <use x="1792.205078" xlink:href="#DejaVuSans-65"/>
      <use x="1853.728516" xlink:href="#DejaVuSans-63"/>
      <use x="1908.708984" xlink:href="#DejaVuSans-6f"/>
      <use x="1969.890625" xlink:href="#DejaVuSans-6e"/>
      <use x="2033.269531" xlink:href="#DejaVuSans-64"/>
     </g>
    </g>
   </g>
   <g id="line2d_25">
    <path clip-path="url(#p753fcc1f1a)" d="M 57.6 295.488 
L 57.95712 295.483674 
L 62.24256 285.342672 
L 62.59968 284.283577 
L 62.9568 283.894205 
L 63.67104 282.461312 
L 64.02816 280.96439 
L 64.38528 280.183913 
L 64.7424 279.058193 
L 65.09952 278.694778 
L 65.45664 277.75163 
L 66.17088 276.86559 
L 66.528 274.891037 
L 66.88512 273.972982 
L 67.24224 274.401292 
L 67.95648 271.521663 
L 68.3136 271.00423 
L 68.67072 271.03538 
L 69.02784 268.709525 
L 69.38496 269.321274 
L 69.74208 267.409885 
L 70.0992 268.094316 
L 70.45632 266.105918 
L 70.81344 266.319641 
L 71.17056 264.583038 
L 71.52768 263.868322 
L 71.8848 261.948281 
L 72.24192 260.872746 
L 72.59904 260.580284 
L 72.95616 259.856915 
L 73.31328 258.395469 
L 73.6704 258.23972 
L 74.02752 258.816857 
L 74.38464 257.640085 
L 74.74176 255.552181 
L 75.09888 255.331537 
L 75.456 253.214213 
L 75.81312 254.545003 
L 76.17024 253.961809 
L 76.52736 251.398005 
L 76.88448 251.276001 
L 77.2416 250.724822 
L 77.59872 248.305518 
L 77.95584 250.095769 
L 78.31296 249.094647 
L 78.67008 248.617017 
L 79.0272 245.566063 
L 79.38432 246.171755 
L 80.45568 241.042415 
L 81.52704 239.59914 
L 81.88416 237.911857 
L 82.24128 237.341642 
L 82.5984 239.280719 
L 82.95552 236.10084 
L 83.31264 238.383431 
L 83.66976 234.669678 
L 84.02688 233.515404 
L 84.384 235.882791 
L 84.74112 231.077064 
L 85.09824 232.76002 
L 85.45536 229.090397 
L 85.81248 231.644683 
L 86.1696 229.003869 
L 86.52672 227.686924 
L 86.88384 230.171988 
L 87.9552 223.864147 
L 88.66944 221.158437 
L 89.02656 222.368089 
L 89.38368 220.595145 
L 89.7408 222.393182 
L 90.09792 220.568321 
L 90.45504 220.588222 
L 90.81216 221.353989 
L 91.16928 216.061113 
L 91.5264 219.356073 
L 91.88352 214.045026 
L 92.24064 214.762338 
L 92.59776 212.669242 
L 92.95488 215.167286 
L 93.312 211.398156 
L 93.66912 211.185299 
L 94.02624 210.533748 
L 94.74048 208.939915 
L 95.0976 208.500356 
L 95.45472 210.468852 
L 95.81184 205.116272 
L 96.16896 207.279455 
L 96.52608 205.748787 
L 96.8832 203.071632 
L 97.24032 205.404408 
L 97.59744 201.424152 
L 97.95456 199.488536 
L 98.31168 198.96245 
L 98.6688 202.323171 
L 99.02592 202.643322 
L 99.38304 196.506804 
L 100.09728 196.58814 
L 100.4544 195.975527 
L 100.81152 192.963511 
L 101.16864 198.793721 
L 101.52576 192.722965 
L 101.88288 196.841665 
L 102.24 193.821862 
L 102.59712 195.271194 
L 102.95424 191.354102 
L 103.31136 195.925341 
L 103.66848 195.309266 
L 104.0256 195.806798 
L 104.38272 191.324683 
L 104.73984 195.330898 
L 105.09696 194.042506 
L 105.45408 191.93297 
L 105.8112 187.876569 
L 106.16832 193.876374 
L 106.52544 193.922233 
L 106.88256 189.171018 
L 107.23968 192.180438 
L 107.5968 192.878714 
L 107.95392 186.270622 
L 108.31104 187.447394 
L 108.66816 187.126378 
L 109.02528 187.729473 
L 109.3824 189.690182 
L 109.73952 190.033696 
L 110.09664 186.448003 
L 110.45376 187.444798 
L 110.81088 182.124233 
L 111.168 188.173358 
L 111.52512 187.963097 
L 111.88224 182.962683 
L 112.23936 186.601157 
L 112.59648 183.099396 
L 112.9536 185.357759 
L 113.31072 185.617341 
L 113.66784 187.255303 
L 114.02496 181.192334 
L 114.38208 179.319883 
L 114.7392 181.772067 
L 115.09632 183.164292 
L 115.45344 185.977295 
L 116.16768 179.23249 
L 116.5248 178.195028 
L 116.88192 179.015307 
L 117.23904 180.743257 
L 117.95328 177.904296 
L 118.3104 182.69964 
L 118.66752 177.935446 
L 119.02464 181.364523 
L 119.38176 180.665383 
L 119.73888 182.52399 
L 120.096 174.795369 
L 120.45312 178.312705 
L 120.81024 178.514314 
L 121.16736 173.050979 
L 121.52448 179.075011 
L 121.8816 174.633563 
L 122.23872 176.048285 
L 122.59584 176.249894 
L 122.95296 173.884237 
L 123.31008 177.89997 
L 123.6672 172.65901 
L 124.02432 179.133849 
L 124.38144 172.67545 
L 124.73856 177.602316 
L 125.09568 175.140613 
L 125.4528 175.940126 
L 125.80992 177.787484 
L 126.16704 173.718104 
L 126.52416 176.226531 
L 126.88128 170.597064 
L 127.2384 176.861642 
L 127.59552 173.905869 
L 127.95264 167.90693 
L 128.30976 172.032552 
L 128.66688 172.842448 
L 129.024 171.405229 
L 129.38112 171.101518 
L 129.73824 168.955641 
L 130.09536 170.368632 
L 130.45248 165.650297 
L 130.8096 168.718556 
L 131.16672 170.099532 
L 131.52384 164.813578 
L 131.88096 166.814955 
L 132.23808 165.262655 
L 132.5952 169.958492 
L 132.95232 172.035148 
L 133.30944 166.987144 
L 133.66656 165.588863 
L 134.02368 171.808446 
L 134.3808 170.482848 
L 134.73792 164.826557 
L 135.09504 165.338799 
L 135.45216 165.355239 
L 135.80928 165.241888 
L 136.1664 170.50448 
L 136.52352 169.607191 
L 136.88064 164.814443 
L 137.23776 168.836233 
L 137.59488 166.744002 
L 137.952 168.169973 
L 138.30912 168.665774 
L 138.66624 161.455453 
L 139.02336 164.24942 
L 139.38048 163.195517 
L 139.7376 166.314827 
L 140.09472 158.511793 
L 140.45184 158.714267 
L 140.80896 158.289418 
L 141.16608 159.447154 
L 141.5232 162.927282 
L 141.88032 159.090661 
L 142.23744 164.714072 
L 142.59456 162.993043 
L 142.95168 164.844728 
L 143.3088 160.233687 
L 143.66592 165.236697 
L 144.02304 156.751828 
L 144.38016 163.604791 
L 145.0944 156.986317 
L 145.45152 160.605754 
L 145.80864 162.152863 
L 146.16576 158.240963 
L 146.52288 160.71997 
L 146.88 160.970034 
L 147.23712 162.083641 
L 147.59424 157.840341 
L 147.95136 158.323164 
L 148.30848 157.501154 
L 149.02272 152.92732 
L 149.37984 153.51138 
L 149.73696 155.869249 
L 150.09408 156.26987 
L 150.4512 160.927636 
L 150.80832 152.350183 
L 151.52256 159.959395 
L 152.2368 154.859475 
L 152.59392 157.25109 
L 152.95104 158.696096 
L 153.30816 154.563552 
L 153.66528 154.990997 
L 154.0224 151.317047 
L 154.37952 150.906907 
L 154.73664 154.428569 
L 155.09376 152.139056 
L 155.45088 152.821757 
L 155.808 149.496512 
L 156.16512 155.374313 
L 156.52224 150.084898 
L 156.87936 148.183893 
L 157.23648 149.834834 
L 157.5936 150.527052 
L 157.95072 150.206036 
L 158.30784 151.240037 
L 158.66496 148.965234 
L 159.02208 156.365916 
L 159.3792 148.343968 
L 159.73632 153.072686 
L 160.09344 146.707736 
L 160.45056 145.760262 
L 160.80768 152.993081 
L 161.1648 146.549391 
L 161.52192 151.741896 
L 161.87904 147.231227 
L 162.23616 152.505067 
L 162.59328 145.291284 
L 162.9504 153.340921 
L 163.30752 148.457319 
L 163.66464 152.865886 
L 164.02176 146.540739 
L 164.37888 150.637807 
L 164.736 144.143067 
L 165.09312 152.524103 
L 165.45024 146.156557 
L 165.80736 148.840635 
L 166.16448 147.481291 
L 166.5216 148.125919 
L 166.87872 148.392423 
L 167.23584 150.500229 
L 167.59296 141.611277 
L 167.95008 148.680559 
L 168.3072 143.383357 
L 168.66432 143.967416 
L 169.02144 145.464339 
L 169.37856 149.333841 
L 169.73568 146.823683 
L 170.0928 139.613362 
L 170.44992 145.13467 
L 170.80704 148.807754 
L 171.16416 143.594484 
L 171.52128 144.922678 
L 171.8784 145.381273 
L 172.23552 145.1987 
L 172.59264 146.92492 
L 172.94976 139.947357 
L 173.30688 148.536924 
L 173.664 146.879926 
L 174.02112 147.383515 
L 174.37824 147.643097 
L 174.73536 147.702801 
L 175.09248 140.746004 
L 175.4496 140.059843 
L 175.80672 139.653164 
L 176.16384 144.571377 
L 176.52096 137.118779 
L 176.87808 139.885923 
L 177.2352 137.055614 
L 177.59232 137.94598 
L 177.94944 140.026097 
L 178.30656 140.379994 
L 178.66368 136.44127 
L 179.0208 136.056224 
L 179.37792 144.235651 
L 179.73504 142.95072 
L 180.09216 140.19569 
L 180.44928 143.862718 
L 180.8064 142.290517 
L 181.16352 134.179446 
L 181.52064 135.682426 
L 181.87776 142.136498 
L 182.23488 142.323397 
L 182.94912 133.909481 
L 183.30624 135.75857 
L 183.66336 140.123008 
L 184.02048 134.904545 
L 184.3776 138.541288 
L 185.09184 133.44829 
L 185.44896 136.715562 
L 185.80608 134.053116 
L 186.1632 137.551416 
L 186.52032 137.384418 
L 186.87744 141.163066 
L 187.23456 132.135671 
L 187.59168 133.060648 
L 187.9488 135.285265 
L 188.30592 134.252994 
L 188.66304 132.623685 
L 189.02016 136.403198 
L 189.37728 129.015496 
L 190.09152 136.395411 
L 190.44864 136.927554 
L 190.80576 136.095161 
L 191.16288 136.888616 
L 191.52 135.418517 
L 191.87712 128.746396 
L 192.23424 127.964189 
L 192.59136 135.067216 
L 192.94848 136.543372 
L 193.3056 129.668777 
L 193.66272 136.738924 
L 194.01984 128.484218 
L 194.73408 134.983285 
L 195.0912 127.681244 
L 195.44832 137.440661 
L 195.80544 135.685887 
L 196.16256 126.879136 
L 196.51968 131.495369 
L 196.8768 133.124678 
L 197.23392 131.91243 
L 197.59104 134.182907 
L 197.94816 128.171854 
L 198.30528 127.181116 
L 198.6624 125.756012 
L 199.01952 133.14804 
L 199.37664 134.009852 
L 199.73376 125.383944 
L 200.09088 128.854555 
L 200.448 129.037993 
L 200.80512 124.62683 
L 201.16224 123.4241 
L 201.51936 129.412656 
L 201.87648 133.430985 
L 202.2336 130.348016 
L 202.59072 129.843562 
L 202.94784 133.24149 
L 203.30496 123.203456 
L 203.66208 132.518987 
L 204.0192 128.163202 
L 204.37632 130.15506 
L 204.73344 123.154135 
L 205.09056 123.477747 
L 205.44768 122.819274 
L 205.8048 121.042003 
L 206.16192 123.568601 
L 206.51904 129.438614 
L 206.87616 123.349687 
L 207.23328 122.864269 
L 207.5904 123.601481 
L 207.94752 129.731077 
L 208.30464 128.101767 
L 208.66176 131.250496 
L 209.01888 127.896697 
L 209.376 131.337889 
L 209.73312 124.575779 
L 210.09024 127.934769 
L 210.44736 125.015338 
L 210.80448 123.972683 
L 211.1616 119.960412 
L 211.51872 127.310907 
L 211.87584 126.081354 
L 212.23296 119.761399 
L 212.59008 128.247133 
L 212.9472 120.052996 
L 213.30432 123.616191 
L 213.66144 121.790464 
L 214.01856 117.826648 
L 214.7328 126.564177 
L 215.08992 123.251046 
L 215.44704 128.100037 
L 215.80416 120.203553 
L 216.16128 122.483548 
L 216.5184 116.995986 
L 216.87552 119.493164 
L 217.23264 117.197594 
L 217.58976 118.851131 
L 217.94688 117.38882 
L 218.304 115.428976 
L 218.66112 126.260466 
L 219.01824 116.02861 
L 219.37536 124.551551 
L 219.73248 117.370649 
L 220.0896 121.257456 
L 220.44672 122.891957 
L 220.80384 118.094017 
L 221.16096 115.013645 
L 221.51808 115.446281 
L 221.8752 120.169808 
L 222.23232 122.621127 
L 222.58944 118.394267 
L 222.94656 121.106033 
L 223.30368 119.235313 
L 223.6608 118.905644 
L 224.01792 117.623309 
L 224.37504 114.755793 
L 224.73216 117.735794 
L 225.08928 113.521914 
L 225.4464 122.447207 
L 225.80352 115.839981 
L 226.16064 121.329274 
L 226.51776 121.508385 
L 226.87488 118.590684 
L 227.232 113.568639 
L 227.58912 118.401189 
L 227.94624 117.80069 
L 228.66048 112.461089 
L 229.0176 118.377827 
L 229.37472 111.56207 
L 229.73184 118.153721 
L 230.08896 110.139561 
L 230.44608 122.659199 
L 230.8032 112.62376 
L 231.16032 111.887413 
L 231.51744 115.038738 
L 231.87456 112.391002 
L 232.23168 121.594047 
L 232.5888 114.131066 
L 232.94592 112.975061 
L 233.30304 116.142826 
L 233.66016 117.302292 
L 234.3744 118.746433 
L 234.73152 116.351357 
L 235.08864 109.096907 
L 235.44576 119.529506 
L 235.80288 119.695638 
L 236.16 120.087607 
L 236.51712 116.587577 
L 236.87424 119.178205 
L 237.58848 110.464904 
L 237.9456 111.397668 
L 238.30272 118.790562 
L 238.65984 109.717308 
L 239.01696 112.409173 
L 239.37408 113.587675 
L 239.7312 106.903439 
L 240.08832 111.228075 
L 240.44544 110.954648 
L 240.80256 114.755793 
L 241.15968 110.367128 
L 241.5168 117.291909 
L 241.87392 115.296589 
L 242.23104 117.344691 
L 242.58816 115.628854 
L 242.94528 112.822773 
L 243.3024 106.104792 
L 243.65952 104.700454 
L 244.01664 113.01919 
L 244.37376 110.621518 
L 244.73088 104.732469 
L 245.088 105.872034 
L 245.44512 108.26884 
L 245.80224 109.480223 
L 246.15936 115.828732 
L 246.51648 114.534284 
L 246.8736 115.863343 
L 247.23072 108.434108 
L 247.58784 112.755282 
L 247.94496 114.643308 
L 248.30208 104.999838 
L 248.6592 106.192185 
L 249.01632 108.501599 
L 249.37344 109.060565 
L 249.73056 110.790246 
L 250.08768 105.987115 
L 250.4448 110.402604 
L 250.80192 103.874118 
L 251.15904 111.093957 
L 251.51616 107.753138 
L 251.87328 103.259774 
L 252.58752 112.444649 
L 252.94464 102.372004 
L 253.30176 106.63607 
L 253.65888 103.499455 
L 254.016 111.544765 
L 254.37312 104.781789 
L 254.73024 113.046014 
L 255.08736 106.221604 
L 255.44448 110.989259 
L 255.8016 102.294994 
L 256.15872 102.905012 
L 256.51584 106.468207 
L 256.87296 106.66895 
L 257.23008 99.813391 
L 257.5872 107.652766 
L 257.94432 106.638666 
L 258.30144 100.739233 
L 259.01568 107.955611 
L 259.3728 100.188054 
L 259.72992 100.401777 
L 260.08704 111.308545 
L 260.44416 103.50032 
L 260.80128 102.31403 
L 261.1584 108.375269 
L 261.51552 111.061942 
L 261.87264 110.186286 
L 262.22976 111.080113 
L 262.58688 99.489779 
L 262.944 104.510094 
L 263.30112 100.820569 
L 263.65824 101.460006 
L 264.37248 108.495542 
L 264.7296 105.4169 
L 265.08672 108.82348 
L 265.44384 96.457861 
L 265.80096 107.665745 
L 266.15808 100.535894 
L 266.5152 99.846271 
L 266.87232 105.63841 
L 267.22944 104.459908 
L 267.58656 96.69062 
L 267.94368 96.829064 
L 268.3008 96.376526 
L 268.65792 107.674398 
L 269.01504 95.780352 
L 269.37216 107.771308 
L 269.72928 105.784641 
L 270.0864 107.685646 
L 270.44352 104.650268 
L 270.80064 97.81634 
L 271.15776 107.651035 
L 271.51488 106.014804 
L 271.872 103.709716 
L 272.22912 96.206067 
L 272.58624 102.173856 
L 272.94336 100.843931 
L 273.30048 98.602008 
L 273.6576 107.074763 
L 274.01472 101.45914 
L 274.72896 95.455875 
L 275.08608 99.425748 
L 275.4432 105.685135 
L 275.80032 92.596147 
L 276.15744 92.556345 
L 276.51456 99.768397 
L 276.87168 93.80753 
L 277.2288 104.638154 
L 277.58592 93.473534 
L 277.94304 102.109826 
L 278.30016 105.262016 
L 278.65728 104.872643 
L 279.0144 105.316528 
L 279.37152 92.552018 
L 279.72864 95.607298 
L 280.08576 102.666196 
L 280.44288 92.829771 
L 281.15712 99.547752 
L 281.51424 93.573041 
L 281.87136 96.122135 
L 282.5856 91.229015 
L 282.94272 102.168664 
L 283.29984 93.878482 
L 283.65696 100.533298 
L 284.01408 90.436425 
L 284.3712 90.764364 
L 284.72832 95.196293 
L 285.08544 95.498273 
L 285.44256 95.031891 
L 285.79968 95.959464 
L 286.1568 96.074545 
L 286.51392 97.092107 
L 287.22816 100.689047 
L 287.58528 91.803557 
L 287.9424 101.743815 
L 288.29952 96.554772 
L 288.65664 101.401167 
L 289.01376 91.022215 
L 289.37088 90.801571 
L 289.728 94.396781 
L 290.08512 87.52132 
L 290.44224 87.709084 
L 290.79936 100.170749 
L 291.15648 89.052853 
L 291.5136 89.198219 
L 291.87072 100.685586 
L 292.22784 95.230904 
L 292.58496 92.00257 
L 292.94208 100.102392 
L 293.2992 88.139125 
L 294.01344 94.63127 
L 294.37056 89.096982 
L 294.72768 88.449758 
L 295.44192 97.379377 
L 295.79904 90.773017 
L 296.15616 89.283881 
L 296.51328 93.898383 
L 296.8704 89.556442 
L 297.22752 88.923928 
L 297.58464 94.286026 
L 297.94176 97.877775 
L 299.01312 85.442068 
L 299.37024 89.69056 
L 299.72736 97.924499 
L 300.08448 86.700176 
L 300.4416 86.109194 
L 300.79872 84.819072 
L 301.15584 95.139185 
L 301.51296 90.457192 
L 301.87008 91.65646 
L 302.2272 97.539453 
L 302.58432 95.969847 
L 302.94144 83.980622 
L 303.29856 91.452256 
L 303.65568 86.560867 
L 304.0128 84.937614 
L 304.36992 86.560001 
L 304.72704 97.013367 
L 305.08416 96.382583 
L 305.44128 84.55949 
L 305.7984 82.408421 
L 306.51264 85.632429 
L 306.86976 83.95899 
L 307.22688 87.917615 
L 307.584 96.028686 
L 307.94112 82.343525 
L 308.29824 93.033975 
L 308.65536 81.711876 
L 309.01248 94.642518 
L 309.3696 89.036413 
L 309.72672 95.577013 
L 310.44096 90.884637 
L 310.79808 90.490937 
L 311.1552 84.068015 
L 311.51232 92.25696 
L 311.86944 84.845895 
L 312.22656 81.952422 
L 312.58368 90.668318 
L 312.9408 82.519176 
L 313.29792 89.198219 
L 313.65504 86.180146 
L 314.01216 90.94261 
L 314.36928 84.750715 
L 314.7264 90.565351 
L 315.08352 91.614927 
L 315.44064 89.503661 
L 315.79776 84.21165 
L 316.15488 80.725464 
L 316.512 80.875157 
L 316.86912 84.680628 
L 317.22624 79.452647 
L 317.58336 89.834195 
L 317.94048 88.128742 
L 318.2976 85.688671 
L 318.65472 80.375029 
L 319.01184 86.194856 
L 319.36896 84.515361 
L 319.72608 79.530522 
L 320.0832 88.419473 
L 320.44032 78.777734 
L 320.79744 92.164376 
L 321.15456 92.522599 
L 321.51168 86.457034 
L 321.8688 86.307342 
L 322.22592 91.467831 
L 322.94016 79.742514 
L 323.29728 77.653744 
L 323.6544 83.804972 
L 324.01152 87.85445 
L 324.36864 89.107366 
L 324.72576 85.848747 
L 325.08288 89.166204 
L 325.44 81.110511 
L 325.79712 77.304174 
L 326.15424 85.407457 
L 326.51136 86.4778 
L 326.86848 79.580708 
L 327.2256 90.92617 
L 327.58272 86.513277 
L 327.93984 84.679763 
L 328.29696 89.483759 
L 328.65408 83.639704 
L 329.0112 88.277569 
L 329.36832 86.814392 
L 329.72544 82.790871 
L 330.08256 81.960209 
L 330.43968 83.456266 
L 330.7968 88.215269 
L 331.15392 89.498469 
L 331.51104 74.557797 
L 331.86816 74.234185 
L 332.22528 89.017377 
L 332.5824 79.861056 
L 332.93952 88.821825 
L 333.65376 76.374871 
L 334.01088 83.445018 
L 334.368 74.155445 
L 334.72512 85.086441 
L 335.08224 79.928548 
L 335.43936 77.156212 
L 336.1536 83.612881 
L 336.51072 77.725562 
L 336.86784 81.208287 
L 337.22496 76.129133 
L 337.58208 77.389836 
L 337.9392 75.016392 
L 338.29632 82.958734 
L 338.65344 76.945951 
L 339.01056 81.035232 
L 339.36768 81.925598 
L 339.7248 76.187106 
L 340.08192 80.487514 
L 340.43904 81.81917 
L 340.79616 82.680982 
L 341.15328 86.360989 
L 341.5104 84.170982 
L 341.86752 74.559528 
L 342.22464 83.741807 
L 342.58176 72.308952 
L 342.93888 74.084493 
L 343.296 85.362463 
L 343.65312 84.225494 
L 344.01024 84.588044 
L 344.36736 80.557601 
L 344.72448 82.136725 
L 345.0816 80.948705 
L 345.43872 73.193261 
L 345.79584 71.114875 
L 346.15296 78.458449 
L 346.8672 84.525744 
L 347.22432 79.831637 
L 347.58144 82.814234 
L 347.93856 72.289916 
L 348.29568 76.828274 
L 348.6528 70.058376 
L 349.00992 74.85372 
L 349.36704 70.351704 
L 349.72416 75.883396 
L 350.08128 73.654452 
L 350.4384 74.288697 
L 350.79552 79.559941 
L 351.15264 79.321126 
L 351.50976 70.983353 
L 351.86688 69.274439 
L 352.224 81.765523 
L 352.58112 73.035781 
L 352.93824 72.714765 
L 353.29536 68.654903 
L 353.65248 69.67506 
L 354.0096 69.145513 
L 354.36672 72.583244 
L 354.72384 77.160539 
L 355.08096 68.642789 
L 355.7952 79.153263 
L 356.15232 70.129329 
L 356.50944 71.956786 
L 356.86656 74.781903 
L 357.22368 80.065261 
L 357.93792 72.312413 
L 358.29504 80.110255 
L 358.65216 69.983098 
L 359.00928 72.927622 
L 359.72352 70.178649 
L 360.08064 79.876631 
L 360.43776 76.949412 
L 360.79488 69.988289 
L 361.152 80.812857 
L 361.50912 81.706684 
L 361.86624 76.031357 
L 362.22336 67.20211 
L 362.58048 68.995821 
L 362.9376 67.753289 
L 363.29472 75.564975 
L 363.65184 66.835234 
L 364.00896 76.902687 
L 364.36608 71.614138 
L 364.7232 72.282129 
L 365.08032 78.006776 
L 365.43744 70.362087 
L 365.79456 80.355993 
L 366.15168 71.635769 
L 366.5088 77.937554 
L 366.86592 71.563952 
L 367.22304 67.849334 
L 367.58016 70.469381 
L 368.2944 72.610067 
L 368.65152 70.452076 
L 369.00864 75.389325 
L 369.36576 70.675316 
L 369.72288 76.968448 
L 370.08 64.657341 
L 370.43712 64.41593 
L 370.79424 67.290367 
L 371.15136 67.719543 
L 371.50848 77.470307 
L 371.8656 63.991946 
L 372.22272 75.365962 
L 372.57984 66.353277 
L 372.93696 68.746622 
L 373.29408 74.363111 
L 373.6512 63.753131 
L 374.00832 67.440925 
L 374.36544 62.764123 
L 374.72256 65.963904 
L 375.07968 70.378527 
L 375.4368 64.550047 
L 375.79392 63.850907 
L 376.50816 69.723516 
L 376.86528 75.610834 
L 377.2224 67.950571 
L 377.93664 75.481043 
L 378.29376 71.446275 
L 378.65088 70.650223 
L 379.008 67.681471 
L 379.36512 74.985242 
L 379.72224 63.663142 
L 380.07936 62.43532 
L 380.43648 68.31139 
L 380.7936 66.243387 
L 381.15072 70.789532 
L 381.50784 68.919677 
L 381.86496 67.922882 
L 382.22208 61.457561 
L 382.5792 63.0687 
L 382.93632 73.905381 
L 383.29344 61.615041 
L 383.65056 61.622828 
L 384.3648 70.366414 
L 384.72192 66.701116 
L 385.07904 72.610932 
L 385.43616 73.618976 
L 385.79328 66.917435 
L 386.1504 72.238 
L 386.50752 64.916923 
L 386.86464 75.15397 
L 387.22176 59.724419 
L 387.57888 75.400573 
L 387.936 63.217527 
L 388.29312 64.874525 
L 388.65024 75.282031 
L 389.00736 68.126221 
L 389.36448 72.96656 
L 389.7216 67.953167 
L 390.07872 70.998928 
L 390.43584 67.998161 
L 390.79296 60.876963 
L 391.15008 64.056842 
L 391.5072 72.277802 
L 391.86432 69.856768 
L 392.22144 66.149072 
L 392.57856 59.483008 
L 392.93568 73.595613 
L 393.2928 62.915546 
L 393.64992 67.109525 
L 394.00704 63.845715 
L 394.36416 66.503834 
L 394.72128 72.042448 
L 395.0784 60.237526 
L 395.43552 61.456696 
L 395.79264 60.314535 
L 396.14976 65.876511 
L 396.864 61.159907 
L 397.22112 60.25137 
L 397.57824 57.242815 
L 397.93536 57.709197 
L 398.29248 58.847897 
L 398.6496 59.366196 
L 399.00672 63.786011 
L 399.36384 70.176054 
L 399.72096 68.848724 
L 400.07808 58.010313 
L 400.4352 62.368694 
L 400.79232 65.214577 
L 401.14944 71.583853 
L 401.50656 68.788155 
L 401.86368 57.79659 
L 402.2208 61.167694 
L 402.57792 71.376187 
L 402.93504 61.082032 
L 403.29216 71.264567 
L 403.64928 64.679838 
L 404.0064 63.937434 
L 404.36352 58.969035 
L 404.72064 57.919459 
L 405.43488 61.607253 
L 405.792 69.03995 
L 406.14912 60.000441 
L 406.50624 62.914681 
L 406.86336 67.831163 
L 407.22048 62.172277 
L 407.5776 68.702493 
L 407.93472 60.546428 
L 408.29184 56.203622 
L 409.00608 70.469381 
L 409.3632 63.236563 
L 409.72032 67.879619 
L 410.07744 63.344722 
L 410.43456 65.950059 
L 410.79168 58.58745 
L 411.1488 53.568 
L 411.50592 59.118727 
L 411.86304 58.796846 
L 412.22016 59.395615 
L 412.57728 58.324407 
L 413.29152 63.018514 
L 413.64864 65.445605 
L 414.00576 54.460097 
L 414.36288 59.617125 
L 414.72 67.032516 
L 414.72 67.032516 
" style="fill:none;stroke:#000080;stroke-linecap:square;stroke-width:0.5;"/>
   </g>
   <g id="patch_3">
    <path d="M 57.6 307.584 
L 57.6 41.472 
" style="fill:none;stroke:#000000;stroke-linecap:square;stroke-linejoin:miter;stroke-width:0.8;"/>
   </g>
   <g id="patch_4">
    <path d="M 414.72 307.584 
L 414.72 41.472 
" style="fill:none;stroke:#000000;stroke-linecap:square;stroke-linejoin:miter;stroke-width:0.8;"/>
   </g>
   <g id="patch_5">
    <path d="M 57.6 307.584 
L 414.72 307.584 
" style="fill:none;stroke:#000000;stroke-linecap:square;stroke-linejoin:miter;stroke-width:0.8;"/>
   </g>
   <g id="patch_6">
    <path d="M 57.6 41.472 
L 414.72 41.472 
" style="fill:none;stroke:#000000;stroke-linecap:square;stroke-linejoin:miter;stroke-width:0.8;"/>
   </g>
   <g id="text_15">
    <!-- Test -->
    <defs>
     <path d="M -0.296875 72.90625 
L 61.375 72.90625 
L 61.375 64.59375 
L 35.5 64.59375 
L 35.5 0 
L 25.59375 0 
L 25.59375 64.59375 
L -0.296875 64.59375 
z
" id="DejaVuSans-54"/>
    </defs>
    <g transform="translate(223.341563 35.472)scale(0.12 -0.12)">
     <use xlink:href="#DejaVuSans-54"/>
     <use x="60.818359" xlink:href="#DejaVuSans-65"/>
     <use x="122.341797" xlink:href="#DejaVuSans-73"/>
     <use x="174.441406" xlink:href="#DejaVuSans-74"/>
    </g>
   </g>
   <g id="legend_1">
    <g id="patch_7">
     <path d="M 64.6 64.150125 
L 306.276563 64.150125 
Q 308.276563 64.150125 308.276563 62.150125 
L 308.276563 48.472 
Q 308.276563 46.472 306.276563 46.472 
L 64.6 46.472 
Q 62.6 46.472 62.6 48.472 
L 62.6 62.150125 
Q 62.6 64.150125 64.6 64.150125 
z
" style="fill:#ffffff;opacity:0.8;stroke:#cccccc;stroke-linejoin:miter;"/>
    </g>
    <g id="line2d_26">
     <path d="M 66.6 54.570438 
L 86.6 54.570438 
" style="fill:none;stroke:#000080;stroke-linecap:square;stroke-width:0.5;"/>
    </g>
    <g id="line2d_27"/>
    <g id="text_16">
     <!-- Successful download requests per second -->
     <g transform="translate(94.6 58.070438)scale(0.1 -0.1)">
      <use xlink:href="#DejaVuSans-53"/>
      <use x="63.476562" xlink:href="#DejaVuSans-75"/>
      <use x="126.855469" xlink:href="#DejaVuSans-63"/>
      <use x="181.835938" xlink:href="#DejaVuSans-63"/>
      <use x="236.816406" xlink:href="#DejaVuSans-65"/>
      <use x="298.339844" xlink:href="#DejaVuSans-73"/>
      <use x="350.439453" xlink:href="#DejaVuSans-73"/>
      <use x="402.539062" xlink:href="#DejaVuSans-66"/>
      <use x="437.744141" xlink:href="#DejaVuSans-75"/>
      <use x="501.123047" xlink:href="#DejaVuSans-6c"/>
      <use x="528.90625" xlink:href="#DejaVuSans-20"/>
      <use x="560.693359" xlink:href="#DejaVuSans-64"/>
      <use x="624.169922" xlink:href="#DejaVuSans-6f"/>
      <use x="685.351562" xlink:href="#DejaVuSans-77"/>
      <use x="767.138672" xlink:href="#DejaVuSans-6e"/>
      <use x="830.517578" xlink:href="#DejaVuSans-6c"/>
      <use x="858.300781" xlink:href="#DejaVuSans-6f"/>
      <use x="919.482422" xlink:href="#DejaVuSans-61"/>
      <use x="980.761719" xlink:href="#DejaVuSans-64"/>
      <use x="1044.238281" xlink:href="#DejaVuSans-20"/>
      <use x="1076.025391" xlink:href="#DejaVuSans-72"/>
      <use x="1117.107422" xlink:href="#DejaVuSans-65"/>
      <use x="1178.630859" xlink:href="#DejaVuSans-71"/>
      <use x="1242.107422" xlink:href="#DejaVuSans-75"/>
      <use x="1305.486328" xlink:href="#DejaVuSans-65"/>
      <use x="1367.009766" xlink:href="#DejaVuSans-73"/>
      <use x="1419.109375" xlink:href="#DejaVuSans-74"/>
      <use x="1458.318359" xlink:href="#DejaVuSans-73"/>
      <use x="1510.417969" xlink:href="#DejaVuSans-20"/>
      <use x="1542.205078" xlink:href="#DejaVuSans-70"/>
      <use x="1605.681641" xlink:href="#DejaVuSans-65"/>
      <use x="1667.205078" xlink:href="#DejaVuSans-72"/>
      <use x="1708.318359" xlink:href="#DejaVuSans-20"/>
      <use x="1740.105469" xlink:href="#DejaVuSans-73"/>
      <use x="1792.205078" xlink:href="#DejaVuSans-65"/>
      <use x="1853.728516" xlink:href="#DejaVuSans-63"/>
      <use x="1908.708984" xlink:href="#DejaVuSans-6f"/>
      <use x="1969.890625" xlink:href="#DejaVuSans-6e"/>
      <use x="2033.269531" xlink:href="#DejaVuSans-64"/>
     </g>
    </g>
   </g>
  </g>
 </g>
 <defs>
  <clipPath id="p753fcc1f1a">
   <rect height="266.112" width="357.12" x="57.6" y="41.472"/>
  </clipPath>
 </defs>
</svg>
