<?xml version="1.0" encoding="utf-8" standalone="no"?>
<!DOCTYPE svg PUBLIC "-//W3C//DTD SVG 1.1//EN"
  "http://www.w3.org/Graphics/SVG/1.1/DTD/svg11.dtd">
<!-- Created with matplotlib (http://matplotlib.org/) -->
<svg height="345pt" version="1.1" viewBox="0 0 460 345" width="460pt" xmlns="http://www.w3.org/2000/svg" xmlns:xlink="http://www.w3.org/1999/xlink">
 <defs>
  <style type="text/css">
*{stroke-linecap:butt;stroke-linejoin:round;}
  </style>
 </defs>
 <g id="figure_1">
  <g id="patch_1">
   <path d="M 0 345.6 
L 460.8 345.6 
L 460.8 0 
L 0 0 
z
" style="fill:#ffffff;"/>
  </g>
  <g id="axes_1">
   <g id="patch_2">
    <path d="M 57.6 307.584 
L 414.72 307.584 
L 414.72 41.472 
L 57.6 41.472 
z
" style="fill:#ffffff;"/>
   </g>
   <g id="matplotlib.axis_1">
    <g id="xtick_1">
     <g id="line2d_1">
      <path clip-path="url(#p695b24c9b1)" d="M 57.6 307.584 
L 57.6 41.472 
" style="fill:none;stroke:#b0b0b0;stroke-linecap:square;stroke-width:0.8;"/>
     </g>
     <g id="line2d_2">
      <defs>
       <path d="M 0 0 
L 0 3.5 
" id="m935aaa76ee" style="stroke:#000000;stroke-width:0.8;"/>
      </defs>
      <g>
       <use style="stroke:#000000;stroke-width:0.8;" x="57.6" xlink:href="#m935aaa76ee" y="307.584"/>
      </g>
     </g>
     <g id="text_1">
      <!-- 0 -->
      <defs>
       <path d="M 31.78125 66.40625 
Q 24.171875 66.40625 20.328125 58.90625 
Q 16.5 51.421875 16.5 36.375 
Q 16.5 21.390625 20.328125 13.890625 
Q 24.171875 6.390625 31.78125 6.390625 
Q 39.453125 6.390625 43.28125 13.890625 
Q 47.125 21.390625 47.125 36.375 
Q 47.125 51.421875 43.28125 58.90625 
Q 39.453125 66.40625 31.78125 66.40625 
M 31.78125 74.21875 
Q 44.046875 74.21875 50.515625 64.515625 
Q 56.984375 54.828125 56.984375 36.375 
Q 56.984375 17.96875 50.515625 8.265625 
Q 44.046875 -1.421875 31.78125 -1.421875 
Q 19.53125 -1.421875 13.0625 8.265625 
Q 6.59375 17.96875 6.59375 36.375 
Q 6.59375 54.828125 13.0625 64.515625 
Q 19.53125 74.21875 31.78125 74.21875 
" id="DejaVuSans-30"/>
      </defs>
      <g transform="translate(54.41875 322.182437)scale(0.1 -0.1)">
       <use xlink:href="#DejaVuSans-30"/>
      </g>
     </g>
    </g>
    <g id="xtick_2">
     <g id="line2d_3">
      <path clip-path="url(#p695b24c9b1)" d="M 129.024 307.584 
L 129.024 41.472 
" style="fill:none;stroke:#b0b0b0;stroke-linecap:square;stroke-width:0.8;"/>
     </g>
     <g id="line2d_4">
      <g>
       <use style="stroke:#000000;stroke-width:0.8;" x="129.024" xlink:href="#m935aaa76ee" y="307.584"/>
      </g>
     </g>
     <g id="text_2">
      <!-- 200 -->
      <defs>
       <path d="M 19.1875 8.296875 
L 53.609375 8.296875 
L 53.609375 0 
L 7.328125 0 
L 7.328125 8.296875 
Q 12.9375 14.109375 22.625 23.890625 
Q 32.328125 33.6875 34.8125 36.53125 
Q 39.546875 41.84375 41.421875 45.53125 
Q 43.3125 49.21875 43.3125 52.78125 
Q 43.3125 58.59375 39.234375 62.25 
Q 35.15625 65.921875 28.609375 65.921875 
Q 23.96875 65.921875 18.8125 64.3125 
Q 13.671875 62.703125 7.8125 59.421875 
L 7.8125 69.390625 
Q 13.765625 71.78125 18.9375 73 
Q 24.125 74.21875 28.421875 74.21875 
Q 39.75 74.21875 46.484375 68.546875 
Q 53.21875 62.890625 53.21875 53.421875 
Q 53.21875 48.921875 51.53125 44.890625 
Q 49.859375 40.875 45.40625 35.40625 
Q 44.1875 33.984375 37.640625 27.21875 
Q 31.109375 20.453125 19.1875 8.296875 
" id="DejaVuSans-32"/>
      </defs>
      <g transform="translate(119.48025 322.182437)scale(0.1 -0.1)">
       <use xlink:href="#DejaVuSans-32"/>
       <use x="63.623047" xlink:href="#DejaVuSans-30"/>
       <use x="127.246094" xlink:href="#DejaVuSans-30"/>
      </g>
     </g>
    </g>
    <g id="xtick_3">
     <g id="line2d_5">
      <path clip-path="url(#p695b24c9b1)" d="M 200.448 307.584 
L 200.448 41.472 
" style="fill:none;stroke:#b0b0b0;stroke-linecap:square;stroke-width:0.8;"/>
     </g>
     <g id="line2d_6">
      <g>
       <use style="stroke:#000000;stroke-width:0.8;" x="200.448" xlink:href="#m935aaa76ee" y="307.584"/>
      </g>
     </g>
     <g id="text_3">
      <!-- 400 -->
      <defs>
       <path d="M 37.796875 64.3125 
L 12.890625 25.390625 
L 37.796875 25.390625 
z
M 35.203125 72.90625 
L 47.609375 72.90625 
L 47.609375 25.390625 
L 58.015625 25.390625 
L 58.015625 17.1875 
L 47.609375 17.1875 
L 47.609375 0 
L 37.796875 0 
L 37.796875 17.1875 
L 4.890625 17.1875 
L 4.890625 26.703125 
z
" id="DejaVuSans-34"/>
      </defs>
      <g transform="translate(190.90425 322.182437)scale(0.1 -0.1)">
       <use xlink:href="#DejaVuSans-34"/>
       <use x="63.623047" xlink:href="#DejaVuSans-30"/>
       <use x="127.246094" xlink:href="#DejaVuSans-30"/>
      </g>
     </g>
    </g>
    <g id="xtick_4">
     <g id="line2d_7">
      <path clip-path="url(#p695b24c9b1)" d="M 271.872 307.584 
L 271.872 41.472 
" style="fill:none;stroke:#b0b0b0;stroke-linecap:square;stroke-width:0.8;"/>
     </g>
     <g id="line2d_8">
      <g>
       <use style="stroke:#000000;stroke-width:0.8;" x="271.872" xlink:href="#m935aaa76ee" y="307.584"/>
      </g>
     </g>
     <g id="text_4">
      <!-- 600 -->
      <defs>
       <path d="M 33.015625 40.375 
Q 26.375 40.375 22.484375 35.828125 
Q 18.609375 31.296875 18.609375 23.390625 
Q 18.609375 15.53125 22.484375 10.953125 
Q 26.375 6.390625 33.015625 6.390625 
Q 39.65625 6.390625 43.53125 10.953125 
Q 47.40625 15.53125 47.40625 23.390625 
Q 47.40625 31.296875 43.53125 35.828125 
Q 39.65625 40.375 33.015625 40.375 
M 52.59375 71.296875 
L 52.59375 62.3125 
Q 48.875 64.0625 45.09375 64.984375 
Q 41.3125 65.921875 37.59375 65.921875 
Q 27.828125 65.921875 22.671875 59.328125 
Q 17.53125 52.734375 16.796875 39.40625 
Q 19.671875 43.65625 24.015625 45.921875 
Q 28.375 48.1875 33.59375 48.1875 
Q 44.578125 48.1875 50.953125 41.515625 
Q 57.328125 34.859375 57.328125 23.390625 
Q 57.328125 12.15625 50.6875 5.359375 
Q 44.046875 -1.421875 33.015625 -1.421875 
Q 20.359375 -1.421875 13.671875 8.265625 
Q 6.984375 17.96875 6.984375 36.375 
Q 6.984375 53.65625 15.1875 63.9375 
Q 23.390625 74.21875 37.203125 74.21875 
Q 40.921875 74.21875 44.703125 73.484375 
Q 48.484375 72.75 52.59375 71.296875 
" id="DejaVuSans-36"/>
      </defs>
      <g transform="translate(262.32825 322.182437)scale(0.1 -0.1)">
       <use xlink:href="#DejaVuSans-36"/>
       <use x="63.623047" xlink:href="#DejaVuSans-30"/>
       <use x="127.246094" xlink:href="#DejaVuSans-30"/>
      </g>
     </g>
    </g>
    <g id="xtick_5">
     <g id="line2d_9">
      <path clip-path="url(#p695b24c9b1)" d="M 343.296 307.584 
L 343.296 41.472 
" style="fill:none;stroke:#b0b0b0;stroke-linecap:square;stroke-width:0.8;"/>
     </g>
     <g id="line2d_10">
      <g>
       <use style="stroke:#000000;stroke-width:0.8;" x="343.296" xlink:href="#m935aaa76ee" y="307.584"/>
      </g>
     </g>
     <g id="text_5">
      <!-- 800 -->
      <defs>
       <path d="M 31.78125 34.625 
Q 24.75 34.625 20.71875 30.859375 
Q 16.703125 27.09375 16.703125 20.515625 
Q 16.703125 13.921875 20.71875 10.15625 
Q 24.75 6.390625 31.78125 6.390625 
Q 38.8125 6.390625 42.859375 10.171875 
Q 46.921875 13.96875 46.921875 20.515625 
Q 46.921875 27.09375 42.890625 30.859375 
Q 38.875 34.625 31.78125 34.625 
M 21.921875 38.8125 
Q 15.578125 40.375 12.03125 44.71875 
Q 8.5 49.078125 8.5 55.328125 
Q 8.5 64.0625 14.71875 69.140625 
Q 20.953125 74.21875 31.78125 74.21875 
Q 42.671875 74.21875 48.875 69.140625 
Q 55.078125 64.0625 55.078125 55.328125 
Q 55.078125 49.078125 51.53125 44.71875 
Q 48 40.375 41.703125 38.8125 
Q 48.828125 37.15625 52.796875 32.3125 
Q 56.78125 27.484375 56.78125 20.515625 
Q 56.78125 9.90625 50.3125 4.234375 
Q 43.84375 -1.421875 31.78125 -1.421875 
Q 19.734375 -1.421875 13.25 4.234375 
Q 6.78125 9.90625 6.78125 20.515625 
Q 6.78125 27.484375 10.78125 32.3125 
Q 14.796875 37.15625 21.921875 38.8125 
M 18.3125 54.390625 
Q 18.3125 48.734375 21.84375 45.5625 
Q 25.390625 42.390625 31.78125 42.390625 
Q 38.140625 42.390625 41.71875 45.5625 
Q 45.3125 48.734375 45.3125 54.390625 
Q 45.3125 60.0625 41.71875 63.234375 
Q 38.140625 66.40625 31.78125 66.40625 
Q 25.390625 66.40625 21.84375 63.234375 
Q 18.3125 60.0625 18.3125 54.390625 
" id="DejaVuSans-38"/>
      </defs>
      <g transform="translate(333.75225 322.182437)scale(0.1 -0.1)">
       <use xlink:href="#DejaVuSans-38"/>
       <use x="63.623047" xlink:href="#DejaVuSans-30"/>
       <use x="127.246094" xlink:href="#DejaVuSans-30"/>
      </g>
     </g>
    </g>
    <g id="xtick_6">
     <g id="line2d_11">
      <path clip-path="url(#p695b24c9b1)" d="M 414.72 307.584 
L 414.72 41.472 
" style="fill:none;stroke:#b0b0b0;stroke-linecap:square;stroke-width:0.8;"/>
     </g>
     <g id="line2d_12">
      <g>
       <use style="stroke:#000000;stroke-width:0.8;" x="414.72" xlink:href="#m935aaa76ee" y="307.584"/>
      </g>
     </g>
     <g id="text_6">
      <!-- 1000 -->
      <defs>
       <path d="M 12.40625 8.296875 
L 28.515625 8.296875 
L 28.515625 63.921875 
L 10.984375 60.40625 
L 10.984375 69.390625 
L 28.421875 72.90625 
L 38.28125 72.90625 
L 38.28125 8.296875 
L 54.390625 8.296875 
L 54.390625 0 
L 12.40625 0 
z
" id="DejaVuSans-31"/>
      </defs>
      <g transform="translate(401.995 322.182437)scale(0.1 -0.1)">
       <use xlink:href="#DejaVuSans-31"/>
       <use x="63.623047" xlink:href="#DejaVuSans-30"/>
       <use x="127.246094" xlink:href="#DejaVuSans-30"/>
       <use x="190.869141" xlink:href="#DejaVuSans-30"/>
      </g>
     </g>
    </g>
    <g id="text_7">
     <!-- Number of clients -->
     <defs>
      <path d="M 9.8125 72.90625 
L 23.09375 72.90625 
L 55.421875 11.921875 
L 55.421875 72.90625 
L 64.984375 72.90625 
L 64.984375 0 
L 51.703125 0 
L 19.390625 60.984375 
L 19.390625 0 
L 9.8125 0 
z
" id="DejaVuSans-4e"/>
      <path d="M 8.5 21.578125 
L 8.5 54.6875 
L 17.484375 54.6875 
L 17.484375 21.921875 
Q 17.484375 14.15625 20.5 10.265625 
Q 23.53125 6.390625 29.59375 6.390625 
Q 36.859375 6.390625 41.078125 11.03125 
Q 45.3125 15.671875 45.3125 23.6875 
L 45.3125 54.6875 
L 54.296875 54.6875 
L 54.296875 0 
L 45.3125 0 
L 45.3125 8.40625 
Q 42.046875 3.421875 37.71875 1 
Q 33.40625 -1.421875 27.6875 -1.421875 
Q 18.265625 -1.421875 13.375 4.4375 
Q 8.5 10.296875 8.5 21.578125 
M 31.109375 56 
z
" id="DejaVuSans-75"/>
      <path d="M 52 44.1875 
Q 55.375 50.25 60.0625 53.125 
Q 64.75 56 71.09375 56 
Q 79.640625 56 84.28125 50.015625 
Q 88.921875 44.046875 88.921875 33.015625 
L 88.921875 0 
L 79.890625 0 
L 79.890625 32.71875 
Q 79.890625 40.578125 77.09375 44.375 
Q 74.3125 48.1875 68.609375 48.1875 
Q 61.625 48.1875 57.5625 43.546875 
Q 53.515625 38.921875 53.515625 30.90625 
L 53.515625 0 
L 44.484375 0 
L 44.484375 32.71875 
Q 44.484375 40.625 41.703125 44.40625 
Q 38.921875 48.1875 33.109375 48.1875 
Q 26.21875 48.1875 22.15625 43.53125 
Q 18.109375 38.875 18.109375 30.90625 
L 18.109375 0 
L 9.078125 0 
L 9.078125 54.6875 
L 18.109375 54.6875 
L 18.109375 46.1875 
Q 21.1875 51.21875 25.484375 53.609375 
Q 29.78125 56 35.6875 56 
Q 41.65625 56 45.828125 52.96875 
Q 50 49.953125 52 44.1875 
" id="DejaVuSans-6d"/>
      <path d="M 48.6875 27.296875 
Q 48.6875 37.203125 44.609375 42.84375 
Q 40.53125 48.484375 33.40625 48.484375 
Q 26.265625 48.484375 22.1875 42.84375 
Q 18.109375 37.203125 18.109375 27.296875 
Q 18.109375 17.390625 22.1875 11.75 
Q 26.265625 6.109375 33.40625 6.109375 
Q 40.53125 6.109375 44.609375 11.75 
Q 48.6875 17.390625 48.6875 27.296875 
M 18.109375 46.390625 
Q 20.953125 51.265625 25.265625 53.625 
Q 29.59375 56 35.59375 56 
Q 45.5625 56 51.78125 48.09375 
Q 58.015625 40.1875 58.015625 27.296875 
Q 58.015625 14.40625 51.78125 6.484375 
Q 45.5625 -1.421875 35.59375 -1.421875 
Q 29.59375 -1.421875 25.265625 0.953125 
Q 20.953125 3.328125 18.109375 8.203125 
L 18.109375 0 
L 9.078125 0 
L 9.078125 75.984375 
L 18.109375 75.984375 
z
" id="DejaVuSans-62"/>
      <path d="M 56.203125 29.59375 
L 56.203125 25.203125 
L 14.890625 25.203125 
Q 15.484375 15.921875 20.484375 11.0625 
Q 25.484375 6.203125 34.421875 6.203125 
Q 39.59375 6.203125 44.453125 7.46875 
Q 49.3125 8.734375 54.109375 11.28125 
L 54.109375 2.78125 
Q 49.265625 0.734375 44.1875 -0.34375 
Q 39.109375 -1.421875 33.890625 -1.421875 
Q 20.796875 -1.421875 13.15625 6.1875 
Q 5.515625 13.8125 5.515625 26.8125 
Q 5.515625 40.234375 12.765625 48.109375 
Q 20.015625 56 32.328125 56 
Q 43.359375 56 49.78125 48.890625 
Q 56.203125 41.796875 56.203125 29.59375 
M 47.21875 32.234375 
Q 47.125 39.59375 43.09375 43.984375 
Q 39.0625 48.390625 32.421875 48.390625 
Q 24.90625 48.390625 20.390625 44.140625 
Q 15.875 39.890625 15.1875 32.171875 
z
" id="DejaVuSans-65"/>
      <path d="M 41.109375 46.296875 
Q 39.59375 47.171875 37.8125 47.578125 
Q 36.03125 48 33.890625 48 
Q 26.265625 48 22.1875 43.046875 
Q 18.109375 38.09375 18.109375 28.8125 
L 18.109375 0 
L 9.078125 0 
L 9.078125 54.6875 
L 18.109375 54.6875 
L 18.109375 46.1875 
Q 20.953125 51.171875 25.484375 53.578125 
Q 30.03125 56 36.53125 56 
Q 37.453125 56 38.578125 55.875 
Q 39.703125 55.765625 41.0625 55.515625 
z
" id="DejaVuSans-72"/>
      <path id="DejaVuSans-20"/>
      <path d="M 30.609375 48.390625 
Q 23.390625 48.390625 19.1875 42.75 
Q 14.984375 37.109375 14.984375 27.296875 
Q 14.984375 17.484375 19.15625 11.84375 
Q 23.34375 6.203125 30.609375 6.203125 
Q 37.796875 6.203125 41.984375 11.859375 
Q 46.1875 17.53125 46.1875 27.296875 
Q 46.1875 37.015625 41.984375 42.703125 
Q 37.796875 48.390625 30.609375 48.390625 
M 30.609375 56 
Q 42.328125 56 49.015625 48.375 
Q 55.71875 40.765625 55.71875 27.296875 
Q 55.71875 13.875 49.015625 6.21875 
Q 42.328125 -1.421875 30.609375 -1.421875 
Q 18.84375 -1.421875 12.171875 6.21875 
Q 5.515625 13.875 5.515625 27.296875 
Q 5.515625 40.765625 12.171875 48.375 
Q 18.84375 56 30.609375 56 
" id="DejaVuSans-6f"/>
      <path d="M 37.109375 75.984375 
L 37.109375 68.5 
L 28.515625 68.5 
Q 23.6875 68.5 21.796875 66.546875 
Q 19.921875 64.59375 19.921875 59.515625 
L 19.921875 54.6875 
L 34.71875 54.6875 
L 34.71875 47.703125 
L 19.921875 47.703125 
L 19.921875 0 
L 10.890625 0 
L 10.890625 47.703125 
L 2.296875 47.703125 
L 2.296875 54.6875 
L 10.890625 54.6875 
L 10.890625 58.5 
Q 10.890625 67.625 15.140625 71.796875 
Q 19.390625 75.984375 28.609375 75.984375 
z
" id="DejaVuSans-66"/>
      <path d="M 48.78125 52.59375 
L 48.78125 44.1875 
Q 44.96875 46.296875 41.140625 47.34375 
Q 37.3125 48.390625 33.40625 48.390625 
Q 24.65625 48.390625 19.8125 42.84375 
Q 14.984375 37.3125 14.984375 27.296875 
Q 14.984375 17.28125 19.8125 11.734375 
Q 24.65625 6.203125 33.40625 6.203125 
Q 37.3125 6.203125 41.140625 7.25 
Q 44.96875 8.296875 48.78125 10.40625 
L 48.78125 2.09375 
Q 45.015625 0.34375 40.984375 -0.53125 
Q 36.96875 -1.421875 32.421875 -1.421875 
Q 20.0625 -1.421875 12.78125 6.34375 
Q 5.515625 14.109375 5.515625 27.296875 
Q 5.515625 40.671875 12.859375 48.328125 
Q 20.21875 56 33.015625 56 
Q 37.15625 56 41.109375 55.140625 
Q 45.0625 54.296875 48.78125 52.59375 
" id="DejaVuSans-63"/>
      <path d="M 9.421875 75.984375 
L 18.40625 75.984375 
L 18.40625 0 
L 9.421875 0 
z
" id="DejaVuSans-6c"/>
      <path d="M 9.421875 54.6875 
L 18.40625 54.6875 
L 18.40625 0 
L 9.421875 0 
z
M 9.421875 75.984375 
L 18.40625 75.984375 
L 18.40625 64.59375 
L 9.421875 64.59375 
z
" id="DejaVuSans-69"/>
      <path d="M 54.890625 33.015625 
L 54.890625 0 
L 45.90625 0 
L 45.90625 32.71875 
Q 45.90625 40.484375 42.875 44.328125 
Q 39.84375 48.1875 33.796875 48.1875 
Q 26.515625 48.1875 22.3125 43.546875 
Q 18.109375 38.921875 18.109375 30.90625 
L 18.109375 0 
L 9.078125 0 
L 9.078125 54.6875 
L 18.109375 54.6875 
L 18.109375 46.1875 
Q 21.34375 51.125 25.703125 53.5625 
Q 30.078125 56 35.796875 56 
Q 45.21875 56 50.046875 50.171875 
Q 54.890625 44.34375 54.890625 33.015625 
" id="DejaVuSans-6e"/>
      <path d="M 18.3125 70.21875 
L 18.3125 54.6875 
L 36.8125 54.6875 
L 36.8125 47.703125 
L 18.3125 47.703125 
L 18.3125 18.015625 
Q 18.3125 11.328125 20.140625 9.421875 
Q 21.96875 7.515625 27.59375 7.515625 
L 36.8125 7.515625 
L 36.8125 0 
L 27.59375 0 
Q 17.1875 0 13.234375 3.875 
Q 9.28125 7.765625 9.28125 18.015625 
L 9.28125 47.703125 
L 2.6875 47.703125 
L 2.6875 54.6875 
L 9.28125 54.6875 
L 9.28125 70.21875 
z
" id="DejaVuSans-74"/>
      <path d="M 44.28125 53.078125 
L 44.28125 44.578125 
Q 40.484375 46.53125 36.375 47.5 
Q 32.28125 48.484375 27.875 48.484375 
Q 21.1875 48.484375 17.84375 46.4375 
Q 14.5 44.390625 14.5 40.28125 
Q 14.5 37.15625 16.890625 35.375 
Q 19.28125 33.59375 26.515625 31.984375 
L 29.59375 31.296875 
Q 39.15625 29.25 43.1875 25.515625 
Q 47.21875 21.78125 47.21875 15.09375 
Q 47.21875 7.46875 41.1875 3.015625 
Q 35.15625 -1.421875 24.609375 -1.421875 
Q 20.21875 -1.421875 15.453125 -0.5625 
Q 10.6875 0.296875 5.421875 2 
L 5.421875 11.28125 
Q 10.40625 8.6875 15.234375 7.390625 
Q 20.0625 6.109375 24.8125 6.109375 
Q 31.15625 6.109375 34.5625 8.28125 
Q 37.984375 10.453125 37.984375 14.40625 
Q 37.984375 18.0625 35.515625 20.015625 
Q 33.0625 21.96875 24.703125 23.78125 
L 21.578125 24.515625 
Q 13.234375 26.265625 9.515625 29.90625 
Q 5.8125 33.546875 5.8125 39.890625 
Q 5.8125 47.609375 11.28125 51.796875 
Q 16.75 56 26.8125 56 
Q 31.78125 56 36.171875 55.265625 
Q 40.578125 54.546875 44.28125 53.078125 
" id="DejaVuSans-73"/>
     </defs>
     <g transform="translate(191.738906 335.860562)scale(0.1 -0.1)">
      <use xlink:href="#DejaVuSans-4e"/>
      <use x="74.804688" xlink:href="#DejaVuSans-75"/>
      <use x="138.183594" xlink:href="#DejaVuSans-6d"/>
      <use x="235.595703" xlink:href="#DejaVuSans-62"/>
      <use x="299.072266" xlink:href="#DejaVuSans-65"/>
      <use x="360.595703" xlink:href="#DejaVuSans-72"/>
      <use x="401.708984" xlink:href="#DejaVuSans-20"/>
      <use x="433.496094" xlink:href="#DejaVuSans-6f"/>
      <use x="494.677734" xlink:href="#DejaVuSans-66"/>
      <use x="529.882812" xlink:href="#DejaVuSans-20"/>
      <use x="561.669922" xlink:href="#DejaVuSans-63"/>
      <use x="616.650391" xlink:href="#DejaVuSans-6c"/>
      <use x="644.433594" xlink:href="#DejaVuSans-69"/>
      <use x="672.216797" xlink:href="#DejaVuSans-65"/>
      <use x="733.740234" xlink:href="#DejaVuSans-6e"/>
      <use x="797.119141" xlink:href="#DejaVuSans-74"/>
      <use x="836.328125" xlink:href="#DejaVuSans-73"/>
     </g>
    </g>
   </g>
   <g id="matplotlib.axis_2">
    <g id="ytick_1">
     <g id="line2d_13">
      <path clip-path="url(#p695b24c9b1)" d="M 57.6 296.11858 
L 414.72 296.11858 
" style="fill:none;stroke:#b0b0b0;stroke-linecap:square;stroke-width:0.8;"/>
     </g>
     <g id="line2d_14">
      <defs>
       <path d="M 0 0 
L -3.5 0 
" id="mebea12d0f7" style="stroke:#000000;stroke-width:0.8;"/>
      </defs>
      <g>
       <use style="stroke:#000000;stroke-width:0.8;" x="57.6" xlink:href="#mebea12d0f7" y="296.11858"/>
      </g>
     </g>
     <g id="text_8">
      <!-- 0 -->
      <g transform="translate(44.2375 299.917799)scale(0.1 -0.1)">
       <use xlink:href="#DejaVuSans-30"/>
      </g>
     </g>
    </g>
    <g id="ytick_2">
     <g id="line2d_15">
      <path clip-path="url(#p695b24c9b1)" d="M 57.6 262.754538 
L 414.72 262.754538 
" style="fill:none;stroke:#b0b0b0;stroke-linecap:square;stroke-width:0.8;"/>
     </g>
     <g id="line2d_16">
      <g>
       <use style="stroke:#000000;stroke-width:0.8;" x="57.6" xlink:href="#mebea12d0f7" y="262.754538"/>
      </g>
     </g>
     <g id="text_9">
      <!-- 50 -->
      <defs>
       <path d="M 10.796875 72.90625 
L 49.515625 72.90625 
L 49.515625 64.59375 
L 19.828125 64.59375 
L 19.828125 46.734375 
Q 21.96875 47.46875 24.109375 47.828125 
Q 26.265625 48.1875 28.421875 48.1875 
Q 40.625 48.1875 47.75 41.5 
Q 54.890625 34.8125 54.890625 23.390625 
Q 54.890625 11.625 47.5625 5.09375 
Q 40.234375 -1.421875 26.90625 -1.421875 
Q 22.3125 -1.421875 17.546875 -0.640625 
Q 12.796875 0.140625 7.71875 1.703125 
L 7.71875 11.625 
Q 12.109375 9.234375 16.796875 8.0625 
Q 21.484375 6.890625 26.703125 6.890625 
Q 35.15625 6.890625 40.078125 11.328125 
Q 45.015625 15.765625 45.015625 23.390625 
Q 45.015625 31 40.078125 35.4375 
Q 35.15625 39.890625 26.703125 39.890625 
Q 22.75 39.890625 18.8125 39.015625 
Q 14.890625 38.140625 10.796875 36.28125 
z
" id="DejaVuSans-35"/>
      </defs>
      <g transform="translate(37.875 266.553757)scale(0.1 -0.1)">
       <use xlink:href="#DejaVuSans-35"/>
       <use x="63.623047" xlink:href="#DejaVuSans-30"/>
      </g>
     </g>
    </g>
    <g id="ytick_3">
     <g id="line2d_17">
      <path clip-path="url(#p695b24c9b1)" d="M 57.6 229.390496 
L 414.72 229.390496 
" style="fill:none;stroke:#b0b0b0;stroke-linecap:square;stroke-width:0.8;"/>
     </g>
     <g id="line2d_18">
      <g>
       <use style="stroke:#000000;stroke-width:0.8;" x="57.6" xlink:href="#mebea12d0f7" y="229.390496"/>
      </g>
     </g>
     <g id="text_10">
      <!-- 100 -->
      <g transform="translate(31.5125 233.189715)scale(0.1 -0.1)">
       <use xlink:href="#DejaVuSans-31"/>
       <use x="63.623047" xlink:href="#DejaVuSans-30"/>
       <use x="127.246094" xlink:href="#DejaVuSans-30"/>
      </g>
     </g>
    </g>
    <g id="ytick_4">
     <g id="line2d_19">
      <path clip-path="url(#p695b24c9b1)" d="M 57.6 196.026454 
L 414.72 196.026454 
" style="fill:none;stroke:#b0b0b0;stroke-linecap:square;stroke-width:0.8;"/>
     </g>
     <g id="line2d_20">
      <g>
       <use style="stroke:#000000;stroke-width:0.8;" x="57.6" xlink:href="#mebea12d0f7" y="196.026454"/>
      </g>
     </g>
     <g id="text_11">
      <!-- 150 -->
      <g transform="translate(31.5125 199.825673)scale(0.1 -0.1)">
       <use xlink:href="#DejaVuSans-31"/>
       <use x="63.623047" xlink:href="#DejaVuSans-35"/>
       <use x="127.246094" xlink:href="#DejaVuSans-30"/>
      </g>
     </g>
    </g>
    <g id="ytick_5">
     <g id="line2d_21">
      <path clip-path="url(#p695b24c9b1)" d="M 57.6 162.662412 
L 414.72 162.662412 
" style="fill:none;stroke:#b0b0b0;stroke-linecap:square;stroke-width:0.8;"/>
     </g>
     <g id="line2d_22">
      <g>
       <use style="stroke:#000000;stroke-width:0.8;" x="57.6" xlink:href="#mebea12d0f7" y="162.662412"/>
      </g>
     </g>
     <g id="text_12">
      <!-- 200 -->
      <g transform="translate(31.5125 166.461631)scale(0.1 -0.1)">
       <use xlink:href="#DejaVuSans-32"/>
       <use x="63.623047" xlink:href="#DejaVuSans-30"/>
       <use x="127.246094" xlink:href="#DejaVuSans-30"/>
      </g>
     </g>
    </g>
    <g id="ytick_6">
     <g id="line2d_23">
      <path clip-path="url(#p695b24c9b1)" d="M 57.6 129.29837 
L 414.72 129.29837 
" style="fill:none;stroke:#b0b0b0;stroke-linecap:square;stroke-width:0.8;"/>
     </g>
     <g id="line2d_24">
      <g>
       <use style="stroke:#000000;stroke-width:0.8;" x="57.6" xlink:href="#mebea12d0f7" y="129.29837"/>
      </g>
     </g>
     <g id="text_13">
      <!-- 250 -->
      <g transform="translate(31.5125 133.097589)scale(0.1 -0.1)">
       <use xlink:href="#DejaVuSans-32"/>
       <use x="63.623047" xlink:href="#DejaVuSans-35"/>
       <use x="127.246094" xlink:href="#DejaVuSans-30"/>
      </g>
     </g>
    </g>
    <g id="ytick_7">
     <g id="line2d_25">
      <path clip-path="url(#p695b24c9b1)" d="M 57.6 95.934328 
L 414.72 95.934328 
" style="fill:none;stroke:#b0b0b0;stroke-linecap:square;stroke-width:0.8;"/>
     </g>
     <g id="line2d_26">
      <g>
       <use style="stroke:#000000;stroke-width:0.8;" x="57.6" xlink:href="#mebea12d0f7" y="95.934328"/>
      </g>
     </g>
     <g id="text_14">
      <!-- 300 -->
      <defs>
       <path d="M 40.578125 39.3125 
Q 47.65625 37.796875 51.625 33 
Q 55.609375 28.21875 55.609375 21.1875 
Q 55.609375 10.40625 48.1875 4.484375 
Q 40.765625 -1.421875 27.09375 -1.421875 
Q 22.515625 -1.421875 17.65625 -0.515625 
Q 12.796875 0.390625 7.625 2.203125 
L 7.625 11.71875 
Q 11.71875 9.328125 16.59375 8.109375 
Q 21.484375 6.890625 26.8125 6.890625 
Q 36.078125 6.890625 40.9375 10.546875 
Q 45.796875 14.203125 45.796875 21.1875 
Q 45.796875 27.640625 41.28125 31.265625 
Q 36.765625 34.90625 28.71875 34.90625 
L 20.21875 34.90625 
L 20.21875 43.015625 
L 29.109375 43.015625 
Q 36.375 43.015625 40.234375 45.921875 
Q 44.09375 48.828125 44.09375 54.296875 
Q 44.09375 59.90625 40.109375 62.90625 
Q 36.140625 65.921875 28.71875 65.921875 
Q 24.65625 65.921875 20.015625 65.03125 
Q 15.375 64.15625 9.8125 62.3125 
L 9.8125 71.09375 
Q 15.4375 72.65625 20.34375 73.4375 
Q 25.25 74.21875 29.59375 74.21875 
Q 40.828125 74.21875 47.359375 69.109375 
Q 53.90625 64.015625 53.90625 55.328125 
Q 53.90625 49.265625 50.4375 45.09375 
Q 46.96875 40.921875 40.578125 39.3125 
" id="DejaVuSans-33"/>
      </defs>
      <g transform="translate(31.5125 99.733547)scale(0.1 -0.1)">
       <use xlink:href="#DejaVuSans-33"/>
       <use x="63.623047" xlink:href="#DejaVuSans-30"/>
       <use x="127.246094" xlink:href="#DejaVuSans-30"/>
      </g>
     </g>
    </g>
    <g id="ytick_8">
     <g id="line2d_27">
      <path clip-path="url(#p695b24c9b1)" d="M 57.6 62.570286 
L 414.72 62.570286 
" style="fill:none;stroke:#b0b0b0;stroke-linecap:square;stroke-width:0.8;"/>
     </g>
     <g id="line2d_28">
      <g>
       <use style="stroke:#000000;stroke-width:0.8;" x="57.6" xlink:href="#mebea12d0f7" y="62.570286"/>
      </g>
     </g>
     <g id="text_15">
      <!-- 350 -->
      <g transform="translate(31.5125 66.369505)scale(0.1 -0.1)">
       <use xlink:href="#DejaVuSans-33"/>
       <use x="63.623047" xlink:href="#DejaVuSans-35"/>
       <use x="127.246094" xlink:href="#DejaVuSans-30"/>
      </g>
     </g>
    </g>
    <g id="text_16">
     <!-- Successful download requests per second -->
     <defs>
      <path d="M 53.515625 70.515625 
L 53.515625 60.890625 
Q 47.90625 63.578125 42.921875 64.890625 
Q 37.9375 66.21875 33.296875 66.21875 
Q 25.25 66.21875 20.875 63.09375 
Q 16.5 59.96875 16.5 54.203125 
Q 16.5 49.359375 19.40625 46.890625 
Q 22.3125 44.4375 30.421875 42.921875 
L 36.375 41.703125 
Q 47.40625 39.59375 52.65625 34.296875 
Q 57.90625 29 57.90625 20.125 
Q 57.90625 9.515625 50.796875 4.046875 
Q 43.703125 -1.421875 29.984375 -1.421875 
Q 24.8125 -1.421875 18.96875 -0.25 
Q 13.140625 0.921875 6.890625 3.21875 
L 6.890625 13.375 
Q 12.890625 10.015625 18.65625 8.296875 
Q 24.421875 6.59375 29.984375 6.59375 
Q 38.421875 6.59375 43.015625 9.90625 
Q 47.609375 13.234375 47.609375 19.390625 
Q 47.609375 24.75 44.3125 27.78125 
Q 41.015625 30.8125 33.5 32.328125 
L 27.484375 33.5 
Q 16.453125 35.6875 11.515625 40.375 
Q 6.59375 45.0625 6.59375 53.421875 
Q 6.59375 63.09375 13.40625 68.65625 
Q 20.21875 74.21875 32.171875 74.21875 
Q 37.3125 74.21875 42.625 73.28125 
Q 47.953125 72.359375 53.515625 70.515625 
" id="DejaVuSans-53"/>
      <path d="M 45.40625 46.390625 
L 45.40625 75.984375 
L 54.390625 75.984375 
L 54.390625 0 
L 45.40625 0 
L 45.40625 8.203125 
Q 42.578125 3.328125 38.25 0.953125 
Q 33.9375 -1.421875 27.875 -1.421875 
Q 17.96875 -1.421875 11.734375 6.484375 
Q 5.515625 14.40625 5.515625 27.296875 
Q 5.515625 40.1875 11.734375 48.09375 
Q 17.96875 56 27.875 56 
Q 33.9375 56 38.25 53.625 
Q 42.578125 51.265625 45.40625 46.390625 
M 14.796875 27.296875 
Q 14.796875 17.390625 18.875 11.75 
Q 22.953125 6.109375 30.078125 6.109375 
Q 37.203125 6.109375 41.296875 11.75 
Q 45.40625 17.390625 45.40625 27.296875 
Q 45.40625 37.203125 41.296875 42.84375 
Q 37.203125 48.484375 30.078125 48.484375 
Q 22.953125 48.484375 18.875 42.84375 
Q 14.796875 37.203125 14.796875 27.296875 
" id="DejaVuSans-64"/>
      <path d="M 4.203125 54.6875 
L 13.1875 54.6875 
L 24.421875 12.015625 
L 35.59375 54.6875 
L 46.1875 54.6875 
L 57.421875 12.015625 
L 68.609375 54.6875 
L 77.59375 54.6875 
L 63.28125 0 
L 52.6875 0 
L 40.921875 44.828125 
L 29.109375 0 
L 18.5 0 
z
" id="DejaVuSans-77"/>
      <path d="M 34.28125 27.484375 
Q 23.390625 27.484375 19.1875 25 
Q 14.984375 22.515625 14.984375 16.5 
Q 14.984375 11.71875 18.140625 8.90625 
Q 21.296875 6.109375 26.703125 6.109375 
Q 34.1875 6.109375 38.703125 11.40625 
Q 43.21875 16.703125 43.21875 25.484375 
L 43.21875 27.484375 
z
M 52.203125 31.203125 
L 52.203125 0 
L 43.21875 0 
L 43.21875 8.296875 
Q 40.140625 3.328125 35.546875 0.953125 
Q 30.953125 -1.421875 24.3125 -1.421875 
Q 15.921875 -1.421875 10.953125 3.296875 
Q 6 8.015625 6 15.921875 
Q 6 25.140625 12.171875 29.828125 
Q 18.359375 34.515625 30.609375 34.515625 
L 43.21875 34.515625 
L 43.21875 35.40625 
Q 43.21875 41.609375 39.140625 45 
Q 35.0625 48.390625 27.6875 48.390625 
Q 23 48.390625 18.546875 47.265625 
Q 14.109375 46.140625 10.015625 43.890625 
L 10.015625 52.203125 
Q 14.9375 54.109375 19.578125 55.046875 
Q 24.21875 56 28.609375 56 
Q 40.484375 56 46.34375 49.84375 
Q 52.203125 43.703125 52.203125 31.203125 
" id="DejaVuSans-61"/>
      <path d="M 14.796875 27.296875 
Q 14.796875 17.390625 18.875 11.75 
Q 22.953125 6.109375 30.078125 6.109375 
Q 37.203125 6.109375 41.296875 11.75 
Q 45.40625 17.390625 45.40625 27.296875 
Q 45.40625 37.203125 41.296875 42.84375 
Q 37.203125 48.484375 30.078125 48.484375 
Q 22.953125 48.484375 18.875 42.84375 
Q 14.796875 37.203125 14.796875 27.296875 
M 45.40625 8.203125 
Q 42.578125 3.328125 38.25 0.953125 
Q 33.9375 -1.421875 27.875 -1.421875 
Q 17.96875 -1.421875 11.734375 6.484375 
Q 5.515625 14.40625 5.515625 27.296875 
Q 5.515625 40.1875 11.734375 48.09375 
Q 17.96875 56 27.875 56 
Q 33.9375 56 38.25 53.625 
Q 42.578125 51.265625 45.40625 46.390625 
L 45.40625 54.6875 
L 54.390625 54.6875 
L 54.390625 -20.796875 
L 45.40625 -20.796875 
z
" id="DejaVuSans-71"/>
      <path d="M 18.109375 8.203125 
L 18.109375 -20.796875 
L 9.078125 -20.796875 
L 9.078125 54.6875 
L 18.109375 54.6875 
L 18.109375 46.390625 
Q 20.953125 51.265625 25.265625 53.625 
Q 29.59375 56 35.59375 56 
Q 45.5625 56 51.78125 48.09375 
Q 58.015625 40.1875 58.015625 27.296875 
Q 58.015625 14.40625 51.78125 6.484375 
Q 45.5625 -1.421875 35.59375 -1.421875 
Q 29.59375 -1.421875 25.265625 0.953125 
Q 20.953125 3.328125 18.109375 8.203125 
M 48.6875 27.296875 
Q 48.6875 37.203125 44.609375 42.84375 
Q 40.53125 48.484375 33.40625 48.484375 
Q 26.265625 48.484375 22.1875 42.84375 
Q 18.109375 37.203125 18.109375 27.296875 
Q 18.109375 17.390625 22.1875 11.75 
Q 26.265625 6.109375 33.40625 6.109375 
Q 40.53125 6.109375 44.609375 11.75 
Q 48.6875 17.390625 48.6875 27.296875 
" id="DejaVuSans-70"/>
     </defs>
     <g transform="translate(25.432812 279.366281)rotate(-90)scale(0.1 -0.1)">
      <use xlink:href="#DejaVuSans-53"/>
      <use x="63.476562" xlink:href="#DejaVuSans-75"/>
      <use x="126.855469" xlink:href="#DejaVuSans-63"/>
      <use x="181.835938" xlink:href="#DejaVuSans-63"/>
      <use x="236.816406" xlink:href="#DejaVuSans-65"/>
      <use x="298.339844" xlink:href="#DejaVuSans-73"/>
      <use x="350.439453" xlink:href="#DejaVuSans-73"/>
      <use x="402.539062" xlink:href="#DejaVuSans-66"/>
      <use x="437.744141" xlink:href="#DejaVuSans-75"/>
      <use x="501.123047" xlink:href="#DejaVuSans-6c"/>
      <use x="528.90625" xlink:href="#DejaVuSans-20"/>
      <use x="560.693359" xlink:href="#DejaVuSans-64"/>
      <use x="624.169922" xlink:href="#DejaVuSans-6f"/>
      <use x="685.351562" xlink:href="#DejaVuSans-77"/>
      <use x="767.138672" xlink:href="#DejaVuSans-6e"/>
      <use x="830.517578" xlink:href="#DejaVuSans-6c"/>
      <use x="858.300781" xlink:href="#DejaVuSans-6f"/>
      <use x="919.482422" xlink:href="#DejaVuSans-61"/>
      <use x="980.761719" xlink:href="#DejaVuSans-64"/>
      <use x="1044.238281" xlink:href="#DejaVuSans-20"/>
      <use x="1076.025391" xlink:href="#DejaVuSans-72"/>
      <use x="1117.107422" xlink:href="#DejaVuSans-65"/>
      <use x="1178.630859" xlink:href="#DejaVuSans-71"/>
      <use x="1242.107422" xlink:href="#DejaVuSans-75"/>
      <use x="1305.486328" xlink:href="#DejaVuSans-65"/>
      <use x="1367.009766" xlink:href="#DejaVuSans-73"/>
      <use x="1419.109375" xlink:href="#DejaVuSans-74"/>
      <use x="1458.318359" xlink:href="#DejaVuSans-73"/>
      <use x="1510.417969" xlink:href="#DejaVuSans-20"/>
      <use x="1542.205078" xlink:href="#DejaVuSans-70"/>
      <use x="1605.681641" xlink:href="#DejaVuSans-65"/>
      <use x="1667.205078" xlink:href="#DejaVuSans-72"/>
      <use x="1708.318359" xlink:href="#DejaVuSans-20"/>
      <use x="1740.105469" xlink:href="#DejaVuSans-73"/>
      <use x="1792.205078" xlink:href="#DejaVuSans-65"/>
      <use x="1853.728516" xlink:href="#DejaVuSans-63"/>
      <use x="1908.708984" xlink:href="#DejaVuSans-6f"/>
      <use x="1969.890625" xlink:href="#DejaVuSans-6e"/>
      <use x="2033.269531" xlink:href="#DejaVuSans-64"/>
     </g>
    </g>
   </g>
   <g id="line2d_29">
    <path clip-path="url(#p695b24c9b1)" d="M 57.6 295.488 
L 57.95712 295.485331 
L 61.88544 288.15792 
L 62.24256 288.019793 
L 62.59968 286.822691 
L 62.9568 286.683229 
L 63.31392 285.62292 
L 64.02816 284.89892 
L 64.38528 283.555017 
L 64.7424 283.688473 
L 65.45664 282.060975 
L 65.81376 280.786468 
L 66.17088 280.466174 
L 66.88512 279.461249 
L 67.24224 279.147627 
L 67.59936 278.661179 
L 67.95648 277.773695 
L 68.3136 277.253216 
L 68.67072 275.463569 
L 69.02784 275.685106 
L 69.38496 275.118585 
L 70.0992 272.811128 
L 70.45632 272.446125 
L 70.81344 272.376061 
L 71.8848 270.148677 
L 72.24192 270.063933 
L 72.59904 268.834134 
L 72.95616 268.509836 
L 73.31328 267.900608 
L 73.6704 266.524008 
L 74.02752 267.482223 
L 74.74176 264.483463 
L 75.09888 264.30997 
L 75.456 264.741701 
L 76.17024 261.898417 
L 76.52736 263.15424 
L 77.2416 259.916593 
L 77.59872 260.922185 
L 77.95584 258.709482 
L 78.31296 257.727912 
L 78.67008 259.422138 
L 79.0272 258.699473 
L 79.38432 256.001656 
L 79.74144 255.140864 
L 80.09856 256.363322 
L 80.45568 254.934007 
L 80.8128 254.688448 
L 81.16992 254.661756 
L 81.88416 251.324685 
L 82.24128 251.490838 
L 82.5984 250.435867 
L 82.95552 250.028158 
L 83.31264 250.613363 
L 83.66976 247.785427 
L 84.02688 247.316996 
L 84.384 248.297232 
L 84.74112 246.676406 
L 85.09824 247.65464 
L 85.45536 246.20931 
L 86.1696 244.98952 
L 86.88384 244.775991 
L 87.24096 241.792578 
L 87.59808 242.162252 
L 87.9552 243.322653 
L 88.31232 242.263678 
L 88.66944 238.951296 
L 89.02656 241.397548 
L 89.38368 239.399709 
L 89.7408 240.161744 
L 90.09792 236.296853 
L 90.45504 237.913007 
L 90.81216 235.369333 
L 91.5264 235.997244 
L 91.88352 232.275151 
L 92.24064 233.232032 
L 92.59776 232.50603 
L 92.95488 232.245124 
L 93.312 231.090728 
L 93.66912 228.86935 
L 94.02624 229.351794 
L 94.38336 228.495005 
L 94.74048 231.491764 
L 95.0976 230.796457 
L 95.45472 226.466472 
L 95.81184 225.26937 
L 96.16896 228.027241 
L 96.52608 225.864584 
L 96.8832 225.810535 
L 97.24032 226.846154 
L 97.59744 223.794679 
L 98.31168 221.53927 
L 98.6688 221.718101 
L 99.02592 219.288532 
L 99.38304 221.063499 
L 99.74016 221.866237 
L 100.09728 219.030294 
L 100.4544 217.249989 
L 100.81152 220.187359 
L 101.16864 214.813079 
L 101.52576 215.387608 
L 101.88288 217.424149 
L 102.24 214.436733 
L 102.59712 214.33664 
L 102.95424 213.473846 
L 103.31136 214.227874 
L 103.66848 215.402288 
L 104.0256 214.782384 
L 105.09696 208.718136 
L 105.45408 209.845173 
L 105.8112 210.34897 
L 106.16832 208.093561 
L 106.52544 207.779272 
L 106.88256 208.720138 
L 107.5968 202.83005 
L 107.95392 203.61277 
L 108.31104 201.881844 
L 108.66816 203.763576 
L 109.02528 201.247259 
L 109.3824 201.388056 
L 109.73952 202.916796 
L 110.09664 201.20055 
L 110.45376 203.776254 
L 110.81088 199.30347 
L 111.168 201.007706 
L 111.88224 196.246657 
L 112.23936 196.983335 
L 112.59648 200.126228 
L 112.9536 199.401561 
L 113.31072 196.416813 
L 113.66784 198.021624 
L 114.02496 193.817087 
L 114.38208 195.360508 
L 114.7392 196.169252 
L 115.09632 195.665455 
L 115.45344 194.118031 
L 115.81056 193.518813 
L 116.16768 191.456915 
L 116.5248 186.89605 
L 116.88192 189.552495 
L 117.95328 184.445128 
L 118.3104 186.793956 
L 118.66752 184.761419 
L 119.02464 186.078631 
L 119.38176 183.216664 
L 119.73888 185.319266 
L 120.096 183.088546 
L 120.81024 180.672322 
L 121.16736 181.233505 
L 121.52448 177.494731 
L 121.8816 177.622181 
L 122.23872 177.187114 
L 122.59584 181.89745 
L 122.95296 181.187463 
L 123.31008 176.391715 
L 123.6672 182.597427 
L 124.02432 175.24466 
L 124.38144 174.991093 
L 124.73856 179.812864 
L 125.09568 179.685414 
L 125.4528 175.399469 
L 125.80992 180.09112 
L 126.16704 174.536007 
L 126.52416 177.846388 
L 126.88128 174.020867 
L 127.2384 176.042728 
L 127.59552 179.158262 
L 127.95264 176.882167 
L 128.30976 177.948482 
L 128.66688 177.40398 
L 129.024 176.27761 
L 129.38112 171.669369 
L 129.73824 177.121721 
L 130.09536 171.648016 
L 130.45248 169.822336 
L 130.8096 174.038883 
L 131.16672 170.6531 
L 131.52384 170.715825 
L 131.88096 175.719764 
L 132.23808 169.2765 
L 132.5952 174.608074 
L 132.95232 171.503883 
L 133.30944 172.365343 
L 133.66656 168.105422 
L 134.02368 171.898913 
L 134.3808 168.615224 
L 134.73792 174.725515 
L 135.09504 168.963545 
L 135.45216 173.839366 
L 135.80928 173.685224 
L 136.1664 168.828754 
L 136.52352 165.896722 
L 136.88064 171.77213 
L 137.23776 166.517961 
L 137.59488 170.161981 
L 137.952 168.867457 
L 138.30912 168.564511 
L 138.66624 169.947784 
L 139.02336 163.424447 
L 139.38048 162.80521 
L 139.7376 164.83708 
L 140.09472 169.627489 
L 140.45184 167.206595 
L 140.80896 162.942003 
L 141.16608 166.439222 
L 141.5232 161.205071 
L 141.88032 161.314505 
L 142.23744 161.938412 
L 142.59456 169.431976 
L 142.95168 164.856431 
L 143.3088 163.682017 
L 143.66592 167.848519 
L 144.02304 160.347615 
L 144.38016 165.352221 
L 144.73728 164.522124 
L 145.0944 163.122169 
L 145.45152 165.82866 
L 145.80864 161.181716 
L 146.16576 165.27148 
L 146.52288 161.251113 
L 146.88 161.064274 
L 147.23712 163.593269 
L 147.59424 158.567977 
L 147.95136 158.77083 
L 148.30848 158.202974 
L 148.6656 156.438684 
L 149.02272 162.649734 
L 149.37984 158.088202 
L 149.73696 157.589743 
L 150.09408 163.255625 
L 150.4512 160.316253 
L 150.80832 159.862502 
L 151.16544 161.827644 
L 151.52256 155.499152 
L 151.87968 160.280887 
L 152.2368 157.358197 
L 152.59392 157.880678 
L 152.95104 160.244854 
L 153.30816 160.946166 
L 153.66528 155.272944 
L 154.0224 155.780077 
L 154.37952 161.963769 
L 154.73664 158.082864 
L 155.09376 156.259185 
L 155.45088 158.534613 
L 155.808 155.169516 
L 156.16512 158.862915 
L 156.52224 152.890084 
L 156.87936 151.009687 
L 157.23648 159.800445 
L 157.5936 151.397377 
L 157.95072 153.770228 
L 158.30784 155.260933 
L 158.66496 154.728443 
L 159.02208 159.44078 
L 159.3792 152.993513 
L 159.73632 150.440496 
L 160.09344 159.017724 
L 160.45056 158.22366 
L 160.80768 158.069518 
L 161.1648 151.142476 
L 161.52192 150.88624 
L 161.87904 148.90575 
L 162.23616 148.720913 
L 162.59328 154.141903 
L 162.9504 156.491399 
L 163.30752 148.556095 
L 163.66464 155.939558 
L 164.02176 156.187786 
L 164.37888 156.018297 
L 164.736 148.113688 
L 165.09312 147.481773 
L 165.45024 147.565183 
L 165.80736 148.104346 
L 166.16448 146.732417 
L 166.5216 153.402556 
L 167.23584 147.621235 
L 167.59296 150.327058 
L 167.95008 149.709824 
L 168.3072 148.580117 
L 168.66432 150.361757 
L 169.02144 145.459245 
L 169.37856 151.867143 
L 170.0928 142.986302 
L 170.44992 152.944134 
L 170.80704 151.761045 
L 171.16416 152.504396 
L 171.52128 149.09726 
L 171.8784 141.878616 
L 172.23552 152.328901 
L 172.59264 150.556603 
L 172.94976 151.763047 
L 173.30688 144.828664 
L 173.664 141.573668 
L 174.02112 146.087156 
L 174.37824 148.093669 
L 174.73536 146.776457 
L 175.09248 144.047278 
L 175.4496 146.696383 
L 175.80672 140.059608 
L 176.16384 150.218959 
L 176.52096 140.978454 
L 177.2352 142.863522 
L 177.59232 142.195574 
L 177.94944 144.950109 
L 178.30656 149.171995 
L 178.66368 145.466585 
L 179.0208 143.061037 
L 179.37792 143.503445 
L 179.73504 138.823804 
L 180.09216 139.474403 
L 180.44928 137.075528 
L 180.8064 142.836164 
L 181.16352 145.853608 
L 181.52064 140.984459 
L 181.87776 142.419113 
L 182.592 145.828251 
L 182.94912 145.354482 
L 183.30624 142.349049 
L 183.66336 143.584186 
L 184.02048 139.80404 
L 184.3776 138.71437 
L 184.73472 142.054111 
L 185.09184 139.664578 
L 185.44896 134.981601 
L 185.80608 142.335703 
L 186.1632 135.170441 
L 186.87744 138.42477 
L 187.23456 139.91681 
L 187.59168 137.704774 
L 187.9488 139.417684 
L 188.30592 137.144258 
L 188.66304 143.109749 
L 189.02016 142.08614 
L 189.7344 135.518762 
L 190.09152 134.14016 
L 190.44864 140.197735 
L 190.80576 131.824695 
L 191.16288 133.843887 
L 191.52 137.463218 
L 191.87712 131.721934 
L 192.23424 136.563724 
L 192.59136 138.322009 
L 192.94848 133.400145 
L 193.3056 131.454354 
L 193.66272 139.379649 
L 194.01984 139.591177 
L 194.37696 130.221887 
L 194.73408 132.385878 
L 195.0912 140.010897 
L 195.44832 133.549616 
L 195.80544 130.340663 
L 196.16256 130.325315 
L 196.51968 137.174286 
L 197.23392 132.376537 
L 197.59104 136.426931 
L 197.94816 138.766418 
L 198.30528 130.070414 
L 198.6624 131.205459 
L 199.01952 136.633788 
L 199.37664 133.85056 
L 199.73376 137.316417 
L 200.09088 130.070414 
L 200.448 131.166756 
L 200.80512 135.307901 
L 201.51936 128.745861 
L 201.87648 135.343267 
L 202.2336 133.244002 
L 202.59072 126.805409 
L 202.94784 133.363445 
L 203.30496 127.343904 
L 203.66208 127.471355 
L 204.0192 134.891518 
L 204.73344 133.542276 
L 205.09056 126.978235 
L 205.44768 135.562135 
L 205.8048 125.829844 
L 206.16192 125.430143 
L 206.51904 125.609642 
L 206.87616 125.113185 
L 207.23328 131.151409 
L 207.5904 127.729593 
L 207.94752 123.233454 
L 208.30464 127.61482 
L 208.66176 130.000349 
L 209.01888 123.549746 
L 209.376 132.328492 
L 209.73312 128.47628 
L 210.09024 131.960153 
L 210.44736 126.453084 
L 210.80448 124.284422 
L 211.1616 127.5928 
L 211.51872 129.132217 
L 211.87584 128.125958 
L 212.23296 124.995743 
L 212.59008 125.163231 
L 212.9472 124.33647 
L 213.30432 124.283754 
L 213.66144 130.057068 
L 214.01856 130.589558 
L 214.37568 124.436562 
L 214.7328 128.918687 
L 215.08992 129.552604 
L 215.44704 127.070319 
L 215.80416 126.664613 
L 216.16128 122.8124 
L 216.5184 120.913986 
L 216.87552 128.029202 
L 217.23264 128.059897 
L 217.58976 124.831592 
L 217.94688 128.745861 
L 218.304 118.681932 
L 218.66112 121.401101 
L 219.01824 119.893047 
L 219.37536 129.407137 
L 219.73248 128.967399 
L 220.0896 118.409014 
L 220.44672 126.972229 
L 220.80384 128.701154 
L 221.16096 121.543232 
L 221.51808 120.833245 
L 221.8752 117.179215 
L 222.23232 118.491757 
L 222.58944 124.231039 
L 222.94656 124.431224 
L 223.30368 124.026184 
L 223.6608 124.707478 
L 224.37504 119.277814 
L 224.73216 122.783707 
L 225.08928 120.653079 
L 225.4464 122.251217 
L 225.80352 118.186809 
L 226.16064 125.342062 
L 226.51776 122.622892 
L 226.87488 114.933148 
L 227.232 121.59528 
L 227.58912 115.474313 
L 227.94624 117.578249 
L 228.30336 114.140418 
L 228.66048 114.367961 
L 229.0176 124.274413 
L 229.37472 115.056595 
L 230.08896 118.765342 
L 230.44608 117.266629 
L 230.8032 112.679741 
L 231.16032 124.066221 
L 231.51744 119.517367 
L 231.87456 112.769824 
L 232.23168 120.510281 
L 232.5888 122.364655 
L 232.94592 115.629789 
L 233.30304 119.553401 
L 233.66016 113.116142 
L 234.01728 116.008805 
L 234.3744 114.874427 
L 234.73152 116.904296 
L 235.08864 120.691782 
L 235.44576 111.879004 
L 235.80288 116.150268 
L 236.16 114.45404 
L 237.23136 120.247373 
L 237.58848 114.436691 
L 237.9456 118.890791 
L 238.30272 112.743132 
L 238.65984 114.401992 
L 239.01696 115.527028 
L 239.37408 114.752982 
L 239.7312 121.483844 
L 240.08832 118.389663 
L 240.44544 109.494142 
L 241.15968 113.726037 
L 241.5168 114.741638 
L 241.87392 119.265803 
L 242.58816 110.376954 
L 242.94528 118.940837 
L 243.3024 115.785933 
L 243.65952 119.894381 
L 244.01664 118.882783 
L 244.73088 108.735444 
L 245.088 113.980938 
L 245.44512 111.754222 
L 245.80224 107.861306 
L 246.15936 108.714758 
L 246.51648 116.216329 
L 246.8736 118.890791 
L 247.23072 111.297802 
L 247.58784 110.623181 
L 247.94496 117.055101 
L 248.30208 117.707702 
L 248.6592 111.764899 
L 249.01632 111.250425 
L 249.37344 106.393955 
L 249.73056 114.833723 
L 250.80192 110.365611 
L 251.15904 109.51416 
L 251.51616 106.965148 
L 251.87328 110.555786 
L 252.2304 109.905854 
L 252.58752 115.272127 
L 252.94464 106.038294 
L 253.30176 103.11427 
L 253.65888 103.080238 
L 254.016 115.102637 
L 254.37312 109.228564 
L 254.73024 111.327162 
L 255.44448 108.071499 
L 255.8016 108.328402 
L 256.15872 111.005533 
L 256.51584 102.465673 
L 256.87296 107.484292 
L 257.23008 108.47854 
L 257.5872 103.313787 
L 257.94432 114.291224 
L 258.30144 113.805443 
L 258.65856 112.090532 
L 259.01568 102.910082 
L 259.3728 110.007948 
L 259.72992 109.916531 
L 260.08704 113.276957 
L 260.44416 103.716157 
L 260.80128 103.16832 
L 261.1584 106.161741 
L 261.51552 102.00258 
L 261.87264 101.041695 
L 262.22976 102.609805 
L 262.58688 109.89451 
L 262.944 110.287539 
L 263.30112 101.969216 
L 263.65824 105.11678 
L 264.01536 102.940777 
L 264.37248 104.96197 
L 264.7296 105.68597 
L 265.08672 105.111441 
L 265.44384 106.170416 
L 265.80096 110.569131 
L 266.15808 100.710057 
L 266.5152 106.748949 
L 266.87232 98.79029 
L 267.22944 102.725245 
L 267.58656 108.417151 
L 267.94368 106.648189 
L 268.3008 105.600558 
L 268.65792 108.354426 
L 269.01504 97.98288 
L 269.37216 100.750094 
L 269.72928 97.868775 
L 270.0864 104.089167 
L 270.44352 100.690038 
L 270.80064 101.80373 
L 271.15776 109.327989 
L 271.51488 106.276514 
L 271.872 105.252905 
L 272.22912 107.46761 
L 272.58624 108.787491 
L 272.94336 102.976143 
L 273.6576 107.725848 
L 274.01472 96.97929 
L 274.37184 95.412514 
L 274.72896 103.140961 
L 275.08608 100.914245 
L 275.4432 100.940936 
L 275.80032 105.838777 
L 276.15744 106.279183 
L 276.51456 102.325544 
L 276.87168 103.768872 
L 277.2288 99.228693 
L 277.58592 107.626423 
L 277.94304 105.789399 
L 278.30016 98.251127 
L 278.65728 93.895118 
L 279.0144 97.697951 
L 279.37152 104.119862 
L 279.72864 95.296407 
L 280.08576 97.714633 
L 280.44288 103.210358 
L 280.8 94.199398 
L 281.15712 99.301427 
L 281.51424 106.592138 
L 281.87136 94.399582 
L 282.22848 106.30921 
L 282.5856 92.657979 
L 282.94272 100.321699 
L 283.29984 95.291736 
L 283.65696 94.864677 
L 284.01408 103.275752 
L 284.3712 91.616354 
L 284.72832 100.438474 
L 285.08544 98.49335 
L 285.44256 102.749934 
L 286.1568 96.586261 
L 286.51392 95.886951 
L 286.87104 96.771098 
L 287.22816 98.895053 
L 287.58528 102.765949 
L 287.9424 92.392401 
L 288.29952 96.72639 
L 288.65664 96.503518 
L 289.01376 98.476001 
L 289.37088 97.342958 
L 289.728 103.327132 
L 290.08512 103.108264 
L 290.44224 101.817743 
L 290.79936 96.453472 
L 291.15648 94.751239 
L 291.5136 89.798013 
L 291.87072 93.767667 
L 292.22784 100.750094 
L 292.58496 102.347564 
L 292.94208 99.976715 
L 293.2992 91.082529 
L 293.65632 97.542475 
L 294.01344 90.546035 
L 294.37056 97.669925 
L 294.72768 95.129587 
L 295.0848 91.010463 
L 295.44192 91.20998 
L 295.79904 101.289924 
L 296.15616 91.171945 
L 296.51328 98.967119 
L 296.8704 97.89947 
L 297.22752 98.705545 
L 297.58464 94.133337 
L 297.94176 94.543047 
L 298.29888 99.121261 
L 298.656 94.880024 
L 299.01312 86.960735 
L 299.37024 96.276643 
L 299.72736 92.792102 
L 300.08448 99.502946 
L 300.79872 91.789847 
L 301.15584 95.490586 
L 301.51296 88.913199 
L 301.87008 85.738277 
L 302.2272 97.994224 
L 302.58432 99.003153 
L 302.94144 92.54721 
L 303.29856 95.848249 
L 303.65568 87.547942 
L 304.0128 88.051072 
L 304.36992 96.409432 
L 304.72704 97.022663 
L 305.08416 85.603486 
L 305.44128 86.968743 
L 305.7984 98.733571 
L 306.15552 92.350363 
L 306.51264 90.331838 
L 306.86976 84.978911 
L 307.22688 84.651943 
L 307.584 93.127745 
L 307.94112 97.783363 
L 308.29824 85.578797 
L 309.01248 94.71921 
L 309.3696 96.474158 
L 309.72672 83.121201 
L 310.08384 87.638692 
L 310.44096 84.02203 
L 310.79808 96.539552 
L 311.1552 92.790101 
L 311.51232 96.094475 
L 311.86944 87.047482 
L 312.22656 92.633957 
L 312.58368 83.229968 
L 312.9408 95.73014 
L 313.29792 92.479815 
L 313.65504 84.730015 
L 314.01216 94.213411 
L 314.36928 94.4196 
L 314.7264 88.707009 
L 315.08352 86.892005 
L 315.44064 84.154819 
L 315.79776 94.735892 
L 316.15488 93.05768 
L 316.512 83.448836 
L 316.86912 82.77555 
L 317.22624 86.576381 
L 317.58336 85.889082 
L 317.94048 82.780221 
L 318.2976 93.976526 
L 318.65472 84.566531 
L 319.01184 93.639549 
L 319.36896 81.64184 
L 319.72608 92.043413 
L 320.0832 90.006872 
L 320.44032 83.791151 
L 320.79744 80.517471 
L 321.15456 88.88851 
L 321.51168 81.643841 
L 321.8688 80.785051 
L 322.22592 90.312487 
L 322.58304 82.646097 
L 322.94016 89.334253 
L 323.29728 80.271245 
L 323.6544 90.170356 
L 324.01152 85.313886 
L 324.36864 89.788004 
L 324.72576 81.120026 
L 325.08288 86.651784 
L 325.44 77.545402 
L 325.79712 78.4122 
L 326.51136 82.846281 
L 327.2256 82.027528 
L 327.58272 82.746857 
L 328.29696 90.763569 
L 328.65408 77.590778 
L 329.0112 89.292214 
L 329.36832 78.183323 
L 329.72544 76.655917 
L 330.08256 76.667261 
L 330.43968 78.297428 
L 330.7968 88.842467 
L 331.15392 89.123392 
L 331.51104 76.222185 
L 331.86816 75.570251 
L 332.22528 85.301875 
L 332.5824 75.904559 
L 332.93952 89.930802 
L 333.29664 82.585375 
L 333.65376 86.194029 
L 334.01088 79.443816 
L 334.368 77.475338 
L 334.72512 76.420367 
L 335.08224 85.014277 
L 335.43936 77.815651 
L 335.79648 84.757374 
L 336.1536 85.988507 
L 336.51072 82.107602 
L 336.86784 79.964296 
L 337.22496 86.159331 
L 337.58208 79.750766 
L 337.9392 78.756517 
L 338.29632 79.880218 
L 338.65344 83.048468 
L 339.01056 80.604218 
L 339.36768 81.122695 
L 339.7248 76.505112 
L 340.08192 77.225775 
L 340.43904 85.38662 
L 340.79616 80.327296 
L 341.15328 80.285258 
L 341.5104 77.409944 
L 341.86752 78.446899 
L 342.22464 74.549979 
L 342.58176 86.825944 
L 342.93888 80.420716 
L 343.296 80.410706 
L 343.65312 85.235814 
L 344.01024 77.439305 
L 344.36736 77.412614 
L 344.72448 75.673012 
L 345.0816 71.824804 
L 345.43872 80.418714 
L 345.79584 80.127112 
L 346.15296 81.583119 
L 346.51008 84.506476 
L 346.8672 86.029211 
L 347.58144 74.831571 
L 347.93856 83.725758 
L 348.29568 84.225551 
L 349.00992 71.378393 
L 349.36704 76.428374 
L 349.72416 72.400667 
L 350.08128 70.728461 
L 350.4384 73.648482 
L 350.79552 83.781142 
L 351.15264 69.999791 
L 351.50976 76.206837 
L 351.86688 78.77053 
L 352.224 69.762906 
L 352.58112 80.140458 
L 352.93824 73.557065 
L 353.29536 76.331619 
L 353.65248 83.211951 
L 354.36672 71.42577 
L 354.72384 75.160541 
L 355.08096 74.915649 
L 355.43808 74.973035 
L 356.15232 79.397774 
L 356.50944 83.097846 
L 356.86656 70.494913 
L 357.22368 81.098006 
L 357.5808 67.971257 
L 357.93792 76.279571 
L 358.29504 73.140014 
L 358.65216 80.674282 
L 359.00928 69.670154 
L 359.3664 73.54105 
L 360.08064 74.89563 
L 360.43776 67.431427 
L 360.79488 75.113164 
L 361.152 71.369051 
L 361.50912 72.745651 
L 361.86624 71.343694 
L 362.22336 71.452461 
L 362.58048 74.02216 
L 363.29472 71.649976 
L 363.65184 68.682578 
L 364.00896 77.848348 
L 364.36608 66.078181 
L 364.7232 67.073097 
L 365.08032 77.315191 
L 365.43744 78.687787 
L 365.79456 75.345378 
L 366.15168 79.54591 
L 366.5088 65.240744 
L 366.86592 69.343854 
L 367.22304 71.072778 
L 367.58016 65.049234 
L 367.93728 80.931853 
L 368.65152 74.34112 
L 369.00864 64.839041 
L 369.36576 71.35704 
L 369.72288 75.640983 
L 370.08 72.801036 
L 370.43712 72.850414 
L 370.79424 79.822832 
L 371.15136 67.811777 
L 371.50848 73.568409 
L 371.8656 72.805039 
L 372.57984 76.928168 
L 372.93696 69.192381 
L 373.29408 72.941832 
L 373.6512 65.409566 
L 374.00832 74.31643 
L 374.36544 74.629385 
L 374.72256 75.367398 
L 375.07968 72.692269 
L 375.4368 63.281607 
L 375.79392 77.161049 
L 376.15104 63.982919 
L 376.50816 63.050061 
L 377.2224 67.715688 
L 377.57952 71.240266 
L 377.93664 72.899126 
L 378.29376 64.458023 
L 378.65088 65.951398 
L 379.008 74.749496 
L 379.36512 76.774693 
L 379.72224 63.19753 
L 380.07936 68.24284 
L 380.43648 75.594273 
L 380.7936 73.627129 
L 381.15072 74.241695 
L 381.50784 64.882414 
L 381.86496 65.411568 
L 382.22208 64.080342 
L 382.5792 68.614516 
L 383.29344 60.772631 
L 383.65056 71.218913 
L 384.00768 66.27236 
L 384.3648 70.751816 
L 384.72192 61.869641 
L 385.07904 65.475627 
L 385.43616 73.945422 
L 385.79328 68.495072 
L 386.1504 59.86246 
L 386.50752 70.112561 
L 386.86464 68.860742 
L 387.22176 59.803739 
L 387.936 73.938082 
L 388.29312 73.697861 
L 388.65024 74.221677 
L 389.00736 63.571874 
L 389.36448 59.059721 
L 389.7216 66.274362 
L 390.07872 58.767452 
L 390.43584 72.341279 
L 390.79296 72.317257 
L 391.15008 69.813619 
L 391.5072 73.119329 
L 391.86432 59.054383 
L 392.22144 73.872689 
L 392.57856 60.380937 
L 392.93568 62.754455 
L 393.2928 63.728685 
L 393.64992 60.832019 
L 394.00704 66.130896 
L 394.36416 62.130548 
L 394.72128 65.629768 
L 395.0784 59.854453 
L 395.43552 60.128705 
L 395.79264 66.157588 
L 396.14976 69.4306 
L 396.50688 60.919433 
L 396.864 70.524273 
L 397.22112 58.571272 
L 397.57824 71.083455 
L 397.93536 66.18161 
L 398.29248 70.889276 
L 398.6496 62.039798 
L 399.00672 64.567457 
L 399.36384 63.08209 
L 399.72096 66.16693 
L 400.07808 66.110211 
L 400.4352 57.377506 
L 401.14944 69.862998 
L 401.50656 67.097786 
L 401.86368 61.87231 
L 402.2208 63.314304 
L 402.57792 71.229589 
L 402.93504 56.136364 
L 403.29216 71.915554 
L 403.64928 71.070109 
L 404.0064 71.489162 
L 404.36352 70.811872 
L 404.72064 61.382526 
L 405.07776 55.512456 
L 405.43488 57.600378 
L 405.792 65.204711 
L 406.14912 58.80482 
L 406.50624 55.159465 
L 406.86336 66.734118 
L 407.22048 68.170774 
L 407.5776 56.340552 
L 407.93472 55.198167 
L 408.29184 62.550935 
L 408.64896 59.340647 
L 409.00608 64.562786 
L 409.3632 56.953783 
L 409.72032 60.03929 
L 410.07744 56.568762 
L 410.43456 56.189079 
L 410.79168 54.516873 
L 411.1488 63.254249 
L 411.50592 61.890327 
L 411.86304 68.577148 
L 412.22016 56.179737 
L 412.57728 53.568 
L 412.9344 65.406897 
L 413.29152 58.330383 
L 413.64864 56.006911 
L 414.00576 68.747305 
L 414.72 56.984478 
L 414.72 56.984478 
" style="fill:none;stroke:#000080;stroke-linecap:square;stroke-width:0.5;"/>
   </g>
   <g id="patch_3">
    <path d="M 57.6 307.584 
L 57.6 41.472 
" style="fill:none;stroke:#000000;stroke-linecap:square;stroke-linejoin:miter;stroke-width:0.8;"/>
   </g>
   <g id="patch_4">
    <path d="M 414.72 307.584 
L 414.72 41.472 
" style="fill:none;stroke:#000000;stroke-linecap:square;stroke-linejoin:miter;stroke-width:0.8;"/>
   </g>
   <g id="patch_5">
    <path d="M 57.6 307.584 
L 414.72 307.584 
" style="fill:none;stroke:#000000;stroke-linecap:square;stroke-linejoin:miter;stroke-width:0.8;"/>
   </g>
   <g id="patch_6">
    <path d="M 57.6 41.472 
L 414.72 41.472 
" style="fill:none;stroke:#000000;stroke-linecap:square;stroke-linejoin:miter;stroke-width:0.8;"/>
   </g>
   <g id="text_17">
    <!-- Test -->
    <defs>
     <path d="M -0.296875 72.90625 
L 61.375 72.90625 
L 61.375 64.59375 
L 35.5 64.59375 
L 35.5 0 
L 25.59375 0 
L 25.59375 64.59375 
L -0.296875 64.59375 
z
" id="DejaVuSans-54"/>
    </defs>
    <g transform="translate(223.341563 35.472)scale(0.12 -0.12)">
     <use xlink:href="#DejaVuSans-54"/>
     <use x="60.818359" xlink:href="#DejaVuSans-65"/>
     <use x="122.341797" xlink:href="#DejaVuSans-73"/>
     <use x="174.441406" xlink:href="#DejaVuSans-74"/>
    </g>
   </g>
   <g id="legend_1">
    <g id="patch_7">
     <path d="M 64.6 64.150125 
L 306.276563 64.150125 
Q 308.276563 64.150125 308.276563 62.150125 
L 308.276563 48.472 
Q 308.276563 46.472 306.276563 46.472 
L 64.6 46.472 
Q 62.6 46.472 62.6 48.472 
L 62.6 62.150125 
Q 62.6 64.150125 64.6 64.150125 
z
" style="fill:#ffffff;opacity:0.8;stroke:#cccccc;stroke-linejoin:miter;"/>
    </g>
    <g id="line2d_30">
     <path d="M 66.6 54.570438 
L 86.6 54.570438 
" style="fill:none;stroke:#000080;stroke-linecap:square;stroke-width:0.5;"/>
    </g>
    <g id="line2d_31"/>
    <g id="text_18">
     <!-- Successful download requests per second -->
     <g transform="translate(94.6 58.070438)scale(0.1 -0.1)">
      <use xlink:href="#DejaVuSans-53"/>
      <use x="63.476562" xlink:href="#DejaVuSans-75"/>
      <use x="126.855469" xlink:href="#DejaVuSans-63"/>
      <use x="181.835938" xlink:href="#DejaVuSans-63"/>
      <use x="236.816406" xlink:href="#DejaVuSans-65"/>
      <use x="298.339844" xlink:href="#DejaVuSans-73"/>
      <use x="350.439453" xlink:href="#DejaVuSans-73"/>
      <use x="402.539062" xlink:href="#DejaVuSans-66"/>
      <use x="437.744141" xlink:href="#DejaVuSans-75"/>
      <use x="501.123047" xlink:href="#DejaVuSans-6c"/>
      <use x="528.90625" xlink:href="#DejaVuSans-20"/>
      <use x="560.693359" xlink:href="#DejaVuSans-64"/>
      <use x="624.169922" xlink:href="#DejaVuSans-6f"/>
      <use x="685.351562" xlink:href="#DejaVuSans-77"/>
      <use x="767.138672" xlink:href="#DejaVuSans-6e"/>
      <use x="830.517578" xlink:href="#DejaVuSans-6c"/>
      <use x="858.300781" xlink:href="#DejaVuSans-6f"/>
      <use x="919.482422" xlink:href="#DejaVuSans-61"/>
      <use x="980.761719" xlink:href="#DejaVuSans-64"/>
      <use x="1044.238281" xlink:href="#DejaVuSans-20"/>
      <use x="1076.025391" xlink:href="#DejaVuSans-72"/>
      <use x="1117.107422" xlink:href="#DejaVuSans-65"/>
      <use x="1178.630859" xlink:href="#DejaVuSans-71"/>
      <use x="1242.107422" xlink:href="#DejaVuSans-75"/>
      <use x="1305.486328" xlink:href="#DejaVuSans-65"/>
      <use x="1367.009766" xlink:href="#DejaVuSans-73"/>
      <use x="1419.109375" xlink:href="#DejaVuSans-74"/>
      <use x="1458.318359" xlink:href="#DejaVuSans-73"/>
      <use x="1510.417969" xlink:href="#DejaVuSans-20"/>
      <use x="1542.205078" xlink:href="#DejaVuSans-70"/>
      <use x="1605.681641" xlink:href="#DejaVuSans-65"/>
      <use x="1667.205078" xlink:href="#DejaVuSans-72"/>
      <use x="1708.318359" xlink:href="#DejaVuSans-20"/>
      <use x="1740.105469" xlink:href="#DejaVuSans-73"/>
      <use x="1792.205078" xlink:href="#DejaVuSans-65"/>
      <use x="1853.728516" xlink:href="#DejaVuSans-63"/>
      <use x="1908.708984" xlink:href="#DejaVuSans-6f"/>
      <use x="1969.890625" xlink:href="#DejaVuSans-6e"/>
      <use x="2033.269531" xlink:href="#DejaVuSans-64"/>
     </g>
    </g>
   </g>
  </g>
 </g>
 <defs>
  <clipPath id="p695b24c9b1">
   <rect height="266.112" width="357.12" x="57.6" y="41.472"/>
  </clipPath>
 </defs>
</svg>
