<?xml version="1.0" encoding="utf-8" standalone="no"?>
<!DOCTYPE svg PUBLIC "-//W3C//DTD SVG 1.1//EN"
  "http://www.w3.org/Graphics/SVG/1.1/DTD/svg11.dtd">
<!-- Created with matplotlib (http://matplotlib.org/) -->
<svg height="345pt" version="1.1" viewBox="0 0 460 345" width="460pt" xmlns="http://www.w3.org/2000/svg" xmlns:xlink="http://www.w3.org/1999/xlink">
 <defs>
  <style type="text/css">
*{stroke-linecap:butt;stroke-linejoin:round;}
  </style>
 </defs>
 <g id="figure_1">
  <g id="patch_1">
   <path d="M 0 345.6 
L 460.8 345.6 
L 460.8 0 
L 0 0 
z
" style="fill:#ffffff;"/>
  </g>
  <g id="axes_1">
   <g id="patch_2">
    <path d="M 57.6 307.584 
L 414.72 307.584 
L 414.72 41.472 
L 57.6 41.472 
z
" style="fill:#ffffff;"/>
   </g>
   <g id="matplotlib.axis_1">
    <g id="xtick_1">
     <g id="line2d_1">
      <path clip-path="url(#pb2fc1fd475)" d="M 57.6 307.584 
L 57.6 41.472 
" style="fill:none;stroke:#b0b0b0;stroke-linecap:square;stroke-width:0.8;"/>
     </g>
     <g id="line2d_2">
      <defs>
       <path d="M 0 0 
L 0 3.5 
" id="m648f1ed3fe" style="stroke:#000000;stroke-width:0.8;"/>
      </defs>
      <g>
       <use style="stroke:#000000;stroke-width:0.8;" x="57.6" xlink:href="#m648f1ed3fe" y="307.584"/>
      </g>
     </g>
     <g id="text_1">
      <!-- 0 -->
      <defs>
       <path d="M 31.78125 66.40625 
Q 24.171875 66.40625 20.328125 58.90625 
Q 16.5 51.421875 16.5 36.375 
Q 16.5 21.390625 20.328125 13.890625 
Q 24.171875 6.390625 31.78125 6.390625 
Q 39.453125 6.390625 43.28125 13.890625 
Q 47.125 21.390625 47.125 36.375 
Q 47.125 51.421875 43.28125 58.90625 
Q 39.453125 66.40625 31.78125 66.40625 
M 31.78125 74.21875 
Q 44.046875 74.21875 50.515625 64.515625 
Q 56.984375 54.828125 56.984375 36.375 
Q 56.984375 17.96875 50.515625 8.265625 
Q 44.046875 -1.421875 31.78125 -1.421875 
Q 19.53125 -1.421875 13.0625 8.265625 
Q 6.59375 17.96875 6.59375 36.375 
Q 6.59375 54.828125 13.0625 64.515625 
Q 19.53125 74.21875 31.78125 74.21875 
" id="DejaVuSans-30"/>
      </defs>
      <g transform="translate(54.41875 322.182437)scale(0.1 -0.1)">
       <use xlink:href="#DejaVuSans-30"/>
      </g>
     </g>
    </g>
    <g id="xtick_2">
     <g id="line2d_3">
      <path clip-path="url(#pb2fc1fd475)" d="M 129.024 307.584 
L 129.024 41.472 
" style="fill:none;stroke:#b0b0b0;stroke-linecap:square;stroke-width:0.8;"/>
     </g>
     <g id="line2d_4">
      <g>
       <use style="stroke:#000000;stroke-width:0.8;" x="129.024" xlink:href="#m648f1ed3fe" y="307.584"/>
      </g>
     </g>
     <g id="text_2">
      <!-- 200 -->
      <defs>
       <path d="M 19.1875 8.296875 
L 53.609375 8.296875 
L 53.609375 0 
L 7.328125 0 
L 7.328125 8.296875 
Q 12.9375 14.109375 22.625 23.890625 
Q 32.328125 33.6875 34.8125 36.53125 
Q 39.546875 41.84375 41.421875 45.53125 
Q 43.3125 49.21875 43.3125 52.78125 
Q 43.3125 58.59375 39.234375 62.25 
Q 35.15625 65.921875 28.609375 65.921875 
Q 23.96875 65.921875 18.8125 64.3125 
Q 13.671875 62.703125 7.8125 59.421875 
L 7.8125 69.390625 
Q 13.765625 71.78125 18.9375 73 
Q 24.125 74.21875 28.421875 74.21875 
Q 39.75 74.21875 46.484375 68.546875 
Q 53.21875 62.890625 53.21875 53.421875 
Q 53.21875 48.921875 51.53125 44.890625 
Q 49.859375 40.875 45.40625 35.40625 
Q 44.1875 33.984375 37.640625 27.21875 
Q 31.109375 20.453125 19.1875 8.296875 
" id="DejaVuSans-32"/>
      </defs>
      <g transform="translate(119.48025 322.182437)scale(0.1 -0.1)">
       <use xlink:href="#DejaVuSans-32"/>
       <use x="63.623047" xlink:href="#DejaVuSans-30"/>
       <use x="127.246094" xlink:href="#DejaVuSans-30"/>
      </g>
     </g>
    </g>
    <g id="xtick_3">
     <g id="line2d_5">
      <path clip-path="url(#pb2fc1fd475)" d="M 200.448 307.584 
L 200.448 41.472 
" style="fill:none;stroke:#b0b0b0;stroke-linecap:square;stroke-width:0.8;"/>
     </g>
     <g id="line2d_6">
      <g>
       <use style="stroke:#000000;stroke-width:0.8;" x="200.448" xlink:href="#m648f1ed3fe" y="307.584"/>
      </g>
     </g>
     <g id="text_3">
      <!-- 400 -->
      <defs>
       <path d="M 37.796875 64.3125 
L 12.890625 25.390625 
L 37.796875 25.390625 
z
M 35.203125 72.90625 
L 47.609375 72.90625 
L 47.609375 25.390625 
L 58.015625 25.390625 
L 58.015625 17.1875 
L 47.609375 17.1875 
L 47.609375 0 
L 37.796875 0 
L 37.796875 17.1875 
L 4.890625 17.1875 
L 4.890625 26.703125 
z
" id="DejaVuSans-34"/>
      </defs>
      <g transform="translate(190.90425 322.182437)scale(0.1 -0.1)">
       <use xlink:href="#DejaVuSans-34"/>
       <use x="63.623047" xlink:href="#DejaVuSans-30"/>
       <use x="127.246094" xlink:href="#DejaVuSans-30"/>
      </g>
     </g>
    </g>
    <g id="xtick_4">
     <g id="line2d_7">
      <path clip-path="url(#pb2fc1fd475)" d="M 271.872 307.584 
L 271.872 41.472 
" style="fill:none;stroke:#b0b0b0;stroke-linecap:square;stroke-width:0.8;"/>
     </g>
     <g id="line2d_8">
      <g>
       <use style="stroke:#000000;stroke-width:0.8;" x="271.872" xlink:href="#m648f1ed3fe" y="307.584"/>
      </g>
     </g>
     <g id="text_4">
      <!-- 600 -->
      <defs>
       <path d="M 33.015625 40.375 
Q 26.375 40.375 22.484375 35.828125 
Q 18.609375 31.296875 18.609375 23.390625 
Q 18.609375 15.53125 22.484375 10.953125 
Q 26.375 6.390625 33.015625 6.390625 
Q 39.65625 6.390625 43.53125 10.953125 
Q 47.40625 15.53125 47.40625 23.390625 
Q 47.40625 31.296875 43.53125 35.828125 
Q 39.65625 40.375 33.015625 40.375 
M 52.59375 71.296875 
L 52.59375 62.3125 
Q 48.875 64.0625 45.09375 64.984375 
Q 41.3125 65.921875 37.59375 65.921875 
Q 27.828125 65.921875 22.671875 59.328125 
Q 17.53125 52.734375 16.796875 39.40625 
Q 19.671875 43.65625 24.015625 45.921875 
Q 28.375 48.1875 33.59375 48.1875 
Q 44.578125 48.1875 50.953125 41.515625 
Q 57.328125 34.859375 57.328125 23.390625 
Q 57.328125 12.15625 50.6875 5.359375 
Q 44.046875 -1.421875 33.015625 -1.421875 
Q 20.359375 -1.421875 13.671875 8.265625 
Q 6.984375 17.96875 6.984375 36.375 
Q 6.984375 53.65625 15.1875 63.9375 
Q 23.390625 74.21875 37.203125 74.21875 
Q 40.921875 74.21875 44.703125 73.484375 
Q 48.484375 72.75 52.59375 71.296875 
" id="DejaVuSans-36"/>
      </defs>
      <g transform="translate(262.32825 322.182437)scale(0.1 -0.1)">
       <use xlink:href="#DejaVuSans-36"/>
       <use x="63.623047" xlink:href="#DejaVuSans-30"/>
       <use x="127.246094" xlink:href="#DejaVuSans-30"/>
      </g>
     </g>
    </g>
    <g id="xtick_5">
     <g id="line2d_9">
      <path clip-path="url(#pb2fc1fd475)" d="M 343.296 307.584 
L 343.296 41.472 
" style="fill:none;stroke:#b0b0b0;stroke-linecap:square;stroke-width:0.8;"/>
     </g>
     <g id="line2d_10">
      <g>
       <use style="stroke:#000000;stroke-width:0.8;" x="343.296" xlink:href="#m648f1ed3fe" y="307.584"/>
      </g>
     </g>
     <g id="text_5">
      <!-- 800 -->
      <defs>
       <path d="M 31.78125 34.625 
Q 24.75 34.625 20.71875 30.859375 
Q 16.703125 27.09375 16.703125 20.515625 
Q 16.703125 13.921875 20.71875 10.15625 
Q 24.75 6.390625 31.78125 6.390625 
Q 38.8125 6.390625 42.859375 10.171875 
Q 46.921875 13.96875 46.921875 20.515625 
Q 46.921875 27.09375 42.890625 30.859375 
Q 38.875 34.625 31.78125 34.625 
M 21.921875 38.8125 
Q 15.578125 40.375 12.03125 44.71875 
Q 8.5 49.078125 8.5 55.328125 
Q 8.5 64.0625 14.71875 69.140625 
Q 20.953125 74.21875 31.78125 74.21875 
Q 42.671875 74.21875 48.875 69.140625 
Q 55.078125 64.0625 55.078125 55.328125 
Q 55.078125 49.078125 51.53125 44.71875 
Q 48 40.375 41.703125 38.8125 
Q 48.828125 37.15625 52.796875 32.3125 
Q 56.78125 27.484375 56.78125 20.515625 
Q 56.78125 9.90625 50.3125 4.234375 
Q 43.84375 -1.421875 31.78125 -1.421875 
Q 19.734375 -1.421875 13.25 4.234375 
Q 6.78125 9.90625 6.78125 20.515625 
Q 6.78125 27.484375 10.78125 32.3125 
Q 14.796875 37.15625 21.921875 38.8125 
M 18.3125 54.390625 
Q 18.3125 48.734375 21.84375 45.5625 
Q 25.390625 42.390625 31.78125 42.390625 
Q 38.140625 42.390625 41.71875 45.5625 
Q 45.3125 48.734375 45.3125 54.390625 
Q 45.3125 60.0625 41.71875 63.234375 
Q 38.140625 66.40625 31.78125 66.40625 
Q 25.390625 66.40625 21.84375 63.234375 
Q 18.3125 60.0625 18.3125 54.390625 
" id="DejaVuSans-38"/>
      </defs>
      <g transform="translate(333.75225 322.182437)scale(0.1 -0.1)">
       <use xlink:href="#DejaVuSans-38"/>
       <use x="63.623047" xlink:href="#DejaVuSans-30"/>
       <use x="127.246094" xlink:href="#DejaVuSans-30"/>
      </g>
     </g>
    </g>
    <g id="xtick_6">
     <g id="line2d_11">
      <path clip-path="url(#pb2fc1fd475)" d="M 414.72 307.584 
L 414.72 41.472 
" style="fill:none;stroke:#b0b0b0;stroke-linecap:square;stroke-width:0.8;"/>
     </g>
     <g id="line2d_12">
      <g>
       <use style="stroke:#000000;stroke-width:0.8;" x="414.72" xlink:href="#m648f1ed3fe" y="307.584"/>
      </g>
     </g>
     <g id="text_6">
      <!-- 1000 -->
      <defs>
       <path d="M 12.40625 8.296875 
L 28.515625 8.296875 
L 28.515625 63.921875 
L 10.984375 60.40625 
L 10.984375 69.390625 
L 28.421875 72.90625 
L 38.28125 72.90625 
L 38.28125 8.296875 
L 54.390625 8.296875 
L 54.390625 0 
L 12.40625 0 
z
" id="DejaVuSans-31"/>
      </defs>
      <g transform="translate(401.995 322.182437)scale(0.1 -0.1)">
       <use xlink:href="#DejaVuSans-31"/>
       <use x="63.623047" xlink:href="#DejaVuSans-30"/>
       <use x="127.246094" xlink:href="#DejaVuSans-30"/>
       <use x="190.869141" xlink:href="#DejaVuSans-30"/>
      </g>
     </g>
    </g>
    <g id="text_7">
     <!-- Number of clients -->
     <defs>
      <path d="M 9.8125 72.90625 
L 23.09375 72.90625 
L 55.421875 11.921875 
L 55.421875 72.90625 
L 64.984375 72.90625 
L 64.984375 0 
L 51.703125 0 
L 19.390625 60.984375 
L 19.390625 0 
L 9.8125 0 
z
" id="DejaVuSans-4e"/>
      <path d="M 8.5 21.578125 
L 8.5 54.6875 
L 17.484375 54.6875 
L 17.484375 21.921875 
Q 17.484375 14.15625 20.5 10.265625 
Q 23.53125 6.390625 29.59375 6.390625 
Q 36.859375 6.390625 41.078125 11.03125 
Q 45.3125 15.671875 45.3125 23.6875 
L 45.3125 54.6875 
L 54.296875 54.6875 
L 54.296875 0 
L 45.3125 0 
L 45.3125 8.40625 
Q 42.046875 3.421875 37.71875 1 
Q 33.40625 -1.421875 27.6875 -1.421875 
Q 18.265625 -1.421875 13.375 4.4375 
Q 8.5 10.296875 8.5 21.578125 
M 31.109375 56 
z
" id="DejaVuSans-75"/>
      <path d="M 52 44.1875 
Q 55.375 50.25 60.0625 53.125 
Q 64.75 56 71.09375 56 
Q 79.640625 56 84.28125 50.015625 
Q 88.921875 44.046875 88.921875 33.015625 
L 88.921875 0 
L 79.890625 0 
L 79.890625 32.71875 
Q 79.890625 40.578125 77.09375 44.375 
Q 74.3125 48.1875 68.609375 48.1875 
Q 61.625 48.1875 57.5625 43.546875 
Q 53.515625 38.921875 53.515625 30.90625 
L 53.515625 0 
L 44.484375 0 
L 44.484375 32.71875 
Q 44.484375 40.625 41.703125 44.40625 
Q 38.921875 48.1875 33.109375 48.1875 
Q 26.21875 48.1875 22.15625 43.53125 
Q 18.109375 38.875 18.109375 30.90625 
L 18.109375 0 
L 9.078125 0 
L 9.078125 54.6875 
L 18.109375 54.6875 
L 18.109375 46.1875 
Q 21.1875 51.21875 25.484375 53.609375 
Q 29.78125 56 35.6875 56 
Q 41.65625 56 45.828125 52.96875 
Q 50 49.953125 52 44.1875 
" id="DejaVuSans-6d"/>
      <path d="M 48.6875 27.296875 
Q 48.6875 37.203125 44.609375 42.84375 
Q 40.53125 48.484375 33.40625 48.484375 
Q 26.265625 48.484375 22.1875 42.84375 
Q 18.109375 37.203125 18.109375 27.296875 
Q 18.109375 17.390625 22.1875 11.75 
Q 26.265625 6.109375 33.40625 6.109375 
Q 40.53125 6.109375 44.609375 11.75 
Q 48.6875 17.390625 48.6875 27.296875 
M 18.109375 46.390625 
Q 20.953125 51.265625 25.265625 53.625 
Q 29.59375 56 35.59375 56 
Q 45.5625 56 51.78125 48.09375 
Q 58.015625 40.1875 58.015625 27.296875 
Q 58.015625 14.40625 51.78125 6.484375 
Q 45.5625 -1.421875 35.59375 -1.421875 
Q 29.59375 -1.421875 25.265625 0.953125 
Q 20.953125 3.328125 18.109375 8.203125 
L 18.109375 0 
L 9.078125 0 
L 9.078125 75.984375 
L 18.109375 75.984375 
z
" id="DejaVuSans-62"/>
      <path d="M 56.203125 29.59375 
L 56.203125 25.203125 
L 14.890625 25.203125 
Q 15.484375 15.921875 20.484375 11.0625 
Q 25.484375 6.203125 34.421875 6.203125 
Q 39.59375 6.203125 44.453125 7.46875 
Q 49.3125 8.734375 54.109375 11.28125 
L 54.109375 2.78125 
Q 49.265625 0.734375 44.1875 -0.34375 
Q 39.109375 -1.421875 33.890625 -1.421875 
Q 20.796875 -1.421875 13.15625 6.1875 
Q 5.515625 13.8125 5.515625 26.8125 
Q 5.515625 40.234375 12.765625 48.109375 
Q 20.015625 56 32.328125 56 
Q 43.359375 56 49.78125 48.890625 
Q 56.203125 41.796875 56.203125 29.59375 
M 47.21875 32.234375 
Q 47.125 39.59375 43.09375 43.984375 
Q 39.0625 48.390625 32.421875 48.390625 
Q 24.90625 48.390625 20.390625 44.140625 
Q 15.875 39.890625 15.1875 32.171875 
z
" id="DejaVuSans-65"/>
      <path d="M 41.109375 46.296875 
Q 39.59375 47.171875 37.8125 47.578125 
Q 36.03125 48 33.890625 48 
Q 26.265625 48 22.1875 43.046875 
Q 18.109375 38.09375 18.109375 28.8125 
L 18.109375 0 
L 9.078125 0 
L 9.078125 54.6875 
L 18.109375 54.6875 
L 18.109375 46.1875 
Q 20.953125 51.171875 25.484375 53.578125 
Q 30.03125 56 36.53125 56 
Q 37.453125 56 38.578125 55.875 
Q 39.703125 55.765625 41.0625 55.515625 
z
" id="DejaVuSans-72"/>
      <path id="DejaVuSans-20"/>
      <path d="M 30.609375 48.390625 
Q 23.390625 48.390625 19.1875 42.75 
Q 14.984375 37.109375 14.984375 27.296875 
Q 14.984375 17.484375 19.15625 11.84375 
Q 23.34375 6.203125 30.609375 6.203125 
Q 37.796875 6.203125 41.984375 11.859375 
Q 46.1875 17.53125 46.1875 27.296875 
Q 46.1875 37.015625 41.984375 42.703125 
Q 37.796875 48.390625 30.609375 48.390625 
M 30.609375 56 
Q 42.328125 56 49.015625 48.375 
Q 55.71875 40.765625 55.71875 27.296875 
Q 55.71875 13.875 49.015625 6.21875 
Q 42.328125 -1.421875 30.609375 -1.421875 
Q 18.84375 -1.421875 12.171875 6.21875 
Q 5.515625 13.875 5.515625 27.296875 
Q 5.515625 40.765625 12.171875 48.375 
Q 18.84375 56 30.609375 56 
" id="DejaVuSans-6f"/>
      <path d="M 37.109375 75.984375 
L 37.109375 68.5 
L 28.515625 68.5 
Q 23.6875 68.5 21.796875 66.546875 
Q 19.921875 64.59375 19.921875 59.515625 
L 19.921875 54.6875 
L 34.71875 54.6875 
L 34.71875 47.703125 
L 19.921875 47.703125 
L 19.921875 0 
L 10.890625 0 
L 10.890625 47.703125 
L 2.296875 47.703125 
L 2.296875 54.6875 
L 10.890625 54.6875 
L 10.890625 58.5 
Q 10.890625 67.625 15.140625 71.796875 
Q 19.390625 75.984375 28.609375 75.984375 
z
" id="DejaVuSans-66"/>
      <path d="M 48.78125 52.59375 
L 48.78125 44.1875 
Q 44.96875 46.296875 41.140625 47.34375 
Q 37.3125 48.390625 33.40625 48.390625 
Q 24.65625 48.390625 19.8125 42.84375 
Q 14.984375 37.3125 14.984375 27.296875 
Q 14.984375 17.28125 19.8125 11.734375 
Q 24.65625 6.203125 33.40625 6.203125 
Q 37.3125 6.203125 41.140625 7.25 
Q 44.96875 8.296875 48.78125 10.40625 
L 48.78125 2.09375 
Q 45.015625 0.34375 40.984375 -0.53125 
Q 36.96875 -1.421875 32.421875 -1.421875 
Q 20.0625 -1.421875 12.78125 6.34375 
Q 5.515625 14.109375 5.515625 27.296875 
Q 5.515625 40.671875 12.859375 48.328125 
Q 20.21875 56 33.015625 56 
Q 37.15625 56 41.109375 55.140625 
Q 45.0625 54.296875 48.78125 52.59375 
" id="DejaVuSans-63"/>
      <path d="M 9.421875 75.984375 
L 18.40625 75.984375 
L 18.40625 0 
L 9.421875 0 
z
" id="DejaVuSans-6c"/>
      <path d="M 9.421875 54.6875 
L 18.40625 54.6875 
L 18.40625 0 
L 9.421875 0 
z
M 9.421875 75.984375 
L 18.40625 75.984375 
L 18.40625 64.59375 
L 9.421875 64.59375 
z
" id="DejaVuSans-69"/>
      <path d="M 54.890625 33.015625 
L 54.890625 0 
L 45.90625 0 
L 45.90625 32.71875 
Q 45.90625 40.484375 42.875 44.328125 
Q 39.84375 48.1875 33.796875 48.1875 
Q 26.515625 48.1875 22.3125 43.546875 
Q 18.109375 38.921875 18.109375 30.90625 
L 18.109375 0 
L 9.078125 0 
L 9.078125 54.6875 
L 18.109375 54.6875 
L 18.109375 46.1875 
Q 21.34375 51.125 25.703125 53.5625 
Q 30.078125 56 35.796875 56 
Q 45.21875 56 50.046875 50.171875 
Q 54.890625 44.34375 54.890625 33.015625 
" id="DejaVuSans-6e"/>
      <path d="M 18.3125 70.21875 
L 18.3125 54.6875 
L 36.8125 54.6875 
L 36.8125 47.703125 
L 18.3125 47.703125 
L 18.3125 18.015625 
Q 18.3125 11.328125 20.140625 9.421875 
Q 21.96875 7.515625 27.59375 7.515625 
L 36.8125 7.515625 
L 36.8125 0 
L 27.59375 0 
Q 17.1875 0 13.234375 3.875 
Q 9.28125 7.765625 9.28125 18.015625 
L 9.28125 47.703125 
L 2.6875 47.703125 
L 2.6875 54.6875 
L 9.28125 54.6875 
L 9.28125 70.21875 
z
" id="DejaVuSans-74"/>
      <path d="M 44.28125 53.078125 
L 44.28125 44.578125 
Q 40.484375 46.53125 36.375 47.5 
Q 32.28125 48.484375 27.875 48.484375 
Q 21.1875 48.484375 17.84375 46.4375 
Q 14.5 44.390625 14.5 40.28125 
Q 14.5 37.15625 16.890625 35.375 
Q 19.28125 33.59375 26.515625 31.984375 
L 29.59375 31.296875 
Q 39.15625 29.25 43.1875 25.515625 
Q 47.21875 21.78125 47.21875 15.09375 
Q 47.21875 7.46875 41.1875 3.015625 
Q 35.15625 -1.421875 24.609375 -1.421875 
Q 20.21875 -1.421875 15.453125 -0.5625 
Q 10.6875 0.296875 5.421875 2 
L 5.421875 11.28125 
Q 10.40625 8.6875 15.234375 7.390625 
Q 20.0625 6.109375 24.8125 6.109375 
Q 31.15625 6.109375 34.5625 8.28125 
Q 37.984375 10.453125 37.984375 14.40625 
Q 37.984375 18.0625 35.515625 20.015625 
Q 33.0625 21.96875 24.703125 23.78125 
L 21.578125 24.515625 
Q 13.234375 26.265625 9.515625 29.90625 
Q 5.8125 33.546875 5.8125 39.890625 
Q 5.8125 47.609375 11.28125 51.796875 
Q 16.75 56 26.8125 56 
Q 31.78125 56 36.171875 55.265625 
Q 40.578125 54.546875 44.28125 53.078125 
" id="DejaVuSans-73"/>
     </defs>
     <g transform="translate(191.738906 335.860562)scale(0.1 -0.1)">
      <use xlink:href="#DejaVuSans-4e"/>
      <use x="74.804688" xlink:href="#DejaVuSans-75"/>
      <use x="138.183594" xlink:href="#DejaVuSans-6d"/>
      <use x="235.595703" xlink:href="#DejaVuSans-62"/>
      <use x="299.072266" xlink:href="#DejaVuSans-65"/>
      <use x="360.595703" xlink:href="#DejaVuSans-72"/>
      <use x="401.708984" xlink:href="#DejaVuSans-20"/>
      <use x="433.496094" xlink:href="#DejaVuSans-6f"/>
      <use x="494.677734" xlink:href="#DejaVuSans-66"/>
      <use x="529.882812" xlink:href="#DejaVuSans-20"/>
      <use x="561.669922" xlink:href="#DejaVuSans-63"/>
      <use x="616.650391" xlink:href="#DejaVuSans-6c"/>
      <use x="644.433594" xlink:href="#DejaVuSans-69"/>
      <use x="672.216797" xlink:href="#DejaVuSans-65"/>
      <use x="733.740234" xlink:href="#DejaVuSans-6e"/>
      <use x="797.119141" xlink:href="#DejaVuSans-74"/>
      <use x="836.328125" xlink:href="#DejaVuSans-73"/>
     </g>
    </g>
   </g>
   <g id="matplotlib.axis_2">
    <g id="ytick_1">
     <g id="line2d_13">
      <path clip-path="url(#pb2fc1fd475)" d="M 57.6 295.820596 
L 414.72 295.820596 
" style="fill:none;stroke:#b0b0b0;stroke-linecap:square;stroke-width:0.8;"/>
     </g>
     <g id="line2d_14">
      <defs>
       <path d="M 0 0 
L -3.5 0 
" id="m2c6fe3cd34" style="stroke:#000000;stroke-width:0.8;"/>
      </defs>
      <g>
       <use style="stroke:#000000;stroke-width:0.8;" x="57.6" xlink:href="#m2c6fe3cd34" y="295.820596"/>
      </g>
     </g>
     <g id="text_8">
      <!-- 0 -->
      <g transform="translate(44.2375 299.619815)scale(0.1 -0.1)">
       <use xlink:href="#DejaVuSans-30"/>
      </g>
     </g>
    </g>
    <g id="ytick_2">
     <g id="line2d_15">
      <path clip-path="url(#pb2fc1fd475)" d="M 57.6 261.390349 
L 414.72 261.390349 
" style="fill:none;stroke:#b0b0b0;stroke-linecap:square;stroke-width:0.8;"/>
     </g>
     <g id="line2d_16">
      <g>
       <use style="stroke:#000000;stroke-width:0.8;" x="57.6" xlink:href="#m2c6fe3cd34" y="261.390349"/>
      </g>
     </g>
     <g id="text_9">
      <!-- 100 -->
      <g transform="translate(31.5125 265.189568)scale(0.1 -0.1)">
       <use xlink:href="#DejaVuSans-31"/>
       <use x="63.623047" xlink:href="#DejaVuSans-30"/>
       <use x="127.246094" xlink:href="#DejaVuSans-30"/>
      </g>
     </g>
    </g>
    <g id="ytick_3">
     <g id="line2d_17">
      <path clip-path="url(#pb2fc1fd475)" d="M 57.6 226.960102 
L 414.72 226.960102 
" style="fill:none;stroke:#b0b0b0;stroke-linecap:square;stroke-width:0.8;"/>
     </g>
     <g id="line2d_18">
      <g>
       <use style="stroke:#000000;stroke-width:0.8;" x="57.6" xlink:href="#m2c6fe3cd34" y="226.960102"/>
      </g>
     </g>
     <g id="text_10">
      <!-- 200 -->
      <g transform="translate(31.5125 230.759321)scale(0.1 -0.1)">
       <use xlink:href="#DejaVuSans-32"/>
       <use x="63.623047" xlink:href="#DejaVuSans-30"/>
       <use x="127.246094" xlink:href="#DejaVuSans-30"/>
      </g>
     </g>
    </g>
    <g id="ytick_4">
     <g id="line2d_19">
      <path clip-path="url(#pb2fc1fd475)" d="M 57.6 192.529855 
L 414.72 192.529855 
" style="fill:none;stroke:#b0b0b0;stroke-linecap:square;stroke-width:0.8;"/>
     </g>
     <g id="line2d_20">
      <g>
       <use style="stroke:#000000;stroke-width:0.8;" x="57.6" xlink:href="#m2c6fe3cd34" y="192.529855"/>
      </g>
     </g>
     <g id="text_11">
      <!-- 300 -->
      <defs>
       <path d="M 40.578125 39.3125 
Q 47.65625 37.796875 51.625 33 
Q 55.609375 28.21875 55.609375 21.1875 
Q 55.609375 10.40625 48.1875 4.484375 
Q 40.765625 -1.421875 27.09375 -1.421875 
Q 22.515625 -1.421875 17.65625 -0.515625 
Q 12.796875 0.390625 7.625 2.203125 
L 7.625 11.71875 
Q 11.71875 9.328125 16.59375 8.109375 
Q 21.484375 6.890625 26.8125 6.890625 
Q 36.078125 6.890625 40.9375 10.546875 
Q 45.796875 14.203125 45.796875 21.1875 
Q 45.796875 27.640625 41.28125 31.265625 
Q 36.765625 34.90625 28.71875 34.90625 
L 20.21875 34.90625 
L 20.21875 43.015625 
L 29.109375 43.015625 
Q 36.375 43.015625 40.234375 45.921875 
Q 44.09375 48.828125 44.09375 54.296875 
Q 44.09375 59.90625 40.109375 62.90625 
Q 36.140625 65.921875 28.71875 65.921875 
Q 24.65625 65.921875 20.015625 65.03125 
Q 15.375 64.15625 9.8125 62.3125 
L 9.8125 71.09375 
Q 15.4375 72.65625 20.34375 73.4375 
Q 25.25 74.21875 29.59375 74.21875 
Q 40.828125 74.21875 47.359375 69.109375 
Q 53.90625 64.015625 53.90625 55.328125 
Q 53.90625 49.265625 50.4375 45.09375 
Q 46.96875 40.921875 40.578125 39.3125 
" id="DejaVuSans-33"/>
      </defs>
      <g transform="translate(31.5125 196.329073)scale(0.1 -0.1)">
       <use xlink:href="#DejaVuSans-33"/>
       <use x="63.623047" xlink:href="#DejaVuSans-30"/>
       <use x="127.246094" xlink:href="#DejaVuSans-30"/>
      </g>
     </g>
    </g>
    <g id="ytick_5">
     <g id="line2d_21">
      <path clip-path="url(#pb2fc1fd475)" d="M 57.6 158.099608 
L 414.72 158.099608 
" style="fill:none;stroke:#b0b0b0;stroke-linecap:square;stroke-width:0.8;"/>
     </g>
     <g id="line2d_22">
      <g>
       <use style="stroke:#000000;stroke-width:0.8;" x="57.6" xlink:href="#m2c6fe3cd34" y="158.099608"/>
      </g>
     </g>
     <g id="text_12">
      <!-- 400 -->
      <g transform="translate(31.5125 161.898826)scale(0.1 -0.1)">
       <use xlink:href="#DejaVuSans-34"/>
       <use x="63.623047" xlink:href="#DejaVuSans-30"/>
       <use x="127.246094" xlink:href="#DejaVuSans-30"/>
      </g>
     </g>
    </g>
    <g id="ytick_6">
     <g id="line2d_23">
      <path clip-path="url(#pb2fc1fd475)" d="M 57.6 123.66936 
L 414.72 123.66936 
" style="fill:none;stroke:#b0b0b0;stroke-linecap:square;stroke-width:0.8;"/>
     </g>
     <g id="line2d_24">
      <g>
       <use style="stroke:#000000;stroke-width:0.8;" x="57.6" xlink:href="#m2c6fe3cd34" y="123.66936"/>
      </g>
     </g>
     <g id="text_13">
      <!-- 500 -->
      <defs>
       <path d="M 10.796875 72.90625 
L 49.515625 72.90625 
L 49.515625 64.59375 
L 19.828125 64.59375 
L 19.828125 46.734375 
Q 21.96875 47.46875 24.109375 47.828125 
Q 26.265625 48.1875 28.421875 48.1875 
Q 40.625 48.1875 47.75 41.5 
Q 54.890625 34.8125 54.890625 23.390625 
Q 54.890625 11.625 47.5625 5.09375 
Q 40.234375 -1.421875 26.90625 -1.421875 
Q 22.3125 -1.421875 17.546875 -0.640625 
Q 12.796875 0.140625 7.71875 1.703125 
L 7.71875 11.625 
Q 12.109375 9.234375 16.796875 8.0625 
Q 21.484375 6.890625 26.703125 6.890625 
Q 35.15625 6.890625 40.078125 11.328125 
Q 45.015625 15.765625 45.015625 23.390625 
Q 45.015625 31 40.078125 35.4375 
Q 35.15625 39.890625 26.703125 39.890625 
Q 22.75 39.890625 18.8125 39.015625 
Q 14.890625 38.140625 10.796875 36.28125 
z
" id="DejaVuSans-35"/>
      </defs>
      <g transform="translate(31.5125 127.468579)scale(0.1 -0.1)">
       <use xlink:href="#DejaVuSans-35"/>
       <use x="63.623047" xlink:href="#DejaVuSans-30"/>
       <use x="127.246094" xlink:href="#DejaVuSans-30"/>
      </g>
     </g>
    </g>
    <g id="ytick_7">
     <g id="line2d_25">
      <path clip-path="url(#pb2fc1fd475)" d="M 57.6 89.239113 
L 414.72 89.239113 
" style="fill:none;stroke:#b0b0b0;stroke-linecap:square;stroke-width:0.8;"/>
     </g>
     <g id="line2d_26">
      <g>
       <use style="stroke:#000000;stroke-width:0.8;" x="57.6" xlink:href="#m2c6fe3cd34" y="89.239113"/>
      </g>
     </g>
     <g id="text_14">
      <!-- 600 -->
      <g transform="translate(31.5125 93.038332)scale(0.1 -0.1)">
       <use xlink:href="#DejaVuSans-36"/>
       <use x="63.623047" xlink:href="#DejaVuSans-30"/>
       <use x="127.246094" xlink:href="#DejaVuSans-30"/>
      </g>
     </g>
    </g>
    <g id="ytick_8">
     <g id="line2d_27">
      <path clip-path="url(#pb2fc1fd475)" d="M 57.6 54.808866 
L 414.72 54.808866 
" style="fill:none;stroke:#b0b0b0;stroke-linecap:square;stroke-width:0.8;"/>
     </g>
     <g id="line2d_28">
      <g>
       <use style="stroke:#000000;stroke-width:0.8;" x="57.6" xlink:href="#m2c6fe3cd34" y="54.808866"/>
      </g>
     </g>
     <g id="text_15">
      <!-- 700 -->
      <defs>
       <path d="M 8.203125 72.90625 
L 55.078125 72.90625 
L 55.078125 68.703125 
L 28.609375 0 
L 18.3125 0 
L 43.21875 64.59375 
L 8.203125 64.59375 
z
" id="DejaVuSans-37"/>
      </defs>
      <g transform="translate(31.5125 58.608085)scale(0.1 -0.1)">
       <use xlink:href="#DejaVuSans-37"/>
       <use x="63.623047" xlink:href="#DejaVuSans-30"/>
       <use x="127.246094" xlink:href="#DejaVuSans-30"/>
      </g>
     </g>
    </g>
    <g id="text_16">
     <!-- Successful download requests per second -->
     <defs>
      <path d="M 53.515625 70.515625 
L 53.515625 60.890625 
Q 47.90625 63.578125 42.921875 64.890625 
Q 37.9375 66.21875 33.296875 66.21875 
Q 25.25 66.21875 20.875 63.09375 
Q 16.5 59.96875 16.5 54.203125 
Q 16.5 49.359375 19.40625 46.890625 
Q 22.3125 44.4375 30.421875 42.921875 
L 36.375 41.703125 
Q 47.40625 39.59375 52.65625 34.296875 
Q 57.90625 29 57.90625 20.125 
Q 57.90625 9.515625 50.796875 4.046875 
Q 43.703125 -1.421875 29.984375 -1.421875 
Q 24.8125 -1.421875 18.96875 -0.25 
Q 13.140625 0.921875 6.890625 3.21875 
L 6.890625 13.375 
Q 12.890625 10.015625 18.65625 8.296875 
Q 24.421875 6.59375 29.984375 6.59375 
Q 38.421875 6.59375 43.015625 9.90625 
Q 47.609375 13.234375 47.609375 19.390625 
Q 47.609375 24.75 44.3125 27.78125 
Q 41.015625 30.8125 33.5 32.328125 
L 27.484375 33.5 
Q 16.453125 35.6875 11.515625 40.375 
Q 6.59375 45.0625 6.59375 53.421875 
Q 6.59375 63.09375 13.40625 68.65625 
Q 20.21875 74.21875 32.171875 74.21875 
Q 37.3125 74.21875 42.625 73.28125 
Q 47.953125 72.359375 53.515625 70.515625 
" id="DejaVuSans-53"/>
      <path d="M 45.40625 46.390625 
L 45.40625 75.984375 
L 54.390625 75.984375 
L 54.390625 0 
L 45.40625 0 
L 45.40625 8.203125 
Q 42.578125 3.328125 38.25 0.953125 
Q 33.9375 -1.421875 27.875 -1.421875 
Q 17.96875 -1.421875 11.734375 6.484375 
Q 5.515625 14.40625 5.515625 27.296875 
Q 5.515625 40.1875 11.734375 48.09375 
Q 17.96875 56 27.875 56 
Q 33.9375 56 38.25 53.625 
Q 42.578125 51.265625 45.40625 46.390625 
M 14.796875 27.296875 
Q 14.796875 17.390625 18.875 11.75 
Q 22.953125 6.109375 30.078125 6.109375 
Q 37.203125 6.109375 41.296875 11.75 
Q 45.40625 17.390625 45.40625 27.296875 
Q 45.40625 37.203125 41.296875 42.84375 
Q 37.203125 48.484375 30.078125 48.484375 
Q 22.953125 48.484375 18.875 42.84375 
Q 14.796875 37.203125 14.796875 27.296875 
" id="DejaVuSans-64"/>
      <path d="M 4.203125 54.6875 
L 13.1875 54.6875 
L 24.421875 12.015625 
L 35.59375 54.6875 
L 46.1875 54.6875 
L 57.421875 12.015625 
L 68.609375 54.6875 
L 77.59375 54.6875 
L 63.28125 0 
L 52.6875 0 
L 40.921875 44.828125 
L 29.109375 0 
L 18.5 0 
z
" id="DejaVuSans-77"/>
      <path d="M 34.28125 27.484375 
Q 23.390625 27.484375 19.1875 25 
Q 14.984375 22.515625 14.984375 16.5 
Q 14.984375 11.71875 18.140625 8.90625 
Q 21.296875 6.109375 26.703125 6.109375 
Q 34.1875 6.109375 38.703125 11.40625 
Q 43.21875 16.703125 43.21875 25.484375 
L 43.21875 27.484375 
z
M 52.203125 31.203125 
L 52.203125 0 
L 43.21875 0 
L 43.21875 8.296875 
Q 40.140625 3.328125 35.546875 0.953125 
Q 30.953125 -1.421875 24.3125 -1.421875 
Q 15.921875 -1.421875 10.953125 3.296875 
Q 6 8.015625 6 15.921875 
Q 6 25.140625 12.171875 29.828125 
Q 18.359375 34.515625 30.609375 34.515625 
L 43.21875 34.515625 
L 43.21875 35.40625 
Q 43.21875 41.609375 39.140625 45 
Q 35.0625 48.390625 27.6875 48.390625 
Q 23 48.390625 18.546875 47.265625 
Q 14.109375 46.140625 10.015625 43.890625 
L 10.015625 52.203125 
Q 14.9375 54.109375 19.578125 55.046875 
Q 24.21875 56 28.609375 56 
Q 40.484375 56 46.34375 49.84375 
Q 52.203125 43.703125 52.203125 31.203125 
" id="DejaVuSans-61"/>
      <path d="M 14.796875 27.296875 
Q 14.796875 17.390625 18.875 11.75 
Q 22.953125 6.109375 30.078125 6.109375 
Q 37.203125 6.109375 41.296875 11.75 
Q 45.40625 17.390625 45.40625 27.296875 
Q 45.40625 37.203125 41.296875 42.84375 
Q 37.203125 48.484375 30.078125 48.484375 
Q 22.953125 48.484375 18.875 42.84375 
Q 14.796875 37.203125 14.796875 27.296875 
M 45.40625 8.203125 
Q 42.578125 3.328125 38.25 0.953125 
Q 33.9375 -1.421875 27.875 -1.421875 
Q 17.96875 -1.421875 11.734375 6.484375 
Q 5.515625 14.40625 5.515625 27.296875 
Q 5.515625 40.1875 11.734375 48.09375 
Q 17.96875 56 27.875 56 
Q 33.9375 56 38.25 53.625 
Q 42.578125 51.265625 45.40625 46.390625 
L 45.40625 54.6875 
L 54.390625 54.6875 
L 54.390625 -20.796875 
L 45.40625 -20.796875 
z
" id="DejaVuSans-71"/>
      <path d="M 18.109375 8.203125 
L 18.109375 -20.796875 
L 9.078125 -20.796875 
L 9.078125 54.6875 
L 18.109375 54.6875 
L 18.109375 46.390625 
Q 20.953125 51.265625 25.265625 53.625 
Q 29.59375 56 35.59375 56 
Q 45.5625 56 51.78125 48.09375 
Q 58.015625 40.1875 58.015625 27.296875 
Q 58.015625 14.40625 51.78125 6.484375 
Q 45.5625 -1.421875 35.59375 -1.421875 
Q 29.59375 -1.421875 25.265625 0.953125 
Q 20.953125 3.328125 18.109375 8.203125 
M 48.6875 27.296875 
Q 48.6875 37.203125 44.609375 42.84375 
Q 40.53125 48.484375 33.40625 48.484375 
Q 26.265625 48.484375 22.1875 42.84375 
Q 18.109375 37.203125 18.109375 27.296875 
Q 18.109375 17.390625 22.1875 11.75 
Q 26.265625 6.109375 33.40625 6.109375 
Q 40.53125 6.109375 44.609375 11.75 
Q 48.6875 17.390625 48.6875 27.296875 
" id="DejaVuSans-70"/>
     </defs>
     <g transform="translate(25.432812 279.366281)rotate(-90)scale(0.1 -0.1)">
      <use xlink:href="#DejaVuSans-53"/>
      <use x="63.476562" xlink:href="#DejaVuSans-75"/>
      <use x="126.855469" xlink:href="#DejaVuSans-63"/>
      <use x="181.835938" xlink:href="#DejaVuSans-63"/>
      <use x="236.816406" xlink:href="#DejaVuSans-65"/>
      <use x="298.339844" xlink:href="#DejaVuSans-73"/>
      <use x="350.439453" xlink:href="#DejaVuSans-73"/>
      <use x="402.539062" xlink:href="#DejaVuSans-66"/>
      <use x="437.744141" xlink:href="#DejaVuSans-75"/>
      <use x="501.123047" xlink:href="#DejaVuSans-6c"/>
      <use x="528.90625" xlink:href="#DejaVuSans-20"/>
      <use x="560.693359" xlink:href="#DejaVuSans-64"/>
      <use x="624.169922" xlink:href="#DejaVuSans-6f"/>
      <use x="685.351562" xlink:href="#DejaVuSans-77"/>
      <use x="767.138672" xlink:href="#DejaVuSans-6e"/>
      <use x="830.517578" xlink:href="#DejaVuSans-6c"/>
      <use x="858.300781" xlink:href="#DejaVuSans-6f"/>
      <use x="919.482422" xlink:href="#DejaVuSans-61"/>
      <use x="980.761719" xlink:href="#DejaVuSans-64"/>
      <use x="1044.238281" xlink:href="#DejaVuSans-20"/>
      <use x="1076.025391" xlink:href="#DejaVuSans-72"/>
      <use x="1117.107422" xlink:href="#DejaVuSans-65"/>
      <use x="1178.630859" xlink:href="#DejaVuSans-71"/>
      <use x="1242.107422" xlink:href="#DejaVuSans-75"/>
      <use x="1305.486328" xlink:href="#DejaVuSans-65"/>
      <use x="1367.009766" xlink:href="#DejaVuSans-73"/>
      <use x="1419.109375" xlink:href="#DejaVuSans-74"/>
      <use x="1458.318359" xlink:href="#DejaVuSans-73"/>
      <use x="1510.417969" xlink:href="#DejaVuSans-20"/>
      <use x="1542.205078" xlink:href="#DejaVuSans-70"/>
      <use x="1605.681641" xlink:href="#DejaVuSans-65"/>
      <use x="1667.205078" xlink:href="#DejaVuSans-72"/>
      <use x="1708.318359" xlink:href="#DejaVuSans-20"/>
      <use x="1740.105469" xlink:href="#DejaVuSans-73"/>
      <use x="1792.205078" xlink:href="#DejaVuSans-65"/>
      <use x="1853.728516" xlink:href="#DejaVuSans-63"/>
      <use x="1908.708984" xlink:href="#DejaVuSans-6f"/>
      <use x="1969.890625" xlink:href="#DejaVuSans-6e"/>
      <use x="2033.269531" xlink:href="#DejaVuSans-64"/>
     </g>
    </g>
   </g>
   <g id="line2d_29">
    <path clip-path="url(#pb2fc1fd475)" d="M 57.6 295.48077 
L 57.95712 295.488 
L 60.09984 293.442843 
L 60.45696 293.071685 
L 60.81408 292.898501 
L 61.1712 292.43989 
L 61.52832 292.236063 
L 61.88544 291.809128 
L 62.24256 291.652815 
L 62.9568 290.769335 
L 63.31392 290.634024 
L 64.02816 289.653106 
L 64.38528 289.544306 
L 64.7424 289.269209 
L 65.09952 288.774446 
L 65.45664 288.714537 
L 65.81376 287.938824 
L 66.17088 287.625164 
L 66.528 287.668547 
L 66.88512 286.920033 
L 67.24224 286.843942 
L 67.95648 286.29719 
L 68.3136 285.5986 
L 68.67072 285.88747 
L 69.02784 285.279432 
L 69.38496 285.059767 
L 70.0992 284.287152 
L 70.45632 283.603712 
L 70.81344 283.662932 
L 71.8848 282.306724 
L 72.24192 282.291231 
L 72.59904 282.120112 
L 72.95616 281.281047 
L 73.31328 281.113372 
L 74.02752 280.324231 
L 74.38464 280.177558 
L 74.74176 279.723423 
L 75.09888 279.932414 
L 75.456 279.659727 
L 75.81312 278.863355 
L 76.17024 279.153946 
L 76.88448 277.666904 
L 77.2416 278.20436 
L 77.95584 276.227031 
L 78.31296 277.166288 
L 78.67008 276.830593 
L 79.0272 275.560117 
L 79.38432 275.316695 
L 79.74144 275.492978 
L 80.45568 274.902155 
L 81.52704 272.860442 
L 81.88416 272.842194 
L 82.24128 272.30336 
L 82.5984 272.645597 
L 82.95552 272.719966 
L 83.31264 271.877802 
L 83.66976 271.64712 
L 84.02688 270.573929 
L 84.384 271.344478 
L 84.74112 269.877061 
L 85.09824 270.331884 
L 85.45536 270.592865 
L 85.81248 268.805247 
L 86.1696 268.729501 
L 86.52672 269.482146 
L 86.88384 268.807313 
L 87.24096 267.247623 
L 87.59808 266.99215 
L 87.9552 267.056879 
L 88.31232 266.967016 
L 88.66944 267.20183 
L 89.02656 267.602599 
L 90.09792 264.561375 
L 90.45504 264.530732 
L 90.81216 264.008769 
L 91.16928 264.478054 
L 91.5264 264.696341 
L 91.88352 264.192971 
L 92.24064 264.40334 
L 92.59776 264.003949 
L 92.95488 264.094501 
L 93.312 261.460242 
L 93.66912 261.272598 
L 94.02624 262.483854 
L 94.38336 261.777345 
L 94.74048 260.113331 
L 95.0976 259.937048 
L 95.45472 261.278795 
L 95.81184 261.06395 
L 96.52608 258.438644 
L 96.8832 260.213867 
L 97.24032 259.735287 
L 97.59744 258.241359 
L 97.95456 258.50475 
L 98.31168 257.229454 
L 98.6688 257.303823 
L 99.02592 255.962421 
L 99.38304 256.994984 
L 99.74016 257.644338 
L 100.09728 254.900247 
L 100.4544 256.768777 
L 100.81152 254.687813 
L 101.16864 255.309279 
L 101.52576 253.664202 
L 101.88288 255.129553 
L 102.24 254.201658 
L 102.59712 254.716046 
L 102.95424 254.643742 
L 103.31136 253.165996 
L 104.0256 253.126057 
L 104.38272 250.950754 
L 104.73984 251.817019 
L 105.09696 251.435532 
L 105.45408 250.045927 
L 105.8112 252.157534 
L 106.16832 249.569068 
L 106.88256 249.091865 
L 107.23968 249.403114 
L 107.5968 249.949867 
L 107.95392 249.727447 
L 108.31104 248.955521 
L 108.66816 247.46779 
L 109.02528 249.419985 
L 109.3824 248.377781 
L 109.73952 245.686025 
L 110.09664 246.88041 
L 110.81088 245.844748 
L 111.168 246.228645 
L 111.52512 244.227559 
L 111.88224 243.673577 
L 112.23936 245.380628 
L 112.59648 245.459129 
L 112.9536 244.40763 
L 113.31072 244.008239 
L 113.66784 243.350621 
L 114.02496 241.500684 
L 114.38208 244.452733 
L 114.7392 244.584601 
L 115.09632 241.144675 
L 115.45344 243.549628 
L 115.81056 240.296314 
L 116.16768 242.094261 
L 116.5248 241.71484 
L 116.88192 241.71484 
L 117.23904 239.686554 
L 117.59616 241.192533 
L 117.95328 239.486859 
L 118.3104 239.710655 
L 118.66752 237.414846 
L 119.02464 239.809126 
L 119.38176 237.703028 
L 119.73888 238.268717 
L 120.096 235.930558 
L 120.45312 239.414211 
L 120.81024 237.481297 
L 121.16736 237.632101 
L 121.52448 235.419958 
L 121.8816 234.011072 
L 122.23872 236.429108 
L 122.59584 233.583104 
L 122.95296 234.074768 
L 123.31008 233.346913 
L 123.6672 235.736028 
L 124.02432 231.910483 
L 124.38144 234.487243 
L 124.73856 235.210278 
L 125.09568 231.339629 
L 125.4528 233.984217 
L 125.80992 231.113078 
L 126.16704 232.190056 
L 126.52416 230.212039 
L 126.88128 229.086858 
L 127.2384 228.958778 
L 127.59552 232.848707 
L 127.95264 230.305345 
L 128.30976 229.729327 
L 129.024 230.049872 
L 129.38112 229.701782 
L 129.73824 228.85652 
L 130.09536 230.545668 
L 130.45248 226.949773 
L 130.8096 226.305927 
L 131.16672 229.173967 
L 131.52384 226.046667 
L 131.88096 228.196148 
L 132.23808 224.97451 
L 132.5952 224.650865 
L 132.95232 226.793459 
L 133.30944 227.605669 
L 133.66656 225.954394 
L 134.02368 225.646932 
L 134.3808 222.578164 
L 134.73792 223.221321 
L 135.09504 224.725923 
L 135.45216 224.067617 
L 135.80928 221.700882 
L 136.1664 222.460069 
L 136.52352 219.815137 
L 136.88064 219.882965 
L 137.23776 220.330902 
L 137.59488 223.679932 
L 137.952 223.08119 
L 138.30912 218.950593 
L 138.66624 218.938543 
L 139.02336 221.364154 
L 139.38048 219.243595 
L 139.7376 218.460307 
L 140.09472 220.584653 
L 140.45184 216.999087 
L 140.80896 216.833478 
L 141.16608 216.404477 
L 141.5232 220.069232 
L 141.88032 215.526505 
L 142.23744 216.322877 
L 142.59456 214.645091 
L 142.95168 217.005629 
L 143.3088 215.414951 
L 143.66592 215.033464 
L 144.02304 215.153282 
L 144.38016 215.844641 
L 144.73728 217.032829 
L 145.0944 216.249196 
L 145.45152 216.481945 
L 146.16576 210.547203 
L 146.52288 214.950143 
L 146.88 214.101437 
L 147.23712 209.443025 
L 147.59424 209.220261 
L 147.95136 208.833954 
L 148.30848 213.467232 
L 148.6656 211.016487 
L 149.02272 213.053036 
L 149.37984 208.710005 
L 149.73696 211.946448 
L 150.09408 212.682567 
L 150.80832 207.008118 
L 151.16544 209.092525 
L 151.52256 205.70631 
L 151.87968 207.43161 
L 152.2368 204.944369 
L 152.59392 204.793909 
L 152.95104 210.294829 
L 153.30816 203.760657 
L 154.0224 208.682805 
L 154.37952 205.460134 
L 154.73664 208.470026 
L 155.09376 204.010621 
L 155.45088 204.829716 
L 155.808 206.843886 
L 156.16512 203.081348 
L 156.52224 205.776204 
L 157.23648 201.044455 
L 157.5936 205.671536 
L 157.95072 204.855195 
L 158.30784 200.446746 
L 158.66496 201.220393 
L 159.02208 198.784798 
L 159.3792 204.102894 
L 159.73632 202.561107 
L 160.09344 202.871324 
L 160.45056 199.979183 
L 160.80768 199.744024 
L 161.1648 201.578468 
L 161.52192 202.627902 
L 161.87904 200.478077 
L 162.23616 200.603403 
L 162.59328 195.715341 
L 162.9504 195.502562 
L 163.30752 197.923353 
L 163.66464 194.378759 
L 164.37888 193.695663 
L 164.736 195.870277 
L 165.09312 195.776627 
L 165.45024 192.576336 
L 165.80736 191.555479 
L 166.16448 197.307052 
L 166.5216 194.094021 
L 166.87872 194.778494 
L 167.23584 193.523167 
L 167.59296 194.54127 
L 167.95008 194.100563 
L 168.3072 192.949559 
L 168.66432 189.162232 
L 169.02144 188.834456 
L 169.37856 189.344024 
L 169.73568 193.317274 
L 170.0928 191.631914 
L 170.44992 192.755717 
L 170.80704 187.860769 
L 171.16416 189.367437 
L 171.52128 187.802582 
L 171.8784 186.870211 
L 172.23552 190.111474 
L 172.59264 190.666834 
L 172.94976 187.148751 
L 173.30688 187.694815 
L 173.664 190.807309 
L 174.37824 186.551731 
L 174.73536 189.35573 
L 175.09248 185.478884 
L 175.4496 186.837502 
L 176.52096 182.941719 
L 176.87808 183.375196 
L 177.2352 187.568112 
L 177.59232 183.617241 
L 177.94944 186.28834 
L 178.30656 184.276924 
L 178.66368 183.031927 
L 179.0208 178.823173 
L 179.37792 184.42945 
L 179.73504 181.844428 
L 180.09216 181.792094 
L 180.44928 178.126649 
L 180.8064 181.193696 
L 181.52064 182.996464 
L 181.87776 178.888591 
L 182.23488 179.057299 
L 182.592 178.64689 
L 182.94912 176.493279 
L 183.30624 179.249764 
L 183.66336 177.13196 
L 184.02048 179.71354 
L 184.3776 180.420737 
L 184.73472 180.190054 
L 185.09184 179.60715 
L 185.80608 177.493821 
L 186.1632 172.357517 
L 186.52032 174.911897 
L 186.87744 179.532436 
L 187.23456 177.767886 
L 187.59168 178.714718 
L 187.9488 172.367158 
L 188.30592 172.990345 
L 188.66304 175.732714 
L 189.02016 170.580572 
L 189.37728 177.168456 
L 189.7344 173.021332 
L 190.09152 176.185472 
L 190.44864 172.626417 
L 190.80576 172.52898 
L 191.16288 176.038111 
L 191.52 167.855074 
L 191.87712 169.326278 
L 192.23424 166.3639 
L 192.59136 173.044401 
L 192.94848 170.728278 
L 193.3056 165.278658 
L 193.66272 170.187723 
L 194.01984 168.753015 
L 194.37696 172.518995 
L 194.73408 165.015267 
L 195.0912 167.152008 
L 195.44832 165.999283 
L 195.80544 169.748049 
L 196.16256 165.298284 
L 196.51968 170.202872 
L 196.8768 167.896734 
L 197.23392 162.065283 
L 197.94816 165.738302 
L 198.30528 165.786849 
L 198.6624 160.325523 
L 199.01952 160.011175 
L 199.37664 159.44824 
L 199.73376 167.306256 
L 200.09088 159.944036 
L 200.448 159.150419 
L 200.80512 160.113433 
L 201.16224 158.176387 
L 201.51936 163.525815 
L 201.87648 164.122491 
L 202.2336 163.747545 
L 202.59072 156.346764 
L 202.94784 160.456702 
L 203.30496 162.955994 
L 203.66208 163.19253 
L 204.0192 159.360099 
L 204.37632 157.452319 
L 204.73344 156.897303 
L 205.09056 156.788848 
L 205.44768 157.040877 
L 205.8048 157.535984 
L 206.16192 157.172745 
L 206.51904 157.211307 
L 206.87616 160.817876 
L 207.23328 159.3842 
L 207.5904 160.303488 
L 207.94752 151.366428 
L 208.30464 155.53903 
L 208.66176 155.961145 
L 209.01888 158.869812 
L 209.376 158.137137 
L 209.73312 153.675665 
L 210.09024 158.858106 
L 210.44736 149.593959 
L 210.80448 151.423583 
L 211.1616 148.071109 
L 211.51872 156.338845 
L 211.87584 152.641725 
L 212.23296 152.811122 
L 212.59008 149.499965 
L 213.30432 156.097144 
L 213.66144 154.144261 
L 214.01856 149.069587 
L 214.37568 151.030734 
L 214.7328 148.643684 
L 215.44704 151.947955 
L 215.80416 143.412008 
L 216.16128 143.667137 
L 216.87552 146.980704 
L 217.23264 147.627304 
L 217.58976 142.318159 
L 217.94688 142.040307 
L 218.304 144.886312 
L 218.66112 145.887888 
L 219.01824 149.575367 
L 219.37536 143.72739 
L 219.73248 145.394158 
L 220.0896 139.546869 
L 220.44672 141.885027 
L 220.80384 148.188861 
L 221.16096 139.035235 
L 221.51808 141.237394 
L 221.8752 137.463495 
L 222.23232 147.029939 
L 222.58944 143.222298 
L 222.94656 141.976956 
L 223.30368 142.12535 
L 223.6608 145.974307 
L 224.01792 138.464382 
L 224.37504 136.562111 
L 224.73216 141.172665 
L 225.08928 138.140738 
L 225.4464 138.235076 
L 225.80352 144.665269 
L 226.16064 144.105434 
L 226.51776 139.89668 
L 226.87488 134.151993 
L 227.232 138.252636 
L 227.58912 139.848478 
L 227.94624 132.519655 
L 228.30336 138.582478 
L 229.0176 131.631355 
L 229.37472 131.544247 
L 229.73184 138.707115 
L 230.08896 136.599984 
L 230.44608 131.114557 
L 230.8032 131.171711 
L 231.16032 138.305314 
L 231.51744 137.39429 
L 231.87456 135.72821 
L 232.23168 130.662488 
L 232.5888 133.80838 
L 232.94592 135.903804 
L 233.30304 128.427621 
L 234.01728 137.117126 
L 234.3744 125.868076 
L 234.73152 132.37436 
L 235.08864 125.277253 
L 235.44576 135.544353 
L 235.80288 124.963593 
L 236.16 125.971022 
L 236.51712 133.624866 
L 236.87424 132.889781 
L 237.58848 130.284788 
L 237.9456 133.58355 
L 238.30272 128.24996 
L 238.65984 129.800699 
L 239.01696 121.19658 
L 239.37408 125.526872 
L 239.7312 123.163924 
L 240.08832 129.15582 
L 240.44544 120.968996 
L 240.80256 121.320185 
L 241.15968 123.891091 
L 241.5168 121.359435 
L 241.87392 129.639221 
L 242.23104 126.052622 
L 242.58816 123.813967 
L 242.94528 119.767036 
L 243.3024 123.926899 
L 243.65952 120.431884 
L 244.01664 125.203228 
L 244.37376 124.258806 
L 244.73088 124.776981 
L 245.088 118.630149 
L 245.44512 124.250887 
L 245.80224 115.198831 
L 246.15936 126.754311 
L 246.51648 118.657005 
L 246.8736 114.502651 
L 247.23072 115.555528 
L 247.58784 121.421754 
L 247.94496 113.964507 
L 248.6592 123.790899 
L 249.01632 113.703181 
L 249.37344 115.395428 
L 249.73056 113.710756 
L 250.08768 122.829262 
L 250.4448 120.035592 
L 250.80192 115.840267 
L 251.15904 115.444663 
L 251.51616 121.937863 
L 251.87328 115.149251 
L 252.2304 117.053588 
L 252.58752 111.859441 
L 252.94464 117.979762 
L 253.30176 115.726302 
L 253.65888 110.900215 
L 254.016 108.939756 
L 254.37312 120.397454 
L 254.73024 111.069956 
L 255.08736 119.76015 
L 255.44448 112.695063 
L 255.8016 107.937492 
L 256.15872 115.065242 
L 256.51584 111.952059 
L 256.87296 111.647351 
L 257.23008 115.359965 
L 257.5872 114.463057 
L 258.30144 109.102611 
L 258.65856 112.534963 
L 259.01568 112.350761 
L 259.3728 115.911537 
L 259.72992 108.39507 
L 260.08704 109.21933 
L 260.44416 114.504029 
L 260.80128 111.685224 
L 261.1584 106.036254 
L 261.51552 117.975975 
L 262.22976 106.062421 
L 262.58688 108.095182 
L 262.944 117.438519 
L 263.65824 112.593839 
L 264.01536 106.699036 
L 264.37248 108.487343 
L 264.7296 116.982318 
L 265.08672 112.221303 
L 265.44384 104.695196 
L 265.80096 105.734645 
L 266.15808 109.390448 
L 266.5152 115.344471 
L 266.87232 110.336592 
L 267.22944 112.667864 
L 267.58656 111.786794 
L 267.94368 102.600115 
L 268.3008 114.948523 
L 268.65792 115.720449 
L 269.01504 114.406591 
L 269.37216 108.505591 
L 269.72928 113.823687 
L 270.44352 106.850529 
L 270.80064 107.81251 
L 271.15776 113.337876 
L 271.51488 104.577788 
L 271.872 109.059574 
L 272.22912 109.290945 
L 272.58624 107.706121 
L 272.94336 102.361513 
L 273.30048 107.977775 
L 273.6576 108.593388 
L 274.01472 109.716847 
L 274.37184 105.072207 
L 274.72896 107.992236 
L 275.08608 112.097699 
L 275.80032 100.449946 
L 276.15744 105.467466 
L 276.51456 99.700055 
L 276.87168 104.160149 
L 277.58592 99.70522 
L 277.94304 107.199652 
L 278.30016 104.93724 
L 278.65728 105.077716 
L 279.0144 102.93581 
L 279.37152 110.385827 
L 279.72864 110.725653 
L 280.08576 109.62423 
L 280.8 106.112344 
L 281.15712 107.479225 
L 281.51424 100.631393 
L 281.87136 97.767485 
L 282.22848 101.875014 
L 282.5856 108.413318 
L 282.94272 100.237511 
L 283.29984 101.580291 
L 283.65696 98.554905 
L 284.01408 98.55766 
L 284.3712 108.795149 
L 284.72832 107.238558 
L 285.08544 100.961924 
L 285.44256 105.969115 
L 285.79968 101.295897 
L 286.1568 104.304757 
L 286.51392 102.137717 
L 286.87104 106.61296 
L 287.22816 102.125322 
L 287.58528 106.41051 
L 287.9424 101.03044 
L 288.29952 101.221528 
L 288.65664 102.033737 
L 289.01376 96.725282 
L 289.37088 107.544643 
L 289.728 99.873928 
L 290.08512 100.109431 
L 290.44224 105.748417 
L 290.79936 94.381959 
L 291.15648 101.427765 
L 291.5136 104.968227 
L 291.87072 104.031725 
L 292.22784 101.647086 
L 292.58496 100.594209 
L 292.94208 94.921826 
L 293.2992 95.911695 
L 294.01344 102.480986 
L 294.37056 103.73528 
L 294.72768 97.220389 
L 295.0848 100.256792 
L 295.44192 92.061361 
L 295.79904 92.156044 
L 296.15616 94.452541 
L 296.51328 102.345675 
L 296.8704 103.951158 
L 297.58464 102.209676 
L 297.94176 93.004405 
L 298.29888 103.521813 
L 298.656 102.765036 
L 299.37024 98.315615 
L 299.72736 101.771035 
L 300.08448 99.270021 
L 300.4416 102.745066 
L 300.79872 104.12021 
L 301.15584 97.534048 
L 301.51296 102.156309 
L 301.87008 100.919919 
L 302.2272 101.532433 
L 302.58432 91.428877 
L 302.94144 102.500267 
L 303.29856 98.612059 
L 303.65568 98.544576 
L 304.0128 95.316396 
L 304.36992 102.893805 
L 304.72704 96.499764 
L 305.08416 95.676537 
L 305.44128 99.446304 
L 305.7984 101.693567 
L 306.15552 91.9653 
L 306.51264 101.027341 
L 306.86976 91.112119 
L 307.22688 87.600578 
L 307.584 95.802551 
L 307.94112 90.100214 
L 308.29824 96.40026 
L 308.65536 93.791136 
L 309.01248 93.314622 
L 309.3696 98.312172 
L 309.72672 89.401968 
L 310.08384 87.808881 
L 310.44096 87.519322 
L 310.79808 92.908 
L 311.1552 95.910662 
L 311.51232 94.406749 
L 311.86944 97.914158 
L 312.22656 91.806232 
L 312.58368 90.871796 
L 312.9408 97.56538 
L 313.29792 97.032055 
L 313.65504 96.733889 
L 314.01216 86.757037 
L 314.36928 98.455402 
L 314.7264 98.956362 
L 315.08352 87.973113 
L 315.44064 88.631419 
L 315.79776 87.426016 
L 316.15488 98.184091 
L 316.512 98.939491 
L 316.86912 84.262565 
L 317.22624 96.863691 
L 317.58336 85.626692 
L 317.94048 96.53626 
L 318.2976 92.315456 
L 318.65472 91.420958 
L 319.01184 88.873808 
L 319.36896 95.986409 
L 320.0832 86.120077 
L 320.44032 94.691143 
L 320.79744 83.842516 
L 321.15456 94.945927 
L 321.51168 96.426427 
L 321.8688 91.345556 
L 322.22592 91.479834 
L 322.58304 89.773471 
L 322.94016 93.471624 
L 323.29728 90.415939 
L 323.6544 82.499392 
L 324.01152 89.035975 
L 324.36864 84.532498 
L 324.72576 85.265518 
L 325.08288 95.708212 
L 325.44 83.246529 
L 325.79712 85.666287 
L 326.15424 86.372451 
L 326.51136 87.983786 
L 326.86848 85.30167 
L 327.2256 93.595572 
L 327.93984 89.709086 
L 328.29696 82.294532 
L 328.65408 88.641404 
L 329.36832 94.094467 
L 329.72544 80.488666 
L 330.08256 82.4264 
L 330.43968 87.731757 
L 330.7968 84.928791 
L 331.15392 91.88129 
L 331.51104 81.561857 
L 331.86816 86.591083 
L 332.22528 79.617236 
L 332.5824 89.275265 
L 332.93952 83.543317 
L 333.29664 92.712437 
L 333.65376 81.384885 
L 334.01088 82.285925 
L 334.368 79.878562 
L 334.72512 92.363314 
L 335.08224 91.440583 
L 335.43936 78.003835 
L 335.79648 78.219024 
L 336.1536 83.343966 
L 336.51072 77.946336 
L 336.86784 82.174027 
L 337.22496 82.040437 
L 337.58208 86.904054 
L 337.9392 89.871597 
L 338.29632 90.602207 
L 338.65344 89.752124 
L 339.01056 77.025672 
L 339.36768 90.555382 
L 339.7248 83.352574 
L 340.08192 83.897949 
L 340.43904 90.633538 
L 340.79616 78.705523 
L 341.15328 83.134286 
L 341.5104 80.951753 
L 341.86752 76.73026 
L 342.22464 75.59234 
L 342.58176 85.281701 
L 342.93888 85.275848 
L 343.296 77.445376 
L 343.65312 87.492467 
L 344.01024 88.525719 
L 344.36736 82.775867 
L 344.72448 89.604074 
L 345.43872 74.55117 
L 345.79584 74.867239 
L 346.15296 76.301948 
L 346.51008 81.125626 
L 346.8672 82.830267 
L 347.22432 75.965564 
L 347.58144 82.011516 
L 347.93856 84.794168 
L 348.29568 76.066445 
L 348.6528 74.344244 
L 349.00992 80.44976 
L 349.36704 77.651958 
L 349.72416 86.202021 
L 350.08128 76.421765 
L 350.4384 76.368398 
L 350.79552 87.559262 
L 351.15264 86.620349 
L 351.50976 73.799213 
L 352.224 85.178754 
L 352.58112 82.058341 
L 352.93824 82.32311 
L 353.29536 73.155368 
L 353.65248 80.529982 
L 354.0096 72.93949 
L 354.36672 80.919388 
L 354.72384 83.906212 
L 355.08096 76.195903 
L 355.43808 80.884269 
L 355.7952 75.621951 
L 356.15232 79.889924 
L 356.50944 80.819196 
L 356.86656 82.081065 
L 357.22368 81.924063 
L 357.5808 85.904544 
L 357.93792 71.164955 
L 358.29504 74.591109 
L 358.65216 76.107073 
L 359.00928 77.039444 
L 359.3664 84.860274 
L 359.72352 76.642119 
L 360.08064 72.647177 
L 360.43776 73.754798 
L 360.79488 81.321189 
L 361.152 75.418468 
L 361.50912 84.168915 
L 361.86624 69.284375 
L 362.22336 70.648501 
L 362.58048 81.573563 
L 362.9376 81.783932 
L 363.29472 79.288083 
L 363.65184 68.410535 
L 364.00896 71.452103 
L 364.36608 82.294532 
L 364.7232 75.598538 
L 365.08032 76.972993 
L 365.43744 70.332087 
L 365.79456 77.793122 
L 366.15168 80.769617 
L 366.5088 81.206537 
L 367.22304 72.876483 
L 367.58016 71.164266 
L 367.93728 70.299723 
L 368.2944 67.655136 
L 368.65152 72.595532 
L 369.00864 71.329876 
L 369.36576 78.461069 
L 369.72288 77.936352 
L 370.08 69.841112 
L 370.43712 79.040874 
L 370.79424 76.69824 
L 371.15136 75.43224 
L 371.50848 75.80753 
L 371.8656 70.657109 
L 372.22272 79.171365 
L 372.93696 65.551448 
L 373.29408 65.746323 
L 373.6512 68.622626 
L 374.00832 72.69779 
L 374.36544 79.816588 
L 374.72256 65.186831 
L 375.07968 74.850024 
L 375.79392 70.279409 
L 376.15104 76.183508 
L 376.50816 69.981587 
L 376.86528 75.826466 
L 377.2224 71.728578 
L 377.93664 68.18364 
L 378.29376 75.40504 
L 378.65088 73.397412 
L 379.008 65.352441 
L 379.36512 72.859956 
L 379.72224 64.80741 
L 380.07936 70.204007 
L 380.43648 65.076999 
L 380.7936 72.207847 
L 381.15072 69.132882 
L 381.50784 69.825618 
L 381.86496 68.298293 
L 382.22208 70.331054 
L 382.5792 69.554652 
L 382.93632 71.557804 
L 383.29344 72.041549 
L 383.65056 66.256579 
L 384.00768 77.727016 
L 384.3648 67.991175 
L 384.72192 66.606046 
L 385.07904 71.369815 
L 385.43616 66.851534 
L 385.79328 66.564385 
L 386.1504 63.386818 
L 386.50752 74.105987 
L 386.86464 69.811502 
L 387.22176 61.253864 
L 387.57888 62.412098 
L 387.936 62.814243 
L 388.29312 69.968848 
L 388.65024 63.472205 
L 389.00736 62.046448 
L 389.36448 64.626651 
L 389.7216 71.647667 
L 390.43584 62.30984 
L 390.79296 72.148283 
L 391.15008 63.252884 
L 391.5072 64.138774 
L 391.86432 73.46283 
L 392.22144 61.642926 
L 392.57856 71.14051 
L 392.93568 70.557605 
L 393.2928 75.294863 
L 393.64992 70.336219 
L 394.00704 69.736444 
L 394.36416 67.824877 
L 394.72128 68.701471 
L 395.0784 72.452646 
L 395.43552 72.418216 
L 395.79264 61.560293 
L 396.14976 72.150349 
L 396.50688 59.019341 
L 396.864 59.845323 
L 397.22112 74.030584 
L 397.57824 70.998313 
L 397.93536 66.262776 
L 398.29248 57.887619 
L 398.6496 70.545899 
L 399.00672 70.245323 
L 399.36384 61.627088 
L 399.72096 59.167047 
L 400.07808 60.198233 
L 400.4352 68.856751 
L 400.79232 59.319573 
L 401.14944 67.182064 
L 401.50656 58.540761 
L 401.86368 69.643482 
L 402.2208 57.99573 
L 402.57792 67.951236 
L 402.93504 68.186394 
L 403.64928 71.847707 
L 404.0064 61.200497 
L 404.36352 68.155407 
L 404.72064 64.457943 
L 405.07776 57.426942 
L 405.43488 62.370781 
L 405.792 70.399571 
L 406.14912 67.387613 
L 406.50624 63.159923 
L 406.86336 70.424705 
L 407.22048 70.326923 
L 407.93472 68.257321 
L 408.64896 54.512077 
L 409.00608 67.539106 
L 409.3632 60.356268 
L 409.72032 62.960916 
L 410.07744 58.646806 
L 410.43456 62.252341 
L 410.79168 58.121056 
L 411.1488 66.897326 
L 411.50592 62.307085 
L 411.86304 55.186222 
L 412.22016 56.015991 
L 412.57728 59.325082 
L 412.9344 70.210204 
L 413.29152 53.568 
L 414.00576 64.514753 
L 414.36288 64.484454 
L 414.72 58.481196 
L 414.72 58.481196 
" style="fill:none;stroke:#000080;stroke-linecap:square;stroke-width:0.5;"/>
   </g>
   <g id="patch_3">
    <path d="M 57.6 307.584 
L 57.6 41.472 
" style="fill:none;stroke:#000000;stroke-linecap:square;stroke-linejoin:miter;stroke-width:0.8;"/>
   </g>
   <g id="patch_4">
    <path d="M 414.72 307.584 
L 414.72 41.472 
" style="fill:none;stroke:#000000;stroke-linecap:square;stroke-linejoin:miter;stroke-width:0.8;"/>
   </g>
   <g id="patch_5">
    <path d="M 57.6 307.584 
L 414.72 307.584 
" style="fill:none;stroke:#000000;stroke-linecap:square;stroke-linejoin:miter;stroke-width:0.8;"/>
   </g>
   <g id="patch_6">
    <path d="M 57.6 41.472 
L 414.72 41.472 
" style="fill:none;stroke:#000000;stroke-linecap:square;stroke-linejoin:miter;stroke-width:0.8;"/>
   </g>
   <g id="text_17">
    <!-- Test -->
    <defs>
     <path d="M -0.296875 72.90625 
L 61.375 72.90625 
L 61.375 64.59375 
L 35.5 64.59375 
L 35.5 0 
L 25.59375 0 
L 25.59375 64.59375 
L -0.296875 64.59375 
z
" id="DejaVuSans-54"/>
    </defs>
    <g transform="translate(223.341563 35.472)scale(0.12 -0.12)">
     <use xlink:href="#DejaVuSans-54"/>
     <use x="60.818359" xlink:href="#DejaVuSans-65"/>
     <use x="122.341797" xlink:href="#DejaVuSans-73"/>
     <use x="174.441406" xlink:href="#DejaVuSans-74"/>
    </g>
   </g>
   <g id="legend_1">
    <g id="patch_7">
     <path d="M 64.6 64.150125 
L 306.276563 64.150125 
Q 308.276563 64.150125 308.276563 62.150125 
L 308.276563 48.472 
Q 308.276563 46.472 306.276563 46.472 
L 64.6 46.472 
Q 62.6 46.472 62.6 48.472 
L 62.6 62.150125 
Q 62.6 64.150125 64.6 64.150125 
z
" style="fill:#ffffff;opacity:0.8;stroke:#cccccc;stroke-linejoin:miter;"/>
    </g>
    <g id="line2d_30">
     <path d="M 66.6 54.570438 
L 86.6 54.570438 
" style="fill:none;stroke:#000080;stroke-linecap:square;stroke-width:0.5;"/>
    </g>
    <g id="line2d_31"/>
    <g id="text_18">
     <!-- Successful download requests per second -->
     <g transform="translate(94.6 58.070438)scale(0.1 -0.1)">
      <use xlink:href="#DejaVuSans-53"/>
      <use x="63.476562" xlink:href="#DejaVuSans-75"/>
      <use x="126.855469" xlink:href="#DejaVuSans-63"/>
      <use x="181.835938" xlink:href="#DejaVuSans-63"/>
      <use x="236.816406" xlink:href="#DejaVuSans-65"/>
      <use x="298.339844" xlink:href="#DejaVuSans-73"/>
      <use x="350.439453" xlink:href="#DejaVuSans-73"/>
      <use x="402.539062" xlink:href="#DejaVuSans-66"/>
      <use x="437.744141" xlink:href="#DejaVuSans-75"/>
      <use x="501.123047" xlink:href="#DejaVuSans-6c"/>
      <use x="528.90625" xlink:href="#DejaVuSans-20"/>
      <use x="560.693359" xlink:href="#DejaVuSans-64"/>
      <use x="624.169922" xlink:href="#DejaVuSans-6f"/>
      <use x="685.351562" xlink:href="#DejaVuSans-77"/>
      <use x="767.138672" xlink:href="#DejaVuSans-6e"/>
      <use x="830.517578" xlink:href="#DejaVuSans-6c"/>
      <use x="858.300781" xlink:href="#DejaVuSans-6f"/>
      <use x="919.482422" xlink:href="#DejaVuSans-61"/>
      <use x="980.761719" xlink:href="#DejaVuSans-64"/>
      <use x="1044.238281" xlink:href="#DejaVuSans-20"/>
      <use x="1076.025391" xlink:href="#DejaVuSans-72"/>
      <use x="1117.107422" xlink:href="#DejaVuSans-65"/>
      <use x="1178.630859" xlink:href="#DejaVuSans-71"/>
      <use x="1242.107422" xlink:href="#DejaVuSans-75"/>
      <use x="1305.486328" xlink:href="#DejaVuSans-65"/>
      <use x="1367.009766" xlink:href="#DejaVuSans-73"/>
      <use x="1419.109375" xlink:href="#DejaVuSans-74"/>
      <use x="1458.318359" xlink:href="#DejaVuSans-73"/>
      <use x="1510.417969" xlink:href="#DejaVuSans-20"/>
      <use x="1542.205078" xlink:href="#DejaVuSans-70"/>
      <use x="1605.681641" xlink:href="#DejaVuSans-65"/>
      <use x="1667.205078" xlink:href="#DejaVuSans-72"/>
      <use x="1708.318359" xlink:href="#DejaVuSans-20"/>
      <use x="1740.105469" xlink:href="#DejaVuSans-73"/>
      <use x="1792.205078" xlink:href="#DejaVuSans-65"/>
      <use x="1853.728516" xlink:href="#DejaVuSans-63"/>
      <use x="1908.708984" xlink:href="#DejaVuSans-6f"/>
      <use x="1969.890625" xlink:href="#DejaVuSans-6e"/>
      <use x="2033.269531" xlink:href="#DejaVuSans-64"/>
     </g>
    </g>
   </g>
  </g>
 </g>
 <defs>
  <clipPath id="pb2fc1fd475">
   <rect height="266.112" width="357.12" x="57.6" y="41.472"/>
  </clipPath>
 </defs>
</svg>
