<?xml version="1.0" encoding="utf-8" standalone="no"?>
<!DOCTYPE svg PUBLIC "-//W3C//DTD SVG 1.1//EN"
  "http://www.w3.org/Graphics/SVG/1.1/DTD/svg11.dtd">
<!-- Created with matplotlib (http://matplotlib.org/) -->
<svg height="345pt" version="1.1" viewBox="0 0 460 345" width="460pt" xmlns="http://www.w3.org/2000/svg" xmlns:xlink="http://www.w3.org/1999/xlink">
 <defs>
  <style type="text/css">
*{stroke-linecap:butt;stroke-linejoin:round;}
  </style>
 </defs>
 <g id="figure_1">
  <g id="patch_1">
   <path d="M 0 345.6 
L 460.8 345.6 
L 460.8 0 
L 0 0 
z
" style="fill:#ffffff;"/>
  </g>
  <g id="axes_1">
   <g id="patch_2">
    <path d="M 57.6 307.584 
L 414.72 307.584 
L 414.72 41.472 
L 57.6 41.472 
z
" style="fill:#ffffff;"/>
   </g>
   <g id="matplotlib.axis_1">
    <g id="xtick_1">
     <g id="line2d_1">
      <path clip-path="url(#p65d24f6e77)" d="M 57.6 307.584 
L 57.6 41.472 
" style="fill:none;stroke:#b0b0b0;stroke-linecap:square;stroke-width:0.8;"/>
     </g>
     <g id="line2d_2">
      <defs>
       <path d="M 0 0 
L 0 3.5 
" id="m567e60a2b1" style="stroke:#000000;stroke-width:0.8;"/>
      </defs>
      <g>
       <use style="stroke:#000000;stroke-width:0.8;" x="57.6" xlink:href="#m567e60a2b1" y="307.584"/>
      </g>
     </g>
     <g id="text_1">
      <!-- 0 -->
      <defs>
       <path d="M 31.78125 66.40625 
Q 24.171875 66.40625 20.328125 58.90625 
Q 16.5 51.421875 16.5 36.375 
Q 16.5 21.390625 20.328125 13.890625 
Q 24.171875 6.390625 31.78125 6.390625 
Q 39.453125 6.390625 43.28125 13.890625 
Q 47.125 21.390625 47.125 36.375 
Q 47.125 51.421875 43.28125 58.90625 
Q 39.453125 66.40625 31.78125 66.40625 
M 31.78125 74.21875 
Q 44.046875 74.21875 50.515625 64.515625 
Q 56.984375 54.828125 56.984375 36.375 
Q 56.984375 17.96875 50.515625 8.265625 
Q 44.046875 -1.421875 31.78125 -1.421875 
Q 19.53125 -1.421875 13.0625 8.265625 
Q 6.59375 17.96875 6.59375 36.375 
Q 6.59375 54.828125 13.0625 64.515625 
Q 19.53125 74.21875 31.78125 74.21875 
" id="DejaVuSans-30"/>
      </defs>
      <g transform="translate(54.41875 322.182437)scale(0.1 -0.1)">
       <use xlink:href="#DejaVuSans-30"/>
      </g>
     </g>
    </g>
    <g id="xtick_2">
     <g id="line2d_3">
      <path clip-path="url(#p65d24f6e77)" d="M 129.024 307.584 
L 129.024 41.472 
" style="fill:none;stroke:#b0b0b0;stroke-linecap:square;stroke-width:0.8;"/>
     </g>
     <g id="line2d_4">
      <g>
       <use style="stroke:#000000;stroke-width:0.8;" x="129.024" xlink:href="#m567e60a2b1" y="307.584"/>
      </g>
     </g>
     <g id="text_2">
      <!-- 200 -->
      <defs>
       <path d="M 19.1875 8.296875 
L 53.609375 8.296875 
L 53.609375 0 
L 7.328125 0 
L 7.328125 8.296875 
Q 12.9375 14.109375 22.625 23.890625 
Q 32.328125 33.6875 34.8125 36.53125 
Q 39.546875 41.84375 41.421875 45.53125 
Q 43.3125 49.21875 43.3125 52.78125 
Q 43.3125 58.59375 39.234375 62.25 
Q 35.15625 65.921875 28.609375 65.921875 
Q 23.96875 65.921875 18.8125 64.3125 
Q 13.671875 62.703125 7.8125 59.421875 
L 7.8125 69.390625 
Q 13.765625 71.78125 18.9375 73 
Q 24.125 74.21875 28.421875 74.21875 
Q 39.75 74.21875 46.484375 68.546875 
Q 53.21875 62.890625 53.21875 53.421875 
Q 53.21875 48.921875 51.53125 44.890625 
Q 49.859375 40.875 45.40625 35.40625 
Q 44.1875 33.984375 37.640625 27.21875 
Q 31.109375 20.453125 19.1875 8.296875 
" id="DejaVuSans-32"/>
      </defs>
      <g transform="translate(119.48025 322.182437)scale(0.1 -0.1)">
       <use xlink:href="#DejaVuSans-32"/>
       <use x="63.623047" xlink:href="#DejaVuSans-30"/>
       <use x="127.246094" xlink:href="#DejaVuSans-30"/>
      </g>
     </g>
    </g>
    <g id="xtick_3">
     <g id="line2d_5">
      <path clip-path="url(#p65d24f6e77)" d="M 200.448 307.584 
L 200.448 41.472 
" style="fill:none;stroke:#b0b0b0;stroke-linecap:square;stroke-width:0.8;"/>
     </g>
     <g id="line2d_6">
      <g>
       <use style="stroke:#000000;stroke-width:0.8;" x="200.448" xlink:href="#m567e60a2b1" y="307.584"/>
      </g>
     </g>
     <g id="text_3">
      <!-- 400 -->
      <defs>
       <path d="M 37.796875 64.3125 
L 12.890625 25.390625 
L 37.796875 25.390625 
z
M 35.203125 72.90625 
L 47.609375 72.90625 
L 47.609375 25.390625 
L 58.015625 25.390625 
L 58.015625 17.1875 
L 47.609375 17.1875 
L 47.609375 0 
L 37.796875 0 
L 37.796875 17.1875 
L 4.890625 17.1875 
L 4.890625 26.703125 
z
" id="DejaVuSans-34"/>
      </defs>
      <g transform="translate(190.90425 322.182437)scale(0.1 -0.1)">
       <use xlink:href="#DejaVuSans-34"/>
       <use x="63.623047" xlink:href="#DejaVuSans-30"/>
       <use x="127.246094" xlink:href="#DejaVuSans-30"/>
      </g>
     </g>
    </g>
    <g id="xtick_4">
     <g id="line2d_7">
      <path clip-path="url(#p65d24f6e77)" d="M 271.872 307.584 
L 271.872 41.472 
" style="fill:none;stroke:#b0b0b0;stroke-linecap:square;stroke-width:0.8;"/>
     </g>
     <g id="line2d_8">
      <g>
       <use style="stroke:#000000;stroke-width:0.8;" x="271.872" xlink:href="#m567e60a2b1" y="307.584"/>
      </g>
     </g>
     <g id="text_4">
      <!-- 600 -->
      <defs>
       <path d="M 33.015625 40.375 
Q 26.375 40.375 22.484375 35.828125 
Q 18.609375 31.296875 18.609375 23.390625 
Q 18.609375 15.53125 22.484375 10.953125 
Q 26.375 6.390625 33.015625 6.390625 
Q 39.65625 6.390625 43.53125 10.953125 
Q 47.40625 15.53125 47.40625 23.390625 
Q 47.40625 31.296875 43.53125 35.828125 
Q 39.65625 40.375 33.015625 40.375 
M 52.59375 71.296875 
L 52.59375 62.3125 
Q 48.875 64.0625 45.09375 64.984375 
Q 41.3125 65.921875 37.59375 65.921875 
Q 27.828125 65.921875 22.671875 59.328125 
Q 17.53125 52.734375 16.796875 39.40625 
Q 19.671875 43.65625 24.015625 45.921875 
Q 28.375 48.1875 33.59375 48.1875 
Q 44.578125 48.1875 50.953125 41.515625 
Q 57.328125 34.859375 57.328125 23.390625 
Q 57.328125 12.15625 50.6875 5.359375 
Q 44.046875 -1.421875 33.015625 -1.421875 
Q 20.359375 -1.421875 13.671875 8.265625 
Q 6.984375 17.96875 6.984375 36.375 
Q 6.984375 53.65625 15.1875 63.9375 
Q 23.390625 74.21875 37.203125 74.21875 
Q 40.921875 74.21875 44.703125 73.484375 
Q 48.484375 72.75 52.59375 71.296875 
" id="DejaVuSans-36"/>
      </defs>
      <g transform="translate(262.32825 322.182437)scale(0.1 -0.1)">
       <use xlink:href="#DejaVuSans-36"/>
       <use x="63.623047" xlink:href="#DejaVuSans-30"/>
       <use x="127.246094" xlink:href="#DejaVuSans-30"/>
      </g>
     </g>
    </g>
    <g id="xtick_5">
     <g id="line2d_9">
      <path clip-path="url(#p65d24f6e77)" d="M 343.296 307.584 
L 343.296 41.472 
" style="fill:none;stroke:#b0b0b0;stroke-linecap:square;stroke-width:0.8;"/>
     </g>
     <g id="line2d_10">
      <g>
       <use style="stroke:#000000;stroke-width:0.8;" x="343.296" xlink:href="#m567e60a2b1" y="307.584"/>
      </g>
     </g>
     <g id="text_5">
      <!-- 800 -->
      <defs>
       <path d="M 31.78125 34.625 
Q 24.75 34.625 20.71875 30.859375 
Q 16.703125 27.09375 16.703125 20.515625 
Q 16.703125 13.921875 20.71875 10.15625 
Q 24.75 6.390625 31.78125 6.390625 
Q 38.8125 6.390625 42.859375 10.171875 
Q 46.921875 13.96875 46.921875 20.515625 
Q 46.921875 27.09375 42.890625 30.859375 
Q 38.875 34.625 31.78125 34.625 
M 21.921875 38.8125 
Q 15.578125 40.375 12.03125 44.71875 
Q 8.5 49.078125 8.5 55.328125 
Q 8.5 64.0625 14.71875 69.140625 
Q 20.953125 74.21875 31.78125 74.21875 
Q 42.671875 74.21875 48.875 69.140625 
Q 55.078125 64.0625 55.078125 55.328125 
Q 55.078125 49.078125 51.53125 44.71875 
Q 48 40.375 41.703125 38.8125 
Q 48.828125 37.15625 52.796875 32.3125 
Q 56.78125 27.484375 56.78125 20.515625 
Q 56.78125 9.90625 50.3125 4.234375 
Q 43.84375 -1.421875 31.78125 -1.421875 
Q 19.734375 -1.421875 13.25 4.234375 
Q 6.78125 9.90625 6.78125 20.515625 
Q 6.78125 27.484375 10.78125 32.3125 
Q 14.796875 37.15625 21.921875 38.8125 
M 18.3125 54.390625 
Q 18.3125 48.734375 21.84375 45.5625 
Q 25.390625 42.390625 31.78125 42.390625 
Q 38.140625 42.390625 41.71875 45.5625 
Q 45.3125 48.734375 45.3125 54.390625 
Q 45.3125 60.0625 41.71875 63.234375 
Q 38.140625 66.40625 31.78125 66.40625 
Q 25.390625 66.40625 21.84375 63.234375 
Q 18.3125 60.0625 18.3125 54.390625 
" id="DejaVuSans-38"/>
      </defs>
      <g transform="translate(333.75225 322.182437)scale(0.1 -0.1)">
       <use xlink:href="#DejaVuSans-38"/>
       <use x="63.623047" xlink:href="#DejaVuSans-30"/>
       <use x="127.246094" xlink:href="#DejaVuSans-30"/>
      </g>
     </g>
    </g>
    <g id="xtick_6">
     <g id="line2d_11">
      <path clip-path="url(#p65d24f6e77)" d="M 414.72 307.584 
L 414.72 41.472 
" style="fill:none;stroke:#b0b0b0;stroke-linecap:square;stroke-width:0.8;"/>
     </g>
     <g id="line2d_12">
      <g>
       <use style="stroke:#000000;stroke-width:0.8;" x="414.72" xlink:href="#m567e60a2b1" y="307.584"/>
      </g>
     </g>
     <g id="text_6">
      <!-- 1000 -->
      <defs>
       <path d="M 12.40625 8.296875 
L 28.515625 8.296875 
L 28.515625 63.921875 
L 10.984375 60.40625 
L 10.984375 69.390625 
L 28.421875 72.90625 
L 38.28125 72.90625 
L 38.28125 8.296875 
L 54.390625 8.296875 
L 54.390625 0 
L 12.40625 0 
z
" id="DejaVuSans-31"/>
      </defs>
      <g transform="translate(401.995 322.182437)scale(0.1 -0.1)">
       <use xlink:href="#DejaVuSans-31"/>
       <use x="63.623047" xlink:href="#DejaVuSans-30"/>
       <use x="127.246094" xlink:href="#DejaVuSans-30"/>
       <use x="190.869141" xlink:href="#DejaVuSans-30"/>
      </g>
     </g>
    </g>
    <g id="text_7">
     <!-- Number of clients -->
     <defs>
      <path d="M 9.8125 72.90625 
L 23.09375 72.90625 
L 55.421875 11.921875 
L 55.421875 72.90625 
L 64.984375 72.90625 
L 64.984375 0 
L 51.703125 0 
L 19.390625 60.984375 
L 19.390625 0 
L 9.8125 0 
z
" id="DejaVuSans-4e"/>
      <path d="M 8.5 21.578125 
L 8.5 54.6875 
L 17.484375 54.6875 
L 17.484375 21.921875 
Q 17.484375 14.15625 20.5 10.265625 
Q 23.53125 6.390625 29.59375 6.390625 
Q 36.859375 6.390625 41.078125 11.03125 
Q 45.3125 15.671875 45.3125 23.6875 
L 45.3125 54.6875 
L 54.296875 54.6875 
L 54.296875 0 
L 45.3125 0 
L 45.3125 8.40625 
Q 42.046875 3.421875 37.71875 1 
Q 33.40625 -1.421875 27.6875 -1.421875 
Q 18.265625 -1.421875 13.375 4.4375 
Q 8.5 10.296875 8.5 21.578125 
M 31.109375 56 
z
" id="DejaVuSans-75"/>
      <path d="M 52 44.1875 
Q 55.375 50.25 60.0625 53.125 
Q 64.75 56 71.09375 56 
Q 79.640625 56 84.28125 50.015625 
Q 88.921875 44.046875 88.921875 33.015625 
L 88.921875 0 
L 79.890625 0 
L 79.890625 32.71875 
Q 79.890625 40.578125 77.09375 44.375 
Q 74.3125 48.1875 68.609375 48.1875 
Q 61.625 48.1875 57.5625 43.546875 
Q 53.515625 38.921875 53.515625 30.90625 
L 53.515625 0 
L 44.484375 0 
L 44.484375 32.71875 
Q 44.484375 40.625 41.703125 44.40625 
Q 38.921875 48.1875 33.109375 48.1875 
Q 26.21875 48.1875 22.15625 43.53125 
Q 18.109375 38.875 18.109375 30.90625 
L 18.109375 0 
L 9.078125 0 
L 9.078125 54.6875 
L 18.109375 54.6875 
L 18.109375 46.1875 
Q 21.1875 51.21875 25.484375 53.609375 
Q 29.78125 56 35.6875 56 
Q 41.65625 56 45.828125 52.96875 
Q 50 49.953125 52 44.1875 
" id="DejaVuSans-6d"/>
      <path d="M 48.6875 27.296875 
Q 48.6875 37.203125 44.609375 42.84375 
Q 40.53125 48.484375 33.40625 48.484375 
Q 26.265625 48.484375 22.1875 42.84375 
Q 18.109375 37.203125 18.109375 27.296875 
Q 18.109375 17.390625 22.1875 11.75 
Q 26.265625 6.109375 33.40625 6.109375 
Q 40.53125 6.109375 44.609375 11.75 
Q 48.6875 17.390625 48.6875 27.296875 
M 18.109375 46.390625 
Q 20.953125 51.265625 25.265625 53.625 
Q 29.59375 56 35.59375 56 
Q 45.5625 56 51.78125 48.09375 
Q 58.015625 40.1875 58.015625 27.296875 
Q 58.015625 14.40625 51.78125 6.484375 
Q 45.5625 -1.421875 35.59375 -1.421875 
Q 29.59375 -1.421875 25.265625 0.953125 
Q 20.953125 3.328125 18.109375 8.203125 
L 18.109375 0 
L 9.078125 0 
L 9.078125 75.984375 
L 18.109375 75.984375 
z
" id="DejaVuSans-62"/>
      <path d="M 56.203125 29.59375 
L 56.203125 25.203125 
L 14.890625 25.203125 
Q 15.484375 15.921875 20.484375 11.0625 
Q 25.484375 6.203125 34.421875 6.203125 
Q 39.59375 6.203125 44.453125 7.46875 
Q 49.3125 8.734375 54.109375 11.28125 
L 54.109375 2.78125 
Q 49.265625 0.734375 44.1875 -0.34375 
Q 39.109375 -1.421875 33.890625 -1.421875 
Q 20.796875 -1.421875 13.15625 6.1875 
Q 5.515625 13.8125 5.515625 26.8125 
Q 5.515625 40.234375 12.765625 48.109375 
Q 20.015625 56 32.328125 56 
Q 43.359375 56 49.78125 48.890625 
Q 56.203125 41.796875 56.203125 29.59375 
M 47.21875 32.234375 
Q 47.125 39.59375 43.09375 43.984375 
Q 39.0625 48.390625 32.421875 48.390625 
Q 24.90625 48.390625 20.390625 44.140625 
Q 15.875 39.890625 15.1875 32.171875 
z
" id="DejaVuSans-65"/>
      <path d="M 41.109375 46.296875 
Q 39.59375 47.171875 37.8125 47.578125 
Q 36.03125 48 33.890625 48 
Q 26.265625 48 22.1875 43.046875 
Q 18.109375 38.09375 18.109375 28.8125 
L 18.109375 0 
L 9.078125 0 
L 9.078125 54.6875 
L 18.109375 54.6875 
L 18.109375 46.1875 
Q 20.953125 51.171875 25.484375 53.578125 
Q 30.03125 56 36.53125 56 
Q 37.453125 56 38.578125 55.875 
Q 39.703125 55.765625 41.0625 55.515625 
z
" id="DejaVuSans-72"/>
      <path id="DejaVuSans-20"/>
      <path d="M 30.609375 48.390625 
Q 23.390625 48.390625 19.1875 42.75 
Q 14.984375 37.109375 14.984375 27.296875 
Q 14.984375 17.484375 19.15625 11.84375 
Q 23.34375 6.203125 30.609375 6.203125 
Q 37.796875 6.203125 41.984375 11.859375 
Q 46.1875 17.53125 46.1875 27.296875 
Q 46.1875 37.015625 41.984375 42.703125 
Q 37.796875 48.390625 30.609375 48.390625 
M 30.609375 56 
Q 42.328125 56 49.015625 48.375 
Q 55.71875 40.765625 55.71875 27.296875 
Q 55.71875 13.875 49.015625 6.21875 
Q 42.328125 -1.421875 30.609375 -1.421875 
Q 18.84375 -1.421875 12.171875 6.21875 
Q 5.515625 13.875 5.515625 27.296875 
Q 5.515625 40.765625 12.171875 48.375 
Q 18.84375 56 30.609375 56 
" id="DejaVuSans-6f"/>
      <path d="M 37.109375 75.984375 
L 37.109375 68.5 
L 28.515625 68.5 
Q 23.6875 68.5 21.796875 66.546875 
Q 19.921875 64.59375 19.921875 59.515625 
L 19.921875 54.6875 
L 34.71875 54.6875 
L 34.71875 47.703125 
L 19.921875 47.703125 
L 19.921875 0 
L 10.890625 0 
L 10.890625 47.703125 
L 2.296875 47.703125 
L 2.296875 54.6875 
L 10.890625 54.6875 
L 10.890625 58.5 
Q 10.890625 67.625 15.140625 71.796875 
Q 19.390625 75.984375 28.609375 75.984375 
z
" id="DejaVuSans-66"/>
      <path d="M 48.78125 52.59375 
L 48.78125 44.1875 
Q 44.96875 46.296875 41.140625 47.34375 
Q 37.3125 48.390625 33.40625 48.390625 
Q 24.65625 48.390625 19.8125 42.84375 
Q 14.984375 37.3125 14.984375 27.296875 
Q 14.984375 17.28125 19.8125 11.734375 
Q 24.65625 6.203125 33.40625 6.203125 
Q 37.3125 6.203125 41.140625 7.25 
Q 44.96875 8.296875 48.78125 10.40625 
L 48.78125 2.09375 
Q 45.015625 0.34375 40.984375 -0.53125 
Q 36.96875 -1.421875 32.421875 -1.421875 
Q 20.0625 -1.421875 12.78125 6.34375 
Q 5.515625 14.109375 5.515625 27.296875 
Q 5.515625 40.671875 12.859375 48.328125 
Q 20.21875 56 33.015625 56 
Q 37.15625 56 41.109375 55.140625 
Q 45.0625 54.296875 48.78125 52.59375 
" id="DejaVuSans-63"/>
      <path d="M 9.421875 75.984375 
L 18.40625 75.984375 
L 18.40625 0 
L 9.421875 0 
z
" id="DejaVuSans-6c"/>
      <path d="M 9.421875 54.6875 
L 18.40625 54.6875 
L 18.40625 0 
L 9.421875 0 
z
M 9.421875 75.984375 
L 18.40625 75.984375 
L 18.40625 64.59375 
L 9.421875 64.59375 
z
" id="DejaVuSans-69"/>
      <path d="M 54.890625 33.015625 
L 54.890625 0 
L 45.90625 0 
L 45.90625 32.71875 
Q 45.90625 40.484375 42.875 44.328125 
Q 39.84375 48.1875 33.796875 48.1875 
Q 26.515625 48.1875 22.3125 43.546875 
Q 18.109375 38.921875 18.109375 30.90625 
L 18.109375 0 
L 9.078125 0 
L 9.078125 54.6875 
L 18.109375 54.6875 
L 18.109375 46.1875 
Q 21.34375 51.125 25.703125 53.5625 
Q 30.078125 56 35.796875 56 
Q 45.21875 56 50.046875 50.171875 
Q 54.890625 44.34375 54.890625 33.015625 
" id="DejaVuSans-6e"/>
      <path d="M 18.3125 70.21875 
L 18.3125 54.6875 
L 36.8125 54.6875 
L 36.8125 47.703125 
L 18.3125 47.703125 
L 18.3125 18.015625 
Q 18.3125 11.328125 20.140625 9.421875 
Q 21.96875 7.515625 27.59375 7.515625 
L 36.8125 7.515625 
L 36.8125 0 
L 27.59375 0 
Q 17.1875 0 13.234375 3.875 
Q 9.28125 7.765625 9.28125 18.015625 
L 9.28125 47.703125 
L 2.6875 47.703125 
L 2.6875 54.6875 
L 9.28125 54.6875 
L 9.28125 70.21875 
z
" id="DejaVuSans-74"/>
      <path d="M 44.28125 53.078125 
L 44.28125 44.578125 
Q 40.484375 46.53125 36.375 47.5 
Q 32.28125 48.484375 27.875 48.484375 
Q 21.1875 48.484375 17.84375 46.4375 
Q 14.5 44.390625 14.5 40.28125 
Q 14.5 37.15625 16.890625 35.375 
Q 19.28125 33.59375 26.515625 31.984375 
L 29.59375 31.296875 
Q 39.15625 29.25 43.1875 25.515625 
Q 47.21875 21.78125 47.21875 15.09375 
Q 47.21875 7.46875 41.1875 3.015625 
Q 35.15625 -1.421875 24.609375 -1.421875 
Q 20.21875 -1.421875 15.453125 -0.5625 
Q 10.6875 0.296875 5.421875 2 
L 5.421875 11.28125 
Q 10.40625 8.6875 15.234375 7.390625 
Q 20.0625 6.109375 24.8125 6.109375 
Q 31.15625 6.109375 34.5625 8.28125 
Q 37.984375 10.453125 37.984375 14.40625 
Q 37.984375 18.0625 35.515625 20.015625 
Q 33.0625 21.96875 24.703125 23.78125 
L 21.578125 24.515625 
Q 13.234375 26.265625 9.515625 29.90625 
Q 5.8125 33.546875 5.8125 39.890625 
Q 5.8125 47.609375 11.28125 51.796875 
Q 16.75 56 26.8125 56 
Q 31.78125 56 36.171875 55.265625 
Q 40.578125 54.546875 44.28125 53.078125 
" id="DejaVuSans-73"/>
     </defs>
     <g transform="translate(191.738906 335.860562)scale(0.1 -0.1)">
      <use xlink:href="#DejaVuSans-4e"/>
      <use x="74.804688" xlink:href="#DejaVuSans-75"/>
      <use x="138.183594" xlink:href="#DejaVuSans-6d"/>
      <use x="235.595703" xlink:href="#DejaVuSans-62"/>
      <use x="299.072266" xlink:href="#DejaVuSans-65"/>
      <use x="360.595703" xlink:href="#DejaVuSans-72"/>
      <use x="401.708984" xlink:href="#DejaVuSans-20"/>
      <use x="433.496094" xlink:href="#DejaVuSans-6f"/>
      <use x="494.677734" xlink:href="#DejaVuSans-66"/>
      <use x="529.882812" xlink:href="#DejaVuSans-20"/>
      <use x="561.669922" xlink:href="#DejaVuSans-63"/>
      <use x="616.650391" xlink:href="#DejaVuSans-6c"/>
      <use x="644.433594" xlink:href="#DejaVuSans-69"/>
      <use x="672.216797" xlink:href="#DejaVuSans-65"/>
      <use x="733.740234" xlink:href="#DejaVuSans-6e"/>
      <use x="797.119141" xlink:href="#DejaVuSans-74"/>
      <use x="836.328125" xlink:href="#DejaVuSans-73"/>
     </g>
    </g>
   </g>
   <g id="matplotlib.axis_2">
    <g id="ytick_1">
     <g id="line2d_13">
      <path clip-path="url(#p65d24f6e77)" d="M 57.6 295.839854 
L 414.72 295.839854 
" style="fill:none;stroke:#b0b0b0;stroke-linecap:square;stroke-width:0.8;"/>
     </g>
     <g id="line2d_14">
      <defs>
       <path d="M 0 0 
L -3.5 0 
" id="m1bacae68ea" style="stroke:#000000;stroke-width:0.8;"/>
      </defs>
      <g>
       <use style="stroke:#000000;stroke-width:0.8;" x="57.6" xlink:href="#m1bacae68ea" y="295.839854"/>
      </g>
     </g>
     <g id="text_8">
      <!-- 0 -->
      <g transform="translate(44.2375 299.639072)scale(0.1 -0.1)">
       <use xlink:href="#DejaVuSans-30"/>
      </g>
     </g>
    </g>
    <g id="ytick_2">
     <g id="line2d_15">
      <path clip-path="url(#p65d24f6e77)" d="M 57.6 258.957925 
L 414.72 258.957925 
" style="fill:none;stroke:#b0b0b0;stroke-linecap:square;stroke-width:0.8;"/>
     </g>
     <g id="line2d_16">
      <g>
       <use style="stroke:#000000;stroke-width:0.8;" x="57.6" xlink:href="#m1bacae68ea" y="258.957925"/>
      </g>
     </g>
     <g id="text_9">
      <!-- 100 -->
      <g transform="translate(31.5125 262.757144)scale(0.1 -0.1)">
       <use xlink:href="#DejaVuSans-31"/>
       <use x="63.623047" xlink:href="#DejaVuSans-30"/>
       <use x="127.246094" xlink:href="#DejaVuSans-30"/>
      </g>
     </g>
    </g>
    <g id="ytick_3">
     <g id="line2d_17">
      <path clip-path="url(#p65d24f6e77)" d="M 57.6 222.075997 
L 414.72 222.075997 
" style="fill:none;stroke:#b0b0b0;stroke-linecap:square;stroke-width:0.8;"/>
     </g>
     <g id="line2d_18">
      <g>
       <use style="stroke:#000000;stroke-width:0.8;" x="57.6" xlink:href="#m1bacae68ea" y="222.075997"/>
      </g>
     </g>
     <g id="text_10">
      <!-- 200 -->
      <g transform="translate(31.5125 225.875216)scale(0.1 -0.1)">
       <use xlink:href="#DejaVuSans-32"/>
       <use x="63.623047" xlink:href="#DejaVuSans-30"/>
       <use x="127.246094" xlink:href="#DejaVuSans-30"/>
      </g>
     </g>
    </g>
    <g id="ytick_4">
     <g id="line2d_19">
      <path clip-path="url(#p65d24f6e77)" d="M 57.6 185.194069 
L 414.72 185.194069 
" style="fill:none;stroke:#b0b0b0;stroke-linecap:square;stroke-width:0.8;"/>
     </g>
     <g id="line2d_20">
      <g>
       <use style="stroke:#000000;stroke-width:0.8;" x="57.6" xlink:href="#m1bacae68ea" y="185.194069"/>
      </g>
     </g>
     <g id="text_11">
      <!-- 300 -->
      <defs>
       <path d="M 40.578125 39.3125 
Q 47.65625 37.796875 51.625 33 
Q 55.609375 28.21875 55.609375 21.1875 
Q 55.609375 10.40625 48.1875 4.484375 
Q 40.765625 -1.421875 27.09375 -1.421875 
Q 22.515625 -1.421875 17.65625 -0.515625 
Q 12.796875 0.390625 7.625 2.203125 
L 7.625 11.71875 
Q 11.71875 9.328125 16.59375 8.109375 
Q 21.484375 6.890625 26.8125 6.890625 
Q 36.078125 6.890625 40.9375 10.546875 
Q 45.796875 14.203125 45.796875 21.1875 
Q 45.796875 27.640625 41.28125 31.265625 
Q 36.765625 34.90625 28.71875 34.90625 
L 20.21875 34.90625 
L 20.21875 43.015625 
L 29.109375 43.015625 
Q 36.375 43.015625 40.234375 45.921875 
Q 44.09375 48.828125 44.09375 54.296875 
Q 44.09375 59.90625 40.109375 62.90625 
Q 36.140625 65.921875 28.71875 65.921875 
Q 24.65625 65.921875 20.015625 65.03125 
Q 15.375 64.15625 9.8125 62.3125 
L 9.8125 71.09375 
Q 15.4375 72.65625 20.34375 73.4375 
Q 25.25 74.21875 29.59375 74.21875 
Q 40.828125 74.21875 47.359375 69.109375 
Q 53.90625 64.015625 53.90625 55.328125 
Q 53.90625 49.265625 50.4375 45.09375 
Q 46.96875 40.921875 40.578125 39.3125 
" id="DejaVuSans-33"/>
      </defs>
      <g transform="translate(31.5125 188.993288)scale(0.1 -0.1)">
       <use xlink:href="#DejaVuSans-33"/>
       <use x="63.623047" xlink:href="#DejaVuSans-30"/>
       <use x="127.246094" xlink:href="#DejaVuSans-30"/>
      </g>
     </g>
    </g>
    <g id="ytick_5">
     <g id="line2d_21">
      <path clip-path="url(#p65d24f6e77)" d="M 57.6 148.312141 
L 414.72 148.312141 
" style="fill:none;stroke:#b0b0b0;stroke-linecap:square;stroke-width:0.8;"/>
     </g>
     <g id="line2d_22">
      <g>
       <use style="stroke:#000000;stroke-width:0.8;" x="57.6" xlink:href="#m1bacae68ea" y="148.312141"/>
      </g>
     </g>
     <g id="text_12">
      <!-- 400 -->
      <g transform="translate(31.5125 152.11136)scale(0.1 -0.1)">
       <use xlink:href="#DejaVuSans-34"/>
       <use x="63.623047" xlink:href="#DejaVuSans-30"/>
       <use x="127.246094" xlink:href="#DejaVuSans-30"/>
      </g>
     </g>
    </g>
    <g id="ytick_6">
     <g id="line2d_23">
      <path clip-path="url(#p65d24f6e77)" d="M 57.6 111.430213 
L 414.72 111.430213 
" style="fill:none;stroke:#b0b0b0;stroke-linecap:square;stroke-width:0.8;"/>
     </g>
     <g id="line2d_24">
      <g>
       <use style="stroke:#000000;stroke-width:0.8;" x="57.6" xlink:href="#m1bacae68ea" y="111.430213"/>
      </g>
     </g>
     <g id="text_13">
      <!-- 500 -->
      <defs>
       <path d="M 10.796875 72.90625 
L 49.515625 72.90625 
L 49.515625 64.59375 
L 19.828125 64.59375 
L 19.828125 46.734375 
Q 21.96875 47.46875 24.109375 47.828125 
Q 26.265625 48.1875 28.421875 48.1875 
Q 40.625 48.1875 47.75 41.5 
Q 54.890625 34.8125 54.890625 23.390625 
Q 54.890625 11.625 47.5625 5.09375 
Q 40.234375 -1.421875 26.90625 -1.421875 
Q 22.3125 -1.421875 17.546875 -0.640625 
Q 12.796875 0.140625 7.71875 1.703125 
L 7.71875 11.625 
Q 12.109375 9.234375 16.796875 8.0625 
Q 21.484375 6.890625 26.703125 6.890625 
Q 35.15625 6.890625 40.078125 11.328125 
Q 45.015625 15.765625 45.015625 23.390625 
Q 45.015625 31 40.078125 35.4375 
Q 35.15625 39.890625 26.703125 39.890625 
Q 22.75 39.890625 18.8125 39.015625 
Q 14.890625 38.140625 10.796875 36.28125 
z
" id="DejaVuSans-35"/>
      </defs>
      <g transform="translate(31.5125 115.229432)scale(0.1 -0.1)">
       <use xlink:href="#DejaVuSans-35"/>
       <use x="63.623047" xlink:href="#DejaVuSans-30"/>
       <use x="127.246094" xlink:href="#DejaVuSans-30"/>
      </g>
     </g>
    </g>
    <g id="ytick_7">
     <g id="line2d_25">
      <path clip-path="url(#p65d24f6e77)" d="M 57.6 74.548285 
L 414.72 74.548285 
" style="fill:none;stroke:#b0b0b0;stroke-linecap:square;stroke-width:0.8;"/>
     </g>
     <g id="line2d_26">
      <g>
       <use style="stroke:#000000;stroke-width:0.8;" x="57.6" xlink:href="#m1bacae68ea" y="74.548285"/>
      </g>
     </g>
     <g id="text_14">
      <!-- 600 -->
      <g transform="translate(31.5125 78.347504)scale(0.1 -0.1)">
       <use xlink:href="#DejaVuSans-36"/>
       <use x="63.623047" xlink:href="#DejaVuSans-30"/>
       <use x="127.246094" xlink:href="#DejaVuSans-30"/>
      </g>
     </g>
    </g>
    <g id="text_15">
     <!-- Successful download requests per second -->
     <defs>
      <path d="M 53.515625 70.515625 
L 53.515625 60.890625 
Q 47.90625 63.578125 42.921875 64.890625 
Q 37.9375 66.21875 33.296875 66.21875 
Q 25.25 66.21875 20.875 63.09375 
Q 16.5 59.96875 16.5 54.203125 
Q 16.5 49.359375 19.40625 46.890625 
Q 22.3125 44.4375 30.421875 42.921875 
L 36.375 41.703125 
Q 47.40625 39.59375 52.65625 34.296875 
Q 57.90625 29 57.90625 20.125 
Q 57.90625 9.515625 50.796875 4.046875 
Q 43.703125 -1.421875 29.984375 -1.421875 
Q 24.8125 -1.421875 18.96875 -0.25 
Q 13.140625 0.921875 6.890625 3.21875 
L 6.890625 13.375 
Q 12.890625 10.015625 18.65625 8.296875 
Q 24.421875 6.59375 29.984375 6.59375 
Q 38.421875 6.59375 43.015625 9.90625 
Q 47.609375 13.234375 47.609375 19.390625 
Q 47.609375 24.75 44.3125 27.78125 
Q 41.015625 30.8125 33.5 32.328125 
L 27.484375 33.5 
Q 16.453125 35.6875 11.515625 40.375 
Q 6.59375 45.0625 6.59375 53.421875 
Q 6.59375 63.09375 13.40625 68.65625 
Q 20.21875 74.21875 32.171875 74.21875 
Q 37.3125 74.21875 42.625 73.28125 
Q 47.953125 72.359375 53.515625 70.515625 
" id="DejaVuSans-53"/>
      <path d="M 45.40625 46.390625 
L 45.40625 75.984375 
L 54.390625 75.984375 
L 54.390625 0 
L 45.40625 0 
L 45.40625 8.203125 
Q 42.578125 3.328125 38.25 0.953125 
Q 33.9375 -1.421875 27.875 -1.421875 
Q 17.96875 -1.421875 11.734375 6.484375 
Q 5.515625 14.40625 5.515625 27.296875 
Q 5.515625 40.1875 11.734375 48.09375 
Q 17.96875 56 27.875 56 
Q 33.9375 56 38.25 53.625 
Q 42.578125 51.265625 45.40625 46.390625 
M 14.796875 27.296875 
Q 14.796875 17.390625 18.875 11.75 
Q 22.953125 6.109375 30.078125 6.109375 
Q 37.203125 6.109375 41.296875 11.75 
Q 45.40625 17.390625 45.40625 27.296875 
Q 45.40625 37.203125 41.296875 42.84375 
Q 37.203125 48.484375 30.078125 48.484375 
Q 22.953125 48.484375 18.875 42.84375 
Q 14.796875 37.203125 14.796875 27.296875 
" id="DejaVuSans-64"/>
      <path d="M 4.203125 54.6875 
L 13.1875 54.6875 
L 24.421875 12.015625 
L 35.59375 54.6875 
L 46.1875 54.6875 
L 57.421875 12.015625 
L 68.609375 54.6875 
L 77.59375 54.6875 
L 63.28125 0 
L 52.6875 0 
L 40.921875 44.828125 
L 29.109375 0 
L 18.5 0 
z
" id="DejaVuSans-77"/>
      <path d="M 34.28125 27.484375 
Q 23.390625 27.484375 19.1875 25 
Q 14.984375 22.515625 14.984375 16.5 
Q 14.984375 11.71875 18.140625 8.90625 
Q 21.296875 6.109375 26.703125 6.109375 
Q 34.1875 6.109375 38.703125 11.40625 
Q 43.21875 16.703125 43.21875 25.484375 
L 43.21875 27.484375 
z
M 52.203125 31.203125 
L 52.203125 0 
L 43.21875 0 
L 43.21875 8.296875 
Q 40.140625 3.328125 35.546875 0.953125 
Q 30.953125 -1.421875 24.3125 -1.421875 
Q 15.921875 -1.421875 10.953125 3.296875 
Q 6 8.015625 6 15.921875 
Q 6 25.140625 12.171875 29.828125 
Q 18.359375 34.515625 30.609375 34.515625 
L 43.21875 34.515625 
L 43.21875 35.40625 
Q 43.21875 41.609375 39.140625 45 
Q 35.0625 48.390625 27.6875 48.390625 
Q 23 48.390625 18.546875 47.265625 
Q 14.109375 46.140625 10.015625 43.890625 
L 10.015625 52.203125 
Q 14.9375 54.109375 19.578125 55.046875 
Q 24.21875 56 28.609375 56 
Q 40.484375 56 46.34375 49.84375 
Q 52.203125 43.703125 52.203125 31.203125 
" id="DejaVuSans-61"/>
      <path d="M 14.796875 27.296875 
Q 14.796875 17.390625 18.875 11.75 
Q 22.953125 6.109375 30.078125 6.109375 
Q 37.203125 6.109375 41.296875 11.75 
Q 45.40625 17.390625 45.40625 27.296875 
Q 45.40625 37.203125 41.296875 42.84375 
Q 37.203125 48.484375 30.078125 48.484375 
Q 22.953125 48.484375 18.875 42.84375 
Q 14.796875 37.203125 14.796875 27.296875 
M 45.40625 8.203125 
Q 42.578125 3.328125 38.25 0.953125 
Q 33.9375 -1.421875 27.875 -1.421875 
Q 17.96875 -1.421875 11.734375 6.484375 
Q 5.515625 14.40625 5.515625 27.296875 
Q 5.515625 40.1875 11.734375 48.09375 
Q 17.96875 56 27.875 56 
Q 33.9375 56 38.25 53.625 
Q 42.578125 51.265625 45.40625 46.390625 
L 45.40625 54.6875 
L 54.390625 54.6875 
L 54.390625 -20.796875 
L 45.40625 -20.796875 
z
" id="DejaVuSans-71"/>
      <path d="M 18.109375 8.203125 
L 18.109375 -20.796875 
L 9.078125 -20.796875 
L 9.078125 54.6875 
L 18.109375 54.6875 
L 18.109375 46.390625 
Q 20.953125 51.265625 25.265625 53.625 
Q 29.59375 56 35.59375 56 
Q 45.5625 56 51.78125 48.09375 
Q 58.015625 40.1875 58.015625 27.296875 
Q 58.015625 14.40625 51.78125 6.484375 
Q 45.5625 -1.421875 35.59375 -1.421875 
Q 29.59375 -1.421875 25.265625 0.953125 
Q 20.953125 3.328125 18.109375 8.203125 
M 48.6875 27.296875 
Q 48.6875 37.203125 44.609375 42.84375 
Q 40.53125 48.484375 33.40625 48.484375 
Q 26.265625 48.484375 22.1875 42.84375 
Q 18.109375 37.203125 18.109375 27.296875 
Q 18.109375 17.390625 22.1875 11.75 
Q 26.265625 6.109375 33.40625 6.109375 
Q 40.53125 6.109375 44.609375 11.75 
Q 48.6875 17.390625 48.6875 27.296875 
" id="DejaVuSans-70"/>
     </defs>
     <g transform="translate(25.432812 279.366281)rotate(-90)scale(0.1 -0.1)">
      <use xlink:href="#DejaVuSans-53"/>
      <use x="63.476562" xlink:href="#DejaVuSans-75"/>
      <use x="126.855469" xlink:href="#DejaVuSans-63"/>
      <use x="181.835938" xlink:href="#DejaVuSans-63"/>
      <use x="236.816406" xlink:href="#DejaVuSans-65"/>
      <use x="298.339844" xlink:href="#DejaVuSans-73"/>
      <use x="350.439453" xlink:href="#DejaVuSans-73"/>
      <use x="402.539062" xlink:href="#DejaVuSans-66"/>
      <use x="437.744141" xlink:href="#DejaVuSans-75"/>
      <use x="501.123047" xlink:href="#DejaVuSans-6c"/>
      <use x="528.90625" xlink:href="#DejaVuSans-20"/>
      <use x="560.693359" xlink:href="#DejaVuSans-64"/>
      <use x="624.169922" xlink:href="#DejaVuSans-6f"/>
      <use x="685.351562" xlink:href="#DejaVuSans-77"/>
      <use x="767.138672" xlink:href="#DejaVuSans-6e"/>
      <use x="830.517578" xlink:href="#DejaVuSans-6c"/>
      <use x="858.300781" xlink:href="#DejaVuSans-6f"/>
      <use x="919.482422" xlink:href="#DejaVuSans-61"/>
      <use x="980.761719" xlink:href="#DejaVuSans-64"/>
      <use x="1044.238281" xlink:href="#DejaVuSans-20"/>
      <use x="1076.025391" xlink:href="#DejaVuSans-72"/>
      <use x="1117.107422" xlink:href="#DejaVuSans-65"/>
      <use x="1178.630859" xlink:href="#DejaVuSans-71"/>
      <use x="1242.107422" xlink:href="#DejaVuSans-75"/>
      <use x="1305.486328" xlink:href="#DejaVuSans-65"/>
      <use x="1367.009766" xlink:href="#DejaVuSans-73"/>
      <use x="1419.109375" xlink:href="#DejaVuSans-74"/>
      <use x="1458.318359" xlink:href="#DejaVuSans-73"/>
      <use x="1510.417969" xlink:href="#DejaVuSans-20"/>
      <use x="1542.205078" xlink:href="#DejaVuSans-70"/>
      <use x="1605.681641" xlink:href="#DejaVuSans-65"/>
      <use x="1667.205078" xlink:href="#DejaVuSans-72"/>
      <use x="1708.318359" xlink:href="#DejaVuSans-20"/>
      <use x="1740.105469" xlink:href="#DejaVuSans-73"/>
      <use x="1792.205078" xlink:href="#DejaVuSans-65"/>
      <use x="1853.728516" xlink:href="#DejaVuSans-63"/>
      <use x="1908.708984" xlink:href="#DejaVuSans-6f"/>
      <use x="1969.890625" xlink:href="#DejaVuSans-6e"/>
      <use x="2033.269531" xlink:href="#DejaVuSans-64"/>
     </g>
    </g>
   </g>
   <g id="line2d_27">
    <path clip-path="url(#p65d24f6e77)" d="M 57.6 295.488 
L 57.95712 295.482837 
L 59.74272 293.667877 
L 60.45696 292.900733 
L 60.81408 292.706734 
L 62.9568 290.47132 
L 63.31392 290.243759 
L 64.02816 289.47477 
L 65.09952 288.535019 
L 65.45664 287.777464 
L 65.81376 287.439994 
L 66.17088 287.369181 
L 66.528 286.926598 
L 66.88512 286.87275 
L 67.24224 285.914558 
L 67.59936 286.067249 
L 67.95648 285.269862 
L 68.3136 285.061848 
L 68.67072 285.041931 
L 70.45632 282.615469 
L 70.81344 282.845981 
L 71.17056 282.007286 
L 71.52768 281.929097 
L 71.8848 281.196622 
L 72.24192 280.742605 
L 72.59904 280.949144 
L 72.95616 280.682119 
L 73.31328 279.776667 
L 73.6704 280.101597 
L 74.02752 279.156682 
L 74.38464 278.63259 
L 74.74176 278.903672 
L 75.456 277.918925 
L 76.17024 277.916343 
L 76.52736 276.482742 
L 76.88448 276.604084 
L 77.2416 275.919555 
L 77.59872 275.641466 
L 77.95584 274.928907 
L 78.31296 274.928907 
L 78.67008 274.722368 
L 79.0272 275.087868 
L 79.38432 274.647498 
L 80.09856 273.127962 
L 80.45568 273.815073 
L 80.8128 272.742546 
L 81.16992 272.789386 
L 81.88416 271.063681 
L 82.24128 271.508108 
L 82.5984 270.356654 
L 82.95552 269.716015 
L 83.31264 270.080409 
L 83.66976 269.605738 
L 84.02688 270.209495 
L 84.384 269.254991 
L 84.74112 268.988703 
L 85.09824 269.335394 
L 85.45536 267.196979 
L 85.81248 267.292504 
L 86.1696 267.197717 
L 86.52672 267.295454 
L 86.88384 267.569856 
L 87.24096 266.605762 
L 87.59808 266.40955 
L 87.9552 266.509131 
L 88.31232 264.963041 
L 88.66944 264.85092 
L 89.02656 265.060409 
L 89.38368 263.014938 
L 89.7408 264.235361 
L 90.09792 263.261678 
L 90.45504 263.017519 
L 90.81216 261.80853 
L 91.16928 263.39851 
L 91.5264 262.474617 
L 91.88352 260.809767 
L 92.24064 260.392264 
L 92.59776 261.089701 
L 92.95488 260.33104 
L 93.312 260.553438 
L 93.66912 260.343948 
L 94.74048 258.825151 
L 95.0976 258.975998 
L 95.45472 258.214755 
L 95.81184 257.116411 
L 96.52608 257.917855 
L 96.8832 255.991143 
L 97.24032 256.428194 
L 97.59744 255.885292 
L 97.95456 256.823937 
L 98.6688 253.888873 
L 99.02592 254.703964 
L 99.38304 253.696718 
L 99.74016 253.860843 
L 100.09728 253.234588 
L 100.4544 251.906838 
L 100.81152 254.021279 
L 101.16864 251.858154 
L 101.52576 251.783284 
L 101.88288 251.921591 
L 102.24 251.005813 
L 102.59712 251.297549 
L 102.95424 249.685071 
L 103.31136 248.746795 
L 103.66848 250.596792 
L 104.0256 248.380188 
L 104.38272 249.432061 
L 104.73984 247.786021 
L 105.09696 246.845163 
L 105.45408 249.656303 
L 105.8112 249.077995 
L 106.16832 247.292172 
L 106.52544 246.079125 
L 107.23968 247.312088 
L 107.5968 246.65559 
L 107.95392 243.865472 
L 108.31104 244.89374 
L 108.66816 244.545943 
L 109.02528 243.149962 
L 109.3824 245.864841 
L 109.73952 242.708486 
L 110.45376 243.352444 
L 110.81088 242.759014 
L 111.168 243.417356 
L 111.88224 239.787068 
L 112.23936 243.321094 
L 112.59648 242.564277 
L 113.31072 239.761988 
L 113.66784 241.919581 
L 114.38208 240.374966 
L 114.7392 240.315217 
L 115.09632 237.989443 
L 115.81056 237.84339 
L 116.16768 238.660325 
L 116.88192 236.364425 
L 117.23904 235.993024 
L 117.59616 234.068894 
L 117.95328 234.652366 
L 118.3104 234.391242 
L 118.66752 235.252804 
L 119.02464 234.751947 
L 119.38176 235.316978 
L 119.73888 232.482971 
L 120.096 232.127798 
L 120.45312 230.932086 
L 120.81024 233.538163 
L 121.16736 234.059305 
L 121.52448 231.725047 
L 121.8816 231.185834 
L 122.23872 232.620909 
L 122.59584 230.208831 
L 122.95296 230.486183 
L 123.31008 230.342713 
L 124.02432 227.407649 
L 124.38144 230.578388 
L 124.73856 226.972811 
L 125.09568 226.894252 
L 125.4528 229.085039 
L 125.80992 228.857109 
L 126.16704 226.439129 
L 126.52416 227.717088 
L 126.88128 228.035379 
L 127.59552 225.140148 
L 127.95264 225.247474 
L 128.30976 224.178636 
L 128.66688 225.070072 
L 129.024 224.678386 
L 129.73824 221.557437 
L 130.45248 224.482174 
L 130.8096 223.963246 
L 131.16672 220.501139 
L 131.52384 223.935215 
L 131.88096 219.560281 
L 132.23808 222.193651 
L 132.5952 218.691343 
L 132.95232 218.781704 
L 133.30944 222.964852 
L 133.66656 219.360012 
L 134.02368 222.02842 
L 134.3808 220.318205 
L 134.73792 216.582065 
L 135.09504 219.68863 
L 135.45216 219.540365 
L 135.80928 220.716898 
L 136.1664 215.108632 
L 136.52352 214.501925 
L 136.88064 218.277896 
L 137.23776 216.431587 
L 137.59488 216.381796 
L 137.952 214.505244 
L 138.30912 215.90602 
L 138.66624 213.594629 
L 139.02336 214.286165 
L 139.38048 213.75691 
L 140.09472 215.956179 
L 140.45184 216.191486 
L 140.80896 215.787997 
L 141.16608 214.411564 
L 141.5232 211.994691 
L 141.88032 213.910338 
L 142.23744 209.182444 
L 142.59456 210.881226 
L 142.95168 210.690915 
L 143.3088 208.469516 
L 143.66592 207.240611 
L 144.02304 207.354207 
L 144.38016 210.125146 
L 144.73728 205.967815 
L 145.0944 206.592226 
L 145.45152 210.883439 
L 145.80864 209.919345 
L 146.16576 206.824951 
L 146.52288 206.453181 
L 147.23712 203.318218 
L 147.59424 204.400333 
L 147.95136 206.369091 
L 148.30848 206.913837 
L 148.6656 201.935883 
L 149.02272 203.477547 
L 149.37984 206.606979 
L 149.73696 204.501021 
L 150.09408 206.06629 
L 150.4512 201.134807 
L 150.80832 206.067028 
L 151.16544 201.312947 
L 151.52256 199.363368 
L 151.87968 204.25133 
L 152.2368 198.253222 
L 152.59392 203.887306 
L 152.95104 203.872184 
L 153.30816 202.178566 
L 153.66528 201.106777 
L 154.0224 200.510765 
L 154.37952 197.673807 
L 154.73664 196.665824 
L 155.09376 199.289604 
L 155.45088 199.1974 
L 155.808 199.625968 
L 156.16512 198.570407 
L 156.52224 196.823679 
L 156.87936 196.502068 
L 157.23648 195.589978 
L 157.5936 193.13438 
L 157.95072 197.091442 
L 158.30784 197.766381 
L 158.66496 197.96665 
L 159.02208 193.829973 
L 159.3792 195.774019 
L 159.73632 192.210856 
L 160.09344 193.011932 
L 160.45056 192.452801 
L 160.80768 190.019701 
L 161.1648 190.372292 
L 161.87904 193.873862 
L 162.23616 188.691214 
L 162.59328 187.460095 
L 162.9504 188.904022 
L 163.30752 191.223896 
L 164.02176 186.178079 
L 164.37888 187.986769 
L 164.736 185.449661 
L 165.09312 192.029028 
L 165.45024 187.528326 
L 165.80736 186.410804 
L 166.16448 184.880204 
L 166.5216 184.460119 
L 166.87872 183.589337 
L 167.23584 184.435408 
L 167.59296 185.654724 
L 167.95008 183.940821 
L 168.3072 184.54716 
L 168.66432 186.958132 
L 169.02144 188.500903 
L 169.37856 182.47624 
L 169.73568 180.735782 
L 170.0928 184.64711 
L 170.44992 179.505032 
L 170.80704 183.204289 
L 171.16416 183.431851 
L 171.52128 183.457299 
L 171.8784 184.840003 
L 172.23552 178.112001 
L 172.59264 183.930126 
L 172.94976 184.458275 
L 173.30688 178.483771 
L 173.664 178.138556 
L 174.02112 181.6984 
L 174.37824 178.291985 
L 174.73536 180.176652 
L 175.09248 180.461011 
L 175.4496 177.963367 
L 175.80672 179.05876 
L 176.16384 177.26593 
L 176.52096 174.321277 
L 176.87808 177.879645 
L 177.2352 172.57086 
L 177.94944 179.621948 
L 178.30656 177.11287 
L 178.66368 176.560379 
L 179.0208 172.152988 
L 179.37792 178.761861 
L 179.73504 177.535537 
L 180.09216 169.405653 
L 180.8064 173.98602 
L 181.16352 172.426652 
L 181.52064 176.146195 
L 181.87776 176.079807 
L 182.23488 175.27615 
L 182.592 174.063103 
L 182.94912 169.963677 
L 183.30624 168.651049 
L 183.66336 171.716306 
L 184.02048 169.344798 
L 184.3776 170.087231 
L 185.09184 173.378944 
L 185.80608 169.856719 
L 186.1632 166.829082 
L 186.52032 165.40839 
L 186.87744 165.318029 
L 187.23456 165.735164 
L 187.59168 162.209989 
L 187.9488 163.115072 
L 188.30592 168.817755 
L 188.66304 163.164494 
L 189.02016 166.423012 
L 189.37728 164.394506 
L 189.7344 160.84794 
L 190.09152 159.3048 
L 190.44864 164.70874 
L 191.16288 166.388712 
L 191.52 157.774569 
L 191.87712 163.851973 
L 192.23424 161.846333 
L 192.59136 162.83772 
L 192.94848 158.102449 
L 193.3056 165.469614 
L 193.66272 161.585578 
L 194.01984 162.455992 
L 194.37696 160.831343 
L 194.73408 160.528542 
L 195.0912 162.372639 
L 195.44832 160.39171 
L 195.80544 161.76925 
L 196.16256 153.288988 
L 196.51968 158.625803 
L 196.8768 158.595191 
L 197.23392 160.58534 
L 197.94816 154.333485 
L 198.30528 152.437385 
L 198.6624 160.343764 
L 199.37664 156.419158 
L 199.73376 149.656119 
L 200.09088 155.613656 
L 200.448 149.313854 
L 200.80512 157.012219 
L 201.16224 153.230715 
L 201.51936 153.021594 
L 201.87648 149.068958 
L 202.2336 155.522927 
L 202.59072 152.346286 
L 202.94784 151.572504 
L 203.30496 148.500608 
L 203.66208 155.03461 
L 204.0192 145.767288 
L 204.37632 148.839184 
L 204.73344 144.439539 
L 205.44768 151.731465 
L 205.8048 148.351236 
L 206.16192 148.586543 
L 206.51904 144.378315 
L 206.87616 149.022487 
L 207.23328 142.321409 
L 207.5904 150.304503 
L 207.94752 144.903882 
L 208.30464 146.364775 
L 208.66176 139.894947 
L 209.01888 149.312379 
L 209.376 149.219068 
L 209.73312 147.565282 
L 210.09024 147.305633 
L 210.44736 138.526628 
L 210.80448 141.548364 
L 211.1616 141.321909 
L 211.51872 145.713809 
L 211.87584 142.922954 
L 212.23296 141.540619 
L 212.59008 141.016158 
L 212.9472 142.871688 
L 213.30432 141.304575 
L 213.66144 143.285503 
L 214.01856 137.870498 
L 214.37568 143.845371 
L 214.7328 137.080856 
L 215.08992 134.203697 
L 215.44704 141.220484 
L 216.16128 133.08138 
L 216.5184 132.38173 
L 216.87552 132.866358 
L 217.23264 136.182413 
L 217.58976 136.981644 
L 217.94688 132.407547 
L 218.304 138.084782 
L 218.66112 130.817936 
L 219.01824 137.04545 
L 219.37536 139.78172 
L 219.73248 135.850475 
L 220.0896 135.169266 
L 220.44672 130.271715 
L 220.80384 128.846966 
L 221.16096 128.67067 
L 221.51808 135.676392 
L 221.8752 134.187469 
L 222.23232 129.289549 
L 222.58944 126.077502 
L 222.94656 134.304754 
L 223.30368 126.971889 
L 223.6608 125.623485 
L 224.01792 126.616716 
L 224.37504 129.653574 
L 224.73216 134.469247 
L 225.08928 129.196238 
L 225.4464 126.171551 
L 225.80352 131.610898 
L 226.16064 125.91264 
L 226.51776 131.231014 
L 227.232 122.89496 
L 227.58912 126.918041 
L 227.94624 123.61969 
L 228.30336 121.815057 
L 228.66048 123.046176 
L 229.0176 123.503143 
L 229.37472 121.967011 
L 229.73184 125.257985 
L 230.08896 125.448665 
L 230.44608 123.625222 
L 230.8032 125.994518 
L 231.16032 126.661712 
L 231.51744 120.769824 
L 232.23168 124.462073 
L 232.94592 121.434805 
L 233.30304 117.593921 
L 233.66016 117.119619 
L 234.01728 128.631944 
L 234.3744 123.243126 
L 234.73152 119.693609 
L 235.08864 118.176655 
L 235.44576 119.983501 
L 235.80288 126.307276 
L 236.16 116.932259 
L 236.51712 125.9687 
L 236.87424 127.348084 
L 237.23136 119.203079 
L 237.58848 125.290442 
L 237.9456 119.741187 
L 238.30272 116.516968 
L 238.65984 119.546819 
L 239.01696 121.388334 
L 239.37408 124.950021 
L 240.08832 118.410118 
L 240.44544 118.333035 
L 240.80256 125.454566 
L 241.15968 124.247421 
L 241.5168 114.485143 
L 241.87392 114.649636 
L 242.23104 125.392973 
L 242.58816 114.159844 
L 242.94528 112.850167 
L 243.3024 116.391939 
L 243.65952 115.802566 
L 244.01664 113.823481 
L 244.37376 120.505011 
L 244.73088 113.773322 
L 245.088 123.007081 
L 245.44512 111.904883 
L 245.80224 122.819721 
L 246.15936 123.553672 
L 246.51648 112.956018 
L 246.8736 114.538622 
L 247.23072 118.352951 
L 247.58784 119.904574 
L 247.94496 114.76102 
L 248.6592 121.183639 
L 249.01632 113.687018 
L 249.37344 114.461907 
L 249.73056 122.49848 
L 250.08768 120.738843 
L 250.4448 113.454293 
L 250.80192 109.215453 
L 251.15904 121.630648 
L 251.51616 120.311012 
L 251.87328 119.461253 
L 252.2304 118.898803 
L 252.58752 111.067664 
L 252.94464 118.008842 
L 253.30176 113.568627 
L 253.65888 110.765601 
L 254.016 109.077146 
L 254.37312 110.086973 
L 254.73024 115.963002 
L 255.08736 113.114979 
L 255.44448 113.682592 
L 255.8016 115.942717 
L 256.15872 108.645627 
L 256.51584 117.100441 
L 256.87296 115.409404 
L 257.23008 107.021716 
L 257.5872 108.610958 
L 258.30144 117.990402 
L 258.65856 116.854069 
L 259.01568 118.497528 
L 259.3728 108.730087 
L 259.72992 107.371357 
L 260.08704 110.506689 
L 260.44416 110.149304 
L 260.80128 105.663723 
L 261.1584 111.667364 
L 261.51552 107.926061 
L 261.87264 115.373998 
L 262.22976 113.11793 
L 262.944 114.71713 
L 263.30112 104.24967 
L 263.65824 110.018373 
L 264.01536 106.513852 
L 264.37248 113.061132 
L 264.7296 111.049591 
L 265.08672 114.806385 
L 265.44384 109.650291 
L 265.80096 107.106545 
L 266.15808 105.640119 
L 266.5152 107.431105 
L 266.87232 114.801221 
L 267.22944 112.485036 
L 267.58656 104.798473 
L 267.94368 109.620786 
L 268.3008 106.916603 
L 268.65792 102.958803 
L 269.01504 103.400648 
L 269.37216 113.216774 
L 269.72928 109.41941 
L 270.0864 109.894818 
L 270.44352 112.307634 
L 270.80064 102.389715 
L 271.51488 113.748242 
L 271.872 106.217321 
L 272.58624 100.271217 
L 272.94336 111.215929 
L 273.30048 106.268218 
L 273.6576 105.18389 
L 274.37184 99.506654 
L 274.72896 106.998849 
L 275.08608 104.867074 
L 275.80032 103.366348 
L 276.15744 109.711515 
L 276.51456 102.994578 
L 276.87168 102.88467 
L 277.2288 107.972532 
L 277.58592 104.145295 
L 277.94304 103.33131 
L 278.30016 109.747291 
L 278.65728 111.431688 
L 279.0144 97.762139 
L 279.37152 105.466036 
L 279.72864 106.304363 
L 280.08576 111.037052 
L 280.44288 110.017266 
L 280.8 97.956876 
L 281.15712 108.865812 
L 281.51424 103.312501 
L 281.87136 105.466405 
L 282.22848 103.226197 
L 282.5856 107.562774 
L 282.94272 102.022371 
L 283.29984 108.575183 
L 283.65696 100.214787 
L 284.01408 102.769599 
L 284.3712 107.963681 
L 284.72832 105.000955 
L 285.08544 98.834297 
L 285.44256 99.40191 
L 285.79968 107.504501 
L 286.1568 108.571864 
L 286.51392 107.909464 
L 286.87104 103.570305 
L 287.22816 96.871809 
L 287.58528 97.625307 
L 287.9424 96.065939 
L 288.29952 96.227482 
L 288.65664 104.756428 
L 289.01376 97.075767 
L 289.37088 96.744198 
L 289.728 100.844731 
L 290.08512 106.850215 
L 290.44224 106.752109 
L 290.79936 94.167626 
L 291.15648 94.657787 
L 291.5136 93.515185 
L 291.87072 103.973056 
L 292.22784 94.868383 
L 292.58496 100.686507 
L 292.94208 93.533995 
L 293.2992 92.90147 
L 293.65632 95.17856 
L 294.01344 96.345873 
L 294.37056 105.756297 
L 294.72768 94.668852 
L 295.0848 101.974424 
L 295.44192 95.808135 
L 295.79904 101.191421 
L 296.15616 98.499409 
L 296.51328 102.859222 
L 296.8704 102.776975 
L 297.22752 94.41031 
L 297.58464 104.164842 
L 297.94176 103.739224 
L 298.29888 99.630209 
L 298.656 100.281175 
L 299.01312 93.817248 
L 299.37024 91.813822 
L 299.72736 100.654051 
L 300.08448 91.307064 
L 300.4416 100.736667 
L 300.79872 90.756786 
L 301.15584 102.338818 
L 301.87008 90.423004 
L 302.2272 91.24916 
L 302.58432 93.308646 
L 302.94144 101.767885 
L 303.29856 94.54751 
L 303.65568 96.715799 
L 304.0128 91.198631 
L 304.36992 90.560943 
L 304.72704 97.562608 
L 305.08416 98.6178 
L 305.44128 99.310443 
L 305.7984 99.450225 
L 306.15552 95.710029 
L 306.51264 93.191731 
L 306.86976 92.759106 
L 307.22688 91.902338 
L 307.584 88.86548 
L 307.94112 91.810502 
L 308.29824 99.986857 
L 308.65536 86.92881 
L 309.01248 91.594374 
L 309.3696 93.067807 
L 309.72672 88.172838 
L 310.08384 89.24979 
L 310.44096 97.132934 
L 310.79808 90.232325 
L 311.1552 87.252265 
L 311.51232 90.217203 
L 311.86944 90.887717 
L 312.22656 85.85444 
L 312.58368 89.473663 
L 312.9408 97.245055 
L 313.29792 96.268421 
L 313.65504 87.754597 
L 314.01216 90.586391 
L 314.36928 99.088045 
L 314.7264 94.662213 
L 315.08352 93.815773 
L 315.44064 89.737369 
L 315.79776 92.476221 
L 316.15488 91.746328 
L 316.512 91.431725 
L 316.86912 89.541895 
L 317.22624 88.958423 
L 317.58336 86.753252 
L 317.94048 88.102762 
L 318.2976 92.074946 
L 318.65472 87.693004 
L 319.01184 89.582834 
L 319.36896 85.224497 
L 319.72608 85.533198 
L 320.0832 82.542074 
L 320.44032 84.344863 
L 320.79744 97.140679 
L 321.15456 88.720535 
L 321.51168 93.390155 
L 321.8688 93.047154 
L 322.22592 95.507178 
L 322.58304 96.305672 
L 322.94016 82.339223 
L 323.29728 93.521455 
L 323.6544 94.095338 
L 324.01152 90.476114 
L 324.36864 93.350692 
L 324.72576 86.522003 
L 325.08288 82.983182 
L 325.44 92.8952 
L 325.79712 91.994912 
L 326.15424 88.529117 
L 326.51136 89.738845 
L 326.86848 92.88266 
L 327.2256 89.306588 
L 327.58272 89.083084 
L 328.29696 94.447929 
L 328.65408 94.439815 
L 329.0112 84.809575 
L 329.36832 82.976912 
L 329.72544 80.004597 
L 330.08256 81.825827 
L 330.43968 92.077896 
L 330.7968 82.633172 
L 331.15392 83.653695 
L 331.51104 90.380221 
L 331.86816 80.538648 
L 332.22528 87.4695 
L 332.5824 88.08469 
L 332.93952 85.529141 
L 333.29664 80.515043 
L 333.65376 81.738417 
L 334.368 89.675776 
L 334.72512 91.029343 
L 335.43936 77.256525 
L 335.79648 85.78879 
L 336.1536 85.672981 
L 336.86784 81.054626 
L 337.22496 89.240201 
L 337.58208 82.047487 
L 337.9392 82.222308 
L 338.29632 86.471843 
L 338.65344 85.188352 
L 339.01056 78.225044 
L 339.36768 87.453271 
L 339.7248 89.204425 
L 340.08192 81.384719 
L 340.43904 85.849276 
L 340.79616 83.034816 
L 341.15328 87.011426 
L 341.5104 88.629067 
L 341.86752 85.626878 
L 342.22464 86.689078 
L 342.58176 84.085214 
L 342.93888 79.915343 
L 343.296 84.648032 
L 343.65312 77.219643 
L 344.01024 76.544335 
L 344.36736 86.32616 
L 344.72448 85.158847 
L 345.0816 89.488416 
L 345.43872 83.053995 
L 345.79584 81.059789 
L 346.15296 85.488202 
L 346.51008 76.909466 
L 346.8672 76.13974 
L 347.22432 79.887682 
L 347.58144 77.170221 
L 347.93856 75.822924 
L 348.6528 88.379377 
L 349.00992 76.178835 
L 349.36704 77.73599 
L 349.72416 74.463088 
L 350.08128 83.970142 
L 350.4384 78.254919 
L 350.79552 76.778904 
L 351.15264 82.557196 
L 351.50976 74.371252 
L 351.86688 76.35845 
L 352.224 72.1008 
L 352.58112 81.957127 
L 352.93824 80.385219 
L 353.29536 77.14551 
L 353.65248 81.169329 
L 354.0096 71.065893 
L 354.36672 80.538648 
L 354.72384 82.901304 
L 355.08096 80.932178 
L 355.43808 73.552842 
L 355.7952 77.68288 
L 356.15232 72.961993 
L 356.50944 81.202891 
L 356.86656 71.691779 
L 357.22368 83.987846 
L 357.93792 76.223831 
L 358.29504 72.185629 
L 358.65216 73.181072 
L 359.00928 72.228412 
L 359.3664 81.70928 
L 359.72352 76.079991 
L 360.08064 82.12789 
L 360.43776 70.268506 
L 360.79488 80.546393 
L 361.152 84.476162 
L 361.50912 74.747816 
L 361.86624 82.466097 
L 362.22336 80.401078 
L 362.58048 81.981837 
L 362.9376 81.604535 
L 363.29472 77.941791 
L 363.65184 83.672136 
L 364.00896 77.294144 
L 364.36608 82.263615 
L 364.7232 73.881828 
L 365.08032 69.280439 
L 365.43744 68.992391 
L 365.79456 67.280332 
L 366.15168 75.395832 
L 366.5088 73.589355 
L 366.86592 69.121847 
L 367.22304 68.577469 
L 367.58016 70.887753 
L 367.93728 81.673873 
L 368.2944 77.442779 
L 368.65152 67.858641 
L 369.00864 73.693731 
L 369.36576 66.896391 
L 369.72288 80.297809 
L 370.08 79.758226 
L 370.43712 76.336321 
L 370.79424 76.261819 
L 371.15136 67.355202 
L 371.50848 78.516411 
L 371.8656 73.167794 
L 372.22272 79.69442 
L 372.57984 76.10212 
L 373.29408 65.577125 
L 373.6512 65.256252 
L 374.00832 73.591568 
L 374.36544 78.762414 
L 374.72256 79.533246 
L 375.07968 70.906563 
L 375.4368 79.536934 
L 375.79392 75.103358 
L 376.15104 75.355261 
L 376.50816 71.451309 
L 376.86528 75.713754 
L 377.2224 70.230517 
L 377.57952 74.204176 
L 377.93664 64.53521 
L 378.29376 64.442268 
L 378.65088 76.21793 
L 379.008 75.495044 
L 379.36512 72.360449 
L 379.72224 73.102882 
L 380.07936 64.760928 
L 380.43648 71.539088 
L 380.7936 66.062491 
L 381.15072 77.846267 
L 381.50784 69.099349 
L 381.86496 76.808409 
L 382.22208 76.019136 
L 382.5792 66.392215 
L 382.93632 69.166843 
L 383.29344 77.18608 
L 383.65056 76.838653 
L 384.00768 72.70382 
L 384.3648 75.126593 
L 384.72192 75.533032 
L 385.07904 67.025109 
L 385.43616 70.483896 
L 385.79328 72.285947 
L 386.1504 65.902792 
L 386.50752 67.72144 
L 386.86464 63.815275 
L 387.57888 76.943766 
L 387.936 74.355392 
L 388.29312 63.356464 
L 388.65024 68.297536 
L 389.00736 69.53013 
L 389.36448 61.651412 
L 389.7216 71.817916 
L 390.07872 62.594852 
L 390.43584 75.284079 
L 391.15008 60.539791 
L 391.86432 74.321092 
L 392.22144 64.76019 
L 392.57856 68.170293 
L 392.93568 63.374536 
L 393.2928 70.221666 
L 394.00704 59.856 
L 394.36416 66.063228 
L 394.72128 65.577862 
L 395.0784 65.358415 
L 395.43552 64.20733 
L 395.79264 64.81957 
L 396.14976 68.962517 
L 396.50688 65.296822 
L 396.864 73.960018 
L 397.57824 57.583336 
L 397.93536 61.616006 
L 398.6496 58.318761 
L 399.00672 71.698787 
L 399.36384 59.413048 
L 399.72096 71.584453 
L 400.07808 67.737668 
L 400.4352 68.758929 
L 400.79232 68.157015 
L 401.50656 57.2632 
L 401.86368 57.443922 
L 402.57792 65.174005 
L 402.93504 60.103478 
L 403.29216 64.216919 
L 403.64928 56.486467 
L 404.0064 71.51364 
L 404.36352 62.921995 
L 404.72064 60.970203 
L 405.07776 71.45721 
L 405.43488 59.36879 
L 405.792 71.515853 
L 406.14912 56.88848 
L 406.50624 60.495533 
L 406.86336 69.622334 
L 407.22048 66.672518 
L 407.5776 69.782402 
L 407.93472 70.327148 
L 408.29184 58.789006 
L 408.64896 66.752183 
L 409.00608 60.142204 
L 409.72032 68.912726 
L 410.07744 55.351979 
L 410.43456 67.889253 
L 410.79168 67.995473 
L 411.1488 63.370848 
L 411.50592 53.568 
L 411.86304 70.318665 
L 412.57728 56.470239 
L 412.9344 65.477543 
L 413.29152 63.051081 
L 413.64864 64.194421 
L 414.00576 69.643726 
L 414.36288 69.20815 
L 414.72 64.565822 
L 414.72 64.565822 
" style="fill:none;stroke:#000080;stroke-linecap:square;stroke-width:0.5;"/>
   </g>
   <g id="patch_3">
    <path d="M 57.6 307.584 
L 57.6 41.472 
" style="fill:none;stroke:#000000;stroke-linecap:square;stroke-linejoin:miter;stroke-width:0.8;"/>
   </g>
   <g id="patch_4">
    <path d="M 414.72 307.584 
L 414.72 41.472 
" style="fill:none;stroke:#000000;stroke-linecap:square;stroke-linejoin:miter;stroke-width:0.8;"/>
   </g>
   <g id="patch_5">
    <path d="M 57.6 307.584 
L 414.72 307.584 
" style="fill:none;stroke:#000000;stroke-linecap:square;stroke-linejoin:miter;stroke-width:0.8;"/>
   </g>
   <g id="patch_6">
    <path d="M 57.6 41.472 
L 414.72 41.472 
" style="fill:none;stroke:#000000;stroke-linecap:square;stroke-linejoin:miter;stroke-width:0.8;"/>
   </g>
   <g id="text_16">
    <!-- Test -->
    <defs>
     <path d="M -0.296875 72.90625 
L 61.375 72.90625 
L 61.375 64.59375 
L 35.5 64.59375 
L 35.5 0 
L 25.59375 0 
L 25.59375 64.59375 
L -0.296875 64.59375 
z
" id="DejaVuSans-54"/>
    </defs>
    <g transform="translate(223.341563 35.472)scale(0.12 -0.12)">
     <use xlink:href="#DejaVuSans-54"/>
     <use x="60.818359" xlink:href="#DejaVuSans-65"/>
     <use x="122.341797" xlink:href="#DejaVuSans-73"/>
     <use x="174.441406" xlink:href="#DejaVuSans-74"/>
    </g>
   </g>
   <g id="legend_1">
    <g id="patch_7">
     <path d="M 64.6 64.150125 
L 306.276563 64.150125 
Q 308.276563 64.150125 308.276563 62.150125 
L 308.276563 48.472 
Q 308.276563 46.472 306.276563 46.472 
L 64.6 46.472 
Q 62.6 46.472 62.6 48.472 
L 62.6 62.150125 
Q 62.6 64.150125 64.6 64.150125 
z
" style="fill:#ffffff;opacity:0.8;stroke:#cccccc;stroke-linejoin:miter;"/>
    </g>
    <g id="line2d_28">
     <path d="M 66.6 54.570438 
L 86.6 54.570438 
" style="fill:none;stroke:#000080;stroke-linecap:square;stroke-width:0.5;"/>
    </g>
    <g id="line2d_29"/>
    <g id="text_17">
     <!-- Successful download requests per second -->
     <g transform="translate(94.6 58.070438)scale(0.1 -0.1)">
      <use xlink:href="#DejaVuSans-53"/>
      <use x="63.476562" xlink:href="#DejaVuSans-75"/>
      <use x="126.855469" xlink:href="#DejaVuSans-63"/>
      <use x="181.835938" xlink:href="#DejaVuSans-63"/>
      <use x="236.816406" xlink:href="#DejaVuSans-65"/>
      <use x="298.339844" xlink:href="#DejaVuSans-73"/>
      <use x="350.439453" xlink:href="#DejaVuSans-73"/>
      <use x="402.539062" xlink:href="#DejaVuSans-66"/>
      <use x="437.744141" xlink:href="#DejaVuSans-75"/>
      <use x="501.123047" xlink:href="#DejaVuSans-6c"/>
      <use x="528.90625" xlink:href="#DejaVuSans-20"/>
      <use x="560.693359" xlink:href="#DejaVuSans-64"/>
      <use x="624.169922" xlink:href="#DejaVuSans-6f"/>
      <use x="685.351562" xlink:href="#DejaVuSans-77"/>
      <use x="767.138672" xlink:href="#DejaVuSans-6e"/>
      <use x="830.517578" xlink:href="#DejaVuSans-6c"/>
      <use x="858.300781" xlink:href="#DejaVuSans-6f"/>
      <use x="919.482422" xlink:href="#DejaVuSans-61"/>
      <use x="980.761719" xlink:href="#DejaVuSans-64"/>
      <use x="1044.238281" xlink:href="#DejaVuSans-20"/>
      <use x="1076.025391" xlink:href="#DejaVuSans-72"/>
      <use x="1117.107422" xlink:href="#DejaVuSans-65"/>
      <use x="1178.630859" xlink:href="#DejaVuSans-71"/>
      <use x="1242.107422" xlink:href="#DejaVuSans-75"/>
      <use x="1305.486328" xlink:href="#DejaVuSans-65"/>
      <use x="1367.009766" xlink:href="#DejaVuSans-73"/>
      <use x="1419.109375" xlink:href="#DejaVuSans-74"/>
      <use x="1458.318359" xlink:href="#DejaVuSans-73"/>
      <use x="1510.417969" xlink:href="#DejaVuSans-20"/>
      <use x="1542.205078" xlink:href="#DejaVuSans-70"/>
      <use x="1605.681641" xlink:href="#DejaVuSans-65"/>
      <use x="1667.205078" xlink:href="#DejaVuSans-72"/>
      <use x="1708.318359" xlink:href="#DejaVuSans-20"/>
      <use x="1740.105469" xlink:href="#DejaVuSans-73"/>
      <use x="1792.205078" xlink:href="#DejaVuSans-65"/>
      <use x="1853.728516" xlink:href="#DejaVuSans-63"/>
      <use x="1908.708984" xlink:href="#DejaVuSans-6f"/>
      <use x="1969.890625" xlink:href="#DejaVuSans-6e"/>
      <use x="2033.269531" xlink:href="#DejaVuSans-64"/>
     </g>
    </g>
   </g>
  </g>
 </g>
 <defs>
  <clipPath id="p65d24f6e77">
   <rect height="266.112" width="357.12" x="57.6" y="41.472"/>
  </clipPath>
 </defs>
</svg>
