<?xml version="1.0" encoding="utf-8" standalone="no"?>
<!DOCTYPE svg PUBLIC "-//W3C//DTD SVG 1.1//EN"
  "http://www.w3.org/Graphics/SVG/1.1/DTD/svg11.dtd">
<!-- Created with matplotlib (http://matplotlib.org/) -->
<svg height="345pt" version="1.1" viewBox="0 0 460 345" width="460pt" xmlns="http://www.w3.org/2000/svg" xmlns:xlink="http://www.w3.org/1999/xlink">
 <defs>
  <style type="text/css">
*{stroke-linecap:butt;stroke-linejoin:round;}
  </style>
 </defs>
 <g id="figure_1">
  <g id="patch_1">
   <path d="M 0 345.6 
L 460.8 345.6 
L 460.8 0 
L 0 0 
z
" style="fill:#ffffff;"/>
  </g>
  <g id="axes_1">
   <g id="patch_2">
    <path d="M 57.6 307.584 
L 414.72 307.584 
L 414.72 41.472 
L 57.6 41.472 
z
" style="fill:#ffffff;"/>
   </g>
   <g id="matplotlib.axis_1">
    <g id="xtick_1">
     <g id="line2d_1">
      <path clip-path="url(#p2d3606e361)" d="M 57.6 307.584 
L 57.6 41.472 
" style="fill:none;stroke:#b0b0b0;stroke-linecap:square;stroke-width:0.8;"/>
     </g>
     <g id="line2d_2">
      <defs>
       <path d="M 0 0 
L 0 3.5 
" id="mbec38ad86f" style="stroke:#000000;stroke-width:0.8;"/>
      </defs>
      <g>
       <use style="stroke:#000000;stroke-width:0.8;" x="57.6" xlink:href="#mbec38ad86f" y="307.584"/>
      </g>
     </g>
     <g id="text_1">
      <!-- 0 -->
      <defs>
       <path d="M 31.78125 66.40625 
Q 24.171875 66.40625 20.328125 58.90625 
Q 16.5 51.421875 16.5 36.375 
Q 16.5 21.390625 20.328125 13.890625 
Q 24.171875 6.390625 31.78125 6.390625 
Q 39.453125 6.390625 43.28125 13.890625 
Q 47.125 21.390625 47.125 36.375 
Q 47.125 51.421875 43.28125 58.90625 
Q 39.453125 66.40625 31.78125 66.40625 
M 31.78125 74.21875 
Q 44.046875 74.21875 50.515625 64.515625 
Q 56.984375 54.828125 56.984375 36.375 
Q 56.984375 17.96875 50.515625 8.265625 
Q 44.046875 -1.421875 31.78125 -1.421875 
Q 19.53125 -1.421875 13.0625 8.265625 
Q 6.59375 17.96875 6.59375 36.375 
Q 6.59375 54.828125 13.0625 64.515625 
Q 19.53125 74.21875 31.78125 74.21875 
" id="DejaVuSans-30"/>
      </defs>
      <g transform="translate(54.41875 322.182437)scale(0.1 -0.1)">
       <use xlink:href="#DejaVuSans-30"/>
      </g>
     </g>
    </g>
    <g id="xtick_2">
     <g id="line2d_3">
      <path clip-path="url(#p2d3606e361)" d="M 129.024 307.584 
L 129.024 41.472 
" style="fill:none;stroke:#b0b0b0;stroke-linecap:square;stroke-width:0.8;"/>
     </g>
     <g id="line2d_4">
      <g>
       <use style="stroke:#000000;stroke-width:0.8;" x="129.024" xlink:href="#mbec38ad86f" y="307.584"/>
      </g>
     </g>
     <g id="text_2">
      <!-- 200 -->
      <defs>
       <path d="M 19.1875 8.296875 
L 53.609375 8.296875 
L 53.609375 0 
L 7.328125 0 
L 7.328125 8.296875 
Q 12.9375 14.109375 22.625 23.890625 
Q 32.328125 33.6875 34.8125 36.53125 
Q 39.546875 41.84375 41.421875 45.53125 
Q 43.3125 49.21875 43.3125 52.78125 
Q 43.3125 58.59375 39.234375 62.25 
Q 35.15625 65.921875 28.609375 65.921875 
Q 23.96875 65.921875 18.8125 64.3125 
Q 13.671875 62.703125 7.8125 59.421875 
L 7.8125 69.390625 
Q 13.765625 71.78125 18.9375 73 
Q 24.125 74.21875 28.421875 74.21875 
Q 39.75 74.21875 46.484375 68.546875 
Q 53.21875 62.890625 53.21875 53.421875 
Q 53.21875 48.921875 51.53125 44.890625 
Q 49.859375 40.875 45.40625 35.40625 
Q 44.1875 33.984375 37.640625 27.21875 
Q 31.109375 20.453125 19.1875 8.296875 
" id="DejaVuSans-32"/>
      </defs>
      <g transform="translate(119.48025 322.182437)scale(0.1 -0.1)">
       <use xlink:href="#DejaVuSans-32"/>
       <use x="63.623047" xlink:href="#DejaVuSans-30"/>
       <use x="127.246094" xlink:href="#DejaVuSans-30"/>
      </g>
     </g>
    </g>
    <g id="xtick_3">
     <g id="line2d_5">
      <path clip-path="url(#p2d3606e361)" d="M 200.448 307.584 
L 200.448 41.472 
" style="fill:none;stroke:#b0b0b0;stroke-linecap:square;stroke-width:0.8;"/>
     </g>
     <g id="line2d_6">
      <g>
       <use style="stroke:#000000;stroke-width:0.8;" x="200.448" xlink:href="#mbec38ad86f" y="307.584"/>
      </g>
     </g>
     <g id="text_3">
      <!-- 400 -->
      <defs>
       <path d="M 37.796875 64.3125 
L 12.890625 25.390625 
L 37.796875 25.390625 
z
M 35.203125 72.90625 
L 47.609375 72.90625 
L 47.609375 25.390625 
L 58.015625 25.390625 
L 58.015625 17.1875 
L 47.609375 17.1875 
L 47.609375 0 
L 37.796875 0 
L 37.796875 17.1875 
L 4.890625 17.1875 
L 4.890625 26.703125 
z
" id="DejaVuSans-34"/>
      </defs>
      <g transform="translate(190.90425 322.182437)scale(0.1 -0.1)">
       <use xlink:href="#DejaVuSans-34"/>
       <use x="63.623047" xlink:href="#DejaVuSans-30"/>
       <use x="127.246094" xlink:href="#DejaVuSans-30"/>
      </g>
     </g>
    </g>
    <g id="xtick_4">
     <g id="line2d_7">
      <path clip-path="url(#p2d3606e361)" d="M 271.872 307.584 
L 271.872 41.472 
" style="fill:none;stroke:#b0b0b0;stroke-linecap:square;stroke-width:0.8;"/>
     </g>
     <g id="line2d_8">
      <g>
       <use style="stroke:#000000;stroke-width:0.8;" x="271.872" xlink:href="#mbec38ad86f" y="307.584"/>
      </g>
     </g>
     <g id="text_4">
      <!-- 600 -->
      <defs>
       <path d="M 33.015625 40.375 
Q 26.375 40.375 22.484375 35.828125 
Q 18.609375 31.296875 18.609375 23.390625 
Q 18.609375 15.53125 22.484375 10.953125 
Q 26.375 6.390625 33.015625 6.390625 
Q 39.65625 6.390625 43.53125 10.953125 
Q 47.40625 15.53125 47.40625 23.390625 
Q 47.40625 31.296875 43.53125 35.828125 
Q 39.65625 40.375 33.015625 40.375 
M 52.59375 71.296875 
L 52.59375 62.3125 
Q 48.875 64.0625 45.09375 64.984375 
Q 41.3125 65.921875 37.59375 65.921875 
Q 27.828125 65.921875 22.671875 59.328125 
Q 17.53125 52.734375 16.796875 39.40625 
Q 19.671875 43.65625 24.015625 45.921875 
Q 28.375 48.1875 33.59375 48.1875 
Q 44.578125 48.1875 50.953125 41.515625 
Q 57.328125 34.859375 57.328125 23.390625 
Q 57.328125 12.15625 50.6875 5.359375 
Q 44.046875 -1.421875 33.015625 -1.421875 
Q 20.359375 -1.421875 13.671875 8.265625 
Q 6.984375 17.96875 6.984375 36.375 
Q 6.984375 53.65625 15.1875 63.9375 
Q 23.390625 74.21875 37.203125 74.21875 
Q 40.921875 74.21875 44.703125 73.484375 
Q 48.484375 72.75 52.59375 71.296875 
" id="DejaVuSans-36"/>
      </defs>
      <g transform="translate(262.32825 322.182437)scale(0.1 -0.1)">
       <use xlink:href="#DejaVuSans-36"/>
       <use x="63.623047" xlink:href="#DejaVuSans-30"/>
       <use x="127.246094" xlink:href="#DejaVuSans-30"/>
      </g>
     </g>
    </g>
    <g id="xtick_5">
     <g id="line2d_9">
      <path clip-path="url(#p2d3606e361)" d="M 343.296 307.584 
L 343.296 41.472 
" style="fill:none;stroke:#b0b0b0;stroke-linecap:square;stroke-width:0.8;"/>
     </g>
     <g id="line2d_10">
      <g>
       <use style="stroke:#000000;stroke-width:0.8;" x="343.296" xlink:href="#mbec38ad86f" y="307.584"/>
      </g>
     </g>
     <g id="text_5">
      <!-- 800 -->
      <defs>
       <path d="M 31.78125 34.625 
Q 24.75 34.625 20.71875 30.859375 
Q 16.703125 27.09375 16.703125 20.515625 
Q 16.703125 13.921875 20.71875 10.15625 
Q 24.75 6.390625 31.78125 6.390625 
Q 38.8125 6.390625 42.859375 10.171875 
Q 46.921875 13.96875 46.921875 20.515625 
Q 46.921875 27.09375 42.890625 30.859375 
Q 38.875 34.625 31.78125 34.625 
M 21.921875 38.8125 
Q 15.578125 40.375 12.03125 44.71875 
Q 8.5 49.078125 8.5 55.328125 
Q 8.5 64.0625 14.71875 69.140625 
Q 20.953125 74.21875 31.78125 74.21875 
Q 42.671875 74.21875 48.875 69.140625 
Q 55.078125 64.0625 55.078125 55.328125 
Q 55.078125 49.078125 51.53125 44.71875 
Q 48 40.375 41.703125 38.8125 
Q 48.828125 37.15625 52.796875 32.3125 
Q 56.78125 27.484375 56.78125 20.515625 
Q 56.78125 9.90625 50.3125 4.234375 
Q 43.84375 -1.421875 31.78125 -1.421875 
Q 19.734375 -1.421875 13.25 4.234375 
Q 6.78125 9.90625 6.78125 20.515625 
Q 6.78125 27.484375 10.78125 32.3125 
Q 14.796875 37.15625 21.921875 38.8125 
M 18.3125 54.390625 
Q 18.3125 48.734375 21.84375 45.5625 
Q 25.390625 42.390625 31.78125 42.390625 
Q 38.140625 42.390625 41.71875 45.5625 
Q 45.3125 48.734375 45.3125 54.390625 
Q 45.3125 60.0625 41.71875 63.234375 
Q 38.140625 66.40625 31.78125 66.40625 
Q 25.390625 66.40625 21.84375 63.234375 
Q 18.3125 60.0625 18.3125 54.390625 
" id="DejaVuSans-38"/>
      </defs>
      <g transform="translate(333.75225 322.182437)scale(0.1 -0.1)">
       <use xlink:href="#DejaVuSans-38"/>
       <use x="63.623047" xlink:href="#DejaVuSans-30"/>
       <use x="127.246094" xlink:href="#DejaVuSans-30"/>
      </g>
     </g>
    </g>
    <g id="xtick_6">
     <g id="line2d_11">
      <path clip-path="url(#p2d3606e361)" d="M 414.72 307.584 
L 414.72 41.472 
" style="fill:none;stroke:#b0b0b0;stroke-linecap:square;stroke-width:0.8;"/>
     </g>
     <g id="line2d_12">
      <g>
       <use style="stroke:#000000;stroke-width:0.8;" x="414.72" xlink:href="#mbec38ad86f" y="307.584"/>
      </g>
     </g>
     <g id="text_6">
      <!-- 1000 -->
      <defs>
       <path d="M 12.40625 8.296875 
L 28.515625 8.296875 
L 28.515625 63.921875 
L 10.984375 60.40625 
L 10.984375 69.390625 
L 28.421875 72.90625 
L 38.28125 72.90625 
L 38.28125 8.296875 
L 54.390625 8.296875 
L 54.390625 0 
L 12.40625 0 
z
" id="DejaVuSans-31"/>
      </defs>
      <g transform="translate(401.995 322.182437)scale(0.1 -0.1)">
       <use xlink:href="#DejaVuSans-31"/>
       <use x="63.623047" xlink:href="#DejaVuSans-30"/>
       <use x="127.246094" xlink:href="#DejaVuSans-30"/>
       <use x="190.869141" xlink:href="#DejaVuSans-30"/>
      </g>
     </g>
    </g>
    <g id="text_7">
     <!-- Number of clients -->
     <defs>
      <path d="M 9.8125 72.90625 
L 23.09375 72.90625 
L 55.421875 11.921875 
L 55.421875 72.90625 
L 64.984375 72.90625 
L 64.984375 0 
L 51.703125 0 
L 19.390625 60.984375 
L 19.390625 0 
L 9.8125 0 
z
" id="DejaVuSans-4e"/>
      <path d="M 8.5 21.578125 
L 8.5 54.6875 
L 17.484375 54.6875 
L 17.484375 21.921875 
Q 17.484375 14.15625 20.5 10.265625 
Q 23.53125 6.390625 29.59375 6.390625 
Q 36.859375 6.390625 41.078125 11.03125 
Q 45.3125 15.671875 45.3125 23.6875 
L 45.3125 54.6875 
L 54.296875 54.6875 
L 54.296875 0 
L 45.3125 0 
L 45.3125 8.40625 
Q 42.046875 3.421875 37.71875 1 
Q 33.40625 -1.421875 27.6875 -1.421875 
Q 18.265625 -1.421875 13.375 4.4375 
Q 8.5 10.296875 8.5 21.578125 
M 31.109375 56 
z
" id="DejaVuSans-75"/>
      <path d="M 52 44.1875 
Q 55.375 50.25 60.0625 53.125 
Q 64.75 56 71.09375 56 
Q 79.640625 56 84.28125 50.015625 
Q 88.921875 44.046875 88.921875 33.015625 
L 88.921875 0 
L 79.890625 0 
L 79.890625 32.71875 
Q 79.890625 40.578125 77.09375 44.375 
Q 74.3125 48.1875 68.609375 48.1875 
Q 61.625 48.1875 57.5625 43.546875 
Q 53.515625 38.921875 53.515625 30.90625 
L 53.515625 0 
L 44.484375 0 
L 44.484375 32.71875 
Q 44.484375 40.625 41.703125 44.40625 
Q 38.921875 48.1875 33.109375 48.1875 
Q 26.21875 48.1875 22.15625 43.53125 
Q 18.109375 38.875 18.109375 30.90625 
L 18.109375 0 
L 9.078125 0 
L 9.078125 54.6875 
L 18.109375 54.6875 
L 18.109375 46.1875 
Q 21.1875 51.21875 25.484375 53.609375 
Q 29.78125 56 35.6875 56 
Q 41.65625 56 45.828125 52.96875 
Q 50 49.953125 52 44.1875 
" id="DejaVuSans-6d"/>
      <path d="M 48.6875 27.296875 
Q 48.6875 37.203125 44.609375 42.84375 
Q 40.53125 48.484375 33.40625 48.484375 
Q 26.265625 48.484375 22.1875 42.84375 
Q 18.109375 37.203125 18.109375 27.296875 
Q 18.109375 17.390625 22.1875 11.75 
Q 26.265625 6.109375 33.40625 6.109375 
Q 40.53125 6.109375 44.609375 11.75 
Q 48.6875 17.390625 48.6875 27.296875 
M 18.109375 46.390625 
Q 20.953125 51.265625 25.265625 53.625 
Q 29.59375 56 35.59375 56 
Q 45.5625 56 51.78125 48.09375 
Q 58.015625 40.1875 58.015625 27.296875 
Q 58.015625 14.40625 51.78125 6.484375 
Q 45.5625 -1.421875 35.59375 -1.421875 
Q 29.59375 -1.421875 25.265625 0.953125 
Q 20.953125 3.328125 18.109375 8.203125 
L 18.109375 0 
L 9.078125 0 
L 9.078125 75.984375 
L 18.109375 75.984375 
z
" id="DejaVuSans-62"/>
      <path d="M 56.203125 29.59375 
L 56.203125 25.203125 
L 14.890625 25.203125 
Q 15.484375 15.921875 20.484375 11.0625 
Q 25.484375 6.203125 34.421875 6.203125 
Q 39.59375 6.203125 44.453125 7.46875 
Q 49.3125 8.734375 54.109375 11.28125 
L 54.109375 2.78125 
Q 49.265625 0.734375 44.1875 -0.34375 
Q 39.109375 -1.421875 33.890625 -1.421875 
Q 20.796875 -1.421875 13.15625 6.1875 
Q 5.515625 13.8125 5.515625 26.8125 
Q 5.515625 40.234375 12.765625 48.109375 
Q 20.015625 56 32.328125 56 
Q 43.359375 56 49.78125 48.890625 
Q 56.203125 41.796875 56.203125 29.59375 
M 47.21875 32.234375 
Q 47.125 39.59375 43.09375 43.984375 
Q 39.0625 48.390625 32.421875 48.390625 
Q 24.90625 48.390625 20.390625 44.140625 
Q 15.875 39.890625 15.1875 32.171875 
z
" id="DejaVuSans-65"/>
      <path d="M 41.109375 46.296875 
Q 39.59375 47.171875 37.8125 47.578125 
Q 36.03125 48 33.890625 48 
Q 26.265625 48 22.1875 43.046875 
Q 18.109375 38.09375 18.109375 28.8125 
L 18.109375 0 
L 9.078125 0 
L 9.078125 54.6875 
L 18.109375 54.6875 
L 18.109375 46.1875 
Q 20.953125 51.171875 25.484375 53.578125 
Q 30.03125 56 36.53125 56 
Q 37.453125 56 38.578125 55.875 
Q 39.703125 55.765625 41.0625 55.515625 
z
" id="DejaVuSans-72"/>
      <path id="DejaVuSans-20"/>
      <path d="M 30.609375 48.390625 
Q 23.390625 48.390625 19.1875 42.75 
Q 14.984375 37.109375 14.984375 27.296875 
Q 14.984375 17.484375 19.15625 11.84375 
Q 23.34375 6.203125 30.609375 6.203125 
Q 37.796875 6.203125 41.984375 11.859375 
Q 46.1875 17.53125 46.1875 27.296875 
Q 46.1875 37.015625 41.984375 42.703125 
Q 37.796875 48.390625 30.609375 48.390625 
M 30.609375 56 
Q 42.328125 56 49.015625 48.375 
Q 55.71875 40.765625 55.71875 27.296875 
Q 55.71875 13.875 49.015625 6.21875 
Q 42.328125 -1.421875 30.609375 -1.421875 
Q 18.84375 -1.421875 12.171875 6.21875 
Q 5.515625 13.875 5.515625 27.296875 
Q 5.515625 40.765625 12.171875 48.375 
Q 18.84375 56 30.609375 56 
" id="DejaVuSans-6f"/>
      <path d="M 37.109375 75.984375 
L 37.109375 68.5 
L 28.515625 68.5 
Q 23.6875 68.5 21.796875 66.546875 
Q 19.921875 64.59375 19.921875 59.515625 
L 19.921875 54.6875 
L 34.71875 54.6875 
L 34.71875 47.703125 
L 19.921875 47.703125 
L 19.921875 0 
L 10.890625 0 
L 10.890625 47.703125 
L 2.296875 47.703125 
L 2.296875 54.6875 
L 10.890625 54.6875 
L 10.890625 58.5 
Q 10.890625 67.625 15.140625 71.796875 
Q 19.390625 75.984375 28.609375 75.984375 
z
" id="DejaVuSans-66"/>
      <path d="M 48.78125 52.59375 
L 48.78125 44.1875 
Q 44.96875 46.296875 41.140625 47.34375 
Q 37.3125 48.390625 33.40625 48.390625 
Q 24.65625 48.390625 19.8125 42.84375 
Q 14.984375 37.3125 14.984375 27.296875 
Q 14.984375 17.28125 19.8125 11.734375 
Q 24.65625 6.203125 33.40625 6.203125 
Q 37.3125 6.203125 41.140625 7.25 
Q 44.96875 8.296875 48.78125 10.40625 
L 48.78125 2.09375 
Q 45.015625 0.34375 40.984375 -0.53125 
Q 36.96875 -1.421875 32.421875 -1.421875 
Q 20.0625 -1.421875 12.78125 6.34375 
Q 5.515625 14.109375 5.515625 27.296875 
Q 5.515625 40.671875 12.859375 48.328125 
Q 20.21875 56 33.015625 56 
Q 37.15625 56 41.109375 55.140625 
Q 45.0625 54.296875 48.78125 52.59375 
" id="DejaVuSans-63"/>
      <path d="M 9.421875 75.984375 
L 18.40625 75.984375 
L 18.40625 0 
L 9.421875 0 
z
" id="DejaVuSans-6c"/>
      <path d="M 9.421875 54.6875 
L 18.40625 54.6875 
L 18.40625 0 
L 9.421875 0 
z
M 9.421875 75.984375 
L 18.40625 75.984375 
L 18.40625 64.59375 
L 9.421875 64.59375 
z
" id="DejaVuSans-69"/>
      <path d="M 54.890625 33.015625 
L 54.890625 0 
L 45.90625 0 
L 45.90625 32.71875 
Q 45.90625 40.484375 42.875 44.328125 
Q 39.84375 48.1875 33.796875 48.1875 
Q 26.515625 48.1875 22.3125 43.546875 
Q 18.109375 38.921875 18.109375 30.90625 
L 18.109375 0 
L 9.078125 0 
L 9.078125 54.6875 
L 18.109375 54.6875 
L 18.109375 46.1875 
Q 21.34375 51.125 25.703125 53.5625 
Q 30.078125 56 35.796875 56 
Q 45.21875 56 50.046875 50.171875 
Q 54.890625 44.34375 54.890625 33.015625 
" id="DejaVuSans-6e"/>
      <path d="M 18.3125 70.21875 
L 18.3125 54.6875 
L 36.8125 54.6875 
L 36.8125 47.703125 
L 18.3125 47.703125 
L 18.3125 18.015625 
Q 18.3125 11.328125 20.140625 9.421875 
Q 21.96875 7.515625 27.59375 7.515625 
L 36.8125 7.515625 
L 36.8125 0 
L 27.59375 0 
Q 17.1875 0 13.234375 3.875 
Q 9.28125 7.765625 9.28125 18.015625 
L 9.28125 47.703125 
L 2.6875 47.703125 
L 2.6875 54.6875 
L 9.28125 54.6875 
L 9.28125 70.21875 
z
" id="DejaVuSans-74"/>
      <path d="M 44.28125 53.078125 
L 44.28125 44.578125 
Q 40.484375 46.53125 36.375 47.5 
Q 32.28125 48.484375 27.875 48.484375 
Q 21.1875 48.484375 17.84375 46.4375 
Q 14.5 44.390625 14.5 40.28125 
Q 14.5 37.15625 16.890625 35.375 
Q 19.28125 33.59375 26.515625 31.984375 
L 29.59375 31.296875 
Q 39.15625 29.25 43.1875 25.515625 
Q 47.21875 21.78125 47.21875 15.09375 
Q 47.21875 7.46875 41.1875 3.015625 
Q 35.15625 -1.421875 24.609375 -1.421875 
Q 20.21875 -1.421875 15.453125 -0.5625 
Q 10.6875 0.296875 5.421875 2 
L 5.421875 11.28125 
Q 10.40625 8.6875 15.234375 7.390625 
Q 20.0625 6.109375 24.8125 6.109375 
Q 31.15625 6.109375 34.5625 8.28125 
Q 37.984375 10.453125 37.984375 14.40625 
Q 37.984375 18.0625 35.515625 20.015625 
Q 33.0625 21.96875 24.703125 23.78125 
L 21.578125 24.515625 
Q 13.234375 26.265625 9.515625 29.90625 
Q 5.8125 33.546875 5.8125 39.890625 
Q 5.8125 47.609375 11.28125 51.796875 
Q 16.75 56 26.8125 56 
Q 31.78125 56 36.171875 55.265625 
Q 40.578125 54.546875 44.28125 53.078125 
" id="DejaVuSans-73"/>
     </defs>
     <g transform="translate(191.738906 335.860562)scale(0.1 -0.1)">
      <use xlink:href="#DejaVuSans-4e"/>
      <use x="74.804688" xlink:href="#DejaVuSans-75"/>
      <use x="138.183594" xlink:href="#DejaVuSans-6d"/>
      <use x="235.595703" xlink:href="#DejaVuSans-62"/>
      <use x="299.072266" xlink:href="#DejaVuSans-65"/>
      <use x="360.595703" xlink:href="#DejaVuSans-72"/>
      <use x="401.708984" xlink:href="#DejaVuSans-20"/>
      <use x="433.496094" xlink:href="#DejaVuSans-6f"/>
      <use x="494.677734" xlink:href="#DejaVuSans-66"/>
      <use x="529.882812" xlink:href="#DejaVuSans-20"/>
      <use x="561.669922" xlink:href="#DejaVuSans-63"/>
      <use x="616.650391" xlink:href="#DejaVuSans-6c"/>
      <use x="644.433594" xlink:href="#DejaVuSans-69"/>
      <use x="672.216797" xlink:href="#DejaVuSans-65"/>
      <use x="733.740234" xlink:href="#DejaVuSans-6e"/>
      <use x="797.119141" xlink:href="#DejaVuSans-74"/>
      <use x="836.328125" xlink:href="#DejaVuSans-73"/>
     </g>
    </g>
   </g>
   <g id="matplotlib.axis_2">
    <g id="ytick_1">
     <g id="line2d_13">
      <path clip-path="url(#p2d3606e361)" d="M 57.6 296.015008 
L 414.72 296.015008 
" style="fill:none;stroke:#b0b0b0;stroke-linecap:square;stroke-width:0.8;"/>
     </g>
     <g id="line2d_14">
      <defs>
       <path d="M 0 0 
L -3.5 0 
" id="mba00230851" style="stroke:#000000;stroke-width:0.8;"/>
      </defs>
      <g>
       <use style="stroke:#000000;stroke-width:0.8;" x="57.6" xlink:href="#mba00230851" y="296.015008"/>
      </g>
     </g>
     <g id="text_8">
      <!-- 0 -->
      <g transform="translate(44.2375 299.814227)scale(0.1 -0.1)">
       <use xlink:href="#DejaVuSans-30"/>
      </g>
     </g>
    </g>
    <g id="ytick_2">
     <g id="line2d_15">
      <path clip-path="url(#p2d3606e361)" d="M 57.6 240.364754 
L 414.72 240.364754 
" style="fill:none;stroke:#b0b0b0;stroke-linecap:square;stroke-width:0.8;"/>
     </g>
     <g id="line2d_16">
      <g>
       <use style="stroke:#000000;stroke-width:0.8;" x="57.6" xlink:href="#mba00230851" y="240.364754"/>
      </g>
     </g>
     <g id="text_9">
      <!-- 100 -->
      <g transform="translate(31.5125 244.163973)scale(0.1 -0.1)">
       <use xlink:href="#DejaVuSans-31"/>
       <use x="63.623047" xlink:href="#DejaVuSans-30"/>
       <use x="127.246094" xlink:href="#DejaVuSans-30"/>
      </g>
     </g>
    </g>
    <g id="ytick_3">
     <g id="line2d_17">
      <path clip-path="url(#p2d3606e361)" d="M 57.6 184.714501 
L 414.72 184.714501 
" style="fill:none;stroke:#b0b0b0;stroke-linecap:square;stroke-width:0.8;"/>
     </g>
     <g id="line2d_18">
      <g>
       <use style="stroke:#000000;stroke-width:0.8;" x="57.6" xlink:href="#mba00230851" y="184.714501"/>
      </g>
     </g>
     <g id="text_10">
      <!-- 200 -->
      <g transform="translate(31.5125 188.513719)scale(0.1 -0.1)">
       <use xlink:href="#DejaVuSans-32"/>
       <use x="63.623047" xlink:href="#DejaVuSans-30"/>
       <use x="127.246094" xlink:href="#DejaVuSans-30"/>
      </g>
     </g>
    </g>
    <g id="ytick_4">
     <g id="line2d_19">
      <path clip-path="url(#p2d3606e361)" d="M 57.6 129.064247 
L 414.72 129.064247 
" style="fill:none;stroke:#b0b0b0;stroke-linecap:square;stroke-width:0.8;"/>
     </g>
     <g id="line2d_20">
      <g>
       <use style="stroke:#000000;stroke-width:0.8;" x="57.6" xlink:href="#mba00230851" y="129.064247"/>
      </g>
     </g>
     <g id="text_11">
      <!-- 300 -->
      <defs>
       <path d="M 40.578125 39.3125 
Q 47.65625 37.796875 51.625 33 
Q 55.609375 28.21875 55.609375 21.1875 
Q 55.609375 10.40625 48.1875 4.484375 
Q 40.765625 -1.421875 27.09375 -1.421875 
Q 22.515625 -1.421875 17.65625 -0.515625 
Q 12.796875 0.390625 7.625 2.203125 
L 7.625 11.71875 
Q 11.71875 9.328125 16.59375 8.109375 
Q 21.484375 6.890625 26.8125 6.890625 
Q 36.078125 6.890625 40.9375 10.546875 
Q 45.796875 14.203125 45.796875 21.1875 
Q 45.796875 27.640625 41.28125 31.265625 
Q 36.765625 34.90625 28.71875 34.90625 
L 20.21875 34.90625 
L 20.21875 43.015625 
L 29.109375 43.015625 
Q 36.375 43.015625 40.234375 45.921875 
Q 44.09375 48.828125 44.09375 54.296875 
Q 44.09375 59.90625 40.109375 62.90625 
Q 36.140625 65.921875 28.71875 65.921875 
Q 24.65625 65.921875 20.015625 65.03125 
Q 15.375 64.15625 9.8125 62.3125 
L 9.8125 71.09375 
Q 15.4375 72.65625 20.34375 73.4375 
Q 25.25 74.21875 29.59375 74.21875 
Q 40.828125 74.21875 47.359375 69.109375 
Q 53.90625 64.015625 53.90625 55.328125 
Q 53.90625 49.265625 50.4375 45.09375 
Q 46.96875 40.921875 40.578125 39.3125 
" id="DejaVuSans-33"/>
      </defs>
      <g transform="translate(31.5125 132.863466)scale(0.1 -0.1)">
       <use xlink:href="#DejaVuSans-33"/>
       <use x="63.623047" xlink:href="#DejaVuSans-30"/>
       <use x="127.246094" xlink:href="#DejaVuSans-30"/>
      </g>
     </g>
    </g>
    <g id="ytick_5">
     <g id="line2d_21">
      <path clip-path="url(#p2d3606e361)" d="M 57.6 73.413993 
L 414.72 73.413993 
" style="fill:none;stroke:#b0b0b0;stroke-linecap:square;stroke-width:0.8;"/>
     </g>
     <g id="line2d_22">
      <g>
       <use style="stroke:#000000;stroke-width:0.8;" x="57.6" xlink:href="#mba00230851" y="73.413993"/>
      </g>
     </g>
     <g id="text_12">
      <!-- 400 -->
      <g transform="translate(31.5125 77.213212)scale(0.1 -0.1)">
       <use xlink:href="#DejaVuSans-34"/>
       <use x="63.623047" xlink:href="#DejaVuSans-30"/>
       <use x="127.246094" xlink:href="#DejaVuSans-30"/>
      </g>
     </g>
    </g>
    <g id="text_13">
     <!-- Successful download requests per second -->
     <defs>
      <path d="M 53.515625 70.515625 
L 53.515625 60.890625 
Q 47.90625 63.578125 42.921875 64.890625 
Q 37.9375 66.21875 33.296875 66.21875 
Q 25.25 66.21875 20.875 63.09375 
Q 16.5 59.96875 16.5 54.203125 
Q 16.5 49.359375 19.40625 46.890625 
Q 22.3125 44.4375 30.421875 42.921875 
L 36.375 41.703125 
Q 47.40625 39.59375 52.65625 34.296875 
Q 57.90625 29 57.90625 20.125 
Q 57.90625 9.515625 50.796875 4.046875 
Q 43.703125 -1.421875 29.984375 -1.421875 
Q 24.8125 -1.421875 18.96875 -0.25 
Q 13.140625 0.921875 6.890625 3.21875 
L 6.890625 13.375 
Q 12.890625 10.015625 18.65625 8.296875 
Q 24.421875 6.59375 29.984375 6.59375 
Q 38.421875 6.59375 43.015625 9.90625 
Q 47.609375 13.234375 47.609375 19.390625 
Q 47.609375 24.75 44.3125 27.78125 
Q 41.015625 30.8125 33.5 32.328125 
L 27.484375 33.5 
Q 16.453125 35.6875 11.515625 40.375 
Q 6.59375 45.0625 6.59375 53.421875 
Q 6.59375 63.09375 13.40625 68.65625 
Q 20.21875 74.21875 32.171875 74.21875 
Q 37.3125 74.21875 42.625 73.28125 
Q 47.953125 72.359375 53.515625 70.515625 
" id="DejaVuSans-53"/>
      <path d="M 45.40625 46.390625 
L 45.40625 75.984375 
L 54.390625 75.984375 
L 54.390625 0 
L 45.40625 0 
L 45.40625 8.203125 
Q 42.578125 3.328125 38.25 0.953125 
Q 33.9375 -1.421875 27.875 -1.421875 
Q 17.96875 -1.421875 11.734375 6.484375 
Q 5.515625 14.40625 5.515625 27.296875 
Q 5.515625 40.1875 11.734375 48.09375 
Q 17.96875 56 27.875 56 
Q 33.9375 56 38.25 53.625 
Q 42.578125 51.265625 45.40625 46.390625 
M 14.796875 27.296875 
Q 14.796875 17.390625 18.875 11.75 
Q 22.953125 6.109375 30.078125 6.109375 
Q 37.203125 6.109375 41.296875 11.75 
Q 45.40625 17.390625 45.40625 27.296875 
Q 45.40625 37.203125 41.296875 42.84375 
Q 37.203125 48.484375 30.078125 48.484375 
Q 22.953125 48.484375 18.875 42.84375 
Q 14.796875 37.203125 14.796875 27.296875 
" id="DejaVuSans-64"/>
      <path d="M 4.203125 54.6875 
L 13.1875 54.6875 
L 24.421875 12.015625 
L 35.59375 54.6875 
L 46.1875 54.6875 
L 57.421875 12.015625 
L 68.609375 54.6875 
L 77.59375 54.6875 
L 63.28125 0 
L 52.6875 0 
L 40.921875 44.828125 
L 29.109375 0 
L 18.5 0 
z
" id="DejaVuSans-77"/>
      <path d="M 34.28125 27.484375 
Q 23.390625 27.484375 19.1875 25 
Q 14.984375 22.515625 14.984375 16.5 
Q 14.984375 11.71875 18.140625 8.90625 
Q 21.296875 6.109375 26.703125 6.109375 
Q 34.1875 6.109375 38.703125 11.40625 
Q 43.21875 16.703125 43.21875 25.484375 
L 43.21875 27.484375 
z
M 52.203125 31.203125 
L 52.203125 0 
L 43.21875 0 
L 43.21875 8.296875 
Q 40.140625 3.328125 35.546875 0.953125 
Q 30.953125 -1.421875 24.3125 -1.421875 
Q 15.921875 -1.421875 10.953125 3.296875 
Q 6 8.015625 6 15.921875 
Q 6 25.140625 12.171875 29.828125 
Q 18.359375 34.515625 30.609375 34.515625 
L 43.21875 34.515625 
L 43.21875 35.40625 
Q 43.21875 41.609375 39.140625 45 
Q 35.0625 48.390625 27.6875 48.390625 
Q 23 48.390625 18.546875 47.265625 
Q 14.109375 46.140625 10.015625 43.890625 
L 10.015625 52.203125 
Q 14.9375 54.109375 19.578125 55.046875 
Q 24.21875 56 28.609375 56 
Q 40.484375 56 46.34375 49.84375 
Q 52.203125 43.703125 52.203125 31.203125 
" id="DejaVuSans-61"/>
      <path d="M 14.796875 27.296875 
Q 14.796875 17.390625 18.875 11.75 
Q 22.953125 6.109375 30.078125 6.109375 
Q 37.203125 6.109375 41.296875 11.75 
Q 45.40625 17.390625 45.40625 27.296875 
Q 45.40625 37.203125 41.296875 42.84375 
Q 37.203125 48.484375 30.078125 48.484375 
Q 22.953125 48.484375 18.875 42.84375 
Q 14.796875 37.203125 14.796875 27.296875 
M 45.40625 8.203125 
Q 42.578125 3.328125 38.25 0.953125 
Q 33.9375 -1.421875 27.875 -1.421875 
Q 17.96875 -1.421875 11.734375 6.484375 
Q 5.515625 14.40625 5.515625 27.296875 
Q 5.515625 40.1875 11.734375 48.09375 
Q 17.96875 56 27.875 56 
Q 33.9375 56 38.25 53.625 
Q 42.578125 51.265625 45.40625 46.390625 
L 45.40625 54.6875 
L 54.390625 54.6875 
L 54.390625 -20.796875 
L 45.40625 -20.796875 
z
" id="DejaVuSans-71"/>
      <path d="M 18.109375 8.203125 
L 18.109375 -20.796875 
L 9.078125 -20.796875 
L 9.078125 54.6875 
L 18.109375 54.6875 
L 18.109375 46.390625 
Q 20.953125 51.265625 25.265625 53.625 
Q 29.59375 56 35.59375 56 
Q 45.5625 56 51.78125 48.09375 
Q 58.015625 40.1875 58.015625 27.296875 
Q 58.015625 14.40625 51.78125 6.484375 
Q 45.5625 -1.421875 35.59375 -1.421875 
Q 29.59375 -1.421875 25.265625 0.953125 
Q 20.953125 3.328125 18.109375 8.203125 
M 48.6875 27.296875 
Q 48.6875 37.203125 44.609375 42.84375 
Q 40.53125 48.484375 33.40625 48.484375 
Q 26.265625 48.484375 22.1875 42.84375 
Q 18.109375 37.203125 18.109375 27.296875 
Q 18.109375 17.390625 22.1875 11.75 
Q 26.265625 6.109375 33.40625 6.109375 
Q 40.53125 6.109375 44.609375 11.75 
Q 48.6875 17.390625 48.6875 27.296875 
" id="DejaVuSans-70"/>
     </defs>
     <g transform="translate(25.432812 279.366281)rotate(-90)scale(0.1 -0.1)">
      <use xlink:href="#DejaVuSans-53"/>
      <use x="63.476562" xlink:href="#DejaVuSans-75"/>
      <use x="126.855469" xlink:href="#DejaVuSans-63"/>
      <use x="181.835938" xlink:href="#DejaVuSans-63"/>
      <use x="236.816406" xlink:href="#DejaVuSans-65"/>
      <use x="298.339844" xlink:href="#DejaVuSans-73"/>
      <use x="350.439453" xlink:href="#DejaVuSans-73"/>
      <use x="402.539062" xlink:href="#DejaVuSans-66"/>
      <use x="437.744141" xlink:href="#DejaVuSans-75"/>
      <use x="501.123047" xlink:href="#DejaVuSans-6c"/>
      <use x="528.90625" xlink:href="#DejaVuSans-20"/>
      <use x="560.693359" xlink:href="#DejaVuSans-64"/>
      <use x="624.169922" xlink:href="#DejaVuSans-6f"/>
      <use x="685.351562" xlink:href="#DejaVuSans-77"/>
      <use x="767.138672" xlink:href="#DejaVuSans-6e"/>
      <use x="830.517578" xlink:href="#DejaVuSans-6c"/>
      <use x="858.300781" xlink:href="#DejaVuSans-6f"/>
      <use x="919.482422" xlink:href="#DejaVuSans-61"/>
      <use x="980.761719" xlink:href="#DejaVuSans-64"/>
      <use x="1044.238281" xlink:href="#DejaVuSans-20"/>
      <use x="1076.025391" xlink:href="#DejaVuSans-72"/>
      <use x="1117.107422" xlink:href="#DejaVuSans-65"/>
      <use x="1178.630859" xlink:href="#DejaVuSans-71"/>
      <use x="1242.107422" xlink:href="#DejaVuSans-75"/>
      <use x="1305.486328" xlink:href="#DejaVuSans-65"/>
      <use x="1367.009766" xlink:href="#DejaVuSans-73"/>
      <use x="1419.109375" xlink:href="#DejaVuSans-74"/>
      <use x="1458.318359" xlink:href="#DejaVuSans-73"/>
      <use x="1510.417969" xlink:href="#DejaVuSans-20"/>
      <use x="1542.205078" xlink:href="#DejaVuSans-70"/>
      <use x="1605.681641" xlink:href="#DejaVuSans-65"/>
      <use x="1667.205078" xlink:href="#DejaVuSans-72"/>
      <use x="1708.318359" xlink:href="#DejaVuSans-20"/>
      <use x="1740.105469" xlink:href="#DejaVuSans-73"/>
      <use x="1792.205078" xlink:href="#DejaVuSans-65"/>
      <use x="1853.728516" xlink:href="#DejaVuSans-63"/>
      <use x="1908.708984" xlink:href="#DejaVuSans-6f"/>
      <use x="1969.890625" xlink:href="#DejaVuSans-6e"/>
      <use x="2033.269531" xlink:href="#DejaVuSans-64"/>
     </g>
    </g>
   </g>
   <g id="line2d_23">
    <path clip-path="url(#p2d3606e361)" d="M 57.6 295.462401 
L 57.95712 295.488 
L 60.81408 291.300318 
L 61.52832 290.063213 
L 62.59968 288.698113 
L 63.31392 287.15994 
L 64.02816 286.256179 
L 64.7424 285.026865 
L 65.45664 284.217711 
L 65.81376 283.320072 
L 66.17088 283.525421 
L 66.528 282.552099 
L 66.88512 282.201502 
L 67.24224 282.009509 
L 67.95648 280.327201 
L 68.3136 280.201988 
L 68.67072 279.455162 
L 69.02784 278.310436 
L 69.38496 278.668824 
L 69.74208 277.131207 
L 70.0992 277.696057 
L 70.81344 275.532376 
L 71.17056 275.998725 
L 71.52768 274.358712 
L 71.8848 274.094373 
L 72.24192 273.214542 
L 72.59904 273.491124 
L 72.95616 273.602981 
L 73.31328 271.906205 
L 73.6704 271.226715 
L 74.02752 271.720333 
L 74.74176 270.179934 
L 75.09888 270.37471 
L 75.456 269.321251 
L 75.81312 269.405283 
L 76.17024 268.946725 
L 76.52736 267.319511 
L 76.88448 267.158682 
L 77.2416 267.419125 
L 77.59872 265.38956 
L 77.95584 265.280486 
L 78.31296 265.931594 
L 78.67008 264.171933 
L 79.0272 263.330501 
L 79.38432 263.239791 
L 79.74144 263.579258 
L 80.09856 261.107273 
L 80.45568 261.174054 
L 80.8128 262.149046 
L 81.16992 260.085535 
L 81.52704 260.637029 
L 81.88416 259.536823 
L 82.24128 260.290884 
L 82.5984 259.453904 
L 82.95552 259.208487 
L 83.31264 258.718208 
L 83.66976 257.867316 
L 84.02688 257.494459 
L 84.384 255.232833 
L 84.74112 253.874966 
L 85.09824 253.770344 
L 85.45536 255.063099 
L 85.81248 253.716363 
L 86.1696 253.283404 
L 86.52672 252.071342 
L 86.88384 251.333976 
L 87.24096 249.948284 
L 87.59808 249.81528 
L 88.31232 248.192519 
L 88.66944 248.826375 
L 89.02656 247.923728 
L 89.38368 246.489621 
L 89.7408 248.040594 
L 90.09792 246.727248 
L 90.45504 246.476265 
L 90.81216 246.883068 
L 91.16928 245.479569 
L 91.5264 245.578627 
L 91.88352 242.994785 
L 92.24064 245.083896 
L 92.59776 241.855625 
L 92.95488 244.407745 
L 93.312 241.560678 
L 93.66912 243.43164 
L 94.02624 241.695352 
L 94.38336 241.451604 
L 94.74048 239.220585 
L 95.0976 240.670274 
L 96.16896 236.207124 
L 96.52608 238.035791 
L 96.8832 235.750792 
L 97.24032 234.818094 
L 97.59744 235.004522 
L 97.95456 233.997252 
L 98.6688 235.515948 
L 99.02592 234.63723 
L 99.38304 234.773573 
L 99.74016 233.500852 
L 100.09728 229.823483 
L 100.4544 230.86136 
L 100.81152 229.215782 
L 101.16864 228.715487 
L 101.52576 228.897463 
L 101.88288 231.254808 
L 102.24 229.768389 
L 102.59712 229.64095 
L 102.95424 228.629229 
L 103.66848 224.35195 
L 104.0256 228.35376 
L 104.38272 226.925218 
L 104.73984 222.623453 
L 105.09696 224.694199 
L 105.45408 224.951304 
L 105.8112 222.428121 
L 106.16832 223.080342 
L 106.52544 221.428642 
L 106.88256 222.991302 
L 107.23968 223.328542 
L 107.5968 221.573333 
L 107.95392 219.157556 
L 108.31104 221.367427 
L 109.02528 217.858679 
L 109.3824 219.970606 
L 109.73952 219.633922 
L 110.09664 218.893217 
L 110.45376 215.370556 
L 110.81088 215.412294 
L 111.168 217.097383 
L 111.52512 214.988795 
L 111.88224 215.340505 
L 112.23936 216.722857 
L 112.59648 214.662685 
L 112.9536 215.565888 
L 113.31072 210.124406 
L 113.66784 214.40558 
L 114.02496 209.250697 
L 114.38208 212.046566 
L 114.7392 207.990776 
L 115.09632 210.049279 
L 115.45344 209.585156 
L 115.81056 206.708594 
L 116.16768 206.230558 
L 116.5248 205.381335 
L 116.88192 209.041453 
L 117.23904 205.837667 
L 117.59616 206.043573 
L 117.95328 202.229305 
L 118.3104 202.588249 
L 118.66752 202.358414 
L 119.02464 206.065277 
L 119.38176 202.563763 
L 119.73888 205.012931 
L 120.096 200.024442 
L 120.45312 202.410725 
L 120.81024 199.575901 
L 121.16736 201.839197 
L 121.52448 199.002147 
L 121.8816 201.966079 
L 122.23872 196.239668 
L 122.59584 200.786294 
L 122.95296 198.772868 
L 123.31008 199.746747 
L 123.6672 193.076508 
L 124.38144 195.358168 
L 124.73856 198.664906 
L 125.09568 190.872758 
L 125.4528 194.468877 
L 125.80992 194.105481 
L 126.16704 190.617323 
L 126.52416 194.451626 
L 126.88128 193.237894 
L 127.2384 195.039849 
L 127.95264 187.834254 
L 128.30976 189.244431 
L 128.66688 189.751962 
L 129.024 189.389122 
L 129.38112 188.276673 
L 129.73824 190.274518 
L 130.09536 184.737317 
L 130.45248 185.913764 
L 130.8096 182.554714 
L 131.16672 189.063011 
L 131.52384 184.689458 
L 131.88096 183.803506 
L 132.23808 185.828619 
L 132.5952 183.501325 
L 132.95232 183.352182 
L 133.30944 185.460771 
L 133.66656 185.74403 
L 134.02368 178.615789 
L 134.3808 183.20137 
L 134.73792 182.398894 
L 135.09504 182.464561 
L 135.45216 183.028298 
L 135.80928 179.61805 
L 136.1664 179.729351 
L 136.52352 179.476142 
L 136.88064 174.174899 
L 137.23776 179.1773 
L 137.59488 172.335658 
L 137.952 176.113197 
L 138.30912 177.006941 
L 139.02336 172.347901 
L 139.7376 176.880614 
L 140.09472 175.975741 
L 140.45184 167.249782 
L 140.80896 172.730775 
L 141.16608 166.403898 
L 141.5232 173.805381 
L 141.88032 172.62337 
L 142.23744 168.933758 
L 142.59456 168.24926 
L 142.95168 163.439409 
L 143.3088 167.923706 
L 143.66592 162.329186 
L 144.02304 167.966557 
L 144.38016 164.995946 
L 144.73728 164.154514 
L 145.0944 166.594222 
L 145.45152 167.692758 
L 145.80864 165.709939 
L 146.16576 168.046693 
L 146.52288 161.318021 
L 146.88 162.182826 
L 147.23712 166.408906 
L 147.59424 167.451235 
L 147.95136 162.938 
L 148.30848 164.536275 
L 148.6656 168.225887 
L 149.37984 164.111107 
L 149.73696 158.410852 
L 150.09408 157.981788 
L 150.4512 159.083107 
L 150.80832 157.928364 
L 151.16544 158.200494 
L 151.52256 162.797205 
L 151.87968 163.880715 
L 152.59392 160.181086 
L 152.95104 157.16206 
L 153.30816 162.960817 
L 154.0224 159.233919 
L 154.73664 164.638115 
L 155.45088 155.528725 
L 155.808 163.901862 
L 156.16512 154.600479 
L 156.52224 154.753517 
L 156.87936 156.514848 
L 157.23648 162.689243 
L 157.95072 154.711223 
L 158.30784 160.474363 
L 158.66496 154.470814 
L 159.02208 161.87508 
L 159.3792 159.358019 
L 159.73632 158.046343 
L 160.09344 155.790838 
L 160.45056 158.656826 
L 160.80768 160.51777 
L 161.1648 160.444312 
L 161.52192 151.688301 
L 162.23616 159.892262 
L 162.59328 151.855252 
L 162.9504 158.031317 
L 163.30752 153.662216 
L 163.66464 152.958796 
L 164.02176 151.636546 
L 164.37888 152.042793 
L 164.736 150.418362 
L 165.09312 150.185744 
L 165.45024 158.395826 
L 165.80736 157.585559 
L 166.16448 157.333463 
L 166.5216 156.365148 
L 166.87872 156.061298 
L 167.23584 152.745099 
L 167.59296 153.25096 
L 167.95008 153.978866 
L 168.3072 155.222649 
L 168.66432 149.846834 
L 169.02144 147.8156 
L 169.37856 147.482255 
L 169.73568 148.295862 
L 170.0928 150.230265 
L 170.44992 150.123416 
L 170.80704 148.590808 
L 171.16416 151.255899 
L 171.8784 148.928049 
L 172.23552 146.336973 
L 172.59264 150.283689 
L 172.94976 151.620964 
L 173.30688 148.407162 
L 173.664 148.700439 
L 174.02112 149.626459 
L 174.37824 149.270298 
L 174.73536 151.789028 
L 175.09248 145.66917 
L 175.4496 146.718177 
L 175.80672 147.382641 
L 176.16384 144.416483 
L 176.52096 144.401457 
L 176.87808 143.31739 
L 177.59232 151.549176 
L 177.94944 143.146544 
L 178.66368 148.008706 
L 179.0208 140.421351 
L 179.73504 144.339685 
L 180.09216 146.914622 
L 180.44928 144.043069 
L 180.8064 142.645691 
L 181.16352 149.731638 
L 181.52064 149.702144 
L 181.87776 141.991801 
L 182.23488 147.607468 
L 182.592 145.1839 
L 182.94912 147.449421 
L 183.30624 138.6283 
L 183.66336 143.196629 
L 184.02048 139.461384 
L 184.3776 145.398153 
L 184.73472 143.803217 
L 185.09184 145.176665 
L 185.44896 141.740818 
L 185.80608 144.722559 
L 186.1632 138.26379 
L 186.87744 146.058165 
L 187.23456 144.444864 
L 187.59168 140.516513 
L 187.9488 145.152179 
L 188.66304 139.299998 
L 189.02016 144.53947 
L 189.37728 143.650735 
L 189.7344 139.054024 
L 190.09152 142.36744 
L 190.44864 134.542458 
L 190.80576 135.126786 
L 191.16288 136.383368 
L 191.52 138.768538 
L 191.87712 144.1527 
L 192.23424 136.049467 
L 192.59136 133.80231 
L 192.94848 133.423331 
L 193.3056 134.221913 
L 193.66272 142.164873 
L 194.01984 135.62096 
L 194.37696 139.982827 
L 194.73408 138.085153 
L 195.0912 138.931594 
L 195.44832 138.077362 
L 195.80544 138.396795 
L 196.16256 132.362638 
L 196.51968 133.036006 
L 196.8768 141.838763 
L 197.59104 134.849091 
L 197.94816 136.145742 
L 198.30528 139.443019 
L 198.6624 138.668368 
L 199.01952 139.49867 
L 199.37664 139.573797 
L 199.73376 133.58583 
L 200.09088 138.313876 
L 200.448 138.03952 
L 200.80512 131.049848 
L 201.16224 132.455017 
L 201.51936 128.587324 
L 201.87648 136.132386 
L 202.2336 130.100455 
L 202.59072 133.535745 
L 203.30496 129.587359 
L 203.66208 134.946479 
L 204.0192 136.892012 
L 204.37632 134.929227 
L 204.73344 138.738487 
L 205.09056 127.414774 
L 205.44768 133.217982 
L 205.8048 129.797161 
L 206.16192 136.316588 
L 206.51904 133.67821 
L 206.87616 127.938999 
L 207.23328 128.447086 
L 207.5904 126.546073 
L 207.94752 125.633409 
L 208.30464 127.469867 
L 208.66176 134.588648 
L 209.01888 131.59856 
L 209.376 125.616157 
L 209.73312 126.28563 
L 210.09024 126.140383 
L 210.44736 129.916252 
L 210.80448 131.834517 
L 211.1616 132.310326 
L 211.51872 127.442599 
L 211.87584 131.128871 
L 212.23296 129.443225 
L 212.59008 134.555258 
L 212.9472 126.596715 
L 213.30432 131.741581 
L 213.66144 126.204937 
L 214.01856 127.521622 
L 214.37568 130.653618 
L 214.7328 126.927277 
L 215.08992 129.688086 
L 215.44704 125.186537 
L 215.80416 123.264378 
L 216.16128 130.552335 
L 216.5184 130.124941 
L 216.87552 131.827839 
L 217.23264 122.235961 
L 217.58976 132.570213 
L 217.94688 129.346394 
L 218.304 122.589897 
L 218.66112 125.046299 
L 219.01824 132.322013 
L 219.37536 123.172555 
L 219.73248 123.997291 
L 220.0896 126.886653 
L 220.44672 128.162713 
L 220.80384 120.436788 
L 221.16096 127.851072 
L 221.51808 129.070925 
L 222.23232 128.105393 
L 222.58944 119.414493 
L 222.94656 120.061149 
L 223.30368 124.967275 
L 223.6608 124.699041 
L 224.01792 118.15791 
L 224.37504 124.275543 
L 224.73216 126.90613 
L 225.08928 128.166608 
L 225.4464 121.494143 
L 225.80352 117.140067 
L 226.16064 118.234151 
L 226.51776 125.040734 
L 226.87488 126.546073 
L 227.232 119.756742 
L 227.94624 127.84495 
L 228.30336 123.371783 
L 228.66048 122.134677 
L 229.0176 123.408512 
L 229.37472 119.30041 
L 229.73184 123.788603 
L 230.08896 122.384547 
L 230.44608 116.783349 
L 231.16032 125.548821 
L 231.51744 124.829263 
L 231.87456 121.043933 
L 232.23168 119.327679 
L 232.5888 126.526039 
L 232.94592 125.781439 
L 233.30304 126.426425 
L 233.66016 119.078366 
L 234.01728 118.160136 
L 234.3744 113.863937 
L 234.73152 119.150711 
L 235.44576 121.429589 
L 235.80288 124.131965 
L 236.16 117.640363 
L 236.51712 115.330321 
L 236.87424 116.349834 
L 237.23136 114.39651 
L 237.58848 120.071723 
L 237.9456 121.124625 
L 238.30272 117.11892 
L 238.65984 115.303052 
L 239.01696 119.97823 
L 239.37408 116.35039 
L 239.7312 119.648781 
L 240.08832 118.440614 
L 240.44544 112.442629 
L 241.15968 122.31888 
L 241.5168 120.564784 
L 241.87392 119.861921 
L 242.23104 112.474906 
L 242.58816 122.131895 
L 242.94528 119.955414 
L 243.3024 113.034748 
L 243.65952 115.789436 
L 244.01664 120.131825 
L 244.37376 114.295783 
L 245.088 115.985324 
L 245.44512 109.240514 
L 245.80224 118.483464 
L 246.15936 110.218845 
L 246.51648 121.227578 
L 246.8736 111.597302 
L 247.23072 116.102746 
L 247.58784 116.185665 
L 247.94496 119.963761 
L 248.30208 116.273036 
L 248.6592 119.529133 
L 249.01632 108.002852 
L 249.37344 108.650621 
L 249.73056 106.90209 
L 250.08768 116.380998 
L 250.4448 112.818825 
L 250.80192 111.61511 
L 251.15904 108.695141 
L 251.87328 118.788984 
L 252.2304 118.732777 
L 252.58752 114.278531 
L 252.94464 112.806025 
L 253.65888 115.265767 
L 254.37312 106.307745 
L 255.44448 111.725854 
L 255.8016 114.808322 
L 256.15872 112.765401 
L 256.51584 114.321938 
L 256.87296 112.128205 
L 257.23008 109.177629 
L 257.5872 108.931098 
L 257.94432 112.944595 
L 258.30144 109.247192 
L 258.65856 110.958994 
L 259.01568 115.740463 
L 259.3728 115.458873 
L 259.72992 104.190253 
L 260.08704 102.817361 
L 260.44416 111.022991 
L 260.80128 103.741156 
L 261.1584 112.774861 
L 261.51552 111.174917 
L 261.87264 102.206878 
L 262.22976 105.385064 
L 262.58688 105.328301 
L 262.944 104.319362 
L 263.30112 112.427047 
L 263.65824 104.697784 
L 264.01536 107.576571 
L 264.37248 101.212965 
L 264.7296 108.741887 
L 265.08672 110.18156 
L 265.44384 105.093457 
L 265.80096 107.697332 
L 266.15808 103.53358 
L 266.5152 113.177769 
L 266.87232 105.471322 
L 267.22944 102.245833 
L 267.58656 106.398455 
L 267.94368 102.550797 
L 268.3008 105.360578 
L 268.65792 109.82818 
L 269.01504 101.605855 
L 269.37216 105.015546 
L 269.72928 110.763105 
L 270.0864 103.976 
L 270.44352 111.362458 
L 271.15776 105.514173 
L 271.51488 111.630136 
L 271.872 110.075268 
L 272.22912 98.476085 
L 272.58624 107.737957 
L 272.94336 98.427113 
L 273.30048 109.523217 
L 274.01472 98.021979 
L 274.37184 104.280407 
L 274.72896 98.296335 
L 275.08608 105.721748 
L 275.4432 109.696289 
L 275.80032 103.523007 
L 276.15744 105.447949 
L 276.51456 97.361967 
L 276.87168 103.134011 
L 277.2288 106.323884 
L 277.58592 98.671418 
L 277.94304 106.729018 
L 278.30016 97.734267 
L 278.65728 96.409235 
L 279.0144 102.205765 
L 279.37152 98.154427 
L 279.72864 96.489928 
L 280.08576 104.481304 
L 280.44288 106.144134 
L 280.8 96.78543 
L 281.15712 96.273448 
L 281.51424 94.773117 
L 281.87136 96.011335 
L 282.22848 102.353795 
L 282.5856 94.264474 
L 282.94272 97.65747 
L 283.29984 98.930191 
L 284.3712 105.272094 
L 284.72832 104.722826 
L 285.08544 103.718896 
L 285.79968 106.814163 
L 286.1568 96.158809 
L 286.51392 96.913983 
L 286.87104 101.661506 
L 287.22816 96.773744 
L 287.58528 95.1482 
L 287.9424 103.38889 
L 288.65664 97.12434 
L 289.01376 105.740669 
L 289.37088 92.306142 
L 289.728 97.234528 
L 290.08512 93.210458 
L 290.44224 102.377724 
L 290.79936 98.75378 
L 291.15648 100.598029 
L 291.5136 104.499669 
L 291.87072 102.91308 
L 292.22784 102.044379 
L 292.58496 104.515251 
L 292.94208 102.364925 
L 293.2992 91.534273 
L 293.65632 94.090845 
L 294.01344 97.573995 
L 294.37056 94.260022 
L 294.72768 99.569613 
L 295.0848 101.068274 
L 295.44192 93.091923 
L 295.79904 103.594239 
L 296.15616 92.060724 
L 296.51328 92.675659 
L 296.8704 90.143573 
L 297.22752 97.695869 
L 297.58464 92.884904 
L 297.94176 97.847237 
L 298.29888 96.142114 
L 298.656 97.956312 
L 299.01312 100.573543 
L 299.37024 99.334212 
L 299.72736 96.460989 
L 300.08448 102.160132 
L 300.4416 98.862298 
L 301.15584 90.854226 
L 301.51296 99.897393 
L 301.87008 92.92052 
L 302.2272 98.990294 
L 302.58432 93.864905 
L 302.94144 91.444676 
L 303.29856 100.765537 
L 304.0128 94.208267 
L 304.36992 87.626512 
L 305.08416 90.263777 
L 305.44128 97.323012 
L 306.15552 95.352436 
L 306.51264 92.68512 
L 306.86976 91.136373 
L 307.22688 97.21505 
L 307.94112 86.420571 
L 308.29824 89.728978 
L 308.65536 85.600842 
L 309.01248 96.07589 
L 309.3696 98.581821 
L 309.72672 89.933771 
L 310.08384 94.989597 
L 310.44096 97.395914 
L 310.79808 84.339808 
L 311.1552 92.000622 
L 311.51232 92.938885 
L 311.86944 85.701569 
L 312.22656 92.365687 
L 312.58368 91.728492 
L 312.9408 92.000065 
L 313.29792 86.013211 
L 313.65504 91.67952 
L 314.01216 87.118425 
L 314.36928 94.314559 
L 314.7264 87.107295 
L 315.08352 89.410659 
L 315.44064 88.681641 
L 315.79776 82.865633 
L 316.15488 90.993909 
L 316.512 87.839096 
L 316.86912 86.928658 
L 317.22624 87.66658 
L 317.58336 82.930187 
L 317.94048 84.943613 
L 318.2976 83.459977 
L 318.65472 95.844385 
L 319.01184 86.201309 
L 319.36896 90.388434 
L 319.72608 82.733741 
L 320.0832 88.67051 
L 320.44032 82.167778 
L 320.79744 84.402693 
L 321.15456 85.463386 
L 321.51168 88.321583 
L 321.8688 89.944901 
L 322.22592 84.709882 
L 322.58304 90.082914 
L 322.94016 81.999715 
L 323.29728 89.889251 
L 323.6544 87.021593 
L 324.01152 80.833285 
L 324.36864 79.655726 
L 324.72576 89.306593 
L 325.08288 93.884383 
L 325.44 94.064133 
L 325.79712 83.275775 
L 326.15424 86.62759 
L 326.51136 78.7592 
L 326.86848 87.62039 
L 327.2256 90.158042 
L 327.58272 82.569573 
L 327.93984 81.144927 
L 328.29696 80.573399 
L 328.65408 78.552181 
L 329.0112 92.419112 
L 329.36832 92.708493 
L 329.72544 86.580287 
L 330.08256 85.980934 
L 330.43968 78.007365 
L 330.7968 79.484323 
L 331.15392 80.488254 
L 331.51104 78.108092 
L 331.86816 86.11839 
L 332.22528 89.873112 
L 332.5824 80.527765 
L 332.93952 77.313963 
L 333.29664 88.091191 
L 333.65376 76.517608 
L 334.01088 84.753289 
L 334.368 77.936133 
L 334.72512 79.162108 
L 335.08224 82.993072 
L 335.43936 83.345338 
L 335.79648 78.564424 
L 336.1536 86.997664 
L 336.51072 86.303705 
L 336.86784 85.238559 
L 337.22496 84.574652 
L 337.58208 78.237201 
L 337.9392 85.780593 
L 338.29632 81.464916 
L 338.65344 88.646581 
L 339.01056 77.374622 
L 339.36768 80.703064 
L 339.7248 79.741427 
L 340.08192 84.502306 
L 340.43904 86.428362 
L 340.79616 77.378518 
L 341.15328 76.336188 
L 341.5104 88.893111 
L 341.86752 76.067954 
L 342.22464 87.424501 
L 342.58176 78.742505 
L 342.93888 88.819097 
L 343.296 86.658754 
L 343.65312 86.086669 
L 344.01024 75.23487 
L 344.36736 73.361682 
L 344.72448 73.641046 
L 345.0816 77.52933 
L 345.43872 83.187847 
L 345.79584 79.892796 
L 346.15296 77.877144 
L 346.51008 87.144581 
L 347.22432 73.355004 
L 347.58144 78.700211 
L 347.93856 81.589016 
L 348.29568 78.1259 
L 348.6528 85.742751 
L 349.00992 86.330974 
L 349.36704 72.526372 
L 349.72416 76.441924 
L 350.08128 84.529575 
L 350.4384 72.907576 
L 350.79552 75.868726 
L 351.15264 74.076788 
L 351.50976 86.056618 
L 351.86688 79.080302 
L 352.224 79.922291 
L 352.58112 77.32398 
L 352.93824 78.892204 
L 353.29536 85.691552 
L 353.65248 76.407421 
L 354.0096 73.170802 
L 354.72384 80.491593 
L 355.08096 74.513642 
L 355.43808 78.415838 
L 355.7952 73.176367 
L 356.15232 83.885702 
L 356.50944 83.753254 
L 356.86656 70.334308 
L 357.22368 79.041347 
L 357.5808 78.652352 
L 358.29504 71.417819 
L 358.65216 80.36471 
L 359.00928 73.609326 
L 359.3664 74.555937 
L 360.08064 68.529571 
L 360.43776 82.616876 
L 360.79488 76.661186 
L 361.152 77.164821 
L 361.50912 80.720315 
L 361.86624 72.439001 
L 362.22336 68.674261 
L 362.58048 71.367177 
L 362.9376 79.790956 
L 363.29472 73.895925 
L 363.65184 83.17783 
L 364.36608 68.874602 
L 364.7232 73.196401 
L 365.08032 72.628212 
L 365.43744 81.691412 
L 365.79456 81.914013 
L 366.5088 67.443278 
L 366.86592 71.61649 
L 367.22304 73.943227 
L 367.58016 72.586474 
L 367.93728 72.516911 
L 368.2944 72.930393 
L 368.65152 79.502131 
L 369.00864 68.841212 
L 369.36576 81.095954 
L 370.08 72.391698 
L 370.43712 72.484634 
L 370.79424 77.183742 
L 371.15136 71.781772 
L 371.50848 73.540876 
L 371.8656 66.255145 
L 372.57984 79.526061 
L 372.93696 80.061416 
L 373.29408 80.09425 
L 373.6512 67.686469 
L 374.00832 79.917839 
L 374.36544 65.696973 
L 374.72256 70.856864 
L 375.07968 69.846812 
L 375.4368 72.868064 
L 375.79392 71.240295 
L 376.15104 73.158002 
L 376.50816 76.592179 
L 376.86528 78.237757 
L 377.2224 76.80532 
L 377.57952 69.341508 
L 378.29376 68.978668 
L 378.65088 65.892305 
L 379.008 68.142801 
L 379.36512 65.413156 
L 379.72224 72.470165 
L 380.07936 69.953104 
L 380.43648 75.170315 
L 381.15072 70.967052 
L 381.50784 74.046737 
L 381.86496 72.524702 
L 382.22208 67.969173 
L 382.5792 70.035467 
L 382.93632 77.057972 
L 383.65056 63.650156 
L 384.00768 68.363176 
L 384.3648 70.500703 
L 384.72192 74.711757 
L 385.07904 74.534233 
L 385.43616 62.7553 
L 385.79328 67.924096 
L 386.1504 65.438199 
L 386.50752 74.995574 
L 386.86464 76.104127 
L 387.22176 68.028718 
L 387.57888 76.609988 
L 387.936 76.698471 
L 388.65024 63.792621 
L 389.00736 65.561743 
L 389.36448 71.564736 
L 389.7216 64.804343 
L 390.07872 62.290621 
L 390.43584 65.801039 
L 390.79296 68.039292 
L 391.15008 71.555275 
L 391.5072 62.676277 
L 391.86432 70.455069 
L 392.22144 67.275214 
L 392.57856 72.323805 
L 392.93568 71.367177 
L 393.2928 62.221058 
L 393.64992 68.005902 
L 394.00704 68.808935 
L 394.36416 67.733216 
L 394.72128 59.519238 
L 395.0784 72.004373 
L 395.43552 67.465538 
L 395.79264 73.600978 
L 396.14976 61.626713 
L 396.50688 61.513743 
L 396.864 73.208644 
L 397.22112 64.774292 
L 397.57824 61.840967 
L 397.93536 70.144541 
L 398.29248 66.025866 
L 398.6496 57.257612 
L 399.00672 68.01091 
L 399.36384 70.811231 
L 399.72096 66.602959 
L 400.07808 57.08454 
L 400.4352 72.74619 
L 400.79232 67.998111 
L 401.14944 72.296536 
L 401.50656 71.618716 
L 402.2208 57.072296 
L 402.57792 68.088821 
L 403.29216 72.441227 
L 403.64928 67.342551 
L 404.0064 57.312706 
L 404.36352 65.206694 
L 404.72064 70.246938 
L 405.07776 63.01797 
L 405.43488 58.949936 
L 405.792 68.088264 
L 406.14912 68.199008 
L 406.50624 64.735893 
L 406.86336 63.749214 
L 407.22048 64.11261 
L 407.5776 60.103566 
L 407.93472 60.195389 
L 408.29184 55.218587 
L 408.64896 65.163287 
L 409.00608 54.740551 
L 409.3632 63.339628 
L 409.72032 66.970807 
L 410.07744 63.240571 
L 410.43456 63.402513 
L 410.79168 55.483482 
L 411.1488 70.253616 
L 411.50592 57.617112 
L 411.86304 56.895885 
L 412.22016 67.798326 
L 412.57728 53.568 
L 412.9344 67.551796 
L 413.29152 56.317679 
L 413.64864 56.5976 
L 414.36288 54.91418 
L 414.72 62.749735 
L 414.72 62.749735 
" style="fill:none;stroke:#000080;stroke-linecap:square;stroke-width:0.5;"/>
   </g>
   <g id="patch_3">
    <path d="M 57.6 307.584 
L 57.6 41.472 
" style="fill:none;stroke:#000000;stroke-linecap:square;stroke-linejoin:miter;stroke-width:0.8;"/>
   </g>
   <g id="patch_4">
    <path d="M 414.72 307.584 
L 414.72 41.472 
" style="fill:none;stroke:#000000;stroke-linecap:square;stroke-linejoin:miter;stroke-width:0.8;"/>
   </g>
   <g id="patch_5">
    <path d="M 57.6 307.584 
L 414.72 307.584 
" style="fill:none;stroke:#000000;stroke-linecap:square;stroke-linejoin:miter;stroke-width:0.8;"/>
   </g>
   <g id="patch_6">
    <path d="M 57.6 41.472 
L 414.72 41.472 
" style="fill:none;stroke:#000000;stroke-linecap:square;stroke-linejoin:miter;stroke-width:0.8;"/>
   </g>
   <g id="text_14">
    <!-- Test -->
    <defs>
     <path d="M -0.296875 72.90625 
L 61.375 72.90625 
L 61.375 64.59375 
L 35.5 64.59375 
L 35.5 0 
L 25.59375 0 
L 25.59375 64.59375 
L -0.296875 64.59375 
z
" id="DejaVuSans-54"/>
    </defs>
    <g transform="translate(223.341563 35.472)scale(0.12 -0.12)">
     <use xlink:href="#DejaVuSans-54"/>
     <use x="60.818359" xlink:href="#DejaVuSans-65"/>
     <use x="122.341797" xlink:href="#DejaVuSans-73"/>
     <use x="174.441406" xlink:href="#DejaVuSans-74"/>
    </g>
   </g>
   <g id="legend_1">
    <g id="patch_7">
     <path d="M 64.6 64.150125 
L 306.276563 64.150125 
Q 308.276563 64.150125 308.276563 62.150125 
L 308.276563 48.472 
Q 308.276563 46.472 306.276563 46.472 
L 64.6 46.472 
Q 62.6 46.472 62.6 48.472 
L 62.6 62.150125 
Q 62.6 64.150125 64.6 64.150125 
z
" style="fill:#ffffff;opacity:0.8;stroke:#cccccc;stroke-linejoin:miter;"/>
    </g>
    <g id="line2d_24">
     <path d="M 66.6 54.570438 
L 86.6 54.570438 
" style="fill:none;stroke:#000080;stroke-linecap:square;stroke-width:0.5;"/>
    </g>
    <g id="line2d_25"/>
    <g id="text_15">
     <!-- Successful download requests per second -->
     <g transform="translate(94.6 58.070438)scale(0.1 -0.1)">
      <use xlink:href="#DejaVuSans-53"/>
      <use x="63.476562" xlink:href="#DejaVuSans-75"/>
      <use x="126.855469" xlink:href="#DejaVuSans-63"/>
      <use x="181.835938" xlink:href="#DejaVuSans-63"/>
      <use x="236.816406" xlink:href="#DejaVuSans-65"/>
      <use x="298.339844" xlink:href="#DejaVuSans-73"/>
      <use x="350.439453" xlink:href="#DejaVuSans-73"/>
      <use x="402.539062" xlink:href="#DejaVuSans-66"/>
      <use x="437.744141" xlink:href="#DejaVuSans-75"/>
      <use x="501.123047" xlink:href="#DejaVuSans-6c"/>
      <use x="528.90625" xlink:href="#DejaVuSans-20"/>
      <use x="560.693359" xlink:href="#DejaVuSans-64"/>
      <use x="624.169922" xlink:href="#DejaVuSans-6f"/>
      <use x="685.351562" xlink:href="#DejaVuSans-77"/>
      <use x="767.138672" xlink:href="#DejaVuSans-6e"/>
      <use x="830.517578" xlink:href="#DejaVuSans-6c"/>
      <use x="858.300781" xlink:href="#DejaVuSans-6f"/>
      <use x="919.482422" xlink:href="#DejaVuSans-61"/>
      <use x="980.761719" xlink:href="#DejaVuSans-64"/>
      <use x="1044.238281" xlink:href="#DejaVuSans-20"/>
      <use x="1076.025391" xlink:href="#DejaVuSans-72"/>
      <use x="1117.107422" xlink:href="#DejaVuSans-65"/>
      <use x="1178.630859" xlink:href="#DejaVuSans-71"/>
      <use x="1242.107422" xlink:href="#DejaVuSans-75"/>
      <use x="1305.486328" xlink:href="#DejaVuSans-65"/>
      <use x="1367.009766" xlink:href="#DejaVuSans-73"/>
      <use x="1419.109375" xlink:href="#DejaVuSans-74"/>
      <use x="1458.318359" xlink:href="#DejaVuSans-73"/>
      <use x="1510.417969" xlink:href="#DejaVuSans-20"/>
      <use x="1542.205078" xlink:href="#DejaVuSans-70"/>
      <use x="1605.681641" xlink:href="#DejaVuSans-65"/>
      <use x="1667.205078" xlink:href="#DejaVuSans-72"/>
      <use x="1708.318359" xlink:href="#DejaVuSans-20"/>
      <use x="1740.105469" xlink:href="#DejaVuSans-73"/>
      <use x="1792.205078" xlink:href="#DejaVuSans-65"/>
      <use x="1853.728516" xlink:href="#DejaVuSans-63"/>
      <use x="1908.708984" xlink:href="#DejaVuSans-6f"/>
      <use x="1969.890625" xlink:href="#DejaVuSans-6e"/>
      <use x="2033.269531" xlink:href="#DejaVuSans-64"/>
     </g>
    </g>
   </g>
  </g>
 </g>
 <defs>
  <clipPath id="p2d3606e361">
   <rect height="266.112" width="357.12" x="57.6" y="41.472"/>
  </clipPath>
 </defs>
</svg>
