<?xml version="1.0" encoding="utf-8" standalone="no"?>
<!DOCTYPE svg PUBLIC "-//W3C//DTD SVG 1.1//EN"
  "http://www.w3.org/Graphics/SVG/1.1/DTD/svg11.dtd">
<!-- Created with matplotlib (http://matplotlib.org/) -->
<svg height="345pt" version="1.1" viewBox="0 0 460 345" width="460pt" xmlns="http://www.w3.org/2000/svg" xmlns:xlink="http://www.w3.org/1999/xlink">
 <defs>
  <style type="text/css">
*{stroke-linecap:butt;stroke-linejoin:round;}
  </style>
 </defs>
 <g id="figure_1">
  <g id="patch_1">
   <path d="M 0 345.6 
L 460.8 345.6 
L 460.8 0 
L 0 0 
z
" style="fill:#ffffff;"/>
  </g>
  <g id="axes_1">
   <g id="patch_2">
    <path d="M 57.6 307.584 
L 414.72 307.584 
L 414.72 41.472 
L 57.6 41.472 
z
" style="fill:#ffffff;"/>
   </g>
   <g id="matplotlib.axis_1">
    <g id="xtick_1">
     <g id="line2d_1">
      <path clip-path="url(#p8df69dc33e)" d="M 57.6 307.584 
L 57.6 41.472 
" style="fill:none;stroke:#b0b0b0;stroke-linecap:square;stroke-width:0.8;"/>
     </g>
     <g id="line2d_2">
      <defs>
       <path d="M 0 0 
L 0 3.5 
" id="mf7f9036909" style="stroke:#000000;stroke-width:0.8;"/>
      </defs>
      <g>
       <use style="stroke:#000000;stroke-width:0.8;" x="57.6" xlink:href="#mf7f9036909" y="307.584"/>
      </g>
     </g>
     <g id="text_1">
      <!-- 0 -->
      <defs>
       <path d="M 31.78125 66.40625 
Q 24.171875 66.40625 20.328125 58.90625 
Q 16.5 51.421875 16.5 36.375 
Q 16.5 21.390625 20.328125 13.890625 
Q 24.171875 6.390625 31.78125 6.390625 
Q 39.453125 6.390625 43.28125 13.890625 
Q 47.125 21.390625 47.125 36.375 
Q 47.125 51.421875 43.28125 58.90625 
Q 39.453125 66.40625 31.78125 66.40625 
M 31.78125 74.21875 
Q 44.046875 74.21875 50.515625 64.515625 
Q 56.984375 54.828125 56.984375 36.375 
Q 56.984375 17.96875 50.515625 8.265625 
Q 44.046875 -1.421875 31.78125 -1.421875 
Q 19.53125 -1.421875 13.0625 8.265625 
Q 6.59375 17.96875 6.59375 36.375 
Q 6.59375 54.828125 13.0625 64.515625 
Q 19.53125 74.21875 31.78125 74.21875 
" id="DejaVuSans-30"/>
      </defs>
      <g transform="translate(54.41875 322.182437)scale(0.1 -0.1)">
       <use xlink:href="#DejaVuSans-30"/>
      </g>
     </g>
    </g>
    <g id="xtick_2">
     <g id="line2d_3">
      <path clip-path="url(#p8df69dc33e)" d="M 129.024 307.584 
L 129.024 41.472 
" style="fill:none;stroke:#b0b0b0;stroke-linecap:square;stroke-width:0.8;"/>
     </g>
     <g id="line2d_4">
      <g>
       <use style="stroke:#000000;stroke-width:0.8;" x="129.024" xlink:href="#mf7f9036909" y="307.584"/>
      </g>
     </g>
     <g id="text_2">
      <!-- 200 -->
      <defs>
       <path d="M 19.1875 8.296875 
L 53.609375 8.296875 
L 53.609375 0 
L 7.328125 0 
L 7.328125 8.296875 
Q 12.9375 14.109375 22.625 23.890625 
Q 32.328125 33.6875 34.8125 36.53125 
Q 39.546875 41.84375 41.421875 45.53125 
Q 43.3125 49.21875 43.3125 52.78125 
Q 43.3125 58.59375 39.234375 62.25 
Q 35.15625 65.921875 28.609375 65.921875 
Q 23.96875 65.921875 18.8125 64.3125 
Q 13.671875 62.703125 7.8125 59.421875 
L 7.8125 69.390625 
Q 13.765625 71.78125 18.9375 73 
Q 24.125 74.21875 28.421875 74.21875 
Q 39.75 74.21875 46.484375 68.546875 
Q 53.21875 62.890625 53.21875 53.421875 
Q 53.21875 48.921875 51.53125 44.890625 
Q 49.859375 40.875 45.40625 35.40625 
Q 44.1875 33.984375 37.640625 27.21875 
Q 31.109375 20.453125 19.1875 8.296875 
" id="DejaVuSans-32"/>
      </defs>
      <g transform="translate(119.48025 322.182437)scale(0.1 -0.1)">
       <use xlink:href="#DejaVuSans-32"/>
       <use x="63.623047" xlink:href="#DejaVuSans-30"/>
       <use x="127.246094" xlink:href="#DejaVuSans-30"/>
      </g>
     </g>
    </g>
    <g id="xtick_3">
     <g id="line2d_5">
      <path clip-path="url(#p8df69dc33e)" d="M 200.448 307.584 
L 200.448 41.472 
" style="fill:none;stroke:#b0b0b0;stroke-linecap:square;stroke-width:0.8;"/>
     </g>
     <g id="line2d_6">
      <g>
       <use style="stroke:#000000;stroke-width:0.8;" x="200.448" xlink:href="#mf7f9036909" y="307.584"/>
      </g>
     </g>
     <g id="text_3">
      <!-- 400 -->
      <defs>
       <path d="M 37.796875 64.3125 
L 12.890625 25.390625 
L 37.796875 25.390625 
z
M 35.203125 72.90625 
L 47.609375 72.90625 
L 47.609375 25.390625 
L 58.015625 25.390625 
L 58.015625 17.1875 
L 47.609375 17.1875 
L 47.609375 0 
L 37.796875 0 
L 37.796875 17.1875 
L 4.890625 17.1875 
L 4.890625 26.703125 
z
" id="DejaVuSans-34"/>
      </defs>
      <g transform="translate(190.90425 322.182437)scale(0.1 -0.1)">
       <use xlink:href="#DejaVuSans-34"/>
       <use x="63.623047" xlink:href="#DejaVuSans-30"/>
       <use x="127.246094" xlink:href="#DejaVuSans-30"/>
      </g>
     </g>
    </g>
    <g id="xtick_4">
     <g id="line2d_7">
      <path clip-path="url(#p8df69dc33e)" d="M 271.872 307.584 
L 271.872 41.472 
" style="fill:none;stroke:#b0b0b0;stroke-linecap:square;stroke-width:0.8;"/>
     </g>
     <g id="line2d_8">
      <g>
       <use style="stroke:#000000;stroke-width:0.8;" x="271.872" xlink:href="#mf7f9036909" y="307.584"/>
      </g>
     </g>
     <g id="text_4">
      <!-- 600 -->
      <defs>
       <path d="M 33.015625 40.375 
Q 26.375 40.375 22.484375 35.828125 
Q 18.609375 31.296875 18.609375 23.390625 
Q 18.609375 15.53125 22.484375 10.953125 
Q 26.375 6.390625 33.015625 6.390625 
Q 39.65625 6.390625 43.53125 10.953125 
Q 47.40625 15.53125 47.40625 23.390625 
Q 47.40625 31.296875 43.53125 35.828125 
Q 39.65625 40.375 33.015625 40.375 
M 52.59375 71.296875 
L 52.59375 62.3125 
Q 48.875 64.0625 45.09375 64.984375 
Q 41.3125 65.921875 37.59375 65.921875 
Q 27.828125 65.921875 22.671875 59.328125 
Q 17.53125 52.734375 16.796875 39.40625 
Q 19.671875 43.65625 24.015625 45.921875 
Q 28.375 48.1875 33.59375 48.1875 
Q 44.578125 48.1875 50.953125 41.515625 
Q 57.328125 34.859375 57.328125 23.390625 
Q 57.328125 12.15625 50.6875 5.359375 
Q 44.046875 -1.421875 33.015625 -1.421875 
Q 20.359375 -1.421875 13.671875 8.265625 
Q 6.984375 17.96875 6.984375 36.375 
Q 6.984375 53.65625 15.1875 63.9375 
Q 23.390625 74.21875 37.203125 74.21875 
Q 40.921875 74.21875 44.703125 73.484375 
Q 48.484375 72.75 52.59375 71.296875 
" id="DejaVuSans-36"/>
      </defs>
      <g transform="translate(262.32825 322.182437)scale(0.1 -0.1)">
       <use xlink:href="#DejaVuSans-36"/>
       <use x="63.623047" xlink:href="#DejaVuSans-30"/>
       <use x="127.246094" xlink:href="#DejaVuSans-30"/>
      </g>
     </g>
    </g>
    <g id="xtick_5">
     <g id="line2d_9">
      <path clip-path="url(#p8df69dc33e)" d="M 343.296 307.584 
L 343.296 41.472 
" style="fill:none;stroke:#b0b0b0;stroke-linecap:square;stroke-width:0.8;"/>
     </g>
     <g id="line2d_10">
      <g>
       <use style="stroke:#000000;stroke-width:0.8;" x="343.296" xlink:href="#mf7f9036909" y="307.584"/>
      </g>
     </g>
     <g id="text_5">
      <!-- 800 -->
      <defs>
       <path d="M 31.78125 34.625 
Q 24.75 34.625 20.71875 30.859375 
Q 16.703125 27.09375 16.703125 20.515625 
Q 16.703125 13.921875 20.71875 10.15625 
Q 24.75 6.390625 31.78125 6.390625 
Q 38.8125 6.390625 42.859375 10.171875 
Q 46.921875 13.96875 46.921875 20.515625 
Q 46.921875 27.09375 42.890625 30.859375 
Q 38.875 34.625 31.78125 34.625 
M 21.921875 38.8125 
Q 15.578125 40.375 12.03125 44.71875 
Q 8.5 49.078125 8.5 55.328125 
Q 8.5 64.0625 14.71875 69.140625 
Q 20.953125 74.21875 31.78125 74.21875 
Q 42.671875 74.21875 48.875 69.140625 
Q 55.078125 64.0625 55.078125 55.328125 
Q 55.078125 49.078125 51.53125 44.71875 
Q 48 40.375 41.703125 38.8125 
Q 48.828125 37.15625 52.796875 32.3125 
Q 56.78125 27.484375 56.78125 20.515625 
Q 56.78125 9.90625 50.3125 4.234375 
Q 43.84375 -1.421875 31.78125 -1.421875 
Q 19.734375 -1.421875 13.25 4.234375 
Q 6.78125 9.90625 6.78125 20.515625 
Q 6.78125 27.484375 10.78125 32.3125 
Q 14.796875 37.15625 21.921875 38.8125 
M 18.3125 54.390625 
Q 18.3125 48.734375 21.84375 45.5625 
Q 25.390625 42.390625 31.78125 42.390625 
Q 38.140625 42.390625 41.71875 45.5625 
Q 45.3125 48.734375 45.3125 54.390625 
Q 45.3125 60.0625 41.71875 63.234375 
Q 38.140625 66.40625 31.78125 66.40625 
Q 25.390625 66.40625 21.84375 63.234375 
Q 18.3125 60.0625 18.3125 54.390625 
" id="DejaVuSans-38"/>
      </defs>
      <g transform="translate(333.75225 322.182437)scale(0.1 -0.1)">
       <use xlink:href="#DejaVuSans-38"/>
       <use x="63.623047" xlink:href="#DejaVuSans-30"/>
       <use x="127.246094" xlink:href="#DejaVuSans-30"/>
      </g>
     </g>
    </g>
    <g id="xtick_6">
     <g id="line2d_11">
      <path clip-path="url(#p8df69dc33e)" d="M 414.72 307.584 
L 414.72 41.472 
" style="fill:none;stroke:#b0b0b0;stroke-linecap:square;stroke-width:0.8;"/>
     </g>
     <g id="line2d_12">
      <g>
       <use style="stroke:#000000;stroke-width:0.8;" x="414.72" xlink:href="#mf7f9036909" y="307.584"/>
      </g>
     </g>
     <g id="text_6">
      <!-- 1000 -->
      <defs>
       <path d="M 12.40625 8.296875 
L 28.515625 8.296875 
L 28.515625 63.921875 
L 10.984375 60.40625 
L 10.984375 69.390625 
L 28.421875 72.90625 
L 38.28125 72.90625 
L 38.28125 8.296875 
L 54.390625 8.296875 
L 54.390625 0 
L 12.40625 0 
z
" id="DejaVuSans-31"/>
      </defs>
      <g transform="translate(401.995 322.182437)scale(0.1 -0.1)">
       <use xlink:href="#DejaVuSans-31"/>
       <use x="63.623047" xlink:href="#DejaVuSans-30"/>
       <use x="127.246094" xlink:href="#DejaVuSans-30"/>
       <use x="190.869141" xlink:href="#DejaVuSans-30"/>
      </g>
     </g>
    </g>
    <g id="text_7">
     <!-- Number of clients -->
     <defs>
      <path d="M 9.8125 72.90625 
L 23.09375 72.90625 
L 55.421875 11.921875 
L 55.421875 72.90625 
L 64.984375 72.90625 
L 64.984375 0 
L 51.703125 0 
L 19.390625 60.984375 
L 19.390625 0 
L 9.8125 0 
z
" id="DejaVuSans-4e"/>
      <path d="M 8.5 21.578125 
L 8.5 54.6875 
L 17.484375 54.6875 
L 17.484375 21.921875 
Q 17.484375 14.15625 20.5 10.265625 
Q 23.53125 6.390625 29.59375 6.390625 
Q 36.859375 6.390625 41.078125 11.03125 
Q 45.3125 15.671875 45.3125 23.6875 
L 45.3125 54.6875 
L 54.296875 54.6875 
L 54.296875 0 
L 45.3125 0 
L 45.3125 8.40625 
Q 42.046875 3.421875 37.71875 1 
Q 33.40625 -1.421875 27.6875 -1.421875 
Q 18.265625 -1.421875 13.375 4.4375 
Q 8.5 10.296875 8.5 21.578125 
M 31.109375 56 
z
" id="DejaVuSans-75"/>
      <path d="M 52 44.1875 
Q 55.375 50.25 60.0625 53.125 
Q 64.75 56 71.09375 56 
Q 79.640625 56 84.28125 50.015625 
Q 88.921875 44.046875 88.921875 33.015625 
L 88.921875 0 
L 79.890625 0 
L 79.890625 32.71875 
Q 79.890625 40.578125 77.09375 44.375 
Q 74.3125 48.1875 68.609375 48.1875 
Q 61.625 48.1875 57.5625 43.546875 
Q 53.515625 38.921875 53.515625 30.90625 
L 53.515625 0 
L 44.484375 0 
L 44.484375 32.71875 
Q 44.484375 40.625 41.703125 44.40625 
Q 38.921875 48.1875 33.109375 48.1875 
Q 26.21875 48.1875 22.15625 43.53125 
Q 18.109375 38.875 18.109375 30.90625 
L 18.109375 0 
L 9.078125 0 
L 9.078125 54.6875 
L 18.109375 54.6875 
L 18.109375 46.1875 
Q 21.1875 51.21875 25.484375 53.609375 
Q 29.78125 56 35.6875 56 
Q 41.65625 56 45.828125 52.96875 
Q 50 49.953125 52 44.1875 
" id="DejaVuSans-6d"/>
      <path d="M 48.6875 27.296875 
Q 48.6875 37.203125 44.609375 42.84375 
Q 40.53125 48.484375 33.40625 48.484375 
Q 26.265625 48.484375 22.1875 42.84375 
Q 18.109375 37.203125 18.109375 27.296875 
Q 18.109375 17.390625 22.1875 11.75 
Q 26.265625 6.109375 33.40625 6.109375 
Q 40.53125 6.109375 44.609375 11.75 
Q 48.6875 17.390625 48.6875 27.296875 
M 18.109375 46.390625 
Q 20.953125 51.265625 25.265625 53.625 
Q 29.59375 56 35.59375 56 
Q 45.5625 56 51.78125 48.09375 
Q 58.015625 40.1875 58.015625 27.296875 
Q 58.015625 14.40625 51.78125 6.484375 
Q 45.5625 -1.421875 35.59375 -1.421875 
Q 29.59375 -1.421875 25.265625 0.953125 
Q 20.953125 3.328125 18.109375 8.203125 
L 18.109375 0 
L 9.078125 0 
L 9.078125 75.984375 
L 18.109375 75.984375 
z
" id="DejaVuSans-62"/>
      <path d="M 56.203125 29.59375 
L 56.203125 25.203125 
L 14.890625 25.203125 
Q 15.484375 15.921875 20.484375 11.0625 
Q 25.484375 6.203125 34.421875 6.203125 
Q 39.59375 6.203125 44.453125 7.46875 
Q 49.3125 8.734375 54.109375 11.28125 
L 54.109375 2.78125 
Q 49.265625 0.734375 44.1875 -0.34375 
Q 39.109375 -1.421875 33.890625 -1.421875 
Q 20.796875 -1.421875 13.15625 6.1875 
Q 5.515625 13.8125 5.515625 26.8125 
Q 5.515625 40.234375 12.765625 48.109375 
Q 20.015625 56 32.328125 56 
Q 43.359375 56 49.78125 48.890625 
Q 56.203125 41.796875 56.203125 29.59375 
M 47.21875 32.234375 
Q 47.125 39.59375 43.09375 43.984375 
Q 39.0625 48.390625 32.421875 48.390625 
Q 24.90625 48.390625 20.390625 44.140625 
Q 15.875 39.890625 15.1875 32.171875 
z
" id="DejaVuSans-65"/>
      <path d="M 41.109375 46.296875 
Q 39.59375 47.171875 37.8125 47.578125 
Q 36.03125 48 33.890625 48 
Q 26.265625 48 22.1875 43.046875 
Q 18.109375 38.09375 18.109375 28.8125 
L 18.109375 0 
L 9.078125 0 
L 9.078125 54.6875 
L 18.109375 54.6875 
L 18.109375 46.1875 
Q 20.953125 51.171875 25.484375 53.578125 
Q 30.03125 56 36.53125 56 
Q 37.453125 56 38.578125 55.875 
Q 39.703125 55.765625 41.0625 55.515625 
z
" id="DejaVuSans-72"/>
      <path id="DejaVuSans-20"/>
      <path d="M 30.609375 48.390625 
Q 23.390625 48.390625 19.1875 42.75 
Q 14.984375 37.109375 14.984375 27.296875 
Q 14.984375 17.484375 19.15625 11.84375 
Q 23.34375 6.203125 30.609375 6.203125 
Q 37.796875 6.203125 41.984375 11.859375 
Q 46.1875 17.53125 46.1875 27.296875 
Q 46.1875 37.015625 41.984375 42.703125 
Q 37.796875 48.390625 30.609375 48.390625 
M 30.609375 56 
Q 42.328125 56 49.015625 48.375 
Q 55.71875 40.765625 55.71875 27.296875 
Q 55.71875 13.875 49.015625 6.21875 
Q 42.328125 -1.421875 30.609375 -1.421875 
Q 18.84375 -1.421875 12.171875 6.21875 
Q 5.515625 13.875 5.515625 27.296875 
Q 5.515625 40.765625 12.171875 48.375 
Q 18.84375 56 30.609375 56 
" id="DejaVuSans-6f"/>
      <path d="M 37.109375 75.984375 
L 37.109375 68.5 
L 28.515625 68.5 
Q 23.6875 68.5 21.796875 66.546875 
Q 19.921875 64.59375 19.921875 59.515625 
L 19.921875 54.6875 
L 34.71875 54.6875 
L 34.71875 47.703125 
L 19.921875 47.703125 
L 19.921875 0 
L 10.890625 0 
L 10.890625 47.703125 
L 2.296875 47.703125 
L 2.296875 54.6875 
L 10.890625 54.6875 
L 10.890625 58.5 
Q 10.890625 67.625 15.140625 71.796875 
Q 19.390625 75.984375 28.609375 75.984375 
z
" id="DejaVuSans-66"/>
      <path d="M 48.78125 52.59375 
L 48.78125 44.1875 
Q 44.96875 46.296875 41.140625 47.34375 
Q 37.3125 48.390625 33.40625 48.390625 
Q 24.65625 48.390625 19.8125 42.84375 
Q 14.984375 37.3125 14.984375 27.296875 
Q 14.984375 17.28125 19.8125 11.734375 
Q 24.65625 6.203125 33.40625 6.203125 
Q 37.3125 6.203125 41.140625 7.25 
Q 44.96875 8.296875 48.78125 10.40625 
L 48.78125 2.09375 
Q 45.015625 0.34375 40.984375 -0.53125 
Q 36.96875 -1.421875 32.421875 -1.421875 
Q 20.0625 -1.421875 12.78125 6.34375 
Q 5.515625 14.109375 5.515625 27.296875 
Q 5.515625 40.671875 12.859375 48.328125 
Q 20.21875 56 33.015625 56 
Q 37.15625 56 41.109375 55.140625 
Q 45.0625 54.296875 48.78125 52.59375 
" id="DejaVuSans-63"/>
      <path d="M 9.421875 75.984375 
L 18.40625 75.984375 
L 18.40625 0 
L 9.421875 0 
z
" id="DejaVuSans-6c"/>
      <path d="M 9.421875 54.6875 
L 18.40625 54.6875 
L 18.40625 0 
L 9.421875 0 
z
M 9.421875 75.984375 
L 18.40625 75.984375 
L 18.40625 64.59375 
L 9.421875 64.59375 
z
" id="DejaVuSans-69"/>
      <path d="M 54.890625 33.015625 
L 54.890625 0 
L 45.90625 0 
L 45.90625 32.71875 
Q 45.90625 40.484375 42.875 44.328125 
Q 39.84375 48.1875 33.796875 48.1875 
Q 26.515625 48.1875 22.3125 43.546875 
Q 18.109375 38.921875 18.109375 30.90625 
L 18.109375 0 
L 9.078125 0 
L 9.078125 54.6875 
L 18.109375 54.6875 
L 18.109375 46.1875 
Q 21.34375 51.125 25.703125 53.5625 
Q 30.078125 56 35.796875 56 
Q 45.21875 56 50.046875 50.171875 
Q 54.890625 44.34375 54.890625 33.015625 
" id="DejaVuSans-6e"/>
      <path d="M 18.3125 70.21875 
L 18.3125 54.6875 
L 36.8125 54.6875 
L 36.8125 47.703125 
L 18.3125 47.703125 
L 18.3125 18.015625 
Q 18.3125 11.328125 20.140625 9.421875 
Q 21.96875 7.515625 27.59375 7.515625 
L 36.8125 7.515625 
L 36.8125 0 
L 27.59375 0 
Q 17.1875 0 13.234375 3.875 
Q 9.28125 7.765625 9.28125 18.015625 
L 9.28125 47.703125 
L 2.6875 47.703125 
L 2.6875 54.6875 
L 9.28125 54.6875 
L 9.28125 70.21875 
z
" id="DejaVuSans-74"/>
      <path d="M 44.28125 53.078125 
L 44.28125 44.578125 
Q 40.484375 46.53125 36.375 47.5 
Q 32.28125 48.484375 27.875 48.484375 
Q 21.1875 48.484375 17.84375 46.4375 
Q 14.5 44.390625 14.5 40.28125 
Q 14.5 37.15625 16.890625 35.375 
Q 19.28125 33.59375 26.515625 31.984375 
L 29.59375 31.296875 
Q 39.15625 29.25 43.1875 25.515625 
Q 47.21875 21.78125 47.21875 15.09375 
Q 47.21875 7.46875 41.1875 3.015625 
Q 35.15625 -1.421875 24.609375 -1.421875 
Q 20.21875 -1.421875 15.453125 -0.5625 
Q 10.6875 0.296875 5.421875 2 
L 5.421875 11.28125 
Q 10.40625 8.6875 15.234375 7.390625 
Q 20.0625 6.109375 24.8125 6.109375 
Q 31.15625 6.109375 34.5625 8.28125 
Q 37.984375 10.453125 37.984375 14.40625 
Q 37.984375 18.0625 35.515625 20.015625 
Q 33.0625 21.96875 24.703125 23.78125 
L 21.578125 24.515625 
Q 13.234375 26.265625 9.515625 29.90625 
Q 5.8125 33.546875 5.8125 39.890625 
Q 5.8125 47.609375 11.28125 51.796875 
Q 16.75 56 26.8125 56 
Q 31.78125 56 36.171875 55.265625 
Q 40.578125 54.546875 44.28125 53.078125 
" id="DejaVuSans-73"/>
     </defs>
     <g transform="translate(191.738906 335.860562)scale(0.1 -0.1)">
      <use xlink:href="#DejaVuSans-4e"/>
      <use x="74.804688" xlink:href="#DejaVuSans-75"/>
      <use x="138.183594" xlink:href="#DejaVuSans-6d"/>
      <use x="235.595703" xlink:href="#DejaVuSans-62"/>
      <use x="299.072266" xlink:href="#DejaVuSans-65"/>
      <use x="360.595703" xlink:href="#DejaVuSans-72"/>
      <use x="401.708984" xlink:href="#DejaVuSans-20"/>
      <use x="433.496094" xlink:href="#DejaVuSans-6f"/>
      <use x="494.677734" xlink:href="#DejaVuSans-66"/>
      <use x="529.882812" xlink:href="#DejaVuSans-20"/>
      <use x="561.669922" xlink:href="#DejaVuSans-63"/>
      <use x="616.650391" xlink:href="#DejaVuSans-6c"/>
      <use x="644.433594" xlink:href="#DejaVuSans-69"/>
      <use x="672.216797" xlink:href="#DejaVuSans-65"/>
      <use x="733.740234" xlink:href="#DejaVuSans-6e"/>
      <use x="797.119141" xlink:href="#DejaVuSans-74"/>
      <use x="836.328125" xlink:href="#DejaVuSans-73"/>
     </g>
    </g>
   </g>
   <g id="matplotlib.axis_2">
    <g id="ytick_1">
     <g id="line2d_13">
      <path clip-path="url(#p8df69dc33e)" d="M 57.6 295.859724 
L 414.72 295.859724 
" style="fill:none;stroke:#b0b0b0;stroke-linecap:square;stroke-width:0.8;"/>
     </g>
     <g id="line2d_14">
      <defs>
       <path d="M 0 0 
L -3.5 0 
" id="mf50ee8675d" style="stroke:#000000;stroke-width:0.8;"/>
      </defs>
      <g>
       <use style="stroke:#000000;stroke-width:0.8;" x="57.6" xlink:href="#mf50ee8675d" y="295.859724"/>
      </g>
     </g>
     <g id="text_8">
      <!-- 0 -->
      <g transform="translate(44.2375 299.658943)scale(0.1 -0.1)">
       <use xlink:href="#DejaVuSans-30"/>
      </g>
     </g>
    </g>
    <g id="ytick_2">
     <g id="line2d_15">
      <path clip-path="url(#p8df69dc33e)" d="M 57.6 256.060563 
L 414.72 256.060563 
" style="fill:none;stroke:#b0b0b0;stroke-linecap:square;stroke-width:0.8;"/>
     </g>
     <g id="line2d_16">
      <g>
       <use style="stroke:#000000;stroke-width:0.8;" x="57.6" xlink:href="#mf50ee8675d" y="256.060563"/>
      </g>
     </g>
     <g id="text_9">
      <!-- 100 -->
      <g transform="translate(31.5125 259.859781)scale(0.1 -0.1)">
       <use xlink:href="#DejaVuSans-31"/>
       <use x="63.623047" xlink:href="#DejaVuSans-30"/>
       <use x="127.246094" xlink:href="#DejaVuSans-30"/>
      </g>
     </g>
    </g>
    <g id="ytick_3">
     <g id="line2d_17">
      <path clip-path="url(#p8df69dc33e)" d="M 57.6 216.261401 
L 414.72 216.261401 
" style="fill:none;stroke:#b0b0b0;stroke-linecap:square;stroke-width:0.8;"/>
     </g>
     <g id="line2d_18">
      <g>
       <use style="stroke:#000000;stroke-width:0.8;" x="57.6" xlink:href="#mf50ee8675d" y="216.261401"/>
      </g>
     </g>
     <g id="text_10">
      <!-- 200 -->
      <g transform="translate(31.5125 220.06062)scale(0.1 -0.1)">
       <use xlink:href="#DejaVuSans-32"/>
       <use x="63.623047" xlink:href="#DejaVuSans-30"/>
       <use x="127.246094" xlink:href="#DejaVuSans-30"/>
      </g>
     </g>
    </g>
    <g id="ytick_4">
     <g id="line2d_19">
      <path clip-path="url(#p8df69dc33e)" d="M 57.6 176.462239 
L 414.72 176.462239 
" style="fill:none;stroke:#b0b0b0;stroke-linecap:square;stroke-width:0.8;"/>
     </g>
     <g id="line2d_20">
      <g>
       <use style="stroke:#000000;stroke-width:0.8;" x="57.6" xlink:href="#mf50ee8675d" y="176.462239"/>
      </g>
     </g>
     <g id="text_11">
      <!-- 300 -->
      <defs>
       <path d="M 40.578125 39.3125 
Q 47.65625 37.796875 51.625 33 
Q 55.609375 28.21875 55.609375 21.1875 
Q 55.609375 10.40625 48.1875 4.484375 
Q 40.765625 -1.421875 27.09375 -1.421875 
Q 22.515625 -1.421875 17.65625 -0.515625 
Q 12.796875 0.390625 7.625 2.203125 
L 7.625 11.71875 
Q 11.71875 9.328125 16.59375 8.109375 
Q 21.484375 6.890625 26.8125 6.890625 
Q 36.078125 6.890625 40.9375 10.546875 
Q 45.796875 14.203125 45.796875 21.1875 
Q 45.796875 27.640625 41.28125 31.265625 
Q 36.765625 34.90625 28.71875 34.90625 
L 20.21875 34.90625 
L 20.21875 43.015625 
L 29.109375 43.015625 
Q 36.375 43.015625 40.234375 45.921875 
Q 44.09375 48.828125 44.09375 54.296875 
Q 44.09375 59.90625 40.109375 62.90625 
Q 36.140625 65.921875 28.71875 65.921875 
Q 24.65625 65.921875 20.015625 65.03125 
Q 15.375 64.15625 9.8125 62.3125 
L 9.8125 71.09375 
Q 15.4375 72.65625 20.34375 73.4375 
Q 25.25 74.21875 29.59375 74.21875 
Q 40.828125 74.21875 47.359375 69.109375 
Q 53.90625 64.015625 53.90625 55.328125 
Q 53.90625 49.265625 50.4375 45.09375 
Q 46.96875 40.921875 40.578125 39.3125 
" id="DejaVuSans-33"/>
      </defs>
      <g transform="translate(31.5125 180.261458)scale(0.1 -0.1)">
       <use xlink:href="#DejaVuSans-33"/>
       <use x="63.623047" xlink:href="#DejaVuSans-30"/>
       <use x="127.246094" xlink:href="#DejaVuSans-30"/>
      </g>
     </g>
    </g>
    <g id="ytick_5">
     <g id="line2d_21">
      <path clip-path="url(#p8df69dc33e)" d="M 57.6 136.663078 
L 414.72 136.663078 
" style="fill:none;stroke:#b0b0b0;stroke-linecap:square;stroke-width:0.8;"/>
     </g>
     <g id="line2d_22">
      <g>
       <use style="stroke:#000000;stroke-width:0.8;" x="57.6" xlink:href="#mf50ee8675d" y="136.663078"/>
      </g>
     </g>
     <g id="text_12">
      <!-- 400 -->
      <g transform="translate(31.5125 140.462296)scale(0.1 -0.1)">
       <use xlink:href="#DejaVuSans-34"/>
       <use x="63.623047" xlink:href="#DejaVuSans-30"/>
       <use x="127.246094" xlink:href="#DejaVuSans-30"/>
      </g>
     </g>
    </g>
    <g id="ytick_6">
     <g id="line2d_23">
      <path clip-path="url(#p8df69dc33e)" d="M 57.6 96.863916 
L 414.72 96.863916 
" style="fill:none;stroke:#b0b0b0;stroke-linecap:square;stroke-width:0.8;"/>
     </g>
     <g id="line2d_24">
      <g>
       <use style="stroke:#000000;stroke-width:0.8;" x="57.6" xlink:href="#mf50ee8675d" y="96.863916"/>
      </g>
     </g>
     <g id="text_13">
      <!-- 500 -->
      <defs>
       <path d="M 10.796875 72.90625 
L 49.515625 72.90625 
L 49.515625 64.59375 
L 19.828125 64.59375 
L 19.828125 46.734375 
Q 21.96875 47.46875 24.109375 47.828125 
Q 26.265625 48.1875 28.421875 48.1875 
Q 40.625 48.1875 47.75 41.5 
Q 54.890625 34.8125 54.890625 23.390625 
Q 54.890625 11.625 47.5625 5.09375 
Q 40.234375 -1.421875 26.90625 -1.421875 
Q 22.3125 -1.421875 17.546875 -0.640625 
Q 12.796875 0.140625 7.71875 1.703125 
L 7.71875 11.625 
Q 12.109375 9.234375 16.796875 8.0625 
Q 21.484375 6.890625 26.703125 6.890625 
Q 35.15625 6.890625 40.078125 11.328125 
Q 45.015625 15.765625 45.015625 23.390625 
Q 45.015625 31 40.078125 35.4375 
Q 35.15625 39.890625 26.703125 39.890625 
Q 22.75 39.890625 18.8125 39.015625 
Q 14.890625 38.140625 10.796875 36.28125 
z
" id="DejaVuSans-35"/>
      </defs>
      <g transform="translate(31.5125 100.663135)scale(0.1 -0.1)">
       <use xlink:href="#DejaVuSans-35"/>
       <use x="63.623047" xlink:href="#DejaVuSans-30"/>
       <use x="127.246094" xlink:href="#DejaVuSans-30"/>
      </g>
     </g>
    </g>
    <g id="ytick_7">
     <g id="line2d_25">
      <path clip-path="url(#p8df69dc33e)" d="M 57.6 57.064754 
L 414.72 57.064754 
" style="fill:none;stroke:#b0b0b0;stroke-linecap:square;stroke-width:0.8;"/>
     </g>
     <g id="line2d_26">
      <g>
       <use style="stroke:#000000;stroke-width:0.8;" x="57.6" xlink:href="#mf50ee8675d" y="57.064754"/>
      </g>
     </g>
     <g id="text_14">
      <!-- 600 -->
      <g transform="translate(31.5125 60.863973)scale(0.1 -0.1)">
       <use xlink:href="#DejaVuSans-36"/>
       <use x="63.623047" xlink:href="#DejaVuSans-30"/>
       <use x="127.246094" xlink:href="#DejaVuSans-30"/>
      </g>
     </g>
    </g>
    <g id="text_15">
     <!-- Successful download requests per second -->
     <defs>
      <path d="M 53.515625 70.515625 
L 53.515625 60.890625 
Q 47.90625 63.578125 42.921875 64.890625 
Q 37.9375 66.21875 33.296875 66.21875 
Q 25.25 66.21875 20.875 63.09375 
Q 16.5 59.96875 16.5 54.203125 
Q 16.5 49.359375 19.40625 46.890625 
Q 22.3125 44.4375 30.421875 42.921875 
L 36.375 41.703125 
Q 47.40625 39.59375 52.65625 34.296875 
Q 57.90625 29 57.90625 20.125 
Q 57.90625 9.515625 50.796875 4.046875 
Q 43.703125 -1.421875 29.984375 -1.421875 
Q 24.8125 -1.421875 18.96875 -0.25 
Q 13.140625 0.921875 6.890625 3.21875 
L 6.890625 13.375 
Q 12.890625 10.015625 18.65625 8.296875 
Q 24.421875 6.59375 29.984375 6.59375 
Q 38.421875 6.59375 43.015625 9.90625 
Q 47.609375 13.234375 47.609375 19.390625 
Q 47.609375 24.75 44.3125 27.78125 
Q 41.015625 30.8125 33.5 32.328125 
L 27.484375 33.5 
Q 16.453125 35.6875 11.515625 40.375 
Q 6.59375 45.0625 6.59375 53.421875 
Q 6.59375 63.09375 13.40625 68.65625 
Q 20.21875 74.21875 32.171875 74.21875 
Q 37.3125 74.21875 42.625 73.28125 
Q 47.953125 72.359375 53.515625 70.515625 
" id="DejaVuSans-53"/>
      <path d="M 45.40625 46.390625 
L 45.40625 75.984375 
L 54.390625 75.984375 
L 54.390625 0 
L 45.40625 0 
L 45.40625 8.203125 
Q 42.578125 3.328125 38.25 0.953125 
Q 33.9375 -1.421875 27.875 -1.421875 
Q 17.96875 -1.421875 11.734375 6.484375 
Q 5.515625 14.40625 5.515625 27.296875 
Q 5.515625 40.1875 11.734375 48.09375 
Q 17.96875 56 27.875 56 
Q 33.9375 56 38.25 53.625 
Q 42.578125 51.265625 45.40625 46.390625 
M 14.796875 27.296875 
Q 14.796875 17.390625 18.875 11.75 
Q 22.953125 6.109375 30.078125 6.109375 
Q 37.203125 6.109375 41.296875 11.75 
Q 45.40625 17.390625 45.40625 27.296875 
Q 45.40625 37.203125 41.296875 42.84375 
Q 37.203125 48.484375 30.078125 48.484375 
Q 22.953125 48.484375 18.875 42.84375 
Q 14.796875 37.203125 14.796875 27.296875 
" id="DejaVuSans-64"/>
      <path d="M 4.203125 54.6875 
L 13.1875 54.6875 
L 24.421875 12.015625 
L 35.59375 54.6875 
L 46.1875 54.6875 
L 57.421875 12.015625 
L 68.609375 54.6875 
L 77.59375 54.6875 
L 63.28125 0 
L 52.6875 0 
L 40.921875 44.828125 
L 29.109375 0 
L 18.5 0 
z
" id="DejaVuSans-77"/>
      <path d="M 34.28125 27.484375 
Q 23.390625 27.484375 19.1875 25 
Q 14.984375 22.515625 14.984375 16.5 
Q 14.984375 11.71875 18.140625 8.90625 
Q 21.296875 6.109375 26.703125 6.109375 
Q 34.1875 6.109375 38.703125 11.40625 
Q 43.21875 16.703125 43.21875 25.484375 
L 43.21875 27.484375 
z
M 52.203125 31.203125 
L 52.203125 0 
L 43.21875 0 
L 43.21875 8.296875 
Q 40.140625 3.328125 35.546875 0.953125 
Q 30.953125 -1.421875 24.3125 -1.421875 
Q 15.921875 -1.421875 10.953125 3.296875 
Q 6 8.015625 6 15.921875 
Q 6 25.140625 12.171875 29.828125 
Q 18.359375 34.515625 30.609375 34.515625 
L 43.21875 34.515625 
L 43.21875 35.40625 
Q 43.21875 41.609375 39.140625 45 
Q 35.0625 48.390625 27.6875 48.390625 
Q 23 48.390625 18.546875 47.265625 
Q 14.109375 46.140625 10.015625 43.890625 
L 10.015625 52.203125 
Q 14.9375 54.109375 19.578125 55.046875 
Q 24.21875 56 28.609375 56 
Q 40.484375 56 46.34375 49.84375 
Q 52.203125 43.703125 52.203125 31.203125 
" id="DejaVuSans-61"/>
      <path d="M 14.796875 27.296875 
Q 14.796875 17.390625 18.875 11.75 
Q 22.953125 6.109375 30.078125 6.109375 
Q 37.203125 6.109375 41.296875 11.75 
Q 45.40625 17.390625 45.40625 27.296875 
Q 45.40625 37.203125 41.296875 42.84375 
Q 37.203125 48.484375 30.078125 48.484375 
Q 22.953125 48.484375 18.875 42.84375 
Q 14.796875 37.203125 14.796875 27.296875 
M 45.40625 8.203125 
Q 42.578125 3.328125 38.25 0.953125 
Q 33.9375 -1.421875 27.875 -1.421875 
Q 17.96875 -1.421875 11.734375 6.484375 
Q 5.515625 14.40625 5.515625 27.296875 
Q 5.515625 40.1875 11.734375 48.09375 
Q 17.96875 56 27.875 56 
Q 33.9375 56 38.25 53.625 
Q 42.578125 51.265625 45.40625 46.390625 
L 45.40625 54.6875 
L 54.390625 54.6875 
L 54.390625 -20.796875 
L 45.40625 -20.796875 
z
" id="DejaVuSans-71"/>
      <path d="M 18.109375 8.203125 
L 18.109375 -20.796875 
L 9.078125 -20.796875 
L 9.078125 54.6875 
L 18.109375 54.6875 
L 18.109375 46.390625 
Q 20.953125 51.265625 25.265625 53.625 
Q 29.59375 56 35.59375 56 
Q 45.5625 56 51.78125 48.09375 
Q 58.015625 40.1875 58.015625 27.296875 
Q 58.015625 14.40625 51.78125 6.484375 
Q 45.5625 -1.421875 35.59375 -1.421875 
Q 29.59375 -1.421875 25.265625 0.953125 
Q 20.953125 3.328125 18.109375 8.203125 
M 48.6875 27.296875 
Q 48.6875 37.203125 44.609375 42.84375 
Q 40.53125 48.484375 33.40625 48.484375 
Q 26.265625 48.484375 22.1875 42.84375 
Q 18.109375 37.203125 18.109375 27.296875 
Q 18.109375 17.390625 22.1875 11.75 
Q 26.265625 6.109375 33.40625 6.109375 
Q 40.53125 6.109375 44.609375 11.75 
Q 48.6875 17.390625 48.6875 27.296875 
" id="DejaVuSans-70"/>
     </defs>
     <g transform="translate(25.432812 279.366281)rotate(-90)scale(0.1 -0.1)">
      <use xlink:href="#DejaVuSans-53"/>
      <use x="63.476562" xlink:href="#DejaVuSans-75"/>
      <use x="126.855469" xlink:href="#DejaVuSans-63"/>
      <use x="181.835938" xlink:href="#DejaVuSans-63"/>
      <use x="236.816406" xlink:href="#DejaVuSans-65"/>
      <use x="298.339844" xlink:href="#DejaVuSans-73"/>
      <use x="350.439453" xlink:href="#DejaVuSans-73"/>
      <use x="402.539062" xlink:href="#DejaVuSans-66"/>
      <use x="437.744141" xlink:href="#DejaVuSans-75"/>
      <use x="501.123047" xlink:href="#DejaVuSans-6c"/>
      <use x="528.90625" xlink:href="#DejaVuSans-20"/>
      <use x="560.693359" xlink:href="#DejaVuSans-64"/>
      <use x="624.169922" xlink:href="#DejaVuSans-6f"/>
      <use x="685.351562" xlink:href="#DejaVuSans-77"/>
      <use x="767.138672" xlink:href="#DejaVuSans-6e"/>
      <use x="830.517578" xlink:href="#DejaVuSans-6c"/>
      <use x="858.300781" xlink:href="#DejaVuSans-6f"/>
      <use x="919.482422" xlink:href="#DejaVuSans-61"/>
      <use x="980.761719" xlink:href="#DejaVuSans-64"/>
      <use x="1044.238281" xlink:href="#DejaVuSans-20"/>
      <use x="1076.025391" xlink:href="#DejaVuSans-72"/>
      <use x="1117.107422" xlink:href="#DejaVuSans-65"/>
      <use x="1178.630859" xlink:href="#DejaVuSans-71"/>
      <use x="1242.107422" xlink:href="#DejaVuSans-75"/>
      <use x="1305.486328" xlink:href="#DejaVuSans-65"/>
      <use x="1367.009766" xlink:href="#DejaVuSans-73"/>
      <use x="1419.109375" xlink:href="#DejaVuSans-74"/>
      <use x="1458.318359" xlink:href="#DejaVuSans-73"/>
      <use x="1510.417969" xlink:href="#DejaVuSans-20"/>
      <use x="1542.205078" xlink:href="#DejaVuSans-70"/>
      <use x="1605.681641" xlink:href="#DejaVuSans-65"/>
      <use x="1667.205078" xlink:href="#DejaVuSans-72"/>
      <use x="1708.318359" xlink:href="#DejaVuSans-20"/>
      <use x="1740.105469" xlink:href="#DejaVuSans-73"/>
      <use x="1792.205078" xlink:href="#DejaVuSans-65"/>
      <use x="1853.728516" xlink:href="#DejaVuSans-63"/>
      <use x="1908.708984" xlink:href="#DejaVuSans-6f"/>
      <use x="1969.890625" xlink:href="#DejaVuSans-6e"/>
      <use x="2033.269531" xlink:href="#DejaVuSans-64"/>
     </g>
    </g>
   </g>
   <g id="line2d_27">
    <path clip-path="url(#p8df69dc33e)" d="M 57.6 295.480438 
L 57.95712 295.488 
L 61.1712 292.007563 
L 61.52832 291.751655 
L 61.88544 291.124022 
L 62.24256 291.02134 
L 62.59968 290.648422 
L 62.9568 289.958702 
L 63.67104 289.502206 
L 64.38528 288.400963 
L 64.7424 287.936507 
L 65.45664 287.672241 
L 65.81376 287.103909 
L 66.17088 286.879043 
L 66.528 286.306333 
L 67.24224 285.646463 
L 67.59936 285.15375 
L 67.95648 285.104001 
L 68.3136 284.318763 
L 68.67072 284.358164 
L 69.02784 283.409352 
L 69.38496 283.620686 
L 70.0992 282.073295 
L 70.45632 281.776791 
L 70.81344 281.805048 
L 71.52768 280.4869 
L 71.8848 280.147413 
L 72.24192 279.987421 
L 72.59904 280.250891 
L 72.95616 279.152036 
L 73.31328 279.121391 
L 74.02752 278.750463 
L 74.38464 277.767025 
L 74.74176 277.240084 
L 75.09888 277.148546 
L 75.456 276.146801 
L 75.81312 276.036558 
L 76.17024 276.207296 
L 76.52736 276.038946 
L 76.88448 274.59543 
L 77.59872 274.475635 
L 77.95584 273.512495 
L 78.31296 273.832878 
L 78.67008 273.864319 
L 79.0272 272.927845 
L 79.38432 272.620596 
L 79.74144 272.695418 
L 80.09856 271.470798 
L 80.45568 271.807499 
L 80.8128 270.660487 
L 81.16992 270.006189 
L 81.52704 270.528752 
L 81.88416 270.596012 
L 82.24128 268.813408 
L 82.5984 268.901364 
L 82.95552 267.75873 
L 83.31264 268.592523 
L 83.66976 268.825746 
L 84.02688 268.014241 
L 84.384 266.430234 
L 84.74112 265.644201 
L 85.09824 266.876781 
L 85.81248 264.482065 
L 86.1696 264.983137 
L 86.52672 265.02612 
L 86.88384 264.517486 
L 87.24096 263.032182 
L 87.59808 264.525048 
L 87.9552 262.863831 
L 88.31232 262.997954 
L 88.66944 262.814878 
L 89.02656 261.527773 
L 89.38368 262.23381 
L 89.7408 261.963574 
L 90.09792 260.877057 
L 90.45504 260.769599 
L 91.5264 258.553184 
L 91.88352 259.420408 
L 92.24064 258.819042 
L 92.59776 257.293541 
L 92.95488 258.207329 
L 93.312 258.606913 
L 93.66912 257.339708 
L 94.02624 255.398304 
L 94.38336 255.265375 
L 94.74048 255.584167 
L 95.0976 256.840626 
L 95.45472 255.925643 
L 95.81184 255.328656 
L 96.16896 255.735005 
L 96.52608 254.643712 
L 96.8832 252.812951 
L 97.24032 252.452769 
L 97.59744 254.311389 
L 97.95456 253.124976 
L 98.31168 252.413367 
L 98.6688 250.157949 
L 99.02592 250.639519 
L 99.38304 252.293572 
L 99.74016 249.669215 
L 100.09728 250.786378 
L 100.4544 248.802787 
L 100.81152 249.216301 
L 101.16864 248.055757 
L 101.52576 248.123416 
L 101.88288 248.398428 
L 102.24 249.276397 
L 102.59712 247.867905 
L 102.95424 247.572197 
L 103.31136 247.469913 
L 103.66848 247.749702 
L 104.0256 244.703872 
L 104.38272 246.062217 
L 104.73984 244.004998 
L 105.09696 243.815952 
L 105.45408 243.447014 
L 105.8112 245.109425 
L 106.16832 245.487517 
L 106.52544 241.956934 
L 106.88256 244.754417 
L 107.23968 242.99012 
L 107.5968 242.652623 
L 107.95392 240.284971 
L 108.31104 240.780868 
L 108.66816 240.173931 
L 109.02528 242.552727 
L 109.3824 240.930115 
L 109.73952 240.925737 
L 110.09664 241.331689 
L 110.45376 237.208496 
L 110.81088 240.415114 
L 111.168 236.516388 
L 111.52512 239.830862 
L 111.88224 238.218996 
L 112.23936 235.742693 
L 112.59648 238.160094 
L 112.9536 238.35113 
L 113.31072 234.411809 
L 113.66784 234.910094 
L 114.02496 234.156696 
L 114.38208 233.792932 
L 114.7392 235.956414 
L 115.09632 232.621642 
L 115.45344 232.517766 
L 115.81056 231.931525 
L 116.16768 233.22062 
L 116.5248 231.174943 
L 116.88192 233.807259 
L 117.23904 229.720681 
L 117.59616 230.653972 
L 117.95328 229.649043 
L 118.66752 232.238376 
L 119.02464 230.587109 
L 119.38176 227.653115 
L 119.73888 227.064883 
L 120.096 228.848682 
L 120.45312 227.465661 
L 120.81024 229.182597 
L 121.16736 228.012501 
L 121.52448 227.396808 
L 121.8816 225.705742 
L 122.23872 224.766084 
L 122.59584 224.67773 
L 122.95296 224.990153 
L 123.31008 224.592559 
L 123.6672 223.524748 
L 124.02432 224.278942 
L 124.38144 224.420627 
L 124.73856 222.514247 
L 125.4528 224.179444 
L 125.80992 223.961743 
L 126.16704 224.708773 
L 126.52416 220.429169 
L 126.88128 222.57315 
L 127.2384 222.483204 
L 127.59552 219.3331 
L 127.95264 219.89785 
L 128.30976 219.429414 
L 128.66688 217.701733 
L 129.024 218.395432 
L 129.38112 216.585764 
L 129.73824 216.270157 
L 130.09536 215.779831 
L 130.45248 217.715662 
L 130.8096 215.019667 
L 131.16672 214.361389 
L 131.52384 216.912515 
L 131.88096 215.204335 
L 132.23808 212.80763 
L 132.5952 212.977572 
L 132.95232 215.15777 
L 133.30944 216.58855 
L 133.66656 211.336653 
L 134.3808 215.215081 
L 134.73792 210.705836 
L 135.09504 213.775943 
L 135.45216 213.348898 
L 135.80928 210.950999 
L 136.1664 213.989267 
L 136.52352 210.237002 
L 136.88064 213.609981 
L 137.23776 208.59847 
L 137.59488 211.439732 
L 137.952 209.477236 
L 138.30912 211.479532 
L 138.66624 208.481461 
L 139.02336 209.544894 
L 139.7376 204.475277 
L 140.09472 208.531608 
L 140.45184 208.696376 
L 140.80896 209.365798 
L 141.16608 208.512106 
L 141.5232 202.357962 
L 141.88032 203.557508 
L 142.23744 207.834724 
L 142.59456 204.247626 
L 142.95168 207.344797 
L 143.3088 204.513882 
L 143.66592 203.421793 
L 144.02304 201.345869 
L 144.38016 201.760974 
L 145.0944 203.641485 
L 145.80864 198.732656 
L 146.16576 198.180244 
L 146.88 203.054845 
L 147.23712 201.599788 
L 147.59424 199.22338 
L 147.95136 198.713155 
L 148.30848 201.513424 
L 149.02272 199.344369 
L 149.37984 193.826613 
L 149.73696 195.830103 
L 150.09408 193.522946 
L 150.4512 197.14069 
L 151.16544 192.4619 
L 151.52256 194.624189 
L 151.87968 193.915764 
L 152.2368 193.79557 
L 152.59392 191.312898 
L 152.95104 194.728462 
L 153.30816 194.021231 
L 153.66528 193.670999 
L 154.0224 190.500598 
L 154.37952 194.194756 
L 154.73664 187.863505 
L 155.09376 189.626608 
L 155.45088 192.328971 
L 155.808 188.679786 
L 156.16512 189.397365 
L 156.52224 187.784703 
L 156.87936 189.423632 
L 157.23648 187.151896 
L 157.5936 187.206819 
L 157.95072 184.297898 
L 158.30784 184.97727 
L 159.02208 189.571287 
L 159.3792 188.156825 
L 159.73632 185.882701 
L 160.09344 184.450727 
L 160.45056 187.633068 
L 160.80768 188.746648 
L 161.1648 187.180153 
L 161.52192 181.803287 
L 162.23616 181.705381 
L 162.9504 183.630068 
L 163.30752 185.797531 
L 163.66464 182.347739 
L 164.02176 177.540399 
L 164.37888 183.524202 
L 165.09312 176.70979 
L 165.45024 181.446288 
L 165.80736 181.962483 
L 166.5216 179.026897 
L 166.87872 182.147549 
L 167.23584 176.250508 
L 167.59296 173.458597 
L 167.95008 177.331055 
L 168.3072 177.206484 
L 168.66432 174.813758 
L 169.02144 178.440258 
L 169.37856 178.97078 
L 169.73568 179.227087 
L 170.0928 171.7735 
L 170.44992 174.821718 
L 170.80704 171.171339 
L 171.52128 174.294777 
L 172.23552 172.459638 
L 172.59264 174.210005 
L 173.30688 170.132979 
L 174.02112 174.324626 
L 174.37824 174.589689 
L 174.73536 172.034981 
L 175.09248 167.651899 
L 175.4496 168.687075 
L 175.80672 165.369417 
L 176.16384 164.817801 
L 176.52096 168.171278 
L 176.87808 164.865958 
L 177.2352 164.54836 
L 177.59232 168.864977 
L 177.94944 165.764225 
L 178.30656 169.747325 
L 178.66368 163.773869 
L 179.0208 165.278675 
L 179.37792 165.189127 
L 179.73504 164.891827 
L 180.09216 165.951679 
L 180.44928 159.209303 
L 180.8064 164.780787 
L 181.16352 159.109009 
L 181.52064 163.663227 
L 181.87776 161.692372 
L 182.23488 161.258164 
L 182.592 163.69029 
L 182.94912 161.689586 
L 183.30624 164.210067 
L 183.66336 157.394461 
L 184.02048 163.560545 
L 184.3776 157.945281 
L 184.73472 158.578088 
L 185.09184 163.692678 
L 185.44896 159.991356 
L 185.80608 161.482233 
L 186.1632 153.334946 
L 186.52032 155.282319 
L 186.87744 152.634083 
L 187.23456 158.164575 
L 187.59168 159.975437 
L 187.9488 153.521207 
L 188.30592 158.545851 
L 188.66304 156.442863 
L 189.02016 157.538932 
L 189.37728 156.402666 
L 189.7344 157.601815 
L 190.09152 150.468213 
L 190.44864 148.293985 
L 190.80576 148.001063 
L 191.16288 150.449109 
L 191.52 146.947181 
L 191.87712 148.739337 
L 192.23424 148.190507 
L 192.59136 148.672873 
L 192.94848 150.469009 
L 193.3056 145.385064 
L 193.66272 146.549587 
L 194.01984 154.022278 
L 194.37696 144.421128 
L 194.73408 146.15478 
L 195.0912 146.569487 
L 195.44832 144.246012 
L 195.80544 146.451681 
L 196.16256 146.194977 
L 196.51968 145.19164 
L 196.8768 140.816916 
L 197.23392 141.443355 
L 197.59104 140.971735 
L 197.94816 142.90876 
L 198.30528 143.518483 
L 198.6624 147.698589 
L 199.01952 141.641953 
L 199.37664 137.945407 
L 199.73376 142.182425 
L 200.09088 139.517871 
L 200.448 142.301823 
L 200.80512 141.415098 
L 201.16224 143.146759 
L 201.51936 138.680099 
L 201.87648 140.90129 
L 202.2336 140.687171 
L 202.59072 145.065875 
L 202.94784 145.068661 
L 203.30496 139.469317 
L 203.66208 143.290434 
L 204.0192 143.37441 
L 204.37632 134.735604 
L 204.73344 132.17413 
L 205.09056 139.071723 
L 205.44768 137.273199 
L 205.8048 141.28376 
L 206.16192 139.30017 
L 206.51904 140.155454 
L 206.87616 131.420732 
L 207.23328 132.077816 
L 207.5904 138.239522 
L 207.94752 133.411088 
L 208.30464 138.973419 
L 208.66176 138.021821 
L 209.01888 130.406649 
L 209.376 128.762944 
L 209.73312 135.064743 
L 210.09024 136.017137 
L 210.44736 133.12533 
L 210.80448 134.657598 
L 211.1616 127.195653 
L 211.51872 136.336724 
L 211.87584 135.95903 
L 212.23296 133.909374 
L 212.59008 129.564499 
L 212.9472 131.319642 
L 213.30432 135.994054 
L 213.66144 131.401628 
L 214.01856 129.923488 
L 214.37568 129.946571 
L 214.7328 132.634208 
L 215.08992 131.860115 
L 215.44704 127.99681 
L 215.80416 125.744178 
L 216.5184 133.639933 
L 216.87552 133.754953 
L 217.23264 127.447184 
L 217.58976 131.844195 
L 217.94688 129.295855 
L 218.304 129.626188 
L 218.66112 124.378668 
L 219.01824 124.790988 
L 219.37536 129.064224 
L 219.73248 125.255842 
L 220.0896 126.411212 
L 220.44672 123.480003 
L 220.80384 125.912528 
L 221.16096 133.347409 
L 221.51808 129.612656 
L 221.8752 122.30155 
L 222.23232 126.488024 
L 222.58944 127.534344 
L 222.94656 128.045365 
L 223.30368 132.789027 
L 223.6608 123.943266 
L 224.01792 128.877168 
L 224.37504 120.992556 
L 224.73216 123.491147 
L 225.08928 124.115198 
L 225.4464 131.455755 
L 225.80352 123.275436 
L 226.16064 128.116208 
L 226.51776 122.952266 
L 226.87488 125.025803 
L 227.232 120.208512 
L 227.58912 121.084492 
L 227.94624 127.297937 
L 228.30336 130.029353 
L 228.66048 120.736249 
L 229.0176 130.803845 
L 229.37472 125.483493 
L 229.73184 128.996167 
L 230.08896 124.026844 
L 230.44608 122.288018 
L 230.8032 122.391894 
L 231.16032 122.272099 
L 231.51744 127.611554 
L 231.87456 124.358769 
L 232.23168 117.846432 
L 232.5888 127.131178 
L 232.94592 128.684938 
L 233.30304 123.979881 
L 233.66016 128.686928 
L 234.01728 120.731075 
L 234.3744 127.483003 
L 235.08864 122.684418 
L 235.44576 124.865412 
L 235.80288 117.655794 
L 236.16 122.756455 
L 236.51712 115.331125 
L 236.87424 123.376923 
L 237.23136 115.128945 
L 237.58848 114.81891 
L 237.9456 126.085654 
L 238.30272 114.389477 
L 238.65984 117.411029 
L 239.37408 126.107942 
L 239.7312 120.31398 
L 240.44544 125.516128 
L 240.80256 125.012669 
L 241.15968 119.110055 
L 241.5168 121.53263 
L 241.87392 119.090554 
L 242.23104 123.42906 
L 242.58816 125.221217 
L 242.94528 116.713748 
L 243.3024 122.965798 
L 243.65952 113.142967 
L 244.01664 118.643211 
L 244.37376 113.299776 
L 244.73088 124.100074 
L 245.088 112.981382 
L 245.44512 119.936286 
L 245.80224 117.319889 
L 246.15936 120.433377 
L 246.51648 118.694552 
L 246.8736 121.283886 
L 247.23072 118.129404 
L 247.58784 118.086819 
L 247.94496 122.918835 
L 248.30208 122.425724 
L 248.6592 119.445562 
L 249.01632 110.884365 
L 249.37344 114.084615 
L 249.73056 120.644711 
L 250.08768 114.010987 
L 250.4448 109.994455 
L 250.80192 120.793958 
L 251.15904 119.709829 
L 251.51616 111.221066 
L 252.2304 118.667887 
L 252.58752 116.109199 
L 252.94464 110.733526 
L 253.30176 114.519222 
L 253.65888 113.123863 
L 254.016 114.823686 
L 254.37312 113.770202 
L 254.73024 113.718463 
L 255.08736 109.413786 
L 255.44448 110.205391 
L 255.8016 117.308745 
L 256.15872 118.082043 
L 256.51584 118.379741 
L 256.87296 107.818237 
L 257.23008 113.337983 
L 257.5872 108.281499 
L 257.94432 114.542306 
L 258.30144 113.603443 
L 258.65856 113.448625 
L 259.01568 113.627323 
L 259.3728 117.432919 
L 259.72992 112.478719 
L 260.08704 117.024579 
L 260.44416 110.913816 
L 260.80128 113.045857 
L 261.1584 108.435522 
L 261.87264 117.626343 
L 262.22976 115.747026 
L 262.58688 112.562695 
L 262.944 115.298888 
L 263.30112 111.169327 
L 263.65824 114.110883 
L 264.01536 110.742282 
L 264.37248 113.94492 
L 264.7296 111.259671 
L 265.08672 114.239036 
L 265.44384 108.957289 
L 265.80096 109.655765 
L 266.15808 104.904939 
L 266.5152 109.256579 
L 266.87232 105.41994 
L 267.22944 111.433195 
L 267.58656 108.46179 
L 267.94368 113.454992 
L 268.3008 109.366823 
L 268.65792 107.081555 
L 269.01504 113.011232 
L 269.37216 105.007222 
L 269.72928 111.59876 
L 270.0864 103.159745 
L 270.44352 106.103291 
L 270.80064 102.564748 
L 271.15776 106.56536 
L 271.51488 111.870986 
L 271.872 102.910603 
L 272.22912 103.89404 
L 272.58624 110.471249 
L 272.94336 109.199268 
L 273.30048 111.123956 
L 273.6576 99.824974 
L 274.01472 106.186074 
L 274.37184 105.692564 
L 274.72896 102.845332 
L 275.08608 104.53998 
L 275.4432 111.185644 
L 275.80032 103.536643 
L 276.15744 111.544633 
L 276.51456 99.838903 
L 276.87168 110.454534 
L 277.2288 100.986711 
L 277.58592 99.229976 
L 277.94304 106.350444 
L 278.65728 101.299135 
L 279.0144 101.010591 
L 279.37152 106.06986 
L 280.08576 100.547726 
L 280.44288 109.766406 
L 280.8 109.066339 
L 281.15712 101.869855 
L 281.51424 107.608496 
L 281.87136 107.827789 
L 282.22848 99.107793 
L 282.5856 101.810156 
L 282.94272 107.57984 
L 283.29984 105.421532 
L 283.65696 109.115292 
L 284.01408 100.634091 
L 284.3712 106.195625 
L 284.72832 103.666787 
L 285.08544 104.09821 
L 285.44256 101.410174 
L 285.79968 104.513315 
L 286.1568 104.496599 
L 286.51392 94.721129 
L 286.87104 99.743385 
L 287.22816 100.203862 
L 287.58528 103.572463 
L 287.9424 96.199668 
L 288.29952 100.700953 
L 288.65664 107.569492 
L 289.01376 96.705117 
L 289.37088 103.623804 
L 289.728 93.947035 
L 290.08512 103.481721 
L 290.44224 100.417981 
L 290.79936 103.468587 
L 291.15648 100.614191 
L 291.5136 104.863945 
L 291.87072 97.5409 
L 292.58496 99.773235 
L 292.94208 92.462129 
L 293.2992 96.536369 
L 293.65632 106.038817 
L 294.01344 96.504928 
L 294.37056 99.947555 
L 294.72768 95.874111 
L 295.0848 95.429554 
L 295.44192 95.801278 
L 295.79904 94.812269 
L 296.15616 93.192045 
L 296.51328 93.377111 
L 296.8704 91.63948 
L 297.22752 93.073842 
L 297.94176 103.010499 
L 298.29888 102.427043 
L 298.656 95.449454 
L 299.01312 100.408031 
L 299.37024 95.51154 
L 299.72736 97.880387 
L 300.08448 103.875732 
L 300.4416 97.051768 
L 300.79872 95.220609 
L 301.15584 95.470149 
L 301.51296 98.18087 
L 301.87008 90.236162 
L 302.2272 102.149245 
L 302.58432 89.557984 
L 302.94144 95.13106 
L 303.29856 88.53037 
L 303.65568 88.779114 
L 304.0128 88.780706 
L 304.36992 94.906593 
L 304.72704 91.114131 
L 305.08416 102.200984 
L 305.44128 89.738672 
L 305.7984 97.353844 
L 306.15552 95.699393 
L 306.51264 99.196943 
L 306.86976 95.90595 
L 307.22688 94.84769 
L 307.584 95.441096 
L 307.94112 93.81132 
L 308.29824 98.593588 
L 308.65536 86.648267 
L 309.01248 94.335475 
L 309.3696 91.630724 
L 309.72672 97.789644 
L 310.44096 89.260286 
L 310.79808 87.179586 
L 311.1552 90.452669 
L 311.51232 90.68231 
L 311.86944 87.685831 
L 312.22656 89.256306 
L 312.58368 87.037503 
L 312.9408 89.643154 
L 313.29792 88.234662 
L 314.01216 88.726181 
L 314.36928 93.159808 
L 314.7264 93.601977 
L 315.08352 97.584679 
L 315.44064 96.103752 
L 315.79776 98.551002 
L 316.15488 94.561534 
L 316.512 89.290534 
L 316.86912 97.399215 
L 317.58336 87.408829 
L 317.94048 89.146859 
L 318.2976 97.990232 
L 319.01184 89.201383 
L 319.36896 90.721711 
L 319.72608 87.482856 
L 320.0832 97.278225 
L 320.44032 95.579199 
L 320.79744 86.132868 
L 321.15456 96.648603 
L 321.51168 94.272991 
L 321.8688 93.947035 
L 322.22592 86.352559 
L 322.58304 92.304922 
L 322.94016 88.617132 
L 323.29728 89.654298 
L 323.6544 96.295584 
L 324.01152 90.861008 
L 324.36864 91.164676 
L 324.72576 82.576813 
L 325.08288 84.41235 
L 325.44 94.415074 
L 325.79712 82.43871 
L 326.15424 90.808076 
L 326.86848 82.815608 
L 327.2256 94.463629 
L 327.58272 94.032604 
L 327.93984 87.521461 
L 328.29696 92.277063 
L 328.65408 90.285115 
L 329.0112 86.488673 
L 329.36832 93.389449 
L 329.72544 91.774797 
L 330.08256 81.054097 
L 330.7968 93.028471 
L 331.15392 84.859693 
L 331.51104 90.263225 
L 331.86816 80.669239 
L 332.22528 92.349895 
L 332.5824 83.11251 
L 332.93952 89.25949 
L 333.29664 89.298095 
L 333.65376 84.622092 
L 334.01088 81.711977 
L 334.368 90.255663 
L 334.72512 90.005326 
L 335.43936 81.701629 
L 335.79648 87.096008 
L 336.1536 85.190026 
L 336.51072 91.297605 
L 336.86784 81.84809 
L 337.22496 81.885104 
L 337.58208 87.449026 
L 337.9392 80.178913 
L 338.29632 80.215927 
L 338.65344 79.546107 
L 339.01056 83.121663 
L 339.36768 88.779114 
L 339.7248 80.105285 
L 340.08192 87.678269 
L 340.43904 84.452547 
L 340.79616 90.41685 
L 341.15328 86.325098 
L 341.5104 84.252358 
L 341.86752 89.655094 
L 342.22464 79.884002 
L 342.58176 82.05823 
L 342.93888 85.426433 
L 343.296 76.489929 
L 343.65312 87.449822 
L 344.01024 74.924628 
L 344.36736 79.01041 
L 344.72448 79.02036 
L 345.0816 74.17123 
L 345.43872 87.691801 
L 345.79584 77.745593 
L 346.15296 78.983745 
L 346.51008 88.375153 
L 346.8672 80.748837 
L 347.22432 87.628521 
L 348.29568 79.67625 
L 348.6528 72.947406 
L 349.00992 76.219693 
L 349.36704 77.027616 
L 349.72416 75.679618 
L 350.08128 76.378889 
L 350.4384 76.453314 
L 351.15264 86.986958 
L 351.50976 85.751194 
L 351.86688 73.80667 
L 352.224 80.688741 
L 352.58112 74.144167 
L 352.93824 74.06218 
L 353.29536 71.749451 
L 354.0096 86.177443 
L 354.36672 73.452457 
L 354.72384 75.354459 
L 355.08096 80.849131 
L 355.43808 83.104152 
L 355.7952 77.336457 
L 356.15232 83.961426 
L 356.50944 78.583365 
L 356.86656 77.58958 
L 357.22368 79.075283 
L 357.5808 75.805384 
L 357.93792 78.557098 
L 358.29504 72.75239 
L 358.65216 73.606082 
L 359.00928 83.155891 
L 359.3664 81.623623 
L 359.72352 81.199364 
L 360.08064 76.667433 
L 360.43776 76.145666 
L 360.79488 74.464948 
L 361.152 69.875308 
L 361.50912 74.388135 
L 361.86624 74.230929 
L 362.22336 82.282299 
L 362.58048 69.507564 
L 362.9376 82.485275 
L 363.29472 72.056701 
L 363.65184 72.902831 
L 364.00896 79.31567 
L 364.36608 75.95463 
L 364.7232 82.072558 
L 365.08032 74.254012 
L 365.43744 82.342794 
L 365.79456 82.126684 
L 366.15168 70.122859 
L 366.5088 79.213784 
L 366.86592 77.123532 
L 367.22304 71.39484 
L 367.58016 80.100111 
L 367.93728 75.281627 
L 368.2944 68.341847 
L 368.65152 81.889083 
L 369.00864 69.213846 
L 369.36576 80.140308 
L 369.72288 77.063435 
L 370.08 68.371696 
L 370.43712 69.06659 
L 370.79424 80.691129 
L 371.15136 71.087591 
L 371.50848 77.714151 
L 371.8656 71.920189 
L 372.22272 68.056089 
L 372.57984 67.705458 
L 372.93696 68.145637 
L 373.29408 73.091877 
L 373.6512 80.515216 
L 374.00832 68.063651 
L 374.36544 68.683324 
L 374.72256 75.32262 
L 375.07968 77.144625 
L 375.4368 66.968378 
L 375.79392 76.53331 
L 376.15104 75.700712 
L 376.50816 69.353541 
L 376.86528 77.408096 
L 377.2224 72.955366 
L 377.57952 64.146219 
L 377.93664 68.099868 
L 378.29376 78.575803 
L 378.65088 68.017086 
L 379.008 70.270116 
L 379.36512 66.941712 
L 379.72224 74.815578 
L 380.07936 66.533373 
L 380.43648 74.512309 
L 380.7936 77.753155 
L 381.15072 74.046261 
L 381.50784 66.647198 
L 381.86496 63.895484 
L 382.22208 72.970887 
L 382.5792 72.067446 
L 382.93632 68.840928 
L 383.29344 75.051985 
L 383.65056 62.494156 
L 384.00768 65.15473 
L 384.3648 72.634584 
L 384.72192 67.451142 
L 385.07904 70.446426 
L 385.43616 71.852929 
L 385.79328 61.44306 
L 386.1504 76.657086 
L 386.50752 75.654147 
L 386.86464 73.351765 
L 387.22176 76.062486 
L 387.57888 71.718806 
L 387.936 69.494033 
L 388.29312 71.351061 
L 388.65024 76.719172 
L 389.00736 65.858379 
L 389.36448 69.068977 
L 389.7216 63.374911 
L 390.07872 70.251013 
L 390.43584 60.60688 
L 390.79296 72.047547 
L 391.15008 63.4366 
L 391.5072 59.943826 
L 391.86432 65.478297 
L 392.22144 74.327641 
L 392.57856 70.653382 
L 392.93568 63.812304 
L 393.2928 69.69064 
L 393.64992 72.027249 
L 394.00704 71.347479 
L 394.36416 72.85746 
L 394.72128 63.84494 
L 395.0784 66.100358 
L 395.43552 66.597052 
L 395.79264 68.922915 
L 396.14976 64.050701 
L 396.50688 70.536373 
L 396.864 67.957387 
L 397.22112 63.444958 
L 397.93536 72.290322 
L 398.29248 64.473368 
L 398.6496 69.826356 
L 399.00672 62.302324 
L 399.36384 74.069742 
L 399.72096 60.946367 
L 400.07808 64.119156 
L 400.4352 59.705827 
L 400.79232 64.469786 
L 401.14944 60.705582 
L 401.50656 68.905403 
L 401.86368 64.202734 
L 402.2208 64.588388 
L 402.57792 61.639668 
L 402.93504 61.018801 
L 403.29216 61.001687 
L 403.64928 59.440764 
L 404.0064 70.536771 
L 404.36352 63.016719 
L 404.72064 72.090928 
L 405.07776 72.062272 
L 405.43488 56.915905 
L 405.792 64.149005 
L 406.50624 68.548006 
L 406.86336 58.950837 
L 407.22048 58.849747 
L 407.5776 65.914496 
L 407.93472 66.575958 
L 408.29184 66.833459 
L 408.64896 62.887372 
L 409.00608 67.939875 
L 409.3632 56.354737 
L 409.72032 64.992349 
L 410.07744 66.450989 
L 410.43456 57.45598 
L 410.79168 65.276117 
L 411.1488 63.63878 
L 411.50592 57.054009 
L 411.86304 66.714459 
L 412.22016 63.278995 
L 412.57728 62.316652 
L 412.9344 62.252973 
L 413.29152 54.670437 
L 413.64864 53.568 
L 414.00576 60.653047 
L 414.36288 54.266873 
L 414.72 69.128278 
L 414.72 69.128278 
" style="fill:none;stroke:#000080;stroke-linecap:square;stroke-width:0.5;"/>
   </g>
   <g id="patch_3">
    <path d="M 57.6 307.584 
L 57.6 41.472 
" style="fill:none;stroke:#000000;stroke-linecap:square;stroke-linejoin:miter;stroke-width:0.8;"/>
   </g>
   <g id="patch_4">
    <path d="M 414.72 307.584 
L 414.72 41.472 
" style="fill:none;stroke:#000000;stroke-linecap:square;stroke-linejoin:miter;stroke-width:0.8;"/>
   </g>
   <g id="patch_5">
    <path d="M 57.6 307.584 
L 414.72 307.584 
" style="fill:none;stroke:#000000;stroke-linecap:square;stroke-linejoin:miter;stroke-width:0.8;"/>
   </g>
   <g id="patch_6">
    <path d="M 57.6 41.472 
L 414.72 41.472 
" style="fill:none;stroke:#000000;stroke-linecap:square;stroke-linejoin:miter;stroke-width:0.8;"/>
   </g>
   <g id="text_16">
    <!-- Test -->
    <defs>
     <path d="M -0.296875 72.90625 
L 61.375 72.90625 
L 61.375 64.59375 
L 35.5 64.59375 
L 35.5 0 
L 25.59375 0 
L 25.59375 64.59375 
L -0.296875 64.59375 
z
" id="DejaVuSans-54"/>
    </defs>
    <g transform="translate(223.341563 35.472)scale(0.12 -0.12)">
     <use xlink:href="#DejaVuSans-54"/>
     <use x="60.818359" xlink:href="#DejaVuSans-65"/>
     <use x="122.341797" xlink:href="#DejaVuSans-73"/>
     <use x="174.441406" xlink:href="#DejaVuSans-74"/>
    </g>
   </g>
   <g id="legend_1">
    <g id="patch_7">
     <path d="M 64.6 64.150125 
L 306.276563 64.150125 
Q 308.276563 64.150125 308.276563 62.150125 
L 308.276563 48.472 
Q 308.276563 46.472 306.276563 46.472 
L 64.6 46.472 
Q 62.6 46.472 62.6 48.472 
L 62.6 62.150125 
Q 62.6 64.150125 64.6 64.150125 
z
" style="fill:#ffffff;opacity:0.8;stroke:#cccccc;stroke-linejoin:miter;"/>
    </g>
    <g id="line2d_28">
     <path d="M 66.6 54.570438 
L 86.6 54.570438 
" style="fill:none;stroke:#000080;stroke-linecap:square;stroke-width:0.5;"/>
    </g>
    <g id="line2d_29"/>
    <g id="text_17">
     <!-- Successful download requests per second -->
     <g transform="translate(94.6 58.070438)scale(0.1 -0.1)">
      <use xlink:href="#DejaVuSans-53"/>
      <use x="63.476562" xlink:href="#DejaVuSans-75"/>
      <use x="126.855469" xlink:href="#DejaVuSans-63"/>
      <use x="181.835938" xlink:href="#DejaVuSans-63"/>
      <use x="236.816406" xlink:href="#DejaVuSans-65"/>
      <use x="298.339844" xlink:href="#DejaVuSans-73"/>
      <use x="350.439453" xlink:href="#DejaVuSans-73"/>
      <use x="402.539062" xlink:href="#DejaVuSans-66"/>
      <use x="437.744141" xlink:href="#DejaVuSans-75"/>
      <use x="501.123047" xlink:href="#DejaVuSans-6c"/>
      <use x="528.90625" xlink:href="#DejaVuSans-20"/>
      <use x="560.693359" xlink:href="#DejaVuSans-64"/>
      <use x="624.169922" xlink:href="#DejaVuSans-6f"/>
      <use x="685.351562" xlink:href="#DejaVuSans-77"/>
      <use x="767.138672" xlink:href="#DejaVuSans-6e"/>
      <use x="830.517578" xlink:href="#DejaVuSans-6c"/>
      <use x="858.300781" xlink:href="#DejaVuSans-6f"/>
      <use x="919.482422" xlink:href="#DejaVuSans-61"/>
      <use x="980.761719" xlink:href="#DejaVuSans-64"/>
      <use x="1044.238281" xlink:href="#DejaVuSans-20"/>
      <use x="1076.025391" xlink:href="#DejaVuSans-72"/>
      <use x="1117.107422" xlink:href="#DejaVuSans-65"/>
      <use x="1178.630859" xlink:href="#DejaVuSans-71"/>
      <use x="1242.107422" xlink:href="#DejaVuSans-75"/>
      <use x="1305.486328" xlink:href="#DejaVuSans-65"/>
      <use x="1367.009766" xlink:href="#DejaVuSans-73"/>
      <use x="1419.109375" xlink:href="#DejaVuSans-74"/>
      <use x="1458.318359" xlink:href="#DejaVuSans-73"/>
      <use x="1510.417969" xlink:href="#DejaVuSans-20"/>
      <use x="1542.205078" xlink:href="#DejaVuSans-70"/>
      <use x="1605.681641" xlink:href="#DejaVuSans-65"/>
      <use x="1667.205078" xlink:href="#DejaVuSans-72"/>
      <use x="1708.318359" xlink:href="#DejaVuSans-20"/>
      <use x="1740.105469" xlink:href="#DejaVuSans-73"/>
      <use x="1792.205078" xlink:href="#DejaVuSans-65"/>
      <use x="1853.728516" xlink:href="#DejaVuSans-63"/>
      <use x="1908.708984" xlink:href="#DejaVuSans-6f"/>
      <use x="1969.890625" xlink:href="#DejaVuSans-6e"/>
      <use x="2033.269531" xlink:href="#DejaVuSans-64"/>
     </g>
    </g>
   </g>
  </g>
 </g>
 <defs>
  <clipPath id="p8df69dc33e">
   <rect height="266.112" width="357.12" x="57.6" y="41.472"/>
  </clipPath>
 </defs>
</svg>
