<?xml version="1.0" encoding="utf-8" standalone="no"?>
<!DOCTYPE svg PUBLIC "-//W3C//DTD SVG 1.1//EN"
  "http://www.w3.org/Graphics/SVG/1.1/DTD/svg11.dtd">
<!-- Created with matplotlib (http://matplotlib.org/) -->
<svg height="345pt" version="1.1" viewBox="0 0 460 345" width="460pt" xmlns="http://www.w3.org/2000/svg" xmlns:xlink="http://www.w3.org/1999/xlink">
 <defs>
  <style type="text/css">
*{stroke-linecap:butt;stroke-linejoin:round;}
  </style>
 </defs>
 <g id="figure_1">
  <g id="patch_1">
   <path d="M 0 345.6 
L 460.8 345.6 
L 460.8 0 
L 0 0 
z
" style="fill:#ffffff;"/>
  </g>
  <g id="axes_1">
   <g id="patch_2">
    <path d="M 57.6 307.584 
L 414.72 307.584 
L 414.72 41.472 
L 57.6 41.472 
z
" style="fill:#ffffff;"/>
   </g>
   <g id="matplotlib.axis_1">
    <g id="xtick_1">
     <g id="line2d_1">
      <path clip-path="url(#p1d42b930b2)" d="M 57.6 307.584 
L 57.6 41.472 
" style="fill:none;stroke:#b0b0b0;stroke-linecap:square;stroke-width:0.8;"/>
     </g>
     <g id="line2d_2">
      <defs>
       <path d="M 0 0 
L 0 3.5 
" id="m14b4cb65f9" style="stroke:#000000;stroke-width:0.8;"/>
      </defs>
      <g>
       <use style="stroke:#000000;stroke-width:0.8;" x="57.6" xlink:href="#m14b4cb65f9" y="307.584"/>
      </g>
     </g>
     <g id="text_1">
      <!-- 0 -->
      <defs>
       <path d="M 31.78125 66.40625 
Q 24.171875 66.40625 20.328125 58.90625 
Q 16.5 51.421875 16.5 36.375 
Q 16.5 21.390625 20.328125 13.890625 
Q 24.171875 6.390625 31.78125 6.390625 
Q 39.453125 6.390625 43.28125 13.890625 
Q 47.125 21.390625 47.125 36.375 
Q 47.125 51.421875 43.28125 58.90625 
Q 39.453125 66.40625 31.78125 66.40625 
M 31.78125 74.21875 
Q 44.046875 74.21875 50.515625 64.515625 
Q 56.984375 54.828125 56.984375 36.375 
Q 56.984375 17.96875 50.515625 8.265625 
Q 44.046875 -1.421875 31.78125 -1.421875 
Q 19.53125 -1.421875 13.0625 8.265625 
Q 6.59375 17.96875 6.59375 36.375 
Q 6.59375 54.828125 13.0625 64.515625 
Q 19.53125 74.21875 31.78125 74.21875 
" id="DejaVuSans-30"/>
      </defs>
      <g transform="translate(54.41875 322.182437)scale(0.1 -0.1)">
       <use xlink:href="#DejaVuSans-30"/>
      </g>
     </g>
    </g>
    <g id="xtick_2">
     <g id="line2d_3">
      <path clip-path="url(#p1d42b930b2)" d="M 129.024 307.584 
L 129.024 41.472 
" style="fill:none;stroke:#b0b0b0;stroke-linecap:square;stroke-width:0.8;"/>
     </g>
     <g id="line2d_4">
      <g>
       <use style="stroke:#000000;stroke-width:0.8;" x="129.024" xlink:href="#m14b4cb65f9" y="307.584"/>
      </g>
     </g>
     <g id="text_2">
      <!-- 200 -->
      <defs>
       <path d="M 19.1875 8.296875 
L 53.609375 8.296875 
L 53.609375 0 
L 7.328125 0 
L 7.328125 8.296875 
Q 12.9375 14.109375 22.625 23.890625 
Q 32.328125 33.6875 34.8125 36.53125 
Q 39.546875 41.84375 41.421875 45.53125 
Q 43.3125 49.21875 43.3125 52.78125 
Q 43.3125 58.59375 39.234375 62.25 
Q 35.15625 65.921875 28.609375 65.921875 
Q 23.96875 65.921875 18.8125 64.3125 
Q 13.671875 62.703125 7.8125 59.421875 
L 7.8125 69.390625 
Q 13.765625 71.78125 18.9375 73 
Q 24.125 74.21875 28.421875 74.21875 
Q 39.75 74.21875 46.484375 68.546875 
Q 53.21875 62.890625 53.21875 53.421875 
Q 53.21875 48.921875 51.53125 44.890625 
Q 49.859375 40.875 45.40625 35.40625 
Q 44.1875 33.984375 37.640625 27.21875 
Q 31.109375 20.453125 19.1875 8.296875 
" id="DejaVuSans-32"/>
      </defs>
      <g transform="translate(119.48025 322.182437)scale(0.1 -0.1)">
       <use xlink:href="#DejaVuSans-32"/>
       <use x="63.623047" xlink:href="#DejaVuSans-30"/>
       <use x="127.246094" xlink:href="#DejaVuSans-30"/>
      </g>
     </g>
    </g>
    <g id="xtick_3">
     <g id="line2d_5">
      <path clip-path="url(#p1d42b930b2)" d="M 200.448 307.584 
L 200.448 41.472 
" style="fill:none;stroke:#b0b0b0;stroke-linecap:square;stroke-width:0.8;"/>
     </g>
     <g id="line2d_6">
      <g>
       <use style="stroke:#000000;stroke-width:0.8;" x="200.448" xlink:href="#m14b4cb65f9" y="307.584"/>
      </g>
     </g>
     <g id="text_3">
      <!-- 400 -->
      <defs>
       <path d="M 37.796875 64.3125 
L 12.890625 25.390625 
L 37.796875 25.390625 
z
M 35.203125 72.90625 
L 47.609375 72.90625 
L 47.609375 25.390625 
L 58.015625 25.390625 
L 58.015625 17.1875 
L 47.609375 17.1875 
L 47.609375 0 
L 37.796875 0 
L 37.796875 17.1875 
L 4.890625 17.1875 
L 4.890625 26.703125 
z
" id="DejaVuSans-34"/>
      </defs>
      <g transform="translate(190.90425 322.182437)scale(0.1 -0.1)">
       <use xlink:href="#DejaVuSans-34"/>
       <use x="63.623047" xlink:href="#DejaVuSans-30"/>
       <use x="127.246094" xlink:href="#DejaVuSans-30"/>
      </g>
     </g>
    </g>
    <g id="xtick_4">
     <g id="line2d_7">
      <path clip-path="url(#p1d42b930b2)" d="M 271.872 307.584 
L 271.872 41.472 
" style="fill:none;stroke:#b0b0b0;stroke-linecap:square;stroke-width:0.8;"/>
     </g>
     <g id="line2d_8">
      <g>
       <use style="stroke:#000000;stroke-width:0.8;" x="271.872" xlink:href="#m14b4cb65f9" y="307.584"/>
      </g>
     </g>
     <g id="text_4">
      <!-- 600 -->
      <defs>
       <path d="M 33.015625 40.375 
Q 26.375 40.375 22.484375 35.828125 
Q 18.609375 31.296875 18.609375 23.390625 
Q 18.609375 15.53125 22.484375 10.953125 
Q 26.375 6.390625 33.015625 6.390625 
Q 39.65625 6.390625 43.53125 10.953125 
Q 47.40625 15.53125 47.40625 23.390625 
Q 47.40625 31.296875 43.53125 35.828125 
Q 39.65625 40.375 33.015625 40.375 
M 52.59375 71.296875 
L 52.59375 62.3125 
Q 48.875 64.0625 45.09375 64.984375 
Q 41.3125 65.921875 37.59375 65.921875 
Q 27.828125 65.921875 22.671875 59.328125 
Q 17.53125 52.734375 16.796875 39.40625 
Q 19.671875 43.65625 24.015625 45.921875 
Q 28.375 48.1875 33.59375 48.1875 
Q 44.578125 48.1875 50.953125 41.515625 
Q 57.328125 34.859375 57.328125 23.390625 
Q 57.328125 12.15625 50.6875 5.359375 
Q 44.046875 -1.421875 33.015625 -1.421875 
Q 20.359375 -1.421875 13.671875 8.265625 
Q 6.984375 17.96875 6.984375 36.375 
Q 6.984375 53.65625 15.1875 63.9375 
Q 23.390625 74.21875 37.203125 74.21875 
Q 40.921875 74.21875 44.703125 73.484375 
Q 48.484375 72.75 52.59375 71.296875 
" id="DejaVuSans-36"/>
      </defs>
      <g transform="translate(262.32825 322.182437)scale(0.1 -0.1)">
       <use xlink:href="#DejaVuSans-36"/>
       <use x="63.623047" xlink:href="#DejaVuSans-30"/>
       <use x="127.246094" xlink:href="#DejaVuSans-30"/>
      </g>
     </g>
    </g>
    <g id="xtick_5">
     <g id="line2d_9">
      <path clip-path="url(#p1d42b930b2)" d="M 343.296 307.584 
L 343.296 41.472 
" style="fill:none;stroke:#b0b0b0;stroke-linecap:square;stroke-width:0.8;"/>
     </g>
     <g id="line2d_10">
      <g>
       <use style="stroke:#000000;stroke-width:0.8;" x="343.296" xlink:href="#m14b4cb65f9" y="307.584"/>
      </g>
     </g>
     <g id="text_5">
      <!-- 800 -->
      <defs>
       <path d="M 31.78125 34.625 
Q 24.75 34.625 20.71875 30.859375 
Q 16.703125 27.09375 16.703125 20.515625 
Q 16.703125 13.921875 20.71875 10.15625 
Q 24.75 6.390625 31.78125 6.390625 
Q 38.8125 6.390625 42.859375 10.171875 
Q 46.921875 13.96875 46.921875 20.515625 
Q 46.921875 27.09375 42.890625 30.859375 
Q 38.875 34.625 31.78125 34.625 
M 21.921875 38.8125 
Q 15.578125 40.375 12.03125 44.71875 
Q 8.5 49.078125 8.5 55.328125 
Q 8.5 64.0625 14.71875 69.140625 
Q 20.953125 74.21875 31.78125 74.21875 
Q 42.671875 74.21875 48.875 69.140625 
Q 55.078125 64.0625 55.078125 55.328125 
Q 55.078125 49.078125 51.53125 44.71875 
Q 48 40.375 41.703125 38.8125 
Q 48.828125 37.15625 52.796875 32.3125 
Q 56.78125 27.484375 56.78125 20.515625 
Q 56.78125 9.90625 50.3125 4.234375 
Q 43.84375 -1.421875 31.78125 -1.421875 
Q 19.734375 -1.421875 13.25 4.234375 
Q 6.78125 9.90625 6.78125 20.515625 
Q 6.78125 27.484375 10.78125 32.3125 
Q 14.796875 37.15625 21.921875 38.8125 
M 18.3125 54.390625 
Q 18.3125 48.734375 21.84375 45.5625 
Q 25.390625 42.390625 31.78125 42.390625 
Q 38.140625 42.390625 41.71875 45.5625 
Q 45.3125 48.734375 45.3125 54.390625 
Q 45.3125 60.0625 41.71875 63.234375 
Q 38.140625 66.40625 31.78125 66.40625 
Q 25.390625 66.40625 21.84375 63.234375 
Q 18.3125 60.0625 18.3125 54.390625 
" id="DejaVuSans-38"/>
      </defs>
      <g transform="translate(333.75225 322.182437)scale(0.1 -0.1)">
       <use xlink:href="#DejaVuSans-38"/>
       <use x="63.623047" xlink:href="#DejaVuSans-30"/>
       <use x="127.246094" xlink:href="#DejaVuSans-30"/>
      </g>
     </g>
    </g>
    <g id="xtick_6">
     <g id="line2d_11">
      <path clip-path="url(#p1d42b930b2)" d="M 414.72 307.584 
L 414.72 41.472 
" style="fill:none;stroke:#b0b0b0;stroke-linecap:square;stroke-width:0.8;"/>
     </g>
     <g id="line2d_12">
      <g>
       <use style="stroke:#000000;stroke-width:0.8;" x="414.72" xlink:href="#m14b4cb65f9" y="307.584"/>
      </g>
     </g>
     <g id="text_6">
      <!-- 1000 -->
      <defs>
       <path d="M 12.40625 8.296875 
L 28.515625 8.296875 
L 28.515625 63.921875 
L 10.984375 60.40625 
L 10.984375 69.390625 
L 28.421875 72.90625 
L 38.28125 72.90625 
L 38.28125 8.296875 
L 54.390625 8.296875 
L 54.390625 0 
L 12.40625 0 
z
" id="DejaVuSans-31"/>
      </defs>
      <g transform="translate(401.995 322.182437)scale(0.1 -0.1)">
       <use xlink:href="#DejaVuSans-31"/>
       <use x="63.623047" xlink:href="#DejaVuSans-30"/>
       <use x="127.246094" xlink:href="#DejaVuSans-30"/>
       <use x="190.869141" xlink:href="#DejaVuSans-30"/>
      </g>
     </g>
    </g>
    <g id="text_7">
     <!-- Number of clients -->
     <defs>
      <path d="M 9.8125 72.90625 
L 23.09375 72.90625 
L 55.421875 11.921875 
L 55.421875 72.90625 
L 64.984375 72.90625 
L 64.984375 0 
L 51.703125 0 
L 19.390625 60.984375 
L 19.390625 0 
L 9.8125 0 
z
" id="DejaVuSans-4e"/>
      <path d="M 8.5 21.578125 
L 8.5 54.6875 
L 17.484375 54.6875 
L 17.484375 21.921875 
Q 17.484375 14.15625 20.5 10.265625 
Q 23.53125 6.390625 29.59375 6.390625 
Q 36.859375 6.390625 41.078125 11.03125 
Q 45.3125 15.671875 45.3125 23.6875 
L 45.3125 54.6875 
L 54.296875 54.6875 
L 54.296875 0 
L 45.3125 0 
L 45.3125 8.40625 
Q 42.046875 3.421875 37.71875 1 
Q 33.40625 -1.421875 27.6875 -1.421875 
Q 18.265625 -1.421875 13.375 4.4375 
Q 8.5 10.296875 8.5 21.578125 
M 31.109375 56 
z
" id="DejaVuSans-75"/>
      <path d="M 52 44.1875 
Q 55.375 50.25 60.0625 53.125 
Q 64.75 56 71.09375 56 
Q 79.640625 56 84.28125 50.015625 
Q 88.921875 44.046875 88.921875 33.015625 
L 88.921875 0 
L 79.890625 0 
L 79.890625 32.71875 
Q 79.890625 40.578125 77.09375 44.375 
Q 74.3125 48.1875 68.609375 48.1875 
Q 61.625 48.1875 57.5625 43.546875 
Q 53.515625 38.921875 53.515625 30.90625 
L 53.515625 0 
L 44.484375 0 
L 44.484375 32.71875 
Q 44.484375 40.625 41.703125 44.40625 
Q 38.921875 48.1875 33.109375 48.1875 
Q 26.21875 48.1875 22.15625 43.53125 
Q 18.109375 38.875 18.109375 30.90625 
L 18.109375 0 
L 9.078125 0 
L 9.078125 54.6875 
L 18.109375 54.6875 
L 18.109375 46.1875 
Q 21.1875 51.21875 25.484375 53.609375 
Q 29.78125 56 35.6875 56 
Q 41.65625 56 45.828125 52.96875 
Q 50 49.953125 52 44.1875 
" id="DejaVuSans-6d"/>
      <path d="M 48.6875 27.296875 
Q 48.6875 37.203125 44.609375 42.84375 
Q 40.53125 48.484375 33.40625 48.484375 
Q 26.265625 48.484375 22.1875 42.84375 
Q 18.109375 37.203125 18.109375 27.296875 
Q 18.109375 17.390625 22.1875 11.75 
Q 26.265625 6.109375 33.40625 6.109375 
Q 40.53125 6.109375 44.609375 11.75 
Q 48.6875 17.390625 48.6875 27.296875 
M 18.109375 46.390625 
Q 20.953125 51.265625 25.265625 53.625 
Q 29.59375 56 35.59375 56 
Q 45.5625 56 51.78125 48.09375 
Q 58.015625 40.1875 58.015625 27.296875 
Q 58.015625 14.40625 51.78125 6.484375 
Q 45.5625 -1.421875 35.59375 -1.421875 
Q 29.59375 -1.421875 25.265625 0.953125 
Q 20.953125 3.328125 18.109375 8.203125 
L 18.109375 0 
L 9.078125 0 
L 9.078125 75.984375 
L 18.109375 75.984375 
z
" id="DejaVuSans-62"/>
      <path d="M 56.203125 29.59375 
L 56.203125 25.203125 
L 14.890625 25.203125 
Q 15.484375 15.921875 20.484375 11.0625 
Q 25.484375 6.203125 34.421875 6.203125 
Q 39.59375 6.203125 44.453125 7.46875 
Q 49.3125 8.734375 54.109375 11.28125 
L 54.109375 2.78125 
Q 49.265625 0.734375 44.1875 -0.34375 
Q 39.109375 -1.421875 33.890625 -1.421875 
Q 20.796875 -1.421875 13.15625 6.1875 
Q 5.515625 13.8125 5.515625 26.8125 
Q 5.515625 40.234375 12.765625 48.109375 
Q 20.015625 56 32.328125 56 
Q 43.359375 56 49.78125 48.890625 
Q 56.203125 41.796875 56.203125 29.59375 
M 47.21875 32.234375 
Q 47.125 39.59375 43.09375 43.984375 
Q 39.0625 48.390625 32.421875 48.390625 
Q 24.90625 48.390625 20.390625 44.140625 
Q 15.875 39.890625 15.1875 32.171875 
z
" id="DejaVuSans-65"/>
      <path d="M 41.109375 46.296875 
Q 39.59375 47.171875 37.8125 47.578125 
Q 36.03125 48 33.890625 48 
Q 26.265625 48 22.1875 43.046875 
Q 18.109375 38.09375 18.109375 28.8125 
L 18.109375 0 
L 9.078125 0 
L 9.078125 54.6875 
L 18.109375 54.6875 
L 18.109375 46.1875 
Q 20.953125 51.171875 25.484375 53.578125 
Q 30.03125 56 36.53125 56 
Q 37.453125 56 38.578125 55.875 
Q 39.703125 55.765625 41.0625 55.515625 
z
" id="DejaVuSans-72"/>
      <path id="DejaVuSans-20"/>
      <path d="M 30.609375 48.390625 
Q 23.390625 48.390625 19.1875 42.75 
Q 14.984375 37.109375 14.984375 27.296875 
Q 14.984375 17.484375 19.15625 11.84375 
Q 23.34375 6.203125 30.609375 6.203125 
Q 37.796875 6.203125 41.984375 11.859375 
Q 46.1875 17.53125 46.1875 27.296875 
Q 46.1875 37.015625 41.984375 42.703125 
Q 37.796875 48.390625 30.609375 48.390625 
M 30.609375 56 
Q 42.328125 56 49.015625 48.375 
Q 55.71875 40.765625 55.71875 27.296875 
Q 55.71875 13.875 49.015625 6.21875 
Q 42.328125 -1.421875 30.609375 -1.421875 
Q 18.84375 -1.421875 12.171875 6.21875 
Q 5.515625 13.875 5.515625 27.296875 
Q 5.515625 40.765625 12.171875 48.375 
Q 18.84375 56 30.609375 56 
" id="DejaVuSans-6f"/>
      <path d="M 37.109375 75.984375 
L 37.109375 68.5 
L 28.515625 68.5 
Q 23.6875 68.5 21.796875 66.546875 
Q 19.921875 64.59375 19.921875 59.515625 
L 19.921875 54.6875 
L 34.71875 54.6875 
L 34.71875 47.703125 
L 19.921875 47.703125 
L 19.921875 0 
L 10.890625 0 
L 10.890625 47.703125 
L 2.296875 47.703125 
L 2.296875 54.6875 
L 10.890625 54.6875 
L 10.890625 58.5 
Q 10.890625 67.625 15.140625 71.796875 
Q 19.390625 75.984375 28.609375 75.984375 
z
" id="DejaVuSans-66"/>
      <path d="M 48.78125 52.59375 
L 48.78125 44.1875 
Q 44.96875 46.296875 41.140625 47.34375 
Q 37.3125 48.390625 33.40625 48.390625 
Q 24.65625 48.390625 19.8125 42.84375 
Q 14.984375 37.3125 14.984375 27.296875 
Q 14.984375 17.28125 19.8125 11.734375 
Q 24.65625 6.203125 33.40625 6.203125 
Q 37.3125 6.203125 41.140625 7.25 
Q 44.96875 8.296875 48.78125 10.40625 
L 48.78125 2.09375 
Q 45.015625 0.34375 40.984375 -0.53125 
Q 36.96875 -1.421875 32.421875 -1.421875 
Q 20.0625 -1.421875 12.78125 6.34375 
Q 5.515625 14.109375 5.515625 27.296875 
Q 5.515625 40.671875 12.859375 48.328125 
Q 20.21875 56 33.015625 56 
Q 37.15625 56 41.109375 55.140625 
Q 45.0625 54.296875 48.78125 52.59375 
" id="DejaVuSans-63"/>
      <path d="M 9.421875 75.984375 
L 18.40625 75.984375 
L 18.40625 0 
L 9.421875 0 
z
" id="DejaVuSans-6c"/>
      <path d="M 9.421875 54.6875 
L 18.40625 54.6875 
L 18.40625 0 
L 9.421875 0 
z
M 9.421875 75.984375 
L 18.40625 75.984375 
L 18.40625 64.59375 
L 9.421875 64.59375 
z
" id="DejaVuSans-69"/>
      <path d="M 54.890625 33.015625 
L 54.890625 0 
L 45.90625 0 
L 45.90625 32.71875 
Q 45.90625 40.484375 42.875 44.328125 
Q 39.84375 48.1875 33.796875 48.1875 
Q 26.515625 48.1875 22.3125 43.546875 
Q 18.109375 38.921875 18.109375 30.90625 
L 18.109375 0 
L 9.078125 0 
L 9.078125 54.6875 
L 18.109375 54.6875 
L 18.109375 46.1875 
Q 21.34375 51.125 25.703125 53.5625 
Q 30.078125 56 35.796875 56 
Q 45.21875 56 50.046875 50.171875 
Q 54.890625 44.34375 54.890625 33.015625 
" id="DejaVuSans-6e"/>
      <path d="M 18.3125 70.21875 
L 18.3125 54.6875 
L 36.8125 54.6875 
L 36.8125 47.703125 
L 18.3125 47.703125 
L 18.3125 18.015625 
Q 18.3125 11.328125 20.140625 9.421875 
Q 21.96875 7.515625 27.59375 7.515625 
L 36.8125 7.515625 
L 36.8125 0 
L 27.59375 0 
Q 17.1875 0 13.234375 3.875 
Q 9.28125 7.765625 9.28125 18.015625 
L 9.28125 47.703125 
L 2.6875 47.703125 
L 2.6875 54.6875 
L 9.28125 54.6875 
L 9.28125 70.21875 
z
" id="DejaVuSans-74"/>
      <path d="M 44.28125 53.078125 
L 44.28125 44.578125 
Q 40.484375 46.53125 36.375 47.5 
Q 32.28125 48.484375 27.875 48.484375 
Q 21.1875 48.484375 17.84375 46.4375 
Q 14.5 44.390625 14.5 40.28125 
Q 14.5 37.15625 16.890625 35.375 
Q 19.28125 33.59375 26.515625 31.984375 
L 29.59375 31.296875 
Q 39.15625 29.25 43.1875 25.515625 
Q 47.21875 21.78125 47.21875 15.09375 
Q 47.21875 7.46875 41.1875 3.015625 
Q 35.15625 -1.421875 24.609375 -1.421875 
Q 20.21875 -1.421875 15.453125 -0.5625 
Q 10.6875 0.296875 5.421875 2 
L 5.421875 11.28125 
Q 10.40625 8.6875 15.234375 7.390625 
Q 20.0625 6.109375 24.8125 6.109375 
Q 31.15625 6.109375 34.5625 8.28125 
Q 37.984375 10.453125 37.984375 14.40625 
Q 37.984375 18.0625 35.515625 20.015625 
Q 33.0625 21.96875 24.703125 23.78125 
L 21.578125 24.515625 
Q 13.234375 26.265625 9.515625 29.90625 
Q 5.8125 33.546875 5.8125 39.890625 
Q 5.8125 47.609375 11.28125 51.796875 
Q 16.75 56 26.8125 56 
Q 31.78125 56 36.171875 55.265625 
Q 40.578125 54.546875 44.28125 53.078125 
" id="DejaVuSans-73"/>
     </defs>
     <g transform="translate(191.738906 335.860562)scale(0.1 -0.1)">
      <use xlink:href="#DejaVuSans-4e"/>
      <use x="74.804688" xlink:href="#DejaVuSans-75"/>
      <use x="138.183594" xlink:href="#DejaVuSans-6d"/>
      <use x="235.595703" xlink:href="#DejaVuSans-62"/>
      <use x="299.072266" xlink:href="#DejaVuSans-65"/>
      <use x="360.595703" xlink:href="#DejaVuSans-72"/>
      <use x="401.708984" xlink:href="#DejaVuSans-20"/>
      <use x="433.496094" xlink:href="#DejaVuSans-6f"/>
      <use x="494.677734" xlink:href="#DejaVuSans-66"/>
      <use x="529.882812" xlink:href="#DejaVuSans-20"/>
      <use x="561.669922" xlink:href="#DejaVuSans-63"/>
      <use x="616.650391" xlink:href="#DejaVuSans-6c"/>
      <use x="644.433594" xlink:href="#DejaVuSans-69"/>
      <use x="672.216797" xlink:href="#DejaVuSans-65"/>
      <use x="733.740234" xlink:href="#DejaVuSans-6e"/>
      <use x="797.119141" xlink:href="#DejaVuSans-74"/>
      <use x="836.328125" xlink:href="#DejaVuSans-73"/>
     </g>
    </g>
   </g>
   <g id="matplotlib.axis_2">
    <g id="ytick_1">
     <g id="line2d_13">
      <path clip-path="url(#p1d42b930b2)" d="M 57.6 295.801662 
L 414.72 295.801662 
" style="fill:none;stroke:#b0b0b0;stroke-linecap:square;stroke-width:0.8;"/>
     </g>
     <g id="line2d_14">
      <defs>
       <path d="M 0 0 
L -3.5 0 
" id="mc61fb51287" style="stroke:#000000;stroke-width:0.8;"/>
      </defs>
      <g>
       <use style="stroke:#000000;stroke-width:0.8;" x="57.6" xlink:href="#mc61fb51287" y="295.801662"/>
      </g>
     </g>
     <g id="text_8">
      <!-- 0 -->
      <g transform="translate(44.2375 299.60088)scale(0.1 -0.1)">
       <use xlink:href="#DejaVuSans-30"/>
      </g>
     </g>
    </g>
    <g id="ytick_2">
     <g id="line2d_15">
      <path clip-path="url(#p1d42b930b2)" d="M 57.6 263.365098 
L 414.72 263.365098 
" style="fill:none;stroke:#b0b0b0;stroke-linecap:square;stroke-width:0.8;"/>
     </g>
     <g id="line2d_16">
      <g>
       <use style="stroke:#000000;stroke-width:0.8;" x="57.6" xlink:href="#mc61fb51287" y="263.365098"/>
      </g>
     </g>
     <g id="text_9">
      <!-- 100 -->
      <g transform="translate(31.5125 267.164317)scale(0.1 -0.1)">
       <use xlink:href="#DejaVuSans-31"/>
       <use x="63.623047" xlink:href="#DejaVuSans-30"/>
       <use x="127.246094" xlink:href="#DejaVuSans-30"/>
      </g>
     </g>
    </g>
    <g id="ytick_3">
     <g id="line2d_17">
      <path clip-path="url(#p1d42b930b2)" d="M 57.6 230.928534 
L 414.72 230.928534 
" style="fill:none;stroke:#b0b0b0;stroke-linecap:square;stroke-width:0.8;"/>
     </g>
     <g id="line2d_18">
      <g>
       <use style="stroke:#000000;stroke-width:0.8;" x="57.6" xlink:href="#mc61fb51287" y="230.928534"/>
      </g>
     </g>
     <g id="text_10">
      <!-- 200 -->
      <g transform="translate(31.5125 234.727753)scale(0.1 -0.1)">
       <use xlink:href="#DejaVuSans-32"/>
       <use x="63.623047" xlink:href="#DejaVuSans-30"/>
       <use x="127.246094" xlink:href="#DejaVuSans-30"/>
      </g>
     </g>
    </g>
    <g id="ytick_4">
     <g id="line2d_19">
      <path clip-path="url(#p1d42b930b2)" d="M 57.6 198.491971 
L 414.72 198.491971 
" style="fill:none;stroke:#b0b0b0;stroke-linecap:square;stroke-width:0.8;"/>
     </g>
     <g id="line2d_20">
      <g>
       <use style="stroke:#000000;stroke-width:0.8;" x="57.6" xlink:href="#mc61fb51287" y="198.491971"/>
      </g>
     </g>
     <g id="text_11">
      <!-- 300 -->
      <defs>
       <path d="M 40.578125 39.3125 
Q 47.65625 37.796875 51.625 33 
Q 55.609375 28.21875 55.609375 21.1875 
Q 55.609375 10.40625 48.1875 4.484375 
Q 40.765625 -1.421875 27.09375 -1.421875 
Q 22.515625 -1.421875 17.65625 -0.515625 
Q 12.796875 0.390625 7.625 2.203125 
L 7.625 11.71875 
Q 11.71875 9.328125 16.59375 8.109375 
Q 21.484375 6.890625 26.8125 6.890625 
Q 36.078125 6.890625 40.9375 10.546875 
Q 45.796875 14.203125 45.796875 21.1875 
Q 45.796875 27.640625 41.28125 31.265625 
Q 36.765625 34.90625 28.71875 34.90625 
L 20.21875 34.90625 
L 20.21875 43.015625 
L 29.109375 43.015625 
Q 36.375 43.015625 40.234375 45.921875 
Q 44.09375 48.828125 44.09375 54.296875 
Q 44.09375 59.90625 40.109375 62.90625 
Q 36.140625 65.921875 28.71875 65.921875 
Q 24.65625 65.921875 20.015625 65.03125 
Q 15.375 64.15625 9.8125 62.3125 
L 9.8125 71.09375 
Q 15.4375 72.65625 20.34375 73.4375 
Q 25.25 74.21875 29.59375 74.21875 
Q 40.828125 74.21875 47.359375 69.109375 
Q 53.90625 64.015625 53.90625 55.328125 
Q 53.90625 49.265625 50.4375 45.09375 
Q 46.96875 40.921875 40.578125 39.3125 
" id="DejaVuSans-33"/>
      </defs>
      <g transform="translate(31.5125 202.29119)scale(0.1 -0.1)">
       <use xlink:href="#DejaVuSans-33"/>
       <use x="63.623047" xlink:href="#DejaVuSans-30"/>
       <use x="127.246094" xlink:href="#DejaVuSans-30"/>
      </g>
     </g>
    </g>
    <g id="ytick_5">
     <g id="line2d_21">
      <path clip-path="url(#p1d42b930b2)" d="M 57.6 166.055407 
L 414.72 166.055407 
" style="fill:none;stroke:#b0b0b0;stroke-linecap:square;stroke-width:0.8;"/>
     </g>
     <g id="line2d_22">
      <g>
       <use style="stroke:#000000;stroke-width:0.8;" x="57.6" xlink:href="#mc61fb51287" y="166.055407"/>
      </g>
     </g>
     <g id="text_12">
      <!-- 400 -->
      <g transform="translate(31.5125 169.854626)scale(0.1 -0.1)">
       <use xlink:href="#DejaVuSans-34"/>
       <use x="63.623047" xlink:href="#DejaVuSans-30"/>
       <use x="127.246094" xlink:href="#DejaVuSans-30"/>
      </g>
     </g>
    </g>
    <g id="ytick_6">
     <g id="line2d_23">
      <path clip-path="url(#p1d42b930b2)" d="M 57.6 133.618844 
L 414.72 133.618844 
" style="fill:none;stroke:#b0b0b0;stroke-linecap:square;stroke-width:0.8;"/>
     </g>
     <g id="line2d_24">
      <g>
       <use style="stroke:#000000;stroke-width:0.8;" x="57.6" xlink:href="#mc61fb51287" y="133.618844"/>
      </g>
     </g>
     <g id="text_13">
      <!-- 500 -->
      <defs>
       <path d="M 10.796875 72.90625 
L 49.515625 72.90625 
L 49.515625 64.59375 
L 19.828125 64.59375 
L 19.828125 46.734375 
Q 21.96875 47.46875 24.109375 47.828125 
Q 26.265625 48.1875 28.421875 48.1875 
Q 40.625 48.1875 47.75 41.5 
Q 54.890625 34.8125 54.890625 23.390625 
Q 54.890625 11.625 47.5625 5.09375 
Q 40.234375 -1.421875 26.90625 -1.421875 
Q 22.3125 -1.421875 17.546875 -0.640625 
Q 12.796875 0.140625 7.71875 1.703125 
L 7.71875 11.625 
Q 12.109375 9.234375 16.796875 8.0625 
Q 21.484375 6.890625 26.703125 6.890625 
Q 35.15625 6.890625 40.078125 11.328125 
Q 45.015625 15.765625 45.015625 23.390625 
Q 45.015625 31 40.078125 35.4375 
Q 35.15625 39.890625 26.703125 39.890625 
Q 22.75 39.890625 18.8125 39.015625 
Q 14.890625 38.140625 10.796875 36.28125 
z
" id="DejaVuSans-35"/>
      </defs>
      <g transform="translate(31.5125 137.418063)scale(0.1 -0.1)">
       <use xlink:href="#DejaVuSans-35"/>
       <use x="63.623047" xlink:href="#DejaVuSans-30"/>
       <use x="127.246094" xlink:href="#DejaVuSans-30"/>
      </g>
     </g>
    </g>
    <g id="ytick_7">
     <g id="line2d_25">
      <path clip-path="url(#p1d42b930b2)" d="M 57.6 101.18228 
L 414.72 101.18228 
" style="fill:none;stroke:#b0b0b0;stroke-linecap:square;stroke-width:0.8;"/>
     </g>
     <g id="line2d_26">
      <g>
       <use style="stroke:#000000;stroke-width:0.8;" x="57.6" xlink:href="#mc61fb51287" y="101.18228"/>
      </g>
     </g>
     <g id="text_14">
      <!-- 600 -->
      <g transform="translate(31.5125 104.981499)scale(0.1 -0.1)">
       <use xlink:href="#DejaVuSans-36"/>
       <use x="63.623047" xlink:href="#DejaVuSans-30"/>
       <use x="127.246094" xlink:href="#DejaVuSans-30"/>
      </g>
     </g>
    </g>
    <g id="ytick_8">
     <g id="line2d_27">
      <path clip-path="url(#p1d42b930b2)" d="M 57.6 68.745717 
L 414.72 68.745717 
" style="fill:none;stroke:#b0b0b0;stroke-linecap:square;stroke-width:0.8;"/>
     </g>
     <g id="line2d_28">
      <g>
       <use style="stroke:#000000;stroke-width:0.8;" x="57.6" xlink:href="#mc61fb51287" y="68.745717"/>
      </g>
     </g>
     <g id="text_15">
      <!-- 700 -->
      <defs>
       <path d="M 8.203125 72.90625 
L 55.078125 72.90625 
L 55.078125 68.703125 
L 28.609375 0 
L 18.3125 0 
L 43.21875 64.59375 
L 8.203125 64.59375 
z
" id="DejaVuSans-37"/>
      </defs>
      <g transform="translate(31.5125 72.544936)scale(0.1 -0.1)">
       <use xlink:href="#DejaVuSans-37"/>
       <use x="63.623047" xlink:href="#DejaVuSans-30"/>
       <use x="127.246094" xlink:href="#DejaVuSans-30"/>
      </g>
     </g>
    </g>
    <g id="text_16">
     <!-- Successful download requests per second -->
     <defs>
      <path d="M 53.515625 70.515625 
L 53.515625 60.890625 
Q 47.90625 63.578125 42.921875 64.890625 
Q 37.9375 66.21875 33.296875 66.21875 
Q 25.25 66.21875 20.875 63.09375 
Q 16.5 59.96875 16.5 54.203125 
Q 16.5 49.359375 19.40625 46.890625 
Q 22.3125 44.4375 30.421875 42.921875 
L 36.375 41.703125 
Q 47.40625 39.59375 52.65625 34.296875 
Q 57.90625 29 57.90625 20.125 
Q 57.90625 9.515625 50.796875 4.046875 
Q 43.703125 -1.421875 29.984375 -1.421875 
Q 24.8125 -1.421875 18.96875 -0.25 
Q 13.140625 0.921875 6.890625 3.21875 
L 6.890625 13.375 
Q 12.890625 10.015625 18.65625 8.296875 
Q 24.421875 6.59375 29.984375 6.59375 
Q 38.421875 6.59375 43.015625 9.90625 
Q 47.609375 13.234375 47.609375 19.390625 
Q 47.609375 24.75 44.3125 27.78125 
Q 41.015625 30.8125 33.5 32.328125 
L 27.484375 33.5 
Q 16.453125 35.6875 11.515625 40.375 
Q 6.59375 45.0625 6.59375 53.421875 
Q 6.59375 63.09375 13.40625 68.65625 
Q 20.21875 74.21875 32.171875 74.21875 
Q 37.3125 74.21875 42.625 73.28125 
Q 47.953125 72.359375 53.515625 70.515625 
" id="DejaVuSans-53"/>
      <path d="M 45.40625 46.390625 
L 45.40625 75.984375 
L 54.390625 75.984375 
L 54.390625 0 
L 45.40625 0 
L 45.40625 8.203125 
Q 42.578125 3.328125 38.25 0.953125 
Q 33.9375 -1.421875 27.875 -1.421875 
Q 17.96875 -1.421875 11.734375 6.484375 
Q 5.515625 14.40625 5.515625 27.296875 
Q 5.515625 40.1875 11.734375 48.09375 
Q 17.96875 56 27.875 56 
Q 33.9375 56 38.25 53.625 
Q 42.578125 51.265625 45.40625 46.390625 
M 14.796875 27.296875 
Q 14.796875 17.390625 18.875 11.75 
Q 22.953125 6.109375 30.078125 6.109375 
Q 37.203125 6.109375 41.296875 11.75 
Q 45.40625 17.390625 45.40625 27.296875 
Q 45.40625 37.203125 41.296875 42.84375 
Q 37.203125 48.484375 30.078125 48.484375 
Q 22.953125 48.484375 18.875 42.84375 
Q 14.796875 37.203125 14.796875 27.296875 
" id="DejaVuSans-64"/>
      <path d="M 4.203125 54.6875 
L 13.1875 54.6875 
L 24.421875 12.015625 
L 35.59375 54.6875 
L 46.1875 54.6875 
L 57.421875 12.015625 
L 68.609375 54.6875 
L 77.59375 54.6875 
L 63.28125 0 
L 52.6875 0 
L 40.921875 44.828125 
L 29.109375 0 
L 18.5 0 
z
" id="DejaVuSans-77"/>
      <path d="M 34.28125 27.484375 
Q 23.390625 27.484375 19.1875 25 
Q 14.984375 22.515625 14.984375 16.5 
Q 14.984375 11.71875 18.140625 8.90625 
Q 21.296875 6.109375 26.703125 6.109375 
Q 34.1875 6.109375 38.703125 11.40625 
Q 43.21875 16.703125 43.21875 25.484375 
L 43.21875 27.484375 
z
M 52.203125 31.203125 
L 52.203125 0 
L 43.21875 0 
L 43.21875 8.296875 
Q 40.140625 3.328125 35.546875 0.953125 
Q 30.953125 -1.421875 24.3125 -1.421875 
Q 15.921875 -1.421875 10.953125 3.296875 
Q 6 8.015625 6 15.921875 
Q 6 25.140625 12.171875 29.828125 
Q 18.359375 34.515625 30.609375 34.515625 
L 43.21875 34.515625 
L 43.21875 35.40625 
Q 43.21875 41.609375 39.140625 45 
Q 35.0625 48.390625 27.6875 48.390625 
Q 23 48.390625 18.546875 47.265625 
Q 14.109375 46.140625 10.015625 43.890625 
L 10.015625 52.203125 
Q 14.9375 54.109375 19.578125 55.046875 
Q 24.21875 56 28.609375 56 
Q 40.484375 56 46.34375 49.84375 
Q 52.203125 43.703125 52.203125 31.203125 
" id="DejaVuSans-61"/>
      <path d="M 14.796875 27.296875 
Q 14.796875 17.390625 18.875 11.75 
Q 22.953125 6.109375 30.078125 6.109375 
Q 37.203125 6.109375 41.296875 11.75 
Q 45.40625 17.390625 45.40625 27.296875 
Q 45.40625 37.203125 41.296875 42.84375 
Q 37.203125 48.484375 30.078125 48.484375 
Q 22.953125 48.484375 18.875 42.84375 
Q 14.796875 37.203125 14.796875 27.296875 
M 45.40625 8.203125 
Q 42.578125 3.328125 38.25 0.953125 
Q 33.9375 -1.421875 27.875 -1.421875 
Q 17.96875 -1.421875 11.734375 6.484375 
Q 5.515625 14.40625 5.515625 27.296875 
Q 5.515625 40.1875 11.734375 48.09375 
Q 17.96875 56 27.875 56 
Q 33.9375 56 38.25 53.625 
Q 42.578125 51.265625 45.40625 46.390625 
L 45.40625 54.6875 
L 54.390625 54.6875 
L 54.390625 -20.796875 
L 45.40625 -20.796875 
z
" id="DejaVuSans-71"/>
      <path d="M 18.109375 8.203125 
L 18.109375 -20.796875 
L 9.078125 -20.796875 
L 9.078125 54.6875 
L 18.109375 54.6875 
L 18.109375 46.390625 
Q 20.953125 51.265625 25.265625 53.625 
Q 29.59375 56 35.59375 56 
Q 45.5625 56 51.78125 48.09375 
Q 58.015625 40.1875 58.015625 27.296875 
Q 58.015625 14.40625 51.78125 6.484375 
Q 45.5625 -1.421875 35.59375 -1.421875 
Q 29.59375 -1.421875 25.265625 0.953125 
Q 20.953125 3.328125 18.109375 8.203125 
M 48.6875 27.296875 
Q 48.6875 37.203125 44.609375 42.84375 
Q 40.53125 48.484375 33.40625 48.484375 
Q 26.265625 48.484375 22.1875 42.84375 
Q 18.109375 37.203125 18.109375 27.296875 
Q 18.109375 17.390625 22.1875 11.75 
Q 26.265625 6.109375 33.40625 6.109375 
Q 40.53125 6.109375 44.609375 11.75 
Q 48.6875 17.390625 48.6875 27.296875 
" id="DejaVuSans-70"/>
     </defs>
     <g transform="translate(25.432812 279.366281)rotate(-90)scale(0.1 -0.1)">
      <use xlink:href="#DejaVuSans-53"/>
      <use x="63.476562" xlink:href="#DejaVuSans-75"/>
      <use x="126.855469" xlink:href="#DejaVuSans-63"/>
      <use x="181.835938" xlink:href="#DejaVuSans-63"/>
      <use x="236.816406" xlink:href="#DejaVuSans-65"/>
      <use x="298.339844" xlink:href="#DejaVuSans-73"/>
      <use x="350.439453" xlink:href="#DejaVuSans-73"/>
      <use x="402.539062" xlink:href="#DejaVuSans-66"/>
      <use x="437.744141" xlink:href="#DejaVuSans-75"/>
      <use x="501.123047" xlink:href="#DejaVuSans-6c"/>
      <use x="528.90625" xlink:href="#DejaVuSans-20"/>
      <use x="560.693359" xlink:href="#DejaVuSans-64"/>
      <use x="624.169922" xlink:href="#DejaVuSans-6f"/>
      <use x="685.351562" xlink:href="#DejaVuSans-77"/>
      <use x="767.138672" xlink:href="#DejaVuSans-6e"/>
      <use x="830.517578" xlink:href="#DejaVuSans-6c"/>
      <use x="858.300781" xlink:href="#DejaVuSans-6f"/>
      <use x="919.482422" xlink:href="#DejaVuSans-61"/>
      <use x="980.761719" xlink:href="#DejaVuSans-64"/>
      <use x="1044.238281" xlink:href="#DejaVuSans-20"/>
      <use x="1076.025391" xlink:href="#DejaVuSans-72"/>
      <use x="1117.107422" xlink:href="#DejaVuSans-65"/>
      <use x="1178.630859" xlink:href="#DejaVuSans-71"/>
      <use x="1242.107422" xlink:href="#DejaVuSans-75"/>
      <use x="1305.486328" xlink:href="#DejaVuSans-65"/>
      <use x="1367.009766" xlink:href="#DejaVuSans-73"/>
      <use x="1419.109375" xlink:href="#DejaVuSans-74"/>
      <use x="1458.318359" xlink:href="#DejaVuSans-73"/>
      <use x="1510.417969" xlink:href="#DejaVuSans-20"/>
      <use x="1542.205078" xlink:href="#DejaVuSans-70"/>
      <use x="1605.681641" xlink:href="#DejaVuSans-65"/>
      <use x="1667.205078" xlink:href="#DejaVuSans-72"/>
      <use x="1708.318359" xlink:href="#DejaVuSans-20"/>
      <use x="1740.105469" xlink:href="#DejaVuSans-73"/>
      <use x="1792.205078" xlink:href="#DejaVuSans-65"/>
      <use x="1853.728516" xlink:href="#DejaVuSans-63"/>
      <use x="1908.708984" xlink:href="#DejaVuSans-6f"/>
      <use x="1969.890625" xlink:href="#DejaVuSans-6e"/>
      <use x="2033.269531" xlink:href="#DejaVuSans-64"/>
     </g>
    </g>
   </g>
   <g id="line2d_29">
    <path clip-path="url(#p1d42b930b2)" d="M 57.6 295.488 
L 57.95712 295.484108 
L 60.09984 293.663443 
L 61.1712 292.61931 
L 61.52832 292.362413 
L 62.24256 291.704924 
L 62.59968 291.463271 
L 62.9568 291.049056 
L 63.31392 290.931636 
L 63.67104 290.621867 
L 64.02816 289.988056 
L 64.38528 289.907614 
L 64.7424 289.394792 
L 65.09952 289.380519 
L 65.45664 288.889754 
L 65.81376 288.785309 
L 66.17088 288.062622 
L 66.528 288.059378 
L 66.88512 287.876436 
L 67.59936 286.840737 
L 67.95648 286.804083 
L 68.67072 286.326293 
L 69.02784 285.658099 
L 70.0992 285.155981 
L 70.45632 284.575691 
L 70.81344 284.631158 
L 71.17056 283.757966 
L 71.52768 283.182541 
L 71.8848 283.215626 
L 72.24192 283.409272 
L 72.59904 282.780003 
L 72.95616 282.636958 
L 73.6704 281.279812 
L 75.09888 280.901277 
L 75.456 279.767295 
L 76.52736 279.17695 
L 76.88448 278.702727 
L 77.2416 279.114347 
L 77.59872 278.682292 
L 77.95584 277.315415 
L 78.31296 277.770825 
L 78.67008 277.657945 
L 79.0272 276.699445 
L 79.38432 276.144131 
L 79.74144 276.340048 
L 80.09856 275.65142 
L 80.45568 275.675747 
L 80.8128 275.228447 
L 81.16992 275.265749 
L 81.52704 274.540792 
L 81.88416 274.828828 
L 82.24128 274.822665 
L 82.5984 273.169049 
L 82.95552 274.240429 
L 83.31264 273.456113 
L 83.66976 273.473953 
L 84.384 271.816445 
L 84.74112 271.305244 
L 85.09824 271.385038 
L 85.45536 270.738578 
L 85.81248 270.377559 
L 86.1696 271.349034 
L 86.88384 269.291258 
L 87.24096 270.087251 
L 87.59808 270.239055 
L 87.9552 269.448251 
L 88.31232 268.380764 
L 88.66944 269.096963 
L 89.02656 268.582195 
L 89.38368 267.527358 
L 89.7408 268.223122 
L 90.09792 267.131632 
L 90.45504 267.144282 
L 90.81216 267.669106 
L 91.16928 266.92047 
L 91.5264 265.491639 
L 91.88352 265.81341 
L 92.24064 264.73457 
L 92.59776 265.377787 
L 92.95488 263.783854 
L 93.312 264.164335 
L 93.66912 264.790361 
L 94.02624 264.606121 
L 94.38336 263.898031 
L 95.0976 261.948269 
L 95.45472 262.408219 
L 95.81184 263.235027 
L 96.16896 262.697554 
L 96.52608 261.908372 
L 96.8832 261.537622 
L 97.24032 261.8941 
L 97.59744 260.685838 
L 98.31168 259.354641 
L 98.6688 260.473703 
L 99.02592 260.31671 
L 99.38304 258.746131 
L 100.09728 258.812626 
L 100.4544 258.613466 
L 101.16864 257.85218 
L 101.52576 256.01627 
L 101.88288 255.825219 
L 102.24 255.287096 
L 102.59712 256.771069 
L 102.95424 255.088909 
L 103.31136 255.628329 
L 103.66848 256.840808 
L 104.0256 255.071717 
L 104.38272 255.139186 
L 104.73984 254.537812 
L 105.09696 253.198506 
L 105.45408 253.456377 
L 105.8112 253.100548 
L 106.16832 254.473263 
L 106.52544 251.960727 
L 106.88256 253.408046 
L 107.23968 252.933499 
L 107.95392 250.613636 
L 108.31104 252.092095 
L 108.66816 249.521173 
L 109.02528 252.140425 
L 109.3824 251.359677 
L 109.73952 249.975933 
L 110.09664 250.092381 
L 110.45376 249.230541 
L 110.81088 249.998315 
L 111.168 247.596387 
L 111.52512 248.382325 
L 111.88224 247.212338 
L 112.23936 246.962252 
L 112.59648 247.05567 
L 112.9536 247.267156 
L 113.31072 245.576238 
L 113.66784 247.450098 
L 114.7392 245.35275 
L 115.09632 244.152597 
L 115.45344 246.914246 
L 116.16768 243.93884 
L 116.5248 244.993677 
L 116.88192 245.009895 
L 117.23904 244.025121 
L 117.59616 241.998809 
L 117.95328 242.31539 
L 118.3104 243.461698 
L 118.66752 242.459084 
L 119.02464 243.353685 
L 119.38176 240.907968 
L 119.73888 241.408464 
L 120.096 240.678641 
L 120.45312 241.590433 
L 120.81024 239.325388 
L 121.16736 238.986101 
L 121.52448 240.715294 
L 121.8816 239.904705 
L 122.23872 237.884556 
L 122.59584 237.477801 
L 122.95296 239.08114 
L 123.31008 236.502758 
L 123.6672 239.809666 
L 124.02432 236.25105 
L 124.38144 235.145288 
L 124.73856 234.970455 
L 125.09568 238.453169 
L 125.4528 235.962365 
L 125.80992 235.326608 
L 126.16704 237.277019 
L 127.2384 232.957766 
L 127.59552 234.967535 
L 128.30976 232.2247 
L 128.66688 233.986654 
L 129.024 231.945745 
L 129.38112 231.188351 
L 129.73824 233.898426 
L 130.09536 232.744009 
L 130.45248 233.142006 
L 130.8096 229.632694 
L 131.16672 231.405352 
L 131.52384 230.702452 
L 131.88096 232.588962 
L 132.23808 231.928878 
L 132.5952 229.954464 
L 132.95232 230.94897 
L 133.30944 227.334563 
L 133.66656 226.721512 
L 134.02368 230.580815 
L 134.3808 226.687778 
L 134.73792 226.145763 
L 135.09504 230.006363 
L 135.45216 228.45103 
L 135.80928 225.645591 
L 136.1664 229.371579 
L 136.52352 225.95828 
L 136.88064 226.494132 
L 137.23776 225.397127 
L 137.59488 225.223916 
L 137.952 226.60993 
L 138.30912 227.128591 
L 138.66624 224.433437 
L 139.02336 223.710102 
L 139.38048 225.759444 
L 139.7376 223.087968 
L 140.09472 223.983542 
L 140.45184 220.970185 
L 141.5232 224.281958 
L 141.88032 220.3873 
L 142.23744 220.794379 
L 142.59456 223.466179 
L 143.3088 221.88295 
L 143.66592 219.096 
L 144.02304 219.118382 
L 144.38016 217.880278 
L 144.73728 220.590029 
L 145.0944 217.422274 
L 145.45152 216.471234 
L 145.80864 218.2014 
L 146.16576 215.88251 
L 146.52288 216.646067 
L 146.88 216.106647 
L 147.23712 219.663316 
L 147.59424 219.045075 
L 147.95136 214.650569 
L 148.30848 218.787853 
L 148.6656 213.789054 
L 149.02272 217.507258 
L 149.37984 215.666483 
L 149.73696 215.595122 
L 150.09408 212.802334 
L 150.4512 216.8209 
L 150.80832 213.086154 
L 151.16544 212.602525 
L 151.52256 215.927597 
L 151.87968 212.525001 
L 152.2368 212.143223 
L 152.59392 213.373866 
L 152.95104 209.620307 
L 153.30816 211.798747 
L 153.66528 209.317025 
L 154.0224 209.467531 
L 154.37952 208.439941 
L 154.73664 212.08873 
L 155.09376 208.291057 
L 155.45088 211.641105 
L 155.808 207.131774 
L 156.16512 209.159384 
L 156.52224 209.128569 
L 156.87936 210.362131 
L 157.23648 211.182452 
L 157.5936 206.091858 
L 157.95072 208.413018 
L 158.30784 206.846981 
L 158.66496 208.748412 
L 159.02208 208.782471 
L 159.3792 208.469782 
L 159.73632 205.864477 
L 160.09344 207.426622 
L 160.45056 208.151904 
L 160.80768 204.717521 
L 161.1648 204.435322 
L 161.52192 207.912846 
L 161.87904 202.671422 
L 162.23616 205.499242 
L 162.59328 202.280562 
L 162.9504 202.612063 
L 163.30752 206.476555 
L 163.66464 204.475544 
L 164.02176 199.57373 
L 164.37888 205.598498 
L 164.736 202.313323 
L 165.09312 202.439176 
L 165.45024 201.354173 
L 165.80736 202.493021 
L 166.16448 202.19201 
L 166.5216 202.11254 
L 166.87872 198.15755 
L 167.23584 202.027881 
L 167.59296 200.953257 
L 167.95008 198.800118 
L 168.3072 200.865354 
L 168.66432 198.355737 
L 169.02144 197.603209 
L 169.37856 200.827728 
L 169.73568 200.48163 
L 170.0928 193.79094 
L 170.44992 195.648257 
L 170.80704 199.13162 
L 171.16416 197.808857 
L 171.52128 193.480522 
L 171.8784 197.875352 
L 172.23552 198.947056 
L 172.59264 193.227517 
L 172.94976 195.717996 
L 173.30688 191.641369 
L 173.664 191.150279 
L 174.02112 191.146711 
L 174.37824 191.545681 
L 174.73536 191.517461 
L 175.09248 191.274187 
L 175.4496 191.84799 
L 175.80672 190.40586 
L 176.16384 195.545109 
L 176.52096 194.615477 
L 176.87808 187.926085 
L 177.2352 188.675694 
L 177.59232 186.830053 
L 177.94944 188.839498 
L 178.30656 193.180484 
L 178.66368 187.019483 
L 179.0208 186.659761 
L 179.37792 190.10939 
L 179.73504 189.714312 
L 180.09216 188.407119 
L 180.44928 184.407366 
L 180.8064 191.407825 
L 181.16352 185.503722 
L 181.52064 184.405096 
L 181.87776 189.915419 
L 182.23488 186.885195 
L 182.592 188.790195 
L 182.94912 182.172487 
L 183.30624 184.094678 
L 183.66336 188.353923 
L 184.02048 186.924119 
L 184.3776 184.093705 
L 184.73472 187.675026 
L 185.09184 180.197749 
L 185.44896 183.027839 
L 185.80608 181.106946 
L 186.1632 182.356727 
L 186.52032 178.853254 
L 186.87744 185.400574 
L 187.23456 178.757566 
L 187.59168 184.807309 
L 188.30592 179.227896 
L 188.66304 180.067679 
L 189.02016 182.066744 
L 189.37728 178.716371 
L 189.7344 183.834537 
L 190.09152 183.472869 
L 190.44864 180.957413 
L 190.80576 176.837321 
L 191.16288 179.719959 
L 191.52 176.301793 
L 191.87712 177.280729 
L 192.23424 175.313451 
L 192.59136 178.693017 
L 192.94848 177.376417 
L 193.3056 178.314807 
L 193.66272 179.666763 
L 194.01984 180.289869 
L 194.37696 179.405 
L 194.73408 179.641462 
L 195.0912 174.024098 
L 195.80544 176.932685 
L 196.16256 173.268975 
L 196.51968 175.293989 
L 196.8768 176.675463 
L 197.23392 176.680653 
L 197.59104 177.105896 
L 197.94816 169.637701 
L 198.30528 173.601774 
L 198.6624 172.78048 
L 199.01952 168.629573 
L 199.37664 174.077618 
L 199.73376 174.05102 
L 200.448 166.55493 
L 200.80512 172.677981 
L 201.16224 171.22093 
L 201.51936 165.713526 
L 201.87648 164.996354 
L 202.2336 169.767123 
L 202.59072 167.427798 
L 203.30496 172.45579 
L 203.66208 171.141136 
L 204.0192 164.645714 
L 204.37632 163.112762 
L 205.09056 169.012325 
L 205.44768 162.680059 
L 205.8048 161.491583 
L 206.16192 168.705475 
L 206.51904 161.790972 
L 206.87616 169.328257 
L 207.23328 166.732683 
L 207.5904 159.758822 
L 207.94752 168.563727 
L 208.30464 167.887749 
L 208.66176 159.7572 
L 209.01888 159.165881 
L 209.376 164.160788 
L 209.73312 165.331099 
L 210.09024 165.945772 
L 211.1616 164.301238 
L 211.51872 156.870994 
L 211.87584 161.306046 
L 212.23296 162.046573 
L 212.59008 164.339189 
L 212.9472 156.114898 
L 213.30432 157.694559 
L 213.66144 155.830105 
L 214.01856 163.217208 
L 214.37568 159.615128 
L 214.7328 158.355616 
L 215.08992 158.273551 
L 215.44704 161.624897 
L 215.80416 159.14869 
L 216.16128 160.614498 
L 216.5184 159.137986 
L 216.87552 159.681623 
L 217.23264 154.99162 
L 217.94688 150.579599 
L 218.66112 156.547926 
L 219.01824 157.285858 
L 219.37536 148.997667 
L 219.73248 157.652391 
L 220.0896 152.585476 
L 220.44672 153.709727 
L 220.80384 148.272061 
L 221.16096 148.614916 
L 221.51808 155.130124 
L 221.8752 152.630563 
L 222.23232 147.399518 
L 222.58944 148.325906 
L 222.94656 154.125239 
L 223.30368 150.848173 
L 223.6608 153.027586 
L 224.01792 152.202076 
L 224.37504 145.287898 
L 224.73216 152.202076 
L 225.08928 144.707283 
L 225.4464 153.167712 
L 225.80352 147.0252 
L 226.16064 152.078492 
L 226.51776 145.16918 
L 226.87488 143.559029 
L 227.232 146.300891 
L 227.58912 150.255233 
L 227.94624 151.400892 
L 228.30336 149.035943 
L 228.66048 145.75985 
L 229.0176 150.132947 
L 229.37472 149.807608 
L 229.73184 142.784444 
L 230.08896 149.869562 
L 230.44608 141.226515 
L 230.8032 146.567196 
L 231.16032 138.888164 
L 231.51744 140.655308 
L 231.87456 146.419934 
L 232.23168 144.981048 
L 232.5888 147.287287 
L 232.94592 146.460155 
L 233.30304 144.692687 
L 233.66016 138.150556 
L 234.01728 146.108543 
L 234.3744 136.746702 
L 234.73152 142.991065 
L 235.08864 144.815946 
L 235.44576 144.037144 
L 235.80288 137.557616 
L 236.16 141.270629 
L 236.51712 134.62535 
L 237.23136 141.416918 
L 237.58848 140.732507 
L 237.9456 139.58782 
L 238.30272 133.062881 
L 238.65984 140.592056 
L 239.01696 131.058626 
L 239.37408 132.190338 
L 239.7312 134.590319 
L 240.08832 134.355478 
L 240.44544 129.923995 
L 240.80256 136.146301 
L 241.5168 133.185167 
L 241.87392 133.970781 
L 242.23104 129.748189 
L 242.58816 138.71852 
L 242.94528 137.484309 
L 243.3024 128.300545 
L 243.65952 128.250268 
L 244.37376 134.375913 
L 244.73088 127.380644 
L 245.088 136.738593 
L 245.80224 127.050764 
L 246.15936 129.991463 
L 246.51648 127.743609 
L 246.8736 132.010639 
L 247.23072 125.130844 
L 247.58784 127.297931 
L 247.94496 130.490662 
L 248.30208 125.100354 
L 248.6592 125.436396 
L 249.01632 126.018633 
L 249.37344 128.506193 
L 249.73056 126.36246 
L 250.08768 122.694209 
L 250.4448 124.113958 
L 250.80192 123.710122 
L 251.15904 131.009647 
L 251.51616 124.356259 
L 251.87328 131.673948 
L 252.2304 120.049332 
L 252.58752 119.962402 
L 252.94464 126.334889 
L 253.30176 129.01123 
L 253.65888 118.248454 
L 254.016 124.50644 
L 254.37312 123.556698 
L 254.73024 117.002565 
L 255.08736 118.461562 
L 255.44448 122.505753 
L 255.8016 127.939202 
L 256.15872 127.91455 
L 256.51584 115.231205 
L 257.23008 124.279709 
L 257.5872 121.175529 
L 257.94432 122.659827 
L 258.30144 122.172629 
L 258.65856 116.929259 
L 259.01568 119.493045 
L 259.3728 116.024603 
L 259.72992 120.435651 
L 260.08704 119.893961 
L 260.44416 118.900104 
L 261.1584 112.466312 
L 261.51552 115.321054 
L 261.87264 119.096021 
L 262.22976 120.322448 
L 262.58688 120.693846 
L 262.944 121.955629 
L 263.65824 117.800505 
L 264.01536 112.491613 
L 264.37248 119.825844 
L 264.7296 120.746718 
L 265.08672 115.695696 
L 265.44384 120.010732 
L 266.15808 106.849597 
L 266.5152 108.079916 
L 266.87232 114.558146 
L 267.22944 109.490906 
L 267.58656 106.009165 
L 267.94368 113.590239 
L 268.3008 111.378714 
L 268.65792 114.850075 
L 269.01504 108.360816 
L 269.37216 108.730917 
L 269.72928 106.783426 
L 270.0864 110.49125 
L 270.44352 110.978123 
L 270.80064 114.856562 
L 271.15776 114.431319 
L 271.51488 110.65992 
L 271.872 101.468371 
L 272.22912 114.644427 
L 272.58624 104.427883 
L 272.94336 111.168201 
L 273.30048 101.207905 
L 273.6576 103.362017 
L 274.01472 103.699682 
L 274.37184 110.460759 
L 275.08608 110.340744 
L 275.80032 112.556161 
L 276.15744 112.876635 
L 276.51456 112.455284 
L 276.87168 101.119029 
L 277.2288 99.077796 
L 277.58592 104.793767 
L 277.94304 103.207944 
L 278.30016 105.181384 
L 278.65728 106.467494 
L 279.0144 106.787967 
L 279.37152 105.629333 
L 279.72864 110.186022 
L 280.08576 103.321472 
L 280.44288 108.701725 
L 280.8 110.608346 
L 281.15712 100.467703 
L 281.87136 104.959843 
L 282.22848 100.470947 
L 282.5856 101.071023 
L 282.94272 107.175584 
L 283.29984 105.635172 
L 283.65696 106.171348 
L 284.01408 108.216798 
L 284.72832 96.952552 
L 285.08544 109.740668 
L 285.44256 96.297983 
L 285.79968 103.444406 
L 286.1568 108.357897 
L 286.51392 102.23809 
L 286.87104 108.590143 
L 287.22816 100.524142 
L 287.58528 105.394492 
L 287.9424 104.391554 
L 288.29952 105.315996 
L 288.65664 101.410309 
L 289.01376 101.686345 
L 289.37088 107.323171 
L 289.728 95.465012 
L 290.08512 100.484245 
L 290.44224 97.171499 
L 290.79936 107.489246 
L 291.5136 100.733683 
L 291.87072 102.813191 
L 292.22784 93.507141 
L 292.58496 106.768181 
L 292.94208 99.881574 
L 293.2992 95.742669 
L 293.65632 97.78455 
L 294.01344 101.679533 
L 294.72768 99.411568 
L 295.0848 103.259194 
L 295.44192 95.412464 
L 295.79904 97.977872 
L 296.15616 102.218953 
L 296.51328 96.486763 
L 296.8704 104.051943 
L 297.22752 95.808839 
L 297.58464 95.448469 
L 297.94176 103.802506 
L 298.29888 103.088577 
L 298.656 104.412313 
L 299.37024 91.65923 
L 299.72736 101.837175 
L 300.08448 100.286382 
L 300.4416 99.756369 
L 300.79872 92.381592 
L 301.15584 100.353202 
L 301.51296 94.643394 
L 302.2272 101.534866 
L 302.58432 96.784207 
L 302.94144 95.976536 
L 303.65568 89.43473 
L 304.36992 88.967968 
L 304.72704 94.684264 
L 305.08416 98.128054 
L 305.44128 90.389338 
L 305.7984 94.606091 
L 306.15552 93.722195 
L 306.51264 97.641181 
L 306.86976 88.936505 
L 307.22688 89.49117 
L 307.584 87.640339 
L 307.94112 92.821756 
L 308.29824 89.715631 
L 309.01248 100.452458 
L 309.3696 93.234674 
L 309.72672 92.537612 
L 310.08384 98.812465 
L 310.44096 96.403401 
L 310.79808 100.327577 
L 311.1552 91.224904 
L 311.51232 91.068884 
L 311.86944 99.023951 
L 312.22656 95.285637 
L 312.58368 86.54074 
L 312.9408 88.958886 
L 313.29792 86.150852 
L 313.65504 88.601435 
L 314.01216 90.052647 
L 314.36928 87.019828 
L 314.7264 96.696952 
L 315.08352 86.217996 
L 315.44064 87.583575 
L 315.79776 96.924981 
L 316.15488 89.136638 
L 316.86912 85.847895 
L 317.22624 92.038413 
L 317.58336 95.238929 
L 317.94048 95.029064 
L 318.2976 96.839673 
L 318.65472 84.99157 
L 319.01184 91.513914 
L 319.36896 92.701092 
L 319.72608 87.680236 
L 320.0832 97.390122 
L 320.44032 86.522251 
L 320.79744 83.786876 
L 321.15456 89.795749 
L 321.51168 83.340549 
L 321.8688 97.202963 
L 322.22592 94.558085 
L 322.58304 90.219695 
L 322.94016 82.552664 
L 323.29728 94.336219 
L 323.6544 85.868979 
L 324.01152 89.494738 
L 324.36864 89.38867 
L 324.72576 91.790273 
L 325.44 81.389165 
L 325.79712 87.867395 
L 326.15424 92.125992 
L 326.51136 85.622136 
L 326.86848 90.578119 
L 327.2256 85.739881 
L 327.58272 88.574837 
L 327.93984 80.937972 
L 328.29696 87.006205 
L 328.65408 85.812539 
L 329.0112 86.90111 
L 329.36832 85.31334 
L 329.72544 93.033891 
L 330.08256 81.391111 
L 330.43968 88.466823 
L 330.7968 87.377603 
L 331.15392 88.80611 
L 331.51104 80.642151 
L 331.86816 92.139615 
L 332.22528 82.965582 
L 332.5824 80.502674 
L 332.93952 86.999393 
L 333.29664 90.748087 
L 333.65376 89.215135 
L 334.01088 80.075484 
L 334.368 79.115037 
L 334.72512 79.419941 
L 335.08224 79.054057 
L 335.43936 92.588862 
L 335.79648 85.917634 
L 336.1536 81.395652 
L 336.51072 79.745604 
L 336.86784 86.02435 
L 337.22496 86.765201 
L 337.58208 77.48283 
L 337.9392 90.550224 
L 338.29632 89.362072 
L 338.65344 90.536925 
L 339.01056 89.394184 
L 339.36768 83.285406 
L 339.7248 91.410766 
L 340.08192 79.526982 
L 340.43904 88.706529 
L 340.79616 87.175199 
L 341.15328 80.91105 
L 341.5104 86.406128 
L 341.86752 88.111967 
L 342.22464 76.65148 
L 342.93888 82.980178 
L 343.296 77.220093 
L 343.65312 84.929616 
L 344.01024 84.876744 
L 344.36736 76.026752 
L 344.72448 78.232114 
L 345.0816 84.300671 
L 345.43872 76.817231 
L 345.79584 85.282526 
L 346.15296 74.732533 
L 346.51008 79.741063 
L 346.8672 78.909714 
L 347.22432 88.390922 
L 347.58144 75.844134 
L 347.93856 82.562395 
L 348.29568 76.994984 
L 348.6528 81.289585 
L 349.00992 81.720991 
L 349.36704 81.29445 
L 349.72416 85.177431 
L 350.08128 76.84837 
L 350.4384 84.187467 
L 350.79552 77.491587 
L 351.15264 85.073959 
L 351.50976 81.111508 
L 351.86688 72.195021 
L 352.224 76.543467 
L 352.58112 77.007958 
L 352.93824 81.709314 
L 353.29536 83.134901 
L 353.65248 80.478995 
L 354.0096 82.440434 
L 354.36672 85.740206 
L 354.72384 78.316125 
L 355.43808 86.103495 
L 355.7952 78.448142 
L 356.15232 79.012862 
L 356.50944 85.381782 
L 356.86656 78.330073 
L 357.22368 84.895233 
L 357.5808 72.118471 
L 357.93792 75.890194 
L 358.29504 82.433298 
L 358.65216 81.468959 
L 359.00928 72.574529 
L 359.3664 75.769206 
L 359.72352 81.233145 
L 360.08064 81.582811 
L 360.79488 71.175864 
L 361.152 69.37823 
L 361.50912 72.947874 
L 361.86624 81.877011 
L 362.22336 70.605954 
L 362.58048 75.200593 
L 362.9376 82.171535 
L 363.29472 81.362243 
L 363.65184 82.544231 
L 364.00896 72.664378 
L 364.36608 75.837323 
L 364.7232 77.002768 
L 365.08032 82.991207 
L 365.43744 79.385883 
L 365.79456 82.265601 
L 366.15168 76.514274 
L 366.5088 78.499716 
L 366.86592 73.541463 
L 367.22304 71.588782 
L 367.58016 82.515362 
L 367.93728 69.729842 
L 368.2944 81.067719 
L 368.65152 67.899771 
L 369.00864 78.750775 
L 369.36576 78.771534 
L 369.72288 81.13843 
L 370.08 78.218815 
L 370.43712 66.497539 
L 370.79424 78.679414 
L 371.15136 80.29508 
L 371.50848 78.062471 
L 371.8656 72.056517 
L 372.22272 79.831561 
L 372.57984 80.160792 
L 372.93696 70.838848 
L 373.29408 79.465028 
L 373.6512 67.839764 
L 374.00832 68.116123 
L 374.36544 66.808281 
L 374.72256 75.01311 
L 375.07968 71.473632 
L 375.4368 65.615264 
L 375.79392 73.556708 
L 376.15104 68.860867 
L 376.50816 77.20128 
L 376.86528 67.440145 
L 377.2224 67.832952 
L 377.57952 78.914255 
L 377.93664 68.197863 
L 378.65088 77.73843 
L 379.008 74.444172 
L 379.36512 65.610723 
L 380.07936 73.604065 
L 380.43648 74.443524 
L 380.7936 73.91351 
L 381.15072 66.153062 
L 381.50784 78.078041 
L 381.86496 63.385899 
L 382.22208 71.954017 
L 382.5792 65.274356 
L 382.93632 66.80082 
L 383.29344 66.790441 
L 383.65056 77.621009 
L 384.00768 75.87949 
L 384.3648 70.924156 
L 384.72192 70.408091 
L 385.07904 77.110458 
L 385.43616 71.984832 
L 385.79328 70.61536 
L 386.50752 74.348809 
L 386.86464 70.725969 
L 387.22176 62.394313 
L 388.29312 75.577506 
L 388.65024 61.33234 
L 389.00736 68.166075 
L 389.36448 66.921809 
L 389.7216 74.85417 
L 390.07872 72.753903 
L 390.43584 64.208166 
L 391.15008 59.694294 
L 391.5072 75.633621 
L 392.22144 59.848043 
L 392.57856 67.990269 
L 392.93568 71.10126 
L 393.2928 72.308225 
L 393.64992 63.28048 
L 394.00704 73.779871 
L 394.36416 62.934706 
L 394.72128 58.891164 
L 395.0784 68.389888 
L 395.43552 62.948654 
L 395.79264 67.933181 
L 396.14976 69.061325 
L 396.864 60.176625 
L 397.22112 63.136462 
L 397.57824 70.884259 
L 397.93536 66.996089 
L 398.29248 70.59752 
L 398.6496 64.235088 
L 399.36384 70.07594 
L 399.72096 72.566095 
L 400.07808 63.417038 
L 400.4352 71.495689 
L 400.79232 61.752394 
L 401.14944 57.410435 
L 401.50656 64.67655 
L 401.86368 59.896374 
L 402.2208 57.963154 
L 402.57792 63.494886 
L 402.93504 59.967085 
L 403.29216 59.341708 
L 403.64928 57.523315 
L 404.0064 59.585956 
L 404.36352 57.698796 
L 404.72064 71.657547 
L 405.07776 61.325529 
L 405.43488 61.188322 
L 405.792 58.541498 
L 406.14912 70.217039 
L 406.50624 63.154626 
L 406.86336 68.348693 
L 407.22048 62.680079 
L 407.5776 66.393417 
L 407.93472 58.929115 
L 408.29184 55.074354 
L 408.64896 55.543711 
L 409.00608 64.469929 
L 409.3632 70.121676 
L 409.72032 59.562601 
L 410.07744 64.25228 
L 410.43456 61.610322 
L 410.79168 56.186928 
L 411.1488 64.51015 
L 411.50592 64.749208 
L 411.86304 69.095383 
L 412.22016 62.478 
L 412.57728 64.551345 
L 412.9344 56.261208 
L 413.29152 61.39397 
L 413.64864 69.405477 
L 414.00576 63.710589 
L 414.36288 53.568 
L 414.72 55.746115 
L 414.72 55.746115 
" style="fill:none;stroke:#000080;stroke-linecap:square;stroke-width:0.5;"/>
   </g>
   <g id="patch_3">
    <path d="M 57.6 307.584 
L 57.6 41.472 
" style="fill:none;stroke:#000000;stroke-linecap:square;stroke-linejoin:miter;stroke-width:0.8;"/>
   </g>
   <g id="patch_4">
    <path d="M 414.72 307.584 
L 414.72 41.472 
" style="fill:none;stroke:#000000;stroke-linecap:square;stroke-linejoin:miter;stroke-width:0.8;"/>
   </g>
   <g id="patch_5">
    <path d="M 57.6 307.584 
L 414.72 307.584 
" style="fill:none;stroke:#000000;stroke-linecap:square;stroke-linejoin:miter;stroke-width:0.8;"/>
   </g>
   <g id="patch_6">
    <path d="M 57.6 41.472 
L 414.72 41.472 
" style="fill:none;stroke:#000000;stroke-linecap:square;stroke-linejoin:miter;stroke-width:0.8;"/>
   </g>
   <g id="text_17">
    <!-- Test -->
    <defs>
     <path d="M -0.296875 72.90625 
L 61.375 72.90625 
L 61.375 64.59375 
L 35.5 64.59375 
L 35.5 0 
L 25.59375 0 
L 25.59375 64.59375 
L -0.296875 64.59375 
z
" id="DejaVuSans-54"/>
    </defs>
    <g transform="translate(223.341563 35.472)scale(0.12 -0.12)">
     <use xlink:href="#DejaVuSans-54"/>
     <use x="60.818359" xlink:href="#DejaVuSans-65"/>
     <use x="122.341797" xlink:href="#DejaVuSans-73"/>
     <use x="174.441406" xlink:href="#DejaVuSans-74"/>
    </g>
   </g>
   <g id="legend_1">
    <g id="patch_7">
     <path d="M 64.6 64.150125 
L 306.276563 64.150125 
Q 308.276563 64.150125 308.276563 62.150125 
L 308.276563 48.472 
Q 308.276563 46.472 306.276563 46.472 
L 64.6 46.472 
Q 62.6 46.472 62.6 48.472 
L 62.6 62.150125 
Q 62.6 64.150125 64.6 64.150125 
z
" style="fill:#ffffff;opacity:0.8;stroke:#cccccc;stroke-linejoin:miter;"/>
    </g>
    <g id="line2d_30">
     <path d="M 66.6 54.570438 
L 86.6 54.570438 
" style="fill:none;stroke:#000080;stroke-linecap:square;stroke-width:0.5;"/>
    </g>
    <g id="line2d_31"/>
    <g id="text_18">
     <!-- Successful download requests per second -->
     <g transform="translate(94.6 58.070438)scale(0.1 -0.1)">
      <use xlink:href="#DejaVuSans-53"/>
      <use x="63.476562" xlink:href="#DejaVuSans-75"/>
      <use x="126.855469" xlink:href="#DejaVuSans-63"/>
      <use x="181.835938" xlink:href="#DejaVuSans-63"/>
      <use x="236.816406" xlink:href="#DejaVuSans-65"/>
      <use x="298.339844" xlink:href="#DejaVuSans-73"/>
      <use x="350.439453" xlink:href="#DejaVuSans-73"/>
      <use x="402.539062" xlink:href="#DejaVuSans-66"/>
      <use x="437.744141" xlink:href="#DejaVuSans-75"/>
      <use x="501.123047" xlink:href="#DejaVuSans-6c"/>
      <use x="528.90625" xlink:href="#DejaVuSans-20"/>
      <use x="560.693359" xlink:href="#DejaVuSans-64"/>
      <use x="624.169922" xlink:href="#DejaVuSans-6f"/>
      <use x="685.351562" xlink:href="#DejaVuSans-77"/>
      <use x="767.138672" xlink:href="#DejaVuSans-6e"/>
      <use x="830.517578" xlink:href="#DejaVuSans-6c"/>
      <use x="858.300781" xlink:href="#DejaVuSans-6f"/>
      <use x="919.482422" xlink:href="#DejaVuSans-61"/>
      <use x="980.761719" xlink:href="#DejaVuSans-64"/>
      <use x="1044.238281" xlink:href="#DejaVuSans-20"/>
      <use x="1076.025391" xlink:href="#DejaVuSans-72"/>
      <use x="1117.107422" xlink:href="#DejaVuSans-65"/>
      <use x="1178.630859" xlink:href="#DejaVuSans-71"/>
      <use x="1242.107422" xlink:href="#DejaVuSans-75"/>
      <use x="1305.486328" xlink:href="#DejaVuSans-65"/>
      <use x="1367.009766" xlink:href="#DejaVuSans-73"/>
      <use x="1419.109375" xlink:href="#DejaVuSans-74"/>
      <use x="1458.318359" xlink:href="#DejaVuSans-73"/>
      <use x="1510.417969" xlink:href="#DejaVuSans-20"/>
      <use x="1542.205078" xlink:href="#DejaVuSans-70"/>
      <use x="1605.681641" xlink:href="#DejaVuSans-65"/>
      <use x="1667.205078" xlink:href="#DejaVuSans-72"/>
      <use x="1708.318359" xlink:href="#DejaVuSans-20"/>
      <use x="1740.105469" xlink:href="#DejaVuSans-73"/>
      <use x="1792.205078" xlink:href="#DejaVuSans-65"/>
      <use x="1853.728516" xlink:href="#DejaVuSans-63"/>
      <use x="1908.708984" xlink:href="#DejaVuSans-6f"/>
      <use x="1969.890625" xlink:href="#DejaVuSans-6e"/>
      <use x="2033.269531" xlink:href="#DejaVuSans-64"/>
     </g>
    </g>
   </g>
  </g>
 </g>
 <defs>
  <clipPath id="p1d42b930b2">
   <rect height="266.112" width="357.12" x="57.6" y="41.472"/>
  </clipPath>
 </defs>
</svg>
