<?xml version="1.0" encoding="utf-8" standalone="no"?>
<!DOCTYPE svg PUBLIC "-//W3C//DTD SVG 1.1//EN"
  "http://www.w3.org/Graphics/SVG/1.1/DTD/svg11.dtd">
<!-- Created with matplotlib (http://matplotlib.org/) -->
<svg height="345pt" version="1.1" viewBox="0 0 460 345" width="460pt" xmlns="http://www.w3.org/2000/svg" xmlns:xlink="http://www.w3.org/1999/xlink">
 <defs>
  <style type="text/css">
*{stroke-linecap:butt;stroke-linejoin:round;}
  </style>
 </defs>
 <g id="figure_1">
  <g id="patch_1">
   <path d="M 0 345.6 
L 460.8 345.6 
L 460.8 0 
L 0 0 
z
" style="fill:#ffffff;"/>
  </g>
  <g id="axes_1">
   <g id="patch_2">
    <path d="M 57.6 307.584 
L 414.72 307.584 
L 414.72 41.472 
L 57.6 41.472 
z
" style="fill:#ffffff;"/>
   </g>
   <g id="matplotlib.axis_1">
    <g id="xtick_1">
     <g id="line2d_1">
      <path clip-path="url(#pe23e95cc57)" d="M 57.6 307.584 
L 57.6 41.472 
" style="fill:none;stroke:#b0b0b0;stroke-linecap:square;stroke-width:0.8;"/>
     </g>
     <g id="line2d_2">
      <defs>
       <path d="M 0 0 
L 0 3.5 
" id="ma5d23853d0" style="stroke:#000000;stroke-width:0.8;"/>
      </defs>
      <g>
       <use style="stroke:#000000;stroke-width:0.8;" x="57.6" xlink:href="#ma5d23853d0" y="307.584"/>
      </g>
     </g>
     <g id="text_1">
      <!-- 0 -->
      <defs>
       <path d="M 31.78125 66.40625 
Q 24.171875 66.40625 20.328125 58.90625 
Q 16.5 51.421875 16.5 36.375 
Q 16.5 21.390625 20.328125 13.890625 
Q 24.171875 6.390625 31.78125 6.390625 
Q 39.453125 6.390625 43.28125 13.890625 
Q 47.125 21.390625 47.125 36.375 
Q 47.125 51.421875 43.28125 58.90625 
Q 39.453125 66.40625 31.78125 66.40625 
M 31.78125 74.21875 
Q 44.046875 74.21875 50.515625 64.515625 
Q 56.984375 54.828125 56.984375 36.375 
Q 56.984375 17.96875 50.515625 8.265625 
Q 44.046875 -1.421875 31.78125 -1.421875 
Q 19.53125 -1.421875 13.0625 8.265625 
Q 6.59375 17.96875 6.59375 36.375 
Q 6.59375 54.828125 13.0625 64.515625 
Q 19.53125 74.21875 31.78125 74.21875 
" id="DejaVuSans-30"/>
      </defs>
      <g transform="translate(54.41875 322.182437)scale(0.1 -0.1)">
       <use xlink:href="#DejaVuSans-30"/>
      </g>
     </g>
    </g>
    <g id="xtick_2">
     <g id="line2d_3">
      <path clip-path="url(#pe23e95cc57)" d="M 129.024 307.584 
L 129.024 41.472 
" style="fill:none;stroke:#b0b0b0;stroke-linecap:square;stroke-width:0.8;"/>
     </g>
     <g id="line2d_4">
      <g>
       <use style="stroke:#000000;stroke-width:0.8;" x="129.024" xlink:href="#ma5d23853d0" y="307.584"/>
      </g>
     </g>
     <g id="text_2">
      <!-- 200 -->
      <defs>
       <path d="M 19.1875 8.296875 
L 53.609375 8.296875 
L 53.609375 0 
L 7.328125 0 
L 7.328125 8.296875 
Q 12.9375 14.109375 22.625 23.890625 
Q 32.328125 33.6875 34.8125 36.53125 
Q 39.546875 41.84375 41.421875 45.53125 
Q 43.3125 49.21875 43.3125 52.78125 
Q 43.3125 58.59375 39.234375 62.25 
Q 35.15625 65.921875 28.609375 65.921875 
Q 23.96875 65.921875 18.8125 64.3125 
Q 13.671875 62.703125 7.8125 59.421875 
L 7.8125 69.390625 
Q 13.765625 71.78125 18.9375 73 
Q 24.125 74.21875 28.421875 74.21875 
Q 39.75 74.21875 46.484375 68.546875 
Q 53.21875 62.890625 53.21875 53.421875 
Q 53.21875 48.921875 51.53125 44.890625 
Q 49.859375 40.875 45.40625 35.40625 
Q 44.1875 33.984375 37.640625 27.21875 
Q 31.109375 20.453125 19.1875 8.296875 
" id="DejaVuSans-32"/>
      </defs>
      <g transform="translate(119.48025 322.182437)scale(0.1 -0.1)">
       <use xlink:href="#DejaVuSans-32"/>
       <use x="63.623047" xlink:href="#DejaVuSans-30"/>
       <use x="127.246094" xlink:href="#DejaVuSans-30"/>
      </g>
     </g>
    </g>
    <g id="xtick_3">
     <g id="line2d_5">
      <path clip-path="url(#pe23e95cc57)" d="M 200.448 307.584 
L 200.448 41.472 
" style="fill:none;stroke:#b0b0b0;stroke-linecap:square;stroke-width:0.8;"/>
     </g>
     <g id="line2d_6">
      <g>
       <use style="stroke:#000000;stroke-width:0.8;" x="200.448" xlink:href="#ma5d23853d0" y="307.584"/>
      </g>
     </g>
     <g id="text_3">
      <!-- 400 -->
      <defs>
       <path d="M 37.796875 64.3125 
L 12.890625 25.390625 
L 37.796875 25.390625 
z
M 35.203125 72.90625 
L 47.609375 72.90625 
L 47.609375 25.390625 
L 58.015625 25.390625 
L 58.015625 17.1875 
L 47.609375 17.1875 
L 47.609375 0 
L 37.796875 0 
L 37.796875 17.1875 
L 4.890625 17.1875 
L 4.890625 26.703125 
z
" id="DejaVuSans-34"/>
      </defs>
      <g transform="translate(190.90425 322.182437)scale(0.1 -0.1)">
       <use xlink:href="#DejaVuSans-34"/>
       <use x="63.623047" xlink:href="#DejaVuSans-30"/>
       <use x="127.246094" xlink:href="#DejaVuSans-30"/>
      </g>
     </g>
    </g>
    <g id="xtick_4">
     <g id="line2d_7">
      <path clip-path="url(#pe23e95cc57)" d="M 271.872 307.584 
L 271.872 41.472 
" style="fill:none;stroke:#b0b0b0;stroke-linecap:square;stroke-width:0.8;"/>
     </g>
     <g id="line2d_8">
      <g>
       <use style="stroke:#000000;stroke-width:0.8;" x="271.872" xlink:href="#ma5d23853d0" y="307.584"/>
      </g>
     </g>
     <g id="text_4">
      <!-- 600 -->
      <defs>
       <path d="M 33.015625 40.375 
Q 26.375 40.375 22.484375 35.828125 
Q 18.609375 31.296875 18.609375 23.390625 
Q 18.609375 15.53125 22.484375 10.953125 
Q 26.375 6.390625 33.015625 6.390625 
Q 39.65625 6.390625 43.53125 10.953125 
Q 47.40625 15.53125 47.40625 23.390625 
Q 47.40625 31.296875 43.53125 35.828125 
Q 39.65625 40.375 33.015625 40.375 
M 52.59375 71.296875 
L 52.59375 62.3125 
Q 48.875 64.0625 45.09375 64.984375 
Q 41.3125 65.921875 37.59375 65.921875 
Q 27.828125 65.921875 22.671875 59.328125 
Q 17.53125 52.734375 16.796875 39.40625 
Q 19.671875 43.65625 24.015625 45.921875 
Q 28.375 48.1875 33.59375 48.1875 
Q 44.578125 48.1875 50.953125 41.515625 
Q 57.328125 34.859375 57.328125 23.390625 
Q 57.328125 12.15625 50.6875 5.359375 
Q 44.046875 -1.421875 33.015625 -1.421875 
Q 20.359375 -1.421875 13.671875 8.265625 
Q 6.984375 17.96875 6.984375 36.375 
Q 6.984375 53.65625 15.1875 63.9375 
Q 23.390625 74.21875 37.203125 74.21875 
Q 40.921875 74.21875 44.703125 73.484375 
Q 48.484375 72.75 52.59375 71.296875 
" id="DejaVuSans-36"/>
      </defs>
      <g transform="translate(262.32825 322.182437)scale(0.1 -0.1)">
       <use xlink:href="#DejaVuSans-36"/>
       <use x="63.623047" xlink:href="#DejaVuSans-30"/>
       <use x="127.246094" xlink:href="#DejaVuSans-30"/>
      </g>
     </g>
    </g>
    <g id="xtick_5">
     <g id="line2d_9">
      <path clip-path="url(#pe23e95cc57)" d="M 343.296 307.584 
L 343.296 41.472 
" style="fill:none;stroke:#b0b0b0;stroke-linecap:square;stroke-width:0.8;"/>
     </g>
     <g id="line2d_10">
      <g>
       <use style="stroke:#000000;stroke-width:0.8;" x="343.296" xlink:href="#ma5d23853d0" y="307.584"/>
      </g>
     </g>
     <g id="text_5">
      <!-- 800 -->
      <defs>
       <path d="M 31.78125 34.625 
Q 24.75 34.625 20.71875 30.859375 
Q 16.703125 27.09375 16.703125 20.515625 
Q 16.703125 13.921875 20.71875 10.15625 
Q 24.75 6.390625 31.78125 6.390625 
Q 38.8125 6.390625 42.859375 10.171875 
Q 46.921875 13.96875 46.921875 20.515625 
Q 46.921875 27.09375 42.890625 30.859375 
Q 38.875 34.625 31.78125 34.625 
M 21.921875 38.8125 
Q 15.578125 40.375 12.03125 44.71875 
Q 8.5 49.078125 8.5 55.328125 
Q 8.5 64.0625 14.71875 69.140625 
Q 20.953125 74.21875 31.78125 74.21875 
Q 42.671875 74.21875 48.875 69.140625 
Q 55.078125 64.0625 55.078125 55.328125 
Q 55.078125 49.078125 51.53125 44.71875 
Q 48 40.375 41.703125 38.8125 
Q 48.828125 37.15625 52.796875 32.3125 
Q 56.78125 27.484375 56.78125 20.515625 
Q 56.78125 9.90625 50.3125 4.234375 
Q 43.84375 -1.421875 31.78125 -1.421875 
Q 19.734375 -1.421875 13.25 4.234375 
Q 6.78125 9.90625 6.78125 20.515625 
Q 6.78125 27.484375 10.78125 32.3125 
Q 14.796875 37.15625 21.921875 38.8125 
M 18.3125 54.390625 
Q 18.3125 48.734375 21.84375 45.5625 
Q 25.390625 42.390625 31.78125 42.390625 
Q 38.140625 42.390625 41.71875 45.5625 
Q 45.3125 48.734375 45.3125 54.390625 
Q 45.3125 60.0625 41.71875 63.234375 
Q 38.140625 66.40625 31.78125 66.40625 
Q 25.390625 66.40625 21.84375 63.234375 
Q 18.3125 60.0625 18.3125 54.390625 
" id="DejaVuSans-38"/>
      </defs>
      <g transform="translate(333.75225 322.182437)scale(0.1 -0.1)">
       <use xlink:href="#DejaVuSans-38"/>
       <use x="63.623047" xlink:href="#DejaVuSans-30"/>
       <use x="127.246094" xlink:href="#DejaVuSans-30"/>
      </g>
     </g>
    </g>
    <g id="xtick_6">
     <g id="line2d_11">
      <path clip-path="url(#pe23e95cc57)" d="M 414.72 307.584 
L 414.72 41.472 
" style="fill:none;stroke:#b0b0b0;stroke-linecap:square;stroke-width:0.8;"/>
     </g>
     <g id="line2d_12">
      <g>
       <use style="stroke:#000000;stroke-width:0.8;" x="414.72" xlink:href="#ma5d23853d0" y="307.584"/>
      </g>
     </g>
     <g id="text_6">
      <!-- 1000 -->
      <defs>
       <path d="M 12.40625 8.296875 
L 28.515625 8.296875 
L 28.515625 63.921875 
L 10.984375 60.40625 
L 10.984375 69.390625 
L 28.421875 72.90625 
L 38.28125 72.90625 
L 38.28125 8.296875 
L 54.390625 8.296875 
L 54.390625 0 
L 12.40625 0 
z
" id="DejaVuSans-31"/>
      </defs>
      <g transform="translate(401.995 322.182437)scale(0.1 -0.1)">
       <use xlink:href="#DejaVuSans-31"/>
       <use x="63.623047" xlink:href="#DejaVuSans-30"/>
       <use x="127.246094" xlink:href="#DejaVuSans-30"/>
       <use x="190.869141" xlink:href="#DejaVuSans-30"/>
      </g>
     </g>
    </g>
    <g id="text_7">
     <!-- Number of clients -->
     <defs>
      <path d="M 9.8125 72.90625 
L 23.09375 72.90625 
L 55.421875 11.921875 
L 55.421875 72.90625 
L 64.984375 72.90625 
L 64.984375 0 
L 51.703125 0 
L 19.390625 60.984375 
L 19.390625 0 
L 9.8125 0 
z
" id="DejaVuSans-4e"/>
      <path d="M 8.5 21.578125 
L 8.5 54.6875 
L 17.484375 54.6875 
L 17.484375 21.921875 
Q 17.484375 14.15625 20.5 10.265625 
Q 23.53125 6.390625 29.59375 6.390625 
Q 36.859375 6.390625 41.078125 11.03125 
Q 45.3125 15.671875 45.3125 23.6875 
L 45.3125 54.6875 
L 54.296875 54.6875 
L 54.296875 0 
L 45.3125 0 
L 45.3125 8.40625 
Q 42.046875 3.421875 37.71875 1 
Q 33.40625 -1.421875 27.6875 -1.421875 
Q 18.265625 -1.421875 13.375 4.4375 
Q 8.5 10.296875 8.5 21.578125 
M 31.109375 56 
z
" id="DejaVuSans-75"/>
      <path d="M 52 44.1875 
Q 55.375 50.25 60.0625 53.125 
Q 64.75 56 71.09375 56 
Q 79.640625 56 84.28125 50.015625 
Q 88.921875 44.046875 88.921875 33.015625 
L 88.921875 0 
L 79.890625 0 
L 79.890625 32.71875 
Q 79.890625 40.578125 77.09375 44.375 
Q 74.3125 48.1875 68.609375 48.1875 
Q 61.625 48.1875 57.5625 43.546875 
Q 53.515625 38.921875 53.515625 30.90625 
L 53.515625 0 
L 44.484375 0 
L 44.484375 32.71875 
Q 44.484375 40.625 41.703125 44.40625 
Q 38.921875 48.1875 33.109375 48.1875 
Q 26.21875 48.1875 22.15625 43.53125 
Q 18.109375 38.875 18.109375 30.90625 
L 18.109375 0 
L 9.078125 0 
L 9.078125 54.6875 
L 18.109375 54.6875 
L 18.109375 46.1875 
Q 21.1875 51.21875 25.484375 53.609375 
Q 29.78125 56 35.6875 56 
Q 41.65625 56 45.828125 52.96875 
Q 50 49.953125 52 44.1875 
" id="DejaVuSans-6d"/>
      <path d="M 48.6875 27.296875 
Q 48.6875 37.203125 44.609375 42.84375 
Q 40.53125 48.484375 33.40625 48.484375 
Q 26.265625 48.484375 22.1875 42.84375 
Q 18.109375 37.203125 18.109375 27.296875 
Q 18.109375 17.390625 22.1875 11.75 
Q 26.265625 6.109375 33.40625 6.109375 
Q 40.53125 6.109375 44.609375 11.75 
Q 48.6875 17.390625 48.6875 27.296875 
M 18.109375 46.390625 
Q 20.953125 51.265625 25.265625 53.625 
Q 29.59375 56 35.59375 56 
Q 45.5625 56 51.78125 48.09375 
Q 58.015625 40.1875 58.015625 27.296875 
Q 58.015625 14.40625 51.78125 6.484375 
Q 45.5625 -1.421875 35.59375 -1.421875 
Q 29.59375 -1.421875 25.265625 0.953125 
Q 20.953125 3.328125 18.109375 8.203125 
L 18.109375 0 
L 9.078125 0 
L 9.078125 75.984375 
L 18.109375 75.984375 
z
" id="DejaVuSans-62"/>
      <path d="M 56.203125 29.59375 
L 56.203125 25.203125 
L 14.890625 25.203125 
Q 15.484375 15.921875 20.484375 11.0625 
Q 25.484375 6.203125 34.421875 6.203125 
Q 39.59375 6.203125 44.453125 7.46875 
Q 49.3125 8.734375 54.109375 11.28125 
L 54.109375 2.78125 
Q 49.265625 0.734375 44.1875 -0.34375 
Q 39.109375 -1.421875 33.890625 -1.421875 
Q 20.796875 -1.421875 13.15625 6.1875 
Q 5.515625 13.8125 5.515625 26.8125 
Q 5.515625 40.234375 12.765625 48.109375 
Q 20.015625 56 32.328125 56 
Q 43.359375 56 49.78125 48.890625 
Q 56.203125 41.796875 56.203125 29.59375 
M 47.21875 32.234375 
Q 47.125 39.59375 43.09375 43.984375 
Q 39.0625 48.390625 32.421875 48.390625 
Q 24.90625 48.390625 20.390625 44.140625 
Q 15.875 39.890625 15.1875 32.171875 
z
" id="DejaVuSans-65"/>
      <path d="M 41.109375 46.296875 
Q 39.59375 47.171875 37.8125 47.578125 
Q 36.03125 48 33.890625 48 
Q 26.265625 48 22.1875 43.046875 
Q 18.109375 38.09375 18.109375 28.8125 
L 18.109375 0 
L 9.078125 0 
L 9.078125 54.6875 
L 18.109375 54.6875 
L 18.109375 46.1875 
Q 20.953125 51.171875 25.484375 53.578125 
Q 30.03125 56 36.53125 56 
Q 37.453125 56 38.578125 55.875 
Q 39.703125 55.765625 41.0625 55.515625 
z
" id="DejaVuSans-72"/>
      <path id="DejaVuSans-20"/>
      <path d="M 30.609375 48.390625 
Q 23.390625 48.390625 19.1875 42.75 
Q 14.984375 37.109375 14.984375 27.296875 
Q 14.984375 17.484375 19.15625 11.84375 
Q 23.34375 6.203125 30.609375 6.203125 
Q 37.796875 6.203125 41.984375 11.859375 
Q 46.1875 17.53125 46.1875 27.296875 
Q 46.1875 37.015625 41.984375 42.703125 
Q 37.796875 48.390625 30.609375 48.390625 
M 30.609375 56 
Q 42.328125 56 49.015625 48.375 
Q 55.71875 40.765625 55.71875 27.296875 
Q 55.71875 13.875 49.015625 6.21875 
Q 42.328125 -1.421875 30.609375 -1.421875 
Q 18.84375 -1.421875 12.171875 6.21875 
Q 5.515625 13.875 5.515625 27.296875 
Q 5.515625 40.765625 12.171875 48.375 
Q 18.84375 56 30.609375 56 
" id="DejaVuSans-6f"/>
      <path d="M 37.109375 75.984375 
L 37.109375 68.5 
L 28.515625 68.5 
Q 23.6875 68.5 21.796875 66.546875 
Q 19.921875 64.59375 19.921875 59.515625 
L 19.921875 54.6875 
L 34.71875 54.6875 
L 34.71875 47.703125 
L 19.921875 47.703125 
L 19.921875 0 
L 10.890625 0 
L 10.890625 47.703125 
L 2.296875 47.703125 
L 2.296875 54.6875 
L 10.890625 54.6875 
L 10.890625 58.5 
Q 10.890625 67.625 15.140625 71.796875 
Q 19.390625 75.984375 28.609375 75.984375 
z
" id="DejaVuSans-66"/>
      <path d="M 48.78125 52.59375 
L 48.78125 44.1875 
Q 44.96875 46.296875 41.140625 47.34375 
Q 37.3125 48.390625 33.40625 48.390625 
Q 24.65625 48.390625 19.8125 42.84375 
Q 14.984375 37.3125 14.984375 27.296875 
Q 14.984375 17.28125 19.8125 11.734375 
Q 24.65625 6.203125 33.40625 6.203125 
Q 37.3125 6.203125 41.140625 7.25 
Q 44.96875 8.296875 48.78125 10.40625 
L 48.78125 2.09375 
Q 45.015625 0.34375 40.984375 -0.53125 
Q 36.96875 -1.421875 32.421875 -1.421875 
Q 20.0625 -1.421875 12.78125 6.34375 
Q 5.515625 14.109375 5.515625 27.296875 
Q 5.515625 40.671875 12.859375 48.328125 
Q 20.21875 56 33.015625 56 
Q 37.15625 56 41.109375 55.140625 
Q 45.0625 54.296875 48.78125 52.59375 
" id="DejaVuSans-63"/>
      <path d="M 9.421875 75.984375 
L 18.40625 75.984375 
L 18.40625 0 
L 9.421875 0 
z
" id="DejaVuSans-6c"/>
      <path d="M 9.421875 54.6875 
L 18.40625 54.6875 
L 18.40625 0 
L 9.421875 0 
z
M 9.421875 75.984375 
L 18.40625 75.984375 
L 18.40625 64.59375 
L 9.421875 64.59375 
z
" id="DejaVuSans-69"/>
      <path d="M 54.890625 33.015625 
L 54.890625 0 
L 45.90625 0 
L 45.90625 32.71875 
Q 45.90625 40.484375 42.875 44.328125 
Q 39.84375 48.1875 33.796875 48.1875 
Q 26.515625 48.1875 22.3125 43.546875 
Q 18.109375 38.921875 18.109375 30.90625 
L 18.109375 0 
L 9.078125 0 
L 9.078125 54.6875 
L 18.109375 54.6875 
L 18.109375 46.1875 
Q 21.34375 51.125 25.703125 53.5625 
Q 30.078125 56 35.796875 56 
Q 45.21875 56 50.046875 50.171875 
Q 54.890625 44.34375 54.890625 33.015625 
" id="DejaVuSans-6e"/>
      <path d="M 18.3125 70.21875 
L 18.3125 54.6875 
L 36.8125 54.6875 
L 36.8125 47.703125 
L 18.3125 47.703125 
L 18.3125 18.015625 
Q 18.3125 11.328125 20.140625 9.421875 
Q 21.96875 7.515625 27.59375 7.515625 
L 36.8125 7.515625 
L 36.8125 0 
L 27.59375 0 
Q 17.1875 0 13.234375 3.875 
Q 9.28125 7.765625 9.28125 18.015625 
L 9.28125 47.703125 
L 2.6875 47.703125 
L 2.6875 54.6875 
L 9.28125 54.6875 
L 9.28125 70.21875 
z
" id="DejaVuSans-74"/>
      <path d="M 44.28125 53.078125 
L 44.28125 44.578125 
Q 40.484375 46.53125 36.375 47.5 
Q 32.28125 48.484375 27.875 48.484375 
Q 21.1875 48.484375 17.84375 46.4375 
Q 14.5 44.390625 14.5 40.28125 
Q 14.5 37.15625 16.890625 35.375 
Q 19.28125 33.59375 26.515625 31.984375 
L 29.59375 31.296875 
Q 39.15625 29.25 43.1875 25.515625 
Q 47.21875 21.78125 47.21875 15.09375 
Q 47.21875 7.46875 41.1875 3.015625 
Q 35.15625 -1.421875 24.609375 -1.421875 
Q 20.21875 -1.421875 15.453125 -0.5625 
Q 10.6875 0.296875 5.421875 2 
L 5.421875 11.28125 
Q 10.40625 8.6875 15.234375 7.390625 
Q 20.0625 6.109375 24.8125 6.109375 
Q 31.15625 6.109375 34.5625 8.28125 
Q 37.984375 10.453125 37.984375 14.40625 
Q 37.984375 18.0625 35.515625 20.015625 
Q 33.0625 21.96875 24.703125 23.78125 
L 21.578125 24.515625 
Q 13.234375 26.265625 9.515625 29.90625 
Q 5.8125 33.546875 5.8125 39.890625 
Q 5.8125 47.609375 11.28125 51.796875 
Q 16.75 56 26.8125 56 
Q 31.78125 56 36.171875 55.265625 
Q 40.578125 54.546875 44.28125 53.078125 
" id="DejaVuSans-73"/>
     </defs>
     <g transform="translate(191.738906 335.860562)scale(0.1 -0.1)">
      <use xlink:href="#DejaVuSans-4e"/>
      <use x="74.804688" xlink:href="#DejaVuSans-75"/>
      <use x="138.183594" xlink:href="#DejaVuSans-6d"/>
      <use x="235.595703" xlink:href="#DejaVuSans-62"/>
      <use x="299.072266" xlink:href="#DejaVuSans-65"/>
      <use x="360.595703" xlink:href="#DejaVuSans-72"/>
      <use x="401.708984" xlink:href="#DejaVuSans-20"/>
      <use x="433.496094" xlink:href="#DejaVuSans-6f"/>
      <use x="494.677734" xlink:href="#DejaVuSans-66"/>
      <use x="529.882812" xlink:href="#DejaVuSans-20"/>
      <use x="561.669922" xlink:href="#DejaVuSans-63"/>
      <use x="616.650391" xlink:href="#DejaVuSans-6c"/>
      <use x="644.433594" xlink:href="#DejaVuSans-69"/>
      <use x="672.216797" xlink:href="#DejaVuSans-65"/>
      <use x="733.740234" xlink:href="#DejaVuSans-6e"/>
      <use x="797.119141" xlink:href="#DejaVuSans-74"/>
      <use x="836.328125" xlink:href="#DejaVuSans-73"/>
     </g>
    </g>
   </g>
   <g id="matplotlib.axis_2">
    <g id="ytick_1">
     <g id="line2d_13">
      <path clip-path="url(#pe23e95cc57)" d="M 57.6 295.948385 
L 414.72 295.948385 
" style="fill:none;stroke:#b0b0b0;stroke-linecap:square;stroke-width:0.8;"/>
     </g>
     <g id="line2d_14">
      <defs>
       <path d="M 0 0 
L -3.5 0 
" id="m5e4c02849a" style="stroke:#000000;stroke-width:0.8;"/>
      </defs>
      <g>
       <use style="stroke:#000000;stroke-width:0.8;" x="57.6" xlink:href="#m5e4c02849a" y="295.948385"/>
      </g>
     </g>
     <g id="text_8">
      <!-- 0 -->
      <g transform="translate(44.2375 299.747604)scale(0.1 -0.1)">
       <use xlink:href="#DejaVuSans-30"/>
      </g>
     </g>
    </g>
    <g id="ytick_2">
     <g id="line2d_15">
      <path clip-path="url(#pe23e95cc57)" d="M 57.6 247.333269 
L 414.72 247.333269 
" style="fill:none;stroke:#b0b0b0;stroke-linecap:square;stroke-width:0.8;"/>
     </g>
     <g id="line2d_16">
      <g>
       <use style="stroke:#000000;stroke-width:0.8;" x="57.6" xlink:href="#m5e4c02849a" y="247.333269"/>
      </g>
     </g>
     <g id="text_9">
      <!-- 100 -->
      <g transform="translate(31.5125 251.132488)scale(0.1 -0.1)">
       <use xlink:href="#DejaVuSans-31"/>
       <use x="63.623047" xlink:href="#DejaVuSans-30"/>
       <use x="127.246094" xlink:href="#DejaVuSans-30"/>
      </g>
     </g>
    </g>
    <g id="ytick_3">
     <g id="line2d_17">
      <path clip-path="url(#pe23e95cc57)" d="M 57.6 198.718153 
L 414.72 198.718153 
" style="fill:none;stroke:#b0b0b0;stroke-linecap:square;stroke-width:0.8;"/>
     </g>
     <g id="line2d_18">
      <g>
       <use style="stroke:#000000;stroke-width:0.8;" x="57.6" xlink:href="#m5e4c02849a" y="198.718153"/>
      </g>
     </g>
     <g id="text_10">
      <!-- 200 -->
      <g transform="translate(31.5125 202.517371)scale(0.1 -0.1)">
       <use xlink:href="#DejaVuSans-32"/>
       <use x="63.623047" xlink:href="#DejaVuSans-30"/>
       <use x="127.246094" xlink:href="#DejaVuSans-30"/>
      </g>
     </g>
    </g>
    <g id="ytick_4">
     <g id="line2d_19">
      <path clip-path="url(#pe23e95cc57)" d="M 57.6 150.103036 
L 414.72 150.103036 
" style="fill:none;stroke:#b0b0b0;stroke-linecap:square;stroke-width:0.8;"/>
     </g>
     <g id="line2d_20">
      <g>
       <use style="stroke:#000000;stroke-width:0.8;" x="57.6" xlink:href="#m5e4c02849a" y="150.103036"/>
      </g>
     </g>
     <g id="text_11">
      <!-- 300 -->
      <defs>
       <path d="M 40.578125 39.3125 
Q 47.65625 37.796875 51.625 33 
Q 55.609375 28.21875 55.609375 21.1875 
Q 55.609375 10.40625 48.1875 4.484375 
Q 40.765625 -1.421875 27.09375 -1.421875 
Q 22.515625 -1.421875 17.65625 -0.515625 
Q 12.796875 0.390625 7.625 2.203125 
L 7.625 11.71875 
Q 11.71875 9.328125 16.59375 8.109375 
Q 21.484375 6.890625 26.8125 6.890625 
Q 36.078125 6.890625 40.9375 10.546875 
Q 45.796875 14.203125 45.796875 21.1875 
Q 45.796875 27.640625 41.28125 31.265625 
Q 36.765625 34.90625 28.71875 34.90625 
L 20.21875 34.90625 
L 20.21875 43.015625 
L 29.109375 43.015625 
Q 36.375 43.015625 40.234375 45.921875 
Q 44.09375 48.828125 44.09375 54.296875 
Q 44.09375 59.90625 40.109375 62.90625 
Q 36.140625 65.921875 28.71875 65.921875 
Q 24.65625 65.921875 20.015625 65.03125 
Q 15.375 64.15625 9.8125 62.3125 
L 9.8125 71.09375 
Q 15.4375 72.65625 20.34375 73.4375 
Q 25.25 74.21875 29.59375 74.21875 
Q 40.828125 74.21875 47.359375 69.109375 
Q 53.90625 64.015625 53.90625 55.328125 
Q 53.90625 49.265625 50.4375 45.09375 
Q 46.96875 40.921875 40.578125 39.3125 
" id="DejaVuSans-33"/>
      </defs>
      <g transform="translate(31.5125 153.902255)scale(0.1 -0.1)">
       <use xlink:href="#DejaVuSans-33"/>
       <use x="63.623047" xlink:href="#DejaVuSans-30"/>
       <use x="127.246094" xlink:href="#DejaVuSans-30"/>
      </g>
     </g>
    </g>
    <g id="ytick_5">
     <g id="line2d_21">
      <path clip-path="url(#pe23e95cc57)" d="M 57.6 101.48792 
L 414.72 101.48792 
" style="fill:none;stroke:#b0b0b0;stroke-linecap:square;stroke-width:0.8;"/>
     </g>
     <g id="line2d_22">
      <g>
       <use style="stroke:#000000;stroke-width:0.8;" x="57.6" xlink:href="#m5e4c02849a" y="101.48792"/>
      </g>
     </g>
     <g id="text_12">
      <!-- 400 -->
      <g transform="translate(31.5125 105.287139)scale(0.1 -0.1)">
       <use xlink:href="#DejaVuSans-34"/>
       <use x="63.623047" xlink:href="#DejaVuSans-30"/>
       <use x="127.246094" xlink:href="#DejaVuSans-30"/>
      </g>
     </g>
    </g>
    <g id="ytick_6">
     <g id="line2d_23">
      <path clip-path="url(#pe23e95cc57)" d="M 57.6 52.872804 
L 414.72 52.872804 
" style="fill:none;stroke:#b0b0b0;stroke-linecap:square;stroke-width:0.8;"/>
     </g>
     <g id="line2d_24">
      <g>
       <use style="stroke:#000000;stroke-width:0.8;" x="57.6" xlink:href="#m5e4c02849a" y="52.872804"/>
      </g>
     </g>
     <g id="text_13">
      <!-- 500 -->
      <defs>
       <path d="M 10.796875 72.90625 
L 49.515625 72.90625 
L 49.515625 64.59375 
L 19.828125 64.59375 
L 19.828125 46.734375 
Q 21.96875 47.46875 24.109375 47.828125 
Q 26.265625 48.1875 28.421875 48.1875 
Q 40.625 48.1875 47.75 41.5 
Q 54.890625 34.8125 54.890625 23.390625 
Q 54.890625 11.625 47.5625 5.09375 
Q 40.234375 -1.421875 26.90625 -1.421875 
Q 22.3125 -1.421875 17.546875 -0.640625 
Q 12.796875 0.140625 7.71875 1.703125 
L 7.71875 11.625 
Q 12.109375 9.234375 16.796875 8.0625 
Q 21.484375 6.890625 26.703125 6.890625 
Q 35.15625 6.890625 40.078125 11.328125 
Q 45.015625 15.765625 45.015625 23.390625 
Q 45.015625 31 40.078125 35.4375 
Q 35.15625 39.890625 26.703125 39.890625 
Q 22.75 39.890625 18.8125 39.015625 
Q 14.890625 38.140625 10.796875 36.28125 
z
" id="DejaVuSans-35"/>
      </defs>
      <g transform="translate(31.5125 56.672023)scale(0.1 -0.1)">
       <use xlink:href="#DejaVuSans-35"/>
       <use x="63.623047" xlink:href="#DejaVuSans-30"/>
       <use x="127.246094" xlink:href="#DejaVuSans-30"/>
      </g>
     </g>
    </g>
    <g id="text_14">
     <!-- Successful download requests per second -->
     <defs>
      <path d="M 53.515625 70.515625 
L 53.515625 60.890625 
Q 47.90625 63.578125 42.921875 64.890625 
Q 37.9375 66.21875 33.296875 66.21875 
Q 25.25 66.21875 20.875 63.09375 
Q 16.5 59.96875 16.5 54.203125 
Q 16.5 49.359375 19.40625 46.890625 
Q 22.3125 44.4375 30.421875 42.921875 
L 36.375 41.703125 
Q 47.40625 39.59375 52.65625 34.296875 
Q 57.90625 29 57.90625 20.125 
Q 57.90625 9.515625 50.796875 4.046875 
Q 43.703125 -1.421875 29.984375 -1.421875 
Q 24.8125 -1.421875 18.96875 -0.25 
Q 13.140625 0.921875 6.890625 3.21875 
L 6.890625 13.375 
Q 12.890625 10.015625 18.65625 8.296875 
Q 24.421875 6.59375 29.984375 6.59375 
Q 38.421875 6.59375 43.015625 9.90625 
Q 47.609375 13.234375 47.609375 19.390625 
Q 47.609375 24.75 44.3125 27.78125 
Q 41.015625 30.8125 33.5 32.328125 
L 27.484375 33.5 
Q 16.453125 35.6875 11.515625 40.375 
Q 6.59375 45.0625 6.59375 53.421875 
Q 6.59375 63.09375 13.40625 68.65625 
Q 20.21875 74.21875 32.171875 74.21875 
Q 37.3125 74.21875 42.625 73.28125 
Q 47.953125 72.359375 53.515625 70.515625 
" id="DejaVuSans-53"/>
      <path d="M 45.40625 46.390625 
L 45.40625 75.984375 
L 54.390625 75.984375 
L 54.390625 0 
L 45.40625 0 
L 45.40625 8.203125 
Q 42.578125 3.328125 38.25 0.953125 
Q 33.9375 -1.421875 27.875 -1.421875 
Q 17.96875 -1.421875 11.734375 6.484375 
Q 5.515625 14.40625 5.515625 27.296875 
Q 5.515625 40.1875 11.734375 48.09375 
Q 17.96875 56 27.875 56 
Q 33.9375 56 38.25 53.625 
Q 42.578125 51.265625 45.40625 46.390625 
M 14.796875 27.296875 
Q 14.796875 17.390625 18.875 11.75 
Q 22.953125 6.109375 30.078125 6.109375 
Q 37.203125 6.109375 41.296875 11.75 
Q 45.40625 17.390625 45.40625 27.296875 
Q 45.40625 37.203125 41.296875 42.84375 
Q 37.203125 48.484375 30.078125 48.484375 
Q 22.953125 48.484375 18.875 42.84375 
Q 14.796875 37.203125 14.796875 27.296875 
" id="DejaVuSans-64"/>
      <path d="M 4.203125 54.6875 
L 13.1875 54.6875 
L 24.421875 12.015625 
L 35.59375 54.6875 
L 46.1875 54.6875 
L 57.421875 12.015625 
L 68.609375 54.6875 
L 77.59375 54.6875 
L 63.28125 0 
L 52.6875 0 
L 40.921875 44.828125 
L 29.109375 0 
L 18.5 0 
z
" id="DejaVuSans-77"/>
      <path d="M 34.28125 27.484375 
Q 23.390625 27.484375 19.1875 25 
Q 14.984375 22.515625 14.984375 16.5 
Q 14.984375 11.71875 18.140625 8.90625 
Q 21.296875 6.109375 26.703125 6.109375 
Q 34.1875 6.109375 38.703125 11.40625 
Q 43.21875 16.703125 43.21875 25.484375 
L 43.21875 27.484375 
z
M 52.203125 31.203125 
L 52.203125 0 
L 43.21875 0 
L 43.21875 8.296875 
Q 40.140625 3.328125 35.546875 0.953125 
Q 30.953125 -1.421875 24.3125 -1.421875 
Q 15.921875 -1.421875 10.953125 3.296875 
Q 6 8.015625 6 15.921875 
Q 6 25.140625 12.171875 29.828125 
Q 18.359375 34.515625 30.609375 34.515625 
L 43.21875 34.515625 
L 43.21875 35.40625 
Q 43.21875 41.609375 39.140625 45 
Q 35.0625 48.390625 27.6875 48.390625 
Q 23 48.390625 18.546875 47.265625 
Q 14.109375 46.140625 10.015625 43.890625 
L 10.015625 52.203125 
Q 14.9375 54.109375 19.578125 55.046875 
Q 24.21875 56 28.609375 56 
Q 40.484375 56 46.34375 49.84375 
Q 52.203125 43.703125 52.203125 31.203125 
" id="DejaVuSans-61"/>
      <path d="M 14.796875 27.296875 
Q 14.796875 17.390625 18.875 11.75 
Q 22.953125 6.109375 30.078125 6.109375 
Q 37.203125 6.109375 41.296875 11.75 
Q 45.40625 17.390625 45.40625 27.296875 
Q 45.40625 37.203125 41.296875 42.84375 
Q 37.203125 48.484375 30.078125 48.484375 
Q 22.953125 48.484375 18.875 42.84375 
Q 14.796875 37.203125 14.796875 27.296875 
M 45.40625 8.203125 
Q 42.578125 3.328125 38.25 0.953125 
Q 33.9375 -1.421875 27.875 -1.421875 
Q 17.96875 -1.421875 11.734375 6.484375 
Q 5.515625 14.40625 5.515625 27.296875 
Q 5.515625 40.1875 11.734375 48.09375 
Q 17.96875 56 27.875 56 
Q 33.9375 56 38.25 53.625 
Q 42.578125 51.265625 45.40625 46.390625 
L 45.40625 54.6875 
L 54.390625 54.6875 
L 54.390625 -20.796875 
L 45.40625 -20.796875 
z
" id="DejaVuSans-71"/>
      <path d="M 18.109375 8.203125 
L 18.109375 -20.796875 
L 9.078125 -20.796875 
L 9.078125 54.6875 
L 18.109375 54.6875 
L 18.109375 46.390625 
Q 20.953125 51.265625 25.265625 53.625 
Q 29.59375 56 35.59375 56 
Q 45.5625 56 51.78125 48.09375 
Q 58.015625 40.1875 58.015625 27.296875 
Q 58.015625 14.40625 51.78125 6.484375 
Q 45.5625 -1.421875 35.59375 -1.421875 
Q 29.59375 -1.421875 25.265625 0.953125 
Q 20.953125 3.328125 18.109375 8.203125 
M 48.6875 27.296875 
Q 48.6875 37.203125 44.609375 42.84375 
Q 40.53125 48.484375 33.40625 48.484375 
Q 26.265625 48.484375 22.1875 42.84375 
Q 18.109375 37.203125 18.109375 27.296875 
Q 18.109375 17.390625 22.1875 11.75 
Q 26.265625 6.109375 33.40625 6.109375 
Q 40.53125 6.109375 44.609375 11.75 
Q 48.6875 17.390625 48.6875 27.296875 
" id="DejaVuSans-70"/>
     </defs>
     <g transform="translate(25.432812 279.366281)rotate(-90)scale(0.1 -0.1)">
      <use xlink:href="#DejaVuSans-53"/>
      <use x="63.476562" xlink:href="#DejaVuSans-75"/>
      <use x="126.855469" xlink:href="#DejaVuSans-63"/>
      <use x="181.835938" xlink:href="#DejaVuSans-63"/>
      <use x="236.816406" xlink:href="#DejaVuSans-65"/>
      <use x="298.339844" xlink:href="#DejaVuSans-73"/>
      <use x="350.439453" xlink:href="#DejaVuSans-73"/>
      <use x="402.539062" xlink:href="#DejaVuSans-66"/>
      <use x="437.744141" xlink:href="#DejaVuSans-75"/>
      <use x="501.123047" xlink:href="#DejaVuSans-6c"/>
      <use x="528.90625" xlink:href="#DejaVuSans-20"/>
      <use x="560.693359" xlink:href="#DejaVuSans-64"/>
      <use x="624.169922" xlink:href="#DejaVuSans-6f"/>
      <use x="685.351562" xlink:href="#DejaVuSans-77"/>
      <use x="767.138672" xlink:href="#DejaVuSans-6e"/>
      <use x="830.517578" xlink:href="#DejaVuSans-6c"/>
      <use x="858.300781" xlink:href="#DejaVuSans-6f"/>
      <use x="919.482422" xlink:href="#DejaVuSans-61"/>
      <use x="980.761719" xlink:href="#DejaVuSans-64"/>
      <use x="1044.238281" xlink:href="#DejaVuSans-20"/>
      <use x="1076.025391" xlink:href="#DejaVuSans-72"/>
      <use x="1117.107422" xlink:href="#DejaVuSans-65"/>
      <use x="1178.630859" xlink:href="#DejaVuSans-71"/>
      <use x="1242.107422" xlink:href="#DejaVuSans-75"/>
      <use x="1305.486328" xlink:href="#DejaVuSans-65"/>
      <use x="1367.009766" xlink:href="#DejaVuSans-73"/>
      <use x="1419.109375" xlink:href="#DejaVuSans-74"/>
      <use x="1458.318359" xlink:href="#DejaVuSans-73"/>
      <use x="1510.417969" xlink:href="#DejaVuSans-20"/>
      <use x="1542.205078" xlink:href="#DejaVuSans-70"/>
      <use x="1605.681641" xlink:href="#DejaVuSans-65"/>
      <use x="1667.205078" xlink:href="#DejaVuSans-72"/>
      <use x="1708.318359" xlink:href="#DejaVuSans-20"/>
      <use x="1740.105469" xlink:href="#DejaVuSans-73"/>
      <use x="1792.205078" xlink:href="#DejaVuSans-65"/>
      <use x="1853.728516" xlink:href="#DejaVuSans-63"/>
      <use x="1908.708984" xlink:href="#DejaVuSans-6f"/>
      <use x="1969.890625" xlink:href="#DejaVuSans-6e"/>
      <use x="2033.269531" xlink:href="#DejaVuSans-64"/>
     </g>
    </g>
   </g>
   <g id="line2d_25">
    <path clip-path="url(#pe23e95cc57)" d="M 57.6 295.488 
L 57.95712 295.466123 
L 63.31392 288.411098 
L 63.67104 288.137881 
L 64.02816 287.693052 
L 64.7424 286.23703 
L 65.09952 286.347386 
L 65.81376 284.93852 
L 66.17088 284.920046 
L 66.88512 284.004623 
L 67.24224 283.000721 
L 67.59936 283.065865 
L 67.95648 282.193224 
L 68.3136 281.738673 
L 68.67072 281.90202 
L 69.02784 280.572396 
L 69.38496 280.435302 
L 69.74208 280.034713 
L 70.0992 280.113469 
L 70.45632 279.188324 
L 70.81344 278.599109 
L 71.17056 278.730369 
L 71.52768 277.033702 
L 72.59904 276.328783 
L 72.95616 275.437668 
L 74.02752 273.756071 
L 74.38464 274.135755 
L 75.456 271.924739 
L 75.81312 272.286436 
L 76.17024 270.704014 
L 76.52736 270.52511 
L 76.88448 270.894585 
L 77.2416 271.061335 
L 77.59872 269.648093 
L 77.95584 269.814843 
L 78.67008 269.15465 
L 79.0272 267.65536 
L 79.38432 267.779328 
L 79.74144 265.963068 
L 80.09856 265.554701 
L 80.45568 264.969861 
L 80.8128 265.00535 
L 81.16992 264.529408 
L 81.52704 264.384049 
L 81.88416 265.009725 
L 82.24128 262.932401 
L 82.95552 262.438958 
L 83.31264 261.266361 
L 84.02688 261.129267 
L 84.384 260.33684 
L 84.74112 261.390816 
L 85.09824 258.63288 
L 85.45536 259.430168 
L 85.81248 259.394679 
L 86.1696 257.132618 
L 86.88384 257.398543 
L 87.24096 256.064058 
L 87.59808 256.886625 
L 87.9552 257.370832 
L 88.31232 254.748046 
L 88.66944 255.379071 
L 89.02656 253.619203 
L 89.38368 253.80151 
L 89.7408 252.590021 
L 90.09792 254.771382 
L 90.45504 252.296386 
L 90.81216 251.002252 
L 91.16928 250.371714 
L 91.88352 250.581245 
L 92.24064 249.712493 
L 92.59776 250.559854 
L 92.95488 250.427135 
L 93.312 248.524339 
L 94.74048 246.429028 
L 95.0976 247.77518 
L 95.45472 246.291933 
L 95.81184 246.453821 
L 96.52608 243.113477 
L 96.8832 243.074585 
L 97.24032 242.287992 
L 97.59744 243.305993 
L 97.95456 241.536402 
L 98.31168 241.761004 
L 98.6688 241.571405 
L 99.02592 242.914155 
L 99.38304 242.787269 
L 100.4544 239.79112 
L 100.81152 238.878128 
L 101.16864 237.381268 
L 101.52576 238.709433 
L 101.88288 237.155208 
L 102.24 237.825124 
L 102.59712 237.304457 
L 102.95424 235.07594 
L 103.31136 237.410438 
L 104.0256 235.748287 
L 104.38272 233.221273 
L 104.73984 234.031201 
L 105.09696 235.753148 
L 105.45408 233.152726 
L 105.8112 232.734636 
L 106.16832 231.576624 
L 106.52544 231.71858 
L 106.88256 229.671883 
L 107.23968 228.789519 
L 107.5968 231.164854 
L 107.95392 228.274199 
L 108.31104 231.138601 
L 109.02528 226.839567 
L 109.3824 228.515816 
L 109.73952 226.550307 
L 110.09664 225.439451 
L 110.81088 227.730682 
L 111.168 225.53182 
L 111.52512 224.677166 
L 111.88224 225.643149 
L 112.23936 221.796234 
L 112.59648 226.049085 
L 112.9536 224.978094 
L 113.31072 221.074786 
L 113.66784 223.902241 
L 114.02496 220.593496 
L 114.38208 219.045105 
L 114.7392 222.650888 
L 115.09632 218.088846 
L 115.45344 220.720382 
L 115.81056 217.276973 
L 116.16768 218.769943 
L 116.5248 221.039783 
L 116.88192 216.365926 
L 117.23904 216.267237 
L 117.59616 216.790336 
L 117.95328 214.105323 
L 118.3104 216.40336 
L 118.66752 215.080056 
L 119.02464 214.788852 
L 119.38176 211.903058 
L 119.73888 214.786421 
L 120.096 211.824788 
L 120.45312 213.164621 
L 120.81024 211.833053 
L 121.16736 209.873863 
L 121.52448 213.434921 
L 121.8816 209.929771 
L 122.23872 211.613798 
L 122.59584 211.383363 
L 122.95296 210.681847 
L 123.31008 209.070255 
L 124.02432 209.189363 
L 124.38144 206.609844 
L 124.73856 209.44605 
L 125.09568 204.464459 
L 125.4528 204.161587 
L 125.80992 204.861645 
L 126.16704 207.723617 
L 126.52416 202.764875 
L 126.88128 204.738162 
L 127.2384 205.794083 
L 127.59552 204.831503 
L 127.95264 206.263705 
L 128.30976 201.428932 
L 128.66688 205.245218 
L 129.024 199.514468 
L 129.38112 202.349702 
L 129.73824 198.206235 
L 130.09536 202.979754 
L 130.45248 200.994312 
L 130.8096 200.787212 
L 131.16672 199.650104 
L 131.52384 197.668066 
L 131.88096 198.474105 
L 132.23808 194.869294 
L 132.5952 199.631145 
L 132.95232 200.105628 
L 133.30944 199.889777 
L 133.66656 196.674859 
L 134.02368 192.072466 
L 134.3808 198.391459 
L 134.73792 192.534796 
L 135.45216 192.022393 
L 135.80928 190.546924 
L 136.1664 196.294689 
L 136.52352 194.961663 
L 136.88064 190.47789 
L 137.23776 193.592661 
L 137.59488 188.254721 
L 137.952 193.072479 
L 138.30912 190.915913 
L 138.66624 187.005799 
L 139.02336 187.728219 
L 139.38048 190.830836 
L 139.7376 186.896415 
L 140.09472 188.230414 
L 140.45184 188.656282 
L 140.80896 185.926057 
L 141.16608 188.073873 
L 141.5232 189.060274 
L 141.88032 184.003329 
L 142.23744 187.892539 
L 142.59456 186.723831 
L 142.95168 180.921131 
L 143.3088 186.385956 
L 143.66592 186.28192 
L 144.02304 179.049449 
L 144.38016 180.716461 
L 144.73728 181.29644 
L 145.0944 182.735933 
L 145.45152 179.377115 
L 145.80864 179.063061 
L 146.16576 180.691181 
L 146.52288 178.531698 
L 146.88 181.114619 
L 147.23712 181.381516 
L 147.59424 176.894341 
L 147.95136 179.495736 
L 148.30848 177.27208 
L 148.6656 173.906456 
L 149.02272 174.786875 
L 149.37984 172.669201 
L 149.73696 175.921066 
L 150.09408 175.596803 
L 150.4512 170.053222 
L 150.80832 172.047414 
L 151.16544 169.97641 
L 151.52256 174.158768 
L 151.87968 168.808188 
L 152.2368 167.451827 
L 152.59392 173.575387 
L 152.95104 167.572392 
L 153.30816 166.49897 
L 154.0224 169.024526 
L 154.37952 168.148481 
L 154.73664 171.009481 
L 155.45088 168.468369 
L 155.808 165.682237 
L 156.16512 165.433813 
L 156.52224 168.656023 
L 156.87936 166.843652 
L 157.23648 162.885409 
L 157.5936 164.542698 
L 157.95072 165.4027 
L 158.30784 160.638904 
L 158.66496 158.463864 
L 159.02208 161.302987 
L 159.3792 159.373939 
L 159.73632 158.952932 
L 160.09344 160.456598 
L 160.45056 163.434274 
L 161.1648 158.694786 
L 161.52192 161.79643 
L 162.23616 154.204208 
L 162.59328 153.229961 
L 162.9504 159.450751 
L 163.30752 153.649023 
L 163.66464 154.128854 
L 164.02176 158.245096 
L 164.37888 158.301976 
L 164.736 151.471066 
L 165.09312 157.985005 
L 165.45024 159.337964 
L 165.80736 150.18471 
L 166.16448 156.143465 
L 166.5216 151.856584 
L 166.87872 157.280572 
L 167.23584 150.354863 
L 167.59296 148.460818 
L 167.95008 151.538155 
L 168.3072 156.375845 
L 168.66432 149.049547 
L 169.02144 157.130351 
L 169.37856 149.80697 
L 169.73568 150.141928 
L 170.0928 150.677181 
L 170.44992 147.359685 
L 170.80704 151.880405 
L 171.16416 149.919271 
L 171.52128 149.474443 
L 171.8784 147.853129 
L 172.23552 149.700017 
L 172.59264 150.278051 
L 172.94976 146.31203 
L 173.30688 145.283334 
L 173.664 150.07095 
L 174.02112 144.830727 
L 174.37824 148.380603 
L 174.73536 149.657722 
L 175.09248 152.566364 
L 175.4496 144.812739 
L 175.80672 145.964918 
L 176.16384 147.985848 
L 176.52096 144.549732 
L 176.87808 150.140956 
L 177.2352 147.278984 
L 177.59232 149.09087 
L 177.94944 143.437904 
L 178.30656 149.330056 
L 178.66368 150.292149 
L 179.0208 143.347966 
L 179.37792 152.009721 
L 179.73504 145.516686 
L 180.09216 147.911953 
L 180.44928 142.135991 
L 180.8064 146.087914 
L 181.16352 142.569152 
L 181.52064 147.948901 
L 181.87776 145.134085 
L 182.23488 148.272677 
L 182.592 148.11954 
L 182.94912 149.312555 
L 183.30624 143.442279 
L 183.66336 140.498148 
L 184.02048 146.653308 
L 184.3776 144.631405 
L 184.73472 147.879867 
L 185.09184 139.164149 
L 185.44896 143.982393 
L 185.80608 145.465154 
L 186.1632 145.768026 
L 186.52032 146.593025 
L 186.87744 141.774781 
L 187.59168 137.731948 
L 187.9488 143.497701 
L 188.30592 147.171059 
L 188.66304 139.292979 
L 189.02016 139.25117 
L 189.37728 142.778197 
L 189.7344 142.260446 
L 190.44864 144.714537 
L 190.80576 144.907539 
L 191.16288 141.253141 
L 191.52 142.018343 
L 192.23424 136.533099 
L 192.59136 141.197719 
L 192.94848 141.550665 
L 193.3056 144.239567 
L 193.66272 139.277422 
L 194.01984 136.065422 
L 194.37696 142.784031 
L 194.73408 144.567233 
L 195.0912 137.614299 
L 195.44832 143.37908 
L 195.80544 137.712502 
L 196.16256 137.590964 
L 196.51968 134.333265 
L 196.8768 138.312412 
L 197.23392 139.179706 
L 197.59104 135.892352 
L 197.94816 142.440808 
L 198.30528 140.981382 
L 198.6624 134.41348 
L 199.01952 133.704671 
L 199.37664 132.740634 
L 199.73376 139.579808 
L 200.09088 136.272036 
L 200.448 135.587535 
L 200.80512 136.804857 
L 201.16224 132.370187 
L 201.51936 130.890829 
L 201.87648 131.597206 
L 202.2336 133.657029 
L 202.59072 131.056606 
L 202.94784 133.168447 
L 203.30496 132.269553 
L 203.66208 130.25786 
L 204.0192 130.421693 
L 204.37632 133.986639 
L 204.73344 138.768422 
L 205.09056 129.390566 
L 205.44768 138.284215 
L 205.8048 129.405151 
L 206.16192 131.270026 
L 206.51904 129.245693 
L 206.87616 130.749359 
L 207.23328 128.519869 
L 207.5904 129.779001 
L 207.94752 137.569573 
L 208.30464 132.543256 
L 208.66176 132.588955 
L 209.01888 127.750292 
L 209.376 129.517452 
L 209.73312 132.742092 
L 210.09024 126.018622 
L 210.44736 132.350254 
L 210.80448 132.399842 
L 211.1616 134.446538 
L 211.51872 134.439246 
L 211.87584 132.899119 
L 212.23296 125.203346 
L 212.59008 134.685725 
L 212.9472 125.607338 
L 213.30432 134.712949 
L 213.66144 128.351175 
L 214.01856 130.764429 
L 214.37568 130.637544 
L 214.7328 126.694372 
L 215.08992 125.00451 
L 215.44704 130.428013 
L 215.80416 125.166399 
L 216.16128 131.886466 
L 216.87552 133.097955 
L 217.23264 125.570876 
L 217.58976 130.384745 
L 217.94688 129.055608 
L 218.304 122.821692 
L 219.01824 124.945686 
L 219.37536 132.42658 
L 219.73248 131.034243 
L 220.44672 125.568932 
L 220.80384 124.511553 
L 221.16096 131.538868 
L 221.51808 131.900565 
L 221.8752 123.694333 
L 222.23232 131.408093 
L 222.58944 128.602029 
L 222.94656 119.951455 
L 223.30368 122.901907 
L 223.6608 121.392893 
L 224.01792 126.096892 
L 224.37504 119.843043 
L 224.73216 121.466788 
L 225.08928 129.090611 
L 225.4464 127.110517 
L 225.80352 128.485839 
L 226.16064 120.589285 
L 226.51776 129.500922 
L 226.87488 124.971938 
L 227.232 118.974291 
L 227.58912 125.223764 
L 227.94624 121.030225 
L 228.30336 123.138176 
L 228.66048 118.973805 
L 229.0176 117.347629 
L 229.37472 117.313599 
L 229.73184 125.35697 
L 230.08896 118.85567 
L 230.44608 124.272853 
L 230.8032 118.162905 
L 231.16032 125.972923 
L 231.51744 115.72826 
L 231.87456 120.17946 
L 232.23168 117.13032 
L 232.5888 117.200812 
L 232.94592 120.070562 
L 233.30304 124.479467 
L 233.66016 126.346774 
L 234.01728 115.433652 
L 234.3744 119.648097 
L 234.73152 121.237811 
L 235.08864 115.104042 
L 235.44576 120.260647 
L 235.80288 119.446344 
L 236.16 122.676819 
L 236.51712 119.82068 
L 236.87424 120.23245 
L 237.23136 117.562022 
L 237.58848 119.779358 
L 237.9456 124.000122 
L 238.65984 123.130884 
L 239.01696 116.329629 
L 239.37408 119.457526 
L 239.7312 114.843465 
L 240.08832 118.478417 
L 240.44544 118.845947 
L 240.80256 116.414219 
L 241.15968 121.119676 
L 241.5168 121.052101 
L 241.87392 120.725894 
L 242.23104 119.053534 
L 242.58816 113.115684 
L 242.94528 121.717642 
L 243.3024 113.878455 
L 243.65952 111.754947 
L 244.01664 119.182364 
L 244.37376 119.207158 
L 244.73088 122.565004 
L 245.088 122.51493 
L 245.44512 114.145352 
L 245.80224 114.050066 
L 246.15936 117.821627 
L 246.51648 115.167728 
L 246.8736 111.005301 
L 247.58784 121.336014 
L 247.94496 109.864791 
L 248.30208 115.714162 
L 248.6592 116.253789 
L 249.01632 113.796781 
L 249.37344 108.402448 
L 249.73056 112.98102 
L 250.08768 112.137547 
L 250.4448 116.648058 
L 251.15904 108.281396 
L 251.51616 114.400095 
L 251.87328 108.728169 
L 252.2304 107.112203 
L 252.58752 108.978537 
L 252.94464 109.89396 
L 253.30176 112.177898 
L 253.65888 108.82151 
L 254.016 113.022829 
L 254.37312 114.464267 
L 254.73024 113.352925 
L 255.08736 106.12483 
L 255.44448 118.671419 
L 255.8016 113.385498 
L 256.15872 110.067516 
L 256.51584 117.168726 
L 256.87296 109.703875 
L 257.23008 110.565821 
L 257.5872 116.880924 
L 258.65856 111.252266 
L 259.01568 105.1219 
L 259.3728 109.025208 
L 259.72992 115.248429 
L 260.08704 112.339786 
L 260.44416 106.313943 
L 260.80128 114.708315 
L 261.1584 116.206147 
L 261.87264 104.641097 
L 262.22976 111.247891 
L 262.58688 115.524076 
L 263.30112 109.2396 
L 263.65824 110.350456 
L 264.01536 113.377233 
L 264.37248 105.459775 
L 264.7296 106.353807 
L 265.08672 109.453021 
L 265.44384 107.779202 
L 265.80096 103.555035 
L 266.15808 113.014078 
L 266.5152 105.391228 
L 266.87232 110.509913 
L 267.22944 110.499218 
L 267.94368 101.256512 
L 268.3008 106.635289 
L 268.65792 106.787454 
L 269.01504 106.569658 
L 269.37216 100.342062 
L 270.0864 113.324729 
L 270.44352 106.951773 
L 270.80064 105.48311 
L 271.15776 107.276522 
L 271.51488 106.482151 
L 271.872 102.597803 
L 272.22912 108.451063 
L 272.58624 110.570682 
L 272.94336 106.571117 
L 273.30048 100.630836 
L 273.6576 98.349328 
L 274.01472 101.119904 
L 274.37184 98.739708 
L 274.72896 108.614896 
L 275.08608 109.637272 
L 275.4432 109.105423 
L 275.80032 104.599288 
L 276.51456 98.99202 
L 276.87168 103.285221 
L 277.2288 99.07029 
L 277.94304 96.623978 
L 278.30016 99.727567 
L 278.65728 104.34503 
L 279.0144 96.636618 
L 279.37152 98.194246 
L 279.72864 105.467067 
L 280.08576 99.79028 
L 280.44288 105.237604 
L 280.8 100.226844 
L 281.15712 104.939107 
L 281.51424 106.538545 
L 281.87136 102.292986 
L 282.22848 107.185612 
L 282.5856 96.670648 
L 282.94272 104.609497 
L 283.29984 105.947871 
L 283.65696 106.047532 
L 284.01408 102.788374 
L 284.3712 105.880782 
L 284.72832 101.953167 
L 285.08544 99.704231 
L 285.44256 98.966254 
L 285.79968 104.104872 
L 286.1568 96.057612 
L 286.51392 97.98277 
L 286.87104 93.611299 
L 287.22816 102.040188 
L 287.58528 106.857946 
L 287.9424 106.919687 
L 288.29952 105.857933 
L 288.65664 106.474859 
L 289.01376 103.546284 
L 289.37088 102.737815 
L 289.728 102.755802 
L 290.08512 92.498499 
L 290.44224 102.664406 
L 290.79936 93.165984 
L 291.15648 105.748063 
L 291.5136 101.062052 
L 291.87072 92.089646 
L 292.22784 96.099907 
L 292.58496 92.231116 
L 292.94208 103.950276 
L 293.2992 92.331263 
L 294.01344 104.820972 
L 294.37056 104.35524 
L 295.0848 95.244281 
L 295.44192 93.158692 
L 295.79904 102.416955 
L 296.15616 93.900073 
L 296.51328 96.81941 
L 296.8704 102.660517 
L 297.22752 93.7236 
L 297.58464 101.49424 
L 297.94176 100.259416 
L 298.29888 94.60645 
L 298.656 101.900176 
L 299.01312 97.082904 
L 299.37024 102.270137 
L 299.72736 95.371652 
L 300.08448 101.508825 
L 300.4416 98.467949 
L 300.79872 96.412502 
L 301.15584 95.708555 
L 301.51296 93.620536 
L 301.87008 88.397814 
L 302.2272 101.683353 
L 302.58432 88.583037 
L 302.94144 100.148087 
L 303.29856 90.784816 
L 303.65568 87.693867 
L 304.0128 93.037154 
L 304.36992 87.296195 
L 304.72704 87.800334 
L 305.08416 94.82376 
L 305.44128 97.092141 
L 305.7984 97.163606 
L 306.15552 99.656589 
L 306.51264 89.525198 
L 306.86976 97.879706 
L 307.22688 100.055233 
L 307.584 89.126554 
L 307.94112 98.644422 
L 308.29824 87.791097 
L 308.65536 94.962313 
L 309.01248 86.556759 
L 309.3696 93.264187 
L 309.72672 90.487778 
L 310.08384 89.318098 
L 310.79808 95.922462 
L 311.1552 86.720106 
L 311.51232 87.782347 
L 311.86944 97.067834 
L 312.22656 98.879233 
L 312.58368 88.589844 
L 312.9408 95.711472 
L 313.65504 97.841786 
L 314.01216 87.781374 
L 314.36928 83.853273 
L 314.7264 83.537761 
L 315.08352 93.33322 
L 315.44064 90.683697 
L 315.79776 90.923855 
L 316.15488 84.779877 
L 316.86912 89.765357 
L 317.22624 86.629196 
L 317.58336 91.623427 
L 317.94048 83.757987 
L 318.2976 86.526132 
L 318.65472 90.301582 
L 319.01184 96.404237 
L 319.36896 83.621379 
L 320.0832 95.450895 
L 320.44032 84.448808 
L 320.79744 94.503872 
L 321.15456 86.617042 
L 321.51168 81.745321 
L 321.8688 87.225703 
L 322.22592 88.660336 
L 322.58304 95.145106 
L 322.94016 83.151757 
L 323.29728 81.509538 
L 323.6544 94.463036 
L 324.01152 93.731864 
L 324.36864 87.122153 
L 324.72576 94.113007 
L 325.08288 89.099816 
L 325.44 86.745872 
L 325.79712 80.375347 
L 326.15424 87.894647 
L 326.51136 84.914541 
L 326.86848 86.133808 
L 327.2256 82.103129 
L 327.93984 92.627815 
L 328.29696 81.144925 
L 328.65408 90.946218 
L 329.0112 93.741587 
L 329.36832 87.099304 
L 329.72544 86.803238 
L 330.08256 84.190176 
L 330.43968 88.39198 
L 330.7968 84.297129 
L 331.15392 93.024028 
L 331.51104 80.906711 
L 331.86816 79.67529 
L 332.22528 77.999527 
L 332.5824 89.680767 
L 332.93952 81.701082 
L 333.29664 88.602484 
L 333.65376 89.825154 
L 334.01088 84.210594 
L 334.368 81.182844 
L 334.72512 79.54889 
L 335.08224 80.970396 
L 335.43936 91.46008 
L 336.1536 77.675264 
L 336.86784 90.550491 
L 337.22496 89.641389 
L 337.58208 76.969372 
L 337.9392 89.147459 
L 338.65344 75.791428 
L 339.01056 78.21003 
L 339.36768 77.911047 
L 339.7248 83.952448 
L 340.08192 78.473524 
L 340.43904 77.230436 
L 340.79616 89.879603 
L 341.15328 77.732144 
L 341.5104 75.976166 
L 341.86752 78.996137 
L 342.22464 86.908247 
L 342.58176 87.561634 
L 342.93888 77.433647 
L 343.296 84.580555 
L 343.65312 81.112839 
L 344.01024 86.993809 
L 344.36736 81.438074 
L 344.72448 83.945155 
L 345.0816 83.696732 
L 345.43872 74.857532 
L 345.79584 83.964601 
L 346.51008 72.927512 
L 346.8672 82.298561 
L 347.22432 75.187628 
L 347.58144 82.958269 
L 347.93856 87.388564 
L 348.29568 79.67529 
L 348.6528 79.566392 
L 349.00992 73.565342 
L 349.36704 86.812475 
L 350.08128 83.401152 
L 350.4384 79.872181 
L 350.79552 80.392849 
L 351.15264 72.53616 
L 351.50976 83.071542 
L 351.86688 71.700466 
L 352.224 81.774004 
L 352.58112 71.966391 
L 352.93824 84.225178 
L 353.29536 75.62322 
L 353.65248 85.719121 
L 354.0096 70.860883 
L 354.36672 85.00691 
L 354.72384 71.839991 
L 355.08096 75.775871 
L 355.43808 74.055382 
L 355.7952 84.27671 
L 356.15232 74.787526 
L 356.50944 69.770932 
L 356.86656 82.714707 
L 357.22368 75.335904 
L 357.5808 70.328547 
L 358.29504 82.712762 
L 358.65216 77.511917 
L 359.00928 83.094391 
L 359.3664 69.034413 
L 359.72352 81.886791 
L 360.08064 84.281572 
L 360.43776 79.42006 
L 361.152 81.172149 
L 361.50912 76.015544 
L 361.86624 77.999527 
L 362.22336 83.560124 
L 362.58048 83.363232 
L 362.9376 74.349018 
L 363.29472 80.188179 
L 363.65184 74.56973 
L 364.00896 80.383126 
L 364.36608 76.312096 
L 364.7232 82.468228 
L 365.08032 79.820163 
L 365.79456 69.001841 
L 366.15168 72.792848 
L 366.5088 74.838572 
L 366.86592 69.387845 
L 367.22304 74.454026 
L 367.58016 67.021747 
L 367.93728 81.111866 
L 368.2944 79.48326 
L 368.65152 66.716444 
L 369.00864 71.681506 
L 369.36576 73.783624 
L 369.72288 80.062266 
L 370.08 77.3019 
L 370.79424 70.40147 
L 371.15136 71.007215 
L 371.50848 68.270183 
L 371.8656 70.49238 
L 372.57984 65.059641 
L 372.93696 73.013074 
L 373.29408 68.749529 
L 373.6512 78.574644 
L 374.00832 70.420916 
L 374.36544 75.781219 
L 374.72256 73.783138 
L 375.07968 68.391235 
L 375.4368 79.08413 
L 375.79392 77.507056 
L 376.15104 78.789036 
L 376.86528 66.702346 
L 377.2224 71.886662 
L 377.93664 79.192542 
L 378.29376 76.161389 
L 378.65088 72.05244 
L 379.008 71.641642 
L 379.36512 72.11175 
L 379.72224 76.728728 
L 380.07936 74.556118 
L 380.43648 67.382958 
L 381.15072 74.89691 
L 381.86496 66.499621 
L 382.22208 64.071782 
L 382.5792 66.262379 
L 382.93632 72.371841 
L 383.29344 66.172927 
L 383.65056 71.238622 
L 384.00768 61.554977 
L 384.3648 68.806894 
L 384.72192 73.798208 
L 385.07904 69.460768 
L 385.43616 62.258924 
L 385.79328 67.682427 
L 386.1504 77.273703 
L 386.50752 66.856456 
L 386.86464 69.292073 
L 387.22176 63.063505 
L 387.57888 70.725247 
L 387.936 64.657594 
L 388.29312 69.901707 
L 388.65024 69.077194 
L 389.00736 60.771788 
L 389.36448 71.390788 
L 389.7216 63.476247 
L 390.07872 60.680392 
L 390.43584 67.194817 
L 390.79296 67.327536 
L 391.15008 68.3047 
L 391.5072 69.813227 
L 391.86432 74.951359 
L 392.22144 75.685447 
L 392.57856 74.645084 
L 392.93568 59.004628 
L 393.2928 72.347533 
L 393.64992 70.308615 
L 394.00704 69.099071 
L 394.36416 70.281877 
L 395.0784 66.995495 
L 395.43552 67.047513 
L 395.79264 60.940482 
L 396.14976 71.183201 
L 396.50688 71.154518 
L 396.864 62.524849 
L 397.22112 73.915371 
L 397.57824 61.959941 
L 397.93536 73.894466 
L 398.29248 72.949388 
L 398.6496 61.496639 
L 399.00672 71.106875 
L 399.36384 73.737439 
L 400.4352 61.85785 
L 400.79232 67.419905 
L 401.14944 61.343502 
L 401.50656 64.513693 
L 401.86368 64.14908 
L 402.2208 70.493353 
L 402.57792 57.528674 
L 402.93504 65.538014 
L 403.29216 64.905045 
L 403.64928 70.202634 
L 404.0064 61.116469 
L 404.36352 58.093581 
L 404.72064 68.610489 
L 405.07776 62.55888 
L 405.43488 58.758636 
L 405.792 67.537554 
L 406.14912 61.613316 
L 406.50624 59.881645 
L 406.86336 60.695462 
L 407.22048 62.235589 
L 407.5776 62.612356 
L 407.93472 69.186578 
L 408.29184 69.043164 
L 408.64896 70.961516 
L 409.3632 55.624419 
L 409.72032 68.555068 
L 410.43456 57.685214 
L 410.79168 60.062007 
L 411.1488 54.018176 
L 411.50592 62.83793 
L 411.86304 67.187525 
L 412.22016 67.841884 
L 412.57728 64.728572 
L 412.9344 70.324172 
L 413.29152 53.568 
L 413.64864 58.314294 
L 414.00576 54.971518 
L 414.36288 67.393167 
L 414.72 68.611948 
L 414.72 68.611948 
" style="fill:none;stroke:#000080;stroke-linecap:square;stroke-width:0.5;"/>
   </g>
   <g id="patch_3">
    <path d="M 57.6 307.584 
L 57.6 41.472 
" style="fill:none;stroke:#000000;stroke-linecap:square;stroke-linejoin:miter;stroke-width:0.8;"/>
   </g>
   <g id="patch_4">
    <path d="M 414.72 307.584 
L 414.72 41.472 
" style="fill:none;stroke:#000000;stroke-linecap:square;stroke-linejoin:miter;stroke-width:0.8;"/>
   </g>
   <g id="patch_5">
    <path d="M 57.6 307.584 
L 414.72 307.584 
" style="fill:none;stroke:#000000;stroke-linecap:square;stroke-linejoin:miter;stroke-width:0.8;"/>
   </g>
   <g id="patch_6">
    <path d="M 57.6 41.472 
L 414.72 41.472 
" style="fill:none;stroke:#000000;stroke-linecap:square;stroke-linejoin:miter;stroke-width:0.8;"/>
   </g>
   <g id="text_15">
    <!-- Test -->
    <defs>
     <path d="M -0.296875 72.90625 
L 61.375 72.90625 
L 61.375 64.59375 
L 35.5 64.59375 
L 35.5 0 
L 25.59375 0 
L 25.59375 64.59375 
L -0.296875 64.59375 
z
" id="DejaVuSans-54"/>
    </defs>
    <g transform="translate(223.341563 35.472)scale(0.12 -0.12)">
     <use xlink:href="#DejaVuSans-54"/>
     <use x="60.818359" xlink:href="#DejaVuSans-65"/>
     <use x="122.341797" xlink:href="#DejaVuSans-73"/>
     <use x="174.441406" xlink:href="#DejaVuSans-74"/>
    </g>
   </g>
   <g id="legend_1">
    <g id="patch_7">
     <path d="M 64.6 64.150125 
L 306.276563 64.150125 
Q 308.276563 64.150125 308.276563 62.150125 
L 308.276563 48.472 
Q 308.276563 46.472 306.276563 46.472 
L 64.6 46.472 
Q 62.6 46.472 62.6 48.472 
L 62.6 62.150125 
Q 62.6 64.150125 64.6 64.150125 
z
" style="fill:#ffffff;opacity:0.8;stroke:#cccccc;stroke-linejoin:miter;"/>
    </g>
    <g id="line2d_26">
     <path d="M 66.6 54.570438 
L 86.6 54.570438 
" style="fill:none;stroke:#000080;stroke-linecap:square;stroke-width:0.5;"/>
    </g>
    <g id="line2d_27"/>
    <g id="text_16">
     <!-- Successful download requests per second -->
     <g transform="translate(94.6 58.070438)scale(0.1 -0.1)">
      <use xlink:href="#DejaVuSans-53"/>
      <use x="63.476562" xlink:href="#DejaVuSans-75"/>
      <use x="126.855469" xlink:href="#DejaVuSans-63"/>
      <use x="181.835938" xlink:href="#DejaVuSans-63"/>
      <use x="236.816406" xlink:href="#DejaVuSans-65"/>
      <use x="298.339844" xlink:href="#DejaVuSans-73"/>
      <use x="350.439453" xlink:href="#DejaVuSans-73"/>
      <use x="402.539062" xlink:href="#DejaVuSans-66"/>
      <use x="437.744141" xlink:href="#DejaVuSans-75"/>
      <use x="501.123047" xlink:href="#DejaVuSans-6c"/>
      <use x="528.90625" xlink:href="#DejaVuSans-20"/>
      <use x="560.693359" xlink:href="#DejaVuSans-64"/>
      <use x="624.169922" xlink:href="#DejaVuSans-6f"/>
      <use x="685.351562" xlink:href="#DejaVuSans-77"/>
      <use x="767.138672" xlink:href="#DejaVuSans-6e"/>
      <use x="830.517578" xlink:href="#DejaVuSans-6c"/>
      <use x="858.300781" xlink:href="#DejaVuSans-6f"/>
      <use x="919.482422" xlink:href="#DejaVuSans-61"/>
      <use x="980.761719" xlink:href="#DejaVuSans-64"/>
      <use x="1044.238281" xlink:href="#DejaVuSans-20"/>
      <use x="1076.025391" xlink:href="#DejaVuSans-72"/>
      <use x="1117.107422" xlink:href="#DejaVuSans-65"/>
      <use x="1178.630859" xlink:href="#DejaVuSans-71"/>
      <use x="1242.107422" xlink:href="#DejaVuSans-75"/>
      <use x="1305.486328" xlink:href="#DejaVuSans-65"/>
      <use x="1367.009766" xlink:href="#DejaVuSans-73"/>
      <use x="1419.109375" xlink:href="#DejaVuSans-74"/>
      <use x="1458.318359" xlink:href="#DejaVuSans-73"/>
      <use x="1510.417969" xlink:href="#DejaVuSans-20"/>
      <use x="1542.205078" xlink:href="#DejaVuSans-70"/>
      <use x="1605.681641" xlink:href="#DejaVuSans-65"/>
      <use x="1667.205078" xlink:href="#DejaVuSans-72"/>
      <use x="1708.318359" xlink:href="#DejaVuSans-20"/>
      <use x="1740.105469" xlink:href="#DejaVuSans-73"/>
      <use x="1792.205078" xlink:href="#DejaVuSans-65"/>
      <use x="1853.728516" xlink:href="#DejaVuSans-63"/>
      <use x="1908.708984" xlink:href="#DejaVuSans-6f"/>
      <use x="1969.890625" xlink:href="#DejaVuSans-6e"/>
      <use x="2033.269531" xlink:href="#DejaVuSans-64"/>
     </g>
    </g>
   </g>
  </g>
 </g>
 <defs>
  <clipPath id="pe23e95cc57">
   <rect height="266.112" width="357.12" x="57.6" y="41.472"/>
  </clipPath>
 </defs>
</svg>
