<?xml version="1.0" encoding="utf-8" standalone="no"?>
<!DOCTYPE svg PUBLIC "-//W3C//DTD SVG 1.1//EN"
  "http://www.w3.org/Graphics/SVG/1.1/DTD/svg11.dtd">
<!-- Created with matplotlib (http://matplotlib.org/) -->
<svg height="345pt" version="1.1" viewBox="0 0 460 345" width="460pt" xmlns="http://www.w3.org/2000/svg" xmlns:xlink="http://www.w3.org/1999/xlink">
 <defs>
  <style type="text/css">
*{stroke-linecap:butt;stroke-linejoin:round;}
  </style>
 </defs>
 <g id="figure_1">
  <g id="patch_1">
   <path d="M 0 345.6 
L 460.8 345.6 
L 460.8 0 
L 0 0 
z
" style="fill:#ffffff;"/>
  </g>
  <g id="axes_1">
   <g id="patch_2">
    <path d="M 57.6 307.584 
L 414.72 307.584 
L 414.72 41.472 
L 57.6 41.472 
z
" style="fill:#ffffff;"/>
   </g>
   <g id="matplotlib.axis_1">
    <g id="xtick_1">
     <g id="line2d_1">
      <path clip-path="url(#p34ab750ae6)" d="M 57.6 307.584 
L 57.6 41.472 
" style="fill:none;stroke:#b0b0b0;stroke-linecap:square;stroke-width:0.8;"/>
     </g>
     <g id="line2d_2">
      <defs>
       <path d="M 0 0 
L 0 3.5 
" id="mb52e940f55" style="stroke:#000000;stroke-width:0.8;"/>
      </defs>
      <g>
       <use style="stroke:#000000;stroke-width:0.8;" x="57.6" xlink:href="#mb52e940f55" y="307.584"/>
      </g>
     </g>
     <g id="text_1">
      <!-- 0 -->
      <defs>
       <path d="M 31.78125 66.40625 
Q 24.171875 66.40625 20.328125 58.90625 
Q 16.5 51.421875 16.5 36.375 
Q 16.5 21.390625 20.328125 13.890625 
Q 24.171875 6.390625 31.78125 6.390625 
Q 39.453125 6.390625 43.28125 13.890625 
Q 47.125 21.390625 47.125 36.375 
Q 47.125 51.421875 43.28125 58.90625 
Q 39.453125 66.40625 31.78125 66.40625 
M 31.78125 74.21875 
Q 44.046875 74.21875 50.515625 64.515625 
Q 56.984375 54.828125 56.984375 36.375 
Q 56.984375 17.96875 50.515625 8.265625 
Q 44.046875 -1.421875 31.78125 -1.421875 
Q 19.53125 -1.421875 13.0625 8.265625 
Q 6.59375 17.96875 6.59375 36.375 
Q 6.59375 54.828125 13.0625 64.515625 
Q 19.53125 74.21875 31.78125 74.21875 
" id="DejaVuSans-30"/>
      </defs>
      <g transform="translate(54.41875 322.182437)scale(0.1 -0.1)">
       <use xlink:href="#DejaVuSans-30"/>
      </g>
     </g>
    </g>
    <g id="xtick_2">
     <g id="line2d_3">
      <path clip-path="url(#p34ab750ae6)" d="M 129.024 307.584 
L 129.024 41.472 
" style="fill:none;stroke:#b0b0b0;stroke-linecap:square;stroke-width:0.8;"/>
     </g>
     <g id="line2d_4">
      <g>
       <use style="stroke:#000000;stroke-width:0.8;" x="129.024" xlink:href="#mb52e940f55" y="307.584"/>
      </g>
     </g>
     <g id="text_2">
      <!-- 200 -->
      <defs>
       <path d="M 19.1875 8.296875 
L 53.609375 8.296875 
L 53.609375 0 
L 7.328125 0 
L 7.328125 8.296875 
Q 12.9375 14.109375 22.625 23.890625 
Q 32.328125 33.6875 34.8125 36.53125 
Q 39.546875 41.84375 41.421875 45.53125 
Q 43.3125 49.21875 43.3125 52.78125 
Q 43.3125 58.59375 39.234375 62.25 
Q 35.15625 65.921875 28.609375 65.921875 
Q 23.96875 65.921875 18.8125 64.3125 
Q 13.671875 62.703125 7.8125 59.421875 
L 7.8125 69.390625 
Q 13.765625 71.78125 18.9375 73 
Q 24.125 74.21875 28.421875 74.21875 
Q 39.75 74.21875 46.484375 68.546875 
Q 53.21875 62.890625 53.21875 53.421875 
Q 53.21875 48.921875 51.53125 44.890625 
Q 49.859375 40.875 45.40625 35.40625 
Q 44.1875 33.984375 37.640625 27.21875 
Q 31.109375 20.453125 19.1875 8.296875 
" id="DejaVuSans-32"/>
      </defs>
      <g transform="translate(119.48025 322.182437)scale(0.1 -0.1)">
       <use xlink:href="#DejaVuSans-32"/>
       <use x="63.623047" xlink:href="#DejaVuSans-30"/>
       <use x="127.246094" xlink:href="#DejaVuSans-30"/>
      </g>
     </g>
    </g>
    <g id="xtick_3">
     <g id="line2d_5">
      <path clip-path="url(#p34ab750ae6)" d="M 200.448 307.584 
L 200.448 41.472 
" style="fill:none;stroke:#b0b0b0;stroke-linecap:square;stroke-width:0.8;"/>
     </g>
     <g id="line2d_6">
      <g>
       <use style="stroke:#000000;stroke-width:0.8;" x="200.448" xlink:href="#mb52e940f55" y="307.584"/>
      </g>
     </g>
     <g id="text_3">
      <!-- 400 -->
      <defs>
       <path d="M 37.796875 64.3125 
L 12.890625 25.390625 
L 37.796875 25.390625 
z
M 35.203125 72.90625 
L 47.609375 72.90625 
L 47.609375 25.390625 
L 58.015625 25.390625 
L 58.015625 17.1875 
L 47.609375 17.1875 
L 47.609375 0 
L 37.796875 0 
L 37.796875 17.1875 
L 4.890625 17.1875 
L 4.890625 26.703125 
z
" id="DejaVuSans-34"/>
      </defs>
      <g transform="translate(190.90425 322.182437)scale(0.1 -0.1)">
       <use xlink:href="#DejaVuSans-34"/>
       <use x="63.623047" xlink:href="#DejaVuSans-30"/>
       <use x="127.246094" xlink:href="#DejaVuSans-30"/>
      </g>
     </g>
    </g>
    <g id="xtick_4">
     <g id="line2d_7">
      <path clip-path="url(#p34ab750ae6)" d="M 271.872 307.584 
L 271.872 41.472 
" style="fill:none;stroke:#b0b0b0;stroke-linecap:square;stroke-width:0.8;"/>
     </g>
     <g id="line2d_8">
      <g>
       <use style="stroke:#000000;stroke-width:0.8;" x="271.872" xlink:href="#mb52e940f55" y="307.584"/>
      </g>
     </g>
     <g id="text_4">
      <!-- 600 -->
      <defs>
       <path d="M 33.015625 40.375 
Q 26.375 40.375 22.484375 35.828125 
Q 18.609375 31.296875 18.609375 23.390625 
Q 18.609375 15.53125 22.484375 10.953125 
Q 26.375 6.390625 33.015625 6.390625 
Q 39.65625 6.390625 43.53125 10.953125 
Q 47.40625 15.53125 47.40625 23.390625 
Q 47.40625 31.296875 43.53125 35.828125 
Q 39.65625 40.375 33.015625 40.375 
M 52.59375 71.296875 
L 52.59375 62.3125 
Q 48.875 64.0625 45.09375 64.984375 
Q 41.3125 65.921875 37.59375 65.921875 
Q 27.828125 65.921875 22.671875 59.328125 
Q 17.53125 52.734375 16.796875 39.40625 
Q 19.671875 43.65625 24.015625 45.921875 
Q 28.375 48.1875 33.59375 48.1875 
Q 44.578125 48.1875 50.953125 41.515625 
Q 57.328125 34.859375 57.328125 23.390625 
Q 57.328125 12.15625 50.6875 5.359375 
Q 44.046875 -1.421875 33.015625 -1.421875 
Q 20.359375 -1.421875 13.671875 8.265625 
Q 6.984375 17.96875 6.984375 36.375 
Q 6.984375 53.65625 15.1875 63.9375 
Q 23.390625 74.21875 37.203125 74.21875 
Q 40.921875 74.21875 44.703125 73.484375 
Q 48.484375 72.75 52.59375 71.296875 
" id="DejaVuSans-36"/>
      </defs>
      <g transform="translate(262.32825 322.182437)scale(0.1 -0.1)">
       <use xlink:href="#DejaVuSans-36"/>
       <use x="63.623047" xlink:href="#DejaVuSans-30"/>
       <use x="127.246094" xlink:href="#DejaVuSans-30"/>
      </g>
     </g>
    </g>
    <g id="xtick_5">
     <g id="line2d_9">
      <path clip-path="url(#p34ab750ae6)" d="M 343.296 307.584 
L 343.296 41.472 
" style="fill:none;stroke:#b0b0b0;stroke-linecap:square;stroke-width:0.8;"/>
     </g>
     <g id="line2d_10">
      <g>
       <use style="stroke:#000000;stroke-width:0.8;" x="343.296" xlink:href="#mb52e940f55" y="307.584"/>
      </g>
     </g>
     <g id="text_5">
      <!-- 800 -->
      <defs>
       <path d="M 31.78125 34.625 
Q 24.75 34.625 20.71875 30.859375 
Q 16.703125 27.09375 16.703125 20.515625 
Q 16.703125 13.921875 20.71875 10.15625 
Q 24.75 6.390625 31.78125 6.390625 
Q 38.8125 6.390625 42.859375 10.171875 
Q 46.921875 13.96875 46.921875 20.515625 
Q 46.921875 27.09375 42.890625 30.859375 
Q 38.875 34.625 31.78125 34.625 
M 21.921875 38.8125 
Q 15.578125 40.375 12.03125 44.71875 
Q 8.5 49.078125 8.5 55.328125 
Q 8.5 64.0625 14.71875 69.140625 
Q 20.953125 74.21875 31.78125 74.21875 
Q 42.671875 74.21875 48.875 69.140625 
Q 55.078125 64.0625 55.078125 55.328125 
Q 55.078125 49.078125 51.53125 44.71875 
Q 48 40.375 41.703125 38.8125 
Q 48.828125 37.15625 52.796875 32.3125 
Q 56.78125 27.484375 56.78125 20.515625 
Q 56.78125 9.90625 50.3125 4.234375 
Q 43.84375 -1.421875 31.78125 -1.421875 
Q 19.734375 -1.421875 13.25 4.234375 
Q 6.78125 9.90625 6.78125 20.515625 
Q 6.78125 27.484375 10.78125 32.3125 
Q 14.796875 37.15625 21.921875 38.8125 
M 18.3125 54.390625 
Q 18.3125 48.734375 21.84375 45.5625 
Q 25.390625 42.390625 31.78125 42.390625 
Q 38.140625 42.390625 41.71875 45.5625 
Q 45.3125 48.734375 45.3125 54.390625 
Q 45.3125 60.0625 41.71875 63.234375 
Q 38.140625 66.40625 31.78125 66.40625 
Q 25.390625 66.40625 21.84375 63.234375 
Q 18.3125 60.0625 18.3125 54.390625 
" id="DejaVuSans-38"/>
      </defs>
      <g transform="translate(333.75225 322.182437)scale(0.1 -0.1)">
       <use xlink:href="#DejaVuSans-38"/>
       <use x="63.623047" xlink:href="#DejaVuSans-30"/>
       <use x="127.246094" xlink:href="#DejaVuSans-30"/>
      </g>
     </g>
    </g>
    <g id="xtick_6">
     <g id="line2d_11">
      <path clip-path="url(#p34ab750ae6)" d="M 414.72 307.584 
L 414.72 41.472 
" style="fill:none;stroke:#b0b0b0;stroke-linecap:square;stroke-width:0.8;"/>
     </g>
     <g id="line2d_12">
      <g>
       <use style="stroke:#000000;stroke-width:0.8;" x="414.72" xlink:href="#mb52e940f55" y="307.584"/>
      </g>
     </g>
     <g id="text_6">
      <!-- 1000 -->
      <defs>
       <path d="M 12.40625 8.296875 
L 28.515625 8.296875 
L 28.515625 63.921875 
L 10.984375 60.40625 
L 10.984375 69.390625 
L 28.421875 72.90625 
L 38.28125 72.90625 
L 38.28125 8.296875 
L 54.390625 8.296875 
L 54.390625 0 
L 12.40625 0 
z
" id="DejaVuSans-31"/>
      </defs>
      <g transform="translate(401.995 322.182437)scale(0.1 -0.1)">
       <use xlink:href="#DejaVuSans-31"/>
       <use x="63.623047" xlink:href="#DejaVuSans-30"/>
       <use x="127.246094" xlink:href="#DejaVuSans-30"/>
       <use x="190.869141" xlink:href="#DejaVuSans-30"/>
      </g>
     </g>
    </g>
    <g id="text_7">
     <!-- Number of clients -->
     <defs>
      <path d="M 9.8125 72.90625 
L 23.09375 72.90625 
L 55.421875 11.921875 
L 55.421875 72.90625 
L 64.984375 72.90625 
L 64.984375 0 
L 51.703125 0 
L 19.390625 60.984375 
L 19.390625 0 
L 9.8125 0 
z
" id="DejaVuSans-4e"/>
      <path d="M 8.5 21.578125 
L 8.5 54.6875 
L 17.484375 54.6875 
L 17.484375 21.921875 
Q 17.484375 14.15625 20.5 10.265625 
Q 23.53125 6.390625 29.59375 6.390625 
Q 36.859375 6.390625 41.078125 11.03125 
Q 45.3125 15.671875 45.3125 23.6875 
L 45.3125 54.6875 
L 54.296875 54.6875 
L 54.296875 0 
L 45.3125 0 
L 45.3125 8.40625 
Q 42.046875 3.421875 37.71875 1 
Q 33.40625 -1.421875 27.6875 -1.421875 
Q 18.265625 -1.421875 13.375 4.4375 
Q 8.5 10.296875 8.5 21.578125 
M 31.109375 56 
z
" id="DejaVuSans-75"/>
      <path d="M 52 44.1875 
Q 55.375 50.25 60.0625 53.125 
Q 64.75 56 71.09375 56 
Q 79.640625 56 84.28125 50.015625 
Q 88.921875 44.046875 88.921875 33.015625 
L 88.921875 0 
L 79.890625 0 
L 79.890625 32.71875 
Q 79.890625 40.578125 77.09375 44.375 
Q 74.3125 48.1875 68.609375 48.1875 
Q 61.625 48.1875 57.5625 43.546875 
Q 53.515625 38.921875 53.515625 30.90625 
L 53.515625 0 
L 44.484375 0 
L 44.484375 32.71875 
Q 44.484375 40.625 41.703125 44.40625 
Q 38.921875 48.1875 33.109375 48.1875 
Q 26.21875 48.1875 22.15625 43.53125 
Q 18.109375 38.875 18.109375 30.90625 
L 18.109375 0 
L 9.078125 0 
L 9.078125 54.6875 
L 18.109375 54.6875 
L 18.109375 46.1875 
Q 21.1875 51.21875 25.484375 53.609375 
Q 29.78125 56 35.6875 56 
Q 41.65625 56 45.828125 52.96875 
Q 50 49.953125 52 44.1875 
" id="DejaVuSans-6d"/>
      <path d="M 48.6875 27.296875 
Q 48.6875 37.203125 44.609375 42.84375 
Q 40.53125 48.484375 33.40625 48.484375 
Q 26.265625 48.484375 22.1875 42.84375 
Q 18.109375 37.203125 18.109375 27.296875 
Q 18.109375 17.390625 22.1875 11.75 
Q 26.265625 6.109375 33.40625 6.109375 
Q 40.53125 6.109375 44.609375 11.75 
Q 48.6875 17.390625 48.6875 27.296875 
M 18.109375 46.390625 
Q 20.953125 51.265625 25.265625 53.625 
Q 29.59375 56 35.59375 56 
Q 45.5625 56 51.78125 48.09375 
Q 58.015625 40.1875 58.015625 27.296875 
Q 58.015625 14.40625 51.78125 6.484375 
Q 45.5625 -1.421875 35.59375 -1.421875 
Q 29.59375 -1.421875 25.265625 0.953125 
Q 20.953125 3.328125 18.109375 8.203125 
L 18.109375 0 
L 9.078125 0 
L 9.078125 75.984375 
L 18.109375 75.984375 
z
" id="DejaVuSans-62"/>
      <path d="M 56.203125 29.59375 
L 56.203125 25.203125 
L 14.890625 25.203125 
Q 15.484375 15.921875 20.484375 11.0625 
Q 25.484375 6.203125 34.421875 6.203125 
Q 39.59375 6.203125 44.453125 7.46875 
Q 49.3125 8.734375 54.109375 11.28125 
L 54.109375 2.78125 
Q 49.265625 0.734375 44.1875 -0.34375 
Q 39.109375 -1.421875 33.890625 -1.421875 
Q 20.796875 -1.421875 13.15625 6.1875 
Q 5.515625 13.8125 5.515625 26.8125 
Q 5.515625 40.234375 12.765625 48.109375 
Q 20.015625 56 32.328125 56 
Q 43.359375 56 49.78125 48.890625 
Q 56.203125 41.796875 56.203125 29.59375 
M 47.21875 32.234375 
Q 47.125 39.59375 43.09375 43.984375 
Q 39.0625 48.390625 32.421875 48.390625 
Q 24.90625 48.390625 20.390625 44.140625 
Q 15.875 39.890625 15.1875 32.171875 
z
" id="DejaVuSans-65"/>
      <path d="M 41.109375 46.296875 
Q 39.59375 47.171875 37.8125 47.578125 
Q 36.03125 48 33.890625 48 
Q 26.265625 48 22.1875 43.046875 
Q 18.109375 38.09375 18.109375 28.8125 
L 18.109375 0 
L 9.078125 0 
L 9.078125 54.6875 
L 18.109375 54.6875 
L 18.109375 46.1875 
Q 20.953125 51.171875 25.484375 53.578125 
Q 30.03125 56 36.53125 56 
Q 37.453125 56 38.578125 55.875 
Q 39.703125 55.765625 41.0625 55.515625 
z
" id="DejaVuSans-72"/>
      <path id="DejaVuSans-20"/>
      <path d="M 30.609375 48.390625 
Q 23.390625 48.390625 19.1875 42.75 
Q 14.984375 37.109375 14.984375 27.296875 
Q 14.984375 17.484375 19.15625 11.84375 
Q 23.34375 6.203125 30.609375 6.203125 
Q 37.796875 6.203125 41.984375 11.859375 
Q 46.1875 17.53125 46.1875 27.296875 
Q 46.1875 37.015625 41.984375 42.703125 
Q 37.796875 48.390625 30.609375 48.390625 
M 30.609375 56 
Q 42.328125 56 49.015625 48.375 
Q 55.71875 40.765625 55.71875 27.296875 
Q 55.71875 13.875 49.015625 6.21875 
Q 42.328125 -1.421875 30.609375 -1.421875 
Q 18.84375 -1.421875 12.171875 6.21875 
Q 5.515625 13.875 5.515625 27.296875 
Q 5.515625 40.765625 12.171875 48.375 
Q 18.84375 56 30.609375 56 
" id="DejaVuSans-6f"/>
      <path d="M 37.109375 75.984375 
L 37.109375 68.5 
L 28.515625 68.5 
Q 23.6875 68.5 21.796875 66.546875 
Q 19.921875 64.59375 19.921875 59.515625 
L 19.921875 54.6875 
L 34.71875 54.6875 
L 34.71875 47.703125 
L 19.921875 47.703125 
L 19.921875 0 
L 10.890625 0 
L 10.890625 47.703125 
L 2.296875 47.703125 
L 2.296875 54.6875 
L 10.890625 54.6875 
L 10.890625 58.5 
Q 10.890625 67.625 15.140625 71.796875 
Q 19.390625 75.984375 28.609375 75.984375 
z
" id="DejaVuSans-66"/>
      <path d="M 48.78125 52.59375 
L 48.78125 44.1875 
Q 44.96875 46.296875 41.140625 47.34375 
Q 37.3125 48.390625 33.40625 48.390625 
Q 24.65625 48.390625 19.8125 42.84375 
Q 14.984375 37.3125 14.984375 27.296875 
Q 14.984375 17.28125 19.8125 11.734375 
Q 24.65625 6.203125 33.40625 6.203125 
Q 37.3125 6.203125 41.140625 7.25 
Q 44.96875 8.296875 48.78125 10.40625 
L 48.78125 2.09375 
Q 45.015625 0.34375 40.984375 -0.53125 
Q 36.96875 -1.421875 32.421875 -1.421875 
Q 20.0625 -1.421875 12.78125 6.34375 
Q 5.515625 14.109375 5.515625 27.296875 
Q 5.515625 40.671875 12.859375 48.328125 
Q 20.21875 56 33.015625 56 
Q 37.15625 56 41.109375 55.140625 
Q 45.0625 54.296875 48.78125 52.59375 
" id="DejaVuSans-63"/>
      <path d="M 9.421875 75.984375 
L 18.40625 75.984375 
L 18.40625 0 
L 9.421875 0 
z
" id="DejaVuSans-6c"/>
      <path d="M 9.421875 54.6875 
L 18.40625 54.6875 
L 18.40625 0 
L 9.421875 0 
z
M 9.421875 75.984375 
L 18.40625 75.984375 
L 18.40625 64.59375 
L 9.421875 64.59375 
z
" id="DejaVuSans-69"/>
      <path d="M 54.890625 33.015625 
L 54.890625 0 
L 45.90625 0 
L 45.90625 32.71875 
Q 45.90625 40.484375 42.875 44.328125 
Q 39.84375 48.1875 33.796875 48.1875 
Q 26.515625 48.1875 22.3125 43.546875 
Q 18.109375 38.921875 18.109375 30.90625 
L 18.109375 0 
L 9.078125 0 
L 9.078125 54.6875 
L 18.109375 54.6875 
L 18.109375 46.1875 
Q 21.34375 51.125 25.703125 53.5625 
Q 30.078125 56 35.796875 56 
Q 45.21875 56 50.046875 50.171875 
Q 54.890625 44.34375 54.890625 33.015625 
" id="DejaVuSans-6e"/>
      <path d="M 18.3125 70.21875 
L 18.3125 54.6875 
L 36.8125 54.6875 
L 36.8125 47.703125 
L 18.3125 47.703125 
L 18.3125 18.015625 
Q 18.3125 11.328125 20.140625 9.421875 
Q 21.96875 7.515625 27.59375 7.515625 
L 36.8125 7.515625 
L 36.8125 0 
L 27.59375 0 
Q 17.1875 0 13.234375 3.875 
Q 9.28125 7.765625 9.28125 18.015625 
L 9.28125 47.703125 
L 2.6875 47.703125 
L 2.6875 54.6875 
L 9.28125 54.6875 
L 9.28125 70.21875 
z
" id="DejaVuSans-74"/>
      <path d="M 44.28125 53.078125 
L 44.28125 44.578125 
Q 40.484375 46.53125 36.375 47.5 
Q 32.28125 48.484375 27.875 48.484375 
Q 21.1875 48.484375 17.84375 46.4375 
Q 14.5 44.390625 14.5 40.28125 
Q 14.5 37.15625 16.890625 35.375 
Q 19.28125 33.59375 26.515625 31.984375 
L 29.59375 31.296875 
Q 39.15625 29.25 43.1875 25.515625 
Q 47.21875 21.78125 47.21875 15.09375 
Q 47.21875 7.46875 41.1875 3.015625 
Q 35.15625 -1.421875 24.609375 -1.421875 
Q 20.21875 -1.421875 15.453125 -0.5625 
Q 10.6875 0.296875 5.421875 2 
L 5.421875 11.28125 
Q 10.40625 8.6875 15.234375 7.390625 
Q 20.0625 6.109375 24.8125 6.109375 
Q 31.15625 6.109375 34.5625 8.28125 
Q 37.984375 10.453125 37.984375 14.40625 
Q 37.984375 18.0625 35.515625 20.015625 
Q 33.0625 21.96875 24.703125 23.78125 
L 21.578125 24.515625 
Q 13.234375 26.265625 9.515625 29.90625 
Q 5.8125 33.546875 5.8125 39.890625 
Q 5.8125 47.609375 11.28125 51.796875 
Q 16.75 56 26.8125 56 
Q 31.78125 56 36.171875 55.265625 
Q 40.578125 54.546875 44.28125 53.078125 
" id="DejaVuSans-73"/>
     </defs>
     <g transform="translate(191.738906 335.860562)scale(0.1 -0.1)">
      <use xlink:href="#DejaVuSans-4e"/>
      <use x="74.804688" xlink:href="#DejaVuSans-75"/>
      <use x="138.183594" xlink:href="#DejaVuSans-6d"/>
      <use x="235.595703" xlink:href="#DejaVuSans-62"/>
      <use x="299.072266" xlink:href="#DejaVuSans-65"/>
      <use x="360.595703" xlink:href="#DejaVuSans-72"/>
      <use x="401.708984" xlink:href="#DejaVuSans-20"/>
      <use x="433.496094" xlink:href="#DejaVuSans-6f"/>
      <use x="494.677734" xlink:href="#DejaVuSans-66"/>
      <use x="529.882812" xlink:href="#DejaVuSans-20"/>
      <use x="561.669922" xlink:href="#DejaVuSans-63"/>
      <use x="616.650391" xlink:href="#DejaVuSans-6c"/>
      <use x="644.433594" xlink:href="#DejaVuSans-69"/>
      <use x="672.216797" xlink:href="#DejaVuSans-65"/>
      <use x="733.740234" xlink:href="#DejaVuSans-6e"/>
      <use x="797.119141" xlink:href="#DejaVuSans-74"/>
      <use x="836.328125" xlink:href="#DejaVuSans-73"/>
     </g>
    </g>
   </g>
   <g id="matplotlib.axis_2">
    <g id="ytick_1">
     <g id="line2d_13">
      <path clip-path="url(#p34ab750ae6)" d="M 57.6 296.811673 
L 414.72 296.811673 
" style="fill:none;stroke:#b0b0b0;stroke-linecap:square;stroke-width:0.8;"/>
     </g>
     <g id="line2d_14">
      <defs>
       <path d="M 0 0 
L -3.5 0 
" id="mef53f807e9" style="stroke:#000000;stroke-width:0.8;"/>
      </defs>
      <g>
       <use style="stroke:#000000;stroke-width:0.8;" x="57.6" xlink:href="#mef53f807e9" y="296.811673"/>
      </g>
     </g>
     <g id="text_8">
      <!-- 0 -->
      <g transform="translate(44.2375 300.610892)scale(0.1 -0.1)">
       <use xlink:href="#DejaVuSans-30"/>
      </g>
     </g>
    </g>
    <g id="ytick_2">
     <g id="line2d_15">
      <path clip-path="url(#p34ab750ae6)" d="M 57.6 262.124222 
L 414.72 262.124222 
" style="fill:none;stroke:#b0b0b0;stroke-linecap:square;stroke-width:0.8;"/>
     </g>
     <g id="line2d_16">
      <g>
       <use style="stroke:#000000;stroke-width:0.8;" x="57.6" xlink:href="#mef53f807e9" y="262.124222"/>
      </g>
     </g>
     <g id="text_9">
      <!-- 25 -->
      <defs>
       <path d="M 10.796875 72.90625 
L 49.515625 72.90625 
L 49.515625 64.59375 
L 19.828125 64.59375 
L 19.828125 46.734375 
Q 21.96875 47.46875 24.109375 47.828125 
Q 26.265625 48.1875 28.421875 48.1875 
Q 40.625 48.1875 47.75 41.5 
Q 54.890625 34.8125 54.890625 23.390625 
Q 54.890625 11.625 47.5625 5.09375 
Q 40.234375 -1.421875 26.90625 -1.421875 
Q 22.3125 -1.421875 17.546875 -0.640625 
Q 12.796875 0.140625 7.71875 1.703125 
L 7.71875 11.625 
Q 12.109375 9.234375 16.796875 8.0625 
Q 21.484375 6.890625 26.703125 6.890625 
Q 35.15625 6.890625 40.078125 11.328125 
Q 45.015625 15.765625 45.015625 23.390625 
Q 45.015625 31 40.078125 35.4375 
Q 35.15625 39.890625 26.703125 39.890625 
Q 22.75 39.890625 18.8125 39.015625 
Q 14.890625 38.140625 10.796875 36.28125 
z
" id="DejaVuSans-35"/>
      </defs>
      <g transform="translate(37.875 265.92344)scale(0.1 -0.1)">
       <use xlink:href="#DejaVuSans-32"/>
       <use x="63.623047" xlink:href="#DejaVuSans-35"/>
      </g>
     </g>
    </g>
    <g id="ytick_3">
     <g id="line2d_17">
      <path clip-path="url(#p34ab750ae6)" d="M 57.6 227.43677 
L 414.72 227.43677 
" style="fill:none;stroke:#b0b0b0;stroke-linecap:square;stroke-width:0.8;"/>
     </g>
     <g id="line2d_18">
      <g>
       <use style="stroke:#000000;stroke-width:0.8;" x="57.6" xlink:href="#mef53f807e9" y="227.43677"/>
      </g>
     </g>
     <g id="text_10">
      <!-- 50 -->
      <g transform="translate(37.875 231.235989)scale(0.1 -0.1)">
       <use xlink:href="#DejaVuSans-35"/>
       <use x="63.623047" xlink:href="#DejaVuSans-30"/>
      </g>
     </g>
    </g>
    <g id="ytick_4">
     <g id="line2d_19">
      <path clip-path="url(#p34ab750ae6)" d="M 57.6 192.749318 
L 414.72 192.749318 
" style="fill:none;stroke:#b0b0b0;stroke-linecap:square;stroke-width:0.8;"/>
     </g>
     <g id="line2d_20">
      <g>
       <use style="stroke:#000000;stroke-width:0.8;" x="57.6" xlink:href="#mef53f807e9" y="192.749318"/>
      </g>
     </g>
     <g id="text_11">
      <!-- 75 -->
      <defs>
       <path d="M 8.203125 72.90625 
L 55.078125 72.90625 
L 55.078125 68.703125 
L 28.609375 0 
L 18.3125 0 
L 43.21875 64.59375 
L 8.203125 64.59375 
z
" id="DejaVuSans-37"/>
      </defs>
      <g transform="translate(37.875 196.548537)scale(0.1 -0.1)">
       <use xlink:href="#DejaVuSans-37"/>
       <use x="63.623047" xlink:href="#DejaVuSans-35"/>
      </g>
     </g>
    </g>
    <g id="ytick_5">
     <g id="line2d_21">
      <path clip-path="url(#p34ab750ae6)" d="M 57.6 158.061867 
L 414.72 158.061867 
" style="fill:none;stroke:#b0b0b0;stroke-linecap:square;stroke-width:0.8;"/>
     </g>
     <g id="line2d_22">
      <g>
       <use style="stroke:#000000;stroke-width:0.8;" x="57.6" xlink:href="#mef53f807e9" y="158.061867"/>
      </g>
     </g>
     <g id="text_12">
      <!-- 100 -->
      <g transform="translate(31.5125 161.861085)scale(0.1 -0.1)">
       <use xlink:href="#DejaVuSans-31"/>
       <use x="63.623047" xlink:href="#DejaVuSans-30"/>
       <use x="127.246094" xlink:href="#DejaVuSans-30"/>
      </g>
     </g>
    </g>
    <g id="ytick_6">
     <g id="line2d_23">
      <path clip-path="url(#p34ab750ae6)" d="M 57.6 123.374415 
L 414.72 123.374415 
" style="fill:none;stroke:#b0b0b0;stroke-linecap:square;stroke-width:0.8;"/>
     </g>
     <g id="line2d_24">
      <g>
       <use style="stroke:#000000;stroke-width:0.8;" x="57.6" xlink:href="#mef53f807e9" y="123.374415"/>
      </g>
     </g>
     <g id="text_13">
      <!-- 125 -->
      <g transform="translate(31.5125 127.173634)scale(0.1 -0.1)">
       <use xlink:href="#DejaVuSans-31"/>
       <use x="63.623047" xlink:href="#DejaVuSans-32"/>
       <use x="127.246094" xlink:href="#DejaVuSans-35"/>
      </g>
     </g>
    </g>
    <g id="ytick_7">
     <g id="line2d_25">
      <path clip-path="url(#p34ab750ae6)" d="M 57.6 88.686964 
L 414.72 88.686964 
" style="fill:none;stroke:#b0b0b0;stroke-linecap:square;stroke-width:0.8;"/>
     </g>
     <g id="line2d_26">
      <g>
       <use style="stroke:#000000;stroke-width:0.8;" x="57.6" xlink:href="#mef53f807e9" y="88.686964"/>
      </g>
     </g>
     <g id="text_14">
      <!-- 150 -->
      <g transform="translate(31.5125 92.486182)scale(0.1 -0.1)">
       <use xlink:href="#DejaVuSans-31"/>
       <use x="63.623047" xlink:href="#DejaVuSans-35"/>
       <use x="127.246094" xlink:href="#DejaVuSans-30"/>
      </g>
     </g>
    </g>
    <g id="ytick_8">
     <g id="line2d_27">
      <path clip-path="url(#p34ab750ae6)" d="M 57.6 53.999512 
L 414.72 53.999512 
" style="fill:none;stroke:#b0b0b0;stroke-linecap:square;stroke-width:0.8;"/>
     </g>
     <g id="line2d_28">
      <g>
       <use style="stroke:#000000;stroke-width:0.8;" x="57.6" xlink:href="#mef53f807e9" y="53.999512"/>
      </g>
     </g>
     <g id="text_15">
      <!-- 175 -->
      <g transform="translate(31.5125 57.798731)scale(0.1 -0.1)">
       <use xlink:href="#DejaVuSans-31"/>
       <use x="63.623047" xlink:href="#DejaVuSans-37"/>
       <use x="127.246094" xlink:href="#DejaVuSans-35"/>
      </g>
     </g>
    </g>
    <g id="text_16">
     <!-- Successful download requests per second -->
     <defs>
      <path d="M 53.515625 70.515625 
L 53.515625 60.890625 
Q 47.90625 63.578125 42.921875 64.890625 
Q 37.9375 66.21875 33.296875 66.21875 
Q 25.25 66.21875 20.875 63.09375 
Q 16.5 59.96875 16.5 54.203125 
Q 16.5 49.359375 19.40625 46.890625 
Q 22.3125 44.4375 30.421875 42.921875 
L 36.375 41.703125 
Q 47.40625 39.59375 52.65625 34.296875 
Q 57.90625 29 57.90625 20.125 
Q 57.90625 9.515625 50.796875 4.046875 
Q 43.703125 -1.421875 29.984375 -1.421875 
Q 24.8125 -1.421875 18.96875 -0.25 
Q 13.140625 0.921875 6.890625 3.21875 
L 6.890625 13.375 
Q 12.890625 10.015625 18.65625 8.296875 
Q 24.421875 6.59375 29.984375 6.59375 
Q 38.421875 6.59375 43.015625 9.90625 
Q 47.609375 13.234375 47.609375 19.390625 
Q 47.609375 24.75 44.3125 27.78125 
Q 41.015625 30.8125 33.5 32.328125 
L 27.484375 33.5 
Q 16.453125 35.6875 11.515625 40.375 
Q 6.59375 45.0625 6.59375 53.421875 
Q 6.59375 63.09375 13.40625 68.65625 
Q 20.21875 74.21875 32.171875 74.21875 
Q 37.3125 74.21875 42.625 73.28125 
Q 47.953125 72.359375 53.515625 70.515625 
" id="DejaVuSans-53"/>
      <path d="M 45.40625 46.390625 
L 45.40625 75.984375 
L 54.390625 75.984375 
L 54.390625 0 
L 45.40625 0 
L 45.40625 8.203125 
Q 42.578125 3.328125 38.25 0.953125 
Q 33.9375 -1.421875 27.875 -1.421875 
Q 17.96875 -1.421875 11.734375 6.484375 
Q 5.515625 14.40625 5.515625 27.296875 
Q 5.515625 40.1875 11.734375 48.09375 
Q 17.96875 56 27.875 56 
Q 33.9375 56 38.25 53.625 
Q 42.578125 51.265625 45.40625 46.390625 
M 14.796875 27.296875 
Q 14.796875 17.390625 18.875 11.75 
Q 22.953125 6.109375 30.078125 6.109375 
Q 37.203125 6.109375 41.296875 11.75 
Q 45.40625 17.390625 45.40625 27.296875 
Q 45.40625 37.203125 41.296875 42.84375 
Q 37.203125 48.484375 30.078125 48.484375 
Q 22.953125 48.484375 18.875 42.84375 
Q 14.796875 37.203125 14.796875 27.296875 
" id="DejaVuSans-64"/>
      <path d="M 4.203125 54.6875 
L 13.1875 54.6875 
L 24.421875 12.015625 
L 35.59375 54.6875 
L 46.1875 54.6875 
L 57.421875 12.015625 
L 68.609375 54.6875 
L 77.59375 54.6875 
L 63.28125 0 
L 52.6875 0 
L 40.921875 44.828125 
L 29.109375 0 
L 18.5 0 
z
" id="DejaVuSans-77"/>
      <path d="M 34.28125 27.484375 
Q 23.390625 27.484375 19.1875 25 
Q 14.984375 22.515625 14.984375 16.5 
Q 14.984375 11.71875 18.140625 8.90625 
Q 21.296875 6.109375 26.703125 6.109375 
Q 34.1875 6.109375 38.703125 11.40625 
Q 43.21875 16.703125 43.21875 25.484375 
L 43.21875 27.484375 
z
M 52.203125 31.203125 
L 52.203125 0 
L 43.21875 0 
L 43.21875 8.296875 
Q 40.140625 3.328125 35.546875 0.953125 
Q 30.953125 -1.421875 24.3125 -1.421875 
Q 15.921875 -1.421875 10.953125 3.296875 
Q 6 8.015625 6 15.921875 
Q 6 25.140625 12.171875 29.828125 
Q 18.359375 34.515625 30.609375 34.515625 
L 43.21875 34.515625 
L 43.21875 35.40625 
Q 43.21875 41.609375 39.140625 45 
Q 35.0625 48.390625 27.6875 48.390625 
Q 23 48.390625 18.546875 47.265625 
Q 14.109375 46.140625 10.015625 43.890625 
L 10.015625 52.203125 
Q 14.9375 54.109375 19.578125 55.046875 
Q 24.21875 56 28.609375 56 
Q 40.484375 56 46.34375 49.84375 
Q 52.203125 43.703125 52.203125 31.203125 
" id="DejaVuSans-61"/>
      <path d="M 14.796875 27.296875 
Q 14.796875 17.390625 18.875 11.75 
Q 22.953125 6.109375 30.078125 6.109375 
Q 37.203125 6.109375 41.296875 11.75 
Q 45.40625 17.390625 45.40625 27.296875 
Q 45.40625 37.203125 41.296875 42.84375 
Q 37.203125 48.484375 30.078125 48.484375 
Q 22.953125 48.484375 18.875 42.84375 
Q 14.796875 37.203125 14.796875 27.296875 
M 45.40625 8.203125 
Q 42.578125 3.328125 38.25 0.953125 
Q 33.9375 -1.421875 27.875 -1.421875 
Q 17.96875 -1.421875 11.734375 6.484375 
Q 5.515625 14.40625 5.515625 27.296875 
Q 5.515625 40.1875 11.734375 48.09375 
Q 17.96875 56 27.875 56 
Q 33.9375 56 38.25 53.625 
Q 42.578125 51.265625 45.40625 46.390625 
L 45.40625 54.6875 
L 54.390625 54.6875 
L 54.390625 -20.796875 
L 45.40625 -20.796875 
z
" id="DejaVuSans-71"/>
      <path d="M 18.109375 8.203125 
L 18.109375 -20.796875 
L 9.078125 -20.796875 
L 9.078125 54.6875 
L 18.109375 54.6875 
L 18.109375 46.390625 
Q 20.953125 51.265625 25.265625 53.625 
Q 29.59375 56 35.59375 56 
Q 45.5625 56 51.78125 48.09375 
Q 58.015625 40.1875 58.015625 27.296875 
Q 58.015625 14.40625 51.78125 6.484375 
Q 45.5625 -1.421875 35.59375 -1.421875 
Q 29.59375 -1.421875 25.265625 0.953125 
Q 20.953125 3.328125 18.109375 8.203125 
M 48.6875 27.296875 
Q 48.6875 37.203125 44.609375 42.84375 
Q 40.53125 48.484375 33.40625 48.484375 
Q 26.265625 48.484375 22.1875 42.84375 
Q 18.109375 37.203125 18.109375 27.296875 
Q 18.109375 17.390625 22.1875 11.75 
Q 26.265625 6.109375 33.40625 6.109375 
Q 40.53125 6.109375 44.609375 11.75 
Q 48.6875 17.390625 48.6875 27.296875 
" id="DejaVuSans-70"/>
     </defs>
     <g transform="translate(25.432812 279.366281)rotate(-90)scale(0.1 -0.1)">
      <use xlink:href="#DejaVuSans-53"/>
      <use x="63.476562" xlink:href="#DejaVuSans-75"/>
      <use x="126.855469" xlink:href="#DejaVuSans-63"/>
      <use x="181.835938" xlink:href="#DejaVuSans-63"/>
      <use x="236.816406" xlink:href="#DejaVuSans-65"/>
      <use x="298.339844" xlink:href="#DejaVuSans-73"/>
      <use x="350.439453" xlink:href="#DejaVuSans-73"/>
      <use x="402.539062" xlink:href="#DejaVuSans-66"/>
      <use x="437.744141" xlink:href="#DejaVuSans-75"/>
      <use x="501.123047" xlink:href="#DejaVuSans-6c"/>
      <use x="528.90625" xlink:href="#DejaVuSans-20"/>
      <use x="560.693359" xlink:href="#DejaVuSans-64"/>
      <use x="624.169922" xlink:href="#DejaVuSans-6f"/>
      <use x="685.351562" xlink:href="#DejaVuSans-77"/>
      <use x="767.138672" xlink:href="#DejaVuSans-6e"/>
      <use x="830.517578" xlink:href="#DejaVuSans-6c"/>
      <use x="858.300781" xlink:href="#DejaVuSans-6f"/>
      <use x="919.482422" xlink:href="#DejaVuSans-61"/>
      <use x="980.761719" xlink:href="#DejaVuSans-64"/>
      <use x="1044.238281" xlink:href="#DejaVuSans-20"/>
      <use x="1076.025391" xlink:href="#DejaVuSans-72"/>
      <use x="1117.107422" xlink:href="#DejaVuSans-65"/>
      <use x="1178.630859" xlink:href="#DejaVuSans-71"/>
      <use x="1242.107422" xlink:href="#DejaVuSans-75"/>
      <use x="1305.486328" xlink:href="#DejaVuSans-65"/>
      <use x="1367.009766" xlink:href="#DejaVuSans-73"/>
      <use x="1419.109375" xlink:href="#DejaVuSans-74"/>
      <use x="1458.318359" xlink:href="#DejaVuSans-73"/>
      <use x="1510.417969" xlink:href="#DejaVuSans-20"/>
      <use x="1542.205078" xlink:href="#DejaVuSans-70"/>
      <use x="1605.681641" xlink:href="#DejaVuSans-65"/>
      <use x="1667.205078" xlink:href="#DejaVuSans-72"/>
      <use x="1708.318359" xlink:href="#DejaVuSans-20"/>
      <use x="1740.105469" xlink:href="#DejaVuSans-73"/>
      <use x="1792.205078" xlink:href="#DejaVuSans-65"/>
      <use x="1853.728516" xlink:href="#DejaVuSans-63"/>
      <use x="1908.708984" xlink:href="#DejaVuSans-6f"/>
      <use x="1969.890625" xlink:href="#DejaVuSans-6e"/>
      <use x="2033.269531" xlink:href="#DejaVuSans-64"/>
     </g>
    </g>
   </g>
   <g id="line2d_29">
    <path clip-path="url(#p34ab750ae6)" d="M 57.6 295.488 
L 57.95712 295.444988 
L 60.81408 284.60169 
L 61.52832 282.545418 
L 62.24256 278.885198 
L 62.59968 278.695111 
L 62.9568 276.433489 
L 63.31392 276.01169 
L 63.67104 273.461468 
L 64.02816 271.88527 
L 64.38528 271.154059 
L 64.7424 270.024636 
L 65.09952 269.473799 
L 65.81376 265.647079 
L 66.17088 264.659181 
L 66.528 264.287331 
L 67.24224 261.072498 
L 67.59936 258.891351 
L 67.95648 258.244777 
L 68.3136 255.256106 
L 69.74208 250.859125 
L 70.0992 250.959025 
L 70.45632 247.595729 
L 70.81344 246.416356 
L 71.17056 244.222722 
L 71.52768 242.756136 
L 71.8848 242.457824 
L 72.24192 240.330789 
L 72.59904 241.682213 
L 72.95616 237.429531 
L 73.6704 235.811708 
L 74.02752 234.278523 
L 74.38464 235.666021 
L 74.74176 232.6829 
L 75.09888 233.036712 
L 75.456 232.230576 
L 75.81312 230.582228 
L 76.88448 221.960315 
L 77.2416 222.038015 
L 77.95584 218.094745 
L 78.31296 218.522095 
L 78.67008 220.392442 
L 79.0272 216.703085 
L 79.38432 214.6038 
L 79.74144 216.72251 
L 80.09856 213.621452 
L 80.8128 215.343337 
L 81.16992 212.085491 
L 81.52704 212.157641 
L 81.88416 213.610352 
L 82.5984 210.290069 
L 82.95552 211.430592 
L 83.31264 208.200497 
L 83.66976 211.506905 
L 84.02688 210.255381 
L 84.384 208.317047 
L 84.74112 209.41317 
L 85.09824 205.469901 
L 85.45536 208.107534 
L 85.81248 207.079398 
L 86.1696 207.835585 
L 86.52672 202.478455 
L 87.24096 207.123798 
L 87.59808 202.493717 
L 88.31232 201.491944 
L 88.66944 205.465738 
L 89.02656 201.682031 
L 89.38368 202.206505 
L 89.7408 198.845985 
L 90.09792 201.650118 
L 90.45504 197.307249 
L 91.16928 202.572805 
L 91.5264 201.095119 
L 91.88352 197.835886 
L 92.24064 199.693746 
L 92.59776 200.001771 
L 92.95488 194.139591 
L 93.312 198.088411 
L 93.66912 194.740378 
L 94.02624 196.997837 
L 94.38336 196.971475 
L 94.74048 195.226002 
L 95.0976 197.01865 
L 95.45472 192.320581 
L 95.81184 194.743153 
L 96.16896 191.281345 
L 96.52608 189.996522 
L 96.8832 190.469659 
L 97.24032 192.016719 
L 97.59744 195.126103 
L 97.95456 190.582046 
L 98.31168 189.884135 
L 98.6688 190.315647 
L 99.02592 191.227233 
L 99.74016 189.422098 
L 100.09728 187.697438 
L 100.4544 191.349333 
L 101.16864 187.433813 
L 101.52576 184.861392 
L 101.88288 188.749161 
L 102.24 185.996365 
L 102.59712 186.389027 
L 102.95424 186.142053 
L 103.31136 189.086323 
L 103.66848 184.660205 
L 104.0256 183.890143 
L 104.38272 183.812443 
L 104.73984 187.770975 
L 105.09696 183.349019 
L 105.45408 180.379773 
L 105.8112 182.078071 
L 106.16832 180.894535 
L 106.52544 182.262608 
L 106.88256 182.68302 
L 107.23968 183.669531 
L 107.5968 180.526848 
L 107.95392 184.089943 
L 108.31104 183.557144 
L 108.66816 177.744914 
L 109.02528 178.105664 
L 109.3824 181.173422 
L 109.73952 176.665441 
L 110.09664 177.343927 
L 110.45376 182.336145 
L 110.81088 175.416693 
L 111.168 173.594908 
L 111.52512 181.486997 
L 112.23936 172.593134 
L 112.59648 175.587355 
L 112.9536 176.208954 
L 113.31072 171.402661 
L 113.66784 176.056329 
L 114.02496 177.45354 
L 114.38208 176.188141 
L 114.7392 172.877571 
L 115.09632 171.244486 
L 115.45344 172.575096 
L 115.81056 177.30369 
L 116.16768 171.340223 
L 116.5248 173.157846 
L 116.88192 168.770577 
L 117.23904 170.27185 
L 117.59616 173.429795 
L 117.95328 167.849278 
L 118.3104 175.197468 
L 118.66752 171.114061 
L 119.02464 174.251194 
L 119.38176 168.703977 
L 119.73888 172.654184 
L 120.096 168.895452 
L 120.45312 169.088314 
L 120.81024 173.629595 
L 121.16736 168.305765 
L 121.52448 171.014161 
L 122.23872 169.654413 
L 122.59584 168.322415 
L 122.95296 165.282407 
L 123.31008 164.015621 
L 123.6672 164.166858 
L 124.02432 163.868546 
L 124.38144 162.693335 
L 124.73856 165.493306 
L 125.09568 166.797555 
L 125.4528 163.704821 
L 125.80992 168.867702 
L 126.16704 168.244715 
L 126.52416 165.390631 
L 126.88128 167.842341 
L 127.2384 164.971607 
L 127.59552 159.930827 
L 128.30976 166.793392 
L 128.66688 164.146046 
L 129.024 165.725019 
L 129.38112 166.436805 
L 129.73824 163.22336 
L 130.09536 165.050694 
L 130.45248 162.246561 
L 130.8096 163.327422 
L 131.16672 166.213418 
L 131.52384 158.378216 
L 131.88096 159.731027 
L 132.23808 162.79046 
L 132.95232 161.090775 
L 133.66656 154.964971 
L 134.02368 161.056088 
L 134.3808 157.51658 
L 134.73792 163.027722 
L 135.09504 156.843643 
L 135.45216 160.639838 
L 135.80928 156.717381 
L 136.1664 154.355859 
L 136.52352 152.878174 
L 136.88064 158.411516 
L 137.23776 161.056088 
L 137.59488 160.197226 
L 137.952 157.78853 
L 138.30912 158.738966 
L 139.02336 150.698414 
L 139.38048 155.621258 
L 139.7376 156.509256 
L 140.09472 153.904923 
L 140.45184 157.751067 
L 140.80896 158.537779 
L 141.16608 150.450052 
L 141.5232 158.281091 
L 141.88032 152.761624 
L 142.23744 151.349151 
L 142.59456 151.213176 
L 142.95168 152.818512 
L 143.3088 157.781592 
L 143.66592 151.679376 
L 144.02304 148.617167 
L 144.38016 149.353929 
L 144.73728 154.013147 
L 145.0944 155.920957 
L 145.45152 156.593894 
L 145.80864 154.303134 
L 146.16576 154.501547 
L 146.52288 155.188358 
L 146.88 145.688159 
L 147.23712 152.718612 
L 147.95136 151.794538 
L 148.30848 154.816509 
L 149.02272 150.58464 
L 149.37984 143.662412 
L 149.73696 144.612848 
L 150.09408 144.579548 
L 150.4512 147.301819 
L 150.80832 143.672124 
L 151.16544 149.482966 
L 151.52256 149.742428 
L 151.87968 146.667733 
L 152.2368 148.508943 
L 152.59392 151.585026 
L 152.95104 147.132544 
L 153.30816 151.895825 
L 153.66528 142.249939 
L 154.0224 149.623103 
L 154.37952 145.944846 
L 154.73664 144.746048 
L 155.09376 149.732716 
L 155.45088 144.668348 
L 155.808 143.717912 
L 156.16512 139.405568 
L 156.52224 146.183496 
L 156.87936 144.826523 
L 157.23648 139.261268 
L 157.5936 144.209086 
L 157.95072 139.739955 
L 158.30784 138.505082 
L 158.66496 147.501619 
L 159.02208 147.189432 
L 159.73632 142.688388 
L 160.09344 143.198987 
L 160.45056 136.858121 
L 160.80768 140.235292 
L 161.1648 145.262197 
L 161.52192 144.129999 
L 161.87904 136.724921 
L 162.23616 141.421602 
L 162.59328 144.075886 
L 162.9504 138.02362 
L 163.30752 142.742501 
L 163.66464 135.338811 
L 164.02176 136.731859 
L 164.37888 137.665645 
L 164.736 140.467004 
L 165.09312 144.995797 
L 165.45024 138.738181 
L 165.80736 135.731473 
L 166.16448 141.418827 
L 166.5216 137.826595 
L 166.87872 138.099932 
L 167.23584 135.080736 
L 167.59296 135.434548 
L 167.95008 136.892809 
L 168.3072 143.13655 
L 168.66432 136.469622 
L 169.02144 141.643602 
L 169.37856 136.347522 
L 169.73568 136.791521 
L 170.0928 136.483497 
L 170.44992 139.959179 
L 170.80704 131.398316 
L 171.16416 139.72608 
L 171.52128 140.937366 
L 172.23552 133.419901 
L 172.59264 134.28015 
L 172.94976 141.015066 
L 173.30688 139.101706 
L 173.664 134.781037 
L 174.02112 133.304739 
L 174.37824 132.459752 
L 174.73536 130.44788 
L 175.09248 138.373269 
L 175.4496 130.907142 
L 175.80672 134.509087 
L 176.16384 130.76978 
L 176.52096 128.488733 
L 176.87808 137.075958 
L 177.2352 130.35353 
L 177.59232 134.940599 
L 177.94944 128.096071 
L 178.30656 132.64429 
L 178.66368 128.212621 
L 179.0208 129.851256 
L 179.37792 137.152271 
L 179.73504 136.871996 
L 180.09216 131.938053 
L 180.8064 135.237524 
L 181.16352 126.077261 
L 181.52064 130.855805 
L 181.87776 125.315525 
L 182.23488 128.408258 
L 182.592 132.735865 
L 182.94912 131.320617 
L 183.30624 125.869137 
L 183.66336 131.154117 
L 184.02048 126.358923 
L 184.3776 132.104553 
L 184.73472 135.413736 
L 185.09184 135.089061 
L 185.44896 131.872841 
L 185.80608 133.236751 
L 186.1632 124.594026 
L 186.52032 123.174615 
L 186.87744 124.9742 
L 187.23456 125.863587 
L 187.59168 123.647752 
L 187.9488 128.112721 
L 188.30592 130.955705 
L 188.66304 125.640199 
L 189.02016 132.956477 
L 189.37728 126.933348 
L 189.7344 132.187803 
L 190.09152 131.779878 
L 190.44864 127.968421 
L 190.80576 131.306742 
L 191.16288 125.019988 
L 191.52 125.2961 
L 191.87712 125.104625 
L 192.23424 127.067935 
L 192.59136 125.838612 
L 192.94848 128.191808 
L 193.3056 123.73239 
L 193.66272 121.466605 
L 194.01984 121.223793 
L 194.37696 121.978592 
L 194.73408 121.276518 
L 195.0912 120.822806 
L 195.44832 119.519945 
L 195.80544 128.430458 
L 196.16256 120.763144 
L 196.51968 130.206456 
L 196.8768 125.487575 
L 197.23392 118.049198 
L 197.59104 126.149411 
L 197.94816 124.406714 
L 198.30528 120.825581 
L 198.6624 125.525037 
L 199.01952 124.297101 
L 199.37664 122.473929 
L 199.73376 124.917313 
L 200.09088 122.244992 
L 200.448 128.401321 
L 200.80512 118.941359 
L 201.16224 116.854562 
L 201.87648 125.470925 
L 202.59072 118.640272 
L 202.94784 117.743948 
L 203.30496 118.196272 
L 203.66208 117.324924 
L 204.0192 126.371411 
L 204.37632 114.352903 
L 204.73344 124.551013 
L 205.09056 119.025996 
L 205.44768 115.399076 
L 205.8048 126.153574 
L 206.16192 119.024609 
L 206.51904 122.417041 
L 206.87616 120.505069 
L 207.23328 125.064388 
L 207.5904 125.444562 
L 208.30464 119.103696 
L 208.66176 114.834365 
L 209.01888 123.22179 
L 209.376 116.441087 
L 209.73312 124.068164 
L 210.09024 116.255163 
L 210.44736 115.339414 
L 210.80448 114.085116 
L 211.1616 122.153417 
L 211.51872 117.863273 
L 211.87584 116.935037 
L 212.23296 112.60743 
L 212.59008 121.993855 
L 212.9472 118.720747 
L 213.66144 115.111864 
L 214.01856 121.265418 
L 214.37568 118.885859 
L 214.7328 120.548082 
L 215.08992 109.962859 
L 215.80416 120.412107 
L 216.16128 112.021906 
L 216.5184 110.008646 
L 216.87552 116.331475 
L 217.23264 117.78141 
L 217.58976 117.376261 
L 217.94688 110.825883 
L 218.304 111.933106 
L 218.66112 117.73146 
L 219.01824 112.97928 
L 219.37536 111.393369 
L 219.73248 111.817944 
L 220.0896 113.621691 
L 220.44672 108.428286 
L 220.80384 115.514239 
L 221.16096 117.845235 
L 221.51808 116.855949 
L 221.8752 117.249999 
L 222.23232 107.236425 
L 222.58944 116.577062 
L 222.94656 109.187247 
L 223.30368 109.965634 
L 223.6608 115.684901 
L 224.01792 110.351358 
L 224.37504 113.032005 
L 224.73216 114.699777 
L 225.4464 110.098834 
L 225.80352 116.879537 
L 226.16064 105.29809 
L 226.87488 116.694999 
L 227.232 113.521791 
L 227.94624 104.779166 
L 228.30336 108.009262 
L 228.66048 112.74063 
L 229.0176 115.279751 
L 229.37472 116.01235 
L 229.73184 111.960856 
L 230.08896 103.641418 
L 230.44608 115.159039 
L 230.8032 116.613137 
L 231.16032 113.568966 
L 231.51744 107.03385 
L 231.87456 106.219389 
L 232.23168 105.851702 
L 232.5888 105.839215 
L 232.94592 108.111936 
L 233.30304 113.724366 
L 233.66016 103.948055 
L 234.01728 108.311736 
L 234.3744 114.047653 
L 234.73152 114.82049 
L 235.08864 113.804841 
L 235.44576 104.160342 
L 235.80288 110.97712 
L 236.16 104.974803 
L 236.51712 113.337254 
L 236.87424 107.081025 
L 237.23136 107.801137 
L 237.58848 101.121721 
L 238.30272 109.502209 
L 238.65984 104.970641 
L 239.01696 107.966249 
L 239.37408 106.900651 
L 239.7312 108.041174 
L 240.08832 107.140688 
L 240.44544 100.855322 
L 240.80256 105.350815 
L 241.15968 107.337712 
L 241.5168 101.414483 
L 241.87392 102.765906 
L 242.23104 100.849772 
L 242.58816 105.18154 
L 242.94528 103.77878 
L 243.3024 108.453261 
L 243.65952 102.106845 
L 244.01664 109.414797 
L 244.37376 102.907431 
L 244.73088 100.762359 
L 245.088 106.580139 
L 245.44512 106.804913 
L 245.80224 97.673788 
L 246.15936 103.585918 
L 246.51648 106.211064 
L 246.8736 101.281283 
L 247.23072 106.396989 
L 247.58784 105.044178 
L 247.94496 97.053577 
L 248.30208 106.674488 
L 248.6592 99.853548 
L 249.01632 101.789108 
L 249.37344 109.538284 
L 249.73056 107.284988 
L 250.08768 105.984902 
L 250.4448 98.242663 
L 250.80192 105.053891 
L 251.15904 106.213839 
L 251.51616 97.206202 
L 251.87328 105.861415 
L 252.58752 100.500122 
L 252.94464 107.834437 
L 253.30176 96.991139 
L 253.65888 102.863031 
L 254.016 100.35166 
L 254.37312 101.377021 
L 254.73024 101.157796 
L 255.08736 99.549686 
L 255.44448 106.322064 
L 255.8016 102.628544 
L 256.15872 105.151016 
L 256.51584 96.309878 
L 256.87296 97.937413 
L 257.23008 101.941733 
L 257.5872 99.176449 
L 257.94432 95.069455 
L 258.30144 102.202582 
L 258.65856 95.226242 
L 259.01568 94.063519 
L 259.3728 98.796274 
L 259.72992 99.306874 
L 260.08704 104.306029 
L 260.44416 101.159184 
L 260.80128 105.23704 
L 261.1584 94.726743 
L 261.51552 104.322679 
L 261.87264 93.713869 
L 262.22976 97.525326 
L 262.58688 95.699379 
L 262.944 92.207046 
L 263.30112 102.219232 
L 263.65824 96.266865 
L 264.01536 101.905658 
L 264.37248 99.804985 
L 264.7296 99.691211 
L 265.08672 92.918833 
L 265.44384 104.626541 
L 265.80096 93.174132 
L 266.15808 94.529718 
L 266.5152 100.640259 
L 266.87232 94.890467 
L 267.22944 97.306101 
L 267.58656 102.677106 
L 267.94368 93.849844 
L 268.3008 90.532336 
L 268.65792 90.561473 
L 269.01504 103.323681 
L 269.37216 90.400524 
L 269.72928 90.095274 
L 270.0864 91.098435 
L 270.44352 90.023124 
L 270.80064 94.532493 
L 271.15776 95.860328 
L 271.51488 100.086648 
L 271.872 98.491025 
L 272.22912 99.008562 
L 272.58624 98.957224 
L 272.94336 93.25877 
L 273.30048 100.082485 
L 273.6576 99.039087 
L 274.01472 98.857324 
L 274.37184 91.874047 
L 274.72896 95.333079 
L 275.08608 92.90912 
L 275.4432 102.129045 
L 276.15744 88.426114 
L 276.51456 98.55485 
L 276.87168 100.282285 
L 277.2288 97.650201 
L 277.58592 92.516458 
L 277.94304 89.495875 
L 278.30016 90.267324 
L 278.65728 88.993601 
L 279.0144 94.979267 
L 279.37152 96.920377 
L 279.72864 90.031449 
L 280.08576 91.514685 
L 280.44288 88.557926 
L 280.8 99.316586 
L 281.15712 100.099135 
L 281.51424 90.444924 
L 281.87136 86.446154 
L 282.22848 93.469669 
L 282.5856 95.746554 
L 282.94272 94.50058 
L 283.29984 86.183917 
L 283.65696 85.73298 
L 284.01408 85.86063 
L 284.3712 92.000309 
L 284.72832 86.190854 
L 285.08544 97.228402 
L 285.44256 90.790411 
L 285.79968 88.409464 
L 286.1568 91.442535 
L 286.51392 84.695132 
L 286.87104 89.756725 
L 287.22816 93.10892 
L 287.58528 89.336313 
L 287.9424 91.678409 
L 288.29952 90.335311 
L 288.65664 84.718719 
L 289.01376 97.985976 
L 289.37088 86.701454 
L 289.728 87.926615 
L 290.08512 95.709091 
L 290.44224 91.14561 
L 290.79936 91.882372 
L 291.15648 83.955595 
L 291.5136 83.128646 
L 291.87072 85.918905 
L 292.22784 93.199107 
L 292.58496 91.926771 
L 292.94208 84.552219 
L 293.2992 91.513297 
L 293.65632 90.750173 
L 294.01344 85.87728 
L 294.37056 86.436442 
L 294.72768 92.132121 
L 295.0848 84.782544 
L 295.44192 85.720493 
L 295.79904 82.479297 
L 296.51328 88.596776 
L 296.8704 82.301697 
L 297.22752 81.306861 
L 297.58464 94.660143 
L 297.94176 91.824097 
L 298.29888 84.489782 
L 298.656 94.216143 
L 299.01312 87.57419 
L 299.37024 87.91274 
L 299.72736 82.733209 
L 300.08448 86.924841 
L 300.79872 83.489396 
L 301.15584 92.74817 
L 301.51296 80.428575 
L 301.87008 93.619519 
L 302.2272 93.995531 
L 302.58432 93.686119 
L 302.94144 91.53411 
L 303.29856 88.390039 
L 303.65568 79.526701 
L 304.0128 90.314499 
L 304.36992 82.03946 
L 304.72704 86.824941 
L 305.08416 84.37462 
L 305.44128 89.869112 
L 305.7984 89.390425 
L 306.15552 81.539961 
L 306.51264 86.229704 
L 306.86976 85.153006 
L 307.22688 90.983273 
L 307.584 83.149459 
L 307.94112 83.250746 
L 308.29824 84.641019 
L 308.65536 91.817159 
L 309.01248 91.063748 
L 309.3696 89.294688 
L 309.72672 79.351877 
L 310.08384 81.435899 
L 310.44096 79.185377 
L 310.79808 89.934324 
L 311.1552 91.072073 
L 311.51232 78.33484 
L 311.86944 91.549372 
L 312.22656 90.315886 
L 312.58368 81.818848 
L 312.9408 77.679941 
L 313.29792 91.366222 
L 313.65504 87.521465 
L 314.01216 89.884374 
L 314.36928 81.152849 
L 314.7264 84.427344 
L 315.08352 84.627144 
L 315.44064 90.414399 
L 315.79776 90.121637 
L 316.15488 90.061974 
L 316.512 78.022653 
L 316.86912 79.833338 
L 317.22624 75.597307 
L 317.58336 85.663605 
L 317.94048 80.030363 
L 318.65472 84.144295 
L 319.01184 89.072688 
L 319.36896 82.699909 
L 319.72608 82.699909 
L 320.0832 75.231007 
L 320.44032 77.299767 
L 320.79744 82.126873 
L 321.15456 82.906647 
L 321.51168 82.767897 
L 321.8688 84.360745 
L 322.22592 83.084246 
L 322.58304 75.999681 
L 322.94016 83.525471 
L 323.29728 78.685877 
L 323.6544 87.439603 
L 324.01152 84.864406 
L 324.36864 79.221452 
L 324.72576 76.750318 
L 325.08288 77.141592 
L 325.44 74.166796 
L 325.79712 75.122782 
L 326.15424 85.674705 
L 326.51136 83.610108 
L 326.86848 86.533567 
L 327.2256 77.152692 
L 327.93984 86.992828 
L 328.29696 76.374306 
L 328.65408 75.874806 
L 329.0112 77.607791 
L 329.36832 81.041849 
L 329.72544 86.210279 
L 330.08256 77.602241 
L 330.43968 81.466424 
L 330.7968 72.299224 
L 331.15392 82.977409 
L 331.51104 73.503572 
L 331.86816 78.619278 
L 332.22528 73.17751 
L 332.5824 74.524771 
L 332.93952 74.291671 
L 333.29664 79.590526 
L 333.65376 77.889454 
L 334.01088 72.200712 
L 334.368 81.953435 
L 334.72512 78.59014 
L 335.08224 81.463649 
L 335.43936 76.417318 
L 335.79648 74.155696 
L 336.1536 81.377624 
L 336.51072 84.25807 
L 336.86784 85.950817 
L 337.22496 80.087251 
L 337.58208 81.731436 
L 337.9392 78.197478 
L 338.29632 84.183145 
L 338.65344 83.160559 
L 339.01056 84.220607 
L 339.36768 70.592601 
L 339.7248 84.29137 
L 340.08192 71.003301 
L 340.43904 70.435814 
L 340.79616 75.208807 
L 341.5104 79.646026 
L 341.86752 70.799338 
L 342.22464 76.202256 
L 342.58176 78.544353 
L 342.93888 79.737601 
L 343.65312 70.230464 
L 344.01024 80.668612 
L 344.36736 80.728275 
L 344.72448 73.441135 
L 345.0816 73.017948 
L 345.43872 79.324127 
L 345.79584 73.00546 
L 346.15296 70.899238 
L 346.51008 72.578111 
L 346.8672 81.605173 
L 347.22432 71.699825 
L 347.58144 82.276722 
L 347.93856 74.932695 
L 348.29568 74.800883 
L 349.00992 82.014485 
L 349.36704 70.477439 
L 349.72416 68.557142 
L 350.08128 67.552593 
L 350.4384 82.590297 
L 350.79552 74.646871 
L 351.50976 78.350103 
L 351.86688 78.832952 
L 352.224 81.091799 
L 352.58112 81.866023 
L 352.93824 76.100969 
L 353.29536 81.641248 
L 353.65248 71.218363 
L 354.0096 78.021266 
L 354.36672 80.674162 
L 355.08096 73.48831 
L 355.43808 71.042151 
L 355.7952 69.485378 
L 356.15232 73.58266 
L 356.50944 80.923912 
L 356.86656 75.801269 
L 357.22368 75.39612 
L 357.5808 68.856841 
L 357.93792 65.543496 
L 358.29504 76.778068 
L 358.65216 80.124713 
L 359.00928 79.379626 
L 359.3664 66.409295 
L 359.72352 73.839347 
L 360.08064 67.218206 
L 360.43776 65.508808 
L 360.79488 75.648644 
L 361.152 65.82932 
L 361.50912 68.222755 
L 361.86624 65.370059 
L 362.22336 67.308393 
L 362.9376 79.071602 
L 363.29472 67.291743 
L 363.65184 79.633539 
L 364.00896 75.440519 
L 364.36608 73.973934 
L 364.7232 65.019022 
L 365.08032 72.016174 
L 365.43744 72.035599 
L 365.79456 69.599153 
L 366.15168 76.263306 
L 366.5088 73.123398 
L 366.86592 65.608708 
L 367.22304 76.324356 
L 367.93728 67.824543 
L 368.2944 68.630679 
L 368.65152 76.228618 
L 369.00864 69.38964 
L 369.36576 77.421867 
L 369.72288 72.236786 
L 370.08 74.870258 
L 370.43712 63.551049 
L 371.15136 67.484606 
L 371.50848 64.312785 
L 371.8656 67.77043 
L 372.22272 76.780843 
L 372.57984 62.162163 
L 373.29408 70.505189 
L 373.6512 65.761333 
L 374.00832 64.000598 
L 374.36544 61.231152 
L 374.72256 65.442208 
L 375.07968 68.335142 
L 375.4368 66.573019 
L 376.15104 76.779455 
L 376.50816 64.801184 
L 376.86528 65.003759 
L 377.2224 74.058571 
L 377.57952 66.783919 
L 378.29376 76.764193 
L 378.65088 62.178813 
L 379.36512 73.11091 
L 379.72224 65.110596 
L 380.07936 67.122469 
L 380.43648 62.019251 
L 381.15072 73.568785 
L 381.50784 75.870644 
L 381.86496 61.707064 
L 382.22208 67.911955 
L 382.5792 59.373292 
L 382.93632 69.87249 
L 383.29344 64.806734 
L 383.65056 69.674078 
L 384.00768 71.863549 
L 384.3648 66.976781 
L 384.72192 71.415388 
L 385.07904 66.326045 
L 385.43616 70.617576 
L 385.79328 58.604618 
L 386.1504 69.085778 
L 386.50752 71.448688 
L 386.86464 60.073978 
L 387.22176 67.745455 
L 387.57888 62.643625 
L 387.936 68.666754 
L 388.29312 62.34115 
L 388.65024 58.386781 
L 389.00736 65.435271 
L 389.36448 63.101499 
L 389.7216 72.733511 
L 390.07872 62.114988 
L 390.43584 73.276023 
L 390.79296 60.791315 
L 391.5072 73.614572 
L 391.86432 58.084306 
L 392.22144 60.071203 
L 392.57856 72.612798 
L 392.93568 66.198395 
L 393.2928 63.237474 
L 393.64992 65.564308 
L 394.00704 66.331595 
L 394.72128 58.95843 
L 395.0784 57.605619 
L 395.43552 70.195777 
L 395.79264 63.311011 
L 396.14976 65.492158 
L 396.50688 72.154924 
L 396.864 65.920895 
L 397.22112 72.772361 
L 397.57824 62.423013 
L 397.93536 60.81629 
L 398.29248 61.011927 
L 398.6496 72.324199 
L 399.00672 68.729191 
L 399.36384 60.319566 
L 399.72096 68.536329 
L 400.07808 68.804116 
L 400.4352 56.942395 
L 400.79232 55.617335 
L 401.14944 67.341693 
L 401.50656 59.797866 
L 401.86368 62.008151 
L 402.2208 59.26368 
L 402.57792 64.640235 
L 402.93504 58.610168 
L 403.29216 71.307163 
L 403.64928 59.786766 
L 404.0064 71.135113 
L 404.36352 69.524228 
L 404.72064 61.231152 
L 405.07776 55.749147 
L 405.43488 57.390557 
L 405.792 68.824929 
L 406.14912 63.628748 
L 406.50624 68.05903 
L 406.86336 57.38917 
L 407.22048 66.170645 
L 407.5776 54.782061 
L 407.93472 62.155226 
L 408.29184 54.943011 
L 408.64896 63.596836 
L 409.00608 56.141809 
L 409.3632 68.03683 
L 409.72032 63.779986 
L 410.07744 68.03683 
L 410.43456 62.398038 
L 410.79168 69.452078 
L 411.1488 59.360804 
L 411.50592 53.987024 
L 411.86304 61.966526 
L 412.22016 57.204632 
L 412.57728 67.88698 
L 412.9344 58.651793 
L 413.29152 54.157687 
L 413.64864 58.715618 
L 414.00576 59.005605 
L 414.36288 53.568 
L 414.72 69.619965 
L 414.72 69.619965 
" style="fill:none;stroke:#000080;stroke-linecap:square;stroke-width:0.5;"/>
   </g>
   <g id="patch_3">
    <path d="M 57.6 307.584 
L 57.6 41.472 
" style="fill:none;stroke:#000000;stroke-linecap:square;stroke-linejoin:miter;stroke-width:0.8;"/>
   </g>
   <g id="patch_4">
    <path d="M 414.72 307.584 
L 414.72 41.472 
" style="fill:none;stroke:#000000;stroke-linecap:square;stroke-linejoin:miter;stroke-width:0.8;"/>
   </g>
   <g id="patch_5">
    <path d="M 57.6 307.584 
L 414.72 307.584 
" style="fill:none;stroke:#000000;stroke-linecap:square;stroke-linejoin:miter;stroke-width:0.8;"/>
   </g>
   <g id="patch_6">
    <path d="M 57.6 41.472 
L 414.72 41.472 
" style="fill:none;stroke:#000000;stroke-linecap:square;stroke-linejoin:miter;stroke-width:0.8;"/>
   </g>
   <g id="text_17">
    <!-- Test -->
    <defs>
     <path d="M -0.296875 72.90625 
L 61.375 72.90625 
L 61.375 64.59375 
L 35.5 64.59375 
L 35.5 0 
L 25.59375 0 
L 25.59375 64.59375 
L -0.296875 64.59375 
z
" id="DejaVuSans-54"/>
    </defs>
    <g transform="translate(223.341563 35.472)scale(0.12 -0.12)">
     <use xlink:href="#DejaVuSans-54"/>
     <use x="60.818359" xlink:href="#DejaVuSans-65"/>
     <use x="122.341797" xlink:href="#DejaVuSans-73"/>
     <use x="174.441406" xlink:href="#DejaVuSans-74"/>
    </g>
   </g>
   <g id="legend_1">
    <g id="patch_7">
     <path d="M 64.6 64.150125 
L 306.276563 64.150125 
Q 308.276563 64.150125 308.276563 62.150125 
L 308.276563 48.472 
Q 308.276563 46.472 306.276563 46.472 
L 64.6 46.472 
Q 62.6 46.472 62.6 48.472 
L 62.6 62.150125 
Q 62.6 64.150125 64.6 64.150125 
z
" style="fill:#ffffff;opacity:0.8;stroke:#cccccc;stroke-linejoin:miter;"/>
    </g>
    <g id="line2d_30">
     <path d="M 66.6 54.570438 
L 86.6 54.570438 
" style="fill:none;stroke:#000080;stroke-linecap:square;stroke-width:0.5;"/>
    </g>
    <g id="line2d_31"/>
    <g id="text_18">
     <!-- Successful download requests per second -->
     <g transform="translate(94.6 58.070438)scale(0.1 -0.1)">
      <use xlink:href="#DejaVuSans-53"/>
      <use x="63.476562" xlink:href="#DejaVuSans-75"/>
      <use x="126.855469" xlink:href="#DejaVuSans-63"/>
      <use x="181.835938" xlink:href="#DejaVuSans-63"/>
      <use x="236.816406" xlink:href="#DejaVuSans-65"/>
      <use x="298.339844" xlink:href="#DejaVuSans-73"/>
      <use x="350.439453" xlink:href="#DejaVuSans-73"/>
      <use x="402.539062" xlink:href="#DejaVuSans-66"/>
      <use x="437.744141" xlink:href="#DejaVuSans-75"/>
      <use x="501.123047" xlink:href="#DejaVuSans-6c"/>
      <use x="528.90625" xlink:href="#DejaVuSans-20"/>
      <use x="560.693359" xlink:href="#DejaVuSans-64"/>
      <use x="624.169922" xlink:href="#DejaVuSans-6f"/>
      <use x="685.351562" xlink:href="#DejaVuSans-77"/>
      <use x="767.138672" xlink:href="#DejaVuSans-6e"/>
      <use x="830.517578" xlink:href="#DejaVuSans-6c"/>
      <use x="858.300781" xlink:href="#DejaVuSans-6f"/>
      <use x="919.482422" xlink:href="#DejaVuSans-61"/>
      <use x="980.761719" xlink:href="#DejaVuSans-64"/>
      <use x="1044.238281" xlink:href="#DejaVuSans-20"/>
      <use x="1076.025391" xlink:href="#DejaVuSans-72"/>
      <use x="1117.107422" xlink:href="#DejaVuSans-65"/>
      <use x="1178.630859" xlink:href="#DejaVuSans-71"/>
      <use x="1242.107422" xlink:href="#DejaVuSans-75"/>
      <use x="1305.486328" xlink:href="#DejaVuSans-65"/>
      <use x="1367.009766" xlink:href="#DejaVuSans-73"/>
      <use x="1419.109375" xlink:href="#DejaVuSans-74"/>
      <use x="1458.318359" xlink:href="#DejaVuSans-73"/>
      <use x="1510.417969" xlink:href="#DejaVuSans-20"/>
      <use x="1542.205078" xlink:href="#DejaVuSans-70"/>
      <use x="1605.681641" xlink:href="#DejaVuSans-65"/>
      <use x="1667.205078" xlink:href="#DejaVuSans-72"/>
      <use x="1708.318359" xlink:href="#DejaVuSans-20"/>
      <use x="1740.105469" xlink:href="#DejaVuSans-73"/>
      <use x="1792.205078" xlink:href="#DejaVuSans-65"/>
      <use x="1853.728516" xlink:href="#DejaVuSans-63"/>
      <use x="1908.708984" xlink:href="#DejaVuSans-6f"/>
      <use x="1969.890625" xlink:href="#DejaVuSans-6e"/>
      <use x="2033.269531" xlink:href="#DejaVuSans-64"/>
     </g>
    </g>
   </g>
  </g>
 </g>
 <defs>
  <clipPath id="p34ab750ae6">
   <rect height="266.112" width="357.12" x="57.6" y="41.472"/>
  </clipPath>
 </defs>
</svg>
