<?xml version="1.0" encoding="utf-8" standalone="no"?>
<!DOCTYPE svg PUBLIC "-//W3C//DTD SVG 1.1//EN"
  "http://www.w3.org/Graphics/SVG/1.1/DTD/svg11.dtd">
<!-- Created with matplotlib (http://matplotlib.org/) -->
<svg height="345pt" version="1.1" viewBox="0 0 460 345" width="460pt" xmlns="http://www.w3.org/2000/svg" xmlns:xlink="http://www.w3.org/1999/xlink">
 <defs>
  <style type="text/css">
*{stroke-linecap:butt;stroke-linejoin:round;}
  </style>
 </defs>
 <g id="figure_1">
  <g id="patch_1">
   <path d="M 0 345.6 
L 460.8 345.6 
L 460.8 0 
L 0 0 
z
" style="fill:#ffffff;"/>
  </g>
  <g id="axes_1">
   <g id="patch_2">
    <path d="M 57.6 307.584 
L 414.72 307.584 
L 414.72 41.472 
L 57.6 41.472 
z
" style="fill:#ffffff;"/>
   </g>
   <g id="matplotlib.axis_1">
    <g id="xtick_1">
     <g id="line2d_1">
      <path clip-path="url(#pd26692be5a)" d="M 57.6 307.584 
L 57.6 41.472 
" style="fill:none;stroke:#b0b0b0;stroke-linecap:square;stroke-width:0.8;"/>
     </g>
     <g id="line2d_2">
      <defs>
       <path d="M 0 0 
L 0 3.5 
" id="m78a921a95f" style="stroke:#000000;stroke-width:0.8;"/>
      </defs>
      <g>
       <use style="stroke:#000000;stroke-width:0.8;" x="57.6" xlink:href="#m78a921a95f" y="307.584"/>
      </g>
     </g>
     <g id="text_1">
      <!-- 0 -->
      <defs>
       <path d="M 31.78125 66.40625 
Q 24.171875 66.40625 20.328125 58.90625 
Q 16.5 51.421875 16.5 36.375 
Q 16.5 21.390625 20.328125 13.890625 
Q 24.171875 6.390625 31.78125 6.390625 
Q 39.453125 6.390625 43.28125 13.890625 
Q 47.125 21.390625 47.125 36.375 
Q 47.125 51.421875 43.28125 58.90625 
Q 39.453125 66.40625 31.78125 66.40625 
M 31.78125 74.21875 
Q 44.046875 74.21875 50.515625 64.515625 
Q 56.984375 54.828125 56.984375 36.375 
Q 56.984375 17.96875 50.515625 8.265625 
Q 44.046875 -1.421875 31.78125 -1.421875 
Q 19.53125 -1.421875 13.0625 8.265625 
Q 6.59375 17.96875 6.59375 36.375 
Q 6.59375 54.828125 13.0625 64.515625 
Q 19.53125 74.21875 31.78125 74.21875 
" id="DejaVuSans-30"/>
      </defs>
      <g transform="translate(54.41875 322.182437)scale(0.1 -0.1)">
       <use xlink:href="#DejaVuSans-30"/>
      </g>
     </g>
    </g>
    <g id="xtick_2">
     <g id="line2d_3">
      <path clip-path="url(#pd26692be5a)" d="M 129.024 307.584 
L 129.024 41.472 
" style="fill:none;stroke:#b0b0b0;stroke-linecap:square;stroke-width:0.8;"/>
     </g>
     <g id="line2d_4">
      <g>
       <use style="stroke:#000000;stroke-width:0.8;" x="129.024" xlink:href="#m78a921a95f" y="307.584"/>
      </g>
     </g>
     <g id="text_2">
      <!-- 200 -->
      <defs>
       <path d="M 19.1875 8.296875 
L 53.609375 8.296875 
L 53.609375 0 
L 7.328125 0 
L 7.328125 8.296875 
Q 12.9375 14.109375 22.625 23.890625 
Q 32.328125 33.6875 34.8125 36.53125 
Q 39.546875 41.84375 41.421875 45.53125 
Q 43.3125 49.21875 43.3125 52.78125 
Q 43.3125 58.59375 39.234375 62.25 
Q 35.15625 65.921875 28.609375 65.921875 
Q 23.96875 65.921875 18.8125 64.3125 
Q 13.671875 62.703125 7.8125 59.421875 
L 7.8125 69.390625 
Q 13.765625 71.78125 18.9375 73 
Q 24.125 74.21875 28.421875 74.21875 
Q 39.75 74.21875 46.484375 68.546875 
Q 53.21875 62.890625 53.21875 53.421875 
Q 53.21875 48.921875 51.53125 44.890625 
Q 49.859375 40.875 45.40625 35.40625 
Q 44.1875 33.984375 37.640625 27.21875 
Q 31.109375 20.453125 19.1875 8.296875 
" id="DejaVuSans-32"/>
      </defs>
      <g transform="translate(119.48025 322.182437)scale(0.1 -0.1)">
       <use xlink:href="#DejaVuSans-32"/>
       <use x="63.623047" xlink:href="#DejaVuSans-30"/>
       <use x="127.246094" xlink:href="#DejaVuSans-30"/>
      </g>
     </g>
    </g>
    <g id="xtick_3">
     <g id="line2d_5">
      <path clip-path="url(#pd26692be5a)" d="M 200.448 307.584 
L 200.448 41.472 
" style="fill:none;stroke:#b0b0b0;stroke-linecap:square;stroke-width:0.8;"/>
     </g>
     <g id="line2d_6">
      <g>
       <use style="stroke:#000000;stroke-width:0.8;" x="200.448" xlink:href="#m78a921a95f" y="307.584"/>
      </g>
     </g>
     <g id="text_3">
      <!-- 400 -->
      <defs>
       <path d="M 37.796875 64.3125 
L 12.890625 25.390625 
L 37.796875 25.390625 
z
M 35.203125 72.90625 
L 47.609375 72.90625 
L 47.609375 25.390625 
L 58.015625 25.390625 
L 58.015625 17.1875 
L 47.609375 17.1875 
L 47.609375 0 
L 37.796875 0 
L 37.796875 17.1875 
L 4.890625 17.1875 
L 4.890625 26.703125 
z
" id="DejaVuSans-34"/>
      </defs>
      <g transform="translate(190.90425 322.182437)scale(0.1 -0.1)">
       <use xlink:href="#DejaVuSans-34"/>
       <use x="63.623047" xlink:href="#DejaVuSans-30"/>
       <use x="127.246094" xlink:href="#DejaVuSans-30"/>
      </g>
     </g>
    </g>
    <g id="xtick_4">
     <g id="line2d_7">
      <path clip-path="url(#pd26692be5a)" d="M 271.872 307.584 
L 271.872 41.472 
" style="fill:none;stroke:#b0b0b0;stroke-linecap:square;stroke-width:0.8;"/>
     </g>
     <g id="line2d_8">
      <g>
       <use style="stroke:#000000;stroke-width:0.8;" x="271.872" xlink:href="#m78a921a95f" y="307.584"/>
      </g>
     </g>
     <g id="text_4">
      <!-- 600 -->
      <defs>
       <path d="M 33.015625 40.375 
Q 26.375 40.375 22.484375 35.828125 
Q 18.609375 31.296875 18.609375 23.390625 
Q 18.609375 15.53125 22.484375 10.953125 
Q 26.375 6.390625 33.015625 6.390625 
Q 39.65625 6.390625 43.53125 10.953125 
Q 47.40625 15.53125 47.40625 23.390625 
Q 47.40625 31.296875 43.53125 35.828125 
Q 39.65625 40.375 33.015625 40.375 
M 52.59375 71.296875 
L 52.59375 62.3125 
Q 48.875 64.0625 45.09375 64.984375 
Q 41.3125 65.921875 37.59375 65.921875 
Q 27.828125 65.921875 22.671875 59.328125 
Q 17.53125 52.734375 16.796875 39.40625 
Q 19.671875 43.65625 24.015625 45.921875 
Q 28.375 48.1875 33.59375 48.1875 
Q 44.578125 48.1875 50.953125 41.515625 
Q 57.328125 34.859375 57.328125 23.390625 
Q 57.328125 12.15625 50.6875 5.359375 
Q 44.046875 -1.421875 33.015625 -1.421875 
Q 20.359375 -1.421875 13.671875 8.265625 
Q 6.984375 17.96875 6.984375 36.375 
Q 6.984375 53.65625 15.1875 63.9375 
Q 23.390625 74.21875 37.203125 74.21875 
Q 40.921875 74.21875 44.703125 73.484375 
Q 48.484375 72.75 52.59375 71.296875 
" id="DejaVuSans-36"/>
      </defs>
      <g transform="translate(262.32825 322.182437)scale(0.1 -0.1)">
       <use xlink:href="#DejaVuSans-36"/>
       <use x="63.623047" xlink:href="#DejaVuSans-30"/>
       <use x="127.246094" xlink:href="#DejaVuSans-30"/>
      </g>
     </g>
    </g>
    <g id="xtick_5">
     <g id="line2d_9">
      <path clip-path="url(#pd26692be5a)" d="M 343.296 307.584 
L 343.296 41.472 
" style="fill:none;stroke:#b0b0b0;stroke-linecap:square;stroke-width:0.8;"/>
     </g>
     <g id="line2d_10">
      <g>
       <use style="stroke:#000000;stroke-width:0.8;" x="343.296" xlink:href="#m78a921a95f" y="307.584"/>
      </g>
     </g>
     <g id="text_5">
      <!-- 800 -->
      <defs>
       <path d="M 31.78125 34.625 
Q 24.75 34.625 20.71875 30.859375 
Q 16.703125 27.09375 16.703125 20.515625 
Q 16.703125 13.921875 20.71875 10.15625 
Q 24.75 6.390625 31.78125 6.390625 
Q 38.8125 6.390625 42.859375 10.171875 
Q 46.921875 13.96875 46.921875 20.515625 
Q 46.921875 27.09375 42.890625 30.859375 
Q 38.875 34.625 31.78125 34.625 
M 21.921875 38.8125 
Q 15.578125 40.375 12.03125 44.71875 
Q 8.5 49.078125 8.5 55.328125 
Q 8.5 64.0625 14.71875 69.140625 
Q 20.953125 74.21875 31.78125 74.21875 
Q 42.671875 74.21875 48.875 69.140625 
Q 55.078125 64.0625 55.078125 55.328125 
Q 55.078125 49.078125 51.53125 44.71875 
Q 48 40.375 41.703125 38.8125 
Q 48.828125 37.15625 52.796875 32.3125 
Q 56.78125 27.484375 56.78125 20.515625 
Q 56.78125 9.90625 50.3125 4.234375 
Q 43.84375 -1.421875 31.78125 -1.421875 
Q 19.734375 -1.421875 13.25 4.234375 
Q 6.78125 9.90625 6.78125 20.515625 
Q 6.78125 27.484375 10.78125 32.3125 
Q 14.796875 37.15625 21.921875 38.8125 
M 18.3125 54.390625 
Q 18.3125 48.734375 21.84375 45.5625 
Q 25.390625 42.390625 31.78125 42.390625 
Q 38.140625 42.390625 41.71875 45.5625 
Q 45.3125 48.734375 45.3125 54.390625 
Q 45.3125 60.0625 41.71875 63.234375 
Q 38.140625 66.40625 31.78125 66.40625 
Q 25.390625 66.40625 21.84375 63.234375 
Q 18.3125 60.0625 18.3125 54.390625 
" id="DejaVuSans-38"/>
      </defs>
      <g transform="translate(333.75225 322.182437)scale(0.1 -0.1)">
       <use xlink:href="#DejaVuSans-38"/>
       <use x="63.623047" xlink:href="#DejaVuSans-30"/>
       <use x="127.246094" xlink:href="#DejaVuSans-30"/>
      </g>
     </g>
    </g>
    <g id="xtick_6">
     <g id="line2d_11">
      <path clip-path="url(#pd26692be5a)" d="M 414.72 307.584 
L 414.72 41.472 
" style="fill:none;stroke:#b0b0b0;stroke-linecap:square;stroke-width:0.8;"/>
     </g>
     <g id="line2d_12">
      <g>
       <use style="stroke:#000000;stroke-width:0.8;" x="414.72" xlink:href="#m78a921a95f" y="307.584"/>
      </g>
     </g>
     <g id="text_6">
      <!-- 1000 -->
      <defs>
       <path d="M 12.40625 8.296875 
L 28.515625 8.296875 
L 28.515625 63.921875 
L 10.984375 60.40625 
L 10.984375 69.390625 
L 28.421875 72.90625 
L 38.28125 72.90625 
L 38.28125 8.296875 
L 54.390625 8.296875 
L 54.390625 0 
L 12.40625 0 
z
" id="DejaVuSans-31"/>
      </defs>
      <g transform="translate(401.995 322.182437)scale(0.1 -0.1)">
       <use xlink:href="#DejaVuSans-31"/>
       <use x="63.623047" xlink:href="#DejaVuSans-30"/>
       <use x="127.246094" xlink:href="#DejaVuSans-30"/>
       <use x="190.869141" xlink:href="#DejaVuSans-30"/>
      </g>
     </g>
    </g>
    <g id="text_7">
     <!-- Number of clients -->
     <defs>
      <path d="M 9.8125 72.90625 
L 23.09375 72.90625 
L 55.421875 11.921875 
L 55.421875 72.90625 
L 64.984375 72.90625 
L 64.984375 0 
L 51.703125 0 
L 19.390625 60.984375 
L 19.390625 0 
L 9.8125 0 
z
" id="DejaVuSans-4e"/>
      <path d="M 8.5 21.578125 
L 8.5 54.6875 
L 17.484375 54.6875 
L 17.484375 21.921875 
Q 17.484375 14.15625 20.5 10.265625 
Q 23.53125 6.390625 29.59375 6.390625 
Q 36.859375 6.390625 41.078125 11.03125 
Q 45.3125 15.671875 45.3125 23.6875 
L 45.3125 54.6875 
L 54.296875 54.6875 
L 54.296875 0 
L 45.3125 0 
L 45.3125 8.40625 
Q 42.046875 3.421875 37.71875 1 
Q 33.40625 -1.421875 27.6875 -1.421875 
Q 18.265625 -1.421875 13.375 4.4375 
Q 8.5 10.296875 8.5 21.578125 
M 31.109375 56 
z
" id="DejaVuSans-75"/>
      <path d="M 52 44.1875 
Q 55.375 50.25 60.0625 53.125 
Q 64.75 56 71.09375 56 
Q 79.640625 56 84.28125 50.015625 
Q 88.921875 44.046875 88.921875 33.015625 
L 88.921875 0 
L 79.890625 0 
L 79.890625 32.71875 
Q 79.890625 40.578125 77.09375 44.375 
Q 74.3125 48.1875 68.609375 48.1875 
Q 61.625 48.1875 57.5625 43.546875 
Q 53.515625 38.921875 53.515625 30.90625 
L 53.515625 0 
L 44.484375 0 
L 44.484375 32.71875 
Q 44.484375 40.625 41.703125 44.40625 
Q 38.921875 48.1875 33.109375 48.1875 
Q 26.21875 48.1875 22.15625 43.53125 
Q 18.109375 38.875 18.109375 30.90625 
L 18.109375 0 
L 9.078125 0 
L 9.078125 54.6875 
L 18.109375 54.6875 
L 18.109375 46.1875 
Q 21.1875 51.21875 25.484375 53.609375 
Q 29.78125 56 35.6875 56 
Q 41.65625 56 45.828125 52.96875 
Q 50 49.953125 52 44.1875 
" id="DejaVuSans-6d"/>
      <path d="M 48.6875 27.296875 
Q 48.6875 37.203125 44.609375 42.84375 
Q 40.53125 48.484375 33.40625 48.484375 
Q 26.265625 48.484375 22.1875 42.84375 
Q 18.109375 37.203125 18.109375 27.296875 
Q 18.109375 17.390625 22.1875 11.75 
Q 26.265625 6.109375 33.40625 6.109375 
Q 40.53125 6.109375 44.609375 11.75 
Q 48.6875 17.390625 48.6875 27.296875 
M 18.109375 46.390625 
Q 20.953125 51.265625 25.265625 53.625 
Q 29.59375 56 35.59375 56 
Q 45.5625 56 51.78125 48.09375 
Q 58.015625 40.1875 58.015625 27.296875 
Q 58.015625 14.40625 51.78125 6.484375 
Q 45.5625 -1.421875 35.59375 -1.421875 
Q 29.59375 -1.421875 25.265625 0.953125 
Q 20.953125 3.328125 18.109375 8.203125 
L 18.109375 0 
L 9.078125 0 
L 9.078125 75.984375 
L 18.109375 75.984375 
z
" id="DejaVuSans-62"/>
      <path d="M 56.203125 29.59375 
L 56.203125 25.203125 
L 14.890625 25.203125 
Q 15.484375 15.921875 20.484375 11.0625 
Q 25.484375 6.203125 34.421875 6.203125 
Q 39.59375 6.203125 44.453125 7.46875 
Q 49.3125 8.734375 54.109375 11.28125 
L 54.109375 2.78125 
Q 49.265625 0.734375 44.1875 -0.34375 
Q 39.109375 -1.421875 33.890625 -1.421875 
Q 20.796875 -1.421875 13.15625 6.1875 
Q 5.515625 13.8125 5.515625 26.8125 
Q 5.515625 40.234375 12.765625 48.109375 
Q 20.015625 56 32.328125 56 
Q 43.359375 56 49.78125 48.890625 
Q 56.203125 41.796875 56.203125 29.59375 
M 47.21875 32.234375 
Q 47.125 39.59375 43.09375 43.984375 
Q 39.0625 48.390625 32.421875 48.390625 
Q 24.90625 48.390625 20.390625 44.140625 
Q 15.875 39.890625 15.1875 32.171875 
z
" id="DejaVuSans-65"/>
      <path d="M 41.109375 46.296875 
Q 39.59375 47.171875 37.8125 47.578125 
Q 36.03125 48 33.890625 48 
Q 26.265625 48 22.1875 43.046875 
Q 18.109375 38.09375 18.109375 28.8125 
L 18.109375 0 
L 9.078125 0 
L 9.078125 54.6875 
L 18.109375 54.6875 
L 18.109375 46.1875 
Q 20.953125 51.171875 25.484375 53.578125 
Q 30.03125 56 36.53125 56 
Q 37.453125 56 38.578125 55.875 
Q 39.703125 55.765625 41.0625 55.515625 
z
" id="DejaVuSans-72"/>
      <path id="DejaVuSans-20"/>
      <path d="M 30.609375 48.390625 
Q 23.390625 48.390625 19.1875 42.75 
Q 14.984375 37.109375 14.984375 27.296875 
Q 14.984375 17.484375 19.15625 11.84375 
Q 23.34375 6.203125 30.609375 6.203125 
Q 37.796875 6.203125 41.984375 11.859375 
Q 46.1875 17.53125 46.1875 27.296875 
Q 46.1875 37.015625 41.984375 42.703125 
Q 37.796875 48.390625 30.609375 48.390625 
M 30.609375 56 
Q 42.328125 56 49.015625 48.375 
Q 55.71875 40.765625 55.71875 27.296875 
Q 55.71875 13.875 49.015625 6.21875 
Q 42.328125 -1.421875 30.609375 -1.421875 
Q 18.84375 -1.421875 12.171875 6.21875 
Q 5.515625 13.875 5.515625 27.296875 
Q 5.515625 40.765625 12.171875 48.375 
Q 18.84375 56 30.609375 56 
" id="DejaVuSans-6f"/>
      <path d="M 37.109375 75.984375 
L 37.109375 68.5 
L 28.515625 68.5 
Q 23.6875 68.5 21.796875 66.546875 
Q 19.921875 64.59375 19.921875 59.515625 
L 19.921875 54.6875 
L 34.71875 54.6875 
L 34.71875 47.703125 
L 19.921875 47.703125 
L 19.921875 0 
L 10.890625 0 
L 10.890625 47.703125 
L 2.296875 47.703125 
L 2.296875 54.6875 
L 10.890625 54.6875 
L 10.890625 58.5 
Q 10.890625 67.625 15.140625 71.796875 
Q 19.390625 75.984375 28.609375 75.984375 
z
" id="DejaVuSans-66"/>
      <path d="M 48.78125 52.59375 
L 48.78125 44.1875 
Q 44.96875 46.296875 41.140625 47.34375 
Q 37.3125 48.390625 33.40625 48.390625 
Q 24.65625 48.390625 19.8125 42.84375 
Q 14.984375 37.3125 14.984375 27.296875 
Q 14.984375 17.28125 19.8125 11.734375 
Q 24.65625 6.203125 33.40625 6.203125 
Q 37.3125 6.203125 41.140625 7.25 
Q 44.96875 8.296875 48.78125 10.40625 
L 48.78125 2.09375 
Q 45.015625 0.34375 40.984375 -0.53125 
Q 36.96875 -1.421875 32.421875 -1.421875 
Q 20.0625 -1.421875 12.78125 6.34375 
Q 5.515625 14.109375 5.515625 27.296875 
Q 5.515625 40.671875 12.859375 48.328125 
Q 20.21875 56 33.015625 56 
Q 37.15625 56 41.109375 55.140625 
Q 45.0625 54.296875 48.78125 52.59375 
" id="DejaVuSans-63"/>
      <path d="M 9.421875 75.984375 
L 18.40625 75.984375 
L 18.40625 0 
L 9.421875 0 
z
" id="DejaVuSans-6c"/>
      <path d="M 9.421875 54.6875 
L 18.40625 54.6875 
L 18.40625 0 
L 9.421875 0 
z
M 9.421875 75.984375 
L 18.40625 75.984375 
L 18.40625 64.59375 
L 9.421875 64.59375 
z
" id="DejaVuSans-69"/>
      <path d="M 54.890625 33.015625 
L 54.890625 0 
L 45.90625 0 
L 45.90625 32.71875 
Q 45.90625 40.484375 42.875 44.328125 
Q 39.84375 48.1875 33.796875 48.1875 
Q 26.515625 48.1875 22.3125 43.546875 
Q 18.109375 38.921875 18.109375 30.90625 
L 18.109375 0 
L 9.078125 0 
L 9.078125 54.6875 
L 18.109375 54.6875 
L 18.109375 46.1875 
Q 21.34375 51.125 25.703125 53.5625 
Q 30.078125 56 35.796875 56 
Q 45.21875 56 50.046875 50.171875 
Q 54.890625 44.34375 54.890625 33.015625 
" id="DejaVuSans-6e"/>
      <path d="M 18.3125 70.21875 
L 18.3125 54.6875 
L 36.8125 54.6875 
L 36.8125 47.703125 
L 18.3125 47.703125 
L 18.3125 18.015625 
Q 18.3125 11.328125 20.140625 9.421875 
Q 21.96875 7.515625 27.59375 7.515625 
L 36.8125 7.515625 
L 36.8125 0 
L 27.59375 0 
Q 17.1875 0 13.234375 3.875 
Q 9.28125 7.765625 9.28125 18.015625 
L 9.28125 47.703125 
L 2.6875 47.703125 
L 2.6875 54.6875 
L 9.28125 54.6875 
L 9.28125 70.21875 
z
" id="DejaVuSans-74"/>
      <path d="M 44.28125 53.078125 
L 44.28125 44.578125 
Q 40.484375 46.53125 36.375 47.5 
Q 32.28125 48.484375 27.875 48.484375 
Q 21.1875 48.484375 17.84375 46.4375 
Q 14.5 44.390625 14.5 40.28125 
Q 14.5 37.15625 16.890625 35.375 
Q 19.28125 33.59375 26.515625 31.984375 
L 29.59375 31.296875 
Q 39.15625 29.25 43.1875 25.515625 
Q 47.21875 21.78125 47.21875 15.09375 
Q 47.21875 7.46875 41.1875 3.015625 
Q 35.15625 -1.421875 24.609375 -1.421875 
Q 20.21875 -1.421875 15.453125 -0.5625 
Q 10.6875 0.296875 5.421875 2 
L 5.421875 11.28125 
Q 10.40625 8.6875 15.234375 7.390625 
Q 20.0625 6.109375 24.8125 6.109375 
Q 31.15625 6.109375 34.5625 8.28125 
Q 37.984375 10.453125 37.984375 14.40625 
Q 37.984375 18.0625 35.515625 20.015625 
Q 33.0625 21.96875 24.703125 23.78125 
L 21.578125 24.515625 
Q 13.234375 26.265625 9.515625 29.90625 
Q 5.8125 33.546875 5.8125 39.890625 
Q 5.8125 47.609375 11.28125 51.796875 
Q 16.75 56 26.8125 56 
Q 31.78125 56 36.171875 55.265625 
Q 40.578125 54.546875 44.28125 53.078125 
" id="DejaVuSans-73"/>
     </defs>
     <g transform="translate(191.738906 335.860562)scale(0.1 -0.1)">
      <use xlink:href="#DejaVuSans-4e"/>
      <use x="74.804688" xlink:href="#DejaVuSans-75"/>
      <use x="138.183594" xlink:href="#DejaVuSans-6d"/>
      <use x="235.595703" xlink:href="#DejaVuSans-62"/>
      <use x="299.072266" xlink:href="#DejaVuSans-65"/>
      <use x="360.595703" xlink:href="#DejaVuSans-72"/>
      <use x="401.708984" xlink:href="#DejaVuSans-20"/>
      <use x="433.496094" xlink:href="#DejaVuSans-6f"/>
      <use x="494.677734" xlink:href="#DejaVuSans-66"/>
      <use x="529.882812" xlink:href="#DejaVuSans-20"/>
      <use x="561.669922" xlink:href="#DejaVuSans-63"/>
      <use x="616.650391" xlink:href="#DejaVuSans-6c"/>
      <use x="644.433594" xlink:href="#DejaVuSans-69"/>
      <use x="672.216797" xlink:href="#DejaVuSans-65"/>
      <use x="733.740234" xlink:href="#DejaVuSans-6e"/>
      <use x="797.119141" xlink:href="#DejaVuSans-74"/>
      <use x="836.328125" xlink:href="#DejaVuSans-73"/>
     </g>
    </g>
   </g>
   <g id="matplotlib.axis_2">
    <g id="ytick_1">
     <g id="line2d_13">
      <path clip-path="url(#pd26692be5a)" d="M 57.6 296.255637 
L 414.72 296.255637 
" style="fill:none;stroke:#b0b0b0;stroke-linecap:square;stroke-width:0.8;"/>
     </g>
     <g id="line2d_14">
      <defs>
       <path d="M 0 0 
L -3.5 0 
" id="m5d5fe3527f" style="stroke:#000000;stroke-width:0.8;"/>
      </defs>
      <g>
       <use style="stroke:#000000;stroke-width:0.8;" x="57.6" xlink:href="#m5d5fe3527f" y="296.255637"/>
      </g>
     </g>
     <g id="text_8">
      <!-- 0 -->
      <g transform="translate(44.2375 300.054856)scale(0.1 -0.1)">
       <use xlink:href="#DejaVuSans-30"/>
      </g>
     </g>
    </g>
    <g id="ytick_2">
     <g id="line2d_15">
      <path clip-path="url(#pd26692be5a)" d="M 57.6 255.161562 
L 414.72 255.161562 
" style="fill:none;stroke:#b0b0b0;stroke-linecap:square;stroke-width:0.8;"/>
     </g>
     <g id="line2d_16">
      <g>
       <use style="stroke:#000000;stroke-width:0.8;" x="57.6" xlink:href="#m5d5fe3527f" y="255.161562"/>
      </g>
     </g>
     <g id="text_9">
      <!-- 50 -->
      <defs>
       <path d="M 10.796875 72.90625 
L 49.515625 72.90625 
L 49.515625 64.59375 
L 19.828125 64.59375 
L 19.828125 46.734375 
Q 21.96875 47.46875 24.109375 47.828125 
Q 26.265625 48.1875 28.421875 48.1875 
Q 40.625 48.1875 47.75 41.5 
Q 54.890625 34.8125 54.890625 23.390625 
Q 54.890625 11.625 47.5625 5.09375 
Q 40.234375 -1.421875 26.90625 -1.421875 
Q 22.3125 -1.421875 17.546875 -0.640625 
Q 12.796875 0.140625 7.71875 1.703125 
L 7.71875 11.625 
Q 12.109375 9.234375 16.796875 8.0625 
Q 21.484375 6.890625 26.703125 6.890625 
Q 35.15625 6.890625 40.078125 11.328125 
Q 45.015625 15.765625 45.015625 23.390625 
Q 45.015625 31 40.078125 35.4375 
Q 35.15625 39.890625 26.703125 39.890625 
Q 22.75 39.890625 18.8125 39.015625 
Q 14.890625 38.140625 10.796875 36.28125 
z
" id="DejaVuSans-35"/>
      </defs>
      <g transform="translate(37.875 258.960781)scale(0.1 -0.1)">
       <use xlink:href="#DejaVuSans-35"/>
       <use x="63.623047" xlink:href="#DejaVuSans-30"/>
      </g>
     </g>
    </g>
    <g id="ytick_3">
     <g id="line2d_17">
      <path clip-path="url(#pd26692be5a)" d="M 57.6 214.067487 
L 414.72 214.067487 
" style="fill:none;stroke:#b0b0b0;stroke-linecap:square;stroke-width:0.8;"/>
     </g>
     <g id="line2d_18">
      <g>
       <use style="stroke:#000000;stroke-width:0.8;" x="57.6" xlink:href="#m5d5fe3527f" y="214.067487"/>
      </g>
     </g>
     <g id="text_10">
      <!-- 100 -->
      <g transform="translate(31.5125 217.866705)scale(0.1 -0.1)">
       <use xlink:href="#DejaVuSans-31"/>
       <use x="63.623047" xlink:href="#DejaVuSans-30"/>
       <use x="127.246094" xlink:href="#DejaVuSans-30"/>
      </g>
     </g>
    </g>
    <g id="ytick_4">
     <g id="line2d_19">
      <path clip-path="url(#pd26692be5a)" d="M 57.6 172.973411 
L 414.72 172.973411 
" style="fill:none;stroke:#b0b0b0;stroke-linecap:square;stroke-width:0.8;"/>
     </g>
     <g id="line2d_20">
      <g>
       <use style="stroke:#000000;stroke-width:0.8;" x="57.6" xlink:href="#m5d5fe3527f" y="172.973411"/>
      </g>
     </g>
     <g id="text_11">
      <!-- 150 -->
      <g transform="translate(31.5125 176.77263)scale(0.1 -0.1)">
       <use xlink:href="#DejaVuSans-31"/>
       <use x="63.623047" xlink:href="#DejaVuSans-35"/>
       <use x="127.246094" xlink:href="#DejaVuSans-30"/>
      </g>
     </g>
    </g>
    <g id="ytick_5">
     <g id="line2d_21">
      <path clip-path="url(#pd26692be5a)" d="M 57.6 131.879336 
L 414.72 131.879336 
" style="fill:none;stroke:#b0b0b0;stroke-linecap:square;stroke-width:0.8;"/>
     </g>
     <g id="line2d_22">
      <g>
       <use style="stroke:#000000;stroke-width:0.8;" x="57.6" xlink:href="#m5d5fe3527f" y="131.879336"/>
      </g>
     </g>
     <g id="text_12">
      <!-- 200 -->
      <g transform="translate(31.5125 135.678554)scale(0.1 -0.1)">
       <use xlink:href="#DejaVuSans-32"/>
       <use x="63.623047" xlink:href="#DejaVuSans-30"/>
       <use x="127.246094" xlink:href="#DejaVuSans-30"/>
      </g>
     </g>
    </g>
    <g id="ytick_6">
     <g id="line2d_23">
      <path clip-path="url(#pd26692be5a)" d="M 57.6 90.78526 
L 414.72 90.78526 
" style="fill:none;stroke:#b0b0b0;stroke-linecap:square;stroke-width:0.8;"/>
     </g>
     <g id="line2d_24">
      <g>
       <use style="stroke:#000000;stroke-width:0.8;" x="57.6" xlink:href="#m5d5fe3527f" y="90.78526"/>
      </g>
     </g>
     <g id="text_13">
      <!-- 250 -->
      <g transform="translate(31.5125 94.584479)scale(0.1 -0.1)">
       <use xlink:href="#DejaVuSans-32"/>
       <use x="63.623047" xlink:href="#DejaVuSans-35"/>
       <use x="127.246094" xlink:href="#DejaVuSans-30"/>
      </g>
     </g>
    </g>
    <g id="ytick_7">
     <g id="line2d_25">
      <path clip-path="url(#pd26692be5a)" d="M 57.6 49.691185 
L 414.72 49.691185 
" style="fill:none;stroke:#b0b0b0;stroke-linecap:square;stroke-width:0.8;"/>
     </g>
     <g id="line2d_26">
      <g>
       <use style="stroke:#000000;stroke-width:0.8;" x="57.6" xlink:href="#m5d5fe3527f" y="49.691185"/>
      </g>
     </g>
     <g id="text_14">
      <!-- 300 -->
      <defs>
       <path d="M 40.578125 39.3125 
Q 47.65625 37.796875 51.625 33 
Q 55.609375 28.21875 55.609375 21.1875 
Q 55.609375 10.40625 48.1875 4.484375 
Q 40.765625 -1.421875 27.09375 -1.421875 
Q 22.515625 -1.421875 17.65625 -0.515625 
Q 12.796875 0.390625 7.625 2.203125 
L 7.625 11.71875 
Q 11.71875 9.328125 16.59375 8.109375 
Q 21.484375 6.890625 26.8125 6.890625 
Q 36.078125 6.890625 40.9375 10.546875 
Q 45.796875 14.203125 45.796875 21.1875 
Q 45.796875 27.640625 41.28125 31.265625 
Q 36.765625 34.90625 28.71875 34.90625 
L 20.21875 34.90625 
L 20.21875 43.015625 
L 29.109375 43.015625 
Q 36.375 43.015625 40.234375 45.921875 
Q 44.09375 48.828125 44.09375 54.296875 
Q 44.09375 59.90625 40.109375 62.90625 
Q 36.140625 65.921875 28.71875 65.921875 
Q 24.65625 65.921875 20.015625 65.03125 
Q 15.375 64.15625 9.8125 62.3125 
L 9.8125 71.09375 
Q 15.4375 72.65625 20.34375 73.4375 
Q 25.25 74.21875 29.59375 74.21875 
Q 40.828125 74.21875 47.359375 69.109375 
Q 53.90625 64.015625 53.90625 55.328125 
Q 53.90625 49.265625 50.4375 45.09375 
Q 46.96875 40.921875 40.578125 39.3125 
" id="DejaVuSans-33"/>
      </defs>
      <g transform="translate(31.5125 53.490404)scale(0.1 -0.1)">
       <use xlink:href="#DejaVuSans-33"/>
       <use x="63.623047" xlink:href="#DejaVuSans-30"/>
       <use x="127.246094" xlink:href="#DejaVuSans-30"/>
      </g>
     </g>
    </g>
    <g id="text_15">
     <!-- Successful download requests per second -->
     <defs>
      <path d="M 53.515625 70.515625 
L 53.515625 60.890625 
Q 47.90625 63.578125 42.921875 64.890625 
Q 37.9375 66.21875 33.296875 66.21875 
Q 25.25 66.21875 20.875 63.09375 
Q 16.5 59.96875 16.5 54.203125 
Q 16.5 49.359375 19.40625 46.890625 
Q 22.3125 44.4375 30.421875 42.921875 
L 36.375 41.703125 
Q 47.40625 39.59375 52.65625 34.296875 
Q 57.90625 29 57.90625 20.125 
Q 57.90625 9.515625 50.796875 4.046875 
Q 43.703125 -1.421875 29.984375 -1.421875 
Q 24.8125 -1.421875 18.96875 -0.25 
Q 13.140625 0.921875 6.890625 3.21875 
L 6.890625 13.375 
Q 12.890625 10.015625 18.65625 8.296875 
Q 24.421875 6.59375 29.984375 6.59375 
Q 38.421875 6.59375 43.015625 9.90625 
Q 47.609375 13.234375 47.609375 19.390625 
Q 47.609375 24.75 44.3125 27.78125 
Q 41.015625 30.8125 33.5 32.328125 
L 27.484375 33.5 
Q 16.453125 35.6875 11.515625 40.375 
Q 6.59375 45.0625 6.59375 53.421875 
Q 6.59375 63.09375 13.40625 68.65625 
Q 20.21875 74.21875 32.171875 74.21875 
Q 37.3125 74.21875 42.625 73.28125 
Q 47.953125 72.359375 53.515625 70.515625 
" id="DejaVuSans-53"/>
      <path d="M 45.40625 46.390625 
L 45.40625 75.984375 
L 54.390625 75.984375 
L 54.390625 0 
L 45.40625 0 
L 45.40625 8.203125 
Q 42.578125 3.328125 38.25 0.953125 
Q 33.9375 -1.421875 27.875 -1.421875 
Q 17.96875 -1.421875 11.734375 6.484375 
Q 5.515625 14.40625 5.515625 27.296875 
Q 5.515625 40.1875 11.734375 48.09375 
Q 17.96875 56 27.875 56 
Q 33.9375 56 38.25 53.625 
Q 42.578125 51.265625 45.40625 46.390625 
M 14.796875 27.296875 
Q 14.796875 17.390625 18.875 11.75 
Q 22.953125 6.109375 30.078125 6.109375 
Q 37.203125 6.109375 41.296875 11.75 
Q 45.40625 17.390625 45.40625 27.296875 
Q 45.40625 37.203125 41.296875 42.84375 
Q 37.203125 48.484375 30.078125 48.484375 
Q 22.953125 48.484375 18.875 42.84375 
Q 14.796875 37.203125 14.796875 27.296875 
" id="DejaVuSans-64"/>
      <path d="M 4.203125 54.6875 
L 13.1875 54.6875 
L 24.421875 12.015625 
L 35.59375 54.6875 
L 46.1875 54.6875 
L 57.421875 12.015625 
L 68.609375 54.6875 
L 77.59375 54.6875 
L 63.28125 0 
L 52.6875 0 
L 40.921875 44.828125 
L 29.109375 0 
L 18.5 0 
z
" id="DejaVuSans-77"/>
      <path d="M 34.28125 27.484375 
Q 23.390625 27.484375 19.1875 25 
Q 14.984375 22.515625 14.984375 16.5 
Q 14.984375 11.71875 18.140625 8.90625 
Q 21.296875 6.109375 26.703125 6.109375 
Q 34.1875 6.109375 38.703125 11.40625 
Q 43.21875 16.703125 43.21875 25.484375 
L 43.21875 27.484375 
z
M 52.203125 31.203125 
L 52.203125 0 
L 43.21875 0 
L 43.21875 8.296875 
Q 40.140625 3.328125 35.546875 0.953125 
Q 30.953125 -1.421875 24.3125 -1.421875 
Q 15.921875 -1.421875 10.953125 3.296875 
Q 6 8.015625 6 15.921875 
Q 6 25.140625 12.171875 29.828125 
Q 18.359375 34.515625 30.609375 34.515625 
L 43.21875 34.515625 
L 43.21875 35.40625 
Q 43.21875 41.609375 39.140625 45 
Q 35.0625 48.390625 27.6875 48.390625 
Q 23 48.390625 18.546875 47.265625 
Q 14.109375 46.140625 10.015625 43.890625 
L 10.015625 52.203125 
Q 14.9375 54.109375 19.578125 55.046875 
Q 24.21875 56 28.609375 56 
Q 40.484375 56 46.34375 49.84375 
Q 52.203125 43.703125 52.203125 31.203125 
" id="DejaVuSans-61"/>
      <path d="M 14.796875 27.296875 
Q 14.796875 17.390625 18.875 11.75 
Q 22.953125 6.109375 30.078125 6.109375 
Q 37.203125 6.109375 41.296875 11.75 
Q 45.40625 17.390625 45.40625 27.296875 
Q 45.40625 37.203125 41.296875 42.84375 
Q 37.203125 48.484375 30.078125 48.484375 
Q 22.953125 48.484375 18.875 42.84375 
Q 14.796875 37.203125 14.796875 27.296875 
M 45.40625 8.203125 
Q 42.578125 3.328125 38.25 0.953125 
Q 33.9375 -1.421875 27.875 -1.421875 
Q 17.96875 -1.421875 11.734375 6.484375 
Q 5.515625 14.40625 5.515625 27.296875 
Q 5.515625 40.1875 11.734375 48.09375 
Q 17.96875 56 27.875 56 
Q 33.9375 56 38.25 53.625 
Q 42.578125 51.265625 45.40625 46.390625 
L 45.40625 54.6875 
L 54.390625 54.6875 
L 54.390625 -20.796875 
L 45.40625 -20.796875 
z
" id="DejaVuSans-71"/>
      <path d="M 18.109375 8.203125 
L 18.109375 -20.796875 
L 9.078125 -20.796875 
L 9.078125 54.6875 
L 18.109375 54.6875 
L 18.109375 46.390625 
Q 20.953125 51.265625 25.265625 53.625 
Q 29.59375 56 35.59375 56 
Q 45.5625 56 51.78125 48.09375 
Q 58.015625 40.1875 58.015625 27.296875 
Q 58.015625 14.40625 51.78125 6.484375 
Q 45.5625 -1.421875 35.59375 -1.421875 
Q 29.59375 -1.421875 25.265625 0.953125 
Q 20.953125 3.328125 18.109375 8.203125 
M 48.6875 27.296875 
Q 48.6875 37.203125 44.609375 42.84375 
Q 40.53125 48.484375 33.40625 48.484375 
Q 26.265625 48.484375 22.1875 42.84375 
Q 18.109375 37.203125 18.109375 27.296875 
Q 18.109375 17.390625 22.1875 11.75 
Q 26.265625 6.109375 33.40625 6.109375 
Q 40.53125 6.109375 44.609375 11.75 
Q 48.6875 17.390625 48.6875 27.296875 
" id="DejaVuSans-70"/>
     </defs>
     <g transform="translate(25.432812 279.366281)rotate(-90)scale(0.1 -0.1)">
      <use xlink:href="#DejaVuSans-53"/>
      <use x="63.476562" xlink:href="#DejaVuSans-75"/>
      <use x="126.855469" xlink:href="#DejaVuSans-63"/>
      <use x="181.835938" xlink:href="#DejaVuSans-63"/>
      <use x="236.816406" xlink:href="#DejaVuSans-65"/>
      <use x="298.339844" xlink:href="#DejaVuSans-73"/>
      <use x="350.439453" xlink:href="#DejaVuSans-73"/>
      <use x="402.539062" xlink:href="#DejaVuSans-66"/>
      <use x="437.744141" xlink:href="#DejaVuSans-75"/>
      <use x="501.123047" xlink:href="#DejaVuSans-6c"/>
      <use x="528.90625" xlink:href="#DejaVuSans-20"/>
      <use x="560.693359" xlink:href="#DejaVuSans-64"/>
      <use x="624.169922" xlink:href="#DejaVuSans-6f"/>
      <use x="685.351562" xlink:href="#DejaVuSans-77"/>
      <use x="767.138672" xlink:href="#DejaVuSans-6e"/>
      <use x="830.517578" xlink:href="#DejaVuSans-6c"/>
      <use x="858.300781" xlink:href="#DejaVuSans-6f"/>
      <use x="919.482422" xlink:href="#DejaVuSans-61"/>
      <use x="980.761719" xlink:href="#DejaVuSans-64"/>
      <use x="1044.238281" xlink:href="#DejaVuSans-20"/>
      <use x="1076.025391" xlink:href="#DejaVuSans-72"/>
      <use x="1117.107422" xlink:href="#DejaVuSans-65"/>
      <use x="1178.630859" xlink:href="#DejaVuSans-71"/>
      <use x="1242.107422" xlink:href="#DejaVuSans-75"/>
      <use x="1305.486328" xlink:href="#DejaVuSans-65"/>
      <use x="1367.009766" xlink:href="#DejaVuSans-73"/>
      <use x="1419.109375" xlink:href="#DejaVuSans-74"/>
      <use x="1458.318359" xlink:href="#DejaVuSans-73"/>
      <use x="1510.417969" xlink:href="#DejaVuSans-20"/>
      <use x="1542.205078" xlink:href="#DejaVuSans-70"/>
      <use x="1605.681641" xlink:href="#DejaVuSans-65"/>
      <use x="1667.205078" xlink:href="#DejaVuSans-72"/>
      <use x="1708.318359" xlink:href="#DejaVuSans-20"/>
      <use x="1740.105469" xlink:href="#DejaVuSans-73"/>
      <use x="1792.205078" xlink:href="#DejaVuSans-65"/>
      <use x="1853.728516" xlink:href="#DejaVuSans-63"/>
      <use x="1908.708984" xlink:href="#DejaVuSans-6f"/>
      <use x="1969.890625" xlink:href="#DejaVuSans-6e"/>
      <use x="2033.269531" xlink:href="#DejaVuSans-64"/>
     </g>
    </g>
   </g>
   <g id="line2d_27">
    <path clip-path="url(#pd26692be5a)" d="M 57.6 295.488 
L 57.95712 295.487178 
L 59.74272 291.456671 
L 60.09984 290.831219 
L 61.88544 286.580448 
L 62.24256 286.129235 
L 64.7424 280.070325 
L 65.09952 279.961836 
L 65.45664 278.641073 
L 66.17088 277.46907 
L 66.528 276.126937 
L 66.88512 276.105568 
L 67.59936 274.064837 
L 67.95648 272.919956 
L 68.3136 272.467099 
L 68.67072 271.80795 
L 69.02784 270.819227 
L 69.38496 270.358151 
L 69.74208 268.630556 
L 70.0992 269.046428 
L 70.81344 267.842372 
L 71.17056 266.873373 
L 71.8848 265.583019 
L 72.24192 264.001719 
L 72.59904 263.522563 
L 72.95616 262.570002 
L 73.31328 260.244899 
L 73.6704 261.430052 
L 74.02752 260.857201 
L 74.38464 259.184672 
L 74.74176 259.103306 
L 75.09888 258.388269 
L 75.456 256.343428 
L 75.81312 255.982622 
L 76.17024 256.153573 
L 76.52736 255.717976 
L 76.88448 253.617247 
L 77.2416 254.004353 
L 77.59872 252.74934 
L 77.95584 250.176029 
L 78.31296 249.677969 
L 78.67008 250.466153 
L 79.0272 248.099134 
L 79.38432 249.008957 
L 79.74144 246.108537 
L 80.09856 246.129906 
L 80.45568 247.001922 
L 80.8128 246.075662 
L 81.16992 245.732937 
L 81.88416 240.422761 
L 82.24128 240.085789 
L 82.5984 238.800367 
L 82.95552 238.326963 
L 83.66976 239.966617 
L 84.02688 238.076289 
L 84.384 238.450245 
L 84.74112 236.481839 
L 85.09824 237.072772 
L 85.45536 236.57389 
L 85.81248 235.494759 
L 86.1696 233.353758 
L 86.52672 232.074088 
L 86.88384 233.069387 
L 87.24096 228.426578 
L 87.59808 228.826835 
L 87.9552 228.489041 
L 88.31232 225.950249 
L 88.66944 225.457942 
L 89.02656 227.049105 
L 89.38368 224.424015 
L 89.7408 224.68373 
L 90.09792 224.144576 
L 90.45504 224.728933 
L 90.81216 220.093522 
L 91.16928 221.107724 
L 91.5264 219.472179 
L 91.88352 221.00581 
L 92.24064 217.035301 
L 92.59776 221.321413 
L 92.95488 215.151548 
L 93.312 219.251093 
L 93.66912 214.523631 
L 94.02624 213.861194 
L 94.38336 217.195568 
L 94.74048 212.712204 
L 95.0976 212.132777 
L 95.45472 214.362542 
L 96.16896 208.623343 
L 96.8832 205.924285 
L 97.59744 209.82329 
L 97.95456 206.470836 
L 98.31168 206.489739 
L 98.6688 207.257376 
L 99.02592 204.361066 
L 99.74016 202.865242 
L 100.09728 203.572882 
L 100.4544 203.297551 
L 100.81152 200.406994 
L 101.16864 199.965644 
L 101.52576 200.393844 
L 102.24 198.777203 
L 102.95424 195.281741 
L 103.31136 196.114307 
L 103.66848 190.247717 
L 104.0256 194.332468 
L 104.38272 193.412782 
L 104.73984 188.071374 
L 105.09696 193.908377 
L 105.45408 186.701298 
L 105.8112 191.616149 
L 106.16832 186.54514 
L 106.52544 186.573906 
L 106.88256 184.510984 
L 107.23968 186.49254 
L 107.5968 182.883658 
L 107.95392 185.310674 
L 108.31104 180.962099 
L 108.66816 182.379023 
L 109.02528 179.453947 
L 109.3824 183.022556 
L 109.73952 179.116975 
L 110.09664 181.950823 
L 110.45376 180.202681 
L 110.81088 176.59873 
L 111.168 174.44951 
L 111.52512 173.168197 
L 111.88224 179.855847 
L 112.23936 177.012959 
L 112.59648 175.719317 
L 112.9536 176.10478 
L 113.31072 171.254857 
L 113.66784 176.126149 
L 114.02496 175.306733 
L 114.38208 169.610272 
L 114.7392 169.256041 
L 115.09632 173.186278 
L 115.45344 163.875183 
L 115.81056 169.753279 
L 116.16768 167.165996 
L 116.88192 168.628945 
L 117.23904 168.158007 
L 117.59616 162.248679 
L 117.95328 163.745326 
L 118.3104 158.971016 
L 118.66752 157.287803 
L 119.02464 164.084763 
L 119.38176 162.819065 
L 119.73888 159.354835 
L 120.096 153.453725 
L 120.45312 157.314925 
L 120.81024 159.021151 
L 121.16736 154.927359 
L 121.52448 158.375974 
L 121.8816 155.524867 
L 122.59584 147.77288 
L 122.95296 151.031641 
L 123.31008 145.65407 
L 123.6672 153.861379 
L 124.02432 147.644667 
L 124.38144 151.331627 
L 124.73856 145.711602 
L 125.09568 143.431702 
L 125.4528 147.804112 
L 125.80992 141.72712 
L 126.16704 149.356646 
L 126.52416 139.176 
L 126.88128 138.138785 
L 127.2384 136.684055 
L 127.59552 141.729586 
L 127.95264 141.077012 
L 128.30976 144.663703 
L 128.66688 132.907509 
L 129.024 142.787347 
L 129.73824 138.14947 
L 130.09536 138.044269 
L 130.45248 129.154799 
L 130.8096 135.212065 
L 131.16672 132.683958 
L 131.52384 134.8077 
L 131.88096 133.08257 
L 132.23808 124.867043 
L 132.95232 126.67436 
L 133.30944 122.089905 
L 133.66656 131.892486 
L 134.02368 125.457976 
L 134.3808 123.83065 
L 134.73792 126.073565 
L 135.09504 119.942329 
L 135.45216 117.512025 
L 135.80928 124.30241 
L 136.1664 117.834203 
L 136.52352 123.494501 
L 136.88064 120.809414 
L 137.23776 121.481713 
L 137.952 112.66539 
L 138.30912 114.18998 
L 138.66624 112.156645 
L 139.02336 113.640963 
L 139.38048 119.203457 
L 139.7376 110.438091 
L 140.09472 112.554436 
L 140.45184 118.499105 
L 140.80896 116.647406 
L 141.16608 106.560454 
L 141.5232 107.156318 
L 141.88032 114.44312 
L 142.23744 101.865045 
L 142.59456 110.068244 
L 142.95168 109.038427 
L 143.3088 101.406435 
L 143.66592 103.922214 
L 144.02304 104.781081 
L 144.38016 104.605198 
L 144.73728 96.951837 
L 145.0944 104.832037 
L 145.45152 101.828882 
L 145.80864 103.411004 
L 146.16576 98.621079 
L 146.52288 96.520349 
L 146.88 101.284797 
L 147.23712 100.461271 
L 147.59424 92.968999 
L 147.95136 98.130415 
L 148.30848 88.520977 
L 148.6656 91.312086 
L 149.02272 91.877541 
L 149.37984 90.561709 
L 149.73696 94.451674 
L 150.09408 92.537512 
L 150.4512 91.750971 
L 150.80832 83.17135 
L 151.16544 84.871823 
L 151.52256 92.069039 
L 151.87968 91.748505 
L 152.2368 79.325766 
L 152.59392 82.930539 
L 152.95104 90.592118 
L 153.30816 80.200248 
L 153.66528 81.762645 
L 154.0224 82.440697 
L 154.37952 74.554744 
L 154.73664 84.064735 
L 155.09376 84.635121 
L 155.45088 81.133084 
L 155.808 71.218727 
L 156.16512 72.306077 
L 156.52224 83.415449 
L 156.87936 74.969794 
L 157.23648 81.862093 
L 157.5936 70.542319 
L 157.95072 70.94915 
L 158.30784 78.794831 
L 158.66496 72.064443 
L 159.02208 77.774876 
L 159.3792 67.65998 
L 159.73632 75.00267 
L 160.09344 64.255747 
L 160.45056 76.056322 
L 160.80768 62.173921 
L 161.1648 64.517105 
L 161.52192 69.409766 
L 161.87904 62.011189 
L 162.23616 69.266759 
L 162.59328 58.529699 
L 162.9504 56.261306 
L 163.30752 57.542619 
L 163.66464 68.474465 
L 164.02176 61.809828 
L 164.37888 63.156892 
L 164.736 57.941232 
L 165.09312 62.827317 
L 165.45024 60.97644 
L 165.80736 53.568 
L 166.16448 64.568884 
L 166.5216 68.655279 
L 166.87872 63.036897 
L 167.23584 72.027459 
L 167.59296 57.440706 
L 167.95008 67.228493 
L 168.3072 65.094066 
L 168.66432 71.881164 
L 169.02144 70.011383 
L 169.37856 65.473776 
L 169.73568 64.312457 
L 170.0928 66.478937 
L 170.80704 78.284443 
L 171.16416 66.724679 
L 171.52128 69.847007 
L 171.8784 68.029827 
L 172.23552 78.564704 
L 172.59264 74.416668 
L 172.94976 75.696338 
L 173.30688 79.061942 
L 173.664 77.244762 
L 174.02112 71.611587 
L 174.37824 73.51753 
L 174.73536 76.454112 
L 175.09248 73.171518 
L 175.4496 82.477682 
L 175.80672 87.612798 
L 176.16384 77.948293 
L 176.52096 84.760869 
L 176.87808 79.968478 
L 177.2352 81.294173 
L 177.59232 81.179109 
L 177.94944 87.302126 
L 178.30656 82.650277 
L 178.66368 85.129072 
L 179.0208 84.80525 
L 179.37792 79.913412 
L 179.73504 81.817711 
L 180.09216 81.764289 
L 180.44928 93.61582 
L 180.8064 88.245646 
L 181.16352 88.742063 
L 181.52064 91.966304 
L 181.87776 86.467917 
L 182.23488 94.472221 
L 182.592 98.584094 
L 182.94912 93.910876 
L 183.30624 94.058814 
L 183.66336 89.908313 
L 184.02048 89.49655 
L 184.3776 97.021697 
L 184.73472 90.018445 
L 185.09184 92.626275 
L 185.44896 90.837861 
L 185.80608 100.987275 
L 186.1632 103.75866 
L 186.87744 95.339306 
L 187.23456 102.482278 
L 187.59168 94.109771 
L 187.9488 101.912714 
L 188.30592 101.778747 
L 188.66304 104.043853 
L 189.02016 98.643269 
L 189.37728 95.90887 
L 189.7344 108.387497 
L 190.09152 97.226346 
L 190.44864 111.095596 
L 190.80576 106.289233 
L 191.16288 110.521101 
L 191.52 104.969291 
L 191.87712 102.820071 
L 192.23424 111.134225 
L 192.59136 108.856791 
L 192.94848 103.517849 
L 193.66272 114.083135 
L 194.01984 109.612922 
L 194.37696 112.060485 
L 194.73408 111.070118 
L 195.0912 117.253954 
L 195.44832 111.425993 
L 195.80544 116.599737 
L 196.16256 117.209573 
L 196.51968 111.400514 
L 196.8768 116.733703 
L 197.23392 108.016006 
L 197.59104 119.525635 
L 197.94816 116.418101 
L 198.30528 111.52544 
L 198.6624 109.08363 
L 199.01952 117.336142 
L 199.37664 121.516232 
L 199.73376 115.138431 
L 200.09088 122.625772 
L 200.80512 118.791695 
L 201.16224 120.830783 
L 201.51936 116.178111 
L 201.87648 125.236067 
L 202.2336 118.537733 
L 202.59072 119.242908 
L 202.94784 126.99325 
L 203.30496 124.920465 
L 203.66208 118.325688 
L 204.0192 121.639514 
L 204.37632 118.813885 
L 204.73344 128.343601 
L 205.09056 117.353402 
L 205.44768 124.56459 
L 205.8048 119.813293 
L 206.16192 121.680608 
L 206.51904 130.605419 
L 206.87616 130.728702 
L 207.5904 123.293961 
L 207.94752 129.104664 
L 208.30464 128.973163 
L 208.66176 132.893538 
L 209.01888 129.969283 
L 209.376 125.487563 
L 209.73312 129.947914 
L 210.09024 132.253292 
L 210.44736 130.32598 
L 210.80448 135.890117 
L 211.1616 131.133889 
L 211.51872 134.628529 
L 211.87584 132.149735 
L 212.23296 128.175938 
L 212.59008 126.833805 
L 212.9472 126.366155 
L 213.30432 130.401593 
L 213.66144 130.449262 
L 214.01856 127.659796 
L 214.37568 130.791986 
L 214.7328 138.499591 
L 215.08992 134.195398 
L 215.80416 140.455669 
L 216.16128 138.392747 
L 216.5184 140.341428 
L 216.87552 133.934039 
L 217.58976 141.28166 
L 217.94688 142.445444 
L 218.304 143.109525 
L 218.66112 142.622149 
L 219.01824 142.435582 
L 219.37536 140.614292 
L 219.73248 143.03309 
L 220.0896 139.319007 
L 220.44672 138.867794 
L 221.16096 135.360826 
L 221.51808 135.339457 
L 221.8752 141.407408 
L 222.23232 138.137963 
L 222.58944 137.639081 
L 222.94656 138.362337 
L 223.30368 143.144044 
L 223.6608 142.214496 
L 224.01792 146.812101 
L 224.37504 144.925883 
L 224.73216 142.217783 
L 225.08928 141.663013 
L 225.4464 143.842643 
L 225.80352 143.396361 
L 226.16064 146.69375 
L 226.51776 142.401063 
L 226.87488 141.053999 
L 227.232 146.002548 
L 227.58912 147.645489 
L 227.94624 145.1782 
L 228.30336 150.899318 
L 228.66048 148.349019 
L 229.0176 149.833337 
L 229.37472 143.991404 
L 229.73184 151.096569 
L 230.08896 150.550018 
L 230.44608 144.57083 
L 230.8032 144.040716 
L 231.16032 150.139077 
L 231.51744 151.182867 
L 231.87456 150.84343 
L 232.23168 154.540253 
L 232.5888 151.141773 
L 233.30304 155.782938 
L 233.66016 150.03963 
L 234.01728 146.981408 
L 234.3744 156.833302 
L 234.73152 156.988638 
L 235.08864 153.601664 
L 235.44576 153.743028 
L 235.80288 152.28501 
L 236.16 155.099954 
L 236.51712 150.44153 
L 236.87424 156.208672 
L 237.23136 149.415821 
L 237.58848 159.199499 
L 237.9456 157.942842 
L 238.30272 152.741976 
L 238.65984 157.978183 
L 239.01696 154.285469 
L 239.37408 157.331362 
L 239.7312 153.106069 
L 240.08832 159.577564 
L 240.44544 161.412004 
L 240.80256 155.528154 
L 241.15968 154.744079 
L 241.5168 153.581117 
L 241.87392 159.878373 
L 242.23104 158.459806 
L 242.58816 158.105575 
L 242.94528 156.665638 
L 243.3024 163.287538 
L 243.65952 157.509711 
L 244.37376 155.456651 
L 244.73088 155.814169 
L 245.088 161.880476 
L 245.44512 156.732211 
L 245.80224 164.631314 
L 246.15936 162.154163 
L 246.51648 163.846417 
L 246.8736 164.18421 
L 247.23072 157.743125 
L 247.58784 161.147358 
L 247.94496 159.380313 
L 248.30208 166.851216 
L 248.6592 167.392836 
L 249.01632 158.842802 
L 249.37344 166.532326 
L 249.73056 161.085717 
L 250.08768 160.961613 
L 250.4448 164.415159 
L 250.80192 162.486203 
L 251.15904 166.372881 
L 251.51616 166.525751 
L 251.87328 167.193118 
L 252.2304 164.475156 
L 252.58752 163.123161 
L 252.94464 169.519043 
L 253.30176 170.48722 
L 253.65888 164.22777 
L 254.016 161.775276 
L 254.37312 163.541499 
L 254.73024 168.903454 
L 255.08736 169.32097 
L 255.44448 169.494387 
L 255.8016 170.329418 
L 256.15872 168.097188 
L 256.51584 170.576805 
L 256.87296 168.074175 
L 257.23008 168.368409 
L 257.5872 167.5605 
L 257.94432 170.254627 
L 258.30144 167.152846 
L 258.65856 165.377582 
L 259.01568 168.262386 
L 259.3728 173.345723 
L 259.72992 170.617899 
L 260.08704 172.784378 
L 260.44416 167.121615 
L 260.80128 171.407727 
L 261.1584 172.716162 
L 261.51552 172.261662 
L 261.87264 170.097648 
L 262.22976 171.926334 
L 262.58688 174.939352 
L 262.944 176.509967 
L 264.01536 171.514571 
L 264.37248 176.952961 
L 264.7296 169.9456 
L 265.08672 170.670499 
L 265.44384 175.334677 
L 265.80096 171.137328 
L 266.15808 178.373173 
L 266.5152 173.078612 
L 266.87232 173.288192 
L 267.22944 176.232171 
L 267.58656 177.475678 
L 267.94368 173.44024 
L 268.3008 178.203043 
L 268.65792 172.769585 
L 269.01504 179.100538 
L 269.37216 171.683879 
L 269.72928 176.879814 
L 270.0864 178.403582 
L 270.44352 172.232896 
L 270.80064 179.518054 
L 271.15776 172.673424 
L 271.51488 178.092089 
L 271.872 176.925839 
L 272.22912 173.402433 
L 272.58624 176.12697 
L 272.94336 177.785527 
L 273.30048 176.627496 
L 273.6576 180.650606 
L 274.01472 177.867716 
L 274.37184 181.108394 
L 274.72896 181.61303 
L 275.08608 179.241901 
L 275.4432 177.863606 
L 275.80032 182.650244 
L 276.15744 177.835662 
L 276.51456 176.002044 
L 276.87168 176.425313 
L 277.58592 181.387012 
L 277.94304 180.70896 
L 278.30016 182.387242 
L 278.65728 179.44244 
L 279.0144 180.399111 
L 279.37152 183.695677 
L 279.72864 185.541623 
L 280.08576 178.762744 
L 280.8 183.579792 
L 281.15712 179.342993 
L 281.51424 183.253505 
L 281.87136 179.921597 
L 282.22848 180.45993 
L 282.5856 183.874026 
L 282.94272 183.272408 
L 283.29984 181.746996 
L 283.65696 186.393914 
L 284.01408 185.113423 
L 284.3712 187.367844 
L 284.72832 185.251499 
L 285.08544 185.230952 
L 285.44256 187.994118 
L 285.79968 184.427974 
L 286.1568 188.17 
L 286.51392 187.911108 
L 286.87104 188.619569 
L 287.22816 181.749462 
L 287.58528 184.660566 
L 287.9424 186.439118 
L 288.29952 185.839966 
L 288.65664 189.883623 
L 289.01376 184.958087 
L 289.37088 190.195938 
L 290.08512 185.836679 
L 290.44224 185.807913 
L 290.79936 187.039091 
L 291.15648 190.491815 
L 291.5136 186.64541 
L 291.87072 184.113193 
L 292.22784 187.183742 
L 292.58496 186.468705 
L 292.94208 191.726281 
L 293.2992 185.922154 
L 293.65632 188.760933 
L 294.37056 186.062696 
L 294.72768 189.316525 
L 295.0848 187.203468 
L 295.79904 192.126538 
L 296.15616 187.778785 
L 296.51328 192.755277 
L 296.8704 187.082651 
L 297.22752 188.232463 
L 297.58464 193.671675 
L 297.94176 192.231739 
L 298.656 187.27004 
L 299.01312 187.177989 
L 299.37024 191.14028 
L 299.72736 191.990105 
L 300.08448 193.646197 
L 300.4416 193.126768 
L 300.79872 190.161419 
L 301.15584 193.179368 
L 301.51296 194.535472 
L 301.87008 188.325336 
L 302.2272 191.552043 
L 302.58432 190.972616 
L 302.94144 193.205668 
L 303.29856 194.604511 
L 303.65568 190.243607 
L 304.0128 195.882536 
L 304.36992 194.23713 
L 304.72704 194.234664 
L 305.08416 195.368038 
L 305.44128 197.05043 
L 305.7984 195.159281 
L 306.15552 197.119468 
L 306.51264 192.381321 
L 306.86976 197.062758 
L 307.22688 195.367217 
L 307.584 196.850713 
L 307.94112 193.181012 
L 308.65536 197.466302 
L 309.01248 195.105858 
L 309.3696 194.985042 
L 309.72672 191.871755 
L 310.08384 197.241106 
L 310.44096 198.500229 
L 310.79808 193.460451 
L 311.1552 198.374481 
L 311.51232 197.172068 
L 311.86944 195.522552 
L 312.22656 197.348773 
L 312.58368 196.942763 
L 312.9408 198.22572 
L 313.29792 195.795417 
L 313.65504 195.885002 
L 314.01216 195.53488 
L 314.36928 193.384838 
L 314.7264 197.303569 
L 315.08352 196.319777 
L 315.44064 200.969161 
L 315.79776 194.325893 
L 316.86912 200.032216 
L 317.22624 199.117462 
L 317.58336 195.068874 
L 318.2976 201.822274 
L 318.65472 197.601912 
L 319.01184 200.948614 
L 319.36896 198.669536 
L 319.72608 202.244721 
L 320.0832 202.365538 
L 320.44032 198.610361 
L 320.79744 202.241434 
L 321.15456 197.008514 
L 321.8688 202.93017 
L 322.22592 198.39585 
L 322.58304 199.427311 
L 322.94016 201.955419 
L 323.29728 203.438915 
L 324.01152 202.827435 
L 324.36864 203.250704 
L 324.72576 197.684922 
L 325.08288 204.155596 
L 325.44 198.13367 
L 325.79712 201.04313 
L 326.15424 200.191661 
L 326.51136 202.485532 
L 326.86848 203.420012 
L 327.2256 201.403114 
L 327.58272 204.665984 
L 327.93984 201.237094 
L 328.29696 202.509367 
L 328.65408 200.266452 
L 329.0112 204.855017 
L 329.36832 203.763558 
L 329.72544 202.077879 
L 330.08256 201.468043 
L 330.43968 205.679364 
L 330.7968 202.487998 
L 331.15392 204.915014 
L 331.51104 204.55503 
L 331.86816 201.809124 
L 332.22528 204.234496 
L 332.5824 203.499734 
L 332.93952 205.064596 
L 333.29664 200.507264 
L 333.65376 205.641557 
L 334.01088 206.715756 
L 334.368 203.77753 
L 334.72512 203.236732 
L 335.08224 202.429644 
L 335.43936 205.49855 
L 335.79648 207.343674 
L 336.1536 206.693566 
L 336.51072 207.272992 
L 336.86784 206.207834 
L 337.22496 203.168516 
L 337.58208 205.004599 
L 337.9392 208.37267 
L 338.29632 202.179792 
L 338.65344 204.549277 
L 339.01056 205.743471 
L 339.36768 209.034284 
L 339.7248 203.692054 
L 340.08192 204.3586 
L 340.43904 204.167924 
L 340.79616 209.284958 
L 341.15328 206.825067 
L 341.5104 205.954694 
L 341.86752 208.682519 
L 342.22464 204.04382 
L 342.58176 208.006932 
L 342.93888 205.356364 
L 343.296 209.509332 
L 343.65312 204.911727 
L 344.01024 208.537046 
L 344.36736 207.176832 
L 345.0816 207.725849 
L 345.43872 206.030307 
L 345.79584 205.885656 
L 346.15296 208.336507 
L 346.51008 206.307281 
L 346.8672 209.793703 
L 347.22432 205.469784 
L 347.58144 209.209345 
L 347.93856 207.540104 
L 348.29568 207.858994 
L 348.6528 206.004007 
L 349.36704 212.030042 
L 349.72416 207.51216 
L 350.08128 209.435362 
L 350.4384 212.19935 
L 350.79552 211.267336 
L 351.15264 211.767862 
L 351.50976 212.071958 
L 351.86688 212.770558 
L 352.224 211.868132 
L 352.58112 209.017847 
L 352.93824 212.854389 
L 353.29536 208.458967 
L 353.65248 207.134916 
L 354.0096 210.866258 
L 354.36672 208.595399 
L 354.72384 209.857809 
L 355.08096 209.986845 
L 355.43808 210.543259 
L 355.7952 208.004467 
L 356.15232 211.132548 
L 356.50944 208.21569 
L 356.86656 212.410573 
L 357.22368 209.72713 
L 357.5808 210.816945 
L 357.93792 210.801329 
L 358.29504 212.34811 
L 358.65216 211.777725 
L 359.00928 212.147571 
L 359.3664 209.98027 
L 359.72352 210.051773 
L 360.08064 212.659604 
L 360.43776 214.12584 
L 360.79488 214.143922 
L 361.152 214.434868 
L 361.50912 212.803433 
L 361.86624 215.228805 
L 362.22336 212.288935 
L 362.58048 211.441575 
L 362.9376 212.890552 
L 363.29472 215.843572 
L 363.65184 214.795674 
L 364.00896 214.316517 
L 364.36608 210.609009 
L 364.7232 216.169038 
L 365.08032 212.455777 
L 365.43744 216.325195 
L 365.79456 212.577415 
L 366.15168 214.496509 
L 366.5088 213.914617 
L 366.86592 215.3488 
L 367.22304 216.307936 
L 367.58016 213.936807 
L 367.93728 216.962975 
L 368.2944 212.108121 
L 369.00864 216.748464 
L 369.36576 216.347386 
L 370.08 214.234328 
L 370.43712 217.578564 
L 370.79424 213.039313 
L 371.50848 217.953342 
L 371.8656 212.976028 
L 372.22272 213.094379 
L 372.57984 212.894662 
L 372.93696 218.050324 
L 373.29408 216.809283 
L 373.6512 216.547925 
L 374.36544 213.838182 
L 374.72256 216.892293 
L 375.07968 213.289165 
L 375.4368 217.973067 
L 375.79392 216.416424 
L 376.15104 218.960969 
L 376.50816 214.907449 
L 376.86528 218.705364 
L 377.2224 214.660885 
L 377.57952 216.549569 
L 377.93664 217.451995 
L 378.29376 214.346104 
L 378.65088 218.330586 
L 379.008 216.932565 
L 379.36512 216.796133 
L 379.72224 216.941606 
L 380.07936 218.629751 
L 380.43648 216.613675 
L 380.7936 216.398342 
L 381.15072 219.789426 
L 381.50784 218.475237 
L 381.86496 215.447426 
L 382.22208 218.059365 
L 382.5792 216.643263 
L 382.93632 217.435557 
L 383.29344 219.872436 
L 383.65056 217.080504 
L 384.00768 220.31132 
L 384.3648 219.766413 
L 385.07904 216.66381 
L 385.43616 218.290314 
L 385.79328 216.882431 
L 386.1504 221.105258 
L 386.50752 216.773942 
L 386.86464 220.526653 
L 387.22176 221.557293 
L 387.57888 217.457748 
L 387.936 220.525831 
L 388.29312 217.409257 
L 388.65024 220.483094 
L 389.00736 221.178405 
L 389.36448 218.678242 
L 389.7216 221.512089 
L 390.07872 217.871976 
L 390.43584 219.828054 
L 390.79296 217.635274 
L 391.15008 218.074159 
L 391.5072 221.973165 
L 391.86432 219.242053 
L 392.22144 220.263651 
L 392.57856 219.825588 
L 392.93568 219.570805 
L 393.2928 220.318717 
L 393.64992 219.48122 
L 394.00704 219.759838 
L 394.36416 218.018271 
L 394.72128 223.169002 
L 395.43552 220.034346 
L 395.79264 219.759838 
L 396.14976 221.806323 
L 396.50688 218.349489 
L 396.864 221.227718 
L 397.22112 218.872206 
L 397.57824 223.750894 
L 397.93536 221.501405 
L 398.29248 220.044209 
L 398.6496 220.383646 
L 399.36384 219.800932 
L 399.72096 223.78377 
L 400.07808 224.431412 
L 400.4352 222.553413 
L 400.79232 219.957911 
L 401.14944 220.790477 
L 401.50656 223.584053 
L 401.86368 220.76993 
L 402.2208 223.348994 
L 402.57792 224.839066 
L 402.93504 225.041248 
L 403.64928 222.116172 
L 404.0064 224.418262 
L 404.36352 224.230873 
L 404.72064 224.358265 
L 405.07776 221.61729 
L 405.43488 224.771671 
L 405.792 224.914679 
L 406.14912 221.448804 
L 406.50624 222.018368 
L 406.86336 225.022345 
L 407.22048 224.560448 
L 407.5776 225.716835 
L 407.93472 223.566793 
L 408.29184 223.313653 
L 408.64896 223.245437 
L 409.3632 221.323056 
L 409.72032 226.161473 
L 410.07744 225.220419 
L 410.43456 222.587932 
L 410.79168 221.615646 
L 411.1488 221.842486 
L 411.50592 224.885091 
L 411.86304 225.024811 
L 412.22016 225.702041 
L 412.57728 226.840347 
L 412.9344 224.423194 
L 413.29152 226.392422 
L 413.64864 225.818748 
L 414.00576 222.973395 
L 414.36288 225.218775 
L 414.72 222.612589 
L 414.72 222.612589 
" style="fill:none;stroke:#000080;stroke-linecap:square;stroke-width:0.5;"/>
   </g>
   <g id="patch_3">
    <path d="M 57.6 307.584 
L 57.6 41.472 
" style="fill:none;stroke:#000000;stroke-linecap:square;stroke-linejoin:miter;stroke-width:0.8;"/>
   </g>
   <g id="patch_4">
    <path d="M 414.72 307.584 
L 414.72 41.472 
" style="fill:none;stroke:#000000;stroke-linecap:square;stroke-linejoin:miter;stroke-width:0.8;"/>
   </g>
   <g id="patch_5">
    <path d="M 57.6 307.584 
L 414.72 307.584 
" style="fill:none;stroke:#000000;stroke-linecap:square;stroke-linejoin:miter;stroke-width:0.8;"/>
   </g>
   <g id="patch_6">
    <path d="M 57.6 41.472 
L 414.72 41.472 
" style="fill:none;stroke:#000000;stroke-linecap:square;stroke-linejoin:miter;stroke-width:0.8;"/>
   </g>
   <g id="text_16">
    <!-- Test -->
    <defs>
     <path d="M -0.296875 72.90625 
L 61.375 72.90625 
L 61.375 64.59375 
L 35.5 64.59375 
L 35.5 0 
L 25.59375 0 
L 25.59375 64.59375 
L -0.296875 64.59375 
z
" id="DejaVuSans-54"/>
    </defs>
    <g transform="translate(223.341563 35.472)scale(0.12 -0.12)">
     <use xlink:href="#DejaVuSans-54"/>
     <use x="60.818359" xlink:href="#DejaVuSans-65"/>
     <use x="122.341797" xlink:href="#DejaVuSans-73"/>
     <use x="174.441406" xlink:href="#DejaVuSans-74"/>
    </g>
   </g>
   <g id="legend_1">
    <g id="patch_7">
     <path d="M 166.043437 302.584 
L 407.72 302.584 
Q 409.72 302.584 409.72 300.584 
L 409.72 286.905875 
Q 409.72 284.905875 407.72 284.905875 
L 166.043437 284.905875 
Q 164.043437 284.905875 164.043437 286.905875 
L 164.043437 300.584 
Q 164.043437 302.584 166.043437 302.584 
z
" style="fill:#ffffff;opacity:0.8;stroke:#cccccc;stroke-linejoin:miter;"/>
    </g>
    <g id="line2d_28">
     <path d="M 168.043437 293.004312 
L 188.043437 293.004312 
" style="fill:none;stroke:#000080;stroke-linecap:square;stroke-width:0.5;"/>
    </g>
    <g id="line2d_29"/>
    <g id="text_17">
     <!-- Successful download requests per second -->
     <g transform="translate(196.043437 296.504312)scale(0.1 -0.1)">
      <use xlink:href="#DejaVuSans-53"/>
      <use x="63.476562" xlink:href="#DejaVuSans-75"/>
      <use x="126.855469" xlink:href="#DejaVuSans-63"/>
      <use x="181.835938" xlink:href="#DejaVuSans-63"/>
      <use x="236.816406" xlink:href="#DejaVuSans-65"/>
      <use x="298.339844" xlink:href="#DejaVuSans-73"/>
      <use x="350.439453" xlink:href="#DejaVuSans-73"/>
      <use x="402.539062" xlink:href="#DejaVuSans-66"/>
      <use x="437.744141" xlink:href="#DejaVuSans-75"/>
      <use x="501.123047" xlink:href="#DejaVuSans-6c"/>
      <use x="528.90625" xlink:href="#DejaVuSans-20"/>
      <use x="560.693359" xlink:href="#DejaVuSans-64"/>
      <use x="624.169922" xlink:href="#DejaVuSans-6f"/>
      <use x="685.351562" xlink:href="#DejaVuSans-77"/>
      <use x="767.138672" xlink:href="#DejaVuSans-6e"/>
      <use x="830.517578" xlink:href="#DejaVuSans-6c"/>
      <use x="858.300781" xlink:href="#DejaVuSans-6f"/>
      <use x="919.482422" xlink:href="#DejaVuSans-61"/>
      <use x="980.761719" xlink:href="#DejaVuSans-64"/>
      <use x="1044.238281" xlink:href="#DejaVuSans-20"/>
      <use x="1076.025391" xlink:href="#DejaVuSans-72"/>
      <use x="1117.107422" xlink:href="#DejaVuSans-65"/>
      <use x="1178.630859" xlink:href="#DejaVuSans-71"/>
      <use x="1242.107422" xlink:href="#DejaVuSans-75"/>
      <use x="1305.486328" xlink:href="#DejaVuSans-65"/>
      <use x="1367.009766" xlink:href="#DejaVuSans-73"/>
      <use x="1419.109375" xlink:href="#DejaVuSans-74"/>
      <use x="1458.318359" xlink:href="#DejaVuSans-73"/>
      <use x="1510.417969" xlink:href="#DejaVuSans-20"/>
      <use x="1542.205078" xlink:href="#DejaVuSans-70"/>
      <use x="1605.681641" xlink:href="#DejaVuSans-65"/>
      <use x="1667.205078" xlink:href="#DejaVuSans-72"/>
      <use x="1708.318359" xlink:href="#DejaVuSans-20"/>
      <use x="1740.105469" xlink:href="#DejaVuSans-73"/>
      <use x="1792.205078" xlink:href="#DejaVuSans-65"/>
      <use x="1853.728516" xlink:href="#DejaVuSans-63"/>
      <use x="1908.708984" xlink:href="#DejaVuSans-6f"/>
      <use x="1969.890625" xlink:href="#DejaVuSans-6e"/>
      <use x="2033.269531" xlink:href="#DejaVuSans-64"/>
     </g>
    </g>
   </g>
  </g>
 </g>
 <defs>
  <clipPath id="pd26692be5a">
   <rect height="266.112" width="357.12" x="57.6" y="41.472"/>
  </clipPath>
 </defs>
</svg>
