<?xml version="1.0" encoding="utf-8" standalone="no"?>
<!DOCTYPE svg PUBLIC "-//W3C//DTD SVG 1.1//EN"
  "http://www.w3.org/Graphics/SVG/1.1/DTD/svg11.dtd">
<!-- Created with matplotlib (http://matplotlib.org/) -->
<svg height="345pt" version="1.1" viewBox="0 0 460 345" width="460pt" xmlns="http://www.w3.org/2000/svg" xmlns:xlink="http://www.w3.org/1999/xlink">
 <defs>
  <style type="text/css">
*{stroke-linecap:butt;stroke-linejoin:round;}
  </style>
 </defs>
 <g id="figure_1">
  <g id="patch_1">
   <path d="M 0 345.6 
L 460.8 345.6 
L 460.8 0 
L 0 0 
z
" style="fill:#ffffff;"/>
  </g>
  <g id="axes_1">
   <g id="patch_2">
    <path d="M 57.6 307.584 
L 414.72 307.584 
L 414.72 41.472 
L 57.6 41.472 
z
" style="fill:#ffffff;"/>
   </g>
   <g id="matplotlib.axis_1">
    <g id="xtick_1">
     <g id="line2d_1">
      <path clip-path="url(#p89001f3120)" d="M 57.6 307.584 
L 57.6 41.472 
" style="fill:none;stroke:#b0b0b0;stroke-linecap:square;stroke-width:0.8;"/>
     </g>
     <g id="line2d_2">
      <defs>
       <path d="M 0 0 
L 0 3.5 
" id="md962b4ed6a" style="stroke:#000000;stroke-width:0.8;"/>
      </defs>
      <g>
       <use style="stroke:#000000;stroke-width:0.8;" x="57.6" xlink:href="#md962b4ed6a" y="307.584"/>
      </g>
     </g>
     <g id="text_1">
      <!-- 0 -->
      <defs>
       <path d="M 31.78125 66.40625 
Q 24.171875 66.40625 20.328125 58.90625 
Q 16.5 51.421875 16.5 36.375 
Q 16.5 21.390625 20.328125 13.890625 
Q 24.171875 6.390625 31.78125 6.390625 
Q 39.453125 6.390625 43.28125 13.890625 
Q 47.125 21.390625 47.125 36.375 
Q 47.125 51.421875 43.28125 58.90625 
Q 39.453125 66.40625 31.78125 66.40625 
M 31.78125 74.21875 
Q 44.046875 74.21875 50.515625 64.515625 
Q 56.984375 54.828125 56.984375 36.375 
Q 56.984375 17.96875 50.515625 8.265625 
Q 44.046875 -1.421875 31.78125 -1.421875 
Q 19.53125 -1.421875 13.0625 8.265625 
Q 6.59375 17.96875 6.59375 36.375 
Q 6.59375 54.828125 13.0625 64.515625 
Q 19.53125 74.21875 31.78125 74.21875 
" id="DejaVuSans-30"/>
      </defs>
      <g transform="translate(54.41875 322.182437)scale(0.1 -0.1)">
       <use xlink:href="#DejaVuSans-30"/>
      </g>
     </g>
    </g>
    <g id="xtick_2">
     <g id="line2d_3">
      <path clip-path="url(#p89001f3120)" d="M 129.024 307.584 
L 129.024 41.472 
" style="fill:none;stroke:#b0b0b0;stroke-linecap:square;stroke-width:0.8;"/>
     </g>
     <g id="line2d_4">
      <g>
       <use style="stroke:#000000;stroke-width:0.8;" x="129.024" xlink:href="#md962b4ed6a" y="307.584"/>
      </g>
     </g>
     <g id="text_2">
      <!-- 200 -->
      <defs>
       <path d="M 19.1875 8.296875 
L 53.609375 8.296875 
L 53.609375 0 
L 7.328125 0 
L 7.328125 8.296875 
Q 12.9375 14.109375 22.625 23.890625 
Q 32.328125 33.6875 34.8125 36.53125 
Q 39.546875 41.84375 41.421875 45.53125 
Q 43.3125 49.21875 43.3125 52.78125 
Q 43.3125 58.59375 39.234375 62.25 
Q 35.15625 65.921875 28.609375 65.921875 
Q 23.96875 65.921875 18.8125 64.3125 
Q 13.671875 62.703125 7.8125 59.421875 
L 7.8125 69.390625 
Q 13.765625 71.78125 18.9375 73 
Q 24.125 74.21875 28.421875 74.21875 
Q 39.75 74.21875 46.484375 68.546875 
Q 53.21875 62.890625 53.21875 53.421875 
Q 53.21875 48.921875 51.53125 44.890625 
Q 49.859375 40.875 45.40625 35.40625 
Q 44.1875 33.984375 37.640625 27.21875 
Q 31.109375 20.453125 19.1875 8.296875 
" id="DejaVuSans-32"/>
      </defs>
      <g transform="translate(119.48025 322.182437)scale(0.1 -0.1)">
       <use xlink:href="#DejaVuSans-32"/>
       <use x="63.623047" xlink:href="#DejaVuSans-30"/>
       <use x="127.246094" xlink:href="#DejaVuSans-30"/>
      </g>
     </g>
    </g>
    <g id="xtick_3">
     <g id="line2d_5">
      <path clip-path="url(#p89001f3120)" d="M 200.448 307.584 
L 200.448 41.472 
" style="fill:none;stroke:#b0b0b0;stroke-linecap:square;stroke-width:0.8;"/>
     </g>
     <g id="line2d_6">
      <g>
       <use style="stroke:#000000;stroke-width:0.8;" x="200.448" xlink:href="#md962b4ed6a" y="307.584"/>
      </g>
     </g>
     <g id="text_3">
      <!-- 400 -->
      <defs>
       <path d="M 37.796875 64.3125 
L 12.890625 25.390625 
L 37.796875 25.390625 
z
M 35.203125 72.90625 
L 47.609375 72.90625 
L 47.609375 25.390625 
L 58.015625 25.390625 
L 58.015625 17.1875 
L 47.609375 17.1875 
L 47.609375 0 
L 37.796875 0 
L 37.796875 17.1875 
L 4.890625 17.1875 
L 4.890625 26.703125 
z
" id="DejaVuSans-34"/>
      </defs>
      <g transform="translate(190.90425 322.182437)scale(0.1 -0.1)">
       <use xlink:href="#DejaVuSans-34"/>
       <use x="63.623047" xlink:href="#DejaVuSans-30"/>
       <use x="127.246094" xlink:href="#DejaVuSans-30"/>
      </g>
     </g>
    </g>
    <g id="xtick_4">
     <g id="line2d_7">
      <path clip-path="url(#p89001f3120)" d="M 271.872 307.584 
L 271.872 41.472 
" style="fill:none;stroke:#b0b0b0;stroke-linecap:square;stroke-width:0.8;"/>
     </g>
     <g id="line2d_8">
      <g>
       <use style="stroke:#000000;stroke-width:0.8;" x="271.872" xlink:href="#md962b4ed6a" y="307.584"/>
      </g>
     </g>
     <g id="text_4">
      <!-- 600 -->
      <defs>
       <path d="M 33.015625 40.375 
Q 26.375 40.375 22.484375 35.828125 
Q 18.609375 31.296875 18.609375 23.390625 
Q 18.609375 15.53125 22.484375 10.953125 
Q 26.375 6.390625 33.015625 6.390625 
Q 39.65625 6.390625 43.53125 10.953125 
Q 47.40625 15.53125 47.40625 23.390625 
Q 47.40625 31.296875 43.53125 35.828125 
Q 39.65625 40.375 33.015625 40.375 
M 52.59375 71.296875 
L 52.59375 62.3125 
Q 48.875 64.0625 45.09375 64.984375 
Q 41.3125 65.921875 37.59375 65.921875 
Q 27.828125 65.921875 22.671875 59.328125 
Q 17.53125 52.734375 16.796875 39.40625 
Q 19.671875 43.65625 24.015625 45.921875 
Q 28.375 48.1875 33.59375 48.1875 
Q 44.578125 48.1875 50.953125 41.515625 
Q 57.328125 34.859375 57.328125 23.390625 
Q 57.328125 12.15625 50.6875 5.359375 
Q 44.046875 -1.421875 33.015625 -1.421875 
Q 20.359375 -1.421875 13.671875 8.265625 
Q 6.984375 17.96875 6.984375 36.375 
Q 6.984375 53.65625 15.1875 63.9375 
Q 23.390625 74.21875 37.203125 74.21875 
Q 40.921875 74.21875 44.703125 73.484375 
Q 48.484375 72.75 52.59375 71.296875 
" id="DejaVuSans-36"/>
      </defs>
      <g transform="translate(262.32825 322.182437)scale(0.1 -0.1)">
       <use xlink:href="#DejaVuSans-36"/>
       <use x="63.623047" xlink:href="#DejaVuSans-30"/>
       <use x="127.246094" xlink:href="#DejaVuSans-30"/>
      </g>
     </g>
    </g>
    <g id="xtick_5">
     <g id="line2d_9">
      <path clip-path="url(#p89001f3120)" d="M 343.296 307.584 
L 343.296 41.472 
" style="fill:none;stroke:#b0b0b0;stroke-linecap:square;stroke-width:0.8;"/>
     </g>
     <g id="line2d_10">
      <g>
       <use style="stroke:#000000;stroke-width:0.8;" x="343.296" xlink:href="#md962b4ed6a" y="307.584"/>
      </g>
     </g>
     <g id="text_5">
      <!-- 800 -->
      <defs>
       <path d="M 31.78125 34.625 
Q 24.75 34.625 20.71875 30.859375 
Q 16.703125 27.09375 16.703125 20.515625 
Q 16.703125 13.921875 20.71875 10.15625 
Q 24.75 6.390625 31.78125 6.390625 
Q 38.8125 6.390625 42.859375 10.171875 
Q 46.921875 13.96875 46.921875 20.515625 
Q 46.921875 27.09375 42.890625 30.859375 
Q 38.875 34.625 31.78125 34.625 
M 21.921875 38.8125 
Q 15.578125 40.375 12.03125 44.71875 
Q 8.5 49.078125 8.5 55.328125 
Q 8.5 64.0625 14.71875 69.140625 
Q 20.953125 74.21875 31.78125 74.21875 
Q 42.671875 74.21875 48.875 69.140625 
Q 55.078125 64.0625 55.078125 55.328125 
Q 55.078125 49.078125 51.53125 44.71875 
Q 48 40.375 41.703125 38.8125 
Q 48.828125 37.15625 52.796875 32.3125 
Q 56.78125 27.484375 56.78125 20.515625 
Q 56.78125 9.90625 50.3125 4.234375 
Q 43.84375 -1.421875 31.78125 -1.421875 
Q 19.734375 -1.421875 13.25 4.234375 
Q 6.78125 9.90625 6.78125 20.515625 
Q 6.78125 27.484375 10.78125 32.3125 
Q 14.796875 37.15625 21.921875 38.8125 
M 18.3125 54.390625 
Q 18.3125 48.734375 21.84375 45.5625 
Q 25.390625 42.390625 31.78125 42.390625 
Q 38.140625 42.390625 41.71875 45.5625 
Q 45.3125 48.734375 45.3125 54.390625 
Q 45.3125 60.0625 41.71875 63.234375 
Q 38.140625 66.40625 31.78125 66.40625 
Q 25.390625 66.40625 21.84375 63.234375 
Q 18.3125 60.0625 18.3125 54.390625 
" id="DejaVuSans-38"/>
      </defs>
      <g transform="translate(333.75225 322.182437)scale(0.1 -0.1)">
       <use xlink:href="#DejaVuSans-38"/>
       <use x="63.623047" xlink:href="#DejaVuSans-30"/>
       <use x="127.246094" xlink:href="#DejaVuSans-30"/>
      </g>
     </g>
    </g>
    <g id="xtick_6">
     <g id="line2d_11">
      <path clip-path="url(#p89001f3120)" d="M 414.72 307.584 
L 414.72 41.472 
" style="fill:none;stroke:#b0b0b0;stroke-linecap:square;stroke-width:0.8;"/>
     </g>
     <g id="line2d_12">
      <g>
       <use style="stroke:#000000;stroke-width:0.8;" x="414.72" xlink:href="#md962b4ed6a" y="307.584"/>
      </g>
     </g>
     <g id="text_6">
      <!-- 1000 -->
      <defs>
       <path d="M 12.40625 8.296875 
L 28.515625 8.296875 
L 28.515625 63.921875 
L 10.984375 60.40625 
L 10.984375 69.390625 
L 28.421875 72.90625 
L 38.28125 72.90625 
L 38.28125 8.296875 
L 54.390625 8.296875 
L 54.390625 0 
L 12.40625 0 
z
" id="DejaVuSans-31"/>
      </defs>
      <g transform="translate(401.995 322.182437)scale(0.1 -0.1)">
       <use xlink:href="#DejaVuSans-31"/>
       <use x="63.623047" xlink:href="#DejaVuSans-30"/>
       <use x="127.246094" xlink:href="#DejaVuSans-30"/>
       <use x="190.869141" xlink:href="#DejaVuSans-30"/>
      </g>
     </g>
    </g>
    <g id="text_7">
     <!-- Number of clients -->
     <defs>
      <path d="M 9.8125 72.90625 
L 23.09375 72.90625 
L 55.421875 11.921875 
L 55.421875 72.90625 
L 64.984375 72.90625 
L 64.984375 0 
L 51.703125 0 
L 19.390625 60.984375 
L 19.390625 0 
L 9.8125 0 
z
" id="DejaVuSans-4e"/>
      <path d="M 8.5 21.578125 
L 8.5 54.6875 
L 17.484375 54.6875 
L 17.484375 21.921875 
Q 17.484375 14.15625 20.5 10.265625 
Q 23.53125 6.390625 29.59375 6.390625 
Q 36.859375 6.390625 41.078125 11.03125 
Q 45.3125 15.671875 45.3125 23.6875 
L 45.3125 54.6875 
L 54.296875 54.6875 
L 54.296875 0 
L 45.3125 0 
L 45.3125 8.40625 
Q 42.046875 3.421875 37.71875 1 
Q 33.40625 -1.421875 27.6875 -1.421875 
Q 18.265625 -1.421875 13.375 4.4375 
Q 8.5 10.296875 8.5 21.578125 
M 31.109375 56 
z
" id="DejaVuSans-75"/>
      <path d="M 52 44.1875 
Q 55.375 50.25 60.0625 53.125 
Q 64.75 56 71.09375 56 
Q 79.640625 56 84.28125 50.015625 
Q 88.921875 44.046875 88.921875 33.015625 
L 88.921875 0 
L 79.890625 0 
L 79.890625 32.71875 
Q 79.890625 40.578125 77.09375 44.375 
Q 74.3125 48.1875 68.609375 48.1875 
Q 61.625 48.1875 57.5625 43.546875 
Q 53.515625 38.921875 53.515625 30.90625 
L 53.515625 0 
L 44.484375 0 
L 44.484375 32.71875 
Q 44.484375 40.625 41.703125 44.40625 
Q 38.921875 48.1875 33.109375 48.1875 
Q 26.21875 48.1875 22.15625 43.53125 
Q 18.109375 38.875 18.109375 30.90625 
L 18.109375 0 
L 9.078125 0 
L 9.078125 54.6875 
L 18.109375 54.6875 
L 18.109375 46.1875 
Q 21.1875 51.21875 25.484375 53.609375 
Q 29.78125 56 35.6875 56 
Q 41.65625 56 45.828125 52.96875 
Q 50 49.953125 52 44.1875 
" id="DejaVuSans-6d"/>
      <path d="M 48.6875 27.296875 
Q 48.6875 37.203125 44.609375 42.84375 
Q 40.53125 48.484375 33.40625 48.484375 
Q 26.265625 48.484375 22.1875 42.84375 
Q 18.109375 37.203125 18.109375 27.296875 
Q 18.109375 17.390625 22.1875 11.75 
Q 26.265625 6.109375 33.40625 6.109375 
Q 40.53125 6.109375 44.609375 11.75 
Q 48.6875 17.390625 48.6875 27.296875 
M 18.109375 46.390625 
Q 20.953125 51.265625 25.265625 53.625 
Q 29.59375 56 35.59375 56 
Q 45.5625 56 51.78125 48.09375 
Q 58.015625 40.1875 58.015625 27.296875 
Q 58.015625 14.40625 51.78125 6.484375 
Q 45.5625 -1.421875 35.59375 -1.421875 
Q 29.59375 -1.421875 25.265625 0.953125 
Q 20.953125 3.328125 18.109375 8.203125 
L 18.109375 0 
L 9.078125 0 
L 9.078125 75.984375 
L 18.109375 75.984375 
z
" id="DejaVuSans-62"/>
      <path d="M 56.203125 29.59375 
L 56.203125 25.203125 
L 14.890625 25.203125 
Q 15.484375 15.921875 20.484375 11.0625 
Q 25.484375 6.203125 34.421875 6.203125 
Q 39.59375 6.203125 44.453125 7.46875 
Q 49.3125 8.734375 54.109375 11.28125 
L 54.109375 2.78125 
Q 49.265625 0.734375 44.1875 -0.34375 
Q 39.109375 -1.421875 33.890625 -1.421875 
Q 20.796875 -1.421875 13.15625 6.1875 
Q 5.515625 13.8125 5.515625 26.8125 
Q 5.515625 40.234375 12.765625 48.109375 
Q 20.015625 56 32.328125 56 
Q 43.359375 56 49.78125 48.890625 
Q 56.203125 41.796875 56.203125 29.59375 
M 47.21875 32.234375 
Q 47.125 39.59375 43.09375 43.984375 
Q 39.0625 48.390625 32.421875 48.390625 
Q 24.90625 48.390625 20.390625 44.140625 
Q 15.875 39.890625 15.1875 32.171875 
z
" id="DejaVuSans-65"/>
      <path d="M 41.109375 46.296875 
Q 39.59375 47.171875 37.8125 47.578125 
Q 36.03125 48 33.890625 48 
Q 26.265625 48 22.1875 43.046875 
Q 18.109375 38.09375 18.109375 28.8125 
L 18.109375 0 
L 9.078125 0 
L 9.078125 54.6875 
L 18.109375 54.6875 
L 18.109375 46.1875 
Q 20.953125 51.171875 25.484375 53.578125 
Q 30.03125 56 36.53125 56 
Q 37.453125 56 38.578125 55.875 
Q 39.703125 55.765625 41.0625 55.515625 
z
" id="DejaVuSans-72"/>
      <path id="DejaVuSans-20"/>
      <path d="M 30.609375 48.390625 
Q 23.390625 48.390625 19.1875 42.75 
Q 14.984375 37.109375 14.984375 27.296875 
Q 14.984375 17.484375 19.15625 11.84375 
Q 23.34375 6.203125 30.609375 6.203125 
Q 37.796875 6.203125 41.984375 11.859375 
Q 46.1875 17.53125 46.1875 27.296875 
Q 46.1875 37.015625 41.984375 42.703125 
Q 37.796875 48.390625 30.609375 48.390625 
M 30.609375 56 
Q 42.328125 56 49.015625 48.375 
Q 55.71875 40.765625 55.71875 27.296875 
Q 55.71875 13.875 49.015625 6.21875 
Q 42.328125 -1.421875 30.609375 -1.421875 
Q 18.84375 -1.421875 12.171875 6.21875 
Q 5.515625 13.875 5.515625 27.296875 
Q 5.515625 40.765625 12.171875 48.375 
Q 18.84375 56 30.609375 56 
" id="DejaVuSans-6f"/>
      <path d="M 37.109375 75.984375 
L 37.109375 68.5 
L 28.515625 68.5 
Q 23.6875 68.5 21.796875 66.546875 
Q 19.921875 64.59375 19.921875 59.515625 
L 19.921875 54.6875 
L 34.71875 54.6875 
L 34.71875 47.703125 
L 19.921875 47.703125 
L 19.921875 0 
L 10.890625 0 
L 10.890625 47.703125 
L 2.296875 47.703125 
L 2.296875 54.6875 
L 10.890625 54.6875 
L 10.890625 58.5 
Q 10.890625 67.625 15.140625 71.796875 
Q 19.390625 75.984375 28.609375 75.984375 
z
" id="DejaVuSans-66"/>
      <path d="M 48.78125 52.59375 
L 48.78125 44.1875 
Q 44.96875 46.296875 41.140625 47.34375 
Q 37.3125 48.390625 33.40625 48.390625 
Q 24.65625 48.390625 19.8125 42.84375 
Q 14.984375 37.3125 14.984375 27.296875 
Q 14.984375 17.28125 19.8125 11.734375 
Q 24.65625 6.203125 33.40625 6.203125 
Q 37.3125 6.203125 41.140625 7.25 
Q 44.96875 8.296875 48.78125 10.40625 
L 48.78125 2.09375 
Q 45.015625 0.34375 40.984375 -0.53125 
Q 36.96875 -1.421875 32.421875 -1.421875 
Q 20.0625 -1.421875 12.78125 6.34375 
Q 5.515625 14.109375 5.515625 27.296875 
Q 5.515625 40.671875 12.859375 48.328125 
Q 20.21875 56 33.015625 56 
Q 37.15625 56 41.109375 55.140625 
Q 45.0625 54.296875 48.78125 52.59375 
" id="DejaVuSans-63"/>
      <path d="M 9.421875 75.984375 
L 18.40625 75.984375 
L 18.40625 0 
L 9.421875 0 
z
" id="DejaVuSans-6c"/>
      <path d="M 9.421875 54.6875 
L 18.40625 54.6875 
L 18.40625 0 
L 9.421875 0 
z
M 9.421875 75.984375 
L 18.40625 75.984375 
L 18.40625 64.59375 
L 9.421875 64.59375 
z
" id="DejaVuSans-69"/>
      <path d="M 54.890625 33.015625 
L 54.890625 0 
L 45.90625 0 
L 45.90625 32.71875 
Q 45.90625 40.484375 42.875 44.328125 
Q 39.84375 48.1875 33.796875 48.1875 
Q 26.515625 48.1875 22.3125 43.546875 
Q 18.109375 38.921875 18.109375 30.90625 
L 18.109375 0 
L 9.078125 0 
L 9.078125 54.6875 
L 18.109375 54.6875 
L 18.109375 46.1875 
Q 21.34375 51.125 25.703125 53.5625 
Q 30.078125 56 35.796875 56 
Q 45.21875 56 50.046875 50.171875 
Q 54.890625 44.34375 54.890625 33.015625 
" id="DejaVuSans-6e"/>
      <path d="M 18.3125 70.21875 
L 18.3125 54.6875 
L 36.8125 54.6875 
L 36.8125 47.703125 
L 18.3125 47.703125 
L 18.3125 18.015625 
Q 18.3125 11.328125 20.140625 9.421875 
Q 21.96875 7.515625 27.59375 7.515625 
L 36.8125 7.515625 
L 36.8125 0 
L 27.59375 0 
Q 17.1875 0 13.234375 3.875 
Q 9.28125 7.765625 9.28125 18.015625 
L 9.28125 47.703125 
L 2.6875 47.703125 
L 2.6875 54.6875 
L 9.28125 54.6875 
L 9.28125 70.21875 
z
" id="DejaVuSans-74"/>
      <path d="M 44.28125 53.078125 
L 44.28125 44.578125 
Q 40.484375 46.53125 36.375 47.5 
Q 32.28125 48.484375 27.875 48.484375 
Q 21.1875 48.484375 17.84375 46.4375 
Q 14.5 44.390625 14.5 40.28125 
Q 14.5 37.15625 16.890625 35.375 
Q 19.28125 33.59375 26.515625 31.984375 
L 29.59375 31.296875 
Q 39.15625 29.25 43.1875 25.515625 
Q 47.21875 21.78125 47.21875 15.09375 
Q 47.21875 7.46875 41.1875 3.015625 
Q 35.15625 -1.421875 24.609375 -1.421875 
Q 20.21875 -1.421875 15.453125 -0.5625 
Q 10.6875 0.296875 5.421875 2 
L 5.421875 11.28125 
Q 10.40625 8.6875 15.234375 7.390625 
Q 20.0625 6.109375 24.8125 6.109375 
Q 31.15625 6.109375 34.5625 8.28125 
Q 37.984375 10.453125 37.984375 14.40625 
Q 37.984375 18.0625 35.515625 20.015625 
Q 33.0625 21.96875 24.703125 23.78125 
L 21.578125 24.515625 
Q 13.234375 26.265625 9.515625 29.90625 
Q 5.8125 33.546875 5.8125 39.890625 
Q 5.8125 47.609375 11.28125 51.796875 
Q 16.75 56 26.8125 56 
Q 31.78125 56 36.171875 55.265625 
Q 40.578125 54.546875 44.28125 53.078125 
" id="DejaVuSans-73"/>
     </defs>
     <g transform="translate(191.738906 335.860562)scale(0.1 -0.1)">
      <use xlink:href="#DejaVuSans-4e"/>
      <use x="74.804688" xlink:href="#DejaVuSans-75"/>
      <use x="138.183594" xlink:href="#DejaVuSans-6d"/>
      <use x="235.595703" xlink:href="#DejaVuSans-62"/>
      <use x="299.072266" xlink:href="#DejaVuSans-65"/>
      <use x="360.595703" xlink:href="#DejaVuSans-72"/>
      <use x="401.708984" xlink:href="#DejaVuSans-20"/>
      <use x="433.496094" xlink:href="#DejaVuSans-6f"/>
      <use x="494.677734" xlink:href="#DejaVuSans-66"/>
      <use x="529.882812" xlink:href="#DejaVuSans-20"/>
      <use x="561.669922" xlink:href="#DejaVuSans-63"/>
      <use x="616.650391" xlink:href="#DejaVuSans-6c"/>
      <use x="644.433594" xlink:href="#DejaVuSans-69"/>
      <use x="672.216797" xlink:href="#DejaVuSans-65"/>
      <use x="733.740234" xlink:href="#DejaVuSans-6e"/>
      <use x="797.119141" xlink:href="#DejaVuSans-74"/>
      <use x="836.328125" xlink:href="#DejaVuSans-73"/>
     </g>
    </g>
   </g>
   <g id="matplotlib.axis_2">
    <g id="ytick_1">
     <g id="line2d_13">
      <path clip-path="url(#p89001f3120)" d="M 57.6 296.829762 
L 414.72 296.829762 
" style="fill:none;stroke:#b0b0b0;stroke-linecap:square;stroke-width:0.8;"/>
     </g>
     <g id="line2d_14">
      <defs>
       <path d="M 0 0 
L -3.5 0 
" id="m38562cfba0" style="stroke:#000000;stroke-width:0.8;"/>
      </defs>
      <g>
       <use style="stroke:#000000;stroke-width:0.8;" x="57.6" xlink:href="#m38562cfba0" y="296.829762"/>
      </g>
     </g>
     <g id="text_8">
      <!-- 0 -->
      <g transform="translate(44.2375 300.628981)scale(0.1 -0.1)">
       <use xlink:href="#DejaVuSans-30"/>
      </g>
     </g>
    </g>
    <g id="ytick_2">
     <g id="line2d_15">
      <path clip-path="url(#p89001f3120)" d="M 57.6 262.105068 
L 414.72 262.105068 
" style="fill:none;stroke:#b0b0b0;stroke-linecap:square;stroke-width:0.8;"/>
     </g>
     <g id="line2d_16">
      <g>
       <use style="stroke:#000000;stroke-width:0.8;" x="57.6" xlink:href="#m38562cfba0" y="262.105068"/>
      </g>
     </g>
     <g id="text_9">
      <!-- 25 -->
      <defs>
       <path d="M 10.796875 72.90625 
L 49.515625 72.90625 
L 49.515625 64.59375 
L 19.828125 64.59375 
L 19.828125 46.734375 
Q 21.96875 47.46875 24.109375 47.828125 
Q 26.265625 48.1875 28.421875 48.1875 
Q 40.625 48.1875 47.75 41.5 
Q 54.890625 34.8125 54.890625 23.390625 
Q 54.890625 11.625 47.5625 5.09375 
Q 40.234375 -1.421875 26.90625 -1.421875 
Q 22.3125 -1.421875 17.546875 -0.640625 
Q 12.796875 0.140625 7.71875 1.703125 
L 7.71875 11.625 
Q 12.109375 9.234375 16.796875 8.0625 
Q 21.484375 6.890625 26.703125 6.890625 
Q 35.15625 6.890625 40.078125 11.328125 
Q 45.015625 15.765625 45.015625 23.390625 
Q 45.015625 31 40.078125 35.4375 
Q 35.15625 39.890625 26.703125 39.890625 
Q 22.75 39.890625 18.8125 39.015625 
Q 14.890625 38.140625 10.796875 36.28125 
z
" id="DejaVuSans-35"/>
      </defs>
      <g transform="translate(37.875 265.904287)scale(0.1 -0.1)">
       <use xlink:href="#DejaVuSans-32"/>
       <use x="63.623047" xlink:href="#DejaVuSans-35"/>
      </g>
     </g>
    </g>
    <g id="ytick_3">
     <g id="line2d_17">
      <path clip-path="url(#p89001f3120)" d="M 57.6 227.380374 
L 414.72 227.380374 
" style="fill:none;stroke:#b0b0b0;stroke-linecap:square;stroke-width:0.8;"/>
     </g>
     <g id="line2d_18">
      <g>
       <use style="stroke:#000000;stroke-width:0.8;" x="57.6" xlink:href="#m38562cfba0" y="227.380374"/>
      </g>
     </g>
     <g id="text_10">
      <!-- 50 -->
      <g transform="translate(37.875 231.179592)scale(0.1 -0.1)">
       <use xlink:href="#DejaVuSans-35"/>
       <use x="63.623047" xlink:href="#DejaVuSans-30"/>
      </g>
     </g>
    </g>
    <g id="ytick_4">
     <g id="line2d_19">
      <path clip-path="url(#p89001f3120)" d="M 57.6 192.655679 
L 414.72 192.655679 
" style="fill:none;stroke:#b0b0b0;stroke-linecap:square;stroke-width:0.8;"/>
     </g>
     <g id="line2d_20">
      <g>
       <use style="stroke:#000000;stroke-width:0.8;" x="57.6" xlink:href="#m38562cfba0" y="192.655679"/>
      </g>
     </g>
     <g id="text_11">
      <!-- 75 -->
      <defs>
       <path d="M 8.203125 72.90625 
L 55.078125 72.90625 
L 55.078125 68.703125 
L 28.609375 0 
L 18.3125 0 
L 43.21875 64.59375 
L 8.203125 64.59375 
z
" id="DejaVuSans-37"/>
      </defs>
      <g transform="translate(37.875 196.454898)scale(0.1 -0.1)">
       <use xlink:href="#DejaVuSans-37"/>
       <use x="63.623047" xlink:href="#DejaVuSans-35"/>
      </g>
     </g>
    </g>
    <g id="ytick_5">
     <g id="line2d_21">
      <path clip-path="url(#p89001f3120)" d="M 57.6 157.930985 
L 414.72 157.930985 
" style="fill:none;stroke:#b0b0b0;stroke-linecap:square;stroke-width:0.8;"/>
     </g>
     <g id="line2d_22">
      <g>
       <use style="stroke:#000000;stroke-width:0.8;" x="57.6" xlink:href="#m38562cfba0" y="157.930985"/>
      </g>
     </g>
     <g id="text_12">
      <!-- 100 -->
      <g transform="translate(31.5125 161.730204)scale(0.1 -0.1)">
       <use xlink:href="#DejaVuSans-31"/>
       <use x="63.623047" xlink:href="#DejaVuSans-30"/>
       <use x="127.246094" xlink:href="#DejaVuSans-30"/>
      </g>
     </g>
    </g>
    <g id="ytick_6">
     <g id="line2d_23">
      <path clip-path="url(#p89001f3120)" d="M 57.6 123.206291 
L 414.72 123.206291 
" style="fill:none;stroke:#b0b0b0;stroke-linecap:square;stroke-width:0.8;"/>
     </g>
     <g id="line2d_24">
      <g>
       <use style="stroke:#000000;stroke-width:0.8;" x="57.6" xlink:href="#m38562cfba0" y="123.206291"/>
      </g>
     </g>
     <g id="text_13">
      <!-- 125 -->
      <g transform="translate(31.5125 127.00551)scale(0.1 -0.1)">
       <use xlink:href="#DejaVuSans-31"/>
       <use x="63.623047" xlink:href="#DejaVuSans-32"/>
       <use x="127.246094" xlink:href="#DejaVuSans-35"/>
      </g>
     </g>
    </g>
    <g id="ytick_7">
     <g id="line2d_25">
      <path clip-path="url(#p89001f3120)" d="M 57.6 88.481597 
L 414.72 88.481597 
" style="fill:none;stroke:#b0b0b0;stroke-linecap:square;stroke-width:0.8;"/>
     </g>
     <g id="line2d_26">
      <g>
       <use style="stroke:#000000;stroke-width:0.8;" x="57.6" xlink:href="#m38562cfba0" y="88.481597"/>
      </g>
     </g>
     <g id="text_14">
      <!-- 150 -->
      <g transform="translate(31.5125 92.280815)scale(0.1 -0.1)">
       <use xlink:href="#DejaVuSans-31"/>
       <use x="63.623047" xlink:href="#DejaVuSans-35"/>
       <use x="127.246094" xlink:href="#DejaVuSans-30"/>
      </g>
     </g>
    </g>
    <g id="ytick_8">
     <g id="line2d_27">
      <path clip-path="url(#p89001f3120)" d="M 57.6 53.756902 
L 414.72 53.756902 
" style="fill:none;stroke:#b0b0b0;stroke-linecap:square;stroke-width:0.8;"/>
     </g>
     <g id="line2d_28">
      <g>
       <use style="stroke:#000000;stroke-width:0.8;" x="57.6" xlink:href="#m38562cfba0" y="53.756902"/>
      </g>
     </g>
     <g id="text_15">
      <!-- 175 -->
      <g transform="translate(31.5125 57.556121)scale(0.1 -0.1)">
       <use xlink:href="#DejaVuSans-31"/>
       <use x="63.623047" xlink:href="#DejaVuSans-37"/>
       <use x="127.246094" xlink:href="#DejaVuSans-35"/>
      </g>
     </g>
    </g>
    <g id="text_16">
     <!-- Successful download requests per second -->
     <defs>
      <path d="M 53.515625 70.515625 
L 53.515625 60.890625 
Q 47.90625 63.578125 42.921875 64.890625 
Q 37.9375 66.21875 33.296875 66.21875 
Q 25.25 66.21875 20.875 63.09375 
Q 16.5 59.96875 16.5 54.203125 
Q 16.5 49.359375 19.40625 46.890625 
Q 22.3125 44.4375 30.421875 42.921875 
L 36.375 41.703125 
Q 47.40625 39.59375 52.65625 34.296875 
Q 57.90625 29 57.90625 20.125 
Q 57.90625 9.515625 50.796875 4.046875 
Q 43.703125 -1.421875 29.984375 -1.421875 
Q 24.8125 -1.421875 18.96875 -0.25 
Q 13.140625 0.921875 6.890625 3.21875 
L 6.890625 13.375 
Q 12.890625 10.015625 18.65625 8.296875 
Q 24.421875 6.59375 29.984375 6.59375 
Q 38.421875 6.59375 43.015625 9.90625 
Q 47.609375 13.234375 47.609375 19.390625 
Q 47.609375 24.75 44.3125 27.78125 
Q 41.015625 30.8125 33.5 32.328125 
L 27.484375 33.5 
Q 16.453125 35.6875 11.515625 40.375 
Q 6.59375 45.0625 6.59375 53.421875 
Q 6.59375 63.09375 13.40625 68.65625 
Q 20.21875 74.21875 32.171875 74.21875 
Q 37.3125 74.21875 42.625 73.28125 
Q 47.953125 72.359375 53.515625 70.515625 
" id="DejaVuSans-53"/>
      <path d="M 45.40625 46.390625 
L 45.40625 75.984375 
L 54.390625 75.984375 
L 54.390625 0 
L 45.40625 0 
L 45.40625 8.203125 
Q 42.578125 3.328125 38.25 0.953125 
Q 33.9375 -1.421875 27.875 -1.421875 
Q 17.96875 -1.421875 11.734375 6.484375 
Q 5.515625 14.40625 5.515625 27.296875 
Q 5.515625 40.1875 11.734375 48.09375 
Q 17.96875 56 27.875 56 
Q 33.9375 56 38.25 53.625 
Q 42.578125 51.265625 45.40625 46.390625 
M 14.796875 27.296875 
Q 14.796875 17.390625 18.875 11.75 
Q 22.953125 6.109375 30.078125 6.109375 
Q 37.203125 6.109375 41.296875 11.75 
Q 45.40625 17.390625 45.40625 27.296875 
Q 45.40625 37.203125 41.296875 42.84375 
Q 37.203125 48.484375 30.078125 48.484375 
Q 22.953125 48.484375 18.875 42.84375 
Q 14.796875 37.203125 14.796875 27.296875 
" id="DejaVuSans-64"/>
      <path d="M 4.203125 54.6875 
L 13.1875 54.6875 
L 24.421875 12.015625 
L 35.59375 54.6875 
L 46.1875 54.6875 
L 57.421875 12.015625 
L 68.609375 54.6875 
L 77.59375 54.6875 
L 63.28125 0 
L 52.6875 0 
L 40.921875 44.828125 
L 29.109375 0 
L 18.5 0 
z
" id="DejaVuSans-77"/>
      <path d="M 34.28125 27.484375 
Q 23.390625 27.484375 19.1875 25 
Q 14.984375 22.515625 14.984375 16.5 
Q 14.984375 11.71875 18.140625 8.90625 
Q 21.296875 6.109375 26.703125 6.109375 
Q 34.1875 6.109375 38.703125 11.40625 
Q 43.21875 16.703125 43.21875 25.484375 
L 43.21875 27.484375 
z
M 52.203125 31.203125 
L 52.203125 0 
L 43.21875 0 
L 43.21875 8.296875 
Q 40.140625 3.328125 35.546875 0.953125 
Q 30.953125 -1.421875 24.3125 -1.421875 
Q 15.921875 -1.421875 10.953125 3.296875 
Q 6 8.015625 6 15.921875 
Q 6 25.140625 12.171875 29.828125 
Q 18.359375 34.515625 30.609375 34.515625 
L 43.21875 34.515625 
L 43.21875 35.40625 
Q 43.21875 41.609375 39.140625 45 
Q 35.0625 48.390625 27.6875 48.390625 
Q 23 48.390625 18.546875 47.265625 
Q 14.109375 46.140625 10.015625 43.890625 
L 10.015625 52.203125 
Q 14.9375 54.109375 19.578125 55.046875 
Q 24.21875 56 28.609375 56 
Q 40.484375 56 46.34375 49.84375 
Q 52.203125 43.703125 52.203125 31.203125 
" id="DejaVuSans-61"/>
      <path d="M 14.796875 27.296875 
Q 14.796875 17.390625 18.875 11.75 
Q 22.953125 6.109375 30.078125 6.109375 
Q 37.203125 6.109375 41.296875 11.75 
Q 45.40625 17.390625 45.40625 27.296875 
Q 45.40625 37.203125 41.296875 42.84375 
Q 37.203125 48.484375 30.078125 48.484375 
Q 22.953125 48.484375 18.875 42.84375 
Q 14.796875 37.203125 14.796875 27.296875 
M 45.40625 8.203125 
Q 42.578125 3.328125 38.25 0.953125 
Q 33.9375 -1.421875 27.875 -1.421875 
Q 17.96875 -1.421875 11.734375 6.484375 
Q 5.515625 14.40625 5.515625 27.296875 
Q 5.515625 40.1875 11.734375 48.09375 
Q 17.96875 56 27.875 56 
Q 33.9375 56 38.25 53.625 
Q 42.578125 51.265625 45.40625 46.390625 
L 45.40625 54.6875 
L 54.390625 54.6875 
L 54.390625 -20.796875 
L 45.40625 -20.796875 
z
" id="DejaVuSans-71"/>
      <path d="M 18.109375 8.203125 
L 18.109375 -20.796875 
L 9.078125 -20.796875 
L 9.078125 54.6875 
L 18.109375 54.6875 
L 18.109375 46.390625 
Q 20.953125 51.265625 25.265625 53.625 
Q 29.59375 56 35.59375 56 
Q 45.5625 56 51.78125 48.09375 
Q 58.015625 40.1875 58.015625 27.296875 
Q 58.015625 14.40625 51.78125 6.484375 
Q 45.5625 -1.421875 35.59375 -1.421875 
Q 29.59375 -1.421875 25.265625 0.953125 
Q 20.953125 3.328125 18.109375 8.203125 
M 48.6875 27.296875 
Q 48.6875 37.203125 44.609375 42.84375 
Q 40.53125 48.484375 33.40625 48.484375 
Q 26.265625 48.484375 22.1875 42.84375 
Q 18.109375 37.203125 18.109375 27.296875 
Q 18.109375 17.390625 22.1875 11.75 
Q 26.265625 6.109375 33.40625 6.109375 
Q 40.53125 6.109375 44.609375 11.75 
Q 48.6875 17.390625 48.6875 27.296875 
" id="DejaVuSans-70"/>
     </defs>
     <g transform="translate(25.432812 279.366281)rotate(-90)scale(0.1 -0.1)">
      <use xlink:href="#DejaVuSans-53"/>
      <use x="63.476562" xlink:href="#DejaVuSans-75"/>
      <use x="126.855469" xlink:href="#DejaVuSans-63"/>
      <use x="181.835938" xlink:href="#DejaVuSans-63"/>
      <use x="236.816406" xlink:href="#DejaVuSans-65"/>
      <use x="298.339844" xlink:href="#DejaVuSans-73"/>
      <use x="350.439453" xlink:href="#DejaVuSans-73"/>
      <use x="402.539062" xlink:href="#DejaVuSans-66"/>
      <use x="437.744141" xlink:href="#DejaVuSans-75"/>
      <use x="501.123047" xlink:href="#DejaVuSans-6c"/>
      <use x="528.90625" xlink:href="#DejaVuSans-20"/>
      <use x="560.693359" xlink:href="#DejaVuSans-64"/>
      <use x="624.169922" xlink:href="#DejaVuSans-6f"/>
      <use x="685.351562" xlink:href="#DejaVuSans-77"/>
      <use x="767.138672" xlink:href="#DejaVuSans-6e"/>
      <use x="830.517578" xlink:href="#DejaVuSans-6c"/>
      <use x="858.300781" xlink:href="#DejaVuSans-6f"/>
      <use x="919.482422" xlink:href="#DejaVuSans-61"/>
      <use x="980.761719" xlink:href="#DejaVuSans-64"/>
      <use x="1044.238281" xlink:href="#DejaVuSans-20"/>
      <use x="1076.025391" xlink:href="#DejaVuSans-72"/>
      <use x="1117.107422" xlink:href="#DejaVuSans-65"/>
      <use x="1178.630859" xlink:href="#DejaVuSans-71"/>
      <use x="1242.107422" xlink:href="#DejaVuSans-75"/>
      <use x="1305.486328" xlink:href="#DejaVuSans-65"/>
      <use x="1367.009766" xlink:href="#DejaVuSans-73"/>
      <use x="1419.109375" xlink:href="#DejaVuSans-74"/>
      <use x="1458.318359" xlink:href="#DejaVuSans-73"/>
      <use x="1510.417969" xlink:href="#DejaVuSans-20"/>
      <use x="1542.205078" xlink:href="#DejaVuSans-70"/>
      <use x="1605.681641" xlink:href="#DejaVuSans-65"/>
      <use x="1667.205078" xlink:href="#DejaVuSans-72"/>
      <use x="1708.318359" xlink:href="#DejaVuSans-20"/>
      <use x="1740.105469" xlink:href="#DejaVuSans-73"/>
      <use x="1792.205078" xlink:href="#DejaVuSans-65"/>
      <use x="1853.728516" xlink:href="#DejaVuSans-63"/>
      <use x="1908.708984" xlink:href="#DejaVuSans-6f"/>
      <use x="1969.890625" xlink:href="#DejaVuSans-6e"/>
      <use x="2033.269531" xlink:href="#DejaVuSans-64"/>
     </g>
    </g>
   </g>
   <g id="line2d_29">
    <path clip-path="url(#p89001f3120)" d="M 57.6 295.461609 
L 57.95712 295.488 
L 61.88544 280.996691 
L 62.24256 280.006342 
L 62.59968 277.407546 
L 62.9568 276.581098 
L 63.67104 273.68367 
L 64.02816 272.844721 
L 64.38528 271.587687 
L 64.7424 269.331971 
L 65.09952 268.891662 
L 65.45664 266.763733 
L 66.17088 264.255221 
L 66.528 262.303693 
L 66.88512 262.680109 
L 67.24224 261.595309 
L 67.59936 259.781291 
L 67.95648 257.214442 
L 68.3136 256.043525 
L 68.67072 255.44765 
L 69.38496 253.084981 
L 69.74208 252.797461 
L 70.0992 250.482018 
L 70.45632 250.126437 
L 70.81344 248.286029 
L 71.17056 245.108025 
L 71.8848 243.573193 
L 72.59904 238.77424 
L 72.95616 240.054887 
L 73.31328 237.493594 
L 73.6704 236.911608 
L 74.02752 234.457266 
L 74.38464 233.764161 
L 74.74176 230.461149 
L 75.09888 232.551575 
L 75.456 231.614008 
L 75.81312 230.04723 
L 76.17024 229.066605 
L 76.52736 224.557951 
L 76.88448 225.977496 
L 77.2416 220.814628 
L 77.59872 222.93978 
L 77.95584 221.227158 
L 78.31296 217.58801 
L 78.67008 215.114223 
L 79.0272 216.868514 
L 79.74144 212.416808 
L 80.09856 216.88796 
L 80.45568 216.461541 
L 80.8128 210.661128 
L 81.16992 215.262844 
L 81.52704 213.027963 
L 81.88416 209.623554 
L 82.24128 211.705647 
L 82.5984 213.112691 
L 82.95552 208.377632 
L 83.31264 207.276165 
L 83.66976 209.524936 
L 84.02688 205.828839 
L 84.384 206.708069 
L 84.74112 208.890168 
L 85.09824 205.651049 
L 85.45536 203.517564 
L 86.1696 208.222065 
L 86.88384 203.414779 
L 87.24096 202.550828 
L 87.59808 202.742509 
L 87.9552 201.904949 
L 88.31232 202.016068 
L 88.66944 201.154896 
L 89.02656 198.817229 
L 89.38368 202.83696 
L 89.7408 198.618604 
L 90.09792 199.949254 
L 90.45504 202.656391 
L 91.16928 198.818618 
L 91.5264 200.703475 
L 91.88352 195.711452 
L 92.24064 201.104892 
L 92.95488 193.422401 
L 93.312 196.119815 
L 93.66912 195.762845 
L 94.02624 198.254689 
L 94.38336 191.734781 
L 94.74048 191.15974 
L 95.0976 194.47942 
L 95.45472 196.172596 
L 95.81184 192.872361 
L 96.52608 189.015142 
L 96.8832 190.805548 
L 97.24032 194.673879 
L 97.59744 193.51963 
L 97.95456 193.214052 
L 98.31168 191.206965 
L 98.6688 191.333363 
L 99.02592 188.156748 
L 99.38304 189.842979 
L 99.74016 186.124659 
L 100.09728 185.20376 
L 100.4544 184.689835 
L 100.81152 184.414815 
L 101.16864 191.102791 
L 101.52576 184.313419 
L 101.88288 187.22057 
L 102.24 186.817764 
L 102.59712 183.029994 
L 102.95424 188.478993 
L 103.31136 183.677262 
L 103.66848 185.467668 
L 104.0256 186.337174 
L 104.38272 185.459334 
L 104.73984 185.120421 
L 105.09696 183.327238 
L 105.45408 185.184314 
L 105.8112 186.402456 
L 106.52544 181.999365 
L 106.88256 183.438357 
L 107.23968 180.381194 
L 107.5968 179.320008 
L 107.95392 177.142075 
L 108.31104 183.952282 
L 108.66816 176.796217 
L 109.02528 176.975396 
L 109.3824 182.746641 
L 109.73952 181.891024 
L 110.09664 182.260495 
L 110.45376 182.068815 
L 110.81088 174.562725 
L 111.168 174.605783 
L 111.52512 180.800669 
L 111.88224 177.057347 
L 112.23936 175.835037 
L 112.59648 179.724203 
L 112.9536 179.210278 
L 113.31072 173.589044 
L 113.66784 171.379165 
L 114.02496 178.897756 
L 114.38208 172.586195 
L 114.7392 175.951712 
L 115.09632 171.323605 
L 115.45344 176.960118 
L 115.81056 176.361464 
L 116.16768 174.121027 
L 116.5248 177.062903 
L 116.88192 168.913711 
L 117.23904 174.104359 
L 117.59616 168.331726 
L 117.95328 174.477996 
L 118.3104 172.426462 
L 118.66752 167.55667 
L 119.02464 171.183317 
L 119.38176 167.905306 
L 119.73888 165.874606 
L 120.096 173.898789 
L 120.45312 169.855445 
L 120.81024 169.979065 
L 121.16736 165.941278 
L 121.52448 173.175126 
L 121.8816 170.016568 
L 122.59584 167.978923 
L 122.95296 163.010513 
L 123.31008 171.431946 
L 123.6672 167.435828 
L 124.02432 168.494237 
L 124.38144 166.181572 
L 124.73856 162.722993 
L 125.4528 166.180183 
L 125.80992 165.102329 
L 126.16704 169.02483 
L 126.52416 162.584094 
L 126.88128 168.519239 
L 127.2384 162.114616 
L 127.59552 168.251164 
L 127.95264 166.587157 
L 128.30976 159.11857 
L 128.66688 163.70084 
L 129.024 165.369015 
L 129.38112 158.296289 
L 129.73824 161.183994 
L 130.09536 157.571237 
L 130.45248 160.924254 
L 130.8096 162.995235 
L 131.16672 161.171494 
L 131.52384 161.411788 
L 131.88096 156.905912 
L 132.23808 164.039753 
L 132.5952 161.427067 
L 132.95232 162.145174 
L 133.30944 154.747425 
L 133.66656 161.709032 
L 134.02368 154.865489 
L 134.3808 159.006062 
L 134.73792 155.364136 
L 135.09504 157.525401 
L 135.45216 158.437966 
L 135.80928 155.264129 
L 136.1664 157.978211 
L 136.52352 158.771323 
L 136.88064 154.01404 
L 137.23776 155.384971 
L 137.59488 151.637482 
L 137.952 159.868623 
L 138.30912 153.964036 
L 138.66624 154.237667 
L 139.02336 160.62701 
L 140.45184 149.876245 
L 140.80896 158.58242 
L 141.5232 153.237595 
L 141.88032 150.361002 
L 142.23744 148.766444 
L 142.59456 155.814168 
L 142.95168 156.530885 
L 143.3088 150.001254 
L 143.66592 147.710813 
L 144.02304 154.241834 
L 144.38016 154.400178 
L 144.73728 147.766373 
L 145.0944 150.963822 
L 145.45152 155.658601 
L 145.80864 150.499901 
L 146.16576 155.964178 
L 146.52288 155.871116 
L 146.88 152.561158 
L 147.23712 145.223136 
L 147.59424 151.858331 
L 147.95136 154.87799 
L 148.30848 151.477748 
L 148.6656 144.921726 
L 149.02272 152.759784 
L 149.37984 152.28475 
L 149.73696 153.6154 
L 150.09408 147.598305 
L 150.4512 151.418021 
L 150.80832 150.479066 
L 151.16544 145.24536 
L 151.52256 147.913605 
L 151.87968 151.609702 
L 152.2368 142.340986 
L 152.59392 142.106247 
L 152.95104 146.674628 
L 153.30816 148.933122 
L 153.66528 146.307935 
L 154.0224 148.706717 
L 154.37952 150.22627 
L 154.73664 142.932695 
L 155.09376 150.504068 
L 155.45088 150.199879 
L 155.808 150.380448 
L 156.16512 149.877634 
L 156.52224 141.632603 
L 156.87936 145.775953 
L 157.23648 146.344049 
L 157.5936 148.910899 
L 157.95072 138.257362 
L 158.30784 148.117787 
L 158.66496 139.15187 
L 159.02208 148.040003 
L 159.73632 137.833721 
L 160.09344 139.861643 
L 160.45056 146.30238 
L 160.80768 139.714411 
L 161.1648 140.464464 
L 161.52192 147.12466 
L 161.87904 144.709211 
L 162.59328 136.866986 
L 162.9504 138.787956 
L 163.30752 146.028749 
L 163.66464 135.398826 
L 164.02176 142.711846 
L 164.37888 137.887892 
L 164.736 144.836997 
L 165.09312 143.824425 
L 165.45024 139.59218 
L 165.80736 133.89733 
L 166.16448 134.197351 
L 166.5216 137.787884 
L 166.87872 135.079358 
L 167.23584 139.360219 
L 167.59296 132.805585 
L 167.95008 143.499402 
L 168.66432 132.62085 
L 169.02144 133.069493 
L 169.37856 136.933657 
L 169.73568 133.463966 
L 170.44992 131.366594 
L 170.80704 141.063118 
L 171.16416 135.664122 
L 171.52128 137.804552 
L 171.8784 133.977891 
L 172.23552 134.277912 
L 172.59264 141.281189 
L 172.94976 132.505564 
L 173.30688 130.827667 
L 173.664 135.998868 
L 174.02112 132.27777 
L 174.37824 136.453067 
L 174.73536 136.987828 
L 175.09248 132.656964 
L 175.4496 137.203121 
L 176.16384 133.152832 
L 176.52096 135.811355 
L 176.87808 129.312281 
L 177.2352 136.650303 
L 177.59232 132.622239 
L 177.94944 132.916704 
L 178.30656 133.736207 
L 178.66368 132.901426 
L 179.0208 129.476182 
L 179.37792 131.730509 
L 180.09216 134.533486 
L 180.8064 127.151016 
L 181.16352 135.401603 
L 181.52064 128.013578 
L 181.87776 128.43583 
L 182.23488 127.209354 
L 182.592 130.033166 
L 182.94912 131.306868 
L 183.30624 134.951571 
L 183.66336 135.182143 
L 184.3776 126.744043 
L 185.09184 133.633422 
L 185.44896 126.812103 
L 185.80608 130.911006 
L 186.1632 128.595563 
L 186.52032 134.293191 
L 186.87744 130.89156 
L 187.23456 129.853986 
L 187.59168 130.505422 
L 187.9488 133.216726 
L 188.30592 133.886218 
L 188.66304 124.811961 
L 189.02016 123.300742 
L 189.37728 128.208036 
L 189.7344 128.446942 
L 190.09152 130.079002 
L 190.44864 127.880235 
L 190.80576 132.023585 
L 191.16288 125.236991 
L 191.52 127.28297 
L 191.87712 125.08698 
L 192.23424 129.742867 
L 192.59136 123.898007 
L 192.94848 129.556743 
L 193.3056 131.398541 
L 193.66272 130.965177 
L 194.01984 123.270184 
L 194.73408 128.694182 
L 195.0912 120.414425 
L 195.44832 118.960155 
L 195.80544 124.475826 
L 196.16256 125.341165 
L 196.51968 128.691404 
L 196.8768 119.497694 
L 197.23392 129.156714 
L 197.59104 125.367556 
L 197.94816 128.670569 
L 198.30528 122.04093 
L 198.6624 125.33422 
L 199.01952 120.015786 
L 199.37664 121.774244 
L 199.73376 121.665903 
L 200.09088 116.583597 
L 200.448 125.489787 
L 200.80512 125.931485 
L 201.16224 122.135381 
L 201.51936 122.461793 
L 201.87648 118.0212 
L 202.2336 119.108777 
L 202.59072 117.385043 
L 202.94784 118.640688 
L 203.30496 116.875285 
L 203.66208 117.162805 
L 204.0192 118.910152 
L 204.37632 123.025722 
L 204.73344 118.444841 
L 205.09056 118.878205 
L 205.8048 122.035374 
L 206.16192 120.701946 
L 206.51904 124.561943 
L 207.23328 117.350318 
L 207.5904 122.868767 
L 207.94752 113.056957 
L 208.30464 123.450753 
L 208.66176 114.308435 
L 209.01888 121.41033 
L 209.376 117.91008 
L 209.73312 115.919661 
L 210.44736 122.495129 
L 210.80448 115.258503 
L 211.1616 116.498869 
L 211.51872 115.437682 
L 211.87584 123.243794 
L 212.23296 117.301704 
L 212.59008 114.063973 
L 212.9472 116.823892 
L 213.30432 115.514077 
L 213.66144 111.012367 
L 214.01856 121.408941 
L 214.37568 118.660134 
L 214.7328 118.450397 
L 215.08992 121.967314 
L 215.44704 116.272464 
L 215.80416 121.08114 
L 216.16128 116.272464 
L 216.5184 117.786461 
L 216.87552 117.592002 
L 217.23264 117.028073 
L 217.58976 109.181681 
L 217.94688 109.020559 
L 218.304 111.766588 
L 218.66112 116.248851 
L 219.01824 114.308435 
L 219.73248 107.887145 
L 220.0896 116.136343 
L 220.44672 118.929598 
L 220.80384 118.48651 
L 221.16096 107.594068 
L 221.51808 116.096062 
L 221.8752 111.124875 
L 222.23232 112.634705 
L 222.58944 107.213486 
L 222.94656 106.802345 
L 223.30368 117.10169 
L 223.6608 105.899503 
L 224.01792 110.797074 
L 224.37504 112.959728 
L 224.73216 109.592822 
L 225.08928 115.190442 
L 225.4464 107.153759 
L 225.80352 112.341629 
L 226.16064 112.204119 
L 226.51776 111.085984 
L 226.87488 108.513578 
L 227.232 107.027361 
L 227.58912 108.464964 
L 227.94624 115.634919 
L 228.30336 115.380734 
L 228.66048 116.504425 
L 229.0176 107.805194 
L 229.37472 110.913749 
L 229.73184 116.448865 
L 230.08896 104.900821 
L 230.44608 116.74472 
L 230.8032 109.00528 
L 231.16032 105.192508 
L 231.51744 113.612552 
L 231.87456 108.01771 
L 232.23168 111.990215 
L 232.5888 103.828522 
L 232.94592 111.333223 
L 233.30304 104.413286 
L 233.66016 105.45086 
L 234.01728 102.121457 
L 234.3744 112.324961 
L 234.73152 103.270149 
L 235.08864 106.869017 
L 235.44576 114.155647 
L 236.16 103.936864 
L 236.51712 105.914782 
L 236.87424 109.476147 
L 237.23136 102.464536 
L 237.9456 113.243082 
L 238.30272 110.654008 
L 238.65984 113.668112 
L 239.01696 106.237027 
L 239.37408 105.293905 
L 239.7312 101.451964 
L 240.08832 102.493705 
L 240.44544 108.595529 
L 240.80256 106.68567 
L 241.15968 108.038544 
L 241.5168 101.500579 
L 241.87392 111.291554 
L 242.23104 100.212987 
L 242.58816 99.568497 
L 242.94528 110.019241 
L 243.3024 103.850746 
L 243.65952 104.738309 
L 244.01664 98.573982 
L 244.37376 102.035339 
L 244.73088 107.842697 
L 245.088 105.474473 
L 245.44512 99.867129 
L 245.80224 110.667898 
L 246.15936 108.131607 
L 246.51648 98.476753 
L 246.8736 101.061659 
L 247.23072 98.122561 
L 247.94496 107.703798 
L 248.30208 103.711848 
L 248.6592 104.275777 
L 249.01632 108.927497 
L 249.37344 101.529748 
L 249.73056 96.472443 
L 250.08768 109.651159 
L 250.4448 97.457236 
L 250.80192 105.655041 
L 251.15904 104.702196 
L 251.51616 100.67552 
L 251.87328 106.098128 
L 252.58752 102.003393 
L 253.30176 102.722888 
L 253.65888 108.617752 
L 254.016 103.742405 
L 254.37312 108.385791 
L 254.73024 94.343125 
L 255.08736 106.252306 
L 255.44448 103.011798 
L 255.8016 95.307083 
L 256.15872 106.725951 
L 256.51584 103.239592 
L 256.87296 105.071667 
L 257.23008 98.518422 
L 257.5872 105.381411 
L 257.94432 105.421691 
L 258.30144 97.603079 
L 258.65856 100.838032 
L 259.01568 95.291804 
L 259.3728 92.798571 
L 259.72992 97.109989 
L 260.08704 97.950326 
L 260.44416 93.550013 
L 260.80128 96.854415 
L 261.1584 98.871225 
L 261.51552 99.787957 
L 261.87264 95.695999 
L 262.22976 94.054216 
L 262.58688 99.008735 
L 262.944 91.731828 
L 263.30112 92.893022 
L 263.65824 104.059094 
L 264.01536 101.354735 
L 264.37248 91.051224 
L 264.7296 91.999903 
L 265.08672 100.5519 
L 265.44384 102.965961 
L 265.80096 91.804055 
L 266.15808 100.12687 
L 266.87232 93.113871 
L 267.22944 92.940247 
L 267.58656 94.011157 
L 267.94368 97.490571 
L 268.3008 98.610095 
L 268.65792 102.458981 
L 269.01504 96.469665 
L 269.37216 102.153403 
L 269.72928 93.626407 
L 270.0864 101.933943 
L 270.44352 101.590863 
L 270.80064 97.129434 
L 271.15776 99.100408 
L 271.51488 92.474936 
L 271.872 99.260142 
L 272.22912 89.678904 
L 272.58624 99.75601 
L 272.94336 98.639264 
L 273.30048 101.628366 
L 273.6576 97.951715 
L 274.01472 97.594745 
L 274.37184 88.876069 
L 274.72896 99.997694 
L 275.08608 87.549586 
L 275.4432 89.267764 
L 275.80032 98.237847 
L 276.15744 87.192616 
L 276.51456 99.726842 
L 276.87168 92.536052 
L 277.2288 98.601761 
L 277.58592 94.477857 
L 277.94304 95.752948 
L 278.65728 88.803842 
L 279.0144 87.77738 
L 279.37152 92.122134 
L 279.72864 90.802595 
L 280.08576 97.840596 
L 280.44288 92.341594 
L 280.8 92.470769 
L 281.15712 87.599589 
L 281.51424 89.605288 
L 281.87136 99.964359 
L 282.22848 86.587017 
L 282.5856 86.552293 
L 283.29984 95.561267 
L 283.65696 91.981846 
L 284.01408 91.39986 
L 284.3712 94.058382 
L 284.72832 97.86282 
L 285.44256 86.40506 
L 285.79968 95.604326 
L 286.1568 86.099483 
L 286.51392 88.838566 
L 286.87104 97.248887 
L 287.22816 84.014612 
L 287.58528 96.193257 
L 287.9424 89.653902 
L 288.29952 96.91553 
L 288.65664 86.527291 
L 289.01376 83.428459 
L 289.37088 92.751345 
L 289.728 86.028644 
L 290.08512 86.236992 
L 290.44224 91.708215 
L 290.79936 91.634599 
L 291.15648 94.863995 
L 291.5136 92.180471 
L 291.87072 85.01885 
L 292.22784 87.55792 
L 292.58496 93.859757 
L 292.94208 85.199418 
L 293.2992 87.698207 
L 293.65632 85.999475 
L 294.01344 94.39174 
L 294.37056 92.513828 
L 294.72768 87.452357 
L 295.0848 92.479103 
L 295.44192 88.726058 
L 295.79904 94.137555 
L 296.15616 88.31214 
L 296.51328 91.883228 
L 296.8704 89.031636 
L 297.22752 88.749671 
L 297.58464 86.22588 
L 297.94176 91.865171 
L 298.29888 80.931059 
L 298.656 90.878989 
L 299.01312 82.361716 
L 299.37024 82.122811 
L 299.72736 85.010516 
L 300.08448 90.712311 
L 300.4416 93.120816 
L 300.79872 82.608956 
L 301.15584 90.569245 
L 301.51296 93.256937 
L 301.87008 91.013721 
L 302.2272 91.190123 
L 302.58432 79.633745 
L 302.94144 82.564509 
L 303.29856 81.870015 
L 303.65568 79.739308 
L 304.0128 90.844265 
L 304.36992 92.979139 
L 304.72704 84.247962 
L 305.08416 91.504034 
L 305.44128 92.631892 
L 305.7984 84.150733 
L 306.51264 88.12046 
L 306.86976 85.602225 
L 307.22688 78.529499 
L 307.94112 89.715018 
L 308.65536 83.228445 
L 309.01248 91.398471 
L 309.3696 92.44299 
L 309.72672 82.828416 
L 310.08384 87.794048 
L 310.44096 87.02177 
L 310.79808 81.335255 
L 311.1552 90.298393 
L 311.51232 90.945661 
L 311.86944 82.37005 
L 312.22656 78.168362 
L 312.58368 79.367059 
L 312.9408 87.300957 
L 313.29792 79.048981 
L 313.65504 79.957379 
L 314.01216 80.262956 
L 314.36928 83.724313 
L 314.7264 77.268298 
L 315.08352 88.97052 
L 315.44064 90.628972 
L 315.79776 81.099127 
L 316.15488 86.927319 
L 316.512 75.602902 
L 316.86912 83.079823 
L 317.22624 87.334293 
L 317.58336 78.837855 
L 317.94048 76.039044 
L 318.2976 76.486298 
L 318.65472 75.457058 
L 319.01184 76.201556 
L 319.36896 77.708607 
L 319.72608 81.336644 
L 320.0832 81.72556 
L 320.44032 75.522341 
L 320.79744 85.532776 
L 321.51168 88.221856 
L 321.8688 88.741337 
L 322.58304 80.281013 
L 322.94016 89.084417 
L 323.29728 78.297538 
L 323.6544 82.163091 
L 324.01152 79.065649 
L 324.36864 79.772643 
L 324.72576 81.654722 
L 325.08288 82.285322 
L 325.44 78.243368 
L 325.79712 79.640689 
L 326.15424 86.093927 
L 326.51136 82.143645 
L 326.86848 86.184211 
L 327.2256 81.49221 
L 327.58272 81.024121 
L 327.93984 79.943489 
L 328.29696 87.752378 
L 328.65408 87.507916 
L 329.0112 74.413928 
L 329.36832 82.79647 
L 329.72544 75.458447 
L 330.08256 84.653546 
L 330.43968 86.032811 
L 331.15392 79.782366 
L 331.51104 86.435618 
L 331.86816 76.144607 
L 332.22528 72.419342 
L 332.5824 79.125375 
L 332.93952 74.593108 
L 333.29664 75.751524 
L 333.65376 75.994597 
L 334.368 71.917917 
L 334.72512 83.731258 
L 335.08224 81.774175 
L 335.43936 77.229407 
L 335.79648 82.695074 
L 336.1536 74.369481 
L 336.86784 84.884118 
L 337.22496 84.672992 
L 337.58208 82.488114 
L 337.9392 71.57067 
L 338.29632 77.353027 
L 338.65344 77.218295 
L 339.01056 71.477608 
L 339.36768 82.031137 
L 340.08192 71.8318 
L 340.43904 75.363996 
L 340.79616 84.420196 
L 341.15328 74.854238 
L 341.5104 84.525759 
L 341.86752 70.110844 
L 342.22464 82.121422 
L 342.93888 69.349679 
L 343.296 71.197033 
L 343.65312 83.611805 
L 344.01024 69.548304 
L 344.36736 71.319264 
L 344.72448 79.100373 
L 345.0816 70.999797 
L 345.43872 79.84626 
L 345.79584 67.730119 
L 346.15296 76.565471 
L 346.51008 70.170571 
L 346.8672 79.930988 
L 347.22432 69.402461 
L 347.58144 76.293229 
L 347.93856 73.394411 
L 348.29568 73.004106 
L 348.6528 71.148418 
L 349.00992 67.681505 
L 349.36704 79.658746 
L 349.72416 68.088478 
L 350.08128 77.108565 
L 350.4384 74.316699 
L 350.79552 76.023765 
L 351.15264 66.952286 
L 351.50976 75.970984 
L 352.224 66.791164 
L 352.58112 80.764381 
L 353.29536 77.190515 
L 353.65248 80.733823 
L 354.0096 71.556781 
L 354.36672 66.584204 
L 354.72384 80.817162 
L 355.08096 68.763526 
L 355.43808 77.51276 
L 355.7952 76.507133 
L 356.15232 70.733111 
L 356.50944 67.859295 
L 356.86656 75.501506 
L 357.22368 78.164195 
L 357.5808 79.205936 
L 357.93792 66.921728 
L 358.29504 80.624093 
L 359.3664 64.357657 
L 359.72352 77.850284 
L 360.08064 77.478035 
L 360.43776 72.576298 
L 360.79488 77.368305 
L 361.50912 71.224813 
L 361.86624 69.381626 
L 362.22336 69.756652 
L 362.58048 68.042642 
L 362.9376 76.993279 
L 363.29472 69.93861 
L 363.65184 65.281334 
L 364.00896 74.698671 
L 364.36608 67.421764 
L 364.7232 75.112589 
L 365.08032 70.533097 
L 365.43744 72.6138 
L 365.79456 76.089048 
L 366.15168 63.165905 
L 366.5088 75.212596 
L 366.86592 77.954458 
L 367.22304 74.400039 
L 367.58016 73.140227 
L 367.93728 77.182181 
L 368.2944 70.65255 
L 368.65152 74.745897 
L 369.00864 77.148845 
L 369.36576 71.319264 
L 369.72288 78.279481 
L 370.08 64.550726 
L 370.43712 69.192723 
L 370.79424 69.723317 
L 371.15136 76.312675 
L 371.50848 69.335789 
L 371.8656 66.109171 
L 372.22272 73.084667 
L 372.57984 71.012297 
L 372.93696 69.74693 
L 373.29408 63.647884 
L 373.6512 65.498016 
L 374.00832 67.945412 
L 374.36544 64.960478 
L 374.72256 69.491356 
L 375.07968 63.117291 
L 375.4368 62.988115 
L 375.79392 67.671782 
L 376.15104 63.193685 
L 376.50816 75.129257 
L 376.86528 68.399611 
L 377.2224 65.274389 
L 377.57952 67.035625 
L 377.93664 75.327882 
L 378.65088 66.903672 
L 379.008 60.754623 
L 379.72224 73.097168 
L 380.07936 72.855484 
L 380.43648 73.811108 
L 380.7936 66.442528 
L 381.15072 74.859794 
L 381.50784 73.256902 
L 381.86496 68.657963 
L 382.22208 70.662272 
L 382.5792 61.083813 
L 382.93632 63.153405 
L 383.29344 59.72955 
L 383.65056 72.580465 
L 384.00768 73.256902 
L 384.3648 64.879916 
L 384.72192 63.803451 
L 385.07904 69.299675 
L 385.43616 71.745683 
L 385.79328 64.71046 
L 386.1504 71.565115 
L 386.50752 66.146673 
L 386.86464 68.845476 
L 387.22176 74.504213 
L 387.57888 66.373078 
L 387.936 71.985978 
L 388.29312 63.897902 
L 388.65024 58.651695 
L 389.00736 70.595601 
L 389.36448 71.627619 
L 389.7216 68.037086 
L 390.07872 59.518424 
L 390.43584 65.325781 
L 390.79296 65.939714 
L 391.15008 67.996805 
L 391.5072 68.762137 
L 391.86432 59.340633 
L 392.22144 68.516286 
L 392.57856 68.527398 
L 392.93568 71.445662 
L 393.2928 66.634208 
L 393.64992 63.586769 
L 394.00704 63.058953 
L 394.36416 66.449473 
L 394.72128 64.206257 
L 395.0784 66.338354 
L 395.43552 60.372651 
L 396.14976 70.098343 
L 396.50688 67.835682 
L 396.864 69.349679 
L 397.22112 67.709284 
L 397.57824 70.084454 
L 397.93536 63.888179 
L 398.29248 72.035981 
L 398.6496 70.395587 
L 399.00672 63.113124 
L 399.36384 60.962971 
L 399.72096 56.343198 
L 400.07808 56.489041 
L 400.4352 67.796791 
L 400.79232 70.551153 
L 401.14944 60.040683 
L 401.50656 60.08652 
L 401.86368 55.340348 
L 402.2208 61.719969 
L 402.57792 63.053397 
L 402.93504 62.982559 
L 403.29216 59.232292 
L 403.64928 68.910759 
L 404.0064 59.782331 
L 404.36352 70.231686 
L 404.72064 60.419877 
L 405.07776 70.195573 
L 405.792 54.44584 
L 406.14912 56.343198 
L 406.50624 61.167152 
L 406.86336 63.340918 
L 407.22048 54.356945 
L 407.5776 68.901036 
L 407.93472 60.747678 
L 408.29184 56.062622 
L 408.64896 61.406058 
L 409.00608 69.837214 
L 409.3632 53.683286 
L 410.07744 58.107212 
L 410.43456 53.568 
L 411.1488 68.628794 
L 411.50592 57.158533 
L 411.86304 65.488293 
L 412.22016 53.788849 
L 412.57728 63.456204 
L 412.9344 54.397226 
L 413.29152 63.472872 
L 413.64864 54.920874 
L 414.00576 65.935547 
L 414.36288 58.28778 
L 414.72 64.550726 
L 414.72 64.550726 
" style="fill:none;stroke:#000080;stroke-linecap:square;stroke-width:0.5;"/>
   </g>
   <g id="patch_3">
    <path d="M 57.6 307.584 
L 57.6 41.472 
" style="fill:none;stroke:#000000;stroke-linecap:square;stroke-linejoin:miter;stroke-width:0.8;"/>
   </g>
   <g id="patch_4">
    <path d="M 414.72 307.584 
L 414.72 41.472 
" style="fill:none;stroke:#000000;stroke-linecap:square;stroke-linejoin:miter;stroke-width:0.8;"/>
   </g>
   <g id="patch_5">
    <path d="M 57.6 307.584 
L 414.72 307.584 
" style="fill:none;stroke:#000000;stroke-linecap:square;stroke-linejoin:miter;stroke-width:0.8;"/>
   </g>
   <g id="patch_6">
    <path d="M 57.6 41.472 
L 414.72 41.472 
" style="fill:none;stroke:#000000;stroke-linecap:square;stroke-linejoin:miter;stroke-width:0.8;"/>
   </g>
   <g id="text_17">
    <!-- Test -->
    <defs>
     <path d="M -0.296875 72.90625 
L 61.375 72.90625 
L 61.375 64.59375 
L 35.5 64.59375 
L 35.5 0 
L 25.59375 0 
L 25.59375 64.59375 
L -0.296875 64.59375 
z
" id="DejaVuSans-54"/>
    </defs>
    <g transform="translate(223.341563 35.472)scale(0.12 -0.12)">
     <use xlink:href="#DejaVuSans-54"/>
     <use x="60.818359" xlink:href="#DejaVuSans-65"/>
     <use x="122.341797" xlink:href="#DejaVuSans-73"/>
     <use x="174.441406" xlink:href="#DejaVuSans-74"/>
    </g>
   </g>
   <g id="legend_1">
    <g id="patch_7">
     <path d="M 64.6 64.150125 
L 306.276563 64.150125 
Q 308.276563 64.150125 308.276563 62.150125 
L 308.276563 48.472 
Q 308.276563 46.472 306.276563 46.472 
L 64.6 46.472 
Q 62.6 46.472 62.6 48.472 
L 62.6 62.150125 
Q 62.6 64.150125 64.6 64.150125 
z
" style="fill:#ffffff;opacity:0.8;stroke:#cccccc;stroke-linejoin:miter;"/>
    </g>
    <g id="line2d_30">
     <path d="M 66.6 54.570438 
L 86.6 54.570438 
" style="fill:none;stroke:#000080;stroke-linecap:square;stroke-width:0.5;"/>
    </g>
    <g id="line2d_31"/>
    <g id="text_18">
     <!-- Successful download requests per second -->
     <g transform="translate(94.6 58.070438)scale(0.1 -0.1)">
      <use xlink:href="#DejaVuSans-53"/>
      <use x="63.476562" xlink:href="#DejaVuSans-75"/>
      <use x="126.855469" xlink:href="#DejaVuSans-63"/>
      <use x="181.835938" xlink:href="#DejaVuSans-63"/>
      <use x="236.816406" xlink:href="#DejaVuSans-65"/>
      <use x="298.339844" xlink:href="#DejaVuSans-73"/>
      <use x="350.439453" xlink:href="#DejaVuSans-73"/>
      <use x="402.539062" xlink:href="#DejaVuSans-66"/>
      <use x="437.744141" xlink:href="#DejaVuSans-75"/>
      <use x="501.123047" xlink:href="#DejaVuSans-6c"/>
      <use x="528.90625" xlink:href="#DejaVuSans-20"/>
      <use x="560.693359" xlink:href="#DejaVuSans-64"/>
      <use x="624.169922" xlink:href="#DejaVuSans-6f"/>
      <use x="685.351562" xlink:href="#DejaVuSans-77"/>
      <use x="767.138672" xlink:href="#DejaVuSans-6e"/>
      <use x="830.517578" xlink:href="#DejaVuSans-6c"/>
      <use x="858.300781" xlink:href="#DejaVuSans-6f"/>
      <use x="919.482422" xlink:href="#DejaVuSans-61"/>
      <use x="980.761719" xlink:href="#DejaVuSans-64"/>
      <use x="1044.238281" xlink:href="#DejaVuSans-20"/>
      <use x="1076.025391" xlink:href="#DejaVuSans-72"/>
      <use x="1117.107422" xlink:href="#DejaVuSans-65"/>
      <use x="1178.630859" xlink:href="#DejaVuSans-71"/>
      <use x="1242.107422" xlink:href="#DejaVuSans-75"/>
      <use x="1305.486328" xlink:href="#DejaVuSans-65"/>
      <use x="1367.009766" xlink:href="#DejaVuSans-73"/>
      <use x="1419.109375" xlink:href="#DejaVuSans-74"/>
      <use x="1458.318359" xlink:href="#DejaVuSans-73"/>
      <use x="1510.417969" xlink:href="#DejaVuSans-20"/>
      <use x="1542.205078" xlink:href="#DejaVuSans-70"/>
      <use x="1605.681641" xlink:href="#DejaVuSans-65"/>
      <use x="1667.205078" xlink:href="#DejaVuSans-72"/>
      <use x="1708.318359" xlink:href="#DejaVuSans-20"/>
      <use x="1740.105469" xlink:href="#DejaVuSans-73"/>
      <use x="1792.205078" xlink:href="#DejaVuSans-65"/>
      <use x="1853.728516" xlink:href="#DejaVuSans-63"/>
      <use x="1908.708984" xlink:href="#DejaVuSans-6f"/>
      <use x="1969.890625" xlink:href="#DejaVuSans-6e"/>
      <use x="2033.269531" xlink:href="#DejaVuSans-64"/>
     </g>
    </g>
   </g>
  </g>
 </g>
 <defs>
  <clipPath id="p89001f3120">
   <rect height="266.112" width="357.12" x="57.6" y="41.472"/>
  </clipPath>
 </defs>
</svg>
