<?xml version="1.0" encoding="utf-8" standalone="no"?>
<!DOCTYPE svg PUBLIC "-//W3C//DTD SVG 1.1//EN"
  "http://www.w3.org/Graphics/SVG/1.1/DTD/svg11.dtd">
<!-- Created with matplotlib (http://matplotlib.org/) -->
<svg height="345pt" version="1.1" viewBox="0 0 460 345" width="460pt" xmlns="http://www.w3.org/2000/svg" xmlns:xlink="http://www.w3.org/1999/xlink">
 <defs>
  <style type="text/css">
*{stroke-linecap:butt;stroke-linejoin:round;}
  </style>
 </defs>
 <g id="figure_1">
  <g id="patch_1">
   <path d="M 0 345.6 
L 460.8 345.6 
L 460.8 0 
L 0 0 
z
" style="fill:#ffffff;"/>
  </g>
  <g id="axes_1">
   <g id="patch_2">
    <path d="M 57.6 307.584 
L 414.72 307.584 
L 414.72 41.472 
L 57.6 41.472 
z
" style="fill:#ffffff;"/>
   </g>
   <g id="matplotlib.axis_1">
    <g id="xtick_1">
     <g id="line2d_1">
      <path clip-path="url(#p48513e2eb2)" d="M 57.6 307.584 
L 57.6 41.472 
" style="fill:none;stroke:#b0b0b0;stroke-linecap:square;stroke-width:0.8;"/>
     </g>
     <g id="line2d_2">
      <defs>
       <path d="M 0 0 
L 0 3.5 
" id="mfd1e71ea5f" style="stroke:#000000;stroke-width:0.8;"/>
      </defs>
      <g>
       <use style="stroke:#000000;stroke-width:0.8;" x="57.6" xlink:href="#mfd1e71ea5f" y="307.584"/>
      </g>
     </g>
     <g id="text_1">
      <!-- 0 -->
      <defs>
       <path d="M 31.78125 66.40625 
Q 24.171875 66.40625 20.328125 58.90625 
Q 16.5 51.421875 16.5 36.375 
Q 16.5 21.390625 20.328125 13.890625 
Q 24.171875 6.390625 31.78125 6.390625 
Q 39.453125 6.390625 43.28125 13.890625 
Q 47.125 21.390625 47.125 36.375 
Q 47.125 51.421875 43.28125 58.90625 
Q 39.453125 66.40625 31.78125 66.40625 
M 31.78125 74.21875 
Q 44.046875 74.21875 50.515625 64.515625 
Q 56.984375 54.828125 56.984375 36.375 
Q 56.984375 17.96875 50.515625 8.265625 
Q 44.046875 -1.421875 31.78125 -1.421875 
Q 19.53125 -1.421875 13.0625 8.265625 
Q 6.59375 17.96875 6.59375 36.375 
Q 6.59375 54.828125 13.0625 64.515625 
Q 19.53125 74.21875 31.78125 74.21875 
" id="DejaVuSans-30"/>
      </defs>
      <g transform="translate(54.41875 322.182437)scale(0.1 -0.1)">
       <use xlink:href="#DejaVuSans-30"/>
      </g>
     </g>
    </g>
    <g id="xtick_2">
     <g id="line2d_3">
      <path clip-path="url(#p48513e2eb2)" d="M 129.024 307.584 
L 129.024 41.472 
" style="fill:none;stroke:#b0b0b0;stroke-linecap:square;stroke-width:0.8;"/>
     </g>
     <g id="line2d_4">
      <g>
       <use style="stroke:#000000;stroke-width:0.8;" x="129.024" xlink:href="#mfd1e71ea5f" y="307.584"/>
      </g>
     </g>
     <g id="text_2">
      <!-- 200 -->
      <defs>
       <path d="M 19.1875 8.296875 
L 53.609375 8.296875 
L 53.609375 0 
L 7.328125 0 
L 7.328125 8.296875 
Q 12.9375 14.109375 22.625 23.890625 
Q 32.328125 33.6875 34.8125 36.53125 
Q 39.546875 41.84375 41.421875 45.53125 
Q 43.3125 49.21875 43.3125 52.78125 
Q 43.3125 58.59375 39.234375 62.25 
Q 35.15625 65.921875 28.609375 65.921875 
Q 23.96875 65.921875 18.8125 64.3125 
Q 13.671875 62.703125 7.8125 59.421875 
L 7.8125 69.390625 
Q 13.765625 71.78125 18.9375 73 
Q 24.125 74.21875 28.421875 74.21875 
Q 39.75 74.21875 46.484375 68.546875 
Q 53.21875 62.890625 53.21875 53.421875 
Q 53.21875 48.921875 51.53125 44.890625 
Q 49.859375 40.875 45.40625 35.40625 
Q 44.1875 33.984375 37.640625 27.21875 
Q 31.109375 20.453125 19.1875 8.296875 
" id="DejaVuSans-32"/>
      </defs>
      <g transform="translate(119.48025 322.182437)scale(0.1 -0.1)">
       <use xlink:href="#DejaVuSans-32"/>
       <use x="63.623047" xlink:href="#DejaVuSans-30"/>
       <use x="127.246094" xlink:href="#DejaVuSans-30"/>
      </g>
     </g>
    </g>
    <g id="xtick_3">
     <g id="line2d_5">
      <path clip-path="url(#p48513e2eb2)" d="M 200.448 307.584 
L 200.448 41.472 
" style="fill:none;stroke:#b0b0b0;stroke-linecap:square;stroke-width:0.8;"/>
     </g>
     <g id="line2d_6">
      <g>
       <use style="stroke:#000000;stroke-width:0.8;" x="200.448" xlink:href="#mfd1e71ea5f" y="307.584"/>
      </g>
     </g>
     <g id="text_3">
      <!-- 400 -->
      <defs>
       <path d="M 37.796875 64.3125 
L 12.890625 25.390625 
L 37.796875 25.390625 
z
M 35.203125 72.90625 
L 47.609375 72.90625 
L 47.609375 25.390625 
L 58.015625 25.390625 
L 58.015625 17.1875 
L 47.609375 17.1875 
L 47.609375 0 
L 37.796875 0 
L 37.796875 17.1875 
L 4.890625 17.1875 
L 4.890625 26.703125 
z
" id="DejaVuSans-34"/>
      </defs>
      <g transform="translate(190.90425 322.182437)scale(0.1 -0.1)">
       <use xlink:href="#DejaVuSans-34"/>
       <use x="63.623047" xlink:href="#DejaVuSans-30"/>
       <use x="127.246094" xlink:href="#DejaVuSans-30"/>
      </g>
     </g>
    </g>
    <g id="xtick_4">
     <g id="line2d_7">
      <path clip-path="url(#p48513e2eb2)" d="M 271.872 307.584 
L 271.872 41.472 
" style="fill:none;stroke:#b0b0b0;stroke-linecap:square;stroke-width:0.8;"/>
     </g>
     <g id="line2d_8">
      <g>
       <use style="stroke:#000000;stroke-width:0.8;" x="271.872" xlink:href="#mfd1e71ea5f" y="307.584"/>
      </g>
     </g>
     <g id="text_4">
      <!-- 600 -->
      <defs>
       <path d="M 33.015625 40.375 
Q 26.375 40.375 22.484375 35.828125 
Q 18.609375 31.296875 18.609375 23.390625 
Q 18.609375 15.53125 22.484375 10.953125 
Q 26.375 6.390625 33.015625 6.390625 
Q 39.65625 6.390625 43.53125 10.953125 
Q 47.40625 15.53125 47.40625 23.390625 
Q 47.40625 31.296875 43.53125 35.828125 
Q 39.65625 40.375 33.015625 40.375 
M 52.59375 71.296875 
L 52.59375 62.3125 
Q 48.875 64.0625 45.09375 64.984375 
Q 41.3125 65.921875 37.59375 65.921875 
Q 27.828125 65.921875 22.671875 59.328125 
Q 17.53125 52.734375 16.796875 39.40625 
Q 19.671875 43.65625 24.015625 45.921875 
Q 28.375 48.1875 33.59375 48.1875 
Q 44.578125 48.1875 50.953125 41.515625 
Q 57.328125 34.859375 57.328125 23.390625 
Q 57.328125 12.15625 50.6875 5.359375 
Q 44.046875 -1.421875 33.015625 -1.421875 
Q 20.359375 -1.421875 13.671875 8.265625 
Q 6.984375 17.96875 6.984375 36.375 
Q 6.984375 53.65625 15.1875 63.9375 
Q 23.390625 74.21875 37.203125 74.21875 
Q 40.921875 74.21875 44.703125 73.484375 
Q 48.484375 72.75 52.59375 71.296875 
" id="DejaVuSans-36"/>
      </defs>
      <g transform="translate(262.32825 322.182437)scale(0.1 -0.1)">
       <use xlink:href="#DejaVuSans-36"/>
       <use x="63.623047" xlink:href="#DejaVuSans-30"/>
       <use x="127.246094" xlink:href="#DejaVuSans-30"/>
      </g>
     </g>
    </g>
    <g id="xtick_5">
     <g id="line2d_9">
      <path clip-path="url(#p48513e2eb2)" d="M 343.296 307.584 
L 343.296 41.472 
" style="fill:none;stroke:#b0b0b0;stroke-linecap:square;stroke-width:0.8;"/>
     </g>
     <g id="line2d_10">
      <g>
       <use style="stroke:#000000;stroke-width:0.8;" x="343.296" xlink:href="#mfd1e71ea5f" y="307.584"/>
      </g>
     </g>
     <g id="text_5">
      <!-- 800 -->
      <defs>
       <path d="M 31.78125 34.625 
Q 24.75 34.625 20.71875 30.859375 
Q 16.703125 27.09375 16.703125 20.515625 
Q 16.703125 13.921875 20.71875 10.15625 
Q 24.75 6.390625 31.78125 6.390625 
Q 38.8125 6.390625 42.859375 10.171875 
Q 46.921875 13.96875 46.921875 20.515625 
Q 46.921875 27.09375 42.890625 30.859375 
Q 38.875 34.625 31.78125 34.625 
M 21.921875 38.8125 
Q 15.578125 40.375 12.03125 44.71875 
Q 8.5 49.078125 8.5 55.328125 
Q 8.5 64.0625 14.71875 69.140625 
Q 20.953125 74.21875 31.78125 74.21875 
Q 42.671875 74.21875 48.875 69.140625 
Q 55.078125 64.0625 55.078125 55.328125 
Q 55.078125 49.078125 51.53125 44.71875 
Q 48 40.375 41.703125 38.8125 
Q 48.828125 37.15625 52.796875 32.3125 
Q 56.78125 27.484375 56.78125 20.515625 
Q 56.78125 9.90625 50.3125 4.234375 
Q 43.84375 -1.421875 31.78125 -1.421875 
Q 19.734375 -1.421875 13.25 4.234375 
Q 6.78125 9.90625 6.78125 20.515625 
Q 6.78125 27.484375 10.78125 32.3125 
Q 14.796875 37.15625 21.921875 38.8125 
M 18.3125 54.390625 
Q 18.3125 48.734375 21.84375 45.5625 
Q 25.390625 42.390625 31.78125 42.390625 
Q 38.140625 42.390625 41.71875 45.5625 
Q 45.3125 48.734375 45.3125 54.390625 
Q 45.3125 60.0625 41.71875 63.234375 
Q 38.140625 66.40625 31.78125 66.40625 
Q 25.390625 66.40625 21.84375 63.234375 
Q 18.3125 60.0625 18.3125 54.390625 
" id="DejaVuSans-38"/>
      </defs>
      <g transform="translate(333.75225 322.182437)scale(0.1 -0.1)">
       <use xlink:href="#DejaVuSans-38"/>
       <use x="63.623047" xlink:href="#DejaVuSans-30"/>
       <use x="127.246094" xlink:href="#DejaVuSans-30"/>
      </g>
     </g>
    </g>
    <g id="xtick_6">
     <g id="line2d_11">
      <path clip-path="url(#p48513e2eb2)" d="M 414.72 307.584 
L 414.72 41.472 
" style="fill:none;stroke:#b0b0b0;stroke-linecap:square;stroke-width:0.8;"/>
     </g>
     <g id="line2d_12">
      <g>
       <use style="stroke:#000000;stroke-width:0.8;" x="414.72" xlink:href="#mfd1e71ea5f" y="307.584"/>
      </g>
     </g>
     <g id="text_6">
      <!-- 1000 -->
      <defs>
       <path d="M 12.40625 8.296875 
L 28.515625 8.296875 
L 28.515625 63.921875 
L 10.984375 60.40625 
L 10.984375 69.390625 
L 28.421875 72.90625 
L 38.28125 72.90625 
L 38.28125 8.296875 
L 54.390625 8.296875 
L 54.390625 0 
L 12.40625 0 
z
" id="DejaVuSans-31"/>
      </defs>
      <g transform="translate(401.995 322.182437)scale(0.1 -0.1)">
       <use xlink:href="#DejaVuSans-31"/>
       <use x="63.623047" xlink:href="#DejaVuSans-30"/>
       <use x="127.246094" xlink:href="#DejaVuSans-30"/>
       <use x="190.869141" xlink:href="#DejaVuSans-30"/>
      </g>
     </g>
    </g>
    <g id="text_7">
     <!-- Number of clients -->
     <defs>
      <path d="M 9.8125 72.90625 
L 23.09375 72.90625 
L 55.421875 11.921875 
L 55.421875 72.90625 
L 64.984375 72.90625 
L 64.984375 0 
L 51.703125 0 
L 19.390625 60.984375 
L 19.390625 0 
L 9.8125 0 
z
" id="DejaVuSans-4e"/>
      <path d="M 8.5 21.578125 
L 8.5 54.6875 
L 17.484375 54.6875 
L 17.484375 21.921875 
Q 17.484375 14.15625 20.5 10.265625 
Q 23.53125 6.390625 29.59375 6.390625 
Q 36.859375 6.390625 41.078125 11.03125 
Q 45.3125 15.671875 45.3125 23.6875 
L 45.3125 54.6875 
L 54.296875 54.6875 
L 54.296875 0 
L 45.3125 0 
L 45.3125 8.40625 
Q 42.046875 3.421875 37.71875 1 
Q 33.40625 -1.421875 27.6875 -1.421875 
Q 18.265625 -1.421875 13.375 4.4375 
Q 8.5 10.296875 8.5 21.578125 
M 31.109375 56 
z
" id="DejaVuSans-75"/>
      <path d="M 52 44.1875 
Q 55.375 50.25 60.0625 53.125 
Q 64.75 56 71.09375 56 
Q 79.640625 56 84.28125 50.015625 
Q 88.921875 44.046875 88.921875 33.015625 
L 88.921875 0 
L 79.890625 0 
L 79.890625 32.71875 
Q 79.890625 40.578125 77.09375 44.375 
Q 74.3125 48.1875 68.609375 48.1875 
Q 61.625 48.1875 57.5625 43.546875 
Q 53.515625 38.921875 53.515625 30.90625 
L 53.515625 0 
L 44.484375 0 
L 44.484375 32.71875 
Q 44.484375 40.625 41.703125 44.40625 
Q 38.921875 48.1875 33.109375 48.1875 
Q 26.21875 48.1875 22.15625 43.53125 
Q 18.109375 38.875 18.109375 30.90625 
L 18.109375 0 
L 9.078125 0 
L 9.078125 54.6875 
L 18.109375 54.6875 
L 18.109375 46.1875 
Q 21.1875 51.21875 25.484375 53.609375 
Q 29.78125 56 35.6875 56 
Q 41.65625 56 45.828125 52.96875 
Q 50 49.953125 52 44.1875 
" id="DejaVuSans-6d"/>
      <path d="M 48.6875 27.296875 
Q 48.6875 37.203125 44.609375 42.84375 
Q 40.53125 48.484375 33.40625 48.484375 
Q 26.265625 48.484375 22.1875 42.84375 
Q 18.109375 37.203125 18.109375 27.296875 
Q 18.109375 17.390625 22.1875 11.75 
Q 26.265625 6.109375 33.40625 6.109375 
Q 40.53125 6.109375 44.609375 11.75 
Q 48.6875 17.390625 48.6875 27.296875 
M 18.109375 46.390625 
Q 20.953125 51.265625 25.265625 53.625 
Q 29.59375 56 35.59375 56 
Q 45.5625 56 51.78125 48.09375 
Q 58.015625 40.1875 58.015625 27.296875 
Q 58.015625 14.40625 51.78125 6.484375 
Q 45.5625 -1.421875 35.59375 -1.421875 
Q 29.59375 -1.421875 25.265625 0.953125 
Q 20.953125 3.328125 18.109375 8.203125 
L 18.109375 0 
L 9.078125 0 
L 9.078125 75.984375 
L 18.109375 75.984375 
z
" id="DejaVuSans-62"/>
      <path d="M 56.203125 29.59375 
L 56.203125 25.203125 
L 14.890625 25.203125 
Q 15.484375 15.921875 20.484375 11.0625 
Q 25.484375 6.203125 34.421875 6.203125 
Q 39.59375 6.203125 44.453125 7.46875 
Q 49.3125 8.734375 54.109375 11.28125 
L 54.109375 2.78125 
Q 49.265625 0.734375 44.1875 -0.34375 
Q 39.109375 -1.421875 33.890625 -1.421875 
Q 20.796875 -1.421875 13.15625 6.1875 
Q 5.515625 13.8125 5.515625 26.8125 
Q 5.515625 40.234375 12.765625 48.109375 
Q 20.015625 56 32.328125 56 
Q 43.359375 56 49.78125 48.890625 
Q 56.203125 41.796875 56.203125 29.59375 
M 47.21875 32.234375 
Q 47.125 39.59375 43.09375 43.984375 
Q 39.0625 48.390625 32.421875 48.390625 
Q 24.90625 48.390625 20.390625 44.140625 
Q 15.875 39.890625 15.1875 32.171875 
z
" id="DejaVuSans-65"/>
      <path d="M 41.109375 46.296875 
Q 39.59375 47.171875 37.8125 47.578125 
Q 36.03125 48 33.890625 48 
Q 26.265625 48 22.1875 43.046875 
Q 18.109375 38.09375 18.109375 28.8125 
L 18.109375 0 
L 9.078125 0 
L 9.078125 54.6875 
L 18.109375 54.6875 
L 18.109375 46.1875 
Q 20.953125 51.171875 25.484375 53.578125 
Q 30.03125 56 36.53125 56 
Q 37.453125 56 38.578125 55.875 
Q 39.703125 55.765625 41.0625 55.515625 
z
" id="DejaVuSans-72"/>
      <path id="DejaVuSans-20"/>
      <path d="M 30.609375 48.390625 
Q 23.390625 48.390625 19.1875 42.75 
Q 14.984375 37.109375 14.984375 27.296875 
Q 14.984375 17.484375 19.15625 11.84375 
Q 23.34375 6.203125 30.609375 6.203125 
Q 37.796875 6.203125 41.984375 11.859375 
Q 46.1875 17.53125 46.1875 27.296875 
Q 46.1875 37.015625 41.984375 42.703125 
Q 37.796875 48.390625 30.609375 48.390625 
M 30.609375 56 
Q 42.328125 56 49.015625 48.375 
Q 55.71875 40.765625 55.71875 27.296875 
Q 55.71875 13.875 49.015625 6.21875 
Q 42.328125 -1.421875 30.609375 -1.421875 
Q 18.84375 -1.421875 12.171875 6.21875 
Q 5.515625 13.875 5.515625 27.296875 
Q 5.515625 40.765625 12.171875 48.375 
Q 18.84375 56 30.609375 56 
" id="DejaVuSans-6f"/>
      <path d="M 37.109375 75.984375 
L 37.109375 68.5 
L 28.515625 68.5 
Q 23.6875 68.5 21.796875 66.546875 
Q 19.921875 64.59375 19.921875 59.515625 
L 19.921875 54.6875 
L 34.71875 54.6875 
L 34.71875 47.703125 
L 19.921875 47.703125 
L 19.921875 0 
L 10.890625 0 
L 10.890625 47.703125 
L 2.296875 47.703125 
L 2.296875 54.6875 
L 10.890625 54.6875 
L 10.890625 58.5 
Q 10.890625 67.625 15.140625 71.796875 
Q 19.390625 75.984375 28.609375 75.984375 
z
" id="DejaVuSans-66"/>
      <path d="M 48.78125 52.59375 
L 48.78125 44.1875 
Q 44.96875 46.296875 41.140625 47.34375 
Q 37.3125 48.390625 33.40625 48.390625 
Q 24.65625 48.390625 19.8125 42.84375 
Q 14.984375 37.3125 14.984375 27.296875 
Q 14.984375 17.28125 19.8125 11.734375 
Q 24.65625 6.203125 33.40625 6.203125 
Q 37.3125 6.203125 41.140625 7.25 
Q 44.96875 8.296875 48.78125 10.40625 
L 48.78125 2.09375 
Q 45.015625 0.34375 40.984375 -0.53125 
Q 36.96875 -1.421875 32.421875 -1.421875 
Q 20.0625 -1.421875 12.78125 6.34375 
Q 5.515625 14.109375 5.515625 27.296875 
Q 5.515625 40.671875 12.859375 48.328125 
Q 20.21875 56 33.015625 56 
Q 37.15625 56 41.109375 55.140625 
Q 45.0625 54.296875 48.78125 52.59375 
" id="DejaVuSans-63"/>
      <path d="M 9.421875 75.984375 
L 18.40625 75.984375 
L 18.40625 0 
L 9.421875 0 
z
" id="DejaVuSans-6c"/>
      <path d="M 9.421875 54.6875 
L 18.40625 54.6875 
L 18.40625 0 
L 9.421875 0 
z
M 9.421875 75.984375 
L 18.40625 75.984375 
L 18.40625 64.59375 
L 9.421875 64.59375 
z
" id="DejaVuSans-69"/>
      <path d="M 54.890625 33.015625 
L 54.890625 0 
L 45.90625 0 
L 45.90625 32.71875 
Q 45.90625 40.484375 42.875 44.328125 
Q 39.84375 48.1875 33.796875 48.1875 
Q 26.515625 48.1875 22.3125 43.546875 
Q 18.109375 38.921875 18.109375 30.90625 
L 18.109375 0 
L 9.078125 0 
L 9.078125 54.6875 
L 18.109375 54.6875 
L 18.109375 46.1875 
Q 21.34375 51.125 25.703125 53.5625 
Q 30.078125 56 35.796875 56 
Q 45.21875 56 50.046875 50.171875 
Q 54.890625 44.34375 54.890625 33.015625 
" id="DejaVuSans-6e"/>
      <path d="M 18.3125 70.21875 
L 18.3125 54.6875 
L 36.8125 54.6875 
L 36.8125 47.703125 
L 18.3125 47.703125 
L 18.3125 18.015625 
Q 18.3125 11.328125 20.140625 9.421875 
Q 21.96875 7.515625 27.59375 7.515625 
L 36.8125 7.515625 
L 36.8125 0 
L 27.59375 0 
Q 17.1875 0 13.234375 3.875 
Q 9.28125 7.765625 9.28125 18.015625 
L 9.28125 47.703125 
L 2.6875 47.703125 
L 2.6875 54.6875 
L 9.28125 54.6875 
L 9.28125 70.21875 
z
" id="DejaVuSans-74"/>
      <path d="M 44.28125 53.078125 
L 44.28125 44.578125 
Q 40.484375 46.53125 36.375 47.5 
Q 32.28125 48.484375 27.875 48.484375 
Q 21.1875 48.484375 17.84375 46.4375 
Q 14.5 44.390625 14.5 40.28125 
Q 14.5 37.15625 16.890625 35.375 
Q 19.28125 33.59375 26.515625 31.984375 
L 29.59375 31.296875 
Q 39.15625 29.25 43.1875 25.515625 
Q 47.21875 21.78125 47.21875 15.09375 
Q 47.21875 7.46875 41.1875 3.015625 
Q 35.15625 -1.421875 24.609375 -1.421875 
Q 20.21875 -1.421875 15.453125 -0.5625 
Q 10.6875 0.296875 5.421875 2 
L 5.421875 11.28125 
Q 10.40625 8.6875 15.234375 7.390625 
Q 20.0625 6.109375 24.8125 6.109375 
Q 31.15625 6.109375 34.5625 8.28125 
Q 37.984375 10.453125 37.984375 14.40625 
Q 37.984375 18.0625 35.515625 20.015625 
Q 33.0625 21.96875 24.703125 23.78125 
L 21.578125 24.515625 
Q 13.234375 26.265625 9.515625 29.90625 
Q 5.8125 33.546875 5.8125 39.890625 
Q 5.8125 47.609375 11.28125 51.796875 
Q 16.75 56 26.8125 56 
Q 31.78125 56 36.171875 55.265625 
Q 40.578125 54.546875 44.28125 53.078125 
" id="DejaVuSans-73"/>
     </defs>
     <g transform="translate(191.738906 335.860562)scale(0.1 -0.1)">
      <use xlink:href="#DejaVuSans-4e"/>
      <use x="74.804688" xlink:href="#DejaVuSans-75"/>
      <use x="138.183594" xlink:href="#DejaVuSans-6d"/>
      <use x="235.595703" xlink:href="#DejaVuSans-62"/>
      <use x="299.072266" xlink:href="#DejaVuSans-65"/>
      <use x="360.595703" xlink:href="#DejaVuSans-72"/>
      <use x="401.708984" xlink:href="#DejaVuSans-20"/>
      <use x="433.496094" xlink:href="#DejaVuSans-6f"/>
      <use x="494.677734" xlink:href="#DejaVuSans-66"/>
      <use x="529.882812" xlink:href="#DejaVuSans-20"/>
      <use x="561.669922" xlink:href="#DejaVuSans-63"/>
      <use x="616.650391" xlink:href="#DejaVuSans-6c"/>
      <use x="644.433594" xlink:href="#DejaVuSans-69"/>
      <use x="672.216797" xlink:href="#DejaVuSans-65"/>
      <use x="733.740234" xlink:href="#DejaVuSans-6e"/>
      <use x="797.119141" xlink:href="#DejaVuSans-74"/>
      <use x="836.328125" xlink:href="#DejaVuSans-73"/>
     </g>
    </g>
   </g>
   <g id="matplotlib.axis_2">
    <g id="ytick_1">
     <g id="line2d_13">
      <path clip-path="url(#p48513e2eb2)" d="M 57.6 296.311001 
L 414.72 296.311001 
" style="fill:none;stroke:#b0b0b0;stroke-linecap:square;stroke-width:0.8;"/>
     </g>
     <g id="line2d_14">
      <defs>
       <path d="M 0 0 
L -3.5 0 
" id="mccd843877d" style="stroke:#000000;stroke-width:0.8;"/>
      </defs>
      <g>
       <use style="stroke:#000000;stroke-width:0.8;" x="57.6" xlink:href="#mccd843877d" y="296.311001"/>
      </g>
     </g>
     <g id="text_8">
      <!-- 0 -->
      <g transform="translate(44.2375 300.110219)scale(0.1 -0.1)">
       <use xlink:href="#DejaVuSans-30"/>
      </g>
     </g>
    </g>
    <g id="ytick_2">
     <g id="line2d_15">
      <path clip-path="url(#p48513e2eb2)" d="M 57.6 253.267035 
L 414.72 253.267035 
" style="fill:none;stroke:#b0b0b0;stroke-linecap:square;stroke-width:0.8;"/>
     </g>
     <g id="line2d_16">
      <g>
       <use style="stroke:#000000;stroke-width:0.8;" x="57.6" xlink:href="#mccd843877d" y="253.267035"/>
      </g>
     </g>
     <g id="text_9">
      <!-- 50 -->
      <defs>
       <path d="M 10.796875 72.90625 
L 49.515625 72.90625 
L 49.515625 64.59375 
L 19.828125 64.59375 
L 19.828125 46.734375 
Q 21.96875 47.46875 24.109375 47.828125 
Q 26.265625 48.1875 28.421875 48.1875 
Q 40.625 48.1875 47.75 41.5 
Q 54.890625 34.8125 54.890625 23.390625 
Q 54.890625 11.625 47.5625 5.09375 
Q 40.234375 -1.421875 26.90625 -1.421875 
Q 22.3125 -1.421875 17.546875 -0.640625 
Q 12.796875 0.140625 7.71875 1.703125 
L 7.71875 11.625 
Q 12.109375 9.234375 16.796875 8.0625 
Q 21.484375 6.890625 26.703125 6.890625 
Q 35.15625 6.890625 40.078125 11.328125 
Q 45.015625 15.765625 45.015625 23.390625 
Q 45.015625 31 40.078125 35.4375 
Q 35.15625 39.890625 26.703125 39.890625 
Q 22.75 39.890625 18.8125 39.015625 
Q 14.890625 38.140625 10.796875 36.28125 
z
" id="DejaVuSans-35"/>
      </defs>
      <g transform="translate(37.875 257.066254)scale(0.1 -0.1)">
       <use xlink:href="#DejaVuSans-35"/>
       <use x="63.623047" xlink:href="#DejaVuSans-30"/>
      </g>
     </g>
    </g>
    <g id="ytick_3">
     <g id="line2d_17">
      <path clip-path="url(#p48513e2eb2)" d="M 57.6 210.223069 
L 414.72 210.223069 
" style="fill:none;stroke:#b0b0b0;stroke-linecap:square;stroke-width:0.8;"/>
     </g>
     <g id="line2d_18">
      <g>
       <use style="stroke:#000000;stroke-width:0.8;" x="57.6" xlink:href="#mccd843877d" y="210.223069"/>
      </g>
     </g>
     <g id="text_10">
      <!-- 100 -->
      <g transform="translate(31.5125 214.022288)scale(0.1 -0.1)">
       <use xlink:href="#DejaVuSans-31"/>
       <use x="63.623047" xlink:href="#DejaVuSans-30"/>
       <use x="127.246094" xlink:href="#DejaVuSans-30"/>
      </g>
     </g>
    </g>
    <g id="ytick_4">
     <g id="line2d_19">
      <path clip-path="url(#p48513e2eb2)" d="M 57.6 167.179104 
L 414.72 167.179104 
" style="fill:none;stroke:#b0b0b0;stroke-linecap:square;stroke-width:0.8;"/>
     </g>
     <g id="line2d_20">
      <g>
       <use style="stroke:#000000;stroke-width:0.8;" x="57.6" xlink:href="#mccd843877d" y="167.179104"/>
      </g>
     </g>
     <g id="text_11">
      <!-- 150 -->
      <g transform="translate(31.5125 170.978322)scale(0.1 -0.1)">
       <use xlink:href="#DejaVuSans-31"/>
       <use x="63.623047" xlink:href="#DejaVuSans-35"/>
       <use x="127.246094" xlink:href="#DejaVuSans-30"/>
      </g>
     </g>
    </g>
    <g id="ytick_5">
     <g id="line2d_21">
      <path clip-path="url(#p48513e2eb2)" d="M 57.6 124.135138 
L 414.72 124.135138 
" style="fill:none;stroke:#b0b0b0;stroke-linecap:square;stroke-width:0.8;"/>
     </g>
     <g id="line2d_22">
      <g>
       <use style="stroke:#000000;stroke-width:0.8;" x="57.6" xlink:href="#mccd843877d" y="124.135138"/>
      </g>
     </g>
     <g id="text_12">
      <!-- 200 -->
      <g transform="translate(31.5125 127.934357)scale(0.1 -0.1)">
       <use xlink:href="#DejaVuSans-32"/>
       <use x="63.623047" xlink:href="#DejaVuSans-30"/>
       <use x="127.246094" xlink:href="#DejaVuSans-30"/>
      </g>
     </g>
    </g>
    <g id="ytick_6">
     <g id="line2d_23">
      <path clip-path="url(#p48513e2eb2)" d="M 57.6 81.091172 
L 414.72 81.091172 
" style="fill:none;stroke:#b0b0b0;stroke-linecap:square;stroke-width:0.8;"/>
     </g>
     <g id="line2d_24">
      <g>
       <use style="stroke:#000000;stroke-width:0.8;" x="57.6" xlink:href="#mccd843877d" y="81.091172"/>
      </g>
     </g>
     <g id="text_13">
      <!-- 250 -->
      <g transform="translate(31.5125 84.890391)scale(0.1 -0.1)">
       <use xlink:href="#DejaVuSans-32"/>
       <use x="63.623047" xlink:href="#DejaVuSans-35"/>
       <use x="127.246094" xlink:href="#DejaVuSans-30"/>
      </g>
     </g>
    </g>
    <g id="text_14">
     <!-- Successful download requests per second -->
     <defs>
      <path d="M 53.515625 70.515625 
L 53.515625 60.890625 
Q 47.90625 63.578125 42.921875 64.890625 
Q 37.9375 66.21875 33.296875 66.21875 
Q 25.25 66.21875 20.875 63.09375 
Q 16.5 59.96875 16.5 54.203125 
Q 16.5 49.359375 19.40625 46.890625 
Q 22.3125 44.4375 30.421875 42.921875 
L 36.375 41.703125 
Q 47.40625 39.59375 52.65625 34.296875 
Q 57.90625 29 57.90625 20.125 
Q 57.90625 9.515625 50.796875 4.046875 
Q 43.703125 -1.421875 29.984375 -1.421875 
Q 24.8125 -1.421875 18.96875 -0.25 
Q 13.140625 0.921875 6.890625 3.21875 
L 6.890625 13.375 
Q 12.890625 10.015625 18.65625 8.296875 
Q 24.421875 6.59375 29.984375 6.59375 
Q 38.421875 6.59375 43.015625 9.90625 
Q 47.609375 13.234375 47.609375 19.390625 
Q 47.609375 24.75 44.3125 27.78125 
Q 41.015625 30.8125 33.5 32.328125 
L 27.484375 33.5 
Q 16.453125 35.6875 11.515625 40.375 
Q 6.59375 45.0625 6.59375 53.421875 
Q 6.59375 63.09375 13.40625 68.65625 
Q 20.21875 74.21875 32.171875 74.21875 
Q 37.3125 74.21875 42.625 73.28125 
Q 47.953125 72.359375 53.515625 70.515625 
" id="DejaVuSans-53"/>
      <path d="M 45.40625 46.390625 
L 45.40625 75.984375 
L 54.390625 75.984375 
L 54.390625 0 
L 45.40625 0 
L 45.40625 8.203125 
Q 42.578125 3.328125 38.25 0.953125 
Q 33.9375 -1.421875 27.875 -1.421875 
Q 17.96875 -1.421875 11.734375 6.484375 
Q 5.515625 14.40625 5.515625 27.296875 
Q 5.515625 40.1875 11.734375 48.09375 
Q 17.96875 56 27.875 56 
Q 33.9375 56 38.25 53.625 
Q 42.578125 51.265625 45.40625 46.390625 
M 14.796875 27.296875 
Q 14.796875 17.390625 18.875 11.75 
Q 22.953125 6.109375 30.078125 6.109375 
Q 37.203125 6.109375 41.296875 11.75 
Q 45.40625 17.390625 45.40625 27.296875 
Q 45.40625 37.203125 41.296875 42.84375 
Q 37.203125 48.484375 30.078125 48.484375 
Q 22.953125 48.484375 18.875 42.84375 
Q 14.796875 37.203125 14.796875 27.296875 
" id="DejaVuSans-64"/>
      <path d="M 4.203125 54.6875 
L 13.1875 54.6875 
L 24.421875 12.015625 
L 35.59375 54.6875 
L 46.1875 54.6875 
L 57.421875 12.015625 
L 68.609375 54.6875 
L 77.59375 54.6875 
L 63.28125 0 
L 52.6875 0 
L 40.921875 44.828125 
L 29.109375 0 
L 18.5 0 
z
" id="DejaVuSans-77"/>
      <path d="M 34.28125 27.484375 
Q 23.390625 27.484375 19.1875 25 
Q 14.984375 22.515625 14.984375 16.5 
Q 14.984375 11.71875 18.140625 8.90625 
Q 21.296875 6.109375 26.703125 6.109375 
Q 34.1875 6.109375 38.703125 11.40625 
Q 43.21875 16.703125 43.21875 25.484375 
L 43.21875 27.484375 
z
M 52.203125 31.203125 
L 52.203125 0 
L 43.21875 0 
L 43.21875 8.296875 
Q 40.140625 3.328125 35.546875 0.953125 
Q 30.953125 -1.421875 24.3125 -1.421875 
Q 15.921875 -1.421875 10.953125 3.296875 
Q 6 8.015625 6 15.921875 
Q 6 25.140625 12.171875 29.828125 
Q 18.359375 34.515625 30.609375 34.515625 
L 43.21875 34.515625 
L 43.21875 35.40625 
Q 43.21875 41.609375 39.140625 45 
Q 35.0625 48.390625 27.6875 48.390625 
Q 23 48.390625 18.546875 47.265625 
Q 14.109375 46.140625 10.015625 43.890625 
L 10.015625 52.203125 
Q 14.9375 54.109375 19.578125 55.046875 
Q 24.21875 56 28.609375 56 
Q 40.484375 56 46.34375 49.84375 
Q 52.203125 43.703125 52.203125 31.203125 
" id="DejaVuSans-61"/>
      <path d="M 14.796875 27.296875 
Q 14.796875 17.390625 18.875 11.75 
Q 22.953125 6.109375 30.078125 6.109375 
Q 37.203125 6.109375 41.296875 11.75 
Q 45.40625 17.390625 45.40625 27.296875 
Q 45.40625 37.203125 41.296875 42.84375 
Q 37.203125 48.484375 30.078125 48.484375 
Q 22.953125 48.484375 18.875 42.84375 
Q 14.796875 37.203125 14.796875 27.296875 
M 45.40625 8.203125 
Q 42.578125 3.328125 38.25 0.953125 
Q 33.9375 -1.421875 27.875 -1.421875 
Q 17.96875 -1.421875 11.734375 6.484375 
Q 5.515625 14.40625 5.515625 27.296875 
Q 5.515625 40.1875 11.734375 48.09375 
Q 17.96875 56 27.875 56 
Q 33.9375 56 38.25 53.625 
Q 42.578125 51.265625 45.40625 46.390625 
L 45.40625 54.6875 
L 54.390625 54.6875 
L 54.390625 -20.796875 
L 45.40625 -20.796875 
z
" id="DejaVuSans-71"/>
      <path d="M 18.109375 8.203125 
L 18.109375 -20.796875 
L 9.078125 -20.796875 
L 9.078125 54.6875 
L 18.109375 54.6875 
L 18.109375 46.390625 
Q 20.953125 51.265625 25.265625 53.625 
Q 29.59375 56 35.59375 56 
Q 45.5625 56 51.78125 48.09375 
Q 58.015625 40.1875 58.015625 27.296875 
Q 58.015625 14.40625 51.78125 6.484375 
Q 45.5625 -1.421875 35.59375 -1.421875 
Q 29.59375 -1.421875 25.265625 0.953125 
Q 20.953125 3.328125 18.109375 8.203125 
M 48.6875 27.296875 
Q 48.6875 37.203125 44.609375 42.84375 
Q 40.53125 48.484375 33.40625 48.484375 
Q 26.265625 48.484375 22.1875 42.84375 
Q 18.109375 37.203125 18.109375 27.296875 
Q 18.109375 17.390625 22.1875 11.75 
Q 26.265625 6.109375 33.40625 6.109375 
Q 40.53125 6.109375 44.609375 11.75 
Q 48.6875 17.390625 48.6875 27.296875 
" id="DejaVuSans-70"/>
     </defs>
     <g transform="translate(25.432812 279.366281)rotate(-90)scale(0.1 -0.1)">
      <use xlink:href="#DejaVuSans-53"/>
      <use x="63.476562" xlink:href="#DejaVuSans-75"/>
      <use x="126.855469" xlink:href="#DejaVuSans-63"/>
      <use x="181.835938" xlink:href="#DejaVuSans-63"/>
      <use x="236.816406" xlink:href="#DejaVuSans-65"/>
      <use x="298.339844" xlink:href="#DejaVuSans-73"/>
      <use x="350.439453" xlink:href="#DejaVuSans-73"/>
      <use x="402.539062" xlink:href="#DejaVuSans-66"/>
      <use x="437.744141" xlink:href="#DejaVuSans-75"/>
      <use x="501.123047" xlink:href="#DejaVuSans-6c"/>
      <use x="528.90625" xlink:href="#DejaVuSans-20"/>
      <use x="560.693359" xlink:href="#DejaVuSans-64"/>
      <use x="624.169922" xlink:href="#DejaVuSans-6f"/>
      <use x="685.351562" xlink:href="#DejaVuSans-77"/>
      <use x="767.138672" xlink:href="#DejaVuSans-6e"/>
      <use x="830.517578" xlink:href="#DejaVuSans-6c"/>
      <use x="858.300781" xlink:href="#DejaVuSans-6f"/>
      <use x="919.482422" xlink:href="#DejaVuSans-61"/>
      <use x="980.761719" xlink:href="#DejaVuSans-64"/>
      <use x="1044.238281" xlink:href="#DejaVuSans-20"/>
      <use x="1076.025391" xlink:href="#DejaVuSans-72"/>
      <use x="1117.107422" xlink:href="#DejaVuSans-65"/>
      <use x="1178.630859" xlink:href="#DejaVuSans-71"/>
      <use x="1242.107422" xlink:href="#DejaVuSans-75"/>
      <use x="1305.486328" xlink:href="#DejaVuSans-65"/>
      <use x="1367.009766" xlink:href="#DejaVuSans-73"/>
      <use x="1419.109375" xlink:href="#DejaVuSans-74"/>
      <use x="1458.318359" xlink:href="#DejaVuSans-73"/>
      <use x="1510.417969" xlink:href="#DejaVuSans-20"/>
      <use x="1542.205078" xlink:href="#DejaVuSans-70"/>
      <use x="1605.681641" xlink:href="#DejaVuSans-65"/>
      <use x="1667.205078" xlink:href="#DejaVuSans-72"/>
      <use x="1708.318359" xlink:href="#DejaVuSans-20"/>
      <use x="1740.105469" xlink:href="#DejaVuSans-73"/>
      <use x="1792.205078" xlink:href="#DejaVuSans-65"/>
      <use x="1853.728516" xlink:href="#DejaVuSans-63"/>
      <use x="1908.708984" xlink:href="#DejaVuSans-6f"/>
      <use x="1969.890625" xlink:href="#DejaVuSans-6e"/>
      <use x="2033.269531" xlink:href="#DejaVuSans-64"/>
     </g>
    </g>
   </g>
   <g id="line2d_25">
    <path clip-path="url(#p48513e2eb2)" d="M 57.6 295.460452 
L 57.95712 295.488 
L 59.74272 291.368692 
L 60.09984 290.65158 
L 60.45696 289.538463 
L 60.81408 288.891082 
L 61.52832 287.240776 
L 61.88544 286.507307 
L 62.24256 285.192744 
L 62.59968 284.510928 
L 63.31392 282.536932 
L 63.67104 281.939481 
L 65.09952 278.405572 
L 65.45664 277.456883 
L 65.81376 276.84738 
L 66.17088 276.985121 
L 66.88512 275.137674 
L 67.24224 273.070703 
L 67.59936 272.51027 
L 67.95648 272.624767 
L 68.3136 271.838784 
L 68.67072 270.59137 
L 69.02784 270.488926 
L 69.38496 268.260109 
L 70.45632 266.820719 
L 70.81344 265.751507 
L 71.52768 262.821074 
L 71.8848 262.821074 
L 72.24192 261.625312 
L 72.59904 261.925759 
L 72.95616 259.637542 
L 73.31328 258.700044 
L 73.6704 259.353452 
L 74.02752 259.396496 
L 75.09888 256.658899 
L 75.456 253.821441 
L 75.81312 253.703501 
L 76.17024 252.783221 
L 76.88448 249.872588 
L 77.2416 251.057158 
L 77.59872 248.358301 
L 77.95584 248.473659 
L 78.31296 248.721592 
L 78.67008 247.976071 
L 79.0272 247.98468 
L 79.38432 246.164781 
L 79.74144 245.607792 
L 80.09856 245.568191 
L 80.45568 242.927014 
L 80.8128 241.84661 
L 81.16992 240.018102 
L 81.52704 240.852294 
L 81.88416 240.754154 
L 82.24128 237.289115 
L 82.5984 238.424615 
L 82.95552 236.689943 
L 83.31264 238.627782 
L 83.66976 234.896731 
L 84.02688 234.001417 
L 84.384 234.913088 
L 84.74112 233.600247 
L 85.09824 231.568572 
L 85.45536 230.280696 
L 85.81248 230.134347 
L 86.1696 231.620225 
L 86.52672 229.029839 
L 86.88384 228.925672 
L 87.24096 227.218549 
L 87.59808 227.545683 
L 87.9552 225.48732 
L 88.31232 224.31222 
L 88.66944 225.744723 
L 89.02656 224.16501 
L 89.38368 224.66432 
L 89.7408 223.019179 
L 90.45504 218.357518 
L 90.81216 219.477522 
L 91.16928 217.030903 
L 91.5264 218.483206 
L 91.88352 215.18776 
L 92.24064 214.010077 
L 92.59776 216.167441 
L 92.95488 216.459279 
L 93.66912 212.916761 
L 94.02624 209.46033 
L 94.38336 210.818798 
L 94.74048 212.909013 
L 95.0976 211.467901 
L 95.45472 205.198117 
L 95.81184 207.653345 
L 96.16896 208.386814 
L 96.52608 208.373901 
L 96.8832 206.021978 
L 97.24032 204.793504 
L 97.59744 200.743066 
L 97.95456 202.300397 
L 98.6688 199.839143 
L 99.02592 201.936245 
L 99.38304 197.216905 
L 100.09728 199.295067 
L 100.4544 200.077607 
L 100.81152 196.034917 
L 101.16864 198.217246 
L 101.52576 198.47551 
L 101.88288 197.896138 
L 102.24 193.133754 
L 102.59712 197.587083 
L 102.95424 195.958299 
L 103.31136 197.10499 
L 103.66848 195.403032 
L 104.0256 196.676273 
L 104.38272 191.556623 
L 104.73984 193.399766 
L 105.09696 189.673019 
L 105.45408 194.444873 
L 105.8112 188.472954 
L 106.16832 189.710898 
L 106.88256 193.515124 
L 107.23968 188.990342 
L 107.5968 192.157517 
L 107.95392 192.887543 
L 108.31104 186.185597 
L 108.66816 190.650978 
L 109.02528 189.613619 
L 109.3824 185.868794 
L 109.73952 185.976404 
L 110.09664 183.541837 
L 110.45376 188.084697 
L 110.81088 187.184217 
L 111.168 189.185762 
L 111.52512 188.97829 
L 111.88224 187.768754 
L 112.23936 182.852273 
L 112.59648 183.618455 
L 112.9536 187.557839 
L 113.31072 182.900482 
L 113.66784 186.206258 
L 114.38208 182.223831 
L 114.7392 182.01808 
L 115.09632 184.802164 
L 115.45344 184.137565 
L 115.81056 179.732446 
L 116.16768 183.669247 
L 116.5248 184.993279 
L 116.88192 182.372763 
L 117.23904 182.175621 
L 117.59616 179.162544 
L 117.95328 178.751043 
L 118.3104 175.963516 
L 118.66752 175.724192 
L 119.02464 178.18028 
L 119.38176 179.250353 
L 119.73888 178.3361 
L 120.096 175.405666 
L 120.45312 174.183218 
L 120.81024 175.083698 
L 121.16736 177.668057 
L 121.52448 178.543572 
L 121.8816 174.786694 
L 122.23872 175.656182 
L 122.59584 179.578348 
L 122.95296 174.838347 
L 123.31008 174.605049 
L 123.6672 171.794278 
L 124.02432 174.76345 
L 124.38144 175.378118 
L 124.73856 173.673577 
L 125.09568 178.571981 
L 125.4528 172.512251 
L 125.80992 175.08628 
L 126.16704 171.208019 
L 126.52416 171.337151 
L 126.88128 172.986596 
L 127.2384 175.923916 
L 127.59552 174.422542 
L 127.95264 171.129679 
L 128.30976 170.857641 
L 128.66688 167.492464 
L 129.024 169.393285 
L 129.38112 174.874504 
L 130.09536 170.128476 
L 130.45248 166.517088 
L 130.8096 166.811508 
L 131.16672 168.510023 
L 131.52384 171.4835 
L 131.88096 168.394665 
L 132.23808 172.010358 
L 132.5952 166.975936 
L 133.30944 170.464219 
L 133.66656 168.493666 
L 134.02368 165.632965 
L 134.3808 172.318553 
L 134.73792 171.634154 
L 135.09504 164.66878 
L 135.45216 166.230415 
L 135.80928 165.008827 
L 136.1664 171.184775 
L 136.52352 168.83974 
L 136.88064 163.595263 
L 137.23776 169.326137 
L 137.59488 168.904306 
L 137.952 160.574438 
L 138.30912 168.21302 
L 138.66624 161.78139 
L 139.02336 161.902774 
L 139.38048 166.719394 
L 139.7376 160.176711 
L 140.45184 162.08442 
L 141.16608 167.68444 
L 141.5232 162.795506 
L 141.88032 164.175496 
L 142.23744 164.939957 
L 142.59456 157.979747 
L 142.95168 157.520899 
L 143.3088 157.803267 
L 143.66592 158.890558 
L 144.02304 160.748335 
L 144.38016 164.617127 
L 144.73728 163.473879 
L 145.0944 159.560322 
L 145.45152 161.309629 
L 145.80864 160.416036 
L 146.16576 164.126426 
L 146.52288 163.277599 
L 146.88 156.991458 
L 147.23712 163.794987 
L 147.59424 160.78191 
L 147.95136 159.946857 
L 148.30848 161.151227 
L 148.6656 155.397109 
L 149.02272 155.617495 
L 149.37984 162.334075 
L 149.73696 154.29174 
L 150.09408 156.55241 
L 150.4512 154.084269 
L 150.80832 158.297412 
L 151.16544 159.788455 
L 151.52256 153.896597 
L 151.87968 151.423291 
L 152.2368 158.974063 
L 152.59392 153.423974 
L 152.95104 151.800356 
L 153.30816 160.311869 
L 153.66528 160.150885 
L 154.0224 152.345292 
L 154.37952 150.519367 
L 154.73664 149.91503 
L 155.09376 158.124375 
L 155.45088 152.368536 
L 155.808 157.941008 
L 156.16512 156.416391 
L 156.52224 150.925702 
L 156.87936 156.411225 
L 157.5936 149.658488 
L 158.30784 155.546042 
L 158.66496 150.775909 
L 159.02208 148.287968 
L 159.73632 151.020399 
L 160.09344 149.578426 
L 160.45056 146.846856 
L 161.1648 153.754552 
L 161.52192 153.49801 
L 161.87904 147.347027 
L 162.23616 153.453244 
L 162.59328 148.052948 
L 162.9504 154.679997 
L 163.30752 144.160052 
L 163.66464 147.620787 
L 164.02176 144.484603 
L 164.37888 146.940692 
L 164.736 152.620774 
L 165.09312 152.85235 
L 165.45024 144.968417 
L 165.80736 149.477703 
L 166.16448 145.299856 
L 166.5216 144.911599 
L 166.87872 150.242164 
L 167.23584 147.14472 
L 167.59296 152.168812 
L 167.95008 142.458093 
L 168.3072 150.556385 
L 168.66432 142.396971 
L 169.02144 141.126313 
L 169.37856 149.377841 
L 169.73568 150.200842 
L 170.44992 142.096524 
L 170.80704 148.356838 
L 171.16416 145.100993 
L 171.52128 143.124414 
L 171.8784 139.250457 
L 172.23552 146.457739 
L 172.59264 147.635422 
L 172.94976 141.753894 
L 173.30688 142.997004 
L 173.664 146.072065 
L 174.02112 142.421936 
L 174.37824 143.095144 
L 174.73536 146.484426 
L 175.09248 137.233417 
L 175.4496 141.707407 
L 175.80672 141.828791 
L 176.16384 138.162306 
L 176.52096 146.215832 
L 176.87808 139.275423 
L 177.2352 137.288513 
L 177.59232 138.487718 
L 177.94944 144.222896 
L 178.30656 144.838425 
L 178.66368 144.37355 
L 179.0208 143.028856 
L 179.37792 143.907814 
L 179.73504 139.143708 
L 180.09216 138.265611 
L 180.44928 142.682783 
L 180.8064 140.127693 
L 181.16352 145.070862 
L 181.52064 139.521634 
L 181.87776 135.839653 
L 182.23488 135.91455 
L 182.592 137.487376 
L 182.94912 137.143025 
L 183.30624 136.318302 
L 183.66336 141.978584 
L 184.02048 132.599304 
L 184.3776 143.622863 
L 184.73472 132.374614 
L 185.09184 140.811231 
L 185.44896 132.267004 
L 185.80608 140.043327 
L 186.1632 140.559855 
L 186.52032 133.989624 
L 186.87744 139.666262 
L 187.23456 141.322594 
L 187.59168 135.394579 
L 187.9488 133.102057 
L 188.30592 141.224453 
L 188.66304 136.501669 
L 189.02016 136.779733 
L 189.37728 134.271992 
L 189.7344 136.757351 
L 190.09152 135.005461 
L 190.44864 135.017514 
L 190.80576 137.900598 
L 191.16288 135.81727 
L 191.52 130.113084 
L 191.87712 130.33433 
L 192.59136 139.440711 
L 192.94848 139.025768 
L 193.3056 130.192285 
L 193.66272 135.749261 
L 194.01984 134.124782 
L 194.37696 127.854137 
L 194.73408 128.009095 
L 195.0912 131.691076 
L 195.44832 132.255813 
L 195.80544 131.871 
L 196.16256 126.81936 
L 196.51968 135.046783 
L 196.8768 133.710699 
L 197.23392 136.636828 
L 197.59104 133.987041 
L 197.94816 136.692785 
L 198.30528 129.486364 
L 198.6624 135.756148 
L 199.01952 132.773201 
L 199.37664 127.957442 
L 200.09088 132.205882 
L 200.448 131.017007 
L 200.80512 133.626333 
L 201.16224 129.636157 
L 201.51936 131.537839 
L 202.2336 123.350877 
L 202.59072 124.890129 
L 202.94784 134.91593 
L 203.30496 124.808346 
L 203.66208 125.102766 
L 204.0192 130.218972 
L 204.37632 133.176093 
L 204.73344 133.444687 
L 205.09056 132.555399 
L 205.44768 128.792495 
L 205.8048 127.151659 
L 206.16192 124.272018 
L 206.51904 122.89375 
L 206.87616 124.175599 
L 207.23328 128.149418 
L 207.5904 128.371525 
L 207.94752 132.493415 
L 208.30464 129.383919 
L 208.66176 120.895649 
L 209.01888 131.080712 
L 209.376 125.98689 
L 209.73312 130.116528 
L 210.09024 121.772885 
L 210.80448 128.301794 
L 211.1616 123.433521 
L 211.51872 130.624446 
L 211.87584 127.687987 
L 212.23296 128.578997 
L 212.59008 125.088992 
L 213.30432 129.166978 
L 213.66144 129.614635 
L 214.01856 127.701761 
L 214.7328 122.22829 
L 215.08992 124.202287 
L 215.44704 119.595722 
L 215.80416 119.174752 
L 216.16128 125.310238 
L 216.5184 119.286666 
L 217.23264 127.085372 
L 217.58976 120.216415 
L 217.94688 126.332963 
L 218.304 117.191286 
L 218.66112 119.372754 
L 219.01824 116.295971 
L 219.37536 124.243609 
L 219.73248 118.618623 
L 220.0896 117.119833 
L 220.44672 125.382552 
L 220.80384 120.215555 
L 221.16096 123.650463 
L 221.51808 121.580909 
L 221.8752 124.424394 
L 222.23232 119.599165 
L 222.94656 125.952454 
L 223.30368 122.791306 
L 223.6608 126.098804 
L 224.01792 113.650489 
L 224.37504 124.171295 
L 224.73216 120.73036 
L 225.08928 113.4852 
L 225.4464 117.22486 
L 225.80352 112.704383 
L 226.16064 124.222948 
L 226.51776 124.364132 
L 226.87488 119.915969 
L 227.232 113.178727 
L 227.58912 123.098639 
L 228.30336 111.886547 
L 228.66048 116.161674 
L 229.0176 114.732614 
L 229.37472 112.367779 
L 229.73184 113.114161 
L 230.08896 115.225037 
L 230.44608 110.932693 
L 230.8032 120.75963 
L 231.16032 121.42509 
L 231.51744 111.293401 
L 231.87456 120.622751 
L 232.23168 114.037024 
L 232.5888 112.821462 
L 232.94592 121.614483 
L 233.30304 118.388769 
L 233.66016 118.77186 
L 234.01728 115.474692 
L 234.3744 115.581441 
L 234.73152 113.904448 
L 235.08864 118.159775 
L 235.44576 112.737957 
L 235.80288 115.08041 
L 236.16 116.636879 
L 236.51712 114.113642 
L 236.87424 109.397745 
L 237.23136 110.229355 
L 237.58848 118.495518 
L 237.9456 120.036492 
L 238.30272 118.658224 
L 238.65984 119.117933 
L 239.01696 114.731753 
L 239.37408 115.666668 
L 239.7312 107.319583 
L 240.08832 117.063875 
L 240.44544 108.18821 
L 241.15968 111.122947 
L 241.5168 114.031859 
L 241.87392 107.379844 
L 242.23104 110.385174 
L 242.58816 107.430636 
L 242.94528 116.944213 
L 243.3024 109.928908 
L 243.65952 114.377071 
L 244.01664 108.701294 
L 244.37376 108.803738 
L 244.73088 116.090221 
L 245.088 112.577833 
L 245.44512 114.241052 
L 245.80224 104.490733 
L 246.15936 110.425635 
L 246.51648 111.190957 
L 246.8736 113.627245 
L 247.23072 109.965065 
L 247.58784 117.096589 
L 247.94496 106.430294 
L 248.30208 104.200617 
L 249.01632 107.560629 
L 249.37344 115.949037 
L 249.73056 104.310809 
L 250.08768 114.593152 
L 250.4448 107.941998 
L 250.80192 104.687014 
L 251.15904 104.754162 
L 251.51616 108.586797 
L 251.87328 115.660642 
L 252.2304 115.165637 
L 252.94464 106.85729 
L 253.30176 108.360386 
L 253.65888 104.20406 
L 254.016 102.417736 
L 254.37312 108.321646 
L 254.73024 105.387769 
L 255.08736 109.593165 
L 255.44448 105.424787 
L 255.8016 103.703029 
L 256.15872 103.446486 
L 256.51584 103.808056 
L 257.23008 111.306315 
L 257.94432 101.684267 
L 258.30144 111.863304 
L 258.65856 111.766024 
L 259.01568 100.183754 
L 259.3728 105.086462 
L 259.72992 103.1073 
L 260.08704 101.91326 
L 260.44416 104.118833 
L 260.80128 105.082157 
L 261.1584 104.552716 
L 261.51552 101.585265 
L 261.87264 103.561844 
L 262.22976 110.47901 
L 262.58688 111.563718 
L 262.944 105.955089 
L 263.30112 106.273614 
L 263.65824 110.208693 
L 264.01536 104.171347 
L 264.37248 102.331648 
L 264.7296 107.834388 
L 265.08672 108.240723 
L 265.44384 105.787217 
L 265.80096 104.824754 
L 266.15808 103.232988 
L 266.5152 106.337319 
L 267.22944 96.739376 
L 267.58656 97.927389 
L 267.94368 97.280008 
L 268.3008 100.139849 
L 268.65792 106.524991 
L 269.01504 100.083892 
L 269.37216 105.986941 
L 269.72928 100.282755 
L 270.0864 106.658427 
L 270.44352 107.015692 
L 271.15776 100.572871 
L 271.51488 103.213188 
L 271.872 97.784483 
L 272.22912 105.610737 
L 272.58624 95.188071 
L 272.94336 96.221126 
L 273.30048 94.35474 
L 273.6576 107.014831 
L 274.01472 100.265537 
L 274.37184 106.183222 
L 274.72896 95.09854 
L 275.08608 104.086981 
L 275.4432 94.70684 
L 275.80032 98.049634 
L 276.15744 96.178082 
L 276.51456 103.497278 
L 276.87168 105.927541 
L 277.2288 94.654326 
L 277.58592 98.721981 
L 277.94304 97.174981 
L 278.30016 92.642451 
L 278.65728 99.431345 
L 279.0144 94.037936 
L 279.37152 105.283603 
L 279.72864 94.808423 
L 280.08576 95.316342 
L 280.44288 104.678405 
L 280.8 99.173082 
L 281.15712 104.662909 
L 281.51424 94.156738 
L 281.87136 91.62317 
L 282.22848 92.362665 
L 282.5856 96.194439 
L 282.94272 96.766063 
L 283.29984 101.109199 
L 283.65696 92.379883 
L 284.01408 102.866254 
L 284.3712 96.23404 
L 284.72832 95.466135 
L 285.08544 90.554819 
L 285.44256 92.874889 
L 285.79968 97.727665 
L 286.1568 90.061535 
L 286.51392 94.383149 
L 286.87104 102.605407 
L 287.22816 93.553261 
L 287.58528 95.378326 
L 287.9424 95.014174 
L 288.29952 92.343726 
L 289.37088 89.575999 
L 290.08512 90.42913 
L 290.44224 99.966812 
L 290.79936 97.464236 
L 291.15648 89.885916 
L 291.5136 101.409646 
L 291.87072 90.46787 
L 292.58496 101.924452 
L 292.94208 94.561351 
L 293.2992 101.894321 
L 293.65632 91.493177 
L 294.01344 95.566858 
L 294.37056 90.177754 
L 294.72768 93.552401 
L 295.0848 89.975447 
L 295.44192 90.784674 
L 295.79904 87.027796 
L 296.15616 96.801359 
L 296.51328 91.748858 
L 296.8704 98.667745 
L 297.22752 88.268323 
L 297.58464 100.068396 
L 297.94176 94.419306 
L 298.656 97.958381 
L 299.01312 97.03724 
L 299.37024 100.044291 
L 299.72736 90.626272 
L 300.08448 90.188084 
L 300.4416 98.833895 
L 300.79872 99.021567 
L 301.15584 88.888156 
L 301.51296 88.182235 
L 301.87008 89.181716 
L 302.2272 98.696154 
L 302.58432 95.23542 
L 302.94144 84.449463 
L 303.29856 84.498533 
L 303.65568 96.75315 
L 304.0128 94.607839 
L 304.36992 94.872129 
L 304.72704 96.952874 
L 305.08416 97.084588 
L 305.44128 94.817032 
L 305.7984 87.729413 
L 306.15552 83.544679 
L 306.86976 90.623689 
L 307.22688 87.988538 
L 307.584 84.394366 
L 307.94112 89.354753 
L 308.29824 87.194807 
L 308.65536 83.205492 
L 309.01248 90.016769 
L 309.3696 92.577024 
L 309.72672 85.180349 
L 310.08384 95.980941 
L 310.44096 96.011933 
L 310.79808 89.432232 
L 311.1552 89.054306 
L 311.51232 93.352677 
L 311.86944 94.662074 
L 312.58368 84.557073 
L 312.9408 90.612498 
L 313.29792 84.53469 
L 313.65504 83.762481 
L 314.01216 94.143825 
L 314.36928 89.630234 
L 314.7264 82.453084 
L 315.08352 82.25336 
L 315.79776 89.404684 
L 316.15488 87.998007 
L 316.512 83.665202 
L 316.86912 94.621613 
L 317.22624 83.571366 
L 317.58336 82.083766 
L 317.94048 91.00678 
L 318.2976 92.027783 
L 318.65472 80.544514 
L 319.01184 85.194123 
L 319.36896 85.453248 
L 319.72608 87.128519 
L 320.0832 87.145737 
L 320.44032 87.453071 
L 320.79744 84.452906 
L 321.15456 85.583241 
L 321.51168 86.332206 
L 321.8688 84.503698 
L 322.58304 88.189983 
L 322.94016 91.098895 
L 323.29728 78.305367 
L 323.6544 92.656225 
L 324.36864 78.887321 
L 324.72576 77.646794 
L 325.08288 85.741643 
L 325.44 79.856672 
L 325.79712 82.620955 
L 326.15424 83.852873 
L 326.86848 80.327573 
L 327.2256 87.29553 
L 327.58272 83.979423 
L 327.93984 78.951887 
L 328.29696 79.186047 
L 328.65408 86.768672 
L 329.0112 78.361324 
L 329.36832 77.022657 
L 329.72544 88.935505 
L 330.08256 83.171918 
L 330.43968 80.986145 
L 330.7968 83.66348 
L 331.15392 88.83306 
L 331.51104 88.626449 
L 331.86816 82.308456 
L 332.22528 85.133001 
L 332.5824 76.500103 
L 332.93952 84.964269 
L 333.29664 88.258854 
L 333.65376 75.817426 
L 334.01088 78.894208 
L 334.368 87.763848 
L 334.72512 82.820679 
L 335.08224 88.375933 
L 335.43936 85.232863 
L 335.79648 78.198618 
L 336.1536 80.772647 
L 336.51072 77.777648 
L 336.86784 89.153307 
L 337.22496 83.058282 
L 337.9392 78.525752 
L 338.29632 84.322913 
L 338.65344 79.495963 
L 339.36768 88.670354 
L 339.7248 80.213076 
L 340.08192 75.875966 
L 340.79616 79.196377 
L 341.15328 78.61184 
L 341.5104 83.447399 
L 341.86752 76.987361 
L 342.22464 87.063953 
L 342.58176 74.089641 
L 342.93888 74.522663 
L 343.65312 85.287098 
L 344.01024 74.206721 
L 344.36736 76.040394 
L 344.72448 72.307621 
L 345.0816 78.328611 
L 345.43872 74.34274 
L 345.79584 81.897816 
L 346.15296 83.551566 
L 346.51008 81.769545 
L 346.8672 75.775243 
L 347.22432 82.178463 
L 347.58144 85.540197 
L 347.93856 74.865293 
L 348.29568 78.480126 
L 348.6528 78.084121 
L 349.00992 82.620955 
L 349.36704 71.420054 
L 349.72416 71.432107 
L 350.08128 81.546578 
L 350.4384 71.154903 
L 351.15264 80.423991 
L 351.50976 77.394557 
L 351.86688 80.298303 
L 352.224 70.075361 
L 352.58112 77.267147 
L 352.93824 72.563302 
L 353.29536 72.386822 
L 353.65248 78.349272 
L 354.0096 73.147839 
L 354.36672 81.201365 
L 354.72384 68.941583 
L 355.43808 73.097047 
L 355.7952 82.918819 
L 356.15232 77.643351 
L 356.50944 75.043495 
L 356.86656 69.057801 
L 357.22368 72.059688 
L 357.5808 82.206011 
L 357.93792 79.717209 
L 358.65216 71.916782 
L 359.00928 72.18968 
L 359.3664 68.219305 
L 359.72352 81.948608 
L 360.08064 73.604105 
L 360.43776 68.732389 
L 360.79488 69.293682 
L 361.50912 81.528499 
L 361.86624 74.532133 
L 362.22336 71.113581 
L 362.58048 79.361666 
L 362.9376 68.078982 
L 363.29472 79.357362 
L 363.65184 68.773711 
L 364.00896 75.907818 
L 364.36608 69.309178 
L 364.7232 77.497862 
L 365.08032 72.538337 
L 365.43744 75.461883 
L 365.79456 77.048483 
L 366.15168 75.714981 
L 366.5088 69.891133 
L 366.86592 71.559517 
L 367.22304 72.258551 
L 367.58016 67.461731 
L 367.93728 75.454996 
L 368.2944 79.507155 
L 368.65152 73.072943 
L 369.00864 69.224812 
L 369.36576 69.488241 
L 369.72288 74.501141 
L 370.08 69.206734 
L 370.43712 76.933125 
L 370.79424 79.619069 
L 371.15136 66.6086 
L 371.50848 77.234433 
L 371.8656 75.066739 
L 372.22272 69.093098 
L 372.57984 66.676609 
L 372.93696 74.718083 
L 373.6512 65.32589 
L 374.00832 67.692447 
L 374.36544 76.593939 
L 374.72256 70.165753 
L 375.07968 76.630957 
L 375.4368 78.843417 
L 375.79392 67.953293 
L 376.15104 78.18054 
L 376.50816 71.544882 
L 376.86528 73.82449 
L 377.2224 69.307456 
L 377.93664 77.748378 
L 378.29376 70.658176 
L 378.65088 71.519055 
L 379.008 78.406951 
L 379.36512 70.11324 
L 379.72224 68.336385 
L 380.07936 67.378226 
L 380.43648 68.125469 
L 380.7936 73.270945 
L 381.15072 71.263374 
L 381.50784 65.870826 
L 381.86496 72.122532 
L 382.22208 75.207062 
L 382.5792 65.257019 
L 382.93632 65.940557 
L 383.29344 74.703448 
L 383.65056 64.742213 
L 384.00768 62.791461 
L 384.3648 66.440728 
L 384.72192 62.447109 
L 385.07904 63.873586 
L 385.43616 61.475176 
L 385.79328 75.442082 
L 386.1504 75.75286 
L 386.50752 70.055561 
L 386.86464 70.827769 
L 387.22176 61.075728 
L 387.57888 62.308508 
L 387.936 65.609119 
L 388.29312 62.42817 
L 388.65024 64.639769 
L 389.00736 70.37839 
L 389.36448 64.679369 
L 389.7216 62.453996 
L 390.07872 68.415586 
L 390.43584 70.882866 
L 390.79296 65.407673 
L 391.15008 66.033532 
L 391.5072 73.317432 
L 391.86432 74.843771 
L 392.22144 71.821224 
L 392.57856 60.420599 
L 392.93568 70.489444 
L 393.2928 62.67266 
L 393.64992 63.317458 
L 394.00704 62.348108 
L 394.36416 60.180414 
L 394.72128 72.200011 
L 395.0784 68.385455 
L 395.43552 69.217064 
L 395.79264 60.446426 
L 396.14976 69.632869 
L 396.50688 68.281288 
L 396.864 58.76685 
L 397.22112 63.120317 
L 397.57824 58.558517 
L 397.93536 67.260285 
L 398.29248 69.433145 
L 398.6496 58.915782 
L 399.00672 72.361856 
L 399.36384 61.82125 
L 399.72096 68.314002 
L 400.07808 60.443843 
L 400.4352 60.642706 
L 401.14944 56.900464 
L 401.50656 72.360135 
L 401.86368 73.252005 
L 402.2208 58.80559 
L 402.57792 64.746518 
L 402.93504 58.919226 
L 403.29216 63.97517 
L 403.64928 56.815237 
L 404.0064 59.049219 
L 404.72064 69.714652 
L 405.07776 62.581406 
L 405.43488 69.872193 
L 405.792 63.828821 
L 406.14912 60.15717 
L 406.50624 71.348601 
L 406.86336 63.37772 
L 407.22048 64.323826 
L 407.5776 71.986513 
L 407.93472 63.567974 
L 408.29184 58.538717 
L 408.64896 61.005136 
L 409.00608 61.918529 
L 409.3632 60.00996 
L 409.72032 62.68299 
L 410.07744 64.342765 
L 410.43456 55.834695 
L 410.79168 56.512207 
L 411.1488 56.562999 
L 411.50592 68.827947 
L 411.86304 62.495318 
L 412.22016 58.515473 
L 412.57728 58.008415 
L 412.9344 58.858103 
L 413.29152 62.847418 
L 413.64864 55.21314 
L 414.00576 66.641313 
L 414.36288 67.224129 
L 414.72 53.568 
L 414.72 53.568 
" style="fill:none;stroke:#000080;stroke-linecap:square;stroke-width:0.5;"/>
   </g>
   <g id="patch_3">
    <path d="M 57.6 307.584 
L 57.6 41.472 
" style="fill:none;stroke:#000000;stroke-linecap:square;stroke-linejoin:miter;stroke-width:0.8;"/>
   </g>
   <g id="patch_4">
    <path d="M 414.72 307.584 
L 414.72 41.472 
" style="fill:none;stroke:#000000;stroke-linecap:square;stroke-linejoin:miter;stroke-width:0.8;"/>
   </g>
   <g id="patch_5">
    <path d="M 57.6 307.584 
L 414.72 307.584 
" style="fill:none;stroke:#000000;stroke-linecap:square;stroke-linejoin:miter;stroke-width:0.8;"/>
   </g>
   <g id="patch_6">
    <path d="M 57.6 41.472 
L 414.72 41.472 
" style="fill:none;stroke:#000000;stroke-linecap:square;stroke-linejoin:miter;stroke-width:0.8;"/>
   </g>
   <g id="text_15">
    <!-- Test -->
    <defs>
     <path d="M -0.296875 72.90625 
L 61.375 72.90625 
L 61.375 64.59375 
L 35.5 64.59375 
L 35.5 0 
L 25.59375 0 
L 25.59375 64.59375 
L -0.296875 64.59375 
z
" id="DejaVuSans-54"/>
    </defs>
    <g transform="translate(223.341563 35.472)scale(0.12 -0.12)">
     <use xlink:href="#DejaVuSans-54"/>
     <use x="60.818359" xlink:href="#DejaVuSans-65"/>
     <use x="122.341797" xlink:href="#DejaVuSans-73"/>
     <use x="174.441406" xlink:href="#DejaVuSans-74"/>
    </g>
   </g>
   <g id="legend_1">
    <g id="patch_7">
     <path d="M 64.6 64.150125 
L 306.276563 64.150125 
Q 308.276563 64.150125 308.276563 62.150125 
L 308.276563 48.472 
Q 308.276563 46.472 306.276563 46.472 
L 64.6 46.472 
Q 62.6 46.472 62.6 48.472 
L 62.6 62.150125 
Q 62.6 64.150125 64.6 64.150125 
z
" style="fill:#ffffff;opacity:0.8;stroke:#cccccc;stroke-linejoin:miter;"/>
    </g>
    <g id="line2d_26">
     <path d="M 66.6 54.570438 
L 86.6 54.570438 
" style="fill:none;stroke:#000080;stroke-linecap:square;stroke-width:0.5;"/>
    </g>
    <g id="line2d_27"/>
    <g id="text_16">
     <!-- Successful download requests per second -->
     <g transform="translate(94.6 58.070438)scale(0.1 -0.1)">
      <use xlink:href="#DejaVuSans-53"/>
      <use x="63.476562" xlink:href="#DejaVuSans-75"/>
      <use x="126.855469" xlink:href="#DejaVuSans-63"/>
      <use x="181.835938" xlink:href="#DejaVuSans-63"/>
      <use x="236.816406" xlink:href="#DejaVuSans-65"/>
      <use x="298.339844" xlink:href="#DejaVuSans-73"/>
      <use x="350.439453" xlink:href="#DejaVuSans-73"/>
      <use x="402.539062" xlink:href="#DejaVuSans-66"/>
      <use x="437.744141" xlink:href="#DejaVuSans-75"/>
      <use x="501.123047" xlink:href="#DejaVuSans-6c"/>
      <use x="528.90625" xlink:href="#DejaVuSans-20"/>
      <use x="560.693359" xlink:href="#DejaVuSans-64"/>
      <use x="624.169922" xlink:href="#DejaVuSans-6f"/>
      <use x="685.351562" xlink:href="#DejaVuSans-77"/>
      <use x="767.138672" xlink:href="#DejaVuSans-6e"/>
      <use x="830.517578" xlink:href="#DejaVuSans-6c"/>
      <use x="858.300781" xlink:href="#DejaVuSans-6f"/>
      <use x="919.482422" xlink:href="#DejaVuSans-61"/>
      <use x="980.761719" xlink:href="#DejaVuSans-64"/>
      <use x="1044.238281" xlink:href="#DejaVuSans-20"/>
      <use x="1076.025391" xlink:href="#DejaVuSans-72"/>
      <use x="1117.107422" xlink:href="#DejaVuSans-65"/>
      <use x="1178.630859" xlink:href="#DejaVuSans-71"/>
      <use x="1242.107422" xlink:href="#DejaVuSans-75"/>
      <use x="1305.486328" xlink:href="#DejaVuSans-65"/>
      <use x="1367.009766" xlink:href="#DejaVuSans-73"/>
      <use x="1419.109375" xlink:href="#DejaVuSans-74"/>
      <use x="1458.318359" xlink:href="#DejaVuSans-73"/>
      <use x="1510.417969" xlink:href="#DejaVuSans-20"/>
      <use x="1542.205078" xlink:href="#DejaVuSans-70"/>
      <use x="1605.681641" xlink:href="#DejaVuSans-65"/>
      <use x="1667.205078" xlink:href="#DejaVuSans-72"/>
      <use x="1708.318359" xlink:href="#DejaVuSans-20"/>
      <use x="1740.105469" xlink:href="#DejaVuSans-73"/>
      <use x="1792.205078" xlink:href="#DejaVuSans-65"/>
      <use x="1853.728516" xlink:href="#DejaVuSans-63"/>
      <use x="1908.708984" xlink:href="#DejaVuSans-6f"/>
      <use x="1969.890625" xlink:href="#DejaVuSans-6e"/>
      <use x="2033.269531" xlink:href="#DejaVuSans-64"/>
     </g>
    </g>
   </g>
  </g>
 </g>
 <defs>
  <clipPath id="p48513e2eb2">
   <rect height="266.112" width="357.12" x="57.6" y="41.472"/>
  </clipPath>
 </defs>
</svg>
