<?xml version="1.0" encoding="utf-8" standalone="no"?>
<!DOCTYPE svg PUBLIC "-//W3C//DTD SVG 1.1//EN"
  "http://www.w3.org/Graphics/SVG/1.1/DTD/svg11.dtd">
<!-- Created with matplotlib (http://matplotlib.org/) -->
<svg height="345pt" version="1.1" viewBox="0 0 460 345" width="460pt" xmlns="http://www.w3.org/2000/svg" xmlns:xlink="http://www.w3.org/1999/xlink">
 <defs>
  <style type="text/css">
*{stroke-linecap:butt;stroke-linejoin:round;}
  </style>
 </defs>
 <g id="figure_1">
  <g id="patch_1">
   <path d="M 0 345.6 
L 460.8 345.6 
L 460.8 0 
L 0 0 
z
" style="fill:#ffffff;"/>
  </g>
  <g id="axes_1">
   <g id="patch_2">
    <path d="M 57.6 307.584 
L 414.72 307.584 
L 414.72 41.472 
L 57.6 41.472 
z
" style="fill:#ffffff;"/>
   </g>
   <g id="matplotlib.axis_1">
    <g id="xtick_1">
     <g id="line2d_1">
      <path clip-path="url(#p986522058b)" d="M 57.6 307.584 
L 57.6 41.472 
" style="fill:none;stroke:#b0b0b0;stroke-linecap:square;stroke-width:0.8;"/>
     </g>
     <g id="line2d_2">
      <defs>
       <path d="M 0 0 
L 0 3.5 
" id="m2e7bf98d08" style="stroke:#000000;stroke-width:0.8;"/>
      </defs>
      <g>
       <use style="stroke:#000000;stroke-width:0.8;" x="57.6" xlink:href="#m2e7bf98d08" y="307.584"/>
      </g>
     </g>
     <g id="text_1">
      <!-- 0 -->
      <defs>
       <path d="M 31.78125 66.40625 
Q 24.171875 66.40625 20.328125 58.90625 
Q 16.5 51.421875 16.5 36.375 
Q 16.5 21.390625 20.328125 13.890625 
Q 24.171875 6.390625 31.78125 6.390625 
Q 39.453125 6.390625 43.28125 13.890625 
Q 47.125 21.390625 47.125 36.375 
Q 47.125 51.421875 43.28125 58.90625 
Q 39.453125 66.40625 31.78125 66.40625 
M 31.78125 74.21875 
Q 44.046875 74.21875 50.515625 64.515625 
Q 56.984375 54.828125 56.984375 36.375 
Q 56.984375 17.96875 50.515625 8.265625 
Q 44.046875 -1.421875 31.78125 -1.421875 
Q 19.53125 -1.421875 13.0625 8.265625 
Q 6.59375 17.96875 6.59375 36.375 
Q 6.59375 54.828125 13.0625 64.515625 
Q 19.53125 74.21875 31.78125 74.21875 
" id="DejaVuSans-30"/>
      </defs>
      <g transform="translate(54.41875 322.182437)scale(0.1 -0.1)">
       <use xlink:href="#DejaVuSans-30"/>
      </g>
     </g>
    </g>
    <g id="xtick_2">
     <g id="line2d_3">
      <path clip-path="url(#p986522058b)" d="M 129.024 307.584 
L 129.024 41.472 
" style="fill:none;stroke:#b0b0b0;stroke-linecap:square;stroke-width:0.8;"/>
     </g>
     <g id="line2d_4">
      <g>
       <use style="stroke:#000000;stroke-width:0.8;" x="129.024" xlink:href="#m2e7bf98d08" y="307.584"/>
      </g>
     </g>
     <g id="text_2">
      <!-- 200 -->
      <defs>
       <path d="M 19.1875 8.296875 
L 53.609375 8.296875 
L 53.609375 0 
L 7.328125 0 
L 7.328125 8.296875 
Q 12.9375 14.109375 22.625 23.890625 
Q 32.328125 33.6875 34.8125 36.53125 
Q 39.546875 41.84375 41.421875 45.53125 
Q 43.3125 49.21875 43.3125 52.78125 
Q 43.3125 58.59375 39.234375 62.25 
Q 35.15625 65.921875 28.609375 65.921875 
Q 23.96875 65.921875 18.8125 64.3125 
Q 13.671875 62.703125 7.8125 59.421875 
L 7.8125 69.390625 
Q 13.765625 71.78125 18.9375 73 
Q 24.125 74.21875 28.421875 74.21875 
Q 39.75 74.21875 46.484375 68.546875 
Q 53.21875 62.890625 53.21875 53.421875 
Q 53.21875 48.921875 51.53125 44.890625 
Q 49.859375 40.875 45.40625 35.40625 
Q 44.1875 33.984375 37.640625 27.21875 
Q 31.109375 20.453125 19.1875 8.296875 
" id="DejaVuSans-32"/>
      </defs>
      <g transform="translate(119.48025 322.182437)scale(0.1 -0.1)">
       <use xlink:href="#DejaVuSans-32"/>
       <use x="63.623047" xlink:href="#DejaVuSans-30"/>
       <use x="127.246094" xlink:href="#DejaVuSans-30"/>
      </g>
     </g>
    </g>
    <g id="xtick_3">
     <g id="line2d_5">
      <path clip-path="url(#p986522058b)" d="M 200.448 307.584 
L 200.448 41.472 
" style="fill:none;stroke:#b0b0b0;stroke-linecap:square;stroke-width:0.8;"/>
     </g>
     <g id="line2d_6">
      <g>
       <use style="stroke:#000000;stroke-width:0.8;" x="200.448" xlink:href="#m2e7bf98d08" y="307.584"/>
      </g>
     </g>
     <g id="text_3">
      <!-- 400 -->
      <defs>
       <path d="M 37.796875 64.3125 
L 12.890625 25.390625 
L 37.796875 25.390625 
z
M 35.203125 72.90625 
L 47.609375 72.90625 
L 47.609375 25.390625 
L 58.015625 25.390625 
L 58.015625 17.1875 
L 47.609375 17.1875 
L 47.609375 0 
L 37.796875 0 
L 37.796875 17.1875 
L 4.890625 17.1875 
L 4.890625 26.703125 
z
" id="DejaVuSans-34"/>
      </defs>
      <g transform="translate(190.90425 322.182437)scale(0.1 -0.1)">
       <use xlink:href="#DejaVuSans-34"/>
       <use x="63.623047" xlink:href="#DejaVuSans-30"/>
       <use x="127.246094" xlink:href="#DejaVuSans-30"/>
      </g>
     </g>
    </g>
    <g id="xtick_4">
     <g id="line2d_7">
      <path clip-path="url(#p986522058b)" d="M 271.872 307.584 
L 271.872 41.472 
" style="fill:none;stroke:#b0b0b0;stroke-linecap:square;stroke-width:0.8;"/>
     </g>
     <g id="line2d_8">
      <g>
       <use style="stroke:#000000;stroke-width:0.8;" x="271.872" xlink:href="#m2e7bf98d08" y="307.584"/>
      </g>
     </g>
     <g id="text_4">
      <!-- 600 -->
      <defs>
       <path d="M 33.015625 40.375 
Q 26.375 40.375 22.484375 35.828125 
Q 18.609375 31.296875 18.609375 23.390625 
Q 18.609375 15.53125 22.484375 10.953125 
Q 26.375 6.390625 33.015625 6.390625 
Q 39.65625 6.390625 43.53125 10.953125 
Q 47.40625 15.53125 47.40625 23.390625 
Q 47.40625 31.296875 43.53125 35.828125 
Q 39.65625 40.375 33.015625 40.375 
M 52.59375 71.296875 
L 52.59375 62.3125 
Q 48.875 64.0625 45.09375 64.984375 
Q 41.3125 65.921875 37.59375 65.921875 
Q 27.828125 65.921875 22.671875 59.328125 
Q 17.53125 52.734375 16.796875 39.40625 
Q 19.671875 43.65625 24.015625 45.921875 
Q 28.375 48.1875 33.59375 48.1875 
Q 44.578125 48.1875 50.953125 41.515625 
Q 57.328125 34.859375 57.328125 23.390625 
Q 57.328125 12.15625 50.6875 5.359375 
Q 44.046875 -1.421875 33.015625 -1.421875 
Q 20.359375 -1.421875 13.671875 8.265625 
Q 6.984375 17.96875 6.984375 36.375 
Q 6.984375 53.65625 15.1875 63.9375 
Q 23.390625 74.21875 37.203125 74.21875 
Q 40.921875 74.21875 44.703125 73.484375 
Q 48.484375 72.75 52.59375 71.296875 
" id="DejaVuSans-36"/>
      </defs>
      <g transform="translate(262.32825 322.182437)scale(0.1 -0.1)">
       <use xlink:href="#DejaVuSans-36"/>
       <use x="63.623047" xlink:href="#DejaVuSans-30"/>
       <use x="127.246094" xlink:href="#DejaVuSans-30"/>
      </g>
     </g>
    </g>
    <g id="xtick_5">
     <g id="line2d_9">
      <path clip-path="url(#p986522058b)" d="M 343.296 307.584 
L 343.296 41.472 
" style="fill:none;stroke:#b0b0b0;stroke-linecap:square;stroke-width:0.8;"/>
     </g>
     <g id="line2d_10">
      <g>
       <use style="stroke:#000000;stroke-width:0.8;" x="343.296" xlink:href="#m2e7bf98d08" y="307.584"/>
      </g>
     </g>
     <g id="text_5">
      <!-- 800 -->
      <defs>
       <path d="M 31.78125 34.625 
Q 24.75 34.625 20.71875 30.859375 
Q 16.703125 27.09375 16.703125 20.515625 
Q 16.703125 13.921875 20.71875 10.15625 
Q 24.75 6.390625 31.78125 6.390625 
Q 38.8125 6.390625 42.859375 10.171875 
Q 46.921875 13.96875 46.921875 20.515625 
Q 46.921875 27.09375 42.890625 30.859375 
Q 38.875 34.625 31.78125 34.625 
M 21.921875 38.8125 
Q 15.578125 40.375 12.03125 44.71875 
Q 8.5 49.078125 8.5 55.328125 
Q 8.5 64.0625 14.71875 69.140625 
Q 20.953125 74.21875 31.78125 74.21875 
Q 42.671875 74.21875 48.875 69.140625 
Q 55.078125 64.0625 55.078125 55.328125 
Q 55.078125 49.078125 51.53125 44.71875 
Q 48 40.375 41.703125 38.8125 
Q 48.828125 37.15625 52.796875 32.3125 
Q 56.78125 27.484375 56.78125 20.515625 
Q 56.78125 9.90625 50.3125 4.234375 
Q 43.84375 -1.421875 31.78125 -1.421875 
Q 19.734375 -1.421875 13.25 4.234375 
Q 6.78125 9.90625 6.78125 20.515625 
Q 6.78125 27.484375 10.78125 32.3125 
Q 14.796875 37.15625 21.921875 38.8125 
M 18.3125 54.390625 
Q 18.3125 48.734375 21.84375 45.5625 
Q 25.390625 42.390625 31.78125 42.390625 
Q 38.140625 42.390625 41.71875 45.5625 
Q 45.3125 48.734375 45.3125 54.390625 
Q 45.3125 60.0625 41.71875 63.234375 
Q 38.140625 66.40625 31.78125 66.40625 
Q 25.390625 66.40625 21.84375 63.234375 
Q 18.3125 60.0625 18.3125 54.390625 
" id="DejaVuSans-38"/>
      </defs>
      <g transform="translate(333.75225 322.182437)scale(0.1 -0.1)">
       <use xlink:href="#DejaVuSans-38"/>
       <use x="63.623047" xlink:href="#DejaVuSans-30"/>
       <use x="127.246094" xlink:href="#DejaVuSans-30"/>
      </g>
     </g>
    </g>
    <g id="xtick_6">
     <g id="line2d_11">
      <path clip-path="url(#p986522058b)" d="M 414.72 307.584 
L 414.72 41.472 
" style="fill:none;stroke:#b0b0b0;stroke-linecap:square;stroke-width:0.8;"/>
     </g>
     <g id="line2d_12">
      <g>
       <use style="stroke:#000000;stroke-width:0.8;" x="414.72" xlink:href="#m2e7bf98d08" y="307.584"/>
      </g>
     </g>
     <g id="text_6">
      <!-- 1000 -->
      <defs>
       <path d="M 12.40625 8.296875 
L 28.515625 8.296875 
L 28.515625 63.921875 
L 10.984375 60.40625 
L 10.984375 69.390625 
L 28.421875 72.90625 
L 38.28125 72.90625 
L 38.28125 8.296875 
L 54.390625 8.296875 
L 54.390625 0 
L 12.40625 0 
z
" id="DejaVuSans-31"/>
      </defs>
      <g transform="translate(401.995 322.182437)scale(0.1 -0.1)">
       <use xlink:href="#DejaVuSans-31"/>
       <use x="63.623047" xlink:href="#DejaVuSans-30"/>
       <use x="127.246094" xlink:href="#DejaVuSans-30"/>
       <use x="190.869141" xlink:href="#DejaVuSans-30"/>
      </g>
     </g>
    </g>
    <g id="text_7">
     <!-- Number of clients -->
     <defs>
      <path d="M 9.8125 72.90625 
L 23.09375 72.90625 
L 55.421875 11.921875 
L 55.421875 72.90625 
L 64.984375 72.90625 
L 64.984375 0 
L 51.703125 0 
L 19.390625 60.984375 
L 19.390625 0 
L 9.8125 0 
z
" id="DejaVuSans-4e"/>
      <path d="M 8.5 21.578125 
L 8.5 54.6875 
L 17.484375 54.6875 
L 17.484375 21.921875 
Q 17.484375 14.15625 20.5 10.265625 
Q 23.53125 6.390625 29.59375 6.390625 
Q 36.859375 6.390625 41.078125 11.03125 
Q 45.3125 15.671875 45.3125 23.6875 
L 45.3125 54.6875 
L 54.296875 54.6875 
L 54.296875 0 
L 45.3125 0 
L 45.3125 8.40625 
Q 42.046875 3.421875 37.71875 1 
Q 33.40625 -1.421875 27.6875 -1.421875 
Q 18.265625 -1.421875 13.375 4.4375 
Q 8.5 10.296875 8.5 21.578125 
M 31.109375 56 
z
" id="DejaVuSans-75"/>
      <path d="M 52 44.1875 
Q 55.375 50.25 60.0625 53.125 
Q 64.75 56 71.09375 56 
Q 79.640625 56 84.28125 50.015625 
Q 88.921875 44.046875 88.921875 33.015625 
L 88.921875 0 
L 79.890625 0 
L 79.890625 32.71875 
Q 79.890625 40.578125 77.09375 44.375 
Q 74.3125 48.1875 68.609375 48.1875 
Q 61.625 48.1875 57.5625 43.546875 
Q 53.515625 38.921875 53.515625 30.90625 
L 53.515625 0 
L 44.484375 0 
L 44.484375 32.71875 
Q 44.484375 40.625 41.703125 44.40625 
Q 38.921875 48.1875 33.109375 48.1875 
Q 26.21875 48.1875 22.15625 43.53125 
Q 18.109375 38.875 18.109375 30.90625 
L 18.109375 0 
L 9.078125 0 
L 9.078125 54.6875 
L 18.109375 54.6875 
L 18.109375 46.1875 
Q 21.1875 51.21875 25.484375 53.609375 
Q 29.78125 56 35.6875 56 
Q 41.65625 56 45.828125 52.96875 
Q 50 49.953125 52 44.1875 
" id="DejaVuSans-6d"/>
      <path d="M 48.6875 27.296875 
Q 48.6875 37.203125 44.609375 42.84375 
Q 40.53125 48.484375 33.40625 48.484375 
Q 26.265625 48.484375 22.1875 42.84375 
Q 18.109375 37.203125 18.109375 27.296875 
Q 18.109375 17.390625 22.1875 11.75 
Q 26.265625 6.109375 33.40625 6.109375 
Q 40.53125 6.109375 44.609375 11.75 
Q 48.6875 17.390625 48.6875 27.296875 
M 18.109375 46.390625 
Q 20.953125 51.265625 25.265625 53.625 
Q 29.59375 56 35.59375 56 
Q 45.5625 56 51.78125 48.09375 
Q 58.015625 40.1875 58.015625 27.296875 
Q 58.015625 14.40625 51.78125 6.484375 
Q 45.5625 -1.421875 35.59375 -1.421875 
Q 29.59375 -1.421875 25.265625 0.953125 
Q 20.953125 3.328125 18.109375 8.203125 
L 18.109375 0 
L 9.078125 0 
L 9.078125 75.984375 
L 18.109375 75.984375 
z
" id="DejaVuSans-62"/>
      <path d="M 56.203125 29.59375 
L 56.203125 25.203125 
L 14.890625 25.203125 
Q 15.484375 15.921875 20.484375 11.0625 
Q 25.484375 6.203125 34.421875 6.203125 
Q 39.59375 6.203125 44.453125 7.46875 
Q 49.3125 8.734375 54.109375 11.28125 
L 54.109375 2.78125 
Q 49.265625 0.734375 44.1875 -0.34375 
Q 39.109375 -1.421875 33.890625 -1.421875 
Q 20.796875 -1.421875 13.15625 6.1875 
Q 5.515625 13.8125 5.515625 26.8125 
Q 5.515625 40.234375 12.765625 48.109375 
Q 20.015625 56 32.328125 56 
Q 43.359375 56 49.78125 48.890625 
Q 56.203125 41.796875 56.203125 29.59375 
M 47.21875 32.234375 
Q 47.125 39.59375 43.09375 43.984375 
Q 39.0625 48.390625 32.421875 48.390625 
Q 24.90625 48.390625 20.390625 44.140625 
Q 15.875 39.890625 15.1875 32.171875 
z
" id="DejaVuSans-65"/>
      <path d="M 41.109375 46.296875 
Q 39.59375 47.171875 37.8125 47.578125 
Q 36.03125 48 33.890625 48 
Q 26.265625 48 22.1875 43.046875 
Q 18.109375 38.09375 18.109375 28.8125 
L 18.109375 0 
L 9.078125 0 
L 9.078125 54.6875 
L 18.109375 54.6875 
L 18.109375 46.1875 
Q 20.953125 51.171875 25.484375 53.578125 
Q 30.03125 56 36.53125 56 
Q 37.453125 56 38.578125 55.875 
Q 39.703125 55.765625 41.0625 55.515625 
z
" id="DejaVuSans-72"/>
      <path id="DejaVuSans-20"/>
      <path d="M 30.609375 48.390625 
Q 23.390625 48.390625 19.1875 42.75 
Q 14.984375 37.109375 14.984375 27.296875 
Q 14.984375 17.484375 19.15625 11.84375 
Q 23.34375 6.203125 30.609375 6.203125 
Q 37.796875 6.203125 41.984375 11.859375 
Q 46.1875 17.53125 46.1875 27.296875 
Q 46.1875 37.015625 41.984375 42.703125 
Q 37.796875 48.390625 30.609375 48.390625 
M 30.609375 56 
Q 42.328125 56 49.015625 48.375 
Q 55.71875 40.765625 55.71875 27.296875 
Q 55.71875 13.875 49.015625 6.21875 
Q 42.328125 -1.421875 30.609375 -1.421875 
Q 18.84375 -1.421875 12.171875 6.21875 
Q 5.515625 13.875 5.515625 27.296875 
Q 5.515625 40.765625 12.171875 48.375 
Q 18.84375 56 30.609375 56 
" id="DejaVuSans-6f"/>
      <path d="M 37.109375 75.984375 
L 37.109375 68.5 
L 28.515625 68.5 
Q 23.6875 68.5 21.796875 66.546875 
Q 19.921875 64.59375 19.921875 59.515625 
L 19.921875 54.6875 
L 34.71875 54.6875 
L 34.71875 47.703125 
L 19.921875 47.703125 
L 19.921875 0 
L 10.890625 0 
L 10.890625 47.703125 
L 2.296875 47.703125 
L 2.296875 54.6875 
L 10.890625 54.6875 
L 10.890625 58.5 
Q 10.890625 67.625 15.140625 71.796875 
Q 19.390625 75.984375 28.609375 75.984375 
z
" id="DejaVuSans-66"/>
      <path d="M 48.78125 52.59375 
L 48.78125 44.1875 
Q 44.96875 46.296875 41.140625 47.34375 
Q 37.3125 48.390625 33.40625 48.390625 
Q 24.65625 48.390625 19.8125 42.84375 
Q 14.984375 37.3125 14.984375 27.296875 
Q 14.984375 17.28125 19.8125 11.734375 
Q 24.65625 6.203125 33.40625 6.203125 
Q 37.3125 6.203125 41.140625 7.25 
Q 44.96875 8.296875 48.78125 10.40625 
L 48.78125 2.09375 
Q 45.015625 0.34375 40.984375 -0.53125 
Q 36.96875 -1.421875 32.421875 -1.421875 
Q 20.0625 -1.421875 12.78125 6.34375 
Q 5.515625 14.109375 5.515625 27.296875 
Q 5.515625 40.671875 12.859375 48.328125 
Q 20.21875 56 33.015625 56 
Q 37.15625 56 41.109375 55.140625 
Q 45.0625 54.296875 48.78125 52.59375 
" id="DejaVuSans-63"/>
      <path d="M 9.421875 75.984375 
L 18.40625 75.984375 
L 18.40625 0 
L 9.421875 0 
z
" id="DejaVuSans-6c"/>
      <path d="M 9.421875 54.6875 
L 18.40625 54.6875 
L 18.40625 0 
L 9.421875 0 
z
M 9.421875 75.984375 
L 18.40625 75.984375 
L 18.40625 64.59375 
L 9.421875 64.59375 
z
" id="DejaVuSans-69"/>
      <path d="M 54.890625 33.015625 
L 54.890625 0 
L 45.90625 0 
L 45.90625 32.71875 
Q 45.90625 40.484375 42.875 44.328125 
Q 39.84375 48.1875 33.796875 48.1875 
Q 26.515625 48.1875 22.3125 43.546875 
Q 18.109375 38.921875 18.109375 30.90625 
L 18.109375 0 
L 9.078125 0 
L 9.078125 54.6875 
L 18.109375 54.6875 
L 18.109375 46.1875 
Q 21.34375 51.125 25.703125 53.5625 
Q 30.078125 56 35.796875 56 
Q 45.21875 56 50.046875 50.171875 
Q 54.890625 44.34375 54.890625 33.015625 
" id="DejaVuSans-6e"/>
      <path d="M 18.3125 70.21875 
L 18.3125 54.6875 
L 36.8125 54.6875 
L 36.8125 47.703125 
L 18.3125 47.703125 
L 18.3125 18.015625 
Q 18.3125 11.328125 20.140625 9.421875 
Q 21.96875 7.515625 27.59375 7.515625 
L 36.8125 7.515625 
L 36.8125 0 
L 27.59375 0 
Q 17.1875 0 13.234375 3.875 
Q 9.28125 7.765625 9.28125 18.015625 
L 9.28125 47.703125 
L 2.6875 47.703125 
L 2.6875 54.6875 
L 9.28125 54.6875 
L 9.28125 70.21875 
z
" id="DejaVuSans-74"/>
      <path d="M 44.28125 53.078125 
L 44.28125 44.578125 
Q 40.484375 46.53125 36.375 47.5 
Q 32.28125 48.484375 27.875 48.484375 
Q 21.1875 48.484375 17.84375 46.4375 
Q 14.5 44.390625 14.5 40.28125 
Q 14.5 37.15625 16.890625 35.375 
Q 19.28125 33.59375 26.515625 31.984375 
L 29.59375 31.296875 
Q 39.15625 29.25 43.1875 25.515625 
Q 47.21875 21.78125 47.21875 15.09375 
Q 47.21875 7.46875 41.1875 3.015625 
Q 35.15625 -1.421875 24.609375 -1.421875 
Q 20.21875 -1.421875 15.453125 -0.5625 
Q 10.6875 0.296875 5.421875 2 
L 5.421875 11.28125 
Q 10.40625 8.6875 15.234375 7.390625 
Q 20.0625 6.109375 24.8125 6.109375 
Q 31.15625 6.109375 34.5625 8.28125 
Q 37.984375 10.453125 37.984375 14.40625 
Q 37.984375 18.0625 35.515625 20.015625 
Q 33.0625 21.96875 24.703125 23.78125 
L 21.578125 24.515625 
Q 13.234375 26.265625 9.515625 29.90625 
Q 5.8125 33.546875 5.8125 39.890625 
Q 5.8125 47.609375 11.28125 51.796875 
Q 16.75 56 26.8125 56 
Q 31.78125 56 36.171875 55.265625 
Q 40.578125 54.546875 44.28125 53.078125 
" id="DejaVuSans-73"/>
     </defs>
     <g transform="translate(191.738906 335.860562)scale(0.1 -0.1)">
      <use xlink:href="#DejaVuSans-4e"/>
      <use x="74.804688" xlink:href="#DejaVuSans-75"/>
      <use x="138.183594" xlink:href="#DejaVuSans-6d"/>
      <use x="235.595703" xlink:href="#DejaVuSans-62"/>
      <use x="299.072266" xlink:href="#DejaVuSans-65"/>
      <use x="360.595703" xlink:href="#DejaVuSans-72"/>
      <use x="401.708984" xlink:href="#DejaVuSans-20"/>
      <use x="433.496094" xlink:href="#DejaVuSans-6f"/>
      <use x="494.677734" xlink:href="#DejaVuSans-66"/>
      <use x="529.882812" xlink:href="#DejaVuSans-20"/>
      <use x="561.669922" xlink:href="#DejaVuSans-63"/>
      <use x="616.650391" xlink:href="#DejaVuSans-6c"/>
      <use x="644.433594" xlink:href="#DejaVuSans-69"/>
      <use x="672.216797" xlink:href="#DejaVuSans-65"/>
      <use x="733.740234" xlink:href="#DejaVuSans-6e"/>
      <use x="797.119141" xlink:href="#DejaVuSans-74"/>
      <use x="836.328125" xlink:href="#DejaVuSans-73"/>
     </g>
    </g>
   </g>
   <g id="matplotlib.axis_2">
    <g id="ytick_1">
     <g id="line2d_13">
      <path clip-path="url(#p986522058b)" d="M 57.6 296.262846 
L 414.72 296.262846 
" style="fill:none;stroke:#b0b0b0;stroke-linecap:square;stroke-width:0.8;"/>
     </g>
     <g id="line2d_14">
      <defs>
       <path d="M 0 0 
L -3.5 0 
" id="mb8e6b7d7d7" style="stroke:#000000;stroke-width:0.8;"/>
      </defs>
      <g>
       <use style="stroke:#000000;stroke-width:0.8;" x="57.6" xlink:href="#mb8e6b7d7d7" y="296.262846"/>
      </g>
     </g>
     <g id="text_8">
      <!-- 0 -->
      <g transform="translate(44.2375 300.062064)scale(0.1 -0.1)">
       <use xlink:href="#DejaVuSans-30"/>
      </g>
     </g>
    </g>
    <g id="ytick_2">
     <g id="line2d_15">
      <path clip-path="url(#p986522058b)" d="M 57.6 255.652482 
L 414.72 255.652482 
" style="fill:none;stroke:#b0b0b0;stroke-linecap:square;stroke-width:0.8;"/>
     </g>
     <g id="line2d_16">
      <g>
       <use style="stroke:#000000;stroke-width:0.8;" x="57.6" xlink:href="#mb8e6b7d7d7" y="255.652482"/>
      </g>
     </g>
     <g id="text_9">
      <!-- 50 -->
      <defs>
       <path d="M 10.796875 72.90625 
L 49.515625 72.90625 
L 49.515625 64.59375 
L 19.828125 64.59375 
L 19.828125 46.734375 
Q 21.96875 47.46875 24.109375 47.828125 
Q 26.265625 48.1875 28.421875 48.1875 
Q 40.625 48.1875 47.75 41.5 
Q 54.890625 34.8125 54.890625 23.390625 
Q 54.890625 11.625 47.5625 5.09375 
Q 40.234375 -1.421875 26.90625 -1.421875 
Q 22.3125 -1.421875 17.546875 -0.640625 
Q 12.796875 0.140625 7.71875 1.703125 
L 7.71875 11.625 
Q 12.109375 9.234375 16.796875 8.0625 
Q 21.484375 6.890625 26.703125 6.890625 
Q 35.15625 6.890625 40.078125 11.328125 
Q 45.015625 15.765625 45.015625 23.390625 
Q 45.015625 31 40.078125 35.4375 
Q 35.15625 39.890625 26.703125 39.890625 
Q 22.75 39.890625 18.8125 39.015625 
Q 14.890625 38.140625 10.796875 36.28125 
z
" id="DejaVuSans-35"/>
      </defs>
      <g transform="translate(37.875 259.4517)scale(0.1 -0.1)">
       <use xlink:href="#DejaVuSans-35"/>
       <use x="63.623047" xlink:href="#DejaVuSans-30"/>
      </g>
     </g>
    </g>
    <g id="ytick_3">
     <g id="line2d_17">
      <path clip-path="url(#p986522058b)" d="M 57.6 215.042118 
L 414.72 215.042118 
" style="fill:none;stroke:#b0b0b0;stroke-linecap:square;stroke-width:0.8;"/>
     </g>
     <g id="line2d_18">
      <g>
       <use style="stroke:#000000;stroke-width:0.8;" x="57.6" xlink:href="#mb8e6b7d7d7" y="215.042118"/>
      </g>
     </g>
     <g id="text_10">
      <!-- 100 -->
      <g transform="translate(31.5125 218.841336)scale(0.1 -0.1)">
       <use xlink:href="#DejaVuSans-31"/>
       <use x="63.623047" xlink:href="#DejaVuSans-30"/>
       <use x="127.246094" xlink:href="#DejaVuSans-30"/>
      </g>
     </g>
    </g>
    <g id="ytick_4">
     <g id="line2d_19">
      <path clip-path="url(#p986522058b)" d="M 57.6 174.431753 
L 414.72 174.431753 
" style="fill:none;stroke:#b0b0b0;stroke-linecap:square;stroke-width:0.8;"/>
     </g>
     <g id="line2d_20">
      <g>
       <use style="stroke:#000000;stroke-width:0.8;" x="57.6" xlink:href="#mb8e6b7d7d7" y="174.431753"/>
      </g>
     </g>
     <g id="text_11">
      <!-- 150 -->
      <g transform="translate(31.5125 178.230972)scale(0.1 -0.1)">
       <use xlink:href="#DejaVuSans-31"/>
       <use x="63.623047" xlink:href="#DejaVuSans-35"/>
       <use x="127.246094" xlink:href="#DejaVuSans-30"/>
      </g>
     </g>
    </g>
    <g id="ytick_5">
     <g id="line2d_21">
      <path clip-path="url(#p986522058b)" d="M 57.6 133.821389 
L 414.72 133.821389 
" style="fill:none;stroke:#b0b0b0;stroke-linecap:square;stroke-width:0.8;"/>
     </g>
     <g id="line2d_22">
      <g>
       <use style="stroke:#000000;stroke-width:0.8;" x="57.6" xlink:href="#mb8e6b7d7d7" y="133.821389"/>
      </g>
     </g>
     <g id="text_12">
      <!-- 200 -->
      <g transform="translate(31.5125 137.620608)scale(0.1 -0.1)">
       <use xlink:href="#DejaVuSans-32"/>
       <use x="63.623047" xlink:href="#DejaVuSans-30"/>
       <use x="127.246094" xlink:href="#DejaVuSans-30"/>
      </g>
     </g>
    </g>
    <g id="ytick_6">
     <g id="line2d_23">
      <path clip-path="url(#p986522058b)" d="M 57.6 93.211025 
L 414.72 93.211025 
" style="fill:none;stroke:#b0b0b0;stroke-linecap:square;stroke-width:0.8;"/>
     </g>
     <g id="line2d_24">
      <g>
       <use style="stroke:#000000;stroke-width:0.8;" x="57.6" xlink:href="#mb8e6b7d7d7" y="93.211025"/>
      </g>
     </g>
     <g id="text_13">
      <!-- 250 -->
      <g transform="translate(31.5125 97.010244)scale(0.1 -0.1)">
       <use xlink:href="#DejaVuSans-32"/>
       <use x="63.623047" xlink:href="#DejaVuSans-35"/>
       <use x="127.246094" xlink:href="#DejaVuSans-30"/>
      </g>
     </g>
    </g>
    <g id="ytick_7">
     <g id="line2d_25">
      <path clip-path="url(#p986522058b)" d="M 57.6 52.600661 
L 414.72 52.600661 
" style="fill:none;stroke:#b0b0b0;stroke-linecap:square;stroke-width:0.8;"/>
     </g>
     <g id="line2d_26">
      <g>
       <use style="stroke:#000000;stroke-width:0.8;" x="57.6" xlink:href="#mb8e6b7d7d7" y="52.600661"/>
      </g>
     </g>
     <g id="text_14">
      <!-- 300 -->
      <defs>
       <path d="M 40.578125 39.3125 
Q 47.65625 37.796875 51.625 33 
Q 55.609375 28.21875 55.609375 21.1875 
Q 55.609375 10.40625 48.1875 4.484375 
Q 40.765625 -1.421875 27.09375 -1.421875 
Q 22.515625 -1.421875 17.65625 -0.515625 
Q 12.796875 0.390625 7.625 2.203125 
L 7.625 11.71875 
Q 11.71875 9.328125 16.59375 8.109375 
Q 21.484375 6.890625 26.8125 6.890625 
Q 36.078125 6.890625 40.9375 10.546875 
Q 45.796875 14.203125 45.796875 21.1875 
Q 45.796875 27.640625 41.28125 31.265625 
Q 36.765625 34.90625 28.71875 34.90625 
L 20.21875 34.90625 
L 20.21875 43.015625 
L 29.109375 43.015625 
Q 36.375 43.015625 40.234375 45.921875 
Q 44.09375 48.828125 44.09375 54.296875 
Q 44.09375 59.90625 40.109375 62.90625 
Q 36.140625 65.921875 28.71875 65.921875 
Q 24.65625 65.921875 20.015625 65.03125 
Q 15.375 64.15625 9.8125 62.3125 
L 9.8125 71.09375 
Q 15.4375 72.65625 20.34375 73.4375 
Q 25.25 74.21875 29.59375 74.21875 
Q 40.828125 74.21875 47.359375 69.109375 
Q 53.90625 64.015625 53.90625 55.328125 
Q 53.90625 49.265625 50.4375 45.09375 
Q 46.96875 40.921875 40.578125 39.3125 
" id="DejaVuSans-33"/>
      </defs>
      <g transform="translate(31.5125 56.39988)scale(0.1 -0.1)">
       <use xlink:href="#DejaVuSans-33"/>
       <use x="63.623047" xlink:href="#DejaVuSans-30"/>
       <use x="127.246094" xlink:href="#DejaVuSans-30"/>
      </g>
     </g>
    </g>
    <g id="text_15">
     <!-- Successful download requests per second -->
     <defs>
      <path d="M 53.515625 70.515625 
L 53.515625 60.890625 
Q 47.90625 63.578125 42.921875 64.890625 
Q 37.9375 66.21875 33.296875 66.21875 
Q 25.25 66.21875 20.875 63.09375 
Q 16.5 59.96875 16.5 54.203125 
Q 16.5 49.359375 19.40625 46.890625 
Q 22.3125 44.4375 30.421875 42.921875 
L 36.375 41.703125 
Q 47.40625 39.59375 52.65625 34.296875 
Q 57.90625 29 57.90625 20.125 
Q 57.90625 9.515625 50.796875 4.046875 
Q 43.703125 -1.421875 29.984375 -1.421875 
Q 24.8125 -1.421875 18.96875 -0.25 
Q 13.140625 0.921875 6.890625 3.21875 
L 6.890625 13.375 
Q 12.890625 10.015625 18.65625 8.296875 
Q 24.421875 6.59375 29.984375 6.59375 
Q 38.421875 6.59375 43.015625 9.90625 
Q 47.609375 13.234375 47.609375 19.390625 
Q 47.609375 24.75 44.3125 27.78125 
Q 41.015625 30.8125 33.5 32.328125 
L 27.484375 33.5 
Q 16.453125 35.6875 11.515625 40.375 
Q 6.59375 45.0625 6.59375 53.421875 
Q 6.59375 63.09375 13.40625 68.65625 
Q 20.21875 74.21875 32.171875 74.21875 
Q 37.3125 74.21875 42.625 73.28125 
Q 47.953125 72.359375 53.515625 70.515625 
" id="DejaVuSans-53"/>
      <path d="M 45.40625 46.390625 
L 45.40625 75.984375 
L 54.390625 75.984375 
L 54.390625 0 
L 45.40625 0 
L 45.40625 8.203125 
Q 42.578125 3.328125 38.25 0.953125 
Q 33.9375 -1.421875 27.875 -1.421875 
Q 17.96875 -1.421875 11.734375 6.484375 
Q 5.515625 14.40625 5.515625 27.296875 
Q 5.515625 40.1875 11.734375 48.09375 
Q 17.96875 56 27.875 56 
Q 33.9375 56 38.25 53.625 
Q 42.578125 51.265625 45.40625 46.390625 
M 14.796875 27.296875 
Q 14.796875 17.390625 18.875 11.75 
Q 22.953125 6.109375 30.078125 6.109375 
Q 37.203125 6.109375 41.296875 11.75 
Q 45.40625 17.390625 45.40625 27.296875 
Q 45.40625 37.203125 41.296875 42.84375 
Q 37.203125 48.484375 30.078125 48.484375 
Q 22.953125 48.484375 18.875 42.84375 
Q 14.796875 37.203125 14.796875 27.296875 
" id="DejaVuSans-64"/>
      <path d="M 4.203125 54.6875 
L 13.1875 54.6875 
L 24.421875 12.015625 
L 35.59375 54.6875 
L 46.1875 54.6875 
L 57.421875 12.015625 
L 68.609375 54.6875 
L 77.59375 54.6875 
L 63.28125 0 
L 52.6875 0 
L 40.921875 44.828125 
L 29.109375 0 
L 18.5 0 
z
" id="DejaVuSans-77"/>
      <path d="M 34.28125 27.484375 
Q 23.390625 27.484375 19.1875 25 
Q 14.984375 22.515625 14.984375 16.5 
Q 14.984375 11.71875 18.140625 8.90625 
Q 21.296875 6.109375 26.703125 6.109375 
Q 34.1875 6.109375 38.703125 11.40625 
Q 43.21875 16.703125 43.21875 25.484375 
L 43.21875 27.484375 
z
M 52.203125 31.203125 
L 52.203125 0 
L 43.21875 0 
L 43.21875 8.296875 
Q 40.140625 3.328125 35.546875 0.953125 
Q 30.953125 -1.421875 24.3125 -1.421875 
Q 15.921875 -1.421875 10.953125 3.296875 
Q 6 8.015625 6 15.921875 
Q 6 25.140625 12.171875 29.828125 
Q 18.359375 34.515625 30.609375 34.515625 
L 43.21875 34.515625 
L 43.21875 35.40625 
Q 43.21875 41.609375 39.140625 45 
Q 35.0625 48.390625 27.6875 48.390625 
Q 23 48.390625 18.546875 47.265625 
Q 14.109375 46.140625 10.015625 43.890625 
L 10.015625 52.203125 
Q 14.9375 54.109375 19.578125 55.046875 
Q 24.21875 56 28.609375 56 
Q 40.484375 56 46.34375 49.84375 
Q 52.203125 43.703125 52.203125 31.203125 
" id="DejaVuSans-61"/>
      <path d="M 14.796875 27.296875 
Q 14.796875 17.390625 18.875 11.75 
Q 22.953125 6.109375 30.078125 6.109375 
Q 37.203125 6.109375 41.296875 11.75 
Q 45.40625 17.390625 45.40625 27.296875 
Q 45.40625 37.203125 41.296875 42.84375 
Q 37.203125 48.484375 30.078125 48.484375 
Q 22.953125 48.484375 18.875 42.84375 
Q 14.796875 37.203125 14.796875 27.296875 
M 45.40625 8.203125 
Q 42.578125 3.328125 38.25 0.953125 
Q 33.9375 -1.421875 27.875 -1.421875 
Q 17.96875 -1.421875 11.734375 6.484375 
Q 5.515625 14.40625 5.515625 27.296875 
Q 5.515625 40.1875 11.734375 48.09375 
Q 17.96875 56 27.875 56 
Q 33.9375 56 38.25 53.625 
Q 42.578125 51.265625 45.40625 46.390625 
L 45.40625 54.6875 
L 54.390625 54.6875 
L 54.390625 -20.796875 
L 45.40625 -20.796875 
z
" id="DejaVuSans-71"/>
      <path d="M 18.109375 8.203125 
L 18.109375 -20.796875 
L 9.078125 -20.796875 
L 9.078125 54.6875 
L 18.109375 54.6875 
L 18.109375 46.390625 
Q 20.953125 51.265625 25.265625 53.625 
Q 29.59375 56 35.59375 56 
Q 45.5625 56 51.78125 48.09375 
Q 58.015625 40.1875 58.015625 27.296875 
Q 58.015625 14.40625 51.78125 6.484375 
Q 45.5625 -1.421875 35.59375 -1.421875 
Q 29.59375 -1.421875 25.265625 0.953125 
Q 20.953125 3.328125 18.109375 8.203125 
M 48.6875 27.296875 
Q 48.6875 37.203125 44.609375 42.84375 
Q 40.53125 48.484375 33.40625 48.484375 
Q 26.265625 48.484375 22.1875 42.84375 
Q 18.109375 37.203125 18.109375 27.296875 
Q 18.109375 17.390625 22.1875 11.75 
Q 26.265625 6.109375 33.40625 6.109375 
Q 40.53125 6.109375 44.609375 11.75 
Q 48.6875 17.390625 48.6875 27.296875 
" id="DejaVuSans-70"/>
     </defs>
     <g transform="translate(25.432812 279.366281)rotate(-90)scale(0.1 -0.1)">
      <use xlink:href="#DejaVuSans-53"/>
      <use x="63.476562" xlink:href="#DejaVuSans-75"/>
      <use x="126.855469" xlink:href="#DejaVuSans-63"/>
      <use x="181.835938" xlink:href="#DejaVuSans-63"/>
      <use x="236.816406" xlink:href="#DejaVuSans-65"/>
      <use x="298.339844" xlink:href="#DejaVuSans-73"/>
      <use x="350.439453" xlink:href="#DejaVuSans-73"/>
      <use x="402.539062" xlink:href="#DejaVuSans-66"/>
      <use x="437.744141" xlink:href="#DejaVuSans-75"/>
      <use x="501.123047" xlink:href="#DejaVuSans-6c"/>
      <use x="528.90625" xlink:href="#DejaVuSans-20"/>
      <use x="560.693359" xlink:href="#DejaVuSans-64"/>
      <use x="624.169922" xlink:href="#DejaVuSans-6f"/>
      <use x="685.351562" xlink:href="#DejaVuSans-77"/>
      <use x="767.138672" xlink:href="#DejaVuSans-6e"/>
      <use x="830.517578" xlink:href="#DejaVuSans-6c"/>
      <use x="858.300781" xlink:href="#DejaVuSans-6f"/>
      <use x="919.482422" xlink:href="#DejaVuSans-61"/>
      <use x="980.761719" xlink:href="#DejaVuSans-64"/>
      <use x="1044.238281" xlink:href="#DejaVuSans-20"/>
      <use x="1076.025391" xlink:href="#DejaVuSans-72"/>
      <use x="1117.107422" xlink:href="#DejaVuSans-65"/>
      <use x="1178.630859" xlink:href="#DejaVuSans-71"/>
      <use x="1242.107422" xlink:href="#DejaVuSans-75"/>
      <use x="1305.486328" xlink:href="#DejaVuSans-65"/>
      <use x="1367.009766" xlink:href="#DejaVuSans-73"/>
      <use x="1419.109375" xlink:href="#DejaVuSans-74"/>
      <use x="1458.318359" xlink:href="#DejaVuSans-73"/>
      <use x="1510.417969" xlink:href="#DejaVuSans-20"/>
      <use x="1542.205078" xlink:href="#DejaVuSans-70"/>
      <use x="1605.681641" xlink:href="#DejaVuSans-65"/>
      <use x="1667.205078" xlink:href="#DejaVuSans-72"/>
      <use x="1708.318359" xlink:href="#DejaVuSans-20"/>
      <use x="1740.105469" xlink:href="#DejaVuSans-73"/>
      <use x="1792.205078" xlink:href="#DejaVuSans-65"/>
      <use x="1853.728516" xlink:href="#DejaVuSans-63"/>
      <use x="1908.708984" xlink:href="#DejaVuSans-6f"/>
      <use x="1969.890625" xlink:href="#DejaVuSans-6e"/>
      <use x="2033.269531" xlink:href="#DejaVuSans-64"/>
     </g>
    </g>
   </g>
   <g id="line2d_27">
    <path clip-path="url(#p986522058b)" d="M 57.6 295.488 
L 57.95712 295.458761 
L 62.9568 284.329084 
L 63.31392 283.75729 
L 63.67104 282.511364 
L 64.02816 282.324557 
L 64.38528 281.017715 
L 65.09952 280.032508 
L 65.45664 279.45584 
L 65.81376 277.661675 
L 66.17088 277.923205 
L 66.528 276.254932 
L 66.88512 276.398692 
L 67.95648 272.959807 
L 68.3136 272.530961 
L 68.67072 272.418877 
L 69.02784 270.279523 
L 69.74208 269.024662 
L 70.0992 269.719912 
L 71.17056 265.599584 
L 71.52768 265.291758 
L 72.24192 264.444625 
L 72.59904 263.518709 
L 72.95616 263.369263 
L 73.31328 260.773449 
L 73.6704 262.136332 
L 74.02752 261.480069 
L 74.38464 258.385559 
L 74.74176 257.726859 
L 75.09888 257.91854 
L 75.456 256.030158 
L 75.81312 257.655385 
L 76.17024 255.03358 
L 76.52736 253.91517 
L 76.88448 255.197646 
L 77.2416 254.474781 
L 78.67008 249.308331 
L 79.0272 249.986524 
L 79.38432 247.242075 
L 79.74144 246.684901 
L 80.09856 246.991915 
L 80.45568 244.536613 
L 80.8128 245.443036 
L 81.16992 245.23105 
L 81.52704 241.875822 
L 81.88416 243.727654 
L 82.24128 241.142399 
L 82.5984 242.01146 
L 82.95552 241.918057 
L 83.31264 238.152664 
L 83.66976 239.470064 
L 84.02688 239.710477 
L 84.384 236.442967 
L 84.74112 234.682102 
L 85.09824 235.798075 
L 85.45536 233.256678 
L 85.81248 232.179691 
L 86.1696 233.137284 
L 86.52672 233.559631 
L 86.88384 231.265958 
L 87.24096 232.393302 
L 87.59808 231.47632 
L 87.9552 229.037261 
L 88.31232 229.913633 
L 88.66944 229.221632 
L 89.02656 227.364926 
L 89.38368 227.700368 
L 89.7408 223.978022 
L 90.09792 224.483215 
L 90.45504 222.491683 
L 90.81216 225.189835 
L 91.16928 222.357669 
L 91.5264 221.825673 
L 91.88352 219.486516 
L 92.24064 222.823063 
L 92.95488 219.164069 
L 93.312 218.390848 
L 93.66912 219.880436 
L 94.02624 217.587575 
L 94.38336 216.376574 
L 94.74048 217.457622 
L 95.0976 216.174334 
L 95.45472 210.37355 
L 95.81184 211.723439 
L 96.16896 209.238084 
L 96.52608 209.132497 
L 96.8832 210.072221 
L 97.95456 207.400059 
L 98.31168 205.511677 
L 98.6688 205.696861 
L 99.02592 206.847758 
L 99.38304 207.560876 
L 99.74016 201.247589 
L 100.09728 202.505698 
L 100.4544 204.897649 
L 100.81152 202.739614 
L 101.16864 199.38601 
L 101.52576 202.137768 
L 101.88288 197.32544 
L 102.24 201.310941 
L 102.59712 196.460439 
L 102.95424 199.386822 
L 103.31136 193.996202 
L 103.66848 195.969054 
L 104.0256 196.913651 
L 104.38272 196.641562 
L 104.73984 189.494137 
L 105.09696 189.070977 
L 105.45408 191.328102 
L 105.8112 188.579592 
L 106.16832 191.733393 
L 106.52544 190.793669 
L 106.88256 189.16032 
L 107.23968 188.305066 
L 107.5968 188.062216 
L 107.95392 183.473245 
L 108.31104 186.605116 
L 108.66816 180.157815 
L 109.02528 184.634701 
L 109.3824 178.764879 
L 109.73952 182.777183 
L 110.09664 185.025373 
L 110.45376 178.252376 
L 110.81088 175.972511 
L 111.168 181.843145 
L 111.52512 181.191755 
L 111.88224 175.243961 
L 112.23936 177.440169 
L 112.59648 171.752282 
L 112.9536 172.053611 
L 113.31072 174.285556 
L 113.66784 172.379306 
L 114.02496 168.464467 
L 114.38208 175.646816 
L 114.7392 169.220632 
L 115.09632 171.969141 
L 115.45344 173.103795 
L 115.81056 172.852822 
L 116.16768 171.648319 
L 116.5248 168.205372 
L 116.88192 170.091318 
L 117.23904 168.466903 
L 117.59616 162.572715 
L 117.95328 163.602594 
L 118.66752 160.019947 
L 119.02464 161.569639 
L 119.38176 155.85901 
L 119.73888 158.252584 
L 120.096 157.141485 
L 120.45312 155.135333 
L 120.81024 160.059746 
L 121.16736 161.283742 
L 121.52448 153.32005 
L 121.8816 155.540624 
L 122.23872 156.148155 
L 122.59584 149.881164 
L 122.95296 154.400285 
L 123.31008 150.284831 
L 123.6672 156.884015 
L 124.02432 150.631643 
L 124.38144 151.482024 
L 124.73856 149.313431 
L 125.09568 156.685837 
L 125.80992 147.901003 
L 126.16704 153.149486 
L 126.52416 151.426794 
L 126.88128 152.428246 
L 127.2384 149.959136 
L 127.59552 153.400458 
L 127.95264 146.858128 
L 128.30976 147.836838 
L 128.66688 153.572646 
L 129.024 149.010478 
L 129.38112 146.321259 
L 129.73824 147.209814 
L 130.09536 142.383679 
L 130.45248 147.610232 
L 130.8096 147.961106 
L 131.16672 148.012275 
L 131.52384 146.922293 
L 131.88096 141.183236 
L 132.23808 150.323005 
L 132.5952 145.020103 
L 132.95232 145.373414 
L 133.30944 143.441985 
L 133.66656 143.974793 
L 134.02368 139.551512 
L 134.3808 149.015351 
L 134.73792 146.84026 
L 135.09504 146.170189 
L 135.45216 147.382002 
L 135.80928 137.808515 
L 136.1664 140.051831 
L 136.52352 141.231156 
L 136.88064 137.006054 
L 137.23776 146.242475 
L 137.952 142.062857 
L 138.30912 136.049274 
L 138.66624 140.863226 
L 139.02336 134.010634 
L 139.38048 137.261899 
L 139.7376 138.531379 
L 140.09472 143.567065 
L 140.45184 134.030939 
L 141.16608 139.900761 
L 141.5232 133.658948 
L 141.88032 138.649962 
L 142.23744 140.622813 
L 142.59456 133.507877 
L 142.95168 139.830911 
L 143.3088 131.449744 
L 143.66592 133.326755 
L 144.02304 140.609818 
L 144.38016 135.051071 
L 144.73728 132.855675 
L 145.0944 136.33842 
L 145.45152 129.385113 
L 145.80864 130.584743 
L 146.16576 128.030351 
L 146.52288 135.314226 
L 146.88 134.843958 
L 147.23712 137.240782 
L 147.59424 133.08553 
L 147.95136 137.428402 
L 148.30848 128.797887 
L 148.6656 129.549991 
L 149.37984 136.091509 
L 149.73696 134.743245 
L 150.09408 134.039873 
L 150.4512 135.127419 
L 150.80832 130.37763 
L 151.16544 129.197493 
L 151.52256 130.94049 
L 151.87968 134.421611 
L 152.2368 129.681569 
L 152.59392 131.499289 
L 152.95104 124.052972 
L 153.30816 124.286076 
L 153.66528 127.390332 
L 154.0224 128.439704 
L 154.37952 125.036555 
L 154.73664 124.126071 
L 155.09376 127.943445 
L 155.808 122.052506 
L 156.16512 130.208691 
L 156.52224 122.050881 
L 156.87936 131.287303 
L 157.23648 121.819402 
L 157.5936 127.002097 
L 157.95072 118.620118 
L 158.30784 121.599294 
L 158.66496 121.494519 
L 159.02208 122.340839 
L 159.3792 125.556368 
L 159.73632 117.478967 
L 160.09344 125.004879 
L 160.45056 117.256422 
L 160.80768 121.093289 
L 161.1648 120.215293 
L 161.52192 117.934615 
L 161.87904 125.207931 
L 162.23616 116.713055 
L 162.59328 116.944534 
L 162.9504 115.260829 
L 163.30752 126.304411 
L 163.66464 122.759126 
L 164.02176 122.16459 
L 164.37888 120.381795 
L 164.736 116.07466 
L 165.09312 120.377734 
L 165.45024 113.303409 
L 165.80736 125.261537 
L 166.16448 113.312343 
L 166.5216 119.999246 
L 166.87872 121.635843 
L 167.23584 115.823688 
L 167.59296 116.142073 
L 167.95008 114.49248 
L 168.3072 120.870744 
L 168.66432 123.409704 
L 169.02144 113.610423 
L 169.73568 111.246088 
L 170.0928 117.852582 
L 170.44992 118.35615 
L 170.80704 119.386842 
L 171.16416 121.496956 
L 171.52128 115.681552 
L 171.8784 116.400355 
L 172.23552 109.102673 
L 172.59264 110.714092 
L 172.94976 114.851476 
L 173.30688 115.128439 
L 173.664 107.99401 
L 174.37824 119.937518 
L 175.09248 112.62684 
L 175.4496 114.934321 
L 175.80672 112.61953 
L 176.16384 113.920687 
L 176.52096 115.653125 
L 176.87808 111.218473 
L 177.2352 112.632526 
L 177.59232 112.319014 
L 177.94944 117.343328 
L 178.30656 105.677595 
L 178.66368 109.966861 
L 179.37792 110.568707 
L 179.73504 109.295978 
L 180.09216 114.31948 
L 180.44928 104.779294 
L 180.8064 109.526645 
L 181.16352 107.965583 
L 181.52064 111.791079 
L 181.87776 101.863469 
L 182.23488 101.422441 
L 182.592 110.502918 
L 182.94912 104.165265 
L 183.30624 107.658568 
L 183.66336 104.155518 
L 184.3776 107.269521 
L 184.73472 102.724409 
L 185.09184 106.131619 
L 185.44896 100.21144 
L 185.80608 107.119263 
L 186.1632 107.463639 
L 186.52032 102.772329 
L 186.87744 111.746408 
L 187.23456 98.339302 
L 187.59168 110.123617 
L 187.9488 102.121751 
L 188.66304 109.910007 
L 189.02016 101.660418 
L 189.37728 107.513995 
L 189.7344 98.376664 
L 190.09152 108.218179 
L 190.44864 97.114493 
L 190.80576 97.913705 
L 191.16288 105.528961 
L 191.52 102.474249 
L 191.87712 107.761719 
L 192.23424 108.016752 
L 192.59136 97.886903 
L 193.3056 102.764207 
L 193.66272 103.683626 
L 194.01984 102.025911 
L 194.37696 97.442625 
L 194.73408 95.989586 
L 195.0912 96.865958 
L 195.44832 97.360592 
L 195.80544 97.130738 
L 196.16256 96.173145 
L 196.51968 105.182961 
L 196.8768 102.175357 
L 197.23392 102.553846 
L 197.59104 104.910871 
L 198.30528 91.724686 
L 198.6624 102.143681 
L 199.01952 95.103468 
L 199.37664 100.696328 
L 199.73376 104.080795 
L 200.09088 90.571352 
L 200.80512 97.821114 
L 201.16224 94.545482 
L 201.51936 100.553379 
L 201.87648 91.558996 
L 202.2336 102.065709 
L 202.59072 94.887421 
L 202.94784 96.179643 
L 203.30496 94.270144 
L 203.66208 94.95321 
L 204.0192 100.68983 
L 204.37632 97.860912 
L 204.73344 92.174649 
L 205.09056 99.538932 
L 205.44768 98.153307 
L 205.8048 92.906447 
L 206.16192 89.824121 
L 206.51904 97.116118 
L 206.87616 89.51467 
L 207.5904 99.190495 
L 207.94752 89.755083 
L 208.30464 86.109085 
L 208.66176 86.4494 
L 209.01888 97.242822 
L 209.376 89.461064 
L 209.73312 89.332735 
L 210.09024 97.891776 
L 210.44736 93.582204 
L 210.80448 93.162293 
L 211.1616 89.228773 
L 211.51872 88.358087 
L 211.87584 84.876154 
L 212.23296 95.858821 
L 212.59008 89.000543 
L 212.9472 87.635222 
L 213.30432 93.33773 
L 213.66144 94.913412 
L 214.01856 88.271181 
L 214.37568 84.574825 
L 214.7328 84.315731 
L 215.08992 86.268277 
L 215.44704 83.389815 
L 215.80416 93.23133 
L 216.16128 92.634358 
L 216.87552 87.463847 
L 217.23264 84.425379 
L 217.58976 85.032098 
L 217.94688 81.123756 
L 218.304 87.769236 
L 219.01824 93.908711 
L 219.37536 88.170467 
L 219.73248 84.310858 
L 220.0896 89.727468 
L 220.44672 89.128871 
L 221.16096 81.601334 
L 221.51808 85.416272 
L 221.8752 78.046303 
L 222.23232 82.126832 
L 222.94656 84.998797 
L 223.30368 89.252327 
L 223.6608 84.316543 
L 224.01792 83.605862 
L 224.37504 84.681224 
L 224.73216 79.529394 
L 225.08928 91.161826 
L 225.4464 78.778102 
L 225.80352 80.366779 
L 226.16064 75.427747 
L 226.51776 84.38883 
L 226.87488 83.987599 
L 227.232 88.334533 
L 227.58912 79.691835 
L 227.94624 87.431358 
L 228.30336 82.46065 
L 228.66048 80.518662 
L 229.0176 79.242684 
L 229.37472 85.170985 
L 229.73184 87.519889 
L 230.08896 83.670838 
L 230.44608 87.445978 
L 230.8032 80.932076 
L 231.16032 78.369562 
L 231.51744 85.850803 
L 231.87456 74.206187 
L 232.5888 87.191757 
L 233.30304 75.194643 
L 233.66016 75.924818 
L 234.01728 71.438185 
L 234.3744 78.76267 
L 234.73152 73.861811 
L 235.08864 71.023147 
L 235.44576 79.743816 
L 235.80288 74.62691 
L 236.16 85.457695 
L 236.51712 81.336555 
L 236.87424 72.115565 
L 237.23136 72.632129 
L 237.58848 83.737439 
L 237.9456 76.438133 
L 238.30272 83.186763 
L 238.65984 72.736904 
L 239.01696 73.881304 
L 239.37408 74.054304 
L 239.7312 79.131412 
L 240.08832 81.308128 
L 240.44544 81.552602 
L 240.80256 74.129027 
L 241.15968 76.372344 
L 241.5168 81.891292 
L 242.23104 75.256371 
L 242.58816 82.588978 
L 242.94528 70.871264 
L 243.3024 69.116896 
L 243.65952 79.13791 
L 244.01664 80.984869 
L 244.37376 77.766904 
L 244.73088 75.595061 
L 245.088 71.399199 
L 245.44512 73.910544 
L 245.80224 68.461445 
L 246.15936 65.159822 
L 246.51648 80.011032 
L 246.8736 80.266878 
L 247.23072 76.416203 
L 247.58784 68.05859 
L 247.94496 64.063342 
L 248.30208 75.19708 
L 248.6592 68.351797 
L 249.01632 74.063239 
L 249.37344 63.308802 
L 249.73056 72.013227 
L 250.08768 74.507516 
L 250.4448 68.504492 
L 250.80192 70.166268 
L 251.15904 64.201418 
L 251.51616 66.452856 
L 251.87328 72.299937 
L 252.2304 67.932698 
L 252.58752 77.911477 
L 252.94464 64.258272 
L 253.30176 71.799617 
L 253.65888 76.291935 
L 254.37312 65.584607 
L 254.73024 69.39061 
L 255.08736 67.507914 
L 255.44448 67.490045 
L 255.8016 68.248647 
L 256.15872 62.590811 
L 256.51584 71.27818 
L 256.87296 72.440448 
L 257.23008 60.342621 
L 257.94432 72.221965 
L 258.30144 66.196199 
L 258.65856 68.108947 
L 259.01568 67.16435 
L 259.3728 71.129546 
L 259.72992 64.304568 
L 260.44416 74.069736 
L 260.80128 69.787779 
L 261.51552 57.663149 
L 261.87264 71.567326 
L 262.58688 57.042623 
L 262.944 64.23553 
L 263.30112 57.580304 
L 263.65824 67.840919 
L 264.01536 66.74119 
L 264.37248 67.927013 
L 264.7296 66.102795 
L 265.08672 58.012398 
L 265.44384 58.370582 
L 265.80096 61.275035 
L 266.15808 58.295859 
L 266.5152 64.227408 
L 266.87232 63.240577 
L 267.22944 70.232869 
L 267.58656 67.608627 
L 267.94368 58.818108 
L 268.3008 67.619186 
L 268.65792 58.071689 
L 269.01504 63.88222 
L 269.37216 65.218301 
L 269.72928 57.995342 
L 270.0864 53.568 
L 270.44352 60.855936 
L 271.15776 68.052092 
L 271.51488 65.734053 
L 271.872 64.420714 
L 272.22912 63.541093 
L 272.58624 68.221844 
L 272.94336 60.760095 
L 273.30048 65.532625 
L 273.6576 64.112887 
L 274.01472 68.354234 
L 274.37184 64.59615 
L 274.72896 68.620638 
L 275.08608 62.147346 
L 275.4432 70.162207 
L 275.80032 70.798977 
L 276.15744 72.496491 
L 276.51456 76.438945 
L 276.87168 70.128094 
L 277.2288 66.194574 
L 277.58592 73.84313 
L 277.94304 71.178278 
L 278.30016 69.962404 
L 278.65728 77.074903 
L 279.0144 81.77271 
L 279.72864 75.850907 
L 280.08576 82.283588 
L 280.44288 81.345489 
L 280.8 73.634393 
L 281.15712 85.005295 
L 281.51424 81.532297 
L 281.87136 84.122426 
L 282.22848 84.91514 
L 282.5856 82.836702 
L 282.94272 75.238502 
L 283.29984 76.84911 
L 283.65696 77.121199 
L 284.01408 76.311428 
L 284.3712 91.342948 
L 284.72832 92.043071 
L 285.08544 79.794173 
L 285.44256 86.3097 
L 285.79968 81.007611 
L 286.1568 85.26845 
L 286.51392 81.248836 
L 286.87104 83.523017 
L 287.22816 83.557129 
L 287.58528 91.001821 
L 287.9424 85.894662 
L 288.29952 85.932024 
L 288.65664 87.039874 
L 289.01376 85.42277 
L 289.37088 94.776961 
L 289.728 87.025255 
L 290.08512 95.014938 
L 290.44224 90.474699 
L 290.79936 90.16606 
L 291.15648 92.536893 
L 291.5136 90.79146 
L 291.87072 96.541075 
L 292.22784 93.816932 
L 292.58496 94.729853 
L 292.94208 97.199775 
L 293.2992 94.936153 
L 293.65632 101.854535 
L 294.01344 101.053699 
L 294.37056 92.701771 
L 294.72768 104.793101 
L 295.0848 97.566893 
L 295.44192 97.760198 
L 295.79904 97.752076 
L 296.15616 97.302926 
L 296.51328 103.487072 
L 296.8704 98.679617 
L 297.22752 105.013209 
L 297.58464 104.238363 
L 297.94176 103.045231 
L 298.656 107.787709 
L 299.01312 106.82768 
L 299.37024 105.022956 
L 299.72736 100.950548 
L 300.4416 109.533955 
L 300.79872 106.673361 
L 301.15584 110.931764 
L 301.51296 113.483719 
L 301.87008 112.792531 
L 302.2272 107.22485 
L 302.58432 111.633511 
L 302.94144 109.069372 
L 303.29856 112.531 
L 303.65568 113.103606 
L 304.0128 103.554485 
L 304.36992 105.788055 
L 304.72704 114.519283 
L 305.08416 107.71055 
L 305.44128 111.355736 
L 305.7984 118.253 
L 306.15552 111.367107 
L 306.51264 109.322781 
L 306.86976 118.432498 
L 307.22688 117.749432 
L 307.584 116.33944 
L 307.94112 113.54301 
L 308.29824 119.464813 
L 308.65536 112.358 
L 309.01248 108.949166 
L 309.3696 110.638557 
L 309.72672 117.201192 
L 310.08384 115.711604 
L 310.44096 109.861275 
L 310.79808 113.123911 
L 311.1552 114.733706 
L 311.51232 122.159717 
L 311.86944 117.218248 
L 312.22656 118.990484 
L 312.58368 119.022973 
L 312.9408 114.188715 
L 313.29792 115.000922 
L 313.65504 116.554675 
L 314.36928 123.859667 
L 314.7264 123.020657 
L 315.08352 119.617508 
L 315.44064 120.138133 
L 315.79776 122.75669 
L 316.15488 123.154671 
L 316.512 124.159372 
L 316.86912 126.22319 
L 317.22624 120.631955 
L 317.58336 128.523361 
L 317.94048 125.250978 
L 318.2976 117.636535 
L 318.65472 120.770031 
L 319.01184 117.349013 
L 319.36896 125.426415 
L 319.72608 129.104089 
L 320.0832 126.906257 
L 320.44032 126.968796 
L 320.79744 128.42346 
L 321.15456 123.180662 
L 321.51168 127.869534 
L 321.8688 120.774904 
L 322.22592 123.40077 
L 322.58304 124.290137 
L 322.94016 131.999608 
L 323.6544 124.151249 
L 324.36864 131.353904 
L 325.08288 124.649132 
L 325.44 123.582704 
L 325.79712 127.859788 
L 326.15424 128.624887 
L 326.51136 125.62703 
L 326.86848 132.288754 
L 327.2256 128.761338 
L 327.58272 132.343172 
L 327.93984 127.848417 
L 328.29696 134.92193 
L 328.65408 132.118191 
L 329.0112 136.33111 
L 329.36832 132.909281 
L 329.72544 134.964977 
L 330.08256 128.76946 
L 330.43968 133.580976 
L 331.15392 134.141399 
L 331.51104 133.04167 
L 331.86816 133.153755 
L 332.22528 136.405833 
L 332.5824 136.606448 
L 332.93952 133.073346 
L 333.29664 134.598672 
L 333.65376 130.3224 
L 334.01088 131.305171 
L 334.368 139.533643 
L 334.72512 139.126727 
L 335.08224 135.662663 
L 335.43936 134.582428 
L 335.79648 130.209504 
L 336.1536 133.397417 
L 336.51072 141.157246 
L 336.86784 139.119417 
L 337.22496 139.224192 
L 337.58208 141.708734 
L 338.29632 138.354318 
L 339.01056 142.74105 
L 339.36768 137.001993 
L 340.08192 142.775162 
L 340.43904 143.420867 
L 340.79616 132.856487 
L 341.15328 143.056998 
L 341.5104 134.658775 
L 341.86752 140.955006 
L 342.22464 135.456363 
L 342.58176 134.108911 
L 342.93888 140.995616 
L 343.296 144.453183 
L 343.65312 134.636845 
L 344.01024 143.730318 
L 344.36736 138.719811 
L 344.72448 137.058035 
L 345.0816 137.14088 
L 345.79584 141.238466 
L 346.15296 139.422371 
L 346.51008 141.815946 
L 346.8672 143.013139 
L 347.22432 142.535561 
L 347.58144 145.812005 
L 347.93856 146.618527 
L 348.29568 138.971596 
L 348.6528 145.343362 
L 349.00992 143.714886 
L 349.36704 140.975311 
L 349.72416 148.166594 
L 350.08128 139.971423 
L 350.4384 144.327291 
L 350.79552 141.598274 
L 351.15264 142.496575 
L 351.50976 138.337262 
L 351.86688 148.627928 
L 352.224 149.260638 
L 352.58112 145.072897 
L 352.93824 142.95466 
L 353.29536 145.206099 
L 353.65248 149.452318 
L 354.0096 145.919217 
L 354.36672 150.592658 
L 354.72384 148.488228 
L 355.08096 140.809621 
L 355.43808 143.603614 
L 355.7952 143.194261 
L 356.15232 144.233887 
L 356.50944 142.299209 
L 356.86656 146.927166 
L 357.22368 146.806959 
L 357.5808 144.331352 
L 357.93792 142.706125 
L 358.29504 142.20012 
L 359.00928 147.598049 
L 359.3664 144.204647 
L 359.72352 144.678976 
L 360.08064 153.04796 
L 360.43776 149.959948 
L 360.79488 150.318131 
L 361.152 151.910058 
L 361.50912 145.794949 
L 361.86624 150.870432 
L 362.22336 146.182372 
L 362.58048 152.989481 
L 362.9376 144.012966 
L 363.29472 146.165316 
L 363.65184 146.638832 
L 364.00896 148.314416 
L 364.36608 149.049464 
L 364.7232 152.918819 
L 365.08032 153.668486 
L 365.43744 155.223051 
L 365.79456 150.881803 
L 366.15168 150.794085 
L 366.5088 152.705209 
L 366.86592 153.31274 
L 367.58016 152.318598 
L 367.93728 153.47112 
L 368.2944 156.115667 
L 368.65152 147.673585 
L 369.00864 146.620964 
L 369.36576 147.647594 
L 369.72288 152.413626 
L 370.08 148.268932 
L 370.43712 155.139394 
L 370.79424 152.273927 
L 371.15136 155.846826 
L 371.50848 150.889113 
L 371.8656 152.329969 
L 372.22272 157.037522 
L 372.57984 147.680894 
L 372.93696 153.81712 
L 373.29408 152.642669 
L 373.6512 150.846878 
L 374.00832 156.827973 
L 374.36544 151.044245 
L 374.72256 150.029798 
L 375.07968 154.681309 
L 375.4368 150.825761 
L 375.79392 152.227631 
L 376.15104 157.420072 
L 376.50816 157.710842 
L 377.2224 159.08266 
L 377.57952 151.56487 
L 377.93664 157.58495 
L 378.29376 153.741585 
L 378.65088 159.727553 
L 379.008 156.584311 
L 379.36512 154.612271 
L 380.07936 157.904147 
L 380.43648 158.433707 
L 380.7936 154.081088 
L 381.15072 154.92822 
L 381.50784 157.665359 
L 381.86496 155.092286 
L 382.22208 151.702133 
L 382.93632 158.92428 
L 383.29344 158.403655 
L 383.65056 159.857506 
L 384.00768 153.321674 
L 384.3648 152.321847 
L 384.72192 154.805577 
L 385.07904 161.086376 
L 385.43616 154.17774 
L 385.79328 155.021624 
L 386.1504 162.321743 
L 386.50752 157.25763 
L 386.86464 154.963145 
L 387.57888 162.675865 
L 387.936 161.413695 
L 388.29312 159.132205 
L 388.65024 154.714609 
L 389.00736 160.026445 
L 389.36448 160.456915 
L 389.7216 159.379928 
L 390.43584 158.137251 
L 390.79296 155.740427 
L 391.15008 161.620808 
L 391.5072 163.507565 
L 391.86432 163.652951 
L 392.57856 158.421523 
L 392.93568 159.035552 
L 393.2928 155.581235 
L 393.64992 156.166836 
L 394.00704 163.697622 
L 394.36416 165.064567 
L 394.72128 159.435158 
L 395.0784 164.578867 
L 395.43552 162.533729 
L 395.79264 165.019083 
L 396.14976 156.66147 
L 396.864 162.080517 
L 397.22112 160.986474 
L 397.57824 160.92231 
L 397.93536 156.832034 
L 398.29248 163.311011 
L 398.6496 166.229272 
L 399.00672 160.491028 
L 399.36384 161.286179 
L 399.72096 157.355908 
L 400.07808 163.936411 
L 400.4352 158.683866 
L 400.79232 166.256075 
L 401.14944 159.734863 
L 401.50656 158.697674 
L 401.86368 164.678768 
L 402.2208 161.027084 
L 402.57792 163.066537 
L 402.93504 162.368851 
L 403.29216 160.703014 
L 403.64928 165.913323 
L 404.0064 159.690191 
L 404.36352 161.925386 
L 404.72064 162.215344 
L 405.07776 165.246501 
L 405.43488 159.319825 
L 405.792 159.774661 
L 406.14912 163.475077 
L 406.50624 163.136387 
L 406.86336 165.828042 
L 407.22048 161.055512 
L 407.5776 160.910939 
L 407.93472 166.1513 
L 408.29184 168.544875 
L 408.64896 165.460924 
L 409.00608 168.320706 
L 409.3632 162.502865 
L 409.72032 168.373499 
L 410.07744 164.820092 
L 410.43456 163.993265 
L 410.79168 160.017511 
L 411.1488 160.034567 
L 411.50592 166.410394 
L 411.86304 168.15664 
L 412.22016 166.053835 
L 412.57728 169.414749 
L 412.9344 164.70882 
L 413.29152 169.007021 
L 413.64864 161.012465 
L 414.36288 168.228926 
L 414.72 161.397451 
L 414.72 161.397451 
" style="fill:none;stroke:#000080;stroke-linecap:square;stroke-width:0.5;"/>
   </g>
   <g id="patch_3">
    <path d="M 57.6 307.584 
L 57.6 41.472 
" style="fill:none;stroke:#000000;stroke-linecap:square;stroke-linejoin:miter;stroke-width:0.8;"/>
   </g>
   <g id="patch_4">
    <path d="M 414.72 307.584 
L 414.72 41.472 
" style="fill:none;stroke:#000000;stroke-linecap:square;stroke-linejoin:miter;stroke-width:0.8;"/>
   </g>
   <g id="patch_5">
    <path d="M 57.6 307.584 
L 414.72 307.584 
" style="fill:none;stroke:#000000;stroke-linecap:square;stroke-linejoin:miter;stroke-width:0.8;"/>
   </g>
   <g id="patch_6">
    <path d="M 57.6 41.472 
L 414.72 41.472 
" style="fill:none;stroke:#000000;stroke-linecap:square;stroke-linejoin:miter;stroke-width:0.8;"/>
   </g>
   <g id="text_16">
    <!-- Test -->
    <defs>
     <path d="M -0.296875 72.90625 
L 61.375 72.90625 
L 61.375 64.59375 
L 35.5 64.59375 
L 35.5 0 
L 25.59375 0 
L 25.59375 64.59375 
L -0.296875 64.59375 
z
" id="DejaVuSans-54"/>
    </defs>
    <g transform="translate(223.341563 35.472)scale(0.12 -0.12)">
     <use xlink:href="#DejaVuSans-54"/>
     <use x="60.818359" xlink:href="#DejaVuSans-65"/>
     <use x="122.341797" xlink:href="#DejaVuSans-73"/>
     <use x="174.441406" xlink:href="#DejaVuSans-74"/>
    </g>
   </g>
   <g id="legend_1">
    <g id="patch_7">
     <path d="M 166.043437 302.584 
L 407.72 302.584 
Q 409.72 302.584 409.72 300.584 
L 409.72 286.905875 
Q 409.72 284.905875 407.72 284.905875 
L 166.043437 284.905875 
Q 164.043437 284.905875 164.043437 286.905875 
L 164.043437 300.584 
Q 164.043437 302.584 166.043437 302.584 
z
" style="fill:#ffffff;opacity:0.8;stroke:#cccccc;stroke-linejoin:miter;"/>
    </g>
    <g id="line2d_28">
     <path d="M 168.043437 293.004312 
L 188.043437 293.004312 
" style="fill:none;stroke:#000080;stroke-linecap:square;stroke-width:0.5;"/>
    </g>
    <g id="line2d_29"/>
    <g id="text_17">
     <!-- Successful download requests per second -->
     <g transform="translate(196.043437 296.504312)scale(0.1 -0.1)">
      <use xlink:href="#DejaVuSans-53"/>
      <use x="63.476562" xlink:href="#DejaVuSans-75"/>
      <use x="126.855469" xlink:href="#DejaVuSans-63"/>
      <use x="181.835938" xlink:href="#DejaVuSans-63"/>
      <use x="236.816406" xlink:href="#DejaVuSans-65"/>
      <use x="298.339844" xlink:href="#DejaVuSans-73"/>
      <use x="350.439453" xlink:href="#DejaVuSans-73"/>
      <use x="402.539062" xlink:href="#DejaVuSans-66"/>
      <use x="437.744141" xlink:href="#DejaVuSans-75"/>
      <use x="501.123047" xlink:href="#DejaVuSans-6c"/>
      <use x="528.90625" xlink:href="#DejaVuSans-20"/>
      <use x="560.693359" xlink:href="#DejaVuSans-64"/>
      <use x="624.169922" xlink:href="#DejaVuSans-6f"/>
      <use x="685.351562" xlink:href="#DejaVuSans-77"/>
      <use x="767.138672" xlink:href="#DejaVuSans-6e"/>
      <use x="830.517578" xlink:href="#DejaVuSans-6c"/>
      <use x="858.300781" xlink:href="#DejaVuSans-6f"/>
      <use x="919.482422" xlink:href="#DejaVuSans-61"/>
      <use x="980.761719" xlink:href="#DejaVuSans-64"/>
      <use x="1044.238281" xlink:href="#DejaVuSans-20"/>
      <use x="1076.025391" xlink:href="#DejaVuSans-72"/>
      <use x="1117.107422" xlink:href="#DejaVuSans-65"/>
      <use x="1178.630859" xlink:href="#DejaVuSans-71"/>
      <use x="1242.107422" xlink:href="#DejaVuSans-75"/>
      <use x="1305.486328" xlink:href="#DejaVuSans-65"/>
      <use x="1367.009766" xlink:href="#DejaVuSans-73"/>
      <use x="1419.109375" xlink:href="#DejaVuSans-74"/>
      <use x="1458.318359" xlink:href="#DejaVuSans-73"/>
      <use x="1510.417969" xlink:href="#DejaVuSans-20"/>
      <use x="1542.205078" xlink:href="#DejaVuSans-70"/>
      <use x="1605.681641" xlink:href="#DejaVuSans-65"/>
      <use x="1667.205078" xlink:href="#DejaVuSans-72"/>
      <use x="1708.318359" xlink:href="#DejaVuSans-20"/>
      <use x="1740.105469" xlink:href="#DejaVuSans-73"/>
      <use x="1792.205078" xlink:href="#DejaVuSans-65"/>
      <use x="1853.728516" xlink:href="#DejaVuSans-63"/>
      <use x="1908.708984" xlink:href="#DejaVuSans-6f"/>
      <use x="1969.890625" xlink:href="#DejaVuSans-6e"/>
      <use x="2033.269531" xlink:href="#DejaVuSans-64"/>
     </g>
    </g>
   </g>
  </g>
 </g>
 <defs>
  <clipPath id="p986522058b">
   <rect height="266.112" width="357.12" x="57.6" y="41.472"/>
  </clipPath>
 </defs>
</svg>
