<?xml version="1.0" encoding="utf-8" standalone="no"?>
<!DOCTYPE svg PUBLIC "-//W3C//DTD SVG 1.1//EN"
  "http://www.w3.org/Graphics/SVG/1.1/DTD/svg11.dtd">
<!-- Created with matplotlib (http://matplotlib.org/) -->
<svg height="345pt" version="1.1" viewBox="0 0 460 345" width="460pt" xmlns="http://www.w3.org/2000/svg" xmlns:xlink="http://www.w3.org/1999/xlink">
 <defs>
  <style type="text/css">
*{stroke-linecap:butt;stroke-linejoin:round;}
  </style>
 </defs>
 <g id="figure_1">
  <g id="patch_1">
   <path d="M 0 345.6 
L 460.8 345.6 
L 460.8 0 
L 0 0 
z
" style="fill:#ffffff;"/>
  </g>
  <g id="axes_1">
   <g id="patch_2">
    <path d="M 57.6 307.584 
L 414.72 307.584 
L 414.72 41.472 
L 57.6 41.472 
z
" style="fill:#ffffff;"/>
   </g>
   <g id="matplotlib.axis_1">
    <g id="xtick_1">
     <g id="line2d_1">
      <path clip-path="url(#p080222e05f)" d="M 57.6 307.584 
L 57.6 41.472 
" style="fill:none;stroke:#b0b0b0;stroke-linecap:square;stroke-width:0.8;"/>
     </g>
     <g id="line2d_2">
      <defs>
       <path d="M 0 0 
L 0 3.5 
" id="m87f4550192" style="stroke:#000000;stroke-width:0.8;"/>
      </defs>
      <g>
       <use style="stroke:#000000;stroke-width:0.8;" x="57.6" xlink:href="#m87f4550192" y="307.584"/>
      </g>
     </g>
     <g id="text_1">
      <!-- 0 -->
      <defs>
       <path d="M 31.78125 66.40625 
Q 24.171875 66.40625 20.328125 58.90625 
Q 16.5 51.421875 16.5 36.375 
Q 16.5 21.390625 20.328125 13.890625 
Q 24.171875 6.390625 31.78125 6.390625 
Q 39.453125 6.390625 43.28125 13.890625 
Q 47.125 21.390625 47.125 36.375 
Q 47.125 51.421875 43.28125 58.90625 
Q 39.453125 66.40625 31.78125 66.40625 
M 31.78125 74.21875 
Q 44.046875 74.21875 50.515625 64.515625 
Q 56.984375 54.828125 56.984375 36.375 
Q 56.984375 17.96875 50.515625 8.265625 
Q 44.046875 -1.421875 31.78125 -1.421875 
Q 19.53125 -1.421875 13.0625 8.265625 
Q 6.59375 17.96875 6.59375 36.375 
Q 6.59375 54.828125 13.0625 64.515625 
Q 19.53125 74.21875 31.78125 74.21875 
" id="DejaVuSans-30"/>
      </defs>
      <g transform="translate(54.41875 322.182437)scale(0.1 -0.1)">
       <use xlink:href="#DejaVuSans-30"/>
      </g>
     </g>
    </g>
    <g id="xtick_2">
     <g id="line2d_3">
      <path clip-path="url(#p080222e05f)" d="M 129.024 307.584 
L 129.024 41.472 
" style="fill:none;stroke:#b0b0b0;stroke-linecap:square;stroke-width:0.8;"/>
     </g>
     <g id="line2d_4">
      <g>
       <use style="stroke:#000000;stroke-width:0.8;" x="129.024" xlink:href="#m87f4550192" y="307.584"/>
      </g>
     </g>
     <g id="text_2">
      <!-- 200 -->
      <defs>
       <path d="M 19.1875 8.296875 
L 53.609375 8.296875 
L 53.609375 0 
L 7.328125 0 
L 7.328125 8.296875 
Q 12.9375 14.109375 22.625 23.890625 
Q 32.328125 33.6875 34.8125 36.53125 
Q 39.546875 41.84375 41.421875 45.53125 
Q 43.3125 49.21875 43.3125 52.78125 
Q 43.3125 58.59375 39.234375 62.25 
Q 35.15625 65.921875 28.609375 65.921875 
Q 23.96875 65.921875 18.8125 64.3125 
Q 13.671875 62.703125 7.8125 59.421875 
L 7.8125 69.390625 
Q 13.765625 71.78125 18.9375 73 
Q 24.125 74.21875 28.421875 74.21875 
Q 39.75 74.21875 46.484375 68.546875 
Q 53.21875 62.890625 53.21875 53.421875 
Q 53.21875 48.921875 51.53125 44.890625 
Q 49.859375 40.875 45.40625 35.40625 
Q 44.1875 33.984375 37.640625 27.21875 
Q 31.109375 20.453125 19.1875 8.296875 
" id="DejaVuSans-32"/>
      </defs>
      <g transform="translate(119.48025 322.182437)scale(0.1 -0.1)">
       <use xlink:href="#DejaVuSans-32"/>
       <use x="63.623047" xlink:href="#DejaVuSans-30"/>
       <use x="127.246094" xlink:href="#DejaVuSans-30"/>
      </g>
     </g>
    </g>
    <g id="xtick_3">
     <g id="line2d_5">
      <path clip-path="url(#p080222e05f)" d="M 200.448 307.584 
L 200.448 41.472 
" style="fill:none;stroke:#b0b0b0;stroke-linecap:square;stroke-width:0.8;"/>
     </g>
     <g id="line2d_6">
      <g>
       <use style="stroke:#000000;stroke-width:0.8;" x="200.448" xlink:href="#m87f4550192" y="307.584"/>
      </g>
     </g>
     <g id="text_3">
      <!-- 400 -->
      <defs>
       <path d="M 37.796875 64.3125 
L 12.890625 25.390625 
L 37.796875 25.390625 
z
M 35.203125 72.90625 
L 47.609375 72.90625 
L 47.609375 25.390625 
L 58.015625 25.390625 
L 58.015625 17.1875 
L 47.609375 17.1875 
L 47.609375 0 
L 37.796875 0 
L 37.796875 17.1875 
L 4.890625 17.1875 
L 4.890625 26.703125 
z
" id="DejaVuSans-34"/>
      </defs>
      <g transform="translate(190.90425 322.182437)scale(0.1 -0.1)">
       <use xlink:href="#DejaVuSans-34"/>
       <use x="63.623047" xlink:href="#DejaVuSans-30"/>
       <use x="127.246094" xlink:href="#DejaVuSans-30"/>
      </g>
     </g>
    </g>
    <g id="xtick_4">
     <g id="line2d_7">
      <path clip-path="url(#p080222e05f)" d="M 271.872 307.584 
L 271.872 41.472 
" style="fill:none;stroke:#b0b0b0;stroke-linecap:square;stroke-width:0.8;"/>
     </g>
     <g id="line2d_8">
      <g>
       <use style="stroke:#000000;stroke-width:0.8;" x="271.872" xlink:href="#m87f4550192" y="307.584"/>
      </g>
     </g>
     <g id="text_4">
      <!-- 600 -->
      <defs>
       <path d="M 33.015625 40.375 
Q 26.375 40.375 22.484375 35.828125 
Q 18.609375 31.296875 18.609375 23.390625 
Q 18.609375 15.53125 22.484375 10.953125 
Q 26.375 6.390625 33.015625 6.390625 
Q 39.65625 6.390625 43.53125 10.953125 
Q 47.40625 15.53125 47.40625 23.390625 
Q 47.40625 31.296875 43.53125 35.828125 
Q 39.65625 40.375 33.015625 40.375 
M 52.59375 71.296875 
L 52.59375 62.3125 
Q 48.875 64.0625 45.09375 64.984375 
Q 41.3125 65.921875 37.59375 65.921875 
Q 27.828125 65.921875 22.671875 59.328125 
Q 17.53125 52.734375 16.796875 39.40625 
Q 19.671875 43.65625 24.015625 45.921875 
Q 28.375 48.1875 33.59375 48.1875 
Q 44.578125 48.1875 50.953125 41.515625 
Q 57.328125 34.859375 57.328125 23.390625 
Q 57.328125 12.15625 50.6875 5.359375 
Q 44.046875 -1.421875 33.015625 -1.421875 
Q 20.359375 -1.421875 13.671875 8.265625 
Q 6.984375 17.96875 6.984375 36.375 
Q 6.984375 53.65625 15.1875 63.9375 
Q 23.390625 74.21875 37.203125 74.21875 
Q 40.921875 74.21875 44.703125 73.484375 
Q 48.484375 72.75 52.59375 71.296875 
" id="DejaVuSans-36"/>
      </defs>
      <g transform="translate(262.32825 322.182437)scale(0.1 -0.1)">
       <use xlink:href="#DejaVuSans-36"/>
       <use x="63.623047" xlink:href="#DejaVuSans-30"/>
       <use x="127.246094" xlink:href="#DejaVuSans-30"/>
      </g>
     </g>
    </g>
    <g id="xtick_5">
     <g id="line2d_9">
      <path clip-path="url(#p080222e05f)" d="M 343.296 307.584 
L 343.296 41.472 
" style="fill:none;stroke:#b0b0b0;stroke-linecap:square;stroke-width:0.8;"/>
     </g>
     <g id="line2d_10">
      <g>
       <use style="stroke:#000000;stroke-width:0.8;" x="343.296" xlink:href="#m87f4550192" y="307.584"/>
      </g>
     </g>
     <g id="text_5">
      <!-- 800 -->
      <defs>
       <path d="M 31.78125 34.625 
Q 24.75 34.625 20.71875 30.859375 
Q 16.703125 27.09375 16.703125 20.515625 
Q 16.703125 13.921875 20.71875 10.15625 
Q 24.75 6.390625 31.78125 6.390625 
Q 38.8125 6.390625 42.859375 10.171875 
Q 46.921875 13.96875 46.921875 20.515625 
Q 46.921875 27.09375 42.890625 30.859375 
Q 38.875 34.625 31.78125 34.625 
M 21.921875 38.8125 
Q 15.578125 40.375 12.03125 44.71875 
Q 8.5 49.078125 8.5 55.328125 
Q 8.5 64.0625 14.71875 69.140625 
Q 20.953125 74.21875 31.78125 74.21875 
Q 42.671875 74.21875 48.875 69.140625 
Q 55.078125 64.0625 55.078125 55.328125 
Q 55.078125 49.078125 51.53125 44.71875 
Q 48 40.375 41.703125 38.8125 
Q 48.828125 37.15625 52.796875 32.3125 
Q 56.78125 27.484375 56.78125 20.515625 
Q 56.78125 9.90625 50.3125 4.234375 
Q 43.84375 -1.421875 31.78125 -1.421875 
Q 19.734375 -1.421875 13.25 4.234375 
Q 6.78125 9.90625 6.78125 20.515625 
Q 6.78125 27.484375 10.78125 32.3125 
Q 14.796875 37.15625 21.921875 38.8125 
M 18.3125 54.390625 
Q 18.3125 48.734375 21.84375 45.5625 
Q 25.390625 42.390625 31.78125 42.390625 
Q 38.140625 42.390625 41.71875 45.5625 
Q 45.3125 48.734375 45.3125 54.390625 
Q 45.3125 60.0625 41.71875 63.234375 
Q 38.140625 66.40625 31.78125 66.40625 
Q 25.390625 66.40625 21.84375 63.234375 
Q 18.3125 60.0625 18.3125 54.390625 
" id="DejaVuSans-38"/>
      </defs>
      <g transform="translate(333.75225 322.182437)scale(0.1 -0.1)">
       <use xlink:href="#DejaVuSans-38"/>
       <use x="63.623047" xlink:href="#DejaVuSans-30"/>
       <use x="127.246094" xlink:href="#DejaVuSans-30"/>
      </g>
     </g>
    </g>
    <g id="xtick_6">
     <g id="line2d_11">
      <path clip-path="url(#p080222e05f)" d="M 414.72 307.584 
L 414.72 41.472 
" style="fill:none;stroke:#b0b0b0;stroke-linecap:square;stroke-width:0.8;"/>
     </g>
     <g id="line2d_12">
      <g>
       <use style="stroke:#000000;stroke-width:0.8;" x="414.72" xlink:href="#m87f4550192" y="307.584"/>
      </g>
     </g>
     <g id="text_6">
      <!-- 1000 -->
      <defs>
       <path d="M 12.40625 8.296875 
L 28.515625 8.296875 
L 28.515625 63.921875 
L 10.984375 60.40625 
L 10.984375 69.390625 
L 28.421875 72.90625 
L 38.28125 72.90625 
L 38.28125 8.296875 
L 54.390625 8.296875 
L 54.390625 0 
L 12.40625 0 
z
" id="DejaVuSans-31"/>
      </defs>
      <g transform="translate(401.995 322.182437)scale(0.1 -0.1)">
       <use xlink:href="#DejaVuSans-31"/>
       <use x="63.623047" xlink:href="#DejaVuSans-30"/>
       <use x="127.246094" xlink:href="#DejaVuSans-30"/>
       <use x="190.869141" xlink:href="#DejaVuSans-30"/>
      </g>
     </g>
    </g>
    <g id="text_7">
     <!-- Number of clients -->
     <defs>
      <path d="M 9.8125 72.90625 
L 23.09375 72.90625 
L 55.421875 11.921875 
L 55.421875 72.90625 
L 64.984375 72.90625 
L 64.984375 0 
L 51.703125 0 
L 19.390625 60.984375 
L 19.390625 0 
L 9.8125 0 
z
" id="DejaVuSans-4e"/>
      <path d="M 8.5 21.578125 
L 8.5 54.6875 
L 17.484375 54.6875 
L 17.484375 21.921875 
Q 17.484375 14.15625 20.5 10.265625 
Q 23.53125 6.390625 29.59375 6.390625 
Q 36.859375 6.390625 41.078125 11.03125 
Q 45.3125 15.671875 45.3125 23.6875 
L 45.3125 54.6875 
L 54.296875 54.6875 
L 54.296875 0 
L 45.3125 0 
L 45.3125 8.40625 
Q 42.046875 3.421875 37.71875 1 
Q 33.40625 -1.421875 27.6875 -1.421875 
Q 18.265625 -1.421875 13.375 4.4375 
Q 8.5 10.296875 8.5 21.578125 
M 31.109375 56 
z
" id="DejaVuSans-75"/>
      <path d="M 52 44.1875 
Q 55.375 50.25 60.0625 53.125 
Q 64.75 56 71.09375 56 
Q 79.640625 56 84.28125 50.015625 
Q 88.921875 44.046875 88.921875 33.015625 
L 88.921875 0 
L 79.890625 0 
L 79.890625 32.71875 
Q 79.890625 40.578125 77.09375 44.375 
Q 74.3125 48.1875 68.609375 48.1875 
Q 61.625 48.1875 57.5625 43.546875 
Q 53.515625 38.921875 53.515625 30.90625 
L 53.515625 0 
L 44.484375 0 
L 44.484375 32.71875 
Q 44.484375 40.625 41.703125 44.40625 
Q 38.921875 48.1875 33.109375 48.1875 
Q 26.21875 48.1875 22.15625 43.53125 
Q 18.109375 38.875 18.109375 30.90625 
L 18.109375 0 
L 9.078125 0 
L 9.078125 54.6875 
L 18.109375 54.6875 
L 18.109375 46.1875 
Q 21.1875 51.21875 25.484375 53.609375 
Q 29.78125 56 35.6875 56 
Q 41.65625 56 45.828125 52.96875 
Q 50 49.953125 52 44.1875 
" id="DejaVuSans-6d"/>
      <path d="M 48.6875 27.296875 
Q 48.6875 37.203125 44.609375 42.84375 
Q 40.53125 48.484375 33.40625 48.484375 
Q 26.265625 48.484375 22.1875 42.84375 
Q 18.109375 37.203125 18.109375 27.296875 
Q 18.109375 17.390625 22.1875 11.75 
Q 26.265625 6.109375 33.40625 6.109375 
Q 40.53125 6.109375 44.609375 11.75 
Q 48.6875 17.390625 48.6875 27.296875 
M 18.109375 46.390625 
Q 20.953125 51.265625 25.265625 53.625 
Q 29.59375 56 35.59375 56 
Q 45.5625 56 51.78125 48.09375 
Q 58.015625 40.1875 58.015625 27.296875 
Q 58.015625 14.40625 51.78125 6.484375 
Q 45.5625 -1.421875 35.59375 -1.421875 
Q 29.59375 -1.421875 25.265625 0.953125 
Q 20.953125 3.328125 18.109375 8.203125 
L 18.109375 0 
L 9.078125 0 
L 9.078125 75.984375 
L 18.109375 75.984375 
z
" id="DejaVuSans-62"/>
      <path d="M 56.203125 29.59375 
L 56.203125 25.203125 
L 14.890625 25.203125 
Q 15.484375 15.921875 20.484375 11.0625 
Q 25.484375 6.203125 34.421875 6.203125 
Q 39.59375 6.203125 44.453125 7.46875 
Q 49.3125 8.734375 54.109375 11.28125 
L 54.109375 2.78125 
Q 49.265625 0.734375 44.1875 -0.34375 
Q 39.109375 -1.421875 33.890625 -1.421875 
Q 20.796875 -1.421875 13.15625 6.1875 
Q 5.515625 13.8125 5.515625 26.8125 
Q 5.515625 40.234375 12.765625 48.109375 
Q 20.015625 56 32.328125 56 
Q 43.359375 56 49.78125 48.890625 
Q 56.203125 41.796875 56.203125 29.59375 
M 47.21875 32.234375 
Q 47.125 39.59375 43.09375 43.984375 
Q 39.0625 48.390625 32.421875 48.390625 
Q 24.90625 48.390625 20.390625 44.140625 
Q 15.875 39.890625 15.1875 32.171875 
z
" id="DejaVuSans-65"/>
      <path d="M 41.109375 46.296875 
Q 39.59375 47.171875 37.8125 47.578125 
Q 36.03125 48 33.890625 48 
Q 26.265625 48 22.1875 43.046875 
Q 18.109375 38.09375 18.109375 28.8125 
L 18.109375 0 
L 9.078125 0 
L 9.078125 54.6875 
L 18.109375 54.6875 
L 18.109375 46.1875 
Q 20.953125 51.171875 25.484375 53.578125 
Q 30.03125 56 36.53125 56 
Q 37.453125 56 38.578125 55.875 
Q 39.703125 55.765625 41.0625 55.515625 
z
" id="DejaVuSans-72"/>
      <path id="DejaVuSans-20"/>
      <path d="M 30.609375 48.390625 
Q 23.390625 48.390625 19.1875 42.75 
Q 14.984375 37.109375 14.984375 27.296875 
Q 14.984375 17.484375 19.15625 11.84375 
Q 23.34375 6.203125 30.609375 6.203125 
Q 37.796875 6.203125 41.984375 11.859375 
Q 46.1875 17.53125 46.1875 27.296875 
Q 46.1875 37.015625 41.984375 42.703125 
Q 37.796875 48.390625 30.609375 48.390625 
M 30.609375 56 
Q 42.328125 56 49.015625 48.375 
Q 55.71875 40.765625 55.71875 27.296875 
Q 55.71875 13.875 49.015625 6.21875 
Q 42.328125 -1.421875 30.609375 -1.421875 
Q 18.84375 -1.421875 12.171875 6.21875 
Q 5.515625 13.875 5.515625 27.296875 
Q 5.515625 40.765625 12.171875 48.375 
Q 18.84375 56 30.609375 56 
" id="DejaVuSans-6f"/>
      <path d="M 37.109375 75.984375 
L 37.109375 68.5 
L 28.515625 68.5 
Q 23.6875 68.5 21.796875 66.546875 
Q 19.921875 64.59375 19.921875 59.515625 
L 19.921875 54.6875 
L 34.71875 54.6875 
L 34.71875 47.703125 
L 19.921875 47.703125 
L 19.921875 0 
L 10.890625 0 
L 10.890625 47.703125 
L 2.296875 47.703125 
L 2.296875 54.6875 
L 10.890625 54.6875 
L 10.890625 58.5 
Q 10.890625 67.625 15.140625 71.796875 
Q 19.390625 75.984375 28.609375 75.984375 
z
" id="DejaVuSans-66"/>
      <path d="M 48.78125 52.59375 
L 48.78125 44.1875 
Q 44.96875 46.296875 41.140625 47.34375 
Q 37.3125 48.390625 33.40625 48.390625 
Q 24.65625 48.390625 19.8125 42.84375 
Q 14.984375 37.3125 14.984375 27.296875 
Q 14.984375 17.28125 19.8125 11.734375 
Q 24.65625 6.203125 33.40625 6.203125 
Q 37.3125 6.203125 41.140625 7.25 
Q 44.96875 8.296875 48.78125 10.40625 
L 48.78125 2.09375 
Q 45.015625 0.34375 40.984375 -0.53125 
Q 36.96875 -1.421875 32.421875 -1.421875 
Q 20.0625 -1.421875 12.78125 6.34375 
Q 5.515625 14.109375 5.515625 27.296875 
Q 5.515625 40.671875 12.859375 48.328125 
Q 20.21875 56 33.015625 56 
Q 37.15625 56 41.109375 55.140625 
Q 45.0625 54.296875 48.78125 52.59375 
" id="DejaVuSans-63"/>
      <path d="M 9.421875 75.984375 
L 18.40625 75.984375 
L 18.40625 0 
L 9.421875 0 
z
" id="DejaVuSans-6c"/>
      <path d="M 9.421875 54.6875 
L 18.40625 54.6875 
L 18.40625 0 
L 9.421875 0 
z
M 9.421875 75.984375 
L 18.40625 75.984375 
L 18.40625 64.59375 
L 9.421875 64.59375 
z
" id="DejaVuSans-69"/>
      <path d="M 54.890625 33.015625 
L 54.890625 0 
L 45.90625 0 
L 45.90625 32.71875 
Q 45.90625 40.484375 42.875 44.328125 
Q 39.84375 48.1875 33.796875 48.1875 
Q 26.515625 48.1875 22.3125 43.546875 
Q 18.109375 38.921875 18.109375 30.90625 
L 18.109375 0 
L 9.078125 0 
L 9.078125 54.6875 
L 18.109375 54.6875 
L 18.109375 46.1875 
Q 21.34375 51.125 25.703125 53.5625 
Q 30.078125 56 35.796875 56 
Q 45.21875 56 50.046875 50.171875 
Q 54.890625 44.34375 54.890625 33.015625 
" id="DejaVuSans-6e"/>
      <path d="M 18.3125 70.21875 
L 18.3125 54.6875 
L 36.8125 54.6875 
L 36.8125 47.703125 
L 18.3125 47.703125 
L 18.3125 18.015625 
Q 18.3125 11.328125 20.140625 9.421875 
Q 21.96875 7.515625 27.59375 7.515625 
L 36.8125 7.515625 
L 36.8125 0 
L 27.59375 0 
Q 17.1875 0 13.234375 3.875 
Q 9.28125 7.765625 9.28125 18.015625 
L 9.28125 47.703125 
L 2.6875 47.703125 
L 2.6875 54.6875 
L 9.28125 54.6875 
L 9.28125 70.21875 
z
" id="DejaVuSans-74"/>
      <path d="M 44.28125 53.078125 
L 44.28125 44.578125 
Q 40.484375 46.53125 36.375 47.5 
Q 32.28125 48.484375 27.875 48.484375 
Q 21.1875 48.484375 17.84375 46.4375 
Q 14.5 44.390625 14.5 40.28125 
Q 14.5 37.15625 16.890625 35.375 
Q 19.28125 33.59375 26.515625 31.984375 
L 29.59375 31.296875 
Q 39.15625 29.25 43.1875 25.515625 
Q 47.21875 21.78125 47.21875 15.09375 
Q 47.21875 7.46875 41.1875 3.015625 
Q 35.15625 -1.421875 24.609375 -1.421875 
Q 20.21875 -1.421875 15.453125 -0.5625 
Q 10.6875 0.296875 5.421875 2 
L 5.421875 11.28125 
Q 10.40625 8.6875 15.234375 7.390625 
Q 20.0625 6.109375 24.8125 6.109375 
Q 31.15625 6.109375 34.5625 8.28125 
Q 37.984375 10.453125 37.984375 14.40625 
Q 37.984375 18.0625 35.515625 20.015625 
Q 33.0625 21.96875 24.703125 23.78125 
L 21.578125 24.515625 
Q 13.234375 26.265625 9.515625 29.90625 
Q 5.8125 33.546875 5.8125 39.890625 
Q 5.8125 47.609375 11.28125 51.796875 
Q 16.75 56 26.8125 56 
Q 31.78125 56 36.171875 55.265625 
Q 40.578125 54.546875 44.28125 53.078125 
" id="DejaVuSans-73"/>
     </defs>
     <g transform="translate(191.738906 335.860562)scale(0.1 -0.1)">
      <use xlink:href="#DejaVuSans-4e"/>
      <use x="74.804688" xlink:href="#DejaVuSans-75"/>
      <use x="138.183594" xlink:href="#DejaVuSans-6d"/>
      <use x="235.595703" xlink:href="#DejaVuSans-62"/>
      <use x="299.072266" xlink:href="#DejaVuSans-65"/>
      <use x="360.595703" xlink:href="#DejaVuSans-72"/>
      <use x="401.708984" xlink:href="#DejaVuSans-20"/>
      <use x="433.496094" xlink:href="#DejaVuSans-6f"/>
      <use x="494.677734" xlink:href="#DejaVuSans-66"/>
      <use x="529.882812" xlink:href="#DejaVuSans-20"/>
      <use x="561.669922" xlink:href="#DejaVuSans-63"/>
      <use x="616.650391" xlink:href="#DejaVuSans-6c"/>
      <use x="644.433594" xlink:href="#DejaVuSans-69"/>
      <use x="672.216797" xlink:href="#DejaVuSans-65"/>
      <use x="733.740234" xlink:href="#DejaVuSans-6e"/>
      <use x="797.119141" xlink:href="#DejaVuSans-74"/>
      <use x="836.328125" xlink:href="#DejaVuSans-73"/>
     </g>
    </g>
   </g>
   <g id="matplotlib.axis_2">
    <g id="ytick_1">
     <g id="line2d_13">
      <path clip-path="url(#p080222e05f)" d="M 57.6 296.262253 
L 414.72 296.262253 
" style="fill:none;stroke:#b0b0b0;stroke-linecap:square;stroke-width:0.8;"/>
     </g>
     <g id="line2d_14">
      <defs>
       <path d="M 0 0 
L -3.5 0 
" id="m375c344dc4" style="stroke:#000000;stroke-width:0.8;"/>
      </defs>
      <g>
       <use style="stroke:#000000;stroke-width:0.8;" x="57.6" xlink:href="#m375c344dc4" y="296.262253"/>
      </g>
     </g>
     <g id="text_8">
      <!-- 0 -->
      <g transform="translate(44.2375 300.061471)scale(0.1 -0.1)">
       <use xlink:href="#DejaVuSans-30"/>
      </g>
     </g>
    </g>
    <g id="ytick_2">
     <g id="line2d_15">
      <path clip-path="url(#p080222e05f)" d="M 57.6 254.902609 
L 414.72 254.902609 
" style="fill:none;stroke:#b0b0b0;stroke-linecap:square;stroke-width:0.8;"/>
     </g>
     <g id="line2d_16">
      <g>
       <use style="stroke:#000000;stroke-width:0.8;" x="57.6" xlink:href="#m375c344dc4" y="254.902609"/>
      </g>
     </g>
     <g id="text_9">
      <!-- 50 -->
      <defs>
       <path d="M 10.796875 72.90625 
L 49.515625 72.90625 
L 49.515625 64.59375 
L 19.828125 64.59375 
L 19.828125 46.734375 
Q 21.96875 47.46875 24.109375 47.828125 
Q 26.265625 48.1875 28.421875 48.1875 
Q 40.625 48.1875 47.75 41.5 
Q 54.890625 34.8125 54.890625 23.390625 
Q 54.890625 11.625 47.5625 5.09375 
Q 40.234375 -1.421875 26.90625 -1.421875 
Q 22.3125 -1.421875 17.546875 -0.640625 
Q 12.796875 0.140625 7.71875 1.703125 
L 7.71875 11.625 
Q 12.109375 9.234375 16.796875 8.0625 
Q 21.484375 6.890625 26.703125 6.890625 
Q 35.15625 6.890625 40.078125 11.328125 
Q 45.015625 15.765625 45.015625 23.390625 
Q 45.015625 31 40.078125 35.4375 
Q 35.15625 39.890625 26.703125 39.890625 
Q 22.75 39.890625 18.8125 39.015625 
Q 14.890625 38.140625 10.796875 36.28125 
z
" id="DejaVuSans-35"/>
      </defs>
      <g transform="translate(37.875 258.701828)scale(0.1 -0.1)">
       <use xlink:href="#DejaVuSans-35"/>
       <use x="63.623047" xlink:href="#DejaVuSans-30"/>
      </g>
     </g>
    </g>
    <g id="ytick_3">
     <g id="line2d_17">
      <path clip-path="url(#p080222e05f)" d="M 57.6 213.542965 
L 414.72 213.542965 
" style="fill:none;stroke:#b0b0b0;stroke-linecap:square;stroke-width:0.8;"/>
     </g>
     <g id="line2d_18">
      <g>
       <use style="stroke:#000000;stroke-width:0.8;" x="57.6" xlink:href="#m375c344dc4" y="213.542965"/>
      </g>
     </g>
     <g id="text_10">
      <!-- 100 -->
      <g transform="translate(31.5125 217.342184)scale(0.1 -0.1)">
       <use xlink:href="#DejaVuSans-31"/>
       <use x="63.623047" xlink:href="#DejaVuSans-30"/>
       <use x="127.246094" xlink:href="#DejaVuSans-30"/>
      </g>
     </g>
    </g>
    <g id="ytick_4">
     <g id="line2d_19">
      <path clip-path="url(#p080222e05f)" d="M 57.6 172.183322 
L 414.72 172.183322 
" style="fill:none;stroke:#b0b0b0;stroke-linecap:square;stroke-width:0.8;"/>
     </g>
     <g id="line2d_20">
      <g>
       <use style="stroke:#000000;stroke-width:0.8;" x="57.6" xlink:href="#m375c344dc4" y="172.183322"/>
      </g>
     </g>
     <g id="text_11">
      <!-- 150 -->
      <g transform="translate(31.5125 175.982541)scale(0.1 -0.1)">
       <use xlink:href="#DejaVuSans-31"/>
       <use x="63.623047" xlink:href="#DejaVuSans-35"/>
       <use x="127.246094" xlink:href="#DejaVuSans-30"/>
      </g>
     </g>
    </g>
    <g id="ytick_5">
     <g id="line2d_21">
      <path clip-path="url(#p080222e05f)" d="M 57.6 130.823678 
L 414.72 130.823678 
" style="fill:none;stroke:#b0b0b0;stroke-linecap:square;stroke-width:0.8;"/>
     </g>
     <g id="line2d_22">
      <g>
       <use style="stroke:#000000;stroke-width:0.8;" x="57.6" xlink:href="#m375c344dc4" y="130.823678"/>
      </g>
     </g>
     <g id="text_12">
      <!-- 200 -->
      <g transform="translate(31.5125 134.622897)scale(0.1 -0.1)">
       <use xlink:href="#DejaVuSans-32"/>
       <use x="63.623047" xlink:href="#DejaVuSans-30"/>
       <use x="127.246094" xlink:href="#DejaVuSans-30"/>
      </g>
     </g>
    </g>
    <g id="ytick_6">
     <g id="line2d_23">
      <path clip-path="url(#p080222e05f)" d="M 57.6 89.464035 
L 414.72 89.464035 
" style="fill:none;stroke:#b0b0b0;stroke-linecap:square;stroke-width:0.8;"/>
     </g>
     <g id="line2d_24">
      <g>
       <use style="stroke:#000000;stroke-width:0.8;" x="57.6" xlink:href="#m375c344dc4" y="89.464035"/>
      </g>
     </g>
     <g id="text_13">
      <!-- 250 -->
      <g transform="translate(31.5125 93.263253)scale(0.1 -0.1)">
       <use xlink:href="#DejaVuSans-32"/>
       <use x="63.623047" xlink:href="#DejaVuSans-35"/>
       <use x="127.246094" xlink:href="#DejaVuSans-30"/>
      </g>
     </g>
    </g>
    <g id="ytick_7">
     <g id="line2d_25">
      <path clip-path="url(#p080222e05f)" d="M 57.6 48.104391 
L 414.72 48.104391 
" style="fill:none;stroke:#b0b0b0;stroke-linecap:square;stroke-width:0.8;"/>
     </g>
     <g id="line2d_26">
      <g>
       <use style="stroke:#000000;stroke-width:0.8;" x="57.6" xlink:href="#m375c344dc4" y="48.104391"/>
      </g>
     </g>
     <g id="text_14">
      <!-- 300 -->
      <defs>
       <path d="M 40.578125 39.3125 
Q 47.65625 37.796875 51.625 33 
Q 55.609375 28.21875 55.609375 21.1875 
Q 55.609375 10.40625 48.1875 4.484375 
Q 40.765625 -1.421875 27.09375 -1.421875 
Q 22.515625 -1.421875 17.65625 -0.515625 
Q 12.796875 0.390625 7.625 2.203125 
L 7.625 11.71875 
Q 11.71875 9.328125 16.59375 8.109375 
Q 21.484375 6.890625 26.8125 6.890625 
Q 36.078125 6.890625 40.9375 10.546875 
Q 45.796875 14.203125 45.796875 21.1875 
Q 45.796875 27.640625 41.28125 31.265625 
Q 36.765625 34.90625 28.71875 34.90625 
L 20.21875 34.90625 
L 20.21875 43.015625 
L 29.109375 43.015625 
Q 36.375 43.015625 40.234375 45.921875 
Q 44.09375 48.828125 44.09375 54.296875 
Q 44.09375 59.90625 40.109375 62.90625 
Q 36.140625 65.921875 28.71875 65.921875 
Q 24.65625 65.921875 20.015625 65.03125 
Q 15.375 64.15625 9.8125 62.3125 
L 9.8125 71.09375 
Q 15.4375 72.65625 20.34375 73.4375 
Q 25.25 74.21875 29.59375 74.21875 
Q 40.828125 74.21875 47.359375 69.109375 
Q 53.90625 64.015625 53.90625 55.328125 
Q 53.90625 49.265625 50.4375 45.09375 
Q 46.96875 40.921875 40.578125 39.3125 
" id="DejaVuSans-33"/>
      </defs>
      <g transform="translate(31.5125 51.90361)scale(0.1 -0.1)">
       <use xlink:href="#DejaVuSans-33"/>
       <use x="63.623047" xlink:href="#DejaVuSans-30"/>
       <use x="127.246094" xlink:href="#DejaVuSans-30"/>
      </g>
     </g>
    </g>
    <g id="text_15">
     <!-- Successful download requests per second -->
     <defs>
      <path d="M 53.515625 70.515625 
L 53.515625 60.890625 
Q 47.90625 63.578125 42.921875 64.890625 
Q 37.9375 66.21875 33.296875 66.21875 
Q 25.25 66.21875 20.875 63.09375 
Q 16.5 59.96875 16.5 54.203125 
Q 16.5 49.359375 19.40625 46.890625 
Q 22.3125 44.4375 30.421875 42.921875 
L 36.375 41.703125 
Q 47.40625 39.59375 52.65625 34.296875 
Q 57.90625 29 57.90625 20.125 
Q 57.90625 9.515625 50.796875 4.046875 
Q 43.703125 -1.421875 29.984375 -1.421875 
Q 24.8125 -1.421875 18.96875 -0.25 
Q 13.140625 0.921875 6.890625 3.21875 
L 6.890625 13.375 
Q 12.890625 10.015625 18.65625 8.296875 
Q 24.421875 6.59375 29.984375 6.59375 
Q 38.421875 6.59375 43.015625 9.90625 
Q 47.609375 13.234375 47.609375 19.390625 
Q 47.609375 24.75 44.3125 27.78125 
Q 41.015625 30.8125 33.5 32.328125 
L 27.484375 33.5 
Q 16.453125 35.6875 11.515625 40.375 
Q 6.59375 45.0625 6.59375 53.421875 
Q 6.59375 63.09375 13.40625 68.65625 
Q 20.21875 74.21875 32.171875 74.21875 
Q 37.3125 74.21875 42.625 73.28125 
Q 47.953125 72.359375 53.515625 70.515625 
" id="DejaVuSans-53"/>
      <path d="M 45.40625 46.390625 
L 45.40625 75.984375 
L 54.390625 75.984375 
L 54.390625 0 
L 45.40625 0 
L 45.40625 8.203125 
Q 42.578125 3.328125 38.25 0.953125 
Q 33.9375 -1.421875 27.875 -1.421875 
Q 17.96875 -1.421875 11.734375 6.484375 
Q 5.515625 14.40625 5.515625 27.296875 
Q 5.515625 40.1875 11.734375 48.09375 
Q 17.96875 56 27.875 56 
Q 33.9375 56 38.25 53.625 
Q 42.578125 51.265625 45.40625 46.390625 
M 14.796875 27.296875 
Q 14.796875 17.390625 18.875 11.75 
Q 22.953125 6.109375 30.078125 6.109375 
Q 37.203125 6.109375 41.296875 11.75 
Q 45.40625 17.390625 45.40625 27.296875 
Q 45.40625 37.203125 41.296875 42.84375 
Q 37.203125 48.484375 30.078125 48.484375 
Q 22.953125 48.484375 18.875 42.84375 
Q 14.796875 37.203125 14.796875 27.296875 
" id="DejaVuSans-64"/>
      <path d="M 4.203125 54.6875 
L 13.1875 54.6875 
L 24.421875 12.015625 
L 35.59375 54.6875 
L 46.1875 54.6875 
L 57.421875 12.015625 
L 68.609375 54.6875 
L 77.59375 54.6875 
L 63.28125 0 
L 52.6875 0 
L 40.921875 44.828125 
L 29.109375 0 
L 18.5 0 
z
" id="DejaVuSans-77"/>
      <path d="M 34.28125 27.484375 
Q 23.390625 27.484375 19.1875 25 
Q 14.984375 22.515625 14.984375 16.5 
Q 14.984375 11.71875 18.140625 8.90625 
Q 21.296875 6.109375 26.703125 6.109375 
Q 34.1875 6.109375 38.703125 11.40625 
Q 43.21875 16.703125 43.21875 25.484375 
L 43.21875 27.484375 
z
M 52.203125 31.203125 
L 52.203125 0 
L 43.21875 0 
L 43.21875 8.296875 
Q 40.140625 3.328125 35.546875 0.953125 
Q 30.953125 -1.421875 24.3125 -1.421875 
Q 15.921875 -1.421875 10.953125 3.296875 
Q 6 8.015625 6 15.921875 
Q 6 25.140625 12.171875 29.828125 
Q 18.359375 34.515625 30.609375 34.515625 
L 43.21875 34.515625 
L 43.21875 35.40625 
Q 43.21875 41.609375 39.140625 45 
Q 35.0625 48.390625 27.6875 48.390625 
Q 23 48.390625 18.546875 47.265625 
Q 14.109375 46.140625 10.015625 43.890625 
L 10.015625 52.203125 
Q 14.9375 54.109375 19.578125 55.046875 
Q 24.21875 56 28.609375 56 
Q 40.484375 56 46.34375 49.84375 
Q 52.203125 43.703125 52.203125 31.203125 
" id="DejaVuSans-61"/>
      <path d="M 14.796875 27.296875 
Q 14.796875 17.390625 18.875 11.75 
Q 22.953125 6.109375 30.078125 6.109375 
Q 37.203125 6.109375 41.296875 11.75 
Q 45.40625 17.390625 45.40625 27.296875 
Q 45.40625 37.203125 41.296875 42.84375 
Q 37.203125 48.484375 30.078125 48.484375 
Q 22.953125 48.484375 18.875 42.84375 
Q 14.796875 37.203125 14.796875 27.296875 
M 45.40625 8.203125 
Q 42.578125 3.328125 38.25 0.953125 
Q 33.9375 -1.421875 27.875 -1.421875 
Q 17.96875 -1.421875 11.734375 6.484375 
Q 5.515625 14.40625 5.515625 27.296875 
Q 5.515625 40.1875 11.734375 48.09375 
Q 17.96875 56 27.875 56 
Q 33.9375 56 38.25 53.625 
Q 42.578125 51.265625 45.40625 46.390625 
L 45.40625 54.6875 
L 54.390625 54.6875 
L 54.390625 -20.796875 
L 45.40625 -20.796875 
z
" id="DejaVuSans-71"/>
      <path d="M 18.109375 8.203125 
L 18.109375 -20.796875 
L 9.078125 -20.796875 
L 9.078125 54.6875 
L 18.109375 54.6875 
L 18.109375 46.390625 
Q 20.953125 51.265625 25.265625 53.625 
Q 29.59375 56 35.59375 56 
Q 45.5625 56 51.78125 48.09375 
Q 58.015625 40.1875 58.015625 27.296875 
Q 58.015625 14.40625 51.78125 6.484375 
Q 45.5625 -1.421875 35.59375 -1.421875 
Q 29.59375 -1.421875 25.265625 0.953125 
Q 20.953125 3.328125 18.109375 8.203125 
M 48.6875 27.296875 
Q 48.6875 37.203125 44.609375 42.84375 
Q 40.53125 48.484375 33.40625 48.484375 
Q 26.265625 48.484375 22.1875 42.84375 
Q 18.109375 37.203125 18.109375 27.296875 
Q 18.109375 17.390625 22.1875 11.75 
Q 26.265625 6.109375 33.40625 6.109375 
Q 40.53125 6.109375 44.609375 11.75 
Q 48.6875 17.390625 48.6875 27.296875 
" id="DejaVuSans-70"/>
     </defs>
     <g transform="translate(25.432812 279.366281)rotate(-90)scale(0.1 -0.1)">
      <use xlink:href="#DejaVuSans-53"/>
      <use x="63.476562" xlink:href="#DejaVuSans-75"/>
      <use x="126.855469" xlink:href="#DejaVuSans-63"/>
      <use x="181.835938" xlink:href="#DejaVuSans-63"/>
      <use x="236.816406" xlink:href="#DejaVuSans-65"/>
      <use x="298.339844" xlink:href="#DejaVuSans-73"/>
      <use x="350.439453" xlink:href="#DejaVuSans-73"/>
      <use x="402.539062" xlink:href="#DejaVuSans-66"/>
      <use x="437.744141" xlink:href="#DejaVuSans-75"/>
      <use x="501.123047" xlink:href="#DejaVuSans-6c"/>
      <use x="528.90625" xlink:href="#DejaVuSans-20"/>
      <use x="560.693359" xlink:href="#DejaVuSans-64"/>
      <use x="624.169922" xlink:href="#DejaVuSans-6f"/>
      <use x="685.351562" xlink:href="#DejaVuSans-77"/>
      <use x="767.138672" xlink:href="#DejaVuSans-6e"/>
      <use x="830.517578" xlink:href="#DejaVuSans-6c"/>
      <use x="858.300781" xlink:href="#DejaVuSans-6f"/>
      <use x="919.482422" xlink:href="#DejaVuSans-61"/>
      <use x="980.761719" xlink:href="#DejaVuSans-64"/>
      <use x="1044.238281" xlink:href="#DejaVuSans-20"/>
      <use x="1076.025391" xlink:href="#DejaVuSans-72"/>
      <use x="1117.107422" xlink:href="#DejaVuSans-65"/>
      <use x="1178.630859" xlink:href="#DejaVuSans-71"/>
      <use x="1242.107422" xlink:href="#DejaVuSans-75"/>
      <use x="1305.486328" xlink:href="#DejaVuSans-65"/>
      <use x="1367.009766" xlink:href="#DejaVuSans-73"/>
      <use x="1419.109375" xlink:href="#DejaVuSans-74"/>
      <use x="1458.318359" xlink:href="#DejaVuSans-73"/>
      <use x="1510.417969" xlink:href="#DejaVuSans-20"/>
      <use x="1542.205078" xlink:href="#DejaVuSans-70"/>
      <use x="1605.681641" xlink:href="#DejaVuSans-65"/>
      <use x="1667.205078" xlink:href="#DejaVuSans-72"/>
      <use x="1708.318359" xlink:href="#DejaVuSans-20"/>
      <use x="1740.105469" xlink:href="#DejaVuSans-73"/>
      <use x="1792.205078" xlink:href="#DejaVuSans-65"/>
      <use x="1853.728516" xlink:href="#DejaVuSans-63"/>
      <use x="1908.708984" xlink:href="#DejaVuSans-6f"/>
      <use x="1969.890625" xlink:href="#DejaVuSans-6e"/>
      <use x="2033.269531" xlink:href="#DejaVuSans-64"/>
     </g>
    </g>
   </g>
   <g id="line2d_27">
    <path clip-path="url(#p080222e05f)" d="M 57.6 295.488 
L 57.95712 295.458221 
L 59.74272 291.58944 
L 61.52832 287.759537 
L 62.24256 286.153956 
L 62.59968 285.313528 
L 62.9568 283.88662 
L 63.31392 283.6244 
L 63.67104 283.100787 
L 64.38528 280.918652 
L 64.7424 280.859094 
L 65.09952 279.514078 
L 65.45664 279.279156 
L 65.81376 278.07559 
L 66.17088 276.437748 
L 66.528 275.602283 
L 66.88512 275.506329 
L 67.24224 274.853674 
L 67.95648 272.325772 
L 68.3136 272.575585 
L 69.02784 269.862392 
L 69.38496 269.937667 
L 69.74208 269.779673 
L 70.0992 267.651305 
L 70.81344 266.118517 
L 71.17056 266.65702 
L 71.52768 264.76523 
L 71.8848 265.337647 
L 72.24192 262.81719 
L 72.95616 262.117385 
L 73.31328 260.576325 
L 73.6704 259.747478 
L 74.02752 259.811999 
L 74.38464 258.072412 
L 74.74176 258.616705 
L 75.09888 258.203936 
L 75.81312 255.431185 
L 76.17024 255.524658 
L 76.52736 255.342676 
L 76.88448 252.103388 
L 77.2416 251.031346 
L 77.59872 251.803944 
L 77.95584 249.35959 
L 78.31296 251.1364 
L 78.67008 250.87418 
L 79.38432 247.446292 
L 79.74144 248.13948 
L 80.09856 245.17813 
L 80.45568 246.902 
L 80.8128 244.546154 
L 81.16992 243.230918 
L 81.52704 243.824015 
L 81.88416 243.37154 
L 82.24128 242.346648 
L 82.95552 239.109843 
L 83.31264 240.310927 
L 83.66976 236.883039 
L 84.02688 236.146838 
L 84.384 236.021104 
L 84.74112 235.120291 
L 85.09824 233.816635 
L 85.45536 233.384841 
L 85.81248 230.946276 
L 86.1696 232.393864 
L 86.52672 230.291139 
L 86.88384 230.540952 
L 87.24096 231.853707 
L 87.59808 231.0778 
L 87.9552 226.6548 
L 88.31232 225.696083 
L 88.66944 227.883181 
L 89.02656 225.971538 
L 89.38368 225.218793 
L 89.7408 222.440252 
L 90.09792 223.64299 
L 90.45504 224.123589 
L 90.81216 219.995897 
L 91.16928 223.394005 
L 91.88352 220.732099 
L 92.24064 218.765861 
L 92.59776 217.56395 
L 92.95488 214.565376 
L 93.312 218.435811 
L 94.02624 217.747587 
L 94.38336 215.951751 
L 95.0976 213.723293 
L 95.45472 213.82752 
L 95.81184 212.6223 
L 96.16896 212.697574 
L 96.52608 210.699076 
L 97.24032 205.66478 
L 97.59744 205.185836 
L 97.95456 205.51754 
L 98.31168 204.239527 
L 99.02592 202.370071 
L 99.38304 205.469563 
L 99.74016 201.625598 
L 100.09728 203.497535 
L 100.4544 203.266748 
L 100.81152 199.380596 
L 101.16864 198.531069 
L 101.52576 200.422032 
L 101.88288 200.302916 
L 102.24 193.312309 
L 102.95424 198.363976 
L 103.66848 196.134691 
L 104.0256 189.720638 
L 104.38272 194.013769 
L 104.73984 190.993688 
L 105.09696 193.037681 
L 105.45408 190.244251 
L 105.8112 185.474657 
L 106.16832 190.497372 
L 106.52544 184.761617 
L 106.88256 187.783352 
L 107.23968 187.818094 
L 107.5968 185.367949 
L 107.95392 180.419681 
L 108.31104 181.571961 
L 108.66816 186.005715 
L 109.02528 184.659045 
L 110.09664 175.524354 
L 110.45376 181.961569 
L 110.81088 178.109332 
L 111.168 178.792593 
L 111.52512 172.029464 
L 111.88224 175.255516 
L 112.23936 175.451561 
L 112.59648 169.614888 
L 112.9536 170.327101 
L 113.31072 170.236937 
L 113.66784 169.656248 
L 114.02496 174.018863 
L 114.7392 171.424786 
L 115.09632 163.550737 
L 115.45344 167.819879 
L 115.81056 166.857027 
L 116.16768 161.524114 
L 116.88192 168.531265 
L 117.23904 164.464785 
L 117.59616 163.480426 
L 117.95328 164.765056 
L 118.3104 159.970646 
L 118.66752 163.219033 
L 119.02464 159.781219 
L 119.38176 162.383568 
L 119.73888 161.972453 
L 120.096 157.928307 
L 120.45312 155.455828 
L 120.81024 151.324826 
L 121.16736 152.144574 
L 121.52448 153.387845 
L 121.8816 151.432361 
L 122.23872 147.829109 
L 122.59584 148.590127 
L 122.95296 152.080881 
L 123.31008 152.603667 
L 123.6672 153.675708 
L 124.02432 152.721955 
L 124.38144 141.739315 
L 124.73856 149.36107 
L 125.09568 149.060799 
L 125.4528 145.70736 
L 125.80992 146.220219 
L 126.16704 146.245862 
L 126.52416 146.973792 
L 126.88128 139.785486 
L 127.2384 146.025002 
L 127.59552 135.857147 
L 127.95264 140.161031 
L 128.30976 139.586132 
L 128.66688 140.719387 
L 129.024 131.854361 
L 129.38112 135.571765 
L 129.73824 131.531755 
L 130.09536 129.41166 
L 130.8096 138.415654 
L 131.16672 136.488295 
L 131.52384 133.722989 
L 131.88096 133.564168 
L 132.23808 134.306987 
L 132.5952 128.047619 
L 132.95232 132.952873 
L 133.30944 124.702451 
L 133.66656 123.498885 
L 134.02368 125.772839 
L 134.3808 126.632292 
L 135.09504 122.767647 
L 135.45216 116.729139 
L 135.80928 119.84931 
L 136.1664 116.063249 
L 136.52352 116.485117 
L 136.88064 118.435638 
L 137.23776 124.632967 
L 137.952 114.260795 
L 138.30912 114.499027 
L 138.66624 110.408558 
L 139.02336 111.860282 
L 139.38048 116.501661 
L 139.7376 114.824114 
L 140.09472 113.982031 
L 140.45184 104.837414 
L 141.16608 107.725972 
L 141.5232 103.259957 
L 141.88032 113.493988 
L 142.23744 113.913374 
L 142.59456 99.624445 
L 142.95168 108.721085 
L 143.3088 105.087226 
L 143.66592 109.954429 
L 144.02304 100.991795 
L 144.73728 106.184084 
L 145.0944 103.931638 
L 145.45152 102.43111 
L 145.80864 97.029541 
L 146.16576 105.075646 
L 146.52288 105.906975 
L 146.88 102.638736 
L 147.59424 104.850649 
L 147.95136 93.461031 
L 148.30848 95.130306 
L 148.6656 95.850791 
L 149.37984 100.599705 
L 149.73696 95.069094 
L 150.09408 96.046836 
L 150.4512 93.833267 
L 150.80832 96.258597 
L 151.16544 95.299053 
L 151.52256 91.487348 
L 151.87968 100.551728 
L 152.2368 97.799657 
L 152.59392 97.236339 
L 152.95104 89.12654 
L 153.30816 95.467801 
L 153.66528 95.342894 
L 154.0224 91.016676 
L 154.37952 88.511108 
L 154.73664 100.570753 
L 155.09376 95.324696 
L 155.45088 95.237014 
L 155.808 97.127977 
L 156.16512 98.316653 
L 156.52224 85.56382 
L 156.87936 89.307695 
L 157.23648 84.270918 
L 157.5936 87.046977 
L 157.95072 84.691959 
L 158.30784 95.538939 
L 158.66496 97.019614 
L 159.02208 82.997868 
L 159.3792 87.720312 
L 159.73632 87.579689 
L 160.09344 92.508104 
L 160.45056 92.753781 
L 160.80768 85.293328 
L 161.1648 94.415611 
L 161.52192 93.082176 
L 161.87904 94.563679 
L 162.23616 91.468323 
L 162.59328 93.472611 
L 162.9504 80.307837 
L 163.30752 91.756186 
L 163.66464 83.255125 
L 164.02176 84.744899 
L 164.37888 83.193913 
L 164.736 83.265878 
L 165.09312 82.140896 
L 165.45024 78.923116 
L 165.80736 83.213765 
L 166.16448 83.183986 
L 166.5216 80.35995 
L 166.87872 76.507713 
L 167.23584 79.664281 
L 167.59296 88.383721 
L 167.95008 81.082916 
L 168.3072 78.679094 
L 168.66432 85.569611 
L 169.02144 78.44169 
L 169.37856 84.885522 
L 169.73568 72.920177 
L 170.0928 74.160967 
L 170.44992 78.167889 
L 170.80704 78.133974 
L 171.16416 85.683763 
L 171.52128 79.724666 
L 171.8784 81.715719 
L 172.23552 75.94274 
L 172.59264 79.693232 
L 172.94976 85.007119 
L 173.30688 70.290531 
L 173.664 69.541922 
L 174.02112 72.546286 
L 174.37824 81.929135 
L 174.73536 81.436128 
L 175.09248 74.382654 
L 175.4496 70.732252 
L 175.80672 76.277753 
L 176.16384 78.874312 
L 176.52096 76.037867 
L 176.87808 79.607204 
L 177.2352 74.193227 
L 177.59232 76.837763 
L 177.94944 77.24805 
L 178.30656 74.155176 
L 178.66368 77.137206 
L 179.0208 67.67412 
L 179.37792 72.79858 
L 179.73504 68.455817 
L 180.09216 78.294449 
L 180.44928 70.727289 
L 180.8064 70.932433 
L 181.52064 63.847526 
L 181.87776 68.563352 
L 182.23488 77.583891 
L 182.592 64.323989 
L 182.94912 70.178033 
L 183.30624 63.652308 
L 183.66336 61.226979 
L 184.02048 72.063205 
L 184.3776 64.743376 
L 184.73472 72.787826 
L 185.09184 65.884075 
L 185.44896 63.402496 
L 185.80608 65.161108 
L 186.1632 59.62057 
L 186.52032 58.987768 
L 186.87744 62.531462 
L 187.23456 62.686147 
L 187.59168 63.625838 
L 187.9488 70.86543 
L 188.30592 62.489275 
L 188.66304 70.048164 
L 189.02016 67.88919 
L 189.37728 62.369332 
L 189.7344 71.470108 
L 190.09152 66.532594 
L 190.44864 57.022357 
L 190.80576 61.869708 
L 191.16288 56.688172 
L 191.52 61.853164 
L 191.87712 57.947159 
L 192.23424 68.681641 
L 192.59136 58.164711 
L 192.94848 69.113436 
L 193.3056 63.808648 
L 193.66272 56.791571 
L 194.01984 56.879253 
L 194.37696 57.905799 
L 194.73408 59.943175 
L 195.0912 54.022129 
L 195.44832 57.138992 
L 196.51968 54.849322 
L 196.8768 58.861207 
L 197.23392 56.553339 
L 197.59104 66.96687 
L 197.94816 57.200204 
L 198.30528 56.352331 
L 198.6624 62.224573 
L 199.01952 55.79563 
L 199.37664 64.989879 
L 199.73376 56.194337 
L 200.09088 55.138012 
L 200.448 64.815341 
L 200.80512 53.568 
L 201.16224 66.062748 
L 201.51936 55.479643 
L 201.87648 69.652765 
L 202.2336 65.17517 
L 202.59072 71.713303 
L 202.94784 72.570275 
L 203.30496 62.136891 
L 203.66208 74.780534 
L 204.0192 79.86777 
L 204.37632 74.057567 
L 204.73344 84.004562 
L 205.09056 81.563516 
L 205.44768 86.653233 
L 205.8048 75.154425 
L 206.16192 79.367318 
L 206.51904 79.620439 
L 206.87616 90.97118 
L 207.23328 78.248954 
L 207.5904 80.811597 
L 207.94752 82.219479 
L 208.30464 95.562101 
L 208.66176 97.304169 
L 209.01888 92.502314 
L 209.376 92.503968 
L 209.73312 99.724535 
L 210.44736 90.676699 
L 210.80448 96.703627 
L 211.1616 94.803565 
L 211.51872 96.119629 
L 211.87584 105.347792 
L 212.23296 98.497808 
L 212.59008 99.970211 
L 212.9472 96.553078 
L 213.66144 110.005715 
L 214.01856 112.55926 
L 214.7328 113.578361 
L 215.08992 110.780795 
L 215.44704 106.830122 
L 215.80416 104.217847 
L 216.16128 105.938408 
L 216.5184 115.56776 
L 216.87552 108.323205 
L 217.23264 115.508202 
L 217.58976 113.449319 
L 217.94688 117.175823 
L 218.304 122.44256 
L 218.66112 123.105969 
L 219.01824 124.651992 
L 219.37536 123.608902 
L 219.73248 113.379835 
L 220.0896 115.204622 
L 220.44672 125.604918 
L 220.80384 116.839156 
L 221.16096 128.372706 
L 221.51808 123.473242 
L 221.8752 123.654398 
L 222.23232 130.272768 
L 222.58944 122.951284 
L 222.94656 124.245841 
L 223.30368 122.075286 
L 223.6608 132.304353 
L 224.01792 131.673205 
L 224.37504 123.551826 
L 224.73216 130.696291 
L 225.08928 126.877141 
L 225.4464 126.566117 
L 225.80352 131.900683 
L 226.16064 131.925499 
L 226.51776 136.483332 
L 227.232 129.520022 
L 227.58912 129.06093 
L 227.94624 132.839547 
L 228.30336 139.096434 
L 228.66048 139.264354 
L 229.0176 134.923246 
L 229.37472 132.803151 
L 229.73184 134.06462 
L 230.08896 142.23894 
L 230.44608 137.435431 
L 230.8032 136.282324 
L 231.16032 139.582824 
L 231.51744 135.802552 
L 231.87456 140.691262 
L 232.5888 138.617489 
L 232.94592 138.810225 
L 233.30304 137.987168 
L 233.66016 142.990858 
L 234.01728 146.424536 
L 234.3744 140.827749 
L 234.73152 149.188187 
L 235.08864 148.993797 
L 235.44576 149.332946 
L 236.16 141.47875 
L 236.51712 143.791581 
L 236.87424 142.224878 
L 237.23136 143.841212 
L 237.58848 149.876412 
L 237.9456 150.590279 
L 238.30272 143.8743 
L 238.65984 152.490341 
L 239.01696 147.850616 
L 239.7312 155.2664 
L 240.08832 149.885511 
L 240.44544 154.318437 
L 241.15968 150.474472 
L 241.5168 149.393331 
L 241.87392 150.68127 
L 242.23104 151.475375 
L 242.58816 150.89055 
L 242.94528 150.914539 
L 243.3024 153.91394 
L 243.65952 150.558846 
L 244.01664 154.71549 
L 244.37376 156.108483 
L 244.73088 156.559303 
L 245.088 159.579384 
L 245.44512 160.188198 
L 245.80224 158.99704 
L 246.15936 153.828739 
L 246.51648 156.891007 
L 246.8736 157.704965 
L 247.23072 154.360624 
L 247.58784 162.34469 
L 247.94496 159.738205 
L 248.30208 158.936655 
L 248.6592 160.016142 
L 249.01632 158.820848 
L 249.37344 159.283249 
L 249.73056 162.962603 
L 250.08768 161.363639 
L 250.4448 164.969373 
L 251.15904 160.961623 
L 251.51616 165.675795 
L 251.87328 166.871916 
L 252.2304 165.404476 
L 252.58752 164.521861 
L 252.94464 160.727528 
L 253.30176 160.422294 
L 253.65888 162.339727 
L 254.016 169.052397 
L 254.37312 162.683839 
L 254.73024 164.361386 
L 255.08736 168.688432 
L 255.44448 162.700383 
L 255.8016 163.134659 
L 256.15872 167.972083 
L 256.51584 165.831308 
L 256.87296 167.879437 
L 257.23008 164.668275 
L 257.5872 168.12015 
L 257.94432 165.050438 
L 258.30144 165.830481 
L 258.65856 171.645646 
L 259.01568 170.004496 
L 259.3728 170.054127 
L 259.72992 171.405761 
L 260.08704 170.961558 
L 260.44416 169.856428 
L 260.80128 173.246265 
L 261.1584 167.288822 
L 261.87264 171.221296 
L 262.22976 168.781905 
L 262.58688 172.591955 
L 262.944 166.770172 
L 263.30112 172.942685 
L 263.65824 171.880569 
L 264.37248 174.633467 
L 264.7296 168.777769 
L 265.08672 172.621734 
L 265.44384 169.532169 
L 265.80096 173.430729 
L 266.5152 169.827477 
L 266.87232 175.348162 
L 267.22944 177.296201 
L 267.58656 170.96404 
L 267.94368 172.565485 
L 268.3008 172.190767 
L 268.65792 173.536609 
L 269.01504 173.063455 
L 269.72928 173.321539 
L 270.0864 171.543075 
L 270.44352 174.090829 
L 270.80064 174.865081 
L 271.15776 177.762738 
L 271.51488 173.811237 
L 271.872 175.805599 
L 272.22912 179.44773 
L 272.58624 178.653624 
L 272.94336 179.305452 
L 273.30048 180.954875 
L 273.6576 173.975849 
L 274.01472 179.962244 
L 274.37184 174.499462 
L 274.72896 181.227021 
L 275.08608 182.121217 
L 275.4432 178.568424 
L 275.80032 181.33952 
L 276.15744 182.96909 
L 276.51456 177.975326 
L 277.2288 182.021954 
L 277.58592 178.168889 
L 277.94304 178.790111 
L 278.30016 181.476007 
L 278.65728 176.611285 
L 279.0144 180.360123 
L 279.37152 182.585272 
L 279.72864 179.374937 
L 280.08576 184.064293 
L 280.44288 184.96676 
L 280.8 182.751538 
L 281.15712 179.833201 
L 281.51424 179.661973 
L 281.87136 184.962624 
L 282.22848 178.083689 
L 282.94272 184.666489 
L 283.29984 183.974956 
L 283.65696 179.116025 
L 284.01408 185.307564 
L 284.72832 183.639116 
L 285.08544 185.142953 
L 285.44256 184.634229 
L 285.79968 179.656182 
L 286.1568 180.250107 
L 286.51392 186.638517 
L 286.87104 187.489699 
L 287.22816 185.846894 
L 287.58528 188.200257 
L 287.9424 185.162805 
L 288.29952 184.485334 
L 288.65664 187.736202 
L 289.01376 181.65468 
L 289.728 181.79613 
L 290.08512 186.20755 
L 290.44224 186.729508 
L 291.5136 181.915246 
L 291.87072 189.224322 
L 292.22784 189.992784 
L 292.94208 183.591139 
L 293.2992 185.05527 
L 293.65632 188.494738 
L 294.01344 184.945253 
L 294.37056 189.684241 
L 294.72768 189.738009 
L 295.0848 183.500147 
L 295.44192 183.37855 
L 295.79904 184.448938 
L 296.15616 190.843966 
L 296.51328 185.760038 
L 296.8704 184.895622 
L 297.22752 189.475789 
L 297.58464 188.68582 
L 297.94176 188.485639 
L 298.29888 189.725601 
L 298.656 185.536696 
L 299.01312 186.120694 
L 299.37024 185.306737 
L 299.72736 187.820576 
L 300.08448 186.172808 
L 300.4416 187.093473 
L 300.79872 191.20214 
L 301.15584 191.602502 
L 301.51296 191.180633 
L 302.2272 189.743799 
L 302.58432 191.160781 
L 302.94144 191.333664 
L 303.29856 190.674391 
L 303.65568 188.531135 
L 304.0128 193.8839 
L 304.36992 189.99113 
L 304.72704 193.030237 
L 305.08416 188.840505 
L 305.44128 193.379312 
L 305.7984 193.469476 
L 306.15552 194.657325 
L 306.51264 188.57663 
L 307.22688 194.636645 
L 307.584 194.19906 
L 307.94112 189.115133 
L 308.29824 194.886457 
L 308.65536 191.895328 
L 309.01248 194.442255 
L 309.3696 188.297866 
L 309.72672 193.236208 
L 310.08384 191.043319 
L 310.44096 191.288168 
L 310.79808 195.838556 
L 311.1552 190.317044 
L 311.86944 189.393897 
L 312.22656 195.867508 
L 312.58368 191.992937 
L 312.9408 193.213046 
L 313.29792 195.821185 
L 313.65504 196.855176 
L 314.01216 196.007304 
L 314.36928 193.447142 
L 315.08352 197.272909 
L 315.44064 196.805545 
L 316.15488 194.271853 
L 316.512 197.475571 
L 316.86912 192.701841 
L 317.22624 194.510085 
L 317.58336 198.028136 
L 317.94048 197.775015 
L 318.2976 191.433754 
L 318.65472 191.040011 
L 319.01184 191.360961 
L 319.36896 196.260425 
L 319.72608 198.022346 
L 320.0832 191.723272 
L 320.44032 197.524375 
L 320.79744 193.793736 
L 321.15456 192.688606 
L 321.51168 194.750798 
L 321.8688 194.925335 
L 322.22592 198.593936 
L 323.29728 192.930146 
L 323.6544 193.031064 
L 324.01152 192.681161 
L 324.36864 193.18823 
L 324.72576 192.721694 
L 325.08288 193.401646 
L 325.44 193.123709 
L 326.15424 199.447599 
L 326.51136 193.613408 
L 326.86848 196.465569 
L 327.2256 194.693721 
L 327.58272 197.158756 
L 327.93984 193.849157 
L 328.29696 195.892324 
L 328.65408 193.860738 
L 329.0112 195.010536 
L 329.36832 199.993546 
L 329.72544 194.797121 
L 330.08256 198.089348 
L 330.43968 197.779151 
L 330.7968 197.061975 
L 331.15392 197.410223 
L 331.51104 201.144999 
L 331.86816 197.889167 
L 332.22528 196.803063 
L 332.5824 195.142887 
L 333.29664 199.876912 
L 333.65376 199.324347 
L 334.01088 199.651915 
L 334.368 200.616422 
L 335.08224 196.038737 
L 335.43936 200.374882 
L 335.79648 200.636275 
L 336.1536 197.170337 
L 336.51072 199.985274 
L 336.86784 197.65259 
L 337.22496 198.26554 
L 337.9392 196.902326 
L 338.29632 195.989933 
L 338.65344 202.644699 
L 339.01056 200.073784 
L 339.36768 199.048892 
L 339.7248 200.510542 
L 340.08192 197.576489 
L 340.43904 200.231778 
L 340.79616 199.56506 
L 341.15328 202.354355 
L 341.5104 200.640411 
L 341.86752 196.963539 
L 342.22464 202.213732 
L 342.58176 197.009861 
L 342.93888 203.53724 
L 343.296 198.402854 
L 343.65312 199.531145 
L 344.01024 203.419779 
L 344.36736 198.392928 
L 344.72448 198.507081 
L 345.0816 203.500844 
L 345.43872 201.369995 
L 345.79584 200.809986 
L 346.15296 199.837207 
L 346.51008 199.445117 
L 346.8672 203.763891 
L 347.22432 204.430609 
L 347.58144 203.016109 
L 347.93856 203.61996 
L 348.29568 200.227642 
L 348.6528 204.536489 
L 349.00992 203.901205 
L 349.36704 200.700796 
L 350.08128 204.227946 
L 350.4384 200.814121 
L 350.79552 204.337136 
L 351.15264 203.997987 
L 351.50976 200.522122 
L 352.224 203.364357 
L 352.58112 203.422261 
L 352.93824 201.795999 
L 353.29536 202.310513 
L 354.0096 205.213133 
L 354.36672 202.244338 
L 354.72384 200.780207 
L 355.08096 203.864809 
L 355.43808 202.014378 
L 355.7952 206.178467 
L 356.15232 201.321191 
L 356.50944 204.410756 
L 356.86656 205.871579 
L 357.22368 200.821566 
L 357.5808 201.816679 
L 357.93792 202.149211 
L 358.29504 203.547167 
L 358.65216 202.13763 
L 359.00928 205.245394 
L 359.3664 204.974074 
L 359.72352 201.386539 
L 360.08064 206.175986 
L 360.43776 203.81435 
L 360.79488 200.704105 
L 361.152 204.141918 
L 361.50912 201.792691 
L 361.86624 204.333 
L 362.22336 202.147556 
L 362.58048 205.146131 
L 362.9376 204.093114 
L 363.29472 206.27773 
L 363.65184 204.362779 
L 364.00896 205.007989 
L 364.36608 204.124547 
L 364.7232 201.968056 
L 365.08032 206.205765 
L 365.43744 202.377516 
L 365.79456 205.831046 
L 366.15168 204.090632 
L 366.5088 204.85165 
L 366.86592 207.585522 
L 367.22304 204.797882 
L 367.58016 203.380074 
L 368.2944 207.933771 
L 368.65152 203.747347 
L 369.00864 207.662451 
L 369.36576 203.382555 
L 369.72288 204.833452 
L 370.08 203.420606 
L 370.43712 207.808864 
L 370.79424 205.716066 
L 371.15136 207.675686 
L 371.50848 204.366088 
L 371.8656 202.798557 
L 372.22272 206.054388 
L 372.57984 204.78382 
L 372.93696 202.686886 
L 373.29408 207.060255 
L 373.6512 206.842703 
L 374.00832 203.355258 
L 374.36544 208.166212 
L 374.72256 205.567172 
L 375.07968 204.439708 
L 375.4368 203.883007 
L 375.79392 204.13861 
L 376.15104 205.447229 
L 376.86528 203.373456 
L 377.2224 203.53724 
L 377.57952 208.413542 
L 377.93664 204.299912 
L 378.29376 204.169216 
L 378.65088 207.466407 
L 379.008 207.496185 
L 379.36512 206.646658 
L 379.72224 207.978439 
L 380.07936 207.175235 
L 380.43648 206.034536 
L 380.7936 209.754422 
L 381.15072 207.717046 
L 381.50784 207.882485 
L 381.86496 205.271864 
L 382.22208 208.88587 
L 382.5792 207.779913 
L 382.93632 205.65899 
L 383.65056 209.675839 
L 384.00768 205.118833 
L 384.3648 209.761867 
L 385.07904 204.167561 
L 385.79328 204.457906 
L 386.1504 208.727048 
L 386.86464 209.984382 
L 387.22176 206.246297 
L 387.57888 210.498896 
L 387.936 207.18847 
L 388.29312 206.64335 
L 388.65024 207.95445 
L 389.00736 207.961895 
L 389.36448 211.015064 
L 389.7216 207.789012 
L 390.07872 210.378125 
L 390.79296 204.960839 
L 391.15008 209.377222 
L 391.5072 206.121391 
L 391.86432 209.847895 
L 392.22144 210.364063 
L 392.57856 208.025589 
L 392.93568 210.297061 
L 393.64992 205.371954 
L 394.00704 209.616281 
L 394.72128 207.289387 
L 395.0784 207.276152 
L 395.43552 207.611992 
L 395.79264 206.410081 
L 396.14976 209.039727 
L 396.50688 209.513709 
L 396.864 210.85707 
L 397.22112 209.839623 
L 397.57824 211.72645 
L 397.93536 207.831199 
L 398.29248 208.475582 
L 398.6496 211.601544 
L 399.00672 206.161096 
L 399.36384 206.691327 
L 399.72096 210.224268 
L 400.07808 211.882789 
L 400.4352 208.100863 
L 400.79232 209.898354 
L 401.14944 207.774122 
L 401.50656 208.989269 
L 401.86368 211.24916 
L 402.2208 210.438511 
L 402.57792 209.067852 
L 402.93504 209.694037 
L 403.29216 209.060407 
L 403.64928 210.3591 
L 404.36352 206.698772 
L 404.72064 208.618686 
L 405.43488 208.667491 
L 405.792 209.980246 
L 406.14912 208.245622 
L 406.50624 211.28721 
L 406.86336 212.760441 
L 407.22048 211.251641 
L 407.5776 212.059809 
L 407.93472 211.815787 
L 408.29184 210.015815 
L 408.64896 209.835487 
L 409.00608 212.479195 
L 409.3632 211.167267 
L 409.72032 207.098306 
L 410.07744 212.565223 
L 410.43456 207.631845 
L 410.79168 210.59485 
L 411.1488 207.884966 
L 411.50592 208.010699 
L 412.22016 213.227805 
L 412.9344 208.307662 
L 413.29152 210.59485 
L 413.64864 210.445955 
L 414.00576 213.568608 
L 414.36288 211.903469 
L 414.72 209.234945 
L 414.72 209.234945 
" style="fill:none;stroke:#000080;stroke-linecap:square;stroke-width:0.5;"/>
   </g>
   <g id="patch_3">
    <path d="M 57.6 307.584 
L 57.6 41.472 
" style="fill:none;stroke:#000000;stroke-linecap:square;stroke-linejoin:miter;stroke-width:0.8;"/>
   </g>
   <g id="patch_4">
    <path d="M 414.72 307.584 
L 414.72 41.472 
" style="fill:none;stroke:#000000;stroke-linecap:square;stroke-linejoin:miter;stroke-width:0.8;"/>
   </g>
   <g id="patch_5">
    <path d="M 57.6 307.584 
L 414.72 307.584 
" style="fill:none;stroke:#000000;stroke-linecap:square;stroke-linejoin:miter;stroke-width:0.8;"/>
   </g>
   <g id="patch_6">
    <path d="M 57.6 41.472 
L 414.72 41.472 
" style="fill:none;stroke:#000000;stroke-linecap:square;stroke-linejoin:miter;stroke-width:0.8;"/>
   </g>
   <g id="text_16">
    <!-- Test -->
    <defs>
     <path d="M -0.296875 72.90625 
L 61.375 72.90625 
L 61.375 64.59375 
L 35.5 64.59375 
L 35.5 0 
L 25.59375 0 
L 25.59375 64.59375 
L -0.296875 64.59375 
z
" id="DejaVuSans-54"/>
    </defs>
    <g transform="translate(223.341563 35.472)scale(0.12 -0.12)">
     <use xlink:href="#DejaVuSans-54"/>
     <use x="60.818359" xlink:href="#DejaVuSans-65"/>
     <use x="122.341797" xlink:href="#DejaVuSans-73"/>
     <use x="174.441406" xlink:href="#DejaVuSans-74"/>
    </g>
   </g>
   <g id="legend_1">
    <g id="patch_7">
     <path d="M 166.043437 302.584 
L 407.72 302.584 
Q 409.72 302.584 409.72 300.584 
L 409.72 286.905875 
Q 409.72 284.905875 407.72 284.905875 
L 166.043437 284.905875 
Q 164.043437 284.905875 164.043437 286.905875 
L 164.043437 300.584 
Q 164.043437 302.584 166.043437 302.584 
z
" style="fill:#ffffff;opacity:0.8;stroke:#cccccc;stroke-linejoin:miter;"/>
    </g>
    <g id="line2d_28">
     <path d="M 168.043437 293.004312 
L 188.043437 293.004312 
" style="fill:none;stroke:#000080;stroke-linecap:square;stroke-width:0.5;"/>
    </g>
    <g id="line2d_29"/>
    <g id="text_17">
     <!-- Successful download requests per second -->
     <g transform="translate(196.043437 296.504312)scale(0.1 -0.1)">
      <use xlink:href="#DejaVuSans-53"/>
      <use x="63.476562" xlink:href="#DejaVuSans-75"/>
      <use x="126.855469" xlink:href="#DejaVuSans-63"/>
      <use x="181.835938" xlink:href="#DejaVuSans-63"/>
      <use x="236.816406" xlink:href="#DejaVuSans-65"/>
      <use x="298.339844" xlink:href="#DejaVuSans-73"/>
      <use x="350.439453" xlink:href="#DejaVuSans-73"/>
      <use x="402.539062" xlink:href="#DejaVuSans-66"/>
      <use x="437.744141" xlink:href="#DejaVuSans-75"/>
      <use x="501.123047" xlink:href="#DejaVuSans-6c"/>
      <use x="528.90625" xlink:href="#DejaVuSans-20"/>
      <use x="560.693359" xlink:href="#DejaVuSans-64"/>
      <use x="624.169922" xlink:href="#DejaVuSans-6f"/>
      <use x="685.351562" xlink:href="#DejaVuSans-77"/>
      <use x="767.138672" xlink:href="#DejaVuSans-6e"/>
      <use x="830.517578" xlink:href="#DejaVuSans-6c"/>
      <use x="858.300781" xlink:href="#DejaVuSans-6f"/>
      <use x="919.482422" xlink:href="#DejaVuSans-61"/>
      <use x="980.761719" xlink:href="#DejaVuSans-64"/>
      <use x="1044.238281" xlink:href="#DejaVuSans-20"/>
      <use x="1076.025391" xlink:href="#DejaVuSans-72"/>
      <use x="1117.107422" xlink:href="#DejaVuSans-65"/>
      <use x="1178.630859" xlink:href="#DejaVuSans-71"/>
      <use x="1242.107422" xlink:href="#DejaVuSans-75"/>
      <use x="1305.486328" xlink:href="#DejaVuSans-65"/>
      <use x="1367.009766" xlink:href="#DejaVuSans-73"/>
      <use x="1419.109375" xlink:href="#DejaVuSans-74"/>
      <use x="1458.318359" xlink:href="#DejaVuSans-73"/>
      <use x="1510.417969" xlink:href="#DejaVuSans-20"/>
      <use x="1542.205078" xlink:href="#DejaVuSans-70"/>
      <use x="1605.681641" xlink:href="#DejaVuSans-65"/>
      <use x="1667.205078" xlink:href="#DejaVuSans-72"/>
      <use x="1708.318359" xlink:href="#DejaVuSans-20"/>
      <use x="1740.105469" xlink:href="#DejaVuSans-73"/>
      <use x="1792.205078" xlink:href="#DejaVuSans-65"/>
      <use x="1853.728516" xlink:href="#DejaVuSans-63"/>
      <use x="1908.708984" xlink:href="#DejaVuSans-6f"/>
      <use x="1969.890625" xlink:href="#DejaVuSans-6e"/>
      <use x="2033.269531" xlink:href="#DejaVuSans-64"/>
     </g>
    </g>
   </g>
  </g>
 </g>
 <defs>
  <clipPath id="p080222e05f">
   <rect height="266.112" width="357.12" x="57.6" y="41.472"/>
  </clipPath>
 </defs>
</svg>
