<?xml version="1.0" encoding="utf-8" standalone="no"?>
<!DOCTYPE svg PUBLIC "-//W3C//DTD SVG 1.1//EN"
  "http://www.w3.org/Graphics/SVG/1.1/DTD/svg11.dtd">
<!-- Created with matplotlib (http://matplotlib.org/) -->
<svg height="345pt" version="1.1" viewBox="0 0 460 345" width="460pt" xmlns="http://www.w3.org/2000/svg" xmlns:xlink="http://www.w3.org/1999/xlink">
 <defs>
  <style type="text/css">
*{stroke-linecap:butt;stroke-linejoin:round;}
  </style>
 </defs>
 <g id="figure_1">
  <g id="patch_1">
   <path d="M 0 345.6 
L 460.8 345.6 
L 460.8 0 
L 0 0 
z
" style="fill:#ffffff;"/>
  </g>
  <g id="axes_1">
   <g id="patch_2">
    <path d="M 57.6 307.584 
L 414.72 307.584 
L 414.72 41.472 
L 57.6 41.472 
z
" style="fill:#ffffff;"/>
   </g>
   <g id="matplotlib.axis_1">
    <g id="xtick_1">
     <g id="line2d_1">
      <path clip-path="url(#pedda240b02)" d="M 57.6 307.584 
L 57.6 41.472 
" style="fill:none;stroke:#b0b0b0;stroke-linecap:square;stroke-width:0.8;"/>
     </g>
     <g id="line2d_2">
      <defs>
       <path d="M 0 0 
L 0 3.5 
" id="m78f537e228" style="stroke:#000000;stroke-width:0.8;"/>
      </defs>
      <g>
       <use style="stroke:#000000;stroke-width:0.8;" x="57.6" xlink:href="#m78f537e228" y="307.584"/>
      </g>
     </g>
     <g id="text_1">
      <!-- 0 -->
      <defs>
       <path d="M 31.78125 66.40625 
Q 24.171875 66.40625 20.328125 58.90625 
Q 16.5 51.421875 16.5 36.375 
Q 16.5 21.390625 20.328125 13.890625 
Q 24.171875 6.390625 31.78125 6.390625 
Q 39.453125 6.390625 43.28125 13.890625 
Q 47.125 21.390625 47.125 36.375 
Q 47.125 51.421875 43.28125 58.90625 
Q 39.453125 66.40625 31.78125 66.40625 
M 31.78125 74.21875 
Q 44.046875 74.21875 50.515625 64.515625 
Q 56.984375 54.828125 56.984375 36.375 
Q 56.984375 17.96875 50.515625 8.265625 
Q 44.046875 -1.421875 31.78125 -1.421875 
Q 19.53125 -1.421875 13.0625 8.265625 
Q 6.59375 17.96875 6.59375 36.375 
Q 6.59375 54.828125 13.0625 64.515625 
Q 19.53125 74.21875 31.78125 74.21875 
" id="DejaVuSans-30"/>
      </defs>
      <g transform="translate(54.41875 322.182437)scale(0.1 -0.1)">
       <use xlink:href="#DejaVuSans-30"/>
      </g>
     </g>
    </g>
    <g id="xtick_2">
     <g id="line2d_3">
      <path clip-path="url(#pedda240b02)" d="M 129.024 307.584 
L 129.024 41.472 
" style="fill:none;stroke:#b0b0b0;stroke-linecap:square;stroke-width:0.8;"/>
     </g>
     <g id="line2d_4">
      <g>
       <use style="stroke:#000000;stroke-width:0.8;" x="129.024" xlink:href="#m78f537e228" y="307.584"/>
      </g>
     </g>
     <g id="text_2">
      <!-- 200 -->
      <defs>
       <path d="M 19.1875 8.296875 
L 53.609375 8.296875 
L 53.609375 0 
L 7.328125 0 
L 7.328125 8.296875 
Q 12.9375 14.109375 22.625 23.890625 
Q 32.328125 33.6875 34.8125 36.53125 
Q 39.546875 41.84375 41.421875 45.53125 
Q 43.3125 49.21875 43.3125 52.78125 
Q 43.3125 58.59375 39.234375 62.25 
Q 35.15625 65.921875 28.609375 65.921875 
Q 23.96875 65.921875 18.8125 64.3125 
Q 13.671875 62.703125 7.8125 59.421875 
L 7.8125 69.390625 
Q 13.765625 71.78125 18.9375 73 
Q 24.125 74.21875 28.421875 74.21875 
Q 39.75 74.21875 46.484375 68.546875 
Q 53.21875 62.890625 53.21875 53.421875 
Q 53.21875 48.921875 51.53125 44.890625 
Q 49.859375 40.875 45.40625 35.40625 
Q 44.1875 33.984375 37.640625 27.21875 
Q 31.109375 20.453125 19.1875 8.296875 
" id="DejaVuSans-32"/>
      </defs>
      <g transform="translate(119.48025 322.182437)scale(0.1 -0.1)">
       <use xlink:href="#DejaVuSans-32"/>
       <use x="63.623047" xlink:href="#DejaVuSans-30"/>
       <use x="127.246094" xlink:href="#DejaVuSans-30"/>
      </g>
     </g>
    </g>
    <g id="xtick_3">
     <g id="line2d_5">
      <path clip-path="url(#pedda240b02)" d="M 200.448 307.584 
L 200.448 41.472 
" style="fill:none;stroke:#b0b0b0;stroke-linecap:square;stroke-width:0.8;"/>
     </g>
     <g id="line2d_6">
      <g>
       <use style="stroke:#000000;stroke-width:0.8;" x="200.448" xlink:href="#m78f537e228" y="307.584"/>
      </g>
     </g>
     <g id="text_3">
      <!-- 400 -->
      <defs>
       <path d="M 37.796875 64.3125 
L 12.890625 25.390625 
L 37.796875 25.390625 
z
M 35.203125 72.90625 
L 47.609375 72.90625 
L 47.609375 25.390625 
L 58.015625 25.390625 
L 58.015625 17.1875 
L 47.609375 17.1875 
L 47.609375 0 
L 37.796875 0 
L 37.796875 17.1875 
L 4.890625 17.1875 
L 4.890625 26.703125 
z
" id="DejaVuSans-34"/>
      </defs>
      <g transform="translate(190.90425 322.182437)scale(0.1 -0.1)">
       <use xlink:href="#DejaVuSans-34"/>
       <use x="63.623047" xlink:href="#DejaVuSans-30"/>
       <use x="127.246094" xlink:href="#DejaVuSans-30"/>
      </g>
     </g>
    </g>
    <g id="xtick_4">
     <g id="line2d_7">
      <path clip-path="url(#pedda240b02)" d="M 271.872 307.584 
L 271.872 41.472 
" style="fill:none;stroke:#b0b0b0;stroke-linecap:square;stroke-width:0.8;"/>
     </g>
     <g id="line2d_8">
      <g>
       <use style="stroke:#000000;stroke-width:0.8;" x="271.872" xlink:href="#m78f537e228" y="307.584"/>
      </g>
     </g>
     <g id="text_4">
      <!-- 600 -->
      <defs>
       <path d="M 33.015625 40.375 
Q 26.375 40.375 22.484375 35.828125 
Q 18.609375 31.296875 18.609375 23.390625 
Q 18.609375 15.53125 22.484375 10.953125 
Q 26.375 6.390625 33.015625 6.390625 
Q 39.65625 6.390625 43.53125 10.953125 
Q 47.40625 15.53125 47.40625 23.390625 
Q 47.40625 31.296875 43.53125 35.828125 
Q 39.65625 40.375 33.015625 40.375 
M 52.59375 71.296875 
L 52.59375 62.3125 
Q 48.875 64.0625 45.09375 64.984375 
Q 41.3125 65.921875 37.59375 65.921875 
Q 27.828125 65.921875 22.671875 59.328125 
Q 17.53125 52.734375 16.796875 39.40625 
Q 19.671875 43.65625 24.015625 45.921875 
Q 28.375 48.1875 33.59375 48.1875 
Q 44.578125 48.1875 50.953125 41.515625 
Q 57.328125 34.859375 57.328125 23.390625 
Q 57.328125 12.15625 50.6875 5.359375 
Q 44.046875 -1.421875 33.015625 -1.421875 
Q 20.359375 -1.421875 13.671875 8.265625 
Q 6.984375 17.96875 6.984375 36.375 
Q 6.984375 53.65625 15.1875 63.9375 
Q 23.390625 74.21875 37.203125 74.21875 
Q 40.921875 74.21875 44.703125 73.484375 
Q 48.484375 72.75 52.59375 71.296875 
" id="DejaVuSans-36"/>
      </defs>
      <g transform="translate(262.32825 322.182437)scale(0.1 -0.1)">
       <use xlink:href="#DejaVuSans-36"/>
       <use x="63.623047" xlink:href="#DejaVuSans-30"/>
       <use x="127.246094" xlink:href="#DejaVuSans-30"/>
      </g>
     </g>
    </g>
    <g id="xtick_5">
     <g id="line2d_9">
      <path clip-path="url(#pedda240b02)" d="M 343.296 307.584 
L 343.296 41.472 
" style="fill:none;stroke:#b0b0b0;stroke-linecap:square;stroke-width:0.8;"/>
     </g>
     <g id="line2d_10">
      <g>
       <use style="stroke:#000000;stroke-width:0.8;" x="343.296" xlink:href="#m78f537e228" y="307.584"/>
      </g>
     </g>
     <g id="text_5">
      <!-- 800 -->
      <defs>
       <path d="M 31.78125 34.625 
Q 24.75 34.625 20.71875 30.859375 
Q 16.703125 27.09375 16.703125 20.515625 
Q 16.703125 13.921875 20.71875 10.15625 
Q 24.75 6.390625 31.78125 6.390625 
Q 38.8125 6.390625 42.859375 10.171875 
Q 46.921875 13.96875 46.921875 20.515625 
Q 46.921875 27.09375 42.890625 30.859375 
Q 38.875 34.625 31.78125 34.625 
M 21.921875 38.8125 
Q 15.578125 40.375 12.03125 44.71875 
Q 8.5 49.078125 8.5 55.328125 
Q 8.5 64.0625 14.71875 69.140625 
Q 20.953125 74.21875 31.78125 74.21875 
Q 42.671875 74.21875 48.875 69.140625 
Q 55.078125 64.0625 55.078125 55.328125 
Q 55.078125 49.078125 51.53125 44.71875 
Q 48 40.375 41.703125 38.8125 
Q 48.828125 37.15625 52.796875 32.3125 
Q 56.78125 27.484375 56.78125 20.515625 
Q 56.78125 9.90625 50.3125 4.234375 
Q 43.84375 -1.421875 31.78125 -1.421875 
Q 19.734375 -1.421875 13.25 4.234375 
Q 6.78125 9.90625 6.78125 20.515625 
Q 6.78125 27.484375 10.78125 32.3125 
Q 14.796875 37.15625 21.921875 38.8125 
M 18.3125 54.390625 
Q 18.3125 48.734375 21.84375 45.5625 
Q 25.390625 42.390625 31.78125 42.390625 
Q 38.140625 42.390625 41.71875 45.5625 
Q 45.3125 48.734375 45.3125 54.390625 
Q 45.3125 60.0625 41.71875 63.234375 
Q 38.140625 66.40625 31.78125 66.40625 
Q 25.390625 66.40625 21.84375 63.234375 
Q 18.3125 60.0625 18.3125 54.390625 
" id="DejaVuSans-38"/>
      </defs>
      <g transform="translate(333.75225 322.182437)scale(0.1 -0.1)">
       <use xlink:href="#DejaVuSans-38"/>
       <use x="63.623047" xlink:href="#DejaVuSans-30"/>
       <use x="127.246094" xlink:href="#DejaVuSans-30"/>
      </g>
     </g>
    </g>
    <g id="xtick_6">
     <g id="line2d_11">
      <path clip-path="url(#pedda240b02)" d="M 414.72 307.584 
L 414.72 41.472 
" style="fill:none;stroke:#b0b0b0;stroke-linecap:square;stroke-width:0.8;"/>
     </g>
     <g id="line2d_12">
      <g>
       <use style="stroke:#000000;stroke-width:0.8;" x="414.72" xlink:href="#m78f537e228" y="307.584"/>
      </g>
     </g>
     <g id="text_6">
      <!-- 1000 -->
      <defs>
       <path d="M 12.40625 8.296875 
L 28.515625 8.296875 
L 28.515625 63.921875 
L 10.984375 60.40625 
L 10.984375 69.390625 
L 28.421875 72.90625 
L 38.28125 72.90625 
L 38.28125 8.296875 
L 54.390625 8.296875 
L 54.390625 0 
L 12.40625 0 
z
" id="DejaVuSans-31"/>
      </defs>
      <g transform="translate(401.995 322.182437)scale(0.1 -0.1)">
       <use xlink:href="#DejaVuSans-31"/>
       <use x="63.623047" xlink:href="#DejaVuSans-30"/>
       <use x="127.246094" xlink:href="#DejaVuSans-30"/>
       <use x="190.869141" xlink:href="#DejaVuSans-30"/>
      </g>
     </g>
    </g>
    <g id="text_7">
     <!-- Number of clients -->
     <defs>
      <path d="M 9.8125 72.90625 
L 23.09375 72.90625 
L 55.421875 11.921875 
L 55.421875 72.90625 
L 64.984375 72.90625 
L 64.984375 0 
L 51.703125 0 
L 19.390625 60.984375 
L 19.390625 0 
L 9.8125 0 
z
" id="DejaVuSans-4e"/>
      <path d="M 8.5 21.578125 
L 8.5 54.6875 
L 17.484375 54.6875 
L 17.484375 21.921875 
Q 17.484375 14.15625 20.5 10.265625 
Q 23.53125 6.390625 29.59375 6.390625 
Q 36.859375 6.390625 41.078125 11.03125 
Q 45.3125 15.671875 45.3125 23.6875 
L 45.3125 54.6875 
L 54.296875 54.6875 
L 54.296875 0 
L 45.3125 0 
L 45.3125 8.40625 
Q 42.046875 3.421875 37.71875 1 
Q 33.40625 -1.421875 27.6875 -1.421875 
Q 18.265625 -1.421875 13.375 4.4375 
Q 8.5 10.296875 8.5 21.578125 
M 31.109375 56 
z
" id="DejaVuSans-75"/>
      <path d="M 52 44.1875 
Q 55.375 50.25 60.0625 53.125 
Q 64.75 56 71.09375 56 
Q 79.640625 56 84.28125 50.015625 
Q 88.921875 44.046875 88.921875 33.015625 
L 88.921875 0 
L 79.890625 0 
L 79.890625 32.71875 
Q 79.890625 40.578125 77.09375 44.375 
Q 74.3125 48.1875 68.609375 48.1875 
Q 61.625 48.1875 57.5625 43.546875 
Q 53.515625 38.921875 53.515625 30.90625 
L 53.515625 0 
L 44.484375 0 
L 44.484375 32.71875 
Q 44.484375 40.625 41.703125 44.40625 
Q 38.921875 48.1875 33.109375 48.1875 
Q 26.21875 48.1875 22.15625 43.53125 
Q 18.109375 38.875 18.109375 30.90625 
L 18.109375 0 
L 9.078125 0 
L 9.078125 54.6875 
L 18.109375 54.6875 
L 18.109375 46.1875 
Q 21.1875 51.21875 25.484375 53.609375 
Q 29.78125 56 35.6875 56 
Q 41.65625 56 45.828125 52.96875 
Q 50 49.953125 52 44.1875 
" id="DejaVuSans-6d"/>
      <path d="M 48.6875 27.296875 
Q 48.6875 37.203125 44.609375 42.84375 
Q 40.53125 48.484375 33.40625 48.484375 
Q 26.265625 48.484375 22.1875 42.84375 
Q 18.109375 37.203125 18.109375 27.296875 
Q 18.109375 17.390625 22.1875 11.75 
Q 26.265625 6.109375 33.40625 6.109375 
Q 40.53125 6.109375 44.609375 11.75 
Q 48.6875 17.390625 48.6875 27.296875 
M 18.109375 46.390625 
Q 20.953125 51.265625 25.265625 53.625 
Q 29.59375 56 35.59375 56 
Q 45.5625 56 51.78125 48.09375 
Q 58.015625 40.1875 58.015625 27.296875 
Q 58.015625 14.40625 51.78125 6.484375 
Q 45.5625 -1.421875 35.59375 -1.421875 
Q 29.59375 -1.421875 25.265625 0.953125 
Q 20.953125 3.328125 18.109375 8.203125 
L 18.109375 0 
L 9.078125 0 
L 9.078125 75.984375 
L 18.109375 75.984375 
z
" id="DejaVuSans-62"/>
      <path d="M 56.203125 29.59375 
L 56.203125 25.203125 
L 14.890625 25.203125 
Q 15.484375 15.921875 20.484375 11.0625 
Q 25.484375 6.203125 34.421875 6.203125 
Q 39.59375 6.203125 44.453125 7.46875 
Q 49.3125 8.734375 54.109375 11.28125 
L 54.109375 2.78125 
Q 49.265625 0.734375 44.1875 -0.34375 
Q 39.109375 -1.421875 33.890625 -1.421875 
Q 20.796875 -1.421875 13.15625 6.1875 
Q 5.515625 13.8125 5.515625 26.8125 
Q 5.515625 40.234375 12.765625 48.109375 
Q 20.015625 56 32.328125 56 
Q 43.359375 56 49.78125 48.890625 
Q 56.203125 41.796875 56.203125 29.59375 
M 47.21875 32.234375 
Q 47.125 39.59375 43.09375 43.984375 
Q 39.0625 48.390625 32.421875 48.390625 
Q 24.90625 48.390625 20.390625 44.140625 
Q 15.875 39.890625 15.1875 32.171875 
z
" id="DejaVuSans-65"/>
      <path d="M 41.109375 46.296875 
Q 39.59375 47.171875 37.8125 47.578125 
Q 36.03125 48 33.890625 48 
Q 26.265625 48 22.1875 43.046875 
Q 18.109375 38.09375 18.109375 28.8125 
L 18.109375 0 
L 9.078125 0 
L 9.078125 54.6875 
L 18.109375 54.6875 
L 18.109375 46.1875 
Q 20.953125 51.171875 25.484375 53.578125 
Q 30.03125 56 36.53125 56 
Q 37.453125 56 38.578125 55.875 
Q 39.703125 55.765625 41.0625 55.515625 
z
" id="DejaVuSans-72"/>
      <path id="DejaVuSans-20"/>
      <path d="M 30.609375 48.390625 
Q 23.390625 48.390625 19.1875 42.75 
Q 14.984375 37.109375 14.984375 27.296875 
Q 14.984375 17.484375 19.15625 11.84375 
Q 23.34375 6.203125 30.609375 6.203125 
Q 37.796875 6.203125 41.984375 11.859375 
Q 46.1875 17.53125 46.1875 27.296875 
Q 46.1875 37.015625 41.984375 42.703125 
Q 37.796875 48.390625 30.609375 48.390625 
M 30.609375 56 
Q 42.328125 56 49.015625 48.375 
Q 55.71875 40.765625 55.71875 27.296875 
Q 55.71875 13.875 49.015625 6.21875 
Q 42.328125 -1.421875 30.609375 -1.421875 
Q 18.84375 -1.421875 12.171875 6.21875 
Q 5.515625 13.875 5.515625 27.296875 
Q 5.515625 40.765625 12.171875 48.375 
Q 18.84375 56 30.609375 56 
" id="DejaVuSans-6f"/>
      <path d="M 37.109375 75.984375 
L 37.109375 68.5 
L 28.515625 68.5 
Q 23.6875 68.5 21.796875 66.546875 
Q 19.921875 64.59375 19.921875 59.515625 
L 19.921875 54.6875 
L 34.71875 54.6875 
L 34.71875 47.703125 
L 19.921875 47.703125 
L 19.921875 0 
L 10.890625 0 
L 10.890625 47.703125 
L 2.296875 47.703125 
L 2.296875 54.6875 
L 10.890625 54.6875 
L 10.890625 58.5 
Q 10.890625 67.625 15.140625 71.796875 
Q 19.390625 75.984375 28.609375 75.984375 
z
" id="DejaVuSans-66"/>
      <path d="M 48.78125 52.59375 
L 48.78125 44.1875 
Q 44.96875 46.296875 41.140625 47.34375 
Q 37.3125 48.390625 33.40625 48.390625 
Q 24.65625 48.390625 19.8125 42.84375 
Q 14.984375 37.3125 14.984375 27.296875 
Q 14.984375 17.28125 19.8125 11.734375 
Q 24.65625 6.203125 33.40625 6.203125 
Q 37.3125 6.203125 41.140625 7.25 
Q 44.96875 8.296875 48.78125 10.40625 
L 48.78125 2.09375 
Q 45.015625 0.34375 40.984375 -0.53125 
Q 36.96875 -1.421875 32.421875 -1.421875 
Q 20.0625 -1.421875 12.78125 6.34375 
Q 5.515625 14.109375 5.515625 27.296875 
Q 5.515625 40.671875 12.859375 48.328125 
Q 20.21875 56 33.015625 56 
Q 37.15625 56 41.109375 55.140625 
Q 45.0625 54.296875 48.78125 52.59375 
" id="DejaVuSans-63"/>
      <path d="M 9.421875 75.984375 
L 18.40625 75.984375 
L 18.40625 0 
L 9.421875 0 
z
" id="DejaVuSans-6c"/>
      <path d="M 9.421875 54.6875 
L 18.40625 54.6875 
L 18.40625 0 
L 9.421875 0 
z
M 9.421875 75.984375 
L 18.40625 75.984375 
L 18.40625 64.59375 
L 9.421875 64.59375 
z
" id="DejaVuSans-69"/>
      <path d="M 54.890625 33.015625 
L 54.890625 0 
L 45.90625 0 
L 45.90625 32.71875 
Q 45.90625 40.484375 42.875 44.328125 
Q 39.84375 48.1875 33.796875 48.1875 
Q 26.515625 48.1875 22.3125 43.546875 
Q 18.109375 38.921875 18.109375 30.90625 
L 18.109375 0 
L 9.078125 0 
L 9.078125 54.6875 
L 18.109375 54.6875 
L 18.109375 46.1875 
Q 21.34375 51.125 25.703125 53.5625 
Q 30.078125 56 35.796875 56 
Q 45.21875 56 50.046875 50.171875 
Q 54.890625 44.34375 54.890625 33.015625 
" id="DejaVuSans-6e"/>
      <path d="M 18.3125 70.21875 
L 18.3125 54.6875 
L 36.8125 54.6875 
L 36.8125 47.703125 
L 18.3125 47.703125 
L 18.3125 18.015625 
Q 18.3125 11.328125 20.140625 9.421875 
Q 21.96875 7.515625 27.59375 7.515625 
L 36.8125 7.515625 
L 36.8125 0 
L 27.59375 0 
Q 17.1875 0 13.234375 3.875 
Q 9.28125 7.765625 9.28125 18.015625 
L 9.28125 47.703125 
L 2.6875 47.703125 
L 2.6875 54.6875 
L 9.28125 54.6875 
L 9.28125 70.21875 
z
" id="DejaVuSans-74"/>
      <path d="M 44.28125 53.078125 
L 44.28125 44.578125 
Q 40.484375 46.53125 36.375 47.5 
Q 32.28125 48.484375 27.875 48.484375 
Q 21.1875 48.484375 17.84375 46.4375 
Q 14.5 44.390625 14.5 40.28125 
Q 14.5 37.15625 16.890625 35.375 
Q 19.28125 33.59375 26.515625 31.984375 
L 29.59375 31.296875 
Q 39.15625 29.25 43.1875 25.515625 
Q 47.21875 21.78125 47.21875 15.09375 
Q 47.21875 7.46875 41.1875 3.015625 
Q 35.15625 -1.421875 24.609375 -1.421875 
Q 20.21875 -1.421875 15.453125 -0.5625 
Q 10.6875 0.296875 5.421875 2 
L 5.421875 11.28125 
Q 10.40625 8.6875 15.234375 7.390625 
Q 20.0625 6.109375 24.8125 6.109375 
Q 31.15625 6.109375 34.5625 8.28125 
Q 37.984375 10.453125 37.984375 14.40625 
Q 37.984375 18.0625 35.515625 20.015625 
Q 33.0625 21.96875 24.703125 23.78125 
L 21.578125 24.515625 
Q 13.234375 26.265625 9.515625 29.90625 
Q 5.8125 33.546875 5.8125 39.890625 
Q 5.8125 47.609375 11.28125 51.796875 
Q 16.75 56 26.8125 56 
Q 31.78125 56 36.171875 55.265625 
Q 40.578125 54.546875 44.28125 53.078125 
" id="DejaVuSans-73"/>
     </defs>
     <g transform="translate(191.738906 335.860562)scale(0.1 -0.1)">
      <use xlink:href="#DejaVuSans-4e"/>
      <use x="74.804688" xlink:href="#DejaVuSans-75"/>
      <use x="138.183594" xlink:href="#DejaVuSans-6d"/>
      <use x="235.595703" xlink:href="#DejaVuSans-62"/>
      <use x="299.072266" xlink:href="#DejaVuSans-65"/>
      <use x="360.595703" xlink:href="#DejaVuSans-72"/>
      <use x="401.708984" xlink:href="#DejaVuSans-20"/>
      <use x="433.496094" xlink:href="#DejaVuSans-6f"/>
      <use x="494.677734" xlink:href="#DejaVuSans-66"/>
      <use x="529.882812" xlink:href="#DejaVuSans-20"/>
      <use x="561.669922" xlink:href="#DejaVuSans-63"/>
      <use x="616.650391" xlink:href="#DejaVuSans-6c"/>
      <use x="644.433594" xlink:href="#DejaVuSans-69"/>
      <use x="672.216797" xlink:href="#DejaVuSans-65"/>
      <use x="733.740234" xlink:href="#DejaVuSans-6e"/>
      <use x="797.119141" xlink:href="#DejaVuSans-74"/>
      <use x="836.328125" xlink:href="#DejaVuSans-73"/>
     </g>
    </g>
   </g>
   <g id="matplotlib.axis_2">
    <g id="ytick_1">
     <g id="line2d_13">
      <path clip-path="url(#pedda240b02)" d="M 57.6 296.273631 
L 414.72 296.273631 
" style="fill:none;stroke:#b0b0b0;stroke-linecap:square;stroke-width:0.8;"/>
     </g>
     <g id="line2d_14">
      <defs>
       <path d="M 0 0 
L -3.5 0 
" id="mab74e2df07" style="stroke:#000000;stroke-width:0.8;"/>
      </defs>
      <g>
       <use style="stroke:#000000;stroke-width:0.8;" x="57.6" xlink:href="#mab74e2df07" y="296.273631"/>
      </g>
     </g>
     <g id="text_8">
      <!-- 0 -->
      <g transform="translate(44.2375 300.07285)scale(0.1 -0.1)">
       <use xlink:href="#DejaVuSans-30"/>
      </g>
     </g>
    </g>
    <g id="ytick_2">
     <g id="line2d_15">
      <path clip-path="url(#pedda240b02)" d="M 57.6 255.011479 
L 414.72 255.011479 
" style="fill:none;stroke:#b0b0b0;stroke-linecap:square;stroke-width:0.8;"/>
     </g>
     <g id="line2d_16">
      <g>
       <use style="stroke:#000000;stroke-width:0.8;" x="57.6" xlink:href="#mab74e2df07" y="255.011479"/>
      </g>
     </g>
     <g id="text_9">
      <!-- 50 -->
      <defs>
       <path d="M 10.796875 72.90625 
L 49.515625 72.90625 
L 49.515625 64.59375 
L 19.828125 64.59375 
L 19.828125 46.734375 
Q 21.96875 47.46875 24.109375 47.828125 
Q 26.265625 48.1875 28.421875 48.1875 
Q 40.625 48.1875 47.75 41.5 
Q 54.890625 34.8125 54.890625 23.390625 
Q 54.890625 11.625 47.5625 5.09375 
Q 40.234375 -1.421875 26.90625 -1.421875 
Q 22.3125 -1.421875 17.546875 -0.640625 
Q 12.796875 0.140625 7.71875 1.703125 
L 7.71875 11.625 
Q 12.109375 9.234375 16.796875 8.0625 
Q 21.484375 6.890625 26.703125 6.890625 
Q 35.15625 6.890625 40.078125 11.328125 
Q 45.015625 15.765625 45.015625 23.390625 
Q 45.015625 31 40.078125 35.4375 
Q 35.15625 39.890625 26.703125 39.890625 
Q 22.75 39.890625 18.8125 39.015625 
Q 14.890625 38.140625 10.796875 36.28125 
z
" id="DejaVuSans-35"/>
      </defs>
      <g transform="translate(37.875 258.810698)scale(0.1 -0.1)">
       <use xlink:href="#DejaVuSans-35"/>
       <use x="63.623047" xlink:href="#DejaVuSans-30"/>
      </g>
     </g>
    </g>
    <g id="ytick_3">
     <g id="line2d_17">
      <path clip-path="url(#pedda240b02)" d="M 57.6 213.749326 
L 414.72 213.749326 
" style="fill:none;stroke:#b0b0b0;stroke-linecap:square;stroke-width:0.8;"/>
     </g>
     <g id="line2d_18">
      <g>
       <use style="stroke:#000000;stroke-width:0.8;" x="57.6" xlink:href="#mab74e2df07" y="213.749326"/>
      </g>
     </g>
     <g id="text_10">
      <!-- 100 -->
      <g transform="translate(31.5125 217.548545)scale(0.1 -0.1)">
       <use xlink:href="#DejaVuSans-31"/>
       <use x="63.623047" xlink:href="#DejaVuSans-30"/>
       <use x="127.246094" xlink:href="#DejaVuSans-30"/>
      </g>
     </g>
    </g>
    <g id="ytick_4">
     <g id="line2d_19">
      <path clip-path="url(#pedda240b02)" d="M 57.6 172.487174 
L 414.72 172.487174 
" style="fill:none;stroke:#b0b0b0;stroke-linecap:square;stroke-width:0.8;"/>
     </g>
     <g id="line2d_20">
      <g>
       <use style="stroke:#000000;stroke-width:0.8;" x="57.6" xlink:href="#mab74e2df07" y="172.487174"/>
      </g>
     </g>
     <g id="text_11">
      <!-- 150 -->
      <g transform="translate(31.5125 176.286393)scale(0.1 -0.1)">
       <use xlink:href="#DejaVuSans-31"/>
       <use x="63.623047" xlink:href="#DejaVuSans-35"/>
       <use x="127.246094" xlink:href="#DejaVuSans-30"/>
      </g>
     </g>
    </g>
    <g id="ytick_5">
     <g id="line2d_21">
      <path clip-path="url(#pedda240b02)" d="M 57.6 131.225021 
L 414.72 131.225021 
" style="fill:none;stroke:#b0b0b0;stroke-linecap:square;stroke-width:0.8;"/>
     </g>
     <g id="line2d_22">
      <g>
       <use style="stroke:#000000;stroke-width:0.8;" x="57.6" xlink:href="#mab74e2df07" y="131.225021"/>
      </g>
     </g>
     <g id="text_12">
      <!-- 200 -->
      <g transform="translate(31.5125 135.02424)scale(0.1 -0.1)">
       <use xlink:href="#DejaVuSans-32"/>
       <use x="63.623047" xlink:href="#DejaVuSans-30"/>
       <use x="127.246094" xlink:href="#DejaVuSans-30"/>
      </g>
     </g>
    </g>
    <g id="ytick_6">
     <g id="line2d_23">
      <path clip-path="url(#pedda240b02)" d="M 57.6 89.962869 
L 414.72 89.962869 
" style="fill:none;stroke:#b0b0b0;stroke-linecap:square;stroke-width:0.8;"/>
     </g>
     <g id="line2d_24">
      <g>
       <use style="stroke:#000000;stroke-width:0.8;" x="57.6" xlink:href="#mab74e2df07" y="89.962869"/>
      </g>
     </g>
     <g id="text_13">
      <!-- 250 -->
      <g transform="translate(31.5125 93.762088)scale(0.1 -0.1)">
       <use xlink:href="#DejaVuSans-32"/>
       <use x="63.623047" xlink:href="#DejaVuSans-35"/>
       <use x="127.246094" xlink:href="#DejaVuSans-30"/>
      </g>
     </g>
    </g>
    <g id="ytick_7">
     <g id="line2d_25">
      <path clip-path="url(#pedda240b02)" d="M 57.6 48.700716 
L 414.72 48.700716 
" style="fill:none;stroke:#b0b0b0;stroke-linecap:square;stroke-width:0.8;"/>
     </g>
     <g id="line2d_26">
      <g>
       <use style="stroke:#000000;stroke-width:0.8;" x="57.6" xlink:href="#mab74e2df07" y="48.700716"/>
      </g>
     </g>
     <g id="text_14">
      <!-- 300 -->
      <defs>
       <path d="M 40.578125 39.3125 
Q 47.65625 37.796875 51.625 33 
Q 55.609375 28.21875 55.609375 21.1875 
Q 55.609375 10.40625 48.1875 4.484375 
Q 40.765625 -1.421875 27.09375 -1.421875 
Q 22.515625 -1.421875 17.65625 -0.515625 
Q 12.796875 0.390625 7.625 2.203125 
L 7.625 11.71875 
Q 11.71875 9.328125 16.59375 8.109375 
Q 21.484375 6.890625 26.8125 6.890625 
Q 36.078125 6.890625 40.9375 10.546875 
Q 45.796875 14.203125 45.796875 21.1875 
Q 45.796875 27.640625 41.28125 31.265625 
Q 36.765625 34.90625 28.71875 34.90625 
L 20.21875 34.90625 
L 20.21875 43.015625 
L 29.109375 43.015625 
Q 36.375 43.015625 40.234375 45.921875 
Q 44.09375 48.828125 44.09375 54.296875 
Q 44.09375 59.90625 40.109375 62.90625 
Q 36.140625 65.921875 28.71875 65.921875 
Q 24.65625 65.921875 20.015625 65.03125 
Q 15.375 64.15625 9.8125 62.3125 
L 9.8125 71.09375 
Q 15.4375 72.65625 20.34375 73.4375 
Q 25.25 74.21875 29.59375 74.21875 
Q 40.828125 74.21875 47.359375 69.109375 
Q 53.90625 64.015625 53.90625 55.328125 
Q 53.90625 49.265625 50.4375 45.09375 
Q 46.96875 40.921875 40.578125 39.3125 
" id="DejaVuSans-33"/>
      </defs>
      <g transform="translate(31.5125 52.499935)scale(0.1 -0.1)">
       <use xlink:href="#DejaVuSans-33"/>
       <use x="63.623047" xlink:href="#DejaVuSans-30"/>
       <use x="127.246094" xlink:href="#DejaVuSans-30"/>
      </g>
     </g>
    </g>
    <g id="text_15">
     <!-- Successful download requests per second -->
     <defs>
      <path d="M 53.515625 70.515625 
L 53.515625 60.890625 
Q 47.90625 63.578125 42.921875 64.890625 
Q 37.9375 66.21875 33.296875 66.21875 
Q 25.25 66.21875 20.875 63.09375 
Q 16.5 59.96875 16.5 54.203125 
Q 16.5 49.359375 19.40625 46.890625 
Q 22.3125 44.4375 30.421875 42.921875 
L 36.375 41.703125 
Q 47.40625 39.59375 52.65625 34.296875 
Q 57.90625 29 57.90625 20.125 
Q 57.90625 9.515625 50.796875 4.046875 
Q 43.703125 -1.421875 29.984375 -1.421875 
Q 24.8125 -1.421875 18.96875 -0.25 
Q 13.140625 0.921875 6.890625 3.21875 
L 6.890625 13.375 
Q 12.890625 10.015625 18.65625 8.296875 
Q 24.421875 6.59375 29.984375 6.59375 
Q 38.421875 6.59375 43.015625 9.90625 
Q 47.609375 13.234375 47.609375 19.390625 
Q 47.609375 24.75 44.3125 27.78125 
Q 41.015625 30.8125 33.5 32.328125 
L 27.484375 33.5 
Q 16.453125 35.6875 11.515625 40.375 
Q 6.59375 45.0625 6.59375 53.421875 
Q 6.59375 63.09375 13.40625 68.65625 
Q 20.21875 74.21875 32.171875 74.21875 
Q 37.3125 74.21875 42.625 73.28125 
Q 47.953125 72.359375 53.515625 70.515625 
" id="DejaVuSans-53"/>
      <path d="M 45.40625 46.390625 
L 45.40625 75.984375 
L 54.390625 75.984375 
L 54.390625 0 
L 45.40625 0 
L 45.40625 8.203125 
Q 42.578125 3.328125 38.25 0.953125 
Q 33.9375 -1.421875 27.875 -1.421875 
Q 17.96875 -1.421875 11.734375 6.484375 
Q 5.515625 14.40625 5.515625 27.296875 
Q 5.515625 40.1875 11.734375 48.09375 
Q 17.96875 56 27.875 56 
Q 33.9375 56 38.25 53.625 
Q 42.578125 51.265625 45.40625 46.390625 
M 14.796875 27.296875 
Q 14.796875 17.390625 18.875 11.75 
Q 22.953125 6.109375 30.078125 6.109375 
Q 37.203125 6.109375 41.296875 11.75 
Q 45.40625 17.390625 45.40625 27.296875 
Q 45.40625 37.203125 41.296875 42.84375 
Q 37.203125 48.484375 30.078125 48.484375 
Q 22.953125 48.484375 18.875 42.84375 
Q 14.796875 37.203125 14.796875 27.296875 
" id="DejaVuSans-64"/>
      <path d="M 4.203125 54.6875 
L 13.1875 54.6875 
L 24.421875 12.015625 
L 35.59375 54.6875 
L 46.1875 54.6875 
L 57.421875 12.015625 
L 68.609375 54.6875 
L 77.59375 54.6875 
L 63.28125 0 
L 52.6875 0 
L 40.921875 44.828125 
L 29.109375 0 
L 18.5 0 
z
" id="DejaVuSans-77"/>
      <path d="M 34.28125 27.484375 
Q 23.390625 27.484375 19.1875 25 
Q 14.984375 22.515625 14.984375 16.5 
Q 14.984375 11.71875 18.140625 8.90625 
Q 21.296875 6.109375 26.703125 6.109375 
Q 34.1875 6.109375 38.703125 11.40625 
Q 43.21875 16.703125 43.21875 25.484375 
L 43.21875 27.484375 
z
M 52.203125 31.203125 
L 52.203125 0 
L 43.21875 0 
L 43.21875 8.296875 
Q 40.140625 3.328125 35.546875 0.953125 
Q 30.953125 -1.421875 24.3125 -1.421875 
Q 15.921875 -1.421875 10.953125 3.296875 
Q 6 8.015625 6 15.921875 
Q 6 25.140625 12.171875 29.828125 
Q 18.359375 34.515625 30.609375 34.515625 
L 43.21875 34.515625 
L 43.21875 35.40625 
Q 43.21875 41.609375 39.140625 45 
Q 35.0625 48.390625 27.6875 48.390625 
Q 23 48.390625 18.546875 47.265625 
Q 14.109375 46.140625 10.015625 43.890625 
L 10.015625 52.203125 
Q 14.9375 54.109375 19.578125 55.046875 
Q 24.21875 56 28.609375 56 
Q 40.484375 56 46.34375 49.84375 
Q 52.203125 43.703125 52.203125 31.203125 
" id="DejaVuSans-61"/>
      <path d="M 14.796875 27.296875 
Q 14.796875 17.390625 18.875 11.75 
Q 22.953125 6.109375 30.078125 6.109375 
Q 37.203125 6.109375 41.296875 11.75 
Q 45.40625 17.390625 45.40625 27.296875 
Q 45.40625 37.203125 41.296875 42.84375 
Q 37.203125 48.484375 30.078125 48.484375 
Q 22.953125 48.484375 18.875 42.84375 
Q 14.796875 37.203125 14.796875 27.296875 
M 45.40625 8.203125 
Q 42.578125 3.328125 38.25 0.953125 
Q 33.9375 -1.421875 27.875 -1.421875 
Q 17.96875 -1.421875 11.734375 6.484375 
Q 5.515625 14.40625 5.515625 27.296875 
Q 5.515625 40.1875 11.734375 48.09375 
Q 17.96875 56 27.875 56 
Q 33.9375 56 38.25 53.625 
Q 42.578125 51.265625 45.40625 46.390625 
L 45.40625 54.6875 
L 54.390625 54.6875 
L 54.390625 -20.796875 
L 45.40625 -20.796875 
z
" id="DejaVuSans-71"/>
      <path d="M 18.109375 8.203125 
L 18.109375 -20.796875 
L 9.078125 -20.796875 
L 9.078125 54.6875 
L 18.109375 54.6875 
L 18.109375 46.390625 
Q 20.953125 51.265625 25.265625 53.625 
Q 29.59375 56 35.59375 56 
Q 45.5625 56 51.78125 48.09375 
Q 58.015625 40.1875 58.015625 27.296875 
Q 58.015625 14.40625 51.78125 6.484375 
Q 45.5625 -1.421875 35.59375 -1.421875 
Q 29.59375 -1.421875 25.265625 0.953125 
Q 20.953125 3.328125 18.109375 8.203125 
M 48.6875 27.296875 
Q 48.6875 37.203125 44.609375 42.84375 
Q 40.53125 48.484375 33.40625 48.484375 
Q 26.265625 48.484375 22.1875 42.84375 
Q 18.109375 37.203125 18.109375 27.296875 
Q 18.109375 17.390625 22.1875 11.75 
Q 26.265625 6.109375 33.40625 6.109375 
Q 40.53125 6.109375 44.609375 11.75 
Q 48.6875 17.390625 48.6875 27.296875 
" id="DejaVuSans-70"/>
     </defs>
     <g transform="translate(25.432812 279.366281)rotate(-90)scale(0.1 -0.1)">
      <use xlink:href="#DejaVuSans-53"/>
      <use x="63.476562" xlink:href="#DejaVuSans-75"/>
      <use x="126.855469" xlink:href="#DejaVuSans-63"/>
      <use x="181.835938" xlink:href="#DejaVuSans-63"/>
      <use x="236.816406" xlink:href="#DejaVuSans-65"/>
      <use x="298.339844" xlink:href="#DejaVuSans-73"/>
      <use x="350.439453" xlink:href="#DejaVuSans-73"/>
      <use x="402.539062" xlink:href="#DejaVuSans-66"/>
      <use x="437.744141" xlink:href="#DejaVuSans-75"/>
      <use x="501.123047" xlink:href="#DejaVuSans-6c"/>
      <use x="528.90625" xlink:href="#DejaVuSans-20"/>
      <use x="560.693359" xlink:href="#DejaVuSans-64"/>
      <use x="624.169922" xlink:href="#DejaVuSans-6f"/>
      <use x="685.351562" xlink:href="#DejaVuSans-77"/>
      <use x="767.138672" xlink:href="#DejaVuSans-6e"/>
      <use x="830.517578" xlink:href="#DejaVuSans-6c"/>
      <use x="858.300781" xlink:href="#DejaVuSans-6f"/>
      <use x="919.482422" xlink:href="#DejaVuSans-61"/>
      <use x="980.761719" xlink:href="#DejaVuSans-64"/>
      <use x="1044.238281" xlink:href="#DejaVuSans-20"/>
      <use x="1076.025391" xlink:href="#DejaVuSans-72"/>
      <use x="1117.107422" xlink:href="#DejaVuSans-65"/>
      <use x="1178.630859" xlink:href="#DejaVuSans-71"/>
      <use x="1242.107422" xlink:href="#DejaVuSans-75"/>
      <use x="1305.486328" xlink:href="#DejaVuSans-65"/>
      <use x="1367.009766" xlink:href="#DejaVuSans-73"/>
      <use x="1419.109375" xlink:href="#DejaVuSans-74"/>
      <use x="1458.318359" xlink:href="#DejaVuSans-73"/>
      <use x="1510.417969" xlink:href="#DejaVuSans-20"/>
      <use x="1542.205078" xlink:href="#DejaVuSans-70"/>
      <use x="1605.681641" xlink:href="#DejaVuSans-65"/>
      <use x="1667.205078" xlink:href="#DejaVuSans-72"/>
      <use x="1708.318359" xlink:href="#DejaVuSans-20"/>
      <use x="1740.105469" xlink:href="#DejaVuSans-73"/>
      <use x="1792.205078" xlink:href="#DejaVuSans-65"/>
      <use x="1853.728516" xlink:href="#DejaVuSans-63"/>
      <use x="1908.708984" xlink:href="#DejaVuSans-6f"/>
      <use x="1969.890625" xlink:href="#DejaVuSans-6e"/>
      <use x="2033.269531" xlink:href="#DejaVuSans-64"/>
     </g>
    </g>
   </g>
   <g id="line2d_27">
    <path clip-path="url(#pedda240b02)" d="M 57.6 295.473971 
L 57.95712 295.488 
L 59.02848 293.003193 
L 59.74272 291.605231 
L 61.1712 288.247317 
L 61.52832 287.825618 
L 62.59968 284.823384 
L 62.9568 284.565908 
L 63.31392 283.870228 
L 63.67104 282.528383 
L 64.02816 282.227169 
L 64.38528 281.66848 
L 64.7424 280.084013 
L 65.09952 279.818285 
L 65.81376 277.845954 
L 66.528 276.986051 
L 66.88512 275.861245 
L 67.24224 274.328768 
L 67.95648 272.817748 
L 68.3136 273.081001 
L 68.67072 271.978476 
L 69.02784 271.422262 
L 69.74208 269.417747 
L 70.0992 269.151193 
L 70.81344 266.229008 
L 71.17056 265.169396 
L 71.52768 264.91357 
L 71.8848 264.86323 
L 72.24192 263.535414 
L 72.59904 263.962065 
L 73.31328 261.996336 
L 73.6704 259.436432 
L 74.02752 260.590122 
L 74.74176 259.010607 
L 75.09888 255.878809 
L 75.456 257.05313 
L 75.81312 256.908713 
L 76.17024 254.941333 
L 76.52736 253.955993 
L 76.88448 254.181284 
L 77.2416 251.193079 
L 77.59872 250.836574 
L 77.95584 251.259924 
L 78.31296 249.850409 
L 78.67008 250.655021 
L 79.0272 250.048467 
L 79.38432 247.931719 
L 79.74144 248.081088 
L 80.09856 247.831864 
L 80.45568 244.899776 
L 80.8128 244.784242 
L 81.16992 244.38895 
L 81.52704 244.798271 
L 81.88416 240.624192 
L 82.24128 243.038853 
L 82.5984 242.23094 
L 82.95552 238.042006 
L 83.31264 237.720987 
L 83.66976 236.88254 
L 84.02688 237.484142 
L 84.384 236.000355 
L 84.74112 237.576569 
L 85.09824 237.17385 
L 85.81248 232.927975 
L 87.24096 227.884089 
L 87.59808 230.141129 
L 87.9552 228.347051 
L 88.31232 229.426469 
L 88.66944 226.824477 
L 89.02656 227.20574 
L 89.38368 227.001905 
L 89.7408 226.961468 
L 90.09792 226.417632 
L 90.81216 220.772145 
L 91.16928 222.637194 
L 91.5264 223.072922 
L 91.88352 218.458989 
L 92.24064 218.892241 
L 92.59776 216.203599 
L 92.95488 216.44457 
L 93.312 217.394425 
L 93.66912 213.711365 
L 94.02624 212.09884 
L 94.38336 212.332384 
L 94.74048 215.993162 
L 95.0976 214.906317 
L 95.45472 209.612383 
L 95.81184 211.761316 
L 96.16896 209.667674 
L 96.52608 211.598743 
L 96.8832 207.409809 
L 97.24032 210.372432 
L 97.59744 205.231168 
L 97.95456 207.779518 
L 98.31168 207.93879 
L 98.6688 207.848013 
L 99.02592 201.570389 
L 99.38304 206.012673 
L 99.74016 199.296845 
L 100.09728 200.833447 
L 100.4544 197.383106 
L 100.81152 200.172428 
L 101.52576 197.703301 
L 101.88288 199.358738 
L 102.59712 194.753057 
L 102.95424 192.634658 
L 103.31136 195.116164 
L 103.66848 196.538883 
L 104.0256 189.563103 
L 104.38272 195.719416 
L 104.73984 192.396988 
L 105.09696 191.871308 
L 105.45408 188.810481 
L 105.8112 188.453151 
L 106.16832 191.095579 
L 106.52544 184.30713 
L 106.88256 185.546645 
L 107.23968 188.333491 
L 107.5968 185.640723 
L 107.95392 185.420383 
L 108.31104 184.642179 
L 108.66816 181.105187 
L 109.02528 179.94242 
L 109.3824 180.298925 
L 109.73952 179.988633 
L 110.09664 181.153051 
L 110.45376 178.395089 
L 110.81088 180.602614 
L 111.168 180.718973 
L 111.52512 171.888873 
L 111.88224 177.984118 
L 112.23936 170.780571 
L 112.59648 170.840814 
L 112.9536 172.936106 
L 113.31072 170.644406 
L 113.66784 170.792125 
L 114.02496 174.51067 
L 114.38208 174.217709 
L 114.7392 166.07421 
L 115.09632 171.426737 
L 115.45344 164.78353 
L 115.81056 168.868483 
L 116.16768 169.119357 
L 116.5248 160.737363 
L 116.88192 159.341052 
L 117.23904 159.963285 
L 117.59616 157.865518 
L 117.95328 162.703918 
L 118.3104 157.140954 
L 118.66752 161.904257 
L 119.02464 162.876393 
L 119.38176 162.311102 
L 119.73888 160.691975 
L 120.096 153.898574 
L 120.45312 156.571536 
L 120.81024 150.706534 
L 121.16736 156.824886 
L 121.52448 149.568524 
L 121.8816 156.422993 
L 122.23872 149.309398 
L 122.59584 155.015953 
L 122.95296 147.241339 
L 123.31008 145.842552 
L 123.6672 152.869496 
L 124.73856 149.576776 
L 125.09568 143.720026 
L 125.80992 146.453231 
L 126.16704 147.021824 
L 126.52416 148.017067 
L 126.88128 144.547745 
L 127.2384 142.245317 
L 127.59552 135.488227 
L 127.95264 143.101094 
L 128.30976 139.269491 
L 128.66688 140.027889 
L 129.024 137.925995 
L 129.38112 130.771138 
L 129.73824 134.27677 
L 130.09536 131.059148 
L 130.45248 132.354779 
L 130.8096 131.634342 
L 131.16672 126.85701 
L 131.52384 129.071137 
L 131.88096 133.238614 
L 132.23808 130.764536 
L 132.5952 123.967009 
L 132.95232 130.058128 
L 133.30944 128.2657 
L 133.66656 125.751184 
L 134.3808 131.167254 
L 134.73792 129.375652 
L 135.09504 119.502444 
L 135.45216 117.856909 
L 135.80928 122.13662 
L 136.1664 121.468173 
L 136.52352 114.699529 
L 136.88064 115.608947 
L 137.23776 123.168174 
L 137.59488 113.41215 
L 137.952 118.392492 
L 138.30912 115.291229 
L 138.66624 119.315939 
L 139.02336 120.16924 
L 139.38048 116.43419 
L 139.7376 111.198023 
L 140.09472 115.037054 
L 140.45184 115.216957 
L 140.80896 112.12147 
L 141.16608 111.277246 
L 141.5232 115.645258 
L 141.88032 104.147147 
L 142.59456 101.790252 
L 142.95168 99.151125 
L 143.3088 111.524819 
L 143.66592 104.865933 
L 144.02304 108.489575 
L 144.38016 102.393505 
L 144.73728 102.117049 
L 145.0944 100.500397 
L 145.45152 100.213213 
L 145.80864 106.235837 
L 146.16576 101.054136 
L 146.52288 90.874763 
L 146.88 101.357825 
L 147.23712 91.355879 
L 147.59424 89.360442 
L 147.95136 98.594911 
L 148.30848 95.084327 
L 148.6656 96.899037 
L 149.37984 94.117968 
L 149.73696 90.887141 
L 150.09408 95.163551 
L 150.4512 86.080926 
L 150.80832 92.449326 
L 151.16544 80.090486 
L 151.52256 83.336993 
L 151.87968 83.137284 
L 152.2368 85.437236 
L 152.59392 88.545101 
L 152.95104 88.411412 
L 153.30816 83.639031 
L 153.66528 74.501115 
L 154.37952 84.139129 
L 154.73664 84.110245 
L 155.09376 85.759081 
L 155.45088 73.370532 
L 155.808 71.937085 
L 156.16512 68.872958 
L 156.52224 80.370244 
L 157.5936 69.912764 
L 157.95072 75.304902 
L 158.30784 69.061113 
L 158.66496 70.200774 
L 159.02208 67.351209 
L 159.3792 72.686406 
L 159.73632 70.712424 
L 160.09344 66.906403 
L 160.45056 73.427474 
L 161.1648 60.386983 
L 161.52192 56.648632 
L 162.23616 61.196547 
L 162.59328 55.40169 
L 162.9504 63.546014 
L 163.30752 65.167616 
L 163.66464 63.409023 
L 164.02176 55.84237 
L 164.37888 53.568 
L 164.736 58.544216 
L 165.09312 53.72067 
L 165.45024 59.102905 
L 165.80736 55.509797 
L 166.16448 60.92009 
L 166.5216 61.896353 
L 166.87872 70.08689 
L 167.23584 69.011598 
L 167.59296 62.659703 
L 167.95008 58.653973 
L 168.3072 62.053974 
L 168.66432 62.823926 
L 169.02144 61.872421 
L 169.37856 65.643782 
L 169.73568 65.020723 
L 170.44992 75.763737 
L 170.80704 72.867959 
L 171.16416 68.256501 
L 171.52128 69.492715 
L 171.8784 76.066601 
L 172.23552 72.638542 
L 172.59264 74.221358 
L 172.94976 81.653497 
L 173.30688 75.544222 
L 173.664 73.056115 
L 174.02112 73.661018 
L 174.37824 82.402817 
L 174.73536 85.337382 
L 175.09248 75.833057 
L 175.4496 84.157284 
L 175.80672 86.102382 
L 176.16384 74.896407 
L 176.52096 76.997475 
L 177.2352 83.055585 
L 177.59232 89.446267 
L 177.94944 89.674034 
L 178.30656 79.011068 
L 178.66368 88.899956 
L 179.37792 85.267236 
L 179.73504 92.816559 
L 180.44928 81.636167 
L 180.8064 83.283352 
L 181.16352 91.457384 
L 181.52064 95.298891 
L 181.87776 95.726366 
L 182.23488 85.783838 
L 182.592 96.694377 
L 182.94912 95.189133 
L 183.30624 91.684326 
L 183.66336 97.41894 
L 184.02048 96.966707 
L 184.3776 99.739523 
L 184.73472 93.646754 
L 185.09184 101.685446 
L 185.44896 93.82088 
L 185.80608 89.721073 
L 186.52032 99.49195 
L 186.87744 91.217238 
L 187.23456 101.12098 
L 187.59168 92.616025 
L 187.9488 98.643601 
L 188.30592 95.362434 
L 188.66304 96.716658 
L 189.02016 99.081805 
L 189.37728 97.629377 
L 189.7344 108.410352 
L 190.44864 104.822195 
L 191.16288 98.005688 
L 191.52 103.386272 
L 191.87712 112.348412 
L 192.23424 100.079524 
L 192.59136 107.846711 
L 192.94848 111.636227 
L 193.3056 110.972732 
L 193.66272 114.270403 
L 194.01984 113.943607 
L 194.37696 108.067051 
L 194.73408 112.591859 
L 195.0912 104.615885 
L 195.44832 114.096277 
L 195.80544 112.69914 
L 196.51968 114.137539 
L 196.8768 107.099041 
L 197.23392 116.930987 
L 197.59104 119.417444 
L 197.94816 120.515842 
L 198.30528 117.002783 
L 198.6624 111.020596 
L 199.01952 118.551764 
L 199.37664 121.421959 
L 199.73376 111.737732 
L 200.09088 111.953121 
L 200.448 118.873609 
L 200.80512 116.671035 
L 201.16224 115.333316 
L 201.51936 123.599776 
L 201.87648 121.749581 
L 202.2336 112.924432 
L 202.94784 121.171085 
L 203.30496 126.67133 
L 203.66208 126.717544 
L 204.0192 120.029774 
L 204.37632 121.20492 
L 204.73344 118.564143 
L 205.09056 128.901137 
L 205.8048 117.780987 
L 206.16192 122.621863 
L 206.51904 130.444342 
L 207.23328 120.229483 
L 207.5904 130.650652 
L 207.94752 120.633852 
L 208.30464 127.727641 
L 208.66176 123.701281 
L 209.01888 126.707641 
L 209.376 132.623808 
L 209.73312 122.402348 
L 210.09024 128.7757 
L 210.44736 125.486281 
L 210.80448 133.689197 
L 211.1616 135.615314 
L 211.87584 127.645942 
L 212.23296 129.043904 
L 212.59008 135.418907 
L 212.9472 126.848758 
L 213.30432 135.083033 
L 213.66144 127.076525 
L 214.01856 128.16337 
L 214.37568 137.546383 
L 215.08992 133.008372 
L 215.44704 132.272255 
L 215.80416 134.602741 
L 216.16128 135.891771 
L 216.5184 133.763469 
L 216.87552 133.76677 
L 217.23264 132.594925 
L 217.58976 131.996624 
L 217.94688 142.285754 
L 218.304 139.901627 
L 218.66112 135.626043 
L 219.01824 139.880171 
L 219.37536 134.578809 
L 219.73248 136.320897 
L 220.0896 138.660461 
L 220.44672 142.666191 
L 220.80384 138.030801 
L 221.16096 140.090608 
L 221.51808 136.624587 
L 221.8752 137.819539 
L 222.23232 144.501532 
L 222.58944 138.403811 
L 222.94656 136.611383 
L 223.30368 146.435076 
L 223.6608 137.589296 
L 224.01792 143.753036 
L 224.37504 145.215367 
L 224.73216 141.738618 
L 225.08928 140.804443 
L 225.4464 142.805657 
L 225.80352 141.144443 
L 226.16064 142.1009 
L 226.51776 140.679831 
L 226.87488 150.352505 
L 227.232 147.682844 
L 227.58912 146.575367 
L 227.94624 141.602453 
L 228.30336 145.070124 
L 228.66048 142.509395 
L 229.0176 142.5259 
L 229.37472 143.569832 
L 229.73184 149.517359 
L 230.08896 145.138619 
L 230.44608 147.867698 
L 230.8032 148.431339 
L 231.16032 151.077894 
L 231.51744 146.059591 
L 231.87456 144.567551 
L 232.23168 153.149254 
L 232.5888 146.523377 
L 232.94592 151.243767 
L 233.30304 149.002407 
L 233.66016 151.346923 
L 234.01728 149.093184 
L 234.3744 156.176245 
L 234.73152 153.18804 
L 235.44576 149.618039 
L 235.80288 152.923137 
L 236.16 158.127945 
L 236.51712 149.821874 
L 236.87424 156.866148 
L 237.23136 156.595469 
L 237.58848 158.358188 
L 237.9456 156.757216 
L 238.65984 154.979643 
L 239.01696 158.000857 
L 239.7312 150.683427 
L 240.08832 156.919789 
L 240.44544 155.242895 
L 240.80256 159.398819 
L 241.15968 155.032458 
L 241.5168 154.20639 
L 242.23104 162.499257 
L 242.58816 160.599548 
L 242.94528 160.560761 
L 243.3024 158.89212 
L 243.65952 159.884062 
L 244.01664 162.067655 
L 244.37376 157.393479 
L 244.73088 158.125469 
L 245.088 155.496245 
L 245.44512 161.269645 
L 245.80224 158.171683 
L 246.15936 161.702073 
L 246.51648 159.529208 
L 246.8736 162.935811 
L 247.23072 162.521539 
L 247.58784 164.003675 
L 247.94496 161.394257 
L 248.30208 161.082315 
L 248.6592 165.640132 
L 249.01632 162.420859 
L 249.37344 162.398578 
L 249.73056 164.609404 
L 250.08768 160.541781 
L 250.4448 167.022414 
L 250.80192 162.052801 
L 251.15904 161.159063 
L 251.51616 161.244888 
L 251.87328 167.084308 
L 252.2304 168.87591 
L 252.58752 160.358577 
L 252.94464 163.619937 
L 253.30176 169.317415 
L 253.65888 164.842122 
L 254.016 167.982997 
L 254.37312 169.45193 
L 254.73024 162.193917 
L 255.08736 170.925814 
L 255.8016 164.436103 
L 256.15872 165.683045 
L 256.51584 171.154406 
L 256.87296 163.626539 
L 257.23008 167.025715 
L 257.5872 165.223385 
L 257.94432 165.401637 
L 258.30144 169.760571 
L 258.65856 170.188047 
L 259.01568 173.121786 
L 259.3728 165.601346 
L 259.72992 169.891785 
L 260.08704 166.575958 
L 260.44416 169.156493 
L 260.80128 169.416445 
L 261.1584 173.743194 
L 261.51552 169.697027 
L 261.87264 167.973094 
L 262.22976 172.162028 
L 262.58688 167.369017 
L 262.944 176.092661 
L 263.30112 173.656543 
L 263.65824 172.157077 
L 264.01536 168.306493 
L 264.37248 169.811736 
L 264.7296 168.917998 
L 265.08672 172.11664 
L 265.44384 171.982125 
L 265.80096 174.905961 
L 266.15808 173.796009 
L 266.5152 170.254891 
L 266.87232 172.280038 
L 267.22944 175.75101 
L 267.58656 171.437465 
L 267.94368 177.758001 
L 268.3008 178.390137 
L 268.65792 174.569262 
L 269.01504 177.80504 
L 269.37216 173.892563 
L 269.72928 175.411835 
L 270.0864 177.616059 
L 270.44352 172.058048 
L 270.80064 177.455962 
L 271.15776 172.16863 
L 271.51488 174.042757 
L 271.872 176.568826 
L 272.22912 174.716981 
L 272.58624 175.731204 
L 272.94336 176.060476 
L 273.30048 180.451595 
L 273.6576 179.439847 
L 274.01472 181.116741 
L 274.37184 180.201546 
L 274.72896 174.637757 
L 275.08608 179.506691 
L 275.4432 176.349311 
L 275.80032 182.858829 
L 276.15744 179.467905 
L 276.87168 175.750185 
L 277.2288 182.192857 
L 277.58592 178.335671 
L 277.94304 181.973343 
L 278.30016 178.447904 
L 278.65728 182.074022 
L 279.0144 178.367031 
L 279.37152 183.002421 
L 279.72864 176.890671 
L 280.08576 181.054847 
L 280.44288 178.573341 
L 281.15712 185.842082 
L 281.51424 180.479653 
L 281.87136 185.059752 
L 282.22848 186.418927 
L 282.94272 183.067615 
L 283.29984 179.322662 
L 283.65696 185.73315 
L 284.01408 182.045139 
L 284.3712 182.887712 
L 284.72832 183.393586 
L 285.08544 184.109072 
L 285.44256 181.188537 
L 286.1568 187.99019 
L 286.51392 185.725723 
L 286.87104 184.350868 
L 287.22816 183.643635 
L 287.58528 186.612034 
L 287.9424 181.598682 
L 288.29952 186.919024 
L 288.65664 184.075237 
L 289.01376 188.019073 
L 289.728 182.809314 
L 290.08512 188.365675 
L 290.44224 188.196501 
L 290.79936 184.253489 
L 291.15648 184.576159 
L 291.5136 189.63655 
L 291.87072 186.866209 
L 292.58496 190.881016 
L 292.94208 190.259608 
L 293.2992 189.160385 
L 294.01344 185.957616 
L 294.37056 189.503686 
L 294.72768 190.142424 
L 295.0848 191.763201 
L 295.44192 192.255871 
L 295.79904 187.626258 
L 296.15616 190.653249 
L 296.51328 191.020482 
L 296.8704 190.603735 
L 297.22752 190.675531 
L 297.58464 191.544512 
L 297.94176 187.018879 
L 298.29888 191.014706 
L 298.656 187.88951 
L 299.01312 186.657422 
L 299.37024 193.662085 
L 299.72736 194.227377 
L 300.08448 192.501794 
L 300.4416 192.83024 
L 300.79872 192.119706 
L 301.15584 194.787717 
L 301.51296 188.420967 
L 301.87008 188.403637 
L 302.2272 191.923298 
L 302.58432 189.089414 
L 302.94144 190.63757 
L 303.29856 190.24723 
L 303.65568 195.577474 
L 304.0128 192.596697 
L 304.36992 192.475386 
L 304.72704 196.231892 
L 305.08416 192.519949 
L 305.44128 191.590725 
L 305.7984 191.951357 
L 306.15552 191.42155 
L 306.51264 193.786697 
L 306.86976 193.650532 
L 307.22688 195.277911 
L 307.584 193.053056 
L 307.94112 193.607619 
L 308.29824 190.821599 
L 308.65536 195.349707 
L 309.01248 193.292376 
L 309.3696 196.358154 
L 309.72672 194.416357 
L 310.08384 195.199513 
L 310.44096 193.866746 
L 310.79808 194.809998 
L 311.1552 197.508543 
L 311.51232 196.572718 
L 311.86944 197.019174 
L 312.22656 194.176212 
L 312.58368 199.372767 
L 312.9408 193.71325 
L 313.29792 198.626748 
L 313.65504 197.334417 
L 314.01216 199.108689 
L 314.36928 200.176554 
L 314.7264 199.862136 
L 315.08352 194.06893 
L 315.44064 197.436747 
L 315.79776 195.667426 
L 316.15488 200.086602 
L 316.512 194.740678 
L 316.86912 194.672183 
L 317.22624 195.856407 
L 317.94048 201.159418 
L 318.2976 200.250001 
L 318.65472 195.523834 
L 319.01184 197.351747 
L 319.36896 197.855971 
L 320.0832 202.035001 
L 320.44032 201.668593 
L 320.79744 201.670244 
L 321.15456 197.050533 
L 321.51168 197.68432 
L 321.8688 201.118982 
L 322.22592 196.259125 
L 322.58304 200.254952 
L 322.94016 197.724757 
L 323.29728 197.081893 
L 323.6544 200.208738 
L 324.01152 199.989224 
L 324.36864 201.767623 
L 324.72576 200.53801 
L 325.08288 200.429904 
L 325.44 203.650002 
L 325.79712 200.124564 
L 326.15424 199.41568 
L 326.51136 202.023448 
L 326.86848 199.921554 
L 327.2256 204.786362 
L 327.93984 199.183787 
L 328.29696 200.059369 
L 328.65408 199.137573 
L 329.0112 203.274516 
L 329.36832 200.343253 
L 329.72544 199.94301 
L 330.08256 201.350875 
L 330.43968 200.515729 
L 330.7968 199.226699 
L 331.15392 200.968787 
L 331.51104 205.817915 
L 332.22528 200.042865 
L 332.5824 203.462672 
L 332.93952 201.243593 
L 333.29664 202.847866 
L 333.65376 200.675001 
L 334.01088 201.86005 
L 334.368 203.820002 
L 334.72512 203.899225 
L 335.08224 200.966312 
L 335.43936 202.826409 
L 335.79648 206.317188 
L 336.1536 203.499808 
L 336.51072 207.426314 
L 336.86784 207.838936 
L 337.22496 202.393982 
L 337.58208 204.516507 
L 337.9392 203.447817 
L 338.29632 201.813011 
L 338.65344 207.772916 
L 339.01056 204.197138 
L 339.36768 206.22476 
L 339.7248 205.035585 
L 340.08192 205.525779 
L 340.43904 207.596314 
L 340.79616 206.488838 
L 341.15328 205.796459 
L 341.86752 205.273255 
L 342.22464 207.963547 
L 342.58176 209.689956 
L 342.93888 206.200003 
L 343.296 207.365246 
L 343.65312 204.62709 
L 344.01024 205.57777 
L 344.36736 208.824276 
L 344.72448 209.392043 
L 345.0816 206.102624 
L 345.43872 205.30544 
L 346.15296 209.056169 
L 346.51008 206.118304 
L 346.8672 205.215488 
L 347.22432 205.462236 
L 347.58144 208.199567 
L 347.93856 209.836024 
L 348.29568 207.10612 
L 348.6528 208.140975 
L 349.00992 207.229081 
L 349.36704 207.866169 
L 349.72416 209.85583 
L 350.08128 206.095197 
L 350.4384 209.743597 
L 350.79552 207.948693 
L 351.15264 207.720926 
L 351.50976 209.761752 
L 351.86688 208.402577 
L 352.224 208.295295 
L 352.58112 207.136654 
L 353.29536 211.753889 
L 353.65248 212.31918 
L 354.0096 211.556656 
L 354.36672 208.48015 
L 354.72384 207.760538 
L 355.08096 208.934033 
L 355.43808 209.387917 
L 355.7952 210.911316 
L 356.15232 210.137238 
L 356.50944 209.631364 
L 356.86656 212.129374 
L 357.22368 212.626171 
L 357.5808 209.383791 
L 357.93792 212.855588 
L 358.29504 210.546558 
L 358.65216 211.364374 
L 359.00928 212.683938 
L 359.3664 208.9068 
L 359.72352 211.947821 
L 360.08064 212.863841 
L 360.43776 214.764375 
L 360.79488 210.770199 
L 361.152 209.311169 
L 361.50912 213.57355 
L 361.86624 215.172045 
L 362.22336 210.768549 
L 362.58048 214.704133 
L 362.9376 214.459035 
L 363.29472 211.852093 
L 363.65184 214.649667 
L 364.00896 210.388111 
L 364.36608 211.389957 
L 364.7232 213.725394 
L 365.08032 213.911899 
L 365.43744 213.645346 
L 365.79456 211.422141 
L 366.15168 215.03423 
L 366.5088 212.285345 
L 366.86592 212.971122 
L 367.22304 216.34059 
L 367.58016 211.527772 
L 367.93728 216.279522 
L 368.2944 213.221996 
L 368.65152 214.893113 
L 369.00864 215.427871 
L 369.36576 212.548598 
L 369.72288 214.20321 
L 370.08 211.474957 
L 370.43712 211.856219 
L 370.79424 213.120491 
L 371.15136 217.353988 
L 371.50848 212.280394 
L 371.8656 215.572288 
L 372.22272 213.002481 
L 372.57984 213.161753 
L 372.93696 217.694813 
L 373.29408 218.118988 
L 373.6512 216.933114 
L 374.00832 212.920782 
L 374.36544 212.592336 
L 374.72256 214.303065 
L 375.07968 216.763114 
L 375.4368 217.887095 
L 375.79392 214.928599 
L 376.15104 216.407434 
L 376.50816 215.530201 
L 376.86528 215.545055 
L 377.2224 214.885686 
L 377.57952 217.953115 
L 377.93664 215.241366 
L 378.29376 219.19263 
L 378.65088 217.167483 
L 379.008 217.781464 
L 379.36512 214.671948 
L 379.72224 219.143115 
L 380.07936 216.177191 
L 380.43648 218.853455 
L 380.7936 215.658939 
L 381.50784 218.58195 
L 381.86496 219.131562 
L 382.22208 217.821076 
L 382.5792 218.381416 
L 382.93632 219.899038 
L 383.29344 216.266318 
L 383.65056 217.896998 
L 384.00768 215.041657 
L 384.3648 217.023066 
L 384.72192 215.757968 
L 385.07904 219.429474 
L 385.43616 217.734425 
L 385.79328 221.022193 
L 386.1504 220.165591 
L 386.50752 220.638455 
L 386.86464 217.556998 
L 387.22176 220.745737 
L 387.57888 217.068454 
L 387.936 216.502337 
L 388.65024 219.321367 
L 389.00736 216.463551 
L 389.36448 218.877387 
L 389.7216 218.944231 
L 390.07872 217.189765 
L 390.43584 221.665058 
L 390.79296 219.075445 
L 391.15008 219.848698 
L 391.5072 217.166658 
L 391.86432 217.689862 
L 392.22144 219.543358 
L 392.57856 222.391272 
L 392.93568 220.277824 
L 393.2928 219.53428 
L 393.64992 220.731708 
L 394.00704 219.183552 
L 394.36416 218.70326 
L 394.72128 220.322387 
L 395.0784 217.998503 
L 395.79264 219.563164 
L 396.14976 218.936804 
L 396.50688 222.162679 
L 396.864 220.199426 
L 397.22112 219.743892 
L 397.57824 220.370251 
L 397.93536 223.668748 
L 398.29248 220.889329 
L 398.6496 221.251611 
L 399.00672 223.771903 
L 399.36384 222.864136 
L 399.72096 223.141418 
L 400.07808 219.70428 
L 400.4352 220.910786 
L 400.79232 223.797486 
L 401.14944 223.315544 
L 401.50656 221.140203 
L 401.86368 221.455446 
L 402.2208 220.601319 
L 402.57792 224.451904 
L 402.93504 222.187437 
L 403.29216 224.649137 
L 403.64928 221.509087 
L 404.0064 221.146805 
L 404.36352 222.653699 
L 404.72064 222.600883 
L 405.07776 221.837534 
L 405.43488 222.005058 
L 405.792 221.686514 
L 406.14912 224.298408 
L 406.50624 221.046125 
L 406.86336 224.86535 
L 407.22048 220.610397 
L 407.5776 224.782826 
L 407.93472 224.845544 
L 408.29184 222.774184 
L 408.64896 224.747341 
L 409.00608 224.175447 
L 409.3632 225.431467 
L 409.72032 222.23365 
L 410.07744 225.379477 
L 410.43456 226.235254 
L 410.79168 226.237729 
L 411.1488 222.307097 
L 411.50592 226.164283 
L 411.86304 225.228457 
L 412.22016 225.263943 
L 412.57728 221.679087 
L 412.9344 223.927874 
L 413.29152 224.078894 
L 413.64864 225.793749 
L 414.00576 222.660301 
L 414.36288 224.378457 
L 414.72 224.122632 
L 414.72 224.122632 
" style="fill:none;stroke:#000080;stroke-linecap:square;stroke-width:0.5;"/>
   </g>
   <g id="patch_3">
    <path d="M 57.6 307.584 
L 57.6 41.472 
" style="fill:none;stroke:#000000;stroke-linecap:square;stroke-linejoin:miter;stroke-width:0.8;"/>
   </g>
   <g id="patch_4">
    <path d="M 414.72 307.584 
L 414.72 41.472 
" style="fill:none;stroke:#000000;stroke-linecap:square;stroke-linejoin:miter;stroke-width:0.8;"/>
   </g>
   <g id="patch_5">
    <path d="M 57.6 307.584 
L 414.72 307.584 
" style="fill:none;stroke:#000000;stroke-linecap:square;stroke-linejoin:miter;stroke-width:0.8;"/>
   </g>
   <g id="patch_6">
    <path d="M 57.6 41.472 
L 414.72 41.472 
" style="fill:none;stroke:#000000;stroke-linecap:square;stroke-linejoin:miter;stroke-width:0.8;"/>
   </g>
   <g id="text_16">
    <!-- Test -->
    <defs>
     <path d="M -0.296875 72.90625 
L 61.375 72.90625 
L 61.375 64.59375 
L 35.5 64.59375 
L 35.5 0 
L 25.59375 0 
L 25.59375 64.59375 
L -0.296875 64.59375 
z
" id="DejaVuSans-54"/>
    </defs>
    <g transform="translate(223.341563 35.472)scale(0.12 -0.12)">
     <use xlink:href="#DejaVuSans-54"/>
     <use x="60.818359" xlink:href="#DejaVuSans-65"/>
     <use x="122.341797" xlink:href="#DejaVuSans-73"/>
     <use x="174.441406" xlink:href="#DejaVuSans-74"/>
    </g>
   </g>
   <g id="legend_1">
    <g id="patch_7">
     <path d="M 64.6 302.584 
L 306.276563 302.584 
Q 308.276563 302.584 308.276563 300.584 
L 308.276563 286.905875 
Q 308.276563 284.905875 306.276563 284.905875 
L 64.6 284.905875 
Q 62.6 284.905875 62.6 286.905875 
L 62.6 300.584 
Q 62.6 302.584 64.6 302.584 
z
" style="fill:#ffffff;opacity:0.8;stroke:#cccccc;stroke-linejoin:miter;"/>
    </g>
    <g id="line2d_28">
     <path d="M 66.6 293.004312 
L 86.6 293.004312 
" style="fill:none;stroke:#000080;stroke-linecap:square;stroke-width:0.5;"/>
    </g>
    <g id="line2d_29"/>
    <g id="text_17">
     <!-- Successful download requests per second -->
     <g transform="translate(94.6 296.504312)scale(0.1 -0.1)">
      <use xlink:href="#DejaVuSans-53"/>
      <use x="63.476562" xlink:href="#DejaVuSans-75"/>
      <use x="126.855469" xlink:href="#DejaVuSans-63"/>
      <use x="181.835938" xlink:href="#DejaVuSans-63"/>
      <use x="236.816406" xlink:href="#DejaVuSans-65"/>
      <use x="298.339844" xlink:href="#DejaVuSans-73"/>
      <use x="350.439453" xlink:href="#DejaVuSans-73"/>
      <use x="402.539062" xlink:href="#DejaVuSans-66"/>
      <use x="437.744141" xlink:href="#DejaVuSans-75"/>
      <use x="501.123047" xlink:href="#DejaVuSans-6c"/>
      <use x="528.90625" xlink:href="#DejaVuSans-20"/>
      <use x="560.693359" xlink:href="#DejaVuSans-64"/>
      <use x="624.169922" xlink:href="#DejaVuSans-6f"/>
      <use x="685.351562" xlink:href="#DejaVuSans-77"/>
      <use x="767.138672" xlink:href="#DejaVuSans-6e"/>
      <use x="830.517578" xlink:href="#DejaVuSans-6c"/>
      <use x="858.300781" xlink:href="#DejaVuSans-6f"/>
      <use x="919.482422" xlink:href="#DejaVuSans-61"/>
      <use x="980.761719" xlink:href="#DejaVuSans-64"/>
      <use x="1044.238281" xlink:href="#DejaVuSans-20"/>
      <use x="1076.025391" xlink:href="#DejaVuSans-72"/>
      <use x="1117.107422" xlink:href="#DejaVuSans-65"/>
      <use x="1178.630859" xlink:href="#DejaVuSans-71"/>
      <use x="1242.107422" xlink:href="#DejaVuSans-75"/>
      <use x="1305.486328" xlink:href="#DejaVuSans-65"/>
      <use x="1367.009766" xlink:href="#DejaVuSans-73"/>
      <use x="1419.109375" xlink:href="#DejaVuSans-74"/>
      <use x="1458.318359" xlink:href="#DejaVuSans-73"/>
      <use x="1510.417969" xlink:href="#DejaVuSans-20"/>
      <use x="1542.205078" xlink:href="#DejaVuSans-70"/>
      <use x="1605.681641" xlink:href="#DejaVuSans-65"/>
      <use x="1667.205078" xlink:href="#DejaVuSans-72"/>
      <use x="1708.318359" xlink:href="#DejaVuSans-20"/>
      <use x="1740.105469" xlink:href="#DejaVuSans-73"/>
      <use x="1792.205078" xlink:href="#DejaVuSans-65"/>
      <use x="1853.728516" xlink:href="#DejaVuSans-63"/>
      <use x="1908.708984" xlink:href="#DejaVuSans-6f"/>
      <use x="1969.890625" xlink:href="#DejaVuSans-6e"/>
      <use x="2033.269531" xlink:href="#DejaVuSans-64"/>
     </g>
    </g>
   </g>
  </g>
 </g>
 <defs>
  <clipPath id="pedda240b02">
   <rect height="266.112" width="357.12" x="57.6" y="41.472"/>
  </clipPath>
 </defs>
</svg>
