<?xml version="1.0" encoding="utf-8" standalone="no"?>
<!DOCTYPE svg PUBLIC "-//W3C//DTD SVG 1.1//EN"
  "http://www.w3.org/Graphics/SVG/1.1/DTD/svg11.dtd">
<!-- Created with matplotlib (http://matplotlib.org/) -->
<svg height="345pt" version="1.1" viewBox="0 0 460 345" width="460pt" xmlns="http://www.w3.org/2000/svg" xmlns:xlink="http://www.w3.org/1999/xlink">
 <defs>
  <style type="text/css">
*{stroke-linecap:butt;stroke-linejoin:round;}
  </style>
 </defs>
 <g id="figure_1">
  <g id="patch_1">
   <path d="M 0 345.6 
L 460.8 345.6 
L 460.8 0 
L 0 0 
z
" style="fill:#ffffff;"/>
  </g>
  <g id="axes_1">
   <g id="patch_2">
    <path d="M 57.6 307.584 
L 414.72 307.584 
L 414.72 41.472 
L 57.6 41.472 
z
" style="fill:#ffffff;"/>
   </g>
   <g id="matplotlib.axis_1">
    <g id="xtick_1">
     <g id="line2d_1">
      <path clip-path="url(#p7b639558fb)" d="M 57.6 307.584 
L 57.6 41.472 
" style="fill:none;stroke:#b0b0b0;stroke-linecap:square;stroke-width:0.8;"/>
     </g>
     <g id="line2d_2">
      <defs>
       <path d="M 0 0 
L 0 3.5 
" id="m50c25da048" style="stroke:#000000;stroke-width:0.8;"/>
      </defs>
      <g>
       <use style="stroke:#000000;stroke-width:0.8;" x="57.6" xlink:href="#m50c25da048" y="307.584"/>
      </g>
     </g>
     <g id="text_1">
      <!-- 0 -->
      <defs>
       <path d="M 31.78125 66.40625 
Q 24.171875 66.40625 20.328125 58.90625 
Q 16.5 51.421875 16.5 36.375 
Q 16.5 21.390625 20.328125 13.890625 
Q 24.171875 6.390625 31.78125 6.390625 
Q 39.453125 6.390625 43.28125 13.890625 
Q 47.125 21.390625 47.125 36.375 
Q 47.125 51.421875 43.28125 58.90625 
Q 39.453125 66.40625 31.78125 66.40625 
M 31.78125 74.21875 
Q 44.046875 74.21875 50.515625 64.515625 
Q 56.984375 54.828125 56.984375 36.375 
Q 56.984375 17.96875 50.515625 8.265625 
Q 44.046875 -1.421875 31.78125 -1.421875 
Q 19.53125 -1.421875 13.0625 8.265625 
Q 6.59375 17.96875 6.59375 36.375 
Q 6.59375 54.828125 13.0625 64.515625 
Q 19.53125 74.21875 31.78125 74.21875 
" id="DejaVuSans-30"/>
      </defs>
      <g transform="translate(54.41875 322.182437)scale(0.1 -0.1)">
       <use xlink:href="#DejaVuSans-30"/>
      </g>
     </g>
    </g>
    <g id="xtick_2">
     <g id="line2d_3">
      <path clip-path="url(#p7b639558fb)" d="M 129.024 307.584 
L 129.024 41.472 
" style="fill:none;stroke:#b0b0b0;stroke-linecap:square;stroke-width:0.8;"/>
     </g>
     <g id="line2d_4">
      <g>
       <use style="stroke:#000000;stroke-width:0.8;" x="129.024" xlink:href="#m50c25da048" y="307.584"/>
      </g>
     </g>
     <g id="text_2">
      <!-- 200 -->
      <defs>
       <path d="M 19.1875 8.296875 
L 53.609375 8.296875 
L 53.609375 0 
L 7.328125 0 
L 7.328125 8.296875 
Q 12.9375 14.109375 22.625 23.890625 
Q 32.328125 33.6875 34.8125 36.53125 
Q 39.546875 41.84375 41.421875 45.53125 
Q 43.3125 49.21875 43.3125 52.78125 
Q 43.3125 58.59375 39.234375 62.25 
Q 35.15625 65.921875 28.609375 65.921875 
Q 23.96875 65.921875 18.8125 64.3125 
Q 13.671875 62.703125 7.8125 59.421875 
L 7.8125 69.390625 
Q 13.765625 71.78125 18.9375 73 
Q 24.125 74.21875 28.421875 74.21875 
Q 39.75 74.21875 46.484375 68.546875 
Q 53.21875 62.890625 53.21875 53.421875 
Q 53.21875 48.921875 51.53125 44.890625 
Q 49.859375 40.875 45.40625 35.40625 
Q 44.1875 33.984375 37.640625 27.21875 
Q 31.109375 20.453125 19.1875 8.296875 
" id="DejaVuSans-32"/>
      </defs>
      <g transform="translate(119.48025 322.182437)scale(0.1 -0.1)">
       <use xlink:href="#DejaVuSans-32"/>
       <use x="63.623047" xlink:href="#DejaVuSans-30"/>
       <use x="127.246094" xlink:href="#DejaVuSans-30"/>
      </g>
     </g>
    </g>
    <g id="xtick_3">
     <g id="line2d_5">
      <path clip-path="url(#p7b639558fb)" d="M 200.448 307.584 
L 200.448 41.472 
" style="fill:none;stroke:#b0b0b0;stroke-linecap:square;stroke-width:0.8;"/>
     </g>
     <g id="line2d_6">
      <g>
       <use style="stroke:#000000;stroke-width:0.8;" x="200.448" xlink:href="#m50c25da048" y="307.584"/>
      </g>
     </g>
     <g id="text_3">
      <!-- 400 -->
      <defs>
       <path d="M 37.796875 64.3125 
L 12.890625 25.390625 
L 37.796875 25.390625 
z
M 35.203125 72.90625 
L 47.609375 72.90625 
L 47.609375 25.390625 
L 58.015625 25.390625 
L 58.015625 17.1875 
L 47.609375 17.1875 
L 47.609375 0 
L 37.796875 0 
L 37.796875 17.1875 
L 4.890625 17.1875 
L 4.890625 26.703125 
z
" id="DejaVuSans-34"/>
      </defs>
      <g transform="translate(190.90425 322.182437)scale(0.1 -0.1)">
       <use xlink:href="#DejaVuSans-34"/>
       <use x="63.623047" xlink:href="#DejaVuSans-30"/>
       <use x="127.246094" xlink:href="#DejaVuSans-30"/>
      </g>
     </g>
    </g>
    <g id="xtick_4">
     <g id="line2d_7">
      <path clip-path="url(#p7b639558fb)" d="M 271.872 307.584 
L 271.872 41.472 
" style="fill:none;stroke:#b0b0b0;stroke-linecap:square;stroke-width:0.8;"/>
     </g>
     <g id="line2d_8">
      <g>
       <use style="stroke:#000000;stroke-width:0.8;" x="271.872" xlink:href="#m50c25da048" y="307.584"/>
      </g>
     </g>
     <g id="text_4">
      <!-- 600 -->
      <defs>
       <path d="M 33.015625 40.375 
Q 26.375 40.375 22.484375 35.828125 
Q 18.609375 31.296875 18.609375 23.390625 
Q 18.609375 15.53125 22.484375 10.953125 
Q 26.375 6.390625 33.015625 6.390625 
Q 39.65625 6.390625 43.53125 10.953125 
Q 47.40625 15.53125 47.40625 23.390625 
Q 47.40625 31.296875 43.53125 35.828125 
Q 39.65625 40.375 33.015625 40.375 
M 52.59375 71.296875 
L 52.59375 62.3125 
Q 48.875 64.0625 45.09375 64.984375 
Q 41.3125 65.921875 37.59375 65.921875 
Q 27.828125 65.921875 22.671875 59.328125 
Q 17.53125 52.734375 16.796875 39.40625 
Q 19.671875 43.65625 24.015625 45.921875 
Q 28.375 48.1875 33.59375 48.1875 
Q 44.578125 48.1875 50.953125 41.515625 
Q 57.328125 34.859375 57.328125 23.390625 
Q 57.328125 12.15625 50.6875 5.359375 
Q 44.046875 -1.421875 33.015625 -1.421875 
Q 20.359375 -1.421875 13.671875 8.265625 
Q 6.984375 17.96875 6.984375 36.375 
Q 6.984375 53.65625 15.1875 63.9375 
Q 23.390625 74.21875 37.203125 74.21875 
Q 40.921875 74.21875 44.703125 73.484375 
Q 48.484375 72.75 52.59375 71.296875 
" id="DejaVuSans-36"/>
      </defs>
      <g transform="translate(262.32825 322.182437)scale(0.1 -0.1)">
       <use xlink:href="#DejaVuSans-36"/>
       <use x="63.623047" xlink:href="#DejaVuSans-30"/>
       <use x="127.246094" xlink:href="#DejaVuSans-30"/>
      </g>
     </g>
    </g>
    <g id="xtick_5">
     <g id="line2d_9">
      <path clip-path="url(#p7b639558fb)" d="M 343.296 307.584 
L 343.296 41.472 
" style="fill:none;stroke:#b0b0b0;stroke-linecap:square;stroke-width:0.8;"/>
     </g>
     <g id="line2d_10">
      <g>
       <use style="stroke:#000000;stroke-width:0.8;" x="343.296" xlink:href="#m50c25da048" y="307.584"/>
      </g>
     </g>
     <g id="text_5">
      <!-- 800 -->
      <defs>
       <path d="M 31.78125 34.625 
Q 24.75 34.625 20.71875 30.859375 
Q 16.703125 27.09375 16.703125 20.515625 
Q 16.703125 13.921875 20.71875 10.15625 
Q 24.75 6.390625 31.78125 6.390625 
Q 38.8125 6.390625 42.859375 10.171875 
Q 46.921875 13.96875 46.921875 20.515625 
Q 46.921875 27.09375 42.890625 30.859375 
Q 38.875 34.625 31.78125 34.625 
M 21.921875 38.8125 
Q 15.578125 40.375 12.03125 44.71875 
Q 8.5 49.078125 8.5 55.328125 
Q 8.5 64.0625 14.71875 69.140625 
Q 20.953125 74.21875 31.78125 74.21875 
Q 42.671875 74.21875 48.875 69.140625 
Q 55.078125 64.0625 55.078125 55.328125 
Q 55.078125 49.078125 51.53125 44.71875 
Q 48 40.375 41.703125 38.8125 
Q 48.828125 37.15625 52.796875 32.3125 
Q 56.78125 27.484375 56.78125 20.515625 
Q 56.78125 9.90625 50.3125 4.234375 
Q 43.84375 -1.421875 31.78125 -1.421875 
Q 19.734375 -1.421875 13.25 4.234375 
Q 6.78125 9.90625 6.78125 20.515625 
Q 6.78125 27.484375 10.78125 32.3125 
Q 14.796875 37.15625 21.921875 38.8125 
M 18.3125 54.390625 
Q 18.3125 48.734375 21.84375 45.5625 
Q 25.390625 42.390625 31.78125 42.390625 
Q 38.140625 42.390625 41.71875 45.5625 
Q 45.3125 48.734375 45.3125 54.390625 
Q 45.3125 60.0625 41.71875 63.234375 
Q 38.140625 66.40625 31.78125 66.40625 
Q 25.390625 66.40625 21.84375 63.234375 
Q 18.3125 60.0625 18.3125 54.390625 
" id="DejaVuSans-38"/>
      </defs>
      <g transform="translate(333.75225 322.182437)scale(0.1 -0.1)">
       <use xlink:href="#DejaVuSans-38"/>
       <use x="63.623047" xlink:href="#DejaVuSans-30"/>
       <use x="127.246094" xlink:href="#DejaVuSans-30"/>
      </g>
     </g>
    </g>
    <g id="xtick_6">
     <g id="line2d_11">
      <path clip-path="url(#p7b639558fb)" d="M 414.72 307.584 
L 414.72 41.472 
" style="fill:none;stroke:#b0b0b0;stroke-linecap:square;stroke-width:0.8;"/>
     </g>
     <g id="line2d_12">
      <g>
       <use style="stroke:#000000;stroke-width:0.8;" x="414.72" xlink:href="#m50c25da048" y="307.584"/>
      </g>
     </g>
     <g id="text_6">
      <!-- 1000 -->
      <defs>
       <path d="M 12.40625 8.296875 
L 28.515625 8.296875 
L 28.515625 63.921875 
L 10.984375 60.40625 
L 10.984375 69.390625 
L 28.421875 72.90625 
L 38.28125 72.90625 
L 38.28125 8.296875 
L 54.390625 8.296875 
L 54.390625 0 
L 12.40625 0 
z
" id="DejaVuSans-31"/>
      </defs>
      <g transform="translate(401.995 322.182437)scale(0.1 -0.1)">
       <use xlink:href="#DejaVuSans-31"/>
       <use x="63.623047" xlink:href="#DejaVuSans-30"/>
       <use x="127.246094" xlink:href="#DejaVuSans-30"/>
       <use x="190.869141" xlink:href="#DejaVuSans-30"/>
      </g>
     </g>
    </g>
    <g id="text_7">
     <!-- Number of clients -->
     <defs>
      <path d="M 9.8125 72.90625 
L 23.09375 72.90625 
L 55.421875 11.921875 
L 55.421875 72.90625 
L 64.984375 72.90625 
L 64.984375 0 
L 51.703125 0 
L 19.390625 60.984375 
L 19.390625 0 
L 9.8125 0 
z
" id="DejaVuSans-4e"/>
      <path d="M 8.5 21.578125 
L 8.5 54.6875 
L 17.484375 54.6875 
L 17.484375 21.921875 
Q 17.484375 14.15625 20.5 10.265625 
Q 23.53125 6.390625 29.59375 6.390625 
Q 36.859375 6.390625 41.078125 11.03125 
Q 45.3125 15.671875 45.3125 23.6875 
L 45.3125 54.6875 
L 54.296875 54.6875 
L 54.296875 0 
L 45.3125 0 
L 45.3125 8.40625 
Q 42.046875 3.421875 37.71875 1 
Q 33.40625 -1.421875 27.6875 -1.421875 
Q 18.265625 -1.421875 13.375 4.4375 
Q 8.5 10.296875 8.5 21.578125 
M 31.109375 56 
z
" id="DejaVuSans-75"/>
      <path d="M 52 44.1875 
Q 55.375 50.25 60.0625 53.125 
Q 64.75 56 71.09375 56 
Q 79.640625 56 84.28125 50.015625 
Q 88.921875 44.046875 88.921875 33.015625 
L 88.921875 0 
L 79.890625 0 
L 79.890625 32.71875 
Q 79.890625 40.578125 77.09375 44.375 
Q 74.3125 48.1875 68.609375 48.1875 
Q 61.625 48.1875 57.5625 43.546875 
Q 53.515625 38.921875 53.515625 30.90625 
L 53.515625 0 
L 44.484375 0 
L 44.484375 32.71875 
Q 44.484375 40.625 41.703125 44.40625 
Q 38.921875 48.1875 33.109375 48.1875 
Q 26.21875 48.1875 22.15625 43.53125 
Q 18.109375 38.875 18.109375 30.90625 
L 18.109375 0 
L 9.078125 0 
L 9.078125 54.6875 
L 18.109375 54.6875 
L 18.109375 46.1875 
Q 21.1875 51.21875 25.484375 53.609375 
Q 29.78125 56 35.6875 56 
Q 41.65625 56 45.828125 52.96875 
Q 50 49.953125 52 44.1875 
" id="DejaVuSans-6d"/>
      <path d="M 48.6875 27.296875 
Q 48.6875 37.203125 44.609375 42.84375 
Q 40.53125 48.484375 33.40625 48.484375 
Q 26.265625 48.484375 22.1875 42.84375 
Q 18.109375 37.203125 18.109375 27.296875 
Q 18.109375 17.390625 22.1875 11.75 
Q 26.265625 6.109375 33.40625 6.109375 
Q 40.53125 6.109375 44.609375 11.75 
Q 48.6875 17.390625 48.6875 27.296875 
M 18.109375 46.390625 
Q 20.953125 51.265625 25.265625 53.625 
Q 29.59375 56 35.59375 56 
Q 45.5625 56 51.78125 48.09375 
Q 58.015625 40.1875 58.015625 27.296875 
Q 58.015625 14.40625 51.78125 6.484375 
Q 45.5625 -1.421875 35.59375 -1.421875 
Q 29.59375 -1.421875 25.265625 0.953125 
Q 20.953125 3.328125 18.109375 8.203125 
L 18.109375 0 
L 9.078125 0 
L 9.078125 75.984375 
L 18.109375 75.984375 
z
" id="DejaVuSans-62"/>
      <path d="M 56.203125 29.59375 
L 56.203125 25.203125 
L 14.890625 25.203125 
Q 15.484375 15.921875 20.484375 11.0625 
Q 25.484375 6.203125 34.421875 6.203125 
Q 39.59375 6.203125 44.453125 7.46875 
Q 49.3125 8.734375 54.109375 11.28125 
L 54.109375 2.78125 
Q 49.265625 0.734375 44.1875 -0.34375 
Q 39.109375 -1.421875 33.890625 -1.421875 
Q 20.796875 -1.421875 13.15625 6.1875 
Q 5.515625 13.8125 5.515625 26.8125 
Q 5.515625 40.234375 12.765625 48.109375 
Q 20.015625 56 32.328125 56 
Q 43.359375 56 49.78125 48.890625 
Q 56.203125 41.796875 56.203125 29.59375 
M 47.21875 32.234375 
Q 47.125 39.59375 43.09375 43.984375 
Q 39.0625 48.390625 32.421875 48.390625 
Q 24.90625 48.390625 20.390625 44.140625 
Q 15.875 39.890625 15.1875 32.171875 
z
" id="DejaVuSans-65"/>
      <path d="M 41.109375 46.296875 
Q 39.59375 47.171875 37.8125 47.578125 
Q 36.03125 48 33.890625 48 
Q 26.265625 48 22.1875 43.046875 
Q 18.109375 38.09375 18.109375 28.8125 
L 18.109375 0 
L 9.078125 0 
L 9.078125 54.6875 
L 18.109375 54.6875 
L 18.109375 46.1875 
Q 20.953125 51.171875 25.484375 53.578125 
Q 30.03125 56 36.53125 56 
Q 37.453125 56 38.578125 55.875 
Q 39.703125 55.765625 41.0625 55.515625 
z
" id="DejaVuSans-72"/>
      <path id="DejaVuSans-20"/>
      <path d="M 30.609375 48.390625 
Q 23.390625 48.390625 19.1875 42.75 
Q 14.984375 37.109375 14.984375 27.296875 
Q 14.984375 17.484375 19.15625 11.84375 
Q 23.34375 6.203125 30.609375 6.203125 
Q 37.796875 6.203125 41.984375 11.859375 
Q 46.1875 17.53125 46.1875 27.296875 
Q 46.1875 37.015625 41.984375 42.703125 
Q 37.796875 48.390625 30.609375 48.390625 
M 30.609375 56 
Q 42.328125 56 49.015625 48.375 
Q 55.71875 40.765625 55.71875 27.296875 
Q 55.71875 13.875 49.015625 6.21875 
Q 42.328125 -1.421875 30.609375 -1.421875 
Q 18.84375 -1.421875 12.171875 6.21875 
Q 5.515625 13.875 5.515625 27.296875 
Q 5.515625 40.765625 12.171875 48.375 
Q 18.84375 56 30.609375 56 
" id="DejaVuSans-6f"/>
      <path d="M 37.109375 75.984375 
L 37.109375 68.5 
L 28.515625 68.5 
Q 23.6875 68.5 21.796875 66.546875 
Q 19.921875 64.59375 19.921875 59.515625 
L 19.921875 54.6875 
L 34.71875 54.6875 
L 34.71875 47.703125 
L 19.921875 47.703125 
L 19.921875 0 
L 10.890625 0 
L 10.890625 47.703125 
L 2.296875 47.703125 
L 2.296875 54.6875 
L 10.890625 54.6875 
L 10.890625 58.5 
Q 10.890625 67.625 15.140625 71.796875 
Q 19.390625 75.984375 28.609375 75.984375 
z
" id="DejaVuSans-66"/>
      <path d="M 48.78125 52.59375 
L 48.78125 44.1875 
Q 44.96875 46.296875 41.140625 47.34375 
Q 37.3125 48.390625 33.40625 48.390625 
Q 24.65625 48.390625 19.8125 42.84375 
Q 14.984375 37.3125 14.984375 27.296875 
Q 14.984375 17.28125 19.8125 11.734375 
Q 24.65625 6.203125 33.40625 6.203125 
Q 37.3125 6.203125 41.140625 7.25 
Q 44.96875 8.296875 48.78125 10.40625 
L 48.78125 2.09375 
Q 45.015625 0.34375 40.984375 -0.53125 
Q 36.96875 -1.421875 32.421875 -1.421875 
Q 20.0625 -1.421875 12.78125 6.34375 
Q 5.515625 14.109375 5.515625 27.296875 
Q 5.515625 40.671875 12.859375 48.328125 
Q 20.21875 56 33.015625 56 
Q 37.15625 56 41.109375 55.140625 
Q 45.0625 54.296875 48.78125 52.59375 
" id="DejaVuSans-63"/>
      <path d="M 9.421875 75.984375 
L 18.40625 75.984375 
L 18.40625 0 
L 9.421875 0 
z
" id="DejaVuSans-6c"/>
      <path d="M 9.421875 54.6875 
L 18.40625 54.6875 
L 18.40625 0 
L 9.421875 0 
z
M 9.421875 75.984375 
L 18.40625 75.984375 
L 18.40625 64.59375 
L 9.421875 64.59375 
z
" id="DejaVuSans-69"/>
      <path d="M 54.890625 33.015625 
L 54.890625 0 
L 45.90625 0 
L 45.90625 32.71875 
Q 45.90625 40.484375 42.875 44.328125 
Q 39.84375 48.1875 33.796875 48.1875 
Q 26.515625 48.1875 22.3125 43.546875 
Q 18.109375 38.921875 18.109375 30.90625 
L 18.109375 0 
L 9.078125 0 
L 9.078125 54.6875 
L 18.109375 54.6875 
L 18.109375 46.1875 
Q 21.34375 51.125 25.703125 53.5625 
Q 30.078125 56 35.796875 56 
Q 45.21875 56 50.046875 50.171875 
Q 54.890625 44.34375 54.890625 33.015625 
" id="DejaVuSans-6e"/>
      <path d="M 18.3125 70.21875 
L 18.3125 54.6875 
L 36.8125 54.6875 
L 36.8125 47.703125 
L 18.3125 47.703125 
L 18.3125 18.015625 
Q 18.3125 11.328125 20.140625 9.421875 
Q 21.96875 7.515625 27.59375 7.515625 
L 36.8125 7.515625 
L 36.8125 0 
L 27.59375 0 
Q 17.1875 0 13.234375 3.875 
Q 9.28125 7.765625 9.28125 18.015625 
L 9.28125 47.703125 
L 2.6875 47.703125 
L 2.6875 54.6875 
L 9.28125 54.6875 
L 9.28125 70.21875 
z
" id="DejaVuSans-74"/>
      <path d="M 44.28125 53.078125 
L 44.28125 44.578125 
Q 40.484375 46.53125 36.375 47.5 
Q 32.28125 48.484375 27.875 48.484375 
Q 21.1875 48.484375 17.84375 46.4375 
Q 14.5 44.390625 14.5 40.28125 
Q 14.5 37.15625 16.890625 35.375 
Q 19.28125 33.59375 26.515625 31.984375 
L 29.59375 31.296875 
Q 39.15625 29.25 43.1875 25.515625 
Q 47.21875 21.78125 47.21875 15.09375 
Q 47.21875 7.46875 41.1875 3.015625 
Q 35.15625 -1.421875 24.609375 -1.421875 
Q 20.21875 -1.421875 15.453125 -0.5625 
Q 10.6875 0.296875 5.421875 2 
L 5.421875 11.28125 
Q 10.40625 8.6875 15.234375 7.390625 
Q 20.0625 6.109375 24.8125 6.109375 
Q 31.15625 6.109375 34.5625 8.28125 
Q 37.984375 10.453125 37.984375 14.40625 
Q 37.984375 18.0625 35.515625 20.015625 
Q 33.0625 21.96875 24.703125 23.78125 
L 21.578125 24.515625 
Q 13.234375 26.265625 9.515625 29.90625 
Q 5.8125 33.546875 5.8125 39.890625 
Q 5.8125 47.609375 11.28125 51.796875 
Q 16.75 56 26.8125 56 
Q 31.78125 56 36.171875 55.265625 
Q 40.578125 54.546875 44.28125 53.078125 
" id="DejaVuSans-73"/>
     </defs>
     <g transform="translate(191.738906 335.860562)scale(0.1 -0.1)">
      <use xlink:href="#DejaVuSans-4e"/>
      <use x="74.804688" xlink:href="#DejaVuSans-75"/>
      <use x="138.183594" xlink:href="#DejaVuSans-6d"/>
      <use x="235.595703" xlink:href="#DejaVuSans-62"/>
      <use x="299.072266" xlink:href="#DejaVuSans-65"/>
      <use x="360.595703" xlink:href="#DejaVuSans-72"/>
      <use x="401.708984" xlink:href="#DejaVuSans-20"/>
      <use x="433.496094" xlink:href="#DejaVuSans-6f"/>
      <use x="494.677734" xlink:href="#DejaVuSans-66"/>
      <use x="529.882812" xlink:href="#DejaVuSans-20"/>
      <use x="561.669922" xlink:href="#DejaVuSans-63"/>
      <use x="616.650391" xlink:href="#DejaVuSans-6c"/>
      <use x="644.433594" xlink:href="#DejaVuSans-69"/>
      <use x="672.216797" xlink:href="#DejaVuSans-65"/>
      <use x="733.740234" xlink:href="#DejaVuSans-6e"/>
      <use x="797.119141" xlink:href="#DejaVuSans-74"/>
      <use x="836.328125" xlink:href="#DejaVuSans-73"/>
     </g>
    </g>
   </g>
   <g id="matplotlib.axis_2">
    <g id="ytick_1">
     <g id="line2d_13">
      <path clip-path="url(#p7b639558fb)" d="M 57.6 296.27797 
L 414.72 296.27797 
" style="fill:none;stroke:#b0b0b0;stroke-linecap:square;stroke-width:0.8;"/>
     </g>
     <g id="line2d_14">
      <defs>
       <path d="M 0 0 
L -3.5 0 
" id="mcbc59a5495" style="stroke:#000000;stroke-width:0.8;"/>
      </defs>
      <g>
       <use style="stroke:#000000;stroke-width:0.8;" x="57.6" xlink:href="#mcbc59a5495" y="296.27797"/>
      </g>
     </g>
     <g id="text_8">
      <!-- 0 -->
      <g transform="translate(44.2375 300.077189)scale(0.1 -0.1)">
       <use xlink:href="#DejaVuSans-30"/>
      </g>
     </g>
    </g>
    <g id="ytick_2">
     <g id="line2d_15">
      <path clip-path="url(#p7b639558fb)" d="M 57.6 254.961556 
L 414.72 254.961556 
" style="fill:none;stroke:#b0b0b0;stroke-linecap:square;stroke-width:0.8;"/>
     </g>
     <g id="line2d_16">
      <g>
       <use style="stroke:#000000;stroke-width:0.8;" x="57.6" xlink:href="#mcbc59a5495" y="254.961556"/>
      </g>
     </g>
     <g id="text_9">
      <!-- 50 -->
      <defs>
       <path d="M 10.796875 72.90625 
L 49.515625 72.90625 
L 49.515625 64.59375 
L 19.828125 64.59375 
L 19.828125 46.734375 
Q 21.96875 47.46875 24.109375 47.828125 
Q 26.265625 48.1875 28.421875 48.1875 
Q 40.625 48.1875 47.75 41.5 
Q 54.890625 34.8125 54.890625 23.390625 
Q 54.890625 11.625 47.5625 5.09375 
Q 40.234375 -1.421875 26.90625 -1.421875 
Q 22.3125 -1.421875 17.546875 -0.640625 
Q 12.796875 0.140625 7.71875 1.703125 
L 7.71875 11.625 
Q 12.109375 9.234375 16.796875 8.0625 
Q 21.484375 6.890625 26.703125 6.890625 
Q 35.15625 6.890625 40.078125 11.328125 
Q 45.015625 15.765625 45.015625 23.390625 
Q 45.015625 31 40.078125 35.4375 
Q 35.15625 39.890625 26.703125 39.890625 
Q 22.75 39.890625 18.8125 39.015625 
Q 14.890625 38.140625 10.796875 36.28125 
z
" id="DejaVuSans-35"/>
      </defs>
      <g transform="translate(37.875 258.760774)scale(0.1 -0.1)">
       <use xlink:href="#DejaVuSans-35"/>
       <use x="63.623047" xlink:href="#DejaVuSans-30"/>
      </g>
     </g>
    </g>
    <g id="ytick_3">
     <g id="line2d_17">
      <path clip-path="url(#p7b639558fb)" d="M 57.6 213.645141 
L 414.72 213.645141 
" style="fill:none;stroke:#b0b0b0;stroke-linecap:square;stroke-width:0.8;"/>
     </g>
     <g id="line2d_18">
      <g>
       <use style="stroke:#000000;stroke-width:0.8;" x="57.6" xlink:href="#mcbc59a5495" y="213.645141"/>
      </g>
     </g>
     <g id="text_10">
      <!-- 100 -->
      <g transform="translate(31.5125 217.44436)scale(0.1 -0.1)">
       <use xlink:href="#DejaVuSans-31"/>
       <use x="63.623047" xlink:href="#DejaVuSans-30"/>
       <use x="127.246094" xlink:href="#DejaVuSans-30"/>
      </g>
     </g>
    </g>
    <g id="ytick_4">
     <g id="line2d_19">
      <path clip-path="url(#p7b639558fb)" d="M 57.6 172.328727 
L 414.72 172.328727 
" style="fill:none;stroke:#b0b0b0;stroke-linecap:square;stroke-width:0.8;"/>
     </g>
     <g id="line2d_20">
      <g>
       <use style="stroke:#000000;stroke-width:0.8;" x="57.6" xlink:href="#mcbc59a5495" y="172.328727"/>
      </g>
     </g>
     <g id="text_11">
      <!-- 150 -->
      <g transform="translate(31.5125 176.127946)scale(0.1 -0.1)">
       <use xlink:href="#DejaVuSans-31"/>
       <use x="63.623047" xlink:href="#DejaVuSans-35"/>
       <use x="127.246094" xlink:href="#DejaVuSans-30"/>
      </g>
     </g>
    </g>
    <g id="ytick_5">
     <g id="line2d_21">
      <path clip-path="url(#p7b639558fb)" d="M 57.6 131.012313 
L 414.72 131.012313 
" style="fill:none;stroke:#b0b0b0;stroke-linecap:square;stroke-width:0.8;"/>
     </g>
     <g id="line2d_22">
      <g>
       <use style="stroke:#000000;stroke-width:0.8;" x="57.6" xlink:href="#mcbc59a5495" y="131.012313"/>
      </g>
     </g>
     <g id="text_12">
      <!-- 200 -->
      <g transform="translate(31.5125 134.811532)scale(0.1 -0.1)">
       <use xlink:href="#DejaVuSans-32"/>
       <use x="63.623047" xlink:href="#DejaVuSans-30"/>
       <use x="127.246094" xlink:href="#DejaVuSans-30"/>
      </g>
     </g>
    </g>
    <g id="ytick_6">
     <g id="line2d_23">
      <path clip-path="url(#p7b639558fb)" d="M 57.6 89.695899 
L 414.72 89.695899 
" style="fill:none;stroke:#b0b0b0;stroke-linecap:square;stroke-width:0.8;"/>
     </g>
     <g id="line2d_24">
      <g>
       <use style="stroke:#000000;stroke-width:0.8;" x="57.6" xlink:href="#mcbc59a5495" y="89.695899"/>
      </g>
     </g>
     <g id="text_13">
      <!-- 250 -->
      <g transform="translate(31.5125 93.495118)scale(0.1 -0.1)">
       <use xlink:href="#DejaVuSans-32"/>
       <use x="63.623047" xlink:href="#DejaVuSans-35"/>
       <use x="127.246094" xlink:href="#DejaVuSans-30"/>
      </g>
     </g>
    </g>
    <g id="ytick_7">
     <g id="line2d_25">
      <path clip-path="url(#p7b639558fb)" d="M 57.6 48.379485 
L 414.72 48.379485 
" style="fill:none;stroke:#b0b0b0;stroke-linecap:square;stroke-width:0.8;"/>
     </g>
     <g id="line2d_26">
      <g>
       <use style="stroke:#000000;stroke-width:0.8;" x="57.6" xlink:href="#mcbc59a5495" y="48.379485"/>
      </g>
     </g>
     <g id="text_14">
      <!-- 300 -->
      <defs>
       <path d="M 40.578125 39.3125 
Q 47.65625 37.796875 51.625 33 
Q 55.609375 28.21875 55.609375 21.1875 
Q 55.609375 10.40625 48.1875 4.484375 
Q 40.765625 -1.421875 27.09375 -1.421875 
Q 22.515625 -1.421875 17.65625 -0.515625 
Q 12.796875 0.390625 7.625 2.203125 
L 7.625 11.71875 
Q 11.71875 9.328125 16.59375 8.109375 
Q 21.484375 6.890625 26.8125 6.890625 
Q 36.078125 6.890625 40.9375 10.546875 
Q 45.796875 14.203125 45.796875 21.1875 
Q 45.796875 27.640625 41.28125 31.265625 
Q 36.765625 34.90625 28.71875 34.90625 
L 20.21875 34.90625 
L 20.21875 43.015625 
L 29.109375 43.015625 
Q 36.375 43.015625 40.234375 45.921875 
Q 44.09375 48.828125 44.09375 54.296875 
Q 44.09375 59.90625 40.109375 62.90625 
Q 36.140625 65.921875 28.71875 65.921875 
Q 24.65625 65.921875 20.015625 65.03125 
Q 15.375 64.15625 9.8125 62.3125 
L 9.8125 71.09375 
Q 15.4375 72.65625 20.34375 73.4375 
Q 25.25 74.21875 29.59375 74.21875 
Q 40.828125 74.21875 47.359375 69.109375 
Q 53.90625 64.015625 53.90625 55.328125 
Q 53.90625 49.265625 50.4375 45.09375 
Q 46.96875 40.921875 40.578125 39.3125 
" id="DejaVuSans-33"/>
      </defs>
      <g transform="translate(31.5125 52.178703)scale(0.1 -0.1)">
       <use xlink:href="#DejaVuSans-33"/>
       <use x="63.623047" xlink:href="#DejaVuSans-30"/>
       <use x="127.246094" xlink:href="#DejaVuSans-30"/>
      </g>
     </g>
    </g>
    <g id="text_15">
     <!-- Successful download requests per second -->
     <defs>
      <path d="M 53.515625 70.515625 
L 53.515625 60.890625 
Q 47.90625 63.578125 42.921875 64.890625 
Q 37.9375 66.21875 33.296875 66.21875 
Q 25.25 66.21875 20.875 63.09375 
Q 16.5 59.96875 16.5 54.203125 
Q 16.5 49.359375 19.40625 46.890625 
Q 22.3125 44.4375 30.421875 42.921875 
L 36.375 41.703125 
Q 47.40625 39.59375 52.65625 34.296875 
Q 57.90625 29 57.90625 20.125 
Q 57.90625 9.515625 50.796875 4.046875 
Q 43.703125 -1.421875 29.984375 -1.421875 
Q 24.8125 -1.421875 18.96875 -0.25 
Q 13.140625 0.921875 6.890625 3.21875 
L 6.890625 13.375 
Q 12.890625 10.015625 18.65625 8.296875 
Q 24.421875 6.59375 29.984375 6.59375 
Q 38.421875 6.59375 43.015625 9.90625 
Q 47.609375 13.234375 47.609375 19.390625 
Q 47.609375 24.75 44.3125 27.78125 
Q 41.015625 30.8125 33.5 32.328125 
L 27.484375 33.5 
Q 16.453125 35.6875 11.515625 40.375 
Q 6.59375 45.0625 6.59375 53.421875 
Q 6.59375 63.09375 13.40625 68.65625 
Q 20.21875 74.21875 32.171875 74.21875 
Q 37.3125 74.21875 42.625 73.28125 
Q 47.953125 72.359375 53.515625 70.515625 
" id="DejaVuSans-53"/>
      <path d="M 45.40625 46.390625 
L 45.40625 75.984375 
L 54.390625 75.984375 
L 54.390625 0 
L 45.40625 0 
L 45.40625 8.203125 
Q 42.578125 3.328125 38.25 0.953125 
Q 33.9375 -1.421875 27.875 -1.421875 
Q 17.96875 -1.421875 11.734375 6.484375 
Q 5.515625 14.40625 5.515625 27.296875 
Q 5.515625 40.1875 11.734375 48.09375 
Q 17.96875 56 27.875 56 
Q 33.9375 56 38.25 53.625 
Q 42.578125 51.265625 45.40625 46.390625 
M 14.796875 27.296875 
Q 14.796875 17.390625 18.875 11.75 
Q 22.953125 6.109375 30.078125 6.109375 
Q 37.203125 6.109375 41.296875 11.75 
Q 45.40625 17.390625 45.40625 27.296875 
Q 45.40625 37.203125 41.296875 42.84375 
Q 37.203125 48.484375 30.078125 48.484375 
Q 22.953125 48.484375 18.875 42.84375 
Q 14.796875 37.203125 14.796875 27.296875 
" id="DejaVuSans-64"/>
      <path d="M 4.203125 54.6875 
L 13.1875 54.6875 
L 24.421875 12.015625 
L 35.59375 54.6875 
L 46.1875 54.6875 
L 57.421875 12.015625 
L 68.609375 54.6875 
L 77.59375 54.6875 
L 63.28125 0 
L 52.6875 0 
L 40.921875 44.828125 
L 29.109375 0 
L 18.5 0 
z
" id="DejaVuSans-77"/>
      <path d="M 34.28125 27.484375 
Q 23.390625 27.484375 19.1875 25 
Q 14.984375 22.515625 14.984375 16.5 
Q 14.984375 11.71875 18.140625 8.90625 
Q 21.296875 6.109375 26.703125 6.109375 
Q 34.1875 6.109375 38.703125 11.40625 
Q 43.21875 16.703125 43.21875 25.484375 
L 43.21875 27.484375 
z
M 52.203125 31.203125 
L 52.203125 0 
L 43.21875 0 
L 43.21875 8.296875 
Q 40.140625 3.328125 35.546875 0.953125 
Q 30.953125 -1.421875 24.3125 -1.421875 
Q 15.921875 -1.421875 10.953125 3.296875 
Q 6 8.015625 6 15.921875 
Q 6 25.140625 12.171875 29.828125 
Q 18.359375 34.515625 30.609375 34.515625 
L 43.21875 34.515625 
L 43.21875 35.40625 
Q 43.21875 41.609375 39.140625 45 
Q 35.0625 48.390625 27.6875 48.390625 
Q 23 48.390625 18.546875 47.265625 
Q 14.109375 46.140625 10.015625 43.890625 
L 10.015625 52.203125 
Q 14.9375 54.109375 19.578125 55.046875 
Q 24.21875 56 28.609375 56 
Q 40.484375 56 46.34375 49.84375 
Q 52.203125 43.703125 52.203125 31.203125 
" id="DejaVuSans-61"/>
      <path d="M 14.796875 27.296875 
Q 14.796875 17.390625 18.875 11.75 
Q 22.953125 6.109375 30.078125 6.109375 
Q 37.203125 6.109375 41.296875 11.75 
Q 45.40625 17.390625 45.40625 27.296875 
Q 45.40625 37.203125 41.296875 42.84375 
Q 37.203125 48.484375 30.078125 48.484375 
Q 22.953125 48.484375 18.875 42.84375 
Q 14.796875 37.203125 14.796875 27.296875 
M 45.40625 8.203125 
Q 42.578125 3.328125 38.25 0.953125 
Q 33.9375 -1.421875 27.875 -1.421875 
Q 17.96875 -1.421875 11.734375 6.484375 
Q 5.515625 14.40625 5.515625 27.296875 
Q 5.515625 40.1875 11.734375 48.09375 
Q 17.96875 56 27.875 56 
Q 33.9375 56 38.25 53.625 
Q 42.578125 51.265625 45.40625 46.390625 
L 45.40625 54.6875 
L 54.390625 54.6875 
L 54.390625 -20.796875 
L 45.40625 -20.796875 
z
" id="DejaVuSans-71"/>
      <path d="M 18.109375 8.203125 
L 18.109375 -20.796875 
L 9.078125 -20.796875 
L 9.078125 54.6875 
L 18.109375 54.6875 
L 18.109375 46.390625 
Q 20.953125 51.265625 25.265625 53.625 
Q 29.59375 56 35.59375 56 
Q 45.5625 56 51.78125 48.09375 
Q 58.015625 40.1875 58.015625 27.296875 
Q 58.015625 14.40625 51.78125 6.484375 
Q 45.5625 -1.421875 35.59375 -1.421875 
Q 29.59375 -1.421875 25.265625 0.953125 
Q 20.953125 3.328125 18.109375 8.203125 
M 48.6875 27.296875 
Q 48.6875 37.203125 44.609375 42.84375 
Q 40.53125 48.484375 33.40625 48.484375 
Q 26.265625 48.484375 22.1875 42.84375 
Q 18.109375 37.203125 18.109375 27.296875 
Q 18.109375 17.390625 22.1875 11.75 
Q 26.265625 6.109375 33.40625 6.109375 
Q 40.53125 6.109375 44.609375 11.75 
Q 48.6875 17.390625 48.6875 27.296875 
" id="DejaVuSans-70"/>
     </defs>
     <g transform="translate(25.432812 279.366281)rotate(-90)scale(0.1 -0.1)">
      <use xlink:href="#DejaVuSans-53"/>
      <use x="63.476562" xlink:href="#DejaVuSans-75"/>
      <use x="126.855469" xlink:href="#DejaVuSans-63"/>
      <use x="181.835938" xlink:href="#DejaVuSans-63"/>
      <use x="236.816406" xlink:href="#DejaVuSans-65"/>
      <use x="298.339844" xlink:href="#DejaVuSans-73"/>
      <use x="350.439453" xlink:href="#DejaVuSans-73"/>
      <use x="402.539062" xlink:href="#DejaVuSans-66"/>
      <use x="437.744141" xlink:href="#DejaVuSans-75"/>
      <use x="501.123047" xlink:href="#DejaVuSans-6c"/>
      <use x="528.90625" xlink:href="#DejaVuSans-20"/>
      <use x="560.693359" xlink:href="#DejaVuSans-64"/>
      <use x="624.169922" xlink:href="#DejaVuSans-6f"/>
      <use x="685.351562" xlink:href="#DejaVuSans-77"/>
      <use x="767.138672" xlink:href="#DejaVuSans-6e"/>
      <use x="830.517578" xlink:href="#DejaVuSans-6c"/>
      <use x="858.300781" xlink:href="#DejaVuSans-6f"/>
      <use x="919.482422" xlink:href="#DejaVuSans-61"/>
      <use x="980.761719" xlink:href="#DejaVuSans-64"/>
      <use x="1044.238281" xlink:href="#DejaVuSans-20"/>
      <use x="1076.025391" xlink:href="#DejaVuSans-72"/>
      <use x="1117.107422" xlink:href="#DejaVuSans-65"/>
      <use x="1178.630859" xlink:href="#DejaVuSans-71"/>
      <use x="1242.107422" xlink:href="#DejaVuSans-75"/>
      <use x="1305.486328" xlink:href="#DejaVuSans-65"/>
      <use x="1367.009766" xlink:href="#DejaVuSans-73"/>
      <use x="1419.109375" xlink:href="#DejaVuSans-74"/>
      <use x="1458.318359" xlink:href="#DejaVuSans-73"/>
      <use x="1510.417969" xlink:href="#DejaVuSans-20"/>
      <use x="1542.205078" xlink:href="#DejaVuSans-70"/>
      <use x="1605.681641" xlink:href="#DejaVuSans-65"/>
      <use x="1667.205078" xlink:href="#DejaVuSans-72"/>
      <use x="1708.318359" xlink:href="#DejaVuSans-20"/>
      <use x="1740.105469" xlink:href="#DejaVuSans-73"/>
      <use x="1792.205078" xlink:href="#DejaVuSans-65"/>
      <use x="1853.728516" xlink:href="#DejaVuSans-63"/>
      <use x="1908.708984" xlink:href="#DejaVuSans-6f"/>
      <use x="1969.890625" xlink:href="#DejaVuSans-6e"/>
      <use x="2033.269531" xlink:href="#DejaVuSans-64"/>
     </g>
    </g>
   </g>
   <g id="line2d_27">
    <path clip-path="url(#p7b639558fb)" d="M 57.6 295.488 
L 57.95712 295.4566 
L 60.45696 289.858225 
L 61.52832 287.324703 
L 61.88544 286.872701 
L 62.24256 285.715015 
L 62.59968 285.505954 
L 63.31392 283.161661 
L 63.67104 282.83113 
L 64.02816 282.116356 
L 64.38528 280.8686 
L 64.7424 280.252159 
L 65.09952 279.320887 
L 65.45664 279.352288 
L 65.81376 277.397195 
L 66.17088 276.846034 
L 66.528 276.987336 
L 66.88512 275.954426 
L 67.59936 274.674443 
L 67.95648 272.690429 
L 68.3136 273.077977 
L 68.67072 271.293108 
L 69.02784 270.226318 
L 69.38496 270.053615 
L 69.74208 268.800075 
L 70.0992 268.720748 
L 70.45632 266.942489 
L 70.81344 266.865641 
L 71.17056 266.282253 
L 71.52768 265.107214 
L 71.8848 265.478236 
L 72.24192 262.867865 
L 72.59904 262.567908 
L 72.95616 261.435011 
L 73.31328 261.573835 
L 74.02752 260.693795 
L 74.74176 257.588453 
L 75.09888 257.98757 
L 75.456 257.03564 
L 75.81312 254.659946 
L 76.17024 254.55087 
L 76.52736 255.244986 
L 76.88448 254.102174 
L 77.2416 251.326538 
L 77.59872 253.161813 
L 77.95584 250.509299 
L 78.31296 251.420739 
L 78.67008 249.429288 
L 79.0272 248.367456 
L 79.38432 245.949619 
L 79.74144 245.770306 
L 80.09856 246.759421 
L 80.45568 244.440744 
L 80.8128 245.077843 
L 81.16992 243.04177 
L 81.52704 244.471318 
L 82.24128 239.392704 
L 82.5984 242.17991 
L 82.95552 237.904487 
L 83.31264 238.527539 
L 83.66976 239.912465 
L 84.02688 236.755891 
L 84.384 235.357743 
L 84.74112 237.578914 
L 85.09824 233.567916 
L 85.45536 235.415586 
L 85.81248 235.128851 
L 86.1696 231.564897 
L 86.52672 230.517112 
L 86.88384 229.021458 
L 87.24096 230.156007 
L 87.59808 230.45679 
L 87.9552 230.0271 
L 88.66944 227.738997 
L 89.02656 224.65514 
L 89.38368 224.4593 
L 89.7408 224.022172 
L 90.09792 225.535179 
L 90.45504 224.284118 
L 90.81216 220.236762 
L 91.16928 219.391428 
L 91.5264 221.975357 
L 91.88352 218.388266 
L 92.24064 220.489619 
L 92.59776 219.379033 
L 92.95488 215.880359 
L 93.312 217.179348 
L 93.66912 212.877482 
L 94.02624 215.267224 
L 94.38336 216.40921 
L 94.74048 212.511419 
L 95.0976 211.560315 
L 95.45472 210.992628 
L 95.81184 211.531394 
L 96.16896 207.908771 
L 96.52608 206.580035 
L 96.8832 208.525211 
L 97.24032 205.865261 
L 97.59744 209.294523 
L 97.95456 205.445486 
L 98.31168 206.863465 
L 98.6688 202.002176 
L 99.02592 205.918972 
L 99.38304 201.614628 
L 100.09728 200.642866 
L 100.4544 202.296349 
L 100.81152 201.513816 
L 101.16864 201.478284 
L 101.52576 201.711308 
L 101.88288 199.938834 
L 102.59712 192.277118 
L 102.95424 195.2205 
L 103.31136 191.870565 
L 103.66848 191.36072 
L 104.0256 190.036116 
L 104.38272 193.189385 
L 104.73984 187.462103 
L 105.09696 186.968785 
L 105.45408 193.130715 
L 105.8112 190.509602 
L 106.16832 191.252471 
L 106.52544 189.925388 
L 106.88256 186.083788 
L 107.23968 185.156648 
L 107.5968 181.369585 
L 108.31104 184.336104 
L 108.66816 178.154342 
L 109.02528 185.416115 
L 109.3824 182.733853 
L 109.73952 175.794348 
L 110.09664 177.613923 
L 110.45376 177.559385 
L 110.81088 178.80053 
L 111.168 174.567251 
L 111.52512 177.642844 
L 111.88224 173.621105 
L 112.23936 175.486954 
L 112.59648 174.69781 
L 112.9536 168.466469 
L 113.31072 172.388223 
L 113.66784 167.261682 
L 114.38208 169.085389 
L 114.7392 164.065444 
L 115.09632 172.468377 
L 115.45344 162.440883 
L 115.81056 169.864616 
L 116.16768 167.590561 
L 116.5248 166.280831 
L 116.88192 159.808201 
L 117.23904 159.372726 
L 117.59616 165.539614 
L 117.95328 162.689608 
L 118.3104 157.680406 
L 118.66752 159.011621 
L 119.02464 159.601619 
L 119.38176 154.41393 
L 119.73888 158.123318 
L 120.096 153.58347 
L 120.45312 157.268068 
L 120.81024 157.563067 
L 121.16736 153.886733 
L 121.52448 158.46046 
L 121.8816 151.901066 
L 122.23872 157.18213 
L 122.59584 149.750133 
L 122.95296 148.944463 
L 123.31008 149.267558 
L 123.6672 149.870777 
L 124.02432 146.185353 
L 124.38144 147.335602 
L 124.73856 143.668357 
L 125.09568 150.97971 
L 125.4528 145.397036 
L 125.80992 146.536543 
L 126.52416 137.220517 
L 126.88128 138.023709 
L 127.2384 139.192963 
L 127.59552 138.852516 
L 127.95264 134.482892 
L 128.30976 137.601455 
L 128.66688 142.819718 
L 129.024 141.632284 
L 129.38112 132.685628 
L 130.09536 130.541306 
L 130.45248 138.291439 
L 130.8096 132.2171 
L 131.16672 131.618838 
L 131.52384 128.628356 
L 131.88096 133.858188 
L 132.23808 132.400545 
L 132.5952 128.239155 
L 132.95232 127.683036 
L 133.30944 123.855484 
L 133.66656 122.327603 
L 134.02368 122.290418 
L 134.3808 126.564188 
L 134.73792 121.888823 
L 135.09504 128.687852 
L 135.45216 120.451011 
L 135.80928 116.072298 
L 136.1664 116.547436 
L 136.52352 113.851127 
L 136.88064 124.749571 
L 137.23776 117.978637 
L 137.59488 114.09572 
L 137.952 122.653176 
L 138.30912 115.371571 
L 138.66624 121.267424 
L 139.02336 114.192401 
L 139.38048 114.811321 
L 139.7376 107.779267 
L 140.09472 113.947808 
L 140.45184 106.341456 
L 140.80896 111.101933 
L 141.16608 108.899768 
L 141.5232 109.199725 
L 141.88032 113.372683 
L 142.23744 110.884609 
L 142.59456 102.337895 
L 142.95168 106.443921 
L 143.3088 100.096893 
L 143.66592 108.633691 
L 144.02304 102.423833 
L 144.38016 105.403573 
L 144.73728 104.152512 
L 145.0944 104.583856 
L 145.45152 103.972373 
L 145.80864 101.204173 
L 146.16576 103.756701 
L 146.52288 92.322797 
L 146.88 100.729034 
L 147.23712 93.268942 
L 147.59424 101.060392 
L 148.30848 96.322225 
L 148.6656 90.829621 
L 149.02272 99.26478 
L 149.37984 92.01375 
L 149.73696 96.247856 
L 150.09408 93.405287 
L 150.4512 82.575428 
L 150.80832 93.66558 
L 151.16544 90.009077 
L 151.52256 83.395972 
L 151.87968 83.45712 
L 152.2368 82.62005 
L 152.59392 85.906357 
L 152.95104 77.610021 
L 153.30816 82.4647 
L 153.66528 75.583038 
L 154.0224 77.729839 
L 154.37952 72.954488 
L 154.73664 73.530439 
L 155.09376 81.191328 
L 155.45088 77.836435 
L 155.808 72.409938 
L 156.16512 74.900491 
L 156.52224 73.152807 
L 156.87936 76.38375 
L 157.23648 73.446153 
L 157.5936 68.533632 
L 157.95072 80.057606 
L 158.30784 68.130383 
L 158.66496 77.765371 
L 159.02208 62.488214 
L 159.3792 72.511576 
L 160.09344 61.362755 
L 160.80768 73.066042 
L 161.52192 66.673567 
L 161.87904 60.885137 
L 162.23616 61.417292 
L 162.59328 70.020196 
L 162.9504 62.851798 
L 163.30752 60.125741 
L 163.66464 55.49665 
L 164.02176 64.787059 
L 164.37888 53.927453 
L 164.736 53.568 
L 165.09312 65.20105 
L 165.45024 57.019573 
L 165.80736 65.145686 
L 166.16448 59.313461 
L 166.5216 57.58065 
L 166.87872 54.124945 
L 167.23584 55.015727 
L 167.59296 60.733919 
L 167.95008 61.614785 
L 168.3072 68.366713 
L 168.66432 58.001251 
L 169.02144 69.126935 
L 169.73568 73.292456 
L 170.0928 72.414069 
L 170.44992 61.656101 
L 171.16416 76.555627 
L 171.52128 79.414722 
L 171.8784 67.712261 
L 172.23552 74.587313 
L 172.59264 78.735481 
L 172.94976 79.361011 
L 173.664 70.155714 
L 174.02112 70.817603 
L 174.37824 75.423557 
L 174.73536 81.746621 
L 175.09248 78.759444 
L 175.4496 85.334538 
L 175.80672 86.459171 
L 176.16384 81.273961 
L 176.52096 78.057891 
L 176.87808 80.036121 
L 177.2352 75.102941 
L 177.59232 89.302567 
L 178.30656 81.60945 
L 178.66368 80.660825 
L 179.0208 91.400614 
L 179.37792 88.780327 
L 179.73504 87.880456 
L 180.09216 94.012638 
L 180.44928 89.590955 
L 180.8064 80.81948 
L 181.16352 85.955937 
L 181.52064 88.557219 
L 181.87776 92.864042 
L 182.23488 86.227799 
L 182.592 96.376763 
L 182.94912 84.502426 
L 183.30624 92.721087 
L 183.66336 90.436289 
L 184.02048 94.532398 
L 184.3776 89.205886 
L 184.73472 91.220475 
L 185.09184 88.106043 
L 185.44896 100.683586 
L 185.80608 94.239052 
L 186.1632 97.880681 
L 186.52032 97.43529 
L 186.87744 93.368102 
L 187.23456 93.296211 
L 187.59168 94.769555 
L 188.30592 107.064493 
L 188.66304 98.55827 
L 189.02016 106.353024 
L 189.37728 99.911795 
L 190.09152 106.933933 
L 190.44864 100.921569 
L 190.80576 99.198674 
L 191.16288 107.103331 
L 191.52 101.360349 
L 191.87712 99.441615 
L 192.23424 112.723189 
L 192.59136 104.945787 
L 192.94848 104.544192 
L 193.3056 109.254263 
L 193.66272 103.364195 
L 194.01984 109.893015 
L 194.73408 115.079877 
L 195.0912 113.968466 
L 195.44832 111.891903 
L 195.80544 113.63215 
L 196.16256 104.805312 
L 196.51968 112.029073 
L 196.8768 114.650187 
L 197.23392 113.79659 
L 197.59104 110.49045 
L 197.94816 108.261016 
L 198.6624 117.502672 
L 199.01952 121.136037 
L 199.37664 120.042805 
L 199.73376 115.55419 
L 200.448 121.286429 
L 200.80512 111.492786 
L 201.16224 120.395647 
L 201.51936 116.478851 
L 201.87648 122.92917 
L 202.2336 114.808842 
L 202.59072 125.52632 
L 202.94784 118.617389 
L 203.30496 126.121276 
L 204.73344 119.648647 
L 205.09056 121.790489 
L 205.44768 119.659389 
L 205.8048 125.077623 
L 206.16192 124.375244 
L 206.51904 127.821033 
L 206.87616 126.032033 
L 207.23328 123.282838 
L 207.5904 126.656737 
L 207.94752 128.630009 
L 208.30464 125.005733 
L 208.66176 130.899932 
L 209.01888 129.349741 
L 209.376 124.622316 
L 209.73312 129.437331 
L 210.09024 128.913439 
L 210.44736 129.548059 
L 210.80448 130.604107 
L 211.1616 132.769087 
L 211.51872 131.988207 
L 211.87584 132.45343 
L 212.23296 129.476995 
L 212.59008 136.230576 
L 212.9472 135.916571 
L 213.30432 133.347517 
L 213.66144 134.196982 
L 214.01856 137.835306 
L 214.37568 134.994389 
L 214.7328 138.5319 
L 215.08992 130.071125 
L 215.44704 138.44431 
L 215.80416 129.353046 
L 216.16128 128.896086 
L 216.87552 140.455593 
L 217.23264 130.112442 
L 217.58976 138.11791 
L 217.94688 132.417897 
L 218.304 141.794245 
L 218.66112 131.459357 
L 219.01824 138.308792 
L 219.37536 142.518934 
L 219.73248 138.832684 
L 220.0896 138.103036 
L 220.44672 138.152616 
L 221.16096 143.549366 
L 221.51808 138.245165 
L 221.8752 139.414419 
L 222.23232 140.986095 
L 222.58944 139.609433 
L 222.94656 144.006325 
L 223.30368 140.306854 
L 223.6608 142.288389 
L 224.01792 147.500868 
L 224.37504 143.494002 
L 224.73216 146.434078 
L 225.08928 141.914062 
L 225.4464 145.720957 
L 225.80352 143.586551 
L 226.16064 144.32942 
L 226.51776 144.507907 
L 226.87488 140.401881 
L 227.232 149.925315 
L 227.58912 145.628408 
L 227.94624 143.400627 
L 228.30336 144.90785 
L 228.66048 143.419632 
L 229.0176 146.286991 
L 229.37472 142.453655 
L 229.73184 151.305283 
L 230.08896 143.101496 
L 230.44608 148.645332 
L 230.8032 152.384468 
L 231.16032 149.28491 
L 231.51744 147.438067 
L 231.87456 150.026127 
L 232.23168 146.045704 
L 232.5888 155.127878 
L 232.94592 154.588285 
L 233.30304 152.876133 
L 233.66016 146.778657 
L 234.73152 155.124572 
L 235.08864 149.574125 
L 235.44576 152.481975 
L 235.80288 150.578941 
L 236.16 149.818718 
L 236.51712 150.901209 
L 236.87424 152.642282 
L 237.23136 148.539562 
L 237.58848 153.491748 
L 237.9456 152.258866 
L 238.30272 159.138049 
L 238.65984 156.133519 
L 239.01696 154.256928 
L 239.7312 160.387457 
L 240.08832 157.525882 
L 240.44544 161.182385 
L 240.80256 160.227976 
L 241.15968 161.333603 
L 241.5168 152.427437 
L 241.87392 152.150617 
L 242.23104 154.37344 
L 242.58816 161.973181 
L 242.94528 161.579849 
L 243.3024 162.549958 
L 243.65952 155.742666 
L 244.01664 163.610964 
L 244.37376 162.949075 
L 244.73088 157.53084 
L 245.088 163.496104 
L 245.44512 157.286247 
L 245.80224 159.357852 
L 246.15936 163.491973 
L 246.51648 162.276444 
L 246.8736 164.228231 
L 247.23072 157.477129 
L 247.58784 162.797031 
L 247.94496 163.653107 
L 248.6592 159.293399 
L 249.01632 163.317617 
L 249.37344 159.08599 
L 249.73056 164.198483 
L 250.08768 166.211419 
L 250.80192 159.398342 
L 251.15904 165.778423 
L 251.51616 168.368136 
L 252.2304 163.468835 
L 252.58752 161.175774 
L 252.94464 162.517732 
L 253.30176 163.416777 
L 253.65888 168.798653 
L 254.016 164.288553 
L 254.73024 164.96449 
L 255.44448 171.424724 
L 255.8016 166.293225 
L 256.15872 166.732832 
L 256.51584 166.601446 
L 256.87296 165.11736 
L 257.23008 167.623614 
L 257.5872 164.134856 
L 257.94432 164.092713 
L 258.30144 167.440169 
L 258.65856 165.958563 
L 259.01568 165.201646 
L 259.3728 171.118983 
L 259.72992 171.597427 
L 260.08704 173.029454 
L 260.44416 171.944485 
L 260.80128 171.604864 
L 261.1584 173.083991 
L 261.51552 169.015151 
L 261.87264 174.980415 
L 262.22976 174.0384 
L 262.58688 173.797939 
L 262.944 174.734995 
L 263.30112 174.855639 
L 264.01536 169.043246 
L 264.37248 176.338898 
L 265.08672 169.592754 
L 265.44384 174.738301 
L 265.80096 176.876012 
L 266.15808 173.09556 
L 266.5152 171.090888 
L 267.22944 178.256806 
L 267.58656 173.33189 
L 267.94368 177.650281 
L 268.3008 179.042645 
L 268.65792 175.541492 
L 269.01504 177.697382 
L 269.37216 172.173378 
L 270.0864 177.95437 
L 270.44352 173.916104 
L 270.80064 179.362434 
L 271.15776 177.137132 
L 271.51488 178.48322 
L 272.22912 172.552662 
L 272.58624 176.363688 
L 272.94336 176.467806 
L 273.30048 180.734139 
L 273.6576 176.863617 
L 274.01472 179.83592 
L 274.37184 176.27114 
L 274.72896 179.825177 
L 275.08608 174.468091 
L 275.4432 182.084359 
L 275.80032 177.363546 
L 276.15744 180.186283 
L 276.51456 175.747247 
L 276.87168 178.571637 
L 277.2288 182.309947 
L 277.94304 177.701514 
L 278.30016 183.402353 
L 278.65728 183.458543 
L 279.0144 180.752318 
L 279.37152 181.063844 
L 279.72864 178.813752 
L 280.08576 180.297011 
L 280.44288 184.662503 
L 280.8 185.474784 
L 281.15712 183.323025 
L 281.51424 183.312283 
L 281.87136 186.120146 
L 282.22848 184.151006 
L 282.5856 184.412126 
L 282.94272 182.592551 
L 283.29984 184.864954 
L 283.65696 184.56417 
L 284.01408 183.787422 
L 284.3712 179.873931 
L 284.72832 183.453585 
L 285.08544 180.272221 
L 285.44256 184.925276 
L 285.79968 183.689915 
L 286.1568 184.589786 
L 286.51392 181.296042 
L 287.22816 183.597366 
L 287.58528 181.403464 
L 287.9424 181.936446 
L 288.29952 188.093418 
L 288.65664 181.469571 
L 289.01376 188.129777 
L 289.37088 186.090399 
L 289.728 189.247799 
L 290.08512 187.333196 
L 290.44224 187.979385 
L 290.79936 188.096724 
L 291.15648 186.439935 
L 291.5136 183.833696 
L 291.87072 190.218735 
L 292.58496 184.0692 
L 292.94208 186.870452 
L 293.2992 186.89359 
L 293.65632 184.074157 
L 294.01344 189.694016 
L 294.37056 188.652843 
L 294.72768 186.823352 
L 295.0848 191.489628 
L 295.44192 191.357415 
L 295.79904 189.048654 
L 296.15616 190.144365 
L 296.51328 185.914391 
L 296.8704 190.056774 
L 297.22752 187.833951 
L 297.58464 190.698831 
L 297.94176 189.563456 
L 298.29888 193.089399 
L 298.656 193.505042 
L 299.01312 188.004175 
L 299.37024 187.787677 
L 299.72736 193.061304 
L 300.08448 189.563456 
L 300.4416 187.783545 
L 300.79872 188.72308 
L 301.15584 191.895355 
L 301.51296 192.23167 
L 301.87008 190.594714 
L 302.2272 191.197934 
L 302.58432 190.053469 
L 302.94144 193.564538 
L 303.29856 190.028679 
L 303.65568 191.173144 
L 304.0128 189.370922 
L 304.36992 194.776761 
L 304.72704 195.931968 
L 305.08416 189.293247 
L 305.44128 195.965848 
L 305.7984 192.904302 
L 306.15552 196.531056 
L 306.51264 190.863271 
L 306.86976 195.884041 
L 307.22688 190.836828 
L 307.584 193.181948 
L 307.94112 190.751716 
L 308.29824 197.472244 
L 308.65536 193.50339 
L 309.01248 191.060763 
L 309.3696 198.106864 
L 309.72672 195.230416 
L 310.08384 196.735159 
L 310.44096 197.530087 
L 310.79808 197.977957 
L 311.1552 193.695098 
L 311.51232 198.547297 
L 311.86944 194.122309 
L 312.22656 195.134562 
L 312.58368 195.633664 
L 312.9408 198.584482 
L 313.29792 193.253012 
L 313.65504 193.215827 
L 314.01216 198.796849 
L 314.36928 198.389469 
L 314.7264 196.703759 
L 315.08352 193.231528 
L 315.44064 195.652669 
L 315.79776 200.133848 
L 316.15488 197.188814 
L 316.512 197.706095 
L 316.86912 198.551429 
L 317.22624 200.948607 
L 317.58336 194.12892 
L 318.2976 199.971061 
L 318.65472 200.203259 
L 319.01184 197.03429 
L 319.36896 200.465205 
L 319.72608 200.865148 
L 320.0832 201.873269 
L 320.44032 196.965705 
L 320.79744 201.140316 
L 321.15456 198.496891 
L 321.51168 199.481875 
L 321.8688 199.922308 
L 322.22592 197.150803 
L 322.58304 197.958125 
L 322.94016 203.113587 
L 323.29728 196.655006 
L 323.6544 202.945017 
L 324.01152 197.563967 
L 324.36864 200.393315 
L 324.72576 199.58186 
L 325.08288 202.769009 
L 325.44 201.04694 
L 325.79712 201.416309 
L 326.15424 199.181918 
L 326.51136 202.41534 
L 326.86848 199.888428 
L 327.2256 200.091705 
L 327.58272 204.33738 
L 328.29696 204.847224 
L 328.65408 201.93607 
L 329.0112 202.868994 
L 329.36832 203.449903 
L 329.72544 205.211635 
L 330.08256 199.476917 
L 330.43968 204.019243 
L 330.7968 203.234231 
L 331.15392 199.359578 
L 331.51104 199.886776 
L 331.86816 202.377329 
L 332.22528 201.761714 
L 332.93952 199.900823 
L 333.29664 203.194568 
L 333.65376 200.998187 
L 334.01088 204.134929 
L 334.368 205.295094 
L 334.72512 202.621096 
L 335.08224 206.00491 
L 335.43936 206.027221 
L 335.79648 204.519172 
L 336.1536 205.464491 
L 336.51072 202.167442 
L 336.86784 205.004227 
L 337.22496 202.846683 
L 337.58208 204.553051 
L 337.9392 203.52262 
L 338.29632 203.911821 
L 338.65344 202.607048 
L 339.36768 205.847081 
L 339.7248 203.661443 
L 340.08192 208.714441 
L 340.43904 204.257226 
L 340.79616 203.853978 
L 341.15328 206.16687 
L 341.5104 206.81058 
L 341.86752 207.113016 
L 342.58176 203.924216 
L 342.93888 204.2878 
L 343.296 209.374677 
L 343.65312 208.534301 
L 344.01024 203.826709 
L 344.36736 205.938804 
L 344.72448 206.964277 
L 345.0816 206.027221 
L 345.43872 206.992372 
L 345.79584 208.625197 
L 346.15296 209.377982 
L 346.51008 207.329514 
L 347.22432 210.42494 
L 347.58144 205.90823 
L 347.93856 207.779863 
L 348.29568 205.676031 
L 348.6528 209.370545 
L 349.00992 210.720766 
L 349.36704 211.105835 
L 349.72416 207.773253 
L 350.08128 210.786872 
L 350.4384 207.284893 
L 350.79552 206.467654 
L 351.15264 211.86523 
L 351.86688 207.994709 
L 352.224 211.225652 
L 352.58112 208.278139 
L 352.93824 209.435825 
L 353.29536 208.490506 
L 353.65248 211.84953 
L 354.0096 210.144815 
L 354.36672 211.438845 
L 355.08096 208.817732 
L 355.43808 209.028445 
L 355.7952 211.813998 
L 356.15232 207.462553 
L 356.86656 208.991261 
L 357.22368 213.022916 
L 357.5808 209.044146 
L 357.93792 212.861782 
L 358.29504 209.530027 
L 358.65216 209.077199 
L 359.00928 211.752023 
L 359.3664 209.092073 
L 359.72352 213.93353 
L 360.08064 210.662923 
L 360.43776 212.722133 
L 360.79488 209.533332 
L 361.152 208.906975 
L 361.50912 214.845796 
L 361.86624 209.496973 
L 362.22336 210.971969 
L 362.58048 213.473265 
L 362.9376 211.177725 
L 363.29472 213.800491 
L 363.65184 214.856539 
L 364.00896 213.507971 
L 364.7232 212.326322 
L 365.08032 212.375075 
L 365.43744 214.549971 
L 365.79456 212.075118 
L 366.15168 211.467766 
L 366.5088 213.256767 
L 367.22304 212.421349 
L 367.58016 212.104039 
L 367.93728 213.584819 
L 368.2944 213.554245 
L 368.65152 212.889877 
L 369.00864 211.737976 
L 369.36576 216.402599 
L 369.72288 213.563335 
L 370.08 216.942191 
L 370.43712 215.0656 
L 370.79424 215.840696 
L 371.15136 217.153731 
L 371.50848 213.797186 
L 371.8656 212.82625 
L 372.22272 214.232661 
L 372.57984 216.550512 
L 372.93696 215.945639 
L 373.29408 216.536464 
L 373.6512 213.10307 
L 374.00832 216.364588 
L 374.72256 213.436907 
L 375.07968 212.634542 
L 375.4368 213.447649 
L 376.15104 218.477509 
L 376.50816 217.713982 
L 376.86528 215.722531 
L 377.2224 214.637562 
L 377.57952 215.466369 
L 377.93664 215.730794 
L 378.29376 218.266796 
L 378.65088 216.489363 
L 379.36512 218.330423 
L 380.07936 217.228927 
L 380.7936 215.102785 
L 381.15072 219.783108 
L 381.50784 219.10965 
L 381.86496 216.144785 
L 382.22208 216.427389 
L 382.5792 218.44363 
L 382.93632 215.20277 
L 383.29344 215.388694 
L 383.65056 215.705178 
L 384.00768 216.295176 
L 384.3648 217.138857 
L 384.72192 218.839441 
L 385.07904 218.583279 
L 385.43616 216.694293 
L 385.79328 217.183479 
L 386.1504 219.804592 
L 386.50752 216.597612 
L 386.86464 217.011603 
L 387.22176 218.879931 
L 387.57888 219.464972 
L 387.936 219.30549 
L 388.29312 218.984049 
L 388.65024 221.493608 
L 389.00736 216.817416 
L 389.36448 220.931704 
L 389.7216 219.960769 
L 390.07872 221.758859 
L 390.43584 220.442518 
L 390.79296 220.590431 
L 391.15008 218.013113 
L 391.5072 217.239669 
L 391.86432 219.63189 
L 392.22144 218.163505 
L 392.57856 218.518826 
L 392.93568 221.37379 
L 393.2928 222.12327 
L 393.64992 217.937091 
L 394.00704 221.142418 
L 394.36416 218.26349 
L 395.0784 221.981968 
L 395.43552 217.690845 
L 395.79264 221.621688 
L 396.14976 219.086513 
L 396.50688 220.29791 
L 397.22112 219.559999 
L 397.57824 222.910761 
L 397.93536 219.999606 
L 398.29248 223.642887 
L 398.6496 219.494719 
L 399.00672 222.907455 
L 399.36384 220.672237 
L 399.72096 222.929766 
L 400.07808 221.834055 
L 400.4352 219.493067 
L 400.79232 221.301073 
L 401.14944 219.603795 
L 401.50656 224.429552 
L 401.86368 219.97399 
L 402.2208 222.059642 
L 402.57792 223.095858 
L 402.93504 220.732559 
L 403.29216 223.123127 
L 403.64928 221.758859 
L 404.0064 223.365241 
L 404.36352 222.426532 
L 404.72064 223.038841 
L 405.07776 221.583677 
L 405.43488 223.899875 
L 405.792 220.684632 
L 406.14912 220.981284 
L 406.50624 224.548543 
L 406.86336 224.632002 
L 407.22048 222.115833 
L 407.5776 221.346521 
L 407.93472 221.401885 
L 408.29184 223.243771 
L 408.64896 221.777038 
L 409.00608 221.783649 
L 409.3632 225.19969 
L 409.72032 221.216788 
L 410.07744 222.563703 
L 410.43456 224.408894 
L 410.79168 225.234396 
L 411.1488 224.806358 
L 411.50592 226.071466 
L 411.86304 226.236732 
L 412.22016 222.55296 
L 412.57728 225.60707 
L 412.9344 221.618383 
L 413.29152 221.729937 
L 413.64864 224.733641 
L 414.00576 222.776895 
L 414.36288 225.46081 
L 414.72 226.312754 
L 414.72 226.312754 
" style="fill:none;stroke:#000080;stroke-linecap:square;stroke-width:0.5;"/>
   </g>
   <g id="patch_3">
    <path d="M 57.6 307.584 
L 57.6 41.472 
" style="fill:none;stroke:#000000;stroke-linecap:square;stroke-linejoin:miter;stroke-width:0.8;"/>
   </g>
   <g id="patch_4">
    <path d="M 414.72 307.584 
L 414.72 41.472 
" style="fill:none;stroke:#000000;stroke-linecap:square;stroke-linejoin:miter;stroke-width:0.8;"/>
   </g>
   <g id="patch_5">
    <path d="M 57.6 307.584 
L 414.72 307.584 
" style="fill:none;stroke:#000000;stroke-linecap:square;stroke-linejoin:miter;stroke-width:0.8;"/>
   </g>
   <g id="patch_6">
    <path d="M 57.6 41.472 
L 414.72 41.472 
" style="fill:none;stroke:#000000;stroke-linecap:square;stroke-linejoin:miter;stroke-width:0.8;"/>
   </g>
   <g id="text_16">
    <!-- Test -->
    <defs>
     <path d="M -0.296875 72.90625 
L 61.375 72.90625 
L 61.375 64.59375 
L 35.5 64.59375 
L 35.5 0 
L 25.59375 0 
L 25.59375 64.59375 
L -0.296875 64.59375 
z
" id="DejaVuSans-54"/>
    </defs>
    <g transform="translate(223.341563 35.472)scale(0.12 -0.12)">
     <use xlink:href="#DejaVuSans-54"/>
     <use x="60.818359" xlink:href="#DejaVuSans-65"/>
     <use x="122.341797" xlink:href="#DejaVuSans-73"/>
     <use x="174.441406" xlink:href="#DejaVuSans-74"/>
    </g>
   </g>
   <g id="legend_1">
    <g id="patch_7">
     <path d="M 166.043437 302.584 
L 407.72 302.584 
Q 409.72 302.584 409.72 300.584 
L 409.72 286.905875 
Q 409.72 284.905875 407.72 284.905875 
L 166.043437 284.905875 
Q 164.043437 284.905875 164.043437 286.905875 
L 164.043437 300.584 
Q 164.043437 302.584 166.043437 302.584 
z
" style="fill:#ffffff;opacity:0.8;stroke:#cccccc;stroke-linejoin:miter;"/>
    </g>
    <g id="line2d_28">
     <path d="M 168.043437 293.004312 
L 188.043437 293.004312 
" style="fill:none;stroke:#000080;stroke-linecap:square;stroke-width:0.5;"/>
    </g>
    <g id="line2d_29"/>
    <g id="text_17">
     <!-- Successful download requests per second -->
     <g transform="translate(196.043437 296.504312)scale(0.1 -0.1)">
      <use xlink:href="#DejaVuSans-53"/>
      <use x="63.476562" xlink:href="#DejaVuSans-75"/>
      <use x="126.855469" xlink:href="#DejaVuSans-63"/>
      <use x="181.835938" xlink:href="#DejaVuSans-63"/>
      <use x="236.816406" xlink:href="#DejaVuSans-65"/>
      <use x="298.339844" xlink:href="#DejaVuSans-73"/>
      <use x="350.439453" xlink:href="#DejaVuSans-73"/>
      <use x="402.539062" xlink:href="#DejaVuSans-66"/>
      <use x="437.744141" xlink:href="#DejaVuSans-75"/>
      <use x="501.123047" xlink:href="#DejaVuSans-6c"/>
      <use x="528.90625" xlink:href="#DejaVuSans-20"/>
      <use x="560.693359" xlink:href="#DejaVuSans-64"/>
      <use x="624.169922" xlink:href="#DejaVuSans-6f"/>
      <use x="685.351562" xlink:href="#DejaVuSans-77"/>
      <use x="767.138672" xlink:href="#DejaVuSans-6e"/>
      <use x="830.517578" xlink:href="#DejaVuSans-6c"/>
      <use x="858.300781" xlink:href="#DejaVuSans-6f"/>
      <use x="919.482422" xlink:href="#DejaVuSans-61"/>
      <use x="980.761719" xlink:href="#DejaVuSans-64"/>
      <use x="1044.238281" xlink:href="#DejaVuSans-20"/>
      <use x="1076.025391" xlink:href="#DejaVuSans-72"/>
      <use x="1117.107422" xlink:href="#DejaVuSans-65"/>
      <use x="1178.630859" xlink:href="#DejaVuSans-71"/>
      <use x="1242.107422" xlink:href="#DejaVuSans-75"/>
      <use x="1305.486328" xlink:href="#DejaVuSans-65"/>
      <use x="1367.009766" xlink:href="#DejaVuSans-73"/>
      <use x="1419.109375" xlink:href="#DejaVuSans-74"/>
      <use x="1458.318359" xlink:href="#DejaVuSans-73"/>
      <use x="1510.417969" xlink:href="#DejaVuSans-20"/>
      <use x="1542.205078" xlink:href="#DejaVuSans-70"/>
      <use x="1605.681641" xlink:href="#DejaVuSans-65"/>
      <use x="1667.205078" xlink:href="#DejaVuSans-72"/>
      <use x="1708.318359" xlink:href="#DejaVuSans-20"/>
      <use x="1740.105469" xlink:href="#DejaVuSans-73"/>
      <use x="1792.205078" xlink:href="#DejaVuSans-65"/>
      <use x="1853.728516" xlink:href="#DejaVuSans-63"/>
      <use x="1908.708984" xlink:href="#DejaVuSans-6f"/>
      <use x="1969.890625" xlink:href="#DejaVuSans-6e"/>
      <use x="2033.269531" xlink:href="#DejaVuSans-64"/>
     </g>
    </g>
   </g>
  </g>
 </g>
 <defs>
  <clipPath id="p7b639558fb">
   <rect height="266.112" width="357.12" x="57.6" y="41.472"/>
  </clipPath>
 </defs>
</svg>
