<?xml version="1.0" encoding="utf-8" standalone="no"?>
<!DOCTYPE svg PUBLIC "-//W3C//DTD SVG 1.1//EN"
  "http://www.w3.org/Graphics/SVG/1.1/DTD/svg11.dtd">
<!-- Created with matplotlib (http://matplotlib.org/) -->
<svg height="345pt" version="1.1" viewBox="0 0 460 345" width="460pt" xmlns="http://www.w3.org/2000/svg" xmlns:xlink="http://www.w3.org/1999/xlink">
 <defs>
  <style type="text/css">
*{stroke-linecap:butt;stroke-linejoin:round;}
  </style>
 </defs>
 <g id="figure_1">
  <g id="patch_1">
   <path d="M 0 345.6 
L 460.8 345.6 
L 460.8 0 
L 0 0 
z
" style="fill:#ffffff;"/>
  </g>
  <g id="axes_1">
   <g id="patch_2">
    <path d="M 57.6 307.584 
L 414.72 307.584 
L 414.72 41.472 
L 57.6 41.472 
z
" style="fill:#ffffff;"/>
   </g>
   <g id="matplotlib.axis_1">
    <g id="xtick_1">
     <g id="line2d_1">
      <path clip-path="url(#p085ffabc01)" d="M 57.6 307.584 
L 57.6 41.472 
" style="fill:none;stroke:#b0b0b0;stroke-linecap:square;stroke-width:0.8;"/>
     </g>
     <g id="line2d_2">
      <defs>
       <path d="M 0 0 
L 0 3.5 
" id="mff16f74615" style="stroke:#000000;stroke-width:0.8;"/>
      </defs>
      <g>
       <use style="stroke:#000000;stroke-width:0.8;" x="57.6" xlink:href="#mff16f74615" y="307.584"/>
      </g>
     </g>
     <g id="text_1">
      <!-- 0 -->
      <defs>
       <path d="M 31.78125 66.40625 
Q 24.171875 66.40625 20.328125 58.90625 
Q 16.5 51.421875 16.5 36.375 
Q 16.5 21.390625 20.328125 13.890625 
Q 24.171875 6.390625 31.78125 6.390625 
Q 39.453125 6.390625 43.28125 13.890625 
Q 47.125 21.390625 47.125 36.375 
Q 47.125 51.421875 43.28125 58.90625 
Q 39.453125 66.40625 31.78125 66.40625 
M 31.78125 74.21875 
Q 44.046875 74.21875 50.515625 64.515625 
Q 56.984375 54.828125 56.984375 36.375 
Q 56.984375 17.96875 50.515625 8.265625 
Q 44.046875 -1.421875 31.78125 -1.421875 
Q 19.53125 -1.421875 13.0625 8.265625 
Q 6.59375 17.96875 6.59375 36.375 
Q 6.59375 54.828125 13.0625 64.515625 
Q 19.53125 74.21875 31.78125 74.21875 
" id="DejaVuSans-30"/>
      </defs>
      <g transform="translate(54.41875 322.182437)scale(0.1 -0.1)">
       <use xlink:href="#DejaVuSans-30"/>
      </g>
     </g>
    </g>
    <g id="xtick_2">
     <g id="line2d_3">
      <path clip-path="url(#p085ffabc01)" d="M 129.024 307.584 
L 129.024 41.472 
" style="fill:none;stroke:#b0b0b0;stroke-linecap:square;stroke-width:0.8;"/>
     </g>
     <g id="line2d_4">
      <g>
       <use style="stroke:#000000;stroke-width:0.8;" x="129.024" xlink:href="#mff16f74615" y="307.584"/>
      </g>
     </g>
     <g id="text_2">
      <!-- 200 -->
      <defs>
       <path d="M 19.1875 8.296875 
L 53.609375 8.296875 
L 53.609375 0 
L 7.328125 0 
L 7.328125 8.296875 
Q 12.9375 14.109375 22.625 23.890625 
Q 32.328125 33.6875 34.8125 36.53125 
Q 39.546875 41.84375 41.421875 45.53125 
Q 43.3125 49.21875 43.3125 52.78125 
Q 43.3125 58.59375 39.234375 62.25 
Q 35.15625 65.921875 28.609375 65.921875 
Q 23.96875 65.921875 18.8125 64.3125 
Q 13.671875 62.703125 7.8125 59.421875 
L 7.8125 69.390625 
Q 13.765625 71.78125 18.9375 73 
Q 24.125 74.21875 28.421875 74.21875 
Q 39.75 74.21875 46.484375 68.546875 
Q 53.21875 62.890625 53.21875 53.421875 
Q 53.21875 48.921875 51.53125 44.890625 
Q 49.859375 40.875 45.40625 35.40625 
Q 44.1875 33.984375 37.640625 27.21875 
Q 31.109375 20.453125 19.1875 8.296875 
" id="DejaVuSans-32"/>
      </defs>
      <g transform="translate(119.48025 322.182437)scale(0.1 -0.1)">
       <use xlink:href="#DejaVuSans-32"/>
       <use x="63.623047" xlink:href="#DejaVuSans-30"/>
       <use x="127.246094" xlink:href="#DejaVuSans-30"/>
      </g>
     </g>
    </g>
    <g id="xtick_3">
     <g id="line2d_5">
      <path clip-path="url(#p085ffabc01)" d="M 200.448 307.584 
L 200.448 41.472 
" style="fill:none;stroke:#b0b0b0;stroke-linecap:square;stroke-width:0.8;"/>
     </g>
     <g id="line2d_6">
      <g>
       <use style="stroke:#000000;stroke-width:0.8;" x="200.448" xlink:href="#mff16f74615" y="307.584"/>
      </g>
     </g>
     <g id="text_3">
      <!-- 400 -->
      <defs>
       <path d="M 37.796875 64.3125 
L 12.890625 25.390625 
L 37.796875 25.390625 
z
M 35.203125 72.90625 
L 47.609375 72.90625 
L 47.609375 25.390625 
L 58.015625 25.390625 
L 58.015625 17.1875 
L 47.609375 17.1875 
L 47.609375 0 
L 37.796875 0 
L 37.796875 17.1875 
L 4.890625 17.1875 
L 4.890625 26.703125 
z
" id="DejaVuSans-34"/>
      </defs>
      <g transform="translate(190.90425 322.182437)scale(0.1 -0.1)">
       <use xlink:href="#DejaVuSans-34"/>
       <use x="63.623047" xlink:href="#DejaVuSans-30"/>
       <use x="127.246094" xlink:href="#DejaVuSans-30"/>
      </g>
     </g>
    </g>
    <g id="xtick_4">
     <g id="line2d_7">
      <path clip-path="url(#p085ffabc01)" d="M 271.872 307.584 
L 271.872 41.472 
" style="fill:none;stroke:#b0b0b0;stroke-linecap:square;stroke-width:0.8;"/>
     </g>
     <g id="line2d_8">
      <g>
       <use style="stroke:#000000;stroke-width:0.8;" x="271.872" xlink:href="#mff16f74615" y="307.584"/>
      </g>
     </g>
     <g id="text_4">
      <!-- 600 -->
      <defs>
       <path d="M 33.015625 40.375 
Q 26.375 40.375 22.484375 35.828125 
Q 18.609375 31.296875 18.609375 23.390625 
Q 18.609375 15.53125 22.484375 10.953125 
Q 26.375 6.390625 33.015625 6.390625 
Q 39.65625 6.390625 43.53125 10.953125 
Q 47.40625 15.53125 47.40625 23.390625 
Q 47.40625 31.296875 43.53125 35.828125 
Q 39.65625 40.375 33.015625 40.375 
M 52.59375 71.296875 
L 52.59375 62.3125 
Q 48.875 64.0625 45.09375 64.984375 
Q 41.3125 65.921875 37.59375 65.921875 
Q 27.828125 65.921875 22.671875 59.328125 
Q 17.53125 52.734375 16.796875 39.40625 
Q 19.671875 43.65625 24.015625 45.921875 
Q 28.375 48.1875 33.59375 48.1875 
Q 44.578125 48.1875 50.953125 41.515625 
Q 57.328125 34.859375 57.328125 23.390625 
Q 57.328125 12.15625 50.6875 5.359375 
Q 44.046875 -1.421875 33.015625 -1.421875 
Q 20.359375 -1.421875 13.671875 8.265625 
Q 6.984375 17.96875 6.984375 36.375 
Q 6.984375 53.65625 15.1875 63.9375 
Q 23.390625 74.21875 37.203125 74.21875 
Q 40.921875 74.21875 44.703125 73.484375 
Q 48.484375 72.75 52.59375 71.296875 
" id="DejaVuSans-36"/>
      </defs>
      <g transform="translate(262.32825 322.182437)scale(0.1 -0.1)">
       <use xlink:href="#DejaVuSans-36"/>
       <use x="63.623047" xlink:href="#DejaVuSans-30"/>
       <use x="127.246094" xlink:href="#DejaVuSans-30"/>
      </g>
     </g>
    </g>
    <g id="xtick_5">
     <g id="line2d_9">
      <path clip-path="url(#p085ffabc01)" d="M 343.296 307.584 
L 343.296 41.472 
" style="fill:none;stroke:#b0b0b0;stroke-linecap:square;stroke-width:0.8;"/>
     </g>
     <g id="line2d_10">
      <g>
       <use style="stroke:#000000;stroke-width:0.8;" x="343.296" xlink:href="#mff16f74615" y="307.584"/>
      </g>
     </g>
     <g id="text_5">
      <!-- 800 -->
      <defs>
       <path d="M 31.78125 34.625 
Q 24.75 34.625 20.71875 30.859375 
Q 16.703125 27.09375 16.703125 20.515625 
Q 16.703125 13.921875 20.71875 10.15625 
Q 24.75 6.390625 31.78125 6.390625 
Q 38.8125 6.390625 42.859375 10.171875 
Q 46.921875 13.96875 46.921875 20.515625 
Q 46.921875 27.09375 42.890625 30.859375 
Q 38.875 34.625 31.78125 34.625 
M 21.921875 38.8125 
Q 15.578125 40.375 12.03125 44.71875 
Q 8.5 49.078125 8.5 55.328125 
Q 8.5 64.0625 14.71875 69.140625 
Q 20.953125 74.21875 31.78125 74.21875 
Q 42.671875 74.21875 48.875 69.140625 
Q 55.078125 64.0625 55.078125 55.328125 
Q 55.078125 49.078125 51.53125 44.71875 
Q 48 40.375 41.703125 38.8125 
Q 48.828125 37.15625 52.796875 32.3125 
Q 56.78125 27.484375 56.78125 20.515625 
Q 56.78125 9.90625 50.3125 4.234375 
Q 43.84375 -1.421875 31.78125 -1.421875 
Q 19.734375 -1.421875 13.25 4.234375 
Q 6.78125 9.90625 6.78125 20.515625 
Q 6.78125 27.484375 10.78125 32.3125 
Q 14.796875 37.15625 21.921875 38.8125 
M 18.3125 54.390625 
Q 18.3125 48.734375 21.84375 45.5625 
Q 25.390625 42.390625 31.78125 42.390625 
Q 38.140625 42.390625 41.71875 45.5625 
Q 45.3125 48.734375 45.3125 54.390625 
Q 45.3125 60.0625 41.71875 63.234375 
Q 38.140625 66.40625 31.78125 66.40625 
Q 25.390625 66.40625 21.84375 63.234375 
Q 18.3125 60.0625 18.3125 54.390625 
" id="DejaVuSans-38"/>
      </defs>
      <g transform="translate(333.75225 322.182437)scale(0.1 -0.1)">
       <use xlink:href="#DejaVuSans-38"/>
       <use x="63.623047" xlink:href="#DejaVuSans-30"/>
       <use x="127.246094" xlink:href="#DejaVuSans-30"/>
      </g>
     </g>
    </g>
    <g id="xtick_6">
     <g id="line2d_11">
      <path clip-path="url(#p085ffabc01)" d="M 414.72 307.584 
L 414.72 41.472 
" style="fill:none;stroke:#b0b0b0;stroke-linecap:square;stroke-width:0.8;"/>
     </g>
     <g id="line2d_12">
      <g>
       <use style="stroke:#000000;stroke-width:0.8;" x="414.72" xlink:href="#mff16f74615" y="307.584"/>
      </g>
     </g>
     <g id="text_6">
      <!-- 1000 -->
      <defs>
       <path d="M 12.40625 8.296875 
L 28.515625 8.296875 
L 28.515625 63.921875 
L 10.984375 60.40625 
L 10.984375 69.390625 
L 28.421875 72.90625 
L 38.28125 72.90625 
L 38.28125 8.296875 
L 54.390625 8.296875 
L 54.390625 0 
L 12.40625 0 
z
" id="DejaVuSans-31"/>
      </defs>
      <g transform="translate(401.995 322.182437)scale(0.1 -0.1)">
       <use xlink:href="#DejaVuSans-31"/>
       <use x="63.623047" xlink:href="#DejaVuSans-30"/>
       <use x="127.246094" xlink:href="#DejaVuSans-30"/>
       <use x="190.869141" xlink:href="#DejaVuSans-30"/>
      </g>
     </g>
    </g>
    <g id="text_7">
     <!-- Number of clients -->
     <defs>
      <path d="M 9.8125 72.90625 
L 23.09375 72.90625 
L 55.421875 11.921875 
L 55.421875 72.90625 
L 64.984375 72.90625 
L 64.984375 0 
L 51.703125 0 
L 19.390625 60.984375 
L 19.390625 0 
L 9.8125 0 
z
" id="DejaVuSans-4e"/>
      <path d="M 8.5 21.578125 
L 8.5 54.6875 
L 17.484375 54.6875 
L 17.484375 21.921875 
Q 17.484375 14.15625 20.5 10.265625 
Q 23.53125 6.390625 29.59375 6.390625 
Q 36.859375 6.390625 41.078125 11.03125 
Q 45.3125 15.671875 45.3125 23.6875 
L 45.3125 54.6875 
L 54.296875 54.6875 
L 54.296875 0 
L 45.3125 0 
L 45.3125 8.40625 
Q 42.046875 3.421875 37.71875 1 
Q 33.40625 -1.421875 27.6875 -1.421875 
Q 18.265625 -1.421875 13.375 4.4375 
Q 8.5 10.296875 8.5 21.578125 
M 31.109375 56 
z
" id="DejaVuSans-75"/>
      <path d="M 52 44.1875 
Q 55.375 50.25 60.0625 53.125 
Q 64.75 56 71.09375 56 
Q 79.640625 56 84.28125 50.015625 
Q 88.921875 44.046875 88.921875 33.015625 
L 88.921875 0 
L 79.890625 0 
L 79.890625 32.71875 
Q 79.890625 40.578125 77.09375 44.375 
Q 74.3125 48.1875 68.609375 48.1875 
Q 61.625 48.1875 57.5625 43.546875 
Q 53.515625 38.921875 53.515625 30.90625 
L 53.515625 0 
L 44.484375 0 
L 44.484375 32.71875 
Q 44.484375 40.625 41.703125 44.40625 
Q 38.921875 48.1875 33.109375 48.1875 
Q 26.21875 48.1875 22.15625 43.53125 
Q 18.109375 38.875 18.109375 30.90625 
L 18.109375 0 
L 9.078125 0 
L 9.078125 54.6875 
L 18.109375 54.6875 
L 18.109375 46.1875 
Q 21.1875 51.21875 25.484375 53.609375 
Q 29.78125 56 35.6875 56 
Q 41.65625 56 45.828125 52.96875 
Q 50 49.953125 52 44.1875 
" id="DejaVuSans-6d"/>
      <path d="M 48.6875 27.296875 
Q 48.6875 37.203125 44.609375 42.84375 
Q 40.53125 48.484375 33.40625 48.484375 
Q 26.265625 48.484375 22.1875 42.84375 
Q 18.109375 37.203125 18.109375 27.296875 
Q 18.109375 17.390625 22.1875 11.75 
Q 26.265625 6.109375 33.40625 6.109375 
Q 40.53125 6.109375 44.609375 11.75 
Q 48.6875 17.390625 48.6875 27.296875 
M 18.109375 46.390625 
Q 20.953125 51.265625 25.265625 53.625 
Q 29.59375 56 35.59375 56 
Q 45.5625 56 51.78125 48.09375 
Q 58.015625 40.1875 58.015625 27.296875 
Q 58.015625 14.40625 51.78125 6.484375 
Q 45.5625 -1.421875 35.59375 -1.421875 
Q 29.59375 -1.421875 25.265625 0.953125 
Q 20.953125 3.328125 18.109375 8.203125 
L 18.109375 0 
L 9.078125 0 
L 9.078125 75.984375 
L 18.109375 75.984375 
z
" id="DejaVuSans-62"/>
      <path d="M 56.203125 29.59375 
L 56.203125 25.203125 
L 14.890625 25.203125 
Q 15.484375 15.921875 20.484375 11.0625 
Q 25.484375 6.203125 34.421875 6.203125 
Q 39.59375 6.203125 44.453125 7.46875 
Q 49.3125 8.734375 54.109375 11.28125 
L 54.109375 2.78125 
Q 49.265625 0.734375 44.1875 -0.34375 
Q 39.109375 -1.421875 33.890625 -1.421875 
Q 20.796875 -1.421875 13.15625 6.1875 
Q 5.515625 13.8125 5.515625 26.8125 
Q 5.515625 40.234375 12.765625 48.109375 
Q 20.015625 56 32.328125 56 
Q 43.359375 56 49.78125 48.890625 
Q 56.203125 41.796875 56.203125 29.59375 
M 47.21875 32.234375 
Q 47.125 39.59375 43.09375 43.984375 
Q 39.0625 48.390625 32.421875 48.390625 
Q 24.90625 48.390625 20.390625 44.140625 
Q 15.875 39.890625 15.1875 32.171875 
z
" id="DejaVuSans-65"/>
      <path d="M 41.109375 46.296875 
Q 39.59375 47.171875 37.8125 47.578125 
Q 36.03125 48 33.890625 48 
Q 26.265625 48 22.1875 43.046875 
Q 18.109375 38.09375 18.109375 28.8125 
L 18.109375 0 
L 9.078125 0 
L 9.078125 54.6875 
L 18.109375 54.6875 
L 18.109375 46.1875 
Q 20.953125 51.171875 25.484375 53.578125 
Q 30.03125 56 36.53125 56 
Q 37.453125 56 38.578125 55.875 
Q 39.703125 55.765625 41.0625 55.515625 
z
" id="DejaVuSans-72"/>
      <path id="DejaVuSans-20"/>
      <path d="M 30.609375 48.390625 
Q 23.390625 48.390625 19.1875 42.75 
Q 14.984375 37.109375 14.984375 27.296875 
Q 14.984375 17.484375 19.15625 11.84375 
Q 23.34375 6.203125 30.609375 6.203125 
Q 37.796875 6.203125 41.984375 11.859375 
Q 46.1875 17.53125 46.1875 27.296875 
Q 46.1875 37.015625 41.984375 42.703125 
Q 37.796875 48.390625 30.609375 48.390625 
M 30.609375 56 
Q 42.328125 56 49.015625 48.375 
Q 55.71875 40.765625 55.71875 27.296875 
Q 55.71875 13.875 49.015625 6.21875 
Q 42.328125 -1.421875 30.609375 -1.421875 
Q 18.84375 -1.421875 12.171875 6.21875 
Q 5.515625 13.875 5.515625 27.296875 
Q 5.515625 40.765625 12.171875 48.375 
Q 18.84375 56 30.609375 56 
" id="DejaVuSans-6f"/>
      <path d="M 37.109375 75.984375 
L 37.109375 68.5 
L 28.515625 68.5 
Q 23.6875 68.5 21.796875 66.546875 
Q 19.921875 64.59375 19.921875 59.515625 
L 19.921875 54.6875 
L 34.71875 54.6875 
L 34.71875 47.703125 
L 19.921875 47.703125 
L 19.921875 0 
L 10.890625 0 
L 10.890625 47.703125 
L 2.296875 47.703125 
L 2.296875 54.6875 
L 10.890625 54.6875 
L 10.890625 58.5 
Q 10.890625 67.625 15.140625 71.796875 
Q 19.390625 75.984375 28.609375 75.984375 
z
" id="DejaVuSans-66"/>
      <path d="M 48.78125 52.59375 
L 48.78125 44.1875 
Q 44.96875 46.296875 41.140625 47.34375 
Q 37.3125 48.390625 33.40625 48.390625 
Q 24.65625 48.390625 19.8125 42.84375 
Q 14.984375 37.3125 14.984375 27.296875 
Q 14.984375 17.28125 19.8125 11.734375 
Q 24.65625 6.203125 33.40625 6.203125 
Q 37.3125 6.203125 41.140625 7.25 
Q 44.96875 8.296875 48.78125 10.40625 
L 48.78125 2.09375 
Q 45.015625 0.34375 40.984375 -0.53125 
Q 36.96875 -1.421875 32.421875 -1.421875 
Q 20.0625 -1.421875 12.78125 6.34375 
Q 5.515625 14.109375 5.515625 27.296875 
Q 5.515625 40.671875 12.859375 48.328125 
Q 20.21875 56 33.015625 56 
Q 37.15625 56 41.109375 55.140625 
Q 45.0625 54.296875 48.78125 52.59375 
" id="DejaVuSans-63"/>
      <path d="M 9.421875 75.984375 
L 18.40625 75.984375 
L 18.40625 0 
L 9.421875 0 
z
" id="DejaVuSans-6c"/>
      <path d="M 9.421875 54.6875 
L 18.40625 54.6875 
L 18.40625 0 
L 9.421875 0 
z
M 9.421875 75.984375 
L 18.40625 75.984375 
L 18.40625 64.59375 
L 9.421875 64.59375 
z
" id="DejaVuSans-69"/>
      <path d="M 54.890625 33.015625 
L 54.890625 0 
L 45.90625 0 
L 45.90625 32.71875 
Q 45.90625 40.484375 42.875 44.328125 
Q 39.84375 48.1875 33.796875 48.1875 
Q 26.515625 48.1875 22.3125 43.546875 
Q 18.109375 38.921875 18.109375 30.90625 
L 18.109375 0 
L 9.078125 0 
L 9.078125 54.6875 
L 18.109375 54.6875 
L 18.109375 46.1875 
Q 21.34375 51.125 25.703125 53.5625 
Q 30.078125 56 35.796875 56 
Q 45.21875 56 50.046875 50.171875 
Q 54.890625 44.34375 54.890625 33.015625 
" id="DejaVuSans-6e"/>
      <path d="M 18.3125 70.21875 
L 18.3125 54.6875 
L 36.8125 54.6875 
L 36.8125 47.703125 
L 18.3125 47.703125 
L 18.3125 18.015625 
Q 18.3125 11.328125 20.140625 9.421875 
Q 21.96875 7.515625 27.59375 7.515625 
L 36.8125 7.515625 
L 36.8125 0 
L 27.59375 0 
Q 17.1875 0 13.234375 3.875 
Q 9.28125 7.765625 9.28125 18.015625 
L 9.28125 47.703125 
L 2.6875 47.703125 
L 2.6875 54.6875 
L 9.28125 54.6875 
L 9.28125 70.21875 
z
" id="DejaVuSans-74"/>
      <path d="M 44.28125 53.078125 
L 44.28125 44.578125 
Q 40.484375 46.53125 36.375 47.5 
Q 32.28125 48.484375 27.875 48.484375 
Q 21.1875 48.484375 17.84375 46.4375 
Q 14.5 44.390625 14.5 40.28125 
Q 14.5 37.15625 16.890625 35.375 
Q 19.28125 33.59375 26.515625 31.984375 
L 29.59375 31.296875 
Q 39.15625 29.25 43.1875 25.515625 
Q 47.21875 21.78125 47.21875 15.09375 
Q 47.21875 7.46875 41.1875 3.015625 
Q 35.15625 -1.421875 24.609375 -1.421875 
Q 20.21875 -1.421875 15.453125 -0.5625 
Q 10.6875 0.296875 5.421875 2 
L 5.421875 11.28125 
Q 10.40625 8.6875 15.234375 7.390625 
Q 20.0625 6.109375 24.8125 6.109375 
Q 31.15625 6.109375 34.5625 8.28125 
Q 37.984375 10.453125 37.984375 14.40625 
Q 37.984375 18.0625 35.515625 20.015625 
Q 33.0625 21.96875 24.703125 23.78125 
L 21.578125 24.515625 
Q 13.234375 26.265625 9.515625 29.90625 
Q 5.8125 33.546875 5.8125 39.890625 
Q 5.8125 47.609375 11.28125 51.796875 
Q 16.75 56 26.8125 56 
Q 31.78125 56 36.171875 55.265625 
Q 40.578125 54.546875 44.28125 53.078125 
" id="DejaVuSans-73"/>
     </defs>
     <g transform="translate(191.738906 335.860562)scale(0.1 -0.1)">
      <use xlink:href="#DejaVuSans-4e"/>
      <use x="74.804688" xlink:href="#DejaVuSans-75"/>
      <use x="138.183594" xlink:href="#DejaVuSans-6d"/>
      <use x="235.595703" xlink:href="#DejaVuSans-62"/>
      <use x="299.072266" xlink:href="#DejaVuSans-65"/>
      <use x="360.595703" xlink:href="#DejaVuSans-72"/>
      <use x="401.708984" xlink:href="#DejaVuSans-20"/>
      <use x="433.496094" xlink:href="#DejaVuSans-6f"/>
      <use x="494.677734" xlink:href="#DejaVuSans-66"/>
      <use x="529.882812" xlink:href="#DejaVuSans-20"/>
      <use x="561.669922" xlink:href="#DejaVuSans-63"/>
      <use x="616.650391" xlink:href="#DejaVuSans-6c"/>
      <use x="644.433594" xlink:href="#DejaVuSans-69"/>
      <use x="672.216797" xlink:href="#DejaVuSans-65"/>
      <use x="733.740234" xlink:href="#DejaVuSans-6e"/>
      <use x="797.119141" xlink:href="#DejaVuSans-74"/>
      <use x="836.328125" xlink:href="#DejaVuSans-73"/>
     </g>
    </g>
   </g>
   <g id="matplotlib.axis_2">
    <g id="ytick_1">
     <g id="line2d_13">
      <path clip-path="url(#p085ffabc01)" d="M 57.6 296.28535 
L 414.72 296.28535 
" style="fill:none;stroke:#b0b0b0;stroke-linecap:square;stroke-width:0.8;"/>
     </g>
     <g id="line2d_14">
      <defs>
       <path d="M 0 0 
L -3.5 0 
" id="m48752978f2" style="stroke:#000000;stroke-width:0.8;"/>
      </defs>
      <g>
       <use style="stroke:#000000;stroke-width:0.8;" x="57.6" xlink:href="#m48752978f2" y="296.28535"/>
      </g>
     </g>
     <g id="text_8">
      <!-- 0 -->
      <g transform="translate(44.2375 300.084569)scale(0.1 -0.1)">
       <use xlink:href="#DejaVuSans-30"/>
      </g>
     </g>
    </g>
    <g id="ytick_2">
     <g id="line2d_15">
      <path clip-path="url(#p085ffabc01)" d="M 57.6 255.099907 
L 414.72 255.099907 
" style="fill:none;stroke:#b0b0b0;stroke-linecap:square;stroke-width:0.8;"/>
     </g>
     <g id="line2d_16">
      <g>
       <use style="stroke:#000000;stroke-width:0.8;" x="57.6" xlink:href="#m48752978f2" y="255.099907"/>
      </g>
     </g>
     <g id="text_9">
      <!-- 50 -->
      <defs>
       <path d="M 10.796875 72.90625 
L 49.515625 72.90625 
L 49.515625 64.59375 
L 19.828125 64.59375 
L 19.828125 46.734375 
Q 21.96875 47.46875 24.109375 47.828125 
Q 26.265625 48.1875 28.421875 48.1875 
Q 40.625 48.1875 47.75 41.5 
Q 54.890625 34.8125 54.890625 23.390625 
Q 54.890625 11.625 47.5625 5.09375 
Q 40.234375 -1.421875 26.90625 -1.421875 
Q 22.3125 -1.421875 17.546875 -0.640625 
Q 12.796875 0.140625 7.71875 1.703125 
L 7.71875 11.625 
Q 12.109375 9.234375 16.796875 8.0625 
Q 21.484375 6.890625 26.703125 6.890625 
Q 35.15625 6.890625 40.078125 11.328125 
Q 45.015625 15.765625 45.015625 23.390625 
Q 45.015625 31 40.078125 35.4375 
Q 35.15625 39.890625 26.703125 39.890625 
Q 22.75 39.890625 18.8125 39.015625 
Q 14.890625 38.140625 10.796875 36.28125 
z
" id="DejaVuSans-35"/>
      </defs>
      <g transform="translate(37.875 258.899125)scale(0.1 -0.1)">
       <use xlink:href="#DejaVuSans-35"/>
       <use x="63.623047" xlink:href="#DejaVuSans-30"/>
      </g>
     </g>
    </g>
    <g id="ytick_3">
     <g id="line2d_17">
      <path clip-path="url(#p085ffabc01)" d="M 57.6 213.914463 
L 414.72 213.914463 
" style="fill:none;stroke:#b0b0b0;stroke-linecap:square;stroke-width:0.8;"/>
     </g>
     <g id="line2d_18">
      <g>
       <use style="stroke:#000000;stroke-width:0.8;" x="57.6" xlink:href="#m48752978f2" y="213.914463"/>
      </g>
     </g>
     <g id="text_10">
      <!-- 100 -->
      <g transform="translate(31.5125 217.713682)scale(0.1 -0.1)">
       <use xlink:href="#DejaVuSans-31"/>
       <use x="63.623047" xlink:href="#DejaVuSans-30"/>
       <use x="127.246094" xlink:href="#DejaVuSans-30"/>
      </g>
     </g>
    </g>
    <g id="ytick_4">
     <g id="line2d_19">
      <path clip-path="url(#p085ffabc01)" d="M 57.6 172.72902 
L 414.72 172.72902 
" style="fill:none;stroke:#b0b0b0;stroke-linecap:square;stroke-width:0.8;"/>
     </g>
     <g id="line2d_20">
      <g>
       <use style="stroke:#000000;stroke-width:0.8;" x="57.6" xlink:href="#m48752978f2" y="172.72902"/>
      </g>
     </g>
     <g id="text_11">
      <!-- 150 -->
      <g transform="translate(31.5125 176.528239)scale(0.1 -0.1)">
       <use xlink:href="#DejaVuSans-31"/>
       <use x="63.623047" xlink:href="#DejaVuSans-35"/>
       <use x="127.246094" xlink:href="#DejaVuSans-30"/>
      </g>
     </g>
    </g>
    <g id="ytick_5">
     <g id="line2d_21">
      <path clip-path="url(#p085ffabc01)" d="M 57.6 131.543576 
L 414.72 131.543576 
" style="fill:none;stroke:#b0b0b0;stroke-linecap:square;stroke-width:0.8;"/>
     </g>
     <g id="line2d_22">
      <g>
       <use style="stroke:#000000;stroke-width:0.8;" x="57.6" xlink:href="#m48752978f2" y="131.543576"/>
      </g>
     </g>
     <g id="text_12">
      <!-- 200 -->
      <g transform="translate(31.5125 135.342795)scale(0.1 -0.1)">
       <use xlink:href="#DejaVuSans-32"/>
       <use x="63.623047" xlink:href="#DejaVuSans-30"/>
       <use x="127.246094" xlink:href="#DejaVuSans-30"/>
      </g>
     </g>
    </g>
    <g id="ytick_6">
     <g id="line2d_23">
      <path clip-path="url(#p085ffabc01)" d="M 57.6 90.358133 
L 414.72 90.358133 
" style="fill:none;stroke:#b0b0b0;stroke-linecap:square;stroke-width:0.8;"/>
     </g>
     <g id="line2d_24">
      <g>
       <use style="stroke:#000000;stroke-width:0.8;" x="57.6" xlink:href="#m48752978f2" y="90.358133"/>
      </g>
     </g>
     <g id="text_13">
      <!-- 250 -->
      <g transform="translate(31.5125 94.157352)scale(0.1 -0.1)">
       <use xlink:href="#DejaVuSans-32"/>
       <use x="63.623047" xlink:href="#DejaVuSans-35"/>
       <use x="127.246094" xlink:href="#DejaVuSans-30"/>
      </g>
     </g>
    </g>
    <g id="ytick_7">
     <g id="line2d_25">
      <path clip-path="url(#p085ffabc01)" d="M 57.6 49.172689 
L 414.72 49.172689 
" style="fill:none;stroke:#b0b0b0;stroke-linecap:square;stroke-width:0.8;"/>
     </g>
     <g id="line2d_26">
      <g>
       <use style="stroke:#000000;stroke-width:0.8;" x="57.6" xlink:href="#m48752978f2" y="49.172689"/>
      </g>
     </g>
     <g id="text_14">
      <!-- 300 -->
      <defs>
       <path d="M 40.578125 39.3125 
Q 47.65625 37.796875 51.625 33 
Q 55.609375 28.21875 55.609375 21.1875 
Q 55.609375 10.40625 48.1875 4.484375 
Q 40.765625 -1.421875 27.09375 -1.421875 
Q 22.515625 -1.421875 17.65625 -0.515625 
Q 12.796875 0.390625 7.625 2.203125 
L 7.625 11.71875 
Q 11.71875 9.328125 16.59375 8.109375 
Q 21.484375 6.890625 26.8125 6.890625 
Q 36.078125 6.890625 40.9375 10.546875 
Q 45.796875 14.203125 45.796875 21.1875 
Q 45.796875 27.640625 41.28125 31.265625 
Q 36.765625 34.90625 28.71875 34.90625 
L 20.21875 34.90625 
L 20.21875 43.015625 
L 29.109375 43.015625 
Q 36.375 43.015625 40.234375 45.921875 
Q 44.09375 48.828125 44.09375 54.296875 
Q 44.09375 59.90625 40.109375 62.90625 
Q 36.140625 65.921875 28.71875 65.921875 
Q 24.65625 65.921875 20.015625 65.03125 
Q 15.375 64.15625 9.8125 62.3125 
L 9.8125 71.09375 
Q 15.4375 72.65625 20.34375 73.4375 
Q 25.25 74.21875 29.59375 74.21875 
Q 40.828125 74.21875 47.359375 69.109375 
Q 53.90625 64.015625 53.90625 55.328125 
Q 53.90625 49.265625 50.4375 45.09375 
Q 46.96875 40.921875 40.578125 39.3125 
" id="DejaVuSans-33"/>
      </defs>
      <g transform="translate(31.5125 52.971908)scale(0.1 -0.1)">
       <use xlink:href="#DejaVuSans-33"/>
       <use x="63.623047" xlink:href="#DejaVuSans-30"/>
       <use x="127.246094" xlink:href="#DejaVuSans-30"/>
      </g>
     </g>
    </g>
    <g id="text_15">
     <!-- Successful download requests per second -->
     <defs>
      <path d="M 53.515625 70.515625 
L 53.515625 60.890625 
Q 47.90625 63.578125 42.921875 64.890625 
Q 37.9375 66.21875 33.296875 66.21875 
Q 25.25 66.21875 20.875 63.09375 
Q 16.5 59.96875 16.5 54.203125 
Q 16.5 49.359375 19.40625 46.890625 
Q 22.3125 44.4375 30.421875 42.921875 
L 36.375 41.703125 
Q 47.40625 39.59375 52.65625 34.296875 
Q 57.90625 29 57.90625 20.125 
Q 57.90625 9.515625 50.796875 4.046875 
Q 43.703125 -1.421875 29.984375 -1.421875 
Q 24.8125 -1.421875 18.96875 -0.25 
Q 13.140625 0.921875 6.890625 3.21875 
L 6.890625 13.375 
Q 12.890625 10.015625 18.65625 8.296875 
Q 24.421875 6.59375 29.984375 6.59375 
Q 38.421875 6.59375 43.015625 9.90625 
Q 47.609375 13.234375 47.609375 19.390625 
Q 47.609375 24.75 44.3125 27.78125 
Q 41.015625 30.8125 33.5 32.328125 
L 27.484375 33.5 
Q 16.453125 35.6875 11.515625 40.375 
Q 6.59375 45.0625 6.59375 53.421875 
Q 6.59375 63.09375 13.40625 68.65625 
Q 20.21875 74.21875 32.171875 74.21875 
Q 37.3125 74.21875 42.625 73.28125 
Q 47.953125 72.359375 53.515625 70.515625 
" id="DejaVuSans-53"/>
      <path d="M 45.40625 46.390625 
L 45.40625 75.984375 
L 54.390625 75.984375 
L 54.390625 0 
L 45.40625 0 
L 45.40625 8.203125 
Q 42.578125 3.328125 38.25 0.953125 
Q 33.9375 -1.421875 27.875 -1.421875 
Q 17.96875 -1.421875 11.734375 6.484375 
Q 5.515625 14.40625 5.515625 27.296875 
Q 5.515625 40.1875 11.734375 48.09375 
Q 17.96875 56 27.875 56 
Q 33.9375 56 38.25 53.625 
Q 42.578125 51.265625 45.40625 46.390625 
M 14.796875 27.296875 
Q 14.796875 17.390625 18.875 11.75 
Q 22.953125 6.109375 30.078125 6.109375 
Q 37.203125 6.109375 41.296875 11.75 
Q 45.40625 17.390625 45.40625 27.296875 
Q 45.40625 37.203125 41.296875 42.84375 
Q 37.203125 48.484375 30.078125 48.484375 
Q 22.953125 48.484375 18.875 42.84375 
Q 14.796875 37.203125 14.796875 27.296875 
" id="DejaVuSans-64"/>
      <path d="M 4.203125 54.6875 
L 13.1875 54.6875 
L 24.421875 12.015625 
L 35.59375 54.6875 
L 46.1875 54.6875 
L 57.421875 12.015625 
L 68.609375 54.6875 
L 77.59375 54.6875 
L 63.28125 0 
L 52.6875 0 
L 40.921875 44.828125 
L 29.109375 0 
L 18.5 0 
z
" id="DejaVuSans-77"/>
      <path d="M 34.28125 27.484375 
Q 23.390625 27.484375 19.1875 25 
Q 14.984375 22.515625 14.984375 16.5 
Q 14.984375 11.71875 18.140625 8.90625 
Q 21.296875 6.109375 26.703125 6.109375 
Q 34.1875 6.109375 38.703125 11.40625 
Q 43.21875 16.703125 43.21875 25.484375 
L 43.21875 27.484375 
z
M 52.203125 31.203125 
L 52.203125 0 
L 43.21875 0 
L 43.21875 8.296875 
Q 40.140625 3.328125 35.546875 0.953125 
Q 30.953125 -1.421875 24.3125 -1.421875 
Q 15.921875 -1.421875 10.953125 3.296875 
Q 6 8.015625 6 15.921875 
Q 6 25.140625 12.171875 29.828125 
Q 18.359375 34.515625 30.609375 34.515625 
L 43.21875 34.515625 
L 43.21875 35.40625 
Q 43.21875 41.609375 39.140625 45 
Q 35.0625 48.390625 27.6875 48.390625 
Q 23 48.390625 18.546875 47.265625 
Q 14.109375 46.140625 10.015625 43.890625 
L 10.015625 52.203125 
Q 14.9375 54.109375 19.578125 55.046875 
Q 24.21875 56 28.609375 56 
Q 40.484375 56 46.34375 49.84375 
Q 52.203125 43.703125 52.203125 31.203125 
" id="DejaVuSans-61"/>
      <path d="M 14.796875 27.296875 
Q 14.796875 17.390625 18.875 11.75 
Q 22.953125 6.109375 30.078125 6.109375 
Q 37.203125 6.109375 41.296875 11.75 
Q 45.40625 17.390625 45.40625 27.296875 
Q 45.40625 37.203125 41.296875 42.84375 
Q 37.203125 48.484375 30.078125 48.484375 
Q 22.953125 48.484375 18.875 42.84375 
Q 14.796875 37.203125 14.796875 27.296875 
M 45.40625 8.203125 
Q 42.578125 3.328125 38.25 0.953125 
Q 33.9375 -1.421875 27.875 -1.421875 
Q 17.96875 -1.421875 11.734375 6.484375 
Q 5.515625 14.40625 5.515625 27.296875 
Q 5.515625 40.1875 11.734375 48.09375 
Q 17.96875 56 27.875 56 
Q 33.9375 56 38.25 53.625 
Q 42.578125 51.265625 45.40625 46.390625 
L 45.40625 54.6875 
L 54.390625 54.6875 
L 54.390625 -20.796875 
L 45.40625 -20.796875 
z
" id="DejaVuSans-71"/>
      <path d="M 18.109375 8.203125 
L 18.109375 -20.796875 
L 9.078125 -20.796875 
L 9.078125 54.6875 
L 18.109375 54.6875 
L 18.109375 46.390625 
Q 20.953125 51.265625 25.265625 53.625 
Q 29.59375 56 35.59375 56 
Q 45.5625 56 51.78125 48.09375 
Q 58.015625 40.1875 58.015625 27.296875 
Q 58.015625 14.40625 51.78125 6.484375 
Q 45.5625 -1.421875 35.59375 -1.421875 
Q 29.59375 -1.421875 25.265625 0.953125 
Q 20.953125 3.328125 18.109375 8.203125 
M 48.6875 27.296875 
Q 48.6875 37.203125 44.609375 42.84375 
Q 40.53125 48.484375 33.40625 48.484375 
Q 26.265625 48.484375 22.1875 42.84375 
Q 18.109375 37.203125 18.109375 27.296875 
Q 18.109375 17.390625 22.1875 11.75 
Q 26.265625 6.109375 33.40625 6.109375 
Q 40.53125 6.109375 44.609375 11.75 
Q 48.6875 17.390625 48.6875 27.296875 
" id="DejaVuSans-70"/>
     </defs>
     <g transform="translate(25.432812 279.366281)rotate(-90)scale(0.1 -0.1)">
      <use xlink:href="#DejaVuSans-53"/>
      <use x="63.476562" xlink:href="#DejaVuSans-75"/>
      <use x="126.855469" xlink:href="#DejaVuSans-63"/>
      <use x="181.835938" xlink:href="#DejaVuSans-63"/>
      <use x="236.816406" xlink:href="#DejaVuSans-65"/>
      <use x="298.339844" xlink:href="#DejaVuSans-73"/>
      <use x="350.439453" xlink:href="#DejaVuSans-73"/>
      <use x="402.539062" xlink:href="#DejaVuSans-66"/>
      <use x="437.744141" xlink:href="#DejaVuSans-75"/>
      <use x="501.123047" xlink:href="#DejaVuSans-6c"/>
      <use x="528.90625" xlink:href="#DejaVuSans-20"/>
      <use x="560.693359" xlink:href="#DejaVuSans-64"/>
      <use x="624.169922" xlink:href="#DejaVuSans-6f"/>
      <use x="685.351562" xlink:href="#DejaVuSans-77"/>
      <use x="767.138672" xlink:href="#DejaVuSans-6e"/>
      <use x="830.517578" xlink:href="#DejaVuSans-6c"/>
      <use x="858.300781" xlink:href="#DejaVuSans-6f"/>
      <use x="919.482422" xlink:href="#DejaVuSans-61"/>
      <use x="980.761719" xlink:href="#DejaVuSans-64"/>
      <use x="1044.238281" xlink:href="#DejaVuSans-20"/>
      <use x="1076.025391" xlink:href="#DejaVuSans-72"/>
      <use x="1117.107422" xlink:href="#DejaVuSans-65"/>
      <use x="1178.630859" xlink:href="#DejaVuSans-71"/>
      <use x="1242.107422" xlink:href="#DejaVuSans-75"/>
      <use x="1305.486328" xlink:href="#DejaVuSans-65"/>
      <use x="1367.009766" xlink:href="#DejaVuSans-73"/>
      <use x="1419.109375" xlink:href="#DejaVuSans-74"/>
      <use x="1458.318359" xlink:href="#DejaVuSans-73"/>
      <use x="1510.417969" xlink:href="#DejaVuSans-20"/>
      <use x="1542.205078" xlink:href="#DejaVuSans-70"/>
      <use x="1605.681641" xlink:href="#DejaVuSans-65"/>
      <use x="1667.205078" xlink:href="#DejaVuSans-72"/>
      <use x="1708.318359" xlink:href="#DejaVuSans-20"/>
      <use x="1740.105469" xlink:href="#DejaVuSans-73"/>
      <use x="1792.205078" xlink:href="#DejaVuSans-65"/>
      <use x="1853.728516" xlink:href="#DejaVuSans-63"/>
      <use x="1908.708984" xlink:href="#DejaVuSans-6f"/>
      <use x="1969.890625" xlink:href="#DejaVuSans-6e"/>
      <use x="2033.269531" xlink:href="#DejaVuSans-64"/>
     </g>
    </g>
   </g>
   <g id="line2d_27">
    <path clip-path="url(#p085ffabc01)" d="M 57.6 295.469055 
L 57.95712 295.488 
L 60.09984 290.730258 
L 60.81408 289.342308 
L 61.52832 287.690772 
L 61.88544 286.853884 
L 62.59968 284.764134 
L 62.9568 284.350632 
L 63.67104 282.539297 
L 64.02816 282.3935 
L 64.7424 280.43472 
L 65.09952 279.63737 
L 65.45664 279.211513 
L 65.81376 277.70742 
L 66.17088 276.809578 
L 66.88512 275.987516 
L 67.24224 274.736302 
L 67.95648 273.233857 
L 68.3136 273.270924 
L 69.38496 270.088937 
L 69.74208 269.345952 
L 70.0992 269.295705 
L 70.45632 268.168048 
L 70.81344 267.71089 
L 71.17056 265.047839 
L 71.52768 265.737283 
L 71.8848 263.576695 
L 72.24192 264.849325 
L 72.59904 261.841964 
L 72.95616 261.6591 
L 73.31328 261.642626 
L 73.6704 261.107216 
L 74.02752 259.262108 
L 74.38464 260.085817 
L 74.74176 257.799201 
L 75.09888 258.155867 
L 75.456 256.322291 
L 75.81312 256.105655 
L 76.17024 253.926122 
L 76.52736 255.379144 
L 77.2416 251.834725 
L 77.59872 252.301768 
L 77.95584 251.83143 
L 78.31296 250.008562 
L 78.67008 249.972319 
L 79.0272 248.754877 
L 79.38432 246.271395 
L 79.74144 245.976507 
L 80.09856 247.552262 
L 80.45568 247.191478 
L 81.16992 243.484788 
L 81.52704 242.614951 
L 81.88416 243.076228 
L 82.24128 241.732759 
L 82.5984 241.600142 
L 82.95552 241.257479 
L 83.31264 240.046627 
L 83.66976 238.040072 
L 84.02688 238.198224 
L 84.384 235.237815 
L 84.74112 235.523642 
L 85.09824 233.619227 
L 85.45536 235.750985 
L 85.81248 234.933866 
L 86.1696 232.662901 
L 86.52672 232.162086 
L 86.88384 231.365559 
L 87.24096 229.831813 
L 87.59808 230.440534 
L 87.9552 227.813727 
L 88.31232 227.246191 
L 88.66944 229.408427 
L 89.02656 227.893626 
L 89.38368 223.621872 
L 89.7408 225.991683 
L 90.09792 222.372306 
L 90.45504 225.2627 
L 90.81216 221.889613 
L 91.16928 219.88141 
L 91.5264 219.878939 
L 91.88352 220.131818 
L 92.24064 219.304814 
L 92.59776 215.697793 
L 92.95488 215.685437 
L 93.312 216.088231 
L 93.66912 215.659079 
L 94.02624 213.008384 
L 94.38336 211.935915 
L 94.74048 216.424304 
L 95.0976 213.918582 
L 95.45472 213.85598 
L 95.81184 209.135304 
L 96.16896 207.468118 
L 96.52608 212.131957 
L 96.8832 211.455692 
L 97.24032 207.510127 
L 97.59744 205.831408 
L 97.95456 205.284465 
L 98.31168 205.984618 
L 98.6688 201.578599 
L 99.02592 200.768893 
L 99.38304 202.927011 
L 99.74016 200.56379 
L 100.09728 202.284518 
L 100.4544 198.893308 
L 100.81152 197.537484 
L 101.16864 197.551487 
L 101.52576 201.961624 
L 101.88288 196.948532 
L 102.24 195.843938 
L 102.59712 197.961694 
L 103.31136 196.644583 
L 103.66848 195.538342 
L 104.0256 190.619976 
L 104.38272 190.494773 
L 104.73984 193.720417 
L 105.09696 190.888506 
L 105.45408 192.313522 
L 105.8112 186.718891 
L 106.16832 187.703223 
L 106.52544 189.07717 
L 106.88256 188.644723 
L 107.23968 185.059942 
L 107.5968 185.785629 
L 107.95392 180.564962 
L 108.31104 179.703363 
L 108.66816 182.65883 
L 109.02528 182.935596 
L 109.3824 183.477597 
L 109.73952 181.242875 
L 110.09664 181.099549 
L 110.81088 177.925799 
L 111.168 180.945516 
L 111.52512 179.78491 
L 111.88224 171.537113 
L 112.23936 178.594651 
L 112.59648 171.15656 
L 112.9536 169.236494 
L 113.31072 173.660635 
L 113.66784 174.738869 
L 114.02496 170.557723 
L 114.38208 168.698612 
L 114.7392 165.617117 
L 115.09632 169.962182 
L 115.45344 165.842814 
L 115.81056 169.398765 
L 116.16768 165.528157 
L 116.5248 165.815631 
L 116.88192 162.545507 
L 117.23904 163.280255 
L 117.59616 164.886488 
L 117.95328 163.276137 
L 118.3104 163.047969 
L 118.66752 161.563646 
L 119.02464 155.628824 
L 119.38176 160.277837 
L 119.73888 154.073661 
L 120.096 153.992938 
L 120.45312 160.537305 
L 120.81024 159.102404 
L 121.16736 158.655954 
L 121.52448 156.912162 
L 122.59584 148.899122 
L 122.95296 152.426244 
L 123.31008 147.205577 
L 123.6672 150.534184 
L 124.02432 144.212219 
L 124.38144 149.01197 
L 124.73856 151.888362 
L 125.09568 143.731997 
L 125.4528 140.03272 
L 125.80992 148.74756 
L 126.16704 141.288052 
L 126.52416 145.244326 
L 126.88128 143.465939 
L 127.2384 145.016982 
L 127.95264 142.250144 
L 128.30976 135.337579 
L 128.66688 136.486653 
L 129.38112 131.658896 
L 129.73824 134.496573 
L 130.09536 130.371439 
L 130.45248 136.905921 
L 130.8096 130.438983 
L 131.16672 133.466937 
L 131.52384 133.606967 
L 131.88096 135.064108 
L 132.23808 124.479449 
L 132.5952 130.341785 
L 132.95232 134.101192 
L 133.30944 125.803149 
L 133.66656 130.868959 
L 134.02368 120.542121 
L 134.3808 119.398813 
L 134.73792 122.486897 
L 135.09504 127.36243 
L 135.45216 122.561855 
L 135.80928 122.43418 
L 136.1664 116.528187 
L 136.52352 125.434128 
L 136.88064 117.54382 
L 137.23776 123.540421 
L 137.59488 115.597396 
L 137.952 117.191273 
L 138.30912 115.886518 
L 138.66624 121.463027 
L 139.02336 114.63201 
L 139.38048 110.270471 
L 139.7376 117.096547 
L 140.09472 112.601567 
L 140.45184 105.840565 
L 140.80896 114.544696 
L 141.16608 112.590859 
L 141.5232 111.669952 
L 141.88032 110.367669 
L 142.23744 106.559663 
L 142.59456 100.681676 
L 142.95168 112.152646 
L 143.3088 102.525137 
L 143.66592 101.885115 
L 144.02304 109.576085 
L 144.38016 109.743297 
L 144.73728 100.773108 
L 145.0944 108.447603 
L 145.45152 101.170959 
L 146.16576 92.663694 
L 146.52288 98.460957 
L 146.88 94.898416 
L 147.23712 92.747712 
L 147.59424 91.892703 
L 147.95136 91.519562 
L 148.30848 96.685041 
L 148.6656 95.767429 
L 149.02272 92.176058 
L 149.37984 97.765747 
L 149.73696 94.211443 
L 150.09408 86.065786 
L 150.4512 89.437226 
L 150.80832 87.904304 
L 151.16544 93.193339 
L 151.52256 94.374537 
L 151.87968 91.186784 
L 152.2368 81.287451 
L 152.59392 88.820268 
L 152.95104 78.371521 
L 153.66528 85.332685 
L 154.0224 85.84009 
L 154.73664 81.474433 
L 155.09376 80.747098 
L 155.45088 84.239623 
L 155.808 73.935849 
L 156.16512 73.318068 
L 156.52224 81.822038 
L 156.87936 79.316316 
L 157.23648 73.371609 
L 157.5936 70.506749 
L 157.95072 68.566091 
L 158.30784 73.154149 
L 158.66496 71.220081 
L 159.02208 64.71031 
L 159.3792 72.012489 
L 159.73632 63.09584 
L 160.09344 60.973143 
L 160.45056 67.360181 
L 160.80768 71.580866 
L 161.1648 72.71017 
L 161.52192 70.31153 
L 161.87904 60.021759 
L 162.23616 55.681637 
L 162.59328 56.57289 
L 162.9504 65.469769 
L 163.30752 66.88902 
L 163.66464 58.85374 
L 164.02176 61.696359 
L 164.37888 57.444374 
L 164.736 61.229316 
L 165.09312 56.527586 
L 165.45024 63.439327 
L 165.80736 54.753317 
L 166.16448 53.568 
L 166.5216 55.128928 
L 166.87872 61.78532 
L 167.23584 64.695483 
L 167.59296 71.310689 
L 167.95008 67.185555 
L 168.3072 72.544605 
L 168.66432 74.232384 
L 169.02144 66.494463 
L 169.37856 62.155165 
L 169.73568 74.486087 
L 170.0928 63.52664 
L 170.44992 70.290114 
L 170.80704 69.93839 
L 171.16416 65.428584 
L 171.52128 76.140094 
L 171.8784 73.860892 
L 172.23552 72.435875 
L 172.59264 72.647569 
L 172.94976 78.770197 
L 173.30688 79.858316 
L 173.664 78.000852 
L 174.02112 71.857632 
L 174.37824 78.82868 
L 174.73536 77.672193 
L 175.09248 81.822038 
L 175.4496 79.767708 
L 175.80672 74.699427 
L 176.16384 83.807176 
L 176.52096 75.344391 
L 176.87808 85.483424 
L 177.2352 75.439942 
L 177.59232 82.676224 
L 177.94944 87.067416 
L 178.30656 88.700007 
L 178.66368 89.297196 
L 179.37792 80.497514 
L 179.73504 89.549251 
L 180.09216 90.636547 
L 180.44928 88.730484 
L 180.8064 94.475854 
L 181.16352 86.929857 
L 181.52064 95.400055 
L 181.87776 83.868954 
L 182.23488 97.829996 
L 182.592 94.393483 
L 182.94912 92.129931 
L 183.30624 92.724649 
L 183.66336 98.960948 
L 184.02048 86.868078 
L 184.3776 94.810279 
L 184.73472 99.530955 
L 185.09184 91.084644 
L 185.44896 100.39832 
L 186.1632 93.241114 
L 186.52032 101.753321 
L 186.87744 92.914925 
L 187.59168 106.050611 
L 188.30592 97.250105 
L 188.66304 97.69326 
L 189.02016 102.858739 
L 189.37728 99.191587 
L 189.7344 96.680922 
L 190.09152 103.569599 
L 190.44864 98.995544 
L 190.80576 109.861912 
L 191.16288 104.33812 
L 191.52 108.59999 
L 191.87712 110.645259 
L 192.23424 100.11167 
L 192.59136 112.739127 
L 192.94848 104.077004 
L 193.3056 104.119013 
L 194.01984 106.796067 
L 194.37696 106.640386 
L 194.73408 111.715256 
L 195.0912 106.156045 
L 195.44832 111.851992 
L 195.80544 107.581062 
L 196.51968 116.502652 
L 197.23392 111.940953 
L 197.59104 117.215984 
L 197.94816 120.101436 
L 198.30528 115.359345 
L 198.6624 120.586601 
L 199.01952 114.582587 
L 199.73376 122.171417 
L 200.09088 111.77374 
L 200.448 115.556211 
L 200.80512 114.687198 
L 201.16224 115.409591 
L 201.51936 124.563467 
L 201.87648 114.944195 
L 202.2336 115.852746 
L 202.59072 114.35442 
L 202.94784 121.304051 
L 203.30496 115.398883 
L 203.66208 116.907093 
L 204.0192 119.040499 
L 204.73344 120.996808 
L 205.09056 119.285141 
L 205.44768 125.678769 
L 205.8048 122.951469 
L 206.16192 130.092201 
L 206.51904 124.878124 
L 206.87616 129.981001 
L 207.23328 125.968715 
L 207.5904 127.214163 
L 207.94752 127.492576 
L 208.30464 128.42172 
L 208.66176 126.953871 
L 209.01888 131.158904 
L 209.376 125.601341 
L 209.73312 123.370737 
L 210.09024 132.173714 
L 210.44736 127.695209 
L 210.80448 126.056028 
L 211.1616 135.840866 
L 211.51872 125.605459 
L 211.87584 130.493348 
L 212.23296 126.393749 
L 212.59008 135.705777 
L 212.9472 127.628488 
L 213.30432 132.454598 
L 213.66144 131.855762 
L 214.01856 135.891935 
L 214.37568 129.720709 
L 214.7328 130.747874 
L 215.08992 129.993356 
L 215.44704 134.749451 
L 215.80416 135.195902 
L 216.16128 135.067403 
L 216.5184 136.129987 
L 216.87552 135.127534 
L 217.23264 132.364814 
L 217.58976 142.148004 
L 218.304 137.090432 
L 218.66112 142.471722 
L 219.01824 136.40593 
L 219.37536 138.00722 
L 219.73248 141.019523 
L 220.0896 140.174398 
L 220.44672 144.101018 
L 220.80384 140.358085 
L 221.16096 141.491508 
L 221.51808 137.61184 
L 222.23232 141.068946 
L 222.58944 146.077919 
L 222.94656 138.052524 
L 223.6608 143.007133 
L 224.01792 142.645525 
L 224.37504 144.2081 
L 224.73216 141.60518 
L 225.08928 139.821851 
L 225.4464 141.502217 
L 225.80352 147.57048 
L 226.16064 149.864509 
L 226.51776 141.331709 
L 226.87488 144.942849 
L 227.232 145.075466 
L 227.58912 148.652833 
L 227.94624 145.459314 
L 228.30336 147.002121 
L 228.66048 146.295379 
L 229.0176 145.288806 
L 229.37472 149.572916 
L 229.73184 143.41734 
L 230.08896 144.389316 
L 230.44608 147.105084 
L 230.8032 147.251705 
L 231.16032 151.296115 
L 231.51744 147.86372 
L 231.87456 149.997126 
L 232.23168 146.77313 
L 232.5888 151.187385 
L 232.94592 149.707181 
L 233.30304 153.475649 
L 233.66016 150.427926 
L 234.01728 149.263202 
L 234.3744 155.043167 
L 234.73152 152.638761 
L 235.08864 156.854503 
L 235.44576 152.392472 
L 235.80288 149.498782 
L 236.16 157.545594 
L 236.51712 157.729281 
L 236.87424 155.255684 
L 237.58848 158.976377 
L 237.9456 158.641951 
L 238.30272 159.446714 
L 238.65984 153.565433 
L 239.01696 158.351182 
L 239.37408 154.492929 
L 239.7312 158.617239 
L 240.08832 160.186405 
L 240.44544 160.24983 
L 240.80256 156.833086 
L 241.15968 159.618046 
L 242.23104 162.468902 
L 242.58816 154.031652 
L 242.94528 158.454969 
L 243.3024 160.156751 
L 243.65952 160.677335 
L 244.01664 154.366078 
L 244.37376 159.09252 
L 245.088 157.539005 
L 245.44512 157.842953 
L 245.80224 158.853644 
L 246.15936 161.669081 
L 246.51648 163.061973 
L 246.8736 165.721728 
L 247.23072 160.367621 
L 247.58784 162.681419 
L 247.94496 164.022417 
L 248.30208 164.766226 
L 248.6592 163.043027 
L 249.01632 167.531417 
L 249.37344 162.736608 
L 249.73056 161.480452 
L 250.08768 163.193766 
L 250.4448 168.130253 
L 250.80192 166.899632 
L 251.15904 160.235004 
L 251.51616 162.65506 
L 251.87328 168.929251 
L 252.2304 162.002683 
L 252.58752 166.344452 
L 252.94464 167.72087 
L 253.30176 167.481994 
L 253.65888 166.459772 
L 254.016 162.204492 
L 254.37312 169.981951 
L 254.73024 164.203633 
L 255.08736 165.164901 
L 255.44448 168.370776 
L 255.8016 167.208523 
L 256.15872 169.20437 
L 256.51584 163.674812 
L 256.87296 168.935017 
L 257.23008 171.715034 
L 257.5872 166.192066 
L 257.94432 169.411944 
L 258.30144 166.627808 
L 258.65856 172.037928 
L 259.01568 165.606409 
L 259.3728 167.141803 
L 259.72992 167.241471 
L 260.08704 173.125224 
L 260.44416 172.720783 
L 260.80128 167.46552 
L 261.1584 174.883842 
L 261.51552 173.806431 
L 261.87264 173.358333 
L 262.22976 167.396329 
L 262.58688 167.656621 
L 262.944 176.246257 
L 263.30112 170.409456 
L 263.65824 170.340264 
L 264.37248 177.156455 
L 265.08672 170.921803 
L 265.80096 177.849194 
L 266.15808 176.674585 
L 266.5152 171.326244 
L 266.87232 178.11031 
L 267.22944 178.284936 
L 268.3008 171.496751 
L 268.65792 172.858342 
L 269.01504 172.243032 
L 269.37216 178.560055 
L 269.72928 172.598874 
L 270.0864 171.978621 
L 270.44352 177.785769 
L 270.80064 175.098007 
L 271.15776 176.70671 
L 271.51488 174.567538 
L 271.872 178.792341 
L 272.22912 177.070789 
L 272.58624 181.285708 
L 272.94336 177.079026 
L 273.30048 179.595457 
L 273.6576 180.475178 
L 274.01472 179.013095 
L 274.37184 178.240456 
L 274.72896 182.634119 
L 275.08608 179.148183 
L 275.4432 178.191033 
L 275.80032 178.299763 
L 276.15744 177.797301 
L 276.51456 180.606148 
L 276.87168 180.608619 
L 277.2288 177.083969 
L 277.58592 178.726444 
L 277.94304 183.055034 
L 278.30016 178.032058 
L 278.65728 180.117688 
L 279.0144 179.59381 
L 279.37152 183.801314 
L 279.72864 177.441458 
L 280.08576 183.112694 
L 280.44288 184.009713 
L 280.8 178.144906 
L 281.15712 179.775849 
L 281.51424 185.796337 
L 281.87136 184.17116 
L 282.22848 179.712424 
L 282.5856 181.899371 
L 282.94272 182.664596 
L 283.29984 186.998952 
L 283.65696 186.704065 
L 284.01408 180.238774 
L 284.3712 183.903454 
L 284.72832 185.466854 
L 285.08544 184.92403 
L 285.44256 186.245259 
L 285.79968 183.136581 
L 286.1568 183.694232 
L 286.87104 181.054245 
L 287.22816 187.859728 
L 287.58528 184.281537 
L 287.9424 188.63072 
L 288.29952 181.559179 
L 288.65664 186.332572 
L 289.01376 188.648017 
L 289.37088 184.400151 
L 289.728 183.119284 
L 290.08512 182.520447 
L 290.44224 183.204126 
L 290.79936 185.936368 
L 291.15648 185.826815 
L 291.5136 189.886052 
L 291.87072 185.175261 
L 292.58496 186.900931 
L 292.94208 184.436394 
L 293.2992 189.480787 
L 293.65632 184.468519 
L 294.01344 188.094485 
L 294.37056 185.416608 
L 294.72768 187.49812 
L 295.0848 192.399188 
L 295.44192 189.516207 
L 296.15616 192.857993 
L 296.51328 186.868806 
L 296.8704 190.238599 
L 297.22752 186.32104 
L 297.58464 193.226191 
L 297.94176 192.292105 
L 298.29888 190.444526 
L 298.656 190.393457 
L 299.01312 190.45853 
L 299.37024 194.079554 
L 299.72736 188.045886 
L 300.08448 192.8061 
L 300.4416 190.546666 
L 301.15584 189.608462 
L 301.51296 190.311909 
L 302.2272 195.105895 
L 302.58432 190.117514 
L 303.29856 190.704818 
L 303.65568 191.535941 
L 304.0128 194.290423 
L 304.36992 189.563982 
L 304.72704 193.189948 
L 305.08416 195.398312 
L 305.44128 190.660338 
L 305.7984 196.733544 
L 306.15552 193.22372 
L 306.51264 196.617401 
L 306.86976 197.444404 
L 307.22688 196.776377 
L 307.584 193.827499 
L 307.94112 194.476581 
L 308.29824 190.888506 
L 308.65536 192.994729 
L 309.01248 192.743498 
L 309.3696 192.058172 
L 309.72672 197.160225 
L 310.08384 194.408214 
L 310.44096 197.308492 
L 310.79808 195.025171 
L 311.1552 198.544879 
L 311.51232 196.98148 
L 311.86944 196.231905 
L 312.22656 197.529246 
L 312.58368 195.850528 
L 312.9408 193.007908 
L 313.29792 196.036686 
L 313.65504 194.67839 
L 314.36928 200.33068 
L 314.7264 196.896638 
L 315.08352 195.659427 
L 315.44064 196.453483 
L 315.79776 199.275509 
L 316.15488 197.545721 
L 316.512 195.141314 
L 316.86912 195.366187 
L 317.22624 194.876904 
L 317.58336 196.371112 
L 317.94048 198.941907 
L 318.2976 197.547368 
L 318.65472 200.529194 
L 319.01184 202.048937 
L 319.36896 201.604134 
L 319.72608 196.303568 
L 320.0832 201.974803 
L 320.44032 197.111626 
L 320.79744 202.695548 
L 321.15456 196.163537 
L 321.51168 199.08688 
L 321.8688 198.754925 
L 322.22592 199.867756 
L 322.58304 197.710462 
L 322.94016 203.43771 
L 323.29728 197.020194 
L 323.6544 197.027608 
L 324.01152 198.120669 
L 324.36864 198.08525 
L 325.08288 203.564561 
L 325.44 199.889996 
L 325.79712 202.076943 
L 326.15424 200.463297 
L 326.51136 204.52583 
L 326.86848 203.952528 
L 327.2256 198.287059 
L 327.58272 205.068654 
L 328.29696 200.024261 
L 328.65408 203.097518 
L 329.0112 201.130502 
L 329.36832 201.146976 
L 329.72544 205.378368 
L 330.08256 199.179135 
L 330.7968 203.808379 
L 331.15392 203.881689 
L 331.51104 205.510985 
L 331.86816 203.622221 
L 332.5824 206.370114 
L 332.93952 201.693919 
L 333.29664 206.374232 
L 333.65376 200.502012 
L 334.01088 202.549752 
L 334.368 202.744971 
L 334.72512 203.152707 
L 335.08224 202.985494 
L 335.43936 207.194646 
L 335.79648 206.51591 
L 336.1536 204.009364 
L 336.51072 206.486257 
L 336.86784 206.256442 
L 337.22496 202.871822 
L 337.58208 207.770419 
L 337.9392 207.228418 
L 338.29632 205.043942 
L 339.01056 208.588362 
L 339.36768 208.778638 
L 340.08192 203.554677 
L 340.43904 204.24165 
L 340.79616 205.522517 
L 341.15328 206.316573 
L 341.5104 207.969756 
L 341.86752 206.575217 
L 342.22464 204.597492 
L 342.58176 207.645215 
L 342.93888 206.749844 
L 343.296 209.903825 
L 343.65312 207.782774 
L 344.01024 207.29761 
L 344.36736 206.032393 
L 344.72448 210.18471 
L 345.0816 207.429403 
L 345.43872 209.452432 
L 345.79584 206.357758 
L 346.15296 210.315679 
L 346.51008 207.503537 
L 346.8672 205.576058 
L 347.22432 210.281907 
L 347.58144 208.463982 
L 347.93856 208.987037 
L 348.29568 207.500242 
L 348.6528 208.673204 
L 349.00992 207.082622 
L 349.36704 206.2515 
L 349.72416 208.144383 
L 350.08128 208.175684 
L 350.4384 207.979641 
L 350.79552 210.27367 
L 351.15264 210.851914 
L 351.50976 209.442548 
L 351.86688 212.293404 
L 352.224 207.370096 
L 352.58112 207.534014 
L 352.93824 211.104792 
L 353.29536 209.998551 
L 353.65248 212.330471 
L 354.36672 208.580125 
L 354.72384 210.656695 
L 355.08096 210.51584 
L 355.43808 207.74406 
L 355.7952 211.286832 
L 356.15232 208.949146 
L 356.50944 212.655836 
L 356.86656 210.928519 
L 357.22368 211.358495 
L 357.5808 214.190406 
L 357.93792 209.801685 
L 358.29504 213.510022 
L 358.65216 212.383188 
L 359.00928 212.728323 
L 359.3664 213.349399 
L 359.72352 214.459759 
L 360.08064 211.884845 
L 360.43776 214.805716 
L 360.79488 212.92107 
L 361.152 212.884827 
L 361.50912 211.409565 
L 361.86624 215.254638 
L 362.22336 211.955684 
L 362.58048 213.226666 
L 362.9376 210.829674 
L 363.29472 209.734964 
L 363.65184 209.829691 
L 364.00896 213.517436 
L 364.7232 213.033919 
L 365.08032 213.642639 
L 365.79456 211.056194 
L 366.15168 212.944958 
L 366.5088 215.771103 
L 366.86592 216.252973 
L 367.22304 212.287638 
L 367.58016 211.55948 
L 367.93728 214.696163 
L 368.2944 212.887298 
L 368.65152 213.799144 
L 369.00864 211.787647 
L 369.72288 214.830428 
L 370.08 217.088214 
L 370.43712 215.780988 
L 370.79424 211.902143 
L 371.15136 214.314786 
L 371.50848 213.056159 
L 371.8656 213.475426 
L 372.22272 214.169813 
L 372.93696 217.411931 
L 373.29408 216.785089 
L 373.6512 215.614598 
L 374.00832 217.316381 
L 374.36544 213.813147 
L 374.72256 212.900478 
L 375.07968 215.598124 
L 375.4368 215.87489 
L 375.79392 213.467189 
L 376.50816 215.97703 
L 376.86528 219.015692 
L 377.2224 214.18464 
L 377.93664 214.853491 
L 378.29376 216.817213 
L 378.65088 216.074228 
L 379.008 214.808187 
L 379.36512 217.145049 
L 379.72224 216.035514 
L 380.07936 215.762866 
L 380.43648 217.597266 
L 380.7936 214.949042 
L 381.15072 219.007455 
L 381.50784 219.785036 
L 382.5792 215.075893 
L 382.93632 219.91024 
L 383.29344 220.438238 
L 383.65056 217.446527 
L 384.00768 215.641781 
L 384.3648 216.637645 
L 384.72192 217.035496 
L 385.07904 215.69038 
L 385.43616 216.586575 
L 385.79328 220.948113 
L 386.1504 218.677972 
L 386.50752 218.609604 
L 386.86464 219.628532 
L 387.22176 218.00253 
L 387.57888 219.777623 
L 387.936 218.037126 
L 388.29312 220.654873 
L 388.65024 221.743816 
L 389.00736 218.775993 
L 389.36448 218.943206 
L 389.7216 217.832846 
L 390.07872 217.69364 
L 390.79296 220.42094 
L 391.15008 220.480247 
L 391.5072 217.070092 
L 391.86432 218.884723 
L 392.22144 218.374847 
L 392.57856 219.752088 
L 392.93568 221.761938 
L 393.2928 221.990929 
L 393.64992 218.837771 
L 394.00704 219.570048 
L 394.36416 221.263594 
L 394.72128 220.920107 
L 395.0784 221.362439 
L 395.43552 222.258634 
L 395.79264 221.076612 
L 396.14976 222.68861 
L 396.50688 222.782513 
L 396.864 223.264383 
L 397.22112 219.908593 
L 397.57824 221.232293 
L 397.93536 221.130977 
L 398.29248 222.373953 
L 398.6496 218.913552 
L 399.00672 223.918407 
L 399.36384 222.307233 
L 399.72096 221.989281 
L 400.07808 224.036198 
L 400.4352 223.06834 
L 400.79232 220.271848 
L 401.14944 224.072441 
L 401.50656 222.369011 
L 402.2208 224.582317 
L 402.93504 220.243842 
L 403.29216 220.579915 
L 403.64928 223.764374 
L 404.0064 224.775065 
L 404.36352 221.492585 
L 404.72064 222.856647 
L 405.07776 225.310475 
L 405.43488 225.271761 
L 406.14912 221.764409 
L 406.50624 222.658133 
L 406.86336 223.868985 
L 407.22048 220.593095 
L 407.5776 225.648196 
L 407.93472 224.116921 
L 408.29184 224.233064 
L 408.64896 222.236394 
L 409.00608 226.177841 
L 409.3632 226.107002 
L 409.72032 226.309634 
L 410.07744 223.194367 
L 410.43456 225.768458 
L 410.79168 226.359057 
L 411.1488 225.920844 
L 411.50592 225.233047 
L 411.86304 223.677885 
L 412.22016 222.673783 
L 412.57728 222.006579 
L 412.9344 224.882147 
L 413.29152 222.864884 
L 413.64864 224.062557 
L 414.00576 222.163908 
L 414.36288 224.212472 
L 414.72 222.354184 
L 414.72 222.354184 
" style="fill:none;stroke:#000080;stroke-linecap:square;stroke-width:0.5;"/>
   </g>
   <g id="patch_3">
    <path d="M 57.6 307.584 
L 57.6 41.472 
" style="fill:none;stroke:#000000;stroke-linecap:square;stroke-linejoin:miter;stroke-width:0.8;"/>
   </g>
   <g id="patch_4">
    <path d="M 414.72 307.584 
L 414.72 41.472 
" style="fill:none;stroke:#000000;stroke-linecap:square;stroke-linejoin:miter;stroke-width:0.8;"/>
   </g>
   <g id="patch_5">
    <path d="M 57.6 307.584 
L 414.72 307.584 
" style="fill:none;stroke:#000000;stroke-linecap:square;stroke-linejoin:miter;stroke-width:0.8;"/>
   </g>
   <g id="patch_6">
    <path d="M 57.6 41.472 
L 414.72 41.472 
" style="fill:none;stroke:#000000;stroke-linecap:square;stroke-linejoin:miter;stroke-width:0.8;"/>
   </g>
   <g id="text_16">
    <!-- Test -->
    <defs>
     <path d="M -0.296875 72.90625 
L 61.375 72.90625 
L 61.375 64.59375 
L 35.5 64.59375 
L 35.5 0 
L 25.59375 0 
L 25.59375 64.59375 
L -0.296875 64.59375 
z
" id="DejaVuSans-54"/>
    </defs>
    <g transform="translate(223.341563 35.472)scale(0.12 -0.12)">
     <use xlink:href="#DejaVuSans-54"/>
     <use x="60.818359" xlink:href="#DejaVuSans-65"/>
     <use x="122.341797" xlink:href="#DejaVuSans-73"/>
     <use x="174.441406" xlink:href="#DejaVuSans-74"/>
    </g>
   </g>
   <g id="legend_1">
    <g id="patch_7">
     <path d="M 64.6 302.584 
L 306.276563 302.584 
Q 308.276563 302.584 308.276563 300.584 
L 308.276563 286.905875 
Q 308.276563 284.905875 306.276563 284.905875 
L 64.6 284.905875 
Q 62.6 284.905875 62.6 286.905875 
L 62.6 300.584 
Q 62.6 302.584 64.6 302.584 
z
" style="fill:#ffffff;opacity:0.8;stroke:#cccccc;stroke-linejoin:miter;"/>
    </g>
    <g id="line2d_28">
     <path d="M 66.6 293.004312 
L 86.6 293.004312 
" style="fill:none;stroke:#000080;stroke-linecap:square;stroke-width:0.5;"/>
    </g>
    <g id="line2d_29"/>
    <g id="text_17">
     <!-- Successful download requests per second -->
     <g transform="translate(94.6 296.504312)scale(0.1 -0.1)">
      <use xlink:href="#DejaVuSans-53"/>
      <use x="63.476562" xlink:href="#DejaVuSans-75"/>
      <use x="126.855469" xlink:href="#DejaVuSans-63"/>
      <use x="181.835938" xlink:href="#DejaVuSans-63"/>
      <use x="236.816406" xlink:href="#DejaVuSans-65"/>
      <use x="298.339844" xlink:href="#DejaVuSans-73"/>
      <use x="350.439453" xlink:href="#DejaVuSans-73"/>
      <use x="402.539062" xlink:href="#DejaVuSans-66"/>
      <use x="437.744141" xlink:href="#DejaVuSans-75"/>
      <use x="501.123047" xlink:href="#DejaVuSans-6c"/>
      <use x="528.90625" xlink:href="#DejaVuSans-20"/>
      <use x="560.693359" xlink:href="#DejaVuSans-64"/>
      <use x="624.169922" xlink:href="#DejaVuSans-6f"/>
      <use x="685.351562" xlink:href="#DejaVuSans-77"/>
      <use x="767.138672" xlink:href="#DejaVuSans-6e"/>
      <use x="830.517578" xlink:href="#DejaVuSans-6c"/>
      <use x="858.300781" xlink:href="#DejaVuSans-6f"/>
      <use x="919.482422" xlink:href="#DejaVuSans-61"/>
      <use x="980.761719" xlink:href="#DejaVuSans-64"/>
      <use x="1044.238281" xlink:href="#DejaVuSans-20"/>
      <use x="1076.025391" xlink:href="#DejaVuSans-72"/>
      <use x="1117.107422" xlink:href="#DejaVuSans-65"/>
      <use x="1178.630859" xlink:href="#DejaVuSans-71"/>
      <use x="1242.107422" xlink:href="#DejaVuSans-75"/>
      <use x="1305.486328" xlink:href="#DejaVuSans-65"/>
      <use x="1367.009766" xlink:href="#DejaVuSans-73"/>
      <use x="1419.109375" xlink:href="#DejaVuSans-74"/>
      <use x="1458.318359" xlink:href="#DejaVuSans-73"/>
      <use x="1510.417969" xlink:href="#DejaVuSans-20"/>
      <use x="1542.205078" xlink:href="#DejaVuSans-70"/>
      <use x="1605.681641" xlink:href="#DejaVuSans-65"/>
      <use x="1667.205078" xlink:href="#DejaVuSans-72"/>
      <use x="1708.318359" xlink:href="#DejaVuSans-20"/>
      <use x="1740.105469" xlink:href="#DejaVuSans-73"/>
      <use x="1792.205078" xlink:href="#DejaVuSans-65"/>
      <use x="1853.728516" xlink:href="#DejaVuSans-63"/>
      <use x="1908.708984" xlink:href="#DejaVuSans-6f"/>
      <use x="1969.890625" xlink:href="#DejaVuSans-6e"/>
      <use x="2033.269531" xlink:href="#DejaVuSans-64"/>
     </g>
    </g>
   </g>
  </g>
 </g>
 <defs>
  <clipPath id="p085ffabc01">
   <rect height="266.112" width="357.12" x="57.6" y="41.472"/>
  </clipPath>
 </defs>
</svg>
