<?xml version="1.0" encoding="utf-8" standalone="no"?>
<!DOCTYPE svg PUBLIC "-//W3C//DTD SVG 1.1//EN"
  "http://www.w3.org/Graphics/SVG/1.1/DTD/svg11.dtd">
<!-- Created with matplotlib (http://matplotlib.org/) -->
<svg height="345pt" version="1.1" viewBox="0 0 460 345" width="460pt" xmlns="http://www.w3.org/2000/svg" xmlns:xlink="http://www.w3.org/1999/xlink">
 <defs>
  <style type="text/css">
*{stroke-linecap:butt;stroke-linejoin:round;}
  </style>
 </defs>
 <g id="figure_1">
  <g id="patch_1">
   <path d="M 0 345.6 
L 460.8 345.6 
L 460.8 0 
L 0 0 
z
" style="fill:#ffffff;"/>
  </g>
  <g id="axes_1">
   <g id="patch_2">
    <path d="M 57.6 307.584 
L 414.72 307.584 
L 414.72 41.472 
L 57.6 41.472 
z
" style="fill:#ffffff;"/>
   </g>
   <g id="matplotlib.axis_1">
    <g id="xtick_1">
     <g id="line2d_1">
      <path clip-path="url(#pdc53604245)" d="M 57.6 307.584 
L 57.6 41.472 
" style="fill:none;stroke:#b0b0b0;stroke-linecap:square;stroke-width:0.8;"/>
     </g>
     <g id="line2d_2">
      <defs>
       <path d="M 0 0 
L 0 3.5 
" id="mb09ae0011a" style="stroke:#000000;stroke-width:0.8;"/>
      </defs>
      <g>
       <use style="stroke:#000000;stroke-width:0.8;" x="57.6" xlink:href="#mb09ae0011a" y="307.584"/>
      </g>
     </g>
     <g id="text_1">
      <!-- 0 -->
      <defs>
       <path d="M 31.78125 66.40625 
Q 24.171875 66.40625 20.328125 58.90625 
Q 16.5 51.421875 16.5 36.375 
Q 16.5 21.390625 20.328125 13.890625 
Q 24.171875 6.390625 31.78125 6.390625 
Q 39.453125 6.390625 43.28125 13.890625 
Q 47.125 21.390625 47.125 36.375 
Q 47.125 51.421875 43.28125 58.90625 
Q 39.453125 66.40625 31.78125 66.40625 
M 31.78125 74.21875 
Q 44.046875 74.21875 50.515625 64.515625 
Q 56.984375 54.828125 56.984375 36.375 
Q 56.984375 17.96875 50.515625 8.265625 
Q 44.046875 -1.421875 31.78125 -1.421875 
Q 19.53125 -1.421875 13.0625 8.265625 
Q 6.59375 17.96875 6.59375 36.375 
Q 6.59375 54.828125 13.0625 64.515625 
Q 19.53125 74.21875 31.78125 74.21875 
" id="DejaVuSans-30"/>
      </defs>
      <g transform="translate(54.41875 322.182437)scale(0.1 -0.1)">
       <use xlink:href="#DejaVuSans-30"/>
      </g>
     </g>
    </g>
    <g id="xtick_2">
     <g id="line2d_3">
      <path clip-path="url(#pdc53604245)" d="M 129.024 307.584 
L 129.024 41.472 
" style="fill:none;stroke:#b0b0b0;stroke-linecap:square;stroke-width:0.8;"/>
     </g>
     <g id="line2d_4">
      <g>
       <use style="stroke:#000000;stroke-width:0.8;" x="129.024" xlink:href="#mb09ae0011a" y="307.584"/>
      </g>
     </g>
     <g id="text_2">
      <!-- 200 -->
      <defs>
       <path d="M 19.1875 8.296875 
L 53.609375 8.296875 
L 53.609375 0 
L 7.328125 0 
L 7.328125 8.296875 
Q 12.9375 14.109375 22.625 23.890625 
Q 32.328125 33.6875 34.8125 36.53125 
Q 39.546875 41.84375 41.421875 45.53125 
Q 43.3125 49.21875 43.3125 52.78125 
Q 43.3125 58.59375 39.234375 62.25 
Q 35.15625 65.921875 28.609375 65.921875 
Q 23.96875 65.921875 18.8125 64.3125 
Q 13.671875 62.703125 7.8125 59.421875 
L 7.8125 69.390625 
Q 13.765625 71.78125 18.9375 73 
Q 24.125 74.21875 28.421875 74.21875 
Q 39.75 74.21875 46.484375 68.546875 
Q 53.21875 62.890625 53.21875 53.421875 
Q 53.21875 48.921875 51.53125 44.890625 
Q 49.859375 40.875 45.40625 35.40625 
Q 44.1875 33.984375 37.640625 27.21875 
Q 31.109375 20.453125 19.1875 8.296875 
" id="DejaVuSans-32"/>
      </defs>
      <g transform="translate(119.48025 322.182437)scale(0.1 -0.1)">
       <use xlink:href="#DejaVuSans-32"/>
       <use x="63.623047" xlink:href="#DejaVuSans-30"/>
       <use x="127.246094" xlink:href="#DejaVuSans-30"/>
      </g>
     </g>
    </g>
    <g id="xtick_3">
     <g id="line2d_5">
      <path clip-path="url(#pdc53604245)" d="M 200.448 307.584 
L 200.448 41.472 
" style="fill:none;stroke:#b0b0b0;stroke-linecap:square;stroke-width:0.8;"/>
     </g>
     <g id="line2d_6">
      <g>
       <use style="stroke:#000000;stroke-width:0.8;" x="200.448" xlink:href="#mb09ae0011a" y="307.584"/>
      </g>
     </g>
     <g id="text_3">
      <!-- 400 -->
      <defs>
       <path d="M 37.796875 64.3125 
L 12.890625 25.390625 
L 37.796875 25.390625 
z
M 35.203125 72.90625 
L 47.609375 72.90625 
L 47.609375 25.390625 
L 58.015625 25.390625 
L 58.015625 17.1875 
L 47.609375 17.1875 
L 47.609375 0 
L 37.796875 0 
L 37.796875 17.1875 
L 4.890625 17.1875 
L 4.890625 26.703125 
z
" id="DejaVuSans-34"/>
      </defs>
      <g transform="translate(190.90425 322.182437)scale(0.1 -0.1)">
       <use xlink:href="#DejaVuSans-34"/>
       <use x="63.623047" xlink:href="#DejaVuSans-30"/>
       <use x="127.246094" xlink:href="#DejaVuSans-30"/>
      </g>
     </g>
    </g>
    <g id="xtick_4">
     <g id="line2d_7">
      <path clip-path="url(#pdc53604245)" d="M 271.872 307.584 
L 271.872 41.472 
" style="fill:none;stroke:#b0b0b0;stroke-linecap:square;stroke-width:0.8;"/>
     </g>
     <g id="line2d_8">
      <g>
       <use style="stroke:#000000;stroke-width:0.8;" x="271.872" xlink:href="#mb09ae0011a" y="307.584"/>
      </g>
     </g>
     <g id="text_4">
      <!-- 600 -->
      <defs>
       <path d="M 33.015625 40.375 
Q 26.375 40.375 22.484375 35.828125 
Q 18.609375 31.296875 18.609375 23.390625 
Q 18.609375 15.53125 22.484375 10.953125 
Q 26.375 6.390625 33.015625 6.390625 
Q 39.65625 6.390625 43.53125 10.953125 
Q 47.40625 15.53125 47.40625 23.390625 
Q 47.40625 31.296875 43.53125 35.828125 
Q 39.65625 40.375 33.015625 40.375 
M 52.59375 71.296875 
L 52.59375 62.3125 
Q 48.875 64.0625 45.09375 64.984375 
Q 41.3125 65.921875 37.59375 65.921875 
Q 27.828125 65.921875 22.671875 59.328125 
Q 17.53125 52.734375 16.796875 39.40625 
Q 19.671875 43.65625 24.015625 45.921875 
Q 28.375 48.1875 33.59375 48.1875 
Q 44.578125 48.1875 50.953125 41.515625 
Q 57.328125 34.859375 57.328125 23.390625 
Q 57.328125 12.15625 50.6875 5.359375 
Q 44.046875 -1.421875 33.015625 -1.421875 
Q 20.359375 -1.421875 13.671875 8.265625 
Q 6.984375 17.96875 6.984375 36.375 
Q 6.984375 53.65625 15.1875 63.9375 
Q 23.390625 74.21875 37.203125 74.21875 
Q 40.921875 74.21875 44.703125 73.484375 
Q 48.484375 72.75 52.59375 71.296875 
" id="DejaVuSans-36"/>
      </defs>
      <g transform="translate(262.32825 322.182437)scale(0.1 -0.1)">
       <use xlink:href="#DejaVuSans-36"/>
       <use x="63.623047" xlink:href="#DejaVuSans-30"/>
       <use x="127.246094" xlink:href="#DejaVuSans-30"/>
      </g>
     </g>
    </g>
    <g id="xtick_5">
     <g id="line2d_9">
      <path clip-path="url(#pdc53604245)" d="M 343.296 307.584 
L 343.296 41.472 
" style="fill:none;stroke:#b0b0b0;stroke-linecap:square;stroke-width:0.8;"/>
     </g>
     <g id="line2d_10">
      <g>
       <use style="stroke:#000000;stroke-width:0.8;" x="343.296" xlink:href="#mb09ae0011a" y="307.584"/>
      </g>
     </g>
     <g id="text_5">
      <!-- 800 -->
      <defs>
       <path d="M 31.78125 34.625 
Q 24.75 34.625 20.71875 30.859375 
Q 16.703125 27.09375 16.703125 20.515625 
Q 16.703125 13.921875 20.71875 10.15625 
Q 24.75 6.390625 31.78125 6.390625 
Q 38.8125 6.390625 42.859375 10.171875 
Q 46.921875 13.96875 46.921875 20.515625 
Q 46.921875 27.09375 42.890625 30.859375 
Q 38.875 34.625 31.78125 34.625 
M 21.921875 38.8125 
Q 15.578125 40.375 12.03125 44.71875 
Q 8.5 49.078125 8.5 55.328125 
Q 8.5 64.0625 14.71875 69.140625 
Q 20.953125 74.21875 31.78125 74.21875 
Q 42.671875 74.21875 48.875 69.140625 
Q 55.078125 64.0625 55.078125 55.328125 
Q 55.078125 49.078125 51.53125 44.71875 
Q 48 40.375 41.703125 38.8125 
Q 48.828125 37.15625 52.796875 32.3125 
Q 56.78125 27.484375 56.78125 20.515625 
Q 56.78125 9.90625 50.3125 4.234375 
Q 43.84375 -1.421875 31.78125 -1.421875 
Q 19.734375 -1.421875 13.25 4.234375 
Q 6.78125 9.90625 6.78125 20.515625 
Q 6.78125 27.484375 10.78125 32.3125 
Q 14.796875 37.15625 21.921875 38.8125 
M 18.3125 54.390625 
Q 18.3125 48.734375 21.84375 45.5625 
Q 25.390625 42.390625 31.78125 42.390625 
Q 38.140625 42.390625 41.71875 45.5625 
Q 45.3125 48.734375 45.3125 54.390625 
Q 45.3125 60.0625 41.71875 63.234375 
Q 38.140625 66.40625 31.78125 66.40625 
Q 25.390625 66.40625 21.84375 63.234375 
Q 18.3125 60.0625 18.3125 54.390625 
" id="DejaVuSans-38"/>
      </defs>
      <g transform="translate(333.75225 322.182437)scale(0.1 -0.1)">
       <use xlink:href="#DejaVuSans-38"/>
       <use x="63.623047" xlink:href="#DejaVuSans-30"/>
       <use x="127.246094" xlink:href="#DejaVuSans-30"/>
      </g>
     </g>
    </g>
    <g id="xtick_6">
     <g id="line2d_11">
      <path clip-path="url(#pdc53604245)" d="M 414.72 307.584 
L 414.72 41.472 
" style="fill:none;stroke:#b0b0b0;stroke-linecap:square;stroke-width:0.8;"/>
     </g>
     <g id="line2d_12">
      <g>
       <use style="stroke:#000000;stroke-width:0.8;" x="414.72" xlink:href="#mb09ae0011a" y="307.584"/>
      </g>
     </g>
     <g id="text_6">
      <!-- 1000 -->
      <defs>
       <path d="M 12.40625 8.296875 
L 28.515625 8.296875 
L 28.515625 63.921875 
L 10.984375 60.40625 
L 10.984375 69.390625 
L 28.421875 72.90625 
L 38.28125 72.90625 
L 38.28125 8.296875 
L 54.390625 8.296875 
L 54.390625 0 
L 12.40625 0 
z
" id="DejaVuSans-31"/>
      </defs>
      <g transform="translate(401.995 322.182437)scale(0.1 -0.1)">
       <use xlink:href="#DejaVuSans-31"/>
       <use x="63.623047" xlink:href="#DejaVuSans-30"/>
       <use x="127.246094" xlink:href="#DejaVuSans-30"/>
       <use x="190.869141" xlink:href="#DejaVuSans-30"/>
      </g>
     </g>
    </g>
    <g id="text_7">
     <!-- Number of clients -->
     <defs>
      <path d="M 9.8125 72.90625 
L 23.09375 72.90625 
L 55.421875 11.921875 
L 55.421875 72.90625 
L 64.984375 72.90625 
L 64.984375 0 
L 51.703125 0 
L 19.390625 60.984375 
L 19.390625 0 
L 9.8125 0 
z
" id="DejaVuSans-4e"/>
      <path d="M 8.5 21.578125 
L 8.5 54.6875 
L 17.484375 54.6875 
L 17.484375 21.921875 
Q 17.484375 14.15625 20.5 10.265625 
Q 23.53125 6.390625 29.59375 6.390625 
Q 36.859375 6.390625 41.078125 11.03125 
Q 45.3125 15.671875 45.3125 23.6875 
L 45.3125 54.6875 
L 54.296875 54.6875 
L 54.296875 0 
L 45.3125 0 
L 45.3125 8.40625 
Q 42.046875 3.421875 37.71875 1 
Q 33.40625 -1.421875 27.6875 -1.421875 
Q 18.265625 -1.421875 13.375 4.4375 
Q 8.5 10.296875 8.5 21.578125 
M 31.109375 56 
z
" id="DejaVuSans-75"/>
      <path d="M 52 44.1875 
Q 55.375 50.25 60.0625 53.125 
Q 64.75 56 71.09375 56 
Q 79.640625 56 84.28125 50.015625 
Q 88.921875 44.046875 88.921875 33.015625 
L 88.921875 0 
L 79.890625 0 
L 79.890625 32.71875 
Q 79.890625 40.578125 77.09375 44.375 
Q 74.3125 48.1875 68.609375 48.1875 
Q 61.625 48.1875 57.5625 43.546875 
Q 53.515625 38.921875 53.515625 30.90625 
L 53.515625 0 
L 44.484375 0 
L 44.484375 32.71875 
Q 44.484375 40.625 41.703125 44.40625 
Q 38.921875 48.1875 33.109375 48.1875 
Q 26.21875 48.1875 22.15625 43.53125 
Q 18.109375 38.875 18.109375 30.90625 
L 18.109375 0 
L 9.078125 0 
L 9.078125 54.6875 
L 18.109375 54.6875 
L 18.109375 46.1875 
Q 21.1875 51.21875 25.484375 53.609375 
Q 29.78125 56 35.6875 56 
Q 41.65625 56 45.828125 52.96875 
Q 50 49.953125 52 44.1875 
" id="DejaVuSans-6d"/>
      <path d="M 48.6875 27.296875 
Q 48.6875 37.203125 44.609375 42.84375 
Q 40.53125 48.484375 33.40625 48.484375 
Q 26.265625 48.484375 22.1875 42.84375 
Q 18.109375 37.203125 18.109375 27.296875 
Q 18.109375 17.390625 22.1875 11.75 
Q 26.265625 6.109375 33.40625 6.109375 
Q 40.53125 6.109375 44.609375 11.75 
Q 48.6875 17.390625 48.6875 27.296875 
M 18.109375 46.390625 
Q 20.953125 51.265625 25.265625 53.625 
Q 29.59375 56 35.59375 56 
Q 45.5625 56 51.78125 48.09375 
Q 58.015625 40.1875 58.015625 27.296875 
Q 58.015625 14.40625 51.78125 6.484375 
Q 45.5625 -1.421875 35.59375 -1.421875 
Q 29.59375 -1.421875 25.265625 0.953125 
Q 20.953125 3.328125 18.109375 8.203125 
L 18.109375 0 
L 9.078125 0 
L 9.078125 75.984375 
L 18.109375 75.984375 
z
" id="DejaVuSans-62"/>
      <path d="M 56.203125 29.59375 
L 56.203125 25.203125 
L 14.890625 25.203125 
Q 15.484375 15.921875 20.484375 11.0625 
Q 25.484375 6.203125 34.421875 6.203125 
Q 39.59375 6.203125 44.453125 7.46875 
Q 49.3125 8.734375 54.109375 11.28125 
L 54.109375 2.78125 
Q 49.265625 0.734375 44.1875 -0.34375 
Q 39.109375 -1.421875 33.890625 -1.421875 
Q 20.796875 -1.421875 13.15625 6.1875 
Q 5.515625 13.8125 5.515625 26.8125 
Q 5.515625 40.234375 12.765625 48.109375 
Q 20.015625 56 32.328125 56 
Q 43.359375 56 49.78125 48.890625 
Q 56.203125 41.796875 56.203125 29.59375 
M 47.21875 32.234375 
Q 47.125 39.59375 43.09375 43.984375 
Q 39.0625 48.390625 32.421875 48.390625 
Q 24.90625 48.390625 20.390625 44.140625 
Q 15.875 39.890625 15.1875 32.171875 
z
" id="DejaVuSans-65"/>
      <path d="M 41.109375 46.296875 
Q 39.59375 47.171875 37.8125 47.578125 
Q 36.03125 48 33.890625 48 
Q 26.265625 48 22.1875 43.046875 
Q 18.109375 38.09375 18.109375 28.8125 
L 18.109375 0 
L 9.078125 0 
L 9.078125 54.6875 
L 18.109375 54.6875 
L 18.109375 46.1875 
Q 20.953125 51.171875 25.484375 53.578125 
Q 30.03125 56 36.53125 56 
Q 37.453125 56 38.578125 55.875 
Q 39.703125 55.765625 41.0625 55.515625 
z
" id="DejaVuSans-72"/>
      <path id="DejaVuSans-20"/>
      <path d="M 30.609375 48.390625 
Q 23.390625 48.390625 19.1875 42.75 
Q 14.984375 37.109375 14.984375 27.296875 
Q 14.984375 17.484375 19.15625 11.84375 
Q 23.34375 6.203125 30.609375 6.203125 
Q 37.796875 6.203125 41.984375 11.859375 
Q 46.1875 17.53125 46.1875 27.296875 
Q 46.1875 37.015625 41.984375 42.703125 
Q 37.796875 48.390625 30.609375 48.390625 
M 30.609375 56 
Q 42.328125 56 49.015625 48.375 
Q 55.71875 40.765625 55.71875 27.296875 
Q 55.71875 13.875 49.015625 6.21875 
Q 42.328125 -1.421875 30.609375 -1.421875 
Q 18.84375 -1.421875 12.171875 6.21875 
Q 5.515625 13.875 5.515625 27.296875 
Q 5.515625 40.765625 12.171875 48.375 
Q 18.84375 56 30.609375 56 
" id="DejaVuSans-6f"/>
      <path d="M 37.109375 75.984375 
L 37.109375 68.5 
L 28.515625 68.5 
Q 23.6875 68.5 21.796875 66.546875 
Q 19.921875 64.59375 19.921875 59.515625 
L 19.921875 54.6875 
L 34.71875 54.6875 
L 34.71875 47.703125 
L 19.921875 47.703125 
L 19.921875 0 
L 10.890625 0 
L 10.890625 47.703125 
L 2.296875 47.703125 
L 2.296875 54.6875 
L 10.890625 54.6875 
L 10.890625 58.5 
Q 10.890625 67.625 15.140625 71.796875 
Q 19.390625 75.984375 28.609375 75.984375 
z
" id="DejaVuSans-66"/>
      <path d="M 48.78125 52.59375 
L 48.78125 44.1875 
Q 44.96875 46.296875 41.140625 47.34375 
Q 37.3125 48.390625 33.40625 48.390625 
Q 24.65625 48.390625 19.8125 42.84375 
Q 14.984375 37.3125 14.984375 27.296875 
Q 14.984375 17.28125 19.8125 11.734375 
Q 24.65625 6.203125 33.40625 6.203125 
Q 37.3125 6.203125 41.140625 7.25 
Q 44.96875 8.296875 48.78125 10.40625 
L 48.78125 2.09375 
Q 45.015625 0.34375 40.984375 -0.53125 
Q 36.96875 -1.421875 32.421875 -1.421875 
Q 20.0625 -1.421875 12.78125 6.34375 
Q 5.515625 14.109375 5.515625 27.296875 
Q 5.515625 40.671875 12.859375 48.328125 
Q 20.21875 56 33.015625 56 
Q 37.15625 56 41.109375 55.140625 
Q 45.0625 54.296875 48.78125 52.59375 
" id="DejaVuSans-63"/>
      <path d="M 9.421875 75.984375 
L 18.40625 75.984375 
L 18.40625 0 
L 9.421875 0 
z
" id="DejaVuSans-6c"/>
      <path d="M 9.421875 54.6875 
L 18.40625 54.6875 
L 18.40625 0 
L 9.421875 0 
z
M 9.421875 75.984375 
L 18.40625 75.984375 
L 18.40625 64.59375 
L 9.421875 64.59375 
z
" id="DejaVuSans-69"/>
      <path d="M 54.890625 33.015625 
L 54.890625 0 
L 45.90625 0 
L 45.90625 32.71875 
Q 45.90625 40.484375 42.875 44.328125 
Q 39.84375 48.1875 33.796875 48.1875 
Q 26.515625 48.1875 22.3125 43.546875 
Q 18.109375 38.921875 18.109375 30.90625 
L 18.109375 0 
L 9.078125 0 
L 9.078125 54.6875 
L 18.109375 54.6875 
L 18.109375 46.1875 
Q 21.34375 51.125 25.703125 53.5625 
Q 30.078125 56 35.796875 56 
Q 45.21875 56 50.046875 50.171875 
Q 54.890625 44.34375 54.890625 33.015625 
" id="DejaVuSans-6e"/>
      <path d="M 18.3125 70.21875 
L 18.3125 54.6875 
L 36.8125 54.6875 
L 36.8125 47.703125 
L 18.3125 47.703125 
L 18.3125 18.015625 
Q 18.3125 11.328125 20.140625 9.421875 
Q 21.96875 7.515625 27.59375 7.515625 
L 36.8125 7.515625 
L 36.8125 0 
L 27.59375 0 
Q 17.1875 0 13.234375 3.875 
Q 9.28125 7.765625 9.28125 18.015625 
L 9.28125 47.703125 
L 2.6875 47.703125 
L 2.6875 54.6875 
L 9.28125 54.6875 
L 9.28125 70.21875 
z
" id="DejaVuSans-74"/>
      <path d="M 44.28125 53.078125 
L 44.28125 44.578125 
Q 40.484375 46.53125 36.375 47.5 
Q 32.28125 48.484375 27.875 48.484375 
Q 21.1875 48.484375 17.84375 46.4375 
Q 14.5 44.390625 14.5 40.28125 
Q 14.5 37.15625 16.890625 35.375 
Q 19.28125 33.59375 26.515625 31.984375 
L 29.59375 31.296875 
Q 39.15625 29.25 43.1875 25.515625 
Q 47.21875 21.78125 47.21875 15.09375 
Q 47.21875 7.46875 41.1875 3.015625 
Q 35.15625 -1.421875 24.609375 -1.421875 
Q 20.21875 -1.421875 15.453125 -0.5625 
Q 10.6875 0.296875 5.421875 2 
L 5.421875 11.28125 
Q 10.40625 8.6875 15.234375 7.390625 
Q 20.0625 6.109375 24.8125 6.109375 
Q 31.15625 6.109375 34.5625 8.28125 
Q 37.984375 10.453125 37.984375 14.40625 
Q 37.984375 18.0625 35.515625 20.015625 
Q 33.0625 21.96875 24.703125 23.78125 
L 21.578125 24.515625 
Q 13.234375 26.265625 9.515625 29.90625 
Q 5.8125 33.546875 5.8125 39.890625 
Q 5.8125 47.609375 11.28125 51.796875 
Q 16.75 56 26.8125 56 
Q 31.78125 56 36.171875 55.265625 
Q 40.578125 54.546875 44.28125 53.078125 
" id="DejaVuSans-73"/>
     </defs>
     <g transform="translate(191.738906 335.860562)scale(0.1 -0.1)">
      <use xlink:href="#DejaVuSans-4e"/>
      <use x="74.804688" xlink:href="#DejaVuSans-75"/>
      <use x="138.183594" xlink:href="#DejaVuSans-6d"/>
      <use x="235.595703" xlink:href="#DejaVuSans-62"/>
      <use x="299.072266" xlink:href="#DejaVuSans-65"/>
      <use x="360.595703" xlink:href="#DejaVuSans-72"/>
      <use x="401.708984" xlink:href="#DejaVuSans-20"/>
      <use x="433.496094" xlink:href="#DejaVuSans-6f"/>
      <use x="494.677734" xlink:href="#DejaVuSans-66"/>
      <use x="529.882812" xlink:href="#DejaVuSans-20"/>
      <use x="561.669922" xlink:href="#DejaVuSans-63"/>
      <use x="616.650391" xlink:href="#DejaVuSans-6c"/>
      <use x="644.433594" xlink:href="#DejaVuSans-69"/>
      <use x="672.216797" xlink:href="#DejaVuSans-65"/>
      <use x="733.740234" xlink:href="#DejaVuSans-6e"/>
      <use x="797.119141" xlink:href="#DejaVuSans-74"/>
      <use x="836.328125" xlink:href="#DejaVuSans-73"/>
     </g>
    </g>
   </g>
   <g id="matplotlib.axis_2">
    <g id="ytick_1">
     <g id="line2d_13">
      <path clip-path="url(#pdc53604245)" d="M 57.6 296.273563 
L 414.72 296.273563 
" style="fill:none;stroke:#b0b0b0;stroke-linecap:square;stroke-width:0.8;"/>
     </g>
     <g id="line2d_14">
      <defs>
       <path d="M 0 0 
L -3.5 0 
" id="me1916fa3d2" style="stroke:#000000;stroke-width:0.8;"/>
      </defs>
      <g>
       <use style="stroke:#000000;stroke-width:0.8;" x="57.6" xlink:href="#me1916fa3d2" y="296.273563"/>
      </g>
     </g>
     <g id="text_8">
      <!-- 0 -->
      <g transform="translate(44.2375 300.072782)scale(0.1 -0.1)">
       <use xlink:href="#DejaVuSans-30"/>
      </g>
     </g>
    </g>
    <g id="ytick_2">
     <g id="line2d_15">
      <path clip-path="url(#pdc53604245)" d="M 57.6 255.40138 
L 414.72 255.40138 
" style="fill:none;stroke:#b0b0b0;stroke-linecap:square;stroke-width:0.8;"/>
     </g>
     <g id="line2d_16">
      <g>
       <use style="stroke:#000000;stroke-width:0.8;" x="57.6" xlink:href="#me1916fa3d2" y="255.40138"/>
      </g>
     </g>
     <g id="text_9">
      <!-- 50 -->
      <defs>
       <path d="M 10.796875 72.90625 
L 49.515625 72.90625 
L 49.515625 64.59375 
L 19.828125 64.59375 
L 19.828125 46.734375 
Q 21.96875 47.46875 24.109375 47.828125 
Q 26.265625 48.1875 28.421875 48.1875 
Q 40.625 48.1875 47.75 41.5 
Q 54.890625 34.8125 54.890625 23.390625 
Q 54.890625 11.625 47.5625 5.09375 
Q 40.234375 -1.421875 26.90625 -1.421875 
Q 22.3125 -1.421875 17.546875 -0.640625 
Q 12.796875 0.140625 7.71875 1.703125 
L 7.71875 11.625 
Q 12.109375 9.234375 16.796875 8.0625 
Q 21.484375 6.890625 26.703125 6.890625 
Q 35.15625 6.890625 40.078125 11.328125 
Q 45.015625 15.765625 45.015625 23.390625 
Q 45.015625 31 40.078125 35.4375 
Q 35.15625 39.890625 26.703125 39.890625 
Q 22.75 39.890625 18.8125 39.015625 
Q 14.890625 38.140625 10.796875 36.28125 
z
" id="DejaVuSans-35"/>
      </defs>
      <g transform="translate(37.875 259.200599)scale(0.1 -0.1)">
       <use xlink:href="#DejaVuSans-35"/>
       <use x="63.623047" xlink:href="#DejaVuSans-30"/>
      </g>
     </g>
    </g>
    <g id="ytick_3">
     <g id="line2d_17">
      <path clip-path="url(#pdc53604245)" d="M 57.6 214.529197 
L 414.72 214.529197 
" style="fill:none;stroke:#b0b0b0;stroke-linecap:square;stroke-width:0.8;"/>
     </g>
     <g id="line2d_18">
      <g>
       <use style="stroke:#000000;stroke-width:0.8;" x="57.6" xlink:href="#me1916fa3d2" y="214.529197"/>
      </g>
     </g>
     <g id="text_10">
      <!-- 100 -->
      <g transform="translate(31.5125 218.328416)scale(0.1 -0.1)">
       <use xlink:href="#DejaVuSans-31"/>
       <use x="63.623047" xlink:href="#DejaVuSans-30"/>
       <use x="127.246094" xlink:href="#DejaVuSans-30"/>
      </g>
     </g>
    </g>
    <g id="ytick_4">
     <g id="line2d_19">
      <path clip-path="url(#pdc53604245)" d="M 57.6 173.657014 
L 414.72 173.657014 
" style="fill:none;stroke:#b0b0b0;stroke-linecap:square;stroke-width:0.8;"/>
     </g>
     <g id="line2d_20">
      <g>
       <use style="stroke:#000000;stroke-width:0.8;" x="57.6" xlink:href="#me1916fa3d2" y="173.657014"/>
      </g>
     </g>
     <g id="text_11">
      <!-- 150 -->
      <g transform="translate(31.5125 177.456233)scale(0.1 -0.1)">
       <use xlink:href="#DejaVuSans-31"/>
       <use x="63.623047" xlink:href="#DejaVuSans-35"/>
       <use x="127.246094" xlink:href="#DejaVuSans-30"/>
      </g>
     </g>
    </g>
    <g id="ytick_5">
     <g id="line2d_21">
      <path clip-path="url(#pdc53604245)" d="M 57.6 132.784831 
L 414.72 132.784831 
" style="fill:none;stroke:#b0b0b0;stroke-linecap:square;stroke-width:0.8;"/>
     </g>
     <g id="line2d_22">
      <g>
       <use style="stroke:#000000;stroke-width:0.8;" x="57.6" xlink:href="#me1916fa3d2" y="132.784831"/>
      </g>
     </g>
     <g id="text_12">
      <!-- 200 -->
      <g transform="translate(31.5125 136.584049)scale(0.1 -0.1)">
       <use xlink:href="#DejaVuSans-32"/>
       <use x="63.623047" xlink:href="#DejaVuSans-30"/>
       <use x="127.246094" xlink:href="#DejaVuSans-30"/>
      </g>
     </g>
    </g>
    <g id="ytick_6">
     <g id="line2d_23">
      <path clip-path="url(#pdc53604245)" d="M 57.6 91.912647 
L 414.72 91.912647 
" style="fill:none;stroke:#b0b0b0;stroke-linecap:square;stroke-width:0.8;"/>
     </g>
     <g id="line2d_24">
      <g>
       <use style="stroke:#000000;stroke-width:0.8;" x="57.6" xlink:href="#me1916fa3d2" y="91.912647"/>
      </g>
     </g>
     <g id="text_13">
      <!-- 250 -->
      <g transform="translate(31.5125 95.711866)scale(0.1 -0.1)">
       <use xlink:href="#DejaVuSans-32"/>
       <use x="63.623047" xlink:href="#DejaVuSans-35"/>
       <use x="127.246094" xlink:href="#DejaVuSans-30"/>
      </g>
     </g>
    </g>
    <g id="ytick_7">
     <g id="line2d_25">
      <path clip-path="url(#pdc53604245)" d="M 57.6 51.040464 
L 414.72 51.040464 
" style="fill:none;stroke:#b0b0b0;stroke-linecap:square;stroke-width:0.8;"/>
     </g>
     <g id="line2d_26">
      <g>
       <use style="stroke:#000000;stroke-width:0.8;" x="57.6" xlink:href="#me1916fa3d2" y="51.040464"/>
      </g>
     </g>
     <g id="text_14">
      <!-- 300 -->
      <defs>
       <path d="M 40.578125 39.3125 
Q 47.65625 37.796875 51.625 33 
Q 55.609375 28.21875 55.609375 21.1875 
Q 55.609375 10.40625 48.1875 4.484375 
Q 40.765625 -1.421875 27.09375 -1.421875 
Q 22.515625 -1.421875 17.65625 -0.515625 
Q 12.796875 0.390625 7.625 2.203125 
L 7.625 11.71875 
Q 11.71875 9.328125 16.59375 8.109375 
Q 21.484375 6.890625 26.8125 6.890625 
Q 36.078125 6.890625 40.9375 10.546875 
Q 45.796875 14.203125 45.796875 21.1875 
Q 45.796875 27.640625 41.28125 31.265625 
Q 36.765625 34.90625 28.71875 34.90625 
L 20.21875 34.90625 
L 20.21875 43.015625 
L 29.109375 43.015625 
Q 36.375 43.015625 40.234375 45.921875 
Q 44.09375 48.828125 44.09375 54.296875 
Q 44.09375 59.90625 40.109375 62.90625 
Q 36.140625 65.921875 28.71875 65.921875 
Q 24.65625 65.921875 20.015625 65.03125 
Q 15.375 64.15625 9.8125 62.3125 
L 9.8125 71.09375 
Q 15.4375 72.65625 20.34375 73.4375 
Q 25.25 74.21875 29.59375 74.21875 
Q 40.828125 74.21875 47.359375 69.109375 
Q 53.90625 64.015625 53.90625 55.328125 
Q 53.90625 49.265625 50.4375 45.09375 
Q 46.96875 40.921875 40.578125 39.3125 
" id="DejaVuSans-33"/>
      </defs>
      <g transform="translate(31.5125 54.839683)scale(0.1 -0.1)">
       <use xlink:href="#DejaVuSans-33"/>
       <use x="63.623047" xlink:href="#DejaVuSans-30"/>
       <use x="127.246094" xlink:href="#DejaVuSans-30"/>
      </g>
     </g>
    </g>
    <g id="text_15">
     <!-- Successful download requests per second -->
     <defs>
      <path d="M 53.515625 70.515625 
L 53.515625 60.890625 
Q 47.90625 63.578125 42.921875 64.890625 
Q 37.9375 66.21875 33.296875 66.21875 
Q 25.25 66.21875 20.875 63.09375 
Q 16.5 59.96875 16.5 54.203125 
Q 16.5 49.359375 19.40625 46.890625 
Q 22.3125 44.4375 30.421875 42.921875 
L 36.375 41.703125 
Q 47.40625 39.59375 52.65625 34.296875 
Q 57.90625 29 57.90625 20.125 
Q 57.90625 9.515625 50.796875 4.046875 
Q 43.703125 -1.421875 29.984375 -1.421875 
Q 24.8125 -1.421875 18.96875 -0.25 
Q 13.140625 0.921875 6.890625 3.21875 
L 6.890625 13.375 
Q 12.890625 10.015625 18.65625 8.296875 
Q 24.421875 6.59375 29.984375 6.59375 
Q 38.421875 6.59375 43.015625 9.90625 
Q 47.609375 13.234375 47.609375 19.390625 
Q 47.609375 24.75 44.3125 27.78125 
Q 41.015625 30.8125 33.5 32.328125 
L 27.484375 33.5 
Q 16.453125 35.6875 11.515625 40.375 
Q 6.59375 45.0625 6.59375 53.421875 
Q 6.59375 63.09375 13.40625 68.65625 
Q 20.21875 74.21875 32.171875 74.21875 
Q 37.3125 74.21875 42.625 73.28125 
Q 47.953125 72.359375 53.515625 70.515625 
" id="DejaVuSans-53"/>
      <path d="M 45.40625 46.390625 
L 45.40625 75.984375 
L 54.390625 75.984375 
L 54.390625 0 
L 45.40625 0 
L 45.40625 8.203125 
Q 42.578125 3.328125 38.25 0.953125 
Q 33.9375 -1.421875 27.875 -1.421875 
Q 17.96875 -1.421875 11.734375 6.484375 
Q 5.515625 14.40625 5.515625 27.296875 
Q 5.515625 40.1875 11.734375 48.09375 
Q 17.96875 56 27.875 56 
Q 33.9375 56 38.25 53.625 
Q 42.578125 51.265625 45.40625 46.390625 
M 14.796875 27.296875 
Q 14.796875 17.390625 18.875 11.75 
Q 22.953125 6.109375 30.078125 6.109375 
Q 37.203125 6.109375 41.296875 11.75 
Q 45.40625 17.390625 45.40625 27.296875 
Q 45.40625 37.203125 41.296875 42.84375 
Q 37.203125 48.484375 30.078125 48.484375 
Q 22.953125 48.484375 18.875 42.84375 
Q 14.796875 37.203125 14.796875 27.296875 
" id="DejaVuSans-64"/>
      <path d="M 4.203125 54.6875 
L 13.1875 54.6875 
L 24.421875 12.015625 
L 35.59375 54.6875 
L 46.1875 54.6875 
L 57.421875 12.015625 
L 68.609375 54.6875 
L 77.59375 54.6875 
L 63.28125 0 
L 52.6875 0 
L 40.921875 44.828125 
L 29.109375 0 
L 18.5 0 
z
" id="DejaVuSans-77"/>
      <path d="M 34.28125 27.484375 
Q 23.390625 27.484375 19.1875 25 
Q 14.984375 22.515625 14.984375 16.5 
Q 14.984375 11.71875 18.140625 8.90625 
Q 21.296875 6.109375 26.703125 6.109375 
Q 34.1875 6.109375 38.703125 11.40625 
Q 43.21875 16.703125 43.21875 25.484375 
L 43.21875 27.484375 
z
M 52.203125 31.203125 
L 52.203125 0 
L 43.21875 0 
L 43.21875 8.296875 
Q 40.140625 3.328125 35.546875 0.953125 
Q 30.953125 -1.421875 24.3125 -1.421875 
Q 15.921875 -1.421875 10.953125 3.296875 
Q 6 8.015625 6 15.921875 
Q 6 25.140625 12.171875 29.828125 
Q 18.359375 34.515625 30.609375 34.515625 
L 43.21875 34.515625 
L 43.21875 35.40625 
Q 43.21875 41.609375 39.140625 45 
Q 35.0625 48.390625 27.6875 48.390625 
Q 23 48.390625 18.546875 47.265625 
Q 14.109375 46.140625 10.015625 43.890625 
L 10.015625 52.203125 
Q 14.9375 54.109375 19.578125 55.046875 
Q 24.21875 56 28.609375 56 
Q 40.484375 56 46.34375 49.84375 
Q 52.203125 43.703125 52.203125 31.203125 
" id="DejaVuSans-61"/>
      <path d="M 14.796875 27.296875 
Q 14.796875 17.390625 18.875 11.75 
Q 22.953125 6.109375 30.078125 6.109375 
Q 37.203125 6.109375 41.296875 11.75 
Q 45.40625 17.390625 45.40625 27.296875 
Q 45.40625 37.203125 41.296875 42.84375 
Q 37.203125 48.484375 30.078125 48.484375 
Q 22.953125 48.484375 18.875 42.84375 
Q 14.796875 37.203125 14.796875 27.296875 
M 45.40625 8.203125 
Q 42.578125 3.328125 38.25 0.953125 
Q 33.9375 -1.421875 27.875 -1.421875 
Q 17.96875 -1.421875 11.734375 6.484375 
Q 5.515625 14.40625 5.515625 27.296875 
Q 5.515625 40.1875 11.734375 48.09375 
Q 17.96875 56 27.875 56 
Q 33.9375 56 38.25 53.625 
Q 42.578125 51.265625 45.40625 46.390625 
L 45.40625 54.6875 
L 54.390625 54.6875 
L 54.390625 -20.796875 
L 45.40625 -20.796875 
z
" id="DejaVuSans-71"/>
      <path d="M 18.109375 8.203125 
L 18.109375 -20.796875 
L 9.078125 -20.796875 
L 9.078125 54.6875 
L 18.109375 54.6875 
L 18.109375 46.390625 
Q 20.953125 51.265625 25.265625 53.625 
Q 29.59375 56 35.59375 56 
Q 45.5625 56 51.78125 48.09375 
Q 58.015625 40.1875 58.015625 27.296875 
Q 58.015625 14.40625 51.78125 6.484375 
Q 45.5625 -1.421875 35.59375 -1.421875 
Q 29.59375 -1.421875 25.265625 0.953125 
Q 20.953125 3.328125 18.109375 8.203125 
M 48.6875 27.296875 
Q 48.6875 37.203125 44.609375 42.84375 
Q 40.53125 48.484375 33.40625 48.484375 
Q 26.265625 48.484375 22.1875 42.84375 
Q 18.109375 37.203125 18.109375 27.296875 
Q 18.109375 17.390625 22.1875 11.75 
Q 26.265625 6.109375 33.40625 6.109375 
Q 40.53125 6.109375 44.609375 11.75 
Q 48.6875 17.390625 48.6875 27.296875 
" id="DejaVuSans-70"/>
     </defs>
     <g transform="translate(25.432812 279.366281)rotate(-90)scale(0.1 -0.1)">
      <use xlink:href="#DejaVuSans-53"/>
      <use x="63.476562" xlink:href="#DejaVuSans-75"/>
      <use x="126.855469" xlink:href="#DejaVuSans-63"/>
      <use x="181.835938" xlink:href="#DejaVuSans-63"/>
      <use x="236.816406" xlink:href="#DejaVuSans-65"/>
      <use x="298.339844" xlink:href="#DejaVuSans-73"/>
      <use x="350.439453" xlink:href="#DejaVuSans-73"/>
      <use x="402.539062" xlink:href="#DejaVuSans-66"/>
      <use x="437.744141" xlink:href="#DejaVuSans-75"/>
      <use x="501.123047" xlink:href="#DejaVuSans-6c"/>
      <use x="528.90625" xlink:href="#DejaVuSans-20"/>
      <use x="560.693359" xlink:href="#DejaVuSans-64"/>
      <use x="624.169922" xlink:href="#DejaVuSans-6f"/>
      <use x="685.351562" xlink:href="#DejaVuSans-77"/>
      <use x="767.138672" xlink:href="#DejaVuSans-6e"/>
      <use x="830.517578" xlink:href="#DejaVuSans-6c"/>
      <use x="858.300781" xlink:href="#DejaVuSans-6f"/>
      <use x="919.482422" xlink:href="#DejaVuSans-61"/>
      <use x="980.761719" xlink:href="#DejaVuSans-64"/>
      <use x="1044.238281" xlink:href="#DejaVuSans-20"/>
      <use x="1076.025391" xlink:href="#DejaVuSans-72"/>
      <use x="1117.107422" xlink:href="#DejaVuSans-65"/>
      <use x="1178.630859" xlink:href="#DejaVuSans-71"/>
      <use x="1242.107422" xlink:href="#DejaVuSans-75"/>
      <use x="1305.486328" xlink:href="#DejaVuSans-65"/>
      <use x="1367.009766" xlink:href="#DejaVuSans-73"/>
      <use x="1419.109375" xlink:href="#DejaVuSans-74"/>
      <use x="1458.318359" xlink:href="#DejaVuSans-73"/>
      <use x="1510.417969" xlink:href="#DejaVuSans-20"/>
      <use x="1542.205078" xlink:href="#DejaVuSans-70"/>
      <use x="1605.681641" xlink:href="#DejaVuSans-65"/>
      <use x="1667.205078" xlink:href="#DejaVuSans-72"/>
      <use x="1708.318359" xlink:href="#DejaVuSans-20"/>
      <use x="1740.105469" xlink:href="#DejaVuSans-73"/>
      <use x="1792.205078" xlink:href="#DejaVuSans-65"/>
      <use x="1853.728516" xlink:href="#DejaVuSans-63"/>
      <use x="1908.708984" xlink:href="#DejaVuSans-6f"/>
      <use x="1969.890625" xlink:href="#DejaVuSans-6e"/>
      <use x="2033.269531" xlink:href="#DejaVuSans-64"/>
     </g>
    </g>
   </g>
   <g id="line2d_27">
    <path clip-path="url(#pdc53604245)" d="M 57.6 295.474103 
L 57.95712 295.488 
L 61.1712 288.390954 
L 61.52832 287.391221 
L 61.88544 286.976777 
L 62.24256 285.888759 
L 62.59968 285.297747 
L 62.9568 284.173762 
L 64.38528 281.819524 
L 64.7424 280.68573 
L 65.09952 280.058751 
L 66.17088 276.81023 
L 66.88512 275.335561 
L 67.24224 275.112399 
L 67.59936 273.694134 
L 67.95648 273.363887 
L 68.3136 272.014288 
L 68.67072 271.424093 
L 69.02784 270.282125 
L 69.38496 271.118369 
L 69.74208 268.943152 
L 70.0992 269.447515 
L 70.45632 268.165763 
L 70.81344 266.466298 
L 71.17056 267.202814 
L 71.8848 263.944484 
L 72.24192 264.912337 
L 72.59904 263.426225 
L 72.95616 262.885077 
L 73.31328 262.11668 
L 73.6704 259.632469 
L 74.02752 261.085066 
L 74.38464 259.483694 
L 74.74176 257.162971 
L 75.09888 256.791034 
L 75.456 256.147706 
L 75.81312 257.160519 
L 76.17024 256.602205 
L 76.52736 253.622623 
L 76.88448 253.858864 
L 77.2416 251.477651 
L 77.59872 252.438964 
L 77.95584 251.016612 
L 78.31296 250.504893 
L 78.67008 251.396724 
L 79.0272 249.767558 
L 79.38432 249.34167 
L 79.74144 246.482252 
L 80.09856 246.728303 
L 80.45568 247.227761 
L 80.8128 245.724482 
L 81.16992 243.17978 
L 81.52704 244.043 
L 81.88416 242.473509 
L 82.24128 243.671881 
L 82.5984 242.925555 
L 83.31264 238.303728 
L 83.66976 239.803738 
L 84.02688 238.090376 
L 84.384 238.230976 
L 84.74112 235.600442 
L 85.09824 235.136952 
L 85.45536 234.062013 
L 85.81248 233.652474 
L 86.1696 231.317855 
L 86.52672 234.21324 
L 86.88384 229.740189 
L 87.24096 231.807504 
L 87.59808 232.395246 
L 87.9552 230.375342 
L 88.31232 227.459521 
L 88.66944 229.517027 
L 89.02656 225.763325 
L 89.38368 228.308027 
L 89.7408 223.218623 
L 90.09792 223.890562 
L 90.45504 222.658674 
L 90.81216 223.454864 
L 91.16928 220.030593 
L 91.5264 222.878567 
L 91.88352 219.45266 
L 92.24064 218.430038 
L 92.59776 219.562198 
L 93.312 218.036848 
L 93.66912 215.451273 
L 94.02624 216.822126 
L 94.38336 217.475264 
L 94.74048 217.156461 
L 95.0976 213.218017 
L 95.45472 210.989666 
L 95.81184 211.268414 
L 96.16896 212.062152 
L 96.52608 210.240888 
L 96.8832 209.527259 
L 97.24032 211.742532 
L 97.59744 211.058331 
L 97.95456 209.392381 
L 98.31168 203.299973 
L 98.6688 205.208704 
L 99.02592 207.789374 
L 99.38304 207.146863 
L 99.74016 201.354457 
L 100.09728 202.102418 
L 100.4544 205.040311 
L 100.81152 200.457722 
L 101.16864 199.945185 
L 101.52576 196.002654 
L 101.88288 201.992063 
L 102.24 197.862338 
L 102.59712 197.86806 
L 102.95424 195.953607 
L 103.31136 193.369668 
L 103.66848 196.16042 
L 104.0256 190.668016 
L 104.38272 193.139149 
L 104.73984 190.553574 
L 105.09696 194.828805 
L 105.45408 188.782991 
L 105.8112 192.160669 
L 106.16832 189.910246 
L 106.52544 185.303134 
L 106.88256 190.13913 
L 107.23968 183.921654 
L 107.5968 186.734478 
L 107.95392 181.546163 
L 108.31104 181.708016 
L 108.66816 182.333361 
L 109.02528 184.452992 
L 109.3824 184.614029 
L 109.73952 178.906637 
L 110.09664 178.42271 
L 110.45376 177.137689 
L 110.81088 181.824093 
L 111.168 174.069005 
L 111.52512 177.772843 
L 112.59648 173.110144 
L 112.9536 172.310684 
L 113.31072 174.162194 
L 113.66784 175.05893 
L 114.02496 175.254299 
L 114.38208 174.615875 
L 114.7392 168.073874 
L 115.09632 168.230005 
L 115.45344 169.168431 
L 115.81056 163.823166 
L 116.16768 168.002756 
L 116.5248 168.240632 
L 116.88192 164.88993 
L 117.23904 165.045245 
L 117.59616 158.962646 
L 117.95328 163.386652 
L 118.3104 164.535977 
L 118.66752 164.005456 
L 119.02464 157.563183 
L 119.38176 157.42994 
L 119.73888 158.339754 
L 120.096 156.285518 
L 120.45312 153.047624 
L 120.81024 158.270272 
L 121.16736 151.583583 
L 121.52448 151.948162 
L 121.8816 155.85963 
L 122.23872 149.6209 
L 122.59584 151.893394 
L 122.95296 156.14737 
L 123.31008 146.190089 
L 123.6672 153.388498 
L 124.02432 148.34814 
L 124.38144 149.436158 
L 124.73856 152.867787 
L 125.09568 149.36831 
L 125.4528 142.55737 
L 125.80992 144.141575 
L 126.16704 141.301776 
L 126.52416 141.665539 
L 126.88128 144.139123 
L 127.2384 147.416255 
L 127.59552 141.045099 
L 127.95264 145.010518 
L 128.30976 143.936397 
L 128.66688 134.695196 
L 129.024 139.811576 
L 129.38112 142.905601 
L 129.73824 140.905316 
L 130.45248 130.145305 
L 130.8096 132.604176 
L 131.16672 128.48099 
L 131.52384 138.469334 
L 131.88096 134.957596 
L 132.23808 128.166274 
L 132.5952 133.165759 
L 132.95232 135.347516 
L 133.30944 123.472512 
L 133.66656 131.164657 
L 134.02368 128.393523 
L 134.3808 132.813441 
L 134.73792 130.977463 
L 135.09504 126.326208 
L 135.45216 125.692689 
L 135.80928 124.158348 
L 136.52352 118.741966 
L 136.88064 120.060503 
L 137.23776 119.521807 
L 137.59488 122.971419 
L 137.952 117.086642 
L 138.30912 118.230246 
L 138.66624 113.259371 
L 139.02336 120.151239 
L 139.38048 117.006533 
L 139.7376 111.314673 
L 140.09472 120.27876 
L 140.45184 113.808693 
L 140.80896 110.222568 
L 141.16608 110.816032 
L 141.5232 107.764515 
L 141.88032 115.956118 
L 142.23744 103.977298 
L 142.59456 114.346571 
L 142.95168 110.573251 
L 143.3088 110.963989 
L 143.66592 104.38602 
L 144.02304 102.495273 
L 144.38016 102.626881 
L 144.73728 106.898025 
L 145.0944 100.990359 
L 145.45152 99.433129 
L 145.80864 104.950874 
L 146.16576 95.094138 
L 146.52288 102.205081 
L 146.88 97.791702 
L 147.23712 98.492251 
L 147.59424 104.293649 
L 147.95136 98.377809 
L 148.30848 102.115979 
L 148.6656 87.912896 
L 149.02272 93.790315 
L 149.37984 96.808317 
L 149.73696 96.903141 
L 150.09408 92.069597 
L 150.4512 84.5859 
L 150.80832 91.328993 
L 151.16544 92.462787 
L 151.52256 88.193279 
L 151.87968 89.109633 
L 152.2368 92.312377 
L 152.59392 92.791399 
L 152.95104 79.559439 
L 153.66528 89.711272 
L 154.0224 90.688934 
L 154.37952 87.539324 
L 154.73664 89.010722 
L 155.09376 86.264929 
L 155.45088 75.320176 
L 155.808 74.230523 
L 156.16512 70.879822 
L 156.52224 75.262137 
L 156.87936 81.797599 
L 157.23648 73.187465 
L 157.5936 83.234665 
L 157.95072 72.328332 
L 158.30784 81.536018 
L 158.66496 67.819313 
L 159.02208 72.407624 
L 159.3792 64.019835 
L 159.73632 75.069221 
L 160.09344 64.525015 
L 160.45056 71.874651 
L 160.80768 76.139254 
L 161.1648 71.560752 
L 161.52192 69.886628 
L 161.87904 70.846307 
L 162.23616 59.847602 
L 162.59328 69.150929 
L 162.9504 61.98113 
L 163.30752 68.300787 
L 163.66464 55.515151 
L 164.02176 54.619233 
L 164.37888 63.406752 
L 164.736 55.915698 
L 165.09312 57.586553 
L 165.45024 53.568 
L 165.80736 55.694988 
L 166.16448 65.007307 
L 166.5216 66.677344 
L 166.87872 69.867827 
L 167.23584 71.695631 
L 167.59296 60.553874 
L 168.3072 68.635939 
L 169.37856 73.878205 
L 169.73568 77.456974 
L 170.0928 62.963697 
L 170.44992 79.72211 
L 170.80704 70.966471 
L 171.16416 78.298123 
L 171.52128 67.260999 
L 171.8784 68.620408 
L 172.23552 68.479807 
L 172.59264 70.562654 
L 172.94976 68.853379 
L 173.30688 72.146042 
L 173.664 82.422944 
L 174.02112 75.101101 
L 174.37824 86.565748 
L 175.09248 83.880446 
L 175.4496 74.770036 
L 175.80672 87.325971 
L 176.16384 83.441479 
L 176.52096 89.4783 
L 176.87808 79.365705 
L 177.2352 78.783685 
L 177.59232 84.733857 
L 177.94944 85.973102 
L 178.30656 79.510392 
L 178.66368 90.768226 
L 179.0208 84.859743 
L 179.73504 95.748093 
L 180.09216 89.576393 
L 180.44928 94.44427 
L 180.8064 84.280993 
L 181.52064 91.202289 
L 181.87776 91.436078 
L 182.23488 97.984619 
L 182.592 90.178849 
L 182.94912 87.200902 
L 183.30624 96.178068 
L 183.66336 89.640154 
L 184.02048 101.585458 
L 184.3776 98.971273 
L 184.73472 99.395527 
L 185.09184 102.7168 
L 185.44896 94.583236 
L 185.80608 100.954392 
L 186.1632 96.4045 
L 186.52032 99.911334 
L 186.87744 106.002106 
L 187.23456 106.979769 
L 187.59168 102.039139 
L 187.9488 104.320625 
L 188.30592 95.403132 
L 188.66304 106.293116 
L 189.02016 97.78271 
L 189.37728 105.759326 
L 189.7344 106.844891 
L 190.09152 101.539681 
L 190.44864 102.976747 
L 190.80576 103.370755 
L 191.16288 103.376477 
L 191.52 102.023608 
L 191.87712 113.031304 
L 192.23424 103.190918 
L 192.59136 107.148162 
L 192.94848 108.720924 
L 193.3056 105.487117 
L 193.66272 114.138941 
L 194.01984 115.451755 
L 194.37696 106.296386 
L 194.73408 109.996136 
L 195.0912 117.315527 
L 195.44832 107.492306 
L 195.80544 111.693149 
L 196.16256 108.120103 
L 196.51968 108.59095 
L 196.8768 116.902718 
L 197.23392 118.757497 
L 197.59104 121.482854 
L 197.94816 120.814186 
L 198.30528 109.587414 
L 198.6624 121.181218 
L 199.01952 112.2204 
L 199.37664 121.219638 
L 199.73376 116.638683 
L 200.09088 123.671969 
L 200.448 117.176561 
L 201.16224 124.178784 
L 201.51936 119.238154 
L 201.87648 117.114436 
L 202.2336 121.409285 
L 202.59072 118.961041 
L 202.94784 123.875512 
L 203.30496 119.968949 
L 203.66208 125.373886 
L 204.0192 122.185856 
L 204.37632 123.698944 
L 204.73344 126.967901 
L 205.09056 118.250682 
L 205.44768 126.442285 
L 205.8048 130.599804 
L 206.16192 131.628965 
L 206.51904 129.566555 
L 206.87616 120.441431 
L 207.23328 124.044723 
L 207.5904 122.860247 
L 207.94752 128.507965 
L 208.30464 124.158348 
L 208.66176 128.546385 
L 209.01888 126.18479 
L 209.376 133.188648 
L 209.73312 133.039873 
L 210.09024 130.249938 
L 210.44736 132.0336 
L 210.80448 130.436315 
L 211.1616 130.893266 
L 211.51872 127.728124 
L 211.87584 130.956209 
L 212.23296 131.884825 
L 212.59008 128.44257 
L 212.9472 129.325409 
L 213.30432 139.063615 
L 213.66144 133.035786 
L 214.01856 132.879654 
L 214.37568 136.888398 
L 214.7328 135.214273 
L 215.08992 135.147243 
L 215.44704 134.882391 
L 215.80416 141.082701 
L 216.16128 132.512622 
L 216.5184 142.035023 
L 217.23264 138.669608 
L 217.58976 141.435019 
L 217.94688 136.687307 
L 218.304 143.805606 
L 218.66112 141.14074 
L 219.01824 140.834198 
L 219.37536 142.439658 
L 219.73248 139.454353 
L 220.0896 145.028502 
L 220.44672 143.395249 
L 220.80384 143.751655 
L 221.16096 144.624685 
L 221.51808 146.088726 
L 221.8752 142.787889 
L 222.23232 146.248128 
L 222.58944 145.737225 
L 222.94656 146.306984 
L 223.30368 138.716202 
L 223.6608 146.486821 
L 224.01792 144.874005 
L 224.37504 140.974799 
L 224.73216 149.779484 
L 225.08928 149.664225 
L 225.4464 142.491974 
L 225.80352 145.398804 
L 226.16064 150.082756 
L 226.51776 143.630673 
L 226.87488 146.332324 
L 227.232 146.105893 
L 227.58912 151.830451 
L 227.94624 148.916264 
L 228.30336 144.634494 
L 228.66048 143.09116 
L 229.0176 150.587936 
L 229.37472 146.094448 
L 229.73184 149.73943 
L 230.08896 147.889555 
L 230.44608 154.792866 
L 230.8032 145.899897 
L 231.16032 145.711067 
L 231.51744 149.933164 
L 231.87456 150.242975 
L 232.23168 155.754998 
L 232.5888 154.160165 
L 232.94592 150.06559 
L 233.30304 156.569989 
L 233.66016 147.472658 
L 234.01728 149.76477 
L 234.3744 154.743002 
L 234.73152 155.53674 
L 235.08864 151.892576 
L 235.44576 156.443285 
L 235.80288 150.851153 
L 236.16 151.90402 
L 236.51712 153.641906 
L 236.87424 151.135623 
L 237.23136 154.444635 
L 237.58848 152.018463 
L 237.9456 152.20157 
L 238.30272 156.893697 
L 238.65984 153.847084 
L 239.01696 153.275691 
L 239.7312 156.290423 
L 240.08832 153.409752 
L 240.44544 153.587954 
L 240.80256 157.661276 
L 241.15968 157.89016 
L 241.5168 154.008938 
L 242.23104 160.357205 
L 242.58816 158.620955 
L 242.94528 163.758588 
L 243.3024 163.260765 
L 243.65952 161.805716 
L 244.01664 163.651503 
L 244.37376 160.380094 
L 244.73088 160.511702 
L 245.088 161.299718 
L 245.44512 159.23649 
L 245.80224 163.66867 
L 246.51648 158.971638 
L 246.8736 160.066195 
L 247.94496 165.847974 
L 248.30208 164.549056 
L 248.6592 166.941714 
L 249.01632 167.625097 
L 249.37344 166.944166 
L 250.08768 169.086686 
L 250.80192 167.347984 
L 251.15904 162.25531 
L 251.51616 162.227516 
L 251.87328 164.159136 
L 252.2304 168.275782 
L 252.58752 170.528657 
L 252.94464 167.557249 
L 253.30176 169.671158 
L 253.65888 166.140619 
L 254.016 170.81558 
L 254.37312 171.221032 
L 254.73024 169.898408 
L 255.44448 166.524818 
L 255.8016 167.445259 
L 256.15872 167.334087 
L 256.51584 171.54147 
L 256.87296 166.070319 
L 257.23008 172.890252 
L 257.5872 171.492423 
L 257.94432 167.90548 
L 258.30144 168.115563 
L 258.65856 166.513374 
L 259.01568 168.524285 
L 259.3728 168.56761 
L 259.72992 171.677983 
L 260.08704 171.288879 
L 260.44416 170.366803 
L 260.80128 169.755355 
L 261.1584 170.718304 
L 261.51552 176.115067 
L 261.87264 169.590232 
L 262.22976 169.892686 
L 262.58688 173.118318 
L 262.944 170.529474 
L 263.30112 172.18725 
L 263.65824 171.420488 
L 264.01536 177.222703 
L 264.37248 178.086741 
L 264.7296 172.846927 
L 265.08672 176.029235 
L 265.44384 169.953177 
L 265.80096 172.978536 
L 266.15808 177.837421 
L 266.5152 171.631388 
L 266.87232 175.63114 
L 267.22944 173.836851 
L 267.58656 176.769022 
L 267.94368 172.346652 
L 268.65792 179.466586 
L 269.01504 174.28808 
L 269.37216 174.5889 
L 269.72928 175.1325 
L 270.0864 173.214777 
L 270.44352 174.76138 
L 270.80064 179.554052 
L 271.15776 174.29789 
L 271.51488 173.864644 
L 271.872 180.17204 
L 272.22912 176.234414 
L 272.58624 181.481585 
L 272.94336 174.54067 
L 273.30048 174.886449 
L 273.6576 176.543407 
L 274.01472 181.031991 
L 274.37184 175.885365 
L 274.72896 175.457025 
L 275.08608 178.521621 
L 275.4432 176.28346 
L 275.80032 181.148885 
L 276.15744 177.912625 
L 276.51456 183.852171 
L 276.87168 177.601997 
L 277.2288 182.30802 
L 277.58592 184.115388 
L 277.94304 177.227608 
L 278.30016 180.920001 
L 278.65728 179.899831 
L 279.0144 179.43961 
L 279.37152 182.248347 
L 280.08576 178.39083 
L 280.44288 182.012923 
L 280.8 184.41212 
L 281.15712 185.676705 
L 281.51424 179.80746 
L 281.87136 183.700127 
L 282.22848 182.142896 
L 282.94272 187.581349 
L 283.29984 181.828998 
L 283.65696 187.0214 
L 284.01408 186.397691 
L 284.3712 180.918366 
L 284.72832 187.512684 
L 285.08544 184.80531 
L 285.44256 183.438545 
L 285.79968 186.5481 
L 286.1568 181.963876 
L 286.51392 186.015127 
L 286.87104 182.608839 
L 287.22816 184.908308 
L 287.58528 185.449456 
L 287.9424 186.291423 
L 288.29952 188.462553 
L 288.65664 187.13339 
L 289.01376 183.446719 
L 289.37088 187.730941 
L 289.728 190.267469 
L 290.08512 183.499853 
L 290.44224 184.668797 
L 290.79936 189.176999 
L 291.15648 186.009405 
L 291.5136 190.282183 
L 291.87072 188.14375 
L 292.22784 189.311877 
L 292.58496 191.837778 
L 292.94208 184.829834 
L 293.2992 188.814872 
L 293.65632 189.615966 
L 294.01344 186.424666 
L 294.72768 191.021152 
L 295.0848 187.910779 
L 295.44192 187.578897 
L 295.79904 190.683548 
L 296.15616 187.465272 
L 296.51328 188.066093 
L 296.8704 187.528215 
L 297.58464 194.128255 
L 297.94176 194.06613 
L 298.29888 193.056587 
L 298.656 191.088182 
L 299.01312 191.754399 
L 299.37024 189.299616 
L 299.72736 191.455215 
L 300.08448 188.970186 
L 300.4416 191.755216 
L 300.79872 188.339937 
L 301.15584 193.625528 
L 301.51296 192.61435 
L 301.87008 190.914067 
L 302.2272 192.984652 
L 302.58432 194.38902 
L 302.94144 194.380028 
L 303.29856 191.518975 
L 303.65568 196.543801 
L 304.0128 196.390122 
L 304.72704 194.684117 
L 305.08416 197.127456 
L 305.44128 190.918154 
L 305.7984 197.53863 
L 306.51264 191.149491 
L 306.86976 195.97813 
L 307.22688 195.606194 
L 307.584 198.52365 
L 307.94112 191.852492 
L 308.29824 191.796089 
L 308.65536 195.599654 
L 309.01248 191.961212 
L 309.3696 197.331817 
L 309.72672 199.084416 
L 310.08384 198.201577 
L 310.44096 194.295831 
L 310.79808 192.710808 
L 311.1552 199.471885 
L 311.51232 198.231823 
L 311.86944 194.818178 
L 312.22656 196.679497 
L 312.58368 197.915472 
L 312.9408 193.399913 
L 313.29792 197.665334 
L 313.65504 196.717917 
L 314.01216 194.662046 
L 314.36928 199.136733 
L 314.7264 195.77377 
L 315.08352 196.93454 
L 315.44064 199.297769 
L 315.79776 198.598855 
L 316.15488 194.821448 
L 316.512 195.557964 
L 316.86912 198.079778 
L 317.22624 197.371872 
L 317.58336 197.408657 
L 317.94048 196.279767 
L 318.2976 196.078676 
L 318.65472 196.765329 
L 319.01184 202.599424 
L 319.36896 201.477074 
L 320.0832 202.050102 
L 320.44032 201.317672 
L 320.79744 202.934576 
L 321.15456 202.956647 
L 321.51168 197.890949 
L 321.8688 199.269976 
L 322.22592 203.362099 
L 322.58304 198.808938 
L 322.94016 203.168365 
L 323.29728 199.576517 
L 323.6544 198.158253 
L 324.01152 199.110575 
L 324.36864 202.171084 
L 324.72576 200.568894 
L 325.08288 203.151199 
L 325.44 199.484964 
L 325.79712 199.442457 
L 326.15424 204.823688 
L 326.51136 202.524219 
L 326.86848 203.60488 
L 327.2256 199.218477 
L 327.58272 203.897525 
L 327.93984 202.713049 
L 328.29696 205.187451 
L 328.65408 202.308414 
L 329.36832 203.895072 
L 329.72544 202.509505 
L 330.08256 199.89859 
L 330.43968 202.202147 
L 330.7968 203.651474 
L 331.15392 201.358545 
L 331.51104 201.905414 
L 331.86816 201.384703 
L 332.22528 206.604081 
L 332.5824 202.092609 
L 332.93952 207.110896 
L 333.29664 204.424776 
L 333.65376 204.043847 
L 334.01088 206.365387 
L 334.368 207.843325 
L 334.72512 201.665903 
L 335.08224 203.292616 
L 335.43936 207.939784 
L 335.79648 207.675749 
L 336.1536 207.030786 
L 336.51072 204.579273 
L 336.86784 204.420689 
L 337.22496 204.038125 
L 337.58208 208.14251 
L 337.9392 204.082267 
L 338.29632 208.4654 
L 338.65344 207.33324 
L 339.01056 205.714702 
L 339.36768 207.898094 
L 339.7248 204.51633 
L 340.08192 207.138689 
L 340.43904 206.581192 
L 340.79616 203.752837 
L 341.15328 206.606533 
L 341.5104 203.99807 
L 341.86752 207.614441 
L 342.22464 205.896992 
L 342.58176 208.171938 
L 342.93888 205.878191 
L 343.296 205.115516 
L 343.65312 207.981473 
L 344.01024 207.16076 
L 344.36736 205.597807 
L 344.72448 208.63788 
L 345.0816 206.315523 
L 345.43872 209.992385 
L 346.15296 206.993184 
L 346.51008 208.447416 
L 346.8672 206.444679 
L 347.22432 211.045252 
L 347.58144 210.832717 
L 347.93856 205.933777 
L 348.29568 209.290201 
L 348.6528 208.050956 
L 349.00992 211.100021 
L 349.36704 211.002745 
L 349.72416 210.408463 
L 350.08128 210.984761 
L 350.4384 208.513629 
L 351.15264 211.727818 
L 351.50976 212.425097 
L 351.86688 209.496196 
L 352.224 212.385042 
L 352.58112 211.564329 
L 352.93824 207.955315 
L 353.29536 213.559709 
L 353.65248 211.510378 
L 354.0096 208.255317 
L 354.36672 207.754224 
L 354.72384 213.214748 
L 355.08096 209.988297 
L 355.43808 210.177944 
L 355.7952 212.16842 
L 356.15232 211.960789 
L 356.50944 212.062152 
L 356.86656 208.659134 
L 357.22368 214.656718 
L 357.93792 211.911742 
L 358.29504 214.947728 
L 358.65216 209.649876 
L 359.3664 212.054795 
L 359.72352 210.450153 
L 360.08064 214.08369 
L 360.43776 213.889139 
L 360.79488 210.826177 
L 361.152 213.677421 
L 361.50912 212.400574 
L 361.86624 213.997859 
L 362.58048 215.31803 
L 362.9376 211.088577 
L 363.29472 212.691584 
L 363.65184 211.593757 
L 364.00896 213.390498 
L 364.36608 213.450989 
L 364.7232 216.48207 
L 365.08032 213.374149 
L 365.79456 211.185852 
L 366.15168 214.37797 
L 366.5088 211.465418 
L 366.86592 211.968146 
L 367.22304 211.714738 
L 367.58016 216.914498 
L 367.93728 213.550717 
L 368.2944 212.764336 
L 368.65152 217.448288 
L 369.00864 214.96326 
L 369.36576 214.738463 
L 369.72288 216.604686 
L 370.08 214.347724 
L 370.43712 213.794315 
L 370.79424 217.488343 
L 371.15136 215.566533 
L 371.50848 212.722646 
L 371.8656 213.373332 
L 372.22272 216.255638 
L 372.57984 215.056448 
L 373.29408 218.519957 
L 373.6512 215.1807 
L 374.00832 213.929193 
L 374.36544 215.49705 
L 374.72256 214.538189 
L 375.07968 214.571704 
L 375.79392 217.518588 
L 376.15104 214.979608 
L 376.50816 217.884803 
L 376.86528 217.476899 
L 377.2224 216.385612 
L 377.57952 219.41751 
L 377.93664 219.359472 
L 378.29376 217.535755 
L 378.65088 214.661623 
L 379.008 215.931113 
L 379.36512 218.083442 
L 379.72224 215.90332 
L 380.07936 217.618317 
L 380.43648 215.546097 
L 380.7936 217.183437 
L 381.15072 215.479884 
L 381.50784 218.646661 
L 381.86496 217.574992 
L 382.22208 218.245296 
L 382.5792 219.836041 
L 382.93632 218.303334 
L 383.29344 218.25347 
L 383.65056 220.583185 
L 384.00768 220.530868 
L 384.3648 217.507144 
L 384.72192 220.910162 
L 385.43616 216.917767 
L 385.79328 216.44365 
L 386.1504 217.806329 
L 386.50752 217.321585 
L 386.86464 217.094335 
L 387.22176 217.107414 
L 387.57888 219.45593 
L 387.936 220.112337 
L 388.29312 219.710972 
L 388.65024 221.404716 
L 389.00736 218.044205 
L 389.7216 222.03333 
L 390.07872 221.239592 
L 390.43584 221.933602 
L 390.79296 218.364643 
L 391.15008 221.094087 
L 391.86432 218.98263 
L 392.22144 221.857579 
L 392.57856 217.989436 
L 393.2928 219.432224 
L 394.00704 222.706086 
L 394.36416 222.587557 
L 394.72128 221.885373 
L 395.0784 223.495737 
L 395.43552 223.812087 
L 395.79264 223.947783 
L 396.50688 219.894897 
L 396.864 222.409354 
L 397.22112 223.5971 
L 397.57824 224.398194 
L 397.93536 221.663845 
L 398.29248 221.9148 
L 398.6496 223.400096 
L 399.00672 223.998464 
L 399.36384 222.675023 
L 399.72096 220.268469 
L 400.07808 222.812354 
L 400.4352 220.695175 
L 400.79232 223.908546 
L 401.14944 220.43441 
L 401.86368 221.99164 
L 402.2208 224.000099 
L 402.57792 221.910713 
L 402.93504 222.908812 
L 403.29216 220.713158 
L 403.64928 222.449409 
L 404.0064 225.657875 
L 404.36352 221.12188 
L 404.72064 223.784294 
L 405.07776 224.605008 
L 405.43488 225.106918 
L 405.792 221.398176 
L 406.14912 224.978579 
L 406.50624 226.090303 
L 406.86336 225.603924 
L 407.22048 222.766577 
L 407.5776 223.261948 
L 408.29184 223.568489 
L 408.64896 225.329263 
L 409.00608 222.643143 
L 409.3632 224.233888 
L 409.72032 224.761139 
L 410.07744 223.785112 
L 410.43456 224.358957 
L 411.50592 226.961698 
L 411.86304 223.906911 
L 412.22016 224.420265 
L 412.57728 225.932536 
L 412.9344 224.916454 
L 413.29152 224.408821 
L 413.64864 226.929817 
L 414.00576 226.013463 
L 414.36288 227.145622 
L 414.72 226.606927 
L 414.72 226.606927 
" style="fill:none;stroke:#000080;stroke-linecap:square;stroke-width:0.5;"/>
   </g>
   <g id="patch_3">
    <path d="M 57.6 307.584 
L 57.6 41.472 
" style="fill:none;stroke:#000000;stroke-linecap:square;stroke-linejoin:miter;stroke-width:0.8;"/>
   </g>
   <g id="patch_4">
    <path d="M 414.72 307.584 
L 414.72 41.472 
" style="fill:none;stroke:#000000;stroke-linecap:square;stroke-linejoin:miter;stroke-width:0.8;"/>
   </g>
   <g id="patch_5">
    <path d="M 57.6 307.584 
L 414.72 307.584 
" style="fill:none;stroke:#000000;stroke-linecap:square;stroke-linejoin:miter;stroke-width:0.8;"/>
   </g>
   <g id="patch_6">
    <path d="M 57.6 41.472 
L 414.72 41.472 
" style="fill:none;stroke:#000000;stroke-linecap:square;stroke-linejoin:miter;stroke-width:0.8;"/>
   </g>
   <g id="text_16">
    <!-- Test -->
    <defs>
     <path d="M -0.296875 72.90625 
L 61.375 72.90625 
L 61.375 64.59375 
L 35.5 64.59375 
L 35.5 0 
L 25.59375 0 
L 25.59375 64.59375 
L -0.296875 64.59375 
z
" id="DejaVuSans-54"/>
    </defs>
    <g transform="translate(223.341563 35.472)scale(0.12 -0.12)">
     <use xlink:href="#DejaVuSans-54"/>
     <use x="60.818359" xlink:href="#DejaVuSans-65"/>
     <use x="122.341797" xlink:href="#DejaVuSans-73"/>
     <use x="174.441406" xlink:href="#DejaVuSans-74"/>
    </g>
   </g>
   <g id="legend_1">
    <g id="patch_7">
     <path d="M 166.043437 302.584 
L 407.72 302.584 
Q 409.72 302.584 409.72 300.584 
L 409.72 286.905875 
Q 409.72 284.905875 407.72 284.905875 
L 166.043437 284.905875 
Q 164.043437 284.905875 164.043437 286.905875 
L 164.043437 300.584 
Q 164.043437 302.584 166.043437 302.584 
z
" style="fill:#ffffff;opacity:0.8;stroke:#cccccc;stroke-linejoin:miter;"/>
    </g>
    <g id="line2d_28">
     <path d="M 168.043437 293.004312 
L 188.043437 293.004312 
" style="fill:none;stroke:#000080;stroke-linecap:square;stroke-width:0.5;"/>
    </g>
    <g id="line2d_29"/>
    <g id="text_17">
     <!-- Successful download requests per second -->
     <g transform="translate(196.043437 296.504312)scale(0.1 -0.1)">
      <use xlink:href="#DejaVuSans-53"/>
      <use x="63.476562" xlink:href="#DejaVuSans-75"/>
      <use x="126.855469" xlink:href="#DejaVuSans-63"/>
      <use x="181.835938" xlink:href="#DejaVuSans-63"/>
      <use x="236.816406" xlink:href="#DejaVuSans-65"/>
      <use x="298.339844" xlink:href="#DejaVuSans-73"/>
      <use x="350.439453" xlink:href="#DejaVuSans-73"/>
      <use x="402.539062" xlink:href="#DejaVuSans-66"/>
      <use x="437.744141" xlink:href="#DejaVuSans-75"/>
      <use x="501.123047" xlink:href="#DejaVuSans-6c"/>
      <use x="528.90625" xlink:href="#DejaVuSans-20"/>
      <use x="560.693359" xlink:href="#DejaVuSans-64"/>
      <use x="624.169922" xlink:href="#DejaVuSans-6f"/>
      <use x="685.351562" xlink:href="#DejaVuSans-77"/>
      <use x="767.138672" xlink:href="#DejaVuSans-6e"/>
      <use x="830.517578" xlink:href="#DejaVuSans-6c"/>
      <use x="858.300781" xlink:href="#DejaVuSans-6f"/>
      <use x="919.482422" xlink:href="#DejaVuSans-61"/>
      <use x="980.761719" xlink:href="#DejaVuSans-64"/>
      <use x="1044.238281" xlink:href="#DejaVuSans-20"/>
      <use x="1076.025391" xlink:href="#DejaVuSans-72"/>
      <use x="1117.107422" xlink:href="#DejaVuSans-65"/>
      <use x="1178.630859" xlink:href="#DejaVuSans-71"/>
      <use x="1242.107422" xlink:href="#DejaVuSans-75"/>
      <use x="1305.486328" xlink:href="#DejaVuSans-65"/>
      <use x="1367.009766" xlink:href="#DejaVuSans-73"/>
      <use x="1419.109375" xlink:href="#DejaVuSans-74"/>
      <use x="1458.318359" xlink:href="#DejaVuSans-73"/>
      <use x="1510.417969" xlink:href="#DejaVuSans-20"/>
      <use x="1542.205078" xlink:href="#DejaVuSans-70"/>
      <use x="1605.681641" xlink:href="#DejaVuSans-65"/>
      <use x="1667.205078" xlink:href="#DejaVuSans-72"/>
      <use x="1708.318359" xlink:href="#DejaVuSans-20"/>
      <use x="1740.105469" xlink:href="#DejaVuSans-73"/>
      <use x="1792.205078" xlink:href="#DejaVuSans-65"/>
      <use x="1853.728516" xlink:href="#DejaVuSans-63"/>
      <use x="1908.708984" xlink:href="#DejaVuSans-6f"/>
      <use x="1969.890625" xlink:href="#DejaVuSans-6e"/>
      <use x="2033.269531" xlink:href="#DejaVuSans-64"/>
     </g>
    </g>
   </g>
  </g>
 </g>
 <defs>
  <clipPath id="pdc53604245">
   <rect height="266.112" width="357.12" x="57.6" y="41.472"/>
  </clipPath>
 </defs>
</svg>
