<?xml version="1.0" encoding="utf-8" standalone="no"?>
<!DOCTYPE svg PUBLIC "-//W3C//DTD SVG 1.1//EN"
  "http://www.w3.org/Graphics/SVG/1.1/DTD/svg11.dtd">
<!-- Created with matplotlib (http://matplotlib.org/) -->
<svg height="345pt" version="1.1" viewBox="0 0 460 345" width="460pt" xmlns="http://www.w3.org/2000/svg" xmlns:xlink="http://www.w3.org/1999/xlink">
 <defs>
  <style type="text/css">
*{stroke-linecap:butt;stroke-linejoin:round;}
  </style>
 </defs>
 <g id="figure_1">
  <g id="patch_1">
   <path d="M 0 345.6 
L 460.8 345.6 
L 460.8 0 
L 0 0 
z
" style="fill:#ffffff;"/>
  </g>
  <g id="axes_1">
   <g id="patch_2">
    <path d="M 57.6 307.584 
L 414.72 307.584 
L 414.72 41.472 
L 57.6 41.472 
z
" style="fill:#ffffff;"/>
   </g>
   <g id="matplotlib.axis_1">
    <g id="xtick_1">
     <g id="line2d_1">
      <path clip-path="url(#pa26e382dc9)" d="M 57.6 307.584 
L 57.6 41.472 
" style="fill:none;stroke:#b0b0b0;stroke-linecap:square;stroke-width:0.8;"/>
     </g>
     <g id="line2d_2">
      <defs>
       <path d="M 0 0 
L 0 3.5 
" id="m5c917ebec8" style="stroke:#000000;stroke-width:0.8;"/>
      </defs>
      <g>
       <use style="stroke:#000000;stroke-width:0.8;" x="57.6" xlink:href="#m5c917ebec8" y="307.584"/>
      </g>
     </g>
     <g id="text_1">
      <!-- 0 -->
      <defs>
       <path d="M 31.78125 66.40625 
Q 24.171875 66.40625 20.328125 58.90625 
Q 16.5 51.421875 16.5 36.375 
Q 16.5 21.390625 20.328125 13.890625 
Q 24.171875 6.390625 31.78125 6.390625 
Q 39.453125 6.390625 43.28125 13.890625 
Q 47.125 21.390625 47.125 36.375 
Q 47.125 51.421875 43.28125 58.90625 
Q 39.453125 66.40625 31.78125 66.40625 
M 31.78125 74.21875 
Q 44.046875 74.21875 50.515625 64.515625 
Q 56.984375 54.828125 56.984375 36.375 
Q 56.984375 17.96875 50.515625 8.265625 
Q 44.046875 -1.421875 31.78125 -1.421875 
Q 19.53125 -1.421875 13.0625 8.265625 
Q 6.59375 17.96875 6.59375 36.375 
Q 6.59375 54.828125 13.0625 64.515625 
Q 19.53125 74.21875 31.78125 74.21875 
" id="DejaVuSans-30"/>
      </defs>
      <g transform="translate(54.41875 322.182437)scale(0.1 -0.1)">
       <use xlink:href="#DejaVuSans-30"/>
      </g>
     </g>
    </g>
    <g id="xtick_2">
     <g id="line2d_3">
      <path clip-path="url(#pa26e382dc9)" d="M 129.024 307.584 
L 129.024 41.472 
" style="fill:none;stroke:#b0b0b0;stroke-linecap:square;stroke-width:0.8;"/>
     </g>
     <g id="line2d_4">
      <g>
       <use style="stroke:#000000;stroke-width:0.8;" x="129.024" xlink:href="#m5c917ebec8" y="307.584"/>
      </g>
     </g>
     <g id="text_2">
      <!-- 200 -->
      <defs>
       <path d="M 19.1875 8.296875 
L 53.609375 8.296875 
L 53.609375 0 
L 7.328125 0 
L 7.328125 8.296875 
Q 12.9375 14.109375 22.625 23.890625 
Q 32.328125 33.6875 34.8125 36.53125 
Q 39.546875 41.84375 41.421875 45.53125 
Q 43.3125 49.21875 43.3125 52.78125 
Q 43.3125 58.59375 39.234375 62.25 
Q 35.15625 65.921875 28.609375 65.921875 
Q 23.96875 65.921875 18.8125 64.3125 
Q 13.671875 62.703125 7.8125 59.421875 
L 7.8125 69.390625 
Q 13.765625 71.78125 18.9375 73 
Q 24.125 74.21875 28.421875 74.21875 
Q 39.75 74.21875 46.484375 68.546875 
Q 53.21875 62.890625 53.21875 53.421875 
Q 53.21875 48.921875 51.53125 44.890625 
Q 49.859375 40.875 45.40625 35.40625 
Q 44.1875 33.984375 37.640625 27.21875 
Q 31.109375 20.453125 19.1875 8.296875 
" id="DejaVuSans-32"/>
      </defs>
      <g transform="translate(119.48025 322.182437)scale(0.1 -0.1)">
       <use xlink:href="#DejaVuSans-32"/>
       <use x="63.623047" xlink:href="#DejaVuSans-30"/>
       <use x="127.246094" xlink:href="#DejaVuSans-30"/>
      </g>
     </g>
    </g>
    <g id="xtick_3">
     <g id="line2d_5">
      <path clip-path="url(#pa26e382dc9)" d="M 200.448 307.584 
L 200.448 41.472 
" style="fill:none;stroke:#b0b0b0;stroke-linecap:square;stroke-width:0.8;"/>
     </g>
     <g id="line2d_6">
      <g>
       <use style="stroke:#000000;stroke-width:0.8;" x="200.448" xlink:href="#m5c917ebec8" y="307.584"/>
      </g>
     </g>
     <g id="text_3">
      <!-- 400 -->
      <defs>
       <path d="M 37.796875 64.3125 
L 12.890625 25.390625 
L 37.796875 25.390625 
z
M 35.203125 72.90625 
L 47.609375 72.90625 
L 47.609375 25.390625 
L 58.015625 25.390625 
L 58.015625 17.1875 
L 47.609375 17.1875 
L 47.609375 0 
L 37.796875 0 
L 37.796875 17.1875 
L 4.890625 17.1875 
L 4.890625 26.703125 
z
" id="DejaVuSans-34"/>
      </defs>
      <g transform="translate(190.90425 322.182437)scale(0.1 -0.1)">
       <use xlink:href="#DejaVuSans-34"/>
       <use x="63.623047" xlink:href="#DejaVuSans-30"/>
       <use x="127.246094" xlink:href="#DejaVuSans-30"/>
      </g>
     </g>
    </g>
    <g id="xtick_4">
     <g id="line2d_7">
      <path clip-path="url(#pa26e382dc9)" d="M 271.872 307.584 
L 271.872 41.472 
" style="fill:none;stroke:#b0b0b0;stroke-linecap:square;stroke-width:0.8;"/>
     </g>
     <g id="line2d_8">
      <g>
       <use style="stroke:#000000;stroke-width:0.8;" x="271.872" xlink:href="#m5c917ebec8" y="307.584"/>
      </g>
     </g>
     <g id="text_4">
      <!-- 600 -->
      <defs>
       <path d="M 33.015625 40.375 
Q 26.375 40.375 22.484375 35.828125 
Q 18.609375 31.296875 18.609375 23.390625 
Q 18.609375 15.53125 22.484375 10.953125 
Q 26.375 6.390625 33.015625 6.390625 
Q 39.65625 6.390625 43.53125 10.953125 
Q 47.40625 15.53125 47.40625 23.390625 
Q 47.40625 31.296875 43.53125 35.828125 
Q 39.65625 40.375 33.015625 40.375 
M 52.59375 71.296875 
L 52.59375 62.3125 
Q 48.875 64.0625 45.09375 64.984375 
Q 41.3125 65.921875 37.59375 65.921875 
Q 27.828125 65.921875 22.671875 59.328125 
Q 17.53125 52.734375 16.796875 39.40625 
Q 19.671875 43.65625 24.015625 45.921875 
Q 28.375 48.1875 33.59375 48.1875 
Q 44.578125 48.1875 50.953125 41.515625 
Q 57.328125 34.859375 57.328125 23.390625 
Q 57.328125 12.15625 50.6875 5.359375 
Q 44.046875 -1.421875 33.015625 -1.421875 
Q 20.359375 -1.421875 13.671875 8.265625 
Q 6.984375 17.96875 6.984375 36.375 
Q 6.984375 53.65625 15.1875 63.9375 
Q 23.390625 74.21875 37.203125 74.21875 
Q 40.921875 74.21875 44.703125 73.484375 
Q 48.484375 72.75 52.59375 71.296875 
" id="DejaVuSans-36"/>
      </defs>
      <g transform="translate(262.32825 322.182437)scale(0.1 -0.1)">
       <use xlink:href="#DejaVuSans-36"/>
       <use x="63.623047" xlink:href="#DejaVuSans-30"/>
       <use x="127.246094" xlink:href="#DejaVuSans-30"/>
      </g>
     </g>
    </g>
    <g id="xtick_5">
     <g id="line2d_9">
      <path clip-path="url(#pa26e382dc9)" d="M 343.296 307.584 
L 343.296 41.472 
" style="fill:none;stroke:#b0b0b0;stroke-linecap:square;stroke-width:0.8;"/>
     </g>
     <g id="line2d_10">
      <g>
       <use style="stroke:#000000;stroke-width:0.8;" x="343.296" xlink:href="#m5c917ebec8" y="307.584"/>
      </g>
     </g>
     <g id="text_5">
      <!-- 800 -->
      <defs>
       <path d="M 31.78125 34.625 
Q 24.75 34.625 20.71875 30.859375 
Q 16.703125 27.09375 16.703125 20.515625 
Q 16.703125 13.921875 20.71875 10.15625 
Q 24.75 6.390625 31.78125 6.390625 
Q 38.8125 6.390625 42.859375 10.171875 
Q 46.921875 13.96875 46.921875 20.515625 
Q 46.921875 27.09375 42.890625 30.859375 
Q 38.875 34.625 31.78125 34.625 
M 21.921875 38.8125 
Q 15.578125 40.375 12.03125 44.71875 
Q 8.5 49.078125 8.5 55.328125 
Q 8.5 64.0625 14.71875 69.140625 
Q 20.953125 74.21875 31.78125 74.21875 
Q 42.671875 74.21875 48.875 69.140625 
Q 55.078125 64.0625 55.078125 55.328125 
Q 55.078125 49.078125 51.53125 44.71875 
Q 48 40.375 41.703125 38.8125 
Q 48.828125 37.15625 52.796875 32.3125 
Q 56.78125 27.484375 56.78125 20.515625 
Q 56.78125 9.90625 50.3125 4.234375 
Q 43.84375 -1.421875 31.78125 -1.421875 
Q 19.734375 -1.421875 13.25 4.234375 
Q 6.78125 9.90625 6.78125 20.515625 
Q 6.78125 27.484375 10.78125 32.3125 
Q 14.796875 37.15625 21.921875 38.8125 
M 18.3125 54.390625 
Q 18.3125 48.734375 21.84375 45.5625 
Q 25.390625 42.390625 31.78125 42.390625 
Q 38.140625 42.390625 41.71875 45.5625 
Q 45.3125 48.734375 45.3125 54.390625 
Q 45.3125 60.0625 41.71875 63.234375 
Q 38.140625 66.40625 31.78125 66.40625 
Q 25.390625 66.40625 21.84375 63.234375 
Q 18.3125 60.0625 18.3125 54.390625 
" id="DejaVuSans-38"/>
      </defs>
      <g transform="translate(333.75225 322.182437)scale(0.1 -0.1)">
       <use xlink:href="#DejaVuSans-38"/>
       <use x="63.623047" xlink:href="#DejaVuSans-30"/>
       <use x="127.246094" xlink:href="#DejaVuSans-30"/>
      </g>
     </g>
    </g>
    <g id="xtick_6">
     <g id="line2d_11">
      <path clip-path="url(#pa26e382dc9)" d="M 414.72 307.584 
L 414.72 41.472 
" style="fill:none;stroke:#b0b0b0;stroke-linecap:square;stroke-width:0.8;"/>
     </g>
     <g id="line2d_12">
      <g>
       <use style="stroke:#000000;stroke-width:0.8;" x="414.72" xlink:href="#m5c917ebec8" y="307.584"/>
      </g>
     </g>
     <g id="text_6">
      <!-- 1000 -->
      <defs>
       <path d="M 12.40625 8.296875 
L 28.515625 8.296875 
L 28.515625 63.921875 
L 10.984375 60.40625 
L 10.984375 69.390625 
L 28.421875 72.90625 
L 38.28125 72.90625 
L 38.28125 8.296875 
L 54.390625 8.296875 
L 54.390625 0 
L 12.40625 0 
z
" id="DejaVuSans-31"/>
      </defs>
      <g transform="translate(401.995 322.182437)scale(0.1 -0.1)">
       <use xlink:href="#DejaVuSans-31"/>
       <use x="63.623047" xlink:href="#DejaVuSans-30"/>
       <use x="127.246094" xlink:href="#DejaVuSans-30"/>
       <use x="190.869141" xlink:href="#DejaVuSans-30"/>
      </g>
     </g>
    </g>
    <g id="text_7">
     <!-- Number of clients -->
     <defs>
      <path d="M 9.8125 72.90625 
L 23.09375 72.90625 
L 55.421875 11.921875 
L 55.421875 72.90625 
L 64.984375 72.90625 
L 64.984375 0 
L 51.703125 0 
L 19.390625 60.984375 
L 19.390625 0 
L 9.8125 0 
z
" id="DejaVuSans-4e"/>
      <path d="M 8.5 21.578125 
L 8.5 54.6875 
L 17.484375 54.6875 
L 17.484375 21.921875 
Q 17.484375 14.15625 20.5 10.265625 
Q 23.53125 6.390625 29.59375 6.390625 
Q 36.859375 6.390625 41.078125 11.03125 
Q 45.3125 15.671875 45.3125 23.6875 
L 45.3125 54.6875 
L 54.296875 54.6875 
L 54.296875 0 
L 45.3125 0 
L 45.3125 8.40625 
Q 42.046875 3.421875 37.71875 1 
Q 33.40625 -1.421875 27.6875 -1.421875 
Q 18.265625 -1.421875 13.375 4.4375 
Q 8.5 10.296875 8.5 21.578125 
M 31.109375 56 
z
" id="DejaVuSans-75"/>
      <path d="M 52 44.1875 
Q 55.375 50.25 60.0625 53.125 
Q 64.75 56 71.09375 56 
Q 79.640625 56 84.28125 50.015625 
Q 88.921875 44.046875 88.921875 33.015625 
L 88.921875 0 
L 79.890625 0 
L 79.890625 32.71875 
Q 79.890625 40.578125 77.09375 44.375 
Q 74.3125 48.1875 68.609375 48.1875 
Q 61.625 48.1875 57.5625 43.546875 
Q 53.515625 38.921875 53.515625 30.90625 
L 53.515625 0 
L 44.484375 0 
L 44.484375 32.71875 
Q 44.484375 40.625 41.703125 44.40625 
Q 38.921875 48.1875 33.109375 48.1875 
Q 26.21875 48.1875 22.15625 43.53125 
Q 18.109375 38.875 18.109375 30.90625 
L 18.109375 0 
L 9.078125 0 
L 9.078125 54.6875 
L 18.109375 54.6875 
L 18.109375 46.1875 
Q 21.1875 51.21875 25.484375 53.609375 
Q 29.78125 56 35.6875 56 
Q 41.65625 56 45.828125 52.96875 
Q 50 49.953125 52 44.1875 
" id="DejaVuSans-6d"/>
      <path d="M 48.6875 27.296875 
Q 48.6875 37.203125 44.609375 42.84375 
Q 40.53125 48.484375 33.40625 48.484375 
Q 26.265625 48.484375 22.1875 42.84375 
Q 18.109375 37.203125 18.109375 27.296875 
Q 18.109375 17.390625 22.1875 11.75 
Q 26.265625 6.109375 33.40625 6.109375 
Q 40.53125 6.109375 44.609375 11.75 
Q 48.6875 17.390625 48.6875 27.296875 
M 18.109375 46.390625 
Q 20.953125 51.265625 25.265625 53.625 
Q 29.59375 56 35.59375 56 
Q 45.5625 56 51.78125 48.09375 
Q 58.015625 40.1875 58.015625 27.296875 
Q 58.015625 14.40625 51.78125 6.484375 
Q 45.5625 -1.421875 35.59375 -1.421875 
Q 29.59375 -1.421875 25.265625 0.953125 
Q 20.953125 3.328125 18.109375 8.203125 
L 18.109375 0 
L 9.078125 0 
L 9.078125 75.984375 
L 18.109375 75.984375 
z
" id="DejaVuSans-62"/>
      <path d="M 56.203125 29.59375 
L 56.203125 25.203125 
L 14.890625 25.203125 
Q 15.484375 15.921875 20.484375 11.0625 
Q 25.484375 6.203125 34.421875 6.203125 
Q 39.59375 6.203125 44.453125 7.46875 
Q 49.3125 8.734375 54.109375 11.28125 
L 54.109375 2.78125 
Q 49.265625 0.734375 44.1875 -0.34375 
Q 39.109375 -1.421875 33.890625 -1.421875 
Q 20.796875 -1.421875 13.15625 6.1875 
Q 5.515625 13.8125 5.515625 26.8125 
Q 5.515625 40.234375 12.765625 48.109375 
Q 20.015625 56 32.328125 56 
Q 43.359375 56 49.78125 48.890625 
Q 56.203125 41.796875 56.203125 29.59375 
M 47.21875 32.234375 
Q 47.125 39.59375 43.09375 43.984375 
Q 39.0625 48.390625 32.421875 48.390625 
Q 24.90625 48.390625 20.390625 44.140625 
Q 15.875 39.890625 15.1875 32.171875 
z
" id="DejaVuSans-65"/>
      <path d="M 41.109375 46.296875 
Q 39.59375 47.171875 37.8125 47.578125 
Q 36.03125 48 33.890625 48 
Q 26.265625 48 22.1875 43.046875 
Q 18.109375 38.09375 18.109375 28.8125 
L 18.109375 0 
L 9.078125 0 
L 9.078125 54.6875 
L 18.109375 54.6875 
L 18.109375 46.1875 
Q 20.953125 51.171875 25.484375 53.578125 
Q 30.03125 56 36.53125 56 
Q 37.453125 56 38.578125 55.875 
Q 39.703125 55.765625 41.0625 55.515625 
z
" id="DejaVuSans-72"/>
      <path id="DejaVuSans-20"/>
      <path d="M 30.609375 48.390625 
Q 23.390625 48.390625 19.1875 42.75 
Q 14.984375 37.109375 14.984375 27.296875 
Q 14.984375 17.484375 19.15625 11.84375 
Q 23.34375 6.203125 30.609375 6.203125 
Q 37.796875 6.203125 41.984375 11.859375 
Q 46.1875 17.53125 46.1875 27.296875 
Q 46.1875 37.015625 41.984375 42.703125 
Q 37.796875 48.390625 30.609375 48.390625 
M 30.609375 56 
Q 42.328125 56 49.015625 48.375 
Q 55.71875 40.765625 55.71875 27.296875 
Q 55.71875 13.875 49.015625 6.21875 
Q 42.328125 -1.421875 30.609375 -1.421875 
Q 18.84375 -1.421875 12.171875 6.21875 
Q 5.515625 13.875 5.515625 27.296875 
Q 5.515625 40.765625 12.171875 48.375 
Q 18.84375 56 30.609375 56 
" id="DejaVuSans-6f"/>
      <path d="M 37.109375 75.984375 
L 37.109375 68.5 
L 28.515625 68.5 
Q 23.6875 68.5 21.796875 66.546875 
Q 19.921875 64.59375 19.921875 59.515625 
L 19.921875 54.6875 
L 34.71875 54.6875 
L 34.71875 47.703125 
L 19.921875 47.703125 
L 19.921875 0 
L 10.890625 0 
L 10.890625 47.703125 
L 2.296875 47.703125 
L 2.296875 54.6875 
L 10.890625 54.6875 
L 10.890625 58.5 
Q 10.890625 67.625 15.140625 71.796875 
Q 19.390625 75.984375 28.609375 75.984375 
z
" id="DejaVuSans-66"/>
      <path d="M 48.78125 52.59375 
L 48.78125 44.1875 
Q 44.96875 46.296875 41.140625 47.34375 
Q 37.3125 48.390625 33.40625 48.390625 
Q 24.65625 48.390625 19.8125 42.84375 
Q 14.984375 37.3125 14.984375 27.296875 
Q 14.984375 17.28125 19.8125 11.734375 
Q 24.65625 6.203125 33.40625 6.203125 
Q 37.3125 6.203125 41.140625 7.25 
Q 44.96875 8.296875 48.78125 10.40625 
L 48.78125 2.09375 
Q 45.015625 0.34375 40.984375 -0.53125 
Q 36.96875 -1.421875 32.421875 -1.421875 
Q 20.0625 -1.421875 12.78125 6.34375 
Q 5.515625 14.109375 5.515625 27.296875 
Q 5.515625 40.671875 12.859375 48.328125 
Q 20.21875 56 33.015625 56 
Q 37.15625 56 41.109375 55.140625 
Q 45.0625 54.296875 48.78125 52.59375 
" id="DejaVuSans-63"/>
      <path d="M 9.421875 75.984375 
L 18.40625 75.984375 
L 18.40625 0 
L 9.421875 0 
z
" id="DejaVuSans-6c"/>
      <path d="M 9.421875 54.6875 
L 18.40625 54.6875 
L 18.40625 0 
L 9.421875 0 
z
M 9.421875 75.984375 
L 18.40625 75.984375 
L 18.40625 64.59375 
L 9.421875 64.59375 
z
" id="DejaVuSans-69"/>
      <path d="M 54.890625 33.015625 
L 54.890625 0 
L 45.90625 0 
L 45.90625 32.71875 
Q 45.90625 40.484375 42.875 44.328125 
Q 39.84375 48.1875 33.796875 48.1875 
Q 26.515625 48.1875 22.3125 43.546875 
Q 18.109375 38.921875 18.109375 30.90625 
L 18.109375 0 
L 9.078125 0 
L 9.078125 54.6875 
L 18.109375 54.6875 
L 18.109375 46.1875 
Q 21.34375 51.125 25.703125 53.5625 
Q 30.078125 56 35.796875 56 
Q 45.21875 56 50.046875 50.171875 
Q 54.890625 44.34375 54.890625 33.015625 
" id="DejaVuSans-6e"/>
      <path d="M 18.3125 70.21875 
L 18.3125 54.6875 
L 36.8125 54.6875 
L 36.8125 47.703125 
L 18.3125 47.703125 
L 18.3125 18.015625 
Q 18.3125 11.328125 20.140625 9.421875 
Q 21.96875 7.515625 27.59375 7.515625 
L 36.8125 7.515625 
L 36.8125 0 
L 27.59375 0 
Q 17.1875 0 13.234375 3.875 
Q 9.28125 7.765625 9.28125 18.015625 
L 9.28125 47.703125 
L 2.6875 47.703125 
L 2.6875 54.6875 
L 9.28125 54.6875 
L 9.28125 70.21875 
z
" id="DejaVuSans-74"/>
      <path d="M 44.28125 53.078125 
L 44.28125 44.578125 
Q 40.484375 46.53125 36.375 47.5 
Q 32.28125 48.484375 27.875 48.484375 
Q 21.1875 48.484375 17.84375 46.4375 
Q 14.5 44.390625 14.5 40.28125 
Q 14.5 37.15625 16.890625 35.375 
Q 19.28125 33.59375 26.515625 31.984375 
L 29.59375 31.296875 
Q 39.15625 29.25 43.1875 25.515625 
Q 47.21875 21.78125 47.21875 15.09375 
Q 47.21875 7.46875 41.1875 3.015625 
Q 35.15625 -1.421875 24.609375 -1.421875 
Q 20.21875 -1.421875 15.453125 -0.5625 
Q 10.6875 0.296875 5.421875 2 
L 5.421875 11.28125 
Q 10.40625 8.6875 15.234375 7.390625 
Q 20.0625 6.109375 24.8125 6.109375 
Q 31.15625 6.109375 34.5625 8.28125 
Q 37.984375 10.453125 37.984375 14.40625 
Q 37.984375 18.0625 35.515625 20.015625 
Q 33.0625 21.96875 24.703125 23.78125 
L 21.578125 24.515625 
Q 13.234375 26.265625 9.515625 29.90625 
Q 5.8125 33.546875 5.8125 39.890625 
Q 5.8125 47.609375 11.28125 51.796875 
Q 16.75 56 26.8125 56 
Q 31.78125 56 36.171875 55.265625 
Q 40.578125 54.546875 44.28125 53.078125 
" id="DejaVuSans-73"/>
     </defs>
     <g transform="translate(191.738906 335.860562)scale(0.1 -0.1)">
      <use xlink:href="#DejaVuSans-4e"/>
      <use x="74.804688" xlink:href="#DejaVuSans-75"/>
      <use x="138.183594" xlink:href="#DejaVuSans-6d"/>
      <use x="235.595703" xlink:href="#DejaVuSans-62"/>
      <use x="299.072266" xlink:href="#DejaVuSans-65"/>
      <use x="360.595703" xlink:href="#DejaVuSans-72"/>
      <use x="401.708984" xlink:href="#DejaVuSans-20"/>
      <use x="433.496094" xlink:href="#DejaVuSans-6f"/>
      <use x="494.677734" xlink:href="#DejaVuSans-66"/>
      <use x="529.882812" xlink:href="#DejaVuSans-20"/>
      <use x="561.669922" xlink:href="#DejaVuSans-63"/>
      <use x="616.650391" xlink:href="#DejaVuSans-6c"/>
      <use x="644.433594" xlink:href="#DejaVuSans-69"/>
      <use x="672.216797" xlink:href="#DejaVuSans-65"/>
      <use x="733.740234" xlink:href="#DejaVuSans-6e"/>
      <use x="797.119141" xlink:href="#DejaVuSans-74"/>
      <use x="836.328125" xlink:href="#DejaVuSans-73"/>
     </g>
    </g>
   </g>
   <g id="matplotlib.axis_2">
    <g id="ytick_1">
     <g id="line2d_13">
      <path clip-path="url(#pa26e382dc9)" d="M 57.6 296.289998 
L 414.72 296.289998 
" style="fill:none;stroke:#b0b0b0;stroke-linecap:square;stroke-width:0.8;"/>
     </g>
     <g id="line2d_14">
      <defs>
       <path d="M 0 0 
L -3.5 0 
" id="m75723a4889" style="stroke:#000000;stroke-width:0.8;"/>
      </defs>
      <g>
       <use style="stroke:#000000;stroke-width:0.8;" x="57.6" xlink:href="#m75723a4889" y="296.289998"/>
      </g>
     </g>
     <g id="text_8">
      <!-- 0 -->
      <g transform="translate(44.2375 300.089217)scale(0.1 -0.1)">
       <use xlink:href="#DejaVuSans-30"/>
      </g>
     </g>
    </g>
    <g id="ytick_2">
     <g id="line2d_15">
      <path clip-path="url(#pa26e382dc9)" d="M 57.6 255.077332 
L 414.72 255.077332 
" style="fill:none;stroke:#b0b0b0;stroke-linecap:square;stroke-width:0.8;"/>
     </g>
     <g id="line2d_16">
      <g>
       <use style="stroke:#000000;stroke-width:0.8;" x="57.6" xlink:href="#m75723a4889" y="255.077332"/>
      </g>
     </g>
     <g id="text_9">
      <!-- 50 -->
      <defs>
       <path d="M 10.796875 72.90625 
L 49.515625 72.90625 
L 49.515625 64.59375 
L 19.828125 64.59375 
L 19.828125 46.734375 
Q 21.96875 47.46875 24.109375 47.828125 
Q 26.265625 48.1875 28.421875 48.1875 
Q 40.625 48.1875 47.75 41.5 
Q 54.890625 34.8125 54.890625 23.390625 
Q 54.890625 11.625 47.5625 5.09375 
Q 40.234375 -1.421875 26.90625 -1.421875 
Q 22.3125 -1.421875 17.546875 -0.640625 
Q 12.796875 0.140625 7.71875 1.703125 
L 7.71875 11.625 
Q 12.109375 9.234375 16.796875 8.0625 
Q 21.484375 6.890625 26.703125 6.890625 
Q 35.15625 6.890625 40.078125 11.328125 
Q 45.015625 15.765625 45.015625 23.390625 
Q 45.015625 31 40.078125 35.4375 
Q 35.15625 39.890625 26.703125 39.890625 
Q 22.75 39.890625 18.8125 39.015625 
Q 14.890625 38.140625 10.796875 36.28125 
z
" id="DejaVuSans-35"/>
      </defs>
      <g transform="translate(37.875 258.876551)scale(0.1 -0.1)">
       <use xlink:href="#DejaVuSans-35"/>
       <use x="63.623047" xlink:href="#DejaVuSans-30"/>
      </g>
     </g>
    </g>
    <g id="ytick_3">
     <g id="line2d_17">
      <path clip-path="url(#pa26e382dc9)" d="M 57.6 213.864666 
L 414.72 213.864666 
" style="fill:none;stroke:#b0b0b0;stroke-linecap:square;stroke-width:0.8;"/>
     </g>
     <g id="line2d_18">
      <g>
       <use style="stroke:#000000;stroke-width:0.8;" x="57.6" xlink:href="#m75723a4889" y="213.864666"/>
      </g>
     </g>
     <g id="text_10">
      <!-- 100 -->
      <g transform="translate(31.5125 217.663885)scale(0.1 -0.1)">
       <use xlink:href="#DejaVuSans-31"/>
       <use x="63.623047" xlink:href="#DejaVuSans-30"/>
       <use x="127.246094" xlink:href="#DejaVuSans-30"/>
      </g>
     </g>
    </g>
    <g id="ytick_4">
     <g id="line2d_19">
      <path clip-path="url(#pa26e382dc9)" d="M 57.6 172.651999 
L 414.72 172.651999 
" style="fill:none;stroke:#b0b0b0;stroke-linecap:square;stroke-width:0.8;"/>
     </g>
     <g id="line2d_20">
      <g>
       <use style="stroke:#000000;stroke-width:0.8;" x="57.6" xlink:href="#m75723a4889" y="172.651999"/>
      </g>
     </g>
     <g id="text_11">
      <!-- 150 -->
      <g transform="translate(31.5125 176.451218)scale(0.1 -0.1)">
       <use xlink:href="#DejaVuSans-31"/>
       <use x="63.623047" xlink:href="#DejaVuSans-35"/>
       <use x="127.246094" xlink:href="#DejaVuSans-30"/>
      </g>
     </g>
    </g>
    <g id="ytick_5">
     <g id="line2d_21">
      <path clip-path="url(#pa26e382dc9)" d="M 57.6 131.439333 
L 414.72 131.439333 
" style="fill:none;stroke:#b0b0b0;stroke-linecap:square;stroke-width:0.8;"/>
     </g>
     <g id="line2d_22">
      <g>
       <use style="stroke:#000000;stroke-width:0.8;" x="57.6" xlink:href="#m75723a4889" y="131.439333"/>
      </g>
     </g>
     <g id="text_12">
      <!-- 200 -->
      <g transform="translate(31.5125 135.238552)scale(0.1 -0.1)">
       <use xlink:href="#DejaVuSans-32"/>
       <use x="63.623047" xlink:href="#DejaVuSans-30"/>
       <use x="127.246094" xlink:href="#DejaVuSans-30"/>
      </g>
     </g>
    </g>
    <g id="ytick_6">
     <g id="line2d_23">
      <path clip-path="url(#pa26e382dc9)" d="M 57.6 90.226667 
L 414.72 90.226667 
" style="fill:none;stroke:#b0b0b0;stroke-linecap:square;stroke-width:0.8;"/>
     </g>
     <g id="line2d_24">
      <g>
       <use style="stroke:#000000;stroke-width:0.8;" x="57.6" xlink:href="#m75723a4889" y="90.226667"/>
      </g>
     </g>
     <g id="text_13">
      <!-- 250 -->
      <g transform="translate(31.5125 94.025885)scale(0.1 -0.1)">
       <use xlink:href="#DejaVuSans-32"/>
       <use x="63.623047" xlink:href="#DejaVuSans-35"/>
       <use x="127.246094" xlink:href="#DejaVuSans-30"/>
      </g>
     </g>
    </g>
    <g id="ytick_7">
     <g id="line2d_25">
      <path clip-path="url(#pa26e382dc9)" d="M 57.6 49.014 
L 414.72 49.014 
" style="fill:none;stroke:#b0b0b0;stroke-linecap:square;stroke-width:0.8;"/>
     </g>
     <g id="line2d_26">
      <g>
       <use style="stroke:#000000;stroke-width:0.8;" x="57.6" xlink:href="#m75723a4889" y="49.014"/>
      </g>
     </g>
     <g id="text_14">
      <!-- 300 -->
      <defs>
       <path d="M 40.578125 39.3125 
Q 47.65625 37.796875 51.625 33 
Q 55.609375 28.21875 55.609375 21.1875 
Q 55.609375 10.40625 48.1875 4.484375 
Q 40.765625 -1.421875 27.09375 -1.421875 
Q 22.515625 -1.421875 17.65625 -0.515625 
Q 12.796875 0.390625 7.625 2.203125 
L 7.625 11.71875 
Q 11.71875 9.328125 16.59375 8.109375 
Q 21.484375 6.890625 26.8125 6.890625 
Q 36.078125 6.890625 40.9375 10.546875 
Q 45.796875 14.203125 45.796875 21.1875 
Q 45.796875 27.640625 41.28125 31.265625 
Q 36.765625 34.90625 28.71875 34.90625 
L 20.21875 34.90625 
L 20.21875 43.015625 
L 29.109375 43.015625 
Q 36.375 43.015625 40.234375 45.921875 
Q 44.09375 48.828125 44.09375 54.296875 
Q 44.09375 59.90625 40.109375 62.90625 
Q 36.140625 65.921875 28.71875 65.921875 
Q 24.65625 65.921875 20.015625 65.03125 
Q 15.375 64.15625 9.8125 62.3125 
L 9.8125 71.09375 
Q 15.4375 72.65625 20.34375 73.4375 
Q 25.25 74.21875 29.59375 74.21875 
Q 40.828125 74.21875 47.359375 69.109375 
Q 53.90625 64.015625 53.90625 55.328125 
Q 53.90625 49.265625 50.4375 45.09375 
Q 46.96875 40.921875 40.578125 39.3125 
" id="DejaVuSans-33"/>
      </defs>
      <g transform="translate(31.5125 52.813219)scale(0.1 -0.1)">
       <use xlink:href="#DejaVuSans-33"/>
       <use x="63.623047" xlink:href="#DejaVuSans-30"/>
       <use x="127.246094" xlink:href="#DejaVuSans-30"/>
      </g>
     </g>
    </g>
    <g id="text_15">
     <!-- Successful download requests per second -->
     <defs>
      <path d="M 53.515625 70.515625 
L 53.515625 60.890625 
Q 47.90625 63.578125 42.921875 64.890625 
Q 37.9375 66.21875 33.296875 66.21875 
Q 25.25 66.21875 20.875 63.09375 
Q 16.5 59.96875 16.5 54.203125 
Q 16.5 49.359375 19.40625 46.890625 
Q 22.3125 44.4375 30.421875 42.921875 
L 36.375 41.703125 
Q 47.40625 39.59375 52.65625 34.296875 
Q 57.90625 29 57.90625 20.125 
Q 57.90625 9.515625 50.796875 4.046875 
Q 43.703125 -1.421875 29.984375 -1.421875 
Q 24.8125 -1.421875 18.96875 -0.25 
Q 13.140625 0.921875 6.890625 3.21875 
L 6.890625 13.375 
Q 12.890625 10.015625 18.65625 8.296875 
Q 24.421875 6.59375 29.984375 6.59375 
Q 38.421875 6.59375 43.015625 9.90625 
Q 47.609375 13.234375 47.609375 19.390625 
Q 47.609375 24.75 44.3125 27.78125 
Q 41.015625 30.8125 33.5 32.328125 
L 27.484375 33.5 
Q 16.453125 35.6875 11.515625 40.375 
Q 6.59375 45.0625 6.59375 53.421875 
Q 6.59375 63.09375 13.40625 68.65625 
Q 20.21875 74.21875 32.171875 74.21875 
Q 37.3125 74.21875 42.625 73.28125 
Q 47.953125 72.359375 53.515625 70.515625 
" id="DejaVuSans-53"/>
      <path d="M 45.40625 46.390625 
L 45.40625 75.984375 
L 54.390625 75.984375 
L 54.390625 0 
L 45.40625 0 
L 45.40625 8.203125 
Q 42.578125 3.328125 38.25 0.953125 
Q 33.9375 -1.421875 27.875 -1.421875 
Q 17.96875 -1.421875 11.734375 6.484375 
Q 5.515625 14.40625 5.515625 27.296875 
Q 5.515625 40.1875 11.734375 48.09375 
Q 17.96875 56 27.875 56 
Q 33.9375 56 38.25 53.625 
Q 42.578125 51.265625 45.40625 46.390625 
M 14.796875 27.296875 
Q 14.796875 17.390625 18.875 11.75 
Q 22.953125 6.109375 30.078125 6.109375 
Q 37.203125 6.109375 41.296875 11.75 
Q 45.40625 17.390625 45.40625 27.296875 
Q 45.40625 37.203125 41.296875 42.84375 
Q 37.203125 48.484375 30.078125 48.484375 
Q 22.953125 48.484375 18.875 42.84375 
Q 14.796875 37.203125 14.796875 27.296875 
" id="DejaVuSans-64"/>
      <path d="M 4.203125 54.6875 
L 13.1875 54.6875 
L 24.421875 12.015625 
L 35.59375 54.6875 
L 46.1875 54.6875 
L 57.421875 12.015625 
L 68.609375 54.6875 
L 77.59375 54.6875 
L 63.28125 0 
L 52.6875 0 
L 40.921875 44.828125 
L 29.109375 0 
L 18.5 0 
z
" id="DejaVuSans-77"/>
      <path d="M 34.28125 27.484375 
Q 23.390625 27.484375 19.1875 25 
Q 14.984375 22.515625 14.984375 16.5 
Q 14.984375 11.71875 18.140625 8.90625 
Q 21.296875 6.109375 26.703125 6.109375 
Q 34.1875 6.109375 38.703125 11.40625 
Q 43.21875 16.703125 43.21875 25.484375 
L 43.21875 27.484375 
z
M 52.203125 31.203125 
L 52.203125 0 
L 43.21875 0 
L 43.21875 8.296875 
Q 40.140625 3.328125 35.546875 0.953125 
Q 30.953125 -1.421875 24.3125 -1.421875 
Q 15.921875 -1.421875 10.953125 3.296875 
Q 6 8.015625 6 15.921875 
Q 6 25.140625 12.171875 29.828125 
Q 18.359375 34.515625 30.609375 34.515625 
L 43.21875 34.515625 
L 43.21875 35.40625 
Q 43.21875 41.609375 39.140625 45 
Q 35.0625 48.390625 27.6875 48.390625 
Q 23 48.390625 18.546875 47.265625 
Q 14.109375 46.140625 10.015625 43.890625 
L 10.015625 52.203125 
Q 14.9375 54.109375 19.578125 55.046875 
Q 24.21875 56 28.609375 56 
Q 40.484375 56 46.34375 49.84375 
Q 52.203125 43.703125 52.203125 31.203125 
" id="DejaVuSans-61"/>
      <path d="M 14.796875 27.296875 
Q 14.796875 17.390625 18.875 11.75 
Q 22.953125 6.109375 30.078125 6.109375 
Q 37.203125 6.109375 41.296875 11.75 
Q 45.40625 17.390625 45.40625 27.296875 
Q 45.40625 37.203125 41.296875 42.84375 
Q 37.203125 48.484375 30.078125 48.484375 
Q 22.953125 48.484375 18.875 42.84375 
Q 14.796875 37.203125 14.796875 27.296875 
M 45.40625 8.203125 
Q 42.578125 3.328125 38.25 0.953125 
Q 33.9375 -1.421875 27.875 -1.421875 
Q 17.96875 -1.421875 11.734375 6.484375 
Q 5.515625 14.40625 5.515625 27.296875 
Q 5.515625 40.1875 11.734375 48.09375 
Q 17.96875 56 27.875 56 
Q 33.9375 56 38.25 53.625 
Q 42.578125 51.265625 45.40625 46.390625 
L 45.40625 54.6875 
L 54.390625 54.6875 
L 54.390625 -20.796875 
L 45.40625 -20.796875 
z
" id="DejaVuSans-71"/>
      <path d="M 18.109375 8.203125 
L 18.109375 -20.796875 
L 9.078125 -20.796875 
L 9.078125 54.6875 
L 18.109375 54.6875 
L 18.109375 46.390625 
Q 20.953125 51.265625 25.265625 53.625 
Q 29.59375 56 35.59375 56 
Q 45.5625 56 51.78125 48.09375 
Q 58.015625 40.1875 58.015625 27.296875 
Q 58.015625 14.40625 51.78125 6.484375 
Q 45.5625 -1.421875 35.59375 -1.421875 
Q 29.59375 -1.421875 25.265625 0.953125 
Q 20.953125 3.328125 18.109375 8.203125 
M 48.6875 27.296875 
Q 48.6875 37.203125 44.609375 42.84375 
Q 40.53125 48.484375 33.40625 48.484375 
Q 26.265625 48.484375 22.1875 42.84375 
Q 18.109375 37.203125 18.109375 27.296875 
Q 18.109375 17.390625 22.1875 11.75 
Q 26.265625 6.109375 33.40625 6.109375 
Q 40.53125 6.109375 44.609375 11.75 
Q 48.6875 17.390625 48.6875 27.296875 
" id="DejaVuSans-70"/>
     </defs>
     <g transform="translate(25.432812 279.366281)rotate(-90)scale(0.1 -0.1)">
      <use xlink:href="#DejaVuSans-53"/>
      <use x="63.476562" xlink:href="#DejaVuSans-75"/>
      <use x="126.855469" xlink:href="#DejaVuSans-63"/>
      <use x="181.835938" xlink:href="#DejaVuSans-63"/>
      <use x="236.816406" xlink:href="#DejaVuSans-65"/>
      <use x="298.339844" xlink:href="#DejaVuSans-73"/>
      <use x="350.439453" xlink:href="#DejaVuSans-73"/>
      <use x="402.539062" xlink:href="#DejaVuSans-66"/>
      <use x="437.744141" xlink:href="#DejaVuSans-75"/>
      <use x="501.123047" xlink:href="#DejaVuSans-6c"/>
      <use x="528.90625" xlink:href="#DejaVuSans-20"/>
      <use x="560.693359" xlink:href="#DejaVuSans-64"/>
      <use x="624.169922" xlink:href="#DejaVuSans-6f"/>
      <use x="685.351562" xlink:href="#DejaVuSans-77"/>
      <use x="767.138672" xlink:href="#DejaVuSans-6e"/>
      <use x="830.517578" xlink:href="#DejaVuSans-6c"/>
      <use x="858.300781" xlink:href="#DejaVuSans-6f"/>
      <use x="919.482422" xlink:href="#DejaVuSans-61"/>
      <use x="980.761719" xlink:href="#DejaVuSans-64"/>
      <use x="1044.238281" xlink:href="#DejaVuSans-20"/>
      <use x="1076.025391" xlink:href="#DejaVuSans-72"/>
      <use x="1117.107422" xlink:href="#DejaVuSans-65"/>
      <use x="1178.630859" xlink:href="#DejaVuSans-71"/>
      <use x="1242.107422" xlink:href="#DejaVuSans-75"/>
      <use x="1305.486328" xlink:href="#DejaVuSans-65"/>
      <use x="1367.009766" xlink:href="#DejaVuSans-73"/>
      <use x="1419.109375" xlink:href="#DejaVuSans-74"/>
      <use x="1458.318359" xlink:href="#DejaVuSans-73"/>
      <use x="1510.417969" xlink:href="#DejaVuSans-20"/>
      <use x="1542.205078" xlink:href="#DejaVuSans-70"/>
      <use x="1605.681641" xlink:href="#DejaVuSans-65"/>
      <use x="1667.205078" xlink:href="#DejaVuSans-72"/>
      <use x="1708.318359" xlink:href="#DejaVuSans-20"/>
      <use x="1740.105469" xlink:href="#DejaVuSans-73"/>
      <use x="1792.205078" xlink:href="#DejaVuSans-65"/>
      <use x="1853.728516" xlink:href="#DejaVuSans-63"/>
      <use x="1908.708984" xlink:href="#DejaVuSans-6f"/>
      <use x="1969.890625" xlink:href="#DejaVuSans-6e"/>
      <use x="2033.269531" xlink:href="#DejaVuSans-64"/>
     </g>
    </g>
   </g>
   <g id="line2d_27">
    <path clip-path="url(#pa26e382dc9)" d="M 57.6 295.480582 
L 57.95712 295.488 
L 60.81408 289.205541 
L 61.1712 288.519762 
L 61.88544 286.456656 
L 62.24256 286.260484 
L 63.31392 283.929496 
L 63.67104 282.64943 
L 64.02816 282.149108 
L 64.38528 280.974547 
L 64.7424 280.258271 
L 65.09952 279.2329 
L 65.81376 278.099552 
L 66.17088 276.639799 
L 66.528 276.603532 
L 67.24224 274.44811 
L 67.59936 273.598304 
L 67.95648 273.700512 
L 68.3136 272.640522 
L 68.67072 272.201195 
L 69.02784 270.408444 
L 69.38496 269.803442 
L 70.0992 267.563946 
L 70.45632 268.50277 
L 70.81344 267.703245 
L 71.17056 265.514028 
L 71.52768 265.152181 
L 71.8848 263.490486 
L 72.24192 263.680888 
L 72.59904 262.890429 
L 72.95616 261.343306 
L 73.31328 260.944367 
L 73.6704 259.956912 
L 74.02752 259.648641 
L 74.38464 258.651295 
L 74.74176 259.116173 
L 75.09888 258.327363 
L 75.456 256.510709 
L 75.81312 256.089515 
L 76.52736 254.525082 
L 76.88448 254.061028 
L 77.2416 252.482583 
L 77.59872 251.772901 
L 77.95584 251.330277 
L 78.31296 248.884717 
L 79.0272 247.149664 
L 79.38432 248.094258 
L 79.74144 246.277604 
L 80.09856 247.626082 
L 80.45568 245.63551 
L 80.8128 245.548964 
L 81.16992 244.867306 
L 81.88416 240.378423 
L 82.24128 239.651431 
L 82.5984 242.344267 
L 82.95552 241.508474 
L 83.31264 238.434833 
L 83.66976 239.72479 
L 84.02688 236.665986 
L 84.384 236.811878 
L 84.74112 235.493073 
L 85.09824 233.026907 
L 85.45536 234.855925 
L 86.52672 230.581348 
L 86.88384 230.215379 
L 87.24096 230.228567 
L 87.59808 231.152555 
L 87.9552 231.06436 
L 88.66944 225.393497 
L 89.02656 224.583256 
L 89.38368 224.672275 
L 89.7408 225.067093 
L 90.09792 225.062971 
L 90.45504 223.277639 
L 90.81216 223.792797 
L 91.16928 223.376549 
L 91.5264 218.660172 
L 91.88352 217.566387 
L 92.24064 221.56484 
L 92.59776 221.116447 
L 92.95488 217.819433 
L 93.312 218.0766 
L 93.66912 216.74708 
L 94.02624 212.263142 
L 94.74048 215.950027 
L 95.0976 214.087214 
L 95.45472 209.94699 
L 95.81184 211.379542 
L 96.16896 208.429539 
L 96.52608 208.993329 
L 96.8832 209.79203 
L 97.24032 206.034259 
L 97.59744 205.809238 
L 97.95456 208.195451 
L 98.31168 208.317441 
L 98.6688 202.980401 
L 99.02592 205.415245 
L 99.38304 202.309458 
L 99.74016 201.486029 
L 100.09728 198.80803 
L 100.81152 202.754555 
L 101.52576 198.952275 
L 101.88288 198.789897 
L 102.59712 194.287825 
L 102.95424 193.595452 
L 103.31136 191.501849 
L 103.66848 190.348718 
L 104.0256 189.841803 
L 104.38272 194.752704 
L 104.73984 193.764424 
L 105.09696 191.943649 
L 105.45408 188.863414 
L 105.8112 190.382513 
L 106.16832 186.247234 
L 106.52544 185.272142 
L 106.88256 185.767518 
L 107.23968 189.586284 
L 107.5968 186.435988 
L 107.95392 186.961037 
L 108.31104 181.785551 
L 109.02528 178.495131 
L 109.3824 180.337337 
L 109.73952 180.464272 
L 110.09664 179.806518 
L 110.45376 175.564086 
L 110.81088 180.714845 
L 111.168 179.160304 
L 111.52512 176.898553 
L 111.88224 171.020802 
L 112.59648 175.06871 
L 112.9536 176.230907 
L 113.31072 172.34208 
L 113.66784 175.189051 
L 114.02496 174.78187 
L 114.38208 166.315964 
L 114.7392 171.11147 
L 115.09632 163.780561 
L 115.45344 165.985439 
L 115.81056 170.325957 
L 116.16768 163.818477 
L 116.5248 164.372375 
L 116.88192 166.647314 
L 117.23904 159.83486 
L 117.59616 158.57128 
L 117.95328 162.793105 
L 118.3104 162.885422 
L 118.66752 162.604351 
L 119.02464 157.277202 
L 119.73888 156.273262 
L 120.096 160.961614 
L 120.45312 156.948325 
L 120.81024 154.747569 
L 121.16736 155.242121 
L 121.52448 150.401281 
L 121.8816 148.475001 
L 122.23872 154.13927 
L 122.59584 153.343041 
L 122.95296 154.173064 
L 123.31008 149.670168 
L 123.6672 148.670349 
L 124.02432 145.415372 
L 124.38144 146.36244 
L 124.73856 150.810935 
L 125.09568 141.519951 
L 125.80992 148.621718 
L 126.16704 146.087139 
L 126.52416 138.589731 
L 126.88128 145.171394 
L 127.2384 137.641839 
L 127.59552 142.42663 
L 127.95264 138.958996 
L 128.30976 138.834534 
L 128.66688 143.148676 
L 129.38112 131.426969 
L 129.73824 140.198673 
L 130.09536 134.002761 
L 130.45248 136.7467 
L 131.16672 130.416435 
L 131.52384 134.973731 
L 131.88096 127.521657 
L 132.23808 125.745391 
L 132.5952 128.479439 
L 132.95232 124.417519 
L 133.30944 123.309723 
L 133.66656 130.728002 
L 134.02368 132.247101 
L 134.3808 124.396913 
L 134.73792 130.601892 
L 135.09504 126.604263 
L 135.45216 119.7473 
L 135.80928 128.40196 
L 136.1664 117.366032 
L 136.52352 121.959596 
L 136.88064 123.399566 
L 137.23776 116.740423 
L 137.59488 119.140649 
L 137.952 112.754334 
L 138.30912 121.170785 
L 138.66624 116.702508 
L 139.02336 108.570425 
L 139.38048 107.94564 
L 139.7376 116.810485 
L 140.09472 110.432413 
L 140.45184 114.727597 
L 140.80896 105.919626 
L 141.16608 107.600278 
L 141.5232 112.407324 
L 141.88032 107.376081 
L 142.23744 112.209503 
L 142.59456 105.390455 
L 142.95168 102.285493 
L 143.3088 105.074766 
L 143.66592 102.817961 
L 144.02304 108.284409 
L 144.38016 103.455108 
L 144.73728 104.928049 
L 145.0944 108.130273 
L 145.45152 98.519479 
L 145.80864 97.26002 
L 146.16576 105.111033 
L 146.52288 96.596496 
L 146.88 96.270916 
L 147.23712 98.757689 
L 147.59424 94.976014 
L 147.95136 97.241887 
L 148.30848 87.618729 
L 148.6656 90.474767 
L 149.02272 89.786515 
L 149.37984 89.883777 
L 149.73696 87.190117 
L 150.09408 95.00239 
L 150.4512 87.039279 
L 150.80832 88.177573 
L 151.16544 82.240476 
L 151.52256 80.604333 
L 151.87968 87.369805 
L 152.2368 85.324008 
L 152.59392 79.801511 
L 152.95104 80.527678 
L 153.30816 80.755996 
L 153.66528 78.244496 
L 154.0224 87.995413 
L 154.73664 74.242746 
L 155.09376 85.303402 
L 155.45088 76.372617 
L 155.808 80.949696 
L 156.16512 76.26464 
L 156.87936 70.516297 
L 157.23648 76.835023 
L 157.5936 75.854986 
L 157.95072 76.639675 
L 158.30784 67.104712 
L 158.66496 78.832189 
L 159.02208 62.480651 
L 159.3792 63.926392 
L 159.73632 73.870184 
L 160.09344 71.983468 
L 160.45056 62.627368 
L 160.80768 74.571623 
L 161.52192 62.460045 
L 161.87904 60.915394 
L 162.23616 70.793246 
L 162.59328 66.851667 
L 162.9504 55.415976 
L 163.30752 66.23018 
L 163.66464 67.835001 
L 164.02176 53.568 
L 164.37888 60.603002 
L 164.736 60.559317 
L 165.09312 56.943317 
L 165.45024 57.27137 
L 165.80736 62.258927 
L 166.16448 64.549527 
L 166.5216 69.804142 
L 166.87872 56.527069 
L 167.23584 68.488634 
L 167.59296 68.384778 
L 167.95008 69.727486 
L 168.3072 58.816845 
L 168.66432 67.828407 
L 169.02144 66.912661 
L 169.37856 71.59442 
L 169.73568 64.967424 
L 170.0928 72.015614 
L 170.80704 63.454094 
L 171.16416 63.304905 
L 171.52128 73.883372 
L 171.8784 78.489299 
L 172.23552 66.501359 
L 172.59264 68.408681 
L 172.94976 71.509522 
L 173.30688 83.101821 
L 174.02112 76.556425 
L 174.37824 82.833939 
L 174.73536 77.405406 
L 175.09248 78.860213 
L 175.4496 83.326842 
L 175.80672 86.261184 
L 176.16384 74.099326 
L 176.52096 74.173509 
L 176.87808 86.887616 
L 177.2352 78.13487 
L 177.59232 83.621925 
L 177.94944 81.324731 
L 178.30656 86.969218 
L 178.66368 85.028925 
L 179.0208 88.902916 
L 179.37792 82.354223 
L 179.73504 79.745461 
L 180.44928 91.948532 
L 180.8064 88.146251 
L 181.16352 87.261828 
L 181.52064 95.152405 
L 181.87776 95.01393 
L 182.23488 97.807325 
L 182.592 91.534757 
L 182.94912 87.458 
L 183.30624 92.388683 
L 183.66336 99.629749 
L 184.02048 93.129687 
L 184.3776 96.832233 
L 185.09184 99.520947 
L 185.44896 94.050378 
L 185.80608 103.886193 
L 186.1632 104.304914 
L 186.52032 100.535603 
L 186.87744 102.367918 
L 187.23456 103.445217 
L 187.59168 105.81577 
L 187.9488 94.486408 
L 188.30592 106.033373 
L 188.66304 103.155904 
L 189.02016 104.047747 
L 189.37728 101.387881 
L 190.09152 107.352178 
L 190.44864 102.555024 
L 190.80576 104.550541 
L 191.16288 107.840136 
L 191.52 100.587531 
L 192.23424 107.3835 
L 192.59136 102.292087 
L 192.94848 108.051969 
L 193.3056 108.547345 
L 193.66272 114.219033 
L 194.01984 105.696253 
L 194.37696 113.230753 
L 194.73408 104.971734 
L 195.0912 107.316735 
L 195.44832 104.712095 
L 195.80544 117.323171 
L 196.16256 116.754436 
L 196.51968 117.589404 
L 196.8768 106.250976 
L 197.23392 110.362351 
L 197.59104 118.334529 
L 197.94816 113.898398 
L 198.30528 113.215092 
L 199.01952 119.568437 
L 199.37664 112.531786 
L 199.73376 118.512568 
L 200.09088 114.441581 
L 200.448 116.973687 
L 200.80512 111.515482 
L 201.16224 120.409999 
L 201.51936 112.780711 
L 201.87648 124.01858 
L 202.2336 122.303309 
L 202.59072 116.758557 
L 202.94784 122.78797 
L 203.30496 125.122256 
L 203.66208 124.474392 
L 204.0192 125.728906 
L 204.37632 117.451754 
L 204.73344 117.23003 
L 205.09056 122.781376 
L 205.44768 122.848965 
L 205.8048 120.076177 
L 206.16192 118.789517 
L 206.51904 119.476945 
L 206.87616 128.881675 
L 207.23328 120.234433 
L 207.5904 123.966652 
L 208.30464 126.518541 
L 208.66176 124.428234 
L 209.376 133.129877 
L 209.73312 125.662966 
L 210.09024 128.068961 
L 210.44736 126.702349 
L 210.80448 134.034083 
L 211.1616 128.807492 
L 211.51872 127.618095 
L 211.87584 128.032694 
L 212.23296 135.724626 
L 212.59008 126.295168 
L 212.9472 134.564902 
L 213.30432 131.089025 
L 213.66144 128.899809 
L 214.01856 130.112285 
L 214.37568 132.524875 
L 214.7328 128.353329 
L 215.08992 138.0721 
L 215.44704 130.7585 
L 215.80416 139.161762 
L 216.16128 130.60354 
L 216.5184 138.712544 
L 216.87552 138.053142 
L 217.23264 131.854757 
L 217.58976 141.807616 
L 217.94688 136.41535 
L 218.304 142.517298 
L 218.66112 141.407853 
L 219.01824 134.420657 
L 219.37536 135.465811 
L 219.73248 135.396573 
L 220.0896 143.990238 
L 220.44672 141.944442 
L 220.80384 144.452645 
L 221.16096 135.724626 
L 221.51808 141.618037 
L 221.8752 143.512172 
L 222.23232 137.614639 
L 222.58944 146.882543 
L 222.94656 137.010461 
L 223.30368 137.4094 
L 223.6608 144.596889 
L 224.01792 146.816603 
L 224.37504 145.991526 
L 224.73216 146.38964 
L 225.08928 145.026325 
L 225.4464 148.276356 
L 225.80352 143.563275 
L 226.16064 146.274244 
L 226.51776 147.722458 
L 226.87488 141.00232 
L 227.232 141.241354 
L 227.58912 140.869615 
L 228.30336 151.394506 
L 228.66048 142.2115 
L 229.0176 150.872754 
L 229.37472 152.265742 
L 230.08896 147.518867 
L 230.44608 151.53875 
L 230.8032 146.001417 
L 231.16032 145.520053 
L 231.51744 144.059476 
L 231.87456 152.991085 
L 232.23168 153.676864 
L 232.5888 153.512013 
L 232.94592 152.861677 
L 233.30304 153.406508 
L 233.66016 156.192485 
L 234.3744 146.561909 
L 234.73152 156.747207 
L 235.08864 154.582718 
L 235.44576 149.747648 
L 235.80288 156.940907 
L 236.16 149.897662 
L 236.51712 150.501016 
L 236.87424 156.74968 
L 237.23136 158.089916 
L 237.58848 149.730339 
L 237.9456 149.877056 
L 238.30272 152.43389 
L 238.65984 159.365036 
L 239.01696 158.346259 
L 239.37408 153.832647 
L 239.7312 158.948788 
L 240.08832 159.450758 
L 240.44544 153.115547 
L 240.80256 160.368976 
L 241.15968 152.742985 
L 241.5168 160.987991 
L 241.87392 160.444808 
L 242.23104 153.194675 
L 242.58816 161.500676 
L 242.94528 160.819843 
L 243.3024 162.308444 
L 243.65952 155.280036 
L 244.01664 156.584829 
L 244.37376 157.328306 
L 244.73088 158.445993 
L 245.088 156.670552 
L 245.44512 158.338016 
L 245.80224 162.137 
L 246.15936 156.824687 
L 246.51648 156.068022 
L 246.8736 165.806576 
L 247.23072 161.534471 
L 247.94496 164.982322 
L 248.30208 158.450115 
L 248.6592 160.785224 
L 249.01632 164.971607 
L 249.37344 167.469095 
L 249.73056 161.762789 
L 250.08768 162.89861 
L 250.4448 165.251853 
L 250.80192 162.355427 
L 251.51616 161.796583 
L 251.87328 165.832952 
L 252.2304 168.559582 
L 252.58752 168.735972 
L 252.94464 163.501139 
L 253.30176 165.449674 
L 253.65888 169.641826 
L 254.016 170.475971 
L 254.37312 165.794212 
L 254.73024 165.400219 
L 255.08736 170.876558 
L 255.44448 163.182977 
L 255.8016 168.951926 
L 256.15872 165.996154 
L 256.51584 164.627069 
L 256.87296 171.507112 
L 257.5872 166.268982 
L 257.94432 166.528621 
L 258.65856 173.252056 
L 259.01568 166.021706 
L 259.3728 166.601156 
L 259.72992 169.646772 
L 260.08704 171.537609 
L 260.44416 168.13674 
L 260.80128 168.800264 
L 261.1584 170.718301 
L 261.51552 173.911459 
L 261.87264 171.238405 
L 262.22976 166.989379 
L 262.58688 173.158091 
L 262.944 170.626809 
L 263.30112 174.875011 
L 263.65824 176.300145 
L 264.01536 171.800546 
L 264.37248 175.441273 
L 264.7296 173.456471 
L 265.08672 174.060648 
L 265.44384 172.02227 
L 265.80096 171.887917 
L 266.15808 172.652824 
L 266.5152 177.426075 
L 266.87232 176.423783 
L 267.22944 171.063663 
L 267.94368 179.053151 
L 268.3008 172.035458 
L 268.65792 170.8304 
L 269.01504 178.472052 
L 269.37216 176.657046 
L 269.72928 171.788182 
L 270.0864 179.546054 
L 270.44352 179.646613 
L 270.80064 179.337518 
L 271.15776 173.228153 
L 271.51488 178.765486 
L 271.872 178.814117 
L 272.22912 180.409047 
L 272.58624 178.462985 
L 272.94336 180.681875 
L 273.30048 179.600455 
L 273.6576 177.63049 
L 274.01472 174.210662 
L 274.37184 178.20994 
L 275.08608 176.432025 
L 275.4432 179.199044 
L 275.80032 180.274694 
L 276.15744 176.790575 
L 276.51456 183.110126 
L 276.87168 181.890231 
L 277.2288 182.35511 
L 277.58592 177.069173 
L 277.94304 181.756702 
L 278.30016 179.034193 
L 278.65728 183.728316 
L 279.0144 184.864961 
L 279.37152 177.459869 
L 279.72864 183.737382 
L 280.08576 178.850384 
L 280.44288 184.089339 
L 281.15712 178.650091 
L 281.51424 178.547883 
L 281.87136 183.539562 
L 282.22848 180.226063 
L 282.5856 182.990609 
L 282.94272 183.729964 
L 283.29984 185.887859 
L 283.65696 186.866248 
L 284.01408 181.780605 
L 284.3712 183.448894 
L 284.72832 186.631336 
L 285.44256 184.101702 
L 285.79968 180.726385 
L 286.1568 181.141809 
L 286.51392 187.332775 
L 286.87104 183.571708 
L 287.22816 186.169754 
L 287.58528 184.856718 
L 287.9424 185.126249 
L 288.29952 184.663019 
L 288.65664 184.442119 
L 289.01376 188.838686 
L 289.37088 187.731714 
L 289.728 185.502109 
L 290.08512 185.465017 
L 290.44224 187.187707 
L 290.79936 187.974869 
L 291.15648 189.871476 
L 291.5136 183.35905 
L 291.87072 190.56797 
L 292.58496 185.278736 
L 292.94208 190.86058 
L 293.2992 187.865243 
L 293.65632 191.328756 
L 294.01344 185.141086 
L 294.37056 190.094848 
L 294.72768 188.134774 
L 295.0848 187.383879 
L 295.44192 192.108499 
L 295.79904 191.221603 
L 296.15616 185.735372 
L 296.51328 186.498631 
L 296.8704 187.592415 
L 297.22752 187.707811 
L 297.94176 191.749949 
L 298.29888 188.638393 
L 298.656 192.459631 
L 299.01312 191.522455 
L 299.37024 192.382976 
L 300.08448 188.176811 
L 300.4416 187.594888 
L 300.79872 190.849864 
L 301.15584 188.438923 
L 301.51296 188.269951 
L 302.2272 195.097242 
L 302.58432 191.989807 
L 302.94144 190.531703 
L 303.29856 190.904265 
L 303.65568 193.739697 
L 304.0128 192.903079 
L 304.36992 192.804169 
L 304.72704 196.315488 
L 305.08416 191.44003 
L 305.44128 194.411463 
L 305.7984 191.255397 
L 306.15552 196.45726 
L 306.51264 196.683105 
L 306.86976 190.375094 
L 307.22688 193.424008 
L 307.94112 193.014354 
L 308.29824 194.780728 
L 308.65536 193.440493 
L 309.01248 195.239013 
L 309.72672 197.430703 
L 310.08384 196.321258 
L 310.44096 198.032408 
L 310.79808 195.402216 
L 311.1552 195.895943 
L 311.51232 198.585482 
L 311.86944 194.872221 
L 312.22656 195.028829 
L 312.58368 192.99622 
L 313.29792 198.202204 
L 313.65504 199.620744 
L 314.01216 197.252664 
L 314.36928 193.671284 
L 314.7264 196.568534 
L 315.08352 200.595836 
L 315.44064 198.039002 
L 315.79776 193.771842 
L 316.15488 196.92626 
L 316.512 196.604801 
L 316.86912 196.126734 
L 317.22624 194.621648 
L 317.94048 196.603153 
L 318.2976 194.698303 
L 318.65472 195.128563 
L 319.01184 196.373186 
L 319.36896 199.71883 
L 319.72608 196.808392 
L 320.0832 201.317057 
L 320.44032 195.582727 
L 320.79744 196.029472 
L 321.15456 199.79631 
L 321.51168 198.87974 
L 321.8688 197.18013 
L 322.22592 202.176754 
L 322.58304 200.848057 
L 322.94016 196.866914 
L 323.29728 200.552975 
L 323.6544 202.828738 
L 324.01152 200.086447 
L 324.36864 202.911988 
L 324.72576 199.086628 
L 325.44 202.323471 
L 325.79712 199.039645 
L 326.15424 198.478329 
L 326.51136 198.676974 
L 326.86848 204.384928 
L 327.2256 203.275483 
L 327.58272 201.502514 
L 327.93984 200.55792 
L 328.29696 201.54043 
L 328.65408 204.491257 
L 329.0112 203.484019 
L 329.36832 200.078205 
L 330.08256 203.14113 
L 330.43968 200.810142 
L 330.7968 199.352862 
L 331.15392 201.404428 
L 331.51104 204.379158 
L 331.86816 203.943953 
L 332.22528 206.015301 
L 332.5824 203.981868 
L 332.93952 202.720761 
L 333.65376 206.570024 
L 334.01088 203.573039 
L 334.368 206.835433 
L 334.72512 206.843676 
L 335.08224 206.343354 
L 335.43936 202.574868 
L 335.79648 206.114212 
L 336.51072 201.664892 
L 336.86784 206.992042 
L 337.22496 204.65858 
L 337.58208 205.013834 
L 337.9392 203.760968 
L 338.29632 203.845867 
L 338.65344 205.163848 
L 339.01056 208.113026 
L 339.7248 204.944596 
L 340.08192 208.230894 
L 340.43904 206.558484 
L 340.79616 203.633209 
L 341.15328 204.862171 
L 341.5104 204.578628 
L 341.86752 208.138578 
L 342.58176 203.517814 
L 343.296 207.962188 
L 343.65312 203.975274 
L 344.01024 207.496485 
L 344.36736 208.493007 
L 344.72448 204.733587 
L 345.0816 209.349406 
L 345.43872 204.915747 
L 345.79584 210.118434 
L 346.15296 209.813461 
L 346.8672 207.270639 
L 347.22432 206.836258 
L 347.58144 210.418463 
L 347.93856 210.179429 
L 348.29568 209.303248 
L 348.6528 209.728563 
L 349.00992 207.906138 
L 349.36704 207.836077 
L 349.72416 211.829584 
L 350.08128 208.851557 
L 350.4384 210.161296 
L 350.79552 206.438968 
L 351.15264 210.888287 
L 351.50976 207.18162 
L 351.86688 208.682585 
L 352.224 208.574608 
L 352.58112 212.232644 
L 353.29536 208.891945 
L 353.65248 209.592561 
L 354.0096 209.953584 
L 354.36672 213.231639 
L 354.72384 210.660793 
L 355.08096 209.778018 
L 355.43808 209.346933 
L 355.7952 210.091234 
L 356.15232 213.194548 
L 356.50944 210.005512 
L 356.86656 209.458207 
L 357.22368 211.072096 
L 357.5808 209.492002 
L 357.93792 208.507843 
L 358.29504 214.187773 
L 359.3664 210.07887 
L 359.72352 214.741671 
L 360.08064 209.859619 
L 360.43776 209.673338 
L 360.79488 212.044714 
L 361.50912 209.552172 
L 361.86624 213.450891 
L 362.22336 210.041779 
L 362.58048 215.450529 
L 362.9376 215.326891 
L 363.29472 210.798443 
L 363.65184 213.322307 
L 364.00896 214.955977 
L 364.36608 213.817683 
L 364.7232 214.179531 
L 365.08032 212.881332 
L 365.43744 212.230996 
L 365.79456 212.749451 
L 366.15168 214.060014 
L 366.5088 212.258196 
L 366.86592 213.248949 
L 367.22304 215.399425 
L 367.58016 212.896168 
L 367.93728 212.423871 
L 368.2944 212.323312 
L 368.65152 215.847819 
L 369.00864 212.200498 
L 369.36576 212.511242 
L 369.72288 212.113952 
L 370.08 214.975759 
L 370.43712 213.011564 
L 370.79424 214.906522 
L 371.15136 214.31306 
L 371.50848 215.292273 
L 371.8656 212.280451 
L 372.22272 216.508046 
L 372.57984 217.440277 
L 372.93696 213.924012 
L 373.29408 216.320116 
L 373.6512 214.655949 
L 374.00832 216.430566 
L 374.36544 213.909175 
L 374.72256 217.511162 
L 375.07968 213.779768 
L 375.79392 216.575635 
L 376.15104 218.650281 
L 376.50816 215.195835 
L 377.2224 216.07861 
L 377.57952 214.650179 
L 377.93664 215.818146 
L 378.29376 215.040051 
L 379.008 214.805139 
L 379.36512 219.022019 
L 379.72224 217.53012 
L 380.07936 214.305641 
L 380.7936 217.18311 
L 381.15072 215.762921 
L 381.50784 216.561623 
L 381.86496 218.285136 
L 382.22208 217.725468 
L 382.5792 218.542303 
L 382.93632 220.189162 
L 383.65056 216.977871 
L 384.00768 217.246577 
L 384.3648 215.215617 
L 384.72192 220.247684 
L 385.07904 219.543771 
L 385.43616 215.984645 
L 385.79328 217.659528 
L 386.1504 216.00113 
L 386.50752 216.821262 
L 386.86464 218.731882 
L 387.22176 217.201243 
L 387.57888 221.592041 
L 387.936 220.347418 
L 388.29312 219.582511 
L 388.65024 217.856525 
L 389.00736 217.274602 
L 389.36448 217.141897 
L 389.7216 221.320037 
L 390.07872 219.565202 
L 390.43584 222.149236 
L 391.15008 217.910101 
L 391.5072 222.070932 
L 391.86432 218.615662 
L 392.22144 220.682889 
L 392.57856 217.50869 
L 393.2928 221.133756 
L 393.64992 220.518863 
L 394.00704 222.963598 
L 394.36416 218.058467 
L 394.72128 222.173139 
L 395.0784 222.240728 
L 395.43552 219.623724 
L 395.79264 220.790042 
L 396.14976 219.101147 
L 396.50688 218.333767 
L 396.864 218.295852 
L 397.22112 221.091719 
L 397.57824 222.413821 
L 397.93536 220.148773 
L 398.29248 221.202993 
L 398.6496 221.058749 
L 399.00672 221.718151 
L 399.36384 223.97743 
L 399.72096 220.909559 
L 400.07808 221.36125 
L 400.4352 223.224887 
L 400.79232 223.970836 
L 401.14944 219.992165 
L 401.86368 220.813121 
L 402.2208 220.525457 
L 402.57792 221.226896 
L 402.93504 222.228364 
L 403.29216 221.967076 
L 403.64928 220.237793 
L 404.0064 222.56466 
L 404.36352 221.950591 
L 404.72064 222.892712 
L 405.07776 224.884109 
L 405.43488 223.837307 
L 405.792 220.29549 
L 406.14912 221.676939 
L 406.50624 222.305844 
L 407.22048 225.459437 
L 407.93472 221.42719 
L 408.64896 221.083476 
L 409.00608 223.339458 
L 409.3632 221.220302 
L 409.72032 226.162525 
L 410.07744 223.382319 
L 410.43456 225.989432 
L 410.79168 221.586271 
L 411.1488 226.052075 
L 411.50592 221.732164 
L 411.86304 222.974314 
L 412.22016 224.831356 
L 412.57728 224.031006 
L 412.9344 224.10931 
L 413.29152 226.329849 
L 413.64864 224.71184 
L 414.00576 222.004992 
L 414.36288 222.173139 
L 414.72 227.024694 
L 414.72 227.024694 
" style="fill:none;stroke:#000080;stroke-linecap:square;stroke-width:0.5;"/>
   </g>
   <g id="patch_3">
    <path d="M 57.6 307.584 
L 57.6 41.472 
" style="fill:none;stroke:#000000;stroke-linecap:square;stroke-linejoin:miter;stroke-width:0.8;"/>
   </g>
   <g id="patch_4">
    <path d="M 414.72 307.584 
L 414.72 41.472 
" style="fill:none;stroke:#000000;stroke-linecap:square;stroke-linejoin:miter;stroke-width:0.8;"/>
   </g>
   <g id="patch_5">
    <path d="M 57.6 307.584 
L 414.72 307.584 
" style="fill:none;stroke:#000000;stroke-linecap:square;stroke-linejoin:miter;stroke-width:0.8;"/>
   </g>
   <g id="patch_6">
    <path d="M 57.6 41.472 
L 414.72 41.472 
" style="fill:none;stroke:#000000;stroke-linecap:square;stroke-linejoin:miter;stroke-width:0.8;"/>
   </g>
   <g id="text_16">
    <!-- Test -->
    <defs>
     <path d="M -0.296875 72.90625 
L 61.375 72.90625 
L 61.375 64.59375 
L 35.5 64.59375 
L 35.5 0 
L 25.59375 0 
L 25.59375 64.59375 
L -0.296875 64.59375 
z
" id="DejaVuSans-54"/>
    </defs>
    <g transform="translate(223.341563 35.472)scale(0.12 -0.12)">
     <use xlink:href="#DejaVuSans-54"/>
     <use x="60.818359" xlink:href="#DejaVuSans-65"/>
     <use x="122.341797" xlink:href="#DejaVuSans-73"/>
     <use x="174.441406" xlink:href="#DejaVuSans-74"/>
    </g>
   </g>
   <g id="legend_1">
    <g id="patch_7">
     <path d="M 166.043437 302.584 
L 407.72 302.584 
Q 409.72 302.584 409.72 300.584 
L 409.72 286.905875 
Q 409.72 284.905875 407.72 284.905875 
L 166.043437 284.905875 
Q 164.043437 284.905875 164.043437 286.905875 
L 164.043437 300.584 
Q 164.043437 302.584 166.043437 302.584 
z
" style="fill:#ffffff;opacity:0.8;stroke:#cccccc;stroke-linejoin:miter;"/>
    </g>
    <g id="line2d_28">
     <path d="M 168.043437 293.004312 
L 188.043437 293.004312 
" style="fill:none;stroke:#000080;stroke-linecap:square;stroke-width:0.5;"/>
    </g>
    <g id="line2d_29"/>
    <g id="text_17">
     <!-- Successful download requests per second -->
     <g transform="translate(196.043437 296.504312)scale(0.1 -0.1)">
      <use xlink:href="#DejaVuSans-53"/>
      <use x="63.476562" xlink:href="#DejaVuSans-75"/>
      <use x="126.855469" xlink:href="#DejaVuSans-63"/>
      <use x="181.835938" xlink:href="#DejaVuSans-63"/>
      <use x="236.816406" xlink:href="#DejaVuSans-65"/>
      <use x="298.339844" xlink:href="#DejaVuSans-73"/>
      <use x="350.439453" xlink:href="#DejaVuSans-73"/>
      <use x="402.539062" xlink:href="#DejaVuSans-66"/>
      <use x="437.744141" xlink:href="#DejaVuSans-75"/>
      <use x="501.123047" xlink:href="#DejaVuSans-6c"/>
      <use x="528.90625" xlink:href="#DejaVuSans-20"/>
      <use x="560.693359" xlink:href="#DejaVuSans-64"/>
      <use x="624.169922" xlink:href="#DejaVuSans-6f"/>
      <use x="685.351562" xlink:href="#DejaVuSans-77"/>
      <use x="767.138672" xlink:href="#DejaVuSans-6e"/>
      <use x="830.517578" xlink:href="#DejaVuSans-6c"/>
      <use x="858.300781" xlink:href="#DejaVuSans-6f"/>
      <use x="919.482422" xlink:href="#DejaVuSans-61"/>
      <use x="980.761719" xlink:href="#DejaVuSans-64"/>
      <use x="1044.238281" xlink:href="#DejaVuSans-20"/>
      <use x="1076.025391" xlink:href="#DejaVuSans-72"/>
      <use x="1117.107422" xlink:href="#DejaVuSans-65"/>
      <use x="1178.630859" xlink:href="#DejaVuSans-71"/>
      <use x="1242.107422" xlink:href="#DejaVuSans-75"/>
      <use x="1305.486328" xlink:href="#DejaVuSans-65"/>
      <use x="1367.009766" xlink:href="#DejaVuSans-73"/>
      <use x="1419.109375" xlink:href="#DejaVuSans-74"/>
      <use x="1458.318359" xlink:href="#DejaVuSans-73"/>
      <use x="1510.417969" xlink:href="#DejaVuSans-20"/>
      <use x="1542.205078" xlink:href="#DejaVuSans-70"/>
      <use x="1605.681641" xlink:href="#DejaVuSans-65"/>
      <use x="1667.205078" xlink:href="#DejaVuSans-72"/>
      <use x="1708.318359" xlink:href="#DejaVuSans-20"/>
      <use x="1740.105469" xlink:href="#DejaVuSans-73"/>
      <use x="1792.205078" xlink:href="#DejaVuSans-65"/>
      <use x="1853.728516" xlink:href="#DejaVuSans-63"/>
      <use x="1908.708984" xlink:href="#DejaVuSans-6f"/>
      <use x="1969.890625" xlink:href="#DejaVuSans-6e"/>
      <use x="2033.269531" xlink:href="#DejaVuSans-64"/>
     </g>
    </g>
   </g>
  </g>
 </g>
 <defs>
  <clipPath id="pa26e382dc9">
   <rect height="266.112" width="357.12" x="57.6" y="41.472"/>
  </clipPath>
 </defs>
</svg>
