<?xml version="1.0" encoding="utf-8" standalone="no"?>
<!DOCTYPE svg PUBLIC "-//W3C//DTD SVG 1.1//EN"
  "http://www.w3.org/Graphics/SVG/1.1/DTD/svg11.dtd">
<!-- Created with matplotlib (http://matplotlib.org/) -->
<svg height="345pt" version="1.1" viewBox="0 0 460 345" width="460pt" xmlns="http://www.w3.org/2000/svg" xmlns:xlink="http://www.w3.org/1999/xlink">
 <defs>
  <style type="text/css">
*{stroke-linecap:butt;stroke-linejoin:round;}
  </style>
 </defs>
 <g id="figure_1">
  <g id="patch_1">
   <path d="M 0 345.6 
L 460.8 345.6 
L 460.8 0 
L 0 0 
z
" style="fill:#ffffff;"/>
  </g>
  <g id="axes_1">
   <g id="patch_2">
    <path d="M 57.6 307.584 
L 414.72 307.584 
L 414.72 41.472 
L 57.6 41.472 
z
" style="fill:#ffffff;"/>
   </g>
   <g id="matplotlib.axis_1">
    <g id="xtick_1">
     <g id="line2d_1">
      <path clip-path="url(#p94ea43b4fa)" d="M 57.6 307.584 
L 57.6 41.472 
" style="fill:none;stroke:#b0b0b0;stroke-linecap:square;stroke-width:0.8;"/>
     </g>
     <g id="line2d_2">
      <defs>
       <path d="M 0 0 
L 0 3.5 
" id="m599058b1b0" style="stroke:#000000;stroke-width:0.8;"/>
      </defs>
      <g>
       <use style="stroke:#000000;stroke-width:0.8;" x="57.6" xlink:href="#m599058b1b0" y="307.584"/>
      </g>
     </g>
     <g id="text_1">
      <!-- 0 -->
      <defs>
       <path d="M 31.78125 66.40625 
Q 24.171875 66.40625 20.328125 58.90625 
Q 16.5 51.421875 16.5 36.375 
Q 16.5 21.390625 20.328125 13.890625 
Q 24.171875 6.390625 31.78125 6.390625 
Q 39.453125 6.390625 43.28125 13.890625 
Q 47.125 21.390625 47.125 36.375 
Q 47.125 51.421875 43.28125 58.90625 
Q 39.453125 66.40625 31.78125 66.40625 
M 31.78125 74.21875 
Q 44.046875 74.21875 50.515625 64.515625 
Q 56.984375 54.828125 56.984375 36.375 
Q 56.984375 17.96875 50.515625 8.265625 
Q 44.046875 -1.421875 31.78125 -1.421875 
Q 19.53125 -1.421875 13.0625 8.265625 
Q 6.59375 17.96875 6.59375 36.375 
Q 6.59375 54.828125 13.0625 64.515625 
Q 19.53125 74.21875 31.78125 74.21875 
" id="DejaVuSans-30"/>
      </defs>
      <g transform="translate(54.41875 322.182437)scale(0.1 -0.1)">
       <use xlink:href="#DejaVuSans-30"/>
      </g>
     </g>
    </g>
    <g id="xtick_2">
     <g id="line2d_3">
      <path clip-path="url(#p94ea43b4fa)" d="M 129.024 307.584 
L 129.024 41.472 
" style="fill:none;stroke:#b0b0b0;stroke-linecap:square;stroke-width:0.8;"/>
     </g>
     <g id="line2d_4">
      <g>
       <use style="stroke:#000000;stroke-width:0.8;" x="129.024" xlink:href="#m599058b1b0" y="307.584"/>
      </g>
     </g>
     <g id="text_2">
      <!-- 200 -->
      <defs>
       <path d="M 19.1875 8.296875 
L 53.609375 8.296875 
L 53.609375 0 
L 7.328125 0 
L 7.328125 8.296875 
Q 12.9375 14.109375 22.625 23.890625 
Q 32.328125 33.6875 34.8125 36.53125 
Q 39.546875 41.84375 41.421875 45.53125 
Q 43.3125 49.21875 43.3125 52.78125 
Q 43.3125 58.59375 39.234375 62.25 
Q 35.15625 65.921875 28.609375 65.921875 
Q 23.96875 65.921875 18.8125 64.3125 
Q 13.671875 62.703125 7.8125 59.421875 
L 7.8125 69.390625 
Q 13.765625 71.78125 18.9375 73 
Q 24.125 74.21875 28.421875 74.21875 
Q 39.75 74.21875 46.484375 68.546875 
Q 53.21875 62.890625 53.21875 53.421875 
Q 53.21875 48.921875 51.53125 44.890625 
Q 49.859375 40.875 45.40625 35.40625 
Q 44.1875 33.984375 37.640625 27.21875 
Q 31.109375 20.453125 19.1875 8.296875 
" id="DejaVuSans-32"/>
      </defs>
      <g transform="translate(119.48025 322.182437)scale(0.1 -0.1)">
       <use xlink:href="#DejaVuSans-32"/>
       <use x="63.623047" xlink:href="#DejaVuSans-30"/>
       <use x="127.246094" xlink:href="#DejaVuSans-30"/>
      </g>
     </g>
    </g>
    <g id="xtick_3">
     <g id="line2d_5">
      <path clip-path="url(#p94ea43b4fa)" d="M 200.448 307.584 
L 200.448 41.472 
" style="fill:none;stroke:#b0b0b0;stroke-linecap:square;stroke-width:0.8;"/>
     </g>
     <g id="line2d_6">
      <g>
       <use style="stroke:#000000;stroke-width:0.8;" x="200.448" xlink:href="#m599058b1b0" y="307.584"/>
      </g>
     </g>
     <g id="text_3">
      <!-- 400 -->
      <defs>
       <path d="M 37.796875 64.3125 
L 12.890625 25.390625 
L 37.796875 25.390625 
z
M 35.203125 72.90625 
L 47.609375 72.90625 
L 47.609375 25.390625 
L 58.015625 25.390625 
L 58.015625 17.1875 
L 47.609375 17.1875 
L 47.609375 0 
L 37.796875 0 
L 37.796875 17.1875 
L 4.890625 17.1875 
L 4.890625 26.703125 
z
" id="DejaVuSans-34"/>
      </defs>
      <g transform="translate(190.90425 322.182437)scale(0.1 -0.1)">
       <use xlink:href="#DejaVuSans-34"/>
       <use x="63.623047" xlink:href="#DejaVuSans-30"/>
       <use x="127.246094" xlink:href="#DejaVuSans-30"/>
      </g>
     </g>
    </g>
    <g id="xtick_4">
     <g id="line2d_7">
      <path clip-path="url(#p94ea43b4fa)" d="M 271.872 307.584 
L 271.872 41.472 
" style="fill:none;stroke:#b0b0b0;stroke-linecap:square;stroke-width:0.8;"/>
     </g>
     <g id="line2d_8">
      <g>
       <use style="stroke:#000000;stroke-width:0.8;" x="271.872" xlink:href="#m599058b1b0" y="307.584"/>
      </g>
     </g>
     <g id="text_4">
      <!-- 600 -->
      <defs>
       <path d="M 33.015625 40.375 
Q 26.375 40.375 22.484375 35.828125 
Q 18.609375 31.296875 18.609375 23.390625 
Q 18.609375 15.53125 22.484375 10.953125 
Q 26.375 6.390625 33.015625 6.390625 
Q 39.65625 6.390625 43.53125 10.953125 
Q 47.40625 15.53125 47.40625 23.390625 
Q 47.40625 31.296875 43.53125 35.828125 
Q 39.65625 40.375 33.015625 40.375 
M 52.59375 71.296875 
L 52.59375 62.3125 
Q 48.875 64.0625 45.09375 64.984375 
Q 41.3125 65.921875 37.59375 65.921875 
Q 27.828125 65.921875 22.671875 59.328125 
Q 17.53125 52.734375 16.796875 39.40625 
Q 19.671875 43.65625 24.015625 45.921875 
Q 28.375 48.1875 33.59375 48.1875 
Q 44.578125 48.1875 50.953125 41.515625 
Q 57.328125 34.859375 57.328125 23.390625 
Q 57.328125 12.15625 50.6875 5.359375 
Q 44.046875 -1.421875 33.015625 -1.421875 
Q 20.359375 -1.421875 13.671875 8.265625 
Q 6.984375 17.96875 6.984375 36.375 
Q 6.984375 53.65625 15.1875 63.9375 
Q 23.390625 74.21875 37.203125 74.21875 
Q 40.921875 74.21875 44.703125 73.484375 
Q 48.484375 72.75 52.59375 71.296875 
" id="DejaVuSans-36"/>
      </defs>
      <g transform="translate(262.32825 322.182437)scale(0.1 -0.1)">
       <use xlink:href="#DejaVuSans-36"/>
       <use x="63.623047" xlink:href="#DejaVuSans-30"/>
       <use x="127.246094" xlink:href="#DejaVuSans-30"/>
      </g>
     </g>
    </g>
    <g id="xtick_5">
     <g id="line2d_9">
      <path clip-path="url(#p94ea43b4fa)" d="M 343.296 307.584 
L 343.296 41.472 
" style="fill:none;stroke:#b0b0b0;stroke-linecap:square;stroke-width:0.8;"/>
     </g>
     <g id="line2d_10">
      <g>
       <use style="stroke:#000000;stroke-width:0.8;" x="343.296" xlink:href="#m599058b1b0" y="307.584"/>
      </g>
     </g>
     <g id="text_5">
      <!-- 800 -->
      <defs>
       <path d="M 31.78125 34.625 
Q 24.75 34.625 20.71875 30.859375 
Q 16.703125 27.09375 16.703125 20.515625 
Q 16.703125 13.921875 20.71875 10.15625 
Q 24.75 6.390625 31.78125 6.390625 
Q 38.8125 6.390625 42.859375 10.171875 
Q 46.921875 13.96875 46.921875 20.515625 
Q 46.921875 27.09375 42.890625 30.859375 
Q 38.875 34.625 31.78125 34.625 
M 21.921875 38.8125 
Q 15.578125 40.375 12.03125 44.71875 
Q 8.5 49.078125 8.5 55.328125 
Q 8.5 64.0625 14.71875 69.140625 
Q 20.953125 74.21875 31.78125 74.21875 
Q 42.671875 74.21875 48.875 69.140625 
Q 55.078125 64.0625 55.078125 55.328125 
Q 55.078125 49.078125 51.53125 44.71875 
Q 48 40.375 41.703125 38.8125 
Q 48.828125 37.15625 52.796875 32.3125 
Q 56.78125 27.484375 56.78125 20.515625 
Q 56.78125 9.90625 50.3125 4.234375 
Q 43.84375 -1.421875 31.78125 -1.421875 
Q 19.734375 -1.421875 13.25 4.234375 
Q 6.78125 9.90625 6.78125 20.515625 
Q 6.78125 27.484375 10.78125 32.3125 
Q 14.796875 37.15625 21.921875 38.8125 
M 18.3125 54.390625 
Q 18.3125 48.734375 21.84375 45.5625 
Q 25.390625 42.390625 31.78125 42.390625 
Q 38.140625 42.390625 41.71875 45.5625 
Q 45.3125 48.734375 45.3125 54.390625 
Q 45.3125 60.0625 41.71875 63.234375 
Q 38.140625 66.40625 31.78125 66.40625 
Q 25.390625 66.40625 21.84375 63.234375 
Q 18.3125 60.0625 18.3125 54.390625 
" id="DejaVuSans-38"/>
      </defs>
      <g transform="translate(333.75225 322.182437)scale(0.1 -0.1)">
       <use xlink:href="#DejaVuSans-38"/>
       <use x="63.623047" xlink:href="#DejaVuSans-30"/>
       <use x="127.246094" xlink:href="#DejaVuSans-30"/>
      </g>
     </g>
    </g>
    <g id="xtick_6">
     <g id="line2d_11">
      <path clip-path="url(#p94ea43b4fa)" d="M 414.72 307.584 
L 414.72 41.472 
" style="fill:none;stroke:#b0b0b0;stroke-linecap:square;stroke-width:0.8;"/>
     </g>
     <g id="line2d_12">
      <g>
       <use style="stroke:#000000;stroke-width:0.8;" x="414.72" xlink:href="#m599058b1b0" y="307.584"/>
      </g>
     </g>
     <g id="text_6">
      <!-- 1000 -->
      <defs>
       <path d="M 12.40625 8.296875 
L 28.515625 8.296875 
L 28.515625 63.921875 
L 10.984375 60.40625 
L 10.984375 69.390625 
L 28.421875 72.90625 
L 38.28125 72.90625 
L 38.28125 8.296875 
L 54.390625 8.296875 
L 54.390625 0 
L 12.40625 0 
z
" id="DejaVuSans-31"/>
      </defs>
      <g transform="translate(401.995 322.182437)scale(0.1 -0.1)">
       <use xlink:href="#DejaVuSans-31"/>
       <use x="63.623047" xlink:href="#DejaVuSans-30"/>
       <use x="127.246094" xlink:href="#DejaVuSans-30"/>
       <use x="190.869141" xlink:href="#DejaVuSans-30"/>
      </g>
     </g>
    </g>
    <g id="text_7">
     <!-- Number of clients -->
     <defs>
      <path d="M 9.8125 72.90625 
L 23.09375 72.90625 
L 55.421875 11.921875 
L 55.421875 72.90625 
L 64.984375 72.90625 
L 64.984375 0 
L 51.703125 0 
L 19.390625 60.984375 
L 19.390625 0 
L 9.8125 0 
z
" id="DejaVuSans-4e"/>
      <path d="M 8.5 21.578125 
L 8.5 54.6875 
L 17.484375 54.6875 
L 17.484375 21.921875 
Q 17.484375 14.15625 20.5 10.265625 
Q 23.53125 6.390625 29.59375 6.390625 
Q 36.859375 6.390625 41.078125 11.03125 
Q 45.3125 15.671875 45.3125 23.6875 
L 45.3125 54.6875 
L 54.296875 54.6875 
L 54.296875 0 
L 45.3125 0 
L 45.3125 8.40625 
Q 42.046875 3.421875 37.71875 1 
Q 33.40625 -1.421875 27.6875 -1.421875 
Q 18.265625 -1.421875 13.375 4.4375 
Q 8.5 10.296875 8.5 21.578125 
M 31.109375 56 
z
" id="DejaVuSans-75"/>
      <path d="M 52 44.1875 
Q 55.375 50.25 60.0625 53.125 
Q 64.75 56 71.09375 56 
Q 79.640625 56 84.28125 50.015625 
Q 88.921875 44.046875 88.921875 33.015625 
L 88.921875 0 
L 79.890625 0 
L 79.890625 32.71875 
Q 79.890625 40.578125 77.09375 44.375 
Q 74.3125 48.1875 68.609375 48.1875 
Q 61.625 48.1875 57.5625 43.546875 
Q 53.515625 38.921875 53.515625 30.90625 
L 53.515625 0 
L 44.484375 0 
L 44.484375 32.71875 
Q 44.484375 40.625 41.703125 44.40625 
Q 38.921875 48.1875 33.109375 48.1875 
Q 26.21875 48.1875 22.15625 43.53125 
Q 18.109375 38.875 18.109375 30.90625 
L 18.109375 0 
L 9.078125 0 
L 9.078125 54.6875 
L 18.109375 54.6875 
L 18.109375 46.1875 
Q 21.1875 51.21875 25.484375 53.609375 
Q 29.78125 56 35.6875 56 
Q 41.65625 56 45.828125 52.96875 
Q 50 49.953125 52 44.1875 
" id="DejaVuSans-6d"/>
      <path d="M 48.6875 27.296875 
Q 48.6875 37.203125 44.609375 42.84375 
Q 40.53125 48.484375 33.40625 48.484375 
Q 26.265625 48.484375 22.1875 42.84375 
Q 18.109375 37.203125 18.109375 27.296875 
Q 18.109375 17.390625 22.1875 11.75 
Q 26.265625 6.109375 33.40625 6.109375 
Q 40.53125 6.109375 44.609375 11.75 
Q 48.6875 17.390625 48.6875 27.296875 
M 18.109375 46.390625 
Q 20.953125 51.265625 25.265625 53.625 
Q 29.59375 56 35.59375 56 
Q 45.5625 56 51.78125 48.09375 
Q 58.015625 40.1875 58.015625 27.296875 
Q 58.015625 14.40625 51.78125 6.484375 
Q 45.5625 -1.421875 35.59375 -1.421875 
Q 29.59375 -1.421875 25.265625 0.953125 
Q 20.953125 3.328125 18.109375 8.203125 
L 18.109375 0 
L 9.078125 0 
L 9.078125 75.984375 
L 18.109375 75.984375 
z
" id="DejaVuSans-62"/>
      <path d="M 56.203125 29.59375 
L 56.203125 25.203125 
L 14.890625 25.203125 
Q 15.484375 15.921875 20.484375 11.0625 
Q 25.484375 6.203125 34.421875 6.203125 
Q 39.59375 6.203125 44.453125 7.46875 
Q 49.3125 8.734375 54.109375 11.28125 
L 54.109375 2.78125 
Q 49.265625 0.734375 44.1875 -0.34375 
Q 39.109375 -1.421875 33.890625 -1.421875 
Q 20.796875 -1.421875 13.15625 6.1875 
Q 5.515625 13.8125 5.515625 26.8125 
Q 5.515625 40.234375 12.765625 48.109375 
Q 20.015625 56 32.328125 56 
Q 43.359375 56 49.78125 48.890625 
Q 56.203125 41.796875 56.203125 29.59375 
M 47.21875 32.234375 
Q 47.125 39.59375 43.09375 43.984375 
Q 39.0625 48.390625 32.421875 48.390625 
Q 24.90625 48.390625 20.390625 44.140625 
Q 15.875 39.890625 15.1875 32.171875 
z
" id="DejaVuSans-65"/>
      <path d="M 41.109375 46.296875 
Q 39.59375 47.171875 37.8125 47.578125 
Q 36.03125 48 33.890625 48 
Q 26.265625 48 22.1875 43.046875 
Q 18.109375 38.09375 18.109375 28.8125 
L 18.109375 0 
L 9.078125 0 
L 9.078125 54.6875 
L 18.109375 54.6875 
L 18.109375 46.1875 
Q 20.953125 51.171875 25.484375 53.578125 
Q 30.03125 56 36.53125 56 
Q 37.453125 56 38.578125 55.875 
Q 39.703125 55.765625 41.0625 55.515625 
z
" id="DejaVuSans-72"/>
      <path id="DejaVuSans-20"/>
      <path d="M 30.609375 48.390625 
Q 23.390625 48.390625 19.1875 42.75 
Q 14.984375 37.109375 14.984375 27.296875 
Q 14.984375 17.484375 19.15625 11.84375 
Q 23.34375 6.203125 30.609375 6.203125 
Q 37.796875 6.203125 41.984375 11.859375 
Q 46.1875 17.53125 46.1875 27.296875 
Q 46.1875 37.015625 41.984375 42.703125 
Q 37.796875 48.390625 30.609375 48.390625 
M 30.609375 56 
Q 42.328125 56 49.015625 48.375 
Q 55.71875 40.765625 55.71875 27.296875 
Q 55.71875 13.875 49.015625 6.21875 
Q 42.328125 -1.421875 30.609375 -1.421875 
Q 18.84375 -1.421875 12.171875 6.21875 
Q 5.515625 13.875 5.515625 27.296875 
Q 5.515625 40.765625 12.171875 48.375 
Q 18.84375 56 30.609375 56 
" id="DejaVuSans-6f"/>
      <path d="M 37.109375 75.984375 
L 37.109375 68.5 
L 28.515625 68.5 
Q 23.6875 68.5 21.796875 66.546875 
Q 19.921875 64.59375 19.921875 59.515625 
L 19.921875 54.6875 
L 34.71875 54.6875 
L 34.71875 47.703125 
L 19.921875 47.703125 
L 19.921875 0 
L 10.890625 0 
L 10.890625 47.703125 
L 2.296875 47.703125 
L 2.296875 54.6875 
L 10.890625 54.6875 
L 10.890625 58.5 
Q 10.890625 67.625 15.140625 71.796875 
Q 19.390625 75.984375 28.609375 75.984375 
z
" id="DejaVuSans-66"/>
      <path d="M 48.78125 52.59375 
L 48.78125 44.1875 
Q 44.96875 46.296875 41.140625 47.34375 
Q 37.3125 48.390625 33.40625 48.390625 
Q 24.65625 48.390625 19.8125 42.84375 
Q 14.984375 37.3125 14.984375 27.296875 
Q 14.984375 17.28125 19.8125 11.734375 
Q 24.65625 6.203125 33.40625 6.203125 
Q 37.3125 6.203125 41.140625 7.25 
Q 44.96875 8.296875 48.78125 10.40625 
L 48.78125 2.09375 
Q 45.015625 0.34375 40.984375 -0.53125 
Q 36.96875 -1.421875 32.421875 -1.421875 
Q 20.0625 -1.421875 12.78125 6.34375 
Q 5.515625 14.109375 5.515625 27.296875 
Q 5.515625 40.671875 12.859375 48.328125 
Q 20.21875 56 33.015625 56 
Q 37.15625 56 41.109375 55.140625 
Q 45.0625 54.296875 48.78125 52.59375 
" id="DejaVuSans-63"/>
      <path d="M 9.421875 75.984375 
L 18.40625 75.984375 
L 18.40625 0 
L 9.421875 0 
z
" id="DejaVuSans-6c"/>
      <path d="M 9.421875 54.6875 
L 18.40625 54.6875 
L 18.40625 0 
L 9.421875 0 
z
M 9.421875 75.984375 
L 18.40625 75.984375 
L 18.40625 64.59375 
L 9.421875 64.59375 
z
" id="DejaVuSans-69"/>
      <path d="M 54.890625 33.015625 
L 54.890625 0 
L 45.90625 0 
L 45.90625 32.71875 
Q 45.90625 40.484375 42.875 44.328125 
Q 39.84375 48.1875 33.796875 48.1875 
Q 26.515625 48.1875 22.3125 43.546875 
Q 18.109375 38.921875 18.109375 30.90625 
L 18.109375 0 
L 9.078125 0 
L 9.078125 54.6875 
L 18.109375 54.6875 
L 18.109375 46.1875 
Q 21.34375 51.125 25.703125 53.5625 
Q 30.078125 56 35.796875 56 
Q 45.21875 56 50.046875 50.171875 
Q 54.890625 44.34375 54.890625 33.015625 
" id="DejaVuSans-6e"/>
      <path d="M 18.3125 70.21875 
L 18.3125 54.6875 
L 36.8125 54.6875 
L 36.8125 47.703125 
L 18.3125 47.703125 
L 18.3125 18.015625 
Q 18.3125 11.328125 20.140625 9.421875 
Q 21.96875 7.515625 27.59375 7.515625 
L 36.8125 7.515625 
L 36.8125 0 
L 27.59375 0 
Q 17.1875 0 13.234375 3.875 
Q 9.28125 7.765625 9.28125 18.015625 
L 9.28125 47.703125 
L 2.6875 47.703125 
L 2.6875 54.6875 
L 9.28125 54.6875 
L 9.28125 70.21875 
z
" id="DejaVuSans-74"/>
      <path d="M 44.28125 53.078125 
L 44.28125 44.578125 
Q 40.484375 46.53125 36.375 47.5 
Q 32.28125 48.484375 27.875 48.484375 
Q 21.1875 48.484375 17.84375 46.4375 
Q 14.5 44.390625 14.5 40.28125 
Q 14.5 37.15625 16.890625 35.375 
Q 19.28125 33.59375 26.515625 31.984375 
L 29.59375 31.296875 
Q 39.15625 29.25 43.1875 25.515625 
Q 47.21875 21.78125 47.21875 15.09375 
Q 47.21875 7.46875 41.1875 3.015625 
Q 35.15625 -1.421875 24.609375 -1.421875 
Q 20.21875 -1.421875 15.453125 -0.5625 
Q 10.6875 0.296875 5.421875 2 
L 5.421875 11.28125 
Q 10.40625 8.6875 15.234375 7.390625 
Q 20.0625 6.109375 24.8125 6.109375 
Q 31.15625 6.109375 34.5625 8.28125 
Q 37.984375 10.453125 37.984375 14.40625 
Q 37.984375 18.0625 35.515625 20.015625 
Q 33.0625 21.96875 24.703125 23.78125 
L 21.578125 24.515625 
Q 13.234375 26.265625 9.515625 29.90625 
Q 5.8125 33.546875 5.8125 39.890625 
Q 5.8125 47.609375 11.28125 51.796875 
Q 16.75 56 26.8125 56 
Q 31.78125 56 36.171875 55.265625 
Q 40.578125 54.546875 44.28125 53.078125 
" id="DejaVuSans-73"/>
     </defs>
     <g transform="translate(191.738906 335.860562)scale(0.1 -0.1)">
      <use xlink:href="#DejaVuSans-4e"/>
      <use x="74.804688" xlink:href="#DejaVuSans-75"/>
      <use x="138.183594" xlink:href="#DejaVuSans-6d"/>
      <use x="235.595703" xlink:href="#DejaVuSans-62"/>
      <use x="299.072266" xlink:href="#DejaVuSans-65"/>
      <use x="360.595703" xlink:href="#DejaVuSans-72"/>
      <use x="401.708984" xlink:href="#DejaVuSans-20"/>
      <use x="433.496094" xlink:href="#DejaVuSans-6f"/>
      <use x="494.677734" xlink:href="#DejaVuSans-66"/>
      <use x="529.882812" xlink:href="#DejaVuSans-20"/>
      <use x="561.669922" xlink:href="#DejaVuSans-63"/>
      <use x="616.650391" xlink:href="#DejaVuSans-6c"/>
      <use x="644.433594" xlink:href="#DejaVuSans-69"/>
      <use x="672.216797" xlink:href="#DejaVuSans-65"/>
      <use x="733.740234" xlink:href="#DejaVuSans-6e"/>
      <use x="797.119141" xlink:href="#DejaVuSans-74"/>
      <use x="836.328125" xlink:href="#DejaVuSans-73"/>
     </g>
    </g>
   </g>
   <g id="matplotlib.axis_2">
    <g id="ytick_1">
     <g id="line2d_13">
      <path clip-path="url(#p94ea43b4fa)" d="M 57.6 296.855775 
L 414.72 296.855775 
" style="fill:none;stroke:#b0b0b0;stroke-linecap:square;stroke-width:0.8;"/>
     </g>
     <g id="line2d_14">
      <defs>
       <path d="M 0 0 
L -3.5 0 
" id="mf09200a8bc" style="stroke:#000000;stroke-width:0.8;"/>
      </defs>
      <g>
       <use style="stroke:#000000;stroke-width:0.8;" x="57.6" xlink:href="#mf09200a8bc" y="296.855775"/>
      </g>
     </g>
     <g id="text_8">
      <!-- 0 -->
      <g transform="translate(44.2375 300.654994)scale(0.1 -0.1)">
       <use xlink:href="#DejaVuSans-30"/>
      </g>
     </g>
    </g>
    <g id="ytick_2">
     <g id="line2d_15">
      <path clip-path="url(#p94ea43b4fa)" d="M 57.6 262.175882 
L 414.72 262.175882 
" style="fill:none;stroke:#b0b0b0;stroke-linecap:square;stroke-width:0.8;"/>
     </g>
     <g id="line2d_16">
      <g>
       <use style="stroke:#000000;stroke-width:0.8;" x="57.6" xlink:href="#mf09200a8bc" y="262.175882"/>
      </g>
     </g>
     <g id="text_9">
      <!-- 25 -->
      <defs>
       <path d="M 10.796875 72.90625 
L 49.515625 72.90625 
L 49.515625 64.59375 
L 19.828125 64.59375 
L 19.828125 46.734375 
Q 21.96875 47.46875 24.109375 47.828125 
Q 26.265625 48.1875 28.421875 48.1875 
Q 40.625 48.1875 47.75 41.5 
Q 54.890625 34.8125 54.890625 23.390625 
Q 54.890625 11.625 47.5625 5.09375 
Q 40.234375 -1.421875 26.90625 -1.421875 
Q 22.3125 -1.421875 17.546875 -0.640625 
Q 12.796875 0.140625 7.71875 1.703125 
L 7.71875 11.625 
Q 12.109375 9.234375 16.796875 8.0625 
Q 21.484375 6.890625 26.703125 6.890625 
Q 35.15625 6.890625 40.078125 11.328125 
Q 45.015625 15.765625 45.015625 23.390625 
Q 45.015625 31 40.078125 35.4375 
Q 35.15625 39.890625 26.703125 39.890625 
Q 22.75 39.890625 18.8125 39.015625 
Q 14.890625 38.140625 10.796875 36.28125 
z
" id="DejaVuSans-35"/>
      </defs>
      <g transform="translate(37.875 265.9751)scale(0.1 -0.1)">
       <use xlink:href="#DejaVuSans-32"/>
       <use x="63.623047" xlink:href="#DejaVuSans-35"/>
      </g>
     </g>
    </g>
    <g id="ytick_3">
     <g id="line2d_17">
      <path clip-path="url(#p94ea43b4fa)" d="M 57.6 227.495988 
L 414.72 227.495988 
" style="fill:none;stroke:#b0b0b0;stroke-linecap:square;stroke-width:0.8;"/>
     </g>
     <g id="line2d_18">
      <g>
       <use style="stroke:#000000;stroke-width:0.8;" x="57.6" xlink:href="#mf09200a8bc" y="227.495988"/>
      </g>
     </g>
     <g id="text_10">
      <!-- 50 -->
      <g transform="translate(37.875 231.295207)scale(0.1 -0.1)">
       <use xlink:href="#DejaVuSans-35"/>
       <use x="63.623047" xlink:href="#DejaVuSans-30"/>
      </g>
     </g>
    </g>
    <g id="ytick_4">
     <g id="line2d_19">
      <path clip-path="url(#p94ea43b4fa)" d="M 57.6 192.816095 
L 414.72 192.816095 
" style="fill:none;stroke:#b0b0b0;stroke-linecap:square;stroke-width:0.8;"/>
     </g>
     <g id="line2d_20">
      <g>
       <use style="stroke:#000000;stroke-width:0.8;" x="57.6" xlink:href="#mf09200a8bc" y="192.816095"/>
      </g>
     </g>
     <g id="text_11">
      <!-- 75 -->
      <defs>
       <path d="M 8.203125 72.90625 
L 55.078125 72.90625 
L 55.078125 68.703125 
L 28.609375 0 
L 18.3125 0 
L 43.21875 64.59375 
L 8.203125 64.59375 
z
" id="DejaVuSans-37"/>
      </defs>
      <g transform="translate(37.875 196.615314)scale(0.1 -0.1)">
       <use xlink:href="#DejaVuSans-37"/>
       <use x="63.623047" xlink:href="#DejaVuSans-35"/>
      </g>
     </g>
    </g>
    <g id="ytick_5">
     <g id="line2d_21">
      <path clip-path="url(#p94ea43b4fa)" d="M 57.6 158.136202 
L 414.72 158.136202 
" style="fill:none;stroke:#b0b0b0;stroke-linecap:square;stroke-width:0.8;"/>
     </g>
     <g id="line2d_22">
      <g>
       <use style="stroke:#000000;stroke-width:0.8;" x="57.6" xlink:href="#mf09200a8bc" y="158.136202"/>
      </g>
     </g>
     <g id="text_12">
      <!-- 100 -->
      <g transform="translate(31.5125 161.93542)scale(0.1 -0.1)">
       <use xlink:href="#DejaVuSans-31"/>
       <use x="63.623047" xlink:href="#DejaVuSans-30"/>
       <use x="127.246094" xlink:href="#DejaVuSans-30"/>
      </g>
     </g>
    </g>
    <g id="ytick_6">
     <g id="line2d_23">
      <path clip-path="url(#p94ea43b4fa)" d="M 57.6 123.456308 
L 414.72 123.456308 
" style="fill:none;stroke:#b0b0b0;stroke-linecap:square;stroke-width:0.8;"/>
     </g>
     <g id="line2d_24">
      <g>
       <use style="stroke:#000000;stroke-width:0.8;" x="57.6" xlink:href="#mf09200a8bc" y="123.456308"/>
      </g>
     </g>
     <g id="text_13">
      <!-- 125 -->
      <g transform="translate(31.5125 127.255527)scale(0.1 -0.1)">
       <use xlink:href="#DejaVuSans-31"/>
       <use x="63.623047" xlink:href="#DejaVuSans-32"/>
       <use x="127.246094" xlink:href="#DejaVuSans-35"/>
      </g>
     </g>
    </g>
    <g id="ytick_7">
     <g id="line2d_25">
      <path clip-path="url(#p94ea43b4fa)" d="M 57.6 88.776415 
L 414.72 88.776415 
" style="fill:none;stroke:#b0b0b0;stroke-linecap:square;stroke-width:0.8;"/>
     </g>
     <g id="line2d_26">
      <g>
       <use style="stroke:#000000;stroke-width:0.8;" x="57.6" xlink:href="#mf09200a8bc" y="88.776415"/>
      </g>
     </g>
     <g id="text_14">
      <!-- 150 -->
      <g transform="translate(31.5125 92.575634)scale(0.1 -0.1)">
       <use xlink:href="#DejaVuSans-31"/>
       <use x="63.623047" xlink:href="#DejaVuSans-35"/>
       <use x="127.246094" xlink:href="#DejaVuSans-30"/>
      </g>
     </g>
    </g>
    <g id="ytick_8">
     <g id="line2d_27">
      <path clip-path="url(#p94ea43b4fa)" d="M 57.6 54.096522 
L 414.72 54.096522 
" style="fill:none;stroke:#b0b0b0;stroke-linecap:square;stroke-width:0.8;"/>
     </g>
     <g id="line2d_28">
      <g>
       <use style="stroke:#000000;stroke-width:0.8;" x="57.6" xlink:href="#mf09200a8bc" y="54.096522"/>
      </g>
     </g>
     <g id="text_15">
      <!-- 175 -->
      <g transform="translate(31.5125 57.89574)scale(0.1 -0.1)">
       <use xlink:href="#DejaVuSans-31"/>
       <use x="63.623047" xlink:href="#DejaVuSans-37"/>
       <use x="127.246094" xlink:href="#DejaVuSans-35"/>
      </g>
     </g>
    </g>
    <g id="text_16">
     <!-- Successful download requests per second -->
     <defs>
      <path d="M 53.515625 70.515625 
L 53.515625 60.890625 
Q 47.90625 63.578125 42.921875 64.890625 
Q 37.9375 66.21875 33.296875 66.21875 
Q 25.25 66.21875 20.875 63.09375 
Q 16.5 59.96875 16.5 54.203125 
Q 16.5 49.359375 19.40625 46.890625 
Q 22.3125 44.4375 30.421875 42.921875 
L 36.375 41.703125 
Q 47.40625 39.59375 52.65625 34.296875 
Q 57.90625 29 57.90625 20.125 
Q 57.90625 9.515625 50.796875 4.046875 
Q 43.703125 -1.421875 29.984375 -1.421875 
Q 24.8125 -1.421875 18.96875 -0.25 
Q 13.140625 0.921875 6.890625 3.21875 
L 6.890625 13.375 
Q 12.890625 10.015625 18.65625 8.296875 
Q 24.421875 6.59375 29.984375 6.59375 
Q 38.421875 6.59375 43.015625 9.90625 
Q 47.609375 13.234375 47.609375 19.390625 
Q 47.609375 24.75 44.3125 27.78125 
Q 41.015625 30.8125 33.5 32.328125 
L 27.484375 33.5 
Q 16.453125 35.6875 11.515625 40.375 
Q 6.59375 45.0625 6.59375 53.421875 
Q 6.59375 63.09375 13.40625 68.65625 
Q 20.21875 74.21875 32.171875 74.21875 
Q 37.3125 74.21875 42.625 73.28125 
Q 47.953125 72.359375 53.515625 70.515625 
" id="DejaVuSans-53"/>
      <path d="M 45.40625 46.390625 
L 45.40625 75.984375 
L 54.390625 75.984375 
L 54.390625 0 
L 45.40625 0 
L 45.40625 8.203125 
Q 42.578125 3.328125 38.25 0.953125 
Q 33.9375 -1.421875 27.875 -1.421875 
Q 17.96875 -1.421875 11.734375 6.484375 
Q 5.515625 14.40625 5.515625 27.296875 
Q 5.515625 40.1875 11.734375 48.09375 
Q 17.96875 56 27.875 56 
Q 33.9375 56 38.25 53.625 
Q 42.578125 51.265625 45.40625 46.390625 
M 14.796875 27.296875 
Q 14.796875 17.390625 18.875 11.75 
Q 22.953125 6.109375 30.078125 6.109375 
Q 37.203125 6.109375 41.296875 11.75 
Q 45.40625 17.390625 45.40625 27.296875 
Q 45.40625 37.203125 41.296875 42.84375 
Q 37.203125 48.484375 30.078125 48.484375 
Q 22.953125 48.484375 18.875 42.84375 
Q 14.796875 37.203125 14.796875 27.296875 
" id="DejaVuSans-64"/>
      <path d="M 4.203125 54.6875 
L 13.1875 54.6875 
L 24.421875 12.015625 
L 35.59375 54.6875 
L 46.1875 54.6875 
L 57.421875 12.015625 
L 68.609375 54.6875 
L 77.59375 54.6875 
L 63.28125 0 
L 52.6875 0 
L 40.921875 44.828125 
L 29.109375 0 
L 18.5 0 
z
" id="DejaVuSans-77"/>
      <path d="M 34.28125 27.484375 
Q 23.390625 27.484375 19.1875 25 
Q 14.984375 22.515625 14.984375 16.5 
Q 14.984375 11.71875 18.140625 8.90625 
Q 21.296875 6.109375 26.703125 6.109375 
Q 34.1875 6.109375 38.703125 11.40625 
Q 43.21875 16.703125 43.21875 25.484375 
L 43.21875 27.484375 
z
M 52.203125 31.203125 
L 52.203125 0 
L 43.21875 0 
L 43.21875 8.296875 
Q 40.140625 3.328125 35.546875 0.953125 
Q 30.953125 -1.421875 24.3125 -1.421875 
Q 15.921875 -1.421875 10.953125 3.296875 
Q 6 8.015625 6 15.921875 
Q 6 25.140625 12.171875 29.828125 
Q 18.359375 34.515625 30.609375 34.515625 
L 43.21875 34.515625 
L 43.21875 35.40625 
Q 43.21875 41.609375 39.140625 45 
Q 35.0625 48.390625 27.6875 48.390625 
Q 23 48.390625 18.546875 47.265625 
Q 14.109375 46.140625 10.015625 43.890625 
L 10.015625 52.203125 
Q 14.9375 54.109375 19.578125 55.046875 
Q 24.21875 56 28.609375 56 
Q 40.484375 56 46.34375 49.84375 
Q 52.203125 43.703125 52.203125 31.203125 
" id="DejaVuSans-61"/>
      <path d="M 14.796875 27.296875 
Q 14.796875 17.390625 18.875 11.75 
Q 22.953125 6.109375 30.078125 6.109375 
Q 37.203125 6.109375 41.296875 11.75 
Q 45.40625 17.390625 45.40625 27.296875 
Q 45.40625 37.203125 41.296875 42.84375 
Q 37.203125 48.484375 30.078125 48.484375 
Q 22.953125 48.484375 18.875 42.84375 
Q 14.796875 37.203125 14.796875 27.296875 
M 45.40625 8.203125 
Q 42.578125 3.328125 38.25 0.953125 
Q 33.9375 -1.421875 27.875 -1.421875 
Q 17.96875 -1.421875 11.734375 6.484375 
Q 5.515625 14.40625 5.515625 27.296875 
Q 5.515625 40.1875 11.734375 48.09375 
Q 17.96875 56 27.875 56 
Q 33.9375 56 38.25 53.625 
Q 42.578125 51.265625 45.40625 46.390625 
L 45.40625 54.6875 
L 54.390625 54.6875 
L 54.390625 -20.796875 
L 45.40625 -20.796875 
z
" id="DejaVuSans-71"/>
      <path d="M 18.109375 8.203125 
L 18.109375 -20.796875 
L 9.078125 -20.796875 
L 9.078125 54.6875 
L 18.109375 54.6875 
L 18.109375 46.390625 
Q 20.953125 51.265625 25.265625 53.625 
Q 29.59375 56 35.59375 56 
Q 45.5625 56 51.78125 48.09375 
Q 58.015625 40.1875 58.015625 27.296875 
Q 58.015625 14.40625 51.78125 6.484375 
Q 45.5625 -1.421875 35.59375 -1.421875 
Q 29.59375 -1.421875 25.265625 0.953125 
Q 20.953125 3.328125 18.109375 8.203125 
M 48.6875 27.296875 
Q 48.6875 37.203125 44.609375 42.84375 
Q 40.53125 48.484375 33.40625 48.484375 
Q 26.265625 48.484375 22.1875 42.84375 
Q 18.109375 37.203125 18.109375 27.296875 
Q 18.109375 17.390625 22.1875 11.75 
Q 26.265625 6.109375 33.40625 6.109375 
Q 40.53125 6.109375 44.609375 11.75 
Q 48.6875 17.390625 48.6875 27.296875 
" id="DejaVuSans-70"/>
     </defs>
     <g transform="translate(25.432812 279.366281)rotate(-90)scale(0.1 -0.1)">
      <use xlink:href="#DejaVuSans-53"/>
      <use x="63.476562" xlink:href="#DejaVuSans-75"/>
      <use x="126.855469" xlink:href="#DejaVuSans-63"/>
      <use x="181.835938" xlink:href="#DejaVuSans-63"/>
      <use x="236.816406" xlink:href="#DejaVuSans-65"/>
      <use x="298.339844" xlink:href="#DejaVuSans-73"/>
      <use x="350.439453" xlink:href="#DejaVuSans-73"/>
      <use x="402.539062" xlink:href="#DejaVuSans-66"/>
      <use x="437.744141" xlink:href="#DejaVuSans-75"/>
      <use x="501.123047" xlink:href="#DejaVuSans-6c"/>
      <use x="528.90625" xlink:href="#DejaVuSans-20"/>
      <use x="560.693359" xlink:href="#DejaVuSans-64"/>
      <use x="624.169922" xlink:href="#DejaVuSans-6f"/>
      <use x="685.351562" xlink:href="#DejaVuSans-77"/>
      <use x="767.138672" xlink:href="#DejaVuSans-6e"/>
      <use x="830.517578" xlink:href="#DejaVuSans-6c"/>
      <use x="858.300781" xlink:href="#DejaVuSans-6f"/>
      <use x="919.482422" xlink:href="#DejaVuSans-61"/>
      <use x="980.761719" xlink:href="#DejaVuSans-64"/>
      <use x="1044.238281" xlink:href="#DejaVuSans-20"/>
      <use x="1076.025391" xlink:href="#DejaVuSans-72"/>
      <use x="1117.107422" xlink:href="#DejaVuSans-65"/>
      <use x="1178.630859" xlink:href="#DejaVuSans-71"/>
      <use x="1242.107422" xlink:href="#DejaVuSans-75"/>
      <use x="1305.486328" xlink:href="#DejaVuSans-65"/>
      <use x="1367.009766" xlink:href="#DejaVuSans-73"/>
      <use x="1419.109375" xlink:href="#DejaVuSans-74"/>
      <use x="1458.318359" xlink:href="#DejaVuSans-73"/>
      <use x="1510.417969" xlink:href="#DejaVuSans-20"/>
      <use x="1542.205078" xlink:href="#DejaVuSans-70"/>
      <use x="1605.681641" xlink:href="#DejaVuSans-65"/>
      <use x="1667.205078" xlink:href="#DejaVuSans-72"/>
      <use x="1708.318359" xlink:href="#DejaVuSans-20"/>
      <use x="1740.105469" xlink:href="#DejaVuSans-73"/>
      <use x="1792.205078" xlink:href="#DejaVuSans-65"/>
      <use x="1853.728516" xlink:href="#DejaVuSans-63"/>
      <use x="1908.708984" xlink:href="#DejaVuSans-6f"/>
      <use x="1969.890625" xlink:href="#DejaVuSans-6e"/>
      <use x="2033.269531" xlink:href="#DejaVuSans-64"/>
     </g>
    </g>
   </g>
   <g id="line2d_29">
    <path clip-path="url(#p94ea43b4fa)" d="M 57.6 295.481064 
L 57.95712 295.488 
L 61.1712 282.99769 
L 61.52832 282.254153 
L 62.24256 278.892977 
L 62.59968 277.738831 
L 62.9568 276.205979 
L 63.31392 275.952122 
L 64.02816 272.833706 
L 64.7424 270.059315 
L 65.45664 267.136494 
L 65.81376 267.003323 
L 66.17088 263.662955 
L 66.528 263.234312 
L 66.88512 263.307833 
L 67.24224 259.769097 
L 67.59936 260.428015 
L 68.3136 258.11556 
L 68.67072 254.144018 
L 69.02784 253.618271 
L 69.38496 254.026107 
L 70.0992 248.826897 
L 70.45632 248.82551 
L 70.81344 245.798649 
L 71.17056 245.81807 
L 71.52768 246.194 
L 71.8848 244.347642 
L 72.24192 240.42604 
L 72.59904 238.650429 
L 72.95616 239.034682 
L 73.31328 238.94174 
L 73.6704 234.934132 
L 74.02752 236.95805 
L 74.74176 230.811386 
L 75.09888 231.714451 
L 75.81312 227.901049 
L 76.17024 224.827024 
L 76.52736 227.637482 
L 76.88448 222.539538 
L 77.2416 223.599355 
L 77.59872 223.217877 
L 77.95584 220.702891 
L 78.31296 221.69751 
L 78.67008 218.265588 
L 79.0272 218.936991 
L 79.38432 216.220861 
L 79.74144 218.167097 
L 80.09856 213.956958 
L 80.45568 215.745053 
L 80.8128 213.044183 
L 81.16992 213.01089 
L 81.52704 209.461057 
L 81.88416 212.06621 
L 82.24128 208.531635 
L 82.5984 208.886758 
L 82.95552 211.550173 
L 83.31264 208.990797 
L 83.66976 210.985585 
L 84.02688 208.055827 
L 84.384 208.617642 
L 84.74112 206.85729 
L 85.09824 209.996514 
L 85.45536 203.644545 
L 85.81248 205.940354 
L 86.1696 203.5086 
L 86.52672 205.395186 
L 86.88384 202.204636 
L 87.24096 201.960489 
L 87.59808 203.423981 
L 87.9552 206.520202 
L 88.31232 203.378203 
L 88.66944 201.434742 
L 89.02656 198.796296 
L 89.38368 198.260838 
L 90.09792 199.64526 
L 90.45504 201.52491 
L 90.81216 201.404224 
L 91.16928 202.104758 
L 91.88352 195.926188 
L 92.24064 199.616128 
L 92.59776 195.078611 
L 92.95488 194.619449 
L 93.312 196.872255 
L 93.66912 193.914754 
L 94.02624 194.207452 
L 94.38336 191.956034 
L 94.74048 191.484387 
L 95.0976 196.407545 
L 95.45472 190.864311 
L 95.81184 193.250287 
L 96.16896 191.295728 
L 96.52608 192.739799 
L 96.8832 194.867757 
L 97.24032 195.350502 
L 97.59744 192.455424 
L 97.95456 193.319647 
L 98.31168 188.195346 
L 98.6688 190.675652 
L 99.02592 186.321245 
L 99.38304 190.677039 
L 99.74016 192.270927 
L 100.09728 185.06722 
L 100.4544 187.930392 
L 100.81152 185.068607 
L 101.16864 185.480604 
L 101.52576 185.3835 
L 101.88288 183.940817 
L 102.24 184.696838 
L 102.59712 182.937874 
L 102.95424 186.903867 
L 103.31136 184.261259 
L 103.66848 187.804157 
L 104.0256 180.669809 
L 104.38272 187.303379 
L 104.73984 186.028546 
L 105.09696 180.024763 
L 105.45408 185.147677 
L 105.8112 181.195556 
L 106.16832 184.25571 
L 106.52544 178.662537 
L 106.88256 182.985039 
L 107.23968 179.612766 
L 107.95392 183.005847 
L 108.31104 176.717688 
L 108.66816 182.007066 
L 109.02528 179.874946 
L 109.73952 182.459292 
L 110.09664 180.156547 
L 110.45376 180.798818 
L 110.81088 174.220736 
L 111.168 174.176346 
L 111.52512 179.694611 
L 112.23936 174.127794 
L 112.59648 176.601164 
L 112.9536 174.126407 
L 113.31072 176.750981 
L 113.66784 172.579684 
L 114.02496 173.560431 
L 114.38208 178.40868 
L 114.7392 172.674013 
L 115.09632 176.590066 
L 115.45344 177.328055 
L 115.81056 176.936865 
L 116.16768 170.300521 
L 116.5248 170.353234 
L 116.88192 175.498343 
L 117.23904 171.481025 
L 117.59616 170.52386 
L 117.95328 172.757245 
L 118.3104 167.265337 
L 118.66752 174.220736 
L 119.02464 168.857837 
L 119.38176 174.582794 
L 120.096 168.985459 
L 120.45312 168.938295 
L 120.81024 168.5152 
L 121.16736 170.314393 
L 121.8816 164.259284 
L 122.23872 164.38968 
L 122.95296 171.623906 
L 123.31008 170.267228 
L 123.6672 164.381357 
L 124.02432 171.204973 
L 124.73856 163.528231 
L 125.09568 166.499605 
L 125.4528 168.533234 
L 125.80992 162.88596 
L 126.16704 163.703018 
L 126.52416 169.31145 
L 126.88128 161.612514 
L 127.2384 166.245748 
L 127.59552 162.085548 
L 127.95264 166.07651 
L 128.30976 164.292576 
L 128.66688 161.863597 
L 129.024 158.194464 
L 129.38112 164.728156 
L 129.73824 166.474635 
L 130.45248 158.483001 
L 130.8096 160.173992 
L 131.16672 156.636643 
L 131.88096 165.180382 
L 132.23808 161.469633 
L 132.5952 160.370974 
L 132.95232 157.751948 
L 133.30944 156.317588 
L 133.66656 157.847665 
L 134.02368 162.616844 
L 134.3808 155.682252 
L 134.73792 157.364921 
L 135.09504 154.682084 
L 135.45216 156.643579 
L 135.80928 162.006478 
L 136.1664 154.017617 
L 136.88064 159.397163 
L 137.23776 157.875409 
L 137.59488 154.349157 
L 137.952 158.381735 
L 138.30912 155.99992 
L 138.66624 156.019341 
L 139.02336 151.295939 
L 139.38048 152.848211 
L 139.7376 150.487204 
L 140.09472 155.553243 
L 140.45184 156.084539 
L 140.80896 153.164492 
L 141.16608 157.883732 
L 141.5232 158.416415 
L 141.88032 152.162937 
L 142.23744 152.608227 
L 142.95168 149.674308 
L 143.3088 155.809874 
L 143.66592 152.59158 
L 144.02304 152.12687 
L 144.38016 154.012069 
L 144.73728 149.004292 
L 145.0944 151.756488 
L 145.45152 156.299554 
L 145.80864 148.889155 
L 146.16576 152.124095 
L 146.52288 152.01312 
L 146.88 150.727189 
L 147.23712 147.823789 
L 147.59424 151.284842 
L 147.95136 149.84632 
L 148.30848 152.587419 
L 149.02272 146.679352 
L 149.37984 150.385939 
L 149.73696 144.540296 
L 150.4512 151.99786 
L 150.80832 144.126912 
L 151.52256 149.223469 
L 151.87968 148.41196 
L 152.2368 151.329232 
L 152.59392 150.06411 
L 152.95104 142.945021 
L 153.30816 151.982601 
L 153.66528 151.610833 
L 154.37952 142.66342 
L 154.73664 142.13906 
L 155.09376 142.710585 
L 155.45088 147.304977 
L 155.808 139.890416 
L 156.16512 149.432936 
L 156.52224 148.941868 
L 156.87936 146.571151 
L 157.23648 143.21275 
L 157.5936 142.735555 
L 157.95072 143.556774 
L 158.30784 143.148939 
L 159.02208 147.19955 
L 159.3792 142.291652 
L 159.73632 139.248144 
L 160.09344 138.322885 
L 160.45056 142.109929 
L 160.80768 139.674014 
L 161.1648 144.452903 
L 161.52192 140.689441 
L 161.87904 141.937917 
L 162.23616 145.546013 
L 162.59328 137.641772 
L 162.9504 135.436131 
L 163.30752 139.708693 
L 163.66464 146.056501 
L 164.02176 143.935479 
L 164.37888 143.627521 
L 164.736 136.246253 
L 165.09312 144.594397 
L 165.45024 140.800417 
L 165.80736 135.172563 
L 166.16448 135.519362 
L 166.5216 137.275552 
L 166.87872 137.902565 
L 167.59296 139.762794 
L 167.95008 143.630296 
L 168.3072 136.719287 
L 168.66432 133.839468 
L 169.02144 142.748039 
L 169.37856 142.481698 
L 169.73568 140.572916 
L 170.0928 140.640889 
L 170.44992 138.482412 
L 171.16416 131.096982 
L 171.52128 135.673341 
L 171.8784 138.548998 
L 172.23552 131.63244 
L 172.59264 141.659091 
L 172.94976 132.767166 
L 173.30688 136.932915 
L 173.664 136.935689 
L 174.02112 129.992775 
L 174.37824 134.677335 
L 174.73536 131.422973 
L 175.09248 139.157977 
L 175.4496 136.939851 
L 175.80672 136.652701 
L 176.16384 132.62151 
L 176.52096 132.862883 
L 176.87808 129.565518 
L 177.2352 134.215398 
L 177.59232 135.304347 
L 177.94944 137.21729 
L 178.30656 133.342852 
L 178.66368 135.19892 
L 179.0208 136.189378 
L 179.37792 134.487289 
L 179.73504 127.979954 
L 180.09216 130.188369 
L 180.44928 129.888735 
L 180.8064 134.933966 
L 181.16352 136.271222 
L 181.52064 128.509862 
L 181.87776 129.640427 
L 182.23488 126.129434 
L 182.592 130.660016 
L 182.94912 129.953933 
L 183.30624 128.631936 
L 183.66336 135.344576 
L 184.02048 130.250793 
L 184.3776 133.43302 
L 184.73472 135.069911 
L 185.09184 131.74619 
L 185.44896 126.94788 
L 185.80608 134.641267 
L 186.1632 130.031616 
L 186.52032 132.700581 
L 186.87744 123.042924 
L 187.23456 129.326921 
L 187.59168 131.540885 
L 187.9488 122.845942 
L 188.30592 133.399727 
L 188.66304 122.08021 
L 189.02016 133.342852 
L 189.37728 124.556354 
L 189.7344 132.894788 
L 190.09152 129.630716 
L 190.44864 130.625336 
L 190.80576 128.686036 
L 191.16288 129.594649 
L 191.52 127.899496 
L 191.87712 130.629497 
L 192.23424 122.271643 
L 192.59136 131.793355 
L 192.94848 131.225992 
L 193.3056 128.34756 
L 193.66272 119.807983 
L 194.01984 119.838502 
L 194.37696 120.354539 
L 194.73408 119.463959 
L 195.0912 128.029893 
L 195.44832 129.068902 
L 195.80544 121.035652 
L 196.16256 128.991219 
L 196.51968 119.366855 
L 196.8768 122.309097 
L 197.23392 130.001098 
L 197.59104 123.857208 
L 197.94816 129.025899 
L 198.30528 123.109509 
L 198.6624 121.955362 
L 199.01952 119.021444 
L 199.37664 128.813658 
L 199.73376 128.698521 
L 200.09088 121.8971 
L 200.448 122.801552 
L 200.80512 119.479218 
L 201.16224 118.685742 
L 201.51936 126.162727 
L 201.87648 122.949982 
L 202.2336 118.194675 
L 202.59072 117.222251 
L 202.94784 122.994372 
L 203.30496 116.840772 
L 204.0192 125.623108 
L 204.37632 123.109509 
L 204.73344 119.723365 
L 205.09056 122.205058 
L 205.44768 125.882514 
L 205.8048 124.774144 
L 206.51904 119.506962 
L 206.87616 125.227757 
L 207.23328 114.905634 
L 207.5904 114.737783 
L 207.94752 112.99824 
L 208.30464 114.930603 
L 208.66176 124.921187 
L 209.73312 115.285725 
L 210.09024 120.016063 
L 210.44736 121.10085 
L 210.80448 115.894704 
L 211.1616 120.989874 
L 211.51872 123.364753 
L 211.87584 112.258864 
L 212.23296 119.72059 
L 212.59008 116.421839 
L 212.9472 122.023335 
L 213.30432 111.586074 
L 213.66144 112.387874 
L 214.01856 118.406916 
L 214.37568 115.227463 
L 214.7328 121.024554 
L 215.08992 119.336337 
L 215.44704 120.819249 
L 215.80416 111.493132 
L 216.16128 113.970664 
L 216.5184 118.465178 
L 216.87552 110.535967 
L 217.23264 115.048515 
L 217.58976 117.49969 
L 217.94688 113.626639 
L 218.304 118.549797 
L 218.66112 118.026824 
L 219.01824 111.939809 
L 219.37536 110.723239 
L 219.73248 117.408135 
L 220.0896 110.327888 
L 220.44672 112.874779 
L 220.80384 109.521927 
L 221.16096 108.408009 
L 221.8752 115.618652 
L 222.23232 112.539078 
L 222.58944 115.208042 
L 222.94656 108.045951 
L 223.30368 116.960071 
L 223.6608 115.435543 
L 224.01792 116.180467 
L 224.37504 110.777339 
L 224.73216 114.409018 
L 225.08928 107.498009 
L 225.4464 107.879487 
L 225.80352 107.993237 
L 226.16064 114.078865 
L 226.51776 110.895251 
L 226.87488 112.584855 
L 227.232 118.043471 
L 227.58912 117.01001 
L 227.94624 107.059655 
L 228.30336 105.074578 
L 228.66048 110.491577 
L 229.0176 110.180845 
L 229.37472 113.04263 
L 229.73184 112.558499 
L 230.08896 111.735892 
L 230.44608 104.833206 
L 230.8032 114.868179 
L 231.16032 105.573968 
L 231.51744 104.121574 
L 231.87456 112.658377 
L 232.23168 111.534748 
L 232.5888 105.979029 
L 232.94592 114.128804 
L 233.30304 113.782005 
L 234.01728 105.533739 
L 234.3744 103.967595 
L 234.73152 109.252811 
L 235.08864 103.738708 
L 235.44576 104.396239 
L 235.80288 102.799577 
L 236.16 111.125525 
L 236.51712 105.886087 
L 236.87424 109.319397 
L 237.23136 111.398803 
L 237.58848 106.314731 
L 237.9456 114.343819 
L 238.30272 100.885246 
L 238.65984 104.107702 
L 239.01696 102.764897 
L 239.37408 111.146333 
L 239.7312 101.592716 
L 240.08832 101.211237 
L 240.44544 109.859016 
L 240.80256 106.003999 
L 241.15968 105.847246 
L 241.5168 105.567032 
L 241.87392 107.724121 
L 242.23104 106.114974 
L 242.58816 111.518102 
L 242.94528 103.254577 
L 243.3024 101.460933 
L 243.65952 111.414062 
L 244.01664 110.777339 
L 244.37376 111.183788 
L 244.73088 110.477705 
L 245.088 98.939011 
L 245.44512 104.1729 
L 245.80224 106.975036 
L 246.15936 107.424487 
L 246.51648 101.786924 
L 246.8736 110.153101 
L 247.23072 98.264834 
L 247.58784 105.08845 
L 247.94496 101.829927 
L 248.30208 101.578844 
L 248.6592 107.296865 
L 249.01632 107.961332 
L 249.73056 102.329317 
L 250.08768 108.485692 
L 250.4448 101.746695 
L 250.80192 106.588008 
L 251.15904 108.650768 
L 251.51616 101.039225 
L 251.87328 99.901725 
L 252.2304 103.853845 
L 252.58752 106.485356 
L 252.94464 96.412927 
L 253.30176 108.338649 
L 253.65888 107.614533 
L 254.016 96.719498 
L 254.37312 95.816433 
L 254.73024 107.023588 
L 255.08736 95.640259 
L 255.44448 101.075292 
L 255.8016 103.482077 
L 256.51584 96.028674 
L 256.87296 96.873476 
L 257.23008 101.516421 
L 257.5872 95.421082 
L 257.94432 94.900884 
L 258.30144 93.553917 
L 258.65856 103.853845 
L 259.01568 101.012868 
L 259.3728 97.127333 
L 259.72992 102.549881 
L 260.08704 92.772926 
L 260.44416 94.309939 
L 260.80128 94.805168 
L 261.1584 103.720675 
L 261.51552 99.366267 
L 261.87264 100.954606 
L 262.22976 96.293629 
L 262.58688 100.652198 
L 262.944 92.596752 
L 263.30112 92.334572 
L 263.65824 97.303507 
L 264.01536 93.462362 
L 264.37248 95.171387 
L 265.08672 104.851239 
L 265.44384 99.47863 
L 265.80096 98.008203 
L 266.15808 91.774145 
L 266.5152 91.324693 
L 266.87232 92.059907 
L 267.22944 95.629162 
L 267.58656 102.689988 
L 267.94368 96.963644 
L 268.3008 94.923079 
L 268.65792 100.460765 
L 269.01504 101.524744 
L 269.37216 97.873645 
L 269.72928 96.920641 
L 270.0864 97.170336 
L 270.44352 95.329528 
L 270.80064 90.504861 
L 271.15776 89.328519 
L 271.51488 102.197534 
L 271.872 92.213886 
L 272.22912 100.014088 
L 273.30048 90.563123 
L 273.6576 95.766494 
L 274.01472 98.958432 
L 274.37184 91.260882 
L 274.72896 94.880076 
L 275.08608 96.057805 
L 275.4432 87.731857 
L 275.80032 95.04654 
L 276.15744 93.280639 
L 276.87168 91.108291 
L 277.2288 97.193919 
L 277.58592 87.962131 
L 277.94304 96.994162 
L 278.30016 94.018628 
L 278.65728 92.96852 
L 279.0144 99.1027 
L 279.37152 93.694024 
L 279.72864 94.144862 
L 280.08576 95.305945 
L 280.8 86.057511 
L 281.15712 86.742786 
L 281.51424 98.900169 
L 281.87136 87.881674 
L 282.22848 95.851113 
L 282.5856 87.662497 
L 282.94272 90.545089 
L 283.29984 89.979114 
L 283.65696 97.476907 
L 284.3712 87.948259 
L 284.72832 87.305987 
L 285.08544 88.772253 
L 285.79968 94.194801 
L 286.1568 85.282069 
L 286.51392 97.469971 
L 286.87104 84.632861 
L 287.22816 92.735472 
L 287.58528 94.122667 
L 287.9424 89.037208 
L 288.29952 89.751614 
L 288.65664 94.545762 
L 289.01376 90.797559 
L 289.37088 84.938044 
L 289.728 97.797349 
L 290.08512 89.198122 
L 290.44224 95.860824 
L 291.15648 84.211154 
L 291.5136 83.489812 
L 291.87072 85.753715 
L 292.22784 94.502759 
L 292.58496 93.577499 
L 292.94208 85.57338 
L 293.2992 97.057973 
L 293.65632 88.462909 
L 294.01344 83.711763 
L 294.37056 95.347561 
L 294.72768 88.005134 
L 295.0848 88.897101 
L 295.44192 85.312587 
L 295.79904 89.160668 
L 296.15616 81.968058 
L 296.51328 90.528443 
L 296.8704 92.693856 
L 297.22752 83.513394 
L 297.58464 95.414147 
L 297.94176 83.079202 
L 298.29888 95.491829 
L 298.656 93.684313 
L 299.01312 81.65039 
L 299.37024 83.714538 
L 299.72736 87.265759 
L 300.08448 83.753379 
L 300.4416 85.168319 
L 300.79872 83.549461 
L 301.15584 88.841613 
L 301.51296 89.304936 
L 301.87008 83.33722 
L 302.2272 91.360761 
L 302.58432 85.631642 
L 302.94144 93.678765 
L 303.29856 92.790959 
L 303.65568 92.437224 
L 304.0128 93.286188 
L 304.36992 81.733622 
L 304.72704 88.806933 
L 305.08416 83.869904 
L 305.44128 87.238015 
L 305.7984 82.586748 
L 306.15552 83.022327 
L 306.51264 90.052635 
L 306.86976 78.294764 
L 307.22688 84.241672 
L 307.584 87.989875 
L 307.94112 78.022874 
L 308.29824 81.40347 
L 308.65536 79.342097 
L 309.01248 89.97079 
L 309.3696 80.110603 
L 309.72672 80.257646 
L 310.08384 92.16256 
L 310.44096 78.708148 
L 310.79808 78.547234 
L 311.1552 87.128426 
L 311.51232 78.289215 
L 311.86944 92.145913 
L 312.22656 76.982477 
L 312.58368 87.921902 
L 312.9408 77.741273 
L 313.29792 79.294932 
L 313.65504 89.880623 
L 314.01216 79.100725 
L 314.36928 79.235283 
L 314.7264 76.294428 
L 315.08352 80.217417 
L 315.44064 86.635972 
L 315.79776 83.509233 
L 316.15488 78.72202 
L 316.512 81.336884 
L 316.86912 76.62458 
L 317.22624 88.203503 
L 317.58336 87.584814 
L 317.94048 78.55417 
L 318.2976 84.901977 
L 319.01184 88.618275 
L 319.36896 88.295058 
L 319.72608 85.52899 
L 320.0832 88.315866 
L 320.44032 80.068987 
L 320.79744 78.090846 
L 321.15456 85.646901 
L 321.51168 82.983486 
L 321.8688 88.333899 
L 322.22592 88.462909 
L 322.58304 83.552236 
L 322.94016 75.466272 
L 323.29728 86.462572 
L 323.6544 79.54324 
L 324.01152 81.359079 
L 324.36864 81.252265 
L 324.72576 78.938423 
L 325.08288 85.921566 
L 325.44 82.167814 
L 325.79712 82.453577 
L 326.51136 73.414609 
L 326.86848 74.466104 
L 327.2256 81.826564 
L 327.58272 84.342937 
L 327.93984 77.941029 
L 328.29696 86.382115 
L 328.65408 74.237216 
L 329.0112 85.452694 
L 329.36832 84.577373 
L 329.72544 86.332176 
L 330.08256 84.985209 
L 330.43968 75.445464 
L 330.7968 73.9681 
L 331.15392 77.517934 
L 331.51104 72.239655 
L 332.22528 78.763636 
L 332.5824 83.159659 
L 332.93952 80.623866 
L 333.29664 80.314521 
L 333.65376 73.601881 
L 334.01088 72.625295 
L 334.368 83.911519 
L 334.72512 78.776121 
L 335.08224 78.878773 
L 335.43936 79.613987 
L 335.79648 79.573758 
L 336.1536 72.336758 
L 336.51072 75.752034 
L 336.86784 82.502129 
L 337.22496 80.003789 
L 337.58208 70.817779 
L 337.9392 76.255586 
L 338.29632 83.51062 
L 338.65344 73.965326 
L 339.01056 82.785117 
L 339.36768 82.62004 
L 339.7248 72.220234 
L 340.08192 83.661824 
L 340.43904 75.643833 
L 340.79616 74.647826 
L 341.15328 74.560433 
L 341.5104 73.644884 
L 341.86752 70.301742 
L 342.22464 75.847751 
L 342.58176 83.219309 
L 342.93888 70.787261 
L 343.296 80.543408 
L 343.65312 78.476487 
L 344.01024 73.930646 
L 344.36736 82.692174 
L 344.72448 77.791212 
L 345.0816 79.852585 
L 345.43872 80.249323 
L 345.79584 78.755313 
L 346.15296 83.272022 
L 346.51008 79.967722 
L 346.8672 80.332554 
L 347.22432 80.956793 
L 347.58144 67.772884 
L 347.93856 73.852963 
L 348.29568 77.898026 
L 348.6528 78.874612 
L 349.00992 75.785327 
L 349.36704 70.249029 
L 350.08128 79.204764 
L 350.4384 70.877428 
L 351.15264 78.121364 
L 351.50976 78.441807 
L 351.86688 72.521255 
L 352.224 74.63118 
L 352.93824 80.568378 
L 353.29536 72.848634 
L 353.65248 71.02031 
L 354.0096 78.17824 
L 354.36672 69.477748 
L 354.72384 67.258235 
L 355.08096 79.181182 
L 355.43808 73.984747 
L 355.7952 71.343526 
L 356.15232 65.510368 
L 356.50944 76.947797 
L 356.86656 77.40141 
L 357.22368 76.656486 
L 357.5808 72.292368 
L 357.93792 77.842538 
L 358.29504 76.170967 
L 359.00928 80.121701 
L 359.3664 69.022748 
L 359.72352 64.794575 
L 360.08064 75.835266 
L 360.43776 80.360298 
L 360.79488 79.468332 
L 361.152 73.789152 
L 361.50912 71.558541 
L 361.86624 72.422764 
L 362.22336 65.006816 
L 362.58048 69.734379 
L 362.9376 65.313386 
L 363.29472 66.341298 
L 363.65184 68.510872 
L 364.00896 78.701212 
L 364.36608 76.810465 
L 364.7232 69.247473 
L 365.08032 68.087778 
L 365.43744 65.554758 
L 365.79456 66.715841 
L 366.15168 75.700708 
L 366.5088 72.05377 
L 366.86592 65.898783 
L 367.22304 77.51516 
L 367.58016 75.929595 
L 367.93728 71.62374 
L 368.2944 71.593221 
L 368.65152 64.051038 
L 369.00864 77.852249 
L 369.72288 74.284381 
L 370.08 65.714286 
L 370.43712 73.472872 
L 370.79424 69.384806 
L 371.15136 78.168529 
L 371.50848 66.381527 
L 371.8656 76.865952 
L 372.22272 64.707182 
L 372.57984 73.371606 
L 372.93696 71.038343 
L 373.29408 77.452736 
L 373.6512 71.921987 
L 374.00832 74.269122 
L 374.36544 74.061043 
L 374.72256 68.128006 
L 375.07968 77.326501 
L 375.4368 73.271728 
L 375.79392 70.901011 
L 376.15104 64.049651 
L 376.50816 65.557533 
L 376.86528 65.131664 
L 377.2224 71.091057 
L 377.57952 68.334699 
L 377.93664 68.356894 
L 378.29376 70.035401 
L 378.65088 67.904668 
L 379.008 60.240411 
L 379.36512 61.752455 
L 379.72224 62.319818 
L 380.07936 69.290476 
L 380.43648 66.012533 
L 380.7936 75.378879 
L 381.15072 59.782637 
L 381.50784 65.665734 
L 382.22208 69.767672 
L 382.5792 66.600704 
L 382.93632 69.151757 
L 383.29344 70.024303 
L 383.65056 70.249029 
L 384.00768 62.285138 
L 384.3648 69.634501 
L 384.72192 67.661909 
L 385.07904 60.338902 
L 385.43616 60.39439 
L 385.79328 73.188496 
L 386.1504 59.757667 
L 386.50752 59.913033 
L 386.86464 60.320869 
L 387.22176 61.880077 
L 387.57888 72.825051 
L 387.936 59.539878 
L 388.29312 73.114975 
L 388.65024 61.173994 
L 389.00736 63.171556 
L 389.36448 70.305904 
L 390.07872 70.896849 
L 390.43584 60.594146 
L 390.79296 69.211406 
L 391.15008 62.052089 
L 391.5072 70.10476 
L 391.86432 61.835687 
L 392.22144 69.927199 
L 392.57856 68.847961 
L 392.93568 67.316497 
L 393.2928 68.938129 
L 393.64992 73.18156 
L 394.00704 61.31965 
L 394.36416 57.095639 
L 394.72128 67.036283 
L 395.0784 59.836738 
L 395.43552 62.401662 
L 395.79264 59.653628 
L 396.14976 69.221117 
L 396.50688 65.127502 
L 396.864 70.948175 
L 397.22112 72.360341 
L 397.57824 60.799451 
L 397.93536 64.736313 
L 398.29248 71.206194 
L 398.6496 69.837032 
L 399.00672 62.766495 
L 399.36384 64.110688 
L 399.72096 72.580905 
L 400.07808 63.240916 
L 400.4352 64.992944 
L 400.79232 59.448323 
L 401.14944 70.765066 
L 401.50656 68.836863 
L 401.86368 66.263615 
L 402.2208 68.713403 
L 402.57792 68.390186 
L 402.93504 60.687089 
L 403.29216 66.167899 
L 404.0064 66.095765 
L 404.36352 63.634879 
L 404.72064 56.868139 
L 405.07776 70.039562 
L 405.43488 66.968311 
L 405.792 62.928797 
L 406.14912 62.466861 
L 406.50624 64.145367 
L 406.86336 59.728536 
L 407.22048 66.86011 
L 407.5776 69.882809 
L 407.93472 57.882179 
L 408.29184 69.100431 
L 408.64896 61.039436 
L 409.00608 56.629541 
L 409.72032 63.483675 
L 410.07744 65.610246 
L 410.43456 58.932286 
L 411.1488 63.76805 
L 411.50592 63.801343 
L 411.86304 53.568 
L 412.22016 55.867971 
L 412.57728 60.216829 
L 412.9344 66.735262 
L 413.29152 66.821268 
L 413.64864 58.778307 
L 414.00576 57.768429 
L 414.36288 57.647743 
L 414.72 63.457318 
L 414.72 63.457318 
" style="fill:none;stroke:#000080;stroke-linecap:square;stroke-width:0.5;"/>
   </g>
   <g id="patch_3">
    <path d="M 57.6 307.584 
L 57.6 41.472 
" style="fill:none;stroke:#000000;stroke-linecap:square;stroke-linejoin:miter;stroke-width:0.8;"/>
   </g>
   <g id="patch_4">
    <path d="M 414.72 307.584 
L 414.72 41.472 
" style="fill:none;stroke:#000000;stroke-linecap:square;stroke-linejoin:miter;stroke-width:0.8;"/>
   </g>
   <g id="patch_5">
    <path d="M 57.6 307.584 
L 414.72 307.584 
" style="fill:none;stroke:#000000;stroke-linecap:square;stroke-linejoin:miter;stroke-width:0.8;"/>
   </g>
   <g id="patch_6">
    <path d="M 57.6 41.472 
L 414.72 41.472 
" style="fill:none;stroke:#000000;stroke-linecap:square;stroke-linejoin:miter;stroke-width:0.8;"/>
   </g>
   <g id="text_17">
    <!-- Test -->
    <defs>
     <path d="M -0.296875 72.90625 
L 61.375 72.90625 
L 61.375 64.59375 
L 35.5 64.59375 
L 35.5 0 
L 25.59375 0 
L 25.59375 64.59375 
L -0.296875 64.59375 
z
" id="DejaVuSans-54"/>
    </defs>
    <g transform="translate(223.341563 35.472)scale(0.12 -0.12)">
     <use xlink:href="#DejaVuSans-54"/>
     <use x="60.818359" xlink:href="#DejaVuSans-65"/>
     <use x="122.341797" xlink:href="#DejaVuSans-73"/>
     <use x="174.441406" xlink:href="#DejaVuSans-74"/>
    </g>
   </g>
   <g id="legend_1">
    <g id="patch_7">
     <path d="M 64.6 64.150125 
L 306.276563 64.150125 
Q 308.276563 64.150125 308.276563 62.150125 
L 308.276563 48.472 
Q 308.276563 46.472 306.276563 46.472 
L 64.6 46.472 
Q 62.6 46.472 62.6 48.472 
L 62.6 62.150125 
Q 62.6 64.150125 64.6 64.150125 
z
" style="fill:#ffffff;opacity:0.8;stroke:#cccccc;stroke-linejoin:miter;"/>
    </g>
    <g id="line2d_30">
     <path d="M 66.6 54.570438 
L 86.6 54.570438 
" style="fill:none;stroke:#000080;stroke-linecap:square;stroke-width:0.5;"/>
    </g>
    <g id="line2d_31"/>
    <g id="text_18">
     <!-- Successful download requests per second -->
     <g transform="translate(94.6 58.070438)scale(0.1 -0.1)">
      <use xlink:href="#DejaVuSans-53"/>
      <use x="63.476562" xlink:href="#DejaVuSans-75"/>
      <use x="126.855469" xlink:href="#DejaVuSans-63"/>
      <use x="181.835938" xlink:href="#DejaVuSans-63"/>
      <use x="236.816406" xlink:href="#DejaVuSans-65"/>
      <use x="298.339844" xlink:href="#DejaVuSans-73"/>
      <use x="350.439453" xlink:href="#DejaVuSans-73"/>
      <use x="402.539062" xlink:href="#DejaVuSans-66"/>
      <use x="437.744141" xlink:href="#DejaVuSans-75"/>
      <use x="501.123047" xlink:href="#DejaVuSans-6c"/>
      <use x="528.90625" xlink:href="#DejaVuSans-20"/>
      <use x="560.693359" xlink:href="#DejaVuSans-64"/>
      <use x="624.169922" xlink:href="#DejaVuSans-6f"/>
      <use x="685.351562" xlink:href="#DejaVuSans-77"/>
      <use x="767.138672" xlink:href="#DejaVuSans-6e"/>
      <use x="830.517578" xlink:href="#DejaVuSans-6c"/>
      <use x="858.300781" xlink:href="#DejaVuSans-6f"/>
      <use x="919.482422" xlink:href="#DejaVuSans-61"/>
      <use x="980.761719" xlink:href="#DejaVuSans-64"/>
      <use x="1044.238281" xlink:href="#DejaVuSans-20"/>
      <use x="1076.025391" xlink:href="#DejaVuSans-72"/>
      <use x="1117.107422" xlink:href="#DejaVuSans-65"/>
      <use x="1178.630859" xlink:href="#DejaVuSans-71"/>
      <use x="1242.107422" xlink:href="#DejaVuSans-75"/>
      <use x="1305.486328" xlink:href="#DejaVuSans-65"/>
      <use x="1367.009766" xlink:href="#DejaVuSans-73"/>
      <use x="1419.109375" xlink:href="#DejaVuSans-74"/>
      <use x="1458.318359" xlink:href="#DejaVuSans-73"/>
      <use x="1510.417969" xlink:href="#DejaVuSans-20"/>
      <use x="1542.205078" xlink:href="#DejaVuSans-70"/>
      <use x="1605.681641" xlink:href="#DejaVuSans-65"/>
      <use x="1667.205078" xlink:href="#DejaVuSans-72"/>
      <use x="1708.318359" xlink:href="#DejaVuSans-20"/>
      <use x="1740.105469" xlink:href="#DejaVuSans-73"/>
      <use x="1792.205078" xlink:href="#DejaVuSans-65"/>
      <use x="1853.728516" xlink:href="#DejaVuSans-63"/>
      <use x="1908.708984" xlink:href="#DejaVuSans-6f"/>
      <use x="1969.890625" xlink:href="#DejaVuSans-6e"/>
      <use x="2033.269531" xlink:href="#DejaVuSans-64"/>
     </g>
    </g>
   </g>
  </g>
 </g>
 <defs>
  <clipPath id="p94ea43b4fa">
   <rect height="266.112" width="357.12" x="57.6" y="41.472"/>
  </clipPath>
 </defs>
</svg>
