<?xml version="1.0" encoding="utf-8" standalone="no"?>
<!DOCTYPE svg PUBLIC "-//W3C//DTD SVG 1.1//EN"
  "http://www.w3.org/Graphics/SVG/1.1/DTD/svg11.dtd">
<!-- Created with matplotlib (http://matplotlib.org/) -->
<svg height="345pt" version="1.1" viewBox="0 0 460 345" width="460pt" xmlns="http://www.w3.org/2000/svg" xmlns:xlink="http://www.w3.org/1999/xlink">
 <defs>
  <style type="text/css">
*{stroke-linecap:butt;stroke-linejoin:round;}
  </style>
 </defs>
 <g id="figure_1">
  <g id="patch_1">
   <path d="M 0 345.6 
L 460.8 345.6 
L 460.8 0 
L 0 0 
z
" style="fill:#ffffff;"/>
  </g>
  <g id="axes_1">
   <g id="patch_2">
    <path d="M 57.6 307.584 
L 414.72 307.584 
L 414.72 41.472 
L 57.6 41.472 
z
" style="fill:#ffffff;"/>
   </g>
   <g id="matplotlib.axis_1">
    <g id="xtick_1">
     <g id="line2d_1">
      <path clip-path="url(#p6da8e7f94b)" d="M 57.6 307.584 
L 57.6 41.472 
" style="fill:none;stroke:#b0b0b0;stroke-linecap:square;stroke-width:0.8;"/>
     </g>
     <g id="line2d_2">
      <defs>
       <path d="M 0 0 
L 0 3.5 
" id="mfe209e08da" style="stroke:#000000;stroke-width:0.8;"/>
      </defs>
      <g>
       <use style="stroke:#000000;stroke-width:0.8;" x="57.6" xlink:href="#mfe209e08da" y="307.584"/>
      </g>
     </g>
     <g id="text_1">
      <!-- 0 -->
      <defs>
       <path d="M 31.78125 66.40625 
Q 24.171875 66.40625 20.328125 58.90625 
Q 16.5 51.421875 16.5 36.375 
Q 16.5 21.390625 20.328125 13.890625 
Q 24.171875 6.390625 31.78125 6.390625 
Q 39.453125 6.390625 43.28125 13.890625 
Q 47.125 21.390625 47.125 36.375 
Q 47.125 51.421875 43.28125 58.90625 
Q 39.453125 66.40625 31.78125 66.40625 
M 31.78125 74.21875 
Q 44.046875 74.21875 50.515625 64.515625 
Q 56.984375 54.828125 56.984375 36.375 
Q 56.984375 17.96875 50.515625 8.265625 
Q 44.046875 -1.421875 31.78125 -1.421875 
Q 19.53125 -1.421875 13.0625 8.265625 
Q 6.59375 17.96875 6.59375 36.375 
Q 6.59375 54.828125 13.0625 64.515625 
Q 19.53125 74.21875 31.78125 74.21875 
" id="DejaVuSans-30"/>
      </defs>
      <g transform="translate(54.41875 322.182437)scale(0.1 -0.1)">
       <use xlink:href="#DejaVuSans-30"/>
      </g>
     </g>
    </g>
    <g id="xtick_2">
     <g id="line2d_3">
      <path clip-path="url(#p6da8e7f94b)" d="M 129.024 307.584 
L 129.024 41.472 
" style="fill:none;stroke:#b0b0b0;stroke-linecap:square;stroke-width:0.8;"/>
     </g>
     <g id="line2d_4">
      <g>
       <use style="stroke:#000000;stroke-width:0.8;" x="129.024" xlink:href="#mfe209e08da" y="307.584"/>
      </g>
     </g>
     <g id="text_2">
      <!-- 200 -->
      <defs>
       <path d="M 19.1875 8.296875 
L 53.609375 8.296875 
L 53.609375 0 
L 7.328125 0 
L 7.328125 8.296875 
Q 12.9375 14.109375 22.625 23.890625 
Q 32.328125 33.6875 34.8125 36.53125 
Q 39.546875 41.84375 41.421875 45.53125 
Q 43.3125 49.21875 43.3125 52.78125 
Q 43.3125 58.59375 39.234375 62.25 
Q 35.15625 65.921875 28.609375 65.921875 
Q 23.96875 65.921875 18.8125 64.3125 
Q 13.671875 62.703125 7.8125 59.421875 
L 7.8125 69.390625 
Q 13.765625 71.78125 18.9375 73 
Q 24.125 74.21875 28.421875 74.21875 
Q 39.75 74.21875 46.484375 68.546875 
Q 53.21875 62.890625 53.21875 53.421875 
Q 53.21875 48.921875 51.53125 44.890625 
Q 49.859375 40.875 45.40625 35.40625 
Q 44.1875 33.984375 37.640625 27.21875 
Q 31.109375 20.453125 19.1875 8.296875 
" id="DejaVuSans-32"/>
      </defs>
      <g transform="translate(119.48025 322.182437)scale(0.1 -0.1)">
       <use xlink:href="#DejaVuSans-32"/>
       <use x="63.623047" xlink:href="#DejaVuSans-30"/>
       <use x="127.246094" xlink:href="#DejaVuSans-30"/>
      </g>
     </g>
    </g>
    <g id="xtick_3">
     <g id="line2d_5">
      <path clip-path="url(#p6da8e7f94b)" d="M 200.448 307.584 
L 200.448 41.472 
" style="fill:none;stroke:#b0b0b0;stroke-linecap:square;stroke-width:0.8;"/>
     </g>
     <g id="line2d_6">
      <g>
       <use style="stroke:#000000;stroke-width:0.8;" x="200.448" xlink:href="#mfe209e08da" y="307.584"/>
      </g>
     </g>
     <g id="text_3">
      <!-- 400 -->
      <defs>
       <path d="M 37.796875 64.3125 
L 12.890625 25.390625 
L 37.796875 25.390625 
z
M 35.203125 72.90625 
L 47.609375 72.90625 
L 47.609375 25.390625 
L 58.015625 25.390625 
L 58.015625 17.1875 
L 47.609375 17.1875 
L 47.609375 0 
L 37.796875 0 
L 37.796875 17.1875 
L 4.890625 17.1875 
L 4.890625 26.703125 
z
" id="DejaVuSans-34"/>
      </defs>
      <g transform="translate(190.90425 322.182437)scale(0.1 -0.1)">
       <use xlink:href="#DejaVuSans-34"/>
       <use x="63.623047" xlink:href="#DejaVuSans-30"/>
       <use x="127.246094" xlink:href="#DejaVuSans-30"/>
      </g>
     </g>
    </g>
    <g id="xtick_4">
     <g id="line2d_7">
      <path clip-path="url(#p6da8e7f94b)" d="M 271.872 307.584 
L 271.872 41.472 
" style="fill:none;stroke:#b0b0b0;stroke-linecap:square;stroke-width:0.8;"/>
     </g>
     <g id="line2d_8">
      <g>
       <use style="stroke:#000000;stroke-width:0.8;" x="271.872" xlink:href="#mfe209e08da" y="307.584"/>
      </g>
     </g>
     <g id="text_4">
      <!-- 600 -->
      <defs>
       <path d="M 33.015625 40.375 
Q 26.375 40.375 22.484375 35.828125 
Q 18.609375 31.296875 18.609375 23.390625 
Q 18.609375 15.53125 22.484375 10.953125 
Q 26.375 6.390625 33.015625 6.390625 
Q 39.65625 6.390625 43.53125 10.953125 
Q 47.40625 15.53125 47.40625 23.390625 
Q 47.40625 31.296875 43.53125 35.828125 
Q 39.65625 40.375 33.015625 40.375 
M 52.59375 71.296875 
L 52.59375 62.3125 
Q 48.875 64.0625 45.09375 64.984375 
Q 41.3125 65.921875 37.59375 65.921875 
Q 27.828125 65.921875 22.671875 59.328125 
Q 17.53125 52.734375 16.796875 39.40625 
Q 19.671875 43.65625 24.015625 45.921875 
Q 28.375 48.1875 33.59375 48.1875 
Q 44.578125 48.1875 50.953125 41.515625 
Q 57.328125 34.859375 57.328125 23.390625 
Q 57.328125 12.15625 50.6875 5.359375 
Q 44.046875 -1.421875 33.015625 -1.421875 
Q 20.359375 -1.421875 13.671875 8.265625 
Q 6.984375 17.96875 6.984375 36.375 
Q 6.984375 53.65625 15.1875 63.9375 
Q 23.390625 74.21875 37.203125 74.21875 
Q 40.921875 74.21875 44.703125 73.484375 
Q 48.484375 72.75 52.59375 71.296875 
" id="DejaVuSans-36"/>
      </defs>
      <g transform="translate(262.32825 322.182437)scale(0.1 -0.1)">
       <use xlink:href="#DejaVuSans-36"/>
       <use x="63.623047" xlink:href="#DejaVuSans-30"/>
       <use x="127.246094" xlink:href="#DejaVuSans-30"/>
      </g>
     </g>
    </g>
    <g id="xtick_5">
     <g id="line2d_9">
      <path clip-path="url(#p6da8e7f94b)" d="M 343.296 307.584 
L 343.296 41.472 
" style="fill:none;stroke:#b0b0b0;stroke-linecap:square;stroke-width:0.8;"/>
     </g>
     <g id="line2d_10">
      <g>
       <use style="stroke:#000000;stroke-width:0.8;" x="343.296" xlink:href="#mfe209e08da" y="307.584"/>
      </g>
     </g>
     <g id="text_5">
      <!-- 800 -->
      <defs>
       <path d="M 31.78125 34.625 
Q 24.75 34.625 20.71875 30.859375 
Q 16.703125 27.09375 16.703125 20.515625 
Q 16.703125 13.921875 20.71875 10.15625 
Q 24.75 6.390625 31.78125 6.390625 
Q 38.8125 6.390625 42.859375 10.171875 
Q 46.921875 13.96875 46.921875 20.515625 
Q 46.921875 27.09375 42.890625 30.859375 
Q 38.875 34.625 31.78125 34.625 
M 21.921875 38.8125 
Q 15.578125 40.375 12.03125 44.71875 
Q 8.5 49.078125 8.5 55.328125 
Q 8.5 64.0625 14.71875 69.140625 
Q 20.953125 74.21875 31.78125 74.21875 
Q 42.671875 74.21875 48.875 69.140625 
Q 55.078125 64.0625 55.078125 55.328125 
Q 55.078125 49.078125 51.53125 44.71875 
Q 48 40.375 41.703125 38.8125 
Q 48.828125 37.15625 52.796875 32.3125 
Q 56.78125 27.484375 56.78125 20.515625 
Q 56.78125 9.90625 50.3125 4.234375 
Q 43.84375 -1.421875 31.78125 -1.421875 
Q 19.734375 -1.421875 13.25 4.234375 
Q 6.78125 9.90625 6.78125 20.515625 
Q 6.78125 27.484375 10.78125 32.3125 
Q 14.796875 37.15625 21.921875 38.8125 
M 18.3125 54.390625 
Q 18.3125 48.734375 21.84375 45.5625 
Q 25.390625 42.390625 31.78125 42.390625 
Q 38.140625 42.390625 41.71875 45.5625 
Q 45.3125 48.734375 45.3125 54.390625 
Q 45.3125 60.0625 41.71875 63.234375 
Q 38.140625 66.40625 31.78125 66.40625 
Q 25.390625 66.40625 21.84375 63.234375 
Q 18.3125 60.0625 18.3125 54.390625 
" id="DejaVuSans-38"/>
      </defs>
      <g transform="translate(333.75225 322.182437)scale(0.1 -0.1)">
       <use xlink:href="#DejaVuSans-38"/>
       <use x="63.623047" xlink:href="#DejaVuSans-30"/>
       <use x="127.246094" xlink:href="#DejaVuSans-30"/>
      </g>
     </g>
    </g>
    <g id="xtick_6">
     <g id="line2d_11">
      <path clip-path="url(#p6da8e7f94b)" d="M 414.72 307.584 
L 414.72 41.472 
" style="fill:none;stroke:#b0b0b0;stroke-linecap:square;stroke-width:0.8;"/>
     </g>
     <g id="line2d_12">
      <g>
       <use style="stroke:#000000;stroke-width:0.8;" x="414.72" xlink:href="#mfe209e08da" y="307.584"/>
      </g>
     </g>
     <g id="text_6">
      <!-- 1000 -->
      <defs>
       <path d="M 12.40625 8.296875 
L 28.515625 8.296875 
L 28.515625 63.921875 
L 10.984375 60.40625 
L 10.984375 69.390625 
L 28.421875 72.90625 
L 38.28125 72.90625 
L 38.28125 8.296875 
L 54.390625 8.296875 
L 54.390625 0 
L 12.40625 0 
z
" id="DejaVuSans-31"/>
      </defs>
      <g transform="translate(401.995 322.182437)scale(0.1 -0.1)">
       <use xlink:href="#DejaVuSans-31"/>
       <use x="63.623047" xlink:href="#DejaVuSans-30"/>
       <use x="127.246094" xlink:href="#DejaVuSans-30"/>
       <use x="190.869141" xlink:href="#DejaVuSans-30"/>
      </g>
     </g>
    </g>
    <g id="text_7">
     <!-- Number of clients -->
     <defs>
      <path d="M 9.8125 72.90625 
L 23.09375 72.90625 
L 55.421875 11.921875 
L 55.421875 72.90625 
L 64.984375 72.90625 
L 64.984375 0 
L 51.703125 0 
L 19.390625 60.984375 
L 19.390625 0 
L 9.8125 0 
z
" id="DejaVuSans-4e"/>
      <path d="M 8.5 21.578125 
L 8.5 54.6875 
L 17.484375 54.6875 
L 17.484375 21.921875 
Q 17.484375 14.15625 20.5 10.265625 
Q 23.53125 6.390625 29.59375 6.390625 
Q 36.859375 6.390625 41.078125 11.03125 
Q 45.3125 15.671875 45.3125 23.6875 
L 45.3125 54.6875 
L 54.296875 54.6875 
L 54.296875 0 
L 45.3125 0 
L 45.3125 8.40625 
Q 42.046875 3.421875 37.71875 1 
Q 33.40625 -1.421875 27.6875 -1.421875 
Q 18.265625 -1.421875 13.375 4.4375 
Q 8.5 10.296875 8.5 21.578125 
M 31.109375 56 
z
" id="DejaVuSans-75"/>
      <path d="M 52 44.1875 
Q 55.375 50.25 60.0625 53.125 
Q 64.75 56 71.09375 56 
Q 79.640625 56 84.28125 50.015625 
Q 88.921875 44.046875 88.921875 33.015625 
L 88.921875 0 
L 79.890625 0 
L 79.890625 32.71875 
Q 79.890625 40.578125 77.09375 44.375 
Q 74.3125 48.1875 68.609375 48.1875 
Q 61.625 48.1875 57.5625 43.546875 
Q 53.515625 38.921875 53.515625 30.90625 
L 53.515625 0 
L 44.484375 0 
L 44.484375 32.71875 
Q 44.484375 40.625 41.703125 44.40625 
Q 38.921875 48.1875 33.109375 48.1875 
Q 26.21875 48.1875 22.15625 43.53125 
Q 18.109375 38.875 18.109375 30.90625 
L 18.109375 0 
L 9.078125 0 
L 9.078125 54.6875 
L 18.109375 54.6875 
L 18.109375 46.1875 
Q 21.1875 51.21875 25.484375 53.609375 
Q 29.78125 56 35.6875 56 
Q 41.65625 56 45.828125 52.96875 
Q 50 49.953125 52 44.1875 
" id="DejaVuSans-6d"/>
      <path d="M 48.6875 27.296875 
Q 48.6875 37.203125 44.609375 42.84375 
Q 40.53125 48.484375 33.40625 48.484375 
Q 26.265625 48.484375 22.1875 42.84375 
Q 18.109375 37.203125 18.109375 27.296875 
Q 18.109375 17.390625 22.1875 11.75 
Q 26.265625 6.109375 33.40625 6.109375 
Q 40.53125 6.109375 44.609375 11.75 
Q 48.6875 17.390625 48.6875 27.296875 
M 18.109375 46.390625 
Q 20.953125 51.265625 25.265625 53.625 
Q 29.59375 56 35.59375 56 
Q 45.5625 56 51.78125 48.09375 
Q 58.015625 40.1875 58.015625 27.296875 
Q 58.015625 14.40625 51.78125 6.484375 
Q 45.5625 -1.421875 35.59375 -1.421875 
Q 29.59375 -1.421875 25.265625 0.953125 
Q 20.953125 3.328125 18.109375 8.203125 
L 18.109375 0 
L 9.078125 0 
L 9.078125 75.984375 
L 18.109375 75.984375 
z
" id="DejaVuSans-62"/>
      <path d="M 56.203125 29.59375 
L 56.203125 25.203125 
L 14.890625 25.203125 
Q 15.484375 15.921875 20.484375 11.0625 
Q 25.484375 6.203125 34.421875 6.203125 
Q 39.59375 6.203125 44.453125 7.46875 
Q 49.3125 8.734375 54.109375 11.28125 
L 54.109375 2.78125 
Q 49.265625 0.734375 44.1875 -0.34375 
Q 39.109375 -1.421875 33.890625 -1.421875 
Q 20.796875 -1.421875 13.15625 6.1875 
Q 5.515625 13.8125 5.515625 26.8125 
Q 5.515625 40.234375 12.765625 48.109375 
Q 20.015625 56 32.328125 56 
Q 43.359375 56 49.78125 48.890625 
Q 56.203125 41.796875 56.203125 29.59375 
M 47.21875 32.234375 
Q 47.125 39.59375 43.09375 43.984375 
Q 39.0625 48.390625 32.421875 48.390625 
Q 24.90625 48.390625 20.390625 44.140625 
Q 15.875 39.890625 15.1875 32.171875 
z
" id="DejaVuSans-65"/>
      <path d="M 41.109375 46.296875 
Q 39.59375 47.171875 37.8125 47.578125 
Q 36.03125 48 33.890625 48 
Q 26.265625 48 22.1875 43.046875 
Q 18.109375 38.09375 18.109375 28.8125 
L 18.109375 0 
L 9.078125 0 
L 9.078125 54.6875 
L 18.109375 54.6875 
L 18.109375 46.1875 
Q 20.953125 51.171875 25.484375 53.578125 
Q 30.03125 56 36.53125 56 
Q 37.453125 56 38.578125 55.875 
Q 39.703125 55.765625 41.0625 55.515625 
z
" id="DejaVuSans-72"/>
      <path id="DejaVuSans-20"/>
      <path d="M 30.609375 48.390625 
Q 23.390625 48.390625 19.1875 42.75 
Q 14.984375 37.109375 14.984375 27.296875 
Q 14.984375 17.484375 19.15625 11.84375 
Q 23.34375 6.203125 30.609375 6.203125 
Q 37.796875 6.203125 41.984375 11.859375 
Q 46.1875 17.53125 46.1875 27.296875 
Q 46.1875 37.015625 41.984375 42.703125 
Q 37.796875 48.390625 30.609375 48.390625 
M 30.609375 56 
Q 42.328125 56 49.015625 48.375 
Q 55.71875 40.765625 55.71875 27.296875 
Q 55.71875 13.875 49.015625 6.21875 
Q 42.328125 -1.421875 30.609375 -1.421875 
Q 18.84375 -1.421875 12.171875 6.21875 
Q 5.515625 13.875 5.515625 27.296875 
Q 5.515625 40.765625 12.171875 48.375 
Q 18.84375 56 30.609375 56 
" id="DejaVuSans-6f"/>
      <path d="M 37.109375 75.984375 
L 37.109375 68.5 
L 28.515625 68.5 
Q 23.6875 68.5 21.796875 66.546875 
Q 19.921875 64.59375 19.921875 59.515625 
L 19.921875 54.6875 
L 34.71875 54.6875 
L 34.71875 47.703125 
L 19.921875 47.703125 
L 19.921875 0 
L 10.890625 0 
L 10.890625 47.703125 
L 2.296875 47.703125 
L 2.296875 54.6875 
L 10.890625 54.6875 
L 10.890625 58.5 
Q 10.890625 67.625 15.140625 71.796875 
Q 19.390625 75.984375 28.609375 75.984375 
z
" id="DejaVuSans-66"/>
      <path d="M 48.78125 52.59375 
L 48.78125 44.1875 
Q 44.96875 46.296875 41.140625 47.34375 
Q 37.3125 48.390625 33.40625 48.390625 
Q 24.65625 48.390625 19.8125 42.84375 
Q 14.984375 37.3125 14.984375 27.296875 
Q 14.984375 17.28125 19.8125 11.734375 
Q 24.65625 6.203125 33.40625 6.203125 
Q 37.3125 6.203125 41.140625 7.25 
Q 44.96875 8.296875 48.78125 10.40625 
L 48.78125 2.09375 
Q 45.015625 0.34375 40.984375 -0.53125 
Q 36.96875 -1.421875 32.421875 -1.421875 
Q 20.0625 -1.421875 12.78125 6.34375 
Q 5.515625 14.109375 5.515625 27.296875 
Q 5.515625 40.671875 12.859375 48.328125 
Q 20.21875 56 33.015625 56 
Q 37.15625 56 41.109375 55.140625 
Q 45.0625 54.296875 48.78125 52.59375 
" id="DejaVuSans-63"/>
      <path d="M 9.421875 75.984375 
L 18.40625 75.984375 
L 18.40625 0 
L 9.421875 0 
z
" id="DejaVuSans-6c"/>
      <path d="M 9.421875 54.6875 
L 18.40625 54.6875 
L 18.40625 0 
L 9.421875 0 
z
M 9.421875 75.984375 
L 18.40625 75.984375 
L 18.40625 64.59375 
L 9.421875 64.59375 
z
" id="DejaVuSans-69"/>
      <path d="M 54.890625 33.015625 
L 54.890625 0 
L 45.90625 0 
L 45.90625 32.71875 
Q 45.90625 40.484375 42.875 44.328125 
Q 39.84375 48.1875 33.796875 48.1875 
Q 26.515625 48.1875 22.3125 43.546875 
Q 18.109375 38.921875 18.109375 30.90625 
L 18.109375 0 
L 9.078125 0 
L 9.078125 54.6875 
L 18.109375 54.6875 
L 18.109375 46.1875 
Q 21.34375 51.125 25.703125 53.5625 
Q 30.078125 56 35.796875 56 
Q 45.21875 56 50.046875 50.171875 
Q 54.890625 44.34375 54.890625 33.015625 
" id="DejaVuSans-6e"/>
      <path d="M 18.3125 70.21875 
L 18.3125 54.6875 
L 36.8125 54.6875 
L 36.8125 47.703125 
L 18.3125 47.703125 
L 18.3125 18.015625 
Q 18.3125 11.328125 20.140625 9.421875 
Q 21.96875 7.515625 27.59375 7.515625 
L 36.8125 7.515625 
L 36.8125 0 
L 27.59375 0 
Q 17.1875 0 13.234375 3.875 
Q 9.28125 7.765625 9.28125 18.015625 
L 9.28125 47.703125 
L 2.6875 47.703125 
L 2.6875 54.6875 
L 9.28125 54.6875 
L 9.28125 70.21875 
z
" id="DejaVuSans-74"/>
      <path d="M 44.28125 53.078125 
L 44.28125 44.578125 
Q 40.484375 46.53125 36.375 47.5 
Q 32.28125 48.484375 27.875 48.484375 
Q 21.1875 48.484375 17.84375 46.4375 
Q 14.5 44.390625 14.5 40.28125 
Q 14.5 37.15625 16.890625 35.375 
Q 19.28125 33.59375 26.515625 31.984375 
L 29.59375 31.296875 
Q 39.15625 29.25 43.1875 25.515625 
Q 47.21875 21.78125 47.21875 15.09375 
Q 47.21875 7.46875 41.1875 3.015625 
Q 35.15625 -1.421875 24.609375 -1.421875 
Q 20.21875 -1.421875 15.453125 -0.5625 
Q 10.6875 0.296875 5.421875 2 
L 5.421875 11.28125 
Q 10.40625 8.6875 15.234375 7.390625 
Q 20.0625 6.109375 24.8125 6.109375 
Q 31.15625 6.109375 34.5625 8.28125 
Q 37.984375 10.453125 37.984375 14.40625 
Q 37.984375 18.0625 35.515625 20.015625 
Q 33.0625 21.96875 24.703125 23.78125 
L 21.578125 24.515625 
Q 13.234375 26.265625 9.515625 29.90625 
Q 5.8125 33.546875 5.8125 39.890625 
Q 5.8125 47.609375 11.28125 51.796875 
Q 16.75 56 26.8125 56 
Q 31.78125 56 36.171875 55.265625 
Q 40.578125 54.546875 44.28125 53.078125 
" id="DejaVuSans-73"/>
     </defs>
     <g transform="translate(191.738906 335.860562)scale(0.1 -0.1)">
      <use xlink:href="#DejaVuSans-4e"/>
      <use x="74.804688" xlink:href="#DejaVuSans-75"/>
      <use x="138.183594" xlink:href="#DejaVuSans-6d"/>
      <use x="235.595703" xlink:href="#DejaVuSans-62"/>
      <use x="299.072266" xlink:href="#DejaVuSans-65"/>
      <use x="360.595703" xlink:href="#DejaVuSans-72"/>
      <use x="401.708984" xlink:href="#DejaVuSans-20"/>
      <use x="433.496094" xlink:href="#DejaVuSans-6f"/>
      <use x="494.677734" xlink:href="#DejaVuSans-66"/>
      <use x="529.882812" xlink:href="#DejaVuSans-20"/>
      <use x="561.669922" xlink:href="#DejaVuSans-63"/>
      <use x="616.650391" xlink:href="#DejaVuSans-6c"/>
      <use x="644.433594" xlink:href="#DejaVuSans-69"/>
      <use x="672.216797" xlink:href="#DejaVuSans-65"/>
      <use x="733.740234" xlink:href="#DejaVuSans-6e"/>
      <use x="797.119141" xlink:href="#DejaVuSans-74"/>
      <use x="836.328125" xlink:href="#DejaVuSans-73"/>
     </g>
    </g>
   </g>
   <g id="matplotlib.axis_2">
    <g id="ytick_1">
     <g id="line2d_13">
      <path clip-path="url(#p6da8e7f94b)" d="M 57.6 295.888417 
L 414.72 295.888417 
" style="fill:none;stroke:#b0b0b0;stroke-linecap:square;stroke-width:0.8;"/>
     </g>
     <g id="line2d_14">
      <defs>
       <path d="M 0 0 
L -3.5 0 
" id="m266d350d5b" style="stroke:#000000;stroke-width:0.8;"/>
      </defs>
      <g>
       <use style="stroke:#000000;stroke-width:0.8;" x="57.6" xlink:href="#m266d350d5b" y="295.888417"/>
      </g>
     </g>
     <g id="text_8">
      <!-- 0 -->
      <g transform="translate(44.2375 299.687635)scale(0.1 -0.1)">
       <use xlink:href="#DejaVuSans-30"/>
      </g>
     </g>
    </g>
    <g id="ytick_2">
     <g id="line2d_15">
      <path clip-path="url(#p6da8e7f94b)" d="M 57.6 255.195671 
L 414.72 255.195671 
" style="fill:none;stroke:#b0b0b0;stroke-linecap:square;stroke-width:0.8;"/>
     </g>
     <g id="line2d_16">
      <g>
       <use style="stroke:#000000;stroke-width:0.8;" x="57.6" xlink:href="#m266d350d5b" y="255.195671"/>
      </g>
     </g>
     <g id="text_9">
      <!-- 100 -->
      <g transform="translate(31.5125 258.99489)scale(0.1 -0.1)">
       <use xlink:href="#DejaVuSans-31"/>
       <use x="63.623047" xlink:href="#DejaVuSans-30"/>
       <use x="127.246094" xlink:href="#DejaVuSans-30"/>
      </g>
     </g>
    </g>
    <g id="ytick_3">
     <g id="line2d_17">
      <path clip-path="url(#p6da8e7f94b)" d="M 57.6 214.502926 
L 414.72 214.502926 
" style="fill:none;stroke:#b0b0b0;stroke-linecap:square;stroke-width:0.8;"/>
     </g>
     <g id="line2d_18">
      <g>
       <use style="stroke:#000000;stroke-width:0.8;" x="57.6" xlink:href="#m266d350d5b" y="214.502926"/>
      </g>
     </g>
     <g id="text_10">
      <!-- 200 -->
      <g transform="translate(31.5125 218.302144)scale(0.1 -0.1)">
       <use xlink:href="#DejaVuSans-32"/>
       <use x="63.623047" xlink:href="#DejaVuSans-30"/>
       <use x="127.246094" xlink:href="#DejaVuSans-30"/>
      </g>
     </g>
    </g>
    <g id="ytick_4">
     <g id="line2d_19">
      <path clip-path="url(#p6da8e7f94b)" d="M 57.6 173.81018 
L 414.72 173.81018 
" style="fill:none;stroke:#b0b0b0;stroke-linecap:square;stroke-width:0.8;"/>
     </g>
     <g id="line2d_20">
      <g>
       <use style="stroke:#000000;stroke-width:0.8;" x="57.6" xlink:href="#m266d350d5b" y="173.81018"/>
      </g>
     </g>
     <g id="text_11">
      <!-- 300 -->
      <defs>
       <path d="M 40.578125 39.3125 
Q 47.65625 37.796875 51.625 33 
Q 55.609375 28.21875 55.609375 21.1875 
Q 55.609375 10.40625 48.1875 4.484375 
Q 40.765625 -1.421875 27.09375 -1.421875 
Q 22.515625 -1.421875 17.65625 -0.515625 
Q 12.796875 0.390625 7.625 2.203125 
L 7.625 11.71875 
Q 11.71875 9.328125 16.59375 8.109375 
Q 21.484375 6.890625 26.8125 6.890625 
Q 36.078125 6.890625 40.9375 10.546875 
Q 45.796875 14.203125 45.796875 21.1875 
Q 45.796875 27.640625 41.28125 31.265625 
Q 36.765625 34.90625 28.71875 34.90625 
L 20.21875 34.90625 
L 20.21875 43.015625 
L 29.109375 43.015625 
Q 36.375 43.015625 40.234375 45.921875 
Q 44.09375 48.828125 44.09375 54.296875 
Q 44.09375 59.90625 40.109375 62.90625 
Q 36.140625 65.921875 28.71875 65.921875 
Q 24.65625 65.921875 20.015625 65.03125 
Q 15.375 64.15625 9.8125 62.3125 
L 9.8125 71.09375 
Q 15.4375 72.65625 20.34375 73.4375 
Q 25.25 74.21875 29.59375 74.21875 
Q 40.828125 74.21875 47.359375 69.109375 
Q 53.90625 64.015625 53.90625 55.328125 
Q 53.90625 49.265625 50.4375 45.09375 
Q 46.96875 40.921875 40.578125 39.3125 
" id="DejaVuSans-33"/>
      </defs>
      <g transform="translate(31.5125 177.609399)scale(0.1 -0.1)">
       <use xlink:href="#DejaVuSans-33"/>
       <use x="63.623047" xlink:href="#DejaVuSans-30"/>
       <use x="127.246094" xlink:href="#DejaVuSans-30"/>
      </g>
     </g>
    </g>
    <g id="ytick_5">
     <g id="line2d_21">
      <path clip-path="url(#p6da8e7f94b)" d="M 57.6 133.117434 
L 414.72 133.117434 
" style="fill:none;stroke:#b0b0b0;stroke-linecap:square;stroke-width:0.8;"/>
     </g>
     <g id="line2d_22">
      <g>
       <use style="stroke:#000000;stroke-width:0.8;" x="57.6" xlink:href="#m266d350d5b" y="133.117434"/>
      </g>
     </g>
     <g id="text_12">
      <!-- 400 -->
      <g transform="translate(31.5125 136.916653)scale(0.1 -0.1)">
       <use xlink:href="#DejaVuSans-34"/>
       <use x="63.623047" xlink:href="#DejaVuSans-30"/>
       <use x="127.246094" xlink:href="#DejaVuSans-30"/>
      </g>
     </g>
    </g>
    <g id="ytick_6">
     <g id="line2d_23">
      <path clip-path="url(#p6da8e7f94b)" d="M 57.6 92.424689 
L 414.72 92.424689 
" style="fill:none;stroke:#b0b0b0;stroke-linecap:square;stroke-width:0.8;"/>
     </g>
     <g id="line2d_24">
      <g>
       <use style="stroke:#000000;stroke-width:0.8;" x="57.6" xlink:href="#m266d350d5b" y="92.424689"/>
      </g>
     </g>
     <g id="text_13">
      <!-- 500 -->
      <defs>
       <path d="M 10.796875 72.90625 
L 49.515625 72.90625 
L 49.515625 64.59375 
L 19.828125 64.59375 
L 19.828125 46.734375 
Q 21.96875 47.46875 24.109375 47.828125 
Q 26.265625 48.1875 28.421875 48.1875 
Q 40.625 48.1875 47.75 41.5 
Q 54.890625 34.8125 54.890625 23.390625 
Q 54.890625 11.625 47.5625 5.09375 
Q 40.234375 -1.421875 26.90625 -1.421875 
Q 22.3125 -1.421875 17.546875 -0.640625 
Q 12.796875 0.140625 7.71875 1.703125 
L 7.71875 11.625 
Q 12.109375 9.234375 16.796875 8.0625 
Q 21.484375 6.890625 26.703125 6.890625 
Q 35.15625 6.890625 40.078125 11.328125 
Q 45.015625 15.765625 45.015625 23.390625 
Q 45.015625 31 40.078125 35.4375 
Q 35.15625 39.890625 26.703125 39.890625 
Q 22.75 39.890625 18.8125 39.015625 
Q 14.890625 38.140625 10.796875 36.28125 
z
" id="DejaVuSans-35"/>
      </defs>
      <g transform="translate(31.5125 96.223908)scale(0.1 -0.1)">
       <use xlink:href="#DejaVuSans-35"/>
       <use x="63.623047" xlink:href="#DejaVuSans-30"/>
       <use x="127.246094" xlink:href="#DejaVuSans-30"/>
      </g>
     </g>
    </g>
    <g id="ytick_7">
     <g id="line2d_25">
      <path clip-path="url(#p6da8e7f94b)" d="M 57.6 51.731943 
L 414.72 51.731943 
" style="fill:none;stroke:#b0b0b0;stroke-linecap:square;stroke-width:0.8;"/>
     </g>
     <g id="line2d_26">
      <g>
       <use style="stroke:#000000;stroke-width:0.8;" x="57.6" xlink:href="#m266d350d5b" y="51.731943"/>
      </g>
     </g>
     <g id="text_14">
      <!-- 600 -->
      <g transform="translate(31.5125 55.531162)scale(0.1 -0.1)">
       <use xlink:href="#DejaVuSans-36"/>
       <use x="63.623047" xlink:href="#DejaVuSans-30"/>
       <use x="127.246094" xlink:href="#DejaVuSans-30"/>
      </g>
     </g>
    </g>
    <g id="text_15">
     <!-- Successful download requests per second -->
     <defs>
      <path d="M 53.515625 70.515625 
L 53.515625 60.890625 
Q 47.90625 63.578125 42.921875 64.890625 
Q 37.9375 66.21875 33.296875 66.21875 
Q 25.25 66.21875 20.875 63.09375 
Q 16.5 59.96875 16.5 54.203125 
Q 16.5 49.359375 19.40625 46.890625 
Q 22.3125 44.4375 30.421875 42.921875 
L 36.375 41.703125 
Q 47.40625 39.59375 52.65625 34.296875 
Q 57.90625 29 57.90625 20.125 
Q 57.90625 9.515625 50.796875 4.046875 
Q 43.703125 -1.421875 29.984375 -1.421875 
Q 24.8125 -1.421875 18.96875 -0.25 
Q 13.140625 0.921875 6.890625 3.21875 
L 6.890625 13.375 
Q 12.890625 10.015625 18.65625 8.296875 
Q 24.421875 6.59375 29.984375 6.59375 
Q 38.421875 6.59375 43.015625 9.90625 
Q 47.609375 13.234375 47.609375 19.390625 
Q 47.609375 24.75 44.3125 27.78125 
Q 41.015625 30.8125 33.5 32.328125 
L 27.484375 33.5 
Q 16.453125 35.6875 11.515625 40.375 
Q 6.59375 45.0625 6.59375 53.421875 
Q 6.59375 63.09375 13.40625 68.65625 
Q 20.21875 74.21875 32.171875 74.21875 
Q 37.3125 74.21875 42.625 73.28125 
Q 47.953125 72.359375 53.515625 70.515625 
" id="DejaVuSans-53"/>
      <path d="M 45.40625 46.390625 
L 45.40625 75.984375 
L 54.390625 75.984375 
L 54.390625 0 
L 45.40625 0 
L 45.40625 8.203125 
Q 42.578125 3.328125 38.25 0.953125 
Q 33.9375 -1.421875 27.875 -1.421875 
Q 17.96875 -1.421875 11.734375 6.484375 
Q 5.515625 14.40625 5.515625 27.296875 
Q 5.515625 40.1875 11.734375 48.09375 
Q 17.96875 56 27.875 56 
Q 33.9375 56 38.25 53.625 
Q 42.578125 51.265625 45.40625 46.390625 
M 14.796875 27.296875 
Q 14.796875 17.390625 18.875 11.75 
Q 22.953125 6.109375 30.078125 6.109375 
Q 37.203125 6.109375 41.296875 11.75 
Q 45.40625 17.390625 45.40625 27.296875 
Q 45.40625 37.203125 41.296875 42.84375 
Q 37.203125 48.484375 30.078125 48.484375 
Q 22.953125 48.484375 18.875 42.84375 
Q 14.796875 37.203125 14.796875 27.296875 
" id="DejaVuSans-64"/>
      <path d="M 4.203125 54.6875 
L 13.1875 54.6875 
L 24.421875 12.015625 
L 35.59375 54.6875 
L 46.1875 54.6875 
L 57.421875 12.015625 
L 68.609375 54.6875 
L 77.59375 54.6875 
L 63.28125 0 
L 52.6875 0 
L 40.921875 44.828125 
L 29.109375 0 
L 18.5 0 
z
" id="DejaVuSans-77"/>
      <path d="M 34.28125 27.484375 
Q 23.390625 27.484375 19.1875 25 
Q 14.984375 22.515625 14.984375 16.5 
Q 14.984375 11.71875 18.140625 8.90625 
Q 21.296875 6.109375 26.703125 6.109375 
Q 34.1875 6.109375 38.703125 11.40625 
Q 43.21875 16.703125 43.21875 25.484375 
L 43.21875 27.484375 
z
M 52.203125 31.203125 
L 52.203125 0 
L 43.21875 0 
L 43.21875 8.296875 
Q 40.140625 3.328125 35.546875 0.953125 
Q 30.953125 -1.421875 24.3125 -1.421875 
Q 15.921875 -1.421875 10.953125 3.296875 
Q 6 8.015625 6 15.921875 
Q 6 25.140625 12.171875 29.828125 
Q 18.359375 34.515625 30.609375 34.515625 
L 43.21875 34.515625 
L 43.21875 35.40625 
Q 43.21875 41.609375 39.140625 45 
Q 35.0625 48.390625 27.6875 48.390625 
Q 23 48.390625 18.546875 47.265625 
Q 14.109375 46.140625 10.015625 43.890625 
L 10.015625 52.203125 
Q 14.9375 54.109375 19.578125 55.046875 
Q 24.21875 56 28.609375 56 
Q 40.484375 56 46.34375 49.84375 
Q 52.203125 43.703125 52.203125 31.203125 
" id="DejaVuSans-61"/>
      <path d="M 14.796875 27.296875 
Q 14.796875 17.390625 18.875 11.75 
Q 22.953125 6.109375 30.078125 6.109375 
Q 37.203125 6.109375 41.296875 11.75 
Q 45.40625 17.390625 45.40625 27.296875 
Q 45.40625 37.203125 41.296875 42.84375 
Q 37.203125 48.484375 30.078125 48.484375 
Q 22.953125 48.484375 18.875 42.84375 
Q 14.796875 37.203125 14.796875 27.296875 
M 45.40625 8.203125 
Q 42.578125 3.328125 38.25 0.953125 
Q 33.9375 -1.421875 27.875 -1.421875 
Q 17.96875 -1.421875 11.734375 6.484375 
Q 5.515625 14.40625 5.515625 27.296875 
Q 5.515625 40.1875 11.734375 48.09375 
Q 17.96875 56 27.875 56 
Q 33.9375 56 38.25 53.625 
Q 42.578125 51.265625 45.40625 46.390625 
L 45.40625 54.6875 
L 54.390625 54.6875 
L 54.390625 -20.796875 
L 45.40625 -20.796875 
z
" id="DejaVuSans-71"/>
      <path d="M 18.109375 8.203125 
L 18.109375 -20.796875 
L 9.078125 -20.796875 
L 9.078125 54.6875 
L 18.109375 54.6875 
L 18.109375 46.390625 
Q 20.953125 51.265625 25.265625 53.625 
Q 29.59375 56 35.59375 56 
Q 45.5625 56 51.78125 48.09375 
Q 58.015625 40.1875 58.015625 27.296875 
Q 58.015625 14.40625 51.78125 6.484375 
Q 45.5625 -1.421875 35.59375 -1.421875 
Q 29.59375 -1.421875 25.265625 0.953125 
Q 20.953125 3.328125 18.109375 8.203125 
M 48.6875 27.296875 
Q 48.6875 37.203125 44.609375 42.84375 
Q 40.53125 48.484375 33.40625 48.484375 
Q 26.265625 48.484375 22.1875 42.84375 
Q 18.109375 37.203125 18.109375 27.296875 
Q 18.109375 17.390625 22.1875 11.75 
Q 26.265625 6.109375 33.40625 6.109375 
Q 40.53125 6.109375 44.609375 11.75 
Q 48.6875 17.390625 48.6875 27.296875 
" id="DejaVuSans-70"/>
     </defs>
     <g transform="translate(25.432812 279.366281)rotate(-90)scale(0.1 -0.1)">
      <use xlink:href="#DejaVuSans-53"/>
      <use x="63.476562" xlink:href="#DejaVuSans-75"/>
      <use x="126.855469" xlink:href="#DejaVuSans-63"/>
      <use x="181.835938" xlink:href="#DejaVuSans-63"/>
      <use x="236.816406" xlink:href="#DejaVuSans-65"/>
      <use x="298.339844" xlink:href="#DejaVuSans-73"/>
      <use x="350.439453" xlink:href="#DejaVuSans-73"/>
      <use x="402.539062" xlink:href="#DejaVuSans-66"/>
      <use x="437.744141" xlink:href="#DejaVuSans-75"/>
      <use x="501.123047" xlink:href="#DejaVuSans-6c"/>
      <use x="528.90625" xlink:href="#DejaVuSans-20"/>
      <use x="560.693359" xlink:href="#DejaVuSans-64"/>
      <use x="624.169922" xlink:href="#DejaVuSans-6f"/>
      <use x="685.351562" xlink:href="#DejaVuSans-77"/>
      <use x="767.138672" xlink:href="#DejaVuSans-6e"/>
      <use x="830.517578" xlink:href="#DejaVuSans-6c"/>
      <use x="858.300781" xlink:href="#DejaVuSans-6f"/>
      <use x="919.482422" xlink:href="#DejaVuSans-61"/>
      <use x="980.761719" xlink:href="#DejaVuSans-64"/>
      <use x="1044.238281" xlink:href="#DejaVuSans-20"/>
      <use x="1076.025391" xlink:href="#DejaVuSans-72"/>
      <use x="1117.107422" xlink:href="#DejaVuSans-65"/>
      <use x="1178.630859" xlink:href="#DejaVuSans-71"/>
      <use x="1242.107422" xlink:href="#DejaVuSans-75"/>
      <use x="1305.486328" xlink:href="#DejaVuSans-65"/>
      <use x="1367.009766" xlink:href="#DejaVuSans-73"/>
      <use x="1419.109375" xlink:href="#DejaVuSans-74"/>
      <use x="1458.318359" xlink:href="#DejaVuSans-73"/>
      <use x="1510.417969" xlink:href="#DejaVuSans-20"/>
      <use x="1542.205078" xlink:href="#DejaVuSans-70"/>
      <use x="1605.681641" xlink:href="#DejaVuSans-65"/>
      <use x="1667.205078" xlink:href="#DejaVuSans-72"/>
      <use x="1708.318359" xlink:href="#DejaVuSans-20"/>
      <use x="1740.105469" xlink:href="#DejaVuSans-73"/>
      <use x="1792.205078" xlink:href="#DejaVuSans-65"/>
      <use x="1853.728516" xlink:href="#DejaVuSans-63"/>
      <use x="1908.708984" xlink:href="#DejaVuSans-6f"/>
      <use x="1969.890625" xlink:href="#DejaVuSans-6e"/>
      <use x="2033.269531" xlink:href="#DejaVuSans-64"/>
     </g>
    </g>
   </g>
   <g id="line2d_27">
    <path clip-path="url(#p6da8e7f94b)" d="M 57.6 295.488 
L 57.95712 295.486372 
L 60.45696 292.816114 
L 63.31392 289.413387 
L 64.02816 288.71103 
L 64.38528 288.649177 
L 64.7424 287.880898 
L 65.81376 286.94171 
L 67.24224 285.0438 
L 67.59936 285.183376 
L 67.95648 284.534327 
L 68.3136 284.249884 
L 69.38496 282.990037 
L 69.74208 282.146883 
L 70.0992 282.397551 
L 70.45632 281.602008 
L 70.81344 281.126309 
L 71.17056 280.86791 
L 71.52768 280.023943 
L 71.8848 280.696187 
L 72.24192 279.53034 
L 72.59904 279.195845 
L 72.95616 278.655039 
L 73.31328 278.716892 
L 74.02752 277.923383 
L 74.38464 277.312992 
L 74.74176 277.563253 
L 75.09888 276.962221 
L 75.81312 275.481005 
L 76.17024 275.206736 
L 76.52736 275.731265 
L 77.2416 273.847191 
L 77.59872 274.536119 
L 77.95584 274.317192 
L 78.31296 272.684599 
L 78.67008 273.509848 
L 79.0272 272.809119 
L 79.38432 272.794877 
L 79.74144 271.33889 
L 80.09856 270.718733 
L 80.45568 271.019045 
L 80.8128 270.415572 
L 81.16992 270.300411 
L 81.52704 269.16427 
L 81.88416 269.743735 
L 82.24128 269.750245 
L 82.95552 267.160559 
L 83.31264 267.223226 
L 83.66976 268.199852 
L 84.384 265.898677 
L 84.74112 266.721891 
L 85.09824 265.787586 
L 85.45536 265.989829 
L 85.81248 265.088891 
L 86.1696 263.833113 
L 86.52672 264.417868 
L 86.88384 262.604599 
L 87.24096 263.631277 
L 87.59808 261.964909 
L 87.9552 262.517517 
L 88.31232 262.22046 
L 88.66944 262.817829 
L 89.7408 259.595778 
L 90.09792 260.37952 
L 90.45504 260.086532 
L 90.81216 260.31197 
L 91.16928 259.286513 
L 91.88352 258.486086 
L 92.24064 258.958529 
L 92.59776 258.686702 
L 92.95488 256.544636 
L 93.312 257.924527 
L 93.66912 256.912091 
L 94.02624 257.185546 
L 94.38336 256.753389 
L 94.74048 255.83414 
L 95.45472 252.756955 
L 95.81184 253.724628 
L 96.16896 253.38932 
L 96.8832 253.965122 
L 97.24032 252.234053 
L 97.59744 253.336826 
L 97.95456 251.463332 
L 98.31168 251.619186 
L 98.6688 249.291561 
L 99.38304 250.054143 
L 99.74016 251.128024 
L 100.09728 248.264069 
L 100.4544 248.301506 
L 100.81152 249.280167 
L 101.16864 247.414404 
L 101.52576 246.515908 
L 101.88288 246.969226 
L 102.24 248.454918 
L 102.59712 248.02154 
L 102.95424 245.094918 
L 103.31136 247.196291 
L 103.66848 244.754319 
L 104.0256 246.005621 
L 104.38272 243.248688 
L 104.73984 242.459656 
L 105.09696 242.536158 
L 105.45408 242.417335 
L 105.8112 240.960942 
L 106.16832 242.839726 
L 106.88256 240.770093 
L 107.23968 240.945072 
L 107.5968 239.716151 
L 107.95392 240.801019 
L 108.31104 239.455717 
L 108.66816 239.905372 
L 109.02528 240.916994 
L 109.3824 237.858527 
L 109.73952 240.099476 
L 110.09664 239.604246 
L 110.45376 236.872949 
L 110.81088 237.017408 
L 111.168 235.801915 
L 111.52512 236.902654 
L 112.59648 236.660939 
L 112.9536 237.145997 
L 113.31072 233.358723 
L 113.66784 234.77361 
L 114.02496 232.286876 
L 114.38208 232.128988 
L 114.7392 234.713385 
L 115.09632 230.451226 
L 115.45344 231.309029 
L 115.81056 234.072474 
L 116.16768 233.324134 
L 116.5248 231.659394 
L 116.88192 230.570456 
L 117.23904 228.559421 
L 117.59616 231.018076 
L 117.95328 227.801315 
L 118.3104 227.412699 
L 118.66752 231.028656 
L 119.02464 226.543502 
L 119.38176 230.319382 
L 119.73888 229.652835 
L 120.096 225.428928 
L 120.45312 228.916703 
L 120.81024 228.551282 
L 121.52448 225.857829 
L 121.8816 223.420741 
L 122.23872 226.843814 
L 122.59584 222.480738 
L 122.95296 224.871437 
L 123.31008 225.059844 
L 123.6672 222.261404 
L 124.02432 221.34419 
L 124.73856 221.30309 
L 125.09568 222.322444 
L 125.4528 223.935504 
L 125.80992 221.549281 
L 126.16704 223.117987 
L 126.52416 220.319953 
L 126.88128 220.11649 
L 127.2384 220.15352 
L 127.59552 217.018144 
L 127.95264 216.980707 
L 128.30976 218.875768 
L 128.66688 216.604706 
L 129.024 216.388627 
L 129.38112 217.766077 
L 129.73824 216.122904 
L 130.09536 218.983604 
L 130.45248 217.727419 
L 130.8096 215.230512 
L 131.16672 217.524362 
L 131.52384 216.306835 
L 131.88096 211.745178 
L 132.23808 211.209662 
L 132.5952 214.60303 
L 132.95232 210.928068 
L 133.30944 213.116117 
L 133.66656 210.226118 
L 134.3808 211.981603 
L 134.73792 212.348245 
L 135.09504 213.667503 
L 135.45216 208.519464 
L 135.80928 208.942262 
L 136.1664 209.886334 
L 136.52352 209.161596 
L 136.88064 206.58778 
L 137.23776 209.21531 
L 137.59488 208.405525 
L 137.952 210.463357 
L 138.30912 208.886106 
L 138.66624 204.059132 
L 139.02336 203.8105 
L 139.38048 205.441872 
L 139.7376 208.624045 
L 140.09472 205.460997 
L 140.45184 207.118413 
L 140.80896 207.054118 
L 141.16608 206.166203 
L 141.5232 201.137393 
L 141.88032 202.885554 
L 142.23744 199.689545 
L 142.59456 203.317304 
L 142.95168 200.178265 
L 143.3088 204.105115 
L 143.66592 198.78698 
L 144.02304 201.099956 
L 144.38016 198.922487 
L 144.73728 198.550962 
L 145.0944 200.161988 
L 145.45152 196.036558 
L 145.80864 195.482729 
L 146.16576 197.117764 
L 146.52288 197.514111 
L 146.88 197.175954 
L 147.23712 197.360293 
L 147.59424 197.247574 
L 147.95136 197.007486 
L 148.6656 192.267189 
L 149.02272 198.679144 
L 149.37984 193.291832 
L 149.73696 194.597662 
L 150.09408 195.149456 
L 150.4512 190.887298 
L 150.80832 192.416124 
L 151.16544 192.743701 
L 151.52256 195.706132 
L 151.87968 195.160036 
L 152.2368 192.611856 
L 152.59392 189.2368 
L 153.30816 192.908506 
L 153.66528 189.620125 
L 154.0224 187.940736 
L 154.37952 192.697311 
L 154.73664 192.843398 
L 155.09376 187.114673 
L 155.45088 187.70716 
L 155.808 189.074843 
L 156.16512 184.402095 
L 156.52224 188.400971 
L 156.87936 190.348933 
L 157.23648 182.697476 
L 157.5936 186.606421 
L 158.30784 184.484701 
L 158.66496 185.621249 
L 159.02208 181.510061 
L 159.3792 182.098071 
L 159.73632 181.780261 
L 160.09344 185.714029 
L 161.1648 178.119135 
L 161.52192 184.319488 
L 161.87904 178.753942 
L 162.23616 183.460872 
L 162.59328 182.440704 
L 162.9504 181.063255 
L 163.30752 181.989015 
L 163.66464 182.111907 
L 164.37888 180.246958 
L 164.736 178.604192 
L 165.09312 178.976124 
L 165.45024 175.516834 
L 165.80736 177.388293 
L 166.16448 174.321281 
L 166.5216 179.255683 
L 167.23584 172.317163 
L 167.59296 170.870536 
L 167.95008 174.980096 
L 168.3072 170.103071 
L 168.66432 177.590536 
L 169.02144 177.005781 
L 169.73568 171.574521 
L 170.0928 174.992304 
L 170.44992 174.410398 
L 170.80704 169.366532 
L 171.16416 172.337103 
L 171.52128 171.021913 
L 171.8784 173.747513 
L 172.23552 168.748409 
L 172.59264 170.865653 
L 172.94976 166.171338 
L 173.30688 166.942058 
L 173.664 172.774143 
L 174.02112 168.467222 
L 174.37824 167.405956 
L 174.73536 162.920801 
L 175.09248 164.933058 
L 175.4496 164.441082 
L 175.80672 161.346399 
L 176.16384 168.448504 
L 176.52096 162.885805 
L 176.87808 169.460125 
L 177.2352 163.346447 
L 177.59232 162.328722 
L 177.94944 160.865818 
L 178.30656 165.298478 
L 178.66368 160.730718 
L 179.0208 164.574148 
L 179.37792 157.524536 
L 179.73504 158.891813 
L 180.09216 156.908448 
L 180.44928 160.932147 
L 180.8064 160.186249 
L 181.16352 163.636587 
L 181.52064 161.306927 
L 181.87776 160.621661 
L 182.23488 154.447351 
L 182.592 156.016056 
L 182.94912 162.415397 
L 183.30624 154.875845 
L 183.66336 155.973329 
L 184.02048 161.223914 
L 184.3776 153.188724 
L 184.73472 159.84443 
L 185.44896 160.008421 
L 185.80608 150.200249 
L 186.1632 149.938188 
L 186.52032 155.589189 
L 186.87744 151.818599 
L 187.23456 149.776638 
L 187.59168 148.461448 
L 187.9488 156.831539 
L 188.30592 156.429901 
L 188.66304 155.432115 
L 189.37728 148.328383 
L 190.09152 147.634164 
L 190.44864 148.039871 
L 190.80576 152.041189 
L 191.16288 150.302795 
L 191.52 147.20038 
L 191.87712 147.467731 
L 192.23424 147.943022 
L 192.59136 149.058004 
L 192.94848 147.211774 
L 193.3056 145.997095 
L 193.66272 143.280041 
L 194.01984 143.826137 
L 194.37696 144.835317 
L 194.73408 142.001882 
L 195.0912 141.096468 
L 195.44832 142.89346 
L 195.80544 146.178992 
L 196.16256 147.472207 
L 196.51968 147.000985 
L 196.8768 148.084633 
L 197.23392 137.470337 
L 197.59104 139.555027 
L 197.94816 146.959072 
L 198.30528 142.9663 
L 198.6624 142.904447 
L 199.01952 144.265619 
L 199.37664 136.147416 
L 199.73376 140.143851 
L 200.09088 136.092888 
L 200.448 142.517459 
L 200.80512 143.607617 
L 201.16224 134.800079 
L 201.51936 132.068782 
L 201.87648 136.472551 
L 202.2336 135.143526 
L 202.59072 132.376013 
L 202.94784 130.53548 
L 203.30496 132.384151 
L 203.66208 137.983066 
L 204.0192 139.173736 
L 204.37632 130.854104 
L 204.73344 130.769056 
L 205.09056 131.650868 
L 205.44768 135.097543 
L 205.8048 129.105944 
L 206.16192 138.219491 
L 206.51904 134.383793 
L 206.87616 128.841034 
L 207.23328 132.451294 
L 207.5904 128.041421 
L 207.94752 128.601354 
L 208.30464 130.343817 
L 208.66176 126.649729 
L 209.01888 135.428782 
L 209.376 133.888155 
L 209.73312 130.873636 
L 210.09024 132.675918 
L 210.44736 128.099612 
L 210.80448 126.632232 
L 211.1616 122.453087 
L 211.51872 123.105391 
L 211.87584 125.928654 
L 212.23296 127.077003 
L 212.59008 125.042773 
L 212.9472 121.055698 
L 213.30432 128.999735 
L 213.66144 127.558805 
L 214.01856 121.247361 
L 214.37568 129.276853 
L 215.08992 119.887816 
L 215.44704 118.682904 
L 215.80416 119.64488 
L 216.16128 119.930136 
L 216.5184 122.360307 
L 216.87552 123.863497 
L 217.23264 126.062533 
L 217.58976 120.960884 
L 217.94688 122.936516 
L 218.304 116.667799 
L 218.66112 122.50029 
L 219.01824 121.369032 
L 219.37536 122.647598 
L 219.73248 122.407104 
L 220.0896 114.974574 
L 220.44672 114.680772 
L 220.80384 115.49422 
L 221.16096 111.185672 
L 221.51808 114.417083 
L 221.8752 116.472067 
L 222.23232 113.967835 
L 222.58944 112.493944 
L 222.94656 115.433588 
L 223.30368 116.339002 
L 223.6608 112.574516 
L 224.01792 116.746743 
L 224.37504 114.752798 
L 224.73216 108.859268 
L 225.08928 118.051352 
L 225.4464 108.327414 
L 225.80352 117.024674 
L 226.16064 108.618367 
L 226.51776 110.997265 
L 226.87488 103.247738 
L 227.232 112.380411 
L 227.58912 110.936226 
L 227.94624 104.97718 
L 228.30336 101.894298 
L 228.66048 113.973125 
L 229.0176 111.938895 
L 229.37472 106.102741 
L 229.73184 111.25485 
L 230.08896 102.011493 
L 230.44608 106.711098 
L 230.8032 108.447864 
L 231.16032 102.150255 
L 231.51744 102.056662 
L 232.23168 105.286038 
L 232.5888 109.627954 
L 232.94592 96.716553 
L 233.30304 101.496323 
L 233.66016 108.979312 
L 234.01728 100.311757 
L 234.73152 99.195148 
L 235.08864 104.263022 
L 235.44576 107.225454 
L 235.80288 95.063206 
L 236.16 92.794993 
L 236.51712 100.765888 
L 236.87424 104.437594 
L 237.23136 91.676756 
L 237.58848 98.448843 
L 237.9456 98.172132 
L 238.30272 96.757245 
L 238.65984 96.710449 
L 239.01696 92.540663 
L 239.37408 102.637754 
L 239.7312 89.735712 
L 240.08832 91.951432 
L 240.44544 90.239488 
L 241.15968 99.495053 
L 241.5168 92.261918 
L 241.87392 99.641954 
L 242.23104 92.310749 
L 242.58816 96.800787 
L 242.94528 87.457732 
L 243.3024 94.610296 
L 243.65952 98.126149 
L 244.01664 91.501777 
L 244.37376 89.545677 
L 244.73088 94.449967 
L 245.088 88.083587 
L 245.44512 84.376885 
L 245.80224 86.256482 
L 246.15936 83.061288 
L 246.51648 81.075889 
L 246.8736 92.339641 
L 247.23072 92.757556 
L 247.94496 85.812932 
L 248.30208 79.73018 
L 248.6592 88.28583 
L 249.01632 89.791054 
L 249.37344 82.293823 
L 249.73056 91.48957 
L 250.4448 84.576686 
L 250.80192 89.563582 
L 251.15904 82.605529 
L 251.51616 81.314755 
L 251.87328 82.376429 
L 252.2304 88.31757 
L 252.58752 80.113913 
L 252.94464 77.848954 
L 253.30176 88.283388 
L 253.65888 74.002269 
L 254.016 82.057805 
L 254.37312 76.945168 
L 254.73024 77.601136 
L 255.08736 81.742436 
L 255.44448 79.145832 
L 255.8016 73.221375 
L 256.15872 83.764052 
L 256.51584 76.781991 
L 257.23008 72.667547 
L 257.5872 73.161557 
L 257.94432 68.033457 
L 258.30144 78.51306 
L 258.65856 77.613343 
L 259.01568 77.707344 
L 259.3728 76.338847 
L 259.72992 80.303541 
L 260.08704 79.874232 
L 260.44416 68.733779 
L 260.80128 73.520467 
L 261.1584 74.233811 
L 261.87264 68.730931 
L 262.22976 65.412031 
L 262.58688 77.174676 
L 262.944 64.54202 
L 263.30112 75.854603 
L 263.65824 72.481174 
L 264.01536 70.200753 
L 264.37248 69.810102 
L 264.7296 73.682424 
L 265.08672 62.839842 
L 265.44384 61.891701 
L 265.80096 72.383512 
L 266.15808 72.781894 
L 266.5152 72.499893 
L 266.87232 61.368392 
L 267.22944 60.867872 
L 267.58656 71.086227 
L 267.94368 68.137224 
L 268.3008 60.893508 
L 268.65792 57.532287 
L 269.01504 57.145706 
L 269.37216 62.299849 
L 269.72928 58.369744 
L 270.0864 69.037347 
L 270.44352 69.759643 
L 270.80064 54.432314 
L 271.15776 53.568 
L 271.51488 63.639048 
L 271.872 67.609439 
L 272.22912 57.751621 
L 272.58624 59.050127 
L 272.94336 56.398994 
L 273.30048 62.516742 
L 273.6576 64.004468 
L 274.01472 56.823013 
L 274.37184 71.086634 
L 274.72896 61.252418 
L 275.08608 55.979859 
L 275.4432 66.241349 
L 275.80032 71.568029 
L 276.15744 60.993205 
L 276.87168 71.879329 
L 277.2288 69.04223 
L 277.58592 72.623192 
L 277.94304 69.312023 
L 278.30016 67.521542 
L 278.65728 60.419031 
L 279.0144 75.254385 
L 279.37152 60.913041 
L 279.72864 74.11743 
L 280.08576 69.518742 
L 280.44288 70.193835 
L 280.8 75.65765 
L 281.15712 70.456303 
L 281.51424 66.988874 
L 281.87136 70.733421 
L 282.22848 70.912062 
L 282.5856 78.105319 
L 283.29984 71.817476 
L 283.65696 74.439716 
L 284.01408 69.904103 
L 284.3712 80.676286 
L 284.72832 67.873942 
L 285.08544 79.53282 
L 285.44256 81.447007 
L 285.79968 71.68848 
L 286.1568 77.16613 
L 286.51392 80.242909 
L 286.87104 72.256957 
L 287.22816 68.410679 
L 287.58528 71.645752 
L 287.9424 78.655078 
L 288.29952 69.387712 
L 288.65664 74.445006 
L 289.01376 75.277173 
L 289.37088 72.393685 
L 289.728 83.292016 
L 290.08512 73.206319 
L 290.44224 75.105043 
L 290.79936 85.383623 
L 291.15648 76.611081 
L 291.5136 74.30014 
L 291.87072 80.265696 
L 292.22784 82.326377 
L 292.94208 79.644318 
L 293.2992 75.83914 
L 293.65632 84.983613 
L 294.01344 75.775659 
L 294.37056 80.345861 
L 294.72768 76.161019 
L 295.0848 87.825188 
L 295.44192 76.497141 
L 295.79904 87.972496 
L 296.15616 80.53142 
L 296.51328 89.912319 
L 296.8704 82.230342 
L 297.22752 89.91476 
L 297.58464 85.689226 
L 297.94176 88.34809 
L 298.29888 85.445883 
L 298.656 85.089008 
L 299.01312 92.53049 
L 299.37024 88.15073 
L 299.72736 90.71071 
L 300.08448 87.690088 
L 300.4416 94.34498 
L 300.79872 94.580997 
L 301.51296 82.513564 
L 301.87008 89.137122 
L 302.2272 85.651381 
L 302.58432 94.762487 
L 302.94144 90.816105 
L 303.29856 92.217156 
L 303.65568 89.744665 
L 304.0128 95.690689 
L 304.36992 88.100271 
L 304.72704 87.926513 
L 305.08416 89.661651 
L 305.44128 98.203873 
L 305.7984 94.504495 
L 306.15552 86.867281 
L 306.51264 86.372864 
L 306.86976 90.022596 
L 307.22688 95.026176 
L 307.584 88.676887 
L 308.29824 94.672149 
L 308.65536 87.621317 
L 309.01248 100.677178 
L 309.3696 99.804725 
L 309.72672 89.261642 
L 310.08384 93.281271 
L 310.44096 90.468182 
L 310.79808 97.22277 
L 311.1552 97.748114 
L 311.51232 104.257325 
L 311.86944 103.316916 
L 312.22656 90.671645 
L 312.58368 94.003974 
L 312.9408 93.970606 
L 313.29792 96.171677 
L 313.65504 93.289817 
L 314.01216 94.843059 
L 314.36928 98.973372 
L 314.7264 101.2835 
L 315.08352 93.673956 
L 315.44064 94.40846 
L 316.15488 103.05282 
L 316.512 94.139074 
L 316.86912 105.858178 
L 317.22624 96.598137 
L 317.58336 106.366023 
L 317.94048 108.975242 
L 318.2976 102.460334 
L 319.01184 107.948157 
L 319.36896 107.784573 
L 319.72608 103.388535 
L 320.0832 102.478646 
L 320.44032 99.982553 
L 320.79744 99.510924 
L 321.15456 103.278665 
L 321.51168 99.626084 
L 321.8688 109.452975 
L 322.58304 103.183851 
L 322.94016 104.091706 
L 323.29728 109.656032 
L 323.6544 104.827024 
L 324.01152 110.155332 
L 324.72576 100.658052 
L 325.08288 103.150076 
L 325.44 103.680709 
L 326.15424 112.455286 
L 326.51136 106.393695 
L 326.86848 112.84675 
L 327.2256 106.325331 
L 327.58272 107.105004 
L 327.93984 112.190376 
L 328.29696 107.238069 
L 328.65408 108.810437 
L 329.0112 107.963621 
L 329.36832 110.63632 
L 329.72544 109.50669 
L 330.08256 109.992968 
L 330.43968 107.310095 
L 330.7968 107.798001 
L 331.15392 110.239159 
L 331.51104 115.922308 
L 331.86816 115.742853 
L 332.22528 105.789407 
L 332.5824 113.387557 
L 332.93952 112.746239 
L 333.29664 117.659074 
L 333.65376 110.447506 
L 334.01088 114.092355 
L 334.368 112.646135 
L 334.72512 110.46419 
L 335.08224 110.174864 
L 335.43936 120.496986 
L 335.79648 109.269451 
L 336.1536 110.678641 
L 336.51072 117.95369 
L 336.86784 121.052849 
L 337.22496 115.513753 
L 337.58208 117.758365 
L 337.9392 117.919915 
L 338.29632 119.463798 
L 338.65344 111.492089 
L 339.01056 117.946772 
L 339.36768 112.661598 
L 339.7248 120.66871 
L 340.08192 113.18979 
L 340.43904 118.599484 
L 340.79616 120.853048 
L 341.15328 114.345057 
L 341.5104 122.454307 
L 341.86752 115.792905 
L 342.22464 124.227697 
L 342.58176 115.781511 
L 342.93888 124.246823 
L 343.296 124.461274 
L 343.65312 117.045021 
L 344.01024 114.045965 
L 344.36736 123.403262 
L 344.72448 121.347465 
L 345.0816 117.857248 
L 345.43872 117.034848 
L 345.79584 117.460087 
L 346.51008 124.657006 
L 346.8672 121.690911 
L 347.22432 124.775829 
L 347.58144 122.511277 
L 347.93856 122.83804 
L 348.29568 117.092224 
L 348.6528 116.619375 
L 349.00992 123.373963 
L 349.36704 118.74028 
L 349.72416 117.715637 
L 350.08128 124.794547 
L 350.4384 120.626389 
L 350.79552 118.441596 
L 351.15264 129.785512 
L 351.50976 119.283936 
L 351.86688 123.804493 
L 352.224 123.900934 
L 352.58112 124.506443 
L 352.93824 124.875119 
L 353.29536 130.23354 
L 353.65248 121.836185 
L 354.0096 130.681974 
L 354.36672 128.511829 
L 354.72384 127.837551 
L 355.08096 125.626714 
L 355.43808 125.437493 
L 355.7952 127.508346 
L 356.15232 124.753447 
L 356.50944 128.657916 
L 356.86656 125.198626 
L 357.22368 131.953215 
L 357.5808 122.247995 
L 357.93792 128.550895 
L 358.29504 131.355845 
L 358.65216 132.074072 
L 359.00928 130.397124 
L 359.3664 124.525161 
L 359.72352 128.78854 
L 360.08064 124.966271 
L 360.43776 134.019593 
L 360.79488 131.202841 
L 361.152 134.605568 
L 361.50912 129.818474 
L 361.86624 135.441397 
L 362.22336 131.277715 
L 362.58048 129.897417 
L 362.9376 133.31805 
L 363.29472 134.23852 
L 363.65184 130.08379 
L 364.00896 134.782582 
L 364.36608 133.800259 
L 364.7232 127.311393 
L 365.08032 128.734012 
L 365.43744 133.305842 
L 365.79456 133.660276 
L 366.15168 133.242768 
L 366.5088 130.692554 
L 366.86592 134.364667 
L 367.93728 128.656289 
L 368.2944 137.81826 
L 368.65152 130.382475 
L 369.00864 137.498822 
L 369.36576 133.42792 
L 369.72288 136.55882 
L 370.08 131.947518 
L 370.43712 132.39229 
L 370.79424 140.366033 
L 371.15136 139.947712 
L 371.50848 131.013619 
L 371.8656 137.505333 
L 372.22272 132.773174 
L 372.57984 140.468579 
L 372.93696 133.200448 
L 373.29408 131.575179 
L 373.6512 138.643509 
L 374.00832 132.570931 
L 374.36544 140.30418 
L 374.72256 135.259907 
L 375.07968 141.081005 
L 375.4368 135.747407 
L 375.79392 133.142257 
L 376.15104 132.738178 
L 376.50816 137.169618 
L 376.86528 133.091798 
L 377.2224 134.786244 
L 377.57952 139.051658 
L 378.29376 137.128518 
L 378.65088 133.084473 
L 379.008 135.555744 
L 379.36512 144.462979 
L 379.72224 136.002143 
L 380.43648 140.439687 
L 380.7936 144.633888 
L 381.15072 145.287414 
L 381.50784 138.014399 
L 381.86496 137.171653 
L 382.22208 142.806377 
L 382.5792 142.422238 
L 382.93632 140.497064 
L 383.29344 144.501637 
L 383.65056 145.150686 
L 384.00768 146.246542 
L 384.3648 140.425445 
L 384.72192 143.763471 
L 385.07904 141.502582 
L 385.43616 144.910192 
L 385.79328 139.450853 
L 386.1504 146.152542 
L 386.50752 138.03149 
L 386.86464 137.590788 
L 387.22176 139.695417 
L 387.57888 138.965389 
L 387.936 146.906578 
L 388.29312 144.830434 
L 388.65024 143.931532 
L 389.00736 145.189344 
L 389.36448 146.907799 
L 389.7216 145.987329 
L 390.07872 143.174646 
L 390.43584 148.465517 
L 390.79296 141.86434 
L 391.15008 148.122477 
L 391.86432 144.965127 
L 392.22144 141.930669 
L 392.57856 147.54993 
L 392.93568 146.00442 
L 393.2928 148.651076 
L 393.64992 150.442371 
L 394.00704 144.467862 
L 394.36416 149.641538 
L 394.72128 145.560055 
L 395.0784 143.0603 
L 395.43552 148.945285 
L 395.79264 143.361426 
L 396.14976 142.938222 
L 396.50688 151.365689 
L 396.864 150.039106 
L 397.22112 148.014235 
L 397.93536 152.144548 
L 398.29248 151.134148 
L 398.6496 142.835269 
L 399.00672 148.41221 
L 399.36384 144.848339 
L 399.72096 149.951209 
L 400.07808 153.043858 
L 400.4352 146.40972 
L 400.79232 151.655015 
L 401.14944 144.119532 
L 401.86368 148.710895 
L 402.2208 149.235017 
L 402.57792 146.032498 
L 402.93504 150.185193 
L 403.64928 145.724047 
L 404.0064 147.432735 
L 404.36352 154.344398 
L 404.72064 154.711854 
L 405.07776 152.728082 
L 405.43488 147.579229 
L 405.792 152.990144 
L 406.14912 153.60908 
L 406.50624 147.992668 
L 406.86336 152.778134 
L 407.22048 151.384815 
L 407.93472 152.264592 
L 408.29184 149.100731 
L 408.64896 156.813227 
L 409.00608 150.43057 
L 409.3632 156.262654 
L 410.07744 150.25966 
L 410.43456 156.16784 
L 410.79168 148.58434 
L 411.1488 154.30574 
L 411.50592 150.578692 
L 411.86304 158.147135 
L 412.22016 151.284304 
L 412.57728 155.009725 
L 412.9344 154.563732 
L 413.29152 151.102 
L 413.64864 150.414293 
L 414.00576 155.52286 
L 414.36288 153.353937 
L 414.72 154.173082 
L 414.72 154.173082 
" style="fill:none;stroke:#000080;stroke-linecap:square;stroke-width:0.5;"/>
   </g>
   <g id="patch_3">
    <path d="M 57.6 307.584 
L 57.6 41.472 
" style="fill:none;stroke:#000000;stroke-linecap:square;stroke-linejoin:miter;stroke-width:0.8;"/>
   </g>
   <g id="patch_4">
    <path d="M 414.72 307.584 
L 414.72 41.472 
" style="fill:none;stroke:#000000;stroke-linecap:square;stroke-linejoin:miter;stroke-width:0.8;"/>
   </g>
   <g id="patch_5">
    <path d="M 57.6 307.584 
L 414.72 307.584 
" style="fill:none;stroke:#000000;stroke-linecap:square;stroke-linejoin:miter;stroke-width:0.8;"/>
   </g>
   <g id="patch_6">
    <path d="M 57.6 41.472 
L 414.72 41.472 
" style="fill:none;stroke:#000000;stroke-linecap:square;stroke-linejoin:miter;stroke-width:0.8;"/>
   </g>
   <g id="text_16">
    <!-- Test -->
    <defs>
     <path d="M -0.296875 72.90625 
L 61.375 72.90625 
L 61.375 64.59375 
L 35.5 64.59375 
L 35.5 0 
L 25.59375 0 
L 25.59375 64.59375 
L -0.296875 64.59375 
z
" id="DejaVuSans-54"/>
    </defs>
    <g transform="translate(223.341563 35.472)scale(0.12 -0.12)">
     <use xlink:href="#DejaVuSans-54"/>
     <use x="60.818359" xlink:href="#DejaVuSans-65"/>
     <use x="122.341797" xlink:href="#DejaVuSans-73"/>
     <use x="174.441406" xlink:href="#DejaVuSans-74"/>
    </g>
   </g>
   <g id="legend_1">
    <g id="patch_7">
     <path d="M 166.043437 302.584 
L 407.72 302.584 
Q 409.72 302.584 409.72 300.584 
L 409.72 286.905875 
Q 409.72 284.905875 407.72 284.905875 
L 166.043437 284.905875 
Q 164.043437 284.905875 164.043437 286.905875 
L 164.043437 300.584 
Q 164.043437 302.584 166.043437 302.584 
z
" style="fill:#ffffff;opacity:0.8;stroke:#cccccc;stroke-linejoin:miter;"/>
    </g>
    <g id="line2d_28">
     <path d="M 168.043437 293.004312 
L 188.043437 293.004312 
" style="fill:none;stroke:#000080;stroke-linecap:square;stroke-width:0.5;"/>
    </g>
    <g id="line2d_29"/>
    <g id="text_17">
     <!-- Successful download requests per second -->
     <g transform="translate(196.043437 296.504312)scale(0.1 -0.1)">
      <use xlink:href="#DejaVuSans-53"/>
      <use x="63.476562" xlink:href="#DejaVuSans-75"/>
      <use x="126.855469" xlink:href="#DejaVuSans-63"/>
      <use x="181.835938" xlink:href="#DejaVuSans-63"/>
      <use x="236.816406" xlink:href="#DejaVuSans-65"/>
      <use x="298.339844" xlink:href="#DejaVuSans-73"/>
      <use x="350.439453" xlink:href="#DejaVuSans-73"/>
      <use x="402.539062" xlink:href="#DejaVuSans-66"/>
      <use x="437.744141" xlink:href="#DejaVuSans-75"/>
      <use x="501.123047" xlink:href="#DejaVuSans-6c"/>
      <use x="528.90625" xlink:href="#DejaVuSans-20"/>
      <use x="560.693359" xlink:href="#DejaVuSans-64"/>
      <use x="624.169922" xlink:href="#DejaVuSans-6f"/>
      <use x="685.351562" xlink:href="#DejaVuSans-77"/>
      <use x="767.138672" xlink:href="#DejaVuSans-6e"/>
      <use x="830.517578" xlink:href="#DejaVuSans-6c"/>
      <use x="858.300781" xlink:href="#DejaVuSans-6f"/>
      <use x="919.482422" xlink:href="#DejaVuSans-61"/>
      <use x="980.761719" xlink:href="#DejaVuSans-64"/>
      <use x="1044.238281" xlink:href="#DejaVuSans-20"/>
      <use x="1076.025391" xlink:href="#DejaVuSans-72"/>
      <use x="1117.107422" xlink:href="#DejaVuSans-65"/>
      <use x="1178.630859" xlink:href="#DejaVuSans-71"/>
      <use x="1242.107422" xlink:href="#DejaVuSans-75"/>
      <use x="1305.486328" xlink:href="#DejaVuSans-65"/>
      <use x="1367.009766" xlink:href="#DejaVuSans-73"/>
      <use x="1419.109375" xlink:href="#DejaVuSans-74"/>
      <use x="1458.318359" xlink:href="#DejaVuSans-73"/>
      <use x="1510.417969" xlink:href="#DejaVuSans-20"/>
      <use x="1542.205078" xlink:href="#DejaVuSans-70"/>
      <use x="1605.681641" xlink:href="#DejaVuSans-65"/>
      <use x="1667.205078" xlink:href="#DejaVuSans-72"/>
      <use x="1708.318359" xlink:href="#DejaVuSans-20"/>
      <use x="1740.105469" xlink:href="#DejaVuSans-73"/>
      <use x="1792.205078" xlink:href="#DejaVuSans-65"/>
      <use x="1853.728516" xlink:href="#DejaVuSans-63"/>
      <use x="1908.708984" xlink:href="#DejaVuSans-6f"/>
      <use x="1969.890625" xlink:href="#DejaVuSans-6e"/>
      <use x="2033.269531" xlink:href="#DejaVuSans-64"/>
     </g>
    </g>
   </g>
  </g>
 </g>
 <defs>
  <clipPath id="p6da8e7f94b">
   <rect height="266.112" width="357.12" x="57.6" y="41.472"/>
  </clipPath>
 </defs>
</svg>
