<?xml version="1.0" encoding="utf-8" standalone="no"?>
<!DOCTYPE svg PUBLIC "-//W3C//DTD SVG 1.1//EN"
  "http://www.w3.org/Graphics/SVG/1.1/DTD/svg11.dtd">
<!-- Created with matplotlib (http://matplotlib.org/) -->
<svg height="345pt" version="1.1" viewBox="0 0 460 345" width="460pt" xmlns="http://www.w3.org/2000/svg" xmlns:xlink="http://www.w3.org/1999/xlink">
 <defs>
  <style type="text/css">
*{stroke-linecap:butt;stroke-linejoin:round;}
  </style>
 </defs>
 <g id="figure_1">
  <g id="patch_1">
   <path d="M 0 345.6 
L 460.8 345.6 
L 460.8 0 
L 0 0 
z
" style="fill:#ffffff;"/>
  </g>
  <g id="axes_1">
   <g id="patch_2">
    <path d="M 57.6 307.584 
L 414.72 307.584 
L 414.72 41.472 
L 57.6 41.472 
z
" style="fill:#ffffff;"/>
   </g>
   <g id="matplotlib.axis_1">
    <g id="xtick_1">
     <g id="line2d_1">
      <path clip-path="url(#p1927207694)" d="M 57.6 307.584 
L 57.6 41.472 
" style="fill:none;stroke:#b0b0b0;stroke-linecap:square;stroke-width:0.8;"/>
     </g>
     <g id="line2d_2">
      <defs>
       <path d="M 0 0 
L 0 3.5 
" id="m342157085e" style="stroke:#000000;stroke-width:0.8;"/>
      </defs>
      <g>
       <use style="stroke:#000000;stroke-width:0.8;" x="57.6" xlink:href="#m342157085e" y="307.584"/>
      </g>
     </g>
     <g id="text_1">
      <!-- 0 -->
      <defs>
       <path d="M 31.78125 66.40625 
Q 24.171875 66.40625 20.328125 58.90625 
Q 16.5 51.421875 16.5 36.375 
Q 16.5 21.390625 20.328125 13.890625 
Q 24.171875 6.390625 31.78125 6.390625 
Q 39.453125 6.390625 43.28125 13.890625 
Q 47.125 21.390625 47.125 36.375 
Q 47.125 51.421875 43.28125 58.90625 
Q 39.453125 66.40625 31.78125 66.40625 
M 31.78125 74.21875 
Q 44.046875 74.21875 50.515625 64.515625 
Q 56.984375 54.828125 56.984375 36.375 
Q 56.984375 17.96875 50.515625 8.265625 
Q 44.046875 -1.421875 31.78125 -1.421875 
Q 19.53125 -1.421875 13.0625 8.265625 
Q 6.59375 17.96875 6.59375 36.375 
Q 6.59375 54.828125 13.0625 64.515625 
Q 19.53125 74.21875 31.78125 74.21875 
" id="DejaVuSans-30"/>
      </defs>
      <g transform="translate(54.41875 322.182437)scale(0.1 -0.1)">
       <use xlink:href="#DejaVuSans-30"/>
      </g>
     </g>
    </g>
    <g id="xtick_2">
     <g id="line2d_3">
      <path clip-path="url(#p1927207694)" d="M 129.024 307.584 
L 129.024 41.472 
" style="fill:none;stroke:#b0b0b0;stroke-linecap:square;stroke-width:0.8;"/>
     </g>
     <g id="line2d_4">
      <g>
       <use style="stroke:#000000;stroke-width:0.8;" x="129.024" xlink:href="#m342157085e" y="307.584"/>
      </g>
     </g>
     <g id="text_2">
      <!-- 200 -->
      <defs>
       <path d="M 19.1875 8.296875 
L 53.609375 8.296875 
L 53.609375 0 
L 7.328125 0 
L 7.328125 8.296875 
Q 12.9375 14.109375 22.625 23.890625 
Q 32.328125 33.6875 34.8125 36.53125 
Q 39.546875 41.84375 41.421875 45.53125 
Q 43.3125 49.21875 43.3125 52.78125 
Q 43.3125 58.59375 39.234375 62.25 
Q 35.15625 65.921875 28.609375 65.921875 
Q 23.96875 65.921875 18.8125 64.3125 
Q 13.671875 62.703125 7.8125 59.421875 
L 7.8125 69.390625 
Q 13.765625 71.78125 18.9375 73 
Q 24.125 74.21875 28.421875 74.21875 
Q 39.75 74.21875 46.484375 68.546875 
Q 53.21875 62.890625 53.21875 53.421875 
Q 53.21875 48.921875 51.53125 44.890625 
Q 49.859375 40.875 45.40625 35.40625 
Q 44.1875 33.984375 37.640625 27.21875 
Q 31.109375 20.453125 19.1875 8.296875 
" id="DejaVuSans-32"/>
      </defs>
      <g transform="translate(119.48025 322.182437)scale(0.1 -0.1)">
       <use xlink:href="#DejaVuSans-32"/>
       <use x="63.623047" xlink:href="#DejaVuSans-30"/>
       <use x="127.246094" xlink:href="#DejaVuSans-30"/>
      </g>
     </g>
    </g>
    <g id="xtick_3">
     <g id="line2d_5">
      <path clip-path="url(#p1927207694)" d="M 200.448 307.584 
L 200.448 41.472 
" style="fill:none;stroke:#b0b0b0;stroke-linecap:square;stroke-width:0.8;"/>
     </g>
     <g id="line2d_6">
      <g>
       <use style="stroke:#000000;stroke-width:0.8;" x="200.448" xlink:href="#m342157085e" y="307.584"/>
      </g>
     </g>
     <g id="text_3">
      <!-- 400 -->
      <defs>
       <path d="M 37.796875 64.3125 
L 12.890625 25.390625 
L 37.796875 25.390625 
z
M 35.203125 72.90625 
L 47.609375 72.90625 
L 47.609375 25.390625 
L 58.015625 25.390625 
L 58.015625 17.1875 
L 47.609375 17.1875 
L 47.609375 0 
L 37.796875 0 
L 37.796875 17.1875 
L 4.890625 17.1875 
L 4.890625 26.703125 
z
" id="DejaVuSans-34"/>
      </defs>
      <g transform="translate(190.90425 322.182437)scale(0.1 -0.1)">
       <use xlink:href="#DejaVuSans-34"/>
       <use x="63.623047" xlink:href="#DejaVuSans-30"/>
       <use x="127.246094" xlink:href="#DejaVuSans-30"/>
      </g>
     </g>
    </g>
    <g id="xtick_4">
     <g id="line2d_7">
      <path clip-path="url(#p1927207694)" d="M 271.872 307.584 
L 271.872 41.472 
" style="fill:none;stroke:#b0b0b0;stroke-linecap:square;stroke-width:0.8;"/>
     </g>
     <g id="line2d_8">
      <g>
       <use style="stroke:#000000;stroke-width:0.8;" x="271.872" xlink:href="#m342157085e" y="307.584"/>
      </g>
     </g>
     <g id="text_4">
      <!-- 600 -->
      <defs>
       <path d="M 33.015625 40.375 
Q 26.375 40.375 22.484375 35.828125 
Q 18.609375 31.296875 18.609375 23.390625 
Q 18.609375 15.53125 22.484375 10.953125 
Q 26.375 6.390625 33.015625 6.390625 
Q 39.65625 6.390625 43.53125 10.953125 
Q 47.40625 15.53125 47.40625 23.390625 
Q 47.40625 31.296875 43.53125 35.828125 
Q 39.65625 40.375 33.015625 40.375 
M 52.59375 71.296875 
L 52.59375 62.3125 
Q 48.875 64.0625 45.09375 64.984375 
Q 41.3125 65.921875 37.59375 65.921875 
Q 27.828125 65.921875 22.671875 59.328125 
Q 17.53125 52.734375 16.796875 39.40625 
Q 19.671875 43.65625 24.015625 45.921875 
Q 28.375 48.1875 33.59375 48.1875 
Q 44.578125 48.1875 50.953125 41.515625 
Q 57.328125 34.859375 57.328125 23.390625 
Q 57.328125 12.15625 50.6875 5.359375 
Q 44.046875 -1.421875 33.015625 -1.421875 
Q 20.359375 -1.421875 13.671875 8.265625 
Q 6.984375 17.96875 6.984375 36.375 
Q 6.984375 53.65625 15.1875 63.9375 
Q 23.390625 74.21875 37.203125 74.21875 
Q 40.921875 74.21875 44.703125 73.484375 
Q 48.484375 72.75 52.59375 71.296875 
" id="DejaVuSans-36"/>
      </defs>
      <g transform="translate(262.32825 322.182437)scale(0.1 -0.1)">
       <use xlink:href="#DejaVuSans-36"/>
       <use x="63.623047" xlink:href="#DejaVuSans-30"/>
       <use x="127.246094" xlink:href="#DejaVuSans-30"/>
      </g>
     </g>
    </g>
    <g id="xtick_5">
     <g id="line2d_9">
      <path clip-path="url(#p1927207694)" d="M 343.296 307.584 
L 343.296 41.472 
" style="fill:none;stroke:#b0b0b0;stroke-linecap:square;stroke-width:0.8;"/>
     </g>
     <g id="line2d_10">
      <g>
       <use style="stroke:#000000;stroke-width:0.8;" x="343.296" xlink:href="#m342157085e" y="307.584"/>
      </g>
     </g>
     <g id="text_5">
      <!-- 800 -->
      <defs>
       <path d="M 31.78125 34.625 
Q 24.75 34.625 20.71875 30.859375 
Q 16.703125 27.09375 16.703125 20.515625 
Q 16.703125 13.921875 20.71875 10.15625 
Q 24.75 6.390625 31.78125 6.390625 
Q 38.8125 6.390625 42.859375 10.171875 
Q 46.921875 13.96875 46.921875 20.515625 
Q 46.921875 27.09375 42.890625 30.859375 
Q 38.875 34.625 31.78125 34.625 
M 21.921875 38.8125 
Q 15.578125 40.375 12.03125 44.71875 
Q 8.5 49.078125 8.5 55.328125 
Q 8.5 64.0625 14.71875 69.140625 
Q 20.953125 74.21875 31.78125 74.21875 
Q 42.671875 74.21875 48.875 69.140625 
Q 55.078125 64.0625 55.078125 55.328125 
Q 55.078125 49.078125 51.53125 44.71875 
Q 48 40.375 41.703125 38.8125 
Q 48.828125 37.15625 52.796875 32.3125 
Q 56.78125 27.484375 56.78125 20.515625 
Q 56.78125 9.90625 50.3125 4.234375 
Q 43.84375 -1.421875 31.78125 -1.421875 
Q 19.734375 -1.421875 13.25 4.234375 
Q 6.78125 9.90625 6.78125 20.515625 
Q 6.78125 27.484375 10.78125 32.3125 
Q 14.796875 37.15625 21.921875 38.8125 
M 18.3125 54.390625 
Q 18.3125 48.734375 21.84375 45.5625 
Q 25.390625 42.390625 31.78125 42.390625 
Q 38.140625 42.390625 41.71875 45.5625 
Q 45.3125 48.734375 45.3125 54.390625 
Q 45.3125 60.0625 41.71875 63.234375 
Q 38.140625 66.40625 31.78125 66.40625 
Q 25.390625 66.40625 21.84375 63.234375 
Q 18.3125 60.0625 18.3125 54.390625 
" id="DejaVuSans-38"/>
      </defs>
      <g transform="translate(333.75225 322.182437)scale(0.1 -0.1)">
       <use xlink:href="#DejaVuSans-38"/>
       <use x="63.623047" xlink:href="#DejaVuSans-30"/>
       <use x="127.246094" xlink:href="#DejaVuSans-30"/>
      </g>
     </g>
    </g>
    <g id="xtick_6">
     <g id="line2d_11">
      <path clip-path="url(#p1927207694)" d="M 414.72 307.584 
L 414.72 41.472 
" style="fill:none;stroke:#b0b0b0;stroke-linecap:square;stroke-width:0.8;"/>
     </g>
     <g id="line2d_12">
      <g>
       <use style="stroke:#000000;stroke-width:0.8;" x="414.72" xlink:href="#m342157085e" y="307.584"/>
      </g>
     </g>
     <g id="text_6">
      <!-- 1000 -->
      <defs>
       <path d="M 12.40625 8.296875 
L 28.515625 8.296875 
L 28.515625 63.921875 
L 10.984375 60.40625 
L 10.984375 69.390625 
L 28.421875 72.90625 
L 38.28125 72.90625 
L 38.28125 8.296875 
L 54.390625 8.296875 
L 54.390625 0 
L 12.40625 0 
z
" id="DejaVuSans-31"/>
      </defs>
      <g transform="translate(401.995 322.182437)scale(0.1 -0.1)">
       <use xlink:href="#DejaVuSans-31"/>
       <use x="63.623047" xlink:href="#DejaVuSans-30"/>
       <use x="127.246094" xlink:href="#DejaVuSans-30"/>
       <use x="190.869141" xlink:href="#DejaVuSans-30"/>
      </g>
     </g>
    </g>
    <g id="text_7">
     <!-- Number of clients -->
     <defs>
      <path d="M 9.8125 72.90625 
L 23.09375 72.90625 
L 55.421875 11.921875 
L 55.421875 72.90625 
L 64.984375 72.90625 
L 64.984375 0 
L 51.703125 0 
L 19.390625 60.984375 
L 19.390625 0 
L 9.8125 0 
z
" id="DejaVuSans-4e"/>
      <path d="M 8.5 21.578125 
L 8.5 54.6875 
L 17.484375 54.6875 
L 17.484375 21.921875 
Q 17.484375 14.15625 20.5 10.265625 
Q 23.53125 6.390625 29.59375 6.390625 
Q 36.859375 6.390625 41.078125 11.03125 
Q 45.3125 15.671875 45.3125 23.6875 
L 45.3125 54.6875 
L 54.296875 54.6875 
L 54.296875 0 
L 45.3125 0 
L 45.3125 8.40625 
Q 42.046875 3.421875 37.71875 1 
Q 33.40625 -1.421875 27.6875 -1.421875 
Q 18.265625 -1.421875 13.375 4.4375 
Q 8.5 10.296875 8.5 21.578125 
M 31.109375 56 
z
" id="DejaVuSans-75"/>
      <path d="M 52 44.1875 
Q 55.375 50.25 60.0625 53.125 
Q 64.75 56 71.09375 56 
Q 79.640625 56 84.28125 50.015625 
Q 88.921875 44.046875 88.921875 33.015625 
L 88.921875 0 
L 79.890625 0 
L 79.890625 32.71875 
Q 79.890625 40.578125 77.09375 44.375 
Q 74.3125 48.1875 68.609375 48.1875 
Q 61.625 48.1875 57.5625 43.546875 
Q 53.515625 38.921875 53.515625 30.90625 
L 53.515625 0 
L 44.484375 0 
L 44.484375 32.71875 
Q 44.484375 40.625 41.703125 44.40625 
Q 38.921875 48.1875 33.109375 48.1875 
Q 26.21875 48.1875 22.15625 43.53125 
Q 18.109375 38.875 18.109375 30.90625 
L 18.109375 0 
L 9.078125 0 
L 9.078125 54.6875 
L 18.109375 54.6875 
L 18.109375 46.1875 
Q 21.1875 51.21875 25.484375 53.609375 
Q 29.78125 56 35.6875 56 
Q 41.65625 56 45.828125 52.96875 
Q 50 49.953125 52 44.1875 
" id="DejaVuSans-6d"/>
      <path d="M 48.6875 27.296875 
Q 48.6875 37.203125 44.609375 42.84375 
Q 40.53125 48.484375 33.40625 48.484375 
Q 26.265625 48.484375 22.1875 42.84375 
Q 18.109375 37.203125 18.109375 27.296875 
Q 18.109375 17.390625 22.1875 11.75 
Q 26.265625 6.109375 33.40625 6.109375 
Q 40.53125 6.109375 44.609375 11.75 
Q 48.6875 17.390625 48.6875 27.296875 
M 18.109375 46.390625 
Q 20.953125 51.265625 25.265625 53.625 
Q 29.59375 56 35.59375 56 
Q 45.5625 56 51.78125 48.09375 
Q 58.015625 40.1875 58.015625 27.296875 
Q 58.015625 14.40625 51.78125 6.484375 
Q 45.5625 -1.421875 35.59375 -1.421875 
Q 29.59375 -1.421875 25.265625 0.953125 
Q 20.953125 3.328125 18.109375 8.203125 
L 18.109375 0 
L 9.078125 0 
L 9.078125 75.984375 
L 18.109375 75.984375 
z
" id="DejaVuSans-62"/>
      <path d="M 56.203125 29.59375 
L 56.203125 25.203125 
L 14.890625 25.203125 
Q 15.484375 15.921875 20.484375 11.0625 
Q 25.484375 6.203125 34.421875 6.203125 
Q 39.59375 6.203125 44.453125 7.46875 
Q 49.3125 8.734375 54.109375 11.28125 
L 54.109375 2.78125 
Q 49.265625 0.734375 44.1875 -0.34375 
Q 39.109375 -1.421875 33.890625 -1.421875 
Q 20.796875 -1.421875 13.15625 6.1875 
Q 5.515625 13.8125 5.515625 26.8125 
Q 5.515625 40.234375 12.765625 48.109375 
Q 20.015625 56 32.328125 56 
Q 43.359375 56 49.78125 48.890625 
Q 56.203125 41.796875 56.203125 29.59375 
M 47.21875 32.234375 
Q 47.125 39.59375 43.09375 43.984375 
Q 39.0625 48.390625 32.421875 48.390625 
Q 24.90625 48.390625 20.390625 44.140625 
Q 15.875 39.890625 15.1875 32.171875 
z
" id="DejaVuSans-65"/>
      <path d="M 41.109375 46.296875 
Q 39.59375 47.171875 37.8125 47.578125 
Q 36.03125 48 33.890625 48 
Q 26.265625 48 22.1875 43.046875 
Q 18.109375 38.09375 18.109375 28.8125 
L 18.109375 0 
L 9.078125 0 
L 9.078125 54.6875 
L 18.109375 54.6875 
L 18.109375 46.1875 
Q 20.953125 51.171875 25.484375 53.578125 
Q 30.03125 56 36.53125 56 
Q 37.453125 56 38.578125 55.875 
Q 39.703125 55.765625 41.0625 55.515625 
z
" id="DejaVuSans-72"/>
      <path id="DejaVuSans-20"/>
      <path d="M 30.609375 48.390625 
Q 23.390625 48.390625 19.1875 42.75 
Q 14.984375 37.109375 14.984375 27.296875 
Q 14.984375 17.484375 19.15625 11.84375 
Q 23.34375 6.203125 30.609375 6.203125 
Q 37.796875 6.203125 41.984375 11.859375 
Q 46.1875 17.53125 46.1875 27.296875 
Q 46.1875 37.015625 41.984375 42.703125 
Q 37.796875 48.390625 30.609375 48.390625 
M 30.609375 56 
Q 42.328125 56 49.015625 48.375 
Q 55.71875 40.765625 55.71875 27.296875 
Q 55.71875 13.875 49.015625 6.21875 
Q 42.328125 -1.421875 30.609375 -1.421875 
Q 18.84375 -1.421875 12.171875 6.21875 
Q 5.515625 13.875 5.515625 27.296875 
Q 5.515625 40.765625 12.171875 48.375 
Q 18.84375 56 30.609375 56 
" id="DejaVuSans-6f"/>
      <path d="M 37.109375 75.984375 
L 37.109375 68.5 
L 28.515625 68.5 
Q 23.6875 68.5 21.796875 66.546875 
Q 19.921875 64.59375 19.921875 59.515625 
L 19.921875 54.6875 
L 34.71875 54.6875 
L 34.71875 47.703125 
L 19.921875 47.703125 
L 19.921875 0 
L 10.890625 0 
L 10.890625 47.703125 
L 2.296875 47.703125 
L 2.296875 54.6875 
L 10.890625 54.6875 
L 10.890625 58.5 
Q 10.890625 67.625 15.140625 71.796875 
Q 19.390625 75.984375 28.609375 75.984375 
z
" id="DejaVuSans-66"/>
      <path d="M 48.78125 52.59375 
L 48.78125 44.1875 
Q 44.96875 46.296875 41.140625 47.34375 
Q 37.3125 48.390625 33.40625 48.390625 
Q 24.65625 48.390625 19.8125 42.84375 
Q 14.984375 37.3125 14.984375 27.296875 
Q 14.984375 17.28125 19.8125 11.734375 
Q 24.65625 6.203125 33.40625 6.203125 
Q 37.3125 6.203125 41.140625 7.25 
Q 44.96875 8.296875 48.78125 10.40625 
L 48.78125 2.09375 
Q 45.015625 0.34375 40.984375 -0.53125 
Q 36.96875 -1.421875 32.421875 -1.421875 
Q 20.0625 -1.421875 12.78125 6.34375 
Q 5.515625 14.109375 5.515625 27.296875 
Q 5.515625 40.671875 12.859375 48.328125 
Q 20.21875 56 33.015625 56 
Q 37.15625 56 41.109375 55.140625 
Q 45.0625 54.296875 48.78125 52.59375 
" id="DejaVuSans-63"/>
      <path d="M 9.421875 75.984375 
L 18.40625 75.984375 
L 18.40625 0 
L 9.421875 0 
z
" id="DejaVuSans-6c"/>
      <path d="M 9.421875 54.6875 
L 18.40625 54.6875 
L 18.40625 0 
L 9.421875 0 
z
M 9.421875 75.984375 
L 18.40625 75.984375 
L 18.40625 64.59375 
L 9.421875 64.59375 
z
" id="DejaVuSans-69"/>
      <path d="M 54.890625 33.015625 
L 54.890625 0 
L 45.90625 0 
L 45.90625 32.71875 
Q 45.90625 40.484375 42.875 44.328125 
Q 39.84375 48.1875 33.796875 48.1875 
Q 26.515625 48.1875 22.3125 43.546875 
Q 18.109375 38.921875 18.109375 30.90625 
L 18.109375 0 
L 9.078125 0 
L 9.078125 54.6875 
L 18.109375 54.6875 
L 18.109375 46.1875 
Q 21.34375 51.125 25.703125 53.5625 
Q 30.078125 56 35.796875 56 
Q 45.21875 56 50.046875 50.171875 
Q 54.890625 44.34375 54.890625 33.015625 
" id="DejaVuSans-6e"/>
      <path d="M 18.3125 70.21875 
L 18.3125 54.6875 
L 36.8125 54.6875 
L 36.8125 47.703125 
L 18.3125 47.703125 
L 18.3125 18.015625 
Q 18.3125 11.328125 20.140625 9.421875 
Q 21.96875 7.515625 27.59375 7.515625 
L 36.8125 7.515625 
L 36.8125 0 
L 27.59375 0 
Q 17.1875 0 13.234375 3.875 
Q 9.28125 7.765625 9.28125 18.015625 
L 9.28125 47.703125 
L 2.6875 47.703125 
L 2.6875 54.6875 
L 9.28125 54.6875 
L 9.28125 70.21875 
z
" id="DejaVuSans-74"/>
      <path d="M 44.28125 53.078125 
L 44.28125 44.578125 
Q 40.484375 46.53125 36.375 47.5 
Q 32.28125 48.484375 27.875 48.484375 
Q 21.1875 48.484375 17.84375 46.4375 
Q 14.5 44.390625 14.5 40.28125 
Q 14.5 37.15625 16.890625 35.375 
Q 19.28125 33.59375 26.515625 31.984375 
L 29.59375 31.296875 
Q 39.15625 29.25 43.1875 25.515625 
Q 47.21875 21.78125 47.21875 15.09375 
Q 47.21875 7.46875 41.1875 3.015625 
Q 35.15625 -1.421875 24.609375 -1.421875 
Q 20.21875 -1.421875 15.453125 -0.5625 
Q 10.6875 0.296875 5.421875 2 
L 5.421875 11.28125 
Q 10.40625 8.6875 15.234375 7.390625 
Q 20.0625 6.109375 24.8125 6.109375 
Q 31.15625 6.109375 34.5625 8.28125 
Q 37.984375 10.453125 37.984375 14.40625 
Q 37.984375 18.0625 35.515625 20.015625 
Q 33.0625 21.96875 24.703125 23.78125 
L 21.578125 24.515625 
Q 13.234375 26.265625 9.515625 29.90625 
Q 5.8125 33.546875 5.8125 39.890625 
Q 5.8125 47.609375 11.28125 51.796875 
Q 16.75 56 26.8125 56 
Q 31.78125 56 36.171875 55.265625 
Q 40.578125 54.546875 44.28125 53.078125 
" id="DejaVuSans-73"/>
     </defs>
     <g transform="translate(191.738906 335.860562)scale(0.1 -0.1)">
      <use xlink:href="#DejaVuSans-4e"/>
      <use x="74.804688" xlink:href="#DejaVuSans-75"/>
      <use x="138.183594" xlink:href="#DejaVuSans-6d"/>
      <use x="235.595703" xlink:href="#DejaVuSans-62"/>
      <use x="299.072266" xlink:href="#DejaVuSans-65"/>
      <use x="360.595703" xlink:href="#DejaVuSans-72"/>
      <use x="401.708984" xlink:href="#DejaVuSans-20"/>
      <use x="433.496094" xlink:href="#DejaVuSans-6f"/>
      <use x="494.677734" xlink:href="#DejaVuSans-66"/>
      <use x="529.882812" xlink:href="#DejaVuSans-20"/>
      <use x="561.669922" xlink:href="#DejaVuSans-63"/>
      <use x="616.650391" xlink:href="#DejaVuSans-6c"/>
      <use x="644.433594" xlink:href="#DejaVuSans-69"/>
      <use x="672.216797" xlink:href="#DejaVuSans-65"/>
      <use x="733.740234" xlink:href="#DejaVuSans-6e"/>
      <use x="797.119141" xlink:href="#DejaVuSans-74"/>
      <use x="836.328125" xlink:href="#DejaVuSans-73"/>
     </g>
    </g>
   </g>
   <g id="matplotlib.axis_2">
    <g id="ytick_1">
     <g id="line2d_13">
      <path clip-path="url(#p1927207694)" d="M 57.6 296.312387 
L 414.72 296.312387 
" style="fill:none;stroke:#b0b0b0;stroke-linecap:square;stroke-width:0.8;"/>
     </g>
     <g id="line2d_14">
      <defs>
       <path d="M 0 0 
L -3.5 0 
" id="m6b906099f2" style="stroke:#000000;stroke-width:0.8;"/>
      </defs>
      <g>
       <use style="stroke:#000000;stroke-width:0.8;" x="57.6" xlink:href="#m6b906099f2" y="296.312387"/>
      </g>
     </g>
     <g id="text_8">
      <!-- 0 -->
      <g transform="translate(44.2375 300.111606)scale(0.1 -0.1)">
       <use xlink:href="#DejaVuSans-30"/>
      </g>
     </g>
    </g>
    <g id="ytick_2">
     <g id="line2d_15">
      <path clip-path="url(#p1927207694)" d="M 57.6 252.9692 
L 414.72 252.9692 
" style="fill:none;stroke:#b0b0b0;stroke-linecap:square;stroke-width:0.8;"/>
     </g>
     <g id="line2d_16">
      <g>
       <use style="stroke:#000000;stroke-width:0.8;" x="57.6" xlink:href="#m6b906099f2" y="252.9692"/>
      </g>
     </g>
     <g id="text_9">
      <!-- 50 -->
      <defs>
       <path d="M 10.796875 72.90625 
L 49.515625 72.90625 
L 49.515625 64.59375 
L 19.828125 64.59375 
L 19.828125 46.734375 
Q 21.96875 47.46875 24.109375 47.828125 
Q 26.265625 48.1875 28.421875 48.1875 
Q 40.625 48.1875 47.75 41.5 
Q 54.890625 34.8125 54.890625 23.390625 
Q 54.890625 11.625 47.5625 5.09375 
Q 40.234375 -1.421875 26.90625 -1.421875 
Q 22.3125 -1.421875 17.546875 -0.640625 
Q 12.796875 0.140625 7.71875 1.703125 
L 7.71875 11.625 
Q 12.109375 9.234375 16.796875 8.0625 
Q 21.484375 6.890625 26.703125 6.890625 
Q 35.15625 6.890625 40.078125 11.328125 
Q 45.015625 15.765625 45.015625 23.390625 
Q 45.015625 31 40.078125 35.4375 
Q 35.15625 39.890625 26.703125 39.890625 
Q 22.75 39.890625 18.8125 39.015625 
Q 14.890625 38.140625 10.796875 36.28125 
z
" id="DejaVuSans-35"/>
      </defs>
      <g transform="translate(37.875 256.768419)scale(0.1 -0.1)">
       <use xlink:href="#DejaVuSans-35"/>
       <use x="63.623047" xlink:href="#DejaVuSans-30"/>
      </g>
     </g>
    </g>
    <g id="ytick_3">
     <g id="line2d_17">
      <path clip-path="url(#p1927207694)" d="M 57.6 209.626013 
L 414.72 209.626013 
" style="fill:none;stroke:#b0b0b0;stroke-linecap:square;stroke-width:0.8;"/>
     </g>
     <g id="line2d_18">
      <g>
       <use style="stroke:#000000;stroke-width:0.8;" x="57.6" xlink:href="#m6b906099f2" y="209.626013"/>
      </g>
     </g>
     <g id="text_10">
      <!-- 100 -->
      <g transform="translate(31.5125 213.425232)scale(0.1 -0.1)">
       <use xlink:href="#DejaVuSans-31"/>
       <use x="63.623047" xlink:href="#DejaVuSans-30"/>
       <use x="127.246094" xlink:href="#DejaVuSans-30"/>
      </g>
     </g>
    </g>
    <g id="ytick_4">
     <g id="line2d_19">
      <path clip-path="url(#p1927207694)" d="M 57.6 166.282825 
L 414.72 166.282825 
" style="fill:none;stroke:#b0b0b0;stroke-linecap:square;stroke-width:0.8;"/>
     </g>
     <g id="line2d_20">
      <g>
       <use style="stroke:#000000;stroke-width:0.8;" x="57.6" xlink:href="#m6b906099f2" y="166.282825"/>
      </g>
     </g>
     <g id="text_11">
      <!-- 150 -->
      <g transform="translate(31.5125 170.082044)scale(0.1 -0.1)">
       <use xlink:href="#DejaVuSans-31"/>
       <use x="63.623047" xlink:href="#DejaVuSans-35"/>
       <use x="127.246094" xlink:href="#DejaVuSans-30"/>
      </g>
     </g>
    </g>
    <g id="ytick_5">
     <g id="line2d_21">
      <path clip-path="url(#p1927207694)" d="M 57.6 122.939638 
L 414.72 122.939638 
" style="fill:none;stroke:#b0b0b0;stroke-linecap:square;stroke-width:0.8;"/>
     </g>
     <g id="line2d_22">
      <g>
       <use style="stroke:#000000;stroke-width:0.8;" x="57.6" xlink:href="#m6b906099f2" y="122.939638"/>
      </g>
     </g>
     <g id="text_12">
      <!-- 200 -->
      <g transform="translate(31.5125 126.738857)scale(0.1 -0.1)">
       <use xlink:href="#DejaVuSans-32"/>
       <use x="63.623047" xlink:href="#DejaVuSans-30"/>
       <use x="127.246094" xlink:href="#DejaVuSans-30"/>
      </g>
     </g>
    </g>
    <g id="ytick_6">
     <g id="line2d_23">
      <path clip-path="url(#p1927207694)" d="M 57.6 79.596451 
L 414.72 79.596451 
" style="fill:none;stroke:#b0b0b0;stroke-linecap:square;stroke-width:0.8;"/>
     </g>
     <g id="line2d_24">
      <g>
       <use style="stroke:#000000;stroke-width:0.8;" x="57.6" xlink:href="#m6b906099f2" y="79.596451"/>
      </g>
     </g>
     <g id="text_13">
      <!-- 250 -->
      <g transform="translate(31.5125 83.39567)scale(0.1 -0.1)">
       <use xlink:href="#DejaVuSans-32"/>
       <use x="63.623047" xlink:href="#DejaVuSans-35"/>
       <use x="127.246094" xlink:href="#DejaVuSans-30"/>
      </g>
     </g>
    </g>
    <g id="text_14">
     <!-- Successful download requests per second -->
     <defs>
      <path d="M 53.515625 70.515625 
L 53.515625 60.890625 
Q 47.90625 63.578125 42.921875 64.890625 
Q 37.9375 66.21875 33.296875 66.21875 
Q 25.25 66.21875 20.875 63.09375 
Q 16.5 59.96875 16.5 54.203125 
Q 16.5 49.359375 19.40625 46.890625 
Q 22.3125 44.4375 30.421875 42.921875 
L 36.375 41.703125 
Q 47.40625 39.59375 52.65625 34.296875 
Q 57.90625 29 57.90625 20.125 
Q 57.90625 9.515625 50.796875 4.046875 
Q 43.703125 -1.421875 29.984375 -1.421875 
Q 24.8125 -1.421875 18.96875 -0.25 
Q 13.140625 0.921875 6.890625 3.21875 
L 6.890625 13.375 
Q 12.890625 10.015625 18.65625 8.296875 
Q 24.421875 6.59375 29.984375 6.59375 
Q 38.421875 6.59375 43.015625 9.90625 
Q 47.609375 13.234375 47.609375 19.390625 
Q 47.609375 24.75 44.3125 27.78125 
Q 41.015625 30.8125 33.5 32.328125 
L 27.484375 33.5 
Q 16.453125 35.6875 11.515625 40.375 
Q 6.59375 45.0625 6.59375 53.421875 
Q 6.59375 63.09375 13.40625 68.65625 
Q 20.21875 74.21875 32.171875 74.21875 
Q 37.3125 74.21875 42.625 73.28125 
Q 47.953125 72.359375 53.515625 70.515625 
" id="DejaVuSans-53"/>
      <path d="M 45.40625 46.390625 
L 45.40625 75.984375 
L 54.390625 75.984375 
L 54.390625 0 
L 45.40625 0 
L 45.40625 8.203125 
Q 42.578125 3.328125 38.25 0.953125 
Q 33.9375 -1.421875 27.875 -1.421875 
Q 17.96875 -1.421875 11.734375 6.484375 
Q 5.515625 14.40625 5.515625 27.296875 
Q 5.515625 40.1875 11.734375 48.09375 
Q 17.96875 56 27.875 56 
Q 33.9375 56 38.25 53.625 
Q 42.578125 51.265625 45.40625 46.390625 
M 14.796875 27.296875 
Q 14.796875 17.390625 18.875 11.75 
Q 22.953125 6.109375 30.078125 6.109375 
Q 37.203125 6.109375 41.296875 11.75 
Q 45.40625 17.390625 45.40625 27.296875 
Q 45.40625 37.203125 41.296875 42.84375 
Q 37.203125 48.484375 30.078125 48.484375 
Q 22.953125 48.484375 18.875 42.84375 
Q 14.796875 37.203125 14.796875 27.296875 
" id="DejaVuSans-64"/>
      <path d="M 4.203125 54.6875 
L 13.1875 54.6875 
L 24.421875 12.015625 
L 35.59375 54.6875 
L 46.1875 54.6875 
L 57.421875 12.015625 
L 68.609375 54.6875 
L 77.59375 54.6875 
L 63.28125 0 
L 52.6875 0 
L 40.921875 44.828125 
L 29.109375 0 
L 18.5 0 
z
" id="DejaVuSans-77"/>
      <path d="M 34.28125 27.484375 
Q 23.390625 27.484375 19.1875 25 
Q 14.984375 22.515625 14.984375 16.5 
Q 14.984375 11.71875 18.140625 8.90625 
Q 21.296875 6.109375 26.703125 6.109375 
Q 34.1875 6.109375 38.703125 11.40625 
Q 43.21875 16.703125 43.21875 25.484375 
L 43.21875 27.484375 
z
M 52.203125 31.203125 
L 52.203125 0 
L 43.21875 0 
L 43.21875 8.296875 
Q 40.140625 3.328125 35.546875 0.953125 
Q 30.953125 -1.421875 24.3125 -1.421875 
Q 15.921875 -1.421875 10.953125 3.296875 
Q 6 8.015625 6 15.921875 
Q 6 25.140625 12.171875 29.828125 
Q 18.359375 34.515625 30.609375 34.515625 
L 43.21875 34.515625 
L 43.21875 35.40625 
Q 43.21875 41.609375 39.140625 45 
Q 35.0625 48.390625 27.6875 48.390625 
Q 23 48.390625 18.546875 47.265625 
Q 14.109375 46.140625 10.015625 43.890625 
L 10.015625 52.203125 
Q 14.9375 54.109375 19.578125 55.046875 
Q 24.21875 56 28.609375 56 
Q 40.484375 56 46.34375 49.84375 
Q 52.203125 43.703125 52.203125 31.203125 
" id="DejaVuSans-61"/>
      <path d="M 14.796875 27.296875 
Q 14.796875 17.390625 18.875 11.75 
Q 22.953125 6.109375 30.078125 6.109375 
Q 37.203125 6.109375 41.296875 11.75 
Q 45.40625 17.390625 45.40625 27.296875 
Q 45.40625 37.203125 41.296875 42.84375 
Q 37.203125 48.484375 30.078125 48.484375 
Q 22.953125 48.484375 18.875 42.84375 
Q 14.796875 37.203125 14.796875 27.296875 
M 45.40625 8.203125 
Q 42.578125 3.328125 38.25 0.953125 
Q 33.9375 -1.421875 27.875 -1.421875 
Q 17.96875 -1.421875 11.734375 6.484375 
Q 5.515625 14.40625 5.515625 27.296875 
Q 5.515625 40.1875 11.734375 48.09375 
Q 17.96875 56 27.875 56 
Q 33.9375 56 38.25 53.625 
Q 42.578125 51.265625 45.40625 46.390625 
L 45.40625 54.6875 
L 54.390625 54.6875 
L 54.390625 -20.796875 
L 45.40625 -20.796875 
z
" id="DejaVuSans-71"/>
      <path d="M 18.109375 8.203125 
L 18.109375 -20.796875 
L 9.078125 -20.796875 
L 9.078125 54.6875 
L 18.109375 54.6875 
L 18.109375 46.390625 
Q 20.953125 51.265625 25.265625 53.625 
Q 29.59375 56 35.59375 56 
Q 45.5625 56 51.78125 48.09375 
Q 58.015625 40.1875 58.015625 27.296875 
Q 58.015625 14.40625 51.78125 6.484375 
Q 45.5625 -1.421875 35.59375 -1.421875 
Q 29.59375 -1.421875 25.265625 0.953125 
Q 20.953125 3.328125 18.109375 8.203125 
M 48.6875 27.296875 
Q 48.6875 37.203125 44.609375 42.84375 
Q 40.53125 48.484375 33.40625 48.484375 
Q 26.265625 48.484375 22.1875 42.84375 
Q 18.109375 37.203125 18.109375 27.296875 
Q 18.109375 17.390625 22.1875 11.75 
Q 26.265625 6.109375 33.40625 6.109375 
Q 40.53125 6.109375 44.609375 11.75 
Q 48.6875 17.390625 48.6875 27.296875 
" id="DejaVuSans-70"/>
     </defs>
     <g transform="translate(25.432812 279.366281)rotate(-90)scale(0.1 -0.1)">
      <use xlink:href="#DejaVuSans-53"/>
      <use x="63.476562" xlink:href="#DejaVuSans-75"/>
      <use x="126.855469" xlink:href="#DejaVuSans-63"/>
      <use x="181.835938" xlink:href="#DejaVuSans-63"/>
      <use x="236.816406" xlink:href="#DejaVuSans-65"/>
      <use x="298.339844" xlink:href="#DejaVuSans-73"/>
      <use x="350.439453" xlink:href="#DejaVuSans-73"/>
      <use x="402.539062" xlink:href="#DejaVuSans-66"/>
      <use x="437.744141" xlink:href="#DejaVuSans-75"/>
      <use x="501.123047" xlink:href="#DejaVuSans-6c"/>
      <use x="528.90625" xlink:href="#DejaVuSans-20"/>
      <use x="560.693359" xlink:href="#DejaVuSans-64"/>
      <use x="624.169922" xlink:href="#DejaVuSans-6f"/>
      <use x="685.351562" xlink:href="#DejaVuSans-77"/>
      <use x="767.138672" xlink:href="#DejaVuSans-6e"/>
      <use x="830.517578" xlink:href="#DejaVuSans-6c"/>
      <use x="858.300781" xlink:href="#DejaVuSans-6f"/>
      <use x="919.482422" xlink:href="#DejaVuSans-61"/>
      <use x="980.761719" xlink:href="#DejaVuSans-64"/>
      <use x="1044.238281" xlink:href="#DejaVuSans-20"/>
      <use x="1076.025391" xlink:href="#DejaVuSans-72"/>
      <use x="1117.107422" xlink:href="#DejaVuSans-65"/>
      <use x="1178.630859" xlink:href="#DejaVuSans-71"/>
      <use x="1242.107422" xlink:href="#DejaVuSans-75"/>
      <use x="1305.486328" xlink:href="#DejaVuSans-65"/>
      <use x="1367.009766" xlink:href="#DejaVuSans-73"/>
      <use x="1419.109375" xlink:href="#DejaVuSans-74"/>
      <use x="1458.318359" xlink:href="#DejaVuSans-73"/>
      <use x="1510.417969" xlink:href="#DejaVuSans-20"/>
      <use x="1542.205078" xlink:href="#DejaVuSans-70"/>
      <use x="1605.681641" xlink:href="#DejaVuSans-65"/>
      <use x="1667.205078" xlink:href="#DejaVuSans-72"/>
      <use x="1708.318359" xlink:href="#DejaVuSans-20"/>
      <use x="1740.105469" xlink:href="#DejaVuSans-73"/>
      <use x="1792.205078" xlink:href="#DejaVuSans-65"/>
      <use x="1853.728516" xlink:href="#DejaVuSans-63"/>
      <use x="1908.708984" xlink:href="#DejaVuSans-6f"/>
      <use x="1969.890625" xlink:href="#DejaVuSans-6e"/>
      <use x="2033.269531" xlink:href="#DejaVuSans-64"/>
     </g>
    </g>
   </g>
   <g id="line2d_25">
    <path clip-path="url(#p1927207694)" d="M 57.6 295.448124 
L 57.95712 295.488 
L 61.52832 286.996203 
L 61.88544 286.586176 
L 62.24256 285.713244 
L 62.59968 284.182363 
L 62.9568 284.095677 
L 63.31392 282.484177 
L 63.67104 282.409627 
L 64.7424 279.806435 
L 65.09952 279.189228 
L 65.45664 278.203604 
L 65.81376 276.605107 
L 66.17088 275.955826 
L 66.528 275.631619 
L 66.88512 274.593116 
L 67.24224 272.943475 
L 67.59936 272.89493 
L 67.95648 271.426463 
L 68.3136 271.256558 
L 68.67072 269.910318 
L 69.02784 269.091132 
L 69.38496 269.14141 
L 69.74208 268.386372 
L 70.0992 266.522615 
L 70.45632 266.835553 
L 70.81344 265.818721 
L 71.17056 265.645349 
L 71.52768 263.179121 
L 71.8848 263.212929 
L 72.24192 262.895657 
L 72.59904 260.151166 
L 72.95616 261.414187 
L 73.31328 260.805648 
L 73.6704 257.538439 
L 74.02752 259.191548 
L 74.38464 258.296078 
L 74.74176 256.671575 
L 75.456 255.55072 
L 75.81312 254.253025 
L 76.17024 253.882874 
L 76.52736 252.957931 
L 76.88448 250.626067 
L 77.2416 250.624334 
L 77.59872 249.219148 
L 77.95584 249.747934 
L 78.31296 248.15984 
L 78.67008 245.844447 
L 79.0272 246.099305 
L 79.38432 247.050254 
L 79.74144 244.76 
L 80.09856 244.486938 
L 80.8128 241.863809 
L 81.16992 242.031113 
L 81.52704 238.333939 
L 81.88416 240.996945 
L 82.24128 240.145685 
L 82.5984 237.54336 
L 82.95552 237.754874 
L 83.31264 235.112674 
L 83.66976 234.900292 
L 84.02688 235.810499 
L 84.384 232.840624 
L 84.74112 235.042458 
L 85.45536 228.777634 
L 85.81248 232.34131 
L 86.1696 229.138249 
L 86.88384 228.732557 
L 87.24096 227.500743 
L 87.59808 225.855436 
L 87.9552 225.821628 
L 88.31232 223.218436 
L 88.66944 225.388196 
L 89.02656 221.966685 
L 89.38368 221.537588 
L 89.7408 223.324194 
L 90.09792 222.800608 
L 90.45504 219.184919 
L 90.81216 217.607227 
L 91.5264 216.006997 
L 91.88352 217.829144 
L 92.24064 212.850746 
L 92.59776 213.125542 
L 92.95488 213.160216 
L 93.312 211.689149 
L 93.66912 212.460657 
L 94.02624 208.616117 
L 94.38336 209.600874 
L 94.74048 209.194315 
L 95.0976 205.489339 
L 95.45472 207.75012 
L 95.81184 205.427792 
L 96.16896 208.04572 
L 96.52608 207.301084 
L 96.8832 203.540629 
L 97.24032 203.343851 
L 97.59744 199.855592 
L 97.95456 200.599361 
L 98.31168 202.511662 
L 98.6688 198.277033 
L 99.02592 195.776998 
L 99.38304 196.429746 
L 99.74016 200.666976 
L 100.09728 198.361985 
L 100.4544 194.684749 
L 100.81152 192.591273 
L 101.16864 196.055261 
L 101.52576 196.051793 
L 101.88288 197.612148 
L 102.24 191.276241 
L 102.59712 192.162176 
L 102.95424 190.392907 
L 103.31136 195.809072 
L 103.66848 194.876326 
L 104.0256 193.042909 
L 104.38272 195.516072 
L 104.73984 189.14549 
L 105.09696 190.411111 
L 105.45408 189.655206 
L 105.8112 186.865638 
L 106.16832 186.554434 
L 106.52544 193.133063 
L 106.88256 188.959981 
L 107.23968 192.91548 
L 107.95392 185.749985 
L 108.31104 184.416748 
L 108.66816 188.013366 
L 109.02528 189.828579 
L 109.3824 188.601966 
L 109.73952 184.551979 
L 110.09664 188.23875 
L 110.45376 188.140795 
L 110.81088 187.188112 
L 111.168 187.165573 
L 111.52512 188.491008 
L 111.88224 188.163333 
L 112.23936 182.040675 
L 112.59648 186.786754 
L 112.9536 184.471361 
L 113.31072 183.927837 
L 113.66784 180.794125 
L 114.02496 179.963669 
L 114.38208 180.706571 
L 115.09632 184.707148 
L 115.45344 181.380991 
L 115.81056 181.264832 
L 116.16768 180.147444 
L 116.5248 183.827281 
L 116.88192 177.727161 
L 117.23904 179.665468 
L 117.59616 179.017054 
L 117.95328 179.492962 
L 118.3104 178.106847 
L 118.66752 181.770213 
L 119.02464 182.520917 
L 119.38176 176.582034 
L 119.73888 174.474688 
L 120.096 173.802002 
L 120.45312 180.649358 
L 120.81024 175.918016 
L 121.16736 176.636646 
L 121.52448 179.158353 
L 121.8816 174.813632 
L 122.23872 177.852856 
L 122.59584 175.088427 
L 122.95296 178.980646 
L 123.31008 175.876407 
L 123.6672 177.734096 
L 124.02432 177.704622 
L 124.38144 174.025652 
L 124.73856 175.826995 
L 125.09568 169.973064 
L 125.4528 169.472017 
L 125.80992 175.512324 
L 126.16704 169.49889 
L 126.52416 170.721168 
L 126.88128 176.542158 
L 127.2384 173.044363 
L 127.59552 174.9662 
L 127.95264 174.439146 
L 128.30976 168.709177 
L 128.66688 169.08713 
L 129.024 171.525617 
L 129.38112 173.009688 
L 129.73824 166.851488 
L 130.09536 167.173095 
L 130.8096 172.415886 
L 131.16672 170.213186 
L 131.52384 167.300524 
L 131.88096 171.172804 
L 132.23808 166.686784 
L 132.5952 163.689169 
L 132.95232 171.466671 
L 133.30944 168.358964 
L 133.66656 169.907183 
L 134.02368 165.569397 
L 134.3808 168.538405 
L 134.73792 165.614474 
L 135.09504 170.993363 
L 135.45216 167.291855 
L 135.80928 168.819269 
L 136.52352 161.41972 
L 136.88064 160.760903 
L 137.23776 162.494631 
L 137.59488 169.032517 
L 137.952 161.211673 
L 138.30912 168.062497 
L 139.02336 161.393714 
L 139.38048 163.351092 
L 139.7376 160.594466 
L 140.09472 160.760903 
L 140.45184 167.27105 
L 141.16608 161.09898 
L 141.5232 164.734607 
L 141.88032 165.513917 
L 142.23744 157.776292 
L 142.95168 165.619675 
L 143.3088 165.015471 
L 143.66592 165.07095 
L 144.02304 155.869191 
L 144.38016 164.899311 
L 144.73728 155.786839 
L 145.0944 161.517675 
L 145.45152 154.548091 
L 145.80864 159.16414 
L 146.16576 154.69199 
L 146.52288 162.784163 
L 146.88 161.627767 
L 147.23712 154.114659 
L 147.59424 157.973936 
L 147.95136 160.24772 
L 148.30848 155.226845 
L 148.6656 155.43836 
L 149.02272 161.745661 
L 149.37984 156.990046 
L 149.73696 160.818983 
L 150.09408 159.54296 
L 150.4512 155.13149 
L 150.80832 158.235729 
L 151.16544 152.320251 
L 151.52256 157.834371 
L 151.87968 155.987085 
L 152.2368 155.990552 
L 152.59392 159.507418 
L 152.95104 156.28962 
L 153.30816 154.380786 
L 153.66528 149.145796 
L 154.37952 155.852721 
L 154.73664 154.972854 
L 155.09376 149.596565 
L 155.45088 153.948221 
L 155.808 155.199972 
L 156.16512 151.910225 
L 156.52224 152.381798 
L 156.87936 151.788864 
L 157.23648 150.179965 
L 157.5936 156.414449 
L 157.95072 146.855542 
L 158.30784 150.285722 
L 158.66496 147.857637 
L 159.02208 155.903866 
L 159.73632 145.926264 
L 160.09344 151.495864 
L 160.45056 152.231831 
L 160.80768 147.218758 
L 161.1648 145.21717 
L 161.52192 153.977695 
L 161.87904 143.836256 
L 162.59328 151.584284 
L 162.9504 150.984414 
L 163.30752 151.253142 
L 163.66464 150.631601 
L 164.02176 146.585081 
L 164.37888 149.71966 
L 164.736 142.122466 
L 165.09312 149.229015 
L 165.45024 148.767843 
L 165.80736 151.840875 
L 166.5216 145.502368 
L 166.87872 146.550406 
L 167.23584 143.940279 
L 167.59296 146.11524 
L 167.95008 146.100504 
L 168.3072 145.758093 
L 169.02144 139.795804 
L 169.37856 143.809383 
L 169.73568 143.520717 
L 170.0928 139.884224 
L 170.44992 140.76149 
L 170.80704 142.149339 
L 171.16416 148.419364 
L 171.52128 148.73837 
L 172.23552 143.497312 
L 172.94976 141.148978 
L 173.30688 142.522957 
L 173.664 144.560954 
L 174.02112 137.621709 
L 174.37824 146.605885 
L 174.73536 139.329431 
L 175.09248 138.069011 
L 175.80672 139.182931 
L 176.16384 141.441978 
L 176.52096 141.962096 
L 176.87808 142.698064 
L 177.2352 140.002117 
L 177.59232 145.76156 
L 177.94944 136.395097 
L 178.30656 138.083748 
L 178.66368 138.267523 
L 179.0208 143.703625 
L 179.37792 139.731656 
L 179.73504 142.267232 
L 180.09216 142.91738 
L 180.44928 138.407088 
L 180.8064 137.626044 
L 181.16352 135.10347 
L 181.52064 138.765103 
L 181.87776 138.546653 
L 182.23488 135.180621 
L 182.592 142.249028 
L 182.94912 137.995328 
L 183.30624 141.085697 
L 184.02048 132.468204 
L 184.3776 139.625032 
L 184.73472 134.292953 
L 185.09184 133.958343 
L 185.44896 142.014108 
L 185.80608 139.434322 
L 186.1632 140.234437 
L 186.52032 137.893038 
L 186.87744 130.079995 
L 187.23456 136.523393 
L 187.59168 139.956174 
L 187.9488 129.383903 
L 188.30592 135.194491 
L 188.66304 131.277134 
L 189.02016 131.96369 
L 189.37728 134.861615 
L 189.7344 134.062367 
L 190.09152 134.497532 
L 190.44864 139.143055 
L 190.80576 131.04308 
L 191.16288 133.014329 
L 191.52 134.127382 
L 191.87712 134.142118 
L 192.23424 138.816248 
L 192.59136 136.89181 
L 192.94848 127.316433 
L 193.3056 134.579018 
L 193.66272 130.96853 
L 194.01984 136.58494 
L 194.37696 135.99894 
L 194.73408 135.090467 
L 195.0912 131.121965 
L 195.44832 125.792487 
L 195.80544 130.119004 
L 196.16256 136.024946 
L 196.51968 135.594982 
L 196.8768 127.284359 
L 197.23392 134.963038 
L 197.59104 134.26868 
L 197.94816 131.837128 
L 198.30528 134.794 
L 198.6624 125.86357 
L 199.01952 127.612034 
L 199.37664 134.399577 
L 199.73376 127.840886 
L 200.09088 134.109178 
L 200.448 123.74062 
L 200.80512 126.2892 
L 201.16224 132.27316 
L 201.87648 126.744303 
L 202.2336 128.9314 
L 202.59072 124.74965 
L 202.94784 127.403986 
L 203.66208 121.734698 
L 204.0192 132.58263 
L 204.37632 129.540806 
L 204.73344 128.458093 
L 205.09056 122.334567 
L 205.44768 127.162131 
L 205.8048 120.878236 
L 206.16192 126.688824 
L 206.51904 125.51509 
L 206.87616 125.784685 
L 207.23328 128.688679 
L 207.5904 126.747771 
L 207.94752 122.759331 
L 208.30464 128.844714 
L 208.66176 129.754054 
L 209.01888 128.827377 
L 209.376 124.443647 
L 209.73312 122.31723 
L 210.09024 127.810546 
L 210.44736 121.407023 
L 210.80448 129.28248 
L 211.1616 127.104052 
L 211.51872 124.198324 
L 211.87584 128.332398 
L 212.23296 118.320988 
L 212.59008 126.419229 
L 212.9472 117.857216 
L 213.30432 118.223033 
L 213.66144 125.050451 
L 214.01856 117.962973 
L 214.37568 127.423057 
L 214.7328 120.653718 
L 215.08992 125.240295 
L 215.44704 118.71021 
L 215.80416 118.551574 
L 216.5184 127.705655 
L 216.87552 120.066852 
L 217.23264 121.787576 
L 217.58976 121.862127 
L 217.94688 123.106943 
L 218.304 118.236902 
L 218.66112 114.961891 
L 219.01824 119.237263 
L 219.37536 120.944985 
L 219.73248 121.035139 
L 220.0896 122.606762 
L 220.44672 116.205841 
L 220.80384 119.620417 
L 221.16096 115.997793 
L 221.51808 115.740335 
L 221.8752 117.266015 
L 222.23232 118.217831 
L 222.58944 120.275766 
L 222.94656 124.88488 
L 223.30368 117.312826 
L 223.6608 114.481649 
L 224.01792 114.134903 
L 224.37504 114.110631 
L 224.73216 122.274754 
L 225.08928 116.597663 
L 225.4464 121.686153 
L 225.80352 120.686659 
L 226.16064 123.028058 
L 226.51776 119.045686 
L 226.87488 112.747054 
L 227.232 120.54536 
L 227.58912 115.226285 
L 227.94624 111.785702 
L 228.30336 120.489881 
L 228.66048 119.759115 
L 229.0176 117.423784 
L 229.37472 121.651479 
L 229.73184 114.010942 
L 230.08896 112.620492 
L 230.44608 113.479554 
L 230.8032 120.287035 
L 231.16032 116.212775 
L 231.51744 118.862778 
L 231.87456 111.552516 
L 232.23168 120.378923 
L 232.5888 110.96825 
L 232.94592 113.873977 
L 233.30304 109.620277 
L 233.66016 121.018668 
L 234.01728 108.243697 
L 234.3744 118.431947 
L 234.73152 117.513071 
L 235.08864 111.673877 
L 235.44576 118.000249 
L 235.80288 113.490823 
L 236.16 113.918187 
L 236.51712 115.859095 
L 236.87424 108.538431 
L 237.23136 112.816403 
L 237.58848 119.241597 
L 237.9456 115.221083 
L 238.30272 109.103626 
L 238.65984 107.920357 
L 239.01696 108.243697 
L 239.37408 113.237699 
L 239.7312 115.355447 
L 240.08832 116.741562 
L 240.44544 107.069097 
L 240.80256 112.31969 
L 241.15968 106.420683 
L 241.5168 109.562197 
L 241.87392 109.810987 
L 242.23104 109.886404 
L 242.58816 115.537489 
L 242.94528 111.920066 
L 243.3024 105.848553 
L 243.65952 104.455502 
L 244.01664 116.252651 
L 244.37376 108.647656 
L 244.73088 105.567689 
L 245.088 114.530193 
L 245.44512 108.814093 
L 245.80224 108.636386 
L 246.51648 106.817706 
L 246.8736 108.618182 
L 247.58784 110.299898 
L 247.94496 105.967313 
L 248.30208 108.807159 
L 248.6592 106.522106 
L 249.01632 115.180341 
L 249.37344 111.154626 
L 249.73056 104.341076 
L 250.08768 107.287546 
L 250.4448 104.31247 
L 250.80192 107.783392 
L 251.15904 106.555046 
L 251.51616 108.500289 
L 251.87328 109.230188 
L 252.2304 103.083257 
L 252.58752 113.07993 
L 252.94464 100.945571 
L 253.30176 112.067433 
L 253.65888 106.950336 
L 254.016 107.918623 
L 254.37312 100.591024 
L 254.73024 100.124651 
L 255.08736 112.967238 
L 255.44448 106.870585 
L 255.8016 112.603155 
L 256.15872 108.209889 
L 256.51584 99.21011 
L 256.87296 109.720833 
L 257.23008 110.976918 
L 257.5872 108.676262 
L 257.94432 109.615076 
L 258.30144 107.366431 
L 258.65856 98.983859 
L 259.01568 106.665138 
L 259.3728 111.232643 
L 259.72992 101.52897 
L 260.08704 109.911543 
L 260.80128 100.857151 
L 261.1584 100.87969 
L 261.51552 109.494581 
L 261.87264 108.253233 
L 262.22976 109.38449 
L 262.58688 109.329877 
L 262.944 101.164021 
L 263.30112 104.380085 
L 263.65824 106.199632 
L 264.01536 97.413968 
L 264.37248 103.84523 
L 264.7296 108.026981 
L 265.08672 107.805064 
L 266.15808 101.372068 
L 266.5152 98.006903 
L 266.87232 96.483823 
L 267.22944 107.207795 
L 267.58656 105.830348 
L 267.94368 100.245145 
L 268.65792 107.355162 
L 269.01504 105.650041 
L 269.37216 95.00062 
L 269.72928 104.797047 
L 270.0864 96.287912 
L 270.80064 103.055518 
L 271.15776 94.89833 
L 271.51488 104.244855 
L 271.872 101.579249 
L 272.22912 104.585532 
L 272.58624 102.25887 
L 272.94336 97.622882 
L 273.30048 96.343392 
L 273.6576 100.481799 
L 274.01472 98.775811 
L 274.37184 97.639353 
L 274.72896 101.343462 
L 275.08608 94.090413 
L 275.4432 99.972083 
L 275.80032 99.807379 
L 276.15744 96.8219 
L 276.51456 95.610025 
L 276.87168 96.318253 
L 277.2288 97.615081 
L 277.58592 97.478983 
L 277.94304 104.008201 
L 278.30016 95.467859 
L 278.65728 100.207003 
L 279.0144 90.776393 
L 279.37152 92.034212 
L 279.72864 99.215311 
L 280.08576 92.953954 
L 280.44288 99.048873 
L 280.8 101.022722 
L 281.15712 90.420112 
L 281.51424 91.264437 
L 281.87136 92.90541 
L 282.22848 103.562633 
L 282.5856 94.920868 
L 282.94272 103.854766 
L 283.29984 96.072063 
L 283.65696 96.837504 
L 284.01408 100.463595 
L 284.3712 91.431742 
L 284.72832 99.505711 
L 285.08544 97.324681 
L 285.44256 91.316449 
L 285.79968 99.506577 
L 286.1568 89.06607 
L 286.51392 95.137584 
L 286.87104 94.815978 
L 287.22816 92.641017 
L 287.58528 98.084054 
L 287.9424 95.96804 
L 288.29952 89.246378 
L 288.65664 98.221885 
L 289.01376 94.829847 
L 289.37088 96.850507 
L 289.728 94.319265 
L 290.08512 98.716864 
L 290.44224 87.413828 
L 290.79936 97.154776 
L 291.15648 97.099297 
L 291.5136 100.085642 
L 291.87072 96.402338 
L 292.22784 86.287772 
L 292.58496 98.617175 
L 293.2992 95.402844 
L 293.65632 96.674534 
L 294.01344 99.541252 
L 294.37056 94.147626 
L 294.72768 93.354445 
L 295.0848 85.81013 
L 295.44192 94.94514 
L 295.79904 96.400605 
L 296.51328 89.262848 
L 296.8704 97.458178 
L 297.58464 92.195449 
L 297.94176 85.790192 
L 298.29888 89.682411 
L 299.01312 91.788889 
L 299.37024 84.582651 
L 299.72736 95.522472 
L 300.08448 95.560614 
L 300.4416 84.755157 
L 300.79872 88.649109 
L 301.15584 87.835124 
L 301.51296 97.599477 
L 301.87008 84.742154 
L 302.2272 85.927157 
L 302.58432 93.494877 
L 302.94144 91.501091 
L 303.29856 90.552742 
L 303.65568 84.82884 
L 304.0128 87.665219 
L 304.36992 95.76606 
L 304.72704 96.932859 
L 305.08416 94.155427 
L 305.44128 95.804202 
L 305.7984 93.083984 
L 306.15552 88.408121 
L 306.51264 87.876733 
L 306.86976 87.615807 
L 307.22688 86.888509 
L 307.584 93.131661 
L 307.94112 86.139538 
L 308.29824 95.977575 
L 308.65536 84.681474 
L 309.01248 92.296005 
L 309.3696 87.071417 
L 309.72672 86.206287 
L 310.08384 85.839604 
L 310.79808 88.494807 
L 311.1552 87.781378 
L 311.51232 91.853037 
L 311.86944 86.534828 
L 312.22656 83.287557 
L 312.58368 91.732543 
L 312.9408 92.14257 
L 313.29792 83.459196 
L 313.65504 84.352065 
L 314.01216 90.824937 
L 314.36928 92.985161 
L 314.7264 87.662618 
L 315.08352 85.044689 
L 315.44064 90.785061 
L 315.79776 92.067153 
L 316.15488 87.46584 
L 316.512 79.443016 
L 316.86912 92.625413 
L 317.22624 92.385292 
L 317.58336 88.264221 
L 317.94048 79.248838 
L 318.2976 84.613858 
L 318.65472 84.262778 
L 319.01184 85.136577 
L 319.36896 87.082686 
L 319.72608 85.568275 
L 320.0832 86.597242 
L 320.44032 77.94941 
L 320.79744 86.342385 
L 321.15456 82.031471 
L 321.51168 83.122853 
L 321.8688 87.013337 
L 322.22592 83.834548 
L 322.58304 89.821976 
L 322.94016 89.427553 
L 323.6544 79.178623 
L 324.01152 85.715642 
L 324.36864 88.12639 
L 324.72576 77.239448 
L 325.08288 89.574053 
L 325.44 87.959952 
L 325.79712 81.553829 
L 326.15424 90.075967 
L 326.51136 89.248979 
L 326.86848 82.726696 
L 327.2256 82.143297 
L 327.58272 79.762889 
L 327.93984 78.295288 
L 328.29696 76.019771 
L 328.65408 87.671287 
L 329.0112 86.655322 
L 329.36832 81.663921 
L 329.72544 84.652867 
L 330.08256 77.77517 
L 330.43968 86.767148 
L 330.7968 89.606993 
L 331.15392 79.06593 
L 331.51104 78.682776 
L 331.86816 87.162438 
L 332.22528 77.182235 
L 332.5824 79.152617 
L 332.93952 83.902163 
L 333.29664 83.55195 
L 333.65376 83.608296 
L 334.01088 84.523704 
L 334.368 85.017817 
L 334.72512 77.272389 
L 335.08224 82.020202 
L 335.43936 73.420914 
L 335.79648 80.300344 
L 336.1536 73.980907 
L 336.51072 73.563946 
L 336.86784 86.961325 
L 337.22496 74.815697 
L 337.58208 86.501021 
L 337.9392 77.955478 
L 338.29632 84.939799 
L 338.65344 79.482892 
L 339.01056 85.688769 
L 339.36768 83.577956 
L 339.7248 84.378071 
L 340.08192 80.375761 
L 340.43904 81.899708 
L 340.79616 78.964507 
L 341.15328 72.463896 
L 341.5104 82.883598 
L 341.86752 79.566977 
L 342.22464 72.726556 
L 342.58176 72.782902 
L 342.93888 83.033566 
L 343.296 78.810205 
L 343.65312 85.229331 
L 344.01024 83.108116 
L 344.36736 79.466421 
L 344.72448 77.072144 
L 345.0816 78.320427 
L 345.43872 76.240821 
L 345.79584 80.662693 
L 346.15296 83.518142 
L 346.51008 83.37511 
L 346.8672 72.179565 
L 347.22432 76.559827 
L 347.58144 72.027863 
L 347.93856 73.296085 
L 348.29568 82.997157 
L 348.6528 84.319991 
L 349.00992 70.117296 
L 349.36704 83.988849 
L 349.72416 78.987046 
L 350.08128 72.385878 
L 350.4384 81.443737 
L 350.79552 69.811293 
L 351.15264 72.984881 
L 351.50976 81.87977 
L 351.86688 70.264663 
L 352.224 71.20521 
L 352.58112 71.523349 
L 352.93824 68.625423 
L 353.29536 74.064993 
L 353.65248 82.489175 
L 354.0096 78.022226 
L 354.36672 82.784776 
L 354.72384 75.829061 
L 355.08096 78.798069 
L 355.43808 79.571312 
L 355.7952 70.50305 
L 356.15232 75.770981 
L 356.50944 68.718178 
L 356.86656 69.697734 
L 357.22368 68.073231 
L 357.5808 70.614876 
L 357.93792 67.637199 
L 358.29504 76.300635 
L 358.65216 72.533245 
L 359.00928 72.27752 
L 359.3664 75.423369 
L 359.72352 67.812305 
L 360.08064 68.071497 
L 360.43776 77.872259 
L 360.79488 80.138241 
L 361.152 79.982205 
L 361.50912 79.19596 
L 361.86624 67.719551 
L 362.22336 74.111804 
L 362.58048 65.213448 
L 362.9376 79.723013 
L 363.29472 67.353734 
L 363.65184 68.975636 
L 364.00896 76.841558 
L 364.36608 80.465048 
L 364.7232 64.66819 
L 365.08032 72.217707 
L 365.43744 64.378658 
L 365.79456 72.763831 
L 366.15168 68.364497 
L 366.86592 77.106818 
L 367.22304 71.629973 
L 367.58016 73.394041 
L 367.93728 73.205064 
L 368.2944 66.97058 
L 368.65152 64.643918 
L 369.00864 79.111007 
L 369.36576 74.259171 
L 369.72288 77.889596 
L 370.08 64.135069 
L 370.43712 74.31465 
L 370.79424 77.492573 
L 371.15136 69.492287 
L 371.50848 74.568641 
L 371.8656 72.76123 
L 372.22272 77.48217 
L 372.57984 62.445552 
L 373.6512 72.933736 
L 374.00832 72.155292 
L 374.36544 66.373311 
L 374.72256 64.853699 
L 375.07968 73.265745 
L 375.4368 69.185417 
L 375.79392 76.357848 
L 376.15104 61.903762 
L 376.50816 68.00995 
L 376.86528 76.754005 
L 377.2224 61.476398 
L 377.57952 61.943638 
L 377.93664 63.33322 
L 378.29376 69.469749 
L 378.65088 61.287422 
L 379.008 61.986114 
L 379.36512 72.452627 
L 379.72224 75.549931 
L 380.07936 61.413117 
L 380.43648 60.644209 
L 380.7936 63.674764 
L 381.15072 75.848999 
L 381.50784 62.617191 
L 381.86496 72.352071 
L 382.22208 60.747366 
L 382.5792 61.218939 
L 383.29344 74.605916 
L 383.65056 65.8844 
L 384.00768 66.028299 
L 384.3648 60.847055 
L 384.72192 66.845752 
L 385.07904 65.512516 
L 385.79328 74.588579 
L 386.1504 70.299337 
L 386.50752 59.904774 
L 386.86464 59.482611 
L 387.22176 72.984881 
L 387.57888 63.695569 
L 387.936 62.191561 
L 388.29312 65.933811 
L 388.65024 60.481238 
L 389.00736 59.50775 
L 389.36448 73.576082 
L 389.7216 60.896466 
L 390.43584 72.839248 
L 390.79296 58.959893 
L 391.15008 71.786008 
L 391.5072 57.761887 
L 391.86432 69.125604 
L 392.22144 63.939158 
L 392.93568 73.322958 
L 393.64992 69.52176 
L 394.00704 68.683503 
L 394.36416 71.1636 
L 394.72128 69.905781 
L 395.0784 57.776623 
L 395.43552 66.39845 
L 395.79264 68.948763 
L 396.14976 57.074464 
L 396.50688 67.957938 
L 396.864 61.739058 
L 397.22112 71.353443 
L 397.57824 70.346148 
L 397.93536 57.206227 
L 398.29248 57.269508 
L 399.00672 67.386675 
L 399.36384 59.467875 
L 399.72096 71.955914 
L 400.07808 62.110942 
L 400.4352 60.305265 
L 400.79232 63.121705 
L 401.14944 70.700695 
L 401.50656 63.171983 
L 401.86368 65.249856 
L 402.2208 56.969573 
L 402.57792 54.989657 
L 402.93504 59.063049 
L 403.29216 54.883899 
L 403.64928 69.943056 
L 404.0064 59.060449 
L 404.72064 69.038917 
L 405.07776 62.516634 
L 405.43488 63.89148 
L 405.792 68.930559 
L 406.14912 60.637274 
L 406.50624 70.329677 
L 406.86336 68.789261 
L 407.22048 57.990739 
L 407.5776 58.330549 
L 407.93472 66.183468 
L 408.29184 60.984886 
L 408.64896 54.012701 
L 409.00608 56.496266 
L 409.3632 65.245522 
L 410.07744 62.101407 
L 410.43456 53.568 
L 410.79168 60.164833 
L 411.1488 56.688709 
L 411.50592 68.817 
L 411.86304 61.605561 
L 412.22016 66.319566 
L 412.57728 60.877395 
L 412.9344 64.689862 
L 413.64864 57.657863 
L 414.00576 63.062759 
L 414.36288 66.095048 
L 414.72 60.146629 
L 414.72 60.146629 
" style="fill:none;stroke:#000080;stroke-linecap:square;stroke-width:0.5;"/>
   </g>
   <g id="patch_3">
    <path d="M 57.6 307.584 
L 57.6 41.472 
" style="fill:none;stroke:#000000;stroke-linecap:square;stroke-linejoin:miter;stroke-width:0.8;"/>
   </g>
   <g id="patch_4">
    <path d="M 414.72 307.584 
L 414.72 41.472 
" style="fill:none;stroke:#000000;stroke-linecap:square;stroke-linejoin:miter;stroke-width:0.8;"/>
   </g>
   <g id="patch_5">
    <path d="M 57.6 307.584 
L 414.72 307.584 
" style="fill:none;stroke:#000000;stroke-linecap:square;stroke-linejoin:miter;stroke-width:0.8;"/>
   </g>
   <g id="patch_6">
    <path d="M 57.6 41.472 
L 414.72 41.472 
" style="fill:none;stroke:#000000;stroke-linecap:square;stroke-linejoin:miter;stroke-width:0.8;"/>
   </g>
   <g id="text_15">
    <!-- Test -->
    <defs>
     <path d="M -0.296875 72.90625 
L 61.375 72.90625 
L 61.375 64.59375 
L 35.5 64.59375 
L 35.5 0 
L 25.59375 0 
L 25.59375 64.59375 
L -0.296875 64.59375 
z
" id="DejaVuSans-54"/>
    </defs>
    <g transform="translate(223.341563 35.472)scale(0.12 -0.12)">
     <use xlink:href="#DejaVuSans-54"/>
     <use x="60.818359" xlink:href="#DejaVuSans-65"/>
     <use x="122.341797" xlink:href="#DejaVuSans-73"/>
     <use x="174.441406" xlink:href="#DejaVuSans-74"/>
    </g>
   </g>
   <g id="legend_1">
    <g id="patch_7">
     <path d="M 64.6 64.150125 
L 306.276563 64.150125 
Q 308.276563 64.150125 308.276563 62.150125 
L 308.276563 48.472 
Q 308.276563 46.472 306.276563 46.472 
L 64.6 46.472 
Q 62.6 46.472 62.6 48.472 
L 62.6 62.150125 
Q 62.6 64.150125 64.6 64.150125 
z
" style="fill:#ffffff;opacity:0.8;stroke:#cccccc;stroke-linejoin:miter;"/>
    </g>
    <g id="line2d_26">
     <path d="M 66.6 54.570438 
L 86.6 54.570438 
" style="fill:none;stroke:#000080;stroke-linecap:square;stroke-width:0.5;"/>
    </g>
    <g id="line2d_27"/>
    <g id="text_16">
     <!-- Successful download requests per second -->
     <g transform="translate(94.6 58.070438)scale(0.1 -0.1)">
      <use xlink:href="#DejaVuSans-53"/>
      <use x="63.476562" xlink:href="#DejaVuSans-75"/>
      <use x="126.855469" xlink:href="#DejaVuSans-63"/>
      <use x="181.835938" xlink:href="#DejaVuSans-63"/>
      <use x="236.816406" xlink:href="#DejaVuSans-65"/>
      <use x="298.339844" xlink:href="#DejaVuSans-73"/>
      <use x="350.439453" xlink:href="#DejaVuSans-73"/>
      <use x="402.539062" xlink:href="#DejaVuSans-66"/>
      <use x="437.744141" xlink:href="#DejaVuSans-75"/>
      <use x="501.123047" xlink:href="#DejaVuSans-6c"/>
      <use x="528.90625" xlink:href="#DejaVuSans-20"/>
      <use x="560.693359" xlink:href="#DejaVuSans-64"/>
      <use x="624.169922" xlink:href="#DejaVuSans-6f"/>
      <use x="685.351562" xlink:href="#DejaVuSans-77"/>
      <use x="767.138672" xlink:href="#DejaVuSans-6e"/>
      <use x="830.517578" xlink:href="#DejaVuSans-6c"/>
      <use x="858.300781" xlink:href="#DejaVuSans-6f"/>
      <use x="919.482422" xlink:href="#DejaVuSans-61"/>
      <use x="980.761719" xlink:href="#DejaVuSans-64"/>
      <use x="1044.238281" xlink:href="#DejaVuSans-20"/>
      <use x="1076.025391" xlink:href="#DejaVuSans-72"/>
      <use x="1117.107422" xlink:href="#DejaVuSans-65"/>
      <use x="1178.630859" xlink:href="#DejaVuSans-71"/>
      <use x="1242.107422" xlink:href="#DejaVuSans-75"/>
      <use x="1305.486328" xlink:href="#DejaVuSans-65"/>
      <use x="1367.009766" xlink:href="#DejaVuSans-73"/>
      <use x="1419.109375" xlink:href="#DejaVuSans-74"/>
      <use x="1458.318359" xlink:href="#DejaVuSans-73"/>
      <use x="1510.417969" xlink:href="#DejaVuSans-20"/>
      <use x="1542.205078" xlink:href="#DejaVuSans-70"/>
      <use x="1605.681641" xlink:href="#DejaVuSans-65"/>
      <use x="1667.205078" xlink:href="#DejaVuSans-72"/>
      <use x="1708.318359" xlink:href="#DejaVuSans-20"/>
      <use x="1740.105469" xlink:href="#DejaVuSans-73"/>
      <use x="1792.205078" xlink:href="#DejaVuSans-65"/>
      <use x="1853.728516" xlink:href="#DejaVuSans-63"/>
      <use x="1908.708984" xlink:href="#DejaVuSans-6f"/>
      <use x="1969.890625" xlink:href="#DejaVuSans-6e"/>
      <use x="2033.269531" xlink:href="#DejaVuSans-64"/>
     </g>
    </g>
   </g>
  </g>
 </g>
 <defs>
  <clipPath id="p1927207694">
   <rect height="266.112" width="357.12" x="57.6" y="41.472"/>
  </clipPath>
 </defs>
</svg>
