<?xml version="1.0" encoding="utf-8" standalone="no"?>
<!DOCTYPE svg PUBLIC "-//W3C//DTD SVG 1.1//EN"
  "http://www.w3.org/Graphics/SVG/1.1/DTD/svg11.dtd">
<!-- Created with matplotlib (http://matplotlib.org/) -->
<svg height="345pt" version="1.1" viewBox="0 0 460 345" width="460pt" xmlns="http://www.w3.org/2000/svg" xmlns:xlink="http://www.w3.org/1999/xlink">
 <defs>
  <style type="text/css">
*{stroke-linecap:butt;stroke-linejoin:round;}
  </style>
 </defs>
 <g id="figure_1">
  <g id="patch_1">
   <path d="M 0 345.6 
L 460.8 345.6 
L 460.8 0 
L 0 0 
z
" style="fill:#ffffff;"/>
  </g>
  <g id="axes_1">
   <g id="patch_2">
    <path d="M 57.6 307.584 
L 414.72 307.584 
L 414.72 41.472 
L 57.6 41.472 
z
" style="fill:#ffffff;"/>
   </g>
   <g id="matplotlib.axis_1">
    <g id="xtick_1">
     <g id="line2d_1">
      <path clip-path="url(#pb420a2a4c3)" d="M 57.6 307.584 
L 57.6 41.472 
" style="fill:none;stroke:#b0b0b0;stroke-linecap:square;stroke-width:0.8;"/>
     </g>
     <g id="line2d_2">
      <defs>
       <path d="M 0 0 
L 0 3.5 
" id="mb3c97292b1" style="stroke:#000000;stroke-width:0.8;"/>
      </defs>
      <g>
       <use style="stroke:#000000;stroke-width:0.8;" x="57.6" xlink:href="#mb3c97292b1" y="307.584"/>
      </g>
     </g>
     <g id="text_1">
      <!-- 0 -->
      <defs>
       <path d="M 31.78125 66.40625 
Q 24.171875 66.40625 20.328125 58.90625 
Q 16.5 51.421875 16.5 36.375 
Q 16.5 21.390625 20.328125 13.890625 
Q 24.171875 6.390625 31.78125 6.390625 
Q 39.453125 6.390625 43.28125 13.890625 
Q 47.125 21.390625 47.125 36.375 
Q 47.125 51.421875 43.28125 58.90625 
Q 39.453125 66.40625 31.78125 66.40625 
M 31.78125 74.21875 
Q 44.046875 74.21875 50.515625 64.515625 
Q 56.984375 54.828125 56.984375 36.375 
Q 56.984375 17.96875 50.515625 8.265625 
Q 44.046875 -1.421875 31.78125 -1.421875 
Q 19.53125 -1.421875 13.0625 8.265625 
Q 6.59375 17.96875 6.59375 36.375 
Q 6.59375 54.828125 13.0625 64.515625 
Q 19.53125 74.21875 31.78125 74.21875 
" id="DejaVuSans-30"/>
      </defs>
      <g transform="translate(54.41875 322.182437)scale(0.1 -0.1)">
       <use xlink:href="#DejaVuSans-30"/>
      </g>
     </g>
    </g>
    <g id="xtick_2">
     <g id="line2d_3">
      <path clip-path="url(#pb420a2a4c3)" d="M 129.024 307.584 
L 129.024 41.472 
" style="fill:none;stroke:#b0b0b0;stroke-linecap:square;stroke-width:0.8;"/>
     </g>
     <g id="line2d_4">
      <g>
       <use style="stroke:#000000;stroke-width:0.8;" x="129.024" xlink:href="#mb3c97292b1" y="307.584"/>
      </g>
     </g>
     <g id="text_2">
      <!-- 200 -->
      <defs>
       <path d="M 19.1875 8.296875 
L 53.609375 8.296875 
L 53.609375 0 
L 7.328125 0 
L 7.328125 8.296875 
Q 12.9375 14.109375 22.625 23.890625 
Q 32.328125 33.6875 34.8125 36.53125 
Q 39.546875 41.84375 41.421875 45.53125 
Q 43.3125 49.21875 43.3125 52.78125 
Q 43.3125 58.59375 39.234375 62.25 
Q 35.15625 65.921875 28.609375 65.921875 
Q 23.96875 65.921875 18.8125 64.3125 
Q 13.671875 62.703125 7.8125 59.421875 
L 7.8125 69.390625 
Q 13.765625 71.78125 18.9375 73 
Q 24.125 74.21875 28.421875 74.21875 
Q 39.75 74.21875 46.484375 68.546875 
Q 53.21875 62.890625 53.21875 53.421875 
Q 53.21875 48.921875 51.53125 44.890625 
Q 49.859375 40.875 45.40625 35.40625 
Q 44.1875 33.984375 37.640625 27.21875 
Q 31.109375 20.453125 19.1875 8.296875 
" id="DejaVuSans-32"/>
      </defs>
      <g transform="translate(119.48025 322.182437)scale(0.1 -0.1)">
       <use xlink:href="#DejaVuSans-32"/>
       <use x="63.623047" xlink:href="#DejaVuSans-30"/>
       <use x="127.246094" xlink:href="#DejaVuSans-30"/>
      </g>
     </g>
    </g>
    <g id="xtick_3">
     <g id="line2d_5">
      <path clip-path="url(#pb420a2a4c3)" d="M 200.448 307.584 
L 200.448 41.472 
" style="fill:none;stroke:#b0b0b0;stroke-linecap:square;stroke-width:0.8;"/>
     </g>
     <g id="line2d_6">
      <g>
       <use style="stroke:#000000;stroke-width:0.8;" x="200.448" xlink:href="#mb3c97292b1" y="307.584"/>
      </g>
     </g>
     <g id="text_3">
      <!-- 400 -->
      <defs>
       <path d="M 37.796875 64.3125 
L 12.890625 25.390625 
L 37.796875 25.390625 
z
M 35.203125 72.90625 
L 47.609375 72.90625 
L 47.609375 25.390625 
L 58.015625 25.390625 
L 58.015625 17.1875 
L 47.609375 17.1875 
L 47.609375 0 
L 37.796875 0 
L 37.796875 17.1875 
L 4.890625 17.1875 
L 4.890625 26.703125 
z
" id="DejaVuSans-34"/>
      </defs>
      <g transform="translate(190.90425 322.182437)scale(0.1 -0.1)">
       <use xlink:href="#DejaVuSans-34"/>
       <use x="63.623047" xlink:href="#DejaVuSans-30"/>
       <use x="127.246094" xlink:href="#DejaVuSans-30"/>
      </g>
     </g>
    </g>
    <g id="xtick_4">
     <g id="line2d_7">
      <path clip-path="url(#pb420a2a4c3)" d="M 271.872 307.584 
L 271.872 41.472 
" style="fill:none;stroke:#b0b0b0;stroke-linecap:square;stroke-width:0.8;"/>
     </g>
     <g id="line2d_8">
      <g>
       <use style="stroke:#000000;stroke-width:0.8;" x="271.872" xlink:href="#mb3c97292b1" y="307.584"/>
      </g>
     </g>
     <g id="text_4">
      <!-- 600 -->
      <defs>
       <path d="M 33.015625 40.375 
Q 26.375 40.375 22.484375 35.828125 
Q 18.609375 31.296875 18.609375 23.390625 
Q 18.609375 15.53125 22.484375 10.953125 
Q 26.375 6.390625 33.015625 6.390625 
Q 39.65625 6.390625 43.53125 10.953125 
Q 47.40625 15.53125 47.40625 23.390625 
Q 47.40625 31.296875 43.53125 35.828125 
Q 39.65625 40.375 33.015625 40.375 
M 52.59375 71.296875 
L 52.59375 62.3125 
Q 48.875 64.0625 45.09375 64.984375 
Q 41.3125 65.921875 37.59375 65.921875 
Q 27.828125 65.921875 22.671875 59.328125 
Q 17.53125 52.734375 16.796875 39.40625 
Q 19.671875 43.65625 24.015625 45.921875 
Q 28.375 48.1875 33.59375 48.1875 
Q 44.578125 48.1875 50.953125 41.515625 
Q 57.328125 34.859375 57.328125 23.390625 
Q 57.328125 12.15625 50.6875 5.359375 
Q 44.046875 -1.421875 33.015625 -1.421875 
Q 20.359375 -1.421875 13.671875 8.265625 
Q 6.984375 17.96875 6.984375 36.375 
Q 6.984375 53.65625 15.1875 63.9375 
Q 23.390625 74.21875 37.203125 74.21875 
Q 40.921875 74.21875 44.703125 73.484375 
Q 48.484375 72.75 52.59375 71.296875 
" id="DejaVuSans-36"/>
      </defs>
      <g transform="translate(262.32825 322.182437)scale(0.1 -0.1)">
       <use xlink:href="#DejaVuSans-36"/>
       <use x="63.623047" xlink:href="#DejaVuSans-30"/>
       <use x="127.246094" xlink:href="#DejaVuSans-30"/>
      </g>
     </g>
    </g>
    <g id="xtick_5">
     <g id="line2d_9">
      <path clip-path="url(#pb420a2a4c3)" d="M 343.296 307.584 
L 343.296 41.472 
" style="fill:none;stroke:#b0b0b0;stroke-linecap:square;stroke-width:0.8;"/>
     </g>
     <g id="line2d_10">
      <g>
       <use style="stroke:#000000;stroke-width:0.8;" x="343.296" xlink:href="#mb3c97292b1" y="307.584"/>
      </g>
     </g>
     <g id="text_5">
      <!-- 800 -->
      <defs>
       <path d="M 31.78125 34.625 
Q 24.75 34.625 20.71875 30.859375 
Q 16.703125 27.09375 16.703125 20.515625 
Q 16.703125 13.921875 20.71875 10.15625 
Q 24.75 6.390625 31.78125 6.390625 
Q 38.8125 6.390625 42.859375 10.171875 
Q 46.921875 13.96875 46.921875 20.515625 
Q 46.921875 27.09375 42.890625 30.859375 
Q 38.875 34.625 31.78125 34.625 
M 21.921875 38.8125 
Q 15.578125 40.375 12.03125 44.71875 
Q 8.5 49.078125 8.5 55.328125 
Q 8.5 64.0625 14.71875 69.140625 
Q 20.953125 74.21875 31.78125 74.21875 
Q 42.671875 74.21875 48.875 69.140625 
Q 55.078125 64.0625 55.078125 55.328125 
Q 55.078125 49.078125 51.53125 44.71875 
Q 48 40.375 41.703125 38.8125 
Q 48.828125 37.15625 52.796875 32.3125 
Q 56.78125 27.484375 56.78125 20.515625 
Q 56.78125 9.90625 50.3125 4.234375 
Q 43.84375 -1.421875 31.78125 -1.421875 
Q 19.734375 -1.421875 13.25 4.234375 
Q 6.78125 9.90625 6.78125 20.515625 
Q 6.78125 27.484375 10.78125 32.3125 
Q 14.796875 37.15625 21.921875 38.8125 
M 18.3125 54.390625 
Q 18.3125 48.734375 21.84375 45.5625 
Q 25.390625 42.390625 31.78125 42.390625 
Q 38.140625 42.390625 41.71875 45.5625 
Q 45.3125 48.734375 45.3125 54.390625 
Q 45.3125 60.0625 41.71875 63.234375 
Q 38.140625 66.40625 31.78125 66.40625 
Q 25.390625 66.40625 21.84375 63.234375 
Q 18.3125 60.0625 18.3125 54.390625 
" id="DejaVuSans-38"/>
      </defs>
      <g transform="translate(333.75225 322.182437)scale(0.1 -0.1)">
       <use xlink:href="#DejaVuSans-38"/>
       <use x="63.623047" xlink:href="#DejaVuSans-30"/>
       <use x="127.246094" xlink:href="#DejaVuSans-30"/>
      </g>
     </g>
    </g>
    <g id="xtick_6">
     <g id="line2d_11">
      <path clip-path="url(#pb420a2a4c3)" d="M 414.72 307.584 
L 414.72 41.472 
" style="fill:none;stroke:#b0b0b0;stroke-linecap:square;stroke-width:0.8;"/>
     </g>
     <g id="line2d_12">
      <g>
       <use style="stroke:#000000;stroke-width:0.8;" x="414.72" xlink:href="#mb3c97292b1" y="307.584"/>
      </g>
     </g>
     <g id="text_6">
      <!-- 1000 -->
      <defs>
       <path d="M 12.40625 8.296875 
L 28.515625 8.296875 
L 28.515625 63.921875 
L 10.984375 60.40625 
L 10.984375 69.390625 
L 28.421875 72.90625 
L 38.28125 72.90625 
L 38.28125 8.296875 
L 54.390625 8.296875 
L 54.390625 0 
L 12.40625 0 
z
" id="DejaVuSans-31"/>
      </defs>
      <g transform="translate(401.995 322.182437)scale(0.1 -0.1)">
       <use xlink:href="#DejaVuSans-31"/>
       <use x="63.623047" xlink:href="#DejaVuSans-30"/>
       <use x="127.246094" xlink:href="#DejaVuSans-30"/>
       <use x="190.869141" xlink:href="#DejaVuSans-30"/>
      </g>
     </g>
    </g>
    <g id="text_7">
     <!-- Number of clients -->
     <defs>
      <path d="M 9.8125 72.90625 
L 23.09375 72.90625 
L 55.421875 11.921875 
L 55.421875 72.90625 
L 64.984375 72.90625 
L 64.984375 0 
L 51.703125 0 
L 19.390625 60.984375 
L 19.390625 0 
L 9.8125 0 
z
" id="DejaVuSans-4e"/>
      <path d="M 8.5 21.578125 
L 8.5 54.6875 
L 17.484375 54.6875 
L 17.484375 21.921875 
Q 17.484375 14.15625 20.5 10.265625 
Q 23.53125 6.390625 29.59375 6.390625 
Q 36.859375 6.390625 41.078125 11.03125 
Q 45.3125 15.671875 45.3125 23.6875 
L 45.3125 54.6875 
L 54.296875 54.6875 
L 54.296875 0 
L 45.3125 0 
L 45.3125 8.40625 
Q 42.046875 3.421875 37.71875 1 
Q 33.40625 -1.421875 27.6875 -1.421875 
Q 18.265625 -1.421875 13.375 4.4375 
Q 8.5 10.296875 8.5 21.578125 
M 31.109375 56 
z
" id="DejaVuSans-75"/>
      <path d="M 52 44.1875 
Q 55.375 50.25 60.0625 53.125 
Q 64.75 56 71.09375 56 
Q 79.640625 56 84.28125 50.015625 
Q 88.921875 44.046875 88.921875 33.015625 
L 88.921875 0 
L 79.890625 0 
L 79.890625 32.71875 
Q 79.890625 40.578125 77.09375 44.375 
Q 74.3125 48.1875 68.609375 48.1875 
Q 61.625 48.1875 57.5625 43.546875 
Q 53.515625 38.921875 53.515625 30.90625 
L 53.515625 0 
L 44.484375 0 
L 44.484375 32.71875 
Q 44.484375 40.625 41.703125 44.40625 
Q 38.921875 48.1875 33.109375 48.1875 
Q 26.21875 48.1875 22.15625 43.53125 
Q 18.109375 38.875 18.109375 30.90625 
L 18.109375 0 
L 9.078125 0 
L 9.078125 54.6875 
L 18.109375 54.6875 
L 18.109375 46.1875 
Q 21.1875 51.21875 25.484375 53.609375 
Q 29.78125 56 35.6875 56 
Q 41.65625 56 45.828125 52.96875 
Q 50 49.953125 52 44.1875 
" id="DejaVuSans-6d"/>
      <path d="M 48.6875 27.296875 
Q 48.6875 37.203125 44.609375 42.84375 
Q 40.53125 48.484375 33.40625 48.484375 
Q 26.265625 48.484375 22.1875 42.84375 
Q 18.109375 37.203125 18.109375 27.296875 
Q 18.109375 17.390625 22.1875 11.75 
Q 26.265625 6.109375 33.40625 6.109375 
Q 40.53125 6.109375 44.609375 11.75 
Q 48.6875 17.390625 48.6875 27.296875 
M 18.109375 46.390625 
Q 20.953125 51.265625 25.265625 53.625 
Q 29.59375 56 35.59375 56 
Q 45.5625 56 51.78125 48.09375 
Q 58.015625 40.1875 58.015625 27.296875 
Q 58.015625 14.40625 51.78125 6.484375 
Q 45.5625 -1.421875 35.59375 -1.421875 
Q 29.59375 -1.421875 25.265625 0.953125 
Q 20.953125 3.328125 18.109375 8.203125 
L 18.109375 0 
L 9.078125 0 
L 9.078125 75.984375 
L 18.109375 75.984375 
z
" id="DejaVuSans-62"/>
      <path d="M 56.203125 29.59375 
L 56.203125 25.203125 
L 14.890625 25.203125 
Q 15.484375 15.921875 20.484375 11.0625 
Q 25.484375 6.203125 34.421875 6.203125 
Q 39.59375 6.203125 44.453125 7.46875 
Q 49.3125 8.734375 54.109375 11.28125 
L 54.109375 2.78125 
Q 49.265625 0.734375 44.1875 -0.34375 
Q 39.109375 -1.421875 33.890625 -1.421875 
Q 20.796875 -1.421875 13.15625 6.1875 
Q 5.515625 13.8125 5.515625 26.8125 
Q 5.515625 40.234375 12.765625 48.109375 
Q 20.015625 56 32.328125 56 
Q 43.359375 56 49.78125 48.890625 
Q 56.203125 41.796875 56.203125 29.59375 
M 47.21875 32.234375 
Q 47.125 39.59375 43.09375 43.984375 
Q 39.0625 48.390625 32.421875 48.390625 
Q 24.90625 48.390625 20.390625 44.140625 
Q 15.875 39.890625 15.1875 32.171875 
z
" id="DejaVuSans-65"/>
      <path d="M 41.109375 46.296875 
Q 39.59375 47.171875 37.8125 47.578125 
Q 36.03125 48 33.890625 48 
Q 26.265625 48 22.1875 43.046875 
Q 18.109375 38.09375 18.109375 28.8125 
L 18.109375 0 
L 9.078125 0 
L 9.078125 54.6875 
L 18.109375 54.6875 
L 18.109375 46.1875 
Q 20.953125 51.171875 25.484375 53.578125 
Q 30.03125 56 36.53125 56 
Q 37.453125 56 38.578125 55.875 
Q 39.703125 55.765625 41.0625 55.515625 
z
" id="DejaVuSans-72"/>
      <path id="DejaVuSans-20"/>
      <path d="M 30.609375 48.390625 
Q 23.390625 48.390625 19.1875 42.75 
Q 14.984375 37.109375 14.984375 27.296875 
Q 14.984375 17.484375 19.15625 11.84375 
Q 23.34375 6.203125 30.609375 6.203125 
Q 37.796875 6.203125 41.984375 11.859375 
Q 46.1875 17.53125 46.1875 27.296875 
Q 46.1875 37.015625 41.984375 42.703125 
Q 37.796875 48.390625 30.609375 48.390625 
M 30.609375 56 
Q 42.328125 56 49.015625 48.375 
Q 55.71875 40.765625 55.71875 27.296875 
Q 55.71875 13.875 49.015625 6.21875 
Q 42.328125 -1.421875 30.609375 -1.421875 
Q 18.84375 -1.421875 12.171875 6.21875 
Q 5.515625 13.875 5.515625 27.296875 
Q 5.515625 40.765625 12.171875 48.375 
Q 18.84375 56 30.609375 56 
" id="DejaVuSans-6f"/>
      <path d="M 37.109375 75.984375 
L 37.109375 68.5 
L 28.515625 68.5 
Q 23.6875 68.5 21.796875 66.546875 
Q 19.921875 64.59375 19.921875 59.515625 
L 19.921875 54.6875 
L 34.71875 54.6875 
L 34.71875 47.703125 
L 19.921875 47.703125 
L 19.921875 0 
L 10.890625 0 
L 10.890625 47.703125 
L 2.296875 47.703125 
L 2.296875 54.6875 
L 10.890625 54.6875 
L 10.890625 58.5 
Q 10.890625 67.625 15.140625 71.796875 
Q 19.390625 75.984375 28.609375 75.984375 
z
" id="DejaVuSans-66"/>
      <path d="M 48.78125 52.59375 
L 48.78125 44.1875 
Q 44.96875 46.296875 41.140625 47.34375 
Q 37.3125 48.390625 33.40625 48.390625 
Q 24.65625 48.390625 19.8125 42.84375 
Q 14.984375 37.3125 14.984375 27.296875 
Q 14.984375 17.28125 19.8125 11.734375 
Q 24.65625 6.203125 33.40625 6.203125 
Q 37.3125 6.203125 41.140625 7.25 
Q 44.96875 8.296875 48.78125 10.40625 
L 48.78125 2.09375 
Q 45.015625 0.34375 40.984375 -0.53125 
Q 36.96875 -1.421875 32.421875 -1.421875 
Q 20.0625 -1.421875 12.78125 6.34375 
Q 5.515625 14.109375 5.515625 27.296875 
Q 5.515625 40.671875 12.859375 48.328125 
Q 20.21875 56 33.015625 56 
Q 37.15625 56 41.109375 55.140625 
Q 45.0625 54.296875 48.78125 52.59375 
" id="DejaVuSans-63"/>
      <path d="M 9.421875 75.984375 
L 18.40625 75.984375 
L 18.40625 0 
L 9.421875 0 
z
" id="DejaVuSans-6c"/>
      <path d="M 9.421875 54.6875 
L 18.40625 54.6875 
L 18.40625 0 
L 9.421875 0 
z
M 9.421875 75.984375 
L 18.40625 75.984375 
L 18.40625 64.59375 
L 9.421875 64.59375 
z
" id="DejaVuSans-69"/>
      <path d="M 54.890625 33.015625 
L 54.890625 0 
L 45.90625 0 
L 45.90625 32.71875 
Q 45.90625 40.484375 42.875 44.328125 
Q 39.84375 48.1875 33.796875 48.1875 
Q 26.515625 48.1875 22.3125 43.546875 
Q 18.109375 38.921875 18.109375 30.90625 
L 18.109375 0 
L 9.078125 0 
L 9.078125 54.6875 
L 18.109375 54.6875 
L 18.109375 46.1875 
Q 21.34375 51.125 25.703125 53.5625 
Q 30.078125 56 35.796875 56 
Q 45.21875 56 50.046875 50.171875 
Q 54.890625 44.34375 54.890625 33.015625 
" id="DejaVuSans-6e"/>
      <path d="M 18.3125 70.21875 
L 18.3125 54.6875 
L 36.8125 54.6875 
L 36.8125 47.703125 
L 18.3125 47.703125 
L 18.3125 18.015625 
Q 18.3125 11.328125 20.140625 9.421875 
Q 21.96875 7.515625 27.59375 7.515625 
L 36.8125 7.515625 
L 36.8125 0 
L 27.59375 0 
Q 17.1875 0 13.234375 3.875 
Q 9.28125 7.765625 9.28125 18.015625 
L 9.28125 47.703125 
L 2.6875 47.703125 
L 2.6875 54.6875 
L 9.28125 54.6875 
L 9.28125 70.21875 
z
" id="DejaVuSans-74"/>
      <path d="M 44.28125 53.078125 
L 44.28125 44.578125 
Q 40.484375 46.53125 36.375 47.5 
Q 32.28125 48.484375 27.875 48.484375 
Q 21.1875 48.484375 17.84375 46.4375 
Q 14.5 44.390625 14.5 40.28125 
Q 14.5 37.15625 16.890625 35.375 
Q 19.28125 33.59375 26.515625 31.984375 
L 29.59375 31.296875 
Q 39.15625 29.25 43.1875 25.515625 
Q 47.21875 21.78125 47.21875 15.09375 
Q 47.21875 7.46875 41.1875 3.015625 
Q 35.15625 -1.421875 24.609375 -1.421875 
Q 20.21875 -1.421875 15.453125 -0.5625 
Q 10.6875 0.296875 5.421875 2 
L 5.421875 11.28125 
Q 10.40625 8.6875 15.234375 7.390625 
Q 20.0625 6.109375 24.8125 6.109375 
Q 31.15625 6.109375 34.5625 8.28125 
Q 37.984375 10.453125 37.984375 14.40625 
Q 37.984375 18.0625 35.515625 20.015625 
Q 33.0625 21.96875 24.703125 23.78125 
L 21.578125 24.515625 
Q 13.234375 26.265625 9.515625 29.90625 
Q 5.8125 33.546875 5.8125 39.890625 
Q 5.8125 47.609375 11.28125 51.796875 
Q 16.75 56 26.8125 56 
Q 31.78125 56 36.171875 55.265625 
Q 40.578125 54.546875 44.28125 53.078125 
" id="DejaVuSans-73"/>
     </defs>
     <g transform="translate(191.738906 335.860562)scale(0.1 -0.1)">
      <use xlink:href="#DejaVuSans-4e"/>
      <use x="74.804688" xlink:href="#DejaVuSans-75"/>
      <use x="138.183594" xlink:href="#DejaVuSans-6d"/>
      <use x="235.595703" xlink:href="#DejaVuSans-62"/>
      <use x="299.072266" xlink:href="#DejaVuSans-65"/>
      <use x="360.595703" xlink:href="#DejaVuSans-72"/>
      <use x="401.708984" xlink:href="#DejaVuSans-20"/>
      <use x="433.496094" xlink:href="#DejaVuSans-6f"/>
      <use x="494.677734" xlink:href="#DejaVuSans-66"/>
      <use x="529.882812" xlink:href="#DejaVuSans-20"/>
      <use x="561.669922" xlink:href="#DejaVuSans-63"/>
      <use x="616.650391" xlink:href="#DejaVuSans-6c"/>
      <use x="644.433594" xlink:href="#DejaVuSans-69"/>
      <use x="672.216797" xlink:href="#DejaVuSans-65"/>
      <use x="733.740234" xlink:href="#DejaVuSans-6e"/>
      <use x="797.119141" xlink:href="#DejaVuSans-74"/>
      <use x="836.328125" xlink:href="#DejaVuSans-73"/>
     </g>
    </g>
   </g>
   <g id="matplotlib.axis_2">
    <g id="ytick_1">
     <g id="line2d_13">
      <path clip-path="url(#pb420a2a4c3)" d="M 57.6 296.121761 
L 414.72 296.121761 
" style="fill:none;stroke:#b0b0b0;stroke-linecap:square;stroke-width:0.8;"/>
     </g>
     <g id="line2d_14">
      <defs>
       <path d="M 0 0 
L -3.5 0 
" id="mf9af9a9f5f" style="stroke:#000000;stroke-width:0.8;"/>
      </defs>
      <g>
       <use style="stroke:#000000;stroke-width:0.8;" x="57.6" xlink:href="#mf9af9a9f5f" y="296.121761"/>
      </g>
     </g>
     <g id="text_8">
      <!-- 0 -->
      <g transform="translate(44.2375 299.92098)scale(0.1 -0.1)">
       <use xlink:href="#DejaVuSans-30"/>
      </g>
     </g>
    </g>
    <g id="ytick_2">
     <g id="line2d_15">
      <path clip-path="url(#pb420a2a4c3)" d="M 57.6 262.765908 
L 414.72 262.765908 
" style="fill:none;stroke:#b0b0b0;stroke-linecap:square;stroke-width:0.8;"/>
     </g>
     <g id="line2d_16">
      <g>
       <use style="stroke:#000000;stroke-width:0.8;" x="57.6" xlink:href="#mf9af9a9f5f" y="262.765908"/>
      </g>
     </g>
     <g id="text_9">
      <!-- 50 -->
      <defs>
       <path d="M 10.796875 72.90625 
L 49.515625 72.90625 
L 49.515625 64.59375 
L 19.828125 64.59375 
L 19.828125 46.734375 
Q 21.96875 47.46875 24.109375 47.828125 
Q 26.265625 48.1875 28.421875 48.1875 
Q 40.625 48.1875 47.75 41.5 
Q 54.890625 34.8125 54.890625 23.390625 
Q 54.890625 11.625 47.5625 5.09375 
Q 40.234375 -1.421875 26.90625 -1.421875 
Q 22.3125 -1.421875 17.546875 -0.640625 
Q 12.796875 0.140625 7.71875 1.703125 
L 7.71875 11.625 
Q 12.109375 9.234375 16.796875 8.0625 
Q 21.484375 6.890625 26.703125 6.890625 
Q 35.15625 6.890625 40.078125 11.328125 
Q 45.015625 15.765625 45.015625 23.390625 
Q 45.015625 31 40.078125 35.4375 
Q 35.15625 39.890625 26.703125 39.890625 
Q 22.75 39.890625 18.8125 39.015625 
Q 14.890625 38.140625 10.796875 36.28125 
z
" id="DejaVuSans-35"/>
      </defs>
      <g transform="translate(37.875 266.565126)scale(0.1 -0.1)">
       <use xlink:href="#DejaVuSans-35"/>
       <use x="63.623047" xlink:href="#DejaVuSans-30"/>
      </g>
     </g>
    </g>
    <g id="ytick_3">
     <g id="line2d_17">
      <path clip-path="url(#pb420a2a4c3)" d="M 57.6 229.410054 
L 414.72 229.410054 
" style="fill:none;stroke:#b0b0b0;stroke-linecap:square;stroke-width:0.8;"/>
     </g>
     <g id="line2d_18">
      <g>
       <use style="stroke:#000000;stroke-width:0.8;" x="57.6" xlink:href="#mf9af9a9f5f" y="229.410054"/>
      </g>
     </g>
     <g id="text_10">
      <!-- 100 -->
      <g transform="translate(31.5125 233.209273)scale(0.1 -0.1)">
       <use xlink:href="#DejaVuSans-31"/>
       <use x="63.623047" xlink:href="#DejaVuSans-30"/>
       <use x="127.246094" xlink:href="#DejaVuSans-30"/>
      </g>
     </g>
    </g>
    <g id="ytick_4">
     <g id="line2d_19">
      <path clip-path="url(#pb420a2a4c3)" d="M 57.6 196.0542 
L 414.72 196.0542 
" style="fill:none;stroke:#b0b0b0;stroke-linecap:square;stroke-width:0.8;"/>
     </g>
     <g id="line2d_20">
      <g>
       <use style="stroke:#000000;stroke-width:0.8;" x="57.6" xlink:href="#mf9af9a9f5f" y="196.0542"/>
      </g>
     </g>
     <g id="text_11">
      <!-- 150 -->
      <g transform="translate(31.5125 199.853419)scale(0.1 -0.1)">
       <use xlink:href="#DejaVuSans-31"/>
       <use x="63.623047" xlink:href="#DejaVuSans-35"/>
       <use x="127.246094" xlink:href="#DejaVuSans-30"/>
      </g>
     </g>
    </g>
    <g id="ytick_5">
     <g id="line2d_21">
      <path clip-path="url(#pb420a2a4c3)" d="M 57.6 162.698346 
L 414.72 162.698346 
" style="fill:none;stroke:#b0b0b0;stroke-linecap:square;stroke-width:0.8;"/>
     </g>
     <g id="line2d_22">
      <g>
       <use style="stroke:#000000;stroke-width:0.8;" x="57.6" xlink:href="#mf9af9a9f5f" y="162.698346"/>
      </g>
     </g>
     <g id="text_12">
      <!-- 200 -->
      <g transform="translate(31.5125 166.497565)scale(0.1 -0.1)">
       <use xlink:href="#DejaVuSans-32"/>
       <use x="63.623047" xlink:href="#DejaVuSans-30"/>
       <use x="127.246094" xlink:href="#DejaVuSans-30"/>
      </g>
     </g>
    </g>
    <g id="ytick_6">
     <g id="line2d_23">
      <path clip-path="url(#pb420a2a4c3)" d="M 57.6 129.342493 
L 414.72 129.342493 
" style="fill:none;stroke:#b0b0b0;stroke-linecap:square;stroke-width:0.8;"/>
     </g>
     <g id="line2d_24">
      <g>
       <use style="stroke:#000000;stroke-width:0.8;" x="57.6" xlink:href="#mf9af9a9f5f" y="129.342493"/>
      </g>
     </g>
     <g id="text_13">
      <!-- 250 -->
      <g transform="translate(31.5125 133.141712)scale(0.1 -0.1)">
       <use xlink:href="#DejaVuSans-32"/>
       <use x="63.623047" xlink:href="#DejaVuSans-35"/>
       <use x="127.246094" xlink:href="#DejaVuSans-30"/>
      </g>
     </g>
    </g>
    <g id="ytick_7">
     <g id="line2d_25">
      <path clip-path="url(#pb420a2a4c3)" d="M 57.6 95.986639 
L 414.72 95.986639 
" style="fill:none;stroke:#b0b0b0;stroke-linecap:square;stroke-width:0.8;"/>
     </g>
     <g id="line2d_26">
      <g>
       <use style="stroke:#000000;stroke-width:0.8;" x="57.6" xlink:href="#mf9af9a9f5f" y="95.986639"/>
      </g>
     </g>
     <g id="text_14">
      <!-- 300 -->
      <defs>
       <path d="M 40.578125 39.3125 
Q 47.65625 37.796875 51.625 33 
Q 55.609375 28.21875 55.609375 21.1875 
Q 55.609375 10.40625 48.1875 4.484375 
Q 40.765625 -1.421875 27.09375 -1.421875 
Q 22.515625 -1.421875 17.65625 -0.515625 
Q 12.796875 0.390625 7.625 2.203125 
L 7.625 11.71875 
Q 11.71875 9.328125 16.59375 8.109375 
Q 21.484375 6.890625 26.8125 6.890625 
Q 36.078125 6.890625 40.9375 10.546875 
Q 45.796875 14.203125 45.796875 21.1875 
Q 45.796875 27.640625 41.28125 31.265625 
Q 36.765625 34.90625 28.71875 34.90625 
L 20.21875 34.90625 
L 20.21875 43.015625 
L 29.109375 43.015625 
Q 36.375 43.015625 40.234375 45.921875 
Q 44.09375 48.828125 44.09375 54.296875 
Q 44.09375 59.90625 40.109375 62.90625 
Q 36.140625 65.921875 28.71875 65.921875 
Q 24.65625 65.921875 20.015625 65.03125 
Q 15.375 64.15625 9.8125 62.3125 
L 9.8125 71.09375 
Q 15.4375 72.65625 20.34375 73.4375 
Q 25.25 74.21875 29.59375 74.21875 
Q 40.828125 74.21875 47.359375 69.109375 
Q 53.90625 64.015625 53.90625 55.328125 
Q 53.90625 49.265625 50.4375 45.09375 
Q 46.96875 40.921875 40.578125 39.3125 
" id="DejaVuSans-33"/>
      </defs>
      <g transform="translate(31.5125 99.785858)scale(0.1 -0.1)">
       <use xlink:href="#DejaVuSans-33"/>
       <use x="63.623047" xlink:href="#DejaVuSans-30"/>
       <use x="127.246094" xlink:href="#DejaVuSans-30"/>
      </g>
     </g>
    </g>
    <g id="ytick_8">
     <g id="line2d_27">
      <path clip-path="url(#pb420a2a4c3)" d="M 57.6 62.630785 
L 414.72 62.630785 
" style="fill:none;stroke:#b0b0b0;stroke-linecap:square;stroke-width:0.8;"/>
     </g>
     <g id="line2d_28">
      <g>
       <use style="stroke:#000000;stroke-width:0.8;" x="57.6" xlink:href="#mf9af9a9f5f" y="62.630785"/>
      </g>
     </g>
     <g id="text_15">
      <!-- 350 -->
      <g transform="translate(31.5125 66.430004)scale(0.1 -0.1)">
       <use xlink:href="#DejaVuSans-33"/>
       <use x="63.623047" xlink:href="#DejaVuSans-35"/>
       <use x="127.246094" xlink:href="#DejaVuSans-30"/>
      </g>
     </g>
    </g>
    <g id="text_16">
     <!-- Successful download requests per second -->
     <defs>
      <path d="M 53.515625 70.515625 
L 53.515625 60.890625 
Q 47.90625 63.578125 42.921875 64.890625 
Q 37.9375 66.21875 33.296875 66.21875 
Q 25.25 66.21875 20.875 63.09375 
Q 16.5 59.96875 16.5 54.203125 
Q 16.5 49.359375 19.40625 46.890625 
Q 22.3125 44.4375 30.421875 42.921875 
L 36.375 41.703125 
Q 47.40625 39.59375 52.65625 34.296875 
Q 57.90625 29 57.90625 20.125 
Q 57.90625 9.515625 50.796875 4.046875 
Q 43.703125 -1.421875 29.984375 -1.421875 
Q 24.8125 -1.421875 18.96875 -0.25 
Q 13.140625 0.921875 6.890625 3.21875 
L 6.890625 13.375 
Q 12.890625 10.015625 18.65625 8.296875 
Q 24.421875 6.59375 29.984375 6.59375 
Q 38.421875 6.59375 43.015625 9.90625 
Q 47.609375 13.234375 47.609375 19.390625 
Q 47.609375 24.75 44.3125 27.78125 
Q 41.015625 30.8125 33.5 32.328125 
L 27.484375 33.5 
Q 16.453125 35.6875 11.515625 40.375 
Q 6.59375 45.0625 6.59375 53.421875 
Q 6.59375 63.09375 13.40625 68.65625 
Q 20.21875 74.21875 32.171875 74.21875 
Q 37.3125 74.21875 42.625 73.28125 
Q 47.953125 72.359375 53.515625 70.515625 
" id="DejaVuSans-53"/>
      <path d="M 45.40625 46.390625 
L 45.40625 75.984375 
L 54.390625 75.984375 
L 54.390625 0 
L 45.40625 0 
L 45.40625 8.203125 
Q 42.578125 3.328125 38.25 0.953125 
Q 33.9375 -1.421875 27.875 -1.421875 
Q 17.96875 -1.421875 11.734375 6.484375 
Q 5.515625 14.40625 5.515625 27.296875 
Q 5.515625 40.1875 11.734375 48.09375 
Q 17.96875 56 27.875 56 
Q 33.9375 56 38.25 53.625 
Q 42.578125 51.265625 45.40625 46.390625 
M 14.796875 27.296875 
Q 14.796875 17.390625 18.875 11.75 
Q 22.953125 6.109375 30.078125 6.109375 
Q 37.203125 6.109375 41.296875 11.75 
Q 45.40625 17.390625 45.40625 27.296875 
Q 45.40625 37.203125 41.296875 42.84375 
Q 37.203125 48.484375 30.078125 48.484375 
Q 22.953125 48.484375 18.875 42.84375 
Q 14.796875 37.203125 14.796875 27.296875 
" id="DejaVuSans-64"/>
      <path d="M 4.203125 54.6875 
L 13.1875 54.6875 
L 24.421875 12.015625 
L 35.59375 54.6875 
L 46.1875 54.6875 
L 57.421875 12.015625 
L 68.609375 54.6875 
L 77.59375 54.6875 
L 63.28125 0 
L 52.6875 0 
L 40.921875 44.828125 
L 29.109375 0 
L 18.5 0 
z
" id="DejaVuSans-77"/>
      <path d="M 34.28125 27.484375 
Q 23.390625 27.484375 19.1875 25 
Q 14.984375 22.515625 14.984375 16.5 
Q 14.984375 11.71875 18.140625 8.90625 
Q 21.296875 6.109375 26.703125 6.109375 
Q 34.1875 6.109375 38.703125 11.40625 
Q 43.21875 16.703125 43.21875 25.484375 
L 43.21875 27.484375 
z
M 52.203125 31.203125 
L 52.203125 0 
L 43.21875 0 
L 43.21875 8.296875 
Q 40.140625 3.328125 35.546875 0.953125 
Q 30.953125 -1.421875 24.3125 -1.421875 
Q 15.921875 -1.421875 10.953125 3.296875 
Q 6 8.015625 6 15.921875 
Q 6 25.140625 12.171875 29.828125 
Q 18.359375 34.515625 30.609375 34.515625 
L 43.21875 34.515625 
L 43.21875 35.40625 
Q 43.21875 41.609375 39.140625 45 
Q 35.0625 48.390625 27.6875 48.390625 
Q 23 48.390625 18.546875 47.265625 
Q 14.109375 46.140625 10.015625 43.890625 
L 10.015625 52.203125 
Q 14.9375 54.109375 19.578125 55.046875 
Q 24.21875 56 28.609375 56 
Q 40.484375 56 46.34375 49.84375 
Q 52.203125 43.703125 52.203125 31.203125 
" id="DejaVuSans-61"/>
      <path d="M 14.796875 27.296875 
Q 14.796875 17.390625 18.875 11.75 
Q 22.953125 6.109375 30.078125 6.109375 
Q 37.203125 6.109375 41.296875 11.75 
Q 45.40625 17.390625 45.40625 27.296875 
Q 45.40625 37.203125 41.296875 42.84375 
Q 37.203125 48.484375 30.078125 48.484375 
Q 22.953125 48.484375 18.875 42.84375 
Q 14.796875 37.203125 14.796875 27.296875 
M 45.40625 8.203125 
Q 42.578125 3.328125 38.25 0.953125 
Q 33.9375 -1.421875 27.875 -1.421875 
Q 17.96875 -1.421875 11.734375 6.484375 
Q 5.515625 14.40625 5.515625 27.296875 
Q 5.515625 40.1875 11.734375 48.09375 
Q 17.96875 56 27.875 56 
Q 33.9375 56 38.25 53.625 
Q 42.578125 51.265625 45.40625 46.390625 
L 45.40625 54.6875 
L 54.390625 54.6875 
L 54.390625 -20.796875 
L 45.40625 -20.796875 
z
" id="DejaVuSans-71"/>
      <path d="M 18.109375 8.203125 
L 18.109375 -20.796875 
L 9.078125 -20.796875 
L 9.078125 54.6875 
L 18.109375 54.6875 
L 18.109375 46.390625 
Q 20.953125 51.265625 25.265625 53.625 
Q 29.59375 56 35.59375 56 
Q 45.5625 56 51.78125 48.09375 
Q 58.015625 40.1875 58.015625 27.296875 
Q 58.015625 14.40625 51.78125 6.484375 
Q 45.5625 -1.421875 35.59375 -1.421875 
Q 29.59375 -1.421875 25.265625 0.953125 
Q 20.953125 3.328125 18.109375 8.203125 
M 48.6875 27.296875 
Q 48.6875 37.203125 44.609375 42.84375 
Q 40.53125 48.484375 33.40625 48.484375 
Q 26.265625 48.484375 22.1875 42.84375 
Q 18.109375 37.203125 18.109375 27.296875 
Q 18.109375 17.390625 22.1875 11.75 
Q 26.265625 6.109375 33.40625 6.109375 
Q 40.53125 6.109375 44.609375 11.75 
Q 48.6875 17.390625 48.6875 27.296875 
" id="DejaVuSans-70"/>
     </defs>
     <g transform="translate(25.432812 279.366281)rotate(-90)scale(0.1 -0.1)">
      <use xlink:href="#DejaVuSans-53"/>
      <use x="63.476562" xlink:href="#DejaVuSans-75"/>
      <use x="126.855469" xlink:href="#DejaVuSans-63"/>
      <use x="181.835938" xlink:href="#DejaVuSans-63"/>
      <use x="236.816406" xlink:href="#DejaVuSans-65"/>
      <use x="298.339844" xlink:href="#DejaVuSans-73"/>
      <use x="350.439453" xlink:href="#DejaVuSans-73"/>
      <use x="402.539062" xlink:href="#DejaVuSans-66"/>
      <use x="437.744141" xlink:href="#DejaVuSans-75"/>
      <use x="501.123047" xlink:href="#DejaVuSans-6c"/>
      <use x="528.90625" xlink:href="#DejaVuSans-20"/>
      <use x="560.693359" xlink:href="#DejaVuSans-64"/>
      <use x="624.169922" xlink:href="#DejaVuSans-6f"/>
      <use x="685.351562" xlink:href="#DejaVuSans-77"/>
      <use x="767.138672" xlink:href="#DejaVuSans-6e"/>
      <use x="830.517578" xlink:href="#DejaVuSans-6c"/>
      <use x="858.300781" xlink:href="#DejaVuSans-6f"/>
      <use x="919.482422" xlink:href="#DejaVuSans-61"/>
      <use x="980.761719" xlink:href="#DejaVuSans-64"/>
      <use x="1044.238281" xlink:href="#DejaVuSans-20"/>
      <use x="1076.025391" xlink:href="#DejaVuSans-72"/>
      <use x="1117.107422" xlink:href="#DejaVuSans-65"/>
      <use x="1178.630859" xlink:href="#DejaVuSans-71"/>
      <use x="1242.107422" xlink:href="#DejaVuSans-75"/>
      <use x="1305.486328" xlink:href="#DejaVuSans-65"/>
      <use x="1367.009766" xlink:href="#DejaVuSans-73"/>
      <use x="1419.109375" xlink:href="#DejaVuSans-74"/>
      <use x="1458.318359" xlink:href="#DejaVuSans-73"/>
      <use x="1510.417969" xlink:href="#DejaVuSans-20"/>
      <use x="1542.205078" xlink:href="#DejaVuSans-70"/>
      <use x="1605.681641" xlink:href="#DejaVuSans-65"/>
      <use x="1667.205078" xlink:href="#DejaVuSans-72"/>
      <use x="1708.318359" xlink:href="#DejaVuSans-20"/>
      <use x="1740.105469" xlink:href="#DejaVuSans-73"/>
      <use x="1792.205078" xlink:href="#DejaVuSans-65"/>
      <use x="1853.728516" xlink:href="#DejaVuSans-63"/>
      <use x="1908.708984" xlink:href="#DejaVuSans-6f"/>
      <use x="1969.890625" xlink:href="#DejaVuSans-6e"/>
      <use x="2033.269531" xlink:href="#DejaVuSans-64"/>
     </g>
    </g>
   </g>
   <g id="line2d_29">
    <path clip-path="url(#pb420a2a4c3)" d="M 57.6 295.488 
L 57.95712 295.469988 
L 61.88544 288.542644 
L 62.24256 287.682063 
L 62.59968 287.13436 
L 63.31392 285.537282 
L 63.67104 285.273103 
L 64.38528 283.534596 
L 64.7424 283.24907 
L 65.09952 282.722048 
L 65.45664 281.627976 
L 65.81376 281.796089 
L 66.528 279.680661 
L 66.88512 279.839435 
L 67.59936 278.217673 
L 68.3136 276.81139 
L 68.67072 276.11025 
L 69.74208 275.003503 
L 70.0992 274.340389 
L 70.45632 272.313687 
L 70.81344 272.723964 
L 71.17056 270.899399 
L 71.52768 271.276987 
L 71.8848 269.82534 
L 72.24192 270.640557 
L 72.95616 269.176903 
L 73.31328 267.130187 
L 73.6704 266.593158 
L 74.02752 265.719902 
L 74.38464 265.333641 
L 74.74176 265.256923 
L 75.09888 263.707877 
L 75.456 264.272258 
L 75.81312 263.356306 
L 76.17024 263.078118 
L 76.52736 260.999382 
L 76.88448 260.366955 
L 77.2416 261.769902 
L 77.59872 259.03272 
L 77.95584 259.743867 
L 78.31296 259.885296 
L 78.67008 259.216845 
L 79.0272 257.55172 
L 79.38432 256.723828 
L 79.74144 257.491013 
L 80.09856 254.196122 
L 80.45568 255.078717 
L 80.8128 254.486318 
L 81.16992 254.458966 
L 81.52704 252.895243 
L 81.88416 251.859878 
L 82.24128 251.669749 
L 82.5984 252.058011 
L 82.95552 251.866549 
L 83.31264 250.829849 
L 83.66976 249.450251 
L 84.02688 247.314809 
L 84.74112 245.480904 
L 85.09824 246.260097 
L 85.45536 244.520256 
L 85.81248 244.393503 
L 86.1696 245.091308 
L 86.52672 242.520239 
L 86.88384 241.468195 
L 87.24096 244.413517 
L 87.59808 241.296079 
L 87.9552 240.18266 
L 88.31232 240.392135 
L 88.66944 239.106601 
L 89.02656 241.504219 
L 89.38368 240.106609 
L 89.7408 236.896442 
L 90.09792 237.967832 
L 90.45504 235.713643 
L 90.81216 236.911785 
L 91.16928 234.584881 
L 91.5264 235.425449 
L 91.88352 234.678945 
L 92.24064 231.583521 
L 92.59776 231.187921 
L 92.95488 230.155891 
L 93.312 233.290674 
L 93.66912 231.540159 
L 94.02624 228.899709 
L 94.38336 229.269959 
L 95.0976 228.574823 
L 95.45472 227.496095 
L 95.81184 227.698231 
L 96.16896 225.298611 
L 96.52608 227.584822 
L 96.8832 223.791594 
L 97.24032 222.823607 
L 97.59744 226.420702 
L 98.31168 225.117155 
L 98.6688 223.532752 
L 99.02592 220.50204 
L 99.38304 220.78423 
L 99.74016 222.537414 
L 100.09728 218.829577 
L 100.4544 217.502014 
L 100.81152 219.101761 
L 101.16864 218.208491 
L 101.52576 218.37994 
L 101.88288 213.822196 
L 102.24 217.279197 
L 102.59712 215.371909 
L 102.95424 215.709471 
L 103.31136 212.930261 
L 103.66848 213.816859 
L 104.0256 215.285184 
L 104.38272 211.353863 
L 104.73984 212.685429 
L 105.09696 207.41387 
L 105.45408 211.602698 
L 105.8112 212.359209 
L 106.16832 211.547994 
L 106.88256 208.789465 
L 107.23968 206.625337 
L 107.5968 202.914832 
L 107.95392 205.680032 
L 108.31104 202.007553 
L 108.66816 206.573969 
L 109.02528 200.587928 
L 109.3824 201.549911 
L 109.73952 199.152292 
L 110.09664 201.982202 
L 110.45376 203.124974 
L 110.81088 203.087615 
L 111.168 202.435175 
L 111.52512 196.557874 
L 111.88224 196.011505 
L 112.23936 196.503837 
L 112.59648 196.686627 
L 112.9536 197.409115 
L 114.02496 192.930758 
L 114.38208 196.034854 
L 114.7392 196.675286 
L 115.09632 195.06153 
L 115.45344 190.492445 
L 115.81056 192.633891 
L 116.16768 193.208946 
L 116.5248 191.294987 
L 116.88192 192.178917 
L 117.23904 188.698567 
L 117.59616 190.683241 
L 117.95328 185.186196 
L 118.3104 190.539143 
L 118.66752 188.808642 
L 119.02464 184.936027 
L 119.38176 183.643154 
L 119.73888 185.536432 
L 120.096 179.801227 
L 120.45312 179.53905 
L 120.81024 186.232903 
L 121.16736 178.696481 
L 121.52448 182.659156 
L 121.8816 177.150104 
L 122.23872 176.132083 
L 122.59584 177.341566 
L 122.95296 176.112737 
L 123.31008 177.875927 
L 123.6672 176.076712 
L 124.02432 176.582387 
L 124.38144 180.735191 
L 124.73856 180.376282 
L 125.4528 177.077388 
L 125.80992 179.457662 
L 126.16704 174.560355 
L 126.52416 172.615709 
L 126.88128 175.843888 
L 127.2384 174.098043 
L 127.59552 179.46967 
L 127.95264 173.039328 
L 128.30976 171.597021 
L 128.66688 173.79784 
L 129.024 175.156091 
L 129.38112 178.06739 
L 129.73824 178.454318 
L 130.09536 176.16744 
L 130.45248 169.368183 
L 130.8096 176.226814 
L 131.52384 169.596337 
L 131.88096 169.184059 
L 132.5952 173.597705 
L 132.95232 169.914552 
L 133.30944 169.597671 
L 133.66656 168.194724 
L 134.02368 174.128063 
L 134.3808 166.540274 
L 134.73792 169.865852 
L 135.09504 167.61033 
L 135.45216 169.628359 
L 135.80928 167.156023 
L 136.1664 171.99529 
L 136.52352 166.492908 
L 137.23776 173.371553 
L 137.59488 170.094006 
L 138.30912 172.362872 
L 138.66624 165.977894 
L 139.02336 165.522253 
L 139.38048 169.842503 
L 139.7376 167.260093 
L 140.09472 162.952518 
L 140.45184 166.987909 
L 140.80896 165.614982 
L 141.16608 168.625682 
L 141.5232 165.532927 
L 141.88032 168.719078 
L 142.23744 167.743753 
L 142.59456 161.366781 
L 142.95168 169.234092 
L 143.3088 166.827801 
L 143.66592 160.055229 
L 144.02304 167.412196 
L 144.38016 162.759054 
L 144.73728 162.097274 
L 145.45152 158.929802 
L 145.80864 159.276703 
L 146.16576 165.403506 
L 146.88 165.393499 
L 147.23712 163.045247 
L 147.59424 158.858421 
L 147.95136 162.566257 
L 148.30848 157.770353 
L 148.6656 158.788373 
L 149.02272 156.494158 
L 149.37984 163.216696 
L 149.73696 163.967203 
L 150.09408 157.808378 
L 150.4512 155.186608 
L 150.80832 164.579617 
L 151.16544 163.360794 
L 151.52256 156.966477 
L 151.87968 163.698355 
L 152.2368 154.427429 
L 152.59392 161.329422 
L 152.95104 160.910473 
L 153.30816 159.450821 
L 153.66528 160.423477 
L 154.0224 160.52688 
L 154.37952 159.033205 
L 154.73664 154.312018 
L 155.09376 154.712288 
L 155.45088 157.66228 
L 155.808 154.215953 
L 156.16512 160.014535 
L 156.52224 154.583534 
L 156.87936 154.495475 
L 157.23648 158.176627 
L 157.5936 157.066544 
L 157.95072 154.227294 
L 158.30784 153.825689 
L 158.66496 158.025191 
L 159.02208 159.446818 
L 159.3792 157.749672 
L 159.73632 152.929751 
L 160.45056 156.732986 
L 160.80768 148.945728 
L 161.1648 148.664872 
L 161.52192 153.227285 
L 161.87904 147.979742 
L 162.23616 149.915049 
L 162.59328 149.221914 
L 163.30752 153.442764 
L 163.66464 152.14789 
L 164.02176 153.794335 
L 164.37888 153.82102 
L 164.736 149.530123 
L 165.09312 148.068469 
L 165.45024 150.460751 
L 165.80736 149.959079 
L 166.16448 152.235949 
L 166.5216 150.50945 
L 166.87872 145.812279 
L 167.23584 152.796995 
L 167.59296 154.839707 
L 167.95008 151.057821 
L 168.3072 148.587486 
L 168.66432 147.306621 
L 169.02144 147.850322 
L 169.37856 149.894368 
L 169.73568 149.031119 
L 170.0928 148.573477 
L 170.44992 151.639547 
L 170.80704 143.161156 
L 171.16416 149.257272 
L 171.52128 150.07449 
L 171.8784 148.529447 
L 172.23552 145.661511 
L 172.59264 149.544799 
L 172.94976 142.985704 
L 173.30688 143.511392 
L 173.664 151.498118 
L 174.02112 143.87297 
L 174.37824 141.614778 
L 174.73536 141.981026 
L 175.09248 144.994394 
L 175.4496 148.957736 
L 175.80672 144.035079 
L 176.16384 147.811629 
L 176.52096 147.962397 
L 176.87808 147.652855 
L 177.2352 146.780933 
L 177.59232 146.856984 
L 177.94944 143.742215 
L 178.30656 142.820926 
L 178.66368 143.016391 
L 179.0208 140.652796 
L 179.37792 145.552103 
L 179.73504 143.1765 
L 180.09216 146.669525 
L 180.44928 146.195204 
L 180.8064 141.850938 
L 181.16352 143.001715 
L 181.52064 140.109095 
L 181.87776 144.27324 
L 182.23488 136.54669 
L 182.592 143.72487 
L 182.94912 145.203868 
L 183.30624 140.264534 
L 183.66336 142.487368 
L 184.02048 137.275182 
L 184.3776 138.338567 
L 184.73472 145.700203 
L 185.09184 138.789538 
L 185.44896 136.961637 
L 185.80608 141.480688 
L 186.1632 136.337215 
L 186.52032 136.582047 
L 186.87744 139.752855 
L 187.23456 140.972345 
L 187.59168 140.564069 
L 187.9488 137.106401 
L 188.30592 143.932343 
L 188.66304 137.552703 
L 189.02016 136.076373 
L 189.37728 141.618114 
L 189.7344 142.947011 
L 190.09152 132.400557 
L 190.44864 140.987021 
L 190.80576 140.32791 
L 191.16288 138.052373 
L 191.52 140.681482 
L 191.87712 137.061704 
L 192.23424 136.999663 
L 192.59136 136.59072 
L 192.94848 141.507373 
L 193.3056 136.039681 
L 193.66272 135.071694 
L 194.01984 138.468654 
L 194.37696 131.443244 
L 194.73408 138.671458 
L 195.0912 134.189765 
L 195.44832 137.988997 
L 195.80544 129.986928 
L 196.16256 131.541311 
L 196.51968 135.515994 
L 196.8768 130.610682 
L 197.23392 138.297872 
L 197.59104 136.363233 
L 197.94816 138.77286 
L 198.30528 135.551351 
L 198.6624 136.337215 
L 199.01952 131.878205 
L 199.37664 129.906207 
L 199.73376 138.246504 
L 200.09088 136.954966 
L 200.448 134.307845 
L 200.80512 134.88757 
L 201.16224 129.058968 
L 201.51936 131.040306 
L 201.87648 136.839554 
L 202.2336 135.959627 
L 202.59072 132.343185 
L 202.94784 136.084378 
L 203.66208 127.455886 
L 204.0192 131.277132 
L 204.37632 128.072969 
L 204.73344 130.293135 
L 205.09056 127.996918 
L 205.44768 129.115673 
L 205.8048 135.937612 
L 206.16192 134.595373 
L 206.51904 129.035619 
L 207.23328 134.111713 
L 207.5904 128.161696 
L 207.94752 130.832165 
L 208.30464 125.936193 
L 208.66176 131.223096 
L 209.01888 125.83279 
L 209.376 124.411831 
L 210.09024 129.357837 
L 210.44736 131.771466 
L 210.80448 124.672006 
L 211.1616 129.972918 
L 211.51872 121.500532 
L 212.23296 132.854197 
L 212.59008 130.598674 
L 212.9472 121.186987 
L 213.30432 124.513899 
L 213.66144 129.115673 
L 214.01856 123.547247 
L 214.37568 129.589326 
L 214.7328 128.839487 
L 215.08992 120.772707 
L 215.44704 130.158377 
L 216.16128 122.647306 
L 216.5184 131.256452 
L 216.87552 129.054298 
L 217.23264 123.344443 
L 217.58976 121.057566 
L 217.94688 129.201064 
L 218.304 119.25168 
L 218.66112 128.770106 
L 219.01824 121.475181 
L 219.37536 127.676701 
L 220.44672 118.921457 
L 220.80384 119.426465 
L 221.16096 119.329733 
L 221.51808 122.714018 
L 221.8752 122.948176 
L 222.23232 117.922116 
L 222.58944 128.157026 
L 222.94656 118.070216 
L 223.30368 122.114946 
L 223.6608 121.670646 
L 224.01792 117.432452 
L 224.37504 117.844063 
L 224.73216 123.817429 
L 225.4464 115.090204 
L 225.80352 119.693979 
L 226.16064 115.295009 
L 226.51776 122.986868 
L 226.87488 118.864085 
L 227.232 117.818712 
L 227.58912 125.342459 
L 227.94624 123.217024 
L 228.30336 119.235002 
L 228.66048 120.95016 
L 229.0176 120.28838 
L 229.37472 114.745304 
L 229.73184 120.488515 
L 230.08896 115.860724 
L 230.44608 120.408461 
L 230.8032 119.681303 
L 231.16032 115.325696 
L 231.87456 119.789376 
L 232.23168 123.252381 
L 232.5888 119.583904 
L 232.94592 123.415158 
L 233.30304 118.643269 
L 233.66016 116.826042 
L 234.01728 111.601181 
L 234.3744 111.474429 
L 234.73152 120.311062 
L 235.08864 117.219641 
L 235.44576 122.386463 
L 235.80288 114.793337 
L 236.16 120.227672 
L 236.51712 122.246368 
L 236.87424 118.519853 
L 237.23136 119.810724 
L 237.58848 119.002178 
L 237.9456 112.495118 
L 238.30272 114.268983 
L 238.65984 119.606586 
L 239.01696 119.176963 
L 239.37408 116.058858 
L 239.7312 119.496512 
L 240.08832 108.680543 
L 240.44544 116.139579 
L 240.80256 119.494511 
L 241.15968 112.826675 
L 241.5168 111.074826 
L 241.87392 120.472504 
L 242.23104 108.434377 
L 242.58816 113.884723 
L 242.94528 112.723939 
L 243.3024 119.457152 
L 243.65952 107.751916 
L 244.01664 113.022141 
L 244.37376 107.64451 
L 244.73088 106.728558 
L 245.44512 112.958097 
L 245.80224 107.405682 
L 246.15936 119.302381 
L 246.8736 108.04945 
L 247.23072 118.908782 
L 247.58784 109.763941 
L 247.94496 117.435787 
L 248.30208 112.581176 
L 248.6592 105.232215 
L 249.01632 112.062159 
L 249.37344 115.459787 
L 249.73056 108.177537 
L 250.08768 116.743987 
L 250.4448 109.385686 
L 250.80192 114.607211 
L 251.15904 104.318264 
L 251.51616 105.547761 
L 252.2304 110.385694 
L 252.58752 116.452457 
L 252.94464 111.85135 
L 253.30176 103.853951 
L 253.65888 106.739899 
L 254.016 110.821321 
L 254.37312 110.848006 
L 254.73024 115.982139 
L 255.08736 111.308317 
L 255.44448 104.431007 
L 256.51584 113.435086 
L 256.87296 113.275645 
L 257.23008 109.589823 
L 257.94432 107.138835 
L 258.30144 113.130214 
L 258.65856 104.627807 
L 259.01568 102.537062 
L 259.3728 103.342272 
L 260.08704 108.627841 
L 260.44416 100.61443 
L 261.1584 109.93072 
L 261.51552 109.442391 
L 261.87264 99.855251 
L 262.22976 112.852026 
L 262.58688 103.942677 
L 262.944 109.302963 
L 263.30112 110.192897 
L 263.65824 110.77996 
L 264.01536 100.603756 
L 264.37248 107.884672 
L 264.7296 101.258198 
L 265.08672 109.476413 
L 265.44384 107.258249 
L 265.80096 104.330272 
L 266.15808 105.875316 
L 266.5152 105.730551 
L 266.87232 103.75455 
L 267.22944 98.110073 
L 267.58656 103.352279 
L 267.94368 105.863307 
L 268.3008 99.360917 
L 268.65792 109.921381 
L 269.01504 98.020679 
L 269.37216 102.097432 
L 269.72928 97.027342 
L 270.44352 102.487695 
L 270.80064 97.492322 
L 271.15776 101.696494 
L 271.51488 109.602499 
L 271.872 109.67388 
L 272.22912 99.680466 
L 272.58624 100.713831 
L 272.94336 105.820612 
L 273.30048 105.272909 
L 273.6576 96.305521 
L 274.37184 107.723897 
L 274.72896 101.248191 
L 275.08608 100.218163 
L 275.4432 97.875915 
L 275.80032 97.308865 
L 276.15744 97.687121 
L 276.51456 101.160799 
L 276.87168 107.128161 
L 277.2288 95.106712 
L 277.58592 95.429596 
L 277.94304 97.523677 
L 278.30016 105.546427 
L 279.0144 98.629757 
L 279.37152 105.178178 
L 280.08576 97.310867 
L 280.8 98.210807 
L 281.15712 100.136774 
L 281.51424 101.124108 
L 281.87136 95.522326 
L 282.22848 93.524977 
L 282.5856 102.424986 
L 282.94272 104.332274 
L 283.29984 104.912666 
L 283.65696 99.583067 
L 284.01408 101.149458 
L 284.3712 100.267529 
L 284.72832 101.106096 
L 285.08544 99.850581 
L 285.44256 96.914599 
L 285.79968 95.023989 
L 286.1568 97.011998 
L 286.51392 101.980019 
L 286.87104 102.349602 
L 287.58528 92.873871 
L 287.9424 93.887222 
L 288.29952 94.484959 
L 288.65664 93.191419 
L 289.01376 93.110697 
L 289.37088 92.264126 
L 289.728 95.668424 
L 290.08512 93.607033 
L 290.44224 95.844543 
L 290.79936 102.86595 
L 291.15648 98.356239 
L 291.5136 96.43761 
L 291.87072 99.278195 
L 292.22784 88.934545 
L 292.58496 95.378895 
L 292.94208 95.723795 
L 293.2992 94.905242 
L 293.65632 93.474276 
L 294.37056 101.497026 
L 294.72768 100.59375 
L 295.0848 98.988666 
L 295.44192 99.645776 
L 295.79904 97.308198 
L 296.15616 98.126084 
L 296.51328 90.621684 
L 296.8704 89.94456 
L 297.22752 94.817183 
L 297.58464 94.376886 
L 298.29888 89.797127 
L 298.656 99.541706 
L 299.01312 96.166094 
L 299.37024 99.812556 
L 299.72736 86.080618 
L 300.08448 98.730492 
L 300.4416 94.316845 
L 300.79872 99.945312 
L 301.15584 96.279504 
L 301.51296 89.144019 
L 301.87008 92.212758 
L 302.2272 85.834452 
L 302.58432 97.51834 
L 302.94144 93.220772 
L 303.29856 92.764464 
L 303.65568 90.65037 
L 304.0128 86.254068 
L 304.36992 91.838505 
L 304.72704 85.155326 
L 305.08416 96.412927 
L 305.7984 90.15737 
L 306.15552 97.425611 
L 306.51264 93.091351 
L 306.86976 94.806509 
L 307.94112 87.941207 
L 308.29824 89.464903 
L 308.65536 97.777848 
L 309.01248 83.757049 
L 309.3696 93.001957 
L 309.72672 88.2274 
L 310.08384 95.212783 
L 310.44096 94.563011 
L 310.79808 92.985279 
L 311.1552 96.167428 
L 311.51232 93.914573 
L 311.86944 96.006653 
L 312.22656 88.111989 
L 312.58368 93.416237 
L 312.9408 85.646992 
L 313.29792 81.865772 
L 313.65504 91.655048 
L 314.01216 83.421489 
L 314.36928 87.173355 
L 314.7264 85.94586 
L 315.08352 90.155369 
L 315.44064 87.134663 
L 315.79776 80.686976 
L 316.15488 93.472275 
L 316.512 95.084697 
L 316.86912 80.670965 
L 317.22624 81.205326 
L 317.58336 82.873786 
L 317.94048 95.045337 
L 318.2976 92.637044 
L 318.65472 94.633726 
L 319.36896 90.430888 
L 319.72608 85.861136 
L 320.0832 90.348833 
L 320.44032 82.373448 
L 320.79744 79.540202 
L 321.15456 82.800403 
L 321.51168 93.807168 
L 321.8688 92.45292 
L 322.22592 92.391545 
L 322.58304 83.43283 
L 322.94016 85.607632 
L 323.29728 81.196654 
L 323.6544 83.3888 
L 324.01152 79.781031 
L 324.36864 79.515519 
L 324.72576 87.396173 
L 325.08288 92.180736 
L 325.44 78.443461 
L 325.79712 90.270113 
L 326.15424 82.368111 
L 326.51136 83.621624 
L 326.86848 82.791731 
L 327.2256 81.470172 
L 327.58272 90.935229 
L 327.93984 88.880508 
L 328.29696 78.143926 
L 328.65408 90.374183 
L 329.0112 79.87376 
L 329.36832 84.224698 
L 329.72544 82.161972 
L 330.08256 82.530888 
L 330.43968 79.771692 
L 330.7968 82.761043 
L 331.15392 80.632273 
L 331.51104 85.58495 
L 331.86816 84.814429 
L 332.22528 89.728414 
L 332.5824 77.630913 
L 332.93952 82.36144 
L 333.29664 80.753021 
L 333.65376 81.527544 
L 334.01088 80.583573 
L 334.368 77.826378 
L 334.72512 86.103967 
L 335.08224 84.432839 
L 335.43936 77.081208 
L 335.79648 89.500927 
L 336.1536 83.480862 
L 336.51072 87.338133 
L 337.22496 79.648942 
L 337.58208 87.542271 
L 338.29632 84.501552 
L 338.65344 78.115907 
L 339.36768 88.480238 
L 339.7248 76.078531 
L 340.08192 78.344728 
L 340.43904 75.144568 
L 340.79616 88.340143 
L 341.15328 74.992465 
L 341.5104 75.74564 
L 341.86752 84.186672 
L 342.22464 87.686368 
L 342.58176 75.409413 
L 342.93888 86.590962 
L 343.296 79.55688 
L 343.65312 83.815755 
L 344.01024 77.244652 
L 344.36736 76.401416 
L 344.72448 87.171354 
L 345.0816 75.939771 
L 345.43872 85.05259 
L 345.79584 77.995159 
L 346.15296 85.858468 
L 346.8672 80.189974 
L 347.22432 74.741629 
L 347.58144 78.959143 
L 347.93856 75.100538 
L 348.29568 73.258628 
L 348.6528 74.780989 
L 349.00992 80.492845 
L 349.36704 74.604203 
L 349.72416 73.091848 
L 350.08128 82.357437 
L 350.4384 81.275373 
L 350.79552 73.285312 
L 351.15264 82.183987 
L 351.50976 76.93044 
L 351.86688 76.415426 
L 352.224 76.281335 
L 352.58112 76.814362 
L 352.93824 82.924487 
L 353.29536 75.51415 
L 353.65248 81.963838 
L 354.0096 80.242009 
L 354.36672 71.308644 
L 354.72384 79.51752 
L 355.08096 79.863754 
L 355.43808 73.19792 
L 355.7952 75.630896 
L 356.15232 80.028532 
L 356.50944 75.412749 
L 356.86656 82.12995 
L 357.22368 74.236621 
L 357.5808 77.571539 
L 357.93792 68.486072 
L 358.29504 72.125863 
L 358.65216 68.631504 
L 359.00928 69.985084 
L 359.3664 79.301374 
L 359.72352 82.328751 
L 360.08064 81.510199 
L 360.43776 77.147253 
L 360.79488 75.058509 
L 361.152 67.20454 
L 361.50912 68.049777 
L 361.86624 68.49341 
L 362.22336 70.995766 
L 362.58048 77.827045 
L 362.9376 74.704937 
L 363.29472 74.139222 
L 363.65184 71.077155 
L 364.00896 80.225331 
L 364.36608 71.279958 
L 364.7232 70.792963 
L 365.08032 77.743656 
L 365.43744 72.869031 
L 365.79456 69.718237 
L 366.15168 68.19721 
L 366.5088 70.666211 
L 366.86592 78.247329 
L 367.22304 69.901694 
L 367.58016 69.251922 
L 368.2944 76.957792 
L 368.65152 72.696915 
L 369.00864 78.241325 
L 369.36576 66.776918 
L 369.72288 78.099896 
L 370.08 68.200546 
L 370.43712 69.838985 
L 370.79424 73.899727 
L 371.15136 66.603468 
L 371.8656 71.984434 
L 372.22272 75.549508 
L 372.57984 66.141155 
L 372.93696 69.740252 
L 373.29408 64.802919 
L 373.6512 70.76828 
L 374.00832 64.702184 
L 374.36544 73.479443 
L 374.72256 72.97577 
L 375.07968 77.306694 
L 375.79392 63.079088 
L 376.15104 74.44276 
L 376.86528 65.220534 
L 377.2224 67.513415 
L 377.57952 63.255874 
L 377.93664 77.069867 
L 378.29376 65.485379 
L 378.65088 70.915045 
L 379.008 72.88771 
L 379.36512 63.765552 
L 379.72224 67.215214 
L 380.07936 72.70492 
L 380.43648 66.020407 
L 380.7936 67.700208 
L 381.15072 72.111853 
L 381.50784 65.073768 
L 381.86496 65.800926 
L 382.22208 71.057141 
L 382.5792 61.02837 
L 382.93632 72.320661 
L 383.29344 60.701483 
L 384.00768 66.662174 
L 384.3648 66.914344 
L 384.72192 61.831579 
L 385.07904 60.809556 
L 385.43616 73.19325 
L 385.79328 73.316667 
L 386.1504 71.537465 
L 386.50752 67.638833 
L 386.86464 59.812883 
L 387.22176 74.640894 
L 387.57888 64.988377 
L 387.936 75.7363 
L 388.29312 61.532711 
L 388.65024 69.915704 
L 389.00736 61.457994 
L 389.36448 59.752175 
L 389.7216 59.323886 
L 390.07872 70.977087 
L 390.43584 65.815602 
L 390.79296 65.77224 
L 391.15008 64.648147 
L 391.5072 64.438006 
L 391.86432 64.377965 
L 392.22144 63.985033 
L 392.57856 61.525372 
L 392.93568 66.983057 
L 393.2928 63.138462 
L 394.00704 73.852362 
L 394.72128 63.133792 
L 395.0784 63.124452 
L 395.43552 73.714936 
L 395.79264 69.144517 
L 396.14976 72.618195 
L 396.50688 67.123152 
L 396.864 71.871691 
L 397.22112 60.81089 
L 397.57824 71.728261 
L 397.93536 71.925061 
L 398.29248 59.911616 
L 398.6496 66.933023 
L 399.00672 66.557437 
L 399.36384 70.329316 
L 399.72096 58.364572 
L 400.07808 68.10248 
L 400.4352 56.917595 
L 400.79232 67.873659 
L 401.14944 65.564099 
L 401.50656 57.933614 
L 401.86368 65.754895 
L 402.2208 69.472071 
L 402.57792 61.059725 
L 403.29216 55.734129 
L 404.0064 68.644846 
L 404.36352 65.450689 
L 404.72064 67.337964 
L 405.07776 63.279223 
L 405.43488 68.074461 
L 405.792 66.786258 
L 406.14912 57.175102 
L 406.50624 57.371234 
L 406.86336 60.17446 
L 407.22048 60.7275 
L 407.5776 61.010358 
L 407.93472 64.852952 
L 408.29184 57.644085 
L 408.64896 56.094372 
L 409.00608 68.304616 
L 409.3632 67.81095 
L 409.72032 59.608078 
L 410.43456 64.476031 
L 410.79168 69.742921 
L 411.50592 53.870204 
L 411.86304 64.51806 
L 412.22016 64.073093 
L 412.57728 58.416607 
L 412.9344 60.269858 
L 413.29152 53.568 
L 413.64864 57.467299 
L 414.00576 68.414023 
L 414.36288 67.476057 
L 414.72 59.880262 
L 414.72 59.880262 
" style="fill:none;stroke:#000080;stroke-linecap:square;stroke-width:0.5;"/>
   </g>
   <g id="patch_3">
    <path d="M 57.6 307.584 
L 57.6 41.472 
" style="fill:none;stroke:#000000;stroke-linecap:square;stroke-linejoin:miter;stroke-width:0.8;"/>
   </g>
   <g id="patch_4">
    <path d="M 414.72 307.584 
L 414.72 41.472 
" style="fill:none;stroke:#000000;stroke-linecap:square;stroke-linejoin:miter;stroke-width:0.8;"/>
   </g>
   <g id="patch_5">
    <path d="M 57.6 307.584 
L 414.72 307.584 
" style="fill:none;stroke:#000000;stroke-linecap:square;stroke-linejoin:miter;stroke-width:0.8;"/>
   </g>
   <g id="patch_6">
    <path d="M 57.6 41.472 
L 414.72 41.472 
" style="fill:none;stroke:#000000;stroke-linecap:square;stroke-linejoin:miter;stroke-width:0.8;"/>
   </g>
   <g id="text_17">
    <!-- Test -->
    <defs>
     <path d="M -0.296875 72.90625 
L 61.375 72.90625 
L 61.375 64.59375 
L 35.5 64.59375 
L 35.5 0 
L 25.59375 0 
L 25.59375 64.59375 
L -0.296875 64.59375 
z
" id="DejaVuSans-54"/>
    </defs>
    <g transform="translate(223.341563 35.472)scale(0.12 -0.12)">
     <use xlink:href="#DejaVuSans-54"/>
     <use x="60.818359" xlink:href="#DejaVuSans-65"/>
     <use x="122.341797" xlink:href="#DejaVuSans-73"/>
     <use x="174.441406" xlink:href="#DejaVuSans-74"/>
    </g>
   </g>
   <g id="legend_1">
    <g id="patch_7">
     <path d="M 64.6 64.150125 
L 306.276563 64.150125 
Q 308.276563 64.150125 308.276563 62.150125 
L 308.276563 48.472 
Q 308.276563 46.472 306.276563 46.472 
L 64.6 46.472 
Q 62.6 46.472 62.6 48.472 
L 62.6 62.150125 
Q 62.6 64.150125 64.6 64.150125 
z
" style="fill:#ffffff;opacity:0.8;stroke:#cccccc;stroke-linejoin:miter;"/>
    </g>
    <g id="line2d_30">
     <path d="M 66.6 54.570438 
L 86.6 54.570438 
" style="fill:none;stroke:#000080;stroke-linecap:square;stroke-width:0.5;"/>
    </g>
    <g id="line2d_31"/>
    <g id="text_18">
     <!-- Successful download requests per second -->
     <g transform="translate(94.6 58.070438)scale(0.1 -0.1)">
      <use xlink:href="#DejaVuSans-53"/>
      <use x="63.476562" xlink:href="#DejaVuSans-75"/>
      <use x="126.855469" xlink:href="#DejaVuSans-63"/>
      <use x="181.835938" xlink:href="#DejaVuSans-63"/>
      <use x="236.816406" xlink:href="#DejaVuSans-65"/>
      <use x="298.339844" xlink:href="#DejaVuSans-73"/>
      <use x="350.439453" xlink:href="#DejaVuSans-73"/>
      <use x="402.539062" xlink:href="#DejaVuSans-66"/>
      <use x="437.744141" xlink:href="#DejaVuSans-75"/>
      <use x="501.123047" xlink:href="#DejaVuSans-6c"/>
      <use x="528.90625" xlink:href="#DejaVuSans-20"/>
      <use x="560.693359" xlink:href="#DejaVuSans-64"/>
      <use x="624.169922" xlink:href="#DejaVuSans-6f"/>
      <use x="685.351562" xlink:href="#DejaVuSans-77"/>
      <use x="767.138672" xlink:href="#DejaVuSans-6e"/>
      <use x="830.517578" xlink:href="#DejaVuSans-6c"/>
      <use x="858.300781" xlink:href="#DejaVuSans-6f"/>
      <use x="919.482422" xlink:href="#DejaVuSans-61"/>
      <use x="980.761719" xlink:href="#DejaVuSans-64"/>
      <use x="1044.238281" xlink:href="#DejaVuSans-20"/>
      <use x="1076.025391" xlink:href="#DejaVuSans-72"/>
      <use x="1117.107422" xlink:href="#DejaVuSans-65"/>
      <use x="1178.630859" xlink:href="#DejaVuSans-71"/>
      <use x="1242.107422" xlink:href="#DejaVuSans-75"/>
      <use x="1305.486328" xlink:href="#DejaVuSans-65"/>
      <use x="1367.009766" xlink:href="#DejaVuSans-73"/>
      <use x="1419.109375" xlink:href="#DejaVuSans-74"/>
      <use x="1458.318359" xlink:href="#DejaVuSans-73"/>
      <use x="1510.417969" xlink:href="#DejaVuSans-20"/>
      <use x="1542.205078" xlink:href="#DejaVuSans-70"/>
      <use x="1605.681641" xlink:href="#DejaVuSans-65"/>
      <use x="1667.205078" xlink:href="#DejaVuSans-72"/>
      <use x="1708.318359" xlink:href="#DejaVuSans-20"/>
      <use x="1740.105469" xlink:href="#DejaVuSans-73"/>
      <use x="1792.205078" xlink:href="#DejaVuSans-65"/>
      <use x="1853.728516" xlink:href="#DejaVuSans-63"/>
      <use x="1908.708984" xlink:href="#DejaVuSans-6f"/>
      <use x="1969.890625" xlink:href="#DejaVuSans-6e"/>
      <use x="2033.269531" xlink:href="#DejaVuSans-64"/>
     </g>
    </g>
   </g>
  </g>
 </g>
 <defs>
  <clipPath id="pb420a2a4c3">
   <rect height="266.112" width="357.12" x="57.6" y="41.472"/>
  </clipPath>
 </defs>
</svg>
