<?xml version="1.0" encoding="utf-8" standalone="no"?>
<!DOCTYPE svg PUBLIC "-//W3C//DTD SVG 1.1//EN"
  "http://www.w3.org/Graphics/SVG/1.1/DTD/svg11.dtd">
<!-- Created with matplotlib (http://matplotlib.org/) -->
<svg height="345pt" version="1.1" viewBox="0 0 460 345" width="460pt" xmlns="http://www.w3.org/2000/svg" xmlns:xlink="http://www.w3.org/1999/xlink">
 <defs>
  <style type="text/css">
*{stroke-linecap:butt;stroke-linejoin:round;}
  </style>
 </defs>
 <g id="figure_1">
  <g id="patch_1">
   <path d="M 0 345.6 
L 460.8 345.6 
L 460.8 0 
L 0 0 
z
" style="fill:#ffffff;"/>
  </g>
  <g id="axes_1">
   <g id="patch_2">
    <path d="M 57.6 307.584 
L 414.72 307.584 
L 414.72 41.472 
L 57.6 41.472 
z
" style="fill:#ffffff;"/>
   </g>
   <g id="matplotlib.axis_1">
    <g id="xtick_1">
     <g id="line2d_1">
      <path clip-path="url(#p28869d5924)" d="M 57.6 307.584 
L 57.6 41.472 
" style="fill:none;stroke:#b0b0b0;stroke-linecap:square;stroke-width:0.8;"/>
     </g>
     <g id="line2d_2">
      <defs>
       <path d="M 0 0 
L 0 3.5 
" id="m41c8e16ec3" style="stroke:#000000;stroke-width:0.8;"/>
      </defs>
      <g>
       <use style="stroke:#000000;stroke-width:0.8;" x="57.6" xlink:href="#m41c8e16ec3" y="307.584"/>
      </g>
     </g>
     <g id="text_1">
      <!-- 0 -->
      <defs>
       <path d="M 31.78125 66.40625 
Q 24.171875 66.40625 20.328125 58.90625 
Q 16.5 51.421875 16.5 36.375 
Q 16.5 21.390625 20.328125 13.890625 
Q 24.171875 6.390625 31.78125 6.390625 
Q 39.453125 6.390625 43.28125 13.890625 
Q 47.125 21.390625 47.125 36.375 
Q 47.125 51.421875 43.28125 58.90625 
Q 39.453125 66.40625 31.78125 66.40625 
M 31.78125 74.21875 
Q 44.046875 74.21875 50.515625 64.515625 
Q 56.984375 54.828125 56.984375 36.375 
Q 56.984375 17.96875 50.515625 8.265625 
Q 44.046875 -1.421875 31.78125 -1.421875 
Q 19.53125 -1.421875 13.0625 8.265625 
Q 6.59375 17.96875 6.59375 36.375 
Q 6.59375 54.828125 13.0625 64.515625 
Q 19.53125 74.21875 31.78125 74.21875 
" id="DejaVuSans-30"/>
      </defs>
      <g transform="translate(54.41875 322.182437)scale(0.1 -0.1)">
       <use xlink:href="#DejaVuSans-30"/>
      </g>
     </g>
    </g>
    <g id="xtick_2">
     <g id="line2d_3">
      <path clip-path="url(#p28869d5924)" d="M 129.024 307.584 
L 129.024 41.472 
" style="fill:none;stroke:#b0b0b0;stroke-linecap:square;stroke-width:0.8;"/>
     </g>
     <g id="line2d_4">
      <g>
       <use style="stroke:#000000;stroke-width:0.8;" x="129.024" xlink:href="#m41c8e16ec3" y="307.584"/>
      </g>
     </g>
     <g id="text_2">
      <!-- 200 -->
      <defs>
       <path d="M 19.1875 8.296875 
L 53.609375 8.296875 
L 53.609375 0 
L 7.328125 0 
L 7.328125 8.296875 
Q 12.9375 14.109375 22.625 23.890625 
Q 32.328125 33.6875 34.8125 36.53125 
Q 39.546875 41.84375 41.421875 45.53125 
Q 43.3125 49.21875 43.3125 52.78125 
Q 43.3125 58.59375 39.234375 62.25 
Q 35.15625 65.921875 28.609375 65.921875 
Q 23.96875 65.921875 18.8125 64.3125 
Q 13.671875 62.703125 7.8125 59.421875 
L 7.8125 69.390625 
Q 13.765625 71.78125 18.9375 73 
Q 24.125 74.21875 28.421875 74.21875 
Q 39.75 74.21875 46.484375 68.546875 
Q 53.21875 62.890625 53.21875 53.421875 
Q 53.21875 48.921875 51.53125 44.890625 
Q 49.859375 40.875 45.40625 35.40625 
Q 44.1875 33.984375 37.640625 27.21875 
Q 31.109375 20.453125 19.1875 8.296875 
" id="DejaVuSans-32"/>
      </defs>
      <g transform="translate(119.48025 322.182437)scale(0.1 -0.1)">
       <use xlink:href="#DejaVuSans-32"/>
       <use x="63.623047" xlink:href="#DejaVuSans-30"/>
       <use x="127.246094" xlink:href="#DejaVuSans-30"/>
      </g>
     </g>
    </g>
    <g id="xtick_3">
     <g id="line2d_5">
      <path clip-path="url(#p28869d5924)" d="M 200.448 307.584 
L 200.448 41.472 
" style="fill:none;stroke:#b0b0b0;stroke-linecap:square;stroke-width:0.8;"/>
     </g>
     <g id="line2d_6">
      <g>
       <use style="stroke:#000000;stroke-width:0.8;" x="200.448" xlink:href="#m41c8e16ec3" y="307.584"/>
      </g>
     </g>
     <g id="text_3">
      <!-- 400 -->
      <defs>
       <path d="M 37.796875 64.3125 
L 12.890625 25.390625 
L 37.796875 25.390625 
z
M 35.203125 72.90625 
L 47.609375 72.90625 
L 47.609375 25.390625 
L 58.015625 25.390625 
L 58.015625 17.1875 
L 47.609375 17.1875 
L 47.609375 0 
L 37.796875 0 
L 37.796875 17.1875 
L 4.890625 17.1875 
L 4.890625 26.703125 
z
" id="DejaVuSans-34"/>
      </defs>
      <g transform="translate(190.90425 322.182437)scale(0.1 -0.1)">
       <use xlink:href="#DejaVuSans-34"/>
       <use x="63.623047" xlink:href="#DejaVuSans-30"/>
       <use x="127.246094" xlink:href="#DejaVuSans-30"/>
      </g>
     </g>
    </g>
    <g id="xtick_4">
     <g id="line2d_7">
      <path clip-path="url(#p28869d5924)" d="M 271.872 307.584 
L 271.872 41.472 
" style="fill:none;stroke:#b0b0b0;stroke-linecap:square;stroke-width:0.8;"/>
     </g>
     <g id="line2d_8">
      <g>
       <use style="stroke:#000000;stroke-width:0.8;" x="271.872" xlink:href="#m41c8e16ec3" y="307.584"/>
      </g>
     </g>
     <g id="text_4">
      <!-- 600 -->
      <defs>
       <path d="M 33.015625 40.375 
Q 26.375 40.375 22.484375 35.828125 
Q 18.609375 31.296875 18.609375 23.390625 
Q 18.609375 15.53125 22.484375 10.953125 
Q 26.375 6.390625 33.015625 6.390625 
Q 39.65625 6.390625 43.53125 10.953125 
Q 47.40625 15.53125 47.40625 23.390625 
Q 47.40625 31.296875 43.53125 35.828125 
Q 39.65625 40.375 33.015625 40.375 
M 52.59375 71.296875 
L 52.59375 62.3125 
Q 48.875 64.0625 45.09375 64.984375 
Q 41.3125 65.921875 37.59375 65.921875 
Q 27.828125 65.921875 22.671875 59.328125 
Q 17.53125 52.734375 16.796875 39.40625 
Q 19.671875 43.65625 24.015625 45.921875 
Q 28.375 48.1875 33.59375 48.1875 
Q 44.578125 48.1875 50.953125 41.515625 
Q 57.328125 34.859375 57.328125 23.390625 
Q 57.328125 12.15625 50.6875 5.359375 
Q 44.046875 -1.421875 33.015625 -1.421875 
Q 20.359375 -1.421875 13.671875 8.265625 
Q 6.984375 17.96875 6.984375 36.375 
Q 6.984375 53.65625 15.1875 63.9375 
Q 23.390625 74.21875 37.203125 74.21875 
Q 40.921875 74.21875 44.703125 73.484375 
Q 48.484375 72.75 52.59375 71.296875 
" id="DejaVuSans-36"/>
      </defs>
      <g transform="translate(262.32825 322.182437)scale(0.1 -0.1)">
       <use xlink:href="#DejaVuSans-36"/>
       <use x="63.623047" xlink:href="#DejaVuSans-30"/>
       <use x="127.246094" xlink:href="#DejaVuSans-30"/>
      </g>
     </g>
    </g>
    <g id="xtick_5">
     <g id="line2d_9">
      <path clip-path="url(#p28869d5924)" d="M 343.296 307.584 
L 343.296 41.472 
" style="fill:none;stroke:#b0b0b0;stroke-linecap:square;stroke-width:0.8;"/>
     </g>
     <g id="line2d_10">
      <g>
       <use style="stroke:#000000;stroke-width:0.8;" x="343.296" xlink:href="#m41c8e16ec3" y="307.584"/>
      </g>
     </g>
     <g id="text_5">
      <!-- 800 -->
      <defs>
       <path d="M 31.78125 34.625 
Q 24.75 34.625 20.71875 30.859375 
Q 16.703125 27.09375 16.703125 20.515625 
Q 16.703125 13.921875 20.71875 10.15625 
Q 24.75 6.390625 31.78125 6.390625 
Q 38.8125 6.390625 42.859375 10.171875 
Q 46.921875 13.96875 46.921875 20.515625 
Q 46.921875 27.09375 42.890625 30.859375 
Q 38.875 34.625 31.78125 34.625 
M 21.921875 38.8125 
Q 15.578125 40.375 12.03125 44.71875 
Q 8.5 49.078125 8.5 55.328125 
Q 8.5 64.0625 14.71875 69.140625 
Q 20.953125 74.21875 31.78125 74.21875 
Q 42.671875 74.21875 48.875 69.140625 
Q 55.078125 64.0625 55.078125 55.328125 
Q 55.078125 49.078125 51.53125 44.71875 
Q 48 40.375 41.703125 38.8125 
Q 48.828125 37.15625 52.796875 32.3125 
Q 56.78125 27.484375 56.78125 20.515625 
Q 56.78125 9.90625 50.3125 4.234375 
Q 43.84375 -1.421875 31.78125 -1.421875 
Q 19.734375 -1.421875 13.25 4.234375 
Q 6.78125 9.90625 6.78125 20.515625 
Q 6.78125 27.484375 10.78125 32.3125 
Q 14.796875 37.15625 21.921875 38.8125 
M 18.3125 54.390625 
Q 18.3125 48.734375 21.84375 45.5625 
Q 25.390625 42.390625 31.78125 42.390625 
Q 38.140625 42.390625 41.71875 45.5625 
Q 45.3125 48.734375 45.3125 54.390625 
Q 45.3125 60.0625 41.71875 63.234375 
Q 38.140625 66.40625 31.78125 66.40625 
Q 25.390625 66.40625 21.84375 63.234375 
Q 18.3125 60.0625 18.3125 54.390625 
" id="DejaVuSans-38"/>
      </defs>
      <g transform="translate(333.75225 322.182437)scale(0.1 -0.1)">
       <use xlink:href="#DejaVuSans-38"/>
       <use x="63.623047" xlink:href="#DejaVuSans-30"/>
       <use x="127.246094" xlink:href="#DejaVuSans-30"/>
      </g>
     </g>
    </g>
    <g id="xtick_6">
     <g id="line2d_11">
      <path clip-path="url(#p28869d5924)" d="M 414.72 307.584 
L 414.72 41.472 
" style="fill:none;stroke:#b0b0b0;stroke-linecap:square;stroke-width:0.8;"/>
     </g>
     <g id="line2d_12">
      <g>
       <use style="stroke:#000000;stroke-width:0.8;" x="414.72" xlink:href="#m41c8e16ec3" y="307.584"/>
      </g>
     </g>
     <g id="text_6">
      <!-- 1000 -->
      <defs>
       <path d="M 12.40625 8.296875 
L 28.515625 8.296875 
L 28.515625 63.921875 
L 10.984375 60.40625 
L 10.984375 69.390625 
L 28.421875 72.90625 
L 38.28125 72.90625 
L 38.28125 8.296875 
L 54.390625 8.296875 
L 54.390625 0 
L 12.40625 0 
z
" id="DejaVuSans-31"/>
      </defs>
      <g transform="translate(401.995 322.182437)scale(0.1 -0.1)">
       <use xlink:href="#DejaVuSans-31"/>
       <use x="63.623047" xlink:href="#DejaVuSans-30"/>
       <use x="127.246094" xlink:href="#DejaVuSans-30"/>
       <use x="190.869141" xlink:href="#DejaVuSans-30"/>
      </g>
     </g>
    </g>
    <g id="text_7">
     <!-- Number of clients -->
     <defs>
      <path d="M 9.8125 72.90625 
L 23.09375 72.90625 
L 55.421875 11.921875 
L 55.421875 72.90625 
L 64.984375 72.90625 
L 64.984375 0 
L 51.703125 0 
L 19.390625 60.984375 
L 19.390625 0 
L 9.8125 0 
z
" id="DejaVuSans-4e"/>
      <path d="M 8.5 21.578125 
L 8.5 54.6875 
L 17.484375 54.6875 
L 17.484375 21.921875 
Q 17.484375 14.15625 20.5 10.265625 
Q 23.53125 6.390625 29.59375 6.390625 
Q 36.859375 6.390625 41.078125 11.03125 
Q 45.3125 15.671875 45.3125 23.6875 
L 45.3125 54.6875 
L 54.296875 54.6875 
L 54.296875 0 
L 45.3125 0 
L 45.3125 8.40625 
Q 42.046875 3.421875 37.71875 1 
Q 33.40625 -1.421875 27.6875 -1.421875 
Q 18.265625 -1.421875 13.375 4.4375 
Q 8.5 10.296875 8.5 21.578125 
M 31.109375 56 
z
" id="DejaVuSans-75"/>
      <path d="M 52 44.1875 
Q 55.375 50.25 60.0625 53.125 
Q 64.75 56 71.09375 56 
Q 79.640625 56 84.28125 50.015625 
Q 88.921875 44.046875 88.921875 33.015625 
L 88.921875 0 
L 79.890625 0 
L 79.890625 32.71875 
Q 79.890625 40.578125 77.09375 44.375 
Q 74.3125 48.1875 68.609375 48.1875 
Q 61.625 48.1875 57.5625 43.546875 
Q 53.515625 38.921875 53.515625 30.90625 
L 53.515625 0 
L 44.484375 0 
L 44.484375 32.71875 
Q 44.484375 40.625 41.703125 44.40625 
Q 38.921875 48.1875 33.109375 48.1875 
Q 26.21875 48.1875 22.15625 43.53125 
Q 18.109375 38.875 18.109375 30.90625 
L 18.109375 0 
L 9.078125 0 
L 9.078125 54.6875 
L 18.109375 54.6875 
L 18.109375 46.1875 
Q 21.1875 51.21875 25.484375 53.609375 
Q 29.78125 56 35.6875 56 
Q 41.65625 56 45.828125 52.96875 
Q 50 49.953125 52 44.1875 
" id="DejaVuSans-6d"/>
      <path d="M 48.6875 27.296875 
Q 48.6875 37.203125 44.609375 42.84375 
Q 40.53125 48.484375 33.40625 48.484375 
Q 26.265625 48.484375 22.1875 42.84375 
Q 18.109375 37.203125 18.109375 27.296875 
Q 18.109375 17.390625 22.1875 11.75 
Q 26.265625 6.109375 33.40625 6.109375 
Q 40.53125 6.109375 44.609375 11.75 
Q 48.6875 17.390625 48.6875 27.296875 
M 18.109375 46.390625 
Q 20.953125 51.265625 25.265625 53.625 
Q 29.59375 56 35.59375 56 
Q 45.5625 56 51.78125 48.09375 
Q 58.015625 40.1875 58.015625 27.296875 
Q 58.015625 14.40625 51.78125 6.484375 
Q 45.5625 -1.421875 35.59375 -1.421875 
Q 29.59375 -1.421875 25.265625 0.953125 
Q 20.953125 3.328125 18.109375 8.203125 
L 18.109375 0 
L 9.078125 0 
L 9.078125 75.984375 
L 18.109375 75.984375 
z
" id="DejaVuSans-62"/>
      <path d="M 56.203125 29.59375 
L 56.203125 25.203125 
L 14.890625 25.203125 
Q 15.484375 15.921875 20.484375 11.0625 
Q 25.484375 6.203125 34.421875 6.203125 
Q 39.59375 6.203125 44.453125 7.46875 
Q 49.3125 8.734375 54.109375 11.28125 
L 54.109375 2.78125 
Q 49.265625 0.734375 44.1875 -0.34375 
Q 39.109375 -1.421875 33.890625 -1.421875 
Q 20.796875 -1.421875 13.15625 6.1875 
Q 5.515625 13.8125 5.515625 26.8125 
Q 5.515625 40.234375 12.765625 48.109375 
Q 20.015625 56 32.328125 56 
Q 43.359375 56 49.78125 48.890625 
Q 56.203125 41.796875 56.203125 29.59375 
M 47.21875 32.234375 
Q 47.125 39.59375 43.09375 43.984375 
Q 39.0625 48.390625 32.421875 48.390625 
Q 24.90625 48.390625 20.390625 44.140625 
Q 15.875 39.890625 15.1875 32.171875 
z
" id="DejaVuSans-65"/>
      <path d="M 41.109375 46.296875 
Q 39.59375 47.171875 37.8125 47.578125 
Q 36.03125 48 33.890625 48 
Q 26.265625 48 22.1875 43.046875 
Q 18.109375 38.09375 18.109375 28.8125 
L 18.109375 0 
L 9.078125 0 
L 9.078125 54.6875 
L 18.109375 54.6875 
L 18.109375 46.1875 
Q 20.953125 51.171875 25.484375 53.578125 
Q 30.03125 56 36.53125 56 
Q 37.453125 56 38.578125 55.875 
Q 39.703125 55.765625 41.0625 55.515625 
z
" id="DejaVuSans-72"/>
      <path id="DejaVuSans-20"/>
      <path d="M 30.609375 48.390625 
Q 23.390625 48.390625 19.1875 42.75 
Q 14.984375 37.109375 14.984375 27.296875 
Q 14.984375 17.484375 19.15625 11.84375 
Q 23.34375 6.203125 30.609375 6.203125 
Q 37.796875 6.203125 41.984375 11.859375 
Q 46.1875 17.53125 46.1875 27.296875 
Q 46.1875 37.015625 41.984375 42.703125 
Q 37.796875 48.390625 30.609375 48.390625 
M 30.609375 56 
Q 42.328125 56 49.015625 48.375 
Q 55.71875 40.765625 55.71875 27.296875 
Q 55.71875 13.875 49.015625 6.21875 
Q 42.328125 -1.421875 30.609375 -1.421875 
Q 18.84375 -1.421875 12.171875 6.21875 
Q 5.515625 13.875 5.515625 27.296875 
Q 5.515625 40.765625 12.171875 48.375 
Q 18.84375 56 30.609375 56 
" id="DejaVuSans-6f"/>
      <path d="M 37.109375 75.984375 
L 37.109375 68.5 
L 28.515625 68.5 
Q 23.6875 68.5 21.796875 66.546875 
Q 19.921875 64.59375 19.921875 59.515625 
L 19.921875 54.6875 
L 34.71875 54.6875 
L 34.71875 47.703125 
L 19.921875 47.703125 
L 19.921875 0 
L 10.890625 0 
L 10.890625 47.703125 
L 2.296875 47.703125 
L 2.296875 54.6875 
L 10.890625 54.6875 
L 10.890625 58.5 
Q 10.890625 67.625 15.140625 71.796875 
Q 19.390625 75.984375 28.609375 75.984375 
z
" id="DejaVuSans-66"/>
      <path d="M 48.78125 52.59375 
L 48.78125 44.1875 
Q 44.96875 46.296875 41.140625 47.34375 
Q 37.3125 48.390625 33.40625 48.390625 
Q 24.65625 48.390625 19.8125 42.84375 
Q 14.984375 37.3125 14.984375 27.296875 
Q 14.984375 17.28125 19.8125 11.734375 
Q 24.65625 6.203125 33.40625 6.203125 
Q 37.3125 6.203125 41.140625 7.25 
Q 44.96875 8.296875 48.78125 10.40625 
L 48.78125 2.09375 
Q 45.015625 0.34375 40.984375 -0.53125 
Q 36.96875 -1.421875 32.421875 -1.421875 
Q 20.0625 -1.421875 12.78125 6.34375 
Q 5.515625 14.109375 5.515625 27.296875 
Q 5.515625 40.671875 12.859375 48.328125 
Q 20.21875 56 33.015625 56 
Q 37.15625 56 41.109375 55.140625 
Q 45.0625 54.296875 48.78125 52.59375 
" id="DejaVuSans-63"/>
      <path d="M 9.421875 75.984375 
L 18.40625 75.984375 
L 18.40625 0 
L 9.421875 0 
z
" id="DejaVuSans-6c"/>
      <path d="M 9.421875 54.6875 
L 18.40625 54.6875 
L 18.40625 0 
L 9.421875 0 
z
M 9.421875 75.984375 
L 18.40625 75.984375 
L 18.40625 64.59375 
L 9.421875 64.59375 
z
" id="DejaVuSans-69"/>
      <path d="M 54.890625 33.015625 
L 54.890625 0 
L 45.90625 0 
L 45.90625 32.71875 
Q 45.90625 40.484375 42.875 44.328125 
Q 39.84375 48.1875 33.796875 48.1875 
Q 26.515625 48.1875 22.3125 43.546875 
Q 18.109375 38.921875 18.109375 30.90625 
L 18.109375 0 
L 9.078125 0 
L 9.078125 54.6875 
L 18.109375 54.6875 
L 18.109375 46.1875 
Q 21.34375 51.125 25.703125 53.5625 
Q 30.078125 56 35.796875 56 
Q 45.21875 56 50.046875 50.171875 
Q 54.890625 44.34375 54.890625 33.015625 
" id="DejaVuSans-6e"/>
      <path d="M 18.3125 70.21875 
L 18.3125 54.6875 
L 36.8125 54.6875 
L 36.8125 47.703125 
L 18.3125 47.703125 
L 18.3125 18.015625 
Q 18.3125 11.328125 20.140625 9.421875 
Q 21.96875 7.515625 27.59375 7.515625 
L 36.8125 7.515625 
L 36.8125 0 
L 27.59375 0 
Q 17.1875 0 13.234375 3.875 
Q 9.28125 7.765625 9.28125 18.015625 
L 9.28125 47.703125 
L 2.6875 47.703125 
L 2.6875 54.6875 
L 9.28125 54.6875 
L 9.28125 70.21875 
z
" id="DejaVuSans-74"/>
      <path d="M 44.28125 53.078125 
L 44.28125 44.578125 
Q 40.484375 46.53125 36.375 47.5 
Q 32.28125 48.484375 27.875 48.484375 
Q 21.1875 48.484375 17.84375 46.4375 
Q 14.5 44.390625 14.5 40.28125 
Q 14.5 37.15625 16.890625 35.375 
Q 19.28125 33.59375 26.515625 31.984375 
L 29.59375 31.296875 
Q 39.15625 29.25 43.1875 25.515625 
Q 47.21875 21.78125 47.21875 15.09375 
Q 47.21875 7.46875 41.1875 3.015625 
Q 35.15625 -1.421875 24.609375 -1.421875 
Q 20.21875 -1.421875 15.453125 -0.5625 
Q 10.6875 0.296875 5.421875 2 
L 5.421875 11.28125 
Q 10.40625 8.6875 15.234375 7.390625 
Q 20.0625 6.109375 24.8125 6.109375 
Q 31.15625 6.109375 34.5625 8.28125 
Q 37.984375 10.453125 37.984375 14.40625 
Q 37.984375 18.0625 35.515625 20.015625 
Q 33.0625 21.96875 24.703125 23.78125 
L 21.578125 24.515625 
Q 13.234375 26.265625 9.515625 29.90625 
Q 5.8125 33.546875 5.8125 39.890625 
Q 5.8125 47.609375 11.28125 51.796875 
Q 16.75 56 26.8125 56 
Q 31.78125 56 36.171875 55.265625 
Q 40.578125 54.546875 44.28125 53.078125 
" id="DejaVuSans-73"/>
     </defs>
     <g transform="translate(191.738906 335.860562)scale(0.1 -0.1)">
      <use xlink:href="#DejaVuSans-4e"/>
      <use x="74.804688" xlink:href="#DejaVuSans-75"/>
      <use x="138.183594" xlink:href="#DejaVuSans-6d"/>
      <use x="235.595703" xlink:href="#DejaVuSans-62"/>
      <use x="299.072266" xlink:href="#DejaVuSans-65"/>
      <use x="360.595703" xlink:href="#DejaVuSans-72"/>
      <use x="401.708984" xlink:href="#DejaVuSans-20"/>
      <use x="433.496094" xlink:href="#DejaVuSans-6f"/>
      <use x="494.677734" xlink:href="#DejaVuSans-66"/>
      <use x="529.882812" xlink:href="#DejaVuSans-20"/>
      <use x="561.669922" xlink:href="#DejaVuSans-63"/>
      <use x="616.650391" xlink:href="#DejaVuSans-6c"/>
      <use x="644.433594" xlink:href="#DejaVuSans-69"/>
      <use x="672.216797" xlink:href="#DejaVuSans-65"/>
      <use x="733.740234" xlink:href="#DejaVuSans-6e"/>
      <use x="797.119141" xlink:href="#DejaVuSans-74"/>
      <use x="836.328125" xlink:href="#DejaVuSans-73"/>
     </g>
    </g>
   </g>
   <g id="matplotlib.axis_2">
    <g id="ytick_1">
     <g id="line2d_13">
      <path clip-path="url(#p28869d5924)" d="M 57.6 296.022649 
L 414.72 296.022649 
" style="fill:none;stroke:#b0b0b0;stroke-linecap:square;stroke-width:0.8;"/>
     </g>
     <g id="line2d_14">
      <defs>
       <path d="M 0 0 
L -3.5 0 
" id="m945c377cde" style="stroke:#000000;stroke-width:0.8;"/>
      </defs>
      <g>
       <use style="stroke:#000000;stroke-width:0.8;" x="57.6" xlink:href="#m945c377cde" y="296.022649"/>
      </g>
     </g>
     <g id="text_8">
      <!-- 0 -->
      <g transform="translate(44.2375 299.821868)scale(0.1 -0.1)">
       <use xlink:href="#DejaVuSans-30"/>
      </g>
     </g>
    </g>
    <g id="ytick_2">
     <g id="line2d_15">
      <path clip-path="url(#p28869d5924)" d="M 57.6 240.038459 
L 414.72 240.038459 
" style="fill:none;stroke:#b0b0b0;stroke-linecap:square;stroke-width:0.8;"/>
     </g>
     <g id="line2d_16">
      <g>
       <use style="stroke:#000000;stroke-width:0.8;" x="57.6" xlink:href="#m945c377cde" y="240.038459"/>
      </g>
     </g>
     <g id="text_9">
      <!-- 100 -->
      <g transform="translate(31.5125 243.837678)scale(0.1 -0.1)">
       <use xlink:href="#DejaVuSans-31"/>
       <use x="63.623047" xlink:href="#DejaVuSans-30"/>
       <use x="127.246094" xlink:href="#DejaVuSans-30"/>
      </g>
     </g>
    </g>
    <g id="ytick_3">
     <g id="line2d_17">
      <path clip-path="url(#p28869d5924)" d="M 57.6 184.05427 
L 414.72 184.05427 
" style="fill:none;stroke:#b0b0b0;stroke-linecap:square;stroke-width:0.8;"/>
     </g>
     <g id="line2d_18">
      <g>
       <use style="stroke:#000000;stroke-width:0.8;" x="57.6" xlink:href="#m945c377cde" y="184.05427"/>
      </g>
     </g>
     <g id="text_10">
      <!-- 200 -->
      <g transform="translate(31.5125 187.853488)scale(0.1 -0.1)">
       <use xlink:href="#DejaVuSans-32"/>
       <use x="63.623047" xlink:href="#DejaVuSans-30"/>
       <use x="127.246094" xlink:href="#DejaVuSans-30"/>
      </g>
     </g>
    </g>
    <g id="ytick_4">
     <g id="line2d_19">
      <path clip-path="url(#p28869d5924)" d="M 57.6 128.07008 
L 414.72 128.07008 
" style="fill:none;stroke:#b0b0b0;stroke-linecap:square;stroke-width:0.8;"/>
     </g>
     <g id="line2d_20">
      <g>
       <use style="stroke:#000000;stroke-width:0.8;" x="57.6" xlink:href="#m945c377cde" y="128.07008"/>
      </g>
     </g>
     <g id="text_11">
      <!-- 300 -->
      <defs>
       <path d="M 40.578125 39.3125 
Q 47.65625 37.796875 51.625 33 
Q 55.609375 28.21875 55.609375 21.1875 
Q 55.609375 10.40625 48.1875 4.484375 
Q 40.765625 -1.421875 27.09375 -1.421875 
Q 22.515625 -1.421875 17.65625 -0.515625 
Q 12.796875 0.390625 7.625 2.203125 
L 7.625 11.71875 
Q 11.71875 9.328125 16.59375 8.109375 
Q 21.484375 6.890625 26.8125 6.890625 
Q 36.078125 6.890625 40.9375 10.546875 
Q 45.796875 14.203125 45.796875 21.1875 
Q 45.796875 27.640625 41.28125 31.265625 
Q 36.765625 34.90625 28.71875 34.90625 
L 20.21875 34.90625 
L 20.21875 43.015625 
L 29.109375 43.015625 
Q 36.375 43.015625 40.234375 45.921875 
Q 44.09375 48.828125 44.09375 54.296875 
Q 44.09375 59.90625 40.109375 62.90625 
Q 36.140625 65.921875 28.71875 65.921875 
Q 24.65625 65.921875 20.015625 65.03125 
Q 15.375 64.15625 9.8125 62.3125 
L 9.8125 71.09375 
Q 15.4375 72.65625 20.34375 73.4375 
Q 25.25 74.21875 29.59375 74.21875 
Q 40.828125 74.21875 47.359375 69.109375 
Q 53.90625 64.015625 53.90625 55.328125 
Q 53.90625 49.265625 50.4375 45.09375 
Q 46.96875 40.921875 40.578125 39.3125 
" id="DejaVuSans-33"/>
      </defs>
      <g transform="translate(31.5125 131.869299)scale(0.1 -0.1)">
       <use xlink:href="#DejaVuSans-33"/>
       <use x="63.623047" xlink:href="#DejaVuSans-30"/>
       <use x="127.246094" xlink:href="#DejaVuSans-30"/>
      </g>
     </g>
    </g>
    <g id="ytick_5">
     <g id="line2d_21">
      <path clip-path="url(#p28869d5924)" d="M 57.6 72.08589 
L 414.72 72.08589 
" style="fill:none;stroke:#b0b0b0;stroke-linecap:square;stroke-width:0.8;"/>
     </g>
     <g id="line2d_22">
      <g>
       <use style="stroke:#000000;stroke-width:0.8;" x="57.6" xlink:href="#m945c377cde" y="72.08589"/>
      </g>
     </g>
     <g id="text_12">
      <!-- 400 -->
      <g transform="translate(31.5125 75.885109)scale(0.1 -0.1)">
       <use xlink:href="#DejaVuSans-34"/>
       <use x="63.623047" xlink:href="#DejaVuSans-30"/>
       <use x="127.246094" xlink:href="#DejaVuSans-30"/>
      </g>
     </g>
    </g>
    <g id="text_13">
     <!-- Successful download requests per second -->
     <defs>
      <path d="M 53.515625 70.515625 
L 53.515625 60.890625 
Q 47.90625 63.578125 42.921875 64.890625 
Q 37.9375 66.21875 33.296875 66.21875 
Q 25.25 66.21875 20.875 63.09375 
Q 16.5 59.96875 16.5 54.203125 
Q 16.5 49.359375 19.40625 46.890625 
Q 22.3125 44.4375 30.421875 42.921875 
L 36.375 41.703125 
Q 47.40625 39.59375 52.65625 34.296875 
Q 57.90625 29 57.90625 20.125 
Q 57.90625 9.515625 50.796875 4.046875 
Q 43.703125 -1.421875 29.984375 -1.421875 
Q 24.8125 -1.421875 18.96875 -0.25 
Q 13.140625 0.921875 6.890625 3.21875 
L 6.890625 13.375 
Q 12.890625 10.015625 18.65625 8.296875 
Q 24.421875 6.59375 29.984375 6.59375 
Q 38.421875 6.59375 43.015625 9.90625 
Q 47.609375 13.234375 47.609375 19.390625 
Q 47.609375 24.75 44.3125 27.78125 
Q 41.015625 30.8125 33.5 32.328125 
L 27.484375 33.5 
Q 16.453125 35.6875 11.515625 40.375 
Q 6.59375 45.0625 6.59375 53.421875 
Q 6.59375 63.09375 13.40625 68.65625 
Q 20.21875 74.21875 32.171875 74.21875 
Q 37.3125 74.21875 42.625 73.28125 
Q 47.953125 72.359375 53.515625 70.515625 
" id="DejaVuSans-53"/>
      <path d="M 45.40625 46.390625 
L 45.40625 75.984375 
L 54.390625 75.984375 
L 54.390625 0 
L 45.40625 0 
L 45.40625 8.203125 
Q 42.578125 3.328125 38.25 0.953125 
Q 33.9375 -1.421875 27.875 -1.421875 
Q 17.96875 -1.421875 11.734375 6.484375 
Q 5.515625 14.40625 5.515625 27.296875 
Q 5.515625 40.1875 11.734375 48.09375 
Q 17.96875 56 27.875 56 
Q 33.9375 56 38.25 53.625 
Q 42.578125 51.265625 45.40625 46.390625 
M 14.796875 27.296875 
Q 14.796875 17.390625 18.875 11.75 
Q 22.953125 6.109375 30.078125 6.109375 
Q 37.203125 6.109375 41.296875 11.75 
Q 45.40625 17.390625 45.40625 27.296875 
Q 45.40625 37.203125 41.296875 42.84375 
Q 37.203125 48.484375 30.078125 48.484375 
Q 22.953125 48.484375 18.875 42.84375 
Q 14.796875 37.203125 14.796875 27.296875 
" id="DejaVuSans-64"/>
      <path d="M 4.203125 54.6875 
L 13.1875 54.6875 
L 24.421875 12.015625 
L 35.59375 54.6875 
L 46.1875 54.6875 
L 57.421875 12.015625 
L 68.609375 54.6875 
L 77.59375 54.6875 
L 63.28125 0 
L 52.6875 0 
L 40.921875 44.828125 
L 29.109375 0 
L 18.5 0 
z
" id="DejaVuSans-77"/>
      <path d="M 34.28125 27.484375 
Q 23.390625 27.484375 19.1875 25 
Q 14.984375 22.515625 14.984375 16.5 
Q 14.984375 11.71875 18.140625 8.90625 
Q 21.296875 6.109375 26.703125 6.109375 
Q 34.1875 6.109375 38.703125 11.40625 
Q 43.21875 16.703125 43.21875 25.484375 
L 43.21875 27.484375 
z
M 52.203125 31.203125 
L 52.203125 0 
L 43.21875 0 
L 43.21875 8.296875 
Q 40.140625 3.328125 35.546875 0.953125 
Q 30.953125 -1.421875 24.3125 -1.421875 
Q 15.921875 -1.421875 10.953125 3.296875 
Q 6 8.015625 6 15.921875 
Q 6 25.140625 12.171875 29.828125 
Q 18.359375 34.515625 30.609375 34.515625 
L 43.21875 34.515625 
L 43.21875 35.40625 
Q 43.21875 41.609375 39.140625 45 
Q 35.0625 48.390625 27.6875 48.390625 
Q 23 48.390625 18.546875 47.265625 
Q 14.109375 46.140625 10.015625 43.890625 
L 10.015625 52.203125 
Q 14.9375 54.109375 19.578125 55.046875 
Q 24.21875 56 28.609375 56 
Q 40.484375 56 46.34375 49.84375 
Q 52.203125 43.703125 52.203125 31.203125 
" id="DejaVuSans-61"/>
      <path d="M 14.796875 27.296875 
Q 14.796875 17.390625 18.875 11.75 
Q 22.953125 6.109375 30.078125 6.109375 
Q 37.203125 6.109375 41.296875 11.75 
Q 45.40625 17.390625 45.40625 27.296875 
Q 45.40625 37.203125 41.296875 42.84375 
Q 37.203125 48.484375 30.078125 48.484375 
Q 22.953125 48.484375 18.875 42.84375 
Q 14.796875 37.203125 14.796875 27.296875 
M 45.40625 8.203125 
Q 42.578125 3.328125 38.25 0.953125 
Q 33.9375 -1.421875 27.875 -1.421875 
Q 17.96875 -1.421875 11.734375 6.484375 
Q 5.515625 14.40625 5.515625 27.296875 
Q 5.515625 40.1875 11.734375 48.09375 
Q 17.96875 56 27.875 56 
Q 33.9375 56 38.25 53.625 
Q 42.578125 51.265625 45.40625 46.390625 
L 45.40625 54.6875 
L 54.390625 54.6875 
L 54.390625 -20.796875 
L 45.40625 -20.796875 
z
" id="DejaVuSans-71"/>
      <path d="M 18.109375 8.203125 
L 18.109375 -20.796875 
L 9.078125 -20.796875 
L 9.078125 54.6875 
L 18.109375 54.6875 
L 18.109375 46.390625 
Q 20.953125 51.265625 25.265625 53.625 
Q 29.59375 56 35.59375 56 
Q 45.5625 56 51.78125 48.09375 
Q 58.015625 40.1875 58.015625 27.296875 
Q 58.015625 14.40625 51.78125 6.484375 
Q 45.5625 -1.421875 35.59375 -1.421875 
Q 29.59375 -1.421875 25.265625 0.953125 
Q 20.953125 3.328125 18.109375 8.203125 
M 48.6875 27.296875 
Q 48.6875 37.203125 44.609375 42.84375 
Q 40.53125 48.484375 33.40625 48.484375 
Q 26.265625 48.484375 22.1875 42.84375 
Q 18.109375 37.203125 18.109375 27.296875 
Q 18.109375 17.390625 22.1875 11.75 
Q 26.265625 6.109375 33.40625 6.109375 
Q 40.53125 6.109375 44.609375 11.75 
Q 48.6875 17.390625 48.6875 27.296875 
" id="DejaVuSans-70"/>
     </defs>
     <g transform="translate(25.432812 279.366281)rotate(-90)scale(0.1 -0.1)">
      <use xlink:href="#DejaVuSans-53"/>
      <use x="63.476562" xlink:href="#DejaVuSans-75"/>
      <use x="126.855469" xlink:href="#DejaVuSans-63"/>
      <use x="181.835938" xlink:href="#DejaVuSans-63"/>
      <use x="236.816406" xlink:href="#DejaVuSans-65"/>
      <use x="298.339844" xlink:href="#DejaVuSans-73"/>
      <use x="350.439453" xlink:href="#DejaVuSans-73"/>
      <use x="402.539062" xlink:href="#DejaVuSans-66"/>
      <use x="437.744141" xlink:href="#DejaVuSans-75"/>
      <use x="501.123047" xlink:href="#DejaVuSans-6c"/>
      <use x="528.90625" xlink:href="#DejaVuSans-20"/>
      <use x="560.693359" xlink:href="#DejaVuSans-64"/>
      <use x="624.169922" xlink:href="#DejaVuSans-6f"/>
      <use x="685.351562" xlink:href="#DejaVuSans-77"/>
      <use x="767.138672" xlink:href="#DejaVuSans-6e"/>
      <use x="830.517578" xlink:href="#DejaVuSans-6c"/>
      <use x="858.300781" xlink:href="#DejaVuSans-6f"/>
      <use x="919.482422" xlink:href="#DejaVuSans-61"/>
      <use x="980.761719" xlink:href="#DejaVuSans-64"/>
      <use x="1044.238281" xlink:href="#DejaVuSans-20"/>
      <use x="1076.025391" xlink:href="#DejaVuSans-72"/>
      <use x="1117.107422" xlink:href="#DejaVuSans-65"/>
      <use x="1178.630859" xlink:href="#DejaVuSans-71"/>
      <use x="1242.107422" xlink:href="#DejaVuSans-75"/>
      <use x="1305.486328" xlink:href="#DejaVuSans-65"/>
      <use x="1367.009766" xlink:href="#DejaVuSans-73"/>
      <use x="1419.109375" xlink:href="#DejaVuSans-74"/>
      <use x="1458.318359" xlink:href="#DejaVuSans-73"/>
      <use x="1510.417969" xlink:href="#DejaVuSans-20"/>
      <use x="1542.205078" xlink:href="#DejaVuSans-70"/>
      <use x="1605.681641" xlink:href="#DejaVuSans-65"/>
      <use x="1667.205078" xlink:href="#DejaVuSans-72"/>
      <use x="1708.318359" xlink:href="#DejaVuSans-20"/>
      <use x="1740.105469" xlink:href="#DejaVuSans-73"/>
      <use x="1792.205078" xlink:href="#DejaVuSans-65"/>
      <use x="1853.728516" xlink:href="#DejaVuSans-63"/>
      <use x="1908.708984" xlink:href="#DejaVuSans-6f"/>
      <use x="1969.890625" xlink:href="#DejaVuSans-6e"/>
      <use x="2033.269531" xlink:href="#DejaVuSans-64"/>
     </g>
    </g>
   </g>
   <g id="line2d_23">
    <path clip-path="url(#p28869d5924)" d="M 57.6 295.466726 
L 57.95712 295.488 
L 60.09984 292.198369 
L 60.45696 291.602697 
L 60.81408 291.249437 
L 61.1712 290.474616 
L 62.24256 288.941209 
L 63.67104 286.804292 
L 64.02816 286.561881 
L 64.38528 286.028351 
L 64.7424 285.103493 
L 65.09952 284.635465 
L 65.45664 284.502782 
L 65.81376 284.031395 
L 66.17088 283.081904 
L 66.88512 282.106659 
L 67.24224 281.118538 
L 67.59936 281.04072 
L 68.3136 279.576733 
L 68.67072 279.329843 
L 69.02784 279.337681 
L 69.38496 277.672151 
L 69.74208 277.490203 
L 70.0992 276.609012 
L 70.45632 276.535672 
L 70.81344 275.775407 
L 71.17056 276.170655 
L 71.52768 274.199452 
L 71.8848 274.98659 
L 72.24192 273.449824 
L 72.59904 273.574109 
L 72.95616 273.514765 
L 73.31328 272.732666 
L 73.6704 271.194781 
L 74.02752 270.433955 
L 74.38464 270.946211 
L 74.74176 269.340024 
L 75.09888 269.468228 
L 76.17024 267.318435 
L 76.52736 266.94894 
L 77.59872 265.029242 
L 77.95584 264.136294 
L 78.31296 264.199556 
L 78.67008 264.39774 
L 79.0272 262.737809 
L 79.38432 263.593247 
L 79.74144 261.900285 
L 80.09856 262.02401 
L 80.45568 261.497199 
L 80.8128 260.091436 
L 81.16992 260.935118 
L 81.52704 260.9995 
L 81.88416 260.378635 
L 82.24128 259.361962 
L 82.5984 257.179139 
L 82.95552 258.382799 
L 83.31264 257.502727 
L 83.66976 257.579986 
L 84.02688 257.021823 
L 84.74112 254.466705 
L 85.09824 254.547322 
L 85.45536 253.914141 
L 85.81248 251.804656 
L 86.1696 254.225973 
L 86.52672 251.939019 
L 87.24096 250.261732 
L 87.59808 250.635147 
L 87.9552 249.862005 
L 88.31232 247.997732 
L 88.66944 250.115613 
L 89.38368 246.475521 
L 89.7408 248.497111 
L 90.09792 248.015647 
L 90.45504 245.007616 
L 90.81216 246.9749 
L 91.16928 244.266945 
L 91.5264 245.45493 
L 91.88352 242.781685 
L 92.24064 245.451011 
L 92.59776 241.449821 
L 92.95488 243.946716 
L 93.312 243.091277 
L 93.66912 240.99075 
L 94.02624 240.505927 
L 94.38336 238.709955 
L 94.74048 239.217171 
L 95.0976 241.111116 
L 95.45472 239.670083 
L 95.81184 236.513695 
L 96.16896 238.306309 
L 96.52608 237.494538 
L 96.8832 236.302075 
L 97.24032 236.28136 
L 97.59744 234.79498 
L 97.95456 234.359423 
L 98.31168 234.211065 
L 98.6688 235.182951 
L 99.02592 234.203787 
L 99.38304 234.106934 
L 99.74016 231.681699 
L 100.09728 231.975616 
L 100.4544 230.313446 
L 101.16864 228.768842 
L 101.52576 231.837895 
L 101.88288 231.43257 
L 102.59712 228.933995 
L 102.95424 225.261433 
L 103.31136 229.072836 
L 103.66848 228.474365 
L 104.0256 225.347088 
L 104.38272 224.572827 
L 104.73984 223.432429 
L 105.09696 223.689956 
L 105.45408 224.910971 
L 105.8112 221.052541 
L 106.16832 221.813366 
L 106.52544 220.806211 
L 106.88256 222.809885 
L 107.23968 220.296195 
L 107.5968 222.417996 
L 107.95392 219.029832 
L 108.31104 220.392488 
L 108.66816 219.327668 
L 109.02528 219.953571 
L 109.3824 220.067779 
L 109.73952 219.028713 
L 110.09664 216.928746 
L 110.45376 217.1622 
L 110.81088 217.919666 
L 111.168 212.933714 
L 111.52512 214.498472 
L 111.88224 214.733046 
L 112.23936 211.782119 
L 112.59648 214.146331 
L 112.9536 212.691302 
L 113.31072 209.433023 
L 113.66784 210.687068 
L 114.02496 209.164858 
L 114.38208 208.98291 
L 114.7392 208.341331 
L 115.09632 206.102523 
L 115.45344 210.844944 
L 116.16768 208.546793 
L 116.5248 204.172748 
L 116.88192 205.502373 
L 117.23904 203.405765 
L 117.59616 204.115644 
L 117.95328 202.979165 
L 118.3104 207.225006 
L 118.66752 200.584721 
L 119.02464 201.104815 
L 119.38176 204.302072 
L 119.73888 203.553563 
L 120.096 204.387168 
L 120.45312 197.64891 
L 120.81024 202.056546 
L 121.16736 196.656871 
L 121.52448 202.370057 
L 121.8816 201.486627 
L 122.23872 201.146243 
L 122.59584 200.508023 
L 122.95296 199.459439 
L 123.31008 196.242028 
L 123.6672 195.047325 
L 124.02432 195.777359 
L 124.38144 195.707379 
L 124.73856 194.647598 
L 125.09568 191.264473 
L 125.4528 196.51803 
L 125.80992 194.901206 
L 126.16704 190.188457 
L 126.52416 193.36612 
L 126.88128 190.67496 
L 127.2384 190.314982 
L 127.59552 188.451828 
L 127.95264 188.19654 
L 128.30976 191.80808 
L 128.66688 189.441628 
L 129.024 184.171837 
L 129.38112 185.495303 
L 129.73824 189.418115 
L 130.09536 183.329274 
L 130.45248 187.147396 
L 130.8096 182.098742 
L 131.16672 188.614742 
L 131.52384 181.968859 
L 131.88096 181.075351 
L 132.23808 186.157596 
L 132.5952 183.048234 
L 132.95232 183.973652 
L 133.30944 178.158575 
L 133.66656 179.939992 
L 134.02368 180.778635 
L 134.3808 180.231669 
L 134.73792 181.978936 
L 135.09504 181.89272 
L 135.45216 178.940674 
L 135.80928 178.935635 
L 136.1664 180.056439 
L 136.52352 175.12983 
L 136.88064 171.990237 
L 137.23776 173.974316 
L 137.59488 177.552826 
L 137.952 172.800328 
L 138.30912 178.301894 
L 138.66624 168.974368 
L 139.02336 174.937244 
L 139.38048 167.827812 
L 139.7376 170.332545 
L 140.09472 170.338143 
L 140.45184 167.512061 
L 140.80896 173.002991 
L 141.16608 167.138087 
L 141.5232 171.58771 
L 141.88032 171.964484 
L 142.23744 170.064381 
L 142.59456 167.313317 
L 142.95168 167.755593 
L 143.3088 169.165834 
L 143.66592 166.132611 
L 144.02304 162.042406 
L 144.38016 161.777601 
L 144.73728 163.673785 
L 145.0944 161.326368 
L 145.45152 163.450408 
L 145.80864 163.849576 
L 146.16576 167.925785 
L 146.52288 164.456444 
L 146.88 165.486553 
L 147.23712 159.143545 
L 147.59424 159.767209 
L 148.6656 165.969137 
L 149.02272 164.940148 
L 149.73696 163.720812 
L 150.09408 161.334206 
L 150.4512 160.129986 
L 150.80832 165.912593 
L 151.52256 160.173654 
L 151.87968 165.017966 
L 152.2368 157.084446 
L 152.59392 156.223409 
L 152.95104 156.445107 
L 153.30816 160.777723 
L 153.66528 158.23996 
L 154.0224 159.262791 
L 154.73664 163.519269 
L 155.09376 156.912015 
L 155.45088 153.905104 
L 155.808 156.074491 
L 156.16512 154.139678 
L 156.52224 155.506812 
L 157.23648 161.434418 
L 157.5936 156.188139 
L 157.95072 159.982188 
L 158.30784 155.153551 
L 158.66496 159.921725 
L 159.3792 157.794886 
L 159.73632 155.69156 
L 160.09344 160.493883 
L 160.45056 152.488144 
L 160.80768 154.94473 
L 161.1648 155.47658 
L 161.52192 159.852305 
L 161.87904 150.354587 
L 162.59328 158.620652 
L 162.9504 158.127432 
L 163.30752 151.040953 
L 163.66464 148.687378 
L 164.02176 156.345455 
L 164.37888 157.446104 
L 164.736 155.613742 
L 165.09312 152.269806 
L 165.45024 147.418776 
L 165.80736 150.174318 
L 166.16448 151.863921 
L 166.5216 155.587429 
L 166.87872 152.978006 
L 167.23584 146.431215 
L 167.59296 154.564598 
L 167.95008 151.557127 
L 168.66432 155.177065 
L 169.02144 154.102728 
L 169.37856 146.323725 
L 169.73568 145.98782 
L 170.0928 153.063102 
L 170.44992 149.913991 
L 170.80704 148.649308 
L 171.16416 144.166654 
L 171.52128 152.967369 
L 171.8784 148.60844 
L 172.23552 145.927357 
L 172.59264 152.46799 
L 172.94976 148.489753 
L 173.30688 149.064151 
L 173.664 150.371382 
L 174.02112 146.441852 
L 174.37824 148.052517 
L 174.73536 145.028811 
L 175.09248 146.568376 
L 175.4496 150.83941 
L 175.80672 147.083431 
L 176.16384 147.549779 
L 176.52096 147.387985 
L 177.59232 146.414979 
L 177.94944 145.63232 
L 178.30656 148.029563 
L 178.66368 141.304742 
L 179.0208 144.592134 
L 179.37792 146.65963 
L 179.73504 147.393023 
L 180.09216 149.185077 
L 180.44928 139.139834 
L 180.8064 140.28807 
L 181.16352 138.490977 
L 181.52064 145.282419 
L 181.87776 147.961822 
L 182.23488 145.073038 
L 182.592 139.9684 
L 182.94912 138.864392 
L 183.66336 147.568254 
L 184.02048 146.783915 
L 184.3776 140.861348 
L 184.73472 139.073773 
L 185.09184 138.636536 
L 185.44896 140.92349 
L 185.80608 136.572959 
L 186.1632 137.583473 
L 186.52032 139.710313 
L 186.87744 137.946811 
L 187.23456 143.813394 
L 187.59168 139.3313 
L 187.9488 145.407264 
L 188.30592 137.387529 
L 188.66304 136.701722 
L 189.02016 143.252432 
L 189.37728 141.892576 
L 189.7344 137.005717 
L 190.09152 134.839688 
L 190.44864 134.003284 
L 190.80576 139.314505 
L 191.16288 141.406634 
L 191.52 140.473937 
L 191.87712 134.273688 
L 192.23424 132.563931 
L 192.59136 139.583229 
L 192.94848 139.371049 
L 193.3056 142.574464 
L 193.66272 135.320033 
L 194.01984 141.466537 
L 194.37696 134.796021 
L 194.73408 141.223006 
L 195.0912 133.324196 
L 195.44832 132.540418 
L 195.80544 140.39164 
L 196.16256 133.151765 
L 196.51968 139.384485 
L 196.8768 133.210548 
L 197.23392 133.683615 
L 197.59104 139.47294 
L 197.94816 132.81418 
L 198.30528 132.3204 
L 198.6624 129.254146 
L 199.01952 139.01163 
L 199.37664 134.107415 
L 199.73376 134.143805 
L 200.09088 137.093612 
L 200.448 131.773434 
L 200.80512 134.598956 
L 201.16224 134.155561 
L 201.87648 136.266725 
L 202.2336 138.733389 
L 202.59072 135.017718 
L 202.94784 128.890248 
L 203.30496 129.105788 
L 203.66208 135.091057 
L 204.0192 127.996181 
L 204.37632 133.113696 
L 204.73344 135.397291 
L 205.09056 128.269944 
L 205.44768 129.755204 
L 205.8048 133.572766 
L 206.16192 134.827932 
L 206.51904 136.709 
L 206.87616 136.042789 
L 207.23328 135.927461 
L 207.5904 126.317215 
L 207.94752 133.366744 
L 208.30464 134.320715 
L 208.66176 132.49563 
L 209.01888 126.69007 
L 209.376 134.157241 
L 209.73312 127.557825 
L 210.09024 126.361443 
L 210.44736 129.847018 
L 210.80448 129.523989 
L 211.1616 124.993749 
L 211.51872 126.378238 
L 211.87584 132.989971 
L 212.23296 127.016458 
L 212.9472 133.581164 
L 213.30432 131.665945 
L 214.01856 123.976516 
L 214.37568 121.289275 
L 214.7328 129.691942 
L 215.08992 130.450528 
L 215.44704 132.904315 
L 215.80416 121.277518 
L 216.16128 125.719864 
L 216.5184 125.347569 
L 216.87552 121.157712 
L 217.23264 121.681724 
L 217.94688 131.775114 
L 218.304 129.480882 
L 218.66112 122.790771 
L 219.01824 128.436777 
L 219.37536 125.812238 
L 219.73248 126.08768 
L 220.0896 120.873872 
L 220.44672 121.394525 
L 220.80384 127.914444 
L 221.16096 128.966947 
L 221.51808 128.924399 
L 221.8752 125.089482 
L 222.23232 119.96133 
L 222.58944 119.487144 
L 222.94656 122.041143 
L 223.30368 119.802895 
L 223.6608 121.48522 
L 224.01792 127.261109 
L 224.37504 128.639999 
L 224.73216 120.720476 
L 225.08928 119.241373 
L 225.4464 116.714807 
L 225.80352 127.329409 
L 226.16064 118.385935 
L 226.51776 126.597696 
L 226.87488 122.781814 
L 227.232 123.323181 
L 227.58912 120.42264 
L 227.94624 119.278883 
L 228.30336 124.727824 
L 228.66048 120.070499 
L 229.0176 123.053897 
L 229.37472 123.372447 
L 229.73184 120.42096 
L 230.08896 121.986838 
L 230.44608 116.607877 
L 230.8032 125.958356 
L 231.16032 118.86292 
L 231.51744 123.413315 
L 232.23168 115.611918 
L 232.5888 119.941736 
L 233.30304 116.866524 
L 233.66016 114.426733 
L 234.01728 114.86285 
L 234.3744 120.603469 
L 234.73152 123.00519 
L 235.08864 124.379602 
L 235.44576 116.970095 
L 235.80288 113.887605 
L 236.16 123.544318 
L 237.23136 112.238871 
L 237.58848 112.24111 
L 237.9456 121.601667 
L 238.30272 114.883564 
L 238.65984 111.964548 
L 239.01696 111.74677 
L 239.7312 119.718918 
L 240.08832 118.126168 
L 240.44544 114.40322 
L 240.80256 120.185827 
L 241.15968 114.877406 
L 241.5168 117.451559 
L 241.87392 116.35035 
L 242.23104 117.856325 
L 242.58816 116.347551 
L 242.94528 116.517183 
L 243.3024 112.010455 
L 243.65952 118.160878 
L 244.01664 108.858546 
L 244.37376 115.333677 
L 244.73088 109.520839 
L 245.088 117.735958 
L 245.44512 111.42822 
L 245.80224 117.756113 
L 246.15936 109.468773 
L 246.51648 116.533418 
L 246.8736 113.954786 
L 247.23072 119.868956 
L 247.58784 109.19781 
L 247.94496 110.405389 
L 248.30208 112.611166 
L 249.01632 115.092385 
L 249.37344 118.627227 
L 249.73056 115.67742 
L 250.08768 117.177796 
L 250.4448 110.96635 
L 250.80192 112.185686 
L 251.15904 111.348722 
L 251.51616 107.393999 
L 251.87328 106.017348 
L 252.2304 116.041877 
L 252.58752 115.582807 
L 252.94464 116.974574 
L 253.30176 115.549216 
L 253.65888 116.877161 
L 254.016 104.057341 
L 254.73024 113.048402 
L 255.08736 105.15855 
L 255.44448 114.094747 
L 255.8016 103.521573 
L 256.15872 106.241845 
L 256.51584 112.414101 
L 256.87296 104.929575 
L 257.23008 107.88834 
L 257.5872 107.99247 
L 257.94432 110.171935 
L 258.30144 102.135404 
L 258.65856 106.501051 
L 259.01568 113.320485 
L 259.3728 102.848083 
L 259.72992 103.985682 
L 260.08704 110.274946 
L 260.44416 104.52257 
L 260.80128 111.735573 
L 261.1584 110.318053 
L 261.51552 105.004594 
L 261.87264 102.36382 
L 262.22976 103.017155 
L 262.58688 105.752543 
L 262.944 104.766101 
L 263.30112 101.529095 
L 263.65824 100.401574 
L 264.01536 103.295397 
L 264.37248 109.766609 
L 265.08672 101.753032 
L 265.44384 109.711745 
L 265.80096 100.456438 
L 266.15808 109.805238 
L 266.5152 111.067122 
L 266.87232 109.997264 
L 267.22944 107.005469 
L 267.58656 111.352641 
L 267.94368 100.968134 
L 268.3008 109.902091 
L 268.65792 107.928648 
L 269.01504 100.987728 
L 269.37216 99.311562 
L 269.72928 101.076743 
L 270.0864 103.581476 
L 270.44352 111.221638 
L 270.80064 106.250802 
L 271.15776 103.543407 
L 271.51488 103.828366 
L 271.872 109.120552 
L 272.22912 107.080488 
L 272.58624 103.585395 
L 272.94336 102.181871 
L 273.30048 106.691957 
L 273.6576 100.181556 
L 274.01472 97.471921 
L 274.37184 104.174348 
L 274.72896 98.449405 
L 275.08608 96.042645 
L 275.4432 104.429636 
L 275.80032 100.113815 
L 276.51456 105.955205 
L 276.87168 107.165024 
L 277.2288 101.825812 
L 277.58592 107.983513 
L 277.94304 106.983075 
L 278.30016 100.603677 
L 278.65728 97.577731 
L 279.0144 104.527609 
L 279.37152 105.376329 
L 279.72864 97.989215 
L 280.08576 103.679448 
L 280.44288 99.485113 
L 280.8 102.277044 
L 281.15712 98.942626 
L 281.51424 103.981763 
L 281.87136 94.164935 
L 282.22848 98.412456 
L 282.5856 105.084651 
L 282.94272 104.276799 
L 283.29984 96.715015 
L 283.65696 105.923294 
L 284.01408 102.076621 
L 284.3712 99.710169 
L 284.72832 93.855902 
L 285.08544 97.798869 
L 285.44256 92.822434 
L 285.79968 93.923083 
L 286.1568 104.891506 
L 286.51392 98.807704 
L 286.87104 95.513034 
L 287.22816 95.542706 
L 287.58528 99.894357 
L 287.9424 97.944988 
L 288.29952 97.445609 
L 288.65664 102.598953 
L 289.01376 91.004628 
L 289.37088 94.389432 
L 289.728 99.695613 
L 290.08512 100.436844 
L 290.44224 101.843727 
L 290.79936 89.838477 
L 291.15648 100.41557 
L 291.5136 92.110315 
L 291.87072 99.07139 
L 292.22784 100.266092 
L 292.94208 98.00769 
L 293.2992 92.809558 
L 293.65632 94.468369 
L 294.01344 99.004768 
L 294.37056 90.630653 
L 294.72768 90.43135 
L 295.0848 93.214324 
L 295.44192 101.765349 
L 295.79904 97.145533 
L 296.15616 101.08962 
L 296.51328 90.106641 
L 296.8704 97.058198 
L 297.22752 91.24256 
L 297.58464 91.921649 
L 297.94176 87.470906 
L 298.29888 92.552031 
L 298.656 95.326607 
L 299.01312 97.080032 
L 299.37024 91.728503 
L 299.72736 98.350313 
L 300.08448 92.612494 
L 300.79872 86.683768 
L 301.15584 96.861694 
L 301.51296 97.933791 
L 301.87008 95.594211 
L 302.2272 94.606091 
L 302.58432 92.953997 
L 302.94144 98.582648 
L 303.29856 86.370816 
L 303.65568 86.483344 
L 304.0128 91.542636 
L 304.36992 87.196023 
L 304.72704 94.199645 
L 305.08416 87.305752 
L 305.44128 86.724636 
L 305.7984 85.86136 
L 306.15552 92.422147 
L 306.51264 92.881218 
L 306.86976 87.318069 
L 307.22688 87.344941 
L 307.584 98.171164 
L 307.94112 86.062343 
L 308.29824 90.833316 
L 308.65536 84.881637 
L 309.01248 95.107149 
L 309.3696 95.274542 
L 309.72672 94.637442 
L 310.08384 88.391845 
L 310.44096 90.973836 
L 310.79808 95.216318 
L 311.1552 88.453428 
L 311.51232 90.60714 
L 311.86944 87.618144 
L 312.22656 89.878786 
L 312.58368 89.222651 
L 312.9408 96.896404 
L 313.29792 93.470731 
L 313.65504 83.786586 
L 314.01216 83.56153 
L 314.36928 84.822853 
L 314.7264 91.254877 
L 315.08352 83.48819 
L 315.44064 87.414921 
L 315.79776 84.317876 
L 316.15488 95.553903 
L 316.512 93.136506 
L 316.86912 92.405352 
L 317.22624 81.582489 
L 317.58336 85.930221 
L 317.94048 88.667848 
L 318.2976 85.168276 
L 318.65472 92.141667 
L 319.01184 86.341704 
L 319.36896 84.19807 
L 319.72608 94.832267 
L 320.44032 89.320623 
L 320.79744 94.2881 
L 321.15456 84.313397 
L 321.51168 85.382135 
L 321.8688 84.76575 
L 322.22592 86.824288 
L 322.58304 84.474632 
L 322.94016 84.512141 
L 323.29728 80.83454 
L 323.6544 80.123541 
L 324.01152 92.123752 
L 324.36864 90.96152 
L 324.72576 92.956236 
L 325.08288 90.954242 
L 325.44 91.943482 
L 325.79712 87.264324 
L 326.15424 90.271795 
L 326.86848 81.280174 
L 327.2256 90.875864 
L 327.58272 81.127897 
L 327.93984 87.437315 
L 328.29696 81.957583 
L 328.65408 78.927718 
L 329.0112 89.761779 
L 329.36832 81.18668 
L 329.72544 88.574914 
L 330.08256 82.574528 
L 330.43968 84.678414 
L 330.7968 87.846559 
L 331.15392 82.576768 
L 331.51104 91.065091 
L 331.86816 80.579252 
L 332.22528 79.201481 
L 332.5824 76.849585 
L 332.93952 76.565185 
L 333.29664 83.91535 
L 333.65376 84.62411 
L 334.01088 90.361929 
L 334.368 84.048592 
L 334.72512 83.334794 
L 335.08224 89.468981 
L 335.43936 78.24751 
L 335.79648 75.483571 
L 336.1536 82.150728 
L 336.51072 83.686934 
L 336.86784 77.659676 
L 337.22496 89.281434 
L 337.58208 86.065702 
L 337.9392 84.900112 
L 338.29632 77.507959 
L 338.65344 77.085279 
L 339.01056 74.807842 
L 339.36768 74.586144 
L 339.7248 86.343384 
L 340.08192 85.394452 
L 340.43904 78.433938 
L 340.79616 74.746819 
L 341.15328 82.683698 
L 341.5104 76.290303 
L 341.86752 77.165336 
L 342.22464 73.439588 
L 342.58176 82.598602 
L 342.93888 81.802506 
L 343.296 87.620383 
L 343.65312 75.706388 
L 344.01024 76.601015 
L 344.36736 76.632926 
L 344.72448 82.507907 
L 345.0816 73.633293 
L 345.43872 77.437419 
L 345.79584 85.79194 
L 346.15296 76.969391 
L 346.51008 80.891644 
L 346.8672 80.911798 
L 347.58144 73.54036 
L 347.93856 74.156746 
L 348.29568 85.097176 
L 348.6528 75.802681 
L 349.00992 82.678659 
L 349.36704 70.829045 
L 349.72416 70.560881 
L 350.08128 85.673253 
L 350.4384 71.101129 
L 350.79552 75.37944 
L 351.15264 84.130329 
L 351.50976 83.567688 
L 351.86688 79.610165 
L 352.224 73.07849 
L 352.58112 70.002159 
L 353.29536 76.602135 
L 353.65248 82.936186 
L 354.0096 70.266404 
L 354.36672 77.288501 
L 354.72384 81.833298 
L 355.08096 80.201359 
L 355.43808 80.943149 
L 355.7952 70.31623 
L 356.15232 73.830358 
L 356.50944 71.410161 
L 356.86656 70.041908 
L 357.22368 72.44307 
L 357.5808 83.094062 
L 357.93792 73.110401 
L 358.29504 78.428899 
L 358.65216 79.286577 
L 359.00928 73.659606 
L 359.3664 82.446884 
L 359.72352 74.251919 
L 360.08064 74.38852 
L 360.79488 70.135401 
L 361.152 72.262241 
L 361.50912 75.708627 
L 362.22336 69.376256 
L 362.58048 78.730654 
L 362.9376 72.432992 
L 363.29472 72.490096 
L 363.65184 70.099012 
L 364.00896 68.881915 
L 364.36608 75.034018 
L 364.7232 76.658679 
L 365.08032 71.440953 
L 365.43744 76.843987 
L 365.79456 73.851072 
L 366.15168 65.198715 
L 366.5088 79.727732 
L 366.86592 77.072402 
L 367.58016 77.179892 
L 367.93728 76.756092 
L 368.2944 65.878363 
L 368.65152 73.556595 
L 369.00864 65.246862 
L 369.36576 77.57458 
L 369.72288 75.722064 
L 370.08 70.277601 
L 370.43712 70.712038 
L 370.79424 71.667129 
L 371.15136 66.214269 
L 371.50848 73.548197 
L 371.8656 70.256887 
L 372.22272 70.904624 
L 372.57984 67.870841 
L 372.93696 74.371165 
L 373.29408 75.038497 
L 373.6512 63.403302 
L 374.00832 77.110471 
L 374.72256 64.350555 
L 375.07968 71.227093 
L 375.4368 67.251656 
L 375.79392 74.333096 
L 376.15104 76.460495 
L 376.50816 69.485985 
L 376.86528 65.634272 
L 377.2224 64.483797 
L 377.57952 66.841292 
L 377.93664 74.614696 
L 378.29376 66.311121 
L 378.65088 72.400522 
L 379.008 67.177197 
L 379.36512 67.948099 
L 379.72224 62.521551 
L 380.07936 71.893865 
L 380.43648 72.355174 
L 380.7936 67.154803 
L 381.15072 63.645714 
L 381.50784 74.13939 
L 381.86496 67.614433 
L 382.22208 73.584027 
L 382.5792 60.355523 
L 382.93632 70.106849 
L 383.29344 72.271758 
L 383.65056 64.080711 
L 384.00768 76.127389 
L 384.3648 69.833087 
L 384.72192 71.009314 
L 385.07904 67.818216 
L 385.43616 63.118343 
L 386.1504 69.629304 
L 386.50752 59.520799 
L 386.86464 74.99147 
L 387.22176 73.636652 
L 387.57888 65.160086 
L 387.936 63.102667 
L 388.29312 60.04705 
L 388.65024 70.06766 
L 389.36448 63.556139 
L 389.7216 73.241964 
L 390.07872 60.61305 
L 390.43584 63.511352 
L 390.79296 59.981549 
L 391.15008 58.765572 
L 391.5072 70.021193 
L 391.86432 61.886131 
L 392.22144 71.751105 
L 392.57856 62.841781 
L 392.93568 65.333637 
L 393.2928 72.472181 
L 393.64992 68.484427 
L 394.00704 68.40605 
L 394.36416 68.930621 
L 394.72128 65.036921 
L 395.0784 72.576312 
L 395.43552 60.825231 
L 395.79264 62.084875 
L 396.14976 70.270323 
L 396.50688 57.162185 
L 396.864 59.882457 
L 397.22112 60.708224 
L 397.57824 60.54419 
L 397.93536 70.191385 
L 398.29248 68.149082 
L 398.6496 58.775089 
L 399.00672 64.430052 
L 399.36384 65.530142 
L 399.72096 59.459776 
L 400.07808 69.249172 
L 400.4352 63.967623 
L 400.79232 63.738088 
L 401.14944 61.991381 
L 401.50656 67.007565 
L 401.86368 56.04698 
L 402.2208 62.246669 
L 402.57792 65.648268 
L 402.93504 63.577973 
L 403.29216 62.436455 
L 403.64928 60.65112 
L 404.0064 54.500697 
L 404.36352 66.029521 
L 404.72064 70.8464 
L 405.07776 65.742882 
L 405.43488 68.886954 
L 405.792 54.439114 
L 406.50624 60.183652 
L 406.86336 65.061554 
L 407.22048 66.429808 
L 407.5776 66.84745 
L 407.93472 64.479878 
L 408.29184 58.319938 
L 408.64896 62.153735 
L 409.00608 64.136135 
L 409.3632 68.230819 
L 409.72032 53.568 
L 410.07744 64.93391 
L 410.43456 58.999026 
L 410.79168 60.712142 
L 411.1488 59.698829 
L 411.50592 59.844947 
L 411.86304 58.199012 
L 412.22016 59.420587 
L 412.57728 65.185279 
L 412.9344 67.265092 
L 413.29152 58.407833 
L 413.64864 63.051162 
L 414.00576 65.901877 
L 414.36288 54.741429 
L 414.72 63.121142 
L 414.72 63.121142 
" style="fill:none;stroke:#000080;stroke-linecap:square;stroke-width:0.5;"/>
   </g>
   <g id="patch_3">
    <path d="M 57.6 307.584 
L 57.6 41.472 
" style="fill:none;stroke:#000000;stroke-linecap:square;stroke-linejoin:miter;stroke-width:0.8;"/>
   </g>
   <g id="patch_4">
    <path d="M 414.72 307.584 
L 414.72 41.472 
" style="fill:none;stroke:#000000;stroke-linecap:square;stroke-linejoin:miter;stroke-width:0.8;"/>
   </g>
   <g id="patch_5">
    <path d="M 57.6 307.584 
L 414.72 307.584 
" style="fill:none;stroke:#000000;stroke-linecap:square;stroke-linejoin:miter;stroke-width:0.8;"/>
   </g>
   <g id="patch_6">
    <path d="M 57.6 41.472 
L 414.72 41.472 
" style="fill:none;stroke:#000000;stroke-linecap:square;stroke-linejoin:miter;stroke-width:0.8;"/>
   </g>
   <g id="text_14">
    <!-- Test -->
    <defs>
     <path d="M -0.296875 72.90625 
L 61.375 72.90625 
L 61.375 64.59375 
L 35.5 64.59375 
L 35.5 0 
L 25.59375 0 
L 25.59375 64.59375 
L -0.296875 64.59375 
z
" id="DejaVuSans-54"/>
    </defs>
    <g transform="translate(223.341563 35.472)scale(0.12 -0.12)">
     <use xlink:href="#DejaVuSans-54"/>
     <use x="60.818359" xlink:href="#DejaVuSans-65"/>
     <use x="122.341797" xlink:href="#DejaVuSans-73"/>
     <use x="174.441406" xlink:href="#DejaVuSans-74"/>
    </g>
   </g>
   <g id="legend_1">
    <g id="patch_7">
     <path d="M 64.6 64.150125 
L 306.276563 64.150125 
Q 308.276563 64.150125 308.276563 62.150125 
L 308.276563 48.472 
Q 308.276563 46.472 306.276563 46.472 
L 64.6 46.472 
Q 62.6 46.472 62.6 48.472 
L 62.6 62.150125 
Q 62.6 64.150125 64.6 64.150125 
z
" style="fill:#ffffff;opacity:0.8;stroke:#cccccc;stroke-linejoin:miter;"/>
    </g>
    <g id="line2d_24">
     <path d="M 66.6 54.570438 
L 86.6 54.570438 
" style="fill:none;stroke:#000080;stroke-linecap:square;stroke-width:0.5;"/>
    </g>
    <g id="line2d_25"/>
    <g id="text_15">
     <!-- Successful download requests per second -->
     <g transform="translate(94.6 58.070438)scale(0.1 -0.1)">
      <use xlink:href="#DejaVuSans-53"/>
      <use x="63.476562" xlink:href="#DejaVuSans-75"/>
      <use x="126.855469" xlink:href="#DejaVuSans-63"/>
      <use x="181.835938" xlink:href="#DejaVuSans-63"/>
      <use x="236.816406" xlink:href="#DejaVuSans-65"/>
      <use x="298.339844" xlink:href="#DejaVuSans-73"/>
      <use x="350.439453" xlink:href="#DejaVuSans-73"/>
      <use x="402.539062" xlink:href="#DejaVuSans-66"/>
      <use x="437.744141" xlink:href="#DejaVuSans-75"/>
      <use x="501.123047" xlink:href="#DejaVuSans-6c"/>
      <use x="528.90625" xlink:href="#DejaVuSans-20"/>
      <use x="560.693359" xlink:href="#DejaVuSans-64"/>
      <use x="624.169922" xlink:href="#DejaVuSans-6f"/>
      <use x="685.351562" xlink:href="#DejaVuSans-77"/>
      <use x="767.138672" xlink:href="#DejaVuSans-6e"/>
      <use x="830.517578" xlink:href="#DejaVuSans-6c"/>
      <use x="858.300781" xlink:href="#DejaVuSans-6f"/>
      <use x="919.482422" xlink:href="#DejaVuSans-61"/>
      <use x="980.761719" xlink:href="#DejaVuSans-64"/>
      <use x="1044.238281" xlink:href="#DejaVuSans-20"/>
      <use x="1076.025391" xlink:href="#DejaVuSans-72"/>
      <use x="1117.107422" xlink:href="#DejaVuSans-65"/>
      <use x="1178.630859" xlink:href="#DejaVuSans-71"/>
      <use x="1242.107422" xlink:href="#DejaVuSans-75"/>
      <use x="1305.486328" xlink:href="#DejaVuSans-65"/>
      <use x="1367.009766" xlink:href="#DejaVuSans-73"/>
      <use x="1419.109375" xlink:href="#DejaVuSans-74"/>
      <use x="1458.318359" xlink:href="#DejaVuSans-73"/>
      <use x="1510.417969" xlink:href="#DejaVuSans-20"/>
      <use x="1542.205078" xlink:href="#DejaVuSans-70"/>
      <use x="1605.681641" xlink:href="#DejaVuSans-65"/>
      <use x="1667.205078" xlink:href="#DejaVuSans-72"/>
      <use x="1708.318359" xlink:href="#DejaVuSans-20"/>
      <use x="1740.105469" xlink:href="#DejaVuSans-73"/>
      <use x="1792.205078" xlink:href="#DejaVuSans-65"/>
      <use x="1853.728516" xlink:href="#DejaVuSans-63"/>
      <use x="1908.708984" xlink:href="#DejaVuSans-6f"/>
      <use x="1969.890625" xlink:href="#DejaVuSans-6e"/>
      <use x="2033.269531" xlink:href="#DejaVuSans-64"/>
     </g>
    </g>
   </g>
  </g>
 </g>
 <defs>
  <clipPath id="p28869d5924">
   <rect height="266.112" width="357.12" x="57.6" y="41.472"/>
  </clipPath>
 </defs>
</svg>
