<?xml version="1.0" encoding="utf-8" standalone="no"?>
<!DOCTYPE svg PUBLIC "-//W3C//DTD SVG 1.1//EN"
  "http://www.w3.org/Graphics/SVG/1.1/DTD/svg11.dtd">
<!-- Created with matplotlib (http://matplotlib.org/) -->
<svg height="345pt" version="1.1" viewBox="0 0 460 345" width="460pt" xmlns="http://www.w3.org/2000/svg" xmlns:xlink="http://www.w3.org/1999/xlink">
 <defs>
  <style type="text/css">
*{stroke-linecap:butt;stroke-linejoin:round;}
  </style>
 </defs>
 <g id="figure_1">
  <g id="patch_1">
   <path d="M 0 345.6 
L 460.8 345.6 
L 460.8 0 
L 0 0 
z
" style="fill:#ffffff;"/>
  </g>
  <g id="axes_1">
   <g id="patch_2">
    <path d="M 57.6 307.584 
L 414.72 307.584 
L 414.72 41.472 
L 57.6 41.472 
z
" style="fill:#ffffff;"/>
   </g>
   <g id="matplotlib.axis_1">
    <g id="xtick_1">
     <g id="line2d_1">
      <path clip-path="url(#p1075ca067a)" d="M 57.6 307.584 
L 57.6 41.472 
" style="fill:none;stroke:#b0b0b0;stroke-linecap:square;stroke-width:0.8;"/>
     </g>
     <g id="line2d_2">
      <defs>
       <path d="M 0 0 
L 0 3.5 
" id="m10f802119d" style="stroke:#000000;stroke-width:0.8;"/>
      </defs>
      <g>
       <use style="stroke:#000000;stroke-width:0.8;" x="57.6" xlink:href="#m10f802119d" y="307.584"/>
      </g>
     </g>
     <g id="text_1">
      <!-- 0 -->
      <defs>
       <path d="M 31.78125 66.40625 
Q 24.171875 66.40625 20.328125 58.90625 
Q 16.5 51.421875 16.5 36.375 
Q 16.5 21.390625 20.328125 13.890625 
Q 24.171875 6.390625 31.78125 6.390625 
Q 39.453125 6.390625 43.28125 13.890625 
Q 47.125 21.390625 47.125 36.375 
Q 47.125 51.421875 43.28125 58.90625 
Q 39.453125 66.40625 31.78125 66.40625 
M 31.78125 74.21875 
Q 44.046875 74.21875 50.515625 64.515625 
Q 56.984375 54.828125 56.984375 36.375 
Q 56.984375 17.96875 50.515625 8.265625 
Q 44.046875 -1.421875 31.78125 -1.421875 
Q 19.53125 -1.421875 13.0625 8.265625 
Q 6.59375 17.96875 6.59375 36.375 
Q 6.59375 54.828125 13.0625 64.515625 
Q 19.53125 74.21875 31.78125 74.21875 
" id="DejaVuSans-30"/>
      </defs>
      <g transform="translate(54.41875 322.182437)scale(0.1 -0.1)">
       <use xlink:href="#DejaVuSans-30"/>
      </g>
     </g>
    </g>
    <g id="xtick_2">
     <g id="line2d_3">
      <path clip-path="url(#p1075ca067a)" d="M 129.024 307.584 
L 129.024 41.472 
" style="fill:none;stroke:#b0b0b0;stroke-linecap:square;stroke-width:0.8;"/>
     </g>
     <g id="line2d_4">
      <g>
       <use style="stroke:#000000;stroke-width:0.8;" x="129.024" xlink:href="#m10f802119d" y="307.584"/>
      </g>
     </g>
     <g id="text_2">
      <!-- 200 -->
      <defs>
       <path d="M 19.1875 8.296875 
L 53.609375 8.296875 
L 53.609375 0 
L 7.328125 0 
L 7.328125 8.296875 
Q 12.9375 14.109375 22.625 23.890625 
Q 32.328125 33.6875 34.8125 36.53125 
Q 39.546875 41.84375 41.421875 45.53125 
Q 43.3125 49.21875 43.3125 52.78125 
Q 43.3125 58.59375 39.234375 62.25 
Q 35.15625 65.921875 28.609375 65.921875 
Q 23.96875 65.921875 18.8125 64.3125 
Q 13.671875 62.703125 7.8125 59.421875 
L 7.8125 69.390625 
Q 13.765625 71.78125 18.9375 73 
Q 24.125 74.21875 28.421875 74.21875 
Q 39.75 74.21875 46.484375 68.546875 
Q 53.21875 62.890625 53.21875 53.421875 
Q 53.21875 48.921875 51.53125 44.890625 
Q 49.859375 40.875 45.40625 35.40625 
Q 44.1875 33.984375 37.640625 27.21875 
Q 31.109375 20.453125 19.1875 8.296875 
" id="DejaVuSans-32"/>
      </defs>
      <g transform="translate(119.48025 322.182437)scale(0.1 -0.1)">
       <use xlink:href="#DejaVuSans-32"/>
       <use x="63.623047" xlink:href="#DejaVuSans-30"/>
       <use x="127.246094" xlink:href="#DejaVuSans-30"/>
      </g>
     </g>
    </g>
    <g id="xtick_3">
     <g id="line2d_5">
      <path clip-path="url(#p1075ca067a)" d="M 200.448 307.584 
L 200.448 41.472 
" style="fill:none;stroke:#b0b0b0;stroke-linecap:square;stroke-width:0.8;"/>
     </g>
     <g id="line2d_6">
      <g>
       <use style="stroke:#000000;stroke-width:0.8;" x="200.448" xlink:href="#m10f802119d" y="307.584"/>
      </g>
     </g>
     <g id="text_3">
      <!-- 400 -->
      <defs>
       <path d="M 37.796875 64.3125 
L 12.890625 25.390625 
L 37.796875 25.390625 
z
M 35.203125 72.90625 
L 47.609375 72.90625 
L 47.609375 25.390625 
L 58.015625 25.390625 
L 58.015625 17.1875 
L 47.609375 17.1875 
L 47.609375 0 
L 37.796875 0 
L 37.796875 17.1875 
L 4.890625 17.1875 
L 4.890625 26.703125 
z
" id="DejaVuSans-34"/>
      </defs>
      <g transform="translate(190.90425 322.182437)scale(0.1 -0.1)">
       <use xlink:href="#DejaVuSans-34"/>
       <use x="63.623047" xlink:href="#DejaVuSans-30"/>
       <use x="127.246094" xlink:href="#DejaVuSans-30"/>
      </g>
     </g>
    </g>
    <g id="xtick_4">
     <g id="line2d_7">
      <path clip-path="url(#p1075ca067a)" d="M 271.872 307.584 
L 271.872 41.472 
" style="fill:none;stroke:#b0b0b0;stroke-linecap:square;stroke-width:0.8;"/>
     </g>
     <g id="line2d_8">
      <g>
       <use style="stroke:#000000;stroke-width:0.8;" x="271.872" xlink:href="#m10f802119d" y="307.584"/>
      </g>
     </g>
     <g id="text_4">
      <!-- 600 -->
      <defs>
       <path d="M 33.015625 40.375 
Q 26.375 40.375 22.484375 35.828125 
Q 18.609375 31.296875 18.609375 23.390625 
Q 18.609375 15.53125 22.484375 10.953125 
Q 26.375 6.390625 33.015625 6.390625 
Q 39.65625 6.390625 43.53125 10.953125 
Q 47.40625 15.53125 47.40625 23.390625 
Q 47.40625 31.296875 43.53125 35.828125 
Q 39.65625 40.375 33.015625 40.375 
M 52.59375 71.296875 
L 52.59375 62.3125 
Q 48.875 64.0625 45.09375 64.984375 
Q 41.3125 65.921875 37.59375 65.921875 
Q 27.828125 65.921875 22.671875 59.328125 
Q 17.53125 52.734375 16.796875 39.40625 
Q 19.671875 43.65625 24.015625 45.921875 
Q 28.375 48.1875 33.59375 48.1875 
Q 44.578125 48.1875 50.953125 41.515625 
Q 57.328125 34.859375 57.328125 23.390625 
Q 57.328125 12.15625 50.6875 5.359375 
Q 44.046875 -1.421875 33.015625 -1.421875 
Q 20.359375 -1.421875 13.671875 8.265625 
Q 6.984375 17.96875 6.984375 36.375 
Q 6.984375 53.65625 15.1875 63.9375 
Q 23.390625 74.21875 37.203125 74.21875 
Q 40.921875 74.21875 44.703125 73.484375 
Q 48.484375 72.75 52.59375 71.296875 
" id="DejaVuSans-36"/>
      </defs>
      <g transform="translate(262.32825 322.182437)scale(0.1 -0.1)">
       <use xlink:href="#DejaVuSans-36"/>
       <use x="63.623047" xlink:href="#DejaVuSans-30"/>
       <use x="127.246094" xlink:href="#DejaVuSans-30"/>
      </g>
     </g>
    </g>
    <g id="xtick_5">
     <g id="line2d_9">
      <path clip-path="url(#p1075ca067a)" d="M 343.296 307.584 
L 343.296 41.472 
" style="fill:none;stroke:#b0b0b0;stroke-linecap:square;stroke-width:0.8;"/>
     </g>
     <g id="line2d_10">
      <g>
       <use style="stroke:#000000;stroke-width:0.8;" x="343.296" xlink:href="#m10f802119d" y="307.584"/>
      </g>
     </g>
     <g id="text_5">
      <!-- 800 -->
      <defs>
       <path d="M 31.78125 34.625 
Q 24.75 34.625 20.71875 30.859375 
Q 16.703125 27.09375 16.703125 20.515625 
Q 16.703125 13.921875 20.71875 10.15625 
Q 24.75 6.390625 31.78125 6.390625 
Q 38.8125 6.390625 42.859375 10.171875 
Q 46.921875 13.96875 46.921875 20.515625 
Q 46.921875 27.09375 42.890625 30.859375 
Q 38.875 34.625 31.78125 34.625 
M 21.921875 38.8125 
Q 15.578125 40.375 12.03125 44.71875 
Q 8.5 49.078125 8.5 55.328125 
Q 8.5 64.0625 14.71875 69.140625 
Q 20.953125 74.21875 31.78125 74.21875 
Q 42.671875 74.21875 48.875 69.140625 
Q 55.078125 64.0625 55.078125 55.328125 
Q 55.078125 49.078125 51.53125 44.71875 
Q 48 40.375 41.703125 38.8125 
Q 48.828125 37.15625 52.796875 32.3125 
Q 56.78125 27.484375 56.78125 20.515625 
Q 56.78125 9.90625 50.3125 4.234375 
Q 43.84375 -1.421875 31.78125 -1.421875 
Q 19.734375 -1.421875 13.25 4.234375 
Q 6.78125 9.90625 6.78125 20.515625 
Q 6.78125 27.484375 10.78125 32.3125 
Q 14.796875 37.15625 21.921875 38.8125 
M 18.3125 54.390625 
Q 18.3125 48.734375 21.84375 45.5625 
Q 25.390625 42.390625 31.78125 42.390625 
Q 38.140625 42.390625 41.71875 45.5625 
Q 45.3125 48.734375 45.3125 54.390625 
Q 45.3125 60.0625 41.71875 63.234375 
Q 38.140625 66.40625 31.78125 66.40625 
Q 25.390625 66.40625 21.84375 63.234375 
Q 18.3125 60.0625 18.3125 54.390625 
" id="DejaVuSans-38"/>
      </defs>
      <g transform="translate(333.75225 322.182437)scale(0.1 -0.1)">
       <use xlink:href="#DejaVuSans-38"/>
       <use x="63.623047" xlink:href="#DejaVuSans-30"/>
       <use x="127.246094" xlink:href="#DejaVuSans-30"/>
      </g>
     </g>
    </g>
    <g id="xtick_6">
     <g id="line2d_11">
      <path clip-path="url(#p1075ca067a)" d="M 414.72 307.584 
L 414.72 41.472 
" style="fill:none;stroke:#b0b0b0;stroke-linecap:square;stroke-width:0.8;"/>
     </g>
     <g id="line2d_12">
      <g>
       <use style="stroke:#000000;stroke-width:0.8;" x="414.72" xlink:href="#m10f802119d" y="307.584"/>
      </g>
     </g>
     <g id="text_6">
      <!-- 1000 -->
      <defs>
       <path d="M 12.40625 8.296875 
L 28.515625 8.296875 
L 28.515625 63.921875 
L 10.984375 60.40625 
L 10.984375 69.390625 
L 28.421875 72.90625 
L 38.28125 72.90625 
L 38.28125 8.296875 
L 54.390625 8.296875 
L 54.390625 0 
L 12.40625 0 
z
" id="DejaVuSans-31"/>
      </defs>
      <g transform="translate(401.995 322.182437)scale(0.1 -0.1)">
       <use xlink:href="#DejaVuSans-31"/>
       <use x="63.623047" xlink:href="#DejaVuSans-30"/>
       <use x="127.246094" xlink:href="#DejaVuSans-30"/>
       <use x="190.869141" xlink:href="#DejaVuSans-30"/>
      </g>
     </g>
    </g>
    <g id="text_7">
     <!-- Number of clients -->
     <defs>
      <path d="M 9.8125 72.90625 
L 23.09375 72.90625 
L 55.421875 11.921875 
L 55.421875 72.90625 
L 64.984375 72.90625 
L 64.984375 0 
L 51.703125 0 
L 19.390625 60.984375 
L 19.390625 0 
L 9.8125 0 
z
" id="DejaVuSans-4e"/>
      <path d="M 8.5 21.578125 
L 8.5 54.6875 
L 17.484375 54.6875 
L 17.484375 21.921875 
Q 17.484375 14.15625 20.5 10.265625 
Q 23.53125 6.390625 29.59375 6.390625 
Q 36.859375 6.390625 41.078125 11.03125 
Q 45.3125 15.671875 45.3125 23.6875 
L 45.3125 54.6875 
L 54.296875 54.6875 
L 54.296875 0 
L 45.3125 0 
L 45.3125 8.40625 
Q 42.046875 3.421875 37.71875 1 
Q 33.40625 -1.421875 27.6875 -1.421875 
Q 18.265625 -1.421875 13.375 4.4375 
Q 8.5 10.296875 8.5 21.578125 
M 31.109375 56 
z
" id="DejaVuSans-75"/>
      <path d="M 52 44.1875 
Q 55.375 50.25 60.0625 53.125 
Q 64.75 56 71.09375 56 
Q 79.640625 56 84.28125 50.015625 
Q 88.921875 44.046875 88.921875 33.015625 
L 88.921875 0 
L 79.890625 0 
L 79.890625 32.71875 
Q 79.890625 40.578125 77.09375 44.375 
Q 74.3125 48.1875 68.609375 48.1875 
Q 61.625 48.1875 57.5625 43.546875 
Q 53.515625 38.921875 53.515625 30.90625 
L 53.515625 0 
L 44.484375 0 
L 44.484375 32.71875 
Q 44.484375 40.625 41.703125 44.40625 
Q 38.921875 48.1875 33.109375 48.1875 
Q 26.21875 48.1875 22.15625 43.53125 
Q 18.109375 38.875 18.109375 30.90625 
L 18.109375 0 
L 9.078125 0 
L 9.078125 54.6875 
L 18.109375 54.6875 
L 18.109375 46.1875 
Q 21.1875 51.21875 25.484375 53.609375 
Q 29.78125 56 35.6875 56 
Q 41.65625 56 45.828125 52.96875 
Q 50 49.953125 52 44.1875 
" id="DejaVuSans-6d"/>
      <path d="M 48.6875 27.296875 
Q 48.6875 37.203125 44.609375 42.84375 
Q 40.53125 48.484375 33.40625 48.484375 
Q 26.265625 48.484375 22.1875 42.84375 
Q 18.109375 37.203125 18.109375 27.296875 
Q 18.109375 17.390625 22.1875 11.75 
Q 26.265625 6.109375 33.40625 6.109375 
Q 40.53125 6.109375 44.609375 11.75 
Q 48.6875 17.390625 48.6875 27.296875 
M 18.109375 46.390625 
Q 20.953125 51.265625 25.265625 53.625 
Q 29.59375 56 35.59375 56 
Q 45.5625 56 51.78125 48.09375 
Q 58.015625 40.1875 58.015625 27.296875 
Q 58.015625 14.40625 51.78125 6.484375 
Q 45.5625 -1.421875 35.59375 -1.421875 
Q 29.59375 -1.421875 25.265625 0.953125 
Q 20.953125 3.328125 18.109375 8.203125 
L 18.109375 0 
L 9.078125 0 
L 9.078125 75.984375 
L 18.109375 75.984375 
z
" id="DejaVuSans-62"/>
      <path d="M 56.203125 29.59375 
L 56.203125 25.203125 
L 14.890625 25.203125 
Q 15.484375 15.921875 20.484375 11.0625 
Q 25.484375 6.203125 34.421875 6.203125 
Q 39.59375 6.203125 44.453125 7.46875 
Q 49.3125 8.734375 54.109375 11.28125 
L 54.109375 2.78125 
Q 49.265625 0.734375 44.1875 -0.34375 
Q 39.109375 -1.421875 33.890625 -1.421875 
Q 20.796875 -1.421875 13.15625 6.1875 
Q 5.515625 13.8125 5.515625 26.8125 
Q 5.515625 40.234375 12.765625 48.109375 
Q 20.015625 56 32.328125 56 
Q 43.359375 56 49.78125 48.890625 
Q 56.203125 41.796875 56.203125 29.59375 
M 47.21875 32.234375 
Q 47.125 39.59375 43.09375 43.984375 
Q 39.0625 48.390625 32.421875 48.390625 
Q 24.90625 48.390625 20.390625 44.140625 
Q 15.875 39.890625 15.1875 32.171875 
z
" id="DejaVuSans-65"/>
      <path d="M 41.109375 46.296875 
Q 39.59375 47.171875 37.8125 47.578125 
Q 36.03125 48 33.890625 48 
Q 26.265625 48 22.1875 43.046875 
Q 18.109375 38.09375 18.109375 28.8125 
L 18.109375 0 
L 9.078125 0 
L 9.078125 54.6875 
L 18.109375 54.6875 
L 18.109375 46.1875 
Q 20.953125 51.171875 25.484375 53.578125 
Q 30.03125 56 36.53125 56 
Q 37.453125 56 38.578125 55.875 
Q 39.703125 55.765625 41.0625 55.515625 
z
" id="DejaVuSans-72"/>
      <path id="DejaVuSans-20"/>
      <path d="M 30.609375 48.390625 
Q 23.390625 48.390625 19.1875 42.75 
Q 14.984375 37.109375 14.984375 27.296875 
Q 14.984375 17.484375 19.15625 11.84375 
Q 23.34375 6.203125 30.609375 6.203125 
Q 37.796875 6.203125 41.984375 11.859375 
Q 46.1875 17.53125 46.1875 27.296875 
Q 46.1875 37.015625 41.984375 42.703125 
Q 37.796875 48.390625 30.609375 48.390625 
M 30.609375 56 
Q 42.328125 56 49.015625 48.375 
Q 55.71875 40.765625 55.71875 27.296875 
Q 55.71875 13.875 49.015625 6.21875 
Q 42.328125 -1.421875 30.609375 -1.421875 
Q 18.84375 -1.421875 12.171875 6.21875 
Q 5.515625 13.875 5.515625 27.296875 
Q 5.515625 40.765625 12.171875 48.375 
Q 18.84375 56 30.609375 56 
" id="DejaVuSans-6f"/>
      <path d="M 37.109375 75.984375 
L 37.109375 68.5 
L 28.515625 68.5 
Q 23.6875 68.5 21.796875 66.546875 
Q 19.921875 64.59375 19.921875 59.515625 
L 19.921875 54.6875 
L 34.71875 54.6875 
L 34.71875 47.703125 
L 19.921875 47.703125 
L 19.921875 0 
L 10.890625 0 
L 10.890625 47.703125 
L 2.296875 47.703125 
L 2.296875 54.6875 
L 10.890625 54.6875 
L 10.890625 58.5 
Q 10.890625 67.625 15.140625 71.796875 
Q 19.390625 75.984375 28.609375 75.984375 
z
" id="DejaVuSans-66"/>
      <path d="M 48.78125 52.59375 
L 48.78125 44.1875 
Q 44.96875 46.296875 41.140625 47.34375 
Q 37.3125 48.390625 33.40625 48.390625 
Q 24.65625 48.390625 19.8125 42.84375 
Q 14.984375 37.3125 14.984375 27.296875 
Q 14.984375 17.28125 19.8125 11.734375 
Q 24.65625 6.203125 33.40625 6.203125 
Q 37.3125 6.203125 41.140625 7.25 
Q 44.96875 8.296875 48.78125 10.40625 
L 48.78125 2.09375 
Q 45.015625 0.34375 40.984375 -0.53125 
Q 36.96875 -1.421875 32.421875 -1.421875 
Q 20.0625 -1.421875 12.78125 6.34375 
Q 5.515625 14.109375 5.515625 27.296875 
Q 5.515625 40.671875 12.859375 48.328125 
Q 20.21875 56 33.015625 56 
Q 37.15625 56 41.109375 55.140625 
Q 45.0625 54.296875 48.78125 52.59375 
" id="DejaVuSans-63"/>
      <path d="M 9.421875 75.984375 
L 18.40625 75.984375 
L 18.40625 0 
L 9.421875 0 
z
" id="DejaVuSans-6c"/>
      <path d="M 9.421875 54.6875 
L 18.40625 54.6875 
L 18.40625 0 
L 9.421875 0 
z
M 9.421875 75.984375 
L 18.40625 75.984375 
L 18.40625 64.59375 
L 9.421875 64.59375 
z
" id="DejaVuSans-69"/>
      <path d="M 54.890625 33.015625 
L 54.890625 0 
L 45.90625 0 
L 45.90625 32.71875 
Q 45.90625 40.484375 42.875 44.328125 
Q 39.84375 48.1875 33.796875 48.1875 
Q 26.515625 48.1875 22.3125 43.546875 
Q 18.109375 38.921875 18.109375 30.90625 
L 18.109375 0 
L 9.078125 0 
L 9.078125 54.6875 
L 18.109375 54.6875 
L 18.109375 46.1875 
Q 21.34375 51.125 25.703125 53.5625 
Q 30.078125 56 35.796875 56 
Q 45.21875 56 50.046875 50.171875 
Q 54.890625 44.34375 54.890625 33.015625 
" id="DejaVuSans-6e"/>
      <path d="M 18.3125 70.21875 
L 18.3125 54.6875 
L 36.8125 54.6875 
L 36.8125 47.703125 
L 18.3125 47.703125 
L 18.3125 18.015625 
Q 18.3125 11.328125 20.140625 9.421875 
Q 21.96875 7.515625 27.59375 7.515625 
L 36.8125 7.515625 
L 36.8125 0 
L 27.59375 0 
Q 17.1875 0 13.234375 3.875 
Q 9.28125 7.765625 9.28125 18.015625 
L 9.28125 47.703125 
L 2.6875 47.703125 
L 2.6875 54.6875 
L 9.28125 54.6875 
L 9.28125 70.21875 
z
" id="DejaVuSans-74"/>
      <path d="M 44.28125 53.078125 
L 44.28125 44.578125 
Q 40.484375 46.53125 36.375 47.5 
Q 32.28125 48.484375 27.875 48.484375 
Q 21.1875 48.484375 17.84375 46.4375 
Q 14.5 44.390625 14.5 40.28125 
Q 14.5 37.15625 16.890625 35.375 
Q 19.28125 33.59375 26.515625 31.984375 
L 29.59375 31.296875 
Q 39.15625 29.25 43.1875 25.515625 
Q 47.21875 21.78125 47.21875 15.09375 
Q 47.21875 7.46875 41.1875 3.015625 
Q 35.15625 -1.421875 24.609375 -1.421875 
Q 20.21875 -1.421875 15.453125 -0.5625 
Q 10.6875 0.296875 5.421875 2 
L 5.421875 11.28125 
Q 10.40625 8.6875 15.234375 7.390625 
Q 20.0625 6.109375 24.8125 6.109375 
Q 31.15625 6.109375 34.5625 8.28125 
Q 37.984375 10.453125 37.984375 14.40625 
Q 37.984375 18.0625 35.515625 20.015625 
Q 33.0625 21.96875 24.703125 23.78125 
L 21.578125 24.515625 
Q 13.234375 26.265625 9.515625 29.90625 
Q 5.8125 33.546875 5.8125 39.890625 
Q 5.8125 47.609375 11.28125 51.796875 
Q 16.75 56 26.8125 56 
Q 31.78125 56 36.171875 55.265625 
Q 40.578125 54.546875 44.28125 53.078125 
" id="DejaVuSans-73"/>
     </defs>
     <g transform="translate(191.738906 335.860562)scale(0.1 -0.1)">
      <use xlink:href="#DejaVuSans-4e"/>
      <use x="74.804688" xlink:href="#DejaVuSans-75"/>
      <use x="138.183594" xlink:href="#DejaVuSans-6d"/>
      <use x="235.595703" xlink:href="#DejaVuSans-62"/>
      <use x="299.072266" xlink:href="#DejaVuSans-65"/>
      <use x="360.595703" xlink:href="#DejaVuSans-72"/>
      <use x="401.708984" xlink:href="#DejaVuSans-20"/>
      <use x="433.496094" xlink:href="#DejaVuSans-6f"/>
      <use x="494.677734" xlink:href="#DejaVuSans-66"/>
      <use x="529.882812" xlink:href="#DejaVuSans-20"/>
      <use x="561.669922" xlink:href="#DejaVuSans-63"/>
      <use x="616.650391" xlink:href="#DejaVuSans-6c"/>
      <use x="644.433594" xlink:href="#DejaVuSans-69"/>
      <use x="672.216797" xlink:href="#DejaVuSans-65"/>
      <use x="733.740234" xlink:href="#DejaVuSans-6e"/>
      <use x="797.119141" xlink:href="#DejaVuSans-74"/>
      <use x="836.328125" xlink:href="#DejaVuSans-73"/>
     </g>
    </g>
   </g>
   <g id="matplotlib.axis_2">
    <g id="ytick_1">
     <g id="line2d_13">
      <path clip-path="url(#p1075ca067a)" d="M 57.6 295.969028 
L 414.72 295.969028 
" style="fill:none;stroke:#b0b0b0;stroke-linecap:square;stroke-width:0.8;"/>
     </g>
     <g id="line2d_14">
      <defs>
       <path d="M 0 0 
L -3.5 0 
" id="m0fd127b618" style="stroke:#000000;stroke-width:0.8;"/>
      </defs>
      <g>
       <use style="stroke:#000000;stroke-width:0.8;" x="57.6" xlink:href="#m0fd127b618" y="295.969028"/>
      </g>
     </g>
     <g id="text_8">
      <!-- 0 -->
      <g transform="translate(44.2375 299.768247)scale(0.1 -0.1)">
       <use xlink:href="#DejaVuSans-30"/>
      </g>
     </g>
    </g>
    <g id="ytick_2">
     <g id="line2d_15">
      <path clip-path="url(#p1075ca067a)" d="M 57.6 247.232664 
L 414.72 247.232664 
" style="fill:none;stroke:#b0b0b0;stroke-linecap:square;stroke-width:0.8;"/>
     </g>
     <g id="line2d_16">
      <g>
       <use style="stroke:#000000;stroke-width:0.8;" x="57.6" xlink:href="#m0fd127b618" y="247.232664"/>
      </g>
     </g>
     <g id="text_9">
      <!-- 100 -->
      <g transform="translate(31.5125 251.031883)scale(0.1 -0.1)">
       <use xlink:href="#DejaVuSans-31"/>
       <use x="63.623047" xlink:href="#DejaVuSans-30"/>
       <use x="127.246094" xlink:href="#DejaVuSans-30"/>
      </g>
     </g>
    </g>
    <g id="ytick_3">
     <g id="line2d_17">
      <path clip-path="url(#p1075ca067a)" d="M 57.6 198.4963 
L 414.72 198.4963 
" style="fill:none;stroke:#b0b0b0;stroke-linecap:square;stroke-width:0.8;"/>
     </g>
     <g id="line2d_18">
      <g>
       <use style="stroke:#000000;stroke-width:0.8;" x="57.6" xlink:href="#m0fd127b618" y="198.4963"/>
      </g>
     </g>
     <g id="text_10">
      <!-- 200 -->
      <g transform="translate(31.5125 202.295519)scale(0.1 -0.1)">
       <use xlink:href="#DejaVuSans-32"/>
       <use x="63.623047" xlink:href="#DejaVuSans-30"/>
       <use x="127.246094" xlink:href="#DejaVuSans-30"/>
      </g>
     </g>
    </g>
    <g id="ytick_4">
     <g id="line2d_19">
      <path clip-path="url(#p1075ca067a)" d="M 57.6 149.759936 
L 414.72 149.759936 
" style="fill:none;stroke:#b0b0b0;stroke-linecap:square;stroke-width:0.8;"/>
     </g>
     <g id="line2d_20">
      <g>
       <use style="stroke:#000000;stroke-width:0.8;" x="57.6" xlink:href="#m0fd127b618" y="149.759936"/>
      </g>
     </g>
     <g id="text_11">
      <!-- 300 -->
      <defs>
       <path d="M 40.578125 39.3125 
Q 47.65625 37.796875 51.625 33 
Q 55.609375 28.21875 55.609375 21.1875 
Q 55.609375 10.40625 48.1875 4.484375 
Q 40.765625 -1.421875 27.09375 -1.421875 
Q 22.515625 -1.421875 17.65625 -0.515625 
Q 12.796875 0.390625 7.625 2.203125 
L 7.625 11.71875 
Q 11.71875 9.328125 16.59375 8.109375 
Q 21.484375 6.890625 26.8125 6.890625 
Q 36.078125 6.890625 40.9375 10.546875 
Q 45.796875 14.203125 45.796875 21.1875 
Q 45.796875 27.640625 41.28125 31.265625 
Q 36.765625 34.90625 28.71875 34.90625 
L 20.21875 34.90625 
L 20.21875 43.015625 
L 29.109375 43.015625 
Q 36.375 43.015625 40.234375 45.921875 
Q 44.09375 48.828125 44.09375 54.296875 
Q 44.09375 59.90625 40.109375 62.90625 
Q 36.140625 65.921875 28.71875 65.921875 
Q 24.65625 65.921875 20.015625 65.03125 
Q 15.375 64.15625 9.8125 62.3125 
L 9.8125 71.09375 
Q 15.4375 72.65625 20.34375 73.4375 
Q 25.25 74.21875 29.59375 74.21875 
Q 40.828125 74.21875 47.359375 69.109375 
Q 53.90625 64.015625 53.90625 55.328125 
Q 53.90625 49.265625 50.4375 45.09375 
Q 46.96875 40.921875 40.578125 39.3125 
" id="DejaVuSans-33"/>
      </defs>
      <g transform="translate(31.5125 153.559155)scale(0.1 -0.1)">
       <use xlink:href="#DejaVuSans-33"/>
       <use x="63.623047" xlink:href="#DejaVuSans-30"/>
       <use x="127.246094" xlink:href="#DejaVuSans-30"/>
      </g>
     </g>
    </g>
    <g id="ytick_5">
     <g id="line2d_21">
      <path clip-path="url(#p1075ca067a)" d="M 57.6 101.023572 
L 414.72 101.023572 
" style="fill:none;stroke:#b0b0b0;stroke-linecap:square;stroke-width:0.8;"/>
     </g>
     <g id="line2d_22">
      <g>
       <use style="stroke:#000000;stroke-width:0.8;" x="57.6" xlink:href="#m0fd127b618" y="101.023572"/>
      </g>
     </g>
     <g id="text_12">
      <!-- 400 -->
      <g transform="translate(31.5125 104.822791)scale(0.1 -0.1)">
       <use xlink:href="#DejaVuSans-34"/>
       <use x="63.623047" xlink:href="#DejaVuSans-30"/>
       <use x="127.246094" xlink:href="#DejaVuSans-30"/>
      </g>
     </g>
    </g>
    <g id="ytick_6">
     <g id="line2d_23">
      <path clip-path="url(#p1075ca067a)" d="M 57.6 52.287208 
L 414.72 52.287208 
" style="fill:none;stroke:#b0b0b0;stroke-linecap:square;stroke-width:0.8;"/>
     </g>
     <g id="line2d_24">
      <g>
       <use style="stroke:#000000;stroke-width:0.8;" x="57.6" xlink:href="#m0fd127b618" y="52.287208"/>
      </g>
     </g>
     <g id="text_13">
      <!-- 500 -->
      <defs>
       <path d="M 10.796875 72.90625 
L 49.515625 72.90625 
L 49.515625 64.59375 
L 19.828125 64.59375 
L 19.828125 46.734375 
Q 21.96875 47.46875 24.109375 47.828125 
Q 26.265625 48.1875 28.421875 48.1875 
Q 40.625 48.1875 47.75 41.5 
Q 54.890625 34.8125 54.890625 23.390625 
Q 54.890625 11.625 47.5625 5.09375 
Q 40.234375 -1.421875 26.90625 -1.421875 
Q 22.3125 -1.421875 17.546875 -0.640625 
Q 12.796875 0.140625 7.71875 1.703125 
L 7.71875 11.625 
Q 12.109375 9.234375 16.796875 8.0625 
Q 21.484375 6.890625 26.703125 6.890625 
Q 35.15625 6.890625 40.078125 11.328125 
Q 45.015625 15.765625 45.015625 23.390625 
Q 45.015625 31 40.078125 35.4375 
Q 35.15625 39.890625 26.703125 39.890625 
Q 22.75 39.890625 18.8125 39.015625 
Q 14.890625 38.140625 10.796875 36.28125 
z
" id="DejaVuSans-35"/>
      </defs>
      <g transform="translate(31.5125 56.086427)scale(0.1 -0.1)">
       <use xlink:href="#DejaVuSans-35"/>
       <use x="63.623047" xlink:href="#DejaVuSans-30"/>
       <use x="127.246094" xlink:href="#DejaVuSans-30"/>
      </g>
     </g>
    </g>
    <g id="text_14">
     <!-- Successful download requests per second -->
     <defs>
      <path d="M 53.515625 70.515625 
L 53.515625 60.890625 
Q 47.90625 63.578125 42.921875 64.890625 
Q 37.9375 66.21875 33.296875 66.21875 
Q 25.25 66.21875 20.875 63.09375 
Q 16.5 59.96875 16.5 54.203125 
Q 16.5 49.359375 19.40625 46.890625 
Q 22.3125 44.4375 30.421875 42.921875 
L 36.375 41.703125 
Q 47.40625 39.59375 52.65625 34.296875 
Q 57.90625 29 57.90625 20.125 
Q 57.90625 9.515625 50.796875 4.046875 
Q 43.703125 -1.421875 29.984375 -1.421875 
Q 24.8125 -1.421875 18.96875 -0.25 
Q 13.140625 0.921875 6.890625 3.21875 
L 6.890625 13.375 
Q 12.890625 10.015625 18.65625 8.296875 
Q 24.421875 6.59375 29.984375 6.59375 
Q 38.421875 6.59375 43.015625 9.90625 
Q 47.609375 13.234375 47.609375 19.390625 
Q 47.609375 24.75 44.3125 27.78125 
Q 41.015625 30.8125 33.5 32.328125 
L 27.484375 33.5 
Q 16.453125 35.6875 11.515625 40.375 
Q 6.59375 45.0625 6.59375 53.421875 
Q 6.59375 63.09375 13.40625 68.65625 
Q 20.21875 74.21875 32.171875 74.21875 
Q 37.3125 74.21875 42.625 73.28125 
Q 47.953125 72.359375 53.515625 70.515625 
" id="DejaVuSans-53"/>
      <path d="M 45.40625 46.390625 
L 45.40625 75.984375 
L 54.390625 75.984375 
L 54.390625 0 
L 45.40625 0 
L 45.40625 8.203125 
Q 42.578125 3.328125 38.25 0.953125 
Q 33.9375 -1.421875 27.875 -1.421875 
Q 17.96875 -1.421875 11.734375 6.484375 
Q 5.515625 14.40625 5.515625 27.296875 
Q 5.515625 40.1875 11.734375 48.09375 
Q 17.96875 56 27.875 56 
Q 33.9375 56 38.25 53.625 
Q 42.578125 51.265625 45.40625 46.390625 
M 14.796875 27.296875 
Q 14.796875 17.390625 18.875 11.75 
Q 22.953125 6.109375 30.078125 6.109375 
Q 37.203125 6.109375 41.296875 11.75 
Q 45.40625 17.390625 45.40625 27.296875 
Q 45.40625 37.203125 41.296875 42.84375 
Q 37.203125 48.484375 30.078125 48.484375 
Q 22.953125 48.484375 18.875 42.84375 
Q 14.796875 37.203125 14.796875 27.296875 
" id="DejaVuSans-64"/>
      <path d="M 4.203125 54.6875 
L 13.1875 54.6875 
L 24.421875 12.015625 
L 35.59375 54.6875 
L 46.1875 54.6875 
L 57.421875 12.015625 
L 68.609375 54.6875 
L 77.59375 54.6875 
L 63.28125 0 
L 52.6875 0 
L 40.921875 44.828125 
L 29.109375 0 
L 18.5 0 
z
" id="DejaVuSans-77"/>
      <path d="M 34.28125 27.484375 
Q 23.390625 27.484375 19.1875 25 
Q 14.984375 22.515625 14.984375 16.5 
Q 14.984375 11.71875 18.140625 8.90625 
Q 21.296875 6.109375 26.703125 6.109375 
Q 34.1875 6.109375 38.703125 11.40625 
Q 43.21875 16.703125 43.21875 25.484375 
L 43.21875 27.484375 
z
M 52.203125 31.203125 
L 52.203125 0 
L 43.21875 0 
L 43.21875 8.296875 
Q 40.140625 3.328125 35.546875 0.953125 
Q 30.953125 -1.421875 24.3125 -1.421875 
Q 15.921875 -1.421875 10.953125 3.296875 
Q 6 8.015625 6 15.921875 
Q 6 25.140625 12.171875 29.828125 
Q 18.359375 34.515625 30.609375 34.515625 
L 43.21875 34.515625 
L 43.21875 35.40625 
Q 43.21875 41.609375 39.140625 45 
Q 35.0625 48.390625 27.6875 48.390625 
Q 23 48.390625 18.546875 47.265625 
Q 14.109375 46.140625 10.015625 43.890625 
L 10.015625 52.203125 
Q 14.9375 54.109375 19.578125 55.046875 
Q 24.21875 56 28.609375 56 
Q 40.484375 56 46.34375 49.84375 
Q 52.203125 43.703125 52.203125 31.203125 
" id="DejaVuSans-61"/>
      <path d="M 14.796875 27.296875 
Q 14.796875 17.390625 18.875 11.75 
Q 22.953125 6.109375 30.078125 6.109375 
Q 37.203125 6.109375 41.296875 11.75 
Q 45.40625 17.390625 45.40625 27.296875 
Q 45.40625 37.203125 41.296875 42.84375 
Q 37.203125 48.484375 30.078125 48.484375 
Q 22.953125 48.484375 18.875 42.84375 
Q 14.796875 37.203125 14.796875 27.296875 
M 45.40625 8.203125 
Q 42.578125 3.328125 38.25 0.953125 
Q 33.9375 -1.421875 27.875 -1.421875 
Q 17.96875 -1.421875 11.734375 6.484375 
Q 5.515625 14.40625 5.515625 27.296875 
Q 5.515625 40.1875 11.734375 48.09375 
Q 17.96875 56 27.875 56 
Q 33.9375 56 38.25 53.625 
Q 42.578125 51.265625 45.40625 46.390625 
L 45.40625 54.6875 
L 54.390625 54.6875 
L 54.390625 -20.796875 
L 45.40625 -20.796875 
z
" id="DejaVuSans-71"/>
      <path d="M 18.109375 8.203125 
L 18.109375 -20.796875 
L 9.078125 -20.796875 
L 9.078125 54.6875 
L 18.109375 54.6875 
L 18.109375 46.390625 
Q 20.953125 51.265625 25.265625 53.625 
Q 29.59375 56 35.59375 56 
Q 45.5625 56 51.78125 48.09375 
Q 58.015625 40.1875 58.015625 27.296875 
Q 58.015625 14.40625 51.78125 6.484375 
Q 45.5625 -1.421875 35.59375 -1.421875 
Q 29.59375 -1.421875 25.265625 0.953125 
Q 20.953125 3.328125 18.109375 8.203125 
M 48.6875 27.296875 
Q 48.6875 37.203125 44.609375 42.84375 
Q 40.53125 48.484375 33.40625 48.484375 
Q 26.265625 48.484375 22.1875 42.84375 
Q 18.109375 37.203125 18.109375 27.296875 
Q 18.109375 17.390625 22.1875 11.75 
Q 26.265625 6.109375 33.40625 6.109375 
Q 40.53125 6.109375 44.609375 11.75 
Q 48.6875 17.390625 48.6875 27.296875 
" id="DejaVuSans-70"/>
     </defs>
     <g transform="translate(25.432812 279.366281)rotate(-90)scale(0.1 -0.1)">
      <use xlink:href="#DejaVuSans-53"/>
      <use x="63.476562" xlink:href="#DejaVuSans-75"/>
      <use x="126.855469" xlink:href="#DejaVuSans-63"/>
      <use x="181.835938" xlink:href="#DejaVuSans-63"/>
      <use x="236.816406" xlink:href="#DejaVuSans-65"/>
      <use x="298.339844" xlink:href="#DejaVuSans-73"/>
      <use x="350.439453" xlink:href="#DejaVuSans-73"/>
      <use x="402.539062" xlink:href="#DejaVuSans-66"/>
      <use x="437.744141" xlink:href="#DejaVuSans-75"/>
      <use x="501.123047" xlink:href="#DejaVuSans-6c"/>
      <use x="528.90625" xlink:href="#DejaVuSans-20"/>
      <use x="560.693359" xlink:href="#DejaVuSans-64"/>
      <use x="624.169922" xlink:href="#DejaVuSans-6f"/>
      <use x="685.351562" xlink:href="#DejaVuSans-77"/>
      <use x="767.138672" xlink:href="#DejaVuSans-6e"/>
      <use x="830.517578" xlink:href="#DejaVuSans-6c"/>
      <use x="858.300781" xlink:href="#DejaVuSans-6f"/>
      <use x="919.482422" xlink:href="#DejaVuSans-61"/>
      <use x="980.761719" xlink:href="#DejaVuSans-64"/>
      <use x="1044.238281" xlink:href="#DejaVuSans-20"/>
      <use x="1076.025391" xlink:href="#DejaVuSans-72"/>
      <use x="1117.107422" xlink:href="#DejaVuSans-65"/>
      <use x="1178.630859" xlink:href="#DejaVuSans-71"/>
      <use x="1242.107422" xlink:href="#DejaVuSans-75"/>
      <use x="1305.486328" xlink:href="#DejaVuSans-65"/>
      <use x="1367.009766" xlink:href="#DejaVuSans-73"/>
      <use x="1419.109375" xlink:href="#DejaVuSans-74"/>
      <use x="1458.318359" xlink:href="#DejaVuSans-73"/>
      <use x="1510.417969" xlink:href="#DejaVuSans-20"/>
      <use x="1542.205078" xlink:href="#DejaVuSans-70"/>
      <use x="1605.681641" xlink:href="#DejaVuSans-65"/>
      <use x="1667.205078" xlink:href="#DejaVuSans-72"/>
      <use x="1708.318359" xlink:href="#DejaVuSans-20"/>
      <use x="1740.105469" xlink:href="#DejaVuSans-73"/>
      <use x="1792.205078" xlink:href="#DejaVuSans-65"/>
      <use x="1853.728516" xlink:href="#DejaVuSans-63"/>
      <use x="1908.708984" xlink:href="#DejaVuSans-6f"/>
      <use x="1969.890625" xlink:href="#DejaVuSans-6e"/>
      <use x="2033.269531" xlink:href="#DejaVuSans-64"/>
     </g>
    </g>
   </g>
   <g id="line2d_25">
    <path clip-path="url(#p1075ca067a)" d="M 57.6 295.488 
L 57.95712 295.482639 
L 60.09984 292.74658 
L 61.88544 290.140159 
L 62.24256 289.932055 
L 62.59968 289.589925 
L 62.9568 289.04749 
L 63.31392 288.251625 
L 63.67104 287.95482 
L 65.09952 285.749987 
L 65.45664 285.486323 
L 65.81376 285.394212 
L 66.17088 284.528654 
L 66.528 284.319575 
L 67.59936 282.328694 
L 67.95648 282.41447 
L 68.67072 281.818912 
L 69.02784 280.760846 
L 69.74208 280.0298 
L 70.0992 279.158394 
L 70.45632 278.772889 
L 70.81344 278.942492 
L 71.52768 277.607115 
L 71.8848 277.501845 
L 72.59904 276.04414 
L 73.31328 275.154214 
L 73.6704 274.926615 
L 74.02752 274.455822 
L 74.38464 274.634197 
L 74.74176 272.686692 
L 75.09888 273.549326 
L 75.456 271.998535 
L 75.81312 271.397128 
L 76.17024 271.922993 
L 76.52736 270.243538 
L 76.88448 271.082778 
L 77.59872 269.595832 
L 77.95584 268.745382 
L 78.67008 268.124481 
L 79.0272 268.376935 
L 79.38432 267.67367 
L 79.74144 266.167229 
L 80.09856 266.859772 
L 80.45568 264.994144 
L 80.8128 266.372409 
L 81.16992 264.336691 
L 81.52704 264.906419 
L 81.88416 263.440917 
L 82.24128 264.099345 
L 82.5984 263.565682 
L 82.95552 261.870144 
L 83.31264 262.3848 
L 83.66976 260.61567 
L 84.02688 261.123502 
L 84.384 261.000687 
L 84.74112 259.785202 
L 85.09824 260.036682 
L 85.45536 259.609751 
L 85.81248 258.852388 
L 86.1696 258.363562 
L 86.52672 258.675475 
L 86.88384 256.186996 
L 87.24096 256.321996 
L 87.59808 257.214359 
L 87.9552 254.879399 
L 88.31232 256.11243 
L 88.66944 254.21561 
L 89.02656 254.077686 
L 89.38368 254.385213 
L 89.7408 253.340792 
L 90.09792 252.693086 
L 90.45504 253.460197 
L 90.81216 251.126699 
L 91.16928 250.59596 
L 91.5264 252.197437 
L 91.88352 252.028322 
L 92.59776 250.209968 
L 92.95488 248.594845 
L 93.312 248.348239 
L 93.66912 247.768764 
L 94.02624 247.555786 
L 94.38336 247.931543 
L 94.74048 245.701855 
L 95.0976 245.498137 
L 95.45472 245.490826 
L 95.81184 247.153711 
L 96.16896 243.949295 
L 96.52608 243.419044 
L 96.8832 245.113607 
L 97.24032 243.110055 
L 97.59744 243.0389 
L 97.95456 241.097243 
L 98.31168 241.249788 
L 98.6688 241.738614 
L 99.02592 243.107131 
L 99.38304 241.302423 
L 99.74016 241.350672 
L 100.09728 240.32331 
L 100.4544 239.74091 
L 100.81152 238.021979 
L 101.16864 237.018497 
L 101.52576 239.099052 
L 101.88288 239.635152 
L 102.24 235.628536 
L 102.59712 234.81074 
L 102.95424 236.894219 
L 103.31136 234.5037 
L 103.66848 236.003806 
L 104.0256 233.853557 
L 104.38272 234.296571 
L 104.73984 232.1819 
L 105.09696 235.192345 
L 105.45408 233.391537 
L 105.8112 232.919769 
L 106.16832 231.566847 
L 106.52544 231.434284 
L 106.88256 232.700455 
L 107.23968 229.814288 
L 107.5968 231.716468 
L 107.95392 230.271435 
L 108.31104 229.684649 
L 108.66816 229.900551 
L 109.02528 227.626025 
L 109.3824 228.586131 
L 109.73952 225.491372 
L 110.09664 228.749885 
L 110.45376 228.514489 
L 110.81088 224.434768 
L 111.168 223.954715 
L 111.52512 225.467979 
L 111.88224 225.649278 
L 112.23936 222.978525 
L 112.59648 223.510239 
L 112.9536 222.267949 
L 113.31072 224.783233 
L 113.66784 223.095005 
L 114.02496 219.455861 
L 114.38208 218.852505 
L 114.7392 222.292317 
L 115.09632 221.919484 
L 115.45344 217.856333 
L 115.81056 220.727392 
L 116.16768 219.750716 
L 116.5248 216.623303 
L 116.88192 218.894905 
L 117.23904 219.980264 
L 117.95328 215.755309 
L 118.3104 217.942597 
L 118.66752 213.557299 
L 119.02464 214.706502 
L 119.38176 215.367367 
L 119.73888 216.290434 
L 120.096 216.42982 
L 120.45312 211.117556 
L 120.81024 211.05225 
L 121.52448 208.767489 
L 122.23872 211.18335 
L 122.59584 212.19268 
L 122.95296 207.836624 
L 123.31008 211.146311 
L 123.6672 207.61195 
L 124.02432 207.88926 
L 124.38144 207.569062 
L 124.73856 208.622742 
L 125.09568 205.340348 
L 125.4528 207.661173 
L 125.80992 203.156471 
L 126.16704 206.94085 
L 126.52416 205.588416 
L 126.88128 204.74284 
L 127.2384 206.135238 
L 127.59552 206.497349 
L 127.95264 203.789069 
L 128.30976 202.564812 
L 128.66688 199.099169 
L 129.024 204.166289 
L 129.38112 204.15313 
L 130.45248 197.646338 
L 130.8096 198.017709 
L 131.16672 196.506882 
L 131.52384 197.34466 
L 131.88096 195.058437 
L 132.23808 200.841007 
L 132.5952 193.880479 
L 132.95232 195.719302 
L 133.30944 198.998285 
L 133.66656 197.341736 
L 134.02368 197.521085 
L 134.3808 198.124442 
L 135.09504 196.688668 
L 135.45216 196.469355 
L 135.80928 192.538767 
L 136.1664 191.773606 
L 136.52352 194.149991 
L 136.88064 190.735522 
L 137.23776 190.482092 
L 137.59488 189.344098 
L 137.952 190.058086 
L 138.30912 193.303441 
L 138.66624 187.84643 
L 139.02336 190.567381 
L 139.38048 188.183198 
L 139.7376 184.589379 
L 140.09472 186.40627 
L 140.45184 189.754946 
L 140.80896 187.914173 
L 141.16608 182.692072 
L 141.5232 185.375009 
L 142.23744 183.026891 
L 142.59456 187.097352 
L 142.95168 187.104662 
L 143.3088 179.803955 
L 143.66592 184.606924 
L 144.02304 182.328499 
L 144.38016 180.79769 
L 144.73728 183.628298 
L 145.0944 181.571623 
L 145.45152 176.513763 
L 145.80864 183.797413 
L 146.16576 179.282476 
L 146.52288 176.73064 
L 146.88 180.098323 
L 147.23712 178.204915 
L 147.59424 174.357179 
L 147.95136 180.632473 
L 148.30848 177.46461 
L 148.6656 173.178734 
L 149.02272 173.902469 
L 149.37984 171.909151 
L 149.73696 174.295771 
L 150.09408 177.632263 
L 150.4512 173.387813 
L 150.80832 174.163208 
L 151.16544 170.263812 
L 151.52256 175.01512 
L 151.87968 171.357943 
L 152.2368 171.608935 
L 152.59392 166.974595 
L 152.95104 167.345966 
L 153.30816 173.812794 
L 153.66528 170.622024 
L 154.0224 165.476926 
L 154.37952 166.278639 
L 154.73664 167.405424 
L 155.09376 165.069978 
L 155.45088 171.741498 
L 155.808 166.343946 
L 156.16512 166.541328 
L 156.52224 164.012398 
L 156.87936 165.688929 
L 157.23648 165.438912 
L 157.5936 161.752006 
L 157.95072 167.887427 
L 158.30784 159.311776 
L 158.66496 161.916735 
L 159.02208 162.12094 
L 159.3792 163.70146 
L 159.73632 164.037254 
L 160.09344 165.084111 
L 160.45056 163.016715 
L 160.80768 163.757507 
L 161.1648 155.019565 
L 161.52192 160.073038 
L 161.87904 163.351533 
L 162.23616 155.010792 
L 162.59328 154.880666 
L 162.9504 155.437235 
L 163.30752 156.960247 
L 163.66464 161.212494 
L 164.02176 160.169049 
L 164.736 150.005567 
L 165.09312 153.028684 
L 165.80736 154.046299 
L 166.16448 157.82288 
L 166.5216 151.610456 
L 166.87872 148.520083 
L 167.23584 153.352294 
L 167.59296 154.202256 
L 167.95008 151.333146 
L 168.66432 147.611637 
L 169.02144 152.951193 
L 169.37856 155.668246 
L 169.73568 154.070668 
L 170.0928 150.314556 
L 170.44992 152.31957 
L 170.80704 155.568823 
L 171.16416 149.670261 
L 171.52128 150.728815 
L 171.8784 154.792453 
L 172.23552 147.605302 
L 172.59264 149.365172 
L 172.94976 155.22377 
L 173.30688 152.2567 
L 173.664 154.213465 
L 174.02112 146.746567 
L 174.37824 145.077346 
L 174.73536 148.184777 
L 175.09248 144.510055 
L 175.4496 145.588103 
L 175.80672 147.086747 
L 176.16384 143.816049 
L 176.52096 143.785345 
L 177.2352 148.229614 
L 177.59232 149.186309 
L 177.94944 148.983079 
L 178.30656 152.351249 
L 178.66368 146.502885 
L 179.0208 149.413421 
L 179.37792 143.01726 
L 179.73504 145.531082 
L 180.09216 143.969081 
L 180.44928 148.330011 
L 180.8064 143.785833 
L 181.16352 150.86284 
L 181.52064 150.088907 
L 181.87776 148.144813 
L 182.23488 140.910387 
L 182.592 148.001528 
L 182.94912 148.407989 
L 183.30624 149.486525 
L 183.66336 140.812914 
L 184.02048 138.726023 
L 184.3776 141.772046 
L 184.73472 148.591238 
L 185.09184 139.512141 
L 185.80608 147.891384 
L 186.1632 148.342683 
L 186.52032 145.752832 
L 186.87744 146.382019 
L 187.23456 137.215683 
L 187.59168 140.07797 
L 187.9488 145.191877 
L 188.30592 144.69769 
L 188.66304 140.433258 
L 189.02016 145.489169 
L 189.37728 140.656471 
L 189.7344 144.873141 
L 190.09152 143.806302 
L 190.44864 144.718159 
L 190.80576 144.123088 
L 191.16288 140.98934 
L 191.52 145.86785 
L 191.87712 144.969152 
L 192.23424 139.529199 
L 192.59136 139.472664 
L 192.94848 135.728737 
L 193.3056 144.438413 
L 193.66272 133.755889 
L 194.37696 136.60989 
L 194.73408 136.679096 
L 195.0912 135.172655 
L 195.44832 143.042116 
L 195.80544 135.689748 
L 196.16256 134.855381 
L 196.51968 135.201897 
L 196.8768 136.572363 
L 197.23392 140.661344 
L 197.59104 137.528571 
L 197.94816 133.236847 
L 198.30528 141.238383 
L 198.6624 139.473152 
L 199.01952 132.303058 
L 199.37664 138.95411 
L 199.73376 137.923823 
L 200.09088 135.487979 
L 200.448 134.383613 
L 200.80512 141.371433 
L 201.16224 130.306329 
L 201.51936 132.18999 
L 201.87648 136.061606 
L 202.2336 130.66844 
L 202.59072 134.828576 
L 202.94784 131.401923 
L 203.30496 129.362793 
L 203.66208 138.956059 
L 204.0192 131.027627 
L 204.37632 131.746001 
L 204.73344 138.138263 
L 205.09056 130.208856 
L 205.44768 132.982443 
L 205.8048 134.54688 
L 206.16192 132.156362 
L 206.51904 137.189853 
L 206.87616 129.860391 
L 207.23328 137.795646 
L 207.5904 133.490763 
L 207.94752 126.872852 
L 208.30464 128.612741 
L 208.66176 135.368088 
L 209.01888 137.169384 
L 209.376 125.783595 
L 209.73312 132.08082 
L 210.09024 130.468134 
L 210.44736 136.126426 
L 210.80448 128.287669 
L 211.1616 135.334947 
L 211.51872 132.02916 
L 211.87584 125.510184 
L 212.23296 126.252926 
L 212.59008 125.746068 
L 212.9472 134.745237 
L 213.30432 127.215956 
L 213.66144 129.366205 
L 214.01856 133.479066 
L 214.37568 127.947489 
L 214.7328 130.917971 
L 215.44704 133.529752 
L 215.80416 125.829407 
L 216.16128 123.900909 
L 216.5184 126.446897 
L 216.87552 126.622835 
L 217.23264 125.239697 
L 217.58976 125.514082 
L 217.94688 123.310224 
L 218.304 129.000195 
L 218.66112 127.383609 
L 219.01824 127.785684 
L 219.37536 123.125026 
L 219.73248 121.880299 
L 220.0896 129.368154 
L 220.44672 126.898683 
L 220.80384 128.43729 
L 221.16096 120.752052 
L 221.51808 126.801697 
L 221.8752 124.445781 
L 222.23232 127.410902 
L 222.58944 121.540119 
L 222.94656 123.295603 
L 223.30368 130.754216 
L 223.6608 120.903622 
L 224.01792 119.972271 
L 224.37504 128.207741 
L 224.73216 121.151691 
L 225.08928 125.197783 
L 225.4464 125.613992 
L 225.80352 123.949158 
L 226.16064 129.607937 
L 226.51776 129.83115 
L 226.87488 123.465693 
L 227.232 124.460402 
L 227.58912 128.939762 
L 227.94624 126.018016 
L 228.30336 119.565809 
L 228.66048 128.449961 
L 229.0176 123.723996 
L 229.73184 127.861226 
L 230.08896 122.165407 
L 230.8032 127.134567 
L 231.16032 118.138321 
L 231.51744 122.471959 
L 231.87456 124.483796 
L 232.23168 118.40296 
L 232.94592 126.456644 
L 233.30304 117.78352 
L 233.66016 126.974711 
L 234.01728 115.322334 
L 234.3744 116.566573 
L 234.73152 117.176265 
L 235.08864 115.975401 
L 235.44576 117.838105 
L 235.80288 113.824666 
L 236.16 124.926322 
L 236.51712 121.284253 
L 236.87424 113.228133 
L 237.23136 120.639471 
L 237.58848 123.353112 
L 237.9456 112.915245 
L 238.30272 121.143893 
L 238.65984 122.115696 
L 239.01696 124.378038 
L 239.37408 119.811441 
L 239.7312 118.954168 
L 240.08832 112.245607 
L 240.80256 122.169793 
L 241.5168 112.759289 
L 241.87392 116.925273 
L 242.23104 122.629864 
L 242.58816 120.655554 
L 242.94528 117.391193 
L 243.65952 122.058187 
L 244.01664 110.252778 
L 244.37376 119.934256 
L 244.73088 114.791595 
L 245.088 117.03493 
L 245.44512 115.451485 
L 245.80224 109.456425 
L 246.15936 118.75971 
L 246.51648 121.512827 
L 246.8736 110.95848 
L 247.23072 111.885933 
L 247.58784 120.290519 
L 248.30208 113.166725 
L 248.6592 112.823621 
L 249.01632 113.38945 
L 249.37344 116.673793 
L 249.73056 116.254173 
L 250.08768 119.745159 
L 250.4448 119.050666 
L 250.80192 108.471463 
L 251.15904 117.341969 
L 251.51616 109.025108 
L 251.87328 117.03493 
L 252.2304 116.735689 
L 252.58752 110.140197 
L 252.94464 113.066328 
L 253.30176 111.221656 
L 253.65888 106.4182 
L 254.016 108.922762 
L 254.37312 112.459073 
L 254.73024 114.386109 
L 255.08736 117.277637 
L 255.44448 106.648723 
L 255.8016 114.983616 
L 256.15872 115.273598 
L 256.51584 108.2502 
L 256.87296 112.960083 
L 257.23008 111.425374 
L 257.5872 115.125439 
L 257.94432 109.237599 
L 258.30144 113.520551 
L 258.65856 107.340292 
L 259.01568 111.467775 
L 259.3728 104.347392 
L 259.72992 108.681517 
L 260.08704 104.869846 
L 260.44416 111.265032 
L 260.80128 114.114647 
L 261.1584 109.122581 
L 261.51552 107.833017 
L 261.87264 103.425788 
L 262.22976 107.771122 
L 262.58688 108.351085 
L 262.944 104.302067 
L 263.30112 106.811015 
L 263.65824 105.583834 
L 264.01536 111.812829 
L 264.37248 106.298796 
L 264.7296 113.50593 
L 265.44384 101.925682 
L 265.80096 102.453985 
L 266.15808 104.377609 
L 266.5152 102.323858 
L 266.87232 107.809624 
L 267.22944 107.715075 
L 267.58656 108.374965 
L 267.94368 110.736242 
L 268.3008 109.052401 
L 268.65792 101.748282 
L 269.01504 111.438046 
L 269.37216 104.056924 
L 269.72928 108.119099 
L 270.0864 108.398846 
L 270.44352 110.96774 
L 270.80064 104.297681 
L 271.51488 112.315788 
L 271.872 104.362013 
L 272.22912 104.268927 
L 272.58624 100.188718 
L 272.94336 100.300812 
L 273.30048 111.365916 
L 273.6576 101.511911 
L 274.01472 100.376841 
L 274.37184 109.646497 
L 274.72896 105.068203 
L 275.08608 97.785528 
L 275.4432 101.295521 
L 275.80032 106.204248 
L 276.15744 101.334023 
L 276.51456 109.862887 
L 276.87168 101.931531 
L 277.2288 99.019046 
L 277.58592 106.642388 
L 277.94304 109.68841 
L 278.30016 109.491515 
L 278.65728 97.318147 
L 279.0144 104.794305 
L 279.37152 100.568862 
L 279.72864 104.057898 
L 280.08576 97.95903 
L 280.44288 105.021904 
L 280.8 98.943992 
L 281.15712 99.163305 
L 281.51424 105.298239 
L 281.87136 107.312513 
L 282.22848 97.738254 
L 282.5856 107.96363 
L 282.94272 101.074258 
L 283.29984 103.304434 
L 283.65696 101.069872 
L 284.01408 101.760953 
L 284.3712 95.587031 
L 284.72832 101.589401 
L 285.08544 104.381508 
L 285.44256 99.233486 
L 285.79968 103.561762 
L 286.1568 93.520122 
L 286.51392 103.224019 
L 286.87104 101.917397 
L 287.22816 103.626581 
L 287.58528 102.091386 
L 287.9424 93.385609 
L 288.29952 94.623513 
L 288.65664 93.336873 
L 289.01376 101.587939 
L 289.37088 102.934038 
L 289.728 105.897696 
L 290.08512 97.462894 
L 290.44224 103.548603 
L 290.79936 105.645242 
L 291.15648 101.423698 
L 291.5136 95.576309 
L 291.87072 94.414921 
L 292.22784 104.885442 
L 292.58496 94.560156 
L 292.94208 96.9921 
L 293.2992 93.469923 
L 293.65632 99.331446 
L 294.01344 92.334853 
L 294.37056 94.988548 
L 294.72768 104.224577 
L 295.44192 90.391247 
L 295.79904 99.165742 
L 296.15616 96.005189 
L 296.51328 102.233209 
L 296.8704 98.463451 
L 297.22752 103.092918 
L 297.58464 99.21789 
L 297.94176 91.435667 
L 298.29888 91.482942 
L 298.656 92.707199 
L 299.01312 93.511836 
L 299.37024 91.656443 
L 299.72736 95.881886 
L 300.08448 102.194707 
L 300.4416 93.654147 
L 300.79872 99.696968 
L 301.15584 94.135662 
L 301.87008 89.711862 
L 302.2272 90.682691 
L 302.58432 93.394382 
L 302.94144 94.193658 
L 303.29856 89.913143 
L 303.65568 90.169497 
L 304.0128 96.172355 
L 304.36992 98.208073 
L 304.72704 98.088668 
L 305.08416 98.19004 
L 305.7984 86.263764 
L 306.15552 91.213917 
L 306.51264 90.605687 
L 306.86976 91.823609 
L 307.22688 85.836347 
L 307.584 99.131139 
L 307.94112 95.414017 
L 308.29824 90.334226 
L 308.65536 90.109064 
L 309.01248 99.580976 
L 309.3696 94.243857 
L 309.72672 85.423062 
L 310.08384 89.089986 
L 310.44096 88.924283 
L 311.1552 93.858352 
L 311.51232 93.384147 
L 311.86944 86.0927 
L 312.58368 95.096256 
L 312.9408 88.92477 
L 313.29792 86.005949 
L 313.65504 87.195116 
L 314.01216 87.759971 
L 314.36928 84.522902 
L 314.7264 84.461006 
L 315.08352 87.384701 
L 315.44064 97.063743 
L 315.79776 88.759066 
L 316.15488 88.042154 
L 316.512 93.010827 
L 316.86912 84.076476 
L 317.22624 94.711726 
L 317.58336 96.410675 
L 317.94048 94.317449 
L 318.2976 82.978446 
L 318.65472 88.683038 
L 319.01184 90.653936 
L 319.36896 95.242952 
L 319.72608 86.541562 
L 320.0832 87.943707 
L 320.44032 83.038392 
L 320.79744 87.965638 
L 321.15456 84.547757 
L 321.51168 94.95687 
L 321.8688 87.721469 
L 322.22592 85.083857 
L 322.58304 91.069657 
L 322.94016 95.142555 
L 323.29728 86.046888 
L 323.6544 92.361658 
L 324.01152 86.570804 
L 324.36864 92.924076 
L 324.72576 89.173813 
L 325.08288 81.006573 
L 325.44 87.853057 
L 325.79712 84.808009 
L 326.15424 89.492549 
L 326.51136 82.189892 
L 326.86848 89.980887 
L 327.2256 81.910145 
L 327.58272 82.965287 
L 327.93984 82.956027 
L 328.29696 92.944545 
L 328.65408 92.834401 
L 329.0112 92.128698 
L 329.36832 91.881118 
L 329.72544 89.509606 
L 330.08256 81.2678 
L 330.43968 80.448542 
L 330.7968 89.43504 
L 331.15392 91.650595 
L 331.51104 79.318833 
L 331.86816 79.99968 
L 332.22528 81.692781 
L 332.5824 89.232784 
L 332.93952 83.612506 
L 333.29664 81.441301 
L 334.01088 87.592318 
L 334.368 76.991671 
L 334.72512 81.568991 
L 335.08224 89.939461 
L 335.43936 81.527077 
L 335.79648 90.045219 
L 336.51072 80.585491 
L 336.86784 84.732955 
L 337.22496 79.184808 
L 337.9392 84.38449 
L 338.29632 89.147008 
L 338.65344 80.742422 
L 339.01056 75.20987 
L 339.36768 78.085315 
L 339.7248 86.529378 
L 340.08192 81.255616 
L 340.43904 86.389504 
L 340.79616 81.157168 
L 341.15328 74.272669 
L 341.5104 76.831329 
L 341.86752 87.386163 
L 342.22464 88.585565 
L 342.58176 77.800208 
L 342.93888 79.105367 
L 343.296 74.786351 
L 343.65312 86.351003 
L 344.36736 75.71088 
L 344.72448 88.215168 
L 345.0816 86.266201 
L 345.43872 85.830986 
L 345.79584 84.926439 
L 346.15296 74.148392 
L 346.51008 87.420766 
L 347.22432 73.999258 
L 347.58144 85.708657 
L 347.93856 80.567458 
L 348.29568 84.523876 
L 348.6528 84.794363 
L 349.00992 84.924002 
L 349.36704 72.13363 
L 350.08128 85.598026 
L 350.4384 79.699951 
L 350.79552 80.56892 
L 351.15264 85.298784 
L 351.50976 73.638122 
L 351.86688 77.40788 
L 352.224 77.141779 
L 352.58112 76.464831 
L 352.93824 81.932564 
L 353.29536 73.924692 
L 353.65248 70.731973 
L 354.0096 82.422364 
L 354.36672 82.760595 
L 354.72384 84.017505 
L 355.08096 76.245517 
L 355.43808 77.802157 
L 355.7952 71.605816 
L 356.15232 77.652049 
L 356.50944 70.799229 
L 356.86656 71.753487 
L 357.22368 70.961034 
L 357.5808 82.695288 
L 357.93792 76.754325 
L 358.29504 77.634504 
L 358.65216 71.495184 
L 359.00928 69.060803 
L 359.3664 82.098267 
L 359.72352 77.977608 
L 360.08064 70.694446 
L 360.43776 78.948436 
L 360.79488 76.417557 
L 361.152 69.714845 
L 361.50912 81.864333 
L 361.86624 77.332826 
L 362.22336 71.181322 
L 362.58048 67.79317 
L 362.9376 78.460585 
L 363.29472 82.31417 
L 364.00896 67.086005 
L 364.7232 75.343407 
L 365.08032 71.979136 
L 365.43744 78.364087 
L 365.79456 71.092622 
L 366.15168 69.716307 
L 366.5088 72.908051 
L 366.86592 69.262084 
L 367.22304 70.476107 
L 367.58016 66.391025 
L 367.93728 78.791505 
L 368.2944 75.577342 
L 369.00864 76.178749 
L 369.36576 74.364781 
L 369.72288 68.380443 
L 370.08 74.222958 
L 370.43712 66.90763 
L 370.79424 64.844133 
L 371.15136 67.537304 
L 371.50848 67.027034 
L 371.8656 68.136274 
L 372.22272 72.27789 
L 372.57984 78.710115 
L 372.93696 66.620573 
L 373.29408 77.292862 
L 373.6512 66.637631 
L 374.00832 74.314095 
L 374.36544 74.635268 
L 374.72256 77.542392 
L 375.07968 74.156677 
L 375.4368 74.706423 
L 375.79392 77.243638 
L 376.15104 70.318201 
L 376.50816 66.7931 
L 376.86528 73.341805 
L 377.2224 75.65532 
L 377.57952 78.933815 
L 377.93664 67.569957 
L 378.29376 66.404671 
L 378.65088 70.158346 
L 379.008 66.345213 
L 379.36512 76.546708 
L 379.72224 69.509665 
L 380.07936 78.052175 
L 380.43648 62.640274 
L 381.15072 70.513634 
L 381.50784 66.952468 
L 381.86496 65.471857 
L 382.22208 77.204649 
L 382.5792 62.326899 
L 382.93632 74.660611 
L 383.29344 65.407038 
L 383.65056 65.403626 
L 384.00768 65.712615 
L 384.3648 63.784117 
L 384.72192 67.238063 
L 385.07904 74.352597 
L 385.43616 60.658166 
L 385.79328 66.160989 
L 386.1504 65.564943 
L 386.50752 62.790382 
L 386.86464 61.450132 
L 387.22176 74.759058 
L 387.57888 64.615559 
L 387.936 63.109605 
L 388.29312 69.259647 
L 388.65024 71.3943 
L 389.00736 60.636235 
L 389.36448 65.336857 
L 389.7216 72.062475 
L 390.07872 59.219469 
L 390.43584 74.969112 
L 390.79296 74.176659 
L 391.15008 65.351478 
L 391.5072 70.050151 
L 391.86432 71.962566 
L 392.22144 63.574063 
L 392.57856 73.149784 
L 392.93568 64.887508 
L 393.2928 64.372365 
L 393.64992 71.131611 
L 394.00704 73.999746 
L 394.36416 69.906379 
L 394.72128 59.825749 
L 395.43552 64.095055 
L 395.79264 63.76316 
L 396.14976 68.489613 
L 396.50688 69.762606 
L 396.864 68.580262 
L 397.22112 71.326069 
L 397.57824 68.45501 
L 397.93536 68.860496 
L 398.29248 67.777087 
L 398.6496 57.667216 
L 399.00672 57.030719 
L 399.72096 64.928446 
L 400.07808 60.939862 
L 400.4352 63.526301 
L 400.79232 58.140933 
L 401.14944 61.501305 
L 401.50656 59.185353 
L 401.86368 62.919046 
L 402.2208 65.108771 
L 402.57792 66.493371 
L 402.93504 62.695346 
L 403.29216 62.009138 
L 403.64928 67.133767 
L 404.0064 56.760232 
L 404.36352 61.667984 
L 404.72064 61.722568 
L 405.07776 60.141561 
L 405.43488 65.074168 
L 405.792 56.70516 
L 406.14912 71.45522 
L 406.50624 68.675785 
L 406.86336 63.273847 
L 407.22048 66.93346 
L 407.5776 59.360804 
L 407.93472 65.357814 
L 408.29184 62.486267 
L 408.64896 67.67669 
L 409.00608 57.669165 
L 409.3632 59.43732 
L 409.72032 63.259226 
L 410.07744 61.315132 
L 410.43456 67.772213 
L 410.79168 54.246898 
L 411.1488 66.874002 
L 411.50592 68.956507 
L 411.86304 56.129583 
L 412.22016 58.27837 
L 412.57728 67.065049 
L 412.9344 64.572671 
L 413.29152 63.117403 
L 413.64864 53.568 
L 414.00576 69.032048 
L 414.36288 60.262427 
L 414.72 68.014433 
L 414.72 68.014433 
" style="fill:none;stroke:#000080;stroke-linecap:square;stroke-width:0.5;"/>
   </g>
   <g id="patch_3">
    <path d="M 57.6 307.584 
L 57.6 41.472 
" style="fill:none;stroke:#000000;stroke-linecap:square;stroke-linejoin:miter;stroke-width:0.8;"/>
   </g>
   <g id="patch_4">
    <path d="M 414.72 307.584 
L 414.72 41.472 
" style="fill:none;stroke:#000000;stroke-linecap:square;stroke-linejoin:miter;stroke-width:0.8;"/>
   </g>
   <g id="patch_5">
    <path d="M 57.6 307.584 
L 414.72 307.584 
" style="fill:none;stroke:#000000;stroke-linecap:square;stroke-linejoin:miter;stroke-width:0.8;"/>
   </g>
   <g id="patch_6">
    <path d="M 57.6 41.472 
L 414.72 41.472 
" style="fill:none;stroke:#000000;stroke-linecap:square;stroke-linejoin:miter;stroke-width:0.8;"/>
   </g>
   <g id="text_15">
    <!-- Test -->
    <defs>
     <path d="M -0.296875 72.90625 
L 61.375 72.90625 
L 61.375 64.59375 
L 35.5 64.59375 
L 35.5 0 
L 25.59375 0 
L 25.59375 64.59375 
L -0.296875 64.59375 
z
" id="DejaVuSans-54"/>
    </defs>
    <g transform="translate(223.341563 35.472)scale(0.12 -0.12)">
     <use xlink:href="#DejaVuSans-54"/>
     <use x="60.818359" xlink:href="#DejaVuSans-65"/>
     <use x="122.341797" xlink:href="#DejaVuSans-73"/>
     <use x="174.441406" xlink:href="#DejaVuSans-74"/>
    </g>
   </g>
   <g id="legend_1">
    <g id="patch_7">
     <path d="M 64.6 64.150125 
L 306.276563 64.150125 
Q 308.276563 64.150125 308.276563 62.150125 
L 308.276563 48.472 
Q 308.276563 46.472 306.276563 46.472 
L 64.6 46.472 
Q 62.6 46.472 62.6 48.472 
L 62.6 62.150125 
Q 62.6 64.150125 64.6 64.150125 
z
" style="fill:#ffffff;opacity:0.8;stroke:#cccccc;stroke-linejoin:miter;"/>
    </g>
    <g id="line2d_26">
     <path d="M 66.6 54.570438 
L 86.6 54.570438 
" style="fill:none;stroke:#000080;stroke-linecap:square;stroke-width:0.5;"/>
    </g>
    <g id="line2d_27"/>
    <g id="text_16">
     <!-- Successful download requests per second -->
     <g transform="translate(94.6 58.070438)scale(0.1 -0.1)">
      <use xlink:href="#DejaVuSans-53"/>
      <use x="63.476562" xlink:href="#DejaVuSans-75"/>
      <use x="126.855469" xlink:href="#DejaVuSans-63"/>
      <use x="181.835938" xlink:href="#DejaVuSans-63"/>
      <use x="236.816406" xlink:href="#DejaVuSans-65"/>
      <use x="298.339844" xlink:href="#DejaVuSans-73"/>
      <use x="350.439453" xlink:href="#DejaVuSans-73"/>
      <use x="402.539062" xlink:href="#DejaVuSans-66"/>
      <use x="437.744141" xlink:href="#DejaVuSans-75"/>
      <use x="501.123047" xlink:href="#DejaVuSans-6c"/>
      <use x="528.90625" xlink:href="#DejaVuSans-20"/>
      <use x="560.693359" xlink:href="#DejaVuSans-64"/>
      <use x="624.169922" xlink:href="#DejaVuSans-6f"/>
      <use x="685.351562" xlink:href="#DejaVuSans-77"/>
      <use x="767.138672" xlink:href="#DejaVuSans-6e"/>
      <use x="830.517578" xlink:href="#DejaVuSans-6c"/>
      <use x="858.300781" xlink:href="#DejaVuSans-6f"/>
      <use x="919.482422" xlink:href="#DejaVuSans-61"/>
      <use x="980.761719" xlink:href="#DejaVuSans-64"/>
      <use x="1044.238281" xlink:href="#DejaVuSans-20"/>
      <use x="1076.025391" xlink:href="#DejaVuSans-72"/>
      <use x="1117.107422" xlink:href="#DejaVuSans-65"/>
      <use x="1178.630859" xlink:href="#DejaVuSans-71"/>
      <use x="1242.107422" xlink:href="#DejaVuSans-75"/>
      <use x="1305.486328" xlink:href="#DejaVuSans-65"/>
      <use x="1367.009766" xlink:href="#DejaVuSans-73"/>
      <use x="1419.109375" xlink:href="#DejaVuSans-74"/>
      <use x="1458.318359" xlink:href="#DejaVuSans-73"/>
      <use x="1510.417969" xlink:href="#DejaVuSans-20"/>
      <use x="1542.205078" xlink:href="#DejaVuSans-70"/>
      <use x="1605.681641" xlink:href="#DejaVuSans-65"/>
      <use x="1667.205078" xlink:href="#DejaVuSans-72"/>
      <use x="1708.318359" xlink:href="#DejaVuSans-20"/>
      <use x="1740.105469" xlink:href="#DejaVuSans-73"/>
      <use x="1792.205078" xlink:href="#DejaVuSans-65"/>
      <use x="1853.728516" xlink:href="#DejaVuSans-63"/>
      <use x="1908.708984" xlink:href="#DejaVuSans-6f"/>
      <use x="1969.890625" xlink:href="#DejaVuSans-6e"/>
      <use x="2033.269531" xlink:href="#DejaVuSans-64"/>
     </g>
    </g>
   </g>
  </g>
 </g>
 <defs>
  <clipPath id="p1075ca067a">
   <rect height="266.112" width="357.12" x="57.6" y="41.472"/>
  </clipPath>
 </defs>
</svg>
