<?xml version="1.0" encoding="utf-8" standalone="no"?>
<!DOCTYPE svg PUBLIC "-//W3C//DTD SVG 1.1//EN"
  "http://www.w3.org/Graphics/SVG/1.1/DTD/svg11.dtd">
<!-- Created with matplotlib (http://matplotlib.org/) -->
<svg height="345pt" version="1.1" viewBox="0 0 460 345" width="460pt" xmlns="http://www.w3.org/2000/svg" xmlns:xlink="http://www.w3.org/1999/xlink">
 <defs>
  <style type="text/css">
*{stroke-linecap:butt;stroke-linejoin:round;}
  </style>
 </defs>
 <g id="figure_1">
  <g id="patch_1">
   <path d="M 0 345.6 
L 460.8 345.6 
L 460.8 0 
L 0 0 
z
" style="fill:#ffffff;"/>
  </g>
  <g id="axes_1">
   <g id="patch_2">
    <path d="M 57.6 307.584 
L 414.72 307.584 
L 414.72 41.472 
L 57.6 41.472 
z
" style="fill:#ffffff;"/>
   </g>
   <g id="matplotlib.axis_1">
    <g id="xtick_1">
     <g id="line2d_1">
      <path clip-path="url(#p8d6d42c194)" d="M 57.6 307.584 
L 57.6 41.472 
" style="fill:none;stroke:#b0b0b0;stroke-linecap:square;stroke-width:0.8;"/>
     </g>
     <g id="line2d_2">
      <defs>
       <path d="M 0 0 
L 0 3.5 
" id="mc173f38824" style="stroke:#000000;stroke-width:0.8;"/>
      </defs>
      <g>
       <use style="stroke:#000000;stroke-width:0.8;" x="57.6" xlink:href="#mc173f38824" y="307.584"/>
      </g>
     </g>
     <g id="text_1">
      <!-- 0 -->
      <defs>
       <path d="M 31.78125 66.40625 
Q 24.171875 66.40625 20.328125 58.90625 
Q 16.5 51.421875 16.5 36.375 
Q 16.5 21.390625 20.328125 13.890625 
Q 24.171875 6.390625 31.78125 6.390625 
Q 39.453125 6.390625 43.28125 13.890625 
Q 47.125 21.390625 47.125 36.375 
Q 47.125 51.421875 43.28125 58.90625 
Q 39.453125 66.40625 31.78125 66.40625 
M 31.78125 74.21875 
Q 44.046875 74.21875 50.515625 64.515625 
Q 56.984375 54.828125 56.984375 36.375 
Q 56.984375 17.96875 50.515625 8.265625 
Q 44.046875 -1.421875 31.78125 -1.421875 
Q 19.53125 -1.421875 13.0625 8.265625 
Q 6.59375 17.96875 6.59375 36.375 
Q 6.59375 54.828125 13.0625 64.515625 
Q 19.53125 74.21875 31.78125 74.21875 
" id="DejaVuSans-30"/>
      </defs>
      <g transform="translate(54.41875 322.182437)scale(0.1 -0.1)">
       <use xlink:href="#DejaVuSans-30"/>
      </g>
     </g>
    </g>
    <g id="xtick_2">
     <g id="line2d_3">
      <path clip-path="url(#p8d6d42c194)" d="M 129.024 307.584 
L 129.024 41.472 
" style="fill:none;stroke:#b0b0b0;stroke-linecap:square;stroke-width:0.8;"/>
     </g>
     <g id="line2d_4">
      <g>
       <use style="stroke:#000000;stroke-width:0.8;" x="129.024" xlink:href="#mc173f38824" y="307.584"/>
      </g>
     </g>
     <g id="text_2">
      <!-- 200 -->
      <defs>
       <path d="M 19.1875 8.296875 
L 53.609375 8.296875 
L 53.609375 0 
L 7.328125 0 
L 7.328125 8.296875 
Q 12.9375 14.109375 22.625 23.890625 
Q 32.328125 33.6875 34.8125 36.53125 
Q 39.546875 41.84375 41.421875 45.53125 
Q 43.3125 49.21875 43.3125 52.78125 
Q 43.3125 58.59375 39.234375 62.25 
Q 35.15625 65.921875 28.609375 65.921875 
Q 23.96875 65.921875 18.8125 64.3125 
Q 13.671875 62.703125 7.8125 59.421875 
L 7.8125 69.390625 
Q 13.765625 71.78125 18.9375 73 
Q 24.125 74.21875 28.421875 74.21875 
Q 39.75 74.21875 46.484375 68.546875 
Q 53.21875 62.890625 53.21875 53.421875 
Q 53.21875 48.921875 51.53125 44.890625 
Q 49.859375 40.875 45.40625 35.40625 
Q 44.1875 33.984375 37.640625 27.21875 
Q 31.109375 20.453125 19.1875 8.296875 
" id="DejaVuSans-32"/>
      </defs>
      <g transform="translate(119.48025 322.182437)scale(0.1 -0.1)">
       <use xlink:href="#DejaVuSans-32"/>
       <use x="63.623047" xlink:href="#DejaVuSans-30"/>
       <use x="127.246094" xlink:href="#DejaVuSans-30"/>
      </g>
     </g>
    </g>
    <g id="xtick_3">
     <g id="line2d_5">
      <path clip-path="url(#p8d6d42c194)" d="M 200.448 307.584 
L 200.448 41.472 
" style="fill:none;stroke:#b0b0b0;stroke-linecap:square;stroke-width:0.8;"/>
     </g>
     <g id="line2d_6">
      <g>
       <use style="stroke:#000000;stroke-width:0.8;" x="200.448" xlink:href="#mc173f38824" y="307.584"/>
      </g>
     </g>
     <g id="text_3">
      <!-- 400 -->
      <defs>
       <path d="M 37.796875 64.3125 
L 12.890625 25.390625 
L 37.796875 25.390625 
z
M 35.203125 72.90625 
L 47.609375 72.90625 
L 47.609375 25.390625 
L 58.015625 25.390625 
L 58.015625 17.1875 
L 47.609375 17.1875 
L 47.609375 0 
L 37.796875 0 
L 37.796875 17.1875 
L 4.890625 17.1875 
L 4.890625 26.703125 
z
" id="DejaVuSans-34"/>
      </defs>
      <g transform="translate(190.90425 322.182437)scale(0.1 -0.1)">
       <use xlink:href="#DejaVuSans-34"/>
       <use x="63.623047" xlink:href="#DejaVuSans-30"/>
       <use x="127.246094" xlink:href="#DejaVuSans-30"/>
      </g>
     </g>
    </g>
    <g id="xtick_4">
     <g id="line2d_7">
      <path clip-path="url(#p8d6d42c194)" d="M 271.872 307.584 
L 271.872 41.472 
" style="fill:none;stroke:#b0b0b0;stroke-linecap:square;stroke-width:0.8;"/>
     </g>
     <g id="line2d_8">
      <g>
       <use style="stroke:#000000;stroke-width:0.8;" x="271.872" xlink:href="#mc173f38824" y="307.584"/>
      </g>
     </g>
     <g id="text_4">
      <!-- 600 -->
      <defs>
       <path d="M 33.015625 40.375 
Q 26.375 40.375 22.484375 35.828125 
Q 18.609375 31.296875 18.609375 23.390625 
Q 18.609375 15.53125 22.484375 10.953125 
Q 26.375 6.390625 33.015625 6.390625 
Q 39.65625 6.390625 43.53125 10.953125 
Q 47.40625 15.53125 47.40625 23.390625 
Q 47.40625 31.296875 43.53125 35.828125 
Q 39.65625 40.375 33.015625 40.375 
M 52.59375 71.296875 
L 52.59375 62.3125 
Q 48.875 64.0625 45.09375 64.984375 
Q 41.3125 65.921875 37.59375 65.921875 
Q 27.828125 65.921875 22.671875 59.328125 
Q 17.53125 52.734375 16.796875 39.40625 
Q 19.671875 43.65625 24.015625 45.921875 
Q 28.375 48.1875 33.59375 48.1875 
Q 44.578125 48.1875 50.953125 41.515625 
Q 57.328125 34.859375 57.328125 23.390625 
Q 57.328125 12.15625 50.6875 5.359375 
Q 44.046875 -1.421875 33.015625 -1.421875 
Q 20.359375 -1.421875 13.671875 8.265625 
Q 6.984375 17.96875 6.984375 36.375 
Q 6.984375 53.65625 15.1875 63.9375 
Q 23.390625 74.21875 37.203125 74.21875 
Q 40.921875 74.21875 44.703125 73.484375 
Q 48.484375 72.75 52.59375 71.296875 
" id="DejaVuSans-36"/>
      </defs>
      <g transform="translate(262.32825 322.182437)scale(0.1 -0.1)">
       <use xlink:href="#DejaVuSans-36"/>
       <use x="63.623047" xlink:href="#DejaVuSans-30"/>
       <use x="127.246094" xlink:href="#DejaVuSans-30"/>
      </g>
     </g>
    </g>
    <g id="xtick_5">
     <g id="line2d_9">
      <path clip-path="url(#p8d6d42c194)" d="M 343.296 307.584 
L 343.296 41.472 
" style="fill:none;stroke:#b0b0b0;stroke-linecap:square;stroke-width:0.8;"/>
     </g>
     <g id="line2d_10">
      <g>
       <use style="stroke:#000000;stroke-width:0.8;" x="343.296" xlink:href="#mc173f38824" y="307.584"/>
      </g>
     </g>
     <g id="text_5">
      <!-- 800 -->
      <defs>
       <path d="M 31.78125 34.625 
Q 24.75 34.625 20.71875 30.859375 
Q 16.703125 27.09375 16.703125 20.515625 
Q 16.703125 13.921875 20.71875 10.15625 
Q 24.75 6.390625 31.78125 6.390625 
Q 38.8125 6.390625 42.859375 10.171875 
Q 46.921875 13.96875 46.921875 20.515625 
Q 46.921875 27.09375 42.890625 30.859375 
Q 38.875 34.625 31.78125 34.625 
M 21.921875 38.8125 
Q 15.578125 40.375 12.03125 44.71875 
Q 8.5 49.078125 8.5 55.328125 
Q 8.5 64.0625 14.71875 69.140625 
Q 20.953125 74.21875 31.78125 74.21875 
Q 42.671875 74.21875 48.875 69.140625 
Q 55.078125 64.0625 55.078125 55.328125 
Q 55.078125 49.078125 51.53125 44.71875 
Q 48 40.375 41.703125 38.8125 
Q 48.828125 37.15625 52.796875 32.3125 
Q 56.78125 27.484375 56.78125 20.515625 
Q 56.78125 9.90625 50.3125 4.234375 
Q 43.84375 -1.421875 31.78125 -1.421875 
Q 19.734375 -1.421875 13.25 4.234375 
Q 6.78125 9.90625 6.78125 20.515625 
Q 6.78125 27.484375 10.78125 32.3125 
Q 14.796875 37.15625 21.921875 38.8125 
M 18.3125 54.390625 
Q 18.3125 48.734375 21.84375 45.5625 
Q 25.390625 42.390625 31.78125 42.390625 
Q 38.140625 42.390625 41.71875 45.5625 
Q 45.3125 48.734375 45.3125 54.390625 
Q 45.3125 60.0625 41.71875 63.234375 
Q 38.140625 66.40625 31.78125 66.40625 
Q 25.390625 66.40625 21.84375 63.234375 
Q 18.3125 60.0625 18.3125 54.390625 
" id="DejaVuSans-38"/>
      </defs>
      <g transform="translate(333.75225 322.182437)scale(0.1 -0.1)">
       <use xlink:href="#DejaVuSans-38"/>
       <use x="63.623047" xlink:href="#DejaVuSans-30"/>
       <use x="127.246094" xlink:href="#DejaVuSans-30"/>
      </g>
     </g>
    </g>
    <g id="xtick_6">
     <g id="line2d_11">
      <path clip-path="url(#p8d6d42c194)" d="M 414.72 307.584 
L 414.72 41.472 
" style="fill:none;stroke:#b0b0b0;stroke-linecap:square;stroke-width:0.8;"/>
     </g>
     <g id="line2d_12">
      <g>
       <use style="stroke:#000000;stroke-width:0.8;" x="414.72" xlink:href="#mc173f38824" y="307.584"/>
      </g>
     </g>
     <g id="text_6">
      <!-- 1000 -->
      <defs>
       <path d="M 12.40625 8.296875 
L 28.515625 8.296875 
L 28.515625 63.921875 
L 10.984375 60.40625 
L 10.984375 69.390625 
L 28.421875 72.90625 
L 38.28125 72.90625 
L 38.28125 8.296875 
L 54.390625 8.296875 
L 54.390625 0 
L 12.40625 0 
z
" id="DejaVuSans-31"/>
      </defs>
      <g transform="translate(401.995 322.182437)scale(0.1 -0.1)">
       <use xlink:href="#DejaVuSans-31"/>
       <use x="63.623047" xlink:href="#DejaVuSans-30"/>
       <use x="127.246094" xlink:href="#DejaVuSans-30"/>
       <use x="190.869141" xlink:href="#DejaVuSans-30"/>
      </g>
     </g>
    </g>
    <g id="text_7">
     <!-- Number of clients -->
     <defs>
      <path d="M 9.8125 72.90625 
L 23.09375 72.90625 
L 55.421875 11.921875 
L 55.421875 72.90625 
L 64.984375 72.90625 
L 64.984375 0 
L 51.703125 0 
L 19.390625 60.984375 
L 19.390625 0 
L 9.8125 0 
z
" id="DejaVuSans-4e"/>
      <path d="M 8.5 21.578125 
L 8.5 54.6875 
L 17.484375 54.6875 
L 17.484375 21.921875 
Q 17.484375 14.15625 20.5 10.265625 
Q 23.53125 6.390625 29.59375 6.390625 
Q 36.859375 6.390625 41.078125 11.03125 
Q 45.3125 15.671875 45.3125 23.6875 
L 45.3125 54.6875 
L 54.296875 54.6875 
L 54.296875 0 
L 45.3125 0 
L 45.3125 8.40625 
Q 42.046875 3.421875 37.71875 1 
Q 33.40625 -1.421875 27.6875 -1.421875 
Q 18.265625 -1.421875 13.375 4.4375 
Q 8.5 10.296875 8.5 21.578125 
M 31.109375 56 
z
" id="DejaVuSans-75"/>
      <path d="M 52 44.1875 
Q 55.375 50.25 60.0625 53.125 
Q 64.75 56 71.09375 56 
Q 79.640625 56 84.28125 50.015625 
Q 88.921875 44.046875 88.921875 33.015625 
L 88.921875 0 
L 79.890625 0 
L 79.890625 32.71875 
Q 79.890625 40.578125 77.09375 44.375 
Q 74.3125 48.1875 68.609375 48.1875 
Q 61.625 48.1875 57.5625 43.546875 
Q 53.515625 38.921875 53.515625 30.90625 
L 53.515625 0 
L 44.484375 0 
L 44.484375 32.71875 
Q 44.484375 40.625 41.703125 44.40625 
Q 38.921875 48.1875 33.109375 48.1875 
Q 26.21875 48.1875 22.15625 43.53125 
Q 18.109375 38.875 18.109375 30.90625 
L 18.109375 0 
L 9.078125 0 
L 9.078125 54.6875 
L 18.109375 54.6875 
L 18.109375 46.1875 
Q 21.1875 51.21875 25.484375 53.609375 
Q 29.78125 56 35.6875 56 
Q 41.65625 56 45.828125 52.96875 
Q 50 49.953125 52 44.1875 
" id="DejaVuSans-6d"/>
      <path d="M 48.6875 27.296875 
Q 48.6875 37.203125 44.609375 42.84375 
Q 40.53125 48.484375 33.40625 48.484375 
Q 26.265625 48.484375 22.1875 42.84375 
Q 18.109375 37.203125 18.109375 27.296875 
Q 18.109375 17.390625 22.1875 11.75 
Q 26.265625 6.109375 33.40625 6.109375 
Q 40.53125 6.109375 44.609375 11.75 
Q 48.6875 17.390625 48.6875 27.296875 
M 18.109375 46.390625 
Q 20.953125 51.265625 25.265625 53.625 
Q 29.59375 56 35.59375 56 
Q 45.5625 56 51.78125 48.09375 
Q 58.015625 40.1875 58.015625 27.296875 
Q 58.015625 14.40625 51.78125 6.484375 
Q 45.5625 -1.421875 35.59375 -1.421875 
Q 29.59375 -1.421875 25.265625 0.953125 
Q 20.953125 3.328125 18.109375 8.203125 
L 18.109375 0 
L 9.078125 0 
L 9.078125 75.984375 
L 18.109375 75.984375 
z
" id="DejaVuSans-62"/>
      <path d="M 56.203125 29.59375 
L 56.203125 25.203125 
L 14.890625 25.203125 
Q 15.484375 15.921875 20.484375 11.0625 
Q 25.484375 6.203125 34.421875 6.203125 
Q 39.59375 6.203125 44.453125 7.46875 
Q 49.3125 8.734375 54.109375 11.28125 
L 54.109375 2.78125 
Q 49.265625 0.734375 44.1875 -0.34375 
Q 39.109375 -1.421875 33.890625 -1.421875 
Q 20.796875 -1.421875 13.15625 6.1875 
Q 5.515625 13.8125 5.515625 26.8125 
Q 5.515625 40.234375 12.765625 48.109375 
Q 20.015625 56 32.328125 56 
Q 43.359375 56 49.78125 48.890625 
Q 56.203125 41.796875 56.203125 29.59375 
M 47.21875 32.234375 
Q 47.125 39.59375 43.09375 43.984375 
Q 39.0625 48.390625 32.421875 48.390625 
Q 24.90625 48.390625 20.390625 44.140625 
Q 15.875 39.890625 15.1875 32.171875 
z
" id="DejaVuSans-65"/>
      <path d="M 41.109375 46.296875 
Q 39.59375 47.171875 37.8125 47.578125 
Q 36.03125 48 33.890625 48 
Q 26.265625 48 22.1875 43.046875 
Q 18.109375 38.09375 18.109375 28.8125 
L 18.109375 0 
L 9.078125 0 
L 9.078125 54.6875 
L 18.109375 54.6875 
L 18.109375 46.1875 
Q 20.953125 51.171875 25.484375 53.578125 
Q 30.03125 56 36.53125 56 
Q 37.453125 56 38.578125 55.875 
Q 39.703125 55.765625 41.0625 55.515625 
z
" id="DejaVuSans-72"/>
      <path id="DejaVuSans-20"/>
      <path d="M 30.609375 48.390625 
Q 23.390625 48.390625 19.1875 42.75 
Q 14.984375 37.109375 14.984375 27.296875 
Q 14.984375 17.484375 19.15625 11.84375 
Q 23.34375 6.203125 30.609375 6.203125 
Q 37.796875 6.203125 41.984375 11.859375 
Q 46.1875 17.53125 46.1875 27.296875 
Q 46.1875 37.015625 41.984375 42.703125 
Q 37.796875 48.390625 30.609375 48.390625 
M 30.609375 56 
Q 42.328125 56 49.015625 48.375 
Q 55.71875 40.765625 55.71875 27.296875 
Q 55.71875 13.875 49.015625 6.21875 
Q 42.328125 -1.421875 30.609375 -1.421875 
Q 18.84375 -1.421875 12.171875 6.21875 
Q 5.515625 13.875 5.515625 27.296875 
Q 5.515625 40.765625 12.171875 48.375 
Q 18.84375 56 30.609375 56 
" id="DejaVuSans-6f"/>
      <path d="M 37.109375 75.984375 
L 37.109375 68.5 
L 28.515625 68.5 
Q 23.6875 68.5 21.796875 66.546875 
Q 19.921875 64.59375 19.921875 59.515625 
L 19.921875 54.6875 
L 34.71875 54.6875 
L 34.71875 47.703125 
L 19.921875 47.703125 
L 19.921875 0 
L 10.890625 0 
L 10.890625 47.703125 
L 2.296875 47.703125 
L 2.296875 54.6875 
L 10.890625 54.6875 
L 10.890625 58.5 
Q 10.890625 67.625 15.140625 71.796875 
Q 19.390625 75.984375 28.609375 75.984375 
z
" id="DejaVuSans-66"/>
      <path d="M 48.78125 52.59375 
L 48.78125 44.1875 
Q 44.96875 46.296875 41.140625 47.34375 
Q 37.3125 48.390625 33.40625 48.390625 
Q 24.65625 48.390625 19.8125 42.84375 
Q 14.984375 37.3125 14.984375 27.296875 
Q 14.984375 17.28125 19.8125 11.734375 
Q 24.65625 6.203125 33.40625 6.203125 
Q 37.3125 6.203125 41.140625 7.25 
Q 44.96875 8.296875 48.78125 10.40625 
L 48.78125 2.09375 
Q 45.015625 0.34375 40.984375 -0.53125 
Q 36.96875 -1.421875 32.421875 -1.421875 
Q 20.0625 -1.421875 12.78125 6.34375 
Q 5.515625 14.109375 5.515625 27.296875 
Q 5.515625 40.671875 12.859375 48.328125 
Q 20.21875 56 33.015625 56 
Q 37.15625 56 41.109375 55.140625 
Q 45.0625 54.296875 48.78125 52.59375 
" id="DejaVuSans-63"/>
      <path d="M 9.421875 75.984375 
L 18.40625 75.984375 
L 18.40625 0 
L 9.421875 0 
z
" id="DejaVuSans-6c"/>
      <path d="M 9.421875 54.6875 
L 18.40625 54.6875 
L 18.40625 0 
L 9.421875 0 
z
M 9.421875 75.984375 
L 18.40625 75.984375 
L 18.40625 64.59375 
L 9.421875 64.59375 
z
" id="DejaVuSans-69"/>
      <path d="M 54.890625 33.015625 
L 54.890625 0 
L 45.90625 0 
L 45.90625 32.71875 
Q 45.90625 40.484375 42.875 44.328125 
Q 39.84375 48.1875 33.796875 48.1875 
Q 26.515625 48.1875 22.3125 43.546875 
Q 18.109375 38.921875 18.109375 30.90625 
L 18.109375 0 
L 9.078125 0 
L 9.078125 54.6875 
L 18.109375 54.6875 
L 18.109375 46.1875 
Q 21.34375 51.125 25.703125 53.5625 
Q 30.078125 56 35.796875 56 
Q 45.21875 56 50.046875 50.171875 
Q 54.890625 44.34375 54.890625 33.015625 
" id="DejaVuSans-6e"/>
      <path d="M 18.3125 70.21875 
L 18.3125 54.6875 
L 36.8125 54.6875 
L 36.8125 47.703125 
L 18.3125 47.703125 
L 18.3125 18.015625 
Q 18.3125 11.328125 20.140625 9.421875 
Q 21.96875 7.515625 27.59375 7.515625 
L 36.8125 7.515625 
L 36.8125 0 
L 27.59375 0 
Q 17.1875 0 13.234375 3.875 
Q 9.28125 7.765625 9.28125 18.015625 
L 9.28125 47.703125 
L 2.6875 47.703125 
L 2.6875 54.6875 
L 9.28125 54.6875 
L 9.28125 70.21875 
z
" id="DejaVuSans-74"/>
      <path d="M 44.28125 53.078125 
L 44.28125 44.578125 
Q 40.484375 46.53125 36.375 47.5 
Q 32.28125 48.484375 27.875 48.484375 
Q 21.1875 48.484375 17.84375 46.4375 
Q 14.5 44.390625 14.5 40.28125 
Q 14.5 37.15625 16.890625 35.375 
Q 19.28125 33.59375 26.515625 31.984375 
L 29.59375 31.296875 
Q 39.15625 29.25 43.1875 25.515625 
Q 47.21875 21.78125 47.21875 15.09375 
Q 47.21875 7.46875 41.1875 3.015625 
Q 35.15625 -1.421875 24.609375 -1.421875 
Q 20.21875 -1.421875 15.453125 -0.5625 
Q 10.6875 0.296875 5.421875 2 
L 5.421875 11.28125 
Q 10.40625 8.6875 15.234375 7.390625 
Q 20.0625 6.109375 24.8125 6.109375 
Q 31.15625 6.109375 34.5625 8.28125 
Q 37.984375 10.453125 37.984375 14.40625 
Q 37.984375 18.0625 35.515625 20.015625 
Q 33.0625 21.96875 24.703125 23.78125 
L 21.578125 24.515625 
Q 13.234375 26.265625 9.515625 29.90625 
Q 5.8125 33.546875 5.8125 39.890625 
Q 5.8125 47.609375 11.28125 51.796875 
Q 16.75 56 26.8125 56 
Q 31.78125 56 36.171875 55.265625 
Q 40.578125 54.546875 44.28125 53.078125 
" id="DejaVuSans-73"/>
     </defs>
     <g transform="translate(191.738906 335.860562)scale(0.1 -0.1)">
      <use xlink:href="#DejaVuSans-4e"/>
      <use x="74.804688" xlink:href="#DejaVuSans-75"/>
      <use x="138.183594" xlink:href="#DejaVuSans-6d"/>
      <use x="235.595703" xlink:href="#DejaVuSans-62"/>
      <use x="299.072266" xlink:href="#DejaVuSans-65"/>
      <use x="360.595703" xlink:href="#DejaVuSans-72"/>
      <use x="401.708984" xlink:href="#DejaVuSans-20"/>
      <use x="433.496094" xlink:href="#DejaVuSans-6f"/>
      <use x="494.677734" xlink:href="#DejaVuSans-66"/>
      <use x="529.882812" xlink:href="#DejaVuSans-20"/>
      <use x="561.669922" xlink:href="#DejaVuSans-63"/>
      <use x="616.650391" xlink:href="#DejaVuSans-6c"/>
      <use x="644.433594" xlink:href="#DejaVuSans-69"/>
      <use x="672.216797" xlink:href="#DejaVuSans-65"/>
      <use x="733.740234" xlink:href="#DejaVuSans-6e"/>
      <use x="797.119141" xlink:href="#DejaVuSans-74"/>
      <use x="836.328125" xlink:href="#DejaVuSans-73"/>
     </g>
    </g>
   </g>
   <g id="matplotlib.axis_2">
    <g id="ytick_1">
     <g id="line2d_13">
      <path clip-path="url(#p8d6d42c194)" d="M 57.6 295.918423 
L 414.72 295.918423 
" style="fill:none;stroke:#b0b0b0;stroke-linecap:square;stroke-width:0.8;"/>
     </g>
     <g id="line2d_14">
      <defs>
       <path d="M 0 0 
L -3.5 0 
" id="mb70b3e0132" style="stroke:#000000;stroke-width:0.8;"/>
      </defs>
      <g>
       <use style="stroke:#000000;stroke-width:0.8;" x="57.6" xlink:href="#mb70b3e0132" y="295.918423"/>
      </g>
     </g>
     <g id="text_8">
      <!-- 0 -->
      <g transform="translate(44.2375 299.717642)scale(0.1 -0.1)">
       <use xlink:href="#DejaVuSans-30"/>
      </g>
     </g>
    </g>
    <g id="ytick_2">
     <g id="line2d_15">
      <path clip-path="url(#p8d6d42c194)" d="M 57.6 252.087175 
L 414.72 252.087175 
" style="fill:none;stroke:#b0b0b0;stroke-linecap:square;stroke-width:0.8;"/>
     </g>
     <g id="line2d_16">
      <g>
       <use style="stroke:#000000;stroke-width:0.8;" x="57.6" xlink:href="#mb70b3e0132" y="252.087175"/>
      </g>
     </g>
     <g id="text_9">
      <!-- 100 -->
      <g transform="translate(31.5125 255.886393)scale(0.1 -0.1)">
       <use xlink:href="#DejaVuSans-31"/>
       <use x="63.623047" xlink:href="#DejaVuSans-30"/>
       <use x="127.246094" xlink:href="#DejaVuSans-30"/>
      </g>
     </g>
    </g>
    <g id="ytick_3">
     <g id="line2d_17">
      <path clip-path="url(#p8d6d42c194)" d="M 57.6 208.255926 
L 414.72 208.255926 
" style="fill:none;stroke:#b0b0b0;stroke-linecap:square;stroke-width:0.8;"/>
     </g>
     <g id="line2d_18">
      <g>
       <use style="stroke:#000000;stroke-width:0.8;" x="57.6" xlink:href="#mb70b3e0132" y="208.255926"/>
      </g>
     </g>
     <g id="text_10">
      <!-- 200 -->
      <g transform="translate(31.5125 212.055145)scale(0.1 -0.1)">
       <use xlink:href="#DejaVuSans-32"/>
       <use x="63.623047" xlink:href="#DejaVuSans-30"/>
       <use x="127.246094" xlink:href="#DejaVuSans-30"/>
      </g>
     </g>
    </g>
    <g id="ytick_4">
     <g id="line2d_19">
      <path clip-path="url(#p8d6d42c194)" d="M 57.6 164.424678 
L 414.72 164.424678 
" style="fill:none;stroke:#b0b0b0;stroke-linecap:square;stroke-width:0.8;"/>
     </g>
     <g id="line2d_20">
      <g>
       <use style="stroke:#000000;stroke-width:0.8;" x="57.6" xlink:href="#mb70b3e0132" y="164.424678"/>
      </g>
     </g>
     <g id="text_11">
      <!-- 300 -->
      <defs>
       <path d="M 40.578125 39.3125 
Q 47.65625 37.796875 51.625 33 
Q 55.609375 28.21875 55.609375 21.1875 
Q 55.609375 10.40625 48.1875 4.484375 
Q 40.765625 -1.421875 27.09375 -1.421875 
Q 22.515625 -1.421875 17.65625 -0.515625 
Q 12.796875 0.390625 7.625 2.203125 
L 7.625 11.71875 
Q 11.71875 9.328125 16.59375 8.109375 
Q 21.484375 6.890625 26.8125 6.890625 
Q 36.078125 6.890625 40.9375 10.546875 
Q 45.796875 14.203125 45.796875 21.1875 
Q 45.796875 27.640625 41.28125 31.265625 
Q 36.765625 34.90625 28.71875 34.90625 
L 20.21875 34.90625 
L 20.21875 43.015625 
L 29.109375 43.015625 
Q 36.375 43.015625 40.234375 45.921875 
Q 44.09375 48.828125 44.09375 54.296875 
Q 44.09375 59.90625 40.109375 62.90625 
Q 36.140625 65.921875 28.71875 65.921875 
Q 24.65625 65.921875 20.015625 65.03125 
Q 15.375 64.15625 9.8125 62.3125 
L 9.8125 71.09375 
Q 15.4375 72.65625 20.34375 73.4375 
Q 25.25 74.21875 29.59375 74.21875 
Q 40.828125 74.21875 47.359375 69.109375 
Q 53.90625 64.015625 53.90625 55.328125 
Q 53.90625 49.265625 50.4375 45.09375 
Q 46.96875 40.921875 40.578125 39.3125 
" id="DejaVuSans-33"/>
      </defs>
      <g transform="translate(31.5125 168.223897)scale(0.1 -0.1)">
       <use xlink:href="#DejaVuSans-33"/>
       <use x="63.623047" xlink:href="#DejaVuSans-30"/>
       <use x="127.246094" xlink:href="#DejaVuSans-30"/>
      </g>
     </g>
    </g>
    <g id="ytick_5">
     <g id="line2d_21">
      <path clip-path="url(#p8d6d42c194)" d="M 57.6 120.59343 
L 414.72 120.59343 
" style="fill:none;stroke:#b0b0b0;stroke-linecap:square;stroke-width:0.8;"/>
     </g>
     <g id="line2d_22">
      <g>
       <use style="stroke:#000000;stroke-width:0.8;" x="57.6" xlink:href="#mb70b3e0132" y="120.59343"/>
      </g>
     </g>
     <g id="text_12">
      <!-- 400 -->
      <g transform="translate(31.5125 124.392649)scale(0.1 -0.1)">
       <use xlink:href="#DejaVuSans-34"/>
       <use x="63.623047" xlink:href="#DejaVuSans-30"/>
       <use x="127.246094" xlink:href="#DejaVuSans-30"/>
      </g>
     </g>
    </g>
    <g id="ytick_6">
     <g id="line2d_23">
      <path clip-path="url(#p8d6d42c194)" d="M 57.6 76.762182 
L 414.72 76.762182 
" style="fill:none;stroke:#b0b0b0;stroke-linecap:square;stroke-width:0.8;"/>
     </g>
     <g id="line2d_24">
      <g>
       <use style="stroke:#000000;stroke-width:0.8;" x="57.6" xlink:href="#mb70b3e0132" y="76.762182"/>
      </g>
     </g>
     <g id="text_13">
      <!-- 500 -->
      <defs>
       <path d="M 10.796875 72.90625 
L 49.515625 72.90625 
L 49.515625 64.59375 
L 19.828125 64.59375 
L 19.828125 46.734375 
Q 21.96875 47.46875 24.109375 47.828125 
Q 26.265625 48.1875 28.421875 48.1875 
Q 40.625 48.1875 47.75 41.5 
Q 54.890625 34.8125 54.890625 23.390625 
Q 54.890625 11.625 47.5625 5.09375 
Q 40.234375 -1.421875 26.90625 -1.421875 
Q 22.3125 -1.421875 17.546875 -0.640625 
Q 12.796875 0.140625 7.71875 1.703125 
L 7.71875 11.625 
Q 12.109375 9.234375 16.796875 8.0625 
Q 21.484375 6.890625 26.703125 6.890625 
Q 35.15625 6.890625 40.078125 11.328125 
Q 45.015625 15.765625 45.015625 23.390625 
Q 45.015625 31 40.078125 35.4375 
Q 35.15625 39.890625 26.703125 39.890625 
Q 22.75 39.890625 18.8125 39.015625 
Q 14.890625 38.140625 10.796875 36.28125 
z
" id="DejaVuSans-35"/>
      </defs>
      <g transform="translate(31.5125 80.5614)scale(0.1 -0.1)">
       <use xlink:href="#DejaVuSans-35"/>
       <use x="63.623047" xlink:href="#DejaVuSans-30"/>
       <use x="127.246094" xlink:href="#DejaVuSans-30"/>
      </g>
     </g>
    </g>
    <g id="text_14">
     <!-- Successful download requests per second -->
     <defs>
      <path d="M 53.515625 70.515625 
L 53.515625 60.890625 
Q 47.90625 63.578125 42.921875 64.890625 
Q 37.9375 66.21875 33.296875 66.21875 
Q 25.25 66.21875 20.875 63.09375 
Q 16.5 59.96875 16.5 54.203125 
Q 16.5 49.359375 19.40625 46.890625 
Q 22.3125 44.4375 30.421875 42.921875 
L 36.375 41.703125 
Q 47.40625 39.59375 52.65625 34.296875 
Q 57.90625 29 57.90625 20.125 
Q 57.90625 9.515625 50.796875 4.046875 
Q 43.703125 -1.421875 29.984375 -1.421875 
Q 24.8125 -1.421875 18.96875 -0.25 
Q 13.140625 0.921875 6.890625 3.21875 
L 6.890625 13.375 
Q 12.890625 10.015625 18.65625 8.296875 
Q 24.421875 6.59375 29.984375 6.59375 
Q 38.421875 6.59375 43.015625 9.90625 
Q 47.609375 13.234375 47.609375 19.390625 
Q 47.609375 24.75 44.3125 27.78125 
Q 41.015625 30.8125 33.5 32.328125 
L 27.484375 33.5 
Q 16.453125 35.6875 11.515625 40.375 
Q 6.59375 45.0625 6.59375 53.421875 
Q 6.59375 63.09375 13.40625 68.65625 
Q 20.21875 74.21875 32.171875 74.21875 
Q 37.3125 74.21875 42.625 73.28125 
Q 47.953125 72.359375 53.515625 70.515625 
" id="DejaVuSans-53"/>
      <path d="M 45.40625 46.390625 
L 45.40625 75.984375 
L 54.390625 75.984375 
L 54.390625 0 
L 45.40625 0 
L 45.40625 8.203125 
Q 42.578125 3.328125 38.25 0.953125 
Q 33.9375 -1.421875 27.875 -1.421875 
Q 17.96875 -1.421875 11.734375 6.484375 
Q 5.515625 14.40625 5.515625 27.296875 
Q 5.515625 40.1875 11.734375 48.09375 
Q 17.96875 56 27.875 56 
Q 33.9375 56 38.25 53.625 
Q 42.578125 51.265625 45.40625 46.390625 
M 14.796875 27.296875 
Q 14.796875 17.390625 18.875 11.75 
Q 22.953125 6.109375 30.078125 6.109375 
Q 37.203125 6.109375 41.296875 11.75 
Q 45.40625 17.390625 45.40625 27.296875 
Q 45.40625 37.203125 41.296875 42.84375 
Q 37.203125 48.484375 30.078125 48.484375 
Q 22.953125 48.484375 18.875 42.84375 
Q 14.796875 37.203125 14.796875 27.296875 
" id="DejaVuSans-64"/>
      <path d="M 4.203125 54.6875 
L 13.1875 54.6875 
L 24.421875 12.015625 
L 35.59375 54.6875 
L 46.1875 54.6875 
L 57.421875 12.015625 
L 68.609375 54.6875 
L 77.59375 54.6875 
L 63.28125 0 
L 52.6875 0 
L 40.921875 44.828125 
L 29.109375 0 
L 18.5 0 
z
" id="DejaVuSans-77"/>
      <path d="M 34.28125 27.484375 
Q 23.390625 27.484375 19.1875 25 
Q 14.984375 22.515625 14.984375 16.5 
Q 14.984375 11.71875 18.140625 8.90625 
Q 21.296875 6.109375 26.703125 6.109375 
Q 34.1875 6.109375 38.703125 11.40625 
Q 43.21875 16.703125 43.21875 25.484375 
L 43.21875 27.484375 
z
M 52.203125 31.203125 
L 52.203125 0 
L 43.21875 0 
L 43.21875 8.296875 
Q 40.140625 3.328125 35.546875 0.953125 
Q 30.953125 -1.421875 24.3125 -1.421875 
Q 15.921875 -1.421875 10.953125 3.296875 
Q 6 8.015625 6 15.921875 
Q 6 25.140625 12.171875 29.828125 
Q 18.359375 34.515625 30.609375 34.515625 
L 43.21875 34.515625 
L 43.21875 35.40625 
Q 43.21875 41.609375 39.140625 45 
Q 35.0625 48.390625 27.6875 48.390625 
Q 23 48.390625 18.546875 47.265625 
Q 14.109375 46.140625 10.015625 43.890625 
L 10.015625 52.203125 
Q 14.9375 54.109375 19.578125 55.046875 
Q 24.21875 56 28.609375 56 
Q 40.484375 56 46.34375 49.84375 
Q 52.203125 43.703125 52.203125 31.203125 
" id="DejaVuSans-61"/>
      <path d="M 14.796875 27.296875 
Q 14.796875 17.390625 18.875 11.75 
Q 22.953125 6.109375 30.078125 6.109375 
Q 37.203125 6.109375 41.296875 11.75 
Q 45.40625 17.390625 45.40625 27.296875 
Q 45.40625 37.203125 41.296875 42.84375 
Q 37.203125 48.484375 30.078125 48.484375 
Q 22.953125 48.484375 18.875 42.84375 
Q 14.796875 37.203125 14.796875 27.296875 
M 45.40625 8.203125 
Q 42.578125 3.328125 38.25 0.953125 
Q 33.9375 -1.421875 27.875 -1.421875 
Q 17.96875 -1.421875 11.734375 6.484375 
Q 5.515625 14.40625 5.515625 27.296875 
Q 5.515625 40.1875 11.734375 48.09375 
Q 17.96875 56 27.875 56 
Q 33.9375 56 38.25 53.625 
Q 42.578125 51.265625 45.40625 46.390625 
L 45.40625 54.6875 
L 54.390625 54.6875 
L 54.390625 -20.796875 
L 45.40625 -20.796875 
z
" id="DejaVuSans-71"/>
      <path d="M 18.109375 8.203125 
L 18.109375 -20.796875 
L 9.078125 -20.796875 
L 9.078125 54.6875 
L 18.109375 54.6875 
L 18.109375 46.390625 
Q 20.953125 51.265625 25.265625 53.625 
Q 29.59375 56 35.59375 56 
Q 45.5625 56 51.78125 48.09375 
Q 58.015625 40.1875 58.015625 27.296875 
Q 58.015625 14.40625 51.78125 6.484375 
Q 45.5625 -1.421875 35.59375 -1.421875 
Q 29.59375 -1.421875 25.265625 0.953125 
Q 20.953125 3.328125 18.109375 8.203125 
M 48.6875 27.296875 
Q 48.6875 37.203125 44.609375 42.84375 
Q 40.53125 48.484375 33.40625 48.484375 
Q 26.265625 48.484375 22.1875 42.84375 
Q 18.109375 37.203125 18.109375 27.296875 
Q 18.109375 17.390625 22.1875 11.75 
Q 26.265625 6.109375 33.40625 6.109375 
Q 40.53125 6.109375 44.609375 11.75 
Q 48.6875 17.390625 48.6875 27.296875 
" id="DejaVuSans-70"/>
     </defs>
     <g transform="translate(25.432812 279.366281)rotate(-90)scale(0.1 -0.1)">
      <use xlink:href="#DejaVuSans-53"/>
      <use x="63.476562" xlink:href="#DejaVuSans-75"/>
      <use x="126.855469" xlink:href="#DejaVuSans-63"/>
      <use x="181.835938" xlink:href="#DejaVuSans-63"/>
      <use x="236.816406" xlink:href="#DejaVuSans-65"/>
      <use x="298.339844" xlink:href="#DejaVuSans-73"/>
      <use x="350.439453" xlink:href="#DejaVuSans-73"/>
      <use x="402.539062" xlink:href="#DejaVuSans-66"/>
      <use x="437.744141" xlink:href="#DejaVuSans-75"/>
      <use x="501.123047" xlink:href="#DejaVuSans-6c"/>
      <use x="528.90625" xlink:href="#DejaVuSans-20"/>
      <use x="560.693359" xlink:href="#DejaVuSans-64"/>
      <use x="624.169922" xlink:href="#DejaVuSans-6f"/>
      <use x="685.351562" xlink:href="#DejaVuSans-77"/>
      <use x="767.138672" xlink:href="#DejaVuSans-6e"/>
      <use x="830.517578" xlink:href="#DejaVuSans-6c"/>
      <use x="858.300781" xlink:href="#DejaVuSans-6f"/>
      <use x="919.482422" xlink:href="#DejaVuSans-61"/>
      <use x="980.761719" xlink:href="#DejaVuSans-64"/>
      <use x="1044.238281" xlink:href="#DejaVuSans-20"/>
      <use x="1076.025391" xlink:href="#DejaVuSans-72"/>
      <use x="1117.107422" xlink:href="#DejaVuSans-65"/>
      <use x="1178.630859" xlink:href="#DejaVuSans-71"/>
      <use x="1242.107422" xlink:href="#DejaVuSans-75"/>
      <use x="1305.486328" xlink:href="#DejaVuSans-65"/>
      <use x="1367.009766" xlink:href="#DejaVuSans-73"/>
      <use x="1419.109375" xlink:href="#DejaVuSans-74"/>
      <use x="1458.318359" xlink:href="#DejaVuSans-73"/>
      <use x="1510.417969" xlink:href="#DejaVuSans-20"/>
      <use x="1542.205078" xlink:href="#DejaVuSans-70"/>
      <use x="1605.681641" xlink:href="#DejaVuSans-65"/>
      <use x="1667.205078" xlink:href="#DejaVuSans-72"/>
      <use x="1708.318359" xlink:href="#DejaVuSans-20"/>
      <use x="1740.105469" xlink:href="#DejaVuSans-73"/>
      <use x="1792.205078" xlink:href="#DejaVuSans-65"/>
      <use x="1853.728516" xlink:href="#DejaVuSans-63"/>
      <use x="1908.708984" xlink:href="#DejaVuSans-6f"/>
      <use x="1969.890625" xlink:href="#DejaVuSans-6e"/>
      <use x="2033.269531" xlink:href="#DejaVuSans-64"/>
     </g>
    </g>
   </g>
   <g id="line2d_25">
    <path clip-path="url(#p8d6d42c194)" d="M 57.6 295.486685 
L 57.95712 295.488 
L 61.1712 291.683009 
L 61.52832 291.160979 
L 62.24256 290.580215 
L 63.31392 288.988264 
L 64.02816 288.427663 
L 64.38528 288.107694 
L 64.7424 287.211784 
L 65.09952 286.94529 
L 65.45664 286.430273 
L 65.81376 286.430711 
L 66.88512 284.697623 
L 67.59936 284.350042 
L 67.95648 283.484813 
L 68.3136 283.470348 
L 68.67072 282.478009 
L 69.02784 282.714259 
L 70.0992 281.637326 
L 70.45632 280.756756 
L 70.81344 280.243492 
L 71.17056 280.203605 
L 71.52768 278.888668 
L 71.8848 279.525974 
L 72.24192 277.957692 
L 72.59904 278.149673 
L 72.95616 278.113293 
L 73.31328 277.044249 
L 73.6704 276.803177 
L 74.02752 276.930288 
L 74.38464 275.405837 
L 74.74176 275.281356 
L 75.09888 275.723614 
L 75.81312 274.628709 
L 76.17024 274.479244 
L 76.52736 274.169357 
L 76.88448 272.604144 
L 77.2416 271.996643 
L 77.59872 272.692683 
L 77.95584 272.644907 
L 78.31296 270.603247 
L 78.67008 270.354724 
L 79.0272 269.906769 
L 79.38432 269.798944 
L 79.74144 270.242078 
L 80.09856 269.17654 
L 80.8128 268.710614 
L 81.16992 268.623828 
L 81.52704 268.12196 
L 81.88416 267.120854 
L 82.24128 267.010838 
L 82.5984 266.074164 
L 82.95552 264.800428 
L 83.66976 264.297684 
L 84.02688 264.268755 
L 84.384 263.799761 
L 84.74112 263.634955 
L 85.81248 261.485471 
L 86.1696 262.777616 
L 86.52672 261.254918 
L 86.88384 262.090342 
L 87.24096 260.35068 
L 87.59808 259.713373 
L 87.9552 258.685531 
L 88.31232 258.954655 
L 88.66944 259.957952 
L 89.02656 257.846601 
L 89.38368 258.134572 
L 89.7408 256.967346 
L 90.09792 258.050854 
L 90.45504 256.062231 
L 90.81216 255.369258 
L 91.16928 255.68046 
L 91.5264 255.027813 
L 91.88352 255.563431 
L 92.24064 253.928964 
L 92.95488 253.925895 
L 93.312 254.572406 
L 93.66912 251.710664 
L 94.38336 253.603736 
L 94.74048 253.100553 
L 95.0976 250.021408 
L 95.45472 250.84938 
L 95.81184 250.2467 
L 96.16896 251.586183 
L 96.52608 250.473308 
L 96.8832 251.028212 
L 97.24032 248.450934 
L 97.59744 249.76894 
L 97.95456 247.131175 
L 98.31168 246.059063 
L 98.6688 246.6521 
L 99.02592 246.736256 
L 99.38304 247.44676 
L 99.74016 244.364109 
L 100.09728 244.062111 
L 100.4544 244.222972 
L 100.81152 246.008657 
L 101.16864 243.342841 
L 101.88288 243.024626 
L 102.24 242.395209 
L 102.59712 243.138149 
L 102.95424 242.275111 
L 103.31136 240.780466 
L 103.66848 242.214186 
L 104.0256 239.388385 
L 104.38272 240.826489 
L 104.73984 238.692783 
L 105.09696 238.426728 
L 105.45408 240.588923 
L 105.8112 240.780466 
L 106.16832 238.048026 
L 106.52544 239.740789 
L 106.88256 236.472731 
L 107.23968 237.837636 
L 107.5968 235.838931 
L 107.95392 236.712049 
L 108.31104 235.686398 
L 108.66816 234.051493 
L 109.02528 235.735051 
L 109.3824 233.337482 
L 109.73952 233.004364 
L 110.09664 233.628959 
L 110.45376 235.103004 
L 110.81088 231.880969 
L 111.168 231.423371 
L 111.52512 233.133666 
L 111.88224 233.949366 
L 112.23936 233.086328 
L 112.59648 228.824616 
L 112.9536 228.098771 
L 113.31072 229.590348 
L 113.66784 227.493461 
L 114.02496 231.483858 
L 114.38208 228.349047 
L 114.7392 227.437796 
L 115.09632 228.383236 
L 115.45344 226.398118 
L 115.81056 226.268816 
L 116.16768 227.340928 
L 116.5248 226.573443 
L 116.88192 227.095473 
L 117.59616 223.921214 
L 117.95328 227.02359 
L 118.3104 222.902138 
L 118.66752 223.600808 
L 119.02464 225.209415 
L 119.38176 225.276038 
L 120.096 220.507637 
L 120.45312 222.480043 
L 120.81024 222.431829 
L 121.16736 220.72241 
L 121.52448 222.029896 
L 121.8816 222.368273 
L 122.23872 221.715188 
L 122.59584 218.368234 
L 122.95296 220.401127 
L 123.31008 217.103702 
L 123.6672 220.359049 
L 124.02432 214.45498 
L 124.38144 214.631181 
L 124.73856 218.078509 
L 125.09568 217.84971 
L 125.80992 212.417703 
L 126.16704 212.82884 
L 126.52416 214.107398 
L 126.88128 214.58209 
L 127.2384 214.479964 
L 127.59552 210.38218 
L 127.95264 214.188924 
L 128.30976 210.493512 
L 128.66688 210.403658 
L 129.024 209.200928 
L 129.38112 212.522898 
L 129.73824 207.472224 
L 130.09536 209.637926 
L 130.45248 210.677603 
L 130.8096 208.938817 
L 131.16672 209.2601 
L 131.52384 207.347305 
L 131.88096 210.946288 
L 132.23808 210.608349 
L 132.5952 204.63941 
L 132.95232 209.591026 
L 133.30944 207.672971 
L 133.66656 207.583555 
L 134.02368 202.789293 
L 134.3808 207.017694 
L 135.09504 204.68631 
L 135.45216 201.115378 
L 135.80928 204.114312 
L 136.1664 199.604515 
L 137.23776 203.429229 
L 137.59488 203.928906 
L 137.952 201.792132 
L 138.30912 203.668986 
L 139.02336 195.983177 
L 139.38048 200.273379 
L 139.7376 199.650976 
L 140.09472 198.488571 
L 140.45184 196.913276 
L 140.80896 194.098871 
L 141.16608 199.298134 
L 141.5232 196.404833 
L 141.88032 196.350483 
L 142.23744 195.230594 
L 142.59456 191.775377 
L 142.95168 194.945691 
L 143.3088 196.474525 
L 143.66592 193.316922 
L 144.02304 191.688153 
L 144.38016 195.28363 
L 144.73728 191.582958 
L 145.0944 194.898792 
L 145.45152 189.625893 
L 145.80864 195.135042 
L 146.16576 191.158233 
L 146.52288 192.233414 
L 146.88 189.224398 
L 147.23712 190.360943 
L 147.59424 186.731715 
L 147.95136 192.011627 
L 148.30848 192.154079 
L 149.02272 183.906791 
L 149.37984 190.6213 
L 149.73696 190.124254 
L 150.09408 182.800929 
L 150.4512 186.424458 
L 150.80832 188.085224 
L 151.16544 187.921295 
L 152.2368 181.245358 
L 152.95104 185.262492 
L 153.30816 180.481818 
L 153.66528 180.727711 
L 154.0224 178.046115 
L 154.37952 179.979512 
L 154.73664 183.115199 
L 155.09376 176.426551 
L 155.45088 176.821032 
L 155.808 182.444581 
L 156.16512 182.819776 
L 156.52224 179.401377 
L 156.87936 179.330371 
L 157.23648 178.551489 
L 157.5936 179.393488 
L 157.95072 178.693064 
L 158.66496 178.848227 
L 159.02208 173.171642 
L 159.3792 172.170975 
L 159.73632 173.737503 
L 160.09344 171.144008 
L 160.45056 172.785927 
L 160.80768 176.570317 
L 161.1648 169.67084 
L 161.52192 176.396307 
L 161.87904 168.083272 
L 162.23616 172.617177 
L 162.59328 173.504321 
L 162.9504 168.173126 
L 163.30752 167.976324 
L 163.66464 172.32789 
L 164.02176 173.694549 
L 164.37888 172.807404 
L 164.736 166.578546 
L 165.09312 172.381365 
L 165.45024 164.715718 
L 165.80736 169.979851 
L 166.16448 171.00068 
L 166.5216 165.386774 
L 166.87872 169.568713 
L 167.23584 167.818093 
L 167.59296 170.264315 
L 167.95008 163.921495 
L 168.3072 161.725112 
L 168.66432 166.30197 
L 169.02144 167.521794 
L 169.37856 160.810353 
L 169.73568 167.498564 
L 170.0928 163.861447 
L 170.44992 164.848088 
L 171.16416 158.037589 
L 171.52128 163.055828 
L 171.8784 159.398987 
L 172.23552 163.936398 
L 172.59264 163.070731 
L 172.94976 158.505706 
L 173.30688 156.569242 
L 173.664 160.526765 
L 174.02112 160.210304 
L 174.37824 160.134914 
L 174.73536 155.120619 
L 175.09248 155.519045 
L 175.4496 154.960635 
L 175.80672 159.489718 
L 176.16384 151.519005 
L 176.52096 157.694828 
L 176.87808 158.571015 
L 177.2352 155.610652 
L 177.59232 158.428563 
L 178.30656 155.204337 
L 178.66368 152.759868 
L 179.0208 155.341967 
L 179.37792 156.319842 
L 179.73504 146.970637 
L 180.09216 151.91261 
L 180.44928 148.737913 
L 180.8064 154.915489 
L 181.16352 145.950245 
L 181.52064 144.16456 
L 181.87776 143.95154 
L 182.592 150.1335 
L 182.94912 147.670622 
L 183.66336 146.706773 
L 184.02048 147.196806 
L 184.3776 148.737036 
L 184.73472 142.555077 
L 185.09184 143.209039 
L 185.44896 139.914244 
L 186.1632 147.050848 
L 186.52032 146.258817 
L 186.87744 138.611579 
L 187.23456 142.997334 
L 187.59168 144.697548 
L 187.9488 144.190859 
L 188.30592 143.327822 
L 188.66304 139.956322 
L 189.02016 147.731986 
L 189.37728 145.688573 
L 189.7344 137.525003 
L 190.09152 137.558753 
L 190.44864 139.768286 
L 190.80576 136.081201 
L 191.16288 135.700308 
L 191.52 143.316426 
L 191.87712 146.131268 
L 192.23424 137.149807 
L 192.59136 143.035906 
L 192.94848 143.99844 
L 193.66272 142.035238 
L 194.01984 135.936997 
L 194.73408 137.237908 
L 195.0912 139.114762 
L 195.44832 134.981475 
L 195.80544 138.298624 
L 196.16256 137.65036 
L 196.51968 141.882705 
L 196.8768 133.948373 
L 197.23392 139.344438 
L 197.59104 133.983 
L 197.94816 131.951421 
L 198.30528 138.803122 
L 198.6624 137.706026 
L 199.01952 133.55433 
L 199.37664 133.904103 
L 199.73376 137.73101 
L 200.09088 136.00625 
L 200.448 138.224988 
L 200.80512 137.147616 
L 201.16224 135.708636 
L 201.51936 139.260282 
L 201.87648 137.31023 
L 202.2336 137.753802 
L 202.59072 140.960058 
L 202.94784 131.217248 
L 203.30496 133.514005 
L 203.66208 133.584135 
L 204.0192 133.947496 
L 204.37632 135.507012 
L 204.73344 128.61674 
L 205.09056 128.567211 
L 205.44768 136.284578 
L 205.8048 138.114533 
L 206.16192 137.146739 
L 206.51904 131.485495 
L 206.87616 132.787283 
L 207.23328 130.51288 
L 207.5904 137.398769 
L 207.94752 128.485246 
L 208.30464 135.183099 
L 208.66176 128.479548 
L 209.01888 132.770189 
L 209.376 126.598749 
L 209.73312 127.80367 
L 210.09024 126.784594 
L 210.44736 128.351561 
L 210.80448 132.416909 
L 211.1616 132.428744 
L 211.51872 133.170807 
L 211.87584 128.671091 
L 212.23296 127.24263 
L 212.59008 130.838546 
L 212.9472 128.305976 
L 213.30432 131.791437 
L 213.66144 125.200532 
L 214.37568 128.957747 
L 214.7328 131.675284 
L 215.08992 128.527762 
L 215.44704 134.347237 
L 215.80416 123.849653 
L 216.16128 123.933809 
L 216.5184 122.684619 
L 216.87552 129.471011 
L 217.23264 128.784614 
L 217.58976 123.974134 
L 217.94688 124.183647 
L 218.304 126.124933 
L 218.66112 130.583448 
L 219.01824 130.862653 
L 219.37536 132.49975 
L 219.73248 122.541291 
L 220.0896 130.078074 
L 220.44672 129.587602 
L 220.80384 124.004378 
L 221.51808 132.380091 
L 221.8752 121.653269 
L 222.23232 123.483224 
L 222.58944 129.262812 
L 222.94656 128.820993 
L 223.30368 125.661637 
L 223.6608 121.186467 
L 224.01792 122.618872 
L 224.37504 119.433655 
L 224.73216 126.274398 
L 225.4464 118.454903 
L 225.80352 124.320839 
L 226.16064 127.621771 
L 226.51776 128.824062 
L 226.87488 120.615346 
L 227.232 126.107401 
L 227.58912 120.205523 
L 227.94624 125.133032 
L 228.66048 127.27638 
L 229.0176 123.336828 
L 229.37472 124.824022 
L 229.73184 119.01682 
L 230.08896 127.330293 
L 230.44608 118.005633 
L 230.8032 122.908158 
L 231.16032 120.256806 
L 231.51744 126.054365 
L 231.87456 116.305857 
L 232.23168 124.12053 
L 232.5888 122.222199 
L 232.94592 117.560307 
L 233.30304 127.2869 
L 233.66016 115.557658 
L 234.01728 118.419838 
L 234.3744 114.693306 
L 234.73152 124.135871 
L 235.08864 116.068292 
L 235.44576 114.471081 
L 235.80288 125.049315 
L 236.16 113.682557 
L 236.51712 118.160796 
L 236.87424 125.90753 
L 237.23136 123.444214 
L 237.58848 116.085386 
L 237.9456 117.622548 
L 238.30272 123.203581 
L 238.65984 119.986805 
L 239.01696 115.582642 
L 239.37408 115.261359 
L 239.7312 114.721358 
L 240.08832 113.510738 
L 240.44544 124.199865 
L 240.80256 123.00897 
L 241.15968 119.582243 
L 241.5168 123.531438 
L 241.87392 116.80115 
L 242.58816 123.666877 
L 242.94528 110.851058 
L 243.3024 120.769631 
L 243.65952 118.064367 
L 244.01664 113.339797 
L 244.37376 121.438935 
L 244.73088 119.509921 
L 245.088 116.66615 
L 245.44512 110.347876 
L 245.80224 119.791318 
L 246.15936 115.961782 
L 246.51648 114.244912 
L 246.8736 118.926089 
L 247.23072 109.180211 
L 247.58784 112.698545 
L 247.94496 110.870344 
L 248.30208 113.714115 
L 248.6592 114.986098 
L 249.01632 108.408343 
L 249.37344 113.311745 
L 249.73056 114.416292 
L 250.08768 117.896055 
L 250.4448 111.604956 
L 250.80192 120.186238 
L 251.15904 112.763854 
L 251.87328 108.527564 
L 252.2304 106.696294 
L 252.58752 108.72086 
L 252.94464 115.79084 
L 253.30176 108.080047 
L 253.65888 115.466927 
L 254.016 109.486592 
L 254.37312 117.699253 
L 254.73024 116.027967 
L 255.08736 111.968317 
L 255.44448 117.374901 
L 255.8016 110.653379 
L 256.15872 114.731877 
L 256.87296 117.127693 
L 257.23008 113.306485 
L 257.5872 116.061279 
L 257.94432 116.982612 
L 258.30144 117.274528 
L 258.65856 116.600403 
L 259.01568 107.441864 
L 259.3728 109.814011 
L 259.72992 107.881491 
L 260.08704 109.921398 
L 260.44416 110.899711 
L 260.80128 113.701843 
L 261.1584 105.392753 
L 261.51552 112.777442 
L 261.87264 103.5365 
L 262.22976 114.410594 
L 262.58688 107.311247 
L 262.944 114.21949 
L 263.30112 108.643278 
L 263.65824 108.856737 
L 264.01536 111.135961 
L 264.37248 106.470563 
L 264.7296 110.983867 
L 265.08672 109.403312 
L 265.44384 102.124695 
L 265.80096 112.782701 
L 266.15808 110.28695 
L 266.5152 109.467744 
L 266.87232 110.519694 
L 267.22944 113.516437 
L 267.58656 107.059217 
L 267.94368 105.798192 
L 268.3008 100.505569 
L 269.01504 110.929078 
L 269.37216 108.019998 
L 269.72928 102.467894 
L 270.0864 100.072078 
L 270.44352 100.013344 
L 270.80064 111.734696 
L 271.15776 108.128261 
L 271.51488 110.408363 
L 271.872 111.670264 
L 272.22912 99.725373 
L 272.58624 110.840101 
L 272.94336 99.085875 
L 273.30048 107.433974 
L 273.6576 106.330303 
L 274.01472 99.873522 
L 274.37184 111.293316 
L 274.72896 108.85849 
L 275.08608 107.239802 
L 275.4432 103.909065 
L 275.80032 110.676172 
L 276.15744 97.875256 
L 276.51456 110.347437 
L 276.87168 102.52093 
L 277.2288 99.693376 
L 277.58592 102.433267 
L 277.94304 108.503018 
L 278.30016 96.851358 
L 278.65728 103.108268 
L 279.0144 96.282428 
L 279.37152 105.672835 
L 279.72864 100.985083 
L 280.08576 103.180152 
L 280.8 97.113469 
L 281.15712 108.379853 
L 281.87136 94.819779 
L 282.22848 95.148075 
L 282.5856 102.935135 
L 282.94272 95.468482 
L 283.65696 101.060034 
L 284.01408 104.88694 
L 284.3712 95.479001 
L 284.72832 101.445311 
L 285.08544 100.096623 
L 285.44256 97.655223 
L 285.79968 101.01182 
L 286.1568 93.203721 
L 286.51392 104.57267 
L 286.87104 102.228575 
L 287.22816 106.764671 
L 287.58528 101.089401 
L 287.9424 104.81944 
L 288.29952 103.582084 
L 288.65664 93.145864 
L 289.01376 97.820905 
L 289.37088 104.88694 
L 289.728 99.617986 
L 290.08512 97.84545 
L 290.44224 105.813095 
L 291.15648 102.442472 
L 291.5136 96.325383 
L 291.87072 97.042024 
L 292.22784 93.468462 
L 292.58496 94.38585 
L 292.94208 92.789954 
L 293.2992 95.563596 
L 293.65632 91.693296 
L 294.01344 92.28195 
L 294.37056 104.153205 
L 294.72768 99.834951 
L 295.0848 91.96242 
L 295.79904 100.556851 
L 296.15616 96.833387 
L 296.51328 96.562071 
L 296.8704 99.402775 
L 297.22752 100.161494 
L 297.94176 92.881561 
L 298.29888 92.202177 
L 298.656 99.754301 
L 299.01312 97.669687 
L 299.37024 94.187294 
L 299.72736 94.599308 
L 300.08448 93.599956 
L 300.4416 98.148763 
L 300.79872 89.311068 
L 301.15584 92.711058 
L 301.51296 88.747398 
L 301.87008 95.977363 
L 302.2272 90.345924 
L 302.58432 95.276501 
L 302.94144 90.413424 
L 303.29856 91.208961 
L 303.65568 87.026583 
L 304.0128 99.617548 
L 304.36992 87.033596 
L 304.72704 100.081282 
L 305.08416 89.875614 
L 305.44128 92.452892 
L 305.7984 93.725313 
L 306.15552 86.394975 
L 306.51264 86.326598 
L 306.86976 98.200922 
L 307.22688 94.883773 
L 307.584 94.791727 
L 308.29824 89.898845 
L 308.65536 93.364144 
L 309.01248 99.272157 
L 309.3696 94.333252 
L 309.72672 85.319795 
L 310.08384 95.21689 
L 310.44096 87.052882 
L 310.79808 89.285208 
L 311.1552 88.18329 
L 311.51232 91.903248 
L 312.22656 94.276272 
L 312.58368 94.69223 
L 312.9408 91.627988 
L 313.29792 92.638298 
L 313.65504 92.742178 
L 314.01216 88.166634 
L 314.36928 96.678224 
L 314.7264 97.575888 
L 315.08352 89.816442 
L 315.44064 85.737506 
L 315.79776 90.726379 
L 316.15488 94.150914 
L 317.22624 84.001351 
L 317.58336 91.748085 
L 317.94048 88.450222 
L 318.2976 86.274439 
L 318.65472 92.144758 
L 319.01184 85.837003 
L 319.36896 92.826772 
L 319.72608 84.076302 
L 320.0832 92.127226 
L 320.44032 90.745665 
L 320.79744 82.099951 
L 321.15456 89.983439 
L 321.51168 90.333651 
L 321.8688 92.269239 
L 322.22592 89.797595 
L 322.58304 80.85602 
L 322.94016 92.904792 
L 323.29728 90.747856 
L 323.6544 80.929657 
L 324.01152 83.125602 
L 324.36864 87.233029 
L 324.72576 94.438886 
L 325.08288 79.322365 
L 325.44 91.723102 
L 325.79712 79.656359 
L 326.15424 89.519266 
L 326.51136 89.586328 
L 326.86848 84.800833 
L 327.2256 86.357718 
L 327.58272 89.241376 
L 327.93984 87.862007 
L 328.29696 91.695488 
L 328.65408 90.45331 
L 329.0112 88.52342 
L 329.36832 81.826882 
L 330.43968 85.618285 
L 330.7968 85.21197 
L 331.15392 79.032202 
L 331.51104 79.449914 
L 331.86816 81.293894 
L 332.22528 90.334089 
L 332.5824 82.747777 
L 332.93952 83.936919 
L 333.29664 78.306357 
L 333.65376 76.466321 
L 334.01088 87.498208 
L 334.368 88.570758 
L 334.72512 89.998342 
L 335.43936 80.450581 
L 335.79648 78.144619 
L 336.1536 86.730284 
L 336.51072 83.684889 
L 336.86784 76.758675 
L 337.22496 76.919974 
L 337.58208 88.60144 
L 337.9392 83.369742 
L 338.29632 86.708368 
L 338.65344 80.990144 
L 339.01056 80.906864 
L 339.36768 75.893446 
L 339.7248 86.961713 
L 340.08192 84.771466 
L 340.43904 88.945954 
L 340.79616 75.862764 
L 341.15328 79.570888 
L 341.5104 79.597187 
L 341.86752 78.425139 
L 342.22464 73.951284 
L 342.58176 85.783529 
L 342.93888 79.641456 
L 343.65312 85.313658 
L 344.01024 82.424741 
L 344.36736 72.817369 
L 344.72448 83.65596 
L 345.0816 86.454147 
L 345.43872 74.972552 
L 345.79584 85.86111 
L 346.15296 73.992047 
L 346.51008 84.860881 
L 346.8672 78.497022 
L 347.22432 78.589068 
L 347.58144 75.558576 
L 347.93856 79.244784 
L 348.29568 74.688525 
L 348.6528 84.947667 
L 349.00992 85.688854 
L 349.36704 83.253151 
L 349.72416 80.012269 
L 350.08128 79.020368 
L 350.4384 73.804887 
L 350.79552 71.926718 
L 351.15264 75.156643 
L 351.50976 75.53403 
L 351.86688 73.417419 
L 352.224 78.359831 
L 352.58112 79.134767 
L 352.93824 72.684999 
L 353.29536 73.442841 
L 353.65248 77.177264 
L 354.0096 71.081214 
L 354.36672 82.677209 
L 354.72384 74.454466 
L 355.08096 80.021473 
L 355.43808 74.153346 
L 355.7952 75.265345 
L 356.15232 75.902213 
L 356.50944 70.707333 
L 356.86656 70.340904 
L 357.22368 70.515352 
L 357.5808 81.401281 
L 357.93792 77.13913 
L 358.29504 79.340774 
L 358.65216 69.36785 
L 359.00928 80.498796 
L 359.3664 71.027301 
L 359.72352 70.198452 
L 360.08064 77.992963 
L 360.43776 82.040341 
L 360.79488 67.564194 
L 361.152 76.568886 
L 361.50912 78.845919 
L 361.86624 73.313101 
L 362.58048 67.391499 
L 362.9376 79.368826 
L 363.29472 70.986976 
L 363.65184 81.18081 
L 364.00896 79.102332 
L 364.36608 71.110142 
L 364.7232 67.851289 
L 365.43744 74.790214 
L 365.79456 73.315731 
L 366.15168 66.623137 
L 366.5088 76.63025 
L 366.86592 67.515103 
L 367.22304 81.548116 
L 367.58016 79.396878 
L 367.93728 75.35476 
L 368.2944 69.500659 
L 368.65152 67.114924 
L 369.00864 66.909355 
L 369.36576 65.280148 
L 369.72288 67.468204 
L 370.08 79.856668 
L 370.43712 66.425897 
L 370.79424 65.037761 
L 371.15136 64.879969 
L 371.50848 76.820916 
L 371.8656 67.550607 
L 372.22272 74.877876 
L 372.57984 68.586339 
L 372.93696 77.530105 
L 373.6512 63.9731 
L 374.00832 71.707562 
L 374.36544 67.077229 
L 374.72256 64.218555 
L 375.07968 66.065604 
L 375.79392 78.051259 
L 376.15104 70.215985 
L 376.50816 76.086304 
L 376.86528 78.042492 
L 377.2224 73.611592 
L 377.57952 66.725264 
L 377.93664 77.184277 
L 378.29376 70.358875 
L 378.65088 71.565111 
L 379.008 67.679032 
L 379.36512 72.948425 
L 379.72224 70.912025 
L 380.07936 65.348086 
L 380.43648 69.426146 
L 380.7936 65.170131 
L 381.15072 73.850472 
L 381.50784 74.603931 
L 381.86496 62.964543 
L 382.22208 74.517583 
L 382.5792 73.43013 
L 382.93632 63.947678 
L 383.29344 63.826265 
L 383.65056 73.2925 
L 384.00768 65.264369 
L 384.3648 66.298348 
L 384.72192 64.891803 
L 385.07904 64.622679 
L 385.43616 74.359353 
L 385.79328 68.95759 
L 386.1504 66.575361 
L 386.50752 60.090528 
L 386.86464 75.36791 
L 387.22176 64.298328 
L 387.57888 61.314297 
L 387.936 68.165997 
L 388.29312 61.519427 
L 388.65024 60.602915 
L 389.00736 72.24055 
L 389.36448 66.134857 
L 389.7216 64.240471 
L 390.07872 66.579306 
L 390.43584 63.570291 
L 390.79296 62.802806 
L 391.15008 64.097142 
L 391.5072 74.109953 
L 391.86432 69.019392 
L 392.22144 70.068712 
L 392.57856 59.707881 
L 392.93568 58.520931 
L 393.2928 73.306088 
L 393.64992 61.032462 
L 394.00704 67.120622 
L 394.36416 61.177981 
L 394.72128 57.584696 
L 395.0784 64.816413 
L 395.43552 62.726978 
L 395.79264 62.107204 
L 396.14976 64.013425 
L 396.50688 64.164204 
L 396.864 68.618774 
L 397.22112 60.512623 
L 397.57824 62.321539 
L 397.93536 57.241059 
L 398.29248 68.259796 
L 398.6496 71.736491 
L 399.36384 64.472776 
L 399.72096 63.987126 
L 400.07808 63.938035 
L 400.4352 69.338045 
L 401.14944 59.634683 
L 401.50656 60.797088 
L 401.86368 66.121269 
L 402.2208 58.456499 
L 402.57792 62.081782 
L 402.93504 58.541532 
L 403.29216 60.567412 
L 403.64928 71.491474 
L 404.0064 58.189129 
L 404.36352 58.105849 
L 404.72064 57.413754 
L 405.07776 67.848659 
L 405.43488 61.9161 
L 405.792 59.735933 
L 406.14912 64.834822 
L 406.50624 57.335734 
L 406.86336 61.895937 
L 407.22048 54.86409 
L 407.5776 57.969096 
L 407.93472 64.84315 
L 408.64896 70.050741 
L 409.00608 56.535814 
L 409.3632 67.925364 
L 409.72032 67.745656 
L 410.07744 59.84332 
L 410.43456 63.046946 
L 410.79168 60.754571 
L 411.1488 54.628278 
L 411.50592 59.230997 
L 411.86304 61.741651 
L 412.22016 65.106576 
L 412.9344 53.568 
L 413.29152 69.05621 
L 413.64864 63.616752 
L 414.00576 54.380193 
L 414.36288 63.888067 
L 414.72 63.810486 
L 414.72 63.810486 
" style="fill:none;stroke:#000080;stroke-linecap:square;stroke-width:0.5;"/>
   </g>
   <g id="patch_3">
    <path d="M 57.6 307.584 
L 57.6 41.472 
" style="fill:none;stroke:#000000;stroke-linecap:square;stroke-linejoin:miter;stroke-width:0.8;"/>
   </g>
   <g id="patch_4">
    <path d="M 414.72 307.584 
L 414.72 41.472 
" style="fill:none;stroke:#000000;stroke-linecap:square;stroke-linejoin:miter;stroke-width:0.8;"/>
   </g>
   <g id="patch_5">
    <path d="M 57.6 307.584 
L 414.72 307.584 
" style="fill:none;stroke:#000000;stroke-linecap:square;stroke-linejoin:miter;stroke-width:0.8;"/>
   </g>
   <g id="patch_6">
    <path d="M 57.6 41.472 
L 414.72 41.472 
" style="fill:none;stroke:#000000;stroke-linecap:square;stroke-linejoin:miter;stroke-width:0.8;"/>
   </g>
   <g id="text_15">
    <!-- Test -->
    <defs>
     <path d="M -0.296875 72.90625 
L 61.375 72.90625 
L 61.375 64.59375 
L 35.5 64.59375 
L 35.5 0 
L 25.59375 0 
L 25.59375 64.59375 
L -0.296875 64.59375 
z
" id="DejaVuSans-54"/>
    </defs>
    <g transform="translate(223.341563 35.472)scale(0.12 -0.12)">
     <use xlink:href="#DejaVuSans-54"/>
     <use x="60.818359" xlink:href="#DejaVuSans-65"/>
     <use x="122.341797" xlink:href="#DejaVuSans-73"/>
     <use x="174.441406" xlink:href="#DejaVuSans-74"/>
    </g>
   </g>
   <g id="legend_1">
    <g id="patch_7">
     <path d="M 64.6 64.150125 
L 306.276563 64.150125 
Q 308.276563 64.150125 308.276563 62.150125 
L 308.276563 48.472 
Q 308.276563 46.472 306.276563 46.472 
L 64.6 46.472 
Q 62.6 46.472 62.6 48.472 
L 62.6 62.150125 
Q 62.6 64.150125 64.6 64.150125 
z
" style="fill:#ffffff;opacity:0.8;stroke:#cccccc;stroke-linejoin:miter;"/>
    </g>
    <g id="line2d_26">
     <path d="M 66.6 54.570438 
L 86.6 54.570438 
" style="fill:none;stroke:#000080;stroke-linecap:square;stroke-width:0.5;"/>
    </g>
    <g id="line2d_27"/>
    <g id="text_16">
     <!-- Successful download requests per second -->
     <g transform="translate(94.6 58.070438)scale(0.1 -0.1)">
      <use xlink:href="#DejaVuSans-53"/>
      <use x="63.476562" xlink:href="#DejaVuSans-75"/>
      <use x="126.855469" xlink:href="#DejaVuSans-63"/>
      <use x="181.835938" xlink:href="#DejaVuSans-63"/>
      <use x="236.816406" xlink:href="#DejaVuSans-65"/>
      <use x="298.339844" xlink:href="#DejaVuSans-73"/>
      <use x="350.439453" xlink:href="#DejaVuSans-73"/>
      <use x="402.539062" xlink:href="#DejaVuSans-66"/>
      <use x="437.744141" xlink:href="#DejaVuSans-75"/>
      <use x="501.123047" xlink:href="#DejaVuSans-6c"/>
      <use x="528.90625" xlink:href="#DejaVuSans-20"/>
      <use x="560.693359" xlink:href="#DejaVuSans-64"/>
      <use x="624.169922" xlink:href="#DejaVuSans-6f"/>
      <use x="685.351562" xlink:href="#DejaVuSans-77"/>
      <use x="767.138672" xlink:href="#DejaVuSans-6e"/>
      <use x="830.517578" xlink:href="#DejaVuSans-6c"/>
      <use x="858.300781" xlink:href="#DejaVuSans-6f"/>
      <use x="919.482422" xlink:href="#DejaVuSans-61"/>
      <use x="980.761719" xlink:href="#DejaVuSans-64"/>
      <use x="1044.238281" xlink:href="#DejaVuSans-20"/>
      <use x="1076.025391" xlink:href="#DejaVuSans-72"/>
      <use x="1117.107422" xlink:href="#DejaVuSans-65"/>
      <use x="1178.630859" xlink:href="#DejaVuSans-71"/>
      <use x="1242.107422" xlink:href="#DejaVuSans-75"/>
      <use x="1305.486328" xlink:href="#DejaVuSans-65"/>
      <use x="1367.009766" xlink:href="#DejaVuSans-73"/>
      <use x="1419.109375" xlink:href="#DejaVuSans-74"/>
      <use x="1458.318359" xlink:href="#DejaVuSans-73"/>
      <use x="1510.417969" xlink:href="#DejaVuSans-20"/>
      <use x="1542.205078" xlink:href="#DejaVuSans-70"/>
      <use x="1605.681641" xlink:href="#DejaVuSans-65"/>
      <use x="1667.205078" xlink:href="#DejaVuSans-72"/>
      <use x="1708.318359" xlink:href="#DejaVuSans-20"/>
      <use x="1740.105469" xlink:href="#DejaVuSans-73"/>
      <use x="1792.205078" xlink:href="#DejaVuSans-65"/>
      <use x="1853.728516" xlink:href="#DejaVuSans-63"/>
      <use x="1908.708984" xlink:href="#DejaVuSans-6f"/>
      <use x="1969.890625" xlink:href="#DejaVuSans-6e"/>
      <use x="2033.269531" xlink:href="#DejaVuSans-64"/>
     </g>
    </g>
   </g>
  </g>
 </g>
 <defs>
  <clipPath id="p8d6d42c194">
   <rect height="266.112" width="357.12" x="57.6" y="41.472"/>
  </clipPath>
 </defs>
</svg>
