<?xml version="1.0" encoding="utf-8" standalone="no"?>
<!DOCTYPE svg PUBLIC "-//W3C//DTD SVG 1.1//EN"
  "http://www.w3.org/Graphics/SVG/1.1/DTD/svg11.dtd">
<!-- Created with matplotlib (http://matplotlib.org/) -->
<svg height="345pt" version="1.1" viewBox="0 0 460 345" width="460pt" xmlns="http://www.w3.org/2000/svg" xmlns:xlink="http://www.w3.org/1999/xlink">
 <defs>
  <style type="text/css">
*{stroke-linecap:butt;stroke-linejoin:round;}
  </style>
 </defs>
 <g id="figure_1">
  <g id="patch_1">
   <path d="M 0 345.6 
L 460.8 345.6 
L 460.8 0 
L 0 0 
z
" style="fill:#ffffff;"/>
  </g>
  <g id="axes_1">
   <g id="patch_2">
    <path d="M 57.6 307.584 
L 414.72 307.584 
L 414.72 41.472 
L 57.6 41.472 
z
" style="fill:#ffffff;"/>
   </g>
   <g id="matplotlib.axis_1">
    <g id="xtick_1">
     <g id="line2d_1">
      <path clip-path="url(#p8653c3f44d)" d="M 57.6 307.584 
L 57.6 41.472 
" style="fill:none;stroke:#b0b0b0;stroke-linecap:square;stroke-width:0.8;"/>
     </g>
     <g id="line2d_2">
      <defs>
       <path d="M 0 0 
L 0 3.5 
" id="mc4b01c941d" style="stroke:#000000;stroke-width:0.8;"/>
      </defs>
      <g>
       <use style="stroke:#000000;stroke-width:0.8;" x="57.6" xlink:href="#mc4b01c941d" y="307.584"/>
      </g>
     </g>
     <g id="text_1">
      <!-- 0 -->
      <defs>
       <path d="M 31.78125 66.40625 
Q 24.171875 66.40625 20.328125 58.90625 
Q 16.5 51.421875 16.5 36.375 
Q 16.5 21.390625 20.328125 13.890625 
Q 24.171875 6.390625 31.78125 6.390625 
Q 39.453125 6.390625 43.28125 13.890625 
Q 47.125 21.390625 47.125 36.375 
Q 47.125 51.421875 43.28125 58.90625 
Q 39.453125 66.40625 31.78125 66.40625 
M 31.78125 74.21875 
Q 44.046875 74.21875 50.515625 64.515625 
Q 56.984375 54.828125 56.984375 36.375 
Q 56.984375 17.96875 50.515625 8.265625 
Q 44.046875 -1.421875 31.78125 -1.421875 
Q 19.53125 -1.421875 13.0625 8.265625 
Q 6.59375 17.96875 6.59375 36.375 
Q 6.59375 54.828125 13.0625 64.515625 
Q 19.53125 74.21875 31.78125 74.21875 
" id="DejaVuSans-30"/>
      </defs>
      <g transform="translate(54.41875 322.182437)scale(0.1 -0.1)">
       <use xlink:href="#DejaVuSans-30"/>
      </g>
     </g>
    </g>
    <g id="xtick_2">
     <g id="line2d_3">
      <path clip-path="url(#p8653c3f44d)" d="M 129.024 307.584 
L 129.024 41.472 
" style="fill:none;stroke:#b0b0b0;stroke-linecap:square;stroke-width:0.8;"/>
     </g>
     <g id="line2d_4">
      <g>
       <use style="stroke:#000000;stroke-width:0.8;" x="129.024" xlink:href="#mc4b01c941d" y="307.584"/>
      </g>
     </g>
     <g id="text_2">
      <!-- 200 -->
      <defs>
       <path d="M 19.1875 8.296875 
L 53.609375 8.296875 
L 53.609375 0 
L 7.328125 0 
L 7.328125 8.296875 
Q 12.9375 14.109375 22.625 23.890625 
Q 32.328125 33.6875 34.8125 36.53125 
Q 39.546875 41.84375 41.421875 45.53125 
Q 43.3125 49.21875 43.3125 52.78125 
Q 43.3125 58.59375 39.234375 62.25 
Q 35.15625 65.921875 28.609375 65.921875 
Q 23.96875 65.921875 18.8125 64.3125 
Q 13.671875 62.703125 7.8125 59.421875 
L 7.8125 69.390625 
Q 13.765625 71.78125 18.9375 73 
Q 24.125 74.21875 28.421875 74.21875 
Q 39.75 74.21875 46.484375 68.546875 
Q 53.21875 62.890625 53.21875 53.421875 
Q 53.21875 48.921875 51.53125 44.890625 
Q 49.859375 40.875 45.40625 35.40625 
Q 44.1875 33.984375 37.640625 27.21875 
Q 31.109375 20.453125 19.1875 8.296875 
" id="DejaVuSans-32"/>
      </defs>
      <g transform="translate(119.48025 322.182437)scale(0.1 -0.1)">
       <use xlink:href="#DejaVuSans-32"/>
       <use x="63.623047" xlink:href="#DejaVuSans-30"/>
       <use x="127.246094" xlink:href="#DejaVuSans-30"/>
      </g>
     </g>
    </g>
    <g id="xtick_3">
     <g id="line2d_5">
      <path clip-path="url(#p8653c3f44d)" d="M 200.448 307.584 
L 200.448 41.472 
" style="fill:none;stroke:#b0b0b0;stroke-linecap:square;stroke-width:0.8;"/>
     </g>
     <g id="line2d_6">
      <g>
       <use style="stroke:#000000;stroke-width:0.8;" x="200.448" xlink:href="#mc4b01c941d" y="307.584"/>
      </g>
     </g>
     <g id="text_3">
      <!-- 400 -->
      <defs>
       <path d="M 37.796875 64.3125 
L 12.890625 25.390625 
L 37.796875 25.390625 
z
M 35.203125 72.90625 
L 47.609375 72.90625 
L 47.609375 25.390625 
L 58.015625 25.390625 
L 58.015625 17.1875 
L 47.609375 17.1875 
L 47.609375 0 
L 37.796875 0 
L 37.796875 17.1875 
L 4.890625 17.1875 
L 4.890625 26.703125 
z
" id="DejaVuSans-34"/>
      </defs>
      <g transform="translate(190.90425 322.182437)scale(0.1 -0.1)">
       <use xlink:href="#DejaVuSans-34"/>
       <use x="63.623047" xlink:href="#DejaVuSans-30"/>
       <use x="127.246094" xlink:href="#DejaVuSans-30"/>
      </g>
     </g>
    </g>
    <g id="xtick_4">
     <g id="line2d_7">
      <path clip-path="url(#p8653c3f44d)" d="M 271.872 307.584 
L 271.872 41.472 
" style="fill:none;stroke:#b0b0b0;stroke-linecap:square;stroke-width:0.8;"/>
     </g>
     <g id="line2d_8">
      <g>
       <use style="stroke:#000000;stroke-width:0.8;" x="271.872" xlink:href="#mc4b01c941d" y="307.584"/>
      </g>
     </g>
     <g id="text_4">
      <!-- 600 -->
      <defs>
       <path d="M 33.015625 40.375 
Q 26.375 40.375 22.484375 35.828125 
Q 18.609375 31.296875 18.609375 23.390625 
Q 18.609375 15.53125 22.484375 10.953125 
Q 26.375 6.390625 33.015625 6.390625 
Q 39.65625 6.390625 43.53125 10.953125 
Q 47.40625 15.53125 47.40625 23.390625 
Q 47.40625 31.296875 43.53125 35.828125 
Q 39.65625 40.375 33.015625 40.375 
M 52.59375 71.296875 
L 52.59375 62.3125 
Q 48.875 64.0625 45.09375 64.984375 
Q 41.3125 65.921875 37.59375 65.921875 
Q 27.828125 65.921875 22.671875 59.328125 
Q 17.53125 52.734375 16.796875 39.40625 
Q 19.671875 43.65625 24.015625 45.921875 
Q 28.375 48.1875 33.59375 48.1875 
Q 44.578125 48.1875 50.953125 41.515625 
Q 57.328125 34.859375 57.328125 23.390625 
Q 57.328125 12.15625 50.6875 5.359375 
Q 44.046875 -1.421875 33.015625 -1.421875 
Q 20.359375 -1.421875 13.671875 8.265625 
Q 6.984375 17.96875 6.984375 36.375 
Q 6.984375 53.65625 15.1875 63.9375 
Q 23.390625 74.21875 37.203125 74.21875 
Q 40.921875 74.21875 44.703125 73.484375 
Q 48.484375 72.75 52.59375 71.296875 
" id="DejaVuSans-36"/>
      </defs>
      <g transform="translate(262.32825 322.182437)scale(0.1 -0.1)">
       <use xlink:href="#DejaVuSans-36"/>
       <use x="63.623047" xlink:href="#DejaVuSans-30"/>
       <use x="127.246094" xlink:href="#DejaVuSans-30"/>
      </g>
     </g>
    </g>
    <g id="xtick_5">
     <g id="line2d_9">
      <path clip-path="url(#p8653c3f44d)" d="M 343.296 307.584 
L 343.296 41.472 
" style="fill:none;stroke:#b0b0b0;stroke-linecap:square;stroke-width:0.8;"/>
     </g>
     <g id="line2d_10">
      <g>
       <use style="stroke:#000000;stroke-width:0.8;" x="343.296" xlink:href="#mc4b01c941d" y="307.584"/>
      </g>
     </g>
     <g id="text_5">
      <!-- 800 -->
      <defs>
       <path d="M 31.78125 34.625 
Q 24.75 34.625 20.71875 30.859375 
Q 16.703125 27.09375 16.703125 20.515625 
Q 16.703125 13.921875 20.71875 10.15625 
Q 24.75 6.390625 31.78125 6.390625 
Q 38.8125 6.390625 42.859375 10.171875 
Q 46.921875 13.96875 46.921875 20.515625 
Q 46.921875 27.09375 42.890625 30.859375 
Q 38.875 34.625 31.78125 34.625 
M 21.921875 38.8125 
Q 15.578125 40.375 12.03125 44.71875 
Q 8.5 49.078125 8.5 55.328125 
Q 8.5 64.0625 14.71875 69.140625 
Q 20.953125 74.21875 31.78125 74.21875 
Q 42.671875 74.21875 48.875 69.140625 
Q 55.078125 64.0625 55.078125 55.328125 
Q 55.078125 49.078125 51.53125 44.71875 
Q 48 40.375 41.703125 38.8125 
Q 48.828125 37.15625 52.796875 32.3125 
Q 56.78125 27.484375 56.78125 20.515625 
Q 56.78125 9.90625 50.3125 4.234375 
Q 43.84375 -1.421875 31.78125 -1.421875 
Q 19.734375 -1.421875 13.25 4.234375 
Q 6.78125 9.90625 6.78125 20.515625 
Q 6.78125 27.484375 10.78125 32.3125 
Q 14.796875 37.15625 21.921875 38.8125 
M 18.3125 54.390625 
Q 18.3125 48.734375 21.84375 45.5625 
Q 25.390625 42.390625 31.78125 42.390625 
Q 38.140625 42.390625 41.71875 45.5625 
Q 45.3125 48.734375 45.3125 54.390625 
Q 45.3125 60.0625 41.71875 63.234375 
Q 38.140625 66.40625 31.78125 66.40625 
Q 25.390625 66.40625 21.84375 63.234375 
Q 18.3125 60.0625 18.3125 54.390625 
" id="DejaVuSans-38"/>
      </defs>
      <g transform="translate(333.75225 322.182437)scale(0.1 -0.1)">
       <use xlink:href="#DejaVuSans-38"/>
       <use x="63.623047" xlink:href="#DejaVuSans-30"/>
       <use x="127.246094" xlink:href="#DejaVuSans-30"/>
      </g>
     </g>
    </g>
    <g id="xtick_6">
     <g id="line2d_11">
      <path clip-path="url(#p8653c3f44d)" d="M 414.72 307.584 
L 414.72 41.472 
" style="fill:none;stroke:#b0b0b0;stroke-linecap:square;stroke-width:0.8;"/>
     </g>
     <g id="line2d_12">
      <g>
       <use style="stroke:#000000;stroke-width:0.8;" x="414.72" xlink:href="#mc4b01c941d" y="307.584"/>
      </g>
     </g>
     <g id="text_6">
      <!-- 1000 -->
      <defs>
       <path d="M 12.40625 8.296875 
L 28.515625 8.296875 
L 28.515625 63.921875 
L 10.984375 60.40625 
L 10.984375 69.390625 
L 28.421875 72.90625 
L 38.28125 72.90625 
L 38.28125 8.296875 
L 54.390625 8.296875 
L 54.390625 0 
L 12.40625 0 
z
" id="DejaVuSans-31"/>
      </defs>
      <g transform="translate(401.995 322.182437)scale(0.1 -0.1)">
       <use xlink:href="#DejaVuSans-31"/>
       <use x="63.623047" xlink:href="#DejaVuSans-30"/>
       <use x="127.246094" xlink:href="#DejaVuSans-30"/>
       <use x="190.869141" xlink:href="#DejaVuSans-30"/>
      </g>
     </g>
    </g>
    <g id="text_7">
     <!-- Number of clients -->
     <defs>
      <path d="M 9.8125 72.90625 
L 23.09375 72.90625 
L 55.421875 11.921875 
L 55.421875 72.90625 
L 64.984375 72.90625 
L 64.984375 0 
L 51.703125 0 
L 19.390625 60.984375 
L 19.390625 0 
L 9.8125 0 
z
" id="DejaVuSans-4e"/>
      <path d="M 8.5 21.578125 
L 8.5 54.6875 
L 17.484375 54.6875 
L 17.484375 21.921875 
Q 17.484375 14.15625 20.5 10.265625 
Q 23.53125 6.390625 29.59375 6.390625 
Q 36.859375 6.390625 41.078125 11.03125 
Q 45.3125 15.671875 45.3125 23.6875 
L 45.3125 54.6875 
L 54.296875 54.6875 
L 54.296875 0 
L 45.3125 0 
L 45.3125 8.40625 
Q 42.046875 3.421875 37.71875 1 
Q 33.40625 -1.421875 27.6875 -1.421875 
Q 18.265625 -1.421875 13.375 4.4375 
Q 8.5 10.296875 8.5 21.578125 
M 31.109375 56 
z
" id="DejaVuSans-75"/>
      <path d="M 52 44.1875 
Q 55.375 50.25 60.0625 53.125 
Q 64.75 56 71.09375 56 
Q 79.640625 56 84.28125 50.015625 
Q 88.921875 44.046875 88.921875 33.015625 
L 88.921875 0 
L 79.890625 0 
L 79.890625 32.71875 
Q 79.890625 40.578125 77.09375 44.375 
Q 74.3125 48.1875 68.609375 48.1875 
Q 61.625 48.1875 57.5625 43.546875 
Q 53.515625 38.921875 53.515625 30.90625 
L 53.515625 0 
L 44.484375 0 
L 44.484375 32.71875 
Q 44.484375 40.625 41.703125 44.40625 
Q 38.921875 48.1875 33.109375 48.1875 
Q 26.21875 48.1875 22.15625 43.53125 
Q 18.109375 38.875 18.109375 30.90625 
L 18.109375 0 
L 9.078125 0 
L 9.078125 54.6875 
L 18.109375 54.6875 
L 18.109375 46.1875 
Q 21.1875 51.21875 25.484375 53.609375 
Q 29.78125 56 35.6875 56 
Q 41.65625 56 45.828125 52.96875 
Q 50 49.953125 52 44.1875 
" id="DejaVuSans-6d"/>
      <path d="M 48.6875 27.296875 
Q 48.6875 37.203125 44.609375 42.84375 
Q 40.53125 48.484375 33.40625 48.484375 
Q 26.265625 48.484375 22.1875 42.84375 
Q 18.109375 37.203125 18.109375 27.296875 
Q 18.109375 17.390625 22.1875 11.75 
Q 26.265625 6.109375 33.40625 6.109375 
Q 40.53125 6.109375 44.609375 11.75 
Q 48.6875 17.390625 48.6875 27.296875 
M 18.109375 46.390625 
Q 20.953125 51.265625 25.265625 53.625 
Q 29.59375 56 35.59375 56 
Q 45.5625 56 51.78125 48.09375 
Q 58.015625 40.1875 58.015625 27.296875 
Q 58.015625 14.40625 51.78125 6.484375 
Q 45.5625 -1.421875 35.59375 -1.421875 
Q 29.59375 -1.421875 25.265625 0.953125 
Q 20.953125 3.328125 18.109375 8.203125 
L 18.109375 0 
L 9.078125 0 
L 9.078125 75.984375 
L 18.109375 75.984375 
z
" id="DejaVuSans-62"/>
      <path d="M 56.203125 29.59375 
L 56.203125 25.203125 
L 14.890625 25.203125 
Q 15.484375 15.921875 20.484375 11.0625 
Q 25.484375 6.203125 34.421875 6.203125 
Q 39.59375 6.203125 44.453125 7.46875 
Q 49.3125 8.734375 54.109375 11.28125 
L 54.109375 2.78125 
Q 49.265625 0.734375 44.1875 -0.34375 
Q 39.109375 -1.421875 33.890625 -1.421875 
Q 20.796875 -1.421875 13.15625 6.1875 
Q 5.515625 13.8125 5.515625 26.8125 
Q 5.515625 40.234375 12.765625 48.109375 
Q 20.015625 56 32.328125 56 
Q 43.359375 56 49.78125 48.890625 
Q 56.203125 41.796875 56.203125 29.59375 
M 47.21875 32.234375 
Q 47.125 39.59375 43.09375 43.984375 
Q 39.0625 48.390625 32.421875 48.390625 
Q 24.90625 48.390625 20.390625 44.140625 
Q 15.875 39.890625 15.1875 32.171875 
z
" id="DejaVuSans-65"/>
      <path d="M 41.109375 46.296875 
Q 39.59375 47.171875 37.8125 47.578125 
Q 36.03125 48 33.890625 48 
Q 26.265625 48 22.1875 43.046875 
Q 18.109375 38.09375 18.109375 28.8125 
L 18.109375 0 
L 9.078125 0 
L 9.078125 54.6875 
L 18.109375 54.6875 
L 18.109375 46.1875 
Q 20.953125 51.171875 25.484375 53.578125 
Q 30.03125 56 36.53125 56 
Q 37.453125 56 38.578125 55.875 
Q 39.703125 55.765625 41.0625 55.515625 
z
" id="DejaVuSans-72"/>
      <path id="DejaVuSans-20"/>
      <path d="M 30.609375 48.390625 
Q 23.390625 48.390625 19.1875 42.75 
Q 14.984375 37.109375 14.984375 27.296875 
Q 14.984375 17.484375 19.15625 11.84375 
Q 23.34375 6.203125 30.609375 6.203125 
Q 37.796875 6.203125 41.984375 11.859375 
Q 46.1875 17.53125 46.1875 27.296875 
Q 46.1875 37.015625 41.984375 42.703125 
Q 37.796875 48.390625 30.609375 48.390625 
M 30.609375 56 
Q 42.328125 56 49.015625 48.375 
Q 55.71875 40.765625 55.71875 27.296875 
Q 55.71875 13.875 49.015625 6.21875 
Q 42.328125 -1.421875 30.609375 -1.421875 
Q 18.84375 -1.421875 12.171875 6.21875 
Q 5.515625 13.875 5.515625 27.296875 
Q 5.515625 40.765625 12.171875 48.375 
Q 18.84375 56 30.609375 56 
" id="DejaVuSans-6f"/>
      <path d="M 37.109375 75.984375 
L 37.109375 68.5 
L 28.515625 68.5 
Q 23.6875 68.5 21.796875 66.546875 
Q 19.921875 64.59375 19.921875 59.515625 
L 19.921875 54.6875 
L 34.71875 54.6875 
L 34.71875 47.703125 
L 19.921875 47.703125 
L 19.921875 0 
L 10.890625 0 
L 10.890625 47.703125 
L 2.296875 47.703125 
L 2.296875 54.6875 
L 10.890625 54.6875 
L 10.890625 58.5 
Q 10.890625 67.625 15.140625 71.796875 
Q 19.390625 75.984375 28.609375 75.984375 
z
" id="DejaVuSans-66"/>
      <path d="M 48.78125 52.59375 
L 48.78125 44.1875 
Q 44.96875 46.296875 41.140625 47.34375 
Q 37.3125 48.390625 33.40625 48.390625 
Q 24.65625 48.390625 19.8125 42.84375 
Q 14.984375 37.3125 14.984375 27.296875 
Q 14.984375 17.28125 19.8125 11.734375 
Q 24.65625 6.203125 33.40625 6.203125 
Q 37.3125 6.203125 41.140625 7.25 
Q 44.96875 8.296875 48.78125 10.40625 
L 48.78125 2.09375 
Q 45.015625 0.34375 40.984375 -0.53125 
Q 36.96875 -1.421875 32.421875 -1.421875 
Q 20.0625 -1.421875 12.78125 6.34375 
Q 5.515625 14.109375 5.515625 27.296875 
Q 5.515625 40.671875 12.859375 48.328125 
Q 20.21875 56 33.015625 56 
Q 37.15625 56 41.109375 55.140625 
Q 45.0625 54.296875 48.78125 52.59375 
" id="DejaVuSans-63"/>
      <path d="M 9.421875 75.984375 
L 18.40625 75.984375 
L 18.40625 0 
L 9.421875 0 
z
" id="DejaVuSans-6c"/>
      <path d="M 9.421875 54.6875 
L 18.40625 54.6875 
L 18.40625 0 
L 9.421875 0 
z
M 9.421875 75.984375 
L 18.40625 75.984375 
L 18.40625 64.59375 
L 9.421875 64.59375 
z
" id="DejaVuSans-69"/>
      <path d="M 54.890625 33.015625 
L 54.890625 0 
L 45.90625 0 
L 45.90625 32.71875 
Q 45.90625 40.484375 42.875 44.328125 
Q 39.84375 48.1875 33.796875 48.1875 
Q 26.515625 48.1875 22.3125 43.546875 
Q 18.109375 38.921875 18.109375 30.90625 
L 18.109375 0 
L 9.078125 0 
L 9.078125 54.6875 
L 18.109375 54.6875 
L 18.109375 46.1875 
Q 21.34375 51.125 25.703125 53.5625 
Q 30.078125 56 35.796875 56 
Q 45.21875 56 50.046875 50.171875 
Q 54.890625 44.34375 54.890625 33.015625 
" id="DejaVuSans-6e"/>
      <path d="M 18.3125 70.21875 
L 18.3125 54.6875 
L 36.8125 54.6875 
L 36.8125 47.703125 
L 18.3125 47.703125 
L 18.3125 18.015625 
Q 18.3125 11.328125 20.140625 9.421875 
Q 21.96875 7.515625 27.59375 7.515625 
L 36.8125 7.515625 
L 36.8125 0 
L 27.59375 0 
Q 17.1875 0 13.234375 3.875 
Q 9.28125 7.765625 9.28125 18.015625 
L 9.28125 47.703125 
L 2.6875 47.703125 
L 2.6875 54.6875 
L 9.28125 54.6875 
L 9.28125 70.21875 
z
" id="DejaVuSans-74"/>
      <path d="M 44.28125 53.078125 
L 44.28125 44.578125 
Q 40.484375 46.53125 36.375 47.5 
Q 32.28125 48.484375 27.875 48.484375 
Q 21.1875 48.484375 17.84375 46.4375 
Q 14.5 44.390625 14.5 40.28125 
Q 14.5 37.15625 16.890625 35.375 
Q 19.28125 33.59375 26.515625 31.984375 
L 29.59375 31.296875 
Q 39.15625 29.25 43.1875 25.515625 
Q 47.21875 21.78125 47.21875 15.09375 
Q 47.21875 7.46875 41.1875 3.015625 
Q 35.15625 -1.421875 24.609375 -1.421875 
Q 20.21875 -1.421875 15.453125 -0.5625 
Q 10.6875 0.296875 5.421875 2 
L 5.421875 11.28125 
Q 10.40625 8.6875 15.234375 7.390625 
Q 20.0625 6.109375 24.8125 6.109375 
Q 31.15625 6.109375 34.5625 8.28125 
Q 37.984375 10.453125 37.984375 14.40625 
Q 37.984375 18.0625 35.515625 20.015625 
Q 33.0625 21.96875 24.703125 23.78125 
L 21.578125 24.515625 
Q 13.234375 26.265625 9.515625 29.90625 
Q 5.8125 33.546875 5.8125 39.890625 
Q 5.8125 47.609375 11.28125 51.796875 
Q 16.75 56 26.8125 56 
Q 31.78125 56 36.171875 55.265625 
Q 40.578125 54.546875 44.28125 53.078125 
" id="DejaVuSans-73"/>
     </defs>
     <g transform="translate(191.738906 335.860562)scale(0.1 -0.1)">
      <use xlink:href="#DejaVuSans-4e"/>
      <use x="74.804688" xlink:href="#DejaVuSans-75"/>
      <use x="138.183594" xlink:href="#DejaVuSans-6d"/>
      <use x="235.595703" xlink:href="#DejaVuSans-62"/>
      <use x="299.072266" xlink:href="#DejaVuSans-65"/>
      <use x="360.595703" xlink:href="#DejaVuSans-72"/>
      <use x="401.708984" xlink:href="#DejaVuSans-20"/>
      <use x="433.496094" xlink:href="#DejaVuSans-6f"/>
      <use x="494.677734" xlink:href="#DejaVuSans-66"/>
      <use x="529.882812" xlink:href="#DejaVuSans-20"/>
      <use x="561.669922" xlink:href="#DejaVuSans-63"/>
      <use x="616.650391" xlink:href="#DejaVuSans-6c"/>
      <use x="644.433594" xlink:href="#DejaVuSans-69"/>
      <use x="672.216797" xlink:href="#DejaVuSans-65"/>
      <use x="733.740234" xlink:href="#DejaVuSans-6e"/>
      <use x="797.119141" xlink:href="#DejaVuSans-74"/>
      <use x="836.328125" xlink:href="#DejaVuSans-73"/>
     </g>
    </g>
   </g>
   <g id="matplotlib.axis_2">
    <g id="ytick_1">
     <g id="line2d_13">
      <path clip-path="url(#p8653c3f44d)" d="M 57.6 295.884254 
L 414.72 295.884254 
" style="fill:none;stroke:#b0b0b0;stroke-linecap:square;stroke-width:0.8;"/>
     </g>
     <g id="line2d_14">
      <defs>
       <path d="M 0 0 
L -3.5 0 
" id="m14833feb3b" style="stroke:#000000;stroke-width:0.8;"/>
      </defs>
      <g>
       <use style="stroke:#000000;stroke-width:0.8;" x="57.6" xlink:href="#m14833feb3b" y="295.884254"/>
      </g>
     </g>
     <g id="text_8">
      <!-- 0 -->
      <g transform="translate(44.2375 299.683472)scale(0.1 -0.1)">
       <use xlink:href="#DejaVuSans-30"/>
      </g>
     </g>
    </g>
    <g id="ytick_2">
     <g id="line2d_15">
      <path clip-path="url(#p8653c3f44d)" d="M 57.6 254.991206 
L 414.72 254.991206 
" style="fill:none;stroke:#b0b0b0;stroke-linecap:square;stroke-width:0.8;"/>
     </g>
     <g id="line2d_16">
      <g>
       <use style="stroke:#000000;stroke-width:0.8;" x="57.6" xlink:href="#m14833feb3b" y="254.991206"/>
      </g>
     </g>
     <g id="text_9">
      <!-- 100 -->
      <g transform="translate(31.5125 258.790424)scale(0.1 -0.1)">
       <use xlink:href="#DejaVuSans-31"/>
       <use x="63.623047" xlink:href="#DejaVuSans-30"/>
       <use x="127.246094" xlink:href="#DejaVuSans-30"/>
      </g>
     </g>
    </g>
    <g id="ytick_3">
     <g id="line2d_17">
      <path clip-path="url(#p8653c3f44d)" d="M 57.6 214.098158 
L 414.72 214.098158 
" style="fill:none;stroke:#b0b0b0;stroke-linecap:square;stroke-width:0.8;"/>
     </g>
     <g id="line2d_18">
      <g>
       <use style="stroke:#000000;stroke-width:0.8;" x="57.6" xlink:href="#m14833feb3b" y="214.098158"/>
      </g>
     </g>
     <g id="text_10">
      <!-- 200 -->
      <g transform="translate(31.5125 217.897377)scale(0.1 -0.1)">
       <use xlink:href="#DejaVuSans-32"/>
       <use x="63.623047" xlink:href="#DejaVuSans-30"/>
       <use x="127.246094" xlink:href="#DejaVuSans-30"/>
      </g>
     </g>
    </g>
    <g id="ytick_4">
     <g id="line2d_19">
      <path clip-path="url(#p8653c3f44d)" d="M 57.6 173.20511 
L 414.72 173.20511 
" style="fill:none;stroke:#b0b0b0;stroke-linecap:square;stroke-width:0.8;"/>
     </g>
     <g id="line2d_20">
      <g>
       <use style="stroke:#000000;stroke-width:0.8;" x="57.6" xlink:href="#m14833feb3b" y="173.20511"/>
      </g>
     </g>
     <g id="text_11">
      <!-- 300 -->
      <defs>
       <path d="M 40.578125 39.3125 
Q 47.65625 37.796875 51.625 33 
Q 55.609375 28.21875 55.609375 21.1875 
Q 55.609375 10.40625 48.1875 4.484375 
Q 40.765625 -1.421875 27.09375 -1.421875 
Q 22.515625 -1.421875 17.65625 -0.515625 
Q 12.796875 0.390625 7.625 2.203125 
L 7.625 11.71875 
Q 11.71875 9.328125 16.59375 8.109375 
Q 21.484375 6.890625 26.8125 6.890625 
Q 36.078125 6.890625 40.9375 10.546875 
Q 45.796875 14.203125 45.796875 21.1875 
Q 45.796875 27.640625 41.28125 31.265625 
Q 36.765625 34.90625 28.71875 34.90625 
L 20.21875 34.90625 
L 20.21875 43.015625 
L 29.109375 43.015625 
Q 36.375 43.015625 40.234375 45.921875 
Q 44.09375 48.828125 44.09375 54.296875 
Q 44.09375 59.90625 40.109375 62.90625 
Q 36.140625 65.921875 28.71875 65.921875 
Q 24.65625 65.921875 20.015625 65.03125 
Q 15.375 64.15625 9.8125 62.3125 
L 9.8125 71.09375 
Q 15.4375 72.65625 20.34375 73.4375 
Q 25.25 74.21875 29.59375 74.21875 
Q 40.828125 74.21875 47.359375 69.109375 
Q 53.90625 64.015625 53.90625 55.328125 
Q 53.90625 49.265625 50.4375 45.09375 
Q 46.96875 40.921875 40.578125 39.3125 
" id="DejaVuSans-33"/>
      </defs>
      <g transform="translate(31.5125 177.004329)scale(0.1 -0.1)">
       <use xlink:href="#DejaVuSans-33"/>
       <use x="63.623047" xlink:href="#DejaVuSans-30"/>
       <use x="127.246094" xlink:href="#DejaVuSans-30"/>
      </g>
     </g>
    </g>
    <g id="ytick_5">
     <g id="line2d_21">
      <path clip-path="url(#p8653c3f44d)" d="M 57.6 132.312062 
L 414.72 132.312062 
" style="fill:none;stroke:#b0b0b0;stroke-linecap:square;stroke-width:0.8;"/>
     </g>
     <g id="line2d_22">
      <g>
       <use style="stroke:#000000;stroke-width:0.8;" x="57.6" xlink:href="#m14833feb3b" y="132.312062"/>
      </g>
     </g>
     <g id="text_12">
      <!-- 400 -->
      <g transform="translate(31.5125 136.111281)scale(0.1 -0.1)">
       <use xlink:href="#DejaVuSans-34"/>
       <use x="63.623047" xlink:href="#DejaVuSans-30"/>
       <use x="127.246094" xlink:href="#DejaVuSans-30"/>
      </g>
     </g>
    </g>
    <g id="ytick_6">
     <g id="line2d_23">
      <path clip-path="url(#p8653c3f44d)" d="M 57.6 91.419014 
L 414.72 91.419014 
" style="fill:none;stroke:#b0b0b0;stroke-linecap:square;stroke-width:0.8;"/>
     </g>
     <g id="line2d_24">
      <g>
       <use style="stroke:#000000;stroke-width:0.8;" x="57.6" xlink:href="#m14833feb3b" y="91.419014"/>
      </g>
     </g>
     <g id="text_13">
      <!-- 500 -->
      <defs>
       <path d="M 10.796875 72.90625 
L 49.515625 72.90625 
L 49.515625 64.59375 
L 19.828125 64.59375 
L 19.828125 46.734375 
Q 21.96875 47.46875 24.109375 47.828125 
Q 26.265625 48.1875 28.421875 48.1875 
Q 40.625 48.1875 47.75 41.5 
Q 54.890625 34.8125 54.890625 23.390625 
Q 54.890625 11.625 47.5625 5.09375 
Q 40.234375 -1.421875 26.90625 -1.421875 
Q 22.3125 -1.421875 17.546875 -0.640625 
Q 12.796875 0.140625 7.71875 1.703125 
L 7.71875 11.625 
Q 12.109375 9.234375 16.796875 8.0625 
Q 21.484375 6.890625 26.703125 6.890625 
Q 35.15625 6.890625 40.078125 11.328125 
Q 45.015625 15.765625 45.015625 23.390625 
Q 45.015625 31 40.078125 35.4375 
Q 35.15625 39.890625 26.703125 39.890625 
Q 22.75 39.890625 18.8125 39.015625 
Q 14.890625 38.140625 10.796875 36.28125 
z
" id="DejaVuSans-35"/>
      </defs>
      <g transform="translate(31.5125 95.218233)scale(0.1 -0.1)">
       <use xlink:href="#DejaVuSans-35"/>
       <use x="63.623047" xlink:href="#DejaVuSans-30"/>
       <use x="127.246094" xlink:href="#DejaVuSans-30"/>
      </g>
     </g>
    </g>
    <g id="ytick_7">
     <g id="line2d_25">
      <path clip-path="url(#p8653c3f44d)" d="M 57.6 50.525966 
L 414.72 50.525966 
" style="fill:none;stroke:#b0b0b0;stroke-linecap:square;stroke-width:0.8;"/>
     </g>
     <g id="line2d_26">
      <g>
       <use style="stroke:#000000;stroke-width:0.8;" x="57.6" xlink:href="#m14833feb3b" y="50.525966"/>
      </g>
     </g>
     <g id="text_14">
      <!-- 600 -->
      <g transform="translate(31.5125 54.325185)scale(0.1 -0.1)">
       <use xlink:href="#DejaVuSans-36"/>
       <use x="63.623047" xlink:href="#DejaVuSans-30"/>
       <use x="127.246094" xlink:href="#DejaVuSans-30"/>
      </g>
     </g>
    </g>
    <g id="text_15">
     <!-- Successful download requests per second -->
     <defs>
      <path d="M 53.515625 70.515625 
L 53.515625 60.890625 
Q 47.90625 63.578125 42.921875 64.890625 
Q 37.9375 66.21875 33.296875 66.21875 
Q 25.25 66.21875 20.875 63.09375 
Q 16.5 59.96875 16.5 54.203125 
Q 16.5 49.359375 19.40625 46.890625 
Q 22.3125 44.4375 30.421875 42.921875 
L 36.375 41.703125 
Q 47.40625 39.59375 52.65625 34.296875 
Q 57.90625 29 57.90625 20.125 
Q 57.90625 9.515625 50.796875 4.046875 
Q 43.703125 -1.421875 29.984375 -1.421875 
Q 24.8125 -1.421875 18.96875 -0.25 
Q 13.140625 0.921875 6.890625 3.21875 
L 6.890625 13.375 
Q 12.890625 10.015625 18.65625 8.296875 
Q 24.421875 6.59375 29.984375 6.59375 
Q 38.421875 6.59375 43.015625 9.90625 
Q 47.609375 13.234375 47.609375 19.390625 
Q 47.609375 24.75 44.3125 27.78125 
Q 41.015625 30.8125 33.5 32.328125 
L 27.484375 33.5 
Q 16.453125 35.6875 11.515625 40.375 
Q 6.59375 45.0625 6.59375 53.421875 
Q 6.59375 63.09375 13.40625 68.65625 
Q 20.21875 74.21875 32.171875 74.21875 
Q 37.3125 74.21875 42.625 73.28125 
Q 47.953125 72.359375 53.515625 70.515625 
" id="DejaVuSans-53"/>
      <path d="M 45.40625 46.390625 
L 45.40625 75.984375 
L 54.390625 75.984375 
L 54.390625 0 
L 45.40625 0 
L 45.40625 8.203125 
Q 42.578125 3.328125 38.25 0.953125 
Q 33.9375 -1.421875 27.875 -1.421875 
Q 17.96875 -1.421875 11.734375 6.484375 
Q 5.515625 14.40625 5.515625 27.296875 
Q 5.515625 40.1875 11.734375 48.09375 
Q 17.96875 56 27.875 56 
Q 33.9375 56 38.25 53.625 
Q 42.578125 51.265625 45.40625 46.390625 
M 14.796875 27.296875 
Q 14.796875 17.390625 18.875 11.75 
Q 22.953125 6.109375 30.078125 6.109375 
Q 37.203125 6.109375 41.296875 11.75 
Q 45.40625 17.390625 45.40625 27.296875 
Q 45.40625 37.203125 41.296875 42.84375 
Q 37.203125 48.484375 30.078125 48.484375 
Q 22.953125 48.484375 18.875 42.84375 
Q 14.796875 37.203125 14.796875 27.296875 
" id="DejaVuSans-64"/>
      <path d="M 4.203125 54.6875 
L 13.1875 54.6875 
L 24.421875 12.015625 
L 35.59375 54.6875 
L 46.1875 54.6875 
L 57.421875 12.015625 
L 68.609375 54.6875 
L 77.59375 54.6875 
L 63.28125 0 
L 52.6875 0 
L 40.921875 44.828125 
L 29.109375 0 
L 18.5 0 
z
" id="DejaVuSans-77"/>
      <path d="M 34.28125 27.484375 
Q 23.390625 27.484375 19.1875 25 
Q 14.984375 22.515625 14.984375 16.5 
Q 14.984375 11.71875 18.140625 8.90625 
Q 21.296875 6.109375 26.703125 6.109375 
Q 34.1875 6.109375 38.703125 11.40625 
Q 43.21875 16.703125 43.21875 25.484375 
L 43.21875 27.484375 
z
M 52.203125 31.203125 
L 52.203125 0 
L 43.21875 0 
L 43.21875 8.296875 
Q 40.140625 3.328125 35.546875 0.953125 
Q 30.953125 -1.421875 24.3125 -1.421875 
Q 15.921875 -1.421875 10.953125 3.296875 
Q 6 8.015625 6 15.921875 
Q 6 25.140625 12.171875 29.828125 
Q 18.359375 34.515625 30.609375 34.515625 
L 43.21875 34.515625 
L 43.21875 35.40625 
Q 43.21875 41.609375 39.140625 45 
Q 35.0625 48.390625 27.6875 48.390625 
Q 23 48.390625 18.546875 47.265625 
Q 14.109375 46.140625 10.015625 43.890625 
L 10.015625 52.203125 
Q 14.9375 54.109375 19.578125 55.046875 
Q 24.21875 56 28.609375 56 
Q 40.484375 56 46.34375 49.84375 
Q 52.203125 43.703125 52.203125 31.203125 
" id="DejaVuSans-61"/>
      <path d="M 14.796875 27.296875 
Q 14.796875 17.390625 18.875 11.75 
Q 22.953125 6.109375 30.078125 6.109375 
Q 37.203125 6.109375 41.296875 11.75 
Q 45.40625 17.390625 45.40625 27.296875 
Q 45.40625 37.203125 41.296875 42.84375 
Q 37.203125 48.484375 30.078125 48.484375 
Q 22.953125 48.484375 18.875 42.84375 
Q 14.796875 37.203125 14.796875 27.296875 
M 45.40625 8.203125 
Q 42.578125 3.328125 38.25 0.953125 
Q 33.9375 -1.421875 27.875 -1.421875 
Q 17.96875 -1.421875 11.734375 6.484375 
Q 5.515625 14.40625 5.515625 27.296875 
Q 5.515625 40.1875 11.734375 48.09375 
Q 17.96875 56 27.875 56 
Q 33.9375 56 38.25 53.625 
Q 42.578125 51.265625 45.40625 46.390625 
L 45.40625 54.6875 
L 54.390625 54.6875 
L 54.390625 -20.796875 
L 45.40625 -20.796875 
z
" id="DejaVuSans-71"/>
      <path d="M 18.109375 8.203125 
L 18.109375 -20.796875 
L 9.078125 -20.796875 
L 9.078125 54.6875 
L 18.109375 54.6875 
L 18.109375 46.390625 
Q 20.953125 51.265625 25.265625 53.625 
Q 29.59375 56 35.59375 56 
Q 45.5625 56 51.78125 48.09375 
Q 58.015625 40.1875 58.015625 27.296875 
Q 58.015625 14.40625 51.78125 6.484375 
Q 45.5625 -1.421875 35.59375 -1.421875 
Q 29.59375 -1.421875 25.265625 0.953125 
Q 20.953125 3.328125 18.109375 8.203125 
M 48.6875 27.296875 
Q 48.6875 37.203125 44.609375 42.84375 
Q 40.53125 48.484375 33.40625 48.484375 
Q 26.265625 48.484375 22.1875 42.84375 
Q 18.109375 37.203125 18.109375 27.296875 
Q 18.109375 17.390625 22.1875 11.75 
Q 26.265625 6.109375 33.40625 6.109375 
Q 40.53125 6.109375 44.609375 11.75 
Q 48.6875 17.390625 48.6875 27.296875 
" id="DejaVuSans-70"/>
     </defs>
     <g transform="translate(25.432812 279.366281)rotate(-90)scale(0.1 -0.1)">
      <use xlink:href="#DejaVuSans-53"/>
      <use x="63.476562" xlink:href="#DejaVuSans-75"/>
      <use x="126.855469" xlink:href="#DejaVuSans-63"/>
      <use x="181.835938" xlink:href="#DejaVuSans-63"/>
      <use x="236.816406" xlink:href="#DejaVuSans-65"/>
      <use x="298.339844" xlink:href="#DejaVuSans-73"/>
      <use x="350.439453" xlink:href="#DejaVuSans-73"/>
      <use x="402.539062" xlink:href="#DejaVuSans-66"/>
      <use x="437.744141" xlink:href="#DejaVuSans-75"/>
      <use x="501.123047" xlink:href="#DejaVuSans-6c"/>
      <use x="528.90625" xlink:href="#DejaVuSans-20"/>
      <use x="560.693359" xlink:href="#DejaVuSans-64"/>
      <use x="624.169922" xlink:href="#DejaVuSans-6f"/>
      <use x="685.351562" xlink:href="#DejaVuSans-77"/>
      <use x="767.138672" xlink:href="#DejaVuSans-6e"/>
      <use x="830.517578" xlink:href="#DejaVuSans-6c"/>
      <use x="858.300781" xlink:href="#DejaVuSans-6f"/>
      <use x="919.482422" xlink:href="#DejaVuSans-61"/>
      <use x="980.761719" xlink:href="#DejaVuSans-64"/>
      <use x="1044.238281" xlink:href="#DejaVuSans-20"/>
      <use x="1076.025391" xlink:href="#DejaVuSans-72"/>
      <use x="1117.107422" xlink:href="#DejaVuSans-65"/>
      <use x="1178.630859" xlink:href="#DejaVuSans-71"/>
      <use x="1242.107422" xlink:href="#DejaVuSans-75"/>
      <use x="1305.486328" xlink:href="#DejaVuSans-65"/>
      <use x="1367.009766" xlink:href="#DejaVuSans-73"/>
      <use x="1419.109375" xlink:href="#DejaVuSans-74"/>
      <use x="1458.318359" xlink:href="#DejaVuSans-73"/>
      <use x="1510.417969" xlink:href="#DejaVuSans-20"/>
      <use x="1542.205078" xlink:href="#DejaVuSans-70"/>
      <use x="1605.681641" xlink:href="#DejaVuSans-65"/>
      <use x="1667.205078" xlink:href="#DejaVuSans-72"/>
      <use x="1708.318359" xlink:href="#DejaVuSans-20"/>
      <use x="1740.105469" xlink:href="#DejaVuSans-73"/>
      <use x="1792.205078" xlink:href="#DejaVuSans-65"/>
      <use x="1853.728516" xlink:href="#DejaVuSans-63"/>
      <use x="1908.708984" xlink:href="#DejaVuSans-6f"/>
      <use x="1969.890625" xlink:href="#DejaVuSans-6e"/>
      <use x="2033.269531" xlink:href="#DejaVuSans-64"/>
     </g>
    </g>
   </g>
   <g id="line2d_27">
    <path clip-path="url(#p8653c3f44d)" d="M 57.6 295.481866 
L 57.95712 295.488 
L 61.1712 291.870601 
L 61.88544 291.102221 
L 64.02816 288.767228 
L 64.38528 288.1661 
L 64.7424 288.017658 
L 65.45664 287.045221 
L 65.81376 286.560639 
L 66.17088 286.756107 
L 67.59936 284.619446 
L 67.95648 284.460372 
L 68.3136 283.707531 
L 69.02784 283.096998 
L 69.38496 282.632453 
L 69.74208 282.449661 
L 70.0992 282.123743 
L 70.45632 282.050953 
L 70.81344 281.118183 
L 71.52768 280.948477 
L 71.8848 279.749084 
L 72.24192 279.942099 
L 72.59904 279.320116 
L 72.95616 279.384727 
L 73.31328 278.430283 
L 74.02752 277.297137 
L 74.38464 277.62101 
L 74.74176 277.354796 
L 75.09888 276.249048 
L 75.456 275.703943 
L 75.81312 275.72071 
L 76.17024 275.289697 
L 76.52736 275.326092 
L 76.88448 274.755634 
L 77.2416 274.482468 
L 77.59872 273.23891 
L 77.95584 274.027328 
L 78.31296 273.585684 
L 78.67008 272.338446 
L 79.0272 272.590347 
L 79.38432 271.945463 
L 79.74144 270.997154 
L 80.09856 271.142324 
L 80.45568 270.172341 
L 80.8128 270.894512 
L 81.16992 269.4653 
L 81.52704 268.600821 
L 81.88416 269.733558 
L 82.24128 269.51887 
L 82.5984 268.790156 
L 82.95552 268.358325 
L 83.31264 266.494829 
L 83.66976 267.267299 
L 84.02688 267.025621 
L 84.384 265.963628 
L 84.74112 266.285048 
L 85.09824 264.619065 
L 85.45536 264.244485 
L 85.81248 265.272536 
L 86.1696 264.592076 
L 86.52672 263.020556 
L 86.88384 264.121805 
L 87.24096 262.501214 
L 87.59808 261.741012 
L 87.9552 261.258883 
L 88.31232 261.568035 
L 88.66944 261.091631 
L 89.02656 261.54309 
L 89.38368 259.970752 
L 89.7408 259.10382 
L 90.09792 259.947852 
L 90.45504 260.014099 
L 90.81216 258.583251 
L 91.16928 258.556262 
L 91.5264 258.727195 
L 91.88352 257.168352 
L 92.24064 257.026044 
L 92.59776 257.551111 
L 92.95488 256.394655 
L 93.312 257.515943 
L 93.66912 254.807596 
L 94.02624 254.412569 
L 94.38336 255.450844 
L 94.74048 255.623821 
L 95.0976 254.296024 
L 95.81184 252.857815 
L 96.16896 252.579334 
L 96.52608 253.838022 
L 96.8832 253.786088 
L 97.24032 251.633478 
L 97.59744 252.482008 
L 97.95456 251.279344 
L 98.31168 249.341422 
L 98.6688 249.084205 
L 99.02592 248.534602 
L 99.38304 251.187743 
L 99.74016 247.691388 
L 100.09728 249.163129 
L 100.4544 249.522987 
L 101.16864 246.686237 
L 101.52576 248.184149 
L 101.88288 247.175317 
L 102.24 245.519558 
L 102.59712 244.799022 
L 102.95424 245.371525 
L 103.31136 244.152912 
L 103.66848 246.278533 
L 104.0256 243.843352 
L 104.73984 242.404326 
L 105.09696 243.167799 
L 105.45408 242.989914 
L 105.8112 240.802136 
L 106.16832 242.690986 
L 106.52544 240.829534 
L 106.88256 239.641591 
L 107.23968 240.940763 
L 107.5968 240.425511 
L 107.95392 238.548111 
L 108.31104 241.299804 
L 108.66816 241.156679 
L 109.02528 240.122902 
L 109.3824 240.329003 
L 110.09664 235.847125 
L 110.81088 235.520799 
L 111.168 234.61788 
L 111.52512 236.547623 
L 111.88224 237.368756 
L 113.31072 233.314619 
L 113.66784 233.31789 
L 114.02496 231.34112 
L 114.38208 235.238228 
L 114.7392 231.123978 
L 115.09632 233.659756 
L 115.45344 232.540513 
L 115.81056 230.810329 
L 116.5248 231.357887 
L 116.88192 232.368763 
L 117.23904 231.575029 
L 117.59616 229.179514 
L 117.95328 230.620994 
L 118.3104 227.105827 
L 118.66752 229.520562 
L 119.02464 226.385292 
L 119.38176 228.100755 
L 119.73888 228.261874 
L 120.096 225.508545 
L 120.45312 227.549926 
L 120.81024 224.745072 
L 121.16736 223.976282 
L 121.52448 226.446631 
L 121.8816 226.981104 
L 122.23872 222.769529 
L 122.59584 222.094384 
L 122.95296 224.334506 
L 123.31008 223.548541 
L 123.6672 223.488837 
L 124.02432 223.91208 
L 124.38144 222.4706 
L 124.73856 220.415316 
L 125.09568 221.815494 
L 125.4528 219.40035 
L 126.16704 221.859658 
L 126.52416 218.50193 
L 126.88128 221.144439 
L 127.2384 216.315788 
L 127.59552 220.446803 
L 127.95264 219.858761 
L 128.66688 217.08744 
L 129.024 214.871036 
L 129.38112 215.443948 
L 129.73824 218.07378 
L 130.09536 214.608912 
L 130.45248 217.011379 
L 130.8096 213.854844 
L 131.16672 214.905387 
L 131.52384 213.91373 
L 131.88096 216.286754 
L 132.23808 212.565486 
L 132.5952 211.150996 
L 132.95232 215.216992 
L 133.30944 213.135535 
L 133.66656 212.354887 
L 134.02368 210.186329 
L 134.3808 212.026107 
L 134.73792 209.601967 
L 135.09504 210.127852 
L 135.45216 209.402 
L 135.80928 211.550521 
L 136.1664 208.249634 
L 136.52352 206.459745 
L 136.88064 209.524679 
L 137.23776 207.412144 
L 137.59488 205.976798 
L 137.952 208.744031 
L 138.30912 203.543662 
L 138.66624 207.027341 
L 139.02336 207.575717 
L 139.38048 204.336987 
L 139.7376 205.451323 
L 140.09472 202.300922 
L 140.45184 205.076743 
L 140.80896 203.784931 
L 141.16608 200.341736 
L 141.5232 201.790168 
L 141.88032 201.484288 
L 142.23744 204.096536 
L 142.59456 202.053928 
L 142.95168 198.560435 
L 143.3088 201.086808 
L 143.66592 199.62938 
L 144.02304 199.312867 
L 144.38016 201.821656 
L 144.73728 196.52437 
L 145.0944 201.650314 
L 145.45152 197.456323 
L 145.80864 196.157969 
L 146.16576 197.01795 
L 146.52288 200.575236 
L 146.88 200.643118 
L 147.23712 199.867377 
L 147.59424 194.954486 
L 147.95136 197.277211 
L 148.30848 194.633476 
L 148.6656 195.599779 
L 149.02272 195.419031 
L 149.37984 192.341421 
L 149.73696 197.041668 
L 150.09408 190.875814 
L 150.4512 192.866896 
L 150.80832 195.877442 
L 151.16544 194.841622 
L 151.52256 195.17122 
L 151.87968 188.070142 
L 152.2368 188.776774 
L 152.59392 193.66472 
L 152.95104 192.500903 
L 153.30816 190.295541 
L 154.0224 192.606816 
L 154.37952 188.035383 
L 154.73664 190.774808 
L 155.09376 185.918758 
L 155.45088 184.464602 
L 155.808 190.702018 
L 156.16512 187.222429 
L 156.52224 190.24647 
L 156.87936 188.615655 
L 157.23648 182.59947 
L 157.5936 188.028022 
L 157.95072 184.401217 
L 158.30784 188.089361 
L 158.66496 182.344297 
L 159.02208 181.512124 
L 159.3792 181.411118 
L 159.73632 179.437619 
L 160.09344 180.459946 
L 160.45056 180.931851 
L 160.80768 184.329655 
L 161.1648 184.682562 
L 161.52192 182.708245 
L 161.87904 178.306927 
L 162.23616 176.537484 
L 162.9504 183.584583 
L 163.30752 182.144739 
L 163.66464 182.219573 
L 164.02176 174.040146 
L 164.37888 181.591047 
L 164.736 175.309057 
L 165.09312 178.508529 
L 165.45024 175.516794 
L 165.80736 180.079231 
L 166.16448 172.526694 
L 166.5216 179.096571 
L 166.87872 172.976518 
L 167.23584 174.384874 
L 167.59296 178.53879 
L 167.95008 171.788984 
L 168.3072 170.509031 
L 168.66432 170.88811 
L 169.02144 174.960648 
L 169.37856 173.193251 
L 170.0928 167.75652 
L 170.80704 168.531035 
L 171.16416 172.735249 
L 171.52128 173.03295 
L 171.8784 171.997129 
L 172.23552 171.536674 
L 172.59264 167.969164 
L 172.94976 171.279456 
L 173.30688 167.823994 
L 173.664 169.298597 
L 174.02112 162.675559 
L 174.37824 167.396661 
L 174.73536 162.177482 
L 175.09248 163.86064 
L 175.4496 166.453668 
L 175.80672 160.97359 
L 176.16384 163.597697 
L 176.52096 163.313491 
L 176.87808 162.647752 
L 177.2352 162.383174 
L 177.59232 166.120389 
L 177.94944 158.971876 
L 178.30656 161.313412 
L 178.66368 162.487042 
L 179.0208 159.816317 
L 179.37792 162.588457 
L 179.73504 163.127836 
L 180.09216 157.830142 
L 180.44928 158.373201 
L 180.8064 161.360848 
L 181.16352 157.860812 
L 181.52064 157.263364 
L 181.87776 157.600732 
L 182.23488 153.686858 
L 182.592 153.650054 
L 182.94912 159.81509 
L 183.30624 158.419819 
L 183.66336 152.309989 
L 184.02048 159.07738 
L 184.3776 152.014741 
L 184.73472 157.275223 
L 185.09184 150.641962 
L 185.44896 154.252409 
L 185.80608 155.798984 
L 186.1632 154.326834 
L 186.52032 153.674999 
L 186.87744 157.954457 
L 187.23456 153.874557 
L 187.59168 152.524678 
L 187.9488 146.676972 
L 188.30592 150.259612 
L 188.66304 148.832444 
L 189.02016 149.843321 
L 189.37728 147.545131 
L 189.7344 149.483871 
L 190.09152 145.827623 
L 190.44864 146.764892 
L 190.80576 149.257732 
L 191.16288 152.922158 
L 191.52 148.041982 
L 191.87712 148.422696 
L 192.23424 145.073555 
L 192.94848 142.266657 
L 193.3056 145.940488 
L 193.66272 146.908835 
L 194.01984 149.153455 
L 194.37696 140.020402 
L 194.73408 143.977213 
L 195.0912 146.41403 
L 195.44832 141.76081 
L 195.80544 139.034879 
L 196.16256 143.994388 
L 196.51968 138.124191 
L 196.8768 139.638869 
L 197.23392 137.190194 
L 197.59104 142.136617 
L 197.94816 142.216767 
L 198.30528 135.498857 
L 199.01952 141.950553 
L 199.37664 136.766133 
L 199.73376 141.400951 
L 200.09088 138.968632 
L 200.448 143.613265 
L 200.80512 133.08535 
L 201.51936 142.056057 
L 201.87648 135.128775 
L 202.2336 140.631753 
L 202.59072 141.015329 
L 202.94784 136.929296 
L 203.30496 131.56331 
L 204.0192 130.86363 
L 204.73344 127.416755 
L 205.44768 135.736037 
L 205.8048 130.66857 
L 206.16192 137.581949 
L 206.51904 131.75837 
L 206.87616 130.766305 
L 207.23328 127.564788 
L 207.5904 133.859864 
L 207.94752 130.739724 
L 208.30464 124.168211 
L 208.66176 130.065807 
L 209.01888 132.536156 
L 209.376 128.243613 
L 209.73312 129.218094 
L 210.09024 125.895534 
L 210.44736 129.780373 
L 210.80448 122.581152 
L 211.1616 133.153641 
L 211.51872 131.76982 
L 211.87584 126.268887 
L 212.23296 129.714127 
L 212.59008 121.834445 
L 212.9472 132.243771 
L 213.30432 132.993749 
L 213.66144 132.363178 
L 214.01856 124.187022 
L 214.37568 129.064745 
L 214.7328 123.165105 
L 215.08992 130.780208 
L 215.44704 121.427968 
L 215.80416 128.565441 
L 216.16128 123.309049 
L 216.5184 129.575908 
L 216.87552 129.373488 
L 217.23264 121.60708 
L 217.58976 123.711027 
L 217.94688 122.624499 
L 218.304 127.635533 
L 218.66112 122.246238 
L 219.01824 126.919905 
L 219.37536 128.719199 
L 219.73248 118.463222 
L 220.0896 118.091096 
L 220.44672 122.070807 
L 220.80384 118.545008 
L 221.16096 124.795102 
L 221.51808 123.02934 
L 221.8752 127.657206 
L 222.23232 127.896431 
L 222.58944 120.988368 
L 222.94656 125.315261 
L 223.30368 120.70457 
L 223.6608 127.455604 
L 224.37504 121.427968 
L 224.73216 125.954829 
L 225.08928 123.976832 
L 225.4464 118.69754 
L 225.80352 126.411195 
L 226.16064 117.50428 
L 226.51776 125.866091 
L 226.87488 115.890232 
L 227.232 119.442611 
L 227.58912 118.567091 
L 227.94624 124.292117 
L 228.30336 120.543452 
L 228.66048 114.685932 
L 229.0176 120.705388 
L 229.37472 117.531679 
L 229.73184 119.208294 
L 230.08896 115.287059 
L 230.44608 118.117676 
L 230.8032 117.020925 
L 231.16032 113.024038 
L 231.51744 115.399924 
L 231.87456 121.519569 
L 232.23168 119.793473 
L 232.5888 122.350924 
L 232.94592 123.174102 
L 233.30304 113.825951 
L 233.66016 114.218524 
L 234.01728 123.485707 
L 234.3744 112.653547 
L 234.73152 114.496597 
L 235.08864 113.804686 
L 235.44576 116.806645 
L 235.80288 114.767309 
L 236.16 122.55539 
L 236.51712 111.069759 
L 236.87424 111.544937 
L 237.23136 115.667365 
L 237.58848 115.549184 
L 237.9456 109.940293 
L 238.30272 111.319207 
L 238.65984 113.49758 
L 239.01696 119.250414 
L 239.37408 115.341856 
L 239.7312 120.006526 
L 240.08832 115.712347 
L 240.44544 108.682014 
L 240.80256 119.238146 
L 241.15968 115.341038 
L 242.23104 109.569393 
L 242.58816 110.40034 
L 242.94528 110.256806 
L 243.3024 115.424051 
L 243.65952 118.366306 
L 244.01664 118.587537 
L 244.37376 117.935293 
L 244.73088 109.753821 
L 245.088 109.200129 
L 245.44512 116.400168 
L 245.80224 111.041952 
L 246.15936 117.750865 
L 246.51648 114.714966 
L 246.8736 117.882132 
L 247.58784 105.886157 
L 247.94496 105.876751 
L 248.30208 109.877727 
L 248.6592 116.975533 
L 249.01632 108.073935 
L 249.37344 105.1738 
L 249.73056 109.725605 
L 250.08768 107.507566 
L 250.4448 113.774834 
L 250.80192 105.575778 
L 251.15904 107.373028 
L 251.51616 113.064113 
L 251.87328 108.969083 
L 252.2304 114.685114 
L 252.58752 106.671712 
L 252.94464 108.235871 
L 253.30176 110.830126 
L 253.65888 107.043839 
L 254.016 107.029117 
L 254.37312 106.093484 
L 254.73024 114.744 
L 255.08736 115.455948 
L 255.44448 105.806006 
L 255.8016 102.802003 
L 256.15872 103.303352 
L 256.51584 107.726753 
L 256.87296 113.696729 
L 257.23008 112.150154 
L 257.5872 106.53472 
L 257.94432 105.909466 
L 258.30144 101.443127 
L 258.65856 113.000729 
L 259.01568 110.271936 
L 259.3728 101.567033 
L 259.72992 101.622647 
L 260.08704 111.859404 
L 260.44416 108.14836 
L 261.1584 111.903569 
L 261.51552 99.390705 
L 261.87264 107.119082 
L 262.22976 102.86825 
L 262.58688 103.783845 
L 262.944 100.311207 
L 263.30112 111.07712 
L 263.65824 98.75768 
L 264.01536 98.871772 
L 264.37248 108.097244 
L 264.7296 99.517882 
L 265.08672 109.202174 
L 265.44384 107.355853 
L 265.80096 97.535387 
L 266.15808 104.48925 
L 266.87232 107.141573 
L 267.22944 104.814759 
L 267.58656 107.572995 
L 267.94368 105.467003 
L 268.3008 102.422924 
L 269.37216 108.907744 
L 269.72928 109.38701 
L 270.0864 101.264424 
L 270.44352 105.833813 
L 270.80064 100.139048 
L 271.51488 105.419158 
L 271.872 104.451628 
L 272.22912 102.469951 
L 272.58624 106.498734 
L 272.94336 107.137484 
L 273.30048 108.200703 
L 273.6576 94.277847 
L 274.01472 102.366901 
L 274.37184 96.547411 
L 274.72896 107.337451 
L 275.08608 95.456385 
L 275.4432 105.171346 
L 276.15744 101.751869 
L 276.51456 95.397908 
L 276.87168 102.940221 
L 277.2288 102.932452 
L 277.94304 96.455402 
L 278.30016 106.242744 
L 278.65728 96.503656 
L 279.0144 94.452869 
L 279.37152 103.36142 
L 279.72864 94.986115 
L 280.08576 104.408691 
L 280.44288 103.417443 
L 280.8 94.267215 
L 281.15712 98.123838 
L 281.51424 94.518707 
L 281.87136 93.017523 
L 282.22848 101.445989 
L 282.5856 94.634434 
L 282.94272 100.805604 
L 283.29984 97.925098 
L 283.65696 99.301149 
L 284.01408 102.939812 
L 284.3712 92.057763 
L 284.72832 99.634427 
L 285.79968 95.276046 
L 286.1568 92.638854 
L 286.51392 97.956995 
L 286.87104 95.116155 
L 287.22816 102.790962 
L 287.58528 90.105529 
L 287.9424 102.865796 
L 288.29952 91.702812 
L 288.65664 97.043853 
L 289.01376 100.472735 
L 289.37088 92.647441 
L 289.728 99.223043 
L 290.44224 89.313022 
L 290.79936 93.975239 
L 291.15648 87.79957 
L 291.5136 88.874649 
L 292.22784 95.066674 
L 292.58496 94.539971 
L 292.94208 100.73445 
L 293.2992 97.397578 
L 293.65632 99.61439 
L 294.01344 96.845522 
L 294.37056 91.753928 
L 294.72768 89.329379 
L 295.0848 100.500542 
L 295.44192 87.296586 
L 296.15616 95.599919 
L 296.51328 89.088928 
L 296.8704 90.372152 
L 297.22752 97.146903 
L 297.58464 96.502838 
L 297.94176 94.291751 
L 298.29888 97.548882 
L 298.656 94.33019 
L 299.01312 86.473818 
L 299.37024 86.533113 
L 299.72736 94.019812 
L 300.4416 86.22437 
L 300.79872 95.77535 
L 301.15584 91.948579 
L 301.51296 85.634284 
L 301.87008 83.44855 
L 302.58432 94.579638 
L 303.29856 88.495161 
L 303.65568 88.470216 
L 304.0128 93.493927 
L 304.36992 92.501453 
L 304.72704 90.775358 
L 305.08416 92.323977 
L 305.44128 91.314737 
L 305.7984 95.877583 
L 306.15552 84.885532 
L 306.51264 94.236136 
L 306.86976 94.69741 
L 307.22688 83.925363 
L 307.584 96.088591 
L 307.94112 83.786327 
L 308.29824 88.456313 
L 308.65536 89.534253 
L 309.3696 95.252328 
L 309.72672 82.038149 
L 310.44096 88.635015 
L 310.79808 87.78444 
L 311.1552 83.591676 
L 311.51232 84.205071 
L 311.86944 94.659379 
L 312.22656 83.071925 
L 312.58368 79.473746 
L 312.9408 93.144292 
L 313.29792 81.247686 
L 314.01216 83.589631 
L 314.36928 87.537037 
L 314.7264 84.614411 
L 315.08352 79.253332 
L 315.44064 78.927006 
L 315.79776 79.895762 
L 316.15488 90.959376 
L 316.512 89.617675 
L 316.86912 78.97894 
L 317.22624 78.759753 
L 317.58336 89.406258 
L 317.94048 92.634355 
L 318.2976 79.769812 
L 318.65472 82.445035 
L 319.01184 89.826639 
L 319.36896 79.115114 
L 319.72608 91.625933 
L 320.0832 77.144069 
L 320.44032 89.054987 
L 320.79744 83.588813 
L 321.15456 91.38221 
L 321.51168 79.451664 
L 321.8688 77.402922 
L 322.22592 76.168361 
L 322.58304 83.499257 
L 322.94016 78.259222 
L 323.6544 89.939913 
L 324.01152 87.412722 
L 324.36864 82.411093 
L 324.72576 75.641658 
L 325.08288 81.486911 
L 325.44 77.990964 
L 325.79712 83.349589 
L 326.15424 74.954246 
L 326.51136 77.44954 
L 326.86848 88.123034 
L 327.2256 82.526412 
L 327.58272 80.992923 
L 327.93984 82.519051 
L 328.29696 74.811938 
L 328.65408 87.817563 
L 329.0112 76.27591 
L 329.36832 88.50334 
L 329.72544 76.856182 
L 330.08256 73.677974 
L 330.43968 84.443069 
L 330.7968 73.570834 
L 331.15392 81.630854 
L 331.51104 82.058595 
L 331.86816 87.709606 
L 332.22528 85.32595 
L 332.5824 77.884233 
L 332.93952 79.392778 
L 333.29664 73.742176 
L 333.65376 75.940178 
L 334.01088 83.348771 
L 334.368 86.591181 
L 334.72512 86.853305 
L 335.08224 73.88612 
L 335.43936 86.844718 
L 335.79648 73.360235 
L 336.1536 79.140876 
L 336.51072 78.094014 
L 337.22496 71.378149 
L 337.58208 74.963243 
L 337.9392 85.684991 
L 338.29632 75.292432 
L 338.65344 77.100722 
L 339.01056 74.248432 
L 339.36768 75.125588 
L 339.7248 83.013448 
L 340.08192 75.173024 
L 340.43904 75.213099 
L 340.79616 83.352451 
L 341.15328 84.459835 
L 341.5104 78.508261 
L 341.86752 84.123285 
L 342.22464 78.514804 
L 342.58176 70.914422 
L 342.93888 83.642383 
L 343.296 71.757637 
L 343.65312 79.247198 
L 344.01024 73.972813 
L 344.36736 73.441203 
L 344.72448 69.08364 
L 345.0816 74.913353 
L 345.43872 69.25948 
L 345.79584 74.95261 
L 346.15296 72.216866 
L 346.51008 77.278607 
L 346.8672 73.118148 
L 347.22432 82.570167 
L 347.58144 74.502378 
L 347.93856 70.590958 
L 348.29568 69.784547 
L 348.6528 71.847601 
L 349.00992 73.159041 
L 349.36704 68.93479 
L 349.72416 82.306816 
L 350.08128 80.798681 
L 350.4384 78.613765 
L 350.79552 72.518656 
L 351.15264 74.898223 
L 351.50976 78.085018 
L 351.86688 67.325648 
L 352.58112 76.685658 
L 352.93824 77.541549 
L 353.29536 66.356892 
L 353.65248 67.677328 
L 354.36672 77.855608 
L 355.08096 75.125997 
L 355.43808 74.739149 
L 355.7952 76.587106 
L 356.15232 68.275594 
L 356.50944 70.220058 
L 356.86656 69.262752 
L 357.22368 77.767688 
L 357.5808 67.410706 
L 357.93792 76.313531 
L 358.29504 74.366613 
L 358.65216 73.604776 
L 359.00928 67.814729 
L 359.3664 70.533708 
L 359.72352 66.349122 
L 360.08064 70.928326 
L 360.43776 64.897419 
L 360.79488 77.882188 
L 361.152 68.487011 
L 361.86624 75.352136 
L 362.22336 65.272408 
L 362.58048 78.502945 
L 362.9376 74.681898 
L 363.29472 72.428692 
L 364.00896 73.536075 
L 364.36608 74.820526 
L 365.08032 67.53134 
L 365.43744 72.000132 
L 366.15168 76.580563 
L 366.5088 69.551457 
L 366.86592 71.037101 
L 367.22304 76.0465 
L 367.58016 64.183017 
L 367.93728 74.581302 
L 368.2944 65.821193 
L 368.65152 60.796255 
L 369.36576 75.226185 
L 369.72288 71.965782 
L 370.08 71.280006 
L 370.43712 63.271102 
L 370.79424 60.23234 
L 371.15136 65.397541 
L 371.50848 72.189876 
L 371.8656 59.794784 
L 372.57984 67.310927 
L 372.93696 61.778915 
L 373.6512 71.749049 
L 374.00832 68.387232 
L 374.36544 74.693349 
L 374.72256 62.22056 
L 375.07968 73.303394 
L 375.79392 59.176073 
L 376.15104 67.209103 
L 376.50816 64.818495 
L 376.86528 57.741544 
L 377.2224 62.867079 
L 377.57952 63.959332 
L 377.93664 68.926202 
L 378.29376 65.896845 
L 378.65088 70.368091 
L 379.008 57.774668 
L 379.36512 59.286484 
L 379.72224 73.09852 
L 380.07936 57.42585 
L 380.43648 69.173605 
L 380.7936 60.79053 
L 381.15072 69.080778 
L 381.50784 72.397613 
L 381.86496 66.052239 
L 382.22208 62.890797 
L 382.5792 67.183749 
L 382.93632 57.584515 
L 383.29344 71.764588 
L 384.00768 63.280508 
L 384.3648 61.557684 
L 384.72192 64.515887 
L 385.07904 65.892756 
L 385.43616 68.131241 
L 385.79328 61.821035 
L 386.1504 70.656796 
L 386.50752 57.590649 
L 386.86464 61.856203 
L 387.22176 62.054534 
L 387.57888 65.143186 
L 387.936 57.699425 
L 388.29312 69.28238 
L 388.65024 59.396895 
L 389.00736 65.453973 
L 389.36448 64.198557 
L 389.7216 66.619425 
L 390.07872 62.073754 
L 390.43584 65.022552 
L 390.79296 66.853742 
L 391.15008 68.024919 
L 391.5072 66.988689 
L 391.86432 67.226278 
L 392.22144 53.964663 
L 392.57856 57.241831 
L 392.93568 62.717411 
L 393.2928 58.612975 
L 393.64992 69.288923 
L 394.00704 57.652398 
L 394.36416 53.966707 
L 394.72128 65.286721 
L 395.0784 60.697294 
L 395.43552 53.833805 
L 395.79264 55.947158 
L 396.14976 56.490626 
L 396.50688 63.649772 
L 396.864 56.006452 
L 397.22112 67.46632 
L 397.57824 59.835269 
L 397.93536 58.619109 
L 398.29248 54.935055 
L 398.6496 64.649607 
L 399.00672 65.937329 
L 399.36384 63.470252 
L 399.72096 64.604625 
L 400.07808 53.568 
L 400.4352 61.414967 
L 400.79232 61.372438 
L 401.14944 62.490454 
L 401.50656 67.862574 
L 401.86368 60.609374 
L 402.2208 55.681353 
L 402.93504 69.327772 
L 403.29216 64.680686 
L 403.64928 67.25613 
L 404.0064 66.854151 
L 404.36352 65.400812 
L 404.72064 69.751015 
L 405.07776 65.486688 
L 405.43488 64.391981 
L 405.792 59.795193 
L 406.14912 73.781025 
L 406.50624 74.514237 
L 406.86336 72.79632 
L 407.5776 77.323589 
L 407.93472 63.136564 
L 408.29184 76.583016 
L 408.64896 79.95383 
L 409.00608 77.981967 
L 409.3632 77.827392 
L 409.72032 80.008627 
L 410.07744 69.061149 
L 410.43456 82.301091 
L 410.79168 82.341575 
L 411.1488 71.604697 
L 411.50592 70.377087 
L 411.86304 70.409802 
L 412.22016 83.317692 
L 412.57728 74.806622 
L 413.29152 86.05998 
L 413.64864 72.83476 
L 414.00576 86.107007 
L 414.36288 77.240985 
L 414.72 78.171302 
L 414.72 78.171302 
" style="fill:none;stroke:#000080;stroke-linecap:square;stroke-width:0.5;"/>
   </g>
   <g id="patch_3">
    <path d="M 57.6 307.584 
L 57.6 41.472 
" style="fill:none;stroke:#000000;stroke-linecap:square;stroke-linejoin:miter;stroke-width:0.8;"/>
   </g>
   <g id="patch_4">
    <path d="M 414.72 307.584 
L 414.72 41.472 
" style="fill:none;stroke:#000000;stroke-linecap:square;stroke-linejoin:miter;stroke-width:0.8;"/>
   </g>
   <g id="patch_5">
    <path d="M 57.6 307.584 
L 414.72 307.584 
" style="fill:none;stroke:#000000;stroke-linecap:square;stroke-linejoin:miter;stroke-width:0.8;"/>
   </g>
   <g id="patch_6">
    <path d="M 57.6 41.472 
L 414.72 41.472 
" style="fill:none;stroke:#000000;stroke-linecap:square;stroke-linejoin:miter;stroke-width:0.8;"/>
   </g>
   <g id="text_16">
    <!-- Test -->
    <defs>
     <path d="M -0.296875 72.90625 
L 61.375 72.90625 
L 61.375 64.59375 
L 35.5 64.59375 
L 35.5 0 
L 25.59375 0 
L 25.59375 64.59375 
L -0.296875 64.59375 
z
" id="DejaVuSans-54"/>
    </defs>
    <g transform="translate(223.341563 35.472)scale(0.12 -0.12)">
     <use xlink:href="#DejaVuSans-54"/>
     <use x="60.818359" xlink:href="#DejaVuSans-65"/>
     <use x="122.341797" xlink:href="#DejaVuSans-73"/>
     <use x="174.441406" xlink:href="#DejaVuSans-74"/>
    </g>
   </g>
   <g id="legend_1">
    <g id="patch_7">
     <path d="M 64.6 64.150125 
L 306.276563 64.150125 
Q 308.276563 64.150125 308.276563 62.150125 
L 308.276563 48.472 
Q 308.276563 46.472 306.276563 46.472 
L 64.6 46.472 
Q 62.6 46.472 62.6 48.472 
L 62.6 62.150125 
Q 62.6 64.150125 64.6 64.150125 
z
" style="fill:#ffffff;opacity:0.8;stroke:#cccccc;stroke-linejoin:miter;"/>
    </g>
    <g id="line2d_28">
     <path d="M 66.6 54.570438 
L 86.6 54.570438 
" style="fill:none;stroke:#000080;stroke-linecap:square;stroke-width:0.5;"/>
    </g>
    <g id="line2d_29"/>
    <g id="text_17">
     <!-- Successful download requests per second -->
     <g transform="translate(94.6 58.070438)scale(0.1 -0.1)">
      <use xlink:href="#DejaVuSans-53"/>
      <use x="63.476562" xlink:href="#DejaVuSans-75"/>
      <use x="126.855469" xlink:href="#DejaVuSans-63"/>
      <use x="181.835938" xlink:href="#DejaVuSans-63"/>
      <use x="236.816406" xlink:href="#DejaVuSans-65"/>
      <use x="298.339844" xlink:href="#DejaVuSans-73"/>
      <use x="350.439453" xlink:href="#DejaVuSans-73"/>
      <use x="402.539062" xlink:href="#DejaVuSans-66"/>
      <use x="437.744141" xlink:href="#DejaVuSans-75"/>
      <use x="501.123047" xlink:href="#DejaVuSans-6c"/>
      <use x="528.90625" xlink:href="#DejaVuSans-20"/>
      <use x="560.693359" xlink:href="#DejaVuSans-64"/>
      <use x="624.169922" xlink:href="#DejaVuSans-6f"/>
      <use x="685.351562" xlink:href="#DejaVuSans-77"/>
      <use x="767.138672" xlink:href="#DejaVuSans-6e"/>
      <use x="830.517578" xlink:href="#DejaVuSans-6c"/>
      <use x="858.300781" xlink:href="#DejaVuSans-6f"/>
      <use x="919.482422" xlink:href="#DejaVuSans-61"/>
      <use x="980.761719" xlink:href="#DejaVuSans-64"/>
      <use x="1044.238281" xlink:href="#DejaVuSans-20"/>
      <use x="1076.025391" xlink:href="#DejaVuSans-72"/>
      <use x="1117.107422" xlink:href="#DejaVuSans-65"/>
      <use x="1178.630859" xlink:href="#DejaVuSans-71"/>
      <use x="1242.107422" xlink:href="#DejaVuSans-75"/>
      <use x="1305.486328" xlink:href="#DejaVuSans-65"/>
      <use x="1367.009766" xlink:href="#DejaVuSans-73"/>
      <use x="1419.109375" xlink:href="#DejaVuSans-74"/>
      <use x="1458.318359" xlink:href="#DejaVuSans-73"/>
      <use x="1510.417969" xlink:href="#DejaVuSans-20"/>
      <use x="1542.205078" xlink:href="#DejaVuSans-70"/>
      <use x="1605.681641" xlink:href="#DejaVuSans-65"/>
      <use x="1667.205078" xlink:href="#DejaVuSans-72"/>
      <use x="1708.318359" xlink:href="#DejaVuSans-20"/>
      <use x="1740.105469" xlink:href="#DejaVuSans-73"/>
      <use x="1792.205078" xlink:href="#DejaVuSans-65"/>
      <use x="1853.728516" xlink:href="#DejaVuSans-63"/>
      <use x="1908.708984" xlink:href="#DejaVuSans-6f"/>
      <use x="1969.890625" xlink:href="#DejaVuSans-6e"/>
      <use x="2033.269531" xlink:href="#DejaVuSans-64"/>
     </g>
    </g>
   </g>
  </g>
 </g>
 <defs>
  <clipPath id="p8653c3f44d">
   <rect height="266.112" width="357.12" x="57.6" y="41.472"/>
  </clipPath>
 </defs>
</svg>
