<?xml version="1.0" encoding="utf-8" standalone="no"?>
<!DOCTYPE svg PUBLIC "-//W3C//DTD SVG 1.1//EN"
  "http://www.w3.org/Graphics/SVG/1.1/DTD/svg11.dtd">
<!-- Created with matplotlib (http://matplotlib.org/) -->
<svg height="345pt" version="1.1" viewBox="0 0 460 345" width="460pt" xmlns="http://www.w3.org/2000/svg" xmlns:xlink="http://www.w3.org/1999/xlink">
 <defs>
  <style type="text/css">
*{stroke-linecap:butt;stroke-linejoin:round;}
  </style>
 </defs>
 <g id="figure_1">
  <g id="patch_1">
   <path d="M 0 345.6 
L 460.8 345.6 
L 460.8 0 
L 0 0 
z
" style="fill:#ffffff;"/>
  </g>
  <g id="axes_1">
   <g id="patch_2">
    <path d="M 57.6 307.584 
L 414.72 307.584 
L 414.72 41.472 
L 57.6 41.472 
z
" style="fill:#ffffff;"/>
   </g>
   <g id="matplotlib.axis_1">
    <g id="xtick_1">
     <g id="line2d_1">
      <path clip-path="url(#p7c75a9f746)" d="M 57.6 307.584 
L 57.6 41.472 
" style="fill:none;stroke:#b0b0b0;stroke-linecap:square;stroke-width:0.8;"/>
     </g>
     <g id="line2d_2">
      <defs>
       <path d="M 0 0 
L 0 3.5 
" id="mc5536edcb4" style="stroke:#000000;stroke-width:0.8;"/>
      </defs>
      <g>
       <use style="stroke:#000000;stroke-width:0.8;" x="57.6" xlink:href="#mc5536edcb4" y="307.584"/>
      </g>
     </g>
     <g id="text_1">
      <!-- 0 -->
      <defs>
       <path d="M 31.78125 66.40625 
Q 24.171875 66.40625 20.328125 58.90625 
Q 16.5 51.421875 16.5 36.375 
Q 16.5 21.390625 20.328125 13.890625 
Q 24.171875 6.390625 31.78125 6.390625 
Q 39.453125 6.390625 43.28125 13.890625 
Q 47.125 21.390625 47.125 36.375 
Q 47.125 51.421875 43.28125 58.90625 
Q 39.453125 66.40625 31.78125 66.40625 
M 31.78125 74.21875 
Q 44.046875 74.21875 50.515625 64.515625 
Q 56.984375 54.828125 56.984375 36.375 
Q 56.984375 17.96875 50.515625 8.265625 
Q 44.046875 -1.421875 31.78125 -1.421875 
Q 19.53125 -1.421875 13.0625 8.265625 
Q 6.59375 17.96875 6.59375 36.375 
Q 6.59375 54.828125 13.0625 64.515625 
Q 19.53125 74.21875 31.78125 74.21875 
" id="DejaVuSans-30"/>
      </defs>
      <g transform="translate(54.41875 322.182437)scale(0.1 -0.1)">
       <use xlink:href="#DejaVuSans-30"/>
      </g>
     </g>
    </g>
    <g id="xtick_2">
     <g id="line2d_3">
      <path clip-path="url(#p7c75a9f746)" d="M 129.024 307.584 
L 129.024 41.472 
" style="fill:none;stroke:#b0b0b0;stroke-linecap:square;stroke-width:0.8;"/>
     </g>
     <g id="line2d_4">
      <g>
       <use style="stroke:#000000;stroke-width:0.8;" x="129.024" xlink:href="#mc5536edcb4" y="307.584"/>
      </g>
     </g>
     <g id="text_2">
      <!-- 200 -->
      <defs>
       <path d="M 19.1875 8.296875 
L 53.609375 8.296875 
L 53.609375 0 
L 7.328125 0 
L 7.328125 8.296875 
Q 12.9375 14.109375 22.625 23.890625 
Q 32.328125 33.6875 34.8125 36.53125 
Q 39.546875 41.84375 41.421875 45.53125 
Q 43.3125 49.21875 43.3125 52.78125 
Q 43.3125 58.59375 39.234375 62.25 
Q 35.15625 65.921875 28.609375 65.921875 
Q 23.96875 65.921875 18.8125 64.3125 
Q 13.671875 62.703125 7.8125 59.421875 
L 7.8125 69.390625 
Q 13.765625 71.78125 18.9375 73 
Q 24.125 74.21875 28.421875 74.21875 
Q 39.75 74.21875 46.484375 68.546875 
Q 53.21875 62.890625 53.21875 53.421875 
Q 53.21875 48.921875 51.53125 44.890625 
Q 49.859375 40.875 45.40625 35.40625 
Q 44.1875 33.984375 37.640625 27.21875 
Q 31.109375 20.453125 19.1875 8.296875 
" id="DejaVuSans-32"/>
      </defs>
      <g transform="translate(119.48025 322.182437)scale(0.1 -0.1)">
       <use xlink:href="#DejaVuSans-32"/>
       <use x="63.623047" xlink:href="#DejaVuSans-30"/>
       <use x="127.246094" xlink:href="#DejaVuSans-30"/>
      </g>
     </g>
    </g>
    <g id="xtick_3">
     <g id="line2d_5">
      <path clip-path="url(#p7c75a9f746)" d="M 200.448 307.584 
L 200.448 41.472 
" style="fill:none;stroke:#b0b0b0;stroke-linecap:square;stroke-width:0.8;"/>
     </g>
     <g id="line2d_6">
      <g>
       <use style="stroke:#000000;stroke-width:0.8;" x="200.448" xlink:href="#mc5536edcb4" y="307.584"/>
      </g>
     </g>
     <g id="text_3">
      <!-- 400 -->
      <defs>
       <path d="M 37.796875 64.3125 
L 12.890625 25.390625 
L 37.796875 25.390625 
z
M 35.203125 72.90625 
L 47.609375 72.90625 
L 47.609375 25.390625 
L 58.015625 25.390625 
L 58.015625 17.1875 
L 47.609375 17.1875 
L 47.609375 0 
L 37.796875 0 
L 37.796875 17.1875 
L 4.890625 17.1875 
L 4.890625 26.703125 
z
" id="DejaVuSans-34"/>
      </defs>
      <g transform="translate(190.90425 322.182437)scale(0.1 -0.1)">
       <use xlink:href="#DejaVuSans-34"/>
       <use x="63.623047" xlink:href="#DejaVuSans-30"/>
       <use x="127.246094" xlink:href="#DejaVuSans-30"/>
      </g>
     </g>
    </g>
    <g id="xtick_4">
     <g id="line2d_7">
      <path clip-path="url(#p7c75a9f746)" d="M 271.872 307.584 
L 271.872 41.472 
" style="fill:none;stroke:#b0b0b0;stroke-linecap:square;stroke-width:0.8;"/>
     </g>
     <g id="line2d_8">
      <g>
       <use style="stroke:#000000;stroke-width:0.8;" x="271.872" xlink:href="#mc5536edcb4" y="307.584"/>
      </g>
     </g>
     <g id="text_4">
      <!-- 600 -->
      <defs>
       <path d="M 33.015625 40.375 
Q 26.375 40.375 22.484375 35.828125 
Q 18.609375 31.296875 18.609375 23.390625 
Q 18.609375 15.53125 22.484375 10.953125 
Q 26.375 6.390625 33.015625 6.390625 
Q 39.65625 6.390625 43.53125 10.953125 
Q 47.40625 15.53125 47.40625 23.390625 
Q 47.40625 31.296875 43.53125 35.828125 
Q 39.65625 40.375 33.015625 40.375 
M 52.59375 71.296875 
L 52.59375 62.3125 
Q 48.875 64.0625 45.09375 64.984375 
Q 41.3125 65.921875 37.59375 65.921875 
Q 27.828125 65.921875 22.671875 59.328125 
Q 17.53125 52.734375 16.796875 39.40625 
Q 19.671875 43.65625 24.015625 45.921875 
Q 28.375 48.1875 33.59375 48.1875 
Q 44.578125 48.1875 50.953125 41.515625 
Q 57.328125 34.859375 57.328125 23.390625 
Q 57.328125 12.15625 50.6875 5.359375 
Q 44.046875 -1.421875 33.015625 -1.421875 
Q 20.359375 -1.421875 13.671875 8.265625 
Q 6.984375 17.96875 6.984375 36.375 
Q 6.984375 53.65625 15.1875 63.9375 
Q 23.390625 74.21875 37.203125 74.21875 
Q 40.921875 74.21875 44.703125 73.484375 
Q 48.484375 72.75 52.59375 71.296875 
" id="DejaVuSans-36"/>
      </defs>
      <g transform="translate(262.32825 322.182437)scale(0.1 -0.1)">
       <use xlink:href="#DejaVuSans-36"/>
       <use x="63.623047" xlink:href="#DejaVuSans-30"/>
       <use x="127.246094" xlink:href="#DejaVuSans-30"/>
      </g>
     </g>
    </g>
    <g id="xtick_5">
     <g id="line2d_9">
      <path clip-path="url(#p7c75a9f746)" d="M 343.296 307.584 
L 343.296 41.472 
" style="fill:none;stroke:#b0b0b0;stroke-linecap:square;stroke-width:0.8;"/>
     </g>
     <g id="line2d_10">
      <g>
       <use style="stroke:#000000;stroke-width:0.8;" x="343.296" xlink:href="#mc5536edcb4" y="307.584"/>
      </g>
     </g>
     <g id="text_5">
      <!-- 800 -->
      <defs>
       <path d="M 31.78125 34.625 
Q 24.75 34.625 20.71875 30.859375 
Q 16.703125 27.09375 16.703125 20.515625 
Q 16.703125 13.921875 20.71875 10.15625 
Q 24.75 6.390625 31.78125 6.390625 
Q 38.8125 6.390625 42.859375 10.171875 
Q 46.921875 13.96875 46.921875 20.515625 
Q 46.921875 27.09375 42.890625 30.859375 
Q 38.875 34.625 31.78125 34.625 
M 21.921875 38.8125 
Q 15.578125 40.375 12.03125 44.71875 
Q 8.5 49.078125 8.5 55.328125 
Q 8.5 64.0625 14.71875 69.140625 
Q 20.953125 74.21875 31.78125 74.21875 
Q 42.671875 74.21875 48.875 69.140625 
Q 55.078125 64.0625 55.078125 55.328125 
Q 55.078125 49.078125 51.53125 44.71875 
Q 48 40.375 41.703125 38.8125 
Q 48.828125 37.15625 52.796875 32.3125 
Q 56.78125 27.484375 56.78125 20.515625 
Q 56.78125 9.90625 50.3125 4.234375 
Q 43.84375 -1.421875 31.78125 -1.421875 
Q 19.734375 -1.421875 13.25 4.234375 
Q 6.78125 9.90625 6.78125 20.515625 
Q 6.78125 27.484375 10.78125 32.3125 
Q 14.796875 37.15625 21.921875 38.8125 
M 18.3125 54.390625 
Q 18.3125 48.734375 21.84375 45.5625 
Q 25.390625 42.390625 31.78125 42.390625 
Q 38.140625 42.390625 41.71875 45.5625 
Q 45.3125 48.734375 45.3125 54.390625 
Q 45.3125 60.0625 41.71875 63.234375 
Q 38.140625 66.40625 31.78125 66.40625 
Q 25.390625 66.40625 21.84375 63.234375 
Q 18.3125 60.0625 18.3125 54.390625 
" id="DejaVuSans-38"/>
      </defs>
      <g transform="translate(333.75225 322.182437)scale(0.1 -0.1)">
       <use xlink:href="#DejaVuSans-38"/>
       <use x="63.623047" xlink:href="#DejaVuSans-30"/>
       <use x="127.246094" xlink:href="#DejaVuSans-30"/>
      </g>
     </g>
    </g>
    <g id="xtick_6">
     <g id="line2d_11">
      <path clip-path="url(#p7c75a9f746)" d="M 414.72 307.584 
L 414.72 41.472 
" style="fill:none;stroke:#b0b0b0;stroke-linecap:square;stroke-width:0.8;"/>
     </g>
     <g id="line2d_12">
      <g>
       <use style="stroke:#000000;stroke-width:0.8;" x="414.72" xlink:href="#mc5536edcb4" y="307.584"/>
      </g>
     </g>
     <g id="text_6">
      <!-- 1000 -->
      <defs>
       <path d="M 12.40625 8.296875 
L 28.515625 8.296875 
L 28.515625 63.921875 
L 10.984375 60.40625 
L 10.984375 69.390625 
L 28.421875 72.90625 
L 38.28125 72.90625 
L 38.28125 8.296875 
L 54.390625 8.296875 
L 54.390625 0 
L 12.40625 0 
z
" id="DejaVuSans-31"/>
      </defs>
      <g transform="translate(401.995 322.182437)scale(0.1 -0.1)">
       <use xlink:href="#DejaVuSans-31"/>
       <use x="63.623047" xlink:href="#DejaVuSans-30"/>
       <use x="127.246094" xlink:href="#DejaVuSans-30"/>
       <use x="190.869141" xlink:href="#DejaVuSans-30"/>
      </g>
     </g>
    </g>
    <g id="text_7">
     <!-- Number of clients -->
     <defs>
      <path d="M 9.8125 72.90625 
L 23.09375 72.90625 
L 55.421875 11.921875 
L 55.421875 72.90625 
L 64.984375 72.90625 
L 64.984375 0 
L 51.703125 0 
L 19.390625 60.984375 
L 19.390625 0 
L 9.8125 0 
z
" id="DejaVuSans-4e"/>
      <path d="M 8.5 21.578125 
L 8.5 54.6875 
L 17.484375 54.6875 
L 17.484375 21.921875 
Q 17.484375 14.15625 20.5 10.265625 
Q 23.53125 6.390625 29.59375 6.390625 
Q 36.859375 6.390625 41.078125 11.03125 
Q 45.3125 15.671875 45.3125 23.6875 
L 45.3125 54.6875 
L 54.296875 54.6875 
L 54.296875 0 
L 45.3125 0 
L 45.3125 8.40625 
Q 42.046875 3.421875 37.71875 1 
Q 33.40625 -1.421875 27.6875 -1.421875 
Q 18.265625 -1.421875 13.375 4.4375 
Q 8.5 10.296875 8.5 21.578125 
M 31.109375 56 
z
" id="DejaVuSans-75"/>
      <path d="M 52 44.1875 
Q 55.375 50.25 60.0625 53.125 
Q 64.75 56 71.09375 56 
Q 79.640625 56 84.28125 50.015625 
Q 88.921875 44.046875 88.921875 33.015625 
L 88.921875 0 
L 79.890625 0 
L 79.890625 32.71875 
Q 79.890625 40.578125 77.09375 44.375 
Q 74.3125 48.1875 68.609375 48.1875 
Q 61.625 48.1875 57.5625 43.546875 
Q 53.515625 38.921875 53.515625 30.90625 
L 53.515625 0 
L 44.484375 0 
L 44.484375 32.71875 
Q 44.484375 40.625 41.703125 44.40625 
Q 38.921875 48.1875 33.109375 48.1875 
Q 26.21875 48.1875 22.15625 43.53125 
Q 18.109375 38.875 18.109375 30.90625 
L 18.109375 0 
L 9.078125 0 
L 9.078125 54.6875 
L 18.109375 54.6875 
L 18.109375 46.1875 
Q 21.1875 51.21875 25.484375 53.609375 
Q 29.78125 56 35.6875 56 
Q 41.65625 56 45.828125 52.96875 
Q 50 49.953125 52 44.1875 
" id="DejaVuSans-6d"/>
      <path d="M 48.6875 27.296875 
Q 48.6875 37.203125 44.609375 42.84375 
Q 40.53125 48.484375 33.40625 48.484375 
Q 26.265625 48.484375 22.1875 42.84375 
Q 18.109375 37.203125 18.109375 27.296875 
Q 18.109375 17.390625 22.1875 11.75 
Q 26.265625 6.109375 33.40625 6.109375 
Q 40.53125 6.109375 44.609375 11.75 
Q 48.6875 17.390625 48.6875 27.296875 
M 18.109375 46.390625 
Q 20.953125 51.265625 25.265625 53.625 
Q 29.59375 56 35.59375 56 
Q 45.5625 56 51.78125 48.09375 
Q 58.015625 40.1875 58.015625 27.296875 
Q 58.015625 14.40625 51.78125 6.484375 
Q 45.5625 -1.421875 35.59375 -1.421875 
Q 29.59375 -1.421875 25.265625 0.953125 
Q 20.953125 3.328125 18.109375 8.203125 
L 18.109375 0 
L 9.078125 0 
L 9.078125 75.984375 
L 18.109375 75.984375 
z
" id="DejaVuSans-62"/>
      <path d="M 56.203125 29.59375 
L 56.203125 25.203125 
L 14.890625 25.203125 
Q 15.484375 15.921875 20.484375 11.0625 
Q 25.484375 6.203125 34.421875 6.203125 
Q 39.59375 6.203125 44.453125 7.46875 
Q 49.3125 8.734375 54.109375 11.28125 
L 54.109375 2.78125 
Q 49.265625 0.734375 44.1875 -0.34375 
Q 39.109375 -1.421875 33.890625 -1.421875 
Q 20.796875 -1.421875 13.15625 6.1875 
Q 5.515625 13.8125 5.515625 26.8125 
Q 5.515625 40.234375 12.765625 48.109375 
Q 20.015625 56 32.328125 56 
Q 43.359375 56 49.78125 48.890625 
Q 56.203125 41.796875 56.203125 29.59375 
M 47.21875 32.234375 
Q 47.125 39.59375 43.09375 43.984375 
Q 39.0625 48.390625 32.421875 48.390625 
Q 24.90625 48.390625 20.390625 44.140625 
Q 15.875 39.890625 15.1875 32.171875 
z
" id="DejaVuSans-65"/>
      <path d="M 41.109375 46.296875 
Q 39.59375 47.171875 37.8125 47.578125 
Q 36.03125 48 33.890625 48 
Q 26.265625 48 22.1875 43.046875 
Q 18.109375 38.09375 18.109375 28.8125 
L 18.109375 0 
L 9.078125 0 
L 9.078125 54.6875 
L 18.109375 54.6875 
L 18.109375 46.1875 
Q 20.953125 51.171875 25.484375 53.578125 
Q 30.03125 56 36.53125 56 
Q 37.453125 56 38.578125 55.875 
Q 39.703125 55.765625 41.0625 55.515625 
z
" id="DejaVuSans-72"/>
      <path id="DejaVuSans-20"/>
      <path d="M 30.609375 48.390625 
Q 23.390625 48.390625 19.1875 42.75 
Q 14.984375 37.109375 14.984375 27.296875 
Q 14.984375 17.484375 19.15625 11.84375 
Q 23.34375 6.203125 30.609375 6.203125 
Q 37.796875 6.203125 41.984375 11.859375 
Q 46.1875 17.53125 46.1875 27.296875 
Q 46.1875 37.015625 41.984375 42.703125 
Q 37.796875 48.390625 30.609375 48.390625 
M 30.609375 56 
Q 42.328125 56 49.015625 48.375 
Q 55.71875 40.765625 55.71875 27.296875 
Q 55.71875 13.875 49.015625 6.21875 
Q 42.328125 -1.421875 30.609375 -1.421875 
Q 18.84375 -1.421875 12.171875 6.21875 
Q 5.515625 13.875 5.515625 27.296875 
Q 5.515625 40.765625 12.171875 48.375 
Q 18.84375 56 30.609375 56 
" id="DejaVuSans-6f"/>
      <path d="M 37.109375 75.984375 
L 37.109375 68.5 
L 28.515625 68.5 
Q 23.6875 68.5 21.796875 66.546875 
Q 19.921875 64.59375 19.921875 59.515625 
L 19.921875 54.6875 
L 34.71875 54.6875 
L 34.71875 47.703125 
L 19.921875 47.703125 
L 19.921875 0 
L 10.890625 0 
L 10.890625 47.703125 
L 2.296875 47.703125 
L 2.296875 54.6875 
L 10.890625 54.6875 
L 10.890625 58.5 
Q 10.890625 67.625 15.140625 71.796875 
Q 19.390625 75.984375 28.609375 75.984375 
z
" id="DejaVuSans-66"/>
      <path d="M 48.78125 52.59375 
L 48.78125 44.1875 
Q 44.96875 46.296875 41.140625 47.34375 
Q 37.3125 48.390625 33.40625 48.390625 
Q 24.65625 48.390625 19.8125 42.84375 
Q 14.984375 37.3125 14.984375 27.296875 
Q 14.984375 17.28125 19.8125 11.734375 
Q 24.65625 6.203125 33.40625 6.203125 
Q 37.3125 6.203125 41.140625 7.25 
Q 44.96875 8.296875 48.78125 10.40625 
L 48.78125 2.09375 
Q 45.015625 0.34375 40.984375 -0.53125 
Q 36.96875 -1.421875 32.421875 -1.421875 
Q 20.0625 -1.421875 12.78125 6.34375 
Q 5.515625 14.109375 5.515625 27.296875 
Q 5.515625 40.671875 12.859375 48.328125 
Q 20.21875 56 33.015625 56 
Q 37.15625 56 41.109375 55.140625 
Q 45.0625 54.296875 48.78125 52.59375 
" id="DejaVuSans-63"/>
      <path d="M 9.421875 75.984375 
L 18.40625 75.984375 
L 18.40625 0 
L 9.421875 0 
z
" id="DejaVuSans-6c"/>
      <path d="M 9.421875 54.6875 
L 18.40625 54.6875 
L 18.40625 0 
L 9.421875 0 
z
M 9.421875 75.984375 
L 18.40625 75.984375 
L 18.40625 64.59375 
L 9.421875 64.59375 
z
" id="DejaVuSans-69"/>
      <path d="M 54.890625 33.015625 
L 54.890625 0 
L 45.90625 0 
L 45.90625 32.71875 
Q 45.90625 40.484375 42.875 44.328125 
Q 39.84375 48.1875 33.796875 48.1875 
Q 26.515625 48.1875 22.3125 43.546875 
Q 18.109375 38.921875 18.109375 30.90625 
L 18.109375 0 
L 9.078125 0 
L 9.078125 54.6875 
L 18.109375 54.6875 
L 18.109375 46.1875 
Q 21.34375 51.125 25.703125 53.5625 
Q 30.078125 56 35.796875 56 
Q 45.21875 56 50.046875 50.171875 
Q 54.890625 44.34375 54.890625 33.015625 
" id="DejaVuSans-6e"/>
      <path d="M 18.3125 70.21875 
L 18.3125 54.6875 
L 36.8125 54.6875 
L 36.8125 47.703125 
L 18.3125 47.703125 
L 18.3125 18.015625 
Q 18.3125 11.328125 20.140625 9.421875 
Q 21.96875 7.515625 27.59375 7.515625 
L 36.8125 7.515625 
L 36.8125 0 
L 27.59375 0 
Q 17.1875 0 13.234375 3.875 
Q 9.28125 7.765625 9.28125 18.015625 
L 9.28125 47.703125 
L 2.6875 47.703125 
L 2.6875 54.6875 
L 9.28125 54.6875 
L 9.28125 70.21875 
z
" id="DejaVuSans-74"/>
      <path d="M 44.28125 53.078125 
L 44.28125 44.578125 
Q 40.484375 46.53125 36.375 47.5 
Q 32.28125 48.484375 27.875 48.484375 
Q 21.1875 48.484375 17.84375 46.4375 
Q 14.5 44.390625 14.5 40.28125 
Q 14.5 37.15625 16.890625 35.375 
Q 19.28125 33.59375 26.515625 31.984375 
L 29.59375 31.296875 
Q 39.15625 29.25 43.1875 25.515625 
Q 47.21875 21.78125 47.21875 15.09375 
Q 47.21875 7.46875 41.1875 3.015625 
Q 35.15625 -1.421875 24.609375 -1.421875 
Q 20.21875 -1.421875 15.453125 -0.5625 
Q 10.6875 0.296875 5.421875 2 
L 5.421875 11.28125 
Q 10.40625 8.6875 15.234375 7.390625 
Q 20.0625 6.109375 24.8125 6.109375 
Q 31.15625 6.109375 34.5625 8.28125 
Q 37.984375 10.453125 37.984375 14.40625 
Q 37.984375 18.0625 35.515625 20.015625 
Q 33.0625 21.96875 24.703125 23.78125 
L 21.578125 24.515625 
Q 13.234375 26.265625 9.515625 29.90625 
Q 5.8125 33.546875 5.8125 39.890625 
Q 5.8125 47.609375 11.28125 51.796875 
Q 16.75 56 26.8125 56 
Q 31.78125 56 36.171875 55.265625 
Q 40.578125 54.546875 44.28125 53.078125 
" id="DejaVuSans-73"/>
     </defs>
     <g transform="translate(191.738906 335.860562)scale(0.1 -0.1)">
      <use xlink:href="#DejaVuSans-4e"/>
      <use x="74.804688" xlink:href="#DejaVuSans-75"/>
      <use x="138.183594" xlink:href="#DejaVuSans-6d"/>
      <use x="235.595703" xlink:href="#DejaVuSans-62"/>
      <use x="299.072266" xlink:href="#DejaVuSans-65"/>
      <use x="360.595703" xlink:href="#DejaVuSans-72"/>
      <use x="401.708984" xlink:href="#DejaVuSans-20"/>
      <use x="433.496094" xlink:href="#DejaVuSans-6f"/>
      <use x="494.677734" xlink:href="#DejaVuSans-66"/>
      <use x="529.882812" xlink:href="#DejaVuSans-20"/>
      <use x="561.669922" xlink:href="#DejaVuSans-63"/>
      <use x="616.650391" xlink:href="#DejaVuSans-6c"/>
      <use x="644.433594" xlink:href="#DejaVuSans-69"/>
      <use x="672.216797" xlink:href="#DejaVuSans-65"/>
      <use x="733.740234" xlink:href="#DejaVuSans-6e"/>
      <use x="797.119141" xlink:href="#DejaVuSans-74"/>
      <use x="836.328125" xlink:href="#DejaVuSans-73"/>
     </g>
    </g>
   </g>
   <g id="matplotlib.axis_2">
    <g id="ytick_1">
     <g id="line2d_13">
      <path clip-path="url(#p7c75a9f746)" d="M 57.6 295.868266 
L 414.72 295.868266 
" style="fill:none;stroke:#b0b0b0;stroke-linecap:square;stroke-width:0.8;"/>
     </g>
     <g id="line2d_14">
      <defs>
       <path d="M 0 0 
L -3.5 0 
" id="mbfbcbe7370" style="stroke:#000000;stroke-width:0.8;"/>
      </defs>
      <g>
       <use style="stroke:#000000;stroke-width:0.8;" x="57.6" xlink:href="#mbfbcbe7370" y="295.868266"/>
      </g>
     </g>
     <g id="text_8">
      <!-- 0 -->
      <g transform="translate(44.2375 299.667484)scale(0.1 -0.1)">
       <use xlink:href="#DejaVuSans-30"/>
      </g>
     </g>
    </g>
    <g id="ytick_2">
     <g id="line2d_15">
      <path clip-path="url(#p7c75a9f746)" d="M 57.6 255.284948 
L 414.72 255.284948 
" style="fill:none;stroke:#b0b0b0;stroke-linecap:square;stroke-width:0.8;"/>
     </g>
     <g id="line2d_16">
      <g>
       <use style="stroke:#000000;stroke-width:0.8;" x="57.6" xlink:href="#mbfbcbe7370" y="255.284948"/>
      </g>
     </g>
     <g id="text_9">
      <!-- 100 -->
      <g transform="translate(31.5125 259.084166)scale(0.1 -0.1)">
       <use xlink:href="#DejaVuSans-31"/>
       <use x="63.623047" xlink:href="#DejaVuSans-30"/>
       <use x="127.246094" xlink:href="#DejaVuSans-30"/>
      </g>
     </g>
    </g>
    <g id="ytick_3">
     <g id="line2d_17">
      <path clip-path="url(#p7c75a9f746)" d="M 57.6 214.701629 
L 414.72 214.701629 
" style="fill:none;stroke:#b0b0b0;stroke-linecap:square;stroke-width:0.8;"/>
     </g>
     <g id="line2d_18">
      <g>
       <use style="stroke:#000000;stroke-width:0.8;" x="57.6" xlink:href="#mbfbcbe7370" y="214.701629"/>
      </g>
     </g>
     <g id="text_10">
      <!-- 200 -->
      <g transform="translate(31.5125 218.500848)scale(0.1 -0.1)">
       <use xlink:href="#DejaVuSans-32"/>
       <use x="63.623047" xlink:href="#DejaVuSans-30"/>
       <use x="127.246094" xlink:href="#DejaVuSans-30"/>
      </g>
     </g>
    </g>
    <g id="ytick_4">
     <g id="line2d_19">
      <path clip-path="url(#p7c75a9f746)" d="M 57.6 174.118311 
L 414.72 174.118311 
" style="fill:none;stroke:#b0b0b0;stroke-linecap:square;stroke-width:0.8;"/>
     </g>
     <g id="line2d_20">
      <g>
       <use style="stroke:#000000;stroke-width:0.8;" x="57.6" xlink:href="#mbfbcbe7370" y="174.118311"/>
      </g>
     </g>
     <g id="text_11">
      <!-- 300 -->
      <defs>
       <path d="M 40.578125 39.3125 
Q 47.65625 37.796875 51.625 33 
Q 55.609375 28.21875 55.609375 21.1875 
Q 55.609375 10.40625 48.1875 4.484375 
Q 40.765625 -1.421875 27.09375 -1.421875 
Q 22.515625 -1.421875 17.65625 -0.515625 
Q 12.796875 0.390625 7.625 2.203125 
L 7.625 11.71875 
Q 11.71875 9.328125 16.59375 8.109375 
Q 21.484375 6.890625 26.8125 6.890625 
Q 36.078125 6.890625 40.9375 10.546875 
Q 45.796875 14.203125 45.796875 21.1875 
Q 45.796875 27.640625 41.28125 31.265625 
Q 36.765625 34.90625 28.71875 34.90625 
L 20.21875 34.90625 
L 20.21875 43.015625 
L 29.109375 43.015625 
Q 36.375 43.015625 40.234375 45.921875 
Q 44.09375 48.828125 44.09375 54.296875 
Q 44.09375 59.90625 40.109375 62.90625 
Q 36.140625 65.921875 28.71875 65.921875 
Q 24.65625 65.921875 20.015625 65.03125 
Q 15.375 64.15625 9.8125 62.3125 
L 9.8125 71.09375 
Q 15.4375 72.65625 20.34375 73.4375 
Q 25.25 74.21875 29.59375 74.21875 
Q 40.828125 74.21875 47.359375 69.109375 
Q 53.90625 64.015625 53.90625 55.328125 
Q 53.90625 49.265625 50.4375 45.09375 
Q 46.96875 40.921875 40.578125 39.3125 
" id="DejaVuSans-33"/>
      </defs>
      <g transform="translate(31.5125 177.91753)scale(0.1 -0.1)">
       <use xlink:href="#DejaVuSans-33"/>
       <use x="63.623047" xlink:href="#DejaVuSans-30"/>
       <use x="127.246094" xlink:href="#DejaVuSans-30"/>
      </g>
     </g>
    </g>
    <g id="ytick_5">
     <g id="line2d_21">
      <path clip-path="url(#p7c75a9f746)" d="M 57.6 133.534993 
L 414.72 133.534993 
" style="fill:none;stroke:#b0b0b0;stroke-linecap:square;stroke-width:0.8;"/>
     </g>
     <g id="line2d_22">
      <g>
       <use style="stroke:#000000;stroke-width:0.8;" x="57.6" xlink:href="#mbfbcbe7370" y="133.534993"/>
      </g>
     </g>
     <g id="text_12">
      <!-- 400 -->
      <g transform="translate(31.5125 137.334212)scale(0.1 -0.1)">
       <use xlink:href="#DejaVuSans-34"/>
       <use x="63.623047" xlink:href="#DejaVuSans-30"/>
       <use x="127.246094" xlink:href="#DejaVuSans-30"/>
      </g>
     </g>
    </g>
    <g id="ytick_6">
     <g id="line2d_23">
      <path clip-path="url(#p7c75a9f746)" d="M 57.6 92.951675 
L 414.72 92.951675 
" style="fill:none;stroke:#b0b0b0;stroke-linecap:square;stroke-width:0.8;"/>
     </g>
     <g id="line2d_24">
      <g>
       <use style="stroke:#000000;stroke-width:0.8;" x="57.6" xlink:href="#mbfbcbe7370" y="92.951675"/>
      </g>
     </g>
     <g id="text_13">
      <!-- 500 -->
      <defs>
       <path d="M 10.796875 72.90625 
L 49.515625 72.90625 
L 49.515625 64.59375 
L 19.828125 64.59375 
L 19.828125 46.734375 
Q 21.96875 47.46875 24.109375 47.828125 
Q 26.265625 48.1875 28.421875 48.1875 
Q 40.625 48.1875 47.75 41.5 
Q 54.890625 34.8125 54.890625 23.390625 
Q 54.890625 11.625 47.5625 5.09375 
Q 40.234375 -1.421875 26.90625 -1.421875 
Q 22.3125 -1.421875 17.546875 -0.640625 
Q 12.796875 0.140625 7.71875 1.703125 
L 7.71875 11.625 
Q 12.109375 9.234375 16.796875 8.0625 
Q 21.484375 6.890625 26.703125 6.890625 
Q 35.15625 6.890625 40.078125 11.328125 
Q 45.015625 15.765625 45.015625 23.390625 
Q 45.015625 31 40.078125 35.4375 
Q 35.15625 39.890625 26.703125 39.890625 
Q 22.75 39.890625 18.8125 39.015625 
Q 14.890625 38.140625 10.796875 36.28125 
z
" id="DejaVuSans-35"/>
      </defs>
      <g transform="translate(31.5125 96.750894)scale(0.1 -0.1)">
       <use xlink:href="#DejaVuSans-35"/>
       <use x="63.623047" xlink:href="#DejaVuSans-30"/>
       <use x="127.246094" xlink:href="#DejaVuSans-30"/>
      </g>
     </g>
    </g>
    <g id="ytick_7">
     <g id="line2d_25">
      <path clip-path="url(#p7c75a9f746)" d="M 57.6 52.368357 
L 414.72 52.368357 
" style="fill:none;stroke:#b0b0b0;stroke-linecap:square;stroke-width:0.8;"/>
     </g>
     <g id="line2d_26">
      <g>
       <use style="stroke:#000000;stroke-width:0.8;" x="57.6" xlink:href="#mbfbcbe7370" y="52.368357"/>
      </g>
     </g>
     <g id="text_14">
      <!-- 600 -->
      <g transform="translate(31.5125 56.167576)scale(0.1 -0.1)">
       <use xlink:href="#DejaVuSans-36"/>
       <use x="63.623047" xlink:href="#DejaVuSans-30"/>
       <use x="127.246094" xlink:href="#DejaVuSans-30"/>
      </g>
     </g>
    </g>
    <g id="text_15">
     <!-- Successful download requests per second -->
     <defs>
      <path d="M 53.515625 70.515625 
L 53.515625 60.890625 
Q 47.90625 63.578125 42.921875 64.890625 
Q 37.9375 66.21875 33.296875 66.21875 
Q 25.25 66.21875 20.875 63.09375 
Q 16.5 59.96875 16.5 54.203125 
Q 16.5 49.359375 19.40625 46.890625 
Q 22.3125 44.4375 30.421875 42.921875 
L 36.375 41.703125 
Q 47.40625 39.59375 52.65625 34.296875 
Q 57.90625 29 57.90625 20.125 
Q 57.90625 9.515625 50.796875 4.046875 
Q 43.703125 -1.421875 29.984375 -1.421875 
Q 24.8125 -1.421875 18.96875 -0.25 
Q 13.140625 0.921875 6.890625 3.21875 
L 6.890625 13.375 
Q 12.890625 10.015625 18.65625 8.296875 
Q 24.421875 6.59375 29.984375 6.59375 
Q 38.421875 6.59375 43.015625 9.90625 
Q 47.609375 13.234375 47.609375 19.390625 
Q 47.609375 24.75 44.3125 27.78125 
Q 41.015625 30.8125 33.5 32.328125 
L 27.484375 33.5 
Q 16.453125 35.6875 11.515625 40.375 
Q 6.59375 45.0625 6.59375 53.421875 
Q 6.59375 63.09375 13.40625 68.65625 
Q 20.21875 74.21875 32.171875 74.21875 
Q 37.3125 74.21875 42.625 73.28125 
Q 47.953125 72.359375 53.515625 70.515625 
" id="DejaVuSans-53"/>
      <path d="M 45.40625 46.390625 
L 45.40625 75.984375 
L 54.390625 75.984375 
L 54.390625 0 
L 45.40625 0 
L 45.40625 8.203125 
Q 42.578125 3.328125 38.25 0.953125 
Q 33.9375 -1.421875 27.875 -1.421875 
Q 17.96875 -1.421875 11.734375 6.484375 
Q 5.515625 14.40625 5.515625 27.296875 
Q 5.515625 40.1875 11.734375 48.09375 
Q 17.96875 56 27.875 56 
Q 33.9375 56 38.25 53.625 
Q 42.578125 51.265625 45.40625 46.390625 
M 14.796875 27.296875 
Q 14.796875 17.390625 18.875 11.75 
Q 22.953125 6.109375 30.078125 6.109375 
Q 37.203125 6.109375 41.296875 11.75 
Q 45.40625 17.390625 45.40625 27.296875 
Q 45.40625 37.203125 41.296875 42.84375 
Q 37.203125 48.484375 30.078125 48.484375 
Q 22.953125 48.484375 18.875 42.84375 
Q 14.796875 37.203125 14.796875 27.296875 
" id="DejaVuSans-64"/>
      <path d="M 4.203125 54.6875 
L 13.1875 54.6875 
L 24.421875 12.015625 
L 35.59375 54.6875 
L 46.1875 54.6875 
L 57.421875 12.015625 
L 68.609375 54.6875 
L 77.59375 54.6875 
L 63.28125 0 
L 52.6875 0 
L 40.921875 44.828125 
L 29.109375 0 
L 18.5 0 
z
" id="DejaVuSans-77"/>
      <path d="M 34.28125 27.484375 
Q 23.390625 27.484375 19.1875 25 
Q 14.984375 22.515625 14.984375 16.5 
Q 14.984375 11.71875 18.140625 8.90625 
Q 21.296875 6.109375 26.703125 6.109375 
Q 34.1875 6.109375 38.703125 11.40625 
Q 43.21875 16.703125 43.21875 25.484375 
L 43.21875 27.484375 
z
M 52.203125 31.203125 
L 52.203125 0 
L 43.21875 0 
L 43.21875 8.296875 
Q 40.140625 3.328125 35.546875 0.953125 
Q 30.953125 -1.421875 24.3125 -1.421875 
Q 15.921875 -1.421875 10.953125 3.296875 
Q 6 8.015625 6 15.921875 
Q 6 25.140625 12.171875 29.828125 
Q 18.359375 34.515625 30.609375 34.515625 
L 43.21875 34.515625 
L 43.21875 35.40625 
Q 43.21875 41.609375 39.140625 45 
Q 35.0625 48.390625 27.6875 48.390625 
Q 23 48.390625 18.546875 47.265625 
Q 14.109375 46.140625 10.015625 43.890625 
L 10.015625 52.203125 
Q 14.9375 54.109375 19.578125 55.046875 
Q 24.21875 56 28.609375 56 
Q 40.484375 56 46.34375 49.84375 
Q 52.203125 43.703125 52.203125 31.203125 
" id="DejaVuSans-61"/>
      <path d="M 14.796875 27.296875 
Q 14.796875 17.390625 18.875 11.75 
Q 22.953125 6.109375 30.078125 6.109375 
Q 37.203125 6.109375 41.296875 11.75 
Q 45.40625 17.390625 45.40625 27.296875 
Q 45.40625 37.203125 41.296875 42.84375 
Q 37.203125 48.484375 30.078125 48.484375 
Q 22.953125 48.484375 18.875 42.84375 
Q 14.796875 37.203125 14.796875 27.296875 
M 45.40625 8.203125 
Q 42.578125 3.328125 38.25 0.953125 
Q 33.9375 -1.421875 27.875 -1.421875 
Q 17.96875 -1.421875 11.734375 6.484375 
Q 5.515625 14.40625 5.515625 27.296875 
Q 5.515625 40.1875 11.734375 48.09375 
Q 17.96875 56 27.875 56 
Q 33.9375 56 38.25 53.625 
Q 42.578125 51.265625 45.40625 46.390625 
L 45.40625 54.6875 
L 54.390625 54.6875 
L 54.390625 -20.796875 
L 45.40625 -20.796875 
z
" id="DejaVuSans-71"/>
      <path d="M 18.109375 8.203125 
L 18.109375 -20.796875 
L 9.078125 -20.796875 
L 9.078125 54.6875 
L 18.109375 54.6875 
L 18.109375 46.390625 
Q 20.953125 51.265625 25.265625 53.625 
Q 29.59375 56 35.59375 56 
Q 45.5625 56 51.78125 48.09375 
Q 58.015625 40.1875 58.015625 27.296875 
Q 58.015625 14.40625 51.78125 6.484375 
Q 45.5625 -1.421875 35.59375 -1.421875 
Q 29.59375 -1.421875 25.265625 0.953125 
Q 20.953125 3.328125 18.109375 8.203125 
M 48.6875 27.296875 
Q 48.6875 37.203125 44.609375 42.84375 
Q 40.53125 48.484375 33.40625 48.484375 
Q 26.265625 48.484375 22.1875 42.84375 
Q 18.109375 37.203125 18.109375 27.296875 
Q 18.109375 17.390625 22.1875 11.75 
Q 26.265625 6.109375 33.40625 6.109375 
Q 40.53125 6.109375 44.609375 11.75 
Q 48.6875 17.390625 48.6875 27.296875 
" id="DejaVuSans-70"/>
     </defs>
     <g transform="translate(25.432812 279.366281)rotate(-90)scale(0.1 -0.1)">
      <use xlink:href="#DejaVuSans-53"/>
      <use x="63.476562" xlink:href="#DejaVuSans-75"/>
      <use x="126.855469" xlink:href="#DejaVuSans-63"/>
      <use x="181.835938" xlink:href="#DejaVuSans-63"/>
      <use x="236.816406" xlink:href="#DejaVuSans-65"/>
      <use x="298.339844" xlink:href="#DejaVuSans-73"/>
      <use x="350.439453" xlink:href="#DejaVuSans-73"/>
      <use x="402.539062" xlink:href="#DejaVuSans-66"/>
      <use x="437.744141" xlink:href="#DejaVuSans-75"/>
      <use x="501.123047" xlink:href="#DejaVuSans-6c"/>
      <use x="528.90625" xlink:href="#DejaVuSans-20"/>
      <use x="560.693359" xlink:href="#DejaVuSans-64"/>
      <use x="624.169922" xlink:href="#DejaVuSans-6f"/>
      <use x="685.351562" xlink:href="#DejaVuSans-77"/>
      <use x="767.138672" xlink:href="#DejaVuSans-6e"/>
      <use x="830.517578" xlink:href="#DejaVuSans-6c"/>
      <use x="858.300781" xlink:href="#DejaVuSans-6f"/>
      <use x="919.482422" xlink:href="#DejaVuSans-61"/>
      <use x="980.761719" xlink:href="#DejaVuSans-64"/>
      <use x="1044.238281" xlink:href="#DejaVuSans-20"/>
      <use x="1076.025391" xlink:href="#DejaVuSans-72"/>
      <use x="1117.107422" xlink:href="#DejaVuSans-65"/>
      <use x="1178.630859" xlink:href="#DejaVuSans-71"/>
      <use x="1242.107422" xlink:href="#DejaVuSans-75"/>
      <use x="1305.486328" xlink:href="#DejaVuSans-65"/>
      <use x="1367.009766" xlink:href="#DejaVuSans-73"/>
      <use x="1419.109375" xlink:href="#DejaVuSans-74"/>
      <use x="1458.318359" xlink:href="#DejaVuSans-73"/>
      <use x="1510.417969" xlink:href="#DejaVuSans-20"/>
      <use x="1542.205078" xlink:href="#DejaVuSans-70"/>
      <use x="1605.681641" xlink:href="#DejaVuSans-65"/>
      <use x="1667.205078" xlink:href="#DejaVuSans-72"/>
      <use x="1708.318359" xlink:href="#DejaVuSans-20"/>
      <use x="1740.105469" xlink:href="#DejaVuSans-73"/>
      <use x="1792.205078" xlink:href="#DejaVuSans-65"/>
      <use x="1853.728516" xlink:href="#DejaVuSans-63"/>
      <use x="1908.708984" xlink:href="#DejaVuSans-6f"/>
      <use x="1969.890625" xlink:href="#DejaVuSans-6e"/>
      <use x="2033.269531" xlink:href="#DejaVuSans-64"/>
     </g>
    </g>
   </g>
   <g id="line2d_27">
    <path clip-path="url(#p7c75a9f746)" d="M 57.6 295.462838 
L 57.95712 295.488 
L 65.45664 287.505667 
L 65.81376 286.722815 
L 66.17088 286.719974 
L 67.24224 285.495981 
L 67.95648 284.334081 
L 68.67072 283.944481 
L 69.74208 282.624306 
L 70.0992 281.949405 
L 70.81344 281.324422 
L 71.17056 281.20673 
L 71.52768 280.371932 
L 71.8848 280.28833 
L 72.24192 279.28024 
L 72.59904 279.541597 
L 72.95616 278.842346 
L 73.31328 279.205161 
L 74.02752 277.27583 
L 74.74176 277.059115 
L 75.09888 276.648006 
L 75.456 276.828196 
L 75.81312 276.325369 
L 76.17024 275.367603 
L 76.52736 275.586347 
L 76.88448 274.830685 
L 77.2416 274.772245 
L 77.59872 273.5933 
L 77.95584 273.270257 
L 78.31296 272.404209 
L 78.67008 272.230918 
L 79.0272 272.527176 
L 79.74144 271.759746 
L 80.09856 272.06899 
L 80.45568 271.096614 
L 80.8128 269.707041 
L 81.16992 269.158355 
L 81.52704 269.771975 
L 81.88416 269.674169 
L 82.24128 269.128323 
L 82.5984 268.116175 
L 82.95552 268.685965 
L 83.31264 268.106841 
L 83.66976 267.179918 
L 84.02688 267.720082 
L 84.384 267.094693 
L 84.74112 265.381265 
L 85.09824 264.776574 
L 85.81248 264.756688 
L 86.1696 265.519655 
L 86.52672 264.956358 
L 86.88384 263.344795 
L 87.24096 263.570438 
L 87.59808 262.253103 
L 87.9552 263.268092 
L 88.31232 262.772164 
L 88.66944 261.588754 
L 89.02656 262.430047 
L 89.38368 260.146017 
L 89.7408 260.445116 
L 90.09792 261.10906 
L 90.45504 259.232081 
L 90.81216 259.887908 
L 91.16928 259.73085 
L 91.5264 258.41798 
L 91.88352 259.250749 
L 92.24064 256.769891 
L 92.59776 257.967505 
L 92.95488 257.679363 
L 93.312 256.580367 
L 93.66912 256.293849 
L 94.02624 256.68426 
L 94.38336 254.412812 
L 94.74048 256.057654 
L 95.0976 256.205783 
L 95.45472 255.557262 
L 95.81184 253.328832 
L 96.16896 253.501717 
L 96.52608 254.611265 
L 96.8832 252.039094 
L 97.24032 252.293551 
L 97.59744 253.319903 
L 97.95456 251.76191 
L 98.6688 251.755416 
L 99.02592 250.096776 
L 99.38304 250.034278 
L 99.74016 250.768836 
L 100.09728 249.646301 
L 100.4544 249.206784 
L 100.81152 249.034711 
L 101.16864 247.400015 
L 101.52576 248.016069 
L 101.88288 247.267713 
L 102.24 245.160221 
L 102.59712 246.505153 
L 102.95424 245.943885 
L 103.31136 244.270635 
L 103.66848 244.109519 
L 104.0256 245.665484 
L 104.38272 243.682989 
L 104.73984 243.678119 
L 105.09696 244.846918 
L 105.45408 245.186601 
L 105.8112 242.338869 
L 106.16832 244.070965 
L 106.52544 240.607585 
L 106.88256 240.345417 
L 107.23968 242.549497 
L 107.5968 242.818158 
L 107.95392 242.394874 
L 108.31104 240.813748 
L 108.66816 241.746353 
L 109.02528 238.144177 
L 109.3824 237.199398 
L 109.73952 238.043531 
L 110.45376 238.991963 
L 110.81088 238.633206 
L 111.168 235.406427 
L 111.52512 235.869888 
L 111.88224 238.214792 
L 112.23936 235.605691 
L 112.59648 234.625604 
L 112.9536 237.142987 
L 113.31072 236.830495 
L 113.66784 233.477096 
L 114.02496 235.799679 
L 114.38208 235.717701 
L 115.09632 231.283973 
L 115.45344 230.809148 
L 115.81056 232.342792 
L 116.16768 230.732446 
L 116.5248 231.53559 
L 116.88192 232.772569 
L 117.23904 229.142392 
L 117.59616 230.275072 
L 117.95328 230.393575 
L 118.3104 229.15619 
L 118.66752 229.113577 
L 119.02464 227.7654 
L 119.38176 225.811313 
L 119.73888 229.311624 
L 120.096 229.505612 
L 120.45312 229.306348 
L 120.81024 227.480099 
L 121.16736 228.049483 
L 121.52448 224.424175 
L 121.8816 225.998808 
L 122.23872 225.060521 
L 122.59584 223.066663 
L 123.31008 225.146558 
L 123.6672 222.833715 
L 124.02432 223.622249 
L 124.38144 221.162088 
L 124.73856 223.21398 
L 125.09568 219.890613 
L 125.4528 219.990448 
L 125.80992 221.528149 
L 126.16704 219.933631 
L 126.52416 219.658882 
L 126.88128 217.461701 
L 127.2384 218.12118 
L 127.59552 221.854033 
L 127.95264 217.262437 
L 128.30976 219.47301 
L 128.66688 219.471793 
L 129.024 220.263979 
L 129.38112 215.226372 
L 130.09536 213.92243 
L 130.8096 215.14764 
L 131.16672 214.882631 
L 131.52384 216.794511 
L 131.88096 213.759285 
L 132.23808 216.119611 
L 132.5952 211.782877 
L 132.95232 213.378207 
L 133.66656 209.873432 
L 134.02368 211.700899 
L 134.3808 211.661939 
L 134.73792 210.196475 
L 135.45216 211.428179 
L 135.80928 213.11888 
L 136.1664 209.82879 
L 136.52352 208.772001 
L 136.88064 209.418493 
L 137.23776 205.937662 
L 137.59488 206.405993 
L 138.30912 208.226967 
L 138.66624 206.149507 
L 139.02336 205.067556 
L 139.38048 204.780226 
L 139.7376 202.813964 
L 140.09472 202.140687 
L 140.45184 204.100861 
L 140.80896 202.864693 
L 141.16608 206.540324 
L 141.5232 200.891532 
L 141.88032 206.534643 
L 142.23744 206.29723 
L 142.59456 204.303372 
L 142.95168 205.201886 
L 143.3088 199.600171 
L 143.66592 198.938663 
L 144.02304 198.78404 
L 144.38016 203.146341 
L 144.73728 203.090336 
L 145.0944 199.543354 
L 145.45152 202.700331 
L 145.80864 198.841263 
L 146.16576 197.088469 
L 146.52288 201.146801 
L 146.88 195.574712 
L 147.23712 198.289736 
L 147.59424 199.998293 
L 147.95136 194.335297 
L 148.30848 194.150237 
L 148.6656 199.132245 
L 149.02272 195.116526 
L 149.37984 196.402206 
L 149.73696 194.358835 
L 150.09408 197.931385 
L 150.4512 196.533695 
L 150.80832 197.315736 
L 151.16544 189.904816 
L 151.52256 190.105298 
L 151.87968 191.563051 
L 152.2368 191.838206 
L 152.59392 193.183543 
L 152.95104 191.705498 
L 153.30816 188.962472 
L 153.66528 191.956709 
L 154.0224 187.275017 
L 154.37952 192.531369 
L 154.73664 190.681987 
L 155.09376 190.931168 
L 155.45088 185.393981 
L 155.808 188.100076 
L 156.16512 188.068827 
L 156.52224 185.144393 
L 156.87936 185.24991 
L 157.23648 188.989662 
L 157.95072 187.001892 
L 158.30784 181.831983 
L 158.66496 181.475661 
L 159.02208 182.911093 
L 159.3792 181.072263 
L 159.73632 186.340383 
L 160.45056 179.438379 
L 160.80768 183.557585 
L 161.1648 179.890071 
L 161.52192 178.713155 
L 161.87904 179.148614 
L 162.23616 179.838936 
L 162.59328 181.982141 
L 162.9504 179.516299 
L 163.30752 182.964663 
L 163.66464 182.23741 
L 164.37888 178.61819 
L 164.736 175.686451 
L 165.09312 179.749247 
L 165.45024 178.102376 
L 165.80736 178.160004 
L 166.16448 174.438108 
L 166.5216 177.47861 
L 166.87872 179.280915 
L 167.23584 173.091553 
L 167.59296 178.580041 
L 167.95008 175.091905 
L 168.3072 175.652361 
L 168.66432 173.408915 
L 169.02144 170.046181 
L 169.37856 174.791183 
L 169.73568 171.906521 
L 170.0928 170.411025 
L 170.44992 170.05795 
L 170.80704 171.316439 
L 171.16416 175.287111 
L 171.52128 167.105108 
L 171.8784 167.783255 
L 172.23552 173.337894 
L 172.59264 170.376529 
L 172.94976 173.005923 
L 173.30688 167.526363 
L 173.664 166.723625 
L 174.02112 170.771811 
L 174.37824 164.461511 
L 174.73536 164.227345 
L 175.09248 170.966611 
L 175.4496 161.971318 
L 175.80672 162.86334 
L 176.16384 170.355832 
L 176.52096 169.164306 
L 176.87808 161.92343 
L 177.2352 164.967585 
L 177.59232 162.429098 
L 177.94944 164.128728 
L 178.30656 162.028541 
L 178.66368 162.60523 
L 179.0208 161.390977 
L 179.37792 162.109708 
L 179.73504 161.11501 
L 180.09216 161.101212 
L 180.44928 165.731363 
L 180.8064 160.697408 
L 181.16352 159.647112 
L 181.52064 162.407995 
L 181.87776 154.934983 
L 182.23488 162.015554 
L 182.592 154.274286 
L 182.94912 154.906574 
L 183.30624 159.744918 
L 183.66336 153.351422 
L 184.02048 154.033627 
L 184.3776 152.382292 
L 184.73472 153.475201 
L 185.09184 158.673112 
L 185.44896 154.963391 
L 185.80608 154.671597 
L 186.1632 158.471413 
L 186.52032 156.67479 
L 186.87744 152.082787 
L 187.23456 153.861554 
L 187.59168 157.482398 
L 187.9488 150.445656 
L 188.30592 148.643351 
L 188.66304 147.886472 
L 189.02016 151.351476 
L 189.37728 146.818319 
L 190.09152 153.198423 
L 190.44864 145.310649 
L 190.80576 146.707121 
L 191.16288 151.704551 
L 191.52 151.69197 
L 191.87712 152.493085 
L 192.23424 145.471765 
L 192.59136 145.427123 
L 192.94848 142.068448 
L 193.3056 143.627253 
L 193.66272 152.047886 
L 194.01984 149.282944 
L 194.37696 144.198666 
L 194.73408 150.838908 
L 195.0912 140.322553 
L 195.44832 149.293902 
L 196.16256 139.474362 
L 196.51968 140.717835 
L 196.8768 145.448632 
L 197.23392 144.996128 
L 197.59104 137.37174 
L 197.94816 146.669378 
L 198.30528 145.047263 
L 198.6624 138.313273 
L 199.01952 145.620705 
L 199.37664 143.120773 
L 199.73376 145.630445 
L 200.09088 139.959738 
L 200.448 137.262165 
L 200.80512 139.314869 
L 201.16224 137.405424 
L 201.51936 141.396388 
L 201.87648 142.757552 
L 202.2336 132.288274 
L 202.59072 142.368358 
L 202.94784 133.029731 
L 203.30496 141.531124 
L 203.66208 130.718917 
L 204.0192 138.025943 
L 204.37632 130.915746 
L 204.73344 131.848351 
L 205.09056 136.401799 
L 205.44768 131.181567 
L 205.8048 131.184813 
L 206.16192 129.08625 
L 206.51904 135.496791 
L 207.23328 128.990473 
L 207.5904 131.372308 
L 207.94752 127.368764 
L 208.30464 130.193363 
L 208.66176 134.691618 
L 209.01888 135.081218 
L 209.376 130.440109 
L 209.73312 131.745269 
L 210.09024 127.720621 
L 210.44736 130.548873 
L 210.80448 125.690238 
L 211.1616 127.199126 
L 211.51872 132.806523 
L 211.87584 125.702819 
L 212.23296 121.840099 
L 212.59008 120.599872 
L 212.9472 121.641646 
L 213.30432 128.003893 
L 213.66144 128.450715 
L 214.01856 118.87224 
L 214.37568 119.041879 
L 214.7328 126.776248 
L 215.08992 125.377341 
L 215.80416 120.929409 
L 216.16128 120.685909 
L 216.5184 120.1774 
L 216.87552 116.437647 
L 217.23264 122.651359 
L 217.58976 116.982275 
L 217.94688 126.391923 
L 218.304 117.04031 
L 218.66112 116.463215 
L 219.01824 120.392897 
L 219.37536 112.669486 
L 219.73248 119.409969 
L 220.0896 116.979029 
L 220.44672 119.53943 
L 220.80384 116.98471 
L 221.16096 110.243821 
L 221.51808 116.345117 
L 221.8752 113.027025 
L 222.23232 115.117878 
L 222.58944 114.292413 
L 222.94656 108.611966 
L 223.6608 118.529717 
L 224.01792 116.453475 
L 224.37504 112.712099 
L 224.73216 111.469032 
L 225.08928 113.659719 
L 225.4464 111.281942 
L 225.80352 105.349879 
L 226.16064 107.117282 
L 226.51776 112.415029 
L 226.87488 104.095854 
L 227.232 108.818941 
L 227.58912 104.111682 
L 227.94624 111.608638 
L 228.30336 104.772378 
L 228.66048 103.120637 
L 229.0176 103.849919 
L 229.37472 101.338624 
L 229.73184 114.109788 
L 230.08896 107.146502 
L 230.44608 108.245904 
L 230.8032 113.635369 
L 231.16032 111.850515 
L 231.87456 100.195797 
L 232.23168 112.804629 
L 232.5888 103.032977 
L 232.94592 100.916151 
L 233.30304 105.551578 
L 233.66016 106.746351 
L 234.01728 107.017853 
L 234.3744 111.893939 
L 234.73152 103.19247 
L 235.08864 107.077917 
L 235.44576 101.393005 
L 235.80288 110.736909 
L 236.16 100.49165 
L 236.51712 105.057679 
L 236.87424 108.032436 
L 237.23136 101.267603 
L 237.58848 104.301206 
L 237.9456 109.08395 
L 238.30272 100.559018 
L 238.65984 108.226019 
L 239.01696 100.427122 
L 239.37408 99.949051 
L 240.08832 108.623329 
L 240.44544 109.401312 
L 240.80256 105.700925 
L 241.15968 100.772081 
L 241.5168 108.510508 
L 242.23104 104.3982 
L 242.58816 105.785744 
L 242.94528 95.925621 
L 243.3024 107.044232 
L 243.65952 96.63177 
L 244.01664 100.552931 
L 244.37376 94.55147 
L 244.73088 97.046938 
L 245.088 107.208189 
L 245.44512 102.66164 
L 245.80224 99.998157 
L 246.15936 102.010278 
L 246.51648 95.214195 
L 246.8736 98.722623 
L 247.23072 99.114658 
L 247.58784 105.116525 
L 247.94496 103.58694 
L 248.30208 100.554554 
L 248.6592 103.497656 
L 249.37344 92.346578 
L 249.73056 98.891855 
L 250.08768 93.720729 
L 250.4448 102.893371 
L 250.80192 95.748272 
L 251.15904 100.535074 
L 251.51616 103.198963 
L 251.87328 95.864746 
L 252.2304 102.482667 
L 252.58752 93.173666 
L 252.94464 92.7934 
L 253.30176 93.656202 
L 253.65888 102.596301 
L 254.016 98.458426 
L 254.37312 98.909306 
L 254.73024 89.67092 
L 255.08736 93.440704 
L 255.44448 92.103078 
L 255.8016 89.265492 
L 256.15872 96.305075 
L 256.51584 95.899647 
L 256.87296 88.67257 
L 257.23008 89.063388 
L 257.5872 101.411268 
L 257.94432 96.174397 
L 258.30144 95.842425 
L 258.65856 98.393087 
L 259.3728 91.123397 
L 259.72992 99.881683 
L 260.08704 91.319008 
L 260.44416 92.438296 
L 260.80128 92.325069 
L 261.1584 89.343007 
L 261.51552 96.472278 
L 261.87264 92.148937 
L 262.22976 92.995099 
L 262.58688 90.699707 
L 262.944 85.108137 
L 263.30112 95.618405 
L 263.65824 91.043042 
L 264.01536 97.163412 
L 264.37248 94.375744 
L 264.7296 87.92259 
L 265.08672 90.92535 
L 265.44384 86.108516 
L 265.80096 93.305156 
L 266.15808 90.610018 
L 266.5152 91.170473 
L 266.87232 96.869589 
L 267.58656 91.142877 
L 267.94368 94.244254 
L 268.3008 88.194093 
L 268.65792 87.382021 
L 269.01504 94.781577 
L 269.37216 84.468544 
L 269.72928 94.903733 
L 270.0864 83.586669 
L 270.44352 96.257592 
L 271.15776 90.660747 
L 271.51488 95.577822 
L 271.872 85.153996 
L 272.22912 86.731876 
L 272.58624 83.580987 
L 272.94336 93.107921 
L 273.30048 92.493084 
L 273.6576 92.78366 
L 274.01472 86.198611 
L 274.37184 87.393384 
L 274.72896 85.653983 
L 275.4432 93.86967 
L 276.15744 86.052105 
L 276.51456 79.082326 
L 276.87168 93.306779 
L 277.58592 83.215737 
L 277.94304 82.592783 
L 278.30016 92.928949 
L 278.65728 81.863907 
L 279.37152 88.573141 
L 279.72864 87.311406 
L 280.08576 81.71943 
L 280.44288 83.452338 
L 280.8 89.522791 
L 281.15712 84.504258 
L 281.51424 89.204212 
L 281.87136 82.214141 
L 282.22848 86.627983 
L 282.5856 83.884956 
L 282.94272 89.921725 
L 283.29984 78.480881 
L 284.01408 80.863122 
L 284.3712 78.278371 
L 284.72832 89.597058 
L 285.08544 82.103754 
L 285.44256 78.124154 
L 285.79968 80.125318 
L 286.1568 86.107299 
L 286.51392 83.765235 
L 286.87104 87.402718 
L 287.22816 84.950268 
L 287.9424 89.106 
L 288.29952 81.10297 
L 288.65664 88.220472 
L 289.01376 81.794104 
L 289.37088 86.944532 
L 289.728 82.394737 
L 290.08512 84.699869 
L 290.44224 84.699057 
L 290.79936 74.097071 
L 291.15648 84.573655 
L 291.5136 76.771918 
L 291.87072 73.043934 
L 292.22784 85.999753 
L 292.58496 72.65474 
L 292.94208 74.168904 
L 293.2992 79.026321 
L 293.65632 81.394764 
L 294.01344 81.520978 
L 294.37056 78.692321 
L 294.72768 80.358672 
L 295.0848 79.241819 
L 295.44192 75.321064 
L 295.79904 86.034654 
L 296.15616 79.448388 
L 296.51328 82.258377 
L 296.8704 76.309268 
L 297.22752 77.367681 
L 297.58464 70.997318 
L 297.94176 72.908386 
L 298.29888 81.661396 
L 299.01312 70.496114 
L 300.08448 84.577713 
L 300.4416 73.573141 
L 300.79872 83.814747 
L 301.15584 79.733689 
L 301.51296 69.056218 
L 302.2272 83.179618 
L 302.58432 72.787854 
L 302.94144 81.52179 
L 303.29856 74.390895 
L 303.65568 83.07329 
L 304.0128 79.677278 
L 304.36992 74.372632 
L 304.72704 76.395305 
L 305.08416 80.055108 
L 305.44128 80.305102 
L 305.7984 73.06382 
L 306.15552 71.014768 
L 306.51264 73.075184 
L 306.86976 79.317709 
L 307.584 74.124668 
L 307.94112 76.676953 
L 308.29824 72.481044 
L 308.65536 72.778925 
L 309.01248 78.045422 
L 309.72672 69.960414 
L 310.08384 74.395765 
L 310.44096 68.390245 
L 310.79808 79.594082 
L 311.1552 72.710745 
L 311.51232 72.186003 
L 311.86944 76.994315 
L 312.22656 64.857873 
L 312.58368 65.350961 
L 312.9408 63.895643 
L 313.29792 64.697975 
L 313.65504 70.916151 
L 314.01216 72.814233 
L 314.36928 71.31265 
L 314.7264 63.424065 
L 315.08352 71.255022 
L 315.44064 71.935604 
L 315.79776 63.332346 
L 316.15488 65.822539 
L 316.512 67.155701 
L 316.86912 75.356778 
L 317.22624 64.36438 
L 317.58336 75.667646 
L 317.94048 65.678062 
L 318.65472 77.063306 
L 319.01184 65.712558 
L 319.36896 68.646732 
L 320.0832 62.364028 
L 320.79744 69.26441 
L 321.15456 74.959873 
L 321.51168 72.42585 
L 321.8688 61.400175 
L 322.22592 67.959656 
L 322.58304 70.962416 
L 322.94016 65.234081 
L 323.29728 70.585397 
L 323.6544 69.165792 
L 324.01152 66.735258 
L 324.36864 61.786934 
L 324.72576 65.046586 
L 325.08288 60.125453 
L 325.44 60.387621 
L 325.79712 73.440028 
L 326.15424 70.690102 
L 326.86848 70.86461 
L 327.58272 63.820158 
L 327.93984 73.858442 
L 328.29696 66.770565 
L 328.65408 68.523764 
L 329.0112 74.047154 
L 329.36832 72.553688 
L 329.72544 72.477391 
L 330.08256 73.537022 
L 330.43968 59.190413 
L 330.7968 59.993557 
L 331.15392 60.195662 
L 331.51104 63.210596 
L 331.86816 69.411322 
L 332.22528 70.423875 
L 332.5824 68.218984 
L 332.93952 67.638642 
L 333.29664 61.267061 
L 333.65376 57.542324 
L 334.01088 71.408427 
L 334.368 62.170446 
L 334.72512 56.976999 
L 335.08224 65.362324 
L 335.43936 65.403313 
L 335.79648 56.328071 
L 336.1536 70.595137 
L 336.51072 63.908629 
L 336.86784 59.713126 
L 337.22496 65.5624 
L 337.9392 63.771458 
L 338.29632 65.928055 
L 338.65344 70.000185 
L 339.01056 60.173341 
L 339.36768 64.501552 
L 339.7248 57.272445 
L 340.08192 64.334754 
L 340.43904 53.568 
L 341.15328 69.939311 
L 341.5104 58.801625 
L 342.22464 65.778709 
L 342.58176 65.059167 
L 342.93888 60.437538 
L 343.296 68.561101 
L 343.65312 69.307428 
L 344.01024 62.060465 
L 344.36736 62.113223 
L 344.72448 59.61045 
L 345.0816 64.971507 
L 345.43872 73.393357 
L 345.79584 75.156702 
L 346.15296 62.487807 
L 346.51008 72.520815 
L 346.8672 69.365057 
L 347.22432 77.956545 
L 347.58144 66.982004 
L 347.93856 65.677656 
L 348.29568 70.29685 
L 348.6528 67.435726 
L 349.00992 74.814585 
L 349.36704 76.525983 
L 349.72416 67.95925 
L 350.08128 77.040985 
L 350.4384 73.49725 
L 350.79552 75.531692 
L 351.15264 85.802518 
L 351.50976 77.368899 
L 351.86688 75.321064 
L 352.224 82.87849 
L 352.58112 78.175289 
L 353.29536 88.104404 
L 353.65248 77.115253 
L 354.0096 76.296687 
L 354.36672 79.743023 
L 354.72384 92.472792 
L 355.08096 79.696352 
L 355.43808 85.479881 
L 355.7952 80.642755 
L 356.15232 85.675492 
L 356.50944 81.692239 
L 356.86656 95.885849 
L 357.22368 89.873025 
L 357.5808 89.069881 
L 357.93792 95.06566 
L 358.29504 88.377935 
L 358.65216 96.20037 
L 359.00928 97.180863 
L 359.3664 94.127374 
L 359.72352 98.856954 
L 360.08064 96.73404 
L 360.43776 89.623843 
L 360.79488 98.302586 
L 361.152 96.833064 
L 361.50912 93.289734 
L 361.86624 96.233648 
L 362.22336 92.392843 
L 362.58048 92.354695 
L 362.9376 94.158217 
L 363.29472 92.94437 
L 363.65184 98.144311 
L 364.00896 107.297066 
L 364.36608 101.785852 
L 364.7232 101.672624 
L 365.08032 105.439162 
L 365.43744 103.478176 
L 365.79456 108.042176 
L 366.15168 98.105351 
L 366.5088 99.805792 
L 366.86592 106.615673 
L 367.22304 108.227642 
L 367.58016 109.070963 
L 368.2944 104.31541 
L 368.65152 111.32212 
L 369.00864 106.311298 
L 369.36576 103.24604 
L 369.72288 106.175749 
L 370.08 106.37826 
L 370.43712 102.683555 
L 370.79424 113.374013 
L 371.15136 108.036089 
L 371.50848 116.739181 
L 371.8656 107.412729 
L 372.22272 113.013633 
L 372.57984 114.241684 
L 372.93696 118.108462 
L 373.29408 109.355452 
L 373.6512 111.757985 
L 374.00832 120.339327 
L 374.36544 116.749733 
L 374.72256 117.840613 
L 375.07968 113.577335 
L 375.4368 111.176832 
L 375.79392 120.085276 
L 376.15104 116.273285 
L 376.50816 120.85433 
L 376.86528 121.176561 
L 377.2224 113.248204 
L 377.57952 121.42696 
L 377.93664 119.70988 
L 378.29376 120.349067 
L 378.65088 123.944344 
L 379.008 125.988931 
L 379.36512 122.563699 
L 379.72224 121.138819 
L 380.07936 115.858523 
L 380.43648 122.625792 
L 380.7936 125.316466 
L 381.15072 125.610289 
L 381.50784 118.134436 
L 381.86496 121.694404 
L 382.22208 121.151805 
L 382.5792 118.984656 
L 382.93632 123.566107 
L 383.29344 119.433102 
L 383.65056 121.196041 
L 384.00768 120.954165 
L 384.3648 125.093663 
L 384.72192 121.915584 
L 385.07904 128.894291 
L 385.43616 128.807443 
L 385.79328 121.010576 
L 386.1504 131.290736 
L 386.50752 129.803357 
L 386.86464 126.771783 
L 387.22176 133.432318 
L 387.57888 128.593163 
L 387.936 133.087359 
L 388.29312 124.672408 
L 388.65024 126.714561 
L 389.00736 126.928029 
L 389.36448 131.591864 
L 389.7216 134.759392 
L 390.07872 128.816777 
L 390.43584 129.009548 
L 390.79296 126.39517 
L 391.15008 136.301964 
L 391.5072 133.872647 
L 391.86432 130.122342 
L 392.22144 131.468085 
L 392.57856 133.305292 
L 392.93568 127.450742 
L 393.2928 135.436728 
L 393.64992 136.47769 
L 394.00704 131.833741 
L 394.36416 129.302965 
L 394.72128 136.346606 
L 395.0784 137.982925 
L 395.43552 131.701439 
L 395.79264 130.071207 
L 396.14976 130.895454 
L 396.50688 134.462322 
L 396.864 132.486726 
L 397.22112 140.135058 
L 397.57824 132.231863 
L 397.93536 141.301423 
L 398.29248 136.041419 
L 398.6496 135.797107 
L 399.00672 138.814477 
L 399.36384 133.642133 
L 399.72096 133.253345 
L 400.07808 141.072533 
L 400.4352 140.773434 
L 400.79232 142.777438 
L 401.14944 138.534452 
L 401.50656 141.111087 
L 402.2208 135.623411 
L 402.57792 137.8977 
L 402.93504 146.215251 
L 403.29216 141.322526 
L 403.64928 146.293171 
L 404.0064 145.203103 
L 404.36352 138.327477 
L 404.72064 146.862149 
L 405.07776 148.064633 
L 405.43488 142.304643 
L 405.792 140.074995 
L 406.50624 140.892749 
L 406.86336 147.991177 
L 407.22048 146.073209 
L 407.5776 145.523711 
L 407.93472 139.818508 
L 408.29184 148.590593 
L 408.64896 146.61662 
L 409.00608 141.994586 
L 409.72032 143.416625 
L 410.07744 149.3077 
L 410.43456 150.373012 
L 410.79168 148.823135 
L 411.1488 142.042474 
L 411.86304 152.255672 
L 412.22016 143.777005 
L 412.57728 145.472576 
L 413.64864 143.215332 
L 414.00576 144.290384 
L 414.36288 147.740778 
L 414.72 144.767644 
L 414.72 144.767644 
" style="fill:none;stroke:#000080;stroke-linecap:square;stroke-width:0.5;"/>
   </g>
   <g id="patch_3">
    <path d="M 57.6 307.584 
L 57.6 41.472 
" style="fill:none;stroke:#000000;stroke-linecap:square;stroke-linejoin:miter;stroke-width:0.8;"/>
   </g>
   <g id="patch_4">
    <path d="M 414.72 307.584 
L 414.72 41.472 
" style="fill:none;stroke:#000000;stroke-linecap:square;stroke-linejoin:miter;stroke-width:0.8;"/>
   </g>
   <g id="patch_5">
    <path d="M 57.6 307.584 
L 414.72 307.584 
" style="fill:none;stroke:#000000;stroke-linecap:square;stroke-linejoin:miter;stroke-width:0.8;"/>
   </g>
   <g id="patch_6">
    <path d="M 57.6 41.472 
L 414.72 41.472 
" style="fill:none;stroke:#000000;stroke-linecap:square;stroke-linejoin:miter;stroke-width:0.8;"/>
   </g>
   <g id="text_16">
    <!-- Test -->
    <defs>
     <path d="M -0.296875 72.90625 
L 61.375 72.90625 
L 61.375 64.59375 
L 35.5 64.59375 
L 35.5 0 
L 25.59375 0 
L 25.59375 64.59375 
L -0.296875 64.59375 
z
" id="DejaVuSans-54"/>
    </defs>
    <g transform="translate(223.341563 35.472)scale(0.12 -0.12)">
     <use xlink:href="#DejaVuSans-54"/>
     <use x="60.818359" xlink:href="#DejaVuSans-65"/>
     <use x="122.341797" xlink:href="#DejaVuSans-73"/>
     <use x="174.441406" xlink:href="#DejaVuSans-74"/>
    </g>
   </g>
   <g id="legend_1">
    <g id="patch_7">
     <path d="M 64.6 64.150125 
L 306.276563 64.150125 
Q 308.276563 64.150125 308.276563 62.150125 
L 308.276563 48.472 
Q 308.276563 46.472 306.276563 46.472 
L 64.6 46.472 
Q 62.6 46.472 62.6 48.472 
L 62.6 62.150125 
Q 62.6 64.150125 64.6 64.150125 
z
" style="fill:#ffffff;opacity:0.8;stroke:#cccccc;stroke-linejoin:miter;"/>
    </g>
    <g id="line2d_28">
     <path d="M 66.6 54.570438 
L 86.6 54.570438 
" style="fill:none;stroke:#000080;stroke-linecap:square;stroke-width:0.5;"/>
    </g>
    <g id="line2d_29"/>
    <g id="text_17">
     <!-- Successful download requests per second -->
     <g transform="translate(94.6 58.070438)scale(0.1 -0.1)">
      <use xlink:href="#DejaVuSans-53"/>
      <use x="63.476562" xlink:href="#DejaVuSans-75"/>
      <use x="126.855469" xlink:href="#DejaVuSans-63"/>
      <use x="181.835938" xlink:href="#DejaVuSans-63"/>
      <use x="236.816406" xlink:href="#DejaVuSans-65"/>
      <use x="298.339844" xlink:href="#DejaVuSans-73"/>
      <use x="350.439453" xlink:href="#DejaVuSans-73"/>
      <use x="402.539062" xlink:href="#DejaVuSans-66"/>
      <use x="437.744141" xlink:href="#DejaVuSans-75"/>
      <use x="501.123047" xlink:href="#DejaVuSans-6c"/>
      <use x="528.90625" xlink:href="#DejaVuSans-20"/>
      <use x="560.693359" xlink:href="#DejaVuSans-64"/>
      <use x="624.169922" xlink:href="#DejaVuSans-6f"/>
      <use x="685.351562" xlink:href="#DejaVuSans-77"/>
      <use x="767.138672" xlink:href="#DejaVuSans-6e"/>
      <use x="830.517578" xlink:href="#DejaVuSans-6c"/>
      <use x="858.300781" xlink:href="#DejaVuSans-6f"/>
      <use x="919.482422" xlink:href="#DejaVuSans-61"/>
      <use x="980.761719" xlink:href="#DejaVuSans-64"/>
      <use x="1044.238281" xlink:href="#DejaVuSans-20"/>
      <use x="1076.025391" xlink:href="#DejaVuSans-72"/>
      <use x="1117.107422" xlink:href="#DejaVuSans-65"/>
      <use x="1178.630859" xlink:href="#DejaVuSans-71"/>
      <use x="1242.107422" xlink:href="#DejaVuSans-75"/>
      <use x="1305.486328" xlink:href="#DejaVuSans-65"/>
      <use x="1367.009766" xlink:href="#DejaVuSans-73"/>
      <use x="1419.109375" xlink:href="#DejaVuSans-74"/>
      <use x="1458.318359" xlink:href="#DejaVuSans-73"/>
      <use x="1510.417969" xlink:href="#DejaVuSans-20"/>
      <use x="1542.205078" xlink:href="#DejaVuSans-70"/>
      <use x="1605.681641" xlink:href="#DejaVuSans-65"/>
      <use x="1667.205078" xlink:href="#DejaVuSans-72"/>
      <use x="1708.318359" xlink:href="#DejaVuSans-20"/>
      <use x="1740.105469" xlink:href="#DejaVuSans-73"/>
      <use x="1792.205078" xlink:href="#DejaVuSans-65"/>
      <use x="1853.728516" xlink:href="#DejaVuSans-63"/>
      <use x="1908.708984" xlink:href="#DejaVuSans-6f"/>
      <use x="1969.890625" xlink:href="#DejaVuSans-6e"/>
      <use x="2033.269531" xlink:href="#DejaVuSans-64"/>
     </g>
    </g>
   </g>
  </g>
 </g>
 <defs>
  <clipPath id="p7c75a9f746">
   <rect height="266.112" width="357.12" x="57.6" y="41.472"/>
  </clipPath>
 </defs>
</svg>
