<?xml version="1.0" encoding="utf-8" standalone="no"?>
<!DOCTYPE svg PUBLIC "-//W3C//DTD SVG 1.1//EN"
  "http://www.w3.org/Graphics/SVG/1.1/DTD/svg11.dtd">
<!-- Created with matplotlib (http://matplotlib.org/) -->
<svg height="345pt" version="1.1" viewBox="0 0 460 345" width="460pt" xmlns="http://www.w3.org/2000/svg" xmlns:xlink="http://www.w3.org/1999/xlink">
 <defs>
  <style type="text/css">
*{stroke-linecap:butt;stroke-linejoin:round;}
  </style>
 </defs>
 <g id="figure_1">
  <g id="patch_1">
   <path d="M 0 345.6 
L 460.8 345.6 
L 460.8 0 
L 0 0 
z
" style="fill:#ffffff;"/>
  </g>
  <g id="axes_1">
   <g id="patch_2">
    <path d="M 57.6 307.584 
L 414.72 307.584 
L 414.72 41.472 
L 57.6 41.472 
z
" style="fill:#ffffff;"/>
   </g>
   <g id="matplotlib.axis_1">
    <g id="xtick_1">
     <g id="line2d_1">
      <path clip-path="url(#p5e21d584f8)" d="M 57.6 307.584 
L 57.6 41.472 
" style="fill:none;stroke:#b0b0b0;stroke-linecap:square;stroke-width:0.8;"/>
     </g>
     <g id="line2d_2">
      <defs>
       <path d="M 0 0 
L 0 3.5 
" id="m77b063c59f" style="stroke:#000000;stroke-width:0.8;"/>
      </defs>
      <g>
       <use style="stroke:#000000;stroke-width:0.8;" x="57.6" xlink:href="#m77b063c59f" y="307.584"/>
      </g>
     </g>
     <g id="text_1">
      <!-- 0 -->
      <defs>
       <path d="M 31.78125 66.40625 
Q 24.171875 66.40625 20.328125 58.90625 
Q 16.5 51.421875 16.5 36.375 
Q 16.5 21.390625 20.328125 13.890625 
Q 24.171875 6.390625 31.78125 6.390625 
Q 39.453125 6.390625 43.28125 13.890625 
Q 47.125 21.390625 47.125 36.375 
Q 47.125 51.421875 43.28125 58.90625 
Q 39.453125 66.40625 31.78125 66.40625 
M 31.78125 74.21875 
Q 44.046875 74.21875 50.515625 64.515625 
Q 56.984375 54.828125 56.984375 36.375 
Q 56.984375 17.96875 50.515625 8.265625 
Q 44.046875 -1.421875 31.78125 -1.421875 
Q 19.53125 -1.421875 13.0625 8.265625 
Q 6.59375 17.96875 6.59375 36.375 
Q 6.59375 54.828125 13.0625 64.515625 
Q 19.53125 74.21875 31.78125 74.21875 
" id="DejaVuSans-30"/>
      </defs>
      <g transform="translate(54.41875 322.182437)scale(0.1 -0.1)">
       <use xlink:href="#DejaVuSans-30"/>
      </g>
     </g>
    </g>
    <g id="xtick_2">
     <g id="line2d_3">
      <path clip-path="url(#p5e21d584f8)" d="M 129.024 307.584 
L 129.024 41.472 
" style="fill:none;stroke:#b0b0b0;stroke-linecap:square;stroke-width:0.8;"/>
     </g>
     <g id="line2d_4">
      <g>
       <use style="stroke:#000000;stroke-width:0.8;" x="129.024" xlink:href="#m77b063c59f" y="307.584"/>
      </g>
     </g>
     <g id="text_2">
      <!-- 200 -->
      <defs>
       <path d="M 19.1875 8.296875 
L 53.609375 8.296875 
L 53.609375 0 
L 7.328125 0 
L 7.328125 8.296875 
Q 12.9375 14.109375 22.625 23.890625 
Q 32.328125 33.6875 34.8125 36.53125 
Q 39.546875 41.84375 41.421875 45.53125 
Q 43.3125 49.21875 43.3125 52.78125 
Q 43.3125 58.59375 39.234375 62.25 
Q 35.15625 65.921875 28.609375 65.921875 
Q 23.96875 65.921875 18.8125 64.3125 
Q 13.671875 62.703125 7.8125 59.421875 
L 7.8125 69.390625 
Q 13.765625 71.78125 18.9375 73 
Q 24.125 74.21875 28.421875 74.21875 
Q 39.75 74.21875 46.484375 68.546875 
Q 53.21875 62.890625 53.21875 53.421875 
Q 53.21875 48.921875 51.53125 44.890625 
Q 49.859375 40.875 45.40625 35.40625 
Q 44.1875 33.984375 37.640625 27.21875 
Q 31.109375 20.453125 19.1875 8.296875 
" id="DejaVuSans-32"/>
      </defs>
      <g transform="translate(119.48025 322.182437)scale(0.1 -0.1)">
       <use xlink:href="#DejaVuSans-32"/>
       <use x="63.623047" xlink:href="#DejaVuSans-30"/>
       <use x="127.246094" xlink:href="#DejaVuSans-30"/>
      </g>
     </g>
    </g>
    <g id="xtick_3">
     <g id="line2d_5">
      <path clip-path="url(#p5e21d584f8)" d="M 200.448 307.584 
L 200.448 41.472 
" style="fill:none;stroke:#b0b0b0;stroke-linecap:square;stroke-width:0.8;"/>
     </g>
     <g id="line2d_6">
      <g>
       <use style="stroke:#000000;stroke-width:0.8;" x="200.448" xlink:href="#m77b063c59f" y="307.584"/>
      </g>
     </g>
     <g id="text_3">
      <!-- 400 -->
      <defs>
       <path d="M 37.796875 64.3125 
L 12.890625 25.390625 
L 37.796875 25.390625 
z
M 35.203125 72.90625 
L 47.609375 72.90625 
L 47.609375 25.390625 
L 58.015625 25.390625 
L 58.015625 17.1875 
L 47.609375 17.1875 
L 47.609375 0 
L 37.796875 0 
L 37.796875 17.1875 
L 4.890625 17.1875 
L 4.890625 26.703125 
z
" id="DejaVuSans-34"/>
      </defs>
      <g transform="translate(190.90425 322.182437)scale(0.1 -0.1)">
       <use xlink:href="#DejaVuSans-34"/>
       <use x="63.623047" xlink:href="#DejaVuSans-30"/>
       <use x="127.246094" xlink:href="#DejaVuSans-30"/>
      </g>
     </g>
    </g>
    <g id="xtick_4">
     <g id="line2d_7">
      <path clip-path="url(#p5e21d584f8)" d="M 271.872 307.584 
L 271.872 41.472 
" style="fill:none;stroke:#b0b0b0;stroke-linecap:square;stroke-width:0.8;"/>
     </g>
     <g id="line2d_8">
      <g>
       <use style="stroke:#000000;stroke-width:0.8;" x="271.872" xlink:href="#m77b063c59f" y="307.584"/>
      </g>
     </g>
     <g id="text_4">
      <!-- 600 -->
      <defs>
       <path d="M 33.015625 40.375 
Q 26.375 40.375 22.484375 35.828125 
Q 18.609375 31.296875 18.609375 23.390625 
Q 18.609375 15.53125 22.484375 10.953125 
Q 26.375 6.390625 33.015625 6.390625 
Q 39.65625 6.390625 43.53125 10.953125 
Q 47.40625 15.53125 47.40625 23.390625 
Q 47.40625 31.296875 43.53125 35.828125 
Q 39.65625 40.375 33.015625 40.375 
M 52.59375 71.296875 
L 52.59375 62.3125 
Q 48.875 64.0625 45.09375 64.984375 
Q 41.3125 65.921875 37.59375 65.921875 
Q 27.828125 65.921875 22.671875 59.328125 
Q 17.53125 52.734375 16.796875 39.40625 
Q 19.671875 43.65625 24.015625 45.921875 
Q 28.375 48.1875 33.59375 48.1875 
Q 44.578125 48.1875 50.953125 41.515625 
Q 57.328125 34.859375 57.328125 23.390625 
Q 57.328125 12.15625 50.6875 5.359375 
Q 44.046875 -1.421875 33.015625 -1.421875 
Q 20.359375 -1.421875 13.671875 8.265625 
Q 6.984375 17.96875 6.984375 36.375 
Q 6.984375 53.65625 15.1875 63.9375 
Q 23.390625 74.21875 37.203125 74.21875 
Q 40.921875 74.21875 44.703125 73.484375 
Q 48.484375 72.75 52.59375 71.296875 
" id="DejaVuSans-36"/>
      </defs>
      <g transform="translate(262.32825 322.182437)scale(0.1 -0.1)">
       <use xlink:href="#DejaVuSans-36"/>
       <use x="63.623047" xlink:href="#DejaVuSans-30"/>
       <use x="127.246094" xlink:href="#DejaVuSans-30"/>
      </g>
     </g>
    </g>
    <g id="xtick_5">
     <g id="line2d_9">
      <path clip-path="url(#p5e21d584f8)" d="M 343.296 307.584 
L 343.296 41.472 
" style="fill:none;stroke:#b0b0b0;stroke-linecap:square;stroke-width:0.8;"/>
     </g>
     <g id="line2d_10">
      <g>
       <use style="stroke:#000000;stroke-width:0.8;" x="343.296" xlink:href="#m77b063c59f" y="307.584"/>
      </g>
     </g>
     <g id="text_5">
      <!-- 800 -->
      <defs>
       <path d="M 31.78125 34.625 
Q 24.75 34.625 20.71875 30.859375 
Q 16.703125 27.09375 16.703125 20.515625 
Q 16.703125 13.921875 20.71875 10.15625 
Q 24.75 6.390625 31.78125 6.390625 
Q 38.8125 6.390625 42.859375 10.171875 
Q 46.921875 13.96875 46.921875 20.515625 
Q 46.921875 27.09375 42.890625 30.859375 
Q 38.875 34.625 31.78125 34.625 
M 21.921875 38.8125 
Q 15.578125 40.375 12.03125 44.71875 
Q 8.5 49.078125 8.5 55.328125 
Q 8.5 64.0625 14.71875 69.140625 
Q 20.953125 74.21875 31.78125 74.21875 
Q 42.671875 74.21875 48.875 69.140625 
Q 55.078125 64.0625 55.078125 55.328125 
Q 55.078125 49.078125 51.53125 44.71875 
Q 48 40.375 41.703125 38.8125 
Q 48.828125 37.15625 52.796875 32.3125 
Q 56.78125 27.484375 56.78125 20.515625 
Q 56.78125 9.90625 50.3125 4.234375 
Q 43.84375 -1.421875 31.78125 -1.421875 
Q 19.734375 -1.421875 13.25 4.234375 
Q 6.78125 9.90625 6.78125 20.515625 
Q 6.78125 27.484375 10.78125 32.3125 
Q 14.796875 37.15625 21.921875 38.8125 
M 18.3125 54.390625 
Q 18.3125 48.734375 21.84375 45.5625 
Q 25.390625 42.390625 31.78125 42.390625 
Q 38.140625 42.390625 41.71875 45.5625 
Q 45.3125 48.734375 45.3125 54.390625 
Q 45.3125 60.0625 41.71875 63.234375 
Q 38.140625 66.40625 31.78125 66.40625 
Q 25.390625 66.40625 21.84375 63.234375 
Q 18.3125 60.0625 18.3125 54.390625 
" id="DejaVuSans-38"/>
      </defs>
      <g transform="translate(333.75225 322.182437)scale(0.1 -0.1)">
       <use xlink:href="#DejaVuSans-38"/>
       <use x="63.623047" xlink:href="#DejaVuSans-30"/>
       <use x="127.246094" xlink:href="#DejaVuSans-30"/>
      </g>
     </g>
    </g>
    <g id="xtick_6">
     <g id="line2d_11">
      <path clip-path="url(#p5e21d584f8)" d="M 414.72 307.584 
L 414.72 41.472 
" style="fill:none;stroke:#b0b0b0;stroke-linecap:square;stroke-width:0.8;"/>
     </g>
     <g id="line2d_12">
      <g>
       <use style="stroke:#000000;stroke-width:0.8;" x="414.72" xlink:href="#m77b063c59f" y="307.584"/>
      </g>
     </g>
     <g id="text_6">
      <!-- 1000 -->
      <defs>
       <path d="M 12.40625 8.296875 
L 28.515625 8.296875 
L 28.515625 63.921875 
L 10.984375 60.40625 
L 10.984375 69.390625 
L 28.421875 72.90625 
L 38.28125 72.90625 
L 38.28125 8.296875 
L 54.390625 8.296875 
L 54.390625 0 
L 12.40625 0 
z
" id="DejaVuSans-31"/>
      </defs>
      <g transform="translate(401.995 322.182437)scale(0.1 -0.1)">
       <use xlink:href="#DejaVuSans-31"/>
       <use x="63.623047" xlink:href="#DejaVuSans-30"/>
       <use x="127.246094" xlink:href="#DejaVuSans-30"/>
       <use x="190.869141" xlink:href="#DejaVuSans-30"/>
      </g>
     </g>
    </g>
    <g id="text_7">
     <!-- Number of clients -->
     <defs>
      <path d="M 9.8125 72.90625 
L 23.09375 72.90625 
L 55.421875 11.921875 
L 55.421875 72.90625 
L 64.984375 72.90625 
L 64.984375 0 
L 51.703125 0 
L 19.390625 60.984375 
L 19.390625 0 
L 9.8125 0 
z
" id="DejaVuSans-4e"/>
      <path d="M 8.5 21.578125 
L 8.5 54.6875 
L 17.484375 54.6875 
L 17.484375 21.921875 
Q 17.484375 14.15625 20.5 10.265625 
Q 23.53125 6.390625 29.59375 6.390625 
Q 36.859375 6.390625 41.078125 11.03125 
Q 45.3125 15.671875 45.3125 23.6875 
L 45.3125 54.6875 
L 54.296875 54.6875 
L 54.296875 0 
L 45.3125 0 
L 45.3125 8.40625 
Q 42.046875 3.421875 37.71875 1 
Q 33.40625 -1.421875 27.6875 -1.421875 
Q 18.265625 -1.421875 13.375 4.4375 
Q 8.5 10.296875 8.5 21.578125 
M 31.109375 56 
z
" id="DejaVuSans-75"/>
      <path d="M 52 44.1875 
Q 55.375 50.25 60.0625 53.125 
Q 64.75 56 71.09375 56 
Q 79.640625 56 84.28125 50.015625 
Q 88.921875 44.046875 88.921875 33.015625 
L 88.921875 0 
L 79.890625 0 
L 79.890625 32.71875 
Q 79.890625 40.578125 77.09375 44.375 
Q 74.3125 48.1875 68.609375 48.1875 
Q 61.625 48.1875 57.5625 43.546875 
Q 53.515625 38.921875 53.515625 30.90625 
L 53.515625 0 
L 44.484375 0 
L 44.484375 32.71875 
Q 44.484375 40.625 41.703125 44.40625 
Q 38.921875 48.1875 33.109375 48.1875 
Q 26.21875 48.1875 22.15625 43.53125 
Q 18.109375 38.875 18.109375 30.90625 
L 18.109375 0 
L 9.078125 0 
L 9.078125 54.6875 
L 18.109375 54.6875 
L 18.109375 46.1875 
Q 21.1875 51.21875 25.484375 53.609375 
Q 29.78125 56 35.6875 56 
Q 41.65625 56 45.828125 52.96875 
Q 50 49.953125 52 44.1875 
" id="DejaVuSans-6d"/>
      <path d="M 48.6875 27.296875 
Q 48.6875 37.203125 44.609375 42.84375 
Q 40.53125 48.484375 33.40625 48.484375 
Q 26.265625 48.484375 22.1875 42.84375 
Q 18.109375 37.203125 18.109375 27.296875 
Q 18.109375 17.390625 22.1875 11.75 
Q 26.265625 6.109375 33.40625 6.109375 
Q 40.53125 6.109375 44.609375 11.75 
Q 48.6875 17.390625 48.6875 27.296875 
M 18.109375 46.390625 
Q 20.953125 51.265625 25.265625 53.625 
Q 29.59375 56 35.59375 56 
Q 45.5625 56 51.78125 48.09375 
Q 58.015625 40.1875 58.015625 27.296875 
Q 58.015625 14.40625 51.78125 6.484375 
Q 45.5625 -1.421875 35.59375 -1.421875 
Q 29.59375 -1.421875 25.265625 0.953125 
Q 20.953125 3.328125 18.109375 8.203125 
L 18.109375 0 
L 9.078125 0 
L 9.078125 75.984375 
L 18.109375 75.984375 
z
" id="DejaVuSans-62"/>
      <path d="M 56.203125 29.59375 
L 56.203125 25.203125 
L 14.890625 25.203125 
Q 15.484375 15.921875 20.484375 11.0625 
Q 25.484375 6.203125 34.421875 6.203125 
Q 39.59375 6.203125 44.453125 7.46875 
Q 49.3125 8.734375 54.109375 11.28125 
L 54.109375 2.78125 
Q 49.265625 0.734375 44.1875 -0.34375 
Q 39.109375 -1.421875 33.890625 -1.421875 
Q 20.796875 -1.421875 13.15625 6.1875 
Q 5.515625 13.8125 5.515625 26.8125 
Q 5.515625 40.234375 12.765625 48.109375 
Q 20.015625 56 32.328125 56 
Q 43.359375 56 49.78125 48.890625 
Q 56.203125 41.796875 56.203125 29.59375 
M 47.21875 32.234375 
Q 47.125 39.59375 43.09375 43.984375 
Q 39.0625 48.390625 32.421875 48.390625 
Q 24.90625 48.390625 20.390625 44.140625 
Q 15.875 39.890625 15.1875 32.171875 
z
" id="DejaVuSans-65"/>
      <path d="M 41.109375 46.296875 
Q 39.59375 47.171875 37.8125 47.578125 
Q 36.03125 48 33.890625 48 
Q 26.265625 48 22.1875 43.046875 
Q 18.109375 38.09375 18.109375 28.8125 
L 18.109375 0 
L 9.078125 0 
L 9.078125 54.6875 
L 18.109375 54.6875 
L 18.109375 46.1875 
Q 20.953125 51.171875 25.484375 53.578125 
Q 30.03125 56 36.53125 56 
Q 37.453125 56 38.578125 55.875 
Q 39.703125 55.765625 41.0625 55.515625 
z
" id="DejaVuSans-72"/>
      <path id="DejaVuSans-20"/>
      <path d="M 30.609375 48.390625 
Q 23.390625 48.390625 19.1875 42.75 
Q 14.984375 37.109375 14.984375 27.296875 
Q 14.984375 17.484375 19.15625 11.84375 
Q 23.34375 6.203125 30.609375 6.203125 
Q 37.796875 6.203125 41.984375 11.859375 
Q 46.1875 17.53125 46.1875 27.296875 
Q 46.1875 37.015625 41.984375 42.703125 
Q 37.796875 48.390625 30.609375 48.390625 
M 30.609375 56 
Q 42.328125 56 49.015625 48.375 
Q 55.71875 40.765625 55.71875 27.296875 
Q 55.71875 13.875 49.015625 6.21875 
Q 42.328125 -1.421875 30.609375 -1.421875 
Q 18.84375 -1.421875 12.171875 6.21875 
Q 5.515625 13.875 5.515625 27.296875 
Q 5.515625 40.765625 12.171875 48.375 
Q 18.84375 56 30.609375 56 
" id="DejaVuSans-6f"/>
      <path d="M 37.109375 75.984375 
L 37.109375 68.5 
L 28.515625 68.5 
Q 23.6875 68.5 21.796875 66.546875 
Q 19.921875 64.59375 19.921875 59.515625 
L 19.921875 54.6875 
L 34.71875 54.6875 
L 34.71875 47.703125 
L 19.921875 47.703125 
L 19.921875 0 
L 10.890625 0 
L 10.890625 47.703125 
L 2.296875 47.703125 
L 2.296875 54.6875 
L 10.890625 54.6875 
L 10.890625 58.5 
Q 10.890625 67.625 15.140625 71.796875 
Q 19.390625 75.984375 28.609375 75.984375 
z
" id="DejaVuSans-66"/>
      <path d="M 48.78125 52.59375 
L 48.78125 44.1875 
Q 44.96875 46.296875 41.140625 47.34375 
Q 37.3125 48.390625 33.40625 48.390625 
Q 24.65625 48.390625 19.8125 42.84375 
Q 14.984375 37.3125 14.984375 27.296875 
Q 14.984375 17.28125 19.8125 11.734375 
Q 24.65625 6.203125 33.40625 6.203125 
Q 37.3125 6.203125 41.140625 7.25 
Q 44.96875 8.296875 48.78125 10.40625 
L 48.78125 2.09375 
Q 45.015625 0.34375 40.984375 -0.53125 
Q 36.96875 -1.421875 32.421875 -1.421875 
Q 20.0625 -1.421875 12.78125 6.34375 
Q 5.515625 14.109375 5.515625 27.296875 
Q 5.515625 40.671875 12.859375 48.328125 
Q 20.21875 56 33.015625 56 
Q 37.15625 56 41.109375 55.140625 
Q 45.0625 54.296875 48.78125 52.59375 
" id="DejaVuSans-63"/>
      <path d="M 9.421875 75.984375 
L 18.40625 75.984375 
L 18.40625 0 
L 9.421875 0 
z
" id="DejaVuSans-6c"/>
      <path d="M 9.421875 54.6875 
L 18.40625 54.6875 
L 18.40625 0 
L 9.421875 0 
z
M 9.421875 75.984375 
L 18.40625 75.984375 
L 18.40625 64.59375 
L 9.421875 64.59375 
z
" id="DejaVuSans-69"/>
      <path d="M 54.890625 33.015625 
L 54.890625 0 
L 45.90625 0 
L 45.90625 32.71875 
Q 45.90625 40.484375 42.875 44.328125 
Q 39.84375 48.1875 33.796875 48.1875 
Q 26.515625 48.1875 22.3125 43.546875 
Q 18.109375 38.921875 18.109375 30.90625 
L 18.109375 0 
L 9.078125 0 
L 9.078125 54.6875 
L 18.109375 54.6875 
L 18.109375 46.1875 
Q 21.34375 51.125 25.703125 53.5625 
Q 30.078125 56 35.796875 56 
Q 45.21875 56 50.046875 50.171875 
Q 54.890625 44.34375 54.890625 33.015625 
" id="DejaVuSans-6e"/>
      <path d="M 18.3125 70.21875 
L 18.3125 54.6875 
L 36.8125 54.6875 
L 36.8125 47.703125 
L 18.3125 47.703125 
L 18.3125 18.015625 
Q 18.3125 11.328125 20.140625 9.421875 
Q 21.96875 7.515625 27.59375 7.515625 
L 36.8125 7.515625 
L 36.8125 0 
L 27.59375 0 
Q 17.1875 0 13.234375 3.875 
Q 9.28125 7.765625 9.28125 18.015625 
L 9.28125 47.703125 
L 2.6875 47.703125 
L 2.6875 54.6875 
L 9.28125 54.6875 
L 9.28125 70.21875 
z
" id="DejaVuSans-74"/>
      <path d="M 44.28125 53.078125 
L 44.28125 44.578125 
Q 40.484375 46.53125 36.375 47.5 
Q 32.28125 48.484375 27.875 48.484375 
Q 21.1875 48.484375 17.84375 46.4375 
Q 14.5 44.390625 14.5 40.28125 
Q 14.5 37.15625 16.890625 35.375 
Q 19.28125 33.59375 26.515625 31.984375 
L 29.59375 31.296875 
Q 39.15625 29.25 43.1875 25.515625 
Q 47.21875 21.78125 47.21875 15.09375 
Q 47.21875 7.46875 41.1875 3.015625 
Q 35.15625 -1.421875 24.609375 -1.421875 
Q 20.21875 -1.421875 15.453125 -0.5625 
Q 10.6875 0.296875 5.421875 2 
L 5.421875 11.28125 
Q 10.40625 8.6875 15.234375 7.390625 
Q 20.0625 6.109375 24.8125 6.109375 
Q 31.15625 6.109375 34.5625 8.28125 
Q 37.984375 10.453125 37.984375 14.40625 
Q 37.984375 18.0625 35.515625 20.015625 
Q 33.0625 21.96875 24.703125 23.78125 
L 21.578125 24.515625 
Q 13.234375 26.265625 9.515625 29.90625 
Q 5.8125 33.546875 5.8125 39.890625 
Q 5.8125 47.609375 11.28125 51.796875 
Q 16.75 56 26.8125 56 
Q 31.78125 56 36.171875 55.265625 
Q 40.578125 54.546875 44.28125 53.078125 
" id="DejaVuSans-73"/>
     </defs>
     <g transform="translate(191.738906 335.860562)scale(0.1 -0.1)">
      <use xlink:href="#DejaVuSans-4e"/>
      <use x="74.804688" xlink:href="#DejaVuSans-75"/>
      <use x="138.183594" xlink:href="#DejaVuSans-6d"/>
      <use x="235.595703" xlink:href="#DejaVuSans-62"/>
      <use x="299.072266" xlink:href="#DejaVuSans-65"/>
      <use x="360.595703" xlink:href="#DejaVuSans-72"/>
      <use x="401.708984" xlink:href="#DejaVuSans-20"/>
      <use x="433.496094" xlink:href="#DejaVuSans-6f"/>
      <use x="494.677734" xlink:href="#DejaVuSans-66"/>
      <use x="529.882812" xlink:href="#DejaVuSans-20"/>
      <use x="561.669922" xlink:href="#DejaVuSans-63"/>
      <use x="616.650391" xlink:href="#DejaVuSans-6c"/>
      <use x="644.433594" xlink:href="#DejaVuSans-69"/>
      <use x="672.216797" xlink:href="#DejaVuSans-65"/>
      <use x="733.740234" xlink:href="#DejaVuSans-6e"/>
      <use x="797.119141" xlink:href="#DejaVuSans-74"/>
      <use x="836.328125" xlink:href="#DejaVuSans-73"/>
     </g>
    </g>
   </g>
   <g id="matplotlib.axis_2">
    <g id="ytick_1">
     <g id="line2d_13">
      <path clip-path="url(#p5e21d584f8)" d="M 57.6 295.88619 
L 414.72 295.88619 
" style="fill:none;stroke:#b0b0b0;stroke-linecap:square;stroke-width:0.8;"/>
     </g>
     <g id="line2d_14">
      <defs>
       <path d="M 0 0 
L -3.5 0 
" id="m607101fdcc" style="stroke:#000000;stroke-width:0.8;"/>
      </defs>
      <g>
       <use style="stroke:#000000;stroke-width:0.8;" x="57.6" xlink:href="#m607101fdcc" y="295.88619"/>
      </g>
     </g>
     <g id="text_8">
      <!-- 0 -->
      <g transform="translate(44.2375 299.685409)scale(0.1 -0.1)">
       <use xlink:href="#DejaVuSans-30"/>
      </g>
     </g>
    </g>
    <g id="ytick_2">
     <g id="line2d_15">
      <path clip-path="url(#p5e21d584f8)" d="M 57.6 255.378572 
L 414.72 255.378572 
" style="fill:none;stroke:#b0b0b0;stroke-linecap:square;stroke-width:0.8;"/>
     </g>
     <g id="line2d_16">
      <g>
       <use style="stroke:#000000;stroke-width:0.8;" x="57.6" xlink:href="#m607101fdcc" y="255.378572"/>
      </g>
     </g>
     <g id="text_9">
      <!-- 100 -->
      <g transform="translate(31.5125 259.177791)scale(0.1 -0.1)">
       <use xlink:href="#DejaVuSans-31"/>
       <use x="63.623047" xlink:href="#DejaVuSans-30"/>
       <use x="127.246094" xlink:href="#DejaVuSans-30"/>
      </g>
     </g>
    </g>
    <g id="ytick_3">
     <g id="line2d_17">
      <path clip-path="url(#p5e21d584f8)" d="M 57.6 214.870954 
L 414.72 214.870954 
" style="fill:none;stroke:#b0b0b0;stroke-linecap:square;stroke-width:0.8;"/>
     </g>
     <g id="line2d_18">
      <g>
       <use style="stroke:#000000;stroke-width:0.8;" x="57.6" xlink:href="#m607101fdcc" y="214.870954"/>
      </g>
     </g>
     <g id="text_10">
      <!-- 200 -->
      <g transform="translate(31.5125 218.670173)scale(0.1 -0.1)">
       <use xlink:href="#DejaVuSans-32"/>
       <use x="63.623047" xlink:href="#DejaVuSans-30"/>
       <use x="127.246094" xlink:href="#DejaVuSans-30"/>
      </g>
     </g>
    </g>
    <g id="ytick_4">
     <g id="line2d_19">
      <path clip-path="url(#p5e21d584f8)" d="M 57.6 174.363337 
L 414.72 174.363337 
" style="fill:none;stroke:#b0b0b0;stroke-linecap:square;stroke-width:0.8;"/>
     </g>
     <g id="line2d_20">
      <g>
       <use style="stroke:#000000;stroke-width:0.8;" x="57.6" xlink:href="#m607101fdcc" y="174.363337"/>
      </g>
     </g>
     <g id="text_11">
      <!-- 300 -->
      <defs>
       <path d="M 40.578125 39.3125 
Q 47.65625 37.796875 51.625 33 
Q 55.609375 28.21875 55.609375 21.1875 
Q 55.609375 10.40625 48.1875 4.484375 
Q 40.765625 -1.421875 27.09375 -1.421875 
Q 22.515625 -1.421875 17.65625 -0.515625 
Q 12.796875 0.390625 7.625 2.203125 
L 7.625 11.71875 
Q 11.71875 9.328125 16.59375 8.109375 
Q 21.484375 6.890625 26.8125 6.890625 
Q 36.078125 6.890625 40.9375 10.546875 
Q 45.796875 14.203125 45.796875 21.1875 
Q 45.796875 27.640625 41.28125 31.265625 
Q 36.765625 34.90625 28.71875 34.90625 
L 20.21875 34.90625 
L 20.21875 43.015625 
L 29.109375 43.015625 
Q 36.375 43.015625 40.234375 45.921875 
Q 44.09375 48.828125 44.09375 54.296875 
Q 44.09375 59.90625 40.109375 62.90625 
Q 36.140625 65.921875 28.71875 65.921875 
Q 24.65625 65.921875 20.015625 65.03125 
Q 15.375 64.15625 9.8125 62.3125 
L 9.8125 71.09375 
Q 15.4375 72.65625 20.34375 73.4375 
Q 25.25 74.21875 29.59375 74.21875 
Q 40.828125 74.21875 47.359375 69.109375 
Q 53.90625 64.015625 53.90625 55.328125 
Q 53.90625 49.265625 50.4375 45.09375 
Q 46.96875 40.921875 40.578125 39.3125 
" id="DejaVuSans-33"/>
      </defs>
      <g transform="translate(31.5125 178.162555)scale(0.1 -0.1)">
       <use xlink:href="#DejaVuSans-33"/>
       <use x="63.623047" xlink:href="#DejaVuSans-30"/>
       <use x="127.246094" xlink:href="#DejaVuSans-30"/>
      </g>
     </g>
    </g>
    <g id="ytick_5">
     <g id="line2d_21">
      <path clip-path="url(#p5e21d584f8)" d="M 57.6 133.855719 
L 414.72 133.855719 
" style="fill:none;stroke:#b0b0b0;stroke-linecap:square;stroke-width:0.8;"/>
     </g>
     <g id="line2d_22">
      <g>
       <use style="stroke:#000000;stroke-width:0.8;" x="57.6" xlink:href="#m607101fdcc" y="133.855719"/>
      </g>
     </g>
     <g id="text_12">
      <!-- 400 -->
      <g transform="translate(31.5125 137.654938)scale(0.1 -0.1)">
       <use xlink:href="#DejaVuSans-34"/>
       <use x="63.623047" xlink:href="#DejaVuSans-30"/>
       <use x="127.246094" xlink:href="#DejaVuSans-30"/>
      </g>
     </g>
    </g>
    <g id="ytick_6">
     <g id="line2d_23">
      <path clip-path="url(#p5e21d584f8)" d="M 57.6 93.348101 
L 414.72 93.348101 
" style="fill:none;stroke:#b0b0b0;stroke-linecap:square;stroke-width:0.8;"/>
     </g>
     <g id="line2d_24">
      <g>
       <use style="stroke:#000000;stroke-width:0.8;" x="57.6" xlink:href="#m607101fdcc" y="93.348101"/>
      </g>
     </g>
     <g id="text_13">
      <!-- 500 -->
      <defs>
       <path d="M 10.796875 72.90625 
L 49.515625 72.90625 
L 49.515625 64.59375 
L 19.828125 64.59375 
L 19.828125 46.734375 
Q 21.96875 47.46875 24.109375 47.828125 
Q 26.265625 48.1875 28.421875 48.1875 
Q 40.625 48.1875 47.75 41.5 
Q 54.890625 34.8125 54.890625 23.390625 
Q 54.890625 11.625 47.5625 5.09375 
Q 40.234375 -1.421875 26.90625 -1.421875 
Q 22.3125 -1.421875 17.546875 -0.640625 
Q 12.796875 0.140625 7.71875 1.703125 
L 7.71875 11.625 
Q 12.109375 9.234375 16.796875 8.0625 
Q 21.484375 6.890625 26.703125 6.890625 
Q 35.15625 6.890625 40.078125 11.328125 
Q 45.015625 15.765625 45.015625 23.390625 
Q 45.015625 31 40.078125 35.4375 
Q 35.15625 39.890625 26.703125 39.890625 
Q 22.75 39.890625 18.8125 39.015625 
Q 14.890625 38.140625 10.796875 36.28125 
z
" id="DejaVuSans-35"/>
      </defs>
      <g transform="translate(31.5125 97.14732)scale(0.1 -0.1)">
       <use xlink:href="#DejaVuSans-35"/>
       <use x="63.623047" xlink:href="#DejaVuSans-30"/>
       <use x="127.246094" xlink:href="#DejaVuSans-30"/>
      </g>
     </g>
    </g>
    <g id="ytick_7">
     <g id="line2d_25">
      <path clip-path="url(#p5e21d584f8)" d="M 57.6 52.840483 
L 414.72 52.840483 
" style="fill:none;stroke:#b0b0b0;stroke-linecap:square;stroke-width:0.8;"/>
     </g>
     <g id="line2d_26">
      <g>
       <use style="stroke:#000000;stroke-width:0.8;" x="57.6" xlink:href="#m607101fdcc" y="52.840483"/>
      </g>
     </g>
     <g id="text_14">
      <!-- 600 -->
      <g transform="translate(31.5125 56.639702)scale(0.1 -0.1)">
       <use xlink:href="#DejaVuSans-36"/>
       <use x="63.623047" xlink:href="#DejaVuSans-30"/>
       <use x="127.246094" xlink:href="#DejaVuSans-30"/>
      </g>
     </g>
    </g>
    <g id="text_15">
     <!-- Successful download requests per second -->
     <defs>
      <path d="M 53.515625 70.515625 
L 53.515625 60.890625 
Q 47.90625 63.578125 42.921875 64.890625 
Q 37.9375 66.21875 33.296875 66.21875 
Q 25.25 66.21875 20.875 63.09375 
Q 16.5 59.96875 16.5 54.203125 
Q 16.5 49.359375 19.40625 46.890625 
Q 22.3125 44.4375 30.421875 42.921875 
L 36.375 41.703125 
Q 47.40625 39.59375 52.65625 34.296875 
Q 57.90625 29 57.90625 20.125 
Q 57.90625 9.515625 50.796875 4.046875 
Q 43.703125 -1.421875 29.984375 -1.421875 
Q 24.8125 -1.421875 18.96875 -0.25 
Q 13.140625 0.921875 6.890625 3.21875 
L 6.890625 13.375 
Q 12.890625 10.015625 18.65625 8.296875 
Q 24.421875 6.59375 29.984375 6.59375 
Q 38.421875 6.59375 43.015625 9.90625 
Q 47.609375 13.234375 47.609375 19.390625 
Q 47.609375 24.75 44.3125 27.78125 
Q 41.015625 30.8125 33.5 32.328125 
L 27.484375 33.5 
Q 16.453125 35.6875 11.515625 40.375 
Q 6.59375 45.0625 6.59375 53.421875 
Q 6.59375 63.09375 13.40625 68.65625 
Q 20.21875 74.21875 32.171875 74.21875 
Q 37.3125 74.21875 42.625 73.28125 
Q 47.953125 72.359375 53.515625 70.515625 
" id="DejaVuSans-53"/>
      <path d="M 45.40625 46.390625 
L 45.40625 75.984375 
L 54.390625 75.984375 
L 54.390625 0 
L 45.40625 0 
L 45.40625 8.203125 
Q 42.578125 3.328125 38.25 0.953125 
Q 33.9375 -1.421875 27.875 -1.421875 
Q 17.96875 -1.421875 11.734375 6.484375 
Q 5.515625 14.40625 5.515625 27.296875 
Q 5.515625 40.1875 11.734375 48.09375 
Q 17.96875 56 27.875 56 
Q 33.9375 56 38.25 53.625 
Q 42.578125 51.265625 45.40625 46.390625 
M 14.796875 27.296875 
Q 14.796875 17.390625 18.875 11.75 
Q 22.953125 6.109375 30.078125 6.109375 
Q 37.203125 6.109375 41.296875 11.75 
Q 45.40625 17.390625 45.40625 27.296875 
Q 45.40625 37.203125 41.296875 42.84375 
Q 37.203125 48.484375 30.078125 48.484375 
Q 22.953125 48.484375 18.875 42.84375 
Q 14.796875 37.203125 14.796875 27.296875 
" id="DejaVuSans-64"/>
      <path d="M 4.203125 54.6875 
L 13.1875 54.6875 
L 24.421875 12.015625 
L 35.59375 54.6875 
L 46.1875 54.6875 
L 57.421875 12.015625 
L 68.609375 54.6875 
L 77.59375 54.6875 
L 63.28125 0 
L 52.6875 0 
L 40.921875 44.828125 
L 29.109375 0 
L 18.5 0 
z
" id="DejaVuSans-77"/>
      <path d="M 34.28125 27.484375 
Q 23.390625 27.484375 19.1875 25 
Q 14.984375 22.515625 14.984375 16.5 
Q 14.984375 11.71875 18.140625 8.90625 
Q 21.296875 6.109375 26.703125 6.109375 
Q 34.1875 6.109375 38.703125 11.40625 
Q 43.21875 16.703125 43.21875 25.484375 
L 43.21875 27.484375 
z
M 52.203125 31.203125 
L 52.203125 0 
L 43.21875 0 
L 43.21875 8.296875 
Q 40.140625 3.328125 35.546875 0.953125 
Q 30.953125 -1.421875 24.3125 -1.421875 
Q 15.921875 -1.421875 10.953125 3.296875 
Q 6 8.015625 6 15.921875 
Q 6 25.140625 12.171875 29.828125 
Q 18.359375 34.515625 30.609375 34.515625 
L 43.21875 34.515625 
L 43.21875 35.40625 
Q 43.21875 41.609375 39.140625 45 
Q 35.0625 48.390625 27.6875 48.390625 
Q 23 48.390625 18.546875 47.265625 
Q 14.109375 46.140625 10.015625 43.890625 
L 10.015625 52.203125 
Q 14.9375 54.109375 19.578125 55.046875 
Q 24.21875 56 28.609375 56 
Q 40.484375 56 46.34375 49.84375 
Q 52.203125 43.703125 52.203125 31.203125 
" id="DejaVuSans-61"/>
      <path d="M 14.796875 27.296875 
Q 14.796875 17.390625 18.875 11.75 
Q 22.953125 6.109375 30.078125 6.109375 
Q 37.203125 6.109375 41.296875 11.75 
Q 45.40625 17.390625 45.40625 27.296875 
Q 45.40625 37.203125 41.296875 42.84375 
Q 37.203125 48.484375 30.078125 48.484375 
Q 22.953125 48.484375 18.875 42.84375 
Q 14.796875 37.203125 14.796875 27.296875 
M 45.40625 8.203125 
Q 42.578125 3.328125 38.25 0.953125 
Q 33.9375 -1.421875 27.875 -1.421875 
Q 17.96875 -1.421875 11.734375 6.484375 
Q 5.515625 14.40625 5.515625 27.296875 
Q 5.515625 40.1875 11.734375 48.09375 
Q 17.96875 56 27.875 56 
Q 33.9375 56 38.25 53.625 
Q 42.578125 51.265625 45.40625 46.390625 
L 45.40625 54.6875 
L 54.390625 54.6875 
L 54.390625 -20.796875 
L 45.40625 -20.796875 
z
" id="DejaVuSans-71"/>
      <path d="M 18.109375 8.203125 
L 18.109375 -20.796875 
L 9.078125 -20.796875 
L 9.078125 54.6875 
L 18.109375 54.6875 
L 18.109375 46.390625 
Q 20.953125 51.265625 25.265625 53.625 
Q 29.59375 56 35.59375 56 
Q 45.5625 56 51.78125 48.09375 
Q 58.015625 40.1875 58.015625 27.296875 
Q 58.015625 14.40625 51.78125 6.484375 
Q 45.5625 -1.421875 35.59375 -1.421875 
Q 29.59375 -1.421875 25.265625 0.953125 
Q 20.953125 3.328125 18.109375 8.203125 
M 48.6875 27.296875 
Q 48.6875 37.203125 44.609375 42.84375 
Q 40.53125 48.484375 33.40625 48.484375 
Q 26.265625 48.484375 22.1875 42.84375 
Q 18.109375 37.203125 18.109375 27.296875 
Q 18.109375 17.390625 22.1875 11.75 
Q 26.265625 6.109375 33.40625 6.109375 
Q 40.53125 6.109375 44.609375 11.75 
Q 48.6875 17.390625 48.6875 27.296875 
" id="DejaVuSans-70"/>
     </defs>
     <g transform="translate(25.432812 279.366281)rotate(-90)scale(0.1 -0.1)">
      <use xlink:href="#DejaVuSans-53"/>
      <use x="63.476562" xlink:href="#DejaVuSans-75"/>
      <use x="126.855469" xlink:href="#DejaVuSans-63"/>
      <use x="181.835938" xlink:href="#DejaVuSans-63"/>
      <use x="236.816406" xlink:href="#DejaVuSans-65"/>
      <use x="298.339844" xlink:href="#DejaVuSans-73"/>
      <use x="350.439453" xlink:href="#DejaVuSans-73"/>
      <use x="402.539062" xlink:href="#DejaVuSans-66"/>
      <use x="437.744141" xlink:href="#DejaVuSans-75"/>
      <use x="501.123047" xlink:href="#DejaVuSans-6c"/>
      <use x="528.90625" xlink:href="#DejaVuSans-20"/>
      <use x="560.693359" xlink:href="#DejaVuSans-64"/>
      <use x="624.169922" xlink:href="#DejaVuSans-6f"/>
      <use x="685.351562" xlink:href="#DejaVuSans-77"/>
      <use x="767.138672" xlink:href="#DejaVuSans-6e"/>
      <use x="830.517578" xlink:href="#DejaVuSans-6c"/>
      <use x="858.300781" xlink:href="#DejaVuSans-6f"/>
      <use x="919.482422" xlink:href="#DejaVuSans-61"/>
      <use x="980.761719" xlink:href="#DejaVuSans-64"/>
      <use x="1044.238281" xlink:href="#DejaVuSans-20"/>
      <use x="1076.025391" xlink:href="#DejaVuSans-72"/>
      <use x="1117.107422" xlink:href="#DejaVuSans-65"/>
      <use x="1178.630859" xlink:href="#DejaVuSans-71"/>
      <use x="1242.107422" xlink:href="#DejaVuSans-75"/>
      <use x="1305.486328" xlink:href="#DejaVuSans-65"/>
      <use x="1367.009766" xlink:href="#DejaVuSans-73"/>
      <use x="1419.109375" xlink:href="#DejaVuSans-74"/>
      <use x="1458.318359" xlink:href="#DejaVuSans-73"/>
      <use x="1510.417969" xlink:href="#DejaVuSans-20"/>
      <use x="1542.205078" xlink:href="#DejaVuSans-70"/>
      <use x="1605.681641" xlink:href="#DejaVuSans-65"/>
      <use x="1667.205078" xlink:href="#DejaVuSans-72"/>
      <use x="1708.318359" xlink:href="#DejaVuSans-20"/>
      <use x="1740.105469" xlink:href="#DejaVuSans-73"/>
      <use x="1792.205078" xlink:href="#DejaVuSans-65"/>
      <use x="1853.728516" xlink:href="#DejaVuSans-63"/>
      <use x="1908.708984" xlink:href="#DejaVuSans-6f"/>
      <use x="1969.890625" xlink:href="#DejaVuSans-6e"/>
      <use x="2033.269531" xlink:href="#DejaVuSans-64"/>
     </g>
    </g>
   </g>
   <g id="line2d_27">
    <path clip-path="url(#p5e21d584f8)" d="M 57.6 295.488 
L 57.95712 295.486785 
L 60.45696 292.762242 
L 61.1712 292.098728 
L 64.38528 288.452232 
L 65.09952 287.972622 
L 65.45664 287.217965 
L 66.88512 285.51867 
L 67.24224 285.628851 
L 67.95648 284.184349 
L 68.67072 283.79021 
L 69.02784 283.355563 
L 69.38496 282.600096 
L 69.74208 282.119271 
L 70.45632 282.278466 
L 70.81344 281.292916 
L 71.17056 280.669098 
L 71.52768 280.477497 
L 71.8848 279.751196 
L 72.24192 279.965076 
L 72.59904 280.004368 
L 72.95616 279.460351 
L 73.31328 278.365835 
L 74.02752 277.264433 
L 74.38464 277.62171 
L 74.74176 277.59538 
L 75.456 276.704213 
L 76.17024 274.942941 
L 76.52736 275.775778 
L 76.88448 275.273889 
L 77.2416 273.870705 
L 77.59872 273.719611 
L 77.95584 273.17843 
L 78.31296 274.008431 
L 79.0272 272.324934 
L 79.38432 272.676135 
L 79.74144 271.465767 
L 80.09856 270.798607 
L 80.45568 271.333308 
L 80.8128 270.065014 
L 81.16992 270.981296 
L 81.52704 270.136712 
L 81.88416 268.383543 
L 82.24128 269.064881 
L 82.5984 269.325345 
L 82.95552 269.110655 
L 83.31264 268.588916 
L 83.66976 266.437557 
L 84.384 267.4385 
L 84.74112 265.402182 
L 85.09824 266.156029 
L 85.81248 265.439854 
L 86.1696 264.09014 
L 86.52672 264.508179 
L 86.88384 262.932838 
L 87.24096 262.264867 
L 87.59808 262.260006 
L 87.9552 263.187631 
L 88.31232 262.264057 
L 88.66944 261.727736 
L 89.02656 261.771484 
L 89.38368 259.925147 
L 89.7408 259.625796 
L 90.09792 259.83441 
L 90.45504 259.362496 
L 90.81216 259.603922 
L 91.16928 259.560173 
L 91.88352 257.241112 
L 92.24064 258.519128 
L 92.59776 258.761768 
L 92.95488 257.142274 
L 93.66912 256.992396 
L 94.02624 256.760692 
L 94.38336 257.031283 
L 94.74048 254.324564 
L 95.0976 253.379926 
L 95.45472 254.002933 
L 95.81184 255.294721 
L 96.16896 253.460941 
L 96.52608 253.602718 
L 96.8832 253.45203 
L 97.24032 251.143096 
L 97.59744 253.191566 
L 97.95456 252.566938 
L 98.31168 251.51131 
L 98.6688 250.851441 
L 99.02592 251.143906 
L 99.38304 251.258947 
L 99.74016 250.506316 
L 100.09728 247.712505 
L 100.4544 250.50267 
L 101.16864 247.210616 
L 101.52576 248.50686 
L 101.88288 246.764222 
L 102.24 245.794065 
L 102.59712 245.739784 
L 102.95424 246.912075 
L 103.31136 245.001736 
L 103.66848 244.425312 
L 104.0256 244.992014 
L 104.38272 244.132442 
L 104.73984 243.984589 
L 105.09696 245.07708 
L 105.45408 244.65337 
L 105.8112 244.504302 
L 106.16832 243.996742 
L 106.52544 242.138657 
L 106.88256 241.96974 
L 107.23968 239.651489 
L 107.5968 239.342416 
L 107.95392 241.469066 
L 108.31104 238.993646 
L 108.66816 239.095725 
L 109.02528 238.964075 
L 109.3824 239.246818 
L 109.73952 239.891295 
L 110.09664 239.999855 
L 110.45376 239.472446 
L 110.81088 239.395481 
L 111.168 235.707668 
L 111.52512 238.020653 
L 111.88224 234.926681 
L 112.23936 235.510396 
L 112.59648 235.076559 
L 112.9536 234.962733 
L 113.31072 234.525656 
L 113.66784 233.317718 
L 114.38208 232.10573 
L 114.7392 232.897654 
L 115.09632 234.188632 
L 115.45344 234.108832 
L 115.81056 231.06509 
L 116.16768 233.955308 
L 116.5248 229.441544 
L 116.88192 229.467469 
L 117.23904 232.538352 
L 117.59616 228.438576 
L 117.95328 228.583188 
L 118.3104 227.239955 
L 118.66752 229.595473 
L 119.02464 228.125047 
L 119.38176 230.453425 
L 119.73888 228.930743 
L 120.096 227.935471 
L 120.45312 225.705527 
L 120.81024 228.438576 
L 121.16736 225.413062 
L 121.52448 226.737661 
L 121.8816 226.94344 
L 122.23872 223.527027 
L 122.59584 226.533503 
L 122.95296 221.985712 
L 123.31008 223.298159 
L 123.6672 223.711742 
L 124.02432 222.762243 
L 124.38144 221.032973 
L 124.73856 223.047822 
L 125.09568 220.913071 
L 125.4528 223.932103 
L 125.80992 222.50259 
L 126.16704 222.668266 
L 126.52416 219.912127 
L 126.88128 219.864733 
L 127.2384 217.520963 
L 127.59552 220.976262 
L 127.95264 217.091582 
L 128.30976 219.04972 
L 129.024 215.534469 
L 129.38112 219.891874 
L 129.73824 219.015289 
L 130.09536 219.072404 
L 130.45248 214.511652 
L 130.8096 214.106981 
L 131.16672 216.28386 
L 131.52384 216.466954 
L 131.88096 215.682322 
L 132.5952 213.166394 
L 132.95232 211.175039 
L 133.30944 215.985319 
L 133.66656 210.722164 
L 134.02368 214.321266 
L 134.3808 214.592667 
L 135.09504 213.744032 
L 135.45216 209.285764 
L 135.80928 209.012743 
L 136.1664 206.881637 
L 136.52352 208.432268 
L 136.88064 208.04299 
L 137.23776 208.65263 
L 137.59488 210.389191 
L 137.952 208.5465 
L 138.30912 209.574583 
L 138.66624 205.691118 
L 139.02336 203.871516 
L 139.38048 208.117119 
L 139.7376 203.377323 
L 140.09472 208.378798 
L 140.45184 207.296435 
L 140.80896 205.579722 
L 141.16608 204.973323 
L 141.5232 206.55069 
L 141.88032 203.453477 
L 142.23744 203.881643 
L 142.59456 203.001007 
L 142.95168 205.246749 
L 143.3088 201.104035 
L 143.66592 203.401627 
L 144.02304 198.097965 
L 144.38016 197.845603 
L 144.73728 199.254863 
L 145.0944 202.491826 
L 145.45152 202.29901 
L 145.80864 197.982518 
L 146.16576 199.062856 
L 146.52288 197.507364 
L 146.88 194.752036 
L 147.23712 199.435932 
L 147.59424 196.336694 
L 147.95136 198.81819 
L 148.30848 193.032892 
L 148.6656 194.471723 
L 149.02272 195.315497 
L 149.37984 199.068933 
L 149.73696 198.07042 
L 150.09408 191.044779 
L 150.4512 192.866406 
L 150.80832 191.190201 
L 151.16544 190.209512 
L 151.52256 196.674527 
L 151.87968 192.314692 
L 152.2368 193.50035 
L 152.59392 189.870868 
L 152.95104 194.18898 
L 153.30816 190.107027 
L 153.66528 190.559092 
L 154.0224 193.857628 
L 154.37952 188.692501 
L 154.73664 189.014132 
L 155.09376 185.540198 
L 155.45088 187.497932 
L 155.808 184.490241 
L 156.16512 185.822537 
L 156.87936 190.645374 
L 157.23648 186.02629 
L 157.95072 189.21505 
L 158.66496 181.963781 
L 159.02208 183.711279 
L 159.3792 184.835771 
L 159.73632 184.486595 
L 160.09344 180.906937 
L 160.45056 182.662132 
L 160.80768 181.6381 
L 161.1648 179.828624 
L 161.52192 181.13621 
L 161.87904 178.862518 
L 162.23616 184.676171 
L 162.59328 178.911127 
L 162.9504 182.745983 
L 163.30752 180.255575 
L 163.66464 175.620693 
L 164.02176 175.562362 
L 164.37888 178.083556 
L 164.736 175.928551 
L 165.09312 177.713722 
L 165.45024 176.173622 
L 165.80736 179.918146 
L 166.16448 180.509557 
L 166.5216 179.835916 
L 166.87872 174.232092 
L 167.23584 180.119874 
L 167.95008 173.854561 
L 168.3072 172.096935 
L 168.66432 173.064662 
L 169.02144 171.944222 
L 169.37856 172.611787 
L 169.73568 177.239782 
L 170.0928 175.673758 
L 170.44992 175.077081 
L 170.80704 171.881435 
L 171.16416 174.934899 
L 171.52128 171.433826 
L 171.8784 174.0652 
L 172.23552 172.209952 
L 173.30688 168.793944 
L 173.664 171.866852 
L 174.02112 167.492029 
L 174.37824 171.817433 
L 174.73536 171.196451 
L 175.09248 171.917081 
L 175.4496 170.192672 
L 175.80672 170.590862 
L 176.16384 169.355785 
L 176.52096 169.512954 
L 176.87808 164.369702 
L 177.2352 166.606938 
L 177.59232 160.009057 
L 177.94944 164.965569 
L 178.30656 165.995678 
L 178.66368 166.572506 
L 179.0208 163.886851 
L 179.37792 165.567917 
L 179.73504 159.793962 
L 180.09216 160.232254 
L 180.44928 161.212133 
L 180.8064 163.784772 
L 181.16352 161.783291 
L 181.52064 156.731586 
L 181.87776 155.383492 
L 182.23488 161.689313 
L 182.592 159.27992 
L 183.30624 156.293698 
L 183.66336 161.953018 
L 184.02048 153.613309 
L 184.73472 157.645033 
L 185.09184 156.56834 
L 185.44896 160.837438 
L 185.80608 156.480033 
L 186.1632 158.633418 
L 186.52032 150.380396 
L 186.87744 152.174074 
L 187.23456 152.17853 
L 187.59168 148.551882 
L 187.9488 157.782758 
L 188.30592 151.893761 
L 189.02016 149.948585 
L 189.37728 155.10804 
L 189.7344 148.977212 
L 190.09152 152.103995 
L 190.44864 147.550129 
L 190.80576 151.583068 
L 191.16288 146.074032 
L 191.52 148.108324 
L 191.87712 144.505171 
L 192.23424 146.443461 
L 192.94848 145.510976 
L 193.3056 145.696095 
L 193.66272 149.773592 
L 194.01984 142.002611 
L 194.73408 146.107653 
L 195.0912 147.573624 
L 195.44832 146.652075 
L 195.80544 149.447911 
L 196.16256 147.012188 
L 196.51968 145.690829 
L 196.8768 147.439138 
L 197.23392 140.361647 
L 197.59104 143.042846 
L 197.94816 143.411061 
L 198.30528 145.715539 
L 198.6624 140.966021 
L 199.01952 139.664511 
L 199.37664 143.862721 
L 199.73376 138.423763 
L 200.09088 145.280487 
L 200.448 141.182737 
L 200.80512 139.784009 
L 201.16224 141.298183 
L 201.51936 143.987889 
L 201.87648 141.812225 
L 202.2336 135.666004 
L 202.59072 141.590648 
L 202.94784 140.518007 
L 203.30496 135.392983 
L 203.66208 138.989249 
L 204.0192 138.117525 
L 204.37632 136.695303 
L 204.73344 131.565013 
L 205.09056 132.794014 
L 205.44768 129.429046 
L 205.8048 131.615647 
L 206.16192 132.021939 
L 206.51904 132.964146 
L 206.87616 132.502359 
L 207.23328 129.319676 
L 207.94752 134.744051 
L 208.30464 133.24851 
L 208.66176 132.994932 
L 209.01888 124.915282 
L 209.376 128.754189 
L 209.73312 123.86735 
L 210.09024 131.515189 
L 210.44736 130.766203 
L 210.80448 131.329259 
L 211.1616 123.5202 
L 211.51872 133.030579 
L 212.23296 121.482667 
L 212.59008 128.894346 
L 212.9472 128.620514 
L 213.30432 123.513314 
L 213.66144 124.406912 
L 214.01856 118.537358 
L 214.37568 124.50575 
L 214.7328 127.396779 
L 215.08992 119.348321 
L 215.44704 127.332777 
L 215.80416 118.28378 
L 216.16128 124.467673 
L 216.5184 125.582848 
L 216.87552 116.803227 
L 217.58976 120.09042 
L 217.94688 120.958498 
L 218.304 119.292825 
L 218.66112 121.163872 
L 219.01824 115.99591 
L 219.37536 112.784871 
L 219.73248 119.641191 
L 220.0896 112.995511 
L 220.44672 117.869387 
L 220.80384 114.10947 
L 221.16096 118.504142 
L 221.51808 110.2815 
L 221.8752 114.598802 
L 222.23232 111.721141 
L 222.58944 116.627424 
L 223.30368 110.194004 
L 223.6608 107.934489 
L 224.01792 108.138242 
L 224.37504 112.502533 
L 224.73216 114.644171 
L 225.08928 107.421663 
L 225.4464 116.988347 
L 225.80352 113.923135 
L 226.16064 111.930971 
L 226.51776 115.605012 
L 226.87488 112.925433 
L 227.232 114.977549 
L 227.58912 109.427195 
L 228.30336 111.544123 
L 228.66048 104.041302 
L 229.0176 104.403035 
L 229.37472 102.504038 
L 229.73184 112.735047 
L 230.08896 101.316354 
L 230.44608 110.630271 
L 230.8032 106.644321 
L 231.16032 101.100044 
L 231.51744 112.133104 
L 232.23168 102.296639 
L 232.5888 101.178223 
L 232.94592 99.026459 
L 233.30304 105.5174 
L 233.66016 97.553602 
L 234.01728 102.670119 
L 234.3744 95.68215 
L 234.73152 102.774224 
L 235.08864 97.91736 
L 235.44576 96.205913 
L 235.80288 104.832011 
L 236.16 97.913309 
L 236.51712 104.279487 
L 236.87424 95.626654 
L 237.23136 97.524031 
L 237.58848 92.528227 
L 237.9456 105.083563 
L 238.30272 98.364159 
L 238.65984 96.737373 
L 239.01696 100.233991 
L 239.37408 101.32081 
L 239.7312 103.050081 
L 240.08832 91.746835 
L 240.44544 89.895232 
L 240.80256 91.616805 
L 241.15968 96.217661 
L 241.5168 93.346886 
L 241.87392 92.339056 
L 242.23104 95.755874 
L 242.58816 86.379981 
L 242.94528 86.240229 
L 243.3024 91.21821 
L 243.65952 85.831102 
L 244.01664 87.544575 
L 244.37376 95.598704 
L 244.73088 90.000551 
L 245.088 87.121675 
L 245.44512 92.123151 
L 245.80224 94.141645 
L 246.15936 93.653933 
L 246.8736 88.063882 
L 247.23072 83.847444 
L 247.58784 85.755758 
L 247.94496 84.967885 
L 248.30208 83.830431 
L 248.6592 90.836224 
L 249.01632 88.097098 
L 249.37344 89.277896 
L 249.73056 82.607911 
L 250.08768 82.991113 
L 250.4448 82.243748 
L 250.80192 78.26752 
L 251.15904 83.24226 
L 251.51616 90.604925 
L 251.87328 91.37376 
L 252.2304 78.860957 
L 252.58752 85.177714 
L 252.94464 88.379031 
L 253.30176 86.037691 
L 253.65888 87.656781 
L 254.016 86.593051 
L 254.37312 78.838677 
L 254.73024 87.693643 
L 255.08736 83.42576 
L 255.44448 75.217701 
L 255.8016 74.994504 
L 256.15872 89.429799 
L 256.87296 79.903218 
L 257.23008 78.192176 
L 257.5872 83.248337 
L 257.94432 79.093065 
L 258.30144 78.999898 
L 258.65856 73.369339 
L 259.3728 87.454648 
L 259.72992 86.228077 
L 260.08704 81.839482 
L 260.44416 73.044063 
L 260.80128 85.893079 
L 261.1584 79.989499 
L 261.51552 85.73915 
L 262.22976 76.06026 
L 262.944 85.891459 
L 263.30112 86.470718 
L 263.65824 82.620063 
L 264.01536 84.933859 
L 264.37248 84.093326 
L 264.7296 85.180145 
L 265.08672 77.44319 
L 265.44384 76.643975 
L 265.80096 82.671103 
L 266.15808 72.300343 
L 266.5152 84.045527 
L 266.87232 80.614936 
L 267.22944 81.596436 
L 267.58656 71.67207 
L 267.94368 77.407138 
L 268.3008 74.169769 
L 268.65792 73.685298 
L 269.01504 73.535015 
L 269.37216 82.402943 
L 269.72928 80.918338 
L 270.0864 68.146692 
L 270.80064 73.283868 
L 271.15776 69.883253 
L 271.51488 79.928332 
L 271.872 70.432131 
L 272.58624 67.433352 
L 273.30048 81.709047 
L 273.6576 81.826519 
L 274.01472 68.005725 
L 274.37184 81.35339 
L 274.72896 68.126033 
L 275.08608 72.531236 
L 275.4432 75.100634 
L 275.80032 71.302235 
L 276.15744 75.817619 
L 276.51456 69.22946 
L 276.87168 65.970622 
L 277.2288 77.872976 
L 277.58592 71.419302 
L 277.94304 75.449 
L 278.30016 77.372302 
L 278.65728 68.64453 
L 279.0144 68.157629 
L 279.37152 63.337222 
L 279.72864 75.152889 
L 280.08576 71.979117 
L 280.8 74.456158 
L 281.15712 75.934686 
L 281.51424 76.810866 
L 281.87136 67.113747 
L 282.22848 68.575262 
L 282.5856 69.055278 
L 282.94272 68.388522 
L 283.29984 63.912835 
L 283.65696 70.125084 
L 284.01408 67.617662 
L 284.3712 66.850448 
L 285.08544 63.519101 
L 285.44256 69.144799 
L 285.79968 70.868804 
L 286.1568 70.730673 
L 286.51392 61.326424 
L 286.87104 66.851258 
L 287.22816 66.082829 
L 287.58528 72.215277 
L 287.9424 59.57447 
L 288.29952 69.540154 
L 288.65664 64.891905 
L 289.01376 65.863682 
L 289.37088 74.825588 
L 289.728 58.987514 
L 290.08512 61.787806 
L 290.44224 73.878114 
L 290.79936 71.996941 
L 291.15648 61.298069 
L 291.5136 65.676537 
L 291.87072 65.038137 
L 292.22784 69.726084 
L 292.94208 72.751598 
L 293.2992 70.695836 
L 293.65632 67.348286 
L 294.01344 65.354096 
L 294.37056 66.006269 
L 294.72768 56.711796 
L 295.0848 56.637667 
L 295.44192 69.027732 
L 295.79904 68.172211 
L 296.15616 64.390015 
L 296.8704 72.102666 
L 297.22752 55.356816 
L 297.58464 57.678713 
L 298.29888 68.158439 
L 298.656 55.946202 
L 299.37024 60.490752 
L 299.72736 56.224895 
L 300.08448 57.798211 
L 300.4416 55.067997 
L 300.79872 57.355462 
L 301.15584 61.27579 
L 301.51296 60.683973 
L 301.87008 63.864226 
L 302.2272 62.134146 
L 302.58432 53.568 
L 302.94144 58.039231 
L 303.29856 64.513968 
L 303.65568 68.64453 
L 304.0128 67.769161 
L 304.36992 65.275512 
L 304.72704 76.026639 
L 305.08416 63.074328 
L 305.44128 65.349236 
L 305.7984 73.125078 
L 306.15552 73.771579 
L 306.51264 76.180162 
L 306.86976 67.825871 
L 307.22688 83.936156 
L 307.584 80.650988 
L 307.94112 71.481279 
L 308.29824 72.335989 
L 309.01248 87.223754 
L 309.3696 82.446286 
L 309.72672 86.457755 
L 310.08384 79.70392 
L 310.44096 78.292635 
L 310.79808 92.62342 
L 311.1552 86.545252 
L 311.51232 91.167171 
L 311.86944 90.233875 
L 312.22656 88.345815 
L 312.58368 95.943424 
L 312.9408 95.367001 
L 313.29792 86.745764 
L 313.65504 95.460573 
L 314.01216 100.589648 
L 314.7264 101.837688 
L 315.08352 88.906441 
L 315.44064 98.008097 
L 315.79776 91.299226 
L 316.15488 104.293259 
L 316.512 92.831224 
L 317.22624 101.370635 
L 317.58336 95.825952 
L 317.94048 100.307715 
L 318.2976 101.147438 
L 318.65472 107.516045 
L 319.01184 105.077487 
L 319.36896 108.206295 
L 319.72608 109.82498 
L 320.44032 103.687265 
L 320.79744 99.488246 
L 321.15456 106.075594 
L 321.51168 99.467182 
L 321.8688 107.443537 
L 323.29728 101.514437 
L 323.6544 102.117595 
L 324.01152 107.317153 
L 324.36864 105.369547 
L 324.72576 105.719938 
L 325.08288 106.382642 
L 325.79712 113.914629 
L 326.15424 110.871696 
L 326.86848 115.207227 
L 327.2256 105.914779 
L 327.58272 113.470665 
L 327.93984 109.517932 
L 328.29696 116.349136 
L 328.65408 105.274759 
L 329.0112 113.195213 
L 329.36832 115.97039 
L 329.72544 112.053709 
L 330.08256 117.565985 
L 330.43968 109.675506 
L 330.7968 112.788112 
L 331.15392 114.1597 
L 331.51104 110.310666 
L 331.86816 111.044259 
L 332.22528 113.819841 
L 332.5824 110.066 
L 332.93952 114.980789 
L 333.29664 118.3093 
L 333.65376 112.847253 
L 334.01088 117.317269 
L 334.368 110.659031 
L 334.72512 112.581523 
L 335.43936 119.77041 
L 335.79648 109.212099 
L 336.1536 120.261362 
L 336.51072 121.466464 
L 336.86784 121.323877 
L 337.22496 115.628101 
L 337.58208 112.251386 
L 337.9392 112.212499 
L 338.29632 110.770832 
L 338.65344 117.076248 
L 339.01056 113.650114 
L 339.36768 121.941213 
L 340.08192 115.025348 
L 340.43904 120.563549 
L 340.79616 116.498205 
L 341.15328 124.502105 
L 341.5104 119.812943 
L 341.86752 112.993485 
L 342.58176 122.495762 
L 342.93888 113.463374 
L 343.296 125.264458 
L 343.65312 116.97741 
L 344.01024 117.442032 
L 344.36736 125.304561 
L 344.72448 122.253527 
L 345.0816 120.478483 
L 345.43872 125.306181 
L 345.79584 118.940004 
L 346.15296 126.979146 
L 346.8672 119.74651 
L 347.22432 128.447142 
L 347.58144 121.487528 
L 347.93856 123.510478 
L 348.29568 128.81333 
L 348.6528 129.018299 
L 349.00992 120.841431 
L 349.36704 122.717339 
L 349.72416 128.619704 
L 350.08128 117.917997 
L 350.4384 126.164537 
L 350.79552 121.745966 
L 351.15264 119.027095 
L 351.50976 129.834122 
L 351.86688 127.075149 
L 352.224 123.394626 
L 352.58112 129.708144 
L 353.29536 130.923372 
L 353.65248 129.755538 
L 354.0096 122.318339 
L 354.72384 130.649136 
L 355.08096 125.553277 
L 355.43808 126.136992 
L 355.7952 124.335618 
L 356.15232 132.514106 
L 356.50944 126.830888 
L 356.86656 132.563121 
L 357.22368 127.319004 
L 357.5808 124.761353 
L 357.93792 128.957943 
L 358.29504 124.343315 
L 358.65216 129.341955 
L 359.00928 130.240819 
L 359.3664 133.903923 
L 359.72352 131.296042 
L 360.08064 124.84966 
L 360.43776 135.620636 
L 360.79488 129.544898 
L 361.152 129.572443 
L 361.50912 133.582292 
L 361.86624 131.987912 
L 362.22336 128.673579 
L 362.58048 133.626851 
L 362.9376 130.175197 
L 363.29472 128.854243 
L 363.65184 137.208129 
L 364.7232 132.15926 
L 365.08032 127.939176 
L 365.43744 134.327227 
L 365.79456 128.931613 
L 366.15168 131.251484 
L 366.5088 130.48589 
L 366.86592 139.069454 
L 367.22304 135.235408 
L 367.58016 137.761058 
L 367.93728 128.157917 
L 368.2944 128.409064 
L 369.00864 134.482777 
L 369.36576 137.661004 
L 369.72288 138.472777 
L 370.08 132.632794 
L 370.43712 140.673151 
L 370.79424 134.704353 
L 371.15136 132.655883 
L 371.50848 140.912551 
L 371.8656 137.631839 
L 372.57984 141.497481 
L 372.93696 133.99628 
L 373.29408 137.643586 
L 373.6512 136.94564 
L 374.36544 142.897424 
L 374.72256 142.092538 
L 375.07968 133.43525 
L 375.4368 140.327621 
L 375.79392 135.873808 
L 376.15104 135.068922 
L 376.50816 139.215687 
L 376.86528 137.278612 
L 377.2224 144.036498 
L 377.57952 137.473049 
L 377.93664 135.19166 
L 378.29376 137.336943 
L 378.65088 136.38947 
L 379.008 141.659106 
L 379.36512 144.991263 
L 379.72224 139.647093 
L 380.07936 140.35152 
L 380.43648 140.184629 
L 380.7936 142.55635 
L 381.15072 143.45805 
L 381.50784 137.05339 
L 381.86496 145.53609 
L 382.22208 142.624808 
L 382.5792 137.094708 
L 382.93632 137.694626 
L 383.65056 141.842606 
L 384.00768 138.537589 
L 384.3648 142.034207 
L 384.72192 140.686518 
L 385.07904 137.438212 
L 385.43616 146.818156 
L 385.79328 138.482904 
L 386.1504 139.807908 
L 386.50752 145.630068 
L 386.86464 141.3314 
L 387.22176 139.120899 
L 387.57888 147.045809 
L 387.936 141.666803 
L 388.29312 141.976686 
L 389.00736 143.452378 
L 389.36448 144.891209 
L 389.7216 148.368383 
L 390.07872 142.967907 
L 390.43584 148.071462 
L 390.79296 147.453316 
L 391.15008 149.36082 
L 391.5072 145.052429 
L 391.86432 148.354205 
L 392.22144 144.219593 
L 392.57856 149.20203 
L 392.93568 143.585649 
L 393.2928 146.039195 
L 393.64992 146.025017 
L 394.00704 148.231872 
L 394.36416 149.135597 
L 394.72128 143.581598 
L 395.0784 150.742534 
L 395.43552 149.525281 
L 395.79264 149.863114 
L 396.14976 142.167477 
L 396.50688 145.061746 
L 396.864 142.437258 
L 397.22112 151.486254 
L 397.57824 145.225802 
L 397.93536 151.050392 
L 398.29248 144.974655 
L 398.6496 152.272912 
L 399.00672 145.867038 
L 399.36384 144.775762 
L 399.72096 148.098197 
L 400.07808 154.383359 
L 400.4352 146.045271 
L 400.79232 144.94792 
L 401.14944 152.681229 
L 401.50656 155.02419 
L 401.86368 148.583884 
L 402.2208 147.996118 
L 402.57792 152.196353 
L 402.93504 151.17313 
L 403.29216 154.20148 
L 403.64928 155.2644 
L 404.0064 152.873235 
L 404.36352 147.406732 
L 404.72064 146.299254 
L 405.07776 149.222284 
L 405.43488 149.058633 
L 405.792 154.098591 
L 406.14912 155.32111 
L 406.50624 154.075501 
L 406.86336 154.700534 
L 407.22048 152.185821 
L 407.5776 147.551344 
L 407.93472 147.95237 
L 408.29184 152.396055 
L 408.64896 154.567264 
L 409.00608 155.135991 
L 409.3632 154.885249 
L 409.72032 153.35082 
L 410.07744 158.4803 
L 410.43456 153.422518 
L 410.79168 155.114927 
L 411.1488 150.431436 
L 411.50592 153.277096 
L 411.86304 153.750225 
L 412.57728 151.561193 
L 412.9344 151.388226 
L 413.29152 158.276951 
L 413.64864 152.968023 
L 414.00576 159.514054 
L 414.36288 157.47409 
L 414.72 151.947231 
L 414.72 151.947231 
" style="fill:none;stroke:#000080;stroke-linecap:square;stroke-width:0.5;"/>
   </g>
   <g id="patch_3">
    <path d="M 57.6 307.584 
L 57.6 41.472 
" style="fill:none;stroke:#000000;stroke-linecap:square;stroke-linejoin:miter;stroke-width:0.8;"/>
   </g>
   <g id="patch_4">
    <path d="M 414.72 307.584 
L 414.72 41.472 
" style="fill:none;stroke:#000000;stroke-linecap:square;stroke-linejoin:miter;stroke-width:0.8;"/>
   </g>
   <g id="patch_5">
    <path d="M 57.6 307.584 
L 414.72 307.584 
" style="fill:none;stroke:#000000;stroke-linecap:square;stroke-linejoin:miter;stroke-width:0.8;"/>
   </g>
   <g id="patch_6">
    <path d="M 57.6 41.472 
L 414.72 41.472 
" style="fill:none;stroke:#000000;stroke-linecap:square;stroke-linejoin:miter;stroke-width:0.8;"/>
   </g>
   <g id="text_16">
    <!-- Test -->
    <defs>
     <path d="M -0.296875 72.90625 
L 61.375 72.90625 
L 61.375 64.59375 
L 35.5 64.59375 
L 35.5 0 
L 25.59375 0 
L 25.59375 64.59375 
L -0.296875 64.59375 
z
" id="DejaVuSans-54"/>
    </defs>
    <g transform="translate(223.341563 35.472)scale(0.12 -0.12)">
     <use xlink:href="#DejaVuSans-54"/>
     <use x="60.818359" xlink:href="#DejaVuSans-65"/>
     <use x="122.341797" xlink:href="#DejaVuSans-73"/>
     <use x="174.441406" xlink:href="#DejaVuSans-74"/>
    </g>
   </g>
   <g id="legend_1">
    <g id="patch_7">
     <path d="M 166.043437 302.584 
L 407.72 302.584 
Q 409.72 302.584 409.72 300.584 
L 409.72 286.905875 
Q 409.72 284.905875 407.72 284.905875 
L 166.043437 284.905875 
Q 164.043437 284.905875 164.043437 286.905875 
L 164.043437 300.584 
Q 164.043437 302.584 166.043437 302.584 
z
" style="fill:#ffffff;opacity:0.8;stroke:#cccccc;stroke-linejoin:miter;"/>
    </g>
    <g id="line2d_28">
     <path d="M 168.043437 293.004312 
L 188.043437 293.004312 
" style="fill:none;stroke:#000080;stroke-linecap:square;stroke-width:0.5;"/>
    </g>
    <g id="line2d_29"/>
    <g id="text_17">
     <!-- Successful download requests per second -->
     <g transform="translate(196.043437 296.504312)scale(0.1 -0.1)">
      <use xlink:href="#DejaVuSans-53"/>
      <use x="63.476562" xlink:href="#DejaVuSans-75"/>
      <use x="126.855469" xlink:href="#DejaVuSans-63"/>
      <use x="181.835938" xlink:href="#DejaVuSans-63"/>
      <use x="236.816406" xlink:href="#DejaVuSans-65"/>
      <use x="298.339844" xlink:href="#DejaVuSans-73"/>
      <use x="350.439453" xlink:href="#DejaVuSans-73"/>
      <use x="402.539062" xlink:href="#DejaVuSans-66"/>
      <use x="437.744141" xlink:href="#DejaVuSans-75"/>
      <use x="501.123047" xlink:href="#DejaVuSans-6c"/>
      <use x="528.90625" xlink:href="#DejaVuSans-20"/>
      <use x="560.693359" xlink:href="#DejaVuSans-64"/>
      <use x="624.169922" xlink:href="#DejaVuSans-6f"/>
      <use x="685.351562" xlink:href="#DejaVuSans-77"/>
      <use x="767.138672" xlink:href="#DejaVuSans-6e"/>
      <use x="830.517578" xlink:href="#DejaVuSans-6c"/>
      <use x="858.300781" xlink:href="#DejaVuSans-6f"/>
      <use x="919.482422" xlink:href="#DejaVuSans-61"/>
      <use x="980.761719" xlink:href="#DejaVuSans-64"/>
      <use x="1044.238281" xlink:href="#DejaVuSans-20"/>
      <use x="1076.025391" xlink:href="#DejaVuSans-72"/>
      <use x="1117.107422" xlink:href="#DejaVuSans-65"/>
      <use x="1178.630859" xlink:href="#DejaVuSans-71"/>
      <use x="1242.107422" xlink:href="#DejaVuSans-75"/>
      <use x="1305.486328" xlink:href="#DejaVuSans-65"/>
      <use x="1367.009766" xlink:href="#DejaVuSans-73"/>
      <use x="1419.109375" xlink:href="#DejaVuSans-74"/>
      <use x="1458.318359" xlink:href="#DejaVuSans-73"/>
      <use x="1510.417969" xlink:href="#DejaVuSans-20"/>
      <use x="1542.205078" xlink:href="#DejaVuSans-70"/>
      <use x="1605.681641" xlink:href="#DejaVuSans-65"/>
      <use x="1667.205078" xlink:href="#DejaVuSans-72"/>
      <use x="1708.318359" xlink:href="#DejaVuSans-20"/>
      <use x="1740.105469" xlink:href="#DejaVuSans-73"/>
      <use x="1792.205078" xlink:href="#DejaVuSans-65"/>
      <use x="1853.728516" xlink:href="#DejaVuSans-63"/>
      <use x="1908.708984" xlink:href="#DejaVuSans-6f"/>
      <use x="1969.890625" xlink:href="#DejaVuSans-6e"/>
      <use x="2033.269531" xlink:href="#DejaVuSans-64"/>
     </g>
    </g>
   </g>
  </g>
 </g>
 <defs>
  <clipPath id="p5e21d584f8">
   <rect height="266.112" width="357.12" x="57.6" y="41.472"/>
  </clipPath>
 </defs>
</svg>
