<?xml version="1.0" encoding="utf-8" standalone="no"?>
<!DOCTYPE svg PUBLIC "-//W3C//DTD SVG 1.1//EN"
  "http://www.w3.org/Graphics/SVG/1.1/DTD/svg11.dtd">
<!-- Created with matplotlib (http://matplotlib.org/) -->
<svg height="345pt" version="1.1" viewBox="0 0 460 345" width="460pt" xmlns="http://www.w3.org/2000/svg" xmlns:xlink="http://www.w3.org/1999/xlink">
 <defs>
  <style type="text/css">
*{stroke-linecap:butt;stroke-linejoin:round;}
  </style>
 </defs>
 <g id="figure_1">
  <g id="patch_1">
   <path d="M 0 345.6 
L 460.8 345.6 
L 460.8 0 
L 0 0 
z
" style="fill:#ffffff;"/>
  </g>
  <g id="axes_1">
   <g id="patch_2">
    <path d="M 57.6 307.584 
L 414.72 307.584 
L 414.72 41.472 
L 57.6 41.472 
z
" style="fill:#ffffff;"/>
   </g>
   <g id="matplotlib.axis_1">
    <g id="xtick_1">
     <g id="line2d_1">
      <path clip-path="url(#p037f661588)" d="M 57.6 307.584 
L 57.6 41.472 
" style="fill:none;stroke:#b0b0b0;stroke-linecap:square;stroke-width:0.8;"/>
     </g>
     <g id="line2d_2">
      <defs>
       <path d="M 0 0 
L 0 3.5 
" id="m7a70667b07" style="stroke:#000000;stroke-width:0.8;"/>
      </defs>
      <g>
       <use style="stroke:#000000;stroke-width:0.8;" x="57.6" xlink:href="#m7a70667b07" y="307.584"/>
      </g>
     </g>
     <g id="text_1">
      <!-- 0 -->
      <defs>
       <path d="M 31.78125 66.40625 
Q 24.171875 66.40625 20.328125 58.90625 
Q 16.5 51.421875 16.5 36.375 
Q 16.5 21.390625 20.328125 13.890625 
Q 24.171875 6.390625 31.78125 6.390625 
Q 39.453125 6.390625 43.28125 13.890625 
Q 47.125 21.390625 47.125 36.375 
Q 47.125 51.421875 43.28125 58.90625 
Q 39.453125 66.40625 31.78125 66.40625 
M 31.78125 74.21875 
Q 44.046875 74.21875 50.515625 64.515625 
Q 56.984375 54.828125 56.984375 36.375 
Q 56.984375 17.96875 50.515625 8.265625 
Q 44.046875 -1.421875 31.78125 -1.421875 
Q 19.53125 -1.421875 13.0625 8.265625 
Q 6.59375 17.96875 6.59375 36.375 
Q 6.59375 54.828125 13.0625 64.515625 
Q 19.53125 74.21875 31.78125 74.21875 
" id="DejaVuSans-30"/>
      </defs>
      <g transform="translate(54.41875 322.182437)scale(0.1 -0.1)">
       <use xlink:href="#DejaVuSans-30"/>
      </g>
     </g>
    </g>
    <g id="xtick_2">
     <g id="line2d_3">
      <path clip-path="url(#p037f661588)" d="M 129.024 307.584 
L 129.024 41.472 
" style="fill:none;stroke:#b0b0b0;stroke-linecap:square;stroke-width:0.8;"/>
     </g>
     <g id="line2d_4">
      <g>
       <use style="stroke:#000000;stroke-width:0.8;" x="129.024" xlink:href="#m7a70667b07" y="307.584"/>
      </g>
     </g>
     <g id="text_2">
      <!-- 200 -->
      <defs>
       <path d="M 19.1875 8.296875 
L 53.609375 8.296875 
L 53.609375 0 
L 7.328125 0 
L 7.328125 8.296875 
Q 12.9375 14.109375 22.625 23.890625 
Q 32.328125 33.6875 34.8125 36.53125 
Q 39.546875 41.84375 41.421875 45.53125 
Q 43.3125 49.21875 43.3125 52.78125 
Q 43.3125 58.59375 39.234375 62.25 
Q 35.15625 65.921875 28.609375 65.921875 
Q 23.96875 65.921875 18.8125 64.3125 
Q 13.671875 62.703125 7.8125 59.421875 
L 7.8125 69.390625 
Q 13.765625 71.78125 18.9375 73 
Q 24.125 74.21875 28.421875 74.21875 
Q 39.75 74.21875 46.484375 68.546875 
Q 53.21875 62.890625 53.21875 53.421875 
Q 53.21875 48.921875 51.53125 44.890625 
Q 49.859375 40.875 45.40625 35.40625 
Q 44.1875 33.984375 37.640625 27.21875 
Q 31.109375 20.453125 19.1875 8.296875 
" id="DejaVuSans-32"/>
      </defs>
      <g transform="translate(119.48025 322.182437)scale(0.1 -0.1)">
       <use xlink:href="#DejaVuSans-32"/>
       <use x="63.623047" xlink:href="#DejaVuSans-30"/>
       <use x="127.246094" xlink:href="#DejaVuSans-30"/>
      </g>
     </g>
    </g>
    <g id="xtick_3">
     <g id="line2d_5">
      <path clip-path="url(#p037f661588)" d="M 200.448 307.584 
L 200.448 41.472 
" style="fill:none;stroke:#b0b0b0;stroke-linecap:square;stroke-width:0.8;"/>
     </g>
     <g id="line2d_6">
      <g>
       <use style="stroke:#000000;stroke-width:0.8;" x="200.448" xlink:href="#m7a70667b07" y="307.584"/>
      </g>
     </g>
     <g id="text_3">
      <!-- 400 -->
      <defs>
       <path d="M 37.796875 64.3125 
L 12.890625 25.390625 
L 37.796875 25.390625 
z
M 35.203125 72.90625 
L 47.609375 72.90625 
L 47.609375 25.390625 
L 58.015625 25.390625 
L 58.015625 17.1875 
L 47.609375 17.1875 
L 47.609375 0 
L 37.796875 0 
L 37.796875 17.1875 
L 4.890625 17.1875 
L 4.890625 26.703125 
z
" id="DejaVuSans-34"/>
      </defs>
      <g transform="translate(190.90425 322.182437)scale(0.1 -0.1)">
       <use xlink:href="#DejaVuSans-34"/>
       <use x="63.623047" xlink:href="#DejaVuSans-30"/>
       <use x="127.246094" xlink:href="#DejaVuSans-30"/>
      </g>
     </g>
    </g>
    <g id="xtick_4">
     <g id="line2d_7">
      <path clip-path="url(#p037f661588)" d="M 271.872 307.584 
L 271.872 41.472 
" style="fill:none;stroke:#b0b0b0;stroke-linecap:square;stroke-width:0.8;"/>
     </g>
     <g id="line2d_8">
      <g>
       <use style="stroke:#000000;stroke-width:0.8;" x="271.872" xlink:href="#m7a70667b07" y="307.584"/>
      </g>
     </g>
     <g id="text_4">
      <!-- 600 -->
      <defs>
       <path d="M 33.015625 40.375 
Q 26.375 40.375 22.484375 35.828125 
Q 18.609375 31.296875 18.609375 23.390625 
Q 18.609375 15.53125 22.484375 10.953125 
Q 26.375 6.390625 33.015625 6.390625 
Q 39.65625 6.390625 43.53125 10.953125 
Q 47.40625 15.53125 47.40625 23.390625 
Q 47.40625 31.296875 43.53125 35.828125 
Q 39.65625 40.375 33.015625 40.375 
M 52.59375 71.296875 
L 52.59375 62.3125 
Q 48.875 64.0625 45.09375 64.984375 
Q 41.3125 65.921875 37.59375 65.921875 
Q 27.828125 65.921875 22.671875 59.328125 
Q 17.53125 52.734375 16.796875 39.40625 
Q 19.671875 43.65625 24.015625 45.921875 
Q 28.375 48.1875 33.59375 48.1875 
Q 44.578125 48.1875 50.953125 41.515625 
Q 57.328125 34.859375 57.328125 23.390625 
Q 57.328125 12.15625 50.6875 5.359375 
Q 44.046875 -1.421875 33.015625 -1.421875 
Q 20.359375 -1.421875 13.671875 8.265625 
Q 6.984375 17.96875 6.984375 36.375 
Q 6.984375 53.65625 15.1875 63.9375 
Q 23.390625 74.21875 37.203125 74.21875 
Q 40.921875 74.21875 44.703125 73.484375 
Q 48.484375 72.75 52.59375 71.296875 
" id="DejaVuSans-36"/>
      </defs>
      <g transform="translate(262.32825 322.182437)scale(0.1 -0.1)">
       <use xlink:href="#DejaVuSans-36"/>
       <use x="63.623047" xlink:href="#DejaVuSans-30"/>
       <use x="127.246094" xlink:href="#DejaVuSans-30"/>
      </g>
     </g>
    </g>
    <g id="xtick_5">
     <g id="line2d_9">
      <path clip-path="url(#p037f661588)" d="M 343.296 307.584 
L 343.296 41.472 
" style="fill:none;stroke:#b0b0b0;stroke-linecap:square;stroke-width:0.8;"/>
     </g>
     <g id="line2d_10">
      <g>
       <use style="stroke:#000000;stroke-width:0.8;" x="343.296" xlink:href="#m7a70667b07" y="307.584"/>
      </g>
     </g>
     <g id="text_5">
      <!-- 800 -->
      <defs>
       <path d="M 31.78125 34.625 
Q 24.75 34.625 20.71875 30.859375 
Q 16.703125 27.09375 16.703125 20.515625 
Q 16.703125 13.921875 20.71875 10.15625 
Q 24.75 6.390625 31.78125 6.390625 
Q 38.8125 6.390625 42.859375 10.171875 
Q 46.921875 13.96875 46.921875 20.515625 
Q 46.921875 27.09375 42.890625 30.859375 
Q 38.875 34.625 31.78125 34.625 
M 21.921875 38.8125 
Q 15.578125 40.375 12.03125 44.71875 
Q 8.5 49.078125 8.5 55.328125 
Q 8.5 64.0625 14.71875 69.140625 
Q 20.953125 74.21875 31.78125 74.21875 
Q 42.671875 74.21875 48.875 69.140625 
Q 55.078125 64.0625 55.078125 55.328125 
Q 55.078125 49.078125 51.53125 44.71875 
Q 48 40.375 41.703125 38.8125 
Q 48.828125 37.15625 52.796875 32.3125 
Q 56.78125 27.484375 56.78125 20.515625 
Q 56.78125 9.90625 50.3125 4.234375 
Q 43.84375 -1.421875 31.78125 -1.421875 
Q 19.734375 -1.421875 13.25 4.234375 
Q 6.78125 9.90625 6.78125 20.515625 
Q 6.78125 27.484375 10.78125 32.3125 
Q 14.796875 37.15625 21.921875 38.8125 
M 18.3125 54.390625 
Q 18.3125 48.734375 21.84375 45.5625 
Q 25.390625 42.390625 31.78125 42.390625 
Q 38.140625 42.390625 41.71875 45.5625 
Q 45.3125 48.734375 45.3125 54.390625 
Q 45.3125 60.0625 41.71875 63.234375 
Q 38.140625 66.40625 31.78125 66.40625 
Q 25.390625 66.40625 21.84375 63.234375 
Q 18.3125 60.0625 18.3125 54.390625 
" id="DejaVuSans-38"/>
      </defs>
      <g transform="translate(333.75225 322.182437)scale(0.1 -0.1)">
       <use xlink:href="#DejaVuSans-38"/>
       <use x="63.623047" xlink:href="#DejaVuSans-30"/>
       <use x="127.246094" xlink:href="#DejaVuSans-30"/>
      </g>
     </g>
    </g>
    <g id="xtick_6">
     <g id="line2d_11">
      <path clip-path="url(#p037f661588)" d="M 414.72 307.584 
L 414.72 41.472 
" style="fill:none;stroke:#b0b0b0;stroke-linecap:square;stroke-width:0.8;"/>
     </g>
     <g id="line2d_12">
      <g>
       <use style="stroke:#000000;stroke-width:0.8;" x="414.72" xlink:href="#m7a70667b07" y="307.584"/>
      </g>
     </g>
     <g id="text_6">
      <!-- 1000 -->
      <defs>
       <path d="M 12.40625 8.296875 
L 28.515625 8.296875 
L 28.515625 63.921875 
L 10.984375 60.40625 
L 10.984375 69.390625 
L 28.421875 72.90625 
L 38.28125 72.90625 
L 38.28125 8.296875 
L 54.390625 8.296875 
L 54.390625 0 
L 12.40625 0 
z
" id="DejaVuSans-31"/>
      </defs>
      <g transform="translate(401.995 322.182437)scale(0.1 -0.1)">
       <use xlink:href="#DejaVuSans-31"/>
       <use x="63.623047" xlink:href="#DejaVuSans-30"/>
       <use x="127.246094" xlink:href="#DejaVuSans-30"/>
       <use x="190.869141" xlink:href="#DejaVuSans-30"/>
      </g>
     </g>
    </g>
    <g id="text_7">
     <!-- Number of clients -->
     <defs>
      <path d="M 9.8125 72.90625 
L 23.09375 72.90625 
L 55.421875 11.921875 
L 55.421875 72.90625 
L 64.984375 72.90625 
L 64.984375 0 
L 51.703125 0 
L 19.390625 60.984375 
L 19.390625 0 
L 9.8125 0 
z
" id="DejaVuSans-4e"/>
      <path d="M 8.5 21.578125 
L 8.5 54.6875 
L 17.484375 54.6875 
L 17.484375 21.921875 
Q 17.484375 14.15625 20.5 10.265625 
Q 23.53125 6.390625 29.59375 6.390625 
Q 36.859375 6.390625 41.078125 11.03125 
Q 45.3125 15.671875 45.3125 23.6875 
L 45.3125 54.6875 
L 54.296875 54.6875 
L 54.296875 0 
L 45.3125 0 
L 45.3125 8.40625 
Q 42.046875 3.421875 37.71875 1 
Q 33.40625 -1.421875 27.6875 -1.421875 
Q 18.265625 -1.421875 13.375 4.4375 
Q 8.5 10.296875 8.5 21.578125 
M 31.109375 56 
z
" id="DejaVuSans-75"/>
      <path d="M 52 44.1875 
Q 55.375 50.25 60.0625 53.125 
Q 64.75 56 71.09375 56 
Q 79.640625 56 84.28125 50.015625 
Q 88.921875 44.046875 88.921875 33.015625 
L 88.921875 0 
L 79.890625 0 
L 79.890625 32.71875 
Q 79.890625 40.578125 77.09375 44.375 
Q 74.3125 48.1875 68.609375 48.1875 
Q 61.625 48.1875 57.5625 43.546875 
Q 53.515625 38.921875 53.515625 30.90625 
L 53.515625 0 
L 44.484375 0 
L 44.484375 32.71875 
Q 44.484375 40.625 41.703125 44.40625 
Q 38.921875 48.1875 33.109375 48.1875 
Q 26.21875 48.1875 22.15625 43.53125 
Q 18.109375 38.875 18.109375 30.90625 
L 18.109375 0 
L 9.078125 0 
L 9.078125 54.6875 
L 18.109375 54.6875 
L 18.109375 46.1875 
Q 21.1875 51.21875 25.484375 53.609375 
Q 29.78125 56 35.6875 56 
Q 41.65625 56 45.828125 52.96875 
Q 50 49.953125 52 44.1875 
" id="DejaVuSans-6d"/>
      <path d="M 48.6875 27.296875 
Q 48.6875 37.203125 44.609375 42.84375 
Q 40.53125 48.484375 33.40625 48.484375 
Q 26.265625 48.484375 22.1875 42.84375 
Q 18.109375 37.203125 18.109375 27.296875 
Q 18.109375 17.390625 22.1875 11.75 
Q 26.265625 6.109375 33.40625 6.109375 
Q 40.53125 6.109375 44.609375 11.75 
Q 48.6875 17.390625 48.6875 27.296875 
M 18.109375 46.390625 
Q 20.953125 51.265625 25.265625 53.625 
Q 29.59375 56 35.59375 56 
Q 45.5625 56 51.78125 48.09375 
Q 58.015625 40.1875 58.015625 27.296875 
Q 58.015625 14.40625 51.78125 6.484375 
Q 45.5625 -1.421875 35.59375 -1.421875 
Q 29.59375 -1.421875 25.265625 0.953125 
Q 20.953125 3.328125 18.109375 8.203125 
L 18.109375 0 
L 9.078125 0 
L 9.078125 75.984375 
L 18.109375 75.984375 
z
" id="DejaVuSans-62"/>
      <path d="M 56.203125 29.59375 
L 56.203125 25.203125 
L 14.890625 25.203125 
Q 15.484375 15.921875 20.484375 11.0625 
Q 25.484375 6.203125 34.421875 6.203125 
Q 39.59375 6.203125 44.453125 7.46875 
Q 49.3125 8.734375 54.109375 11.28125 
L 54.109375 2.78125 
Q 49.265625 0.734375 44.1875 -0.34375 
Q 39.109375 -1.421875 33.890625 -1.421875 
Q 20.796875 -1.421875 13.15625 6.1875 
Q 5.515625 13.8125 5.515625 26.8125 
Q 5.515625 40.234375 12.765625 48.109375 
Q 20.015625 56 32.328125 56 
Q 43.359375 56 49.78125 48.890625 
Q 56.203125 41.796875 56.203125 29.59375 
M 47.21875 32.234375 
Q 47.125 39.59375 43.09375 43.984375 
Q 39.0625 48.390625 32.421875 48.390625 
Q 24.90625 48.390625 20.390625 44.140625 
Q 15.875 39.890625 15.1875 32.171875 
z
" id="DejaVuSans-65"/>
      <path d="M 41.109375 46.296875 
Q 39.59375 47.171875 37.8125 47.578125 
Q 36.03125 48 33.890625 48 
Q 26.265625 48 22.1875 43.046875 
Q 18.109375 38.09375 18.109375 28.8125 
L 18.109375 0 
L 9.078125 0 
L 9.078125 54.6875 
L 18.109375 54.6875 
L 18.109375 46.1875 
Q 20.953125 51.171875 25.484375 53.578125 
Q 30.03125 56 36.53125 56 
Q 37.453125 56 38.578125 55.875 
Q 39.703125 55.765625 41.0625 55.515625 
z
" id="DejaVuSans-72"/>
      <path id="DejaVuSans-20"/>
      <path d="M 30.609375 48.390625 
Q 23.390625 48.390625 19.1875 42.75 
Q 14.984375 37.109375 14.984375 27.296875 
Q 14.984375 17.484375 19.15625 11.84375 
Q 23.34375 6.203125 30.609375 6.203125 
Q 37.796875 6.203125 41.984375 11.859375 
Q 46.1875 17.53125 46.1875 27.296875 
Q 46.1875 37.015625 41.984375 42.703125 
Q 37.796875 48.390625 30.609375 48.390625 
M 30.609375 56 
Q 42.328125 56 49.015625 48.375 
Q 55.71875 40.765625 55.71875 27.296875 
Q 55.71875 13.875 49.015625 6.21875 
Q 42.328125 -1.421875 30.609375 -1.421875 
Q 18.84375 -1.421875 12.171875 6.21875 
Q 5.515625 13.875 5.515625 27.296875 
Q 5.515625 40.765625 12.171875 48.375 
Q 18.84375 56 30.609375 56 
" id="DejaVuSans-6f"/>
      <path d="M 37.109375 75.984375 
L 37.109375 68.5 
L 28.515625 68.5 
Q 23.6875 68.5 21.796875 66.546875 
Q 19.921875 64.59375 19.921875 59.515625 
L 19.921875 54.6875 
L 34.71875 54.6875 
L 34.71875 47.703125 
L 19.921875 47.703125 
L 19.921875 0 
L 10.890625 0 
L 10.890625 47.703125 
L 2.296875 47.703125 
L 2.296875 54.6875 
L 10.890625 54.6875 
L 10.890625 58.5 
Q 10.890625 67.625 15.140625 71.796875 
Q 19.390625 75.984375 28.609375 75.984375 
z
" id="DejaVuSans-66"/>
      <path d="M 48.78125 52.59375 
L 48.78125 44.1875 
Q 44.96875 46.296875 41.140625 47.34375 
Q 37.3125 48.390625 33.40625 48.390625 
Q 24.65625 48.390625 19.8125 42.84375 
Q 14.984375 37.3125 14.984375 27.296875 
Q 14.984375 17.28125 19.8125 11.734375 
Q 24.65625 6.203125 33.40625 6.203125 
Q 37.3125 6.203125 41.140625 7.25 
Q 44.96875 8.296875 48.78125 10.40625 
L 48.78125 2.09375 
Q 45.015625 0.34375 40.984375 -0.53125 
Q 36.96875 -1.421875 32.421875 -1.421875 
Q 20.0625 -1.421875 12.78125 6.34375 
Q 5.515625 14.109375 5.515625 27.296875 
Q 5.515625 40.671875 12.859375 48.328125 
Q 20.21875 56 33.015625 56 
Q 37.15625 56 41.109375 55.140625 
Q 45.0625 54.296875 48.78125 52.59375 
" id="DejaVuSans-63"/>
      <path d="M 9.421875 75.984375 
L 18.40625 75.984375 
L 18.40625 0 
L 9.421875 0 
z
" id="DejaVuSans-6c"/>
      <path d="M 9.421875 54.6875 
L 18.40625 54.6875 
L 18.40625 0 
L 9.421875 0 
z
M 9.421875 75.984375 
L 18.40625 75.984375 
L 18.40625 64.59375 
L 9.421875 64.59375 
z
" id="DejaVuSans-69"/>
      <path d="M 54.890625 33.015625 
L 54.890625 0 
L 45.90625 0 
L 45.90625 32.71875 
Q 45.90625 40.484375 42.875 44.328125 
Q 39.84375 48.1875 33.796875 48.1875 
Q 26.515625 48.1875 22.3125 43.546875 
Q 18.109375 38.921875 18.109375 30.90625 
L 18.109375 0 
L 9.078125 0 
L 9.078125 54.6875 
L 18.109375 54.6875 
L 18.109375 46.1875 
Q 21.34375 51.125 25.703125 53.5625 
Q 30.078125 56 35.796875 56 
Q 45.21875 56 50.046875 50.171875 
Q 54.890625 44.34375 54.890625 33.015625 
" id="DejaVuSans-6e"/>
      <path d="M 18.3125 70.21875 
L 18.3125 54.6875 
L 36.8125 54.6875 
L 36.8125 47.703125 
L 18.3125 47.703125 
L 18.3125 18.015625 
Q 18.3125 11.328125 20.140625 9.421875 
Q 21.96875 7.515625 27.59375 7.515625 
L 36.8125 7.515625 
L 36.8125 0 
L 27.59375 0 
Q 17.1875 0 13.234375 3.875 
Q 9.28125 7.765625 9.28125 18.015625 
L 9.28125 47.703125 
L 2.6875 47.703125 
L 2.6875 54.6875 
L 9.28125 54.6875 
L 9.28125 70.21875 
z
" id="DejaVuSans-74"/>
      <path d="M 44.28125 53.078125 
L 44.28125 44.578125 
Q 40.484375 46.53125 36.375 47.5 
Q 32.28125 48.484375 27.875 48.484375 
Q 21.1875 48.484375 17.84375 46.4375 
Q 14.5 44.390625 14.5 40.28125 
Q 14.5 37.15625 16.890625 35.375 
Q 19.28125 33.59375 26.515625 31.984375 
L 29.59375 31.296875 
Q 39.15625 29.25 43.1875 25.515625 
Q 47.21875 21.78125 47.21875 15.09375 
Q 47.21875 7.46875 41.1875 3.015625 
Q 35.15625 -1.421875 24.609375 -1.421875 
Q 20.21875 -1.421875 15.453125 -0.5625 
Q 10.6875 0.296875 5.421875 2 
L 5.421875 11.28125 
Q 10.40625 8.6875 15.234375 7.390625 
Q 20.0625 6.109375 24.8125 6.109375 
Q 31.15625 6.109375 34.5625 8.28125 
Q 37.984375 10.453125 37.984375 14.40625 
Q 37.984375 18.0625 35.515625 20.015625 
Q 33.0625 21.96875 24.703125 23.78125 
L 21.578125 24.515625 
Q 13.234375 26.265625 9.515625 29.90625 
Q 5.8125 33.546875 5.8125 39.890625 
Q 5.8125 47.609375 11.28125 51.796875 
Q 16.75 56 26.8125 56 
Q 31.78125 56 36.171875 55.265625 
Q 40.578125 54.546875 44.28125 53.078125 
" id="DejaVuSans-73"/>
     </defs>
     <g transform="translate(191.738906 335.860562)scale(0.1 -0.1)">
      <use xlink:href="#DejaVuSans-4e"/>
      <use x="74.804688" xlink:href="#DejaVuSans-75"/>
      <use x="138.183594" xlink:href="#DejaVuSans-6d"/>
      <use x="235.595703" xlink:href="#DejaVuSans-62"/>
      <use x="299.072266" xlink:href="#DejaVuSans-65"/>
      <use x="360.595703" xlink:href="#DejaVuSans-72"/>
      <use x="401.708984" xlink:href="#DejaVuSans-20"/>
      <use x="433.496094" xlink:href="#DejaVuSans-6f"/>
      <use x="494.677734" xlink:href="#DejaVuSans-66"/>
      <use x="529.882812" xlink:href="#DejaVuSans-20"/>
      <use x="561.669922" xlink:href="#DejaVuSans-63"/>
      <use x="616.650391" xlink:href="#DejaVuSans-6c"/>
      <use x="644.433594" xlink:href="#DejaVuSans-69"/>
      <use x="672.216797" xlink:href="#DejaVuSans-65"/>
      <use x="733.740234" xlink:href="#DejaVuSans-6e"/>
      <use x="797.119141" xlink:href="#DejaVuSans-74"/>
      <use x="836.328125" xlink:href="#DejaVuSans-73"/>
     </g>
    </g>
   </g>
   <g id="matplotlib.axis_2">
    <g id="ytick_1">
     <g id="line2d_13">
      <path clip-path="url(#p037f661588)" d="M 57.6 296.807468 
L 414.72 296.807468 
" style="fill:none;stroke:#b0b0b0;stroke-linecap:square;stroke-width:0.8;"/>
     </g>
     <g id="line2d_14">
      <defs>
       <path d="M 0 0 
L -3.5 0 
" id="m098d1a375b" style="stroke:#000000;stroke-width:0.8;"/>
      </defs>
      <g>
       <use style="stroke:#000000;stroke-width:0.8;" x="57.6" xlink:href="#m098d1a375b" y="296.807468"/>
      </g>
     </g>
     <g id="text_8">
      <!-- 0 -->
      <g transform="translate(44.2375 300.606686)scale(0.1 -0.1)">
       <use xlink:href="#DejaVuSans-30"/>
      </g>
     </g>
    </g>
    <g id="ytick_2">
     <g id="line2d_15">
      <path clip-path="url(#p037f661588)" d="M 57.6 262.048048 
L 414.72 262.048048 
" style="fill:none;stroke:#b0b0b0;stroke-linecap:square;stroke-width:0.8;"/>
     </g>
     <g id="line2d_16">
      <g>
       <use style="stroke:#000000;stroke-width:0.8;" x="57.6" xlink:href="#m098d1a375b" y="262.048048"/>
      </g>
     </g>
     <g id="text_9">
      <!-- 25 -->
      <defs>
       <path d="M 10.796875 72.90625 
L 49.515625 72.90625 
L 49.515625 64.59375 
L 19.828125 64.59375 
L 19.828125 46.734375 
Q 21.96875 47.46875 24.109375 47.828125 
Q 26.265625 48.1875 28.421875 48.1875 
Q 40.625 48.1875 47.75 41.5 
Q 54.890625 34.8125 54.890625 23.390625 
Q 54.890625 11.625 47.5625 5.09375 
Q 40.234375 -1.421875 26.90625 -1.421875 
Q 22.3125 -1.421875 17.546875 -0.640625 
Q 12.796875 0.140625 7.71875 1.703125 
L 7.71875 11.625 
Q 12.109375 9.234375 16.796875 8.0625 
Q 21.484375 6.890625 26.703125 6.890625 
Q 35.15625 6.890625 40.078125 11.328125 
Q 45.015625 15.765625 45.015625 23.390625 
Q 45.015625 31 40.078125 35.4375 
Q 35.15625 39.890625 26.703125 39.890625 
Q 22.75 39.890625 18.8125 39.015625 
Q 14.890625 38.140625 10.796875 36.28125 
z
" id="DejaVuSans-35"/>
      </defs>
      <g transform="translate(37.875 265.847267)scale(0.1 -0.1)">
       <use xlink:href="#DejaVuSans-32"/>
       <use x="63.623047" xlink:href="#DejaVuSans-35"/>
      </g>
     </g>
    </g>
    <g id="ytick_3">
     <g id="line2d_17">
      <path clip-path="url(#p037f661588)" d="M 57.6 227.288628 
L 414.72 227.288628 
" style="fill:none;stroke:#b0b0b0;stroke-linecap:square;stroke-width:0.8;"/>
     </g>
     <g id="line2d_18">
      <g>
       <use style="stroke:#000000;stroke-width:0.8;" x="57.6" xlink:href="#m098d1a375b" y="227.288628"/>
      </g>
     </g>
     <g id="text_10">
      <!-- 50 -->
      <g transform="translate(37.875 231.087847)scale(0.1 -0.1)">
       <use xlink:href="#DejaVuSans-35"/>
       <use x="63.623047" xlink:href="#DejaVuSans-30"/>
      </g>
     </g>
    </g>
    <g id="ytick_4">
     <g id="line2d_19">
      <path clip-path="url(#p037f661588)" d="M 57.6 192.529208 
L 414.72 192.529208 
" style="fill:none;stroke:#b0b0b0;stroke-linecap:square;stroke-width:0.8;"/>
     </g>
     <g id="line2d_20">
      <g>
       <use style="stroke:#000000;stroke-width:0.8;" x="57.6" xlink:href="#m098d1a375b" y="192.529208"/>
      </g>
     </g>
     <g id="text_11">
      <!-- 75 -->
      <defs>
       <path d="M 8.203125 72.90625 
L 55.078125 72.90625 
L 55.078125 68.703125 
L 28.609375 0 
L 18.3125 0 
L 43.21875 64.59375 
L 8.203125 64.59375 
z
" id="DejaVuSans-37"/>
      </defs>
      <g transform="translate(37.875 196.328427)scale(0.1 -0.1)">
       <use xlink:href="#DejaVuSans-37"/>
       <use x="63.623047" xlink:href="#DejaVuSans-35"/>
      </g>
     </g>
    </g>
    <g id="ytick_5">
     <g id="line2d_21">
      <path clip-path="url(#p037f661588)" d="M 57.6 157.769789 
L 414.72 157.769789 
" style="fill:none;stroke:#b0b0b0;stroke-linecap:square;stroke-width:0.8;"/>
     </g>
     <g id="line2d_22">
      <g>
       <use style="stroke:#000000;stroke-width:0.8;" x="57.6" xlink:href="#m098d1a375b" y="157.769789"/>
      </g>
     </g>
     <g id="text_12">
      <!-- 100 -->
      <g transform="translate(31.5125 161.569007)scale(0.1 -0.1)">
       <use xlink:href="#DejaVuSans-31"/>
       <use x="63.623047" xlink:href="#DejaVuSans-30"/>
       <use x="127.246094" xlink:href="#DejaVuSans-30"/>
      </g>
     </g>
    </g>
    <g id="ytick_6">
     <g id="line2d_23">
      <path clip-path="url(#p037f661588)" d="M 57.6 123.010369 
L 414.72 123.010369 
" style="fill:none;stroke:#b0b0b0;stroke-linecap:square;stroke-width:0.8;"/>
     </g>
     <g id="line2d_24">
      <g>
       <use style="stroke:#000000;stroke-width:0.8;" x="57.6" xlink:href="#m098d1a375b" y="123.010369"/>
      </g>
     </g>
     <g id="text_13">
      <!-- 125 -->
      <g transform="translate(31.5125 126.809588)scale(0.1 -0.1)">
       <use xlink:href="#DejaVuSans-31"/>
       <use x="63.623047" xlink:href="#DejaVuSans-32"/>
       <use x="127.246094" xlink:href="#DejaVuSans-35"/>
      </g>
     </g>
    </g>
    <g id="ytick_7">
     <g id="line2d_25">
      <path clip-path="url(#p037f661588)" d="M 57.6 88.250949 
L 414.72 88.250949 
" style="fill:none;stroke:#b0b0b0;stroke-linecap:square;stroke-width:0.8;"/>
     </g>
     <g id="line2d_26">
      <g>
       <use style="stroke:#000000;stroke-width:0.8;" x="57.6" xlink:href="#m098d1a375b" y="88.250949"/>
      </g>
     </g>
     <g id="text_14">
      <!-- 150 -->
      <g transform="translate(31.5125 92.050168)scale(0.1 -0.1)">
       <use xlink:href="#DejaVuSans-31"/>
       <use x="63.623047" xlink:href="#DejaVuSans-35"/>
       <use x="127.246094" xlink:href="#DejaVuSans-30"/>
      </g>
     </g>
    </g>
    <g id="ytick_8">
     <g id="line2d_27">
      <path clip-path="url(#p037f661588)" d="M 57.6 53.491529 
L 414.72 53.491529 
" style="fill:none;stroke:#b0b0b0;stroke-linecap:square;stroke-width:0.8;"/>
     </g>
     <g id="line2d_28">
      <g>
       <use style="stroke:#000000;stroke-width:0.8;" x="57.6" xlink:href="#m098d1a375b" y="53.491529"/>
      </g>
     </g>
     <g id="text_15">
      <!-- 175 -->
      <g transform="translate(31.5125 57.290748)scale(0.1 -0.1)">
       <use xlink:href="#DejaVuSans-31"/>
       <use x="63.623047" xlink:href="#DejaVuSans-37"/>
       <use x="127.246094" xlink:href="#DejaVuSans-35"/>
      </g>
     </g>
    </g>
    <g id="text_16">
     <!-- Successful download requests per second -->
     <defs>
      <path d="M 53.515625 70.515625 
L 53.515625 60.890625 
Q 47.90625 63.578125 42.921875 64.890625 
Q 37.9375 66.21875 33.296875 66.21875 
Q 25.25 66.21875 20.875 63.09375 
Q 16.5 59.96875 16.5 54.203125 
Q 16.5 49.359375 19.40625 46.890625 
Q 22.3125 44.4375 30.421875 42.921875 
L 36.375 41.703125 
Q 47.40625 39.59375 52.65625 34.296875 
Q 57.90625 29 57.90625 20.125 
Q 57.90625 9.515625 50.796875 4.046875 
Q 43.703125 -1.421875 29.984375 -1.421875 
Q 24.8125 -1.421875 18.96875 -0.25 
Q 13.140625 0.921875 6.890625 3.21875 
L 6.890625 13.375 
Q 12.890625 10.015625 18.65625 8.296875 
Q 24.421875 6.59375 29.984375 6.59375 
Q 38.421875 6.59375 43.015625 9.90625 
Q 47.609375 13.234375 47.609375 19.390625 
Q 47.609375 24.75 44.3125 27.78125 
Q 41.015625 30.8125 33.5 32.328125 
L 27.484375 33.5 
Q 16.453125 35.6875 11.515625 40.375 
Q 6.59375 45.0625 6.59375 53.421875 
Q 6.59375 63.09375 13.40625 68.65625 
Q 20.21875 74.21875 32.171875 74.21875 
Q 37.3125 74.21875 42.625 73.28125 
Q 47.953125 72.359375 53.515625 70.515625 
" id="DejaVuSans-53"/>
      <path d="M 45.40625 46.390625 
L 45.40625 75.984375 
L 54.390625 75.984375 
L 54.390625 0 
L 45.40625 0 
L 45.40625 8.203125 
Q 42.578125 3.328125 38.25 0.953125 
Q 33.9375 -1.421875 27.875 -1.421875 
Q 17.96875 -1.421875 11.734375 6.484375 
Q 5.515625 14.40625 5.515625 27.296875 
Q 5.515625 40.1875 11.734375 48.09375 
Q 17.96875 56 27.875 56 
Q 33.9375 56 38.25 53.625 
Q 42.578125 51.265625 45.40625 46.390625 
M 14.796875 27.296875 
Q 14.796875 17.390625 18.875 11.75 
Q 22.953125 6.109375 30.078125 6.109375 
Q 37.203125 6.109375 41.296875 11.75 
Q 45.40625 17.390625 45.40625 27.296875 
Q 45.40625 37.203125 41.296875 42.84375 
Q 37.203125 48.484375 30.078125 48.484375 
Q 22.953125 48.484375 18.875 42.84375 
Q 14.796875 37.203125 14.796875 27.296875 
" id="DejaVuSans-64"/>
      <path d="M 4.203125 54.6875 
L 13.1875 54.6875 
L 24.421875 12.015625 
L 35.59375 54.6875 
L 46.1875 54.6875 
L 57.421875 12.015625 
L 68.609375 54.6875 
L 77.59375 54.6875 
L 63.28125 0 
L 52.6875 0 
L 40.921875 44.828125 
L 29.109375 0 
L 18.5 0 
z
" id="DejaVuSans-77"/>
      <path d="M 34.28125 27.484375 
Q 23.390625 27.484375 19.1875 25 
Q 14.984375 22.515625 14.984375 16.5 
Q 14.984375 11.71875 18.140625 8.90625 
Q 21.296875 6.109375 26.703125 6.109375 
Q 34.1875 6.109375 38.703125 11.40625 
Q 43.21875 16.703125 43.21875 25.484375 
L 43.21875 27.484375 
z
M 52.203125 31.203125 
L 52.203125 0 
L 43.21875 0 
L 43.21875 8.296875 
Q 40.140625 3.328125 35.546875 0.953125 
Q 30.953125 -1.421875 24.3125 -1.421875 
Q 15.921875 -1.421875 10.953125 3.296875 
Q 6 8.015625 6 15.921875 
Q 6 25.140625 12.171875 29.828125 
Q 18.359375 34.515625 30.609375 34.515625 
L 43.21875 34.515625 
L 43.21875 35.40625 
Q 43.21875 41.609375 39.140625 45 
Q 35.0625 48.390625 27.6875 48.390625 
Q 23 48.390625 18.546875 47.265625 
Q 14.109375 46.140625 10.015625 43.890625 
L 10.015625 52.203125 
Q 14.9375 54.109375 19.578125 55.046875 
Q 24.21875 56 28.609375 56 
Q 40.484375 56 46.34375 49.84375 
Q 52.203125 43.703125 52.203125 31.203125 
" id="DejaVuSans-61"/>
      <path d="M 14.796875 27.296875 
Q 14.796875 17.390625 18.875 11.75 
Q 22.953125 6.109375 30.078125 6.109375 
Q 37.203125 6.109375 41.296875 11.75 
Q 45.40625 17.390625 45.40625 27.296875 
Q 45.40625 37.203125 41.296875 42.84375 
Q 37.203125 48.484375 30.078125 48.484375 
Q 22.953125 48.484375 18.875 42.84375 
Q 14.796875 37.203125 14.796875 27.296875 
M 45.40625 8.203125 
Q 42.578125 3.328125 38.25 0.953125 
Q 33.9375 -1.421875 27.875 -1.421875 
Q 17.96875 -1.421875 11.734375 6.484375 
Q 5.515625 14.40625 5.515625 27.296875 
Q 5.515625 40.1875 11.734375 48.09375 
Q 17.96875 56 27.875 56 
Q 33.9375 56 38.25 53.625 
Q 42.578125 51.265625 45.40625 46.390625 
L 45.40625 54.6875 
L 54.390625 54.6875 
L 54.390625 -20.796875 
L 45.40625 -20.796875 
z
" id="DejaVuSans-71"/>
      <path d="M 18.109375 8.203125 
L 18.109375 -20.796875 
L 9.078125 -20.796875 
L 9.078125 54.6875 
L 18.109375 54.6875 
L 18.109375 46.390625 
Q 20.953125 51.265625 25.265625 53.625 
Q 29.59375 56 35.59375 56 
Q 45.5625 56 51.78125 48.09375 
Q 58.015625 40.1875 58.015625 27.296875 
Q 58.015625 14.40625 51.78125 6.484375 
Q 45.5625 -1.421875 35.59375 -1.421875 
Q 29.59375 -1.421875 25.265625 0.953125 
Q 20.953125 3.328125 18.109375 8.203125 
M 48.6875 27.296875 
Q 48.6875 37.203125 44.609375 42.84375 
Q 40.53125 48.484375 33.40625 48.484375 
Q 26.265625 48.484375 22.1875 42.84375 
Q 18.109375 37.203125 18.109375 27.296875 
Q 18.109375 17.390625 22.1875 11.75 
Q 26.265625 6.109375 33.40625 6.109375 
Q 40.53125 6.109375 44.609375 11.75 
Q 48.6875 17.390625 48.6875 27.296875 
" id="DejaVuSans-70"/>
     </defs>
     <g transform="translate(25.432812 279.366281)rotate(-90)scale(0.1 -0.1)">
      <use xlink:href="#DejaVuSans-53"/>
      <use x="63.476562" xlink:href="#DejaVuSans-75"/>
      <use x="126.855469" xlink:href="#DejaVuSans-63"/>
      <use x="181.835938" xlink:href="#DejaVuSans-63"/>
      <use x="236.816406" xlink:href="#DejaVuSans-65"/>
      <use x="298.339844" xlink:href="#DejaVuSans-73"/>
      <use x="350.439453" xlink:href="#DejaVuSans-73"/>
      <use x="402.539062" xlink:href="#DejaVuSans-66"/>
      <use x="437.744141" xlink:href="#DejaVuSans-75"/>
      <use x="501.123047" xlink:href="#DejaVuSans-6c"/>
      <use x="528.90625" xlink:href="#DejaVuSans-20"/>
      <use x="560.693359" xlink:href="#DejaVuSans-64"/>
      <use x="624.169922" xlink:href="#DejaVuSans-6f"/>
      <use x="685.351562" xlink:href="#DejaVuSans-77"/>
      <use x="767.138672" xlink:href="#DejaVuSans-6e"/>
      <use x="830.517578" xlink:href="#DejaVuSans-6c"/>
      <use x="858.300781" xlink:href="#DejaVuSans-6f"/>
      <use x="919.482422" xlink:href="#DejaVuSans-61"/>
      <use x="980.761719" xlink:href="#DejaVuSans-64"/>
      <use x="1044.238281" xlink:href="#DejaVuSans-20"/>
      <use x="1076.025391" xlink:href="#DejaVuSans-72"/>
      <use x="1117.107422" xlink:href="#DejaVuSans-65"/>
      <use x="1178.630859" xlink:href="#DejaVuSans-71"/>
      <use x="1242.107422" xlink:href="#DejaVuSans-75"/>
      <use x="1305.486328" xlink:href="#DejaVuSans-65"/>
      <use x="1367.009766" xlink:href="#DejaVuSans-73"/>
      <use x="1419.109375" xlink:href="#DejaVuSans-74"/>
      <use x="1458.318359" xlink:href="#DejaVuSans-73"/>
      <use x="1510.417969" xlink:href="#DejaVuSans-20"/>
      <use x="1542.205078" xlink:href="#DejaVuSans-70"/>
      <use x="1605.681641" xlink:href="#DejaVuSans-65"/>
      <use x="1667.205078" xlink:href="#DejaVuSans-72"/>
      <use x="1708.318359" xlink:href="#DejaVuSans-20"/>
      <use x="1740.105469" xlink:href="#DejaVuSans-73"/>
      <use x="1792.205078" xlink:href="#DejaVuSans-65"/>
      <use x="1853.728516" xlink:href="#DejaVuSans-63"/>
      <use x="1908.708984" xlink:href="#DejaVuSans-6f"/>
      <use x="1969.890625" xlink:href="#DejaVuSans-6e"/>
      <use x="2033.269531" xlink:href="#DejaVuSans-64"/>
     </g>
    </g>
   </g>
   <g id="line2d_29">
    <path clip-path="url(#p037f661588)" d="M 57.6 295.488 
L 57.95712 295.474096 
L 61.52832 281.738564 
L 61.88544 281.185194 
L 62.24256 279.219201 
L 62.59968 278.309895 
L 62.9568 276.192351 
L 63.31392 275.707109 
L 63.67104 273.287854 
L 64.02816 272.172772 
L 64.38528 270.491806 
L 64.7424 270.461218 
L 65.09952 268.300572 
L 65.45664 267.052014 
L 65.81376 266.329018 
L 66.17088 265.005379 
L 66.528 264.221207 
L 67.24224 259.275636 
L 67.59936 258.410822 
L 67.95648 258.481731 
L 68.3136 256.935632 
L 68.67072 256.663119 
L 69.02784 255.336699 
L 69.38496 251.332414 
L 69.74208 250.994552 
L 70.0992 248.348665 
L 70.45632 248.274975 
L 70.81344 245.460853 
L 71.17056 246.07818 
L 71.52768 242.712078 
L 71.8848 243.820208 
L 72.24192 240.559775 
L 72.59904 239.008114 
L 72.95616 238.097417 
L 73.31328 238.572926 
L 73.6704 235.676771 
L 74.02752 236.324687 
L 74.38464 231.46393 
L 74.74176 230.914731 
L 75.09888 232.841793 
L 75.456 232.004786 
L 75.81312 230.311307 
L 76.17024 224.599639 
L 76.52736 224.468944 
L 76.88448 224.67611 
L 77.2416 222.863059 
L 77.59872 223.86274 
L 77.95584 221.177922 
L 78.31296 219.801449 
L 78.67008 215.837485 
L 79.0272 218.804549 
L 79.38432 215.799945 
L 79.74144 217.227862 
L 80.09856 213.575342 
L 80.45568 216.659197 
L 80.8128 215.453741 
L 81.16992 211.13245 
L 81.52704 213.793631 
L 81.88416 210.847423 
L 82.24128 211.442504 
L 82.5984 213.519727 
L 82.95552 208.946777 
L 83.31264 211.09491 
L 83.66976 207.753834 
L 84.02688 206.291158 
L 84.384 209.881111 
L 84.74112 206.887629 
L 85.09824 205.217787 
L 85.45536 205.277573 
L 85.81248 204.200031 
L 86.1696 205.500033 
L 86.52672 203.958106 
L 86.88384 204.599069 
L 87.24096 204.098534 
L 87.59808 201.143983 
L 87.9552 205.26506 
L 88.31232 204.558748 
L 88.66944 204.480887 
L 89.02656 198.911038 
L 89.38368 202.873612 
L 89.7408 199.321199 
L 90.09792 199.016706 
L 90.45504 197.476169 
L 90.81216 198.349326 
L 91.16928 201.847514 
L 91.5264 196.650285 
L 91.88352 199.340664 
L 92.24064 198.097667 
L 92.59776 200.629543 
L 92.95488 195.296058 
L 93.312 192.814236 
L 93.66912 196.614135 
L 94.02624 196.301301 
L 94.38336 193.108995 
L 95.0976 192.305358 
L 95.45472 194.358944 
L 95.81184 193.444076 
L 96.16896 190.439472 
L 96.52608 195.428144 
L 96.8832 195.763225 
L 97.59744 188.5138 
L 97.95456 191.703324 
L 98.31168 189.449524 
L 98.6688 190.368563 
L 99.02592 187.940965 
L 99.38304 186.654866 
L 99.74016 191.090168 
L 100.09728 191.868779 
L 100.4544 185.328447 
L 100.81152 187.177648 
L 101.16864 184.310691 
L 101.52576 186.760535 
L 101.88288 190.336584 
L 102.24 182.24042 
L 102.59712 183.224807 
L 102.95424 189.003213 
L 103.31136 185.923528 
L 103.66848 184.626307 
L 104.0256 182.118067 
L 104.38272 185.702458 
L 104.73984 187.204065 
L 105.09696 179.725228 
L 105.45408 180.085336 
L 105.8112 179.299773 
L 106.16832 182.877213 
L 106.52544 183.304058 
L 107.23968 179.353998 
L 107.5968 181.923414 
L 107.95392 179.540308 
L 108.31104 180.583091 
L 108.66816 180.872289 
L 109.3824 182.884165 
L 109.73952 179.416565 
L 110.09664 182.020741 
L 110.81088 180.695711 
L 111.168 175.690355 
L 111.52512 179.837849 
L 111.88224 179.683517 
L 112.23936 178.389076 
L 112.59648 179.523624 
L 112.9536 175.024365 
L 113.31072 178.177739 
L 113.66784 172.748318 
L 114.02496 173.689603 
L 114.38208 175.569392 
L 114.7392 171.042325 
L 115.09632 175.472066 
L 115.45344 176.602442 
L 116.16768 169.099969 
L 116.5248 168.84414 
L 116.88192 175.125862 
L 117.23904 173.479656 
L 117.59616 174.71153 
L 117.95328 174.797733 
L 118.3104 172.069814 
L 118.66752 171.268957 
L 119.02464 173.992705 
L 119.73888 171.932167 
L 120.096 169.418365 
L 120.45312 168.642535 
L 120.81024 169.690879 
L 121.16736 169.781254 
L 121.52448 169.259862 
L 121.8816 165.259748 
L 122.23872 168.161465 
L 122.59584 169.017937 
L 122.95296 169.419756 
L 123.31008 162.841883 
L 123.6672 168.443711 
L 124.02432 169.562964 
L 124.38144 169.21259 
L 124.73856 163.004557 
L 125.4528 168.820503 
L 125.80992 166.591729 
L 126.16704 162.745947 
L 126.52416 167.071409 
L 127.2384 160.13621 
L 127.59552 162.05632 
L 127.95264 162.149475 
L 128.30976 160.887013 
L 128.66688 163.886056 
L 129.024 158.752785 
L 129.38112 166.055044 
L 129.73824 157.313745 
L 130.09536 163.225627 
L 130.45248 160.168189 
L 130.8096 158.573426 
L 131.16672 157.646045 
L 131.52384 162.231508 
L 131.88096 159.62038 
L 132.23808 164.072367 
L 132.5952 160.337814 
L 132.95232 158.239736 
L 133.30944 154.781869 
L 133.66656 162.889156 
L 134.02368 157.091285 
L 134.3808 159.737172 
L 134.73792 155.381121 
L 135.09504 156.116631 
L 135.45216 154.651173 
L 135.80928 158.783373 
L 136.1664 153.378979 
L 136.52352 157.091285 
L 136.88064 153.473524 
L 137.23776 157.975564 
L 137.59488 156.987006 
L 137.952 157.292889 
L 138.30912 152.654592 
L 138.66624 153.765503 
L 139.02336 151.764751 
L 139.38048 156.896632 
L 139.7376 151.368494 
L 140.09472 154.499622 
L 140.45184 155.084971 
L 140.80896 150.574589 
L 141.16608 149.448383 
L 141.5232 156.29738 
L 141.88032 153.195449 
L 142.23744 148.554371 
L 142.59456 157.454173 
L 142.95168 157.861553 
L 143.3088 156.640803 
L 143.66592 150.619081 
L 144.02304 155.860801 
L 144.38016 149.421966 
L 145.0944 156.657487 
L 145.45152 147.10977 
L 145.80864 149.9517 
L 146.16576 150.746995 
L 146.52288 155.135025 
L 146.88 149.32325 
L 147.23712 147.902284 
L 147.59424 151.563147 
L 147.95136 146.086452 
L 148.30848 144.936611 
L 148.6656 151.397692 
L 149.02272 154.288285 
L 149.73696 147.671482 
L 150.09408 153.374808 
L 150.4512 153.160689 
L 150.80832 146.073939 
L 151.16544 146.52164 
L 151.52256 143.644951 
L 151.87968 151.64935 
L 152.2368 144.794792 
L 152.59392 149.679186 
L 152.95104 150.076834 
L 153.30816 146.623138 
L 153.66528 140.668154 
L 154.0224 143.401635 
L 154.37952 150.792878 
L 154.73664 149.839079 
L 155.09376 141.659493 
L 155.808 144.091262 
L 156.16512 141.482915 
L 156.52224 149.128597 
L 156.87936 143.233399 
L 157.5936 149.095228 
L 157.95072 138.754996 
L 158.30784 140.632004 
L 158.66496 148.604425 
L 159.02208 142.75511 
L 159.3792 144.404096 
L 159.73632 143.361314 
L 160.09344 146.552229 
L 160.45056 143.131902 
L 160.80768 145.289766 
L 161.1648 141.72484 
L 161.52192 139.797778 
L 161.87904 144.060673 
L 162.23616 136.768147 
L 162.9504 144.961638 
L 163.30752 144.109337 
L 163.66464 141.72206 
L 164.02176 143.297357 
L 164.37888 142.817677 
L 164.736 134.678411 
L 165.09312 138.126545 
L 165.45024 138.681306 
L 165.80736 141.880563 
L 166.16448 138.938525 
L 166.5216 137.468897 
L 166.87872 139.845051 
L 167.23584 141.249332 
L 167.59296 143.522598 
L 167.95008 137.168576 
L 168.3072 135.772637 
L 168.66432 142.995645 
L 169.02144 137.938844 
L 169.37856 141.072754 
L 169.73568 134.831352 
L 170.0928 133.639799 
L 170.44992 137.374351 
L 170.80704 139.209649 
L 171.16416 133.977661 
L 171.52128 139.700452 
L 172.23552 132.035305 
L 172.59264 140.412325 
L 172.94976 133.667607 
L 173.30688 131.83509 
L 173.664 140.643127 
L 174.02112 132.549744 
L 174.37824 131.137121 
L 174.73536 131.572309 
L 175.09248 130.864607 
L 175.4496 138.037561 
L 175.80672 128.774871 
L 176.16384 136.921089 
L 176.52096 130.885463 
L 176.87808 129.787065 
L 177.2352 133.663436 
L 177.59232 133.673168 
L 177.94944 134.814668 
L 178.30656 127.054975 
L 178.66368 127.989308 
L 179.0208 129.812092 
L 179.37792 130.251451 
L 180.09216 136.661088 
L 180.44928 126.710161 
L 180.8064 133.926217 
L 181.16352 127.102248 
L 181.52064 134.034666 
L 181.87776 126.197112 
L 182.23488 128.029629 
L 182.592 135.290177 
L 182.94912 126.247166 
L 183.30624 132.407926 
L 183.66336 127.390056 
L 184.02048 133.991565 
L 184.3776 127.716794 
L 184.73472 134.419801 
L 185.09184 129.994231 
L 185.44896 133.292205 
L 185.80608 132.538621 
L 186.1632 123.182776 
L 186.52032 123.542883 
L 187.59168 133.870602 
L 187.9488 124.557858 
L 188.30592 124.912404 
L 188.66304 133.169852 
L 189.02016 126.044171 
L 189.7344 132.100652 
L 190.09152 131.753058 
L 190.44864 125.625668 
L 190.80576 122.737855 
L 191.16288 132.281401 
L 191.52 126.596151 
L 191.87712 124.075397 
L 192.23424 125.383742 
L 192.59136 129.540969 
L 192.94848 130.423858 
L 193.3056 127.526313 
L 193.66272 129.867707 
L 194.01984 124.210264 
L 194.37696 128.824925 
L 194.73408 127.954549 
L 195.0912 126.393156 
L 195.44832 130.450275 
L 195.80544 124.017002 
L 196.16256 125.811978 
L 196.51968 122.576571 
L 196.8768 128.381394 
L 197.23392 125.860641 
L 197.59104 120.164268 
L 197.94816 124.977752 
L 198.30528 124.605131 
L 198.6624 127.766848 
L 199.01952 119.273036 
L 199.73376 121.202879 
L 200.09088 116.140517 
L 200.448 120.059989 
L 200.80512 117.083193 
L 201.16224 116.539555 
L 201.51936 122.799032 
L 201.87648 121.675607 
L 202.2336 121.315499 
L 202.59072 127.100857 
L 202.94784 117.839558 
L 203.30496 122.943631 
L 203.66208 124.246414 
L 204.0192 118.504158 
L 204.37632 118.208007 
L 204.73344 118.84619 
L 205.09056 125.475507 
L 205.8048 115.040729 
L 206.16192 120.787156 
L 206.51904 124.741388 
L 206.87616 114.544365 
L 207.23328 116.425544 
L 207.5904 120.182342 
L 207.94752 118.597313 
L 208.30464 121.884164 
L 208.66176 120.546621 
L 209.01888 113.23741 
L 209.376 120.831648 
L 209.73312 111.851205 
L 210.09024 117.14854 
L 210.44736 114.413669 
L 211.1616 120.121166 
L 211.51872 111.040615 
L 211.87584 118.95603 
L 212.23296 119.057528 
L 212.59008 113.297197 
L 212.9472 122.397213 
L 213.30432 113.127571 
L 213.66144 118.265013 
L 214.01856 112.186285 
L 214.7328 121.044376 
L 215.08992 119.064479 
L 215.44704 120.827477 
L 215.80416 109.297083 
L 216.16128 109.146922 
L 216.5184 114.213455 
L 216.87552 112.710458 
L 217.23264 109.634944 
L 217.58976 113.845005 
L 217.94688 114.082759 
L 218.304 114.467894 
L 218.66112 115.371639 
L 219.37536 108.393338 
L 219.73248 119.866727 
L 220.0896 116.03902 
L 220.44672 107.062747 
L 220.80384 107.834406 
L 221.16096 114.288535 
L 221.51808 117.024797 
L 221.8752 117.633782 
L 222.58944 109.65858 
L 222.94656 108.593552 
L 223.30368 109.359649 
L 223.6608 118.221911 
L 224.01792 116.132175 
L 224.37504 116.344902 
L 224.73216 118.018916 
L 225.08928 117.657418 
L 225.4464 112.407355 
L 225.80352 112.471313 
L 226.16064 117.807579 
L 226.51776 113.704577 
L 226.87488 115.158911 
L 227.232 109.013446 
L 227.58912 105.178786 
L 227.94624 112.326714 
L 228.30336 104.924348 
L 228.66048 106.501035 
L 229.0176 112.368425 
L 229.37472 107.834406 
L 229.73184 107.860823 
L 230.08896 116.428325 
L 230.44608 112.567249 
L 230.8032 112.216874 
L 231.16032 115.848538 
L 231.51744 108.471199 
L 231.87456 109.370772 
L 232.23168 111.306177 
L 232.5888 111.256123 
L 232.94592 107.866385 
L 233.30304 112.739655 
L 233.66016 103.038997 
L 234.01728 104.514186 
L 234.73152 106.07836 
L 235.08864 114.118909 
L 235.44576 108.909167 
L 235.80288 112.05559 
L 236.16 111.446605 
L 236.87424 106.229911 
L 237.23136 108.298792 
L 237.58848 109.516762 
L 237.9456 113.298587 
L 238.30272 111.382648 
L 238.65984 107.863604 
L 239.01696 109.487564 
L 239.37408 102.16723 
L 239.7312 110.270346 
L 240.08832 101.930866 
L 240.44544 103.294826 
L 240.80256 108.300182 
L 241.15968 109.101039 
L 241.5168 103.693864 
L 241.87392 101.470652 
L 242.23104 107.308844 
L 242.58816 103.211403 
L 242.94528 102.303487 
L 243.3024 104.678251 
L 243.65952 100.961774 
L 244.01664 101.654181 
L 244.37376 106.653976 
L 244.73088 100.365302 
L 245.088 109.391628 
L 245.80224 100.945089 
L 246.15936 101.740385 
L 246.51648 110.427459 
L 246.8736 103.713329 
L 247.23072 103.000066 
L 247.58784 98.306154 
L 247.94496 109.974196 
L 248.6592 103.920495 
L 249.01632 109.475051 
L 249.37344 103.759212 
L 249.73056 107.928952 
L 250.08768 108.836868 
L 250.4448 107.561892 
L 250.80192 102.381348 
L 251.15904 107.253229 
L 251.51616 107.99569 
L 251.87328 95.828503 
L 252.2304 108.465637 
L 252.58752 95.067966 
L 253.65888 104.511406 
L 254.016 94.723153 
L 254.37312 96.045401 
L 254.73024 103.998357 
L 255.08736 99.789686 
L 255.44448 104.984134 
L 255.8016 107.867775 
L 256.15872 106.855581 
L 256.51584 102.140813 
L 256.87296 94.029355 
L 257.23008 98.582839 
L 257.5872 96.965831 
L 257.94432 100.127548 
L 258.30144 96.181658 
L 258.65856 98.090646 
L 259.01568 104.49055 
L 259.3728 100.928405 
L 259.72992 104.991086 
L 260.44416 97.409361 
L 260.80128 95.957808 
L 261.1584 101.708406 
L 261.51552 103.53119 
L 261.87264 98.129576 
L 262.22976 105.516648 
L 262.58688 92.747428 
L 262.944 100.572468 
L 263.30112 94.725934 
L 263.65824 100.587762 
L 264.01536 100.646158 
L 264.37248 102.624664 
L 264.7296 102.236749 
L 265.08672 99.467119 
L 265.44384 101.000704 
L 265.80096 91.778335 
L 266.15808 91.009457 
L 266.5152 96.3346 
L 266.87232 103.60627 
L 267.22944 102.815146 
L 267.58656 98.934604 
L 267.94368 98.472999 
L 268.3008 91.001114 
L 268.65792 94.965079 
L 269.01504 96.769788 
L 269.37216 102.400814 
L 269.72928 91.044216 
L 270.0864 93.302188 
L 270.44352 99.290541 
L 270.80064 92.519406 
L 271.15776 100.338885 
L 271.51488 93.692884 
L 271.872 102.076856 
L 272.22912 97.483051 
L 272.58624 97.519201 
L 272.94336 89.571807 
L 273.30048 97.387115 
L 273.6576 87.99651 
L 274.01472 94.369997 
L 274.72896 101.084127 
L 275.08608 100.316639 
L 275.80032 88.719506 
L 276.15744 96.322086 
L 276.51456 88.288489 
L 276.87168 94.471495 
L 277.2288 93.86251 
L 277.58592 90.17384 
L 277.94304 87.867205 
L 278.30016 92.399833 
L 278.65728 86.183459 
L 279.0144 88.535976 
L 279.37152 94.625827 
L 279.72864 89.111592 
L 280.08576 89.577368 
L 280.44288 99.568616 
L 280.8 97.882089 
L 281.15712 99.316958 
L 281.51424 97.3315 
L 281.87136 96.691927 
L 282.5856 91.452987 
L 282.94272 93.869462 
L 283.29984 93.317482 
L 283.65696 97.460805 
L 284.01408 84.660996 
L 284.3712 92.672347 
L 284.72832 97.865405 
L 285.08544 91.180473 
L 285.44256 87.990949 
L 285.79968 98.361769 
L 286.1568 84.316183 
L 286.51392 85.429875 
L 286.87104 96.51952 
L 287.58528 85.001638 
L 287.9424 91.173521 
L 288.29952 88.196724 
L 288.65664 83.960246 
L 289.01376 95.503154 
L 289.37088 85.977683 
L 289.728 90.307316 
L 290.08512 86.304422 
L 290.44224 89.830417 
L 290.79936 95.987005 
L 291.15648 87.053835 
L 291.5136 88.287099 
L 291.87072 86.88977 
L 292.22784 87.041321 
L 292.58496 85.973512 
L 292.94208 85.311692 
L 293.2992 84.032546 
L 293.65632 86.971802 
L 294.01344 88.120254 
L 294.37056 95.169464 
L 294.72768 82.148585 
L 295.0848 95.122191 
L 295.44192 83.555647 
L 295.79904 86.066667 
L 296.15616 89.39662 
L 296.51328 88.024318 
L 296.8704 80.672005 
L 297.22752 88.866886 
L 297.58464 85.326987 
L 297.94176 89.165817 
L 298.29888 88.020146 
L 298.656 80.438422 
L 299.01312 91.675447 
L 299.37024 90.133519 
L 299.72736 82.785378 
L 300.08448 92.886465 
L 300.4416 82.20142 
L 300.79872 92.38732 
L 301.15584 92.762722 
L 301.51296 82.077676 
L 301.87008 92.994915 
L 302.2272 88.65972 
L 302.58432 87.402819 
L 302.94144 80.039384 
L 303.29856 91.130419 
L 303.65568 79.865587 
L 304.0128 90.080685 
L 304.36992 82.46142 
L 304.72704 81.642488 
L 305.08416 78.312536 
L 305.44128 93.12561 
L 305.7984 84.206343 
L 306.15552 88.170307 
L 306.51264 81.985911 
L 306.86976 83.651583 
L 307.22688 77.951038 
L 307.584 78.003872 
L 307.94112 81.221204 
L 308.29824 79.017457 
L 308.65536 81.531258 
L 309.01248 85.52442 
L 309.3696 83.812866 
L 309.72672 83.053721 
L 310.08384 89.087956 
L 310.44096 91.073414 
L 310.79808 83.394363 
L 311.1552 85.11843 
L 311.51232 83.835112 
L 311.86944 84.263348 
L 312.22656 79.95179 
L 312.58368 86.653406 
L 312.9408 88.538757 
L 313.29792 77.571465 
L 313.65504 87.593301 
L 314.01216 88.76956 
L 314.36928 75.637451 
L 314.7264 77.228042 
L 315.08352 83.671048 
L 315.44064 83.593187 
L 315.79776 84.181316 
L 316.15488 75.209215 
L 316.512 84.38153 
L 316.86912 75.729216 
L 317.22624 90.194696 
L 317.58336 84.553937 
L 317.94048 86.841107 
L 318.2976 86.920358 
L 318.65472 75.712531 
L 319.01184 79.338634 
L 319.36896 84.106236 
L 319.72608 82.845164 
L 320.0832 83.657144 
L 320.44032 75.794563 
L 320.79744 85.876185 
L 321.15456 88.705602 
L 321.51168 80.758209 
L 321.8688 86.385063 
L 322.22592 74.020443 
L 322.58304 87.800467 
L 322.94016 80.684519 
L 323.29728 85.352013 
L 323.6544 87.423675 
L 324.01152 77.118202 
L 324.36864 85.19212 
L 324.72576 85.055863 
L 325.08288 79.866977 
L 325.44 87.341643 
L 325.79712 77.941305 
L 326.15424 73.71734 
L 326.51136 82.001205 
L 326.86848 72.744077 
L 327.2256 80.798529 
L 327.58272 85.224099 
L 328.29696 72.101723 
L 328.65408 75.820981 
L 329.0112 83.074576 
L 329.36832 83.459711 
L 329.72544 80.106122 
L 330.08256 74.429213 
L 330.43968 80.495427 
L 330.7968 77.720235 
L 331.15392 77.157133 
L 331.51104 85.571693 
L 331.86816 71.378727 
L 332.22528 75.431675 
L 332.5824 72.254664 
L 332.93952 78.448793 
L 333.65376 84.054792 
L 334.01088 80.940348 
L 334.368 70.957443 
L 334.72512 80.036603 
L 335.08224 85.313083 
L 335.43936 76.829004 
L 335.79648 73.579693 
L 336.51072 75.545686 
L 336.86784 79.146762 
L 337.22496 80.98484 
L 337.58208 81.678638 
L 337.9392 84.220247 
L 338.29632 81.332434 
L 338.65344 76.099056 
L 339.01056 76.203334 
L 339.36768 73.64365 
L 339.7248 81.374145 
L 340.08192 82.597677 
L 340.43904 73.71456 
L 340.79616 76.502265 
L 341.15328 73.93841 
L 341.5104 81.140562 
L 341.86752 83.664096 
L 342.22464 68.461716 
L 342.58176 76.598201 
L 342.93888 68.716155 
L 343.296 80.126977 
L 343.65312 73.024933 
L 344.01024 75.534563 
L 344.36736 81.478424 
L 344.72448 68.080753 
L 345.0816 77.283657 
L 345.43872 75.256488 
L 345.79584 80.937567 
L 346.15296 69.02899 
L 346.51008 83.053721 
L 346.8672 70.445784 
L 347.22432 73.785469 
L 347.58144 71.705465 
L 348.29568 76.702479 
L 348.6528 74.669749 
L 349.00992 74.520978 
L 349.36704 78.065049 
L 349.72416 74.93392 
L 350.08128 69.622681 
L 350.4384 71.780546 
L 350.79552 77.927401 
L 351.15264 66.070268 
L 351.50976 66.565242 
L 351.86688 77.793925 
L 352.224 68.785674 
L 352.58112 71.305037 
L 352.93824 79.976817 
L 353.29536 73.305789 
L 353.65248 71.425999 
L 354.0096 71.114555 
L 354.36672 65.63508 
L 354.72384 65.580855 
L 355.08096 72.632847 
L 355.43808 76.054564 
L 355.7952 73.71595 
L 356.15232 77.336491 
L 356.86656 65.736578 
L 357.22368 67.374442 
L 357.5808 70.558404 
L 357.93792 75.111888 
L 358.29504 67.154762 
L 358.65216 72.475734 
L 359.00928 64.838394 
L 359.3664 71.384288 
L 359.72352 72.623114 
L 360.08064 70.06343 
L 360.43776 76.211676 
L 360.79488 77.045902 
L 361.152 76.55788 
L 361.50912 74.60162 
L 361.86624 75.762585 
L 362.22336 79.572217 
L 362.58048 66.77936 
L 362.9376 67.089414 
L 363.29472 78.847831 
L 363.65184 68.201716 
L 364.00896 64.322564 
L 364.36608 77.337882 
L 365.08032 68.564604 
L 365.43744 75.515098 
L 365.79456 68.927492 
L 366.15168 75.52205 
L 366.5088 72.57306 
L 367.22304 76.503656 
L 367.58016 75.506755 
L 367.93728 66.014653 
L 368.2944 69.466959 
L 368.65152 74.682262 
L 369.00864 66.577756 
L 369.36576 76.156061 
L 369.72288 75.437237 
L 370.08 66.04107 
L 370.43712 66.850269 
L 370.79424 75.157771 
L 371.15136 64.597859 
L 371.50848 67.353586 
L 371.8656 62.75561 
L 372.22272 63.352081 
L 372.57984 66.918398 
L 372.93696 75.061835 
L 373.29408 67.801287 
L 373.6512 71.175732 
L 374.00832 75.693066 
L 374.36544 65.466845 
L 374.72256 75.459483 
L 375.07968 61.139992 
L 375.4368 74.978412 
L 375.79392 62.669406 
L 376.15104 75.971141 
L 376.50816 72.863649 
L 376.86528 63.607911 
L 377.2224 67.756795 
L 377.57952 68.059897 
L 377.93664 68.813482 
L 378.29376 74.511246 
L 378.65088 75.565151 
L 379.008 74.429213 
L 379.36512 64.553367 
L 379.72224 61.568228 
L 380.07936 74.771246 
L 380.43648 62.957214 
L 380.7936 66.937863 
L 381.15072 62.53593 
L 381.50784 70.380436 
L 381.86496 72.653702 
L 382.22208 72.363113 
L 382.5792 65.623957 
L 382.93632 73.397554 
L 383.29344 70.573699 
L 383.65056 65.345882 
L 384.00768 62.16609 
L 384.3648 67.179789 
L 384.72192 60.943949 
L 385.07904 73.191778 
L 385.43616 62.494219 
L 385.79328 70.488886 
L 386.1504 60.720098 
L 386.50752 72.029423 
L 386.86464 64.145987 
L 387.22176 61.995074 
L 387.57888 73.802153 
L 387.936 68.824605 
L 388.29312 73.290495 
L 388.65024 68.710594 
L 389.00736 58.448223 
L 389.36448 69.234766 
L 389.7216 58.362019 
L 390.07872 65.44877 
L 390.43584 65.021924 
L 391.15008 58.912608 
L 391.5072 69.536477 
L 391.86432 60.122236 
L 392.22144 70.736373 
L 392.57856 62.122988 
L 392.93568 67.263211 
L 393.2928 63.909623 
L 393.64992 64.643742 
L 394.00704 64.385131 
L 394.36416 57.525012 
L 395.0784 72.438194 
L 395.79264 58.100628 
L 396.14976 63.169942 
L 396.50688 71.802792 
L 396.864 65.8923 
L 397.22112 63.288124 
L 397.57824 61.881063 
L 397.93536 62.382989 
L 398.29248 61.971437 
L 398.6496 65.718503 
L 399.00672 59.848332 
L 399.36384 58.065869 
L 399.72096 63.778927 
L 400.07808 59.813573 
L 400.4352 69.237546 
L 400.79232 59.684268 
L 401.14944 59.408973 
L 401.50656 64.927378 
L 401.86368 60.076354 
L 402.2208 63.734435 
L 402.57792 64.731335 
L 402.93504 64.031976 
L 403.29216 57.563943 
L 403.64928 68.931664 
L 404.0064 69.728349 
L 404.36352 60.589403 
L 405.43488 68.008453 
L 405.792 61.153896 
L 406.14912 61.983951 
L 406.50624 63.598178 
L 406.86336 54.199231 
L 407.22048 66.148129 
L 407.5776 64.631228 
L 407.93472 69.382146 
L 408.29184 64.781389 
L 409.00608 61.044056 
L 409.3632 65.016362 
L 409.72032 60.544911 
L 410.07744 54.005969 
L 410.79168 68.99284 
L 411.1488 59.171218 
L 411.50592 53.701476 
L 411.86304 54.466183 
L 412.22016 65.679572 
L 412.57728 68.382465 
L 412.9344 53.568 
L 413.29152 54.881906 
L 413.64864 57.430467 
L 414.00576 68.832947 
L 414.36288 59.791327 
L 414.72 66.403959 
L 414.72 66.403959 
" style="fill:none;stroke:#000080;stroke-linecap:square;stroke-width:0.5;"/>
   </g>
   <g id="patch_3">
    <path d="M 57.6 307.584 
L 57.6 41.472 
" style="fill:none;stroke:#000000;stroke-linecap:square;stroke-linejoin:miter;stroke-width:0.8;"/>
   </g>
   <g id="patch_4">
    <path d="M 414.72 307.584 
L 414.72 41.472 
" style="fill:none;stroke:#000000;stroke-linecap:square;stroke-linejoin:miter;stroke-width:0.8;"/>
   </g>
   <g id="patch_5">
    <path d="M 57.6 307.584 
L 414.72 307.584 
" style="fill:none;stroke:#000000;stroke-linecap:square;stroke-linejoin:miter;stroke-width:0.8;"/>
   </g>
   <g id="patch_6">
    <path d="M 57.6 41.472 
L 414.72 41.472 
" style="fill:none;stroke:#000000;stroke-linecap:square;stroke-linejoin:miter;stroke-width:0.8;"/>
   </g>
   <g id="text_17">
    <!-- Test -->
    <defs>
     <path d="M -0.296875 72.90625 
L 61.375 72.90625 
L 61.375 64.59375 
L 35.5 64.59375 
L 35.5 0 
L 25.59375 0 
L 25.59375 64.59375 
L -0.296875 64.59375 
z
" id="DejaVuSans-54"/>
    </defs>
    <g transform="translate(223.341563 35.472)scale(0.12 -0.12)">
     <use xlink:href="#DejaVuSans-54"/>
     <use x="60.818359" xlink:href="#DejaVuSans-65"/>
     <use x="122.341797" xlink:href="#DejaVuSans-73"/>
     <use x="174.441406" xlink:href="#DejaVuSans-74"/>
    </g>
   </g>
   <g id="legend_1">
    <g id="patch_7">
     <path d="M 64.6 64.150125 
L 306.276563 64.150125 
Q 308.276563 64.150125 308.276563 62.150125 
L 308.276563 48.472 
Q 308.276563 46.472 306.276563 46.472 
L 64.6 46.472 
Q 62.6 46.472 62.6 48.472 
L 62.6 62.150125 
Q 62.6 64.150125 64.6 64.150125 
z
" style="fill:#ffffff;opacity:0.8;stroke:#cccccc;stroke-linejoin:miter;"/>
    </g>
    <g id="line2d_30">
     <path d="M 66.6 54.570438 
L 86.6 54.570438 
" style="fill:none;stroke:#000080;stroke-linecap:square;stroke-width:0.5;"/>
    </g>
    <g id="line2d_31"/>
    <g id="text_18">
     <!-- Successful download requests per second -->
     <g transform="translate(94.6 58.070438)scale(0.1 -0.1)">
      <use xlink:href="#DejaVuSans-53"/>
      <use x="63.476562" xlink:href="#DejaVuSans-75"/>
      <use x="126.855469" xlink:href="#DejaVuSans-63"/>
      <use x="181.835938" xlink:href="#DejaVuSans-63"/>
      <use x="236.816406" xlink:href="#DejaVuSans-65"/>
      <use x="298.339844" xlink:href="#DejaVuSans-73"/>
      <use x="350.439453" xlink:href="#DejaVuSans-73"/>
      <use x="402.539062" xlink:href="#DejaVuSans-66"/>
      <use x="437.744141" xlink:href="#DejaVuSans-75"/>
      <use x="501.123047" xlink:href="#DejaVuSans-6c"/>
      <use x="528.90625" xlink:href="#DejaVuSans-20"/>
      <use x="560.693359" xlink:href="#DejaVuSans-64"/>
      <use x="624.169922" xlink:href="#DejaVuSans-6f"/>
      <use x="685.351562" xlink:href="#DejaVuSans-77"/>
      <use x="767.138672" xlink:href="#DejaVuSans-6e"/>
      <use x="830.517578" xlink:href="#DejaVuSans-6c"/>
      <use x="858.300781" xlink:href="#DejaVuSans-6f"/>
      <use x="919.482422" xlink:href="#DejaVuSans-61"/>
      <use x="980.761719" xlink:href="#DejaVuSans-64"/>
      <use x="1044.238281" xlink:href="#DejaVuSans-20"/>
      <use x="1076.025391" xlink:href="#DejaVuSans-72"/>
      <use x="1117.107422" xlink:href="#DejaVuSans-65"/>
      <use x="1178.630859" xlink:href="#DejaVuSans-71"/>
      <use x="1242.107422" xlink:href="#DejaVuSans-75"/>
      <use x="1305.486328" xlink:href="#DejaVuSans-65"/>
      <use x="1367.009766" xlink:href="#DejaVuSans-73"/>
      <use x="1419.109375" xlink:href="#DejaVuSans-74"/>
      <use x="1458.318359" xlink:href="#DejaVuSans-73"/>
      <use x="1510.417969" xlink:href="#DejaVuSans-20"/>
      <use x="1542.205078" xlink:href="#DejaVuSans-70"/>
      <use x="1605.681641" xlink:href="#DejaVuSans-65"/>
      <use x="1667.205078" xlink:href="#DejaVuSans-72"/>
      <use x="1708.318359" xlink:href="#DejaVuSans-20"/>
      <use x="1740.105469" xlink:href="#DejaVuSans-73"/>
      <use x="1792.205078" xlink:href="#DejaVuSans-65"/>
      <use x="1853.728516" xlink:href="#DejaVuSans-63"/>
      <use x="1908.708984" xlink:href="#DejaVuSans-6f"/>
      <use x="1969.890625" xlink:href="#DejaVuSans-6e"/>
      <use x="2033.269531" xlink:href="#DejaVuSans-64"/>
     </g>
    </g>
   </g>
  </g>
 </g>
 <defs>
  <clipPath id="p037f661588">
   <rect height="266.112" width="357.12" x="57.6" y="41.472"/>
  </clipPath>
 </defs>
</svg>
