<?xml version="1.0" encoding="utf-8" standalone="no"?>
<!DOCTYPE svg PUBLIC "-//W3C//DTD SVG 1.1//EN"
  "http://www.w3.org/Graphics/SVG/1.1/DTD/svg11.dtd">
<!-- Created with matplotlib (http://matplotlib.org/) -->
<svg height="345pt" version="1.1" viewBox="0 0 460 345" width="460pt" xmlns="http://www.w3.org/2000/svg" xmlns:xlink="http://www.w3.org/1999/xlink">
 <defs>
  <style type="text/css">
*{stroke-linecap:butt;stroke-linejoin:round;}
  </style>
 </defs>
 <g id="figure_1">
  <g id="patch_1">
   <path d="M 0 345.6 
L 460.8 345.6 
L 460.8 0 
L 0 0 
z
" style="fill:#ffffff;"/>
  </g>
  <g id="axes_1">
   <g id="patch_2">
    <path d="M 57.6 307.584 
L 414.72 307.584 
L 414.72 41.472 
L 57.6 41.472 
z
" style="fill:#ffffff;"/>
   </g>
   <g id="matplotlib.axis_1">
    <g id="xtick_1">
     <g id="line2d_1">
      <path clip-path="url(#pd8cfa0ccec)" d="M 57.6 307.584 
L 57.6 41.472 
" style="fill:none;stroke:#b0b0b0;stroke-linecap:square;stroke-width:0.8;"/>
     </g>
     <g id="line2d_2">
      <defs>
       <path d="M 0 0 
L 0 3.5 
" id="m09779d7d8f" style="stroke:#000000;stroke-width:0.8;"/>
      </defs>
      <g>
       <use style="stroke:#000000;stroke-width:0.8;" x="57.6" xlink:href="#m09779d7d8f" y="307.584"/>
      </g>
     </g>
     <g id="text_1">
      <!-- 0 -->
      <defs>
       <path d="M 31.78125 66.40625 
Q 24.171875 66.40625 20.328125 58.90625 
Q 16.5 51.421875 16.5 36.375 
Q 16.5 21.390625 20.328125 13.890625 
Q 24.171875 6.390625 31.78125 6.390625 
Q 39.453125 6.390625 43.28125 13.890625 
Q 47.125 21.390625 47.125 36.375 
Q 47.125 51.421875 43.28125 58.90625 
Q 39.453125 66.40625 31.78125 66.40625 
M 31.78125 74.21875 
Q 44.046875 74.21875 50.515625 64.515625 
Q 56.984375 54.828125 56.984375 36.375 
Q 56.984375 17.96875 50.515625 8.265625 
Q 44.046875 -1.421875 31.78125 -1.421875 
Q 19.53125 -1.421875 13.0625 8.265625 
Q 6.59375 17.96875 6.59375 36.375 
Q 6.59375 54.828125 13.0625 64.515625 
Q 19.53125 74.21875 31.78125 74.21875 
" id="DejaVuSans-30"/>
      </defs>
      <g transform="translate(54.41875 322.182437)scale(0.1 -0.1)">
       <use xlink:href="#DejaVuSans-30"/>
      </g>
     </g>
    </g>
    <g id="xtick_2">
     <g id="line2d_3">
      <path clip-path="url(#pd8cfa0ccec)" d="M 129.024 307.584 
L 129.024 41.472 
" style="fill:none;stroke:#b0b0b0;stroke-linecap:square;stroke-width:0.8;"/>
     </g>
     <g id="line2d_4">
      <g>
       <use style="stroke:#000000;stroke-width:0.8;" x="129.024" xlink:href="#m09779d7d8f" y="307.584"/>
      </g>
     </g>
     <g id="text_2">
      <!-- 200 -->
      <defs>
       <path d="M 19.1875 8.296875 
L 53.609375 8.296875 
L 53.609375 0 
L 7.328125 0 
L 7.328125 8.296875 
Q 12.9375 14.109375 22.625 23.890625 
Q 32.328125 33.6875 34.8125 36.53125 
Q 39.546875 41.84375 41.421875 45.53125 
Q 43.3125 49.21875 43.3125 52.78125 
Q 43.3125 58.59375 39.234375 62.25 
Q 35.15625 65.921875 28.609375 65.921875 
Q 23.96875 65.921875 18.8125 64.3125 
Q 13.671875 62.703125 7.8125 59.421875 
L 7.8125 69.390625 
Q 13.765625 71.78125 18.9375 73 
Q 24.125 74.21875 28.421875 74.21875 
Q 39.75 74.21875 46.484375 68.546875 
Q 53.21875 62.890625 53.21875 53.421875 
Q 53.21875 48.921875 51.53125 44.890625 
Q 49.859375 40.875 45.40625 35.40625 
Q 44.1875 33.984375 37.640625 27.21875 
Q 31.109375 20.453125 19.1875 8.296875 
" id="DejaVuSans-32"/>
      </defs>
      <g transform="translate(119.48025 322.182437)scale(0.1 -0.1)">
       <use xlink:href="#DejaVuSans-32"/>
       <use x="63.623047" xlink:href="#DejaVuSans-30"/>
       <use x="127.246094" xlink:href="#DejaVuSans-30"/>
      </g>
     </g>
    </g>
    <g id="xtick_3">
     <g id="line2d_5">
      <path clip-path="url(#pd8cfa0ccec)" d="M 200.448 307.584 
L 200.448 41.472 
" style="fill:none;stroke:#b0b0b0;stroke-linecap:square;stroke-width:0.8;"/>
     </g>
     <g id="line2d_6">
      <g>
       <use style="stroke:#000000;stroke-width:0.8;" x="200.448" xlink:href="#m09779d7d8f" y="307.584"/>
      </g>
     </g>
     <g id="text_3">
      <!-- 400 -->
      <defs>
       <path d="M 37.796875 64.3125 
L 12.890625 25.390625 
L 37.796875 25.390625 
z
M 35.203125 72.90625 
L 47.609375 72.90625 
L 47.609375 25.390625 
L 58.015625 25.390625 
L 58.015625 17.1875 
L 47.609375 17.1875 
L 47.609375 0 
L 37.796875 0 
L 37.796875 17.1875 
L 4.890625 17.1875 
L 4.890625 26.703125 
z
" id="DejaVuSans-34"/>
      </defs>
      <g transform="translate(190.90425 322.182437)scale(0.1 -0.1)">
       <use xlink:href="#DejaVuSans-34"/>
       <use x="63.623047" xlink:href="#DejaVuSans-30"/>
       <use x="127.246094" xlink:href="#DejaVuSans-30"/>
      </g>
     </g>
    </g>
    <g id="xtick_4">
     <g id="line2d_7">
      <path clip-path="url(#pd8cfa0ccec)" d="M 271.872 307.584 
L 271.872 41.472 
" style="fill:none;stroke:#b0b0b0;stroke-linecap:square;stroke-width:0.8;"/>
     </g>
     <g id="line2d_8">
      <g>
       <use style="stroke:#000000;stroke-width:0.8;" x="271.872" xlink:href="#m09779d7d8f" y="307.584"/>
      </g>
     </g>
     <g id="text_4">
      <!-- 600 -->
      <defs>
       <path d="M 33.015625 40.375 
Q 26.375 40.375 22.484375 35.828125 
Q 18.609375 31.296875 18.609375 23.390625 
Q 18.609375 15.53125 22.484375 10.953125 
Q 26.375 6.390625 33.015625 6.390625 
Q 39.65625 6.390625 43.53125 10.953125 
Q 47.40625 15.53125 47.40625 23.390625 
Q 47.40625 31.296875 43.53125 35.828125 
Q 39.65625 40.375 33.015625 40.375 
M 52.59375 71.296875 
L 52.59375 62.3125 
Q 48.875 64.0625 45.09375 64.984375 
Q 41.3125 65.921875 37.59375 65.921875 
Q 27.828125 65.921875 22.671875 59.328125 
Q 17.53125 52.734375 16.796875 39.40625 
Q 19.671875 43.65625 24.015625 45.921875 
Q 28.375 48.1875 33.59375 48.1875 
Q 44.578125 48.1875 50.953125 41.515625 
Q 57.328125 34.859375 57.328125 23.390625 
Q 57.328125 12.15625 50.6875 5.359375 
Q 44.046875 -1.421875 33.015625 -1.421875 
Q 20.359375 -1.421875 13.671875 8.265625 
Q 6.984375 17.96875 6.984375 36.375 
Q 6.984375 53.65625 15.1875 63.9375 
Q 23.390625 74.21875 37.203125 74.21875 
Q 40.921875 74.21875 44.703125 73.484375 
Q 48.484375 72.75 52.59375 71.296875 
" id="DejaVuSans-36"/>
      </defs>
      <g transform="translate(262.32825 322.182437)scale(0.1 -0.1)">
       <use xlink:href="#DejaVuSans-36"/>
       <use x="63.623047" xlink:href="#DejaVuSans-30"/>
       <use x="127.246094" xlink:href="#DejaVuSans-30"/>
      </g>
     </g>
    </g>
    <g id="xtick_5">
     <g id="line2d_9">
      <path clip-path="url(#pd8cfa0ccec)" d="M 343.296 307.584 
L 343.296 41.472 
" style="fill:none;stroke:#b0b0b0;stroke-linecap:square;stroke-width:0.8;"/>
     </g>
     <g id="line2d_10">
      <g>
       <use style="stroke:#000000;stroke-width:0.8;" x="343.296" xlink:href="#m09779d7d8f" y="307.584"/>
      </g>
     </g>
     <g id="text_5">
      <!-- 800 -->
      <defs>
       <path d="M 31.78125 34.625 
Q 24.75 34.625 20.71875 30.859375 
Q 16.703125 27.09375 16.703125 20.515625 
Q 16.703125 13.921875 20.71875 10.15625 
Q 24.75 6.390625 31.78125 6.390625 
Q 38.8125 6.390625 42.859375 10.171875 
Q 46.921875 13.96875 46.921875 20.515625 
Q 46.921875 27.09375 42.890625 30.859375 
Q 38.875 34.625 31.78125 34.625 
M 21.921875 38.8125 
Q 15.578125 40.375 12.03125 44.71875 
Q 8.5 49.078125 8.5 55.328125 
Q 8.5 64.0625 14.71875 69.140625 
Q 20.953125 74.21875 31.78125 74.21875 
Q 42.671875 74.21875 48.875 69.140625 
Q 55.078125 64.0625 55.078125 55.328125 
Q 55.078125 49.078125 51.53125 44.71875 
Q 48 40.375 41.703125 38.8125 
Q 48.828125 37.15625 52.796875 32.3125 
Q 56.78125 27.484375 56.78125 20.515625 
Q 56.78125 9.90625 50.3125 4.234375 
Q 43.84375 -1.421875 31.78125 -1.421875 
Q 19.734375 -1.421875 13.25 4.234375 
Q 6.78125 9.90625 6.78125 20.515625 
Q 6.78125 27.484375 10.78125 32.3125 
Q 14.796875 37.15625 21.921875 38.8125 
M 18.3125 54.390625 
Q 18.3125 48.734375 21.84375 45.5625 
Q 25.390625 42.390625 31.78125 42.390625 
Q 38.140625 42.390625 41.71875 45.5625 
Q 45.3125 48.734375 45.3125 54.390625 
Q 45.3125 60.0625 41.71875 63.234375 
Q 38.140625 66.40625 31.78125 66.40625 
Q 25.390625 66.40625 21.84375 63.234375 
Q 18.3125 60.0625 18.3125 54.390625 
" id="DejaVuSans-38"/>
      </defs>
      <g transform="translate(333.75225 322.182437)scale(0.1 -0.1)">
       <use xlink:href="#DejaVuSans-38"/>
       <use x="63.623047" xlink:href="#DejaVuSans-30"/>
       <use x="127.246094" xlink:href="#DejaVuSans-30"/>
      </g>
     </g>
    </g>
    <g id="xtick_6">
     <g id="line2d_11">
      <path clip-path="url(#pd8cfa0ccec)" d="M 414.72 307.584 
L 414.72 41.472 
" style="fill:none;stroke:#b0b0b0;stroke-linecap:square;stroke-width:0.8;"/>
     </g>
     <g id="line2d_12">
      <g>
       <use style="stroke:#000000;stroke-width:0.8;" x="414.72" xlink:href="#m09779d7d8f" y="307.584"/>
      </g>
     </g>
     <g id="text_6">
      <!-- 1000 -->
      <defs>
       <path d="M 12.40625 8.296875 
L 28.515625 8.296875 
L 28.515625 63.921875 
L 10.984375 60.40625 
L 10.984375 69.390625 
L 28.421875 72.90625 
L 38.28125 72.90625 
L 38.28125 8.296875 
L 54.390625 8.296875 
L 54.390625 0 
L 12.40625 0 
z
" id="DejaVuSans-31"/>
      </defs>
      <g transform="translate(401.995 322.182437)scale(0.1 -0.1)">
       <use xlink:href="#DejaVuSans-31"/>
       <use x="63.623047" xlink:href="#DejaVuSans-30"/>
       <use x="127.246094" xlink:href="#DejaVuSans-30"/>
       <use x="190.869141" xlink:href="#DejaVuSans-30"/>
      </g>
     </g>
    </g>
    <g id="text_7">
     <!-- Number of clients -->
     <defs>
      <path d="M 9.8125 72.90625 
L 23.09375 72.90625 
L 55.421875 11.921875 
L 55.421875 72.90625 
L 64.984375 72.90625 
L 64.984375 0 
L 51.703125 0 
L 19.390625 60.984375 
L 19.390625 0 
L 9.8125 0 
z
" id="DejaVuSans-4e"/>
      <path d="M 8.5 21.578125 
L 8.5 54.6875 
L 17.484375 54.6875 
L 17.484375 21.921875 
Q 17.484375 14.15625 20.5 10.265625 
Q 23.53125 6.390625 29.59375 6.390625 
Q 36.859375 6.390625 41.078125 11.03125 
Q 45.3125 15.671875 45.3125 23.6875 
L 45.3125 54.6875 
L 54.296875 54.6875 
L 54.296875 0 
L 45.3125 0 
L 45.3125 8.40625 
Q 42.046875 3.421875 37.71875 1 
Q 33.40625 -1.421875 27.6875 -1.421875 
Q 18.265625 -1.421875 13.375 4.4375 
Q 8.5 10.296875 8.5 21.578125 
M 31.109375 56 
z
" id="DejaVuSans-75"/>
      <path d="M 52 44.1875 
Q 55.375 50.25 60.0625 53.125 
Q 64.75 56 71.09375 56 
Q 79.640625 56 84.28125 50.015625 
Q 88.921875 44.046875 88.921875 33.015625 
L 88.921875 0 
L 79.890625 0 
L 79.890625 32.71875 
Q 79.890625 40.578125 77.09375 44.375 
Q 74.3125 48.1875 68.609375 48.1875 
Q 61.625 48.1875 57.5625 43.546875 
Q 53.515625 38.921875 53.515625 30.90625 
L 53.515625 0 
L 44.484375 0 
L 44.484375 32.71875 
Q 44.484375 40.625 41.703125 44.40625 
Q 38.921875 48.1875 33.109375 48.1875 
Q 26.21875 48.1875 22.15625 43.53125 
Q 18.109375 38.875 18.109375 30.90625 
L 18.109375 0 
L 9.078125 0 
L 9.078125 54.6875 
L 18.109375 54.6875 
L 18.109375 46.1875 
Q 21.1875 51.21875 25.484375 53.609375 
Q 29.78125 56 35.6875 56 
Q 41.65625 56 45.828125 52.96875 
Q 50 49.953125 52 44.1875 
" id="DejaVuSans-6d"/>
      <path d="M 48.6875 27.296875 
Q 48.6875 37.203125 44.609375 42.84375 
Q 40.53125 48.484375 33.40625 48.484375 
Q 26.265625 48.484375 22.1875 42.84375 
Q 18.109375 37.203125 18.109375 27.296875 
Q 18.109375 17.390625 22.1875 11.75 
Q 26.265625 6.109375 33.40625 6.109375 
Q 40.53125 6.109375 44.609375 11.75 
Q 48.6875 17.390625 48.6875 27.296875 
M 18.109375 46.390625 
Q 20.953125 51.265625 25.265625 53.625 
Q 29.59375 56 35.59375 56 
Q 45.5625 56 51.78125 48.09375 
Q 58.015625 40.1875 58.015625 27.296875 
Q 58.015625 14.40625 51.78125 6.484375 
Q 45.5625 -1.421875 35.59375 -1.421875 
Q 29.59375 -1.421875 25.265625 0.953125 
Q 20.953125 3.328125 18.109375 8.203125 
L 18.109375 0 
L 9.078125 0 
L 9.078125 75.984375 
L 18.109375 75.984375 
z
" id="DejaVuSans-62"/>
      <path d="M 56.203125 29.59375 
L 56.203125 25.203125 
L 14.890625 25.203125 
Q 15.484375 15.921875 20.484375 11.0625 
Q 25.484375 6.203125 34.421875 6.203125 
Q 39.59375 6.203125 44.453125 7.46875 
Q 49.3125 8.734375 54.109375 11.28125 
L 54.109375 2.78125 
Q 49.265625 0.734375 44.1875 -0.34375 
Q 39.109375 -1.421875 33.890625 -1.421875 
Q 20.796875 -1.421875 13.15625 6.1875 
Q 5.515625 13.8125 5.515625 26.8125 
Q 5.515625 40.234375 12.765625 48.109375 
Q 20.015625 56 32.328125 56 
Q 43.359375 56 49.78125 48.890625 
Q 56.203125 41.796875 56.203125 29.59375 
M 47.21875 32.234375 
Q 47.125 39.59375 43.09375 43.984375 
Q 39.0625 48.390625 32.421875 48.390625 
Q 24.90625 48.390625 20.390625 44.140625 
Q 15.875 39.890625 15.1875 32.171875 
z
" id="DejaVuSans-65"/>
      <path d="M 41.109375 46.296875 
Q 39.59375 47.171875 37.8125 47.578125 
Q 36.03125 48 33.890625 48 
Q 26.265625 48 22.1875 43.046875 
Q 18.109375 38.09375 18.109375 28.8125 
L 18.109375 0 
L 9.078125 0 
L 9.078125 54.6875 
L 18.109375 54.6875 
L 18.109375 46.1875 
Q 20.953125 51.171875 25.484375 53.578125 
Q 30.03125 56 36.53125 56 
Q 37.453125 56 38.578125 55.875 
Q 39.703125 55.765625 41.0625 55.515625 
z
" id="DejaVuSans-72"/>
      <path id="DejaVuSans-20"/>
      <path d="M 30.609375 48.390625 
Q 23.390625 48.390625 19.1875 42.75 
Q 14.984375 37.109375 14.984375 27.296875 
Q 14.984375 17.484375 19.15625 11.84375 
Q 23.34375 6.203125 30.609375 6.203125 
Q 37.796875 6.203125 41.984375 11.859375 
Q 46.1875 17.53125 46.1875 27.296875 
Q 46.1875 37.015625 41.984375 42.703125 
Q 37.796875 48.390625 30.609375 48.390625 
M 30.609375 56 
Q 42.328125 56 49.015625 48.375 
Q 55.71875 40.765625 55.71875 27.296875 
Q 55.71875 13.875 49.015625 6.21875 
Q 42.328125 -1.421875 30.609375 -1.421875 
Q 18.84375 -1.421875 12.171875 6.21875 
Q 5.515625 13.875 5.515625 27.296875 
Q 5.515625 40.765625 12.171875 48.375 
Q 18.84375 56 30.609375 56 
" id="DejaVuSans-6f"/>
      <path d="M 37.109375 75.984375 
L 37.109375 68.5 
L 28.515625 68.5 
Q 23.6875 68.5 21.796875 66.546875 
Q 19.921875 64.59375 19.921875 59.515625 
L 19.921875 54.6875 
L 34.71875 54.6875 
L 34.71875 47.703125 
L 19.921875 47.703125 
L 19.921875 0 
L 10.890625 0 
L 10.890625 47.703125 
L 2.296875 47.703125 
L 2.296875 54.6875 
L 10.890625 54.6875 
L 10.890625 58.5 
Q 10.890625 67.625 15.140625 71.796875 
Q 19.390625 75.984375 28.609375 75.984375 
z
" id="DejaVuSans-66"/>
      <path d="M 48.78125 52.59375 
L 48.78125 44.1875 
Q 44.96875 46.296875 41.140625 47.34375 
Q 37.3125 48.390625 33.40625 48.390625 
Q 24.65625 48.390625 19.8125 42.84375 
Q 14.984375 37.3125 14.984375 27.296875 
Q 14.984375 17.28125 19.8125 11.734375 
Q 24.65625 6.203125 33.40625 6.203125 
Q 37.3125 6.203125 41.140625 7.25 
Q 44.96875 8.296875 48.78125 10.40625 
L 48.78125 2.09375 
Q 45.015625 0.34375 40.984375 -0.53125 
Q 36.96875 -1.421875 32.421875 -1.421875 
Q 20.0625 -1.421875 12.78125 6.34375 
Q 5.515625 14.109375 5.515625 27.296875 
Q 5.515625 40.671875 12.859375 48.328125 
Q 20.21875 56 33.015625 56 
Q 37.15625 56 41.109375 55.140625 
Q 45.0625 54.296875 48.78125 52.59375 
" id="DejaVuSans-63"/>
      <path d="M 9.421875 75.984375 
L 18.40625 75.984375 
L 18.40625 0 
L 9.421875 0 
z
" id="DejaVuSans-6c"/>
      <path d="M 9.421875 54.6875 
L 18.40625 54.6875 
L 18.40625 0 
L 9.421875 0 
z
M 9.421875 75.984375 
L 18.40625 75.984375 
L 18.40625 64.59375 
L 9.421875 64.59375 
z
" id="DejaVuSans-69"/>
      <path d="M 54.890625 33.015625 
L 54.890625 0 
L 45.90625 0 
L 45.90625 32.71875 
Q 45.90625 40.484375 42.875 44.328125 
Q 39.84375 48.1875 33.796875 48.1875 
Q 26.515625 48.1875 22.3125 43.546875 
Q 18.109375 38.921875 18.109375 30.90625 
L 18.109375 0 
L 9.078125 0 
L 9.078125 54.6875 
L 18.109375 54.6875 
L 18.109375 46.1875 
Q 21.34375 51.125 25.703125 53.5625 
Q 30.078125 56 35.796875 56 
Q 45.21875 56 50.046875 50.171875 
Q 54.890625 44.34375 54.890625 33.015625 
" id="DejaVuSans-6e"/>
      <path d="M 18.3125 70.21875 
L 18.3125 54.6875 
L 36.8125 54.6875 
L 36.8125 47.703125 
L 18.3125 47.703125 
L 18.3125 18.015625 
Q 18.3125 11.328125 20.140625 9.421875 
Q 21.96875 7.515625 27.59375 7.515625 
L 36.8125 7.515625 
L 36.8125 0 
L 27.59375 0 
Q 17.1875 0 13.234375 3.875 
Q 9.28125 7.765625 9.28125 18.015625 
L 9.28125 47.703125 
L 2.6875 47.703125 
L 2.6875 54.6875 
L 9.28125 54.6875 
L 9.28125 70.21875 
z
" id="DejaVuSans-74"/>
      <path d="M 44.28125 53.078125 
L 44.28125 44.578125 
Q 40.484375 46.53125 36.375 47.5 
Q 32.28125 48.484375 27.875 48.484375 
Q 21.1875 48.484375 17.84375 46.4375 
Q 14.5 44.390625 14.5 40.28125 
Q 14.5 37.15625 16.890625 35.375 
Q 19.28125 33.59375 26.515625 31.984375 
L 29.59375 31.296875 
Q 39.15625 29.25 43.1875 25.515625 
Q 47.21875 21.78125 47.21875 15.09375 
Q 47.21875 7.46875 41.1875 3.015625 
Q 35.15625 -1.421875 24.609375 -1.421875 
Q 20.21875 -1.421875 15.453125 -0.5625 
Q 10.6875 0.296875 5.421875 2 
L 5.421875 11.28125 
Q 10.40625 8.6875 15.234375 7.390625 
Q 20.0625 6.109375 24.8125 6.109375 
Q 31.15625 6.109375 34.5625 8.28125 
Q 37.984375 10.453125 37.984375 14.40625 
Q 37.984375 18.0625 35.515625 20.015625 
Q 33.0625 21.96875 24.703125 23.78125 
L 21.578125 24.515625 
Q 13.234375 26.265625 9.515625 29.90625 
Q 5.8125 33.546875 5.8125 39.890625 
Q 5.8125 47.609375 11.28125 51.796875 
Q 16.75 56 26.8125 56 
Q 31.78125 56 36.171875 55.265625 
Q 40.578125 54.546875 44.28125 53.078125 
" id="DejaVuSans-73"/>
     </defs>
     <g transform="translate(191.738906 335.860562)scale(0.1 -0.1)">
      <use xlink:href="#DejaVuSans-4e"/>
      <use x="74.804688" xlink:href="#DejaVuSans-75"/>
      <use x="138.183594" xlink:href="#DejaVuSans-6d"/>
      <use x="235.595703" xlink:href="#DejaVuSans-62"/>
      <use x="299.072266" xlink:href="#DejaVuSans-65"/>
      <use x="360.595703" xlink:href="#DejaVuSans-72"/>
      <use x="401.708984" xlink:href="#DejaVuSans-20"/>
      <use x="433.496094" xlink:href="#DejaVuSans-6f"/>
      <use x="494.677734" xlink:href="#DejaVuSans-66"/>
      <use x="529.882812" xlink:href="#DejaVuSans-20"/>
      <use x="561.669922" xlink:href="#DejaVuSans-63"/>
      <use x="616.650391" xlink:href="#DejaVuSans-6c"/>
      <use x="644.433594" xlink:href="#DejaVuSans-69"/>
      <use x="672.216797" xlink:href="#DejaVuSans-65"/>
      <use x="733.740234" xlink:href="#DejaVuSans-6e"/>
      <use x="797.119141" xlink:href="#DejaVuSans-74"/>
      <use x="836.328125" xlink:href="#DejaVuSans-73"/>
     </g>
    </g>
   </g>
   <g id="matplotlib.axis_2">
    <g id="ytick_1">
     <g id="line2d_13">
      <path clip-path="url(#pd8cfa0ccec)" d="M 57.6 295.802173 
L 414.72 295.802173 
" style="fill:none;stroke:#b0b0b0;stroke-linecap:square;stroke-width:0.8;"/>
     </g>
     <g id="line2d_14">
      <defs>
       <path d="M 0 0 
L -3.5 0 
" id="ma3875f1398" style="stroke:#000000;stroke-width:0.8;"/>
      </defs>
      <g>
       <use style="stroke:#000000;stroke-width:0.8;" x="57.6" xlink:href="#ma3875f1398" y="295.802173"/>
      </g>
     </g>
     <g id="text_8">
      <!-- 0 -->
      <g transform="translate(44.2375 299.601392)scale(0.1 -0.1)">
       <use xlink:href="#DejaVuSans-30"/>
      </g>
     </g>
    </g>
    <g id="ytick_2">
     <g id="line2d_15">
      <path clip-path="url(#pd8cfa0ccec)" d="M 57.6 263.245392 
L 414.72 263.245392 
" style="fill:none;stroke:#b0b0b0;stroke-linecap:square;stroke-width:0.8;"/>
     </g>
     <g id="line2d_16">
      <g>
       <use style="stroke:#000000;stroke-width:0.8;" x="57.6" xlink:href="#ma3875f1398" y="263.245392"/>
      </g>
     </g>
     <g id="text_9">
      <!-- 100 -->
      <g transform="translate(31.5125 267.04461)scale(0.1 -0.1)">
       <use xlink:href="#DejaVuSans-31"/>
       <use x="63.623047" xlink:href="#DejaVuSans-30"/>
       <use x="127.246094" xlink:href="#DejaVuSans-30"/>
      </g>
     </g>
    </g>
    <g id="ytick_3">
     <g id="line2d_17">
      <path clip-path="url(#pd8cfa0ccec)" d="M 57.6 230.68861 
L 414.72 230.68861 
" style="fill:none;stroke:#b0b0b0;stroke-linecap:square;stroke-width:0.8;"/>
     </g>
     <g id="line2d_18">
      <g>
       <use style="stroke:#000000;stroke-width:0.8;" x="57.6" xlink:href="#ma3875f1398" y="230.68861"/>
      </g>
     </g>
     <g id="text_10">
      <!-- 200 -->
      <g transform="translate(31.5125 234.487829)scale(0.1 -0.1)">
       <use xlink:href="#DejaVuSans-32"/>
       <use x="63.623047" xlink:href="#DejaVuSans-30"/>
       <use x="127.246094" xlink:href="#DejaVuSans-30"/>
      </g>
     </g>
    </g>
    <g id="ytick_4">
     <g id="line2d_19">
      <path clip-path="url(#pd8cfa0ccec)" d="M 57.6 198.131829 
L 414.72 198.131829 
" style="fill:none;stroke:#b0b0b0;stroke-linecap:square;stroke-width:0.8;"/>
     </g>
     <g id="line2d_20">
      <g>
       <use style="stroke:#000000;stroke-width:0.8;" x="57.6" xlink:href="#ma3875f1398" y="198.131829"/>
      </g>
     </g>
     <g id="text_11">
      <!-- 300 -->
      <defs>
       <path d="M 40.578125 39.3125 
Q 47.65625 37.796875 51.625 33 
Q 55.609375 28.21875 55.609375 21.1875 
Q 55.609375 10.40625 48.1875 4.484375 
Q 40.765625 -1.421875 27.09375 -1.421875 
Q 22.515625 -1.421875 17.65625 -0.515625 
Q 12.796875 0.390625 7.625 2.203125 
L 7.625 11.71875 
Q 11.71875 9.328125 16.59375 8.109375 
Q 21.484375 6.890625 26.8125 6.890625 
Q 36.078125 6.890625 40.9375 10.546875 
Q 45.796875 14.203125 45.796875 21.1875 
Q 45.796875 27.640625 41.28125 31.265625 
Q 36.765625 34.90625 28.71875 34.90625 
L 20.21875 34.90625 
L 20.21875 43.015625 
L 29.109375 43.015625 
Q 36.375 43.015625 40.234375 45.921875 
Q 44.09375 48.828125 44.09375 54.296875 
Q 44.09375 59.90625 40.109375 62.90625 
Q 36.140625 65.921875 28.71875 65.921875 
Q 24.65625 65.921875 20.015625 65.03125 
Q 15.375 64.15625 9.8125 62.3125 
L 9.8125 71.09375 
Q 15.4375 72.65625 20.34375 73.4375 
Q 25.25 74.21875 29.59375 74.21875 
Q 40.828125 74.21875 47.359375 69.109375 
Q 53.90625 64.015625 53.90625 55.328125 
Q 53.90625 49.265625 50.4375 45.09375 
Q 46.96875 40.921875 40.578125 39.3125 
" id="DejaVuSans-33"/>
      </defs>
      <g transform="translate(31.5125 201.931048)scale(0.1 -0.1)">
       <use xlink:href="#DejaVuSans-33"/>
       <use x="63.623047" xlink:href="#DejaVuSans-30"/>
       <use x="127.246094" xlink:href="#DejaVuSans-30"/>
      </g>
     </g>
    </g>
    <g id="ytick_5">
     <g id="line2d_21">
      <path clip-path="url(#pd8cfa0ccec)" d="M 57.6 165.575048 
L 414.72 165.575048 
" style="fill:none;stroke:#b0b0b0;stroke-linecap:square;stroke-width:0.8;"/>
     </g>
     <g id="line2d_22">
      <g>
       <use style="stroke:#000000;stroke-width:0.8;" x="57.6" xlink:href="#ma3875f1398" y="165.575048"/>
      </g>
     </g>
     <g id="text_12">
      <!-- 400 -->
      <g transform="translate(31.5125 169.374267)scale(0.1 -0.1)">
       <use xlink:href="#DejaVuSans-34"/>
       <use x="63.623047" xlink:href="#DejaVuSans-30"/>
       <use x="127.246094" xlink:href="#DejaVuSans-30"/>
      </g>
     </g>
    </g>
    <g id="ytick_6">
     <g id="line2d_23">
      <path clip-path="url(#pd8cfa0ccec)" d="M 57.6 133.018267 
L 414.72 133.018267 
" style="fill:none;stroke:#b0b0b0;stroke-linecap:square;stroke-width:0.8;"/>
     </g>
     <g id="line2d_24">
      <g>
       <use style="stroke:#000000;stroke-width:0.8;" x="57.6" xlink:href="#ma3875f1398" y="133.018267"/>
      </g>
     </g>
     <g id="text_13">
      <!-- 500 -->
      <defs>
       <path d="M 10.796875 72.90625 
L 49.515625 72.90625 
L 49.515625 64.59375 
L 19.828125 64.59375 
L 19.828125 46.734375 
Q 21.96875 47.46875 24.109375 47.828125 
Q 26.265625 48.1875 28.421875 48.1875 
Q 40.625 48.1875 47.75 41.5 
Q 54.890625 34.8125 54.890625 23.390625 
Q 54.890625 11.625 47.5625 5.09375 
Q 40.234375 -1.421875 26.90625 -1.421875 
Q 22.3125 -1.421875 17.546875 -0.640625 
Q 12.796875 0.140625 7.71875 1.703125 
L 7.71875 11.625 
Q 12.109375 9.234375 16.796875 8.0625 
Q 21.484375 6.890625 26.703125 6.890625 
Q 35.15625 6.890625 40.078125 11.328125 
Q 45.015625 15.765625 45.015625 23.390625 
Q 45.015625 31 40.078125 35.4375 
Q 35.15625 39.890625 26.703125 39.890625 
Q 22.75 39.890625 18.8125 39.015625 
Q 14.890625 38.140625 10.796875 36.28125 
z
" id="DejaVuSans-35"/>
      </defs>
      <g transform="translate(31.5125 136.817485)scale(0.1 -0.1)">
       <use xlink:href="#DejaVuSans-35"/>
       <use x="63.623047" xlink:href="#DejaVuSans-30"/>
       <use x="127.246094" xlink:href="#DejaVuSans-30"/>
      </g>
     </g>
    </g>
    <g id="ytick_7">
     <g id="line2d_25">
      <path clip-path="url(#pd8cfa0ccec)" d="M 57.6 100.461485 
L 414.72 100.461485 
" style="fill:none;stroke:#b0b0b0;stroke-linecap:square;stroke-width:0.8;"/>
     </g>
     <g id="line2d_26">
      <g>
       <use style="stroke:#000000;stroke-width:0.8;" x="57.6" xlink:href="#ma3875f1398" y="100.461485"/>
      </g>
     </g>
     <g id="text_14">
      <!-- 600 -->
      <g transform="translate(31.5125 104.260704)scale(0.1 -0.1)">
       <use xlink:href="#DejaVuSans-36"/>
       <use x="63.623047" xlink:href="#DejaVuSans-30"/>
       <use x="127.246094" xlink:href="#DejaVuSans-30"/>
      </g>
     </g>
    </g>
    <g id="ytick_8">
     <g id="line2d_27">
      <path clip-path="url(#pd8cfa0ccec)" d="M 57.6 67.904704 
L 414.72 67.904704 
" style="fill:none;stroke:#b0b0b0;stroke-linecap:square;stroke-width:0.8;"/>
     </g>
     <g id="line2d_28">
      <g>
       <use style="stroke:#000000;stroke-width:0.8;" x="57.6" xlink:href="#ma3875f1398" y="67.904704"/>
      </g>
     </g>
     <g id="text_15">
      <!-- 700 -->
      <defs>
       <path d="M 8.203125 72.90625 
L 55.078125 72.90625 
L 55.078125 68.703125 
L 28.609375 0 
L 18.3125 0 
L 43.21875 64.59375 
L 8.203125 64.59375 
z
" id="DejaVuSans-37"/>
      </defs>
      <g transform="translate(31.5125 71.703923)scale(0.1 -0.1)">
       <use xlink:href="#DejaVuSans-37"/>
       <use x="63.623047" xlink:href="#DejaVuSans-30"/>
       <use x="127.246094" xlink:href="#DejaVuSans-30"/>
      </g>
     </g>
    </g>
    <g id="text_16">
     <!-- Successful download requests per second -->
     <defs>
      <path d="M 53.515625 70.515625 
L 53.515625 60.890625 
Q 47.90625 63.578125 42.921875 64.890625 
Q 37.9375 66.21875 33.296875 66.21875 
Q 25.25 66.21875 20.875 63.09375 
Q 16.5 59.96875 16.5 54.203125 
Q 16.5 49.359375 19.40625 46.890625 
Q 22.3125 44.4375 30.421875 42.921875 
L 36.375 41.703125 
Q 47.40625 39.59375 52.65625 34.296875 
Q 57.90625 29 57.90625 20.125 
Q 57.90625 9.515625 50.796875 4.046875 
Q 43.703125 -1.421875 29.984375 -1.421875 
Q 24.8125 -1.421875 18.96875 -0.25 
Q 13.140625 0.921875 6.890625 3.21875 
L 6.890625 13.375 
Q 12.890625 10.015625 18.65625 8.296875 
Q 24.421875 6.59375 29.984375 6.59375 
Q 38.421875 6.59375 43.015625 9.90625 
Q 47.609375 13.234375 47.609375 19.390625 
Q 47.609375 24.75 44.3125 27.78125 
Q 41.015625 30.8125 33.5 32.328125 
L 27.484375 33.5 
Q 16.453125 35.6875 11.515625 40.375 
Q 6.59375 45.0625 6.59375 53.421875 
Q 6.59375 63.09375 13.40625 68.65625 
Q 20.21875 74.21875 32.171875 74.21875 
Q 37.3125 74.21875 42.625 73.28125 
Q 47.953125 72.359375 53.515625 70.515625 
" id="DejaVuSans-53"/>
      <path d="M 45.40625 46.390625 
L 45.40625 75.984375 
L 54.390625 75.984375 
L 54.390625 0 
L 45.40625 0 
L 45.40625 8.203125 
Q 42.578125 3.328125 38.25 0.953125 
Q 33.9375 -1.421875 27.875 -1.421875 
Q 17.96875 -1.421875 11.734375 6.484375 
Q 5.515625 14.40625 5.515625 27.296875 
Q 5.515625 40.1875 11.734375 48.09375 
Q 17.96875 56 27.875 56 
Q 33.9375 56 38.25 53.625 
Q 42.578125 51.265625 45.40625 46.390625 
M 14.796875 27.296875 
Q 14.796875 17.390625 18.875 11.75 
Q 22.953125 6.109375 30.078125 6.109375 
Q 37.203125 6.109375 41.296875 11.75 
Q 45.40625 17.390625 45.40625 27.296875 
Q 45.40625 37.203125 41.296875 42.84375 
Q 37.203125 48.484375 30.078125 48.484375 
Q 22.953125 48.484375 18.875 42.84375 
Q 14.796875 37.203125 14.796875 27.296875 
" id="DejaVuSans-64"/>
      <path d="M 4.203125 54.6875 
L 13.1875 54.6875 
L 24.421875 12.015625 
L 35.59375 54.6875 
L 46.1875 54.6875 
L 57.421875 12.015625 
L 68.609375 54.6875 
L 77.59375 54.6875 
L 63.28125 0 
L 52.6875 0 
L 40.921875 44.828125 
L 29.109375 0 
L 18.5 0 
z
" id="DejaVuSans-77"/>
      <path d="M 34.28125 27.484375 
Q 23.390625 27.484375 19.1875 25 
Q 14.984375 22.515625 14.984375 16.5 
Q 14.984375 11.71875 18.140625 8.90625 
Q 21.296875 6.109375 26.703125 6.109375 
Q 34.1875 6.109375 38.703125 11.40625 
Q 43.21875 16.703125 43.21875 25.484375 
L 43.21875 27.484375 
z
M 52.203125 31.203125 
L 52.203125 0 
L 43.21875 0 
L 43.21875 8.296875 
Q 40.140625 3.328125 35.546875 0.953125 
Q 30.953125 -1.421875 24.3125 -1.421875 
Q 15.921875 -1.421875 10.953125 3.296875 
Q 6 8.015625 6 15.921875 
Q 6 25.140625 12.171875 29.828125 
Q 18.359375 34.515625 30.609375 34.515625 
L 43.21875 34.515625 
L 43.21875 35.40625 
Q 43.21875 41.609375 39.140625 45 
Q 35.0625 48.390625 27.6875 48.390625 
Q 23 48.390625 18.546875 47.265625 
Q 14.109375 46.140625 10.015625 43.890625 
L 10.015625 52.203125 
Q 14.9375 54.109375 19.578125 55.046875 
Q 24.21875 56 28.609375 56 
Q 40.484375 56 46.34375 49.84375 
Q 52.203125 43.703125 52.203125 31.203125 
" id="DejaVuSans-61"/>
      <path d="M 14.796875 27.296875 
Q 14.796875 17.390625 18.875 11.75 
Q 22.953125 6.109375 30.078125 6.109375 
Q 37.203125 6.109375 41.296875 11.75 
Q 45.40625 17.390625 45.40625 27.296875 
Q 45.40625 37.203125 41.296875 42.84375 
Q 37.203125 48.484375 30.078125 48.484375 
Q 22.953125 48.484375 18.875 42.84375 
Q 14.796875 37.203125 14.796875 27.296875 
M 45.40625 8.203125 
Q 42.578125 3.328125 38.25 0.953125 
Q 33.9375 -1.421875 27.875 -1.421875 
Q 17.96875 -1.421875 11.734375 6.484375 
Q 5.515625 14.40625 5.515625 27.296875 
Q 5.515625 40.1875 11.734375 48.09375 
Q 17.96875 56 27.875 56 
Q 33.9375 56 38.25 53.625 
Q 42.578125 51.265625 45.40625 46.390625 
L 45.40625 54.6875 
L 54.390625 54.6875 
L 54.390625 -20.796875 
L 45.40625 -20.796875 
z
" id="DejaVuSans-71"/>
      <path d="M 18.109375 8.203125 
L 18.109375 -20.796875 
L 9.078125 -20.796875 
L 9.078125 54.6875 
L 18.109375 54.6875 
L 18.109375 46.390625 
Q 20.953125 51.265625 25.265625 53.625 
Q 29.59375 56 35.59375 56 
Q 45.5625 56 51.78125 48.09375 
Q 58.015625 40.1875 58.015625 27.296875 
Q 58.015625 14.40625 51.78125 6.484375 
Q 45.5625 -1.421875 35.59375 -1.421875 
Q 29.59375 -1.421875 25.265625 0.953125 
Q 20.953125 3.328125 18.109375 8.203125 
M 48.6875 27.296875 
Q 48.6875 37.203125 44.609375 42.84375 
Q 40.53125 48.484375 33.40625 48.484375 
Q 26.265625 48.484375 22.1875 42.84375 
Q 18.109375 37.203125 18.109375 27.296875 
Q 18.109375 17.390625 22.1875 11.75 
Q 26.265625 6.109375 33.40625 6.109375 
Q 40.53125 6.109375 44.609375 11.75 
Q 48.6875 17.390625 48.6875 27.296875 
" id="DejaVuSans-70"/>
     </defs>
     <g transform="translate(25.432812 279.366281)rotate(-90)scale(0.1 -0.1)">
      <use xlink:href="#DejaVuSans-53"/>
      <use x="63.476562" xlink:href="#DejaVuSans-75"/>
      <use x="126.855469" xlink:href="#DejaVuSans-63"/>
      <use x="181.835938" xlink:href="#DejaVuSans-63"/>
      <use x="236.816406" xlink:href="#DejaVuSans-65"/>
      <use x="298.339844" xlink:href="#DejaVuSans-73"/>
      <use x="350.439453" xlink:href="#DejaVuSans-73"/>
      <use x="402.539062" xlink:href="#DejaVuSans-66"/>
      <use x="437.744141" xlink:href="#DejaVuSans-75"/>
      <use x="501.123047" xlink:href="#DejaVuSans-6c"/>
      <use x="528.90625" xlink:href="#DejaVuSans-20"/>
      <use x="560.693359" xlink:href="#DejaVuSans-64"/>
      <use x="624.169922" xlink:href="#DejaVuSans-6f"/>
      <use x="685.351562" xlink:href="#DejaVuSans-77"/>
      <use x="767.138672" xlink:href="#DejaVuSans-6e"/>
      <use x="830.517578" xlink:href="#DejaVuSans-6c"/>
      <use x="858.300781" xlink:href="#DejaVuSans-6f"/>
      <use x="919.482422" xlink:href="#DejaVuSans-61"/>
      <use x="980.761719" xlink:href="#DejaVuSans-64"/>
      <use x="1044.238281" xlink:href="#DejaVuSans-20"/>
      <use x="1076.025391" xlink:href="#DejaVuSans-72"/>
      <use x="1117.107422" xlink:href="#DejaVuSans-65"/>
      <use x="1178.630859" xlink:href="#DejaVuSans-71"/>
      <use x="1242.107422" xlink:href="#DejaVuSans-75"/>
      <use x="1305.486328" xlink:href="#DejaVuSans-65"/>
      <use x="1367.009766" xlink:href="#DejaVuSans-73"/>
      <use x="1419.109375" xlink:href="#DejaVuSans-74"/>
      <use x="1458.318359" xlink:href="#DejaVuSans-73"/>
      <use x="1510.417969" xlink:href="#DejaVuSans-20"/>
      <use x="1542.205078" xlink:href="#DejaVuSans-70"/>
      <use x="1605.681641" xlink:href="#DejaVuSans-65"/>
      <use x="1667.205078" xlink:href="#DejaVuSans-72"/>
      <use x="1708.318359" xlink:href="#DejaVuSans-20"/>
      <use x="1740.105469" xlink:href="#DejaVuSans-73"/>
      <use x="1792.205078" xlink:href="#DejaVuSans-65"/>
      <use x="1853.728516" xlink:href="#DejaVuSans-63"/>
      <use x="1908.708984" xlink:href="#DejaVuSans-6f"/>
      <use x="1969.890625" xlink:href="#DejaVuSans-6e"/>
      <use x="2033.269531" xlink:href="#DejaVuSans-64"/>
     </g>
    </g>
   </g>
   <g id="line2d_29">
    <path clip-path="url(#pd8cfa0ccec)" d="M 57.6 295.48507 
L 57.95712 295.488 
L 60.45696 293.278046 
L 61.1712 292.77309 
L 61.52832 292.310458 
L 62.24256 291.853687 
L 64.38528 289.635919 
L 64.7424 289.594246 
L 65.81376 288.388668 
L 66.17088 288.245744 
L 66.528 287.852133 
L 66.88512 287.746974 
L 67.59936 286.870546 
L 67.95648 287.017051 
L 68.3136 286.352242 
L 68.67072 286.06151 
L 69.02784 286.109042 
L 70.0992 284.485436 
L 70.45632 284.400788 
L 70.81344 283.861648 
L 71.17056 283.579706 
L 71.52768 283.623332 
L 71.8848 282.986522 
L 72.24192 282.798669 
L 72.59904 282.170323 
L 72.95616 282.491658 
L 73.31328 282.129953 
L 73.6704 282.062235 
L 74.02752 281.87015 
L 74.38464 281.368124 
L 74.74176 280.469231 
L 75.09888 280.732616 
L 75.456 280.512857 
L 75.81312 280.071062 
L 76.17024 279.166634 
L 76.52736 278.652237 
L 76.88448 279.447274 
L 77.2416 278.303229 
L 77.59872 278.399922 
L 77.95584 278.35011 
L 78.31296 278.123515 
L 78.67008 277.561911 
L 79.0272 276.450097 
L 79.38432 276.039881 
L 79.74144 275.979977 
L 80.09856 276.276243 
L 80.45568 275.747521 
L 80.8128 275.453534 
L 81.16992 274.5312 
L 81.52704 274.025919 
L 81.88416 274.768539 
L 82.24128 273.745279 
L 82.5984 274.200749 
L 82.95552 273.21265 
L 83.31264 273.355575 
L 84.02688 272.949591 
L 84.384 271.851126 
L 84.74112 271.757037 
L 85.45536 270.894933 
L 85.81248 270.856516 
L 86.1696 270.28547 
L 86.52672 270.278633 
L 86.88384 270.953861 
L 87.24096 270.571319 
L 87.59808 268.873808 
L 87.9552 268.310901 
L 88.31232 269.453644 
L 88.66944 267.789016 
L 89.02656 267.601489 
L 89.38368 268.690513 
L 89.7408 268.486382 
L 90.45504 266.346751 
L 90.81216 266.601019 
L 91.16928 267.190948 
L 91.5264 265.82161 
L 91.88352 266.586694 
L 92.59776 264.079822 
L 92.95488 264.419389 
L 93.312 264.186608 
L 93.66912 263.186789 
L 94.02624 264.447062 
L 94.38336 264.343857 
L 94.74048 263.813182 
L 95.0976 262.589047 
L 95.45472 262.538584 
L 95.81184 261.403003 
L 96.16896 261.812568 
L 96.52608 262.799364 
L 96.8832 260.904559 
L 97.24032 260.109523 
L 97.59744 261.768616 
L 97.95456 261.374353 
L 98.31168 259.16798 
L 98.6688 260.830655 
L 99.02592 259.27086 
L 99.38304 258.763951 
L 99.74016 259.681726 
L 100.09728 259.088216 
L 100.4544 258.913712 
L 100.81152 258.148628 
L 101.16864 257.92073 
L 101.52576 256.418886 
L 101.88288 256.494418 
L 102.24 256.09462 
L 102.59712 255.937697 
L 102.95424 255.381301 
L 103.31136 256.220941 
L 103.66848 254.203722 
L 104.0256 254.864951 
L 104.38272 255.872583 
L 104.73984 254.454735 
L 105.09696 253.820204 
L 105.45408 255.095453 
L 105.8112 254.656262 
L 106.16832 251.592994 
L 106.52544 252.825919 
L 106.88256 251.087713 
L 107.23968 251.194499 
L 107.5968 250.915162 
L 107.95392 251.179197 
L 108.31104 251.008274 
L 108.66816 252.381194 
L 109.02528 251.716384 
L 109.3824 251.819915 
L 109.73952 248.88134 
L 110.09664 248.791158 
L 110.45376 249.409085 
L 110.81088 247.380798 
L 111.168 249.705352 
L 111.52512 247.742504 
L 111.88224 249.135608 
L 112.23936 246.206475 
L 112.59648 248.275784 
L 112.9536 248.853992 
L 113.31072 248.366292 
L 113.66784 245.035082 
L 114.02496 245.133078 
L 114.38208 245.00806 
L 114.7392 246.22373 
L 115.09632 243.932383 
L 115.45344 245.485668 
L 115.81056 244.190884 
L 116.16768 245.316698 
L 116.5248 245.727239 
L 116.88192 245.230748 
L 117.23904 244.351389 
L 117.59616 242.78378 
L 117.95328 244.621285 
L 118.3104 242.218269 
L 118.66752 243.196926 
L 119.02464 240.345603 
L 119.38176 239.955898 
L 119.73888 241.576249 
L 120.096 239.354249 
L 120.45312 239.545032 
L 120.81024 240.766237 
L 121.16736 238.962591 
L 121.8816 241.293982 
L 122.23872 237.526186 
L 122.59584 238.228761 
L 122.95296 237.57437 
L 123.31008 239.457779 
L 123.6672 237.283963 
L 124.02432 237.925657 
L 124.38144 236.800495 
L 124.73856 237.804546 
L 125.09568 234.786858 
L 125.4528 238.01877 
L 125.80992 236.587248 
L 126.16704 236.364885 
L 126.52416 235.461435 
L 126.88128 234.184883 
L 127.2384 235.618358 
L 127.59552 232.142596 
L 127.95264 234.888761 
L 128.30976 232.752059 
L 128.66688 234.860111 
L 129.024 234.344086 
L 129.38112 231.659454 
L 129.73824 234.539752 
L 130.09536 232.196315 
L 130.45248 233.231295 
L 130.8096 229.812833 
L 131.16672 231.843074 
L 131.52384 228.876826 
L 131.88096 232.364634 
L 132.23808 229.678048 
L 132.5952 228.069417 
L 132.95232 228.910685 
L 133.30944 230.680797 
L 133.66656 229.61619 
L 134.3808 228.656742 
L 134.73792 226.035921 
L 135.09504 229.822274 
L 135.45216 228.534654 
L 135.80928 225.675843 
L 136.1664 224.894155 
L 136.52352 228.419728 
L 136.88064 225.352554 
L 137.23776 226.229634 
L 137.59488 223.543699 
L 137.952 223.185249 
L 138.30912 227.281543 
L 138.66624 223.155297 
L 139.02336 223.391333 
L 139.38048 222.254451 
L 139.7376 224.118978 
L 140.09472 220.890973 
L 140.45184 221.026409 
L 140.80896 225.106099 
L 141.16608 223.01107 
L 141.5232 222.496348 
L 141.88032 220.269789 
L 142.23744 220.311462 
L 142.95168 218.350893 
L 143.3088 219.044352 
L 143.66592 219.048584 
L 144.02304 221.950696 
L 144.38016 220.920274 
L 144.73728 217.981699 
L 145.0944 220.39318 
L 145.80864 216.625383 
L 146.16576 218.593766 
L 146.52288 215.076332 
L 146.88 215.014148 
L 147.23712 218.906962 
L 147.59424 215.975875 
L 147.95136 217.38298 
L 148.30848 218.016534 
L 148.6656 215.234883 
L 149.02272 215.210465 
L 149.37984 217.244288 
L 149.73696 214.745555 
L 150.09408 214.962708 
L 150.4512 212.724755 
L 150.80832 212.994 
L 151.16544 215.877228 
L 151.52256 214.661233 
L 151.87968 214.250366 
L 152.59392 211.571268 
L 152.95104 212.374444 
L 153.30816 211.707681 
L 153.66528 211.424437 
L 154.0224 212.267658 
L 154.37952 210.241324 
L 154.73664 207.408884 
L 155.09376 208.02323 
L 155.808 211.040267 
L 156.16512 211.2164 
L 156.52224 206.440645 
L 156.87936 211.05329 
L 157.23648 205.979641 
L 157.5936 208.784408 
L 157.95072 205.111678 
L 158.66496 209.858131 
L 159.02208 203.476676 
L 159.3792 208.101041 
L 159.73632 207.597713 
L 160.09344 208.178852 
L 160.45056 204.926429 
L 160.80768 204.308176 
L 161.1648 201.968971 
L 161.52192 201.439924 
L 161.87904 207.184568 
L 162.23616 203.856288 
L 162.59328 203.294684 
L 162.9504 204.143113 
L 163.30752 200.843809 
L 163.66464 203.09511 
L 164.02176 200.609726 
L 164.37888 205.019542 
L 164.736 199.143694 
L 165.09312 199.829991 
L 165.45024 202.718429 
L 165.80736 203.48742 
L 166.16448 203.466583 
L 166.5216 199.993426 
L 166.87872 202.719731 
L 167.23584 197.762961 
L 167.59296 198.370145 
L 167.95008 197.497298 
L 168.3072 199.538933 
L 168.66432 199.32764 
L 169.02144 200.005798 
L 169.37856 195.632771 
L 169.73568 199.449077 
L 170.0928 197.246936 
L 170.44992 199.670463 
L 170.80704 198.210617 
L 171.16416 192.822469 
L 171.52128 197.405813 
L 171.8784 191.905019 
L 172.23552 191.499687 
L 172.59264 195.687792 
L 172.94976 193.522115 
L 173.30688 196.911927 
L 173.664 190.548053 
L 174.02112 194.823084 
L 174.37824 194.625138 
L 174.73536 195.773416 
L 175.09248 195.295808 
L 175.4496 188.507719 
L 175.80672 194.851082 
L 176.16384 188.795521 
L 176.52096 187.388091 
L 176.87808 191.058543 
L 177.2352 190.775624 
L 177.59232 187.100615 
L 177.94944 192.514157 
L 178.30656 186.954109 
L 178.66368 185.929222 
L 179.0208 187.67394 
L 179.37792 185.545052 
L 179.73504 186.196188 
L 180.09216 190.323411 
L 180.44928 191.003522 
L 180.8064 187.28684 
L 181.16352 190.77302 
L 181.52064 183.882052 
L 181.87776 188.397026 
L 182.23488 187.301165 
L 182.592 183.281053 
L 182.94912 189.222992 
L 183.30624 184.940473 
L 183.66336 182.791399 
L 184.3776 188.048994 
L 184.73472 187.071965 
L 185.09184 183.178825 
L 185.44896 183.70364 
L 185.80608 183.913957 
L 186.1632 179.090019 
L 186.52032 183.767777 
L 186.87744 179.283081 
L 187.23456 182.865954 
L 187.59168 182.753959 
L 187.9488 183.042087 
L 188.30592 176.902854 
L 188.66304 179.087089 
L 189.37728 175.66765 
L 189.7344 178.259495 
L 190.09152 178.288471 
L 190.44864 175.767599 
L 190.80576 179.984354 
L 191.16288 182.205052 
L 191.52 175.073163 
L 191.87712 178.889795 
L 192.23424 174.025486 
L 192.59136 180.283876 
L 192.94848 175.383104 
L 193.66272 172.941671 
L 194.01984 173.777078 
L 194.37696 177.158425 
L 194.73408 178.196335 
L 195.0912 170.695578 
L 195.80544 178.221404 
L 196.16256 170.70209 
L 196.51968 174.475421 
L 196.8768 170.705997 
L 197.23392 177.407159 
L 197.59104 169.921704 
L 197.94816 170.442287 
L 198.30528 169.324287 
L 198.6624 169.921378 
L 199.01952 167.292418 
L 199.37664 167.41125 
L 199.73376 168.330654 
L 200.09088 170.71088 
L 200.448 169.850404 
L 200.80512 167.278419 
L 201.16224 172.711169 
L 201.51936 167.923043 
L 201.87648 172.550013 
L 202.59072 163.630757 
L 202.94784 169.13969 
L 203.30496 166.708349 
L 203.66208 169.82208 
L 204.37632 167.847837 
L 204.73344 162.494525 
L 205.09056 167.234793 
L 205.44768 161.715442 
L 205.8048 169.004905 
L 206.16192 162.119797 
L 206.51904 162.644286 
L 206.87616 168.945652 
L 207.23328 163.380721 
L 207.5904 160.777155 
L 207.94752 168.054247 
L 208.30464 165.635278 
L 209.01888 158.176845 
L 209.376 166.278926 
L 209.73312 158.935418 
L 210.09024 158.166427 
L 210.44736 156.80067 
L 210.80448 162.615637 
L 211.1616 161.22709 
L 211.51872 157.034428 
L 211.87584 155.609743 
L 212.59008 163.931582 
L 212.9472 157.372367 
L 213.30432 159.190338 
L 213.66144 162.810977 
L 214.01856 162.486712 
L 214.37568 158.680498 
L 214.7328 152.97362 
L 215.08992 161.312063 
L 215.44704 153.251004 
L 215.80416 155.301104 
L 216.16128 153.71917 
L 216.5184 157.587567 
L 216.87552 151.229228 
L 217.23264 155.641974 
L 217.58976 156.798716 
L 217.94688 150.440703 
L 218.304 151.450288 
L 218.66112 158.591618 
L 219.01824 149.881703 
L 219.37536 158.292747 
L 219.73248 148.284141 
L 220.0896 152.936505 
L 220.44672 153.152357 
L 220.80384 149.694176 
L 221.16096 153.278352 
L 221.51808 149.839379 
L 221.8752 151.775205 
L 222.23232 155.002884 
L 222.58944 145.421424 
L 222.94656 149.211033 
L 223.30368 146.166323 
L 224.01792 151.25625 
L 224.37504 144.79438 
L 224.73216 151.616979 
L 225.08928 147.364738 
L 225.4464 145.570208 
L 225.80352 149.57632 
L 226.16064 142.209372 
L 226.51776 144.956187 
L 226.87488 145.361194 
L 227.232 150.012581 
L 227.58912 144.064457 
L 227.94624 142.24551 
L 228.30336 144.853959 
L 228.66048 143.16296 
L 229.0176 150.392193 
L 229.37472 146.022422 
L 229.73184 148.555991 
L 230.08896 141.029514 
L 230.44608 149.10327 
L 230.8032 148.932673 
L 231.87456 137.57003 
L 232.23168 142.238347 
L 232.94592 137.011356 
L 233.30304 137.147769 
L 233.66016 137.589239 
L 234.01728 143.730424 
L 234.3744 143.411368 
L 234.73152 142.922691 
L 235.08864 136.113114 
L 235.80288 143.032733 
L 236.16 137.086237 
L 236.51712 141.861014 
L 236.87424 143.166867 
L 237.23136 139.263308 
L 237.58848 133.875487 
L 237.9456 136.258643 
L 238.30272 132.264252 
L 238.65984 137.683328 
L 239.01696 134.535087 
L 239.37408 141.374941 
L 239.7312 135.318403 
L 240.08832 139.452138 
L 240.44544 139.227822 
L 240.80256 131.463029 
L 241.15968 134.797495 
L 241.5168 134.460858 
L 242.23104 138.806537 
L 242.58816 134.382721 
L 242.94528 132.533496 
L 243.3024 128.213537 
L 243.65952 132.545542 
L 244.01664 129.650593 
L 244.37376 137.246741 
L 244.73088 131.760598 
L 245.088 130.945051 
L 245.44512 132.117421 
L 245.80224 135.721782 
L 246.15936 131.06193 
L 246.51648 128.74877 
L 246.8736 129.604688 
L 247.23072 127.681559 
L 247.58784 127.716395 
L 247.94496 128.17805 
L 248.30208 124.066454 
L 249.01632 133.158912 
L 249.37344 123.346298 
L 249.73056 130.381819 
L 250.08768 121.009047 
L 250.4448 130.97305 
L 250.80192 124.194728 
L 251.15904 123.754235 
L 251.51616 124.562619 
L 251.87328 125.003764 
L 252.2304 120.193499 
L 252.58752 128.25814 
L 252.94464 118.801046 
L 253.30176 124.259841 
L 253.65888 124.222076 
L 254.016 123.784187 
L 254.37312 123.006731 
L 254.73024 116.340404 
L 255.08736 119.896907 
L 255.44448 116.447516 
L 255.8016 120.044715 
L 256.15872 119.931092 
L 256.51584 123.041892 
L 256.87296 120.290193 
L 257.23008 124.103243 
L 257.5872 116.457934 
L 257.94432 113.836137 
L 258.30144 117.174835 
L 258.65856 125.184128 
L 259.01568 113.300252 
L 259.3728 119.375999 
L 259.72992 114.420205 
L 260.08704 122.214624 
L 260.44416 114.879582 
L 260.80128 113.977433 
L 261.51552 120.560414 
L 262.22976 109.591384 
L 262.58688 114.315698 
L 262.944 113.082122 
L 263.30112 115.324307 
L 263.65824 115.602668 
L 264.01536 115.47472 
L 264.37248 114.674474 
L 264.7296 109.629801 
L 265.08672 112.02305 
L 265.80096 109.317581 
L 266.15808 107.01484 
L 266.5152 117.970522 
L 266.87232 114.447879 
L 267.22944 105.790705 
L 267.58656 107.758437 
L 267.94368 108.552822 
L 268.3008 106.877125 
L 268.65792 115.782707 
L 269.01504 106.681784 
L 269.37216 110.119129 
L 269.72928 112.472984 
L 270.0864 111.56758 
L 270.44352 114.490854 
L 270.80064 104.608243 
L 271.15776 102.380057 
L 271.51488 109.005036 
L 271.872 102.881757 
L 272.22912 108.978665 
L 272.58624 105.910188 
L 272.94336 101.590229 
L 273.30048 108.852996 
L 273.6576 101.277033 
L 274.01472 105.625317 
L 274.37184 100.950488 
L 274.72896 112.953197 
L 275.08608 106.955912 
L 275.4432 112.755252 
L 275.80032 105.536762 
L 276.15744 103.536148 
L 276.51456 99.876766 
L 277.2288 107.902012 
L 277.58592 102.827387 
L 277.94304 106.509559 
L 278.30016 104.212352 
L 278.65728 104.185656 
L 279.0144 100.343955 
L 279.37152 102.411962 
L 279.72864 107.233947 
L 280.44288 102.373871 
L 280.8 98.212463 
L 281.15712 109.135589 
L 281.51424 100.846632 
L 281.87136 105.997115 
L 282.22848 106.896659 
L 282.5856 103.787161 
L 282.94272 105.735684 
L 283.29984 96.381144 
L 283.65696 97.599744 
L 284.01408 105.700197 
L 284.3712 105.203055 
L 284.72832 98.811833 
L 285.44256 107.151578 
L 285.79968 104.138123 
L 286.1568 106.777175 
L 286.87104 103.120398 
L 287.22816 99.279349 
L 287.58528 100.907839 
L 287.9424 104.487457 
L 288.29952 96.938191 
L 288.65664 101.72241 
L 289.01376 96.821963 
L 289.37088 100.607991 
L 290.08512 96.627599 
L 290.44224 96.038321 
L 290.79936 98.344969 
L 291.15648 93.622608 
L 291.5136 100.03955 
L 291.87072 93.548704 
L 292.22784 103.918039 
L 292.58496 105.740568 
L 292.94208 106.040741 
L 293.2992 93.218904 
L 293.65632 101.219082 
L 294.01344 99.674914 
L 294.37056 101.544975 
L 294.72768 97.411241 
L 295.0848 98.195208 
L 295.44192 99.854301 
L 295.79904 102.948824 
L 296.15616 93.055794 
L 296.51328 99.335998 
L 296.8704 96.305938 
L 297.22752 91.016438 
L 297.58464 91.802033 
L 297.94176 103.781952 
L 298.29888 103.195604 
L 298.656 95.67922 
L 299.01312 102.842688 
L 299.37024 90.282608 
L 299.72736 102.259271 
L 300.08448 103.765348 
L 300.4416 102.701392 
L 300.79872 95.995997 
L 301.15584 97.776853 
L 301.51296 90.84291 
L 301.87008 102.47675 
L 302.2272 93.942316 
L 302.58432 94.219048 
L 302.94144 92.594139 
L 303.29856 97.010792 
L 303.65568 93.816321 
L 304.0128 94.981854 
L 304.36992 89.308183 
L 305.08416 102.016072 
L 305.44128 92.253595 
L 305.7984 100.179544 
L 306.15552 99.091822 
L 306.51264 101.042298 
L 306.86976 86.956933 
L 307.22688 97.812015 
L 307.584 91.451396 
L 307.94112 96.464489 
L 308.29824 99.900858 
L 308.65536 89.350507 
L 309.01248 92.728924 
L 309.3696 94.643263 
L 309.72672 99.3373 
L 310.08384 96.597972 
L 310.44096 90.780401 
L 310.79808 96.747733 
L 311.1552 98.90755 
L 311.51232 86.036227 
L 311.86944 90.655383 
L 312.22656 85.673544 
L 312.58368 96.722665 
L 312.9408 91.147641 
L 313.29792 88.907735 
L 313.65504 87.538397 
L 314.01216 99.104844 
L 314.36928 96.614902 
L 314.7264 92.610092 
L 315.08352 90.469158 
L 315.44064 98.016146 
L 315.79776 93.886969 
L 316.15488 85.29556 
L 316.512 86.401839 
L 316.86912 90.470135 
L 317.22624 96.716479 
L 317.58336 87.168877 
L 317.94048 88.712069 
L 318.2976 94.402994 
L 318.65472 88.373478 
L 319.01184 91.264846 
L 319.36896 91.560461 
L 319.72608 93.037563 
L 320.0832 92.13867 
L 320.79744 88.152418 
L 321.15456 94.111936 
L 321.51168 92.25327 
L 321.8688 88.562307 
L 322.22592 86.773638 
L 322.58304 88.437289 
L 322.94016 81.252008 
L 323.29728 88.162185 
L 323.6544 90.50725 
L 324.01152 87.02986 
L 324.36864 87.841175 
L 324.72576 92.557025 
L 325.08288 95.257935 
L 325.44 91.51944 
L 325.79712 81.118525 
L 326.15424 89.558871 
L 326.51136 88.320411 
L 326.86848 83.314805 
L 327.2256 85.718473 
L 327.58272 85.263654 
L 327.93984 93.610888 
L 328.29696 93.281738 
L 328.65408 83.897246 
L 329.0112 82.879847 
L 329.72544 92.738691 
L 330.08256 80.536084 
L 330.43968 79.089261 
L 330.7968 93.226392 
L 331.51104 80.927091 
L 331.86816 88.122791 
L 332.22528 83.931431 
L 332.5824 81.796357 
L 332.93952 89.692679 
L 333.29664 91.562415 
L 333.65376 80.591431 
L 334.01088 77.532396 
L 334.368 79.199954 
L 334.72512 79.461059 
L 335.08224 81.637806 
L 335.43936 78.251575 
L 335.79648 84.204582 
L 336.51072 91.109224 
L 336.86784 87.675461 
L 337.22496 82.96189 
L 337.58208 84.720282 
L 337.9392 83.063467 
L 338.29632 86.425931 
L 338.65344 75.84628 
L 339.01056 88.460079 
L 339.36768 85.598989 
L 339.7248 87.736667 
L 340.08192 81.675572 
L 340.43904 86.93512 
L 340.79616 80.21833 
L 341.15328 85.730519 
L 341.5104 83.819761 
L 341.86752 85.283188 
L 342.22464 87.306267 
L 342.58176 87.78127 
L 342.93888 82.502188 
L 343.296 89.431899 
L 343.65312 83.061514 
L 344.01024 87.777689 
L 344.36736 73.906872 
L 344.72448 81.345771 
L 345.0816 82.381077 
L 345.43872 82.826128 
L 345.79584 74.999478 
L 346.15296 83.531308 
L 346.51008 87.706064 
L 346.8672 83.80218 
L 347.22432 84.000451 
L 347.58144 86.870332 
L 347.93856 86.992745 
L 348.29568 80.65687 
L 348.6528 86.988187 
L 349.00992 87.50291 
L 349.36704 86.781126 
L 349.72416 82.986959 
L 350.08128 80.913743 
L 350.4384 80.218981 
L 350.79552 78.017166 
L 351.15264 77.11632 
L 351.50976 85.815817 
L 352.224 73.24597 
L 352.58112 78.983451 
L 352.93824 82.85315 
L 353.29536 75.052871 
L 353.65248 82.834267 
L 354.0096 81.208382 
L 354.36672 70.602685 
L 354.72384 81.031273 
L 355.08096 73.589769 
L 355.43808 75.875907 
L 355.7952 72.014021 
L 356.15232 79.159258 
L 356.50944 80.787748 
L 356.86656 74.848089 
L 357.22368 74.194674 
L 357.5808 79.723792 
L 357.93792 75.93223 
L 358.29504 81.389072 
L 358.65216 84.311369 
L 359.00928 74.082679 
L 359.3664 74.970177 
L 359.72352 75.238445 
L 360.08064 72.10225 
L 360.43776 81.554786 
L 360.79488 82.289267 
L 361.152 80.746075 
L 361.50912 72.568789 
L 361.86624 82.089694 
L 362.22336 69.62826 
L 362.58048 83.005842 
L 362.9376 75.021617 
L 363.29472 81.495207 
L 363.65184 76.972744 
L 364.00896 70.078195 
L 364.36608 76.863354 
L 364.7232 71.003133 
L 365.08032 78.276969 
L 365.43744 68.644394 
L 365.79456 82.084159 
L 366.15168 80.452413 
L 366.5088 69.859413 
L 366.86592 76.23631 
L 367.22304 69.199162 
L 367.58016 71.900072 
L 367.93728 70.7264 
L 368.2944 73.447171 
L 368.65152 81.2761 
L 369.00864 80.492784 
L 369.36576 68.150182 
L 369.72288 76.811263 
L 370.08 71.539018 
L 370.79424 78.892943 
L 371.15136 79.33539 
L 371.50848 66.714103 
L 371.8656 76.307284 
L 372.22272 70.17847 
L 372.57984 72.10811 
L 372.93696 73.229366 
L 373.29408 72.828592 
L 373.6512 71.049364 
L 374.00832 77.493979 
L 374.36544 66.154777 
L 374.72256 79.392039 
L 375.07968 65.817163 
L 375.4368 74.922318 
L 375.79392 78.165625 
L 376.15104 70.916532 
L 376.50816 75.430855 
L 376.86528 68.711787 
L 377.2224 66.727777 
L 377.57952 71.638641 
L 377.93664 69.214464 
L 378.29376 69.953828 
L 379.008 78.295852 
L 379.36512 77.521326 
L 379.72224 77.727411 
L 380.43648 70.530409 
L 380.7936 76.055294 
L 381.15072 72.035183 
L 381.50784 73.436427 
L 381.86496 62.147689 
L 382.22208 72.929518 
L 382.5792 67.456723 
L 382.93632 76.855866 
L 383.29344 63.691531 
L 383.65056 62.28345 
L 384.00768 76.906654 
L 384.72192 71.005086 
L 385.07904 64.806275 
L 385.43616 67.201803 
L 385.79328 67.671272 
L 386.1504 69.740907 
L 386.50752 67.292311 
L 386.86464 69.661143 
L 387.22176 63.511492 
L 387.936 69.889691 
L 388.29312 64.426338 
L 388.65024 62.862961 
L 389.00736 64.691024 
L 389.36448 63.474377 
L 389.7216 59.489753 
L 390.07872 62.29745 
L 390.43584 63.43303 
L 390.79296 66.47774 
L 391.15008 64.230671 
L 391.5072 67.544952 
L 391.86432 68.154089 
L 392.22144 68.14888 
L 392.57856 60.777699 
L 392.93568 64.778928 
L 393.2928 71.39707 
L 393.64992 63.268293 
L 394.00704 58.563838 
L 394.36416 73.055513 
L 394.72128 64.149931 
L 395.0784 64.928363 
L 395.43552 58.214178 
L 395.79264 57.772057 
L 396.14976 70.326278 
L 396.50688 65.962367 
L 396.864 69.920946 
L 397.22112 71.876306 
L 397.57824 59.424314 
L 397.93536 61.310003 
L 398.29248 65.642985 
L 398.6496 71.923839 
L 399.00672 59.785694 
L 399.36384 61.641756 
L 399.72096 62.40912 
L 400.07808 65.443737 
L 400.4352 67.473652 
L 400.79232 63.893058 
L 401.14944 64.276902 
L 401.50656 61.751798 
L 401.86368 57.154781 
L 402.2208 64.808554 
L 402.57792 61.758635 
L 402.93504 68.4611 
L 403.29216 58.584023 
L 403.64928 56.336954 
L 404.0064 58.255525 
L 404.36352 63.011094 
L 405.07776 67.653366 
L 405.43488 58.578814 
L 405.792 54.703581 
L 406.14912 64.340713 
L 407.22048 55.194211 
L 407.5776 55.681586 
L 407.93472 58.611045 
L 408.29184 67.275382 
L 408.64896 53.568 
L 409.00608 69.893598 
L 409.3632 64.615493 
L 409.72032 62.731106 
L 410.07744 54.522239 
L 410.43456 67.493512 
L 410.79168 64.009285 
L 411.1488 54.037794 
L 411.50592 58.036418 
L 411.86304 53.760085 
L 412.22016 66.726149 
L 412.9344 62.008671 
L 413.29152 60.901089 
L 414.00576 67.752013 
L 414.36288 58.17218 
L 414.72 63.351638 
L 414.72 63.351638 
" style="fill:none;stroke:#000080;stroke-linecap:square;stroke-width:0.5;"/>
   </g>
   <g id="patch_3">
    <path d="M 57.6 307.584 
L 57.6 41.472 
" style="fill:none;stroke:#000000;stroke-linecap:square;stroke-linejoin:miter;stroke-width:0.8;"/>
   </g>
   <g id="patch_4">
    <path d="M 414.72 307.584 
L 414.72 41.472 
" style="fill:none;stroke:#000000;stroke-linecap:square;stroke-linejoin:miter;stroke-width:0.8;"/>
   </g>
   <g id="patch_5">
    <path d="M 57.6 307.584 
L 414.72 307.584 
" style="fill:none;stroke:#000000;stroke-linecap:square;stroke-linejoin:miter;stroke-width:0.8;"/>
   </g>
   <g id="patch_6">
    <path d="M 57.6 41.472 
L 414.72 41.472 
" style="fill:none;stroke:#000000;stroke-linecap:square;stroke-linejoin:miter;stroke-width:0.8;"/>
   </g>
   <g id="text_17">
    <!-- Test -->
    <defs>
     <path d="M -0.296875 72.90625 
L 61.375 72.90625 
L 61.375 64.59375 
L 35.5 64.59375 
L 35.5 0 
L 25.59375 0 
L 25.59375 64.59375 
L -0.296875 64.59375 
z
" id="DejaVuSans-54"/>
    </defs>
    <g transform="translate(223.341563 35.472)scale(0.12 -0.12)">
     <use xlink:href="#DejaVuSans-54"/>
     <use x="60.818359" xlink:href="#DejaVuSans-65"/>
     <use x="122.341797" xlink:href="#DejaVuSans-73"/>
     <use x="174.441406" xlink:href="#DejaVuSans-74"/>
    </g>
   </g>
   <g id="legend_1">
    <g id="patch_7">
     <path d="M 64.6 64.150125 
L 306.276563 64.150125 
Q 308.276563 64.150125 308.276563 62.150125 
L 308.276563 48.472 
Q 308.276563 46.472 306.276563 46.472 
L 64.6 46.472 
Q 62.6 46.472 62.6 48.472 
L 62.6 62.150125 
Q 62.6 64.150125 64.6 64.150125 
z
" style="fill:#ffffff;opacity:0.8;stroke:#cccccc;stroke-linejoin:miter;"/>
    </g>
    <g id="line2d_30">
     <path d="M 66.6 54.570438 
L 86.6 54.570438 
" style="fill:none;stroke:#000080;stroke-linecap:square;stroke-width:0.5;"/>
    </g>
    <g id="line2d_31"/>
    <g id="text_18">
     <!-- Successful download requests per second -->
     <g transform="translate(94.6 58.070438)scale(0.1 -0.1)">
      <use xlink:href="#DejaVuSans-53"/>
      <use x="63.476562" xlink:href="#DejaVuSans-75"/>
      <use x="126.855469" xlink:href="#DejaVuSans-63"/>
      <use x="181.835938" xlink:href="#DejaVuSans-63"/>
      <use x="236.816406" xlink:href="#DejaVuSans-65"/>
      <use x="298.339844" xlink:href="#DejaVuSans-73"/>
      <use x="350.439453" xlink:href="#DejaVuSans-73"/>
      <use x="402.539062" xlink:href="#DejaVuSans-66"/>
      <use x="437.744141" xlink:href="#DejaVuSans-75"/>
      <use x="501.123047" xlink:href="#DejaVuSans-6c"/>
      <use x="528.90625" xlink:href="#DejaVuSans-20"/>
      <use x="560.693359" xlink:href="#DejaVuSans-64"/>
      <use x="624.169922" xlink:href="#DejaVuSans-6f"/>
      <use x="685.351562" xlink:href="#DejaVuSans-77"/>
      <use x="767.138672" xlink:href="#DejaVuSans-6e"/>
      <use x="830.517578" xlink:href="#DejaVuSans-6c"/>
      <use x="858.300781" xlink:href="#DejaVuSans-6f"/>
      <use x="919.482422" xlink:href="#DejaVuSans-61"/>
      <use x="980.761719" xlink:href="#DejaVuSans-64"/>
      <use x="1044.238281" xlink:href="#DejaVuSans-20"/>
      <use x="1076.025391" xlink:href="#DejaVuSans-72"/>
      <use x="1117.107422" xlink:href="#DejaVuSans-65"/>
      <use x="1178.630859" xlink:href="#DejaVuSans-71"/>
      <use x="1242.107422" xlink:href="#DejaVuSans-75"/>
      <use x="1305.486328" xlink:href="#DejaVuSans-65"/>
      <use x="1367.009766" xlink:href="#DejaVuSans-73"/>
      <use x="1419.109375" xlink:href="#DejaVuSans-74"/>
      <use x="1458.318359" xlink:href="#DejaVuSans-73"/>
      <use x="1510.417969" xlink:href="#DejaVuSans-20"/>
      <use x="1542.205078" xlink:href="#DejaVuSans-70"/>
      <use x="1605.681641" xlink:href="#DejaVuSans-65"/>
      <use x="1667.205078" xlink:href="#DejaVuSans-72"/>
      <use x="1708.318359" xlink:href="#DejaVuSans-20"/>
      <use x="1740.105469" xlink:href="#DejaVuSans-73"/>
      <use x="1792.205078" xlink:href="#DejaVuSans-65"/>
      <use x="1853.728516" xlink:href="#DejaVuSans-63"/>
      <use x="1908.708984" xlink:href="#DejaVuSans-6f"/>
      <use x="1969.890625" xlink:href="#DejaVuSans-6e"/>
      <use x="2033.269531" xlink:href="#DejaVuSans-64"/>
     </g>
    </g>
   </g>
  </g>
 </g>
 <defs>
  <clipPath id="pd8cfa0ccec">
   <rect height="266.112" width="357.12" x="57.6" y="41.472"/>
  </clipPath>
 </defs>
</svg>
