<?xml version="1.0" encoding="utf-8" standalone="no"?>
<!DOCTYPE svg PUBLIC "-//W3C//DTD SVG 1.1//EN"
  "http://www.w3.org/Graphics/SVG/1.1/DTD/svg11.dtd">
<!-- Created with matplotlib (http://matplotlib.org/) -->
<svg height="345pt" version="1.1" viewBox="0 0 460 345" width="460pt" xmlns="http://www.w3.org/2000/svg" xmlns:xlink="http://www.w3.org/1999/xlink">
 <defs>
  <style type="text/css">
*{stroke-linecap:butt;stroke-linejoin:round;}
  </style>
 </defs>
 <g id="figure_1">
  <g id="patch_1">
   <path d="M 0 345.6 
L 460.8 345.6 
L 460.8 0 
L 0 0 
z
" style="fill:#ffffff;"/>
  </g>
  <g id="axes_1">
   <g id="patch_2">
    <path d="M 57.6 307.584 
L 414.72 307.584 
L 414.72 41.472 
L 57.6 41.472 
z
" style="fill:#ffffff;"/>
   </g>
   <g id="matplotlib.axis_1">
    <g id="xtick_1">
     <g id="line2d_1">
      <path clip-path="url(#p9a4e688229)" d="M 57.6 307.584 
L 57.6 41.472 
" style="fill:none;stroke:#b0b0b0;stroke-linecap:square;stroke-width:0.8;"/>
     </g>
     <g id="line2d_2">
      <defs>
       <path d="M 0 0 
L 0 3.5 
" id="mda6b9f441a" style="stroke:#000000;stroke-width:0.8;"/>
      </defs>
      <g>
       <use style="stroke:#000000;stroke-width:0.8;" x="57.6" xlink:href="#mda6b9f441a" y="307.584"/>
      </g>
     </g>
     <g id="text_1">
      <!-- 0 -->
      <defs>
       <path d="M 31.78125 66.40625 
Q 24.171875 66.40625 20.328125 58.90625 
Q 16.5 51.421875 16.5 36.375 
Q 16.5 21.390625 20.328125 13.890625 
Q 24.171875 6.390625 31.78125 6.390625 
Q 39.453125 6.390625 43.28125 13.890625 
Q 47.125 21.390625 47.125 36.375 
Q 47.125 51.421875 43.28125 58.90625 
Q 39.453125 66.40625 31.78125 66.40625 
M 31.78125 74.21875 
Q 44.046875 74.21875 50.515625 64.515625 
Q 56.984375 54.828125 56.984375 36.375 
Q 56.984375 17.96875 50.515625 8.265625 
Q 44.046875 -1.421875 31.78125 -1.421875 
Q 19.53125 -1.421875 13.0625 8.265625 
Q 6.59375 17.96875 6.59375 36.375 
Q 6.59375 54.828125 13.0625 64.515625 
Q 19.53125 74.21875 31.78125 74.21875 
" id="DejaVuSans-30"/>
      </defs>
      <g transform="translate(54.41875 322.182437)scale(0.1 -0.1)">
       <use xlink:href="#DejaVuSans-30"/>
      </g>
     </g>
    </g>
    <g id="xtick_2">
     <g id="line2d_3">
      <path clip-path="url(#p9a4e688229)" d="M 129.024 307.584 
L 129.024 41.472 
" style="fill:none;stroke:#b0b0b0;stroke-linecap:square;stroke-width:0.8;"/>
     </g>
     <g id="line2d_4">
      <g>
       <use style="stroke:#000000;stroke-width:0.8;" x="129.024" xlink:href="#mda6b9f441a" y="307.584"/>
      </g>
     </g>
     <g id="text_2">
      <!-- 200 -->
      <defs>
       <path d="M 19.1875 8.296875 
L 53.609375 8.296875 
L 53.609375 0 
L 7.328125 0 
L 7.328125 8.296875 
Q 12.9375 14.109375 22.625 23.890625 
Q 32.328125 33.6875 34.8125 36.53125 
Q 39.546875 41.84375 41.421875 45.53125 
Q 43.3125 49.21875 43.3125 52.78125 
Q 43.3125 58.59375 39.234375 62.25 
Q 35.15625 65.921875 28.609375 65.921875 
Q 23.96875 65.921875 18.8125 64.3125 
Q 13.671875 62.703125 7.8125 59.421875 
L 7.8125 69.390625 
Q 13.765625 71.78125 18.9375 73 
Q 24.125 74.21875 28.421875 74.21875 
Q 39.75 74.21875 46.484375 68.546875 
Q 53.21875 62.890625 53.21875 53.421875 
Q 53.21875 48.921875 51.53125 44.890625 
Q 49.859375 40.875 45.40625 35.40625 
Q 44.1875 33.984375 37.640625 27.21875 
Q 31.109375 20.453125 19.1875 8.296875 
" id="DejaVuSans-32"/>
      </defs>
      <g transform="translate(119.48025 322.182437)scale(0.1 -0.1)">
       <use xlink:href="#DejaVuSans-32"/>
       <use x="63.623047" xlink:href="#DejaVuSans-30"/>
       <use x="127.246094" xlink:href="#DejaVuSans-30"/>
      </g>
     </g>
    </g>
    <g id="xtick_3">
     <g id="line2d_5">
      <path clip-path="url(#p9a4e688229)" d="M 200.448 307.584 
L 200.448 41.472 
" style="fill:none;stroke:#b0b0b0;stroke-linecap:square;stroke-width:0.8;"/>
     </g>
     <g id="line2d_6">
      <g>
       <use style="stroke:#000000;stroke-width:0.8;" x="200.448" xlink:href="#mda6b9f441a" y="307.584"/>
      </g>
     </g>
     <g id="text_3">
      <!-- 400 -->
      <defs>
       <path d="M 37.796875 64.3125 
L 12.890625 25.390625 
L 37.796875 25.390625 
z
M 35.203125 72.90625 
L 47.609375 72.90625 
L 47.609375 25.390625 
L 58.015625 25.390625 
L 58.015625 17.1875 
L 47.609375 17.1875 
L 47.609375 0 
L 37.796875 0 
L 37.796875 17.1875 
L 4.890625 17.1875 
L 4.890625 26.703125 
z
" id="DejaVuSans-34"/>
      </defs>
      <g transform="translate(190.90425 322.182437)scale(0.1 -0.1)">
       <use xlink:href="#DejaVuSans-34"/>
       <use x="63.623047" xlink:href="#DejaVuSans-30"/>
       <use x="127.246094" xlink:href="#DejaVuSans-30"/>
      </g>
     </g>
    </g>
    <g id="xtick_4">
     <g id="line2d_7">
      <path clip-path="url(#p9a4e688229)" d="M 271.872 307.584 
L 271.872 41.472 
" style="fill:none;stroke:#b0b0b0;stroke-linecap:square;stroke-width:0.8;"/>
     </g>
     <g id="line2d_8">
      <g>
       <use style="stroke:#000000;stroke-width:0.8;" x="271.872" xlink:href="#mda6b9f441a" y="307.584"/>
      </g>
     </g>
     <g id="text_4">
      <!-- 600 -->
      <defs>
       <path d="M 33.015625 40.375 
Q 26.375 40.375 22.484375 35.828125 
Q 18.609375 31.296875 18.609375 23.390625 
Q 18.609375 15.53125 22.484375 10.953125 
Q 26.375 6.390625 33.015625 6.390625 
Q 39.65625 6.390625 43.53125 10.953125 
Q 47.40625 15.53125 47.40625 23.390625 
Q 47.40625 31.296875 43.53125 35.828125 
Q 39.65625 40.375 33.015625 40.375 
M 52.59375 71.296875 
L 52.59375 62.3125 
Q 48.875 64.0625 45.09375 64.984375 
Q 41.3125 65.921875 37.59375 65.921875 
Q 27.828125 65.921875 22.671875 59.328125 
Q 17.53125 52.734375 16.796875 39.40625 
Q 19.671875 43.65625 24.015625 45.921875 
Q 28.375 48.1875 33.59375 48.1875 
Q 44.578125 48.1875 50.953125 41.515625 
Q 57.328125 34.859375 57.328125 23.390625 
Q 57.328125 12.15625 50.6875 5.359375 
Q 44.046875 -1.421875 33.015625 -1.421875 
Q 20.359375 -1.421875 13.671875 8.265625 
Q 6.984375 17.96875 6.984375 36.375 
Q 6.984375 53.65625 15.1875 63.9375 
Q 23.390625 74.21875 37.203125 74.21875 
Q 40.921875 74.21875 44.703125 73.484375 
Q 48.484375 72.75 52.59375 71.296875 
" id="DejaVuSans-36"/>
      </defs>
      <g transform="translate(262.32825 322.182437)scale(0.1 -0.1)">
       <use xlink:href="#DejaVuSans-36"/>
       <use x="63.623047" xlink:href="#DejaVuSans-30"/>
       <use x="127.246094" xlink:href="#DejaVuSans-30"/>
      </g>
     </g>
    </g>
    <g id="xtick_5">
     <g id="line2d_9">
      <path clip-path="url(#p9a4e688229)" d="M 343.296 307.584 
L 343.296 41.472 
" style="fill:none;stroke:#b0b0b0;stroke-linecap:square;stroke-width:0.8;"/>
     </g>
     <g id="line2d_10">
      <g>
       <use style="stroke:#000000;stroke-width:0.8;" x="343.296" xlink:href="#mda6b9f441a" y="307.584"/>
      </g>
     </g>
     <g id="text_5">
      <!-- 800 -->
      <defs>
       <path d="M 31.78125 34.625 
Q 24.75 34.625 20.71875 30.859375 
Q 16.703125 27.09375 16.703125 20.515625 
Q 16.703125 13.921875 20.71875 10.15625 
Q 24.75 6.390625 31.78125 6.390625 
Q 38.8125 6.390625 42.859375 10.171875 
Q 46.921875 13.96875 46.921875 20.515625 
Q 46.921875 27.09375 42.890625 30.859375 
Q 38.875 34.625 31.78125 34.625 
M 21.921875 38.8125 
Q 15.578125 40.375 12.03125 44.71875 
Q 8.5 49.078125 8.5 55.328125 
Q 8.5 64.0625 14.71875 69.140625 
Q 20.953125 74.21875 31.78125 74.21875 
Q 42.671875 74.21875 48.875 69.140625 
Q 55.078125 64.0625 55.078125 55.328125 
Q 55.078125 49.078125 51.53125 44.71875 
Q 48 40.375 41.703125 38.8125 
Q 48.828125 37.15625 52.796875 32.3125 
Q 56.78125 27.484375 56.78125 20.515625 
Q 56.78125 9.90625 50.3125 4.234375 
Q 43.84375 -1.421875 31.78125 -1.421875 
Q 19.734375 -1.421875 13.25 4.234375 
Q 6.78125 9.90625 6.78125 20.515625 
Q 6.78125 27.484375 10.78125 32.3125 
Q 14.796875 37.15625 21.921875 38.8125 
M 18.3125 54.390625 
Q 18.3125 48.734375 21.84375 45.5625 
Q 25.390625 42.390625 31.78125 42.390625 
Q 38.140625 42.390625 41.71875 45.5625 
Q 45.3125 48.734375 45.3125 54.390625 
Q 45.3125 60.0625 41.71875 63.234375 
Q 38.140625 66.40625 31.78125 66.40625 
Q 25.390625 66.40625 21.84375 63.234375 
Q 18.3125 60.0625 18.3125 54.390625 
" id="DejaVuSans-38"/>
      </defs>
      <g transform="translate(333.75225 322.182437)scale(0.1 -0.1)">
       <use xlink:href="#DejaVuSans-38"/>
       <use x="63.623047" xlink:href="#DejaVuSans-30"/>
       <use x="127.246094" xlink:href="#DejaVuSans-30"/>
      </g>
     </g>
    </g>
    <g id="xtick_6">
     <g id="line2d_11">
      <path clip-path="url(#p9a4e688229)" d="M 414.72 307.584 
L 414.72 41.472 
" style="fill:none;stroke:#b0b0b0;stroke-linecap:square;stroke-width:0.8;"/>
     </g>
     <g id="line2d_12">
      <g>
       <use style="stroke:#000000;stroke-width:0.8;" x="414.72" xlink:href="#mda6b9f441a" y="307.584"/>
      </g>
     </g>
     <g id="text_6">
      <!-- 1000 -->
      <defs>
       <path d="M 12.40625 8.296875 
L 28.515625 8.296875 
L 28.515625 63.921875 
L 10.984375 60.40625 
L 10.984375 69.390625 
L 28.421875 72.90625 
L 38.28125 72.90625 
L 38.28125 8.296875 
L 54.390625 8.296875 
L 54.390625 0 
L 12.40625 0 
z
" id="DejaVuSans-31"/>
      </defs>
      <g transform="translate(401.995 322.182437)scale(0.1 -0.1)">
       <use xlink:href="#DejaVuSans-31"/>
       <use x="63.623047" xlink:href="#DejaVuSans-30"/>
       <use x="127.246094" xlink:href="#DejaVuSans-30"/>
       <use x="190.869141" xlink:href="#DejaVuSans-30"/>
      </g>
     </g>
    </g>
    <g id="text_7">
     <!-- Number of clients -->
     <defs>
      <path d="M 9.8125 72.90625 
L 23.09375 72.90625 
L 55.421875 11.921875 
L 55.421875 72.90625 
L 64.984375 72.90625 
L 64.984375 0 
L 51.703125 0 
L 19.390625 60.984375 
L 19.390625 0 
L 9.8125 0 
z
" id="DejaVuSans-4e"/>
      <path d="M 8.5 21.578125 
L 8.5 54.6875 
L 17.484375 54.6875 
L 17.484375 21.921875 
Q 17.484375 14.15625 20.5 10.265625 
Q 23.53125 6.390625 29.59375 6.390625 
Q 36.859375 6.390625 41.078125 11.03125 
Q 45.3125 15.671875 45.3125 23.6875 
L 45.3125 54.6875 
L 54.296875 54.6875 
L 54.296875 0 
L 45.3125 0 
L 45.3125 8.40625 
Q 42.046875 3.421875 37.71875 1 
Q 33.40625 -1.421875 27.6875 -1.421875 
Q 18.265625 -1.421875 13.375 4.4375 
Q 8.5 10.296875 8.5 21.578125 
M 31.109375 56 
z
" id="DejaVuSans-75"/>
      <path d="M 52 44.1875 
Q 55.375 50.25 60.0625 53.125 
Q 64.75 56 71.09375 56 
Q 79.640625 56 84.28125 50.015625 
Q 88.921875 44.046875 88.921875 33.015625 
L 88.921875 0 
L 79.890625 0 
L 79.890625 32.71875 
Q 79.890625 40.578125 77.09375 44.375 
Q 74.3125 48.1875 68.609375 48.1875 
Q 61.625 48.1875 57.5625 43.546875 
Q 53.515625 38.921875 53.515625 30.90625 
L 53.515625 0 
L 44.484375 0 
L 44.484375 32.71875 
Q 44.484375 40.625 41.703125 44.40625 
Q 38.921875 48.1875 33.109375 48.1875 
Q 26.21875 48.1875 22.15625 43.53125 
Q 18.109375 38.875 18.109375 30.90625 
L 18.109375 0 
L 9.078125 0 
L 9.078125 54.6875 
L 18.109375 54.6875 
L 18.109375 46.1875 
Q 21.1875 51.21875 25.484375 53.609375 
Q 29.78125 56 35.6875 56 
Q 41.65625 56 45.828125 52.96875 
Q 50 49.953125 52 44.1875 
" id="DejaVuSans-6d"/>
      <path d="M 48.6875 27.296875 
Q 48.6875 37.203125 44.609375 42.84375 
Q 40.53125 48.484375 33.40625 48.484375 
Q 26.265625 48.484375 22.1875 42.84375 
Q 18.109375 37.203125 18.109375 27.296875 
Q 18.109375 17.390625 22.1875 11.75 
Q 26.265625 6.109375 33.40625 6.109375 
Q 40.53125 6.109375 44.609375 11.75 
Q 48.6875 17.390625 48.6875 27.296875 
M 18.109375 46.390625 
Q 20.953125 51.265625 25.265625 53.625 
Q 29.59375 56 35.59375 56 
Q 45.5625 56 51.78125 48.09375 
Q 58.015625 40.1875 58.015625 27.296875 
Q 58.015625 14.40625 51.78125 6.484375 
Q 45.5625 -1.421875 35.59375 -1.421875 
Q 29.59375 -1.421875 25.265625 0.953125 
Q 20.953125 3.328125 18.109375 8.203125 
L 18.109375 0 
L 9.078125 0 
L 9.078125 75.984375 
L 18.109375 75.984375 
z
" id="DejaVuSans-62"/>
      <path d="M 56.203125 29.59375 
L 56.203125 25.203125 
L 14.890625 25.203125 
Q 15.484375 15.921875 20.484375 11.0625 
Q 25.484375 6.203125 34.421875 6.203125 
Q 39.59375 6.203125 44.453125 7.46875 
Q 49.3125 8.734375 54.109375 11.28125 
L 54.109375 2.78125 
Q 49.265625 0.734375 44.1875 -0.34375 
Q 39.109375 -1.421875 33.890625 -1.421875 
Q 20.796875 -1.421875 13.15625 6.1875 
Q 5.515625 13.8125 5.515625 26.8125 
Q 5.515625 40.234375 12.765625 48.109375 
Q 20.015625 56 32.328125 56 
Q 43.359375 56 49.78125 48.890625 
Q 56.203125 41.796875 56.203125 29.59375 
M 47.21875 32.234375 
Q 47.125 39.59375 43.09375 43.984375 
Q 39.0625 48.390625 32.421875 48.390625 
Q 24.90625 48.390625 20.390625 44.140625 
Q 15.875 39.890625 15.1875 32.171875 
z
" id="DejaVuSans-65"/>
      <path d="M 41.109375 46.296875 
Q 39.59375 47.171875 37.8125 47.578125 
Q 36.03125 48 33.890625 48 
Q 26.265625 48 22.1875 43.046875 
Q 18.109375 38.09375 18.109375 28.8125 
L 18.109375 0 
L 9.078125 0 
L 9.078125 54.6875 
L 18.109375 54.6875 
L 18.109375 46.1875 
Q 20.953125 51.171875 25.484375 53.578125 
Q 30.03125 56 36.53125 56 
Q 37.453125 56 38.578125 55.875 
Q 39.703125 55.765625 41.0625 55.515625 
z
" id="DejaVuSans-72"/>
      <path id="DejaVuSans-20"/>
      <path d="M 30.609375 48.390625 
Q 23.390625 48.390625 19.1875 42.75 
Q 14.984375 37.109375 14.984375 27.296875 
Q 14.984375 17.484375 19.15625 11.84375 
Q 23.34375 6.203125 30.609375 6.203125 
Q 37.796875 6.203125 41.984375 11.859375 
Q 46.1875 17.53125 46.1875 27.296875 
Q 46.1875 37.015625 41.984375 42.703125 
Q 37.796875 48.390625 30.609375 48.390625 
M 30.609375 56 
Q 42.328125 56 49.015625 48.375 
Q 55.71875 40.765625 55.71875 27.296875 
Q 55.71875 13.875 49.015625 6.21875 
Q 42.328125 -1.421875 30.609375 -1.421875 
Q 18.84375 -1.421875 12.171875 6.21875 
Q 5.515625 13.875 5.515625 27.296875 
Q 5.515625 40.765625 12.171875 48.375 
Q 18.84375 56 30.609375 56 
" id="DejaVuSans-6f"/>
      <path d="M 37.109375 75.984375 
L 37.109375 68.5 
L 28.515625 68.5 
Q 23.6875 68.5 21.796875 66.546875 
Q 19.921875 64.59375 19.921875 59.515625 
L 19.921875 54.6875 
L 34.71875 54.6875 
L 34.71875 47.703125 
L 19.921875 47.703125 
L 19.921875 0 
L 10.890625 0 
L 10.890625 47.703125 
L 2.296875 47.703125 
L 2.296875 54.6875 
L 10.890625 54.6875 
L 10.890625 58.5 
Q 10.890625 67.625 15.140625 71.796875 
Q 19.390625 75.984375 28.609375 75.984375 
z
" id="DejaVuSans-66"/>
      <path d="M 48.78125 52.59375 
L 48.78125 44.1875 
Q 44.96875 46.296875 41.140625 47.34375 
Q 37.3125 48.390625 33.40625 48.390625 
Q 24.65625 48.390625 19.8125 42.84375 
Q 14.984375 37.3125 14.984375 27.296875 
Q 14.984375 17.28125 19.8125 11.734375 
Q 24.65625 6.203125 33.40625 6.203125 
Q 37.3125 6.203125 41.140625 7.25 
Q 44.96875 8.296875 48.78125 10.40625 
L 48.78125 2.09375 
Q 45.015625 0.34375 40.984375 -0.53125 
Q 36.96875 -1.421875 32.421875 -1.421875 
Q 20.0625 -1.421875 12.78125 6.34375 
Q 5.515625 14.109375 5.515625 27.296875 
Q 5.515625 40.671875 12.859375 48.328125 
Q 20.21875 56 33.015625 56 
Q 37.15625 56 41.109375 55.140625 
Q 45.0625 54.296875 48.78125 52.59375 
" id="DejaVuSans-63"/>
      <path d="M 9.421875 75.984375 
L 18.40625 75.984375 
L 18.40625 0 
L 9.421875 0 
z
" id="DejaVuSans-6c"/>
      <path d="M 9.421875 54.6875 
L 18.40625 54.6875 
L 18.40625 0 
L 9.421875 0 
z
M 9.421875 75.984375 
L 18.40625 75.984375 
L 18.40625 64.59375 
L 9.421875 64.59375 
z
" id="DejaVuSans-69"/>
      <path d="M 54.890625 33.015625 
L 54.890625 0 
L 45.90625 0 
L 45.90625 32.71875 
Q 45.90625 40.484375 42.875 44.328125 
Q 39.84375 48.1875 33.796875 48.1875 
Q 26.515625 48.1875 22.3125 43.546875 
Q 18.109375 38.921875 18.109375 30.90625 
L 18.109375 0 
L 9.078125 0 
L 9.078125 54.6875 
L 18.109375 54.6875 
L 18.109375 46.1875 
Q 21.34375 51.125 25.703125 53.5625 
Q 30.078125 56 35.796875 56 
Q 45.21875 56 50.046875 50.171875 
Q 54.890625 44.34375 54.890625 33.015625 
" id="DejaVuSans-6e"/>
      <path d="M 18.3125 70.21875 
L 18.3125 54.6875 
L 36.8125 54.6875 
L 36.8125 47.703125 
L 18.3125 47.703125 
L 18.3125 18.015625 
Q 18.3125 11.328125 20.140625 9.421875 
Q 21.96875 7.515625 27.59375 7.515625 
L 36.8125 7.515625 
L 36.8125 0 
L 27.59375 0 
Q 17.1875 0 13.234375 3.875 
Q 9.28125 7.765625 9.28125 18.015625 
L 9.28125 47.703125 
L 2.6875 47.703125 
L 2.6875 54.6875 
L 9.28125 54.6875 
L 9.28125 70.21875 
z
" id="DejaVuSans-74"/>
      <path d="M 44.28125 53.078125 
L 44.28125 44.578125 
Q 40.484375 46.53125 36.375 47.5 
Q 32.28125 48.484375 27.875 48.484375 
Q 21.1875 48.484375 17.84375 46.4375 
Q 14.5 44.390625 14.5 40.28125 
Q 14.5 37.15625 16.890625 35.375 
Q 19.28125 33.59375 26.515625 31.984375 
L 29.59375 31.296875 
Q 39.15625 29.25 43.1875 25.515625 
Q 47.21875 21.78125 47.21875 15.09375 
Q 47.21875 7.46875 41.1875 3.015625 
Q 35.15625 -1.421875 24.609375 -1.421875 
Q 20.21875 -1.421875 15.453125 -0.5625 
Q 10.6875 0.296875 5.421875 2 
L 5.421875 11.28125 
Q 10.40625 8.6875 15.234375 7.390625 
Q 20.0625 6.109375 24.8125 6.109375 
Q 31.15625 6.109375 34.5625 8.28125 
Q 37.984375 10.453125 37.984375 14.40625 
Q 37.984375 18.0625 35.515625 20.015625 
Q 33.0625 21.96875 24.703125 23.78125 
L 21.578125 24.515625 
Q 13.234375 26.265625 9.515625 29.90625 
Q 5.8125 33.546875 5.8125 39.890625 
Q 5.8125 47.609375 11.28125 51.796875 
Q 16.75 56 26.8125 56 
Q 31.78125 56 36.171875 55.265625 
Q 40.578125 54.546875 44.28125 53.078125 
" id="DejaVuSans-73"/>
     </defs>
     <g transform="translate(191.738906 335.860562)scale(0.1 -0.1)">
      <use xlink:href="#DejaVuSans-4e"/>
      <use x="74.804688" xlink:href="#DejaVuSans-75"/>
      <use x="138.183594" xlink:href="#DejaVuSans-6d"/>
      <use x="235.595703" xlink:href="#DejaVuSans-62"/>
      <use x="299.072266" xlink:href="#DejaVuSans-65"/>
      <use x="360.595703" xlink:href="#DejaVuSans-72"/>
      <use x="401.708984" xlink:href="#DejaVuSans-20"/>
      <use x="433.496094" xlink:href="#DejaVuSans-6f"/>
      <use x="494.677734" xlink:href="#DejaVuSans-66"/>
      <use x="529.882812" xlink:href="#DejaVuSans-20"/>
      <use x="561.669922" xlink:href="#DejaVuSans-63"/>
      <use x="616.650391" xlink:href="#DejaVuSans-6c"/>
      <use x="644.433594" xlink:href="#DejaVuSans-69"/>
      <use x="672.216797" xlink:href="#DejaVuSans-65"/>
      <use x="733.740234" xlink:href="#DejaVuSans-6e"/>
      <use x="797.119141" xlink:href="#DejaVuSans-74"/>
      <use x="836.328125" xlink:href="#DejaVuSans-73"/>
     </g>
    </g>
   </g>
   <g id="matplotlib.axis_2">
    <g id="ytick_1">
     <g id="line2d_13">
      <path clip-path="url(#p9a4e688229)" d="M 57.6 296.310307 
L 414.72 296.310307 
" style="fill:none;stroke:#b0b0b0;stroke-linecap:square;stroke-width:0.8;"/>
     </g>
     <g id="line2d_14">
      <defs>
       <path d="M 0 0 
L -3.5 0 
" id="me63f9c94a1" style="stroke:#000000;stroke-width:0.8;"/>
      </defs>
      <g>
       <use style="stroke:#000000;stroke-width:0.8;" x="57.6" xlink:href="#me63f9c94a1" y="296.310307"/>
      </g>
     </g>
     <g id="text_8">
      <!-- 0 -->
      <g transform="translate(44.2375 300.109525)scale(0.1 -0.1)">
       <use xlink:href="#DejaVuSans-30"/>
      </g>
     </g>
    </g>
    <g id="ytick_2">
     <g id="line2d_15">
      <path clip-path="url(#p9a4e688229)" d="M 57.6 253.031013 
L 414.72 253.031013 
" style="fill:none;stroke:#b0b0b0;stroke-linecap:square;stroke-width:0.8;"/>
     </g>
     <g id="line2d_16">
      <g>
       <use style="stroke:#000000;stroke-width:0.8;" x="57.6" xlink:href="#me63f9c94a1" y="253.031013"/>
      </g>
     </g>
     <g id="text_9">
      <!-- 50 -->
      <defs>
       <path d="M 10.796875 72.90625 
L 49.515625 72.90625 
L 49.515625 64.59375 
L 19.828125 64.59375 
L 19.828125 46.734375 
Q 21.96875 47.46875 24.109375 47.828125 
Q 26.265625 48.1875 28.421875 48.1875 
Q 40.625 48.1875 47.75 41.5 
Q 54.890625 34.8125 54.890625 23.390625 
Q 54.890625 11.625 47.5625 5.09375 
Q 40.234375 -1.421875 26.90625 -1.421875 
Q 22.3125 -1.421875 17.546875 -0.640625 
Q 12.796875 0.140625 7.71875 1.703125 
L 7.71875 11.625 
Q 12.109375 9.234375 16.796875 8.0625 
Q 21.484375 6.890625 26.703125 6.890625 
Q 35.15625 6.890625 40.078125 11.328125 
Q 45.015625 15.765625 45.015625 23.390625 
Q 45.015625 31 40.078125 35.4375 
Q 35.15625 39.890625 26.703125 39.890625 
Q 22.75 39.890625 18.8125 39.015625 
Q 14.890625 38.140625 10.796875 36.28125 
z
" id="DejaVuSans-35"/>
      </defs>
      <g transform="translate(37.875 256.830231)scale(0.1 -0.1)">
       <use xlink:href="#DejaVuSans-35"/>
       <use x="63.623047" xlink:href="#DejaVuSans-30"/>
      </g>
     </g>
    </g>
    <g id="ytick_3">
     <g id="line2d_17">
      <path clip-path="url(#p9a4e688229)" d="M 57.6 209.751719 
L 414.72 209.751719 
" style="fill:none;stroke:#b0b0b0;stroke-linecap:square;stroke-width:0.8;"/>
     </g>
     <g id="line2d_18">
      <g>
       <use style="stroke:#000000;stroke-width:0.8;" x="57.6" xlink:href="#me63f9c94a1" y="209.751719"/>
      </g>
     </g>
     <g id="text_10">
      <!-- 100 -->
      <g transform="translate(31.5125 213.550938)scale(0.1 -0.1)">
       <use xlink:href="#DejaVuSans-31"/>
       <use x="63.623047" xlink:href="#DejaVuSans-30"/>
       <use x="127.246094" xlink:href="#DejaVuSans-30"/>
      </g>
     </g>
    </g>
    <g id="ytick_4">
     <g id="line2d_19">
      <path clip-path="url(#p9a4e688229)" d="M 57.6 166.472425 
L 414.72 166.472425 
" style="fill:none;stroke:#b0b0b0;stroke-linecap:square;stroke-width:0.8;"/>
     </g>
     <g id="line2d_20">
      <g>
       <use style="stroke:#000000;stroke-width:0.8;" x="57.6" xlink:href="#me63f9c94a1" y="166.472425"/>
      </g>
     </g>
     <g id="text_11">
      <!-- 150 -->
      <g transform="translate(31.5125 170.271644)scale(0.1 -0.1)">
       <use xlink:href="#DejaVuSans-31"/>
       <use x="63.623047" xlink:href="#DejaVuSans-35"/>
       <use x="127.246094" xlink:href="#DejaVuSans-30"/>
      </g>
     </g>
    </g>
    <g id="ytick_5">
     <g id="line2d_21">
      <path clip-path="url(#p9a4e688229)" d="M 57.6 123.193131 
L 414.72 123.193131 
" style="fill:none;stroke:#b0b0b0;stroke-linecap:square;stroke-width:0.8;"/>
     </g>
     <g id="line2d_22">
      <g>
       <use style="stroke:#000000;stroke-width:0.8;" x="57.6" xlink:href="#me63f9c94a1" y="123.193131"/>
      </g>
     </g>
     <g id="text_12">
      <!-- 200 -->
      <g transform="translate(31.5125 126.99235)scale(0.1 -0.1)">
       <use xlink:href="#DejaVuSans-32"/>
       <use x="63.623047" xlink:href="#DejaVuSans-30"/>
       <use x="127.246094" xlink:href="#DejaVuSans-30"/>
      </g>
     </g>
    </g>
    <g id="ytick_6">
     <g id="line2d_23">
      <path clip-path="url(#p9a4e688229)" d="M 57.6 79.913837 
L 414.72 79.913837 
" style="fill:none;stroke:#b0b0b0;stroke-linecap:square;stroke-width:0.8;"/>
     </g>
     <g id="line2d_24">
      <g>
       <use style="stroke:#000000;stroke-width:0.8;" x="57.6" xlink:href="#me63f9c94a1" y="79.913837"/>
      </g>
     </g>
     <g id="text_13">
      <!-- 250 -->
      <g transform="translate(31.5125 83.713056)scale(0.1 -0.1)">
       <use xlink:href="#DejaVuSans-32"/>
       <use x="63.623047" xlink:href="#DejaVuSans-35"/>
       <use x="127.246094" xlink:href="#DejaVuSans-30"/>
      </g>
     </g>
    </g>
    <g id="text_14">
     <!-- Successful download requests per second -->
     <defs>
      <path d="M 53.515625 70.515625 
L 53.515625 60.890625 
Q 47.90625 63.578125 42.921875 64.890625 
Q 37.9375 66.21875 33.296875 66.21875 
Q 25.25 66.21875 20.875 63.09375 
Q 16.5 59.96875 16.5 54.203125 
Q 16.5 49.359375 19.40625 46.890625 
Q 22.3125 44.4375 30.421875 42.921875 
L 36.375 41.703125 
Q 47.40625 39.59375 52.65625 34.296875 
Q 57.90625 29 57.90625 20.125 
Q 57.90625 9.515625 50.796875 4.046875 
Q 43.703125 -1.421875 29.984375 -1.421875 
Q 24.8125 -1.421875 18.96875 -0.25 
Q 13.140625 0.921875 6.890625 3.21875 
L 6.890625 13.375 
Q 12.890625 10.015625 18.65625 8.296875 
Q 24.421875 6.59375 29.984375 6.59375 
Q 38.421875 6.59375 43.015625 9.90625 
Q 47.609375 13.234375 47.609375 19.390625 
Q 47.609375 24.75 44.3125 27.78125 
Q 41.015625 30.8125 33.5 32.328125 
L 27.484375 33.5 
Q 16.453125 35.6875 11.515625 40.375 
Q 6.59375 45.0625 6.59375 53.421875 
Q 6.59375 63.09375 13.40625 68.65625 
Q 20.21875 74.21875 32.171875 74.21875 
Q 37.3125 74.21875 42.625 73.28125 
Q 47.953125 72.359375 53.515625 70.515625 
" id="DejaVuSans-53"/>
      <path d="M 45.40625 46.390625 
L 45.40625 75.984375 
L 54.390625 75.984375 
L 54.390625 0 
L 45.40625 0 
L 45.40625 8.203125 
Q 42.578125 3.328125 38.25 0.953125 
Q 33.9375 -1.421875 27.875 -1.421875 
Q 17.96875 -1.421875 11.734375 6.484375 
Q 5.515625 14.40625 5.515625 27.296875 
Q 5.515625 40.1875 11.734375 48.09375 
Q 17.96875 56 27.875 56 
Q 33.9375 56 38.25 53.625 
Q 42.578125 51.265625 45.40625 46.390625 
M 14.796875 27.296875 
Q 14.796875 17.390625 18.875 11.75 
Q 22.953125 6.109375 30.078125 6.109375 
Q 37.203125 6.109375 41.296875 11.75 
Q 45.40625 17.390625 45.40625 27.296875 
Q 45.40625 37.203125 41.296875 42.84375 
Q 37.203125 48.484375 30.078125 48.484375 
Q 22.953125 48.484375 18.875 42.84375 
Q 14.796875 37.203125 14.796875 27.296875 
" id="DejaVuSans-64"/>
      <path d="M 4.203125 54.6875 
L 13.1875 54.6875 
L 24.421875 12.015625 
L 35.59375 54.6875 
L 46.1875 54.6875 
L 57.421875 12.015625 
L 68.609375 54.6875 
L 77.59375 54.6875 
L 63.28125 0 
L 52.6875 0 
L 40.921875 44.828125 
L 29.109375 0 
L 18.5 0 
z
" id="DejaVuSans-77"/>
      <path d="M 34.28125 27.484375 
Q 23.390625 27.484375 19.1875 25 
Q 14.984375 22.515625 14.984375 16.5 
Q 14.984375 11.71875 18.140625 8.90625 
Q 21.296875 6.109375 26.703125 6.109375 
Q 34.1875 6.109375 38.703125 11.40625 
Q 43.21875 16.703125 43.21875 25.484375 
L 43.21875 27.484375 
z
M 52.203125 31.203125 
L 52.203125 0 
L 43.21875 0 
L 43.21875 8.296875 
Q 40.140625 3.328125 35.546875 0.953125 
Q 30.953125 -1.421875 24.3125 -1.421875 
Q 15.921875 -1.421875 10.953125 3.296875 
Q 6 8.015625 6 15.921875 
Q 6 25.140625 12.171875 29.828125 
Q 18.359375 34.515625 30.609375 34.515625 
L 43.21875 34.515625 
L 43.21875 35.40625 
Q 43.21875 41.609375 39.140625 45 
Q 35.0625 48.390625 27.6875 48.390625 
Q 23 48.390625 18.546875 47.265625 
Q 14.109375 46.140625 10.015625 43.890625 
L 10.015625 52.203125 
Q 14.9375 54.109375 19.578125 55.046875 
Q 24.21875 56 28.609375 56 
Q 40.484375 56 46.34375 49.84375 
Q 52.203125 43.703125 52.203125 31.203125 
" id="DejaVuSans-61"/>
      <path d="M 14.796875 27.296875 
Q 14.796875 17.390625 18.875 11.75 
Q 22.953125 6.109375 30.078125 6.109375 
Q 37.203125 6.109375 41.296875 11.75 
Q 45.40625 17.390625 45.40625 27.296875 
Q 45.40625 37.203125 41.296875 42.84375 
Q 37.203125 48.484375 30.078125 48.484375 
Q 22.953125 48.484375 18.875 42.84375 
Q 14.796875 37.203125 14.796875 27.296875 
M 45.40625 8.203125 
Q 42.578125 3.328125 38.25 0.953125 
Q 33.9375 -1.421875 27.875 -1.421875 
Q 17.96875 -1.421875 11.734375 6.484375 
Q 5.515625 14.40625 5.515625 27.296875 
Q 5.515625 40.1875 11.734375 48.09375 
Q 17.96875 56 27.875 56 
Q 33.9375 56 38.25 53.625 
Q 42.578125 51.265625 45.40625 46.390625 
L 45.40625 54.6875 
L 54.390625 54.6875 
L 54.390625 -20.796875 
L 45.40625 -20.796875 
z
" id="DejaVuSans-71"/>
      <path d="M 18.109375 8.203125 
L 18.109375 -20.796875 
L 9.078125 -20.796875 
L 9.078125 54.6875 
L 18.109375 54.6875 
L 18.109375 46.390625 
Q 20.953125 51.265625 25.265625 53.625 
Q 29.59375 56 35.59375 56 
Q 45.5625 56 51.78125 48.09375 
Q 58.015625 40.1875 58.015625 27.296875 
Q 58.015625 14.40625 51.78125 6.484375 
Q 45.5625 -1.421875 35.59375 -1.421875 
Q 29.59375 -1.421875 25.265625 0.953125 
Q 20.953125 3.328125 18.109375 8.203125 
M 48.6875 27.296875 
Q 48.6875 37.203125 44.609375 42.84375 
Q 40.53125 48.484375 33.40625 48.484375 
Q 26.265625 48.484375 22.1875 42.84375 
Q 18.109375 37.203125 18.109375 27.296875 
Q 18.109375 17.390625 22.1875 11.75 
Q 26.265625 6.109375 33.40625 6.109375 
Q 40.53125 6.109375 44.609375 11.75 
Q 48.6875 17.390625 48.6875 27.296875 
" id="DejaVuSans-70"/>
     </defs>
     <g transform="translate(25.432812 279.366281)rotate(-90)scale(0.1 -0.1)">
      <use xlink:href="#DejaVuSans-53"/>
      <use x="63.476562" xlink:href="#DejaVuSans-75"/>
      <use x="126.855469" xlink:href="#DejaVuSans-63"/>
      <use x="181.835938" xlink:href="#DejaVuSans-63"/>
      <use x="236.816406" xlink:href="#DejaVuSans-65"/>
      <use x="298.339844" xlink:href="#DejaVuSans-73"/>
      <use x="350.439453" xlink:href="#DejaVuSans-73"/>
      <use x="402.539062" xlink:href="#DejaVuSans-66"/>
      <use x="437.744141" xlink:href="#DejaVuSans-75"/>
      <use x="501.123047" xlink:href="#DejaVuSans-6c"/>
      <use x="528.90625" xlink:href="#DejaVuSans-20"/>
      <use x="560.693359" xlink:href="#DejaVuSans-64"/>
      <use x="624.169922" xlink:href="#DejaVuSans-6f"/>
      <use x="685.351562" xlink:href="#DejaVuSans-77"/>
      <use x="767.138672" xlink:href="#DejaVuSans-6e"/>
      <use x="830.517578" xlink:href="#DejaVuSans-6c"/>
      <use x="858.300781" xlink:href="#DejaVuSans-6f"/>
      <use x="919.482422" xlink:href="#DejaVuSans-61"/>
      <use x="980.761719" xlink:href="#DejaVuSans-64"/>
      <use x="1044.238281" xlink:href="#DejaVuSans-20"/>
      <use x="1076.025391" xlink:href="#DejaVuSans-72"/>
      <use x="1117.107422" xlink:href="#DejaVuSans-65"/>
      <use x="1178.630859" xlink:href="#DejaVuSans-71"/>
      <use x="1242.107422" xlink:href="#DejaVuSans-75"/>
      <use x="1305.486328" xlink:href="#DejaVuSans-65"/>
      <use x="1367.009766" xlink:href="#DejaVuSans-73"/>
      <use x="1419.109375" xlink:href="#DejaVuSans-74"/>
      <use x="1458.318359" xlink:href="#DejaVuSans-73"/>
      <use x="1510.417969" xlink:href="#DejaVuSans-20"/>
      <use x="1542.205078" xlink:href="#DejaVuSans-70"/>
      <use x="1605.681641" xlink:href="#DejaVuSans-65"/>
      <use x="1667.205078" xlink:href="#DejaVuSans-72"/>
      <use x="1708.318359" xlink:href="#DejaVuSans-20"/>
      <use x="1740.105469" xlink:href="#DejaVuSans-73"/>
      <use x="1792.205078" xlink:href="#DejaVuSans-65"/>
      <use x="1853.728516" xlink:href="#DejaVuSans-63"/>
      <use x="1908.708984" xlink:href="#DejaVuSans-6f"/>
      <use x="1969.890625" xlink:href="#DejaVuSans-6e"/>
      <use x="2033.269531" xlink:href="#DejaVuSans-64"/>
     </g>
    </g>
   </g>
   <g id="line2d_25">
    <path clip-path="url(#p9a4e688229)" d="M 57.6 295.477613 
L 57.95712 295.488 
L 59.74272 291.400703 
L 60.45696 289.427168 
L 61.52832 287.109994 
L 61.88544 286.650368 
L 62.9568 283.465012 
L 63.67104 282.470454 
L 64.38528 280.641471 
L 64.7424 279.277308 
L 65.09952 279.053121 
L 65.45664 277.501125 
L 65.81376 277.455249 
L 66.17088 275.643578 
L 66.528 275.973366 
L 66.88512 274.028395 
L 67.24224 273.070191 
L 67.59936 273.585215 
L 67.95648 271.5684 
L 69.02784 270.03891 
L 69.38496 268.819299 
L 69.74208 267.146122 
L 70.0992 267.604882 
L 70.45632 266.77392 
L 70.81344 265.025436 
L 71.17056 264.702573 
L 71.52768 263.982405 
L 71.8848 263.652617 
L 72.24192 261.874704 
L 72.59904 260.719146 
L 72.95616 260.179021 
L 73.31328 260.610948 
L 74.02752 258.862465 
L 74.38464 258.327533 
L 75.09888 255.55333 
L 75.456 254.673029 
L 75.81312 252.564462 
L 76.17024 252.809423 
L 76.52736 250.848871 
L 76.88448 250.144284 
L 77.2416 248.773196 
L 77.59872 251.227132 
L 78.31296 247.589074 
L 78.67008 248.068609 
L 79.0272 244.731775 
L 79.38432 246.329647 
L 79.74144 246.013708 
L 80.09856 244.851226 
L 80.45568 241.505737 
L 80.8128 241.838987 
L 81.16992 241.92468 
L 81.52704 240.492136 
L 82.24128 239.089021 
L 82.5984 238.46753 
L 82.95552 237.065281 
L 83.31264 237.918749 
L 83.66976 234.524787 
L 84.02688 236.041293 
L 84.74112 231.510817 
L 85.09824 232.730427 
L 85.45536 233.132925 
L 85.81248 229.09237 
L 86.1696 227.291086 
L 86.52672 228.740076 
L 86.88384 226.81761 
L 87.24096 227.101522 
L 87.59808 227.57067 
L 87.9552 227.684927 
L 88.31232 225.876718 
L 88.66944 221.50551 
L 89.02656 221.348838 
L 89.38368 222.692228 
L 89.7408 220.092873 
L 90.09792 221.385193 
L 90.45504 221.431069 
L 90.81216 217.219128 
L 91.16928 218.174735 
L 91.5264 214.327206 
L 91.88352 217.52468 
L 92.24064 215.510462 
L 92.59776 217.183639 
L 93.312 210.678761 
L 93.66912 210.232119 
L 94.02624 208.514797 
L 94.38336 213.258207 
L 94.74048 210.863997 
L 95.0976 207.039838 
L 95.45472 208.957977 
L 95.81184 204.496747 
L 96.16896 207.54534 
L 96.52608 203.130853 
L 96.8832 207.174004 
L 97.24032 204.857696 
L 97.59744 203.945369 
L 97.95456 201.682727 
L 98.31168 200.562659 
L 98.6688 201.617808 
L 99.02592 198.326851 
L 99.38304 201.955387 
L 99.74016 194.614353 
L 100.09728 199.520494 
L 100.4544 193.857831 
L 100.81152 198.609897 
L 101.16864 194.355543 
L 101.52576 198.036014 
L 101.88288 195.276526 
L 102.24 190.770286 
L 102.59712 191.087956 
L 102.95424 193.566994 
L 103.31136 192.491071 
L 103.66848 191.855731 
L 104.38272 195.247096 
L 104.73984 191.129504 
L 105.09696 188.90668 
L 105.45408 187.535592 
L 105.8112 193.458796 
L 106.16832 191.756189 
L 106.52544 192.751612 
L 106.88256 189.456327 
L 107.23968 188.736159 
L 107.5968 187.734677 
L 107.95392 189.760147 
L 108.31104 186.804172 
L 108.66816 190.685459 
L 110.09664 184.403902 
L 110.45376 189.973082 
L 110.81088 183.835212 
L 111.168 184.467955 
L 111.52512 188.149292 
L 111.88224 182.969626 
L 112.23936 186.94959 
L 112.59648 182.871815 
L 112.9536 181.183057 
L 113.31072 183.862911 
L 113.66784 184.899017 
L 114.02496 180.371137 
L 114.38208 185.87107 
L 114.7392 180.724297 
L 115.09632 180.492319 
L 115.45344 178.594955 
L 115.81056 183.445698 
L 116.16768 178.998318 
L 116.5248 181.43927 
L 116.88192 182.587903 
L 117.23904 180.029231 
L 117.95328 181.531023 
L 118.66752 175.353336 
L 119.02464 175.719479 
L 119.38176 175.26245 
L 119.73888 181.311164 
L 120.096 179.368789 
L 120.45312 173.454241 
L 120.81024 177.645408 
L 121.16736 178.937727 
L 121.52448 172.527198 
L 121.8816 177.587413 
L 122.23872 180.51569 
L 122.59584 179.009571 
L 122.95296 171.969761 
L 123.31008 172.816304 
L 123.6672 176.517549 
L 124.38144 175.510873 
L 124.73856 171.772407 
L 125.09568 176.827429 
L 125.4528 177.712058 
L 125.80992 169.18344 
L 126.16704 173.862797 
L 126.52416 171.646897 
L 127.2384 175.849317 
L 127.59552 174.602873 
L 127.95264 167.81668 
L 128.30976 174.215956 
L 128.66688 171.793181 
L 129.024 173.388456 
L 129.38112 174.228074 
L 129.73824 169.076107 
L 130.09536 173.425676 
L 130.45248 173.112334 
L 130.8096 169.189499 
L 131.16672 167.727525 
L 131.52384 172.746191 
L 131.88096 171.770676 
L 132.23808 167.625385 
L 132.5952 164.968902 
L 132.95232 170.858349 
L 133.30944 167.194324 
L 133.66656 169.857731 
L 134.02368 171.195062 
L 134.3808 166.803079 
L 134.73792 166.143502 
L 135.09504 169.519287 
L 135.45216 170.694753 
L 135.80928 169.25009 
L 136.1664 170.442867 
L 136.52352 170.294852 
L 136.88064 167.515456 
L 137.23776 166.307964 
L 137.59488 167.5873 
L 137.952 165.470077 
L 138.30912 160.972492 
L 138.66624 164.968902 
L 139.02336 159.745092 
L 139.38048 159.694022 
L 139.7376 166.058675 
L 140.09472 159.27681 
L 140.45184 165.54192 
L 140.80896 166.894831 
L 141.5232 158.083167 
L 141.88032 160.956046 
L 142.23744 161.573209 
L 142.59456 160.23761 
L 142.95168 164.702302 
L 143.3088 163.448934 
L 143.66592 156.583972 
L 144.02304 161.613026 
L 144.38016 164.864166 
L 144.73728 164.131881 
L 145.45152 158.575685 
L 145.80864 157.187285 
L 146.16576 160.953449 
L 146.52288 162.579885 
L 146.88 163.103565 
L 147.23712 153.541438 
L 147.59424 154.175046 
L 147.95136 160.978551 
L 148.30848 160.572592 
L 149.02272 157.955926 
L 149.37984 157.497165 
L 149.73696 159.01194 
L 150.09408 151.518563 
L 150.4512 152.188527 
L 150.80832 154.703054 
L 151.16544 160.396878 
L 151.52256 156.414317 
L 151.87968 155.650005 
L 152.2368 158.979914 
L 152.95104 152.323558 
L 153.30816 152.900904 
L 153.66528 154.316137 
L 154.0224 154.065117 
L 154.37952 154.052133 
L 154.73664 156.525112 
L 155.09376 157.949001 
L 155.45088 154.9861 
L 155.808 154.043477 
L 156.16512 147.621696 
L 156.87936 156.397871 
L 157.23648 151.470091 
L 157.5936 152.826464 
L 157.95072 156.254184 
L 158.30784 151.82325 
L 158.66496 149.358927 
L 159.02208 150.913519 
L 159.3792 153.371783 
L 160.09344 147.98178 
L 160.45056 147.025307 
L 160.80768 147.351633 
L 161.52192 154.100606 
L 161.87904 145.444747 
L 162.23616 149.340749 
L 162.59328 144.290921 
L 162.9504 144.537613 
L 163.30752 143.177778 
L 163.66464 147.516094 
L 164.02176 147.513498 
L 164.736 145.753761 
L 165.09312 143.376863 
L 165.45024 149.491361 
L 165.80736 143.05573 
L 166.5216 149.716414 
L 166.87872 146.757841 
L 167.23584 151.052013 
L 167.59296 148.415438 
L 167.95008 150.498903 
L 168.3072 150.283372 
L 168.66432 150.341367 
L 169.02144 143.804462 
L 169.37856 148.233665 
L 169.73568 147.347305 
L 170.0928 143.533534 
L 170.44992 146.737933 
L 170.80704 144.613785 
L 171.16416 145.30106 
L 171.52128 143.369938 
L 171.8784 139.686004 
L 172.59264 143.758586 
L 172.94976 138.030139 
L 173.30688 146.686863 
L 173.664 144.837972 
L 174.02112 145.216233 
L 174.37824 141.295994 
L 174.73536 142.757103 
L 175.09248 137.572244 
L 175.4496 139.403823 
L 175.80672 143.430529 
L 176.16384 141.545283 
L 176.52096 135.91984 
L 176.87808 137.199176 
L 177.2352 136.327531 
L 177.59232 140.345581 
L 177.94944 142.135613 
L 178.30656 141.733981 
L 178.66368 139.246287 
L 179.0208 144.357571 
L 179.37792 138.835134 
L 179.73504 140.615644 
L 180.09216 136.740416 
L 180.44928 135.832416 
L 180.8064 142.572733 
L 181.16352 137.580034 
L 181.52064 137.988591 
L 181.87776 133.243449 
L 182.592 143.289438 
L 182.94912 134.363517 
L 183.66336 141.640497 
L 184.02048 141.682046 
L 184.3776 133.339529 
L 184.73472 131.916506 
L 185.09184 131.463804 
L 185.44896 133.652005 
L 185.80608 135.081088 
L 186.1632 133.040902 
L 186.52032 138.740785 
L 186.87744 131.277703 
L 187.23456 131.594508 
L 187.59168 131.224037 
L 187.9488 132.302557 
L 188.30592 136.470353 
L 188.66304 134.023342 
L 189.02016 140.067728 
L 189.37728 139.11039 
L 189.7344 130.611202 
L 190.09152 134.428436 
L 190.44864 129.568171 
L 190.80576 132.710248 
L 191.16288 129.997502 
L 191.87712 138.303664 
L 192.23424 137.649281 
L 192.59136 131.912178 
L 192.94848 129.875454 
L 193.3056 129.901422 
L 193.66272 129.023718 
L 194.01984 133.760204 
L 194.73408 136.4591 
L 195.0912 127.496824 
L 195.44832 134.822277 
L 195.80544 127.718414 
L 196.16256 126.69356 
L 196.51968 136.824378 
L 197.23392 126.529099 
L 197.59104 125.634083 
L 197.94816 125.699868 
L 198.30528 127.465663 
L 198.6624 128.08975 
L 199.01952 128.365872 
L 199.37664 131.929489 
L 199.73376 125.595998 
L 200.09088 126.70741 
L 200.448 134.293404 
L 200.80512 129.266947 
L 201.16224 126.562857 
L 201.51936 132.2411 
L 202.2336 124.60923 
L 202.59072 123.696037 
L 202.94784 126.784447 
L 203.30496 126.47197 
L 203.66208 127.455276 
L 204.0192 130.851835 
L 204.37632 126.574975 
L 204.73344 123.823278 
L 205.09056 123.668338 
L 205.44768 120.996274 
L 205.8048 121.08543 
L 206.16192 132.389981 
L 206.51904 129.300705 
L 206.87616 122.913547 
L 207.23328 121.637673 
L 207.5904 126.846769 
L 207.94752 122.654737 
L 208.30464 128.14861 
L 208.66176 127.24667 
L 209.376 119.965361 
L 209.73312 121.341643 
L 210.09024 130.531568 
L 210.44736 126.866678 
L 210.80448 125.277462 
L 211.1616 130.28228 
L 211.51872 119.705686 
L 212.23296 127.46047 
L 212.59008 121.3226 
L 213.30432 118.019524 
L 213.66144 124.623079 
L 214.01856 123.488296 
L 214.37568 118.615913 
L 214.7328 119.828599 
L 215.08992 126.774926 
L 215.44704 125.803738 
L 215.80416 122.811408 
L 216.16128 127.583383 
L 216.5184 125.550122 
L 216.87552 125.423746 
L 217.23264 125.424612 
L 217.58976 125.071453 
L 217.94688 127.064897 
L 218.304 121.951015 
L 218.66112 115.100769 
L 219.37536 126.230472 
L 219.73248 120.029415 
L 220.0896 116.152456 
L 220.44672 125.673035 
L 220.80384 119.14998 
L 221.16096 125.634083 
L 221.51808 114.391854 
L 221.8752 118.642746 
L 222.23232 113.862981 
L 222.58944 121.713845 
L 223.30368 115.556933 
L 223.6608 125.141565 
L 224.01792 114.530348 
L 224.37504 120.42066 
L 224.73216 116.546297 
L 225.08928 117.892283 
L 225.4464 113.442306 
L 225.80352 122.002951 
L 226.16064 123.165432 
L 226.51776 116.313455 
L 226.87488 122.994912 
L 227.232 119.414849 
L 227.58912 118.8401 
L 227.94624 122.955961 
L 228.30336 117.040547 
L 228.66048 121.162467 
L 229.37472 114.581417 
L 229.73184 120.395558 
L 230.08896 112.262513 
L 230.44608 113.66909 
L 230.8032 111.377018 
L 231.16032 117.248287 
L 231.51744 117.511425 
L 231.87456 116.948795 
L 232.23168 118.852218 
L 232.5888 108.876341 
L 232.94592 110.974521 
L 233.30304 108.684181 
L 233.66016 118.589945 
L 234.01728 113.379119 
L 234.3744 113.405952 
L 234.73152 116.494362 
L 235.08864 109.092737 
L 235.44576 120.718421 
L 235.80288 112.660682 
L 236.16 108.653885 
L 236.87424 119.375897 
L 237.23136 119.703955 
L 237.58848 112.810429 
L 237.9456 111.300847 
L 238.30272 107.596139 
L 238.65984 114.09063 
L 239.01696 115.975011 
L 239.37408 118.969072 
L 239.7312 110.539131 
L 240.44544 116.160246 
L 240.80256 116.224299 
L 241.15968 115.594153 
L 241.5168 111.61592 
L 241.87392 118.322479 
L 242.23104 109.086678 
L 242.58816 117.157401 
L 242.94528 112.834665 
L 243.3024 117.763311 
L 243.65952 117.199815 
L 244.37376 104.950043 
L 244.73088 105.711759 
L 245.088 107.149497 
L 245.44512 110.302826 
L 245.80224 115.069608 
L 246.15936 112.409662 
L 246.51648 113.154066 
L 246.8736 103.3565 
L 247.23072 104.096576 
L 247.58784 114.299236 
L 247.94496 104.631508 
L 248.30208 113.371328 
L 248.6592 108.566461 
L 249.37344 110.214537 
L 249.73056 108.869416 
L 250.08768 103.599729 
L 250.4448 112.282421 
L 250.80192 112.970562 
L 251.15904 102.682208 
L 251.51616 107.204029 
L 251.87328 109.777416 
L 252.2304 102.626811 
L 252.58752 110.144424 
L 252.94464 112.903912 
L 253.30176 111.884252 
L 253.65888 109.065904 
L 254.016 112.120557 
L 254.37312 102.649316 
L 254.73024 107.450721 
L 255.08736 109.355875 
L 255.44448 100.594415 
L 256.51584 112.853708 
L 256.87296 102.45629 
L 257.23008 105.722146 
L 257.5872 110.816984 
L 257.94432 107.978728 
L 258.30144 109.677873 
L 258.65856 100.366766 
L 259.01568 110.422277 
L 259.3728 105.829478 
L 259.72992 98.205398 
L 260.08704 97.89119 
L 260.44416 108.543956 
L 260.80128 98.792265 
L 261.1584 107.873992 
L 261.51552 110.700996 
L 262.58688 99.290843 
L 262.944 107.719918 
L 263.30112 105.652899 
L 263.65824 97.206512 
L 264.01536 109.304806 
L 264.37248 103.958947 
L 264.7296 101.955116 
L 265.08672 97.102642 
L 265.44384 96.089041 
L 265.80096 99.902812 
L 266.15808 97.091389 
L 266.5152 106.956471 
L 267.22944 100.433416 
L 267.58656 100.447266 
L 267.94368 108.198587 
L 268.3008 97.811557 
L 268.65792 104.44281 
L 269.01504 108.598488 
L 269.37216 95.56363 
L 269.72928 104.540621 
L 270.0864 97.966496 
L 270.44352 103.531348 
L 270.80064 94.399417 
L 271.15776 97.418581 
L 271.51488 106.15667 
L 271.872 98.202801 
L 272.22912 95.748865 
L 272.58624 100.112284 
L 272.94336 101.226293 
L 273.30048 101.018552 
L 273.6576 106.463087 
L 274.01472 93.095845 
L 274.37184 105.727339 
L 274.72896 97.035992 
L 275.08608 102.806853 
L 275.80032 92.534945 
L 276.15744 102.275383 
L 276.51456 93.700024 
L 276.87168 103.597133 
L 277.2288 101.559543 
L 277.58592 103.833437 
L 277.94304 96.644747 
L 278.30016 104.76048 
L 279.0144 98.693589 
L 279.37152 102.455425 
L 279.72864 103.819588 
L 280.08576 91.510091 
L 280.44288 92.221603 
L 280.8 91.464215 
L 281.15712 102.561026 
L 281.51424 94.580324 
L 281.87136 95.311745 
L 282.22848 94.295547 
L 282.5856 100.853225 
L 282.94272 102.632004 
L 283.29984 93.210102 
L 283.65696 98.317059 
L 284.01408 101.504146 
L 284.3712 98.06777 
L 284.72832 100.910354 
L 285.08544 99.111667 
L 285.44256 91.558564 
L 285.79968 94.926559 
L 286.1568 101.541366 
L 286.51392 97.570924 
L 286.87104 97.324232 
L 287.22816 94.002979 
L 287.58528 98.316193 
L 287.9424 92.411166 
L 288.29952 95.605178 
L 288.65664 95.48919 
L 289.01376 91.794003 
L 289.37088 92.757401 
L 289.728 97.1892 
L 290.08512 92.289119 
L 290.44224 93.972683 
L 290.79936 87.512816 
L 291.15648 99.209478 
L 291.5136 89.459518 
L 291.87072 99.160139 
L 292.22784 96.932987 
L 292.58496 91.897874 
L 292.94208 91.546446 
L 293.2992 100.727715 
L 293.65632 98.468536 
L 294.01344 97.811557 
L 294.37056 92.778175 
L 294.72768 89.936456 
L 295.0848 90.735392 
L 295.44192 98.206264 
L 295.79904 88.792152 
L 296.15616 86.607413 
L 296.51328 85.662193 
L 296.8704 86.373705 
L 297.22752 85.28047 
L 297.58464 88.628556 
L 297.94176 94.307665 
L 298.29888 97.873013 
L 298.656 87.587256 
L 299.01312 87.041937 
L 299.72736 95.934966 
L 300.08448 96.954626 
L 300.4416 90.970831 
L 300.79872 98.225307 
L 301.15584 97.849642 
L 301.51296 92.64574 
L 301.87008 92.267479 
L 302.2272 93.91642 
L 302.58432 94.164843 
L 302.94144 92.0104 
L 303.29856 93.722529 
L 303.65568 93.763211 
L 304.0128 88.255488 
L 304.36992 96.836907 
L 304.72704 83.3606 
L 305.08416 94.496363 
L 305.44128 88.828506 
L 305.7984 93.021404 
L 306.51264 83.903323 
L 306.86976 92.26142 
L 307.22688 85.917541 
L 307.584 87.114646 
L 307.94112 84.642533 
L 308.29824 86.652423 
L 308.65536 94.493766 
L 309.01248 84.052203 
L 309.3696 93.346865 
L 309.72672 83.663555 
L 310.08384 95.217396 
L 310.44096 85.087444 
L 310.79808 83.119102 
L 311.1552 86.409194 
L 311.51232 84.575883 
L 311.86944 93.378026 
L 312.58368 81.400048 
L 312.9408 79.955385 
L 313.29792 93.458525 
L 313.65504 81.719449 
L 314.01216 80.122444 
L 314.36928 86.920755 
L 314.7264 89.289864 
L 315.08352 80.65651 
L 315.44064 92.104749 
L 316.15488 89.050096 
L 316.512 81.055545 
L 316.86912 89.58676 
L 317.22624 78.687302 
L 317.58336 92.77904 
L 317.94048 82.863754 
L 318.2976 83.641916 
L 318.65472 92.319414 
L 319.01184 79.056042 
L 319.72608 91.400162 
L 320.0832 80.107729 
L 320.44032 82.879335 
L 320.79744 92.289119 
L 321.15456 81.180189 
L 321.51168 83.61941 
L 321.8688 91.524806 
L 322.22592 77.298037 
L 322.58304 89.248315 
L 322.94016 80.339706 
L 323.29728 81.494397 
L 323.6544 83.927559 
L 324.01152 77.020184 
L 324.36864 85.582559 
L 324.72576 90.717215 
L 325.08288 87.056652 
L 325.44 88.249429 
L 325.79712 85.478689 
L 326.15424 78.13679 
L 326.51136 78.169682 
L 326.86848 82.792776 
L 327.2256 75.732192 
L 327.58272 86.0041 
L 327.93984 84.510098 
L 328.29696 90.553619 
L 328.65408 88.379267 
L 329.0112 81.368022 
L 329.72544 76.292226 
L 330.08256 89.718329 
L 330.43968 79.574528 
L 330.7968 83.665287 
L 331.15392 84.993961 
L 331.51104 89.68284 
L 331.86816 84.964531 
L 332.22528 74.686564 
L 332.5824 74.768795 
L 332.93952 75.520989 
L 333.29664 87.83741 
L 333.65376 77.043555 
L 334.01088 88.437261 
L 334.368 84.500577 
L 334.72512 83.651437 
L 335.08224 74.272814 
L 335.43936 74.60693 
L 335.79648 75.520123 
L 336.1536 79.781403 
L 336.51072 87.521472 
L 336.86784 77.732561 
L 337.22496 74.216551 
L 337.58208 77.106742 
L 337.9392 74.371491 
L 338.65344 83.598636 
L 339.01056 87.426257 
L 339.36768 83.622873 
L 339.7248 81.749745 
L 340.08192 73.396841 
L 340.79616 79.880945 
L 341.15328 74.1776 
L 341.5104 74.233863 
L 341.86752 86.661079 
L 342.22464 72.487111 
L 342.58176 79.135676 
L 342.93888 79.495759 
L 343.296 77.881442 
L 343.65312 79.251664 
L 344.01024 79.233487 
L 344.36736 84.794876 
L 344.72448 72.711297 
L 345.0816 78.054559 
L 345.43872 77.291978 
L 345.79584 79.9173 
L 346.15296 84.795742 
L 346.51008 82.181672 
L 346.8672 73.966397 
L 347.22432 79.784865 
L 347.58144 80.022036 
L 347.93856 77.290247 
L 348.29568 73.15794 
L 348.6528 78.812812 
L 349.00992 77.905678 
L 349.36704 84.347368 
L 350.08128 69.385716 
L 350.4384 71.707218 
L 350.79552 70.031443 
L 351.15264 82.590229 
L 351.50976 84.330922 
L 351.86688 75.86203 
L 352.58112 78.161026 
L 352.93824 76.788207 
L 353.29536 82.878469 
L 353.65248 69.097476 
L 354.36672 72.518272 
L 354.72384 82.765077 
L 355.08096 71.683847 
L 355.43808 73.686813 
L 355.7952 82.649954 
L 356.15232 81.097959 
L 356.50944 75.181679 
L 356.86656 80.608903 
L 357.22368 72.262058 
L 357.5808 78.962558 
L 357.93792 70.270345 
L 358.29504 73.503308 
L 358.65216 81.838035 
L 359.00928 77.819985 
L 359.3664 81.559316 
L 359.72352 78.311638 
L 360.08064 77.365553 
L 360.43776 78.514185 
L 360.79488 76.019566 
L 361.152 74.554995 
L 361.50912 68.32797 
L 361.86624 75.385958 
L 362.22336 77.555116 
L 362.58048 73.649592 
L 362.9376 68.463002 
L 363.29472 75.792783 
L 363.65184 66.768185 
L 364.00896 78.798097 
L 364.36608 72.051721 
L 364.7232 72.346886 
L 365.08032 66.02984 
L 365.43744 74.885649 
L 365.79456 77.471154 
L 366.15168 78.062349 
L 366.5088 77.209747 
L 366.86592 68.705366 
L 367.22304 79.043924 
L 367.58016 69.282712 
L 367.93728 66.213344 
L 368.2944 70.739493 
L 368.65152 68.791924 
L 369.00864 69.480931 
L 369.36576 66.146694 
L 369.72288 67.144714 
L 370.08 79.197132 
L 370.43712 76.026491 
L 370.79424 65.233501 
L 371.15136 78.198246 
L 371.50848 72.50875 
L 371.8656 72.352945 
L 372.22272 64.647499 
L 372.57984 68.98495 
L 372.93696 74.863144 
L 373.29408 75.199857 
L 373.6512 78.450132 
L 374.00832 63.952434 
L 374.36544 69.085358 
L 374.72256 62.963935 
L 375.07968 63.985326 
L 375.4368 76.783879 
L 376.15104 63.084251 
L 376.50816 71.891587 
L 376.86528 76.961324 
L 377.2224 73.357024 
L 377.57952 64.276163 
L 377.93664 71.602482 
L 378.29376 75.445683 
L 378.65088 71.129006 
L 379.008 62.675695 
L 379.36512 64.741848 
L 379.72224 61.651707 
L 380.07936 70.148297 
L 380.43648 73.556109 
L 380.7936 70.911744 
L 381.15072 60.706487 
L 381.50784 68.40847 
L 381.86496 66.717115 
L 382.22208 67.438148 
L 382.5792 74.606065 
L 382.93632 74.057283 
L 383.65056 60.612138 
L 384.00768 66.166602 
L 384.3648 75.4855 
L 384.72192 72.086344 
L 385.07904 60.563665 
L 385.43616 60.655417 
L 385.79328 60.067684 
L 386.1504 69.750994 
L 386.50752 75.64044 
L 386.86464 62.037758 
L 387.22176 68.161778 
L 387.57888 65.416139 
L 387.936 61.586788 
L 388.29312 65.955399 
L 388.65024 73.654786 
L 389.00736 63.733441 
L 389.36448 70.172534 
L 389.7216 70.103287 
L 390.07872 70.168206 
L 390.43584 67.815544 
L 390.79296 60.975684 
L 391.15008 70.796621 
L 391.5072 66.305962 
L 391.86432 66.086103 
L 392.57856 60.283215 
L 392.93568 61.765964 
L 393.2928 65.223114 
L 393.64992 63.130127 
L 394.00704 71.927942 
L 394.36416 61.633529 
L 394.72128 64.058035 
L 395.0784 70.840766 
L 395.43552 73.655651 
L 395.79264 56.977543 
L 396.14976 71.99892 
L 396.50688 59.350114 
L 397.22112 68.829145 
L 397.57824 57.056311 
L 397.93536 56.951575 
L 398.29248 63.032316 
L 398.6496 59.298179 
L 399.00672 72.751114 
L 399.36384 66.073985 
L 399.72096 65.11405 
L 400.07808 71.277021 
L 400.4352 61.74519 
L 400.79232 70.337861 
L 401.14944 69.160664 
L 401.50656 68.791059 
L 401.86368 57.221638 
L 402.2208 59.413301 
L 402.57792 63.209761 
L 402.93504 61.30201 
L 403.29216 56.30152 
L 403.64928 67.909027 
L 404.0064 55.334661 
L 404.36352 57.20952 
L 404.72064 69.049869 
L 405.07776 69.662704 
L 405.43488 66.669508 
L 405.792 66.09649 
L 406.14912 67.623383 
L 406.50624 61.204199 
L 406.86336 69.274921 
L 407.22048 61.596309 
L 407.5776 57.01736 
L 407.93472 67.47104 
L 408.29184 56.388944 
L 408.64896 66.357897 
L 409.00608 65.053459 
L 409.3632 70.053949 
L 409.72032 57.188746 
L 410.07744 62.274928 
L 410.43456 64.268373 
L 410.79168 63.403652 
L 411.1488 54.264797 
L 411.50592 64.67087 
L 411.86304 68.542636 
L 412.22016 63.145708 
L 412.57728 53.568 
L 412.9344 63.034047 
L 413.29152 56.298923 
L 413.64864 55.635019 
L 414.00576 64.668273 
L 414.36288 61.581594 
L 414.72 54.222383 
L 414.72 54.222383 
" style="fill:none;stroke:#000080;stroke-linecap:square;stroke-width:0.5;"/>
   </g>
   <g id="patch_3">
    <path d="M 57.6 307.584 
L 57.6 41.472 
" style="fill:none;stroke:#000000;stroke-linecap:square;stroke-linejoin:miter;stroke-width:0.8;"/>
   </g>
   <g id="patch_4">
    <path d="M 414.72 307.584 
L 414.72 41.472 
" style="fill:none;stroke:#000000;stroke-linecap:square;stroke-linejoin:miter;stroke-width:0.8;"/>
   </g>
   <g id="patch_5">
    <path d="M 57.6 307.584 
L 414.72 307.584 
" style="fill:none;stroke:#000000;stroke-linecap:square;stroke-linejoin:miter;stroke-width:0.8;"/>
   </g>
   <g id="patch_6">
    <path d="M 57.6 41.472 
L 414.72 41.472 
" style="fill:none;stroke:#000000;stroke-linecap:square;stroke-linejoin:miter;stroke-width:0.8;"/>
   </g>
   <g id="text_15">
    <!-- Test -->
    <defs>
     <path d="M -0.296875 72.90625 
L 61.375 72.90625 
L 61.375 64.59375 
L 35.5 64.59375 
L 35.5 0 
L 25.59375 0 
L 25.59375 64.59375 
L -0.296875 64.59375 
z
" id="DejaVuSans-54"/>
    </defs>
    <g transform="translate(223.341563 35.472)scale(0.12 -0.12)">
     <use xlink:href="#DejaVuSans-54"/>
     <use x="60.818359" xlink:href="#DejaVuSans-65"/>
     <use x="122.341797" xlink:href="#DejaVuSans-73"/>
     <use x="174.441406" xlink:href="#DejaVuSans-74"/>
    </g>
   </g>
   <g id="legend_1">
    <g id="patch_7">
     <path d="M 64.6 64.150125 
L 306.276563 64.150125 
Q 308.276563 64.150125 308.276563 62.150125 
L 308.276563 48.472 
Q 308.276563 46.472 306.276563 46.472 
L 64.6 46.472 
Q 62.6 46.472 62.6 48.472 
L 62.6 62.150125 
Q 62.6 64.150125 64.6 64.150125 
z
" style="fill:#ffffff;opacity:0.8;stroke:#cccccc;stroke-linejoin:miter;"/>
    </g>
    <g id="line2d_26">
     <path d="M 66.6 54.570438 
L 86.6 54.570438 
" style="fill:none;stroke:#000080;stroke-linecap:square;stroke-width:0.5;"/>
    </g>
    <g id="line2d_27"/>
    <g id="text_16">
     <!-- Successful download requests per second -->
     <g transform="translate(94.6 58.070438)scale(0.1 -0.1)">
      <use xlink:href="#DejaVuSans-53"/>
      <use x="63.476562" xlink:href="#DejaVuSans-75"/>
      <use x="126.855469" xlink:href="#DejaVuSans-63"/>
      <use x="181.835938" xlink:href="#DejaVuSans-63"/>
      <use x="236.816406" xlink:href="#DejaVuSans-65"/>
      <use x="298.339844" xlink:href="#DejaVuSans-73"/>
      <use x="350.439453" xlink:href="#DejaVuSans-73"/>
      <use x="402.539062" xlink:href="#DejaVuSans-66"/>
      <use x="437.744141" xlink:href="#DejaVuSans-75"/>
      <use x="501.123047" xlink:href="#DejaVuSans-6c"/>
      <use x="528.90625" xlink:href="#DejaVuSans-20"/>
      <use x="560.693359" xlink:href="#DejaVuSans-64"/>
      <use x="624.169922" xlink:href="#DejaVuSans-6f"/>
      <use x="685.351562" xlink:href="#DejaVuSans-77"/>
      <use x="767.138672" xlink:href="#DejaVuSans-6e"/>
      <use x="830.517578" xlink:href="#DejaVuSans-6c"/>
      <use x="858.300781" xlink:href="#DejaVuSans-6f"/>
      <use x="919.482422" xlink:href="#DejaVuSans-61"/>
      <use x="980.761719" xlink:href="#DejaVuSans-64"/>
      <use x="1044.238281" xlink:href="#DejaVuSans-20"/>
      <use x="1076.025391" xlink:href="#DejaVuSans-72"/>
      <use x="1117.107422" xlink:href="#DejaVuSans-65"/>
      <use x="1178.630859" xlink:href="#DejaVuSans-71"/>
      <use x="1242.107422" xlink:href="#DejaVuSans-75"/>
      <use x="1305.486328" xlink:href="#DejaVuSans-65"/>
      <use x="1367.009766" xlink:href="#DejaVuSans-73"/>
      <use x="1419.109375" xlink:href="#DejaVuSans-74"/>
      <use x="1458.318359" xlink:href="#DejaVuSans-73"/>
      <use x="1510.417969" xlink:href="#DejaVuSans-20"/>
      <use x="1542.205078" xlink:href="#DejaVuSans-70"/>
      <use x="1605.681641" xlink:href="#DejaVuSans-65"/>
      <use x="1667.205078" xlink:href="#DejaVuSans-72"/>
      <use x="1708.318359" xlink:href="#DejaVuSans-20"/>
      <use x="1740.105469" xlink:href="#DejaVuSans-73"/>
      <use x="1792.205078" xlink:href="#DejaVuSans-65"/>
      <use x="1853.728516" xlink:href="#DejaVuSans-63"/>
      <use x="1908.708984" xlink:href="#DejaVuSans-6f"/>
      <use x="1969.890625" xlink:href="#DejaVuSans-6e"/>
      <use x="2033.269531" xlink:href="#DejaVuSans-64"/>
     </g>
    </g>
   </g>
  </g>
 </g>
 <defs>
  <clipPath id="p9a4e688229">
   <rect height="266.112" width="357.12" x="57.6" y="41.472"/>
  </clipPath>
 </defs>
</svg>
