<?xml version="1.0" encoding="utf-8" standalone="no"?>
<!DOCTYPE svg PUBLIC "-//W3C//DTD SVG 1.1//EN"
  "http://www.w3.org/Graphics/SVG/1.1/DTD/svg11.dtd">
<!-- Created with matplotlib (http://matplotlib.org/) -->
<svg height="345pt" version="1.1" viewBox="0 0 460 345" width="460pt" xmlns="http://www.w3.org/2000/svg" xmlns:xlink="http://www.w3.org/1999/xlink">
 <defs>
  <style type="text/css">
*{stroke-linecap:butt;stroke-linejoin:round;}
  </style>
 </defs>
 <g id="figure_1">
  <g id="patch_1">
   <path d="M 0 345.6 
L 460.8 345.6 
L 460.8 0 
L 0 0 
z
" style="fill:#ffffff;"/>
  </g>
  <g id="axes_1">
   <g id="patch_2">
    <path d="M 57.6 307.584 
L 414.72 307.584 
L 414.72 41.472 
L 57.6 41.472 
z
" style="fill:#ffffff;"/>
   </g>
   <g id="matplotlib.axis_1">
    <g id="xtick_1">
     <g id="line2d_1">
      <path clip-path="url(#pf28a1fd197)" d="M 57.6 307.584 
L 57.6 41.472 
" style="fill:none;stroke:#b0b0b0;stroke-linecap:square;stroke-width:0.8;"/>
     </g>
     <g id="line2d_2">
      <defs>
       <path d="M 0 0 
L 0 3.5 
" id="m5c21da576f" style="stroke:#000000;stroke-width:0.8;"/>
      </defs>
      <g>
       <use style="stroke:#000000;stroke-width:0.8;" x="57.6" xlink:href="#m5c21da576f" y="307.584"/>
      </g>
     </g>
     <g id="text_1">
      <!-- 0 -->
      <defs>
       <path d="M 31.78125 66.40625 
Q 24.171875 66.40625 20.328125 58.90625 
Q 16.5 51.421875 16.5 36.375 
Q 16.5 21.390625 20.328125 13.890625 
Q 24.171875 6.390625 31.78125 6.390625 
Q 39.453125 6.390625 43.28125 13.890625 
Q 47.125 21.390625 47.125 36.375 
Q 47.125 51.421875 43.28125 58.90625 
Q 39.453125 66.40625 31.78125 66.40625 
M 31.78125 74.21875 
Q 44.046875 74.21875 50.515625 64.515625 
Q 56.984375 54.828125 56.984375 36.375 
Q 56.984375 17.96875 50.515625 8.265625 
Q 44.046875 -1.421875 31.78125 -1.421875 
Q 19.53125 -1.421875 13.0625 8.265625 
Q 6.59375 17.96875 6.59375 36.375 
Q 6.59375 54.828125 13.0625 64.515625 
Q 19.53125 74.21875 31.78125 74.21875 
" id="DejaVuSans-30"/>
      </defs>
      <g transform="translate(54.41875 322.182437)scale(0.1 -0.1)">
       <use xlink:href="#DejaVuSans-30"/>
      </g>
     </g>
    </g>
    <g id="xtick_2">
     <g id="line2d_3">
      <path clip-path="url(#pf28a1fd197)" d="M 129.024 307.584 
L 129.024 41.472 
" style="fill:none;stroke:#b0b0b0;stroke-linecap:square;stroke-width:0.8;"/>
     </g>
     <g id="line2d_4">
      <g>
       <use style="stroke:#000000;stroke-width:0.8;" x="129.024" xlink:href="#m5c21da576f" y="307.584"/>
      </g>
     </g>
     <g id="text_2">
      <!-- 200 -->
      <defs>
       <path d="M 19.1875 8.296875 
L 53.609375 8.296875 
L 53.609375 0 
L 7.328125 0 
L 7.328125 8.296875 
Q 12.9375 14.109375 22.625 23.890625 
Q 32.328125 33.6875 34.8125 36.53125 
Q 39.546875 41.84375 41.421875 45.53125 
Q 43.3125 49.21875 43.3125 52.78125 
Q 43.3125 58.59375 39.234375 62.25 
Q 35.15625 65.921875 28.609375 65.921875 
Q 23.96875 65.921875 18.8125 64.3125 
Q 13.671875 62.703125 7.8125 59.421875 
L 7.8125 69.390625 
Q 13.765625 71.78125 18.9375 73 
Q 24.125 74.21875 28.421875 74.21875 
Q 39.75 74.21875 46.484375 68.546875 
Q 53.21875 62.890625 53.21875 53.421875 
Q 53.21875 48.921875 51.53125 44.890625 
Q 49.859375 40.875 45.40625 35.40625 
Q 44.1875 33.984375 37.640625 27.21875 
Q 31.109375 20.453125 19.1875 8.296875 
" id="DejaVuSans-32"/>
      </defs>
      <g transform="translate(119.48025 322.182437)scale(0.1 -0.1)">
       <use xlink:href="#DejaVuSans-32"/>
       <use x="63.623047" xlink:href="#DejaVuSans-30"/>
       <use x="127.246094" xlink:href="#DejaVuSans-30"/>
      </g>
     </g>
    </g>
    <g id="xtick_3">
     <g id="line2d_5">
      <path clip-path="url(#pf28a1fd197)" d="M 200.448 307.584 
L 200.448 41.472 
" style="fill:none;stroke:#b0b0b0;stroke-linecap:square;stroke-width:0.8;"/>
     </g>
     <g id="line2d_6">
      <g>
       <use style="stroke:#000000;stroke-width:0.8;" x="200.448" xlink:href="#m5c21da576f" y="307.584"/>
      </g>
     </g>
     <g id="text_3">
      <!-- 400 -->
      <defs>
       <path d="M 37.796875 64.3125 
L 12.890625 25.390625 
L 37.796875 25.390625 
z
M 35.203125 72.90625 
L 47.609375 72.90625 
L 47.609375 25.390625 
L 58.015625 25.390625 
L 58.015625 17.1875 
L 47.609375 17.1875 
L 47.609375 0 
L 37.796875 0 
L 37.796875 17.1875 
L 4.890625 17.1875 
L 4.890625 26.703125 
z
" id="DejaVuSans-34"/>
      </defs>
      <g transform="translate(190.90425 322.182437)scale(0.1 -0.1)">
       <use xlink:href="#DejaVuSans-34"/>
       <use x="63.623047" xlink:href="#DejaVuSans-30"/>
       <use x="127.246094" xlink:href="#DejaVuSans-30"/>
      </g>
     </g>
    </g>
    <g id="xtick_4">
     <g id="line2d_7">
      <path clip-path="url(#pf28a1fd197)" d="M 271.872 307.584 
L 271.872 41.472 
" style="fill:none;stroke:#b0b0b0;stroke-linecap:square;stroke-width:0.8;"/>
     </g>
     <g id="line2d_8">
      <g>
       <use style="stroke:#000000;stroke-width:0.8;" x="271.872" xlink:href="#m5c21da576f" y="307.584"/>
      </g>
     </g>
     <g id="text_4">
      <!-- 600 -->
      <defs>
       <path d="M 33.015625 40.375 
Q 26.375 40.375 22.484375 35.828125 
Q 18.609375 31.296875 18.609375 23.390625 
Q 18.609375 15.53125 22.484375 10.953125 
Q 26.375 6.390625 33.015625 6.390625 
Q 39.65625 6.390625 43.53125 10.953125 
Q 47.40625 15.53125 47.40625 23.390625 
Q 47.40625 31.296875 43.53125 35.828125 
Q 39.65625 40.375 33.015625 40.375 
M 52.59375 71.296875 
L 52.59375 62.3125 
Q 48.875 64.0625 45.09375 64.984375 
Q 41.3125 65.921875 37.59375 65.921875 
Q 27.828125 65.921875 22.671875 59.328125 
Q 17.53125 52.734375 16.796875 39.40625 
Q 19.671875 43.65625 24.015625 45.921875 
Q 28.375 48.1875 33.59375 48.1875 
Q 44.578125 48.1875 50.953125 41.515625 
Q 57.328125 34.859375 57.328125 23.390625 
Q 57.328125 12.15625 50.6875 5.359375 
Q 44.046875 -1.421875 33.015625 -1.421875 
Q 20.359375 -1.421875 13.671875 8.265625 
Q 6.984375 17.96875 6.984375 36.375 
Q 6.984375 53.65625 15.1875 63.9375 
Q 23.390625 74.21875 37.203125 74.21875 
Q 40.921875 74.21875 44.703125 73.484375 
Q 48.484375 72.75 52.59375 71.296875 
" id="DejaVuSans-36"/>
      </defs>
      <g transform="translate(262.32825 322.182437)scale(0.1 -0.1)">
       <use xlink:href="#DejaVuSans-36"/>
       <use x="63.623047" xlink:href="#DejaVuSans-30"/>
       <use x="127.246094" xlink:href="#DejaVuSans-30"/>
      </g>
     </g>
    </g>
    <g id="xtick_5">
     <g id="line2d_9">
      <path clip-path="url(#pf28a1fd197)" d="M 343.296 307.584 
L 343.296 41.472 
" style="fill:none;stroke:#b0b0b0;stroke-linecap:square;stroke-width:0.8;"/>
     </g>
     <g id="line2d_10">
      <g>
       <use style="stroke:#000000;stroke-width:0.8;" x="343.296" xlink:href="#m5c21da576f" y="307.584"/>
      </g>
     </g>
     <g id="text_5">
      <!-- 800 -->
      <defs>
       <path d="M 31.78125 34.625 
Q 24.75 34.625 20.71875 30.859375 
Q 16.703125 27.09375 16.703125 20.515625 
Q 16.703125 13.921875 20.71875 10.15625 
Q 24.75 6.390625 31.78125 6.390625 
Q 38.8125 6.390625 42.859375 10.171875 
Q 46.921875 13.96875 46.921875 20.515625 
Q 46.921875 27.09375 42.890625 30.859375 
Q 38.875 34.625 31.78125 34.625 
M 21.921875 38.8125 
Q 15.578125 40.375 12.03125 44.71875 
Q 8.5 49.078125 8.5 55.328125 
Q 8.5 64.0625 14.71875 69.140625 
Q 20.953125 74.21875 31.78125 74.21875 
Q 42.671875 74.21875 48.875 69.140625 
Q 55.078125 64.0625 55.078125 55.328125 
Q 55.078125 49.078125 51.53125 44.71875 
Q 48 40.375 41.703125 38.8125 
Q 48.828125 37.15625 52.796875 32.3125 
Q 56.78125 27.484375 56.78125 20.515625 
Q 56.78125 9.90625 50.3125 4.234375 
Q 43.84375 -1.421875 31.78125 -1.421875 
Q 19.734375 -1.421875 13.25 4.234375 
Q 6.78125 9.90625 6.78125 20.515625 
Q 6.78125 27.484375 10.78125 32.3125 
Q 14.796875 37.15625 21.921875 38.8125 
M 18.3125 54.390625 
Q 18.3125 48.734375 21.84375 45.5625 
Q 25.390625 42.390625 31.78125 42.390625 
Q 38.140625 42.390625 41.71875 45.5625 
Q 45.3125 48.734375 45.3125 54.390625 
Q 45.3125 60.0625 41.71875 63.234375 
Q 38.140625 66.40625 31.78125 66.40625 
Q 25.390625 66.40625 21.84375 63.234375 
Q 18.3125 60.0625 18.3125 54.390625 
" id="DejaVuSans-38"/>
      </defs>
      <g transform="translate(333.75225 322.182437)scale(0.1 -0.1)">
       <use xlink:href="#DejaVuSans-38"/>
       <use x="63.623047" xlink:href="#DejaVuSans-30"/>
       <use x="127.246094" xlink:href="#DejaVuSans-30"/>
      </g>
     </g>
    </g>
    <g id="xtick_6">
     <g id="line2d_11">
      <path clip-path="url(#pf28a1fd197)" d="M 414.72 307.584 
L 414.72 41.472 
" style="fill:none;stroke:#b0b0b0;stroke-linecap:square;stroke-width:0.8;"/>
     </g>
     <g id="line2d_12">
      <g>
       <use style="stroke:#000000;stroke-width:0.8;" x="414.72" xlink:href="#m5c21da576f" y="307.584"/>
      </g>
     </g>
     <g id="text_6">
      <!-- 1000 -->
      <defs>
       <path d="M 12.40625 8.296875 
L 28.515625 8.296875 
L 28.515625 63.921875 
L 10.984375 60.40625 
L 10.984375 69.390625 
L 28.421875 72.90625 
L 38.28125 72.90625 
L 38.28125 8.296875 
L 54.390625 8.296875 
L 54.390625 0 
L 12.40625 0 
z
" id="DejaVuSans-31"/>
      </defs>
      <g transform="translate(401.995 322.182437)scale(0.1 -0.1)">
       <use xlink:href="#DejaVuSans-31"/>
       <use x="63.623047" xlink:href="#DejaVuSans-30"/>
       <use x="127.246094" xlink:href="#DejaVuSans-30"/>
       <use x="190.869141" xlink:href="#DejaVuSans-30"/>
      </g>
     </g>
    </g>
    <g id="text_7">
     <!-- Number of clients -->
     <defs>
      <path d="M 9.8125 72.90625 
L 23.09375 72.90625 
L 55.421875 11.921875 
L 55.421875 72.90625 
L 64.984375 72.90625 
L 64.984375 0 
L 51.703125 0 
L 19.390625 60.984375 
L 19.390625 0 
L 9.8125 0 
z
" id="DejaVuSans-4e"/>
      <path d="M 8.5 21.578125 
L 8.5 54.6875 
L 17.484375 54.6875 
L 17.484375 21.921875 
Q 17.484375 14.15625 20.5 10.265625 
Q 23.53125 6.390625 29.59375 6.390625 
Q 36.859375 6.390625 41.078125 11.03125 
Q 45.3125 15.671875 45.3125 23.6875 
L 45.3125 54.6875 
L 54.296875 54.6875 
L 54.296875 0 
L 45.3125 0 
L 45.3125 8.40625 
Q 42.046875 3.421875 37.71875 1 
Q 33.40625 -1.421875 27.6875 -1.421875 
Q 18.265625 -1.421875 13.375 4.4375 
Q 8.5 10.296875 8.5 21.578125 
M 31.109375 56 
z
" id="DejaVuSans-75"/>
      <path d="M 52 44.1875 
Q 55.375 50.25 60.0625 53.125 
Q 64.75 56 71.09375 56 
Q 79.640625 56 84.28125 50.015625 
Q 88.921875 44.046875 88.921875 33.015625 
L 88.921875 0 
L 79.890625 0 
L 79.890625 32.71875 
Q 79.890625 40.578125 77.09375 44.375 
Q 74.3125 48.1875 68.609375 48.1875 
Q 61.625 48.1875 57.5625 43.546875 
Q 53.515625 38.921875 53.515625 30.90625 
L 53.515625 0 
L 44.484375 0 
L 44.484375 32.71875 
Q 44.484375 40.625 41.703125 44.40625 
Q 38.921875 48.1875 33.109375 48.1875 
Q 26.21875 48.1875 22.15625 43.53125 
Q 18.109375 38.875 18.109375 30.90625 
L 18.109375 0 
L 9.078125 0 
L 9.078125 54.6875 
L 18.109375 54.6875 
L 18.109375 46.1875 
Q 21.1875 51.21875 25.484375 53.609375 
Q 29.78125 56 35.6875 56 
Q 41.65625 56 45.828125 52.96875 
Q 50 49.953125 52 44.1875 
" id="DejaVuSans-6d"/>
      <path d="M 48.6875 27.296875 
Q 48.6875 37.203125 44.609375 42.84375 
Q 40.53125 48.484375 33.40625 48.484375 
Q 26.265625 48.484375 22.1875 42.84375 
Q 18.109375 37.203125 18.109375 27.296875 
Q 18.109375 17.390625 22.1875 11.75 
Q 26.265625 6.109375 33.40625 6.109375 
Q 40.53125 6.109375 44.609375 11.75 
Q 48.6875 17.390625 48.6875 27.296875 
M 18.109375 46.390625 
Q 20.953125 51.265625 25.265625 53.625 
Q 29.59375 56 35.59375 56 
Q 45.5625 56 51.78125 48.09375 
Q 58.015625 40.1875 58.015625 27.296875 
Q 58.015625 14.40625 51.78125 6.484375 
Q 45.5625 -1.421875 35.59375 -1.421875 
Q 29.59375 -1.421875 25.265625 0.953125 
Q 20.953125 3.328125 18.109375 8.203125 
L 18.109375 0 
L 9.078125 0 
L 9.078125 75.984375 
L 18.109375 75.984375 
z
" id="DejaVuSans-62"/>
      <path d="M 56.203125 29.59375 
L 56.203125 25.203125 
L 14.890625 25.203125 
Q 15.484375 15.921875 20.484375 11.0625 
Q 25.484375 6.203125 34.421875 6.203125 
Q 39.59375 6.203125 44.453125 7.46875 
Q 49.3125 8.734375 54.109375 11.28125 
L 54.109375 2.78125 
Q 49.265625 0.734375 44.1875 -0.34375 
Q 39.109375 -1.421875 33.890625 -1.421875 
Q 20.796875 -1.421875 13.15625 6.1875 
Q 5.515625 13.8125 5.515625 26.8125 
Q 5.515625 40.234375 12.765625 48.109375 
Q 20.015625 56 32.328125 56 
Q 43.359375 56 49.78125 48.890625 
Q 56.203125 41.796875 56.203125 29.59375 
M 47.21875 32.234375 
Q 47.125 39.59375 43.09375 43.984375 
Q 39.0625 48.390625 32.421875 48.390625 
Q 24.90625 48.390625 20.390625 44.140625 
Q 15.875 39.890625 15.1875 32.171875 
z
" id="DejaVuSans-65"/>
      <path d="M 41.109375 46.296875 
Q 39.59375 47.171875 37.8125 47.578125 
Q 36.03125 48 33.890625 48 
Q 26.265625 48 22.1875 43.046875 
Q 18.109375 38.09375 18.109375 28.8125 
L 18.109375 0 
L 9.078125 0 
L 9.078125 54.6875 
L 18.109375 54.6875 
L 18.109375 46.1875 
Q 20.953125 51.171875 25.484375 53.578125 
Q 30.03125 56 36.53125 56 
Q 37.453125 56 38.578125 55.875 
Q 39.703125 55.765625 41.0625 55.515625 
z
" id="DejaVuSans-72"/>
      <path id="DejaVuSans-20"/>
      <path d="M 30.609375 48.390625 
Q 23.390625 48.390625 19.1875 42.75 
Q 14.984375 37.109375 14.984375 27.296875 
Q 14.984375 17.484375 19.15625 11.84375 
Q 23.34375 6.203125 30.609375 6.203125 
Q 37.796875 6.203125 41.984375 11.859375 
Q 46.1875 17.53125 46.1875 27.296875 
Q 46.1875 37.015625 41.984375 42.703125 
Q 37.796875 48.390625 30.609375 48.390625 
M 30.609375 56 
Q 42.328125 56 49.015625 48.375 
Q 55.71875 40.765625 55.71875 27.296875 
Q 55.71875 13.875 49.015625 6.21875 
Q 42.328125 -1.421875 30.609375 -1.421875 
Q 18.84375 -1.421875 12.171875 6.21875 
Q 5.515625 13.875 5.515625 27.296875 
Q 5.515625 40.765625 12.171875 48.375 
Q 18.84375 56 30.609375 56 
" id="DejaVuSans-6f"/>
      <path d="M 37.109375 75.984375 
L 37.109375 68.5 
L 28.515625 68.5 
Q 23.6875 68.5 21.796875 66.546875 
Q 19.921875 64.59375 19.921875 59.515625 
L 19.921875 54.6875 
L 34.71875 54.6875 
L 34.71875 47.703125 
L 19.921875 47.703125 
L 19.921875 0 
L 10.890625 0 
L 10.890625 47.703125 
L 2.296875 47.703125 
L 2.296875 54.6875 
L 10.890625 54.6875 
L 10.890625 58.5 
Q 10.890625 67.625 15.140625 71.796875 
Q 19.390625 75.984375 28.609375 75.984375 
z
" id="DejaVuSans-66"/>
      <path d="M 48.78125 52.59375 
L 48.78125 44.1875 
Q 44.96875 46.296875 41.140625 47.34375 
Q 37.3125 48.390625 33.40625 48.390625 
Q 24.65625 48.390625 19.8125 42.84375 
Q 14.984375 37.3125 14.984375 27.296875 
Q 14.984375 17.28125 19.8125 11.734375 
Q 24.65625 6.203125 33.40625 6.203125 
Q 37.3125 6.203125 41.140625 7.25 
Q 44.96875 8.296875 48.78125 10.40625 
L 48.78125 2.09375 
Q 45.015625 0.34375 40.984375 -0.53125 
Q 36.96875 -1.421875 32.421875 -1.421875 
Q 20.0625 -1.421875 12.78125 6.34375 
Q 5.515625 14.109375 5.515625 27.296875 
Q 5.515625 40.671875 12.859375 48.328125 
Q 20.21875 56 33.015625 56 
Q 37.15625 56 41.109375 55.140625 
Q 45.0625 54.296875 48.78125 52.59375 
" id="DejaVuSans-63"/>
      <path d="M 9.421875 75.984375 
L 18.40625 75.984375 
L 18.40625 0 
L 9.421875 0 
z
" id="DejaVuSans-6c"/>
      <path d="M 9.421875 54.6875 
L 18.40625 54.6875 
L 18.40625 0 
L 9.421875 0 
z
M 9.421875 75.984375 
L 18.40625 75.984375 
L 18.40625 64.59375 
L 9.421875 64.59375 
z
" id="DejaVuSans-69"/>
      <path d="M 54.890625 33.015625 
L 54.890625 0 
L 45.90625 0 
L 45.90625 32.71875 
Q 45.90625 40.484375 42.875 44.328125 
Q 39.84375 48.1875 33.796875 48.1875 
Q 26.515625 48.1875 22.3125 43.546875 
Q 18.109375 38.921875 18.109375 30.90625 
L 18.109375 0 
L 9.078125 0 
L 9.078125 54.6875 
L 18.109375 54.6875 
L 18.109375 46.1875 
Q 21.34375 51.125 25.703125 53.5625 
Q 30.078125 56 35.796875 56 
Q 45.21875 56 50.046875 50.171875 
Q 54.890625 44.34375 54.890625 33.015625 
" id="DejaVuSans-6e"/>
      <path d="M 18.3125 70.21875 
L 18.3125 54.6875 
L 36.8125 54.6875 
L 36.8125 47.703125 
L 18.3125 47.703125 
L 18.3125 18.015625 
Q 18.3125 11.328125 20.140625 9.421875 
Q 21.96875 7.515625 27.59375 7.515625 
L 36.8125 7.515625 
L 36.8125 0 
L 27.59375 0 
Q 17.1875 0 13.234375 3.875 
Q 9.28125 7.765625 9.28125 18.015625 
L 9.28125 47.703125 
L 2.6875 47.703125 
L 2.6875 54.6875 
L 9.28125 54.6875 
L 9.28125 70.21875 
z
" id="DejaVuSans-74"/>
      <path d="M 44.28125 53.078125 
L 44.28125 44.578125 
Q 40.484375 46.53125 36.375 47.5 
Q 32.28125 48.484375 27.875 48.484375 
Q 21.1875 48.484375 17.84375 46.4375 
Q 14.5 44.390625 14.5 40.28125 
Q 14.5 37.15625 16.890625 35.375 
Q 19.28125 33.59375 26.515625 31.984375 
L 29.59375 31.296875 
Q 39.15625 29.25 43.1875 25.515625 
Q 47.21875 21.78125 47.21875 15.09375 
Q 47.21875 7.46875 41.1875 3.015625 
Q 35.15625 -1.421875 24.609375 -1.421875 
Q 20.21875 -1.421875 15.453125 -0.5625 
Q 10.6875 0.296875 5.421875 2 
L 5.421875 11.28125 
Q 10.40625 8.6875 15.234375 7.390625 
Q 20.0625 6.109375 24.8125 6.109375 
Q 31.15625 6.109375 34.5625 8.28125 
Q 37.984375 10.453125 37.984375 14.40625 
Q 37.984375 18.0625 35.515625 20.015625 
Q 33.0625 21.96875 24.703125 23.78125 
L 21.578125 24.515625 
Q 13.234375 26.265625 9.515625 29.90625 
Q 5.8125 33.546875 5.8125 39.890625 
Q 5.8125 47.609375 11.28125 51.796875 
Q 16.75 56 26.8125 56 
Q 31.78125 56 36.171875 55.265625 
Q 40.578125 54.546875 44.28125 53.078125 
" id="DejaVuSans-73"/>
     </defs>
     <g transform="translate(191.738906 335.860562)scale(0.1 -0.1)">
      <use xlink:href="#DejaVuSans-4e"/>
      <use x="74.804688" xlink:href="#DejaVuSans-75"/>
      <use x="138.183594" xlink:href="#DejaVuSans-6d"/>
      <use x="235.595703" xlink:href="#DejaVuSans-62"/>
      <use x="299.072266" xlink:href="#DejaVuSans-65"/>
      <use x="360.595703" xlink:href="#DejaVuSans-72"/>
      <use x="401.708984" xlink:href="#DejaVuSans-20"/>
      <use x="433.496094" xlink:href="#DejaVuSans-6f"/>
      <use x="494.677734" xlink:href="#DejaVuSans-66"/>
      <use x="529.882812" xlink:href="#DejaVuSans-20"/>
      <use x="561.669922" xlink:href="#DejaVuSans-63"/>
      <use x="616.650391" xlink:href="#DejaVuSans-6c"/>
      <use x="644.433594" xlink:href="#DejaVuSans-69"/>
      <use x="672.216797" xlink:href="#DejaVuSans-65"/>
      <use x="733.740234" xlink:href="#DejaVuSans-6e"/>
      <use x="797.119141" xlink:href="#DejaVuSans-74"/>
      <use x="836.328125" xlink:href="#DejaVuSans-73"/>
     </g>
    </g>
   </g>
   <g id="matplotlib.axis_2">
    <g id="ytick_1">
     <g id="line2d_13">
      <path clip-path="url(#pf28a1fd197)" d="M 57.6 296.118061 
L 414.72 296.118061 
" style="fill:none;stroke:#b0b0b0;stroke-linecap:square;stroke-width:0.8;"/>
     </g>
     <g id="line2d_14">
      <defs>
       <path d="M 0 0 
L -3.5 0 
" id="med253389b3" style="stroke:#000000;stroke-width:0.8;"/>
      </defs>
      <g>
       <use style="stroke:#000000;stroke-width:0.8;" x="57.6" xlink:href="#med253389b3" y="296.118061"/>
      </g>
     </g>
     <g id="text_8">
      <!-- 0 -->
      <g transform="translate(44.2375 299.91728)scale(0.1 -0.1)">
       <use xlink:href="#DejaVuSans-30"/>
      </g>
     </g>
    </g>
    <g id="ytick_2">
     <g id="line2d_15">
      <path clip-path="url(#pf28a1fd197)" d="M 57.6 262.604173 
L 414.72 262.604173 
" style="fill:none;stroke:#b0b0b0;stroke-linecap:square;stroke-width:0.8;"/>
     </g>
     <g id="line2d_16">
      <g>
       <use style="stroke:#000000;stroke-width:0.8;" x="57.6" xlink:href="#med253389b3" y="262.604173"/>
      </g>
     </g>
     <g id="text_9">
      <!-- 50 -->
      <defs>
       <path d="M 10.796875 72.90625 
L 49.515625 72.90625 
L 49.515625 64.59375 
L 19.828125 64.59375 
L 19.828125 46.734375 
Q 21.96875 47.46875 24.109375 47.828125 
Q 26.265625 48.1875 28.421875 48.1875 
Q 40.625 48.1875 47.75 41.5 
Q 54.890625 34.8125 54.890625 23.390625 
Q 54.890625 11.625 47.5625 5.09375 
Q 40.234375 -1.421875 26.90625 -1.421875 
Q 22.3125 -1.421875 17.546875 -0.640625 
Q 12.796875 0.140625 7.71875 1.703125 
L 7.71875 11.625 
Q 12.109375 9.234375 16.796875 8.0625 
Q 21.484375 6.890625 26.703125 6.890625 
Q 35.15625 6.890625 40.078125 11.328125 
Q 45.015625 15.765625 45.015625 23.390625 
Q 45.015625 31 40.078125 35.4375 
Q 35.15625 39.890625 26.703125 39.890625 
Q 22.75 39.890625 18.8125 39.015625 
Q 14.890625 38.140625 10.796875 36.28125 
z
" id="DejaVuSans-35"/>
      </defs>
      <g transform="translate(37.875 266.403392)scale(0.1 -0.1)">
       <use xlink:href="#DejaVuSans-35"/>
       <use x="63.623047" xlink:href="#DejaVuSans-30"/>
      </g>
     </g>
    </g>
    <g id="ytick_3">
     <g id="line2d_17">
      <path clip-path="url(#pf28a1fd197)" d="M 57.6 229.090285 
L 414.72 229.090285 
" style="fill:none;stroke:#b0b0b0;stroke-linecap:square;stroke-width:0.8;"/>
     </g>
     <g id="line2d_18">
      <g>
       <use style="stroke:#000000;stroke-width:0.8;" x="57.6" xlink:href="#med253389b3" y="229.090285"/>
      </g>
     </g>
     <g id="text_10">
      <!-- 100 -->
      <g transform="translate(31.5125 232.889504)scale(0.1 -0.1)">
       <use xlink:href="#DejaVuSans-31"/>
       <use x="63.623047" xlink:href="#DejaVuSans-30"/>
       <use x="127.246094" xlink:href="#DejaVuSans-30"/>
      </g>
     </g>
    </g>
    <g id="ytick_4">
     <g id="line2d_19">
      <path clip-path="url(#pf28a1fd197)" d="M 57.6 195.576397 
L 414.72 195.576397 
" style="fill:none;stroke:#b0b0b0;stroke-linecap:square;stroke-width:0.8;"/>
     </g>
     <g id="line2d_20">
      <g>
       <use style="stroke:#000000;stroke-width:0.8;" x="57.6" xlink:href="#med253389b3" y="195.576397"/>
      </g>
     </g>
     <g id="text_11">
      <!-- 150 -->
      <g transform="translate(31.5125 199.375616)scale(0.1 -0.1)">
       <use xlink:href="#DejaVuSans-31"/>
       <use x="63.623047" xlink:href="#DejaVuSans-35"/>
       <use x="127.246094" xlink:href="#DejaVuSans-30"/>
      </g>
     </g>
    </g>
    <g id="ytick_5">
     <g id="line2d_21">
      <path clip-path="url(#pf28a1fd197)" d="M 57.6 162.062509 
L 414.72 162.062509 
" style="fill:none;stroke:#b0b0b0;stroke-linecap:square;stroke-width:0.8;"/>
     </g>
     <g id="line2d_22">
      <g>
       <use style="stroke:#000000;stroke-width:0.8;" x="57.6" xlink:href="#med253389b3" y="162.062509"/>
      </g>
     </g>
     <g id="text_12">
      <!-- 200 -->
      <g transform="translate(31.5125 165.861728)scale(0.1 -0.1)">
       <use xlink:href="#DejaVuSans-32"/>
       <use x="63.623047" xlink:href="#DejaVuSans-30"/>
       <use x="127.246094" xlink:href="#DejaVuSans-30"/>
      </g>
     </g>
    </g>
    <g id="ytick_6">
     <g id="line2d_23">
      <path clip-path="url(#pf28a1fd197)" d="M 57.6 128.548621 
L 414.72 128.548621 
" style="fill:none;stroke:#b0b0b0;stroke-linecap:square;stroke-width:0.8;"/>
     </g>
     <g id="line2d_24">
      <g>
       <use style="stroke:#000000;stroke-width:0.8;" x="57.6" xlink:href="#med253389b3" y="128.548621"/>
      </g>
     </g>
     <g id="text_13">
      <!-- 250 -->
      <g transform="translate(31.5125 132.34784)scale(0.1 -0.1)">
       <use xlink:href="#DejaVuSans-32"/>
       <use x="63.623047" xlink:href="#DejaVuSans-35"/>
       <use x="127.246094" xlink:href="#DejaVuSans-30"/>
      </g>
     </g>
    </g>
    <g id="ytick_7">
     <g id="line2d_25">
      <path clip-path="url(#pf28a1fd197)" d="M 57.6 95.034734 
L 414.72 95.034734 
" style="fill:none;stroke:#b0b0b0;stroke-linecap:square;stroke-width:0.8;"/>
     </g>
     <g id="line2d_26">
      <g>
       <use style="stroke:#000000;stroke-width:0.8;" x="57.6" xlink:href="#med253389b3" y="95.034734"/>
      </g>
     </g>
     <g id="text_14">
      <!-- 300 -->
      <defs>
       <path d="M 40.578125 39.3125 
Q 47.65625 37.796875 51.625 33 
Q 55.609375 28.21875 55.609375 21.1875 
Q 55.609375 10.40625 48.1875 4.484375 
Q 40.765625 -1.421875 27.09375 -1.421875 
Q 22.515625 -1.421875 17.65625 -0.515625 
Q 12.796875 0.390625 7.625 2.203125 
L 7.625 11.71875 
Q 11.71875 9.328125 16.59375 8.109375 
Q 21.484375 6.890625 26.8125 6.890625 
Q 36.078125 6.890625 40.9375 10.546875 
Q 45.796875 14.203125 45.796875 21.1875 
Q 45.796875 27.640625 41.28125 31.265625 
Q 36.765625 34.90625 28.71875 34.90625 
L 20.21875 34.90625 
L 20.21875 43.015625 
L 29.109375 43.015625 
Q 36.375 43.015625 40.234375 45.921875 
Q 44.09375 48.828125 44.09375 54.296875 
Q 44.09375 59.90625 40.109375 62.90625 
Q 36.140625 65.921875 28.71875 65.921875 
Q 24.65625 65.921875 20.015625 65.03125 
Q 15.375 64.15625 9.8125 62.3125 
L 9.8125 71.09375 
Q 15.4375 72.65625 20.34375 73.4375 
Q 25.25 74.21875 29.59375 74.21875 
Q 40.828125 74.21875 47.359375 69.109375 
Q 53.90625 64.015625 53.90625 55.328125 
Q 53.90625 49.265625 50.4375 45.09375 
Q 46.96875 40.921875 40.578125 39.3125 
" id="DejaVuSans-33"/>
      </defs>
      <g transform="translate(31.5125 98.833952)scale(0.1 -0.1)">
       <use xlink:href="#DejaVuSans-33"/>
       <use x="63.623047" xlink:href="#DejaVuSans-30"/>
       <use x="127.246094" xlink:href="#DejaVuSans-30"/>
      </g>
     </g>
    </g>
    <g id="ytick_8">
     <g id="line2d_27">
      <path clip-path="url(#pf28a1fd197)" d="M 57.6 61.520846 
L 414.72 61.520846 
" style="fill:none;stroke:#b0b0b0;stroke-linecap:square;stroke-width:0.8;"/>
     </g>
     <g id="line2d_28">
      <g>
       <use style="stroke:#000000;stroke-width:0.8;" x="57.6" xlink:href="#med253389b3" y="61.520846"/>
      </g>
     </g>
     <g id="text_15">
      <!-- 350 -->
      <g transform="translate(31.5125 65.320064)scale(0.1 -0.1)">
       <use xlink:href="#DejaVuSans-33"/>
       <use x="63.623047" xlink:href="#DejaVuSans-35"/>
       <use x="127.246094" xlink:href="#DejaVuSans-30"/>
      </g>
     </g>
    </g>
    <g id="text_16">
     <!-- Successful download requests per second -->
     <defs>
      <path d="M 53.515625 70.515625 
L 53.515625 60.890625 
Q 47.90625 63.578125 42.921875 64.890625 
Q 37.9375 66.21875 33.296875 66.21875 
Q 25.25 66.21875 20.875 63.09375 
Q 16.5 59.96875 16.5 54.203125 
Q 16.5 49.359375 19.40625 46.890625 
Q 22.3125 44.4375 30.421875 42.921875 
L 36.375 41.703125 
Q 47.40625 39.59375 52.65625 34.296875 
Q 57.90625 29 57.90625 20.125 
Q 57.90625 9.515625 50.796875 4.046875 
Q 43.703125 -1.421875 29.984375 -1.421875 
Q 24.8125 -1.421875 18.96875 -0.25 
Q 13.140625 0.921875 6.890625 3.21875 
L 6.890625 13.375 
Q 12.890625 10.015625 18.65625 8.296875 
Q 24.421875 6.59375 29.984375 6.59375 
Q 38.421875 6.59375 43.015625 9.90625 
Q 47.609375 13.234375 47.609375 19.390625 
Q 47.609375 24.75 44.3125 27.78125 
Q 41.015625 30.8125 33.5 32.328125 
L 27.484375 33.5 
Q 16.453125 35.6875 11.515625 40.375 
Q 6.59375 45.0625 6.59375 53.421875 
Q 6.59375 63.09375 13.40625 68.65625 
Q 20.21875 74.21875 32.171875 74.21875 
Q 37.3125 74.21875 42.625 73.28125 
Q 47.953125 72.359375 53.515625 70.515625 
" id="DejaVuSans-53"/>
      <path d="M 45.40625 46.390625 
L 45.40625 75.984375 
L 54.390625 75.984375 
L 54.390625 0 
L 45.40625 0 
L 45.40625 8.203125 
Q 42.578125 3.328125 38.25 0.953125 
Q 33.9375 -1.421875 27.875 -1.421875 
Q 17.96875 -1.421875 11.734375 6.484375 
Q 5.515625 14.40625 5.515625 27.296875 
Q 5.515625 40.1875 11.734375 48.09375 
Q 17.96875 56 27.875 56 
Q 33.9375 56 38.25 53.625 
Q 42.578125 51.265625 45.40625 46.390625 
M 14.796875 27.296875 
Q 14.796875 17.390625 18.875 11.75 
Q 22.953125 6.109375 30.078125 6.109375 
Q 37.203125 6.109375 41.296875 11.75 
Q 45.40625 17.390625 45.40625 27.296875 
Q 45.40625 37.203125 41.296875 42.84375 
Q 37.203125 48.484375 30.078125 48.484375 
Q 22.953125 48.484375 18.875 42.84375 
Q 14.796875 37.203125 14.796875 27.296875 
" id="DejaVuSans-64"/>
      <path d="M 4.203125 54.6875 
L 13.1875 54.6875 
L 24.421875 12.015625 
L 35.59375 54.6875 
L 46.1875 54.6875 
L 57.421875 12.015625 
L 68.609375 54.6875 
L 77.59375 54.6875 
L 63.28125 0 
L 52.6875 0 
L 40.921875 44.828125 
L 29.109375 0 
L 18.5 0 
z
" id="DejaVuSans-77"/>
      <path d="M 34.28125 27.484375 
Q 23.390625 27.484375 19.1875 25 
Q 14.984375 22.515625 14.984375 16.5 
Q 14.984375 11.71875 18.140625 8.90625 
Q 21.296875 6.109375 26.703125 6.109375 
Q 34.1875 6.109375 38.703125 11.40625 
Q 43.21875 16.703125 43.21875 25.484375 
L 43.21875 27.484375 
z
M 52.203125 31.203125 
L 52.203125 0 
L 43.21875 0 
L 43.21875 8.296875 
Q 40.140625 3.328125 35.546875 0.953125 
Q 30.953125 -1.421875 24.3125 -1.421875 
Q 15.921875 -1.421875 10.953125 3.296875 
Q 6 8.015625 6 15.921875 
Q 6 25.140625 12.171875 29.828125 
Q 18.359375 34.515625 30.609375 34.515625 
L 43.21875 34.515625 
L 43.21875 35.40625 
Q 43.21875 41.609375 39.140625 45 
Q 35.0625 48.390625 27.6875 48.390625 
Q 23 48.390625 18.546875 47.265625 
Q 14.109375 46.140625 10.015625 43.890625 
L 10.015625 52.203125 
Q 14.9375 54.109375 19.578125 55.046875 
Q 24.21875 56 28.609375 56 
Q 40.484375 56 46.34375 49.84375 
Q 52.203125 43.703125 52.203125 31.203125 
" id="DejaVuSans-61"/>
      <path d="M 14.796875 27.296875 
Q 14.796875 17.390625 18.875 11.75 
Q 22.953125 6.109375 30.078125 6.109375 
Q 37.203125 6.109375 41.296875 11.75 
Q 45.40625 17.390625 45.40625 27.296875 
Q 45.40625 37.203125 41.296875 42.84375 
Q 37.203125 48.484375 30.078125 48.484375 
Q 22.953125 48.484375 18.875 42.84375 
Q 14.796875 37.203125 14.796875 27.296875 
M 45.40625 8.203125 
Q 42.578125 3.328125 38.25 0.953125 
Q 33.9375 -1.421875 27.875 -1.421875 
Q 17.96875 -1.421875 11.734375 6.484375 
Q 5.515625 14.40625 5.515625 27.296875 
Q 5.515625 40.1875 11.734375 48.09375 
Q 17.96875 56 27.875 56 
Q 33.9375 56 38.25 53.625 
Q 42.578125 51.265625 45.40625 46.390625 
L 45.40625 54.6875 
L 54.390625 54.6875 
L 54.390625 -20.796875 
L 45.40625 -20.796875 
z
" id="DejaVuSans-71"/>
      <path d="M 18.109375 8.203125 
L 18.109375 -20.796875 
L 9.078125 -20.796875 
L 9.078125 54.6875 
L 18.109375 54.6875 
L 18.109375 46.390625 
Q 20.953125 51.265625 25.265625 53.625 
Q 29.59375 56 35.59375 56 
Q 45.5625 56 51.78125 48.09375 
Q 58.015625 40.1875 58.015625 27.296875 
Q 58.015625 14.40625 51.78125 6.484375 
Q 45.5625 -1.421875 35.59375 -1.421875 
Q 29.59375 -1.421875 25.265625 0.953125 
Q 20.953125 3.328125 18.109375 8.203125 
M 48.6875 27.296875 
Q 48.6875 37.203125 44.609375 42.84375 
Q 40.53125 48.484375 33.40625 48.484375 
Q 26.265625 48.484375 22.1875 42.84375 
Q 18.109375 37.203125 18.109375 27.296875 
Q 18.109375 17.390625 22.1875 11.75 
Q 26.265625 6.109375 33.40625 6.109375 
Q 40.53125 6.109375 44.609375 11.75 
Q 48.6875 17.390625 48.6875 27.296875 
" id="DejaVuSans-70"/>
     </defs>
     <g transform="translate(25.432812 279.366281)rotate(-90)scale(0.1 -0.1)">
      <use xlink:href="#DejaVuSans-53"/>
      <use x="63.476562" xlink:href="#DejaVuSans-75"/>
      <use x="126.855469" xlink:href="#DejaVuSans-63"/>
      <use x="181.835938" xlink:href="#DejaVuSans-63"/>
      <use x="236.816406" xlink:href="#DejaVuSans-65"/>
      <use x="298.339844" xlink:href="#DejaVuSans-73"/>
      <use x="350.439453" xlink:href="#DejaVuSans-73"/>
      <use x="402.539062" xlink:href="#DejaVuSans-66"/>
      <use x="437.744141" xlink:href="#DejaVuSans-75"/>
      <use x="501.123047" xlink:href="#DejaVuSans-6c"/>
      <use x="528.90625" xlink:href="#DejaVuSans-20"/>
      <use x="560.693359" xlink:href="#DejaVuSans-64"/>
      <use x="624.169922" xlink:href="#DejaVuSans-6f"/>
      <use x="685.351562" xlink:href="#DejaVuSans-77"/>
      <use x="767.138672" xlink:href="#DejaVuSans-6e"/>
      <use x="830.517578" xlink:href="#DejaVuSans-6c"/>
      <use x="858.300781" xlink:href="#DejaVuSans-6f"/>
      <use x="919.482422" xlink:href="#DejaVuSans-61"/>
      <use x="980.761719" xlink:href="#DejaVuSans-64"/>
      <use x="1044.238281" xlink:href="#DejaVuSans-20"/>
      <use x="1076.025391" xlink:href="#DejaVuSans-72"/>
      <use x="1117.107422" xlink:href="#DejaVuSans-65"/>
      <use x="1178.630859" xlink:href="#DejaVuSans-71"/>
      <use x="1242.107422" xlink:href="#DejaVuSans-75"/>
      <use x="1305.486328" xlink:href="#DejaVuSans-65"/>
      <use x="1367.009766" xlink:href="#DejaVuSans-73"/>
      <use x="1419.109375" xlink:href="#DejaVuSans-74"/>
      <use x="1458.318359" xlink:href="#DejaVuSans-73"/>
      <use x="1510.417969" xlink:href="#DejaVuSans-20"/>
      <use x="1542.205078" xlink:href="#DejaVuSans-70"/>
      <use x="1605.681641" xlink:href="#DejaVuSans-65"/>
      <use x="1667.205078" xlink:href="#DejaVuSans-72"/>
      <use x="1708.318359" xlink:href="#DejaVuSans-20"/>
      <use x="1740.105469" xlink:href="#DejaVuSans-73"/>
      <use x="1792.205078" xlink:href="#DejaVuSans-65"/>
      <use x="1853.728516" xlink:href="#DejaVuSans-63"/>
      <use x="1908.708984" xlink:href="#DejaVuSans-6f"/>
      <use x="1969.890625" xlink:href="#DejaVuSans-6e"/>
      <use x="2033.269531" xlink:href="#DejaVuSans-64"/>
     </g>
    </g>
   </g>
   <g id="line2d_29">
    <path clip-path="url(#pf28a1fd197)" d="M 57.6 295.488 
L 57.95712 295.465211 
L 61.52832 289.126394 
L 61.88544 288.216827 
L 62.24256 287.883699 
L 62.59968 286.799189 
L 63.31392 285.773664 
L 63.67104 285.459304 
L 64.38528 284.260177 
L 64.7424 282.89013 
L 65.09952 282.498687 
L 65.45664 281.463108 
L 65.81376 281.642743 
L 66.17088 280.235159 
L 66.528 279.411388 
L 66.88512 279.889966 
L 67.24224 278.413344 
L 67.59936 277.692126 
L 67.95648 277.667996 
L 68.3136 276.261753 
L 68.67072 275.768428 
L 69.02784 275.82071 
L 69.38496 274.78245 
L 69.74208 274.408435 
L 70.0992 272.889585 
L 70.45632 272.932483 
L 70.81344 272.854061 
L 71.52768 271.219923 
L 72.24192 268.882665 
L 72.59904 269.88406 
L 73.31328 267.517979 
L 73.6704 266.908027 
L 74.02752 266.556801 
L 74.38464 264.93674 
L 74.74176 265.072806 
L 75.456 264.417945 
L 75.81312 264.206807 
L 76.17024 262.224796 
L 76.52736 262.264342 
L 76.88448 260.644951 
L 77.2416 259.72533 
L 77.59872 261.146989 
L 77.95584 259.760185 
L 78.31296 257.881396 
L 78.67008 257.103204 
L 79.0272 256.855871 
L 79.38432 257.870001 
L 79.74144 257.446386 
L 80.09856 254.934185 
L 80.45568 255.781416 
L 80.8128 252.562072 
L 81.16992 254.446893 
L 81.52704 252.82214 
L 81.88416 253.633846 
L 82.24128 251.533195 
L 82.5984 250.167169 
L 82.95552 249.451313 
L 83.31264 249.378252 
L 83.66976 248.379539 
L 84.02688 249.771035 
L 84.74112 245.437019 
L 85.45536 246.976647 
L 85.81248 244.274087 
L 86.1696 245.386078 
L 86.52672 243.562252 
L 86.88384 243.494554 
L 87.24096 241.111717 
L 87.59808 242.522652 
L 87.9552 239.148473 
L 88.31232 242.444899 
L 88.66944 237.918514 
L 89.02656 237.546509 
L 89.38368 240.517851 
L 89.7408 238.44066 
L 90.09792 237.898405 
L 90.45504 235.022243 
L 90.81216 235.789711 
L 91.5264 233.030178 
L 91.88352 232.762067 
L 92.24064 231.383305 
L 92.59776 233.571092 
L 92.95488 229.788715 
L 93.312 231.440949 
L 93.66912 229.405986 
L 94.02624 230.276677 
L 94.38336 231.743245 
L 95.0976 229.965668 
L 95.45472 225.769729 
L 95.81184 226.848206 
L 96.16896 226.038511 
L 96.52608 228.156588 
L 96.8832 225.422525 
L 97.24032 224.586689 
L 97.59744 221.74069 
L 97.95456 222.412308 
L 98.31168 221.851285 
L 98.6688 223.67109 
L 99.38304 218.848441 
L 99.74016 222.101969 
L 100.09728 218.906755 
L 100.4544 219.198326 
L 100.81152 218.358468 
L 101.16864 216.639876 
L 101.52576 217.956301 
L 101.88288 215.127059 
L 102.95424 214.269774 
L 103.31136 212.214032 
L 103.66848 213.792536 
L 104.0256 211.189847 
L 104.38272 210.002115 
L 104.73984 212.156388 
L 105.09696 209.055683 
L 105.45408 212.386963 
L 105.8112 207.936319 
L 106.16832 208.90353 
L 106.52544 209.502758 
L 106.88256 205.445567 
L 107.23968 209.406238 
L 107.5968 202.909906 
L 107.95392 202.911917 
L 108.31104 203.57013 
L 108.66816 204.670056 
L 109.02528 202.517124 
L 109.3824 203.717591 
L 109.73952 198.606723 
L 110.09664 198.276946 
L 110.45376 201.097475 
L 110.81088 201.727536 
L 111.168 198.089269 
L 111.52512 196.542938 
L 111.88224 201.003636 
L 112.23936 195.862606 
L 112.59648 197.563101 
L 112.9536 195.636052 
L 113.31072 195.397433 
L 113.66784 190.950811 
L 114.02496 192.393919 
L 114.7392 193.115137 
L 115.09632 194.752626 
L 115.45344 190.664602 
L 115.81056 188.675218 
L 116.16768 192.817534 
L 116.5248 191.932097 
L 116.88192 192.033309 
L 117.23904 190.39515 
L 117.59616 188.185915 
L 117.95328 187.876246 
L 118.3104 182.234519 
L 118.66752 189.186639 
L 119.02464 187.859489 
L 119.38176 180.225026 
L 119.73888 187.596741 
L 120.096 181.595074 
L 120.45312 186.060464 
L 120.81024 177.910557 
L 121.16736 177.059304 
L 121.52448 183.134031 
L 121.8816 177.047239 
L 122.23872 179.352994 
L 122.59584 177.395113 
L 122.95296 181.325622 
L 123.31008 177.209446 
L 123.6672 178.93273 
L 124.02432 174.68451 
L 124.38144 174.653007 
L 124.73856 173.866101 
L 125.09568 180.04204 
L 125.4528 173.879506 
L 126.16704 176.214084 
L 126.52416 178.403211 
L 126.88128 176.719473 
L 127.2384 173.034956 
L 127.59552 171.993345 
L 127.95264 172.276202 
L 128.30976 170.668876 
L 128.66688 171.705125 
L 129.024 171.641449 
L 129.38112 177.265079 
L 129.73824 171.413554 
L 130.09536 169.680886 
L 130.45248 175.039087 
L 130.8096 168.793439 
L 131.52384 173.422377 
L 131.88096 169.722444 
L 132.23808 170.059593 
L 132.5952 169.270006 
L 132.95232 174.640272 
L 133.66656 175.126893 
L 134.02368 170.638043 
L 134.3808 170.408138 
L 134.73792 165.3462 
L 135.09504 170.528788 
L 135.45216 165.946099 
L 136.1664 173.21191 
L 136.52352 167.992457 
L 136.88064 164.894433 
L 137.23776 170.483879 
L 137.59488 165.782551 
L 137.952 163.803891 
L 138.66624 169.286763 
L 139.02336 165.171258 
L 139.38048 167.381163 
L 139.7376 168.659383 
L 140.09472 162.317885 
L 140.45184 167.940175 
L 140.80896 165.607608 
L 141.16608 164.794562 
L 141.5232 164.976877 
L 141.88032 168.721049 
L 142.23744 160.95454 
L 142.59456 164.631014 
L 142.95168 160.534276 
L 143.3088 167.007148 
L 143.66592 167.042003 
L 144.02304 159.766138 
L 144.38016 159.077763 
L 144.73728 159.672299 
L 145.0944 164.342794 
L 145.45152 164.700052 
L 145.80864 164.225496 
L 146.16576 157.837749 
L 146.88 156.914776 
L 147.23712 158.100498 
L 147.59424 160.045644 
L 147.95136 164.244263 
L 148.30848 159.577119 
L 148.6656 161.923092 
L 149.02272 156.794796 
L 149.37984 159.057654 
L 149.73696 158.816354 
L 150.09408 161.370783 
L 150.4512 154.415981 
L 150.80832 157.659455 
L 151.16544 159.341852 
L 151.52256 159.335819 
L 151.87968 156.243158 
L 152.2368 161.608061 
L 152.59392 161.850031 
L 152.95104 156.089664 
L 153.30816 160.469259 
L 153.66528 157.288791 
L 154.0224 161.202543 
L 154.37952 156.298121 
L 154.73664 154.011133 
L 155.09376 157.597119 
L 155.45088 158.809651 
L 155.808 156.692244 
L 156.16512 159.528859 
L 156.52224 156.398662 
L 156.87936 155.190152 
L 157.23648 152.587463 
L 157.5936 159.324425 
L 157.95072 155.09095 
L 158.30784 154.82351 
L 158.66496 156.111113 
L 159.02208 156.960355 
L 159.3792 157.059556 
L 159.73632 150.923163 
L 160.09344 153.294606 
L 160.45056 150.186528 
L 160.80768 152.597517 
L 161.1648 156.359116 
L 161.52192 151.088052 
L 161.87904 153.326109 
L 162.23616 157.046151 
L 162.59328 155.073523 
L 162.9504 148.725993 
L 163.30752 152.101512 
L 163.66464 154.205514 
L 164.02176 147.29562 
L 164.37888 147.956514 
L 164.736 151.513008 
L 165.09312 152.638404 
L 165.45024 152.33946 
L 165.80736 144.788781 
L 166.16448 154.905283 
L 166.5216 149.943217 
L 166.87872 147.917638 
L 167.23584 147.742695 
L 167.59296 143.831625 
L 167.95008 152.248302 
L 168.3072 146.857258 
L 168.66432 153.576793 
L 169.02144 143.118449 
L 169.37856 145.22044 
L 169.73568 152.787206 
L 170.0928 146.663548 
L 170.44992 150.671139 
L 170.80704 145.016005 
L 171.16416 146.155478 
L 171.52128 141.641157 
L 171.8784 142.584908 
L 172.23552 149.965336 
L 172.59264 141.698131 
L 172.94976 146.996006 
L 173.30688 142.577535 
L 173.664 148.111348 
L 174.02112 150.640976 
L 174.37824 144.821625 
L 174.73536 145.19497 
L 175.09248 141.419965 
L 175.4496 147.60864 
L 175.80672 146.81168 
L 176.16384 144.184191 
L 176.52096 143.228375 
L 176.87808 139.805936 
L 177.2352 145.914848 
L 177.59232 142.578205 
L 177.94944 143.449566 
L 178.30656 146.034157 
L 178.66368 138.494873 
L 179.0208 143.063486 
L 179.37792 145.225132 
L 179.73504 137.357412 
L 180.09216 145.957746 
L 180.44928 144.0374 
L 180.8064 143.436161 
L 181.16352 146.502011 
L 181.52064 137.827947 
L 181.87776 136.87012 
L 182.23488 136.361379 
L 182.592 141.218212 
L 182.94912 140.940717 
L 183.30624 138.527717 
L 183.66336 143.249153 
L 184.02048 139.656464 
L 184.3776 138.846099 
L 184.73472 143.31484 
L 185.09184 139.370926 
L 185.44896 139.584074 
L 185.80608 136.65362 
L 186.1632 137.869504 
L 186.52032 136.347973 
L 186.87744 140.403154 
L 187.23456 141.378408 
L 187.59168 143.65132 
L 187.9488 133.423552 
L 188.30592 139.622951 
L 188.66304 141.604962 
L 189.02016 135.152868 
L 189.37728 132.167451 
L 189.7344 132.257939 
L 190.09152 140.690703 
L 190.44864 141.948814 
L 190.80576 132.233138 
L 191.16288 132.639327 
L 191.52 130.830917 
L 191.87712 138.325963 
L 192.23424 139.813309 
L 192.59136 130.055406 
L 192.94848 136.574527 
L 193.3056 136.164317 
L 193.66272 135.403552 
L 194.01984 140.501685 
L 194.37696 137.438515 
L 194.73408 129.539962 
L 195.0912 137.561176 
L 195.44832 131.926151 
L 195.80544 133.923579 
L 196.16256 128.143774 
L 196.8768 138.164426 
L 197.23392 132.455671 
L 197.59104 134.786897 
L 197.94816 129.939448 
L 198.30528 130.781987 
L 198.6624 129.871079 
L 199.01952 135.264134 
L 199.37664 126.85684 
L 199.73376 132.794831 
L 200.09088 131.932854 
L 200.448 132.547499 
L 200.80512 125.955317 
L 201.16224 136.245421 
L 201.51936 129.405236 
L 201.87648 125.352737 
L 202.2336 128.856279 
L 202.94784 124.752839 
L 203.30496 128.172596 
L 203.66208 135.221907 
L 204.0192 135.588549 
L 204.37632 131.011222 
L 204.73344 129.721608 
L 205.09056 135.486667 
L 205.44768 128.538567 
L 205.8048 131.239787 
L 206.16192 131.426124 
L 206.51904 124.139534 
L 206.87616 128.060659 
L 207.23328 125.754233 
L 207.5904 125.293082 
L 207.94752 125.550469 
L 208.30464 126.845446 
L 208.66176 123.761498 
L 209.01888 123.800374 
L 209.376 132.852475 
L 209.73312 131.260565 
L 210.09024 131.001838 
L 210.44736 122.060333 
L 210.80448 128.251018 
L 211.1616 127.91655 
L 211.51872 128.418588 
L 211.87584 129.722278 
L 212.23296 128.23158 
L 212.59008 129.329495 
L 212.9472 128.515778 
L 213.30432 119.952309 
L 213.66144 123.2608 
L 214.01856 121.945715 
L 214.37568 124.173048 
L 214.7328 119.97912 
L 215.08992 119.975099 
L 215.44704 122.084463 
L 215.80416 119.346378 
L 216.16128 124.772947 
L 216.87552 121.846514 
L 217.23264 122.197069 
L 217.58976 123.836569 
L 217.94688 126.805229 
L 218.66112 122.596555 
L 219.01824 127.167179 
L 219.37536 118.097651 
L 219.73248 118.061456 
L 220.0896 121.182939 
L 220.44672 128.553984 
L 220.80384 117.199478 
L 221.16096 125.375527 
L 221.51808 126.534437 
L 222.23232 118.654651 
L 222.58944 126.142324 
L 223.6608 120.75128 
L 224.01792 115.197359 
L 224.37504 115.673256 
L 224.73216 118.962979 
L 225.08928 123.558404 
L 225.4464 115.860263 
L 225.80352 125.413062 
L 226.16064 121.139371 
L 226.51776 114.238191 
L 226.87488 116.139769 
L 227.232 124.408986 
L 227.58912 122.82512 
L 227.94624 115.41654 
L 228.30336 120.357157 
L 229.0176 123.5021 
L 229.37472 112.724034 
L 229.73184 119.652695 
L 230.08896 112.61813 
L 230.44608 120.384638 
L 230.8032 120.430217 
L 231.16032 119.208971 
L 231.51744 119.81021 
L 231.87456 118.315491 
L 232.23168 121.017381 
L 232.5888 114.606844 
L 232.94592 115.766425 
L 233.30304 122.266778 
L 233.66016 114.191942 
L 234.01728 121.35386 
L 234.3744 121.834449 
L 234.73152 113.92249 
L 235.08864 120.033413 
L 235.44576 115.163175 
L 235.80288 113.146309 
L 236.16 115.324712 
L 236.51712 111.852673 
L 236.87424 114.112849 
L 237.23136 115.39375 
L 237.58848 120.061564 
L 238.30272 109.790898 
L 238.65984 113.020297 
L 239.01696 108.977181 
L 239.37408 108.682259 
L 239.7312 118.128483 
L 240.08832 112.023594 
L 240.44544 115.73224 
L 240.80256 111.717277 
L 241.5168 118.253825 
L 242.23104 116.753744 
L 242.58816 110.536918 
L 242.94528 115.728219 
L 243.3024 106.963667 
L 243.65952 116.522498 
L 244.01664 115.238246 
L 244.37376 110.729287 
L 244.73088 108.666172 
L 245.088 115.470162 
L 245.44512 105.759848 
L 245.80224 110.822456 
L 246.15936 109.169551 
L 246.51648 110.979301 
L 246.8736 117.023195 
L 247.23072 113.602768 
L 247.58784 104.733653 
L 247.94496 113.673817 
L 248.30208 106.712313 
L 248.6592 117.025206 
L 249.01632 115.208083 
L 249.73056 105.90932 
L 250.08768 114.421177 
L 250.4448 104.031202 
L 250.80192 113.433188 
L 251.15904 116.269133 
L 251.51616 116.175294 
L 251.87328 108.409456 
L 252.2304 110.341867 
L 252.58752 114.567298 
L 252.94464 106.553457 
L 253.30176 106.603728 
L 253.65888 115.319349 
L 254.016 106.460288 
L 254.37312 103.655176 
L 254.73024 109.40817 
L 255.08736 109.680303 
L 255.44448 104.200112 
L 255.8016 110.581156 
L 256.15872 107.416104 
L 256.51584 108.016673 
L 256.87296 110.997398 
L 257.5872 112.427771 
L 257.94432 106.130512 
L 258.30144 102.017687 
L 258.65856 101.988195 
L 259.01568 109.030803 
L 259.72992 101.063212 
L 260.08704 104.942779 
L 260.44416 111.471285 
L 260.80128 103.541229 
L 261.1584 100.274965 
L 261.51552 111.369403 
L 262.22976 110.128048 
L 262.58688 101.341377 
L 262.944 106.214296 
L 263.30112 104.904574 
L 263.65824 101.237484 
L 264.01536 99.715283 
L 264.37248 109.72253 
L 265.08672 106.420742 
L 265.44384 99.573855 
L 265.80096 100.426448 
L 266.15808 105.248426 
L 266.5152 102.999644 
L 266.87232 110.480614 
L 267.58656 102.407789 
L 267.94368 108.954392 
L 268.3008 96.495269 
L 268.65792 103.537207 
L 269.01504 103.812691 
L 269.37216 96.313623 
L 269.72928 103.398459 
L 270.0864 103.282501 
L 270.44352 96.316305 
L 270.80064 106.549435 
L 271.15776 108.85385 
L 271.872 97.061653 
L 272.22912 104.112305 
L 272.58624 104.548656 
L 272.94336 95.394673 
L 273.30048 107.18754 
L 273.6576 102.246922 
L 274.01472 102.401756 
L 274.37184 105.526591 
L 274.72896 100.405669 
L 275.08608 101.594072 
L 275.4432 104.725609 
L 275.80032 103.66456 
L 276.15744 107.45498 
L 276.51456 100.091309 
L 276.87168 103.54391 
L 277.2288 95.515323 
L 277.58592 103.407843 
L 277.94304 102.38634 
L 278.30016 94.328261 
L 278.65728 101.822636 
L 279.0144 100.756895 
L 279.37152 96.849175 
L 279.72864 101.533747 
L 280.08576 101.238154 
L 280.44288 101.15638 
L 280.8 103.59284 
L 281.15712 100.922453 
L 281.51424 93.033954 
L 281.87136 95.255925 
L 282.94272 97.302283 
L 283.29984 98.484653 
L 283.65696 93.9891 
L 284.01408 92.840244 
L 284.3712 90.596824 
L 284.72832 92.744394 
L 285.08544 104.554018 
L 285.79968 98.325127 
L 286.1568 94.346358 
L 286.51392 100.11745 
L 286.87104 94.558836 
L 287.22816 92.032559 
L 287.58528 98.885479 
L 287.9424 98.952507 
L 288.29952 99.671715 
L 288.65664 91.965532 
L 289.01376 99.750808 
L 289.37088 94.750536 
L 289.728 91.344184 
L 290.08512 97.224531 
L 290.44224 99.678418 
L 290.79936 90.926601 
L 291.15648 100.008195 
L 291.5136 96.799575 
L 291.87072 95.00189 
L 292.22784 99.098628 
L 292.58496 99.330544 
L 292.94208 88.633581 
L 293.2992 96.623292 
L 293.65632 98.859338 
L 294.01344 88.597386 
L 294.37056 101.508946 
L 294.72768 90.533818 
L 295.0848 88.622856 
L 295.44192 89.775734 
L 295.79904 92.457516 
L 296.15616 92.822147 
L 296.51328 92.289946 
L 296.8704 90.934644 
L 297.22752 91.387752 
L 297.58464 89.059207 
L 297.94176 93.386521 
L 298.29888 91.218842 
L 298.656 94.919446 
L 299.01312 94.684178 
L 299.37024 95.747909 
L 299.72736 93.533311 
L 300.08448 87.117413 
L 300.4416 97.306975 
L 300.79872 96.125946 
L 301.15584 85.584487 
L 301.51296 98.028864 
L 301.87008 89.923195 
L 302.2272 85.32442 
L 302.58432 92.521192 
L 302.94144 87.518239 
L 303.29856 89.583365 
L 303.65568 87.933811 
L 304.0128 88.469363 
L 304.36992 86.431048 
L 304.72704 90.556608 
L 305.08416 93.018538 
L 305.44128 83.92622 
L 305.7984 85.149477 
L 306.15552 91.613636 
L 306.86976 88.199911 
L 307.22688 97.205093 
L 308.29824 87.927778 
L 308.65536 87.37681 
L 309.01248 91.264421 
L 309.3696 88.299783 
L 309.72672 82.509253 
L 310.08384 86.957216 
L 310.44096 85.714521 
L 310.79808 92.379763 
L 311.1552 82.292083 
L 311.51232 90.950731 
L 311.86944 82.192212 
L 312.22656 90.574035 
L 312.58368 87.339945 
L 312.9408 86.939119 
L 313.29792 88.877562 
L 313.65504 86.438421 
L 314.01216 86.98939 
L 314.36928 82.06687 
L 314.7264 81.647946 
L 315.08352 91.06803 
L 315.44064 89.366195 
L 315.79776 82.466355 
L 316.15488 83.881982 
L 316.512 93.566825 
L 317.22624 85.528184 
L 317.58336 90.110203 
L 317.94048 88.251523 
L 318.2976 93.615756 
L 318.65472 84.087757 
L 319.01184 92.501754 
L 319.36896 88.234095 
L 319.72608 87.056417 
L 320.0832 78.816693 
L 320.44032 90.0539 
L 320.79744 82.556173 
L 321.51168 90.0787 
L 321.8688 86.927724 
L 322.22592 78.724195 
L 322.58304 79.482279 
L 322.94016 83.764013 
L 323.29728 82.88729 
L 323.6544 81.027939 
L 324.01152 87.358042 
L 324.36864 86.681062 
L 324.72576 87.309112 
L 325.08288 89.689268 
L 325.44 81.620465 
L 325.79712 79.00236 
L 326.15424 87.799085 
L 326.51136 81.349002 
L 326.86848 91.295924 
L 327.2256 90.897779 
L 327.58272 84.300906 
L 327.93984 80.844953 
L 328.29696 75.748832 
L 329.0112 90.355524 
L 329.36832 75.67376 
L 329.72544 86.898232 
L 330.08256 77.677221 
L 330.7968 79.716876 
L 331.15392 79.793288 
L 331.51104 76.567241 
L 331.86816 88.820588 
L 332.22528 78.782509 
L 332.5824 81.452895 
L 332.93952 82.74318 
L 333.29664 88.014244 
L 334.01088 83.744575 
L 334.368 85.039552 
L 334.72512 88.267609 
L 335.08224 76.725426 
L 335.43936 76.71001 
L 336.1536 88.337318 
L 336.51072 78.006997 
L 336.86784 80.30471 
L 337.58208 73.696441 
L 337.9392 77.185237 
L 338.29632 78.548582 
L 338.65344 73.414924 
L 339.01056 77.974824 
L 339.36768 77.695318 
L 339.7248 81.399943 
L 340.08192 76.995548 
L 340.43904 79.588853 
L 340.79616 71.834409 
L 341.15328 84.343803 
L 341.5104 80.420668 
L 341.86752 79.985657 
L 342.22464 83.988556 
L 342.58176 86.467914 
L 342.93888 73.323767 
L 343.296 83.397371 
L 343.65312 76.751567 
L 344.01024 75.052413 
L 344.36736 78.63974 
L 344.72448 84.014697 
L 345.0816 72.72856 
L 345.43872 79.322753 
L 345.79584 76.87892 
L 346.15296 73.563056 
L 346.51008 83.808922 
L 346.8672 74.856022 
L 347.22432 71.28143 
L 347.58144 74.518872 
L 347.93856 83.10446 
L 348.6528 70.728451 
L 349.00992 83.024697 
L 349.36704 80.66867 
L 349.72416 70.680191 
L 350.08128 77.062576 
L 350.4384 77.453348 
L 350.79552 71.318296 
L 351.15264 71.420178 
L 351.50976 77.656442 
L 351.86688 73.107267 
L 352.224 80.674703 
L 352.58112 72.996001 
L 352.93824 73.817761 
L 353.29536 69.546751 
L 353.65248 73.148824 
L 354.36672 69.95227 
L 354.72384 81.655319 
L 355.08096 72.384708 
L 355.43808 67.846257 
L 355.7952 71.71443 
L 356.15232 81.549415 
L 356.50944 81.868468 
L 356.86656 78.9789 
L 357.22368 78.173226 
L 357.5808 69.707618 
L 357.93792 80.930749 
L 358.29504 81.507858 
L 358.65216 78.773125 
L 359.00928 78.915894 
L 359.3664 74.971309 
L 359.72352 67.142465 
L 360.08064 69.359074 
L 360.43776 73.108607 
L 360.79488 72.620645 
L 361.152 77.295162 
L 361.50912 76.244837 
L 361.86624 70.365831 
L 362.22336 71.007957 
L 362.58048 78.421229 
L 362.9376 73.506752 
L 363.29472 74.166976 
L 363.65184 68.032594 
L 364.00896 69.71231 
L 364.36608 76.170436 
L 364.7232 74.372081 
L 365.08032 74.289637 
L 365.43744 79.948792 
L 365.79456 69.193515 
L 366.15168 79.303315 
L 366.5088 66.183968 
L 366.86592 72.272771 
L 367.22304 68.533292 
L 367.58016 69.019243 
L 367.93728 67.260434 
L 368.2944 66.525139 
L 368.65152 66.522458 
L 369.00864 77.791838 
L 369.36576 74.860714 
L 369.72288 63.923121 
L 370.08 67.769175 
L 370.43712 68.958918 
L 370.79424 70.656061 
L 371.15136 65.920549 
L 371.50848 66.801294 
L 371.8656 66.26038 
L 372.22272 77.476808 
L 372.57984 66.471517 
L 372.93696 75.946564 
L 373.6512 65.650427 
L 374.00832 67.928031 
L 374.36544 73.86334 
L 374.72256 69.257862 
L 375.07968 67.356284 
L 375.4368 64.763649 
L 375.79392 76.505575 
L 376.15104 68.460231 
L 376.50816 71.535466 
L 376.86528 77.244892 
L 377.2224 62.807109 
L 377.57952 74.409617 
L 377.93664 71.648743 
L 378.29376 61.786276 
L 378.65088 63.401645 
L 379.008 73.392135 
L 379.36512 73.397497 
L 379.72224 68.635174 
L 380.07936 75.175074 
L 380.43648 74.075148 
L 380.7936 75.452569 
L 381.15072 75.211269 
L 381.50784 70.803522 
L 381.86496 71.933611 
L 382.22208 63.285687 
L 382.5792 70.439561 
L 382.93632 67.066724 
L 383.29344 66.62367 
L 383.65056 63.843358 
L 384.00768 74.276902 
L 384.3648 65.094767 
L 384.72192 63.090636 
L 385.07904 69.20424 
L 385.43616 62.151577 
L 385.79328 69.216305 
L 386.1504 69.239764 
L 386.50752 71.95707 
L 386.86464 59.621278 
L 387.22176 74.353313 
L 387.57888 67.436047 
L 387.936 71.806928 
L 388.29312 63.783703 
L 388.65024 65.289147 
L 389.36448 59.69635 
L 389.7216 59.066288 
L 390.07872 70.123861 
L 390.43584 68.245072 
L 390.79296 73.951817 
L 391.15008 61.50811 
L 391.5072 68.454199 
L 391.86432 66.472187 
L 392.22144 65.409127 
L 392.57856 68.296683 
L 392.93568 67.183352 
L 393.2928 73.359291 
L 394.00704 65.315288 
L 394.36416 57.824264 
L 394.72128 64.241503 
L 395.0784 57.953627 
L 395.43552 70.860496 
L 395.79264 57.09165 
L 396.14976 56.072158 
L 396.50688 56.649937 
L 396.864 59.583743 
L 397.22112 64.303839 
L 397.57824 60.71048 
L 397.93536 64.020311 
L 398.29248 57.306139 
L 398.6496 61.729972 
L 399.00672 61.182355 
L 399.36384 67.940096 
L 399.72096 70.213678 
L 400.07808 69.06147 
L 400.4352 65.543853 
L 400.79232 67.971599 
L 401.14944 59.092429 
L 401.50656 62.770914 
L 401.86368 62.105328 
L 402.2208 62.098625 
L 402.57792 64.175146 
L 402.93504 55.396518 
L 403.29216 63.741476 
L 403.64928 55.854317 
L 404.0064 57.474379 
L 404.36352 66.762418 
L 404.72064 66.250325 
L 405.07776 59.099802 
L 405.43488 56.579558 
L 405.792 58.339707 
L 406.14912 66.066669 
L 406.50624 55.470919 
L 406.86336 55.072774 
L 407.22048 69.222337 
L 407.5776 61.629431 
L 407.93472 60.279491 
L 408.29184 55.965584 
L 408.64896 61.463202 
L 409.00608 55.407912 
L 409.3632 61.012105 
L 409.72032 53.723504 
L 410.07744 55.218894 
L 410.43456 68.086887 
L 410.79168 53.568 
L 411.1488 53.920566 
L 411.50592 58.80354 
L 411.86304 67.417949 
L 412.22016 63.551787 
L 412.57728 57.834318 
L 412.9344 58.75528 
L 413.29152 57.141921 
L 413.64864 56.692835 
L 414.00576 64.178497 
L 414.36288 64.537096 
L 414.72 62.015511 
L 414.72 62.015511 
" style="fill:none;stroke:#000080;stroke-linecap:square;stroke-width:0.5;"/>
   </g>
   <g id="patch_3">
    <path d="M 57.6 307.584 
L 57.6 41.472 
" style="fill:none;stroke:#000000;stroke-linecap:square;stroke-linejoin:miter;stroke-width:0.8;"/>
   </g>
   <g id="patch_4">
    <path d="M 414.72 307.584 
L 414.72 41.472 
" style="fill:none;stroke:#000000;stroke-linecap:square;stroke-linejoin:miter;stroke-width:0.8;"/>
   </g>
   <g id="patch_5">
    <path d="M 57.6 307.584 
L 414.72 307.584 
" style="fill:none;stroke:#000000;stroke-linecap:square;stroke-linejoin:miter;stroke-width:0.8;"/>
   </g>
   <g id="patch_6">
    <path d="M 57.6 41.472 
L 414.72 41.472 
" style="fill:none;stroke:#000000;stroke-linecap:square;stroke-linejoin:miter;stroke-width:0.8;"/>
   </g>
   <g id="text_17">
    <!-- Test -->
    <defs>
     <path d="M -0.296875 72.90625 
L 61.375 72.90625 
L 61.375 64.59375 
L 35.5 64.59375 
L 35.5 0 
L 25.59375 0 
L 25.59375 64.59375 
L -0.296875 64.59375 
z
" id="DejaVuSans-54"/>
    </defs>
    <g transform="translate(223.341563 35.472)scale(0.12 -0.12)">
     <use xlink:href="#DejaVuSans-54"/>
     <use x="60.818359" xlink:href="#DejaVuSans-65"/>
     <use x="122.341797" xlink:href="#DejaVuSans-73"/>
     <use x="174.441406" xlink:href="#DejaVuSans-74"/>
    </g>
   </g>
   <g id="legend_1">
    <g id="patch_7">
     <path d="M 64.6 64.150125 
L 306.276563 64.150125 
Q 308.276563 64.150125 308.276563 62.150125 
L 308.276563 48.472 
Q 308.276563 46.472 306.276563 46.472 
L 64.6 46.472 
Q 62.6 46.472 62.6 48.472 
L 62.6 62.150125 
Q 62.6 64.150125 64.6 64.150125 
z
" style="fill:#ffffff;opacity:0.8;stroke:#cccccc;stroke-linejoin:miter;"/>
    </g>
    <g id="line2d_30">
     <path d="M 66.6 54.570438 
L 86.6 54.570438 
" style="fill:none;stroke:#000080;stroke-linecap:square;stroke-width:0.5;"/>
    </g>
    <g id="line2d_31"/>
    <g id="text_18">
     <!-- Successful download requests per second -->
     <g transform="translate(94.6 58.070438)scale(0.1 -0.1)">
      <use xlink:href="#DejaVuSans-53"/>
      <use x="63.476562" xlink:href="#DejaVuSans-75"/>
      <use x="126.855469" xlink:href="#DejaVuSans-63"/>
      <use x="181.835938" xlink:href="#DejaVuSans-63"/>
      <use x="236.816406" xlink:href="#DejaVuSans-65"/>
      <use x="298.339844" xlink:href="#DejaVuSans-73"/>
      <use x="350.439453" xlink:href="#DejaVuSans-73"/>
      <use x="402.539062" xlink:href="#DejaVuSans-66"/>
      <use x="437.744141" xlink:href="#DejaVuSans-75"/>
      <use x="501.123047" xlink:href="#DejaVuSans-6c"/>
      <use x="528.90625" xlink:href="#DejaVuSans-20"/>
      <use x="560.693359" xlink:href="#DejaVuSans-64"/>
      <use x="624.169922" xlink:href="#DejaVuSans-6f"/>
      <use x="685.351562" xlink:href="#DejaVuSans-77"/>
      <use x="767.138672" xlink:href="#DejaVuSans-6e"/>
      <use x="830.517578" xlink:href="#DejaVuSans-6c"/>
      <use x="858.300781" xlink:href="#DejaVuSans-6f"/>
      <use x="919.482422" xlink:href="#DejaVuSans-61"/>
      <use x="980.761719" xlink:href="#DejaVuSans-64"/>
      <use x="1044.238281" xlink:href="#DejaVuSans-20"/>
      <use x="1076.025391" xlink:href="#DejaVuSans-72"/>
      <use x="1117.107422" xlink:href="#DejaVuSans-65"/>
      <use x="1178.630859" xlink:href="#DejaVuSans-71"/>
      <use x="1242.107422" xlink:href="#DejaVuSans-75"/>
      <use x="1305.486328" xlink:href="#DejaVuSans-65"/>
      <use x="1367.009766" xlink:href="#DejaVuSans-73"/>
      <use x="1419.109375" xlink:href="#DejaVuSans-74"/>
      <use x="1458.318359" xlink:href="#DejaVuSans-73"/>
      <use x="1510.417969" xlink:href="#DejaVuSans-20"/>
      <use x="1542.205078" xlink:href="#DejaVuSans-70"/>
      <use x="1605.681641" xlink:href="#DejaVuSans-65"/>
      <use x="1667.205078" xlink:href="#DejaVuSans-72"/>
      <use x="1708.318359" xlink:href="#DejaVuSans-20"/>
      <use x="1740.105469" xlink:href="#DejaVuSans-73"/>
      <use x="1792.205078" xlink:href="#DejaVuSans-65"/>
      <use x="1853.728516" xlink:href="#DejaVuSans-63"/>
      <use x="1908.708984" xlink:href="#DejaVuSans-6f"/>
      <use x="1969.890625" xlink:href="#DejaVuSans-6e"/>
      <use x="2033.269531" xlink:href="#DejaVuSans-64"/>
     </g>
    </g>
   </g>
  </g>
 </g>
 <defs>
  <clipPath id="pf28a1fd197">
   <rect height="266.112" width="357.12" x="57.6" y="41.472"/>
  </clipPath>
 </defs>
</svg>
