<?xml version="1.0" encoding="utf-8" standalone="no"?>
<!DOCTYPE svg PUBLIC "-//W3C//DTD SVG 1.1//EN"
  "http://www.w3.org/Graphics/SVG/1.1/DTD/svg11.dtd">
<!-- Created with matplotlib (http://matplotlib.org/) -->
<svg height="345pt" version="1.1" viewBox="0 0 460 345" width="460pt" xmlns="http://www.w3.org/2000/svg" xmlns:xlink="http://www.w3.org/1999/xlink">
 <defs>
  <style type="text/css">
*{stroke-linecap:butt;stroke-linejoin:round;}
  </style>
 </defs>
 <g id="figure_1">
  <g id="patch_1">
   <path d="M 0 345.6 
L 460.8 345.6 
L 460.8 0 
L 0 0 
z
" style="fill:#ffffff;"/>
  </g>
  <g id="axes_1">
   <g id="patch_2">
    <path d="M 57.6 307.584 
L 414.72 307.584 
L 414.72 41.472 
L 57.6 41.472 
z
" style="fill:#ffffff;"/>
   </g>
   <g id="matplotlib.axis_1">
    <g id="xtick_1">
     <g id="line2d_1">
      <path clip-path="url(#p0b893cf251)" d="M 57.6 307.584 
L 57.6 41.472 
" style="fill:none;stroke:#b0b0b0;stroke-linecap:square;stroke-width:0.8;"/>
     </g>
     <g id="line2d_2">
      <defs>
       <path d="M 0 0 
L 0 3.5 
" id="md4d9b8a6b5" style="stroke:#000000;stroke-width:0.8;"/>
      </defs>
      <g>
       <use style="stroke:#000000;stroke-width:0.8;" x="57.6" xlink:href="#md4d9b8a6b5" y="307.584"/>
      </g>
     </g>
     <g id="text_1">
      <!-- 0 -->
      <defs>
       <path d="M 31.78125 66.40625 
Q 24.171875 66.40625 20.328125 58.90625 
Q 16.5 51.421875 16.5 36.375 
Q 16.5 21.390625 20.328125 13.890625 
Q 24.171875 6.390625 31.78125 6.390625 
Q 39.453125 6.390625 43.28125 13.890625 
Q 47.125 21.390625 47.125 36.375 
Q 47.125 51.421875 43.28125 58.90625 
Q 39.453125 66.40625 31.78125 66.40625 
M 31.78125 74.21875 
Q 44.046875 74.21875 50.515625 64.515625 
Q 56.984375 54.828125 56.984375 36.375 
Q 56.984375 17.96875 50.515625 8.265625 
Q 44.046875 -1.421875 31.78125 -1.421875 
Q 19.53125 -1.421875 13.0625 8.265625 
Q 6.59375 17.96875 6.59375 36.375 
Q 6.59375 54.828125 13.0625 64.515625 
Q 19.53125 74.21875 31.78125 74.21875 
" id="DejaVuSans-30"/>
      </defs>
      <g transform="translate(54.41875 322.182437)scale(0.1 -0.1)">
       <use xlink:href="#DejaVuSans-30"/>
      </g>
     </g>
    </g>
    <g id="xtick_2">
     <g id="line2d_3">
      <path clip-path="url(#p0b893cf251)" d="M 129.024 307.584 
L 129.024 41.472 
" style="fill:none;stroke:#b0b0b0;stroke-linecap:square;stroke-width:0.8;"/>
     </g>
     <g id="line2d_4">
      <g>
       <use style="stroke:#000000;stroke-width:0.8;" x="129.024" xlink:href="#md4d9b8a6b5" y="307.584"/>
      </g>
     </g>
     <g id="text_2">
      <!-- 200 -->
      <defs>
       <path d="M 19.1875 8.296875 
L 53.609375 8.296875 
L 53.609375 0 
L 7.328125 0 
L 7.328125 8.296875 
Q 12.9375 14.109375 22.625 23.890625 
Q 32.328125 33.6875 34.8125 36.53125 
Q 39.546875 41.84375 41.421875 45.53125 
Q 43.3125 49.21875 43.3125 52.78125 
Q 43.3125 58.59375 39.234375 62.25 
Q 35.15625 65.921875 28.609375 65.921875 
Q 23.96875 65.921875 18.8125 64.3125 
Q 13.671875 62.703125 7.8125 59.421875 
L 7.8125 69.390625 
Q 13.765625 71.78125 18.9375 73 
Q 24.125 74.21875 28.421875 74.21875 
Q 39.75 74.21875 46.484375 68.546875 
Q 53.21875 62.890625 53.21875 53.421875 
Q 53.21875 48.921875 51.53125 44.890625 
Q 49.859375 40.875 45.40625 35.40625 
Q 44.1875 33.984375 37.640625 27.21875 
Q 31.109375 20.453125 19.1875 8.296875 
" id="DejaVuSans-32"/>
      </defs>
      <g transform="translate(119.48025 322.182437)scale(0.1 -0.1)">
       <use xlink:href="#DejaVuSans-32"/>
       <use x="63.623047" xlink:href="#DejaVuSans-30"/>
       <use x="127.246094" xlink:href="#DejaVuSans-30"/>
      </g>
     </g>
    </g>
    <g id="xtick_3">
     <g id="line2d_5">
      <path clip-path="url(#p0b893cf251)" d="M 200.448 307.584 
L 200.448 41.472 
" style="fill:none;stroke:#b0b0b0;stroke-linecap:square;stroke-width:0.8;"/>
     </g>
     <g id="line2d_6">
      <g>
       <use style="stroke:#000000;stroke-width:0.8;" x="200.448" xlink:href="#md4d9b8a6b5" y="307.584"/>
      </g>
     </g>
     <g id="text_3">
      <!-- 400 -->
      <defs>
       <path d="M 37.796875 64.3125 
L 12.890625 25.390625 
L 37.796875 25.390625 
z
M 35.203125 72.90625 
L 47.609375 72.90625 
L 47.609375 25.390625 
L 58.015625 25.390625 
L 58.015625 17.1875 
L 47.609375 17.1875 
L 47.609375 0 
L 37.796875 0 
L 37.796875 17.1875 
L 4.890625 17.1875 
L 4.890625 26.703125 
z
" id="DejaVuSans-34"/>
      </defs>
      <g transform="translate(190.90425 322.182437)scale(0.1 -0.1)">
       <use xlink:href="#DejaVuSans-34"/>
       <use x="63.623047" xlink:href="#DejaVuSans-30"/>
       <use x="127.246094" xlink:href="#DejaVuSans-30"/>
      </g>
     </g>
    </g>
    <g id="xtick_4">
     <g id="line2d_7">
      <path clip-path="url(#p0b893cf251)" d="M 271.872 307.584 
L 271.872 41.472 
" style="fill:none;stroke:#b0b0b0;stroke-linecap:square;stroke-width:0.8;"/>
     </g>
     <g id="line2d_8">
      <g>
       <use style="stroke:#000000;stroke-width:0.8;" x="271.872" xlink:href="#md4d9b8a6b5" y="307.584"/>
      </g>
     </g>
     <g id="text_4">
      <!-- 600 -->
      <defs>
       <path d="M 33.015625 40.375 
Q 26.375 40.375 22.484375 35.828125 
Q 18.609375 31.296875 18.609375 23.390625 
Q 18.609375 15.53125 22.484375 10.953125 
Q 26.375 6.390625 33.015625 6.390625 
Q 39.65625 6.390625 43.53125 10.953125 
Q 47.40625 15.53125 47.40625 23.390625 
Q 47.40625 31.296875 43.53125 35.828125 
Q 39.65625 40.375 33.015625 40.375 
M 52.59375 71.296875 
L 52.59375 62.3125 
Q 48.875 64.0625 45.09375 64.984375 
Q 41.3125 65.921875 37.59375 65.921875 
Q 27.828125 65.921875 22.671875 59.328125 
Q 17.53125 52.734375 16.796875 39.40625 
Q 19.671875 43.65625 24.015625 45.921875 
Q 28.375 48.1875 33.59375 48.1875 
Q 44.578125 48.1875 50.953125 41.515625 
Q 57.328125 34.859375 57.328125 23.390625 
Q 57.328125 12.15625 50.6875 5.359375 
Q 44.046875 -1.421875 33.015625 -1.421875 
Q 20.359375 -1.421875 13.671875 8.265625 
Q 6.984375 17.96875 6.984375 36.375 
Q 6.984375 53.65625 15.1875 63.9375 
Q 23.390625 74.21875 37.203125 74.21875 
Q 40.921875 74.21875 44.703125 73.484375 
Q 48.484375 72.75 52.59375 71.296875 
" id="DejaVuSans-36"/>
      </defs>
      <g transform="translate(262.32825 322.182437)scale(0.1 -0.1)">
       <use xlink:href="#DejaVuSans-36"/>
       <use x="63.623047" xlink:href="#DejaVuSans-30"/>
       <use x="127.246094" xlink:href="#DejaVuSans-30"/>
      </g>
     </g>
    </g>
    <g id="xtick_5">
     <g id="line2d_9">
      <path clip-path="url(#p0b893cf251)" d="M 343.296 307.584 
L 343.296 41.472 
" style="fill:none;stroke:#b0b0b0;stroke-linecap:square;stroke-width:0.8;"/>
     </g>
     <g id="line2d_10">
      <g>
       <use style="stroke:#000000;stroke-width:0.8;" x="343.296" xlink:href="#md4d9b8a6b5" y="307.584"/>
      </g>
     </g>
     <g id="text_5">
      <!-- 800 -->
      <defs>
       <path d="M 31.78125 34.625 
Q 24.75 34.625 20.71875 30.859375 
Q 16.703125 27.09375 16.703125 20.515625 
Q 16.703125 13.921875 20.71875 10.15625 
Q 24.75 6.390625 31.78125 6.390625 
Q 38.8125 6.390625 42.859375 10.171875 
Q 46.921875 13.96875 46.921875 20.515625 
Q 46.921875 27.09375 42.890625 30.859375 
Q 38.875 34.625 31.78125 34.625 
M 21.921875 38.8125 
Q 15.578125 40.375 12.03125 44.71875 
Q 8.5 49.078125 8.5 55.328125 
Q 8.5 64.0625 14.71875 69.140625 
Q 20.953125 74.21875 31.78125 74.21875 
Q 42.671875 74.21875 48.875 69.140625 
Q 55.078125 64.0625 55.078125 55.328125 
Q 55.078125 49.078125 51.53125 44.71875 
Q 48 40.375 41.703125 38.8125 
Q 48.828125 37.15625 52.796875 32.3125 
Q 56.78125 27.484375 56.78125 20.515625 
Q 56.78125 9.90625 50.3125 4.234375 
Q 43.84375 -1.421875 31.78125 -1.421875 
Q 19.734375 -1.421875 13.25 4.234375 
Q 6.78125 9.90625 6.78125 20.515625 
Q 6.78125 27.484375 10.78125 32.3125 
Q 14.796875 37.15625 21.921875 38.8125 
M 18.3125 54.390625 
Q 18.3125 48.734375 21.84375 45.5625 
Q 25.390625 42.390625 31.78125 42.390625 
Q 38.140625 42.390625 41.71875 45.5625 
Q 45.3125 48.734375 45.3125 54.390625 
Q 45.3125 60.0625 41.71875 63.234375 
Q 38.140625 66.40625 31.78125 66.40625 
Q 25.390625 66.40625 21.84375 63.234375 
Q 18.3125 60.0625 18.3125 54.390625 
" id="DejaVuSans-38"/>
      </defs>
      <g transform="translate(333.75225 322.182437)scale(0.1 -0.1)">
       <use xlink:href="#DejaVuSans-38"/>
       <use x="63.623047" xlink:href="#DejaVuSans-30"/>
       <use x="127.246094" xlink:href="#DejaVuSans-30"/>
      </g>
     </g>
    </g>
    <g id="xtick_6">
     <g id="line2d_11">
      <path clip-path="url(#p0b893cf251)" d="M 414.72 307.584 
L 414.72 41.472 
" style="fill:none;stroke:#b0b0b0;stroke-linecap:square;stroke-width:0.8;"/>
     </g>
     <g id="line2d_12">
      <g>
       <use style="stroke:#000000;stroke-width:0.8;" x="414.72" xlink:href="#md4d9b8a6b5" y="307.584"/>
      </g>
     </g>
     <g id="text_6">
      <!-- 1000 -->
      <defs>
       <path d="M 12.40625 8.296875 
L 28.515625 8.296875 
L 28.515625 63.921875 
L 10.984375 60.40625 
L 10.984375 69.390625 
L 28.421875 72.90625 
L 38.28125 72.90625 
L 38.28125 8.296875 
L 54.390625 8.296875 
L 54.390625 0 
L 12.40625 0 
z
" id="DejaVuSans-31"/>
      </defs>
      <g transform="translate(401.995 322.182437)scale(0.1 -0.1)">
       <use xlink:href="#DejaVuSans-31"/>
       <use x="63.623047" xlink:href="#DejaVuSans-30"/>
       <use x="127.246094" xlink:href="#DejaVuSans-30"/>
       <use x="190.869141" xlink:href="#DejaVuSans-30"/>
      </g>
     </g>
    </g>
    <g id="text_7">
     <!-- Number of clients -->
     <defs>
      <path d="M 9.8125 72.90625 
L 23.09375 72.90625 
L 55.421875 11.921875 
L 55.421875 72.90625 
L 64.984375 72.90625 
L 64.984375 0 
L 51.703125 0 
L 19.390625 60.984375 
L 19.390625 0 
L 9.8125 0 
z
" id="DejaVuSans-4e"/>
      <path d="M 8.5 21.578125 
L 8.5 54.6875 
L 17.484375 54.6875 
L 17.484375 21.921875 
Q 17.484375 14.15625 20.5 10.265625 
Q 23.53125 6.390625 29.59375 6.390625 
Q 36.859375 6.390625 41.078125 11.03125 
Q 45.3125 15.671875 45.3125 23.6875 
L 45.3125 54.6875 
L 54.296875 54.6875 
L 54.296875 0 
L 45.3125 0 
L 45.3125 8.40625 
Q 42.046875 3.421875 37.71875 1 
Q 33.40625 -1.421875 27.6875 -1.421875 
Q 18.265625 -1.421875 13.375 4.4375 
Q 8.5 10.296875 8.5 21.578125 
M 31.109375 56 
z
" id="DejaVuSans-75"/>
      <path d="M 52 44.1875 
Q 55.375 50.25 60.0625 53.125 
Q 64.75 56 71.09375 56 
Q 79.640625 56 84.28125 50.015625 
Q 88.921875 44.046875 88.921875 33.015625 
L 88.921875 0 
L 79.890625 0 
L 79.890625 32.71875 
Q 79.890625 40.578125 77.09375 44.375 
Q 74.3125 48.1875 68.609375 48.1875 
Q 61.625 48.1875 57.5625 43.546875 
Q 53.515625 38.921875 53.515625 30.90625 
L 53.515625 0 
L 44.484375 0 
L 44.484375 32.71875 
Q 44.484375 40.625 41.703125 44.40625 
Q 38.921875 48.1875 33.109375 48.1875 
Q 26.21875 48.1875 22.15625 43.53125 
Q 18.109375 38.875 18.109375 30.90625 
L 18.109375 0 
L 9.078125 0 
L 9.078125 54.6875 
L 18.109375 54.6875 
L 18.109375 46.1875 
Q 21.1875 51.21875 25.484375 53.609375 
Q 29.78125 56 35.6875 56 
Q 41.65625 56 45.828125 52.96875 
Q 50 49.953125 52 44.1875 
" id="DejaVuSans-6d"/>
      <path d="M 48.6875 27.296875 
Q 48.6875 37.203125 44.609375 42.84375 
Q 40.53125 48.484375 33.40625 48.484375 
Q 26.265625 48.484375 22.1875 42.84375 
Q 18.109375 37.203125 18.109375 27.296875 
Q 18.109375 17.390625 22.1875 11.75 
Q 26.265625 6.109375 33.40625 6.109375 
Q 40.53125 6.109375 44.609375 11.75 
Q 48.6875 17.390625 48.6875 27.296875 
M 18.109375 46.390625 
Q 20.953125 51.265625 25.265625 53.625 
Q 29.59375 56 35.59375 56 
Q 45.5625 56 51.78125 48.09375 
Q 58.015625 40.1875 58.015625 27.296875 
Q 58.015625 14.40625 51.78125 6.484375 
Q 45.5625 -1.421875 35.59375 -1.421875 
Q 29.59375 -1.421875 25.265625 0.953125 
Q 20.953125 3.328125 18.109375 8.203125 
L 18.109375 0 
L 9.078125 0 
L 9.078125 75.984375 
L 18.109375 75.984375 
z
" id="DejaVuSans-62"/>
      <path d="M 56.203125 29.59375 
L 56.203125 25.203125 
L 14.890625 25.203125 
Q 15.484375 15.921875 20.484375 11.0625 
Q 25.484375 6.203125 34.421875 6.203125 
Q 39.59375 6.203125 44.453125 7.46875 
Q 49.3125 8.734375 54.109375 11.28125 
L 54.109375 2.78125 
Q 49.265625 0.734375 44.1875 -0.34375 
Q 39.109375 -1.421875 33.890625 -1.421875 
Q 20.796875 -1.421875 13.15625 6.1875 
Q 5.515625 13.8125 5.515625 26.8125 
Q 5.515625 40.234375 12.765625 48.109375 
Q 20.015625 56 32.328125 56 
Q 43.359375 56 49.78125 48.890625 
Q 56.203125 41.796875 56.203125 29.59375 
M 47.21875 32.234375 
Q 47.125 39.59375 43.09375 43.984375 
Q 39.0625 48.390625 32.421875 48.390625 
Q 24.90625 48.390625 20.390625 44.140625 
Q 15.875 39.890625 15.1875 32.171875 
z
" id="DejaVuSans-65"/>
      <path d="M 41.109375 46.296875 
Q 39.59375 47.171875 37.8125 47.578125 
Q 36.03125 48 33.890625 48 
Q 26.265625 48 22.1875 43.046875 
Q 18.109375 38.09375 18.109375 28.8125 
L 18.109375 0 
L 9.078125 0 
L 9.078125 54.6875 
L 18.109375 54.6875 
L 18.109375 46.1875 
Q 20.953125 51.171875 25.484375 53.578125 
Q 30.03125 56 36.53125 56 
Q 37.453125 56 38.578125 55.875 
Q 39.703125 55.765625 41.0625 55.515625 
z
" id="DejaVuSans-72"/>
      <path id="DejaVuSans-20"/>
      <path d="M 30.609375 48.390625 
Q 23.390625 48.390625 19.1875 42.75 
Q 14.984375 37.109375 14.984375 27.296875 
Q 14.984375 17.484375 19.15625 11.84375 
Q 23.34375 6.203125 30.609375 6.203125 
Q 37.796875 6.203125 41.984375 11.859375 
Q 46.1875 17.53125 46.1875 27.296875 
Q 46.1875 37.015625 41.984375 42.703125 
Q 37.796875 48.390625 30.609375 48.390625 
M 30.609375 56 
Q 42.328125 56 49.015625 48.375 
Q 55.71875 40.765625 55.71875 27.296875 
Q 55.71875 13.875 49.015625 6.21875 
Q 42.328125 -1.421875 30.609375 -1.421875 
Q 18.84375 -1.421875 12.171875 6.21875 
Q 5.515625 13.875 5.515625 27.296875 
Q 5.515625 40.765625 12.171875 48.375 
Q 18.84375 56 30.609375 56 
" id="DejaVuSans-6f"/>
      <path d="M 37.109375 75.984375 
L 37.109375 68.5 
L 28.515625 68.5 
Q 23.6875 68.5 21.796875 66.546875 
Q 19.921875 64.59375 19.921875 59.515625 
L 19.921875 54.6875 
L 34.71875 54.6875 
L 34.71875 47.703125 
L 19.921875 47.703125 
L 19.921875 0 
L 10.890625 0 
L 10.890625 47.703125 
L 2.296875 47.703125 
L 2.296875 54.6875 
L 10.890625 54.6875 
L 10.890625 58.5 
Q 10.890625 67.625 15.140625 71.796875 
Q 19.390625 75.984375 28.609375 75.984375 
z
" id="DejaVuSans-66"/>
      <path d="M 48.78125 52.59375 
L 48.78125 44.1875 
Q 44.96875 46.296875 41.140625 47.34375 
Q 37.3125 48.390625 33.40625 48.390625 
Q 24.65625 48.390625 19.8125 42.84375 
Q 14.984375 37.3125 14.984375 27.296875 
Q 14.984375 17.28125 19.8125 11.734375 
Q 24.65625 6.203125 33.40625 6.203125 
Q 37.3125 6.203125 41.140625 7.25 
Q 44.96875 8.296875 48.78125 10.40625 
L 48.78125 2.09375 
Q 45.015625 0.34375 40.984375 -0.53125 
Q 36.96875 -1.421875 32.421875 -1.421875 
Q 20.0625 -1.421875 12.78125 6.34375 
Q 5.515625 14.109375 5.515625 27.296875 
Q 5.515625 40.671875 12.859375 48.328125 
Q 20.21875 56 33.015625 56 
Q 37.15625 56 41.109375 55.140625 
Q 45.0625 54.296875 48.78125 52.59375 
" id="DejaVuSans-63"/>
      <path d="M 9.421875 75.984375 
L 18.40625 75.984375 
L 18.40625 0 
L 9.421875 0 
z
" id="DejaVuSans-6c"/>
      <path d="M 9.421875 54.6875 
L 18.40625 54.6875 
L 18.40625 0 
L 9.421875 0 
z
M 9.421875 75.984375 
L 18.40625 75.984375 
L 18.40625 64.59375 
L 9.421875 64.59375 
z
" id="DejaVuSans-69"/>
      <path d="M 54.890625 33.015625 
L 54.890625 0 
L 45.90625 0 
L 45.90625 32.71875 
Q 45.90625 40.484375 42.875 44.328125 
Q 39.84375 48.1875 33.796875 48.1875 
Q 26.515625 48.1875 22.3125 43.546875 
Q 18.109375 38.921875 18.109375 30.90625 
L 18.109375 0 
L 9.078125 0 
L 9.078125 54.6875 
L 18.109375 54.6875 
L 18.109375 46.1875 
Q 21.34375 51.125 25.703125 53.5625 
Q 30.078125 56 35.796875 56 
Q 45.21875 56 50.046875 50.171875 
Q 54.890625 44.34375 54.890625 33.015625 
" id="DejaVuSans-6e"/>
      <path d="M 18.3125 70.21875 
L 18.3125 54.6875 
L 36.8125 54.6875 
L 36.8125 47.703125 
L 18.3125 47.703125 
L 18.3125 18.015625 
Q 18.3125 11.328125 20.140625 9.421875 
Q 21.96875 7.515625 27.59375 7.515625 
L 36.8125 7.515625 
L 36.8125 0 
L 27.59375 0 
Q 17.1875 0 13.234375 3.875 
Q 9.28125 7.765625 9.28125 18.015625 
L 9.28125 47.703125 
L 2.6875 47.703125 
L 2.6875 54.6875 
L 9.28125 54.6875 
L 9.28125 70.21875 
z
" id="DejaVuSans-74"/>
      <path d="M 44.28125 53.078125 
L 44.28125 44.578125 
Q 40.484375 46.53125 36.375 47.5 
Q 32.28125 48.484375 27.875 48.484375 
Q 21.1875 48.484375 17.84375 46.4375 
Q 14.5 44.390625 14.5 40.28125 
Q 14.5 37.15625 16.890625 35.375 
Q 19.28125 33.59375 26.515625 31.984375 
L 29.59375 31.296875 
Q 39.15625 29.25 43.1875 25.515625 
Q 47.21875 21.78125 47.21875 15.09375 
Q 47.21875 7.46875 41.1875 3.015625 
Q 35.15625 -1.421875 24.609375 -1.421875 
Q 20.21875 -1.421875 15.453125 -0.5625 
Q 10.6875 0.296875 5.421875 2 
L 5.421875 11.28125 
Q 10.40625 8.6875 15.234375 7.390625 
Q 20.0625 6.109375 24.8125 6.109375 
Q 31.15625 6.109375 34.5625 8.28125 
Q 37.984375 10.453125 37.984375 14.40625 
Q 37.984375 18.0625 35.515625 20.015625 
Q 33.0625 21.96875 24.703125 23.78125 
L 21.578125 24.515625 
Q 13.234375 26.265625 9.515625 29.90625 
Q 5.8125 33.546875 5.8125 39.890625 
Q 5.8125 47.609375 11.28125 51.796875 
Q 16.75 56 26.8125 56 
Q 31.78125 56 36.171875 55.265625 
Q 40.578125 54.546875 44.28125 53.078125 
" id="DejaVuSans-73"/>
     </defs>
     <g transform="translate(191.738906 335.860562)scale(0.1 -0.1)">
      <use xlink:href="#DejaVuSans-4e"/>
      <use x="74.804688" xlink:href="#DejaVuSans-75"/>
      <use x="138.183594" xlink:href="#DejaVuSans-6d"/>
      <use x="235.595703" xlink:href="#DejaVuSans-62"/>
      <use x="299.072266" xlink:href="#DejaVuSans-65"/>
      <use x="360.595703" xlink:href="#DejaVuSans-72"/>
      <use x="401.708984" xlink:href="#DejaVuSans-20"/>
      <use x="433.496094" xlink:href="#DejaVuSans-6f"/>
      <use x="494.677734" xlink:href="#DejaVuSans-66"/>
      <use x="529.882812" xlink:href="#DejaVuSans-20"/>
      <use x="561.669922" xlink:href="#DejaVuSans-63"/>
      <use x="616.650391" xlink:href="#DejaVuSans-6c"/>
      <use x="644.433594" xlink:href="#DejaVuSans-69"/>
      <use x="672.216797" xlink:href="#DejaVuSans-65"/>
      <use x="733.740234" xlink:href="#DejaVuSans-6e"/>
      <use x="797.119141" xlink:href="#DejaVuSans-74"/>
      <use x="836.328125" xlink:href="#DejaVuSans-73"/>
     </g>
    </g>
   </g>
   <g id="matplotlib.axis_2">
    <g id="ytick_1">
     <g id="line2d_13">
      <path clip-path="url(#p0b893cf251)" d="M 57.6 296.012525 
L 414.72 296.012525 
" style="fill:none;stroke:#b0b0b0;stroke-linecap:square;stroke-width:0.8;"/>
     </g>
     <g id="line2d_14">
      <defs>
       <path d="M 0 0 
L -3.5 0 
" id="mf4017ffa69" style="stroke:#000000;stroke-width:0.8;"/>
      </defs>
      <g>
       <use style="stroke:#000000;stroke-width:0.8;" x="57.6" xlink:href="#mf4017ffa69" y="296.012525"/>
      </g>
     </g>
     <g id="text_8">
      <!-- 0 -->
      <g transform="translate(44.2375 299.811744)scale(0.1 -0.1)">
       <use xlink:href="#DejaVuSans-30"/>
      </g>
     </g>
    </g>
    <g id="ytick_2">
     <g id="line2d_15">
      <path clip-path="url(#p0b893cf251)" d="M 57.6 239.913573 
L 414.72 239.913573 
" style="fill:none;stroke:#b0b0b0;stroke-linecap:square;stroke-width:0.8;"/>
     </g>
     <g id="line2d_16">
      <g>
       <use style="stroke:#000000;stroke-width:0.8;" x="57.6" xlink:href="#mf4017ffa69" y="239.913573"/>
      </g>
     </g>
     <g id="text_9">
      <!-- 100 -->
      <g transform="translate(31.5125 243.712792)scale(0.1 -0.1)">
       <use xlink:href="#DejaVuSans-31"/>
       <use x="63.623047" xlink:href="#DejaVuSans-30"/>
       <use x="127.246094" xlink:href="#DejaVuSans-30"/>
      </g>
     </g>
    </g>
    <g id="ytick_3">
     <g id="line2d_17">
      <path clip-path="url(#p0b893cf251)" d="M 57.6 183.814621 
L 414.72 183.814621 
" style="fill:none;stroke:#b0b0b0;stroke-linecap:square;stroke-width:0.8;"/>
     </g>
     <g id="line2d_18">
      <g>
       <use style="stroke:#000000;stroke-width:0.8;" x="57.6" xlink:href="#mf4017ffa69" y="183.814621"/>
      </g>
     </g>
     <g id="text_10">
      <!-- 200 -->
      <g transform="translate(31.5125 187.613839)scale(0.1 -0.1)">
       <use xlink:href="#DejaVuSans-32"/>
       <use x="63.623047" xlink:href="#DejaVuSans-30"/>
       <use x="127.246094" xlink:href="#DejaVuSans-30"/>
      </g>
     </g>
    </g>
    <g id="ytick_4">
     <g id="line2d_19">
      <path clip-path="url(#p0b893cf251)" d="M 57.6 127.715668 
L 414.72 127.715668 
" style="fill:none;stroke:#b0b0b0;stroke-linecap:square;stroke-width:0.8;"/>
     </g>
     <g id="line2d_20">
      <g>
       <use style="stroke:#000000;stroke-width:0.8;" x="57.6" xlink:href="#mf4017ffa69" y="127.715668"/>
      </g>
     </g>
     <g id="text_11">
      <!-- 300 -->
      <defs>
       <path d="M 40.578125 39.3125 
Q 47.65625 37.796875 51.625 33 
Q 55.609375 28.21875 55.609375 21.1875 
Q 55.609375 10.40625 48.1875 4.484375 
Q 40.765625 -1.421875 27.09375 -1.421875 
Q 22.515625 -1.421875 17.65625 -0.515625 
Q 12.796875 0.390625 7.625 2.203125 
L 7.625 11.71875 
Q 11.71875 9.328125 16.59375 8.109375 
Q 21.484375 6.890625 26.8125 6.890625 
Q 36.078125 6.890625 40.9375 10.546875 
Q 45.796875 14.203125 45.796875 21.1875 
Q 45.796875 27.640625 41.28125 31.265625 
Q 36.765625 34.90625 28.71875 34.90625 
L 20.21875 34.90625 
L 20.21875 43.015625 
L 29.109375 43.015625 
Q 36.375 43.015625 40.234375 45.921875 
Q 44.09375 48.828125 44.09375 54.296875 
Q 44.09375 59.90625 40.109375 62.90625 
Q 36.140625 65.921875 28.71875 65.921875 
Q 24.65625 65.921875 20.015625 65.03125 
Q 15.375 64.15625 9.8125 62.3125 
L 9.8125 71.09375 
Q 15.4375 72.65625 20.34375 73.4375 
Q 25.25 74.21875 29.59375 74.21875 
Q 40.828125 74.21875 47.359375 69.109375 
Q 53.90625 64.015625 53.90625 55.328125 
Q 53.90625 49.265625 50.4375 45.09375 
Q 46.96875 40.921875 40.578125 39.3125 
" id="DejaVuSans-33"/>
      </defs>
      <g transform="translate(31.5125 131.514887)scale(0.1 -0.1)">
       <use xlink:href="#DejaVuSans-33"/>
       <use x="63.623047" xlink:href="#DejaVuSans-30"/>
       <use x="127.246094" xlink:href="#DejaVuSans-30"/>
      </g>
     </g>
    </g>
    <g id="ytick_5">
     <g id="line2d_21">
      <path clip-path="url(#p0b893cf251)" d="M 57.6 71.616716 
L 414.72 71.616716 
" style="fill:none;stroke:#b0b0b0;stroke-linecap:square;stroke-width:0.8;"/>
     </g>
     <g id="line2d_22">
      <g>
       <use style="stroke:#000000;stroke-width:0.8;" x="57.6" xlink:href="#mf4017ffa69" y="71.616716"/>
      </g>
     </g>
     <g id="text_12">
      <!-- 400 -->
      <g transform="translate(31.5125 75.415935)scale(0.1 -0.1)">
       <use xlink:href="#DejaVuSans-34"/>
       <use x="63.623047" xlink:href="#DejaVuSans-30"/>
       <use x="127.246094" xlink:href="#DejaVuSans-30"/>
      </g>
     </g>
    </g>
    <g id="text_13">
     <!-- Successful download requests per second -->
     <defs>
      <path d="M 53.515625 70.515625 
L 53.515625 60.890625 
Q 47.90625 63.578125 42.921875 64.890625 
Q 37.9375 66.21875 33.296875 66.21875 
Q 25.25 66.21875 20.875 63.09375 
Q 16.5 59.96875 16.5 54.203125 
Q 16.5 49.359375 19.40625 46.890625 
Q 22.3125 44.4375 30.421875 42.921875 
L 36.375 41.703125 
Q 47.40625 39.59375 52.65625 34.296875 
Q 57.90625 29 57.90625 20.125 
Q 57.90625 9.515625 50.796875 4.046875 
Q 43.703125 -1.421875 29.984375 -1.421875 
Q 24.8125 -1.421875 18.96875 -0.25 
Q 13.140625 0.921875 6.890625 3.21875 
L 6.890625 13.375 
Q 12.890625 10.015625 18.65625 8.296875 
Q 24.421875 6.59375 29.984375 6.59375 
Q 38.421875 6.59375 43.015625 9.90625 
Q 47.609375 13.234375 47.609375 19.390625 
Q 47.609375 24.75 44.3125 27.78125 
Q 41.015625 30.8125 33.5 32.328125 
L 27.484375 33.5 
Q 16.453125 35.6875 11.515625 40.375 
Q 6.59375 45.0625 6.59375 53.421875 
Q 6.59375 63.09375 13.40625 68.65625 
Q 20.21875 74.21875 32.171875 74.21875 
Q 37.3125 74.21875 42.625 73.28125 
Q 47.953125 72.359375 53.515625 70.515625 
" id="DejaVuSans-53"/>
      <path d="M 45.40625 46.390625 
L 45.40625 75.984375 
L 54.390625 75.984375 
L 54.390625 0 
L 45.40625 0 
L 45.40625 8.203125 
Q 42.578125 3.328125 38.25 0.953125 
Q 33.9375 -1.421875 27.875 -1.421875 
Q 17.96875 -1.421875 11.734375 6.484375 
Q 5.515625 14.40625 5.515625 27.296875 
Q 5.515625 40.1875 11.734375 48.09375 
Q 17.96875 56 27.875 56 
Q 33.9375 56 38.25 53.625 
Q 42.578125 51.265625 45.40625 46.390625 
M 14.796875 27.296875 
Q 14.796875 17.390625 18.875 11.75 
Q 22.953125 6.109375 30.078125 6.109375 
Q 37.203125 6.109375 41.296875 11.75 
Q 45.40625 17.390625 45.40625 27.296875 
Q 45.40625 37.203125 41.296875 42.84375 
Q 37.203125 48.484375 30.078125 48.484375 
Q 22.953125 48.484375 18.875 42.84375 
Q 14.796875 37.203125 14.796875 27.296875 
" id="DejaVuSans-64"/>
      <path d="M 4.203125 54.6875 
L 13.1875 54.6875 
L 24.421875 12.015625 
L 35.59375 54.6875 
L 46.1875 54.6875 
L 57.421875 12.015625 
L 68.609375 54.6875 
L 77.59375 54.6875 
L 63.28125 0 
L 52.6875 0 
L 40.921875 44.828125 
L 29.109375 0 
L 18.5 0 
z
" id="DejaVuSans-77"/>
      <path d="M 34.28125 27.484375 
Q 23.390625 27.484375 19.1875 25 
Q 14.984375 22.515625 14.984375 16.5 
Q 14.984375 11.71875 18.140625 8.90625 
Q 21.296875 6.109375 26.703125 6.109375 
Q 34.1875 6.109375 38.703125 11.40625 
Q 43.21875 16.703125 43.21875 25.484375 
L 43.21875 27.484375 
z
M 52.203125 31.203125 
L 52.203125 0 
L 43.21875 0 
L 43.21875 8.296875 
Q 40.140625 3.328125 35.546875 0.953125 
Q 30.953125 -1.421875 24.3125 -1.421875 
Q 15.921875 -1.421875 10.953125 3.296875 
Q 6 8.015625 6 15.921875 
Q 6 25.140625 12.171875 29.828125 
Q 18.359375 34.515625 30.609375 34.515625 
L 43.21875 34.515625 
L 43.21875 35.40625 
Q 43.21875 41.609375 39.140625 45 
Q 35.0625 48.390625 27.6875 48.390625 
Q 23 48.390625 18.546875 47.265625 
Q 14.109375 46.140625 10.015625 43.890625 
L 10.015625 52.203125 
Q 14.9375 54.109375 19.578125 55.046875 
Q 24.21875 56 28.609375 56 
Q 40.484375 56 46.34375 49.84375 
Q 52.203125 43.703125 52.203125 31.203125 
" id="DejaVuSans-61"/>
      <path d="M 14.796875 27.296875 
Q 14.796875 17.390625 18.875 11.75 
Q 22.953125 6.109375 30.078125 6.109375 
Q 37.203125 6.109375 41.296875 11.75 
Q 45.40625 17.390625 45.40625 27.296875 
Q 45.40625 37.203125 41.296875 42.84375 
Q 37.203125 48.484375 30.078125 48.484375 
Q 22.953125 48.484375 18.875 42.84375 
Q 14.796875 37.203125 14.796875 27.296875 
M 45.40625 8.203125 
Q 42.578125 3.328125 38.25 0.953125 
Q 33.9375 -1.421875 27.875 -1.421875 
Q 17.96875 -1.421875 11.734375 6.484375 
Q 5.515625 14.40625 5.515625 27.296875 
Q 5.515625 40.1875 11.734375 48.09375 
Q 17.96875 56 27.875 56 
Q 33.9375 56 38.25 53.625 
Q 42.578125 51.265625 45.40625 46.390625 
L 45.40625 54.6875 
L 54.390625 54.6875 
L 54.390625 -20.796875 
L 45.40625 -20.796875 
z
" id="DejaVuSans-71"/>
      <path d="M 18.109375 8.203125 
L 18.109375 -20.796875 
L 9.078125 -20.796875 
L 9.078125 54.6875 
L 18.109375 54.6875 
L 18.109375 46.390625 
Q 20.953125 51.265625 25.265625 53.625 
Q 29.59375 56 35.59375 56 
Q 45.5625 56 51.78125 48.09375 
Q 58.015625 40.1875 58.015625 27.296875 
Q 58.015625 14.40625 51.78125 6.484375 
Q 45.5625 -1.421875 35.59375 -1.421875 
Q 29.59375 -1.421875 25.265625 0.953125 
Q 20.953125 3.328125 18.109375 8.203125 
M 48.6875 27.296875 
Q 48.6875 37.203125 44.609375 42.84375 
Q 40.53125 48.484375 33.40625 48.484375 
Q 26.265625 48.484375 22.1875 42.84375 
Q 18.109375 37.203125 18.109375 27.296875 
Q 18.109375 17.390625 22.1875 11.75 
Q 26.265625 6.109375 33.40625 6.109375 
Q 40.53125 6.109375 44.609375 11.75 
Q 48.6875 17.390625 48.6875 27.296875 
" id="DejaVuSans-70"/>
     </defs>
     <g transform="translate(25.432812 279.366281)rotate(-90)scale(0.1 -0.1)">
      <use xlink:href="#DejaVuSans-53"/>
      <use x="63.476562" xlink:href="#DejaVuSans-75"/>
      <use x="126.855469" xlink:href="#DejaVuSans-63"/>
      <use x="181.835938" xlink:href="#DejaVuSans-63"/>
      <use x="236.816406" xlink:href="#DejaVuSans-65"/>
      <use x="298.339844" xlink:href="#DejaVuSans-73"/>
      <use x="350.439453" xlink:href="#DejaVuSans-73"/>
      <use x="402.539062" xlink:href="#DejaVuSans-66"/>
      <use x="437.744141" xlink:href="#DejaVuSans-75"/>
      <use x="501.123047" xlink:href="#DejaVuSans-6c"/>
      <use x="528.90625" xlink:href="#DejaVuSans-20"/>
      <use x="560.693359" xlink:href="#DejaVuSans-64"/>
      <use x="624.169922" xlink:href="#DejaVuSans-6f"/>
      <use x="685.351562" xlink:href="#DejaVuSans-77"/>
      <use x="767.138672" xlink:href="#DejaVuSans-6e"/>
      <use x="830.517578" xlink:href="#DejaVuSans-6c"/>
      <use x="858.300781" xlink:href="#DejaVuSans-6f"/>
      <use x="919.482422" xlink:href="#DejaVuSans-61"/>
      <use x="980.761719" xlink:href="#DejaVuSans-64"/>
      <use x="1044.238281" xlink:href="#DejaVuSans-20"/>
      <use x="1076.025391" xlink:href="#DejaVuSans-72"/>
      <use x="1117.107422" xlink:href="#DejaVuSans-65"/>
      <use x="1178.630859" xlink:href="#DejaVuSans-71"/>
      <use x="1242.107422" xlink:href="#DejaVuSans-75"/>
      <use x="1305.486328" xlink:href="#DejaVuSans-65"/>
      <use x="1367.009766" xlink:href="#DejaVuSans-73"/>
      <use x="1419.109375" xlink:href="#DejaVuSans-74"/>
      <use x="1458.318359" xlink:href="#DejaVuSans-73"/>
      <use x="1510.417969" xlink:href="#DejaVuSans-20"/>
      <use x="1542.205078" xlink:href="#DejaVuSans-70"/>
      <use x="1605.681641" xlink:href="#DejaVuSans-65"/>
      <use x="1667.205078" xlink:href="#DejaVuSans-72"/>
      <use x="1708.318359" xlink:href="#DejaVuSans-20"/>
      <use x="1740.105469" xlink:href="#DejaVuSans-73"/>
      <use x="1792.205078" xlink:href="#DejaVuSans-65"/>
      <use x="1853.728516" xlink:href="#DejaVuSans-63"/>
      <use x="1908.708984" xlink:href="#DejaVuSans-6f"/>
      <use x="1969.890625" xlink:href="#DejaVuSans-6e"/>
      <use x="2033.269531" xlink:href="#DejaVuSans-64"/>
     </g>
    </g>
   </g>
   <g id="line2d_23">
    <path clip-path="url(#p0b893cf251)" d="M 57.6 295.488 
L 57.95712 295.484634 
L 60.09984 292.20565 
L 60.45696 291.82586 
L 61.1712 290.563634 
L 61.52832 290.223674 
L 61.88544 289.299725 
L 62.9568 287.684636 
L 63.67104 287.115792 
L 64.02816 286.543022 
L 64.38528 285.463678 
L 64.7424 285.255551 
L 65.09952 284.402286 
L 65.45664 283.858126 
L 65.81376 283.974251 
L 66.17088 282.625071 
L 66.528 282.400114 
L 67.24224 281.109839 
L 67.59936 280.860198 
L 67.95648 279.920541 
L 68.3136 279.329819 
L 68.67072 279.537385 
L 69.02784 279.201913 
L 69.74208 277.407308 
L 70.0992 277.462285 
L 70.45632 276.412112 
L 70.81344 276.085616 
L 71.17056 275.151569 
L 71.52768 274.889026 
L 71.8848 274.810487 
L 72.24192 273.237473 
L 72.59904 274.060444 
L 72.95616 272.452087 
L 73.31328 271.486063 
L 73.6704 272.303425 
L 74.02752 271.964587 
L 74.38464 269.869291 
L 74.74176 270.626627 
L 75.09888 269.037905 
L 75.81312 269.146176 
L 76.17024 267.414962 
L 76.52736 267.362229 
L 76.88448 266.327765 
L 77.95584 264.799629 
L 78.31296 264.613942 
L 78.67008 264.033317 
L 79.0272 264.009756 
L 80.45568 262.009267 
L 80.8128 260.791359 
L 81.16992 261.145904 
L 81.52704 260.059829 
L 81.88416 259.774285 
L 82.24128 258.997875 
L 82.5984 256.891921 
L 82.95552 257.088267 
L 83.31264 256.67033 
L 83.66976 256.052119 
L 84.02688 256.90258 
L 84.384 255.896725 
L 84.74112 256.024631 
L 85.09824 255.126487 
L 85.45536 252.803429 
L 85.81248 253.999459 
L 86.1696 251.334198 
L 86.52672 251.141778 
L 86.88384 251.463786 
L 87.24096 251.503616 
L 87.59808 249.004969 
L 87.9552 250.087679 
L 88.31232 249.320806 
L 88.66944 247.271511 
L 89.02656 246.662838 
L 89.38368 248.268951 
L 89.7408 247.541347 
L 90.09792 246.320634 
L 90.45504 247.284414 
L 90.81216 245.487565 
L 91.16928 245.874648 
L 91.5264 244.057602 
L 91.88352 245.599202 
L 92.24064 245.268779 
L 92.59776 243.317657 
L 92.95488 244.051432 
L 93.312 242.874476 
L 93.66912 239.785106 
L 94.02624 239.42439 
L 94.38336 241.648152 
L 94.74048 241.516881 
L 95.45472 238.095967 
L 95.81184 239.297606 
L 96.16896 236.490415 
L 96.8832 237.526001 
L 97.24032 235.17265 
L 97.59744 234.931986 
L 97.95456 233.282116 
L 98.31168 234.006914 
L 98.6688 234.362021 
L 99.02592 234.149406 
L 99.38304 230.918667 
L 99.74016 233.305116 
L 100.09728 233.137941 
L 100.4544 232.510755 
L 100.81152 229.16838 
L 101.16864 228.918178 
L 101.52576 227.933642 
L 101.88288 228.767833 
L 102.24 228.392531 
L 102.59712 226.559778 
L 102.95424 226.557534 
L 104.0256 224.385383 
L 104.38272 222.697926 
L 104.73984 225.849566 
L 105.09696 225.176939 
L 105.45408 221.908053 
L 105.8112 220.68734 
L 106.16832 223.782319 
L 106.52544 223.745855 
L 106.88256 219.050934 
L 107.23968 218.466382 
L 107.5968 220.486506 
L 108.31104 219.52497 
L 108.66816 217.81283 
L 109.02528 218.413649 
L 109.3824 218.495554 
L 109.73952 219.42287 
L 110.09664 216.24262 
L 110.45376 218.455163 
L 110.81088 216.526481 
L 111.168 216.152301 
L 111.52512 215.163276 
L 111.88224 213.183544 
L 112.23936 213.257595 
L 112.59648 214.385745 
L 113.31072 211.028222 
L 113.66784 209.873145 
L 114.38208 212.078956 
L 114.7392 206.336106 
L 115.09632 206.072441 
L 115.45344 209.667823 
L 115.81056 209.026051 
L 116.16768 207.809825 
L 116.5248 207.246031 
L 116.88192 207.855266 
L 117.23904 207.954 
L 117.59616 206.694578 
L 117.95328 206.116198 
L 118.3104 204.796751 
L 118.66752 201.231662 
L 119.02464 200.988193 
L 119.73888 203.887387 
L 120.096 201.234467 
L 120.45312 200.872068 
L 120.81024 202.472571 
L 121.16736 200.490034 
L 121.52448 197.493228 
L 121.8816 197.635719 
L 122.23872 200.820457 
L 122.59584 197.57906 
L 122.95296 199.194148 
L 123.31008 194.040338 
L 123.6672 196.319638 
L 124.02432 196.007167 
L 124.73856 191.181535 
L 125.09568 190.04497 
L 125.4528 195.684598 
L 125.80992 190.881406 
L 126.52416 194.100363 
L 126.88128 190.799501 
L 127.2384 192.982872 
L 127.59552 192.600838 
L 127.95264 191.887821 
L 128.30976 187.914332 
L 128.66688 187.196826 
L 129.024 184.725668 
L 129.38112 190.144265 
L 130.09536 187.241706 
L 130.45248 183.805645 
L 130.8096 184.036772 
L 131.16672 183.611542 
L 131.52384 184.716131 
L 132.23808 179.167944 
L 132.5952 180.687104 
L 132.95232 184.860866 
L 133.30944 180.820619 
L 133.66656 182.577639 
L 134.02368 176.011256 
L 134.3808 181.503905 
L 134.73792 175.381826 
L 135.09504 179.092211 
L 135.45216 175.197821 
L 135.80928 174.514536 
L 136.1664 176.085307 
L 136.52352 176.928474 
L 136.88064 172.73676 
L 137.23776 171.157014 
L 137.59488 173.799275 
L 137.952 170.638099 
L 138.30912 176.994671 
L 138.66624 169.371945 
L 139.02336 168.106914 
L 139.38048 167.887567 
L 139.7376 171.121672 
L 140.09472 172.310969 
L 140.45184 169.088085 
L 140.80896 168.092889 
L 141.16608 168.260625 
L 141.5232 170.934862 
L 141.88032 164.610827 
L 142.23744 165.822004 
L 142.59456 164.927225 
L 142.95168 165.783856 
L 143.3088 161.893394 
L 143.66592 167.480289 
L 144.02304 165.285698 
L 144.38016 165.226233 
L 144.73728 161.6359 
L 145.0944 169.095938 
L 145.45152 167.608755 
L 145.80864 162.270379 
L 146.16576 167.834834 
L 146.52288 165.661561 
L 146.88 166.523801 
L 147.23712 162.362381 
L 147.59424 167.452239 
L 147.95136 167.554339 
L 148.30848 158.815244 
L 148.6656 158.614971 
L 149.02272 161.490042 
L 149.37984 165.989178 
L 149.73696 162.875126 
L 150.09408 161.633095 
L 150.4512 159.138374 
L 150.80832 163.581411 
L 151.16544 165.062424 
L 151.52256 161.602801 
L 151.87968 161.298745 
L 152.2368 163.358138 
L 152.59392 158.283987 
L 152.95104 162.620436 
L 153.30816 159.342014 
L 153.66528 163.677341 
L 154.0224 160.243524 
L 154.37952 160.678291 
L 154.73664 154.859707 
L 155.09376 158.413015 
L 155.45088 154.093396 
L 156.16512 158.119617 
L 156.52224 158.532506 
L 156.87936 155.970467 
L 157.23648 160.352917 
L 157.95072 156.338476 
L 158.30784 158.984102 
L 158.66496 159.956858 
L 159.02208 160.080837 
L 159.3792 160.033153 
L 159.73632 153.377012 
L 160.09344 159.257865 
L 160.45056 152.520942 
L 160.80768 150.880048 
L 161.1648 153.508284 
L 161.52192 158.208254 
L 162.23616 151.340059 
L 162.59328 157.370696 
L 162.9504 151.00066 
L 163.30752 157.371257 
L 164.02176 152.305522 
L 164.37888 150.173201 
L 164.736 151.769216 
L 165.09312 156.620653 
L 165.45024 152.391914 
L 165.80736 155.620409 
L 166.5216 147.285788 
L 166.87872 156.042273 
L 167.59296 145.974755 
L 167.95008 155.780852 
L 168.3072 155.688289 
L 168.66432 146.66926 
L 169.02144 152.013807 
L 169.37856 146.282178 
L 169.73568 145.065391 
L 170.0928 148.0751 
L 170.44992 153.593554 
L 170.80704 148.145224 
L 171.16416 153.531845 
L 171.8784 147.654358 
L 172.23552 147.334594 
L 172.59264 143.82897 
L 172.94976 147.06027 
L 173.30688 144.471864 
L 173.664 144.623892 
L 174.02112 151.549308 
L 174.37824 146.724237 
L 174.73536 148.482939 
L 175.4496 145.164686 
L 175.80672 145.215736 
L 176.16384 150.920439 
L 176.52096 150.022856 
L 176.87808 141.941802 
L 177.2352 147.307105 
L 177.59232 141.465521 
L 178.30656 141.767334 
L 178.66368 146.417937 
L 179.0208 147.028294 
L 179.37792 144.562184 
L 179.73504 145.38235 
L 180.09216 147.8709 
L 180.44928 148.743239 
L 180.8064 147.695871 
L 181.16352 138.976972 
L 181.52064 144.863435 
L 181.87776 140.215076 
L 182.23488 144.709163 
L 182.592 138.192709 
L 182.94912 146.316398 
L 183.30624 140.935947 
L 183.66336 141.995657 
L 184.02048 137.470154 
L 184.3776 138.149512 
L 184.73472 143.167564 
L 185.09184 145.831142 
L 185.44896 138.899555 
L 185.80608 146.300129 
L 186.1632 144.104977 
L 186.52032 144.125173 
L 186.87744 144.880265 
L 187.23456 135.310905 
L 187.59168 134.588351 
L 187.9488 136.412689 
L 188.30592 142.880337 
L 188.66304 143.60794 
L 189.37728 137.708575 
L 189.7344 143.607379 
L 190.44864 140.318298 
L 190.80576 135.827577 
L 191.16288 142.041097 
L 191.52 138.070974 
L 191.87712 139.415105 
L 192.23424 133.459079 
L 192.59136 138.643183 
L 192.94848 139.557596 
L 193.3056 135.346809 
L 193.66272 134.346003 
L 194.01984 136.173146 
L 194.37696 137.207611 
L 194.73408 140.478741 
L 195.0912 137.662573 
L 195.44832 132.995702 
L 195.80544 136.763868 
L 196.16256 131.982555 
L 196.51968 132.196853 
L 196.8768 129.883332 
L 197.23392 133.14212 
L 197.59104 138.580913 
L 197.94816 139.320859 
L 198.30528 136.048046 
L 198.6624 139.353957 
L 199.01952 131.712158 
L 199.37664 132.098118 
L 200.09088 138.451886 
L 200.448 130.849356 
L 200.80512 135.401786 
L 201.16224 137.638451 
L 201.51936 136.973678 
L 201.87648 129.457541 
L 202.2336 137.820212 
L 202.59072 128.34622 
L 202.94784 135.361955 
L 203.30496 126.983577 
L 203.66208 134.180512 
L 204.0192 132.225463 
L 204.37632 128.609886 
L 204.73344 135.690134 
L 205.09056 131.749744 
L 205.44768 125.60186 
L 205.8048 126.695228 
L 206.16192 133.576887 
L 206.51904 127.270243 
L 206.87616 129.246609 
L 207.23328 133.041703 
L 207.5904 126.211655 
L 207.94752 125.25629 
L 208.30464 132.29166 
L 208.66176 131.848478 
L 209.01888 123.844841 
L 209.376 128.73723 
L 209.73312 130.046019 
L 210.09024 123.120603 
L 210.44736 134.261855 
L 210.80448 125.106506 
L 211.1616 128.533591 
L 211.51872 129.802549 
L 211.87584 131.550032 
L 212.23296 122.2118 
L 212.59008 132.555886 
L 213.30432 123.36239 
L 213.66144 128.087604 
L 214.01856 126.393416 
L 214.37568 129.122069 
L 214.7328 128.628959 
L 215.08992 124.389561 
L 215.44704 127.076701 
L 215.80416 131.283001 
L 216.16128 132.11046 
L 216.5184 124.679593 
L 216.87552 122.726788 
L 217.23264 119.794496 
L 217.58976 131.249902 
L 217.94688 131.032238 
L 218.304 125.128385 
L 218.66112 127.322976 
L 219.37536 121.925695 
L 219.73248 123.428586 
L 220.0896 120.95294 
L 220.44672 126.806865 
L 221.16096 124.38339 
L 221.51808 120.402048 
L 221.8752 120.327997 
L 222.23232 126.010821 
L 222.58944 123.449343 
L 222.94656 119.617784 
L 223.30368 127.137288 
L 223.6608 117.662736 
L 224.01792 116.482414 
L 224.37504 120.497416 
L 224.73216 126.661008 
L 225.08928 124.075407 
L 225.4464 124.753083 
L 225.80352 119.635736 
L 226.16064 124.597127 
L 226.51776 116.384802 
L 226.87488 125.848134 
L 227.232 119.879206 
L 227.58912 125.519955 
L 227.94624 121.280557 
L 228.30336 122.053601 
L 228.66048 121.175091 
L 229.0176 122.42161 
L 229.37472 124.906794 
L 229.73184 115.587636 
L 230.08896 122.666763 
L 230.8032 115.229724 
L 231.16032 113.716175 
L 231.51744 124.151141 
L 231.87456 116.054379 
L 232.23168 118.554709 
L 232.5888 119.956061 
L 232.94592 117.285751 
L 233.66016 122.618517 
L 234.01728 112.986888 
L 234.3744 121.033161 
L 234.73152 114.508292 
L 235.08864 116.770202 
L 235.44576 116.709054 
L 235.80288 112.080329 
L 236.16 113.622489 
L 236.51712 120.611297 
L 236.87424 115.729005 
L 237.23136 118.473927 
L 237.58848 113.270749 
L 237.9456 111.076719 
L 238.30272 120.281435 
L 238.65984 118.624833 
L 239.01696 110.85064 
L 239.37408 110.593146 
L 239.7312 117.584197 
L 240.08832 112.497144 
L 240.44544 118.324143 
L 240.80256 121.779277 
L 241.15968 118.83296 
L 241.5168 119.226214 
L 241.87392 117.022086 
L 242.23104 111.57039 
L 242.58816 109.159818 
L 242.94528 113.96862 
L 243.3024 109.424044 
L 243.65952 113.978157 
L 244.01664 110.416434 
L 244.37376 110.267772 
L 244.73088 108.943837 
L 245.088 115.125941 
L 245.44512 112.415801 
L 245.80224 119.988599 
L 246.15936 107.565486 
L 246.51648 115.837276 
L 246.8736 106.617413 
L 247.23072 111.714564 
L 247.94496 108.45802 
L 248.30208 118.562563 
L 248.6592 115.572489 
L 249.01632 105.684488 
L 249.37344 115.611197 
L 249.73056 108.48663 
L 250.08768 112.430948 
L 250.4448 108.088889 
L 250.80192 109.322505 
L 251.51616 117.226286 
L 251.87328 116.592368 
L 252.2304 115.206163 
L 252.58752 109.652928 
L 252.94464 106.673512 
L 253.30176 112.90835 
L 253.65888 107.839809 
L 254.016 108.842859 
L 254.37312 104.54624 
L 254.73024 114.687809 
L 255.08736 103.311502 
L 255.44448 104.789148 
L 255.8016 114.873496 
L 256.15872 108.794053 
L 256.51584 109.534559 
L 256.87296 104.920981 
L 257.23008 105.864004 
L 257.5872 110.733393 
L 257.94432 106.655 
L 258.30144 104.026203 
L 258.65856 113.138916 
L 259.01568 110.102841 
L 259.3728 105.809027 
L 259.72992 105.941982 
L 260.08704 109.829078 
L 260.44416 101.36038 
L 260.80128 110.650367 
L 261.1584 103.223988 
L 261.51552 100.523384 
L 261.87264 111.437435 
L 262.22976 101.295306 
L 262.58688 103.719902 
L 262.944 102.208036 
L 263.65824 106.837321 
L 264.01536 113.14116 
L 264.37248 101.718853 
L 264.7296 111.928301 
L 265.08672 102.268622 
L 265.44384 103.827612 
L 265.80096 98.940833 
L 266.5152 112.268261 
L 266.87232 102.687121 
L 267.22944 111.46829 
L 267.58656 98.534115 
L 267.94368 104.468823 
L 268.3008 101.156741 
L 268.65792 105.533021 
L 269.37216 107.19972 
L 269.72928 104.118205 
L 270.0864 102.494701 
L 270.44352 108.101792 
L 270.80064 110.537047 
L 271.15776 98.603678 
L 271.51488 96.777657 
L 271.872 97.255059 
L 272.58624 101.613387 
L 273.30048 98.222766 
L 273.6576 101.59263 
L 274.01472 100.646802 
L 274.37184 96.105031 
L 274.72896 97.472162 
L 275.08608 95.270839 
L 275.4432 95.641653 
L 275.80032 100.912711 
L 276.15744 95.159763 
L 276.51456 98.506627 
L 276.87168 96.201521 
L 277.2288 107.840931 
L 277.58592 100.298988 
L 277.94304 104.606827 
L 278.30016 105.879151 
L 278.65728 104.365601 
L 279.0144 96.320451 
L 279.37152 99.703217 
L 279.72864 95.459893 
L 280.08576 93.567675 
L 280.44288 102.0403 
L 280.8 106.4738 
L 281.15712 97.106397 
L 281.51424 96.164495 
L 281.87136 97.35772 
L 282.22848 94.705923 
L 282.5856 102.558654 
L 282.94272 98.609288 
L 283.29984 104.490702 
L 283.65696 104.294917 
L 284.01408 95.32245 
L 284.3712 98.610971 
L 284.72832 105.425311 
L 285.08544 91.424134 
L 285.79968 96.624507 
L 286.1568 104.690414 
L 286.51392 94.100054 
L 286.87104 103.195377 
L 287.22816 100.153692 
L 287.58528 93.224349 
L 287.9424 95.671947 
L 288.29952 91.482477 
L 288.65664 91.035929 
L 289.01376 97.338647 
L 289.37088 96.448356 
L 289.728 92.625213 
L 290.08512 95.257375 
L 290.44224 93.931196 
L 290.79936 99.69312 
L 291.15648 100.757317 
L 291.5136 93.376939 
L 291.87072 91.119517 
L 292.22784 103.277843 
L 292.94208 90.548429 
L 293.2992 97.614092 
L 293.65632 96.167861 
L 294.01344 96.859001 
L 294.37056 95.513187 
L 294.72768 100.867271 
L 295.0848 90.077198 
L 295.44192 102.115472 
L 295.79904 87.868582 
L 296.15616 88.661261 
L 296.51328 95.592847 
L 296.8704 96.611043 
L 297.22752 94.221789 
L 297.58464 89.062929 
L 297.94176 101.036689 
L 298.29888 95.964783 
L 298.656 100.463358 
L 299.01312 92.127615 
L 299.37024 97.26123 
L 299.72736 87.312642 
L 300.08448 99.65385 
L 300.4416 94.916855 
L 300.79872 86.877875 
L 301.15584 92.525917 
L 301.51296 89.707506 
L 301.87008 87.84446 
L 302.2272 88.76841 
L 302.58432 95.672508 
L 302.94144 96.690704 
L 303.29856 88.310642 
L 303.65568 97.682533 
L 304.0128 92.607822 
L 304.36992 91.347839 
L 304.72704 96.16113 
L 305.08416 98.029786 
L 305.44128 86.359521 
L 305.7984 88.002659 
L 306.15552 92.855779 
L 306.51264 86.259103 
L 306.86976 89.98744 
L 307.22688 90.834534 
L 307.584 97.249449 
L 307.94112 94.036101 
L 308.29824 94.053492 
L 308.65536 88.360009 
L 309.01248 95.23718 
L 309.3696 97.614653 
L 309.72672 90.301033 
L 310.08384 94.591481 
L 310.44096 84.950876 
L 310.79808 91.293423 
L 311.1552 87.643626 
L 311.51232 89.786045 
L 311.86944 82.294591 
L 312.22656 83.492864 
L 312.58368 91.69958 
L 312.9408 86.65965 
L 313.29792 93.345523 
L 313.65504 93.050443 
L 314.01216 85.627429 
L 314.36928 92.339669 
L 314.7264 94.905074 
L 315.08352 83.343641 
L 315.44064 80.70699 
L 315.79776 84.627746 
L 316.15488 82.89541 
L 316.512 90.113662 
L 316.86912 94.515747 
L 317.22624 85.062513 
L 317.58336 86.623747 
L 317.94048 94.542114 
L 318.2976 92.417085 
L 318.65472 91.925659 
L 319.01184 87.038318 
L 319.36896 85.209492 
L 319.72608 81.041901 
L 320.0832 83.747553 
L 320.44032 81.747626 
L 320.79744 87.846143 
L 321.15456 89.419718 
L 321.51168 85.762067 
L 321.8688 91.705751 
L 322.22592 86.385326 
L 322.58304 92.671775 
L 322.94016 78.914068 
L 323.29728 82.641282 
L 323.6544 87.654284 
L 324.36864 91.341108 
L 324.72576 80.910068 
L 325.08288 91.548674 
L 325.44 82.147611 
L 325.79712 90.394718 
L 326.15424 86.192907 
L 326.86848 90.754313 
L 327.2256 85.073733 
L 327.58272 90.074393 
L 327.93984 85.325056 
L 328.29696 78.126999 
L 328.65408 78.057437 
L 329.0112 81.219174 
L 329.36832 85.601063 
L 329.72544 86.367935 
L 330.08256 85.841166 
L 330.43968 77.69672 
L 331.15392 85.957291 
L 331.51104 87.669431 
L 331.86816 88.131687 
L 332.5824 81.402056 
L 332.93952 90.019416 
L 333.29664 80.047827 
L 333.65376 74.915895 
L 334.01088 87.29469 
L 334.368 78.889384 
L 334.72512 78.218441 
L 335.08224 76.382322 
L 335.43936 88.353838 
L 335.79648 85.527012 
L 336.51072 76.73855 
L 336.86784 78.400201 
L 337.22496 76.357638 
L 337.58208 85.328983 
L 337.9392 88.495208 
L 338.29632 76.61345 
L 338.65344 73.817478 
L 339.01056 78.481545 
L 339.36768 87.025415 
L 339.7248 77.619865 
L 340.08192 82.622208 
L 340.43904 81.262931 
L 340.79616 85.943827 
L 341.5104 76.847943 
L 341.86752 76.392981 
L 342.22464 84.736578 
L 342.58176 81.115391 
L 342.93888 74.27244 
L 343.296 81.371202 
L 343.65312 73.610473 
L 344.01024 74.395858 
L 344.36736 85.108514 
L 344.72448 83.335226 
L 345.0816 74.993873 
L 345.43872 83.312786 
L 345.79584 83.081098 
L 346.15296 75.690061 
L 346.51008 84.653551 
L 346.8672 73.356905 
L 347.22432 83.528767 
L 347.58144 77.103754 
L 347.93856 79.509839 
L 348.29568 71.431589 
L 349.00992 76.072095 
L 349.36704 77.532911 
L 349.72416 83.131587 
L 350.08128 82.488693 
L 350.4384 76.325101 
L 350.79552 82.281127 
L 351.15264 79.477862 
L 351.50976 74.257294 
L 351.86688 79.029631 
L 352.224 81.532767 
L 352.93824 73.701353 
L 353.29536 81.827286 
L 353.65248 75.558228 
L 354.0096 74.36837 
L 354.36672 69.605568 
L 354.72384 82.516742 
L 355.08096 81.041901 
L 355.43808 80.41191 
L 355.7952 74.22139 
L 356.15232 78.368225 
L 356.50944 67.932698 
L 356.86656 77.776942 
L 357.22368 71.7665 
L 357.5808 73.405712 
L 357.93792 73.90948 
L 358.29504 68.129605 
L 358.65216 70.587861 
L 359.00928 77.173317 
L 359.3664 80.104487 
L 359.72352 81.962485 
L 360.08064 82.32825 
L 360.43776 71.730036 
L 360.79488 79.570425 
L 361.152 79.581645 
L 361.50912 78.482667 
L 361.86624 72.534495 
L 362.22336 75.927359 
L 362.58048 68.424686 
L 362.9376 72.303367 
L 363.29472 70.020701 
L 363.65184 72.757769 
L 364.00896 65.999528 
L 364.36608 78.400762 
L 364.7232 69.263365 
L 365.08032 74.851943 
L 365.43744 65.591688 
L 366.15168 69.299268 
L 366.5088 68.790451 
L 366.86592 75.365248 
L 367.22304 71.436638 
L 367.58016 80.437154 
L 368.2944 68.108287 
L 368.65152 75.885285 
L 369.00864 68.551469 
L 369.36576 77.783113 
L 369.72288 79.262442 
L 370.08 77.471764 
L 370.43712 69.474858 
L 370.79424 74.764989 
L 371.15136 74.649425 
L 371.50848 74.353784 
L 372.22272 64.100578 
L 372.93696 72.550763 
L 373.29408 70.669205 
L 373.6512 72.694377 
L 374.00832 66.688984 
L 374.36544 74.279172 
L 374.72256 67.614617 
L 375.07968 68.086409 
L 375.4368 74.851382 
L 375.79392 62.686885 
L 376.15104 74.688134 
L 376.50816 73.901065 
L 376.86528 62.147774 
L 377.2224 74.460933 
L 377.57952 65.194508 
L 377.93664 65.520443 
L 378.29376 63.725276 
L 378.65088 76.982581 
L 379.008 69.233071 
L 379.36512 65.494637 
L 379.72224 66.200923 
L 380.07936 72.23156 
L 380.43648 68.14363 
L 380.7936 66.85672 
L 381.15072 65.140092 
L 381.50784 66.178483 
L 381.86496 60.446293 
L 382.22208 65.037431 
L 382.5792 72.773476 
L 382.93632 67.963552 
L 383.29344 65.151312 
L 384.00768 66.22729 
L 384.3648 61.936842 
L 384.72192 59.383217 
L 385.07904 70.391515 
L 385.43616 60.358217 
L 385.79328 61.252995 
L 386.50752 71.749109 
L 386.86464 72.899699 
L 387.22176 58.757153 
L 387.57888 72.776281 
L 387.936 70.718011 
L 388.29312 69.790134 
L 388.65024 65.514272 
L 389.00736 68.565494 
L 389.36448 64.736179 
L 389.7216 65.705569 
L 390.07872 71.579691 
L 390.43584 62.490538 
L 390.79296 70.205266 
L 391.15008 64.047845 
L 391.5072 73.541471 
L 391.86432 60.292581 
L 392.22144 59.307484 
L 392.57856 58.941158 
L 392.93568 69.687473 
L 393.2928 67.164703 
L 394.00704 69.957309 
L 394.36416 63.056577 
L 394.72128 64.905598 
L 395.0784 70.631618 
L 395.43552 61.558174 
L 395.79264 69.320025 
L 396.14976 61.86784 
L 396.50688 59.536368 
L 396.864 56.361728 
L 397.22112 64.404074 
L 397.57824 63.383073 
L 397.93536 57.800105 
L 398.29248 56.556952 
L 398.6496 69.128166 
L 399.00672 55.635807 
L 399.36384 60.42778 
L 399.72096 68.917234 
L 400.07808 65.2809 
L 400.4352 64.899988 
L 400.79232 56.530025 
L 401.14944 58.696566 
L 401.50656 57.41751 
L 402.2208 61.858864 
L 402.57792 67.078311 
L 402.93504 66.985747 
L 403.29216 64.064675 
L 404.0064 54.181723 
L 404.36352 64.462417 
L 404.72064 55.429363 
L 405.07776 53.568 
L 405.43488 57.069697 
L 405.792 58.536684 
L 406.14912 56.250091 
L 406.50624 70.177778 
L 406.86336 57.997012 
L 407.22048 53.717223 
L 407.5776 66.589128 
L 407.93472 53.984254 
L 408.29184 62.097285 
L 408.64896 63.367926 
L 409.00608 68.440393 
L 409.3632 64.922989 
L 409.72032 62.648176 
L 410.07744 63.170458 
L 410.43456 64.495515 
L 410.79168 64.575175 
L 411.1488 65.748205 
L 411.50592 68.153167 
L 411.86304 67.037919 
L 412.22016 57.710908 
L 412.57728 54.075135 
L 413.29152 67.518126 
L 413.64864 66.555468 
L 414.00576 57.964475 
L 414.36288 61.507124 
L 414.72 57.504463 
L 414.72 57.504463 
" style="fill:none;stroke:#000080;stroke-linecap:square;stroke-width:0.5;"/>
   </g>
   <g id="patch_3">
    <path d="M 57.6 307.584 
L 57.6 41.472 
" style="fill:none;stroke:#000000;stroke-linecap:square;stroke-linejoin:miter;stroke-width:0.8;"/>
   </g>
   <g id="patch_4">
    <path d="M 414.72 307.584 
L 414.72 41.472 
" style="fill:none;stroke:#000000;stroke-linecap:square;stroke-linejoin:miter;stroke-width:0.8;"/>
   </g>
   <g id="patch_5">
    <path d="M 57.6 307.584 
L 414.72 307.584 
" style="fill:none;stroke:#000000;stroke-linecap:square;stroke-linejoin:miter;stroke-width:0.8;"/>
   </g>
   <g id="patch_6">
    <path d="M 57.6 41.472 
L 414.72 41.472 
" style="fill:none;stroke:#000000;stroke-linecap:square;stroke-linejoin:miter;stroke-width:0.8;"/>
   </g>
   <g id="text_14">
    <!-- Test -->
    <defs>
     <path d="M -0.296875 72.90625 
L 61.375 72.90625 
L 61.375 64.59375 
L 35.5 64.59375 
L 35.5 0 
L 25.59375 0 
L 25.59375 64.59375 
L -0.296875 64.59375 
z
" id="DejaVuSans-54"/>
    </defs>
    <g transform="translate(223.341563 35.472)scale(0.12 -0.12)">
     <use xlink:href="#DejaVuSans-54"/>
     <use x="60.818359" xlink:href="#DejaVuSans-65"/>
     <use x="122.341797" xlink:href="#DejaVuSans-73"/>
     <use x="174.441406" xlink:href="#DejaVuSans-74"/>
    </g>
   </g>
   <g id="legend_1">
    <g id="patch_7">
     <path d="M 64.6 64.150125 
L 306.276563 64.150125 
Q 308.276563 64.150125 308.276563 62.150125 
L 308.276563 48.472 
Q 308.276563 46.472 306.276563 46.472 
L 64.6 46.472 
Q 62.6 46.472 62.6 48.472 
L 62.6 62.150125 
Q 62.6 64.150125 64.6 64.150125 
z
" style="fill:#ffffff;opacity:0.8;stroke:#cccccc;stroke-linejoin:miter;"/>
    </g>
    <g id="line2d_24">
     <path d="M 66.6 54.570438 
L 86.6 54.570438 
" style="fill:none;stroke:#000080;stroke-linecap:square;stroke-width:0.5;"/>
    </g>
    <g id="line2d_25"/>
    <g id="text_15">
     <!-- Successful download requests per second -->
     <g transform="translate(94.6 58.070438)scale(0.1 -0.1)">
      <use xlink:href="#DejaVuSans-53"/>
      <use x="63.476562" xlink:href="#DejaVuSans-75"/>
      <use x="126.855469" xlink:href="#DejaVuSans-63"/>
      <use x="181.835938" xlink:href="#DejaVuSans-63"/>
      <use x="236.816406" xlink:href="#DejaVuSans-65"/>
      <use x="298.339844" xlink:href="#DejaVuSans-73"/>
      <use x="350.439453" xlink:href="#DejaVuSans-73"/>
      <use x="402.539062" xlink:href="#DejaVuSans-66"/>
      <use x="437.744141" xlink:href="#DejaVuSans-75"/>
      <use x="501.123047" xlink:href="#DejaVuSans-6c"/>
      <use x="528.90625" xlink:href="#DejaVuSans-20"/>
      <use x="560.693359" xlink:href="#DejaVuSans-64"/>
      <use x="624.169922" xlink:href="#DejaVuSans-6f"/>
      <use x="685.351562" xlink:href="#DejaVuSans-77"/>
      <use x="767.138672" xlink:href="#DejaVuSans-6e"/>
      <use x="830.517578" xlink:href="#DejaVuSans-6c"/>
      <use x="858.300781" xlink:href="#DejaVuSans-6f"/>
      <use x="919.482422" xlink:href="#DejaVuSans-61"/>
      <use x="980.761719" xlink:href="#DejaVuSans-64"/>
      <use x="1044.238281" xlink:href="#DejaVuSans-20"/>
      <use x="1076.025391" xlink:href="#DejaVuSans-72"/>
      <use x="1117.107422" xlink:href="#DejaVuSans-65"/>
      <use x="1178.630859" xlink:href="#DejaVuSans-71"/>
      <use x="1242.107422" xlink:href="#DejaVuSans-75"/>
      <use x="1305.486328" xlink:href="#DejaVuSans-65"/>
      <use x="1367.009766" xlink:href="#DejaVuSans-73"/>
      <use x="1419.109375" xlink:href="#DejaVuSans-74"/>
      <use x="1458.318359" xlink:href="#DejaVuSans-73"/>
      <use x="1510.417969" xlink:href="#DejaVuSans-20"/>
      <use x="1542.205078" xlink:href="#DejaVuSans-70"/>
      <use x="1605.681641" xlink:href="#DejaVuSans-65"/>
      <use x="1667.205078" xlink:href="#DejaVuSans-72"/>
      <use x="1708.318359" xlink:href="#DejaVuSans-20"/>
      <use x="1740.105469" xlink:href="#DejaVuSans-73"/>
      <use x="1792.205078" xlink:href="#DejaVuSans-65"/>
      <use x="1853.728516" xlink:href="#DejaVuSans-63"/>
      <use x="1908.708984" xlink:href="#DejaVuSans-6f"/>
      <use x="1969.890625" xlink:href="#DejaVuSans-6e"/>
      <use x="2033.269531" xlink:href="#DejaVuSans-64"/>
     </g>
    </g>
   </g>
  </g>
 </g>
 <defs>
  <clipPath id="p0b893cf251">
   <rect height="266.112" width="357.12" x="57.6" y="41.472"/>
  </clipPath>
 </defs>
</svg>
