<?xml version="1.0" encoding="utf-8" standalone="no"?>
<!DOCTYPE svg PUBLIC "-//W3C//DTD SVG 1.1//EN"
  "http://www.w3.org/Graphics/SVG/1.1/DTD/svg11.dtd">
<!-- Created with matplotlib (http://matplotlib.org/) -->
<svg height="345pt" version="1.1" viewBox="0 0 460 345" width="460pt" xmlns="http://www.w3.org/2000/svg" xmlns:xlink="http://www.w3.org/1999/xlink">
 <defs>
  <style type="text/css">
*{stroke-linecap:butt;stroke-linejoin:round;}
  </style>
 </defs>
 <g id="figure_1">
  <g id="patch_1">
   <path d="M 0 345.6 
L 460.8 345.6 
L 460.8 0 
L 0 0 
z
" style="fill:#ffffff;"/>
  </g>
  <g id="axes_1">
   <g id="patch_2">
    <path d="M 57.6 307.584 
L 414.72 307.584 
L 414.72 41.472 
L 57.6 41.472 
z
" style="fill:#ffffff;"/>
   </g>
   <g id="matplotlib.axis_1">
    <g id="xtick_1">
     <g id="line2d_1">
      <path clip-path="url(#pf7bf19653c)" d="M 57.6 307.584 
L 57.6 41.472 
" style="fill:none;stroke:#b0b0b0;stroke-linecap:square;stroke-width:0.8;"/>
     </g>
     <g id="line2d_2">
      <defs>
       <path d="M 0 0 
L 0 3.5 
" id="m04c456163a" style="stroke:#000000;stroke-width:0.8;"/>
      </defs>
      <g>
       <use style="stroke:#000000;stroke-width:0.8;" x="57.6" xlink:href="#m04c456163a" y="307.584"/>
      </g>
     </g>
     <g id="text_1">
      <!-- 0 -->
      <defs>
       <path d="M 31.78125 66.40625 
Q 24.171875 66.40625 20.328125 58.90625 
Q 16.5 51.421875 16.5 36.375 
Q 16.5 21.390625 20.328125 13.890625 
Q 24.171875 6.390625 31.78125 6.390625 
Q 39.453125 6.390625 43.28125 13.890625 
Q 47.125 21.390625 47.125 36.375 
Q 47.125 51.421875 43.28125 58.90625 
Q 39.453125 66.40625 31.78125 66.40625 
M 31.78125 74.21875 
Q 44.046875 74.21875 50.515625 64.515625 
Q 56.984375 54.828125 56.984375 36.375 
Q 56.984375 17.96875 50.515625 8.265625 
Q 44.046875 -1.421875 31.78125 -1.421875 
Q 19.53125 -1.421875 13.0625 8.265625 
Q 6.59375 17.96875 6.59375 36.375 
Q 6.59375 54.828125 13.0625 64.515625 
Q 19.53125 74.21875 31.78125 74.21875 
" id="DejaVuSans-30"/>
      </defs>
      <g transform="translate(54.41875 322.182437)scale(0.1 -0.1)">
       <use xlink:href="#DejaVuSans-30"/>
      </g>
     </g>
    </g>
    <g id="xtick_2">
     <g id="line2d_3">
      <path clip-path="url(#pf7bf19653c)" d="M 129.024 307.584 
L 129.024 41.472 
" style="fill:none;stroke:#b0b0b0;stroke-linecap:square;stroke-width:0.8;"/>
     </g>
     <g id="line2d_4">
      <g>
       <use style="stroke:#000000;stroke-width:0.8;" x="129.024" xlink:href="#m04c456163a" y="307.584"/>
      </g>
     </g>
     <g id="text_2">
      <!-- 200 -->
      <defs>
       <path d="M 19.1875 8.296875 
L 53.609375 8.296875 
L 53.609375 0 
L 7.328125 0 
L 7.328125 8.296875 
Q 12.9375 14.109375 22.625 23.890625 
Q 32.328125 33.6875 34.8125 36.53125 
Q 39.546875 41.84375 41.421875 45.53125 
Q 43.3125 49.21875 43.3125 52.78125 
Q 43.3125 58.59375 39.234375 62.25 
Q 35.15625 65.921875 28.609375 65.921875 
Q 23.96875 65.921875 18.8125 64.3125 
Q 13.671875 62.703125 7.8125 59.421875 
L 7.8125 69.390625 
Q 13.765625 71.78125 18.9375 73 
Q 24.125 74.21875 28.421875 74.21875 
Q 39.75 74.21875 46.484375 68.546875 
Q 53.21875 62.890625 53.21875 53.421875 
Q 53.21875 48.921875 51.53125 44.890625 
Q 49.859375 40.875 45.40625 35.40625 
Q 44.1875 33.984375 37.640625 27.21875 
Q 31.109375 20.453125 19.1875 8.296875 
" id="DejaVuSans-32"/>
      </defs>
      <g transform="translate(119.48025 322.182437)scale(0.1 -0.1)">
       <use xlink:href="#DejaVuSans-32"/>
       <use x="63.623047" xlink:href="#DejaVuSans-30"/>
       <use x="127.246094" xlink:href="#DejaVuSans-30"/>
      </g>
     </g>
    </g>
    <g id="xtick_3">
     <g id="line2d_5">
      <path clip-path="url(#pf7bf19653c)" d="M 200.448 307.584 
L 200.448 41.472 
" style="fill:none;stroke:#b0b0b0;stroke-linecap:square;stroke-width:0.8;"/>
     </g>
     <g id="line2d_6">
      <g>
       <use style="stroke:#000000;stroke-width:0.8;" x="200.448" xlink:href="#m04c456163a" y="307.584"/>
      </g>
     </g>
     <g id="text_3">
      <!-- 400 -->
      <defs>
       <path d="M 37.796875 64.3125 
L 12.890625 25.390625 
L 37.796875 25.390625 
z
M 35.203125 72.90625 
L 47.609375 72.90625 
L 47.609375 25.390625 
L 58.015625 25.390625 
L 58.015625 17.1875 
L 47.609375 17.1875 
L 47.609375 0 
L 37.796875 0 
L 37.796875 17.1875 
L 4.890625 17.1875 
L 4.890625 26.703125 
z
" id="DejaVuSans-34"/>
      </defs>
      <g transform="translate(190.90425 322.182437)scale(0.1 -0.1)">
       <use xlink:href="#DejaVuSans-34"/>
       <use x="63.623047" xlink:href="#DejaVuSans-30"/>
       <use x="127.246094" xlink:href="#DejaVuSans-30"/>
      </g>
     </g>
    </g>
    <g id="xtick_4">
     <g id="line2d_7">
      <path clip-path="url(#pf7bf19653c)" d="M 271.872 307.584 
L 271.872 41.472 
" style="fill:none;stroke:#b0b0b0;stroke-linecap:square;stroke-width:0.8;"/>
     </g>
     <g id="line2d_8">
      <g>
       <use style="stroke:#000000;stroke-width:0.8;" x="271.872" xlink:href="#m04c456163a" y="307.584"/>
      </g>
     </g>
     <g id="text_4">
      <!-- 600 -->
      <defs>
       <path d="M 33.015625 40.375 
Q 26.375 40.375 22.484375 35.828125 
Q 18.609375 31.296875 18.609375 23.390625 
Q 18.609375 15.53125 22.484375 10.953125 
Q 26.375 6.390625 33.015625 6.390625 
Q 39.65625 6.390625 43.53125 10.953125 
Q 47.40625 15.53125 47.40625 23.390625 
Q 47.40625 31.296875 43.53125 35.828125 
Q 39.65625 40.375 33.015625 40.375 
M 52.59375 71.296875 
L 52.59375 62.3125 
Q 48.875 64.0625 45.09375 64.984375 
Q 41.3125 65.921875 37.59375 65.921875 
Q 27.828125 65.921875 22.671875 59.328125 
Q 17.53125 52.734375 16.796875 39.40625 
Q 19.671875 43.65625 24.015625 45.921875 
Q 28.375 48.1875 33.59375 48.1875 
Q 44.578125 48.1875 50.953125 41.515625 
Q 57.328125 34.859375 57.328125 23.390625 
Q 57.328125 12.15625 50.6875 5.359375 
Q 44.046875 -1.421875 33.015625 -1.421875 
Q 20.359375 -1.421875 13.671875 8.265625 
Q 6.984375 17.96875 6.984375 36.375 
Q 6.984375 53.65625 15.1875 63.9375 
Q 23.390625 74.21875 37.203125 74.21875 
Q 40.921875 74.21875 44.703125 73.484375 
Q 48.484375 72.75 52.59375 71.296875 
" id="DejaVuSans-36"/>
      </defs>
      <g transform="translate(262.32825 322.182437)scale(0.1 -0.1)">
       <use xlink:href="#DejaVuSans-36"/>
       <use x="63.623047" xlink:href="#DejaVuSans-30"/>
       <use x="127.246094" xlink:href="#DejaVuSans-30"/>
      </g>
     </g>
    </g>
    <g id="xtick_5">
     <g id="line2d_9">
      <path clip-path="url(#pf7bf19653c)" d="M 343.296 307.584 
L 343.296 41.472 
" style="fill:none;stroke:#b0b0b0;stroke-linecap:square;stroke-width:0.8;"/>
     </g>
     <g id="line2d_10">
      <g>
       <use style="stroke:#000000;stroke-width:0.8;" x="343.296" xlink:href="#m04c456163a" y="307.584"/>
      </g>
     </g>
     <g id="text_5">
      <!-- 800 -->
      <defs>
       <path d="M 31.78125 34.625 
Q 24.75 34.625 20.71875 30.859375 
Q 16.703125 27.09375 16.703125 20.515625 
Q 16.703125 13.921875 20.71875 10.15625 
Q 24.75 6.390625 31.78125 6.390625 
Q 38.8125 6.390625 42.859375 10.171875 
Q 46.921875 13.96875 46.921875 20.515625 
Q 46.921875 27.09375 42.890625 30.859375 
Q 38.875 34.625 31.78125 34.625 
M 21.921875 38.8125 
Q 15.578125 40.375 12.03125 44.71875 
Q 8.5 49.078125 8.5 55.328125 
Q 8.5 64.0625 14.71875 69.140625 
Q 20.953125 74.21875 31.78125 74.21875 
Q 42.671875 74.21875 48.875 69.140625 
Q 55.078125 64.0625 55.078125 55.328125 
Q 55.078125 49.078125 51.53125 44.71875 
Q 48 40.375 41.703125 38.8125 
Q 48.828125 37.15625 52.796875 32.3125 
Q 56.78125 27.484375 56.78125 20.515625 
Q 56.78125 9.90625 50.3125 4.234375 
Q 43.84375 -1.421875 31.78125 -1.421875 
Q 19.734375 -1.421875 13.25 4.234375 
Q 6.78125 9.90625 6.78125 20.515625 
Q 6.78125 27.484375 10.78125 32.3125 
Q 14.796875 37.15625 21.921875 38.8125 
M 18.3125 54.390625 
Q 18.3125 48.734375 21.84375 45.5625 
Q 25.390625 42.390625 31.78125 42.390625 
Q 38.140625 42.390625 41.71875 45.5625 
Q 45.3125 48.734375 45.3125 54.390625 
Q 45.3125 60.0625 41.71875 63.234375 
Q 38.140625 66.40625 31.78125 66.40625 
Q 25.390625 66.40625 21.84375 63.234375 
Q 18.3125 60.0625 18.3125 54.390625 
" id="DejaVuSans-38"/>
      </defs>
      <g transform="translate(333.75225 322.182437)scale(0.1 -0.1)">
       <use xlink:href="#DejaVuSans-38"/>
       <use x="63.623047" xlink:href="#DejaVuSans-30"/>
       <use x="127.246094" xlink:href="#DejaVuSans-30"/>
      </g>
     </g>
    </g>
    <g id="xtick_6">
     <g id="line2d_11">
      <path clip-path="url(#pf7bf19653c)" d="M 414.72 307.584 
L 414.72 41.472 
" style="fill:none;stroke:#b0b0b0;stroke-linecap:square;stroke-width:0.8;"/>
     </g>
     <g id="line2d_12">
      <g>
       <use style="stroke:#000000;stroke-width:0.8;" x="414.72" xlink:href="#m04c456163a" y="307.584"/>
      </g>
     </g>
     <g id="text_6">
      <!-- 1000 -->
      <defs>
       <path d="M 12.40625 8.296875 
L 28.515625 8.296875 
L 28.515625 63.921875 
L 10.984375 60.40625 
L 10.984375 69.390625 
L 28.421875 72.90625 
L 38.28125 72.90625 
L 38.28125 8.296875 
L 54.390625 8.296875 
L 54.390625 0 
L 12.40625 0 
z
" id="DejaVuSans-31"/>
      </defs>
      <g transform="translate(401.995 322.182437)scale(0.1 -0.1)">
       <use xlink:href="#DejaVuSans-31"/>
       <use x="63.623047" xlink:href="#DejaVuSans-30"/>
       <use x="127.246094" xlink:href="#DejaVuSans-30"/>
       <use x="190.869141" xlink:href="#DejaVuSans-30"/>
      </g>
     </g>
    </g>
    <g id="text_7">
     <!-- Number of clients -->
     <defs>
      <path d="M 9.8125 72.90625 
L 23.09375 72.90625 
L 55.421875 11.921875 
L 55.421875 72.90625 
L 64.984375 72.90625 
L 64.984375 0 
L 51.703125 0 
L 19.390625 60.984375 
L 19.390625 0 
L 9.8125 0 
z
" id="DejaVuSans-4e"/>
      <path d="M 8.5 21.578125 
L 8.5 54.6875 
L 17.484375 54.6875 
L 17.484375 21.921875 
Q 17.484375 14.15625 20.5 10.265625 
Q 23.53125 6.390625 29.59375 6.390625 
Q 36.859375 6.390625 41.078125 11.03125 
Q 45.3125 15.671875 45.3125 23.6875 
L 45.3125 54.6875 
L 54.296875 54.6875 
L 54.296875 0 
L 45.3125 0 
L 45.3125 8.40625 
Q 42.046875 3.421875 37.71875 1 
Q 33.40625 -1.421875 27.6875 -1.421875 
Q 18.265625 -1.421875 13.375 4.4375 
Q 8.5 10.296875 8.5 21.578125 
M 31.109375 56 
z
" id="DejaVuSans-75"/>
      <path d="M 52 44.1875 
Q 55.375 50.25 60.0625 53.125 
Q 64.75 56 71.09375 56 
Q 79.640625 56 84.28125 50.015625 
Q 88.921875 44.046875 88.921875 33.015625 
L 88.921875 0 
L 79.890625 0 
L 79.890625 32.71875 
Q 79.890625 40.578125 77.09375 44.375 
Q 74.3125 48.1875 68.609375 48.1875 
Q 61.625 48.1875 57.5625 43.546875 
Q 53.515625 38.921875 53.515625 30.90625 
L 53.515625 0 
L 44.484375 0 
L 44.484375 32.71875 
Q 44.484375 40.625 41.703125 44.40625 
Q 38.921875 48.1875 33.109375 48.1875 
Q 26.21875 48.1875 22.15625 43.53125 
Q 18.109375 38.875 18.109375 30.90625 
L 18.109375 0 
L 9.078125 0 
L 9.078125 54.6875 
L 18.109375 54.6875 
L 18.109375 46.1875 
Q 21.1875 51.21875 25.484375 53.609375 
Q 29.78125 56 35.6875 56 
Q 41.65625 56 45.828125 52.96875 
Q 50 49.953125 52 44.1875 
" id="DejaVuSans-6d"/>
      <path d="M 48.6875 27.296875 
Q 48.6875 37.203125 44.609375 42.84375 
Q 40.53125 48.484375 33.40625 48.484375 
Q 26.265625 48.484375 22.1875 42.84375 
Q 18.109375 37.203125 18.109375 27.296875 
Q 18.109375 17.390625 22.1875 11.75 
Q 26.265625 6.109375 33.40625 6.109375 
Q 40.53125 6.109375 44.609375 11.75 
Q 48.6875 17.390625 48.6875 27.296875 
M 18.109375 46.390625 
Q 20.953125 51.265625 25.265625 53.625 
Q 29.59375 56 35.59375 56 
Q 45.5625 56 51.78125 48.09375 
Q 58.015625 40.1875 58.015625 27.296875 
Q 58.015625 14.40625 51.78125 6.484375 
Q 45.5625 -1.421875 35.59375 -1.421875 
Q 29.59375 -1.421875 25.265625 0.953125 
Q 20.953125 3.328125 18.109375 8.203125 
L 18.109375 0 
L 9.078125 0 
L 9.078125 75.984375 
L 18.109375 75.984375 
z
" id="DejaVuSans-62"/>
      <path d="M 56.203125 29.59375 
L 56.203125 25.203125 
L 14.890625 25.203125 
Q 15.484375 15.921875 20.484375 11.0625 
Q 25.484375 6.203125 34.421875 6.203125 
Q 39.59375 6.203125 44.453125 7.46875 
Q 49.3125 8.734375 54.109375 11.28125 
L 54.109375 2.78125 
Q 49.265625 0.734375 44.1875 -0.34375 
Q 39.109375 -1.421875 33.890625 -1.421875 
Q 20.796875 -1.421875 13.15625 6.1875 
Q 5.515625 13.8125 5.515625 26.8125 
Q 5.515625 40.234375 12.765625 48.109375 
Q 20.015625 56 32.328125 56 
Q 43.359375 56 49.78125 48.890625 
Q 56.203125 41.796875 56.203125 29.59375 
M 47.21875 32.234375 
Q 47.125 39.59375 43.09375 43.984375 
Q 39.0625 48.390625 32.421875 48.390625 
Q 24.90625 48.390625 20.390625 44.140625 
Q 15.875 39.890625 15.1875 32.171875 
z
" id="DejaVuSans-65"/>
      <path d="M 41.109375 46.296875 
Q 39.59375 47.171875 37.8125 47.578125 
Q 36.03125 48 33.890625 48 
Q 26.265625 48 22.1875 43.046875 
Q 18.109375 38.09375 18.109375 28.8125 
L 18.109375 0 
L 9.078125 0 
L 9.078125 54.6875 
L 18.109375 54.6875 
L 18.109375 46.1875 
Q 20.953125 51.171875 25.484375 53.578125 
Q 30.03125 56 36.53125 56 
Q 37.453125 56 38.578125 55.875 
Q 39.703125 55.765625 41.0625 55.515625 
z
" id="DejaVuSans-72"/>
      <path id="DejaVuSans-20"/>
      <path d="M 30.609375 48.390625 
Q 23.390625 48.390625 19.1875 42.75 
Q 14.984375 37.109375 14.984375 27.296875 
Q 14.984375 17.484375 19.15625 11.84375 
Q 23.34375 6.203125 30.609375 6.203125 
Q 37.796875 6.203125 41.984375 11.859375 
Q 46.1875 17.53125 46.1875 27.296875 
Q 46.1875 37.015625 41.984375 42.703125 
Q 37.796875 48.390625 30.609375 48.390625 
M 30.609375 56 
Q 42.328125 56 49.015625 48.375 
Q 55.71875 40.765625 55.71875 27.296875 
Q 55.71875 13.875 49.015625 6.21875 
Q 42.328125 -1.421875 30.609375 -1.421875 
Q 18.84375 -1.421875 12.171875 6.21875 
Q 5.515625 13.875 5.515625 27.296875 
Q 5.515625 40.765625 12.171875 48.375 
Q 18.84375 56 30.609375 56 
" id="DejaVuSans-6f"/>
      <path d="M 37.109375 75.984375 
L 37.109375 68.5 
L 28.515625 68.5 
Q 23.6875 68.5 21.796875 66.546875 
Q 19.921875 64.59375 19.921875 59.515625 
L 19.921875 54.6875 
L 34.71875 54.6875 
L 34.71875 47.703125 
L 19.921875 47.703125 
L 19.921875 0 
L 10.890625 0 
L 10.890625 47.703125 
L 2.296875 47.703125 
L 2.296875 54.6875 
L 10.890625 54.6875 
L 10.890625 58.5 
Q 10.890625 67.625 15.140625 71.796875 
Q 19.390625 75.984375 28.609375 75.984375 
z
" id="DejaVuSans-66"/>
      <path d="M 48.78125 52.59375 
L 48.78125 44.1875 
Q 44.96875 46.296875 41.140625 47.34375 
Q 37.3125 48.390625 33.40625 48.390625 
Q 24.65625 48.390625 19.8125 42.84375 
Q 14.984375 37.3125 14.984375 27.296875 
Q 14.984375 17.28125 19.8125 11.734375 
Q 24.65625 6.203125 33.40625 6.203125 
Q 37.3125 6.203125 41.140625 7.25 
Q 44.96875 8.296875 48.78125 10.40625 
L 48.78125 2.09375 
Q 45.015625 0.34375 40.984375 -0.53125 
Q 36.96875 -1.421875 32.421875 -1.421875 
Q 20.0625 -1.421875 12.78125 6.34375 
Q 5.515625 14.109375 5.515625 27.296875 
Q 5.515625 40.671875 12.859375 48.328125 
Q 20.21875 56 33.015625 56 
Q 37.15625 56 41.109375 55.140625 
Q 45.0625 54.296875 48.78125 52.59375 
" id="DejaVuSans-63"/>
      <path d="M 9.421875 75.984375 
L 18.40625 75.984375 
L 18.40625 0 
L 9.421875 0 
z
" id="DejaVuSans-6c"/>
      <path d="M 9.421875 54.6875 
L 18.40625 54.6875 
L 18.40625 0 
L 9.421875 0 
z
M 9.421875 75.984375 
L 18.40625 75.984375 
L 18.40625 64.59375 
L 9.421875 64.59375 
z
" id="DejaVuSans-69"/>
      <path d="M 54.890625 33.015625 
L 54.890625 0 
L 45.90625 0 
L 45.90625 32.71875 
Q 45.90625 40.484375 42.875 44.328125 
Q 39.84375 48.1875 33.796875 48.1875 
Q 26.515625 48.1875 22.3125 43.546875 
Q 18.109375 38.921875 18.109375 30.90625 
L 18.109375 0 
L 9.078125 0 
L 9.078125 54.6875 
L 18.109375 54.6875 
L 18.109375 46.1875 
Q 21.34375 51.125 25.703125 53.5625 
Q 30.078125 56 35.796875 56 
Q 45.21875 56 50.046875 50.171875 
Q 54.890625 44.34375 54.890625 33.015625 
" id="DejaVuSans-6e"/>
      <path d="M 18.3125 70.21875 
L 18.3125 54.6875 
L 36.8125 54.6875 
L 36.8125 47.703125 
L 18.3125 47.703125 
L 18.3125 18.015625 
Q 18.3125 11.328125 20.140625 9.421875 
Q 21.96875 7.515625 27.59375 7.515625 
L 36.8125 7.515625 
L 36.8125 0 
L 27.59375 0 
Q 17.1875 0 13.234375 3.875 
Q 9.28125 7.765625 9.28125 18.015625 
L 9.28125 47.703125 
L 2.6875 47.703125 
L 2.6875 54.6875 
L 9.28125 54.6875 
L 9.28125 70.21875 
z
" id="DejaVuSans-74"/>
      <path d="M 44.28125 53.078125 
L 44.28125 44.578125 
Q 40.484375 46.53125 36.375 47.5 
Q 32.28125 48.484375 27.875 48.484375 
Q 21.1875 48.484375 17.84375 46.4375 
Q 14.5 44.390625 14.5 40.28125 
Q 14.5 37.15625 16.890625 35.375 
Q 19.28125 33.59375 26.515625 31.984375 
L 29.59375 31.296875 
Q 39.15625 29.25 43.1875 25.515625 
Q 47.21875 21.78125 47.21875 15.09375 
Q 47.21875 7.46875 41.1875 3.015625 
Q 35.15625 -1.421875 24.609375 -1.421875 
Q 20.21875 -1.421875 15.453125 -0.5625 
Q 10.6875 0.296875 5.421875 2 
L 5.421875 11.28125 
Q 10.40625 8.6875 15.234375 7.390625 
Q 20.0625 6.109375 24.8125 6.109375 
Q 31.15625 6.109375 34.5625 8.28125 
Q 37.984375 10.453125 37.984375 14.40625 
Q 37.984375 18.0625 35.515625 20.015625 
Q 33.0625 21.96875 24.703125 23.78125 
L 21.578125 24.515625 
Q 13.234375 26.265625 9.515625 29.90625 
Q 5.8125 33.546875 5.8125 39.890625 
Q 5.8125 47.609375 11.28125 51.796875 
Q 16.75 56 26.8125 56 
Q 31.78125 56 36.171875 55.265625 
Q 40.578125 54.546875 44.28125 53.078125 
" id="DejaVuSans-73"/>
     </defs>
     <g transform="translate(191.738906 335.860562)scale(0.1 -0.1)">
      <use xlink:href="#DejaVuSans-4e"/>
      <use x="74.804688" xlink:href="#DejaVuSans-75"/>
      <use x="138.183594" xlink:href="#DejaVuSans-6d"/>
      <use x="235.595703" xlink:href="#DejaVuSans-62"/>
      <use x="299.072266" xlink:href="#DejaVuSans-65"/>
      <use x="360.595703" xlink:href="#DejaVuSans-72"/>
      <use x="401.708984" xlink:href="#DejaVuSans-20"/>
      <use x="433.496094" xlink:href="#DejaVuSans-6f"/>
      <use x="494.677734" xlink:href="#DejaVuSans-66"/>
      <use x="529.882812" xlink:href="#DejaVuSans-20"/>
      <use x="561.669922" xlink:href="#DejaVuSans-63"/>
      <use x="616.650391" xlink:href="#DejaVuSans-6c"/>
      <use x="644.433594" xlink:href="#DejaVuSans-69"/>
      <use x="672.216797" xlink:href="#DejaVuSans-65"/>
      <use x="733.740234" xlink:href="#DejaVuSans-6e"/>
      <use x="797.119141" xlink:href="#DejaVuSans-74"/>
      <use x="836.328125" xlink:href="#DejaVuSans-73"/>
     </g>
    </g>
   </g>
   <g id="matplotlib.axis_2">
    <g id="ytick_1">
     <g id="line2d_13">
      <path clip-path="url(#pf7bf19653c)" d="M 57.6 295.950504 
L 414.72 295.950504 
" style="fill:none;stroke:#b0b0b0;stroke-linecap:square;stroke-width:0.8;"/>
     </g>
     <g id="line2d_14">
      <defs>
       <path d="M 0 0 
L -3.5 0 
" id="m7a7e922db6" style="stroke:#000000;stroke-width:0.8;"/>
      </defs>
      <g>
       <use style="stroke:#000000;stroke-width:0.8;" x="57.6" xlink:href="#m7a7e922db6" y="295.950504"/>
      </g>
     </g>
     <g id="text_8">
      <!-- 0 -->
      <g transform="translate(44.2375 299.749723)scale(0.1 -0.1)">
       <use xlink:href="#DejaVuSans-30"/>
      </g>
     </g>
    </g>
    <g id="ytick_2">
     <g id="line2d_15">
      <path clip-path="url(#pf7bf19653c)" d="M 57.6 247.317015 
L 414.72 247.317015 
" style="fill:none;stroke:#b0b0b0;stroke-linecap:square;stroke-width:0.8;"/>
     </g>
     <g id="line2d_16">
      <g>
       <use style="stroke:#000000;stroke-width:0.8;" x="57.6" xlink:href="#m7a7e922db6" y="247.317015"/>
      </g>
     </g>
     <g id="text_9">
      <!-- 100 -->
      <g transform="translate(31.5125 251.116233)scale(0.1 -0.1)">
       <use xlink:href="#DejaVuSans-31"/>
       <use x="63.623047" xlink:href="#DejaVuSans-30"/>
       <use x="127.246094" xlink:href="#DejaVuSans-30"/>
      </g>
     </g>
    </g>
    <g id="ytick_3">
     <g id="line2d_17">
      <path clip-path="url(#pf7bf19653c)" d="M 57.6 198.683525 
L 414.72 198.683525 
" style="fill:none;stroke:#b0b0b0;stroke-linecap:square;stroke-width:0.8;"/>
     </g>
     <g id="line2d_18">
      <g>
       <use style="stroke:#000000;stroke-width:0.8;" x="57.6" xlink:href="#m7a7e922db6" y="198.683525"/>
      </g>
     </g>
     <g id="text_10">
      <!-- 200 -->
      <g transform="translate(31.5125 202.482744)scale(0.1 -0.1)">
       <use xlink:href="#DejaVuSans-32"/>
       <use x="63.623047" xlink:href="#DejaVuSans-30"/>
       <use x="127.246094" xlink:href="#DejaVuSans-30"/>
      </g>
     </g>
    </g>
    <g id="ytick_4">
     <g id="line2d_19">
      <path clip-path="url(#pf7bf19653c)" d="M 57.6 150.050035 
L 414.72 150.050035 
" style="fill:none;stroke:#b0b0b0;stroke-linecap:square;stroke-width:0.8;"/>
     </g>
     <g id="line2d_20">
      <g>
       <use style="stroke:#000000;stroke-width:0.8;" x="57.6" xlink:href="#m7a7e922db6" y="150.050035"/>
      </g>
     </g>
     <g id="text_11">
      <!-- 300 -->
      <defs>
       <path d="M 40.578125 39.3125 
Q 47.65625 37.796875 51.625 33 
Q 55.609375 28.21875 55.609375 21.1875 
Q 55.609375 10.40625 48.1875 4.484375 
Q 40.765625 -1.421875 27.09375 -1.421875 
Q 22.515625 -1.421875 17.65625 -0.515625 
Q 12.796875 0.390625 7.625 2.203125 
L 7.625 11.71875 
Q 11.71875 9.328125 16.59375 8.109375 
Q 21.484375 6.890625 26.8125 6.890625 
Q 36.078125 6.890625 40.9375 10.546875 
Q 45.796875 14.203125 45.796875 21.1875 
Q 45.796875 27.640625 41.28125 31.265625 
Q 36.765625 34.90625 28.71875 34.90625 
L 20.21875 34.90625 
L 20.21875 43.015625 
L 29.109375 43.015625 
Q 36.375 43.015625 40.234375 45.921875 
Q 44.09375 48.828125 44.09375 54.296875 
Q 44.09375 59.90625 40.109375 62.90625 
Q 36.140625 65.921875 28.71875 65.921875 
Q 24.65625 65.921875 20.015625 65.03125 
Q 15.375 64.15625 9.8125 62.3125 
L 9.8125 71.09375 
Q 15.4375 72.65625 20.34375 73.4375 
Q 25.25 74.21875 29.59375 74.21875 
Q 40.828125 74.21875 47.359375 69.109375 
Q 53.90625 64.015625 53.90625 55.328125 
Q 53.90625 49.265625 50.4375 45.09375 
Q 46.96875 40.921875 40.578125 39.3125 
" id="DejaVuSans-33"/>
      </defs>
      <g transform="translate(31.5125 153.849254)scale(0.1 -0.1)">
       <use xlink:href="#DejaVuSans-33"/>
       <use x="63.623047" xlink:href="#DejaVuSans-30"/>
       <use x="127.246094" xlink:href="#DejaVuSans-30"/>
      </g>
     </g>
    </g>
    <g id="ytick_5">
     <g id="line2d_21">
      <path clip-path="url(#pf7bf19653c)" d="M 57.6 101.416545 
L 414.72 101.416545 
" style="fill:none;stroke:#b0b0b0;stroke-linecap:square;stroke-width:0.8;"/>
     </g>
     <g id="line2d_22">
      <g>
       <use style="stroke:#000000;stroke-width:0.8;" x="57.6" xlink:href="#m7a7e922db6" y="101.416545"/>
      </g>
     </g>
     <g id="text_12">
      <!-- 400 -->
      <g transform="translate(31.5125 105.215764)scale(0.1 -0.1)">
       <use xlink:href="#DejaVuSans-34"/>
       <use x="63.623047" xlink:href="#DejaVuSans-30"/>
       <use x="127.246094" xlink:href="#DejaVuSans-30"/>
      </g>
     </g>
    </g>
    <g id="ytick_6">
     <g id="line2d_23">
      <path clip-path="url(#pf7bf19653c)" d="M 57.6 52.783055 
L 414.72 52.783055 
" style="fill:none;stroke:#b0b0b0;stroke-linecap:square;stroke-width:0.8;"/>
     </g>
     <g id="line2d_24">
      <g>
       <use style="stroke:#000000;stroke-width:0.8;" x="57.6" xlink:href="#m7a7e922db6" y="52.783055"/>
      </g>
     </g>
     <g id="text_13">
      <!-- 500 -->
      <defs>
       <path d="M 10.796875 72.90625 
L 49.515625 72.90625 
L 49.515625 64.59375 
L 19.828125 64.59375 
L 19.828125 46.734375 
Q 21.96875 47.46875 24.109375 47.828125 
Q 26.265625 48.1875 28.421875 48.1875 
Q 40.625 48.1875 47.75 41.5 
Q 54.890625 34.8125 54.890625 23.390625 
Q 54.890625 11.625 47.5625 5.09375 
Q 40.234375 -1.421875 26.90625 -1.421875 
Q 22.3125 -1.421875 17.546875 -0.640625 
Q 12.796875 0.140625 7.71875 1.703125 
L 7.71875 11.625 
Q 12.109375 9.234375 16.796875 8.0625 
Q 21.484375 6.890625 26.703125 6.890625 
Q 35.15625 6.890625 40.078125 11.328125 
Q 45.015625 15.765625 45.015625 23.390625 
Q 45.015625 31 40.078125 35.4375 
Q 35.15625 39.890625 26.703125 39.890625 
Q 22.75 39.890625 18.8125 39.015625 
Q 14.890625 38.140625 10.796875 36.28125 
z
" id="DejaVuSans-35"/>
      </defs>
      <g transform="translate(31.5125 56.582274)scale(0.1 -0.1)">
       <use xlink:href="#DejaVuSans-35"/>
       <use x="63.623047" xlink:href="#DejaVuSans-30"/>
       <use x="127.246094" xlink:href="#DejaVuSans-30"/>
      </g>
     </g>
    </g>
    <g id="text_14">
     <!-- Successful download requests per second -->
     <defs>
      <path d="M 53.515625 70.515625 
L 53.515625 60.890625 
Q 47.90625 63.578125 42.921875 64.890625 
Q 37.9375 66.21875 33.296875 66.21875 
Q 25.25 66.21875 20.875 63.09375 
Q 16.5 59.96875 16.5 54.203125 
Q 16.5 49.359375 19.40625 46.890625 
Q 22.3125 44.4375 30.421875 42.921875 
L 36.375 41.703125 
Q 47.40625 39.59375 52.65625 34.296875 
Q 57.90625 29 57.90625 20.125 
Q 57.90625 9.515625 50.796875 4.046875 
Q 43.703125 -1.421875 29.984375 -1.421875 
Q 24.8125 -1.421875 18.96875 -0.25 
Q 13.140625 0.921875 6.890625 3.21875 
L 6.890625 13.375 
Q 12.890625 10.015625 18.65625 8.296875 
Q 24.421875 6.59375 29.984375 6.59375 
Q 38.421875 6.59375 43.015625 9.90625 
Q 47.609375 13.234375 47.609375 19.390625 
Q 47.609375 24.75 44.3125 27.78125 
Q 41.015625 30.8125 33.5 32.328125 
L 27.484375 33.5 
Q 16.453125 35.6875 11.515625 40.375 
Q 6.59375 45.0625 6.59375 53.421875 
Q 6.59375 63.09375 13.40625 68.65625 
Q 20.21875 74.21875 32.171875 74.21875 
Q 37.3125 74.21875 42.625 73.28125 
Q 47.953125 72.359375 53.515625 70.515625 
" id="DejaVuSans-53"/>
      <path d="M 45.40625 46.390625 
L 45.40625 75.984375 
L 54.390625 75.984375 
L 54.390625 0 
L 45.40625 0 
L 45.40625 8.203125 
Q 42.578125 3.328125 38.25 0.953125 
Q 33.9375 -1.421875 27.875 -1.421875 
Q 17.96875 -1.421875 11.734375 6.484375 
Q 5.515625 14.40625 5.515625 27.296875 
Q 5.515625 40.1875 11.734375 48.09375 
Q 17.96875 56 27.875 56 
Q 33.9375 56 38.25 53.625 
Q 42.578125 51.265625 45.40625 46.390625 
M 14.796875 27.296875 
Q 14.796875 17.390625 18.875 11.75 
Q 22.953125 6.109375 30.078125 6.109375 
Q 37.203125 6.109375 41.296875 11.75 
Q 45.40625 17.390625 45.40625 27.296875 
Q 45.40625 37.203125 41.296875 42.84375 
Q 37.203125 48.484375 30.078125 48.484375 
Q 22.953125 48.484375 18.875 42.84375 
Q 14.796875 37.203125 14.796875 27.296875 
" id="DejaVuSans-64"/>
      <path d="M 4.203125 54.6875 
L 13.1875 54.6875 
L 24.421875 12.015625 
L 35.59375 54.6875 
L 46.1875 54.6875 
L 57.421875 12.015625 
L 68.609375 54.6875 
L 77.59375 54.6875 
L 63.28125 0 
L 52.6875 0 
L 40.921875 44.828125 
L 29.109375 0 
L 18.5 0 
z
" id="DejaVuSans-77"/>
      <path d="M 34.28125 27.484375 
Q 23.390625 27.484375 19.1875 25 
Q 14.984375 22.515625 14.984375 16.5 
Q 14.984375 11.71875 18.140625 8.90625 
Q 21.296875 6.109375 26.703125 6.109375 
Q 34.1875 6.109375 38.703125 11.40625 
Q 43.21875 16.703125 43.21875 25.484375 
L 43.21875 27.484375 
z
M 52.203125 31.203125 
L 52.203125 0 
L 43.21875 0 
L 43.21875 8.296875 
Q 40.140625 3.328125 35.546875 0.953125 
Q 30.953125 -1.421875 24.3125 -1.421875 
Q 15.921875 -1.421875 10.953125 3.296875 
Q 6 8.015625 6 15.921875 
Q 6 25.140625 12.171875 29.828125 
Q 18.359375 34.515625 30.609375 34.515625 
L 43.21875 34.515625 
L 43.21875 35.40625 
Q 43.21875 41.609375 39.140625 45 
Q 35.0625 48.390625 27.6875 48.390625 
Q 23 48.390625 18.546875 47.265625 
Q 14.109375 46.140625 10.015625 43.890625 
L 10.015625 52.203125 
Q 14.9375 54.109375 19.578125 55.046875 
Q 24.21875 56 28.609375 56 
Q 40.484375 56 46.34375 49.84375 
Q 52.203125 43.703125 52.203125 31.203125 
" id="DejaVuSans-61"/>
      <path d="M 14.796875 27.296875 
Q 14.796875 17.390625 18.875 11.75 
Q 22.953125 6.109375 30.078125 6.109375 
Q 37.203125 6.109375 41.296875 11.75 
Q 45.40625 17.390625 45.40625 27.296875 
Q 45.40625 37.203125 41.296875 42.84375 
Q 37.203125 48.484375 30.078125 48.484375 
Q 22.953125 48.484375 18.875 42.84375 
Q 14.796875 37.203125 14.796875 27.296875 
M 45.40625 8.203125 
Q 42.578125 3.328125 38.25 0.953125 
Q 33.9375 -1.421875 27.875 -1.421875 
Q 17.96875 -1.421875 11.734375 6.484375 
Q 5.515625 14.40625 5.515625 27.296875 
Q 5.515625 40.1875 11.734375 48.09375 
Q 17.96875 56 27.875 56 
Q 33.9375 56 38.25 53.625 
Q 42.578125 51.265625 45.40625 46.390625 
L 45.40625 54.6875 
L 54.390625 54.6875 
L 54.390625 -20.796875 
L 45.40625 -20.796875 
z
" id="DejaVuSans-71"/>
      <path d="M 18.109375 8.203125 
L 18.109375 -20.796875 
L 9.078125 -20.796875 
L 9.078125 54.6875 
L 18.109375 54.6875 
L 18.109375 46.390625 
Q 20.953125 51.265625 25.265625 53.625 
Q 29.59375 56 35.59375 56 
Q 45.5625 56 51.78125 48.09375 
Q 58.015625 40.1875 58.015625 27.296875 
Q 58.015625 14.40625 51.78125 6.484375 
Q 45.5625 -1.421875 35.59375 -1.421875 
Q 29.59375 -1.421875 25.265625 0.953125 
Q 20.953125 3.328125 18.109375 8.203125 
M 48.6875 27.296875 
Q 48.6875 37.203125 44.609375 42.84375 
Q 40.53125 48.484375 33.40625 48.484375 
Q 26.265625 48.484375 22.1875 42.84375 
Q 18.109375 37.203125 18.109375 27.296875 
Q 18.109375 17.390625 22.1875 11.75 
Q 26.265625 6.109375 33.40625 6.109375 
Q 40.53125 6.109375 44.609375 11.75 
Q 48.6875 17.390625 48.6875 27.296875 
" id="DejaVuSans-70"/>
     </defs>
     <g transform="translate(25.432812 279.366281)rotate(-90)scale(0.1 -0.1)">
      <use xlink:href="#DejaVuSans-53"/>
      <use x="63.476562" xlink:href="#DejaVuSans-75"/>
      <use x="126.855469" xlink:href="#DejaVuSans-63"/>
      <use x="181.835938" xlink:href="#DejaVuSans-63"/>
      <use x="236.816406" xlink:href="#DejaVuSans-65"/>
      <use x="298.339844" xlink:href="#DejaVuSans-73"/>
      <use x="350.439453" xlink:href="#DejaVuSans-73"/>
      <use x="402.539062" xlink:href="#DejaVuSans-66"/>
      <use x="437.744141" xlink:href="#DejaVuSans-75"/>
      <use x="501.123047" xlink:href="#DejaVuSans-6c"/>
      <use x="528.90625" xlink:href="#DejaVuSans-20"/>
      <use x="560.693359" xlink:href="#DejaVuSans-64"/>
      <use x="624.169922" xlink:href="#DejaVuSans-6f"/>
      <use x="685.351562" xlink:href="#DejaVuSans-77"/>
      <use x="767.138672" xlink:href="#DejaVuSans-6e"/>
      <use x="830.517578" xlink:href="#DejaVuSans-6c"/>
      <use x="858.300781" xlink:href="#DejaVuSans-6f"/>
      <use x="919.482422" xlink:href="#DejaVuSans-61"/>
      <use x="980.761719" xlink:href="#DejaVuSans-64"/>
      <use x="1044.238281" xlink:href="#DejaVuSans-20"/>
      <use x="1076.025391" xlink:href="#DejaVuSans-72"/>
      <use x="1117.107422" xlink:href="#DejaVuSans-65"/>
      <use x="1178.630859" xlink:href="#DejaVuSans-71"/>
      <use x="1242.107422" xlink:href="#DejaVuSans-75"/>
      <use x="1305.486328" xlink:href="#DejaVuSans-65"/>
      <use x="1367.009766" xlink:href="#DejaVuSans-73"/>
      <use x="1419.109375" xlink:href="#DejaVuSans-74"/>
      <use x="1458.318359" xlink:href="#DejaVuSans-73"/>
      <use x="1510.417969" xlink:href="#DejaVuSans-20"/>
      <use x="1542.205078" xlink:href="#DejaVuSans-70"/>
      <use x="1605.681641" xlink:href="#DejaVuSans-65"/>
      <use x="1667.205078" xlink:href="#DejaVuSans-72"/>
      <use x="1708.318359" xlink:href="#DejaVuSans-20"/>
      <use x="1740.105469" xlink:href="#DejaVuSans-73"/>
      <use x="1792.205078" xlink:href="#DejaVuSans-65"/>
      <use x="1853.728516" xlink:href="#DejaVuSans-63"/>
      <use x="1908.708984" xlink:href="#DejaVuSans-6f"/>
      <use x="1969.890625" xlink:href="#DejaVuSans-6e"/>
      <use x="2033.269531" xlink:href="#DejaVuSans-64"/>
     </g>
    </g>
   </g>
   <g id="line2d_25">
    <path clip-path="url(#pf7bf19653c)" d="M 57.6 295.469033 
L 57.95712 295.488 
L 59.3856 293.641873 
L 62.59968 289.411245 
L 62.9568 288.668126 
L 63.31392 288.469215 
L 64.38528 286.91732 
L 64.7424 286.739808 
L 65.09952 285.889208 
L 65.45664 285.601784 
L 65.81376 284.844074 
L 66.17088 285.089187 
L 66.528 283.807695 
L 66.88512 284.105818 
L 67.24224 282.931806 
L 67.59936 282.440121 
L 67.95648 282.457143 
L 68.67072 281.862841 
L 69.02784 280.666458 
L 69.38496 280.067779 
L 69.74208 280.381465 
L 70.45632 278.95699 
L 70.81344 278.681725 
L 71.17056 278.221166 
L 71.52768 277.434762 
L 71.8848 277.301993 
L 72.24192 276.334673 
L 72.95616 276.468415 
L 73.31328 274.694265 
L 73.6704 274.28623 
L 74.02752 274.784723 
L 74.38464 274.056194 
L 74.74176 273.019814 
L 75.09888 273.419581 
L 75.456 271.927992 
L 75.81312 272.118149 
L 76.17024 271.253932 
L 76.88448 270.70486 
L 77.2416 269.213271 
L 77.59872 269.316374 
L 77.95584 269.552733 
L 78.67008 267.674507 
L 79.0272 266.852115 
L 79.38432 267.46587 
L 79.74144 267.63171 
L 80.09856 267.213948 
L 80.8128 264.444757 
L 81.16992 265.337668 
L 81.52704 263.366066 
L 81.88416 263.500295 
L 82.5984 262.455161 
L 82.95552 262.230474 
L 83.31264 263.154997 
L 83.66976 261.3327 
L 84.02688 261.763106 
L 84.384 259.9554 
L 84.74112 261.170264 
L 85.09824 260.379484 
L 85.45536 259.229788 
L 85.81248 258.621869 
L 86.1696 258.334445 
L 86.52672 259.202067 
L 86.88384 256.48151 
L 87.24096 256.760179 
L 87.59808 256.019005 
L 87.9552 257.259645 
L 88.31232 256.028732 
L 88.66944 256.183386 
L 89.02656 253.197776 
L 89.38368 252.754725 
L 89.7408 255.182995 
L 90.09792 254.32121 
L 90.45504 252.560678 
L 90.81216 252.855397 
L 91.16928 250.622147 
L 91.5264 251.029209 
L 91.88352 249.971431 
L 92.24064 249.99137 
L 92.59776 248.373334 
L 92.95488 249.727777 
L 93.312 248.477896 
L 93.66912 247.752284 
L 94.02624 247.796055 
L 94.38336 247.4848 
L 95.0976 247.591308 
L 95.45472 244.701992 
L 95.81184 246.863264 
L 96.16896 243.80519 
L 96.52608 244.828925 
L 96.8832 245.030268 
L 97.24032 242.103505 
L 97.59744 241.58799 
L 97.95456 244.441316 
L 98.31168 240.593921 
L 98.6688 241.893408 
L 99.02592 240.969372 
L 99.38304 239.507449 
L 99.74016 239.880468 
L 100.09728 238.546451 
L 100.4544 240.012751 
L 100.81152 237.689043 
L 101.16864 239.695174 
L 101.52576 236.81364 
L 101.88288 237.561623 
L 102.24 239.337718 
L 102.95424 235.145998 
L 103.31136 237.647704 
L 103.66848 237.51688 
L 104.0256 235.192199 
L 104.38272 234.733586 
L 105.09696 231.422131 
L 105.45408 234.061471 
L 105.8112 232.335954 
L 106.16832 233.378657 
L 106.52544 232.932687 
L 106.88256 231.70226 
L 107.23968 228.633973 
L 107.5968 230.985402 
L 107.95392 229.643118 
L 108.31104 231.720255 
L 108.66816 226.925479 
L 109.02528 229.187909 
L 109.3824 226.07877 
L 109.73952 227.768783 
L 110.09664 226.57629 
L 110.45376 224.209785 
L 111.168 226.763529 
L 111.52512 227.1098 
L 111.88224 224.66159 
L 112.23936 226.426985 
L 112.59648 222.271254 
L 112.9536 221.919634 
L 113.31072 220.3371 
L 113.66784 222.300434 
L 114.02496 219.147038 
L 114.38208 223.689893 
L 114.7392 222.472596 
L 115.09632 219.541456 
L 115.45344 217.583472 
L 115.81056 222.199276 
L 116.16768 217.861169 
L 116.5248 218.957368 
L 116.88192 216.63755 
L 117.23904 216.165319 
L 117.59616 218.976335 
L 117.95328 219.133421 
L 118.3104 214.054626 
L 118.66752 213.165605 
L 119.02464 213.635891 
L 119.38176 216.119604 
L 120.096 212.331055 
L 120.45312 213.97438 
L 120.81024 211.225129 
L 121.16736 211.521794 
L 121.52448 209.170851 
L 121.8816 211.61517 
L 122.23872 210.068139 
L 122.95296 208.857651 
L 123.31008 206.947327 
L 123.6672 207.521689 
L 124.02432 210.526266 
L 124.38144 208.691811 
L 124.73856 207.489105 
L 125.09568 205.506804 
L 125.4528 208.456425 
L 125.80992 204.43249 
L 126.16704 204.234551 
L 126.52416 202.258573 
L 126.88128 204.771465 
L 127.2384 203.903357 
L 127.59552 206.747444 
L 128.30976 201.044681 
L 128.66688 204.718455 
L 129.024 200.528679 
L 129.38112 203.192336 
L 129.73824 201.438126 
L 130.09536 197.915602 
L 130.45248 197.119958 
L 130.8096 197.982716 
L 131.16672 200.071525 
L 131.52384 196.364194 
L 131.88096 196.874845 
L 132.23808 199.756866 
L 132.5952 199.717959 
L 132.95232 196.681284 
L 133.30944 195.712505 
L 133.66656 199.373148 
L 134.02368 192.035327 
L 134.3808 194.96744 
L 134.73792 194.475755 
L 135.09504 192.713278 
L 135.45216 193.232197 
L 135.80928 192.485187 
L 136.1664 196.334041 
L 136.52352 193.661631 
L 136.88064 194.642568 
L 137.23776 190.473705 
L 137.59488 194.095928 
L 138.30912 186.800418 
L 138.66624 193.195236 
L 139.02336 190.786905 
L 139.38048 191.946814 
L 139.7376 190.607934 
L 140.09472 190.928429 
L 140.45184 188.625633 
L 140.80896 184.791855 
L 141.16608 185.231015 
L 141.5232 181.989593 
L 141.88032 186.75908 
L 142.23744 187.409796 
L 142.59456 181.402101 
L 142.95168 182.189963 
L 143.3088 180.382256 
L 143.66592 186.390438 
L 144.02304 180.729013 
L 144.38016 185.563668 
L 144.73728 177.700119 
L 145.0944 185.080738 
L 145.45152 182.316897 
L 145.80864 182.392765 
L 146.16576 178.94465 
L 146.52288 180.117204 
L 146.88 176.971103 
L 147.23712 175.367171 
L 147.59424 179.596825 
L 147.95136 179.556946 
L 148.30848 174.74758 
L 148.6656 179.687284 
L 149.02272 174.559855 
L 149.37984 175.109413 
L 149.73696 172.012919 
L 150.09408 178.128094 
L 150.4512 170.194027 
L 150.80832 174.197049 
L 151.16544 171.545551 
L 151.52256 174.08811 
L 151.87968 173.453929 
L 152.2368 168.009897 
L 152.59392 172.199672 
L 152.95104 174.824907 
L 153.30816 173.74184 
L 153.66528 170.43768 
L 154.0224 165.476578 
L 154.37952 171.764888 
L 154.73664 168.019623 
L 155.09376 169.97469 
L 155.45088 167.181668 
L 155.808 165.999874 
L 156.16512 169.990739 
L 156.52224 168.685416 
L 156.87936 162.216189 
L 157.23648 166.522198 
L 157.5936 166.925856 
L 158.30784 159.658554 
L 158.66496 161.256164 
L 159.02208 164.318615 
L 159.3792 159.576849 
L 159.73632 157.501172 
L 160.09344 160.114249 
L 160.45056 157.180191 
L 160.80768 162.512853 
L 161.1648 155.97943 
L 161.52192 163.897935 
L 161.87904 162.578995 
L 162.23616 156.426858 
L 162.59328 162.516258 
L 162.9504 161.228929 
L 163.66464 152.783237 
L 164.02176 155.121049 
L 164.37888 152.053249 
L 164.736 152.909684 
L 165.09312 158.169883 
L 165.45024 150.888963 
L 165.80736 159.292343 
L 166.16448 157.366457 
L 166.87872 157.075629 
L 167.23584 151.942364 
L 167.59296 156.993925 
L 167.95008 153.348358 
L 168.3072 153.578881 
L 168.66432 148.134848 
L 169.02144 148.952864 
L 169.37856 155.769333 
L 169.73568 154.090992 
L 170.0928 146.877673 
L 170.44992 150.1901 
L 170.80704 154.758243 
L 171.16416 148.692188 
L 171.52128 150.103532 
L 171.8784 148.997606 
L 172.23552 156.056271 
L 172.59264 154.778183 
L 172.94976 152.019691 
L 173.30688 152.499218 
L 173.664 146.398633 
L 174.02112 145.994002 
L 174.37824 154.353613 
L 174.73536 145.45028 
L 175.09248 147.364494 
L 175.4496 148.305065 
L 175.80672 145.974062 
L 176.87808 153.526357 
L 177.2352 144.339977 
L 177.59232 146.224038 
L 177.94944 149.3395 
L 178.30656 150.342809 
L 178.66368 152.600375 
L 179.37792 147.082906 
L 179.73504 148.957727 
L 180.09216 151.531898 
L 180.44928 146.420518 
L 180.8064 145.685666 
L 181.16352 151.150611 
L 181.87776 143.824948 
L 182.592 149.115299 
L 182.94912 143.63236 
L 183.30624 147.025518 
L 183.66336 147.89314 
L 184.02048 142.588685 
L 184.3776 140.472642 
L 184.73472 143.034168 
L 185.09184 144.389583 
L 185.44896 138.968894 
L 185.80608 147.046917 
L 186.1632 140.720673 
L 186.52032 143.945559 
L 186.87744 145.18085 
L 187.23456 139.009747 
L 187.59168 138.89789 
L 187.9488 140.267895 
L 188.30592 138.865791 
L 188.66304 138.376052 
L 189.02016 140.613193 
L 189.37728 137.552687 
L 189.7344 140.703165 
L 190.09152 145.208085 
L 190.44864 142.435976 
L 190.80576 146.179296 
L 191.16288 137.853729 
L 191.52 137.443262 
L 191.87712 140.609302 
L 192.23424 145.116654 
L 192.59136 139.15127 
L 192.94848 145.287357 
L 193.3056 135.569413 
L 193.66272 136.088333 
L 194.01984 134.018978 
L 194.37696 139.736817 
L 194.73408 134.320505 
L 195.44832 143.26615 
L 195.80544 140.957031 
L 196.16256 134.044267 
L 196.51968 137.67573 
L 196.8768 132.373221 
L 197.23392 142.382479 
L 197.59104 142.88924 
L 197.94816 135.839816 
L 198.30528 142.226366 
L 199.01952 132.283735 
L 199.37664 142.444244 
L 199.73376 137.498704 
L 200.09088 134.557837 
L 200.448 138.334227 
L 200.80512 132.662103 
L 201.16224 133.599757 
L 201.51936 139.692561 
L 201.87648 139.349208 
L 202.2336 140.497445 
L 202.59072 130.938046 
L 202.94784 131.1817 
L 203.30496 132.478755 
L 203.66208 140.006247 
L 204.0192 139.547633 
L 204.37632 139.991657 
L 204.73344 129.446457 
L 205.44768 138.861901 
L 205.8048 127.801186 
L 206.16192 139.180936 
L 206.51904 128.818599 
L 206.87616 134.174605 
L 207.23328 135.189586 
L 207.5904 134.454734 
L 207.94752 134.891949 
L 208.30464 137.585758 
L 208.66176 136.365544 
L 209.01888 132.872686 
L 209.376 136.300375 
L 209.73312 132.801682 
L 210.09024 134.555405 
L 210.44736 125.438085 
L 210.80448 133.535075 
L 211.1616 135.607834 
L 211.51872 129.07587 
L 211.87584 130.082583 
L 212.23296 126.268745 
L 212.59008 135.899635 
L 212.9472 131.796427 
L 213.30432 134.750426 
L 213.66144 134.457652 
L 214.01856 128.03949 
L 214.7328 135.428376 
L 215.08992 126.913625 
L 215.44704 133.466501 
L 215.80416 128.25445 
L 216.16128 125.240147 
L 216.5184 127.028886 
L 216.87552 130.559191 
L 217.23264 124.340913 
L 217.58976 125.697301 
L 217.94688 132.431581 
L 218.304 130.188118 
L 218.66112 130.480891 
L 219.01824 131.410277 
L 219.37536 127.044449 
L 219.73248 131.022669 
L 220.0896 123.020514 
L 220.44672 123.408609 
L 220.80384 123.626001 
L 221.16096 123.697006 
L 221.51808 127.669389 
L 221.8752 125.392856 
L 222.23232 127.020619 
L 222.58944 125.480396 
L 222.94656 119.664803 
L 223.30368 130.478946 
L 223.6608 124.831139 
L 224.01792 122.183045 
L 224.37504 121.948146 
L 224.73216 129.592358 
L 225.08928 130.433231 
L 225.4464 123.083251 
L 225.80352 125.836393 
L 226.16064 125.432249 
L 226.51776 120.801368 
L 226.87488 119.930829 
L 227.232 125.128776 
L 227.58912 126.361635 
L 227.94624 121.491964 
L 228.30336 121.722973 
L 228.66048 118.044335 
L 229.0176 128.497131 
L 229.37472 122.998629 
L 229.73184 126.928215 
L 230.08896 119.054939 
L 230.44608 117.172823 
L 230.8032 117.845911 
L 231.51744 124.902144 
L 231.87456 117.49964 
L 232.23168 118.518998 
L 232.5888 126.994843 
L 232.94592 124.73144 
L 233.30304 123.52922 
L 233.66016 125.878704 
L 234.01728 120.625315 
L 234.3744 126.918002 
L 235.08864 125.848552 
L 235.44576 118.182941 
L 235.80288 115.848533 
L 236.16 122.294416 
L 236.51712 122.196663 
L 236.87424 117.508394 
L 237.23136 117.535143 
L 237.58848 122.814794 
L 237.9456 113.847265 
L 238.30272 123.22672 
L 238.65984 123.87695 
L 239.01696 121.032377 
L 239.37408 113.514126 
L 239.7312 115.626765 
L 240.44544 114.769843 
L 240.80256 122.892608 
L 241.15968 112.12953 
L 241.87392 115.835402 
L 242.23104 114.002892 
L 242.58816 116.366966 
L 243.3024 111.423372 
L 243.65952 121.523089 
L 244.01664 115.710901 
L 244.37376 115.016901 
L 244.73088 112.902317 
L 245.088 113.365794 
L 245.44512 118.383797 
L 245.80224 117.430581 
L 246.15936 118.932383 
L 246.51648 117.874118 
L 246.8736 119.562673 
L 247.23072 119.669667 
L 247.58784 117.981598 
L 247.94496 119.321451 
L 248.30208 117.932965 
L 248.6592 108.474237 
L 249.01632 116.399551 
L 249.37344 112.295371 
L 249.73056 118.30112 
L 250.08768 117.77831 
L 250.4448 109.8671 
L 250.80192 107.594457 
L 251.15904 110.564991 
L 251.51616 107.139734 
L 251.87328 110.088869 
L 252.2304 107.426672 
L 252.58752 116.531834 
L 252.94464 116.432135 
L 253.30176 116.186536 
L 253.65888 118.01321 
L 254.016 113.048703 
L 254.37312 112.175732 
L 255.08736 105.761948 
L 255.44448 111.991411 
L 255.8016 113.692124 
L 256.15872 106.43309 
L 256.51584 107.411109 
L 256.87296 111.04014 
L 257.23008 116.602839 
L 257.5872 111.335346 
L 257.94432 113.863801 
L 258.30144 107.687347 
L 258.65856 111.493404 
L 259.01568 117.24091 
L 259.3728 109.561682 
L 259.72992 113.809331 
L 260.08704 105.739576 
L 260.44416 114.386124 
L 261.1584 107.095478 
L 261.51552 111.872746 
L 261.87264 111.127681 
L 262.22976 112.885295 
L 262.58688 112.939278 
L 262.944 109.660894 
L 263.30112 104.73724 
L 263.65824 103.429972 
L 264.01536 104.143911 
L 264.37248 113.489323 
L 264.7296 104.43474 
L 265.08672 108.608952 
L 265.44384 114.873918 
L 265.80096 113.17515 
L 266.15808 103.454289 
L 266.5152 102.987407 
L 266.87232 105.893744 
L 267.22944 112.659149 
L 267.58656 106.440385 
L 267.94368 108.138666 
L 268.3008 105.826144 
L 268.65792 110.062607 
L 269.01504 108.846284 
L 269.37216 111.279903 
L 269.72928 112.439326 
L 270.0864 103.291366 
L 270.44352 109.895308 
L 270.80064 104.422095 
L 271.15776 109.397787 
L 271.51488 112.450998 
L 271.872 101.326573 
L 272.22912 104.323369 
L 272.58624 111.566355 
L 272.94336 106.211321 
L 273.30048 106.452543 
L 273.6576 98.304488 
L 274.01472 102.129026 
L 274.37184 102.299243 
L 274.72896 111.390301 
L 275.08608 101.586276 
L 275.4432 99.284939 
L 275.80032 110.47891 
L 276.15744 100.863582 
L 276.87168 108.772361 
L 277.2288 105.842193 
L 277.58592 107.944132 
L 277.94304 107.215603 
L 278.30016 101.275994 
L 278.65728 105.155002 
L 279.0144 100.157911 
L 279.37152 101.214716 
L 279.72864 108.310342 
L 280.08576 99.311688 
L 280.44288 100.300893 
L 280.8 108.028755 
L 281.15712 105.261995 
L 281.51424 99.793646 
L 281.87136 106.103355 
L 282.5856 98.498536 
L 282.94272 97.282212 
L 283.29984 100.195845 
L 283.65696 101.251191 
L 284.01408 94.726036 
L 284.3712 107.562846 
L 284.72832 106.858633 
L 285.08544 99.589385 
L 285.44256 95.807645 
L 285.79968 97.546292 
L 286.1568 98.06813 
L 286.51392 105.130199 
L 286.87104 107.191286 
L 287.22816 106.016787 
L 287.58528 99.184754 
L 287.9424 100.137971 
L 288.29952 94.446394 
L 288.65664 102.3328 
L 289.01376 104.658454 
L 289.37088 98.845779 
L 289.728 104.297107 
L 290.08512 104.730431 
L 290.44224 102.393106 
L 290.79936 94.635578 
L 291.15648 103.21793 
L 291.5136 97.512249 
L 291.87072 103.042849 
L 292.22784 91.841584 
L 292.58496 94.235811 
L 292.94208 101.239519 
L 293.2992 102.336205 
L 294.01344 92.846838 
L 294.37056 100.515853 
L 294.72768 101.270645 
L 295.0848 90.50319 
L 295.44192 104.413341 
L 295.79904 99.057821 
L 296.15616 90.08786 
L 296.51328 102.999079 
L 296.8704 92.446098 
L 297.22752 101.471501 
L 297.58464 94.811145 
L 297.94176 103.097319 
L 298.29888 96.995275 
L 298.656 94.436667 
L 299.01312 89.366626 
L 299.72736 99.712428 
L 300.08448 97.41255 
L 300.4416 92.60902 
L 300.79872 93.953736 
L 301.15584 98.429963 
L 301.51296 88.404655 
L 301.87008 98.611366 
L 302.2272 101.204017 
L 302.58432 99.947328 
L 302.94144 90.702101 
L 303.29856 95.048476 
L 303.65568 97.821558 
L 304.0128 93.591417 
L 304.72704 88.79275 
L 305.08416 93.811726 
L 305.44128 94.174532 
L 305.7984 86.599866 
L 306.15552 97.147498 
L 306.51264 100.333964 
L 306.86976 93.441626 
L 307.584 96.629065 
L 307.94112 97.571095 
L 308.29824 92.060921 
L 308.65536 90.790128 
L 309.01248 92.645495 
L 309.3696 90.149625 
L 309.72672 95.137962 
L 310.79808 84.768329 
L 311.1552 99.240197 
L 311.51232 90.312547 
L 311.86944 90.162756 
L 312.22656 85.950123 
L 312.58368 97.698029 
L 312.9408 86.032313 
L 313.29792 97.690247 
L 313.65504 95.985157 
L 314.01216 96.7915 
L 314.36928 89.593744 
L 314.7264 90.63596 
L 315.79776 96.172882 
L 316.15488 89.149234 
L 316.512 97.019105 
L 316.86912 91.526925 
L 317.22624 94.998384 
L 317.94048 86.897503 
L 318.2976 88.45572 
L 318.65472 93.327337 
L 319.01184 95.08641 
L 319.36896 83.498022 
L 319.72608 96.060053 
L 320.0832 94.460984 
L 320.44032 82.838552 
L 320.79744 94.264504 
L 321.15456 90.947214 
L 321.51168 91.268681 
L 321.8688 94.376848 
L 322.22592 94.083588 
L 322.58304 82.01616 
L 322.94016 82.364376 
L 323.29728 86.063925 
L 323.6544 95.264895 
L 324.01152 83.186768 
L 324.36864 93.983889 
L 324.72576 82.331305 
L 325.08288 91.97484 
L 325.44 88.561741 
L 325.79712 87.477701 
L 326.15424 93.275299 
L 326.51136 91.268195 
L 326.86848 81.807522 
L 327.2256 80.91607 
L 327.58272 85.903435 
L 327.93984 87.308943 
L 328.29696 93.248064 
L 328.65408 86.412141 
L 329.0112 89.754234 
L 329.36832 88.439185 
L 329.72544 92.274422 
L 330.08256 90.074729 
L 330.43968 83.020928 
L 330.7968 80.31107 
L 331.15392 85.586831 
L 331.51104 78.290835 
L 331.86816 81.247264 
L 332.22528 82.29483 
L 332.5824 81.6446 
L 332.93952 79.676889 
L 333.29664 85.246883 
L 333.65376 83.616688 
L 334.01088 89.072393 
L 334.368 85.554733 
L 334.72512 78.133262 
L 335.08224 89.572345 
L 335.43936 87.633814 
L 335.79648 80.509494 
L 336.1536 90.306711 
L 336.51072 83.300084 
L 336.86784 82.895453 
L 337.22496 82.213612 
L 337.58208 89.287839 
L 338.29632 86.925224 
L 338.65344 78.938633 
L 339.01056 83.507749 
L 339.36768 90.355344 
L 339.7248 84.292207 
L 340.08192 87.649377 
L 340.43904 84.351054 
L 340.79616 88.301066 
L 341.15328 85.186091 
L 341.5104 79.803336 
L 341.86752 89.623897 
L 342.22464 86.318765 
L 342.58176 81.83038 
L 342.93888 87.066748 
L 343.296 85.575645 
L 343.65312 74.981812 
L 344.01024 80.161279 
L 344.36736 77.605589 
L 344.72448 78.865196 
L 345.0816 75.761407 
L 345.43872 84.727477 
L 345.79584 82.372643 
L 346.15296 86.511353 
L 346.51008 79.578649 
L 346.8672 83.798577 
L 347.22432 75.528452 
L 347.58144 81.81579 
L 347.93856 83.038436 
L 348.29568 86.893613 
L 348.6528 78.32731 
L 349.00992 87.153802 
L 349.36704 80.540133 
L 349.72416 80.400555 
L 350.08128 83.51164 
L 350.4384 83.735354 
L 350.79552 76.116918 
L 351.15264 86.857137 
L 351.50976 78.03794 
L 351.86688 73.239274 
L 352.58112 81.053703 
L 352.93824 76.754016 
L 353.29536 85.85626 
L 353.65248 78.525734 
L 354.0096 73.903607 
L 354.36672 71.251623 
L 354.72384 83.940587 
L 355.08096 71.805559 
L 355.43808 80.031427 
L 355.7952 77.710151 
L 356.15232 73.186263 
L 356.50944 79.952155 
L 356.86656 72.271468 
L 357.22368 75.127712 
L 357.5808 83.285494 
L 357.93792 84.547047 
L 358.29504 75.34559 
L 358.65216 81.021605 
L 359.00928 83.556382 
L 359.3664 71.288585 
L 359.72352 83.192118 
L 360.08064 74.032486 
L 360.43776 80.932606 
L 360.79488 71.700024 
L 361.152 74.971599 
L 361.50912 72.569104 
L 361.86624 72.334691 
L 362.22336 82.907612 
L 362.58048 68.527661 
L 362.9376 71.950486 
L 363.29472 79.325269 
L 363.65184 78.582635 
L 364.00896 73.198908 
L 364.36608 72.244719 
L 364.7232 69.191509 
L 365.08032 77.272936 
L 365.43744 69.23382 
L 365.79456 77.130439 
L 366.15168 71.346945 
L 366.5088 71.545856 
L 367.22304 80.269731 
L 367.58016 79.413295 
L 367.93728 72.99027 
L 368.2944 81.769102 
L 368.65152 68.741162 
L 369.00864 68.490214 
L 369.36576 79.712878 
L 369.72288 76.065366 
L 370.08 67.96254 
L 370.43712 73.956618 
L 370.79424 77.53507 
L 371.15136 76.561428 
L 371.50848 68.477083 
L 371.8656 80.934065 
L 372.22272 66.714605 
L 372.57984 76.690306 
L 372.93696 77.965476 
L 373.6512 67.62162 
L 374.00832 72.315724 
L 374.36544 66.552655 
L 374.72256 69.271268 
L 375.4368 67.48885 
L 375.79392 65.094137 
L 376.15104 65.590199 
L 376.50816 74.83737 
L 376.86528 68.586508 
L 377.57952 75.546447 
L 377.93664 77.417863 
L 378.29376 75.249296 
L 378.65088 68.757212 
L 379.008 68.247046 
L 379.36512 78.150284 
L 379.72224 72.630869 
L 380.07936 71.093078 
L 380.43648 75.601403 
L 380.7936 77.791855 
L 381.15072 77.367285 
L 381.50784 65.878595 
L 381.86496 74.01206 
L 382.5792 69.324278 
L 382.93632 70.289166 
L 383.29344 77.996602 
L 383.65056 72.763638 
L 384.00768 63.98043 
L 384.3648 72.763638 
L 384.72192 61.984025 
L 385.07904 61.453434 
L 385.43616 75.543529 
L 385.79328 74.376811 
L 386.1504 66.362012 
L 386.50752 70.559569 
L 386.86464 70.213298 
L 387.22176 65.450134 
L 387.57888 64.722577 
L 387.936 75.75703 
L 388.29312 73.15222 
L 388.65024 64.320865 
L 389.00736 74.213889 
L 389.36448 71.423786 
L 389.7216 61.919343 
L 390.07872 62.92557 
L 390.79296 70.901948 
L 391.15008 72.543329 
L 391.5072 72.513176 
L 391.86432 63.864196 
L 392.22144 63.051044 
L 392.57856 71.660631 
L 392.93568 67.863328 
L 393.2928 66.602748 
L 393.64992 75.20893 
L 394.00704 60.241001 
L 394.36416 70.348499 
L 394.72128 73.246083 
L 395.0784 61.053667 
L 395.43552 61.719459 
L 395.79264 73.577277 
L 396.14976 58.787832 
L 396.50688 69.32136 
L 396.864 69.225552 
L 397.22112 70.380597 
L 397.57824 59.687552 
L 397.93536 59.838316 
L 398.6496 68.645841 
L 399.00672 68.884631 
L 399.36384 63.253359 
L 399.72096 62.251996 
L 400.07808 65.970513 
L 400.4352 59.879168 
L 400.79232 66.06243 
L 401.14944 67.173219 
L 401.50656 67.597303 
L 401.86368 65.77452 
L 402.2208 59.587367 
L 402.57792 56.282235 
L 402.93504 66.561896 
L 403.29216 65.021673 
L 403.64928 56.706805 
L 404.0064 71.808477 
L 404.36352 69.310174 
L 404.72064 71.101346 
L 405.07776 63.432331 
L 405.43488 69.180809 
L 405.792 69.963808 
L 406.14912 70.190927 
L 406.50624 65.814885 
L 406.86336 68.436717 
L 407.22048 55.820217 
L 407.5776 69.094242 
L 407.93472 57.397401 
L 408.29184 64.83638 
L 408.64896 69.035881 
L 409.00608 65.358217 
L 409.3632 70.966145 
L 409.72032 58.400224 
L 410.07744 55.628115 
L 410.79168 64.956991 
L 411.1488 66.372712 
L 411.50592 67.331278 
L 411.86304 55.972926 
L 412.22016 57.861851 
L 412.57728 62.028282 
L 412.9344 60.676757 
L 413.29152 57.778201 
L 413.64864 53.568 
L 414.00576 53.828189 
L 414.36288 56.40236 
L 414.72 67.030236 
L 414.72 67.030236 
" style="fill:none;stroke:#000080;stroke-linecap:square;stroke-width:0.5;"/>
   </g>
   <g id="patch_3">
    <path d="M 57.6 307.584 
L 57.6 41.472 
" style="fill:none;stroke:#000000;stroke-linecap:square;stroke-linejoin:miter;stroke-width:0.8;"/>
   </g>
   <g id="patch_4">
    <path d="M 414.72 307.584 
L 414.72 41.472 
" style="fill:none;stroke:#000000;stroke-linecap:square;stroke-linejoin:miter;stroke-width:0.8;"/>
   </g>
   <g id="patch_5">
    <path d="M 57.6 307.584 
L 414.72 307.584 
" style="fill:none;stroke:#000000;stroke-linecap:square;stroke-linejoin:miter;stroke-width:0.8;"/>
   </g>
   <g id="patch_6">
    <path d="M 57.6 41.472 
L 414.72 41.472 
" style="fill:none;stroke:#000000;stroke-linecap:square;stroke-linejoin:miter;stroke-width:0.8;"/>
   </g>
   <g id="text_15">
    <!-- Test -->
    <defs>
     <path d="M -0.296875 72.90625 
L 61.375 72.90625 
L 61.375 64.59375 
L 35.5 64.59375 
L 35.5 0 
L 25.59375 0 
L 25.59375 64.59375 
L -0.296875 64.59375 
z
" id="DejaVuSans-54"/>
    </defs>
    <g transform="translate(223.341563 35.472)scale(0.12 -0.12)">
     <use xlink:href="#DejaVuSans-54"/>
     <use x="60.818359" xlink:href="#DejaVuSans-65"/>
     <use x="122.341797" xlink:href="#DejaVuSans-73"/>
     <use x="174.441406" xlink:href="#DejaVuSans-74"/>
    </g>
   </g>
   <g id="legend_1">
    <g id="patch_7">
     <path d="M 64.6 64.150125 
L 306.276563 64.150125 
Q 308.276563 64.150125 308.276563 62.150125 
L 308.276563 48.472 
Q 308.276563 46.472 306.276563 46.472 
L 64.6 46.472 
Q 62.6 46.472 62.6 48.472 
L 62.6 62.150125 
Q 62.6 64.150125 64.6 64.150125 
z
" style="fill:#ffffff;opacity:0.8;stroke:#cccccc;stroke-linejoin:miter;"/>
    </g>
    <g id="line2d_26">
     <path d="M 66.6 54.570438 
L 86.6 54.570438 
" style="fill:none;stroke:#000080;stroke-linecap:square;stroke-width:0.5;"/>
    </g>
    <g id="line2d_27"/>
    <g id="text_16">
     <!-- Successful download requests per second -->
     <g transform="translate(94.6 58.070438)scale(0.1 -0.1)">
      <use xlink:href="#DejaVuSans-53"/>
      <use x="63.476562" xlink:href="#DejaVuSans-75"/>
      <use x="126.855469" xlink:href="#DejaVuSans-63"/>
      <use x="181.835938" xlink:href="#DejaVuSans-63"/>
      <use x="236.816406" xlink:href="#DejaVuSans-65"/>
      <use x="298.339844" xlink:href="#DejaVuSans-73"/>
      <use x="350.439453" xlink:href="#DejaVuSans-73"/>
      <use x="402.539062" xlink:href="#DejaVuSans-66"/>
      <use x="437.744141" xlink:href="#DejaVuSans-75"/>
      <use x="501.123047" xlink:href="#DejaVuSans-6c"/>
      <use x="528.90625" xlink:href="#DejaVuSans-20"/>
      <use x="560.693359" xlink:href="#DejaVuSans-64"/>
      <use x="624.169922" xlink:href="#DejaVuSans-6f"/>
      <use x="685.351562" xlink:href="#DejaVuSans-77"/>
      <use x="767.138672" xlink:href="#DejaVuSans-6e"/>
      <use x="830.517578" xlink:href="#DejaVuSans-6c"/>
      <use x="858.300781" xlink:href="#DejaVuSans-6f"/>
      <use x="919.482422" xlink:href="#DejaVuSans-61"/>
      <use x="980.761719" xlink:href="#DejaVuSans-64"/>
      <use x="1044.238281" xlink:href="#DejaVuSans-20"/>
      <use x="1076.025391" xlink:href="#DejaVuSans-72"/>
      <use x="1117.107422" xlink:href="#DejaVuSans-65"/>
      <use x="1178.630859" xlink:href="#DejaVuSans-71"/>
      <use x="1242.107422" xlink:href="#DejaVuSans-75"/>
      <use x="1305.486328" xlink:href="#DejaVuSans-65"/>
      <use x="1367.009766" xlink:href="#DejaVuSans-73"/>
      <use x="1419.109375" xlink:href="#DejaVuSans-74"/>
      <use x="1458.318359" xlink:href="#DejaVuSans-73"/>
      <use x="1510.417969" xlink:href="#DejaVuSans-20"/>
      <use x="1542.205078" xlink:href="#DejaVuSans-70"/>
      <use x="1605.681641" xlink:href="#DejaVuSans-65"/>
      <use x="1667.205078" xlink:href="#DejaVuSans-72"/>
      <use x="1708.318359" xlink:href="#DejaVuSans-20"/>
      <use x="1740.105469" xlink:href="#DejaVuSans-73"/>
      <use x="1792.205078" xlink:href="#DejaVuSans-65"/>
      <use x="1853.728516" xlink:href="#DejaVuSans-63"/>
      <use x="1908.708984" xlink:href="#DejaVuSans-6f"/>
      <use x="1969.890625" xlink:href="#DejaVuSans-6e"/>
      <use x="2033.269531" xlink:href="#DejaVuSans-64"/>
     </g>
    </g>
   </g>
  </g>
 </g>
 <defs>
  <clipPath id="pf7bf19653c">
   <rect height="266.112" width="357.12" x="57.6" y="41.472"/>
  </clipPath>
 </defs>
</svg>
