<?xml version="1.0" encoding="utf-8" standalone="no"?>
<!DOCTYPE svg PUBLIC "-//W3C//DTD SVG 1.1//EN"
  "http://www.w3.org/Graphics/SVG/1.1/DTD/svg11.dtd">
<!-- Created with matplotlib (http://matplotlib.org/) -->
<svg height="345pt" version="1.1" viewBox="0 0 460 345" width="460pt" xmlns="http://www.w3.org/2000/svg" xmlns:xlink="http://www.w3.org/1999/xlink">
 <defs>
  <style type="text/css">
*{stroke-linecap:butt;stroke-linejoin:round;}
  </style>
 </defs>
 <g id="figure_1">
  <g id="patch_1">
   <path d="M 0 345.6 
L 460.8 345.6 
L 460.8 0 
L 0 0 
z
" style="fill:#ffffff;"/>
  </g>
  <g id="axes_1">
   <g id="patch_2">
    <path d="M 57.6 307.584 
L 414.72 307.584 
L 414.72 41.472 
L 57.6 41.472 
z
" style="fill:#ffffff;"/>
   </g>
   <g id="matplotlib.axis_1">
    <g id="xtick_1">
     <g id="line2d_1">
      <path clip-path="url(#p97e060cf62)" d="M 57.6 307.584 
L 57.6 41.472 
" style="fill:none;stroke:#b0b0b0;stroke-linecap:square;stroke-width:0.8;"/>
     </g>
     <g id="line2d_2">
      <defs>
       <path d="M 0 0 
L 0 3.5 
" id="mbe447885b4" style="stroke:#000000;stroke-width:0.8;"/>
      </defs>
      <g>
       <use style="stroke:#000000;stroke-width:0.8;" x="57.6" xlink:href="#mbe447885b4" y="307.584"/>
      </g>
     </g>
     <g id="text_1">
      <!-- 0 -->
      <defs>
       <path d="M 31.78125 66.40625 
Q 24.171875 66.40625 20.328125 58.90625 
Q 16.5 51.421875 16.5 36.375 
Q 16.5 21.390625 20.328125 13.890625 
Q 24.171875 6.390625 31.78125 6.390625 
Q 39.453125 6.390625 43.28125 13.890625 
Q 47.125 21.390625 47.125 36.375 
Q 47.125 51.421875 43.28125 58.90625 
Q 39.453125 66.40625 31.78125 66.40625 
M 31.78125 74.21875 
Q 44.046875 74.21875 50.515625 64.515625 
Q 56.984375 54.828125 56.984375 36.375 
Q 56.984375 17.96875 50.515625 8.265625 
Q 44.046875 -1.421875 31.78125 -1.421875 
Q 19.53125 -1.421875 13.0625 8.265625 
Q 6.59375 17.96875 6.59375 36.375 
Q 6.59375 54.828125 13.0625 64.515625 
Q 19.53125 74.21875 31.78125 74.21875 
" id="DejaVuSans-30"/>
      </defs>
      <g transform="translate(54.41875 322.182437)scale(0.1 -0.1)">
       <use xlink:href="#DejaVuSans-30"/>
      </g>
     </g>
    </g>
    <g id="xtick_2">
     <g id="line2d_3">
      <path clip-path="url(#p97e060cf62)" d="M 129.024 307.584 
L 129.024 41.472 
" style="fill:none;stroke:#b0b0b0;stroke-linecap:square;stroke-width:0.8;"/>
     </g>
     <g id="line2d_4">
      <g>
       <use style="stroke:#000000;stroke-width:0.8;" x="129.024" xlink:href="#mbe447885b4" y="307.584"/>
      </g>
     </g>
     <g id="text_2">
      <!-- 200 -->
      <defs>
       <path d="M 19.1875 8.296875 
L 53.609375 8.296875 
L 53.609375 0 
L 7.328125 0 
L 7.328125 8.296875 
Q 12.9375 14.109375 22.625 23.890625 
Q 32.328125 33.6875 34.8125 36.53125 
Q 39.546875 41.84375 41.421875 45.53125 
Q 43.3125 49.21875 43.3125 52.78125 
Q 43.3125 58.59375 39.234375 62.25 
Q 35.15625 65.921875 28.609375 65.921875 
Q 23.96875 65.921875 18.8125 64.3125 
Q 13.671875 62.703125 7.8125 59.421875 
L 7.8125 69.390625 
Q 13.765625 71.78125 18.9375 73 
Q 24.125 74.21875 28.421875 74.21875 
Q 39.75 74.21875 46.484375 68.546875 
Q 53.21875 62.890625 53.21875 53.421875 
Q 53.21875 48.921875 51.53125 44.890625 
Q 49.859375 40.875 45.40625 35.40625 
Q 44.1875 33.984375 37.640625 27.21875 
Q 31.109375 20.453125 19.1875 8.296875 
" id="DejaVuSans-32"/>
      </defs>
      <g transform="translate(119.48025 322.182437)scale(0.1 -0.1)">
       <use xlink:href="#DejaVuSans-32"/>
       <use x="63.623047" xlink:href="#DejaVuSans-30"/>
       <use x="127.246094" xlink:href="#DejaVuSans-30"/>
      </g>
     </g>
    </g>
    <g id="xtick_3">
     <g id="line2d_5">
      <path clip-path="url(#p97e060cf62)" d="M 200.448 307.584 
L 200.448 41.472 
" style="fill:none;stroke:#b0b0b0;stroke-linecap:square;stroke-width:0.8;"/>
     </g>
     <g id="line2d_6">
      <g>
       <use style="stroke:#000000;stroke-width:0.8;" x="200.448" xlink:href="#mbe447885b4" y="307.584"/>
      </g>
     </g>
     <g id="text_3">
      <!-- 400 -->
      <defs>
       <path d="M 37.796875 64.3125 
L 12.890625 25.390625 
L 37.796875 25.390625 
z
M 35.203125 72.90625 
L 47.609375 72.90625 
L 47.609375 25.390625 
L 58.015625 25.390625 
L 58.015625 17.1875 
L 47.609375 17.1875 
L 47.609375 0 
L 37.796875 0 
L 37.796875 17.1875 
L 4.890625 17.1875 
L 4.890625 26.703125 
z
" id="DejaVuSans-34"/>
      </defs>
      <g transform="translate(190.90425 322.182437)scale(0.1 -0.1)">
       <use xlink:href="#DejaVuSans-34"/>
       <use x="63.623047" xlink:href="#DejaVuSans-30"/>
       <use x="127.246094" xlink:href="#DejaVuSans-30"/>
      </g>
     </g>
    </g>
    <g id="xtick_4">
     <g id="line2d_7">
      <path clip-path="url(#p97e060cf62)" d="M 271.872 307.584 
L 271.872 41.472 
" style="fill:none;stroke:#b0b0b0;stroke-linecap:square;stroke-width:0.8;"/>
     </g>
     <g id="line2d_8">
      <g>
       <use style="stroke:#000000;stroke-width:0.8;" x="271.872" xlink:href="#mbe447885b4" y="307.584"/>
      </g>
     </g>
     <g id="text_4">
      <!-- 600 -->
      <defs>
       <path d="M 33.015625 40.375 
Q 26.375 40.375 22.484375 35.828125 
Q 18.609375 31.296875 18.609375 23.390625 
Q 18.609375 15.53125 22.484375 10.953125 
Q 26.375 6.390625 33.015625 6.390625 
Q 39.65625 6.390625 43.53125 10.953125 
Q 47.40625 15.53125 47.40625 23.390625 
Q 47.40625 31.296875 43.53125 35.828125 
Q 39.65625 40.375 33.015625 40.375 
M 52.59375 71.296875 
L 52.59375 62.3125 
Q 48.875 64.0625 45.09375 64.984375 
Q 41.3125 65.921875 37.59375 65.921875 
Q 27.828125 65.921875 22.671875 59.328125 
Q 17.53125 52.734375 16.796875 39.40625 
Q 19.671875 43.65625 24.015625 45.921875 
Q 28.375 48.1875 33.59375 48.1875 
Q 44.578125 48.1875 50.953125 41.515625 
Q 57.328125 34.859375 57.328125 23.390625 
Q 57.328125 12.15625 50.6875 5.359375 
Q 44.046875 -1.421875 33.015625 -1.421875 
Q 20.359375 -1.421875 13.671875 8.265625 
Q 6.984375 17.96875 6.984375 36.375 
Q 6.984375 53.65625 15.1875 63.9375 
Q 23.390625 74.21875 37.203125 74.21875 
Q 40.921875 74.21875 44.703125 73.484375 
Q 48.484375 72.75 52.59375 71.296875 
" id="DejaVuSans-36"/>
      </defs>
      <g transform="translate(262.32825 322.182437)scale(0.1 -0.1)">
       <use xlink:href="#DejaVuSans-36"/>
       <use x="63.623047" xlink:href="#DejaVuSans-30"/>
       <use x="127.246094" xlink:href="#DejaVuSans-30"/>
      </g>
     </g>
    </g>
    <g id="xtick_5">
     <g id="line2d_9">
      <path clip-path="url(#p97e060cf62)" d="M 343.296 307.584 
L 343.296 41.472 
" style="fill:none;stroke:#b0b0b0;stroke-linecap:square;stroke-width:0.8;"/>
     </g>
     <g id="line2d_10">
      <g>
       <use style="stroke:#000000;stroke-width:0.8;" x="343.296" xlink:href="#mbe447885b4" y="307.584"/>
      </g>
     </g>
     <g id="text_5">
      <!-- 800 -->
      <defs>
       <path d="M 31.78125 34.625 
Q 24.75 34.625 20.71875 30.859375 
Q 16.703125 27.09375 16.703125 20.515625 
Q 16.703125 13.921875 20.71875 10.15625 
Q 24.75 6.390625 31.78125 6.390625 
Q 38.8125 6.390625 42.859375 10.171875 
Q 46.921875 13.96875 46.921875 20.515625 
Q 46.921875 27.09375 42.890625 30.859375 
Q 38.875 34.625 31.78125 34.625 
M 21.921875 38.8125 
Q 15.578125 40.375 12.03125 44.71875 
Q 8.5 49.078125 8.5 55.328125 
Q 8.5 64.0625 14.71875 69.140625 
Q 20.953125 74.21875 31.78125 74.21875 
Q 42.671875 74.21875 48.875 69.140625 
Q 55.078125 64.0625 55.078125 55.328125 
Q 55.078125 49.078125 51.53125 44.71875 
Q 48 40.375 41.703125 38.8125 
Q 48.828125 37.15625 52.796875 32.3125 
Q 56.78125 27.484375 56.78125 20.515625 
Q 56.78125 9.90625 50.3125 4.234375 
Q 43.84375 -1.421875 31.78125 -1.421875 
Q 19.734375 -1.421875 13.25 4.234375 
Q 6.78125 9.90625 6.78125 20.515625 
Q 6.78125 27.484375 10.78125 32.3125 
Q 14.796875 37.15625 21.921875 38.8125 
M 18.3125 54.390625 
Q 18.3125 48.734375 21.84375 45.5625 
Q 25.390625 42.390625 31.78125 42.390625 
Q 38.140625 42.390625 41.71875 45.5625 
Q 45.3125 48.734375 45.3125 54.390625 
Q 45.3125 60.0625 41.71875 63.234375 
Q 38.140625 66.40625 31.78125 66.40625 
Q 25.390625 66.40625 21.84375 63.234375 
Q 18.3125 60.0625 18.3125 54.390625 
" id="DejaVuSans-38"/>
      </defs>
      <g transform="translate(333.75225 322.182437)scale(0.1 -0.1)">
       <use xlink:href="#DejaVuSans-38"/>
       <use x="63.623047" xlink:href="#DejaVuSans-30"/>
       <use x="127.246094" xlink:href="#DejaVuSans-30"/>
      </g>
     </g>
    </g>
    <g id="xtick_6">
     <g id="line2d_11">
      <path clip-path="url(#p97e060cf62)" d="M 414.72 307.584 
L 414.72 41.472 
" style="fill:none;stroke:#b0b0b0;stroke-linecap:square;stroke-width:0.8;"/>
     </g>
     <g id="line2d_12">
      <g>
       <use style="stroke:#000000;stroke-width:0.8;" x="414.72" xlink:href="#mbe447885b4" y="307.584"/>
      </g>
     </g>
     <g id="text_6">
      <!-- 1000 -->
      <defs>
       <path d="M 12.40625 8.296875 
L 28.515625 8.296875 
L 28.515625 63.921875 
L 10.984375 60.40625 
L 10.984375 69.390625 
L 28.421875 72.90625 
L 38.28125 72.90625 
L 38.28125 8.296875 
L 54.390625 8.296875 
L 54.390625 0 
L 12.40625 0 
z
" id="DejaVuSans-31"/>
      </defs>
      <g transform="translate(401.995 322.182437)scale(0.1 -0.1)">
       <use xlink:href="#DejaVuSans-31"/>
       <use x="63.623047" xlink:href="#DejaVuSans-30"/>
       <use x="127.246094" xlink:href="#DejaVuSans-30"/>
       <use x="190.869141" xlink:href="#DejaVuSans-30"/>
      </g>
     </g>
    </g>
    <g id="text_7">
     <!-- Number of clients -->
     <defs>
      <path d="M 9.8125 72.90625 
L 23.09375 72.90625 
L 55.421875 11.921875 
L 55.421875 72.90625 
L 64.984375 72.90625 
L 64.984375 0 
L 51.703125 0 
L 19.390625 60.984375 
L 19.390625 0 
L 9.8125 0 
z
" id="DejaVuSans-4e"/>
      <path d="M 8.5 21.578125 
L 8.5 54.6875 
L 17.484375 54.6875 
L 17.484375 21.921875 
Q 17.484375 14.15625 20.5 10.265625 
Q 23.53125 6.390625 29.59375 6.390625 
Q 36.859375 6.390625 41.078125 11.03125 
Q 45.3125 15.671875 45.3125 23.6875 
L 45.3125 54.6875 
L 54.296875 54.6875 
L 54.296875 0 
L 45.3125 0 
L 45.3125 8.40625 
Q 42.046875 3.421875 37.71875 1 
Q 33.40625 -1.421875 27.6875 -1.421875 
Q 18.265625 -1.421875 13.375 4.4375 
Q 8.5 10.296875 8.5 21.578125 
M 31.109375 56 
z
" id="DejaVuSans-75"/>
      <path d="M 52 44.1875 
Q 55.375 50.25 60.0625 53.125 
Q 64.75 56 71.09375 56 
Q 79.640625 56 84.28125 50.015625 
Q 88.921875 44.046875 88.921875 33.015625 
L 88.921875 0 
L 79.890625 0 
L 79.890625 32.71875 
Q 79.890625 40.578125 77.09375 44.375 
Q 74.3125 48.1875 68.609375 48.1875 
Q 61.625 48.1875 57.5625 43.546875 
Q 53.515625 38.921875 53.515625 30.90625 
L 53.515625 0 
L 44.484375 0 
L 44.484375 32.71875 
Q 44.484375 40.625 41.703125 44.40625 
Q 38.921875 48.1875 33.109375 48.1875 
Q 26.21875 48.1875 22.15625 43.53125 
Q 18.109375 38.875 18.109375 30.90625 
L 18.109375 0 
L 9.078125 0 
L 9.078125 54.6875 
L 18.109375 54.6875 
L 18.109375 46.1875 
Q 21.1875 51.21875 25.484375 53.609375 
Q 29.78125 56 35.6875 56 
Q 41.65625 56 45.828125 52.96875 
Q 50 49.953125 52 44.1875 
" id="DejaVuSans-6d"/>
      <path d="M 48.6875 27.296875 
Q 48.6875 37.203125 44.609375 42.84375 
Q 40.53125 48.484375 33.40625 48.484375 
Q 26.265625 48.484375 22.1875 42.84375 
Q 18.109375 37.203125 18.109375 27.296875 
Q 18.109375 17.390625 22.1875 11.75 
Q 26.265625 6.109375 33.40625 6.109375 
Q 40.53125 6.109375 44.609375 11.75 
Q 48.6875 17.390625 48.6875 27.296875 
M 18.109375 46.390625 
Q 20.953125 51.265625 25.265625 53.625 
Q 29.59375 56 35.59375 56 
Q 45.5625 56 51.78125 48.09375 
Q 58.015625 40.1875 58.015625 27.296875 
Q 58.015625 14.40625 51.78125 6.484375 
Q 45.5625 -1.421875 35.59375 -1.421875 
Q 29.59375 -1.421875 25.265625 0.953125 
Q 20.953125 3.328125 18.109375 8.203125 
L 18.109375 0 
L 9.078125 0 
L 9.078125 75.984375 
L 18.109375 75.984375 
z
" id="DejaVuSans-62"/>
      <path d="M 56.203125 29.59375 
L 56.203125 25.203125 
L 14.890625 25.203125 
Q 15.484375 15.921875 20.484375 11.0625 
Q 25.484375 6.203125 34.421875 6.203125 
Q 39.59375 6.203125 44.453125 7.46875 
Q 49.3125 8.734375 54.109375 11.28125 
L 54.109375 2.78125 
Q 49.265625 0.734375 44.1875 -0.34375 
Q 39.109375 -1.421875 33.890625 -1.421875 
Q 20.796875 -1.421875 13.15625 6.1875 
Q 5.515625 13.8125 5.515625 26.8125 
Q 5.515625 40.234375 12.765625 48.109375 
Q 20.015625 56 32.328125 56 
Q 43.359375 56 49.78125 48.890625 
Q 56.203125 41.796875 56.203125 29.59375 
M 47.21875 32.234375 
Q 47.125 39.59375 43.09375 43.984375 
Q 39.0625 48.390625 32.421875 48.390625 
Q 24.90625 48.390625 20.390625 44.140625 
Q 15.875 39.890625 15.1875 32.171875 
z
" id="DejaVuSans-65"/>
      <path d="M 41.109375 46.296875 
Q 39.59375 47.171875 37.8125 47.578125 
Q 36.03125 48 33.890625 48 
Q 26.265625 48 22.1875 43.046875 
Q 18.109375 38.09375 18.109375 28.8125 
L 18.109375 0 
L 9.078125 0 
L 9.078125 54.6875 
L 18.109375 54.6875 
L 18.109375 46.1875 
Q 20.953125 51.171875 25.484375 53.578125 
Q 30.03125 56 36.53125 56 
Q 37.453125 56 38.578125 55.875 
Q 39.703125 55.765625 41.0625 55.515625 
z
" id="DejaVuSans-72"/>
      <path id="DejaVuSans-20"/>
      <path d="M 30.609375 48.390625 
Q 23.390625 48.390625 19.1875 42.75 
Q 14.984375 37.109375 14.984375 27.296875 
Q 14.984375 17.484375 19.15625 11.84375 
Q 23.34375 6.203125 30.609375 6.203125 
Q 37.796875 6.203125 41.984375 11.859375 
Q 46.1875 17.53125 46.1875 27.296875 
Q 46.1875 37.015625 41.984375 42.703125 
Q 37.796875 48.390625 30.609375 48.390625 
M 30.609375 56 
Q 42.328125 56 49.015625 48.375 
Q 55.71875 40.765625 55.71875 27.296875 
Q 55.71875 13.875 49.015625 6.21875 
Q 42.328125 -1.421875 30.609375 -1.421875 
Q 18.84375 -1.421875 12.171875 6.21875 
Q 5.515625 13.875 5.515625 27.296875 
Q 5.515625 40.765625 12.171875 48.375 
Q 18.84375 56 30.609375 56 
" id="DejaVuSans-6f"/>
      <path d="M 37.109375 75.984375 
L 37.109375 68.5 
L 28.515625 68.5 
Q 23.6875 68.5 21.796875 66.546875 
Q 19.921875 64.59375 19.921875 59.515625 
L 19.921875 54.6875 
L 34.71875 54.6875 
L 34.71875 47.703125 
L 19.921875 47.703125 
L 19.921875 0 
L 10.890625 0 
L 10.890625 47.703125 
L 2.296875 47.703125 
L 2.296875 54.6875 
L 10.890625 54.6875 
L 10.890625 58.5 
Q 10.890625 67.625 15.140625 71.796875 
Q 19.390625 75.984375 28.609375 75.984375 
z
" id="DejaVuSans-66"/>
      <path d="M 48.78125 52.59375 
L 48.78125 44.1875 
Q 44.96875 46.296875 41.140625 47.34375 
Q 37.3125 48.390625 33.40625 48.390625 
Q 24.65625 48.390625 19.8125 42.84375 
Q 14.984375 37.3125 14.984375 27.296875 
Q 14.984375 17.28125 19.8125 11.734375 
Q 24.65625 6.203125 33.40625 6.203125 
Q 37.3125 6.203125 41.140625 7.25 
Q 44.96875 8.296875 48.78125 10.40625 
L 48.78125 2.09375 
Q 45.015625 0.34375 40.984375 -0.53125 
Q 36.96875 -1.421875 32.421875 -1.421875 
Q 20.0625 -1.421875 12.78125 6.34375 
Q 5.515625 14.109375 5.515625 27.296875 
Q 5.515625 40.671875 12.859375 48.328125 
Q 20.21875 56 33.015625 56 
Q 37.15625 56 41.109375 55.140625 
Q 45.0625 54.296875 48.78125 52.59375 
" id="DejaVuSans-63"/>
      <path d="M 9.421875 75.984375 
L 18.40625 75.984375 
L 18.40625 0 
L 9.421875 0 
z
" id="DejaVuSans-6c"/>
      <path d="M 9.421875 54.6875 
L 18.40625 54.6875 
L 18.40625 0 
L 9.421875 0 
z
M 9.421875 75.984375 
L 18.40625 75.984375 
L 18.40625 64.59375 
L 9.421875 64.59375 
z
" id="DejaVuSans-69"/>
      <path d="M 54.890625 33.015625 
L 54.890625 0 
L 45.90625 0 
L 45.90625 32.71875 
Q 45.90625 40.484375 42.875 44.328125 
Q 39.84375 48.1875 33.796875 48.1875 
Q 26.515625 48.1875 22.3125 43.546875 
Q 18.109375 38.921875 18.109375 30.90625 
L 18.109375 0 
L 9.078125 0 
L 9.078125 54.6875 
L 18.109375 54.6875 
L 18.109375 46.1875 
Q 21.34375 51.125 25.703125 53.5625 
Q 30.078125 56 35.796875 56 
Q 45.21875 56 50.046875 50.171875 
Q 54.890625 44.34375 54.890625 33.015625 
" id="DejaVuSans-6e"/>
      <path d="M 18.3125 70.21875 
L 18.3125 54.6875 
L 36.8125 54.6875 
L 36.8125 47.703125 
L 18.3125 47.703125 
L 18.3125 18.015625 
Q 18.3125 11.328125 20.140625 9.421875 
Q 21.96875 7.515625 27.59375 7.515625 
L 36.8125 7.515625 
L 36.8125 0 
L 27.59375 0 
Q 17.1875 0 13.234375 3.875 
Q 9.28125 7.765625 9.28125 18.015625 
L 9.28125 47.703125 
L 2.6875 47.703125 
L 2.6875 54.6875 
L 9.28125 54.6875 
L 9.28125 70.21875 
z
" id="DejaVuSans-74"/>
      <path d="M 44.28125 53.078125 
L 44.28125 44.578125 
Q 40.484375 46.53125 36.375 47.5 
Q 32.28125 48.484375 27.875 48.484375 
Q 21.1875 48.484375 17.84375 46.4375 
Q 14.5 44.390625 14.5 40.28125 
Q 14.5 37.15625 16.890625 35.375 
Q 19.28125 33.59375 26.515625 31.984375 
L 29.59375 31.296875 
Q 39.15625 29.25 43.1875 25.515625 
Q 47.21875 21.78125 47.21875 15.09375 
Q 47.21875 7.46875 41.1875 3.015625 
Q 35.15625 -1.421875 24.609375 -1.421875 
Q 20.21875 -1.421875 15.453125 -0.5625 
Q 10.6875 0.296875 5.421875 2 
L 5.421875 11.28125 
Q 10.40625 8.6875 15.234375 7.390625 
Q 20.0625 6.109375 24.8125 6.109375 
Q 31.15625 6.109375 34.5625 8.28125 
Q 37.984375 10.453125 37.984375 14.40625 
Q 37.984375 18.0625 35.515625 20.015625 
Q 33.0625 21.96875 24.703125 23.78125 
L 21.578125 24.515625 
Q 13.234375 26.265625 9.515625 29.90625 
Q 5.8125 33.546875 5.8125 39.890625 
Q 5.8125 47.609375 11.28125 51.796875 
Q 16.75 56 26.8125 56 
Q 31.78125 56 36.171875 55.265625 
Q 40.578125 54.546875 44.28125 53.078125 
" id="DejaVuSans-73"/>
     </defs>
     <g transform="translate(191.738906 335.860562)scale(0.1 -0.1)">
      <use xlink:href="#DejaVuSans-4e"/>
      <use x="74.804688" xlink:href="#DejaVuSans-75"/>
      <use x="138.183594" xlink:href="#DejaVuSans-6d"/>
      <use x="235.595703" xlink:href="#DejaVuSans-62"/>
      <use x="299.072266" xlink:href="#DejaVuSans-65"/>
      <use x="360.595703" xlink:href="#DejaVuSans-72"/>
      <use x="401.708984" xlink:href="#DejaVuSans-20"/>
      <use x="433.496094" xlink:href="#DejaVuSans-6f"/>
      <use x="494.677734" xlink:href="#DejaVuSans-66"/>
      <use x="529.882812" xlink:href="#DejaVuSans-20"/>
      <use x="561.669922" xlink:href="#DejaVuSans-63"/>
      <use x="616.650391" xlink:href="#DejaVuSans-6c"/>
      <use x="644.433594" xlink:href="#DejaVuSans-69"/>
      <use x="672.216797" xlink:href="#DejaVuSans-65"/>
      <use x="733.740234" xlink:href="#DejaVuSans-6e"/>
      <use x="797.119141" xlink:href="#DejaVuSans-74"/>
      <use x="836.328125" xlink:href="#DejaVuSans-73"/>
     </g>
    </g>
   </g>
   <g id="matplotlib.axis_2">
    <g id="ytick_1">
     <g id="line2d_13">
      <path clip-path="url(#p97e060cf62)" d="M 57.6 295.905318 
L 414.72 295.905318 
" style="fill:none;stroke:#b0b0b0;stroke-linecap:square;stroke-width:0.8;"/>
     </g>
     <g id="line2d_14">
      <defs>
       <path d="M 0 0 
L -3.5 0 
" id="me76e71f4ee" style="stroke:#000000;stroke-width:0.8;"/>
      </defs>
      <g>
       <use style="stroke:#000000;stroke-width:0.8;" x="57.6" xlink:href="#me76e71f4ee" y="295.905318"/>
      </g>
     </g>
     <g id="text_8">
      <!-- 0 -->
      <g transform="translate(44.2375 299.704536)scale(0.1 -0.1)">
       <use xlink:href="#DejaVuSans-30"/>
      </g>
     </g>
    </g>
    <g id="ytick_2">
     <g id="line2d_15">
      <path clip-path="url(#p97e060cf62)" d="M 57.6 252.16133 
L 414.72 252.16133 
" style="fill:none;stroke:#b0b0b0;stroke-linecap:square;stroke-width:0.8;"/>
     </g>
     <g id="line2d_16">
      <g>
       <use style="stroke:#000000;stroke-width:0.8;" x="57.6" xlink:href="#me76e71f4ee" y="252.16133"/>
      </g>
     </g>
     <g id="text_9">
      <!-- 100 -->
      <g transform="translate(31.5125 255.960549)scale(0.1 -0.1)">
       <use xlink:href="#DejaVuSans-31"/>
       <use x="63.623047" xlink:href="#DejaVuSans-30"/>
       <use x="127.246094" xlink:href="#DejaVuSans-30"/>
      </g>
     </g>
    </g>
    <g id="ytick_3">
     <g id="line2d_17">
      <path clip-path="url(#p97e060cf62)" d="M 57.6 208.417342 
L 414.72 208.417342 
" style="fill:none;stroke:#b0b0b0;stroke-linecap:square;stroke-width:0.8;"/>
     </g>
     <g id="line2d_18">
      <g>
       <use style="stroke:#000000;stroke-width:0.8;" x="57.6" xlink:href="#me76e71f4ee" y="208.417342"/>
      </g>
     </g>
     <g id="text_10">
      <!-- 200 -->
      <g transform="translate(31.5125 212.216561)scale(0.1 -0.1)">
       <use xlink:href="#DejaVuSans-32"/>
       <use x="63.623047" xlink:href="#DejaVuSans-30"/>
       <use x="127.246094" xlink:href="#DejaVuSans-30"/>
      </g>
     </g>
    </g>
    <g id="ytick_4">
     <g id="line2d_19">
      <path clip-path="url(#p97e060cf62)" d="M 57.6 164.673354 
L 414.72 164.673354 
" style="fill:none;stroke:#b0b0b0;stroke-linecap:square;stroke-width:0.8;"/>
     </g>
     <g id="line2d_20">
      <g>
       <use style="stroke:#000000;stroke-width:0.8;" x="57.6" xlink:href="#me76e71f4ee" y="164.673354"/>
      </g>
     </g>
     <g id="text_11">
      <!-- 300 -->
      <defs>
       <path d="M 40.578125 39.3125 
Q 47.65625 37.796875 51.625 33 
Q 55.609375 28.21875 55.609375 21.1875 
Q 55.609375 10.40625 48.1875 4.484375 
Q 40.765625 -1.421875 27.09375 -1.421875 
Q 22.515625 -1.421875 17.65625 -0.515625 
Q 12.796875 0.390625 7.625 2.203125 
L 7.625 11.71875 
Q 11.71875 9.328125 16.59375 8.109375 
Q 21.484375 6.890625 26.8125 6.890625 
Q 36.078125 6.890625 40.9375 10.546875 
Q 45.796875 14.203125 45.796875 21.1875 
Q 45.796875 27.640625 41.28125 31.265625 
Q 36.765625 34.90625 28.71875 34.90625 
L 20.21875 34.90625 
L 20.21875 43.015625 
L 29.109375 43.015625 
Q 36.375 43.015625 40.234375 45.921875 
Q 44.09375 48.828125 44.09375 54.296875 
Q 44.09375 59.90625 40.109375 62.90625 
Q 36.140625 65.921875 28.71875 65.921875 
Q 24.65625 65.921875 20.015625 65.03125 
Q 15.375 64.15625 9.8125 62.3125 
L 9.8125 71.09375 
Q 15.4375 72.65625 20.34375 73.4375 
Q 25.25 74.21875 29.59375 74.21875 
Q 40.828125 74.21875 47.359375 69.109375 
Q 53.90625 64.015625 53.90625 55.328125 
Q 53.90625 49.265625 50.4375 45.09375 
Q 46.96875 40.921875 40.578125 39.3125 
" id="DejaVuSans-33"/>
      </defs>
      <g transform="translate(31.5125 168.472573)scale(0.1 -0.1)">
       <use xlink:href="#DejaVuSans-33"/>
       <use x="63.623047" xlink:href="#DejaVuSans-30"/>
       <use x="127.246094" xlink:href="#DejaVuSans-30"/>
      </g>
     </g>
    </g>
    <g id="ytick_5">
     <g id="line2d_21">
      <path clip-path="url(#p97e060cf62)" d="M 57.6 120.929367 
L 414.72 120.929367 
" style="fill:none;stroke:#b0b0b0;stroke-linecap:square;stroke-width:0.8;"/>
     </g>
     <g id="line2d_22">
      <g>
       <use style="stroke:#000000;stroke-width:0.8;" x="57.6" xlink:href="#me76e71f4ee" y="120.929367"/>
      </g>
     </g>
     <g id="text_12">
      <!-- 400 -->
      <g transform="translate(31.5125 124.728585)scale(0.1 -0.1)">
       <use xlink:href="#DejaVuSans-34"/>
       <use x="63.623047" xlink:href="#DejaVuSans-30"/>
       <use x="127.246094" xlink:href="#DejaVuSans-30"/>
      </g>
     </g>
    </g>
    <g id="ytick_6">
     <g id="line2d_23">
      <path clip-path="url(#p97e060cf62)" d="M 57.6 77.185379 
L 414.72 77.185379 
" style="fill:none;stroke:#b0b0b0;stroke-linecap:square;stroke-width:0.8;"/>
     </g>
     <g id="line2d_24">
      <g>
       <use style="stroke:#000000;stroke-width:0.8;" x="57.6" xlink:href="#me76e71f4ee" y="77.185379"/>
      </g>
     </g>
     <g id="text_13">
      <!-- 500 -->
      <defs>
       <path d="M 10.796875 72.90625 
L 49.515625 72.90625 
L 49.515625 64.59375 
L 19.828125 64.59375 
L 19.828125 46.734375 
Q 21.96875 47.46875 24.109375 47.828125 
Q 26.265625 48.1875 28.421875 48.1875 
Q 40.625 48.1875 47.75 41.5 
Q 54.890625 34.8125 54.890625 23.390625 
Q 54.890625 11.625 47.5625 5.09375 
Q 40.234375 -1.421875 26.90625 -1.421875 
Q 22.3125 -1.421875 17.546875 -0.640625 
Q 12.796875 0.140625 7.71875 1.703125 
L 7.71875 11.625 
Q 12.109375 9.234375 16.796875 8.0625 
Q 21.484375 6.890625 26.703125 6.890625 
Q 35.15625 6.890625 40.078125 11.328125 
Q 45.015625 15.765625 45.015625 23.390625 
Q 45.015625 31 40.078125 35.4375 
Q 35.15625 39.890625 26.703125 39.890625 
Q 22.75 39.890625 18.8125 39.015625 
Q 14.890625 38.140625 10.796875 36.28125 
z
" id="DejaVuSans-35"/>
      </defs>
      <g transform="translate(31.5125 80.984598)scale(0.1 -0.1)">
       <use xlink:href="#DejaVuSans-35"/>
       <use x="63.623047" xlink:href="#DejaVuSans-30"/>
       <use x="127.246094" xlink:href="#DejaVuSans-30"/>
      </g>
     </g>
    </g>
    <g id="text_14">
     <!-- Successful download requests per second -->
     <defs>
      <path d="M 53.515625 70.515625 
L 53.515625 60.890625 
Q 47.90625 63.578125 42.921875 64.890625 
Q 37.9375 66.21875 33.296875 66.21875 
Q 25.25 66.21875 20.875 63.09375 
Q 16.5 59.96875 16.5 54.203125 
Q 16.5 49.359375 19.40625 46.890625 
Q 22.3125 44.4375 30.421875 42.921875 
L 36.375 41.703125 
Q 47.40625 39.59375 52.65625 34.296875 
Q 57.90625 29 57.90625 20.125 
Q 57.90625 9.515625 50.796875 4.046875 
Q 43.703125 -1.421875 29.984375 -1.421875 
Q 24.8125 -1.421875 18.96875 -0.25 
Q 13.140625 0.921875 6.890625 3.21875 
L 6.890625 13.375 
Q 12.890625 10.015625 18.65625 8.296875 
Q 24.421875 6.59375 29.984375 6.59375 
Q 38.421875 6.59375 43.015625 9.90625 
Q 47.609375 13.234375 47.609375 19.390625 
Q 47.609375 24.75 44.3125 27.78125 
Q 41.015625 30.8125 33.5 32.328125 
L 27.484375 33.5 
Q 16.453125 35.6875 11.515625 40.375 
Q 6.59375 45.0625 6.59375 53.421875 
Q 6.59375 63.09375 13.40625 68.65625 
Q 20.21875 74.21875 32.171875 74.21875 
Q 37.3125 74.21875 42.625 73.28125 
Q 47.953125 72.359375 53.515625 70.515625 
" id="DejaVuSans-53"/>
      <path d="M 45.40625 46.390625 
L 45.40625 75.984375 
L 54.390625 75.984375 
L 54.390625 0 
L 45.40625 0 
L 45.40625 8.203125 
Q 42.578125 3.328125 38.25 0.953125 
Q 33.9375 -1.421875 27.875 -1.421875 
Q 17.96875 -1.421875 11.734375 6.484375 
Q 5.515625 14.40625 5.515625 27.296875 
Q 5.515625 40.1875 11.734375 48.09375 
Q 17.96875 56 27.875 56 
Q 33.9375 56 38.25 53.625 
Q 42.578125 51.265625 45.40625 46.390625 
M 14.796875 27.296875 
Q 14.796875 17.390625 18.875 11.75 
Q 22.953125 6.109375 30.078125 6.109375 
Q 37.203125 6.109375 41.296875 11.75 
Q 45.40625 17.390625 45.40625 27.296875 
Q 45.40625 37.203125 41.296875 42.84375 
Q 37.203125 48.484375 30.078125 48.484375 
Q 22.953125 48.484375 18.875 42.84375 
Q 14.796875 37.203125 14.796875 27.296875 
" id="DejaVuSans-64"/>
      <path d="M 4.203125 54.6875 
L 13.1875 54.6875 
L 24.421875 12.015625 
L 35.59375 54.6875 
L 46.1875 54.6875 
L 57.421875 12.015625 
L 68.609375 54.6875 
L 77.59375 54.6875 
L 63.28125 0 
L 52.6875 0 
L 40.921875 44.828125 
L 29.109375 0 
L 18.5 0 
z
" id="DejaVuSans-77"/>
      <path d="M 34.28125 27.484375 
Q 23.390625 27.484375 19.1875 25 
Q 14.984375 22.515625 14.984375 16.5 
Q 14.984375 11.71875 18.140625 8.90625 
Q 21.296875 6.109375 26.703125 6.109375 
Q 34.1875 6.109375 38.703125 11.40625 
Q 43.21875 16.703125 43.21875 25.484375 
L 43.21875 27.484375 
z
M 52.203125 31.203125 
L 52.203125 0 
L 43.21875 0 
L 43.21875 8.296875 
Q 40.140625 3.328125 35.546875 0.953125 
Q 30.953125 -1.421875 24.3125 -1.421875 
Q 15.921875 -1.421875 10.953125 3.296875 
Q 6 8.015625 6 15.921875 
Q 6 25.140625 12.171875 29.828125 
Q 18.359375 34.515625 30.609375 34.515625 
L 43.21875 34.515625 
L 43.21875 35.40625 
Q 43.21875 41.609375 39.140625 45 
Q 35.0625 48.390625 27.6875 48.390625 
Q 23 48.390625 18.546875 47.265625 
Q 14.109375 46.140625 10.015625 43.890625 
L 10.015625 52.203125 
Q 14.9375 54.109375 19.578125 55.046875 
Q 24.21875 56 28.609375 56 
Q 40.484375 56 46.34375 49.84375 
Q 52.203125 43.703125 52.203125 31.203125 
" id="DejaVuSans-61"/>
      <path d="M 14.796875 27.296875 
Q 14.796875 17.390625 18.875 11.75 
Q 22.953125 6.109375 30.078125 6.109375 
Q 37.203125 6.109375 41.296875 11.75 
Q 45.40625 17.390625 45.40625 27.296875 
Q 45.40625 37.203125 41.296875 42.84375 
Q 37.203125 48.484375 30.078125 48.484375 
Q 22.953125 48.484375 18.875 42.84375 
Q 14.796875 37.203125 14.796875 27.296875 
M 45.40625 8.203125 
Q 42.578125 3.328125 38.25 0.953125 
Q 33.9375 -1.421875 27.875 -1.421875 
Q 17.96875 -1.421875 11.734375 6.484375 
Q 5.515625 14.40625 5.515625 27.296875 
Q 5.515625 40.1875 11.734375 48.09375 
Q 17.96875 56 27.875 56 
Q 33.9375 56 38.25 53.625 
Q 42.578125 51.265625 45.40625 46.390625 
L 45.40625 54.6875 
L 54.390625 54.6875 
L 54.390625 -20.796875 
L 45.40625 -20.796875 
z
" id="DejaVuSans-71"/>
      <path d="M 18.109375 8.203125 
L 18.109375 -20.796875 
L 9.078125 -20.796875 
L 9.078125 54.6875 
L 18.109375 54.6875 
L 18.109375 46.390625 
Q 20.953125 51.265625 25.265625 53.625 
Q 29.59375 56 35.59375 56 
Q 45.5625 56 51.78125 48.09375 
Q 58.015625 40.1875 58.015625 27.296875 
Q 58.015625 14.40625 51.78125 6.484375 
Q 45.5625 -1.421875 35.59375 -1.421875 
Q 29.59375 -1.421875 25.265625 0.953125 
Q 20.953125 3.328125 18.109375 8.203125 
M 48.6875 27.296875 
Q 48.6875 37.203125 44.609375 42.84375 
Q 40.53125 48.484375 33.40625 48.484375 
Q 26.265625 48.484375 22.1875 42.84375 
Q 18.109375 37.203125 18.109375 27.296875 
Q 18.109375 17.390625 22.1875 11.75 
Q 26.265625 6.109375 33.40625 6.109375 
Q 40.53125 6.109375 44.609375 11.75 
Q 48.6875 17.390625 48.6875 27.296875 
" id="DejaVuSans-70"/>
     </defs>
     <g transform="translate(25.432812 279.366281)rotate(-90)scale(0.1 -0.1)">
      <use xlink:href="#DejaVuSans-53"/>
      <use x="63.476562" xlink:href="#DejaVuSans-75"/>
      <use x="126.855469" xlink:href="#DejaVuSans-63"/>
      <use x="181.835938" xlink:href="#DejaVuSans-63"/>
      <use x="236.816406" xlink:href="#DejaVuSans-65"/>
      <use x="298.339844" xlink:href="#DejaVuSans-73"/>
      <use x="350.439453" xlink:href="#DejaVuSans-73"/>
      <use x="402.539062" xlink:href="#DejaVuSans-66"/>
      <use x="437.744141" xlink:href="#DejaVuSans-75"/>
      <use x="501.123047" xlink:href="#DejaVuSans-6c"/>
      <use x="528.90625" xlink:href="#DejaVuSans-20"/>
      <use x="560.693359" xlink:href="#DejaVuSans-64"/>
      <use x="624.169922" xlink:href="#DejaVuSans-6f"/>
      <use x="685.351562" xlink:href="#DejaVuSans-77"/>
      <use x="767.138672" xlink:href="#DejaVuSans-6e"/>
      <use x="830.517578" xlink:href="#DejaVuSans-6c"/>
      <use x="858.300781" xlink:href="#DejaVuSans-6f"/>
      <use x="919.482422" xlink:href="#DejaVuSans-61"/>
      <use x="980.761719" xlink:href="#DejaVuSans-64"/>
      <use x="1044.238281" xlink:href="#DejaVuSans-20"/>
      <use x="1076.025391" xlink:href="#DejaVuSans-72"/>
      <use x="1117.107422" xlink:href="#DejaVuSans-65"/>
      <use x="1178.630859" xlink:href="#DejaVuSans-71"/>
      <use x="1242.107422" xlink:href="#DejaVuSans-75"/>
      <use x="1305.486328" xlink:href="#DejaVuSans-65"/>
      <use x="1367.009766" xlink:href="#DejaVuSans-73"/>
      <use x="1419.109375" xlink:href="#DejaVuSans-74"/>
      <use x="1458.318359" xlink:href="#DejaVuSans-73"/>
      <use x="1510.417969" xlink:href="#DejaVuSans-20"/>
      <use x="1542.205078" xlink:href="#DejaVuSans-70"/>
      <use x="1605.681641" xlink:href="#DejaVuSans-65"/>
      <use x="1667.205078" xlink:href="#DejaVuSans-72"/>
      <use x="1708.318359" xlink:href="#DejaVuSans-20"/>
      <use x="1740.105469" xlink:href="#DejaVuSans-73"/>
      <use x="1792.205078" xlink:href="#DejaVuSans-65"/>
      <use x="1853.728516" xlink:href="#DejaVuSans-63"/>
      <use x="1908.708984" xlink:href="#DejaVuSans-6f"/>
      <use x="1969.890625" xlink:href="#DejaVuSans-6e"/>
      <use x="2033.269531" xlink:href="#DejaVuSans-64"/>
     </g>
    </g>
   </g>
   <g id="line2d_25">
    <path clip-path="url(#p97e060cf62)" d="M 57.6 295.48625 
L 57.95712 295.488 
L 62.24256 290.508184 
L 62.59968 290.17398 
L 63.31392 289.314848 
L 63.67104 288.482838 
L 64.02816 288.328422 
L 65.09952 287.195015 
L 65.45664 286.443931 
L 65.81376 286.348569 
L 66.528 284.99513 
L 66.88512 285.158295 
L 67.95648 283.827165 
L 69.02784 282.10409 
L 69.38496 282.027538 
L 69.74208 281.281265 
L 70.45632 280.901567 
L 70.81344 280.031499 
L 71.17056 279.716543 
L 71.52768 279.782596 
L 72.24192 278.087079 
L 72.95616 277.473351 
L 73.31328 277.549903 
L 73.6704 276.870996 
L 74.02752 276.690334 
L 75.09888 274.535067 
L 75.81312 273.945836 
L 76.17024 274.268229 
L 76.52736 273.727116 
L 76.88448 272.56615 
L 77.2416 273.126073 
L 77.59872 273.1182 
L 77.95584 272.594584 
L 78.31296 270.69522 
L 78.67008 270.350955 
L 79.0272 271.40256 
L 80.09856 270.258218 
L 80.45568 269.551315 
L 80.8128 267.981343 
L 81.16992 267.121336 
L 81.52704 266.892118 
L 81.88416 267.504534 
L 82.24128 266.04086 
L 82.5984 266.156781 
L 82.95552 266.942861 
L 83.31264 266.512857 
L 84.02688 263.63669 
L 84.384 263.85541 
L 84.74112 264.644989 
L 85.09824 264.005015 
L 85.45536 263.848411 
L 85.81248 261.947297 
L 86.1696 261.421932 
L 86.52672 262.498909 
L 86.88384 262.475725 
L 87.24096 260.698407 
L 87.59808 259.56675 
L 87.9552 258.81654 
L 88.31232 260.700156 
L 88.66944 258.45259 
L 89.02656 258.752674 
L 89.38368 258.779795 
L 89.7408 258.65775 
L 90.09792 258.299486 
L 90.45504 256.153844 
L 90.81216 257.504658 
L 91.5264 254.39796 
L 91.88352 253.96402 
L 92.24064 255.730839 
L 92.59776 254.002514 
L 92.95488 253.762797 
L 93.312 253.257554 
L 93.66912 252.064218 
L 94.02624 251.470612 
L 94.38336 253.346792 
L 94.74048 253.478461 
L 95.0976 252.317933 
L 95.81184 251.753199 
L 96.16896 250.950496 
L 96.52608 251.512169 
L 96.8832 248.426906 
L 97.24032 248.277301 
L 97.59744 247.590958 
L 97.95456 247.568211 
L 98.31168 249.339405 
L 98.6688 246.599719 
L 99.02592 248.309234 
L 99.38304 245.222659 
L 100.09728 245.959745 
L 100.4544 243.787418 
L 100.81152 245.88363 
L 101.16864 243.019711 
L 101.52576 242.793117 
L 101.88288 243.697743 
L 102.24 243.269052 
L 102.59712 243.531079 
L 102.95424 241.268202 
L 103.31136 243.773858 
L 103.66848 240.032434 
L 104.0256 242.573085 
L 104.38272 241.276076 
L 104.73984 241.7402 
L 105.09696 241.101975 
L 105.45408 237.476911 
L 105.8112 240.476436 
L 106.16832 238.20831 
L 106.52544 239.348716 
L 106.88256 236.307634 
L 107.5968 237.240256 
L 108.31104 234.184738 
L 108.66816 234.721914 
L 109.02528 233.085889 
L 109.3824 232.583271 
L 109.73952 234.336967 
L 110.09664 233.550888 
L 110.45376 234.866707 
L 111.168 231.887741 
L 111.52512 230.836573 
L 111.88224 231.904364 
L 112.23936 231.619153 
L 112.59648 233.066642 
L 112.9536 230.209285 
L 113.31072 228.419281 
L 113.66784 231.549163 
L 114.02496 231.405245 
L 114.38208 226.732075 
L 114.7392 227.854983 
L 115.09632 229.475698 
L 115.45344 228.170377 
L 115.81056 228.081577 
L 116.16768 227.374237 
L 116.5248 227.931535 
L 116.88192 224.479697 
L 117.23904 225.358514 
L 117.59616 224.853708 
L 117.95328 227.147643 
L 118.3104 223.425029 
L 118.66752 221.145093 
L 119.02464 224.831836 
L 119.38176 221.647711 
L 119.73888 224.277162 
L 120.096 219.476697 
L 120.45312 223.680057 
L 120.81024 223.437715 
L 121.16736 222.712002 
L 121.52448 222.805177 
L 121.8816 217.425104 
L 122.59584 219.841085 
L 122.95296 216.924235 
L 123.31008 221.00555 
L 123.6672 218.287298 
L 124.02432 218.015648 
L 124.38144 218.868218 
L 124.73856 214.351652 
L 125.09568 218.802165 
L 125.4528 214.025321 
L 125.80992 216.834123 
L 126.16704 217.002537 
L 126.88128 214.332842 
L 127.2384 215.715589 
L 127.59552 215.586544 
L 127.95264 211.286073 
L 128.30976 210.389759 
L 128.66688 210.390196 
L 129.024 211.448801 
L 129.38112 211.100161 
L 129.73824 209.187674 
L 130.09536 213.165752 
L 130.8096 208.659246 
L 131.16672 210.580482 
L 131.52384 206.553411 
L 131.88096 210.47156 
L 132.23808 208.633875 
L 132.5952 207.663196 
L 132.95232 208.871405 
L 133.30944 209.510504 
L 133.66656 205.828573 
L 134.02368 203.983889 
L 134.3808 207.655759 
L 134.73792 202.231942 
L 135.09504 204.489132 
L 135.45216 201.317693 
L 135.80928 204.149679 
L 136.1664 201.144029 
L 136.52352 204.428328 
L 136.88064 204.150554 
L 137.23776 199.57187 
L 137.59488 204.668045 
L 138.30912 201.382872 
L 138.66624 201.409555 
L 139.02336 197.669882 
L 139.38048 197.723249 
L 139.7376 199.583244 
L 140.09472 196.009797 
L 140.80896 197.206633 
L 141.16608 195.980489 
L 141.5232 193.783229 
L 141.88032 193.609127 
L 142.23744 198.603816 
L 142.59456 194.97219 
L 142.95168 197.68038 
L 143.3088 192.27931 
L 143.66592 196.865867 
L 144.02304 196.210145 
L 144.38016 190.44075 
L 144.73728 189.169988 
L 145.0944 194.253914 
L 145.80864 188.666932 
L 146.16576 194.854519 
L 146.52288 189.35415 
L 147.23712 193.470896 
L 147.59424 185.693653 
L 147.95136 191.229455 
L 148.30848 191.912298 
L 148.6656 186.404055 
L 149.02272 190.631037 
L 149.37984 190.935932 
L 149.73696 188.3546 
L 150.09408 182.909785 
L 150.4512 185.18841 
L 150.80832 184.322716 
L 151.16544 184.898387 
L 151.52256 184.007322 
L 151.87968 185.303894 
L 152.59392 181.908486 
L 152.95104 185.551485 
L 153.30816 181.059415 
L 153.66528 181.76763 
L 154.0224 181.624587 
L 154.37952 178.943956 
L 154.73664 181.069476 
L 155.09376 178.824972 
L 155.808 180.611476 
L 156.16512 182.617576 
L 156.52224 181.392744 
L 156.87936 176.697702 
L 157.23648 177.276872 
L 157.5936 175.042429 
L 157.95072 176.314504 
L 158.30784 178.816223 
L 158.66496 179.519189 
L 159.02208 172.776928 
L 159.3792 171.871865 
L 159.73632 178.110195 
L 160.09344 177.091835 
L 160.45056 174.243664 
L 160.80768 176.786065 
L 161.1648 174.624237 
L 161.52192 175.604977 
L 161.87904 170.229278 
L 162.23616 174.383645 
L 162.59328 176.25545 
L 162.9504 175.03543 
L 163.66464 169.12343 
L 164.02176 173.623812 
L 164.37888 166.511477 
L 164.736 168.311104 
L 165.09312 172.494342 
L 165.45024 166.979537 
L 165.80736 164.381582 
L 166.16448 164.766529 
L 166.5216 168.8929 
L 166.87872 163.473019 
L 167.23584 169.554746 
L 167.59296 167.775678 
L 168.3072 161.627898 
L 168.66432 168.813285 
L 169.02144 162.787114 
L 169.37856 161.181272 
L 169.73568 167.125642 
L 170.0928 159.491004 
L 170.44992 163.421839 
L 170.80704 159.828708 
L 171.16416 163.148439 
L 171.52128 160.210593 
L 171.8784 159.089434 
L 172.23552 164.766092 
L 172.59264 164.811148 
L 172.94976 163.424901 
L 173.30688 155.037866 
L 173.664 160.325202 
L 174.02112 153.978824 
L 174.37824 155.66603 
L 174.73536 159.315153 
L 175.09248 155.140665 
L 175.4496 158.098196 
L 175.80672 154.244788 
L 176.16384 156.530849 
L 176.52096 151.532661 
L 176.87808 152.183571 
L 177.2352 159.446385 
L 177.59232 149.758842 
L 177.94944 158.68349 
L 178.30656 153.691426 
L 178.66368 151.038791 
L 179.0208 153.953453 
L 179.37792 154.214604 
L 179.73504 149.432074 
L 180.09216 156.187896 
L 180.44928 153.28417 
L 180.8064 154.126679 
L 181.16352 148.206368 
L 181.52064 146.801748 
L 181.87776 144.44351 
L 182.23488 153.187933 
L 182.592 145.984173 
L 182.94912 147.66263 
L 183.30624 146.474981 
L 183.66336 142.969775 
L 184.02048 151.034854 
L 184.3776 143.766353 
L 184.73472 148.10182 
L 185.09184 148.703299 
L 185.44896 139.38933 
L 185.80608 147.00997 
L 186.1632 139.793961 
L 186.52032 145.99161 
L 186.87744 146.459233 
L 187.23456 141.197706 
L 187.59168 140.676278 
L 187.9488 148.017831 
L 188.30592 147.960089 
L 188.66304 139.797898 
L 189.02016 137.561268 
L 189.37728 137.604575 
L 189.7344 144.287781 
L 190.09152 141.659642 
L 190.44864 147.157387 
L 190.80576 146.252324 
L 191.16288 137.374044 
L 191.52 146.0651 
L 191.87712 145.146476 
L 192.23424 136.226639 
L 192.59136 139.486004 
L 192.94848 139.404202 
L 193.3056 142.823233 
L 193.66272 142.814484 
L 194.01984 141.278632 
L 194.37696 138.652243 
L 194.73408 134.398141 
L 195.0912 143.422525 
L 195.44832 137.619448 
L 195.80544 143.322789 
L 196.16256 142.408102 
L 196.51968 137.954964 
L 196.8768 139.682852 
L 197.23392 139.688976 
L 197.59104 140.588352 
L 197.94816 133.365345 
L 198.30528 138.769915 
L 198.6624 138.662742 
L 199.01952 134.266909 
L 199.37664 136.251136 
L 199.73376 141.271196 
L 200.09088 135.088858 
L 200.448 131.792311 
L 200.80512 138.433523 
L 201.16224 137.832044 
L 201.51936 132.374106 
L 201.87648 139.062999 
L 202.2336 140.936117 
L 202.59072 134.930942 
L 202.94784 134.674603 
L 203.30496 136.538971 
L 203.66208 132.226252 
L 204.0192 132.867538 
L 204.37632 134.048189 
L 204.73344 137.198193 
L 205.09056 134.814583 
L 205.44768 129.224977 
L 205.8048 137.981211 
L 206.16192 139.600176 
L 206.51904 131.129152 
L 206.87616 135.030241 
L 207.23328 137.548583 
L 207.5904 128.024204 
L 207.94752 127.848353 
L 208.30464 133.798848 
L 208.66176 127.899971 
L 209.01888 130.747267 
L 209.376 135.808009 
L 209.73312 135.155349 
L 210.09024 127.536459 
L 210.44736 137.394604 
L 210.80448 135.599788 
L 211.1616 130.880686 
L 211.51872 127.990959 
L 211.87584 133.961138 
L 212.23296 130.651031 
L 212.59008 125.311639 
L 212.9472 130.987422 
L 213.30432 125.92668 
L 213.66144 127.496652 
L 214.01856 134.023692 
L 214.37568 135.028491 
L 214.7328 129.688663 
L 215.08992 129.824269 
L 215.44704 129.430136 
L 215.80416 129.216665 
L 216.16128 132.510587 
L 216.5184 130.460744 
L 216.87552 126.953789 
L 217.23264 124.738156 
L 217.58976 125.311202 
L 217.94688 129.591989 
L 218.304 125.744267 
L 218.66112 127.685188 
L 219.01824 133.530697 
L 219.37536 125.602099 
L 219.73248 131.580153 
L 220.0896 132.179445 
L 220.44672 129.526373 
L 220.80384 121.749129 
L 221.16096 125.260021 
L 221.51808 125.342698 
L 221.8752 124.210166 
L 222.23232 129.972561 
L 222.58944 127.354046 
L 222.94656 120.716333 
L 223.6608 129.973874 
L 224.01792 128.595501 
L 224.37504 121.76269 
L 224.73216 130.992234 
L 225.4464 119.613548 
L 225.80352 129.712285 
L 226.16064 121.3235 
L 226.51776 128.70836 
L 226.87488 129.475192 
L 227.232 120.316951 
L 227.58912 120.928492 
L 227.94624 126.134026 
L 228.30336 118.297728 
L 228.66048 127.161573 
L 229.37472 120.367256 
L 229.73184 125.497989 
L 230.08896 123.274044 
L 230.44608 126.433673 
L 230.8032 127.537771 
L 231.16032 127.16026 
L 231.51744 122.262246 
L 231.87456 119.90182 
L 232.23168 125.483991 
L 232.5888 123.842716 
L 232.94592 125.787574 
L 233.30304 122.829168 
L 233.66016 116.245261 
L 234.01728 116.948664 
L 234.3744 122.497589 
L 234.73152 123.474829 
L 235.08864 115.320513 
L 235.44576 115.594787 
L 235.80288 125.223277 
L 236.16 122.056212 
L 236.51712 125.780575 
L 236.87424 115.298641 
L 237.58848 124.776213 
L 237.9456 124.820832 
L 238.30272 117.491527 
L 239.01696 120.058424 
L 239.37408 118.072447 
L 239.7312 116.995907 
L 240.08832 124.712784 
L 240.44544 115.868187 
L 240.80256 115.574228 
L 241.15968 113.011267 
L 241.5168 119.617047 
L 241.87392 112.922467 
L 242.23104 118.222051 
L 242.58816 118.292917 
L 242.94528 113.70461 
L 243.3024 120.34101 
L 243.65952 113.361657 
L 244.01664 111.717758 
L 244.37376 122.928904 
L 244.73088 117.859414 
L 245.088 110.804383 
L 245.44512 112.55283 
L 245.80224 117.392665 
L 246.15936 117.533084 
L 246.51648 120.414937 
L 246.8736 120.401814 
L 247.23072 119.304278 
L 247.58784 113.377405 
L 247.94496 114.617109 
L 248.30208 113.015642 
L 248.6592 110.887059 
L 249.01632 121.015105 
L 249.37344 114.792085 
L 249.73056 115.355945 
L 250.08768 114.105742 
L 250.4448 111.905857 
L 250.80192 120.430685 
L 251.15904 108.419899 
L 251.51616 114.369081 
L 251.87328 109.746216 
L 252.2304 115.878686 
L 252.58752 118.250047 
L 252.94464 114.904945 
L 253.30176 108.864775 
L 253.65888 119.155548 
L 254.016 112.048025 
L 254.37312 111.385741 
L 254.73024 112.278556 
L 255.08736 114.689287 
L 255.44448 118.729044 
L 255.8016 111.835429 
L 256.15872 114.092619 
L 256.51584 108.173182 
L 256.87296 116.749629 
L 257.23008 112.587826 
L 257.5872 106.868299 
L 257.94432 107.432597 
L 258.30144 105.211277 
L 258.65856 108.524447 
L 259.01568 107.924717 
L 259.3728 106.989033 
L 259.72992 110.312263 
L 260.44416 104.09493 
L 260.80128 109.377454 
L 261.1584 109.883572 
L 261.51552 103.457143 
L 261.87264 103.487764 
L 262.22976 103.005268 
L 262.58688 115.501613 
L 262.944 104.799646 
L 263.30112 113.349409 
L 263.65824 114.161734 
L 264.01536 103.693798 
L 264.37248 106.576964 
L 264.7296 111.882235 
L 265.08672 109.041501 
L 265.44384 109.134675 
L 266.15808 102.239311 
L 266.5152 103.650929 
L 266.87232 114.340647 
L 267.22944 111.614085 
L 267.58656 109.990308 
L 267.94368 102.595387 
L 268.3008 110.75889 
L 268.65792 107.872661 
L 269.01504 110.270707 
L 269.37216 105.73533 
L 269.72928 106.818869 
L 270.0864 105.707334 
L 270.44352 110.626783 
L 270.80064 111.648642 
L 271.15776 102.599761 
L 271.51488 111.246198 
L 271.872 104.541557 
L 272.22912 101.78481 
L 272.58624 103.109378 
L 272.94336 108.716483 
L 273.30048 110.407625 
L 273.6576 107.690249 
L 274.01472 107.10058 
L 274.37184 109.556805 
L 274.72896 98.006642 
L 275.08608 110.056799 
L 275.4432 104.347771 
L 275.80032 100.839065 
L 276.15744 109.596174 
L 276.51456 106.976784 
L 276.87168 102.155322 
L 277.2288 105.835941 
L 277.58592 99.781336 
L 277.94304 108.611935 
L 278.30016 104.533245 
L 278.65728 105.643468 
L 279.0144 105.148723 
L 279.37152 101.241948 
L 279.72864 109.126364 
L 280.08576 98.915642 
L 280.44288 99.285279 
L 280.8 108.433459 
L 281.51424 102.420411 
L 281.87136 100.714833 
L 282.22848 104.589675 
L 282.5856 103.756352 
L 282.94272 105.69596 
L 283.29984 97.959399 
L 283.65696 104.254596 
L 284.01408 100.866624 
L 284.3712 100.467242 
L 284.72832 105.901995 
L 285.08544 97.97121 
L 285.44256 104.459318 
L 285.79968 106.879235 
L 286.1568 96.780936 
L 286.51392 104.302714 
L 286.87104 94.516309 
L 287.22816 96.738504 
L 287.58528 98.154934 
L 287.9424 95.196091 
L 288.29952 98.305851 
L 288.65664 94.518497 
L 289.01376 97.561328 
L 289.37088 102.817169 
L 289.728 96.245947 
L 290.08512 102.549893 
L 290.44224 98.854401 
L 290.79936 100.325948 
L 291.5136 92.718432 
L 291.87072 102.53502 
L 292.58496 102.71437 
L 292.94208 92.220188 
L 293.2992 93.825154 
L 293.65632 92.345295 
L 294.37056 104.176732 
L 294.72768 104.57174 
L 295.0848 95.537294 
L 295.44192 101.791372 
L 295.79904 92.153259 
L 296.15616 99.236286 
L 296.51328 90.234211 
L 296.8704 89.728093 
L 297.22752 92.61782 
L 297.58464 98.881522 
L 297.94176 93.938451 
L 298.29888 102.108079 
L 298.656 91.032538 
L 299.01312 100.632156 
L 299.37024 88.714982 
L 299.72736 101.867924 
L 300.08448 88.731605 
L 300.4416 101.34912 
L 301.15584 89.50806 
L 301.51296 101.56784 
L 301.87008 89.644979 
L 302.2272 90.960798 
L 302.94144 89.393451 
L 303.29856 93.210114 
L 303.65568 90.308575 
L 304.0128 92.697434 
L 304.36992 98.601998 
L 304.72704 91.116089 
L 305.08416 91.811181 
L 305.44128 90.924053 
L 305.7984 95.332135 
L 306.15552 97.852226 
L 306.51264 90.696584 
L 306.86976 92.703121 
L 307.22688 95.653216 
L 307.584 90.44112 
L 307.94112 95.116477 
L 308.29824 85.861562 
L 308.65536 100.019303 
L 309.01248 96.774374 
L 309.3696 90.146285 
L 309.72672 93.921829 
L 310.08384 87.506335 
L 310.44096 94.242035 
L 310.79808 98.411712 
L 311.1552 84.823954 
L 311.51232 93.333472 
L 311.86944 85.180468 
L 312.22656 92.35142 
L 312.58368 85.598223 
L 312.9408 97.232374 
L 313.29792 84.562365 
L 313.65504 94.857513 
L 314.01216 95.468179 
L 314.36928 84.739966 
L 314.7264 95.307201 
L 315.08352 94.340459 
L 315.79776 86.542218 
L 316.15488 89.196166 
L 316.512 96.527658 
L 316.86912 84.159046 
L 317.22624 83.258794 
L 317.58336 83.060634 
L 318.2976 95.87456 
L 318.65472 87.127513 
L 319.01184 83.558441 
L 319.36896 89.227224 
L 319.72608 86.271443 
L 320.0832 93.390777 
L 320.44032 95.108603 
L 321.15456 88.845339 
L 321.51168 92.235061 
L 321.8688 83.713732 
L 322.58304 94.707471 
L 322.94016 82.8546 
L 323.29728 90.931927 
L 323.6544 94.577114 
L 324.01152 84.125363 
L 324.36864 92.792359 
L 324.72576 90.106041 
L 325.08288 82.889595 
L 325.44 94.025502 
L 325.79712 81.54403 
L 326.15424 90.113915 
L 326.86848 88.609121 
L 327.2256 89.176918 
L 327.58272 85.59691 
L 327.93984 89.52512 
L 328.29696 91.799808 
L 328.65408 84.348457 
L 329.0112 84.048811 
L 329.36832 85.135849 
L 329.72544 84.988869 
L 330.08256 92.73068 
L 330.43968 83.901831 
L 330.7968 83.540943 
L 331.15392 85.335321 
L 331.51104 82.360293 
L 331.86816 80.453492 
L 332.22528 91.98572 
L 332.5824 90.679524 
L 332.93952 91.686511 
L 333.29664 85.825691 
L 333.65376 84.146797 
L 334.01088 91.277067 
L 334.368 79.801269 
L 334.72512 80.145535 
L 335.08224 82.5812 
L 335.43936 91.326935 
L 335.79648 80.919803 
L 336.1536 83.391776 
L 336.51072 76.991156 
L 336.86784 76.087405 
L 337.22496 88.417523 
L 337.58208 79.803019 
L 337.9392 87.269243 
L 338.29632 85.350632 
L 338.65344 79.611858 
L 339.01056 84.012941 
L 339.7248 89.748652 
L 340.08192 76.380052 
L 340.79616 83.96351 
L 341.15328 77.025276 
L 341.86752 89.312962 
L 342.22464 89.422322 
L 342.58176 87.697059 
L 342.93888 84.212413 
L 343.296 74.000817 
L 343.65312 75.831503 
L 344.01024 79.06637 
L 344.36736 73.544567 
L 344.72448 82.755301 
L 345.0816 80.444744 
L 345.43872 85.578538 
L 345.79584 78.908892 
L 346.15296 75.952673 
L 346.51008 73.993818 
L 347.22432 86.819555 
L 347.58144 73.838526 
L 347.93856 85.852375 
L 348.29568 75.523107 
L 348.6528 81.6687 
L 349.00992 77.180567 
L 349.36704 80.068108 
L 349.72416 75.952236 
L 350.08128 76.688885 
L 350.4384 75.020489 
L 350.79552 78.023076 
L 351.15264 85.185279 
L 351.50976 73.329346 
L 351.86688 82.040962 
L 352.224 72.63163 
L 352.58112 85.925865 
L 352.93824 71.648702 
L 353.29536 81.040537 
L 353.65248 84.881696 
L 354.0096 80.540105 
L 354.36672 73.26898 
L 354.72384 82.871223 
L 355.08096 85.471365 
L 355.43808 72.871784 
L 355.7952 71.160082 
L 356.15232 78.625431 
L 356.50944 72.839414 
L 356.86656 84.978808 
L 357.22368 78.920703 
L 357.5808 78.574688 
L 358.29504 74.639479 
L 358.65216 81.147709 
L 359.00928 70.124224 
L 359.72352 80.017802 
L 360.08064 75.656089 
L 360.43776 74.320585 
L 360.79488 67.989955 
L 361.152 78.125875 
L 361.50912 83.097816 
L 361.86624 69.365266 
L 362.22336 79.517371 
L 362.58048 79.779835 
L 362.9376 72.330671 
L 363.29472 68.235797 
L 363.65184 82.171756 
L 364.00896 72.934776 
L 364.36608 67.456279 
L 364.7232 80.883496 
L 365.08032 69.4825 
L 365.43744 66.724442 
L 365.79456 80.122788 
L 366.15168 67.050334 
L 366.5088 80.864248 
L 367.22304 72.820604 
L 367.58016 73.728292 
L 367.93728 73.944387 
L 368.2944 74.467128 
L 368.65152 75.877434 
L 369.00864 68.239296 
L 369.36576 71.149146 
L 369.72288 75.725205 
L 370.08 69.966746 
L 370.43712 74.821891 
L 370.79424 66.907292 
L 371.15136 78.269355 
L 371.50848 64.748963 
L 371.8656 79.926377 
L 372.22272 73.716918 
L 372.57984 73.612807 
L 372.93696 72.324985 
L 373.29408 65.405998 
L 373.6512 66.255944 
L 374.00832 64.719655 
L 374.36544 73.254982 
L 374.72256 71.834614 
L 375.07968 76.625018 
L 375.4368 76.506472 
L 375.79392 69.356955 
L 376.15104 79.510809 
L 376.50816 74.97937 
L 376.86528 77.093954 
L 377.2224 66.360929 
L 377.57952 63.122562 
L 377.93664 73.363029 
L 378.65088 63.552565 
L 379.008 74.739653 
L 379.36512 72.855599 
L 379.72224 62.725366 
L 380.07936 72.733116 
L 380.43648 69.733153 
L 380.7936 63.077068 
L 381.15072 71.198577 
L 381.50784 72.260243 
L 381.86496 65.170218 
L 382.22208 63.40821 
L 382.5792 70.477676 
L 382.93632 69.094054 
L 383.29344 76.666138 
L 383.65056 67.360042 
L 384.00768 76.188453 
L 384.3648 73.851212 
L 384.72192 75.035362 
L 385.07904 75.166594 
L 385.43616 72.365229 
L 385.79328 73.765037 
L 386.1504 75.957923 
L 386.50752 69.440943 
L 386.86464 72.971083 
L 387.22176 67.636504 
L 387.57888 65.419559 
L 387.936 64.457191 
L 388.29312 68.075256 
L 388.65024 69.214787 
L 389.00736 75.238334 
L 389.36448 64.078805 
L 389.7216 62.286614 
L 390.07872 74.796082 
L 390.43584 69.375765 
L 390.79296 69.292214 
L 391.15008 62.15582 
L 391.5072 73.95751 
L 391.86432 63.926576 
L 392.22144 74.393638 
L 392.57856 72.450967 
L 393.64992 59.522432 
L 394.00704 69.478563 
L 394.36416 65.597597 
L 394.72128 64.380201 
L 395.0784 72.450967 
L 395.79264 60.857061 
L 396.14976 68.853462 
L 396.50688 64.044248 
L 396.864 62.540329 
L 397.22112 73.72523 
L 397.57824 59.762586 
L 397.93536 57.736365 
L 398.29248 70.34032 
L 398.6496 59.407385 
L 399.00672 60.830377 
L 399.36384 72.379664 
L 399.72096 61.953722 
L 400.07808 66.95366 
L 400.4352 62.928338 
L 400.79232 62.895968 
L 401.14944 62.241995 
L 401.50656 58.243795 
L 401.86368 72.080456 
L 402.2208 65.930051 
L 402.57792 55.887306 
L 402.93504 61.542966 
L 403.29216 71.632955 
L 403.64928 60.266079 
L 404.0064 62.795794 
L 404.36352 57.335232 
L 404.72064 67.390225 
L 405.07776 62.467277 
L 405.43488 54.821703 
L 405.792 70.750201 
L 406.14912 63.82859 
L 406.50624 61.905604 
L 406.86336 58.949385 
L 407.22048 70.761574 
L 407.93472 57.280552 
L 408.29184 59.298462 
L 408.64896 68.758537 
L 409.00608 54.489686 
L 409.3632 65.380626 
L 409.72032 65.353068 
L 410.07744 68.73754 
L 410.43456 69.509621 
L 410.79168 57.624817 
L 411.1488 61.724504 
L 411.50592 53.568 
L 411.86304 63.334283 
L 412.22016 53.691358 
L 412.57728 59.550428 
L 412.9344 68.17368 
L 413.29152 69.204726 
L 413.64864 63.162806 
L 414.00576 66.853487 
L 414.72 61.119087 
L 414.72 61.119087 
" style="fill:none;stroke:#000080;stroke-linecap:square;stroke-width:0.5;"/>
   </g>
   <g id="patch_3">
    <path d="M 57.6 307.584 
L 57.6 41.472 
" style="fill:none;stroke:#000000;stroke-linecap:square;stroke-linejoin:miter;stroke-width:0.8;"/>
   </g>
   <g id="patch_4">
    <path d="M 414.72 307.584 
L 414.72 41.472 
" style="fill:none;stroke:#000000;stroke-linecap:square;stroke-linejoin:miter;stroke-width:0.8;"/>
   </g>
   <g id="patch_5">
    <path d="M 57.6 307.584 
L 414.72 307.584 
" style="fill:none;stroke:#000000;stroke-linecap:square;stroke-linejoin:miter;stroke-width:0.8;"/>
   </g>
   <g id="patch_6">
    <path d="M 57.6 41.472 
L 414.72 41.472 
" style="fill:none;stroke:#000000;stroke-linecap:square;stroke-linejoin:miter;stroke-width:0.8;"/>
   </g>
   <g id="text_15">
    <!-- Test -->
    <defs>
     <path d="M -0.296875 72.90625 
L 61.375 72.90625 
L 61.375 64.59375 
L 35.5 64.59375 
L 35.5 0 
L 25.59375 0 
L 25.59375 64.59375 
L -0.296875 64.59375 
z
" id="DejaVuSans-54"/>
    </defs>
    <g transform="translate(223.341563 35.472)scale(0.12 -0.12)">
     <use xlink:href="#DejaVuSans-54"/>
     <use x="60.818359" xlink:href="#DejaVuSans-65"/>
     <use x="122.341797" xlink:href="#DejaVuSans-73"/>
     <use x="174.441406" xlink:href="#DejaVuSans-74"/>
    </g>
   </g>
   <g id="legend_1">
    <g id="patch_7">
     <path d="M 64.6 64.150125 
L 306.276563 64.150125 
Q 308.276563 64.150125 308.276563 62.150125 
L 308.276563 48.472 
Q 308.276563 46.472 306.276563 46.472 
L 64.6 46.472 
Q 62.6 46.472 62.6 48.472 
L 62.6 62.150125 
Q 62.6 64.150125 64.6 64.150125 
z
" style="fill:#ffffff;opacity:0.8;stroke:#cccccc;stroke-linejoin:miter;"/>
    </g>
    <g id="line2d_26">
     <path d="M 66.6 54.570438 
L 86.6 54.570438 
" style="fill:none;stroke:#000080;stroke-linecap:square;stroke-width:0.5;"/>
    </g>
    <g id="line2d_27"/>
    <g id="text_16">
     <!-- Successful download requests per second -->
     <g transform="translate(94.6 58.070438)scale(0.1 -0.1)">
      <use xlink:href="#DejaVuSans-53"/>
      <use x="63.476562" xlink:href="#DejaVuSans-75"/>
      <use x="126.855469" xlink:href="#DejaVuSans-63"/>
      <use x="181.835938" xlink:href="#DejaVuSans-63"/>
      <use x="236.816406" xlink:href="#DejaVuSans-65"/>
      <use x="298.339844" xlink:href="#DejaVuSans-73"/>
      <use x="350.439453" xlink:href="#DejaVuSans-73"/>
      <use x="402.539062" xlink:href="#DejaVuSans-66"/>
      <use x="437.744141" xlink:href="#DejaVuSans-75"/>
      <use x="501.123047" xlink:href="#DejaVuSans-6c"/>
      <use x="528.90625" xlink:href="#DejaVuSans-20"/>
      <use x="560.693359" xlink:href="#DejaVuSans-64"/>
      <use x="624.169922" xlink:href="#DejaVuSans-6f"/>
      <use x="685.351562" xlink:href="#DejaVuSans-77"/>
      <use x="767.138672" xlink:href="#DejaVuSans-6e"/>
      <use x="830.517578" xlink:href="#DejaVuSans-6c"/>
      <use x="858.300781" xlink:href="#DejaVuSans-6f"/>
      <use x="919.482422" xlink:href="#DejaVuSans-61"/>
      <use x="980.761719" xlink:href="#DejaVuSans-64"/>
      <use x="1044.238281" xlink:href="#DejaVuSans-20"/>
      <use x="1076.025391" xlink:href="#DejaVuSans-72"/>
      <use x="1117.107422" xlink:href="#DejaVuSans-65"/>
      <use x="1178.630859" xlink:href="#DejaVuSans-71"/>
      <use x="1242.107422" xlink:href="#DejaVuSans-75"/>
      <use x="1305.486328" xlink:href="#DejaVuSans-65"/>
      <use x="1367.009766" xlink:href="#DejaVuSans-73"/>
      <use x="1419.109375" xlink:href="#DejaVuSans-74"/>
      <use x="1458.318359" xlink:href="#DejaVuSans-73"/>
      <use x="1510.417969" xlink:href="#DejaVuSans-20"/>
      <use x="1542.205078" xlink:href="#DejaVuSans-70"/>
      <use x="1605.681641" xlink:href="#DejaVuSans-65"/>
      <use x="1667.205078" xlink:href="#DejaVuSans-72"/>
      <use x="1708.318359" xlink:href="#DejaVuSans-20"/>
      <use x="1740.105469" xlink:href="#DejaVuSans-73"/>
      <use x="1792.205078" xlink:href="#DejaVuSans-65"/>
      <use x="1853.728516" xlink:href="#DejaVuSans-63"/>
      <use x="1908.708984" xlink:href="#DejaVuSans-6f"/>
      <use x="1969.890625" xlink:href="#DejaVuSans-6e"/>
      <use x="2033.269531" xlink:href="#DejaVuSans-64"/>
     </g>
    </g>
   </g>
  </g>
 </g>
 <defs>
  <clipPath id="p97e060cf62">
   <rect height="266.112" width="357.12" x="57.6" y="41.472"/>
  </clipPath>
 </defs>
</svg>
