<?xml version="1.0" encoding="utf-8" standalone="no"?>
<!DOCTYPE svg PUBLIC "-//W3C//DTD SVG 1.1//EN"
  "http://www.w3.org/Graphics/SVG/1.1/DTD/svg11.dtd">
<!-- Created with matplotlib (http://matplotlib.org/) -->
<svg height="345pt" version="1.1" viewBox="0 0 460 345" width="460pt" xmlns="http://www.w3.org/2000/svg" xmlns:xlink="http://www.w3.org/1999/xlink">
 <defs>
  <style type="text/css">
*{stroke-linecap:butt;stroke-linejoin:round;}
  </style>
 </defs>
 <g id="figure_1">
  <g id="patch_1">
   <path d="M 0 345.6 
L 460.8 345.6 
L 460.8 0 
L 0 0 
z
" style="fill:#ffffff;"/>
  </g>
  <g id="axes_1">
   <g id="patch_2">
    <path d="M 57.6 307.584 
L 414.72 307.584 
L 414.72 41.472 
L 57.6 41.472 
z
" style="fill:#ffffff;"/>
   </g>
   <g id="matplotlib.axis_1">
    <g id="xtick_1">
     <g id="line2d_1">
      <path clip-path="url(#p0f32f4cae6)" d="M 57.6 307.584 
L 57.6 41.472 
" style="fill:none;stroke:#b0b0b0;stroke-linecap:square;stroke-width:0.8;"/>
     </g>
     <g id="line2d_2">
      <defs>
       <path d="M 0 0 
L 0 3.5 
" id="m3a85cd72ee" style="stroke:#000000;stroke-width:0.8;"/>
      </defs>
      <g>
       <use style="stroke:#000000;stroke-width:0.8;" x="57.6" xlink:href="#m3a85cd72ee" y="307.584"/>
      </g>
     </g>
     <g id="text_1">
      <!-- 0 -->
      <defs>
       <path d="M 31.78125 66.40625 
Q 24.171875 66.40625 20.328125 58.90625 
Q 16.5 51.421875 16.5 36.375 
Q 16.5 21.390625 20.328125 13.890625 
Q 24.171875 6.390625 31.78125 6.390625 
Q 39.453125 6.390625 43.28125 13.890625 
Q 47.125 21.390625 47.125 36.375 
Q 47.125 51.421875 43.28125 58.90625 
Q 39.453125 66.40625 31.78125 66.40625 
M 31.78125 74.21875 
Q 44.046875 74.21875 50.515625 64.515625 
Q 56.984375 54.828125 56.984375 36.375 
Q 56.984375 17.96875 50.515625 8.265625 
Q 44.046875 -1.421875 31.78125 -1.421875 
Q 19.53125 -1.421875 13.0625 8.265625 
Q 6.59375 17.96875 6.59375 36.375 
Q 6.59375 54.828125 13.0625 64.515625 
Q 19.53125 74.21875 31.78125 74.21875 
" id="DejaVuSans-30"/>
      </defs>
      <g transform="translate(54.41875 322.182437)scale(0.1 -0.1)">
       <use xlink:href="#DejaVuSans-30"/>
      </g>
     </g>
    </g>
    <g id="xtick_2">
     <g id="line2d_3">
      <path clip-path="url(#p0f32f4cae6)" d="M 129.024 307.584 
L 129.024 41.472 
" style="fill:none;stroke:#b0b0b0;stroke-linecap:square;stroke-width:0.8;"/>
     </g>
     <g id="line2d_4">
      <g>
       <use style="stroke:#000000;stroke-width:0.8;" x="129.024" xlink:href="#m3a85cd72ee" y="307.584"/>
      </g>
     </g>
     <g id="text_2">
      <!-- 200 -->
      <defs>
       <path d="M 19.1875 8.296875 
L 53.609375 8.296875 
L 53.609375 0 
L 7.328125 0 
L 7.328125 8.296875 
Q 12.9375 14.109375 22.625 23.890625 
Q 32.328125 33.6875 34.8125 36.53125 
Q 39.546875 41.84375 41.421875 45.53125 
Q 43.3125 49.21875 43.3125 52.78125 
Q 43.3125 58.59375 39.234375 62.25 
Q 35.15625 65.921875 28.609375 65.921875 
Q 23.96875 65.921875 18.8125 64.3125 
Q 13.671875 62.703125 7.8125 59.421875 
L 7.8125 69.390625 
Q 13.765625 71.78125 18.9375 73 
Q 24.125 74.21875 28.421875 74.21875 
Q 39.75 74.21875 46.484375 68.546875 
Q 53.21875 62.890625 53.21875 53.421875 
Q 53.21875 48.921875 51.53125 44.890625 
Q 49.859375 40.875 45.40625 35.40625 
Q 44.1875 33.984375 37.640625 27.21875 
Q 31.109375 20.453125 19.1875 8.296875 
" id="DejaVuSans-32"/>
      </defs>
      <g transform="translate(119.48025 322.182437)scale(0.1 -0.1)">
       <use xlink:href="#DejaVuSans-32"/>
       <use x="63.623047" xlink:href="#DejaVuSans-30"/>
       <use x="127.246094" xlink:href="#DejaVuSans-30"/>
      </g>
     </g>
    </g>
    <g id="xtick_3">
     <g id="line2d_5">
      <path clip-path="url(#p0f32f4cae6)" d="M 200.448 307.584 
L 200.448 41.472 
" style="fill:none;stroke:#b0b0b0;stroke-linecap:square;stroke-width:0.8;"/>
     </g>
     <g id="line2d_6">
      <g>
       <use style="stroke:#000000;stroke-width:0.8;" x="200.448" xlink:href="#m3a85cd72ee" y="307.584"/>
      </g>
     </g>
     <g id="text_3">
      <!-- 400 -->
      <defs>
       <path d="M 37.796875 64.3125 
L 12.890625 25.390625 
L 37.796875 25.390625 
z
M 35.203125 72.90625 
L 47.609375 72.90625 
L 47.609375 25.390625 
L 58.015625 25.390625 
L 58.015625 17.1875 
L 47.609375 17.1875 
L 47.609375 0 
L 37.796875 0 
L 37.796875 17.1875 
L 4.890625 17.1875 
L 4.890625 26.703125 
z
" id="DejaVuSans-34"/>
      </defs>
      <g transform="translate(190.90425 322.182437)scale(0.1 -0.1)">
       <use xlink:href="#DejaVuSans-34"/>
       <use x="63.623047" xlink:href="#DejaVuSans-30"/>
       <use x="127.246094" xlink:href="#DejaVuSans-30"/>
      </g>
     </g>
    </g>
    <g id="xtick_4">
     <g id="line2d_7">
      <path clip-path="url(#p0f32f4cae6)" d="M 271.872 307.584 
L 271.872 41.472 
" style="fill:none;stroke:#b0b0b0;stroke-linecap:square;stroke-width:0.8;"/>
     </g>
     <g id="line2d_8">
      <g>
       <use style="stroke:#000000;stroke-width:0.8;" x="271.872" xlink:href="#m3a85cd72ee" y="307.584"/>
      </g>
     </g>
     <g id="text_4">
      <!-- 600 -->
      <defs>
       <path d="M 33.015625 40.375 
Q 26.375 40.375 22.484375 35.828125 
Q 18.609375 31.296875 18.609375 23.390625 
Q 18.609375 15.53125 22.484375 10.953125 
Q 26.375 6.390625 33.015625 6.390625 
Q 39.65625 6.390625 43.53125 10.953125 
Q 47.40625 15.53125 47.40625 23.390625 
Q 47.40625 31.296875 43.53125 35.828125 
Q 39.65625 40.375 33.015625 40.375 
M 52.59375 71.296875 
L 52.59375 62.3125 
Q 48.875 64.0625 45.09375 64.984375 
Q 41.3125 65.921875 37.59375 65.921875 
Q 27.828125 65.921875 22.671875 59.328125 
Q 17.53125 52.734375 16.796875 39.40625 
Q 19.671875 43.65625 24.015625 45.921875 
Q 28.375 48.1875 33.59375 48.1875 
Q 44.578125 48.1875 50.953125 41.515625 
Q 57.328125 34.859375 57.328125 23.390625 
Q 57.328125 12.15625 50.6875 5.359375 
Q 44.046875 -1.421875 33.015625 -1.421875 
Q 20.359375 -1.421875 13.671875 8.265625 
Q 6.984375 17.96875 6.984375 36.375 
Q 6.984375 53.65625 15.1875 63.9375 
Q 23.390625 74.21875 37.203125 74.21875 
Q 40.921875 74.21875 44.703125 73.484375 
Q 48.484375 72.75 52.59375 71.296875 
" id="DejaVuSans-36"/>
      </defs>
      <g transform="translate(262.32825 322.182437)scale(0.1 -0.1)">
       <use xlink:href="#DejaVuSans-36"/>
       <use x="63.623047" xlink:href="#DejaVuSans-30"/>
       <use x="127.246094" xlink:href="#DejaVuSans-30"/>
      </g>
     </g>
    </g>
    <g id="xtick_5">
     <g id="line2d_9">
      <path clip-path="url(#p0f32f4cae6)" d="M 343.296 307.584 
L 343.296 41.472 
" style="fill:none;stroke:#b0b0b0;stroke-linecap:square;stroke-width:0.8;"/>
     </g>
     <g id="line2d_10">
      <g>
       <use style="stroke:#000000;stroke-width:0.8;" x="343.296" xlink:href="#m3a85cd72ee" y="307.584"/>
      </g>
     </g>
     <g id="text_5">
      <!-- 800 -->
      <defs>
       <path d="M 31.78125 34.625 
Q 24.75 34.625 20.71875 30.859375 
Q 16.703125 27.09375 16.703125 20.515625 
Q 16.703125 13.921875 20.71875 10.15625 
Q 24.75 6.390625 31.78125 6.390625 
Q 38.8125 6.390625 42.859375 10.171875 
Q 46.921875 13.96875 46.921875 20.515625 
Q 46.921875 27.09375 42.890625 30.859375 
Q 38.875 34.625 31.78125 34.625 
M 21.921875 38.8125 
Q 15.578125 40.375 12.03125 44.71875 
Q 8.5 49.078125 8.5 55.328125 
Q 8.5 64.0625 14.71875 69.140625 
Q 20.953125 74.21875 31.78125 74.21875 
Q 42.671875 74.21875 48.875 69.140625 
Q 55.078125 64.0625 55.078125 55.328125 
Q 55.078125 49.078125 51.53125 44.71875 
Q 48 40.375 41.703125 38.8125 
Q 48.828125 37.15625 52.796875 32.3125 
Q 56.78125 27.484375 56.78125 20.515625 
Q 56.78125 9.90625 50.3125 4.234375 
Q 43.84375 -1.421875 31.78125 -1.421875 
Q 19.734375 -1.421875 13.25 4.234375 
Q 6.78125 9.90625 6.78125 20.515625 
Q 6.78125 27.484375 10.78125 32.3125 
Q 14.796875 37.15625 21.921875 38.8125 
M 18.3125 54.390625 
Q 18.3125 48.734375 21.84375 45.5625 
Q 25.390625 42.390625 31.78125 42.390625 
Q 38.140625 42.390625 41.71875 45.5625 
Q 45.3125 48.734375 45.3125 54.390625 
Q 45.3125 60.0625 41.71875 63.234375 
Q 38.140625 66.40625 31.78125 66.40625 
Q 25.390625 66.40625 21.84375 63.234375 
Q 18.3125 60.0625 18.3125 54.390625 
" id="DejaVuSans-38"/>
      </defs>
      <g transform="translate(333.75225 322.182437)scale(0.1 -0.1)">
       <use xlink:href="#DejaVuSans-38"/>
       <use x="63.623047" xlink:href="#DejaVuSans-30"/>
       <use x="127.246094" xlink:href="#DejaVuSans-30"/>
      </g>
     </g>
    </g>
    <g id="xtick_6">
     <g id="line2d_11">
      <path clip-path="url(#p0f32f4cae6)" d="M 414.72 307.584 
L 414.72 41.472 
" style="fill:none;stroke:#b0b0b0;stroke-linecap:square;stroke-width:0.8;"/>
     </g>
     <g id="line2d_12">
      <g>
       <use style="stroke:#000000;stroke-width:0.8;" x="414.72" xlink:href="#m3a85cd72ee" y="307.584"/>
      </g>
     </g>
     <g id="text_6">
      <!-- 1000 -->
      <defs>
       <path d="M 12.40625 8.296875 
L 28.515625 8.296875 
L 28.515625 63.921875 
L 10.984375 60.40625 
L 10.984375 69.390625 
L 28.421875 72.90625 
L 38.28125 72.90625 
L 38.28125 8.296875 
L 54.390625 8.296875 
L 54.390625 0 
L 12.40625 0 
z
" id="DejaVuSans-31"/>
      </defs>
      <g transform="translate(401.995 322.182437)scale(0.1 -0.1)">
       <use xlink:href="#DejaVuSans-31"/>
       <use x="63.623047" xlink:href="#DejaVuSans-30"/>
       <use x="127.246094" xlink:href="#DejaVuSans-30"/>
       <use x="190.869141" xlink:href="#DejaVuSans-30"/>
      </g>
     </g>
    </g>
    <g id="text_7">
     <!-- Number of clients -->
     <defs>
      <path d="M 9.8125 72.90625 
L 23.09375 72.90625 
L 55.421875 11.921875 
L 55.421875 72.90625 
L 64.984375 72.90625 
L 64.984375 0 
L 51.703125 0 
L 19.390625 60.984375 
L 19.390625 0 
L 9.8125 0 
z
" id="DejaVuSans-4e"/>
      <path d="M 8.5 21.578125 
L 8.5 54.6875 
L 17.484375 54.6875 
L 17.484375 21.921875 
Q 17.484375 14.15625 20.5 10.265625 
Q 23.53125 6.390625 29.59375 6.390625 
Q 36.859375 6.390625 41.078125 11.03125 
Q 45.3125 15.671875 45.3125 23.6875 
L 45.3125 54.6875 
L 54.296875 54.6875 
L 54.296875 0 
L 45.3125 0 
L 45.3125 8.40625 
Q 42.046875 3.421875 37.71875 1 
Q 33.40625 -1.421875 27.6875 -1.421875 
Q 18.265625 -1.421875 13.375 4.4375 
Q 8.5 10.296875 8.5 21.578125 
M 31.109375 56 
z
" id="DejaVuSans-75"/>
      <path d="M 52 44.1875 
Q 55.375 50.25 60.0625 53.125 
Q 64.75 56 71.09375 56 
Q 79.640625 56 84.28125 50.015625 
Q 88.921875 44.046875 88.921875 33.015625 
L 88.921875 0 
L 79.890625 0 
L 79.890625 32.71875 
Q 79.890625 40.578125 77.09375 44.375 
Q 74.3125 48.1875 68.609375 48.1875 
Q 61.625 48.1875 57.5625 43.546875 
Q 53.515625 38.921875 53.515625 30.90625 
L 53.515625 0 
L 44.484375 0 
L 44.484375 32.71875 
Q 44.484375 40.625 41.703125 44.40625 
Q 38.921875 48.1875 33.109375 48.1875 
Q 26.21875 48.1875 22.15625 43.53125 
Q 18.109375 38.875 18.109375 30.90625 
L 18.109375 0 
L 9.078125 0 
L 9.078125 54.6875 
L 18.109375 54.6875 
L 18.109375 46.1875 
Q 21.1875 51.21875 25.484375 53.609375 
Q 29.78125 56 35.6875 56 
Q 41.65625 56 45.828125 52.96875 
Q 50 49.953125 52 44.1875 
" id="DejaVuSans-6d"/>
      <path d="M 48.6875 27.296875 
Q 48.6875 37.203125 44.609375 42.84375 
Q 40.53125 48.484375 33.40625 48.484375 
Q 26.265625 48.484375 22.1875 42.84375 
Q 18.109375 37.203125 18.109375 27.296875 
Q 18.109375 17.390625 22.1875 11.75 
Q 26.265625 6.109375 33.40625 6.109375 
Q 40.53125 6.109375 44.609375 11.75 
Q 48.6875 17.390625 48.6875 27.296875 
M 18.109375 46.390625 
Q 20.953125 51.265625 25.265625 53.625 
Q 29.59375 56 35.59375 56 
Q 45.5625 56 51.78125 48.09375 
Q 58.015625 40.1875 58.015625 27.296875 
Q 58.015625 14.40625 51.78125 6.484375 
Q 45.5625 -1.421875 35.59375 -1.421875 
Q 29.59375 -1.421875 25.265625 0.953125 
Q 20.953125 3.328125 18.109375 8.203125 
L 18.109375 0 
L 9.078125 0 
L 9.078125 75.984375 
L 18.109375 75.984375 
z
" id="DejaVuSans-62"/>
      <path d="M 56.203125 29.59375 
L 56.203125 25.203125 
L 14.890625 25.203125 
Q 15.484375 15.921875 20.484375 11.0625 
Q 25.484375 6.203125 34.421875 6.203125 
Q 39.59375 6.203125 44.453125 7.46875 
Q 49.3125 8.734375 54.109375 11.28125 
L 54.109375 2.78125 
Q 49.265625 0.734375 44.1875 -0.34375 
Q 39.109375 -1.421875 33.890625 -1.421875 
Q 20.796875 -1.421875 13.15625 6.1875 
Q 5.515625 13.8125 5.515625 26.8125 
Q 5.515625 40.234375 12.765625 48.109375 
Q 20.015625 56 32.328125 56 
Q 43.359375 56 49.78125 48.890625 
Q 56.203125 41.796875 56.203125 29.59375 
M 47.21875 32.234375 
Q 47.125 39.59375 43.09375 43.984375 
Q 39.0625 48.390625 32.421875 48.390625 
Q 24.90625 48.390625 20.390625 44.140625 
Q 15.875 39.890625 15.1875 32.171875 
z
" id="DejaVuSans-65"/>
      <path d="M 41.109375 46.296875 
Q 39.59375 47.171875 37.8125 47.578125 
Q 36.03125 48 33.890625 48 
Q 26.265625 48 22.1875 43.046875 
Q 18.109375 38.09375 18.109375 28.8125 
L 18.109375 0 
L 9.078125 0 
L 9.078125 54.6875 
L 18.109375 54.6875 
L 18.109375 46.1875 
Q 20.953125 51.171875 25.484375 53.578125 
Q 30.03125 56 36.53125 56 
Q 37.453125 56 38.578125 55.875 
Q 39.703125 55.765625 41.0625 55.515625 
z
" id="DejaVuSans-72"/>
      <path id="DejaVuSans-20"/>
      <path d="M 30.609375 48.390625 
Q 23.390625 48.390625 19.1875 42.75 
Q 14.984375 37.109375 14.984375 27.296875 
Q 14.984375 17.484375 19.15625 11.84375 
Q 23.34375 6.203125 30.609375 6.203125 
Q 37.796875 6.203125 41.984375 11.859375 
Q 46.1875 17.53125 46.1875 27.296875 
Q 46.1875 37.015625 41.984375 42.703125 
Q 37.796875 48.390625 30.609375 48.390625 
M 30.609375 56 
Q 42.328125 56 49.015625 48.375 
Q 55.71875 40.765625 55.71875 27.296875 
Q 55.71875 13.875 49.015625 6.21875 
Q 42.328125 -1.421875 30.609375 -1.421875 
Q 18.84375 -1.421875 12.171875 6.21875 
Q 5.515625 13.875 5.515625 27.296875 
Q 5.515625 40.765625 12.171875 48.375 
Q 18.84375 56 30.609375 56 
" id="DejaVuSans-6f"/>
      <path d="M 37.109375 75.984375 
L 37.109375 68.5 
L 28.515625 68.5 
Q 23.6875 68.5 21.796875 66.546875 
Q 19.921875 64.59375 19.921875 59.515625 
L 19.921875 54.6875 
L 34.71875 54.6875 
L 34.71875 47.703125 
L 19.921875 47.703125 
L 19.921875 0 
L 10.890625 0 
L 10.890625 47.703125 
L 2.296875 47.703125 
L 2.296875 54.6875 
L 10.890625 54.6875 
L 10.890625 58.5 
Q 10.890625 67.625 15.140625 71.796875 
Q 19.390625 75.984375 28.609375 75.984375 
z
" id="DejaVuSans-66"/>
      <path d="M 48.78125 52.59375 
L 48.78125 44.1875 
Q 44.96875 46.296875 41.140625 47.34375 
Q 37.3125 48.390625 33.40625 48.390625 
Q 24.65625 48.390625 19.8125 42.84375 
Q 14.984375 37.3125 14.984375 27.296875 
Q 14.984375 17.28125 19.8125 11.734375 
Q 24.65625 6.203125 33.40625 6.203125 
Q 37.3125 6.203125 41.140625 7.25 
Q 44.96875 8.296875 48.78125 10.40625 
L 48.78125 2.09375 
Q 45.015625 0.34375 40.984375 -0.53125 
Q 36.96875 -1.421875 32.421875 -1.421875 
Q 20.0625 -1.421875 12.78125 6.34375 
Q 5.515625 14.109375 5.515625 27.296875 
Q 5.515625 40.671875 12.859375 48.328125 
Q 20.21875 56 33.015625 56 
Q 37.15625 56 41.109375 55.140625 
Q 45.0625 54.296875 48.78125 52.59375 
" id="DejaVuSans-63"/>
      <path d="M 9.421875 75.984375 
L 18.40625 75.984375 
L 18.40625 0 
L 9.421875 0 
z
" id="DejaVuSans-6c"/>
      <path d="M 9.421875 54.6875 
L 18.40625 54.6875 
L 18.40625 0 
L 9.421875 0 
z
M 9.421875 75.984375 
L 18.40625 75.984375 
L 18.40625 64.59375 
L 9.421875 64.59375 
z
" id="DejaVuSans-69"/>
      <path d="M 54.890625 33.015625 
L 54.890625 0 
L 45.90625 0 
L 45.90625 32.71875 
Q 45.90625 40.484375 42.875 44.328125 
Q 39.84375 48.1875 33.796875 48.1875 
Q 26.515625 48.1875 22.3125 43.546875 
Q 18.109375 38.921875 18.109375 30.90625 
L 18.109375 0 
L 9.078125 0 
L 9.078125 54.6875 
L 18.109375 54.6875 
L 18.109375 46.1875 
Q 21.34375 51.125 25.703125 53.5625 
Q 30.078125 56 35.796875 56 
Q 45.21875 56 50.046875 50.171875 
Q 54.890625 44.34375 54.890625 33.015625 
" id="DejaVuSans-6e"/>
      <path d="M 18.3125 70.21875 
L 18.3125 54.6875 
L 36.8125 54.6875 
L 36.8125 47.703125 
L 18.3125 47.703125 
L 18.3125 18.015625 
Q 18.3125 11.328125 20.140625 9.421875 
Q 21.96875 7.515625 27.59375 7.515625 
L 36.8125 7.515625 
L 36.8125 0 
L 27.59375 0 
Q 17.1875 0 13.234375 3.875 
Q 9.28125 7.765625 9.28125 18.015625 
L 9.28125 47.703125 
L 2.6875 47.703125 
L 2.6875 54.6875 
L 9.28125 54.6875 
L 9.28125 70.21875 
z
" id="DejaVuSans-74"/>
      <path d="M 44.28125 53.078125 
L 44.28125 44.578125 
Q 40.484375 46.53125 36.375 47.5 
Q 32.28125 48.484375 27.875 48.484375 
Q 21.1875 48.484375 17.84375 46.4375 
Q 14.5 44.390625 14.5 40.28125 
Q 14.5 37.15625 16.890625 35.375 
Q 19.28125 33.59375 26.515625 31.984375 
L 29.59375 31.296875 
Q 39.15625 29.25 43.1875 25.515625 
Q 47.21875 21.78125 47.21875 15.09375 
Q 47.21875 7.46875 41.1875 3.015625 
Q 35.15625 -1.421875 24.609375 -1.421875 
Q 20.21875 -1.421875 15.453125 -0.5625 
Q 10.6875 0.296875 5.421875 2 
L 5.421875 11.28125 
Q 10.40625 8.6875 15.234375 7.390625 
Q 20.0625 6.109375 24.8125 6.109375 
Q 31.15625 6.109375 34.5625 8.28125 
Q 37.984375 10.453125 37.984375 14.40625 
Q 37.984375 18.0625 35.515625 20.015625 
Q 33.0625 21.96875 24.703125 23.78125 
L 21.578125 24.515625 
Q 13.234375 26.265625 9.515625 29.90625 
Q 5.8125 33.546875 5.8125 39.890625 
Q 5.8125 47.609375 11.28125 51.796875 
Q 16.75 56 26.8125 56 
Q 31.78125 56 36.171875 55.265625 
Q 40.578125 54.546875 44.28125 53.078125 
" id="DejaVuSans-73"/>
     </defs>
     <g transform="translate(191.738906 335.860562)scale(0.1 -0.1)">
      <use xlink:href="#DejaVuSans-4e"/>
      <use x="74.804688" xlink:href="#DejaVuSans-75"/>
      <use x="138.183594" xlink:href="#DejaVuSans-6d"/>
      <use x="235.595703" xlink:href="#DejaVuSans-62"/>
      <use x="299.072266" xlink:href="#DejaVuSans-65"/>
      <use x="360.595703" xlink:href="#DejaVuSans-72"/>
      <use x="401.708984" xlink:href="#DejaVuSans-20"/>
      <use x="433.496094" xlink:href="#DejaVuSans-6f"/>
      <use x="494.677734" xlink:href="#DejaVuSans-66"/>
      <use x="529.882812" xlink:href="#DejaVuSans-20"/>
      <use x="561.669922" xlink:href="#DejaVuSans-63"/>
      <use x="616.650391" xlink:href="#DejaVuSans-6c"/>
      <use x="644.433594" xlink:href="#DejaVuSans-69"/>
      <use x="672.216797" xlink:href="#DejaVuSans-65"/>
      <use x="733.740234" xlink:href="#DejaVuSans-6e"/>
      <use x="797.119141" xlink:href="#DejaVuSans-74"/>
      <use x="836.328125" xlink:href="#DejaVuSans-73"/>
     </g>
    </g>
   </g>
   <g id="matplotlib.axis_2">
    <g id="ytick_1">
     <g id="line2d_13">
      <path clip-path="url(#p0f32f4cae6)" d="M 57.6 295.86197 
L 414.72 295.86197 
" style="fill:none;stroke:#b0b0b0;stroke-linecap:square;stroke-width:0.8;"/>
     </g>
     <g id="line2d_14">
      <defs>
       <path d="M 0 0 
L -3.5 0 
" id="m0edd707a67" style="stroke:#000000;stroke-width:0.8;"/>
      </defs>
      <g>
       <use style="stroke:#000000;stroke-width:0.8;" x="57.6" xlink:href="#m0edd707a67" y="295.86197"/>
      </g>
     </g>
     <g id="text_8">
      <!-- 0 -->
      <g transform="translate(44.2375 299.661189)scale(0.1 -0.1)">
       <use xlink:href="#DejaVuSans-30"/>
      </g>
     </g>
    </g>
    <g id="ytick_2">
     <g id="line2d_15">
      <path clip-path="url(#p0f32f4cae6)" d="M 57.6 255.779459 
L 414.72 255.779459 
" style="fill:none;stroke:#b0b0b0;stroke-linecap:square;stroke-width:0.8;"/>
     </g>
     <g id="line2d_16">
      <g>
       <use style="stroke:#000000;stroke-width:0.8;" x="57.6" xlink:href="#m0edd707a67" y="255.779459"/>
      </g>
     </g>
     <g id="text_9">
      <!-- 100 -->
      <g transform="translate(31.5125 259.578677)scale(0.1 -0.1)">
       <use xlink:href="#DejaVuSans-31"/>
       <use x="63.623047" xlink:href="#DejaVuSans-30"/>
       <use x="127.246094" xlink:href="#DejaVuSans-30"/>
      </g>
     </g>
    </g>
    <g id="ytick_3">
     <g id="line2d_17">
      <path clip-path="url(#p0f32f4cae6)" d="M 57.6 215.696948 
L 414.72 215.696948 
" style="fill:none;stroke:#b0b0b0;stroke-linecap:square;stroke-width:0.8;"/>
     </g>
     <g id="line2d_18">
      <g>
       <use style="stroke:#000000;stroke-width:0.8;" x="57.6" xlink:href="#m0edd707a67" y="215.696948"/>
      </g>
     </g>
     <g id="text_10">
      <!-- 200 -->
      <g transform="translate(31.5125 219.496166)scale(0.1 -0.1)">
       <use xlink:href="#DejaVuSans-32"/>
       <use x="63.623047" xlink:href="#DejaVuSans-30"/>
       <use x="127.246094" xlink:href="#DejaVuSans-30"/>
      </g>
     </g>
    </g>
    <g id="ytick_4">
     <g id="line2d_19">
      <path clip-path="url(#p0f32f4cae6)" d="M 57.6 175.614436 
L 414.72 175.614436 
" style="fill:none;stroke:#b0b0b0;stroke-linecap:square;stroke-width:0.8;"/>
     </g>
     <g id="line2d_20">
      <g>
       <use style="stroke:#000000;stroke-width:0.8;" x="57.6" xlink:href="#m0edd707a67" y="175.614436"/>
      </g>
     </g>
     <g id="text_11">
      <!-- 300 -->
      <defs>
       <path d="M 40.578125 39.3125 
Q 47.65625 37.796875 51.625 33 
Q 55.609375 28.21875 55.609375 21.1875 
Q 55.609375 10.40625 48.1875 4.484375 
Q 40.765625 -1.421875 27.09375 -1.421875 
Q 22.515625 -1.421875 17.65625 -0.515625 
Q 12.796875 0.390625 7.625 2.203125 
L 7.625 11.71875 
Q 11.71875 9.328125 16.59375 8.109375 
Q 21.484375 6.890625 26.8125 6.890625 
Q 36.078125 6.890625 40.9375 10.546875 
Q 45.796875 14.203125 45.796875 21.1875 
Q 45.796875 27.640625 41.28125 31.265625 
Q 36.765625 34.90625 28.71875 34.90625 
L 20.21875 34.90625 
L 20.21875 43.015625 
L 29.109375 43.015625 
Q 36.375 43.015625 40.234375 45.921875 
Q 44.09375 48.828125 44.09375 54.296875 
Q 44.09375 59.90625 40.109375 62.90625 
Q 36.140625 65.921875 28.71875 65.921875 
Q 24.65625 65.921875 20.015625 65.03125 
Q 15.375 64.15625 9.8125 62.3125 
L 9.8125 71.09375 
Q 15.4375 72.65625 20.34375 73.4375 
Q 25.25 74.21875 29.59375 74.21875 
Q 40.828125 74.21875 47.359375 69.109375 
Q 53.90625 64.015625 53.90625 55.328125 
Q 53.90625 49.265625 50.4375 45.09375 
Q 46.96875 40.921875 40.578125 39.3125 
" id="DejaVuSans-33"/>
      </defs>
      <g transform="translate(31.5125 179.413655)scale(0.1 -0.1)">
       <use xlink:href="#DejaVuSans-33"/>
       <use x="63.623047" xlink:href="#DejaVuSans-30"/>
       <use x="127.246094" xlink:href="#DejaVuSans-30"/>
      </g>
     </g>
    </g>
    <g id="ytick_5">
     <g id="line2d_21">
      <path clip-path="url(#p0f32f4cae6)" d="M 57.6 135.531925 
L 414.72 135.531925 
" style="fill:none;stroke:#b0b0b0;stroke-linecap:square;stroke-width:0.8;"/>
     </g>
     <g id="line2d_22">
      <g>
       <use style="stroke:#000000;stroke-width:0.8;" x="57.6" xlink:href="#m0edd707a67" y="135.531925"/>
      </g>
     </g>
     <g id="text_12">
      <!-- 400 -->
      <g transform="translate(31.5125 139.331144)scale(0.1 -0.1)">
       <use xlink:href="#DejaVuSans-34"/>
       <use x="63.623047" xlink:href="#DejaVuSans-30"/>
       <use x="127.246094" xlink:href="#DejaVuSans-30"/>
      </g>
     </g>
    </g>
    <g id="ytick_6">
     <g id="line2d_23">
      <path clip-path="url(#p0f32f4cae6)" d="M 57.6 95.449414 
L 414.72 95.449414 
" style="fill:none;stroke:#b0b0b0;stroke-linecap:square;stroke-width:0.8;"/>
     </g>
     <g id="line2d_24">
      <g>
       <use style="stroke:#000000;stroke-width:0.8;" x="57.6" xlink:href="#m0edd707a67" y="95.449414"/>
      </g>
     </g>
     <g id="text_13">
      <!-- 500 -->
      <defs>
       <path d="M 10.796875 72.90625 
L 49.515625 72.90625 
L 49.515625 64.59375 
L 19.828125 64.59375 
L 19.828125 46.734375 
Q 21.96875 47.46875 24.109375 47.828125 
Q 26.265625 48.1875 28.421875 48.1875 
Q 40.625 48.1875 47.75 41.5 
Q 54.890625 34.8125 54.890625 23.390625 
Q 54.890625 11.625 47.5625 5.09375 
Q 40.234375 -1.421875 26.90625 -1.421875 
Q 22.3125 -1.421875 17.546875 -0.640625 
Q 12.796875 0.140625 7.71875 1.703125 
L 7.71875 11.625 
Q 12.109375 9.234375 16.796875 8.0625 
Q 21.484375 6.890625 26.703125 6.890625 
Q 35.15625 6.890625 40.078125 11.328125 
Q 45.015625 15.765625 45.015625 23.390625 
Q 45.015625 31 40.078125 35.4375 
Q 35.15625 39.890625 26.703125 39.890625 
Q 22.75 39.890625 18.8125 39.015625 
Q 14.890625 38.140625 10.796875 36.28125 
z
" id="DejaVuSans-35"/>
      </defs>
      <g transform="translate(31.5125 99.248633)scale(0.1 -0.1)">
       <use xlink:href="#DejaVuSans-35"/>
       <use x="63.623047" xlink:href="#DejaVuSans-30"/>
       <use x="127.246094" xlink:href="#DejaVuSans-30"/>
      </g>
     </g>
    </g>
    <g id="ytick_7">
     <g id="line2d_25">
      <path clip-path="url(#p0f32f4cae6)" d="M 57.6 55.366903 
L 414.72 55.366903 
" style="fill:none;stroke:#b0b0b0;stroke-linecap:square;stroke-width:0.8;"/>
     </g>
     <g id="line2d_26">
      <g>
       <use style="stroke:#000000;stroke-width:0.8;" x="57.6" xlink:href="#m0edd707a67" y="55.366903"/>
      </g>
     </g>
     <g id="text_14">
      <!-- 600 -->
      <g transform="translate(31.5125 59.166122)scale(0.1 -0.1)">
       <use xlink:href="#DejaVuSans-36"/>
       <use x="63.623047" xlink:href="#DejaVuSans-30"/>
       <use x="127.246094" xlink:href="#DejaVuSans-30"/>
      </g>
     </g>
    </g>
    <g id="text_15">
     <!-- Successful download requests per second -->
     <defs>
      <path d="M 53.515625 70.515625 
L 53.515625 60.890625 
Q 47.90625 63.578125 42.921875 64.890625 
Q 37.9375 66.21875 33.296875 66.21875 
Q 25.25 66.21875 20.875 63.09375 
Q 16.5 59.96875 16.5 54.203125 
Q 16.5 49.359375 19.40625 46.890625 
Q 22.3125 44.4375 30.421875 42.921875 
L 36.375 41.703125 
Q 47.40625 39.59375 52.65625 34.296875 
Q 57.90625 29 57.90625 20.125 
Q 57.90625 9.515625 50.796875 4.046875 
Q 43.703125 -1.421875 29.984375 -1.421875 
Q 24.8125 -1.421875 18.96875 -0.25 
Q 13.140625 0.921875 6.890625 3.21875 
L 6.890625 13.375 
Q 12.890625 10.015625 18.65625 8.296875 
Q 24.421875 6.59375 29.984375 6.59375 
Q 38.421875 6.59375 43.015625 9.90625 
Q 47.609375 13.234375 47.609375 19.390625 
Q 47.609375 24.75 44.3125 27.78125 
Q 41.015625 30.8125 33.5 32.328125 
L 27.484375 33.5 
Q 16.453125 35.6875 11.515625 40.375 
Q 6.59375 45.0625 6.59375 53.421875 
Q 6.59375 63.09375 13.40625 68.65625 
Q 20.21875 74.21875 32.171875 74.21875 
Q 37.3125 74.21875 42.625 73.28125 
Q 47.953125 72.359375 53.515625 70.515625 
" id="DejaVuSans-53"/>
      <path d="M 45.40625 46.390625 
L 45.40625 75.984375 
L 54.390625 75.984375 
L 54.390625 0 
L 45.40625 0 
L 45.40625 8.203125 
Q 42.578125 3.328125 38.25 0.953125 
Q 33.9375 -1.421875 27.875 -1.421875 
Q 17.96875 -1.421875 11.734375 6.484375 
Q 5.515625 14.40625 5.515625 27.296875 
Q 5.515625 40.1875 11.734375 48.09375 
Q 17.96875 56 27.875 56 
Q 33.9375 56 38.25 53.625 
Q 42.578125 51.265625 45.40625 46.390625 
M 14.796875 27.296875 
Q 14.796875 17.390625 18.875 11.75 
Q 22.953125 6.109375 30.078125 6.109375 
Q 37.203125 6.109375 41.296875 11.75 
Q 45.40625 17.390625 45.40625 27.296875 
Q 45.40625 37.203125 41.296875 42.84375 
Q 37.203125 48.484375 30.078125 48.484375 
Q 22.953125 48.484375 18.875 42.84375 
Q 14.796875 37.203125 14.796875 27.296875 
" id="DejaVuSans-64"/>
      <path d="M 4.203125 54.6875 
L 13.1875 54.6875 
L 24.421875 12.015625 
L 35.59375 54.6875 
L 46.1875 54.6875 
L 57.421875 12.015625 
L 68.609375 54.6875 
L 77.59375 54.6875 
L 63.28125 0 
L 52.6875 0 
L 40.921875 44.828125 
L 29.109375 0 
L 18.5 0 
z
" id="DejaVuSans-77"/>
      <path d="M 34.28125 27.484375 
Q 23.390625 27.484375 19.1875 25 
Q 14.984375 22.515625 14.984375 16.5 
Q 14.984375 11.71875 18.140625 8.90625 
Q 21.296875 6.109375 26.703125 6.109375 
Q 34.1875 6.109375 38.703125 11.40625 
Q 43.21875 16.703125 43.21875 25.484375 
L 43.21875 27.484375 
z
M 52.203125 31.203125 
L 52.203125 0 
L 43.21875 0 
L 43.21875 8.296875 
Q 40.140625 3.328125 35.546875 0.953125 
Q 30.953125 -1.421875 24.3125 -1.421875 
Q 15.921875 -1.421875 10.953125 3.296875 
Q 6 8.015625 6 15.921875 
Q 6 25.140625 12.171875 29.828125 
Q 18.359375 34.515625 30.609375 34.515625 
L 43.21875 34.515625 
L 43.21875 35.40625 
Q 43.21875 41.609375 39.140625 45 
Q 35.0625 48.390625 27.6875 48.390625 
Q 23 48.390625 18.546875 47.265625 
Q 14.109375 46.140625 10.015625 43.890625 
L 10.015625 52.203125 
Q 14.9375 54.109375 19.578125 55.046875 
Q 24.21875 56 28.609375 56 
Q 40.484375 56 46.34375 49.84375 
Q 52.203125 43.703125 52.203125 31.203125 
" id="DejaVuSans-61"/>
      <path d="M 14.796875 27.296875 
Q 14.796875 17.390625 18.875 11.75 
Q 22.953125 6.109375 30.078125 6.109375 
Q 37.203125 6.109375 41.296875 11.75 
Q 45.40625 17.390625 45.40625 27.296875 
Q 45.40625 37.203125 41.296875 42.84375 
Q 37.203125 48.484375 30.078125 48.484375 
Q 22.953125 48.484375 18.875 42.84375 
Q 14.796875 37.203125 14.796875 27.296875 
M 45.40625 8.203125 
Q 42.578125 3.328125 38.25 0.953125 
Q 33.9375 -1.421875 27.875 -1.421875 
Q 17.96875 -1.421875 11.734375 6.484375 
Q 5.515625 14.40625 5.515625 27.296875 
Q 5.515625 40.1875 11.734375 48.09375 
Q 17.96875 56 27.875 56 
Q 33.9375 56 38.25 53.625 
Q 42.578125 51.265625 45.40625 46.390625 
L 45.40625 54.6875 
L 54.390625 54.6875 
L 54.390625 -20.796875 
L 45.40625 -20.796875 
z
" id="DejaVuSans-71"/>
      <path d="M 18.109375 8.203125 
L 18.109375 -20.796875 
L 9.078125 -20.796875 
L 9.078125 54.6875 
L 18.109375 54.6875 
L 18.109375 46.390625 
Q 20.953125 51.265625 25.265625 53.625 
Q 29.59375 56 35.59375 56 
Q 45.5625 56 51.78125 48.09375 
Q 58.015625 40.1875 58.015625 27.296875 
Q 58.015625 14.40625 51.78125 6.484375 
Q 45.5625 -1.421875 35.59375 -1.421875 
Q 29.59375 -1.421875 25.265625 0.953125 
Q 20.953125 3.328125 18.109375 8.203125 
M 48.6875 27.296875 
Q 48.6875 37.203125 44.609375 42.84375 
Q 40.53125 48.484375 33.40625 48.484375 
Q 26.265625 48.484375 22.1875 42.84375 
Q 18.109375 37.203125 18.109375 27.296875 
Q 18.109375 17.390625 22.1875 11.75 
Q 26.265625 6.109375 33.40625 6.109375 
Q 40.53125 6.109375 44.609375 11.75 
Q 48.6875 17.390625 48.6875 27.296875 
" id="DejaVuSans-70"/>
     </defs>
     <g transform="translate(25.432812 279.366281)rotate(-90)scale(0.1 -0.1)">
      <use xlink:href="#DejaVuSans-53"/>
      <use x="63.476562" xlink:href="#DejaVuSans-75"/>
      <use x="126.855469" xlink:href="#DejaVuSans-63"/>
      <use x="181.835938" xlink:href="#DejaVuSans-63"/>
      <use x="236.816406" xlink:href="#DejaVuSans-65"/>
      <use x="298.339844" xlink:href="#DejaVuSans-73"/>
      <use x="350.439453" xlink:href="#DejaVuSans-73"/>
      <use x="402.539062" xlink:href="#DejaVuSans-66"/>
      <use x="437.744141" xlink:href="#DejaVuSans-75"/>
      <use x="501.123047" xlink:href="#DejaVuSans-6c"/>
      <use x="528.90625" xlink:href="#DejaVuSans-20"/>
      <use x="560.693359" xlink:href="#DejaVuSans-64"/>
      <use x="624.169922" xlink:href="#DejaVuSans-6f"/>
      <use x="685.351562" xlink:href="#DejaVuSans-77"/>
      <use x="767.138672" xlink:href="#DejaVuSans-6e"/>
      <use x="830.517578" xlink:href="#DejaVuSans-6c"/>
      <use x="858.300781" xlink:href="#DejaVuSans-6f"/>
      <use x="919.482422" xlink:href="#DejaVuSans-61"/>
      <use x="980.761719" xlink:href="#DejaVuSans-64"/>
      <use x="1044.238281" xlink:href="#DejaVuSans-20"/>
      <use x="1076.025391" xlink:href="#DejaVuSans-72"/>
      <use x="1117.107422" xlink:href="#DejaVuSans-65"/>
      <use x="1178.630859" xlink:href="#DejaVuSans-71"/>
      <use x="1242.107422" xlink:href="#DejaVuSans-75"/>
      <use x="1305.486328" xlink:href="#DejaVuSans-65"/>
      <use x="1367.009766" xlink:href="#DejaVuSans-73"/>
      <use x="1419.109375" xlink:href="#DejaVuSans-74"/>
      <use x="1458.318359" xlink:href="#DejaVuSans-73"/>
      <use x="1510.417969" xlink:href="#DejaVuSans-20"/>
      <use x="1542.205078" xlink:href="#DejaVuSans-70"/>
      <use x="1605.681641" xlink:href="#DejaVuSans-65"/>
      <use x="1667.205078" xlink:href="#DejaVuSans-72"/>
      <use x="1708.318359" xlink:href="#DejaVuSans-20"/>
      <use x="1740.105469" xlink:href="#DejaVuSans-73"/>
      <use x="1792.205078" xlink:href="#DejaVuSans-65"/>
      <use x="1853.728516" xlink:href="#DejaVuSans-63"/>
      <use x="1908.708984" xlink:href="#DejaVuSans-6f"/>
      <use x="1969.890625" xlink:href="#DejaVuSans-6e"/>
      <use x="2033.269531" xlink:href="#DejaVuSans-64"/>
     </g>
    </g>
   </g>
   <g id="line2d_27">
    <path clip-path="url(#p0f32f4cae6)" d="M 57.6 295.488 
L 57.95712 295.471967 
L 60.81408 292.351143 
L 61.1712 292.095015 
L 61.88544 291.102572 
L 62.24256 290.964689 
L 63.31392 289.841977 
L 63.67104 289.163381 
L 64.02816 289.048745 
L 64.38528 288.416243 
L 64.7424 288.38578 
L 65.09952 287.547655 
L 65.45664 287.645055 
L 66.17088 286.478654 
L 66.528 285.910685 
L 66.88512 285.561566 
L 67.24224 285.686624 
L 67.95648 284.474929 
L 68.3136 284.524231 
L 68.67072 284.241649 
L 69.02784 283.271652 
L 69.38496 282.645964 
L 69.74208 282.593456 
L 70.0992 282.421502 
L 70.45632 281.704025 
L 70.81344 281.689596 
L 71.17056 281.312018 
L 71.52768 281.233056 
L 71.8848 280.133192 
L 72.95616 278.656552 
L 73.31328 278.707056 
L 73.6704 278.337495 
L 74.02752 277.555485 
L 74.38464 277.723431 
L 74.74176 277.220396 
L 75.09888 276.992727 
L 75.456 276.387481 
L 76.17024 276.368642 
L 76.52736 275.937354 
L 76.88448 274.771755 
L 77.59872 274.735681 
L 77.95584 274.067104 
L 78.31296 273.971307 
L 78.67008 272.229722 
L 79.0272 272.980868 
L 79.38432 272.065384 
L 79.74144 272.694679 
L 80.45568 270.438835 
L 80.8128 270.999189 
L 81.16992 269.453607 
L 81.52704 269.281253 
L 81.88416 268.81389 
L 82.24128 269.326145 
L 82.5984 268.627106 
L 82.95552 268.785833 
L 83.31264 268.053124 
L 83.66976 267.935282 
L 84.02688 268.121265 
L 84.384 267.151268 
L 84.74112 265.66581 
L 85.09824 265.542757 
L 85.45536 266.600133 
L 85.81248 264.285368 
L 86.1696 265.576025 
L 86.52672 263.8633 
L 86.88384 265.276609 
L 87.24096 263.510974 
L 87.59808 264.516644 
L 87.9552 261.970603 
L 88.31232 261.448729 
L 88.66944 263.279698 
L 89.02656 261.93012 
L 89.38368 262.59068 
L 90.09792 259.887515 
L 90.45504 259.891924 
L 90.81216 260.489955 
L 91.16928 260.30758 
L 91.5264 257.991612 
L 91.88352 258.718709 
L 92.24064 258.778031 
L 92.59776 257.614837 
L 92.95488 257.552308 
L 93.312 256.671695 
L 93.66912 256.163449 
L 94.02624 255.072403 
L 94.38336 256.380296 
L 94.74048 254.666367 
L 95.0976 256.423985 
L 95.45472 255.866839 
L 96.16896 252.966869 
L 96.52608 252.829386 
L 96.8832 252.869869 
L 97.24032 254.481587 
L 97.59744 251.406457 
L 97.95456 251.583221 
L 98.31168 252.828985 
L 98.6688 249.973507 
L 99.02592 252.311921 
L 99.38304 249.277274 
L 99.74016 248.955411 
L 100.09728 250.500993 
L 100.4544 249.763074 
L 100.81152 250.258093 
L 101.16864 249.939437 
L 101.52576 249.307736 
L 101.88288 246.333614 
L 102.24 248.455983 
L 102.59712 247.829093 
L 103.31136 245.414522 
L 104.0256 245.552807 
L 104.38272 245.853426 
L 104.73984 243.138236 
L 105.09696 242.739015 
L 105.45408 243.869742 
L 105.8112 241.928546 
L 106.16832 243.498177 
L 106.52544 241.122086 
L 107.23968 241.215879 
L 107.5968 240.799021 
L 107.95392 242.787514 
L 108.31104 242.040376 
L 108.66816 239.883937 
L 109.3824 240.610633 
L 110.09664 237.753151 
L 110.45376 237.586408 
L 110.81088 239.930834 
L 111.168 239.597748 
L 111.52512 235.49851 
L 111.88224 238.101067 
L 112.23936 235.458828 
L 112.9536 237.234884 
L 113.31072 236.502176 
L 113.66784 237.178769 
L 114.38208 234.365778 
L 114.7392 235.82879 
L 115.09632 235.227552 
L 115.45344 233.146468 
L 115.81056 233.865949 
L 116.16768 233.987399 
L 116.5248 233.934089 
L 116.88192 229.623215 
L 117.59616 231.973654 
L 117.95328 228.710536 
L 118.3104 228.050778 
L 118.66752 230.137073 
L 119.02464 228.855234 
L 119.38176 230.397609 
L 119.73888 228.764648 
L 120.096 230.141482 
L 120.45312 227.948969 
L 120.81024 228.531368 
L 121.16736 226.277929 
L 121.52448 226.26871 
L 121.8816 225.809364 
L 122.23872 224.912318 
L 122.59584 223.044473 
L 122.95296 226.659514 
L 123.31008 226.978571 
L 123.6672 221.802717 
L 124.02432 225.212135 
L 124.38144 224.821731 
L 124.73856 225.454634 
L 125.09568 221.193062 
L 125.4528 223.212819 
L 125.80992 222.836044 
L 126.16704 223.843317 
L 126.52416 221.773456 
L 126.88128 221.884886 
L 127.2384 221.640382 
L 127.59552 218.449414 
L 127.95264 219.45308 
L 128.30976 221.876068 
L 128.66688 218.828193 
L 129.024 219.552084 
L 129.38112 219.131217 
L 129.73824 216.499399 
L 130.09536 218.891524 
L 130.45248 214.42553 
L 130.8096 217.253351 
L 131.52384 215.690534 
L 131.88096 217.024881 
L 132.23808 212.775734 
L 132.5952 211.800527 
L 132.95232 216.846915 
L 133.30944 215.478899 
L 133.66656 216.03805 
L 134.02368 214.564617 
L 134.3808 215.101722 
L 134.73792 210.750365 
L 135.09504 210.350341 
L 135.45216 210.243722 
L 135.80928 208.787925 
L 136.1664 208.606351 
L 136.52352 209.561518 
L 136.88064 209.432452 
L 137.23776 211.564842 
L 137.59488 211.978894 
L 137.952 211.042166 
L 138.30912 210.81129 
L 138.66624 211.186463 
L 139.02336 207.992287 
L 139.38048 205.923629 
L 139.7376 209.138246 
L 140.09472 206.816667 
L 140.45184 208.68331 
L 140.80896 202.482946 
L 141.16608 204.196073 
L 141.5232 208.063634 
L 141.88032 203.233692 
L 142.23744 204.297481 
L 142.59456 202.101761 
L 143.3088 205.731233 
L 143.66592 200.933356 
L 144.02304 205.6182 
L 144.38016 203.329489 
L 144.73728 199.62827 
L 145.0944 198.883537 
L 145.45152 203.809276 
L 145.80864 203.428092 
L 146.16576 198.099523 
L 146.52288 201.589908 
L 146.88 200.635944 
L 147.23712 198.768901 
L 147.59424 201.684102 
L 147.95136 194.864864 
L 148.30848 195.420809 
L 148.6656 193.809091 
L 149.02272 194.012309 
L 149.37984 199.079941 
L 149.73696 196.93713 
L 150.09408 198.792149 
L 150.4512 196.374772 
L 150.80832 197.610516 
L 151.16544 196.212037 
L 151.52256 191.013336 
L 151.87968 193.821917 
L 152.2368 191.405343 
L 152.59392 189.846935 
L 152.95104 189.883009 
L 153.30816 188.734244 
L 153.66528 189.934314 
L 154.0224 188.851285 
L 154.37952 190.059372 
L 154.73664 189.6842 
L 155.09376 188.183109 
L 155.808 191.414161 
L 156.16512 191.212546 
L 156.52224 188.657286 
L 156.87936 189.167135 
L 157.23648 189.010413 
L 157.5936 188.274097 
L 157.95072 189.095788 
L 158.30784 184.910372 
L 158.66496 190.202066 
L 159.02208 188.904194 
L 159.3792 188.711798 
L 159.73632 181.731428 
L 160.09344 184.529188 
L 160.45056 184.222156 
L 160.80768 187.159001 
L 161.1648 179.874807 
L 161.52192 181.728623 
L 161.87904 181.106943 
L 162.23616 179.242305 
L 162.59328 184.263842 
L 162.9504 185.796196 
L 163.30752 182.856945 
L 163.66464 181.075278 
L 164.37888 179.991848 
L 164.736 183.25737 
L 165.45024 174.93143 
L 165.80736 174.743443 
L 166.16448 175.571949 
L 166.5216 174.731419 
L 166.87872 173.535757 
L 167.23584 180.018302 
L 167.95008 172.136878 
L 168.3072 176.033299 
L 168.66432 175.716647 
L 169.02144 172.984222 
L 169.37856 176.972833 
L 169.73568 176.196435 
L 170.44992 171.905602 
L 170.80704 168.951521 
L 171.16416 176.982853 
L 171.52128 175.167917 
L 171.8784 172.437497 
L 172.23552 171.087918 
L 172.59264 170.319938 
L 172.94976 169.114256 
L 173.30688 169.076578 
L 173.664 166.086022 
L 174.02112 166.592264 
L 174.37824 165.773779 
L 174.73536 167.713773 
L 175.09248 170.323144 
L 175.4496 168.571138 
L 175.80672 165.845126 
L 176.16384 167.864884 
L 176.52096 164.938059 
L 176.87808 170.289475 
L 177.2352 170.759242 
L 177.59232 169.16957 
L 177.94944 163.015301 
L 178.30656 167.192299 
L 178.66368 161.608805 
L 179.37792 167.188692 
L 179.73504 159.729737 
L 180.09216 160.361438 
L 180.44928 164.73444 
L 181.16352 160.846035 
L 181.52064 166.502078 
L 181.87776 158.698815 
L 182.23488 165.482379 
L 182.592 164.6178 
L 182.94912 159.417094 
L 183.30624 157.744451 
L 183.66336 158.906843 
L 184.02048 155.916688 
L 184.3776 158.857943 
L 184.73472 154.446862 
L 185.09184 154.179913 
L 185.44896 159.417895 
L 185.80608 157.687133 
L 186.1632 160.332578 
L 186.52032 160.664862 
L 186.87744 153.78991 
L 187.23456 154.701386 
L 187.59168 152.36177 
L 187.9488 152.182601 
L 188.30592 156.615326 
L 188.66304 151.323232 
L 189.02016 155.048902 
L 189.37728 153.92098 
L 189.7344 149.98608 
L 190.09152 147.655682 
L 190.44864 152.443538 
L 190.80576 152.29844 
L 191.16288 156.05858 
L 191.52 149.666622 
L 191.87712 145.457558 
L 192.23424 153.847629 
L 192.94848 145.618689 
L 193.3056 146.842809 
L 193.66272 151.774561 
L 194.01984 148.652535 
L 194.37696 148.664559 
L 194.73408 150.973713 
L 195.0912 149.473024 
L 195.44832 142.508286 
L 195.80544 141.687397 
L 196.16256 146.514533 
L 196.51968 143.924802 
L 196.8768 150.263851 
L 197.59104 139.992307 
L 198.30528 148.052099 
L 198.6624 140.993969 
L 199.01952 144.279533 
L 199.37664 138.193404 
L 199.73376 137.640265 
L 200.09088 142.705893 
L 200.448 144.308392 
L 200.80512 141.825681 
L 201.16224 141.836103 
L 201.51936 138.886431 
L 201.87648 134.778775 
L 202.2336 133.846055 
L 202.59072 135.143125 
L 202.94784 135.158356 
L 203.30496 138.358143 
L 203.66208 138.855968 
L 204.0192 142.348758 
L 204.37632 133.544634 
L 204.73344 132.53696 
L 205.09056 140.402752 
L 205.8048 135.714301 
L 206.16192 134.172727 
L 206.51904 138.218255 
L 206.87616 138.578998 
L 207.23328 134.769957 
L 207.5904 135.599264 
L 207.94752 134.887399 
L 208.30464 129.108302 
L 208.66176 128.128686 
L 209.01888 130.532835 
L 209.376 137.941285 
L 209.73312 135.013258 
L 210.09024 126.927814 
L 210.44736 126.443216 
L 210.80448 135.6654 
L 211.1616 128.819307 
L 211.51872 132.151366 
L 211.87584 128.188408 
L 212.23296 136.72438 
L 212.59008 128.262962 
L 213.30432 129.322744 
L 213.66144 131.240291 
L 214.37568 132.120904 
L 214.7328 133.844452 
L 215.08992 127.335052 
L 215.44704 126.177469 
L 215.80416 126.948656 
L 216.16128 125.898094 
L 216.5184 127.203581 
L 216.87552 125.922544 
L 217.23264 126.601943 
L 217.58976 126.543422 
L 217.94688 131.705248 
L 218.304 134.386768 
L 218.66112 123.974935 
L 219.01824 123.623812 
L 219.37536 132.753406 
L 219.73248 125.812317 
L 220.0896 123.461077 
L 220.44672 126.96028 
L 220.80384 123.823824 
L 221.16096 127.490171 
L 221.51808 124.937717 
L 221.8752 128.723911 
L 222.23232 122.030131 
L 222.58944 127.444477 
L 222.94656 127.738683 
L 223.30368 123.415784 
L 223.6608 124.114422 
L 224.01792 124.198194 
L 224.37504 119.749837 
L 224.73216 125.567413 
L 225.08928 121.657364 
L 225.4464 119.313339 
L 225.80352 122.358808 
L 226.16064 124.26874 
L 226.51776 130.058258 
L 226.87488 129.841411 
L 227.232 123.328003 
L 227.58912 119.854854 
L 227.94624 121.312655 
L 228.30336 129.43738 
L 228.66048 122.764042 
L 229.0176 128.455759 
L 229.37472 117.978992 
L 229.73184 118.329313 
L 230.08896 129.161612 
L 230.44608 127.390767 
L 230.8032 122.352395 
L 231.51744 117.080342 
L 231.87456 123.328805 
L 232.23168 121.181585 
L 232.94592 127.522237 
L 233.30304 115.921156 
L 233.66016 124.867973 
L 234.01728 121.309849 
L 234.3744 122.231747 
L 234.73152 116.002123 
L 235.08864 123.370491 
L 235.44576 119.533392 
L 235.80288 124.5409 
L 236.16 115.964044 
L 236.51712 114.213641 
L 236.87424 124.892424 
L 237.23136 119.383082 
L 237.58848 118.756593 
L 237.9456 114.012828 
L 238.30272 122.209701 
L 238.65984 115.464215 
L 239.01696 121.614075 
L 239.37408 113.125 
L 239.7312 120.054865 
L 240.08832 122.191263 
L 240.80256 116.885942 
L 241.15968 117.583378 
L 241.5168 112.363833 
L 241.87392 113.278516 
L 242.23104 116.016953 
L 242.58816 112.891319 
L 242.94528 121.275779 
L 243.3024 111.908496 
L 243.65952 114.047299 
L 244.01664 119.043984 
L 244.37376 113.222801 
L 244.73088 111.822318 
L 245.088 119.977907 
L 245.44512 121.978826 
L 245.80224 118.069979 
L 246.15936 117.166119 
L 246.51648 119.640412 
L 246.8736 112.534985 
L 247.23072 111.756182 
L 247.58784 120.511806 
L 247.94496 112.866869 
L 248.30208 118.350156 
L 248.6592 115.372827 
L 249.01632 120.90702 
L 249.37344 115.905524 
L 249.73056 119.780701 
L 250.4448 118.389036 
L 250.80192 108.073802 
L 251.15904 116.124374 
L 251.51616 116.216965 
L 251.87328 111.291225 
L 252.2304 118.188223 
L 252.58752 107.277763 
L 252.94464 118.923336 
L 253.30176 118.9546 
L 253.65888 110.857131 
L 254.016 115.103072 
L 254.37312 114.109426 
L 254.73024 111.187812 
L 255.08736 107.13066 
L 255.44448 105.903735 
L 255.8016 116.186101 
L 256.15872 105.658029 
L 256.51584 110.366121 
L 256.87296 113.132616 
L 257.23008 114.299418 
L 257.5872 106.145833 
L 257.94432 108.381235 
L 258.30144 112.723373 
L 258.65856 106.66891 
L 259.3728 109.26305 
L 259.72992 105.961454 
L 260.08704 107.765567 
L 260.44416 107.49982 
L 260.80128 108.91794 
L 261.1584 109.691532 
L 261.51552 105.232754 
L 261.87264 111.715699 
L 262.22976 116.101527 
L 262.58688 112.558233 
L 262.944 115.774855 
L 263.30112 113.580337 
L 263.65824 113.564705 
L 264.01536 104.476797 
L 264.7296 114.035675 
L 265.08672 105.513331 
L 265.44384 107.683398 
L 265.80096 102.343205 
L 266.15808 111.99307 
L 266.5152 107.167136 
L 266.87232 108.159178 
L 267.22944 112.962265 
L 267.94368 104.023464 
L 268.3008 105.947826 
L 268.65792 102.042586 
L 269.37216 103.485958 
L 269.72928 109.273471 
L 270.0864 99.963507 
L 270.80064 111.368184 
L 271.15776 112.637997 
L 271.51488 107.147495 
L 271.872 110.043056 
L 272.22912 107.646923 
L 272.58624 103.039038 
L 272.94336 104.184596 
L 273.30048 109.119955 
L 273.6576 111.544947 
L 274.01472 100.089767 
L 274.37184 99.160253 
L 274.72896 104.481607 
L 275.08608 101.057358 
L 275.4432 110.51162 
L 275.80032 109.296319 
L 276.15744 108.594073 
L 276.51456 105.637587 
L 276.87168 97.762977 
L 277.2288 104.477599 
L 277.58592 103.255483 
L 277.94304 101.585646 
L 278.30016 97.456746 
L 278.65728 103.506801 
L 279.0144 103.959332 
L 279.37152 107.868579 
L 279.72864 108.283834 
L 280.08576 105.309311 
L 280.44288 100.032048 
L 280.8 97.315255 
L 281.15712 105.559025 
L 281.51424 102.561655 
L 281.87136 104.495235 
L 282.22848 107.373961 
L 282.5856 106.920628 
L 282.94272 106.157056 
L 283.29984 99.909395 
L 283.65696 100.706636 
L 284.01408 100.036858 
L 284.3712 97.403437 
L 284.72832 107.149098 
L 285.44256 99.971523 
L 285.79968 106.269287 
L 286.1568 96.772939 
L 286.51392 103.815035 
L 286.87104 99.470893 
L 287.22816 99.466483 
L 287.58528 103.342462 
L 287.9424 103.896403 
L 288.29952 97.990245 
L 288.65664 103.084331 
L 289.37088 92.988749 
L 289.728 104.126075 
L 290.08512 100.486984 
L 290.44224 102.914782 
L 290.79936 94.037708 
L 291.15648 97.65275 
L 291.5136 91.423928 
L 291.87072 103.92406 
L 292.22784 97.089591 
L 292.58496 104.174575 
L 292.94208 104.192612 
L 293.2992 92.189504 
L 293.65632 94.701074 
L 294.01344 103.09836 
L 294.37056 98.670044 
L 294.72768 99.089307 
L 295.0848 91.944599 
L 295.44192 96.931265 
L 295.79904 93.181145 
L 296.15616 99.475302 
L 296.51328 101.674629 
L 296.8704 101.506683 
L 297.58464 96.509597 
L 297.94176 89.430224 
L 298.29888 94.472203 
L 298.656 101.10185 
L 299.01312 101.195643 
L 299.37024 92.577101 
L 299.72736 90.893636 
L 300.08448 97.582605 
L 300.4416 100.206807 
L 300.79872 97.535709 
L 301.15584 100.848528 
L 301.51296 96.760914 
L 301.87008 94.112662 
L 302.2272 97.649142 
L 302.58432 93.43607 
L 302.94144 99.446843 
L 303.29856 96.589762 
L 303.65568 90.569368 
L 304.0128 87.586829 
L 304.36992 100.231258 
L 304.72704 94.862205 
L 305.08416 95.412538 
L 305.44128 89.036613 
L 305.7984 90.83231 
L 306.15552 86.136243 
L 306.51264 87.477404 
L 306.86976 86.495783 
L 307.22688 90.665967 
L 307.584 87.270177 
L 307.94112 98.19707 
L 308.29824 87.560775 
L 308.65536 98.309702 
L 309.01248 91.086834 
L 309.3696 94.227699 
L 309.72672 86.313808 
L 310.44096 92.098917 
L 310.79808 85.992347 
L 311.1552 91.971455 
L 311.51232 90.069139 
L 311.86944 92.423185 
L 312.22656 89.673124 
L 312.58368 95.699529 
L 312.9408 85.025957 
L 313.29792 87.666192 
L 313.65504 83.985014 
L 314.01216 93.359111 
L 314.36928 87.487424 
L 314.7264 85.976714 
L 315.08352 85.508951 
L 315.44064 93.967163 
L 315.79776 93.549102 
L 316.15488 95.028548 
L 316.512 91.560609 
L 316.86912 86.532659 
L 317.22624 93.580768 
L 317.58336 95.93321 
L 317.94048 92.009132 
L 318.2976 83.821077 
L 318.65472 83.112017 
L 319.01184 90.479984 
L 319.36896 86.799608 
L 319.72608 86.422432 
L 320.0832 94.24253 
L 320.44032 90.979813 
L 320.79744 93.345884 
L 321.51168 86.493378 
L 321.8688 86.478147 
L 322.58304 87.49023 
L 322.94016 89.471108 
L 323.29728 93.933494 
L 323.6544 86.072512 
L 324.01152 85.664872 
L 324.36864 89.694768 
L 324.72576 83.424661 
L 325.08288 90.687612 
L 325.44 81.604915 
L 325.79712 87.114657 
L 326.15424 85.902963 
L 326.51136 80.95157 
L 326.86848 83.126046 
L 327.2256 92.118958 
L 327.58272 88.381264 
L 327.93984 79.597583 
L 328.29696 85.069246 
L 328.65408 78.607545 
L 329.0112 82.604974 
L 329.36832 80.501043 
L 329.72544 91.958628 
L 330.08256 87.030884 
L 330.43968 89.850288 
L 330.7968 90.209828 
L 331.15392 83.421053 
L 331.51104 82.29233 
L 331.86816 84.334935 
L 332.5824 77.703283 
L 332.93952 90.830306 
L 333.29664 77.431524 
L 333.65376 84.073196 
L 334.368 91.271213 
L 335.08224 79.896598 
L 335.43936 89.686752 
L 335.79648 79.737471 
L 336.1536 85.852058 
L 336.51072 82.002533 
L 336.86784 90.503633 
L 337.22496 76.748518 
L 337.58208 81.329548 
L 337.9392 88.375252 
L 338.29632 75.618592 
L 338.65344 75.453452 
L 339.01056 89.402567 
L 339.36768 82.020971 
L 339.7248 80.866996 
L 340.08192 74.963243 
L 340.43904 86.117003 
L 341.15328 76.427056 
L 341.5104 80.695443 
L 341.86752 75.181292 
L 342.22464 81.851422 
L 342.58176 78.57588 
L 342.93888 88.309917 
L 343.296 88.558429 
L 343.65312 81.880683 
L 344.01024 86.668939 
L 344.36736 81.201685 
L 344.72448 84.416703 
L 345.0816 82.382115 
L 345.43872 86.571539 
L 346.15296 86.649299 
L 346.51008 72.753093 
L 347.22432 84.627136 
L 347.58144 75.164858 
L 347.93856 86.761931 
L 348.29568 82.568899 
L 348.6528 86.733071 
L 349.00992 75.695951 
L 349.36704 73.127865 
L 350.08128 78.834412 
L 350.4384 75.382105 
L 350.79552 84.12851 
L 351.15264 82.284313 
L 351.50976 85.898954 
L 351.86688 85.554245 
L 352.224 79.806813 
L 352.58112 85.544224 
L 352.93824 72.754296 
L 353.29536 85.155023 
L 354.0096 75.421787 
L 354.36672 75.959293 
L 354.72384 85.15382 
L 355.08096 76.592597 
L 355.43808 81.972472 
L 355.7952 75.195321 
L 356.15232 80.739533 
L 356.50944 80.964396 
L 356.86656 71.967075 
L 357.22368 74.320319 
L 357.5808 69.783781 
L 357.93792 78.270451 
L 358.29504 77.173392 
L 358.65216 70.734939 
L 359.00928 72.903002 
L 359.3664 73.605648 
L 359.72352 75.650257 
L 360.08064 82.664696 
L 360.43776 80.688629 
L 360.79488 70.172581 
L 361.152 75.435816 
L 361.50912 71.277255 
L 361.86624 69.99702 
L 362.22336 75.236606 
L 362.58048 68.764082 
L 362.9376 81.561626 
L 363.29472 67.593271 
L 364.00896 81.695101 
L 364.36608 67.289045 
L 364.7232 68.60776 
L 365.08032 68.657462 
L 365.43744 74.629355 
L 365.79456 75.133193 
L 366.5088 66.424866 
L 366.86592 80.163548 
L 367.58016 66.380776 
L 367.93728 72.680143 
L 368.2944 69.260303 
L 368.65152 68.019349 
L 369.00864 68.507954 
L 369.36576 74.400484 
L 369.72288 65.424006 
L 370.08 69.766545 
L 370.43712 67.308686 
L 370.79424 71.543002 
L 371.15136 73.316653 
L 371.50848 66.217239 
L 371.8656 75.279093 
L 372.22272 73.598433 
L 372.57984 71.006698 
L 372.93696 76.182954 
L 373.29408 64.4011 
L 374.00832 70.953388 
L 374.36544 78.273657 
L 374.72256 70.773017 
L 375.07968 70.568997 
L 375.4368 77.720519 
L 375.79392 72.689763 
L 376.15104 63.899668 
L 376.50816 74.014891 
L 376.86528 69.12282 
L 377.2224 69.752116 
L 377.57952 77.05555 
L 377.93664 62.618631 
L 378.29376 67.208079 
L 378.65088 78.173451 
L 379.008 75.515981 
L 379.36512 66.199603 
L 379.72224 71.04638 
L 380.07936 68.874309 
L 380.43648 65.5182 
L 380.7936 71.965071 
L 381.15072 66.701436 
L 381.50784 68.174067 
L 381.86496 66.045686 
L 382.22208 60.805699 
L 382.5792 63.825515 
L 382.93632 67.951609 
L 383.29344 62.573739 
L 383.65056 65.170284 
L 384.00768 70.111656 
L 384.3648 68.605756 
L 384.72192 63.549347 
L 385.07904 64.533373 
L 385.43616 63.0892 
L 385.79328 70.521299 
L 386.1504 60.77684 
L 386.50752 66.047289 
L 386.86464 63.16215 
L 387.22176 63.73533 
L 387.57888 72.809209 
L 388.29312 67.765225 
L 388.65024 65.422403 
L 389.00736 65.99919 
L 389.36448 63.404649 
L 389.7216 71.340986 
L 390.07872 66.286982 
L 390.43584 70.640344 
L 390.79296 71.920179 
L 391.15008 74.566025 
L 391.5072 69.688384 
L 391.86432 68.771296 
L 392.22144 60.070586 
L 392.57856 72.786762 
L 392.93568 66.84934 
L 393.2928 65.24604 
L 393.64992 58.348641 
L 394.00704 60.314287 
L 394.36416 66.960769 
L 394.72128 57.297277 
L 395.0784 69.568137 
L 395.43552 70.505667 
L 395.79264 56.99786 
L 396.14976 72.333028 
L 396.50688 72.151054 
L 396.864 70.762195 
L 397.22112 71.032351 
L 397.57824 71.034355 
L 397.93536 66.068533 
L 398.29248 56.162541 
L 398.6496 57.771052 
L 399.00672 66.691816 
L 399.36384 57.529755 
L 399.72096 64.725769 
L 400.4352 65.98957 
L 400.79232 60.129908 
L 401.14944 56.927315 
L 401.50656 69.264311 
L 401.86368 71.341788 
L 402.2208 54.997743 
L 402.57792 62.607408 
L 402.93504 66.897038 
L 403.29216 67.305078 
L 403.64928 64.266423 
L 404.0064 63.051121 
L 404.36352 71.019525 
L 404.72064 55.541262 
L 405.43488 61.280276 
L 405.792 54.1993 
L 406.14912 62.724048 
L 406.50624 57.537371 
L 406.86336 65.986364 
L 407.22048 63.953779 
L 407.5776 53.837354 
L 407.93472 59.816062 
L 408.29184 68.467872 
L 408.64896 64.563434 
L 409.00608 64.669653 
L 409.3632 62.002563 
L 409.72032 66.755547 
L 410.07744 68.055423 
L 410.43456 62.030621 
L 410.79168 64.778678 
L 411.50592 58.256051 
L 411.86304 63.003022 
L 412.57728 53.568 
L 412.9344 56.422676 
L 413.29152 54.4426 
L 413.64864 66.466953 
L 414.36288 58.830834 
L 414.72 66.882609 
L 414.72 66.882609 
" style="fill:none;stroke:#000080;stroke-linecap:square;stroke-width:0.5;"/>
   </g>
   <g id="patch_3">
    <path d="M 57.6 307.584 
L 57.6 41.472 
" style="fill:none;stroke:#000000;stroke-linecap:square;stroke-linejoin:miter;stroke-width:0.8;"/>
   </g>
   <g id="patch_4">
    <path d="M 414.72 307.584 
L 414.72 41.472 
" style="fill:none;stroke:#000000;stroke-linecap:square;stroke-linejoin:miter;stroke-width:0.8;"/>
   </g>
   <g id="patch_5">
    <path d="M 57.6 307.584 
L 414.72 307.584 
" style="fill:none;stroke:#000000;stroke-linecap:square;stroke-linejoin:miter;stroke-width:0.8;"/>
   </g>
   <g id="patch_6">
    <path d="M 57.6 41.472 
L 414.72 41.472 
" style="fill:none;stroke:#000000;stroke-linecap:square;stroke-linejoin:miter;stroke-width:0.8;"/>
   </g>
   <g id="text_16">
    <!-- Test -->
    <defs>
     <path d="M -0.296875 72.90625 
L 61.375 72.90625 
L 61.375 64.59375 
L 35.5 64.59375 
L 35.5 0 
L 25.59375 0 
L 25.59375 64.59375 
L -0.296875 64.59375 
z
" id="DejaVuSans-54"/>
    </defs>
    <g transform="translate(223.341563 35.472)scale(0.12 -0.12)">
     <use xlink:href="#DejaVuSans-54"/>
     <use x="60.818359" xlink:href="#DejaVuSans-65"/>
     <use x="122.341797" xlink:href="#DejaVuSans-73"/>
     <use x="174.441406" xlink:href="#DejaVuSans-74"/>
    </g>
   </g>
   <g id="legend_1">
    <g id="patch_7">
     <path d="M 64.6 64.150125 
L 306.276563 64.150125 
Q 308.276563 64.150125 308.276563 62.150125 
L 308.276563 48.472 
Q 308.276563 46.472 306.276563 46.472 
L 64.6 46.472 
Q 62.6 46.472 62.6 48.472 
L 62.6 62.150125 
Q 62.6 64.150125 64.6 64.150125 
z
" style="fill:#ffffff;opacity:0.8;stroke:#cccccc;stroke-linejoin:miter;"/>
    </g>
    <g id="line2d_28">
     <path d="M 66.6 54.570438 
L 86.6 54.570438 
" style="fill:none;stroke:#000080;stroke-linecap:square;stroke-width:0.5;"/>
    </g>
    <g id="line2d_29"/>
    <g id="text_17">
     <!-- Successful download requests per second -->
     <g transform="translate(94.6 58.070438)scale(0.1 -0.1)">
      <use xlink:href="#DejaVuSans-53"/>
      <use x="63.476562" xlink:href="#DejaVuSans-75"/>
      <use x="126.855469" xlink:href="#DejaVuSans-63"/>
      <use x="181.835938" xlink:href="#DejaVuSans-63"/>
      <use x="236.816406" xlink:href="#DejaVuSans-65"/>
      <use x="298.339844" xlink:href="#DejaVuSans-73"/>
      <use x="350.439453" xlink:href="#DejaVuSans-73"/>
      <use x="402.539062" xlink:href="#DejaVuSans-66"/>
      <use x="437.744141" xlink:href="#DejaVuSans-75"/>
      <use x="501.123047" xlink:href="#DejaVuSans-6c"/>
      <use x="528.90625" xlink:href="#DejaVuSans-20"/>
      <use x="560.693359" xlink:href="#DejaVuSans-64"/>
      <use x="624.169922" xlink:href="#DejaVuSans-6f"/>
      <use x="685.351562" xlink:href="#DejaVuSans-77"/>
      <use x="767.138672" xlink:href="#DejaVuSans-6e"/>
      <use x="830.517578" xlink:href="#DejaVuSans-6c"/>
      <use x="858.300781" xlink:href="#DejaVuSans-6f"/>
      <use x="919.482422" xlink:href="#DejaVuSans-61"/>
      <use x="980.761719" xlink:href="#DejaVuSans-64"/>
      <use x="1044.238281" xlink:href="#DejaVuSans-20"/>
      <use x="1076.025391" xlink:href="#DejaVuSans-72"/>
      <use x="1117.107422" xlink:href="#DejaVuSans-65"/>
      <use x="1178.630859" xlink:href="#DejaVuSans-71"/>
      <use x="1242.107422" xlink:href="#DejaVuSans-75"/>
      <use x="1305.486328" xlink:href="#DejaVuSans-65"/>
      <use x="1367.009766" xlink:href="#DejaVuSans-73"/>
      <use x="1419.109375" xlink:href="#DejaVuSans-74"/>
      <use x="1458.318359" xlink:href="#DejaVuSans-73"/>
      <use x="1510.417969" xlink:href="#DejaVuSans-20"/>
      <use x="1542.205078" xlink:href="#DejaVuSans-70"/>
      <use x="1605.681641" xlink:href="#DejaVuSans-65"/>
      <use x="1667.205078" xlink:href="#DejaVuSans-72"/>
      <use x="1708.318359" xlink:href="#DejaVuSans-20"/>
      <use x="1740.105469" xlink:href="#DejaVuSans-73"/>
      <use x="1792.205078" xlink:href="#DejaVuSans-65"/>
      <use x="1853.728516" xlink:href="#DejaVuSans-63"/>
      <use x="1908.708984" xlink:href="#DejaVuSans-6f"/>
      <use x="1969.890625" xlink:href="#DejaVuSans-6e"/>
      <use x="2033.269531" xlink:href="#DejaVuSans-64"/>
     </g>
    </g>
   </g>
  </g>
 </g>
 <defs>
  <clipPath id="p0f32f4cae6">
   <rect height="266.112" width="357.12" x="57.6" y="41.472"/>
  </clipPath>
 </defs>
</svg>
