<?xml version="1.0" encoding="utf-8" standalone="no"?>
<!DOCTYPE svg PUBLIC "-//W3C//DTD SVG 1.1//EN"
  "http://www.w3.org/Graphics/SVG/1.1/DTD/svg11.dtd">
<!-- Created with matplotlib (http://matplotlib.org/) -->
<svg height="345pt" version="1.1" viewBox="0 0 460 345" width="460pt" xmlns="http://www.w3.org/2000/svg" xmlns:xlink="http://www.w3.org/1999/xlink">
 <defs>
  <style type="text/css">
*{stroke-linecap:butt;stroke-linejoin:round;}
  </style>
 </defs>
 <g id="figure_1">
  <g id="patch_1">
   <path d="M 0 345.6 
L 460.8 345.6 
L 460.8 0 
L 0 0 
z
" style="fill:#ffffff;"/>
  </g>
  <g id="axes_1">
   <g id="patch_2">
    <path d="M 57.6 307.584 
L 414.72 307.584 
L 414.72 41.472 
L 57.6 41.472 
z
" style="fill:#ffffff;"/>
   </g>
   <g id="matplotlib.axis_1">
    <g id="xtick_1">
     <g id="line2d_1">
      <path clip-path="url(#p2669460e27)" d="M 57.6 307.584 
L 57.6 41.472 
" style="fill:none;stroke:#b0b0b0;stroke-linecap:square;stroke-width:0.8;"/>
     </g>
     <g id="line2d_2">
      <defs>
       <path d="M 0 0 
L 0 3.5 
" id="md71015037c" style="stroke:#000000;stroke-width:0.8;"/>
      </defs>
      <g>
       <use style="stroke:#000000;stroke-width:0.8;" x="57.6" xlink:href="#md71015037c" y="307.584"/>
      </g>
     </g>
     <g id="text_1">
      <!-- 0 -->
      <defs>
       <path d="M 31.78125 66.40625 
Q 24.171875 66.40625 20.328125 58.90625 
Q 16.5 51.421875 16.5 36.375 
Q 16.5 21.390625 20.328125 13.890625 
Q 24.171875 6.390625 31.78125 6.390625 
Q 39.453125 6.390625 43.28125 13.890625 
Q 47.125 21.390625 47.125 36.375 
Q 47.125 51.421875 43.28125 58.90625 
Q 39.453125 66.40625 31.78125 66.40625 
M 31.78125 74.21875 
Q 44.046875 74.21875 50.515625 64.515625 
Q 56.984375 54.828125 56.984375 36.375 
Q 56.984375 17.96875 50.515625 8.265625 
Q 44.046875 -1.421875 31.78125 -1.421875 
Q 19.53125 -1.421875 13.0625 8.265625 
Q 6.59375 17.96875 6.59375 36.375 
Q 6.59375 54.828125 13.0625 64.515625 
Q 19.53125 74.21875 31.78125 74.21875 
" id="DejaVuSans-30"/>
      </defs>
      <g transform="translate(54.41875 322.182437)scale(0.1 -0.1)">
       <use xlink:href="#DejaVuSans-30"/>
      </g>
     </g>
    </g>
    <g id="xtick_2">
     <g id="line2d_3">
      <path clip-path="url(#p2669460e27)" d="M 129.024 307.584 
L 129.024 41.472 
" style="fill:none;stroke:#b0b0b0;stroke-linecap:square;stroke-width:0.8;"/>
     </g>
     <g id="line2d_4">
      <g>
       <use style="stroke:#000000;stroke-width:0.8;" x="129.024" xlink:href="#md71015037c" y="307.584"/>
      </g>
     </g>
     <g id="text_2">
      <!-- 200 -->
      <defs>
       <path d="M 19.1875 8.296875 
L 53.609375 8.296875 
L 53.609375 0 
L 7.328125 0 
L 7.328125 8.296875 
Q 12.9375 14.109375 22.625 23.890625 
Q 32.328125 33.6875 34.8125 36.53125 
Q 39.546875 41.84375 41.421875 45.53125 
Q 43.3125 49.21875 43.3125 52.78125 
Q 43.3125 58.59375 39.234375 62.25 
Q 35.15625 65.921875 28.609375 65.921875 
Q 23.96875 65.921875 18.8125 64.3125 
Q 13.671875 62.703125 7.8125 59.421875 
L 7.8125 69.390625 
Q 13.765625 71.78125 18.9375 73 
Q 24.125 74.21875 28.421875 74.21875 
Q 39.75 74.21875 46.484375 68.546875 
Q 53.21875 62.890625 53.21875 53.421875 
Q 53.21875 48.921875 51.53125 44.890625 
Q 49.859375 40.875 45.40625 35.40625 
Q 44.1875 33.984375 37.640625 27.21875 
Q 31.109375 20.453125 19.1875 8.296875 
" id="DejaVuSans-32"/>
      </defs>
      <g transform="translate(119.48025 322.182437)scale(0.1 -0.1)">
       <use xlink:href="#DejaVuSans-32"/>
       <use x="63.623047" xlink:href="#DejaVuSans-30"/>
       <use x="127.246094" xlink:href="#DejaVuSans-30"/>
      </g>
     </g>
    </g>
    <g id="xtick_3">
     <g id="line2d_5">
      <path clip-path="url(#p2669460e27)" d="M 200.448 307.584 
L 200.448 41.472 
" style="fill:none;stroke:#b0b0b0;stroke-linecap:square;stroke-width:0.8;"/>
     </g>
     <g id="line2d_6">
      <g>
       <use style="stroke:#000000;stroke-width:0.8;" x="200.448" xlink:href="#md71015037c" y="307.584"/>
      </g>
     </g>
     <g id="text_3">
      <!-- 400 -->
      <defs>
       <path d="M 37.796875 64.3125 
L 12.890625 25.390625 
L 37.796875 25.390625 
z
M 35.203125 72.90625 
L 47.609375 72.90625 
L 47.609375 25.390625 
L 58.015625 25.390625 
L 58.015625 17.1875 
L 47.609375 17.1875 
L 47.609375 0 
L 37.796875 0 
L 37.796875 17.1875 
L 4.890625 17.1875 
L 4.890625 26.703125 
z
" id="DejaVuSans-34"/>
      </defs>
      <g transform="translate(190.90425 322.182437)scale(0.1 -0.1)">
       <use xlink:href="#DejaVuSans-34"/>
       <use x="63.623047" xlink:href="#DejaVuSans-30"/>
       <use x="127.246094" xlink:href="#DejaVuSans-30"/>
      </g>
     </g>
    </g>
    <g id="xtick_4">
     <g id="line2d_7">
      <path clip-path="url(#p2669460e27)" d="M 271.872 307.584 
L 271.872 41.472 
" style="fill:none;stroke:#b0b0b0;stroke-linecap:square;stroke-width:0.8;"/>
     </g>
     <g id="line2d_8">
      <g>
       <use style="stroke:#000000;stroke-width:0.8;" x="271.872" xlink:href="#md71015037c" y="307.584"/>
      </g>
     </g>
     <g id="text_4">
      <!-- 600 -->
      <defs>
       <path d="M 33.015625 40.375 
Q 26.375 40.375 22.484375 35.828125 
Q 18.609375 31.296875 18.609375 23.390625 
Q 18.609375 15.53125 22.484375 10.953125 
Q 26.375 6.390625 33.015625 6.390625 
Q 39.65625 6.390625 43.53125 10.953125 
Q 47.40625 15.53125 47.40625 23.390625 
Q 47.40625 31.296875 43.53125 35.828125 
Q 39.65625 40.375 33.015625 40.375 
M 52.59375 71.296875 
L 52.59375 62.3125 
Q 48.875 64.0625 45.09375 64.984375 
Q 41.3125 65.921875 37.59375 65.921875 
Q 27.828125 65.921875 22.671875 59.328125 
Q 17.53125 52.734375 16.796875 39.40625 
Q 19.671875 43.65625 24.015625 45.921875 
Q 28.375 48.1875 33.59375 48.1875 
Q 44.578125 48.1875 50.953125 41.515625 
Q 57.328125 34.859375 57.328125 23.390625 
Q 57.328125 12.15625 50.6875 5.359375 
Q 44.046875 -1.421875 33.015625 -1.421875 
Q 20.359375 -1.421875 13.671875 8.265625 
Q 6.984375 17.96875 6.984375 36.375 
Q 6.984375 53.65625 15.1875 63.9375 
Q 23.390625 74.21875 37.203125 74.21875 
Q 40.921875 74.21875 44.703125 73.484375 
Q 48.484375 72.75 52.59375 71.296875 
" id="DejaVuSans-36"/>
      </defs>
      <g transform="translate(262.32825 322.182437)scale(0.1 -0.1)">
       <use xlink:href="#DejaVuSans-36"/>
       <use x="63.623047" xlink:href="#DejaVuSans-30"/>
       <use x="127.246094" xlink:href="#DejaVuSans-30"/>
      </g>
     </g>
    </g>
    <g id="xtick_5">
     <g id="line2d_9">
      <path clip-path="url(#p2669460e27)" d="M 343.296 307.584 
L 343.296 41.472 
" style="fill:none;stroke:#b0b0b0;stroke-linecap:square;stroke-width:0.8;"/>
     </g>
     <g id="line2d_10">
      <g>
       <use style="stroke:#000000;stroke-width:0.8;" x="343.296" xlink:href="#md71015037c" y="307.584"/>
      </g>
     </g>
     <g id="text_5">
      <!-- 800 -->
      <defs>
       <path d="M 31.78125 34.625 
Q 24.75 34.625 20.71875 30.859375 
Q 16.703125 27.09375 16.703125 20.515625 
Q 16.703125 13.921875 20.71875 10.15625 
Q 24.75 6.390625 31.78125 6.390625 
Q 38.8125 6.390625 42.859375 10.171875 
Q 46.921875 13.96875 46.921875 20.515625 
Q 46.921875 27.09375 42.890625 30.859375 
Q 38.875 34.625 31.78125 34.625 
M 21.921875 38.8125 
Q 15.578125 40.375 12.03125 44.71875 
Q 8.5 49.078125 8.5 55.328125 
Q 8.5 64.0625 14.71875 69.140625 
Q 20.953125 74.21875 31.78125 74.21875 
Q 42.671875 74.21875 48.875 69.140625 
Q 55.078125 64.0625 55.078125 55.328125 
Q 55.078125 49.078125 51.53125 44.71875 
Q 48 40.375 41.703125 38.8125 
Q 48.828125 37.15625 52.796875 32.3125 
Q 56.78125 27.484375 56.78125 20.515625 
Q 56.78125 9.90625 50.3125 4.234375 
Q 43.84375 -1.421875 31.78125 -1.421875 
Q 19.734375 -1.421875 13.25 4.234375 
Q 6.78125 9.90625 6.78125 20.515625 
Q 6.78125 27.484375 10.78125 32.3125 
Q 14.796875 37.15625 21.921875 38.8125 
M 18.3125 54.390625 
Q 18.3125 48.734375 21.84375 45.5625 
Q 25.390625 42.390625 31.78125 42.390625 
Q 38.140625 42.390625 41.71875 45.5625 
Q 45.3125 48.734375 45.3125 54.390625 
Q 45.3125 60.0625 41.71875 63.234375 
Q 38.140625 66.40625 31.78125 66.40625 
Q 25.390625 66.40625 21.84375 63.234375 
Q 18.3125 60.0625 18.3125 54.390625 
" id="DejaVuSans-38"/>
      </defs>
      <g transform="translate(333.75225 322.182437)scale(0.1 -0.1)">
       <use xlink:href="#DejaVuSans-38"/>
       <use x="63.623047" xlink:href="#DejaVuSans-30"/>
       <use x="127.246094" xlink:href="#DejaVuSans-30"/>
      </g>
     </g>
    </g>
    <g id="xtick_6">
     <g id="line2d_11">
      <path clip-path="url(#p2669460e27)" d="M 414.72 307.584 
L 414.72 41.472 
" style="fill:none;stroke:#b0b0b0;stroke-linecap:square;stroke-width:0.8;"/>
     </g>
     <g id="line2d_12">
      <g>
       <use style="stroke:#000000;stroke-width:0.8;" x="414.72" xlink:href="#md71015037c" y="307.584"/>
      </g>
     </g>
     <g id="text_6">
      <!-- 1000 -->
      <defs>
       <path d="M 12.40625 8.296875 
L 28.515625 8.296875 
L 28.515625 63.921875 
L 10.984375 60.40625 
L 10.984375 69.390625 
L 28.421875 72.90625 
L 38.28125 72.90625 
L 38.28125 8.296875 
L 54.390625 8.296875 
L 54.390625 0 
L 12.40625 0 
z
" id="DejaVuSans-31"/>
      </defs>
      <g transform="translate(401.995 322.182437)scale(0.1 -0.1)">
       <use xlink:href="#DejaVuSans-31"/>
       <use x="63.623047" xlink:href="#DejaVuSans-30"/>
       <use x="127.246094" xlink:href="#DejaVuSans-30"/>
       <use x="190.869141" xlink:href="#DejaVuSans-30"/>
      </g>
     </g>
    </g>
    <g id="text_7">
     <!-- Number of clients -->
     <defs>
      <path d="M 9.8125 72.90625 
L 23.09375 72.90625 
L 55.421875 11.921875 
L 55.421875 72.90625 
L 64.984375 72.90625 
L 64.984375 0 
L 51.703125 0 
L 19.390625 60.984375 
L 19.390625 0 
L 9.8125 0 
z
" id="DejaVuSans-4e"/>
      <path d="M 8.5 21.578125 
L 8.5 54.6875 
L 17.484375 54.6875 
L 17.484375 21.921875 
Q 17.484375 14.15625 20.5 10.265625 
Q 23.53125 6.390625 29.59375 6.390625 
Q 36.859375 6.390625 41.078125 11.03125 
Q 45.3125 15.671875 45.3125 23.6875 
L 45.3125 54.6875 
L 54.296875 54.6875 
L 54.296875 0 
L 45.3125 0 
L 45.3125 8.40625 
Q 42.046875 3.421875 37.71875 1 
Q 33.40625 -1.421875 27.6875 -1.421875 
Q 18.265625 -1.421875 13.375 4.4375 
Q 8.5 10.296875 8.5 21.578125 
M 31.109375 56 
z
" id="DejaVuSans-75"/>
      <path d="M 52 44.1875 
Q 55.375 50.25 60.0625 53.125 
Q 64.75 56 71.09375 56 
Q 79.640625 56 84.28125 50.015625 
Q 88.921875 44.046875 88.921875 33.015625 
L 88.921875 0 
L 79.890625 0 
L 79.890625 32.71875 
Q 79.890625 40.578125 77.09375 44.375 
Q 74.3125 48.1875 68.609375 48.1875 
Q 61.625 48.1875 57.5625 43.546875 
Q 53.515625 38.921875 53.515625 30.90625 
L 53.515625 0 
L 44.484375 0 
L 44.484375 32.71875 
Q 44.484375 40.625 41.703125 44.40625 
Q 38.921875 48.1875 33.109375 48.1875 
Q 26.21875 48.1875 22.15625 43.53125 
Q 18.109375 38.875 18.109375 30.90625 
L 18.109375 0 
L 9.078125 0 
L 9.078125 54.6875 
L 18.109375 54.6875 
L 18.109375 46.1875 
Q 21.1875 51.21875 25.484375 53.609375 
Q 29.78125 56 35.6875 56 
Q 41.65625 56 45.828125 52.96875 
Q 50 49.953125 52 44.1875 
" id="DejaVuSans-6d"/>
      <path d="M 48.6875 27.296875 
Q 48.6875 37.203125 44.609375 42.84375 
Q 40.53125 48.484375 33.40625 48.484375 
Q 26.265625 48.484375 22.1875 42.84375 
Q 18.109375 37.203125 18.109375 27.296875 
Q 18.109375 17.390625 22.1875 11.75 
Q 26.265625 6.109375 33.40625 6.109375 
Q 40.53125 6.109375 44.609375 11.75 
Q 48.6875 17.390625 48.6875 27.296875 
M 18.109375 46.390625 
Q 20.953125 51.265625 25.265625 53.625 
Q 29.59375 56 35.59375 56 
Q 45.5625 56 51.78125 48.09375 
Q 58.015625 40.1875 58.015625 27.296875 
Q 58.015625 14.40625 51.78125 6.484375 
Q 45.5625 -1.421875 35.59375 -1.421875 
Q 29.59375 -1.421875 25.265625 0.953125 
Q 20.953125 3.328125 18.109375 8.203125 
L 18.109375 0 
L 9.078125 0 
L 9.078125 75.984375 
L 18.109375 75.984375 
z
" id="DejaVuSans-62"/>
      <path d="M 56.203125 29.59375 
L 56.203125 25.203125 
L 14.890625 25.203125 
Q 15.484375 15.921875 20.484375 11.0625 
Q 25.484375 6.203125 34.421875 6.203125 
Q 39.59375 6.203125 44.453125 7.46875 
Q 49.3125 8.734375 54.109375 11.28125 
L 54.109375 2.78125 
Q 49.265625 0.734375 44.1875 -0.34375 
Q 39.109375 -1.421875 33.890625 -1.421875 
Q 20.796875 -1.421875 13.15625 6.1875 
Q 5.515625 13.8125 5.515625 26.8125 
Q 5.515625 40.234375 12.765625 48.109375 
Q 20.015625 56 32.328125 56 
Q 43.359375 56 49.78125 48.890625 
Q 56.203125 41.796875 56.203125 29.59375 
M 47.21875 32.234375 
Q 47.125 39.59375 43.09375 43.984375 
Q 39.0625 48.390625 32.421875 48.390625 
Q 24.90625 48.390625 20.390625 44.140625 
Q 15.875 39.890625 15.1875 32.171875 
z
" id="DejaVuSans-65"/>
      <path d="M 41.109375 46.296875 
Q 39.59375 47.171875 37.8125 47.578125 
Q 36.03125 48 33.890625 48 
Q 26.265625 48 22.1875 43.046875 
Q 18.109375 38.09375 18.109375 28.8125 
L 18.109375 0 
L 9.078125 0 
L 9.078125 54.6875 
L 18.109375 54.6875 
L 18.109375 46.1875 
Q 20.953125 51.171875 25.484375 53.578125 
Q 30.03125 56 36.53125 56 
Q 37.453125 56 38.578125 55.875 
Q 39.703125 55.765625 41.0625 55.515625 
z
" id="DejaVuSans-72"/>
      <path id="DejaVuSans-20"/>
      <path d="M 30.609375 48.390625 
Q 23.390625 48.390625 19.1875 42.75 
Q 14.984375 37.109375 14.984375 27.296875 
Q 14.984375 17.484375 19.15625 11.84375 
Q 23.34375 6.203125 30.609375 6.203125 
Q 37.796875 6.203125 41.984375 11.859375 
Q 46.1875 17.53125 46.1875 27.296875 
Q 46.1875 37.015625 41.984375 42.703125 
Q 37.796875 48.390625 30.609375 48.390625 
M 30.609375 56 
Q 42.328125 56 49.015625 48.375 
Q 55.71875 40.765625 55.71875 27.296875 
Q 55.71875 13.875 49.015625 6.21875 
Q 42.328125 -1.421875 30.609375 -1.421875 
Q 18.84375 -1.421875 12.171875 6.21875 
Q 5.515625 13.875 5.515625 27.296875 
Q 5.515625 40.765625 12.171875 48.375 
Q 18.84375 56 30.609375 56 
" id="DejaVuSans-6f"/>
      <path d="M 37.109375 75.984375 
L 37.109375 68.5 
L 28.515625 68.5 
Q 23.6875 68.5 21.796875 66.546875 
Q 19.921875 64.59375 19.921875 59.515625 
L 19.921875 54.6875 
L 34.71875 54.6875 
L 34.71875 47.703125 
L 19.921875 47.703125 
L 19.921875 0 
L 10.890625 0 
L 10.890625 47.703125 
L 2.296875 47.703125 
L 2.296875 54.6875 
L 10.890625 54.6875 
L 10.890625 58.5 
Q 10.890625 67.625 15.140625 71.796875 
Q 19.390625 75.984375 28.609375 75.984375 
z
" id="DejaVuSans-66"/>
      <path d="M 48.78125 52.59375 
L 48.78125 44.1875 
Q 44.96875 46.296875 41.140625 47.34375 
Q 37.3125 48.390625 33.40625 48.390625 
Q 24.65625 48.390625 19.8125 42.84375 
Q 14.984375 37.3125 14.984375 27.296875 
Q 14.984375 17.28125 19.8125 11.734375 
Q 24.65625 6.203125 33.40625 6.203125 
Q 37.3125 6.203125 41.140625 7.25 
Q 44.96875 8.296875 48.78125 10.40625 
L 48.78125 2.09375 
Q 45.015625 0.34375 40.984375 -0.53125 
Q 36.96875 -1.421875 32.421875 -1.421875 
Q 20.0625 -1.421875 12.78125 6.34375 
Q 5.515625 14.109375 5.515625 27.296875 
Q 5.515625 40.671875 12.859375 48.328125 
Q 20.21875 56 33.015625 56 
Q 37.15625 56 41.109375 55.140625 
Q 45.0625 54.296875 48.78125 52.59375 
" id="DejaVuSans-63"/>
      <path d="M 9.421875 75.984375 
L 18.40625 75.984375 
L 18.40625 0 
L 9.421875 0 
z
" id="DejaVuSans-6c"/>
      <path d="M 9.421875 54.6875 
L 18.40625 54.6875 
L 18.40625 0 
L 9.421875 0 
z
M 9.421875 75.984375 
L 18.40625 75.984375 
L 18.40625 64.59375 
L 9.421875 64.59375 
z
" id="DejaVuSans-69"/>
      <path d="M 54.890625 33.015625 
L 54.890625 0 
L 45.90625 0 
L 45.90625 32.71875 
Q 45.90625 40.484375 42.875 44.328125 
Q 39.84375 48.1875 33.796875 48.1875 
Q 26.515625 48.1875 22.3125 43.546875 
Q 18.109375 38.921875 18.109375 30.90625 
L 18.109375 0 
L 9.078125 0 
L 9.078125 54.6875 
L 18.109375 54.6875 
L 18.109375 46.1875 
Q 21.34375 51.125 25.703125 53.5625 
Q 30.078125 56 35.796875 56 
Q 45.21875 56 50.046875 50.171875 
Q 54.890625 44.34375 54.890625 33.015625 
" id="DejaVuSans-6e"/>
      <path d="M 18.3125 70.21875 
L 18.3125 54.6875 
L 36.8125 54.6875 
L 36.8125 47.703125 
L 18.3125 47.703125 
L 18.3125 18.015625 
Q 18.3125 11.328125 20.140625 9.421875 
Q 21.96875 7.515625 27.59375 7.515625 
L 36.8125 7.515625 
L 36.8125 0 
L 27.59375 0 
Q 17.1875 0 13.234375 3.875 
Q 9.28125 7.765625 9.28125 18.015625 
L 9.28125 47.703125 
L 2.6875 47.703125 
L 2.6875 54.6875 
L 9.28125 54.6875 
L 9.28125 70.21875 
z
" id="DejaVuSans-74"/>
      <path d="M 44.28125 53.078125 
L 44.28125 44.578125 
Q 40.484375 46.53125 36.375 47.5 
Q 32.28125 48.484375 27.875 48.484375 
Q 21.1875 48.484375 17.84375 46.4375 
Q 14.5 44.390625 14.5 40.28125 
Q 14.5 37.15625 16.890625 35.375 
Q 19.28125 33.59375 26.515625 31.984375 
L 29.59375 31.296875 
Q 39.15625 29.25 43.1875 25.515625 
Q 47.21875 21.78125 47.21875 15.09375 
Q 47.21875 7.46875 41.1875 3.015625 
Q 35.15625 -1.421875 24.609375 -1.421875 
Q 20.21875 -1.421875 15.453125 -0.5625 
Q 10.6875 0.296875 5.421875 2 
L 5.421875 11.28125 
Q 10.40625 8.6875 15.234375 7.390625 
Q 20.0625 6.109375 24.8125 6.109375 
Q 31.15625 6.109375 34.5625 8.28125 
Q 37.984375 10.453125 37.984375 14.40625 
Q 37.984375 18.0625 35.515625 20.015625 
Q 33.0625 21.96875 24.703125 23.78125 
L 21.578125 24.515625 
Q 13.234375 26.265625 9.515625 29.90625 
Q 5.8125 33.546875 5.8125 39.890625 
Q 5.8125 47.609375 11.28125 51.796875 
Q 16.75 56 26.8125 56 
Q 31.78125 56 36.171875 55.265625 
Q 40.578125 54.546875 44.28125 53.078125 
" id="DejaVuSans-73"/>
     </defs>
     <g transform="translate(191.738906 335.860562)scale(0.1 -0.1)">
      <use xlink:href="#DejaVuSans-4e"/>
      <use x="74.804688" xlink:href="#DejaVuSans-75"/>
      <use x="138.183594" xlink:href="#DejaVuSans-6d"/>
      <use x="235.595703" xlink:href="#DejaVuSans-62"/>
      <use x="299.072266" xlink:href="#DejaVuSans-65"/>
      <use x="360.595703" xlink:href="#DejaVuSans-72"/>
      <use x="401.708984" xlink:href="#DejaVuSans-20"/>
      <use x="433.496094" xlink:href="#DejaVuSans-6f"/>
      <use x="494.677734" xlink:href="#DejaVuSans-66"/>
      <use x="529.882812" xlink:href="#DejaVuSans-20"/>
      <use x="561.669922" xlink:href="#DejaVuSans-63"/>
      <use x="616.650391" xlink:href="#DejaVuSans-6c"/>
      <use x="644.433594" xlink:href="#DejaVuSans-69"/>
      <use x="672.216797" xlink:href="#DejaVuSans-65"/>
      <use x="733.740234" xlink:href="#DejaVuSans-6e"/>
      <use x="797.119141" xlink:href="#DejaVuSans-74"/>
      <use x="836.328125" xlink:href="#DejaVuSans-73"/>
     </g>
    </g>
   </g>
   <g id="matplotlib.axis_2">
    <g id="ytick_1">
     <g id="line2d_13">
      <path clip-path="url(#p2669460e27)" d="M 57.6 295.832318 
L 414.72 295.832318 
" style="fill:none;stroke:#b0b0b0;stroke-linecap:square;stroke-width:0.8;"/>
     </g>
     <g id="line2d_14">
      <defs>
       <path d="M 0 0 
L -3.5 0 
" id="m0eb017146b" style="stroke:#000000;stroke-width:0.8;"/>
      </defs>
      <g>
       <use style="stroke:#000000;stroke-width:0.8;" x="57.6" xlink:href="#m0eb017146b" y="295.832318"/>
      </g>
     </g>
     <g id="text_8">
      <!-- 0 -->
      <g transform="translate(44.2375 299.631536)scale(0.1 -0.1)">
       <use xlink:href="#DejaVuSans-30"/>
      </g>
     </g>
    </g>
    <g id="ytick_2">
     <g id="line2d_15">
      <path clip-path="url(#p2669460e27)" d="M 57.6 258.967475 
L 414.72 258.967475 
" style="fill:none;stroke:#b0b0b0;stroke-linecap:square;stroke-width:0.8;"/>
     </g>
     <g id="line2d_16">
      <g>
       <use style="stroke:#000000;stroke-width:0.8;" x="57.6" xlink:href="#m0eb017146b" y="258.967475"/>
      </g>
     </g>
     <g id="text_9">
      <!-- 100 -->
      <g transform="translate(31.5125 262.766694)scale(0.1 -0.1)">
       <use xlink:href="#DejaVuSans-31"/>
       <use x="63.623047" xlink:href="#DejaVuSans-30"/>
       <use x="127.246094" xlink:href="#DejaVuSans-30"/>
      </g>
     </g>
    </g>
    <g id="ytick_3">
     <g id="line2d_17">
      <path clip-path="url(#p2669460e27)" d="M 57.6 222.102632 
L 414.72 222.102632 
" style="fill:none;stroke:#b0b0b0;stroke-linecap:square;stroke-width:0.8;"/>
     </g>
     <g id="line2d_18">
      <g>
       <use style="stroke:#000000;stroke-width:0.8;" x="57.6" xlink:href="#m0eb017146b" y="222.102632"/>
      </g>
     </g>
     <g id="text_10">
      <!-- 200 -->
      <g transform="translate(31.5125 225.901851)scale(0.1 -0.1)">
       <use xlink:href="#DejaVuSans-32"/>
       <use x="63.623047" xlink:href="#DejaVuSans-30"/>
       <use x="127.246094" xlink:href="#DejaVuSans-30"/>
      </g>
     </g>
    </g>
    <g id="ytick_4">
     <g id="line2d_19">
      <path clip-path="url(#p2669460e27)" d="M 57.6 185.23779 
L 414.72 185.23779 
" style="fill:none;stroke:#b0b0b0;stroke-linecap:square;stroke-width:0.8;"/>
     </g>
     <g id="line2d_20">
      <g>
       <use style="stroke:#000000;stroke-width:0.8;" x="57.6" xlink:href="#m0eb017146b" y="185.23779"/>
      </g>
     </g>
     <g id="text_11">
      <!-- 300 -->
      <defs>
       <path d="M 40.578125 39.3125 
Q 47.65625 37.796875 51.625 33 
Q 55.609375 28.21875 55.609375 21.1875 
Q 55.609375 10.40625 48.1875 4.484375 
Q 40.765625 -1.421875 27.09375 -1.421875 
Q 22.515625 -1.421875 17.65625 -0.515625 
Q 12.796875 0.390625 7.625 2.203125 
L 7.625 11.71875 
Q 11.71875 9.328125 16.59375 8.109375 
Q 21.484375 6.890625 26.8125 6.890625 
Q 36.078125 6.890625 40.9375 10.546875 
Q 45.796875 14.203125 45.796875 21.1875 
Q 45.796875 27.640625 41.28125 31.265625 
Q 36.765625 34.90625 28.71875 34.90625 
L 20.21875 34.90625 
L 20.21875 43.015625 
L 29.109375 43.015625 
Q 36.375 43.015625 40.234375 45.921875 
Q 44.09375 48.828125 44.09375 54.296875 
Q 44.09375 59.90625 40.109375 62.90625 
Q 36.140625 65.921875 28.71875 65.921875 
Q 24.65625 65.921875 20.015625 65.03125 
Q 15.375 64.15625 9.8125 62.3125 
L 9.8125 71.09375 
Q 15.4375 72.65625 20.34375 73.4375 
Q 25.25 74.21875 29.59375 74.21875 
Q 40.828125 74.21875 47.359375 69.109375 
Q 53.90625 64.015625 53.90625 55.328125 
Q 53.90625 49.265625 50.4375 45.09375 
Q 46.96875 40.921875 40.578125 39.3125 
" id="DejaVuSans-33"/>
      </defs>
      <g transform="translate(31.5125 189.037009)scale(0.1 -0.1)">
       <use xlink:href="#DejaVuSans-33"/>
       <use x="63.623047" xlink:href="#DejaVuSans-30"/>
       <use x="127.246094" xlink:href="#DejaVuSans-30"/>
      </g>
     </g>
    </g>
    <g id="ytick_5">
     <g id="line2d_21">
      <path clip-path="url(#p2669460e27)" d="M 57.6 148.372947 
L 414.72 148.372947 
" style="fill:none;stroke:#b0b0b0;stroke-linecap:square;stroke-width:0.8;"/>
     </g>
     <g id="line2d_22">
      <g>
       <use style="stroke:#000000;stroke-width:0.8;" x="57.6" xlink:href="#m0eb017146b" y="148.372947"/>
      </g>
     </g>
     <g id="text_12">
      <!-- 400 -->
      <g transform="translate(31.5125 152.172166)scale(0.1 -0.1)">
       <use xlink:href="#DejaVuSans-34"/>
       <use x="63.623047" xlink:href="#DejaVuSans-30"/>
       <use x="127.246094" xlink:href="#DejaVuSans-30"/>
      </g>
     </g>
    </g>
    <g id="ytick_6">
     <g id="line2d_23">
      <path clip-path="url(#p2669460e27)" d="M 57.6 111.508105 
L 414.72 111.508105 
" style="fill:none;stroke:#b0b0b0;stroke-linecap:square;stroke-width:0.8;"/>
     </g>
     <g id="line2d_24">
      <g>
       <use style="stroke:#000000;stroke-width:0.8;" x="57.6" xlink:href="#m0eb017146b" y="111.508105"/>
      </g>
     </g>
     <g id="text_13">
      <!-- 500 -->
      <defs>
       <path d="M 10.796875 72.90625 
L 49.515625 72.90625 
L 49.515625 64.59375 
L 19.828125 64.59375 
L 19.828125 46.734375 
Q 21.96875 47.46875 24.109375 47.828125 
Q 26.265625 48.1875 28.421875 48.1875 
Q 40.625 48.1875 47.75 41.5 
Q 54.890625 34.8125 54.890625 23.390625 
Q 54.890625 11.625 47.5625 5.09375 
Q 40.234375 -1.421875 26.90625 -1.421875 
Q 22.3125 -1.421875 17.546875 -0.640625 
Q 12.796875 0.140625 7.71875 1.703125 
L 7.71875 11.625 
Q 12.109375 9.234375 16.796875 8.0625 
Q 21.484375 6.890625 26.703125 6.890625 
Q 35.15625 6.890625 40.078125 11.328125 
Q 45.015625 15.765625 45.015625 23.390625 
Q 45.015625 31 40.078125 35.4375 
Q 35.15625 39.890625 26.703125 39.890625 
Q 22.75 39.890625 18.8125 39.015625 
Q 14.890625 38.140625 10.796875 36.28125 
z
" id="DejaVuSans-35"/>
      </defs>
      <g transform="translate(31.5125 115.307323)scale(0.1 -0.1)">
       <use xlink:href="#DejaVuSans-35"/>
       <use x="63.623047" xlink:href="#DejaVuSans-30"/>
       <use x="127.246094" xlink:href="#DejaVuSans-30"/>
      </g>
     </g>
    </g>
    <g id="ytick_7">
     <g id="line2d_25">
      <path clip-path="url(#p2669460e27)" d="M 57.6 74.643262 
L 414.72 74.643262 
" style="fill:none;stroke:#b0b0b0;stroke-linecap:square;stroke-width:0.8;"/>
     </g>
     <g id="line2d_26">
      <g>
       <use style="stroke:#000000;stroke-width:0.8;" x="57.6" xlink:href="#m0eb017146b" y="74.643262"/>
      </g>
     </g>
     <g id="text_14">
      <!-- 600 -->
      <g transform="translate(31.5125 78.442481)scale(0.1 -0.1)">
       <use xlink:href="#DejaVuSans-36"/>
       <use x="63.623047" xlink:href="#DejaVuSans-30"/>
       <use x="127.246094" xlink:href="#DejaVuSans-30"/>
      </g>
     </g>
    </g>
    <g id="text_15">
     <!-- Successful download requests per second -->
     <defs>
      <path d="M 53.515625 70.515625 
L 53.515625 60.890625 
Q 47.90625 63.578125 42.921875 64.890625 
Q 37.9375 66.21875 33.296875 66.21875 
Q 25.25 66.21875 20.875 63.09375 
Q 16.5 59.96875 16.5 54.203125 
Q 16.5 49.359375 19.40625 46.890625 
Q 22.3125 44.4375 30.421875 42.921875 
L 36.375 41.703125 
Q 47.40625 39.59375 52.65625 34.296875 
Q 57.90625 29 57.90625 20.125 
Q 57.90625 9.515625 50.796875 4.046875 
Q 43.703125 -1.421875 29.984375 -1.421875 
Q 24.8125 -1.421875 18.96875 -0.25 
Q 13.140625 0.921875 6.890625 3.21875 
L 6.890625 13.375 
Q 12.890625 10.015625 18.65625 8.296875 
Q 24.421875 6.59375 29.984375 6.59375 
Q 38.421875 6.59375 43.015625 9.90625 
Q 47.609375 13.234375 47.609375 19.390625 
Q 47.609375 24.75 44.3125 27.78125 
Q 41.015625 30.8125 33.5 32.328125 
L 27.484375 33.5 
Q 16.453125 35.6875 11.515625 40.375 
Q 6.59375 45.0625 6.59375 53.421875 
Q 6.59375 63.09375 13.40625 68.65625 
Q 20.21875 74.21875 32.171875 74.21875 
Q 37.3125 74.21875 42.625 73.28125 
Q 47.953125 72.359375 53.515625 70.515625 
" id="DejaVuSans-53"/>
      <path d="M 45.40625 46.390625 
L 45.40625 75.984375 
L 54.390625 75.984375 
L 54.390625 0 
L 45.40625 0 
L 45.40625 8.203125 
Q 42.578125 3.328125 38.25 0.953125 
Q 33.9375 -1.421875 27.875 -1.421875 
Q 17.96875 -1.421875 11.734375 6.484375 
Q 5.515625 14.40625 5.515625 27.296875 
Q 5.515625 40.1875 11.734375 48.09375 
Q 17.96875 56 27.875 56 
Q 33.9375 56 38.25 53.625 
Q 42.578125 51.265625 45.40625 46.390625 
M 14.796875 27.296875 
Q 14.796875 17.390625 18.875 11.75 
Q 22.953125 6.109375 30.078125 6.109375 
Q 37.203125 6.109375 41.296875 11.75 
Q 45.40625 17.390625 45.40625 27.296875 
Q 45.40625 37.203125 41.296875 42.84375 
Q 37.203125 48.484375 30.078125 48.484375 
Q 22.953125 48.484375 18.875 42.84375 
Q 14.796875 37.203125 14.796875 27.296875 
" id="DejaVuSans-64"/>
      <path d="M 4.203125 54.6875 
L 13.1875 54.6875 
L 24.421875 12.015625 
L 35.59375 54.6875 
L 46.1875 54.6875 
L 57.421875 12.015625 
L 68.609375 54.6875 
L 77.59375 54.6875 
L 63.28125 0 
L 52.6875 0 
L 40.921875 44.828125 
L 29.109375 0 
L 18.5 0 
z
" id="DejaVuSans-77"/>
      <path d="M 34.28125 27.484375 
Q 23.390625 27.484375 19.1875 25 
Q 14.984375 22.515625 14.984375 16.5 
Q 14.984375 11.71875 18.140625 8.90625 
Q 21.296875 6.109375 26.703125 6.109375 
Q 34.1875 6.109375 38.703125 11.40625 
Q 43.21875 16.703125 43.21875 25.484375 
L 43.21875 27.484375 
z
M 52.203125 31.203125 
L 52.203125 0 
L 43.21875 0 
L 43.21875 8.296875 
Q 40.140625 3.328125 35.546875 0.953125 
Q 30.953125 -1.421875 24.3125 -1.421875 
Q 15.921875 -1.421875 10.953125 3.296875 
Q 6 8.015625 6 15.921875 
Q 6 25.140625 12.171875 29.828125 
Q 18.359375 34.515625 30.609375 34.515625 
L 43.21875 34.515625 
L 43.21875 35.40625 
Q 43.21875 41.609375 39.140625 45 
Q 35.0625 48.390625 27.6875 48.390625 
Q 23 48.390625 18.546875 47.265625 
Q 14.109375 46.140625 10.015625 43.890625 
L 10.015625 52.203125 
Q 14.9375 54.109375 19.578125 55.046875 
Q 24.21875 56 28.609375 56 
Q 40.484375 56 46.34375 49.84375 
Q 52.203125 43.703125 52.203125 31.203125 
" id="DejaVuSans-61"/>
      <path d="M 14.796875 27.296875 
Q 14.796875 17.390625 18.875 11.75 
Q 22.953125 6.109375 30.078125 6.109375 
Q 37.203125 6.109375 41.296875 11.75 
Q 45.40625 17.390625 45.40625 27.296875 
Q 45.40625 37.203125 41.296875 42.84375 
Q 37.203125 48.484375 30.078125 48.484375 
Q 22.953125 48.484375 18.875 42.84375 
Q 14.796875 37.203125 14.796875 27.296875 
M 45.40625 8.203125 
Q 42.578125 3.328125 38.25 0.953125 
Q 33.9375 -1.421875 27.875 -1.421875 
Q 17.96875 -1.421875 11.734375 6.484375 
Q 5.515625 14.40625 5.515625 27.296875 
Q 5.515625 40.1875 11.734375 48.09375 
Q 17.96875 56 27.875 56 
Q 33.9375 56 38.25 53.625 
Q 42.578125 51.265625 45.40625 46.390625 
L 45.40625 54.6875 
L 54.390625 54.6875 
L 54.390625 -20.796875 
L 45.40625 -20.796875 
z
" id="DejaVuSans-71"/>
      <path d="M 18.109375 8.203125 
L 18.109375 -20.796875 
L 9.078125 -20.796875 
L 9.078125 54.6875 
L 18.109375 54.6875 
L 18.109375 46.390625 
Q 20.953125 51.265625 25.265625 53.625 
Q 29.59375 56 35.59375 56 
Q 45.5625 56 51.78125 48.09375 
Q 58.015625 40.1875 58.015625 27.296875 
Q 58.015625 14.40625 51.78125 6.484375 
Q 45.5625 -1.421875 35.59375 -1.421875 
Q 29.59375 -1.421875 25.265625 0.953125 
Q 20.953125 3.328125 18.109375 8.203125 
M 48.6875 27.296875 
Q 48.6875 37.203125 44.609375 42.84375 
Q 40.53125 48.484375 33.40625 48.484375 
Q 26.265625 48.484375 22.1875 42.84375 
Q 18.109375 37.203125 18.109375 27.296875 
Q 18.109375 17.390625 22.1875 11.75 
Q 26.265625 6.109375 33.40625 6.109375 
Q 40.53125 6.109375 44.609375 11.75 
Q 48.6875 17.390625 48.6875 27.296875 
" id="DejaVuSans-70"/>
     </defs>
     <g transform="translate(25.432812 279.366281)rotate(-90)scale(0.1 -0.1)">
      <use xlink:href="#DejaVuSans-53"/>
      <use x="63.476562" xlink:href="#DejaVuSans-75"/>
      <use x="126.855469" xlink:href="#DejaVuSans-63"/>
      <use x="181.835938" xlink:href="#DejaVuSans-63"/>
      <use x="236.816406" xlink:href="#DejaVuSans-65"/>
      <use x="298.339844" xlink:href="#DejaVuSans-73"/>
      <use x="350.439453" xlink:href="#DejaVuSans-73"/>
      <use x="402.539062" xlink:href="#DejaVuSans-66"/>
      <use x="437.744141" xlink:href="#DejaVuSans-75"/>
      <use x="501.123047" xlink:href="#DejaVuSans-6c"/>
      <use x="528.90625" xlink:href="#DejaVuSans-20"/>
      <use x="560.693359" xlink:href="#DejaVuSans-64"/>
      <use x="624.169922" xlink:href="#DejaVuSans-6f"/>
      <use x="685.351562" xlink:href="#DejaVuSans-77"/>
      <use x="767.138672" xlink:href="#DejaVuSans-6e"/>
      <use x="830.517578" xlink:href="#DejaVuSans-6c"/>
      <use x="858.300781" xlink:href="#DejaVuSans-6f"/>
      <use x="919.482422" xlink:href="#DejaVuSans-61"/>
      <use x="980.761719" xlink:href="#DejaVuSans-64"/>
      <use x="1044.238281" xlink:href="#DejaVuSans-20"/>
      <use x="1076.025391" xlink:href="#DejaVuSans-72"/>
      <use x="1117.107422" xlink:href="#DejaVuSans-65"/>
      <use x="1178.630859" xlink:href="#DejaVuSans-71"/>
      <use x="1242.107422" xlink:href="#DejaVuSans-75"/>
      <use x="1305.486328" xlink:href="#DejaVuSans-65"/>
      <use x="1367.009766" xlink:href="#DejaVuSans-73"/>
      <use x="1419.109375" xlink:href="#DejaVuSans-74"/>
      <use x="1458.318359" xlink:href="#DejaVuSans-73"/>
      <use x="1510.417969" xlink:href="#DejaVuSans-20"/>
      <use x="1542.205078" xlink:href="#DejaVuSans-70"/>
      <use x="1605.681641" xlink:href="#DejaVuSans-65"/>
      <use x="1667.205078" xlink:href="#DejaVuSans-72"/>
      <use x="1708.318359" xlink:href="#DejaVuSans-20"/>
      <use x="1740.105469" xlink:href="#DejaVuSans-73"/>
      <use x="1792.205078" xlink:href="#DejaVuSans-65"/>
      <use x="1853.728516" xlink:href="#DejaVuSans-63"/>
      <use x="1908.708984" xlink:href="#DejaVuSans-6f"/>
      <use x="1969.890625" xlink:href="#DejaVuSans-6e"/>
      <use x="2033.269531" xlink:href="#DejaVuSans-64"/>
     </g>
    </g>
   </g>
   <g id="line2d_27">
    <path clip-path="url(#p2669460e27)" d="M 57.6 295.488 
L 57.95712 295.468462 
L 62.59968 290.762664 
L 63.67104 289.606214 
L 64.02816 289.565294 
L 64.7424 288.889193 
L 65.09952 288.220834 
L 65.45664 287.964623 
L 66.17088 287.2782 
L 66.528 287.151753 
L 66.88512 286.264416 
L 67.59936 286.089677 
L 67.95648 285.193124 
L 68.67072 284.793141 
L 69.38496 283.819171 
L 70.45632 283.270623 
L 70.81344 282.475816 
L 71.17056 282.594521 
L 71.52768 282.019798 
L 71.8848 281.929848 
L 72.24192 281.29651 
L 72.59904 281.358074 
L 73.31328 279.695839 
L 73.6704 279.576397 
L 74.02752 279.857307 
L 74.38464 279.086832 
L 74.74176 279.030428 
L 75.09888 277.964666 
L 75.81312 277.920797 
L 76.17024 276.698727 
L 76.52736 277.489478 
L 76.88448 276.029999 
L 77.2416 276.46058 
L 77.59872 276.261879 
L 78.31296 274.508955 
L 78.67008 275.500988 
L 79.0272 274.126667 
L 80.09856 273.392688 
L 80.45568 273.437663 
L 81.16992 273.196198 
L 81.52704 271.514793 
L 81.88416 271.299502 
L 82.24128 271.784275 
L 82.5984 270.839798 
L 82.95552 271.197387 
L 83.66976 269.003928 
L 84.02688 268.693526 
L 84.384 268.532058 
L 84.74112 267.869966 
L 85.09824 268.968538 
L 85.45536 268.108481 
L 85.81248 268.745506 
L 86.1696 268.361374 
L 86.52672 267.30962 
L 86.88384 265.713004 
L 87.24096 266.941709 
L 87.59808 266.686604 
L 87.9552 264.880964 
L 88.31232 265.846086 
L 88.66944 264.462548 
L 89.02656 263.645624 
L 89.38368 263.677327 
L 89.7408 263.111452 
L 90.09792 263.837689 
L 90.45504 263.784973 
L 90.81216 261.778419 
L 91.16928 262.149648 
L 91.5264 262.002189 
L 91.88352 261.351156 
L 92.24064 261.122225 
L 92.59776 261.209595 
L 92.95488 259.824214 
L 93.312 259.380361 
L 93.66912 259.299996 
L 94.02624 258.869783 
L 94.38336 259.397688 
L 94.74048 257.844572 
L 95.0976 258.733752 
L 95.45472 258.604725 
L 95.81184 256.671164 
L 96.16896 257.64587 
L 96.52608 256.966083 
L 96.8832 255.743645 
L 97.24032 257.519055 
L 97.59744 255.595816 
L 97.95456 255.563007 
L 98.31168 254.297805 
L 98.6688 253.529911 
L 99.02592 255.808158 
L 99.38304 254.554385 
L 99.74016 254.746451 
L 100.09728 254.38923 
L 100.4544 252.343969 
L 100.81152 251.706576 
L 101.16864 252.875191 
L 101.52576 251.15176 
L 102.24 252.206094 
L 102.59712 249.421693 
L 102.95424 250.531324 
L 103.31136 251.030106 
L 103.66848 250.869744 
L 104.0256 250.390501 
L 104.38272 248.215475 
L 104.73984 250.488561 
L 105.09696 247.207222 
L 105.45408 248.293628 
L 106.16832 245.829582 
L 106.52544 245.698712 
L 106.88256 245.236427 
L 107.23968 247.316341 
L 107.5968 247.43689 
L 107.95392 244.482541 
L 108.31104 247.064186 
L 108.66816 244.492126 
L 109.02528 244.719951 
L 109.3824 245.873083 
L 109.73952 243.663773 
L 110.09664 244.861512 
L 110.45376 244.396277 
L 110.81088 243.710591 
L 111.168 240.570075 
L 111.52512 240.984805 
L 111.88224 240.911812 
L 112.23936 241.103141 
L 112.59648 242.915417 
L 112.9536 240.807854 
L 113.31072 242.187705 
L 113.66784 238.286667 
L 114.02496 239.461549 
L 114.38208 239.256581 
L 114.7392 238.107872 
L 115.09632 240.493396 
L 115.45344 239.840151 
L 115.81056 237.757288 
L 116.16768 238.348969 
L 116.5248 236.546646 
L 116.88192 237.934976 
L 117.23904 236.259101 
L 117.59616 235.689907 
L 117.95328 236.980546 
L 118.66752 235.674793 
L 119.02464 232.877489 
L 119.38176 233.114161 
L 119.73888 233.712477 
L 120.096 235.148363 
L 120.45312 235.110392 
L 120.81024 233.632849 
L 121.16736 233.437466 
L 121.52448 231.437916 
L 121.8816 232.364699 
L 122.23872 232.941633 
L 122.59584 231.626664 
L 122.95296 228.37924 
L 123.31008 231.044569 
L 123.6672 228.63029 
L 124.02432 231.890617 
L 124.73856 227.487111 
L 125.09568 230.083871 
L 125.4528 227.37283 
L 125.80992 228.900141 
L 126.16704 225.408671 
L 126.52416 224.902149 
L 126.88128 227.718623 
L 127.2384 224.599857 
L 127.59552 227.512179 
L 127.95264 226.884002 
L 128.30976 224.735519 
L 128.66688 226.538579 
L 129.024 226.298589 
L 129.38112 223.253921 
L 129.73824 224.883716 
L 130.09536 221.263957 
L 130.45248 221.364967 
L 130.8096 225.50194 
L 131.16672 223.324702 
L 131.52384 223.945137 
L 131.88096 220.683336 
L 132.23808 224.070109 
L 132.5952 221.689377 
L 132.95232 221.472244 
L 133.30944 218.641761 
L 133.66656 221.949275 
L 134.02368 221.679793 
L 134.3808 220.156906 
L 134.73792 221.493994 
L 135.09504 218.058559 
L 135.45216 220.400583 
L 135.80928 217.149841 
L 136.52352 218.381495 
L 137.23776 213.88251 
L 137.59488 217.000907 
L 137.952 215.580504 
L 138.30912 216.617512 
L 138.66624 214.246366 
L 139.02336 217.181545 
L 139.38048 214.260006 
L 139.7376 215.678565 
L 140.09472 215.890538 
L 140.45184 213.472941 
L 140.80896 214.254476 
L 141.16608 213.602337 
L 141.5232 215.142919 
L 141.88032 212.899324 
L 142.23744 208.976537 
L 142.59456 208.413242 
L 142.95168 210.130775 
L 143.3088 209.920645 
L 144.02304 211.159304 
L 144.38016 210.684116 
L 144.73728 207.726818 
L 145.0944 206.752481 
L 145.45152 206.388993 
L 145.80864 205.438986 
L 146.16576 208.112793 
L 146.88 204.463911 
L 147.23712 205.367837 
L 147.59424 208.792212 
L 147.95136 206.847223 
L 148.30848 207.124815 
L 148.6656 206.281717 
L 149.02272 203.797026 
L 149.73696 207.285546 
L 150.09408 207.002424 
L 150.4512 200.332468 
L 150.80832 202.565003 
L 151.16544 200.950323 
L 151.52256 202.583436 
L 151.87968 199.878293 
L 152.2368 198.208685 
L 152.59392 202.1923 
L 152.95104 203.583579 
L 153.30816 202.484269 
L 153.66528 203.322944 
L 154.0224 200.505733 
L 154.37952 200.516055 
L 154.73664 201.793053 
L 155.45088 199.135835 
L 155.808 200.131186 
L 156.16512 199.547984 
L 156.52224 193.859739 
L 156.87936 196.081215 
L 157.23648 194.786521 
L 157.5936 195.94887 
L 157.95072 193.743246 
L 158.30784 196.108863 
L 158.66496 192.001382 
L 159.73632 197.668615 
L 160.09344 191.081973 
L 160.45056 190.040541 
L 160.80768 192.701077 
L 161.1648 189.380661 
L 161.52192 190.33546 
L 161.87904 195.420597 
L 162.23616 191.319014 
L 162.59328 189.717974 
L 162.9504 193.148248 
L 163.30752 188.95819 
L 163.66464 193.801124 
L 164.02176 188.420332 
L 164.37888 193.198753 
L 164.736 190.45564 
L 165.09312 189.203341 
L 165.45024 184.679656 
L 165.80736 185.242214 
L 166.16448 188.148638 
L 166.5216 187.235496 
L 167.23584 189.581206 
L 167.59296 183.616105 
L 167.95008 184.399852 
L 168.3072 189.191175 
L 168.66432 183.951575 
L 169.02144 184.469158 
L 169.37856 183.474176 
L 169.73568 180.473746 
L 170.0928 183.878214 
L 170.44992 186.173051 
L 170.80704 185.294193 
L 171.16416 186.258577 
L 171.52128 186.201805 
L 171.8784 183.777205 
L 172.23552 180.171823 
L 172.59264 180.094038 
L 172.94976 181.134733 
L 173.30688 182.903508 
L 173.664 177.137109 
L 174.02112 181.398685 
L 174.37824 175.57957 
L 175.09248 182.485092 
L 175.4496 177.823164 
L 175.80672 177.738743 
L 176.16384 176.413821 
L 176.52096 179.689262 
L 176.87808 179.090577 
L 177.2352 176.74413 
L 177.59232 177.949242 
L 177.94944 177.989793 
L 178.30656 174.116035 
L 178.66368 172.286433 
L 179.0208 178.168956 
L 179.37792 178.456502 
L 179.73504 170.75175 
L 180.09216 171.049986 
L 180.44928 169.95805 
L 180.8064 176.13586 
L 181.16352 172.065613 
L 181.52064 170.99174 
L 181.87776 173.57744 
L 182.23488 170.776449 
L 182.592 175.277278 
L 182.94912 167.134203 
L 183.30624 168.566033 
L 183.66336 172.804753 
L 184.02048 171.844055 
L 184.3776 164.989775 
L 184.73472 173.77098 
L 185.09184 166.988587 
L 185.44896 170.008923 
L 185.80608 164.488044 
L 186.1632 171.275599 
L 186.52032 164.855587 
L 186.87744 167.323319 
L 187.23456 165.17926 
L 187.59168 164.095803 
L 188.30592 165.619795 
L 188.66304 164.013963 
L 189.02016 169.219647 
L 189.37728 161.753042 
L 189.7344 162.936403 
L 190.09152 161.648714 
L 190.44864 166.672286 
L 190.80576 163.909266 
L 191.16288 163.690658 
L 191.52 159.030942 
L 191.87712 166.709889 
L 192.23424 157.172954 
L 192.59136 157.634133 
L 192.94848 156.173179 
L 193.3056 158.354472 
L 193.66272 164.304458 
L 194.01984 156.950659 
L 194.37696 163.465782 
L 194.73408 155.470167 
L 195.0912 159.009192 
L 195.44832 155.46648 
L 195.80544 156.121568 
L 196.16256 154.028383 
L 196.51968 160.55899 
L 196.8768 162.123533 
L 197.23392 151.973168 
L 197.59104 160.638618 
L 197.94816 158.813071 
L 198.30528 159.013615 
L 198.6624 159.084027 
L 199.01952 153.822677 
L 199.37664 153.361498 
L 199.73376 153.280026 
L 200.09088 150.193333 
L 200.448 151.696681 
L 200.80512 158.290327 
L 201.16224 153.745629 
L 201.51936 150.97966 
L 201.87648 155.759924 
L 202.2336 152.748067 
L 202.59072 147.659244 
L 202.94784 154.646237 
L 203.30496 147.297968 
L 203.66208 146.74389 
L 204.0192 151.066293 
L 204.37632 150.55424 
L 204.73344 147.128021 
L 205.09056 151.168777 
L 205.44768 145.091976 
L 205.8048 143.207445 
L 206.16192 152.3079 
L 206.51904 143.40799 
L 206.87616 151.962846 
L 207.23328 151.845984 
L 207.5904 142.918425 
L 207.94752 146.400309 
L 208.30464 140.730865 
L 208.66176 149.783765 
L 209.01888 149.186554 
L 209.376 149.136787 
L 209.73312 143.668993 
L 210.44736 142.303151 
L 210.80448 143.173161 
L 211.1616 142.217993 
L 211.51872 139.847584 
L 211.87584 145.962724 
L 212.23296 136.230037 
L 212.59008 145.089764 
L 212.9472 145.337496 
L 213.30432 145.880146 
L 213.66144 135.691441 
L 214.01856 140.46765 
L 214.37568 137.620947 
L 215.08992 144.456426 
L 215.44704 143.965018 
L 215.80416 143.243942 
L 216.16128 134.421079 
L 216.87552 139.114711 
L 217.23264 139.674688 
L 217.58976 141.163659 
L 217.94688 141.015093 
L 218.304 134.864194 
L 219.01824 131.606079 
L 219.37536 136.947426 
L 219.73248 136.104696 
L 220.0896 139.028447 
L 220.44672 130.187889 
L 220.80384 138.150695 
L 221.16096 131.151536 
L 221.51808 126.729229 
L 221.8752 135.049993 
L 222.23232 132.582998 
L 222.58944 134.255556 
L 222.94656 127.143222 
L 223.6608 135.378459 
L 224.01792 130.078769 
L 224.37504 135.483524 
L 224.73216 126.384543 
L 225.08928 133.429415 
L 225.4464 125.92705 
L 225.80352 129.965594 
L 226.16064 128.785182 
L 226.51776 129.322302 
L 226.87488 126.854201 
L 227.232 127.294367 
L 227.58912 125.195283 
L 227.94624 130.70842 
L 228.30336 129.079363 
L 228.66048 129.002316 
L 229.0176 123.32771 
L 229.37472 127.432979 
L 229.73184 122.450327 
L 230.08896 126.874108 
L 230.44608 119.744079 
L 230.8032 126.526104 
L 231.51744 128.759745 
L 231.87456 126.186579 
L 232.23168 124.608764 
L 232.5888 125.941059 
L 232.94592 118.467818 
L 233.30304 122.101954 
L 234.01728 119.116639 
L 234.3744 124.608764 
L 234.73152 125.699594 
L 235.08864 125.786595 
L 235.44576 117.652368 
L 235.80288 120.58128 
L 236.16 115.721019 
L 236.51712 126.405925 
L 236.87424 125.005061 
L 237.23136 117.70914 
L 237.58848 124.957136 
L 238.30272 118.012537 
L 238.65984 126.537532 
L 239.01696 115.847096 
L 239.37408 117.953185 
L 239.7312 126.082251 
L 240.08832 114.218408 
L 240.80256 117.756695 
L 241.15968 115.509046 
L 241.5168 116.925762 
L 241.87392 116.682822 
L 242.23104 114.007541 
L 242.58816 121.539397 
L 242.94528 122.429314 
L 243.3024 122.473921 
L 243.65952 118.973972 
L 244.01664 123.29785 
L 244.37376 115.946632 
L 244.73088 120.97131 
L 245.088 122.950583 
L 245.44512 121.334797 
L 245.80224 121.588427 
L 246.15936 113.444246 
L 246.51648 122.693266 
L 247.23072 110.953657 
L 247.58784 123.517564 
L 247.94496 110.919004 
L 248.30208 119.349257 
L 248.6592 110.820944 
L 249.01632 122.478713 
L 249.37344 111.713442 
L 249.73056 119.184102 
L 250.08768 121.659945 
L 250.4448 119.938725 
L 250.80192 110.208619 
L 251.15904 120.396587 
L 251.51616 117.062162 
L 251.87328 110.986098 
L 252.58752 117.754852 
L 252.94464 117.913002 
L 253.30176 115.103533 
L 253.65888 116.969631 
L 254.016 114.879026 
L 254.37312 110.639569 
L 254.73024 119.346307 
L 255.08736 109.75002 
L 255.44448 112.518938 
L 255.8016 109.810847 
L 256.15872 108.143082 
L 256.51584 115.561763 
L 256.87296 108.442056 
L 257.23008 118.576201 
L 257.5872 114.418952 
L 257.94432 115.815761 
L 258.30144 115.448956 
L 258.65856 108.090365 
L 259.01568 111.189592 
L 259.3728 107.624393 
L 259.72992 108.077462 
L 260.08704 109.598137 
L 260.44416 115.885436 
L 260.80128 108.040966 
L 261.1584 107.53518 
L 261.51552 108.928303 
L 261.87264 111.367649 
L 262.22976 116.155287 
L 262.58688 117.465463 
L 262.944 113.934917 
L 263.30112 116.776459 
L 263.65824 110.150372 
L 264.01536 113.814738 
L 264.37248 107.944012 
L 264.7296 116.662547 
L 265.08672 104.007215 
L 265.44384 108.879273 
L 265.80096 103.636355 
L 266.15808 113.568481 
L 266.87232 103.419589 
L 267.22944 111.831409 
L 267.58656 108.496984 
L 267.94368 108.235244 
L 268.3008 105.259882 
L 268.65792 115.071092 
L 269.01504 111.431057 
L 269.37216 104.998879 
L 269.72928 104.680736 
L 270.0864 110.994946 
L 270.44352 109.14175 
L 270.80064 106.222423 
L 271.15776 114.17675 
L 271.51488 104.032283 
L 272.22912 102.753442 
L 272.58624 111.770214 
L 272.94336 103.157112 
L 273.30048 106.636416 
L 273.6576 103.001173 
L 274.01472 107.447073 
L 274.37184 107.626974 
L 274.72896 107.284868 
L 275.08608 100.449389 
L 275.4432 111.901452 
L 275.80032 105.183941 
L 276.51456 110.361239 
L 276.87168 99.528505 
L 277.2288 106.670331 
L 277.58592 103.991732 
L 277.94304 104.146195 
L 278.30016 104.744143 
L 278.65728 98.276944 
L 279.37152 102.799154 
L 279.72864 108.064928 
L 280.08576 100.388193 
L 280.44288 103.212778 
L 280.8 107.252427 
L 281.15712 98.181464 
L 281.87136 103.636723 
L 282.22848 106.251915 
L 282.5856 107.740149 
L 282.94272 106.673649 
L 283.29984 107.95544 
L 284.01408 99.028987 
L 284.3712 101.191478 
L 284.72832 108.068246 
L 285.08544 100.615649 
L 285.44256 103.444657 
L 285.79968 100.826516 
L 286.1568 95.491436 
L 286.51392 98.365788 
L 286.87104 94.810543 
L 287.22816 101.633488 
L 287.58528 94.636541 
L 288.29952 106.518817 
L 288.65664 101.814494 
L 289.01376 93.979978 
L 289.37088 97.974652 
L 289.728 104.466182 
L 290.08512 106.476791 
L 290.44224 104.479454 
L 290.79936 95.28868 
L 291.15648 100.818037 
L 291.5136 93.445069 
L 291.87072 93.864959 
L 292.22784 101.978911 
L 292.58496 99.403165 
L 292.94208 99.743427 
L 293.2992 103.974037 
L 293.65632 96.576 
L 294.01344 105.96142 
L 294.37056 101.896334 
L 294.72768 95.797415 
L 295.44192 100.013278 
L 295.79904 96.879398 
L 296.15616 91.822279 
L 296.51328 93.768005 
L 296.8704 97.796226 
L 297.22752 103.652575 
L 297.58464 91.235022 
L 297.94176 100.946327 
L 298.29888 100.734354 
L 298.656 93.486358 
L 299.01312 94.10495 
L 299.37024 95.387477 
L 299.72736 94.364847 
L 300.08448 102.862562 
L 300.4416 93.789755 
L 300.79872 96.7806 
L 301.51296 92.188346 
L 301.87008 102.247287 
L 302.2272 90.105483 
L 302.58432 94.974223 
L 303.29856 99.101979 
L 303.65568 98.818488 
L 304.0128 100.597586 
L 304.36992 97.785535 
L 304.72704 96.716086 
L 305.08416 97.595682 
L 305.44128 99.670804 
L 305.7984 90.018113 
L 306.15552 88.869036 
L 306.51264 99.405745 
L 306.86976 100.45197 
L 307.22688 93.844315 
L 307.584 95.210158 
L 307.94112 91.444045 
L 308.29824 99.835958 
L 308.65536 87.54522 
L 309.01248 88.296525 
L 309.3696 97.596787 
L 309.72672 97.049713 
L 310.08384 89.294088 
L 310.44096 86.288497 
L 310.79808 91.510771 
L 311.1552 87.032798 
L 311.51232 91.688459 
L 311.86944 99.692554 
L 312.22656 87.491397 
L 312.58368 85.934963 
L 312.9408 97.417993 
L 313.29792 86.374761 
L 313.65504 92.392578 
L 314.01216 88.294313 
L 314.36928 87.696365 
L 314.7264 96.641619 
L 315.44064 87.914237 
L 315.79776 94.875425 
L 316.15488 88.021513 
L 316.512 91.919602 
L 316.86912 86.496415 
L 317.22624 84.143332 
L 317.58336 92.685285 
L 317.94048 98.128747 
L 318.2976 86.416049 
L 319.01184 97.196804 
L 319.36896 93.173006 
L 319.72608 96.58964 
L 320.0832 82.961814 
L 320.44032 86.003532 
L 320.79744 94.101263 
L 321.15456 96.57047 
L 321.51168 87.819863 
L 321.8688 83.236825 
L 322.22592 91.128114 
L 322.58304 87.426146 
L 322.94016 87.72512 
L 323.29728 84.888002 
L 323.6544 84.73575 
L 324.01152 93.298347 
L 324.36864 94.489081 
L 324.72576 93.741462 
L 325.08288 94.874319 
L 325.44 92.996792 
L 325.79712 95.321489 
L 326.15424 94.904917 
L 326.51136 80.639329 
L 327.2256 94.635435 
L 327.58272 84.728746 
L 327.93984 88.932812 
L 328.65408 93.405255 
L 329.0112 83.85468 
L 329.36832 92.751641 
L 329.72544 89.08875 
L 330.08256 90.762414 
L 330.43968 90.069724 
L 330.7968 80.293905 
L 331.15392 78.911473 
L 331.51104 91.000193 
L 331.86816 83.171575 
L 332.22528 80.084144 
L 332.5824 87.411769 
L 332.93952 85.100712 
L 333.29664 79.158468 
L 333.65376 89.717665 
L 334.01088 87.31334 
L 334.368 91.657493 
L 334.72512 89.649465 
L 335.08224 80.101102 
L 335.43936 77.717421 
L 335.79648 78.178969 
L 336.1536 87.309653 
L 336.51072 80.268468 
L 336.86784 81.621777 
L 337.22496 89.911205 
L 337.58208 86.298819 
L 337.9392 84.694461 
L 338.29632 84.440462 
L 338.65344 79.897239 
L 339.01056 87.009573 
L 339.36768 88.927651 
L 339.7248 78.8359 
L 340.08192 90.536433 
L 340.43904 78.338594 
L 341.15328 90.387868 
L 341.5104 88.146116 
L 341.86752 77.04943 
L 342.22464 83.28475 
L 342.58176 86.434113 
L 342.93888 88.317907 
L 343.296 84.149967 
L 343.65312 77.63853 
L 344.01024 83.210283 
L 344.36736 82.972873 
L 344.72448 75.240841 
L 345.43872 77.289052 
L 345.79584 73.987068 
L 346.15296 80.944569 
L 346.51008 82.012913 
L 346.8672 77.712629 
L 347.22432 75.38572 
L 347.58144 74.085128 
L 348.29568 83.257838 
L 348.6528 77.589869 
L 349.00992 87.406608 
L 349.36704 84.781831 
L 349.72416 76.934043 
L 350.08128 78.242745 
L 350.4384 80.163403 
L 350.79552 75.009698 
L 351.15264 87.316289 
L 351.50976 73.055862 
L 351.86688 81.438927 
L 352.224 79.413573 
L 352.58112 85.203565 
L 352.93824 76.111589 
L 353.29536 77.003718 
L 353.65248 81.088342 
L 354.0096 77.218271 
L 354.36672 75.327473 
L 354.72384 77.450151 
L 355.08096 71.288561 
L 355.43808 83.89302 
L 355.7952 71.531501 
L 356.15232 78.974512 
L 356.86656 83.554232 
L 357.22368 75.5929 
L 357.5808 80.112899 
L 357.93792 72.442431 
L 358.29504 69.986864 
L 358.65216 71.820152 
L 359.00928 84.253558 
L 359.3664 81.261976 
L 359.72352 82.247742 
L 360.08064 74.698928 
L 360.43776 70.555688 
L 360.79488 72.729608 
L 361.152 80.355838 
L 361.50912 71.249484 
L 361.86624 73.332348 
L 362.22336 72.138664 
L 362.58048 82.439807 
L 362.9376 71.309943 
L 363.65184 81.929229 
L 364.00896 79.701118 
L 364.36608 72.04429 
L 364.7232 69.489926 
L 365.08032 80.705685 
L 365.43744 81.238751 
L 365.79456 78.573791 
L 366.15168 67.457935 
L 366.5088 68.978242 
L 366.86592 74.13637 
L 367.22304 72.072308 
L 367.58016 69.076671 
L 367.93728 71.820521 
L 368.2944 79.718813 
L 368.65152 79.163629 
L 369.00864 75.556035 
L 369.36576 66.464428 
L 369.72288 66.979798 
L 370.08 77.308959 
L 370.43712 67.063113 
L 370.79424 67.78935 
L 371.15136 80.87342 
L 371.50848 74.692661 
L 372.22272 70.154967 
L 372.57984 77.891055 
L 372.93696 68.629131 
L 373.29408 65.07831 
L 373.6512 76.671197 
L 374.00832 68.867647 
L 374.36544 79.211553 
L 374.72256 67.079702 
L 375.07968 71.829368 
L 375.4368 68.497524 
L 375.79392 74.241435 
L 376.15104 77.363519 
L 376.50816 71.158428 
L 376.86528 77.042057 
L 377.2224 75.443966 
L 377.57952 70.773191 
L 377.93664 76.844462 
L 378.29376 73.992229 
L 378.65088 77.207212 
L 379.008 79.090268 
L 379.36512 67.81405 
L 379.72224 73.28 
L 380.07936 74.284198 
L 380.7936 67.695345 
L 381.15072 72.029176 
L 381.50784 74.554418 
L 381.86496 74.532667 
L 382.22208 71.617396 
L 382.5792 70.662228 
L 382.93632 68.462502 
L 383.29344 68.045561 
L 384.00768 62.753981 
L 384.3648 77.549317 
L 384.72192 71.493898 
L 385.07904 67.878563 
L 385.43616 72.419575 
L 385.79328 72.792647 
L 386.1504 71.145157 
L 386.50752 67.786401 
L 386.86464 70.280676 
L 387.22176 76.232874 
L 387.57888 75.588845 
L 387.936 69.360899 
L 388.29312 72.997615 
L 388.65024 74.132315 
L 389.00736 62.32082 
L 389.36448 68.996305 
L 389.7216 71.880979 
L 390.07872 65.55276 
L 390.43584 61.746834 
L 390.79296 68.28592 
L 391.15008 67.471575 
L 391.5072 65.879383 
L 391.86432 75.293558 
L 392.22144 74.432026 
L 392.57856 61.839733 
L 392.93568 64.867074 
L 393.2928 71.578688 
L 393.64992 64.924583 
L 394.00704 66.099097 
L 394.36416 73.319077 
L 394.72128 74.797726 
L 395.0784 71.757113 
L 395.43552 69.677936 
L 395.79264 61.841577 
L 396.14976 73.104523 
L 396.50688 59.884791 
L 396.864 64.443866 
L 397.22112 65.557553 
L 397.57824 62.45427 
L 397.93536 65.586676 
L 398.6496 74.030937 
L 399.00672 69.222655 
L 399.36384 58.495724 
L 399.72096 70.260032 
L 400.07808 70.143908 
L 400.4352 59.453472 
L 400.79232 72.975128 
L 401.14944 71.738681 
L 401.50656 66.463322 
L 401.86368 66.262409 
L 402.2208 68.291818 
L 402.57792 71.664951 
L 402.93504 71.902729 
L 403.29216 64.417323 
L 403.64928 63.140694 
L 404.0064 65.224295 
L 404.36352 64.535659 
L 404.72064 70.422975 
L 405.07776 61.120869 
L 405.43488 63.140694 
L 405.792 70.449886 
L 406.14912 60.765861 
L 406.50624 65.09748 
L 406.86336 62.468648 
L 407.22048 69.757196 
L 407.5776 59.314123 
L 407.93472 57.540924 
L 408.29184 60.918481 
L 408.64896 55.03817 
L 409.00608 65.045131 
L 409.3632 54.984347 
L 409.72032 63.05443 
L 410.07744 68.185647 
L 410.43456 69.443476 
L 410.79168 54.437642 
L 411.1488 62.453902 
L 411.50592 53.774443 
L 412.22016 64.872235 
L 412.57728 65.64013 
L 412.9344 53.568 
L 413.64864 64.226363 
L 414.36288 64.269495 
L 414.72 56.188722 
L 414.72 56.188722 
" style="fill:none;stroke:#000080;stroke-linecap:square;stroke-width:0.5;"/>
   </g>
   <g id="patch_3">
    <path d="M 57.6 307.584 
L 57.6 41.472 
" style="fill:none;stroke:#000000;stroke-linecap:square;stroke-linejoin:miter;stroke-width:0.8;"/>
   </g>
   <g id="patch_4">
    <path d="M 414.72 307.584 
L 414.72 41.472 
" style="fill:none;stroke:#000000;stroke-linecap:square;stroke-linejoin:miter;stroke-width:0.8;"/>
   </g>
   <g id="patch_5">
    <path d="M 57.6 307.584 
L 414.72 307.584 
" style="fill:none;stroke:#000000;stroke-linecap:square;stroke-linejoin:miter;stroke-width:0.8;"/>
   </g>
   <g id="patch_6">
    <path d="M 57.6 41.472 
L 414.72 41.472 
" style="fill:none;stroke:#000000;stroke-linecap:square;stroke-linejoin:miter;stroke-width:0.8;"/>
   </g>
   <g id="text_16">
    <!-- Test -->
    <defs>
     <path d="M -0.296875 72.90625 
L 61.375 72.90625 
L 61.375 64.59375 
L 35.5 64.59375 
L 35.5 0 
L 25.59375 0 
L 25.59375 64.59375 
L -0.296875 64.59375 
z
" id="DejaVuSans-54"/>
    </defs>
    <g transform="translate(223.341563 35.472)scale(0.12 -0.12)">
     <use xlink:href="#DejaVuSans-54"/>
     <use x="60.818359" xlink:href="#DejaVuSans-65"/>
     <use x="122.341797" xlink:href="#DejaVuSans-73"/>
     <use x="174.441406" xlink:href="#DejaVuSans-74"/>
    </g>
   </g>
   <g id="legend_1">
    <g id="patch_7">
     <path d="M 64.6 64.150125 
L 306.276563 64.150125 
Q 308.276563 64.150125 308.276563 62.150125 
L 308.276563 48.472 
Q 308.276563 46.472 306.276563 46.472 
L 64.6 46.472 
Q 62.6 46.472 62.6 48.472 
L 62.6 62.150125 
Q 62.6 64.150125 64.6 64.150125 
z
" style="fill:#ffffff;opacity:0.8;stroke:#cccccc;stroke-linejoin:miter;"/>
    </g>
    <g id="line2d_28">
     <path d="M 66.6 54.570438 
L 86.6 54.570438 
" style="fill:none;stroke:#000080;stroke-linecap:square;stroke-width:0.5;"/>
    </g>
    <g id="line2d_29"/>
    <g id="text_17">
     <!-- Successful download requests per second -->
     <g transform="translate(94.6 58.070438)scale(0.1 -0.1)">
      <use xlink:href="#DejaVuSans-53"/>
      <use x="63.476562" xlink:href="#DejaVuSans-75"/>
      <use x="126.855469" xlink:href="#DejaVuSans-63"/>
      <use x="181.835938" xlink:href="#DejaVuSans-63"/>
      <use x="236.816406" xlink:href="#DejaVuSans-65"/>
      <use x="298.339844" xlink:href="#DejaVuSans-73"/>
      <use x="350.439453" xlink:href="#DejaVuSans-73"/>
      <use x="402.539062" xlink:href="#DejaVuSans-66"/>
      <use x="437.744141" xlink:href="#DejaVuSans-75"/>
      <use x="501.123047" xlink:href="#DejaVuSans-6c"/>
      <use x="528.90625" xlink:href="#DejaVuSans-20"/>
      <use x="560.693359" xlink:href="#DejaVuSans-64"/>
      <use x="624.169922" xlink:href="#DejaVuSans-6f"/>
      <use x="685.351562" xlink:href="#DejaVuSans-77"/>
      <use x="767.138672" xlink:href="#DejaVuSans-6e"/>
      <use x="830.517578" xlink:href="#DejaVuSans-6c"/>
      <use x="858.300781" xlink:href="#DejaVuSans-6f"/>
      <use x="919.482422" xlink:href="#DejaVuSans-61"/>
      <use x="980.761719" xlink:href="#DejaVuSans-64"/>
      <use x="1044.238281" xlink:href="#DejaVuSans-20"/>
      <use x="1076.025391" xlink:href="#DejaVuSans-72"/>
      <use x="1117.107422" xlink:href="#DejaVuSans-65"/>
      <use x="1178.630859" xlink:href="#DejaVuSans-71"/>
      <use x="1242.107422" xlink:href="#DejaVuSans-75"/>
      <use x="1305.486328" xlink:href="#DejaVuSans-65"/>
      <use x="1367.009766" xlink:href="#DejaVuSans-73"/>
      <use x="1419.109375" xlink:href="#DejaVuSans-74"/>
      <use x="1458.318359" xlink:href="#DejaVuSans-73"/>
      <use x="1510.417969" xlink:href="#DejaVuSans-20"/>
      <use x="1542.205078" xlink:href="#DejaVuSans-70"/>
      <use x="1605.681641" xlink:href="#DejaVuSans-65"/>
      <use x="1667.205078" xlink:href="#DejaVuSans-72"/>
      <use x="1708.318359" xlink:href="#DejaVuSans-20"/>
      <use x="1740.105469" xlink:href="#DejaVuSans-73"/>
      <use x="1792.205078" xlink:href="#DejaVuSans-65"/>
      <use x="1853.728516" xlink:href="#DejaVuSans-63"/>
      <use x="1908.708984" xlink:href="#DejaVuSans-6f"/>
      <use x="1969.890625" xlink:href="#DejaVuSans-6e"/>
      <use x="2033.269531" xlink:href="#DejaVuSans-64"/>
     </g>
    </g>
   </g>
  </g>
 </g>
 <defs>
  <clipPath id="p2669460e27">
   <rect height="266.112" width="357.12" x="57.6" y="41.472"/>
  </clipPath>
 </defs>
</svg>
