<?xml version="1.0" encoding="utf-8" standalone="no"?>
<!DOCTYPE svg PUBLIC "-//W3C//DTD SVG 1.1//EN"
  "http://www.w3.org/Graphics/SVG/1.1/DTD/svg11.dtd">
<!-- Created with matplotlib (http://matplotlib.org/) -->
<svg height="345pt" version="1.1" viewBox="0 0 460 345" width="460pt" xmlns="http://www.w3.org/2000/svg" xmlns:xlink="http://www.w3.org/1999/xlink">
 <defs>
  <style type="text/css">
*{stroke-linecap:butt;stroke-linejoin:round;}
  </style>
 </defs>
 <g id="figure_1">
  <g id="patch_1">
   <path d="M 0 345.6 
L 460.8 345.6 
L 460.8 0 
L 0 0 
z
" style="fill:#ffffff;"/>
  </g>
  <g id="axes_1">
   <g id="patch_2">
    <path d="M 57.6 307.584 
L 414.72 307.584 
L 414.72 41.472 
L 57.6 41.472 
z
" style="fill:#ffffff;"/>
   </g>
   <g id="matplotlib.axis_1">
    <g id="xtick_1">
     <g id="line2d_1">
      <path clip-path="url(#pa38c13dfd2)" d="M 57.6 307.584 
L 57.6 41.472 
" style="fill:none;stroke:#b0b0b0;stroke-linecap:square;stroke-width:0.8;"/>
     </g>
     <g id="line2d_2">
      <defs>
       <path d="M 0 0 
L 0 3.5 
" id="mfb543e9280" style="stroke:#000000;stroke-width:0.8;"/>
      </defs>
      <g>
       <use style="stroke:#000000;stroke-width:0.8;" x="57.6" xlink:href="#mfb543e9280" y="307.584"/>
      </g>
     </g>
     <g id="text_1">
      <!-- 0 -->
      <defs>
       <path d="M 31.78125 66.40625 
Q 24.171875 66.40625 20.328125 58.90625 
Q 16.5 51.421875 16.5 36.375 
Q 16.5 21.390625 20.328125 13.890625 
Q 24.171875 6.390625 31.78125 6.390625 
Q 39.453125 6.390625 43.28125 13.890625 
Q 47.125 21.390625 47.125 36.375 
Q 47.125 51.421875 43.28125 58.90625 
Q 39.453125 66.40625 31.78125 66.40625 
M 31.78125 74.21875 
Q 44.046875 74.21875 50.515625 64.515625 
Q 56.984375 54.828125 56.984375 36.375 
Q 56.984375 17.96875 50.515625 8.265625 
Q 44.046875 -1.421875 31.78125 -1.421875 
Q 19.53125 -1.421875 13.0625 8.265625 
Q 6.59375 17.96875 6.59375 36.375 
Q 6.59375 54.828125 13.0625 64.515625 
Q 19.53125 74.21875 31.78125 74.21875 
" id="DejaVuSans-30"/>
      </defs>
      <g transform="translate(54.41875 322.182437)scale(0.1 -0.1)">
       <use xlink:href="#DejaVuSans-30"/>
      </g>
     </g>
    </g>
    <g id="xtick_2">
     <g id="line2d_3">
      <path clip-path="url(#pa38c13dfd2)" d="M 129.024 307.584 
L 129.024 41.472 
" style="fill:none;stroke:#b0b0b0;stroke-linecap:square;stroke-width:0.8;"/>
     </g>
     <g id="line2d_4">
      <g>
       <use style="stroke:#000000;stroke-width:0.8;" x="129.024" xlink:href="#mfb543e9280" y="307.584"/>
      </g>
     </g>
     <g id="text_2">
      <!-- 200 -->
      <defs>
       <path d="M 19.1875 8.296875 
L 53.609375 8.296875 
L 53.609375 0 
L 7.328125 0 
L 7.328125 8.296875 
Q 12.9375 14.109375 22.625 23.890625 
Q 32.328125 33.6875 34.8125 36.53125 
Q 39.546875 41.84375 41.421875 45.53125 
Q 43.3125 49.21875 43.3125 52.78125 
Q 43.3125 58.59375 39.234375 62.25 
Q 35.15625 65.921875 28.609375 65.921875 
Q 23.96875 65.921875 18.8125 64.3125 
Q 13.671875 62.703125 7.8125 59.421875 
L 7.8125 69.390625 
Q 13.765625 71.78125 18.9375 73 
Q 24.125 74.21875 28.421875 74.21875 
Q 39.75 74.21875 46.484375 68.546875 
Q 53.21875 62.890625 53.21875 53.421875 
Q 53.21875 48.921875 51.53125 44.890625 
Q 49.859375 40.875 45.40625 35.40625 
Q 44.1875 33.984375 37.640625 27.21875 
Q 31.109375 20.453125 19.1875 8.296875 
" id="DejaVuSans-32"/>
      </defs>
      <g transform="translate(119.48025 322.182437)scale(0.1 -0.1)">
       <use xlink:href="#DejaVuSans-32"/>
       <use x="63.623047" xlink:href="#DejaVuSans-30"/>
       <use x="127.246094" xlink:href="#DejaVuSans-30"/>
      </g>
     </g>
    </g>
    <g id="xtick_3">
     <g id="line2d_5">
      <path clip-path="url(#pa38c13dfd2)" d="M 200.448 307.584 
L 200.448 41.472 
" style="fill:none;stroke:#b0b0b0;stroke-linecap:square;stroke-width:0.8;"/>
     </g>
     <g id="line2d_6">
      <g>
       <use style="stroke:#000000;stroke-width:0.8;" x="200.448" xlink:href="#mfb543e9280" y="307.584"/>
      </g>
     </g>
     <g id="text_3">
      <!-- 400 -->
      <defs>
       <path d="M 37.796875 64.3125 
L 12.890625 25.390625 
L 37.796875 25.390625 
z
M 35.203125 72.90625 
L 47.609375 72.90625 
L 47.609375 25.390625 
L 58.015625 25.390625 
L 58.015625 17.1875 
L 47.609375 17.1875 
L 47.609375 0 
L 37.796875 0 
L 37.796875 17.1875 
L 4.890625 17.1875 
L 4.890625 26.703125 
z
" id="DejaVuSans-34"/>
      </defs>
      <g transform="translate(190.90425 322.182437)scale(0.1 -0.1)">
       <use xlink:href="#DejaVuSans-34"/>
       <use x="63.623047" xlink:href="#DejaVuSans-30"/>
       <use x="127.246094" xlink:href="#DejaVuSans-30"/>
      </g>
     </g>
    </g>
    <g id="xtick_4">
     <g id="line2d_7">
      <path clip-path="url(#pa38c13dfd2)" d="M 271.872 307.584 
L 271.872 41.472 
" style="fill:none;stroke:#b0b0b0;stroke-linecap:square;stroke-width:0.8;"/>
     </g>
     <g id="line2d_8">
      <g>
       <use style="stroke:#000000;stroke-width:0.8;" x="271.872" xlink:href="#mfb543e9280" y="307.584"/>
      </g>
     </g>
     <g id="text_4">
      <!-- 600 -->
      <defs>
       <path d="M 33.015625 40.375 
Q 26.375 40.375 22.484375 35.828125 
Q 18.609375 31.296875 18.609375 23.390625 
Q 18.609375 15.53125 22.484375 10.953125 
Q 26.375 6.390625 33.015625 6.390625 
Q 39.65625 6.390625 43.53125 10.953125 
Q 47.40625 15.53125 47.40625 23.390625 
Q 47.40625 31.296875 43.53125 35.828125 
Q 39.65625 40.375 33.015625 40.375 
M 52.59375 71.296875 
L 52.59375 62.3125 
Q 48.875 64.0625 45.09375 64.984375 
Q 41.3125 65.921875 37.59375 65.921875 
Q 27.828125 65.921875 22.671875 59.328125 
Q 17.53125 52.734375 16.796875 39.40625 
Q 19.671875 43.65625 24.015625 45.921875 
Q 28.375 48.1875 33.59375 48.1875 
Q 44.578125 48.1875 50.953125 41.515625 
Q 57.328125 34.859375 57.328125 23.390625 
Q 57.328125 12.15625 50.6875 5.359375 
Q 44.046875 -1.421875 33.015625 -1.421875 
Q 20.359375 -1.421875 13.671875 8.265625 
Q 6.984375 17.96875 6.984375 36.375 
Q 6.984375 53.65625 15.1875 63.9375 
Q 23.390625 74.21875 37.203125 74.21875 
Q 40.921875 74.21875 44.703125 73.484375 
Q 48.484375 72.75 52.59375 71.296875 
" id="DejaVuSans-36"/>
      </defs>
      <g transform="translate(262.32825 322.182437)scale(0.1 -0.1)">
       <use xlink:href="#DejaVuSans-36"/>
       <use x="63.623047" xlink:href="#DejaVuSans-30"/>
       <use x="127.246094" xlink:href="#DejaVuSans-30"/>
      </g>
     </g>
    </g>
    <g id="xtick_5">
     <g id="line2d_9">
      <path clip-path="url(#pa38c13dfd2)" d="M 343.296 307.584 
L 343.296 41.472 
" style="fill:none;stroke:#b0b0b0;stroke-linecap:square;stroke-width:0.8;"/>
     </g>
     <g id="line2d_10">
      <g>
       <use style="stroke:#000000;stroke-width:0.8;" x="343.296" xlink:href="#mfb543e9280" y="307.584"/>
      </g>
     </g>
     <g id="text_5">
      <!-- 800 -->
      <defs>
       <path d="M 31.78125 34.625 
Q 24.75 34.625 20.71875 30.859375 
Q 16.703125 27.09375 16.703125 20.515625 
Q 16.703125 13.921875 20.71875 10.15625 
Q 24.75 6.390625 31.78125 6.390625 
Q 38.8125 6.390625 42.859375 10.171875 
Q 46.921875 13.96875 46.921875 20.515625 
Q 46.921875 27.09375 42.890625 30.859375 
Q 38.875 34.625 31.78125 34.625 
M 21.921875 38.8125 
Q 15.578125 40.375 12.03125 44.71875 
Q 8.5 49.078125 8.5 55.328125 
Q 8.5 64.0625 14.71875 69.140625 
Q 20.953125 74.21875 31.78125 74.21875 
Q 42.671875 74.21875 48.875 69.140625 
Q 55.078125 64.0625 55.078125 55.328125 
Q 55.078125 49.078125 51.53125 44.71875 
Q 48 40.375 41.703125 38.8125 
Q 48.828125 37.15625 52.796875 32.3125 
Q 56.78125 27.484375 56.78125 20.515625 
Q 56.78125 9.90625 50.3125 4.234375 
Q 43.84375 -1.421875 31.78125 -1.421875 
Q 19.734375 -1.421875 13.25 4.234375 
Q 6.78125 9.90625 6.78125 20.515625 
Q 6.78125 27.484375 10.78125 32.3125 
Q 14.796875 37.15625 21.921875 38.8125 
M 18.3125 54.390625 
Q 18.3125 48.734375 21.84375 45.5625 
Q 25.390625 42.390625 31.78125 42.390625 
Q 38.140625 42.390625 41.71875 45.5625 
Q 45.3125 48.734375 45.3125 54.390625 
Q 45.3125 60.0625 41.71875 63.234375 
Q 38.140625 66.40625 31.78125 66.40625 
Q 25.390625 66.40625 21.84375 63.234375 
Q 18.3125 60.0625 18.3125 54.390625 
" id="DejaVuSans-38"/>
      </defs>
      <g transform="translate(333.75225 322.182437)scale(0.1 -0.1)">
       <use xlink:href="#DejaVuSans-38"/>
       <use x="63.623047" xlink:href="#DejaVuSans-30"/>
       <use x="127.246094" xlink:href="#DejaVuSans-30"/>
      </g>
     </g>
    </g>
    <g id="xtick_6">
     <g id="line2d_11">
      <path clip-path="url(#pa38c13dfd2)" d="M 414.72 307.584 
L 414.72 41.472 
" style="fill:none;stroke:#b0b0b0;stroke-linecap:square;stroke-width:0.8;"/>
     </g>
     <g id="line2d_12">
      <g>
       <use style="stroke:#000000;stroke-width:0.8;" x="414.72" xlink:href="#mfb543e9280" y="307.584"/>
      </g>
     </g>
     <g id="text_6">
      <!-- 1000 -->
      <defs>
       <path d="M 12.40625 8.296875 
L 28.515625 8.296875 
L 28.515625 63.921875 
L 10.984375 60.40625 
L 10.984375 69.390625 
L 28.421875 72.90625 
L 38.28125 72.90625 
L 38.28125 8.296875 
L 54.390625 8.296875 
L 54.390625 0 
L 12.40625 0 
z
" id="DejaVuSans-31"/>
      </defs>
      <g transform="translate(401.995 322.182437)scale(0.1 -0.1)">
       <use xlink:href="#DejaVuSans-31"/>
       <use x="63.623047" xlink:href="#DejaVuSans-30"/>
       <use x="127.246094" xlink:href="#DejaVuSans-30"/>
       <use x="190.869141" xlink:href="#DejaVuSans-30"/>
      </g>
     </g>
    </g>
    <g id="text_7">
     <!-- Number of clients -->
     <defs>
      <path d="M 9.8125 72.90625 
L 23.09375 72.90625 
L 55.421875 11.921875 
L 55.421875 72.90625 
L 64.984375 72.90625 
L 64.984375 0 
L 51.703125 0 
L 19.390625 60.984375 
L 19.390625 0 
L 9.8125 0 
z
" id="DejaVuSans-4e"/>
      <path d="M 8.5 21.578125 
L 8.5 54.6875 
L 17.484375 54.6875 
L 17.484375 21.921875 
Q 17.484375 14.15625 20.5 10.265625 
Q 23.53125 6.390625 29.59375 6.390625 
Q 36.859375 6.390625 41.078125 11.03125 
Q 45.3125 15.671875 45.3125 23.6875 
L 45.3125 54.6875 
L 54.296875 54.6875 
L 54.296875 0 
L 45.3125 0 
L 45.3125 8.40625 
Q 42.046875 3.421875 37.71875 1 
Q 33.40625 -1.421875 27.6875 -1.421875 
Q 18.265625 -1.421875 13.375 4.4375 
Q 8.5 10.296875 8.5 21.578125 
M 31.109375 56 
z
" id="DejaVuSans-75"/>
      <path d="M 52 44.1875 
Q 55.375 50.25 60.0625 53.125 
Q 64.75 56 71.09375 56 
Q 79.640625 56 84.28125 50.015625 
Q 88.921875 44.046875 88.921875 33.015625 
L 88.921875 0 
L 79.890625 0 
L 79.890625 32.71875 
Q 79.890625 40.578125 77.09375 44.375 
Q 74.3125 48.1875 68.609375 48.1875 
Q 61.625 48.1875 57.5625 43.546875 
Q 53.515625 38.921875 53.515625 30.90625 
L 53.515625 0 
L 44.484375 0 
L 44.484375 32.71875 
Q 44.484375 40.625 41.703125 44.40625 
Q 38.921875 48.1875 33.109375 48.1875 
Q 26.21875 48.1875 22.15625 43.53125 
Q 18.109375 38.875 18.109375 30.90625 
L 18.109375 0 
L 9.078125 0 
L 9.078125 54.6875 
L 18.109375 54.6875 
L 18.109375 46.1875 
Q 21.1875 51.21875 25.484375 53.609375 
Q 29.78125 56 35.6875 56 
Q 41.65625 56 45.828125 52.96875 
Q 50 49.953125 52 44.1875 
" id="DejaVuSans-6d"/>
      <path d="M 48.6875 27.296875 
Q 48.6875 37.203125 44.609375 42.84375 
Q 40.53125 48.484375 33.40625 48.484375 
Q 26.265625 48.484375 22.1875 42.84375 
Q 18.109375 37.203125 18.109375 27.296875 
Q 18.109375 17.390625 22.1875 11.75 
Q 26.265625 6.109375 33.40625 6.109375 
Q 40.53125 6.109375 44.609375 11.75 
Q 48.6875 17.390625 48.6875 27.296875 
M 18.109375 46.390625 
Q 20.953125 51.265625 25.265625 53.625 
Q 29.59375 56 35.59375 56 
Q 45.5625 56 51.78125 48.09375 
Q 58.015625 40.1875 58.015625 27.296875 
Q 58.015625 14.40625 51.78125 6.484375 
Q 45.5625 -1.421875 35.59375 -1.421875 
Q 29.59375 -1.421875 25.265625 0.953125 
Q 20.953125 3.328125 18.109375 8.203125 
L 18.109375 0 
L 9.078125 0 
L 9.078125 75.984375 
L 18.109375 75.984375 
z
" id="DejaVuSans-62"/>
      <path d="M 56.203125 29.59375 
L 56.203125 25.203125 
L 14.890625 25.203125 
Q 15.484375 15.921875 20.484375 11.0625 
Q 25.484375 6.203125 34.421875 6.203125 
Q 39.59375 6.203125 44.453125 7.46875 
Q 49.3125 8.734375 54.109375 11.28125 
L 54.109375 2.78125 
Q 49.265625 0.734375 44.1875 -0.34375 
Q 39.109375 -1.421875 33.890625 -1.421875 
Q 20.796875 -1.421875 13.15625 6.1875 
Q 5.515625 13.8125 5.515625 26.8125 
Q 5.515625 40.234375 12.765625 48.109375 
Q 20.015625 56 32.328125 56 
Q 43.359375 56 49.78125 48.890625 
Q 56.203125 41.796875 56.203125 29.59375 
M 47.21875 32.234375 
Q 47.125 39.59375 43.09375 43.984375 
Q 39.0625 48.390625 32.421875 48.390625 
Q 24.90625 48.390625 20.390625 44.140625 
Q 15.875 39.890625 15.1875 32.171875 
z
" id="DejaVuSans-65"/>
      <path d="M 41.109375 46.296875 
Q 39.59375 47.171875 37.8125 47.578125 
Q 36.03125 48 33.890625 48 
Q 26.265625 48 22.1875 43.046875 
Q 18.109375 38.09375 18.109375 28.8125 
L 18.109375 0 
L 9.078125 0 
L 9.078125 54.6875 
L 18.109375 54.6875 
L 18.109375 46.1875 
Q 20.953125 51.171875 25.484375 53.578125 
Q 30.03125 56 36.53125 56 
Q 37.453125 56 38.578125 55.875 
Q 39.703125 55.765625 41.0625 55.515625 
z
" id="DejaVuSans-72"/>
      <path id="DejaVuSans-20"/>
      <path d="M 30.609375 48.390625 
Q 23.390625 48.390625 19.1875 42.75 
Q 14.984375 37.109375 14.984375 27.296875 
Q 14.984375 17.484375 19.15625 11.84375 
Q 23.34375 6.203125 30.609375 6.203125 
Q 37.796875 6.203125 41.984375 11.859375 
Q 46.1875 17.53125 46.1875 27.296875 
Q 46.1875 37.015625 41.984375 42.703125 
Q 37.796875 48.390625 30.609375 48.390625 
M 30.609375 56 
Q 42.328125 56 49.015625 48.375 
Q 55.71875 40.765625 55.71875 27.296875 
Q 55.71875 13.875 49.015625 6.21875 
Q 42.328125 -1.421875 30.609375 -1.421875 
Q 18.84375 -1.421875 12.171875 6.21875 
Q 5.515625 13.875 5.515625 27.296875 
Q 5.515625 40.765625 12.171875 48.375 
Q 18.84375 56 30.609375 56 
" id="DejaVuSans-6f"/>
      <path d="M 37.109375 75.984375 
L 37.109375 68.5 
L 28.515625 68.5 
Q 23.6875 68.5 21.796875 66.546875 
Q 19.921875 64.59375 19.921875 59.515625 
L 19.921875 54.6875 
L 34.71875 54.6875 
L 34.71875 47.703125 
L 19.921875 47.703125 
L 19.921875 0 
L 10.890625 0 
L 10.890625 47.703125 
L 2.296875 47.703125 
L 2.296875 54.6875 
L 10.890625 54.6875 
L 10.890625 58.5 
Q 10.890625 67.625 15.140625 71.796875 
Q 19.390625 75.984375 28.609375 75.984375 
z
" id="DejaVuSans-66"/>
      <path d="M 48.78125 52.59375 
L 48.78125 44.1875 
Q 44.96875 46.296875 41.140625 47.34375 
Q 37.3125 48.390625 33.40625 48.390625 
Q 24.65625 48.390625 19.8125 42.84375 
Q 14.984375 37.3125 14.984375 27.296875 
Q 14.984375 17.28125 19.8125 11.734375 
Q 24.65625 6.203125 33.40625 6.203125 
Q 37.3125 6.203125 41.140625 7.25 
Q 44.96875 8.296875 48.78125 10.40625 
L 48.78125 2.09375 
Q 45.015625 0.34375 40.984375 -0.53125 
Q 36.96875 -1.421875 32.421875 -1.421875 
Q 20.0625 -1.421875 12.78125 6.34375 
Q 5.515625 14.109375 5.515625 27.296875 
Q 5.515625 40.671875 12.859375 48.328125 
Q 20.21875 56 33.015625 56 
Q 37.15625 56 41.109375 55.140625 
Q 45.0625 54.296875 48.78125 52.59375 
" id="DejaVuSans-63"/>
      <path d="M 9.421875 75.984375 
L 18.40625 75.984375 
L 18.40625 0 
L 9.421875 0 
z
" id="DejaVuSans-6c"/>
      <path d="M 9.421875 54.6875 
L 18.40625 54.6875 
L 18.40625 0 
L 9.421875 0 
z
M 9.421875 75.984375 
L 18.40625 75.984375 
L 18.40625 64.59375 
L 9.421875 64.59375 
z
" id="DejaVuSans-69"/>
      <path d="M 54.890625 33.015625 
L 54.890625 0 
L 45.90625 0 
L 45.90625 32.71875 
Q 45.90625 40.484375 42.875 44.328125 
Q 39.84375 48.1875 33.796875 48.1875 
Q 26.515625 48.1875 22.3125 43.546875 
Q 18.109375 38.921875 18.109375 30.90625 
L 18.109375 0 
L 9.078125 0 
L 9.078125 54.6875 
L 18.109375 54.6875 
L 18.109375 46.1875 
Q 21.34375 51.125 25.703125 53.5625 
Q 30.078125 56 35.796875 56 
Q 45.21875 56 50.046875 50.171875 
Q 54.890625 44.34375 54.890625 33.015625 
" id="DejaVuSans-6e"/>
      <path d="M 18.3125 70.21875 
L 18.3125 54.6875 
L 36.8125 54.6875 
L 36.8125 47.703125 
L 18.3125 47.703125 
L 18.3125 18.015625 
Q 18.3125 11.328125 20.140625 9.421875 
Q 21.96875 7.515625 27.59375 7.515625 
L 36.8125 7.515625 
L 36.8125 0 
L 27.59375 0 
Q 17.1875 0 13.234375 3.875 
Q 9.28125 7.765625 9.28125 18.015625 
L 9.28125 47.703125 
L 2.6875 47.703125 
L 2.6875 54.6875 
L 9.28125 54.6875 
L 9.28125 70.21875 
z
" id="DejaVuSans-74"/>
      <path d="M 44.28125 53.078125 
L 44.28125 44.578125 
Q 40.484375 46.53125 36.375 47.5 
Q 32.28125 48.484375 27.875 48.484375 
Q 21.1875 48.484375 17.84375 46.4375 
Q 14.5 44.390625 14.5 40.28125 
Q 14.5 37.15625 16.890625 35.375 
Q 19.28125 33.59375 26.515625 31.984375 
L 29.59375 31.296875 
Q 39.15625 29.25 43.1875 25.515625 
Q 47.21875 21.78125 47.21875 15.09375 
Q 47.21875 7.46875 41.1875 3.015625 
Q 35.15625 -1.421875 24.609375 -1.421875 
Q 20.21875 -1.421875 15.453125 -0.5625 
Q 10.6875 0.296875 5.421875 2 
L 5.421875 11.28125 
Q 10.40625 8.6875 15.234375 7.390625 
Q 20.0625 6.109375 24.8125 6.109375 
Q 31.15625 6.109375 34.5625 8.28125 
Q 37.984375 10.453125 37.984375 14.40625 
Q 37.984375 18.0625 35.515625 20.015625 
Q 33.0625 21.96875 24.703125 23.78125 
L 21.578125 24.515625 
Q 13.234375 26.265625 9.515625 29.90625 
Q 5.8125 33.546875 5.8125 39.890625 
Q 5.8125 47.609375 11.28125 51.796875 
Q 16.75 56 26.8125 56 
Q 31.78125 56 36.171875 55.265625 
Q 40.578125 54.546875 44.28125 53.078125 
" id="DejaVuSans-73"/>
     </defs>
     <g transform="translate(191.738906 335.860562)scale(0.1 -0.1)">
      <use xlink:href="#DejaVuSans-4e"/>
      <use x="74.804688" xlink:href="#DejaVuSans-75"/>
      <use x="138.183594" xlink:href="#DejaVuSans-6d"/>
      <use x="235.595703" xlink:href="#DejaVuSans-62"/>
      <use x="299.072266" xlink:href="#DejaVuSans-65"/>
      <use x="360.595703" xlink:href="#DejaVuSans-72"/>
      <use x="401.708984" xlink:href="#DejaVuSans-20"/>
      <use x="433.496094" xlink:href="#DejaVuSans-6f"/>
      <use x="494.677734" xlink:href="#DejaVuSans-66"/>
      <use x="529.882812" xlink:href="#DejaVuSans-20"/>
      <use x="561.669922" xlink:href="#DejaVuSans-63"/>
      <use x="616.650391" xlink:href="#DejaVuSans-6c"/>
      <use x="644.433594" xlink:href="#DejaVuSans-69"/>
      <use x="672.216797" xlink:href="#DejaVuSans-65"/>
      <use x="733.740234" xlink:href="#DejaVuSans-6e"/>
      <use x="797.119141" xlink:href="#DejaVuSans-74"/>
      <use x="836.328125" xlink:href="#DejaVuSans-73"/>
     </g>
    </g>
   </g>
   <g id="matplotlib.axis_2">
    <g id="ytick_1">
     <g id="line2d_13">
      <path clip-path="url(#pa38c13dfd2)" d="M 57.6 295.820641 
L 414.72 295.820641 
" style="fill:none;stroke:#b0b0b0;stroke-linecap:square;stroke-width:0.8;"/>
     </g>
     <g id="line2d_14">
      <defs>
       <path d="M 0 0 
L -3.5 0 
" id="m87addd3282" style="stroke:#000000;stroke-width:0.8;"/>
      </defs>
      <g>
       <use style="stroke:#000000;stroke-width:0.8;" x="57.6" xlink:href="#m87addd3282" y="295.820641"/>
      </g>
     </g>
     <g id="text_8">
      <!-- 0 -->
      <g transform="translate(44.2375 299.619859)scale(0.1 -0.1)">
       <use xlink:href="#DejaVuSans-30"/>
      </g>
     </g>
    </g>
    <g id="ytick_2">
     <g id="line2d_15">
      <path clip-path="url(#pa38c13dfd2)" d="M 57.6 261.242611 
L 414.72 261.242611 
" style="fill:none;stroke:#b0b0b0;stroke-linecap:square;stroke-width:0.8;"/>
     </g>
     <g id="line2d_16">
      <g>
       <use style="stroke:#000000;stroke-width:0.8;" x="57.6" xlink:href="#m87addd3282" y="261.242611"/>
      </g>
     </g>
     <g id="text_9">
      <!-- 100 -->
      <g transform="translate(31.5125 265.041829)scale(0.1 -0.1)">
       <use xlink:href="#DejaVuSans-31"/>
       <use x="63.623047" xlink:href="#DejaVuSans-30"/>
       <use x="127.246094" xlink:href="#DejaVuSans-30"/>
      </g>
     </g>
    </g>
    <g id="ytick_3">
     <g id="line2d_17">
      <path clip-path="url(#pa38c13dfd2)" d="M 57.6 226.664581 
L 414.72 226.664581 
" style="fill:none;stroke:#b0b0b0;stroke-linecap:square;stroke-width:0.8;"/>
     </g>
     <g id="line2d_18">
      <g>
       <use style="stroke:#000000;stroke-width:0.8;" x="57.6" xlink:href="#m87addd3282" y="226.664581"/>
      </g>
     </g>
     <g id="text_10">
      <!-- 200 -->
      <g transform="translate(31.5125 230.463799)scale(0.1 -0.1)">
       <use xlink:href="#DejaVuSans-32"/>
       <use x="63.623047" xlink:href="#DejaVuSans-30"/>
       <use x="127.246094" xlink:href="#DejaVuSans-30"/>
      </g>
     </g>
    </g>
    <g id="ytick_4">
     <g id="line2d_19">
      <path clip-path="url(#pa38c13dfd2)" d="M 57.6 192.086551 
L 414.72 192.086551 
" style="fill:none;stroke:#b0b0b0;stroke-linecap:square;stroke-width:0.8;"/>
     </g>
     <g id="line2d_20">
      <g>
       <use style="stroke:#000000;stroke-width:0.8;" x="57.6" xlink:href="#m87addd3282" y="192.086551"/>
      </g>
     </g>
     <g id="text_11">
      <!-- 300 -->
      <defs>
       <path d="M 40.578125 39.3125 
Q 47.65625 37.796875 51.625 33 
Q 55.609375 28.21875 55.609375 21.1875 
Q 55.609375 10.40625 48.1875 4.484375 
Q 40.765625 -1.421875 27.09375 -1.421875 
Q 22.515625 -1.421875 17.65625 -0.515625 
Q 12.796875 0.390625 7.625 2.203125 
L 7.625 11.71875 
Q 11.71875 9.328125 16.59375 8.109375 
Q 21.484375 6.890625 26.8125 6.890625 
Q 36.078125 6.890625 40.9375 10.546875 
Q 45.796875 14.203125 45.796875 21.1875 
Q 45.796875 27.640625 41.28125 31.265625 
Q 36.765625 34.90625 28.71875 34.90625 
L 20.21875 34.90625 
L 20.21875 43.015625 
L 29.109375 43.015625 
Q 36.375 43.015625 40.234375 45.921875 
Q 44.09375 48.828125 44.09375 54.296875 
Q 44.09375 59.90625 40.109375 62.90625 
Q 36.140625 65.921875 28.71875 65.921875 
Q 24.65625 65.921875 20.015625 65.03125 
Q 15.375 64.15625 9.8125 62.3125 
L 9.8125 71.09375 
Q 15.4375 72.65625 20.34375 73.4375 
Q 25.25 74.21875 29.59375 74.21875 
Q 40.828125 74.21875 47.359375 69.109375 
Q 53.90625 64.015625 53.90625 55.328125 
Q 53.90625 49.265625 50.4375 45.09375 
Q 46.96875 40.921875 40.578125 39.3125 
" id="DejaVuSans-33"/>
      </defs>
      <g transform="translate(31.5125 195.885769)scale(0.1 -0.1)">
       <use xlink:href="#DejaVuSans-33"/>
       <use x="63.623047" xlink:href="#DejaVuSans-30"/>
       <use x="127.246094" xlink:href="#DejaVuSans-30"/>
      </g>
     </g>
    </g>
    <g id="ytick_5">
     <g id="line2d_21">
      <path clip-path="url(#pa38c13dfd2)" d="M 57.6 157.508521 
L 414.72 157.508521 
" style="fill:none;stroke:#b0b0b0;stroke-linecap:square;stroke-width:0.8;"/>
     </g>
     <g id="line2d_22">
      <g>
       <use style="stroke:#000000;stroke-width:0.8;" x="57.6" xlink:href="#m87addd3282" y="157.508521"/>
      </g>
     </g>
     <g id="text_12">
      <!-- 400 -->
      <g transform="translate(31.5125 161.30774)scale(0.1 -0.1)">
       <use xlink:href="#DejaVuSans-34"/>
       <use x="63.623047" xlink:href="#DejaVuSans-30"/>
       <use x="127.246094" xlink:href="#DejaVuSans-30"/>
      </g>
     </g>
    </g>
    <g id="ytick_6">
     <g id="line2d_23">
      <path clip-path="url(#pa38c13dfd2)" d="M 57.6 122.930491 
L 414.72 122.930491 
" style="fill:none;stroke:#b0b0b0;stroke-linecap:square;stroke-width:0.8;"/>
     </g>
     <g id="line2d_24">
      <g>
       <use style="stroke:#000000;stroke-width:0.8;" x="57.6" xlink:href="#m87addd3282" y="122.930491"/>
      </g>
     </g>
     <g id="text_13">
      <!-- 500 -->
      <defs>
       <path d="M 10.796875 72.90625 
L 49.515625 72.90625 
L 49.515625 64.59375 
L 19.828125 64.59375 
L 19.828125 46.734375 
Q 21.96875 47.46875 24.109375 47.828125 
Q 26.265625 48.1875 28.421875 48.1875 
Q 40.625 48.1875 47.75 41.5 
Q 54.890625 34.8125 54.890625 23.390625 
Q 54.890625 11.625 47.5625 5.09375 
Q 40.234375 -1.421875 26.90625 -1.421875 
Q 22.3125 -1.421875 17.546875 -0.640625 
Q 12.796875 0.140625 7.71875 1.703125 
L 7.71875 11.625 
Q 12.109375 9.234375 16.796875 8.0625 
Q 21.484375 6.890625 26.703125 6.890625 
Q 35.15625 6.890625 40.078125 11.328125 
Q 45.015625 15.765625 45.015625 23.390625 
Q 45.015625 31 40.078125 35.4375 
Q 35.15625 39.890625 26.703125 39.890625 
Q 22.75 39.890625 18.8125 39.015625 
Q 14.890625 38.140625 10.796875 36.28125 
z
" id="DejaVuSans-35"/>
      </defs>
      <g transform="translate(31.5125 126.72971)scale(0.1 -0.1)">
       <use xlink:href="#DejaVuSans-35"/>
       <use x="63.623047" xlink:href="#DejaVuSans-30"/>
       <use x="127.246094" xlink:href="#DejaVuSans-30"/>
      </g>
     </g>
    </g>
    <g id="ytick_7">
     <g id="line2d_25">
      <path clip-path="url(#pa38c13dfd2)" d="M 57.6 88.352461 
L 414.72 88.352461 
" style="fill:none;stroke:#b0b0b0;stroke-linecap:square;stroke-width:0.8;"/>
     </g>
     <g id="line2d_26">
      <g>
       <use style="stroke:#000000;stroke-width:0.8;" x="57.6" xlink:href="#m87addd3282" y="88.352461"/>
      </g>
     </g>
     <g id="text_14">
      <!-- 600 -->
      <g transform="translate(31.5125 92.15168)scale(0.1 -0.1)">
       <use xlink:href="#DejaVuSans-36"/>
       <use x="63.623047" xlink:href="#DejaVuSans-30"/>
       <use x="127.246094" xlink:href="#DejaVuSans-30"/>
      </g>
     </g>
    </g>
    <g id="ytick_8">
     <g id="line2d_27">
      <path clip-path="url(#pa38c13dfd2)" d="M 57.6 53.774431 
L 414.72 53.774431 
" style="fill:none;stroke:#b0b0b0;stroke-linecap:square;stroke-width:0.8;"/>
     </g>
     <g id="line2d_28">
      <g>
       <use style="stroke:#000000;stroke-width:0.8;" x="57.6" xlink:href="#m87addd3282" y="53.774431"/>
      </g>
     </g>
     <g id="text_15">
      <!-- 700 -->
      <defs>
       <path d="M 8.203125 72.90625 
L 55.078125 72.90625 
L 55.078125 68.703125 
L 28.609375 0 
L 18.3125 0 
L 43.21875 64.59375 
L 8.203125 64.59375 
z
" id="DejaVuSans-37"/>
      </defs>
      <g transform="translate(31.5125 57.57365)scale(0.1 -0.1)">
       <use xlink:href="#DejaVuSans-37"/>
       <use x="63.623047" xlink:href="#DejaVuSans-30"/>
       <use x="127.246094" xlink:href="#DejaVuSans-30"/>
      </g>
     </g>
    </g>
    <g id="text_16">
     <!-- Successful download requests per second -->
     <defs>
      <path d="M 53.515625 70.515625 
L 53.515625 60.890625 
Q 47.90625 63.578125 42.921875 64.890625 
Q 37.9375 66.21875 33.296875 66.21875 
Q 25.25 66.21875 20.875 63.09375 
Q 16.5 59.96875 16.5 54.203125 
Q 16.5 49.359375 19.40625 46.890625 
Q 22.3125 44.4375 30.421875 42.921875 
L 36.375 41.703125 
Q 47.40625 39.59375 52.65625 34.296875 
Q 57.90625 29 57.90625 20.125 
Q 57.90625 9.515625 50.796875 4.046875 
Q 43.703125 -1.421875 29.984375 -1.421875 
Q 24.8125 -1.421875 18.96875 -0.25 
Q 13.140625 0.921875 6.890625 3.21875 
L 6.890625 13.375 
Q 12.890625 10.015625 18.65625 8.296875 
Q 24.421875 6.59375 29.984375 6.59375 
Q 38.421875 6.59375 43.015625 9.90625 
Q 47.609375 13.234375 47.609375 19.390625 
Q 47.609375 24.75 44.3125 27.78125 
Q 41.015625 30.8125 33.5 32.328125 
L 27.484375 33.5 
Q 16.453125 35.6875 11.515625 40.375 
Q 6.59375 45.0625 6.59375 53.421875 
Q 6.59375 63.09375 13.40625 68.65625 
Q 20.21875 74.21875 32.171875 74.21875 
Q 37.3125 74.21875 42.625 73.28125 
Q 47.953125 72.359375 53.515625 70.515625 
" id="DejaVuSans-53"/>
      <path d="M 45.40625 46.390625 
L 45.40625 75.984375 
L 54.390625 75.984375 
L 54.390625 0 
L 45.40625 0 
L 45.40625 8.203125 
Q 42.578125 3.328125 38.25 0.953125 
Q 33.9375 -1.421875 27.875 -1.421875 
Q 17.96875 -1.421875 11.734375 6.484375 
Q 5.515625 14.40625 5.515625 27.296875 
Q 5.515625 40.1875 11.734375 48.09375 
Q 17.96875 56 27.875 56 
Q 33.9375 56 38.25 53.625 
Q 42.578125 51.265625 45.40625 46.390625 
M 14.796875 27.296875 
Q 14.796875 17.390625 18.875 11.75 
Q 22.953125 6.109375 30.078125 6.109375 
Q 37.203125 6.109375 41.296875 11.75 
Q 45.40625 17.390625 45.40625 27.296875 
Q 45.40625 37.203125 41.296875 42.84375 
Q 37.203125 48.484375 30.078125 48.484375 
Q 22.953125 48.484375 18.875 42.84375 
Q 14.796875 37.203125 14.796875 27.296875 
" id="DejaVuSans-64"/>
      <path d="M 4.203125 54.6875 
L 13.1875 54.6875 
L 24.421875 12.015625 
L 35.59375 54.6875 
L 46.1875 54.6875 
L 57.421875 12.015625 
L 68.609375 54.6875 
L 77.59375 54.6875 
L 63.28125 0 
L 52.6875 0 
L 40.921875 44.828125 
L 29.109375 0 
L 18.5 0 
z
" id="DejaVuSans-77"/>
      <path d="M 34.28125 27.484375 
Q 23.390625 27.484375 19.1875 25 
Q 14.984375 22.515625 14.984375 16.5 
Q 14.984375 11.71875 18.140625 8.90625 
Q 21.296875 6.109375 26.703125 6.109375 
Q 34.1875 6.109375 38.703125 11.40625 
Q 43.21875 16.703125 43.21875 25.484375 
L 43.21875 27.484375 
z
M 52.203125 31.203125 
L 52.203125 0 
L 43.21875 0 
L 43.21875 8.296875 
Q 40.140625 3.328125 35.546875 0.953125 
Q 30.953125 -1.421875 24.3125 -1.421875 
Q 15.921875 -1.421875 10.953125 3.296875 
Q 6 8.015625 6 15.921875 
Q 6 25.140625 12.171875 29.828125 
Q 18.359375 34.515625 30.609375 34.515625 
L 43.21875 34.515625 
L 43.21875 35.40625 
Q 43.21875 41.609375 39.140625 45 
Q 35.0625 48.390625 27.6875 48.390625 
Q 23 48.390625 18.546875 47.265625 
Q 14.109375 46.140625 10.015625 43.890625 
L 10.015625 52.203125 
Q 14.9375 54.109375 19.578125 55.046875 
Q 24.21875 56 28.609375 56 
Q 40.484375 56 46.34375 49.84375 
Q 52.203125 43.703125 52.203125 31.203125 
" id="DejaVuSans-61"/>
      <path d="M 14.796875 27.296875 
Q 14.796875 17.390625 18.875 11.75 
Q 22.953125 6.109375 30.078125 6.109375 
Q 37.203125 6.109375 41.296875 11.75 
Q 45.40625 17.390625 45.40625 27.296875 
Q 45.40625 37.203125 41.296875 42.84375 
Q 37.203125 48.484375 30.078125 48.484375 
Q 22.953125 48.484375 18.875 42.84375 
Q 14.796875 37.203125 14.796875 27.296875 
M 45.40625 8.203125 
Q 42.578125 3.328125 38.25 0.953125 
Q 33.9375 -1.421875 27.875 -1.421875 
Q 17.96875 -1.421875 11.734375 6.484375 
Q 5.515625 14.40625 5.515625 27.296875 
Q 5.515625 40.1875 11.734375 48.09375 
Q 17.96875 56 27.875 56 
Q 33.9375 56 38.25 53.625 
Q 42.578125 51.265625 45.40625 46.390625 
L 45.40625 54.6875 
L 54.390625 54.6875 
L 54.390625 -20.796875 
L 45.40625 -20.796875 
z
" id="DejaVuSans-71"/>
      <path d="M 18.109375 8.203125 
L 18.109375 -20.796875 
L 9.078125 -20.796875 
L 9.078125 54.6875 
L 18.109375 54.6875 
L 18.109375 46.390625 
Q 20.953125 51.265625 25.265625 53.625 
Q 29.59375 56 35.59375 56 
Q 45.5625 56 51.78125 48.09375 
Q 58.015625 40.1875 58.015625 27.296875 
Q 58.015625 14.40625 51.78125 6.484375 
Q 45.5625 -1.421875 35.59375 -1.421875 
Q 29.59375 -1.421875 25.265625 0.953125 
Q 20.953125 3.328125 18.109375 8.203125 
M 48.6875 27.296875 
Q 48.6875 37.203125 44.609375 42.84375 
Q 40.53125 48.484375 33.40625 48.484375 
Q 26.265625 48.484375 22.1875 42.84375 
Q 18.109375 37.203125 18.109375 27.296875 
Q 18.109375 17.390625 22.1875 11.75 
Q 26.265625 6.109375 33.40625 6.109375 
Q 40.53125 6.109375 44.609375 11.75 
Q 48.6875 17.390625 48.6875 27.296875 
" id="DejaVuSans-70"/>
     </defs>
     <g transform="translate(25.432812 279.366281)rotate(-90)scale(0.1 -0.1)">
      <use xlink:href="#DejaVuSans-53"/>
      <use x="63.476562" xlink:href="#DejaVuSans-75"/>
      <use x="126.855469" xlink:href="#DejaVuSans-63"/>
      <use x="181.835938" xlink:href="#DejaVuSans-63"/>
      <use x="236.816406" xlink:href="#DejaVuSans-65"/>
      <use x="298.339844" xlink:href="#DejaVuSans-73"/>
      <use x="350.439453" xlink:href="#DejaVuSans-73"/>
      <use x="402.539062" xlink:href="#DejaVuSans-66"/>
      <use x="437.744141" xlink:href="#DejaVuSans-75"/>
      <use x="501.123047" xlink:href="#DejaVuSans-6c"/>
      <use x="528.90625" xlink:href="#DejaVuSans-20"/>
      <use x="560.693359" xlink:href="#DejaVuSans-64"/>
      <use x="624.169922" xlink:href="#DejaVuSans-6f"/>
      <use x="685.351562" xlink:href="#DejaVuSans-77"/>
      <use x="767.138672" xlink:href="#DejaVuSans-6e"/>
      <use x="830.517578" xlink:href="#DejaVuSans-6c"/>
      <use x="858.300781" xlink:href="#DejaVuSans-6f"/>
      <use x="919.482422" xlink:href="#DejaVuSans-61"/>
      <use x="980.761719" xlink:href="#DejaVuSans-64"/>
      <use x="1044.238281" xlink:href="#DejaVuSans-20"/>
      <use x="1076.025391" xlink:href="#DejaVuSans-72"/>
      <use x="1117.107422" xlink:href="#DejaVuSans-65"/>
      <use x="1178.630859" xlink:href="#DejaVuSans-71"/>
      <use x="1242.107422" xlink:href="#DejaVuSans-75"/>
      <use x="1305.486328" xlink:href="#DejaVuSans-65"/>
      <use x="1367.009766" xlink:href="#DejaVuSans-73"/>
      <use x="1419.109375" xlink:href="#DejaVuSans-74"/>
      <use x="1458.318359" xlink:href="#DejaVuSans-73"/>
      <use x="1510.417969" xlink:href="#DejaVuSans-20"/>
      <use x="1542.205078" xlink:href="#DejaVuSans-70"/>
      <use x="1605.681641" xlink:href="#DejaVuSans-65"/>
      <use x="1667.205078" xlink:href="#DejaVuSans-72"/>
      <use x="1708.318359" xlink:href="#DejaVuSans-20"/>
      <use x="1740.105469" xlink:href="#DejaVuSans-73"/>
      <use x="1792.205078" xlink:href="#DejaVuSans-65"/>
      <use x="1853.728516" xlink:href="#DejaVuSans-63"/>
      <use x="1908.708984" xlink:href="#DejaVuSans-6f"/>
      <use x="1969.890625" xlink:href="#DejaVuSans-6e"/>
      <use x="2033.269531" xlink:href="#DejaVuSans-64"/>
     </g>
    </g>
   </g>
   <g id="line2d_29">
    <path clip-path="url(#pa38c13dfd2)" d="M 57.6 295.488 
L 57.95712 295.480393 
L 59.74272 293.826871 
L 61.52832 292.133931 
L 61.88544 291.957583 
L 62.24256 291.390503 
L 62.9568 290.940643 
L 64.02816 289.728683 
L 64.38528 289.61423 
L 64.7424 288.927856 
L 65.09952 288.706557 
L 65.45664 288.689959 
L 66.88512 287.138097 
L 67.24224 287.102136 
L 67.59936 286.444462 
L 67.95648 286.194463 
L 68.3136 285.535751 
L 68.67072 285.693427 
L 69.02784 285.339694 
L 69.38496 284.802006 
L 69.74208 284.845228 
L 70.0992 284.151939 
L 70.45632 284.006019 
L 70.81344 283.396754 
L 71.17056 283.501526 
L 71.8848 282.07864 
L 72.24192 282.163702 
L 72.59904 282.015708 
L 72.95616 281.027122 
L 73.31328 281.534036 
L 73.6704 280.356308 
L 74.02752 280.435838 
L 74.38464 280.231136 
L 74.74176 280.290956 
L 75.09888 279.976987 
L 75.81312 278.633977 
L 76.52736 278.571736 
L 77.2416 277.20625 
L 77.59872 277.731144 
L 77.95584 276.763651 
L 78.31296 276.360471 
L 78.67008 276.260886 
L 79.0272 275.54443 
L 79.38432 275.550308 
L 79.74144 275.426864 
L 80.45568 274.226661 
L 80.8128 273.878114 
L 81.16992 273.233926 
L 81.52704 273.707299 
L 81.88416 273.43517 
L 82.5984 271.987042 
L 83.31264 271.597002 
L 83.66976 272.20765 
L 84.02688 270.57695 
L 84.384 270.611528 
L 84.74112 270.464917 
L 85.09824 269.285115 
L 85.45536 268.868795 
L 85.81248 269.98774 
L 86.1696 268.464232 
L 86.52672 268.365339 
L 86.88384 268.044109 
L 87.24096 268.360498 
L 87.59808 267.370875 
L 87.9552 267.089756 
L 88.31232 266.183465 
L 88.66944 267.104278 
L 89.02656 266.778553 
L 89.38368 266.179316 
L 89.7408 265.081809 
L 90.09792 265.469083 
L 90.45504 264.069019 
L 90.81216 264.72116 
L 91.16928 264.102214 
L 91.5264 263.070405 
L 91.88352 264.686928 
L 92.24064 262.374004 
L 92.59776 262.560379 
L 92.95488 261.746413 
L 93.312 261.985693 
L 94.02624 261.86951 
L 94.38336 262.463907 
L 94.74048 262.187974 
L 95.0976 260.710801 
L 95.45472 260.732931 
L 95.81184 261.08044 
L 96.16896 259.250225 
L 96.52608 259.341511 
L 96.8832 259.670002 
L 97.24032 258.607765 
L 97.59744 259.48985 
L 97.95456 257.231559 
L 98.31168 257.149609 
L 98.6688 258.524778 
L 99.38304 255.9335 
L 99.74016 256.041038 
L 100.09728 257.089443 
L 100.4544 254.939727 
L 100.81152 254.013382 
L 101.16864 253.685582 
L 101.52576 255.94249 
L 102.24 253.294159 
L 102.59712 253.966356 
L 102.95424 252.478463 
L 103.31136 253.893742 
L 103.66848 252.367122 
L 104.0256 253.487104 
L 104.38272 252.470164 
L 104.73984 250.468442 
L 105.09696 252.149626 
L 105.45408 251.42245 
L 105.8112 251.159657 
L 106.16832 249.238848 
L 106.52544 251.068371 
L 106.88256 250.370932 
L 107.23968 250.738151 
L 107.5968 249.207382 
L 107.95392 248.441132 
L 108.31104 249.118862 
L 108.66816 248.817687 
L 109.02528 247.610568 
L 109.3824 247.07945 
L 109.73952 248.41105 
L 110.09664 246.342938 
L 110.45376 246.651374 
L 110.81088 245.233329 
L 111.168 245.209816 
L 111.52512 246.586713 
L 111.88224 244.32531 
L 112.23936 244.712238 
L 112.59648 243.476419 
L 112.9536 245.109885 
L 113.31072 244.801449 
L 113.66784 242.958094 
L 114.02496 242.843295 
L 114.38208 243.98195 
L 114.7392 241.572553 
L 115.09632 243.06494 
L 115.45344 241.772759 
L 115.81056 242.997513 
L 116.16768 240.327398 
L 116.5248 240.328435 
L 116.88192 242.049384 
L 118.3104 237.791099 
L 118.66752 237.300783 
L 119.38176 239.095037 
L 119.73888 236.172847 
L 120.096 235.652102 
L 120.45312 235.845048 
L 120.81024 234.65176 
L 121.16736 237.511709 
L 121.52448 234.263794 
L 121.8816 235.658326 
L 122.23872 233.335028 
L 122.59584 236.113373 
L 122.95296 235.900373 
L 123.31008 234.735784 
L 123.6672 234.685646 
L 124.02432 234.512756 
L 124.38144 233.730601 
L 124.73856 235.009642 
L 125.09568 234.489243 
L 125.4528 233.539385 
L 125.80992 233.877212 
L 126.16704 229.491335 
L 126.52416 229.53352 
L 126.88128 229.30738 
L 127.2384 232.22127 
L 127.59552 231.989943 
L 127.95264 229.532828 
L 128.66688 230.728882 
L 129.024 227.221287 
L 129.38112 229.087117 
L 129.73824 229.796313 
L 130.09536 225.813961 
L 130.8096 228.433938 
L 131.52384 224.554629 
L 131.88096 227.387262 
L 132.23808 228.262431 
L 132.5952 227.059808 
L 132.95232 226.517624 
L 133.30944 227.415616 
L 133.66656 226.95884 
L 134.02368 223.39834 
L 134.3808 221.524557 
L 134.73792 224.41528 
L 135.09504 225.770739 
L 135.45216 223.828145 
L 135.80928 224.054631 
L 136.1664 222.62967 
L 136.52352 223.538035 
L 136.88064 221.824694 
L 137.23776 221.156646 
L 137.59488 218.582658 
L 137.952 221.641776 
L 138.30912 218.784593 
L 138.66624 218.586807 
L 139.02336 222.137279 
L 139.38048 217.340961 
L 139.7376 217.538055 
L 140.09472 219.769722 
L 140.45184 216.200577 
L 140.80896 216.364823 
L 141.16608 215.112061 
L 141.5232 218.054651 
L 141.88032 217.643864 
L 142.23744 214.318149 
L 142.59456 216.96406 
L 143.3088 212.949551 
L 143.66592 216.687436 
L 144.02304 213.448166 
L 144.38016 217.660116 
L 144.73728 211.550524 
L 145.0944 214.976861 
L 145.45152 211.270788 
L 145.80864 213.485856 
L 146.16576 212.792221 
L 146.52288 210.830263 
L 146.88 215.311576 
L 147.23712 209.989672 
L 147.59424 211.910827 
L 147.95136 209.293616 
L 148.30848 213.790143 
L 148.6656 212.411517 
L 149.02272 208.354131 
L 149.37984 210.737249 
L 149.73696 208.21409 
L 150.09408 206.934357 
L 150.80832 209.577156 
L 151.16544 209.62107 
L 151.52256 209.374528 
L 151.87968 207.85102 
L 152.2368 207.293277 
L 152.59392 206.528065 
L 152.95104 208.667408 
L 153.30816 204.001448 
L 154.0224 205.806076 
L 154.37952 207.39459 
L 154.73664 202.545367 
L 155.09376 205.380766 
L 155.45088 202.297097 
L 155.808 207.154273 
L 156.16512 206.518037 
L 156.52224 203.593082 
L 156.87936 202.472754 
L 157.23648 202.170887 
L 157.5936 203.70546 
L 157.95072 202.642186 
L 158.30784 203.573372 
L 158.66496 201.46515 
L 159.02208 197.887015 
L 159.3792 203.364521 
L 159.73632 200.790187 
L 160.09344 201.631816 
L 160.45056 201.401526 
L 160.80768 196.093107 
L 161.1648 202.381122 
L 161.52192 201.727943 
L 161.87904 200.4859 
L 162.23616 196.492829 
L 162.59328 199.11419 
L 162.9504 197.471387 
L 163.30752 200.118336 
L 163.66464 196.423673 
L 164.02176 194.076516 
L 164.736 197.278442 
L 165.09312 191.981088 
L 165.45024 196.343798 
L 166.16448 191.895334 
L 166.5216 196.72139 
L 166.87872 190.226598 
L 167.23584 194.243528 
L 167.59296 196.119386 
L 167.95008 196.266689 
L 168.3072 195.846911 
L 168.66432 190.41332 
L 169.02144 189.152951 
L 169.73568 193.606947 
L 170.0928 191.344852 
L 170.44992 194.111094 
L 170.80704 192.975898 
L 171.16416 191.04264 
L 171.52128 186.952751 
L 171.8784 188.005652 
L 172.23552 190.854536 
L 172.59264 186.630483 
L 172.94976 190.036419 
L 173.30688 185.466241 
L 173.664 189.405025 
L 174.02112 183.380494 
L 174.37824 188.338292 
L 174.73536 183.531946 
L 175.09248 187.028131 
L 175.4496 186.801299 
L 175.80672 181.447582 
L 176.16384 185.931661 
L 176.52096 183.658156 
L 176.87808 184.388444 
L 177.2352 186.033321 
L 177.59232 185.664719 
L 177.94944 183.860437 
L 178.30656 185.818937 
L 178.66368 178.609418 
L 179.0208 185.925437 
L 179.37792 180.204157 
L 179.73504 179.658169 
L 180.09216 179.46799 
L 180.44928 181.3601 
L 180.8064 178.204855 
L 181.16352 177.411635 
L 181.52064 177.455895 
L 181.87776 177.687567 
L 182.23488 179.738736 
L 182.592 177.601814 
L 182.94912 176.949672 
L 183.30624 176.568277 
L 183.66336 179.903328 
L 184.02048 176.490476 
L 184.3776 178.370138 
L 184.73472 172.722854 
L 185.09184 180.620476 
L 185.44896 174.847328 
L 185.80608 179.071726 
L 186.1632 171.418225 
L 186.52032 178.106653 
L 186.87744 173.224235 
L 187.59168 177.419242 
L 187.9488 171.854945 
L 188.30592 177.299948 
L 188.66304 172.907846 
L 189.02016 174.354245 
L 189.37728 174.81033 
L 189.7344 176.712121 
L 190.09152 174.818974 
L 190.44864 170.756056 
L 191.16288 167.096317 
L 191.52 174.748781 
L 191.87712 172.559991 
L 192.23424 166.784769 
L 192.59136 169.699351 
L 193.3056 170.218713 
L 193.66272 165.507802 
L 194.01984 167.939675 
L 194.37696 165.630208 
L 195.0912 163.524752 
L 195.80544 170.583857 
L 196.16256 163.836646 
L 196.51968 162.423096 
L 196.8768 167.385389 
L 197.23392 166.516789 
L 197.59104 166.869139 
L 197.94816 161.508161 
L 198.6624 168.578331 
L 199.01952 167.14438 
L 199.73376 159.201807 
L 200.09088 160.558303 
L 200.448 163.433812 
L 200.80512 160.453186 
L 201.16224 160.358788 
L 201.51936 163.201793 
L 201.87648 160.897513 
L 202.2336 164.268871 
L 202.59072 155.866064 
L 202.94784 161.067637 
L 203.30496 157.013709 
L 203.66208 154.673814 
L 204.0192 163.091489 
L 204.73344 155.722566 
L 205.09056 158.281686 
L 205.44768 156.405482 
L 205.8048 160.950418 
L 206.51904 157.686252 
L 206.87616 152.377141 
L 207.23328 160.583545 
L 207.5904 160.11847 
L 207.94752 157.838741 
L 208.30464 150.422445 
L 208.66176 155.145804 
L 209.01888 155.162056 
L 209.376 153.914826 
L 209.73312 149.085313 
L 210.09024 151.221543 
L 210.44736 156.632313 
L 210.80448 157.03411 
L 211.1616 151.496093 
L 211.51872 157.096351 
L 211.87584 152.424513 
L 212.59008 147.705995 
L 212.9472 146.816994 
L 213.30432 150.738142 
L 213.66144 147.686977 
L 214.01856 150.581504 
L 214.37568 145.298327 
L 214.7328 145.935254 
L 215.80416 152.579768 
L 216.16128 145.421425 
L 216.5184 145.922806 
L 216.87552 146.773426 
L 217.23264 146.850535 
L 217.58976 142.580839 
L 217.94688 149.40101 
L 218.304 144.990237 
L 218.66112 144.087404 
L 219.01824 148.466366 
L 219.37536 140.827042 
L 219.73248 141.25408 
L 220.0896 146.232971 
L 220.44672 143.100547 
L 220.80384 142.212583 
L 221.16096 140.901039 
L 221.51808 144.084638 
L 221.8752 139.110934 
L 222.23232 146.335668 
L 222.58944 140.229879 
L 222.94656 145.048328 
L 223.6608 135.370283 
L 224.01792 139.39067 
L 224.37504 145.44148 
L 224.73216 141.573581 
L 225.08928 143.196674 
L 225.80352 134.873397 
L 226.16064 133.492004 
L 226.51776 134.705002 
L 226.87488 141.902418 
L 227.232 131.747543 
L 227.58912 141.506154 
L 228.30336 131.486479 
L 229.0176 140.569781 
L 229.37472 138.95395 
L 229.73184 136.784524 
L 230.08896 128.937386 
L 230.44608 132.938064 
L 230.8032 131.709507 
L 231.16032 133.653138 
L 231.51744 129.429432 
L 231.87456 136.269312 
L 232.23168 132.379975 
L 232.5888 134.714338 
L 232.94592 136.215716 
L 233.30304 128.614427 
L 233.66016 133.894838 
L 234.01728 134.200162 
L 234.3744 128.876875 
L 235.08864 125.026611 
L 235.44576 125.454341 
L 235.80288 125.063955 
L 236.16 134.45189 
L 236.51712 124.440168 
L 236.87424 129.456402 
L 237.23136 129.137247 
L 237.58848 131.087102 
L 237.9456 129.598864 
L 238.30272 131.339868 
L 238.65984 121.147993 
L 239.01696 128.562215 
L 239.37408 128.701218 
L 239.7312 126.656965 
L 240.08832 119.8814 
L 240.44544 124.779378 
L 240.80256 119.714388 
L 241.15968 127.445344 
L 241.5168 125.858904 
L 241.87392 119.458857 
L 242.23104 128.452256 
L 242.58816 120.6435 
L 242.94528 125.003444 
L 243.3024 123.642107 
L 243.65952 126.867199 
L 244.01664 119.695025 
L 244.37376 115.901815 
L 244.73088 121.899374 
L 245.088 123.81638 
L 245.44512 114.589578 
L 245.80224 125.240649 
L 246.15936 116.788741 
L 246.51648 115.284597 
L 246.8736 112.672572 
L 247.58784 123.815343 
L 247.94496 112.487234 
L 248.6592 119.82815 
L 249.01632 112.09097 
L 249.37344 112.229282 
L 249.73056 121.432571 
L 250.08768 114.050507 
L 250.4448 121.673234 
L 250.80192 115.093726 
L 251.15904 112.196087 
L 251.51616 117.640744 
L 251.87328 120.405949 
L 252.2304 120.105466 
L 252.58752 111.949892 
L 252.94464 118.636245 
L 253.30176 109.901489 
L 253.65888 112.976859 
L 254.016 117.59925 
L 254.37312 109.674311 
L 254.73024 115.859975 
L 255.08736 113.998294 
L 255.44448 110.798443 
L 255.8016 116.643859 
L 256.51584 108.287387 
L 256.87296 114.45092 
L 257.5872 106.737599 
L 258.30144 117.254853 
L 258.65856 108.099974 
L 259.01568 108.058826 
L 259.3728 109.004881 
L 259.72992 115.318137 
L 260.08704 110.181225 
L 260.44416 109.688834 
L 260.80128 107.29638 
L 261.1584 107.363807 
L 261.87264 115.465094 
L 262.22976 116.77491 
L 262.58688 108.149075 
L 262.944 113.339928 
L 263.30112 112.00245 
L 263.65824 110.151834 
L 264.01536 113.377273 
L 264.37248 104.111052 
L 264.7296 114.433631 
L 265.08672 111.419465 
L 265.44384 106.414986 
L 265.80096 109.043262 
L 266.15808 114.341654 
L 266.5152 107.907028 
L 266.87232 111.044639 
L 267.22944 106.985524 
L 267.58656 106.897696 
L 267.94368 113.520426 
L 268.65792 110.730324 
L 269.01504 106.385249 
L 269.37216 109.173276 
L 269.72928 105.979995 
L 270.0864 108.799833 
L 270.44352 105.001782 
L 270.80064 110.011793 
L 271.15776 111.857222 
L 271.51488 107.273905 
L 271.872 100.506638 
L 272.22912 105.009044 
L 272.58624 102.08478 
L 272.94336 107.570238 
L 273.30048 103.765272 
L 273.6576 112.655629 
L 274.01472 105.438157 
L 274.37184 103.496255 
L 274.72896 108.577496 
L 275.08608 101.852415 
L 275.4432 103.795009 
L 275.80032 104.981381 
L 276.15744 104.056419 
L 276.51456 110.789453 
L 276.87168 105.800189 
L 277.2288 110.855843 
L 277.58592 100.595504 
L 277.94304 106.625567 
L 278.30016 99.539491 
L 279.0144 108.124524 
L 279.37152 106.656341 
L 279.72864 106.716853 
L 280.08576 99.551593 
L 280.44288 105.975845 
L 280.8 96.959624 
L 281.15712 109.601006 
L 281.51424 99.933335 
L 281.87136 103.736226 
L 282.22848 103.028414 
L 282.5856 99.3953 
L 282.94272 103.136989 
L 283.29984 95.954441 
L 283.65696 108.084759 
L 284.01408 106.64908 
L 284.3712 101.74384 
L 284.72832 100.513554 
L 285.08544 108.308825 
L 285.44256 108.067125 
L 285.79968 100.207538 
L 286.1568 97.903258 
L 286.51392 108.003847 
L 286.87104 98.81681 
L 287.22816 101.011823 
L 287.58528 107.519063 
L 287.9424 98.384585 
L 288.29952 102.635953 
L 288.65664 94.307489 
L 289.01376 105.801918 
L 289.37088 95.919517 
L 289.728 96.167441 
L 290.08512 98.346549 
L 290.44224 94.420559 
L 290.79936 104.789819 
L 291.15648 104.434011 
L 291.5136 96.861077 
L 291.87072 97.48279 
L 292.22784 103.450612 
L 292.58496 99.428495 
L 292.94208 103.15082 
L 293.2992 92.725544 
L 293.65632 99.836516 
L 294.01344 93.857629 
L 294.37056 96.213776 
L 294.72768 102.783256 
L 295.0848 97.439913 
L 295.44192 98.571306 
L 295.79904 103.348261 
L 296.15616 95.468965 
L 296.51328 101.026692 
L 296.8704 93.552997 
L 297.22752 95.938189 
L 297.58464 102.631113 
L 297.94176 95.662948 
L 298.29888 92.145671 
L 299.37024 102.14702 
L 299.72736 89.940976 
L 300.08448 101.463067 
L 300.4416 94.088264 
L 300.79872 100.893912 
L 301.15584 103.043628 
L 301.51296 101.440937 
L 301.87008 93.163648 
L 302.2272 95.966543 
L 302.58432 93.412955 
L 302.94144 93.894627 
L 303.29856 100.325449 
L 303.65568 94.08861 
L 304.0128 99.62559 
L 304.36992 88.834824 
L 304.72704 89.826522 
L 305.08416 95.459629 
L 305.44128 96.661907 
L 305.7984 89.860409 
L 306.15552 99.802284 
L 306.51264 96.60762 
L 306.86976 91.155356 
L 307.22688 101.234852 
L 307.584 96.204094 
L 307.94112 98.880434 
L 308.29824 99.051249 
L 308.65536 90.325483 
L 309.01248 96.529473 
L 309.3696 98.684376 
L 309.72672 96.444411 
L 310.08384 98.308167 
L 310.44096 89.703079 
L 310.79808 91.948922 
L 311.1552 99.505604 
L 311.51232 89.632194 
L 311.86944 89.446855 
L 312.22656 90.266009 
L 312.58368 93.998016 
L 312.9408 94.288817 
L 313.29792 96.089987 
L 313.65504 96.427468 
L 314.01216 92.290553 
L 314.36928 95.918134 
L 314.7264 94.921941 
L 315.08352 89.752871 
L 315.44064 94.010118 
L 315.79776 95.508384 
L 316.15488 91.268426 
L 316.512 94.895316 
L 316.86912 86.257724 
L 317.22624 90.303699 
L 317.58336 97.26149 
L 317.94048 86.567197 
L 318.2976 97.023939 
L 318.65472 94.038126 
L 319.01184 83.712089 
L 319.36896 89.835513 
L 319.72608 82.846601 
L 320.44032 91.296434 
L 320.79744 93.498363 
L 321.15456 92.794355 
L 321.51168 86.042303 
L 321.8688 83.15642 
L 322.22592 81.499095 
L 322.58304 89.68579 
L 322.94016 83.142935 
L 323.29728 80.8964 
L 323.6544 93.163302 
L 324.01152 80.886373 
L 324.36864 95.142894 
L 324.72576 90.968635 
L 325.08288 81.96002 
L 325.44 93.14705 
L 326.51136 80.17856 
L 326.86848 81.386025 
L 327.58272 88.322032 
L 327.93984 80.560993 
L 328.65408 85.095902 
L 329.0112 89.243191 
L 329.36832 85.584144 
L 329.72544 83.183391 
L 330.08256 90.943738 
L 330.43968 80.673026 
L 330.7968 89.613867 
L 331.51104 86.558898 
L 331.86816 89.034685 
L 332.22528 92.612128 
L 332.5824 78.337626 
L 332.93952 80.951033 
L 333.29664 81.640519 
L 333.65376 85.942372 
L 334.01088 87.646377 
L 334.368 79.763624 
L 334.72512 85.160217 
L 335.08224 84.429238 
L 335.43936 82.654001 
L 335.79648 90.349688 
L 336.1536 91.080322 
L 336.51072 80.500136 
L 336.86784 90.29955 
L 337.22496 81.245984 
L 337.58208 89.440631 
L 337.9392 87.123903 
L 338.29632 81.707255 
L 338.65344 86.662287 
L 339.01056 89.139457 
L 339.36768 89.828597 
L 339.7248 88.263595 
L 340.08192 84.085532 
L 340.43904 84.00047 
L 340.79616 88.13946 
L 341.15328 81.04474 
L 341.5104 76.513635 
L 342.22464 84.911255 
L 342.58176 85.401918 
L 342.93888 84.775709 
L 343.296 85.84175 
L 343.65312 78.720405 
L 344.01024 86.081376 
L 344.36736 76.292681 
L 344.72448 76.843855 
L 345.0816 88.483166 
L 345.43872 82.949644 
L 345.79584 82.040587 
L 346.15296 74.423739 
L 346.51008 86.259107 
L 346.8672 83.539891 
L 347.22432 74.49082 
L 347.58144 88.002531 
L 347.93856 78.63396 
L 348.29568 86.248042 
L 349.00992 77.301322 
L 349.36704 75.446211 
L 349.72416 80.70795 
L 350.08128 72.530592 
L 350.4384 72.742555 
L 350.79552 79.817911 
L 351.15264 80.851449 
L 351.50976 84.543345 
L 351.86688 85.84832 
L 352.224 78.703462 
L 352.58112 77.392954 
L 352.93824 78.539562 
L 353.29536 83.359739 
L 353.65248 79.558922 
L 354.0096 85.836909 
L 354.36672 74.629132 
L 354.72384 72.413718 
L 355.08096 84.039889 
L 355.43808 83.076545 
L 355.7952 75.547179 
L 356.15232 84.724534 
L 356.50944 76.064121 
L 356.86656 84.887396 
L 357.22368 75.045106 
L 357.5808 84.543691 
L 357.93792 83.499089 
L 358.29504 69.212138 
L 358.65216 77.133965 
L 359.00928 82.48941 
L 359.3664 70.693115 
L 359.72352 80.824132 
L 360.08064 81.351447 
L 360.43776 70.524374 
L 360.79488 69.47009 
L 361.152 79.621854 
L 361.50912 73.339718 
L 361.86624 70.897471 
L 362.22336 70.304804 
L 362.9376 68.43102 
L 363.29472 67.980814 
L 363.65184 71.674094 
L 364.00896 81.693424 
L 364.36608 75.084525 
L 364.7232 78.979394 
L 365.08032 72.923744 
L 365.43744 74.945521 
L 365.79456 69.748789 
L 366.15168 82.51154 
L 366.5088 69.427213 
L 367.22304 76.968336 
L 367.58016 79.739074 
L 367.93728 70.555149 
L 368.2944 78.704153 
L 368.65152 81.271226 
L 369.00864 66.481857 
L 369.36576 77.560312 
L 369.72288 79.034028 
L 370.08 78.039563 
L 370.43712 76.188601 
L 370.79424 80.379113 
L 371.15136 74.16302 
L 371.50848 78.178913 
L 371.8656 66.163047 
L 372.22272 71.976306 
L 372.57984 80.208643 
L 372.93696 71.56379 
L 373.29408 75.135009 
L 373.6512 72.238062 
L 374.00832 70.653005 
L 374.36544 64.958349 
L 374.72256 76.770204 
L 375.07968 67.806887 
L 375.4368 70.867734 
L 375.79392 66.415813 
L 376.86528 75.908519 
L 377.2224 76.585557 
L 377.57952 66.614636 
L 377.93664 69.555844 
L 378.29376 63.261605 
L 378.65088 77.211074 
L 379.008 69.166495 
L 379.36512 67.979777 
L 379.72224 78.109065 
L 380.07936 63.90199 
L 380.43648 68.538904 
L 380.7936 65.892993 
L 381.15072 67.832129 
L 381.50784 63.9708 
L 381.86496 66.764014 
L 382.22208 68.395405 
L 382.5792 73.754654 
L 382.93632 63.418243 
L 383.29344 72.083498 
L 383.65056 68.312418 
L 384.00768 66.742229 
L 385.07904 76.664741 
L 385.43616 60.760922 
L 385.79328 67.162698 
L 386.1504 76.325185 
L 386.50752 69.738761 
L 386.86464 67.900248 
L 387.22176 74.549603 
L 387.57888 70.118082 
L 387.936 74.261914 
L 388.29312 66.601497 
L 388.65024 67.554467 
L 389.00736 61.787889 
L 389.36448 65.737738 
L 389.7216 73.038197 
L 390.07872 61.779936 
L 390.43584 70.810335 
L 391.15008 60.544809 
L 391.5072 70.916489 
L 391.86432 66.394029 
L 392.22144 60.388516 
L 392.93568 74.066202 
L 393.2928 63.179655 
L 393.64992 58.328012 
L 394.00704 61.069012 
L 394.36416 70.346643 
L 394.72128 60.773024 
L 395.0784 64.787533 
L 395.43552 62.863958 
L 395.79264 72.576926 
L 396.14976 64.975984 
L 396.50688 67.830054 
L 396.864 62.159949 
L 397.57824 58.770265 
L 397.93536 63.553098 
L 398.29248 59.831119 
L 398.6496 68.154742 
L 399.00672 59.519571 
L 399.36384 66.223905 
L 399.72096 56.103953 
L 400.07808 71.626722 
L 400.4352 62.995008 
L 400.79232 63.899915 
L 401.14944 58.939005 
L 401.50656 72.237716 
L 401.86368 60.697644 
L 402.2208 60.475999 
L 402.57792 63.184496 
L 402.93504 62.542728 
L 403.29216 69.131226 
L 403.64928 60.212514 
L 404.0064 58.354637 
L 404.72064 62.451787 
L 405.07776 62.805521 
L 405.43488 68.229776 
L 405.792 55.687287 
L 406.14912 60.402693 
L 406.50624 54.851536 
L 406.86336 66.69797 
L 407.22048 61.297573 
L 407.5776 70.514347 
L 407.93472 61.551376 
L 408.29184 63.349087 
L 408.64896 62.383323 
L 409.00608 62.061402 
L 409.3632 58.174139 
L 409.72032 68.96041 
L 410.07744 57.968746 
L 410.43456 68.917533 
L 410.79168 54.140958 
L 411.1488 61.57558 
L 411.50592 65.833173 
L 411.86304 67.64195 
L 412.22016 55.958033 
L 412.57728 66.236353 
L 412.9344 53.655482 
L 413.29152 60.18831 
L 413.64864 53.568 
L 414.00576 54.01129 
L 414.36288 66.976323 
L 414.72 63.82004 
L 414.72 63.82004 
" style="fill:none;stroke:#000080;stroke-linecap:square;stroke-width:0.5;"/>
   </g>
   <g id="patch_3">
    <path d="M 57.6 307.584 
L 57.6 41.472 
" style="fill:none;stroke:#000000;stroke-linecap:square;stroke-linejoin:miter;stroke-width:0.8;"/>
   </g>
   <g id="patch_4">
    <path d="M 414.72 307.584 
L 414.72 41.472 
" style="fill:none;stroke:#000000;stroke-linecap:square;stroke-linejoin:miter;stroke-width:0.8;"/>
   </g>
   <g id="patch_5">
    <path d="M 57.6 307.584 
L 414.72 307.584 
" style="fill:none;stroke:#000000;stroke-linecap:square;stroke-linejoin:miter;stroke-width:0.8;"/>
   </g>
   <g id="patch_6">
    <path d="M 57.6 41.472 
L 414.72 41.472 
" style="fill:none;stroke:#000000;stroke-linecap:square;stroke-linejoin:miter;stroke-width:0.8;"/>
   </g>
   <g id="text_17">
    <!-- Test -->
    <defs>
     <path d="M -0.296875 72.90625 
L 61.375 72.90625 
L 61.375 64.59375 
L 35.5 64.59375 
L 35.5 0 
L 25.59375 0 
L 25.59375 64.59375 
L -0.296875 64.59375 
z
" id="DejaVuSans-54"/>
    </defs>
    <g transform="translate(223.341563 35.472)scale(0.12 -0.12)">
     <use xlink:href="#DejaVuSans-54"/>
     <use x="60.818359" xlink:href="#DejaVuSans-65"/>
     <use x="122.341797" xlink:href="#DejaVuSans-73"/>
     <use x="174.441406" xlink:href="#DejaVuSans-74"/>
    </g>
   </g>
   <g id="legend_1">
    <g id="patch_7">
     <path d="M 64.6 64.150125 
L 306.276563 64.150125 
Q 308.276563 64.150125 308.276563 62.150125 
L 308.276563 48.472 
Q 308.276563 46.472 306.276563 46.472 
L 64.6 46.472 
Q 62.6 46.472 62.6 48.472 
L 62.6 62.150125 
Q 62.6 64.150125 64.6 64.150125 
z
" style="fill:#ffffff;opacity:0.8;stroke:#cccccc;stroke-linejoin:miter;"/>
    </g>
    <g id="line2d_30">
     <path d="M 66.6 54.570438 
L 86.6 54.570438 
" style="fill:none;stroke:#000080;stroke-linecap:square;stroke-width:0.5;"/>
    </g>
    <g id="line2d_31"/>
    <g id="text_18">
     <!-- Successful download requests per second -->
     <g transform="translate(94.6 58.070438)scale(0.1 -0.1)">
      <use xlink:href="#DejaVuSans-53"/>
      <use x="63.476562" xlink:href="#DejaVuSans-75"/>
      <use x="126.855469" xlink:href="#DejaVuSans-63"/>
      <use x="181.835938" xlink:href="#DejaVuSans-63"/>
      <use x="236.816406" xlink:href="#DejaVuSans-65"/>
      <use x="298.339844" xlink:href="#DejaVuSans-73"/>
      <use x="350.439453" xlink:href="#DejaVuSans-73"/>
      <use x="402.539062" xlink:href="#DejaVuSans-66"/>
      <use x="437.744141" xlink:href="#DejaVuSans-75"/>
      <use x="501.123047" xlink:href="#DejaVuSans-6c"/>
      <use x="528.90625" xlink:href="#DejaVuSans-20"/>
      <use x="560.693359" xlink:href="#DejaVuSans-64"/>
      <use x="624.169922" xlink:href="#DejaVuSans-6f"/>
      <use x="685.351562" xlink:href="#DejaVuSans-77"/>
      <use x="767.138672" xlink:href="#DejaVuSans-6e"/>
      <use x="830.517578" xlink:href="#DejaVuSans-6c"/>
      <use x="858.300781" xlink:href="#DejaVuSans-6f"/>
      <use x="919.482422" xlink:href="#DejaVuSans-61"/>
      <use x="980.761719" xlink:href="#DejaVuSans-64"/>
      <use x="1044.238281" xlink:href="#DejaVuSans-20"/>
      <use x="1076.025391" xlink:href="#DejaVuSans-72"/>
      <use x="1117.107422" xlink:href="#DejaVuSans-65"/>
      <use x="1178.630859" xlink:href="#DejaVuSans-71"/>
      <use x="1242.107422" xlink:href="#DejaVuSans-75"/>
      <use x="1305.486328" xlink:href="#DejaVuSans-65"/>
      <use x="1367.009766" xlink:href="#DejaVuSans-73"/>
      <use x="1419.109375" xlink:href="#DejaVuSans-74"/>
      <use x="1458.318359" xlink:href="#DejaVuSans-73"/>
      <use x="1510.417969" xlink:href="#DejaVuSans-20"/>
      <use x="1542.205078" xlink:href="#DejaVuSans-70"/>
      <use x="1605.681641" xlink:href="#DejaVuSans-65"/>
      <use x="1667.205078" xlink:href="#DejaVuSans-72"/>
      <use x="1708.318359" xlink:href="#DejaVuSans-20"/>
      <use x="1740.105469" xlink:href="#DejaVuSans-73"/>
      <use x="1792.205078" xlink:href="#DejaVuSans-65"/>
      <use x="1853.728516" xlink:href="#DejaVuSans-63"/>
      <use x="1908.708984" xlink:href="#DejaVuSans-6f"/>
      <use x="1969.890625" xlink:href="#DejaVuSans-6e"/>
      <use x="2033.269531" xlink:href="#DejaVuSans-64"/>
     </g>
    </g>
   </g>
  </g>
 </g>
 <defs>
  <clipPath id="pa38c13dfd2">
   <rect height="266.112" width="357.12" x="57.6" y="41.472"/>
  </clipPath>
 </defs>
</svg>
