<?xml version="1.0" encoding="utf-8" standalone="no"?>
<!DOCTYPE svg PUBLIC "-//W3C//DTD SVG 1.1//EN"
  "http://www.w3.org/Graphics/SVG/1.1/DTD/svg11.dtd">
<!-- Created with matplotlib (http://matplotlib.org/) -->
<svg height="345pt" version="1.1" viewBox="0 0 460 345" width="460pt" xmlns="http://www.w3.org/2000/svg" xmlns:xlink="http://www.w3.org/1999/xlink">
 <defs>
  <style type="text/css">
*{stroke-linecap:butt;stroke-linejoin:round;}
  </style>
 </defs>
 <g id="figure_1">
  <g id="patch_1">
   <path d="M 0 345.6 
L 460.8 345.6 
L 460.8 0 
L 0 0 
z
" style="fill:#ffffff;"/>
  </g>
  <g id="axes_1">
   <g id="patch_2">
    <path d="M 57.6 307.584 
L 414.72 307.584 
L 414.72 41.472 
L 57.6 41.472 
z
" style="fill:#ffffff;"/>
   </g>
   <g id="matplotlib.axis_1">
    <g id="xtick_1">
     <g id="line2d_1">
      <path clip-path="url(#p93c5a354ef)" d="M 57.6 307.584 
L 57.6 41.472 
" style="fill:none;stroke:#b0b0b0;stroke-linecap:square;stroke-width:0.8;"/>
     </g>
     <g id="line2d_2">
      <defs>
       <path d="M 0 0 
L 0 3.5 
" id="m05043e8e83" style="stroke:#000000;stroke-width:0.8;"/>
      </defs>
      <g>
       <use style="stroke:#000000;stroke-width:0.8;" x="57.6" xlink:href="#m05043e8e83" y="307.584"/>
      </g>
     </g>
     <g id="text_1">
      <!-- 0 -->
      <defs>
       <path d="M 31.78125 66.40625 
Q 24.171875 66.40625 20.328125 58.90625 
Q 16.5 51.421875 16.5 36.375 
Q 16.5 21.390625 20.328125 13.890625 
Q 24.171875 6.390625 31.78125 6.390625 
Q 39.453125 6.390625 43.28125 13.890625 
Q 47.125 21.390625 47.125 36.375 
Q 47.125 51.421875 43.28125 58.90625 
Q 39.453125 66.40625 31.78125 66.40625 
M 31.78125 74.21875 
Q 44.046875 74.21875 50.515625 64.515625 
Q 56.984375 54.828125 56.984375 36.375 
Q 56.984375 17.96875 50.515625 8.265625 
Q 44.046875 -1.421875 31.78125 -1.421875 
Q 19.53125 -1.421875 13.0625 8.265625 
Q 6.59375 17.96875 6.59375 36.375 
Q 6.59375 54.828125 13.0625 64.515625 
Q 19.53125 74.21875 31.78125 74.21875 
" id="DejaVuSans-30"/>
      </defs>
      <g transform="translate(54.41875 322.182437)scale(0.1 -0.1)">
       <use xlink:href="#DejaVuSans-30"/>
      </g>
     </g>
    </g>
    <g id="xtick_2">
     <g id="line2d_3">
      <path clip-path="url(#p93c5a354ef)" d="M 129.024 307.584 
L 129.024 41.472 
" style="fill:none;stroke:#b0b0b0;stroke-linecap:square;stroke-width:0.8;"/>
     </g>
     <g id="line2d_4">
      <g>
       <use style="stroke:#000000;stroke-width:0.8;" x="129.024" xlink:href="#m05043e8e83" y="307.584"/>
      </g>
     </g>
     <g id="text_2">
      <!-- 200 -->
      <defs>
       <path d="M 19.1875 8.296875 
L 53.609375 8.296875 
L 53.609375 0 
L 7.328125 0 
L 7.328125 8.296875 
Q 12.9375 14.109375 22.625 23.890625 
Q 32.328125 33.6875 34.8125 36.53125 
Q 39.546875 41.84375 41.421875 45.53125 
Q 43.3125 49.21875 43.3125 52.78125 
Q 43.3125 58.59375 39.234375 62.25 
Q 35.15625 65.921875 28.609375 65.921875 
Q 23.96875 65.921875 18.8125 64.3125 
Q 13.671875 62.703125 7.8125 59.421875 
L 7.8125 69.390625 
Q 13.765625 71.78125 18.9375 73 
Q 24.125 74.21875 28.421875 74.21875 
Q 39.75 74.21875 46.484375 68.546875 
Q 53.21875 62.890625 53.21875 53.421875 
Q 53.21875 48.921875 51.53125 44.890625 
Q 49.859375 40.875 45.40625 35.40625 
Q 44.1875 33.984375 37.640625 27.21875 
Q 31.109375 20.453125 19.1875 8.296875 
" id="DejaVuSans-32"/>
      </defs>
      <g transform="translate(119.48025 322.182437)scale(0.1 -0.1)">
       <use xlink:href="#DejaVuSans-32"/>
       <use x="63.623047" xlink:href="#DejaVuSans-30"/>
       <use x="127.246094" xlink:href="#DejaVuSans-30"/>
      </g>
     </g>
    </g>
    <g id="xtick_3">
     <g id="line2d_5">
      <path clip-path="url(#p93c5a354ef)" d="M 200.448 307.584 
L 200.448 41.472 
" style="fill:none;stroke:#b0b0b0;stroke-linecap:square;stroke-width:0.8;"/>
     </g>
     <g id="line2d_6">
      <g>
       <use style="stroke:#000000;stroke-width:0.8;" x="200.448" xlink:href="#m05043e8e83" y="307.584"/>
      </g>
     </g>
     <g id="text_3">
      <!-- 400 -->
      <defs>
       <path d="M 37.796875 64.3125 
L 12.890625 25.390625 
L 37.796875 25.390625 
z
M 35.203125 72.90625 
L 47.609375 72.90625 
L 47.609375 25.390625 
L 58.015625 25.390625 
L 58.015625 17.1875 
L 47.609375 17.1875 
L 47.609375 0 
L 37.796875 0 
L 37.796875 17.1875 
L 4.890625 17.1875 
L 4.890625 26.703125 
z
" id="DejaVuSans-34"/>
      </defs>
      <g transform="translate(190.90425 322.182437)scale(0.1 -0.1)">
       <use xlink:href="#DejaVuSans-34"/>
       <use x="63.623047" xlink:href="#DejaVuSans-30"/>
       <use x="127.246094" xlink:href="#DejaVuSans-30"/>
      </g>
     </g>
    </g>
    <g id="xtick_4">
     <g id="line2d_7">
      <path clip-path="url(#p93c5a354ef)" d="M 271.872 307.584 
L 271.872 41.472 
" style="fill:none;stroke:#b0b0b0;stroke-linecap:square;stroke-width:0.8;"/>
     </g>
     <g id="line2d_8">
      <g>
       <use style="stroke:#000000;stroke-width:0.8;" x="271.872" xlink:href="#m05043e8e83" y="307.584"/>
      </g>
     </g>
     <g id="text_4">
      <!-- 600 -->
      <defs>
       <path d="M 33.015625 40.375 
Q 26.375 40.375 22.484375 35.828125 
Q 18.609375 31.296875 18.609375 23.390625 
Q 18.609375 15.53125 22.484375 10.953125 
Q 26.375 6.390625 33.015625 6.390625 
Q 39.65625 6.390625 43.53125 10.953125 
Q 47.40625 15.53125 47.40625 23.390625 
Q 47.40625 31.296875 43.53125 35.828125 
Q 39.65625 40.375 33.015625 40.375 
M 52.59375 71.296875 
L 52.59375 62.3125 
Q 48.875 64.0625 45.09375 64.984375 
Q 41.3125 65.921875 37.59375 65.921875 
Q 27.828125 65.921875 22.671875 59.328125 
Q 17.53125 52.734375 16.796875 39.40625 
Q 19.671875 43.65625 24.015625 45.921875 
Q 28.375 48.1875 33.59375 48.1875 
Q 44.578125 48.1875 50.953125 41.515625 
Q 57.328125 34.859375 57.328125 23.390625 
Q 57.328125 12.15625 50.6875 5.359375 
Q 44.046875 -1.421875 33.015625 -1.421875 
Q 20.359375 -1.421875 13.671875 8.265625 
Q 6.984375 17.96875 6.984375 36.375 
Q 6.984375 53.65625 15.1875 63.9375 
Q 23.390625 74.21875 37.203125 74.21875 
Q 40.921875 74.21875 44.703125 73.484375 
Q 48.484375 72.75 52.59375 71.296875 
" id="DejaVuSans-36"/>
      </defs>
      <g transform="translate(262.32825 322.182437)scale(0.1 -0.1)">
       <use xlink:href="#DejaVuSans-36"/>
       <use x="63.623047" xlink:href="#DejaVuSans-30"/>
       <use x="127.246094" xlink:href="#DejaVuSans-30"/>
      </g>
     </g>
    </g>
    <g id="xtick_5">
     <g id="line2d_9">
      <path clip-path="url(#p93c5a354ef)" d="M 343.296 307.584 
L 343.296 41.472 
" style="fill:none;stroke:#b0b0b0;stroke-linecap:square;stroke-width:0.8;"/>
     </g>
     <g id="line2d_10">
      <g>
       <use style="stroke:#000000;stroke-width:0.8;" x="343.296" xlink:href="#m05043e8e83" y="307.584"/>
      </g>
     </g>
     <g id="text_5">
      <!-- 800 -->
      <defs>
       <path d="M 31.78125 34.625 
Q 24.75 34.625 20.71875 30.859375 
Q 16.703125 27.09375 16.703125 20.515625 
Q 16.703125 13.921875 20.71875 10.15625 
Q 24.75 6.390625 31.78125 6.390625 
Q 38.8125 6.390625 42.859375 10.171875 
Q 46.921875 13.96875 46.921875 20.515625 
Q 46.921875 27.09375 42.890625 30.859375 
Q 38.875 34.625 31.78125 34.625 
M 21.921875 38.8125 
Q 15.578125 40.375 12.03125 44.71875 
Q 8.5 49.078125 8.5 55.328125 
Q 8.5 64.0625 14.71875 69.140625 
Q 20.953125 74.21875 31.78125 74.21875 
Q 42.671875 74.21875 48.875 69.140625 
Q 55.078125 64.0625 55.078125 55.328125 
Q 55.078125 49.078125 51.53125 44.71875 
Q 48 40.375 41.703125 38.8125 
Q 48.828125 37.15625 52.796875 32.3125 
Q 56.78125 27.484375 56.78125 20.515625 
Q 56.78125 9.90625 50.3125 4.234375 
Q 43.84375 -1.421875 31.78125 -1.421875 
Q 19.734375 -1.421875 13.25 4.234375 
Q 6.78125 9.90625 6.78125 20.515625 
Q 6.78125 27.484375 10.78125 32.3125 
Q 14.796875 37.15625 21.921875 38.8125 
M 18.3125 54.390625 
Q 18.3125 48.734375 21.84375 45.5625 
Q 25.390625 42.390625 31.78125 42.390625 
Q 38.140625 42.390625 41.71875 45.5625 
Q 45.3125 48.734375 45.3125 54.390625 
Q 45.3125 60.0625 41.71875 63.234375 
Q 38.140625 66.40625 31.78125 66.40625 
Q 25.390625 66.40625 21.84375 63.234375 
Q 18.3125 60.0625 18.3125 54.390625 
" id="DejaVuSans-38"/>
      </defs>
      <g transform="translate(333.75225 322.182437)scale(0.1 -0.1)">
       <use xlink:href="#DejaVuSans-38"/>
       <use x="63.623047" xlink:href="#DejaVuSans-30"/>
       <use x="127.246094" xlink:href="#DejaVuSans-30"/>
      </g>
     </g>
    </g>
    <g id="xtick_6">
     <g id="line2d_11">
      <path clip-path="url(#p93c5a354ef)" d="M 414.72 307.584 
L 414.72 41.472 
" style="fill:none;stroke:#b0b0b0;stroke-linecap:square;stroke-width:0.8;"/>
     </g>
     <g id="line2d_12">
      <g>
       <use style="stroke:#000000;stroke-width:0.8;" x="414.72" xlink:href="#m05043e8e83" y="307.584"/>
      </g>
     </g>
     <g id="text_6">
      <!-- 1000 -->
      <defs>
       <path d="M 12.40625 8.296875 
L 28.515625 8.296875 
L 28.515625 63.921875 
L 10.984375 60.40625 
L 10.984375 69.390625 
L 28.421875 72.90625 
L 38.28125 72.90625 
L 38.28125 8.296875 
L 54.390625 8.296875 
L 54.390625 0 
L 12.40625 0 
z
" id="DejaVuSans-31"/>
      </defs>
      <g transform="translate(401.995 322.182437)scale(0.1 -0.1)">
       <use xlink:href="#DejaVuSans-31"/>
       <use x="63.623047" xlink:href="#DejaVuSans-30"/>
       <use x="127.246094" xlink:href="#DejaVuSans-30"/>
       <use x="190.869141" xlink:href="#DejaVuSans-30"/>
      </g>
     </g>
    </g>
    <g id="text_7">
     <!-- Number of clients -->
     <defs>
      <path d="M 9.8125 72.90625 
L 23.09375 72.90625 
L 55.421875 11.921875 
L 55.421875 72.90625 
L 64.984375 72.90625 
L 64.984375 0 
L 51.703125 0 
L 19.390625 60.984375 
L 19.390625 0 
L 9.8125 0 
z
" id="DejaVuSans-4e"/>
      <path d="M 8.5 21.578125 
L 8.5 54.6875 
L 17.484375 54.6875 
L 17.484375 21.921875 
Q 17.484375 14.15625 20.5 10.265625 
Q 23.53125 6.390625 29.59375 6.390625 
Q 36.859375 6.390625 41.078125 11.03125 
Q 45.3125 15.671875 45.3125 23.6875 
L 45.3125 54.6875 
L 54.296875 54.6875 
L 54.296875 0 
L 45.3125 0 
L 45.3125 8.40625 
Q 42.046875 3.421875 37.71875 1 
Q 33.40625 -1.421875 27.6875 -1.421875 
Q 18.265625 -1.421875 13.375 4.4375 
Q 8.5 10.296875 8.5 21.578125 
M 31.109375 56 
z
" id="DejaVuSans-75"/>
      <path d="M 52 44.1875 
Q 55.375 50.25 60.0625 53.125 
Q 64.75 56 71.09375 56 
Q 79.640625 56 84.28125 50.015625 
Q 88.921875 44.046875 88.921875 33.015625 
L 88.921875 0 
L 79.890625 0 
L 79.890625 32.71875 
Q 79.890625 40.578125 77.09375 44.375 
Q 74.3125 48.1875 68.609375 48.1875 
Q 61.625 48.1875 57.5625 43.546875 
Q 53.515625 38.921875 53.515625 30.90625 
L 53.515625 0 
L 44.484375 0 
L 44.484375 32.71875 
Q 44.484375 40.625 41.703125 44.40625 
Q 38.921875 48.1875 33.109375 48.1875 
Q 26.21875 48.1875 22.15625 43.53125 
Q 18.109375 38.875 18.109375 30.90625 
L 18.109375 0 
L 9.078125 0 
L 9.078125 54.6875 
L 18.109375 54.6875 
L 18.109375 46.1875 
Q 21.1875 51.21875 25.484375 53.609375 
Q 29.78125 56 35.6875 56 
Q 41.65625 56 45.828125 52.96875 
Q 50 49.953125 52 44.1875 
" id="DejaVuSans-6d"/>
      <path d="M 48.6875 27.296875 
Q 48.6875 37.203125 44.609375 42.84375 
Q 40.53125 48.484375 33.40625 48.484375 
Q 26.265625 48.484375 22.1875 42.84375 
Q 18.109375 37.203125 18.109375 27.296875 
Q 18.109375 17.390625 22.1875 11.75 
Q 26.265625 6.109375 33.40625 6.109375 
Q 40.53125 6.109375 44.609375 11.75 
Q 48.6875 17.390625 48.6875 27.296875 
M 18.109375 46.390625 
Q 20.953125 51.265625 25.265625 53.625 
Q 29.59375 56 35.59375 56 
Q 45.5625 56 51.78125 48.09375 
Q 58.015625 40.1875 58.015625 27.296875 
Q 58.015625 14.40625 51.78125 6.484375 
Q 45.5625 -1.421875 35.59375 -1.421875 
Q 29.59375 -1.421875 25.265625 0.953125 
Q 20.953125 3.328125 18.109375 8.203125 
L 18.109375 0 
L 9.078125 0 
L 9.078125 75.984375 
L 18.109375 75.984375 
z
" id="DejaVuSans-62"/>
      <path d="M 56.203125 29.59375 
L 56.203125 25.203125 
L 14.890625 25.203125 
Q 15.484375 15.921875 20.484375 11.0625 
Q 25.484375 6.203125 34.421875 6.203125 
Q 39.59375 6.203125 44.453125 7.46875 
Q 49.3125 8.734375 54.109375 11.28125 
L 54.109375 2.78125 
Q 49.265625 0.734375 44.1875 -0.34375 
Q 39.109375 -1.421875 33.890625 -1.421875 
Q 20.796875 -1.421875 13.15625 6.1875 
Q 5.515625 13.8125 5.515625 26.8125 
Q 5.515625 40.234375 12.765625 48.109375 
Q 20.015625 56 32.328125 56 
Q 43.359375 56 49.78125 48.890625 
Q 56.203125 41.796875 56.203125 29.59375 
M 47.21875 32.234375 
Q 47.125 39.59375 43.09375 43.984375 
Q 39.0625 48.390625 32.421875 48.390625 
Q 24.90625 48.390625 20.390625 44.140625 
Q 15.875 39.890625 15.1875 32.171875 
z
" id="DejaVuSans-65"/>
      <path d="M 41.109375 46.296875 
Q 39.59375 47.171875 37.8125 47.578125 
Q 36.03125 48 33.890625 48 
Q 26.265625 48 22.1875 43.046875 
Q 18.109375 38.09375 18.109375 28.8125 
L 18.109375 0 
L 9.078125 0 
L 9.078125 54.6875 
L 18.109375 54.6875 
L 18.109375 46.1875 
Q 20.953125 51.171875 25.484375 53.578125 
Q 30.03125 56 36.53125 56 
Q 37.453125 56 38.578125 55.875 
Q 39.703125 55.765625 41.0625 55.515625 
z
" id="DejaVuSans-72"/>
      <path id="DejaVuSans-20"/>
      <path d="M 30.609375 48.390625 
Q 23.390625 48.390625 19.1875 42.75 
Q 14.984375 37.109375 14.984375 27.296875 
Q 14.984375 17.484375 19.15625 11.84375 
Q 23.34375 6.203125 30.609375 6.203125 
Q 37.796875 6.203125 41.984375 11.859375 
Q 46.1875 17.53125 46.1875 27.296875 
Q 46.1875 37.015625 41.984375 42.703125 
Q 37.796875 48.390625 30.609375 48.390625 
M 30.609375 56 
Q 42.328125 56 49.015625 48.375 
Q 55.71875 40.765625 55.71875 27.296875 
Q 55.71875 13.875 49.015625 6.21875 
Q 42.328125 -1.421875 30.609375 -1.421875 
Q 18.84375 -1.421875 12.171875 6.21875 
Q 5.515625 13.875 5.515625 27.296875 
Q 5.515625 40.765625 12.171875 48.375 
Q 18.84375 56 30.609375 56 
" id="DejaVuSans-6f"/>
      <path d="M 37.109375 75.984375 
L 37.109375 68.5 
L 28.515625 68.5 
Q 23.6875 68.5 21.796875 66.546875 
Q 19.921875 64.59375 19.921875 59.515625 
L 19.921875 54.6875 
L 34.71875 54.6875 
L 34.71875 47.703125 
L 19.921875 47.703125 
L 19.921875 0 
L 10.890625 0 
L 10.890625 47.703125 
L 2.296875 47.703125 
L 2.296875 54.6875 
L 10.890625 54.6875 
L 10.890625 58.5 
Q 10.890625 67.625 15.140625 71.796875 
Q 19.390625 75.984375 28.609375 75.984375 
z
" id="DejaVuSans-66"/>
      <path d="M 48.78125 52.59375 
L 48.78125 44.1875 
Q 44.96875 46.296875 41.140625 47.34375 
Q 37.3125 48.390625 33.40625 48.390625 
Q 24.65625 48.390625 19.8125 42.84375 
Q 14.984375 37.3125 14.984375 27.296875 
Q 14.984375 17.28125 19.8125 11.734375 
Q 24.65625 6.203125 33.40625 6.203125 
Q 37.3125 6.203125 41.140625 7.25 
Q 44.96875 8.296875 48.78125 10.40625 
L 48.78125 2.09375 
Q 45.015625 0.34375 40.984375 -0.53125 
Q 36.96875 -1.421875 32.421875 -1.421875 
Q 20.0625 -1.421875 12.78125 6.34375 
Q 5.515625 14.109375 5.515625 27.296875 
Q 5.515625 40.671875 12.859375 48.328125 
Q 20.21875 56 33.015625 56 
Q 37.15625 56 41.109375 55.140625 
Q 45.0625 54.296875 48.78125 52.59375 
" id="DejaVuSans-63"/>
      <path d="M 9.421875 75.984375 
L 18.40625 75.984375 
L 18.40625 0 
L 9.421875 0 
z
" id="DejaVuSans-6c"/>
      <path d="M 9.421875 54.6875 
L 18.40625 54.6875 
L 18.40625 0 
L 9.421875 0 
z
M 9.421875 75.984375 
L 18.40625 75.984375 
L 18.40625 64.59375 
L 9.421875 64.59375 
z
" id="DejaVuSans-69"/>
      <path d="M 54.890625 33.015625 
L 54.890625 0 
L 45.90625 0 
L 45.90625 32.71875 
Q 45.90625 40.484375 42.875 44.328125 
Q 39.84375 48.1875 33.796875 48.1875 
Q 26.515625 48.1875 22.3125 43.546875 
Q 18.109375 38.921875 18.109375 30.90625 
L 18.109375 0 
L 9.078125 0 
L 9.078125 54.6875 
L 18.109375 54.6875 
L 18.109375 46.1875 
Q 21.34375 51.125 25.703125 53.5625 
Q 30.078125 56 35.796875 56 
Q 45.21875 56 50.046875 50.171875 
Q 54.890625 44.34375 54.890625 33.015625 
" id="DejaVuSans-6e"/>
      <path d="M 18.3125 70.21875 
L 18.3125 54.6875 
L 36.8125 54.6875 
L 36.8125 47.703125 
L 18.3125 47.703125 
L 18.3125 18.015625 
Q 18.3125 11.328125 20.140625 9.421875 
Q 21.96875 7.515625 27.59375 7.515625 
L 36.8125 7.515625 
L 36.8125 0 
L 27.59375 0 
Q 17.1875 0 13.234375 3.875 
Q 9.28125 7.765625 9.28125 18.015625 
L 9.28125 47.703125 
L 2.6875 47.703125 
L 2.6875 54.6875 
L 9.28125 54.6875 
L 9.28125 70.21875 
z
" id="DejaVuSans-74"/>
      <path d="M 44.28125 53.078125 
L 44.28125 44.578125 
Q 40.484375 46.53125 36.375 47.5 
Q 32.28125 48.484375 27.875 48.484375 
Q 21.1875 48.484375 17.84375 46.4375 
Q 14.5 44.390625 14.5 40.28125 
Q 14.5 37.15625 16.890625 35.375 
Q 19.28125 33.59375 26.515625 31.984375 
L 29.59375 31.296875 
Q 39.15625 29.25 43.1875 25.515625 
Q 47.21875 21.78125 47.21875 15.09375 
Q 47.21875 7.46875 41.1875 3.015625 
Q 35.15625 -1.421875 24.609375 -1.421875 
Q 20.21875 -1.421875 15.453125 -0.5625 
Q 10.6875 0.296875 5.421875 2 
L 5.421875 11.28125 
Q 10.40625 8.6875 15.234375 7.390625 
Q 20.0625 6.109375 24.8125 6.109375 
Q 31.15625 6.109375 34.5625 8.28125 
Q 37.984375 10.453125 37.984375 14.40625 
Q 37.984375 18.0625 35.515625 20.015625 
Q 33.0625 21.96875 24.703125 23.78125 
L 21.578125 24.515625 
Q 13.234375 26.265625 9.515625 29.90625 
Q 5.8125 33.546875 5.8125 39.890625 
Q 5.8125 47.609375 11.28125 51.796875 
Q 16.75 56 26.8125 56 
Q 31.78125 56 36.171875 55.265625 
Q 40.578125 54.546875 44.28125 53.078125 
" id="DejaVuSans-73"/>
     </defs>
     <g transform="translate(191.738906 335.860562)scale(0.1 -0.1)">
      <use xlink:href="#DejaVuSans-4e"/>
      <use x="74.804688" xlink:href="#DejaVuSans-75"/>
      <use x="138.183594" xlink:href="#DejaVuSans-6d"/>
      <use x="235.595703" xlink:href="#DejaVuSans-62"/>
      <use x="299.072266" xlink:href="#DejaVuSans-65"/>
      <use x="360.595703" xlink:href="#DejaVuSans-72"/>
      <use x="401.708984" xlink:href="#DejaVuSans-20"/>
      <use x="433.496094" xlink:href="#DejaVuSans-6f"/>
      <use x="494.677734" xlink:href="#DejaVuSans-66"/>
      <use x="529.882812" xlink:href="#DejaVuSans-20"/>
      <use x="561.669922" xlink:href="#DejaVuSans-63"/>
      <use x="616.650391" xlink:href="#DejaVuSans-6c"/>
      <use x="644.433594" xlink:href="#DejaVuSans-69"/>
      <use x="672.216797" xlink:href="#DejaVuSans-65"/>
      <use x="733.740234" xlink:href="#DejaVuSans-6e"/>
      <use x="797.119141" xlink:href="#DejaVuSans-74"/>
      <use x="836.328125" xlink:href="#DejaVuSans-73"/>
     </g>
    </g>
   </g>
   <g id="matplotlib.axis_2">
    <g id="ytick_1">
     <g id="line2d_13">
      <path clip-path="url(#p93c5a354ef)" d="M 57.6 296.78898 
L 414.72 296.78898 
" style="fill:none;stroke:#b0b0b0;stroke-linecap:square;stroke-width:0.8;"/>
     </g>
     <g id="line2d_14">
      <defs>
       <path d="M 0 0 
L -3.5 0 
" id="m90d137052e" style="stroke:#000000;stroke-width:0.8;"/>
      </defs>
      <g>
       <use style="stroke:#000000;stroke-width:0.8;" x="57.6" xlink:href="#m90d137052e" y="296.78898"/>
      </g>
     </g>
     <g id="text_8">
      <!-- 0 -->
      <g transform="translate(44.2375 300.588199)scale(0.1 -0.1)">
       <use xlink:href="#DejaVuSans-30"/>
      </g>
     </g>
    </g>
    <g id="ytick_2">
     <g id="line2d_15">
      <path clip-path="url(#p93c5a354ef)" d="M 57.6 262.188448 
L 414.72 262.188448 
" style="fill:none;stroke:#b0b0b0;stroke-linecap:square;stroke-width:0.8;"/>
     </g>
     <g id="line2d_16">
      <g>
       <use style="stroke:#000000;stroke-width:0.8;" x="57.6" xlink:href="#m90d137052e" y="262.188448"/>
      </g>
     </g>
     <g id="text_9">
      <!-- 25 -->
      <defs>
       <path d="M 10.796875 72.90625 
L 49.515625 72.90625 
L 49.515625 64.59375 
L 19.828125 64.59375 
L 19.828125 46.734375 
Q 21.96875 47.46875 24.109375 47.828125 
Q 26.265625 48.1875 28.421875 48.1875 
Q 40.625 48.1875 47.75 41.5 
Q 54.890625 34.8125 54.890625 23.390625 
Q 54.890625 11.625 47.5625 5.09375 
Q 40.234375 -1.421875 26.90625 -1.421875 
Q 22.3125 -1.421875 17.546875 -0.640625 
Q 12.796875 0.140625 7.71875 1.703125 
L 7.71875 11.625 
Q 12.109375 9.234375 16.796875 8.0625 
Q 21.484375 6.890625 26.703125 6.890625 
Q 35.15625 6.890625 40.078125 11.328125 
Q 45.015625 15.765625 45.015625 23.390625 
Q 45.015625 31 40.078125 35.4375 
Q 35.15625 39.890625 26.703125 39.890625 
Q 22.75 39.890625 18.8125 39.015625 
Q 14.890625 38.140625 10.796875 36.28125 
z
" id="DejaVuSans-35"/>
      </defs>
      <g transform="translate(37.875 265.987667)scale(0.1 -0.1)">
       <use xlink:href="#DejaVuSans-32"/>
       <use x="63.623047" xlink:href="#DejaVuSans-35"/>
      </g>
     </g>
    </g>
    <g id="ytick_3">
     <g id="line2d_17">
      <path clip-path="url(#p93c5a354ef)" d="M 57.6 227.587916 
L 414.72 227.587916 
" style="fill:none;stroke:#b0b0b0;stroke-linecap:square;stroke-width:0.8;"/>
     </g>
     <g id="line2d_18">
      <g>
       <use style="stroke:#000000;stroke-width:0.8;" x="57.6" xlink:href="#m90d137052e" y="227.587916"/>
      </g>
     </g>
     <g id="text_10">
      <!-- 50 -->
      <g transform="translate(37.875 231.387135)scale(0.1 -0.1)">
       <use xlink:href="#DejaVuSans-35"/>
       <use x="63.623047" xlink:href="#DejaVuSans-30"/>
      </g>
     </g>
    </g>
    <g id="ytick_4">
     <g id="line2d_19">
      <path clip-path="url(#p93c5a354ef)" d="M 57.6 192.987384 
L 414.72 192.987384 
" style="fill:none;stroke:#b0b0b0;stroke-linecap:square;stroke-width:0.8;"/>
     </g>
     <g id="line2d_20">
      <g>
       <use style="stroke:#000000;stroke-width:0.8;" x="57.6" xlink:href="#m90d137052e" y="192.987384"/>
      </g>
     </g>
     <g id="text_11">
      <!-- 75 -->
      <defs>
       <path d="M 8.203125 72.90625 
L 55.078125 72.90625 
L 55.078125 68.703125 
L 28.609375 0 
L 18.3125 0 
L 43.21875 64.59375 
L 8.203125 64.59375 
z
" id="DejaVuSans-37"/>
      </defs>
      <g transform="translate(37.875 196.786603)scale(0.1 -0.1)">
       <use xlink:href="#DejaVuSans-37"/>
       <use x="63.623047" xlink:href="#DejaVuSans-35"/>
      </g>
     </g>
    </g>
    <g id="ytick_5">
     <g id="line2d_21">
      <path clip-path="url(#p93c5a354ef)" d="M 57.6 158.386852 
L 414.72 158.386852 
" style="fill:none;stroke:#b0b0b0;stroke-linecap:square;stroke-width:0.8;"/>
     </g>
     <g id="line2d_22">
      <g>
       <use style="stroke:#000000;stroke-width:0.8;" x="57.6" xlink:href="#m90d137052e" y="158.386852"/>
      </g>
     </g>
     <g id="text_12">
      <!-- 100 -->
      <g transform="translate(31.5125 162.186071)scale(0.1 -0.1)">
       <use xlink:href="#DejaVuSans-31"/>
       <use x="63.623047" xlink:href="#DejaVuSans-30"/>
       <use x="127.246094" xlink:href="#DejaVuSans-30"/>
      </g>
     </g>
    </g>
    <g id="ytick_6">
     <g id="line2d_23">
      <path clip-path="url(#p93c5a354ef)" d="M 57.6 123.78632 
L 414.72 123.78632 
" style="fill:none;stroke:#b0b0b0;stroke-linecap:square;stroke-width:0.8;"/>
     </g>
     <g id="line2d_24">
      <g>
       <use style="stroke:#000000;stroke-width:0.8;" x="57.6" xlink:href="#m90d137052e" y="123.78632"/>
      </g>
     </g>
     <g id="text_13">
      <!-- 125 -->
      <g transform="translate(31.5125 127.585538)scale(0.1 -0.1)">
       <use xlink:href="#DejaVuSans-31"/>
       <use x="63.623047" xlink:href="#DejaVuSans-32"/>
       <use x="127.246094" xlink:href="#DejaVuSans-35"/>
      </g>
     </g>
    </g>
    <g id="ytick_7">
     <g id="line2d_25">
      <path clip-path="url(#p93c5a354ef)" d="M 57.6 89.185788 
L 414.72 89.185788 
" style="fill:none;stroke:#b0b0b0;stroke-linecap:square;stroke-width:0.8;"/>
     </g>
     <g id="line2d_26">
      <g>
       <use style="stroke:#000000;stroke-width:0.8;" x="57.6" xlink:href="#m90d137052e" y="89.185788"/>
      </g>
     </g>
     <g id="text_14">
      <!-- 150 -->
      <g transform="translate(31.5125 92.985006)scale(0.1 -0.1)">
       <use xlink:href="#DejaVuSans-31"/>
       <use x="63.623047" xlink:href="#DejaVuSans-35"/>
       <use x="127.246094" xlink:href="#DejaVuSans-30"/>
      </g>
     </g>
    </g>
    <g id="ytick_8">
     <g id="line2d_27">
      <path clip-path="url(#p93c5a354ef)" d="M 57.6 54.585256 
L 414.72 54.585256 
" style="fill:none;stroke:#b0b0b0;stroke-linecap:square;stroke-width:0.8;"/>
     </g>
     <g id="line2d_28">
      <g>
       <use style="stroke:#000000;stroke-width:0.8;" x="57.6" xlink:href="#m90d137052e" y="54.585256"/>
      </g>
     </g>
     <g id="text_15">
      <!-- 175 -->
      <g transform="translate(31.5125 58.384474)scale(0.1 -0.1)">
       <use xlink:href="#DejaVuSans-31"/>
       <use x="63.623047" xlink:href="#DejaVuSans-37"/>
       <use x="127.246094" xlink:href="#DejaVuSans-35"/>
      </g>
     </g>
    </g>
    <g id="text_16">
     <!-- Successful download requests per second -->
     <defs>
      <path d="M 53.515625 70.515625 
L 53.515625 60.890625 
Q 47.90625 63.578125 42.921875 64.890625 
Q 37.9375 66.21875 33.296875 66.21875 
Q 25.25 66.21875 20.875 63.09375 
Q 16.5 59.96875 16.5 54.203125 
Q 16.5 49.359375 19.40625 46.890625 
Q 22.3125 44.4375 30.421875 42.921875 
L 36.375 41.703125 
Q 47.40625 39.59375 52.65625 34.296875 
Q 57.90625 29 57.90625 20.125 
Q 57.90625 9.515625 50.796875 4.046875 
Q 43.703125 -1.421875 29.984375 -1.421875 
Q 24.8125 -1.421875 18.96875 -0.25 
Q 13.140625 0.921875 6.890625 3.21875 
L 6.890625 13.375 
Q 12.890625 10.015625 18.65625 8.296875 
Q 24.421875 6.59375 29.984375 6.59375 
Q 38.421875 6.59375 43.015625 9.90625 
Q 47.609375 13.234375 47.609375 19.390625 
Q 47.609375 24.75 44.3125 27.78125 
Q 41.015625 30.8125 33.5 32.328125 
L 27.484375 33.5 
Q 16.453125 35.6875 11.515625 40.375 
Q 6.59375 45.0625 6.59375 53.421875 
Q 6.59375 63.09375 13.40625 68.65625 
Q 20.21875 74.21875 32.171875 74.21875 
Q 37.3125 74.21875 42.625 73.28125 
Q 47.953125 72.359375 53.515625 70.515625 
" id="DejaVuSans-53"/>
      <path d="M 45.40625 46.390625 
L 45.40625 75.984375 
L 54.390625 75.984375 
L 54.390625 0 
L 45.40625 0 
L 45.40625 8.203125 
Q 42.578125 3.328125 38.25 0.953125 
Q 33.9375 -1.421875 27.875 -1.421875 
Q 17.96875 -1.421875 11.734375 6.484375 
Q 5.515625 14.40625 5.515625 27.296875 
Q 5.515625 40.1875 11.734375 48.09375 
Q 17.96875 56 27.875 56 
Q 33.9375 56 38.25 53.625 
Q 42.578125 51.265625 45.40625 46.390625 
M 14.796875 27.296875 
Q 14.796875 17.390625 18.875 11.75 
Q 22.953125 6.109375 30.078125 6.109375 
Q 37.203125 6.109375 41.296875 11.75 
Q 45.40625 17.390625 45.40625 27.296875 
Q 45.40625 37.203125 41.296875 42.84375 
Q 37.203125 48.484375 30.078125 48.484375 
Q 22.953125 48.484375 18.875 42.84375 
Q 14.796875 37.203125 14.796875 27.296875 
" id="DejaVuSans-64"/>
      <path d="M 4.203125 54.6875 
L 13.1875 54.6875 
L 24.421875 12.015625 
L 35.59375 54.6875 
L 46.1875 54.6875 
L 57.421875 12.015625 
L 68.609375 54.6875 
L 77.59375 54.6875 
L 63.28125 0 
L 52.6875 0 
L 40.921875 44.828125 
L 29.109375 0 
L 18.5 0 
z
" id="DejaVuSans-77"/>
      <path d="M 34.28125 27.484375 
Q 23.390625 27.484375 19.1875 25 
Q 14.984375 22.515625 14.984375 16.5 
Q 14.984375 11.71875 18.140625 8.90625 
Q 21.296875 6.109375 26.703125 6.109375 
Q 34.1875 6.109375 38.703125 11.40625 
Q 43.21875 16.703125 43.21875 25.484375 
L 43.21875 27.484375 
z
M 52.203125 31.203125 
L 52.203125 0 
L 43.21875 0 
L 43.21875 8.296875 
Q 40.140625 3.328125 35.546875 0.953125 
Q 30.953125 -1.421875 24.3125 -1.421875 
Q 15.921875 -1.421875 10.953125 3.296875 
Q 6 8.015625 6 15.921875 
Q 6 25.140625 12.171875 29.828125 
Q 18.359375 34.515625 30.609375 34.515625 
L 43.21875 34.515625 
L 43.21875 35.40625 
Q 43.21875 41.609375 39.140625 45 
Q 35.0625 48.390625 27.6875 48.390625 
Q 23 48.390625 18.546875 47.265625 
Q 14.109375 46.140625 10.015625 43.890625 
L 10.015625 52.203125 
Q 14.9375 54.109375 19.578125 55.046875 
Q 24.21875 56 28.609375 56 
Q 40.484375 56 46.34375 49.84375 
Q 52.203125 43.703125 52.203125 31.203125 
" id="DejaVuSans-61"/>
      <path d="M 14.796875 27.296875 
Q 14.796875 17.390625 18.875 11.75 
Q 22.953125 6.109375 30.078125 6.109375 
Q 37.203125 6.109375 41.296875 11.75 
Q 45.40625 17.390625 45.40625 27.296875 
Q 45.40625 37.203125 41.296875 42.84375 
Q 37.203125 48.484375 30.078125 48.484375 
Q 22.953125 48.484375 18.875 42.84375 
Q 14.796875 37.203125 14.796875 27.296875 
M 45.40625 8.203125 
Q 42.578125 3.328125 38.25 0.953125 
Q 33.9375 -1.421875 27.875 -1.421875 
Q 17.96875 -1.421875 11.734375 6.484375 
Q 5.515625 14.40625 5.515625 27.296875 
Q 5.515625 40.1875 11.734375 48.09375 
Q 17.96875 56 27.875 56 
Q 33.9375 56 38.25 53.625 
Q 42.578125 51.265625 45.40625 46.390625 
L 45.40625 54.6875 
L 54.390625 54.6875 
L 54.390625 -20.796875 
L 45.40625 -20.796875 
z
" id="DejaVuSans-71"/>
      <path d="M 18.109375 8.203125 
L 18.109375 -20.796875 
L 9.078125 -20.796875 
L 9.078125 54.6875 
L 18.109375 54.6875 
L 18.109375 46.390625 
Q 20.953125 51.265625 25.265625 53.625 
Q 29.59375 56 35.59375 56 
Q 45.5625 56 51.78125 48.09375 
Q 58.015625 40.1875 58.015625 27.296875 
Q 58.015625 14.40625 51.78125 6.484375 
Q 45.5625 -1.421875 35.59375 -1.421875 
Q 29.59375 -1.421875 25.265625 0.953125 
Q 20.953125 3.328125 18.109375 8.203125 
M 48.6875 27.296875 
Q 48.6875 37.203125 44.609375 42.84375 
Q 40.53125 48.484375 33.40625 48.484375 
Q 26.265625 48.484375 22.1875 42.84375 
Q 18.109375 37.203125 18.109375 27.296875 
Q 18.109375 17.390625 22.1875 11.75 
Q 26.265625 6.109375 33.40625 6.109375 
Q 40.53125 6.109375 44.609375 11.75 
Q 48.6875 17.390625 48.6875 27.296875 
" id="DejaVuSans-70"/>
     </defs>
     <g transform="translate(25.432812 279.366281)rotate(-90)scale(0.1 -0.1)">
      <use xlink:href="#DejaVuSans-53"/>
      <use x="63.476562" xlink:href="#DejaVuSans-75"/>
      <use x="126.855469" xlink:href="#DejaVuSans-63"/>
      <use x="181.835938" xlink:href="#DejaVuSans-63"/>
      <use x="236.816406" xlink:href="#DejaVuSans-65"/>
      <use x="298.339844" xlink:href="#DejaVuSans-73"/>
      <use x="350.439453" xlink:href="#DejaVuSans-73"/>
      <use x="402.539062" xlink:href="#DejaVuSans-66"/>
      <use x="437.744141" xlink:href="#DejaVuSans-75"/>
      <use x="501.123047" xlink:href="#DejaVuSans-6c"/>
      <use x="528.90625" xlink:href="#DejaVuSans-20"/>
      <use x="560.693359" xlink:href="#DejaVuSans-64"/>
      <use x="624.169922" xlink:href="#DejaVuSans-6f"/>
      <use x="685.351562" xlink:href="#DejaVuSans-77"/>
      <use x="767.138672" xlink:href="#DejaVuSans-6e"/>
      <use x="830.517578" xlink:href="#DejaVuSans-6c"/>
      <use x="858.300781" xlink:href="#DejaVuSans-6f"/>
      <use x="919.482422" xlink:href="#DejaVuSans-61"/>
      <use x="980.761719" xlink:href="#DejaVuSans-64"/>
      <use x="1044.238281" xlink:href="#DejaVuSans-20"/>
      <use x="1076.025391" xlink:href="#DejaVuSans-72"/>
      <use x="1117.107422" xlink:href="#DejaVuSans-65"/>
      <use x="1178.630859" xlink:href="#DejaVuSans-71"/>
      <use x="1242.107422" xlink:href="#DejaVuSans-75"/>
      <use x="1305.486328" xlink:href="#DejaVuSans-65"/>
      <use x="1367.009766" xlink:href="#DejaVuSans-73"/>
      <use x="1419.109375" xlink:href="#DejaVuSans-74"/>
      <use x="1458.318359" xlink:href="#DejaVuSans-73"/>
      <use x="1510.417969" xlink:href="#DejaVuSans-20"/>
      <use x="1542.205078" xlink:href="#DejaVuSans-70"/>
      <use x="1605.681641" xlink:href="#DejaVuSans-65"/>
      <use x="1667.205078" xlink:href="#DejaVuSans-72"/>
      <use x="1708.318359" xlink:href="#DejaVuSans-20"/>
      <use x="1740.105469" xlink:href="#DejaVuSans-73"/>
      <use x="1792.205078" xlink:href="#DejaVuSans-65"/>
      <use x="1853.728516" xlink:href="#DejaVuSans-63"/>
      <use x="1908.708984" xlink:href="#DejaVuSans-6f"/>
      <use x="1969.890625" xlink:href="#DejaVuSans-6e"/>
      <use x="2033.269531" xlink:href="#DejaVuSans-64"/>
     </g>
    </g>
   </g>
   <g id="line2d_29">
    <path clip-path="url(#p93c5a354ef)" d="M 57.6 295.452015 
L 57.95712 295.488 
L 62.24256 279.611892 
L 62.59968 277.546932 
L 62.9568 276.384354 
L 63.67104 273.263386 
L 64.7424 270.747236 
L 65.09952 268.438688 
L 65.45664 267.244278 
L 65.81376 265.569612 
L 66.17088 265.843648 
L 66.528 262.880459 
L 66.88512 262.512309 
L 67.24224 259.794091 
L 67.59936 259.547735 
L 67.95648 258.201083 
L 68.3136 257.765116 
L 68.67072 254.115452 
L 69.02784 253.228294 
L 69.38496 253.18539 
L 69.74208 250.908675 
L 70.0992 251.549476 
L 70.45632 247.420941 
L 70.81344 247.264546 
L 71.52768 243.952584 
L 71.8848 243.70346 
L 72.24192 241.526394 
L 72.59904 240.864832 
L 72.95616 238.567357 
L 73.31328 239.152798 
L 73.6704 234.599368 
L 74.02752 235.480989 
L 74.38464 234.599368 
L 74.74176 231.500544 
L 75.09888 231.308165 
L 75.81312 229.410672 
L 76.17024 227.974058 
L 76.52736 224.154159 
L 76.88448 225.175567 
L 77.2416 224.221976 
L 77.95584 218.076922 
L 78.31296 219.532912 
L 78.67008 215.904008 
L 79.0272 214.630709 
L 79.38432 217.364151 
L 79.74144 216.564186 
L 80.09856 214.21135 
L 80.45568 214.320688 
L 80.8128 214.964258 
L 81.16992 211.480676 
L 81.52704 212.597581 
L 81.88416 211.713192 
L 82.24128 213.68127 
L 82.5984 210.981045 
L 82.95552 209.310531 
L 83.31264 209.527822 
L 84.384 205.341158 
L 85.09824 210.030222 
L 85.45536 204.006961 
L 85.81248 209.177665 
L 86.1696 206.254612 
L 86.52672 205.9958 
L 86.88384 204.415248 
L 87.24096 206.837285 
L 87.59808 201.54894 
L 87.9552 200.224431 
L 88.31232 206.127282 
L 88.66944 203.80351 
L 89.02656 203.781366 
L 89.38368 198.696472 
L 90.09792 201.447906 
L 90.45504 198.353234 
L 90.81216 202.759958 
L 91.16928 195.922893 
L 91.5264 197.275082 
L 91.88352 196.897244 
L 92.24064 195.583808 
L 92.59776 197.492373 
L 92.95488 193.585281 
L 93.312 193.910526 
L 93.66912 196.206617 
L 94.02624 193.27526 
L 94.38336 193.78458 
L 94.74048 193.647562 
L 95.0976 196.243986 
L 95.45472 191.546618 
L 95.81184 194.504271 
L 96.16896 194.92363 
L 96.52608 196.498646 
L 96.8832 191.30303 
L 97.24032 188.845008 
L 97.59744 190.348055 
L 97.95456 189.318343 
L 98.31168 192.396407 
L 98.6688 187.481747 
L 99.02592 190.462929 
L 99.74016 186.207064 
L 100.09728 191.29611 
L 100.4544 185.631311 
L 100.81152 187.849897 
L 101.16864 187.494203 
L 101.52576 191.213069 
L 101.88288 188.176526 
L 102.24 188.489315 
L 102.59712 184.687408 
L 102.95424 184.997429 
L 103.31136 183.556663 
L 103.66848 183.340756 
L 104.0256 183.459781 
L 104.38272 185.4417 
L 104.73984 180.363726 
L 105.09696 185.587022 
L 105.45408 185.707432 
L 105.8112 185.319906 
L 106.16832 186.507396 
L 106.52544 178.343055 
L 106.88256 183.170521 
L 107.23968 181.717299 
L 107.5968 184.859027 
L 107.95392 182.553247 
L 108.31104 181.980263 
L 108.66816 184.501949 
L 109.02528 178.57557 
L 109.3824 181.31178 
L 109.73952 179.262045 
L 110.09664 175.073996 
L 110.45376 176.0871 
L 110.81088 178.664148 
L 111.168 175.458754 
L 111.52512 179.696627 
L 111.88224 174.67263 
L 112.23936 173.35089 
L 112.59648 179.850254 
L 112.9536 175.353569 
L 113.31072 173.883738 
L 113.66784 176.520299 
L 114.02496 176.601956 
L 114.38208 173.342586 
L 114.7392 174.440115 
L 115.09632 177.134804 
L 115.45344 177.721629 
L 115.81056 172.149559 
L 116.16768 174.296176 
L 116.5248 172.86233 
L 116.88192 173.678903 
L 117.23904 170.106744 
L 117.59616 175.089221 
L 117.95328 172.775137 
L 118.3104 172.376539 
L 118.66752 174.707231 
L 119.02464 166.98716 
L 119.38176 172.21876 
L 119.73888 174.912066 
L 120.096 174.132862 
L 120.45312 168.271532 
L 120.81024 167.625194 
L 121.16736 168.67013 
L 121.8816 171.701137 
L 122.23872 170.3877 
L 122.59584 163.744398 
L 123.31008 169.057656 
L 123.6672 170.279747 
L 124.02432 167.567065 
L 124.38144 167.268116 
L 124.73856 163.427457 
L 125.09568 165.471657 
L 125.4528 163.265527 
L 125.80992 169.374597 
L 126.16704 170.108128 
L 126.52416 166.270237 
L 126.88128 169.18637 
L 127.2384 166.956712 
L 127.59552 165.652964 
L 127.95264 161.715423 
L 128.66688 159.051182 
L 129.024 159.636623 
L 129.38112 166.731116 
L 129.73824 166.822462 
L 130.09536 159.646311 
L 130.45248 158.518334 
L 130.8096 158.511414 
L 131.16672 161.440003 
L 131.52384 160.440739 
L 131.88096 161.881506 
L 132.23808 156.072768 
L 132.5952 163.758238 
L 132.95232 163.525723 
L 133.30944 161.272536 
L 133.66656 155.67417 
L 134.02368 161.751408 
L 134.3808 160.115494 
L 134.73792 156.887957 
L 135.09504 158.252602 
L 135.45216 153.769757 
L 135.80928 154.162819 
L 136.1664 155.757211 
L 136.52352 161.864897 
L 136.88064 157.755738 
L 137.23776 158.116968 
L 137.59488 161.529964 
L 137.952 153.149715 
L 138.30912 159.672608 
L 138.66624 151.894408 
L 139.02336 160.592982 
L 139.38048 157.231194 
L 139.7376 160.370154 
L 140.09472 155.235435 
L 140.45184 157.47063 
L 140.80896 153.498489 
L 141.16608 155.185611 
L 141.5232 159.193736 
L 141.88032 156.099065 
L 142.23744 148.965819 
L 142.59456 154.709507 
L 142.95168 154.258316 
L 143.3088 153.577378 
L 143.66592 153.897087 
L 144.02304 154.763484 
L 144.38016 151.635596 
L 144.73728 155.239587 
L 145.0944 154.309525 
L 145.45152 154.86175 
L 145.80864 147.05587 
L 146.16576 150.437034 
L 146.52288 149.109757 
L 146.88 151.217622 
L 147.23712 150.778887 
L 147.59424 145.215121 
L 147.95136 151.147036 
L 148.30848 151.253606 
L 148.6656 155.061049 
L 149.02272 144.680889 
L 149.37984 144.751474 
L 149.73696 152.233493 
L 150.09408 150.740134 
L 150.4512 151.059843 
L 150.80832 144.130049 
L 151.16544 145.262178 
L 151.52256 143.474022 
L 151.87968 143.292716 
L 152.2368 145.828243 
L 152.59392 152.522754 
L 152.95104 150.805183 
L 153.30816 144.433149 
L 153.66528 143.876773 
L 154.0224 150.286175 
L 154.37952 146.485653 
L 154.73664 149.836368 
L 155.09376 148.742992 
L 155.45088 143.229051 
L 155.808 149.260615 
L 156.16512 147.383883 
L 156.52224 141.386918 
L 156.87936 146.055222 
L 157.23648 140.837462 
L 157.95072 148.401138 
L 158.30784 147.900123 
L 158.66496 139.197397 
L 159.02208 138.040355 
L 159.3792 144.059463 
L 159.73632 139.587691 
L 160.09344 147.321602 
L 160.45056 140.007049 
L 160.80768 138.456945 
L 161.1648 139.324727 
L 161.52192 144.489894 
L 161.87904 137.777391 
L 162.23616 144.419309 
L 162.59328 141.092122 
L 162.9504 146.369395 
L 163.30752 144.110672 
L 163.66464 144.232466 
L 164.02176 143.029752 
L 164.37888 138.629948 
L 164.736 142.209027 
L 165.09312 139.071451 
L 165.45024 142.308677 
L 165.80736 141.135027 
L 166.16448 142.743259 
L 166.5216 143.774355 
L 166.87872 143.893381 
L 167.23584 143.876773 
L 167.59296 135.575413 
L 167.95008 140.598026 
L 168.3072 141.648498 
L 168.66432 132.787994 
L 169.02144 142.620081 
L 169.37856 140.116387 
L 169.73568 139.028546 
L 170.0928 142.618697 
L 170.44992 138.211974 
L 170.80704 139.911552 
L 171.16416 138.009906 
L 171.52128 130.994303 
L 171.8784 133.031582 
L 172.23552 137.158733 
L 172.59264 137.589164 
L 172.94976 132.41154 
L 173.30688 132.372788 
L 173.664 135.562957 
L 174.02112 133.69176 
L 174.37824 134.242601 
L 174.73536 135.066093 
L 175.09248 139.499113 
L 175.4496 135.628006 
L 175.80672 134.810049 
L 176.16384 131.338924 
L 176.52096 131.247578 
L 176.87808 129.350085 
L 177.2352 128.926575 
L 177.59232 128.788173 
L 177.94944 128.922423 
L 178.30656 138.562131 
L 178.66368 128.825541 
L 179.0208 134.956756 
L 179.37792 127.232533 
L 179.73504 128.764644 
L 180.09216 131.540991 
L 180.44928 126.669236 
L 181.16352 133.772033 
L 181.87776 126.514226 
L 182.23488 129.588137 
L 182.592 128.208268 
L 182.94912 135.057789 
L 183.30624 136.490251 
L 183.66336 129.026224 
L 184.02048 127.765381 
L 184.3776 131.467638 
L 184.73472 131.466254 
L 185.44896 126.215277 
L 185.80608 129.388838 
L 186.1632 123.508131 
L 186.52032 123.101229 
L 186.87744 124.968274 
L 187.23456 122.820273 
L 187.59168 127.901015 
L 187.9488 127.364015 
L 188.30592 127.084442 
L 188.66304 132.577623 
L 189.02016 126.90452 
L 189.37728 129.12449 
L 189.7344 123.241015 
L 190.09152 128.202732 
L 190.44864 125.185565 
L 190.80576 132.375556 
L 191.16288 121.448708 
L 191.52 122.313721 
L 191.87712 127.364015 
L 192.23424 130.0158 
L 192.59136 124.05482 
L 192.94848 122.663878 
L 193.3056 126.584811 
L 193.66272 128.727276 
L 194.01984 126.183445 
L 194.37696 119.785114 
L 195.0912 120.071607 
L 195.44832 126.594499 
L 195.80544 122.78152 
L 196.16256 120.370555 
L 196.51968 129.089889 
L 196.8768 130.108529 
L 197.23392 125.047163 
L 197.59104 124.110181 
L 197.94816 124.064508 
L 198.30528 126.01321 
L 198.6624 121.195432 
L 199.01952 122.795361 
L 199.37664 120.358099 
L 199.73376 126.685844 
L 200.09088 121.904051 
L 200.448 123.751719 
L 200.80512 121.106855 
L 201.16224 120.013478 
L 201.51936 119.703457 
L 201.87648 120.900635 
L 202.2336 121.415491 
L 202.59072 118.175497 
L 202.94784 119.922132 
L 203.30496 125.613228 
L 203.66208 124.139245 
L 204.37632 123.951018 
L 204.73344 121.70752 
L 205.09056 115.669035 
L 205.44768 115.115426 
L 205.8048 120.355331 
L 206.16192 121.636935 
L 206.51904 119.89722 
L 206.87616 124.540611 
L 207.23328 117.847484 
L 207.5904 121.548357 
L 207.94752 118.223938 
L 208.30464 121.751808 
L 208.66176 119.003142 
L 209.01888 114.096787 
L 209.376 122.766296 
L 209.73312 114.53829 
L 210.09024 124.748215 
L 210.44736 118.150585 
L 210.80448 124.460338 
L 211.1616 114.084331 
L 211.51872 113.569475 
L 211.87584 119.983029 
L 212.23296 114.175676 
L 212.59008 122.759376 
L 212.9472 115.320262 
L 213.30432 115.562465 
L 214.01856 120.54771 
L 214.37568 113.436609 
L 214.7328 113.132124 
L 215.08992 117.035064 
L 215.44704 116.79978 
L 215.80416 122.51994 
L 216.16128 116.694595 
L 216.5184 114.754197 
L 216.87552 119.805875 
L 217.23264 111.234631 
L 217.58976 113.597155 
L 217.94688 110.441587 
L 218.304 113.085067 
L 218.66112 108.988364 
L 219.01824 109.65823 
L 219.37536 119.303475 
L 219.73248 111.017339 
L 220.0896 116.437167 
L 220.44672 116.668298 
L 220.80384 117.361693 
L 221.16096 110.269968 
L 221.51808 120.532486 
L 221.8752 109.917042 
L 222.23232 110.78344 
L 222.58944 119.158153 
L 223.30368 112.048435 
L 223.6608 117.141634 
L 224.01792 107.824402 
L 224.37504 109.735736 
L 224.73216 110.382074 
L 225.08928 111.338432 
L 225.4464 106.988453 
L 225.80352 111.288608 
L 226.16064 107.027206 
L 226.51776 107.824402 
L 226.87488 108.087366 
L 227.232 108.20224 
L 227.58912 106.25077 
L 227.94624 108.624367 
L 228.30336 106.469445 
L 228.66048 109.896282 
L 229.0176 117.084889 
L 229.73184 109.703903 
L 230.44608 107.124088 
L 230.8032 106.487438 
L 231.16032 108.339258 
L 231.51744 112.304479 
L 231.87456 114.570122 
L 232.23168 104.601017 
L 232.5888 113.361871 
L 232.94592 103.064753 
L 233.30304 112.083036 
L 233.66016 115.907087 
L 234.01728 102.477928 
L 234.73152 115.022697 
L 235.08864 115.140339 
L 235.44576 109.353746 
L 235.80288 113.277446 
L 236.16 109.680375 
L 236.51712 111.32736 
L 236.87424 105.864628 
L 237.23136 113.111364 
L 237.58848 111.601396 
L 237.9456 107.554518 
L 238.30272 110.38761 
L 238.65984 108.736472 
L 239.01696 113.745245 
L 239.37408 110.872017 
L 239.7312 102.700756 
L 240.08832 112.588204 
L 240.44544 110.687942 
L 240.80256 102.226036 
L 241.15968 112.823487 
L 241.5168 100.736829 
L 241.87392 105.866012 
L 242.23104 109.027117 
L 242.58816 102.335374 
L 242.94528 99.466298 
L 243.3024 108.335106 
L 243.65952 102.904207 
L 244.01664 108.903939 
L 244.37376 102.371358 
L 244.73088 106.838979 
L 245.088 98.67187 
L 245.44512 105.798195 
L 245.80224 105.86878 
L 246.15936 111.576484 
L 246.8736 107.323387 
L 247.23072 111.480987 
L 247.58784 99.640684 
L 247.94496 110.196615 
L 248.30208 101.679348 
L 248.6592 109.636086 
L 249.01632 106.045935 
L 249.37344 104.762947 
L 249.73056 100.565211 
L 250.08768 98.885009 
L 250.4448 108.634055 
L 250.80192 99.799847 
L 251.15904 102.624634 
L 251.51616 99.271151 
L 251.87328 99.189494 
L 252.2304 109.618094 
L 253.30176 96.087902 
L 253.65888 106.133128 
L 254.016 101.358255 
L 254.37312 100.94028 
L 254.73024 105.709618 
L 255.08736 97.90097 
L 255.44448 95.458172 
L 255.8016 95.675463 
L 256.15872 95.650551 
L 256.51584 104.486143 
L 256.87296 100.781118 
L 257.23008 103.103506 
L 257.5872 96.227688 
L 257.94432 100.042051 
L 258.30144 100.704997 
L 258.65856 105.665329 
L 259.01568 102.077946 
L 259.3728 94.825674 
L 259.72992 93.978653 
L 260.08704 101.444064 
L 260.44416 104.951174 
L 260.80128 101.953384 
L 261.1584 100.695309 
L 261.51552 100.336847 
L 261.87264 96.130806 
L 262.22976 99.446921 
L 262.58688 104.529048 
L 262.944 92.868668 
L 263.30112 97.737655 
L 263.65824 91.913694 
L 264.37248 105.633497 
L 265.08672 100.221973 
L 265.44384 103.402454 
L 265.80096 101.318118 
L 266.15808 104.762947 
L 266.5152 97.376426 
L 266.87232 101.588002 
L 267.22944 101.952 
L 267.58656 96.21108 
L 267.94368 99.910569 
L 268.3008 97.487147 
L 268.65792 100.814335 
L 269.01504 92.99323 
L 269.37216 102.518065 
L 269.72928 95.124623 
L 270.0864 98.140405 
L 270.44352 102.162371 
L 270.80064 90.823085 
L 271.15776 95.934275 
L 271.51488 103.53532 
L 271.872 99.242086 
L 272.22912 101.430224 
L 272.58624 89.144267 
L 272.94336 90.063257 
L 273.30048 99.240702 
L 273.6576 92.8659 
L 274.01472 97.90097 
L 274.37184 98.98881 
L 274.72896 92.633385 
L 275.08608 100.451721 
L 275.4432 94.792458 
L 275.80032 102.342294 
L 276.15744 90.007896 
L 276.51456 92.954478 
L 276.87168 89.901327 
L 277.2288 100.426809 
L 277.58592 92.565568 
L 277.94304 99.174269 
L 278.65728 88.874383 
L 279.0144 93.52331 
L 279.37152 87.756094 
L 279.72864 87.188645 
L 280.08576 93.758594 
L 280.44288 90.78018 
L 280.8 90.715131 
L 281.15712 88.012138 
L 281.51424 96.100358 
L 281.87136 98.591596 
L 282.22848 91.358701 
L 282.5856 100.49601 
L 282.94272 88.45364 
L 283.29984 85.609477 
L 283.65696 91.638273 
L 284.01408 89.59269 
L 284.3712 90.521368 
L 284.72832 96.504492 
L 285.08544 85.105693 
L 285.44256 89.609298 
L 285.79968 92.380109 
L 286.1568 84.719551 
L 286.51392 98.186078 
L 286.87104 87.012874 
L 287.22816 94.161344 
L 287.58528 91.26182 
L 287.9424 86.409441 
L 288.29952 92.691514 
L 288.65664 95.358523 
L 289.01376 92.468686 
L 289.37088 97.168822 
L 289.728 92.17389 
L 290.08512 97.923114 
L 290.44224 85.858601 
L 290.79936 94.95854 
L 291.15648 95.514917 
L 291.5136 94.921172 
L 291.87072 85.076629 
L 292.22784 89.209316 
L 292.58496 97.330753 
L 292.94208 83.487772 
L 293.2992 93.038903 
L 293.65632 97.065021 
L 294.01344 85.062788 
L 294.37056 85.364505 
L 294.72768 83.487772 
L 295.0848 85.877977 
L 295.44192 94.64852 
L 295.79904 94.955772 
L 296.15616 85.042028 
L 296.51328 92.274923 
L 296.8704 94.119824 
L 297.22752 94.398012 
L 297.58464 85.761719 
L 297.94176 90.926886 
L 298.29888 94.043702 
L 298.656 81.876771 
L 299.01312 81.501702 
L 299.37024 89.124891 
L 299.72736 81.581975 
L 300.08448 85.913961 
L 300.4416 85.692518 
L 300.79872 86.289031 
L 301.15584 81.15708 
L 301.51296 94.262378 
L 301.87008 80.831835 
L 302.2272 91.384998 
L 302.58432 90.922734 
L 302.94144 89.656355 
L 303.65568 94.753705 
L 304.0128 87.356112 
L 304.36992 85.630237 
L 304.72704 86.947825 
L 305.08416 79.627737 
L 305.44128 85.349281 
L 306.15552 79.797971 
L 306.51264 92.71781 
L 307.22688 78.581417 
L 307.584 79.779979 
L 307.94112 79.038144 
L 308.29824 89.188556 
L 308.65536 84.747231 
L 309.01248 84.880097 
L 309.3696 87.249542 
L 309.72672 78.801476 
L 310.08384 89.650819 
L 310.44096 82.484357 
L 310.79808 88.020442 
L 311.1552 88.509001 
L 311.51232 91.625817 
L 311.86944 90.319301 
L 312.22656 84.967291 
L 312.58368 84.457971 
L 312.9408 82.607535 
L 313.29792 87.670284 
L 313.65504 83.032429 
L 314.01216 89.163643 
L 314.36928 77.153107 
L 314.7264 83.703679 
L 315.08352 87.836367 
L 315.44064 83.422723 
L 315.79776 91.420982 
L 316.15488 87.621844 
L 316.512 77.713635 
L 316.86912 84.607445 
L 317.22624 81.760514 
L 318.2976 84.794288 
L 318.65472 87.66198 
L 319.01184 79.461654 
L 319.36896 89.495808 
L 319.72608 80.824915 
L 320.0832 89.005865 
L 320.44032 81.337003 
L 320.79744 83.480852 
L 321.15456 82.768081 
L 321.51168 81.089263 
L 321.8688 81.774354 
L 322.22592 77.432679 
L 322.58304 84.439979 
L 322.94016 77.557241 
L 323.29728 86.160317 
L 323.6544 75.359415 
L 324.01152 84.109198 
L 324.36864 83.457324 
L 324.72576 78.214651 
L 325.08288 85.46277 
L 325.44 85.155518 
L 325.79712 82.956308 
L 326.15424 78.800092 
L 326.51136 82.166032 
L 326.86848 87.382408 
L 327.58272 79.672025 
L 327.93984 81.696849 
L 328.29696 84.648966 
L 328.65408 83.651087 
L 329.0112 87.642604 
L 329.36832 85.530587 
L 329.72544 78.67553 
L 330.08256 84.790136 
L 330.7968 72.681334 
L 331.15392 77.245836 
L 331.51104 79.641577 
L 331.86816 74.75183 
L 332.22528 85.322984 
L 332.5824 85.788015 
L 332.93952 83.558357 
L 333.29664 82.997829 
L 333.65376 79.330172 
L 334.01088 84.986667 
L 334.368 77.291509 
L 334.72512 78.449935 
L 335.08224 75.265302 
L 335.43936 79.032608 
L 335.79648 84.069061 
L 336.1536 86.545075 
L 336.51072 79.054752 
L 336.86784 76.577354 
L 337.22496 75.665284 
L 337.58208 72.028076 
L 337.9392 80.006959 
L 338.29632 71.801096 
L 338.65344 76.677003 
L 339.01056 71.337449 
L 339.36768 79.233291 
L 339.7248 75.875655 
L 340.08192 79.792435 
L 340.43904 71.727743 
L 340.79616 70.383859 
L 341.15328 79.075512 
L 341.5104 78.448551 
L 341.86752 84.365242 
L 342.22464 76.46248 
L 342.58176 71.341601 
L 342.93888 78.409798 
L 343.296 81.561214 
L 343.65312 80.026335 
L 344.01024 75.52273 
L 344.36736 74.606508 
L 344.72448 74.37676 
L 345.0816 82.311354 
L 345.43872 70.433683 
L 345.79584 76.789109 
L 346.15296 81.054663 
L 346.51008 78.973095 
L 346.8672 70.998364 
L 347.22432 77.301197 
L 347.58144 79.187618 
L 347.93856 78.463775 
L 348.29568 78.877597 
L 348.6528 80.669905 
L 349.00992 81.486477 
L 349.36704 76.975952 
L 350.08128 74.769822 
L 350.4384 78.992471 
L 350.79552 80.838755 
L 351.15264 69.743057 
L 351.50976 78.634009 
L 351.86688 80.660217 
L 352.58112 69.113327 
L 352.93824 81.27057 
L 353.29536 73.632157 
L 353.65248 82.336266 
L 354.0096 81.530766 
L 354.36672 76.191212 
L 354.72384 72.785136 
L 355.08096 73.525587 
L 355.43808 78.094241 
L 355.7952 79.984814 
L 356.15232 70.256529 
L 356.50944 74.505474 
L 356.86656 69.798418 
L 357.22368 75.119979 
L 357.5808 67.89954 
L 357.93792 78.697674 
L 358.29504 81.485093 
L 358.65216 73.920033 
L 359.00928 74.827951 
L 359.3664 68.424084 
L 359.72352 65.29066 
L 360.43776 72.558156 
L 360.79488 80.029103 
L 361.152 69.635103 
L 361.50912 66.173666 
L 361.86624 65.081673 
L 362.22336 76.123395 
L 362.58048 67.812347 
L 362.9376 77.0064 
L 363.29472 66.948718 
L 363.65184 69.113327 
L 364.00896 78.676914 
L 364.36608 64.013209 
L 364.7232 69.408124 
L 365.08032 64.320461 
L 365.43744 64.190363 
L 365.79456 73.802391 
L 366.15168 76.253493 
L 366.5088 71.864761 
L 366.86592 74.905456 
L 367.22304 63.747477 
L 367.58016 69.877307 
L 367.93728 64.139155 
L 368.2944 63.584162 
L 368.65152 66.284388 
L 369.00864 76.632715 
L 369.36576 75.91856 
L 369.72288 67.665641 
L 370.08 64.291397 
L 370.43712 74.360152 
L 370.79424 65.031848 
L 371.15136 78.274164 
L 371.50848 68.055935 
L 371.8656 71.09663 
L 372.22272 65.188243 
L 372.57984 74.260502 
L 372.93696 67.560455 
L 373.29408 73.795471 
L 373.6512 74.558067 
L 374.00832 74.596819 
L 374.36544 70.981756 
L 374.72256 70.970684 
L 375.07968 70.61499 
L 375.4368 67.012383 
L 375.79392 74.465337 
L 376.15104 76.97872 
L 376.86528 68.894652 
L 377.2224 77.068681 
L 377.57952 74.865319 
L 377.93664 66.121073 
L 378.29376 74.401672 
L 378.65088 64.247108 
L 379.008 64.367518 
L 379.36512 72.706246 
L 379.72224 69.273874 
L 380.07936 70.886258 
L 380.43648 69.900835 
L 380.7936 63.765469 
L 381.15072 76.656243 
L 381.50784 76.466632 
L 381.86496 63.632603 
L 382.22208 74.282647 
L 382.5792 75.369103 
L 382.93632 73.836992 
L 383.29344 73.74703 
L 383.65056 61.653452 
L 384.00768 60.59606 
L 384.72192 70.662047 
L 385.07904 71.053725 
L 385.43616 59.837616 
L 385.79328 65.914854 
L 386.1504 65.840117 
L 386.50752 59.923426 
L 386.86464 61.361424 
L 387.22176 59.252175 
L 387.57888 64.840853 
L 387.936 63.065154 
L 388.29312 62.439576 
L 388.65024 69.935436 
L 389.00736 66.442166 
L 389.36448 67.035911 
L 389.7216 59.717207 
L 390.07872 60.910233 
L 390.43584 70.606686 
L 390.79296 69.146544 
L 391.15008 73.33736 
L 391.5072 59.270168 
L 391.86432 71.78864 
L 392.22144 65.961911 
L 392.57856 66.407565 
L 392.93568 69.146544 
L 393.2928 59.111005 
L 393.64992 71.766496 
L 394.00704 61.37388 
L 394.36416 59.304768 
L 394.72128 68.736873 
L 395.0784 68.497438 
L 395.43552 63.005641 
L 395.79264 62.177996 
L 396.14976 68.853131 
L 396.50688 72.224607 
L 396.864 66.425558 
L 397.22112 58.287513 
L 397.57824 62.432656 
L 397.93536 62.897687 
L 398.29248 59.292312 
L 399.36384 64.308005 
L 399.72096 60.126877 
L 400.07808 59.463931 
L 400.4352 67.98535 
L 400.79232 71.218423 
L 401.14944 62.633339 
L 401.50656 71.467547 
L 401.86368 58.237688 
L 402.2208 67.531391 
L 402.57792 67.613048 
L 402.93504 61.51505 
L 403.29216 63.808373 
L 403.64928 64.98756 
L 404.0064 68.043479 
L 404.36352 57.643943 
L 404.72064 61.782166 
L 405.07776 58.800984 
L 405.43488 60.979434 
L 405.792 60.604364 
L 406.14912 55.722921 
L 406.50624 64.74674 
L 406.86336 55.069663 
L 407.22048 55.50563 
L 407.5776 59.349057 
L 407.93472 66.909965 
L 408.29184 71.28624 
L 408.64896 70.234384 
L 409.3632 60.114421 
L 409.72032 64.035353 
L 410.07744 60.56838 
L 410.43456 60.515787 
L 410.79168 59.373969 
L 411.50592 53.840652 
L 411.86304 65.39031 
L 412.57728 70.412923 
L 412.9344 63.380711 
L 413.29152 53.568 
L 413.64864 58.625214 
L 414.00576 56.680664 
L 414.36288 68.767322 
L 414.72 64.914206 
L 414.72 64.914206 
" style="fill:none;stroke:#000080;stroke-linecap:square;stroke-width:0.5;"/>
   </g>
   <g id="patch_3">
    <path d="M 57.6 307.584 
L 57.6 41.472 
" style="fill:none;stroke:#000000;stroke-linecap:square;stroke-linejoin:miter;stroke-width:0.8;"/>
   </g>
   <g id="patch_4">
    <path d="M 414.72 307.584 
L 414.72 41.472 
" style="fill:none;stroke:#000000;stroke-linecap:square;stroke-linejoin:miter;stroke-width:0.8;"/>
   </g>
   <g id="patch_5">
    <path d="M 57.6 307.584 
L 414.72 307.584 
" style="fill:none;stroke:#000000;stroke-linecap:square;stroke-linejoin:miter;stroke-width:0.8;"/>
   </g>
   <g id="patch_6">
    <path d="M 57.6 41.472 
L 414.72 41.472 
" style="fill:none;stroke:#000000;stroke-linecap:square;stroke-linejoin:miter;stroke-width:0.8;"/>
   </g>
   <g id="text_17">
    <!-- Test -->
    <defs>
     <path d="M -0.296875 72.90625 
L 61.375 72.90625 
L 61.375 64.59375 
L 35.5 64.59375 
L 35.5 0 
L 25.59375 0 
L 25.59375 64.59375 
L -0.296875 64.59375 
z
" id="DejaVuSans-54"/>
    </defs>
    <g transform="translate(223.341563 35.472)scale(0.12 -0.12)">
     <use xlink:href="#DejaVuSans-54"/>
     <use x="60.818359" xlink:href="#DejaVuSans-65"/>
     <use x="122.341797" xlink:href="#DejaVuSans-73"/>
     <use x="174.441406" xlink:href="#DejaVuSans-74"/>
    </g>
   </g>
   <g id="legend_1">
    <g id="patch_7">
     <path d="M 64.6 64.150125 
L 306.276563 64.150125 
Q 308.276563 64.150125 308.276563 62.150125 
L 308.276563 48.472 
Q 308.276563 46.472 306.276563 46.472 
L 64.6 46.472 
Q 62.6 46.472 62.6 48.472 
L 62.6 62.150125 
Q 62.6 64.150125 64.6 64.150125 
z
" style="fill:#ffffff;opacity:0.8;stroke:#cccccc;stroke-linejoin:miter;"/>
    </g>
    <g id="line2d_30">
     <path d="M 66.6 54.570438 
L 86.6 54.570438 
" style="fill:none;stroke:#000080;stroke-linecap:square;stroke-width:0.5;"/>
    </g>
    <g id="line2d_31"/>
    <g id="text_18">
     <!-- Successful download requests per second -->
     <g transform="translate(94.6 58.070438)scale(0.1 -0.1)">
      <use xlink:href="#DejaVuSans-53"/>
      <use x="63.476562" xlink:href="#DejaVuSans-75"/>
      <use x="126.855469" xlink:href="#DejaVuSans-63"/>
      <use x="181.835938" xlink:href="#DejaVuSans-63"/>
      <use x="236.816406" xlink:href="#DejaVuSans-65"/>
      <use x="298.339844" xlink:href="#DejaVuSans-73"/>
      <use x="350.439453" xlink:href="#DejaVuSans-73"/>
      <use x="402.539062" xlink:href="#DejaVuSans-66"/>
      <use x="437.744141" xlink:href="#DejaVuSans-75"/>
      <use x="501.123047" xlink:href="#DejaVuSans-6c"/>
      <use x="528.90625" xlink:href="#DejaVuSans-20"/>
      <use x="560.693359" xlink:href="#DejaVuSans-64"/>
      <use x="624.169922" xlink:href="#DejaVuSans-6f"/>
      <use x="685.351562" xlink:href="#DejaVuSans-77"/>
      <use x="767.138672" xlink:href="#DejaVuSans-6e"/>
      <use x="830.517578" xlink:href="#DejaVuSans-6c"/>
      <use x="858.300781" xlink:href="#DejaVuSans-6f"/>
      <use x="919.482422" xlink:href="#DejaVuSans-61"/>
      <use x="980.761719" xlink:href="#DejaVuSans-64"/>
      <use x="1044.238281" xlink:href="#DejaVuSans-20"/>
      <use x="1076.025391" xlink:href="#DejaVuSans-72"/>
      <use x="1117.107422" xlink:href="#DejaVuSans-65"/>
      <use x="1178.630859" xlink:href="#DejaVuSans-71"/>
      <use x="1242.107422" xlink:href="#DejaVuSans-75"/>
      <use x="1305.486328" xlink:href="#DejaVuSans-65"/>
      <use x="1367.009766" xlink:href="#DejaVuSans-73"/>
      <use x="1419.109375" xlink:href="#DejaVuSans-74"/>
      <use x="1458.318359" xlink:href="#DejaVuSans-73"/>
      <use x="1510.417969" xlink:href="#DejaVuSans-20"/>
      <use x="1542.205078" xlink:href="#DejaVuSans-70"/>
      <use x="1605.681641" xlink:href="#DejaVuSans-65"/>
      <use x="1667.205078" xlink:href="#DejaVuSans-72"/>
      <use x="1708.318359" xlink:href="#DejaVuSans-20"/>
      <use x="1740.105469" xlink:href="#DejaVuSans-73"/>
      <use x="1792.205078" xlink:href="#DejaVuSans-65"/>
      <use x="1853.728516" xlink:href="#DejaVuSans-63"/>
      <use x="1908.708984" xlink:href="#DejaVuSans-6f"/>
      <use x="1969.890625" xlink:href="#DejaVuSans-6e"/>
      <use x="2033.269531" xlink:href="#DejaVuSans-64"/>
     </g>
    </g>
   </g>
  </g>
 </g>
 <defs>
  <clipPath id="p93c5a354ef">
   <rect height="266.112" width="357.12" x="57.6" y="41.472"/>
  </clipPath>
 </defs>
</svg>
