<?xml version="1.0" encoding="utf-8" standalone="no"?>
<!DOCTYPE svg PUBLIC "-//W3C//DTD SVG 1.1//EN"
  "http://www.w3.org/Graphics/SVG/1.1/DTD/svg11.dtd">
<!-- Created with matplotlib (http://matplotlib.org/) -->
<svg height="345pt" version="1.1" viewBox="0 0 460 345" width="460pt" xmlns="http://www.w3.org/2000/svg" xmlns:xlink="http://www.w3.org/1999/xlink">
 <defs>
  <style type="text/css">
*{stroke-linecap:butt;stroke-linejoin:round;}
  </style>
 </defs>
 <g id="figure_1">
  <g id="patch_1">
   <path d="M 0 345.6 
L 460.8 345.6 
L 460.8 0 
L 0 0 
z
" style="fill:#ffffff;"/>
  </g>
  <g id="axes_1">
   <g id="patch_2">
    <path d="M 57.6 307.584 
L 414.72 307.584 
L 414.72 41.472 
L 57.6 41.472 
z
" style="fill:#ffffff;"/>
   </g>
   <g id="matplotlib.axis_1">
    <g id="xtick_1">
     <g id="line2d_1">
      <path clip-path="url(#p3ff371f707)" d="M 57.6 307.584 
L 57.6 41.472 
" style="fill:none;stroke:#b0b0b0;stroke-linecap:square;stroke-width:0.8;"/>
     </g>
     <g id="line2d_2">
      <defs>
       <path d="M 0 0 
L 0 3.5 
" id="m30c5f5c5f1" style="stroke:#000000;stroke-width:0.8;"/>
      </defs>
      <g>
       <use style="stroke:#000000;stroke-width:0.8;" x="57.6" xlink:href="#m30c5f5c5f1" y="307.584"/>
      </g>
     </g>
     <g id="text_1">
      <!-- 0 -->
      <defs>
       <path d="M 31.78125 66.40625 
Q 24.171875 66.40625 20.328125 58.90625 
Q 16.5 51.421875 16.5 36.375 
Q 16.5 21.390625 20.328125 13.890625 
Q 24.171875 6.390625 31.78125 6.390625 
Q 39.453125 6.390625 43.28125 13.890625 
Q 47.125 21.390625 47.125 36.375 
Q 47.125 51.421875 43.28125 58.90625 
Q 39.453125 66.40625 31.78125 66.40625 
M 31.78125 74.21875 
Q 44.046875 74.21875 50.515625 64.515625 
Q 56.984375 54.828125 56.984375 36.375 
Q 56.984375 17.96875 50.515625 8.265625 
Q 44.046875 -1.421875 31.78125 -1.421875 
Q 19.53125 -1.421875 13.0625 8.265625 
Q 6.59375 17.96875 6.59375 36.375 
Q 6.59375 54.828125 13.0625 64.515625 
Q 19.53125 74.21875 31.78125 74.21875 
" id="DejaVuSans-30"/>
      </defs>
      <g transform="translate(54.41875 322.182437)scale(0.1 -0.1)">
       <use xlink:href="#DejaVuSans-30"/>
      </g>
     </g>
    </g>
    <g id="xtick_2">
     <g id="line2d_3">
      <path clip-path="url(#p3ff371f707)" d="M 129.024 307.584 
L 129.024 41.472 
" style="fill:none;stroke:#b0b0b0;stroke-linecap:square;stroke-width:0.8;"/>
     </g>
     <g id="line2d_4">
      <g>
       <use style="stroke:#000000;stroke-width:0.8;" x="129.024" xlink:href="#m30c5f5c5f1" y="307.584"/>
      </g>
     </g>
     <g id="text_2">
      <!-- 200 -->
      <defs>
       <path d="M 19.1875 8.296875 
L 53.609375 8.296875 
L 53.609375 0 
L 7.328125 0 
L 7.328125 8.296875 
Q 12.9375 14.109375 22.625 23.890625 
Q 32.328125 33.6875 34.8125 36.53125 
Q 39.546875 41.84375 41.421875 45.53125 
Q 43.3125 49.21875 43.3125 52.78125 
Q 43.3125 58.59375 39.234375 62.25 
Q 35.15625 65.921875 28.609375 65.921875 
Q 23.96875 65.921875 18.8125 64.3125 
Q 13.671875 62.703125 7.8125 59.421875 
L 7.8125 69.390625 
Q 13.765625 71.78125 18.9375 73 
Q 24.125 74.21875 28.421875 74.21875 
Q 39.75 74.21875 46.484375 68.546875 
Q 53.21875 62.890625 53.21875 53.421875 
Q 53.21875 48.921875 51.53125 44.890625 
Q 49.859375 40.875 45.40625 35.40625 
Q 44.1875 33.984375 37.640625 27.21875 
Q 31.109375 20.453125 19.1875 8.296875 
" id="DejaVuSans-32"/>
      </defs>
      <g transform="translate(119.48025 322.182437)scale(0.1 -0.1)">
       <use xlink:href="#DejaVuSans-32"/>
       <use x="63.623047" xlink:href="#DejaVuSans-30"/>
       <use x="127.246094" xlink:href="#DejaVuSans-30"/>
      </g>
     </g>
    </g>
    <g id="xtick_3">
     <g id="line2d_5">
      <path clip-path="url(#p3ff371f707)" d="M 200.448 307.584 
L 200.448 41.472 
" style="fill:none;stroke:#b0b0b0;stroke-linecap:square;stroke-width:0.8;"/>
     </g>
     <g id="line2d_6">
      <g>
       <use style="stroke:#000000;stroke-width:0.8;" x="200.448" xlink:href="#m30c5f5c5f1" y="307.584"/>
      </g>
     </g>
     <g id="text_3">
      <!-- 400 -->
      <defs>
       <path d="M 37.796875 64.3125 
L 12.890625 25.390625 
L 37.796875 25.390625 
z
M 35.203125 72.90625 
L 47.609375 72.90625 
L 47.609375 25.390625 
L 58.015625 25.390625 
L 58.015625 17.1875 
L 47.609375 17.1875 
L 47.609375 0 
L 37.796875 0 
L 37.796875 17.1875 
L 4.890625 17.1875 
L 4.890625 26.703125 
z
" id="DejaVuSans-34"/>
      </defs>
      <g transform="translate(190.90425 322.182437)scale(0.1 -0.1)">
       <use xlink:href="#DejaVuSans-34"/>
       <use x="63.623047" xlink:href="#DejaVuSans-30"/>
       <use x="127.246094" xlink:href="#DejaVuSans-30"/>
      </g>
     </g>
    </g>
    <g id="xtick_4">
     <g id="line2d_7">
      <path clip-path="url(#p3ff371f707)" d="M 271.872 307.584 
L 271.872 41.472 
" style="fill:none;stroke:#b0b0b0;stroke-linecap:square;stroke-width:0.8;"/>
     </g>
     <g id="line2d_8">
      <g>
       <use style="stroke:#000000;stroke-width:0.8;" x="271.872" xlink:href="#m30c5f5c5f1" y="307.584"/>
      </g>
     </g>
     <g id="text_4">
      <!-- 600 -->
      <defs>
       <path d="M 33.015625 40.375 
Q 26.375 40.375 22.484375 35.828125 
Q 18.609375 31.296875 18.609375 23.390625 
Q 18.609375 15.53125 22.484375 10.953125 
Q 26.375 6.390625 33.015625 6.390625 
Q 39.65625 6.390625 43.53125 10.953125 
Q 47.40625 15.53125 47.40625 23.390625 
Q 47.40625 31.296875 43.53125 35.828125 
Q 39.65625 40.375 33.015625 40.375 
M 52.59375 71.296875 
L 52.59375 62.3125 
Q 48.875 64.0625 45.09375 64.984375 
Q 41.3125 65.921875 37.59375 65.921875 
Q 27.828125 65.921875 22.671875 59.328125 
Q 17.53125 52.734375 16.796875 39.40625 
Q 19.671875 43.65625 24.015625 45.921875 
Q 28.375 48.1875 33.59375 48.1875 
Q 44.578125 48.1875 50.953125 41.515625 
Q 57.328125 34.859375 57.328125 23.390625 
Q 57.328125 12.15625 50.6875 5.359375 
Q 44.046875 -1.421875 33.015625 -1.421875 
Q 20.359375 -1.421875 13.671875 8.265625 
Q 6.984375 17.96875 6.984375 36.375 
Q 6.984375 53.65625 15.1875 63.9375 
Q 23.390625 74.21875 37.203125 74.21875 
Q 40.921875 74.21875 44.703125 73.484375 
Q 48.484375 72.75 52.59375 71.296875 
" id="DejaVuSans-36"/>
      </defs>
      <g transform="translate(262.32825 322.182437)scale(0.1 -0.1)">
       <use xlink:href="#DejaVuSans-36"/>
       <use x="63.623047" xlink:href="#DejaVuSans-30"/>
       <use x="127.246094" xlink:href="#DejaVuSans-30"/>
      </g>
     </g>
    </g>
    <g id="xtick_5">
     <g id="line2d_9">
      <path clip-path="url(#p3ff371f707)" d="M 343.296 307.584 
L 343.296 41.472 
" style="fill:none;stroke:#b0b0b0;stroke-linecap:square;stroke-width:0.8;"/>
     </g>
     <g id="line2d_10">
      <g>
       <use style="stroke:#000000;stroke-width:0.8;" x="343.296" xlink:href="#m30c5f5c5f1" y="307.584"/>
      </g>
     </g>
     <g id="text_5">
      <!-- 800 -->
      <defs>
       <path d="M 31.78125 34.625 
Q 24.75 34.625 20.71875 30.859375 
Q 16.703125 27.09375 16.703125 20.515625 
Q 16.703125 13.921875 20.71875 10.15625 
Q 24.75 6.390625 31.78125 6.390625 
Q 38.8125 6.390625 42.859375 10.171875 
Q 46.921875 13.96875 46.921875 20.515625 
Q 46.921875 27.09375 42.890625 30.859375 
Q 38.875 34.625 31.78125 34.625 
M 21.921875 38.8125 
Q 15.578125 40.375 12.03125 44.71875 
Q 8.5 49.078125 8.5 55.328125 
Q 8.5 64.0625 14.71875 69.140625 
Q 20.953125 74.21875 31.78125 74.21875 
Q 42.671875 74.21875 48.875 69.140625 
Q 55.078125 64.0625 55.078125 55.328125 
Q 55.078125 49.078125 51.53125 44.71875 
Q 48 40.375 41.703125 38.8125 
Q 48.828125 37.15625 52.796875 32.3125 
Q 56.78125 27.484375 56.78125 20.515625 
Q 56.78125 9.90625 50.3125 4.234375 
Q 43.84375 -1.421875 31.78125 -1.421875 
Q 19.734375 -1.421875 13.25 4.234375 
Q 6.78125 9.90625 6.78125 20.515625 
Q 6.78125 27.484375 10.78125 32.3125 
Q 14.796875 37.15625 21.921875 38.8125 
M 18.3125 54.390625 
Q 18.3125 48.734375 21.84375 45.5625 
Q 25.390625 42.390625 31.78125 42.390625 
Q 38.140625 42.390625 41.71875 45.5625 
Q 45.3125 48.734375 45.3125 54.390625 
Q 45.3125 60.0625 41.71875 63.234375 
Q 38.140625 66.40625 31.78125 66.40625 
Q 25.390625 66.40625 21.84375 63.234375 
Q 18.3125 60.0625 18.3125 54.390625 
" id="DejaVuSans-38"/>
      </defs>
      <g transform="translate(333.75225 322.182437)scale(0.1 -0.1)">
       <use xlink:href="#DejaVuSans-38"/>
       <use x="63.623047" xlink:href="#DejaVuSans-30"/>
       <use x="127.246094" xlink:href="#DejaVuSans-30"/>
      </g>
     </g>
    </g>
    <g id="xtick_6">
     <g id="line2d_11">
      <path clip-path="url(#p3ff371f707)" d="M 414.72 307.584 
L 414.72 41.472 
" style="fill:none;stroke:#b0b0b0;stroke-linecap:square;stroke-width:0.8;"/>
     </g>
     <g id="line2d_12">
      <g>
       <use style="stroke:#000000;stroke-width:0.8;" x="414.72" xlink:href="#m30c5f5c5f1" y="307.584"/>
      </g>
     </g>
     <g id="text_6">
      <!-- 1000 -->
      <defs>
       <path d="M 12.40625 8.296875 
L 28.515625 8.296875 
L 28.515625 63.921875 
L 10.984375 60.40625 
L 10.984375 69.390625 
L 28.421875 72.90625 
L 38.28125 72.90625 
L 38.28125 8.296875 
L 54.390625 8.296875 
L 54.390625 0 
L 12.40625 0 
z
" id="DejaVuSans-31"/>
      </defs>
      <g transform="translate(401.995 322.182437)scale(0.1 -0.1)">
       <use xlink:href="#DejaVuSans-31"/>
       <use x="63.623047" xlink:href="#DejaVuSans-30"/>
       <use x="127.246094" xlink:href="#DejaVuSans-30"/>
       <use x="190.869141" xlink:href="#DejaVuSans-30"/>
      </g>
     </g>
    </g>
    <g id="text_7">
     <!-- Number of clients -->
     <defs>
      <path d="M 9.8125 72.90625 
L 23.09375 72.90625 
L 55.421875 11.921875 
L 55.421875 72.90625 
L 64.984375 72.90625 
L 64.984375 0 
L 51.703125 0 
L 19.390625 60.984375 
L 19.390625 0 
L 9.8125 0 
z
" id="DejaVuSans-4e"/>
      <path d="M 8.5 21.578125 
L 8.5 54.6875 
L 17.484375 54.6875 
L 17.484375 21.921875 
Q 17.484375 14.15625 20.5 10.265625 
Q 23.53125 6.390625 29.59375 6.390625 
Q 36.859375 6.390625 41.078125 11.03125 
Q 45.3125 15.671875 45.3125 23.6875 
L 45.3125 54.6875 
L 54.296875 54.6875 
L 54.296875 0 
L 45.3125 0 
L 45.3125 8.40625 
Q 42.046875 3.421875 37.71875 1 
Q 33.40625 -1.421875 27.6875 -1.421875 
Q 18.265625 -1.421875 13.375 4.4375 
Q 8.5 10.296875 8.5 21.578125 
M 31.109375 56 
z
" id="DejaVuSans-75"/>
      <path d="M 52 44.1875 
Q 55.375 50.25 60.0625 53.125 
Q 64.75 56 71.09375 56 
Q 79.640625 56 84.28125 50.015625 
Q 88.921875 44.046875 88.921875 33.015625 
L 88.921875 0 
L 79.890625 0 
L 79.890625 32.71875 
Q 79.890625 40.578125 77.09375 44.375 
Q 74.3125 48.1875 68.609375 48.1875 
Q 61.625 48.1875 57.5625 43.546875 
Q 53.515625 38.921875 53.515625 30.90625 
L 53.515625 0 
L 44.484375 0 
L 44.484375 32.71875 
Q 44.484375 40.625 41.703125 44.40625 
Q 38.921875 48.1875 33.109375 48.1875 
Q 26.21875 48.1875 22.15625 43.53125 
Q 18.109375 38.875 18.109375 30.90625 
L 18.109375 0 
L 9.078125 0 
L 9.078125 54.6875 
L 18.109375 54.6875 
L 18.109375 46.1875 
Q 21.1875 51.21875 25.484375 53.609375 
Q 29.78125 56 35.6875 56 
Q 41.65625 56 45.828125 52.96875 
Q 50 49.953125 52 44.1875 
" id="DejaVuSans-6d"/>
      <path d="M 48.6875 27.296875 
Q 48.6875 37.203125 44.609375 42.84375 
Q 40.53125 48.484375 33.40625 48.484375 
Q 26.265625 48.484375 22.1875 42.84375 
Q 18.109375 37.203125 18.109375 27.296875 
Q 18.109375 17.390625 22.1875 11.75 
Q 26.265625 6.109375 33.40625 6.109375 
Q 40.53125 6.109375 44.609375 11.75 
Q 48.6875 17.390625 48.6875 27.296875 
M 18.109375 46.390625 
Q 20.953125 51.265625 25.265625 53.625 
Q 29.59375 56 35.59375 56 
Q 45.5625 56 51.78125 48.09375 
Q 58.015625 40.1875 58.015625 27.296875 
Q 58.015625 14.40625 51.78125 6.484375 
Q 45.5625 -1.421875 35.59375 -1.421875 
Q 29.59375 -1.421875 25.265625 0.953125 
Q 20.953125 3.328125 18.109375 8.203125 
L 18.109375 0 
L 9.078125 0 
L 9.078125 75.984375 
L 18.109375 75.984375 
z
" id="DejaVuSans-62"/>
      <path d="M 56.203125 29.59375 
L 56.203125 25.203125 
L 14.890625 25.203125 
Q 15.484375 15.921875 20.484375 11.0625 
Q 25.484375 6.203125 34.421875 6.203125 
Q 39.59375 6.203125 44.453125 7.46875 
Q 49.3125 8.734375 54.109375 11.28125 
L 54.109375 2.78125 
Q 49.265625 0.734375 44.1875 -0.34375 
Q 39.109375 -1.421875 33.890625 -1.421875 
Q 20.796875 -1.421875 13.15625 6.1875 
Q 5.515625 13.8125 5.515625 26.8125 
Q 5.515625 40.234375 12.765625 48.109375 
Q 20.015625 56 32.328125 56 
Q 43.359375 56 49.78125 48.890625 
Q 56.203125 41.796875 56.203125 29.59375 
M 47.21875 32.234375 
Q 47.125 39.59375 43.09375 43.984375 
Q 39.0625 48.390625 32.421875 48.390625 
Q 24.90625 48.390625 20.390625 44.140625 
Q 15.875 39.890625 15.1875 32.171875 
z
" id="DejaVuSans-65"/>
      <path d="M 41.109375 46.296875 
Q 39.59375 47.171875 37.8125 47.578125 
Q 36.03125 48 33.890625 48 
Q 26.265625 48 22.1875 43.046875 
Q 18.109375 38.09375 18.109375 28.8125 
L 18.109375 0 
L 9.078125 0 
L 9.078125 54.6875 
L 18.109375 54.6875 
L 18.109375 46.1875 
Q 20.953125 51.171875 25.484375 53.578125 
Q 30.03125 56 36.53125 56 
Q 37.453125 56 38.578125 55.875 
Q 39.703125 55.765625 41.0625 55.515625 
z
" id="DejaVuSans-72"/>
      <path id="DejaVuSans-20"/>
      <path d="M 30.609375 48.390625 
Q 23.390625 48.390625 19.1875 42.75 
Q 14.984375 37.109375 14.984375 27.296875 
Q 14.984375 17.484375 19.15625 11.84375 
Q 23.34375 6.203125 30.609375 6.203125 
Q 37.796875 6.203125 41.984375 11.859375 
Q 46.1875 17.53125 46.1875 27.296875 
Q 46.1875 37.015625 41.984375 42.703125 
Q 37.796875 48.390625 30.609375 48.390625 
M 30.609375 56 
Q 42.328125 56 49.015625 48.375 
Q 55.71875 40.765625 55.71875 27.296875 
Q 55.71875 13.875 49.015625 6.21875 
Q 42.328125 -1.421875 30.609375 -1.421875 
Q 18.84375 -1.421875 12.171875 6.21875 
Q 5.515625 13.875 5.515625 27.296875 
Q 5.515625 40.765625 12.171875 48.375 
Q 18.84375 56 30.609375 56 
" id="DejaVuSans-6f"/>
      <path d="M 37.109375 75.984375 
L 37.109375 68.5 
L 28.515625 68.5 
Q 23.6875 68.5 21.796875 66.546875 
Q 19.921875 64.59375 19.921875 59.515625 
L 19.921875 54.6875 
L 34.71875 54.6875 
L 34.71875 47.703125 
L 19.921875 47.703125 
L 19.921875 0 
L 10.890625 0 
L 10.890625 47.703125 
L 2.296875 47.703125 
L 2.296875 54.6875 
L 10.890625 54.6875 
L 10.890625 58.5 
Q 10.890625 67.625 15.140625 71.796875 
Q 19.390625 75.984375 28.609375 75.984375 
z
" id="DejaVuSans-66"/>
      <path d="M 48.78125 52.59375 
L 48.78125 44.1875 
Q 44.96875 46.296875 41.140625 47.34375 
Q 37.3125 48.390625 33.40625 48.390625 
Q 24.65625 48.390625 19.8125 42.84375 
Q 14.984375 37.3125 14.984375 27.296875 
Q 14.984375 17.28125 19.8125 11.734375 
Q 24.65625 6.203125 33.40625 6.203125 
Q 37.3125 6.203125 41.140625 7.25 
Q 44.96875 8.296875 48.78125 10.40625 
L 48.78125 2.09375 
Q 45.015625 0.34375 40.984375 -0.53125 
Q 36.96875 -1.421875 32.421875 -1.421875 
Q 20.0625 -1.421875 12.78125 6.34375 
Q 5.515625 14.109375 5.515625 27.296875 
Q 5.515625 40.671875 12.859375 48.328125 
Q 20.21875 56 33.015625 56 
Q 37.15625 56 41.109375 55.140625 
Q 45.0625 54.296875 48.78125 52.59375 
" id="DejaVuSans-63"/>
      <path d="M 9.421875 75.984375 
L 18.40625 75.984375 
L 18.40625 0 
L 9.421875 0 
z
" id="DejaVuSans-6c"/>
      <path d="M 9.421875 54.6875 
L 18.40625 54.6875 
L 18.40625 0 
L 9.421875 0 
z
M 9.421875 75.984375 
L 18.40625 75.984375 
L 18.40625 64.59375 
L 9.421875 64.59375 
z
" id="DejaVuSans-69"/>
      <path d="M 54.890625 33.015625 
L 54.890625 0 
L 45.90625 0 
L 45.90625 32.71875 
Q 45.90625 40.484375 42.875 44.328125 
Q 39.84375 48.1875 33.796875 48.1875 
Q 26.515625 48.1875 22.3125 43.546875 
Q 18.109375 38.921875 18.109375 30.90625 
L 18.109375 0 
L 9.078125 0 
L 9.078125 54.6875 
L 18.109375 54.6875 
L 18.109375 46.1875 
Q 21.34375 51.125 25.703125 53.5625 
Q 30.078125 56 35.796875 56 
Q 45.21875 56 50.046875 50.171875 
Q 54.890625 44.34375 54.890625 33.015625 
" id="DejaVuSans-6e"/>
      <path d="M 18.3125 70.21875 
L 18.3125 54.6875 
L 36.8125 54.6875 
L 36.8125 47.703125 
L 18.3125 47.703125 
L 18.3125 18.015625 
Q 18.3125 11.328125 20.140625 9.421875 
Q 21.96875 7.515625 27.59375 7.515625 
L 36.8125 7.515625 
L 36.8125 0 
L 27.59375 0 
Q 17.1875 0 13.234375 3.875 
Q 9.28125 7.765625 9.28125 18.015625 
L 9.28125 47.703125 
L 2.6875 47.703125 
L 2.6875 54.6875 
L 9.28125 54.6875 
L 9.28125 70.21875 
z
" id="DejaVuSans-74"/>
      <path d="M 44.28125 53.078125 
L 44.28125 44.578125 
Q 40.484375 46.53125 36.375 47.5 
Q 32.28125 48.484375 27.875 48.484375 
Q 21.1875 48.484375 17.84375 46.4375 
Q 14.5 44.390625 14.5 40.28125 
Q 14.5 37.15625 16.890625 35.375 
Q 19.28125 33.59375 26.515625 31.984375 
L 29.59375 31.296875 
Q 39.15625 29.25 43.1875 25.515625 
Q 47.21875 21.78125 47.21875 15.09375 
Q 47.21875 7.46875 41.1875 3.015625 
Q 35.15625 -1.421875 24.609375 -1.421875 
Q 20.21875 -1.421875 15.453125 -0.5625 
Q 10.6875 0.296875 5.421875 2 
L 5.421875 11.28125 
Q 10.40625 8.6875 15.234375 7.390625 
Q 20.0625 6.109375 24.8125 6.109375 
Q 31.15625 6.109375 34.5625 8.28125 
Q 37.984375 10.453125 37.984375 14.40625 
Q 37.984375 18.0625 35.515625 20.015625 
Q 33.0625 21.96875 24.703125 23.78125 
L 21.578125 24.515625 
Q 13.234375 26.265625 9.515625 29.90625 
Q 5.8125 33.546875 5.8125 39.890625 
Q 5.8125 47.609375 11.28125 51.796875 
Q 16.75 56 26.8125 56 
Q 31.78125 56 36.171875 55.265625 
Q 40.578125 54.546875 44.28125 53.078125 
" id="DejaVuSans-73"/>
     </defs>
     <g transform="translate(191.738906 335.860562)scale(0.1 -0.1)">
      <use xlink:href="#DejaVuSans-4e"/>
      <use x="74.804688" xlink:href="#DejaVuSans-75"/>
      <use x="138.183594" xlink:href="#DejaVuSans-6d"/>
      <use x="235.595703" xlink:href="#DejaVuSans-62"/>
      <use x="299.072266" xlink:href="#DejaVuSans-65"/>
      <use x="360.595703" xlink:href="#DejaVuSans-72"/>
      <use x="401.708984" xlink:href="#DejaVuSans-20"/>
      <use x="433.496094" xlink:href="#DejaVuSans-6f"/>
      <use x="494.677734" xlink:href="#DejaVuSans-66"/>
      <use x="529.882812" xlink:href="#DejaVuSans-20"/>
      <use x="561.669922" xlink:href="#DejaVuSans-63"/>
      <use x="616.650391" xlink:href="#DejaVuSans-6c"/>
      <use x="644.433594" xlink:href="#DejaVuSans-69"/>
      <use x="672.216797" xlink:href="#DejaVuSans-65"/>
      <use x="733.740234" xlink:href="#DejaVuSans-6e"/>
      <use x="797.119141" xlink:href="#DejaVuSans-74"/>
      <use x="836.328125" xlink:href="#DejaVuSans-73"/>
     </g>
    </g>
   </g>
   <g id="matplotlib.axis_2">
    <g id="ytick_1">
     <g id="line2d_13">
      <path clip-path="url(#p3ff371f707)" d="M 57.6 296.310722 
L 414.72 296.310722 
" style="fill:none;stroke:#b0b0b0;stroke-linecap:square;stroke-width:0.8;"/>
     </g>
     <g id="line2d_14">
      <defs>
       <path d="M 0 0 
L -3.5 0 
" id="m8e0372b8fb" style="stroke:#000000;stroke-width:0.8;"/>
      </defs>
      <g>
       <use style="stroke:#000000;stroke-width:0.8;" x="57.6" xlink:href="#m8e0372b8fb" y="296.310722"/>
      </g>
     </g>
     <g id="text_8">
      <!-- 0 -->
      <g transform="translate(44.2375 300.109941)scale(0.1 -0.1)">
       <use xlink:href="#DejaVuSans-30"/>
      </g>
     </g>
    </g>
    <g id="ytick_2">
     <g id="line2d_15">
      <path clip-path="url(#p3ff371f707)" d="M 57.6 253.100537 
L 414.72 253.100537 
" style="fill:none;stroke:#b0b0b0;stroke-linecap:square;stroke-width:0.8;"/>
     </g>
     <g id="line2d_16">
      <g>
       <use style="stroke:#000000;stroke-width:0.8;" x="57.6" xlink:href="#m8e0372b8fb" y="253.100537"/>
      </g>
     </g>
     <g id="text_9">
      <!-- 50 -->
      <defs>
       <path d="M 10.796875 72.90625 
L 49.515625 72.90625 
L 49.515625 64.59375 
L 19.828125 64.59375 
L 19.828125 46.734375 
Q 21.96875 47.46875 24.109375 47.828125 
Q 26.265625 48.1875 28.421875 48.1875 
Q 40.625 48.1875 47.75 41.5 
Q 54.890625 34.8125 54.890625 23.390625 
Q 54.890625 11.625 47.5625 5.09375 
Q 40.234375 -1.421875 26.90625 -1.421875 
Q 22.3125 -1.421875 17.546875 -0.640625 
Q 12.796875 0.140625 7.71875 1.703125 
L 7.71875 11.625 
Q 12.109375 9.234375 16.796875 8.0625 
Q 21.484375 6.890625 26.703125 6.890625 
Q 35.15625 6.890625 40.078125 11.328125 
Q 45.015625 15.765625 45.015625 23.390625 
Q 45.015625 31 40.078125 35.4375 
Q 35.15625 39.890625 26.703125 39.890625 
Q 22.75 39.890625 18.8125 39.015625 
Q 14.890625 38.140625 10.796875 36.28125 
z
" id="DejaVuSans-35"/>
      </defs>
      <g transform="translate(37.875 256.899755)scale(0.1 -0.1)">
       <use xlink:href="#DejaVuSans-35"/>
       <use x="63.623047" xlink:href="#DejaVuSans-30"/>
      </g>
     </g>
    </g>
    <g id="ytick_3">
     <g id="line2d_17">
      <path clip-path="url(#p3ff371f707)" d="M 57.6 209.890351 
L 414.72 209.890351 
" style="fill:none;stroke:#b0b0b0;stroke-linecap:square;stroke-width:0.8;"/>
     </g>
     <g id="line2d_18">
      <g>
       <use style="stroke:#000000;stroke-width:0.8;" x="57.6" xlink:href="#m8e0372b8fb" y="209.890351"/>
      </g>
     </g>
     <g id="text_10">
      <!-- 100 -->
      <g transform="translate(31.5125 213.68957)scale(0.1 -0.1)">
       <use xlink:href="#DejaVuSans-31"/>
       <use x="63.623047" xlink:href="#DejaVuSans-30"/>
       <use x="127.246094" xlink:href="#DejaVuSans-30"/>
      </g>
     </g>
    </g>
    <g id="ytick_4">
     <g id="line2d_19">
      <path clip-path="url(#p3ff371f707)" d="M 57.6 166.680166 
L 414.72 166.680166 
" style="fill:none;stroke:#b0b0b0;stroke-linecap:square;stroke-width:0.8;"/>
     </g>
     <g id="line2d_20">
      <g>
       <use style="stroke:#000000;stroke-width:0.8;" x="57.6" xlink:href="#m8e0372b8fb" y="166.680166"/>
      </g>
     </g>
     <g id="text_11">
      <!-- 150 -->
      <g transform="translate(31.5125 170.479385)scale(0.1 -0.1)">
       <use xlink:href="#DejaVuSans-31"/>
       <use x="63.623047" xlink:href="#DejaVuSans-35"/>
       <use x="127.246094" xlink:href="#DejaVuSans-30"/>
      </g>
     </g>
    </g>
    <g id="ytick_5">
     <g id="line2d_21">
      <path clip-path="url(#p3ff371f707)" d="M 57.6 123.469981 
L 414.72 123.469981 
" style="fill:none;stroke:#b0b0b0;stroke-linecap:square;stroke-width:0.8;"/>
     </g>
     <g id="line2d_22">
      <g>
       <use style="stroke:#000000;stroke-width:0.8;" x="57.6" xlink:href="#m8e0372b8fb" y="123.469981"/>
      </g>
     </g>
     <g id="text_12">
      <!-- 200 -->
      <g transform="translate(31.5125 127.2692)scale(0.1 -0.1)">
       <use xlink:href="#DejaVuSans-32"/>
       <use x="63.623047" xlink:href="#DejaVuSans-30"/>
       <use x="127.246094" xlink:href="#DejaVuSans-30"/>
      </g>
     </g>
    </g>
    <g id="ytick_6">
     <g id="line2d_23">
      <path clip-path="url(#p3ff371f707)" d="M 57.6 80.259796 
L 414.72 80.259796 
" style="fill:none;stroke:#b0b0b0;stroke-linecap:square;stroke-width:0.8;"/>
     </g>
     <g id="line2d_24">
      <g>
       <use style="stroke:#000000;stroke-width:0.8;" x="57.6" xlink:href="#m8e0372b8fb" y="80.259796"/>
      </g>
     </g>
     <g id="text_13">
      <!-- 250 -->
      <g transform="translate(31.5125 84.059014)scale(0.1 -0.1)">
       <use xlink:href="#DejaVuSans-32"/>
       <use x="63.623047" xlink:href="#DejaVuSans-35"/>
       <use x="127.246094" xlink:href="#DejaVuSans-30"/>
      </g>
     </g>
    </g>
    <g id="text_14">
     <!-- Successful download requests per second -->
     <defs>
      <path d="M 53.515625 70.515625 
L 53.515625 60.890625 
Q 47.90625 63.578125 42.921875 64.890625 
Q 37.9375 66.21875 33.296875 66.21875 
Q 25.25 66.21875 20.875 63.09375 
Q 16.5 59.96875 16.5 54.203125 
Q 16.5 49.359375 19.40625 46.890625 
Q 22.3125 44.4375 30.421875 42.921875 
L 36.375 41.703125 
Q 47.40625 39.59375 52.65625 34.296875 
Q 57.90625 29 57.90625 20.125 
Q 57.90625 9.515625 50.796875 4.046875 
Q 43.703125 -1.421875 29.984375 -1.421875 
Q 24.8125 -1.421875 18.96875 -0.25 
Q 13.140625 0.921875 6.890625 3.21875 
L 6.890625 13.375 
Q 12.890625 10.015625 18.65625 8.296875 
Q 24.421875 6.59375 29.984375 6.59375 
Q 38.421875 6.59375 43.015625 9.90625 
Q 47.609375 13.234375 47.609375 19.390625 
Q 47.609375 24.75 44.3125 27.78125 
Q 41.015625 30.8125 33.5 32.328125 
L 27.484375 33.5 
Q 16.453125 35.6875 11.515625 40.375 
Q 6.59375 45.0625 6.59375 53.421875 
Q 6.59375 63.09375 13.40625 68.65625 
Q 20.21875 74.21875 32.171875 74.21875 
Q 37.3125 74.21875 42.625 73.28125 
Q 47.953125 72.359375 53.515625 70.515625 
" id="DejaVuSans-53"/>
      <path d="M 45.40625 46.390625 
L 45.40625 75.984375 
L 54.390625 75.984375 
L 54.390625 0 
L 45.40625 0 
L 45.40625 8.203125 
Q 42.578125 3.328125 38.25 0.953125 
Q 33.9375 -1.421875 27.875 -1.421875 
Q 17.96875 -1.421875 11.734375 6.484375 
Q 5.515625 14.40625 5.515625 27.296875 
Q 5.515625 40.1875 11.734375 48.09375 
Q 17.96875 56 27.875 56 
Q 33.9375 56 38.25 53.625 
Q 42.578125 51.265625 45.40625 46.390625 
M 14.796875 27.296875 
Q 14.796875 17.390625 18.875 11.75 
Q 22.953125 6.109375 30.078125 6.109375 
Q 37.203125 6.109375 41.296875 11.75 
Q 45.40625 17.390625 45.40625 27.296875 
Q 45.40625 37.203125 41.296875 42.84375 
Q 37.203125 48.484375 30.078125 48.484375 
Q 22.953125 48.484375 18.875 42.84375 
Q 14.796875 37.203125 14.796875 27.296875 
" id="DejaVuSans-64"/>
      <path d="M 4.203125 54.6875 
L 13.1875 54.6875 
L 24.421875 12.015625 
L 35.59375 54.6875 
L 46.1875 54.6875 
L 57.421875 12.015625 
L 68.609375 54.6875 
L 77.59375 54.6875 
L 63.28125 0 
L 52.6875 0 
L 40.921875 44.828125 
L 29.109375 0 
L 18.5 0 
z
" id="DejaVuSans-77"/>
      <path d="M 34.28125 27.484375 
Q 23.390625 27.484375 19.1875 25 
Q 14.984375 22.515625 14.984375 16.5 
Q 14.984375 11.71875 18.140625 8.90625 
Q 21.296875 6.109375 26.703125 6.109375 
Q 34.1875 6.109375 38.703125 11.40625 
Q 43.21875 16.703125 43.21875 25.484375 
L 43.21875 27.484375 
z
M 52.203125 31.203125 
L 52.203125 0 
L 43.21875 0 
L 43.21875 8.296875 
Q 40.140625 3.328125 35.546875 0.953125 
Q 30.953125 -1.421875 24.3125 -1.421875 
Q 15.921875 -1.421875 10.953125 3.296875 
Q 6 8.015625 6 15.921875 
Q 6 25.140625 12.171875 29.828125 
Q 18.359375 34.515625 30.609375 34.515625 
L 43.21875 34.515625 
L 43.21875 35.40625 
Q 43.21875 41.609375 39.140625 45 
Q 35.0625 48.390625 27.6875 48.390625 
Q 23 48.390625 18.546875 47.265625 
Q 14.109375 46.140625 10.015625 43.890625 
L 10.015625 52.203125 
Q 14.9375 54.109375 19.578125 55.046875 
Q 24.21875 56 28.609375 56 
Q 40.484375 56 46.34375 49.84375 
Q 52.203125 43.703125 52.203125 31.203125 
" id="DejaVuSans-61"/>
      <path d="M 14.796875 27.296875 
Q 14.796875 17.390625 18.875 11.75 
Q 22.953125 6.109375 30.078125 6.109375 
Q 37.203125 6.109375 41.296875 11.75 
Q 45.40625 17.390625 45.40625 27.296875 
Q 45.40625 37.203125 41.296875 42.84375 
Q 37.203125 48.484375 30.078125 48.484375 
Q 22.953125 48.484375 18.875 42.84375 
Q 14.796875 37.203125 14.796875 27.296875 
M 45.40625 8.203125 
Q 42.578125 3.328125 38.25 0.953125 
Q 33.9375 -1.421875 27.875 -1.421875 
Q 17.96875 -1.421875 11.734375 6.484375 
Q 5.515625 14.40625 5.515625 27.296875 
Q 5.515625 40.1875 11.734375 48.09375 
Q 17.96875 56 27.875 56 
Q 33.9375 56 38.25 53.625 
Q 42.578125 51.265625 45.40625 46.390625 
L 45.40625 54.6875 
L 54.390625 54.6875 
L 54.390625 -20.796875 
L 45.40625 -20.796875 
z
" id="DejaVuSans-71"/>
      <path d="M 18.109375 8.203125 
L 18.109375 -20.796875 
L 9.078125 -20.796875 
L 9.078125 54.6875 
L 18.109375 54.6875 
L 18.109375 46.390625 
Q 20.953125 51.265625 25.265625 53.625 
Q 29.59375 56 35.59375 56 
Q 45.5625 56 51.78125 48.09375 
Q 58.015625 40.1875 58.015625 27.296875 
Q 58.015625 14.40625 51.78125 6.484375 
Q 45.5625 -1.421875 35.59375 -1.421875 
Q 29.59375 -1.421875 25.265625 0.953125 
Q 20.953125 3.328125 18.109375 8.203125 
M 48.6875 27.296875 
Q 48.6875 37.203125 44.609375 42.84375 
Q 40.53125 48.484375 33.40625 48.484375 
Q 26.265625 48.484375 22.1875 42.84375 
Q 18.109375 37.203125 18.109375 27.296875 
Q 18.109375 17.390625 22.1875 11.75 
Q 26.265625 6.109375 33.40625 6.109375 
Q 40.53125 6.109375 44.609375 11.75 
Q 48.6875 17.390625 48.6875 27.296875 
" id="DejaVuSans-70"/>
     </defs>
     <g transform="translate(25.432812 279.366281)rotate(-90)scale(0.1 -0.1)">
      <use xlink:href="#DejaVuSans-53"/>
      <use x="63.476562" xlink:href="#DejaVuSans-75"/>
      <use x="126.855469" xlink:href="#DejaVuSans-63"/>
      <use x="181.835938" xlink:href="#DejaVuSans-63"/>
      <use x="236.816406" xlink:href="#DejaVuSans-65"/>
      <use x="298.339844" xlink:href="#DejaVuSans-73"/>
      <use x="350.439453" xlink:href="#DejaVuSans-73"/>
      <use x="402.539062" xlink:href="#DejaVuSans-66"/>
      <use x="437.744141" xlink:href="#DejaVuSans-75"/>
      <use x="501.123047" xlink:href="#DejaVuSans-6c"/>
      <use x="528.90625" xlink:href="#DejaVuSans-20"/>
      <use x="560.693359" xlink:href="#DejaVuSans-64"/>
      <use x="624.169922" xlink:href="#DejaVuSans-6f"/>
      <use x="685.351562" xlink:href="#DejaVuSans-77"/>
      <use x="767.138672" xlink:href="#DejaVuSans-6e"/>
      <use x="830.517578" xlink:href="#DejaVuSans-6c"/>
      <use x="858.300781" xlink:href="#DejaVuSans-6f"/>
      <use x="919.482422" xlink:href="#DejaVuSans-61"/>
      <use x="980.761719" xlink:href="#DejaVuSans-64"/>
      <use x="1044.238281" xlink:href="#DejaVuSans-20"/>
      <use x="1076.025391" xlink:href="#DejaVuSans-72"/>
      <use x="1117.107422" xlink:href="#DejaVuSans-65"/>
      <use x="1178.630859" xlink:href="#DejaVuSans-71"/>
      <use x="1242.107422" xlink:href="#DejaVuSans-75"/>
      <use x="1305.486328" xlink:href="#DejaVuSans-65"/>
      <use x="1367.009766" xlink:href="#DejaVuSans-73"/>
      <use x="1419.109375" xlink:href="#DejaVuSans-74"/>
      <use x="1458.318359" xlink:href="#DejaVuSans-73"/>
      <use x="1510.417969" xlink:href="#DejaVuSans-20"/>
      <use x="1542.205078" xlink:href="#DejaVuSans-70"/>
      <use x="1605.681641" xlink:href="#DejaVuSans-65"/>
      <use x="1667.205078" xlink:href="#DejaVuSans-72"/>
      <use x="1708.318359" xlink:href="#DejaVuSans-20"/>
      <use x="1740.105469" xlink:href="#DejaVuSans-73"/>
      <use x="1792.205078" xlink:href="#DejaVuSans-65"/>
      <use x="1853.728516" xlink:href="#DejaVuSans-63"/>
      <use x="1908.708984" xlink:href="#DejaVuSans-6f"/>
      <use x="1969.890625" xlink:href="#DejaVuSans-6e"/>
      <use x="2033.269531" xlink:href="#DejaVuSans-64"/>
     </g>
    </g>
   </g>
   <g id="line2d_25">
    <path clip-path="url(#p3ff371f707)" d="M 57.6 295.482815 
L 57.95712 295.488 
L 59.74272 291.372662 
L 60.45696 289.445488 
L 60.81408 289.069559 
L 62.24256 285.394965 
L 62.59968 284.808171 
L 63.31392 282.746181 
L 63.67104 282.415191 
L 64.38528 280.30999 
L 64.7424 279.220229 
L 65.09952 279.355045 
L 65.45664 278.298988 
L 65.81376 277.758861 
L 66.17088 276.985399 
L 66.528 274.870692 
L 66.88512 274.967483 
L 67.24224 273.40846 
L 67.59936 273.70661 
L 69.02784 269.304356 
L 69.38496 267.889655 
L 69.74208 268.39435 
L 70.0992 266.260631 
L 70.45632 266.682362 
L 70.81344 264.8563 
L 71.17056 265.399884 
L 71.52768 264.352469 
L 71.8848 262.838384 
L 72.24192 262.988755 
L 72.59904 261.744302 
L 72.95616 261.493683 
L 73.31328 260.873185 
L 73.6704 258.467242 
L 74.02752 258.861319 
L 74.38464 258.101684 
L 75.09888 255.909199 
L 75.456 255.163391 
L 75.81312 252.584607 
L 76.17024 253.744368 
L 76.52736 252.870658 
L 76.88448 252.613126 
L 77.2416 250.799162 
L 77.59872 249.886563 
L 77.95584 247.792598 
L 78.31296 249.253102 
L 78.67008 246.696787 
L 79.0272 247.137531 
L 79.38432 244.487018 
L 79.74144 243.896767 
L 80.09856 243.588246 
L 80.45568 244.284795 
L 80.8128 240.36131 
L 81.16992 242.730956 
L 81.52704 238.972534 
L 81.88416 238.684755 
L 82.24128 239.326858 
L 82.5984 239.572292 
L 83.31264 234.589293 
L 83.66976 236.491406 
L 84.02688 234.333489 
L 84.384 234.943617 
L 84.74112 232.975825 
L 85.09824 230.111854 
L 85.45536 232.899775 
L 85.81248 229.821481 
L 86.1696 231.462604 
L 86.52672 226.378494 
L 86.88384 227.32134 
L 87.24096 228.623695 
L 87.59808 225.7096 
L 87.9552 226.637755 
L 88.31232 222.29081 
L 88.66944 221.772288 
L 89.02656 222.981309 
L 89.38368 223.606993 
L 89.7408 220.634132 
L 90.09792 222.556985 
L 90.45504 217.822877 
L 90.81216 220.378328 
L 91.16928 218.396708 
L 91.5264 215.452366 
L 91.88352 215.977802 
L 92.59776 211.8616 
L 92.95488 216.084964 
L 93.312 215.776443 
L 93.66912 210.303441 
L 94.02624 209.735659 
L 94.38336 212.730989 
L 94.74048 209.516151 
L 95.0976 209.304421 
L 95.45472 204.916859 
L 95.81184 204.902168 
L 96.16896 205.439702 
L 96.52608 208.501576 
L 96.8832 203.477096 
L 97.24032 203.076969 
L 97.59744 200.9493 
L 97.95456 204.432041 
L 98.31168 202.743387 
L 98.6688 203.522034 
L 99.02592 199.340153 
L 99.38304 199.00657 
L 99.74016 197.382731 
L 100.09728 200.561272 
L 100.4544 199.016076 
L 100.81152 193.308875 
L 101.52576 198.427553 
L 101.88288 197.309274 
L 102.24 193.518876 
L 102.59712 193.867151 
L 102.95424 196.738899 
L 103.31136 191.275404 
L 103.66848 191.872568 
L 104.0256 192.90702 
L 104.38272 190.42762 
L 104.73984 190.260828 
L 105.09696 188.592051 
L 105.45408 193.921595 
L 105.8112 190.021444 
L 106.52544 187.990565 
L 106.88256 191.125896 
L 107.23968 186.623395 
L 107.5968 187.550686 
L 107.95392 191.614171 
L 108.31104 191.624542 
L 108.66816 188.940325 
L 109.02528 189.090697 
L 109.3824 187.904145 
L 109.73952 184.37128 
L 110.09664 189.982555 
L 110.45376 184.529429 
L 110.81088 184.374737 
L 111.168 184.478441 
L 111.52512 188.064887 
L 111.88224 182.73275 
L 112.23936 183.949549 
L 112.59648 181.019898 
L 112.9536 185.292521 
L 113.31072 185.681413 
L 113.66784 186.613889 
L 114.02496 182.187437 
L 114.38208 187.02525 
L 114.7392 185.901785 
L 115.09632 179.166181 
L 115.45344 184.17597 
L 115.81056 180.793477 
L 116.16768 181.076936 
L 116.5248 180.738168 
L 116.88192 179.998409 
L 117.23904 180.509154 
L 117.59616 183.162259 
L 117.95328 179.081489 
L 118.3104 182.698182 
L 118.66752 180.805576 
L 119.02464 177.230365 
L 119.38176 181.849534 
L 119.73888 179.974212 
L 120.096 177.174192 
L 120.45312 177.438638 
L 120.81024 179.548159 
L 121.16736 175.259116 
L 121.52448 180.217053 
L 121.8816 174.681828 
L 122.23872 180.492734 
L 122.59584 173.85565 
L 122.95296 176.465545 
L 123.31008 172.655271 
L 123.6672 177.999506 
L 124.02432 179.342479 
L 124.38144 173.570462 
L 124.73856 172.749469 
L 125.09568 174.184911 
L 125.4528 173.872069 
L 125.80992 177.66938 
L 126.16704 177.438638 
L 126.52416 170.97958 
L 126.88128 169.482779 
L 127.2384 174.928991 
L 127.59552 176.371347 
L 127.95264 174.089849 
L 128.30976 168.421537 
L 128.66688 172.418479 
L 129.024 170.364267 
L 129.38112 166.98523 
L 129.73824 172.760703 
L 130.09536 170.161179 
L 130.45248 168.577957 
L 130.8096 168.750798 
L 131.16672 166.619672 
L 131.52384 173.606759 
L 131.88096 169.312531 
L 132.23808 169.17253 
L 132.5952 172.230082 
L 132.95232 169.434383 
L 133.30944 164.926697 
L 133.66656 171.187853 
L 134.02368 169.611545 
L 134.3808 168.620303 
L 134.73792 162.891497 
L 135.09504 163.155079 
L 135.45216 164.682991 
L 135.80928 164.265581 
L 136.1664 168.451784 
L 136.52352 168.403388 
L 136.88064 163.841257 
L 137.23776 163.236314 
L 137.59488 163.449773 
L 137.952 160.498517 
L 138.30912 165.997445 
L 138.66624 163.157672 
L 139.02336 162.525939 
L 139.38048 164.77719 
L 139.7376 159.120976 
L 140.09472 166.761401 
L 140.45184 166.234237 
L 140.80896 163.963974 
L 141.16608 164.965586 
L 141.5232 166.770043 
L 141.88032 162.837052 
L 142.23744 162.257172 
L 142.59456 158.481466 
L 142.95168 163.601008 
L 143.3088 157.229234 
L 143.66592 165.658677 
L 144.02304 157.135036 
L 144.38016 157.681213 
L 144.73728 157.994055 
L 145.0944 159.446781 
L 145.45152 155.873299 
L 145.80864 163.613107 
L 146.16576 158.953321 
L 146.52288 159.058754 
L 146.88 160.443208 
L 147.23712 155.569099 
L 147.59424 157.495409 
L 147.95136 161.70581 
L 148.30848 153.488961 
L 148.6656 162.527667 
L 149.37984 156.0133 
L 149.73696 157.725287 
L 150.09408 158.584306 
L 150.4512 151.699195 
L 150.80832 157.824671 
L 151.16544 154.967613 
L 151.52256 150.819436 
L 151.87968 159.242829 
L 152.2368 160.416418 
L 152.59392 153.127724 
L 153.30816 158.974926 
L 153.66528 152.516732 
L 154.0224 149.203375 
L 154.37952 150.462519 
L 154.73664 156.613921 
L 155.09376 150.96635 
L 155.45088 149.573254 
L 155.808 151.000918 
L 156.52224 157.257753 
L 156.87936 149.665724 
L 157.23648 154.804279 
L 157.5936 153.976372 
L 157.95072 146.819901 
L 158.30784 154.66687 
L 158.66496 150.329432 
L 159.02208 154.018718 
L 159.3792 148.594975 
L 159.73632 146.396441 
L 160.09344 150.469433 
L 160.45056 150.39684 
L 160.80768 148.459295 
L 161.1648 145.126926 
L 161.52192 153.254762 
L 161.87904 152.721548 
L 162.59328 154.310819 
L 162.9504 151.727714 
L 163.30752 145.648905 
L 163.66464 152.523645 
L 164.02176 152.055247 
L 164.37888 143.268024 
L 164.736 148.696087 
L 165.09312 146.833728 
L 165.45024 152.219446 
L 165.80736 150.671657 
L 166.16448 151.394131 
L 166.5216 145.378409 
L 166.87872 144.881492 
L 167.23584 141.993323 
L 167.59296 148.304603 
L 167.95008 146.156192 
L 168.3072 140.883686 
L 168.66432 144.500378 
L 169.02144 143.698397 
L 169.37856 146.870889 
L 169.73568 141.114428 
L 170.0928 150.377827 
L 170.44992 143.414074 
L 170.80704 143.204937 
L 171.16416 148.111021 
L 171.52128 142.56629 
L 171.8784 147.839661 
L 172.23552 149.110041 
L 172.59264 145.66446 
L 172.94976 147.548425 
L 173.30688 144.448526 
L 173.664 140.008247 
L 174.02112 146.53817 
L 174.73536 138.626385 
L 175.09248 141.817026 
L 175.4496 137.136498 
L 175.80672 138.978981 
L 176.16384 136.103775 
L 176.87808 137.801935 
L 177.2352 141.562085 
L 177.59232 136.908349 
L 177.94944 138.284161 
L 178.30656 145.021493 
L 178.66368 137.166745 
L 179.0208 138.459594 
L 179.73504 142.375301 
L 180.09216 136.495259 
L 180.44928 134.154131 
L 180.8064 134.452282 
L 181.16352 141.770359 
L 181.52064 142.845428 
L 181.87776 142.608636 
L 182.23488 140.506029 
L 182.592 132.585602 
L 182.94912 143.552347 
L 183.30624 135.458215 
L 183.66336 143.338024 
L 184.02048 137.438105 
L 184.3776 142.329498 
L 184.73472 135.100434 
L 185.09184 141.007267 
L 185.44896 136.746742 
L 185.80608 135.454758 
L 186.1632 131.029171 
L 186.52032 137.890084 
L 186.87744 138.89861 
L 187.23456 138.850214 
L 187.9488 136.587729 
L 188.30592 138.395643 
L 188.66304 131.571026 
L 189.02016 138.000702 
L 189.37728 140.29862 
L 189.7344 130.89954 
L 190.09152 140.227755 
L 190.44864 134.840309 
L 191.16288 129.286072 
L 191.52 128.11594 
L 192.23424 135.564512 
L 192.59136 132.754986 
L 192.94848 132.770541 
L 193.3056 132.988321 
L 193.66272 131.106949 
L 194.01984 135.8376 
L 194.37696 138.023171 
L 194.73408 130.120893 
L 195.0912 136.595507 
L 195.44832 136.821928 
L 195.80544 130.901269 
L 196.16256 128.662117 
L 196.51968 128.872118 
L 196.8768 133.286471 
L 197.23392 132.016091 
L 197.59104 126.231112 
L 197.94816 129.769162 
L 198.30528 126.12395 
L 198.6624 133.029802 
L 199.01952 128.863476 
L 199.37664 134.315737 
L 200.09088 124.211468 
L 200.448 131.140653 
L 200.80512 134.354627 
L 201.16224 124.919251 
L 201.51936 126.944944 
L 201.87648 123.95912 
L 202.2336 134.720185 
L 202.59072 125.310735 
L 202.94784 122.961829 
L 203.30496 122.206515 
L 203.66208 121.99997 
L 204.0192 130.578921 
L 204.37632 132.888073 
L 205.09056 122.878866 
L 205.44768 130.953985 
L 205.8048 126.743585 
L 206.16192 132.983999 
L 206.51904 131.647076 
L 206.87616 121.393299 
L 207.23328 130.014596 
L 207.5904 128.031248 
L 207.94752 129.563481 
L 208.30464 129.109774 
L 208.66176 121.281817 
L 209.01888 123.049114 
L 209.376 125.837035 
L 209.73312 129.49953 
L 210.09024 126.450619 
L 210.44736 128.045075 
L 210.80448 130.241017 
L 211.1616 128.058038 
L 211.51872 120.885148 
L 211.87584 122.85726 
L 212.23296 122.273923 
L 212.59008 129.951509 
L 212.9472 127.923223 
L 213.30432 129.748421 
L 213.66144 125.123203 
L 214.01856 122.146021 
L 214.37568 121.461571 
L 214.7328 125.111968 
L 215.08992 122.228984 
L 215.44704 125.207895 
L 215.80416 124.94172 
L 216.16128 127.348527 
L 216.5184 123.626402 
L 216.87552 125.507773 
L 217.23264 118.957973 
L 217.58976 125.33234 
L 217.94688 122.762198 
L 218.304 123.231461 
L 219.01824 117.67031 
L 219.37536 120.782307 
L 219.73248 119.955264 
L 220.0896 121.508238 
L 220.44672 119.458347 
L 220.80384 123.349857 
L 221.16096 120.008845 
L 221.51808 118.541427 
L 221.8752 114.451151 
L 222.23232 123.613439 
L 222.58944 117.9192 
L 222.94656 119.127357 
L 223.30368 122.107996 
L 223.6608 119.276 
L 224.01792 125.502588 
L 224.37504 122.438122 
L 224.73216 113.885098 
L 225.08928 123.744798 
L 225.4464 117.642655 
L 225.80352 115.724987 
L 226.16064 121.259348 
L 226.51776 119.290692 
L 226.87488 119.506743 
L 227.232 112.121258 
L 227.58912 121.392435 
L 227.94624 121.858241 
L 228.66048 120.962062 
L 229.0176 113.082252 
L 229.37472 117.79994 
L 229.73184 112.653607 
L 230.08896 114.772635 
L 230.44608 114.6914 
L 230.8032 120.825518 
L 231.16032 111.877552 
L 231.51744 110.474086 
L 231.87456 119.473039 
L 232.23168 109.691981 
L 232.5888 118.352167 
L 232.94592 121.293916 
L 233.30304 110.204454 
L 233.66016 111.647674 
L 234.01728 120.943913 
L 234.3744 113.790899 
L 234.73152 119.692547 
L 235.08864 109.061977 
L 235.44576 116.131163 
L 235.80288 115.634246 
L 236.16 110.671124 
L 236.51712 113.528181 
L 236.87424 107.789005 
L 237.58848 120.035635 
L 237.9456 113.161759 
L 238.30272 118.835256 
L 239.01696 111.836935 
L 239.37408 117.270184 
L 239.7312 111.87496 
L 240.08832 114.546213 
L 240.44544 115.794988 
L 240.80256 107.104555 
L 241.15968 110.554457 
L 241.5168 118.206116 
L 241.87392 110.328035 
L 242.23104 108.061229 
L 242.58816 107.250606 
L 242.94528 111.238042 
L 243.3024 112.132492 
L 244.01664 109.952107 
L 244.37376 104.745279 
L 244.73088 105.410716 
L 245.088 112.433235 
L 245.44512 109.428399 
L 245.80224 107.605793 
L 246.15936 109.599511 
L 246.51648 112.839411 
L 246.8736 105.421951 
L 247.23072 115.898692 
L 247.58784 106.376032 
L 247.94496 113.145339 
L 248.30208 111.346067 
L 248.6592 114.712141 
L 249.01632 105.284542 
L 249.37344 114.152137 
L 249.73056 105.051207 
L 250.08768 109.361855 
L 250.4448 110.807668 
L 250.80192 102.639215 
L 251.15904 104.273424 
L 251.51616 113.781393 
L 251.87328 101.953901 
L 252.2304 114.452015 
L 252.58752 108.295428 
L 252.94464 113.67596 
L 253.30176 109.345436 
L 253.65888 101.270316 
L 254.016 103.039341 
L 254.37312 107.101963 
L 254.73024 107.547028 
L 255.08736 102.374768 
L 255.44448 100.343026 
L 255.8016 106.548872 
L 256.15872 105.86788 
L 256.51584 104.565525 
L 256.87296 113.020894 
L 257.23008 102.343657 
L 257.5872 111.638168 
L 257.94432 105.241332 
L 258.30144 112.104838 
L 258.65856 101.993655 
L 259.01568 110.636556 
L 259.72992 102.583042 
L 260.08704 99.109807 
L 260.44416 98.533383 
L 260.80128 109.454325 
L 261.1584 100.949697 
L 261.51552 100.540928 
L 261.87264 106.490971 
L 262.22976 98.622396 
L 262.58688 108.285922 
L 262.944 107.198754 
L 263.30112 108.119995 
L 263.65824 107.548756 
L 264.01536 97.11436 
L 264.37248 97.179176 
L 264.7296 101.915876 
L 265.08672 96.525838 
L 265.44384 99.083881 
L 265.80096 98.408938 
L 266.15808 100.116604 
L 266.5152 103.188848 
L 266.87232 101.139821 
L 267.22944 106.19887 
L 267.58656 104.514537 
L 267.94368 101.956494 
L 268.3008 96.227687 
L 269.01504 95.16731 
L 269.37216 99.777836 
L 269.72928 99.723391 
L 270.0864 105.007133 
L 270.44352 99.387216 
L 270.80064 107.380236 
L 271.15776 99.420056 
L 271.51488 94.155327 
L 271.872 105.094418 
L 272.22912 98.082269 
L 272.58624 103.122305 
L 272.94336 102.262422 
L 273.30048 102.581313 
L 273.6576 96.916458 
L 274.01472 93.619521 
L 274.72896 106.896282 
L 275.08608 96.675345 
L 275.4432 95.011753 
L 275.80032 96.613122 
L 276.15744 103.028971 
L 276.51456 106.023436 
L 276.87168 98.144491 
L 277.2288 94.847554 
L 277.58592 100.534879 
L 277.94304 97.264732 
L 278.30016 105.826398 
L 279.0144 96.886211 
L 279.37152 102.865636 
L 279.72864 105.362321 
L 280.08576 99.800306 
L 280.44288 102.298719 
L 280.8 94.094833 
L 281.15712 91.35185 
L 281.51424 101.991062 
L 281.87136 98.631038 
L 282.22848 98.988818 
L 282.5856 101.122537 
L 282.94272 100.183148 
L 283.29984 100.976487 
L 283.65696 102.89934 
L 284.01408 99.153017 
L 284.3712 103.538851 
L 284.72832 98.86178 
L 285.08544 89.325293 
L 285.44256 98.730421 
L 285.79968 93.985943 
L 286.1568 99.297339 
L 286.51392 99.835738 
L 286.87104 91.435678 
L 287.22816 92.101115 
L 287.58528 95.562251 
L 287.9424 94.35323 
L 288.29952 90.302707 
L 288.65664 93.229765 
L 289.01376 89.436775 
L 289.37088 94.381748 
L 289.728 94.557182 
L 290.08512 91.241232 
L 290.44224 89.238008 
L 290.79936 95.96497 
L 291.15648 97.182633 
L 291.5136 87.798245 
L 291.87072 96.823124 
L 292.22784 89.921593 
L 292.58496 94.454341 
L 292.94208 94.061129 
L 293.2992 98.044244 
L 293.65632 100.386236 
L 294.01344 93.262605 
L 294.37056 96.825716 
L 294.72768 91.605926 
L 295.0848 92.624822 
L 295.44192 95.576078 
L 295.79904 97.543006 
L 296.15616 98.272393 
L 296.8704 89.161094 
L 297.22752 99.153881 
L 297.58464 98.364863 
L 298.29888 84.897977 
L 298.656 89.609616 
L 299.01312 86.635026 
L 299.37024 85.260078 
L 299.72736 87.013548 
L 300.08448 85.814897 
L 300.4416 97.893008 
L 300.79872 93.950511 
L 301.15584 91.327652 
L 301.51296 83.927476 
L 301.87008 97.072879 
L 302.2272 86.838978 
L 302.58432 90.361473 
L 302.94144 97.420289 
L 303.65568 85.356869 
L 304.0128 85.273041 
L 304.36992 92.315437 
L 304.72704 93.492483 
L 305.08416 95.312496 
L 305.44128 89.145538 
L 305.7984 95.907068 
L 306.15552 82.887839 
L 306.51264 93.94014 
L 306.86976 90.428881 
L 307.584 91.276664 
L 308.29824 82.705492 
L 308.65536 93.538286 
L 309.01248 91.521234 
L 309.3696 85.709464 
L 309.72672 81.729806 
L 310.08384 90.19036 
L 310.44096 84.218713 
L 310.79808 88.754054 
L 311.1552 89.022821 
L 311.51232 87.269352 
L 311.86944 90.303571 
L 312.22656 83.063272 
L 312.58368 93.17532 
L 312.9408 84.658592 
L 313.29792 90.892094 
L 313.65504 84.773532 
L 314.01216 83.604264 
L 314.36928 93.72841 
L 314.7264 87.421452 
L 315.08352 84.795137 
L 315.44064 89.880111 
L 315.79776 89.593196 
L 316.15488 82.74006 
L 316.512 84.532419 
L 316.86912 81.047085 
L 317.22624 88.275285 
L 317.58336 81.636472 
L 317.94048 91.874693 
L 318.2976 90.171348 
L 318.65472 89.182699 
L 319.01184 92.177165 
L 319.36896 82.440182 
L 319.72608 82.318329 
L 320.0832 79.552013 
L 320.44032 87.181203 
L 320.79744 84.108959 
L 321.15456 84.279207 
L 321.51168 77.635209 
L 321.8688 89.78332 
L 322.22592 87.24429 
L 322.58304 90.024433 
L 322.94016 87.498366 
L 323.6544 83.990563 
L 324.01152 87.174289 
L 324.36864 87.763676 
L 324.72576 83.462535 
L 325.08288 89.868877 
L 325.44 80.930418 
L 325.79712 78.005952 
L 326.15424 86.052553 
L 326.51136 80.677206 
L 326.86848 81.745362 
L 327.2256 83.941303 
L 327.58272 91.158269 
L 327.93984 90.05468 
L 328.29696 78.71892 
L 328.65408 76.371743 
L 329.0112 87.111203 
L 329.36832 86.809596 
L 329.72544 89.667517 
L 330.08256 89.739246 
L 330.43968 89.252699 
L 330.7968 79.927077 
L 331.15392 84.726865 
L 331.51104 77.795951 
L 331.86816 88.207013 
L 332.22528 87.641824 
L 332.5824 80.718688 
L 332.93952 88.533682 
L 333.29664 82.195612 
L 333.65376 80.351401 
L 334.01088 88.567386 
L 334.368 75.83248 
L 334.72512 88.153432 
L 335.08224 83.954266 
L 335.43936 73.494809 
L 335.79648 75.638898 
L 336.1536 80.361772 
L 336.51072 75.870505 
L 336.86784 86.789719 
L 337.22496 83.814265 
L 337.58208 82.855864 
L 337.9392 78.858921 
L 338.29632 83.018334 
L 338.65344 80.334981 
L 339.01056 87.91664 
L 339.36768 81.437705 
L 339.7248 84.948101 
L 340.08192 77.09681 
L 340.43904 85.006002 
L 340.79616 73.251104 
L 341.15328 78.132126 
L 341.5104 86.918485 
L 341.86752 86.005022 
L 342.22464 76.433102 
L 342.58176 77.609283 
L 342.93888 80.897578 
L 343.296 86.080208 
L 343.65312 75.798776 
L 344.01024 82.893024 
L 344.36736 83.318213 
L 344.72448 75.6268 
L 345.0816 76.760635 
L 345.43872 75.318279 
L 345.79584 72.389492 
L 346.15296 71.450967 
L 346.51008 85.38798 
L 347.22432 81.620052 
L 347.58144 79.052503 
L 347.93856 78.544351 
L 348.29568 77.083847 
L 348.6528 78.399165 
L 349.00992 85.177115 
L 349.36704 83.051174 
L 349.72416 83.639696 
L 350.08128 73.166412 
L 350.4384 72.527765 
L 350.79552 73.686662 
L 351.15264 78.52361 
L 351.50976 76.692363 
L 351.86688 83.637968 
L 352.224 81.186222 
L 352.58112 80.15177 
L 352.93824 69.593794 
L 353.29536 76.245569 
L 353.65248 72.797397 
L 354.0096 73.084312 
L 354.36672 78.836452 
L 354.72384 77.191872 
L 355.08096 68.300945 
L 355.43808 77.674962 
L 355.7952 82.0945 
L 356.15232 73.035053 
L 356.50944 78.546944 
L 357.22368 77.638666 
L 357.5808 68.883418 
L 357.93792 73.215671 
L 358.29504 75.12729 
L 359.00928 67.467852 
L 359.3664 71.662697 
L 359.72352 69.975772 
L 360.08064 75.366674 
L 360.79488 69.769227 
L 361.152 69.786511 
L 361.50912 67.645014 
L 361.86624 77.512492 
L 362.22336 73.356536 
L 362.58048 78.652377 
L 362.9376 73.460241 
L 363.29472 80.409303 
L 363.65184 74.227654 
L 364.00896 79.469049 
L 364.36608 77.681012 
L 364.7232 76.992241 
L 365.08032 69.392434 
L 365.43744 77.765704 
L 365.79456 66.596735 
L 366.15168 76.029519 
L 366.5088 73.166412 
L 366.86592 78.750896 
L 367.22304 65.796482 
L 367.58016 77.143477 
L 367.93728 74.309753 
L 368.2944 72.481098 
L 368.65152 78.580648 
L 369.00864 65.908829 
L 369.36576 75.248278 
L 369.72288 68.731318 
L 370.08 72.007514 
L 370.79424 64.951291 
L 371.15136 73.315919 
L 371.50848 73.568266 
L 371.8656 71.635043 
L 372.22272 69.080457 
L 372.57984 74.163703 
L 372.93696 68.228352 
L 373.29408 73.315055 
L 373.6512 66.639081 
L 374.36544 73.079127 
L 374.72256 73.334067 
L 375.07968 72.14838 
L 375.4368 78.347313 
L 375.79392 70.429478 
L 376.15104 77.550517 
L 376.50816 63.397453 
L 376.86528 62.157321 
L 377.2224 77.339651 
L 377.57952 68.209339 
L 377.93664 74.917288 
L 378.29376 67.339086 
L 378.65088 75.317415 
L 379.008 71.071582 
L 379.36512 73.054929 
L 379.72224 62.207444 
L 380.07936 71.711957 
L 380.43648 70.273922 
L 380.7936 69.378607 
L 381.15072 72.931348 
L 381.50784 66.15167 
L 381.86496 68.403785 
L 382.22208 61.567069 
L 382.5792 62.383742 
L 382.93632 73.009127 
L 383.29344 65.88636 
L 383.65056 65.433517 
L 384.00768 66.00562 
L 384.3648 68.298352 
L 384.72192 62.122752 
L 385.07904 73.285672 
L 385.43616 64.475115 
L 385.79328 61.58781 
L 386.1504 61.74596 
L 386.50752 69.463299 
L 386.86464 62.794239 
L 387.22176 74.415186 
L 387.57888 59.960515 
L 387.936 75.77285 
L 388.29312 61.690651 
L 388.65024 71.602203 
L 389.00736 75.405563 
L 389.36448 59.844712 
L 389.7216 64.145853 
L 390.07872 66.104139 
L 390.43584 66.832663 
L 390.79296 74.772102 
L 391.15008 70.424293 
L 391.5072 73.571723 
L 391.86432 58.203589 
L 392.22144 66.668464 
L 392.57856 67.266493 
L 392.93568 71.285904 
L 393.2928 65.893273 
L 393.64992 64.571042 
L 394.00704 61.828923 
L 394.36416 70.147748 
L 394.72128 58.94594 
L 395.0784 65.681543 
L 395.43552 64.04042 
L 395.79264 61.058918 
L 396.14976 64.152767 
L 396.50688 61.437439 
L 396.864 71.270349 
L 397.22112 71.438868 
L 397.57824 67.147233 
L 397.93536 73.051473 
L 398.29248 69.244655 
L 398.6496 60.583606 
L 399.00672 58.314207 
L 399.36384 69.667251 
L 399.72096 61.68633 
L 400.07808 62.038061 
L 400.4352 63.97042 
L 400.79232 66.746242 
L 401.14944 68.14366 
L 401.50656 66.629575 
L 401.86368 71.666154 
L 402.2208 67.154146 
L 402.57792 60.969905 
L 403.29216 56.837283 
L 403.64928 69.168605 
L 404.0064 64.800056 
L 404.36352 65.729939 
L 404.72064 60.714965 
L 405.43488 67.45921 
L 405.792 62.338803 
L 406.14912 70.610961 
L 406.50624 59.989034 
L 406.86336 67.098837 
L 407.22048 67.745262 
L 407.5776 63.93758 
L 407.93472 61.516946 
L 408.29184 71.044792 
L 408.64896 55.992091 
L 409.00608 69.935154 
L 409.3632 54.753687 
L 409.72032 58.317664 
L 410.07744 56.111352 
L 410.43456 58.914828 
L 410.79168 63.317082 
L 411.1488 54.702699 
L 411.50592 64.87092 
L 411.86304 66.40661 
L 412.22016 54.43134 
L 412.57728 63.879679 
L 413.29152 54.910973 
L 413.64864 64.931415 
L 414.00576 63.146834 
L 414.36288 53.568 
L 414.72 59.999404 
L 414.72 59.999404 
" style="fill:none;stroke:#000080;stroke-linecap:square;stroke-width:0.5;"/>
   </g>
   <g id="patch_3">
    <path d="M 57.6 307.584 
L 57.6 41.472 
" style="fill:none;stroke:#000000;stroke-linecap:square;stroke-linejoin:miter;stroke-width:0.8;"/>
   </g>
   <g id="patch_4">
    <path d="M 414.72 307.584 
L 414.72 41.472 
" style="fill:none;stroke:#000000;stroke-linecap:square;stroke-linejoin:miter;stroke-width:0.8;"/>
   </g>
   <g id="patch_5">
    <path d="M 57.6 307.584 
L 414.72 307.584 
" style="fill:none;stroke:#000000;stroke-linecap:square;stroke-linejoin:miter;stroke-width:0.8;"/>
   </g>
   <g id="patch_6">
    <path d="M 57.6 41.472 
L 414.72 41.472 
" style="fill:none;stroke:#000000;stroke-linecap:square;stroke-linejoin:miter;stroke-width:0.8;"/>
   </g>
   <g id="text_15">
    <!-- Test -->
    <defs>
     <path d="M -0.296875 72.90625 
L 61.375 72.90625 
L 61.375 64.59375 
L 35.5 64.59375 
L 35.5 0 
L 25.59375 0 
L 25.59375 64.59375 
L -0.296875 64.59375 
z
" id="DejaVuSans-54"/>
    </defs>
    <g transform="translate(223.341563 35.472)scale(0.12 -0.12)">
     <use xlink:href="#DejaVuSans-54"/>
     <use x="60.818359" xlink:href="#DejaVuSans-65"/>
     <use x="122.341797" xlink:href="#DejaVuSans-73"/>
     <use x="174.441406" xlink:href="#DejaVuSans-74"/>
    </g>
   </g>
   <g id="legend_1">
    <g id="patch_7">
     <path d="M 64.6 64.150125 
L 306.276563 64.150125 
Q 308.276563 64.150125 308.276563 62.150125 
L 308.276563 48.472 
Q 308.276563 46.472 306.276563 46.472 
L 64.6 46.472 
Q 62.6 46.472 62.6 48.472 
L 62.6 62.150125 
Q 62.6 64.150125 64.6 64.150125 
z
" style="fill:#ffffff;opacity:0.8;stroke:#cccccc;stroke-linejoin:miter;"/>
    </g>
    <g id="line2d_26">
     <path d="M 66.6 54.570438 
L 86.6 54.570438 
" style="fill:none;stroke:#000080;stroke-linecap:square;stroke-width:0.5;"/>
    </g>
    <g id="line2d_27"/>
    <g id="text_16">
     <!-- Successful download requests per second -->
     <g transform="translate(94.6 58.070438)scale(0.1 -0.1)">
      <use xlink:href="#DejaVuSans-53"/>
      <use x="63.476562" xlink:href="#DejaVuSans-75"/>
      <use x="126.855469" xlink:href="#DejaVuSans-63"/>
      <use x="181.835938" xlink:href="#DejaVuSans-63"/>
      <use x="236.816406" xlink:href="#DejaVuSans-65"/>
      <use x="298.339844" xlink:href="#DejaVuSans-73"/>
      <use x="350.439453" xlink:href="#DejaVuSans-73"/>
      <use x="402.539062" xlink:href="#DejaVuSans-66"/>
      <use x="437.744141" xlink:href="#DejaVuSans-75"/>
      <use x="501.123047" xlink:href="#DejaVuSans-6c"/>
      <use x="528.90625" xlink:href="#DejaVuSans-20"/>
      <use x="560.693359" xlink:href="#DejaVuSans-64"/>
      <use x="624.169922" xlink:href="#DejaVuSans-6f"/>
      <use x="685.351562" xlink:href="#DejaVuSans-77"/>
      <use x="767.138672" xlink:href="#DejaVuSans-6e"/>
      <use x="830.517578" xlink:href="#DejaVuSans-6c"/>
      <use x="858.300781" xlink:href="#DejaVuSans-6f"/>
      <use x="919.482422" xlink:href="#DejaVuSans-61"/>
      <use x="980.761719" xlink:href="#DejaVuSans-64"/>
      <use x="1044.238281" xlink:href="#DejaVuSans-20"/>
      <use x="1076.025391" xlink:href="#DejaVuSans-72"/>
      <use x="1117.107422" xlink:href="#DejaVuSans-65"/>
      <use x="1178.630859" xlink:href="#DejaVuSans-71"/>
      <use x="1242.107422" xlink:href="#DejaVuSans-75"/>
      <use x="1305.486328" xlink:href="#DejaVuSans-65"/>
      <use x="1367.009766" xlink:href="#DejaVuSans-73"/>
      <use x="1419.109375" xlink:href="#DejaVuSans-74"/>
      <use x="1458.318359" xlink:href="#DejaVuSans-73"/>
      <use x="1510.417969" xlink:href="#DejaVuSans-20"/>
      <use x="1542.205078" xlink:href="#DejaVuSans-70"/>
      <use x="1605.681641" xlink:href="#DejaVuSans-65"/>
      <use x="1667.205078" xlink:href="#DejaVuSans-72"/>
      <use x="1708.318359" xlink:href="#DejaVuSans-20"/>
      <use x="1740.105469" xlink:href="#DejaVuSans-73"/>
      <use x="1792.205078" xlink:href="#DejaVuSans-65"/>
      <use x="1853.728516" xlink:href="#DejaVuSans-63"/>
      <use x="1908.708984" xlink:href="#DejaVuSans-6f"/>
      <use x="1969.890625" xlink:href="#DejaVuSans-6e"/>
      <use x="2033.269531" xlink:href="#DejaVuSans-64"/>
     </g>
    </g>
   </g>
  </g>
 </g>
 <defs>
  <clipPath id="p3ff371f707">
   <rect height="266.112" width="357.12" x="57.6" y="41.472"/>
  </clipPath>
 </defs>
</svg>
