<?xml version="1.0" encoding="utf-8" standalone="no"?>
<!DOCTYPE svg PUBLIC "-//W3C//DTD SVG 1.1//EN"
  "http://www.w3.org/Graphics/SVG/1.1/DTD/svg11.dtd">
<!-- Created with matplotlib (http://matplotlib.org/) -->
<svg height="345pt" version="1.1" viewBox="0 0 460 345" width="460pt" xmlns="http://www.w3.org/2000/svg" xmlns:xlink="http://www.w3.org/1999/xlink">
 <defs>
  <style type="text/css">
*{stroke-linecap:butt;stroke-linejoin:round;}
  </style>
 </defs>
 <g id="figure_1">
  <g id="patch_1">
   <path d="M 0 345.6 
L 460.8 345.6 
L 460.8 0 
L 0 0 
z
" style="fill:#ffffff;"/>
  </g>
  <g id="axes_1">
   <g id="patch_2">
    <path d="M 57.6 307.584 
L 414.72 307.584 
L 414.72 41.472 
L 57.6 41.472 
z
" style="fill:#ffffff;"/>
   </g>
   <g id="matplotlib.axis_1">
    <g id="xtick_1">
     <g id="line2d_1">
      <path clip-path="url(#p73a670f202)" d="M 57.6 307.584 
L 57.6 41.472 
" style="fill:none;stroke:#b0b0b0;stroke-linecap:square;stroke-width:0.8;"/>
     </g>
     <g id="line2d_2">
      <defs>
       <path d="M 0 0 
L 0 3.5 
" id="m9e3420114d" style="stroke:#000000;stroke-width:0.8;"/>
      </defs>
      <g>
       <use style="stroke:#000000;stroke-width:0.8;" x="57.6" xlink:href="#m9e3420114d" y="307.584"/>
      </g>
     </g>
     <g id="text_1">
      <!-- 0 -->
      <defs>
       <path d="M 31.78125 66.40625 
Q 24.171875 66.40625 20.328125 58.90625 
Q 16.5 51.421875 16.5 36.375 
Q 16.5 21.390625 20.328125 13.890625 
Q 24.171875 6.390625 31.78125 6.390625 
Q 39.453125 6.390625 43.28125 13.890625 
Q 47.125 21.390625 47.125 36.375 
Q 47.125 51.421875 43.28125 58.90625 
Q 39.453125 66.40625 31.78125 66.40625 
M 31.78125 74.21875 
Q 44.046875 74.21875 50.515625 64.515625 
Q 56.984375 54.828125 56.984375 36.375 
Q 56.984375 17.96875 50.515625 8.265625 
Q 44.046875 -1.421875 31.78125 -1.421875 
Q 19.53125 -1.421875 13.0625 8.265625 
Q 6.59375 17.96875 6.59375 36.375 
Q 6.59375 54.828125 13.0625 64.515625 
Q 19.53125 74.21875 31.78125 74.21875 
" id="DejaVuSans-30"/>
      </defs>
      <g transform="translate(54.41875 322.182437)scale(0.1 -0.1)">
       <use xlink:href="#DejaVuSans-30"/>
      </g>
     </g>
    </g>
    <g id="xtick_2">
     <g id="line2d_3">
      <path clip-path="url(#p73a670f202)" d="M 129.024 307.584 
L 129.024 41.472 
" style="fill:none;stroke:#b0b0b0;stroke-linecap:square;stroke-width:0.8;"/>
     </g>
     <g id="line2d_4">
      <g>
       <use style="stroke:#000000;stroke-width:0.8;" x="129.024" xlink:href="#m9e3420114d" y="307.584"/>
      </g>
     </g>
     <g id="text_2">
      <!-- 200 -->
      <defs>
       <path d="M 19.1875 8.296875 
L 53.609375 8.296875 
L 53.609375 0 
L 7.328125 0 
L 7.328125 8.296875 
Q 12.9375 14.109375 22.625 23.890625 
Q 32.328125 33.6875 34.8125 36.53125 
Q 39.546875 41.84375 41.421875 45.53125 
Q 43.3125 49.21875 43.3125 52.78125 
Q 43.3125 58.59375 39.234375 62.25 
Q 35.15625 65.921875 28.609375 65.921875 
Q 23.96875 65.921875 18.8125 64.3125 
Q 13.671875 62.703125 7.8125 59.421875 
L 7.8125 69.390625 
Q 13.765625 71.78125 18.9375 73 
Q 24.125 74.21875 28.421875 74.21875 
Q 39.75 74.21875 46.484375 68.546875 
Q 53.21875 62.890625 53.21875 53.421875 
Q 53.21875 48.921875 51.53125 44.890625 
Q 49.859375 40.875 45.40625 35.40625 
Q 44.1875 33.984375 37.640625 27.21875 
Q 31.109375 20.453125 19.1875 8.296875 
" id="DejaVuSans-32"/>
      </defs>
      <g transform="translate(119.48025 322.182437)scale(0.1 -0.1)">
       <use xlink:href="#DejaVuSans-32"/>
       <use x="63.623047" xlink:href="#DejaVuSans-30"/>
       <use x="127.246094" xlink:href="#DejaVuSans-30"/>
      </g>
     </g>
    </g>
    <g id="xtick_3">
     <g id="line2d_5">
      <path clip-path="url(#p73a670f202)" d="M 200.448 307.584 
L 200.448 41.472 
" style="fill:none;stroke:#b0b0b0;stroke-linecap:square;stroke-width:0.8;"/>
     </g>
     <g id="line2d_6">
      <g>
       <use style="stroke:#000000;stroke-width:0.8;" x="200.448" xlink:href="#m9e3420114d" y="307.584"/>
      </g>
     </g>
     <g id="text_3">
      <!-- 400 -->
      <defs>
       <path d="M 37.796875 64.3125 
L 12.890625 25.390625 
L 37.796875 25.390625 
z
M 35.203125 72.90625 
L 47.609375 72.90625 
L 47.609375 25.390625 
L 58.015625 25.390625 
L 58.015625 17.1875 
L 47.609375 17.1875 
L 47.609375 0 
L 37.796875 0 
L 37.796875 17.1875 
L 4.890625 17.1875 
L 4.890625 26.703125 
z
" id="DejaVuSans-34"/>
      </defs>
      <g transform="translate(190.90425 322.182437)scale(0.1 -0.1)">
       <use xlink:href="#DejaVuSans-34"/>
       <use x="63.623047" xlink:href="#DejaVuSans-30"/>
       <use x="127.246094" xlink:href="#DejaVuSans-30"/>
      </g>
     </g>
    </g>
    <g id="xtick_4">
     <g id="line2d_7">
      <path clip-path="url(#p73a670f202)" d="M 271.872 307.584 
L 271.872 41.472 
" style="fill:none;stroke:#b0b0b0;stroke-linecap:square;stroke-width:0.8;"/>
     </g>
     <g id="line2d_8">
      <g>
       <use style="stroke:#000000;stroke-width:0.8;" x="271.872" xlink:href="#m9e3420114d" y="307.584"/>
      </g>
     </g>
     <g id="text_4">
      <!-- 600 -->
      <defs>
       <path d="M 33.015625 40.375 
Q 26.375 40.375 22.484375 35.828125 
Q 18.609375 31.296875 18.609375 23.390625 
Q 18.609375 15.53125 22.484375 10.953125 
Q 26.375 6.390625 33.015625 6.390625 
Q 39.65625 6.390625 43.53125 10.953125 
Q 47.40625 15.53125 47.40625 23.390625 
Q 47.40625 31.296875 43.53125 35.828125 
Q 39.65625 40.375 33.015625 40.375 
M 52.59375 71.296875 
L 52.59375 62.3125 
Q 48.875 64.0625 45.09375 64.984375 
Q 41.3125 65.921875 37.59375 65.921875 
Q 27.828125 65.921875 22.671875 59.328125 
Q 17.53125 52.734375 16.796875 39.40625 
Q 19.671875 43.65625 24.015625 45.921875 
Q 28.375 48.1875 33.59375 48.1875 
Q 44.578125 48.1875 50.953125 41.515625 
Q 57.328125 34.859375 57.328125 23.390625 
Q 57.328125 12.15625 50.6875 5.359375 
Q 44.046875 -1.421875 33.015625 -1.421875 
Q 20.359375 -1.421875 13.671875 8.265625 
Q 6.984375 17.96875 6.984375 36.375 
Q 6.984375 53.65625 15.1875 63.9375 
Q 23.390625 74.21875 37.203125 74.21875 
Q 40.921875 74.21875 44.703125 73.484375 
Q 48.484375 72.75 52.59375 71.296875 
" id="DejaVuSans-36"/>
      </defs>
      <g transform="translate(262.32825 322.182437)scale(0.1 -0.1)">
       <use xlink:href="#DejaVuSans-36"/>
       <use x="63.623047" xlink:href="#DejaVuSans-30"/>
       <use x="127.246094" xlink:href="#DejaVuSans-30"/>
      </g>
     </g>
    </g>
    <g id="xtick_5">
     <g id="line2d_9">
      <path clip-path="url(#p73a670f202)" d="M 343.296 307.584 
L 343.296 41.472 
" style="fill:none;stroke:#b0b0b0;stroke-linecap:square;stroke-width:0.8;"/>
     </g>
     <g id="line2d_10">
      <g>
       <use style="stroke:#000000;stroke-width:0.8;" x="343.296" xlink:href="#m9e3420114d" y="307.584"/>
      </g>
     </g>
     <g id="text_5">
      <!-- 800 -->
      <defs>
       <path d="M 31.78125 34.625 
Q 24.75 34.625 20.71875 30.859375 
Q 16.703125 27.09375 16.703125 20.515625 
Q 16.703125 13.921875 20.71875 10.15625 
Q 24.75 6.390625 31.78125 6.390625 
Q 38.8125 6.390625 42.859375 10.171875 
Q 46.921875 13.96875 46.921875 20.515625 
Q 46.921875 27.09375 42.890625 30.859375 
Q 38.875 34.625 31.78125 34.625 
M 21.921875 38.8125 
Q 15.578125 40.375 12.03125 44.71875 
Q 8.5 49.078125 8.5 55.328125 
Q 8.5 64.0625 14.71875 69.140625 
Q 20.953125 74.21875 31.78125 74.21875 
Q 42.671875 74.21875 48.875 69.140625 
Q 55.078125 64.0625 55.078125 55.328125 
Q 55.078125 49.078125 51.53125 44.71875 
Q 48 40.375 41.703125 38.8125 
Q 48.828125 37.15625 52.796875 32.3125 
Q 56.78125 27.484375 56.78125 20.515625 
Q 56.78125 9.90625 50.3125 4.234375 
Q 43.84375 -1.421875 31.78125 -1.421875 
Q 19.734375 -1.421875 13.25 4.234375 
Q 6.78125 9.90625 6.78125 20.515625 
Q 6.78125 27.484375 10.78125 32.3125 
Q 14.796875 37.15625 21.921875 38.8125 
M 18.3125 54.390625 
Q 18.3125 48.734375 21.84375 45.5625 
Q 25.390625 42.390625 31.78125 42.390625 
Q 38.140625 42.390625 41.71875 45.5625 
Q 45.3125 48.734375 45.3125 54.390625 
Q 45.3125 60.0625 41.71875 63.234375 
Q 38.140625 66.40625 31.78125 66.40625 
Q 25.390625 66.40625 21.84375 63.234375 
Q 18.3125 60.0625 18.3125 54.390625 
" id="DejaVuSans-38"/>
      </defs>
      <g transform="translate(333.75225 322.182437)scale(0.1 -0.1)">
       <use xlink:href="#DejaVuSans-38"/>
       <use x="63.623047" xlink:href="#DejaVuSans-30"/>
       <use x="127.246094" xlink:href="#DejaVuSans-30"/>
      </g>
     </g>
    </g>
    <g id="xtick_6">
     <g id="line2d_11">
      <path clip-path="url(#p73a670f202)" d="M 414.72 307.584 
L 414.72 41.472 
" style="fill:none;stroke:#b0b0b0;stroke-linecap:square;stroke-width:0.8;"/>
     </g>
     <g id="line2d_12">
      <g>
       <use style="stroke:#000000;stroke-width:0.8;" x="414.72" xlink:href="#m9e3420114d" y="307.584"/>
      </g>
     </g>
     <g id="text_6">
      <!-- 1000 -->
      <defs>
       <path d="M 12.40625 8.296875 
L 28.515625 8.296875 
L 28.515625 63.921875 
L 10.984375 60.40625 
L 10.984375 69.390625 
L 28.421875 72.90625 
L 38.28125 72.90625 
L 38.28125 8.296875 
L 54.390625 8.296875 
L 54.390625 0 
L 12.40625 0 
z
" id="DejaVuSans-31"/>
      </defs>
      <g transform="translate(401.995 322.182437)scale(0.1 -0.1)">
       <use xlink:href="#DejaVuSans-31"/>
       <use x="63.623047" xlink:href="#DejaVuSans-30"/>
       <use x="127.246094" xlink:href="#DejaVuSans-30"/>
       <use x="190.869141" xlink:href="#DejaVuSans-30"/>
      </g>
     </g>
    </g>
    <g id="text_7">
     <!-- Number of clients -->
     <defs>
      <path d="M 9.8125 72.90625 
L 23.09375 72.90625 
L 55.421875 11.921875 
L 55.421875 72.90625 
L 64.984375 72.90625 
L 64.984375 0 
L 51.703125 0 
L 19.390625 60.984375 
L 19.390625 0 
L 9.8125 0 
z
" id="DejaVuSans-4e"/>
      <path d="M 8.5 21.578125 
L 8.5 54.6875 
L 17.484375 54.6875 
L 17.484375 21.921875 
Q 17.484375 14.15625 20.5 10.265625 
Q 23.53125 6.390625 29.59375 6.390625 
Q 36.859375 6.390625 41.078125 11.03125 
Q 45.3125 15.671875 45.3125 23.6875 
L 45.3125 54.6875 
L 54.296875 54.6875 
L 54.296875 0 
L 45.3125 0 
L 45.3125 8.40625 
Q 42.046875 3.421875 37.71875 1 
Q 33.40625 -1.421875 27.6875 -1.421875 
Q 18.265625 -1.421875 13.375 4.4375 
Q 8.5 10.296875 8.5 21.578125 
M 31.109375 56 
z
" id="DejaVuSans-75"/>
      <path d="M 52 44.1875 
Q 55.375 50.25 60.0625 53.125 
Q 64.75 56 71.09375 56 
Q 79.640625 56 84.28125 50.015625 
Q 88.921875 44.046875 88.921875 33.015625 
L 88.921875 0 
L 79.890625 0 
L 79.890625 32.71875 
Q 79.890625 40.578125 77.09375 44.375 
Q 74.3125 48.1875 68.609375 48.1875 
Q 61.625 48.1875 57.5625 43.546875 
Q 53.515625 38.921875 53.515625 30.90625 
L 53.515625 0 
L 44.484375 0 
L 44.484375 32.71875 
Q 44.484375 40.625 41.703125 44.40625 
Q 38.921875 48.1875 33.109375 48.1875 
Q 26.21875 48.1875 22.15625 43.53125 
Q 18.109375 38.875 18.109375 30.90625 
L 18.109375 0 
L 9.078125 0 
L 9.078125 54.6875 
L 18.109375 54.6875 
L 18.109375 46.1875 
Q 21.1875 51.21875 25.484375 53.609375 
Q 29.78125 56 35.6875 56 
Q 41.65625 56 45.828125 52.96875 
Q 50 49.953125 52 44.1875 
" id="DejaVuSans-6d"/>
      <path d="M 48.6875 27.296875 
Q 48.6875 37.203125 44.609375 42.84375 
Q 40.53125 48.484375 33.40625 48.484375 
Q 26.265625 48.484375 22.1875 42.84375 
Q 18.109375 37.203125 18.109375 27.296875 
Q 18.109375 17.390625 22.1875 11.75 
Q 26.265625 6.109375 33.40625 6.109375 
Q 40.53125 6.109375 44.609375 11.75 
Q 48.6875 17.390625 48.6875 27.296875 
M 18.109375 46.390625 
Q 20.953125 51.265625 25.265625 53.625 
Q 29.59375 56 35.59375 56 
Q 45.5625 56 51.78125 48.09375 
Q 58.015625 40.1875 58.015625 27.296875 
Q 58.015625 14.40625 51.78125 6.484375 
Q 45.5625 -1.421875 35.59375 -1.421875 
Q 29.59375 -1.421875 25.265625 0.953125 
Q 20.953125 3.328125 18.109375 8.203125 
L 18.109375 0 
L 9.078125 0 
L 9.078125 75.984375 
L 18.109375 75.984375 
z
" id="DejaVuSans-62"/>
      <path d="M 56.203125 29.59375 
L 56.203125 25.203125 
L 14.890625 25.203125 
Q 15.484375 15.921875 20.484375 11.0625 
Q 25.484375 6.203125 34.421875 6.203125 
Q 39.59375 6.203125 44.453125 7.46875 
Q 49.3125 8.734375 54.109375 11.28125 
L 54.109375 2.78125 
Q 49.265625 0.734375 44.1875 -0.34375 
Q 39.109375 -1.421875 33.890625 -1.421875 
Q 20.796875 -1.421875 13.15625 6.1875 
Q 5.515625 13.8125 5.515625 26.8125 
Q 5.515625 40.234375 12.765625 48.109375 
Q 20.015625 56 32.328125 56 
Q 43.359375 56 49.78125 48.890625 
Q 56.203125 41.796875 56.203125 29.59375 
M 47.21875 32.234375 
Q 47.125 39.59375 43.09375 43.984375 
Q 39.0625 48.390625 32.421875 48.390625 
Q 24.90625 48.390625 20.390625 44.140625 
Q 15.875 39.890625 15.1875 32.171875 
z
" id="DejaVuSans-65"/>
      <path d="M 41.109375 46.296875 
Q 39.59375 47.171875 37.8125 47.578125 
Q 36.03125 48 33.890625 48 
Q 26.265625 48 22.1875 43.046875 
Q 18.109375 38.09375 18.109375 28.8125 
L 18.109375 0 
L 9.078125 0 
L 9.078125 54.6875 
L 18.109375 54.6875 
L 18.109375 46.1875 
Q 20.953125 51.171875 25.484375 53.578125 
Q 30.03125 56 36.53125 56 
Q 37.453125 56 38.578125 55.875 
Q 39.703125 55.765625 41.0625 55.515625 
z
" id="DejaVuSans-72"/>
      <path id="DejaVuSans-20"/>
      <path d="M 30.609375 48.390625 
Q 23.390625 48.390625 19.1875 42.75 
Q 14.984375 37.109375 14.984375 27.296875 
Q 14.984375 17.484375 19.15625 11.84375 
Q 23.34375 6.203125 30.609375 6.203125 
Q 37.796875 6.203125 41.984375 11.859375 
Q 46.1875 17.53125 46.1875 27.296875 
Q 46.1875 37.015625 41.984375 42.703125 
Q 37.796875 48.390625 30.609375 48.390625 
M 30.609375 56 
Q 42.328125 56 49.015625 48.375 
Q 55.71875 40.765625 55.71875 27.296875 
Q 55.71875 13.875 49.015625 6.21875 
Q 42.328125 -1.421875 30.609375 -1.421875 
Q 18.84375 -1.421875 12.171875 6.21875 
Q 5.515625 13.875 5.515625 27.296875 
Q 5.515625 40.765625 12.171875 48.375 
Q 18.84375 56 30.609375 56 
" id="DejaVuSans-6f"/>
      <path d="M 37.109375 75.984375 
L 37.109375 68.5 
L 28.515625 68.5 
Q 23.6875 68.5 21.796875 66.546875 
Q 19.921875 64.59375 19.921875 59.515625 
L 19.921875 54.6875 
L 34.71875 54.6875 
L 34.71875 47.703125 
L 19.921875 47.703125 
L 19.921875 0 
L 10.890625 0 
L 10.890625 47.703125 
L 2.296875 47.703125 
L 2.296875 54.6875 
L 10.890625 54.6875 
L 10.890625 58.5 
Q 10.890625 67.625 15.140625 71.796875 
Q 19.390625 75.984375 28.609375 75.984375 
z
" id="DejaVuSans-66"/>
      <path d="M 48.78125 52.59375 
L 48.78125 44.1875 
Q 44.96875 46.296875 41.140625 47.34375 
Q 37.3125 48.390625 33.40625 48.390625 
Q 24.65625 48.390625 19.8125 42.84375 
Q 14.984375 37.3125 14.984375 27.296875 
Q 14.984375 17.28125 19.8125 11.734375 
Q 24.65625 6.203125 33.40625 6.203125 
Q 37.3125 6.203125 41.140625 7.25 
Q 44.96875 8.296875 48.78125 10.40625 
L 48.78125 2.09375 
Q 45.015625 0.34375 40.984375 -0.53125 
Q 36.96875 -1.421875 32.421875 -1.421875 
Q 20.0625 -1.421875 12.78125 6.34375 
Q 5.515625 14.109375 5.515625 27.296875 
Q 5.515625 40.671875 12.859375 48.328125 
Q 20.21875 56 33.015625 56 
Q 37.15625 56 41.109375 55.140625 
Q 45.0625 54.296875 48.78125 52.59375 
" id="DejaVuSans-63"/>
      <path d="M 9.421875 75.984375 
L 18.40625 75.984375 
L 18.40625 0 
L 9.421875 0 
z
" id="DejaVuSans-6c"/>
      <path d="M 9.421875 54.6875 
L 18.40625 54.6875 
L 18.40625 0 
L 9.421875 0 
z
M 9.421875 75.984375 
L 18.40625 75.984375 
L 18.40625 64.59375 
L 9.421875 64.59375 
z
" id="DejaVuSans-69"/>
      <path d="M 54.890625 33.015625 
L 54.890625 0 
L 45.90625 0 
L 45.90625 32.71875 
Q 45.90625 40.484375 42.875 44.328125 
Q 39.84375 48.1875 33.796875 48.1875 
Q 26.515625 48.1875 22.3125 43.546875 
Q 18.109375 38.921875 18.109375 30.90625 
L 18.109375 0 
L 9.078125 0 
L 9.078125 54.6875 
L 18.109375 54.6875 
L 18.109375 46.1875 
Q 21.34375 51.125 25.703125 53.5625 
Q 30.078125 56 35.796875 56 
Q 45.21875 56 50.046875 50.171875 
Q 54.890625 44.34375 54.890625 33.015625 
" id="DejaVuSans-6e"/>
      <path d="M 18.3125 70.21875 
L 18.3125 54.6875 
L 36.8125 54.6875 
L 36.8125 47.703125 
L 18.3125 47.703125 
L 18.3125 18.015625 
Q 18.3125 11.328125 20.140625 9.421875 
Q 21.96875 7.515625 27.59375 7.515625 
L 36.8125 7.515625 
L 36.8125 0 
L 27.59375 0 
Q 17.1875 0 13.234375 3.875 
Q 9.28125 7.765625 9.28125 18.015625 
L 9.28125 47.703125 
L 2.6875 47.703125 
L 2.6875 54.6875 
L 9.28125 54.6875 
L 9.28125 70.21875 
z
" id="DejaVuSans-74"/>
      <path d="M 44.28125 53.078125 
L 44.28125 44.578125 
Q 40.484375 46.53125 36.375 47.5 
Q 32.28125 48.484375 27.875 48.484375 
Q 21.1875 48.484375 17.84375 46.4375 
Q 14.5 44.390625 14.5 40.28125 
Q 14.5 37.15625 16.890625 35.375 
Q 19.28125 33.59375 26.515625 31.984375 
L 29.59375 31.296875 
Q 39.15625 29.25 43.1875 25.515625 
Q 47.21875 21.78125 47.21875 15.09375 
Q 47.21875 7.46875 41.1875 3.015625 
Q 35.15625 -1.421875 24.609375 -1.421875 
Q 20.21875 -1.421875 15.453125 -0.5625 
Q 10.6875 0.296875 5.421875 2 
L 5.421875 11.28125 
Q 10.40625 8.6875 15.234375 7.390625 
Q 20.0625 6.109375 24.8125 6.109375 
Q 31.15625 6.109375 34.5625 8.28125 
Q 37.984375 10.453125 37.984375 14.40625 
Q 37.984375 18.0625 35.515625 20.015625 
Q 33.0625 21.96875 24.703125 23.78125 
L 21.578125 24.515625 
Q 13.234375 26.265625 9.515625 29.90625 
Q 5.8125 33.546875 5.8125 39.890625 
Q 5.8125 47.609375 11.28125 51.796875 
Q 16.75 56 26.8125 56 
Q 31.78125 56 36.171875 55.265625 
Q 40.578125 54.546875 44.28125 53.078125 
" id="DejaVuSans-73"/>
     </defs>
     <g transform="translate(191.738906 335.860562)scale(0.1 -0.1)">
      <use xlink:href="#DejaVuSans-4e"/>
      <use x="74.804688" xlink:href="#DejaVuSans-75"/>
      <use x="138.183594" xlink:href="#DejaVuSans-6d"/>
      <use x="235.595703" xlink:href="#DejaVuSans-62"/>
      <use x="299.072266" xlink:href="#DejaVuSans-65"/>
      <use x="360.595703" xlink:href="#DejaVuSans-72"/>
      <use x="401.708984" xlink:href="#DejaVuSans-20"/>
      <use x="433.496094" xlink:href="#DejaVuSans-6f"/>
      <use x="494.677734" xlink:href="#DejaVuSans-66"/>
      <use x="529.882812" xlink:href="#DejaVuSans-20"/>
      <use x="561.669922" xlink:href="#DejaVuSans-63"/>
      <use x="616.650391" xlink:href="#DejaVuSans-6c"/>
      <use x="644.433594" xlink:href="#DejaVuSans-69"/>
      <use x="672.216797" xlink:href="#DejaVuSans-65"/>
      <use x="733.740234" xlink:href="#DejaVuSans-6e"/>
      <use x="797.119141" xlink:href="#DejaVuSans-74"/>
      <use x="836.328125" xlink:href="#DejaVuSans-73"/>
     </g>
    </g>
   </g>
   <g id="matplotlib.axis_2">
    <g id="ytick_1">
     <g id="line2d_13">
      <path clip-path="url(#p73a670f202)" d="M 57.6 296.109135 
L 414.72 296.109135 
" style="fill:none;stroke:#b0b0b0;stroke-linecap:square;stroke-width:0.8;"/>
     </g>
     <g id="line2d_14">
      <defs>
       <path d="M 0 0 
L -3.5 0 
" id="m284121c95f" style="stroke:#000000;stroke-width:0.8;"/>
      </defs>
      <g>
       <use style="stroke:#000000;stroke-width:0.8;" x="57.6" xlink:href="#m284121c95f" y="296.109135"/>
      </g>
     </g>
     <g id="text_8">
      <!-- 0 -->
      <g transform="translate(44.2375 299.908353)scale(0.1 -0.1)">
       <use xlink:href="#DejaVuSans-30"/>
      </g>
     </g>
    </g>
    <g id="ytick_2">
     <g id="line2d_15">
      <path clip-path="url(#p73a670f202)" d="M 57.6 262.857812 
L 414.72 262.857812 
" style="fill:none;stroke:#b0b0b0;stroke-linecap:square;stroke-width:0.8;"/>
     </g>
     <g id="line2d_16">
      <g>
       <use style="stroke:#000000;stroke-width:0.8;" x="57.6" xlink:href="#m284121c95f" y="262.857812"/>
      </g>
     </g>
     <g id="text_9">
      <!-- 50 -->
      <defs>
       <path d="M 10.796875 72.90625 
L 49.515625 72.90625 
L 49.515625 64.59375 
L 19.828125 64.59375 
L 19.828125 46.734375 
Q 21.96875 47.46875 24.109375 47.828125 
Q 26.265625 48.1875 28.421875 48.1875 
Q 40.625 48.1875 47.75 41.5 
Q 54.890625 34.8125 54.890625 23.390625 
Q 54.890625 11.625 47.5625 5.09375 
Q 40.234375 -1.421875 26.90625 -1.421875 
Q 22.3125 -1.421875 17.546875 -0.640625 
Q 12.796875 0.140625 7.71875 1.703125 
L 7.71875 11.625 
Q 12.109375 9.234375 16.796875 8.0625 
Q 21.484375 6.890625 26.703125 6.890625 
Q 35.15625 6.890625 40.078125 11.328125 
Q 45.015625 15.765625 45.015625 23.390625 
Q 45.015625 31 40.078125 35.4375 
Q 35.15625 39.890625 26.703125 39.890625 
Q 22.75 39.890625 18.8125 39.015625 
Q 14.890625 38.140625 10.796875 36.28125 
z
" id="DejaVuSans-35"/>
      </defs>
      <g transform="translate(37.875 266.657031)scale(0.1 -0.1)">
       <use xlink:href="#DejaVuSans-35"/>
       <use x="63.623047" xlink:href="#DejaVuSans-30"/>
      </g>
     </g>
    </g>
    <g id="ytick_3">
     <g id="line2d_17">
      <path clip-path="url(#p73a670f202)" d="M 57.6 229.606489 
L 414.72 229.606489 
" style="fill:none;stroke:#b0b0b0;stroke-linecap:square;stroke-width:0.8;"/>
     </g>
     <g id="line2d_18">
      <g>
       <use style="stroke:#000000;stroke-width:0.8;" x="57.6" xlink:href="#m284121c95f" y="229.606489"/>
      </g>
     </g>
     <g id="text_10">
      <!-- 100 -->
      <g transform="translate(31.5125 233.405708)scale(0.1 -0.1)">
       <use xlink:href="#DejaVuSans-31"/>
       <use x="63.623047" xlink:href="#DejaVuSans-30"/>
       <use x="127.246094" xlink:href="#DejaVuSans-30"/>
      </g>
     </g>
    </g>
    <g id="ytick_4">
     <g id="line2d_19">
      <path clip-path="url(#p73a670f202)" d="M 57.6 196.355166 
L 414.72 196.355166 
" style="fill:none;stroke:#b0b0b0;stroke-linecap:square;stroke-width:0.8;"/>
     </g>
     <g id="line2d_20">
      <g>
       <use style="stroke:#000000;stroke-width:0.8;" x="57.6" xlink:href="#m284121c95f" y="196.355166"/>
      </g>
     </g>
     <g id="text_11">
      <!-- 150 -->
      <g transform="translate(31.5125 200.154385)scale(0.1 -0.1)">
       <use xlink:href="#DejaVuSans-31"/>
       <use x="63.623047" xlink:href="#DejaVuSans-35"/>
       <use x="127.246094" xlink:href="#DejaVuSans-30"/>
      </g>
     </g>
    </g>
    <g id="ytick_5">
     <g id="line2d_21">
      <path clip-path="url(#p73a670f202)" d="M 57.6 163.103843 
L 414.72 163.103843 
" style="fill:none;stroke:#b0b0b0;stroke-linecap:square;stroke-width:0.8;"/>
     </g>
     <g id="line2d_22">
      <g>
       <use style="stroke:#000000;stroke-width:0.8;" x="57.6" xlink:href="#m284121c95f" y="163.103843"/>
      </g>
     </g>
     <g id="text_12">
      <!-- 200 -->
      <g transform="translate(31.5125 166.903062)scale(0.1 -0.1)">
       <use xlink:href="#DejaVuSans-32"/>
       <use x="63.623047" xlink:href="#DejaVuSans-30"/>
       <use x="127.246094" xlink:href="#DejaVuSans-30"/>
      </g>
     </g>
    </g>
    <g id="ytick_6">
     <g id="line2d_23">
      <path clip-path="url(#p73a670f202)" d="M 57.6 129.85252 
L 414.72 129.85252 
" style="fill:none;stroke:#b0b0b0;stroke-linecap:square;stroke-width:0.8;"/>
     </g>
     <g id="line2d_24">
      <g>
       <use style="stroke:#000000;stroke-width:0.8;" x="57.6" xlink:href="#m284121c95f" y="129.85252"/>
      </g>
     </g>
     <g id="text_13">
      <!-- 250 -->
      <g transform="translate(31.5125 133.651739)scale(0.1 -0.1)">
       <use xlink:href="#DejaVuSans-32"/>
       <use x="63.623047" xlink:href="#DejaVuSans-35"/>
       <use x="127.246094" xlink:href="#DejaVuSans-30"/>
      </g>
     </g>
    </g>
    <g id="ytick_7">
     <g id="line2d_25">
      <path clip-path="url(#p73a670f202)" d="M 57.6 96.601197 
L 414.72 96.601197 
" style="fill:none;stroke:#b0b0b0;stroke-linecap:square;stroke-width:0.8;"/>
     </g>
     <g id="line2d_26">
      <g>
       <use style="stroke:#000000;stroke-width:0.8;" x="57.6" xlink:href="#m284121c95f" y="96.601197"/>
      </g>
     </g>
     <g id="text_14">
      <!-- 300 -->
      <defs>
       <path d="M 40.578125 39.3125 
Q 47.65625 37.796875 51.625 33 
Q 55.609375 28.21875 55.609375 21.1875 
Q 55.609375 10.40625 48.1875 4.484375 
Q 40.765625 -1.421875 27.09375 -1.421875 
Q 22.515625 -1.421875 17.65625 -0.515625 
Q 12.796875 0.390625 7.625 2.203125 
L 7.625 11.71875 
Q 11.71875 9.328125 16.59375 8.109375 
Q 21.484375 6.890625 26.8125 6.890625 
Q 36.078125 6.890625 40.9375 10.546875 
Q 45.796875 14.203125 45.796875 21.1875 
Q 45.796875 27.640625 41.28125 31.265625 
Q 36.765625 34.90625 28.71875 34.90625 
L 20.21875 34.90625 
L 20.21875 43.015625 
L 29.109375 43.015625 
Q 36.375 43.015625 40.234375 45.921875 
Q 44.09375 48.828125 44.09375 54.296875 
Q 44.09375 59.90625 40.109375 62.90625 
Q 36.140625 65.921875 28.71875 65.921875 
Q 24.65625 65.921875 20.015625 65.03125 
Q 15.375 64.15625 9.8125 62.3125 
L 9.8125 71.09375 
Q 15.4375 72.65625 20.34375 73.4375 
Q 25.25 74.21875 29.59375 74.21875 
Q 40.828125 74.21875 47.359375 69.109375 
Q 53.90625 64.015625 53.90625 55.328125 
Q 53.90625 49.265625 50.4375 45.09375 
Q 46.96875 40.921875 40.578125 39.3125 
" id="DejaVuSans-33"/>
      </defs>
      <g transform="translate(31.5125 100.400416)scale(0.1 -0.1)">
       <use xlink:href="#DejaVuSans-33"/>
       <use x="63.623047" xlink:href="#DejaVuSans-30"/>
       <use x="127.246094" xlink:href="#DejaVuSans-30"/>
      </g>
     </g>
    </g>
    <g id="ytick_8">
     <g id="line2d_27">
      <path clip-path="url(#p73a670f202)" d="M 57.6 63.349874 
L 414.72 63.349874 
" style="fill:none;stroke:#b0b0b0;stroke-linecap:square;stroke-width:0.8;"/>
     </g>
     <g id="line2d_28">
      <g>
       <use style="stroke:#000000;stroke-width:0.8;" x="57.6" xlink:href="#m284121c95f" y="63.349874"/>
      </g>
     </g>
     <g id="text_15">
      <!-- 350 -->
      <g transform="translate(31.5125 67.149093)scale(0.1 -0.1)">
       <use xlink:href="#DejaVuSans-33"/>
       <use x="63.623047" xlink:href="#DejaVuSans-35"/>
       <use x="127.246094" xlink:href="#DejaVuSans-30"/>
      </g>
     </g>
    </g>
    <g id="text_16">
     <!-- Successful download requests per second -->
     <defs>
      <path d="M 53.515625 70.515625 
L 53.515625 60.890625 
Q 47.90625 63.578125 42.921875 64.890625 
Q 37.9375 66.21875 33.296875 66.21875 
Q 25.25 66.21875 20.875 63.09375 
Q 16.5 59.96875 16.5 54.203125 
Q 16.5 49.359375 19.40625 46.890625 
Q 22.3125 44.4375 30.421875 42.921875 
L 36.375 41.703125 
Q 47.40625 39.59375 52.65625 34.296875 
Q 57.90625 29 57.90625 20.125 
Q 57.90625 9.515625 50.796875 4.046875 
Q 43.703125 -1.421875 29.984375 -1.421875 
Q 24.8125 -1.421875 18.96875 -0.25 
Q 13.140625 0.921875 6.890625 3.21875 
L 6.890625 13.375 
Q 12.890625 10.015625 18.65625 8.296875 
Q 24.421875 6.59375 29.984375 6.59375 
Q 38.421875 6.59375 43.015625 9.90625 
Q 47.609375 13.234375 47.609375 19.390625 
Q 47.609375 24.75 44.3125 27.78125 
Q 41.015625 30.8125 33.5 32.328125 
L 27.484375 33.5 
Q 16.453125 35.6875 11.515625 40.375 
Q 6.59375 45.0625 6.59375 53.421875 
Q 6.59375 63.09375 13.40625 68.65625 
Q 20.21875 74.21875 32.171875 74.21875 
Q 37.3125 74.21875 42.625 73.28125 
Q 47.953125 72.359375 53.515625 70.515625 
" id="DejaVuSans-53"/>
      <path d="M 45.40625 46.390625 
L 45.40625 75.984375 
L 54.390625 75.984375 
L 54.390625 0 
L 45.40625 0 
L 45.40625 8.203125 
Q 42.578125 3.328125 38.25 0.953125 
Q 33.9375 -1.421875 27.875 -1.421875 
Q 17.96875 -1.421875 11.734375 6.484375 
Q 5.515625 14.40625 5.515625 27.296875 
Q 5.515625 40.1875 11.734375 48.09375 
Q 17.96875 56 27.875 56 
Q 33.9375 56 38.25 53.625 
Q 42.578125 51.265625 45.40625 46.390625 
M 14.796875 27.296875 
Q 14.796875 17.390625 18.875 11.75 
Q 22.953125 6.109375 30.078125 6.109375 
Q 37.203125 6.109375 41.296875 11.75 
Q 45.40625 17.390625 45.40625 27.296875 
Q 45.40625 37.203125 41.296875 42.84375 
Q 37.203125 48.484375 30.078125 48.484375 
Q 22.953125 48.484375 18.875 42.84375 
Q 14.796875 37.203125 14.796875 27.296875 
" id="DejaVuSans-64"/>
      <path d="M 4.203125 54.6875 
L 13.1875 54.6875 
L 24.421875 12.015625 
L 35.59375 54.6875 
L 46.1875 54.6875 
L 57.421875 12.015625 
L 68.609375 54.6875 
L 77.59375 54.6875 
L 63.28125 0 
L 52.6875 0 
L 40.921875 44.828125 
L 29.109375 0 
L 18.5 0 
z
" id="DejaVuSans-77"/>
      <path d="M 34.28125 27.484375 
Q 23.390625 27.484375 19.1875 25 
Q 14.984375 22.515625 14.984375 16.5 
Q 14.984375 11.71875 18.140625 8.90625 
Q 21.296875 6.109375 26.703125 6.109375 
Q 34.1875 6.109375 38.703125 11.40625 
Q 43.21875 16.703125 43.21875 25.484375 
L 43.21875 27.484375 
z
M 52.203125 31.203125 
L 52.203125 0 
L 43.21875 0 
L 43.21875 8.296875 
Q 40.140625 3.328125 35.546875 0.953125 
Q 30.953125 -1.421875 24.3125 -1.421875 
Q 15.921875 -1.421875 10.953125 3.296875 
Q 6 8.015625 6 15.921875 
Q 6 25.140625 12.171875 29.828125 
Q 18.359375 34.515625 30.609375 34.515625 
L 43.21875 34.515625 
L 43.21875 35.40625 
Q 43.21875 41.609375 39.140625 45 
Q 35.0625 48.390625 27.6875 48.390625 
Q 23 48.390625 18.546875 47.265625 
Q 14.109375 46.140625 10.015625 43.890625 
L 10.015625 52.203125 
Q 14.9375 54.109375 19.578125 55.046875 
Q 24.21875 56 28.609375 56 
Q 40.484375 56 46.34375 49.84375 
Q 52.203125 43.703125 52.203125 31.203125 
" id="DejaVuSans-61"/>
      <path d="M 14.796875 27.296875 
Q 14.796875 17.390625 18.875 11.75 
Q 22.953125 6.109375 30.078125 6.109375 
Q 37.203125 6.109375 41.296875 11.75 
Q 45.40625 17.390625 45.40625 27.296875 
Q 45.40625 37.203125 41.296875 42.84375 
Q 37.203125 48.484375 30.078125 48.484375 
Q 22.953125 48.484375 18.875 42.84375 
Q 14.796875 37.203125 14.796875 27.296875 
M 45.40625 8.203125 
Q 42.578125 3.328125 38.25 0.953125 
Q 33.9375 -1.421875 27.875 -1.421875 
Q 17.96875 -1.421875 11.734375 6.484375 
Q 5.515625 14.40625 5.515625 27.296875 
Q 5.515625 40.1875 11.734375 48.09375 
Q 17.96875 56 27.875 56 
Q 33.9375 56 38.25 53.625 
Q 42.578125 51.265625 45.40625 46.390625 
L 45.40625 54.6875 
L 54.390625 54.6875 
L 54.390625 -20.796875 
L 45.40625 -20.796875 
z
" id="DejaVuSans-71"/>
      <path d="M 18.109375 8.203125 
L 18.109375 -20.796875 
L 9.078125 -20.796875 
L 9.078125 54.6875 
L 18.109375 54.6875 
L 18.109375 46.390625 
Q 20.953125 51.265625 25.265625 53.625 
Q 29.59375 56 35.59375 56 
Q 45.5625 56 51.78125 48.09375 
Q 58.015625 40.1875 58.015625 27.296875 
Q 58.015625 14.40625 51.78125 6.484375 
Q 45.5625 -1.421875 35.59375 -1.421875 
Q 29.59375 -1.421875 25.265625 0.953125 
Q 20.953125 3.328125 18.109375 8.203125 
M 48.6875 27.296875 
Q 48.6875 37.203125 44.609375 42.84375 
Q 40.53125 48.484375 33.40625 48.484375 
Q 26.265625 48.484375 22.1875 42.84375 
Q 18.109375 37.203125 18.109375 27.296875 
Q 18.109375 17.390625 22.1875 11.75 
Q 26.265625 6.109375 33.40625 6.109375 
Q 40.53125 6.109375 44.609375 11.75 
Q 48.6875 17.390625 48.6875 27.296875 
" id="DejaVuSans-70"/>
     </defs>
     <g transform="translate(25.432812 279.366281)rotate(-90)scale(0.1 -0.1)">
      <use xlink:href="#DejaVuSans-53"/>
      <use x="63.476562" xlink:href="#DejaVuSans-75"/>
      <use x="126.855469" xlink:href="#DejaVuSans-63"/>
      <use x="181.835938" xlink:href="#DejaVuSans-63"/>
      <use x="236.816406" xlink:href="#DejaVuSans-65"/>
      <use x="298.339844" xlink:href="#DejaVuSans-73"/>
      <use x="350.439453" xlink:href="#DejaVuSans-73"/>
      <use x="402.539062" xlink:href="#DejaVuSans-66"/>
      <use x="437.744141" xlink:href="#DejaVuSans-75"/>
      <use x="501.123047" xlink:href="#DejaVuSans-6c"/>
      <use x="528.90625" xlink:href="#DejaVuSans-20"/>
      <use x="560.693359" xlink:href="#DejaVuSans-64"/>
      <use x="624.169922" xlink:href="#DejaVuSans-6f"/>
      <use x="685.351562" xlink:href="#DejaVuSans-77"/>
      <use x="767.138672" xlink:href="#DejaVuSans-6e"/>
      <use x="830.517578" xlink:href="#DejaVuSans-6c"/>
      <use x="858.300781" xlink:href="#DejaVuSans-6f"/>
      <use x="919.482422" xlink:href="#DejaVuSans-61"/>
      <use x="980.761719" xlink:href="#DejaVuSans-64"/>
      <use x="1044.238281" xlink:href="#DejaVuSans-20"/>
      <use x="1076.025391" xlink:href="#DejaVuSans-72"/>
      <use x="1117.107422" xlink:href="#DejaVuSans-65"/>
      <use x="1178.630859" xlink:href="#DejaVuSans-71"/>
      <use x="1242.107422" xlink:href="#DejaVuSans-75"/>
      <use x="1305.486328" xlink:href="#DejaVuSans-65"/>
      <use x="1367.009766" xlink:href="#DejaVuSans-73"/>
      <use x="1419.109375" xlink:href="#DejaVuSans-74"/>
      <use x="1458.318359" xlink:href="#DejaVuSans-73"/>
      <use x="1510.417969" xlink:href="#DejaVuSans-20"/>
      <use x="1542.205078" xlink:href="#DejaVuSans-70"/>
      <use x="1605.681641" xlink:href="#DejaVuSans-65"/>
      <use x="1667.205078" xlink:href="#DejaVuSans-72"/>
      <use x="1708.318359" xlink:href="#DejaVuSans-20"/>
      <use x="1740.105469" xlink:href="#DejaVuSans-73"/>
      <use x="1792.205078" xlink:href="#DejaVuSans-65"/>
      <use x="1853.728516" xlink:href="#DejaVuSans-63"/>
      <use x="1908.708984" xlink:href="#DejaVuSans-6f"/>
      <use x="1969.890625" xlink:href="#DejaVuSans-6e"/>
      <use x="2033.269531" xlink:href="#DejaVuSans-64"/>
     </g>
    </g>
   </g>
   <g id="line2d_29">
    <path clip-path="url(#p73a670f202)" d="M 57.6 295.466719 
L 57.95712 295.488 
L 63.67104 284.977922 
L 64.02816 284.913414 
L 64.38528 284.338831 
L 64.7424 283.160405 
L 65.09952 282.696216 
L 65.81376 280.828822 
L 66.17088 281.176631 
L 66.528 280.217662 
L 66.88512 279.772095 
L 67.24224 278.558421 
L 67.59936 278.411451 
L 67.95648 277.726473 
L 68.3136 276.737579 
L 69.02784 276.182282 
L 69.38496 274.960628 
L 69.74208 275.044422 
L 70.45632 272.545252 
L 71.17056 271.209879 
L 71.52768 271.707319 
L 71.8848 270.790912 
L 72.24192 268.913543 
L 72.95616 268.700069 
L 73.31328 267.868121 
L 73.6704 266.683709 
L 74.02752 266.732256 
L 74.38464 265.008507 
L 74.74176 265.593066 
L 75.09888 263.846706 
L 75.456 264.302914 
L 75.81312 263.387173 
L 76.17024 263.137788 
L 76.52736 261.501823 
L 77.2416 260.580096 
L 77.59872 259.339822 
L 77.95584 259.784059 
L 78.31296 257.777675 
L 78.67008 259.264674 
L 79.38432 256.229493 
L 79.74144 257.677256 
L 80.09856 257.054126 
L 80.45568 253.851358 
L 80.8128 254.495104 
L 81.16992 254.51572 
L 81.88416 251.666082 
L 82.24128 252.271921 
L 82.5984 251.783126 
L 82.95552 250.012826 
L 83.31264 251.13007 
L 83.66976 248.887601 
L 84.02688 248.795162 
L 84.384 248.002451 
L 84.74112 247.87011 
L 85.09824 247.042153 
L 85.45536 247.014886 
L 85.81248 244.719215 
L 86.1696 246.519442 
L 86.52672 242.245982 
L 86.88384 244.314214 
L 87.24096 240.94253 
L 87.59808 243.07793 
L 87.9552 242.051129 
L 88.31232 241.719281 
L 88.66944 239.758118 
L 89.02656 240.257553 
L 89.38368 238.521169 
L 90.09792 238.108187 
L 90.45504 236.446951 
L 90.81216 238.55176 
L 91.16928 233.65783 
L 91.5264 236.319266 
L 91.88352 236.096482 
L 92.24064 232.211397 
L 92.59776 231.529745 
L 92.95488 232.626374 
L 93.66912 230.197032 
L 94.02624 230.180407 
L 94.38336 228.546437 
L 94.74048 230.577427 
L 95.0976 229.683632 
L 95.45472 227.757715 
L 95.81184 226.998255 
L 96.16896 225.000516 
L 96.52608 226.48286 
L 96.8832 224.036892 
L 97.59744 225.437438 
L 97.95456 222.386962 
L 98.31168 220.423804 
L 98.6688 219.780723 
L 99.38304 221.247771 
L 99.74016 219.541978 
L 100.09728 219.907078 
L 100.4544 221.797083 
L 100.81152 217.218376 
L 101.16864 218.128132 
L 101.52576 217.906678 
L 101.88288 219.267988 
L 102.24 214.476472 
L 102.59712 213.946446 
L 102.95424 212.579151 
L 103.31136 215.752658 
L 103.66848 213.371198 
L 104.0256 214.666669 
L 104.38272 210.496954 
L 104.73984 213.008093 
L 105.09696 213.325976 
L 105.45408 208.330297 
L 105.8112 208.630889 
L 106.16832 209.64173 
L 106.52544 205.217309 
L 106.88256 204.502405 
L 107.23968 207.2616 
L 107.5968 205.344994 
L 107.95392 204.211123 
L 108.31104 207.419876 
L 109.02528 201.082839 
L 109.3824 204.13531 
L 109.73952 203.671122 
L 110.09664 201.313603 
L 110.45376 200.578749 
L 110.81088 203.679102 
L 111.168 199.818624 
L 111.52512 201.461239 
L 111.88224 201.046928 
L 112.23936 199.694929 
L 112.59648 200.778257 
L 112.9536 193.686415 
L 113.31072 197.869431 
L 113.66784 196.143687 
L 114.02496 192.674909 
L 114.38208 197.601425 
L 114.7392 191.038279 
L 115.09632 196.174944 
L 115.45344 188.66879 
L 115.81056 191.306285 
L 116.16768 187.075387 
L 116.5248 189.613793 
L 116.88192 189.531994 
L 117.23904 191.214511 
L 117.59616 186.128389 
L 117.95328 190.029434 
L 118.3104 184.779715 
L 118.66752 188.877608 
L 119.38176 187.027505 
L 119.73888 182.11961 
L 120.096 184.242374 
L 120.45312 183.947767 
L 120.81024 185.889645 
L 121.16736 178.60428 
L 121.52448 179.594504 
L 121.8816 178.650167 
L 122.23872 177.385951 
L 122.59584 183.494884 
L 122.95296 179.194158 
L 123.31008 179.87581 
L 123.6672 175.85506 
L 124.02432 182.598429 
L 124.73856 182.101654 
L 125.4528 178.064278 
L 125.80992 178.821743 
L 126.16704 177.696519 
L 126.52416 177.959869 
L 126.88128 180.097264 
L 127.2384 174.094735 
L 127.59552 180.414482 
L 127.95264 173.804784 
L 128.30976 174.011607 
L 128.66688 172.451455 
L 129.024 173.854661 
L 129.38112 177.042798 
L 129.73824 178.783837 
L 130.09536 174.383357 
L 130.45248 172.923624 
L 130.8096 172.053769 
L 131.16672 172.962195 
L 131.52384 175.141487 
L 131.88096 171.874212 
L 132.23808 174.574219 
L 132.5952 171.519753 
L 132.95232 175.052373 
L 133.30944 169.855192 
L 133.66656 169.765413 
L 134.02368 169.496077 
L 134.3808 171.07618 
L 135.09504 166.853262 
L 135.45216 166.720257 
L 135.80928 166.944371 
L 136.1664 172.197415 
L 136.52352 171.391403 
L 136.88064 171.833645 
L 137.23776 170.786894 
L 137.59488 165.142814 
L 137.952 165.016459 
L 138.30912 167.373978 
L 138.66624 167.199076 
L 139.02336 164.755769 
L 139.38048 172.014532 
L 139.7376 170.619972 
L 140.09472 163.469608 
L 140.45184 164.840227 
L 140.80896 162.434161 
L 141.16608 168.796469 
L 141.5232 167.418535 
L 141.88032 165.253874 
L 142.23744 166.639124 
L 142.59456 164.808971 
L 142.95168 165.195351 
L 143.3088 168.05696 
L 144.02304 160.00482 
L 144.38016 160.371914 
L 144.73728 165.732693 
L 145.0944 161.162631 
L 145.45152 162.605738 
L 145.80864 161.243099 
L 146.16576 163.205592 
L 146.52288 162.190097 
L 146.88 164.289585 
L 147.23712 157.87341 
L 147.59424 166.941046 
L 147.95136 166.135034 
L 148.30848 161.535046 
L 148.6656 162.77 
L 149.02272 158.572353 
L 149.37984 159.093733 
L 149.73696 162.484038 
L 150.09408 158.013065 
L 150.4512 162.184111 
L 150.80832 156.436953 
L 151.52256 162.793276 
L 151.87968 163.288055 
L 152.2368 157.380625 
L 152.59392 162.783965 
L 152.95104 160.445067 
L 153.30816 159.307872 
L 153.66528 159.986864 
L 154.0224 156.114415 
L 154.37952 156.712939 
L 154.73664 154.261651 
L 155.45088 158.26511 
L 156.16512 152.536573 
L 156.87936 151.571619 
L 157.23648 158.555727 
L 157.5936 153.462954 
L 157.95072 160.423121 
L 158.30784 157.053432 
L 158.66496 154.880126 
L 159.02208 157.775651 
L 159.3792 156.838629 
L 160.09344 150.150458 
L 160.45056 158.9993 
L 160.80768 156.949688 
L 161.1648 155.690128 
L 161.52192 148.83437 
L 161.87904 152.706819 
L 162.23616 150.288118 
L 162.59328 151.704624 
L 162.9504 151.275682 
L 163.30752 149.347106 
L 163.66464 155.840424 
L 164.02176 154.833574 
L 164.37888 147.016188 
L 164.736 155.475324 
L 165.09312 148.57235 
L 165.45024 155.526532 
L 165.80736 152.003221 
L 166.16448 146.659069 
L 166.5216 155.468009 
L 167.23584 151.985266 
L 167.59296 148.797794 
L 167.95008 147.988457 
L 168.3072 149.037203 
L 168.66432 152.153517 
L 169.02144 145.117537 
L 169.37856 154.051503 
L 169.73568 147.086681 
L 170.0928 149.900408 
L 170.44992 151.630141 
L 170.80704 149.172204 
L 171.16416 149.468805 
L 171.52128 146.31525 
L 171.8784 147.483036 
L 172.23552 142.325756 
L 172.59264 143.406424 
L 172.94976 151.47386 
L 173.30688 143.349232 
L 173.664 151.840955 
L 174.02112 147.3221 
L 174.37824 141.238438 
L 174.73536 149.937649 
L 175.09248 145.793204 
L 175.4496 149.646368 
L 175.80672 142.642309 
L 176.16384 150.024768 
L 176.52096 140.167745 
L 176.87808 140.737008 
L 177.2352 149.388337 
L 177.59232 142.6729 
L 177.94944 149.039198 
L 178.30656 143.145734 
L 178.66368 149.265307 
L 179.0208 144.110022 
L 179.37792 140.746318 
L 179.73504 139.379024 
L 180.09216 142.866423 
L 180.44928 141.956002 
L 180.8064 139.954272 
L 181.16352 141.15398 
L 181.52064 138.825057 
L 181.87776 144.580196 
L 182.23488 137.894685 
L 182.592 139.246019 
L 182.94912 138.586313 
L 183.30624 144.227067 
L 183.66336 143.405094 
L 184.02048 144.953276 
L 184.3776 137.459093 
L 184.73472 138.667446 
L 185.09184 141.525729 
L 185.44896 140.699767 
L 185.80608 141.161295 
L 186.1632 136.508105 
L 186.52032 145.352957 
L 186.87744 138.584982 
L 187.23456 141.320901 
L 187.59168 142.983467 
L 187.9488 134.097384 
L 188.30592 140.042055 
L 188.66304 140.273485 
L 189.02016 133.457628 
L 189.37728 140.89994 
L 189.7344 134.608789 
L 190.09152 137.876064 
L 190.44864 137.628009 
L 190.80576 140.079962 
L 191.16288 135.785886 
L 191.52 135.364259 
L 191.87712 137.651285 
L 192.23424 133.965709 
L 192.59136 141.040925 
L 192.94848 136.13835 
L 193.3056 141.576937 
L 193.66272 135.529186 
L 194.01984 134.227064 
L 194.37696 134.595489 
L 194.73408 134.406621 
L 195.0912 138.177321 
L 195.44832 138.879589 
L 195.80544 138.674096 
L 196.16256 133.667777 
L 196.51968 133.059943 
L 196.8768 136.325888 
L 197.23392 129.252666 
L 197.59104 128.710005 
L 197.94816 137.762345 
L 198.30528 128.658798 
L 199.01952 132.238635 
L 199.37664 136.075838 
L 199.73376 136.320567 
L 200.09088 128.553723 
L 200.448 127.207045 
L 200.80512 136.185567 
L 201.16224 137.429832 
L 201.51936 127.21303 
L 201.87648 129.295228 
L 202.2336 126.95899 
L 202.59072 137.439142 
L 202.94784 131.043582 
L 203.30496 130.087274 
L 203.66208 131.338854 
L 204.0192 135.402831 
L 204.37632 133.695708 
L 204.73344 132.549202 
L 205.09056 132.444128 
L 205.44768 134.895416 
L 205.8048 126.551994 
L 206.16192 125.69677 
L 206.51904 125.899603 
L 206.87616 127.850125 
L 207.23328 127.296823 
L 207.5904 133.178317 
L 207.94752 130.322029 
L 208.30464 129.868481 
L 208.66176 131.255061 
L 209.01888 127.747711 
L 209.376 125.544479 
L 209.73312 131.183238 
L 210.09024 125.19933 
L 210.44736 122.879718 
L 210.80448 122.200061 
L 211.1616 133.309993 
L 211.51872 122.901664 
L 211.87584 127.804239 
L 212.23296 129.550598 
L 212.59008 124.421914 
L 212.9472 132.172132 
L 213.30432 121.985257 
L 213.66144 122.31112 
L 214.01856 121.593556 
L 214.7328 124.07078 
L 215.08992 126.027953 
L 215.44704 123.216886 
L 215.80416 129.597815 
L 216.16128 126.551329 
L 216.5184 128.717985 
L 216.87552 129.887101 
L 217.58976 128.575004 
L 218.304 122.638978 
L 218.66112 130.177053 
L 219.01824 123.702355 
L 219.37536 127.581455 
L 219.73248 121.554985 
L 220.0896 126.987586 
L 220.80384 117.854113 
L 221.16096 128.505841 
L 221.51808 120.639243 
L 222.23232 124.026888 
L 222.58944 126.020638 
L 222.94656 125.253197 
L 223.30368 119.728822 
L 223.6608 119.837222 
L 224.01792 122.80723 
L 224.37504 118.491208 
L 224.73216 119.988848 
L 225.08928 123.726296 
L 225.4464 125.017113 
L 225.80352 127.880717 
L 226.16064 123.096516 
L 226.51776 120.244883 
L 226.87488 126.489481 
L 227.232 118.478573 
L 227.58912 125.343641 
L 227.94624 119.890424 
L 228.30336 121.865552 
L 228.66048 117.177781 
L 229.37472 115.275805 
L 229.73184 125.051694 
L 230.08896 116.745514 
L 230.44608 118.974682 
L 230.8032 117.338717 
L 231.16032 114.174521 
L 231.51744 121.490477 
L 231.87456 117.978473 
L 232.23168 116.877854 
L 232.5888 119.416925 
L 232.94592 124.639378 
L 233.30304 120.062666 
L 233.66016 118.110813 
L 234.01728 121.526389 
L 234.3744 116.136349 
L 234.73152 115.716053 
L 235.08864 123.125112 
L 235.44576 112.855109 
L 235.80288 121.817005 
L 236.16 123.620557 
L 236.51712 115.624944 
L 236.87424 119.726827 
L 237.23136 115.89029 
L 237.58848 121.431955 
L 237.9456 119.41493 
L 238.30272 121.866217 
L 238.65984 116.89847 
L 239.01696 115.722703 
L 239.37408 116.297286 
L 239.7312 118.389459 
L 240.08832 117.815541 
L 240.44544 114.451172 
L 240.80256 112.812547 
L 241.15968 112.312447 
L 241.5168 119.139609 
L 241.87392 117.199062 
L 242.23104 111.140006 
L 242.58816 118.509829 
L 242.94528 115.354278 
L 243.3024 118.363523 
L 243.65952 108.501181 
L 244.01664 120.554785 
L 244.37376 114.207773 
L 244.73088 119.92434 
L 245.088 110.974414 
L 245.44512 112.354344 
L 245.80224 107.573469 
L 246.15936 115.14812 
L 246.51648 119.681605 
L 246.8736 107.48369 
L 247.23072 117.603398 
L 247.58784 118.890889 
L 247.94496 119.128303 
L 248.6592 106.777432 
L 249.01632 106.460879 
L 249.37344 107.866745 
L 249.73056 115.757284 
L 250.08768 113.6425 
L 250.4448 106.276667 
L 250.80192 109.978869 
L 251.15904 108.378816 
L 251.51616 108.963374 
L 251.87328 115.993369 
L 252.2304 111.008995 
L 252.94464 108.837019 
L 253.30176 113.169666 
L 253.65888 113.546736 
L 254.016 106.184228 
L 254.37312 114.425236 
L 254.73024 116.655735 
L 255.08736 108.402092 
L 255.44448 114.878784 
L 256.15872 106.433613 
L 256.51584 104.953929 
L 256.87296 105.046368 
L 257.23008 113.581983 
L 257.94432 111.959983 
L 258.30144 107.107285 
L 258.65856 111.613504 
L 259.01568 113.238829 
L 259.3728 102.679539 
L 259.72992 113.905851 
L 260.08704 113.77617 
L 260.44416 112.225994 
L 260.80128 103.086535 
L 261.1584 109.216084 
L 261.51552 105.195999 
L 261.87264 107.445119 
L 262.22976 105.118856 
L 262.58688 112.037126 
L 262.944 102.887692 
L 263.30112 102.670229 
L 263.65824 107.938568 
L 264.01536 104.354741 
L 264.37248 110.36126 
L 265.08672 103.224861 
L 265.44384 111.741854 
L 265.80096 106.603195 
L 266.15808 110.285447 
L 266.5152 104.296218 
L 266.87232 107.526917 
L 267.22944 104.504372 
L 267.58656 109.817933 
L 268.3008 99.090391 
L 268.65792 106.925068 
L 269.01504 98.128763 
L 269.37216 100.010123 
L 269.72928 103.522127 
L 270.0864 98.159354 
L 270.44352 107.051423 
L 270.80064 101.223796 
L 271.51488 105.736001 
L 271.872 109.645026 
L 272.22912 98.634183 
L 272.58624 102.320425 
L 272.94336 97.18243 
L 273.30048 106.600535 
L 273.6576 98.55837 
L 274.01472 100.040714 
L 274.37184 98.157359 
L 275.08608 108.040317 
L 275.4432 102.364316 
L 275.80032 105.543143 
L 276.15744 101.829635 
L 276.51456 99.632388 
L 276.87168 108.694038 
L 277.2288 101.140003 
L 277.58592 107.590094 
L 278.30016 98.81108 
L 278.65728 103.831365 
L 279.0144 106.395707 
L 279.37152 104.8442 
L 280.08576 95.681466 
L 280.44288 102.986781 
L 281.15712 100.596011 
L 281.87136 103.945749 
L 282.22848 98.786474 
L 282.5856 103.460945 
L 283.29984 105.470655 
L 283.65696 98.231842 
L 284.01408 97.893344 
L 284.3712 104.368706 
L 284.72832 101.933379 
L 285.08544 93.273405 
L 285.44256 102.921609 
L 286.1568 101.735866 
L 286.51392 94.302866 
L 287.22816 103.499517 
L 287.58528 94.5323 
L 288.29952 101.245077 
L 288.65664 94.563556 
L 289.01376 103.756882 
L 289.37088 92.472048 
L 289.728 101.690645 
L 290.08512 100.144458 
L 290.44224 91.248399 
L 290.79936 101.899463 
L 291.15648 92.632984 
L 291.5136 94.462472 
L 291.87072 91.14266 
L 292.22784 94.465132 
L 292.58496 101.906113 
L 292.94208 91.816332 
L 293.2992 89.982189 
L 293.65632 98.479897 
L 294.01344 93.278725 
L 294.37056 91.297611 
L 294.72768 93.327937 
L 295.0848 101.717911 
L 295.44192 97.8029 
L 295.79904 91.786406 
L 296.15616 89.581843 
L 296.51328 101.490472 
L 296.8704 101.08414 
L 297.22752 94.136609 
L 297.58464 94.265624 
L 297.94176 88.987974 
L 298.29888 90.88463 
L 298.656 98.682065 
L 299.01312 87.174447 
L 299.37024 88.151371 
L 299.72736 99.363052 
L 300.08448 95.713387 
L 300.4416 99.67761 
L 300.79872 98.521128 
L 301.15584 95.511884 
L 301.51296 94.073432 
L 301.87008 92.102958 
L 302.2272 88.836348 
L 302.58432 94.622743 
L 302.94144 90.366574 
L 303.29856 99.3165 
L 303.65568 92.948872 
L 304.0128 98.664109 
L 304.36992 96.837947 
L 304.72704 92.542541 
L 305.08416 93.979663 
L 305.44128 93.687716 
L 305.7984 99.331796 
L 306.15552 88.778491 
L 306.51264 88.424032 
L 306.86976 92.666901 
L 307.22688 85.742645 
L 307.584 91.977933 
L 307.94112 91.804361 
L 308.29824 87.929917 
L 308.65536 92.051751 
L 309.01248 85.525846 
L 309.3696 85.765921 
L 309.72672 93.572667 
L 310.08384 88.661446 
L 310.44096 90.574727 
L 311.1552 88.556372 
L 311.51232 85.230575 
L 311.86944 91.600198 
L 312.22656 82.830494 
L 312.58368 89.640365 
L 312.9408 89.347089 
L 313.29792 93.41306 
L 313.65504 88.477234 
L 314.01216 92.547196 
L 314.36928 91.65606 
L 314.7264 91.800371 
L 315.08352 95.443386 
L 315.44064 87.581443 
L 315.79776 93.031335 
L 316.15488 91.372094 
L 316.512 81.900787 
L 316.86912 83.065249 
L 317.22624 91.628794 
L 317.58336 89.363714 
L 317.94048 82.60106 
L 318.2976 92.793921 
L 318.65472 92.126899 
L 319.01184 80.340635 
L 319.36896 88.538416 
L 319.72608 88.413391 
L 320.0832 91.995224 
L 320.44032 92.325742 
L 320.79744 86.325873 
L 321.15456 82.577784 
L 321.51168 94.519664 
L 321.8688 94.368038 
L 322.22592 80.054009 
L 322.58304 82.09697 
L 322.94016 81.407338 
L 323.29728 83.545398 
L 323.6544 83.297343 
L 324.01152 89.151571 
L 324.36864 84.217074 
L 325.08288 90.307387 
L 325.44 79.250657 
L 325.79712 78.405408 
L 326.15424 87.544202 
L 326.51136 79.998147 
L 326.86848 84.547593 
L 327.2256 77.95585 
L 327.58272 86.976269 
L 327.93984 82.996751 
L 328.29696 80.927189 
L 328.65408 82.272537 
L 329.0112 80.523517 
L 329.36832 86.869865 
L 329.72544 89.402951 
L 330.08256 80.009452 
L 330.43968 90.636575 
L 330.7968 82.386922 
L 331.15392 88.921472 
L 331.51104 85.462669 
L 331.86816 86.572598 
L 332.22528 88.745905 
L 332.5824 78.318955 
L 332.93952 89.184822 
L 333.29664 86.289297 
L 333.65376 76.678999 
L 334.01088 78.930779 
L 334.368 89.402951 
L 334.72512 84.540277 
L 335.08224 88.979994 
L 335.43936 87.25292 
L 335.79648 78.265753 
L 336.1536 77.646613 
L 336.86784 87.62866 
L 337.22496 77.709791 
L 337.58208 80.038048 
L 337.9392 84.619415 
L 338.29632 87.528241 
L 338.65344 86.260036 
L 339.01056 74.42057 
L 339.36768 84.421238 
L 339.7248 76.724221 
L 340.79616 83.820719 
L 341.15328 85.011781 
L 341.5104 81.149972 
L 341.86752 87.11659 
L 342.22464 82.299803 
L 342.58176 80.431079 
L 342.93888 75.654194 
L 343.65312 79.775363 
L 344.01024 73.911159 
L 344.36736 78.549719 
L 344.72448 75.045695 
L 345.0816 81.33485 
L 345.43872 80.118516 
L 345.79584 73.520124 
L 346.15296 85.657522 
L 346.51008 75.145448 
L 346.8672 87.311443 
L 347.22432 78.189275 
L 347.58144 75.082271 
L 347.93856 75.30838 
L 348.29568 85.703409 
L 348.6528 75.398824 
L 349.00992 86.450233 
L 349.36704 85.610305 
L 349.72416 72.579776 
L 350.08128 84.98651 
L 350.4384 73.727612 
L 350.79552 76.007988 
L 351.15264 83.252121 
L 351.50976 80.4497 
L 351.86688 80.286103 
L 352.224 81.277657 
L 352.58112 70.682456 
L 352.93824 76.121042 
L 353.29536 73.879903 
L 353.65248 84.619415 
L 354.36672 76.665699 
L 354.72384 72.67554 
L 355.08096 84.340104 
L 355.43808 74.153894 
L 355.7952 80.47364 
L 356.15232 73.982317 
L 356.50944 76.091781 
L 356.86656 80.480291 
L 357.22368 71.145314 
L 357.5808 70.755609 
L 357.93792 81.60352 
L 358.29504 68.78048 
L 358.65216 80.690439 
L 359.00928 72.29315 
L 359.3664 80.894602 
L 359.72352 68.208557 
L 360.08064 80.764257 
L 360.43776 78.924129 
L 360.79488 82.793253 
L 361.152 79.384327 
L 361.50912 77.07735 
L 361.86624 78.356861 
L 362.22336 73.307315 
L 362.58048 72.566476 
L 362.9376 68.761194 
L 363.29472 67.135205 
L 364.00896 76.214811 
L 364.36608 76.760133 
L 364.7232 72.145514 
L 365.08032 80.618616 
L 365.43744 69.726813 
L 365.79456 78.158018 
L 366.15168 72.924925 
L 366.5088 71.585562 
L 366.86592 76.918409 
L 367.22304 69.823907 
L 367.58016 66.191532 
L 367.93728 76.710256 
L 368.2944 79.149573 
L 368.65152 75.872322 
L 369.00864 76.341831 
L 369.36576 75.243207 
L 369.72288 77.314765 
L 370.08 65.74663 
L 370.43712 80.556769 
L 370.79424 77.693165 
L 371.15136 71.571596 
L 371.50848 75.851042 
L 371.8656 68.117449 
L 372.22272 69.024545 
L 372.57984 75.143453 
L 373.29408 65.839733 
L 373.6512 74.988502 
L 374.00832 66.048552 
L 374.36544 77.06006 
L 374.72256 72.962832 
L 375.07968 75.016433 
L 375.79392 67.430477 
L 376.15104 70.006789 
L 376.50816 78.113462 
L 376.86528 74.594807 
L 377.2224 76.279984 
L 377.57952 63.711649 
L 377.93664 70.506889 
L 378.29376 72.0298 
L 378.65088 76.202176 
L 379.008 64.464459 
L 379.36512 76.049884 
L 379.72224 69.867799 
L 380.07936 75.504563 
L 380.43648 62.469379 
L 380.7936 66.76412 
L 381.15072 66.553972 
L 381.50784 72.313766 
L 381.86496 68.610233 
L 382.22208 61.784402 
L 382.5792 71.673345 
L 382.93632 75.211286 
L 383.29344 72.538545 
L 383.65056 66.164266 
L 384.00768 62.548517 
L 384.3648 62.254576 
L 384.72192 63.903176 
L 385.07904 61.072824 
L 385.43616 76.516068 
L 385.79328 74.480422 
L 386.1504 69.210752 
L 386.86464 62.603714 
L 387.22176 64.935962 
L 387.57888 75.826436 
L 387.936 69.737453 
L 388.29312 74.241678 
L 388.65024 63.797437 
L 389.00736 64.811602 
L 389.36448 74.202441 
L 389.7216 75.205301 
L 390.07872 64.032856 
L 390.43584 66.806682 
L 390.79296 72.516599 
L 391.15008 73.355197 
L 391.5072 72.651599 
L 391.86432 67.299466 
L 392.57856 72.083002 
L 392.93568 72.142854 
L 393.2928 72.585097 
L 393.64992 64.229039 
L 394.36416 66.706928 
L 394.72128 59.204764 
L 395.0784 74.620743 
L 395.43552 63.782806 
L 395.79264 58.605575 
L 396.14976 59.128286 
L 396.50688 58.283703 
L 396.864 66.653061 
L 397.22112 65.309707 
L 397.57824 58.602915 
L 397.93536 59.879766 
L 398.29248 67.076017 
L 398.6496 61.61748 
L 399.00672 63.466254 
L 399.36384 69.685581 
L 399.72096 58.276387 
L 400.07808 59.222055 
L 400.4352 70.726348 
L 400.79232 60.445039 
L 401.14944 59.447499 
L 401.50656 72.828496 
L 401.86368 64.030196 
L 402.2208 67.39922 
L 402.57792 71.997213 
L 402.93504 61.592209 
L 403.29216 64.914016 
L 403.64928 62.116915 
L 404.0064 66.670351 
L 404.36352 61.431273 
L 404.72064 66.156286 
L 405.07776 60.172378 
L 405.43488 56.391702 
L 405.792 65.048352 
L 406.14912 69.175506 
L 406.50624 58.4606 
L 406.86336 55.939484 
L 407.22048 69.792651 
L 407.5776 65.095569 
L 407.93472 70.53216 
L 408.29184 59.680258 
L 408.64896 63.24214 
L 409.00608 65.082268 
L 409.3632 69.748759 
L 409.72032 64.483744 
L 410.07744 56.386382 
L 410.43456 64.257635 
L 410.79168 58.815059 
L 411.1488 67.930576 
L 411.50592 67.946537 
L 411.86304 59.174173 
L 412.22016 62.988765 
L 412.57728 65.295077 
L 412.9344 59.077079 
L 413.29152 58.20656 
L 413.64864 64.151896 
L 414.00576 61.344154 
L 414.36288 53.568 
L 414.72 62.394231 
L 414.72 62.394231 
" style="fill:none;stroke:#000080;stroke-linecap:square;stroke-width:0.5;"/>
   </g>
   <g id="patch_3">
    <path d="M 57.6 307.584 
L 57.6 41.472 
" style="fill:none;stroke:#000000;stroke-linecap:square;stroke-linejoin:miter;stroke-width:0.8;"/>
   </g>
   <g id="patch_4">
    <path d="M 414.72 307.584 
L 414.72 41.472 
" style="fill:none;stroke:#000000;stroke-linecap:square;stroke-linejoin:miter;stroke-width:0.8;"/>
   </g>
   <g id="patch_5">
    <path d="M 57.6 307.584 
L 414.72 307.584 
" style="fill:none;stroke:#000000;stroke-linecap:square;stroke-linejoin:miter;stroke-width:0.8;"/>
   </g>
   <g id="patch_6">
    <path d="M 57.6 41.472 
L 414.72 41.472 
" style="fill:none;stroke:#000000;stroke-linecap:square;stroke-linejoin:miter;stroke-width:0.8;"/>
   </g>
   <g id="text_17">
    <!-- Test -->
    <defs>
     <path d="M -0.296875 72.90625 
L 61.375 72.90625 
L 61.375 64.59375 
L 35.5 64.59375 
L 35.5 0 
L 25.59375 0 
L 25.59375 64.59375 
L -0.296875 64.59375 
z
" id="DejaVuSans-54"/>
    </defs>
    <g transform="translate(223.341563 35.472)scale(0.12 -0.12)">
     <use xlink:href="#DejaVuSans-54"/>
     <use x="60.818359" xlink:href="#DejaVuSans-65"/>
     <use x="122.341797" xlink:href="#DejaVuSans-73"/>
     <use x="174.441406" xlink:href="#DejaVuSans-74"/>
    </g>
   </g>
   <g id="legend_1">
    <g id="patch_7">
     <path d="M 64.6 64.150125 
L 306.276563 64.150125 
Q 308.276563 64.150125 308.276563 62.150125 
L 308.276563 48.472 
Q 308.276563 46.472 306.276563 46.472 
L 64.6 46.472 
Q 62.6 46.472 62.6 48.472 
L 62.6 62.150125 
Q 62.6 64.150125 64.6 64.150125 
z
" style="fill:#ffffff;opacity:0.8;stroke:#cccccc;stroke-linejoin:miter;"/>
    </g>
    <g id="line2d_30">
     <path d="M 66.6 54.570438 
L 86.6 54.570438 
" style="fill:none;stroke:#000080;stroke-linecap:square;stroke-width:0.5;"/>
    </g>
    <g id="line2d_31"/>
    <g id="text_18">
     <!-- Successful download requests per second -->
     <g transform="translate(94.6 58.070438)scale(0.1 -0.1)">
      <use xlink:href="#DejaVuSans-53"/>
      <use x="63.476562" xlink:href="#DejaVuSans-75"/>
      <use x="126.855469" xlink:href="#DejaVuSans-63"/>
      <use x="181.835938" xlink:href="#DejaVuSans-63"/>
      <use x="236.816406" xlink:href="#DejaVuSans-65"/>
      <use x="298.339844" xlink:href="#DejaVuSans-73"/>
      <use x="350.439453" xlink:href="#DejaVuSans-73"/>
      <use x="402.539062" xlink:href="#DejaVuSans-66"/>
      <use x="437.744141" xlink:href="#DejaVuSans-75"/>
      <use x="501.123047" xlink:href="#DejaVuSans-6c"/>
      <use x="528.90625" xlink:href="#DejaVuSans-20"/>
      <use x="560.693359" xlink:href="#DejaVuSans-64"/>
      <use x="624.169922" xlink:href="#DejaVuSans-6f"/>
      <use x="685.351562" xlink:href="#DejaVuSans-77"/>
      <use x="767.138672" xlink:href="#DejaVuSans-6e"/>
      <use x="830.517578" xlink:href="#DejaVuSans-6c"/>
      <use x="858.300781" xlink:href="#DejaVuSans-6f"/>
      <use x="919.482422" xlink:href="#DejaVuSans-61"/>
      <use x="980.761719" xlink:href="#DejaVuSans-64"/>
      <use x="1044.238281" xlink:href="#DejaVuSans-20"/>
      <use x="1076.025391" xlink:href="#DejaVuSans-72"/>
      <use x="1117.107422" xlink:href="#DejaVuSans-65"/>
      <use x="1178.630859" xlink:href="#DejaVuSans-71"/>
      <use x="1242.107422" xlink:href="#DejaVuSans-75"/>
      <use x="1305.486328" xlink:href="#DejaVuSans-65"/>
      <use x="1367.009766" xlink:href="#DejaVuSans-73"/>
      <use x="1419.109375" xlink:href="#DejaVuSans-74"/>
      <use x="1458.318359" xlink:href="#DejaVuSans-73"/>
      <use x="1510.417969" xlink:href="#DejaVuSans-20"/>
      <use x="1542.205078" xlink:href="#DejaVuSans-70"/>
      <use x="1605.681641" xlink:href="#DejaVuSans-65"/>
      <use x="1667.205078" xlink:href="#DejaVuSans-72"/>
      <use x="1708.318359" xlink:href="#DejaVuSans-20"/>
      <use x="1740.105469" xlink:href="#DejaVuSans-73"/>
      <use x="1792.205078" xlink:href="#DejaVuSans-65"/>
      <use x="1853.728516" xlink:href="#DejaVuSans-63"/>
      <use x="1908.708984" xlink:href="#DejaVuSans-6f"/>
      <use x="1969.890625" xlink:href="#DejaVuSans-6e"/>
      <use x="2033.269531" xlink:href="#DejaVuSans-64"/>
     </g>
    </g>
   </g>
  </g>
 </g>
 <defs>
  <clipPath id="p73a670f202">
   <rect height="266.112" width="357.12" x="57.6" y="41.472"/>
  </clipPath>
 </defs>
</svg>
