<?xml version="1.0" encoding="utf-8" standalone="no"?>
<!DOCTYPE svg PUBLIC "-//W3C//DTD SVG 1.1//EN"
  "http://www.w3.org/Graphics/SVG/1.1/DTD/svg11.dtd">
<!-- Created with matplotlib (http://matplotlib.org/) -->
<svg height="345pt" version="1.1" viewBox="0 0 460 345" width="460pt" xmlns="http://www.w3.org/2000/svg" xmlns:xlink="http://www.w3.org/1999/xlink">
 <defs>
  <style type="text/css">
*{stroke-linecap:butt;stroke-linejoin:round;}
  </style>
 </defs>
 <g id="figure_1">
  <g id="patch_1">
   <path d="M 0 345.6 
L 460.8 345.6 
L 460.8 0 
L 0 0 
z
" style="fill:#ffffff;"/>
  </g>
  <g id="axes_1">
   <g id="patch_2">
    <path d="M 57.6 307.584 
L 414.72 307.584 
L 414.72 41.472 
L 57.6 41.472 
z
" style="fill:#ffffff;"/>
   </g>
   <g id="matplotlib.axis_1">
    <g id="xtick_1">
     <g id="line2d_1">
      <path clip-path="url(#p5742e4a4d2)" d="M 57.6 307.584 
L 57.6 41.472 
" style="fill:none;stroke:#b0b0b0;stroke-linecap:square;stroke-width:0.8;"/>
     </g>
     <g id="line2d_2">
      <defs>
       <path d="M 0 0 
L 0 3.5 
" id="m45647cd07f" style="stroke:#000000;stroke-width:0.8;"/>
      </defs>
      <g>
       <use style="stroke:#000000;stroke-width:0.8;" x="57.6" xlink:href="#m45647cd07f" y="307.584"/>
      </g>
     </g>
     <g id="text_1">
      <!-- 0 -->
      <defs>
       <path d="M 31.78125 66.40625 
Q 24.171875 66.40625 20.328125 58.90625 
Q 16.5 51.421875 16.5 36.375 
Q 16.5 21.390625 20.328125 13.890625 
Q 24.171875 6.390625 31.78125 6.390625 
Q 39.453125 6.390625 43.28125 13.890625 
Q 47.125 21.390625 47.125 36.375 
Q 47.125 51.421875 43.28125 58.90625 
Q 39.453125 66.40625 31.78125 66.40625 
M 31.78125 74.21875 
Q 44.046875 74.21875 50.515625 64.515625 
Q 56.984375 54.828125 56.984375 36.375 
Q 56.984375 17.96875 50.515625 8.265625 
Q 44.046875 -1.421875 31.78125 -1.421875 
Q 19.53125 -1.421875 13.0625 8.265625 
Q 6.59375 17.96875 6.59375 36.375 
Q 6.59375 54.828125 13.0625 64.515625 
Q 19.53125 74.21875 31.78125 74.21875 
" id="DejaVuSans-30"/>
      </defs>
      <g transform="translate(54.41875 322.182437)scale(0.1 -0.1)">
       <use xlink:href="#DejaVuSans-30"/>
      </g>
     </g>
    </g>
    <g id="xtick_2">
     <g id="line2d_3">
      <path clip-path="url(#p5742e4a4d2)" d="M 129.024 307.584 
L 129.024 41.472 
" style="fill:none;stroke:#b0b0b0;stroke-linecap:square;stroke-width:0.8;"/>
     </g>
     <g id="line2d_4">
      <g>
       <use style="stroke:#000000;stroke-width:0.8;" x="129.024" xlink:href="#m45647cd07f" y="307.584"/>
      </g>
     </g>
     <g id="text_2">
      <!-- 200 -->
      <defs>
       <path d="M 19.1875 8.296875 
L 53.609375 8.296875 
L 53.609375 0 
L 7.328125 0 
L 7.328125 8.296875 
Q 12.9375 14.109375 22.625 23.890625 
Q 32.328125 33.6875 34.8125 36.53125 
Q 39.546875 41.84375 41.421875 45.53125 
Q 43.3125 49.21875 43.3125 52.78125 
Q 43.3125 58.59375 39.234375 62.25 
Q 35.15625 65.921875 28.609375 65.921875 
Q 23.96875 65.921875 18.8125 64.3125 
Q 13.671875 62.703125 7.8125 59.421875 
L 7.8125 69.390625 
Q 13.765625 71.78125 18.9375 73 
Q 24.125 74.21875 28.421875 74.21875 
Q 39.75 74.21875 46.484375 68.546875 
Q 53.21875 62.890625 53.21875 53.421875 
Q 53.21875 48.921875 51.53125 44.890625 
Q 49.859375 40.875 45.40625 35.40625 
Q 44.1875 33.984375 37.640625 27.21875 
Q 31.109375 20.453125 19.1875 8.296875 
" id="DejaVuSans-32"/>
      </defs>
      <g transform="translate(119.48025 322.182437)scale(0.1 -0.1)">
       <use xlink:href="#DejaVuSans-32"/>
       <use x="63.623047" xlink:href="#DejaVuSans-30"/>
       <use x="127.246094" xlink:href="#DejaVuSans-30"/>
      </g>
     </g>
    </g>
    <g id="xtick_3">
     <g id="line2d_5">
      <path clip-path="url(#p5742e4a4d2)" d="M 200.448 307.584 
L 200.448 41.472 
" style="fill:none;stroke:#b0b0b0;stroke-linecap:square;stroke-width:0.8;"/>
     </g>
     <g id="line2d_6">
      <g>
       <use style="stroke:#000000;stroke-width:0.8;" x="200.448" xlink:href="#m45647cd07f" y="307.584"/>
      </g>
     </g>
     <g id="text_3">
      <!-- 400 -->
      <defs>
       <path d="M 37.796875 64.3125 
L 12.890625 25.390625 
L 37.796875 25.390625 
z
M 35.203125 72.90625 
L 47.609375 72.90625 
L 47.609375 25.390625 
L 58.015625 25.390625 
L 58.015625 17.1875 
L 47.609375 17.1875 
L 47.609375 0 
L 37.796875 0 
L 37.796875 17.1875 
L 4.890625 17.1875 
L 4.890625 26.703125 
z
" id="DejaVuSans-34"/>
      </defs>
      <g transform="translate(190.90425 322.182437)scale(0.1 -0.1)">
       <use xlink:href="#DejaVuSans-34"/>
       <use x="63.623047" xlink:href="#DejaVuSans-30"/>
       <use x="127.246094" xlink:href="#DejaVuSans-30"/>
      </g>
     </g>
    </g>
    <g id="xtick_4">
     <g id="line2d_7">
      <path clip-path="url(#p5742e4a4d2)" d="M 271.872 307.584 
L 271.872 41.472 
" style="fill:none;stroke:#b0b0b0;stroke-linecap:square;stroke-width:0.8;"/>
     </g>
     <g id="line2d_8">
      <g>
       <use style="stroke:#000000;stroke-width:0.8;" x="271.872" xlink:href="#m45647cd07f" y="307.584"/>
      </g>
     </g>
     <g id="text_4">
      <!-- 600 -->
      <defs>
       <path d="M 33.015625 40.375 
Q 26.375 40.375 22.484375 35.828125 
Q 18.609375 31.296875 18.609375 23.390625 
Q 18.609375 15.53125 22.484375 10.953125 
Q 26.375 6.390625 33.015625 6.390625 
Q 39.65625 6.390625 43.53125 10.953125 
Q 47.40625 15.53125 47.40625 23.390625 
Q 47.40625 31.296875 43.53125 35.828125 
Q 39.65625 40.375 33.015625 40.375 
M 52.59375 71.296875 
L 52.59375 62.3125 
Q 48.875 64.0625 45.09375 64.984375 
Q 41.3125 65.921875 37.59375 65.921875 
Q 27.828125 65.921875 22.671875 59.328125 
Q 17.53125 52.734375 16.796875 39.40625 
Q 19.671875 43.65625 24.015625 45.921875 
Q 28.375 48.1875 33.59375 48.1875 
Q 44.578125 48.1875 50.953125 41.515625 
Q 57.328125 34.859375 57.328125 23.390625 
Q 57.328125 12.15625 50.6875 5.359375 
Q 44.046875 -1.421875 33.015625 -1.421875 
Q 20.359375 -1.421875 13.671875 8.265625 
Q 6.984375 17.96875 6.984375 36.375 
Q 6.984375 53.65625 15.1875 63.9375 
Q 23.390625 74.21875 37.203125 74.21875 
Q 40.921875 74.21875 44.703125 73.484375 
Q 48.484375 72.75 52.59375 71.296875 
" id="DejaVuSans-36"/>
      </defs>
      <g transform="translate(262.32825 322.182437)scale(0.1 -0.1)">
       <use xlink:href="#DejaVuSans-36"/>
       <use x="63.623047" xlink:href="#DejaVuSans-30"/>
       <use x="127.246094" xlink:href="#DejaVuSans-30"/>
      </g>
     </g>
    </g>
    <g id="xtick_5">
     <g id="line2d_9">
      <path clip-path="url(#p5742e4a4d2)" d="M 343.296 307.584 
L 343.296 41.472 
" style="fill:none;stroke:#b0b0b0;stroke-linecap:square;stroke-width:0.8;"/>
     </g>
     <g id="line2d_10">
      <g>
       <use style="stroke:#000000;stroke-width:0.8;" x="343.296" xlink:href="#m45647cd07f" y="307.584"/>
      </g>
     </g>
     <g id="text_5">
      <!-- 800 -->
      <defs>
       <path d="M 31.78125 34.625 
Q 24.75 34.625 20.71875 30.859375 
Q 16.703125 27.09375 16.703125 20.515625 
Q 16.703125 13.921875 20.71875 10.15625 
Q 24.75 6.390625 31.78125 6.390625 
Q 38.8125 6.390625 42.859375 10.171875 
Q 46.921875 13.96875 46.921875 20.515625 
Q 46.921875 27.09375 42.890625 30.859375 
Q 38.875 34.625 31.78125 34.625 
M 21.921875 38.8125 
Q 15.578125 40.375 12.03125 44.71875 
Q 8.5 49.078125 8.5 55.328125 
Q 8.5 64.0625 14.71875 69.140625 
Q 20.953125 74.21875 31.78125 74.21875 
Q 42.671875 74.21875 48.875 69.140625 
Q 55.078125 64.0625 55.078125 55.328125 
Q 55.078125 49.078125 51.53125 44.71875 
Q 48 40.375 41.703125 38.8125 
Q 48.828125 37.15625 52.796875 32.3125 
Q 56.78125 27.484375 56.78125 20.515625 
Q 56.78125 9.90625 50.3125 4.234375 
Q 43.84375 -1.421875 31.78125 -1.421875 
Q 19.734375 -1.421875 13.25 4.234375 
Q 6.78125 9.90625 6.78125 20.515625 
Q 6.78125 27.484375 10.78125 32.3125 
Q 14.796875 37.15625 21.921875 38.8125 
M 18.3125 54.390625 
Q 18.3125 48.734375 21.84375 45.5625 
Q 25.390625 42.390625 31.78125 42.390625 
Q 38.140625 42.390625 41.71875 45.5625 
Q 45.3125 48.734375 45.3125 54.390625 
Q 45.3125 60.0625 41.71875 63.234375 
Q 38.140625 66.40625 31.78125 66.40625 
Q 25.390625 66.40625 21.84375 63.234375 
Q 18.3125 60.0625 18.3125 54.390625 
" id="DejaVuSans-38"/>
      </defs>
      <g transform="translate(333.75225 322.182437)scale(0.1 -0.1)">
       <use xlink:href="#DejaVuSans-38"/>
       <use x="63.623047" xlink:href="#DejaVuSans-30"/>
       <use x="127.246094" xlink:href="#DejaVuSans-30"/>
      </g>
     </g>
    </g>
    <g id="xtick_6">
     <g id="line2d_11">
      <path clip-path="url(#p5742e4a4d2)" d="M 414.72 307.584 
L 414.72 41.472 
" style="fill:none;stroke:#b0b0b0;stroke-linecap:square;stroke-width:0.8;"/>
     </g>
     <g id="line2d_12">
      <g>
       <use style="stroke:#000000;stroke-width:0.8;" x="414.72" xlink:href="#m45647cd07f" y="307.584"/>
      </g>
     </g>
     <g id="text_6">
      <!-- 1000 -->
      <defs>
       <path d="M 12.40625 8.296875 
L 28.515625 8.296875 
L 28.515625 63.921875 
L 10.984375 60.40625 
L 10.984375 69.390625 
L 28.421875 72.90625 
L 38.28125 72.90625 
L 38.28125 8.296875 
L 54.390625 8.296875 
L 54.390625 0 
L 12.40625 0 
z
" id="DejaVuSans-31"/>
      </defs>
      <g transform="translate(401.995 322.182437)scale(0.1 -0.1)">
       <use xlink:href="#DejaVuSans-31"/>
       <use x="63.623047" xlink:href="#DejaVuSans-30"/>
       <use x="127.246094" xlink:href="#DejaVuSans-30"/>
       <use x="190.869141" xlink:href="#DejaVuSans-30"/>
      </g>
     </g>
    </g>
    <g id="text_7">
     <!-- Number of clients -->
     <defs>
      <path d="M 9.8125 72.90625 
L 23.09375 72.90625 
L 55.421875 11.921875 
L 55.421875 72.90625 
L 64.984375 72.90625 
L 64.984375 0 
L 51.703125 0 
L 19.390625 60.984375 
L 19.390625 0 
L 9.8125 0 
z
" id="DejaVuSans-4e"/>
      <path d="M 8.5 21.578125 
L 8.5 54.6875 
L 17.484375 54.6875 
L 17.484375 21.921875 
Q 17.484375 14.15625 20.5 10.265625 
Q 23.53125 6.390625 29.59375 6.390625 
Q 36.859375 6.390625 41.078125 11.03125 
Q 45.3125 15.671875 45.3125 23.6875 
L 45.3125 54.6875 
L 54.296875 54.6875 
L 54.296875 0 
L 45.3125 0 
L 45.3125 8.40625 
Q 42.046875 3.421875 37.71875 1 
Q 33.40625 -1.421875 27.6875 -1.421875 
Q 18.265625 -1.421875 13.375 4.4375 
Q 8.5 10.296875 8.5 21.578125 
M 31.109375 56 
z
" id="DejaVuSans-75"/>
      <path d="M 52 44.1875 
Q 55.375 50.25 60.0625 53.125 
Q 64.75 56 71.09375 56 
Q 79.640625 56 84.28125 50.015625 
Q 88.921875 44.046875 88.921875 33.015625 
L 88.921875 0 
L 79.890625 0 
L 79.890625 32.71875 
Q 79.890625 40.578125 77.09375 44.375 
Q 74.3125 48.1875 68.609375 48.1875 
Q 61.625 48.1875 57.5625 43.546875 
Q 53.515625 38.921875 53.515625 30.90625 
L 53.515625 0 
L 44.484375 0 
L 44.484375 32.71875 
Q 44.484375 40.625 41.703125 44.40625 
Q 38.921875 48.1875 33.109375 48.1875 
Q 26.21875 48.1875 22.15625 43.53125 
Q 18.109375 38.875 18.109375 30.90625 
L 18.109375 0 
L 9.078125 0 
L 9.078125 54.6875 
L 18.109375 54.6875 
L 18.109375 46.1875 
Q 21.1875 51.21875 25.484375 53.609375 
Q 29.78125 56 35.6875 56 
Q 41.65625 56 45.828125 52.96875 
Q 50 49.953125 52 44.1875 
" id="DejaVuSans-6d"/>
      <path d="M 48.6875 27.296875 
Q 48.6875 37.203125 44.609375 42.84375 
Q 40.53125 48.484375 33.40625 48.484375 
Q 26.265625 48.484375 22.1875 42.84375 
Q 18.109375 37.203125 18.109375 27.296875 
Q 18.109375 17.390625 22.1875 11.75 
Q 26.265625 6.109375 33.40625 6.109375 
Q 40.53125 6.109375 44.609375 11.75 
Q 48.6875 17.390625 48.6875 27.296875 
M 18.109375 46.390625 
Q 20.953125 51.265625 25.265625 53.625 
Q 29.59375 56 35.59375 56 
Q 45.5625 56 51.78125 48.09375 
Q 58.015625 40.1875 58.015625 27.296875 
Q 58.015625 14.40625 51.78125 6.484375 
Q 45.5625 -1.421875 35.59375 -1.421875 
Q 29.59375 -1.421875 25.265625 0.953125 
Q 20.953125 3.328125 18.109375 8.203125 
L 18.109375 0 
L 9.078125 0 
L 9.078125 75.984375 
L 18.109375 75.984375 
z
" id="DejaVuSans-62"/>
      <path d="M 56.203125 29.59375 
L 56.203125 25.203125 
L 14.890625 25.203125 
Q 15.484375 15.921875 20.484375 11.0625 
Q 25.484375 6.203125 34.421875 6.203125 
Q 39.59375 6.203125 44.453125 7.46875 
Q 49.3125 8.734375 54.109375 11.28125 
L 54.109375 2.78125 
Q 49.265625 0.734375 44.1875 -0.34375 
Q 39.109375 -1.421875 33.890625 -1.421875 
Q 20.796875 -1.421875 13.15625 6.1875 
Q 5.515625 13.8125 5.515625 26.8125 
Q 5.515625 40.234375 12.765625 48.109375 
Q 20.015625 56 32.328125 56 
Q 43.359375 56 49.78125 48.890625 
Q 56.203125 41.796875 56.203125 29.59375 
M 47.21875 32.234375 
Q 47.125 39.59375 43.09375 43.984375 
Q 39.0625 48.390625 32.421875 48.390625 
Q 24.90625 48.390625 20.390625 44.140625 
Q 15.875 39.890625 15.1875 32.171875 
z
" id="DejaVuSans-65"/>
      <path d="M 41.109375 46.296875 
Q 39.59375 47.171875 37.8125 47.578125 
Q 36.03125 48 33.890625 48 
Q 26.265625 48 22.1875 43.046875 
Q 18.109375 38.09375 18.109375 28.8125 
L 18.109375 0 
L 9.078125 0 
L 9.078125 54.6875 
L 18.109375 54.6875 
L 18.109375 46.1875 
Q 20.953125 51.171875 25.484375 53.578125 
Q 30.03125 56 36.53125 56 
Q 37.453125 56 38.578125 55.875 
Q 39.703125 55.765625 41.0625 55.515625 
z
" id="DejaVuSans-72"/>
      <path id="DejaVuSans-20"/>
      <path d="M 30.609375 48.390625 
Q 23.390625 48.390625 19.1875 42.75 
Q 14.984375 37.109375 14.984375 27.296875 
Q 14.984375 17.484375 19.15625 11.84375 
Q 23.34375 6.203125 30.609375 6.203125 
Q 37.796875 6.203125 41.984375 11.859375 
Q 46.1875 17.53125 46.1875 27.296875 
Q 46.1875 37.015625 41.984375 42.703125 
Q 37.796875 48.390625 30.609375 48.390625 
M 30.609375 56 
Q 42.328125 56 49.015625 48.375 
Q 55.71875 40.765625 55.71875 27.296875 
Q 55.71875 13.875 49.015625 6.21875 
Q 42.328125 -1.421875 30.609375 -1.421875 
Q 18.84375 -1.421875 12.171875 6.21875 
Q 5.515625 13.875 5.515625 27.296875 
Q 5.515625 40.765625 12.171875 48.375 
Q 18.84375 56 30.609375 56 
" id="DejaVuSans-6f"/>
      <path d="M 37.109375 75.984375 
L 37.109375 68.5 
L 28.515625 68.5 
Q 23.6875 68.5 21.796875 66.546875 
Q 19.921875 64.59375 19.921875 59.515625 
L 19.921875 54.6875 
L 34.71875 54.6875 
L 34.71875 47.703125 
L 19.921875 47.703125 
L 19.921875 0 
L 10.890625 0 
L 10.890625 47.703125 
L 2.296875 47.703125 
L 2.296875 54.6875 
L 10.890625 54.6875 
L 10.890625 58.5 
Q 10.890625 67.625 15.140625 71.796875 
Q 19.390625 75.984375 28.609375 75.984375 
z
" id="DejaVuSans-66"/>
      <path d="M 48.78125 52.59375 
L 48.78125 44.1875 
Q 44.96875 46.296875 41.140625 47.34375 
Q 37.3125 48.390625 33.40625 48.390625 
Q 24.65625 48.390625 19.8125 42.84375 
Q 14.984375 37.3125 14.984375 27.296875 
Q 14.984375 17.28125 19.8125 11.734375 
Q 24.65625 6.203125 33.40625 6.203125 
Q 37.3125 6.203125 41.140625 7.25 
Q 44.96875 8.296875 48.78125 10.40625 
L 48.78125 2.09375 
Q 45.015625 0.34375 40.984375 -0.53125 
Q 36.96875 -1.421875 32.421875 -1.421875 
Q 20.0625 -1.421875 12.78125 6.34375 
Q 5.515625 14.109375 5.515625 27.296875 
Q 5.515625 40.671875 12.859375 48.328125 
Q 20.21875 56 33.015625 56 
Q 37.15625 56 41.109375 55.140625 
Q 45.0625 54.296875 48.78125 52.59375 
" id="DejaVuSans-63"/>
      <path d="M 9.421875 75.984375 
L 18.40625 75.984375 
L 18.40625 0 
L 9.421875 0 
z
" id="DejaVuSans-6c"/>
      <path d="M 9.421875 54.6875 
L 18.40625 54.6875 
L 18.40625 0 
L 9.421875 0 
z
M 9.421875 75.984375 
L 18.40625 75.984375 
L 18.40625 64.59375 
L 9.421875 64.59375 
z
" id="DejaVuSans-69"/>
      <path d="M 54.890625 33.015625 
L 54.890625 0 
L 45.90625 0 
L 45.90625 32.71875 
Q 45.90625 40.484375 42.875 44.328125 
Q 39.84375 48.1875 33.796875 48.1875 
Q 26.515625 48.1875 22.3125 43.546875 
Q 18.109375 38.921875 18.109375 30.90625 
L 18.109375 0 
L 9.078125 0 
L 9.078125 54.6875 
L 18.109375 54.6875 
L 18.109375 46.1875 
Q 21.34375 51.125 25.703125 53.5625 
Q 30.078125 56 35.796875 56 
Q 45.21875 56 50.046875 50.171875 
Q 54.890625 44.34375 54.890625 33.015625 
" id="DejaVuSans-6e"/>
      <path d="M 18.3125 70.21875 
L 18.3125 54.6875 
L 36.8125 54.6875 
L 36.8125 47.703125 
L 18.3125 47.703125 
L 18.3125 18.015625 
Q 18.3125 11.328125 20.140625 9.421875 
Q 21.96875 7.515625 27.59375 7.515625 
L 36.8125 7.515625 
L 36.8125 0 
L 27.59375 0 
Q 17.1875 0 13.234375 3.875 
Q 9.28125 7.765625 9.28125 18.015625 
L 9.28125 47.703125 
L 2.6875 47.703125 
L 2.6875 54.6875 
L 9.28125 54.6875 
L 9.28125 70.21875 
z
" id="DejaVuSans-74"/>
      <path d="M 44.28125 53.078125 
L 44.28125 44.578125 
Q 40.484375 46.53125 36.375 47.5 
Q 32.28125 48.484375 27.875 48.484375 
Q 21.1875 48.484375 17.84375 46.4375 
Q 14.5 44.390625 14.5 40.28125 
Q 14.5 37.15625 16.890625 35.375 
Q 19.28125 33.59375 26.515625 31.984375 
L 29.59375 31.296875 
Q 39.15625 29.25 43.1875 25.515625 
Q 47.21875 21.78125 47.21875 15.09375 
Q 47.21875 7.46875 41.1875 3.015625 
Q 35.15625 -1.421875 24.609375 -1.421875 
Q 20.21875 -1.421875 15.453125 -0.5625 
Q 10.6875 0.296875 5.421875 2 
L 5.421875 11.28125 
Q 10.40625 8.6875 15.234375 7.390625 
Q 20.0625 6.109375 24.8125 6.109375 
Q 31.15625 6.109375 34.5625 8.28125 
Q 37.984375 10.453125 37.984375 14.40625 
Q 37.984375 18.0625 35.515625 20.015625 
Q 33.0625 21.96875 24.703125 23.78125 
L 21.578125 24.515625 
Q 13.234375 26.265625 9.515625 29.90625 
Q 5.8125 33.546875 5.8125 39.890625 
Q 5.8125 47.609375 11.28125 51.796875 
Q 16.75 56 26.8125 56 
Q 31.78125 56 36.171875 55.265625 
Q 40.578125 54.546875 44.28125 53.078125 
" id="DejaVuSans-73"/>
     </defs>
     <g transform="translate(191.738906 335.860562)scale(0.1 -0.1)">
      <use xlink:href="#DejaVuSans-4e"/>
      <use x="74.804688" xlink:href="#DejaVuSans-75"/>
      <use x="138.183594" xlink:href="#DejaVuSans-6d"/>
      <use x="235.595703" xlink:href="#DejaVuSans-62"/>
      <use x="299.072266" xlink:href="#DejaVuSans-65"/>
      <use x="360.595703" xlink:href="#DejaVuSans-72"/>
      <use x="401.708984" xlink:href="#DejaVuSans-20"/>
      <use x="433.496094" xlink:href="#DejaVuSans-6f"/>
      <use x="494.677734" xlink:href="#DejaVuSans-66"/>
      <use x="529.882812" xlink:href="#DejaVuSans-20"/>
      <use x="561.669922" xlink:href="#DejaVuSans-63"/>
      <use x="616.650391" xlink:href="#DejaVuSans-6c"/>
      <use x="644.433594" xlink:href="#DejaVuSans-69"/>
      <use x="672.216797" xlink:href="#DejaVuSans-65"/>
      <use x="733.740234" xlink:href="#DejaVuSans-6e"/>
      <use x="797.119141" xlink:href="#DejaVuSans-74"/>
      <use x="836.328125" xlink:href="#DejaVuSans-73"/>
     </g>
    </g>
   </g>
   <g id="matplotlib.axis_2">
    <g id="ytick_1">
     <g id="line2d_13">
      <path clip-path="url(#p5742e4a4d2)" d="M 57.6 295.950911 
L 414.72 295.950911 
" style="fill:none;stroke:#b0b0b0;stroke-linecap:square;stroke-width:0.8;"/>
     </g>
     <g id="line2d_14">
      <defs>
       <path d="M 0 0 
L -3.5 0 
" id="m0520c0e01e" style="stroke:#000000;stroke-width:0.8;"/>
      </defs>
      <g>
       <use style="stroke:#000000;stroke-width:0.8;" x="57.6" xlink:href="#m0520c0e01e" y="295.950911"/>
      </g>
     </g>
     <g id="text_8">
      <!-- 0 -->
      <g transform="translate(44.2375 299.750129)scale(0.1 -0.1)">
       <use xlink:href="#DejaVuSans-30"/>
      </g>
     </g>
    </g>
    <g id="ytick_2">
     <g id="line2d_15">
      <path clip-path="url(#p5742e4a4d2)" d="M 57.6 247.22348 
L 414.72 247.22348 
" style="fill:none;stroke:#b0b0b0;stroke-linecap:square;stroke-width:0.8;"/>
     </g>
     <g id="line2d_16">
      <g>
       <use style="stroke:#000000;stroke-width:0.8;" x="57.6" xlink:href="#m0520c0e01e" y="247.22348"/>
      </g>
     </g>
     <g id="text_9">
      <!-- 100 -->
      <g transform="translate(31.5125 251.022698)scale(0.1 -0.1)">
       <use xlink:href="#DejaVuSans-31"/>
       <use x="63.623047" xlink:href="#DejaVuSans-30"/>
       <use x="127.246094" xlink:href="#DejaVuSans-30"/>
      </g>
     </g>
    </g>
    <g id="ytick_3">
     <g id="line2d_17">
      <path clip-path="url(#p5742e4a4d2)" d="M 57.6 198.496049 
L 414.72 198.496049 
" style="fill:none;stroke:#b0b0b0;stroke-linecap:square;stroke-width:0.8;"/>
     </g>
     <g id="line2d_18">
      <g>
       <use style="stroke:#000000;stroke-width:0.8;" x="57.6" xlink:href="#m0520c0e01e" y="198.496049"/>
      </g>
     </g>
     <g id="text_10">
      <!-- 200 -->
      <g transform="translate(31.5125 202.295267)scale(0.1 -0.1)">
       <use xlink:href="#DejaVuSans-32"/>
       <use x="63.623047" xlink:href="#DejaVuSans-30"/>
       <use x="127.246094" xlink:href="#DejaVuSans-30"/>
      </g>
     </g>
    </g>
    <g id="ytick_4">
     <g id="line2d_19">
      <path clip-path="url(#p5742e4a4d2)" d="M 57.6 149.768618 
L 414.72 149.768618 
" style="fill:none;stroke:#b0b0b0;stroke-linecap:square;stroke-width:0.8;"/>
     </g>
     <g id="line2d_20">
      <g>
       <use style="stroke:#000000;stroke-width:0.8;" x="57.6" xlink:href="#m0520c0e01e" y="149.768618"/>
      </g>
     </g>
     <g id="text_11">
      <!-- 300 -->
      <defs>
       <path d="M 40.578125 39.3125 
Q 47.65625 37.796875 51.625 33 
Q 55.609375 28.21875 55.609375 21.1875 
Q 55.609375 10.40625 48.1875 4.484375 
Q 40.765625 -1.421875 27.09375 -1.421875 
Q 22.515625 -1.421875 17.65625 -0.515625 
Q 12.796875 0.390625 7.625 2.203125 
L 7.625 11.71875 
Q 11.71875 9.328125 16.59375 8.109375 
Q 21.484375 6.890625 26.8125 6.890625 
Q 36.078125 6.890625 40.9375 10.546875 
Q 45.796875 14.203125 45.796875 21.1875 
Q 45.796875 27.640625 41.28125 31.265625 
Q 36.765625 34.90625 28.71875 34.90625 
L 20.21875 34.90625 
L 20.21875 43.015625 
L 29.109375 43.015625 
Q 36.375 43.015625 40.234375 45.921875 
Q 44.09375 48.828125 44.09375 54.296875 
Q 44.09375 59.90625 40.109375 62.90625 
Q 36.140625 65.921875 28.71875 65.921875 
Q 24.65625 65.921875 20.015625 65.03125 
Q 15.375 64.15625 9.8125 62.3125 
L 9.8125 71.09375 
Q 15.4375 72.65625 20.34375 73.4375 
Q 25.25 74.21875 29.59375 74.21875 
Q 40.828125 74.21875 47.359375 69.109375 
Q 53.90625 64.015625 53.90625 55.328125 
Q 53.90625 49.265625 50.4375 45.09375 
Q 46.96875 40.921875 40.578125 39.3125 
" id="DejaVuSans-33"/>
      </defs>
      <g transform="translate(31.5125 153.567837)scale(0.1 -0.1)">
       <use xlink:href="#DejaVuSans-33"/>
       <use x="63.623047" xlink:href="#DejaVuSans-30"/>
       <use x="127.246094" xlink:href="#DejaVuSans-30"/>
      </g>
     </g>
    </g>
    <g id="ytick_5">
     <g id="line2d_21">
      <path clip-path="url(#p5742e4a4d2)" d="M 57.6 101.041187 
L 414.72 101.041187 
" style="fill:none;stroke:#b0b0b0;stroke-linecap:square;stroke-width:0.8;"/>
     </g>
     <g id="line2d_22">
      <g>
       <use style="stroke:#000000;stroke-width:0.8;" x="57.6" xlink:href="#m0520c0e01e" y="101.041187"/>
      </g>
     </g>
     <g id="text_12">
      <!-- 400 -->
      <g transform="translate(31.5125 104.840406)scale(0.1 -0.1)">
       <use xlink:href="#DejaVuSans-34"/>
       <use x="63.623047" xlink:href="#DejaVuSans-30"/>
       <use x="127.246094" xlink:href="#DejaVuSans-30"/>
      </g>
     </g>
    </g>
    <g id="ytick_6">
     <g id="line2d_23">
      <path clip-path="url(#p5742e4a4d2)" d="M 57.6 52.313756 
L 414.72 52.313756 
" style="fill:none;stroke:#b0b0b0;stroke-linecap:square;stroke-width:0.8;"/>
     </g>
     <g id="line2d_24">
      <g>
       <use style="stroke:#000000;stroke-width:0.8;" x="57.6" xlink:href="#m0520c0e01e" y="52.313756"/>
      </g>
     </g>
     <g id="text_13">
      <!-- 500 -->
      <defs>
       <path d="M 10.796875 72.90625 
L 49.515625 72.90625 
L 49.515625 64.59375 
L 19.828125 64.59375 
L 19.828125 46.734375 
Q 21.96875 47.46875 24.109375 47.828125 
Q 26.265625 48.1875 28.421875 48.1875 
Q 40.625 48.1875 47.75 41.5 
Q 54.890625 34.8125 54.890625 23.390625 
Q 54.890625 11.625 47.5625 5.09375 
Q 40.234375 -1.421875 26.90625 -1.421875 
Q 22.3125 -1.421875 17.546875 -0.640625 
Q 12.796875 0.140625 7.71875 1.703125 
L 7.71875 11.625 
Q 12.109375 9.234375 16.796875 8.0625 
Q 21.484375 6.890625 26.703125 6.890625 
Q 35.15625 6.890625 40.078125 11.328125 
Q 45.015625 15.765625 45.015625 23.390625 
Q 45.015625 31 40.078125 35.4375 
Q 35.15625 39.890625 26.703125 39.890625 
Q 22.75 39.890625 18.8125 39.015625 
Q 14.890625 38.140625 10.796875 36.28125 
z
" id="DejaVuSans-35"/>
      </defs>
      <g transform="translate(31.5125 56.112975)scale(0.1 -0.1)">
       <use xlink:href="#DejaVuSans-35"/>
       <use x="63.623047" xlink:href="#DejaVuSans-30"/>
       <use x="127.246094" xlink:href="#DejaVuSans-30"/>
      </g>
     </g>
    </g>
    <g id="text_14">
     <!-- Successful download requests per second -->
     <defs>
      <path d="M 53.515625 70.515625 
L 53.515625 60.890625 
Q 47.90625 63.578125 42.921875 64.890625 
Q 37.9375 66.21875 33.296875 66.21875 
Q 25.25 66.21875 20.875 63.09375 
Q 16.5 59.96875 16.5 54.203125 
Q 16.5 49.359375 19.40625 46.890625 
Q 22.3125 44.4375 30.421875 42.921875 
L 36.375 41.703125 
Q 47.40625 39.59375 52.65625 34.296875 
Q 57.90625 29 57.90625 20.125 
Q 57.90625 9.515625 50.796875 4.046875 
Q 43.703125 -1.421875 29.984375 -1.421875 
Q 24.8125 -1.421875 18.96875 -0.25 
Q 13.140625 0.921875 6.890625 3.21875 
L 6.890625 13.375 
Q 12.890625 10.015625 18.65625 8.296875 
Q 24.421875 6.59375 29.984375 6.59375 
Q 38.421875 6.59375 43.015625 9.90625 
Q 47.609375 13.234375 47.609375 19.390625 
Q 47.609375 24.75 44.3125 27.78125 
Q 41.015625 30.8125 33.5 32.328125 
L 27.484375 33.5 
Q 16.453125 35.6875 11.515625 40.375 
Q 6.59375 45.0625 6.59375 53.421875 
Q 6.59375 63.09375 13.40625 68.65625 
Q 20.21875 74.21875 32.171875 74.21875 
Q 37.3125 74.21875 42.625 73.28125 
Q 47.953125 72.359375 53.515625 70.515625 
" id="DejaVuSans-53"/>
      <path d="M 45.40625 46.390625 
L 45.40625 75.984375 
L 54.390625 75.984375 
L 54.390625 0 
L 45.40625 0 
L 45.40625 8.203125 
Q 42.578125 3.328125 38.25 0.953125 
Q 33.9375 -1.421875 27.875 -1.421875 
Q 17.96875 -1.421875 11.734375 6.484375 
Q 5.515625 14.40625 5.515625 27.296875 
Q 5.515625 40.1875 11.734375 48.09375 
Q 17.96875 56 27.875 56 
Q 33.9375 56 38.25 53.625 
Q 42.578125 51.265625 45.40625 46.390625 
M 14.796875 27.296875 
Q 14.796875 17.390625 18.875 11.75 
Q 22.953125 6.109375 30.078125 6.109375 
Q 37.203125 6.109375 41.296875 11.75 
Q 45.40625 17.390625 45.40625 27.296875 
Q 45.40625 37.203125 41.296875 42.84375 
Q 37.203125 48.484375 30.078125 48.484375 
Q 22.953125 48.484375 18.875 42.84375 
Q 14.796875 37.203125 14.796875 27.296875 
" id="DejaVuSans-64"/>
      <path d="M 4.203125 54.6875 
L 13.1875 54.6875 
L 24.421875 12.015625 
L 35.59375 54.6875 
L 46.1875 54.6875 
L 57.421875 12.015625 
L 68.609375 54.6875 
L 77.59375 54.6875 
L 63.28125 0 
L 52.6875 0 
L 40.921875 44.828125 
L 29.109375 0 
L 18.5 0 
z
" id="DejaVuSans-77"/>
      <path d="M 34.28125 27.484375 
Q 23.390625 27.484375 19.1875 25 
Q 14.984375 22.515625 14.984375 16.5 
Q 14.984375 11.71875 18.140625 8.90625 
Q 21.296875 6.109375 26.703125 6.109375 
Q 34.1875 6.109375 38.703125 11.40625 
Q 43.21875 16.703125 43.21875 25.484375 
L 43.21875 27.484375 
z
M 52.203125 31.203125 
L 52.203125 0 
L 43.21875 0 
L 43.21875 8.296875 
Q 40.140625 3.328125 35.546875 0.953125 
Q 30.953125 -1.421875 24.3125 -1.421875 
Q 15.921875 -1.421875 10.953125 3.296875 
Q 6 8.015625 6 15.921875 
Q 6 25.140625 12.171875 29.828125 
Q 18.359375 34.515625 30.609375 34.515625 
L 43.21875 34.515625 
L 43.21875 35.40625 
Q 43.21875 41.609375 39.140625 45 
Q 35.0625 48.390625 27.6875 48.390625 
Q 23 48.390625 18.546875 47.265625 
Q 14.109375 46.140625 10.015625 43.890625 
L 10.015625 52.203125 
Q 14.9375 54.109375 19.578125 55.046875 
Q 24.21875 56 28.609375 56 
Q 40.484375 56 46.34375 49.84375 
Q 52.203125 43.703125 52.203125 31.203125 
" id="DejaVuSans-61"/>
      <path d="M 14.796875 27.296875 
Q 14.796875 17.390625 18.875 11.75 
Q 22.953125 6.109375 30.078125 6.109375 
Q 37.203125 6.109375 41.296875 11.75 
Q 45.40625 17.390625 45.40625 27.296875 
Q 45.40625 37.203125 41.296875 42.84375 
Q 37.203125 48.484375 30.078125 48.484375 
Q 22.953125 48.484375 18.875 42.84375 
Q 14.796875 37.203125 14.796875 27.296875 
M 45.40625 8.203125 
Q 42.578125 3.328125 38.25 0.953125 
Q 33.9375 -1.421875 27.875 -1.421875 
Q 17.96875 -1.421875 11.734375 6.484375 
Q 5.515625 14.40625 5.515625 27.296875 
Q 5.515625 40.1875 11.734375 48.09375 
Q 17.96875 56 27.875 56 
Q 33.9375 56 38.25 53.625 
Q 42.578125 51.265625 45.40625 46.390625 
L 45.40625 54.6875 
L 54.390625 54.6875 
L 54.390625 -20.796875 
L 45.40625 -20.796875 
z
" id="DejaVuSans-71"/>
      <path d="M 18.109375 8.203125 
L 18.109375 -20.796875 
L 9.078125 -20.796875 
L 9.078125 54.6875 
L 18.109375 54.6875 
L 18.109375 46.390625 
Q 20.953125 51.265625 25.265625 53.625 
Q 29.59375 56 35.59375 56 
Q 45.5625 56 51.78125 48.09375 
Q 58.015625 40.1875 58.015625 27.296875 
Q 58.015625 14.40625 51.78125 6.484375 
Q 45.5625 -1.421875 35.59375 -1.421875 
Q 29.59375 -1.421875 25.265625 0.953125 
Q 20.953125 3.328125 18.109375 8.203125 
M 48.6875 27.296875 
Q 48.6875 37.203125 44.609375 42.84375 
Q 40.53125 48.484375 33.40625 48.484375 
Q 26.265625 48.484375 22.1875 42.84375 
Q 18.109375 37.203125 18.109375 27.296875 
Q 18.109375 17.390625 22.1875 11.75 
Q 26.265625 6.109375 33.40625 6.109375 
Q 40.53125 6.109375 44.609375 11.75 
Q 48.6875 17.390625 48.6875 27.296875 
" id="DejaVuSans-70"/>
     </defs>
     <g transform="translate(25.432812 279.366281)rotate(-90)scale(0.1 -0.1)">
      <use xlink:href="#DejaVuSans-53"/>
      <use x="63.476562" xlink:href="#DejaVuSans-75"/>
      <use x="126.855469" xlink:href="#DejaVuSans-63"/>
      <use x="181.835938" xlink:href="#DejaVuSans-63"/>
      <use x="236.816406" xlink:href="#DejaVuSans-65"/>
      <use x="298.339844" xlink:href="#DejaVuSans-73"/>
      <use x="350.439453" xlink:href="#DejaVuSans-73"/>
      <use x="402.539062" xlink:href="#DejaVuSans-66"/>
      <use x="437.744141" xlink:href="#DejaVuSans-75"/>
      <use x="501.123047" xlink:href="#DejaVuSans-6c"/>
      <use x="528.90625" xlink:href="#DejaVuSans-20"/>
      <use x="560.693359" xlink:href="#DejaVuSans-64"/>
      <use x="624.169922" xlink:href="#DejaVuSans-6f"/>
      <use x="685.351562" xlink:href="#DejaVuSans-77"/>
      <use x="767.138672" xlink:href="#DejaVuSans-6e"/>
      <use x="830.517578" xlink:href="#DejaVuSans-6c"/>
      <use x="858.300781" xlink:href="#DejaVuSans-6f"/>
      <use x="919.482422" xlink:href="#DejaVuSans-61"/>
      <use x="980.761719" xlink:href="#DejaVuSans-64"/>
      <use x="1044.238281" xlink:href="#DejaVuSans-20"/>
      <use x="1076.025391" xlink:href="#DejaVuSans-72"/>
      <use x="1117.107422" xlink:href="#DejaVuSans-65"/>
      <use x="1178.630859" xlink:href="#DejaVuSans-71"/>
      <use x="1242.107422" xlink:href="#DejaVuSans-75"/>
      <use x="1305.486328" xlink:href="#DejaVuSans-65"/>
      <use x="1367.009766" xlink:href="#DejaVuSans-73"/>
      <use x="1419.109375" xlink:href="#DejaVuSans-74"/>
      <use x="1458.318359" xlink:href="#DejaVuSans-73"/>
      <use x="1510.417969" xlink:href="#DejaVuSans-20"/>
      <use x="1542.205078" xlink:href="#DejaVuSans-70"/>
      <use x="1605.681641" xlink:href="#DejaVuSans-65"/>
      <use x="1667.205078" xlink:href="#DejaVuSans-72"/>
      <use x="1708.318359" xlink:href="#DejaVuSans-20"/>
      <use x="1740.105469" xlink:href="#DejaVuSans-73"/>
      <use x="1792.205078" xlink:href="#DejaVuSans-65"/>
      <use x="1853.728516" xlink:href="#DejaVuSans-63"/>
      <use x="1908.708984" xlink:href="#DejaVuSans-6f"/>
      <use x="1969.890625" xlink:href="#DejaVuSans-6e"/>
      <use x="2033.269531" xlink:href="#DejaVuSans-64"/>
     </g>
    </g>
   </g>
   <g id="line2d_25">
    <path clip-path="url(#p5742e4a4d2)" d="M 57.6 295.471433 
L 57.95712 295.488 
L 59.74272 293.15688 
L 60.81408 291.815414 
L 61.52832 290.605024 
L 61.88544 290.381365 
L 62.24256 289.618781 
L 62.59968 289.464315 
L 62.9568 288.688574 
L 63.31392 288.514617 
L 63.67104 288.025394 
L 64.02816 287.232599 
L 64.38528 287.175588 
L 65.45664 285.422862 
L 66.17088 284.40592 
L 66.528 284.37376 
L 66.88512 283.509823 
L 67.59936 283.118054 
L 68.3136 281.61725 
L 68.67072 281.77269 
L 69.02784 280.372264 
L 69.38496 280.681196 
L 70.45632 278.410497 
L 71.17056 277.951485 
L 71.52768 278.184402 
L 72.24192 277.235679 
L 72.59904 276.213377 
L 72.95616 275.982409 
L 73.31328 275.469797 
L 74.38464 273.092385 
L 74.74176 274.197524 
L 75.09888 272.448696 
L 75.456 273.149397 
L 75.81312 272.797585 
L 76.17024 271.447835 
L 76.52736 271.855196 
L 77.59872 269.049471 
L 78.31296 268.998794 
L 78.67008 267.3406 
L 79.38432 267.845903 
L 79.74144 267.657815 
L 80.09856 267.248992 
L 80.8128 265.016301 
L 81.52704 264.377484 
L 81.88416 263.380034 
L 82.24128 263.500878 
L 82.5984 263.964276 
L 82.95552 261.713069 
L 83.31264 261.901156 
L 83.66976 261.868996 
L 84.02688 260.614265 
L 84.384 260.402788 
L 84.74112 260.950484 
L 85.09824 259.995914 
L 85.45536 257.951311 
L 85.81248 258.051689 
L 86.1696 258.609131 
L 86.52672 258.711459 
L 86.88384 258.095057 
L 87.24096 258.040969 
L 87.59808 255.742009 
L 87.9552 255.016945 
L 88.31232 256.303836 
L 89.02656 253.238881 
L 89.38368 254.905846 
L 89.7408 252.655126 
L 90.09792 253.983436 
L 90.45504 252.069423 
L 90.81216 251.145063 
L 91.16928 251.013012 
L 91.5264 250.317672 
L 91.88352 250.377606 
L 92.24064 249.982427 
L 92.59776 248.37832 
L 92.95488 248.960125 
L 93.66912 247.890071 
L 94.02624 247.021261 
L 94.38336 246.597819 
L 94.74048 248.222392 
L 95.0976 245.213473 
L 95.45472 247.264411 
L 95.81184 244.180939 
L 96.16896 245.204215 
L 96.52608 243.533351 
L 96.8832 244.598046 
L 97.24032 242.567574 
L 97.59744 243.431511 
L 97.95456 243.455875 
L 98.6688 241.228544 
L 99.02592 243.30482 
L 99.38304 240.356323 
L 99.74016 241.809375 
L 100.09728 239.414422 
L 100.81152 239.727252 
L 101.16864 236.565816 
L 101.52576 239.68291 
L 102.24 235.472372 
L 102.59712 238.663045 
L 102.95424 238.134839 
L 103.31136 235.727704 
L 103.66848 234.373082 
L 104.0256 233.549588 
L 104.38272 234.146499 
L 104.73984 232.161831 
L 105.09696 234.214717 
L 105.45408 231.940608 
L 105.8112 233.954026 
L 106.16832 231.542018 
L 106.52544 232.993608 
L 106.88256 231.536171 
L 107.23968 228.888322 
L 107.5968 230.807695 
L 107.95392 230.102122 
L 108.31104 230.511433 
L 108.66816 230.158159 
L 109.02528 230.670771 
L 109.73952 227.8017 
L 110.09664 224.582279 
L 110.45376 225.540747 
L 110.81088 227.595583 
L 111.168 227.976144 
L 111.52512 225.807774 
L 111.88224 226.468518 
L 112.23936 224.810811 
L 112.59648 221.099729 
L 112.9536 225.667926 
L 113.31072 220.526695 
L 113.66784 224.643188 
L 114.02496 219.850845 
L 114.38208 218.940617 
L 114.7392 218.60391 
L 115.09632 219.108727 
L 115.45344 220.73671 
L 115.81056 221.757062 
L 116.16768 216.105168 
L 116.5248 218.1678 
L 116.88192 217.747282 
L 117.23904 218.43239 
L 117.59616 214.289584 
L 117.95328 215.192503 
L 118.3104 216.906734 
L 118.66752 214.3885 
L 119.02464 215.518977 
L 119.38176 214.886007 
L 119.73888 216.328827 
L 120.096 211.620782 
L 120.45312 214.891367 
L 120.81024 215.154983 
L 121.16736 211.18321 
L 121.52448 209.69946 
L 121.8816 209.046025 
L 122.23872 211.766965 
L 122.59584 210.346073 
L 122.95296 212.846764 
L 123.31008 206.693952 
L 123.6672 206.60673 
L 124.02432 210.830911 
L 124.38144 205.819294 
L 124.73856 204.75996 
L 125.09568 205.59661 
L 125.4528 203.433599 
L 125.80992 206.086808 
L 126.16704 206.369427 
L 126.52416 204.77068 
L 126.88128 202.134526 
L 127.2384 202.388883 
L 127.59552 204.309231 
L 127.95264 203.888714 
L 128.30976 200.557706 
L 128.66688 201.345629 
L 129.024 201.790998 
L 129.38112 200.936318 
L 129.73824 199.009636 
L 130.09536 203.584654 
L 130.45248 199.650402 
L 131.16672 202.310919 
L 131.52384 197.605799 
L 131.88096 199.996854 
L 132.23808 197.846025 
L 132.5952 199.919377 
L 132.95232 198.879046 
L 133.30944 192.728183 
L 133.66656 193.491254 
L 134.02368 195.732716 
L 134.3808 196.334987 
L 134.73792 191.701496 
L 135.09504 191.87058 
L 135.45216 192.863158 
L 135.80928 192.524502 
L 136.1664 192.577615 
L 136.52352 190.117854 
L 136.88064 192.251141 
L 137.23776 188.285216 
L 137.59488 192.256988 
L 137.952 192.361752 
L 138.30912 188.617537 
L 138.66624 190.148065 
L 139.02336 184.968827 
L 139.38048 188.70817 
L 139.7376 187.054848 
L 140.09472 183.910467 
L 140.45184 186.915487 
L 140.80896 182.821409 
L 141.16608 182.447669 
L 141.5232 188.390954 
L 141.88032 189.003945 
L 142.23744 187.540173 
L 142.59456 184.193086 
L 142.95168 187.089932 
L 143.3088 182.991955 
L 143.66592 183.211715 
L 144.02304 184.427952 
L 144.38016 184.85383 
L 144.73728 178.712224 
L 145.0944 179.819312 
L 145.45152 183.465585 
L 145.80864 176.60525 
L 146.16576 183.388109 
L 146.88 174.242945 
L 147.23712 175.34857 
L 147.59424 174.782357 
L 147.95136 176.087765 
L 148.30848 176.852786 
L 148.6656 175.905524 
L 149.02272 175.84559 
L 149.37984 175.33249 
L 149.73696 171.879664 
L 150.09408 172.220269 
L 150.4512 171.060069 
L 150.80832 177.105194 
L 151.16544 169.312703 
L 151.52256 176.652029 
L 151.87968 176.098972 
L 152.2368 171.225255 
L 152.59392 171.262775 
L 152.95104 168.708483 
L 153.30816 170.709231 
L 153.66528 165.818946 
L 154.0224 172.850315 
L 154.37952 165.21229 
L 154.73664 163.421557 
L 155.09376 171.035705 
L 155.45088 171.17604 
L 155.808 165.740008 
L 156.16512 169.154339 
L 156.52224 170.357906 
L 156.87936 162.062549 
L 157.23648 167.938102 
L 157.5936 160.497911 
L 157.95072 162.889453 
L 158.30784 160.184593 
L 158.66496 164.819059 
L 159.02208 162.853882 
L 159.3792 166.692142 
L 159.73632 165.028587 
L 160.09344 161.320917 
L 160.45056 163.700765 
L 160.80768 155.148126 
L 161.1648 160.200673 
L 161.87904 154.344124 
L 162.23616 156.727382 
L 162.59328 156.021809 
L 162.9504 159.570628 
L 163.30752 158.260347 
L 163.66464 161.239542 
L 164.02176 159.952164 
L 164.37888 151.948683 
L 164.736 153.288687 
L 165.09312 157.576214 
L 165.45024 150.998985 
L 165.80736 149.161961 
L 166.16448 148.967539 
L 166.5216 157.1747 
L 166.87872 158.273991 
L 167.23584 152.998272 
L 167.59296 155.752834 
L 167.95008 154.773412 
L 168.3072 148.102627 
L 168.66432 150.240787 
L 169.02144 155.74991 
L 169.37856 155.59252 
L 169.73568 147.207504 
L 170.44992 153.092316 
L 170.80704 148.687356 
L 171.16416 153.879264 
L 171.52128 152.083171 
L 171.8784 146.892238 
L 172.23552 153.877802 
L 172.59264 146.005886 
L 172.94976 152.185986 
L 173.30688 153.842231 
L 173.664 149.396827 
L 174.02112 146.639342 
L 174.37824 146.841074 
L 174.73536 153.473852 
L 175.09248 143.666969 
L 175.4496 146.824994 
L 175.80672 146.315792 
L 176.16384 146.672477 
L 176.52096 146.742157 
L 176.87808 150.450802 
L 177.2352 151.075 
L 177.59232 147.17242 
L 177.94944 150.134074 
L 178.30656 150.60137 
L 178.66368 146.576971 
L 179.0208 147.854117 
L 179.37792 146.925859 
L 179.73504 151.342027 
L 180.09216 149.461635 
L 180.44928 145.120995 
L 180.8064 143.458415 
L 181.16352 144.484615 
L 181.52064 140.461191 
L 181.87776 145.902583 
L 182.23488 142.135466 
L 182.592 141.152633 
L 182.94912 148.208365 
L 183.30624 143.641631 
L 183.66336 148.59721 
L 184.3776 146.070206 
L 184.73472 143.633347 
L 185.09184 143.987108 
L 185.44896 144.607896 
L 185.80608 140.423184 
L 186.1632 138.780095 
L 186.52032 143.585594 
L 186.87744 140.698494 
L 187.23456 139.831633 
L 187.59168 144.11185 
L 187.9488 142.4673 
L 188.30592 140.260921 
L 188.66304 137.121413 
L 189.02016 142.497511 
L 189.37728 144.389109 
L 189.7344 136.373934 
L 190.09152 145.321752 
L 190.44864 136.221417 
L 190.80576 144.40324 
L 191.16288 139.635261 
L 191.52 145.346603 
L 191.87712 137.664237 
L 192.23424 139.992921 
L 192.59136 143.358524 
L 192.94848 145.03085 
L 193.3056 138.099373 
L 193.66272 139.918855 
L 194.01984 135.721474 
L 194.37696 136.769114 
L 194.73408 134.008705 
L 195.0912 140.186856 
L 195.44832 141.256423 
L 195.80544 133.903454 
L 196.16256 141.296379 
L 196.51968 136.830998 
L 196.8768 142.03996 
L 197.23392 141.338772 
L 197.59104 142.144724 
L 197.94816 137.201813 
L 198.30528 141.514191 
L 198.6624 134.274269 
L 199.01952 139.761953 
L 199.37664 134.704533 
L 199.73376 141.214517 
L 200.09088 133.202266 
L 200.448 133.48927 
L 200.80512 139.707378 
L 201.16224 138.606138 
L 201.51936 135.522666 
L 201.87648 139.047121 
L 202.2336 134.592459 
L 202.59072 134.243571 
L 202.94784 129.845433 
L 203.30496 129.410297 
L 203.66208 139.787778 
L 204.0192 134.361979 
L 204.37632 135.459808 
L 204.73344 138.372734 
L 205.09056 128.230606 
L 205.44768 135.269771 
L 205.8048 135.160134 
L 206.16192 138.607112 
L 206.51904 130.909153 
L 207.23328 138.008252 
L 207.5904 136.990336 
L 208.66176 132.47574 
L 209.01888 137.585298 
L 209.376 125.665594 
L 209.73312 134.826351 
L 210.09024 135.474913 
L 210.80448 127.905594 
L 211.1616 131.870545 
L 211.51872 131.453438 
L 212.23296 127.829092 
L 212.59008 127.215614 
L 212.9472 125.745994 
L 213.30432 129.157889 
L 213.66144 130.295675 
L 214.01856 127.389083 
L 214.37568 133.487321 
L 215.08992 126.92666 
L 215.44704 128.556105 
L 215.80416 130.857015 
L 216.16128 126.065646 
L 216.5184 131.702923 
L 216.87552 131.604006 
L 217.23264 128.507378 
L 217.58976 128.101478 
L 217.94688 122.358951 
L 218.304 124.41671 
L 219.01824 132.905516 
L 219.37536 121.275253 
L 219.73248 125.710423 
L 220.44672 120.506334 
L 220.80384 128.979059 
L 221.16096 129.35085 
L 221.51808 124.829431 
L 221.8752 123.891428 
L 222.23232 130.461835 
L 222.58944 120.700756 
L 222.94656 128.098555 
L 223.30368 125.018981 
L 223.6608 119.702818 
L 224.37504 129.946786 
L 224.73216 127.170297 
L 225.08928 128.247173 
L 225.4464 126.997315 
L 225.80352 122.952938 
L 226.16064 130.069579 
L 226.51776 120.988248 
L 226.87488 128.0547 
L 227.232 127.965042 
L 227.58912 119.810019 
L 227.94624 124.714922 
L 228.30336 126.668405 
L 228.66048 125.536954 
L 229.0176 117.5286 
L 229.37472 125.545725 
L 229.73184 117.775648 
L 230.08896 118.902714 
L 230.44608 123.727704 
L 230.8032 121.390737 
L 231.16032 121.28646 
L 231.51744 122.005189 
L 231.87456 121.218729 
L 232.23168 126.639655 
L 232.94592 116.506786 
L 233.30304 120.694422 
L 233.66016 118.901252 
L 234.01728 121.368809 
L 234.3744 126.184541 
L 234.73152 114.246321 
L 235.08864 117.636288 
L 235.44576 125.118385 
L 235.80288 121.124198 
L 236.16 120.833782 
L 236.87424 123.519151 
L 237.23136 118.203963 
L 237.58848 124.944915 
L 237.9456 120.381104 
L 238.30272 123.497711 
L 238.65984 119.81343 
L 239.01696 113.444754 
L 239.37408 117.995409 
L 239.7312 120.993608 
L 240.08832 115.631154 
L 240.44544 118.038289 
L 240.80256 114.087956 
L 241.15968 122.349205 
L 241.5168 115.714965 
L 241.87392 111.780225 
L 242.23104 119.633138 
L 242.58816 114.942636 
L 242.94528 113.727374 
L 243.3024 120.198376 
L 243.65952 114.781835 
L 244.01664 117.356593 
L 244.37376 114.654657 
L 244.73088 115.641874 
L 245.44512 110.695065 
L 245.80224 121.729879 
L 246.15936 117.64847 
L 246.51648 116.429797 
L 246.8736 116.599856 
L 247.23072 110.300373 
L 247.58784 117.034017 
L 247.94496 120.900051 
L 248.30208 115.892333 
L 248.6592 117.57879 
L 249.01632 115.736893 
L 249.37344 115.791955 
L 249.73056 108.24505 
L 250.08768 112.666577 
L 250.4448 112.601283 
L 250.80192 118.065577 
L 251.15904 107.016632 
L 251.51616 114.036305 
L 251.87328 111.281744 
L 252.2304 110.128853 
L 252.58752 119.466003 
L 252.94464 116.27192 
L 253.30176 117.196279 
L 253.65888 109.789223 
L 254.016 110.271137 
L 254.37312 108.048191 
L 254.73024 111.652559 
L 255.08736 108.920412 
L 255.44448 118.010515 
L 255.8016 111.74904 
L 256.15872 112.759159 
L 256.51584 113.35607 
L 256.87296 110.683371 
L 257.23008 116.927791 
L 257.94432 109.952459 
L 258.30144 108.857067 
L 259.01568 114.755035 
L 259.3728 110.980608 
L 259.72992 116.627143 
L 260.08704 114.994774 
L 260.44416 107.971689 
L 260.80128 112.872694 
L 261.1584 113.318063 
L 261.51552 112.641239 
L 261.87264 108.72599 
L 262.58688 104.06716 
L 262.944 114.052873 
L 263.30112 111.514661 
L 263.65824 103.439064 
L 264.01536 106.699416 
L 264.37248 107.963406 
L 264.7296 113.030571 
L 265.08672 109.120195 
L 265.44384 114.647347 
L 266.15808 101.729705 
L 266.5152 110.532803 
L 266.87232 107.306073 
L 267.22944 110.51185 
L 267.58656 101.19614 
L 267.94368 107.995566 
L 268.3008 103.866891 
L 268.65792 101.985524 
L 269.37216 106.398281 
L 269.72928 105.699042 
L 270.0864 101.14254 
L 270.44352 108.805903 
L 270.80064 103.12867 
L 271.15776 102.812916 
L 271.51488 111.599447 
L 272.58624 98.531724 
L 272.94336 109.072929 
L 273.30048 109.981696 
L 273.6576 98.838707 
L 274.01472 100.700095 
L 274.37184 103.467326 
L 274.72896 100.943245 
L 275.08608 99.319647 
L 275.4432 109.970976 
L 275.80032 109.953921 
L 276.15744 103.707065 
L 276.51456 108.400491 
L 276.87168 97.343262 
L 277.2288 97.458746 
L 277.58592 106.337371 
L 277.94304 102.473773 
L 278.30016 107.100443 
L 278.65728 103.596453 
L 279.0144 101.994295 
L 279.37152 107.907369 
L 279.72864 97.830049 
L 280.08576 99.08673 
L 280.44288 102.733978 
L 280.8 101.759916 
L 281.15712 104.795635 
L 281.51424 105.568452 
L 281.87136 101.988935 
L 282.22848 107.358211 
L 282.5856 102.237445 
L 282.94272 105.624002 
L 283.29984 107.800169 
L 284.01408 106.970341 
L 284.3712 100.220617 
L 285.08544 95.539373 
L 285.44256 94.542409 
L 285.79968 101.506534 
L 286.1568 97.416353 
L 286.51392 97.172716 
L 286.87104 97.156636 
L 287.22816 96.172829 
L 287.58528 98.847965 
L 287.9424 93.604406 
L 288.29952 94.756323 
L 288.65664 106.396332 
L 289.01376 105.074356 
L 289.37088 94.936614 
L 289.728 93.834887 
L 290.08512 93.375875 
L 290.44224 104.968618 
L 290.79936 96.281004 
L 291.15648 105.354052 
L 291.5136 103.711937 
L 291.87072 92.223471 
L 292.22784 93.443606 
L 292.58496 91.849244 
L 292.94208 93.574195 
L 293.2992 92.812586 
L 294.01344 96.891559 
L 294.37056 95.90093 
L 294.72768 100.73664 
L 295.44192 91.089584 
L 295.79904 97.117167 
L 296.15616 98.207199 
L 296.51328 97.447052 
L 296.8704 100.102697 
L 297.22752 95.837585 
L 297.58464 95.380034 
L 297.94176 99.780608 
L 298.29888 91.865324 
L 298.656 90.954609 
L 299.01312 91.903332 
L 299.37024 94.031259 
L 299.72736 94.881552 
L 300.08448 94.656432 
L 300.4416 94.226656 
L 300.79872 100.61872 
L 301.15584 90.727052 
L 301.51296 96.147491 
L 301.87008 93.002623 
L 302.2272 97.452899 
L 302.58432 91.46917 
L 302.94144 90.27681 
L 303.29856 91.074478 
L 303.65568 92.869109 
L 304.0128 88.481692 
L 304.36992 94.559951 
L 304.72704 90.227108 
L 305.08416 91.101765 
L 305.44128 88.187378 
L 305.7984 96.339477 
L 306.51264 87.770271 
L 306.86976 97.704332 
L 307.22688 91.294239 
L 307.584 98.14629 
L 307.94112 94.798228 
L 308.29824 95.992538 
L 308.65536 94.618911 
L 309.01248 99.554513 
L 309.3696 88.051916 
L 309.72672 85.295405 
L 310.08384 93.862174 
L 310.44096 92.795531 
L 311.1552 94.159412 
L 311.51232 93.566399 
L 311.86944 84.152747 
L 312.22656 98.396749 
L 312.58368 85.63065 
L 313.29792 95.060382 
L 313.65504 91.47453 
L 314.01216 85.455231 
L 314.36928 91.99835 
L 314.7264 88.479255 
L 315.08352 97.032381 
L 315.44064 88.15132 
L 315.79776 88.629823 
L 316.15488 94.042953 
L 316.512 90.172533 
L 316.86912 88.213691 
L 317.22624 93.217511 
L 317.58336 86.073582 
L 317.94048 93.136623 
L 318.2976 85.429893 
L 318.65472 94.527791 
L 319.01184 89.03621 
L 319.36896 94.991189 
L 319.72608 89.22381 
L 320.0832 90.957532 
L 320.44032 81.659364 
L 320.79744 88.979686 
L 321.15456 92.239551 
L 321.8688 87.741522 
L 322.22592 92.576745 
L 322.58304 83.521239 
L 322.94016 89.357811 
L 323.29728 90.528244 
L 323.6544 88.280935 
L 324.01152 80.869005 
L 324.36864 88.717045 
L 324.72576 82.328392 
L 325.08288 87.260095 
L 325.44 89.435775 
L 325.79712 87.728365 
L 326.15424 84.985986 
L 326.51136 93.867047 
L 326.86848 80.907987 
L 327.2256 92.519734 
L 327.58272 85.498111 
L 327.93984 86.555983 
L 328.29696 88.270214 
L 328.65408 87.181644 
L 329.0112 91.507665 
L 329.36832 81.536571 
L 329.72544 82.565694 
L 330.08256 81.090228 
L 330.43968 82.961848 
L 331.15392 79.30388 
L 331.51104 79.065116 
L 331.86816 90.133064 
L 332.22528 81.836732 
L 332.5824 78.117854 
L 332.93952 77.525816 
L 333.29664 83.366286 
L 333.65376 80.196079 
L 334.01088 89.318342 
L 334.368 84.210732 
L 334.72512 84.313547 
L 335.08224 78.828787 
L 335.43936 90.38937 
L 335.79648 87.152407 
L 336.1536 81.383079 
L 336.51072 87.333186 
L 336.86784 80.925529 
L 337.22496 87.731289 
L 337.58208 86.370332 
L 337.9392 75.577693 
L 338.29632 75.772116 
L 338.65344 76.832912 
L 339.01056 77.152077 
L 339.36768 75.070441 
L 339.7248 74.583654 
L 340.08192 76.531289 
L 340.43904 88.287269 
L 340.79616 84.546951 
L 341.15328 87.124633 
L 341.86752 77.40887 
L 342.22464 75.118194 
L 342.58176 76.514235 
L 342.93888 86.508231 
L 343.296 76.070815 
L 343.65312 79.777511 
L 344.01024 79.214221 
L 344.36736 77.621322 
L 344.72448 79.664463 
L 345.0816 76.086408 
L 345.43872 81.850375 
L 345.79584 85.369471 
L 346.15296 73.576458 
L 346.51008 79.082657 
L 347.22432 75.400813 
L 347.58144 76.041578 
L 347.93856 80.479186 
L 348.29568 80.747186 
L 348.6528 74.3751 
L 349.00992 74.907691 
L 349.36704 85.781705 
L 349.72416 72.23353 
L 350.08128 71.272137 
L 350.79552 84.432442 
L 351.15264 70.935918 
L 351.50976 84.095735 
L 351.86688 76.97276 
L 352.224 84.879273 
L 352.58112 79.802362 
L 352.93824 81.764128 
L 353.29536 72.572673 
L 353.65248 71.861739 
L 354.0096 80.925042 
L 354.36672 83.319508 
L 354.72384 84.276027 
L 355.08096 83.031528 
L 355.43808 83.291733 
L 355.7952 81.427421 
L 356.15232 73.850793 
L 356.50944 82.090602 
L 356.86656 75.508013 
L 357.5808 70.477393 
L 357.93792 82.691898 
L 358.65216 79.76338 
L 359.00928 68.941017 
L 359.3664 70.504193 
L 359.72352 68.929323 
L 360.08064 78.356619 
L 360.43776 75.172768 
L 360.79488 76.072277 
L 361.152 83.026168 
L 361.50912 70.508579 
L 361.86624 83.333638 
L 362.22336 80.673121 
L 362.58048 67.912868 
L 362.9376 76.929392 
L 363.29472 73.925833 
L 363.65184 76.432372 
L 364.00896 76.792955 
L 364.36608 79.464193 
L 364.7232 69.267491 
L 365.08032 74.12123 
L 365.43744 74.562701 
L 365.79456 79.970471 
L 366.15168 67.617093 
L 366.5088 73.766982 
L 366.86592 74.065194 
L 367.22304 81.496127 
L 367.58016 66.559708 
L 367.93728 79.296571 
L 368.2944 72.98783 
L 368.65152 70.883293 
L 369.00864 75.119655 
L 369.36576 69.075018 
L 369.72288 65.529122 
L 370.43712 72.849444 
L 370.79424 66.486129 
L 371.15136 75.426151 
L 371.50848 70.288818 
L 371.8656 77.441518 
L 372.22272 67.584933 
L 372.57984 76.202379 
L 372.93696 74.057397 
L 373.29408 68.43815 
L 373.6512 66.742436 
L 374.00832 69.804955 
L 374.36544 79.744376 
L 374.72256 76.637515 
L 375.07968 76.537624 
L 375.4368 73.199307 
L 375.79392 74.904767 
L 376.50816 65.660199 
L 376.86528 74.033034 
L 377.2224 65.630963 
L 377.57952 71.220974 
L 377.93664 70.352164 
L 378.29376 64.191554 
L 378.65088 72.811924 
L 379.008 70.880856 
L 379.36512 78.171454 
L 379.72224 65.50817 
L 380.07936 70.086112 
L 380.43648 62.468553 
L 380.7936 74.340017 
L 381.15072 66.849149 
L 381.50784 67.730628 
L 381.86496 71.992329 
L 382.22208 62.882248 
L 382.5792 65.241631 
L 382.93632 61.656754 
L 383.29344 77.428361 
L 383.65056 75.193721 
L 384.00768 69.207556 
L 384.3648 67.675566 
L 384.72192 74.604606 
L 385.43616 61.161196 
L 385.79328 70.487626 
L 386.1504 65.622192 
L 386.50752 75.833512 
L 386.86464 75.175692 
L 387.22176 60.694874 
L 387.57888 61.385342 
L 388.65024 68.290993 
L 389.00736 66.719046 
L 389.36448 68.225211 
L 389.7216 70.494935 
L 390.07872 66.204485 
L 390.43584 64.497075 
L 390.79296 72.192599 
L 391.15008 74.850193 
L 391.5072 60.229527 
L 391.86432 65.02723 
L 392.22144 73.866386 
L 392.57856 73.870771 
L 392.93568 66.840865 
L 393.2928 67.258459 
L 393.64992 58.539173 
L 394.00704 60.13597 
L 394.36416 65.39902 
L 394.72128 65.966695 
L 395.0784 70.753678 
L 395.43552 66.471511 
L 395.79264 57.746864 
L 396.14976 67.177571 
L 396.50688 69.886329 
L 396.864 58.496292 
L 397.22112 69.209993 
L 397.57824 71.28773 
L 397.93536 57.391642 
L 398.29248 69.156392 
L 399.00672 57.240586 
L 399.36384 60.341113 
L 399.72096 72.244737 
L 400.07808 63.111267 
L 400.4352 61.034017 
L 400.79232 71.846147 
L 401.14944 65.975953 
L 401.50656 70.230832 
L 401.86368 64.808931 
L 402.2208 61.417502 
L 402.57792 59.25108 
L 402.93504 68.845024 
L 403.29216 61.444789 
L 403.64928 64.059016 
L 404.0064 62.042188 
L 404.36352 71.788648 
L 405.07776 57.636253 
L 405.43488 71.426603 
L 405.792 59.955192 
L 406.14912 68.59018 
L 406.50624 64.289497 
L 406.86336 55.370915 
L 407.22048 59.026447 
L 407.5776 68.995105 
L 407.93472 65.568104 
L 408.29184 70.282483 
L 408.64896 61.721561 
L 409.00608 59.55855 
L 409.3632 67.78569 
L 409.72032 69.643179 
L 410.07744 69.805442 
L 410.43456 67.117149 
L 410.79168 67.584933 
L 411.50592 61.282527 
L 411.86304 53.622575 
L 412.22016 56.535013 
L 412.57728 55.928357 
L 412.9344 53.568 
L 413.29152 64.469788 
L 413.64864 57.614326 
L 414.00576 54.570811 
L 414.36288 58.957741 
L 414.72 59.493743 
L 414.72 59.493743 
" style="fill:none;stroke:#000080;stroke-linecap:square;stroke-width:0.5;"/>
   </g>
   <g id="patch_3">
    <path d="M 57.6 307.584 
L 57.6 41.472 
" style="fill:none;stroke:#000000;stroke-linecap:square;stroke-linejoin:miter;stroke-width:0.8;"/>
   </g>
   <g id="patch_4">
    <path d="M 414.72 307.584 
L 414.72 41.472 
" style="fill:none;stroke:#000000;stroke-linecap:square;stroke-linejoin:miter;stroke-width:0.8;"/>
   </g>
   <g id="patch_5">
    <path d="M 57.6 307.584 
L 414.72 307.584 
" style="fill:none;stroke:#000000;stroke-linecap:square;stroke-linejoin:miter;stroke-width:0.8;"/>
   </g>
   <g id="patch_6">
    <path d="M 57.6 41.472 
L 414.72 41.472 
" style="fill:none;stroke:#000000;stroke-linecap:square;stroke-linejoin:miter;stroke-width:0.8;"/>
   </g>
   <g id="text_15">
    <!-- Test -->
    <defs>
     <path d="M -0.296875 72.90625 
L 61.375 72.90625 
L 61.375 64.59375 
L 35.5 64.59375 
L 35.5 0 
L 25.59375 0 
L 25.59375 64.59375 
L -0.296875 64.59375 
z
" id="DejaVuSans-54"/>
    </defs>
    <g transform="translate(223.341563 35.472)scale(0.12 -0.12)">
     <use xlink:href="#DejaVuSans-54"/>
     <use x="60.818359" xlink:href="#DejaVuSans-65"/>
     <use x="122.341797" xlink:href="#DejaVuSans-73"/>
     <use x="174.441406" xlink:href="#DejaVuSans-74"/>
    </g>
   </g>
   <g id="legend_1">
    <g id="patch_7">
     <path d="M 64.6 64.150125 
L 306.276563 64.150125 
Q 308.276563 64.150125 308.276563 62.150125 
L 308.276563 48.472 
Q 308.276563 46.472 306.276563 46.472 
L 64.6 46.472 
Q 62.6 46.472 62.6 48.472 
L 62.6 62.150125 
Q 62.6 64.150125 64.6 64.150125 
z
" style="fill:#ffffff;opacity:0.8;stroke:#cccccc;stroke-linejoin:miter;"/>
    </g>
    <g id="line2d_26">
     <path d="M 66.6 54.570438 
L 86.6 54.570438 
" style="fill:none;stroke:#000080;stroke-linecap:square;stroke-width:0.5;"/>
    </g>
    <g id="line2d_27"/>
    <g id="text_16">
     <!-- Successful download requests per second -->
     <g transform="translate(94.6 58.070438)scale(0.1 -0.1)">
      <use xlink:href="#DejaVuSans-53"/>
      <use x="63.476562" xlink:href="#DejaVuSans-75"/>
      <use x="126.855469" xlink:href="#DejaVuSans-63"/>
      <use x="181.835938" xlink:href="#DejaVuSans-63"/>
      <use x="236.816406" xlink:href="#DejaVuSans-65"/>
      <use x="298.339844" xlink:href="#DejaVuSans-73"/>
      <use x="350.439453" xlink:href="#DejaVuSans-73"/>
      <use x="402.539062" xlink:href="#DejaVuSans-66"/>
      <use x="437.744141" xlink:href="#DejaVuSans-75"/>
      <use x="501.123047" xlink:href="#DejaVuSans-6c"/>
      <use x="528.90625" xlink:href="#DejaVuSans-20"/>
      <use x="560.693359" xlink:href="#DejaVuSans-64"/>
      <use x="624.169922" xlink:href="#DejaVuSans-6f"/>
      <use x="685.351562" xlink:href="#DejaVuSans-77"/>
      <use x="767.138672" xlink:href="#DejaVuSans-6e"/>
      <use x="830.517578" xlink:href="#DejaVuSans-6c"/>
      <use x="858.300781" xlink:href="#DejaVuSans-6f"/>
      <use x="919.482422" xlink:href="#DejaVuSans-61"/>
      <use x="980.761719" xlink:href="#DejaVuSans-64"/>
      <use x="1044.238281" xlink:href="#DejaVuSans-20"/>
      <use x="1076.025391" xlink:href="#DejaVuSans-72"/>
      <use x="1117.107422" xlink:href="#DejaVuSans-65"/>
      <use x="1178.630859" xlink:href="#DejaVuSans-71"/>
      <use x="1242.107422" xlink:href="#DejaVuSans-75"/>
      <use x="1305.486328" xlink:href="#DejaVuSans-65"/>
      <use x="1367.009766" xlink:href="#DejaVuSans-73"/>
      <use x="1419.109375" xlink:href="#DejaVuSans-74"/>
      <use x="1458.318359" xlink:href="#DejaVuSans-73"/>
      <use x="1510.417969" xlink:href="#DejaVuSans-20"/>
      <use x="1542.205078" xlink:href="#DejaVuSans-70"/>
      <use x="1605.681641" xlink:href="#DejaVuSans-65"/>
      <use x="1667.205078" xlink:href="#DejaVuSans-72"/>
      <use x="1708.318359" xlink:href="#DejaVuSans-20"/>
      <use x="1740.105469" xlink:href="#DejaVuSans-73"/>
      <use x="1792.205078" xlink:href="#DejaVuSans-65"/>
      <use x="1853.728516" xlink:href="#DejaVuSans-63"/>
      <use x="1908.708984" xlink:href="#DejaVuSans-6f"/>
      <use x="1969.890625" xlink:href="#DejaVuSans-6e"/>
      <use x="2033.269531" xlink:href="#DejaVuSans-64"/>
     </g>
    </g>
   </g>
  </g>
 </g>
 <defs>
  <clipPath id="p5742e4a4d2">
   <rect height="266.112" width="357.12" x="57.6" y="41.472"/>
  </clipPath>
 </defs>
</svg>
