<?xml version="1.0" encoding="utf-8" standalone="no"?>
<!DOCTYPE svg PUBLIC "-//W3C//DTD SVG 1.1//EN"
  "http://www.w3.org/Graphics/SVG/1.1/DTD/svg11.dtd">
<!-- Created with matplotlib (http://matplotlib.org/) -->
<svg height="345pt" version="1.1" viewBox="0 0 460 345" width="460pt" xmlns="http://www.w3.org/2000/svg" xmlns:xlink="http://www.w3.org/1999/xlink">
 <defs>
  <style type="text/css">
*{stroke-linecap:butt;stroke-linejoin:round;}
  </style>
 </defs>
 <g id="figure_1">
  <g id="patch_1">
   <path d="M 0 345.6 
L 460.8 345.6 
L 460.8 0 
L 0 0 
z
" style="fill:#ffffff;"/>
  </g>
  <g id="axes_1">
   <g id="patch_2">
    <path d="M 57.6 307.584 
L 414.72 307.584 
L 414.72 41.472 
L 57.6 41.472 
z
" style="fill:#ffffff;"/>
   </g>
   <g id="matplotlib.axis_1">
    <g id="xtick_1">
     <g id="line2d_1">
      <path clip-path="url(#p1d613123b5)" d="M 57.6 307.584 
L 57.6 41.472 
" style="fill:none;stroke:#b0b0b0;stroke-linecap:square;stroke-width:0.8;"/>
     </g>
     <g id="line2d_2">
      <defs>
       <path d="M 0 0 
L 0 3.5 
" id="ma3c4818b25" style="stroke:#000000;stroke-width:0.8;"/>
      </defs>
      <g>
       <use style="stroke:#000000;stroke-width:0.8;" x="57.6" xlink:href="#ma3c4818b25" y="307.584"/>
      </g>
     </g>
     <g id="text_1">
      <!-- 0 -->
      <defs>
       <path d="M 31.78125 66.40625 
Q 24.171875 66.40625 20.328125 58.90625 
Q 16.5 51.421875 16.5 36.375 
Q 16.5 21.390625 20.328125 13.890625 
Q 24.171875 6.390625 31.78125 6.390625 
Q 39.453125 6.390625 43.28125 13.890625 
Q 47.125 21.390625 47.125 36.375 
Q 47.125 51.421875 43.28125 58.90625 
Q 39.453125 66.40625 31.78125 66.40625 
M 31.78125 74.21875 
Q 44.046875 74.21875 50.515625 64.515625 
Q 56.984375 54.828125 56.984375 36.375 
Q 56.984375 17.96875 50.515625 8.265625 
Q 44.046875 -1.421875 31.78125 -1.421875 
Q 19.53125 -1.421875 13.0625 8.265625 
Q 6.59375 17.96875 6.59375 36.375 
Q 6.59375 54.828125 13.0625 64.515625 
Q 19.53125 74.21875 31.78125 74.21875 
" id="DejaVuSans-30"/>
      </defs>
      <g transform="translate(54.41875 322.182437)scale(0.1 -0.1)">
       <use xlink:href="#DejaVuSans-30"/>
      </g>
     </g>
    </g>
    <g id="xtick_2">
     <g id="line2d_3">
      <path clip-path="url(#p1d613123b5)" d="M 129.024 307.584 
L 129.024 41.472 
" style="fill:none;stroke:#b0b0b0;stroke-linecap:square;stroke-width:0.8;"/>
     </g>
     <g id="line2d_4">
      <g>
       <use style="stroke:#000000;stroke-width:0.8;" x="129.024" xlink:href="#ma3c4818b25" y="307.584"/>
      </g>
     </g>
     <g id="text_2">
      <!-- 200 -->
      <defs>
       <path d="M 19.1875 8.296875 
L 53.609375 8.296875 
L 53.609375 0 
L 7.328125 0 
L 7.328125 8.296875 
Q 12.9375 14.109375 22.625 23.890625 
Q 32.328125 33.6875 34.8125 36.53125 
Q 39.546875 41.84375 41.421875 45.53125 
Q 43.3125 49.21875 43.3125 52.78125 
Q 43.3125 58.59375 39.234375 62.25 
Q 35.15625 65.921875 28.609375 65.921875 
Q 23.96875 65.921875 18.8125 64.3125 
Q 13.671875 62.703125 7.8125 59.421875 
L 7.8125 69.390625 
Q 13.765625 71.78125 18.9375 73 
Q 24.125 74.21875 28.421875 74.21875 
Q 39.75 74.21875 46.484375 68.546875 
Q 53.21875 62.890625 53.21875 53.421875 
Q 53.21875 48.921875 51.53125 44.890625 
Q 49.859375 40.875 45.40625 35.40625 
Q 44.1875 33.984375 37.640625 27.21875 
Q 31.109375 20.453125 19.1875 8.296875 
" id="DejaVuSans-32"/>
      </defs>
      <g transform="translate(119.48025 322.182437)scale(0.1 -0.1)">
       <use xlink:href="#DejaVuSans-32"/>
       <use x="63.623047" xlink:href="#DejaVuSans-30"/>
       <use x="127.246094" xlink:href="#DejaVuSans-30"/>
      </g>
     </g>
    </g>
    <g id="xtick_3">
     <g id="line2d_5">
      <path clip-path="url(#p1d613123b5)" d="M 200.448 307.584 
L 200.448 41.472 
" style="fill:none;stroke:#b0b0b0;stroke-linecap:square;stroke-width:0.8;"/>
     </g>
     <g id="line2d_6">
      <g>
       <use style="stroke:#000000;stroke-width:0.8;" x="200.448" xlink:href="#ma3c4818b25" y="307.584"/>
      </g>
     </g>
     <g id="text_3">
      <!-- 400 -->
      <defs>
       <path d="M 37.796875 64.3125 
L 12.890625 25.390625 
L 37.796875 25.390625 
z
M 35.203125 72.90625 
L 47.609375 72.90625 
L 47.609375 25.390625 
L 58.015625 25.390625 
L 58.015625 17.1875 
L 47.609375 17.1875 
L 47.609375 0 
L 37.796875 0 
L 37.796875 17.1875 
L 4.890625 17.1875 
L 4.890625 26.703125 
z
" id="DejaVuSans-34"/>
      </defs>
      <g transform="translate(190.90425 322.182437)scale(0.1 -0.1)">
       <use xlink:href="#DejaVuSans-34"/>
       <use x="63.623047" xlink:href="#DejaVuSans-30"/>
       <use x="127.246094" xlink:href="#DejaVuSans-30"/>
      </g>
     </g>
    </g>
    <g id="xtick_4">
     <g id="line2d_7">
      <path clip-path="url(#p1d613123b5)" d="M 271.872 307.584 
L 271.872 41.472 
" style="fill:none;stroke:#b0b0b0;stroke-linecap:square;stroke-width:0.8;"/>
     </g>
     <g id="line2d_8">
      <g>
       <use style="stroke:#000000;stroke-width:0.8;" x="271.872" xlink:href="#ma3c4818b25" y="307.584"/>
      </g>
     </g>
     <g id="text_4">
      <!-- 600 -->
      <defs>
       <path d="M 33.015625 40.375 
Q 26.375 40.375 22.484375 35.828125 
Q 18.609375 31.296875 18.609375 23.390625 
Q 18.609375 15.53125 22.484375 10.953125 
Q 26.375 6.390625 33.015625 6.390625 
Q 39.65625 6.390625 43.53125 10.953125 
Q 47.40625 15.53125 47.40625 23.390625 
Q 47.40625 31.296875 43.53125 35.828125 
Q 39.65625 40.375 33.015625 40.375 
M 52.59375 71.296875 
L 52.59375 62.3125 
Q 48.875 64.0625 45.09375 64.984375 
Q 41.3125 65.921875 37.59375 65.921875 
Q 27.828125 65.921875 22.671875 59.328125 
Q 17.53125 52.734375 16.796875 39.40625 
Q 19.671875 43.65625 24.015625 45.921875 
Q 28.375 48.1875 33.59375 48.1875 
Q 44.578125 48.1875 50.953125 41.515625 
Q 57.328125 34.859375 57.328125 23.390625 
Q 57.328125 12.15625 50.6875 5.359375 
Q 44.046875 -1.421875 33.015625 -1.421875 
Q 20.359375 -1.421875 13.671875 8.265625 
Q 6.984375 17.96875 6.984375 36.375 
Q 6.984375 53.65625 15.1875 63.9375 
Q 23.390625 74.21875 37.203125 74.21875 
Q 40.921875 74.21875 44.703125 73.484375 
Q 48.484375 72.75 52.59375 71.296875 
" id="DejaVuSans-36"/>
      </defs>
      <g transform="translate(262.32825 322.182437)scale(0.1 -0.1)">
       <use xlink:href="#DejaVuSans-36"/>
       <use x="63.623047" xlink:href="#DejaVuSans-30"/>
       <use x="127.246094" xlink:href="#DejaVuSans-30"/>
      </g>
     </g>
    </g>
    <g id="xtick_5">
     <g id="line2d_9">
      <path clip-path="url(#p1d613123b5)" d="M 343.296 307.584 
L 343.296 41.472 
" style="fill:none;stroke:#b0b0b0;stroke-linecap:square;stroke-width:0.8;"/>
     </g>
     <g id="line2d_10">
      <g>
       <use style="stroke:#000000;stroke-width:0.8;" x="343.296" xlink:href="#ma3c4818b25" y="307.584"/>
      </g>
     </g>
     <g id="text_5">
      <!-- 800 -->
      <defs>
       <path d="M 31.78125 34.625 
Q 24.75 34.625 20.71875 30.859375 
Q 16.703125 27.09375 16.703125 20.515625 
Q 16.703125 13.921875 20.71875 10.15625 
Q 24.75 6.390625 31.78125 6.390625 
Q 38.8125 6.390625 42.859375 10.171875 
Q 46.921875 13.96875 46.921875 20.515625 
Q 46.921875 27.09375 42.890625 30.859375 
Q 38.875 34.625 31.78125 34.625 
M 21.921875 38.8125 
Q 15.578125 40.375 12.03125 44.71875 
Q 8.5 49.078125 8.5 55.328125 
Q 8.5 64.0625 14.71875 69.140625 
Q 20.953125 74.21875 31.78125 74.21875 
Q 42.671875 74.21875 48.875 69.140625 
Q 55.078125 64.0625 55.078125 55.328125 
Q 55.078125 49.078125 51.53125 44.71875 
Q 48 40.375 41.703125 38.8125 
Q 48.828125 37.15625 52.796875 32.3125 
Q 56.78125 27.484375 56.78125 20.515625 
Q 56.78125 9.90625 50.3125 4.234375 
Q 43.84375 -1.421875 31.78125 -1.421875 
Q 19.734375 -1.421875 13.25 4.234375 
Q 6.78125 9.90625 6.78125 20.515625 
Q 6.78125 27.484375 10.78125 32.3125 
Q 14.796875 37.15625 21.921875 38.8125 
M 18.3125 54.390625 
Q 18.3125 48.734375 21.84375 45.5625 
Q 25.390625 42.390625 31.78125 42.390625 
Q 38.140625 42.390625 41.71875 45.5625 
Q 45.3125 48.734375 45.3125 54.390625 
Q 45.3125 60.0625 41.71875 63.234375 
Q 38.140625 66.40625 31.78125 66.40625 
Q 25.390625 66.40625 21.84375 63.234375 
Q 18.3125 60.0625 18.3125 54.390625 
" id="DejaVuSans-38"/>
      </defs>
      <g transform="translate(333.75225 322.182437)scale(0.1 -0.1)">
       <use xlink:href="#DejaVuSans-38"/>
       <use x="63.623047" xlink:href="#DejaVuSans-30"/>
       <use x="127.246094" xlink:href="#DejaVuSans-30"/>
      </g>
     </g>
    </g>
    <g id="xtick_6">
     <g id="line2d_11">
      <path clip-path="url(#p1d613123b5)" d="M 414.72 307.584 
L 414.72 41.472 
" style="fill:none;stroke:#b0b0b0;stroke-linecap:square;stroke-width:0.8;"/>
     </g>
     <g id="line2d_12">
      <g>
       <use style="stroke:#000000;stroke-width:0.8;" x="414.72" xlink:href="#ma3c4818b25" y="307.584"/>
      </g>
     </g>
     <g id="text_6">
      <!-- 1000 -->
      <defs>
       <path d="M 12.40625 8.296875 
L 28.515625 8.296875 
L 28.515625 63.921875 
L 10.984375 60.40625 
L 10.984375 69.390625 
L 28.421875 72.90625 
L 38.28125 72.90625 
L 38.28125 8.296875 
L 54.390625 8.296875 
L 54.390625 0 
L 12.40625 0 
z
" id="DejaVuSans-31"/>
      </defs>
      <g transform="translate(401.995 322.182437)scale(0.1 -0.1)">
       <use xlink:href="#DejaVuSans-31"/>
       <use x="63.623047" xlink:href="#DejaVuSans-30"/>
       <use x="127.246094" xlink:href="#DejaVuSans-30"/>
       <use x="190.869141" xlink:href="#DejaVuSans-30"/>
      </g>
     </g>
    </g>
    <g id="text_7">
     <!-- Number of clients -->
     <defs>
      <path d="M 9.8125 72.90625 
L 23.09375 72.90625 
L 55.421875 11.921875 
L 55.421875 72.90625 
L 64.984375 72.90625 
L 64.984375 0 
L 51.703125 0 
L 19.390625 60.984375 
L 19.390625 0 
L 9.8125 0 
z
" id="DejaVuSans-4e"/>
      <path d="M 8.5 21.578125 
L 8.5 54.6875 
L 17.484375 54.6875 
L 17.484375 21.921875 
Q 17.484375 14.15625 20.5 10.265625 
Q 23.53125 6.390625 29.59375 6.390625 
Q 36.859375 6.390625 41.078125 11.03125 
Q 45.3125 15.671875 45.3125 23.6875 
L 45.3125 54.6875 
L 54.296875 54.6875 
L 54.296875 0 
L 45.3125 0 
L 45.3125 8.40625 
Q 42.046875 3.421875 37.71875 1 
Q 33.40625 -1.421875 27.6875 -1.421875 
Q 18.265625 -1.421875 13.375 4.4375 
Q 8.5 10.296875 8.5 21.578125 
M 31.109375 56 
z
" id="DejaVuSans-75"/>
      <path d="M 52 44.1875 
Q 55.375 50.25 60.0625 53.125 
Q 64.75 56 71.09375 56 
Q 79.640625 56 84.28125 50.015625 
Q 88.921875 44.046875 88.921875 33.015625 
L 88.921875 0 
L 79.890625 0 
L 79.890625 32.71875 
Q 79.890625 40.578125 77.09375 44.375 
Q 74.3125 48.1875 68.609375 48.1875 
Q 61.625 48.1875 57.5625 43.546875 
Q 53.515625 38.921875 53.515625 30.90625 
L 53.515625 0 
L 44.484375 0 
L 44.484375 32.71875 
Q 44.484375 40.625 41.703125 44.40625 
Q 38.921875 48.1875 33.109375 48.1875 
Q 26.21875 48.1875 22.15625 43.53125 
Q 18.109375 38.875 18.109375 30.90625 
L 18.109375 0 
L 9.078125 0 
L 9.078125 54.6875 
L 18.109375 54.6875 
L 18.109375 46.1875 
Q 21.1875 51.21875 25.484375 53.609375 
Q 29.78125 56 35.6875 56 
Q 41.65625 56 45.828125 52.96875 
Q 50 49.953125 52 44.1875 
" id="DejaVuSans-6d"/>
      <path d="M 48.6875 27.296875 
Q 48.6875 37.203125 44.609375 42.84375 
Q 40.53125 48.484375 33.40625 48.484375 
Q 26.265625 48.484375 22.1875 42.84375 
Q 18.109375 37.203125 18.109375 27.296875 
Q 18.109375 17.390625 22.1875 11.75 
Q 26.265625 6.109375 33.40625 6.109375 
Q 40.53125 6.109375 44.609375 11.75 
Q 48.6875 17.390625 48.6875 27.296875 
M 18.109375 46.390625 
Q 20.953125 51.265625 25.265625 53.625 
Q 29.59375 56 35.59375 56 
Q 45.5625 56 51.78125 48.09375 
Q 58.015625 40.1875 58.015625 27.296875 
Q 58.015625 14.40625 51.78125 6.484375 
Q 45.5625 -1.421875 35.59375 -1.421875 
Q 29.59375 -1.421875 25.265625 0.953125 
Q 20.953125 3.328125 18.109375 8.203125 
L 18.109375 0 
L 9.078125 0 
L 9.078125 75.984375 
L 18.109375 75.984375 
z
" id="DejaVuSans-62"/>
      <path d="M 56.203125 29.59375 
L 56.203125 25.203125 
L 14.890625 25.203125 
Q 15.484375 15.921875 20.484375 11.0625 
Q 25.484375 6.203125 34.421875 6.203125 
Q 39.59375 6.203125 44.453125 7.46875 
Q 49.3125 8.734375 54.109375 11.28125 
L 54.109375 2.78125 
Q 49.265625 0.734375 44.1875 -0.34375 
Q 39.109375 -1.421875 33.890625 -1.421875 
Q 20.796875 -1.421875 13.15625 6.1875 
Q 5.515625 13.8125 5.515625 26.8125 
Q 5.515625 40.234375 12.765625 48.109375 
Q 20.015625 56 32.328125 56 
Q 43.359375 56 49.78125 48.890625 
Q 56.203125 41.796875 56.203125 29.59375 
M 47.21875 32.234375 
Q 47.125 39.59375 43.09375 43.984375 
Q 39.0625 48.390625 32.421875 48.390625 
Q 24.90625 48.390625 20.390625 44.140625 
Q 15.875 39.890625 15.1875 32.171875 
z
" id="DejaVuSans-65"/>
      <path d="M 41.109375 46.296875 
Q 39.59375 47.171875 37.8125 47.578125 
Q 36.03125 48 33.890625 48 
Q 26.265625 48 22.1875 43.046875 
Q 18.109375 38.09375 18.109375 28.8125 
L 18.109375 0 
L 9.078125 0 
L 9.078125 54.6875 
L 18.109375 54.6875 
L 18.109375 46.1875 
Q 20.953125 51.171875 25.484375 53.578125 
Q 30.03125 56 36.53125 56 
Q 37.453125 56 38.578125 55.875 
Q 39.703125 55.765625 41.0625 55.515625 
z
" id="DejaVuSans-72"/>
      <path id="DejaVuSans-20"/>
      <path d="M 30.609375 48.390625 
Q 23.390625 48.390625 19.1875 42.75 
Q 14.984375 37.109375 14.984375 27.296875 
Q 14.984375 17.484375 19.15625 11.84375 
Q 23.34375 6.203125 30.609375 6.203125 
Q 37.796875 6.203125 41.984375 11.859375 
Q 46.1875 17.53125 46.1875 27.296875 
Q 46.1875 37.015625 41.984375 42.703125 
Q 37.796875 48.390625 30.609375 48.390625 
M 30.609375 56 
Q 42.328125 56 49.015625 48.375 
Q 55.71875 40.765625 55.71875 27.296875 
Q 55.71875 13.875 49.015625 6.21875 
Q 42.328125 -1.421875 30.609375 -1.421875 
Q 18.84375 -1.421875 12.171875 6.21875 
Q 5.515625 13.875 5.515625 27.296875 
Q 5.515625 40.765625 12.171875 48.375 
Q 18.84375 56 30.609375 56 
" id="DejaVuSans-6f"/>
      <path d="M 37.109375 75.984375 
L 37.109375 68.5 
L 28.515625 68.5 
Q 23.6875 68.5 21.796875 66.546875 
Q 19.921875 64.59375 19.921875 59.515625 
L 19.921875 54.6875 
L 34.71875 54.6875 
L 34.71875 47.703125 
L 19.921875 47.703125 
L 19.921875 0 
L 10.890625 0 
L 10.890625 47.703125 
L 2.296875 47.703125 
L 2.296875 54.6875 
L 10.890625 54.6875 
L 10.890625 58.5 
Q 10.890625 67.625 15.140625 71.796875 
Q 19.390625 75.984375 28.609375 75.984375 
z
" id="DejaVuSans-66"/>
      <path d="M 48.78125 52.59375 
L 48.78125 44.1875 
Q 44.96875 46.296875 41.140625 47.34375 
Q 37.3125 48.390625 33.40625 48.390625 
Q 24.65625 48.390625 19.8125 42.84375 
Q 14.984375 37.3125 14.984375 27.296875 
Q 14.984375 17.28125 19.8125 11.734375 
Q 24.65625 6.203125 33.40625 6.203125 
Q 37.3125 6.203125 41.140625 7.25 
Q 44.96875 8.296875 48.78125 10.40625 
L 48.78125 2.09375 
Q 45.015625 0.34375 40.984375 -0.53125 
Q 36.96875 -1.421875 32.421875 -1.421875 
Q 20.0625 -1.421875 12.78125 6.34375 
Q 5.515625 14.109375 5.515625 27.296875 
Q 5.515625 40.671875 12.859375 48.328125 
Q 20.21875 56 33.015625 56 
Q 37.15625 56 41.109375 55.140625 
Q 45.0625 54.296875 48.78125 52.59375 
" id="DejaVuSans-63"/>
      <path d="M 9.421875 75.984375 
L 18.40625 75.984375 
L 18.40625 0 
L 9.421875 0 
z
" id="DejaVuSans-6c"/>
      <path d="M 9.421875 54.6875 
L 18.40625 54.6875 
L 18.40625 0 
L 9.421875 0 
z
M 9.421875 75.984375 
L 18.40625 75.984375 
L 18.40625 64.59375 
L 9.421875 64.59375 
z
" id="DejaVuSans-69"/>
      <path d="M 54.890625 33.015625 
L 54.890625 0 
L 45.90625 0 
L 45.90625 32.71875 
Q 45.90625 40.484375 42.875 44.328125 
Q 39.84375 48.1875 33.796875 48.1875 
Q 26.515625 48.1875 22.3125 43.546875 
Q 18.109375 38.921875 18.109375 30.90625 
L 18.109375 0 
L 9.078125 0 
L 9.078125 54.6875 
L 18.109375 54.6875 
L 18.109375 46.1875 
Q 21.34375 51.125 25.703125 53.5625 
Q 30.078125 56 35.796875 56 
Q 45.21875 56 50.046875 50.171875 
Q 54.890625 44.34375 54.890625 33.015625 
" id="DejaVuSans-6e"/>
      <path d="M 18.3125 70.21875 
L 18.3125 54.6875 
L 36.8125 54.6875 
L 36.8125 47.703125 
L 18.3125 47.703125 
L 18.3125 18.015625 
Q 18.3125 11.328125 20.140625 9.421875 
Q 21.96875 7.515625 27.59375 7.515625 
L 36.8125 7.515625 
L 36.8125 0 
L 27.59375 0 
Q 17.1875 0 13.234375 3.875 
Q 9.28125 7.765625 9.28125 18.015625 
L 9.28125 47.703125 
L 2.6875 47.703125 
L 2.6875 54.6875 
L 9.28125 54.6875 
L 9.28125 70.21875 
z
" id="DejaVuSans-74"/>
      <path d="M 44.28125 53.078125 
L 44.28125 44.578125 
Q 40.484375 46.53125 36.375 47.5 
Q 32.28125 48.484375 27.875 48.484375 
Q 21.1875 48.484375 17.84375 46.4375 
Q 14.5 44.390625 14.5 40.28125 
Q 14.5 37.15625 16.890625 35.375 
Q 19.28125 33.59375 26.515625 31.984375 
L 29.59375 31.296875 
Q 39.15625 29.25 43.1875 25.515625 
Q 47.21875 21.78125 47.21875 15.09375 
Q 47.21875 7.46875 41.1875 3.015625 
Q 35.15625 -1.421875 24.609375 -1.421875 
Q 20.21875 -1.421875 15.453125 -0.5625 
Q 10.6875 0.296875 5.421875 2 
L 5.421875 11.28125 
Q 10.40625 8.6875 15.234375 7.390625 
Q 20.0625 6.109375 24.8125 6.109375 
Q 31.15625 6.109375 34.5625 8.28125 
Q 37.984375 10.453125 37.984375 14.40625 
Q 37.984375 18.0625 35.515625 20.015625 
Q 33.0625 21.96875 24.703125 23.78125 
L 21.578125 24.515625 
Q 13.234375 26.265625 9.515625 29.90625 
Q 5.8125 33.546875 5.8125 39.890625 
Q 5.8125 47.609375 11.28125 51.796875 
Q 16.75 56 26.8125 56 
Q 31.78125 56 36.171875 55.265625 
Q 40.578125 54.546875 44.28125 53.078125 
" id="DejaVuSans-73"/>
     </defs>
     <g transform="translate(191.738906 335.860562)scale(0.1 -0.1)">
      <use xlink:href="#DejaVuSans-4e"/>
      <use x="74.804688" xlink:href="#DejaVuSans-75"/>
      <use x="138.183594" xlink:href="#DejaVuSans-6d"/>
      <use x="235.595703" xlink:href="#DejaVuSans-62"/>
      <use x="299.072266" xlink:href="#DejaVuSans-65"/>
      <use x="360.595703" xlink:href="#DejaVuSans-72"/>
      <use x="401.708984" xlink:href="#DejaVuSans-20"/>
      <use x="433.496094" xlink:href="#DejaVuSans-6f"/>
      <use x="494.677734" xlink:href="#DejaVuSans-66"/>
      <use x="529.882812" xlink:href="#DejaVuSans-20"/>
      <use x="561.669922" xlink:href="#DejaVuSans-63"/>
      <use x="616.650391" xlink:href="#DejaVuSans-6c"/>
      <use x="644.433594" xlink:href="#DejaVuSans-69"/>
      <use x="672.216797" xlink:href="#DejaVuSans-65"/>
      <use x="733.740234" xlink:href="#DejaVuSans-6e"/>
      <use x="797.119141" xlink:href="#DejaVuSans-74"/>
      <use x="836.328125" xlink:href="#DejaVuSans-73"/>
     </g>
    </g>
   </g>
   <g id="matplotlib.axis_2">
    <g id="ytick_1">
     <g id="line2d_13">
      <path clip-path="url(#p1d613123b5)" d="M 57.6 295.91045 
L 414.72 295.91045 
" style="fill:none;stroke:#b0b0b0;stroke-linecap:square;stroke-width:0.8;"/>
     </g>
     <g id="line2d_14">
      <defs>
       <path d="M 0 0 
L -3.5 0 
" id="m2625a83f1d" style="stroke:#000000;stroke-width:0.8;"/>
      </defs>
      <g>
       <use style="stroke:#000000;stroke-width:0.8;" x="57.6" xlink:href="#m2625a83f1d" y="295.91045"/>
      </g>
     </g>
     <g id="text_8">
      <!-- 0 -->
      <g transform="translate(44.2375 299.709669)scale(0.1 -0.1)">
       <use xlink:href="#DejaVuSans-30"/>
      </g>
     </g>
    </g>
    <g id="ytick_2">
     <g id="line2d_15">
      <path clip-path="url(#p1d613123b5)" d="M 57.6 252.223812 
L 414.72 252.223812 
" style="fill:none;stroke:#b0b0b0;stroke-linecap:square;stroke-width:0.8;"/>
     </g>
     <g id="line2d_16">
      <g>
       <use style="stroke:#000000;stroke-width:0.8;" x="57.6" xlink:href="#m2625a83f1d" y="252.223812"/>
      </g>
     </g>
     <g id="text_9">
      <!-- 100 -->
      <g transform="translate(31.5125 256.023031)scale(0.1 -0.1)">
       <use xlink:href="#DejaVuSans-31"/>
       <use x="63.623047" xlink:href="#DejaVuSans-30"/>
       <use x="127.246094" xlink:href="#DejaVuSans-30"/>
      </g>
     </g>
    </g>
    <g id="ytick_3">
     <g id="line2d_17">
      <path clip-path="url(#p1d613123b5)" d="M 57.6 208.537174 
L 414.72 208.537174 
" style="fill:none;stroke:#b0b0b0;stroke-linecap:square;stroke-width:0.8;"/>
     </g>
     <g id="line2d_18">
      <g>
       <use style="stroke:#000000;stroke-width:0.8;" x="57.6" xlink:href="#m2625a83f1d" y="208.537174"/>
      </g>
     </g>
     <g id="text_10">
      <!-- 200 -->
      <g transform="translate(31.5125 212.336393)scale(0.1 -0.1)">
       <use xlink:href="#DejaVuSans-32"/>
       <use x="63.623047" xlink:href="#DejaVuSans-30"/>
       <use x="127.246094" xlink:href="#DejaVuSans-30"/>
      </g>
     </g>
    </g>
    <g id="ytick_4">
     <g id="line2d_19">
      <path clip-path="url(#p1d613123b5)" d="M 57.6 164.850536 
L 414.72 164.850536 
" style="fill:none;stroke:#b0b0b0;stroke-linecap:square;stroke-width:0.8;"/>
     </g>
     <g id="line2d_20">
      <g>
       <use style="stroke:#000000;stroke-width:0.8;" x="57.6" xlink:href="#m2625a83f1d" y="164.850536"/>
      </g>
     </g>
     <g id="text_11">
      <!-- 300 -->
      <defs>
       <path d="M 40.578125 39.3125 
Q 47.65625 37.796875 51.625 33 
Q 55.609375 28.21875 55.609375 21.1875 
Q 55.609375 10.40625 48.1875 4.484375 
Q 40.765625 -1.421875 27.09375 -1.421875 
Q 22.515625 -1.421875 17.65625 -0.515625 
Q 12.796875 0.390625 7.625 2.203125 
L 7.625 11.71875 
Q 11.71875 9.328125 16.59375 8.109375 
Q 21.484375 6.890625 26.8125 6.890625 
Q 36.078125 6.890625 40.9375 10.546875 
Q 45.796875 14.203125 45.796875 21.1875 
Q 45.796875 27.640625 41.28125 31.265625 
Q 36.765625 34.90625 28.71875 34.90625 
L 20.21875 34.90625 
L 20.21875 43.015625 
L 29.109375 43.015625 
Q 36.375 43.015625 40.234375 45.921875 
Q 44.09375 48.828125 44.09375 54.296875 
Q 44.09375 59.90625 40.109375 62.90625 
Q 36.140625 65.921875 28.71875 65.921875 
Q 24.65625 65.921875 20.015625 65.03125 
Q 15.375 64.15625 9.8125 62.3125 
L 9.8125 71.09375 
Q 15.4375 72.65625 20.34375 73.4375 
Q 25.25 74.21875 29.59375 74.21875 
Q 40.828125 74.21875 47.359375 69.109375 
Q 53.90625 64.015625 53.90625 55.328125 
Q 53.90625 49.265625 50.4375 45.09375 
Q 46.96875 40.921875 40.578125 39.3125 
" id="DejaVuSans-33"/>
      </defs>
      <g transform="translate(31.5125 168.649755)scale(0.1 -0.1)">
       <use xlink:href="#DejaVuSans-33"/>
       <use x="63.623047" xlink:href="#DejaVuSans-30"/>
       <use x="127.246094" xlink:href="#DejaVuSans-30"/>
      </g>
     </g>
    </g>
    <g id="ytick_5">
     <g id="line2d_21">
      <path clip-path="url(#p1d613123b5)" d="M 57.6 121.163898 
L 414.72 121.163898 
" style="fill:none;stroke:#b0b0b0;stroke-linecap:square;stroke-width:0.8;"/>
     </g>
     <g id="line2d_22">
      <g>
       <use style="stroke:#000000;stroke-width:0.8;" x="57.6" xlink:href="#m2625a83f1d" y="121.163898"/>
      </g>
     </g>
     <g id="text_12">
      <!-- 400 -->
      <g transform="translate(31.5125 124.963117)scale(0.1 -0.1)">
       <use xlink:href="#DejaVuSans-34"/>
       <use x="63.623047" xlink:href="#DejaVuSans-30"/>
       <use x="127.246094" xlink:href="#DejaVuSans-30"/>
      </g>
     </g>
    </g>
    <g id="ytick_6">
     <g id="line2d_23">
      <path clip-path="url(#p1d613123b5)" d="M 57.6 77.47726 
L 414.72 77.47726 
" style="fill:none;stroke:#b0b0b0;stroke-linecap:square;stroke-width:0.8;"/>
     </g>
     <g id="line2d_24">
      <g>
       <use style="stroke:#000000;stroke-width:0.8;" x="57.6" xlink:href="#m2625a83f1d" y="77.47726"/>
      </g>
     </g>
     <g id="text_13">
      <!-- 500 -->
      <defs>
       <path d="M 10.796875 72.90625 
L 49.515625 72.90625 
L 49.515625 64.59375 
L 19.828125 64.59375 
L 19.828125 46.734375 
Q 21.96875 47.46875 24.109375 47.828125 
Q 26.265625 48.1875 28.421875 48.1875 
Q 40.625 48.1875 47.75 41.5 
Q 54.890625 34.8125 54.890625 23.390625 
Q 54.890625 11.625 47.5625 5.09375 
Q 40.234375 -1.421875 26.90625 -1.421875 
Q 22.3125 -1.421875 17.546875 -0.640625 
Q 12.796875 0.140625 7.71875 1.703125 
L 7.71875 11.625 
Q 12.109375 9.234375 16.796875 8.0625 
Q 21.484375 6.890625 26.703125 6.890625 
Q 35.15625 6.890625 40.078125 11.328125 
Q 45.015625 15.765625 45.015625 23.390625 
Q 45.015625 31 40.078125 35.4375 
Q 35.15625 39.890625 26.703125 39.890625 
Q 22.75 39.890625 18.8125 39.015625 
Q 14.890625 38.140625 10.796875 36.28125 
z
" id="DejaVuSans-35"/>
      </defs>
      <g transform="translate(31.5125 81.276479)scale(0.1 -0.1)">
       <use xlink:href="#DejaVuSans-35"/>
       <use x="63.623047" xlink:href="#DejaVuSans-30"/>
       <use x="127.246094" xlink:href="#DejaVuSans-30"/>
      </g>
     </g>
    </g>
    <g id="text_14">
     <!-- Successful download requests per second -->
     <defs>
      <path d="M 53.515625 70.515625 
L 53.515625 60.890625 
Q 47.90625 63.578125 42.921875 64.890625 
Q 37.9375 66.21875 33.296875 66.21875 
Q 25.25 66.21875 20.875 63.09375 
Q 16.5 59.96875 16.5 54.203125 
Q 16.5 49.359375 19.40625 46.890625 
Q 22.3125 44.4375 30.421875 42.921875 
L 36.375 41.703125 
Q 47.40625 39.59375 52.65625 34.296875 
Q 57.90625 29 57.90625 20.125 
Q 57.90625 9.515625 50.796875 4.046875 
Q 43.703125 -1.421875 29.984375 -1.421875 
Q 24.8125 -1.421875 18.96875 -0.25 
Q 13.140625 0.921875 6.890625 3.21875 
L 6.890625 13.375 
Q 12.890625 10.015625 18.65625 8.296875 
Q 24.421875 6.59375 29.984375 6.59375 
Q 38.421875 6.59375 43.015625 9.90625 
Q 47.609375 13.234375 47.609375 19.390625 
Q 47.609375 24.75 44.3125 27.78125 
Q 41.015625 30.8125 33.5 32.328125 
L 27.484375 33.5 
Q 16.453125 35.6875 11.515625 40.375 
Q 6.59375 45.0625 6.59375 53.421875 
Q 6.59375 63.09375 13.40625 68.65625 
Q 20.21875 74.21875 32.171875 74.21875 
Q 37.3125 74.21875 42.625 73.28125 
Q 47.953125 72.359375 53.515625 70.515625 
" id="DejaVuSans-53"/>
      <path d="M 45.40625 46.390625 
L 45.40625 75.984375 
L 54.390625 75.984375 
L 54.390625 0 
L 45.40625 0 
L 45.40625 8.203125 
Q 42.578125 3.328125 38.25 0.953125 
Q 33.9375 -1.421875 27.875 -1.421875 
Q 17.96875 -1.421875 11.734375 6.484375 
Q 5.515625 14.40625 5.515625 27.296875 
Q 5.515625 40.1875 11.734375 48.09375 
Q 17.96875 56 27.875 56 
Q 33.9375 56 38.25 53.625 
Q 42.578125 51.265625 45.40625 46.390625 
M 14.796875 27.296875 
Q 14.796875 17.390625 18.875 11.75 
Q 22.953125 6.109375 30.078125 6.109375 
Q 37.203125 6.109375 41.296875 11.75 
Q 45.40625 17.390625 45.40625 27.296875 
Q 45.40625 37.203125 41.296875 42.84375 
Q 37.203125 48.484375 30.078125 48.484375 
Q 22.953125 48.484375 18.875 42.84375 
Q 14.796875 37.203125 14.796875 27.296875 
" id="DejaVuSans-64"/>
      <path d="M 4.203125 54.6875 
L 13.1875 54.6875 
L 24.421875 12.015625 
L 35.59375 54.6875 
L 46.1875 54.6875 
L 57.421875 12.015625 
L 68.609375 54.6875 
L 77.59375 54.6875 
L 63.28125 0 
L 52.6875 0 
L 40.921875 44.828125 
L 29.109375 0 
L 18.5 0 
z
" id="DejaVuSans-77"/>
      <path d="M 34.28125 27.484375 
Q 23.390625 27.484375 19.1875 25 
Q 14.984375 22.515625 14.984375 16.5 
Q 14.984375 11.71875 18.140625 8.90625 
Q 21.296875 6.109375 26.703125 6.109375 
Q 34.1875 6.109375 38.703125 11.40625 
Q 43.21875 16.703125 43.21875 25.484375 
L 43.21875 27.484375 
z
M 52.203125 31.203125 
L 52.203125 0 
L 43.21875 0 
L 43.21875 8.296875 
Q 40.140625 3.328125 35.546875 0.953125 
Q 30.953125 -1.421875 24.3125 -1.421875 
Q 15.921875 -1.421875 10.953125 3.296875 
Q 6 8.015625 6 15.921875 
Q 6 25.140625 12.171875 29.828125 
Q 18.359375 34.515625 30.609375 34.515625 
L 43.21875 34.515625 
L 43.21875 35.40625 
Q 43.21875 41.609375 39.140625 45 
Q 35.0625 48.390625 27.6875 48.390625 
Q 23 48.390625 18.546875 47.265625 
Q 14.109375 46.140625 10.015625 43.890625 
L 10.015625 52.203125 
Q 14.9375 54.109375 19.578125 55.046875 
Q 24.21875 56 28.609375 56 
Q 40.484375 56 46.34375 49.84375 
Q 52.203125 43.703125 52.203125 31.203125 
" id="DejaVuSans-61"/>
      <path d="M 14.796875 27.296875 
Q 14.796875 17.390625 18.875 11.75 
Q 22.953125 6.109375 30.078125 6.109375 
Q 37.203125 6.109375 41.296875 11.75 
Q 45.40625 17.390625 45.40625 27.296875 
Q 45.40625 37.203125 41.296875 42.84375 
Q 37.203125 48.484375 30.078125 48.484375 
Q 22.953125 48.484375 18.875 42.84375 
Q 14.796875 37.203125 14.796875 27.296875 
M 45.40625 8.203125 
Q 42.578125 3.328125 38.25 0.953125 
Q 33.9375 -1.421875 27.875 -1.421875 
Q 17.96875 -1.421875 11.734375 6.484375 
Q 5.515625 14.40625 5.515625 27.296875 
Q 5.515625 40.1875 11.734375 48.09375 
Q 17.96875 56 27.875 56 
Q 33.9375 56 38.25 53.625 
Q 42.578125 51.265625 45.40625 46.390625 
L 45.40625 54.6875 
L 54.390625 54.6875 
L 54.390625 -20.796875 
L 45.40625 -20.796875 
z
" id="DejaVuSans-71"/>
      <path d="M 18.109375 8.203125 
L 18.109375 -20.796875 
L 9.078125 -20.796875 
L 9.078125 54.6875 
L 18.109375 54.6875 
L 18.109375 46.390625 
Q 20.953125 51.265625 25.265625 53.625 
Q 29.59375 56 35.59375 56 
Q 45.5625 56 51.78125 48.09375 
Q 58.015625 40.1875 58.015625 27.296875 
Q 58.015625 14.40625 51.78125 6.484375 
Q 45.5625 -1.421875 35.59375 -1.421875 
Q 29.59375 -1.421875 25.265625 0.953125 
Q 20.953125 3.328125 18.109375 8.203125 
M 48.6875 27.296875 
Q 48.6875 37.203125 44.609375 42.84375 
Q 40.53125 48.484375 33.40625 48.484375 
Q 26.265625 48.484375 22.1875 42.84375 
Q 18.109375 37.203125 18.109375 27.296875 
Q 18.109375 17.390625 22.1875 11.75 
Q 26.265625 6.109375 33.40625 6.109375 
Q 40.53125 6.109375 44.609375 11.75 
Q 48.6875 17.390625 48.6875 27.296875 
" id="DejaVuSans-70"/>
     </defs>
     <g transform="translate(25.432812 279.366281)rotate(-90)scale(0.1 -0.1)">
      <use xlink:href="#DejaVuSans-53"/>
      <use x="63.476562" xlink:href="#DejaVuSans-75"/>
      <use x="126.855469" xlink:href="#DejaVuSans-63"/>
      <use x="181.835938" xlink:href="#DejaVuSans-63"/>
      <use x="236.816406" xlink:href="#DejaVuSans-65"/>
      <use x="298.339844" xlink:href="#DejaVuSans-73"/>
      <use x="350.439453" xlink:href="#DejaVuSans-73"/>
      <use x="402.539062" xlink:href="#DejaVuSans-66"/>
      <use x="437.744141" xlink:href="#DejaVuSans-75"/>
      <use x="501.123047" xlink:href="#DejaVuSans-6c"/>
      <use x="528.90625" xlink:href="#DejaVuSans-20"/>
      <use x="560.693359" xlink:href="#DejaVuSans-64"/>
      <use x="624.169922" xlink:href="#DejaVuSans-6f"/>
      <use x="685.351562" xlink:href="#DejaVuSans-77"/>
      <use x="767.138672" xlink:href="#DejaVuSans-6e"/>
      <use x="830.517578" xlink:href="#DejaVuSans-6c"/>
      <use x="858.300781" xlink:href="#DejaVuSans-6f"/>
      <use x="919.482422" xlink:href="#DejaVuSans-61"/>
      <use x="980.761719" xlink:href="#DejaVuSans-64"/>
      <use x="1044.238281" xlink:href="#DejaVuSans-20"/>
      <use x="1076.025391" xlink:href="#DejaVuSans-72"/>
      <use x="1117.107422" xlink:href="#DejaVuSans-65"/>
      <use x="1178.630859" xlink:href="#DejaVuSans-71"/>
      <use x="1242.107422" xlink:href="#DejaVuSans-75"/>
      <use x="1305.486328" xlink:href="#DejaVuSans-65"/>
      <use x="1367.009766" xlink:href="#DejaVuSans-73"/>
      <use x="1419.109375" xlink:href="#DejaVuSans-74"/>
      <use x="1458.318359" xlink:href="#DejaVuSans-73"/>
      <use x="1510.417969" xlink:href="#DejaVuSans-20"/>
      <use x="1542.205078" xlink:href="#DejaVuSans-70"/>
      <use x="1605.681641" xlink:href="#DejaVuSans-65"/>
      <use x="1667.205078" xlink:href="#DejaVuSans-72"/>
      <use x="1708.318359" xlink:href="#DejaVuSans-20"/>
      <use x="1740.105469" xlink:href="#DejaVuSans-73"/>
      <use x="1792.205078" xlink:href="#DejaVuSans-65"/>
      <use x="1853.728516" xlink:href="#DejaVuSans-63"/>
      <use x="1908.708984" xlink:href="#DejaVuSans-6f"/>
      <use x="1969.890625" xlink:href="#DejaVuSans-6e"/>
      <use x="2033.269531" xlink:href="#DejaVuSans-64"/>
     </g>
    </g>
   </g>
   <g id="line2d_25">
    <path clip-path="url(#p1d613123b5)" d="M 57.6 295.479263 
L 57.95712 295.488 
L 62.24256 290.337782 
L 62.59968 290.208907 
L 62.9568 289.433469 
L 64.38528 287.987441 
L 64.7424 287.697362 
L 65.09952 286.924982 
L 65.45664 286.850278 
L 65.81376 286.427391 
L 66.17088 285.793498 
L 66.528 285.631858 
L 66.88512 285.172711 
L 67.24224 284.471541 
L 67.59936 284.380235 
L 68.3136 283.103712 
L 68.67072 283.08449 
L 69.02784 282.872173 
L 69.74208 281.171452 
L 70.0992 281.053498 
L 70.45632 281.14524 
L 70.81344 279.969196 
L 71.17056 279.881385 
L 71.8848 278.60093 
L 72.24192 279.150071 
L 72.59904 277.858694 
L 72.95616 277.286836 
L 73.31328 277.416148 
L 73.6704 277.147476 
L 74.02752 275.969247 
L 74.38464 275.874884 
L 74.74176 275.564709 
L 75.09888 275.672615 
L 75.456 275.574757 
L 76.17024 273.787973 
L 76.52736 274.139214 
L 76.88448 272.569116 
L 77.2416 271.922991 
L 77.59872 272.112154 
L 77.95584 271.167649 
L 78.31296 271.85615 
L 78.67008 271.333221 
L 79.0272 269.926074 
L 79.38432 269.712884 
L 79.74144 270.631614 
L 80.09856 268.3918 
L 80.45568 269.769239 
L 80.8128 268.623339 
L 81.16992 268.588826 
L 81.52704 267.089064 
L 81.88416 267.561317 
L 82.24128 267.220561 
L 83.31264 264.458255 
L 83.66976 264.345106 
L 84.02688 265.478775 
L 84.384 264.441217 
L 84.74112 263.861495 
L 85.09824 264.268655 
L 85.45536 263.807324 
L 85.81248 261.487563 
L 86.1696 262.864566 
L 86.52672 261.141128 
L 86.88384 261.180883 
L 87.24096 260.399329 
L 87.59808 259.218916 
L 87.9552 261.004389 
L 88.31232 259.352597 
L 88.66944 258.395423 
L 89.38368 258.893888 
L 89.7408 256.721788 
L 90.09792 256.29497 
L 90.45504 257.609501 
L 90.81216 255.571956 
L 91.16928 255.753255 
L 91.88352 254.840205 
L 92.24064 253.709594 
L 92.59776 254.865543 
L 92.95488 254.719193 
L 93.312 254.367515 
L 93.66912 254.681185 
L 94.38336 252.976533 
L 94.74048 253.456212 
L 95.0976 251.751122 
L 95.45472 251.625305 
L 95.81184 249.885703 
L 96.16896 249.468496 
L 96.52608 251.248726 
L 96.8832 248.759898 
L 97.24032 249.807941 
L 97.59744 249.512619 
L 97.95456 247.128639 
L 98.31168 247.561574 
L 98.6688 248.192409 
L 99.02592 245.996718 
L 99.74016 244.371139 
L 100.09728 246.15399 
L 100.4544 244.774366 
L 100.81152 244.781356 
L 101.16864 244.653354 
L 101.52576 243.093741 
L 101.88288 242.622363 
L 102.24 243.832919 
L 102.59712 241.304337 
L 102.95424 242.937343 
L 103.31136 243.596575 
L 103.66848 242.545037 
L 104.0256 242.35369 
L 104.38272 241.985848 
L 104.73984 238.48218 
L 105.09696 238.09599 
L 105.8112 239.868794 
L 106.16832 239.000303 
L 106.52544 237.31662 
L 106.88256 239.079376 
L 107.23968 235.279512 
L 107.5968 235.909474 
L 107.95392 236.947031 
L 108.31104 237.353754 
L 108.66816 233.722958 
L 109.02528 236.040097 
L 109.3824 236.910335 
L 109.73952 236.378231 
L 110.09664 234.424128 
L 110.45376 234.15065 
L 110.81088 232.808596 
L 111.168 234.940067 
L 111.52512 234.37651 
L 111.88224 230.989485 
L 112.23936 233.322788 
L 112.59648 232.730397 
L 112.9536 229.613356 
L 113.31072 228.169512 
L 113.66784 228.940581 
L 114.02496 231.50455 
L 114.38208 229.978576 
L 114.7392 227.729151 
L 115.45344 229.884213 
L 115.81056 224.781176 
L 116.16768 226.671497 
L 116.5248 225.467494 
L 116.88192 225.390605 
L 117.23904 226.487577 
L 117.59616 223.503342 
L 117.95328 226.834885 
L 118.3104 222.641405 
L 118.66752 226.011829 
L 119.02464 225.46662 
L 119.38176 221.300662 
L 119.73888 223.391505 
L 120.45312 222.445252 
L 120.81024 220.52304 
L 121.16736 219.590767 
L 121.52448 217.996205 
L 121.8816 219.28365 
L 122.23872 221.675493 
L 122.59584 219.851576 
L 122.95296 221.140332 
L 123.31008 217.755055 
L 123.6672 216.657209 
L 124.02432 216.200247 
L 124.38144 219.597757 
L 124.73856 214.814507 
L 125.09568 216.648909 
L 125.4528 215.723626 
L 125.80992 213.940774 
L 126.16704 215.807504 
L 126.52416 213.100243 
L 126.88128 213.032966 
L 127.2384 215.211618 
L 127.95264 209.865685 
L 128.30976 213.679528 
L 128.66688 209.254072 
L 129.024 213.870439 
L 129.38112 210.897126 
L 129.73824 209.461146 
L 130.09536 210.336627 
L 130.45248 212.061375 
L 130.8096 206.791893 
L 131.16672 206.061015 
L 131.52384 206.801941 
L 131.88096 209.310427 
L 132.23808 208.612752 
L 132.5952 209.60138 
L 132.95232 204.660859 
L 133.30944 208.97404 
L 133.66656 205.189904 
L 134.02368 205.70628 
L 134.3808 205.672641 
L 134.73792 207.234438 
L 135.45216 202.240182 
L 135.80928 206.13703 
L 136.1664 201.986363 
L 136.52352 201.647354 
L 136.88064 204.513198 
L 137.23776 203.678783 
L 137.952 197.801183 
L 138.30912 203.889352 
L 138.66624 196.859736 
L 139.02336 196.451266 
L 139.38048 201.771424 
L 139.7376 197.773223 
L 140.09472 200.369957 
L 140.45184 195.884213 
L 140.80896 196.087356 
L 141.16608 194.606816 
L 141.5232 200.167251 
L 141.88032 195.054604 
L 142.23744 199.171196 
L 142.59456 192.394961 
L 142.95168 194.525122 
L 143.3088 194.981647 
L 143.66592 193.883365 
L 144.02304 196.975068 
L 144.38016 190.702978 
L 144.73728 195.120134 
L 145.45152 191.683743 
L 145.80864 194.168202 
L 146.16576 190.912237 
L 146.52288 193.59547 
L 146.88 194.03321 
L 147.59424 187.422985 
L 147.95136 192.14551 
L 148.30848 190.709968 
L 148.6656 190.833601 
L 149.37984 185.867741 
L 149.73696 186.930637 
L 150.09408 187.300225 
L 150.4512 183.398572 
L 150.80832 184.418655 
L 151.16544 181.627516 
L 151.52256 182.357519 
L 151.87968 188.554032 
L 152.2368 181.170116 
L 152.59392 179.801414 
L 152.95104 180.263182 
L 153.30816 182.157871 
L 153.66528 182.555857 
L 154.0224 178.955641 
L 154.73664 178.18894 
L 155.09376 177.464179 
L 155.45088 181.136041 
L 155.808 183.155674 
L 156.16512 177.926384 
L 156.52224 178.634107 
L 156.87936 182.478531 
L 157.23648 179.502161 
L 157.5936 178.117294 
L 157.95072 174.388203 
L 158.30784 175.102916 
L 158.66496 176.076691 
L 159.02208 179.387702 
L 159.3792 175.569489 
L 159.73632 175.916798 
L 160.09344 171.776179 
L 160.45056 170.533294 
L 160.80768 175.382948 
L 161.1648 169.671356 
L 161.52192 176.390798 
L 161.87904 170.559943 
L 162.23616 170.48917 
L 162.59328 169.755235 
L 162.9504 169.570003 
L 163.30752 168.100822 
L 163.66464 170.893272 
L 164.02176 168.1847 
L 164.37888 168.816846 
L 164.736 169.822949 
L 165.09312 172.964892 
L 165.45024 167.763124 
L 165.80736 169.97061 
L 166.16448 164.404495 
L 166.5216 164.653072 
L 166.87872 163.586245 
L 167.23584 164.468278 
L 167.59296 166.215743 
L 167.95008 164.53774 
L 168.3072 165.032272 
L 168.66432 163.202676 
L 169.02144 160.323727 
L 169.37856 164.234554 
L 169.73568 166.579653 
L 170.0928 167.419747 
L 170.44992 164.789375 
L 170.80704 163.938359 
L 171.16416 164.52376 
L 171.52128 157.252556 
L 171.8784 165.145421 
L 172.23552 163.676676 
L 172.59264 156.56886 
L 172.94976 157.222412 
L 173.30688 159.022738 
L 173.664 161.720825 
L 174.02112 163.331552 
L 174.37824 154.215024 
L 174.73536 159.809972 
L 175.09248 160.190045 
L 175.4496 159.968991 
L 175.80672 160.81258 
L 176.16384 159.480574 
L 176.52096 152.85768 
L 176.87808 157.678064 
L 177.2352 156.434305 
L 177.59232 152.760696 
L 177.94944 151.829734 
L 178.30656 154.658006 
L 179.0208 148.238692 
L 179.37792 154.634853 
L 179.73504 154.29366 
L 180.09216 155.757162 
L 180.44928 149.615258 
L 180.8064 152.724436 
L 181.16352 148.627503 
L 181.52064 148.89137 
L 181.87776 151.617853 
L 182.23488 152.163499 
L 182.592 152.372758 
L 182.94912 146.13387 
L 183.30624 151.30462 
L 183.66336 147.331757 
L 184.3776 143.884445 
L 184.73472 145.099807 
L 185.09184 144.883558 
L 185.44896 149.168344 
L 185.80608 146.782179 
L 186.1632 146.873484 
L 186.87744 143.150946 
L 187.23456 145.438815 
L 187.59168 148.640172 
L 187.9488 144.539307 
L 188.30592 143.601355 
L 188.66304 140.618432 
L 189.02016 144.355387 
L 189.37728 137.282957 
L 189.7344 138.997657 
L 190.09152 146.977022 
L 190.44864 144.542365 
L 190.80576 139.575632 
L 191.16288 145.066605 
L 191.52 142.02951 
L 191.87712 146.741114 
L 192.23424 143.452821 
L 192.59136 135.398752 
L 192.94848 139.411807 
L 193.3056 139.386905 
L 193.66272 143.912404 
L 194.01984 141.283342 
L 194.37696 140.164964 
L 194.73408 136.620231 
L 195.0912 136.879292 
L 195.44832 142.657724 
L 195.80544 142.607484 
L 196.16256 140.49742 
L 196.51968 143.693097 
L 196.8768 142.231342 
L 197.23392 138.140089 
L 197.59104 137.43586 
L 197.94816 140.713669 
L 198.30528 133.022636 
L 198.6624 138.931254 
L 199.01952 136.562564 
L 199.37664 137.753025 
L 199.73376 142.676072 
L 200.09088 137.205631 
L 200.448 135.13838 
L 200.80512 132.386122 
L 201.16224 134.090774 
L 201.51936 139.375547 
L 201.87648 136.076332 
L 202.2336 141.677833 
L 202.59072 132.929146 
L 202.94784 132.670958 
L 203.30496 134.030487 
L 203.66208 138.934312 
L 204.0192 138.7185 
L 204.37632 133.903795 
L 204.73344 136.324472 
L 205.09056 134.843495 
L 205.44768 136.721584 
L 205.8048 137.150149 
L 206.16192 131.653497 
L 206.51904 139.280747 
L 206.87616 132.576595 
L 207.23328 132.016096 
L 207.5904 134.660885 
L 207.94752 134.834321 
L 208.30464 133.791958 
L 208.66176 127.510693 
L 209.01888 136.886719 
L 209.73312 134.873202 
L 210.09024 131.003003 
L 210.80448 134.649526 
L 211.1616 137.318343 
L 211.51872 137.358972 
L 211.87584 134.453373 
L 212.23296 127.73131 
L 212.59008 128.397968 
L 212.9472 125.356068 
L 213.30432 127.137172 
L 213.66144 125.000459 
L 214.01856 130.999508 
L 214.37568 125.775023 
L 214.7328 134.037476 
L 215.08992 132.97327 
L 215.44704 126.339017 
L 215.80416 129.356016 
L 216.16128 135.45904 
L 216.5184 126.911312 
L 216.87552 134.356389 
L 217.23264 125.016186 
L 217.58976 132.947932 
L 217.94688 132.048424 
L 218.304 129.216219 
L 218.66112 127.716457 
L 219.01824 127.674955 
L 219.37536 123.527782 
L 219.73248 130.617686 
L 220.0896 128.078182 
L 220.44672 128.857552 
L 220.80384 128.611596 
L 221.16096 121.938899 
L 221.51808 127.740484 
L 221.8752 128.046291 
L 222.23232 123.909166 
L 222.58944 131.242405 
L 222.94656 123.90305 
L 223.30368 121.820071 
L 223.6608 131.367349 
L 224.01792 130.078156 
L 224.37504 122.823117 
L 224.73216 131.7199 
L 225.08928 124.788142 
L 225.4464 127.080379 
L 225.80352 119.822718 
L 226.16064 120.068674 
L 226.51776 121.172635 
L 226.87488 127.486228 
L 227.232 122.305867 
L 227.58912 129.305777 
L 227.94624 117.900069 
L 228.30336 124.024062 
L 228.66048 123.642241 
L 229.0176 122.38625 
L 229.37472 122.616479 
L 229.73184 125.676728 
L 230.08896 126.938398 
L 230.44608 125.582365 
L 230.8032 128.792896 
L 231.16032 119.911402 
L 231.51744 123.702092 
L 231.87456 125.5496 
L 232.23168 117.876915 
L 232.5888 119.281878 
L 232.94592 125.788566 
L 233.30304 125.069483 
L 233.66016 123.388422 
L 234.3744 121.653625 
L 234.73152 117.013231 
L 235.08864 117.643192 
L 235.44576 121.804344 
L 235.80288 123.940184 
L 236.16 114.237818 
L 236.51712 123.806066 
L 236.87424 116.292401 
L 237.23136 118.024139 
L 237.58848 120.615194 
L 237.9456 116.529183 
L 238.30272 122.397172 
L 238.65984 123.259546 
L 239.01696 117.527422 
L 239.37408 117.067402 
L 239.7312 125.331166 
L 240.08832 121.333839 
L 240.44544 119.926256 
L 240.80256 112.728882 
L 241.15968 112.831546 
L 241.5168 123.886012 
L 241.87392 119.150818 
L 242.23104 118.873408 
L 242.58816 118.311597 
L 242.94528 119.869463 
L 243.3024 123.603797 
L 243.65952 118.915347 
L 244.01664 119.001409 
L 244.37376 116.182748 
L 244.73088 121.654936 
L 245.088 121.107979 
L 245.44512 110.964816 
L 246.15936 121.275299 
L 246.51648 112.294637 
L 246.8736 120.206724 
L 247.23072 119.358329 
L 247.58784 113.033815 
L 247.94496 109.903667 
L 248.30208 121.38801 
L 248.6592 116.111975 
L 249.01632 113.855997 
L 249.37344 114.772106 
L 249.73056 119.773352 
L 250.08768 109.198128 
L 250.4448 112.020722 
L 250.80192 120.494619 
L 251.15904 115.296346 
L 251.51616 117.749787 
L 252.2304 108.157949 
L 252.58752 113.968709 
L 252.94464 113.295935 
L 253.30176 115.679914 
L 253.65888 119.43216 
L 254.016 111.949512 
L 254.37312 117.509948 
L 254.73024 106.523195 
L 255.44448 116.799166 
L 255.8016 109.766054 
L 256.15872 107.677396 
L 256.51584 118.287133 
L 256.87296 107.038697 
L 257.23008 107.093306 
L 257.5872 107.922915 
L 257.94432 117.845461 
L 258.30144 108.650734 
L 258.65856 113.702657 
L 259.01568 110.883122 
L 259.3728 113.048668 
L 259.72992 109.594366 
L 260.08704 109.949538 
L 260.44416 116.93241 
L 260.80128 105.22876 
L 261.1584 107.978834 
L 261.51552 115.785199 
L 261.87264 112.077077 
L 262.22976 111.669044 
L 262.58688 110.73415 
L 262.944 104.352843 
L 263.30112 115.919754 
L 263.65824 115.487693 
L 264.01536 102.894583 
L 264.37248 106.32879 
L 264.7296 105.279436 
L 265.08672 112.44055 
L 265.44384 111.245284 
L 265.80096 114.942047 
L 266.15808 103.818118 
L 266.5152 106.821138 
L 266.87232 107.718025 
L 267.22944 107.893645 
L 267.58656 103.213058 
L 267.94368 111.878303 
L 268.3008 108.287698 
L 268.65792 108.930766 
L 269.01504 112.393369 
L 269.37216 112.397737 
L 269.72928 105.372489 
L 270.0864 112.21469 
L 270.44352 103.794091 
L 270.80064 104.205182 
L 271.15776 107.049619 
L 271.51488 105.181578 
L 271.872 108.417011 
L 272.22912 110.486447 
L 272.58624 103.918598 
L 272.94336 108.553313 
L 273.30048 105.881001 
L 273.6576 108.163191 
L 274.01472 111.181501 
L 274.37184 99.406205 
L 274.72896 102.630716 
L 275.08608 108.006793 
L 275.4432 99.005162 
L 275.80032 111.459785 
L 276.15744 106.417473 
L 276.51456 108.215615 
L 276.87168 104.179407 
L 277.2288 104.866598 
L 277.58592 109.382049 
L 277.94304 100.938295 
L 278.30016 110.266266 
L 278.65728 107.962233 
L 279.0144 100.896356 
L 279.37152 101.65563 
L 280.08576 96.899902 
L 280.44288 107.580849 
L 280.8 99.931755 
L 281.15712 102.012113 
L 281.51424 96.705497 
L 281.87136 99.165928 
L 282.5856 106.851719 
L 282.94272 104.19295 
L 283.29984 108.762572 
L 283.65696 94.809934 
L 284.3712 103.054913 
L 284.72832 97.253764 
L 285.08544 94.607665 
L 285.44256 95.094334 
L 285.79968 106.976662 
L 286.1568 100.484828 
L 286.51392 103.454646 
L 286.87104 104.247558 
L 287.22816 103.553377 
L 287.58528 107.01467 
L 287.9424 101.340212 
L 288.29952 93.159016 
L 288.65664 95.04322 
L 289.01376 94.299674 
L 289.37088 95.191755 
L 289.728 94.518981 
L 290.08512 105.188131 
L 290.44224 95.980736 
L 290.79936 92.51158 
L 291.15648 96.933541 
L 291.5136 96.232807 
L 291.87072 97.618548 
L 292.22784 93.184354 
L 292.58496 98.864491 
L 293.2992 93.880282 
L 293.65632 98.612419 
L 294.01344 92.916992 
L 294.37056 103.743851 
L 294.72768 95.300971 
L 295.0848 94.669263 
L 295.44192 96.75661 
L 295.79904 92.886411 
L 296.15616 103.677011 
L 296.51328 98.235403 
L 296.8704 101.601022 
L 297.22752 103.599685 
L 297.58464 102.047936 
L 297.94176 91.939285 
L 298.29888 94.688485 
L 298.656 102.549458 
L 299.01312 92.26344 
L 299.37024 98.003427 
L 299.72736 90.833576 
L 300.4416 98.749595 
L 300.79872 96.767532 
L 301.15584 98.126186 
L 301.51296 101.042706 
L 301.87008 94.98468 
L 302.2272 94.321517 
L 302.58432 98.786291 
L 302.94144 99.233206 
L 303.29856 102.044004 
L 303.65568 90.378798 
L 304.0128 95.525084 
L 304.36992 93.560933 
L 304.72704 93.466133 
L 305.08416 98.03925 
L 305.44128 99.119184 
L 305.7984 93.885961 
L 306.15552 92.473135 
L 306.86976 99.006909 
L 307.22688 95.49494 
L 307.584 95.520715 
L 307.94112 86.268759 
L 308.65536 94.451266 
L 309.01248 90.898232 
L 309.3696 93.899504 
L 309.72672 89.782039 
L 310.08384 93.480549 
L 310.44096 99.605416 
L 310.79808 89.973823 
L 311.1552 88.594636 
L 311.86944 96.532935 
L 312.22656 86.240363 
L 312.58368 84.738416 
L 312.9408 95.77803 
L 313.29792 93.375264 
L 313.65504 90.019694 
L 314.01216 94.339865 
L 314.36928 95.261654 
L 314.7264 89.13635 
L 315.08352 87.184868 
L 315.44064 91.261268 
L 315.79776 87.700807 
L 316.15488 90.515537 
L 316.512 82.953817 
L 316.86912 93.037567 
L 317.58336 83.554071 
L 317.94048 90.771104 
L 318.2976 89.79995 
L 318.65472 87.73532 
L 319.01184 95.103071 
L 319.36896 92.42508 
L 319.72608 88.770256 
L 320.0832 86.806105 
L 320.44032 89.538267 
L 320.79744 89.135039 
L 321.51168 83.42607 
L 321.8688 82.146925 
L 322.22592 91.44781 
L 322.58304 90.804743 
L 322.94016 85.369251 
L 323.29728 86.049015 
L 323.6544 84.10496 
L 324.01152 90.73266 
L 324.36864 94.483594 
L 324.72576 86.935417 
L 325.08288 90.93056 
L 325.44 82.842853 
L 325.79712 94.242881 
L 326.15424 81.044274 
L 326.51136 84.182285 
L 326.86848 84.625268 
L 327.2256 88.58852 
L 327.58272 86.651891 
L 327.93984 85.441771 
L 328.29696 83.471504 
L 328.65408 88.675456 
L 329.0112 91.70993 
L 329.72544 86.230315 
L 330.08256 89.588944 
L 330.43968 81.455802 
L 330.7968 81.094077 
L 331.15392 92.546092 
L 331.86816 87.449172 
L 332.22528 86.922311 
L 332.5824 91.168216 
L 332.93952 84.000986 
L 333.29664 84.835401 
L 333.65376 89.163873 
L 334.01088 78.121638 
L 334.368 91.041087 
L 334.72512 91.789876 
L 335.08224 90.221089 
L 335.79648 79.516115 
L 336.1536 88.58153 
L 336.51072 78.945131 
L 336.86784 82.339146 
L 337.22496 88.032389 
L 337.58208 80.692597 
L 337.9392 80.130786 
L 338.29632 88.239463 
L 338.65344 79.267975 
L 339.01056 77.62361 
L 339.36768 81.448375 
L 339.7248 86.530005 
L 340.08192 79.117256 
L 340.43904 78.97178 
L 340.79616 88.629148 
L 341.15328 77.704431 
L 341.5104 77.016366 
L 341.86752 75.520536 
L 342.22464 85.46143 
L 342.58176 84.636626 
L 342.93888 81.201546 
L 343.296 88.48804 
L 343.65312 75.59655 
L 344.01024 79.729306 
L 344.36736 81.438328 
L 344.72448 85.376241 
L 345.0816 75.839011 
L 345.43872 88.26087 
L 345.79584 84.346547 
L 346.15296 74.404342 
L 346.51008 83.097546 
L 346.8672 87.753231 
L 347.22432 77.859955 
L 347.58144 82.971729 
L 347.93856 84.552311 
L 348.29568 75.159684 
L 348.6528 85.291052 
L 349.00992 75.717562 
L 349.36704 77.110292 
L 349.72416 75.947354 
L 350.08128 80.418681 
L 350.4384 74.35716 
L 350.79552 86.201482 
L 351.50976 71.959201 
L 351.86688 78.612676 
L 352.224 73.055299 
L 352.58112 86.237742 
L 352.93824 75.147015 
L 353.29536 70.699715 
L 354.0096 75.41394 
L 354.36672 74.608359 
L 354.72384 76.108995 
L 355.08096 78.560252 
L 355.43808 73.690939 
L 355.7952 78.849457 
L 356.15232 71.063188 
L 356.50944 77.382023 
L 356.86656 76.89317 
L 357.22368 79.606547 
L 357.93792 82.201533 
L 358.29504 79.90449 
L 358.65216 81.974363 
L 359.00928 78.547146 
L 359.3664 71.22046 
L 359.72352 82.119839 
L 360.08064 77.271496 
L 360.43776 76.925061 
L 360.79488 69.265483 
L 361.152 77.332657 
L 361.50912 74.992801 
L 361.86624 76.448877 
L 362.22336 74.729807 
L 362.58048 69.191652 
L 362.9376 75.648974 
L 363.29472 73.623662 
L 363.65184 77.978783 
L 364.00896 69.007295 
L 364.36608 77.287223 
L 364.7232 73.177184 
L 365.43744 81.957325 
L 365.79456 75.213419 
L 366.15168 75.268027 
L 366.5088 81.215526 
L 367.22304 74.372014 
L 367.58016 75.182401 
L 367.93728 70.524532 
L 368.2944 80.186705 
L 368.65152 69.085931 
L 369.00864 81.753745 
L 369.36576 69.708465 
L 369.72288 80.695655 
L 370.08 65.750893 
L 370.43712 73.067094 
L 370.79424 70.28076 
L 371.15136 71.563837 
L 371.50848 79.297682 
L 371.8656 76.495184 
L 372.22272 69.305238 
L 372.57984 76.450624 
L 372.93696 76.088899 
L 373.29408 80.004095 
L 373.6512 68.636832 
L 374.00832 70.655155 
L 374.36544 76.569889 
L 374.72256 74.568167 
L 375.07968 67.108237 
L 375.4368 79.56155 
L 375.79392 79.330884 
L 376.15104 75.587813 
L 376.86528 71.965317 
L 377.2224 78.229544 
L 377.57952 71.481269 
L 377.93664 67.889791 
L 378.29376 76.199426 
L 378.65088 64.857501 
L 379.008 70.154069 
L 379.36512 64.057162 
L 379.72224 77.544101 
L 380.07936 72.164528 
L 380.43648 77.344453 
L 381.15072 71.612766 
L 381.50784 77.569439 
L 381.86496 76.14307 
L 382.22208 75.272832 
L 382.5792 62.8584 
L 382.93632 62.736515 
L 383.29344 63.090376 
L 383.65056 67.84523 
L 384.00768 62.913009 
L 384.3648 71.929057 
L 384.72192 76.859094 
L 385.07904 62.170336 
L 385.43616 65.636434 
L 385.79328 72.168023 
L 386.1504 62.596717 
L 386.50752 74.093293 
L 386.86464 66.937859 
L 387.22176 63.272987 
L 387.57888 70.561665 
L 387.936 70.164117 
L 388.29312 62.383964 
L 388.65024 60.099152 
L 389.00736 63.333711 
L 389.36448 72.722843 
L 389.7216 71.813287 
L 390.07872 66.930869 
L 390.43584 64.4617 
L 390.79296 75.243999 
L 391.15008 75.710136 
L 391.5072 60.441219 
L 391.86432 70.174602 
L 392.22144 68.764397 
L 392.57856 74.260176 
L 392.93568 73.764333 
L 393.2928 61.984668 
L 393.64992 64.592323 
L 394.00704 59.900815 
L 394.36416 65.954472 
L 394.72128 61.892489 
L 395.0784 72.24928 
L 395.43552 72.385146 
L 395.79264 71.621503 
L 396.14976 58.700743 
L 396.50688 71.210412 
L 396.864 70.178533 
L 397.22112 72.134821 
L 397.57824 67.628108 
L 397.93536 67.797175 
L 398.29248 59.172122 
L 398.6496 64.305302 
L 399.00672 62.716856 
L 399.36384 66.935674 
L 399.72096 63.839602 
L 400.07808 59.099165 
L 400.4352 66.557785 
L 400.79232 71.155367 
L 401.14944 63.006498 
L 401.50656 66.280812 
L 401.86368 60.289626 
L 402.2208 67.614128 
L 402.57792 58.274362 
L 402.93504 61.956271 
L 403.29216 69.913792 
L 403.64928 68.084633 
L 404.0064 60.868037 
L 404.36352 65.029189 
L 405.07776 61.682793 
L 405.43488 66.086406 
L 405.792 57.825263 
L 406.14912 70.635496 
L 406.50624 56.105757 
L 406.86336 70.531085 
L 407.22048 66.313577 
L 407.5776 63.935713 
L 407.93472 57.446063 
L 408.29184 54.825738 
L 408.64896 63.695873 
L 409.00608 54.692931 
L 409.3632 60.979001 
L 409.72032 61.847492 
L 410.07744 68.209577 
L 410.43456 60.415007 
L 410.79168 63.185176 
L 411.1488 67.655193 
L 411.50592 53.568 
L 411.86304 66.668312 
L 412.22016 54.659729 
L 412.57728 69.744288 
L 412.9344 69.600122 
L 413.29152 67.533308 
L 413.64864 57.991272 
L 414.00576 59.648306 
L 414.36288 64.441167 
L 414.72 66.392213 
L 414.72 66.392213 
" style="fill:none;stroke:#000080;stroke-linecap:square;stroke-width:0.5;"/>
   </g>
   <g id="patch_3">
    <path d="M 57.6 307.584 
L 57.6 41.472 
" style="fill:none;stroke:#000000;stroke-linecap:square;stroke-linejoin:miter;stroke-width:0.8;"/>
   </g>
   <g id="patch_4">
    <path d="M 414.72 307.584 
L 414.72 41.472 
" style="fill:none;stroke:#000000;stroke-linecap:square;stroke-linejoin:miter;stroke-width:0.8;"/>
   </g>
   <g id="patch_5">
    <path d="M 57.6 307.584 
L 414.72 307.584 
" style="fill:none;stroke:#000000;stroke-linecap:square;stroke-linejoin:miter;stroke-width:0.8;"/>
   </g>
   <g id="patch_6">
    <path d="M 57.6 41.472 
L 414.72 41.472 
" style="fill:none;stroke:#000000;stroke-linecap:square;stroke-linejoin:miter;stroke-width:0.8;"/>
   </g>
   <g id="text_15">
    <!-- Test -->
    <defs>
     <path d="M -0.296875 72.90625 
L 61.375 72.90625 
L 61.375 64.59375 
L 35.5 64.59375 
L 35.5 0 
L 25.59375 0 
L 25.59375 64.59375 
L -0.296875 64.59375 
z
" id="DejaVuSans-54"/>
    </defs>
    <g transform="translate(223.341563 35.472)scale(0.12 -0.12)">
     <use xlink:href="#DejaVuSans-54"/>
     <use x="60.818359" xlink:href="#DejaVuSans-65"/>
     <use x="122.341797" xlink:href="#DejaVuSans-73"/>
     <use x="174.441406" xlink:href="#DejaVuSans-74"/>
    </g>
   </g>
   <g id="legend_1">
    <g id="patch_7">
     <path d="M 64.6 64.150125 
L 306.276563 64.150125 
Q 308.276563 64.150125 308.276563 62.150125 
L 308.276563 48.472 
Q 308.276563 46.472 306.276563 46.472 
L 64.6 46.472 
Q 62.6 46.472 62.6 48.472 
L 62.6 62.150125 
Q 62.6 64.150125 64.6 64.150125 
z
" style="fill:#ffffff;opacity:0.8;stroke:#cccccc;stroke-linejoin:miter;"/>
    </g>
    <g id="line2d_26">
     <path d="M 66.6 54.570438 
L 86.6 54.570438 
" style="fill:none;stroke:#000080;stroke-linecap:square;stroke-width:0.5;"/>
    </g>
    <g id="line2d_27"/>
    <g id="text_16">
     <!-- Successful download requests per second -->
     <g transform="translate(94.6 58.070438)scale(0.1 -0.1)">
      <use xlink:href="#DejaVuSans-53"/>
      <use x="63.476562" xlink:href="#DejaVuSans-75"/>
      <use x="126.855469" xlink:href="#DejaVuSans-63"/>
      <use x="181.835938" xlink:href="#DejaVuSans-63"/>
      <use x="236.816406" xlink:href="#DejaVuSans-65"/>
      <use x="298.339844" xlink:href="#DejaVuSans-73"/>
      <use x="350.439453" xlink:href="#DejaVuSans-73"/>
      <use x="402.539062" xlink:href="#DejaVuSans-66"/>
      <use x="437.744141" xlink:href="#DejaVuSans-75"/>
      <use x="501.123047" xlink:href="#DejaVuSans-6c"/>
      <use x="528.90625" xlink:href="#DejaVuSans-20"/>
      <use x="560.693359" xlink:href="#DejaVuSans-64"/>
      <use x="624.169922" xlink:href="#DejaVuSans-6f"/>
      <use x="685.351562" xlink:href="#DejaVuSans-77"/>
      <use x="767.138672" xlink:href="#DejaVuSans-6e"/>
      <use x="830.517578" xlink:href="#DejaVuSans-6c"/>
      <use x="858.300781" xlink:href="#DejaVuSans-6f"/>
      <use x="919.482422" xlink:href="#DejaVuSans-61"/>
      <use x="980.761719" xlink:href="#DejaVuSans-64"/>
      <use x="1044.238281" xlink:href="#DejaVuSans-20"/>
      <use x="1076.025391" xlink:href="#DejaVuSans-72"/>
      <use x="1117.107422" xlink:href="#DejaVuSans-65"/>
      <use x="1178.630859" xlink:href="#DejaVuSans-71"/>
      <use x="1242.107422" xlink:href="#DejaVuSans-75"/>
      <use x="1305.486328" xlink:href="#DejaVuSans-65"/>
      <use x="1367.009766" xlink:href="#DejaVuSans-73"/>
      <use x="1419.109375" xlink:href="#DejaVuSans-74"/>
      <use x="1458.318359" xlink:href="#DejaVuSans-73"/>
      <use x="1510.417969" xlink:href="#DejaVuSans-20"/>
      <use x="1542.205078" xlink:href="#DejaVuSans-70"/>
      <use x="1605.681641" xlink:href="#DejaVuSans-65"/>
      <use x="1667.205078" xlink:href="#DejaVuSans-72"/>
      <use x="1708.318359" xlink:href="#DejaVuSans-20"/>
      <use x="1740.105469" xlink:href="#DejaVuSans-73"/>
      <use x="1792.205078" xlink:href="#DejaVuSans-65"/>
      <use x="1853.728516" xlink:href="#DejaVuSans-63"/>
      <use x="1908.708984" xlink:href="#DejaVuSans-6f"/>
      <use x="1969.890625" xlink:href="#DejaVuSans-6e"/>
      <use x="2033.269531" xlink:href="#DejaVuSans-64"/>
     </g>
    </g>
   </g>
  </g>
 </g>
 <defs>
  <clipPath id="p1d613123b5">
   <rect height="266.112" width="357.12" x="57.6" y="41.472"/>
  </clipPath>
 </defs>
</svg>
