<?xml version="1.0" encoding="utf-8" standalone="no"?>
<!DOCTYPE svg PUBLIC "-//W3C//DTD SVG 1.1//EN"
  "http://www.w3.org/Graphics/SVG/1.1/DTD/svg11.dtd">
<!-- Created with matplotlib (http://matplotlib.org/) -->
<svg height="345pt" version="1.1" viewBox="0 0 460 345" width="460pt" xmlns="http://www.w3.org/2000/svg" xmlns:xlink="http://www.w3.org/1999/xlink">
 <defs>
  <style type="text/css">
*{stroke-linecap:butt;stroke-linejoin:round;}
  </style>
 </defs>
 <g id="figure_1">
  <g id="patch_1">
   <path d="M 0 345.6 
L 460.8 345.6 
L 460.8 0 
L 0 0 
z
" style="fill:#ffffff;"/>
  </g>
  <g id="axes_1">
   <g id="patch_2">
    <path d="M 57.6 307.584 
L 414.72 307.584 
L 414.72 41.472 
L 57.6 41.472 
z
" style="fill:#ffffff;"/>
   </g>
   <g id="matplotlib.axis_1">
    <g id="xtick_1">
     <g id="line2d_1">
      <path clip-path="url(#p7fae352845)" d="M 57.6 307.584 
L 57.6 41.472 
" style="fill:none;stroke:#b0b0b0;stroke-linecap:square;stroke-width:0.8;"/>
     </g>
     <g id="line2d_2">
      <defs>
       <path d="M 0 0 
L 0 3.5 
" id="m1994695a74" style="stroke:#000000;stroke-width:0.8;"/>
      </defs>
      <g>
       <use style="stroke:#000000;stroke-width:0.8;" x="57.6" xlink:href="#m1994695a74" y="307.584"/>
      </g>
     </g>
     <g id="text_1">
      <!-- 0 -->
      <defs>
       <path d="M 31.78125 66.40625 
Q 24.171875 66.40625 20.328125 58.90625 
Q 16.5 51.421875 16.5 36.375 
Q 16.5 21.390625 20.328125 13.890625 
Q 24.171875 6.390625 31.78125 6.390625 
Q 39.453125 6.390625 43.28125 13.890625 
Q 47.125 21.390625 47.125 36.375 
Q 47.125 51.421875 43.28125 58.90625 
Q 39.453125 66.40625 31.78125 66.40625 
M 31.78125 74.21875 
Q 44.046875 74.21875 50.515625 64.515625 
Q 56.984375 54.828125 56.984375 36.375 
Q 56.984375 17.96875 50.515625 8.265625 
Q 44.046875 -1.421875 31.78125 -1.421875 
Q 19.53125 -1.421875 13.0625 8.265625 
Q 6.59375 17.96875 6.59375 36.375 
Q 6.59375 54.828125 13.0625 64.515625 
Q 19.53125 74.21875 31.78125 74.21875 
" id="DejaVuSans-30"/>
      </defs>
      <g transform="translate(54.41875 322.182437)scale(0.1 -0.1)">
       <use xlink:href="#DejaVuSans-30"/>
      </g>
     </g>
    </g>
    <g id="xtick_2">
     <g id="line2d_3">
      <path clip-path="url(#p7fae352845)" d="M 129.024 307.584 
L 129.024 41.472 
" style="fill:none;stroke:#b0b0b0;stroke-linecap:square;stroke-width:0.8;"/>
     </g>
     <g id="line2d_4">
      <g>
       <use style="stroke:#000000;stroke-width:0.8;" x="129.024" xlink:href="#m1994695a74" y="307.584"/>
      </g>
     </g>
     <g id="text_2">
      <!-- 200 -->
      <defs>
       <path d="M 19.1875 8.296875 
L 53.609375 8.296875 
L 53.609375 0 
L 7.328125 0 
L 7.328125 8.296875 
Q 12.9375 14.109375 22.625 23.890625 
Q 32.328125 33.6875 34.8125 36.53125 
Q 39.546875 41.84375 41.421875 45.53125 
Q 43.3125 49.21875 43.3125 52.78125 
Q 43.3125 58.59375 39.234375 62.25 
Q 35.15625 65.921875 28.609375 65.921875 
Q 23.96875 65.921875 18.8125 64.3125 
Q 13.671875 62.703125 7.8125 59.421875 
L 7.8125 69.390625 
Q 13.765625 71.78125 18.9375 73 
Q 24.125 74.21875 28.421875 74.21875 
Q 39.75 74.21875 46.484375 68.546875 
Q 53.21875 62.890625 53.21875 53.421875 
Q 53.21875 48.921875 51.53125 44.890625 
Q 49.859375 40.875 45.40625 35.40625 
Q 44.1875 33.984375 37.640625 27.21875 
Q 31.109375 20.453125 19.1875 8.296875 
" id="DejaVuSans-32"/>
      </defs>
      <g transform="translate(119.48025 322.182437)scale(0.1 -0.1)">
       <use xlink:href="#DejaVuSans-32"/>
       <use x="63.623047" xlink:href="#DejaVuSans-30"/>
       <use x="127.246094" xlink:href="#DejaVuSans-30"/>
      </g>
     </g>
    </g>
    <g id="xtick_3">
     <g id="line2d_5">
      <path clip-path="url(#p7fae352845)" d="M 200.448 307.584 
L 200.448 41.472 
" style="fill:none;stroke:#b0b0b0;stroke-linecap:square;stroke-width:0.8;"/>
     </g>
     <g id="line2d_6">
      <g>
       <use style="stroke:#000000;stroke-width:0.8;" x="200.448" xlink:href="#m1994695a74" y="307.584"/>
      </g>
     </g>
     <g id="text_3">
      <!-- 400 -->
      <defs>
       <path d="M 37.796875 64.3125 
L 12.890625 25.390625 
L 37.796875 25.390625 
z
M 35.203125 72.90625 
L 47.609375 72.90625 
L 47.609375 25.390625 
L 58.015625 25.390625 
L 58.015625 17.1875 
L 47.609375 17.1875 
L 47.609375 0 
L 37.796875 0 
L 37.796875 17.1875 
L 4.890625 17.1875 
L 4.890625 26.703125 
z
" id="DejaVuSans-34"/>
      </defs>
      <g transform="translate(190.90425 322.182437)scale(0.1 -0.1)">
       <use xlink:href="#DejaVuSans-34"/>
       <use x="63.623047" xlink:href="#DejaVuSans-30"/>
       <use x="127.246094" xlink:href="#DejaVuSans-30"/>
      </g>
     </g>
    </g>
    <g id="xtick_4">
     <g id="line2d_7">
      <path clip-path="url(#p7fae352845)" d="M 271.872 307.584 
L 271.872 41.472 
" style="fill:none;stroke:#b0b0b0;stroke-linecap:square;stroke-width:0.8;"/>
     </g>
     <g id="line2d_8">
      <g>
       <use style="stroke:#000000;stroke-width:0.8;" x="271.872" xlink:href="#m1994695a74" y="307.584"/>
      </g>
     </g>
     <g id="text_4">
      <!-- 600 -->
      <defs>
       <path d="M 33.015625 40.375 
Q 26.375 40.375 22.484375 35.828125 
Q 18.609375 31.296875 18.609375 23.390625 
Q 18.609375 15.53125 22.484375 10.953125 
Q 26.375 6.390625 33.015625 6.390625 
Q 39.65625 6.390625 43.53125 10.953125 
Q 47.40625 15.53125 47.40625 23.390625 
Q 47.40625 31.296875 43.53125 35.828125 
Q 39.65625 40.375 33.015625 40.375 
M 52.59375 71.296875 
L 52.59375 62.3125 
Q 48.875 64.0625 45.09375 64.984375 
Q 41.3125 65.921875 37.59375 65.921875 
Q 27.828125 65.921875 22.671875 59.328125 
Q 17.53125 52.734375 16.796875 39.40625 
Q 19.671875 43.65625 24.015625 45.921875 
Q 28.375 48.1875 33.59375 48.1875 
Q 44.578125 48.1875 50.953125 41.515625 
Q 57.328125 34.859375 57.328125 23.390625 
Q 57.328125 12.15625 50.6875 5.359375 
Q 44.046875 -1.421875 33.015625 -1.421875 
Q 20.359375 -1.421875 13.671875 8.265625 
Q 6.984375 17.96875 6.984375 36.375 
Q 6.984375 53.65625 15.1875 63.9375 
Q 23.390625 74.21875 37.203125 74.21875 
Q 40.921875 74.21875 44.703125 73.484375 
Q 48.484375 72.75 52.59375 71.296875 
" id="DejaVuSans-36"/>
      </defs>
      <g transform="translate(262.32825 322.182437)scale(0.1 -0.1)">
       <use xlink:href="#DejaVuSans-36"/>
       <use x="63.623047" xlink:href="#DejaVuSans-30"/>
       <use x="127.246094" xlink:href="#DejaVuSans-30"/>
      </g>
     </g>
    </g>
    <g id="xtick_5">
     <g id="line2d_9">
      <path clip-path="url(#p7fae352845)" d="M 343.296 307.584 
L 343.296 41.472 
" style="fill:none;stroke:#b0b0b0;stroke-linecap:square;stroke-width:0.8;"/>
     </g>
     <g id="line2d_10">
      <g>
       <use style="stroke:#000000;stroke-width:0.8;" x="343.296" xlink:href="#m1994695a74" y="307.584"/>
      </g>
     </g>
     <g id="text_5">
      <!-- 800 -->
      <defs>
       <path d="M 31.78125 34.625 
Q 24.75 34.625 20.71875 30.859375 
Q 16.703125 27.09375 16.703125 20.515625 
Q 16.703125 13.921875 20.71875 10.15625 
Q 24.75 6.390625 31.78125 6.390625 
Q 38.8125 6.390625 42.859375 10.171875 
Q 46.921875 13.96875 46.921875 20.515625 
Q 46.921875 27.09375 42.890625 30.859375 
Q 38.875 34.625 31.78125 34.625 
M 21.921875 38.8125 
Q 15.578125 40.375 12.03125 44.71875 
Q 8.5 49.078125 8.5 55.328125 
Q 8.5 64.0625 14.71875 69.140625 
Q 20.953125 74.21875 31.78125 74.21875 
Q 42.671875 74.21875 48.875 69.140625 
Q 55.078125 64.0625 55.078125 55.328125 
Q 55.078125 49.078125 51.53125 44.71875 
Q 48 40.375 41.703125 38.8125 
Q 48.828125 37.15625 52.796875 32.3125 
Q 56.78125 27.484375 56.78125 20.515625 
Q 56.78125 9.90625 50.3125 4.234375 
Q 43.84375 -1.421875 31.78125 -1.421875 
Q 19.734375 -1.421875 13.25 4.234375 
Q 6.78125 9.90625 6.78125 20.515625 
Q 6.78125 27.484375 10.78125 32.3125 
Q 14.796875 37.15625 21.921875 38.8125 
M 18.3125 54.390625 
Q 18.3125 48.734375 21.84375 45.5625 
Q 25.390625 42.390625 31.78125 42.390625 
Q 38.140625 42.390625 41.71875 45.5625 
Q 45.3125 48.734375 45.3125 54.390625 
Q 45.3125 60.0625 41.71875 63.234375 
Q 38.140625 66.40625 31.78125 66.40625 
Q 25.390625 66.40625 21.84375 63.234375 
Q 18.3125 60.0625 18.3125 54.390625 
" id="DejaVuSans-38"/>
      </defs>
      <g transform="translate(333.75225 322.182437)scale(0.1 -0.1)">
       <use xlink:href="#DejaVuSans-38"/>
       <use x="63.623047" xlink:href="#DejaVuSans-30"/>
       <use x="127.246094" xlink:href="#DejaVuSans-30"/>
      </g>
     </g>
    </g>
    <g id="xtick_6">
     <g id="line2d_11">
      <path clip-path="url(#p7fae352845)" d="M 414.72 307.584 
L 414.72 41.472 
" style="fill:none;stroke:#b0b0b0;stroke-linecap:square;stroke-width:0.8;"/>
     </g>
     <g id="line2d_12">
      <g>
       <use style="stroke:#000000;stroke-width:0.8;" x="414.72" xlink:href="#m1994695a74" y="307.584"/>
      </g>
     </g>
     <g id="text_6">
      <!-- 1000 -->
      <defs>
       <path d="M 12.40625 8.296875 
L 28.515625 8.296875 
L 28.515625 63.921875 
L 10.984375 60.40625 
L 10.984375 69.390625 
L 28.421875 72.90625 
L 38.28125 72.90625 
L 38.28125 8.296875 
L 54.390625 8.296875 
L 54.390625 0 
L 12.40625 0 
z
" id="DejaVuSans-31"/>
      </defs>
      <g transform="translate(401.995 322.182437)scale(0.1 -0.1)">
       <use xlink:href="#DejaVuSans-31"/>
       <use x="63.623047" xlink:href="#DejaVuSans-30"/>
       <use x="127.246094" xlink:href="#DejaVuSans-30"/>
       <use x="190.869141" xlink:href="#DejaVuSans-30"/>
      </g>
     </g>
    </g>
    <g id="text_7">
     <!-- Number of clients -->
     <defs>
      <path d="M 9.8125 72.90625 
L 23.09375 72.90625 
L 55.421875 11.921875 
L 55.421875 72.90625 
L 64.984375 72.90625 
L 64.984375 0 
L 51.703125 0 
L 19.390625 60.984375 
L 19.390625 0 
L 9.8125 0 
z
" id="DejaVuSans-4e"/>
      <path d="M 8.5 21.578125 
L 8.5 54.6875 
L 17.484375 54.6875 
L 17.484375 21.921875 
Q 17.484375 14.15625 20.5 10.265625 
Q 23.53125 6.390625 29.59375 6.390625 
Q 36.859375 6.390625 41.078125 11.03125 
Q 45.3125 15.671875 45.3125 23.6875 
L 45.3125 54.6875 
L 54.296875 54.6875 
L 54.296875 0 
L 45.3125 0 
L 45.3125 8.40625 
Q 42.046875 3.421875 37.71875 1 
Q 33.40625 -1.421875 27.6875 -1.421875 
Q 18.265625 -1.421875 13.375 4.4375 
Q 8.5 10.296875 8.5 21.578125 
M 31.109375 56 
z
" id="DejaVuSans-75"/>
      <path d="M 52 44.1875 
Q 55.375 50.25 60.0625 53.125 
Q 64.75 56 71.09375 56 
Q 79.640625 56 84.28125 50.015625 
Q 88.921875 44.046875 88.921875 33.015625 
L 88.921875 0 
L 79.890625 0 
L 79.890625 32.71875 
Q 79.890625 40.578125 77.09375 44.375 
Q 74.3125 48.1875 68.609375 48.1875 
Q 61.625 48.1875 57.5625 43.546875 
Q 53.515625 38.921875 53.515625 30.90625 
L 53.515625 0 
L 44.484375 0 
L 44.484375 32.71875 
Q 44.484375 40.625 41.703125 44.40625 
Q 38.921875 48.1875 33.109375 48.1875 
Q 26.21875 48.1875 22.15625 43.53125 
Q 18.109375 38.875 18.109375 30.90625 
L 18.109375 0 
L 9.078125 0 
L 9.078125 54.6875 
L 18.109375 54.6875 
L 18.109375 46.1875 
Q 21.1875 51.21875 25.484375 53.609375 
Q 29.78125 56 35.6875 56 
Q 41.65625 56 45.828125 52.96875 
Q 50 49.953125 52 44.1875 
" id="DejaVuSans-6d"/>
      <path d="M 48.6875 27.296875 
Q 48.6875 37.203125 44.609375 42.84375 
Q 40.53125 48.484375 33.40625 48.484375 
Q 26.265625 48.484375 22.1875 42.84375 
Q 18.109375 37.203125 18.109375 27.296875 
Q 18.109375 17.390625 22.1875 11.75 
Q 26.265625 6.109375 33.40625 6.109375 
Q 40.53125 6.109375 44.609375 11.75 
Q 48.6875 17.390625 48.6875 27.296875 
M 18.109375 46.390625 
Q 20.953125 51.265625 25.265625 53.625 
Q 29.59375 56 35.59375 56 
Q 45.5625 56 51.78125 48.09375 
Q 58.015625 40.1875 58.015625 27.296875 
Q 58.015625 14.40625 51.78125 6.484375 
Q 45.5625 -1.421875 35.59375 -1.421875 
Q 29.59375 -1.421875 25.265625 0.953125 
Q 20.953125 3.328125 18.109375 8.203125 
L 18.109375 0 
L 9.078125 0 
L 9.078125 75.984375 
L 18.109375 75.984375 
z
" id="DejaVuSans-62"/>
      <path d="M 56.203125 29.59375 
L 56.203125 25.203125 
L 14.890625 25.203125 
Q 15.484375 15.921875 20.484375 11.0625 
Q 25.484375 6.203125 34.421875 6.203125 
Q 39.59375 6.203125 44.453125 7.46875 
Q 49.3125 8.734375 54.109375 11.28125 
L 54.109375 2.78125 
Q 49.265625 0.734375 44.1875 -0.34375 
Q 39.109375 -1.421875 33.890625 -1.421875 
Q 20.796875 -1.421875 13.15625 6.1875 
Q 5.515625 13.8125 5.515625 26.8125 
Q 5.515625 40.234375 12.765625 48.109375 
Q 20.015625 56 32.328125 56 
Q 43.359375 56 49.78125 48.890625 
Q 56.203125 41.796875 56.203125 29.59375 
M 47.21875 32.234375 
Q 47.125 39.59375 43.09375 43.984375 
Q 39.0625 48.390625 32.421875 48.390625 
Q 24.90625 48.390625 20.390625 44.140625 
Q 15.875 39.890625 15.1875 32.171875 
z
" id="DejaVuSans-65"/>
      <path d="M 41.109375 46.296875 
Q 39.59375 47.171875 37.8125 47.578125 
Q 36.03125 48 33.890625 48 
Q 26.265625 48 22.1875 43.046875 
Q 18.109375 38.09375 18.109375 28.8125 
L 18.109375 0 
L 9.078125 0 
L 9.078125 54.6875 
L 18.109375 54.6875 
L 18.109375 46.1875 
Q 20.953125 51.171875 25.484375 53.578125 
Q 30.03125 56 36.53125 56 
Q 37.453125 56 38.578125 55.875 
Q 39.703125 55.765625 41.0625 55.515625 
z
" id="DejaVuSans-72"/>
      <path id="DejaVuSans-20"/>
      <path d="M 30.609375 48.390625 
Q 23.390625 48.390625 19.1875 42.75 
Q 14.984375 37.109375 14.984375 27.296875 
Q 14.984375 17.484375 19.15625 11.84375 
Q 23.34375 6.203125 30.609375 6.203125 
Q 37.796875 6.203125 41.984375 11.859375 
Q 46.1875 17.53125 46.1875 27.296875 
Q 46.1875 37.015625 41.984375 42.703125 
Q 37.796875 48.390625 30.609375 48.390625 
M 30.609375 56 
Q 42.328125 56 49.015625 48.375 
Q 55.71875 40.765625 55.71875 27.296875 
Q 55.71875 13.875 49.015625 6.21875 
Q 42.328125 -1.421875 30.609375 -1.421875 
Q 18.84375 -1.421875 12.171875 6.21875 
Q 5.515625 13.875 5.515625 27.296875 
Q 5.515625 40.765625 12.171875 48.375 
Q 18.84375 56 30.609375 56 
" id="DejaVuSans-6f"/>
      <path d="M 37.109375 75.984375 
L 37.109375 68.5 
L 28.515625 68.5 
Q 23.6875 68.5 21.796875 66.546875 
Q 19.921875 64.59375 19.921875 59.515625 
L 19.921875 54.6875 
L 34.71875 54.6875 
L 34.71875 47.703125 
L 19.921875 47.703125 
L 19.921875 0 
L 10.890625 0 
L 10.890625 47.703125 
L 2.296875 47.703125 
L 2.296875 54.6875 
L 10.890625 54.6875 
L 10.890625 58.5 
Q 10.890625 67.625 15.140625 71.796875 
Q 19.390625 75.984375 28.609375 75.984375 
z
" id="DejaVuSans-66"/>
      <path d="M 48.78125 52.59375 
L 48.78125 44.1875 
Q 44.96875 46.296875 41.140625 47.34375 
Q 37.3125 48.390625 33.40625 48.390625 
Q 24.65625 48.390625 19.8125 42.84375 
Q 14.984375 37.3125 14.984375 27.296875 
Q 14.984375 17.28125 19.8125 11.734375 
Q 24.65625 6.203125 33.40625 6.203125 
Q 37.3125 6.203125 41.140625 7.25 
Q 44.96875 8.296875 48.78125 10.40625 
L 48.78125 2.09375 
Q 45.015625 0.34375 40.984375 -0.53125 
Q 36.96875 -1.421875 32.421875 -1.421875 
Q 20.0625 -1.421875 12.78125 6.34375 
Q 5.515625 14.109375 5.515625 27.296875 
Q 5.515625 40.671875 12.859375 48.328125 
Q 20.21875 56 33.015625 56 
Q 37.15625 56 41.109375 55.140625 
Q 45.0625 54.296875 48.78125 52.59375 
" id="DejaVuSans-63"/>
      <path d="M 9.421875 75.984375 
L 18.40625 75.984375 
L 18.40625 0 
L 9.421875 0 
z
" id="DejaVuSans-6c"/>
      <path d="M 9.421875 54.6875 
L 18.40625 54.6875 
L 18.40625 0 
L 9.421875 0 
z
M 9.421875 75.984375 
L 18.40625 75.984375 
L 18.40625 64.59375 
L 9.421875 64.59375 
z
" id="DejaVuSans-69"/>
      <path d="M 54.890625 33.015625 
L 54.890625 0 
L 45.90625 0 
L 45.90625 32.71875 
Q 45.90625 40.484375 42.875 44.328125 
Q 39.84375 48.1875 33.796875 48.1875 
Q 26.515625 48.1875 22.3125 43.546875 
Q 18.109375 38.921875 18.109375 30.90625 
L 18.109375 0 
L 9.078125 0 
L 9.078125 54.6875 
L 18.109375 54.6875 
L 18.109375 46.1875 
Q 21.34375 51.125 25.703125 53.5625 
Q 30.078125 56 35.796875 56 
Q 45.21875 56 50.046875 50.171875 
Q 54.890625 44.34375 54.890625 33.015625 
" id="DejaVuSans-6e"/>
      <path d="M 18.3125 70.21875 
L 18.3125 54.6875 
L 36.8125 54.6875 
L 36.8125 47.703125 
L 18.3125 47.703125 
L 18.3125 18.015625 
Q 18.3125 11.328125 20.140625 9.421875 
Q 21.96875 7.515625 27.59375 7.515625 
L 36.8125 7.515625 
L 36.8125 0 
L 27.59375 0 
Q 17.1875 0 13.234375 3.875 
Q 9.28125 7.765625 9.28125 18.015625 
L 9.28125 47.703125 
L 2.6875 47.703125 
L 2.6875 54.6875 
L 9.28125 54.6875 
L 9.28125 70.21875 
z
" id="DejaVuSans-74"/>
      <path d="M 44.28125 53.078125 
L 44.28125 44.578125 
Q 40.484375 46.53125 36.375 47.5 
Q 32.28125 48.484375 27.875 48.484375 
Q 21.1875 48.484375 17.84375 46.4375 
Q 14.5 44.390625 14.5 40.28125 
Q 14.5 37.15625 16.890625 35.375 
Q 19.28125 33.59375 26.515625 31.984375 
L 29.59375 31.296875 
Q 39.15625 29.25 43.1875 25.515625 
Q 47.21875 21.78125 47.21875 15.09375 
Q 47.21875 7.46875 41.1875 3.015625 
Q 35.15625 -1.421875 24.609375 -1.421875 
Q 20.21875 -1.421875 15.453125 -0.5625 
Q 10.6875 0.296875 5.421875 2 
L 5.421875 11.28125 
Q 10.40625 8.6875 15.234375 7.390625 
Q 20.0625 6.109375 24.8125 6.109375 
Q 31.15625 6.109375 34.5625 8.28125 
Q 37.984375 10.453125 37.984375 14.40625 
Q 37.984375 18.0625 35.515625 20.015625 
Q 33.0625 21.96875 24.703125 23.78125 
L 21.578125 24.515625 
Q 13.234375 26.265625 9.515625 29.90625 
Q 5.8125 33.546875 5.8125 39.890625 
Q 5.8125 47.609375 11.28125 51.796875 
Q 16.75 56 26.8125 56 
Q 31.78125 56 36.171875 55.265625 
Q 40.578125 54.546875 44.28125 53.078125 
" id="DejaVuSans-73"/>
     </defs>
     <g transform="translate(191.738906 335.860562)scale(0.1 -0.1)">
      <use xlink:href="#DejaVuSans-4e"/>
      <use x="74.804688" xlink:href="#DejaVuSans-75"/>
      <use x="138.183594" xlink:href="#DejaVuSans-6d"/>
      <use x="235.595703" xlink:href="#DejaVuSans-62"/>
      <use x="299.072266" xlink:href="#DejaVuSans-65"/>
      <use x="360.595703" xlink:href="#DejaVuSans-72"/>
      <use x="401.708984" xlink:href="#DejaVuSans-20"/>
      <use x="433.496094" xlink:href="#DejaVuSans-6f"/>
      <use x="494.677734" xlink:href="#DejaVuSans-66"/>
      <use x="529.882812" xlink:href="#DejaVuSans-20"/>
      <use x="561.669922" xlink:href="#DejaVuSans-63"/>
      <use x="616.650391" xlink:href="#DejaVuSans-6c"/>
      <use x="644.433594" xlink:href="#DejaVuSans-69"/>
      <use x="672.216797" xlink:href="#DejaVuSans-65"/>
      <use x="733.740234" xlink:href="#DejaVuSans-6e"/>
      <use x="797.119141" xlink:href="#DejaVuSans-74"/>
      <use x="836.328125" xlink:href="#DejaVuSans-73"/>
     </g>
    </g>
   </g>
   <g id="matplotlib.axis_2">
    <g id="ytick_1">
     <g id="line2d_13">
      <path clip-path="url(#p7fae352845)" d="M 57.6 295.862642 
L 414.72 295.862642 
" style="fill:none;stroke:#b0b0b0;stroke-linecap:square;stroke-width:0.8;"/>
     </g>
     <g id="line2d_14">
      <defs>
       <path d="M 0 0 
L -3.5 0 
" id="m1f8c2542ec" style="stroke:#000000;stroke-width:0.8;"/>
      </defs>
      <g>
       <use style="stroke:#000000;stroke-width:0.8;" x="57.6" xlink:href="#m1f8c2542ec" y="295.862642"/>
      </g>
     </g>
     <g id="text_8">
      <!-- 0 -->
      <g transform="translate(44.2375 299.66186)scale(0.1 -0.1)">
       <use xlink:href="#DejaVuSans-30"/>
      </g>
     </g>
    </g>
    <g id="ytick_2">
     <g id="line2d_15">
      <path clip-path="url(#p7fae352845)" d="M 57.6 255.964695 
L 414.72 255.964695 
" style="fill:none;stroke:#b0b0b0;stroke-linecap:square;stroke-width:0.8;"/>
     </g>
     <g id="line2d_16">
      <g>
       <use style="stroke:#000000;stroke-width:0.8;" x="57.6" xlink:href="#m1f8c2542ec" y="255.964695"/>
      </g>
     </g>
     <g id="text_9">
      <!-- 100 -->
      <g transform="translate(31.5125 259.763914)scale(0.1 -0.1)">
       <use xlink:href="#DejaVuSans-31"/>
       <use x="63.623047" xlink:href="#DejaVuSans-30"/>
       <use x="127.246094" xlink:href="#DejaVuSans-30"/>
      </g>
     </g>
    </g>
    <g id="ytick_3">
     <g id="line2d_17">
      <path clip-path="url(#p7fae352845)" d="M 57.6 216.066749 
L 414.72 216.066749 
" style="fill:none;stroke:#b0b0b0;stroke-linecap:square;stroke-width:0.8;"/>
     </g>
     <g id="line2d_18">
      <g>
       <use style="stroke:#000000;stroke-width:0.8;" x="57.6" xlink:href="#m1f8c2542ec" y="216.066749"/>
      </g>
     </g>
     <g id="text_10">
      <!-- 200 -->
      <g transform="translate(31.5125 219.865968)scale(0.1 -0.1)">
       <use xlink:href="#DejaVuSans-32"/>
       <use x="63.623047" xlink:href="#DejaVuSans-30"/>
       <use x="127.246094" xlink:href="#DejaVuSans-30"/>
      </g>
     </g>
    </g>
    <g id="ytick_4">
     <g id="line2d_19">
      <path clip-path="url(#p7fae352845)" d="M 57.6 176.168803 
L 414.72 176.168803 
" style="fill:none;stroke:#b0b0b0;stroke-linecap:square;stroke-width:0.8;"/>
     </g>
     <g id="line2d_20">
      <g>
       <use style="stroke:#000000;stroke-width:0.8;" x="57.6" xlink:href="#m1f8c2542ec" y="176.168803"/>
      </g>
     </g>
     <g id="text_11">
      <!-- 300 -->
      <defs>
       <path d="M 40.578125 39.3125 
Q 47.65625 37.796875 51.625 33 
Q 55.609375 28.21875 55.609375 21.1875 
Q 55.609375 10.40625 48.1875 4.484375 
Q 40.765625 -1.421875 27.09375 -1.421875 
Q 22.515625 -1.421875 17.65625 -0.515625 
Q 12.796875 0.390625 7.625 2.203125 
L 7.625 11.71875 
Q 11.71875 9.328125 16.59375 8.109375 
Q 21.484375 6.890625 26.8125 6.890625 
Q 36.078125 6.890625 40.9375 10.546875 
Q 45.796875 14.203125 45.796875 21.1875 
Q 45.796875 27.640625 41.28125 31.265625 
Q 36.765625 34.90625 28.71875 34.90625 
L 20.21875 34.90625 
L 20.21875 43.015625 
L 29.109375 43.015625 
Q 36.375 43.015625 40.234375 45.921875 
Q 44.09375 48.828125 44.09375 54.296875 
Q 44.09375 59.90625 40.109375 62.90625 
Q 36.140625 65.921875 28.71875 65.921875 
Q 24.65625 65.921875 20.015625 65.03125 
Q 15.375 64.15625 9.8125 62.3125 
L 9.8125 71.09375 
Q 15.4375 72.65625 20.34375 73.4375 
Q 25.25 74.21875 29.59375 74.21875 
Q 40.828125 74.21875 47.359375 69.109375 
Q 53.90625 64.015625 53.90625 55.328125 
Q 53.90625 49.265625 50.4375 45.09375 
Q 46.96875 40.921875 40.578125 39.3125 
" id="DejaVuSans-33"/>
      </defs>
      <g transform="translate(31.5125 179.968022)scale(0.1 -0.1)">
       <use xlink:href="#DejaVuSans-33"/>
       <use x="63.623047" xlink:href="#DejaVuSans-30"/>
       <use x="127.246094" xlink:href="#DejaVuSans-30"/>
      </g>
     </g>
    </g>
    <g id="ytick_5">
     <g id="line2d_21">
      <path clip-path="url(#p7fae352845)" d="M 57.6 136.270857 
L 414.72 136.270857 
" style="fill:none;stroke:#b0b0b0;stroke-linecap:square;stroke-width:0.8;"/>
     </g>
     <g id="line2d_22">
      <g>
       <use style="stroke:#000000;stroke-width:0.8;" x="57.6" xlink:href="#m1f8c2542ec" y="136.270857"/>
      </g>
     </g>
     <g id="text_12">
      <!-- 400 -->
      <g transform="translate(31.5125 140.070076)scale(0.1 -0.1)">
       <use xlink:href="#DejaVuSans-34"/>
       <use x="63.623047" xlink:href="#DejaVuSans-30"/>
       <use x="127.246094" xlink:href="#DejaVuSans-30"/>
      </g>
     </g>
    </g>
    <g id="ytick_6">
     <g id="line2d_23">
      <path clip-path="url(#p7fae352845)" d="M 57.6 96.372911 
L 414.72 96.372911 
" style="fill:none;stroke:#b0b0b0;stroke-linecap:square;stroke-width:0.8;"/>
     </g>
     <g id="line2d_24">
      <g>
       <use style="stroke:#000000;stroke-width:0.8;" x="57.6" xlink:href="#m1f8c2542ec" y="96.372911"/>
      </g>
     </g>
     <g id="text_13">
      <!-- 500 -->
      <defs>
       <path d="M 10.796875 72.90625 
L 49.515625 72.90625 
L 49.515625 64.59375 
L 19.828125 64.59375 
L 19.828125 46.734375 
Q 21.96875 47.46875 24.109375 47.828125 
Q 26.265625 48.1875 28.421875 48.1875 
Q 40.625 48.1875 47.75 41.5 
Q 54.890625 34.8125 54.890625 23.390625 
Q 54.890625 11.625 47.5625 5.09375 
Q 40.234375 -1.421875 26.90625 -1.421875 
Q 22.3125 -1.421875 17.546875 -0.640625 
Q 12.796875 0.140625 7.71875 1.703125 
L 7.71875 11.625 
Q 12.109375 9.234375 16.796875 8.0625 
Q 21.484375 6.890625 26.703125 6.890625 
Q 35.15625 6.890625 40.078125 11.328125 
Q 45.015625 15.765625 45.015625 23.390625 
Q 45.015625 31 40.078125 35.4375 
Q 35.15625 39.890625 26.703125 39.890625 
Q 22.75 39.890625 18.8125 39.015625 
Q 14.890625 38.140625 10.796875 36.28125 
z
" id="DejaVuSans-35"/>
      </defs>
      <g transform="translate(31.5125 100.172129)scale(0.1 -0.1)">
       <use xlink:href="#DejaVuSans-35"/>
       <use x="63.623047" xlink:href="#DejaVuSans-30"/>
       <use x="127.246094" xlink:href="#DejaVuSans-30"/>
      </g>
     </g>
    </g>
    <g id="ytick_7">
     <g id="line2d_25">
      <path clip-path="url(#p7fae352845)" d="M 57.6 56.474964 
L 414.72 56.474964 
" style="fill:none;stroke:#b0b0b0;stroke-linecap:square;stroke-width:0.8;"/>
     </g>
     <g id="line2d_26">
      <g>
       <use style="stroke:#000000;stroke-width:0.8;" x="57.6" xlink:href="#m1f8c2542ec" y="56.474964"/>
      </g>
     </g>
     <g id="text_14">
      <!-- 600 -->
      <g transform="translate(31.5125 60.274183)scale(0.1 -0.1)">
       <use xlink:href="#DejaVuSans-36"/>
       <use x="63.623047" xlink:href="#DejaVuSans-30"/>
       <use x="127.246094" xlink:href="#DejaVuSans-30"/>
      </g>
     </g>
    </g>
    <g id="text_15">
     <!-- Successful download requests per second -->
     <defs>
      <path d="M 53.515625 70.515625 
L 53.515625 60.890625 
Q 47.90625 63.578125 42.921875 64.890625 
Q 37.9375 66.21875 33.296875 66.21875 
Q 25.25 66.21875 20.875 63.09375 
Q 16.5 59.96875 16.5 54.203125 
Q 16.5 49.359375 19.40625 46.890625 
Q 22.3125 44.4375 30.421875 42.921875 
L 36.375 41.703125 
Q 47.40625 39.59375 52.65625 34.296875 
Q 57.90625 29 57.90625 20.125 
Q 57.90625 9.515625 50.796875 4.046875 
Q 43.703125 -1.421875 29.984375 -1.421875 
Q 24.8125 -1.421875 18.96875 -0.25 
Q 13.140625 0.921875 6.890625 3.21875 
L 6.890625 13.375 
Q 12.890625 10.015625 18.65625 8.296875 
Q 24.421875 6.59375 29.984375 6.59375 
Q 38.421875 6.59375 43.015625 9.90625 
Q 47.609375 13.234375 47.609375 19.390625 
Q 47.609375 24.75 44.3125 27.78125 
Q 41.015625 30.8125 33.5 32.328125 
L 27.484375 33.5 
Q 16.453125 35.6875 11.515625 40.375 
Q 6.59375 45.0625 6.59375 53.421875 
Q 6.59375 63.09375 13.40625 68.65625 
Q 20.21875 74.21875 32.171875 74.21875 
Q 37.3125 74.21875 42.625 73.28125 
Q 47.953125 72.359375 53.515625 70.515625 
" id="DejaVuSans-53"/>
      <path d="M 45.40625 46.390625 
L 45.40625 75.984375 
L 54.390625 75.984375 
L 54.390625 0 
L 45.40625 0 
L 45.40625 8.203125 
Q 42.578125 3.328125 38.25 0.953125 
Q 33.9375 -1.421875 27.875 -1.421875 
Q 17.96875 -1.421875 11.734375 6.484375 
Q 5.515625 14.40625 5.515625 27.296875 
Q 5.515625 40.1875 11.734375 48.09375 
Q 17.96875 56 27.875 56 
Q 33.9375 56 38.25 53.625 
Q 42.578125 51.265625 45.40625 46.390625 
M 14.796875 27.296875 
Q 14.796875 17.390625 18.875 11.75 
Q 22.953125 6.109375 30.078125 6.109375 
Q 37.203125 6.109375 41.296875 11.75 
Q 45.40625 17.390625 45.40625 27.296875 
Q 45.40625 37.203125 41.296875 42.84375 
Q 37.203125 48.484375 30.078125 48.484375 
Q 22.953125 48.484375 18.875 42.84375 
Q 14.796875 37.203125 14.796875 27.296875 
" id="DejaVuSans-64"/>
      <path d="M 4.203125 54.6875 
L 13.1875 54.6875 
L 24.421875 12.015625 
L 35.59375 54.6875 
L 46.1875 54.6875 
L 57.421875 12.015625 
L 68.609375 54.6875 
L 77.59375 54.6875 
L 63.28125 0 
L 52.6875 0 
L 40.921875 44.828125 
L 29.109375 0 
L 18.5 0 
z
" id="DejaVuSans-77"/>
      <path d="M 34.28125 27.484375 
Q 23.390625 27.484375 19.1875 25 
Q 14.984375 22.515625 14.984375 16.5 
Q 14.984375 11.71875 18.140625 8.90625 
Q 21.296875 6.109375 26.703125 6.109375 
Q 34.1875 6.109375 38.703125 11.40625 
Q 43.21875 16.703125 43.21875 25.484375 
L 43.21875 27.484375 
z
M 52.203125 31.203125 
L 52.203125 0 
L 43.21875 0 
L 43.21875 8.296875 
Q 40.140625 3.328125 35.546875 0.953125 
Q 30.953125 -1.421875 24.3125 -1.421875 
Q 15.921875 -1.421875 10.953125 3.296875 
Q 6 8.015625 6 15.921875 
Q 6 25.140625 12.171875 29.828125 
Q 18.359375 34.515625 30.609375 34.515625 
L 43.21875 34.515625 
L 43.21875 35.40625 
Q 43.21875 41.609375 39.140625 45 
Q 35.0625 48.390625 27.6875 48.390625 
Q 23 48.390625 18.546875 47.265625 
Q 14.109375 46.140625 10.015625 43.890625 
L 10.015625 52.203125 
Q 14.9375 54.109375 19.578125 55.046875 
Q 24.21875 56 28.609375 56 
Q 40.484375 56 46.34375 49.84375 
Q 52.203125 43.703125 52.203125 31.203125 
" id="DejaVuSans-61"/>
      <path d="M 14.796875 27.296875 
Q 14.796875 17.390625 18.875 11.75 
Q 22.953125 6.109375 30.078125 6.109375 
Q 37.203125 6.109375 41.296875 11.75 
Q 45.40625 17.390625 45.40625 27.296875 
Q 45.40625 37.203125 41.296875 42.84375 
Q 37.203125 48.484375 30.078125 48.484375 
Q 22.953125 48.484375 18.875 42.84375 
Q 14.796875 37.203125 14.796875 27.296875 
M 45.40625 8.203125 
Q 42.578125 3.328125 38.25 0.953125 
Q 33.9375 -1.421875 27.875 -1.421875 
Q 17.96875 -1.421875 11.734375 6.484375 
Q 5.515625 14.40625 5.515625 27.296875 
Q 5.515625 40.1875 11.734375 48.09375 
Q 17.96875 56 27.875 56 
Q 33.9375 56 38.25 53.625 
Q 42.578125 51.265625 45.40625 46.390625 
L 45.40625 54.6875 
L 54.390625 54.6875 
L 54.390625 -20.796875 
L 45.40625 -20.796875 
z
" id="DejaVuSans-71"/>
      <path d="M 18.109375 8.203125 
L 18.109375 -20.796875 
L 9.078125 -20.796875 
L 9.078125 54.6875 
L 18.109375 54.6875 
L 18.109375 46.390625 
Q 20.953125 51.265625 25.265625 53.625 
Q 29.59375 56 35.59375 56 
Q 45.5625 56 51.78125 48.09375 
Q 58.015625 40.1875 58.015625 27.296875 
Q 58.015625 14.40625 51.78125 6.484375 
Q 45.5625 -1.421875 35.59375 -1.421875 
Q 29.59375 -1.421875 25.265625 0.953125 
Q 20.953125 3.328125 18.109375 8.203125 
M 48.6875 27.296875 
Q 48.6875 37.203125 44.609375 42.84375 
Q 40.53125 48.484375 33.40625 48.484375 
Q 26.265625 48.484375 22.1875 42.84375 
Q 18.109375 37.203125 18.109375 27.296875 
Q 18.109375 17.390625 22.1875 11.75 
Q 26.265625 6.109375 33.40625 6.109375 
Q 40.53125 6.109375 44.609375 11.75 
Q 48.6875 17.390625 48.6875 27.296875 
" id="DejaVuSans-70"/>
     </defs>
     <g transform="translate(25.432812 279.366281)rotate(-90)scale(0.1 -0.1)">
      <use xlink:href="#DejaVuSans-53"/>
      <use x="63.476562" xlink:href="#DejaVuSans-75"/>
      <use x="126.855469" xlink:href="#DejaVuSans-63"/>
      <use x="181.835938" xlink:href="#DejaVuSans-63"/>
      <use x="236.816406" xlink:href="#DejaVuSans-65"/>
      <use x="298.339844" xlink:href="#DejaVuSans-73"/>
      <use x="350.439453" xlink:href="#DejaVuSans-73"/>
      <use x="402.539062" xlink:href="#DejaVuSans-66"/>
      <use x="437.744141" xlink:href="#DejaVuSans-75"/>
      <use x="501.123047" xlink:href="#DejaVuSans-6c"/>
      <use x="528.90625" xlink:href="#DejaVuSans-20"/>
      <use x="560.693359" xlink:href="#DejaVuSans-64"/>
      <use x="624.169922" xlink:href="#DejaVuSans-6f"/>
      <use x="685.351562" xlink:href="#DejaVuSans-77"/>
      <use x="767.138672" xlink:href="#DejaVuSans-6e"/>
      <use x="830.517578" xlink:href="#DejaVuSans-6c"/>
      <use x="858.300781" xlink:href="#DejaVuSans-6f"/>
      <use x="919.482422" xlink:href="#DejaVuSans-61"/>
      <use x="980.761719" xlink:href="#DejaVuSans-64"/>
      <use x="1044.238281" xlink:href="#DejaVuSans-20"/>
      <use x="1076.025391" xlink:href="#DejaVuSans-72"/>
      <use x="1117.107422" xlink:href="#DejaVuSans-65"/>
      <use x="1178.630859" xlink:href="#DejaVuSans-71"/>
      <use x="1242.107422" xlink:href="#DejaVuSans-75"/>
      <use x="1305.486328" xlink:href="#DejaVuSans-65"/>
      <use x="1367.009766" xlink:href="#DejaVuSans-73"/>
      <use x="1419.109375" xlink:href="#DejaVuSans-74"/>
      <use x="1458.318359" xlink:href="#DejaVuSans-73"/>
      <use x="1510.417969" xlink:href="#DejaVuSans-20"/>
      <use x="1542.205078" xlink:href="#DejaVuSans-70"/>
      <use x="1605.681641" xlink:href="#DejaVuSans-65"/>
      <use x="1667.205078" xlink:href="#DejaVuSans-72"/>
      <use x="1708.318359" xlink:href="#DejaVuSans-20"/>
      <use x="1740.105469" xlink:href="#DejaVuSans-73"/>
      <use x="1792.205078" xlink:href="#DejaVuSans-65"/>
      <use x="1853.728516" xlink:href="#DejaVuSans-63"/>
      <use x="1908.708984" xlink:href="#DejaVuSans-6f"/>
      <use x="1969.890625" xlink:href="#DejaVuSans-6e"/>
      <use x="2033.269531" xlink:href="#DejaVuSans-64"/>
     </g>
    </g>
   </g>
   <g id="line2d_27">
    <path clip-path="url(#p7fae352845)" d="M 57.6 295.470046 
L 57.95712 295.488 
L 59.3856 293.973075 
L 61.88544 291.256823 
L 62.24256 290.755306 
L 62.9568 290.287702 
L 63.31392 289.895904 
L 63.67104 289.091561 
L 64.02816 288.769585 
L 64.38528 288.679415 
L 64.7424 287.99756 
L 65.09952 287.918163 
L 65.81376 287.060756 
L 66.17088 286.913133 
L 66.528 285.937629 
L 66.88512 285.905311 
L 67.24224 285.68308 
L 67.59936 284.867167 
L 67.95648 285.02995 
L 68.67072 284.354877 
L 69.02784 283.385756 
L 69.38496 282.94249 
L 69.74208 283.080537 
L 70.0992 282.638467 
L 70.45632 281.506563 
L 71.17056 281.645009 
L 71.52768 280.582526 
L 71.8848 281.01502 
L 72.24192 279.596249 
L 72.59904 279.808107 
L 72.95616 279.890696 
L 73.31328 278.455168 
L 73.6704 278.370983 
L 74.02752 277.634068 
L 74.38464 277.382312 
L 74.74176 277.507991 
L 75.09888 276.643801 
L 75.81312 275.614434 
L 76.17024 275.685053 
L 76.52736 275.203884 
L 76.88448 275.452049 
L 77.2416 275.312008 
L 77.59872 274.021708 
L 77.95584 274.093524 
L 78.67008 272.372327 
L 79.0272 273.145549 
L 79.38432 271.731167 
L 79.74144 272.696298 
L 80.09856 270.749677 
L 80.45568 271.783034 
L 80.8128 271.535667 
L 81.16992 270.121684 
L 81.52704 270.276089 
L 81.88416 269.527603 
L 82.24128 269.855564 
L 82.5984 269.721108 
L 83.31264 267.878222 
L 83.66976 268.182644 
L 84.02688 268.216956 
L 84.74112 265.92442 
L 85.09824 265.883325 
L 85.81248 266.490173 
L 86.1696 264.424656 
L 86.52672 265.436468 
L 86.88384 263.888428 
L 87.24096 263.064934 
L 87.9552 262.588154 
L 88.31232 263.034612 
L 88.66944 261.277905 
L 89.02656 261.157812 
L 89.7408 262.407815 
L 90.45504 260.785564 
L 90.81216 260.827457 
L 91.5264 259.469331 
L 91.88352 257.69467 
L 92.24064 258.649029 
L 92.59776 258.65661 
L 92.95488 258.28516 
L 93.312 257.232652 
L 93.66912 257.906928 
L 94.38336 257.471641 
L 94.74048 255.609205 
L 95.0976 255.494698 
L 95.45472 254.444185 
L 95.81184 255.595241 
L 96.16896 255.185888 
L 96.52608 254.334465 
L 96.8832 254.395908 
L 97.24032 253.246847 
L 97.59744 251.405158 
L 97.95456 251.579512 
L 98.31168 252.957986 
L 98.6688 251.370846 
L 99.02592 250.747241 
L 99.38304 250.397735 
L 99.74016 251.314191 
L 100.09728 251.152604 
L 100.4544 248.296709 
L 101.16864 249.480082 
L 101.52576 249.11741 
L 101.88288 246.75625 
L 102.24 246.45103 
L 102.59712 248.392464 
L 102.95424 245.323514 
L 103.31136 246.269495 
L 103.66848 244.498824 
L 104.0256 244.173256 
L 104.38272 244.518374 
L 104.73984 246.522448 
L 105.45408 244.745792 
L 105.8112 243.43315 
L 106.16832 243.918309 
L 106.88256 241.17732 
L 107.23968 241.274272 
L 107.5968 243.305476 
L 107.95392 241.64253 
L 108.31104 242.241398 
L 108.66816 242.48278 
L 109.02528 241.176522 
L 109.3824 238.071265 
L 109.73952 240.580047 
L 110.09664 240.981421 
L 110.45376 238.004236 
L 110.81088 239.906171 
L 111.168 236.388768 
L 111.88224 238.019397 
L 112.23936 238.720005 
L 112.59648 236.613394 
L 113.31072 237.242584 
L 113.66784 234.375917 
L 114.02496 234.650814 
L 114.38208 234.445339 
L 114.7392 232.410145 
L 115.09632 231.775369 
L 115.45344 234.155281 
L 115.81056 232.171954 
L 116.16768 234.804022 
L 116.88192 230.985788 
L 117.23904 229.596941 
L 117.59616 233.089607 
L 117.95328 232.838649 
L 118.3104 232.199883 
L 118.66752 229.04595 
L 119.02464 229.303691 
L 119.38176 228.433517 
L 119.73888 228.233229 
L 120.096 226.730273 
L 120.45312 229.810395 
L 120.81024 228.273526 
L 121.16736 225.018252 
L 121.52448 224.995112 
L 121.8816 226.323713 
L 122.23872 226.634917 
L 122.95296 223.079212 
L 123.6672 226.866724 
L 124.02432 226.644493 
L 124.38144 222.872541 
L 124.73856 221.595009 
L 125.09568 224.419783 
L 125.4528 225.070918 
L 125.80992 221.087108 
L 126.16704 222.218614 
L 126.52416 221.112643 
L 126.88128 221.001726 
L 127.2384 219.570188 
L 127.59552 221.658845 
L 127.95264 217.467167 
L 128.30976 220.376126 
L 128.66688 218.13865 
L 129.024 221.28939 
L 129.38112 219.703846 
L 129.73824 216.882263 
L 130.09536 217.715731 
L 130.45248 217.821062 
L 130.8096 219.482412 
L 131.16672 219.270953 
L 131.52384 214.453276 
L 131.88096 214.071453 
L 132.23808 214.530678 
L 132.5952 212.810279 
L 132.95232 214.583344 
L 133.30944 211.592993 
L 133.66656 213.11071 
L 134.02368 213.971309 
L 134.3808 215.444341 
L 134.73792 209.695047 
L 135.09504 212.926382 
L 135.45216 211.119404 
L 135.80928 214.009212 
L 136.1664 209.260559 
L 136.52352 211.922151 
L 136.88064 213.018147 
L 137.23776 208.409934 
L 137.59488 211.439784 
L 137.952 207.374184 
L 138.30912 210.988938 
L 138.66624 208.026914 
L 139.38048 210.821765 
L 139.7376 209.782424 
L 140.09472 209.278912 
L 140.45184 205.722808 
L 140.80896 204.215064 
L 141.16608 206.886631 
L 141.5232 204.819518 
L 141.88032 207.985021 
L 142.23744 202.078928 
L 142.59456 201.769719 
L 142.95168 202.635904 
L 143.66592 205.739565 
L 144.02304 201.857495 
L 144.38016 205.493794 
L 144.73728 198.907042 
L 145.0944 201.027617 
L 145.45152 199.259739 
L 145.80864 198.908239 
L 146.16576 202.283605 
L 146.52288 203.310977 
L 146.88 200.013811 
L 147.59424 198.9234 
L 147.95136 200.863238 
L 148.30848 197.706911 
L 148.6656 199.784796 
L 149.02272 193.831225 
L 149.37984 194.373039 
L 149.73696 197.234919 
L 150.09408 197.778329 
L 150.4512 196.288938 
L 150.80832 197.720876 
L 151.16544 196.605728 
L 151.52256 196.8511 
L 151.87968 196.651611 
L 152.2368 197.519391 
L 152.59392 194.674268 
L 152.95104 194.793563 
L 153.30816 190.478201 
L 153.66528 194.164373 
L 154.0224 193.431846 
L 154.37952 188.48091 
L 154.73664 191.093029 
L 155.45088 193.154157 
L 155.808 189.276874 
L 156.16512 190.500145 
L 156.52224 192.756773 
L 156.87936 185.792587 
L 157.23648 186.176006 
L 157.5936 191.92929 
L 157.95072 190.961765 
L 158.30784 185.13826 
L 158.66496 186.278943 
L 159.02208 188.501258 
L 159.3792 186.157254 
L 159.73632 187.22612 
L 160.09344 186.549451 
L 160.45056 183.843971 
L 160.80768 186.853074 
L 161.1648 187.553283 
L 162.23616 180.639368 
L 162.59328 181.198338 
L 162.9504 185.924649 
L 163.30752 178.219557 
L 163.66464 178.452163 
L 164.02176 179.122448 
L 164.37888 182.254437 
L 164.736 178.883459 
L 165.09312 183.95768 
L 165.45024 181.266564 
L 165.80736 181.11535 
L 166.16448 178.903009 
L 166.5216 179.872529 
L 166.87872 179.842606 
L 167.23584 173.667601 
L 167.59296 173.269419 
L 167.95008 173.561871 
L 168.3072 177.737191 
L 168.66432 176.896143 
L 169.02144 174.239338 
L 169.37856 179.636334 
L 169.73568 178.712297 
L 170.0928 175.70878 
L 170.44992 176.059882 
L 170.80704 175.335734 
L 171.16416 171.02117 
L 171.52128 177.443941 
L 171.8784 176.241417 
L 172.23552 168.417829 
L 172.59264 172.733191 
L 172.94976 167.073268 
L 173.30688 169.814656 
L 173.664 167.855268 
L 174.02112 172.068491 
L 174.37824 171.789205 
L 174.73536 169.458766 
L 175.09248 168.485257 
L 175.4496 171.31442 
L 176.16384 168.974006 
L 176.52096 172.107192 
L 176.87808 166.735732 
L 177.2352 168.417031 
L 177.59232 169.190652 
L 177.94944 161.453643 
L 178.30656 166.209079 
L 178.66368 161.195503 
L 179.0208 167.065688 
L 179.37792 167.972568 
L 179.73504 160.911429 
L 180.09216 166.436896 
L 180.44928 165.723122 
L 180.8064 163.99594 
L 181.16352 157.970552 
L 181.52064 161.051072 
L 181.87776 162.489792 
L 182.23488 165.371621 
L 182.592 156.366654 
L 182.94912 164.182662 
L 183.30624 163.512776 
L 183.66336 157.852454 
L 184.02048 163.067115 
L 184.3776 162.890368 
L 184.73472 161.332752 
L 185.09184 162.200931 
L 185.44896 153.047943 
L 185.80608 153.140506 
L 186.1632 160.967287 
L 186.52032 151.982269 
L 186.87744 155.142585 
L 187.23456 160.258699 
L 187.59168 154.50741 
L 187.9488 155.597023 
L 188.30592 159.424433 
L 188.66304 151.886913 
L 189.02016 159.264442 
L 189.37728 158.233878 
L 189.7344 157.984915 
L 190.09152 154.53494 
L 190.44864 152.688862 
L 190.80576 151.522645 
L 191.16288 151.167154 
L 191.52 152.351325 
L 191.87712 152.346537 
L 192.23424 147.679675 
L 192.59136 150.390341 
L 193.3056 145.640889 
L 193.66272 152.364092 
L 194.01984 153.822362 
L 194.37696 145.460152 
L 194.73408 145.035239 
L 195.0912 149.158691 
L 195.44832 146.093332 
L 195.80544 150.958089 
L 196.16256 141.05861 
L 196.51968 149.383716 
L 196.8768 150.727878 
L 197.23392 149.274794 
L 197.59104 145.593411 
L 197.94816 143.8383 
L 198.30528 143.264169 
L 198.6624 145.734251 
L 199.01952 140.366381 
L 199.37664 144.13155 
L 199.73376 145.861126 
L 200.09088 141.361436 
L 200.448 145.800082 
L 200.80512 145.436213 
L 201.16224 145.846763 
L 201.51936 141.714533 
L 201.87648 135.47609 
L 202.2336 142.64615 
L 202.94784 137.172151 
L 203.30496 134.970583 
L 203.66208 133.982311 
L 204.0192 138.349939 
L 204.37632 140.915776 
L 204.73344 133.185948 
L 205.09056 139.884813 
L 205.44768 131.309547 
L 205.8048 141.366623 
L 206.16192 131.339471 
L 206.51904 135.753779 
L 206.87616 132.462997 
L 207.23328 138.063472 
L 207.5904 139.786664 
L 207.94752 134.372912 
L 208.66176 128.478389 
L 209.01888 135.617727 
L 209.376 129.38886 
L 209.73312 136.710532 
L 210.09024 136.237742 
L 210.44736 133.670708 
L 210.80448 135.231116 
L 211.1616 129.707645 
L 211.51872 130.829575 
L 211.87584 134.840515 
L 212.23296 133.213078 
L 212.59008 129.820955 
L 212.9472 134.059713 
L 213.30432 135.981996 
L 213.66144 136.702952 
L 214.01856 134.402436 
L 214.37568 133.880172 
L 214.7328 132.638947 
L 215.08992 127.440244 
L 215.44704 132.550772 
L 215.80416 131.930758 
L 216.16128 128.977512 
L 216.5184 123.961143 
L 216.87552 133.57216 
L 217.23264 127.164949 
L 217.58976 126.720485 
L 217.94688 124.354138 
L 218.304 132.227998 
L 218.66112 124.077246 
L 219.01824 129.556032 
L 219.37536 132.365247 
L 219.73248 129.922695 
L 220.0896 125.714259 
L 220.44672 132.239967 
L 220.80384 126.954686 
L 221.16096 126.340258 
L 221.51808 123.456035 
L 221.8752 132.95055 
L 222.23232 125.116987 
L 222.58944 125.014848 
L 222.94656 122.475344 
L 223.30368 123.425713 
L 223.6608 126.145556 
L 224.01792 126.31592 
L 224.37504 130.667589 
L 224.73216 131.532976 
L 225.08928 129.899953 
L 225.4464 123.184729 
L 225.80352 127.132232 
L 226.16064 121.329076 
L 226.87488 124.270353 
L 227.232 119.763082 
L 227.94624 124.660953 
L 228.30336 118.689827 
L 228.66048 126.234927 
L 229.0176 121.49944 
L 229.37472 124.627838 
L 230.08896 120.658391 
L 230.8032 125.20197 
L 231.16032 129.589148 
L 231.51744 121.899218 
L 231.87456 121.729651 
L 232.23168 121.422038 
L 232.5888 122.910232 
L 232.94592 125.31927 
L 233.30304 122.059208 
L 233.66016 126.386141 
L 234.01728 121.584822 
L 234.3744 118.440465 
L 235.08864 126.958277 
L 235.44576 116.754377 
L 235.80288 126.849755 
L 236.16 118.795157 
L 236.51712 123.939998 
L 236.87424 123.370654 
L 237.23136 121.682572 
L 237.58848 122.662066 
L 237.9456 126.672209 
L 238.30272 117.571886 
L 238.65984 125.282164 
L 239.01696 124.573178 
L 239.7312 113.554961 
L 240.08832 115.342389 
L 240.44544 114.060867 
L 240.80256 115.865451 
L 241.15968 113.775198 
L 241.5168 120.114582 
L 241.87392 121.044205 
L 242.23104 113.053045 
L 242.58816 123.011971 
L 242.94528 122.002952 
L 243.3024 119.510528 
L 243.65952 114.614252 
L 244.01664 115.507966 
L 244.37376 118.62599 
L 244.73088 111.687737 
L 245.088 120.944061 
L 245.44512 113.634358 
L 245.80224 120.095032 
L 246.15936 120.714648 
L 246.51648 113.738492 
L 246.8736 118.162775 
L 247.23072 112.240324 
L 247.58784 117.023689 
L 247.94496 113.358264 
L 248.30208 113.208647 
L 248.6592 109.457043 
L 249.01632 115.665961 
L 249.37344 113.597253 
L 249.73056 116.484268 
L 250.08768 113.641141 
L 250.4448 118.682645 
L 251.15904 120.706269 
L 251.51616 118.59487 
L 251.87328 108.381793 
L 252.2304 109.165788 
L 252.58752 120.103411 
L 253.30176 107.688766 
L 253.65888 114.772247 
L 254.016 107.164507 
L 254.37312 119.428737 
L 254.73024 118.971506 
L 255.08736 117.308959 
L 255.44448 109.362884 
L 255.8016 106.524145 
L 256.15872 114.086402 
L 256.51584 111.765538 
L 256.87296 106.424001 
L 257.23008 116.878859 
L 257.5872 115.714238 
L 257.94432 112.389542 
L 258.30144 110.6468 
L 258.65856 114.106351 
L 259.01568 115.168035 
L 259.3728 111.566447 
L 259.72992 109.097164 
L 260.08704 110.733777 
L 260.44416 109.198504 
L 260.80128 117.702752 
L 261.1584 111.300727 
L 261.51552 108.098518 
L 261.87264 109.648553 
L 262.22976 114.253973 
L 262.58688 114.371672 
L 262.944 116.187029 
L 263.30112 106.441157 
L 263.65824 107.431025 
L 264.01536 107.653656 
L 264.37248 112.969658 
L 264.7296 113.197476 
L 265.44384 108.279655 
L 265.80096 102.367577 
L 266.15808 109.857618 
L 266.5152 114.455059 
L 266.87232 102.139361 
L 267.22944 109.769045 
L 267.94368 112.678403 
L 268.3008 109.478987 
L 268.65792 114.248786 
L 269.01504 110.909727 
L 269.37216 112.234738 
L 269.72928 103.7269 
L 270.0864 104.639366 
L 270.44352 109.903501 
L 271.51488 100.449284 
L 271.872 100.43133 
L 272.22912 105.589735 
L 272.58624 99.819295 
L 272.94336 100.929256 
L 273.30048 100.417764 
L 274.01472 103.926789 
L 274.37184 100.9903 
L 274.72896 105.929267 
L 275.08608 99.662895 
L 275.4432 108.491513 
L 275.80032 100.628825 
L 276.15744 111.989366 
L 276.51456 108.9655 
L 276.87168 103.720117 
L 277.2288 109.117512 
L 277.58592 105.628037 
L 278.30016 104.332551 
L 279.0144 99.500112 
L 279.37152 108.261701 
L 279.72864 109.956565 
L 280.08576 104.806937 
L 280.44288 103.404525 
L 280.8 99.877945 
L 281.15712 106.338221 
L 281.51424 106.85051 
L 281.87136 96.854878 
L 282.22848 98.538571 
L 282.5856 101.317463 
L 282.94272 108.573703 
L 283.65696 99.626189 
L 284.01408 98.031069 
L 284.3712 99.189706 
L 284.72832 95.130489 
L 285.08544 106.469086 
L 285.44256 106.876045 
L 285.79968 96.512553 
L 286.1568 97.083493 
L 286.51392 99.307006 
L 286.87104 98.426059 
L 287.22816 100.089005 
L 287.58528 93.860537 
L 287.9424 103.874921 
L 288.29952 101.253626 
L 288.65664 107.076732 
L 289.01376 95.490368 
L 289.37088 103.12085 
L 289.728 94.286647 
L 290.08512 94.494116 
L 290.44224 100.462051 
L 290.79936 97.970424 
L 291.15648 106.611921 
L 291.5136 101.899175 
L 291.87072 102.926547 
L 292.22784 94.338514 
L 292.58496 101.631061 
L 292.94208 99.732318 
L 293.2992 92.470093 
L 293.65632 102.995571 
L 294.01344 99.248356 
L 294.37056 91.972566 
L 294.72768 98.00354 
L 295.44192 96.670948 
L 295.79904 94.330535 
L 296.15616 93.165914 
L 296.51328 96.961405 
L 296.8704 104.344919 
L 297.22752 103.487512 
L 297.58464 98.076553 
L 297.94176 102.938517 
L 298.29888 92.096649 
L 298.656 95.647566 
L 299.01312 91.071271 
L 299.37024 102.749799 
L 299.72736 97.117007 
L 300.08448 89.350074 
L 300.4416 93.780741 
L 300.79872 102.535946 
L 301.15584 88.914787 
L 301.51296 97.228722 
L 301.87008 91.528901 
L 302.2272 88.655451 
L 302.58432 95.066652 
L 302.94144 96.526518 
L 303.29856 96.387274 
L 303.65568 99.015352 
L 304.0128 94.200866 
L 304.36992 98.172707 
L 304.72704 93.920783 
L 305.08416 93.708127 
L 305.44128 93.685385 
L 306.15552 99.57911 
L 306.51264 89.169336 
L 306.86976 87.841533 
L 307.22688 99.832063 
L 307.584 98.36302 
L 307.94112 98.124829 
L 308.29824 93.115243 
L 308.65536 93.241321 
L 309.01248 88.384943 
L 309.3696 86.68529 
L 309.72672 98.875709 
L 310.08384 98.726889 
L 310.44096 88.161115 
L 310.79808 99.756256 
L 311.86944 85.621212 
L 312.22656 96.504973 
L 312.58368 96.932679 
L 312.9408 97.849135 
L 313.29792 94.206851 
L 313.65504 88.234926 
L 314.01216 93.136389 
L 314.36928 86.741945 
L 314.7264 90.060258 
L 315.08352 90.279696 
L 315.44064 87.364752 
L 315.79776 95.507125 
L 316.512 91.445115 
L 316.86912 95.331175 
L 317.58336 86.014606 
L 317.94048 96.021809 
L 318.65472 82.553858 
L 319.36896 96.436747 
L 319.72608 94.943766 
L 320.0832 82.325642 
L 320.44032 91.414793 
L 320.79744 96.272767 
L 321.15456 91.447908 
L 321.51168 94.841228 
L 321.8688 83.433608 
L 322.22592 86.000642 
L 322.58304 84.632142 
L 322.94016 95.851843 
L 323.6544 81.256776 
L 324.01152 91.816565 
L 324.36864 80.860589 
L 324.72576 89.184897 
L 325.08288 88.946706 
L 325.44 85.77841 
L 325.79712 84.359639 
L 326.15424 94.474965 
L 326.51136 84.603814 
L 327.2256 93.799892 
L 327.58272 86.715613 
L 327.93984 82.837931 
L 328.29696 93.534172 
L 328.65408 91.97895 
L 329.0112 91.408808 
L 329.36832 85.24657 
L 329.72544 91.894765 
L 330.08256 93.225761 
L 330.43968 87.770514 
L 330.7968 87.243463 
L 331.15392 82.541091 
L 331.51104 79.541164 
L 331.86816 84.821258 
L 332.22528 78.645056 
L 332.93952 91.469453 
L 333.29664 82.382696 
L 333.65376 84.06998 
L 334.01088 77.296107 
L 334.368 79.166921 
L 334.72512 81.652563 
L 335.08224 77.948039 
L 335.79648 85.506306 
L 336.1536 76.654548 
L 336.51072 91.622262 
L 336.86784 81.949803 
L 337.22496 78.650243 
L 337.58208 88.658244 
L 337.9392 83.52657 
L 338.29632 81.686477 
L 338.65344 78.364973 
L 339.01056 84.416294 
L 339.36768 77.436148 
L 339.7248 76.4387 
L 340.08192 79.610985 
L 340.43904 79.634126 
L 340.79616 82.286542 
L 341.15328 77.731792 
L 341.5104 89.736286 
L 341.86752 81.866815 
L 342.22464 87.579403 
L 342.58176 76.367282 
L 342.93888 80.253342 
L 343.296 77.903752 
L 343.65312 80.801141 
L 344.01024 80.656312 
L 344.36736 88.797488 
L 344.72448 73.7412 
L 345.43872 88.205402 
L 345.79584 78.064142 
L 346.15296 81.830907 
L 346.51008 75.59007 
L 346.8672 77.409417 
L 347.22432 80.152401 
L 347.58144 87.146511 
L 347.93856 74.160527 
L 348.29568 78.970623 
L 348.6528 77.496793 
L 349.00992 84.646106 
L 349.36704 75.860977 
L 349.72416 83.73763 
L 350.08128 86.089215 
L 350.79552 76.865608 
L 351.15264 79.626147 
L 351.50976 72.885788 
L 351.86688 85.501917 
L 352.224 75.031499 
L 352.58112 84.798516 
L 352.93824 82.770105 
L 353.29536 82.094234 
L 353.65248 73.539715 
L 354.0096 77.05233 
L 354.36672 72.903343 
L 354.72384 76.530066 
L 355.08096 84.060404 
L 355.43808 76.228438 
L 355.7952 78.899206 
L 356.15232 78.410057 
L 356.50944 82.540293 
L 356.86656 80.75486 
L 357.22368 82.673552 
L 357.93792 75.278068 
L 358.29504 77.911333 
L 358.65216 71.772236 
L 359.00928 75.073392 
L 359.3664 81.34894 
L 359.72352 75.918032 
L 360.08064 80.657908 
L 360.43776 78.562068 
L 360.79488 75.557354 
L 361.152 80.846226 
L 361.50912 73.777507 
L 361.86624 78.959851 
L 362.22336 70.543778 
L 362.58048 70.240953 
L 363.29472 81.10277 
L 363.65184 73.67856 
L 364.00896 83.40129 
L 364.36608 70.309577 
L 364.7232 71.879162 
L 365.08032 76.460644 
L 365.43744 73.486252 
L 365.79456 76.470618 
L 366.5088 72.567402 
L 366.86592 67.162427 
L 367.22304 74.839191 
L 367.58016 74.860337 
L 367.93728 72.985133 
L 368.2944 79.599016 
L 368.65152 74.861135 
L 369.00864 73.450743 
L 369.36576 78.9798 
L 369.72288 67.742144 
L 370.08 69.567076 
L 370.43712 74.312538 
L 370.79424 71.463426 
L 371.15136 77.167236 
L 371.8656 65.954317 
L 372.22272 68.706079 
L 372.57984 72.754523 
L 372.93696 70.916824 
L 373.29408 66.827284 
L 373.6512 76.825311 
L 374.00832 74.614965 
L 374.36544 80.102927 
L 374.72256 77.162448 
L 375.07968 70.373414 
L 375.4368 76.939818 
L 375.79392 79.743846 
L 376.50816 68.859287 
L 376.86528 67.484005 
L 377.2224 77.449714 
L 377.93664 70.631953 
L 378.29376 70.070589 
L 378.65088 63.199364 
L 379.008 75.829857 
L 379.36512 78.680964 
L 379.72224 78.090076 
L 380.43648 70.452412 
L 380.7936 73.013062 
L 381.15072 71.192519 
L 381.50784 72.62685 
L 381.86496 70.11687 
L 382.22208 77.547464 
L 382.5792 71.629401 
L 382.93632 69.083513 
L 383.29344 62.320013 
L 383.65056 63.837731 
L 384.00768 76.109542 
L 384.3648 70.638336 
L 385.07904 73.736412 
L 385.43616 72.237446 
L 385.79328 72.34916 
L 386.1504 63.440348 
L 386.50752 64.042807 
L 386.86464 60.75761 
L 387.22176 63.585177 
L 387.57888 67.850268 
L 387.936 61.213244 
L 388.29312 61.784184 
L 388.65024 75.996231 
L 389.00736 61.903479 
L 389.36448 62.14526 
L 389.7216 61.543998 
L 390.07872 63.125952 
L 390.43584 61.615017 
L 390.79296 63.745168 
L 391.15008 68.396072 
L 391.5072 75.404146 
L 391.86432 60.399326 
L 392.22144 74.344855 
L 392.57856 68.105615 
L 392.93568 73.134751 
L 393.2928 63.999717 
L 393.64992 72.089425 
L 394.00704 72.588548 
L 394.36416 66.585104 
L 394.72128 58.562824 
L 395.0784 73.873661 
L 395.79264 58.215313 
L 396.14976 61.127863 
L 396.50688 62.95878 
L 396.864 61.588684 
L 397.22112 59.182439 
L 397.57824 59.729839 
L 397.93536 69.199217 
L 398.29248 64.687558 
L 398.6496 63.934683 
L 399.00672 65.070977 
L 399.36384 58.343385 
L 399.72096 67.783239 
L 400.07808 62.22346 
L 400.4352 72.82993 
L 400.79232 60.662653 
L 401.14944 65.173116 
L 401.50656 63.277963 
L 401.86368 64.067145 
L 402.2208 62.505938 
L 402.57792 70.68781 
L 402.93504 61.329746 
L 403.29216 58.840913 
L 403.64928 57.69624 
L 404.0064 59.849134 
L 404.36352 65.068184 
L 404.72064 56.193684 
L 405.07776 71.728747 
L 405.43488 61.888717 
L 405.792 68.957037 
L 406.14912 58.854478 
L 406.50624 68.898387 
L 406.86336 61.439067 
L 407.22048 60.579266 
L 407.5776 56.727119 
L 407.93472 68.174239 
L 408.29184 67.671924 
L 408.64896 67.879792 
L 409.00608 59.640068 
L 409.3632 62.538255 
L 409.72032 60.745242 
L 410.07744 54.374337 
L 410.43456 62.44649 
L 410.79168 62.806768 
L 411.1488 56.971694 
L 411.50592 63.510967 
L 411.86304 64.466922 
L 412.22016 59.220741 
L 412.57728 67.809572 
L 413.29152 60.914808 
L 413.64864 65.702561 
L 414.00576 65.504668 
L 414.36288 53.568 
L 414.72 60.114455 
L 414.72 60.114455 
" style="fill:none;stroke:#000080;stroke-linecap:square;stroke-width:0.5;"/>
   </g>
   <g id="patch_3">
    <path d="M 57.6 307.584 
L 57.6 41.472 
" style="fill:none;stroke:#000000;stroke-linecap:square;stroke-linejoin:miter;stroke-width:0.8;"/>
   </g>
   <g id="patch_4">
    <path d="M 414.72 307.584 
L 414.72 41.472 
" style="fill:none;stroke:#000000;stroke-linecap:square;stroke-linejoin:miter;stroke-width:0.8;"/>
   </g>
   <g id="patch_5">
    <path d="M 57.6 307.584 
L 414.72 307.584 
" style="fill:none;stroke:#000000;stroke-linecap:square;stroke-linejoin:miter;stroke-width:0.8;"/>
   </g>
   <g id="patch_6">
    <path d="M 57.6 41.472 
L 414.72 41.472 
" style="fill:none;stroke:#000000;stroke-linecap:square;stroke-linejoin:miter;stroke-width:0.8;"/>
   </g>
   <g id="text_16">
    <!-- Test -->
    <defs>
     <path d="M -0.296875 72.90625 
L 61.375 72.90625 
L 61.375 64.59375 
L 35.5 64.59375 
L 35.5 0 
L 25.59375 0 
L 25.59375 64.59375 
L -0.296875 64.59375 
z
" id="DejaVuSans-54"/>
    </defs>
    <g transform="translate(223.341563 35.472)scale(0.12 -0.12)">
     <use xlink:href="#DejaVuSans-54"/>
     <use x="60.818359" xlink:href="#DejaVuSans-65"/>
     <use x="122.341797" xlink:href="#DejaVuSans-73"/>
     <use x="174.441406" xlink:href="#DejaVuSans-74"/>
    </g>
   </g>
   <g id="legend_1">
    <g id="patch_7">
     <path d="M 64.6 64.150125 
L 306.276563 64.150125 
Q 308.276563 64.150125 308.276563 62.150125 
L 308.276563 48.472 
Q 308.276563 46.472 306.276563 46.472 
L 64.6 46.472 
Q 62.6 46.472 62.6 48.472 
L 62.6 62.150125 
Q 62.6 64.150125 64.6 64.150125 
z
" style="fill:#ffffff;opacity:0.8;stroke:#cccccc;stroke-linejoin:miter;"/>
    </g>
    <g id="line2d_28">
     <path d="M 66.6 54.570438 
L 86.6 54.570438 
" style="fill:none;stroke:#000080;stroke-linecap:square;stroke-width:0.5;"/>
    </g>
    <g id="line2d_29"/>
    <g id="text_17">
     <!-- Successful download requests per second -->
     <g transform="translate(94.6 58.070438)scale(0.1 -0.1)">
      <use xlink:href="#DejaVuSans-53"/>
      <use x="63.476562" xlink:href="#DejaVuSans-75"/>
      <use x="126.855469" xlink:href="#DejaVuSans-63"/>
      <use x="181.835938" xlink:href="#DejaVuSans-63"/>
      <use x="236.816406" xlink:href="#DejaVuSans-65"/>
      <use x="298.339844" xlink:href="#DejaVuSans-73"/>
      <use x="350.439453" xlink:href="#DejaVuSans-73"/>
      <use x="402.539062" xlink:href="#DejaVuSans-66"/>
      <use x="437.744141" xlink:href="#DejaVuSans-75"/>
      <use x="501.123047" xlink:href="#DejaVuSans-6c"/>
      <use x="528.90625" xlink:href="#DejaVuSans-20"/>
      <use x="560.693359" xlink:href="#DejaVuSans-64"/>
      <use x="624.169922" xlink:href="#DejaVuSans-6f"/>
      <use x="685.351562" xlink:href="#DejaVuSans-77"/>
      <use x="767.138672" xlink:href="#DejaVuSans-6e"/>
      <use x="830.517578" xlink:href="#DejaVuSans-6c"/>
      <use x="858.300781" xlink:href="#DejaVuSans-6f"/>
      <use x="919.482422" xlink:href="#DejaVuSans-61"/>
      <use x="980.761719" xlink:href="#DejaVuSans-64"/>
      <use x="1044.238281" xlink:href="#DejaVuSans-20"/>
      <use x="1076.025391" xlink:href="#DejaVuSans-72"/>
      <use x="1117.107422" xlink:href="#DejaVuSans-65"/>
      <use x="1178.630859" xlink:href="#DejaVuSans-71"/>
      <use x="1242.107422" xlink:href="#DejaVuSans-75"/>
      <use x="1305.486328" xlink:href="#DejaVuSans-65"/>
      <use x="1367.009766" xlink:href="#DejaVuSans-73"/>
      <use x="1419.109375" xlink:href="#DejaVuSans-74"/>
      <use x="1458.318359" xlink:href="#DejaVuSans-73"/>
      <use x="1510.417969" xlink:href="#DejaVuSans-20"/>
      <use x="1542.205078" xlink:href="#DejaVuSans-70"/>
      <use x="1605.681641" xlink:href="#DejaVuSans-65"/>
      <use x="1667.205078" xlink:href="#DejaVuSans-72"/>
      <use x="1708.318359" xlink:href="#DejaVuSans-20"/>
      <use x="1740.105469" xlink:href="#DejaVuSans-73"/>
      <use x="1792.205078" xlink:href="#DejaVuSans-65"/>
      <use x="1853.728516" xlink:href="#DejaVuSans-63"/>
      <use x="1908.708984" xlink:href="#DejaVuSans-6f"/>
      <use x="1969.890625" xlink:href="#DejaVuSans-6e"/>
      <use x="2033.269531" xlink:href="#DejaVuSans-64"/>
     </g>
    </g>
   </g>
  </g>
 </g>
 <defs>
  <clipPath id="p7fae352845">
   <rect height="266.112" width="357.12" x="57.6" y="41.472"/>
  </clipPath>
 </defs>
</svg>
