<?xml version="1.0" encoding="utf-8" standalone="no"?>
<!DOCTYPE svg PUBLIC "-//W3C//DTD SVG 1.1//EN"
  "http://www.w3.org/Graphics/SVG/1.1/DTD/svg11.dtd">
<!-- Created with matplotlib (http://matplotlib.org/) -->
<svg height="345pt" version="1.1" viewBox="0 0 460 345" width="460pt" xmlns="http://www.w3.org/2000/svg" xmlns:xlink="http://www.w3.org/1999/xlink">
 <defs>
  <style type="text/css">
*{stroke-linecap:butt;stroke-linejoin:round;}
  </style>
 </defs>
 <g id="figure_1">
  <g id="patch_1">
   <path d="M 0 345.6 
L 460.8 345.6 
L 460.8 0 
L 0 0 
z
" style="fill:#ffffff;"/>
  </g>
  <g id="axes_1">
   <g id="patch_2">
    <path d="M 57.6 307.584 
L 414.72 307.584 
L 414.72 41.472 
L 57.6 41.472 
z
" style="fill:#ffffff;"/>
   </g>
   <g id="matplotlib.axis_1">
    <g id="xtick_1">
     <g id="line2d_1">
      <path clip-path="url(#p5653013edf)" d="M 57.6 307.584 
L 57.6 41.472 
" style="fill:none;stroke:#b0b0b0;stroke-linecap:square;stroke-width:0.8;"/>
     </g>
     <g id="line2d_2">
      <defs>
       <path d="M 0 0 
L 0 3.5 
" id="meefec4f2a5" style="stroke:#000000;stroke-width:0.8;"/>
      </defs>
      <g>
       <use style="stroke:#000000;stroke-width:0.8;" x="57.6" xlink:href="#meefec4f2a5" y="307.584"/>
      </g>
     </g>
     <g id="text_1">
      <!-- 0 -->
      <defs>
       <path d="M 31.78125 66.40625 
Q 24.171875 66.40625 20.328125 58.90625 
Q 16.5 51.421875 16.5 36.375 
Q 16.5 21.390625 20.328125 13.890625 
Q 24.171875 6.390625 31.78125 6.390625 
Q 39.453125 6.390625 43.28125 13.890625 
Q 47.125 21.390625 47.125 36.375 
Q 47.125 51.421875 43.28125 58.90625 
Q 39.453125 66.40625 31.78125 66.40625 
M 31.78125 74.21875 
Q 44.046875 74.21875 50.515625 64.515625 
Q 56.984375 54.828125 56.984375 36.375 
Q 56.984375 17.96875 50.515625 8.265625 
Q 44.046875 -1.421875 31.78125 -1.421875 
Q 19.53125 -1.421875 13.0625 8.265625 
Q 6.59375 17.96875 6.59375 36.375 
Q 6.59375 54.828125 13.0625 64.515625 
Q 19.53125 74.21875 31.78125 74.21875 
" id="DejaVuSans-30"/>
      </defs>
      <g transform="translate(54.41875 322.182437)scale(0.1 -0.1)">
       <use xlink:href="#DejaVuSans-30"/>
      </g>
     </g>
    </g>
    <g id="xtick_2">
     <g id="line2d_3">
      <path clip-path="url(#p5653013edf)" d="M 129.024 307.584 
L 129.024 41.472 
" style="fill:none;stroke:#b0b0b0;stroke-linecap:square;stroke-width:0.8;"/>
     </g>
     <g id="line2d_4">
      <g>
       <use style="stroke:#000000;stroke-width:0.8;" x="129.024" xlink:href="#meefec4f2a5" y="307.584"/>
      </g>
     </g>
     <g id="text_2">
      <!-- 200 -->
      <defs>
       <path d="M 19.1875 8.296875 
L 53.609375 8.296875 
L 53.609375 0 
L 7.328125 0 
L 7.328125 8.296875 
Q 12.9375 14.109375 22.625 23.890625 
Q 32.328125 33.6875 34.8125 36.53125 
Q 39.546875 41.84375 41.421875 45.53125 
Q 43.3125 49.21875 43.3125 52.78125 
Q 43.3125 58.59375 39.234375 62.25 
Q 35.15625 65.921875 28.609375 65.921875 
Q 23.96875 65.921875 18.8125 64.3125 
Q 13.671875 62.703125 7.8125 59.421875 
L 7.8125 69.390625 
Q 13.765625 71.78125 18.9375 73 
Q 24.125 74.21875 28.421875 74.21875 
Q 39.75 74.21875 46.484375 68.546875 
Q 53.21875 62.890625 53.21875 53.421875 
Q 53.21875 48.921875 51.53125 44.890625 
Q 49.859375 40.875 45.40625 35.40625 
Q 44.1875 33.984375 37.640625 27.21875 
Q 31.109375 20.453125 19.1875 8.296875 
" id="DejaVuSans-32"/>
      </defs>
      <g transform="translate(119.48025 322.182437)scale(0.1 -0.1)">
       <use xlink:href="#DejaVuSans-32"/>
       <use x="63.623047" xlink:href="#DejaVuSans-30"/>
       <use x="127.246094" xlink:href="#DejaVuSans-30"/>
      </g>
     </g>
    </g>
    <g id="xtick_3">
     <g id="line2d_5">
      <path clip-path="url(#p5653013edf)" d="M 200.448 307.584 
L 200.448 41.472 
" style="fill:none;stroke:#b0b0b0;stroke-linecap:square;stroke-width:0.8;"/>
     </g>
     <g id="line2d_6">
      <g>
       <use style="stroke:#000000;stroke-width:0.8;" x="200.448" xlink:href="#meefec4f2a5" y="307.584"/>
      </g>
     </g>
     <g id="text_3">
      <!-- 400 -->
      <defs>
       <path d="M 37.796875 64.3125 
L 12.890625 25.390625 
L 37.796875 25.390625 
z
M 35.203125 72.90625 
L 47.609375 72.90625 
L 47.609375 25.390625 
L 58.015625 25.390625 
L 58.015625 17.1875 
L 47.609375 17.1875 
L 47.609375 0 
L 37.796875 0 
L 37.796875 17.1875 
L 4.890625 17.1875 
L 4.890625 26.703125 
z
" id="DejaVuSans-34"/>
      </defs>
      <g transform="translate(190.90425 322.182437)scale(0.1 -0.1)">
       <use xlink:href="#DejaVuSans-34"/>
       <use x="63.623047" xlink:href="#DejaVuSans-30"/>
       <use x="127.246094" xlink:href="#DejaVuSans-30"/>
      </g>
     </g>
    </g>
    <g id="xtick_4">
     <g id="line2d_7">
      <path clip-path="url(#p5653013edf)" d="M 271.872 307.584 
L 271.872 41.472 
" style="fill:none;stroke:#b0b0b0;stroke-linecap:square;stroke-width:0.8;"/>
     </g>
     <g id="line2d_8">
      <g>
       <use style="stroke:#000000;stroke-width:0.8;" x="271.872" xlink:href="#meefec4f2a5" y="307.584"/>
      </g>
     </g>
     <g id="text_4">
      <!-- 600 -->
      <defs>
       <path d="M 33.015625 40.375 
Q 26.375 40.375 22.484375 35.828125 
Q 18.609375 31.296875 18.609375 23.390625 
Q 18.609375 15.53125 22.484375 10.953125 
Q 26.375 6.390625 33.015625 6.390625 
Q 39.65625 6.390625 43.53125 10.953125 
Q 47.40625 15.53125 47.40625 23.390625 
Q 47.40625 31.296875 43.53125 35.828125 
Q 39.65625 40.375 33.015625 40.375 
M 52.59375 71.296875 
L 52.59375 62.3125 
Q 48.875 64.0625 45.09375 64.984375 
Q 41.3125 65.921875 37.59375 65.921875 
Q 27.828125 65.921875 22.671875 59.328125 
Q 17.53125 52.734375 16.796875 39.40625 
Q 19.671875 43.65625 24.015625 45.921875 
Q 28.375 48.1875 33.59375 48.1875 
Q 44.578125 48.1875 50.953125 41.515625 
Q 57.328125 34.859375 57.328125 23.390625 
Q 57.328125 12.15625 50.6875 5.359375 
Q 44.046875 -1.421875 33.015625 -1.421875 
Q 20.359375 -1.421875 13.671875 8.265625 
Q 6.984375 17.96875 6.984375 36.375 
Q 6.984375 53.65625 15.1875 63.9375 
Q 23.390625 74.21875 37.203125 74.21875 
Q 40.921875 74.21875 44.703125 73.484375 
Q 48.484375 72.75 52.59375 71.296875 
" id="DejaVuSans-36"/>
      </defs>
      <g transform="translate(262.32825 322.182437)scale(0.1 -0.1)">
       <use xlink:href="#DejaVuSans-36"/>
       <use x="63.623047" xlink:href="#DejaVuSans-30"/>
       <use x="127.246094" xlink:href="#DejaVuSans-30"/>
      </g>
     </g>
    </g>
    <g id="xtick_5">
     <g id="line2d_9">
      <path clip-path="url(#p5653013edf)" d="M 343.296 307.584 
L 343.296 41.472 
" style="fill:none;stroke:#b0b0b0;stroke-linecap:square;stroke-width:0.8;"/>
     </g>
     <g id="line2d_10">
      <g>
       <use style="stroke:#000000;stroke-width:0.8;" x="343.296" xlink:href="#meefec4f2a5" y="307.584"/>
      </g>
     </g>
     <g id="text_5">
      <!-- 800 -->
      <defs>
       <path d="M 31.78125 34.625 
Q 24.75 34.625 20.71875 30.859375 
Q 16.703125 27.09375 16.703125 20.515625 
Q 16.703125 13.921875 20.71875 10.15625 
Q 24.75 6.390625 31.78125 6.390625 
Q 38.8125 6.390625 42.859375 10.171875 
Q 46.921875 13.96875 46.921875 20.515625 
Q 46.921875 27.09375 42.890625 30.859375 
Q 38.875 34.625 31.78125 34.625 
M 21.921875 38.8125 
Q 15.578125 40.375 12.03125 44.71875 
Q 8.5 49.078125 8.5 55.328125 
Q 8.5 64.0625 14.71875 69.140625 
Q 20.953125 74.21875 31.78125 74.21875 
Q 42.671875 74.21875 48.875 69.140625 
Q 55.078125 64.0625 55.078125 55.328125 
Q 55.078125 49.078125 51.53125 44.71875 
Q 48 40.375 41.703125 38.8125 
Q 48.828125 37.15625 52.796875 32.3125 
Q 56.78125 27.484375 56.78125 20.515625 
Q 56.78125 9.90625 50.3125 4.234375 
Q 43.84375 -1.421875 31.78125 -1.421875 
Q 19.734375 -1.421875 13.25 4.234375 
Q 6.78125 9.90625 6.78125 20.515625 
Q 6.78125 27.484375 10.78125 32.3125 
Q 14.796875 37.15625 21.921875 38.8125 
M 18.3125 54.390625 
Q 18.3125 48.734375 21.84375 45.5625 
Q 25.390625 42.390625 31.78125 42.390625 
Q 38.140625 42.390625 41.71875 45.5625 
Q 45.3125 48.734375 45.3125 54.390625 
Q 45.3125 60.0625 41.71875 63.234375 
Q 38.140625 66.40625 31.78125 66.40625 
Q 25.390625 66.40625 21.84375 63.234375 
Q 18.3125 60.0625 18.3125 54.390625 
" id="DejaVuSans-38"/>
      </defs>
      <g transform="translate(333.75225 322.182437)scale(0.1 -0.1)">
       <use xlink:href="#DejaVuSans-38"/>
       <use x="63.623047" xlink:href="#DejaVuSans-30"/>
       <use x="127.246094" xlink:href="#DejaVuSans-30"/>
      </g>
     </g>
    </g>
    <g id="xtick_6">
     <g id="line2d_11">
      <path clip-path="url(#p5653013edf)" d="M 414.72 307.584 
L 414.72 41.472 
" style="fill:none;stroke:#b0b0b0;stroke-linecap:square;stroke-width:0.8;"/>
     </g>
     <g id="line2d_12">
      <g>
       <use style="stroke:#000000;stroke-width:0.8;" x="414.72" xlink:href="#meefec4f2a5" y="307.584"/>
      </g>
     </g>
     <g id="text_6">
      <!-- 1000 -->
      <defs>
       <path d="M 12.40625 8.296875 
L 28.515625 8.296875 
L 28.515625 63.921875 
L 10.984375 60.40625 
L 10.984375 69.390625 
L 28.421875 72.90625 
L 38.28125 72.90625 
L 38.28125 8.296875 
L 54.390625 8.296875 
L 54.390625 0 
L 12.40625 0 
z
" id="DejaVuSans-31"/>
      </defs>
      <g transform="translate(401.995 322.182437)scale(0.1 -0.1)">
       <use xlink:href="#DejaVuSans-31"/>
       <use x="63.623047" xlink:href="#DejaVuSans-30"/>
       <use x="127.246094" xlink:href="#DejaVuSans-30"/>
       <use x="190.869141" xlink:href="#DejaVuSans-30"/>
      </g>
     </g>
    </g>
    <g id="text_7">
     <!-- Number of clients -->
     <defs>
      <path d="M 9.8125 72.90625 
L 23.09375 72.90625 
L 55.421875 11.921875 
L 55.421875 72.90625 
L 64.984375 72.90625 
L 64.984375 0 
L 51.703125 0 
L 19.390625 60.984375 
L 19.390625 0 
L 9.8125 0 
z
" id="DejaVuSans-4e"/>
      <path d="M 8.5 21.578125 
L 8.5 54.6875 
L 17.484375 54.6875 
L 17.484375 21.921875 
Q 17.484375 14.15625 20.5 10.265625 
Q 23.53125 6.390625 29.59375 6.390625 
Q 36.859375 6.390625 41.078125 11.03125 
Q 45.3125 15.671875 45.3125 23.6875 
L 45.3125 54.6875 
L 54.296875 54.6875 
L 54.296875 0 
L 45.3125 0 
L 45.3125 8.40625 
Q 42.046875 3.421875 37.71875 1 
Q 33.40625 -1.421875 27.6875 -1.421875 
Q 18.265625 -1.421875 13.375 4.4375 
Q 8.5 10.296875 8.5 21.578125 
M 31.109375 56 
z
" id="DejaVuSans-75"/>
      <path d="M 52 44.1875 
Q 55.375 50.25 60.0625 53.125 
Q 64.75 56 71.09375 56 
Q 79.640625 56 84.28125 50.015625 
Q 88.921875 44.046875 88.921875 33.015625 
L 88.921875 0 
L 79.890625 0 
L 79.890625 32.71875 
Q 79.890625 40.578125 77.09375 44.375 
Q 74.3125 48.1875 68.609375 48.1875 
Q 61.625 48.1875 57.5625 43.546875 
Q 53.515625 38.921875 53.515625 30.90625 
L 53.515625 0 
L 44.484375 0 
L 44.484375 32.71875 
Q 44.484375 40.625 41.703125 44.40625 
Q 38.921875 48.1875 33.109375 48.1875 
Q 26.21875 48.1875 22.15625 43.53125 
Q 18.109375 38.875 18.109375 30.90625 
L 18.109375 0 
L 9.078125 0 
L 9.078125 54.6875 
L 18.109375 54.6875 
L 18.109375 46.1875 
Q 21.1875 51.21875 25.484375 53.609375 
Q 29.78125 56 35.6875 56 
Q 41.65625 56 45.828125 52.96875 
Q 50 49.953125 52 44.1875 
" id="DejaVuSans-6d"/>
      <path d="M 48.6875 27.296875 
Q 48.6875 37.203125 44.609375 42.84375 
Q 40.53125 48.484375 33.40625 48.484375 
Q 26.265625 48.484375 22.1875 42.84375 
Q 18.109375 37.203125 18.109375 27.296875 
Q 18.109375 17.390625 22.1875 11.75 
Q 26.265625 6.109375 33.40625 6.109375 
Q 40.53125 6.109375 44.609375 11.75 
Q 48.6875 17.390625 48.6875 27.296875 
M 18.109375 46.390625 
Q 20.953125 51.265625 25.265625 53.625 
Q 29.59375 56 35.59375 56 
Q 45.5625 56 51.78125 48.09375 
Q 58.015625 40.1875 58.015625 27.296875 
Q 58.015625 14.40625 51.78125 6.484375 
Q 45.5625 -1.421875 35.59375 -1.421875 
Q 29.59375 -1.421875 25.265625 0.953125 
Q 20.953125 3.328125 18.109375 8.203125 
L 18.109375 0 
L 9.078125 0 
L 9.078125 75.984375 
L 18.109375 75.984375 
z
" id="DejaVuSans-62"/>
      <path d="M 56.203125 29.59375 
L 56.203125 25.203125 
L 14.890625 25.203125 
Q 15.484375 15.921875 20.484375 11.0625 
Q 25.484375 6.203125 34.421875 6.203125 
Q 39.59375 6.203125 44.453125 7.46875 
Q 49.3125 8.734375 54.109375 11.28125 
L 54.109375 2.78125 
Q 49.265625 0.734375 44.1875 -0.34375 
Q 39.109375 -1.421875 33.890625 -1.421875 
Q 20.796875 -1.421875 13.15625 6.1875 
Q 5.515625 13.8125 5.515625 26.8125 
Q 5.515625 40.234375 12.765625 48.109375 
Q 20.015625 56 32.328125 56 
Q 43.359375 56 49.78125 48.890625 
Q 56.203125 41.796875 56.203125 29.59375 
M 47.21875 32.234375 
Q 47.125 39.59375 43.09375 43.984375 
Q 39.0625 48.390625 32.421875 48.390625 
Q 24.90625 48.390625 20.390625 44.140625 
Q 15.875 39.890625 15.1875 32.171875 
z
" id="DejaVuSans-65"/>
      <path d="M 41.109375 46.296875 
Q 39.59375 47.171875 37.8125 47.578125 
Q 36.03125 48 33.890625 48 
Q 26.265625 48 22.1875 43.046875 
Q 18.109375 38.09375 18.109375 28.8125 
L 18.109375 0 
L 9.078125 0 
L 9.078125 54.6875 
L 18.109375 54.6875 
L 18.109375 46.1875 
Q 20.953125 51.171875 25.484375 53.578125 
Q 30.03125 56 36.53125 56 
Q 37.453125 56 38.578125 55.875 
Q 39.703125 55.765625 41.0625 55.515625 
z
" id="DejaVuSans-72"/>
      <path id="DejaVuSans-20"/>
      <path d="M 30.609375 48.390625 
Q 23.390625 48.390625 19.1875 42.75 
Q 14.984375 37.109375 14.984375 27.296875 
Q 14.984375 17.484375 19.15625 11.84375 
Q 23.34375 6.203125 30.609375 6.203125 
Q 37.796875 6.203125 41.984375 11.859375 
Q 46.1875 17.53125 46.1875 27.296875 
Q 46.1875 37.015625 41.984375 42.703125 
Q 37.796875 48.390625 30.609375 48.390625 
M 30.609375 56 
Q 42.328125 56 49.015625 48.375 
Q 55.71875 40.765625 55.71875 27.296875 
Q 55.71875 13.875 49.015625 6.21875 
Q 42.328125 -1.421875 30.609375 -1.421875 
Q 18.84375 -1.421875 12.171875 6.21875 
Q 5.515625 13.875 5.515625 27.296875 
Q 5.515625 40.765625 12.171875 48.375 
Q 18.84375 56 30.609375 56 
" id="DejaVuSans-6f"/>
      <path d="M 37.109375 75.984375 
L 37.109375 68.5 
L 28.515625 68.5 
Q 23.6875 68.5 21.796875 66.546875 
Q 19.921875 64.59375 19.921875 59.515625 
L 19.921875 54.6875 
L 34.71875 54.6875 
L 34.71875 47.703125 
L 19.921875 47.703125 
L 19.921875 0 
L 10.890625 0 
L 10.890625 47.703125 
L 2.296875 47.703125 
L 2.296875 54.6875 
L 10.890625 54.6875 
L 10.890625 58.5 
Q 10.890625 67.625 15.140625 71.796875 
Q 19.390625 75.984375 28.609375 75.984375 
z
" id="DejaVuSans-66"/>
      <path d="M 48.78125 52.59375 
L 48.78125 44.1875 
Q 44.96875 46.296875 41.140625 47.34375 
Q 37.3125 48.390625 33.40625 48.390625 
Q 24.65625 48.390625 19.8125 42.84375 
Q 14.984375 37.3125 14.984375 27.296875 
Q 14.984375 17.28125 19.8125 11.734375 
Q 24.65625 6.203125 33.40625 6.203125 
Q 37.3125 6.203125 41.140625 7.25 
Q 44.96875 8.296875 48.78125 10.40625 
L 48.78125 2.09375 
Q 45.015625 0.34375 40.984375 -0.53125 
Q 36.96875 -1.421875 32.421875 -1.421875 
Q 20.0625 -1.421875 12.78125 6.34375 
Q 5.515625 14.109375 5.515625 27.296875 
Q 5.515625 40.671875 12.859375 48.328125 
Q 20.21875 56 33.015625 56 
Q 37.15625 56 41.109375 55.140625 
Q 45.0625 54.296875 48.78125 52.59375 
" id="DejaVuSans-63"/>
      <path d="M 9.421875 75.984375 
L 18.40625 75.984375 
L 18.40625 0 
L 9.421875 0 
z
" id="DejaVuSans-6c"/>
      <path d="M 9.421875 54.6875 
L 18.40625 54.6875 
L 18.40625 0 
L 9.421875 0 
z
M 9.421875 75.984375 
L 18.40625 75.984375 
L 18.40625 64.59375 
L 9.421875 64.59375 
z
" id="DejaVuSans-69"/>
      <path d="M 54.890625 33.015625 
L 54.890625 0 
L 45.90625 0 
L 45.90625 32.71875 
Q 45.90625 40.484375 42.875 44.328125 
Q 39.84375 48.1875 33.796875 48.1875 
Q 26.515625 48.1875 22.3125 43.546875 
Q 18.109375 38.921875 18.109375 30.90625 
L 18.109375 0 
L 9.078125 0 
L 9.078125 54.6875 
L 18.109375 54.6875 
L 18.109375 46.1875 
Q 21.34375 51.125 25.703125 53.5625 
Q 30.078125 56 35.796875 56 
Q 45.21875 56 50.046875 50.171875 
Q 54.890625 44.34375 54.890625 33.015625 
" id="DejaVuSans-6e"/>
      <path d="M 18.3125 70.21875 
L 18.3125 54.6875 
L 36.8125 54.6875 
L 36.8125 47.703125 
L 18.3125 47.703125 
L 18.3125 18.015625 
Q 18.3125 11.328125 20.140625 9.421875 
Q 21.96875 7.515625 27.59375 7.515625 
L 36.8125 7.515625 
L 36.8125 0 
L 27.59375 0 
Q 17.1875 0 13.234375 3.875 
Q 9.28125 7.765625 9.28125 18.015625 
L 9.28125 47.703125 
L 2.6875 47.703125 
L 2.6875 54.6875 
L 9.28125 54.6875 
L 9.28125 70.21875 
z
" id="DejaVuSans-74"/>
      <path d="M 44.28125 53.078125 
L 44.28125 44.578125 
Q 40.484375 46.53125 36.375 47.5 
Q 32.28125 48.484375 27.875 48.484375 
Q 21.1875 48.484375 17.84375 46.4375 
Q 14.5 44.390625 14.5 40.28125 
Q 14.5 37.15625 16.890625 35.375 
Q 19.28125 33.59375 26.515625 31.984375 
L 29.59375 31.296875 
Q 39.15625 29.25 43.1875 25.515625 
Q 47.21875 21.78125 47.21875 15.09375 
Q 47.21875 7.46875 41.1875 3.015625 
Q 35.15625 -1.421875 24.609375 -1.421875 
Q 20.21875 -1.421875 15.453125 -0.5625 
Q 10.6875 0.296875 5.421875 2 
L 5.421875 11.28125 
Q 10.40625 8.6875 15.234375 7.390625 
Q 20.0625 6.109375 24.8125 6.109375 
Q 31.15625 6.109375 34.5625 8.28125 
Q 37.984375 10.453125 37.984375 14.40625 
Q 37.984375 18.0625 35.515625 20.015625 
Q 33.0625 21.96875 24.703125 23.78125 
L 21.578125 24.515625 
Q 13.234375 26.265625 9.515625 29.90625 
Q 5.8125 33.546875 5.8125 39.890625 
Q 5.8125 47.609375 11.28125 51.796875 
Q 16.75 56 26.8125 56 
Q 31.78125 56 36.171875 55.265625 
Q 40.578125 54.546875 44.28125 53.078125 
" id="DejaVuSans-73"/>
     </defs>
     <g transform="translate(191.738906 335.860562)scale(0.1 -0.1)">
      <use xlink:href="#DejaVuSans-4e"/>
      <use x="74.804688" xlink:href="#DejaVuSans-75"/>
      <use x="138.183594" xlink:href="#DejaVuSans-6d"/>
      <use x="235.595703" xlink:href="#DejaVuSans-62"/>
      <use x="299.072266" xlink:href="#DejaVuSans-65"/>
      <use x="360.595703" xlink:href="#DejaVuSans-72"/>
      <use x="401.708984" xlink:href="#DejaVuSans-20"/>
      <use x="433.496094" xlink:href="#DejaVuSans-6f"/>
      <use x="494.677734" xlink:href="#DejaVuSans-66"/>
      <use x="529.882812" xlink:href="#DejaVuSans-20"/>
      <use x="561.669922" xlink:href="#DejaVuSans-63"/>
      <use x="616.650391" xlink:href="#DejaVuSans-6c"/>
      <use x="644.433594" xlink:href="#DejaVuSans-69"/>
      <use x="672.216797" xlink:href="#DejaVuSans-65"/>
      <use x="733.740234" xlink:href="#DejaVuSans-6e"/>
      <use x="797.119141" xlink:href="#DejaVuSans-74"/>
      <use x="836.328125" xlink:href="#DejaVuSans-73"/>
     </g>
    </g>
   </g>
   <g id="matplotlib.axis_2">
    <g id="ytick_1">
     <g id="line2d_13">
      <path clip-path="url(#p5653013edf)" d="M 57.6 295.850344 
L 414.72 295.850344 
" style="fill:none;stroke:#b0b0b0;stroke-linecap:square;stroke-width:0.8;"/>
     </g>
     <g id="line2d_14">
      <defs>
       <path d="M 0 0 
L -3.5 0 
" id="m43bdb366b3" style="stroke:#000000;stroke-width:0.8;"/>
      </defs>
      <g>
       <use style="stroke:#000000;stroke-width:0.8;" x="57.6" xlink:href="#m43bdb366b3" y="295.850344"/>
      </g>
     </g>
     <g id="text_8">
      <!-- 0 -->
      <g transform="translate(44.2375 299.649563)scale(0.1 -0.1)">
       <use xlink:href="#DejaVuSans-30"/>
      </g>
     </g>
    </g>
    <g id="ytick_2">
     <g id="line2d_15">
      <path clip-path="url(#p5653013edf)" d="M 57.6 258.648709 
L 414.72 258.648709 
" style="fill:none;stroke:#b0b0b0;stroke-linecap:square;stroke-width:0.8;"/>
     </g>
     <g id="line2d_16">
      <g>
       <use style="stroke:#000000;stroke-width:0.8;" x="57.6" xlink:href="#m43bdb366b3" y="258.648709"/>
      </g>
     </g>
     <g id="text_9">
      <!-- 100 -->
      <g transform="translate(31.5125 262.447928)scale(0.1 -0.1)">
       <use xlink:href="#DejaVuSans-31"/>
       <use x="63.623047" xlink:href="#DejaVuSans-30"/>
       <use x="127.246094" xlink:href="#DejaVuSans-30"/>
      </g>
     </g>
    </g>
    <g id="ytick_3">
     <g id="line2d_17">
      <path clip-path="url(#p5653013edf)" d="M 57.6 221.447074 
L 414.72 221.447074 
" style="fill:none;stroke:#b0b0b0;stroke-linecap:square;stroke-width:0.8;"/>
     </g>
     <g id="line2d_18">
      <g>
       <use style="stroke:#000000;stroke-width:0.8;" x="57.6" xlink:href="#m43bdb366b3" y="221.447074"/>
      </g>
     </g>
     <g id="text_10">
      <!-- 200 -->
      <g transform="translate(31.5125 225.246293)scale(0.1 -0.1)">
       <use xlink:href="#DejaVuSans-32"/>
       <use x="63.623047" xlink:href="#DejaVuSans-30"/>
       <use x="127.246094" xlink:href="#DejaVuSans-30"/>
      </g>
     </g>
    </g>
    <g id="ytick_4">
     <g id="line2d_19">
      <path clip-path="url(#p5653013edf)" d="M 57.6 184.245439 
L 414.72 184.245439 
" style="fill:none;stroke:#b0b0b0;stroke-linecap:square;stroke-width:0.8;"/>
     </g>
     <g id="line2d_20">
      <g>
       <use style="stroke:#000000;stroke-width:0.8;" x="57.6" xlink:href="#m43bdb366b3" y="184.245439"/>
      </g>
     </g>
     <g id="text_11">
      <!-- 300 -->
      <defs>
       <path d="M 40.578125 39.3125 
Q 47.65625 37.796875 51.625 33 
Q 55.609375 28.21875 55.609375 21.1875 
Q 55.609375 10.40625 48.1875 4.484375 
Q 40.765625 -1.421875 27.09375 -1.421875 
Q 22.515625 -1.421875 17.65625 -0.515625 
Q 12.796875 0.390625 7.625 2.203125 
L 7.625 11.71875 
Q 11.71875 9.328125 16.59375 8.109375 
Q 21.484375 6.890625 26.8125 6.890625 
Q 36.078125 6.890625 40.9375 10.546875 
Q 45.796875 14.203125 45.796875 21.1875 
Q 45.796875 27.640625 41.28125 31.265625 
Q 36.765625 34.90625 28.71875 34.90625 
L 20.21875 34.90625 
L 20.21875 43.015625 
L 29.109375 43.015625 
Q 36.375 43.015625 40.234375 45.921875 
Q 44.09375 48.828125 44.09375 54.296875 
Q 44.09375 59.90625 40.109375 62.90625 
Q 36.140625 65.921875 28.71875 65.921875 
Q 24.65625 65.921875 20.015625 65.03125 
Q 15.375 64.15625 9.8125 62.3125 
L 9.8125 71.09375 
Q 15.4375 72.65625 20.34375 73.4375 
Q 25.25 74.21875 29.59375 74.21875 
Q 40.828125 74.21875 47.359375 69.109375 
Q 53.90625 64.015625 53.90625 55.328125 
Q 53.90625 49.265625 50.4375 45.09375 
Q 46.96875 40.921875 40.578125 39.3125 
" id="DejaVuSans-33"/>
      </defs>
      <g transform="translate(31.5125 188.044658)scale(0.1 -0.1)">
       <use xlink:href="#DejaVuSans-33"/>
       <use x="63.623047" xlink:href="#DejaVuSans-30"/>
       <use x="127.246094" xlink:href="#DejaVuSans-30"/>
      </g>
     </g>
    </g>
    <g id="ytick_5">
     <g id="line2d_21">
      <path clip-path="url(#p5653013edf)" d="M 57.6 147.043804 
L 414.72 147.043804 
" style="fill:none;stroke:#b0b0b0;stroke-linecap:square;stroke-width:0.8;"/>
     </g>
     <g id="line2d_22">
      <g>
       <use style="stroke:#000000;stroke-width:0.8;" x="57.6" xlink:href="#m43bdb366b3" y="147.043804"/>
      </g>
     </g>
     <g id="text_12">
      <!-- 400 -->
      <g transform="translate(31.5125 150.843023)scale(0.1 -0.1)">
       <use xlink:href="#DejaVuSans-34"/>
       <use x="63.623047" xlink:href="#DejaVuSans-30"/>
       <use x="127.246094" xlink:href="#DejaVuSans-30"/>
      </g>
     </g>
    </g>
    <g id="ytick_6">
     <g id="line2d_23">
      <path clip-path="url(#p5653013edf)" d="M 57.6 109.842169 
L 414.72 109.842169 
" style="fill:none;stroke:#b0b0b0;stroke-linecap:square;stroke-width:0.8;"/>
     </g>
     <g id="line2d_24">
      <g>
       <use style="stroke:#000000;stroke-width:0.8;" x="57.6" xlink:href="#m43bdb366b3" y="109.842169"/>
      </g>
     </g>
     <g id="text_13">
      <!-- 500 -->
      <defs>
       <path d="M 10.796875 72.90625 
L 49.515625 72.90625 
L 49.515625 64.59375 
L 19.828125 64.59375 
L 19.828125 46.734375 
Q 21.96875 47.46875 24.109375 47.828125 
Q 26.265625 48.1875 28.421875 48.1875 
Q 40.625 48.1875 47.75 41.5 
Q 54.890625 34.8125 54.890625 23.390625 
Q 54.890625 11.625 47.5625 5.09375 
Q 40.234375 -1.421875 26.90625 -1.421875 
Q 22.3125 -1.421875 17.546875 -0.640625 
Q 12.796875 0.140625 7.71875 1.703125 
L 7.71875 11.625 
Q 12.109375 9.234375 16.796875 8.0625 
Q 21.484375 6.890625 26.703125 6.890625 
Q 35.15625 6.890625 40.078125 11.328125 
Q 45.015625 15.765625 45.015625 23.390625 
Q 45.015625 31 40.078125 35.4375 
Q 35.15625 39.890625 26.703125 39.890625 
Q 22.75 39.890625 18.8125 39.015625 
Q 14.890625 38.140625 10.796875 36.28125 
z
" id="DejaVuSans-35"/>
      </defs>
      <g transform="translate(31.5125 113.641388)scale(0.1 -0.1)">
       <use xlink:href="#DejaVuSans-35"/>
       <use x="63.623047" xlink:href="#DejaVuSans-30"/>
       <use x="127.246094" xlink:href="#DejaVuSans-30"/>
      </g>
     </g>
    </g>
    <g id="ytick_7">
     <g id="line2d_25">
      <path clip-path="url(#p5653013edf)" d="M 57.6 72.640534 
L 414.72 72.640534 
" style="fill:none;stroke:#b0b0b0;stroke-linecap:square;stroke-width:0.8;"/>
     </g>
     <g id="line2d_26">
      <g>
       <use style="stroke:#000000;stroke-width:0.8;" x="57.6" xlink:href="#m43bdb366b3" y="72.640534"/>
      </g>
     </g>
     <g id="text_14">
      <!-- 600 -->
      <g transform="translate(31.5125 76.439753)scale(0.1 -0.1)">
       <use xlink:href="#DejaVuSans-36"/>
       <use x="63.623047" xlink:href="#DejaVuSans-30"/>
       <use x="127.246094" xlink:href="#DejaVuSans-30"/>
      </g>
     </g>
    </g>
    <g id="text_15">
     <!-- Successful download requests per second -->
     <defs>
      <path d="M 53.515625 70.515625 
L 53.515625 60.890625 
Q 47.90625 63.578125 42.921875 64.890625 
Q 37.9375 66.21875 33.296875 66.21875 
Q 25.25 66.21875 20.875 63.09375 
Q 16.5 59.96875 16.5 54.203125 
Q 16.5 49.359375 19.40625 46.890625 
Q 22.3125 44.4375 30.421875 42.921875 
L 36.375 41.703125 
Q 47.40625 39.59375 52.65625 34.296875 
Q 57.90625 29 57.90625 20.125 
Q 57.90625 9.515625 50.796875 4.046875 
Q 43.703125 -1.421875 29.984375 -1.421875 
Q 24.8125 -1.421875 18.96875 -0.25 
Q 13.140625 0.921875 6.890625 3.21875 
L 6.890625 13.375 
Q 12.890625 10.015625 18.65625 8.296875 
Q 24.421875 6.59375 29.984375 6.59375 
Q 38.421875 6.59375 43.015625 9.90625 
Q 47.609375 13.234375 47.609375 19.390625 
Q 47.609375 24.75 44.3125 27.78125 
Q 41.015625 30.8125 33.5 32.328125 
L 27.484375 33.5 
Q 16.453125 35.6875 11.515625 40.375 
Q 6.59375 45.0625 6.59375 53.421875 
Q 6.59375 63.09375 13.40625 68.65625 
Q 20.21875 74.21875 32.171875 74.21875 
Q 37.3125 74.21875 42.625 73.28125 
Q 47.953125 72.359375 53.515625 70.515625 
" id="DejaVuSans-53"/>
      <path d="M 45.40625 46.390625 
L 45.40625 75.984375 
L 54.390625 75.984375 
L 54.390625 0 
L 45.40625 0 
L 45.40625 8.203125 
Q 42.578125 3.328125 38.25 0.953125 
Q 33.9375 -1.421875 27.875 -1.421875 
Q 17.96875 -1.421875 11.734375 6.484375 
Q 5.515625 14.40625 5.515625 27.296875 
Q 5.515625 40.1875 11.734375 48.09375 
Q 17.96875 56 27.875 56 
Q 33.9375 56 38.25 53.625 
Q 42.578125 51.265625 45.40625 46.390625 
M 14.796875 27.296875 
Q 14.796875 17.390625 18.875 11.75 
Q 22.953125 6.109375 30.078125 6.109375 
Q 37.203125 6.109375 41.296875 11.75 
Q 45.40625 17.390625 45.40625 27.296875 
Q 45.40625 37.203125 41.296875 42.84375 
Q 37.203125 48.484375 30.078125 48.484375 
Q 22.953125 48.484375 18.875 42.84375 
Q 14.796875 37.203125 14.796875 27.296875 
" id="DejaVuSans-64"/>
      <path d="M 4.203125 54.6875 
L 13.1875 54.6875 
L 24.421875 12.015625 
L 35.59375 54.6875 
L 46.1875 54.6875 
L 57.421875 12.015625 
L 68.609375 54.6875 
L 77.59375 54.6875 
L 63.28125 0 
L 52.6875 0 
L 40.921875 44.828125 
L 29.109375 0 
L 18.5 0 
z
" id="DejaVuSans-77"/>
      <path d="M 34.28125 27.484375 
Q 23.390625 27.484375 19.1875 25 
Q 14.984375 22.515625 14.984375 16.5 
Q 14.984375 11.71875 18.140625 8.90625 
Q 21.296875 6.109375 26.703125 6.109375 
Q 34.1875 6.109375 38.703125 11.40625 
Q 43.21875 16.703125 43.21875 25.484375 
L 43.21875 27.484375 
z
M 52.203125 31.203125 
L 52.203125 0 
L 43.21875 0 
L 43.21875 8.296875 
Q 40.140625 3.328125 35.546875 0.953125 
Q 30.953125 -1.421875 24.3125 -1.421875 
Q 15.921875 -1.421875 10.953125 3.296875 
Q 6 8.015625 6 15.921875 
Q 6 25.140625 12.171875 29.828125 
Q 18.359375 34.515625 30.609375 34.515625 
L 43.21875 34.515625 
L 43.21875 35.40625 
Q 43.21875 41.609375 39.140625 45 
Q 35.0625 48.390625 27.6875 48.390625 
Q 23 48.390625 18.546875 47.265625 
Q 14.109375 46.140625 10.015625 43.890625 
L 10.015625 52.203125 
Q 14.9375 54.109375 19.578125 55.046875 
Q 24.21875 56 28.609375 56 
Q 40.484375 56 46.34375 49.84375 
Q 52.203125 43.703125 52.203125 31.203125 
" id="DejaVuSans-61"/>
      <path d="M 14.796875 27.296875 
Q 14.796875 17.390625 18.875 11.75 
Q 22.953125 6.109375 30.078125 6.109375 
Q 37.203125 6.109375 41.296875 11.75 
Q 45.40625 17.390625 45.40625 27.296875 
Q 45.40625 37.203125 41.296875 42.84375 
Q 37.203125 48.484375 30.078125 48.484375 
Q 22.953125 48.484375 18.875 42.84375 
Q 14.796875 37.203125 14.796875 27.296875 
M 45.40625 8.203125 
Q 42.578125 3.328125 38.25 0.953125 
Q 33.9375 -1.421875 27.875 -1.421875 
Q 17.96875 -1.421875 11.734375 6.484375 
Q 5.515625 14.40625 5.515625 27.296875 
Q 5.515625 40.1875 11.734375 48.09375 
Q 17.96875 56 27.875 56 
Q 33.9375 56 38.25 53.625 
Q 42.578125 51.265625 45.40625 46.390625 
L 45.40625 54.6875 
L 54.390625 54.6875 
L 54.390625 -20.796875 
L 45.40625 -20.796875 
z
" id="DejaVuSans-71"/>
      <path d="M 18.109375 8.203125 
L 18.109375 -20.796875 
L 9.078125 -20.796875 
L 9.078125 54.6875 
L 18.109375 54.6875 
L 18.109375 46.390625 
Q 20.953125 51.265625 25.265625 53.625 
Q 29.59375 56 35.59375 56 
Q 45.5625 56 51.78125 48.09375 
Q 58.015625 40.1875 58.015625 27.296875 
Q 58.015625 14.40625 51.78125 6.484375 
Q 45.5625 -1.421875 35.59375 -1.421875 
Q 29.59375 -1.421875 25.265625 0.953125 
Q 20.953125 3.328125 18.109375 8.203125 
M 48.6875 27.296875 
Q 48.6875 37.203125 44.609375 42.84375 
Q 40.53125 48.484375 33.40625 48.484375 
Q 26.265625 48.484375 22.1875 42.84375 
Q 18.109375 37.203125 18.109375 27.296875 
Q 18.109375 17.390625 22.1875 11.75 
Q 26.265625 6.109375 33.40625 6.109375 
Q 40.53125 6.109375 44.609375 11.75 
Q 48.6875 17.390625 48.6875 27.296875 
" id="DejaVuSans-70"/>
     </defs>
     <g transform="translate(25.432812 279.366281)rotate(-90)scale(0.1 -0.1)">
      <use xlink:href="#DejaVuSans-53"/>
      <use x="63.476562" xlink:href="#DejaVuSans-75"/>
      <use x="126.855469" xlink:href="#DejaVuSans-63"/>
      <use x="181.835938" xlink:href="#DejaVuSans-63"/>
      <use x="236.816406" xlink:href="#DejaVuSans-65"/>
      <use x="298.339844" xlink:href="#DejaVuSans-73"/>
      <use x="350.439453" xlink:href="#DejaVuSans-73"/>
      <use x="402.539062" xlink:href="#DejaVuSans-66"/>
      <use x="437.744141" xlink:href="#DejaVuSans-75"/>
      <use x="501.123047" xlink:href="#DejaVuSans-6c"/>
      <use x="528.90625" xlink:href="#DejaVuSans-20"/>
      <use x="560.693359" xlink:href="#DejaVuSans-64"/>
      <use x="624.169922" xlink:href="#DejaVuSans-6f"/>
      <use x="685.351562" xlink:href="#DejaVuSans-77"/>
      <use x="767.138672" xlink:href="#DejaVuSans-6e"/>
      <use x="830.517578" xlink:href="#DejaVuSans-6c"/>
      <use x="858.300781" xlink:href="#DejaVuSans-6f"/>
      <use x="919.482422" xlink:href="#DejaVuSans-61"/>
      <use x="980.761719" xlink:href="#DejaVuSans-64"/>
      <use x="1044.238281" xlink:href="#DejaVuSans-20"/>
      <use x="1076.025391" xlink:href="#DejaVuSans-72"/>
      <use x="1117.107422" xlink:href="#DejaVuSans-65"/>
      <use x="1178.630859" xlink:href="#DejaVuSans-71"/>
      <use x="1242.107422" xlink:href="#DejaVuSans-75"/>
      <use x="1305.486328" xlink:href="#DejaVuSans-65"/>
      <use x="1367.009766" xlink:href="#DejaVuSans-73"/>
      <use x="1419.109375" xlink:href="#DejaVuSans-74"/>
      <use x="1458.318359" xlink:href="#DejaVuSans-73"/>
      <use x="1510.417969" xlink:href="#DejaVuSans-20"/>
      <use x="1542.205078" xlink:href="#DejaVuSans-70"/>
      <use x="1605.681641" xlink:href="#DejaVuSans-65"/>
      <use x="1667.205078" xlink:href="#DejaVuSans-72"/>
      <use x="1708.318359" xlink:href="#DejaVuSans-20"/>
      <use x="1740.105469" xlink:href="#DejaVuSans-73"/>
      <use x="1792.205078" xlink:href="#DejaVuSans-65"/>
      <use x="1853.728516" xlink:href="#DejaVuSans-63"/>
      <use x="1908.708984" xlink:href="#DejaVuSans-6f"/>
      <use x="1969.890625" xlink:href="#DejaVuSans-6e"/>
      <use x="2033.269531" xlink:href="#DejaVuSans-64"/>
     </g>
    </g>
   </g>
   <g id="line2d_27">
    <path clip-path="url(#p5653013edf)" d="M 57.6 295.488 
L 57.95712 295.480188 
L 60.45696 293.053153 
L 60.81408 292.524146 
L 61.52832 292.002579 
L 61.88544 291.386148 
L 62.24256 291.286075 
L 62.9568 290.377983 
L 63.31392 290.226945 
L 63.67104 289.559175 
L 64.02816 289.56364 
L 64.7424 288.87913 
L 65.09952 288.125052 
L 65.45664 288.151094 
L 65.81376 287.83674 
L 66.17088 286.962129 
L 66.528 287.143673 
L 66.88512 286.39592 
L 67.24224 286.488552 
L 67.59936 285.504569 
L 68.3136 285.270199 
L 68.67072 284.34053 
L 69.02784 284.445067 
L 69.38496 284.363595 
L 69.74208 284.02878 
L 70.0992 283.3 
L 70.81344 282.259099 
L 71.17056 282.675757 
L 71.52768 281.359935 
L 71.8848 281.592445 
L 72.24192 281.377048 
L 72.59904 280.461888 
L 72.95616 279.918744 
L 73.31328 280.375208 
L 73.6704 279.255067 
L 74.38464 279.282224 
L 77.2416 275.509606 
L 77.59872 276.277448 
L 77.95584 275.677013 
L 78.31296 275.691522 
L 79.0272 273.987315 
L 79.38432 273.495881 
L 79.74144 273.589258 
L 80.09856 273.473188 
L 80.45568 273.492905 
L 80.8128 271.946805 
L 81.52704 270.995188 
L 81.88416 271.477693 
L 82.24128 271.309541 
L 82.5984 271.626499 
L 82.95552 269.712847 
L 83.31264 270.056962 
L 83.66976 270.077051 
L 84.02688 268.496354 
L 84.384 269.255639 
L 84.74112 267.664153 
L 85.09824 268.037286 
L 85.45536 268.612423 
L 85.81248 267.277628 
L 86.1696 268.091228 
L 86.52672 266.986711 
L 86.88384 267.301065 
L 87.24096 266.976667 
L 87.59808 266.429803 
L 87.9552 266.221102 
L 88.31232 264.495318 
L 88.66944 264.449932 
L 89.02656 263.96073 
L 89.7408 264.560421 
L 90.09792 264.214818 
L 90.45504 262.127806 
L 90.81216 262.337623 
L 91.16928 262.391193 
L 91.5264 262.85175 
L 91.88352 260.794127 
L 92.24064 259.911332 
L 92.59776 261.58243 
L 93.312 260.812728 
L 93.66912 260.796359 
L 94.02624 258.058691 
L 94.38336 259.649061 
L 94.74048 257.675142 
L 95.0976 259.514763 
L 95.81184 257.337351 
L 96.16896 256.884607 
L 96.52608 257.432216 
L 96.8832 255.902484 
L 97.24032 257.35186 
L 97.59744 254.732865 
L 97.95456 255.80762 
L 98.31168 255.091117 
L 98.6688 255.290517 
L 99.02592 253.56957 
L 99.74016 253.974324 
L 100.09728 252.987364 
L 100.4544 252.84265 
L 100.81152 253.407743 
L 101.16864 250.629525 
L 101.88288 251.948323 
L 102.24 250.272761 
L 102.59712 249.557001 
L 102.95424 250.932718 
L 103.31136 250.128791 
L 103.66848 250.611668 
L 104.0256 250.311451 
L 104.38272 248.487454 
L 105.09696 248.013878 
L 105.45408 246.680571 
L 105.8112 246.781387 
L 106.16832 245.730813 
L 106.52544 246.714424 
L 106.88256 244.659406 
L 107.23968 247.589779 
L 107.5968 246.137799 
L 107.95392 244.11589 
L 108.31104 244.813793 
L 109.02528 242.913905 
L 109.3824 243.527732 
L 109.73952 243.638593 
L 110.09664 244.012098 
L 110.45376 244.19513 
L 110.81088 244.047811 
L 111.168 240.348853 
L 111.52512 241.834686 
L 111.88224 241.057544 
L 112.23936 239.756603 
L 112.59648 241.68774 
L 112.9536 241.759911 
L 113.31072 241.679183 
L 113.66784 240.775927 
L 114.02496 237.297947 
L 114.38208 240.347737 
L 114.7392 238.761087 
L 115.09632 236.140232 
L 115.45344 235.891725 
L 115.81056 238.251053 
L 116.16768 236.270437 
L 116.5248 234.966148 
L 116.88192 235.474695 
L 117.23904 236.876452 
L 117.59616 233.513424 
L 117.95328 235.193078 
L 118.3104 233.537233 
L 118.66752 236.256673 
L 119.02464 234.59562 
L 119.38176 232.248197 
L 119.73888 235.084077 
L 120.096 233.171913 
L 120.45312 234.165941 
L 120.81024 230.939071 
L 121.16736 233.107926 
L 121.52448 233.08635 
L 121.8816 233.312163 
L 122.23872 231.018311 
L 122.59584 230.892197 
L 122.95296 228.028787 
L 123.31008 227.998282 
L 123.6672 228.198055 
L 124.02432 229.048112 
L 124.38144 230.948372 
L 124.73856 227.120695 
L 125.09568 228.561143 
L 125.4528 227.596504 
L 125.80992 224.854744 
L 126.16704 226.823082 
L 126.52416 224.151633 
L 126.88128 224.598797 
L 127.2384 223.596584 
L 127.59552 226.492732 
L 127.95264 227.354694 
L 128.30976 223.737951 
L 128.66688 222.109263 
L 129.024 224.592844 
L 129.38112 222.033 
L 129.73824 224.03296 
L 130.09536 223.524041 
L 130.45248 223.491676 
L 130.8096 222.752851 
L 131.16672 220.781537 
L 131.52384 220.999166 
L 131.88096 221.553099 
L 132.23808 221.043436 
L 132.5952 220.920671 
L 132.95232 221.437402 
L 133.30944 220.549399 
L 133.66656 219.361922 
L 134.02368 218.891322 
L 134.3808 219.13648 
L 134.73792 220.07359 
L 135.09504 220.169198 
L 135.45216 216.788685 
L 136.1664 215.381719 
L 136.52352 216.840396 
L 136.88064 216.79501 
L 137.23776 214.638803 
L 137.59488 214.408525 
L 137.952 214.443494 
L 138.30912 214.711346 
L 138.66624 212.20656 
L 139.38048 215.745551 
L 139.7376 212.634379 
L 140.09472 210.570432 
L 140.45184 214.925627 
L 141.16608 211.83938 
L 141.5232 212.734823 
L 141.88032 212.712874 
L 142.23744 210.47222 
L 142.59456 213.229233 
L 142.95168 207.492369 
L 143.3088 210.278771 
L 144.02304 206.320145 
L 144.38016 211.474804 
L 144.73728 208.725603 
L 145.0944 205.025156 
L 145.45152 208.818607 
L 145.80864 206.618874 
L 146.16576 206.916115 
L 146.52288 205.760261 
L 146.88 207.631503 
L 147.23712 205.768445 
L 147.59424 204.668021 
L 147.95136 207.956273 
L 148.30848 207.29148 
L 148.6656 201.710119 
L 149.02272 202.73428 
L 149.37984 200.443031 
L 149.73696 201.455659 
L 150.09408 204.448531 
L 150.4512 205.619266 
L 150.80832 202.798266 
L 151.16544 198.60713 
L 151.52256 204.502845 
L 151.87968 199.783074 
L 152.2368 201.013332 
L 152.95104 198.997375 
L 153.30816 199.101912 
L 153.66528 196.443483 
L 154.0224 202.176999 
L 154.37952 200.799423 
L 154.73664 198.380572 
L 155.09376 197.389521 
L 155.45088 196.793551 
L 156.16512 194.251935 
L 156.52224 199.46686 
L 156.87936 195.166351 
L 157.23648 196.257103 
L 157.5936 193.516086 
L 157.95072 194.77499 
L 158.30784 197.521587 
L 158.66496 194.858694 
L 159.02208 197.282752 
L 159.3792 192.430543 
L 159.73632 194.354239 
L 160.09344 191.241579 
L 160.45056 194.049558 
L 160.80768 189.737516 
L 161.1648 193.939069 
L 161.52192 190.496058 
L 161.87904 193.776126 
L 162.23616 188.260984 
L 162.59328 187.901616 
L 162.9504 191.628848 
L 163.30752 187.205945 
L 163.66464 188.083904 
L 164.02176 188.582406 
L 164.37888 190.527307 
L 164.736 184.886051 
L 165.09312 190.77135 
L 165.45024 184.783375 
L 165.80736 184.060547 
L 166.16448 184.855174 
L 166.5216 189.231946 
L 166.87872 187.997596 
L 167.23584 182.520771 
L 167.59296 183.322467 
L 167.95008 181.903224 
L 168.3072 184.634196 
L 168.66432 183.465693 
L 169.02144 182.762954 
L 169.37856 184.316122 
L 169.73568 183.289357 
L 170.0928 181.183372 
L 170.44992 181.3545 
L 170.80704 182.040498 
L 171.16416 179.097849 
L 171.52128 185.185152 
L 171.8784 177.580022 
L 172.23552 179.417411 
L 172.59264 177.31031 
L 172.94976 176.193889 
L 173.30688 183.383105 
L 173.664 182.621216 
L 174.37824 176.900348 
L 174.73536 176.348648 
L 175.09248 177.697951 
L 175.4496 174.571526 
L 175.80672 175.574482 
L 176.16384 173.274677 
L 176.52096 175.151499 
L 176.87808 175.128062 
L 177.2352 172.053719 
L 177.59232 172.690239 
L 177.94944 172.165696 
L 178.30656 170.839458 
L 178.66368 173.76239 
L 179.37792 170.12035 
L 179.73504 175.754538 
L 180.09216 171.133723 
L 180.44928 174.013129 
L 181.16352 170.151228 
L 181.52064 171.577166 
L 181.87776 169.342836 
L 182.23488 169.570138 
L 182.592 166.063884 
L 182.94912 166.707472 
L 183.30624 167.586547 
L 183.66336 167.102554 
L 184.02048 171.467049 
L 184.3776 169.617756 
L 184.73472 164.497323 
L 185.09184 165.801612 
L 185.44896 167.562738 
L 185.80608 171.271369 
L 186.1632 162.008906 
L 186.52032 170.558586 
L 186.87744 169.306379 
L 187.23456 165.56315 
L 187.59168 168.664278 
L 187.9488 162.374226 
L 188.66304 167.176213 
L 189.02016 162.158828 
L 189.37728 162.054664 
L 190.09152 166.739838 
L 190.44864 162.710901 
L 190.80576 162.86752 
L 191.16288 158.079669 
L 191.52 157.623577 
L 191.87712 162.209423 
L 192.23424 156.434613 
L 192.59136 162.069544 
L 192.94848 159.998157 
L 193.3056 163.152856 
L 193.66272 157.207663 
L 194.01984 155.948387 
L 194.37696 153.906762 
L 194.73408 157.81591 
L 195.0912 156.654474 
L 195.44832 161.23846 
L 195.80544 157.372466 
L 196.16256 161.056172 
L 196.51968 156.312591 
L 196.8768 160.097486 
L 197.23392 159.739234 
L 197.59104 153.531397 
L 197.94816 154.918646 
L 198.30528 151.327944 
L 198.6624 155.055176 
L 199.01952 157.183854 
L 199.37664 157.030211 
L 199.73376 155.115443 
L 200.09088 149.182154 
L 200.448 150.491652 
L 200.80512 149.731622 
L 201.16224 153.606917 
L 201.51936 154.18689 
L 201.87648 148.964525 
L 202.2336 147.736127 
L 202.59072 153.111391 
L 202.94784 148.424729 
L 203.30496 145.576572 
L 203.66208 146.667324 
L 204.0192 146.942988 
L 204.37632 145.81987 
L 204.73344 146.871189 
L 205.09056 148.961548 
L 205.44768 141.954248 
L 205.8048 148.58544 
L 206.16192 147.851452 
L 206.51904 142.815466 
L 206.87616 144.516697 
L 207.23328 144.95084 
L 207.5904 144.043864 
L 207.94752 144.504793 
L 208.30464 142.343006 
L 208.66176 146.165101 
L 209.01888 138.402608 
L 209.376 139.337113 
L 209.73312 141.465047 
L 210.09024 145.416977 
L 210.44736 139.179751 
L 210.80448 143.304668 
L 211.1616 137.630302 
L 211.51872 144.198623 
L 211.87584 139.065541 
L 212.23296 135.545151 
L 212.59008 142.306548 
L 212.9472 135.903775 
L 213.66144 141.290571 
L 214.01856 138.370615 
L 214.37568 139.817387 
L 214.7328 133.824575 
L 215.08992 135.362863 
L 215.44704 139.050289 
L 215.80416 139.283915 
L 216.16128 140.341186 
L 216.5184 137.90485 
L 216.87552 140.325933 
L 217.23264 136.624742 
L 217.58976 140.223628 
L 217.94688 139.44351 
L 218.304 128.771105 
L 218.66112 130.866301 
L 219.01824 139.304748 
L 219.37536 129.603678 
L 219.73248 131.695898 
L 220.0896 138.324857 
L 220.44672 137.397048 
L 220.80384 128.326174 
L 221.16096 128.877874 
L 221.51808 136.509789 
L 221.8752 129.214921 
L 222.23232 127.460119 
L 222.58944 126.986543 
L 222.94656 132.311957 
L 223.30368 128.865597 
L 223.6608 128.844764 
L 224.01792 126.179639 
L 224.37504 125.183379 
L 224.73216 122.136565 
L 225.08928 124.879814 
L 225.4464 126.583649 
L 225.80352 121.182716 
L 226.16064 131.493149 
L 226.51776 129.863717 
L 226.87488 122.069603 
L 227.232 125.537539 
L 227.58912 131.005063 
L 227.94624 124.410701 
L 228.30336 129.689985 
L 228.66048 119.849781 
L 229.0176 120.844925 
L 229.37472 124.649164 
L 229.73184 118.930901 
L 230.08896 127.729831 
L 230.44608 127.236538 
L 231.16032 119.071895 
L 231.51744 121.615371 
L 231.87456 120.751549 
L 232.23168 117.353179 
L 232.5888 127.182223 
L 232.94592 121.625415 
L 233.30304 118.54884 
L 233.66016 121.74074 
L 234.01728 117.912692 
L 234.3744 120.350887 
L 235.08864 122.994435 
L 235.44576 117.643724 
L 235.80288 123.131337 
L 236.16 122.863485 
L 236.51712 123.869418 
L 236.87424 125.528239 
L 237.23136 114.287393 
L 237.58848 119.275388 
L 237.9456 119.925672 
L 238.30272 122.701658 
L 238.65984 122.998527 
L 239.01696 116.23341 
L 239.7312 119.284688 
L 240.08832 114.055254 
L 240.44544 119.737432 
L 240.80256 113.959274 
L 241.15968 112.874846 
L 241.5168 117.759793 
L 241.87392 117.877722 
L 242.23104 113.204081 
L 242.58816 115.72412 
L 242.94528 116.087952 
L 243.3024 114.070135 
L 243.65952 121.239262 
L 244.01664 115.681338 
L 244.37376 121.994827 
L 244.73088 115.376284 
L 245.088 112.85699 
L 245.44512 117.610615 
L 245.80224 113.435475 
L 246.15936 112.213401 
L 246.51648 113.286297 
L 246.8736 121.179367 
L 247.23072 110.746541 
L 247.58784 120.993359 
L 247.94496 109.404678 
L 248.30208 120.362792 
L 248.6592 118.145574 
L 249.01632 118.760517 
L 249.37344 108.893527 
L 249.73056 114.551152 
L 250.08768 112.271064 
L 250.4448 108.39391 
L 250.80192 109.492846 
L 251.51616 115.195856 
L 251.87328 118.180544 
L 252.2304 109.098136 
L 252.58752 115.523975 
L 252.94464 112.491298 
L 253.30176 116.46592 
L 254.016 107.428899 
L 254.37312 113.230494 
L 254.73024 114.613651 
L 255.08736 113.763966 
L 255.44448 113.925421 
L 255.8016 115.873298 
L 256.15872 107.646901 
L 256.51584 106.536804 
L 256.87296 109.727588 
L 257.23008 115.624419 
L 257.5872 116.95475 
L 257.94432 105.055807 
L 258.30144 112.559005 
L 259.01568 104.231791 
L 259.3728 116.146358 
L 259.72992 107.388349 
L 260.08704 105.344864 
L 260.44416 105.22433 
L 260.80128 109.564273 
L 261.1584 105.091148 
L 261.51552 103.540584 
L 261.87264 113.306757 
L 262.22976 116.018757 
L 262.58688 113.784426 
L 262.944 108.324342 
L 263.30112 108.479473 
L 263.65824 105.299478 
L 264.01536 114.625555 
L 264.37248 105.023441 
L 264.7296 113.14121 
L 265.08672 113.029977 
L 265.80096 109.580642 
L 266.15808 111.621523 
L 266.5152 112.492414 
L 266.87232 104.478437 
L 267.22944 113.72044 
L 267.58656 102.155195 
L 267.94368 109.508098 
L 268.3008 108.931473 
L 268.65792 101.872835 
L 269.01504 106.637992 
L 269.37216 109.558321 
L 270.0864 100.144075 
L 270.44352 103.273476 
L 270.80064 105.017489 
L 271.15776 103.844522 
L 271.51488 109.286005 
L 271.872 102.073724 
L 272.22912 109.261824 
L 272.58624 98.779891 
L 272.94336 105.285713 
L 273.30048 98.368813 
L 273.6576 106.753317 
L 274.01472 98.082732 
L 274.37184 106.8958 
L 274.72896 108.785271 
L 275.08608 97.530288 
L 275.4432 111.003232 
L 275.80032 100.331943 
L 276.15744 106.508531 
L 276.51456 101.820753 
L 276.87168 107.840721 
L 277.2288 107.650993 
L 277.58592 103.164104 
L 277.94304 108.207529 
L 278.30016 100.738929 
L 278.65728 108.221666 
L 279.0144 105.72432 
L 279.37152 105.590394 
L 280.08576 96.839826 
L 280.44288 99.29625 
L 280.8 108.720912 
L 281.51424 98.5325 
L 281.87136 97.860639 
L 282.22848 98.624016 
L 282.5856 96.0638 
L 282.94272 97.180221 
L 283.29984 102.84231 
L 283.65696 94.335784 
L 284.01408 106.292017 
L 284.72832 98.942834 
L 285.08544 104.796883 
L 285.44256 93.515488 
L 286.51392 97.602087 
L 286.87104 95.094697 
L 287.22816 95.100649 
L 287.58528 102.035034 
L 287.9424 95.426536 
L 288.29952 102.271636 
L 288.65664 95.740517 
L 289.01376 106.047602 
L 289.37088 96.827549 
L 289.728 99.164928 
L 290.08512 105.851178 
L 290.44224 103.106813 
L 291.15648 99.440964 
L 291.5136 104.727688 
L 291.87072 100.154863 
L 292.22784 99.680915 
L 292.58496 98.08608 
L 292.94208 101.43274 
L 293.2992 91.268137 
L 293.65632 98.485626 
L 294.01344 97.276201 
L 294.37056 90.748802 
L 294.72768 100.187229 
L 295.0848 93.855883 
L 295.44192 94.416883 
L 295.79904 102.114646 
L 296.15616 103.766398 
L 296.51328 89.553514 
L 296.8704 97.03253 
L 297.22752 94.557505 
L 297.58464 102.107949 
L 297.94176 101.475149 
L 298.29888 92.120798 
L 298.656 97.028438 
L 299.01312 96.856938 
L 299.37024 91.815001 
L 299.72736 92.877108 
L 300.08448 94.989044 
L 300.4416 101.211762 
L 300.79872 88.158452 
L 301.15584 90.374554 
L 301.51296 99.891104 
L 301.87008 100.0879 
L 302.2272 90.172921 
L 302.58432 87.907713 
L 302.94144 87.220227 
L 303.29856 88.377198 
L 303.65568 100.127706 
L 304.0128 94.375217 
L 304.36992 91.256232 
L 304.72704 99.993408 
L 305.08416 95.58241 
L 305.44128 98.734505 
L 306.15552 92.293414 
L 306.51264 86.115338 
L 306.86976 98.242699 
L 307.22688 98.238235 
L 307.584 94.368893 
L 308.29824 97.561165 
L 308.65536 92.000637 
L 309.01248 99.20957 
L 309.3696 98.807792 
L 309.72672 98.212938 
L 310.08384 93.913917 
L 310.44096 97.659378 
L 310.79808 85.004498 
L 311.1552 91.272973 
L 311.51232 86.054328 
L 311.86944 86.907733 
L 312.22656 90.468302 
L 312.58368 90.998425 
L 312.9408 96.873679 
L 313.29792 85.521972 
L 313.65504 83.621341 
L 314.01216 84.104962 
L 314.36928 84.812909 
L 314.7264 83.82037 
L 315.08352 92.866691 
L 315.44064 84.567378 
L 315.79776 95.630401 
L 316.15488 87.2485 
L 316.512 87.333692 
L 316.86912 96.560813 
L 317.22624 83.681979 
L 317.94048 93.308275 
L 318.2976 85.587447 
L 318.65472 93.880064 
L 319.01184 90.557586 
L 319.36896 82.175313 
L 319.72608 92.980528 
L 320.0832 83.038763 
L 320.44032 88.506287 
L 320.79744 83.709137 
L 321.15456 89.139087 
L 321.51168 92.400927 
L 321.8688 86.056932 
L 322.22592 85.662595 
L 322.58304 92.181065 
L 322.94016 81.800693 
L 323.29728 86.416672 
L 323.6544 93.523672 
L 324.01152 91.450797 
L 324.36864 83.65631 
L 324.72576 80.437253 
L 325.08288 83.624317 
L 325.44 82.286546 
L 325.79712 88.960891 
L 326.15424 87.077373 
L 326.51136 90.581023 
L 326.86848 78.445477 
L 327.2256 87.983977 
L 327.58272 83.382134 
L 327.93984 82.42196 
L 328.29696 85.323688 
L 328.65408 78.834234 
L 329.0112 82.746358 
L 329.36832 85.103082 
L 329.72544 77.975993 
L 330.08256 86.809521 
L 330.43968 81.054056 
L 330.7968 88.75033 
L 331.15392 88.434488 
L 331.51104 83.960248 
L 331.86816 76.963364 
L 332.22528 84.245212 
L 332.5824 85.587075 
L 332.93952 78.580147 
L 333.29664 77.92019 
L 333.65376 83.988149 
L 334.01088 84.486651 
L 334.368 85.371306 
L 334.72512 80.674227 
L 335.08224 78.456638 
L 335.43936 77.410156 
L 336.1536 89.812065 
L 336.51072 82.183126 
L 336.86784 89.399871 
L 337.22496 88.868631 
L 337.58208 83.550658 
L 337.9392 88.936338 
L 338.29632 76.107727 
L 338.65344 83.69872 
L 339.01056 74.796741 
L 339.36768 75.623733 
L 339.7248 81.54921 
L 340.08192 76.784052 
L 340.43904 77.769524 
L 340.79616 75.254321 
L 341.15328 85.211711 
L 341.5104 84.537245 
L 341.86752 80.821546 
L 342.22464 74.123019 
L 342.58176 76.454074 
L 343.296 87.218367 
L 343.65312 82.198006 
L 344.01024 83.24114 
L 344.36736 75.521801 
L 344.72448 87.601916 
L 345.0816 72.842911 
L 345.43872 83.806233 
L 345.79584 72.103715 
L 346.15296 82.043247 
L 346.51008 74.974937 
L 346.8672 71.779316 
L 347.22432 71.849627 
L 347.58144 72.517769 
L 347.93856 81.619521 
L 348.29568 76.060481 
L 348.6528 73.566855 
L 349.00992 79.942099 
L 349.36704 77.369606 
L 349.72416 71.702681 
L 350.08128 71.617117 
L 350.4384 80.358385 
L 350.79552 78.255377 
L 351.15264 74.617057 
L 351.50976 76.273646 
L 351.86688 85.368702 
L 352.224 80.747514 
L 352.58112 80.430185 
L 352.93824 77.244237 
L 353.29536 70.630158 
L 353.65248 70.291995 
L 354.0096 84.87392 
L 354.36672 77.571239 
L 354.72384 80.732262 
L 355.08096 77.378906 
L 355.43808 69.377579 
L 355.7952 84.172669 
L 356.15232 70.754039 
L 356.50944 71.706401 
L 356.86656 73.647954 
L 357.22368 69.675936 
L 357.5808 81.063728 
L 357.93792 76.437333 
L 358.29504 67.861984 
L 358.65216 76.790005 
L 359.00928 72.954516 
L 359.3664 80.69506 
L 359.72352 82.522777 
L 360.08064 67.189007 
L 360.43776 70.72651 
L 360.79488 69.090754 
L 361.152 68.527893 
L 361.50912 68.269342 
L 361.86624 73.387915 
L 362.22336 68.73213 
L 362.58048 73.133456 
L 362.9376 75.851407 
L 363.29472 67.250017 
L 363.65184 73.283006 
L 364.00896 81.350925 
L 364.36608 71.998806 
L 364.7232 67.149945 
L 365.08032 73.695573 
L 365.43744 76.247233 
L 365.79456 69.08629 
L 366.15168 65.80957 
L 366.5088 71.964208 
L 366.86592 71.676268 
L 367.22304 74.493176 
L 367.58016 75.177314 
L 367.93728 64.806614 
L 368.65152 67.853428 
L 369.00864 66.445346 
L 369.36576 71.182602 
L 369.72288 64.599029 
L 370.43712 73.209719 
L 370.79424 69.526385 
L 371.50848 76.805629 
L 371.8656 68.270086 
L 372.22272 63.373607 
L 372.57984 64.417857 
L 372.93696 67.761168 
L 373.29408 76.766196 
L 374.00832 63.695029 
L 374.36544 72.466431 
L 374.72256 68.651031 
L 375.4368 77.133004 
L 375.79392 63.024656 
L 376.15104 72.161377 
L 376.50816 76.00133 
L 376.86528 68.655495 
L 377.2224 73.432185 
L 377.57952 65.717682 
L 377.93664 77.289995 
L 378.29376 76.46449 
L 378.65088 64.077462 
L 379.008 62.127724 
L 379.36512 70.762224 
L 379.72224 66.314768 
L 380.43648 73.835451 
L 380.7936 64.838607 
L 381.15072 71.501792 
L 381.50784 63.880293 
L 381.86496 71.770388 
L 382.22208 72.82059 
L 382.5792 72.122315 
L 382.93632 72.596264 
L 383.65056 65.479219 
L 384.00768 71.640182 
L 384.3648 74.100698 
L 384.72192 69.44603 
L 385.07904 70.08627 
L 385.43616 62.609485 
L 385.79328 69.529733 
L 386.1504 69.923327 
L 386.50752 73.717894 
L 386.86464 71.939655 
L 387.22176 74.161709 
L 387.57888 64.822611 
L 387.936 71.498444 
L 388.29312 72.011083 
L 388.65024 61.49418 
L 389.00736 61.653403 
L 389.36448 66.609033 
L 390.07872 61.283619 
L 390.43584 69.164041 
L 390.79296 64.673804 
L 391.15008 65.236665 
L 391.5072 71.577311 
L 391.86432 62.355026 
L 392.22144 64.038028 
L 392.57856 59.134853 
L 392.93568 58.576456 
L 393.2928 68.293151 
L 393.64992 70.953068 
L 394.00704 57.653112 
L 394.36416 70.650619 
L 394.72128 63.35761 
L 395.0784 62.868037 
L 395.43552 62.747131 
L 395.79264 60.577904 
L 396.14976 67.275314 
L 396.50688 69.895426 
L 396.864 66.836335 
L 397.22112 58.998323 
L 397.57824 70.182994 
L 397.93536 62.844972 
L 398.29248 61.495668 
L 398.6496 57.921335 
L 399.00672 58.911643 
L 399.36384 64.860556 
L 399.72096 66.58076 
L 400.07808 66.834103 
L 400.4352 63.964369 
L 400.79232 70.687076 
L 401.14944 66.430837 
L 401.50656 68.528265 
L 401.86368 68.851548 
L 402.2208 69.344469 
L 402.57792 55.465283 
L 402.93504 61.423869 
L 403.29216 56.238333 
L 403.64928 63.761992 
L 404.0064 55.521086 
L 404.36352 54.97571 
L 404.72064 69.31508 
L 405.07776 69.335913 
L 405.43488 58.008759 
L 405.792 64.942028 
L 406.14912 60.52359 
L 406.50624 65.150729 
L 406.86336 56.695913 
L 407.22048 68.067337 
L 407.5776 62.40004 
L 408.29184 65.216948 
L 408.64896 58.723031 
L 409.00608 59.508357 
L 409.3632 62.838275 
L 409.72032 58.571992 
L 410.07744 55.686261 
L 410.43456 68.094122 
L 410.79168 56.593237 
L 411.50592 64.227012 
L 412.22016 66.924875 
L 412.57728 55.348098 
L 412.9344 59.583132 
L 413.29152 59.689157 
L 413.64864 53.568 
L 414.00576 57.138613 
L 414.36288 64.146285 
L 414.72 59.634471 
L 414.72 59.634471 
" style="fill:none;stroke:#000080;stroke-linecap:square;stroke-width:0.5;"/>
   </g>
   <g id="patch_3">
    <path d="M 57.6 307.584 
L 57.6 41.472 
" style="fill:none;stroke:#000000;stroke-linecap:square;stroke-linejoin:miter;stroke-width:0.8;"/>
   </g>
   <g id="patch_4">
    <path d="M 414.72 307.584 
L 414.72 41.472 
" style="fill:none;stroke:#000000;stroke-linecap:square;stroke-linejoin:miter;stroke-width:0.8;"/>
   </g>
   <g id="patch_5">
    <path d="M 57.6 307.584 
L 414.72 307.584 
" style="fill:none;stroke:#000000;stroke-linecap:square;stroke-linejoin:miter;stroke-width:0.8;"/>
   </g>
   <g id="patch_6">
    <path d="M 57.6 41.472 
L 414.72 41.472 
" style="fill:none;stroke:#000000;stroke-linecap:square;stroke-linejoin:miter;stroke-width:0.8;"/>
   </g>
   <g id="text_16">
    <!-- Test -->
    <defs>
     <path d="M -0.296875 72.90625 
L 61.375 72.90625 
L 61.375 64.59375 
L 35.5 64.59375 
L 35.5 0 
L 25.59375 0 
L 25.59375 64.59375 
L -0.296875 64.59375 
z
" id="DejaVuSans-54"/>
    </defs>
    <g transform="translate(223.341563 35.472)scale(0.12 -0.12)">
     <use xlink:href="#DejaVuSans-54"/>
     <use x="60.818359" xlink:href="#DejaVuSans-65"/>
     <use x="122.341797" xlink:href="#DejaVuSans-73"/>
     <use x="174.441406" xlink:href="#DejaVuSans-74"/>
    </g>
   </g>
   <g id="legend_1">
    <g id="patch_7">
     <path d="M 64.6 64.150125 
L 306.276563 64.150125 
Q 308.276563 64.150125 308.276563 62.150125 
L 308.276563 48.472 
Q 308.276563 46.472 306.276563 46.472 
L 64.6 46.472 
Q 62.6 46.472 62.6 48.472 
L 62.6 62.150125 
Q 62.6 64.150125 64.6 64.150125 
z
" style="fill:#ffffff;opacity:0.8;stroke:#cccccc;stroke-linejoin:miter;"/>
    </g>
    <g id="line2d_28">
     <path d="M 66.6 54.570438 
L 86.6 54.570438 
" style="fill:none;stroke:#000080;stroke-linecap:square;stroke-width:0.5;"/>
    </g>
    <g id="line2d_29"/>
    <g id="text_17">
     <!-- Successful download requests per second -->
     <g transform="translate(94.6 58.070438)scale(0.1 -0.1)">
      <use xlink:href="#DejaVuSans-53"/>
      <use x="63.476562" xlink:href="#DejaVuSans-75"/>
      <use x="126.855469" xlink:href="#DejaVuSans-63"/>
      <use x="181.835938" xlink:href="#DejaVuSans-63"/>
      <use x="236.816406" xlink:href="#DejaVuSans-65"/>
      <use x="298.339844" xlink:href="#DejaVuSans-73"/>
      <use x="350.439453" xlink:href="#DejaVuSans-73"/>
      <use x="402.539062" xlink:href="#DejaVuSans-66"/>
      <use x="437.744141" xlink:href="#DejaVuSans-75"/>
      <use x="501.123047" xlink:href="#DejaVuSans-6c"/>
      <use x="528.90625" xlink:href="#DejaVuSans-20"/>
      <use x="560.693359" xlink:href="#DejaVuSans-64"/>
      <use x="624.169922" xlink:href="#DejaVuSans-6f"/>
      <use x="685.351562" xlink:href="#DejaVuSans-77"/>
      <use x="767.138672" xlink:href="#DejaVuSans-6e"/>
      <use x="830.517578" xlink:href="#DejaVuSans-6c"/>
      <use x="858.300781" xlink:href="#DejaVuSans-6f"/>
      <use x="919.482422" xlink:href="#DejaVuSans-61"/>
      <use x="980.761719" xlink:href="#DejaVuSans-64"/>
      <use x="1044.238281" xlink:href="#DejaVuSans-20"/>
      <use x="1076.025391" xlink:href="#DejaVuSans-72"/>
      <use x="1117.107422" xlink:href="#DejaVuSans-65"/>
      <use x="1178.630859" xlink:href="#DejaVuSans-71"/>
      <use x="1242.107422" xlink:href="#DejaVuSans-75"/>
      <use x="1305.486328" xlink:href="#DejaVuSans-65"/>
      <use x="1367.009766" xlink:href="#DejaVuSans-73"/>
      <use x="1419.109375" xlink:href="#DejaVuSans-74"/>
      <use x="1458.318359" xlink:href="#DejaVuSans-73"/>
      <use x="1510.417969" xlink:href="#DejaVuSans-20"/>
      <use x="1542.205078" xlink:href="#DejaVuSans-70"/>
      <use x="1605.681641" xlink:href="#DejaVuSans-65"/>
      <use x="1667.205078" xlink:href="#DejaVuSans-72"/>
      <use x="1708.318359" xlink:href="#DejaVuSans-20"/>
      <use x="1740.105469" xlink:href="#DejaVuSans-73"/>
      <use x="1792.205078" xlink:href="#DejaVuSans-65"/>
      <use x="1853.728516" xlink:href="#DejaVuSans-63"/>
      <use x="1908.708984" xlink:href="#DejaVuSans-6f"/>
      <use x="1969.890625" xlink:href="#DejaVuSans-6e"/>
      <use x="2033.269531" xlink:href="#DejaVuSans-64"/>
     </g>
    </g>
   </g>
  </g>
 </g>
 <defs>
  <clipPath id="p5653013edf">
   <rect height="266.112" width="357.12" x="57.6" y="41.472"/>
  </clipPath>
 </defs>
</svg>
