<?xml version="1.0" encoding="utf-8" standalone="no"?>
<!DOCTYPE svg PUBLIC "-//W3C//DTD SVG 1.1//EN"
  "http://www.w3.org/Graphics/SVG/1.1/DTD/svg11.dtd">
<!-- Created with matplotlib (http://matplotlib.org/) -->
<svg height="345pt" version="1.1" viewBox="0 0 460 345" width="460pt" xmlns="http://www.w3.org/2000/svg" xmlns:xlink="http://www.w3.org/1999/xlink">
 <defs>
  <style type="text/css">
*{stroke-linecap:butt;stroke-linejoin:round;}
  </style>
 </defs>
 <g id="figure_1">
  <g id="patch_1">
   <path d="M 0 345.6 
L 460.8 345.6 
L 460.8 0 
L 0 0 
z
" style="fill:#ffffff;"/>
  </g>
  <g id="axes_1">
   <g id="patch_2">
    <path d="M 57.6 307.584 
L 414.72 307.584 
L 414.72 41.472 
L 57.6 41.472 
z
" style="fill:#ffffff;"/>
   </g>
   <g id="matplotlib.axis_1">
    <g id="xtick_1">
     <g id="line2d_1">
      <path clip-path="url(#pa99b55982f)" d="M 57.6 307.584 
L 57.6 41.472 
" style="fill:none;stroke:#b0b0b0;stroke-linecap:square;stroke-width:0.8;"/>
     </g>
     <g id="line2d_2">
      <defs>
       <path d="M 0 0 
L 0 3.5 
" id="m5aa946ae3d" style="stroke:#000000;stroke-width:0.8;"/>
      </defs>
      <g>
       <use style="stroke:#000000;stroke-width:0.8;" x="57.6" xlink:href="#m5aa946ae3d" y="307.584"/>
      </g>
     </g>
     <g id="text_1">
      <!-- 0 -->
      <defs>
       <path d="M 31.78125 66.40625 
Q 24.171875 66.40625 20.328125 58.90625 
Q 16.5 51.421875 16.5 36.375 
Q 16.5 21.390625 20.328125 13.890625 
Q 24.171875 6.390625 31.78125 6.390625 
Q 39.453125 6.390625 43.28125 13.890625 
Q 47.125 21.390625 47.125 36.375 
Q 47.125 51.421875 43.28125 58.90625 
Q 39.453125 66.40625 31.78125 66.40625 
M 31.78125 74.21875 
Q 44.046875 74.21875 50.515625 64.515625 
Q 56.984375 54.828125 56.984375 36.375 
Q 56.984375 17.96875 50.515625 8.265625 
Q 44.046875 -1.421875 31.78125 -1.421875 
Q 19.53125 -1.421875 13.0625 8.265625 
Q 6.59375 17.96875 6.59375 36.375 
Q 6.59375 54.828125 13.0625 64.515625 
Q 19.53125 74.21875 31.78125 74.21875 
" id="DejaVuSans-30"/>
      </defs>
      <g transform="translate(54.41875 322.182437)scale(0.1 -0.1)">
       <use xlink:href="#DejaVuSans-30"/>
      </g>
     </g>
    </g>
    <g id="xtick_2">
     <g id="line2d_3">
      <path clip-path="url(#pa99b55982f)" d="M 129.024 307.584 
L 129.024 41.472 
" style="fill:none;stroke:#b0b0b0;stroke-linecap:square;stroke-width:0.8;"/>
     </g>
     <g id="line2d_4">
      <g>
       <use style="stroke:#000000;stroke-width:0.8;" x="129.024" xlink:href="#m5aa946ae3d" y="307.584"/>
      </g>
     </g>
     <g id="text_2">
      <!-- 200 -->
      <defs>
       <path d="M 19.1875 8.296875 
L 53.609375 8.296875 
L 53.609375 0 
L 7.328125 0 
L 7.328125 8.296875 
Q 12.9375 14.109375 22.625 23.890625 
Q 32.328125 33.6875 34.8125 36.53125 
Q 39.546875 41.84375 41.421875 45.53125 
Q 43.3125 49.21875 43.3125 52.78125 
Q 43.3125 58.59375 39.234375 62.25 
Q 35.15625 65.921875 28.609375 65.921875 
Q 23.96875 65.921875 18.8125 64.3125 
Q 13.671875 62.703125 7.8125 59.421875 
L 7.8125 69.390625 
Q 13.765625 71.78125 18.9375 73 
Q 24.125 74.21875 28.421875 74.21875 
Q 39.75 74.21875 46.484375 68.546875 
Q 53.21875 62.890625 53.21875 53.421875 
Q 53.21875 48.921875 51.53125 44.890625 
Q 49.859375 40.875 45.40625 35.40625 
Q 44.1875 33.984375 37.640625 27.21875 
Q 31.109375 20.453125 19.1875 8.296875 
" id="DejaVuSans-32"/>
      </defs>
      <g transform="translate(119.48025 322.182437)scale(0.1 -0.1)">
       <use xlink:href="#DejaVuSans-32"/>
       <use x="63.623047" xlink:href="#DejaVuSans-30"/>
       <use x="127.246094" xlink:href="#DejaVuSans-30"/>
      </g>
     </g>
    </g>
    <g id="xtick_3">
     <g id="line2d_5">
      <path clip-path="url(#pa99b55982f)" d="M 200.448 307.584 
L 200.448 41.472 
" style="fill:none;stroke:#b0b0b0;stroke-linecap:square;stroke-width:0.8;"/>
     </g>
     <g id="line2d_6">
      <g>
       <use style="stroke:#000000;stroke-width:0.8;" x="200.448" xlink:href="#m5aa946ae3d" y="307.584"/>
      </g>
     </g>
     <g id="text_3">
      <!-- 400 -->
      <defs>
       <path d="M 37.796875 64.3125 
L 12.890625 25.390625 
L 37.796875 25.390625 
z
M 35.203125 72.90625 
L 47.609375 72.90625 
L 47.609375 25.390625 
L 58.015625 25.390625 
L 58.015625 17.1875 
L 47.609375 17.1875 
L 47.609375 0 
L 37.796875 0 
L 37.796875 17.1875 
L 4.890625 17.1875 
L 4.890625 26.703125 
z
" id="DejaVuSans-34"/>
      </defs>
      <g transform="translate(190.90425 322.182437)scale(0.1 -0.1)">
       <use xlink:href="#DejaVuSans-34"/>
       <use x="63.623047" xlink:href="#DejaVuSans-30"/>
       <use x="127.246094" xlink:href="#DejaVuSans-30"/>
      </g>
     </g>
    </g>
    <g id="xtick_4">
     <g id="line2d_7">
      <path clip-path="url(#pa99b55982f)" d="M 271.872 307.584 
L 271.872 41.472 
" style="fill:none;stroke:#b0b0b0;stroke-linecap:square;stroke-width:0.8;"/>
     </g>
     <g id="line2d_8">
      <g>
       <use style="stroke:#000000;stroke-width:0.8;" x="271.872" xlink:href="#m5aa946ae3d" y="307.584"/>
      </g>
     </g>
     <g id="text_4">
      <!-- 600 -->
      <defs>
       <path d="M 33.015625 40.375 
Q 26.375 40.375 22.484375 35.828125 
Q 18.609375 31.296875 18.609375 23.390625 
Q 18.609375 15.53125 22.484375 10.953125 
Q 26.375 6.390625 33.015625 6.390625 
Q 39.65625 6.390625 43.53125 10.953125 
Q 47.40625 15.53125 47.40625 23.390625 
Q 47.40625 31.296875 43.53125 35.828125 
Q 39.65625 40.375 33.015625 40.375 
M 52.59375 71.296875 
L 52.59375 62.3125 
Q 48.875 64.0625 45.09375 64.984375 
Q 41.3125 65.921875 37.59375 65.921875 
Q 27.828125 65.921875 22.671875 59.328125 
Q 17.53125 52.734375 16.796875 39.40625 
Q 19.671875 43.65625 24.015625 45.921875 
Q 28.375 48.1875 33.59375 48.1875 
Q 44.578125 48.1875 50.953125 41.515625 
Q 57.328125 34.859375 57.328125 23.390625 
Q 57.328125 12.15625 50.6875 5.359375 
Q 44.046875 -1.421875 33.015625 -1.421875 
Q 20.359375 -1.421875 13.671875 8.265625 
Q 6.984375 17.96875 6.984375 36.375 
Q 6.984375 53.65625 15.1875 63.9375 
Q 23.390625 74.21875 37.203125 74.21875 
Q 40.921875 74.21875 44.703125 73.484375 
Q 48.484375 72.75 52.59375 71.296875 
" id="DejaVuSans-36"/>
      </defs>
      <g transform="translate(262.32825 322.182437)scale(0.1 -0.1)">
       <use xlink:href="#DejaVuSans-36"/>
       <use x="63.623047" xlink:href="#DejaVuSans-30"/>
       <use x="127.246094" xlink:href="#DejaVuSans-30"/>
      </g>
     </g>
    </g>
    <g id="xtick_5">
     <g id="line2d_9">
      <path clip-path="url(#pa99b55982f)" d="M 343.296 307.584 
L 343.296 41.472 
" style="fill:none;stroke:#b0b0b0;stroke-linecap:square;stroke-width:0.8;"/>
     </g>
     <g id="line2d_10">
      <g>
       <use style="stroke:#000000;stroke-width:0.8;" x="343.296" xlink:href="#m5aa946ae3d" y="307.584"/>
      </g>
     </g>
     <g id="text_5">
      <!-- 800 -->
      <defs>
       <path d="M 31.78125 34.625 
Q 24.75 34.625 20.71875 30.859375 
Q 16.703125 27.09375 16.703125 20.515625 
Q 16.703125 13.921875 20.71875 10.15625 
Q 24.75 6.390625 31.78125 6.390625 
Q 38.8125 6.390625 42.859375 10.171875 
Q 46.921875 13.96875 46.921875 20.515625 
Q 46.921875 27.09375 42.890625 30.859375 
Q 38.875 34.625 31.78125 34.625 
M 21.921875 38.8125 
Q 15.578125 40.375 12.03125 44.71875 
Q 8.5 49.078125 8.5 55.328125 
Q 8.5 64.0625 14.71875 69.140625 
Q 20.953125 74.21875 31.78125 74.21875 
Q 42.671875 74.21875 48.875 69.140625 
Q 55.078125 64.0625 55.078125 55.328125 
Q 55.078125 49.078125 51.53125 44.71875 
Q 48 40.375 41.703125 38.8125 
Q 48.828125 37.15625 52.796875 32.3125 
Q 56.78125 27.484375 56.78125 20.515625 
Q 56.78125 9.90625 50.3125 4.234375 
Q 43.84375 -1.421875 31.78125 -1.421875 
Q 19.734375 -1.421875 13.25 4.234375 
Q 6.78125 9.90625 6.78125 20.515625 
Q 6.78125 27.484375 10.78125 32.3125 
Q 14.796875 37.15625 21.921875 38.8125 
M 18.3125 54.390625 
Q 18.3125 48.734375 21.84375 45.5625 
Q 25.390625 42.390625 31.78125 42.390625 
Q 38.140625 42.390625 41.71875 45.5625 
Q 45.3125 48.734375 45.3125 54.390625 
Q 45.3125 60.0625 41.71875 63.234375 
Q 38.140625 66.40625 31.78125 66.40625 
Q 25.390625 66.40625 21.84375 63.234375 
Q 18.3125 60.0625 18.3125 54.390625 
" id="DejaVuSans-38"/>
      </defs>
      <g transform="translate(333.75225 322.182437)scale(0.1 -0.1)">
       <use xlink:href="#DejaVuSans-38"/>
       <use x="63.623047" xlink:href="#DejaVuSans-30"/>
       <use x="127.246094" xlink:href="#DejaVuSans-30"/>
      </g>
     </g>
    </g>
    <g id="xtick_6">
     <g id="line2d_11">
      <path clip-path="url(#pa99b55982f)" d="M 414.72 307.584 
L 414.72 41.472 
" style="fill:none;stroke:#b0b0b0;stroke-linecap:square;stroke-width:0.8;"/>
     </g>
     <g id="line2d_12">
      <g>
       <use style="stroke:#000000;stroke-width:0.8;" x="414.72" xlink:href="#m5aa946ae3d" y="307.584"/>
      </g>
     </g>
     <g id="text_6">
      <!-- 1000 -->
      <defs>
       <path d="M 12.40625 8.296875 
L 28.515625 8.296875 
L 28.515625 63.921875 
L 10.984375 60.40625 
L 10.984375 69.390625 
L 28.421875 72.90625 
L 38.28125 72.90625 
L 38.28125 8.296875 
L 54.390625 8.296875 
L 54.390625 0 
L 12.40625 0 
z
" id="DejaVuSans-31"/>
      </defs>
      <g transform="translate(401.995 322.182437)scale(0.1 -0.1)">
       <use xlink:href="#DejaVuSans-31"/>
       <use x="63.623047" xlink:href="#DejaVuSans-30"/>
       <use x="127.246094" xlink:href="#DejaVuSans-30"/>
       <use x="190.869141" xlink:href="#DejaVuSans-30"/>
      </g>
     </g>
    </g>
    <g id="text_7">
     <!-- Number of clients -->
     <defs>
      <path d="M 9.8125 72.90625 
L 23.09375 72.90625 
L 55.421875 11.921875 
L 55.421875 72.90625 
L 64.984375 72.90625 
L 64.984375 0 
L 51.703125 0 
L 19.390625 60.984375 
L 19.390625 0 
L 9.8125 0 
z
" id="DejaVuSans-4e"/>
      <path d="M 8.5 21.578125 
L 8.5 54.6875 
L 17.484375 54.6875 
L 17.484375 21.921875 
Q 17.484375 14.15625 20.5 10.265625 
Q 23.53125 6.390625 29.59375 6.390625 
Q 36.859375 6.390625 41.078125 11.03125 
Q 45.3125 15.671875 45.3125 23.6875 
L 45.3125 54.6875 
L 54.296875 54.6875 
L 54.296875 0 
L 45.3125 0 
L 45.3125 8.40625 
Q 42.046875 3.421875 37.71875 1 
Q 33.40625 -1.421875 27.6875 -1.421875 
Q 18.265625 -1.421875 13.375 4.4375 
Q 8.5 10.296875 8.5 21.578125 
M 31.109375 56 
z
" id="DejaVuSans-75"/>
      <path d="M 52 44.1875 
Q 55.375 50.25 60.0625 53.125 
Q 64.75 56 71.09375 56 
Q 79.640625 56 84.28125 50.015625 
Q 88.921875 44.046875 88.921875 33.015625 
L 88.921875 0 
L 79.890625 0 
L 79.890625 32.71875 
Q 79.890625 40.578125 77.09375 44.375 
Q 74.3125 48.1875 68.609375 48.1875 
Q 61.625 48.1875 57.5625 43.546875 
Q 53.515625 38.921875 53.515625 30.90625 
L 53.515625 0 
L 44.484375 0 
L 44.484375 32.71875 
Q 44.484375 40.625 41.703125 44.40625 
Q 38.921875 48.1875 33.109375 48.1875 
Q 26.21875 48.1875 22.15625 43.53125 
Q 18.109375 38.875 18.109375 30.90625 
L 18.109375 0 
L 9.078125 0 
L 9.078125 54.6875 
L 18.109375 54.6875 
L 18.109375 46.1875 
Q 21.1875 51.21875 25.484375 53.609375 
Q 29.78125 56 35.6875 56 
Q 41.65625 56 45.828125 52.96875 
Q 50 49.953125 52 44.1875 
" id="DejaVuSans-6d"/>
      <path d="M 48.6875 27.296875 
Q 48.6875 37.203125 44.609375 42.84375 
Q 40.53125 48.484375 33.40625 48.484375 
Q 26.265625 48.484375 22.1875 42.84375 
Q 18.109375 37.203125 18.109375 27.296875 
Q 18.109375 17.390625 22.1875 11.75 
Q 26.265625 6.109375 33.40625 6.109375 
Q 40.53125 6.109375 44.609375 11.75 
Q 48.6875 17.390625 48.6875 27.296875 
M 18.109375 46.390625 
Q 20.953125 51.265625 25.265625 53.625 
Q 29.59375 56 35.59375 56 
Q 45.5625 56 51.78125 48.09375 
Q 58.015625 40.1875 58.015625 27.296875 
Q 58.015625 14.40625 51.78125 6.484375 
Q 45.5625 -1.421875 35.59375 -1.421875 
Q 29.59375 -1.421875 25.265625 0.953125 
Q 20.953125 3.328125 18.109375 8.203125 
L 18.109375 0 
L 9.078125 0 
L 9.078125 75.984375 
L 18.109375 75.984375 
z
" id="DejaVuSans-62"/>
      <path d="M 56.203125 29.59375 
L 56.203125 25.203125 
L 14.890625 25.203125 
Q 15.484375 15.921875 20.484375 11.0625 
Q 25.484375 6.203125 34.421875 6.203125 
Q 39.59375 6.203125 44.453125 7.46875 
Q 49.3125 8.734375 54.109375 11.28125 
L 54.109375 2.78125 
Q 49.265625 0.734375 44.1875 -0.34375 
Q 39.109375 -1.421875 33.890625 -1.421875 
Q 20.796875 -1.421875 13.15625 6.1875 
Q 5.515625 13.8125 5.515625 26.8125 
Q 5.515625 40.234375 12.765625 48.109375 
Q 20.015625 56 32.328125 56 
Q 43.359375 56 49.78125 48.890625 
Q 56.203125 41.796875 56.203125 29.59375 
M 47.21875 32.234375 
Q 47.125 39.59375 43.09375 43.984375 
Q 39.0625 48.390625 32.421875 48.390625 
Q 24.90625 48.390625 20.390625 44.140625 
Q 15.875 39.890625 15.1875 32.171875 
z
" id="DejaVuSans-65"/>
      <path d="M 41.109375 46.296875 
Q 39.59375 47.171875 37.8125 47.578125 
Q 36.03125 48 33.890625 48 
Q 26.265625 48 22.1875 43.046875 
Q 18.109375 38.09375 18.109375 28.8125 
L 18.109375 0 
L 9.078125 0 
L 9.078125 54.6875 
L 18.109375 54.6875 
L 18.109375 46.1875 
Q 20.953125 51.171875 25.484375 53.578125 
Q 30.03125 56 36.53125 56 
Q 37.453125 56 38.578125 55.875 
Q 39.703125 55.765625 41.0625 55.515625 
z
" id="DejaVuSans-72"/>
      <path id="DejaVuSans-20"/>
      <path d="M 30.609375 48.390625 
Q 23.390625 48.390625 19.1875 42.75 
Q 14.984375 37.109375 14.984375 27.296875 
Q 14.984375 17.484375 19.15625 11.84375 
Q 23.34375 6.203125 30.609375 6.203125 
Q 37.796875 6.203125 41.984375 11.859375 
Q 46.1875 17.53125 46.1875 27.296875 
Q 46.1875 37.015625 41.984375 42.703125 
Q 37.796875 48.390625 30.609375 48.390625 
M 30.609375 56 
Q 42.328125 56 49.015625 48.375 
Q 55.71875 40.765625 55.71875 27.296875 
Q 55.71875 13.875 49.015625 6.21875 
Q 42.328125 -1.421875 30.609375 -1.421875 
Q 18.84375 -1.421875 12.171875 6.21875 
Q 5.515625 13.875 5.515625 27.296875 
Q 5.515625 40.765625 12.171875 48.375 
Q 18.84375 56 30.609375 56 
" id="DejaVuSans-6f"/>
      <path d="M 37.109375 75.984375 
L 37.109375 68.5 
L 28.515625 68.5 
Q 23.6875 68.5 21.796875 66.546875 
Q 19.921875 64.59375 19.921875 59.515625 
L 19.921875 54.6875 
L 34.71875 54.6875 
L 34.71875 47.703125 
L 19.921875 47.703125 
L 19.921875 0 
L 10.890625 0 
L 10.890625 47.703125 
L 2.296875 47.703125 
L 2.296875 54.6875 
L 10.890625 54.6875 
L 10.890625 58.5 
Q 10.890625 67.625 15.140625 71.796875 
Q 19.390625 75.984375 28.609375 75.984375 
z
" id="DejaVuSans-66"/>
      <path d="M 48.78125 52.59375 
L 48.78125 44.1875 
Q 44.96875 46.296875 41.140625 47.34375 
Q 37.3125 48.390625 33.40625 48.390625 
Q 24.65625 48.390625 19.8125 42.84375 
Q 14.984375 37.3125 14.984375 27.296875 
Q 14.984375 17.28125 19.8125 11.734375 
Q 24.65625 6.203125 33.40625 6.203125 
Q 37.3125 6.203125 41.140625 7.25 
Q 44.96875 8.296875 48.78125 10.40625 
L 48.78125 2.09375 
Q 45.015625 0.34375 40.984375 -0.53125 
Q 36.96875 -1.421875 32.421875 -1.421875 
Q 20.0625 -1.421875 12.78125 6.34375 
Q 5.515625 14.109375 5.515625 27.296875 
Q 5.515625 40.671875 12.859375 48.328125 
Q 20.21875 56 33.015625 56 
Q 37.15625 56 41.109375 55.140625 
Q 45.0625 54.296875 48.78125 52.59375 
" id="DejaVuSans-63"/>
      <path d="M 9.421875 75.984375 
L 18.40625 75.984375 
L 18.40625 0 
L 9.421875 0 
z
" id="DejaVuSans-6c"/>
      <path d="M 9.421875 54.6875 
L 18.40625 54.6875 
L 18.40625 0 
L 9.421875 0 
z
M 9.421875 75.984375 
L 18.40625 75.984375 
L 18.40625 64.59375 
L 9.421875 64.59375 
z
" id="DejaVuSans-69"/>
      <path d="M 54.890625 33.015625 
L 54.890625 0 
L 45.90625 0 
L 45.90625 32.71875 
Q 45.90625 40.484375 42.875 44.328125 
Q 39.84375 48.1875 33.796875 48.1875 
Q 26.515625 48.1875 22.3125 43.546875 
Q 18.109375 38.921875 18.109375 30.90625 
L 18.109375 0 
L 9.078125 0 
L 9.078125 54.6875 
L 18.109375 54.6875 
L 18.109375 46.1875 
Q 21.34375 51.125 25.703125 53.5625 
Q 30.078125 56 35.796875 56 
Q 45.21875 56 50.046875 50.171875 
Q 54.890625 44.34375 54.890625 33.015625 
" id="DejaVuSans-6e"/>
      <path d="M 18.3125 70.21875 
L 18.3125 54.6875 
L 36.8125 54.6875 
L 36.8125 47.703125 
L 18.3125 47.703125 
L 18.3125 18.015625 
Q 18.3125 11.328125 20.140625 9.421875 
Q 21.96875 7.515625 27.59375 7.515625 
L 36.8125 7.515625 
L 36.8125 0 
L 27.59375 0 
Q 17.1875 0 13.234375 3.875 
Q 9.28125 7.765625 9.28125 18.015625 
L 9.28125 47.703125 
L 2.6875 47.703125 
L 2.6875 54.6875 
L 9.28125 54.6875 
L 9.28125 70.21875 
z
" id="DejaVuSans-74"/>
      <path d="M 44.28125 53.078125 
L 44.28125 44.578125 
Q 40.484375 46.53125 36.375 47.5 
Q 32.28125 48.484375 27.875 48.484375 
Q 21.1875 48.484375 17.84375 46.4375 
Q 14.5 44.390625 14.5 40.28125 
Q 14.5 37.15625 16.890625 35.375 
Q 19.28125 33.59375 26.515625 31.984375 
L 29.59375 31.296875 
Q 39.15625 29.25 43.1875 25.515625 
Q 47.21875 21.78125 47.21875 15.09375 
Q 47.21875 7.46875 41.1875 3.015625 
Q 35.15625 -1.421875 24.609375 -1.421875 
Q 20.21875 -1.421875 15.453125 -0.5625 
Q 10.6875 0.296875 5.421875 2 
L 5.421875 11.28125 
Q 10.40625 8.6875 15.234375 7.390625 
Q 20.0625 6.109375 24.8125 6.109375 
Q 31.15625 6.109375 34.5625 8.28125 
Q 37.984375 10.453125 37.984375 14.40625 
Q 37.984375 18.0625 35.515625 20.015625 
Q 33.0625 21.96875 24.703125 23.78125 
L 21.578125 24.515625 
Q 13.234375 26.265625 9.515625 29.90625 
Q 5.8125 33.546875 5.8125 39.890625 
Q 5.8125 47.609375 11.28125 51.796875 
Q 16.75 56 26.8125 56 
Q 31.78125 56 36.171875 55.265625 
Q 40.578125 54.546875 44.28125 53.078125 
" id="DejaVuSans-73"/>
     </defs>
     <g transform="translate(191.738906 335.860562)scale(0.1 -0.1)">
      <use xlink:href="#DejaVuSans-4e"/>
      <use x="74.804688" xlink:href="#DejaVuSans-75"/>
      <use x="138.183594" xlink:href="#DejaVuSans-6d"/>
      <use x="235.595703" xlink:href="#DejaVuSans-62"/>
      <use x="299.072266" xlink:href="#DejaVuSans-65"/>
      <use x="360.595703" xlink:href="#DejaVuSans-72"/>
      <use x="401.708984" xlink:href="#DejaVuSans-20"/>
      <use x="433.496094" xlink:href="#DejaVuSans-6f"/>
      <use x="494.677734" xlink:href="#DejaVuSans-66"/>
      <use x="529.882812" xlink:href="#DejaVuSans-20"/>
      <use x="561.669922" xlink:href="#DejaVuSans-63"/>
      <use x="616.650391" xlink:href="#DejaVuSans-6c"/>
      <use x="644.433594" xlink:href="#DejaVuSans-69"/>
      <use x="672.216797" xlink:href="#DejaVuSans-65"/>
      <use x="733.740234" xlink:href="#DejaVuSans-6e"/>
      <use x="797.119141" xlink:href="#DejaVuSans-74"/>
      <use x="836.328125" xlink:href="#DejaVuSans-73"/>
     </g>
    </g>
   </g>
   <g id="matplotlib.axis_2">
    <g id="ytick_1">
     <g id="line2d_13">
      <path clip-path="url(#pa99b55982f)" d="M 57.6 295.82204 
L 414.72 295.82204 
" style="fill:none;stroke:#b0b0b0;stroke-linecap:square;stroke-width:0.8;"/>
     </g>
     <g id="line2d_14">
      <defs>
       <path d="M 0 0 
L -3.5 0 
" id="mf5121002cf" style="stroke:#000000;stroke-width:0.8;"/>
      </defs>
      <g>
       <use style="stroke:#000000;stroke-width:0.8;" x="57.6" xlink:href="#mf5121002cf" y="295.82204"/>
      </g>
     </g>
     <g id="text_8">
      <!-- 0 -->
      <g transform="translate(44.2375 299.621259)scale(0.1 -0.1)">
       <use xlink:href="#DejaVuSans-30"/>
      </g>
     </g>
    </g>
    <g id="ytick_2">
     <g id="line2d_15">
      <path clip-path="url(#pa99b55982f)" d="M 57.6 261.491077 
L 414.72 261.491077 
" style="fill:none;stroke:#b0b0b0;stroke-linecap:square;stroke-width:0.8;"/>
     </g>
     <g id="line2d_16">
      <g>
       <use style="stroke:#000000;stroke-width:0.8;" x="57.6" xlink:href="#mf5121002cf" y="261.491077"/>
      </g>
     </g>
     <g id="text_9">
      <!-- 100 -->
      <g transform="translate(31.5125 265.290296)scale(0.1 -0.1)">
       <use xlink:href="#DejaVuSans-31"/>
       <use x="63.623047" xlink:href="#DejaVuSans-30"/>
       <use x="127.246094" xlink:href="#DejaVuSans-30"/>
      </g>
     </g>
    </g>
    <g id="ytick_3">
     <g id="line2d_17">
      <path clip-path="url(#pa99b55982f)" d="M 57.6 227.160113 
L 414.72 227.160113 
" style="fill:none;stroke:#b0b0b0;stroke-linecap:square;stroke-width:0.8;"/>
     </g>
     <g id="line2d_18">
      <g>
       <use style="stroke:#000000;stroke-width:0.8;" x="57.6" xlink:href="#mf5121002cf" y="227.160113"/>
      </g>
     </g>
     <g id="text_10">
      <!-- 200 -->
      <g transform="translate(31.5125 230.959332)scale(0.1 -0.1)">
       <use xlink:href="#DejaVuSans-32"/>
       <use x="63.623047" xlink:href="#DejaVuSans-30"/>
       <use x="127.246094" xlink:href="#DejaVuSans-30"/>
      </g>
     </g>
    </g>
    <g id="ytick_4">
     <g id="line2d_19">
      <path clip-path="url(#pa99b55982f)" d="M 57.6 192.82915 
L 414.72 192.82915 
" style="fill:none;stroke:#b0b0b0;stroke-linecap:square;stroke-width:0.8;"/>
     </g>
     <g id="line2d_20">
      <g>
       <use style="stroke:#000000;stroke-width:0.8;" x="57.6" xlink:href="#mf5121002cf" y="192.82915"/>
      </g>
     </g>
     <g id="text_11">
      <!-- 300 -->
      <defs>
       <path d="M 40.578125 39.3125 
Q 47.65625 37.796875 51.625 33 
Q 55.609375 28.21875 55.609375 21.1875 
Q 55.609375 10.40625 48.1875 4.484375 
Q 40.765625 -1.421875 27.09375 -1.421875 
Q 22.515625 -1.421875 17.65625 -0.515625 
Q 12.796875 0.390625 7.625 2.203125 
L 7.625 11.71875 
Q 11.71875 9.328125 16.59375 8.109375 
Q 21.484375 6.890625 26.8125 6.890625 
Q 36.078125 6.890625 40.9375 10.546875 
Q 45.796875 14.203125 45.796875 21.1875 
Q 45.796875 27.640625 41.28125 31.265625 
Q 36.765625 34.90625 28.71875 34.90625 
L 20.21875 34.90625 
L 20.21875 43.015625 
L 29.109375 43.015625 
Q 36.375 43.015625 40.234375 45.921875 
Q 44.09375 48.828125 44.09375 54.296875 
Q 44.09375 59.90625 40.109375 62.90625 
Q 36.140625 65.921875 28.71875 65.921875 
Q 24.65625 65.921875 20.015625 65.03125 
Q 15.375 64.15625 9.8125 62.3125 
L 9.8125 71.09375 
Q 15.4375 72.65625 20.34375 73.4375 
Q 25.25 74.21875 29.59375 74.21875 
Q 40.828125 74.21875 47.359375 69.109375 
Q 53.90625 64.015625 53.90625 55.328125 
Q 53.90625 49.265625 50.4375 45.09375 
Q 46.96875 40.921875 40.578125 39.3125 
" id="DejaVuSans-33"/>
      </defs>
      <g transform="translate(31.5125 196.628369)scale(0.1 -0.1)">
       <use xlink:href="#DejaVuSans-33"/>
       <use x="63.623047" xlink:href="#DejaVuSans-30"/>
       <use x="127.246094" xlink:href="#DejaVuSans-30"/>
      </g>
     </g>
    </g>
    <g id="ytick_5">
     <g id="line2d_21">
      <path clip-path="url(#pa99b55982f)" d="M 57.6 158.498187 
L 414.72 158.498187 
" style="fill:none;stroke:#b0b0b0;stroke-linecap:square;stroke-width:0.8;"/>
     </g>
     <g id="line2d_22">
      <g>
       <use style="stroke:#000000;stroke-width:0.8;" x="57.6" xlink:href="#mf5121002cf" y="158.498187"/>
      </g>
     </g>
     <g id="text_12">
      <!-- 400 -->
      <g transform="translate(31.5125 162.297405)scale(0.1 -0.1)">
       <use xlink:href="#DejaVuSans-34"/>
       <use x="63.623047" xlink:href="#DejaVuSans-30"/>
       <use x="127.246094" xlink:href="#DejaVuSans-30"/>
      </g>
     </g>
    </g>
    <g id="ytick_6">
     <g id="line2d_23">
      <path clip-path="url(#pa99b55982f)" d="M 57.6 124.167223 
L 414.72 124.167223 
" style="fill:none;stroke:#b0b0b0;stroke-linecap:square;stroke-width:0.8;"/>
     </g>
     <g id="line2d_24">
      <g>
       <use style="stroke:#000000;stroke-width:0.8;" x="57.6" xlink:href="#mf5121002cf" y="124.167223"/>
      </g>
     </g>
     <g id="text_13">
      <!-- 500 -->
      <defs>
       <path d="M 10.796875 72.90625 
L 49.515625 72.90625 
L 49.515625 64.59375 
L 19.828125 64.59375 
L 19.828125 46.734375 
Q 21.96875 47.46875 24.109375 47.828125 
Q 26.265625 48.1875 28.421875 48.1875 
Q 40.625 48.1875 47.75 41.5 
Q 54.890625 34.8125 54.890625 23.390625 
Q 54.890625 11.625 47.5625 5.09375 
Q 40.234375 -1.421875 26.90625 -1.421875 
Q 22.3125 -1.421875 17.546875 -0.640625 
Q 12.796875 0.140625 7.71875 1.703125 
L 7.71875 11.625 
Q 12.109375 9.234375 16.796875 8.0625 
Q 21.484375 6.890625 26.703125 6.890625 
Q 35.15625 6.890625 40.078125 11.328125 
Q 45.015625 15.765625 45.015625 23.390625 
Q 45.015625 31 40.078125 35.4375 
Q 35.15625 39.890625 26.703125 39.890625 
Q 22.75 39.890625 18.8125 39.015625 
Q 14.890625 38.140625 10.796875 36.28125 
z
" id="DejaVuSans-35"/>
      </defs>
      <g transform="translate(31.5125 127.966442)scale(0.1 -0.1)">
       <use xlink:href="#DejaVuSans-35"/>
       <use x="63.623047" xlink:href="#DejaVuSans-30"/>
       <use x="127.246094" xlink:href="#DejaVuSans-30"/>
      </g>
     </g>
    </g>
    <g id="ytick_7">
     <g id="line2d_25">
      <path clip-path="url(#pa99b55982f)" d="M 57.6 89.83626 
L 414.72 89.83626 
" style="fill:none;stroke:#b0b0b0;stroke-linecap:square;stroke-width:0.8;"/>
     </g>
     <g id="line2d_26">
      <g>
       <use style="stroke:#000000;stroke-width:0.8;" x="57.6" xlink:href="#mf5121002cf" y="89.83626"/>
      </g>
     </g>
     <g id="text_14">
      <!-- 600 -->
      <g transform="translate(31.5125 93.635478)scale(0.1 -0.1)">
       <use xlink:href="#DejaVuSans-36"/>
       <use x="63.623047" xlink:href="#DejaVuSans-30"/>
       <use x="127.246094" xlink:href="#DejaVuSans-30"/>
      </g>
     </g>
    </g>
    <g id="ytick_8">
     <g id="line2d_27">
      <path clip-path="url(#pa99b55982f)" d="M 57.6 55.505296 
L 414.72 55.505296 
" style="fill:none;stroke:#b0b0b0;stroke-linecap:square;stroke-width:0.8;"/>
     </g>
     <g id="line2d_28">
      <g>
       <use style="stroke:#000000;stroke-width:0.8;" x="57.6" xlink:href="#mf5121002cf" y="55.505296"/>
      </g>
     </g>
     <g id="text_15">
      <!-- 700 -->
      <defs>
       <path d="M 8.203125 72.90625 
L 55.078125 72.90625 
L 55.078125 68.703125 
L 28.609375 0 
L 18.3125 0 
L 43.21875 64.59375 
L 8.203125 64.59375 
z
" id="DejaVuSans-37"/>
      </defs>
      <g transform="translate(31.5125 59.304515)scale(0.1 -0.1)">
       <use xlink:href="#DejaVuSans-37"/>
       <use x="63.623047" xlink:href="#DejaVuSans-30"/>
       <use x="127.246094" xlink:href="#DejaVuSans-30"/>
      </g>
     </g>
    </g>
    <g id="text_16">
     <!-- Successful download requests per second -->
     <defs>
      <path d="M 53.515625 70.515625 
L 53.515625 60.890625 
Q 47.90625 63.578125 42.921875 64.890625 
Q 37.9375 66.21875 33.296875 66.21875 
Q 25.25 66.21875 20.875 63.09375 
Q 16.5 59.96875 16.5 54.203125 
Q 16.5 49.359375 19.40625 46.890625 
Q 22.3125 44.4375 30.421875 42.921875 
L 36.375 41.703125 
Q 47.40625 39.59375 52.65625 34.296875 
Q 57.90625 29 57.90625 20.125 
Q 57.90625 9.515625 50.796875 4.046875 
Q 43.703125 -1.421875 29.984375 -1.421875 
Q 24.8125 -1.421875 18.96875 -0.25 
Q 13.140625 0.921875 6.890625 3.21875 
L 6.890625 13.375 
Q 12.890625 10.015625 18.65625 8.296875 
Q 24.421875 6.59375 29.984375 6.59375 
Q 38.421875 6.59375 43.015625 9.90625 
Q 47.609375 13.234375 47.609375 19.390625 
Q 47.609375 24.75 44.3125 27.78125 
Q 41.015625 30.8125 33.5 32.328125 
L 27.484375 33.5 
Q 16.453125 35.6875 11.515625 40.375 
Q 6.59375 45.0625 6.59375 53.421875 
Q 6.59375 63.09375 13.40625 68.65625 
Q 20.21875 74.21875 32.171875 74.21875 
Q 37.3125 74.21875 42.625 73.28125 
Q 47.953125 72.359375 53.515625 70.515625 
" id="DejaVuSans-53"/>
      <path d="M 45.40625 46.390625 
L 45.40625 75.984375 
L 54.390625 75.984375 
L 54.390625 0 
L 45.40625 0 
L 45.40625 8.203125 
Q 42.578125 3.328125 38.25 0.953125 
Q 33.9375 -1.421875 27.875 -1.421875 
Q 17.96875 -1.421875 11.734375 6.484375 
Q 5.515625 14.40625 5.515625 27.296875 
Q 5.515625 40.1875 11.734375 48.09375 
Q 17.96875 56 27.875 56 
Q 33.9375 56 38.25 53.625 
Q 42.578125 51.265625 45.40625 46.390625 
M 14.796875 27.296875 
Q 14.796875 17.390625 18.875 11.75 
Q 22.953125 6.109375 30.078125 6.109375 
Q 37.203125 6.109375 41.296875 11.75 
Q 45.40625 17.390625 45.40625 27.296875 
Q 45.40625 37.203125 41.296875 42.84375 
Q 37.203125 48.484375 30.078125 48.484375 
Q 22.953125 48.484375 18.875 42.84375 
Q 14.796875 37.203125 14.796875 27.296875 
" id="DejaVuSans-64"/>
      <path d="M 4.203125 54.6875 
L 13.1875 54.6875 
L 24.421875 12.015625 
L 35.59375 54.6875 
L 46.1875 54.6875 
L 57.421875 12.015625 
L 68.609375 54.6875 
L 77.59375 54.6875 
L 63.28125 0 
L 52.6875 0 
L 40.921875 44.828125 
L 29.109375 0 
L 18.5 0 
z
" id="DejaVuSans-77"/>
      <path d="M 34.28125 27.484375 
Q 23.390625 27.484375 19.1875 25 
Q 14.984375 22.515625 14.984375 16.5 
Q 14.984375 11.71875 18.140625 8.90625 
Q 21.296875 6.109375 26.703125 6.109375 
Q 34.1875 6.109375 38.703125 11.40625 
Q 43.21875 16.703125 43.21875 25.484375 
L 43.21875 27.484375 
z
M 52.203125 31.203125 
L 52.203125 0 
L 43.21875 0 
L 43.21875 8.296875 
Q 40.140625 3.328125 35.546875 0.953125 
Q 30.953125 -1.421875 24.3125 -1.421875 
Q 15.921875 -1.421875 10.953125 3.296875 
Q 6 8.015625 6 15.921875 
Q 6 25.140625 12.171875 29.828125 
Q 18.359375 34.515625 30.609375 34.515625 
L 43.21875 34.515625 
L 43.21875 35.40625 
Q 43.21875 41.609375 39.140625 45 
Q 35.0625 48.390625 27.6875 48.390625 
Q 23 48.390625 18.546875 47.265625 
Q 14.109375 46.140625 10.015625 43.890625 
L 10.015625 52.203125 
Q 14.9375 54.109375 19.578125 55.046875 
Q 24.21875 56 28.609375 56 
Q 40.484375 56 46.34375 49.84375 
Q 52.203125 43.703125 52.203125 31.203125 
" id="DejaVuSans-61"/>
      <path d="M 14.796875 27.296875 
Q 14.796875 17.390625 18.875 11.75 
Q 22.953125 6.109375 30.078125 6.109375 
Q 37.203125 6.109375 41.296875 11.75 
Q 45.40625 17.390625 45.40625 27.296875 
Q 45.40625 37.203125 41.296875 42.84375 
Q 37.203125 48.484375 30.078125 48.484375 
Q 22.953125 48.484375 18.875 42.84375 
Q 14.796875 37.203125 14.796875 27.296875 
M 45.40625 8.203125 
Q 42.578125 3.328125 38.25 0.953125 
Q 33.9375 -1.421875 27.875 -1.421875 
Q 17.96875 -1.421875 11.734375 6.484375 
Q 5.515625 14.40625 5.515625 27.296875 
Q 5.515625 40.1875 11.734375 48.09375 
Q 17.96875 56 27.875 56 
Q 33.9375 56 38.25 53.625 
Q 42.578125 51.265625 45.40625 46.390625 
L 45.40625 54.6875 
L 54.390625 54.6875 
L 54.390625 -20.796875 
L 45.40625 -20.796875 
z
" id="DejaVuSans-71"/>
      <path d="M 18.109375 8.203125 
L 18.109375 -20.796875 
L 9.078125 -20.796875 
L 9.078125 54.6875 
L 18.109375 54.6875 
L 18.109375 46.390625 
Q 20.953125 51.265625 25.265625 53.625 
Q 29.59375 56 35.59375 56 
Q 45.5625 56 51.78125 48.09375 
Q 58.015625 40.1875 58.015625 27.296875 
Q 58.015625 14.40625 51.78125 6.484375 
Q 45.5625 -1.421875 35.59375 -1.421875 
Q 29.59375 -1.421875 25.265625 0.953125 
Q 20.953125 3.328125 18.109375 8.203125 
M 48.6875 27.296875 
Q 48.6875 37.203125 44.609375 42.84375 
Q 40.53125 48.484375 33.40625 48.484375 
Q 26.265625 48.484375 22.1875 42.84375 
Q 18.109375 37.203125 18.109375 27.296875 
Q 18.109375 17.390625 22.1875 11.75 
Q 26.265625 6.109375 33.40625 6.109375 
Q 40.53125 6.109375 44.609375 11.75 
Q 48.6875 17.390625 48.6875 27.296875 
" id="DejaVuSans-70"/>
     </defs>
     <g transform="translate(25.432812 279.366281)rotate(-90)scale(0.1 -0.1)">
      <use xlink:href="#DejaVuSans-53"/>
      <use x="63.476562" xlink:href="#DejaVuSans-75"/>
      <use x="126.855469" xlink:href="#DejaVuSans-63"/>
      <use x="181.835938" xlink:href="#DejaVuSans-63"/>
      <use x="236.816406" xlink:href="#DejaVuSans-65"/>
      <use x="298.339844" xlink:href="#DejaVuSans-73"/>
      <use x="350.439453" xlink:href="#DejaVuSans-73"/>
      <use x="402.539062" xlink:href="#DejaVuSans-66"/>
      <use x="437.744141" xlink:href="#DejaVuSans-75"/>
      <use x="501.123047" xlink:href="#DejaVuSans-6c"/>
      <use x="528.90625" xlink:href="#DejaVuSans-20"/>
      <use x="560.693359" xlink:href="#DejaVuSans-64"/>
      <use x="624.169922" xlink:href="#DejaVuSans-6f"/>
      <use x="685.351562" xlink:href="#DejaVuSans-77"/>
      <use x="767.138672" xlink:href="#DejaVuSans-6e"/>
      <use x="830.517578" xlink:href="#DejaVuSans-6c"/>
      <use x="858.300781" xlink:href="#DejaVuSans-6f"/>
      <use x="919.482422" xlink:href="#DejaVuSans-61"/>
      <use x="980.761719" xlink:href="#DejaVuSans-64"/>
      <use x="1044.238281" xlink:href="#DejaVuSans-20"/>
      <use x="1076.025391" xlink:href="#DejaVuSans-72"/>
      <use x="1117.107422" xlink:href="#DejaVuSans-65"/>
      <use x="1178.630859" xlink:href="#DejaVuSans-71"/>
      <use x="1242.107422" xlink:href="#DejaVuSans-75"/>
      <use x="1305.486328" xlink:href="#DejaVuSans-65"/>
      <use x="1367.009766" xlink:href="#DejaVuSans-73"/>
      <use x="1419.109375" xlink:href="#DejaVuSans-74"/>
      <use x="1458.318359" xlink:href="#DejaVuSans-73"/>
      <use x="1510.417969" xlink:href="#DejaVuSans-20"/>
      <use x="1542.205078" xlink:href="#DejaVuSans-70"/>
      <use x="1605.681641" xlink:href="#DejaVuSans-65"/>
      <use x="1667.205078" xlink:href="#DejaVuSans-72"/>
      <use x="1708.318359" xlink:href="#DejaVuSans-20"/>
      <use x="1740.105469" xlink:href="#DejaVuSans-73"/>
      <use x="1792.205078" xlink:href="#DejaVuSans-65"/>
      <use x="1853.728516" xlink:href="#DejaVuSans-63"/>
      <use x="1908.708984" xlink:href="#DejaVuSans-6f"/>
      <use x="1969.890625" xlink:href="#DejaVuSans-6e"/>
      <use x="2033.269531" xlink:href="#DejaVuSans-64"/>
     </g>
    </g>
   </g>
   <g id="line2d_29">
    <path clip-path="url(#pa99b55982f)" d="M 57.6 295.484224 
L 57.95712 295.488 
L 61.1712 292.39993 
L 61.52832 292.15309 
L 62.24256 291.392316 
L 62.59968 291.216885 
L 62.9568 290.805257 
L 63.31392 290.594121 
L 63.67104 290.076754 
L 64.02816 290.054782 
L 64.7424 289.141921 
L 65.09952 288.755698 
L 65.45664 288.711754 
L 65.81376 288.474184 
L 66.17088 287.838031 
L 66.528 287.837001 
L 66.88512 287.071078 
L 67.24224 286.685541 
L 67.59936 286.465136 
L 67.95648 285.987936 
L 68.3136 285.910005 
L 69.02784 285.243641 
L 69.38496 284.605428 
L 69.74208 284.308122 
L 70.0992 284.374037 
L 70.45632 283.524346 
L 70.81344 283.496538 
L 71.52768 282.548317 
L 71.8848 282.812665 
L 72.59904 282.199514 
L 72.95616 281.083414 
L 73.31328 281.738792 
L 73.6704 281.269488 
L 74.02752 280.274234 
L 74.38464 280.765166 
L 74.74176 279.69507 
L 75.09888 279.391928 
L 75.456 279.522729 
L 75.81312 278.662395 
L 76.52736 278.520608 
L 76.88448 277.528443 
L 77.2416 277.367088 
L 77.59872 277.850811 
L 77.95584 277.127457 
L 78.31296 276.89538 
L 78.67008 276.308321 
L 79.0272 275.341561 
L 79.38432 274.997564 
L 79.74144 275.995566 
L 80.8128 273.622609 
L 81.16992 274.660778 
L 81.88416 272.797293 
L 82.24128 273.269687 
L 82.5984 271.865894 
L 82.95552 272.609159 
L 83.31264 272.290568 
L 83.66976 272.463939 
L 84.02688 270.525613 
L 84.384 271.00556 
L 84.74112 270.314821 
L 85.09824 269.89976 
L 85.45536 270.037427 
L 85.81248 269.50358 
L 86.1696 269.303088 
L 86.52672 268.821767 
L 86.88384 267.804541 
L 87.24096 267.520967 
L 87.59808 267.832006 
L 87.9552 268.528238 
L 88.31232 266.878292 
L 88.66944 267.2858 
L 89.02656 267.480113 
L 89.38368 265.977447 
L 89.7408 266.3647 
L 90.09792 265.956505 
L 90.45504 264.449719 
L 90.81216 264.166832 
L 91.16928 264.91765 
L 91.5264 264.753205 
L 91.88352 264.285617 
L 92.24064 264.122545 
L 92.59776 262.462643 
L 92.95488 263.761383 
L 93.312 263.560204 
L 93.66912 261.390487 
L 94.38336 262.748277 
L 94.74048 261.480091 
L 95.0976 261.462582 
L 95.45472 260.473164 
L 95.81184 260.684643 
L 96.16896 261.168709 
L 96.52608 259.003799 
L 96.8832 258.113597 
L 97.24032 258.715075 
L 97.95456 257.191124 
L 98.31168 259.180603 
L 98.6688 256.949434 
L 99.02592 257.952241 
L 99.38304 256.009109 
L 99.74016 257.701968 
L 100.09728 257.318835 
L 100.4544 255.002525 
L 100.81152 255.424452 
L 101.16864 256.770569 
L 101.88288 253.501918 
L 102.24 254.142877 
L 102.59712 254.030615 
L 102.95424 252.588028 
L 103.31136 253.151743 
L 103.66848 254.225958 
L 104.0256 253.506725 
L 104.38272 253.262975 
L 104.73984 251.694736 
L 105.09696 250.91611 
L 105.45408 251.409446 
L 105.8112 251.220626 
L 106.16832 251.677914 
L 106.52544 250.039641 
L 106.88256 251.466436 
L 107.23968 248.689747 
L 107.5968 249.349932 
L 107.95392 248.326869 
L 108.31104 248.720302 
L 108.66816 248.072476 
L 109.02528 249.814773 
L 109.3824 246.404678 
L 109.73952 248.975724 
L 110.09664 245.941897 
L 110.45376 247.697582 
L 110.81088 244.740656 
L 111.168 244.484204 
L 111.52512 245.753077 
L 111.88224 245.921985 
L 112.23936 246.604828 
L 112.59648 244.543597 
L 112.9536 245.875638 
L 113.31072 245.665876 
L 113.66784 242.843184 
L 114.02496 242.596688 
L 114.7392 244.514415 
L 115.09632 240.858854 
L 115.45344 243.277471 
L 115.81056 241.918995 
L 116.16768 239.673063 
L 116.5248 241.253661 
L 116.88192 241.282155 
L 117.23904 239.424507 
L 117.59616 239.595475 
L 117.95328 240.698529 
L 118.3104 240.033195 
L 118.66752 241.098141 
L 119.02464 237.661612 
L 119.38176 240.029762 
L 120.096 239.132694 
L 120.45312 235.775812 
L 120.81024 238.901646 
L 121.16736 235.992097 
L 121.52448 234.984827 
L 121.8816 236.024711 
L 122.23872 234.709492 
L 122.59584 235.972528 
L 122.95296 233.994722 
L 123.31008 234.333225 
L 123.6672 233.336597 
L 124.02432 234.550197 
L 124.38144 233.901685 
L 124.73856 234.952899 
L 125.09568 231.209107 
L 125.4528 230.780314 
L 125.80992 233.19687 
L 126.16704 231.281546 
L 126.52416 230.523518 
L 126.88128 231.607003 
L 127.2384 231.069724 
L 127.59552 232.90437 
L 127.95264 230.429451 
L 128.30976 232.357478 
L 128.66688 230.253333 
L 129.024 230.313069 
L 129.38112 228.381952 
L 129.73824 229.96873 
L 130.09536 228.584162 
L 130.45248 229.924443 
L 130.8096 225.546901 
L 131.16672 230.001344 
L 131.52384 228.462973 
L 131.88096 225.108495 
L 132.23808 228.043106 
L 132.5952 227.64315 
L 132.95232 226.187861 
L 133.30944 226.18889 
L 133.66656 223.623681 
L 134.02368 225.86103 
L 134.3808 222.398065 
L 134.73792 226.691839 
L 135.09504 221.454307 
L 135.45216 222.547062 
L 135.80928 224.684508 
L 136.1664 222.228814 
L 136.52352 221.79899 
L 136.88064 220.092741 
L 137.23776 221.563136 
L 137.59488 220.196421 
L 137.952 222.91921 
L 138.30912 218.750057 
L 138.66624 219.172671 
L 139.02336 220.539044 
L 139.38048 218.321264 
L 139.7376 218.358684 
L 140.09472 220.497847 
L 140.45184 217.958385 
L 140.80896 216.385341 
L 141.16608 219.48577 
L 141.5232 216.070526 
L 141.88032 219.63305 
L 142.59456 217.219926 
L 142.95168 218.515234 
L 143.3088 214.241029 
L 143.66592 218.493948 
L 144.02304 215.805834 
L 144.38016 217.921994 
L 144.73728 215.426133 
L 145.0944 214.284286 
L 145.45152 212.579753 
L 145.80864 215.559681 
L 146.16576 212.475044 
L 146.52288 215.119215 
L 146.88 213.329198 
L 147.23712 215.206759 
L 147.95136 210.350987 
L 148.30848 212.961514 
L 148.6656 213.303107 
L 149.02272 208.507071 
L 149.37984 210.494147 
L 149.73696 210.89376 
L 150.09408 212.270088 
L 150.80832 206.92716 
L 151.52256 208.495742 
L 151.87968 205.48011 
L 152.2368 208.666023 
L 152.59392 208.835618 
L 152.95104 210.401454 
L 153.30816 209.785556 
L 153.66528 204.796924 
L 154.0224 208.591869 
L 154.37952 204.393878 
L 154.73664 206.991359 
L 155.45088 204.579952 
L 155.808 206.130682 
L 156.16512 201.85785 
L 156.52224 206.902785 
L 156.87936 205.552892 
L 157.23648 204.671616 
L 157.5936 202.433924 
L 157.95072 201.418414 
L 158.30784 201.929602 
L 158.66496 202.650895 
L 159.02208 200.130659 
L 159.3792 202.601802 
L 159.73632 203.443254 
L 160.09344 202.237551 
L 160.45056 199.973423 
L 160.80768 198.57787 
L 161.1648 200.220606 
L 161.52192 197.793064 
L 161.87904 201.56844 
L 162.23616 199.865624 
L 162.59328 196.012317 
L 162.9504 196.268426 
L 163.30752 197.118804 
L 163.66464 199.619128 
L 164.02176 194.86223 
L 164.37888 199.445413 
L 164.736 196.397854 
L 165.45024 199.080818 
L 165.80736 193.670602 
L 166.16448 198.104103 
L 166.5216 191.662241 
L 166.87872 197.284622 
L 167.23584 195.752775 
L 167.59296 197.151418 
L 167.95008 189.962171 
L 168.3072 194.081887 
L 168.66432 193.290558 
L 169.02144 191.918693 
L 169.37856 194.052706 
L 169.73568 190.460314 
L 170.0928 194.893814 
L 170.44992 188.156363 
L 170.80704 193.338621 
L 171.16416 194.207538 
L 171.8784 188.154646 
L 172.23552 191.837328 
L 172.59264 186.11985 
L 172.94976 190.374486 
L 173.30688 190.367277 
L 173.664 186.93315 
L 174.02112 189.622295 
L 174.37824 186.443934 
L 174.73536 185.557509 
L 175.09248 189.791203 
L 175.4496 184.306145 
L 175.80672 184.636409 
L 176.16384 184.643618 
L 176.52096 184.764807 
L 176.87808 188.629443 
L 177.2352 187.020351 
L 177.59232 183.36891 
L 177.94944 187.690835 
L 178.30656 180.408894 
L 178.66368 184.417721 
L 179.0208 179.44797 
L 179.37792 184.055529 
L 179.73504 185.264666 
L 180.09216 185.864427 
L 180.44928 184.122131 
L 180.8064 184.328117 
L 181.52064 177.602681 
L 181.87776 183.734878 
L 182.23488 176.241802 
L 182.592 176.765349 
L 182.94912 180.474123 
L 183.30624 175.002454 
L 183.66336 176.644161 
L 184.02048 176.680895 
L 184.3776 175.917717 
L 184.73472 175.973677 
L 185.09184 174.890535 
L 185.44896 173.149612 
L 185.80608 173.95433 
L 186.1632 173.078547 
L 186.52032 180.085496 
L 187.23456 171.209226 
L 187.59168 176.683298 
L 187.9488 178.662821 
L 188.30592 176.556273 
L 188.66304 169.924561 
L 189.02016 177.735199 
L 189.7344 169.508813 
L 190.44864 175.01241 
L 190.80576 173.61205 
L 191.16288 174.425694 
L 191.52 175.534241 
L 191.87712 168.282854 
L 192.23424 168.650196 
L 192.59136 174.035694 
L 192.94848 168.075839 
L 193.3056 173.090219 
L 193.66272 167.520707 
L 194.01984 165.880374 
L 194.73408 171.272051 
L 195.0912 164.397276 
L 195.44832 168.146561 
L 195.80544 165.342064 
L 196.16256 168.67869 
L 196.51968 165.948349 
L 196.8768 167.995161 
L 197.23392 162.884654 
L 197.59104 165.983023 
L 197.94816 167.729783 
L 198.30528 164.127778 
L 198.6624 164.505419 
L 199.01952 162.964302 
L 199.37664 159.766716 
L 199.73376 163.890551 
L 200.09088 160.068828 
L 200.448 163.285296 
L 200.80512 161.460262 
L 201.16224 161.666248 
L 201.51936 158.427121 
L 201.87648 162.979407 
L 202.2336 164.791739 
L 202.59072 159.794524 
L 202.94784 159.772552 
L 203.30496 159.487262 
L 203.66208 157.669094 
L 204.0192 158.819181 
L 204.37632 159.423406 
L 204.73344 157.705141 
L 205.09056 157.250943 
L 205.44768 161.760658 
L 205.8048 156.869182 
L 206.16192 162.94233 
L 206.51904 157.071392 
L 206.87616 156.397132 
L 207.5904 161.523431 
L 208.30464 153.541482 
L 208.66176 155.786384 
L 209.01888 153.468357 
L 209.376 154.685046 
L 209.73312 153.411024 
L 210.09024 154.05164 
L 210.44736 158.471752 
L 210.80448 157.872333 
L 211.1616 157.9125 
L 211.51872 157.239613 
L 211.87584 153.917749 
L 212.23296 148.584091 
L 212.59008 147.149057 
L 212.9472 148.060887 
L 213.30432 146.935518 
L 213.66144 153.745751 
L 214.01856 146.936548 
L 214.37568 146.216971 
L 214.7328 155.191771 
L 215.08992 152.021307 
L 215.44704 145.258107 
L 215.80416 146.663617 
L 216.16128 145.003715 
L 216.5184 144.129305 
L 216.87552 148.815138 
L 217.23264 143.866673 
L 217.58976 147.520861 
L 217.94688 148.765358 
L 218.304 142.273373 
L 218.66112 148.912295 
L 219.01824 147.826063 
L 219.37536 151.15651 
L 219.73248 144.301647 
L 220.0896 149.369583 
L 220.44672 149.738298 
L 220.80384 145.562966 
L 221.16096 139.587662 
L 221.51808 144.35383 
L 221.8752 143.028998 
L 222.23232 139.506298 
L 222.58944 143.064015 
L 222.94656 147.97403 
L 223.30368 145.402297 
L 223.6608 143.904781 
L 224.37504 139.536509 
L 224.73216 139.719493 
L 225.08928 139.768929 
L 225.4464 139.684819 
L 225.80352 144.185608 
L 226.16064 141.334421 
L 226.51776 143.268971 
L 226.87488 139.255682 
L 227.232 138.959749 
L 227.58912 138.812469 
L 227.94624 140.821173 
L 228.30336 134.476811 
L 228.66048 136.936625 
L 229.0176 136.72034 
L 229.37472 132.400818 
L 229.73184 138.9879 
L 230.08896 135.064214 
L 230.44608 136.964776 
L 230.8032 140.226218 
L 231.16032 140.33745 
L 231.51744 135.078977 
L 231.87456 135.839407 
L 232.23168 139.624739 
L 232.5888 138.680981 
L 232.94592 129.439772 
L 233.30304 131.276479 
L 233.66016 138.12173 
L 234.01728 137.386361 
L 234.3744 132.866689 
L 234.73152 134.969117 
L 235.08864 133.4383 
L 235.44576 127.414932 
L 235.80288 133.900051 
L 236.16 135.137682 
L 236.51712 131.372949 
L 236.87424 133.481557 
L 237.23136 127.259413 
L 237.58848 123.799195 
L 237.9456 126.540523 
L 238.30272 123.153086 
L 238.65984 122.251555 
L 239.01696 131.577905 
L 239.37408 125.896817 
L 239.7312 129.28906 
L 240.08832 126.886922 
L 240.44544 128.525196 
L 241.15968 120.509602 
L 241.5168 128.448294 
L 241.87392 126.039977 
L 242.23104 122.356608 
L 242.58816 125.929775 
L 242.94528 121.161547 
L 243.3024 126.960734 
L 243.65952 123.819107 
L 244.01664 116.677237 
L 244.37376 126.677846 
L 244.73088 119.743335 
L 245.088 127.671385 
L 245.44512 116.757915 
L 245.80224 122.217911 
L 246.15936 116.013619 
L 246.51648 122.042136 
L 246.8736 114.466666 
L 247.23072 123.809838 
L 247.58784 123.409195 
L 247.94496 118.70448 
L 248.30208 120.142948 
L 248.6592 115.442695 
L 249.01632 124.289785 
L 249.37344 123.698605 
L 249.73056 113.461455 
L 250.08768 119.003503 
L 250.4448 112.861694 
L 250.80192 121.192102 
L 251.15904 120.034805 
L 251.51616 116.092237 
L 251.87328 121.400491 
L 252.58752 117.36008 
L 252.94464 109.867004 
L 253.30176 115.489729 
L 253.65888 114.323849 
L 254.016 109.794222 
L 254.37312 117.421875 
L 254.73024 117.776171 
L 255.08736 119.246223 
L 255.44448 113.34267 
L 255.8016 111.515233 
L 256.15872 108.51505 
L 256.51584 107.944813 
L 256.87296 117.025353 
L 257.23008 108.106855 
L 257.5872 110.898992 
L 257.94432 115.398752 
L 258.65856 111.41224 
L 259.01568 118.252685 
L 259.3728 112.419854 
L 259.72992 114.184122 
L 260.08704 114.811349 
L 260.44416 109.53365 
L 260.80128 113.492697 
L 261.1584 113.603242 
L 261.51552 116.574587 
L 261.87264 111.430092 
L 262.22976 108.795878 
L 262.58688 111.17158 
L 262.944 108.747471 
L 263.30112 117.3103 
L 263.65824 117.627518 
L 264.01536 109.880736 
L 264.37248 105.509031 
L 264.7296 107.814699 
L 265.08672 108.12711 
L 265.44384 105.784365 
L 265.80096 111.520383 
L 266.15808 107.591547 
L 266.5152 114.992273 
L 266.87232 106.270835 
L 267.22944 112.605241 
L 267.58656 111.240929 
L 268.3008 113.176852 
L 268.65792 105.733212 
L 269.01504 103.793513 
L 269.37216 112.185717 
L 269.72928 104.007738 
L 270.0864 113.280531 
L 270.44352 105.851311 
L 270.80064 106.212473 
L 271.51488 101.978435 
L 271.872 101.808497 
L 272.22912 102.971973 
L 272.58624 113.220452 
L 272.94336 102.130521 
L 273.30048 111.930295 
L 273.6576 102.147343 
L 274.01472 111.170207 
L 274.37184 113.290831 
L 274.72896 100.930997 
L 275.08608 103.732404 
L 275.4432 100.224123 
L 275.80032 105.510404 
L 276.15744 107.677375 
L 276.51456 102.339597 
L 276.87168 101.349148 
L 277.2288 102.707968 
L 277.58592 110.382655 
L 277.94304 100.214853 
L 278.30016 110.11762 
L 278.65728 99.10871 
L 279.0144 110.970744 
L 279.37152 111.874678 
L 279.72864 98.896544 
L 280.08576 100.678665 
L 280.44288 98.950101 
L 280.8 103.767421 
L 281.15712 106.319585 
L 281.51424 105.368617 
L 281.87136 99.963207 
L 282.22848 110.515859 
L 282.5856 102.286727 
L 282.94272 103.083205 
L 283.29984 103.227052 
L 283.65696 109.859107 
L 284.3712 100.831781 
L 284.72832 109.862541 
L 285.08544 97.281272 
L 285.44256 104.60441 
L 285.79968 108.792101 
L 286.1568 102.060829 
L 286.51392 99.435884 
L 286.87104 101.514624 
L 287.22816 96.251 
L 287.58528 101.893981 
L 287.9424 104.246338 
L 288.29952 96.5871 
L 288.65664 103.058144 
L 289.01376 97.103781 
L 289.37088 102.838769 
L 289.728 96.524961 
L 290.08512 100.012644 
L 290.44224 99.584537 
L 290.79936 101.61178 
L 291.15648 100.60554 
L 291.5136 94.086776 
L 291.87072 106.212816 
L 292.22784 93.943959 
L 292.58496 106.100897 
L 292.94208 103.933927 
L 293.2992 100.076843 
L 293.65632 94.044206 
L 294.01344 104.36066 
L 294.37056 98.976879 
L 294.72768 97.226 
L 295.0848 99.712591 
L 295.44192 103.996409 
L 296.15616 103.900969 
L 296.51328 95.33093 
L 296.8704 103.135388 
L 297.22752 98.182117 
L 297.58464 103.083892 
L 297.94176 92.375034 
L 298.29888 105.623353 
L 298.656 93.614039 
L 299.01312 94.299628 
L 299.37024 100.119756 
L 299.72736 103.967571 
L 300.08448 94.755887 
L 300.4416 93.792903 
L 300.79872 101.856903 
L 301.15584 98.035524 
L 301.51296 97.505454 
L 301.87008 90.666726 
L 302.2272 103.463592 
L 302.58432 95.610728 
L 302.94144 96.276748 
L 303.29856 90.128073 
L 303.65568 101.469993 
L 304.0128 98.224001 
L 304.36992 103.191348 
L 304.72704 89.765195 
L 305.08416 93.415949 
L 305.44128 94.549558 
L 305.7984 91.56551 
L 306.15552 97.097258 
L 306.86976 100.785777 
L 307.22688 91.561391 
L 307.584 100.905592 
L 307.94112 97.828508 
L 308.29824 96.044671 
L 308.65536 90.075203 
L 309.01248 89.130415 
L 309.3696 90.622439 
L 309.72672 89.385494 
L 310.08384 93.875641 
L 310.44096 88.867097 
L 310.79808 92.982692 
L 311.1552 100.016764 
L 311.51232 94.988994 
L 311.86944 99.585567 
L 312.22656 98.805567 
L 312.58368 86.591984 
L 312.9408 89.25435 
L 313.29792 87.717696 
L 313.65504 97.089019 
L 314.01216 96.968174 
L 314.36928 96.037805 
L 314.7264 87.889007 
L 315.08352 98.198252 
L 315.44064 88.109412 
L 315.79776 89.046648 
L 316.15488 94.591785 
L 316.512 86.891693 
L 316.86912 87.446138 
L 317.22624 93.755482 
L 317.94048 90.951673 
L 318.2976 91.407245 
L 318.65472 89.594913 
L 319.01184 84.754247 
L 319.36896 96.29666 
L 319.72608 87.221614 
L 320.0832 87.36546 
L 320.44032 96.417505 
L 320.79744 94.216547 
L 321.15456 96.003131 
L 321.51168 96.466599 
L 321.8688 88.016375 
L 322.22592 84.985981 
L 322.58304 94.114928 
L 322.94016 84.634089 
L 323.29728 95.790965 
L 323.6544 91.682579 
L 324.01152 96.544873 
L 324.36864 88.615451 
L 324.72576 91.684982 
L 325.08288 86.06672 
L 325.44 87.129607 
L 325.79712 96.475181 
L 326.15424 92.937376 
L 326.51136 83.973561 
L 326.86848 83.190128 
L 327.2256 91.262711 
L 327.58272 87.098022 
L 327.93984 95.2427 
L 328.29696 81.631503 
L 328.65408 80.966169 
L 329.36832 90.814692 
L 329.72544 81.926406 
L 330.08256 91.200572 
L 330.43968 90.494728 
L 330.7968 88.669007 
L 331.15392 91.033037 
L 331.51104 92.521971 
L 331.86816 82.272462 
L 332.22528 89.882263 
L 332.5824 81.13645 
L 333.29664 92.707358 
L 333.65376 83.204891 
L 334.01088 88.329474 
L 334.368 89.095398 
L 334.72512 87.792881 
L 335.08224 91.42235 
L 335.79648 79.518432 
L 336.1536 79.032306 
L 336.51072 80.407261 
L 336.86784 90.65471 
L 337.22496 85.423358 
L 337.58208 82.769917 
L 337.9392 91.002139 
L 338.29632 80.667833 
L 338.65344 91.143926 
L 339.01056 91.276444 
L 339.36768 77.890801 
L 339.7248 85.699722 
L 340.08192 86.136755 
L 340.43904 86.006641 
L 340.79616 88.779896 
L 341.15328 89.15891 
L 341.5104 77.190106 
L 341.86752 89.426005 
L 342.22464 82.571141 
L 342.58176 87.70774 
L 342.93888 76.529922 
L 343.296 86.618762 
L 343.65312 82.15505 
L 344.01024 88.214122 
L 344.36736 80.426486 
L 344.72448 82.211009 
L 345.0816 87.291305 
L 345.43872 81.950781 
L 345.79584 82.609935 
L 346.15296 82.573201 
L 346.51008 74.727546 
L 346.8672 79.229022 
L 347.22432 86.713859 
L 347.58144 81.372647 
L 347.93856 82.423175 
L 348.29568 82.729064 
L 348.6528 78.699295 
L 349.00992 77.386479 
L 349.36704 74.143576 
L 349.72416 80.300491 
L 350.08128 80.015201 
L 350.4384 85.839106 
L 350.79552 82.999935 
L 351.15264 76.460573 
L 351.50976 81.886582 
L 351.86688 77.80772 
L 352.224 78.084084 
L 352.58112 73.733665 
L 352.93824 75.666498 
L 353.29536 76.725608 
L 354.0096 86.931174 
L 354.72384 74.13671 
L 355.08096 76.720802 
L 355.43808 86.387714 
L 355.7952 82.038668 
L 356.15232 74.384923 
L 356.50944 84.050806 
L 356.86656 75.195134 
L 357.22368 75.758505 
L 357.93792 80.873818 
L 358.29504 72.676958 
L 359.00928 82.752752 
L 359.72352 74.57443 
L 360.08064 73.687318 
L 360.43776 82.919257 
L 360.79488 72.512512 
L 361.152 73.206684 
L 361.50912 81.011829 
L 361.86624 74.803074 
L 362.22336 74.707291 
L 362.58048 75.817211 
L 362.9376 83.402294 
L 363.29472 73.134933 
L 363.65184 73.308647 
L 364.00896 81.047876 
L 364.36608 69.333122 
L 364.7232 78.621364 
L 365.08032 72.114616 
L 365.43744 73.818119 
L 365.79456 71.540603 
L 366.15168 82.873597 
L 367.22304 69.482118 
L 367.58016 67.708924 
L 367.93728 76.847826 
L 368.65152 75.432017 
L 369.00864 79.25992 
L 369.36576 68.826397 
L 369.72288 67.417111 
L 370.08 75.814808 
L 370.43712 70.399441 
L 370.79424 74.299782 
L 371.15136 81.542242 
L 371.50848 69.137092 
L 371.8656 69.926017 
L 372.22272 72.805699 
L 372.57984 74.063928 
L 372.93696 76.481858 
L 373.29408 69.469759 
L 373.6512 72.532424 
L 374.00832 80.706283 
L 374.36544 71.090867 
L 374.72256 71.62746 
L 375.07968 78.667367 
L 375.4368 68.214619 
L 375.79392 76.875291 
L 376.15104 68.35057 
L 376.50816 77.295159 
L 376.86528 74.084527 
L 377.2224 75.515442 
L 377.57952 71.05482 
L 377.93664 73.798207 
L 378.29376 79.493714 
L 378.65088 73.829448 
L 379.008 70.65761 
L 379.36512 79.330298 
L 379.72224 79.600826 
L 380.07936 67.493669 
L 380.43648 76.5028 
L 380.7936 67.114312 
L 381.15072 66.762076 
L 381.50784 64.782209 
L 381.86496 66.627155 
L 382.22208 76.130652 
L 382.5792 73.435672 
L 382.93632 63.286752 
L 383.29344 73.74877 
L 383.65056 74.346129 
L 384.00768 70.666536 
L 384.3648 63.340309 
L 384.72192 67.775183 
L 385.43616 72.551993 
L 385.79328 70.205471 
L 386.1504 63.485185 
L 386.50752 63.524666 
L 386.86464 74.332397 
L 387.22176 63.095872 
L 387.57888 68.598782 
L 387.936 61.944755 
L 388.29312 77.189763 
L 389.00736 64.135414 
L 389.36448 62.992879 
L 389.7216 70.56835 
L 390.07872 70.71151 
L 390.43584 63.774939 
L 390.79296 62.680124 
L 391.5072 68.138747 
L 391.86432 62.904649 
L 392.22144 75.703919 
L 392.57856 70.237743 
L 392.93568 73.884721 
L 393.2928 71.106659 
L 393.64992 69.566229 
L 394.36416 75.765028 
L 394.72128 70.251818 
L 395.0784 62.497484 
L 395.43552 74.107872 
L 395.79264 73.029537 
L 396.14976 63.641048 
L 396.50688 74.206402 
L 396.864 74.256182 
L 397.22112 66.699594 
L 397.57824 71.714317 
L 397.93536 74.19061 
L 398.29248 71.463701 
L 398.6496 66.421856 
L 399.00672 66.186346 
L 399.36384 63.95243 
L 399.72096 67.131134 
L 400.07808 60.579069 
L 400.4352 73.564413 
L 400.79232 64.173865 
L 401.14944 66.974928 
L 401.50656 60.445179 
L 401.86368 69.161124 
L 402.2208 59.134079 
L 402.57792 71.753111 
L 402.93504 61.25024 
L 403.29216 68.945182 
L 403.64928 71.590726 
L 404.0064 56.569213 
L 404.36352 58.659282 
L 404.72064 59.846103 
L 405.07776 65.914444 
L 405.43488 64.907861 
L 405.792 71.755858 
L 406.14912 59.919915 
L 406.86336 72.303093 
L 407.22048 61.595609 
L 407.5776 67.819126 
L 407.93472 60.180487 
L 408.29184 55.98696 
L 408.64896 59.976218 
L 409.00608 71.518631 
L 409.3632 57.850444 
L 409.72032 71.358305 
L 410.07744 64.242526 
L 410.43456 63.197492 
L 410.79168 56.747391 
L 411.1488 57.945541 
L 411.50592 66.886354 
L 411.86304 55.238888 
L 412.22016 62.816075 
L 412.57728 55.50667 
L 412.9344 65.884233 
L 413.29152 58.960021 
L 413.64864 57.520181 
L 414.00576 63.063944 
L 414.36288 59.556007 
L 414.72 53.568 
L 414.72 53.568 
" style="fill:none;stroke:#000080;stroke-linecap:square;stroke-width:0.5;"/>
   </g>
   <g id="patch_3">
    <path d="M 57.6 307.584 
L 57.6 41.472 
" style="fill:none;stroke:#000000;stroke-linecap:square;stroke-linejoin:miter;stroke-width:0.8;"/>
   </g>
   <g id="patch_4">
    <path d="M 414.72 307.584 
L 414.72 41.472 
" style="fill:none;stroke:#000000;stroke-linecap:square;stroke-linejoin:miter;stroke-width:0.8;"/>
   </g>
   <g id="patch_5">
    <path d="M 57.6 307.584 
L 414.72 307.584 
" style="fill:none;stroke:#000000;stroke-linecap:square;stroke-linejoin:miter;stroke-width:0.8;"/>
   </g>
   <g id="patch_6">
    <path d="M 57.6 41.472 
L 414.72 41.472 
" style="fill:none;stroke:#000000;stroke-linecap:square;stroke-linejoin:miter;stroke-width:0.8;"/>
   </g>
   <g id="text_17">
    <!-- Test -->
    <defs>
     <path d="M -0.296875 72.90625 
L 61.375 72.90625 
L 61.375 64.59375 
L 35.5 64.59375 
L 35.5 0 
L 25.59375 0 
L 25.59375 64.59375 
L -0.296875 64.59375 
z
" id="DejaVuSans-54"/>
    </defs>
    <g transform="translate(223.341563 35.472)scale(0.12 -0.12)">
     <use xlink:href="#DejaVuSans-54"/>
     <use x="60.818359" xlink:href="#DejaVuSans-65"/>
     <use x="122.341797" xlink:href="#DejaVuSans-73"/>
     <use x="174.441406" xlink:href="#DejaVuSans-74"/>
    </g>
   </g>
   <g id="legend_1">
    <g id="patch_7">
     <path d="M 64.6 64.150125 
L 306.276563 64.150125 
Q 308.276563 64.150125 308.276563 62.150125 
L 308.276563 48.472 
Q 308.276563 46.472 306.276563 46.472 
L 64.6 46.472 
Q 62.6 46.472 62.6 48.472 
L 62.6 62.150125 
Q 62.6 64.150125 64.6 64.150125 
z
" style="fill:#ffffff;opacity:0.8;stroke:#cccccc;stroke-linejoin:miter;"/>
    </g>
    <g id="line2d_30">
     <path d="M 66.6 54.570438 
L 86.6 54.570438 
" style="fill:none;stroke:#000080;stroke-linecap:square;stroke-width:0.5;"/>
    </g>
    <g id="line2d_31"/>
    <g id="text_18">
     <!-- Successful download requests per second -->
     <g transform="translate(94.6 58.070438)scale(0.1 -0.1)">
      <use xlink:href="#DejaVuSans-53"/>
      <use x="63.476562" xlink:href="#DejaVuSans-75"/>
      <use x="126.855469" xlink:href="#DejaVuSans-63"/>
      <use x="181.835938" xlink:href="#DejaVuSans-63"/>
      <use x="236.816406" xlink:href="#DejaVuSans-65"/>
      <use x="298.339844" xlink:href="#DejaVuSans-73"/>
      <use x="350.439453" xlink:href="#DejaVuSans-73"/>
      <use x="402.539062" xlink:href="#DejaVuSans-66"/>
      <use x="437.744141" xlink:href="#DejaVuSans-75"/>
      <use x="501.123047" xlink:href="#DejaVuSans-6c"/>
      <use x="528.90625" xlink:href="#DejaVuSans-20"/>
      <use x="560.693359" xlink:href="#DejaVuSans-64"/>
      <use x="624.169922" xlink:href="#DejaVuSans-6f"/>
      <use x="685.351562" xlink:href="#DejaVuSans-77"/>
      <use x="767.138672" xlink:href="#DejaVuSans-6e"/>
      <use x="830.517578" xlink:href="#DejaVuSans-6c"/>
      <use x="858.300781" xlink:href="#DejaVuSans-6f"/>
      <use x="919.482422" xlink:href="#DejaVuSans-61"/>
      <use x="980.761719" xlink:href="#DejaVuSans-64"/>
      <use x="1044.238281" xlink:href="#DejaVuSans-20"/>
      <use x="1076.025391" xlink:href="#DejaVuSans-72"/>
      <use x="1117.107422" xlink:href="#DejaVuSans-65"/>
      <use x="1178.630859" xlink:href="#DejaVuSans-71"/>
      <use x="1242.107422" xlink:href="#DejaVuSans-75"/>
      <use x="1305.486328" xlink:href="#DejaVuSans-65"/>
      <use x="1367.009766" xlink:href="#DejaVuSans-73"/>
      <use x="1419.109375" xlink:href="#DejaVuSans-74"/>
      <use x="1458.318359" xlink:href="#DejaVuSans-73"/>
      <use x="1510.417969" xlink:href="#DejaVuSans-20"/>
      <use x="1542.205078" xlink:href="#DejaVuSans-70"/>
      <use x="1605.681641" xlink:href="#DejaVuSans-65"/>
      <use x="1667.205078" xlink:href="#DejaVuSans-72"/>
      <use x="1708.318359" xlink:href="#DejaVuSans-20"/>
      <use x="1740.105469" xlink:href="#DejaVuSans-73"/>
      <use x="1792.205078" xlink:href="#DejaVuSans-65"/>
      <use x="1853.728516" xlink:href="#DejaVuSans-63"/>
      <use x="1908.708984" xlink:href="#DejaVuSans-6f"/>
      <use x="1969.890625" xlink:href="#DejaVuSans-6e"/>
      <use x="2033.269531" xlink:href="#DejaVuSans-64"/>
     </g>
    </g>
   </g>
  </g>
 </g>
 <defs>
  <clipPath id="pa99b55982f">
   <rect height="266.112" width="357.12" x="57.6" y="41.472"/>
  </clipPath>
 </defs>
</svg>
