<?xml version="1.0" encoding="utf-8" standalone="no"?>
<!DOCTYPE svg PUBLIC "-//W3C//DTD SVG 1.1//EN"
  "http://www.w3.org/Graphics/SVG/1.1/DTD/svg11.dtd">
<!-- Created with matplotlib (http://matplotlib.org/) -->
<svg height="345pt" version="1.1" viewBox="0 0 460 345" width="460pt" xmlns="http://www.w3.org/2000/svg" xmlns:xlink="http://www.w3.org/1999/xlink">
 <defs>
  <style type="text/css">
*{stroke-linecap:butt;stroke-linejoin:round;}
  </style>
 </defs>
 <g id="figure_1">
  <g id="patch_1">
   <path d="M 0 345.6 
L 460.8 345.6 
L 460.8 0 
L 0 0 
z
" style="fill:#ffffff;"/>
  </g>
  <g id="axes_1">
   <g id="patch_2">
    <path d="M 57.6 307.584 
L 414.72 307.584 
L 414.72 41.472 
L 57.6 41.472 
z
" style="fill:#ffffff;"/>
   </g>
   <g id="matplotlib.axis_1">
    <g id="xtick_1">
     <g id="line2d_1">
      <path clip-path="url(#p34dcf3e38f)" d="M 57.6 307.584 
L 57.6 41.472 
" style="fill:none;stroke:#b0b0b0;stroke-linecap:square;stroke-width:0.8;"/>
     </g>
     <g id="line2d_2">
      <defs>
       <path d="M 0 0 
L 0 3.5 
" id="mcda243a162" style="stroke:#000000;stroke-width:0.8;"/>
      </defs>
      <g>
       <use style="stroke:#000000;stroke-width:0.8;" x="57.6" xlink:href="#mcda243a162" y="307.584"/>
      </g>
     </g>
     <g id="text_1">
      <!-- 0 -->
      <defs>
       <path d="M 31.78125 66.40625 
Q 24.171875 66.40625 20.328125 58.90625 
Q 16.5 51.421875 16.5 36.375 
Q 16.5 21.390625 20.328125 13.890625 
Q 24.171875 6.390625 31.78125 6.390625 
Q 39.453125 6.390625 43.28125 13.890625 
Q 47.125 21.390625 47.125 36.375 
Q 47.125 51.421875 43.28125 58.90625 
Q 39.453125 66.40625 31.78125 66.40625 
M 31.78125 74.21875 
Q 44.046875 74.21875 50.515625 64.515625 
Q 56.984375 54.828125 56.984375 36.375 
Q 56.984375 17.96875 50.515625 8.265625 
Q 44.046875 -1.421875 31.78125 -1.421875 
Q 19.53125 -1.421875 13.0625 8.265625 
Q 6.59375 17.96875 6.59375 36.375 
Q 6.59375 54.828125 13.0625 64.515625 
Q 19.53125 74.21875 31.78125 74.21875 
" id="DejaVuSans-30"/>
      </defs>
      <g transform="translate(54.41875 322.182437)scale(0.1 -0.1)">
       <use xlink:href="#DejaVuSans-30"/>
      </g>
     </g>
    </g>
    <g id="xtick_2">
     <g id="line2d_3">
      <path clip-path="url(#p34dcf3e38f)" d="M 129.024 307.584 
L 129.024 41.472 
" style="fill:none;stroke:#b0b0b0;stroke-linecap:square;stroke-width:0.8;"/>
     </g>
     <g id="line2d_4">
      <g>
       <use style="stroke:#000000;stroke-width:0.8;" x="129.024" xlink:href="#mcda243a162" y="307.584"/>
      </g>
     </g>
     <g id="text_2">
      <!-- 200 -->
      <defs>
       <path d="M 19.1875 8.296875 
L 53.609375 8.296875 
L 53.609375 0 
L 7.328125 0 
L 7.328125 8.296875 
Q 12.9375 14.109375 22.625 23.890625 
Q 32.328125 33.6875 34.8125 36.53125 
Q 39.546875 41.84375 41.421875 45.53125 
Q 43.3125 49.21875 43.3125 52.78125 
Q 43.3125 58.59375 39.234375 62.25 
Q 35.15625 65.921875 28.609375 65.921875 
Q 23.96875 65.921875 18.8125 64.3125 
Q 13.671875 62.703125 7.8125 59.421875 
L 7.8125 69.390625 
Q 13.765625 71.78125 18.9375 73 
Q 24.125 74.21875 28.421875 74.21875 
Q 39.75 74.21875 46.484375 68.546875 
Q 53.21875 62.890625 53.21875 53.421875 
Q 53.21875 48.921875 51.53125 44.890625 
Q 49.859375 40.875 45.40625 35.40625 
Q 44.1875 33.984375 37.640625 27.21875 
Q 31.109375 20.453125 19.1875 8.296875 
" id="DejaVuSans-32"/>
      </defs>
      <g transform="translate(119.48025 322.182437)scale(0.1 -0.1)">
       <use xlink:href="#DejaVuSans-32"/>
       <use x="63.623047" xlink:href="#DejaVuSans-30"/>
       <use x="127.246094" xlink:href="#DejaVuSans-30"/>
      </g>
     </g>
    </g>
    <g id="xtick_3">
     <g id="line2d_5">
      <path clip-path="url(#p34dcf3e38f)" d="M 200.448 307.584 
L 200.448 41.472 
" style="fill:none;stroke:#b0b0b0;stroke-linecap:square;stroke-width:0.8;"/>
     </g>
     <g id="line2d_6">
      <g>
       <use style="stroke:#000000;stroke-width:0.8;" x="200.448" xlink:href="#mcda243a162" y="307.584"/>
      </g>
     </g>
     <g id="text_3">
      <!-- 400 -->
      <defs>
       <path d="M 37.796875 64.3125 
L 12.890625 25.390625 
L 37.796875 25.390625 
z
M 35.203125 72.90625 
L 47.609375 72.90625 
L 47.609375 25.390625 
L 58.015625 25.390625 
L 58.015625 17.1875 
L 47.609375 17.1875 
L 47.609375 0 
L 37.796875 0 
L 37.796875 17.1875 
L 4.890625 17.1875 
L 4.890625 26.703125 
z
" id="DejaVuSans-34"/>
      </defs>
      <g transform="translate(190.90425 322.182437)scale(0.1 -0.1)">
       <use xlink:href="#DejaVuSans-34"/>
       <use x="63.623047" xlink:href="#DejaVuSans-30"/>
       <use x="127.246094" xlink:href="#DejaVuSans-30"/>
      </g>
     </g>
    </g>
    <g id="xtick_4">
     <g id="line2d_7">
      <path clip-path="url(#p34dcf3e38f)" d="M 271.872 307.584 
L 271.872 41.472 
" style="fill:none;stroke:#b0b0b0;stroke-linecap:square;stroke-width:0.8;"/>
     </g>
     <g id="line2d_8">
      <g>
       <use style="stroke:#000000;stroke-width:0.8;" x="271.872" xlink:href="#mcda243a162" y="307.584"/>
      </g>
     </g>
     <g id="text_4">
      <!-- 600 -->
      <defs>
       <path d="M 33.015625 40.375 
Q 26.375 40.375 22.484375 35.828125 
Q 18.609375 31.296875 18.609375 23.390625 
Q 18.609375 15.53125 22.484375 10.953125 
Q 26.375 6.390625 33.015625 6.390625 
Q 39.65625 6.390625 43.53125 10.953125 
Q 47.40625 15.53125 47.40625 23.390625 
Q 47.40625 31.296875 43.53125 35.828125 
Q 39.65625 40.375 33.015625 40.375 
M 52.59375 71.296875 
L 52.59375 62.3125 
Q 48.875 64.0625 45.09375 64.984375 
Q 41.3125 65.921875 37.59375 65.921875 
Q 27.828125 65.921875 22.671875 59.328125 
Q 17.53125 52.734375 16.796875 39.40625 
Q 19.671875 43.65625 24.015625 45.921875 
Q 28.375 48.1875 33.59375 48.1875 
Q 44.578125 48.1875 50.953125 41.515625 
Q 57.328125 34.859375 57.328125 23.390625 
Q 57.328125 12.15625 50.6875 5.359375 
Q 44.046875 -1.421875 33.015625 -1.421875 
Q 20.359375 -1.421875 13.671875 8.265625 
Q 6.984375 17.96875 6.984375 36.375 
Q 6.984375 53.65625 15.1875 63.9375 
Q 23.390625 74.21875 37.203125 74.21875 
Q 40.921875 74.21875 44.703125 73.484375 
Q 48.484375 72.75 52.59375 71.296875 
" id="DejaVuSans-36"/>
      </defs>
      <g transform="translate(262.32825 322.182437)scale(0.1 -0.1)">
       <use xlink:href="#DejaVuSans-36"/>
       <use x="63.623047" xlink:href="#DejaVuSans-30"/>
       <use x="127.246094" xlink:href="#DejaVuSans-30"/>
      </g>
     </g>
    </g>
    <g id="xtick_5">
     <g id="line2d_9">
      <path clip-path="url(#p34dcf3e38f)" d="M 343.296 307.584 
L 343.296 41.472 
" style="fill:none;stroke:#b0b0b0;stroke-linecap:square;stroke-width:0.8;"/>
     </g>
     <g id="line2d_10">
      <g>
       <use style="stroke:#000000;stroke-width:0.8;" x="343.296" xlink:href="#mcda243a162" y="307.584"/>
      </g>
     </g>
     <g id="text_5">
      <!-- 800 -->
      <defs>
       <path d="M 31.78125 34.625 
Q 24.75 34.625 20.71875 30.859375 
Q 16.703125 27.09375 16.703125 20.515625 
Q 16.703125 13.921875 20.71875 10.15625 
Q 24.75 6.390625 31.78125 6.390625 
Q 38.8125 6.390625 42.859375 10.171875 
Q 46.921875 13.96875 46.921875 20.515625 
Q 46.921875 27.09375 42.890625 30.859375 
Q 38.875 34.625 31.78125 34.625 
M 21.921875 38.8125 
Q 15.578125 40.375 12.03125 44.71875 
Q 8.5 49.078125 8.5 55.328125 
Q 8.5 64.0625 14.71875 69.140625 
Q 20.953125 74.21875 31.78125 74.21875 
Q 42.671875 74.21875 48.875 69.140625 
Q 55.078125 64.0625 55.078125 55.328125 
Q 55.078125 49.078125 51.53125 44.71875 
Q 48 40.375 41.703125 38.8125 
Q 48.828125 37.15625 52.796875 32.3125 
Q 56.78125 27.484375 56.78125 20.515625 
Q 56.78125 9.90625 50.3125 4.234375 
Q 43.84375 -1.421875 31.78125 -1.421875 
Q 19.734375 -1.421875 13.25 4.234375 
Q 6.78125 9.90625 6.78125 20.515625 
Q 6.78125 27.484375 10.78125 32.3125 
Q 14.796875 37.15625 21.921875 38.8125 
M 18.3125 54.390625 
Q 18.3125 48.734375 21.84375 45.5625 
Q 25.390625 42.390625 31.78125 42.390625 
Q 38.140625 42.390625 41.71875 45.5625 
Q 45.3125 48.734375 45.3125 54.390625 
Q 45.3125 60.0625 41.71875 63.234375 
Q 38.140625 66.40625 31.78125 66.40625 
Q 25.390625 66.40625 21.84375 63.234375 
Q 18.3125 60.0625 18.3125 54.390625 
" id="DejaVuSans-38"/>
      </defs>
      <g transform="translate(333.75225 322.182437)scale(0.1 -0.1)">
       <use xlink:href="#DejaVuSans-38"/>
       <use x="63.623047" xlink:href="#DejaVuSans-30"/>
       <use x="127.246094" xlink:href="#DejaVuSans-30"/>
      </g>
     </g>
    </g>
    <g id="xtick_6">
     <g id="line2d_11">
      <path clip-path="url(#p34dcf3e38f)" d="M 414.72 307.584 
L 414.72 41.472 
" style="fill:none;stroke:#b0b0b0;stroke-linecap:square;stroke-width:0.8;"/>
     </g>
     <g id="line2d_12">
      <g>
       <use style="stroke:#000000;stroke-width:0.8;" x="414.72" xlink:href="#mcda243a162" y="307.584"/>
      </g>
     </g>
     <g id="text_6">
      <!-- 1000 -->
      <defs>
       <path d="M 12.40625 8.296875 
L 28.515625 8.296875 
L 28.515625 63.921875 
L 10.984375 60.40625 
L 10.984375 69.390625 
L 28.421875 72.90625 
L 38.28125 72.90625 
L 38.28125 8.296875 
L 54.390625 8.296875 
L 54.390625 0 
L 12.40625 0 
z
" id="DejaVuSans-31"/>
      </defs>
      <g transform="translate(401.995 322.182437)scale(0.1 -0.1)">
       <use xlink:href="#DejaVuSans-31"/>
       <use x="63.623047" xlink:href="#DejaVuSans-30"/>
       <use x="127.246094" xlink:href="#DejaVuSans-30"/>
       <use x="190.869141" xlink:href="#DejaVuSans-30"/>
      </g>
     </g>
    </g>
    <g id="text_7">
     <!-- Number of clients -->
     <defs>
      <path d="M 9.8125 72.90625 
L 23.09375 72.90625 
L 55.421875 11.921875 
L 55.421875 72.90625 
L 64.984375 72.90625 
L 64.984375 0 
L 51.703125 0 
L 19.390625 60.984375 
L 19.390625 0 
L 9.8125 0 
z
" id="DejaVuSans-4e"/>
      <path d="M 8.5 21.578125 
L 8.5 54.6875 
L 17.484375 54.6875 
L 17.484375 21.921875 
Q 17.484375 14.15625 20.5 10.265625 
Q 23.53125 6.390625 29.59375 6.390625 
Q 36.859375 6.390625 41.078125 11.03125 
Q 45.3125 15.671875 45.3125 23.6875 
L 45.3125 54.6875 
L 54.296875 54.6875 
L 54.296875 0 
L 45.3125 0 
L 45.3125 8.40625 
Q 42.046875 3.421875 37.71875 1 
Q 33.40625 -1.421875 27.6875 -1.421875 
Q 18.265625 -1.421875 13.375 4.4375 
Q 8.5 10.296875 8.5 21.578125 
M 31.109375 56 
z
" id="DejaVuSans-75"/>
      <path d="M 52 44.1875 
Q 55.375 50.25 60.0625 53.125 
Q 64.75 56 71.09375 56 
Q 79.640625 56 84.28125 50.015625 
Q 88.921875 44.046875 88.921875 33.015625 
L 88.921875 0 
L 79.890625 0 
L 79.890625 32.71875 
Q 79.890625 40.578125 77.09375 44.375 
Q 74.3125 48.1875 68.609375 48.1875 
Q 61.625 48.1875 57.5625 43.546875 
Q 53.515625 38.921875 53.515625 30.90625 
L 53.515625 0 
L 44.484375 0 
L 44.484375 32.71875 
Q 44.484375 40.625 41.703125 44.40625 
Q 38.921875 48.1875 33.109375 48.1875 
Q 26.21875 48.1875 22.15625 43.53125 
Q 18.109375 38.875 18.109375 30.90625 
L 18.109375 0 
L 9.078125 0 
L 9.078125 54.6875 
L 18.109375 54.6875 
L 18.109375 46.1875 
Q 21.1875 51.21875 25.484375 53.609375 
Q 29.78125 56 35.6875 56 
Q 41.65625 56 45.828125 52.96875 
Q 50 49.953125 52 44.1875 
" id="DejaVuSans-6d"/>
      <path d="M 48.6875 27.296875 
Q 48.6875 37.203125 44.609375 42.84375 
Q 40.53125 48.484375 33.40625 48.484375 
Q 26.265625 48.484375 22.1875 42.84375 
Q 18.109375 37.203125 18.109375 27.296875 
Q 18.109375 17.390625 22.1875 11.75 
Q 26.265625 6.109375 33.40625 6.109375 
Q 40.53125 6.109375 44.609375 11.75 
Q 48.6875 17.390625 48.6875 27.296875 
M 18.109375 46.390625 
Q 20.953125 51.265625 25.265625 53.625 
Q 29.59375 56 35.59375 56 
Q 45.5625 56 51.78125 48.09375 
Q 58.015625 40.1875 58.015625 27.296875 
Q 58.015625 14.40625 51.78125 6.484375 
Q 45.5625 -1.421875 35.59375 -1.421875 
Q 29.59375 -1.421875 25.265625 0.953125 
Q 20.953125 3.328125 18.109375 8.203125 
L 18.109375 0 
L 9.078125 0 
L 9.078125 75.984375 
L 18.109375 75.984375 
z
" id="DejaVuSans-62"/>
      <path d="M 56.203125 29.59375 
L 56.203125 25.203125 
L 14.890625 25.203125 
Q 15.484375 15.921875 20.484375 11.0625 
Q 25.484375 6.203125 34.421875 6.203125 
Q 39.59375 6.203125 44.453125 7.46875 
Q 49.3125 8.734375 54.109375 11.28125 
L 54.109375 2.78125 
Q 49.265625 0.734375 44.1875 -0.34375 
Q 39.109375 -1.421875 33.890625 -1.421875 
Q 20.796875 -1.421875 13.15625 6.1875 
Q 5.515625 13.8125 5.515625 26.8125 
Q 5.515625 40.234375 12.765625 48.109375 
Q 20.015625 56 32.328125 56 
Q 43.359375 56 49.78125 48.890625 
Q 56.203125 41.796875 56.203125 29.59375 
M 47.21875 32.234375 
Q 47.125 39.59375 43.09375 43.984375 
Q 39.0625 48.390625 32.421875 48.390625 
Q 24.90625 48.390625 20.390625 44.140625 
Q 15.875 39.890625 15.1875 32.171875 
z
" id="DejaVuSans-65"/>
      <path d="M 41.109375 46.296875 
Q 39.59375 47.171875 37.8125 47.578125 
Q 36.03125 48 33.890625 48 
Q 26.265625 48 22.1875 43.046875 
Q 18.109375 38.09375 18.109375 28.8125 
L 18.109375 0 
L 9.078125 0 
L 9.078125 54.6875 
L 18.109375 54.6875 
L 18.109375 46.1875 
Q 20.953125 51.171875 25.484375 53.578125 
Q 30.03125 56 36.53125 56 
Q 37.453125 56 38.578125 55.875 
Q 39.703125 55.765625 41.0625 55.515625 
z
" id="DejaVuSans-72"/>
      <path id="DejaVuSans-20"/>
      <path d="M 30.609375 48.390625 
Q 23.390625 48.390625 19.1875 42.75 
Q 14.984375 37.109375 14.984375 27.296875 
Q 14.984375 17.484375 19.15625 11.84375 
Q 23.34375 6.203125 30.609375 6.203125 
Q 37.796875 6.203125 41.984375 11.859375 
Q 46.1875 17.53125 46.1875 27.296875 
Q 46.1875 37.015625 41.984375 42.703125 
Q 37.796875 48.390625 30.609375 48.390625 
M 30.609375 56 
Q 42.328125 56 49.015625 48.375 
Q 55.71875 40.765625 55.71875 27.296875 
Q 55.71875 13.875 49.015625 6.21875 
Q 42.328125 -1.421875 30.609375 -1.421875 
Q 18.84375 -1.421875 12.171875 6.21875 
Q 5.515625 13.875 5.515625 27.296875 
Q 5.515625 40.765625 12.171875 48.375 
Q 18.84375 56 30.609375 56 
" id="DejaVuSans-6f"/>
      <path d="M 37.109375 75.984375 
L 37.109375 68.5 
L 28.515625 68.5 
Q 23.6875 68.5 21.796875 66.546875 
Q 19.921875 64.59375 19.921875 59.515625 
L 19.921875 54.6875 
L 34.71875 54.6875 
L 34.71875 47.703125 
L 19.921875 47.703125 
L 19.921875 0 
L 10.890625 0 
L 10.890625 47.703125 
L 2.296875 47.703125 
L 2.296875 54.6875 
L 10.890625 54.6875 
L 10.890625 58.5 
Q 10.890625 67.625 15.140625 71.796875 
Q 19.390625 75.984375 28.609375 75.984375 
z
" id="DejaVuSans-66"/>
      <path d="M 48.78125 52.59375 
L 48.78125 44.1875 
Q 44.96875 46.296875 41.140625 47.34375 
Q 37.3125 48.390625 33.40625 48.390625 
Q 24.65625 48.390625 19.8125 42.84375 
Q 14.984375 37.3125 14.984375 27.296875 
Q 14.984375 17.28125 19.8125 11.734375 
Q 24.65625 6.203125 33.40625 6.203125 
Q 37.3125 6.203125 41.140625 7.25 
Q 44.96875 8.296875 48.78125 10.40625 
L 48.78125 2.09375 
Q 45.015625 0.34375 40.984375 -0.53125 
Q 36.96875 -1.421875 32.421875 -1.421875 
Q 20.0625 -1.421875 12.78125 6.34375 
Q 5.515625 14.109375 5.515625 27.296875 
Q 5.515625 40.671875 12.859375 48.328125 
Q 20.21875 56 33.015625 56 
Q 37.15625 56 41.109375 55.140625 
Q 45.0625 54.296875 48.78125 52.59375 
" id="DejaVuSans-63"/>
      <path d="M 9.421875 75.984375 
L 18.40625 75.984375 
L 18.40625 0 
L 9.421875 0 
z
" id="DejaVuSans-6c"/>
      <path d="M 9.421875 54.6875 
L 18.40625 54.6875 
L 18.40625 0 
L 9.421875 0 
z
M 9.421875 75.984375 
L 18.40625 75.984375 
L 18.40625 64.59375 
L 9.421875 64.59375 
z
" id="DejaVuSans-69"/>
      <path d="M 54.890625 33.015625 
L 54.890625 0 
L 45.90625 0 
L 45.90625 32.71875 
Q 45.90625 40.484375 42.875 44.328125 
Q 39.84375 48.1875 33.796875 48.1875 
Q 26.515625 48.1875 22.3125 43.546875 
Q 18.109375 38.921875 18.109375 30.90625 
L 18.109375 0 
L 9.078125 0 
L 9.078125 54.6875 
L 18.109375 54.6875 
L 18.109375 46.1875 
Q 21.34375 51.125 25.703125 53.5625 
Q 30.078125 56 35.796875 56 
Q 45.21875 56 50.046875 50.171875 
Q 54.890625 44.34375 54.890625 33.015625 
" id="DejaVuSans-6e"/>
      <path d="M 18.3125 70.21875 
L 18.3125 54.6875 
L 36.8125 54.6875 
L 36.8125 47.703125 
L 18.3125 47.703125 
L 18.3125 18.015625 
Q 18.3125 11.328125 20.140625 9.421875 
Q 21.96875 7.515625 27.59375 7.515625 
L 36.8125 7.515625 
L 36.8125 0 
L 27.59375 0 
Q 17.1875 0 13.234375 3.875 
Q 9.28125 7.765625 9.28125 18.015625 
L 9.28125 47.703125 
L 2.6875 47.703125 
L 2.6875 54.6875 
L 9.28125 54.6875 
L 9.28125 70.21875 
z
" id="DejaVuSans-74"/>
      <path d="M 44.28125 53.078125 
L 44.28125 44.578125 
Q 40.484375 46.53125 36.375 47.5 
Q 32.28125 48.484375 27.875 48.484375 
Q 21.1875 48.484375 17.84375 46.4375 
Q 14.5 44.390625 14.5 40.28125 
Q 14.5 37.15625 16.890625 35.375 
Q 19.28125 33.59375 26.515625 31.984375 
L 29.59375 31.296875 
Q 39.15625 29.25 43.1875 25.515625 
Q 47.21875 21.78125 47.21875 15.09375 
Q 47.21875 7.46875 41.1875 3.015625 
Q 35.15625 -1.421875 24.609375 -1.421875 
Q 20.21875 -1.421875 15.453125 -0.5625 
Q 10.6875 0.296875 5.421875 2 
L 5.421875 11.28125 
Q 10.40625 8.6875 15.234375 7.390625 
Q 20.0625 6.109375 24.8125 6.109375 
Q 31.15625 6.109375 34.5625 8.28125 
Q 37.984375 10.453125 37.984375 14.40625 
Q 37.984375 18.0625 35.515625 20.015625 
Q 33.0625 21.96875 24.703125 23.78125 
L 21.578125 24.515625 
Q 13.234375 26.265625 9.515625 29.90625 
Q 5.8125 33.546875 5.8125 39.890625 
Q 5.8125 47.609375 11.28125 51.796875 
Q 16.75 56 26.8125 56 
Q 31.78125 56 36.171875 55.265625 
Q 40.578125 54.546875 44.28125 53.078125 
" id="DejaVuSans-73"/>
     </defs>
     <g transform="translate(191.738906 335.860562)scale(0.1 -0.1)">
      <use xlink:href="#DejaVuSans-4e"/>
      <use x="74.804688" xlink:href="#DejaVuSans-75"/>
      <use x="138.183594" xlink:href="#DejaVuSans-6d"/>
      <use x="235.595703" xlink:href="#DejaVuSans-62"/>
      <use x="299.072266" xlink:href="#DejaVuSans-65"/>
      <use x="360.595703" xlink:href="#DejaVuSans-72"/>
      <use x="401.708984" xlink:href="#DejaVuSans-20"/>
      <use x="433.496094" xlink:href="#DejaVuSans-6f"/>
      <use x="494.677734" xlink:href="#DejaVuSans-66"/>
      <use x="529.882812" xlink:href="#DejaVuSans-20"/>
      <use x="561.669922" xlink:href="#DejaVuSans-63"/>
      <use x="616.650391" xlink:href="#DejaVuSans-6c"/>
      <use x="644.433594" xlink:href="#DejaVuSans-69"/>
      <use x="672.216797" xlink:href="#DejaVuSans-65"/>
      <use x="733.740234" xlink:href="#DejaVuSans-6e"/>
      <use x="797.119141" xlink:href="#DejaVuSans-74"/>
      <use x="836.328125" xlink:href="#DejaVuSans-73"/>
     </g>
    </g>
   </g>
   <g id="matplotlib.axis_2">
    <g id="ytick_1">
     <g id="line2d_13">
      <path clip-path="url(#p34dcf3e38f)" d="M 57.6 296.805106 
L 414.72 296.805106 
" style="fill:none;stroke:#b0b0b0;stroke-linecap:square;stroke-width:0.8;"/>
     </g>
     <g id="line2d_14">
      <defs>
       <path d="M 0 0 
L -3.5 0 
" id="m8076f56044" style="stroke:#000000;stroke-width:0.8;"/>
      </defs>
      <g>
       <use style="stroke:#000000;stroke-width:0.8;" x="57.6" xlink:href="#m8076f56044" y="296.805106"/>
      </g>
     </g>
     <g id="text_8">
      <!-- 0 -->
      <g transform="translate(44.2375 300.604325)scale(0.1 -0.1)">
       <use xlink:href="#DejaVuSans-30"/>
      </g>
     </g>
    </g>
    <g id="ytick_2">
     <g id="line2d_15">
      <path clip-path="url(#p34dcf3e38f)" d="M 57.6 262.217238 
L 414.72 262.217238 
" style="fill:none;stroke:#b0b0b0;stroke-linecap:square;stroke-width:0.8;"/>
     </g>
     <g id="line2d_16">
      <g>
       <use style="stroke:#000000;stroke-width:0.8;" x="57.6" xlink:href="#m8076f56044" y="262.217238"/>
      </g>
     </g>
     <g id="text_9">
      <!-- 25 -->
      <defs>
       <path d="M 10.796875 72.90625 
L 49.515625 72.90625 
L 49.515625 64.59375 
L 19.828125 64.59375 
L 19.828125 46.734375 
Q 21.96875 47.46875 24.109375 47.828125 
Q 26.265625 48.1875 28.421875 48.1875 
Q 40.625 48.1875 47.75 41.5 
Q 54.890625 34.8125 54.890625 23.390625 
Q 54.890625 11.625 47.5625 5.09375 
Q 40.234375 -1.421875 26.90625 -1.421875 
Q 22.3125 -1.421875 17.546875 -0.640625 
Q 12.796875 0.140625 7.71875 1.703125 
L 7.71875 11.625 
Q 12.109375 9.234375 16.796875 8.0625 
Q 21.484375 6.890625 26.703125 6.890625 
Q 35.15625 6.890625 40.078125 11.328125 
Q 45.015625 15.765625 45.015625 23.390625 
Q 45.015625 31 40.078125 35.4375 
Q 35.15625 39.890625 26.703125 39.890625 
Q 22.75 39.890625 18.8125 39.015625 
Q 14.890625 38.140625 10.796875 36.28125 
z
" id="DejaVuSans-35"/>
      </defs>
      <g transform="translate(37.875 266.016457)scale(0.1 -0.1)">
       <use xlink:href="#DejaVuSans-32"/>
       <use x="63.623047" xlink:href="#DejaVuSans-35"/>
      </g>
     </g>
    </g>
    <g id="ytick_3">
     <g id="line2d_17">
      <path clip-path="url(#p34dcf3e38f)" d="M 57.6 227.62937 
L 414.72 227.62937 
" style="fill:none;stroke:#b0b0b0;stroke-linecap:square;stroke-width:0.8;"/>
     </g>
     <g id="line2d_18">
      <g>
       <use style="stroke:#000000;stroke-width:0.8;" x="57.6" xlink:href="#m8076f56044" y="227.62937"/>
      </g>
     </g>
     <g id="text_10">
      <!-- 50 -->
      <g transform="translate(37.875 231.428589)scale(0.1 -0.1)">
       <use xlink:href="#DejaVuSans-35"/>
       <use x="63.623047" xlink:href="#DejaVuSans-30"/>
      </g>
     </g>
    </g>
    <g id="ytick_4">
     <g id="line2d_19">
      <path clip-path="url(#p34dcf3e38f)" d="M 57.6 193.041502 
L 414.72 193.041502 
" style="fill:none;stroke:#b0b0b0;stroke-linecap:square;stroke-width:0.8;"/>
     </g>
     <g id="line2d_20">
      <g>
       <use style="stroke:#000000;stroke-width:0.8;" x="57.6" xlink:href="#m8076f56044" y="193.041502"/>
      </g>
     </g>
     <g id="text_11">
      <!-- 75 -->
      <defs>
       <path d="M 8.203125 72.90625 
L 55.078125 72.90625 
L 55.078125 68.703125 
L 28.609375 0 
L 18.3125 0 
L 43.21875 64.59375 
L 8.203125 64.59375 
z
" id="DejaVuSans-37"/>
      </defs>
      <g transform="translate(37.875 196.840721)scale(0.1 -0.1)">
       <use xlink:href="#DejaVuSans-37"/>
       <use x="63.623047" xlink:href="#DejaVuSans-35"/>
      </g>
     </g>
    </g>
    <g id="ytick_5">
     <g id="line2d_21">
      <path clip-path="url(#p34dcf3e38f)" d="M 57.6 158.453634 
L 414.72 158.453634 
" style="fill:none;stroke:#b0b0b0;stroke-linecap:square;stroke-width:0.8;"/>
     </g>
     <g id="line2d_22">
      <g>
       <use style="stroke:#000000;stroke-width:0.8;" x="57.6" xlink:href="#m8076f56044" y="158.453634"/>
      </g>
     </g>
     <g id="text_12">
      <!-- 100 -->
      <g transform="translate(31.5125 162.252853)scale(0.1 -0.1)">
       <use xlink:href="#DejaVuSans-31"/>
       <use x="63.623047" xlink:href="#DejaVuSans-30"/>
       <use x="127.246094" xlink:href="#DejaVuSans-30"/>
      </g>
     </g>
    </g>
    <g id="ytick_6">
     <g id="line2d_23">
      <path clip-path="url(#p34dcf3e38f)" d="M 57.6 123.865766 
L 414.72 123.865766 
" style="fill:none;stroke:#b0b0b0;stroke-linecap:square;stroke-width:0.8;"/>
     </g>
     <g id="line2d_24">
      <g>
       <use style="stroke:#000000;stroke-width:0.8;" x="57.6" xlink:href="#m8076f56044" y="123.865766"/>
      </g>
     </g>
     <g id="text_13">
      <!-- 125 -->
      <g transform="translate(31.5125 127.664985)scale(0.1 -0.1)">
       <use xlink:href="#DejaVuSans-31"/>
       <use x="63.623047" xlink:href="#DejaVuSans-32"/>
       <use x="127.246094" xlink:href="#DejaVuSans-35"/>
      </g>
     </g>
    </g>
    <g id="ytick_7">
     <g id="line2d_25">
      <path clip-path="url(#p34dcf3e38f)" d="M 57.6 89.277898 
L 414.72 89.277898 
" style="fill:none;stroke:#b0b0b0;stroke-linecap:square;stroke-width:0.8;"/>
     </g>
     <g id="line2d_26">
      <g>
       <use style="stroke:#000000;stroke-width:0.8;" x="57.6" xlink:href="#m8076f56044" y="89.277898"/>
      </g>
     </g>
     <g id="text_14">
      <!-- 150 -->
      <g transform="translate(31.5125 93.077117)scale(0.1 -0.1)">
       <use xlink:href="#DejaVuSans-31"/>
       <use x="63.623047" xlink:href="#DejaVuSans-35"/>
       <use x="127.246094" xlink:href="#DejaVuSans-30"/>
      </g>
     </g>
    </g>
    <g id="ytick_8">
     <g id="line2d_27">
      <path clip-path="url(#p34dcf3e38f)" d="M 57.6 54.69003 
L 414.72 54.69003 
" style="fill:none;stroke:#b0b0b0;stroke-linecap:square;stroke-width:0.8;"/>
     </g>
     <g id="line2d_28">
      <g>
       <use style="stroke:#000000;stroke-width:0.8;" x="57.6" xlink:href="#m8076f56044" y="54.69003"/>
      </g>
     </g>
     <g id="text_15">
      <!-- 175 -->
      <g transform="translate(31.5125 58.489249)scale(0.1 -0.1)">
       <use xlink:href="#DejaVuSans-31"/>
       <use x="63.623047" xlink:href="#DejaVuSans-37"/>
       <use x="127.246094" xlink:href="#DejaVuSans-35"/>
      </g>
     </g>
    </g>
    <g id="text_16">
     <!-- Successful download requests per second -->
     <defs>
      <path d="M 53.515625 70.515625 
L 53.515625 60.890625 
Q 47.90625 63.578125 42.921875 64.890625 
Q 37.9375 66.21875 33.296875 66.21875 
Q 25.25 66.21875 20.875 63.09375 
Q 16.5 59.96875 16.5 54.203125 
Q 16.5 49.359375 19.40625 46.890625 
Q 22.3125 44.4375 30.421875 42.921875 
L 36.375 41.703125 
Q 47.40625 39.59375 52.65625 34.296875 
Q 57.90625 29 57.90625 20.125 
Q 57.90625 9.515625 50.796875 4.046875 
Q 43.703125 -1.421875 29.984375 -1.421875 
Q 24.8125 -1.421875 18.96875 -0.25 
Q 13.140625 0.921875 6.890625 3.21875 
L 6.890625 13.375 
Q 12.890625 10.015625 18.65625 8.296875 
Q 24.421875 6.59375 29.984375 6.59375 
Q 38.421875 6.59375 43.015625 9.90625 
Q 47.609375 13.234375 47.609375 19.390625 
Q 47.609375 24.75 44.3125 27.78125 
Q 41.015625 30.8125 33.5 32.328125 
L 27.484375 33.5 
Q 16.453125 35.6875 11.515625 40.375 
Q 6.59375 45.0625 6.59375 53.421875 
Q 6.59375 63.09375 13.40625 68.65625 
Q 20.21875 74.21875 32.171875 74.21875 
Q 37.3125 74.21875 42.625 73.28125 
Q 47.953125 72.359375 53.515625 70.515625 
" id="DejaVuSans-53"/>
      <path d="M 45.40625 46.390625 
L 45.40625 75.984375 
L 54.390625 75.984375 
L 54.390625 0 
L 45.40625 0 
L 45.40625 8.203125 
Q 42.578125 3.328125 38.25 0.953125 
Q 33.9375 -1.421875 27.875 -1.421875 
Q 17.96875 -1.421875 11.734375 6.484375 
Q 5.515625 14.40625 5.515625 27.296875 
Q 5.515625 40.1875 11.734375 48.09375 
Q 17.96875 56 27.875 56 
Q 33.9375 56 38.25 53.625 
Q 42.578125 51.265625 45.40625 46.390625 
M 14.796875 27.296875 
Q 14.796875 17.390625 18.875 11.75 
Q 22.953125 6.109375 30.078125 6.109375 
Q 37.203125 6.109375 41.296875 11.75 
Q 45.40625 17.390625 45.40625 27.296875 
Q 45.40625 37.203125 41.296875 42.84375 
Q 37.203125 48.484375 30.078125 48.484375 
Q 22.953125 48.484375 18.875 42.84375 
Q 14.796875 37.203125 14.796875 27.296875 
" id="DejaVuSans-64"/>
      <path d="M 4.203125 54.6875 
L 13.1875 54.6875 
L 24.421875 12.015625 
L 35.59375 54.6875 
L 46.1875 54.6875 
L 57.421875 12.015625 
L 68.609375 54.6875 
L 77.59375 54.6875 
L 63.28125 0 
L 52.6875 0 
L 40.921875 44.828125 
L 29.109375 0 
L 18.5 0 
z
" id="DejaVuSans-77"/>
      <path d="M 34.28125 27.484375 
Q 23.390625 27.484375 19.1875 25 
Q 14.984375 22.515625 14.984375 16.5 
Q 14.984375 11.71875 18.140625 8.90625 
Q 21.296875 6.109375 26.703125 6.109375 
Q 34.1875 6.109375 38.703125 11.40625 
Q 43.21875 16.703125 43.21875 25.484375 
L 43.21875 27.484375 
z
M 52.203125 31.203125 
L 52.203125 0 
L 43.21875 0 
L 43.21875 8.296875 
Q 40.140625 3.328125 35.546875 0.953125 
Q 30.953125 -1.421875 24.3125 -1.421875 
Q 15.921875 -1.421875 10.953125 3.296875 
Q 6 8.015625 6 15.921875 
Q 6 25.140625 12.171875 29.828125 
Q 18.359375 34.515625 30.609375 34.515625 
L 43.21875 34.515625 
L 43.21875 35.40625 
Q 43.21875 41.609375 39.140625 45 
Q 35.0625 48.390625 27.6875 48.390625 
Q 23 48.390625 18.546875 47.265625 
Q 14.109375 46.140625 10.015625 43.890625 
L 10.015625 52.203125 
Q 14.9375 54.109375 19.578125 55.046875 
Q 24.21875 56 28.609375 56 
Q 40.484375 56 46.34375 49.84375 
Q 52.203125 43.703125 52.203125 31.203125 
" id="DejaVuSans-61"/>
      <path d="M 14.796875 27.296875 
Q 14.796875 17.390625 18.875 11.75 
Q 22.953125 6.109375 30.078125 6.109375 
Q 37.203125 6.109375 41.296875 11.75 
Q 45.40625 17.390625 45.40625 27.296875 
Q 45.40625 37.203125 41.296875 42.84375 
Q 37.203125 48.484375 30.078125 48.484375 
Q 22.953125 48.484375 18.875 42.84375 
Q 14.796875 37.203125 14.796875 27.296875 
M 45.40625 8.203125 
Q 42.578125 3.328125 38.25 0.953125 
Q 33.9375 -1.421875 27.875 -1.421875 
Q 17.96875 -1.421875 11.734375 6.484375 
Q 5.515625 14.40625 5.515625 27.296875 
Q 5.515625 40.1875 11.734375 48.09375 
Q 17.96875 56 27.875 56 
Q 33.9375 56 38.25 53.625 
Q 42.578125 51.265625 45.40625 46.390625 
L 45.40625 54.6875 
L 54.390625 54.6875 
L 54.390625 -20.796875 
L 45.40625 -20.796875 
z
" id="DejaVuSans-71"/>
      <path d="M 18.109375 8.203125 
L 18.109375 -20.796875 
L 9.078125 -20.796875 
L 9.078125 54.6875 
L 18.109375 54.6875 
L 18.109375 46.390625 
Q 20.953125 51.265625 25.265625 53.625 
Q 29.59375 56 35.59375 56 
Q 45.5625 56 51.78125 48.09375 
Q 58.015625 40.1875 58.015625 27.296875 
Q 58.015625 14.40625 51.78125 6.484375 
Q 45.5625 -1.421875 35.59375 -1.421875 
Q 29.59375 -1.421875 25.265625 0.953125 
Q 20.953125 3.328125 18.109375 8.203125 
M 48.6875 27.296875 
Q 48.6875 37.203125 44.609375 42.84375 
Q 40.53125 48.484375 33.40625 48.484375 
Q 26.265625 48.484375 22.1875 42.84375 
Q 18.109375 37.203125 18.109375 27.296875 
Q 18.109375 17.390625 22.1875 11.75 
Q 26.265625 6.109375 33.40625 6.109375 
Q 40.53125 6.109375 44.609375 11.75 
Q 48.6875 17.390625 48.6875 27.296875 
" id="DejaVuSans-70"/>
     </defs>
     <g transform="translate(25.432812 279.366281)rotate(-90)scale(0.1 -0.1)">
      <use xlink:href="#DejaVuSans-53"/>
      <use x="63.476562" xlink:href="#DejaVuSans-75"/>
      <use x="126.855469" xlink:href="#DejaVuSans-63"/>
      <use x="181.835938" xlink:href="#DejaVuSans-63"/>
      <use x="236.816406" xlink:href="#DejaVuSans-65"/>
      <use x="298.339844" xlink:href="#DejaVuSans-73"/>
      <use x="350.439453" xlink:href="#DejaVuSans-73"/>
      <use x="402.539062" xlink:href="#DejaVuSans-66"/>
      <use x="437.744141" xlink:href="#DejaVuSans-75"/>
      <use x="501.123047" xlink:href="#DejaVuSans-6c"/>
      <use x="528.90625" xlink:href="#DejaVuSans-20"/>
      <use x="560.693359" xlink:href="#DejaVuSans-64"/>
      <use x="624.169922" xlink:href="#DejaVuSans-6f"/>
      <use x="685.351562" xlink:href="#DejaVuSans-77"/>
      <use x="767.138672" xlink:href="#DejaVuSans-6e"/>
      <use x="830.517578" xlink:href="#DejaVuSans-6c"/>
      <use x="858.300781" xlink:href="#DejaVuSans-6f"/>
      <use x="919.482422" xlink:href="#DejaVuSans-61"/>
      <use x="980.761719" xlink:href="#DejaVuSans-64"/>
      <use x="1044.238281" xlink:href="#DejaVuSans-20"/>
      <use x="1076.025391" xlink:href="#DejaVuSans-72"/>
      <use x="1117.107422" xlink:href="#DejaVuSans-65"/>
      <use x="1178.630859" xlink:href="#DejaVuSans-71"/>
      <use x="1242.107422" xlink:href="#DejaVuSans-75"/>
      <use x="1305.486328" xlink:href="#DejaVuSans-65"/>
      <use x="1367.009766" xlink:href="#DejaVuSans-73"/>
      <use x="1419.109375" xlink:href="#DejaVuSans-74"/>
      <use x="1458.318359" xlink:href="#DejaVuSans-73"/>
      <use x="1510.417969" xlink:href="#DejaVuSans-20"/>
      <use x="1542.205078" xlink:href="#DejaVuSans-70"/>
      <use x="1605.681641" xlink:href="#DejaVuSans-65"/>
      <use x="1667.205078" xlink:href="#DejaVuSans-72"/>
      <use x="1708.318359" xlink:href="#DejaVuSans-20"/>
      <use x="1740.105469" xlink:href="#DejaVuSans-73"/>
      <use x="1792.205078" xlink:href="#DejaVuSans-65"/>
      <use x="1853.728516" xlink:href="#DejaVuSans-63"/>
      <use x="1908.708984" xlink:href="#DejaVuSans-6f"/>
      <use x="1969.890625" xlink:href="#DejaVuSans-6e"/>
      <use x="2033.269531" xlink:href="#DejaVuSans-64"/>
     </g>
    </g>
   </g>
   <g id="line2d_29">
    <path clip-path="url(#p34dcf3e38f)" d="M 57.6 295.488 
L 57.95712 295.458946 
L 60.45696 285.814465 
L 60.81408 285.129625 
L 61.52832 281.728946 
L 61.88544 280.96663 
L 62.24256 279.104419 
L 63.31392 275.743861 
L 63.67104 274.388017 
L 64.02816 272.258788 
L 65.45664 266.868615 
L 65.81376 266.791138 
L 66.17088 264.376905 
L 66.528 262.860572 
L 66.88512 262.553432 
L 68.3136 255.608188 
L 68.67072 254.667398 
L 69.02784 254.854173 
L 69.38496 251.295773 
L 69.74208 251.939107 
L 70.0992 249.100135 
L 70.45632 250.184811 
L 70.81344 249.133339 
L 71.17056 246.712189 
L 71.52768 243.022355 
L 71.8848 243.552241 
L 72.59904 239.22599 
L 72.95616 239.758644 
L 73.6704 236.896152 
L 74.02752 235.555526 
L 74.38464 234.8527 
L 74.74176 233.390325 
L 75.09888 230.356278 
L 75.456 229.136018 
L 75.81312 226.503189 
L 76.17024 229.40442 
L 76.52736 224.592555 
L 76.88448 224.181651 
L 77.2416 225.255259 
L 77.59872 219.816663 
L 78.31296 216.684385 
L 78.67008 217.401046 
L 79.0272 214.729479 
L 79.38432 216.079789 
L 79.74144 213.968546 
L 80.09856 215.569272 
L 80.45568 215.736678 
L 81.16992 215.208175 
L 81.52704 215.671652 
L 81.88416 213.315527 
L 82.24128 212.863118 
L 82.5984 212.670809 
L 82.95552 213.177175 
L 83.31264 212.914308 
L 83.66976 206.752133 
L 84.02688 208.954688 
L 84.384 210.186017 
L 84.74112 205.659156 
L 85.09824 210.116841 
L 85.45536 205.915107 
L 85.81248 205.114052 
L 86.1696 205.367235 
L 86.52672 204.261807 
L 86.88384 204.746037 
L 87.24096 207.589159 
L 87.59808 204.577248 
L 87.9552 203.716702 
L 88.31232 202.092455 
L 88.66944 199.70866 
L 89.02656 204.912058 
L 89.38368 199.514968 
L 89.7408 199.2521 
L 90.09792 200.529084 
L 90.45504 200.892948 
L 90.81216 200.874963 
L 91.16928 199.151103 
L 91.5264 198.776171 
L 91.88352 199.490064 
L 92.24064 194.790265 
L 92.59776 194.015497 
L 92.95488 197.710864 
L 93.312 197.864434 
L 93.66912 196.274776 
L 94.02624 198.640586 
L 94.38336 193.345875 
L 94.74048 194.210572 
L 95.0976 192.21001 
L 95.45472 195.495857 
L 95.81184 191.216646 
L 96.16896 195.923363 
L 96.52608 196.02436 
L 96.8832 194.005812 
L 97.24032 189.986702 
L 97.59744 187.932182 
L 97.95456 191.278904 
L 98.31168 190.522122 
L 98.6688 190.930259 
L 99.02592 193.628112 
L 99.38304 190.333964 
L 99.74016 192.622297 
L 100.09728 189.059747 
L 100.4544 187.367708 
L 100.81152 186.944353 
L 101.16864 188.16738 
L 101.52576 186.270581 
L 101.88288 188.845302 
L 102.24 189.407009 
L 102.59712 185.697806 
L 102.95424 183.648821 
L 103.31136 188.734621 
L 103.66848 182.418876 
L 104.0256 183.500785 
L 104.38272 186.615076 
L 104.73984 181.222136 
L 105.09696 186.823987 
L 105.45408 180.477805 
L 105.8112 181.139125 
L 106.16832 183.370734 
L 106.88256 178.900598 
L 107.23968 177.694173 
L 107.5968 179.012663 
L 107.95392 179.88151 
L 108.31104 179.293516 
L 108.66816 178.384547 
L 109.02528 176.475297 
L 109.3824 179.927166 
L 109.73952 176.841928 
L 110.09664 175.656256 
L 110.45376 179.386212 
L 110.81088 181.678696 
L 111.168 178.017916 
L 111.52512 179.340556 
L 111.88224 180.181733 
L 112.23936 181.3259 
L 112.59648 179.726557 
L 112.9536 174.644907 
L 113.31072 179.680901 
L 113.66784 180.144378 
L 114.02496 179.258929 
L 114.38208 172.962553 
L 114.7392 175.403073 
L 115.09632 171.216558 
L 115.45344 172.38286 
L 115.81056 176.401971 
L 116.16768 177.896167 
L 116.5248 168.962812 
L 116.88192 170.165086 
L 117.23904 170.744779 
L 117.59616 173.27246 
L 118.3104 175.277173 
L 118.66752 168.932375 
L 119.02464 167.334415 
L 119.38176 171.877878 
L 119.73888 169.305924 
L 120.096 168.420474 
L 120.45312 172.050817 
L 120.81024 173.11889 
L 121.16736 170.11943 
L 121.52448 170.794586 
L 121.8816 167.911341 
L 122.23872 172.710753 
L 122.59584 171.818386 
L 122.95296 163.336058 
L 123.31008 165.279896 
L 123.6672 171.046385 
L 124.02432 165.833302 
L 124.38144 168.077363 
L 124.73856 165.598104 
L 125.09568 165.365674 
L 125.4528 164.961687 
L 125.80992 162.326092 
L 126.16704 167.741169 
L 126.52416 168.874267 
L 126.88128 163.767714 
L 127.2384 168.142388 
L 127.59552 164.718189 
L 127.95264 164.072088 
L 128.66688 166.163962 
L 129.024 164.235342 
L 129.38112 162.999864 
L 130.09536 165.15953 
L 130.45248 163.093943 
L 130.8096 157.88501 
L 131.16672 157.879476 
L 131.52384 165.809782 
L 131.88096 162.901634 
L 132.23808 163.572639 
L 132.5952 165.333853 
L 132.95232 162.3842 
L 133.30944 162.240314 
L 133.66656 163.190789 
L 134.02368 161.996815 
L 134.3808 163.132681 
L 134.73792 155.387766 
L 135.09504 163.791234 
L 135.45216 153.746917 
L 135.80928 154.933973 
L 136.1664 157.725906 
L 136.52352 159.411026 
L 136.88064 155.794519 
L 137.23776 153.551842 
L 137.59488 159.315564 
L 137.952 160.444512 
L 138.30912 155.773766 
L 138.66624 161.119667 
L 139.02336 151.703466 
L 139.38048 156.623244 
L 139.7376 154.131534 
L 140.45184 155.093077 
L 140.80896 156.952521 
L 141.16608 150.3075 
L 141.5232 156.958055 
L 142.23744 152.225051 
L 142.59456 149.67385 
L 142.95168 154.420689 
L 143.3088 153.291741 
L 143.66592 155.937021 
L 144.38016 152.144807 
L 144.73728 156.710406 
L 145.0944 152.111603 
L 145.45152 149.705671 
L 145.80864 149.915965 
L 146.16576 154.249133 
L 146.52288 146.634268 
L 146.88 152.407675 
L 147.23712 154.66142 
L 147.59424 155.831874 
L 147.95136 148.730293 
L 148.30848 154.196559 
L 148.6656 153.062077 
L 149.02272 153.975197 
L 149.37984 151.547129 
L 149.73696 146.425357 
L 150.09408 146.886068 
L 150.4512 148.659734 
L 150.80832 146.073945 
L 151.16544 150.308883 
L 151.52256 149.521663 
L 151.87968 150.667213 
L 152.2368 152.606901 
L 152.59392 151.346519 
L 152.95104 145.483184 
L 153.66528 148.81192 
L 154.37952 141.898497 
L 154.73664 150.343471 
L 155.09376 146.350648 
L 155.45088 144.463533 
L 155.808 144.655842 
L 156.16512 143.861705 
L 156.52224 144.112121 
L 156.87936 142.821301 
L 157.23648 139.983713 
L 157.5936 146.220597 
L 158.30784 140.692072 
L 158.66496 148.834056 
L 159.02208 146.501451 
L 159.3792 146.778154 
L 159.73632 147.680205 
L 160.09344 143.990371 
L 160.45056 144.044328 
L 160.80768 137.98315 
L 161.1648 144.503655 
L 161.52192 141.870827 
L 161.87904 137.06588 
L 162.23616 144.109354 
L 162.59328 145.542675 
L 163.30752 141.361693 
L 163.66464 140.099928 
L 164.02176 142.581953 
L 164.37888 143.461869 
L 164.736 145.956346 
L 165.09312 135.92033 
L 165.45024 134.626744 
L 165.80736 145.250753 
L 166.16448 142.496176 
L 166.5216 135.867756 
L 166.87872 140.319907 
L 167.23584 138.353932 
L 167.59296 137.918125 
L 167.95008 144.170228 
L 168.3072 134.016614 
L 168.66432 142.613774 
L 169.02144 142.415932 
L 169.37856 141.480676 
L 169.73568 138.525488 
L 170.0928 132.177923 
L 170.44992 137.777007 
L 170.80704 139.521619 
L 171.16416 140.077792 
L 171.52128 141.832088 
L 171.8784 131.538739 
L 172.23552 132.112898 
L 172.59264 142.032698 
L 172.94976 135.741857 
L 173.30688 136.418395 
L 173.664 141.43502 
L 174.02112 129.823181 
L 174.37824 138.607116 
L 174.73536 140.021068 
L 175.09248 132.021586 
L 175.80672 138.557309 
L 176.16384 138.615417 
L 176.52096 136.361671 
L 177.2352 138.403739 
L 177.59232 137.529358 
L 177.94944 138.584979 
L 178.30656 129.420578 
L 178.66368 129.177079 
L 179.0208 131.690926 
L 179.37792 127.525163 
L 179.73504 136.203951 
L 180.09216 126.560853 
L 180.44928 133.110412 
L 180.8064 134.965705 
L 181.16352 126.440487 
L 181.52064 126.833405 
L 181.87776 130.716931 
L 182.23488 125.643583 
L 182.592 136.733837 
L 182.94912 135.097139 
L 183.30624 127.871041 
L 183.66336 134.23936 
L 184.3776 128.270877 
L 184.73472 132.581909 
L 185.09184 133.030168 
L 185.44896 133.867194 
L 185.80608 133.565588 
L 186.1632 123.928024 
L 186.52032 128.284712 
L 186.87744 134.488392 
L 187.23456 128.29578 
L 187.59168 126.9178 
L 187.9488 126.722724 
L 188.30592 133.979259 
L 188.66304 132.886282 
L 189.02016 123.334497 
L 189.37728 125.184256 
L 189.7344 133.634764 
L 190.09152 130.343382 
L 190.44864 125.780551 
L 190.80576 131.577477 
L 191.16288 123.043959 
L 191.52 121.715784 
L 191.87712 131.944109 
L 192.23424 130.142773 
L 192.59136 129.770607 
L 192.94848 124.771968 
L 193.3056 122.253972 
L 194.01984 124.748449 
L 194.37696 127.91393 
L 194.73408 124.534004 
L 195.0912 131.101548 
L 195.44832 124.854979 
L 195.80544 120.903661 
L 196.16256 118.641615 
L 196.51968 127.967887 
L 196.8768 128.797996 
L 197.23392 128.767559 
L 197.59104 128.460419 
L 197.94816 127.854439 
L 198.30528 123.883752 
L 198.6624 127.016029 
L 199.01952 128.495007 
L 199.37664 118.488045 
L 199.73376 120.379309 
L 200.09088 118.807637 
L 200.448 119.390096 
L 200.80512 129.016592 
L 201.16224 122.924976 
L 201.51936 122.16266 
L 201.87648 119.118927 
L 202.2336 123.89067 
L 202.59072 124.168756 
L 202.94784 121.209418 
L 203.30496 125.983927 
L 203.66208 122.094867 
L 204.0192 123.507436 
L 204.37632 124.196426 
L 204.73344 121.252307 
L 205.09056 119.337523 
L 205.44768 119.030382 
L 205.8048 124.475896 
L 206.16192 114.052496 
L 206.51904 124.139702 
L 206.87616 118.338625 
L 207.23328 118.288818 
L 207.5904 122.617836 
L 207.94752 118.665134 
L 208.30464 117.805972 
L 208.66176 114.17978 
L 209.01888 124.358298 
L 209.376 114.605902 
L 209.73312 120.350255 
L 210.09024 113.409162 
L 210.44736 119.331989 
L 210.80448 114.344418 
L 211.1616 123.955695 
L 211.51872 121.130558 
L 211.87584 115.239552 
L 212.23296 112.869591 
L 212.59008 115.564678 
L 212.9472 111.216291 
L 213.30432 123.374619 
L 213.66144 117.060257 
L 214.01856 122.08795 
L 214.37568 118.672052 
L 214.7328 120.656012 
L 215.08992 115.170376 
L 215.44704 121.091819 
L 215.80416 117.457326 
L 216.16128 111.668701 
L 216.5184 120.683682 
L 216.87552 110.534218 
L 217.23264 120.481689 
L 217.58976 113.483872 
L 217.94688 109.183908 
L 218.304 119.11616 
L 218.66112 115.303194 
L 219.01824 112.828086 
L 219.37536 121.178981 
L 219.73248 114.374855 
L 220.0896 119.636362 
L 220.44672 115.744535 
L 220.80384 108.579312 
L 221.16096 114.949014 
L 221.8752 108.714897 
L 222.23232 115.008505 
L 222.58944 115.905023 
L 222.94656 110.84966 
L 223.30368 113.568266 
L 223.6608 117.995513 
L 224.01792 116.56911 
L 224.37504 118.739844 
L 225.08928 114.466167 
L 225.4464 109.45231 
L 226.16064 118.207191 
L 226.51776 105.927114 
L 226.87488 111.856859 
L 227.232 109.776052 
L 227.58912 105.880075 
L 227.94624 118.24593 
L 228.30336 109.485514 
L 228.66048 116.854114 
L 229.0176 105.038898 
L 229.37472 105.370942 
L 229.73184 105.043049 
L 230.08896 105.970003 
L 230.44608 104.185269 
L 230.8032 110.976943 
L 231.16032 115.42771 
L 231.51744 116.217697 
L 231.87456 116.34498 
L 232.23168 113.046681 
L 232.5888 104.211556 
L 232.94592 108.131053 
L 233.30304 113.795163 
L 233.66016 115.527323 
L 234.3744 106.959216 
L 235.08864 102.769934 
L 235.44576 107.010407 
L 235.80288 102.144585 
L 236.16 108.699678 
L 236.51712 111.999361 
L 236.87424 104.679184 
L 237.23136 112.879276 
L 237.58848 109.892268 
L 237.9456 105.611673 
L 238.30272 105.467788 
L 238.65984 101.372584 
L 239.37408 108.963929 
L 239.7312 102.581776 
L 240.08832 112.328637 
L 240.44544 113.414696 
L 240.80256 113.622223 
L 241.15968 113.665112 
L 241.5168 102.176406 
L 241.87392 111.84579 
L 242.23104 110.824757 
L 242.58816 103.486595 
L 242.94528 102.100313 
L 243.3024 104.24061 
L 243.65952 99.889456 
L 244.01664 101.270204 
L 244.37376 111.167868 
L 244.73088 112.323103 
L 245.088 107.439296 
L 245.80224 110.431838 
L 246.15936 110.560505 
L 246.51648 111.735109 
L 246.8736 111.712973 
L 247.23072 107.537526 
L 247.58784 105.322519 
L 247.94496 107.615002 
L 248.30208 105.091472 
L 248.6592 99.168645 
L 249.01632 106.048864 
L 249.37344 102.176406 
L 249.73056 108.719047 
L 250.08768 104.326388 
L 250.4448 98.21817 
L 250.80192 96.703222 
L 251.51616 106.747539 
L 251.87328 103.662301 
L 252.2304 105.63796 
L 252.58752 99.720667 
L 252.94464 108.370401 
L 253.30176 102.194392 
L 253.65888 97.98574 
L 254.016 108.316444 
L 254.37312 104.289033 
L 254.73024 102.970544 
L 255.08736 106.257775 
L 255.44448 105.900828 
L 255.8016 102.345195 
L 256.15872 100.384755 
L 256.51584 108.243118 
L 256.87296 105.774928 
L 257.23008 101.076512 
L 257.5872 97.963604 
L 257.94432 107.728451 
L 258.30144 99.045512 
L 258.65856 102.822507 
L 259.01568 95.264367 
L 259.3728 95.413786 
L 260.08704 107.104486 
L 261.1584 92.901323 
L 261.51552 96.28125 
L 261.87264 105.184167 
L 262.22976 92.468283 
L 262.58688 95.613012 
L 262.944 102.497382 
L 263.30112 102.584543 
L 263.65824 95.159219 
L 264.01536 102.199926 
L 264.37248 105.431816 
L 264.7296 100.35155 
L 265.08672 91.974369 
L 265.44384 92.675811 
L 266.15808 97.623259 
L 266.5152 104.942052 
L 266.87232 92.234469 
L 267.22944 92.435079 
L 267.58656 104.251678 
L 267.94368 104.87841 
L 268.3008 101.981331 
L 268.65792 101.755818 
L 269.01504 97.263545 
L 269.37216 98.39526 
L 269.72928 100.715415 
L 270.0864 99.055197 
L 270.44352 93.291475 
L 270.80064 99.950331 
L 271.15776 100.68221 
L 271.51488 93.647038 
L 271.872 102.555489 
L 272.22912 89.627928 
L 272.58624 98.370357 
L 272.94336 92.454448 
L 273.30048 101.587029 
L 273.6576 99.716517 
L 274.01472 91.285378 
L 274.37184 97.50151 
L 274.72896 88.360628 
L 275.08608 101.108333 
L 275.4432 91.390525 
L 275.80032 93.266571 
L 276.15744 98.727304 
L 276.51456 96.177486 
L 276.87168 92.217867 
L 277.2288 93.20708 
L 277.58592 97.404664 
L 277.94304 99.776008 
L 278.30016 97.24971 
L 278.65728 99.388624 
L 279.0144 96.551035 
L 279.37152 90.112158 
L 279.72864 93.442278 
L 280.08576 89.818853 
L 280.44288 98.067367 
L 280.8 98.59587 
L 281.15712 89.769046 
L 281.51424 96.293702 
L 281.87136 97.309201 
L 282.22848 100.480217 
L 282.5856 94.323577 
L 282.94272 93.552959 
L 283.29984 99.211534 
L 283.65696 94.243333 
L 284.01408 87.480713 
L 284.3712 96.609143 
L 284.72832 97.082305 
L 285.08544 89.911548 
L 285.44256 95.023635 
L 285.79968 92.397724 
L 286.1568 95.319707 
L 286.51392 97.116893 
L 286.87104 98.29288 
L 287.22816 93.658106 
L 287.58528 86.282589 
L 287.9424 87.350662 
L 288.29952 90.712603 
L 288.65664 91.06955 
L 289.01376 97.850156 
L 289.37088 85.12182 
L 289.728 90.712603 
L 290.08512 93.086714 
L 290.44224 94.239182 
L 290.79936 88.653933 
L 291.15648 94.573993 
L 291.5136 96.715673 
L 291.87072 90.542431 
L 292.22784 88.552937 
L 292.58496 85.244953 
L 292.94208 93.30531 
L 293.2992 85.455247 
L 293.65632 88.395216 
L 294.01344 88.772916 
L 294.37056 95.921536 
L 294.72768 94.051024 
L 295.0848 84.002557 
L 295.44192 92.43923 
L 295.79904 86.307492 
L 296.15616 85.120437 
L 296.51328 84.746888 
L 296.8704 87.339594 
L 297.22752 87.163888 
L 297.58464 86.33793 
L 297.94176 87.760183 
L 298.656 94.203211 
L 299.01312 93.425675 
L 299.37024 83.730004 
L 299.72736 83.00781 
L 300.4416 91.811114 
L 300.79872 94.968294 
L 301.15584 92.327165 
L 301.51296 95.383349 
L 301.87008 82.27593 
L 302.2272 88.183538 
L 302.58432 89.163067 
L 302.94144 92.754671 
L 303.29856 93.799224 
L 303.65568 88.154484 
L 304.0128 86.809708 
L 304.36992 86.149772 
L 304.72704 82.458554 
L 305.08416 81.322689 
L 305.44128 89.983491 
L 305.7984 82.266246 
L 306.15552 89.547684 
L 306.51264 85.058178 
L 306.86976 93.386937 
L 307.22688 85.244953 
L 307.584 92.69518 
L 307.94112 85.845398 
L 308.29824 82.873609 
L 308.65536 81.061204 
L 309.01248 82.417049 
L 309.3696 78.368885 
L 309.72672 79.448026 
L 310.08384 82.690985 
L 310.44096 88.129581 
L 310.79808 87.63705 
L 311.1552 81.786166 
L 311.51232 87.202626 
L 311.86944 77.490353 
L 312.22656 79.620966 
L 312.9408 88.456091 
L 313.29792 90.225606 
L 313.65504 80.863362 
L 314.01216 82.230274 
L 314.36928 83.075602 
L 314.7264 76.658861 
L 315.08352 79.030205 
L 315.44064 90.954718 
L 315.79776 82.109909 
L 316.15488 78.525222 
L 316.86912 90.019462 
L 317.22624 78.793624 
L 317.58336 89.095274 
L 317.94048 86.140087 
L 318.2976 91.019743 
L 318.65472 82.998125 
L 319.01184 81.246595 
L 319.36896 84.192098 
L 319.72608 83.619323 
L 320.0832 84.939196 
L 320.44032 79.009452 
L 320.79744 89.493727 
L 321.15456 86.187126 
L 321.51168 76.47347 
L 321.8688 81.963256 
L 322.22592 79.349797 
L 322.58304 81.918984 
L 322.94016 88.741095 
L 323.29728 75.222772 
L 323.6544 74.536549 
L 324.01152 77.872203 
L 324.36864 77.108503 
L 324.72576 78.373035 
L 325.08288 74.128412 
L 325.44 77.096051 
L 325.79712 86.191277 
L 326.15424 80.583892 
L 326.51136 80.884115 
L 326.86848 86.347614 
L 327.58272 73.128131 
L 328.29696 87.7671 
L 328.65408 78.006404 
L 329.0112 81.681019 
L 329.36832 82.751859 
L 329.72544 74.203122 
L 330.08256 87.774018 
L 330.43968 82.203988 
L 330.7968 83.891876 
L 331.15392 86.351765 
L 331.51104 72.832059 
L 331.86816 87.296705 
L 332.22528 72.585793 
L 332.5824 75.691784 
L 332.93952 74.514413 
L 333.29664 86.149772 
L 333.65376 84.850651 
L 334.368 79.676306 
L 334.72512 84.277876 
L 335.08224 74.683202 
L 335.43936 83.505875 
L 335.79648 76.606287 
L 336.1536 83.887725 
L 336.51072 81.112395 
L 336.86784 74.459072 
L 337.22496 76.206451 
L 337.58208 75.832902 
L 337.9392 84.205933 
L 338.29632 83.662212 
L 338.65344 82.387995 
L 339.01056 74.0371 
L 339.36768 81.10686 
L 339.7248 80.974043 
L 340.08192 77.505572 
L 340.43904 71.365533 
L 340.79616 75.394328 
L 341.15328 74.575287 
L 341.5104 74.663832 
L 341.86752 75.673798 
L 342.22464 74.250162 
L 342.58176 73.670469 
L 342.93888 77.295277 
L 343.296 73.256798 
L 343.65312 73.680153 
L 344.01024 74.997259 
L 344.36736 78.853115 
L 344.72448 71.936925 
L 345.0816 77.08775 
L 345.43872 84.287561 
L 345.79584 76.407061 
L 346.15296 78.656656 
L 346.51008 79.468779 
L 346.8672 74.760678 
L 347.22432 78.389638 
L 347.58144 68.283063 
L 347.93856 76.588301 
L 348.29568 69.037078 
L 348.6528 70.345883 
L 349.00992 75.776178 
L 349.36704 68.826784 
L 349.72416 67.535965 
L 350.08128 78.431143 
L 350.4384 74.607108 
L 350.79552 81.849808 
L 351.15264 72.125083 
L 351.50976 72.329843 
L 351.86688 71.184293 
L 352.224 74.62371 
L 352.58112 81.542668 
L 352.93824 74.006663 
L 353.29536 73.569472 
L 353.65248 77.886038 
L 354.0096 79.755167 
L 354.36672 71.321261 
L 354.72384 79.44941 
L 355.08096 79.030205 
L 355.43808 72.039305 
L 355.7952 76.721119 
L 356.50944 66.618694 
L 357.22368 76.559248 
L 357.5808 70.314062 
L 357.93792 69.551746 
L 358.29504 79.928106 
L 358.65216 75.994774 
L 359.00928 69.481186 
L 359.3664 75.63921 
L 359.72352 66.802702 
L 360.08064 79.615432 
L 360.43776 78.725832 
L 360.79488 80.011117 
L 361.152 70.189546 
L 361.50912 80.553455 
L 361.86624 80.069224 
L 362.22336 77.975967 
L 362.58048 71.603498 
L 362.9376 67.32567 
L 363.29472 78.944427 
L 363.65184 78.330146 
L 364.00896 68.139177 
L 364.36608 70.272557 
L 364.7232 74.935001 
L 365.08032 75.41093 
L 365.43744 68.907028 
L 365.79456 75.336221 
L 366.15168 64.257035 
L 366.5088 72.436374 
L 366.86592 69.270892 
L 367.22304 69.092419 
L 367.58016 69.879639 
L 367.93728 75.701468 
L 368.2944 65.630865 
L 368.65152 73.731343 
L 369.00864 77.859751 
L 369.36576 64.423056 
L 369.72288 71.662989 
L 370.08 74.157466 
L 370.43712 62.755921 
L 370.79424 75.773411 
L 371.15136 63.118402 
L 371.50848 65.694506 
L 371.8656 73.656634 
L 372.22272 74.565603 
L 372.57984 68.133643 
L 372.93696 75.431683 
L 373.29408 68.321801 
L 373.6512 76.34757 
L 374.00832 77.868052 
L 374.36544 73.515515 
L 375.07968 69.001107 
L 375.4368 62.105669 
L 375.79392 71.795806 
L 376.15104 71.834545 
L 376.50816 76.869155 
L 376.86528 72.028237 
L 377.2224 63.721615 
L 377.57952 69.450749 
L 377.93664 63.002187 
L 378.29376 77.372754 
L 378.65088 64.398153 
L 379.008 64.237666 
L 379.36512 63.76312 
L 379.72224 72.762883 
L 380.07936 62.152709 
L 380.43648 63.927758 
L 380.7936 71.794423 
L 381.15072 69.550362 
L 381.50784 65.615646 
L 381.86496 67.09739 
L 382.22208 66.341991 
L 382.5792 69.680412 
L 382.93632 74.896263 
L 383.29344 75.619841 
L 383.65056 73.869695 
L 384.00768 72.984246 
L 384.3648 70.734651 
L 384.72192 60.22824 
L 385.07904 73.544569 
L 385.43616 64.994448 
L 385.79328 66.747361 
L 386.1504 61.151044 
L 386.50752 72.671571 
L 386.86464 59.482525 
L 387.22176 63.38542 
L 387.936 65.832858 
L 388.29312 65.641933 
L 388.65024 75.119009 
L 389.00736 68.760375 
L 389.36448 67.937184 
L 389.7216 74.353925 
L 390.07872 74.049552 
L 390.43584 60.019329 
L 390.79296 69.196182 
L 391.15008 66.317088 
L 391.5072 65.023502 
L 392.22144 57.901168 
L 392.57856 59.933551 
L 392.93568 58.201391 
L 393.2928 73.476777 
L 393.64992 65.250398 
L 394.00704 59.649931 
L 394.36416 63.312094 
L 394.72128 64.143587 
L 395.0784 59.593207 
L 395.43552 67.015763 
L 395.79264 66.708623 
L 396.14976 58.850259 
L 396.50688 71.130336 
L 396.864 70.170177 
L 397.22112 62.674294 
L 397.57824 61.593769 
L 397.93536 71.622867 
L 398.29248 57.091812 
L 398.6496 70.153574 
L 399.00672 71.934158 
L 399.36384 71.914789 
L 399.72096 70.969848 
L 400.07808 60.189501 
L 400.4352 61.953483 
L 400.79232 69.934979 
L 401.14944 63.375736 
L 401.50656 70.672392 
L 401.86368 55.92966 
L 402.2208 55.90614 
L 402.57792 58.920818 
L 403.29216 69.651359 
L 403.64928 68.703651 
L 404.0064 59.644397 
L 404.36352 68.242941 
L 404.72064 65.468994 
L 405.07776 58.515449 
L 405.43488 59.356626 
L 405.792 56.272771 
L 406.14912 55.726283 
L 406.50624 56.246484 
L 406.86336 57.833376 
L 407.22048 57.45706 
L 407.5776 62.418344 
L 407.93472 57.68534 
L 408.29184 62.921943 
L 408.64896 58.255348 
L 409.00608 69.602936 
L 409.3632 68.602654 
L 409.72032 60.265595 
L 410.07744 67.226057 
L 410.43456 60.056684 
L 410.79168 61.4485 
L 411.1488 67.736574 
L 411.50592 61.206385 
L 411.86304 63.467048 
L 412.22016 61.37379 
L 412.57728 57.985562 
L 412.9344 65.745697 
L 413.64864 53.568 
L 414.00576 63.157141 
L 414.72 54.324783 
L 414.72 54.324783 
" style="fill:none;stroke:#000080;stroke-linecap:square;stroke-width:0.5;"/>
   </g>
   <g id="patch_3">
    <path d="M 57.6 307.584 
L 57.6 41.472 
" style="fill:none;stroke:#000000;stroke-linecap:square;stroke-linejoin:miter;stroke-width:0.8;"/>
   </g>
   <g id="patch_4">
    <path d="M 414.72 307.584 
L 414.72 41.472 
" style="fill:none;stroke:#000000;stroke-linecap:square;stroke-linejoin:miter;stroke-width:0.8;"/>
   </g>
   <g id="patch_5">
    <path d="M 57.6 307.584 
L 414.72 307.584 
" style="fill:none;stroke:#000000;stroke-linecap:square;stroke-linejoin:miter;stroke-width:0.8;"/>
   </g>
   <g id="patch_6">
    <path d="M 57.6 41.472 
L 414.72 41.472 
" style="fill:none;stroke:#000000;stroke-linecap:square;stroke-linejoin:miter;stroke-width:0.8;"/>
   </g>
   <g id="text_17">
    <!-- Test -->
    <defs>
     <path d="M -0.296875 72.90625 
L 61.375 72.90625 
L 61.375 64.59375 
L 35.5 64.59375 
L 35.5 0 
L 25.59375 0 
L 25.59375 64.59375 
L -0.296875 64.59375 
z
" id="DejaVuSans-54"/>
    </defs>
    <g transform="translate(223.341563 35.472)scale(0.12 -0.12)">
     <use xlink:href="#DejaVuSans-54"/>
     <use x="60.818359" xlink:href="#DejaVuSans-65"/>
     <use x="122.341797" xlink:href="#DejaVuSans-73"/>
     <use x="174.441406" xlink:href="#DejaVuSans-74"/>
    </g>
   </g>
   <g id="legend_1">
    <g id="patch_7">
     <path d="M 64.6 64.150125 
L 306.276563 64.150125 
Q 308.276563 64.150125 308.276563 62.150125 
L 308.276563 48.472 
Q 308.276563 46.472 306.276563 46.472 
L 64.6 46.472 
Q 62.6 46.472 62.6 48.472 
L 62.6 62.150125 
Q 62.6 64.150125 64.6 64.150125 
z
" style="fill:#ffffff;opacity:0.8;stroke:#cccccc;stroke-linejoin:miter;"/>
    </g>
    <g id="line2d_30">
     <path d="M 66.6 54.570438 
L 86.6 54.570438 
" style="fill:none;stroke:#000080;stroke-linecap:square;stroke-width:0.5;"/>
    </g>
    <g id="line2d_31"/>
    <g id="text_18">
     <!-- Successful download requests per second -->
     <g transform="translate(94.6 58.070438)scale(0.1 -0.1)">
      <use xlink:href="#DejaVuSans-53"/>
      <use x="63.476562" xlink:href="#DejaVuSans-75"/>
      <use x="126.855469" xlink:href="#DejaVuSans-63"/>
      <use x="181.835938" xlink:href="#DejaVuSans-63"/>
      <use x="236.816406" xlink:href="#DejaVuSans-65"/>
      <use x="298.339844" xlink:href="#DejaVuSans-73"/>
      <use x="350.439453" xlink:href="#DejaVuSans-73"/>
      <use x="402.539062" xlink:href="#DejaVuSans-66"/>
      <use x="437.744141" xlink:href="#DejaVuSans-75"/>
      <use x="501.123047" xlink:href="#DejaVuSans-6c"/>
      <use x="528.90625" xlink:href="#DejaVuSans-20"/>
      <use x="560.693359" xlink:href="#DejaVuSans-64"/>
      <use x="624.169922" xlink:href="#DejaVuSans-6f"/>
      <use x="685.351562" xlink:href="#DejaVuSans-77"/>
      <use x="767.138672" xlink:href="#DejaVuSans-6e"/>
      <use x="830.517578" xlink:href="#DejaVuSans-6c"/>
      <use x="858.300781" xlink:href="#DejaVuSans-6f"/>
      <use x="919.482422" xlink:href="#DejaVuSans-61"/>
      <use x="980.761719" xlink:href="#DejaVuSans-64"/>
      <use x="1044.238281" xlink:href="#DejaVuSans-20"/>
      <use x="1076.025391" xlink:href="#DejaVuSans-72"/>
      <use x="1117.107422" xlink:href="#DejaVuSans-65"/>
      <use x="1178.630859" xlink:href="#DejaVuSans-71"/>
      <use x="1242.107422" xlink:href="#DejaVuSans-75"/>
      <use x="1305.486328" xlink:href="#DejaVuSans-65"/>
      <use x="1367.009766" xlink:href="#DejaVuSans-73"/>
      <use x="1419.109375" xlink:href="#DejaVuSans-74"/>
      <use x="1458.318359" xlink:href="#DejaVuSans-73"/>
      <use x="1510.417969" xlink:href="#DejaVuSans-20"/>
      <use x="1542.205078" xlink:href="#DejaVuSans-70"/>
      <use x="1605.681641" xlink:href="#DejaVuSans-65"/>
      <use x="1667.205078" xlink:href="#DejaVuSans-72"/>
      <use x="1708.318359" xlink:href="#DejaVuSans-20"/>
      <use x="1740.105469" xlink:href="#DejaVuSans-73"/>
      <use x="1792.205078" xlink:href="#DejaVuSans-65"/>
      <use x="1853.728516" xlink:href="#DejaVuSans-63"/>
      <use x="1908.708984" xlink:href="#DejaVuSans-6f"/>
      <use x="1969.890625" xlink:href="#DejaVuSans-6e"/>
      <use x="2033.269531" xlink:href="#DejaVuSans-64"/>
     </g>
    </g>
   </g>
  </g>
 </g>
 <defs>
  <clipPath id="p34dcf3e38f">
   <rect height="266.112" width="357.12" x="57.6" y="41.472"/>
  </clipPath>
 </defs>
</svg>
