<?xml version="1.0" encoding="utf-8" standalone="no"?>
<!DOCTYPE svg PUBLIC "-//W3C//DTD SVG 1.1//EN"
  "http://www.w3.org/Graphics/SVG/1.1/DTD/svg11.dtd">
<!-- Created with matplotlib (http://matplotlib.org/) -->
<svg height="345pt" version="1.1" viewBox="0 0 460 345" width="460pt" xmlns="http://www.w3.org/2000/svg" xmlns:xlink="http://www.w3.org/1999/xlink">
 <defs>
  <style type="text/css">
*{stroke-linecap:butt;stroke-linejoin:round;}
  </style>
 </defs>
 <g id="figure_1">
  <g id="patch_1">
   <path d="M 0 345.6 
L 460.8 345.6 
L 460.8 0 
L 0 0 
z
" style="fill:#ffffff;"/>
  </g>
  <g id="axes_1">
   <g id="patch_2">
    <path d="M 57.6 307.584 
L 414.72 307.584 
L 414.72 41.472 
L 57.6 41.472 
z
" style="fill:#ffffff;"/>
   </g>
   <g id="matplotlib.axis_1">
    <g id="xtick_1">
     <g id="line2d_1">
      <path clip-path="url(#p78940dcd3e)" d="M 57.6 307.584 
L 57.6 41.472 
" style="fill:none;stroke:#b0b0b0;stroke-linecap:square;stroke-width:0.8;"/>
     </g>
     <g id="line2d_2">
      <defs>
       <path d="M 0 0 
L 0 3.5 
" id="md9a948628c" style="stroke:#000000;stroke-width:0.8;"/>
      </defs>
      <g>
       <use style="stroke:#000000;stroke-width:0.8;" x="57.6" xlink:href="#md9a948628c" y="307.584"/>
      </g>
     </g>
     <g id="text_1">
      <!-- 0 -->
      <defs>
       <path d="M 31.78125 66.40625 
Q 24.171875 66.40625 20.328125 58.90625 
Q 16.5 51.421875 16.5 36.375 
Q 16.5 21.390625 20.328125 13.890625 
Q 24.171875 6.390625 31.78125 6.390625 
Q 39.453125 6.390625 43.28125 13.890625 
Q 47.125 21.390625 47.125 36.375 
Q 47.125 51.421875 43.28125 58.90625 
Q 39.453125 66.40625 31.78125 66.40625 
M 31.78125 74.21875 
Q 44.046875 74.21875 50.515625 64.515625 
Q 56.984375 54.828125 56.984375 36.375 
Q 56.984375 17.96875 50.515625 8.265625 
Q 44.046875 -1.421875 31.78125 -1.421875 
Q 19.53125 -1.421875 13.0625 8.265625 
Q 6.59375 17.96875 6.59375 36.375 
Q 6.59375 54.828125 13.0625 64.515625 
Q 19.53125 74.21875 31.78125 74.21875 
" id="DejaVuSans-30"/>
      </defs>
      <g transform="translate(54.41875 322.182437)scale(0.1 -0.1)">
       <use xlink:href="#DejaVuSans-30"/>
      </g>
     </g>
    </g>
    <g id="xtick_2">
     <g id="line2d_3">
      <path clip-path="url(#p78940dcd3e)" d="M 129.024 307.584 
L 129.024 41.472 
" style="fill:none;stroke:#b0b0b0;stroke-linecap:square;stroke-width:0.8;"/>
     </g>
     <g id="line2d_4">
      <g>
       <use style="stroke:#000000;stroke-width:0.8;" x="129.024" xlink:href="#md9a948628c" y="307.584"/>
      </g>
     </g>
     <g id="text_2">
      <!-- 200 -->
      <defs>
       <path d="M 19.1875 8.296875 
L 53.609375 8.296875 
L 53.609375 0 
L 7.328125 0 
L 7.328125 8.296875 
Q 12.9375 14.109375 22.625 23.890625 
Q 32.328125 33.6875 34.8125 36.53125 
Q 39.546875 41.84375 41.421875 45.53125 
Q 43.3125 49.21875 43.3125 52.78125 
Q 43.3125 58.59375 39.234375 62.25 
Q 35.15625 65.921875 28.609375 65.921875 
Q 23.96875 65.921875 18.8125 64.3125 
Q 13.671875 62.703125 7.8125 59.421875 
L 7.8125 69.390625 
Q 13.765625 71.78125 18.9375 73 
Q 24.125 74.21875 28.421875 74.21875 
Q 39.75 74.21875 46.484375 68.546875 
Q 53.21875 62.890625 53.21875 53.421875 
Q 53.21875 48.921875 51.53125 44.890625 
Q 49.859375 40.875 45.40625 35.40625 
Q 44.1875 33.984375 37.640625 27.21875 
Q 31.109375 20.453125 19.1875 8.296875 
" id="DejaVuSans-32"/>
      </defs>
      <g transform="translate(119.48025 322.182437)scale(0.1 -0.1)">
       <use xlink:href="#DejaVuSans-32"/>
       <use x="63.623047" xlink:href="#DejaVuSans-30"/>
       <use x="127.246094" xlink:href="#DejaVuSans-30"/>
      </g>
     </g>
    </g>
    <g id="xtick_3">
     <g id="line2d_5">
      <path clip-path="url(#p78940dcd3e)" d="M 200.448 307.584 
L 200.448 41.472 
" style="fill:none;stroke:#b0b0b0;stroke-linecap:square;stroke-width:0.8;"/>
     </g>
     <g id="line2d_6">
      <g>
       <use style="stroke:#000000;stroke-width:0.8;" x="200.448" xlink:href="#md9a948628c" y="307.584"/>
      </g>
     </g>
     <g id="text_3">
      <!-- 400 -->
      <defs>
       <path d="M 37.796875 64.3125 
L 12.890625 25.390625 
L 37.796875 25.390625 
z
M 35.203125 72.90625 
L 47.609375 72.90625 
L 47.609375 25.390625 
L 58.015625 25.390625 
L 58.015625 17.1875 
L 47.609375 17.1875 
L 47.609375 0 
L 37.796875 0 
L 37.796875 17.1875 
L 4.890625 17.1875 
L 4.890625 26.703125 
z
" id="DejaVuSans-34"/>
      </defs>
      <g transform="translate(190.90425 322.182437)scale(0.1 -0.1)">
       <use xlink:href="#DejaVuSans-34"/>
       <use x="63.623047" xlink:href="#DejaVuSans-30"/>
       <use x="127.246094" xlink:href="#DejaVuSans-30"/>
      </g>
     </g>
    </g>
    <g id="xtick_4">
     <g id="line2d_7">
      <path clip-path="url(#p78940dcd3e)" d="M 271.872 307.584 
L 271.872 41.472 
" style="fill:none;stroke:#b0b0b0;stroke-linecap:square;stroke-width:0.8;"/>
     </g>
     <g id="line2d_8">
      <g>
       <use style="stroke:#000000;stroke-width:0.8;" x="271.872" xlink:href="#md9a948628c" y="307.584"/>
      </g>
     </g>
     <g id="text_4">
      <!-- 600 -->
      <defs>
       <path d="M 33.015625 40.375 
Q 26.375 40.375 22.484375 35.828125 
Q 18.609375 31.296875 18.609375 23.390625 
Q 18.609375 15.53125 22.484375 10.953125 
Q 26.375 6.390625 33.015625 6.390625 
Q 39.65625 6.390625 43.53125 10.953125 
Q 47.40625 15.53125 47.40625 23.390625 
Q 47.40625 31.296875 43.53125 35.828125 
Q 39.65625 40.375 33.015625 40.375 
M 52.59375 71.296875 
L 52.59375 62.3125 
Q 48.875 64.0625 45.09375 64.984375 
Q 41.3125 65.921875 37.59375 65.921875 
Q 27.828125 65.921875 22.671875 59.328125 
Q 17.53125 52.734375 16.796875 39.40625 
Q 19.671875 43.65625 24.015625 45.921875 
Q 28.375 48.1875 33.59375 48.1875 
Q 44.578125 48.1875 50.953125 41.515625 
Q 57.328125 34.859375 57.328125 23.390625 
Q 57.328125 12.15625 50.6875 5.359375 
Q 44.046875 -1.421875 33.015625 -1.421875 
Q 20.359375 -1.421875 13.671875 8.265625 
Q 6.984375 17.96875 6.984375 36.375 
Q 6.984375 53.65625 15.1875 63.9375 
Q 23.390625 74.21875 37.203125 74.21875 
Q 40.921875 74.21875 44.703125 73.484375 
Q 48.484375 72.75 52.59375 71.296875 
" id="DejaVuSans-36"/>
      </defs>
      <g transform="translate(262.32825 322.182437)scale(0.1 -0.1)">
       <use xlink:href="#DejaVuSans-36"/>
       <use x="63.623047" xlink:href="#DejaVuSans-30"/>
       <use x="127.246094" xlink:href="#DejaVuSans-30"/>
      </g>
     </g>
    </g>
    <g id="xtick_5">
     <g id="line2d_9">
      <path clip-path="url(#p78940dcd3e)" d="M 343.296 307.584 
L 343.296 41.472 
" style="fill:none;stroke:#b0b0b0;stroke-linecap:square;stroke-width:0.8;"/>
     </g>
     <g id="line2d_10">
      <g>
       <use style="stroke:#000000;stroke-width:0.8;" x="343.296" xlink:href="#md9a948628c" y="307.584"/>
      </g>
     </g>
     <g id="text_5">
      <!-- 800 -->
      <defs>
       <path d="M 31.78125 34.625 
Q 24.75 34.625 20.71875 30.859375 
Q 16.703125 27.09375 16.703125 20.515625 
Q 16.703125 13.921875 20.71875 10.15625 
Q 24.75 6.390625 31.78125 6.390625 
Q 38.8125 6.390625 42.859375 10.171875 
Q 46.921875 13.96875 46.921875 20.515625 
Q 46.921875 27.09375 42.890625 30.859375 
Q 38.875 34.625 31.78125 34.625 
M 21.921875 38.8125 
Q 15.578125 40.375 12.03125 44.71875 
Q 8.5 49.078125 8.5 55.328125 
Q 8.5 64.0625 14.71875 69.140625 
Q 20.953125 74.21875 31.78125 74.21875 
Q 42.671875 74.21875 48.875 69.140625 
Q 55.078125 64.0625 55.078125 55.328125 
Q 55.078125 49.078125 51.53125 44.71875 
Q 48 40.375 41.703125 38.8125 
Q 48.828125 37.15625 52.796875 32.3125 
Q 56.78125 27.484375 56.78125 20.515625 
Q 56.78125 9.90625 50.3125 4.234375 
Q 43.84375 -1.421875 31.78125 -1.421875 
Q 19.734375 -1.421875 13.25 4.234375 
Q 6.78125 9.90625 6.78125 20.515625 
Q 6.78125 27.484375 10.78125 32.3125 
Q 14.796875 37.15625 21.921875 38.8125 
M 18.3125 54.390625 
Q 18.3125 48.734375 21.84375 45.5625 
Q 25.390625 42.390625 31.78125 42.390625 
Q 38.140625 42.390625 41.71875 45.5625 
Q 45.3125 48.734375 45.3125 54.390625 
Q 45.3125 60.0625 41.71875 63.234375 
Q 38.140625 66.40625 31.78125 66.40625 
Q 25.390625 66.40625 21.84375 63.234375 
Q 18.3125 60.0625 18.3125 54.390625 
" id="DejaVuSans-38"/>
      </defs>
      <g transform="translate(333.75225 322.182437)scale(0.1 -0.1)">
       <use xlink:href="#DejaVuSans-38"/>
       <use x="63.623047" xlink:href="#DejaVuSans-30"/>
       <use x="127.246094" xlink:href="#DejaVuSans-30"/>
      </g>
     </g>
    </g>
    <g id="xtick_6">
     <g id="line2d_11">
      <path clip-path="url(#p78940dcd3e)" d="M 414.72 307.584 
L 414.72 41.472 
" style="fill:none;stroke:#b0b0b0;stroke-linecap:square;stroke-width:0.8;"/>
     </g>
     <g id="line2d_12">
      <g>
       <use style="stroke:#000000;stroke-width:0.8;" x="414.72" xlink:href="#md9a948628c" y="307.584"/>
      </g>
     </g>
     <g id="text_6">
      <!-- 1000 -->
      <defs>
       <path d="M 12.40625 8.296875 
L 28.515625 8.296875 
L 28.515625 63.921875 
L 10.984375 60.40625 
L 10.984375 69.390625 
L 28.421875 72.90625 
L 38.28125 72.90625 
L 38.28125 8.296875 
L 54.390625 8.296875 
L 54.390625 0 
L 12.40625 0 
z
" id="DejaVuSans-31"/>
      </defs>
      <g transform="translate(401.995 322.182437)scale(0.1 -0.1)">
       <use xlink:href="#DejaVuSans-31"/>
       <use x="63.623047" xlink:href="#DejaVuSans-30"/>
       <use x="127.246094" xlink:href="#DejaVuSans-30"/>
       <use x="190.869141" xlink:href="#DejaVuSans-30"/>
      </g>
     </g>
    </g>
    <g id="text_7">
     <!-- Number of clients -->
     <defs>
      <path d="M 9.8125 72.90625 
L 23.09375 72.90625 
L 55.421875 11.921875 
L 55.421875 72.90625 
L 64.984375 72.90625 
L 64.984375 0 
L 51.703125 0 
L 19.390625 60.984375 
L 19.390625 0 
L 9.8125 0 
z
" id="DejaVuSans-4e"/>
      <path d="M 8.5 21.578125 
L 8.5 54.6875 
L 17.484375 54.6875 
L 17.484375 21.921875 
Q 17.484375 14.15625 20.5 10.265625 
Q 23.53125 6.390625 29.59375 6.390625 
Q 36.859375 6.390625 41.078125 11.03125 
Q 45.3125 15.671875 45.3125 23.6875 
L 45.3125 54.6875 
L 54.296875 54.6875 
L 54.296875 0 
L 45.3125 0 
L 45.3125 8.40625 
Q 42.046875 3.421875 37.71875 1 
Q 33.40625 -1.421875 27.6875 -1.421875 
Q 18.265625 -1.421875 13.375 4.4375 
Q 8.5 10.296875 8.5 21.578125 
M 31.109375 56 
z
" id="DejaVuSans-75"/>
      <path d="M 52 44.1875 
Q 55.375 50.25 60.0625 53.125 
Q 64.75 56 71.09375 56 
Q 79.640625 56 84.28125 50.015625 
Q 88.921875 44.046875 88.921875 33.015625 
L 88.921875 0 
L 79.890625 0 
L 79.890625 32.71875 
Q 79.890625 40.578125 77.09375 44.375 
Q 74.3125 48.1875 68.609375 48.1875 
Q 61.625 48.1875 57.5625 43.546875 
Q 53.515625 38.921875 53.515625 30.90625 
L 53.515625 0 
L 44.484375 0 
L 44.484375 32.71875 
Q 44.484375 40.625 41.703125 44.40625 
Q 38.921875 48.1875 33.109375 48.1875 
Q 26.21875 48.1875 22.15625 43.53125 
Q 18.109375 38.875 18.109375 30.90625 
L 18.109375 0 
L 9.078125 0 
L 9.078125 54.6875 
L 18.109375 54.6875 
L 18.109375 46.1875 
Q 21.1875 51.21875 25.484375 53.609375 
Q 29.78125 56 35.6875 56 
Q 41.65625 56 45.828125 52.96875 
Q 50 49.953125 52 44.1875 
" id="DejaVuSans-6d"/>
      <path d="M 48.6875 27.296875 
Q 48.6875 37.203125 44.609375 42.84375 
Q 40.53125 48.484375 33.40625 48.484375 
Q 26.265625 48.484375 22.1875 42.84375 
Q 18.109375 37.203125 18.109375 27.296875 
Q 18.109375 17.390625 22.1875 11.75 
Q 26.265625 6.109375 33.40625 6.109375 
Q 40.53125 6.109375 44.609375 11.75 
Q 48.6875 17.390625 48.6875 27.296875 
M 18.109375 46.390625 
Q 20.953125 51.265625 25.265625 53.625 
Q 29.59375 56 35.59375 56 
Q 45.5625 56 51.78125 48.09375 
Q 58.015625 40.1875 58.015625 27.296875 
Q 58.015625 14.40625 51.78125 6.484375 
Q 45.5625 -1.421875 35.59375 -1.421875 
Q 29.59375 -1.421875 25.265625 0.953125 
Q 20.953125 3.328125 18.109375 8.203125 
L 18.109375 0 
L 9.078125 0 
L 9.078125 75.984375 
L 18.109375 75.984375 
z
" id="DejaVuSans-62"/>
      <path d="M 56.203125 29.59375 
L 56.203125 25.203125 
L 14.890625 25.203125 
Q 15.484375 15.921875 20.484375 11.0625 
Q 25.484375 6.203125 34.421875 6.203125 
Q 39.59375 6.203125 44.453125 7.46875 
Q 49.3125 8.734375 54.109375 11.28125 
L 54.109375 2.78125 
Q 49.265625 0.734375 44.1875 -0.34375 
Q 39.109375 -1.421875 33.890625 -1.421875 
Q 20.796875 -1.421875 13.15625 6.1875 
Q 5.515625 13.8125 5.515625 26.8125 
Q 5.515625 40.234375 12.765625 48.109375 
Q 20.015625 56 32.328125 56 
Q 43.359375 56 49.78125 48.890625 
Q 56.203125 41.796875 56.203125 29.59375 
M 47.21875 32.234375 
Q 47.125 39.59375 43.09375 43.984375 
Q 39.0625 48.390625 32.421875 48.390625 
Q 24.90625 48.390625 20.390625 44.140625 
Q 15.875 39.890625 15.1875 32.171875 
z
" id="DejaVuSans-65"/>
      <path d="M 41.109375 46.296875 
Q 39.59375 47.171875 37.8125 47.578125 
Q 36.03125 48 33.890625 48 
Q 26.265625 48 22.1875 43.046875 
Q 18.109375 38.09375 18.109375 28.8125 
L 18.109375 0 
L 9.078125 0 
L 9.078125 54.6875 
L 18.109375 54.6875 
L 18.109375 46.1875 
Q 20.953125 51.171875 25.484375 53.578125 
Q 30.03125 56 36.53125 56 
Q 37.453125 56 38.578125 55.875 
Q 39.703125 55.765625 41.0625 55.515625 
z
" id="DejaVuSans-72"/>
      <path id="DejaVuSans-20"/>
      <path d="M 30.609375 48.390625 
Q 23.390625 48.390625 19.1875 42.75 
Q 14.984375 37.109375 14.984375 27.296875 
Q 14.984375 17.484375 19.15625 11.84375 
Q 23.34375 6.203125 30.609375 6.203125 
Q 37.796875 6.203125 41.984375 11.859375 
Q 46.1875 17.53125 46.1875 27.296875 
Q 46.1875 37.015625 41.984375 42.703125 
Q 37.796875 48.390625 30.609375 48.390625 
M 30.609375 56 
Q 42.328125 56 49.015625 48.375 
Q 55.71875 40.765625 55.71875 27.296875 
Q 55.71875 13.875 49.015625 6.21875 
Q 42.328125 -1.421875 30.609375 -1.421875 
Q 18.84375 -1.421875 12.171875 6.21875 
Q 5.515625 13.875 5.515625 27.296875 
Q 5.515625 40.765625 12.171875 48.375 
Q 18.84375 56 30.609375 56 
" id="DejaVuSans-6f"/>
      <path d="M 37.109375 75.984375 
L 37.109375 68.5 
L 28.515625 68.5 
Q 23.6875 68.5 21.796875 66.546875 
Q 19.921875 64.59375 19.921875 59.515625 
L 19.921875 54.6875 
L 34.71875 54.6875 
L 34.71875 47.703125 
L 19.921875 47.703125 
L 19.921875 0 
L 10.890625 0 
L 10.890625 47.703125 
L 2.296875 47.703125 
L 2.296875 54.6875 
L 10.890625 54.6875 
L 10.890625 58.5 
Q 10.890625 67.625 15.140625 71.796875 
Q 19.390625 75.984375 28.609375 75.984375 
z
" id="DejaVuSans-66"/>
      <path d="M 48.78125 52.59375 
L 48.78125 44.1875 
Q 44.96875 46.296875 41.140625 47.34375 
Q 37.3125 48.390625 33.40625 48.390625 
Q 24.65625 48.390625 19.8125 42.84375 
Q 14.984375 37.3125 14.984375 27.296875 
Q 14.984375 17.28125 19.8125 11.734375 
Q 24.65625 6.203125 33.40625 6.203125 
Q 37.3125 6.203125 41.140625 7.25 
Q 44.96875 8.296875 48.78125 10.40625 
L 48.78125 2.09375 
Q 45.015625 0.34375 40.984375 -0.53125 
Q 36.96875 -1.421875 32.421875 -1.421875 
Q 20.0625 -1.421875 12.78125 6.34375 
Q 5.515625 14.109375 5.515625 27.296875 
Q 5.515625 40.671875 12.859375 48.328125 
Q 20.21875 56 33.015625 56 
Q 37.15625 56 41.109375 55.140625 
Q 45.0625 54.296875 48.78125 52.59375 
" id="DejaVuSans-63"/>
      <path d="M 9.421875 75.984375 
L 18.40625 75.984375 
L 18.40625 0 
L 9.421875 0 
z
" id="DejaVuSans-6c"/>
      <path d="M 9.421875 54.6875 
L 18.40625 54.6875 
L 18.40625 0 
L 9.421875 0 
z
M 9.421875 75.984375 
L 18.40625 75.984375 
L 18.40625 64.59375 
L 9.421875 64.59375 
z
" id="DejaVuSans-69"/>
      <path d="M 54.890625 33.015625 
L 54.890625 0 
L 45.90625 0 
L 45.90625 32.71875 
Q 45.90625 40.484375 42.875 44.328125 
Q 39.84375 48.1875 33.796875 48.1875 
Q 26.515625 48.1875 22.3125 43.546875 
Q 18.109375 38.921875 18.109375 30.90625 
L 18.109375 0 
L 9.078125 0 
L 9.078125 54.6875 
L 18.109375 54.6875 
L 18.109375 46.1875 
Q 21.34375 51.125 25.703125 53.5625 
Q 30.078125 56 35.796875 56 
Q 45.21875 56 50.046875 50.171875 
Q 54.890625 44.34375 54.890625 33.015625 
" id="DejaVuSans-6e"/>
      <path d="M 18.3125 70.21875 
L 18.3125 54.6875 
L 36.8125 54.6875 
L 36.8125 47.703125 
L 18.3125 47.703125 
L 18.3125 18.015625 
Q 18.3125 11.328125 20.140625 9.421875 
Q 21.96875 7.515625 27.59375 7.515625 
L 36.8125 7.515625 
L 36.8125 0 
L 27.59375 0 
Q 17.1875 0 13.234375 3.875 
Q 9.28125 7.765625 9.28125 18.015625 
L 9.28125 47.703125 
L 2.6875 47.703125 
L 2.6875 54.6875 
L 9.28125 54.6875 
L 9.28125 70.21875 
z
" id="DejaVuSans-74"/>
      <path d="M 44.28125 53.078125 
L 44.28125 44.578125 
Q 40.484375 46.53125 36.375 47.5 
Q 32.28125 48.484375 27.875 48.484375 
Q 21.1875 48.484375 17.84375 46.4375 
Q 14.5 44.390625 14.5 40.28125 
Q 14.5 37.15625 16.890625 35.375 
Q 19.28125 33.59375 26.515625 31.984375 
L 29.59375 31.296875 
Q 39.15625 29.25 43.1875 25.515625 
Q 47.21875 21.78125 47.21875 15.09375 
Q 47.21875 7.46875 41.1875 3.015625 
Q 35.15625 -1.421875 24.609375 -1.421875 
Q 20.21875 -1.421875 15.453125 -0.5625 
Q 10.6875 0.296875 5.421875 2 
L 5.421875 11.28125 
Q 10.40625 8.6875 15.234375 7.390625 
Q 20.0625 6.109375 24.8125 6.109375 
Q 31.15625 6.109375 34.5625 8.28125 
Q 37.984375 10.453125 37.984375 14.40625 
Q 37.984375 18.0625 35.515625 20.015625 
Q 33.0625 21.96875 24.703125 23.78125 
L 21.578125 24.515625 
Q 13.234375 26.265625 9.515625 29.90625 
Q 5.8125 33.546875 5.8125 39.890625 
Q 5.8125 47.609375 11.28125 51.796875 
Q 16.75 56 26.8125 56 
Q 31.78125 56 36.171875 55.265625 
Q 40.578125 54.546875 44.28125 53.078125 
" id="DejaVuSans-73"/>
     </defs>
     <g transform="translate(191.738906 335.860562)scale(0.1 -0.1)">
      <use xlink:href="#DejaVuSans-4e"/>
      <use x="74.804688" xlink:href="#DejaVuSans-75"/>
      <use x="138.183594" xlink:href="#DejaVuSans-6d"/>
      <use x="235.595703" xlink:href="#DejaVuSans-62"/>
      <use x="299.072266" xlink:href="#DejaVuSans-65"/>
      <use x="360.595703" xlink:href="#DejaVuSans-72"/>
      <use x="401.708984" xlink:href="#DejaVuSans-20"/>
      <use x="433.496094" xlink:href="#DejaVuSans-6f"/>
      <use x="494.677734" xlink:href="#DejaVuSans-66"/>
      <use x="529.882812" xlink:href="#DejaVuSans-20"/>
      <use x="561.669922" xlink:href="#DejaVuSans-63"/>
      <use x="616.650391" xlink:href="#DejaVuSans-6c"/>
      <use x="644.433594" xlink:href="#DejaVuSans-69"/>
      <use x="672.216797" xlink:href="#DejaVuSans-65"/>
      <use x="733.740234" xlink:href="#DejaVuSans-6e"/>
      <use x="797.119141" xlink:href="#DejaVuSans-74"/>
      <use x="836.328125" xlink:href="#DejaVuSans-73"/>
     </g>
    </g>
   </g>
   <g id="matplotlib.axis_2">
    <g id="ytick_1">
     <g id="line2d_13">
      <path clip-path="url(#p78940dcd3e)" d="M 57.6 295.793609 
L 414.72 295.793609 
" style="fill:none;stroke:#b0b0b0;stroke-linecap:square;stroke-width:0.8;"/>
     </g>
     <g id="line2d_14">
      <defs>
       <path d="M 0 0 
L -3.5 0 
" id="m8fba30db35" style="stroke:#000000;stroke-width:0.8;"/>
      </defs>
      <g>
       <use style="stroke:#000000;stroke-width:0.8;" x="57.6" xlink:href="#m8fba30db35" y="295.793609"/>
      </g>
     </g>
     <g id="text_8">
      <!-- 0 -->
      <g transform="translate(44.2375 299.592828)scale(0.1 -0.1)">
       <use xlink:href="#DejaVuSans-30"/>
      </g>
     </g>
    </g>
    <g id="ytick_2">
     <g id="line2d_15">
      <path clip-path="url(#p78940dcd3e)" d="M 57.6 263.351043 
L 414.72 263.351043 
" style="fill:none;stroke:#b0b0b0;stroke-linecap:square;stroke-width:0.8;"/>
     </g>
     <g id="line2d_16">
      <g>
       <use style="stroke:#000000;stroke-width:0.8;" x="57.6" xlink:href="#m8fba30db35" y="263.351043"/>
      </g>
     </g>
     <g id="text_9">
      <!-- 100 -->
      <g transform="translate(31.5125 267.150261)scale(0.1 -0.1)">
       <use xlink:href="#DejaVuSans-31"/>
       <use x="63.623047" xlink:href="#DejaVuSans-30"/>
       <use x="127.246094" xlink:href="#DejaVuSans-30"/>
      </g>
     </g>
    </g>
    <g id="ytick_3">
     <g id="line2d_17">
      <path clip-path="url(#p78940dcd3e)" d="M 57.6 230.908476 
L 414.72 230.908476 
" style="fill:none;stroke:#b0b0b0;stroke-linecap:square;stroke-width:0.8;"/>
     </g>
     <g id="line2d_18">
      <g>
       <use style="stroke:#000000;stroke-width:0.8;" x="57.6" xlink:href="#m8fba30db35" y="230.908476"/>
      </g>
     </g>
     <g id="text_10">
      <!-- 200 -->
      <g transform="translate(31.5125 234.707695)scale(0.1 -0.1)">
       <use xlink:href="#DejaVuSans-32"/>
       <use x="63.623047" xlink:href="#DejaVuSans-30"/>
       <use x="127.246094" xlink:href="#DejaVuSans-30"/>
      </g>
     </g>
    </g>
    <g id="ytick_4">
     <g id="line2d_19">
      <path clip-path="url(#p78940dcd3e)" d="M 57.6 198.46591 
L 414.72 198.46591 
" style="fill:none;stroke:#b0b0b0;stroke-linecap:square;stroke-width:0.8;"/>
     </g>
     <g id="line2d_20">
      <g>
       <use style="stroke:#000000;stroke-width:0.8;" x="57.6" xlink:href="#m8fba30db35" y="198.46591"/>
      </g>
     </g>
     <g id="text_11">
      <!-- 300 -->
      <defs>
       <path d="M 40.578125 39.3125 
Q 47.65625 37.796875 51.625 33 
Q 55.609375 28.21875 55.609375 21.1875 
Q 55.609375 10.40625 48.1875 4.484375 
Q 40.765625 -1.421875 27.09375 -1.421875 
Q 22.515625 -1.421875 17.65625 -0.515625 
Q 12.796875 0.390625 7.625 2.203125 
L 7.625 11.71875 
Q 11.71875 9.328125 16.59375 8.109375 
Q 21.484375 6.890625 26.8125 6.890625 
Q 36.078125 6.890625 40.9375 10.546875 
Q 45.796875 14.203125 45.796875 21.1875 
Q 45.796875 27.640625 41.28125 31.265625 
Q 36.765625 34.90625 28.71875 34.90625 
L 20.21875 34.90625 
L 20.21875 43.015625 
L 29.109375 43.015625 
Q 36.375 43.015625 40.234375 45.921875 
Q 44.09375 48.828125 44.09375 54.296875 
Q 44.09375 59.90625 40.109375 62.90625 
Q 36.140625 65.921875 28.71875 65.921875 
Q 24.65625 65.921875 20.015625 65.03125 
Q 15.375 64.15625 9.8125 62.3125 
L 9.8125 71.09375 
Q 15.4375 72.65625 20.34375 73.4375 
Q 25.25 74.21875 29.59375 74.21875 
Q 40.828125 74.21875 47.359375 69.109375 
Q 53.90625 64.015625 53.90625 55.328125 
Q 53.90625 49.265625 50.4375 45.09375 
Q 46.96875 40.921875 40.578125 39.3125 
" id="DejaVuSans-33"/>
      </defs>
      <g transform="translate(31.5125 202.265129)scale(0.1 -0.1)">
       <use xlink:href="#DejaVuSans-33"/>
       <use x="63.623047" xlink:href="#DejaVuSans-30"/>
       <use x="127.246094" xlink:href="#DejaVuSans-30"/>
      </g>
     </g>
    </g>
    <g id="ytick_5">
     <g id="line2d_21">
      <path clip-path="url(#p78940dcd3e)" d="M 57.6 166.023343 
L 414.72 166.023343 
" style="fill:none;stroke:#b0b0b0;stroke-linecap:square;stroke-width:0.8;"/>
     </g>
     <g id="line2d_22">
      <g>
       <use style="stroke:#000000;stroke-width:0.8;" x="57.6" xlink:href="#m8fba30db35" y="166.023343"/>
      </g>
     </g>
     <g id="text_12">
      <!-- 400 -->
      <g transform="translate(31.5125 169.822562)scale(0.1 -0.1)">
       <use xlink:href="#DejaVuSans-34"/>
       <use x="63.623047" xlink:href="#DejaVuSans-30"/>
       <use x="127.246094" xlink:href="#DejaVuSans-30"/>
      </g>
     </g>
    </g>
    <g id="ytick_6">
     <g id="line2d_23">
      <path clip-path="url(#p78940dcd3e)" d="M 57.6 133.580777 
L 414.72 133.580777 
" style="fill:none;stroke:#b0b0b0;stroke-linecap:square;stroke-width:0.8;"/>
     </g>
     <g id="line2d_24">
      <g>
       <use style="stroke:#000000;stroke-width:0.8;" x="57.6" xlink:href="#m8fba30db35" y="133.580777"/>
      </g>
     </g>
     <g id="text_13">
      <!-- 500 -->
      <defs>
       <path d="M 10.796875 72.90625 
L 49.515625 72.90625 
L 49.515625 64.59375 
L 19.828125 64.59375 
L 19.828125 46.734375 
Q 21.96875 47.46875 24.109375 47.828125 
Q 26.265625 48.1875 28.421875 48.1875 
Q 40.625 48.1875 47.75 41.5 
Q 54.890625 34.8125 54.890625 23.390625 
Q 54.890625 11.625 47.5625 5.09375 
Q 40.234375 -1.421875 26.90625 -1.421875 
Q 22.3125 -1.421875 17.546875 -0.640625 
Q 12.796875 0.140625 7.71875 1.703125 
L 7.71875 11.625 
Q 12.109375 9.234375 16.796875 8.0625 
Q 21.484375 6.890625 26.703125 6.890625 
Q 35.15625 6.890625 40.078125 11.328125 
Q 45.015625 15.765625 45.015625 23.390625 
Q 45.015625 31 40.078125 35.4375 
Q 35.15625 39.890625 26.703125 39.890625 
Q 22.75 39.890625 18.8125 39.015625 
Q 14.890625 38.140625 10.796875 36.28125 
z
" id="DejaVuSans-35"/>
      </defs>
      <g transform="translate(31.5125 137.379996)scale(0.1 -0.1)">
       <use xlink:href="#DejaVuSans-35"/>
       <use x="63.623047" xlink:href="#DejaVuSans-30"/>
       <use x="127.246094" xlink:href="#DejaVuSans-30"/>
      </g>
     </g>
    </g>
    <g id="ytick_7">
     <g id="line2d_25">
      <path clip-path="url(#p78940dcd3e)" d="M 57.6 101.138211 
L 414.72 101.138211 
" style="fill:none;stroke:#b0b0b0;stroke-linecap:square;stroke-width:0.8;"/>
     </g>
     <g id="line2d_26">
      <g>
       <use style="stroke:#000000;stroke-width:0.8;" x="57.6" xlink:href="#m8fba30db35" y="101.138211"/>
      </g>
     </g>
     <g id="text_14">
      <!-- 600 -->
      <g transform="translate(31.5125 104.937429)scale(0.1 -0.1)">
       <use xlink:href="#DejaVuSans-36"/>
       <use x="63.623047" xlink:href="#DejaVuSans-30"/>
       <use x="127.246094" xlink:href="#DejaVuSans-30"/>
      </g>
     </g>
    </g>
    <g id="ytick_8">
     <g id="line2d_27">
      <path clip-path="url(#p78940dcd3e)" d="M 57.6 68.695644 
L 414.72 68.695644 
" style="fill:none;stroke:#b0b0b0;stroke-linecap:square;stroke-width:0.8;"/>
     </g>
     <g id="line2d_28">
      <g>
       <use style="stroke:#000000;stroke-width:0.8;" x="57.6" xlink:href="#m8fba30db35" y="68.695644"/>
      </g>
     </g>
     <g id="text_15">
      <!-- 700 -->
      <defs>
       <path d="M 8.203125 72.90625 
L 55.078125 72.90625 
L 55.078125 68.703125 
L 28.609375 0 
L 18.3125 0 
L 43.21875 64.59375 
L 8.203125 64.59375 
z
" id="DejaVuSans-37"/>
      </defs>
      <g transform="translate(31.5125 72.494863)scale(0.1 -0.1)">
       <use xlink:href="#DejaVuSans-37"/>
       <use x="63.623047" xlink:href="#DejaVuSans-30"/>
       <use x="127.246094" xlink:href="#DejaVuSans-30"/>
      </g>
     </g>
    </g>
    <g id="text_16">
     <!-- Successful download requests per second -->
     <defs>
      <path d="M 53.515625 70.515625 
L 53.515625 60.890625 
Q 47.90625 63.578125 42.921875 64.890625 
Q 37.9375 66.21875 33.296875 66.21875 
Q 25.25 66.21875 20.875 63.09375 
Q 16.5 59.96875 16.5 54.203125 
Q 16.5 49.359375 19.40625 46.890625 
Q 22.3125 44.4375 30.421875 42.921875 
L 36.375 41.703125 
Q 47.40625 39.59375 52.65625 34.296875 
Q 57.90625 29 57.90625 20.125 
Q 57.90625 9.515625 50.796875 4.046875 
Q 43.703125 -1.421875 29.984375 -1.421875 
Q 24.8125 -1.421875 18.96875 -0.25 
Q 13.140625 0.921875 6.890625 3.21875 
L 6.890625 13.375 
Q 12.890625 10.015625 18.65625 8.296875 
Q 24.421875 6.59375 29.984375 6.59375 
Q 38.421875 6.59375 43.015625 9.90625 
Q 47.609375 13.234375 47.609375 19.390625 
Q 47.609375 24.75 44.3125 27.78125 
Q 41.015625 30.8125 33.5 32.328125 
L 27.484375 33.5 
Q 16.453125 35.6875 11.515625 40.375 
Q 6.59375 45.0625 6.59375 53.421875 
Q 6.59375 63.09375 13.40625 68.65625 
Q 20.21875 74.21875 32.171875 74.21875 
Q 37.3125 74.21875 42.625 73.28125 
Q 47.953125 72.359375 53.515625 70.515625 
" id="DejaVuSans-53"/>
      <path d="M 45.40625 46.390625 
L 45.40625 75.984375 
L 54.390625 75.984375 
L 54.390625 0 
L 45.40625 0 
L 45.40625 8.203125 
Q 42.578125 3.328125 38.25 0.953125 
Q 33.9375 -1.421875 27.875 -1.421875 
Q 17.96875 -1.421875 11.734375 6.484375 
Q 5.515625 14.40625 5.515625 27.296875 
Q 5.515625 40.1875 11.734375 48.09375 
Q 17.96875 56 27.875 56 
Q 33.9375 56 38.25 53.625 
Q 42.578125 51.265625 45.40625 46.390625 
M 14.796875 27.296875 
Q 14.796875 17.390625 18.875 11.75 
Q 22.953125 6.109375 30.078125 6.109375 
Q 37.203125 6.109375 41.296875 11.75 
Q 45.40625 17.390625 45.40625 27.296875 
Q 45.40625 37.203125 41.296875 42.84375 
Q 37.203125 48.484375 30.078125 48.484375 
Q 22.953125 48.484375 18.875 42.84375 
Q 14.796875 37.203125 14.796875 27.296875 
" id="DejaVuSans-64"/>
      <path d="M 4.203125 54.6875 
L 13.1875 54.6875 
L 24.421875 12.015625 
L 35.59375 54.6875 
L 46.1875 54.6875 
L 57.421875 12.015625 
L 68.609375 54.6875 
L 77.59375 54.6875 
L 63.28125 0 
L 52.6875 0 
L 40.921875 44.828125 
L 29.109375 0 
L 18.5 0 
z
" id="DejaVuSans-77"/>
      <path d="M 34.28125 27.484375 
Q 23.390625 27.484375 19.1875 25 
Q 14.984375 22.515625 14.984375 16.5 
Q 14.984375 11.71875 18.140625 8.90625 
Q 21.296875 6.109375 26.703125 6.109375 
Q 34.1875 6.109375 38.703125 11.40625 
Q 43.21875 16.703125 43.21875 25.484375 
L 43.21875 27.484375 
z
M 52.203125 31.203125 
L 52.203125 0 
L 43.21875 0 
L 43.21875 8.296875 
Q 40.140625 3.328125 35.546875 0.953125 
Q 30.953125 -1.421875 24.3125 -1.421875 
Q 15.921875 -1.421875 10.953125 3.296875 
Q 6 8.015625 6 15.921875 
Q 6 25.140625 12.171875 29.828125 
Q 18.359375 34.515625 30.609375 34.515625 
L 43.21875 34.515625 
L 43.21875 35.40625 
Q 43.21875 41.609375 39.140625 45 
Q 35.0625 48.390625 27.6875 48.390625 
Q 23 48.390625 18.546875 47.265625 
Q 14.109375 46.140625 10.015625 43.890625 
L 10.015625 52.203125 
Q 14.9375 54.109375 19.578125 55.046875 
Q 24.21875 56 28.609375 56 
Q 40.484375 56 46.34375 49.84375 
Q 52.203125 43.703125 52.203125 31.203125 
" id="DejaVuSans-61"/>
      <path d="M 14.796875 27.296875 
Q 14.796875 17.390625 18.875 11.75 
Q 22.953125 6.109375 30.078125 6.109375 
Q 37.203125 6.109375 41.296875 11.75 
Q 45.40625 17.390625 45.40625 27.296875 
Q 45.40625 37.203125 41.296875 42.84375 
Q 37.203125 48.484375 30.078125 48.484375 
Q 22.953125 48.484375 18.875 42.84375 
Q 14.796875 37.203125 14.796875 27.296875 
M 45.40625 8.203125 
Q 42.578125 3.328125 38.25 0.953125 
Q 33.9375 -1.421875 27.875 -1.421875 
Q 17.96875 -1.421875 11.734375 6.484375 
Q 5.515625 14.40625 5.515625 27.296875 
Q 5.515625 40.1875 11.734375 48.09375 
Q 17.96875 56 27.875 56 
Q 33.9375 56 38.25 53.625 
Q 42.578125 51.265625 45.40625 46.390625 
L 45.40625 54.6875 
L 54.390625 54.6875 
L 54.390625 -20.796875 
L 45.40625 -20.796875 
z
" id="DejaVuSans-71"/>
      <path d="M 18.109375 8.203125 
L 18.109375 -20.796875 
L 9.078125 -20.796875 
L 9.078125 54.6875 
L 18.109375 54.6875 
L 18.109375 46.390625 
Q 20.953125 51.265625 25.265625 53.625 
Q 29.59375 56 35.59375 56 
Q 45.5625 56 51.78125 48.09375 
Q 58.015625 40.1875 58.015625 27.296875 
Q 58.015625 14.40625 51.78125 6.484375 
Q 45.5625 -1.421875 35.59375 -1.421875 
Q 29.59375 -1.421875 25.265625 0.953125 
Q 20.953125 3.328125 18.109375 8.203125 
M 48.6875 27.296875 
Q 48.6875 37.203125 44.609375 42.84375 
Q 40.53125 48.484375 33.40625 48.484375 
Q 26.265625 48.484375 22.1875 42.84375 
Q 18.109375 37.203125 18.109375 27.296875 
Q 18.109375 17.390625 22.1875 11.75 
Q 26.265625 6.109375 33.40625 6.109375 
Q 40.53125 6.109375 44.609375 11.75 
Q 48.6875 17.390625 48.6875 27.296875 
" id="DejaVuSans-70"/>
     </defs>
     <g transform="translate(25.432812 279.366281)rotate(-90)scale(0.1 -0.1)">
      <use xlink:href="#DejaVuSans-53"/>
      <use x="63.476562" xlink:href="#DejaVuSans-75"/>
      <use x="126.855469" xlink:href="#DejaVuSans-63"/>
      <use x="181.835938" xlink:href="#DejaVuSans-63"/>
      <use x="236.816406" xlink:href="#DejaVuSans-65"/>
      <use x="298.339844" xlink:href="#DejaVuSans-73"/>
      <use x="350.439453" xlink:href="#DejaVuSans-73"/>
      <use x="402.539062" xlink:href="#DejaVuSans-66"/>
      <use x="437.744141" xlink:href="#DejaVuSans-75"/>
      <use x="501.123047" xlink:href="#DejaVuSans-6c"/>
      <use x="528.90625" xlink:href="#DejaVuSans-20"/>
      <use x="560.693359" xlink:href="#DejaVuSans-64"/>
      <use x="624.169922" xlink:href="#DejaVuSans-6f"/>
      <use x="685.351562" xlink:href="#DejaVuSans-77"/>
      <use x="767.138672" xlink:href="#DejaVuSans-6e"/>
      <use x="830.517578" xlink:href="#DejaVuSans-6c"/>
      <use x="858.300781" xlink:href="#DejaVuSans-6f"/>
      <use x="919.482422" xlink:href="#DejaVuSans-61"/>
      <use x="980.761719" xlink:href="#DejaVuSans-64"/>
      <use x="1044.238281" xlink:href="#DejaVuSans-20"/>
      <use x="1076.025391" xlink:href="#DejaVuSans-72"/>
      <use x="1117.107422" xlink:href="#DejaVuSans-65"/>
      <use x="1178.630859" xlink:href="#DejaVuSans-71"/>
      <use x="1242.107422" xlink:href="#DejaVuSans-75"/>
      <use x="1305.486328" xlink:href="#DejaVuSans-65"/>
      <use x="1367.009766" xlink:href="#DejaVuSans-73"/>
      <use x="1419.109375" xlink:href="#DejaVuSans-74"/>
      <use x="1458.318359" xlink:href="#DejaVuSans-73"/>
      <use x="1510.417969" xlink:href="#DejaVuSans-20"/>
      <use x="1542.205078" xlink:href="#DejaVuSans-70"/>
      <use x="1605.681641" xlink:href="#DejaVuSans-65"/>
      <use x="1667.205078" xlink:href="#DejaVuSans-72"/>
      <use x="1708.318359" xlink:href="#DejaVuSans-20"/>
      <use x="1740.105469" xlink:href="#DejaVuSans-73"/>
      <use x="1792.205078" xlink:href="#DejaVuSans-65"/>
      <use x="1853.728516" xlink:href="#DejaVuSans-63"/>
      <use x="1908.708984" xlink:href="#DejaVuSans-6f"/>
      <use x="1969.890625" xlink:href="#DejaVuSans-6e"/>
      <use x="2033.269531" xlink:href="#DejaVuSans-64"/>
     </g>
    </g>
   </g>
   <g id="line2d_29">
    <path clip-path="url(#p78940dcd3e)" d="M 57.6 295.488 
L 57.95712 295.471454 
L 60.81408 292.976621 
L 61.52832 292.234335 
L 61.88544 292.136034 
L 63.31392 290.688122 
L 64.02816 290.338716 
L 64.38528 289.803414 
L 65.09952 289.306393 
L 65.45664 288.663382 
L 65.81376 288.775957 
L 66.528 287.910714 
L 66.88512 287.912985 
L 67.24224 287.10841 
L 67.59936 287.149612 
L 67.95648 286.435226 
L 68.3136 286.151354 
L 68.67072 286.241869 
L 69.38496 285.168344 
L 69.74208 284.796228 
L 70.0992 285.011646 
L 70.81344 284.467909 
L 71.17056 283.572494 
L 71.52768 283.977053 
L 72.24192 283.362591 
L 72.95616 282.204716 
L 73.31328 282.323131 
L 73.6704 281.642162 
L 74.02752 281.592849 
L 74.38464 281.357965 
L 74.74176 280.875219 
L 75.09888 280.161483 
L 75.456 280.569286 
L 76.17024 279.14084 
L 76.52736 279.460723 
L 76.88448 279.226164 
L 77.2416 278.810899 
L 77.59872 278.678858 
L 78.67008 276.869536 
L 79.0272 277.10734 
L 79.38432 276.295951 
L 79.74144 275.938434 
L 80.09856 276.595071 
L 81.16992 274.937581 
L 81.52704 275.411242 
L 81.88416 274.7147 
L 82.24128 274.646247 
L 82.95552 273.222018 
L 83.31264 274.040544 
L 83.66976 273.718714 
L 84.02688 272.260096 
L 84.384 273.004977 
L 84.74112 271.277086 
L 85.09824 271.809468 
L 85.45536 271.328021 
L 85.81248 270.508522 
L 86.88384 269.786674 
L 87.24096 270.317759 
L 87.59808 269.236124 
L 88.31232 269.277651 
L 88.66944 268.995076 
L 89.02656 268.045482 
L 89.38368 268.569105 
L 89.7408 268.132428 
L 90.09792 266.283202 
L 90.45504 266.621253 
L 90.81216 265.900704 
L 91.5264 265.132788 
L 91.88352 265.734598 
L 92.24064 265.857555 
L 92.59776 265.32647 
L 92.95488 264.311667 
L 93.312 264.822637 
L 93.66912 263.061006 
L 94.02624 263.04738 
L 94.38336 263.771823 
L 94.74048 264.108252 
L 95.0976 262.210686 
L 95.45472 261.626071 
L 95.81184 262.65223 
L 96.16896 262.406315 
L 96.52608 262.431296 
L 96.8832 260.164209 
L 97.59744 261.510576 
L 97.95456 260.393578 
L 98.31168 260.77932 
L 98.6688 258.659523 
L 99.02592 260.323178 
L 99.74016 258.277674 
L 100.09728 258.605668 
L 100.4544 258.372406 
L 100.81152 258.30233 
L 101.16864 258.070042 
L 101.52576 257.372526 
L 101.88288 257.758593 
L 102.24 256.225357 
L 102.59712 255.925912 
L 102.95424 255.995988 
L 103.31136 254.357314 
L 103.66848 256.678904 
L 104.0256 253.813252 
L 104.38272 255.188817 
L 104.73984 253.769779 
L 105.09696 254.363478 
L 105.45408 253.711383 
L 105.8112 252.768602 
L 106.16832 254.46989 
L 106.52544 254.075713 
L 106.88256 253.909282 
L 107.23968 251.490689 
L 107.5968 253.432701 
L 107.95392 253.123524 
L 108.31104 250.831132 
L 108.66816 251.053688 
L 109.02528 249.115569 
L 109.3824 251.689238 
L 109.73952 249.020837 
L 110.09664 250.216345 
L 110.45376 248.245784 
L 110.81088 248.963413 
L 111.168 250.505408 
L 111.52512 249.655089 
L 111.88224 249.190511 
L 112.23936 249.544135 
L 112.59648 246.706384 
L 112.9536 248.365821 
L 113.31072 245.93782 
L 113.66784 245.325953 
L 114.02496 245.219541 
L 114.38208 247.080447 
L 114.7392 244.851967 
L 115.09632 244.891871 
L 115.45344 246.216501 
L 115.81056 244.13012 
L 116.16768 244.230367 
L 116.5248 242.3195 
L 116.88192 243.465696 
L 117.23904 241.796526 
L 117.59616 244.353649 
L 117.95328 244.450652 
L 118.3104 240.8226 
L 118.66752 244.029223 
L 119.02464 240.02354 
L 119.38176 242.374977 
L 119.73888 242.591693 
L 120.45312 238.826733 
L 120.81024 239.045721 
L 121.16736 241.065595 
L 121.52448 240.018024 
L 122.23872 238.687879 
L 122.59584 237.711034 
L 122.95296 239.939513 
L 123.31008 239.471367 
L 123.6672 238.253798 
L 124.02432 237.75256 
L 124.38144 238.527613 
L 124.73856 238.392327 
L 125.4528 235.071831 
L 125.80992 237.983551 
L 126.16704 236.52104 
L 126.52416 234.472292 
L 126.88128 234.533609 
L 127.2384 232.991289 
L 127.59552 236.648539 
L 127.95264 232.534822 
L 128.30976 233.621324 
L 128.66688 231.820437 
L 129.024 233.915253 
L 129.38112 233.510046 
L 129.73824 234.677329 
L 130.09536 230.663535 
L 130.45248 230.194415 
L 130.8096 233.830254 
L 131.16672 229.958233 
L 131.52384 233.220982 
L 131.88096 230.651207 
L 132.23808 229.289268 
L 132.5952 228.86135 
L 132.95232 231.508664 
L 133.30944 230.337487 
L 133.66656 228.756561 
L 134.02368 231.061281 
L 134.73792 226.164075 
L 135.09504 229.202646 
L 135.45216 227.915325 
L 135.80928 228.16124 
L 136.1664 226.872945 
L 136.52352 226.328884 
L 136.88064 226.765885 
L 137.23776 227.994485 
L 137.59488 224.424505 
L 137.952 225.020475 
L 138.30912 224.526375 
L 138.66624 227.149356 
L 139.02336 222.228468 
L 139.38048 221.942324 
L 139.7376 223.275389 
L 140.09472 225.714421 
L 140.45184 221.201336 
L 140.80896 225.292668 
L 141.16608 222.051331 
L 141.5232 222.494172 
L 141.88032 219.866973 
L 142.23744 222.747549 
L 142.59456 223.606952 
L 142.95168 222.788102 
L 143.3088 220.454832 
L 143.66592 219.276194 
L 144.02304 218.887208 
L 144.38016 220.280291 
L 144.73728 217.741985 
L 145.0944 219.146748 
L 145.45152 221.493319 
L 145.80864 219.682375 
L 146.16576 215.53881 
L 146.52288 218.048243 
L 146.88 218.604633 
L 147.23712 214.471126 
L 147.59424 218.261715 
L 147.95136 217.540517 
L 148.30848 213.602962 
L 148.6656 214.147998 
L 149.02272 217.676451 
L 149.37984 218.013205 
L 149.73696 214.288798 
L 150.09408 213.890728 
L 150.4512 216.963688 
L 150.80832 216.126994 
L 151.16544 216.279799 
L 151.52256 212.375011 
L 151.87968 213.35283 
L 152.2368 213.2993 
L 152.59392 211.816026 
L 152.95104 213.392086 
L 153.30816 212.292283 
L 153.66528 212.463255 
L 154.0224 210.393744 
L 154.37952 210.766833 
L 154.73664 208.581502 
L 155.09376 212.414591 
L 155.45088 212.065509 
L 155.808 211.99738 
L 156.16512 211.755358 
L 156.52224 208.318068 
L 156.87936 208.49488 
L 157.23648 206.254721 
L 157.5936 210.397637 
L 157.95072 208.528945 
L 158.30784 208.378736 
L 158.66496 207.406757 
L 159.02208 209.209915 
L 159.3792 208.484174 
L 159.73632 203.793628 
L 160.09344 205.948788 
L 160.45056 203.045827 
L 160.80768 203.76735 
L 161.1648 207.235784 
L 161.52192 206.513937 
L 161.87904 203.899391 
L 162.23616 202.167607 
L 162.59328 201.861349 
L 162.9504 206.666742 
L 163.30752 202.822298 
L 163.66464 204.039218 
L 164.02176 205.780735 
L 164.37888 203.373821 
L 164.736 204.393167 
L 165.09312 201.682266 
L 165.45024 200.814103 
L 165.80736 204.187805 
L 166.16448 197.451106 
L 166.5216 199.475847 
L 166.87872 198.027286 
L 167.23584 202.121214 
L 167.59296 197.402442 
L 167.95008 200.879312 
L 168.3072 197.192864 
L 168.66432 196.719526 
L 169.02144 197.059849 
L 169.37856 198.669649 
L 169.73568 196.106038 
L 170.0928 199.637086 
L 170.44992 194.9832 
L 170.80704 196.406131 
L 171.16416 198.678084 
L 171.52128 192.939319 
L 171.8784 194.375551 
L 172.23552 197.091318 
L 172.59264 198.187877 
L 173.30688 192.872487 
L 173.664 192.141232 
L 174.02112 196.80485 
L 174.37824 191.347686 
L 174.73536 190.037331 
L 175.09248 192.99512 
L 175.4496 194.054045 
L 175.80672 191.287668 
L 176.16384 194.319425 
L 176.52096 194.649042 
L 176.87808 188.095319 
L 177.2352 194.239617 
L 177.59232 190.075289 
L 177.94944 190.816926 
L 178.66368 192.950025 
L 179.37792 187.898068 
L 179.73504 187.348816 
L 180.09216 185.333483 
L 180.44928 191.948523 
L 180.8064 190.839636 
L 181.16352 186.276913 
L 181.52064 186.015426 
L 181.87776 189.49262 
L 182.23488 183.726279 
L 182.592 182.697849 
L 182.94912 186.838494 
L 183.30624 181.747607 
L 183.66336 182.329626 
L 184.02048 185.247835 
L 184.73472 187.743966 
L 185.09184 185.130068 
L 185.44896 180.071948 
L 185.80608 185.292606 
L 186.1632 183.725954 
L 186.52032 179.225197 
L 186.87744 186.309356 
L 187.23456 184.819918 
L 187.59168 183.952079 
L 187.9488 178.198714 
L 188.30592 183.935858 
L 188.66304 183.571852 
L 189.02016 178.795009 
L 189.37728 183.605592 
L 189.7344 177.453508 
L 190.09152 176.400747 
L 190.80576 182.73678 
L 191.16288 179.741358 
L 191.52 181.849801 
L 191.87712 175.833327 
L 192.23424 181.156179 
L 192.59136 176.731661 
L 192.94848 179.62716 
L 193.3056 177.016507 
L 193.66272 179.879564 
L 194.01984 172.739279 
L 194.37696 176.061398 
L 194.73408 172.644222 
L 195.0912 179.362105 
L 195.44832 178.410889 
L 195.80544 171.251463 
L 196.16256 173.132483 
L 196.51968 176.199928 
L 196.8768 172.447296 
L 197.23392 176.668398 
L 197.94816 169.070674 
L 198.30528 173.758949 
L 198.6624 168.111996 
L 199.01952 172.474223 
L 199.37664 168.646649 
L 199.73376 172.158557 
L 200.09088 174.113222 
L 200.448 166.041511 
L 200.80512 165.753421 
L 201.16224 173.526985 
L 201.51936 167.795681 
L 201.87648 164.845029 
L 202.2336 164.934571 
L 202.59072 168.299514 
L 202.94784 170.01897 
L 203.30496 163.770856 
L 203.66208 163.215115 
L 204.0192 171.661861 
L 204.37632 162.473478 
L 204.73344 167.3045 
L 205.09056 169.946947 
L 205.44768 164.198449 
L 205.8048 165.605483 
L 206.16192 167.861215 
L 206.51904 164.873903 
L 206.87616 168.641783 
L 207.23328 161.610181 
L 207.5904 166.974559 
L 207.94752 164.440146 
L 208.30464 167.731445 
L 208.66176 159.964045 
L 209.01888 164.399593 
L 209.376 165.518213 
L 209.73312 163.276756 
L 210.44736 164.656863 
L 210.80448 163.980435 
L 211.1616 157.130512 
L 211.51872 157.209347 
L 211.87584 158.349379 
L 212.23296 162.485806 
L 212.59008 155.190122 
L 212.9472 162.887445 
L 213.30432 159.067008 
L 213.66144 160.807876 
L 214.01856 157.116886 
L 214.37568 154.597072 
L 214.7328 158.062586 
L 215.08992 154.794971 
L 215.44704 159.544239 
L 215.80416 153.642611 
L 216.16128 159.532884 
L 216.87552 159.486166 
L 217.23264 159.302541 
L 217.58976 156.667232 
L 217.94688 160.13956 
L 218.304 152.326416 
L 218.66112 157.610013 
L 219.01824 153.977743 
L 219.37536 154.651575 
L 219.73248 155.061649 
L 220.0896 148.944603 
L 220.44672 153.292232 
L 220.80384 153.851541 
L 221.16096 156.536488 
L 221.51808 146.975988 
L 221.8752 148.647105 
L 222.23232 148.096879 
L 222.58944 148.993591 
L 223.30368 146.461449 
L 223.6608 148.505006 
L 224.01792 151.659397 
L 224.37504 145.654927 
L 224.73216 148.755787 
L 225.08928 144.532739 
L 225.4464 149.280059 
L 225.80352 147.256941 
L 226.16064 143.661656 
L 226.51776 148.065734 
L 227.232 146.178874 
L 227.58912 151.085164 
L 227.94624 141.389054 
L 228.66048 150.107669 
L 229.0176 149.127904 
L 229.37472 145.567008 
L 229.73184 140.471254 
L 231.16032 146.069219 
L 231.51744 145.606588 
L 231.87456 143.879345 
L 232.23168 143.679175 
L 232.5888 140.853427 
L 232.94592 145.320769 
L 233.30304 137.807395 
L 233.66016 137.486213 
L 234.01728 143.268127 
L 234.3744 146.163302 
L 235.44576 136.694939 
L 235.80288 145.033327 
L 236.16 144.311156 
L 236.51712 140.071561 
L 237.23136 135.348897 
L 237.58848 141.668709 
L 237.9456 132.967937 
L 238.30272 132.369696 
L 238.65984 131.505426 
L 239.01696 136.707592 
L 239.37408 134.255907 
L 239.7312 133.463659 
L 240.08832 139.446717 
L 240.44544 132.966639 
L 240.80256 130.901021 
L 241.15968 135.353763 
L 241.5168 132.56208 
L 241.87392 134.342853 
L 242.23104 139.043456 
L 242.58816 132.917002 
L 242.94528 137.35255 
L 243.3024 127.588311 
L 243.65952 128.790957 
L 244.01664 137.408675 
L 244.37376 130.691767 
L 244.73088 135.005006 
L 245.088 130.668408 
L 245.44512 130.521119 
L 245.80224 128.088575 
L 246.15936 134.30522 
L 246.51648 135.561071 
L 246.8736 128.79485 
L 247.23072 128.612522 
L 247.58784 124.274302 
L 247.94496 132.945552 
L 248.30208 133.040284 
L 248.6592 124.412832 
L 249.01632 131.249779 
L 249.37344 131.41848 
L 249.73056 130.586977 
L 250.08768 126.926158 
L 250.4448 129.445648 
L 251.15904 120.151826 
L 251.51616 125.463323 
L 251.87328 119.837133 
L 252.58752 126.592973 
L 252.94464 122.755017 
L 253.30176 127.254801 
L 254.016 119.620092 
L 254.37312 125.681661 
L 254.73024 125.009451 
L 255.08736 122.125307 
L 255.44448 118.22571 
L 255.8016 123.022344 
L 256.15872 116.562056 
L 256.87296 125.497387 
L 257.23008 121.485215 
L 257.5872 126.629308 
L 258.30144 116.542266 
L 258.65856 116.185073 
L 259.01568 114.738783 
L 259.3728 124.195143 
L 259.72992 118.338611 
L 260.08704 122.789082 
L 260.44416 122.303417 
L 260.80128 112.784768 
L 261.1584 113.317475 
L 261.51552 117.678729 
L 261.87264 114.288156 
L 262.22976 117.015603 
L 262.58688 114.631074 
L 262.944 113.32299 
L 263.30112 117.230697 
L 263.65824 115.387635 
L 264.01536 110.165679 
L 264.37248 116.392705 
L 264.7296 108.851755 
L 265.08672 115.680591 
L 265.44384 108.074756 
L 265.80096 113.551385 
L 266.15808 112.124886 
L 266.5152 116.964992 
L 266.87232 113.3457 
L 267.22944 112.847706 
L 267.58656 111.347562 
L 267.94368 114.136974 
L 268.3008 113.976059 
L 268.65792 108.191873 
L 269.01504 105.96534 
L 269.37216 109.523316 
L 269.72928 105.512766 
L 270.0864 115.921315 
L 270.44352 109.406523 
L 271.15776 102.072232 
L 271.51488 113.650984 
L 271.872 105.730132 
L 272.22912 107.743842 
L 272.58624 100.931876 
L 272.94336 107.261096 
L 273.30048 108.980877 
L 273.6576 113.178945 
L 274.01472 109.856177 
L 274.72896 108.884847 
L 275.08608 100.299246 
L 275.4432 103.094173 
L 275.80032 107.088502 
L 276.15744 99.500834 
L 276.51456 107.983917 
L 276.87168 108.632443 
L 277.2288 101.278687 
L 277.58592 104.253995 
L 277.94304 100.708671 
L 278.30016 98.856525 
L 278.65728 100.11043 
L 279.0144 111.113975 
L 279.37152 106.001027 
L 279.72864 108.662291 
L 280.08576 99.481369 
L 280.8 108.179545 
L 281.15712 102.228605 
L 281.51424 109.817246 
L 282.22848 103.863386 
L 282.5856 101.611872 
L 282.94272 98.535344 
L 283.29984 99.303259 
L 283.65696 109.533049 
L 284.01408 104.515482 
L 284.72832 109.380245 
L 285.08544 100.911113 
L 285.44256 103.421843 
L 285.79968 96.324707 
L 286.1568 107.221516 
L 286.51392 98.040919 
L 286.87104 106.286846 
L 287.22816 100.817029 
L 287.58528 97.167889 
L 287.9424 103.363122 
L 288.29952 102.794728 
L 288.65664 100.577279 
L 289.01376 106.069481 
L 289.37088 98.645973 
L 289.728 97.59386 
L 290.08512 107.659167 
L 290.44224 103.502625 
L 291.15648 107.460618 
L 291.87072 100.841361 
L 292.22784 103.362797 
L 292.58496 93.297167 
L 292.94208 102.408013 
L 293.65632 95.250858 
L 294.01344 99.87068 
L 294.37056 96.079766 
L 294.72768 105.124753 
L 295.0848 95.428968 
L 295.44192 106.112954 
L 295.79904 92.57824 
L 296.15616 98.145384 
L 296.51328 93.524914 
L 296.8704 98.156414 
L 297.22752 96.035968 
L 297.58464 101.492159 
L 297.94176 96.461615 
L 298.656 103.981153 
L 299.01312 104.803896 
L 299.37024 104.089835 
L 299.72736 90.415942 
L 300.08448 103.45169 
L 300.4416 104.21993 
L 300.79872 94.627312 
L 301.15584 99.082974 
L 301.51296 92.563316 
L 301.87008 90.266382 
L 302.2272 91.564409 
L 302.58432 89.452398 
L 302.94144 92.170112 
L 303.29856 98.640782 
L 303.65568 95.791351 
L 304.0128 103.200909 
L 304.36992 101.917481 
L 304.72704 96.641671 
L 305.08416 97.139664 
L 305.7984 91.608856 
L 306.15552 99.598811 
L 306.51264 92.937379 
L 306.86976 100.909815 
L 307.22688 90.757238 
L 307.584 94.537446 
L 307.94112 93.418502 
L 308.29824 100.57955 
L 308.65536 88.239371 
L 309.01248 100.379055 
L 309.3696 92.457553 
L 309.72672 97.074779 
L 310.08384 99.793466 
L 310.44096 88.353893 
L 310.79808 89.823866 
L 311.1552 87.142163 
L 311.51232 96.001904 
L 311.86944 90.896417 
L 312.22656 90.137585 
L 312.58368 96.94144 
L 312.9408 98.36502 
L 313.29792 87.680385 
L 313.65504 96.604362 
L 314.01216 96.467454 
L 314.36928 90.736799 
L 314.7264 95.263835 
L 315.08352 91.506013 
L 315.44064 85.881121 
L 315.79776 88.268569 
L 316.86912 98.237521 
L 317.22624 92.170436 
L 317.94048 98.384486 
L 318.65472 86.371977 
L 319.01184 85.993372 
L 319.36896 89.172094 
L 319.72608 96.525527 
L 320.0832 92.978905 
L 320.44032 96.436634 
L 320.79744 86.4998 
L 321.15456 88.062559 
L 321.51168 95.632707 
L 321.8688 97.098462 
L 322.22592 82.547647 
L 322.58304 91.101454 
L 322.94016 90.576533 
L 323.29728 92.732666 
L 323.6544 95.94156 
L 324.01152 89.643809 
L 324.36864 89.462455 
L 324.72576 86.518293 
L 325.08288 81.196414 
L 325.44 94.873876 
L 325.79712 86.5423 
L 326.15424 91.824274 
L 326.51136 84.23466 
L 326.86848 93.576497 
L 327.2256 90.548633 
L 327.58272 83.730503 
L 328.29696 94.859601 
L 328.65408 93.519398 
L 329.0112 83.905368 
L 329.36832 82.54278 
L 329.72544 85.175819 
L 330.08256 93.311442 
L 330.43968 90.769891 
L 330.7968 90.379607 
L 331.15392 84.60191 
L 331.51104 86.136444 
L 331.86816 86.746039 
L 332.22528 89.287266 
L 332.5824 83.542336 
L 332.93952 91.853148 
L 333.29664 81.413455 
L 333.65376 80.774012 
L 334.01088 79.55482 
L 334.72512 92.313833 
L 335.08224 82.930145 
L 335.43936 84.353725 
L 335.79648 82.752359 
L 336.1536 89.59255 
L 336.51072 83.202338 
L 336.86784 88.948241 
L 337.22496 79.731632 
L 337.58208 85.145648 
L 337.9392 77.665689 
L 338.65344 89.692473 
L 339.01056 87.826701 
L 339.36768 81.224315 
L 339.7248 88.580991 
L 340.08192 77.016514 
L 340.43904 89.645756 
L 340.79616 81.767079 
L 341.15328 87.507142 
L 341.5104 77.521644 
L 341.86752 78.837191 
L 342.22464 86.346023 
L 342.58176 87.173957 
L 342.93888 76.88869 
L 343.296 89.636996 
L 343.65312 83.103064 
L 344.01024 86.083887 
L 344.36736 84.544487 
L 344.72448 80.927141 
L 345.0816 78.763546 
L 345.43872 89.445585 
L 345.79584 78.823889 
L 346.15296 83.692869 
L 346.51008 77.657254 
L 346.8672 78.643833 
L 347.22432 80.471971 
L 347.58144 77.22739 
L 347.93856 83.791819 
L 348.29568 78.083874 
L 349.00992 88.100517 
L 349.36704 83.104361 
L 349.72416 83.553042 
L 350.08128 75.831062 
L 350.4384 73.556838 
L 350.79552 77.427237 
L 351.15264 72.929724 
L 351.50976 76.789091 
L 351.86688 74.73061 
L 352.224 85.946655 
L 352.58112 81.946811 
L 352.93824 82.226465 
L 353.29536 72.458982 
L 353.65248 84.970782 
L 354.36672 71.761467 
L 354.72384 77.795784 
L 355.08096 75.714269 
L 355.43808 77.883055 
L 355.7952 74.365956 
L 356.15232 72.374956 
L 356.50944 71.517499 
L 356.86656 84.45235 
L 357.22368 75.469003 
L 357.5808 83.080029 
L 357.93792 70.151342 
L 358.29504 81.073132 
L 358.65216 73.336229 
L 359.00928 83.511515 
L 359.3664 84.003994 
L 359.72352 78.6341 
L 360.08064 80.012909 
L 360.43776 79.489935 
L 360.79488 76.903614 
L 361.152 72.123201 
L 361.86624 80.22411 
L 362.22336 72.512512 
L 362.58048 70.823552 
L 362.9376 75.692208 
L 363.29472 83.448901 
L 363.65184 73.317737 
L 364.00896 78.243492 
L 364.36608 79.425699 
L 364.7232 75.932932 
L 365.08032 82.544727 
L 365.43744 82.085665 
L 365.79456 82.090207 
L 366.15168 71.763738 
L 366.5088 80.931683 
L 366.86592 73.316115 
L 367.22304 81.565286 
L 367.93728 68.044522 
L 368.2944 71.892859 
L 368.65152 77.992062 
L 369.00864 74.030175 
L 369.36576 78.611066 
L 369.72288 77.908684 
L 370.08 80.421685 
L 370.43712 67.734371 
L 370.79424 74.623226 
L 371.50848 68.008511 
L 371.8656 74.29588 
L 372.22272 73.526018 
L 372.57984 77.725059 
L 372.93696 78.182824 
L 373.29408 80.305217 
L 373.6512 70.132526 
L 374.00832 79.043525 
L 374.36544 74.861678 
L 374.72256 68.960376 
L 375.07968 77.269241 
L 375.4368 66.69848 
L 375.79392 76.764759 
L 376.15104 75.4424 
L 376.50816 78.661352 
L 376.86528 78.491353 
L 377.2224 73.336229 
L 377.57952 66.031785 
L 377.93664 75.543297 
L 378.29376 77.38863 
L 379.008 72.197495 
L 379.36512 65.494861 
L 379.72224 63.11974 
L 380.07936 63.529814 
L 380.43648 68.017919 
L 380.7936 77.976165 
L 381.15072 78.802801 
L 381.50784 67.560803 
L 381.86496 73.448805 
L 382.22208 67.37653 
L 382.5792 76.557776 
L 382.93632 77.124547 
L 383.29344 74.254354 
L 383.65056 64.436909 
L 384.00768 66.687449 
L 384.3648 62.185719 
L 384.72192 75.574117 
L 385.07904 76.077301 
L 385.43616 72.969628 
L 385.79328 65.178221 
L 386.1504 65.694382 
L 386.50752 65.948083 
L 386.86464 70.544546 
L 387.22176 70.093919 
L 387.57888 70.416398 
L 387.936 62.10883 
L 388.29312 61.488853 
L 388.65024 66.160907 
L 389.00736 63.563555 
L 389.36448 68.026679 
L 389.7216 64.685094 
L 390.07872 68.987952 
L 390.43584 63.000352 
L 390.79296 70.497504 
L 391.15008 61.776294 
L 391.5072 75.237363 
L 391.86432 75.003128 
L 392.22144 61.833717 
L 392.57856 66.233253 
L 392.93568 72.775621 
L 393.2928 65.856595 
L 393.64992 64.025861 
L 394.00704 67.20653 
L 394.36416 59.728195 
L 394.72128 63.674508 
L 395.0784 61.889843 
L 395.43552 58.839593 
L 395.79264 74.005844 
L 396.14976 64.366833 
L 396.50688 66.043789 
L 396.864 63.457143 
L 397.22112 70.50302 
L 397.57824 72.118659 
L 397.93536 72.267895 
L 398.29248 64.288646 
L 398.6496 64.935875 
L 399.00672 71.831867 
L 399.36384 70.728171 
L 399.72096 61.38017 
L 400.07808 60.354985 
L 400.79232 63.911339 
L 401.14944 64.946581 
L 401.50656 62.36318 
L 401.86368 63.382201 
L 402.2208 61.651714 
L 402.57792 66.598557 
L 403.64928 57.639218 
L 404.0064 58.172249 
L 404.36352 69.604685 
L 404.72064 66.846094 
L 405.07776 70.212659 
L 405.43488 55.64692 
L 405.792 70.36741 
L 406.14912 67.992614 
L 406.50624 69.292263 
L 406.86336 71.385782 
L 407.22048 68.333585 
L 407.5776 66.42726 
L 407.93472 66.563194 
L 408.29184 62.711288 
L 408.64896 66.59953 
L 409.00608 58.667971 
L 409.72032 69.770142 
L 410.07744 61.101813 
L 410.43456 66.828575 
L 410.79168 67.170195 
L 411.1488 70.377791 
L 411.50592 53.670194 
L 411.86304 68.689156 
L 412.22016 55.073984 
L 412.57728 67.745402 
L 412.9344 59.09816 
L 413.29152 60.492541 
L 413.64864 59.506612 
L 414.00576 53.568 
L 414.36288 66.624186 
L 414.72 61.024599 
L 414.72 61.024599 
" style="fill:none;stroke:#000080;stroke-linecap:square;stroke-width:0.5;"/>
   </g>
   <g id="patch_3">
    <path d="M 57.6 307.584 
L 57.6 41.472 
" style="fill:none;stroke:#000000;stroke-linecap:square;stroke-linejoin:miter;stroke-width:0.8;"/>
   </g>
   <g id="patch_4">
    <path d="M 414.72 307.584 
L 414.72 41.472 
" style="fill:none;stroke:#000000;stroke-linecap:square;stroke-linejoin:miter;stroke-width:0.8;"/>
   </g>
   <g id="patch_5">
    <path d="M 57.6 307.584 
L 414.72 307.584 
" style="fill:none;stroke:#000000;stroke-linecap:square;stroke-linejoin:miter;stroke-width:0.8;"/>
   </g>
   <g id="patch_6">
    <path d="M 57.6 41.472 
L 414.72 41.472 
" style="fill:none;stroke:#000000;stroke-linecap:square;stroke-linejoin:miter;stroke-width:0.8;"/>
   </g>
   <g id="text_17">
    <!-- Test -->
    <defs>
     <path d="M -0.296875 72.90625 
L 61.375 72.90625 
L 61.375 64.59375 
L 35.5 64.59375 
L 35.5 0 
L 25.59375 0 
L 25.59375 64.59375 
L -0.296875 64.59375 
z
" id="DejaVuSans-54"/>
    </defs>
    <g transform="translate(223.341563 35.472)scale(0.12 -0.12)">
     <use xlink:href="#DejaVuSans-54"/>
     <use x="60.818359" xlink:href="#DejaVuSans-65"/>
     <use x="122.341797" xlink:href="#DejaVuSans-73"/>
     <use x="174.441406" xlink:href="#DejaVuSans-74"/>
    </g>
   </g>
   <g id="legend_1">
    <g id="patch_7">
     <path d="M 64.6 64.150125 
L 306.276563 64.150125 
Q 308.276563 64.150125 308.276563 62.150125 
L 308.276563 48.472 
Q 308.276563 46.472 306.276563 46.472 
L 64.6 46.472 
Q 62.6 46.472 62.6 48.472 
L 62.6 62.150125 
Q 62.6 64.150125 64.6 64.150125 
z
" style="fill:#ffffff;opacity:0.8;stroke:#cccccc;stroke-linejoin:miter;"/>
    </g>
    <g id="line2d_30">
     <path d="M 66.6 54.570438 
L 86.6 54.570438 
" style="fill:none;stroke:#000080;stroke-linecap:square;stroke-width:0.5;"/>
    </g>
    <g id="line2d_31"/>
    <g id="text_18">
     <!-- Successful download requests per second -->
     <g transform="translate(94.6 58.070438)scale(0.1 -0.1)">
      <use xlink:href="#DejaVuSans-53"/>
      <use x="63.476562" xlink:href="#DejaVuSans-75"/>
      <use x="126.855469" xlink:href="#DejaVuSans-63"/>
      <use x="181.835938" xlink:href="#DejaVuSans-63"/>
      <use x="236.816406" xlink:href="#DejaVuSans-65"/>
      <use x="298.339844" xlink:href="#DejaVuSans-73"/>
      <use x="350.439453" xlink:href="#DejaVuSans-73"/>
      <use x="402.539062" xlink:href="#DejaVuSans-66"/>
      <use x="437.744141" xlink:href="#DejaVuSans-75"/>
      <use x="501.123047" xlink:href="#DejaVuSans-6c"/>
      <use x="528.90625" xlink:href="#DejaVuSans-20"/>
      <use x="560.693359" xlink:href="#DejaVuSans-64"/>
      <use x="624.169922" xlink:href="#DejaVuSans-6f"/>
      <use x="685.351562" xlink:href="#DejaVuSans-77"/>
      <use x="767.138672" xlink:href="#DejaVuSans-6e"/>
      <use x="830.517578" xlink:href="#DejaVuSans-6c"/>
      <use x="858.300781" xlink:href="#DejaVuSans-6f"/>
      <use x="919.482422" xlink:href="#DejaVuSans-61"/>
      <use x="980.761719" xlink:href="#DejaVuSans-64"/>
      <use x="1044.238281" xlink:href="#DejaVuSans-20"/>
      <use x="1076.025391" xlink:href="#DejaVuSans-72"/>
      <use x="1117.107422" xlink:href="#DejaVuSans-65"/>
      <use x="1178.630859" xlink:href="#DejaVuSans-71"/>
      <use x="1242.107422" xlink:href="#DejaVuSans-75"/>
      <use x="1305.486328" xlink:href="#DejaVuSans-65"/>
      <use x="1367.009766" xlink:href="#DejaVuSans-73"/>
      <use x="1419.109375" xlink:href="#DejaVuSans-74"/>
      <use x="1458.318359" xlink:href="#DejaVuSans-73"/>
      <use x="1510.417969" xlink:href="#DejaVuSans-20"/>
      <use x="1542.205078" xlink:href="#DejaVuSans-70"/>
      <use x="1605.681641" xlink:href="#DejaVuSans-65"/>
      <use x="1667.205078" xlink:href="#DejaVuSans-72"/>
      <use x="1708.318359" xlink:href="#DejaVuSans-20"/>
      <use x="1740.105469" xlink:href="#DejaVuSans-73"/>
      <use x="1792.205078" xlink:href="#DejaVuSans-65"/>
      <use x="1853.728516" xlink:href="#DejaVuSans-63"/>
      <use x="1908.708984" xlink:href="#DejaVuSans-6f"/>
      <use x="1969.890625" xlink:href="#DejaVuSans-6e"/>
      <use x="2033.269531" xlink:href="#DejaVuSans-64"/>
     </g>
    </g>
   </g>
  </g>
 </g>
 <defs>
  <clipPath id="p78940dcd3e">
   <rect height="266.112" width="357.12" x="57.6" y="41.472"/>
  </clipPath>
 </defs>
</svg>
