<?xml version="1.0" encoding="utf-8" standalone="no"?>
<!DOCTYPE svg PUBLIC "-//W3C//DTD SVG 1.1//EN"
  "http://www.w3.org/Graphics/SVG/1.1/DTD/svg11.dtd">
<!-- Created with matplotlib (http://matplotlib.org/) -->
<svg height="345pt" version="1.1" viewBox="0 0 460 345" width="460pt" xmlns="http://www.w3.org/2000/svg" xmlns:xlink="http://www.w3.org/1999/xlink">
 <defs>
  <style type="text/css">
*{stroke-linecap:butt;stroke-linejoin:round;}
  </style>
 </defs>
 <g id="figure_1">
  <g id="patch_1">
   <path d="M 0 345.6 
L 460.8 345.6 
L 460.8 0 
L 0 0 
z
" style="fill:#ffffff;"/>
  </g>
  <g id="axes_1">
   <g id="patch_2">
    <path d="M 57.6 307.584 
L 414.72 307.584 
L 414.72 41.472 
L 57.6 41.472 
z
" style="fill:#ffffff;"/>
   </g>
   <g id="matplotlib.axis_1">
    <g id="xtick_1">
     <g id="line2d_1">
      <path clip-path="url(#p54bb27913d)" d="M 57.6 307.584 
L 57.6 41.472 
" style="fill:none;stroke:#b0b0b0;stroke-linecap:square;stroke-width:0.8;"/>
     </g>
     <g id="line2d_2">
      <defs>
       <path d="M 0 0 
L 0 3.5 
" id="mf3fd5a868c" style="stroke:#000000;stroke-width:0.8;"/>
      </defs>
      <g>
       <use style="stroke:#000000;stroke-width:0.8;" x="57.6" xlink:href="#mf3fd5a868c" y="307.584"/>
      </g>
     </g>
     <g id="text_1">
      <!-- 0 -->
      <defs>
       <path d="M 31.78125 66.40625 
Q 24.171875 66.40625 20.328125 58.90625 
Q 16.5 51.421875 16.5 36.375 
Q 16.5 21.390625 20.328125 13.890625 
Q 24.171875 6.390625 31.78125 6.390625 
Q 39.453125 6.390625 43.28125 13.890625 
Q 47.125 21.390625 47.125 36.375 
Q 47.125 51.421875 43.28125 58.90625 
Q 39.453125 66.40625 31.78125 66.40625 
M 31.78125 74.21875 
Q 44.046875 74.21875 50.515625 64.515625 
Q 56.984375 54.828125 56.984375 36.375 
Q 56.984375 17.96875 50.515625 8.265625 
Q 44.046875 -1.421875 31.78125 -1.421875 
Q 19.53125 -1.421875 13.0625 8.265625 
Q 6.59375 17.96875 6.59375 36.375 
Q 6.59375 54.828125 13.0625 64.515625 
Q 19.53125 74.21875 31.78125 74.21875 
" id="DejaVuSans-30"/>
      </defs>
      <g transform="translate(54.41875 322.182437)scale(0.1 -0.1)">
       <use xlink:href="#DejaVuSans-30"/>
      </g>
     </g>
    </g>
    <g id="xtick_2">
     <g id="line2d_3">
      <path clip-path="url(#p54bb27913d)" d="M 129.024 307.584 
L 129.024 41.472 
" style="fill:none;stroke:#b0b0b0;stroke-linecap:square;stroke-width:0.8;"/>
     </g>
     <g id="line2d_4">
      <g>
       <use style="stroke:#000000;stroke-width:0.8;" x="129.024" xlink:href="#mf3fd5a868c" y="307.584"/>
      </g>
     </g>
     <g id="text_2">
      <!-- 200 -->
      <defs>
       <path d="M 19.1875 8.296875 
L 53.609375 8.296875 
L 53.609375 0 
L 7.328125 0 
L 7.328125 8.296875 
Q 12.9375 14.109375 22.625 23.890625 
Q 32.328125 33.6875 34.8125 36.53125 
Q 39.546875 41.84375 41.421875 45.53125 
Q 43.3125 49.21875 43.3125 52.78125 
Q 43.3125 58.59375 39.234375 62.25 
Q 35.15625 65.921875 28.609375 65.921875 
Q 23.96875 65.921875 18.8125 64.3125 
Q 13.671875 62.703125 7.8125 59.421875 
L 7.8125 69.390625 
Q 13.765625 71.78125 18.9375 73 
Q 24.125 74.21875 28.421875 74.21875 
Q 39.75 74.21875 46.484375 68.546875 
Q 53.21875 62.890625 53.21875 53.421875 
Q 53.21875 48.921875 51.53125 44.890625 
Q 49.859375 40.875 45.40625 35.40625 
Q 44.1875 33.984375 37.640625 27.21875 
Q 31.109375 20.453125 19.1875 8.296875 
" id="DejaVuSans-32"/>
      </defs>
      <g transform="translate(119.48025 322.182437)scale(0.1 -0.1)">
       <use xlink:href="#DejaVuSans-32"/>
       <use x="63.623047" xlink:href="#DejaVuSans-30"/>
       <use x="127.246094" xlink:href="#DejaVuSans-30"/>
      </g>
     </g>
    </g>
    <g id="xtick_3">
     <g id="line2d_5">
      <path clip-path="url(#p54bb27913d)" d="M 200.448 307.584 
L 200.448 41.472 
" style="fill:none;stroke:#b0b0b0;stroke-linecap:square;stroke-width:0.8;"/>
     </g>
     <g id="line2d_6">
      <g>
       <use style="stroke:#000000;stroke-width:0.8;" x="200.448" xlink:href="#mf3fd5a868c" y="307.584"/>
      </g>
     </g>
     <g id="text_3">
      <!-- 400 -->
      <defs>
       <path d="M 37.796875 64.3125 
L 12.890625 25.390625 
L 37.796875 25.390625 
z
M 35.203125 72.90625 
L 47.609375 72.90625 
L 47.609375 25.390625 
L 58.015625 25.390625 
L 58.015625 17.1875 
L 47.609375 17.1875 
L 47.609375 0 
L 37.796875 0 
L 37.796875 17.1875 
L 4.890625 17.1875 
L 4.890625 26.703125 
z
" id="DejaVuSans-34"/>
      </defs>
      <g transform="translate(190.90425 322.182437)scale(0.1 -0.1)">
       <use xlink:href="#DejaVuSans-34"/>
       <use x="63.623047" xlink:href="#DejaVuSans-30"/>
       <use x="127.246094" xlink:href="#DejaVuSans-30"/>
      </g>
     </g>
    </g>
    <g id="xtick_4">
     <g id="line2d_7">
      <path clip-path="url(#p54bb27913d)" d="M 271.872 307.584 
L 271.872 41.472 
" style="fill:none;stroke:#b0b0b0;stroke-linecap:square;stroke-width:0.8;"/>
     </g>
     <g id="line2d_8">
      <g>
       <use style="stroke:#000000;stroke-width:0.8;" x="271.872" xlink:href="#mf3fd5a868c" y="307.584"/>
      </g>
     </g>
     <g id="text_4">
      <!-- 600 -->
      <defs>
       <path d="M 33.015625 40.375 
Q 26.375 40.375 22.484375 35.828125 
Q 18.609375 31.296875 18.609375 23.390625 
Q 18.609375 15.53125 22.484375 10.953125 
Q 26.375 6.390625 33.015625 6.390625 
Q 39.65625 6.390625 43.53125 10.953125 
Q 47.40625 15.53125 47.40625 23.390625 
Q 47.40625 31.296875 43.53125 35.828125 
Q 39.65625 40.375 33.015625 40.375 
M 52.59375 71.296875 
L 52.59375 62.3125 
Q 48.875 64.0625 45.09375 64.984375 
Q 41.3125 65.921875 37.59375 65.921875 
Q 27.828125 65.921875 22.671875 59.328125 
Q 17.53125 52.734375 16.796875 39.40625 
Q 19.671875 43.65625 24.015625 45.921875 
Q 28.375 48.1875 33.59375 48.1875 
Q 44.578125 48.1875 50.953125 41.515625 
Q 57.328125 34.859375 57.328125 23.390625 
Q 57.328125 12.15625 50.6875 5.359375 
Q 44.046875 -1.421875 33.015625 -1.421875 
Q 20.359375 -1.421875 13.671875 8.265625 
Q 6.984375 17.96875 6.984375 36.375 
Q 6.984375 53.65625 15.1875 63.9375 
Q 23.390625 74.21875 37.203125 74.21875 
Q 40.921875 74.21875 44.703125 73.484375 
Q 48.484375 72.75 52.59375 71.296875 
" id="DejaVuSans-36"/>
      </defs>
      <g transform="translate(262.32825 322.182437)scale(0.1 -0.1)">
       <use xlink:href="#DejaVuSans-36"/>
       <use x="63.623047" xlink:href="#DejaVuSans-30"/>
       <use x="127.246094" xlink:href="#DejaVuSans-30"/>
      </g>
     </g>
    </g>
    <g id="xtick_5">
     <g id="line2d_9">
      <path clip-path="url(#p54bb27913d)" d="M 343.296 307.584 
L 343.296 41.472 
" style="fill:none;stroke:#b0b0b0;stroke-linecap:square;stroke-width:0.8;"/>
     </g>
     <g id="line2d_10">
      <g>
       <use style="stroke:#000000;stroke-width:0.8;" x="343.296" xlink:href="#mf3fd5a868c" y="307.584"/>
      </g>
     </g>
     <g id="text_5">
      <!-- 800 -->
      <defs>
       <path d="M 31.78125 34.625 
Q 24.75 34.625 20.71875 30.859375 
Q 16.703125 27.09375 16.703125 20.515625 
Q 16.703125 13.921875 20.71875 10.15625 
Q 24.75 6.390625 31.78125 6.390625 
Q 38.8125 6.390625 42.859375 10.171875 
Q 46.921875 13.96875 46.921875 20.515625 
Q 46.921875 27.09375 42.890625 30.859375 
Q 38.875 34.625 31.78125 34.625 
M 21.921875 38.8125 
Q 15.578125 40.375 12.03125 44.71875 
Q 8.5 49.078125 8.5 55.328125 
Q 8.5 64.0625 14.71875 69.140625 
Q 20.953125 74.21875 31.78125 74.21875 
Q 42.671875 74.21875 48.875 69.140625 
Q 55.078125 64.0625 55.078125 55.328125 
Q 55.078125 49.078125 51.53125 44.71875 
Q 48 40.375 41.703125 38.8125 
Q 48.828125 37.15625 52.796875 32.3125 
Q 56.78125 27.484375 56.78125 20.515625 
Q 56.78125 9.90625 50.3125 4.234375 
Q 43.84375 -1.421875 31.78125 -1.421875 
Q 19.734375 -1.421875 13.25 4.234375 
Q 6.78125 9.90625 6.78125 20.515625 
Q 6.78125 27.484375 10.78125 32.3125 
Q 14.796875 37.15625 21.921875 38.8125 
M 18.3125 54.390625 
Q 18.3125 48.734375 21.84375 45.5625 
Q 25.390625 42.390625 31.78125 42.390625 
Q 38.140625 42.390625 41.71875 45.5625 
Q 45.3125 48.734375 45.3125 54.390625 
Q 45.3125 60.0625 41.71875 63.234375 
Q 38.140625 66.40625 31.78125 66.40625 
Q 25.390625 66.40625 21.84375 63.234375 
Q 18.3125 60.0625 18.3125 54.390625 
" id="DejaVuSans-38"/>
      </defs>
      <g transform="translate(333.75225 322.182437)scale(0.1 -0.1)">
       <use xlink:href="#DejaVuSans-38"/>
       <use x="63.623047" xlink:href="#DejaVuSans-30"/>
       <use x="127.246094" xlink:href="#DejaVuSans-30"/>
      </g>
     </g>
    </g>
    <g id="xtick_6">
     <g id="line2d_11">
      <path clip-path="url(#p54bb27913d)" d="M 414.72 307.584 
L 414.72 41.472 
" style="fill:none;stroke:#b0b0b0;stroke-linecap:square;stroke-width:0.8;"/>
     </g>
     <g id="line2d_12">
      <g>
       <use style="stroke:#000000;stroke-width:0.8;" x="414.72" xlink:href="#mf3fd5a868c" y="307.584"/>
      </g>
     </g>
     <g id="text_6">
      <!-- 1000 -->
      <defs>
       <path d="M 12.40625 8.296875 
L 28.515625 8.296875 
L 28.515625 63.921875 
L 10.984375 60.40625 
L 10.984375 69.390625 
L 28.421875 72.90625 
L 38.28125 72.90625 
L 38.28125 8.296875 
L 54.390625 8.296875 
L 54.390625 0 
L 12.40625 0 
z
" id="DejaVuSans-31"/>
      </defs>
      <g transform="translate(401.995 322.182437)scale(0.1 -0.1)">
       <use xlink:href="#DejaVuSans-31"/>
       <use x="63.623047" xlink:href="#DejaVuSans-30"/>
       <use x="127.246094" xlink:href="#DejaVuSans-30"/>
       <use x="190.869141" xlink:href="#DejaVuSans-30"/>
      </g>
     </g>
    </g>
    <g id="text_7">
     <!-- Number of clients -->
     <defs>
      <path d="M 9.8125 72.90625 
L 23.09375 72.90625 
L 55.421875 11.921875 
L 55.421875 72.90625 
L 64.984375 72.90625 
L 64.984375 0 
L 51.703125 0 
L 19.390625 60.984375 
L 19.390625 0 
L 9.8125 0 
z
" id="DejaVuSans-4e"/>
      <path d="M 8.5 21.578125 
L 8.5 54.6875 
L 17.484375 54.6875 
L 17.484375 21.921875 
Q 17.484375 14.15625 20.5 10.265625 
Q 23.53125 6.390625 29.59375 6.390625 
Q 36.859375 6.390625 41.078125 11.03125 
Q 45.3125 15.671875 45.3125 23.6875 
L 45.3125 54.6875 
L 54.296875 54.6875 
L 54.296875 0 
L 45.3125 0 
L 45.3125 8.40625 
Q 42.046875 3.421875 37.71875 1 
Q 33.40625 -1.421875 27.6875 -1.421875 
Q 18.265625 -1.421875 13.375 4.4375 
Q 8.5 10.296875 8.5 21.578125 
M 31.109375 56 
z
" id="DejaVuSans-75"/>
      <path d="M 52 44.1875 
Q 55.375 50.25 60.0625 53.125 
Q 64.75 56 71.09375 56 
Q 79.640625 56 84.28125 50.015625 
Q 88.921875 44.046875 88.921875 33.015625 
L 88.921875 0 
L 79.890625 0 
L 79.890625 32.71875 
Q 79.890625 40.578125 77.09375 44.375 
Q 74.3125 48.1875 68.609375 48.1875 
Q 61.625 48.1875 57.5625 43.546875 
Q 53.515625 38.921875 53.515625 30.90625 
L 53.515625 0 
L 44.484375 0 
L 44.484375 32.71875 
Q 44.484375 40.625 41.703125 44.40625 
Q 38.921875 48.1875 33.109375 48.1875 
Q 26.21875 48.1875 22.15625 43.53125 
Q 18.109375 38.875 18.109375 30.90625 
L 18.109375 0 
L 9.078125 0 
L 9.078125 54.6875 
L 18.109375 54.6875 
L 18.109375 46.1875 
Q 21.1875 51.21875 25.484375 53.609375 
Q 29.78125 56 35.6875 56 
Q 41.65625 56 45.828125 52.96875 
Q 50 49.953125 52 44.1875 
" id="DejaVuSans-6d"/>
      <path d="M 48.6875 27.296875 
Q 48.6875 37.203125 44.609375 42.84375 
Q 40.53125 48.484375 33.40625 48.484375 
Q 26.265625 48.484375 22.1875 42.84375 
Q 18.109375 37.203125 18.109375 27.296875 
Q 18.109375 17.390625 22.1875 11.75 
Q 26.265625 6.109375 33.40625 6.109375 
Q 40.53125 6.109375 44.609375 11.75 
Q 48.6875 17.390625 48.6875 27.296875 
M 18.109375 46.390625 
Q 20.953125 51.265625 25.265625 53.625 
Q 29.59375 56 35.59375 56 
Q 45.5625 56 51.78125 48.09375 
Q 58.015625 40.1875 58.015625 27.296875 
Q 58.015625 14.40625 51.78125 6.484375 
Q 45.5625 -1.421875 35.59375 -1.421875 
Q 29.59375 -1.421875 25.265625 0.953125 
Q 20.953125 3.328125 18.109375 8.203125 
L 18.109375 0 
L 9.078125 0 
L 9.078125 75.984375 
L 18.109375 75.984375 
z
" id="DejaVuSans-62"/>
      <path d="M 56.203125 29.59375 
L 56.203125 25.203125 
L 14.890625 25.203125 
Q 15.484375 15.921875 20.484375 11.0625 
Q 25.484375 6.203125 34.421875 6.203125 
Q 39.59375 6.203125 44.453125 7.46875 
Q 49.3125 8.734375 54.109375 11.28125 
L 54.109375 2.78125 
Q 49.265625 0.734375 44.1875 -0.34375 
Q 39.109375 -1.421875 33.890625 -1.421875 
Q 20.796875 -1.421875 13.15625 6.1875 
Q 5.515625 13.8125 5.515625 26.8125 
Q 5.515625 40.234375 12.765625 48.109375 
Q 20.015625 56 32.328125 56 
Q 43.359375 56 49.78125 48.890625 
Q 56.203125 41.796875 56.203125 29.59375 
M 47.21875 32.234375 
Q 47.125 39.59375 43.09375 43.984375 
Q 39.0625 48.390625 32.421875 48.390625 
Q 24.90625 48.390625 20.390625 44.140625 
Q 15.875 39.890625 15.1875 32.171875 
z
" id="DejaVuSans-65"/>
      <path d="M 41.109375 46.296875 
Q 39.59375 47.171875 37.8125 47.578125 
Q 36.03125 48 33.890625 48 
Q 26.265625 48 22.1875 43.046875 
Q 18.109375 38.09375 18.109375 28.8125 
L 18.109375 0 
L 9.078125 0 
L 9.078125 54.6875 
L 18.109375 54.6875 
L 18.109375 46.1875 
Q 20.953125 51.171875 25.484375 53.578125 
Q 30.03125 56 36.53125 56 
Q 37.453125 56 38.578125 55.875 
Q 39.703125 55.765625 41.0625 55.515625 
z
" id="DejaVuSans-72"/>
      <path id="DejaVuSans-20"/>
      <path d="M 30.609375 48.390625 
Q 23.390625 48.390625 19.1875 42.75 
Q 14.984375 37.109375 14.984375 27.296875 
Q 14.984375 17.484375 19.15625 11.84375 
Q 23.34375 6.203125 30.609375 6.203125 
Q 37.796875 6.203125 41.984375 11.859375 
Q 46.1875 17.53125 46.1875 27.296875 
Q 46.1875 37.015625 41.984375 42.703125 
Q 37.796875 48.390625 30.609375 48.390625 
M 30.609375 56 
Q 42.328125 56 49.015625 48.375 
Q 55.71875 40.765625 55.71875 27.296875 
Q 55.71875 13.875 49.015625 6.21875 
Q 42.328125 -1.421875 30.609375 -1.421875 
Q 18.84375 -1.421875 12.171875 6.21875 
Q 5.515625 13.875 5.515625 27.296875 
Q 5.515625 40.765625 12.171875 48.375 
Q 18.84375 56 30.609375 56 
" id="DejaVuSans-6f"/>
      <path d="M 37.109375 75.984375 
L 37.109375 68.5 
L 28.515625 68.5 
Q 23.6875 68.5 21.796875 66.546875 
Q 19.921875 64.59375 19.921875 59.515625 
L 19.921875 54.6875 
L 34.71875 54.6875 
L 34.71875 47.703125 
L 19.921875 47.703125 
L 19.921875 0 
L 10.890625 0 
L 10.890625 47.703125 
L 2.296875 47.703125 
L 2.296875 54.6875 
L 10.890625 54.6875 
L 10.890625 58.5 
Q 10.890625 67.625 15.140625 71.796875 
Q 19.390625 75.984375 28.609375 75.984375 
z
" id="DejaVuSans-66"/>
      <path d="M 48.78125 52.59375 
L 48.78125 44.1875 
Q 44.96875 46.296875 41.140625 47.34375 
Q 37.3125 48.390625 33.40625 48.390625 
Q 24.65625 48.390625 19.8125 42.84375 
Q 14.984375 37.3125 14.984375 27.296875 
Q 14.984375 17.28125 19.8125 11.734375 
Q 24.65625 6.203125 33.40625 6.203125 
Q 37.3125 6.203125 41.140625 7.25 
Q 44.96875 8.296875 48.78125 10.40625 
L 48.78125 2.09375 
Q 45.015625 0.34375 40.984375 -0.53125 
Q 36.96875 -1.421875 32.421875 -1.421875 
Q 20.0625 -1.421875 12.78125 6.34375 
Q 5.515625 14.109375 5.515625 27.296875 
Q 5.515625 40.671875 12.859375 48.328125 
Q 20.21875 56 33.015625 56 
Q 37.15625 56 41.109375 55.140625 
Q 45.0625 54.296875 48.78125 52.59375 
" id="DejaVuSans-63"/>
      <path d="M 9.421875 75.984375 
L 18.40625 75.984375 
L 18.40625 0 
L 9.421875 0 
z
" id="DejaVuSans-6c"/>
      <path d="M 9.421875 54.6875 
L 18.40625 54.6875 
L 18.40625 0 
L 9.421875 0 
z
M 9.421875 75.984375 
L 18.40625 75.984375 
L 18.40625 64.59375 
L 9.421875 64.59375 
z
" id="DejaVuSans-69"/>
      <path d="M 54.890625 33.015625 
L 54.890625 0 
L 45.90625 0 
L 45.90625 32.71875 
Q 45.90625 40.484375 42.875 44.328125 
Q 39.84375 48.1875 33.796875 48.1875 
Q 26.515625 48.1875 22.3125 43.546875 
Q 18.109375 38.921875 18.109375 30.90625 
L 18.109375 0 
L 9.078125 0 
L 9.078125 54.6875 
L 18.109375 54.6875 
L 18.109375 46.1875 
Q 21.34375 51.125 25.703125 53.5625 
Q 30.078125 56 35.796875 56 
Q 45.21875 56 50.046875 50.171875 
Q 54.890625 44.34375 54.890625 33.015625 
" id="DejaVuSans-6e"/>
      <path d="M 18.3125 70.21875 
L 18.3125 54.6875 
L 36.8125 54.6875 
L 36.8125 47.703125 
L 18.3125 47.703125 
L 18.3125 18.015625 
Q 18.3125 11.328125 20.140625 9.421875 
Q 21.96875 7.515625 27.59375 7.515625 
L 36.8125 7.515625 
L 36.8125 0 
L 27.59375 0 
Q 17.1875 0 13.234375 3.875 
Q 9.28125 7.765625 9.28125 18.015625 
L 9.28125 47.703125 
L 2.6875 47.703125 
L 2.6875 54.6875 
L 9.28125 54.6875 
L 9.28125 70.21875 
z
" id="DejaVuSans-74"/>
      <path d="M 44.28125 53.078125 
L 44.28125 44.578125 
Q 40.484375 46.53125 36.375 47.5 
Q 32.28125 48.484375 27.875 48.484375 
Q 21.1875 48.484375 17.84375 46.4375 
Q 14.5 44.390625 14.5 40.28125 
Q 14.5 37.15625 16.890625 35.375 
Q 19.28125 33.59375 26.515625 31.984375 
L 29.59375 31.296875 
Q 39.15625 29.25 43.1875 25.515625 
Q 47.21875 21.78125 47.21875 15.09375 
Q 47.21875 7.46875 41.1875 3.015625 
Q 35.15625 -1.421875 24.609375 -1.421875 
Q 20.21875 -1.421875 15.453125 -0.5625 
Q 10.6875 0.296875 5.421875 2 
L 5.421875 11.28125 
Q 10.40625 8.6875 15.234375 7.390625 
Q 20.0625 6.109375 24.8125 6.109375 
Q 31.15625 6.109375 34.5625 8.28125 
Q 37.984375 10.453125 37.984375 14.40625 
Q 37.984375 18.0625 35.515625 20.015625 
Q 33.0625 21.96875 24.703125 23.78125 
L 21.578125 24.515625 
Q 13.234375 26.265625 9.515625 29.90625 
Q 5.8125 33.546875 5.8125 39.890625 
Q 5.8125 47.609375 11.28125 51.796875 
Q 16.75 56 26.8125 56 
Q 31.78125 56 36.171875 55.265625 
Q 40.578125 54.546875 44.28125 53.078125 
" id="DejaVuSans-73"/>
     </defs>
     <g transform="translate(191.738906 335.860562)scale(0.1 -0.1)">
      <use xlink:href="#DejaVuSans-4e"/>
      <use x="74.804688" xlink:href="#DejaVuSans-75"/>
      <use x="138.183594" xlink:href="#DejaVuSans-6d"/>
      <use x="235.595703" xlink:href="#DejaVuSans-62"/>
      <use x="299.072266" xlink:href="#DejaVuSans-65"/>
      <use x="360.595703" xlink:href="#DejaVuSans-72"/>
      <use x="401.708984" xlink:href="#DejaVuSans-20"/>
      <use x="433.496094" xlink:href="#DejaVuSans-6f"/>
      <use x="494.677734" xlink:href="#DejaVuSans-66"/>
      <use x="529.882812" xlink:href="#DejaVuSans-20"/>
      <use x="561.669922" xlink:href="#DejaVuSans-63"/>
      <use x="616.650391" xlink:href="#DejaVuSans-6c"/>
      <use x="644.433594" xlink:href="#DejaVuSans-69"/>
      <use x="672.216797" xlink:href="#DejaVuSans-65"/>
      <use x="733.740234" xlink:href="#DejaVuSans-6e"/>
      <use x="797.119141" xlink:href="#DejaVuSans-74"/>
      <use x="836.328125" xlink:href="#DejaVuSans-73"/>
     </g>
    </g>
   </g>
   <g id="matplotlib.axis_2">
    <g id="ytick_1">
     <g id="line2d_13">
      <path clip-path="url(#p54bb27913d)" d="M 57.6 296.305969 
L 414.72 296.305969 
" style="fill:none;stroke:#b0b0b0;stroke-linecap:square;stroke-width:0.8;"/>
     </g>
     <g id="line2d_14">
      <defs>
       <path d="M 0 0 
L -3.5 0 
" id="mc7fb553564" style="stroke:#000000;stroke-width:0.8;"/>
      </defs>
      <g>
       <use style="stroke:#000000;stroke-width:0.8;" x="57.6" xlink:href="#mc7fb553564" y="296.305969"/>
      </g>
     </g>
     <g id="text_8">
      <!-- 0 -->
      <g transform="translate(44.2375 300.105188)scale(0.1 -0.1)">
       <use xlink:href="#DejaVuSans-30"/>
      </g>
     </g>
    </g>
    <g id="ytick_2">
     <g id="line2d_15">
      <path clip-path="url(#p54bb27913d)" d="M 57.6 253.072927 
L 414.72 253.072927 
" style="fill:none;stroke:#b0b0b0;stroke-linecap:square;stroke-width:0.8;"/>
     </g>
     <g id="line2d_16">
      <g>
       <use style="stroke:#000000;stroke-width:0.8;" x="57.6" xlink:href="#mc7fb553564" y="253.072927"/>
      </g>
     </g>
     <g id="text_9">
      <!-- 50 -->
      <defs>
       <path d="M 10.796875 72.90625 
L 49.515625 72.90625 
L 49.515625 64.59375 
L 19.828125 64.59375 
L 19.828125 46.734375 
Q 21.96875 47.46875 24.109375 47.828125 
Q 26.265625 48.1875 28.421875 48.1875 
Q 40.625 48.1875 47.75 41.5 
Q 54.890625 34.8125 54.890625 23.390625 
Q 54.890625 11.625 47.5625 5.09375 
Q 40.234375 -1.421875 26.90625 -1.421875 
Q 22.3125 -1.421875 17.546875 -0.640625 
Q 12.796875 0.140625 7.71875 1.703125 
L 7.71875 11.625 
Q 12.109375 9.234375 16.796875 8.0625 
Q 21.484375 6.890625 26.703125 6.890625 
Q 35.15625 6.890625 40.078125 11.328125 
Q 45.015625 15.765625 45.015625 23.390625 
Q 45.015625 31 40.078125 35.4375 
Q 35.15625 39.890625 26.703125 39.890625 
Q 22.75 39.890625 18.8125 39.015625 
Q 14.890625 38.140625 10.796875 36.28125 
z
" id="DejaVuSans-35"/>
      </defs>
      <g transform="translate(37.875 256.872146)scale(0.1 -0.1)">
       <use xlink:href="#DejaVuSans-35"/>
       <use x="63.623047" xlink:href="#DejaVuSans-30"/>
      </g>
     </g>
    </g>
    <g id="ytick_3">
     <g id="line2d_17">
      <path clip-path="url(#p54bb27913d)" d="M 57.6 209.839884 
L 414.72 209.839884 
" style="fill:none;stroke:#b0b0b0;stroke-linecap:square;stroke-width:0.8;"/>
     </g>
     <g id="line2d_18">
      <g>
       <use style="stroke:#000000;stroke-width:0.8;" x="57.6" xlink:href="#mc7fb553564" y="209.839884"/>
      </g>
     </g>
     <g id="text_10">
      <!-- 100 -->
      <g transform="translate(31.5125 213.639103)scale(0.1 -0.1)">
       <use xlink:href="#DejaVuSans-31"/>
       <use x="63.623047" xlink:href="#DejaVuSans-30"/>
       <use x="127.246094" xlink:href="#DejaVuSans-30"/>
      </g>
     </g>
    </g>
    <g id="ytick_4">
     <g id="line2d_19">
      <path clip-path="url(#p54bb27913d)" d="M 57.6 166.606842 
L 414.72 166.606842 
" style="fill:none;stroke:#b0b0b0;stroke-linecap:square;stroke-width:0.8;"/>
     </g>
     <g id="line2d_20">
      <g>
       <use style="stroke:#000000;stroke-width:0.8;" x="57.6" xlink:href="#mc7fb553564" y="166.606842"/>
      </g>
     </g>
     <g id="text_11">
      <!-- 150 -->
      <g transform="translate(31.5125 170.406061)scale(0.1 -0.1)">
       <use xlink:href="#DejaVuSans-31"/>
       <use x="63.623047" xlink:href="#DejaVuSans-35"/>
       <use x="127.246094" xlink:href="#DejaVuSans-30"/>
      </g>
     </g>
    </g>
    <g id="ytick_5">
     <g id="line2d_21">
      <path clip-path="url(#p54bb27913d)" d="M 57.6 123.3738 
L 414.72 123.3738 
" style="fill:none;stroke:#b0b0b0;stroke-linecap:square;stroke-width:0.8;"/>
     </g>
     <g id="line2d_22">
      <g>
       <use style="stroke:#000000;stroke-width:0.8;" x="57.6" xlink:href="#mc7fb553564" y="123.3738"/>
      </g>
     </g>
     <g id="text_12">
      <!-- 200 -->
      <g transform="translate(31.5125 127.173018)scale(0.1 -0.1)">
       <use xlink:href="#DejaVuSans-32"/>
       <use x="63.623047" xlink:href="#DejaVuSans-30"/>
       <use x="127.246094" xlink:href="#DejaVuSans-30"/>
      </g>
     </g>
    </g>
    <g id="ytick_6">
     <g id="line2d_23">
      <path clip-path="url(#p54bb27913d)" d="M 57.6 80.140757 
L 414.72 80.140757 
" style="fill:none;stroke:#b0b0b0;stroke-linecap:square;stroke-width:0.8;"/>
     </g>
     <g id="line2d_24">
      <g>
       <use style="stroke:#000000;stroke-width:0.8;" x="57.6" xlink:href="#mc7fb553564" y="80.140757"/>
      </g>
     </g>
     <g id="text_13">
      <!-- 250 -->
      <g transform="translate(31.5125 83.939976)scale(0.1 -0.1)">
       <use xlink:href="#DejaVuSans-32"/>
       <use x="63.623047" xlink:href="#DejaVuSans-35"/>
       <use x="127.246094" xlink:href="#DejaVuSans-30"/>
      </g>
     </g>
    </g>
    <g id="text_14">
     <!-- Successful download requests per second -->
     <defs>
      <path d="M 53.515625 70.515625 
L 53.515625 60.890625 
Q 47.90625 63.578125 42.921875 64.890625 
Q 37.9375 66.21875 33.296875 66.21875 
Q 25.25 66.21875 20.875 63.09375 
Q 16.5 59.96875 16.5 54.203125 
Q 16.5 49.359375 19.40625 46.890625 
Q 22.3125 44.4375 30.421875 42.921875 
L 36.375 41.703125 
Q 47.40625 39.59375 52.65625 34.296875 
Q 57.90625 29 57.90625 20.125 
Q 57.90625 9.515625 50.796875 4.046875 
Q 43.703125 -1.421875 29.984375 -1.421875 
Q 24.8125 -1.421875 18.96875 -0.25 
Q 13.140625 0.921875 6.890625 3.21875 
L 6.890625 13.375 
Q 12.890625 10.015625 18.65625 8.296875 
Q 24.421875 6.59375 29.984375 6.59375 
Q 38.421875 6.59375 43.015625 9.90625 
Q 47.609375 13.234375 47.609375 19.390625 
Q 47.609375 24.75 44.3125 27.78125 
Q 41.015625 30.8125 33.5 32.328125 
L 27.484375 33.5 
Q 16.453125 35.6875 11.515625 40.375 
Q 6.59375 45.0625 6.59375 53.421875 
Q 6.59375 63.09375 13.40625 68.65625 
Q 20.21875 74.21875 32.171875 74.21875 
Q 37.3125 74.21875 42.625 73.28125 
Q 47.953125 72.359375 53.515625 70.515625 
" id="DejaVuSans-53"/>
      <path d="M 45.40625 46.390625 
L 45.40625 75.984375 
L 54.390625 75.984375 
L 54.390625 0 
L 45.40625 0 
L 45.40625 8.203125 
Q 42.578125 3.328125 38.25 0.953125 
Q 33.9375 -1.421875 27.875 -1.421875 
Q 17.96875 -1.421875 11.734375 6.484375 
Q 5.515625 14.40625 5.515625 27.296875 
Q 5.515625 40.1875 11.734375 48.09375 
Q 17.96875 56 27.875 56 
Q 33.9375 56 38.25 53.625 
Q 42.578125 51.265625 45.40625 46.390625 
M 14.796875 27.296875 
Q 14.796875 17.390625 18.875 11.75 
Q 22.953125 6.109375 30.078125 6.109375 
Q 37.203125 6.109375 41.296875 11.75 
Q 45.40625 17.390625 45.40625 27.296875 
Q 45.40625 37.203125 41.296875 42.84375 
Q 37.203125 48.484375 30.078125 48.484375 
Q 22.953125 48.484375 18.875 42.84375 
Q 14.796875 37.203125 14.796875 27.296875 
" id="DejaVuSans-64"/>
      <path d="M 4.203125 54.6875 
L 13.1875 54.6875 
L 24.421875 12.015625 
L 35.59375 54.6875 
L 46.1875 54.6875 
L 57.421875 12.015625 
L 68.609375 54.6875 
L 77.59375 54.6875 
L 63.28125 0 
L 52.6875 0 
L 40.921875 44.828125 
L 29.109375 0 
L 18.5 0 
z
" id="DejaVuSans-77"/>
      <path d="M 34.28125 27.484375 
Q 23.390625 27.484375 19.1875 25 
Q 14.984375 22.515625 14.984375 16.5 
Q 14.984375 11.71875 18.140625 8.90625 
Q 21.296875 6.109375 26.703125 6.109375 
Q 34.1875 6.109375 38.703125 11.40625 
Q 43.21875 16.703125 43.21875 25.484375 
L 43.21875 27.484375 
z
M 52.203125 31.203125 
L 52.203125 0 
L 43.21875 0 
L 43.21875 8.296875 
Q 40.140625 3.328125 35.546875 0.953125 
Q 30.953125 -1.421875 24.3125 -1.421875 
Q 15.921875 -1.421875 10.953125 3.296875 
Q 6 8.015625 6 15.921875 
Q 6 25.140625 12.171875 29.828125 
Q 18.359375 34.515625 30.609375 34.515625 
L 43.21875 34.515625 
L 43.21875 35.40625 
Q 43.21875 41.609375 39.140625 45 
Q 35.0625 48.390625 27.6875 48.390625 
Q 23 48.390625 18.546875 47.265625 
Q 14.109375 46.140625 10.015625 43.890625 
L 10.015625 52.203125 
Q 14.9375 54.109375 19.578125 55.046875 
Q 24.21875 56 28.609375 56 
Q 40.484375 56 46.34375 49.84375 
Q 52.203125 43.703125 52.203125 31.203125 
" id="DejaVuSans-61"/>
      <path d="M 14.796875 27.296875 
Q 14.796875 17.390625 18.875 11.75 
Q 22.953125 6.109375 30.078125 6.109375 
Q 37.203125 6.109375 41.296875 11.75 
Q 45.40625 17.390625 45.40625 27.296875 
Q 45.40625 37.203125 41.296875 42.84375 
Q 37.203125 48.484375 30.078125 48.484375 
Q 22.953125 48.484375 18.875 42.84375 
Q 14.796875 37.203125 14.796875 27.296875 
M 45.40625 8.203125 
Q 42.578125 3.328125 38.25 0.953125 
Q 33.9375 -1.421875 27.875 -1.421875 
Q 17.96875 -1.421875 11.734375 6.484375 
Q 5.515625 14.40625 5.515625 27.296875 
Q 5.515625 40.1875 11.734375 48.09375 
Q 17.96875 56 27.875 56 
Q 33.9375 56 38.25 53.625 
Q 42.578125 51.265625 45.40625 46.390625 
L 45.40625 54.6875 
L 54.390625 54.6875 
L 54.390625 -20.796875 
L 45.40625 -20.796875 
z
" id="DejaVuSans-71"/>
      <path d="M 18.109375 8.203125 
L 18.109375 -20.796875 
L 9.078125 -20.796875 
L 9.078125 54.6875 
L 18.109375 54.6875 
L 18.109375 46.390625 
Q 20.953125 51.265625 25.265625 53.625 
Q 29.59375 56 35.59375 56 
Q 45.5625 56 51.78125 48.09375 
Q 58.015625 40.1875 58.015625 27.296875 
Q 58.015625 14.40625 51.78125 6.484375 
Q 45.5625 -1.421875 35.59375 -1.421875 
Q 29.59375 -1.421875 25.265625 0.953125 
Q 20.953125 3.328125 18.109375 8.203125 
M 48.6875 27.296875 
Q 48.6875 37.203125 44.609375 42.84375 
Q 40.53125 48.484375 33.40625 48.484375 
Q 26.265625 48.484375 22.1875 42.84375 
Q 18.109375 37.203125 18.109375 27.296875 
Q 18.109375 17.390625 22.1875 11.75 
Q 26.265625 6.109375 33.40625 6.109375 
Q 40.53125 6.109375 44.609375 11.75 
Q 48.6875 17.390625 48.6875 27.296875 
" id="DejaVuSans-70"/>
     </defs>
     <g transform="translate(25.432812 279.366281)rotate(-90)scale(0.1 -0.1)">
      <use xlink:href="#DejaVuSans-53"/>
      <use x="63.476562" xlink:href="#DejaVuSans-75"/>
      <use x="126.855469" xlink:href="#DejaVuSans-63"/>
      <use x="181.835938" xlink:href="#DejaVuSans-63"/>
      <use x="236.816406" xlink:href="#DejaVuSans-65"/>
      <use x="298.339844" xlink:href="#DejaVuSans-73"/>
      <use x="350.439453" xlink:href="#DejaVuSans-73"/>
      <use x="402.539062" xlink:href="#DejaVuSans-66"/>
      <use x="437.744141" xlink:href="#DejaVuSans-75"/>
      <use x="501.123047" xlink:href="#DejaVuSans-6c"/>
      <use x="528.90625" xlink:href="#DejaVuSans-20"/>
      <use x="560.693359" xlink:href="#DejaVuSans-64"/>
      <use x="624.169922" xlink:href="#DejaVuSans-6f"/>
      <use x="685.351562" xlink:href="#DejaVuSans-77"/>
      <use x="767.138672" xlink:href="#DejaVuSans-6e"/>
      <use x="830.517578" xlink:href="#DejaVuSans-6c"/>
      <use x="858.300781" xlink:href="#DejaVuSans-6f"/>
      <use x="919.482422" xlink:href="#DejaVuSans-61"/>
      <use x="980.761719" xlink:href="#DejaVuSans-64"/>
      <use x="1044.238281" xlink:href="#DejaVuSans-20"/>
      <use x="1076.025391" xlink:href="#DejaVuSans-72"/>
      <use x="1117.107422" xlink:href="#DejaVuSans-65"/>
      <use x="1178.630859" xlink:href="#DejaVuSans-71"/>
      <use x="1242.107422" xlink:href="#DejaVuSans-75"/>
      <use x="1305.486328" xlink:href="#DejaVuSans-65"/>
      <use x="1367.009766" xlink:href="#DejaVuSans-73"/>
      <use x="1419.109375" xlink:href="#DejaVuSans-74"/>
      <use x="1458.318359" xlink:href="#DejaVuSans-73"/>
      <use x="1510.417969" xlink:href="#DejaVuSans-20"/>
      <use x="1542.205078" xlink:href="#DejaVuSans-70"/>
      <use x="1605.681641" xlink:href="#DejaVuSans-65"/>
      <use x="1667.205078" xlink:href="#DejaVuSans-72"/>
      <use x="1708.318359" xlink:href="#DejaVuSans-20"/>
      <use x="1740.105469" xlink:href="#DejaVuSans-73"/>
      <use x="1792.205078" xlink:href="#DejaVuSans-65"/>
      <use x="1853.728516" xlink:href="#DejaVuSans-63"/>
      <use x="1908.708984" xlink:href="#DejaVuSans-6f"/>
      <use x="1969.890625" xlink:href="#DejaVuSans-6e"/>
      <use x="2033.269531" xlink:href="#DejaVuSans-64"/>
     </g>
    </g>
   </g>
   <g id="line2d_25">
    <path clip-path="url(#p54bb27913d)" d="M 57.6 295.470707 
L 57.95712 295.488 
L 59.3856 292.031951 
L 60.09984 290.549057 
L 60.81408 288.644209 
L 61.1712 288.070939 
L 63.31392 282.691884 
L 63.67104 282.490418 
L 64.02816 281.689742 
L 64.38528 280.202526 
L 64.7424 280.066774 
L 65.09952 279.394068 
L 65.81376 276.970423 
L 66.17088 276.059935 
L 66.528 275.58956 
L 66.88512 273.874937 
L 67.24224 274.146441 
L 67.59936 272.390315 
L 67.95648 271.494526 
L 68.3136 271.780729 
L 68.67072 270.545129 
L 69.38496 269.739265 
L 70.0992 268.053176 
L 70.45632 265.334682 
L 70.81344 264.427653 
L 71.17056 264.272014 
L 71.52768 263.768781 
L 72.24192 261.296716 
L 72.59904 262.005738 
L 72.95616 259.775778 
L 73.31328 260.601529 
L 73.6704 258.327471 
L 74.02752 258.060291 
L 74.38464 257.968636 
L 74.74176 256.524653 
L 75.09888 254.337926 
L 75.456 255.572661 
L 75.81312 253.810482 
L 76.17024 252.932852 
L 76.52736 252.846386 
L 76.88448 251.091989 
L 77.59872 249.149096 
L 77.95584 250.028456 
L 78.31296 247.015978 
L 78.67008 246.562031 
L 79.0272 246.707294 
L 79.38432 244.440153 
L 79.74144 244.491168 
L 80.09856 245.531355 
L 80.45568 242.179929 
L 80.8128 243.470868 
L 81.52704 238.406549 
L 81.88416 240.867374 
L 82.24128 240.16527 
L 82.95552 235.185688 
L 83.31264 235.945725 
L 83.66976 233.380276 
L 84.02688 236.316664 
L 85.45536 229.466821 
L 85.81248 231.388097 
L 86.1696 230.686857 
L 86.52672 228.082499 
L 86.88384 226.788102 
L 87.24096 229.387272 
L 87.59808 228.575356 
L 88.31232 223.92348 
L 88.66944 224.877201 
L 89.02656 222.042843 
L 89.38368 221.446227 
L 89.7408 218.813335 
L 90.09792 221.758369 
L 90.45504 220.399123 
L 90.81216 216.269502 
L 91.16928 218.139764 
L 91.5264 217.912358 
L 92.24064 215.604578 
L 92.59776 215.940931 
L 92.95488 211.00977 
L 93.312 210.644884 
L 93.66912 209.116163 
L 94.02624 212.518604 
L 94.38336 208.249773 
L 94.74048 208.565374 
L 95.0976 209.819133 
L 95.45472 210.522102 
L 95.81184 205.659249 
L 96.16896 209.36778 
L 96.52608 202.275831 
L 96.8832 201.319516 
L 97.24032 205.28658 
L 97.59744 204.581882 
L 98.31168 197.996625 
L 99.02592 201.61523 
L 99.38304 199.616135 
L 99.74016 199.503729 
L 100.09728 198.373617 
L 100.4544 198.618316 
L 100.81152 197.65249 
L 101.52576 192.239713 
L 101.88288 193.419975 
L 102.24 197.705234 
L 102.59712 193.503847 
L 102.95424 191.594676 
L 103.31136 194.421252 
L 103.66848 191.287721 
L 104.0256 192.88475 
L 104.38272 191.197796 
L 104.73984 188.116145 
L 105.09696 188.583927 
L 105.45408 192.985915 
L 106.16832 188.477573 
L 106.52544 190.270015 
L 106.88256 188.083288 
L 107.23968 187.296447 
L 107.5968 188.382461 
L 107.95392 188.309829 
L 108.31104 188.864942 
L 108.66816 184.585735 
L 109.02528 184.109307 
L 109.3824 190.629714 
L 109.73952 189.803963 
L 110.45376 183.843856 
L 111.168 187.636258 
L 111.88224 187.262725 
L 112.23936 182.066113 
L 112.59648 184.667013 
L 112.9536 181.050137 
L 113.31072 184.68863 
L 113.66784 181.33461 
L 114.02496 185.590471 
L 114.38208 180.944648 
L 114.7392 185.369118 
L 115.09632 185.001637 
L 115.45344 185.189268 
L 115.81056 179.797243 
L 116.16768 182.41976 
L 116.88192 176.706945 
L 117.23904 180.745776 
L 117.59616 178.820176 
L 117.95328 183.742691 
L 118.3104 183.589646 
L 119.02464 175.257774 
L 119.73888 181.472091 
L 120.096 175.409954 
L 120.45312 175.686646 
L 120.81024 176.484727 
L 121.16736 180.475137 
L 121.52448 178.817582 
L 121.8816 175.176496 
L 122.23872 176.138863 
L 122.59584 173.0624 
L 123.31008 171.989356 
L 124.02432 177.268975 
L 124.38144 174.268602 
L 124.73856 175.004428 
L 125.09568 170.784019 
L 125.4528 176.279803 
L 125.80992 175.626119 
L 126.16704 170.536726 
L 126.52416 175.978036 
L 126.88128 174.94909 
L 127.2384 173.154054 
L 127.59552 169.372892 
L 127.95264 172.965558 
L 128.30976 174.766646 
L 128.66688 169.078043 
L 129.024 174.968977 
L 129.38112 169.777553 
L 129.73824 172.562626 
L 130.09536 172.209844 
L 130.45248 169.851914 
L 130.8096 166.439962 
L 131.16672 172.366348 
L 131.52384 171.151499 
L 131.88096 168.723532 
L 132.23808 172.764092 
L 132.5952 167.107481 
L 132.95232 167.653082 
L 133.30944 169.608944 
L 134.02368 166.465038 
L 134.3808 166.310263 
L 134.73792 165.921166 
L 135.09504 162.759966 
L 135.45216 165.681655 
L 135.80928 167.635788 
L 136.52352 169.345223 
L 136.88064 168.132968 
L 137.23776 161.743989 
L 137.59488 166.214286 
L 137.952 166.016279 
L 138.30912 166.191805 
L 138.66624 163.140417 
L 139.02336 164.984738 
L 139.38048 167.751653 
L 139.7376 166.184023 
L 140.09472 158.743616 
L 140.45184 166.567068 
L 140.80896 159.635946 
L 141.16608 160.115833 
L 141.5232 161.231245 
L 141.88032 163.17068 
L 142.23744 165.938459 
L 142.59456 159.693878 
L 142.95168 165.161994 
L 143.3088 161.928162 
L 143.66592 161.673087 
L 144.02304 164.971768 
L 144.38016 164.378611 
L 144.73728 157.195009 
L 145.0944 154.995311 
L 145.45152 162.951921 
L 145.80864 158.572413 
L 146.16576 158.487677 
L 146.52288 162.379515 
L 146.88 159.768239 
L 147.23712 160.308652 
L 147.59424 156.536137 
L 147.95136 156.824934 
L 148.30848 156.020799 
L 148.6656 159.725006 
L 149.02272 161.788952 
L 149.37984 154.914898 
L 149.73696 159.912638 
L 150.09408 155.467416 
L 150.4512 160.820532 
L 150.80832 151.181292 
L 151.16544 157.300497 
L 151.52256 150.748097 
L 151.87968 159.094669 
L 152.2368 152.116855 
L 152.59392 151.592006 
L 152.95104 158.947676 
L 153.30816 150.316632 
L 153.66528 154.782605 
L 154.0224 152.66678 
L 154.37952 152.713471 
L 154.73664 152.554374 
L 155.09376 148.958249 
L 155.45088 149.418249 
L 155.808 151.98975 
L 156.16512 155.578958 
L 156.52224 148.625355 
L 156.87936 147.402725 
L 157.23648 151.652533 
L 157.5936 150.83024 
L 157.95072 154.072718 
L 158.30784 152.749787 
L 158.66496 152.096968 
L 159.02208 147.717461 
L 159.3792 148.132498 
L 159.73632 150.134188 
L 160.09344 155.188131 
L 160.45056 145.676861 
L 160.80768 155.321289 
L 161.1648 147.931032 
L 161.52192 152.121179 
L 161.87904 146.250996 
L 162.23616 147.094041 
L 162.59328 152.223209 
L 162.9504 148.363363 
L 163.30752 149.847985 
L 163.66464 153.182982 
L 164.37888 150.032158 
L 164.736 151.833247 
L 165.09312 149.068061 
L 165.45024 151.857457 
L 165.80736 150.81727 
L 166.16448 148.984189 
L 166.5216 150.020918 
L 166.87872 143.352653 
L 167.23584 149.256557 
L 167.59296 145.793591 
L 167.95008 150.530203 
L 168.3072 144.344419 
L 168.66432 143.071638 
L 169.02144 140.099799 
L 169.37856 148.190431 
L 169.73568 148.094453 
L 170.0928 140.660099 
L 170.44992 142.052203 
L 170.80704 139.670927 
L 171.16416 140.714573 
L 171.52128 143.584382 
L 171.8784 148.619302 
L 172.23552 147.920656 
L 172.59264 138.10762 
L 172.94976 148.130769 
L 173.30688 141.04055 
L 173.664 146.097087 
L 174.02112 147.557499 
L 174.37824 146.26656 
L 174.73536 139.978746 
L 175.09248 138.184575 
L 175.4496 146.835507 
L 175.80672 143.02927 
L 176.16384 146.14032 
L 176.52096 141.673482 
L 176.87808 143.566224 
L 177.2352 143.536826 
L 177.59232 139.244649 
L 178.30656 139.214386 
L 178.66368 144.663479 
L 179.0208 140.525212 
L 179.37792 143.43739 
L 179.73504 142.516526 
L 180.09216 135.587134 
L 180.44928 143.369082 
L 180.8064 144.75081 
L 181.16352 142.449083 
L 181.52064 137.753109 
L 181.87776 141.081189 
L 182.23488 140.877129 
L 182.592 143.184909 
L 182.94912 137.380441 
L 183.30624 138.105026 
L 183.66336 137.001719 
L 184.02048 139.134838 
L 184.3776 137.628598 
L 184.73472 132.099957 
L 185.09184 132.27116 
L 185.44896 138.637658 
L 185.80608 133.904504 
L 186.1632 137.898372 
L 186.52032 130.913642 
L 186.87744 134.670594 
L 187.23456 130.543567 
L 187.59168 137.794613 
L 187.9488 133.28973 
L 188.30592 132.139731 
L 188.66304 132.835783 
L 189.02016 136.601381 
L 189.37728 130.742439 
L 189.7344 132.191611 
L 190.09152 130.215861 
L 190.44864 137.783373 
L 190.80576 137.753109 
L 191.16288 131.042477 
L 191.52 136.325554 
L 191.87712 127.91154 
L 192.23424 132.483866 
L 192.59136 129.587252 
L 192.94848 137.488523 
L 193.3056 137.581042 
L 193.66272 135.964991 
L 194.37696 126.989811 
L 195.0912 137.197133 
L 195.44832 132.628265 
L 195.80544 126.449398 
L 196.16256 128.783983 
L 196.51968 136.260705 
L 196.8768 128.150186 
L 197.23392 126.442481 
L 197.59104 127.060713 
L 197.94816 132.452738 
L 198.30528 127.485262 
L 198.6624 135.082172 
L 199.01952 134.159579 
L 199.37664 133.705632 
L 199.73376 129.639997 
L 200.09088 133.257738 
L 200.448 125.649587 
L 200.80512 124.909437 
L 201.16224 129.711764 
L 201.51936 124.422633 
L 201.87648 134.814127 
L 202.2336 127.488721 
L 202.59072 123.632333 
L 202.94784 129.545749 
L 203.30496 122.586094 
L 203.66208 131.625258 
L 204.0192 126.489173 
L 204.37632 130.240071 
L 204.73344 127.775788 
L 205.09056 133.375332 
L 205.44768 132.200258 
L 205.8048 123.872709 
L 206.16192 128.208118 
L 206.51904 127.148909 
L 206.87616 130.979356 
L 207.23328 124.569626 
L 207.5904 121.074666 
L 208.30464 128.125976 
L 208.66176 125.207745 
L 209.01888 120.413201 
L 209.376 130.72774 
L 209.73312 127.66857 
L 210.09024 120.901734 
L 210.44736 124.929324 
L 210.80448 125.144625 
L 211.51872 130.502064 
L 211.87584 119.141285 
L 212.23296 121.227711 
L 212.59008 119.429217 
L 212.9472 119.393766 
L 213.30432 121.525155 
L 213.66144 121.291696 
L 214.01856 123.605529 
L 214.37568 127.73342 
L 214.7328 120.389855 
L 215.08992 127.316653 
L 215.44704 119.217375 
L 215.80416 128.703569 
L 216.16128 123.141206 
L 216.87552 124.261806 
L 217.23264 118.214368 
L 217.58976 128.023081 
L 217.94688 116.366588 
L 218.304 122.145981 
L 218.66112 118.755646 
L 219.01824 117.965346 
L 219.37536 117.606512 
L 219.73248 125.559662 
L 220.44672 117.243354 
L 220.80384 126.405301 
L 221.16096 125.008009 
L 221.51808 117.126625 
L 221.8752 125.698873 
L 222.23232 119.76557 
L 222.58944 123.690265 
L 222.94656 114.33377 
L 223.30368 125.43861 
L 223.6608 125.371166 
L 224.01792 120.533389 
L 224.37504 124.182257 
L 224.73216 121.190531 
L 225.08928 112.586291 
L 225.4464 116.600911 
L 225.80352 123.450754 
L 226.16064 119.81745 
L 226.51776 112.98317 
L 226.87488 119.965307 
L 227.232 122.540267 
L 227.58912 120.698539 
L 227.94624 111.9499 
L 228.30336 112.889787 
L 228.66048 112.428058 
L 229.0176 120.240269 
L 229.37472 116.606964 
L 229.73184 118.546398 
L 230.08896 116.341513 
L 230.44608 121.508726 
L 230.8032 121.707598 
L 231.16032 122.037899 
L 231.51744 114.204071 
L 231.87456 121.902147 
L 232.23168 119.063465 
L 232.5888 112.757494 
L 233.30304 120.414065 
L 233.66016 112.294035 
L 234.01728 118.819631 
L 234.3744 114.110688 
L 234.73152 121.136922 
L 235.08864 120.946697 
L 235.44576 120.558464 
L 235.80288 114.833544 
L 236.51712 117.117978 
L 236.87424 118.064782 
L 237.23136 118.046624 
L 237.58848 109.527985 
L 237.9456 115.475123 
L 238.30272 107.885994 
L 238.65984 110.519751 
L 239.01696 110.683172 
L 239.37408 106.229304 
L 239.7312 106.883853 
L 240.08832 116.711588 
L 240.44544 110.051105 
L 240.80256 107.614491 
L 241.15968 115.555536 
L 241.5168 115.633356 
L 241.87392 110.720353 
L 242.23104 112.322569 
L 242.58816 112.841366 
L 242.94528 116.754821 
L 243.3024 106.125545 
L 243.65952 105.835884 
L 244.01664 109.10949 
L 244.37376 108.91667 
L 244.73088 114.364898 
L 245.088 108.492122 
L 245.44512 113.719861 
L 245.80224 111.144037 
L 246.51648 112.737606 
L 246.8736 107.750243 
L 247.23072 110.751481 
L 247.58784 103.021413 
L 247.94496 110.415127 
L 248.30208 112.748847 
L 248.6592 109.387046 
L 249.01632 104.825095 
L 249.37344 105.911109 
L 249.73056 111.282382 
L 250.08768 111.150089 
L 250.4448 106.033891 
L 250.80192 109.141482 
L 251.15904 104.67205 
L 251.51616 110.077045 
L 251.87328 109.05761 
L 252.2304 110.811142 
L 252.58752 101.175362 
L 252.94464 109.537497 
L 253.30176 106.091823 
L 253.65888 108.494716 
L 254.016 103.919795 
L 254.37312 113.721591 
L 254.73024 104.667727 
L 255.44448 112.337269 
L 255.8016 113.35238 
L 256.15872 105.458891 
L 256.51584 100.931527 
L 256.87296 107.140657 
L 257.5872 112.102081 
L 257.94432 110.566443 
L 258.30144 101.132993 
L 259.01568 110.920954 
L 259.3728 99.239386 
L 259.72992 109.158775 
L 260.08704 110.75321 
L 260.44416 100.409272 
L 260.80128 111.406893 
L 261.1584 110.128925 
L 261.51552 101.420061 
L 261.87264 109.058475 
L 262.22976 99.084612 
L 262.58688 110.620917 
L 262.944 105.085358 
L 263.30112 109.425955 
L 263.65824 108.882948 
L 264.01536 102.413556 
L 264.37248 110.244789 
L 265.08672 103.656074 
L 265.44384 108.028664 
L 265.80096 107.316183 
L 266.15808 105.902462 
L 266.5152 99.99337 
L 266.87232 104.165359 
L 267.22944 96.490629 
L 267.58656 102.157616 
L 267.94368 99.948408 
L 268.3008 106.020056 
L 268.65792 100.597768 
L 269.01504 108.512009 
L 269.37216 95.590517 
L 269.72928 95.927735 
L 270.0864 94.937698 
L 270.44352 94.456082 
L 270.80064 98.856341 
L 271.15776 101.633632 
L 271.51488 102.558819 
L 271.872 94.099842 
L 272.22912 101.448594 
L 272.58624 106.407424 
L 272.94336 100.450776 
L 273.30048 103.596412 
L 273.6576 96.478524 
L 274.01472 94.760443 
L 274.37184 98.706755 
L 274.72896 96.417998 
L 275.08608 95.60954 
L 275.4432 102.903819 
L 275.80032 95.032811 
L 276.15744 103.535886 
L 276.87168 95.132247 
L 277.2288 105.784004 
L 277.58592 101.843744 
L 277.94304 105.20641 
L 278.30016 91.900145 
L 278.65728 93.052738 
L 279.0144 101.397579 
L 279.37152 104.036524 
L 279.72864 104.869193 
L 280.08576 97.577508 
L 280.44288 104.004532 
L 280.8 96.473336 
L 281.15712 97.030178 
L 281.51424 96.319426 
L 281.87136 99.084612 
L 282.22848 92.25552 
L 282.5856 98.891792 
L 282.94272 101.56273 
L 283.29984 100.37728 
L 283.65696 103.06724 
L 284.01408 101.12867 
L 284.3712 100.520813 
L 284.72832 96.709388 
L 285.08544 98.506154 
L 285.44256 96.168975 
L 285.79968 94.91954 
L 286.1568 95.862021 
L 286.51392 102.561413 
L 286.87104 90.056688 
L 287.22816 94.069579 
L 287.58528 100.60555 
L 288.29952 96.792396 
L 288.65664 99.593897 
L 289.01376 91.000897 
L 289.37088 98.709349 
L 289.728 93.350181 
L 290.08512 95.002548 
L 290.44224 99.230739 
L 290.79936 89.561237 
L 291.15648 92.356686 
L 291.5136 90.511499 
L 291.87072 96.742245 
L 292.22784 95.235142 
L 292.58496 87.459247 
L 292.94208 100.4404 
L 293.2992 100.932392 
L 293.65632 91.897551 
L 294.01344 92.576309 
L 294.37056 98.717131 
L 294.72768 98.355703 
L 295.0848 98.377319 
L 295.44192 90.083492 
L 295.79904 92.565069 
L 296.15616 92.657588 
L 296.51328 86.783946 
L 296.8704 97.484124 
L 297.58464 88.727704 
L 297.94176 97.523899 
L 298.656 94.518338 
L 299.01312 86.327406 
L 299.37024 86.33 
L 299.72736 89.19808 
L 300.08448 98.990364 
L 300.4416 92.062701 
L 300.79872 87.431577 
L 301.15584 84.922332 
L 301.51296 93.797211 
L 301.87008 91.840483 
L 302.2272 93.159956 
L 302.58432 91.559468 
L 302.94144 90.971499 
L 303.29856 88.085261 
L 303.65568 89.495523 
L 304.0128 96.465554 
L 304.36992 94.893601 
L 304.72704 92.317776 
L 305.08416 91.565521 
L 305.44128 86.440676 
L 305.7984 93.24988 
L 306.15552 88.795148 
L 306.51264 96.167246 
L 306.86976 88.980185 
L 307.22688 91.766987 
L 307.584 92.154355 
L 307.94112 91.055371 
L 308.29824 83.790491 
L 308.65536 86.371503 
L 309.01248 96.315103 
L 309.72672 86.492556 
L 310.08384 90.362778 
L 310.44096 88.340336 
L 310.79808 87.205901 
L 311.1552 91.958077 
L 311.51232 90.855634 
L 311.86944 88.361088 
L 312.22656 89.780861 
L 312.58368 86.420789 
L 312.9408 89.839658 
L 313.29792 83.993686 
L 313.65504 92.733678 
L 314.01216 94.782059 
L 314.36928 90.537439 
L 314.7264 92.678339 
L 315.08352 86.22797 
L 315.44064 85.588985 
L 315.79776 92.883264 
L 316.15488 85.450639 
L 316.512 82.589477 
L 316.86912 86.743307 
L 317.22624 85.297594 
L 317.58336 79.826885 
L 317.94048 79.154179 
L 318.2976 91.750558 
L 318.65472 90.335109 
L 319.01184 87.499021 
L 319.36896 79.511284 
L 319.72608 92.562475 
L 320.0832 89.876838 
L 320.44032 81.971244 
L 320.79744 88.844433 
L 321.15456 79.399743 
L 321.51168 87.504209 
L 321.8688 86.818533 
L 322.22592 92.067024 
L 322.58304 83.158424 
L 322.94016 88.933493 
L 323.29728 84.208122 
L 323.6544 86.547029 
L 324.01152 86.797781 
L 324.36864 89.556049 
L 324.72576 81.05211 
L 325.08288 84.673309 
L 325.44 78.238503 
L 325.79712 77.901286 
L 326.15424 79.615043 
L 326.51136 90.987928 
L 326.86848 81.642673 
L 327.2256 76.735723 
L 327.93984 75.797566 
L 328.29696 85.542293 
L 328.65408 78.710608 
L 329.0112 90.617853 
L 329.36832 77.277865 
L 329.72544 85.478309 
L 330.08256 84.338686 
L 330.43968 77.878804 
L 330.7968 85.440264 
L 331.15392 87.777442 
L 331.51104 74.678695 
L 331.86816 85.170489 
L 332.22528 81.774966 
L 332.5824 88.999208 
L 332.93952 83.252672 
L 333.29664 81.065944 
L 333.65376 79.672111 
L 334.01088 86.6603 
L 334.368 85.985 
L 334.72512 79.132563 
L 335.08224 81.0132 
L 335.43936 74.370875 
L 335.79648 81.249252 
L 336.1536 74.710687 
L 336.51072 76.452979 
L 336.86784 88.316125 
L 337.22496 77.437827 
L 337.58208 80.812599 
L 337.9392 77.125685 
L 338.29632 82.540191 
L 338.65344 85.389249 
L 339.01056 81.527673 
L 339.36768 82.07241 
L 339.7248 74.721063 
L 340.43904 79.562299 
L 340.79616 72.389073 
L 341.15328 83.233649 
L 341.5104 72.845614 
L 341.86752 75.042717 
L 342.22464 76.359595 
L 342.58176 78.544593 
L 342.93888 84.751129 
L 343.296 73.443094 
L 343.65312 72.174637 
L 344.01024 77.12482 
L 344.36736 72.051855 
L 344.72448 84.416505 
L 345.0816 78.36215 
L 345.43872 78.233315 
L 345.79584 74.860273 
L 346.15296 79.794893 
L 346.51008 77.68685 
L 346.8672 79.934103 
L 347.22432 80.43993 
L 347.58144 74.509221 
L 347.93856 78.313729 
L 348.29568 70.393435 
L 348.6528 78.818691 
L 349.00992 80.517749 
L 349.36704 70.172947 
L 349.72416 84.079287 
L 350.08128 82.267823 
L 350.4384 73.741402 
L 350.79552 71.207946 
L 351.15264 84.327445 
L 351.50976 74.612116 
L 351.86688 76.299934 
L 352.224 82.168387 
L 352.58112 83.064176 
L 352.93824 74.70377 
L 353.29536 77.193993 
L 353.65248 77.403241 
L 354.0096 70.116744 
L 354.36672 70.274977 
L 354.72384 74.159898 
L 355.08096 70.703849 
L 355.43808 82.917183 
L 355.7952 76.787602 
L 356.15232 68.233513 
L 356.50944 83.09098 
L 356.86656 72.127945 
L 357.22368 81.897748 
L 357.5808 77.569256 
L 357.93792 81.442072 
L 358.65216 73.609974 
L 359.00928 78.676022 
L 359.3664 69.448361 
L 360.08064 66.825845 
L 360.43776 69.192422 
L 360.79488 79.907299 
L 361.152 69.887609 
L 361.50912 70.276706 
L 361.86624 78.150308 
L 362.22336 67.779566 
L 362.58048 79.404931 
L 362.9376 67.830581 
L 363.29472 68.446219 
L 363.65184 75.043581 
L 364.00896 74.159033 
L 364.36608 79.097976 
L 364.7232 71.271066 
L 365.08032 70.028549 
L 365.43744 79.637525 
L 365.79456 74.702905 
L 366.15168 67.672348 
L 366.5088 71.519224 
L 366.86592 76.976098 
L 367.22304 68.315655 
L 367.58016 64.827614 
L 367.93728 70.906179 
L 368.2944 79.947073 
L 368.65152 67.567724 
L 369.00864 80.030945 
L 369.36576 66.013928 
L 369.72288 66.262086 
L 370.08 78.398466 
L 370.43712 67.166521 
L 370.79424 64.058065 
L 371.15136 71.807156 
L 371.50848 71.635088 
L 371.8656 63.874757 
L 372.22272 75.420574 
L 372.93696 65.783064 
L 373.29408 69.955917 
L 373.6512 66.268139 
L 374.00832 76.628505 
L 374.36544 74.936364 
L 374.72256 63.978517 
L 375.07968 65.35938 
L 375.4368 70.592307 
L 375.79392 73.780312 
L 376.50816 65.123328 
L 376.86528 78.158955 
L 377.2224 72.803245 
L 377.57952 70.760916 
L 377.93664 74.713281 
L 378.29376 73.540801 
L 378.65088 68.208437 
L 379.008 65.552199 
L 379.36512 73.820951 
L 379.72224 75.017642 
L 380.07936 71.867682 
L 380.43648 63.362013 
L 380.7936 62.100473 
L 381.15072 66.262951 
L 381.50784 74.238582 
L 381.86496 75.027153 
L 382.22208 62.247466 
L 382.5792 72.146968 
L 382.93632 65.783064 
L 383.29344 69.841782 
L 384.00768 74.511815 
L 384.3648 71.332457 
L 384.72192 69.839188 
L 385.07904 72.484185 
L 385.43616 59.958708 
L 385.79328 70.903585 
L 386.1504 73.519184 
L 386.50752 61.39491 
L 386.86464 67.111183 
L 387.22176 66.160921 
L 387.57888 64.877764 
L 387.936 61.584271 
L 388.29312 72.51099 
L 388.65024 65.412124 
L 389.00736 72.590539 
L 389.36448 71.54084 
L 389.7216 58.742995 
L 390.07872 64.579456 
L 390.43584 68.121971 
L 390.79296 63.488254 
L 391.15008 60.56743 
L 391.5072 72.015539 
L 391.86432 58.922845 
L 392.22144 66.959003 
L 392.57856 70.044112 
L 392.93568 70.861217 
L 393.2928 61.356865 
L 393.64992 70.174676 
L 394.00704 70.492007 
L 394.36416 72.481591 
L 394.72128 66.460093 
L 395.0784 70.759187 
L 395.43552 58.254462 
L 395.79264 58.015815 
L 396.14976 61.278181 
L 396.50688 59.398408 
L 396.864 63.652539 
L 397.22112 63.818554 
L 397.57824 61.451978 
L 397.93536 65.041185 
L 398.29248 62.218932 
L 398.6496 65.106034 
L 399.00672 62.316638 
L 399.36384 72.06396 
L 399.72096 62.78442 
L 400.07808 59.318859 
L 400.4352 57.68465 
L 400.79232 59.920663 
L 401.14944 58.319311 
L 401.50656 60.877843 
L 401.86368 60.75852 
L 402.2208 61.870473 
L 402.57792 67.923099 
L 402.93504 67.233965 
L 403.29216 62.965999 
L 403.64928 61.886037 
L 404.0064 70.869864 
L 404.36352 60.788783 
L 404.72064 70.978811 
L 405.07776 69.240843 
L 405.43488 70.986593 
L 405.792 65.425094 
L 406.14912 63.480472 
L 406.50624 56.101456 
L 406.86336 55.795366 
L 407.22048 65.163102 
L 407.5776 64.166148 
L 407.93472 69.763098 
L 408.29184 63.780509 
L 408.64896 61.645662 
L 409.00608 58.423071 
L 409.3632 59.612844 
L 409.72032 59.410513 
L 410.07744 64.69532 
L 410.43456 66.499868 
L 410.79168 65.382726 
L 411.1488 56.814801 
L 411.50592 66.053703 
L 411.86304 68.901031 
L 412.22016 56.478448 
L 412.57728 57.007621 
L 412.9344 64.539681 
L 413.29152 53.568 
L 413.64864 63.235773 
L 414.36288 59.013634 
L 414.72 58.538935 
L 414.72 58.538935 
" style="fill:none;stroke:#000080;stroke-linecap:square;stroke-width:0.5;"/>
   </g>
   <g id="patch_3">
    <path d="M 57.6 307.584 
L 57.6 41.472 
" style="fill:none;stroke:#000000;stroke-linecap:square;stroke-linejoin:miter;stroke-width:0.8;"/>
   </g>
   <g id="patch_4">
    <path d="M 414.72 307.584 
L 414.72 41.472 
" style="fill:none;stroke:#000000;stroke-linecap:square;stroke-linejoin:miter;stroke-width:0.8;"/>
   </g>
   <g id="patch_5">
    <path d="M 57.6 307.584 
L 414.72 307.584 
" style="fill:none;stroke:#000000;stroke-linecap:square;stroke-linejoin:miter;stroke-width:0.8;"/>
   </g>
   <g id="patch_6">
    <path d="M 57.6 41.472 
L 414.72 41.472 
" style="fill:none;stroke:#000000;stroke-linecap:square;stroke-linejoin:miter;stroke-width:0.8;"/>
   </g>
   <g id="text_15">
    <!-- Test -->
    <defs>
     <path d="M -0.296875 72.90625 
L 61.375 72.90625 
L 61.375 64.59375 
L 35.5 64.59375 
L 35.5 0 
L 25.59375 0 
L 25.59375 64.59375 
L -0.296875 64.59375 
z
" id="DejaVuSans-54"/>
    </defs>
    <g transform="translate(223.341563 35.472)scale(0.12 -0.12)">
     <use xlink:href="#DejaVuSans-54"/>
     <use x="60.818359" xlink:href="#DejaVuSans-65"/>
     <use x="122.341797" xlink:href="#DejaVuSans-73"/>
     <use x="174.441406" xlink:href="#DejaVuSans-74"/>
    </g>
   </g>
   <g id="legend_1">
    <g id="patch_7">
     <path d="M 64.6 64.150125 
L 306.276563 64.150125 
Q 308.276563 64.150125 308.276563 62.150125 
L 308.276563 48.472 
Q 308.276563 46.472 306.276563 46.472 
L 64.6 46.472 
Q 62.6 46.472 62.6 48.472 
L 62.6 62.150125 
Q 62.6 64.150125 64.6 64.150125 
z
" style="fill:#ffffff;opacity:0.8;stroke:#cccccc;stroke-linejoin:miter;"/>
    </g>
    <g id="line2d_26">
     <path d="M 66.6 54.570438 
L 86.6 54.570438 
" style="fill:none;stroke:#000080;stroke-linecap:square;stroke-width:0.5;"/>
    </g>
    <g id="line2d_27"/>
    <g id="text_16">
     <!-- Successful download requests per second -->
     <g transform="translate(94.6 58.070438)scale(0.1 -0.1)">
      <use xlink:href="#DejaVuSans-53"/>
      <use x="63.476562" xlink:href="#DejaVuSans-75"/>
      <use x="126.855469" xlink:href="#DejaVuSans-63"/>
      <use x="181.835938" xlink:href="#DejaVuSans-63"/>
      <use x="236.816406" xlink:href="#DejaVuSans-65"/>
      <use x="298.339844" xlink:href="#DejaVuSans-73"/>
      <use x="350.439453" xlink:href="#DejaVuSans-73"/>
      <use x="402.539062" xlink:href="#DejaVuSans-66"/>
      <use x="437.744141" xlink:href="#DejaVuSans-75"/>
      <use x="501.123047" xlink:href="#DejaVuSans-6c"/>
      <use x="528.90625" xlink:href="#DejaVuSans-20"/>
      <use x="560.693359" xlink:href="#DejaVuSans-64"/>
      <use x="624.169922" xlink:href="#DejaVuSans-6f"/>
      <use x="685.351562" xlink:href="#DejaVuSans-77"/>
      <use x="767.138672" xlink:href="#DejaVuSans-6e"/>
      <use x="830.517578" xlink:href="#DejaVuSans-6c"/>
      <use x="858.300781" xlink:href="#DejaVuSans-6f"/>
      <use x="919.482422" xlink:href="#DejaVuSans-61"/>
      <use x="980.761719" xlink:href="#DejaVuSans-64"/>
      <use x="1044.238281" xlink:href="#DejaVuSans-20"/>
      <use x="1076.025391" xlink:href="#DejaVuSans-72"/>
      <use x="1117.107422" xlink:href="#DejaVuSans-65"/>
      <use x="1178.630859" xlink:href="#DejaVuSans-71"/>
      <use x="1242.107422" xlink:href="#DejaVuSans-75"/>
      <use x="1305.486328" xlink:href="#DejaVuSans-65"/>
      <use x="1367.009766" xlink:href="#DejaVuSans-73"/>
      <use x="1419.109375" xlink:href="#DejaVuSans-74"/>
      <use x="1458.318359" xlink:href="#DejaVuSans-73"/>
      <use x="1510.417969" xlink:href="#DejaVuSans-20"/>
      <use x="1542.205078" xlink:href="#DejaVuSans-70"/>
      <use x="1605.681641" xlink:href="#DejaVuSans-65"/>
      <use x="1667.205078" xlink:href="#DejaVuSans-72"/>
      <use x="1708.318359" xlink:href="#DejaVuSans-20"/>
      <use x="1740.105469" xlink:href="#DejaVuSans-73"/>
      <use x="1792.205078" xlink:href="#DejaVuSans-65"/>
      <use x="1853.728516" xlink:href="#DejaVuSans-63"/>
      <use x="1908.708984" xlink:href="#DejaVuSans-6f"/>
      <use x="1969.890625" xlink:href="#DejaVuSans-6e"/>
      <use x="2033.269531" xlink:href="#DejaVuSans-64"/>
     </g>
    </g>
   </g>
  </g>
 </g>
 <defs>
  <clipPath id="p54bb27913d">
   <rect height="266.112" width="357.12" x="57.6" y="41.472"/>
  </clipPath>
 </defs>
</svg>
