<?xml version="1.0" encoding="utf-8" standalone="no"?>
<!DOCTYPE svg PUBLIC "-//W3C//DTD SVG 1.1//EN"
  "http://www.w3.org/Graphics/SVG/1.1/DTD/svg11.dtd">
<!-- Created with matplotlib (http://matplotlib.org/) -->
<svg height="345pt" version="1.1" viewBox="0 0 460 345" width="460pt" xmlns="http://www.w3.org/2000/svg" xmlns:xlink="http://www.w3.org/1999/xlink">
 <defs>
  <style type="text/css">
*{stroke-linecap:butt;stroke-linejoin:round;}
  </style>
 </defs>
 <g id="figure_1">
  <g id="patch_1">
   <path d="M 0 345.6 
L 460.8 345.6 
L 460.8 0 
L 0 0 
z
" style="fill:#ffffff;"/>
  </g>
  <g id="axes_1">
   <g id="patch_2">
    <path d="M 57.6 307.584 
L 414.72 307.584 
L 414.72 41.472 
L 57.6 41.472 
z
" style="fill:#ffffff;"/>
   </g>
   <g id="matplotlib.axis_1">
    <g id="xtick_1">
     <g id="line2d_1">
      <path clip-path="url(#pb277261789)" d="M 57.6 307.584 
L 57.6 41.472 
" style="fill:none;stroke:#b0b0b0;stroke-linecap:square;stroke-width:0.8;"/>
     </g>
     <g id="line2d_2">
      <defs>
       <path d="M 0 0 
L 0 3.5 
" id="m61994fe679" style="stroke:#000000;stroke-width:0.8;"/>
      </defs>
      <g>
       <use style="stroke:#000000;stroke-width:0.8;" x="57.6" xlink:href="#m61994fe679" y="307.584"/>
      </g>
     </g>
     <g id="text_1">
      <!-- 0 -->
      <defs>
       <path d="M 31.78125 66.40625 
Q 24.171875 66.40625 20.328125 58.90625 
Q 16.5 51.421875 16.5 36.375 
Q 16.5 21.390625 20.328125 13.890625 
Q 24.171875 6.390625 31.78125 6.390625 
Q 39.453125 6.390625 43.28125 13.890625 
Q 47.125 21.390625 47.125 36.375 
Q 47.125 51.421875 43.28125 58.90625 
Q 39.453125 66.40625 31.78125 66.40625 
M 31.78125 74.21875 
Q 44.046875 74.21875 50.515625 64.515625 
Q 56.984375 54.828125 56.984375 36.375 
Q 56.984375 17.96875 50.515625 8.265625 
Q 44.046875 -1.421875 31.78125 -1.421875 
Q 19.53125 -1.421875 13.0625 8.265625 
Q 6.59375 17.96875 6.59375 36.375 
Q 6.59375 54.828125 13.0625 64.515625 
Q 19.53125 74.21875 31.78125 74.21875 
" id="DejaVuSans-30"/>
      </defs>
      <g transform="translate(54.41875 322.182437)scale(0.1 -0.1)">
       <use xlink:href="#DejaVuSans-30"/>
      </g>
     </g>
    </g>
    <g id="xtick_2">
     <g id="line2d_3">
      <path clip-path="url(#pb277261789)" d="M 129.024 307.584 
L 129.024 41.472 
" style="fill:none;stroke:#b0b0b0;stroke-linecap:square;stroke-width:0.8;"/>
     </g>
     <g id="line2d_4">
      <g>
       <use style="stroke:#000000;stroke-width:0.8;" x="129.024" xlink:href="#m61994fe679" y="307.584"/>
      </g>
     </g>
     <g id="text_2">
      <!-- 200 -->
      <defs>
       <path d="M 19.1875 8.296875 
L 53.609375 8.296875 
L 53.609375 0 
L 7.328125 0 
L 7.328125 8.296875 
Q 12.9375 14.109375 22.625 23.890625 
Q 32.328125 33.6875 34.8125 36.53125 
Q 39.546875 41.84375 41.421875 45.53125 
Q 43.3125 49.21875 43.3125 52.78125 
Q 43.3125 58.59375 39.234375 62.25 
Q 35.15625 65.921875 28.609375 65.921875 
Q 23.96875 65.921875 18.8125 64.3125 
Q 13.671875 62.703125 7.8125 59.421875 
L 7.8125 69.390625 
Q 13.765625 71.78125 18.9375 73 
Q 24.125 74.21875 28.421875 74.21875 
Q 39.75 74.21875 46.484375 68.546875 
Q 53.21875 62.890625 53.21875 53.421875 
Q 53.21875 48.921875 51.53125 44.890625 
Q 49.859375 40.875 45.40625 35.40625 
Q 44.1875 33.984375 37.640625 27.21875 
Q 31.109375 20.453125 19.1875 8.296875 
" id="DejaVuSans-32"/>
      </defs>
      <g transform="translate(119.48025 322.182437)scale(0.1 -0.1)">
       <use xlink:href="#DejaVuSans-32"/>
       <use x="63.623047" xlink:href="#DejaVuSans-30"/>
       <use x="127.246094" xlink:href="#DejaVuSans-30"/>
      </g>
     </g>
    </g>
    <g id="xtick_3">
     <g id="line2d_5">
      <path clip-path="url(#pb277261789)" d="M 200.448 307.584 
L 200.448 41.472 
" style="fill:none;stroke:#b0b0b0;stroke-linecap:square;stroke-width:0.8;"/>
     </g>
     <g id="line2d_6">
      <g>
       <use style="stroke:#000000;stroke-width:0.8;" x="200.448" xlink:href="#m61994fe679" y="307.584"/>
      </g>
     </g>
     <g id="text_3">
      <!-- 400 -->
      <defs>
       <path d="M 37.796875 64.3125 
L 12.890625 25.390625 
L 37.796875 25.390625 
z
M 35.203125 72.90625 
L 47.609375 72.90625 
L 47.609375 25.390625 
L 58.015625 25.390625 
L 58.015625 17.1875 
L 47.609375 17.1875 
L 47.609375 0 
L 37.796875 0 
L 37.796875 17.1875 
L 4.890625 17.1875 
L 4.890625 26.703125 
z
" id="DejaVuSans-34"/>
      </defs>
      <g transform="translate(190.90425 322.182437)scale(0.1 -0.1)">
       <use xlink:href="#DejaVuSans-34"/>
       <use x="63.623047" xlink:href="#DejaVuSans-30"/>
       <use x="127.246094" xlink:href="#DejaVuSans-30"/>
      </g>
     </g>
    </g>
    <g id="xtick_4">
     <g id="line2d_7">
      <path clip-path="url(#pb277261789)" d="M 271.872 307.584 
L 271.872 41.472 
" style="fill:none;stroke:#b0b0b0;stroke-linecap:square;stroke-width:0.8;"/>
     </g>
     <g id="line2d_8">
      <g>
       <use style="stroke:#000000;stroke-width:0.8;" x="271.872" xlink:href="#m61994fe679" y="307.584"/>
      </g>
     </g>
     <g id="text_4">
      <!-- 600 -->
      <defs>
       <path d="M 33.015625 40.375 
Q 26.375 40.375 22.484375 35.828125 
Q 18.609375 31.296875 18.609375 23.390625 
Q 18.609375 15.53125 22.484375 10.953125 
Q 26.375 6.390625 33.015625 6.390625 
Q 39.65625 6.390625 43.53125 10.953125 
Q 47.40625 15.53125 47.40625 23.390625 
Q 47.40625 31.296875 43.53125 35.828125 
Q 39.65625 40.375 33.015625 40.375 
M 52.59375 71.296875 
L 52.59375 62.3125 
Q 48.875 64.0625 45.09375 64.984375 
Q 41.3125 65.921875 37.59375 65.921875 
Q 27.828125 65.921875 22.671875 59.328125 
Q 17.53125 52.734375 16.796875 39.40625 
Q 19.671875 43.65625 24.015625 45.921875 
Q 28.375 48.1875 33.59375 48.1875 
Q 44.578125 48.1875 50.953125 41.515625 
Q 57.328125 34.859375 57.328125 23.390625 
Q 57.328125 12.15625 50.6875 5.359375 
Q 44.046875 -1.421875 33.015625 -1.421875 
Q 20.359375 -1.421875 13.671875 8.265625 
Q 6.984375 17.96875 6.984375 36.375 
Q 6.984375 53.65625 15.1875 63.9375 
Q 23.390625 74.21875 37.203125 74.21875 
Q 40.921875 74.21875 44.703125 73.484375 
Q 48.484375 72.75 52.59375 71.296875 
" id="DejaVuSans-36"/>
      </defs>
      <g transform="translate(262.32825 322.182437)scale(0.1 -0.1)">
       <use xlink:href="#DejaVuSans-36"/>
       <use x="63.623047" xlink:href="#DejaVuSans-30"/>
       <use x="127.246094" xlink:href="#DejaVuSans-30"/>
      </g>
     </g>
    </g>
    <g id="xtick_5">
     <g id="line2d_9">
      <path clip-path="url(#pb277261789)" d="M 343.296 307.584 
L 343.296 41.472 
" style="fill:none;stroke:#b0b0b0;stroke-linecap:square;stroke-width:0.8;"/>
     </g>
     <g id="line2d_10">
      <g>
       <use style="stroke:#000000;stroke-width:0.8;" x="343.296" xlink:href="#m61994fe679" y="307.584"/>
      </g>
     </g>
     <g id="text_5">
      <!-- 800 -->
      <defs>
       <path d="M 31.78125 34.625 
Q 24.75 34.625 20.71875 30.859375 
Q 16.703125 27.09375 16.703125 20.515625 
Q 16.703125 13.921875 20.71875 10.15625 
Q 24.75 6.390625 31.78125 6.390625 
Q 38.8125 6.390625 42.859375 10.171875 
Q 46.921875 13.96875 46.921875 20.515625 
Q 46.921875 27.09375 42.890625 30.859375 
Q 38.875 34.625 31.78125 34.625 
M 21.921875 38.8125 
Q 15.578125 40.375 12.03125 44.71875 
Q 8.5 49.078125 8.5 55.328125 
Q 8.5 64.0625 14.71875 69.140625 
Q 20.953125 74.21875 31.78125 74.21875 
Q 42.671875 74.21875 48.875 69.140625 
Q 55.078125 64.0625 55.078125 55.328125 
Q 55.078125 49.078125 51.53125 44.71875 
Q 48 40.375 41.703125 38.8125 
Q 48.828125 37.15625 52.796875 32.3125 
Q 56.78125 27.484375 56.78125 20.515625 
Q 56.78125 9.90625 50.3125 4.234375 
Q 43.84375 -1.421875 31.78125 -1.421875 
Q 19.734375 -1.421875 13.25 4.234375 
Q 6.78125 9.90625 6.78125 20.515625 
Q 6.78125 27.484375 10.78125 32.3125 
Q 14.796875 37.15625 21.921875 38.8125 
M 18.3125 54.390625 
Q 18.3125 48.734375 21.84375 45.5625 
Q 25.390625 42.390625 31.78125 42.390625 
Q 38.140625 42.390625 41.71875 45.5625 
Q 45.3125 48.734375 45.3125 54.390625 
Q 45.3125 60.0625 41.71875 63.234375 
Q 38.140625 66.40625 31.78125 66.40625 
Q 25.390625 66.40625 21.84375 63.234375 
Q 18.3125 60.0625 18.3125 54.390625 
" id="DejaVuSans-38"/>
      </defs>
      <g transform="translate(333.75225 322.182437)scale(0.1 -0.1)">
       <use xlink:href="#DejaVuSans-38"/>
       <use x="63.623047" xlink:href="#DejaVuSans-30"/>
       <use x="127.246094" xlink:href="#DejaVuSans-30"/>
      </g>
     </g>
    </g>
    <g id="xtick_6">
     <g id="line2d_11">
      <path clip-path="url(#pb277261789)" d="M 414.72 307.584 
L 414.72 41.472 
" style="fill:none;stroke:#b0b0b0;stroke-linecap:square;stroke-width:0.8;"/>
     </g>
     <g id="line2d_12">
      <g>
       <use style="stroke:#000000;stroke-width:0.8;" x="414.72" xlink:href="#m61994fe679" y="307.584"/>
      </g>
     </g>
     <g id="text_6">
      <!-- 1000 -->
      <defs>
       <path d="M 12.40625 8.296875 
L 28.515625 8.296875 
L 28.515625 63.921875 
L 10.984375 60.40625 
L 10.984375 69.390625 
L 28.421875 72.90625 
L 38.28125 72.90625 
L 38.28125 8.296875 
L 54.390625 8.296875 
L 54.390625 0 
L 12.40625 0 
z
" id="DejaVuSans-31"/>
      </defs>
      <g transform="translate(401.995 322.182437)scale(0.1 -0.1)">
       <use xlink:href="#DejaVuSans-31"/>
       <use x="63.623047" xlink:href="#DejaVuSans-30"/>
       <use x="127.246094" xlink:href="#DejaVuSans-30"/>
       <use x="190.869141" xlink:href="#DejaVuSans-30"/>
      </g>
     </g>
    </g>
    <g id="text_7">
     <!-- Number of clients -->
     <defs>
      <path d="M 9.8125 72.90625 
L 23.09375 72.90625 
L 55.421875 11.921875 
L 55.421875 72.90625 
L 64.984375 72.90625 
L 64.984375 0 
L 51.703125 0 
L 19.390625 60.984375 
L 19.390625 0 
L 9.8125 0 
z
" id="DejaVuSans-4e"/>
      <path d="M 8.5 21.578125 
L 8.5 54.6875 
L 17.484375 54.6875 
L 17.484375 21.921875 
Q 17.484375 14.15625 20.5 10.265625 
Q 23.53125 6.390625 29.59375 6.390625 
Q 36.859375 6.390625 41.078125 11.03125 
Q 45.3125 15.671875 45.3125 23.6875 
L 45.3125 54.6875 
L 54.296875 54.6875 
L 54.296875 0 
L 45.3125 0 
L 45.3125 8.40625 
Q 42.046875 3.421875 37.71875 1 
Q 33.40625 -1.421875 27.6875 -1.421875 
Q 18.265625 -1.421875 13.375 4.4375 
Q 8.5 10.296875 8.5 21.578125 
M 31.109375 56 
z
" id="DejaVuSans-75"/>
      <path d="M 52 44.1875 
Q 55.375 50.25 60.0625 53.125 
Q 64.75 56 71.09375 56 
Q 79.640625 56 84.28125 50.015625 
Q 88.921875 44.046875 88.921875 33.015625 
L 88.921875 0 
L 79.890625 0 
L 79.890625 32.71875 
Q 79.890625 40.578125 77.09375 44.375 
Q 74.3125 48.1875 68.609375 48.1875 
Q 61.625 48.1875 57.5625 43.546875 
Q 53.515625 38.921875 53.515625 30.90625 
L 53.515625 0 
L 44.484375 0 
L 44.484375 32.71875 
Q 44.484375 40.625 41.703125 44.40625 
Q 38.921875 48.1875 33.109375 48.1875 
Q 26.21875 48.1875 22.15625 43.53125 
Q 18.109375 38.875 18.109375 30.90625 
L 18.109375 0 
L 9.078125 0 
L 9.078125 54.6875 
L 18.109375 54.6875 
L 18.109375 46.1875 
Q 21.1875 51.21875 25.484375 53.609375 
Q 29.78125 56 35.6875 56 
Q 41.65625 56 45.828125 52.96875 
Q 50 49.953125 52 44.1875 
" id="DejaVuSans-6d"/>
      <path d="M 48.6875 27.296875 
Q 48.6875 37.203125 44.609375 42.84375 
Q 40.53125 48.484375 33.40625 48.484375 
Q 26.265625 48.484375 22.1875 42.84375 
Q 18.109375 37.203125 18.109375 27.296875 
Q 18.109375 17.390625 22.1875 11.75 
Q 26.265625 6.109375 33.40625 6.109375 
Q 40.53125 6.109375 44.609375 11.75 
Q 48.6875 17.390625 48.6875 27.296875 
M 18.109375 46.390625 
Q 20.953125 51.265625 25.265625 53.625 
Q 29.59375 56 35.59375 56 
Q 45.5625 56 51.78125 48.09375 
Q 58.015625 40.1875 58.015625 27.296875 
Q 58.015625 14.40625 51.78125 6.484375 
Q 45.5625 -1.421875 35.59375 -1.421875 
Q 29.59375 -1.421875 25.265625 0.953125 
Q 20.953125 3.328125 18.109375 8.203125 
L 18.109375 0 
L 9.078125 0 
L 9.078125 75.984375 
L 18.109375 75.984375 
z
" id="DejaVuSans-62"/>
      <path d="M 56.203125 29.59375 
L 56.203125 25.203125 
L 14.890625 25.203125 
Q 15.484375 15.921875 20.484375 11.0625 
Q 25.484375 6.203125 34.421875 6.203125 
Q 39.59375 6.203125 44.453125 7.46875 
Q 49.3125 8.734375 54.109375 11.28125 
L 54.109375 2.78125 
Q 49.265625 0.734375 44.1875 -0.34375 
Q 39.109375 -1.421875 33.890625 -1.421875 
Q 20.796875 -1.421875 13.15625 6.1875 
Q 5.515625 13.8125 5.515625 26.8125 
Q 5.515625 40.234375 12.765625 48.109375 
Q 20.015625 56 32.328125 56 
Q 43.359375 56 49.78125 48.890625 
Q 56.203125 41.796875 56.203125 29.59375 
M 47.21875 32.234375 
Q 47.125 39.59375 43.09375 43.984375 
Q 39.0625 48.390625 32.421875 48.390625 
Q 24.90625 48.390625 20.390625 44.140625 
Q 15.875 39.890625 15.1875 32.171875 
z
" id="DejaVuSans-65"/>
      <path d="M 41.109375 46.296875 
Q 39.59375 47.171875 37.8125 47.578125 
Q 36.03125 48 33.890625 48 
Q 26.265625 48 22.1875 43.046875 
Q 18.109375 38.09375 18.109375 28.8125 
L 18.109375 0 
L 9.078125 0 
L 9.078125 54.6875 
L 18.109375 54.6875 
L 18.109375 46.1875 
Q 20.953125 51.171875 25.484375 53.578125 
Q 30.03125 56 36.53125 56 
Q 37.453125 56 38.578125 55.875 
Q 39.703125 55.765625 41.0625 55.515625 
z
" id="DejaVuSans-72"/>
      <path id="DejaVuSans-20"/>
      <path d="M 30.609375 48.390625 
Q 23.390625 48.390625 19.1875 42.75 
Q 14.984375 37.109375 14.984375 27.296875 
Q 14.984375 17.484375 19.15625 11.84375 
Q 23.34375 6.203125 30.609375 6.203125 
Q 37.796875 6.203125 41.984375 11.859375 
Q 46.1875 17.53125 46.1875 27.296875 
Q 46.1875 37.015625 41.984375 42.703125 
Q 37.796875 48.390625 30.609375 48.390625 
M 30.609375 56 
Q 42.328125 56 49.015625 48.375 
Q 55.71875 40.765625 55.71875 27.296875 
Q 55.71875 13.875 49.015625 6.21875 
Q 42.328125 -1.421875 30.609375 -1.421875 
Q 18.84375 -1.421875 12.171875 6.21875 
Q 5.515625 13.875 5.515625 27.296875 
Q 5.515625 40.765625 12.171875 48.375 
Q 18.84375 56 30.609375 56 
" id="DejaVuSans-6f"/>
      <path d="M 37.109375 75.984375 
L 37.109375 68.5 
L 28.515625 68.5 
Q 23.6875 68.5 21.796875 66.546875 
Q 19.921875 64.59375 19.921875 59.515625 
L 19.921875 54.6875 
L 34.71875 54.6875 
L 34.71875 47.703125 
L 19.921875 47.703125 
L 19.921875 0 
L 10.890625 0 
L 10.890625 47.703125 
L 2.296875 47.703125 
L 2.296875 54.6875 
L 10.890625 54.6875 
L 10.890625 58.5 
Q 10.890625 67.625 15.140625 71.796875 
Q 19.390625 75.984375 28.609375 75.984375 
z
" id="DejaVuSans-66"/>
      <path d="M 48.78125 52.59375 
L 48.78125 44.1875 
Q 44.96875 46.296875 41.140625 47.34375 
Q 37.3125 48.390625 33.40625 48.390625 
Q 24.65625 48.390625 19.8125 42.84375 
Q 14.984375 37.3125 14.984375 27.296875 
Q 14.984375 17.28125 19.8125 11.734375 
Q 24.65625 6.203125 33.40625 6.203125 
Q 37.3125 6.203125 41.140625 7.25 
Q 44.96875 8.296875 48.78125 10.40625 
L 48.78125 2.09375 
Q 45.015625 0.34375 40.984375 -0.53125 
Q 36.96875 -1.421875 32.421875 -1.421875 
Q 20.0625 -1.421875 12.78125 6.34375 
Q 5.515625 14.109375 5.515625 27.296875 
Q 5.515625 40.671875 12.859375 48.328125 
Q 20.21875 56 33.015625 56 
Q 37.15625 56 41.109375 55.140625 
Q 45.0625 54.296875 48.78125 52.59375 
" id="DejaVuSans-63"/>
      <path d="M 9.421875 75.984375 
L 18.40625 75.984375 
L 18.40625 0 
L 9.421875 0 
z
" id="DejaVuSans-6c"/>
      <path d="M 9.421875 54.6875 
L 18.40625 54.6875 
L 18.40625 0 
L 9.421875 0 
z
M 9.421875 75.984375 
L 18.40625 75.984375 
L 18.40625 64.59375 
L 9.421875 64.59375 
z
" id="DejaVuSans-69"/>
      <path d="M 54.890625 33.015625 
L 54.890625 0 
L 45.90625 0 
L 45.90625 32.71875 
Q 45.90625 40.484375 42.875 44.328125 
Q 39.84375 48.1875 33.796875 48.1875 
Q 26.515625 48.1875 22.3125 43.546875 
Q 18.109375 38.921875 18.109375 30.90625 
L 18.109375 0 
L 9.078125 0 
L 9.078125 54.6875 
L 18.109375 54.6875 
L 18.109375 46.1875 
Q 21.34375 51.125 25.703125 53.5625 
Q 30.078125 56 35.796875 56 
Q 45.21875 56 50.046875 50.171875 
Q 54.890625 44.34375 54.890625 33.015625 
" id="DejaVuSans-6e"/>
      <path d="M 18.3125 70.21875 
L 18.3125 54.6875 
L 36.8125 54.6875 
L 36.8125 47.703125 
L 18.3125 47.703125 
L 18.3125 18.015625 
Q 18.3125 11.328125 20.140625 9.421875 
Q 21.96875 7.515625 27.59375 7.515625 
L 36.8125 7.515625 
L 36.8125 0 
L 27.59375 0 
Q 17.1875 0 13.234375 3.875 
Q 9.28125 7.765625 9.28125 18.015625 
L 9.28125 47.703125 
L 2.6875 47.703125 
L 2.6875 54.6875 
L 9.28125 54.6875 
L 9.28125 70.21875 
z
" id="DejaVuSans-74"/>
      <path d="M 44.28125 53.078125 
L 44.28125 44.578125 
Q 40.484375 46.53125 36.375 47.5 
Q 32.28125 48.484375 27.875 48.484375 
Q 21.1875 48.484375 17.84375 46.4375 
Q 14.5 44.390625 14.5 40.28125 
Q 14.5 37.15625 16.890625 35.375 
Q 19.28125 33.59375 26.515625 31.984375 
L 29.59375 31.296875 
Q 39.15625 29.25 43.1875 25.515625 
Q 47.21875 21.78125 47.21875 15.09375 
Q 47.21875 7.46875 41.1875 3.015625 
Q 35.15625 -1.421875 24.609375 -1.421875 
Q 20.21875 -1.421875 15.453125 -0.5625 
Q 10.6875 0.296875 5.421875 2 
L 5.421875 11.28125 
Q 10.40625 8.6875 15.234375 7.390625 
Q 20.0625 6.109375 24.8125 6.109375 
Q 31.15625 6.109375 34.5625 8.28125 
Q 37.984375 10.453125 37.984375 14.40625 
Q 37.984375 18.0625 35.515625 20.015625 
Q 33.0625 21.96875 24.703125 23.78125 
L 21.578125 24.515625 
Q 13.234375 26.265625 9.515625 29.90625 
Q 5.8125 33.546875 5.8125 39.890625 
Q 5.8125 47.609375 11.28125 51.796875 
Q 16.75 56 26.8125 56 
Q 31.78125 56 36.171875 55.265625 
Q 40.578125 54.546875 44.28125 53.078125 
" id="DejaVuSans-73"/>
     </defs>
     <g transform="translate(191.738906 335.860562)scale(0.1 -0.1)">
      <use xlink:href="#DejaVuSans-4e"/>
      <use x="74.804688" xlink:href="#DejaVuSans-75"/>
      <use x="138.183594" xlink:href="#DejaVuSans-6d"/>
      <use x="235.595703" xlink:href="#DejaVuSans-62"/>
      <use x="299.072266" xlink:href="#DejaVuSans-65"/>
      <use x="360.595703" xlink:href="#DejaVuSans-72"/>
      <use x="401.708984" xlink:href="#DejaVuSans-20"/>
      <use x="433.496094" xlink:href="#DejaVuSans-6f"/>
      <use x="494.677734" xlink:href="#DejaVuSans-66"/>
      <use x="529.882812" xlink:href="#DejaVuSans-20"/>
      <use x="561.669922" xlink:href="#DejaVuSans-63"/>
      <use x="616.650391" xlink:href="#DejaVuSans-6c"/>
      <use x="644.433594" xlink:href="#DejaVuSans-69"/>
      <use x="672.216797" xlink:href="#DejaVuSans-65"/>
      <use x="733.740234" xlink:href="#DejaVuSans-6e"/>
      <use x="797.119141" xlink:href="#DejaVuSans-74"/>
      <use x="836.328125" xlink:href="#DejaVuSans-73"/>
     </g>
    </g>
   </g>
   <g id="matplotlib.axis_2">
    <g id="ytick_1">
     <g id="line2d_13">
      <path clip-path="url(#pb277261789)" d="M 57.6 296.13741 
L 414.72 296.13741 
" style="fill:none;stroke:#b0b0b0;stroke-linecap:square;stroke-width:0.8;"/>
     </g>
     <g id="line2d_14">
      <defs>
       <path d="M 0 0 
L -3.5 0 
" id="mc23d282012" style="stroke:#000000;stroke-width:0.8;"/>
      </defs>
      <g>
       <use style="stroke:#000000;stroke-width:0.8;" x="57.6" xlink:href="#mc23d282012" y="296.13741"/>
      </g>
     </g>
     <g id="text_8">
      <!-- 0 -->
      <g transform="translate(44.2375 299.936629)scale(0.1 -0.1)">
       <use xlink:href="#DejaVuSans-30"/>
      </g>
     </g>
    </g>
    <g id="ytick_2">
     <g id="line2d_15">
      <path clip-path="url(#pb277261789)" d="M 57.6 262.800127 
L 414.72 262.800127 
" style="fill:none;stroke:#b0b0b0;stroke-linecap:square;stroke-width:0.8;"/>
     </g>
     <g id="line2d_16">
      <g>
       <use style="stroke:#000000;stroke-width:0.8;" x="57.6" xlink:href="#mc23d282012" y="262.800127"/>
      </g>
     </g>
     <g id="text_9">
      <!-- 50 -->
      <defs>
       <path d="M 10.796875 72.90625 
L 49.515625 72.90625 
L 49.515625 64.59375 
L 19.828125 64.59375 
L 19.828125 46.734375 
Q 21.96875 47.46875 24.109375 47.828125 
Q 26.265625 48.1875 28.421875 48.1875 
Q 40.625 48.1875 47.75 41.5 
Q 54.890625 34.8125 54.890625 23.390625 
Q 54.890625 11.625 47.5625 5.09375 
Q 40.234375 -1.421875 26.90625 -1.421875 
Q 22.3125 -1.421875 17.546875 -0.640625 
Q 12.796875 0.140625 7.71875 1.703125 
L 7.71875 11.625 
Q 12.109375 9.234375 16.796875 8.0625 
Q 21.484375 6.890625 26.703125 6.890625 
Q 35.15625 6.890625 40.078125 11.328125 
Q 45.015625 15.765625 45.015625 23.390625 
Q 45.015625 31 40.078125 35.4375 
Q 35.15625 39.890625 26.703125 39.890625 
Q 22.75 39.890625 18.8125 39.015625 
Q 14.890625 38.140625 10.796875 36.28125 
z
" id="DejaVuSans-35"/>
      </defs>
      <g transform="translate(37.875 266.599345)scale(0.1 -0.1)">
       <use xlink:href="#DejaVuSans-35"/>
       <use x="63.623047" xlink:href="#DejaVuSans-30"/>
      </g>
     </g>
    </g>
    <g id="ytick_3">
     <g id="line2d_17">
      <path clip-path="url(#pb277261789)" d="M 57.6 229.462843 
L 414.72 229.462843 
" style="fill:none;stroke:#b0b0b0;stroke-linecap:square;stroke-width:0.8;"/>
     </g>
     <g id="line2d_18">
      <g>
       <use style="stroke:#000000;stroke-width:0.8;" x="57.6" xlink:href="#mc23d282012" y="229.462843"/>
      </g>
     </g>
     <g id="text_10">
      <!-- 100 -->
      <g transform="translate(31.5125 233.262062)scale(0.1 -0.1)">
       <use xlink:href="#DejaVuSans-31"/>
       <use x="63.623047" xlink:href="#DejaVuSans-30"/>
       <use x="127.246094" xlink:href="#DejaVuSans-30"/>
      </g>
     </g>
    </g>
    <g id="ytick_4">
     <g id="line2d_19">
      <path clip-path="url(#pb277261789)" d="M 57.6 196.125559 
L 414.72 196.125559 
" style="fill:none;stroke:#b0b0b0;stroke-linecap:square;stroke-width:0.8;"/>
     </g>
     <g id="line2d_20">
      <g>
       <use style="stroke:#000000;stroke-width:0.8;" x="57.6" xlink:href="#mc23d282012" y="196.125559"/>
      </g>
     </g>
     <g id="text_11">
      <!-- 150 -->
      <g transform="translate(31.5125 199.924778)scale(0.1 -0.1)">
       <use xlink:href="#DejaVuSans-31"/>
       <use x="63.623047" xlink:href="#DejaVuSans-35"/>
       <use x="127.246094" xlink:href="#DejaVuSans-30"/>
      </g>
     </g>
    </g>
    <g id="ytick_5">
     <g id="line2d_21">
      <path clip-path="url(#pb277261789)" d="M 57.6 162.788276 
L 414.72 162.788276 
" style="fill:none;stroke:#b0b0b0;stroke-linecap:square;stroke-width:0.8;"/>
     </g>
     <g id="line2d_22">
      <g>
       <use style="stroke:#000000;stroke-width:0.8;" x="57.6" xlink:href="#mc23d282012" y="162.788276"/>
      </g>
     </g>
     <g id="text_12">
      <!-- 200 -->
      <g transform="translate(31.5125 166.587494)scale(0.1 -0.1)">
       <use xlink:href="#DejaVuSans-32"/>
       <use x="63.623047" xlink:href="#DejaVuSans-30"/>
       <use x="127.246094" xlink:href="#DejaVuSans-30"/>
      </g>
     </g>
    </g>
    <g id="ytick_6">
     <g id="line2d_23">
      <path clip-path="url(#pb277261789)" d="M 57.6 129.450992 
L 414.72 129.450992 
" style="fill:none;stroke:#b0b0b0;stroke-linecap:square;stroke-width:0.8;"/>
     </g>
     <g id="line2d_24">
      <g>
       <use style="stroke:#000000;stroke-width:0.8;" x="57.6" xlink:href="#mc23d282012" y="129.450992"/>
      </g>
     </g>
     <g id="text_13">
      <!-- 250 -->
      <g transform="translate(31.5125 133.250211)scale(0.1 -0.1)">
       <use xlink:href="#DejaVuSans-32"/>
       <use x="63.623047" xlink:href="#DejaVuSans-35"/>
       <use x="127.246094" xlink:href="#DejaVuSans-30"/>
      </g>
     </g>
    </g>
    <g id="ytick_7">
     <g id="line2d_25">
      <path clip-path="url(#pb277261789)" d="M 57.6 96.113708 
L 414.72 96.113708 
" style="fill:none;stroke:#b0b0b0;stroke-linecap:square;stroke-width:0.8;"/>
     </g>
     <g id="line2d_26">
      <g>
       <use style="stroke:#000000;stroke-width:0.8;" x="57.6" xlink:href="#mc23d282012" y="96.113708"/>
      </g>
     </g>
     <g id="text_14">
      <!-- 300 -->
      <defs>
       <path d="M 40.578125 39.3125 
Q 47.65625 37.796875 51.625 33 
Q 55.609375 28.21875 55.609375 21.1875 
Q 55.609375 10.40625 48.1875 4.484375 
Q 40.765625 -1.421875 27.09375 -1.421875 
Q 22.515625 -1.421875 17.65625 -0.515625 
Q 12.796875 0.390625 7.625 2.203125 
L 7.625 11.71875 
Q 11.71875 9.328125 16.59375 8.109375 
Q 21.484375 6.890625 26.8125 6.890625 
Q 36.078125 6.890625 40.9375 10.546875 
Q 45.796875 14.203125 45.796875 21.1875 
Q 45.796875 27.640625 41.28125 31.265625 
Q 36.765625 34.90625 28.71875 34.90625 
L 20.21875 34.90625 
L 20.21875 43.015625 
L 29.109375 43.015625 
Q 36.375 43.015625 40.234375 45.921875 
Q 44.09375 48.828125 44.09375 54.296875 
Q 44.09375 59.90625 40.109375 62.90625 
Q 36.140625 65.921875 28.71875 65.921875 
Q 24.65625 65.921875 20.015625 65.03125 
Q 15.375 64.15625 9.8125 62.3125 
L 9.8125 71.09375 
Q 15.4375 72.65625 20.34375 73.4375 
Q 25.25 74.21875 29.59375 74.21875 
Q 40.828125 74.21875 47.359375 69.109375 
Q 53.90625 64.015625 53.90625 55.328125 
Q 53.90625 49.265625 50.4375 45.09375 
Q 46.96875 40.921875 40.578125 39.3125 
" id="DejaVuSans-33"/>
      </defs>
      <g transform="translate(31.5125 99.912927)scale(0.1 -0.1)">
       <use xlink:href="#DejaVuSans-33"/>
       <use x="63.623047" xlink:href="#DejaVuSans-30"/>
       <use x="127.246094" xlink:href="#DejaVuSans-30"/>
      </g>
     </g>
    </g>
    <g id="ytick_8">
     <g id="line2d_27">
      <path clip-path="url(#pb277261789)" d="M 57.6 62.776424 
L 414.72 62.776424 
" style="fill:none;stroke:#b0b0b0;stroke-linecap:square;stroke-width:0.8;"/>
     </g>
     <g id="line2d_28">
      <g>
       <use style="stroke:#000000;stroke-width:0.8;" x="57.6" xlink:href="#mc23d282012" y="62.776424"/>
      </g>
     </g>
     <g id="text_15">
      <!-- 350 -->
      <g transform="translate(31.5125 66.575643)scale(0.1 -0.1)">
       <use xlink:href="#DejaVuSans-33"/>
       <use x="63.623047" xlink:href="#DejaVuSans-35"/>
       <use x="127.246094" xlink:href="#DejaVuSans-30"/>
      </g>
     </g>
    </g>
    <g id="text_16">
     <!-- Successful download requests per second -->
     <defs>
      <path d="M 53.515625 70.515625 
L 53.515625 60.890625 
Q 47.90625 63.578125 42.921875 64.890625 
Q 37.9375 66.21875 33.296875 66.21875 
Q 25.25 66.21875 20.875 63.09375 
Q 16.5 59.96875 16.5 54.203125 
Q 16.5 49.359375 19.40625 46.890625 
Q 22.3125 44.4375 30.421875 42.921875 
L 36.375 41.703125 
Q 47.40625 39.59375 52.65625 34.296875 
Q 57.90625 29 57.90625 20.125 
Q 57.90625 9.515625 50.796875 4.046875 
Q 43.703125 -1.421875 29.984375 -1.421875 
Q 24.8125 -1.421875 18.96875 -0.25 
Q 13.140625 0.921875 6.890625 3.21875 
L 6.890625 13.375 
Q 12.890625 10.015625 18.65625 8.296875 
Q 24.421875 6.59375 29.984375 6.59375 
Q 38.421875 6.59375 43.015625 9.90625 
Q 47.609375 13.234375 47.609375 19.390625 
Q 47.609375 24.75 44.3125 27.78125 
Q 41.015625 30.8125 33.5 32.328125 
L 27.484375 33.5 
Q 16.453125 35.6875 11.515625 40.375 
Q 6.59375 45.0625 6.59375 53.421875 
Q 6.59375 63.09375 13.40625 68.65625 
Q 20.21875 74.21875 32.171875 74.21875 
Q 37.3125 74.21875 42.625 73.28125 
Q 47.953125 72.359375 53.515625 70.515625 
" id="DejaVuSans-53"/>
      <path d="M 45.40625 46.390625 
L 45.40625 75.984375 
L 54.390625 75.984375 
L 54.390625 0 
L 45.40625 0 
L 45.40625 8.203125 
Q 42.578125 3.328125 38.25 0.953125 
Q 33.9375 -1.421875 27.875 -1.421875 
Q 17.96875 -1.421875 11.734375 6.484375 
Q 5.515625 14.40625 5.515625 27.296875 
Q 5.515625 40.1875 11.734375 48.09375 
Q 17.96875 56 27.875 56 
Q 33.9375 56 38.25 53.625 
Q 42.578125 51.265625 45.40625 46.390625 
M 14.796875 27.296875 
Q 14.796875 17.390625 18.875 11.75 
Q 22.953125 6.109375 30.078125 6.109375 
Q 37.203125 6.109375 41.296875 11.75 
Q 45.40625 17.390625 45.40625 27.296875 
Q 45.40625 37.203125 41.296875 42.84375 
Q 37.203125 48.484375 30.078125 48.484375 
Q 22.953125 48.484375 18.875 42.84375 
Q 14.796875 37.203125 14.796875 27.296875 
" id="DejaVuSans-64"/>
      <path d="M 4.203125 54.6875 
L 13.1875 54.6875 
L 24.421875 12.015625 
L 35.59375 54.6875 
L 46.1875 54.6875 
L 57.421875 12.015625 
L 68.609375 54.6875 
L 77.59375 54.6875 
L 63.28125 0 
L 52.6875 0 
L 40.921875 44.828125 
L 29.109375 0 
L 18.5 0 
z
" id="DejaVuSans-77"/>
      <path d="M 34.28125 27.484375 
Q 23.390625 27.484375 19.1875 25 
Q 14.984375 22.515625 14.984375 16.5 
Q 14.984375 11.71875 18.140625 8.90625 
Q 21.296875 6.109375 26.703125 6.109375 
Q 34.1875 6.109375 38.703125 11.40625 
Q 43.21875 16.703125 43.21875 25.484375 
L 43.21875 27.484375 
z
M 52.203125 31.203125 
L 52.203125 0 
L 43.21875 0 
L 43.21875 8.296875 
Q 40.140625 3.328125 35.546875 0.953125 
Q 30.953125 -1.421875 24.3125 -1.421875 
Q 15.921875 -1.421875 10.953125 3.296875 
Q 6 8.015625 6 15.921875 
Q 6 25.140625 12.171875 29.828125 
Q 18.359375 34.515625 30.609375 34.515625 
L 43.21875 34.515625 
L 43.21875 35.40625 
Q 43.21875 41.609375 39.140625 45 
Q 35.0625 48.390625 27.6875 48.390625 
Q 23 48.390625 18.546875 47.265625 
Q 14.109375 46.140625 10.015625 43.890625 
L 10.015625 52.203125 
Q 14.9375 54.109375 19.578125 55.046875 
Q 24.21875 56 28.609375 56 
Q 40.484375 56 46.34375 49.84375 
Q 52.203125 43.703125 52.203125 31.203125 
" id="DejaVuSans-61"/>
      <path d="M 14.796875 27.296875 
Q 14.796875 17.390625 18.875 11.75 
Q 22.953125 6.109375 30.078125 6.109375 
Q 37.203125 6.109375 41.296875 11.75 
Q 45.40625 17.390625 45.40625 27.296875 
Q 45.40625 37.203125 41.296875 42.84375 
Q 37.203125 48.484375 30.078125 48.484375 
Q 22.953125 48.484375 18.875 42.84375 
Q 14.796875 37.203125 14.796875 27.296875 
M 45.40625 8.203125 
Q 42.578125 3.328125 38.25 0.953125 
Q 33.9375 -1.421875 27.875 -1.421875 
Q 17.96875 -1.421875 11.734375 6.484375 
Q 5.515625 14.40625 5.515625 27.296875 
Q 5.515625 40.1875 11.734375 48.09375 
Q 17.96875 56 27.875 56 
Q 33.9375 56 38.25 53.625 
Q 42.578125 51.265625 45.40625 46.390625 
L 45.40625 54.6875 
L 54.390625 54.6875 
L 54.390625 -20.796875 
L 45.40625 -20.796875 
z
" id="DejaVuSans-71"/>
      <path d="M 18.109375 8.203125 
L 18.109375 -20.796875 
L 9.078125 -20.796875 
L 9.078125 54.6875 
L 18.109375 54.6875 
L 18.109375 46.390625 
Q 20.953125 51.265625 25.265625 53.625 
Q 29.59375 56 35.59375 56 
Q 45.5625 56 51.78125 48.09375 
Q 58.015625 40.1875 58.015625 27.296875 
Q 58.015625 14.40625 51.78125 6.484375 
Q 45.5625 -1.421875 35.59375 -1.421875 
Q 29.59375 -1.421875 25.265625 0.953125 
Q 20.953125 3.328125 18.109375 8.203125 
M 48.6875 27.296875 
Q 48.6875 37.203125 44.609375 42.84375 
Q 40.53125 48.484375 33.40625 48.484375 
Q 26.265625 48.484375 22.1875 42.84375 
Q 18.109375 37.203125 18.109375 27.296875 
Q 18.109375 17.390625 22.1875 11.75 
Q 26.265625 6.109375 33.40625 6.109375 
Q 40.53125 6.109375 44.609375 11.75 
Q 48.6875 17.390625 48.6875 27.296875 
" id="DejaVuSans-70"/>
     </defs>
     <g transform="translate(25.432812 279.366281)rotate(-90)scale(0.1 -0.1)">
      <use xlink:href="#DejaVuSans-53"/>
      <use x="63.476562" xlink:href="#DejaVuSans-75"/>
      <use x="126.855469" xlink:href="#DejaVuSans-63"/>
      <use x="181.835938" xlink:href="#DejaVuSans-63"/>
      <use x="236.816406" xlink:href="#DejaVuSans-65"/>
      <use x="298.339844" xlink:href="#DejaVuSans-73"/>
      <use x="350.439453" xlink:href="#DejaVuSans-73"/>
      <use x="402.539062" xlink:href="#DejaVuSans-66"/>
      <use x="437.744141" xlink:href="#DejaVuSans-75"/>
      <use x="501.123047" xlink:href="#DejaVuSans-6c"/>
      <use x="528.90625" xlink:href="#DejaVuSans-20"/>
      <use x="560.693359" xlink:href="#DejaVuSans-64"/>
      <use x="624.169922" xlink:href="#DejaVuSans-6f"/>
      <use x="685.351562" xlink:href="#DejaVuSans-77"/>
      <use x="767.138672" xlink:href="#DejaVuSans-6e"/>
      <use x="830.517578" xlink:href="#DejaVuSans-6c"/>
      <use x="858.300781" xlink:href="#DejaVuSans-6f"/>
      <use x="919.482422" xlink:href="#DejaVuSans-61"/>
      <use x="980.761719" xlink:href="#DejaVuSans-64"/>
      <use x="1044.238281" xlink:href="#DejaVuSans-20"/>
      <use x="1076.025391" xlink:href="#DejaVuSans-72"/>
      <use x="1117.107422" xlink:href="#DejaVuSans-65"/>
      <use x="1178.630859" xlink:href="#DejaVuSans-71"/>
      <use x="1242.107422" xlink:href="#DejaVuSans-75"/>
      <use x="1305.486328" xlink:href="#DejaVuSans-65"/>
      <use x="1367.009766" xlink:href="#DejaVuSans-73"/>
      <use x="1419.109375" xlink:href="#DejaVuSans-74"/>
      <use x="1458.318359" xlink:href="#DejaVuSans-73"/>
      <use x="1510.417969" xlink:href="#DejaVuSans-20"/>
      <use x="1542.205078" xlink:href="#DejaVuSans-70"/>
      <use x="1605.681641" xlink:href="#DejaVuSans-65"/>
      <use x="1667.205078" xlink:href="#DejaVuSans-72"/>
      <use x="1708.318359" xlink:href="#DejaVuSans-20"/>
      <use x="1740.105469" xlink:href="#DejaVuSans-73"/>
      <use x="1792.205078" xlink:href="#DejaVuSans-65"/>
      <use x="1853.728516" xlink:href="#DejaVuSans-63"/>
      <use x="1908.708984" xlink:href="#DejaVuSans-6f"/>
      <use x="1969.890625" xlink:href="#DejaVuSans-6e"/>
      <use x="2033.269531" xlink:href="#DejaVuSans-64"/>
     </g>
    </g>
   </g>
   <g id="line2d_29">
    <path clip-path="url(#pb277261789)" d="M 57.6 295.475332 
L 57.95712 295.488 
L 61.1712 289.900005 
L 61.52832 289.015233 
L 61.88544 288.513174 
L 62.24256 287.531057 
L 62.59968 287.028998 
L 63.31392 285.487482 
L 64.02816 284.739393 
L 64.38528 283.887959 
L 64.7424 283.341894 
L 65.09952 283.061861 
L 65.45664 282.456456 
L 66.528 279.877484 
L 66.88512 279.108059 
L 67.24224 278.83736 
L 67.59936 277.647886 
L 67.95648 277.319847 
L 68.3136 276.159043 
L 68.67072 276.547756 
L 69.38496 274.456841 
L 69.74208 274.491512 
L 70.0992 274.21748 
L 70.45632 273.376046 
L 70.81344 273.087346 
L 71.17056 272.111897 
L 71.52768 270.665725 
L 72.24192 268.926853 
L 72.59904 269.704278 
L 72.95616 268.294111 
L 73.31328 268.301445 
L 73.6704 267.402672 
L 74.02752 265.685802 
L 74.38464 266.949952 
L 74.74176 266.12052 
L 75.456 263.950263 
L 75.81312 263.302186 
L 76.17024 261.765337 
L 76.52736 262.076041 
L 77.2416 261.622654 
L 77.59872 261.233274 
L 77.95584 260.303831 
L 78.31296 258.229585 
L 78.67008 258.931001 
L 79.0272 258.496283 
L 79.38432 256.596058 
L 79.74144 255.583271 
L 80.09856 254.929194 
L 80.45568 254.009085 
L 80.8128 254.285784 
L 81.16992 253.934409 
L 81.52704 251.731482 
L 81.88416 252.515575 
L 82.24128 250.138626 
L 82.5984 252.601585 
L 82.95552 249.109838 
L 83.31264 249.96994 
L 83.66976 248.943818 
L 84.02688 249.195181 
L 84.384 246.201493 
L 84.74112 245.734104 
L 85.09824 248.014375 
L 85.45536 244.444618 
L 85.81248 244.980015 
L 86.1696 246.176823 
L 86.52672 242.527724 
L 86.88384 243.41583 
L 87.24096 244.609304 
L 87.59808 243.902554 
L 87.9552 240.550823 
L 88.31232 241.759633 
L 88.66944 239.734727 
L 89.02656 239.948752 
L 89.38368 238.512582 
L 89.7408 237.768494 
L 90.09792 238.015856 
L 90.45504 235.0115 
L 90.81216 237.979852 
L 91.5264 235.984282 
L 91.88352 235.902273 
L 92.24064 234.609453 
L 92.59776 232.150495 
L 92.95488 234.514775 
L 93.312 233.938707 
L 93.66912 231.83179 
L 94.02624 228.472059 
L 94.38336 230.144924 
L 94.74048 228.101348 
L 95.0976 229.559521 
L 95.45472 226.931876 
L 95.81184 227.097896 
L 96.16896 224.506922 
L 96.52608 228.549401 
L 96.8832 227.893324 
L 97.24032 226.293801 
L 97.59744 225.303683 
L 97.95456 225.315018 
L 98.31168 223.044082 
L 99.02592 223.92752 
L 99.38304 220.765812 
L 99.74016 221.476563 
L 100.09728 220.527117 
L 100.4544 219.073612 
L 100.81152 220.724474 
L 101.16864 215.989913 
L 101.52576 216.561981 
L 101.88288 217.714784 
L 102.24 218.470874 
L 102.59712 215.620536 
L 102.95424 215.301832 
L 103.31136 211.32536 
L 103.66848 210.626611 
L 104.0256 214.496403 
L 104.38272 214.718429 
L 105.45408 210.420586 
L 105.8112 211.26202 
L 106.16832 206.532792 
L 106.88256 210.34191 
L 107.23968 208.831065 
L 107.5968 206.210088 
L 107.95392 204.547891 
L 108.31104 201.87024 
L 108.66816 206.972845 
L 109.02528 203.338414 
L 109.3824 205.854712 
L 109.73952 200.366728 
L 110.45376 197.549061 
L 110.81088 197.06367 
L 111.168 201.124152 
L 111.52512 201.576205 
L 111.88224 196.466266 
L 112.23936 198.845215 
L 112.59648 193.954635 
L 112.9536 197.39971 
L 113.31072 197.578398 
L 113.66784 197.547728 
L 114.02496 191.329658 
L 114.38208 192.863173 
L 114.7392 191.175639 
L 115.09632 194.201331 
L 115.45344 193.409904 
L 115.81056 191.306988 
L 116.16768 187.281178 
L 116.5248 186.355068 
L 117.23904 190.730253 
L 117.59616 189.471437 
L 117.95328 184.995574 
L 118.3104 188.241292 
L 118.66752 183.384716 
L 119.02464 186.988477 
L 119.38176 184.79555 
L 119.73888 188.081939 
L 120.096 181.237795 
L 120.45312 184.186811 
L 120.81024 184.054796 
L 121.16736 180.912423 
L 121.52448 184.183477 
L 121.8816 178.433463 
L 122.59584 181.678514 
L 122.95296 182.491277 
L 123.31008 177.057966 
L 123.6672 177.187982 
L 124.02432 180.381027 
L 124.38144 182.361262 
L 124.73856 180.456369 
L 125.09568 179.660275 
L 125.4528 175.945835 
L 125.80992 174.734358 
L 126.16704 180.357691 
L 126.52416 180.827746 
L 126.88128 175.188412 
L 127.2384 173.058826 
L 127.59552 179.785623 
L 127.95264 172.992151 
L 128.30976 176.755931 
L 129.024 171.489307 
L 129.38112 172.255397 
L 129.73824 178.508805 
L 130.09536 178.225438 
L 130.45248 176.789268 
L 130.8096 177.038631 
L 131.16672 173.813582 
L 131.52384 173.453539 
L 131.88096 174.823035 
L 132.23808 169.917787 
L 132.5952 169.535075 
L 132.95232 171.920024 
L 133.30944 167.40749 
L 133.66656 174.010272 
L 134.02368 174.338978 
L 134.3808 168.191582 
L 134.73792 171.527311 
L 135.09504 167.378153 
L 135.45216 173.728239 
L 135.80928 171.255946 
L 136.1664 166.526052 
L 136.52352 170.673877 
L 136.88064 172.886139 
L 137.23776 167.684189 
L 137.59488 167.01611 
L 137.952 164.946531 
L 138.30912 165.443924 
L 138.66624 171.686663 
L 139.02336 167.857543 
L 139.38048 168.741648 
L 139.7376 167.450828 
L 140.09472 171.295284 
L 140.45184 162.818946 
L 140.80896 169.619085 
L 141.16608 162.950295 
L 141.5232 162.361558 
L 141.88032 161.271429 
L 142.23744 167.404156 
L 142.59456 160.707362 
L 142.95168 161.848831 
L 143.3088 161.928174 
L 143.66592 165.181226 
L 144.02304 159.623901 
L 144.38016 168.764317 
L 144.73728 159.930604 
L 145.0944 161.987514 
L 145.45152 167.281475 
L 145.80864 163.887072 
L 146.16576 163.218993 
L 146.52288 166.494048 
L 146.88 165.869974 
L 147.23712 159.440546 
L 147.59424 157.275622 
L 147.95136 160.822043 
L 148.30848 161.870167 
L 148.6656 164.372463 
L 149.02272 164.99187 
L 149.37984 155.860121 
L 149.73696 162.590252 
L 150.09408 162.878953 
L 150.4512 158.223068 
L 150.80832 158.784468 
L 151.16544 159.883931 
L 151.52256 162.139532 
L 151.87968 161.680811 
L 152.2368 154.551966 
L 152.59392 163.125649 
L 152.95104 160.842045 
L 153.30816 160.923388 
L 153.66528 157.39897 
L 154.0224 160.62802 
L 154.73664 154.657979 
L 155.09376 152.629072 
L 155.45088 156.886243 
L 155.808 152.793091 
L 156.16512 159.508554 
L 156.52224 155.642095 
L 156.87936 153.218475 
L 157.23648 160.732699 
L 157.5936 151.908986 
L 157.95072 152.647074 
L 158.30784 150.934871 
L 158.66496 158.865144 
L 159.02208 150.030764 
L 159.3792 155.3974 
L 159.73632 150.730847 
L 160.09344 149.203332 
L 160.45056 150.428144 
L 160.80768 150.014762 
L 161.1648 158.149726 
L 161.52192 154.400615 
L 161.87904 153.994567 
L 162.23616 151.851646 
L 162.59328 156.242167 
L 162.9504 155.829451 
L 163.30752 147.805167 
L 163.66464 147.454459 
L 164.02176 150.95754 
L 164.736 146.161639 
L 165.09312 155.486077 
L 165.45024 145.944946 
L 165.80736 152.196354 
L 166.16448 148.740611 
L 166.5216 151.060886 
L 166.87872 149.459363 
L 167.23584 154.345275 
L 167.59296 148.76328 
L 167.95008 145.390214 
L 168.3072 150.432145 
L 168.66432 151.894985 
L 169.02144 147.083748 
L 169.37856 151.830977 
L 169.73568 150.102772 
L 170.0928 146.548351 
L 170.44992 145.41155 
L 170.80704 143.283964 
L 171.16416 144.305419 
L 171.52128 142.99193 
L 171.8784 148.487248 
L 172.23552 148.809286 
L 172.59264 149.360684 
L 172.94976 146.598357 
L 173.30688 141.919136 
L 173.664 150.236121 
L 174.02112 143.843364 
L 174.37824 147.795166 
L 174.73536 145.344208 
L 175.09248 148.87396 
L 175.4496 147.447791 
L 175.80672 143.357973 
L 176.16384 145.870271 
L 176.52096 146.347661 
L 176.87808 141.0557 
L 177.2352 144.788809 
L 177.59232 145.764925 
L 177.94944 145.696917 
L 178.30656 149.242004 
L 178.66368 146.723705 
L 179.0208 141.485751 
L 179.37792 145.16352 
L 179.73504 145.198191 
L 180.09216 147.791165 
L 180.44928 141.318398 
L 180.8064 142.811242 
L 181.16352 140.446962 
L 181.52064 145.541565 
L 181.87776 141.856462 
L 182.23488 143.10261 
L 182.592 137.444606 
L 182.94912 135.917091 
L 183.30624 139.42284 
L 183.66336 144.974165 
L 184.02048 138.765429 
L 184.3776 135.509043 
L 184.73472 141.699777 
L 185.09184 144.682797 
L 185.44896 134.506924 
L 185.80608 140.550974 
L 186.1632 135.250346 
L 186.52032 143.21929 
L 186.87744 135.533046 
L 187.23456 133.93419 
L 187.59168 135.410365 
L 187.9488 133.660824 
L 188.30592 139.210148 
L 188.66304 136.215127 
L 189.02016 136.077777 
L 189.37728 142.683227 
L 189.7344 134.736285 
L 190.44864 142.412528 
L 190.80576 132.390007 
L 191.16288 140.981025 
L 191.52 141.141711 
L 191.87712 139.096135 
L 192.23424 137.775312 
L 192.59136 130.9265 
L 192.94848 141.411743 
L 193.3056 141.600432 
L 193.66272 140.62765 
L 194.01984 132.533357 
L 194.37696 131.247205 
L 195.0912 140.003576 
L 195.44832 129.783698 
L 195.80544 130.095068 
L 196.16256 130.95717 
L 196.51968 137.133236 
L 196.8768 132.243989 
L 197.23392 136.909209 
L 197.59104 133.198103 
L 197.94816 134.872968 
L 198.30528 132.744715 
L 198.6624 131.792603 
L 199.01952 132.197984 
L 199.37664 129.943717 
L 199.73376 130.609129 
L 200.09088 132.259991 
L 200.448 133.334119 
L 200.80512 130.896496 
L 201.16224 131.485233 
L 201.51936 127.376079 
L 201.87648 134.621605 
L 202.2336 127.86147 
L 202.59072 133.512807 
L 202.94784 137.335926 
L 203.30496 136.133117 
L 203.66208 132.832726 
L 204.0192 132.654705 
L 204.37632 131.013177 
L 204.73344 128.095498 
L 205.09056 132.722046 
L 205.44768 124.591749 
L 205.8048 125.949244 
L 206.16192 131.421225 
L 206.51904 127.165388 
L 206.87616 132.009962 
L 207.23328 125.473854 
L 207.5904 132.531357 
L 207.94752 123.997012 
L 208.30464 124.675759 
L 208.66176 127.142052 
L 209.01888 125.237826 
L 209.376 122.51617 
L 209.73312 122.261473 
L 210.09024 130.111737 
L 210.44736 130.316428 
L 210.80448 124.551078 
L 211.1616 124.849113 
L 211.51872 130.275756 
L 211.87584 130.337097 
L 212.23296 127.346076 
L 212.59008 121.417373 
L 212.9472 125.267163 
L 213.30432 125.411847 
L 213.66144 123.3296 
L 214.01856 127.612774 
L 214.37568 125.456519 
L 215.08992 127.482092 
L 215.44704 130.278423 
L 215.80416 129.888377 
L 216.16128 131.541906 
L 216.5184 129.60301 
L 217.23264 120.859974 
L 217.58976 119.031757 
L 217.94688 122.340816 
L 218.304 128.720239 
L 218.66112 122.220802 
L 219.01824 120.439924 
L 219.37536 124.139029 
L 220.0896 122.62485 
L 220.44672 127.727454 
L 220.80384 129.092283 
L 221.16096 122.003443 
L 221.51808 128.012821 
L 221.8752 125.398512 
L 222.23232 118.313672 
L 222.94656 116.232092 
L 223.30368 121.445377 
L 223.6608 120.318576 
L 224.01792 119.594491 
L 224.37504 115.594017 
L 224.73216 121.182012 
L 225.08928 122.789536 
L 225.4464 117.831615 
L 225.80352 120.962653 
L 226.16064 117.456237 
L 226.51776 123.251591 
L 226.87488 116.776823 
L 227.232 123.626302 
L 227.58912 118.569702 
L 227.94624 121.746746 
L 228.30336 121.69874 
L 228.66048 124.910454 
L 229.0176 122.883547 
L 229.37472 125.001798 
L 229.73184 121.229351 
L 230.08896 114.476551 
L 230.44608 116.568799 
L 231.16032 119.376465 
L 231.51744 122.225469 
L 231.87456 112.833023 
L 232.23168 112.47298 
L 232.5888 123.838994 
L 232.94592 113.095054 
L 233.30304 119.997872 
L 234.01728 115.317984 
L 234.3744 114.753917 
L 234.73152 118.104314 
L 235.08864 123.264259 
L 235.44576 117.25288 
L 235.80288 121.59006 
L 236.16 111.886911 
L 236.51712 119.287121 
L 236.87424 114.426545 
L 237.23136 122.702192 
L 237.58848 111.221498 
L 237.9456 119.391133 
L 238.30272 121.73141 
L 238.65984 110.263385 
L 239.01696 117.58892 
L 239.37408 119.070428 
L 239.7312 116.384777 
L 240.08832 120.177893 
L 240.44544 117.174871 
L 240.80256 116.09941 
L 241.15968 109.274601 
L 241.5168 111.746227 
L 241.87392 111.890244 
L 242.23104 120.078548 
L 242.58816 108.485841 
L 242.94528 118.731722 
L 243.3024 110.742108 
L 243.65952 114.247857 
L 244.37376 118.680382 
L 244.73088 111.781565 
L 245.088 108.679864 
L 245.80224 117.372894 
L 246.15936 113.45843 
L 246.51648 117.404231 
L 246.8736 114.26986 
L 247.23072 114.583897 
L 247.58784 109.936679 
L 247.94496 109.647979 
L 248.30208 107.569066 
L 248.6592 117.48024 
L 249.01632 106.935657 
L 249.37344 116.259429 
L 249.73056 111.888911 
L 250.08768 112.541655 
L 250.4448 109.18259 
L 250.80192 107.471721 
L 251.15904 112.881028 
L 251.51616 115.54201 
L 251.87328 104.316013 
L 252.2304 116.270097 
L 252.94464 106.843646 
L 253.65888 116.440117 
L 254.016 105.004762 
L 254.37312 114.701244 
L 254.73024 115.31265 
L 255.08736 114.083171 
L 255.44448 110.628095 
L 255.8016 103.259888 
L 256.15872 105.401475 
L 256.51584 114.816591 
L 256.87296 102.731159 
L 257.23008 111.070147 
L 257.5872 106.101558 
L 257.94432 110.408069 
L 258.30144 112.757014 
L 258.65856 108.681197 
L 259.01568 107.973113 
L 259.3728 104.982092 
L 259.72992 109.701985 
L 260.08704 105.640837 
L 260.80128 113.471098 
L 261.1584 107.128347 
L 261.51552 103.43991 
L 261.87264 113.098387 
L 262.22976 100.859604 
L 262.58688 104.65672 
L 262.944 112.574992 
L 263.30112 109.553967 
L 263.65824 100.505562 
L 264.01536 104.921419 
L 264.37248 111.966253 
L 264.7296 106.120227 
L 265.08672 106.140896 
L 265.44384 100.241531 
L 265.80096 111.802234 
L 266.15808 106.910988 
L 266.87232 103.169878 
L 267.22944 108.922559 
L 267.94368 98.827363 
L 268.3008 98.901372 
L 268.65792 100.048174 
L 269.01504 98.870702 
L 269.37216 101.566354 
L 269.72928 106.998998 
L 270.0864 106.438932 
L 270.80064 106.784973 
L 271.15776 106.308916 
L 271.51488 97.98193 
L 271.872 108.295152 
L 272.22912 102.215098 
L 272.58624 99.632792 
L 272.94336 104.918085 
L 273.30048 105.40881 
L 273.6576 95.504969 
L 274.01472 109.078578 
L 274.37184 106.310917 
L 274.72896 105.510155 
L 275.08608 101.370998 
L 275.4432 104.865412 
L 275.80032 104.035314 
L 276.15744 98.984715 
L 276.51456 99.675464 
L 276.87168 104.366019 
L 277.2288 99.95683 
L 277.58592 107.810428 
L 277.94304 101.78438 
L 278.30016 98.541996 
L 278.65728 104.354685 
L 279.0144 98.840698 
L 279.37152 101.9504 
L 279.72864 94.979574 
L 280.08576 103.16521 
L 280.44288 97.708564 
L 280.8 98.962712 
L 281.51424 95.662321 
L 281.87136 98.886037 
L 282.22848 95.094254 
L 282.5856 101.363664 
L 282.94272 103.897964 
L 283.29984 92.269253 
L 283.65696 95.288277 
L 284.01408 97.051153 
L 284.3712 104.904083 
L 284.72832 104.225336 
L 285.08544 105.367471 
L 285.44256 104.143993 
L 285.79968 98.223958 
L 286.1568 97.281847 
L 286.51392 103.656602 
L 286.87104 97.352522 
L 287.22816 99.216076 
L 287.58528 99.742138 
L 287.9424 100.514896 
L 288.29952 95.304946 
L 288.65664 92.959334 
L 289.01376 99.577452 
L 289.37088 90.168337 
L 289.728 99.915492 
L 290.08512 100.157521 
L 290.44224 98.272631 
L 290.79936 102.917181 
L 291.87072 90.684398 
L 292.22784 97.571881 
L 292.58496 90.597054 
L 292.94208 96.373739 
L 293.2992 96.036366 
L 293.65632 99.015385 
L 294.01344 97.36919 
L 294.37056 97.76057 
L 294.72768 89.114212 
L 295.0848 91.267134 
L 295.44192 95.698992 
L 295.79904 94.411506 
L 296.15616 96.542426 
L 296.51328 90.766408 
L 296.8704 91.933213 
L 297.22752 99.00005 
L 297.94176 94.459512 
L 298.29888 90.925093 
L 298.656 89.998317 
L 299.01312 87.646038 
L 299.37024 89.640274 
L 299.72736 89.637607 
L 300.08448 97.017815 
L 300.4416 98.594669 
L 300.79872 92.929331 
L 301.15584 92.679301 
L 301.51296 92.223247 
L 301.87008 89.332905 
L 302.2272 93.331378 
L 302.58432 99.239412 
L 302.94144 89.862967 
L 303.29856 93.322044 
L 304.0128 86.771268 
L 304.36992 88.769505 
L 304.72704 98.919374 
L 305.08416 88.326785 
L 305.44128 97.079156 
L 305.7984 84.811036 
L 306.51264 90.664396 
L 306.86976 97.417196 
L 307.22688 94.524186 
L 307.584 86.507903 
L 307.94112 96.605766 
L 308.29824 89.729618 
L 308.65536 97.023816 
L 309.01248 92.990005 
L 309.3696 94.354166 
L 309.72672 84.147624 
L 310.08384 84.657017 
L 310.44096 85.407106 
L 310.79808 83.301523 
L 311.51232 92.559954 
L 311.86944 92.507948 
L 312.22656 96.09904 
L 312.58368 88.339454 
L 312.9408 93.958786 
L 313.29792 82.15072 
L 313.65504 90.597721 
L 314.01216 94.093469 
L 314.36928 86.222536 
L 314.7264 83.504881 
L 315.08352 90.963098 
L 315.44064 86.633918 
L 315.79776 90.876421 
L 316.15488 91.957216 
L 316.512 85.524453 
L 316.86912 92.114568 
L 317.22624 86.370554 
L 317.58336 86.983293 
L 317.94048 91.982552 
L 318.65472 88.327452 
L 319.01184 94.063465 
L 319.36896 85.787818 
L 319.72608 93.666085 
L 320.44032 81.961365 
L 320.79744 93.860108 
L 321.15456 87.797389 
L 321.51168 86.425894 
L 321.8688 85.554457 
L 322.22592 83.115501 
L 322.58304 91.17979 
L 322.94016 85.299093 
L 323.29728 82.886808 
L 323.6544 78.306931 
L 324.01152 93.222699 
L 324.36864 79.774439 
L 324.72576 79.814443 
L 325.08288 86.685924 
L 325.44 90.231678 
L 325.79712 87.554694 
L 326.15424 91.992553 
L 326.51136 79.544411 
L 326.86848 86.78727 
L 327.2256 77.282143 
L 327.58272 83.64223 
L 327.93984 78.192918 
L 328.29696 90.149001 
L 328.65408 82.65478 
L 329.0112 85.788485 
L 329.36832 87.480018 
L 330.08256 89.098877 
L 330.43968 89.040203 
L 330.7968 84.436324 
L 331.15392 75.927316 
L 331.86816 79.917122 
L 332.22528 75.593277 
L 332.5824 87.453349 
L 332.93952 75.633948 
L 333.29664 86.981293 
L 333.65376 89.212224 
L 334.01088 84.356982 
L 334.368 82.578771 
L 334.72512 82.332742 
L 335.08224 79.792441 
L 335.43936 74.72184 
L 335.79648 79.949126 
L 336.1536 82.031373 
L 336.86784 75.043878 
L 337.22496 86.765934 
L 337.58208 86.585246 
L 337.9392 80.972581 
L 338.29632 83.669567 
L 338.65344 87.522023 
L 339.01056 87.279328 
L 339.36768 77.898883 
L 339.7248 86.93462 
L 340.08192 82.5401 
L 340.43904 74.877192 
L 340.79616 88.456134 
L 341.15328 80.35184 
L 341.5104 81.858019 
L 342.22464 72.633593 
L 342.58176 86.135192 
L 342.93888 78.246258 
L 343.296 73.37568 
L 343.65312 83.761578 
L 344.36736 87.356671 
L 344.72448 87.036633 
L 345.43872 71.727485 
L 345.79584 80.963913 
L 346.15296 75.652617 
L 346.51008 73.547701 
L 346.8672 80.026469 
L 347.22432 74.281788 
L 347.58144 81.129933 
L 347.93856 83.268186 
L 348.29568 78.085572 
L 349.00992 83.282188 
L 349.36704 71.819496 
L 349.72416 74.543819 
L 350.08128 82.318073 
L 350.4384 78.007563 
L 350.79552 81.309954 
L 351.15264 75.126555 
L 351.50976 85.531121 
L 351.86688 83.340195 
L 352.224 71.898839 
L 352.58112 70.016616 
L 352.93824 73.73839 
L 353.29536 81.975366 
L 353.65248 83.703571 
L 354.0096 77.642853 
L 354.36672 82.123384 
L 354.72384 83.234182 
L 355.08096 75.509933 
L 355.43808 73.608375 
L 355.7952 75.56194 
L 356.15232 71.299434 
L 356.50944 80.432517 
L 356.86656 78.434947 
L 357.22368 71.246762 
L 357.5808 81.574652 
L 357.93792 82.499428 
L 358.29504 73.625043 
L 358.65216 75.043878 
L 359.00928 82.944148 
L 359.3664 79.565747 
L 359.72352 69.329201 
L 360.08064 79.113694 
L 360.43776 79.288381 
L 360.79488 78.837661 
L 361.152 81.499977 
L 361.50912 80.231826 
L 361.86624 68.651787 
L 362.22336 69.032499 
L 362.58048 70.296649 
L 362.9376 73.251666 
L 363.29472 74.455142 
L 363.65184 81.47064 
L 364.00896 68.235071 
L 364.36608 71.51746 
L 364.7232 72.078193 
L 365.43744 65.991472 
L 365.79456 76.993442 
L 366.15168 80.675212 
L 366.5088 72.228878 
L 366.86592 75.765964 
L 367.22304 77.98156 
L 367.58016 75.459261 
L 367.93728 81.107263 
L 368.2944 69.955942 
L 368.65152 76.400039 
L 369.00864 78.799657 
L 369.72288 64.955349 
L 370.43712 67.253622 
L 370.79424 79.885118 
L 371.15136 78.085572 
L 371.50848 79.632422 
L 371.8656 76.677405 
L 372.22272 66.660218 
L 372.57984 64.852671 
L 372.93696 79.161033 
L 373.29408 64.263267 
L 373.6512 73.271668 
L 374.00832 66.492865 
L 374.36544 64.127918 
L 374.72256 67.715676 
L 375.07968 73.004303 
L 375.79392 64.433954 
L 376.50816 70.318652 
L 376.86528 74.311791 
L 377.2224 72.008852 
L 377.57952 66.053479 
L 377.93664 69.002496 
L 378.29376 70.331986 
L 378.65088 65.876792 
L 379.008 66.517534 
L 379.36512 77.428827 
L 379.72224 76.056665 
L 380.07936 73.337009 
L 380.43648 71.995517 
L 380.7936 71.786826 
L 381.15072 68.667789 
L 381.50784 75.661285 
L 381.86496 75.109219 
L 382.22208 65.716773 
L 382.5792 74.101767 
L 382.93632 67.947037 
L 383.29344 67.737012 
L 383.65056 71.055406 
L 384.00768 61.939659 
L 384.3648 67.222285 
L 384.72192 67.490983 
L 385.07904 73.672382 
L 385.43616 71.152084 
L 386.1504 62.187021 
L 386.50752 60.139445 
L 386.86464 70.683361 
L 387.22176 71.534796 
L 387.57888 75.749295 
L 388.29312 68.707127 
L 388.65024 63.341158 
L 389.00736 65.784781 
L 389.36448 60.430146 
L 389.7216 66.92625 
L 390.07872 60.388808 
L 390.43584 68.883815 
L 390.79296 66.730893 
L 391.15008 59.654055 
L 391.5072 70.888052 
L 391.86432 72.028854 
L 392.22144 61.915656 
L 392.57856 60.355471 
L 393.2928 71.602137 
L 393.64992 58.104538 
L 394.00704 73.157655 
L 394.36416 73.185658 
L 394.72128 61.27558 
L 395.0784 73.408351 
L 395.43552 66.970255 
L 395.79264 57.668486 
L 396.14976 69.51389 
L 396.50688 67.952371 
L 396.864 57.585809 
L 397.22112 73.615042 
L 397.57824 72.790278 
L 397.93536 64.42462 
L 398.29248 70.652691 
L 398.6496 59.429361 
L 399.00672 67.875029 
L 399.36384 57.699823 
L 399.72096 61.400261 
L 400.07808 56.320326 
L 400.4352 58.158544 
L 400.79232 58.821956 
L 401.14944 69.65924 
L 401.50656 67.030929 
L 401.86368 67.951704 
L 402.2208 65.893461 
L 402.57792 66.93225 
L 402.93504 62.699082 
L 403.29216 62.457053 
L 403.64928 61.051553 
L 404.0064 61.044886 
L 404.36352 61.898987 
L 404.72064 59.749399 
L 405.07776 71.327438 
L 405.43488 70.497339 
L 406.14912 62.09101 
L 406.50624 65.366731 
L 406.86336 55.685584 
L 407.5776 67.642334 
L 407.93472 68.961157 
L 408.29184 60.402143 
L 408.64896 57.701823 
L 409.00608 69.074504 
L 409.3632 66.17216 
L 409.72032 56.632363 
L 410.07744 70.412663 
L 410.43456 54.718803 
L 410.79168 58.025862 
L 411.1488 53.568 
L 411.50592 63.797212 
L 411.86304 59.338684 
L 412.22016 69.254525 
L 412.57728 63.55185 
L 412.9344 69.152513 
L 413.29152 65.507415 
L 413.64864 58.501918 
L 414.00576 63.868554 
L 414.36288 62.008333 
L 414.72 61.221574 
L 414.72 61.221574 
" style="fill:none;stroke:#000080;stroke-linecap:square;stroke-width:0.5;"/>
   </g>
   <g id="patch_3">
    <path d="M 57.6 307.584 
L 57.6 41.472 
" style="fill:none;stroke:#000000;stroke-linecap:square;stroke-linejoin:miter;stroke-width:0.8;"/>
   </g>
   <g id="patch_4">
    <path d="M 414.72 307.584 
L 414.72 41.472 
" style="fill:none;stroke:#000000;stroke-linecap:square;stroke-linejoin:miter;stroke-width:0.8;"/>
   </g>
   <g id="patch_5">
    <path d="M 57.6 307.584 
L 414.72 307.584 
" style="fill:none;stroke:#000000;stroke-linecap:square;stroke-linejoin:miter;stroke-width:0.8;"/>
   </g>
   <g id="patch_6">
    <path d="M 57.6 41.472 
L 414.72 41.472 
" style="fill:none;stroke:#000000;stroke-linecap:square;stroke-linejoin:miter;stroke-width:0.8;"/>
   </g>
   <g id="text_17">
    <!-- Test -->
    <defs>
     <path d="M -0.296875 72.90625 
L 61.375 72.90625 
L 61.375 64.59375 
L 35.5 64.59375 
L 35.5 0 
L 25.59375 0 
L 25.59375 64.59375 
L -0.296875 64.59375 
z
" id="DejaVuSans-54"/>
    </defs>
    <g transform="translate(223.341563 35.472)scale(0.12 -0.12)">
     <use xlink:href="#DejaVuSans-54"/>
     <use x="60.818359" xlink:href="#DejaVuSans-65"/>
     <use x="122.341797" xlink:href="#DejaVuSans-73"/>
     <use x="174.441406" xlink:href="#DejaVuSans-74"/>
    </g>
   </g>
   <g id="legend_1">
    <g id="patch_7">
     <path d="M 64.6 64.150125 
L 306.276563 64.150125 
Q 308.276563 64.150125 308.276563 62.150125 
L 308.276563 48.472 
Q 308.276563 46.472 306.276563 46.472 
L 64.6 46.472 
Q 62.6 46.472 62.6 48.472 
L 62.6 62.150125 
Q 62.6 64.150125 64.6 64.150125 
z
" style="fill:#ffffff;opacity:0.8;stroke:#cccccc;stroke-linejoin:miter;"/>
    </g>
    <g id="line2d_30">
     <path d="M 66.6 54.570438 
L 86.6 54.570438 
" style="fill:none;stroke:#000080;stroke-linecap:square;stroke-width:0.5;"/>
    </g>
    <g id="line2d_31"/>
    <g id="text_18">
     <!-- Successful download requests per second -->
     <g transform="translate(94.6 58.070438)scale(0.1 -0.1)">
      <use xlink:href="#DejaVuSans-53"/>
      <use x="63.476562" xlink:href="#DejaVuSans-75"/>
      <use x="126.855469" xlink:href="#DejaVuSans-63"/>
      <use x="181.835938" xlink:href="#DejaVuSans-63"/>
      <use x="236.816406" xlink:href="#DejaVuSans-65"/>
      <use x="298.339844" xlink:href="#DejaVuSans-73"/>
      <use x="350.439453" xlink:href="#DejaVuSans-73"/>
      <use x="402.539062" xlink:href="#DejaVuSans-66"/>
      <use x="437.744141" xlink:href="#DejaVuSans-75"/>
      <use x="501.123047" xlink:href="#DejaVuSans-6c"/>
      <use x="528.90625" xlink:href="#DejaVuSans-20"/>
      <use x="560.693359" xlink:href="#DejaVuSans-64"/>
      <use x="624.169922" xlink:href="#DejaVuSans-6f"/>
      <use x="685.351562" xlink:href="#DejaVuSans-77"/>
      <use x="767.138672" xlink:href="#DejaVuSans-6e"/>
      <use x="830.517578" xlink:href="#DejaVuSans-6c"/>
      <use x="858.300781" xlink:href="#DejaVuSans-6f"/>
      <use x="919.482422" xlink:href="#DejaVuSans-61"/>
      <use x="980.761719" xlink:href="#DejaVuSans-64"/>
      <use x="1044.238281" xlink:href="#DejaVuSans-20"/>
      <use x="1076.025391" xlink:href="#DejaVuSans-72"/>
      <use x="1117.107422" xlink:href="#DejaVuSans-65"/>
      <use x="1178.630859" xlink:href="#DejaVuSans-71"/>
      <use x="1242.107422" xlink:href="#DejaVuSans-75"/>
      <use x="1305.486328" xlink:href="#DejaVuSans-65"/>
      <use x="1367.009766" xlink:href="#DejaVuSans-73"/>
      <use x="1419.109375" xlink:href="#DejaVuSans-74"/>
      <use x="1458.318359" xlink:href="#DejaVuSans-73"/>
      <use x="1510.417969" xlink:href="#DejaVuSans-20"/>
      <use x="1542.205078" xlink:href="#DejaVuSans-70"/>
      <use x="1605.681641" xlink:href="#DejaVuSans-65"/>
      <use x="1667.205078" xlink:href="#DejaVuSans-72"/>
      <use x="1708.318359" xlink:href="#DejaVuSans-20"/>
      <use x="1740.105469" xlink:href="#DejaVuSans-73"/>
      <use x="1792.205078" xlink:href="#DejaVuSans-65"/>
      <use x="1853.728516" xlink:href="#DejaVuSans-63"/>
      <use x="1908.708984" xlink:href="#DejaVuSans-6f"/>
      <use x="1969.890625" xlink:href="#DejaVuSans-6e"/>
      <use x="2033.269531" xlink:href="#DejaVuSans-64"/>
     </g>
    </g>
   </g>
  </g>
 </g>
 <defs>
  <clipPath id="pb277261789">
   <rect height="266.112" width="357.12" x="57.6" y="41.472"/>
  </clipPath>
 </defs>
</svg>
