<?xml version="1.0" encoding="utf-8" standalone="no"?>
<!DOCTYPE svg PUBLIC "-//W3C//DTD SVG 1.1//EN"
  "http://www.w3.org/Graphics/SVG/1.1/DTD/svg11.dtd">
<!-- Created with matplotlib (http://matplotlib.org/) -->
<svg height="345pt" version="1.1" viewBox="0 0 460 345" width="460pt" xmlns="http://www.w3.org/2000/svg" xmlns:xlink="http://www.w3.org/1999/xlink">
 <defs>
  <style type="text/css">
*{stroke-linecap:butt;stroke-linejoin:round;}
  </style>
 </defs>
 <g id="figure_1">
  <g id="patch_1">
   <path d="M 0 345.6 
L 460.8 345.6 
L 460.8 0 
L 0 0 
z
" style="fill:#ffffff;"/>
  </g>
  <g id="axes_1">
   <g id="patch_2">
    <path d="M 57.6 307.584 
L 414.72 307.584 
L 414.72 41.472 
L 57.6 41.472 
z
" style="fill:#ffffff;"/>
   </g>
   <g id="matplotlib.axis_1">
    <g id="xtick_1">
     <g id="line2d_1">
      <path clip-path="url(#p6d2745ea29)" d="M 57.6 307.584 
L 57.6 41.472 
" style="fill:none;stroke:#b0b0b0;stroke-linecap:square;stroke-width:0.8;"/>
     </g>
     <g id="line2d_2">
      <defs>
       <path d="M 0 0 
L 0 3.5 
" id="m3decc91c00" style="stroke:#000000;stroke-width:0.8;"/>
      </defs>
      <g>
       <use style="stroke:#000000;stroke-width:0.8;" x="57.6" xlink:href="#m3decc91c00" y="307.584"/>
      </g>
     </g>
     <g id="text_1">
      <!-- 0 -->
      <defs>
       <path d="M 31.78125 66.40625 
Q 24.171875 66.40625 20.328125 58.90625 
Q 16.5 51.421875 16.5 36.375 
Q 16.5 21.390625 20.328125 13.890625 
Q 24.171875 6.390625 31.78125 6.390625 
Q 39.453125 6.390625 43.28125 13.890625 
Q 47.125 21.390625 47.125 36.375 
Q 47.125 51.421875 43.28125 58.90625 
Q 39.453125 66.40625 31.78125 66.40625 
M 31.78125 74.21875 
Q 44.046875 74.21875 50.515625 64.515625 
Q 56.984375 54.828125 56.984375 36.375 
Q 56.984375 17.96875 50.515625 8.265625 
Q 44.046875 -1.421875 31.78125 -1.421875 
Q 19.53125 -1.421875 13.0625 8.265625 
Q 6.59375 17.96875 6.59375 36.375 
Q 6.59375 54.828125 13.0625 64.515625 
Q 19.53125 74.21875 31.78125 74.21875 
" id="DejaVuSans-30"/>
      </defs>
      <g transform="translate(54.41875 322.182437)scale(0.1 -0.1)">
       <use xlink:href="#DejaVuSans-30"/>
      </g>
     </g>
    </g>
    <g id="xtick_2">
     <g id="line2d_3">
      <path clip-path="url(#p6d2745ea29)" d="M 129.024 307.584 
L 129.024 41.472 
" style="fill:none;stroke:#b0b0b0;stroke-linecap:square;stroke-width:0.8;"/>
     </g>
     <g id="line2d_4">
      <g>
       <use style="stroke:#000000;stroke-width:0.8;" x="129.024" xlink:href="#m3decc91c00" y="307.584"/>
      </g>
     </g>
     <g id="text_2">
      <!-- 200 -->
      <defs>
       <path d="M 19.1875 8.296875 
L 53.609375 8.296875 
L 53.609375 0 
L 7.328125 0 
L 7.328125 8.296875 
Q 12.9375 14.109375 22.625 23.890625 
Q 32.328125 33.6875 34.8125 36.53125 
Q 39.546875 41.84375 41.421875 45.53125 
Q 43.3125 49.21875 43.3125 52.78125 
Q 43.3125 58.59375 39.234375 62.25 
Q 35.15625 65.921875 28.609375 65.921875 
Q 23.96875 65.921875 18.8125 64.3125 
Q 13.671875 62.703125 7.8125 59.421875 
L 7.8125 69.390625 
Q 13.765625 71.78125 18.9375 73 
Q 24.125 74.21875 28.421875 74.21875 
Q 39.75 74.21875 46.484375 68.546875 
Q 53.21875 62.890625 53.21875 53.421875 
Q 53.21875 48.921875 51.53125 44.890625 
Q 49.859375 40.875 45.40625 35.40625 
Q 44.1875 33.984375 37.640625 27.21875 
Q 31.109375 20.453125 19.1875 8.296875 
" id="DejaVuSans-32"/>
      </defs>
      <g transform="translate(119.48025 322.182437)scale(0.1 -0.1)">
       <use xlink:href="#DejaVuSans-32"/>
       <use x="63.623047" xlink:href="#DejaVuSans-30"/>
       <use x="127.246094" xlink:href="#DejaVuSans-30"/>
      </g>
     </g>
    </g>
    <g id="xtick_3">
     <g id="line2d_5">
      <path clip-path="url(#p6d2745ea29)" d="M 200.448 307.584 
L 200.448 41.472 
" style="fill:none;stroke:#b0b0b0;stroke-linecap:square;stroke-width:0.8;"/>
     </g>
     <g id="line2d_6">
      <g>
       <use style="stroke:#000000;stroke-width:0.8;" x="200.448" xlink:href="#m3decc91c00" y="307.584"/>
      </g>
     </g>
     <g id="text_3">
      <!-- 400 -->
      <defs>
       <path d="M 37.796875 64.3125 
L 12.890625 25.390625 
L 37.796875 25.390625 
z
M 35.203125 72.90625 
L 47.609375 72.90625 
L 47.609375 25.390625 
L 58.015625 25.390625 
L 58.015625 17.1875 
L 47.609375 17.1875 
L 47.609375 0 
L 37.796875 0 
L 37.796875 17.1875 
L 4.890625 17.1875 
L 4.890625 26.703125 
z
" id="DejaVuSans-34"/>
      </defs>
      <g transform="translate(190.90425 322.182437)scale(0.1 -0.1)">
       <use xlink:href="#DejaVuSans-34"/>
       <use x="63.623047" xlink:href="#DejaVuSans-30"/>
       <use x="127.246094" xlink:href="#DejaVuSans-30"/>
      </g>
     </g>
    </g>
    <g id="xtick_4">
     <g id="line2d_7">
      <path clip-path="url(#p6d2745ea29)" d="M 271.872 307.584 
L 271.872 41.472 
" style="fill:none;stroke:#b0b0b0;stroke-linecap:square;stroke-width:0.8;"/>
     </g>
     <g id="line2d_8">
      <g>
       <use style="stroke:#000000;stroke-width:0.8;" x="271.872" xlink:href="#m3decc91c00" y="307.584"/>
      </g>
     </g>
     <g id="text_4">
      <!-- 600 -->
      <defs>
       <path d="M 33.015625 40.375 
Q 26.375 40.375 22.484375 35.828125 
Q 18.609375 31.296875 18.609375 23.390625 
Q 18.609375 15.53125 22.484375 10.953125 
Q 26.375 6.390625 33.015625 6.390625 
Q 39.65625 6.390625 43.53125 10.953125 
Q 47.40625 15.53125 47.40625 23.390625 
Q 47.40625 31.296875 43.53125 35.828125 
Q 39.65625 40.375 33.015625 40.375 
M 52.59375 71.296875 
L 52.59375 62.3125 
Q 48.875 64.0625 45.09375 64.984375 
Q 41.3125 65.921875 37.59375 65.921875 
Q 27.828125 65.921875 22.671875 59.328125 
Q 17.53125 52.734375 16.796875 39.40625 
Q 19.671875 43.65625 24.015625 45.921875 
Q 28.375 48.1875 33.59375 48.1875 
Q 44.578125 48.1875 50.953125 41.515625 
Q 57.328125 34.859375 57.328125 23.390625 
Q 57.328125 12.15625 50.6875 5.359375 
Q 44.046875 -1.421875 33.015625 -1.421875 
Q 20.359375 -1.421875 13.671875 8.265625 
Q 6.984375 17.96875 6.984375 36.375 
Q 6.984375 53.65625 15.1875 63.9375 
Q 23.390625 74.21875 37.203125 74.21875 
Q 40.921875 74.21875 44.703125 73.484375 
Q 48.484375 72.75 52.59375 71.296875 
" id="DejaVuSans-36"/>
      </defs>
      <g transform="translate(262.32825 322.182437)scale(0.1 -0.1)">
       <use xlink:href="#DejaVuSans-36"/>
       <use x="63.623047" xlink:href="#DejaVuSans-30"/>
       <use x="127.246094" xlink:href="#DejaVuSans-30"/>
      </g>
     </g>
    </g>
    <g id="xtick_5">
     <g id="line2d_9">
      <path clip-path="url(#p6d2745ea29)" d="M 343.296 307.584 
L 343.296 41.472 
" style="fill:none;stroke:#b0b0b0;stroke-linecap:square;stroke-width:0.8;"/>
     </g>
     <g id="line2d_10">
      <g>
       <use style="stroke:#000000;stroke-width:0.8;" x="343.296" xlink:href="#m3decc91c00" y="307.584"/>
      </g>
     </g>
     <g id="text_5">
      <!-- 800 -->
      <defs>
       <path d="M 31.78125 34.625 
Q 24.75 34.625 20.71875 30.859375 
Q 16.703125 27.09375 16.703125 20.515625 
Q 16.703125 13.921875 20.71875 10.15625 
Q 24.75 6.390625 31.78125 6.390625 
Q 38.8125 6.390625 42.859375 10.171875 
Q 46.921875 13.96875 46.921875 20.515625 
Q 46.921875 27.09375 42.890625 30.859375 
Q 38.875 34.625 31.78125 34.625 
M 21.921875 38.8125 
Q 15.578125 40.375 12.03125 44.71875 
Q 8.5 49.078125 8.5 55.328125 
Q 8.5 64.0625 14.71875 69.140625 
Q 20.953125 74.21875 31.78125 74.21875 
Q 42.671875 74.21875 48.875 69.140625 
Q 55.078125 64.0625 55.078125 55.328125 
Q 55.078125 49.078125 51.53125 44.71875 
Q 48 40.375 41.703125 38.8125 
Q 48.828125 37.15625 52.796875 32.3125 
Q 56.78125 27.484375 56.78125 20.515625 
Q 56.78125 9.90625 50.3125 4.234375 
Q 43.84375 -1.421875 31.78125 -1.421875 
Q 19.734375 -1.421875 13.25 4.234375 
Q 6.78125 9.90625 6.78125 20.515625 
Q 6.78125 27.484375 10.78125 32.3125 
Q 14.796875 37.15625 21.921875 38.8125 
M 18.3125 54.390625 
Q 18.3125 48.734375 21.84375 45.5625 
Q 25.390625 42.390625 31.78125 42.390625 
Q 38.140625 42.390625 41.71875 45.5625 
Q 45.3125 48.734375 45.3125 54.390625 
Q 45.3125 60.0625 41.71875 63.234375 
Q 38.140625 66.40625 31.78125 66.40625 
Q 25.390625 66.40625 21.84375 63.234375 
Q 18.3125 60.0625 18.3125 54.390625 
" id="DejaVuSans-38"/>
      </defs>
      <g transform="translate(333.75225 322.182437)scale(0.1 -0.1)">
       <use xlink:href="#DejaVuSans-38"/>
       <use x="63.623047" xlink:href="#DejaVuSans-30"/>
       <use x="127.246094" xlink:href="#DejaVuSans-30"/>
      </g>
     </g>
    </g>
    <g id="xtick_6">
     <g id="line2d_11">
      <path clip-path="url(#p6d2745ea29)" d="M 414.72 307.584 
L 414.72 41.472 
" style="fill:none;stroke:#b0b0b0;stroke-linecap:square;stroke-width:0.8;"/>
     </g>
     <g id="line2d_12">
      <g>
       <use style="stroke:#000000;stroke-width:0.8;" x="414.72" xlink:href="#m3decc91c00" y="307.584"/>
      </g>
     </g>
     <g id="text_6">
      <!-- 1000 -->
      <defs>
       <path d="M 12.40625 8.296875 
L 28.515625 8.296875 
L 28.515625 63.921875 
L 10.984375 60.40625 
L 10.984375 69.390625 
L 28.421875 72.90625 
L 38.28125 72.90625 
L 38.28125 8.296875 
L 54.390625 8.296875 
L 54.390625 0 
L 12.40625 0 
z
" id="DejaVuSans-31"/>
      </defs>
      <g transform="translate(401.995 322.182437)scale(0.1 -0.1)">
       <use xlink:href="#DejaVuSans-31"/>
       <use x="63.623047" xlink:href="#DejaVuSans-30"/>
       <use x="127.246094" xlink:href="#DejaVuSans-30"/>
       <use x="190.869141" xlink:href="#DejaVuSans-30"/>
      </g>
     </g>
    </g>
    <g id="text_7">
     <!-- Number of clients -->
     <defs>
      <path d="M 9.8125 72.90625 
L 23.09375 72.90625 
L 55.421875 11.921875 
L 55.421875 72.90625 
L 64.984375 72.90625 
L 64.984375 0 
L 51.703125 0 
L 19.390625 60.984375 
L 19.390625 0 
L 9.8125 0 
z
" id="DejaVuSans-4e"/>
      <path d="M 8.5 21.578125 
L 8.5 54.6875 
L 17.484375 54.6875 
L 17.484375 21.921875 
Q 17.484375 14.15625 20.5 10.265625 
Q 23.53125 6.390625 29.59375 6.390625 
Q 36.859375 6.390625 41.078125 11.03125 
Q 45.3125 15.671875 45.3125 23.6875 
L 45.3125 54.6875 
L 54.296875 54.6875 
L 54.296875 0 
L 45.3125 0 
L 45.3125 8.40625 
Q 42.046875 3.421875 37.71875 1 
Q 33.40625 -1.421875 27.6875 -1.421875 
Q 18.265625 -1.421875 13.375 4.4375 
Q 8.5 10.296875 8.5 21.578125 
M 31.109375 56 
z
" id="DejaVuSans-75"/>
      <path d="M 52 44.1875 
Q 55.375 50.25 60.0625 53.125 
Q 64.75 56 71.09375 56 
Q 79.640625 56 84.28125 50.015625 
Q 88.921875 44.046875 88.921875 33.015625 
L 88.921875 0 
L 79.890625 0 
L 79.890625 32.71875 
Q 79.890625 40.578125 77.09375 44.375 
Q 74.3125 48.1875 68.609375 48.1875 
Q 61.625 48.1875 57.5625 43.546875 
Q 53.515625 38.921875 53.515625 30.90625 
L 53.515625 0 
L 44.484375 0 
L 44.484375 32.71875 
Q 44.484375 40.625 41.703125 44.40625 
Q 38.921875 48.1875 33.109375 48.1875 
Q 26.21875 48.1875 22.15625 43.53125 
Q 18.109375 38.875 18.109375 30.90625 
L 18.109375 0 
L 9.078125 0 
L 9.078125 54.6875 
L 18.109375 54.6875 
L 18.109375 46.1875 
Q 21.1875 51.21875 25.484375 53.609375 
Q 29.78125 56 35.6875 56 
Q 41.65625 56 45.828125 52.96875 
Q 50 49.953125 52 44.1875 
" id="DejaVuSans-6d"/>
      <path d="M 48.6875 27.296875 
Q 48.6875 37.203125 44.609375 42.84375 
Q 40.53125 48.484375 33.40625 48.484375 
Q 26.265625 48.484375 22.1875 42.84375 
Q 18.109375 37.203125 18.109375 27.296875 
Q 18.109375 17.390625 22.1875 11.75 
Q 26.265625 6.109375 33.40625 6.109375 
Q 40.53125 6.109375 44.609375 11.75 
Q 48.6875 17.390625 48.6875 27.296875 
M 18.109375 46.390625 
Q 20.953125 51.265625 25.265625 53.625 
Q 29.59375 56 35.59375 56 
Q 45.5625 56 51.78125 48.09375 
Q 58.015625 40.1875 58.015625 27.296875 
Q 58.015625 14.40625 51.78125 6.484375 
Q 45.5625 -1.421875 35.59375 -1.421875 
Q 29.59375 -1.421875 25.265625 0.953125 
Q 20.953125 3.328125 18.109375 8.203125 
L 18.109375 0 
L 9.078125 0 
L 9.078125 75.984375 
L 18.109375 75.984375 
z
" id="DejaVuSans-62"/>
      <path d="M 56.203125 29.59375 
L 56.203125 25.203125 
L 14.890625 25.203125 
Q 15.484375 15.921875 20.484375 11.0625 
Q 25.484375 6.203125 34.421875 6.203125 
Q 39.59375 6.203125 44.453125 7.46875 
Q 49.3125 8.734375 54.109375 11.28125 
L 54.109375 2.78125 
Q 49.265625 0.734375 44.1875 -0.34375 
Q 39.109375 -1.421875 33.890625 -1.421875 
Q 20.796875 -1.421875 13.15625 6.1875 
Q 5.515625 13.8125 5.515625 26.8125 
Q 5.515625 40.234375 12.765625 48.109375 
Q 20.015625 56 32.328125 56 
Q 43.359375 56 49.78125 48.890625 
Q 56.203125 41.796875 56.203125 29.59375 
M 47.21875 32.234375 
Q 47.125 39.59375 43.09375 43.984375 
Q 39.0625 48.390625 32.421875 48.390625 
Q 24.90625 48.390625 20.390625 44.140625 
Q 15.875 39.890625 15.1875 32.171875 
z
" id="DejaVuSans-65"/>
      <path d="M 41.109375 46.296875 
Q 39.59375 47.171875 37.8125 47.578125 
Q 36.03125 48 33.890625 48 
Q 26.265625 48 22.1875 43.046875 
Q 18.109375 38.09375 18.109375 28.8125 
L 18.109375 0 
L 9.078125 0 
L 9.078125 54.6875 
L 18.109375 54.6875 
L 18.109375 46.1875 
Q 20.953125 51.171875 25.484375 53.578125 
Q 30.03125 56 36.53125 56 
Q 37.453125 56 38.578125 55.875 
Q 39.703125 55.765625 41.0625 55.515625 
z
" id="DejaVuSans-72"/>
      <path id="DejaVuSans-20"/>
      <path d="M 30.609375 48.390625 
Q 23.390625 48.390625 19.1875 42.75 
Q 14.984375 37.109375 14.984375 27.296875 
Q 14.984375 17.484375 19.15625 11.84375 
Q 23.34375 6.203125 30.609375 6.203125 
Q 37.796875 6.203125 41.984375 11.859375 
Q 46.1875 17.53125 46.1875 27.296875 
Q 46.1875 37.015625 41.984375 42.703125 
Q 37.796875 48.390625 30.609375 48.390625 
M 30.609375 56 
Q 42.328125 56 49.015625 48.375 
Q 55.71875 40.765625 55.71875 27.296875 
Q 55.71875 13.875 49.015625 6.21875 
Q 42.328125 -1.421875 30.609375 -1.421875 
Q 18.84375 -1.421875 12.171875 6.21875 
Q 5.515625 13.875 5.515625 27.296875 
Q 5.515625 40.765625 12.171875 48.375 
Q 18.84375 56 30.609375 56 
" id="DejaVuSans-6f"/>
      <path d="M 37.109375 75.984375 
L 37.109375 68.5 
L 28.515625 68.5 
Q 23.6875 68.5 21.796875 66.546875 
Q 19.921875 64.59375 19.921875 59.515625 
L 19.921875 54.6875 
L 34.71875 54.6875 
L 34.71875 47.703125 
L 19.921875 47.703125 
L 19.921875 0 
L 10.890625 0 
L 10.890625 47.703125 
L 2.296875 47.703125 
L 2.296875 54.6875 
L 10.890625 54.6875 
L 10.890625 58.5 
Q 10.890625 67.625 15.140625 71.796875 
Q 19.390625 75.984375 28.609375 75.984375 
z
" id="DejaVuSans-66"/>
      <path d="M 48.78125 52.59375 
L 48.78125 44.1875 
Q 44.96875 46.296875 41.140625 47.34375 
Q 37.3125 48.390625 33.40625 48.390625 
Q 24.65625 48.390625 19.8125 42.84375 
Q 14.984375 37.3125 14.984375 27.296875 
Q 14.984375 17.28125 19.8125 11.734375 
Q 24.65625 6.203125 33.40625 6.203125 
Q 37.3125 6.203125 41.140625 7.25 
Q 44.96875 8.296875 48.78125 10.40625 
L 48.78125 2.09375 
Q 45.015625 0.34375 40.984375 -0.53125 
Q 36.96875 -1.421875 32.421875 -1.421875 
Q 20.0625 -1.421875 12.78125 6.34375 
Q 5.515625 14.109375 5.515625 27.296875 
Q 5.515625 40.671875 12.859375 48.328125 
Q 20.21875 56 33.015625 56 
Q 37.15625 56 41.109375 55.140625 
Q 45.0625 54.296875 48.78125 52.59375 
" id="DejaVuSans-63"/>
      <path d="M 9.421875 75.984375 
L 18.40625 75.984375 
L 18.40625 0 
L 9.421875 0 
z
" id="DejaVuSans-6c"/>
      <path d="M 9.421875 54.6875 
L 18.40625 54.6875 
L 18.40625 0 
L 9.421875 0 
z
M 9.421875 75.984375 
L 18.40625 75.984375 
L 18.40625 64.59375 
L 9.421875 64.59375 
z
" id="DejaVuSans-69"/>
      <path d="M 54.890625 33.015625 
L 54.890625 0 
L 45.90625 0 
L 45.90625 32.71875 
Q 45.90625 40.484375 42.875 44.328125 
Q 39.84375 48.1875 33.796875 48.1875 
Q 26.515625 48.1875 22.3125 43.546875 
Q 18.109375 38.921875 18.109375 30.90625 
L 18.109375 0 
L 9.078125 0 
L 9.078125 54.6875 
L 18.109375 54.6875 
L 18.109375 46.1875 
Q 21.34375 51.125 25.703125 53.5625 
Q 30.078125 56 35.796875 56 
Q 45.21875 56 50.046875 50.171875 
Q 54.890625 44.34375 54.890625 33.015625 
" id="DejaVuSans-6e"/>
      <path d="M 18.3125 70.21875 
L 18.3125 54.6875 
L 36.8125 54.6875 
L 36.8125 47.703125 
L 18.3125 47.703125 
L 18.3125 18.015625 
Q 18.3125 11.328125 20.140625 9.421875 
Q 21.96875 7.515625 27.59375 7.515625 
L 36.8125 7.515625 
L 36.8125 0 
L 27.59375 0 
Q 17.1875 0 13.234375 3.875 
Q 9.28125 7.765625 9.28125 18.015625 
L 9.28125 47.703125 
L 2.6875 47.703125 
L 2.6875 54.6875 
L 9.28125 54.6875 
L 9.28125 70.21875 
z
" id="DejaVuSans-74"/>
      <path d="M 44.28125 53.078125 
L 44.28125 44.578125 
Q 40.484375 46.53125 36.375 47.5 
Q 32.28125 48.484375 27.875 48.484375 
Q 21.1875 48.484375 17.84375 46.4375 
Q 14.5 44.390625 14.5 40.28125 
Q 14.5 37.15625 16.890625 35.375 
Q 19.28125 33.59375 26.515625 31.984375 
L 29.59375 31.296875 
Q 39.15625 29.25 43.1875 25.515625 
Q 47.21875 21.78125 47.21875 15.09375 
Q 47.21875 7.46875 41.1875 3.015625 
Q 35.15625 -1.421875 24.609375 -1.421875 
Q 20.21875 -1.421875 15.453125 -0.5625 
Q 10.6875 0.296875 5.421875 2 
L 5.421875 11.28125 
Q 10.40625 8.6875 15.234375 7.390625 
Q 20.0625 6.109375 24.8125 6.109375 
Q 31.15625 6.109375 34.5625 8.28125 
Q 37.984375 10.453125 37.984375 14.40625 
Q 37.984375 18.0625 35.515625 20.015625 
Q 33.0625 21.96875 24.703125 23.78125 
L 21.578125 24.515625 
Q 13.234375 26.265625 9.515625 29.90625 
Q 5.8125 33.546875 5.8125 39.890625 
Q 5.8125 47.609375 11.28125 51.796875 
Q 16.75 56 26.8125 56 
Q 31.78125 56 36.171875 55.265625 
Q 40.578125 54.546875 44.28125 53.078125 
" id="DejaVuSans-73"/>
     </defs>
     <g transform="translate(191.738906 335.860562)scale(0.1 -0.1)">
      <use xlink:href="#DejaVuSans-4e"/>
      <use x="74.804688" xlink:href="#DejaVuSans-75"/>
      <use x="138.183594" xlink:href="#DejaVuSans-6d"/>
      <use x="235.595703" xlink:href="#DejaVuSans-62"/>
      <use x="299.072266" xlink:href="#DejaVuSans-65"/>
      <use x="360.595703" xlink:href="#DejaVuSans-72"/>
      <use x="401.708984" xlink:href="#DejaVuSans-20"/>
      <use x="433.496094" xlink:href="#DejaVuSans-6f"/>
      <use x="494.677734" xlink:href="#DejaVuSans-66"/>
      <use x="529.882812" xlink:href="#DejaVuSans-20"/>
      <use x="561.669922" xlink:href="#DejaVuSans-63"/>
      <use x="616.650391" xlink:href="#DejaVuSans-6c"/>
      <use x="644.433594" xlink:href="#DejaVuSans-69"/>
      <use x="672.216797" xlink:href="#DejaVuSans-65"/>
      <use x="733.740234" xlink:href="#DejaVuSans-6e"/>
      <use x="797.119141" xlink:href="#DejaVuSans-74"/>
      <use x="836.328125" xlink:href="#DejaVuSans-73"/>
     </g>
    </g>
   </g>
   <g id="matplotlib.axis_2">
    <g id="ytick_1">
     <g id="line2d_13">
      <path clip-path="url(#p6d2745ea29)" d="M 57.6 296.019487 
L 414.72 296.019487 
" style="fill:none;stroke:#b0b0b0;stroke-linecap:square;stroke-width:0.8;"/>
     </g>
     <g id="line2d_14">
      <defs>
       <path d="M 0 0 
L -3.5 0 
" id="m3967c2da62" style="stroke:#000000;stroke-width:0.8;"/>
      </defs>
      <g>
       <use style="stroke:#000000;stroke-width:0.8;" x="57.6" xlink:href="#m3967c2da62" y="296.019487"/>
      </g>
     </g>
     <g id="text_8">
      <!-- 0 -->
      <g transform="translate(44.2375 299.818706)scale(0.1 -0.1)">
       <use xlink:href="#DejaVuSans-30"/>
      </g>
     </g>
    </g>
    <g id="ytick_2">
     <g id="line2d_15">
      <path clip-path="url(#p6d2745ea29)" d="M 57.6 240.190979 
L 414.72 240.190979 
" style="fill:none;stroke:#b0b0b0;stroke-linecap:square;stroke-width:0.8;"/>
     </g>
     <g id="line2d_16">
      <g>
       <use style="stroke:#000000;stroke-width:0.8;" x="57.6" xlink:href="#m3967c2da62" y="240.190979"/>
      </g>
     </g>
     <g id="text_9">
      <!-- 100 -->
      <g transform="translate(31.5125 243.990198)scale(0.1 -0.1)">
       <use xlink:href="#DejaVuSans-31"/>
       <use x="63.623047" xlink:href="#DejaVuSans-30"/>
       <use x="127.246094" xlink:href="#DejaVuSans-30"/>
      </g>
     </g>
    </g>
    <g id="ytick_3">
     <g id="line2d_17">
      <path clip-path="url(#p6d2745ea29)" d="M 57.6 184.362471 
L 414.72 184.362471 
" style="fill:none;stroke:#b0b0b0;stroke-linecap:square;stroke-width:0.8;"/>
     </g>
     <g id="line2d_18">
      <g>
       <use style="stroke:#000000;stroke-width:0.8;" x="57.6" xlink:href="#m3967c2da62" y="184.362471"/>
      </g>
     </g>
     <g id="text_10">
      <!-- 200 -->
      <g transform="translate(31.5125 188.16169)scale(0.1 -0.1)">
       <use xlink:href="#DejaVuSans-32"/>
       <use x="63.623047" xlink:href="#DejaVuSans-30"/>
       <use x="127.246094" xlink:href="#DejaVuSans-30"/>
      </g>
     </g>
    </g>
    <g id="ytick_4">
     <g id="line2d_19">
      <path clip-path="url(#p6d2745ea29)" d="M 57.6 128.533963 
L 414.72 128.533963 
" style="fill:none;stroke:#b0b0b0;stroke-linecap:square;stroke-width:0.8;"/>
     </g>
     <g id="line2d_20">
      <g>
       <use style="stroke:#000000;stroke-width:0.8;" x="57.6" xlink:href="#m3967c2da62" y="128.533963"/>
      </g>
     </g>
     <g id="text_11">
      <!-- 300 -->
      <defs>
       <path d="M 40.578125 39.3125 
Q 47.65625 37.796875 51.625 33 
Q 55.609375 28.21875 55.609375 21.1875 
Q 55.609375 10.40625 48.1875 4.484375 
Q 40.765625 -1.421875 27.09375 -1.421875 
Q 22.515625 -1.421875 17.65625 -0.515625 
Q 12.796875 0.390625 7.625 2.203125 
L 7.625 11.71875 
Q 11.71875 9.328125 16.59375 8.109375 
Q 21.484375 6.890625 26.8125 6.890625 
Q 36.078125 6.890625 40.9375 10.546875 
Q 45.796875 14.203125 45.796875 21.1875 
Q 45.796875 27.640625 41.28125 31.265625 
Q 36.765625 34.90625 28.71875 34.90625 
L 20.21875 34.90625 
L 20.21875 43.015625 
L 29.109375 43.015625 
Q 36.375 43.015625 40.234375 45.921875 
Q 44.09375 48.828125 44.09375 54.296875 
Q 44.09375 59.90625 40.109375 62.90625 
Q 36.140625 65.921875 28.71875 65.921875 
Q 24.65625 65.921875 20.015625 65.03125 
Q 15.375 64.15625 9.8125 62.3125 
L 9.8125 71.09375 
Q 15.4375 72.65625 20.34375 73.4375 
Q 25.25 74.21875 29.59375 74.21875 
Q 40.828125 74.21875 47.359375 69.109375 
Q 53.90625 64.015625 53.90625 55.328125 
Q 53.90625 49.265625 50.4375 45.09375 
Q 46.96875 40.921875 40.578125 39.3125 
" id="DejaVuSans-33"/>
      </defs>
      <g transform="translate(31.5125 132.333181)scale(0.1 -0.1)">
       <use xlink:href="#DejaVuSans-33"/>
       <use x="63.623047" xlink:href="#DejaVuSans-30"/>
       <use x="127.246094" xlink:href="#DejaVuSans-30"/>
      </g>
     </g>
    </g>
    <g id="ytick_5">
     <g id="line2d_21">
      <path clip-path="url(#p6d2745ea29)" d="M 57.6 72.705454 
L 414.72 72.705454 
" style="fill:none;stroke:#b0b0b0;stroke-linecap:square;stroke-width:0.8;"/>
     </g>
     <g id="line2d_22">
      <g>
       <use style="stroke:#000000;stroke-width:0.8;" x="57.6" xlink:href="#m3967c2da62" y="72.705454"/>
      </g>
     </g>
     <g id="text_12">
      <!-- 400 -->
      <g transform="translate(31.5125 76.504673)scale(0.1 -0.1)">
       <use xlink:href="#DejaVuSans-34"/>
       <use x="63.623047" xlink:href="#DejaVuSans-30"/>
       <use x="127.246094" xlink:href="#DejaVuSans-30"/>
      </g>
     </g>
    </g>
    <g id="text_13">
     <!-- Successful download requests per second -->
     <defs>
      <path d="M 53.515625 70.515625 
L 53.515625 60.890625 
Q 47.90625 63.578125 42.921875 64.890625 
Q 37.9375 66.21875 33.296875 66.21875 
Q 25.25 66.21875 20.875 63.09375 
Q 16.5 59.96875 16.5 54.203125 
Q 16.5 49.359375 19.40625 46.890625 
Q 22.3125 44.4375 30.421875 42.921875 
L 36.375 41.703125 
Q 47.40625 39.59375 52.65625 34.296875 
Q 57.90625 29 57.90625 20.125 
Q 57.90625 9.515625 50.796875 4.046875 
Q 43.703125 -1.421875 29.984375 -1.421875 
Q 24.8125 -1.421875 18.96875 -0.25 
Q 13.140625 0.921875 6.890625 3.21875 
L 6.890625 13.375 
Q 12.890625 10.015625 18.65625 8.296875 
Q 24.421875 6.59375 29.984375 6.59375 
Q 38.421875 6.59375 43.015625 9.90625 
Q 47.609375 13.234375 47.609375 19.390625 
Q 47.609375 24.75 44.3125 27.78125 
Q 41.015625 30.8125 33.5 32.328125 
L 27.484375 33.5 
Q 16.453125 35.6875 11.515625 40.375 
Q 6.59375 45.0625 6.59375 53.421875 
Q 6.59375 63.09375 13.40625 68.65625 
Q 20.21875 74.21875 32.171875 74.21875 
Q 37.3125 74.21875 42.625 73.28125 
Q 47.953125 72.359375 53.515625 70.515625 
" id="DejaVuSans-53"/>
      <path d="M 45.40625 46.390625 
L 45.40625 75.984375 
L 54.390625 75.984375 
L 54.390625 0 
L 45.40625 0 
L 45.40625 8.203125 
Q 42.578125 3.328125 38.25 0.953125 
Q 33.9375 -1.421875 27.875 -1.421875 
Q 17.96875 -1.421875 11.734375 6.484375 
Q 5.515625 14.40625 5.515625 27.296875 
Q 5.515625 40.1875 11.734375 48.09375 
Q 17.96875 56 27.875 56 
Q 33.9375 56 38.25 53.625 
Q 42.578125 51.265625 45.40625 46.390625 
M 14.796875 27.296875 
Q 14.796875 17.390625 18.875 11.75 
Q 22.953125 6.109375 30.078125 6.109375 
Q 37.203125 6.109375 41.296875 11.75 
Q 45.40625 17.390625 45.40625 27.296875 
Q 45.40625 37.203125 41.296875 42.84375 
Q 37.203125 48.484375 30.078125 48.484375 
Q 22.953125 48.484375 18.875 42.84375 
Q 14.796875 37.203125 14.796875 27.296875 
" id="DejaVuSans-64"/>
      <path d="M 4.203125 54.6875 
L 13.1875 54.6875 
L 24.421875 12.015625 
L 35.59375 54.6875 
L 46.1875 54.6875 
L 57.421875 12.015625 
L 68.609375 54.6875 
L 77.59375 54.6875 
L 63.28125 0 
L 52.6875 0 
L 40.921875 44.828125 
L 29.109375 0 
L 18.5 0 
z
" id="DejaVuSans-77"/>
      <path d="M 34.28125 27.484375 
Q 23.390625 27.484375 19.1875 25 
Q 14.984375 22.515625 14.984375 16.5 
Q 14.984375 11.71875 18.140625 8.90625 
Q 21.296875 6.109375 26.703125 6.109375 
Q 34.1875 6.109375 38.703125 11.40625 
Q 43.21875 16.703125 43.21875 25.484375 
L 43.21875 27.484375 
z
M 52.203125 31.203125 
L 52.203125 0 
L 43.21875 0 
L 43.21875 8.296875 
Q 40.140625 3.328125 35.546875 0.953125 
Q 30.953125 -1.421875 24.3125 -1.421875 
Q 15.921875 -1.421875 10.953125 3.296875 
Q 6 8.015625 6 15.921875 
Q 6 25.140625 12.171875 29.828125 
Q 18.359375 34.515625 30.609375 34.515625 
L 43.21875 34.515625 
L 43.21875 35.40625 
Q 43.21875 41.609375 39.140625 45 
Q 35.0625 48.390625 27.6875 48.390625 
Q 23 48.390625 18.546875 47.265625 
Q 14.109375 46.140625 10.015625 43.890625 
L 10.015625 52.203125 
Q 14.9375 54.109375 19.578125 55.046875 
Q 24.21875 56 28.609375 56 
Q 40.484375 56 46.34375 49.84375 
Q 52.203125 43.703125 52.203125 31.203125 
" id="DejaVuSans-61"/>
      <path d="M 14.796875 27.296875 
Q 14.796875 17.390625 18.875 11.75 
Q 22.953125 6.109375 30.078125 6.109375 
Q 37.203125 6.109375 41.296875 11.75 
Q 45.40625 17.390625 45.40625 27.296875 
Q 45.40625 37.203125 41.296875 42.84375 
Q 37.203125 48.484375 30.078125 48.484375 
Q 22.953125 48.484375 18.875 42.84375 
Q 14.796875 37.203125 14.796875 27.296875 
M 45.40625 8.203125 
Q 42.578125 3.328125 38.25 0.953125 
Q 33.9375 -1.421875 27.875 -1.421875 
Q 17.96875 -1.421875 11.734375 6.484375 
Q 5.515625 14.40625 5.515625 27.296875 
Q 5.515625 40.1875 11.734375 48.09375 
Q 17.96875 56 27.875 56 
Q 33.9375 56 38.25 53.625 
Q 42.578125 51.265625 45.40625 46.390625 
L 45.40625 54.6875 
L 54.390625 54.6875 
L 54.390625 -20.796875 
L 45.40625 -20.796875 
z
" id="DejaVuSans-71"/>
      <path d="M 18.109375 8.203125 
L 18.109375 -20.796875 
L 9.078125 -20.796875 
L 9.078125 54.6875 
L 18.109375 54.6875 
L 18.109375 46.390625 
Q 20.953125 51.265625 25.265625 53.625 
Q 29.59375 56 35.59375 56 
Q 45.5625 56 51.78125 48.09375 
Q 58.015625 40.1875 58.015625 27.296875 
Q 58.015625 14.40625 51.78125 6.484375 
Q 45.5625 -1.421875 35.59375 -1.421875 
Q 29.59375 -1.421875 25.265625 0.953125 
Q 20.953125 3.328125 18.109375 8.203125 
M 48.6875 27.296875 
Q 48.6875 37.203125 44.609375 42.84375 
Q 40.53125 48.484375 33.40625 48.484375 
Q 26.265625 48.484375 22.1875 42.84375 
Q 18.109375 37.203125 18.109375 27.296875 
Q 18.109375 17.390625 22.1875 11.75 
Q 26.265625 6.109375 33.40625 6.109375 
Q 40.53125 6.109375 44.609375 11.75 
Q 48.6875 17.390625 48.6875 27.296875 
" id="DejaVuSans-70"/>
     </defs>
     <g transform="translate(25.432812 279.366281)rotate(-90)scale(0.1 -0.1)">
      <use xlink:href="#DejaVuSans-53"/>
      <use x="63.476562" xlink:href="#DejaVuSans-75"/>
      <use x="126.855469" xlink:href="#DejaVuSans-63"/>
      <use x="181.835938" xlink:href="#DejaVuSans-63"/>
      <use x="236.816406" xlink:href="#DejaVuSans-65"/>
      <use x="298.339844" xlink:href="#DejaVuSans-73"/>
      <use x="350.439453" xlink:href="#DejaVuSans-73"/>
      <use x="402.539062" xlink:href="#DejaVuSans-66"/>
      <use x="437.744141" xlink:href="#DejaVuSans-75"/>
      <use x="501.123047" xlink:href="#DejaVuSans-6c"/>
      <use x="528.90625" xlink:href="#DejaVuSans-20"/>
      <use x="560.693359" xlink:href="#DejaVuSans-64"/>
      <use x="624.169922" xlink:href="#DejaVuSans-6f"/>
      <use x="685.351562" xlink:href="#DejaVuSans-77"/>
      <use x="767.138672" xlink:href="#DejaVuSans-6e"/>
      <use x="830.517578" xlink:href="#DejaVuSans-6c"/>
      <use x="858.300781" xlink:href="#DejaVuSans-6f"/>
      <use x="919.482422" xlink:href="#DejaVuSans-61"/>
      <use x="980.761719" xlink:href="#DejaVuSans-64"/>
      <use x="1044.238281" xlink:href="#DejaVuSans-20"/>
      <use x="1076.025391" xlink:href="#DejaVuSans-72"/>
      <use x="1117.107422" xlink:href="#DejaVuSans-65"/>
      <use x="1178.630859" xlink:href="#DejaVuSans-71"/>
      <use x="1242.107422" xlink:href="#DejaVuSans-75"/>
      <use x="1305.486328" xlink:href="#DejaVuSans-65"/>
      <use x="1367.009766" xlink:href="#DejaVuSans-73"/>
      <use x="1419.109375" xlink:href="#DejaVuSans-74"/>
      <use x="1458.318359" xlink:href="#DejaVuSans-73"/>
      <use x="1510.417969" xlink:href="#DejaVuSans-20"/>
      <use x="1542.205078" xlink:href="#DejaVuSans-70"/>
      <use x="1605.681641" xlink:href="#DejaVuSans-65"/>
      <use x="1667.205078" xlink:href="#DejaVuSans-72"/>
      <use x="1708.318359" xlink:href="#DejaVuSans-20"/>
      <use x="1740.105469" xlink:href="#DejaVuSans-73"/>
      <use x="1792.205078" xlink:href="#DejaVuSans-65"/>
      <use x="1853.728516" xlink:href="#DejaVuSans-63"/>
      <use x="1908.708984" xlink:href="#DejaVuSans-6f"/>
      <use x="1969.890625" xlink:href="#DejaVuSans-6e"/>
      <use x="2033.269531" xlink:href="#DejaVuSans-64"/>
     </g>
    </g>
   </g>
   <g id="line2d_23">
    <path clip-path="url(#p6d2745ea29)" d="M 57.6 295.488 
L 57.95712 295.469018 
L 62.59968 288.374331 
L 62.9568 288.184515 
L 64.7424 285.414304 
L 65.09952 284.427814 
L 65.45664 284.555662 
L 66.17088 282.790364 
L 66.528 282.943334 
L 66.88512 281.777635 
L 67.24224 281.403584 
L 67.59936 281.449922 
L 67.95648 280.482972 
L 68.3136 280.177032 
L 68.67072 279.479734 
L 69.02784 279.111265 
L 69.74208 277.866848 
L 70.0992 276.524731 
L 70.45632 276.494025 
L 70.81344 275.552198 
L 71.17056 275.84139 
L 71.8848 274.815262 
L 72.24192 273.23699 
L 72.59904 273.114725 
L 72.95616 273.345855 
L 73.31328 272.620643 
L 73.6704 271.404698 
L 74.02752 271.844627 
L 74.74176 270.418767 
L 75.09888 270.546056 
L 75.456 269.770039 
L 75.81312 267.602777 
L 76.17024 268.370419 
L 76.52736 267.159498 
L 76.88448 266.67379 
L 77.2416 265.662178 
L 77.59872 266.197573 
L 77.95584 266.413629 
L 78.31296 265.578993 
L 79.0272 264.686854 
L 79.38432 262.519591 
L 79.74144 261.68663 
L 80.09856 262.179595 
L 80.45568 261.339935 
L 80.8128 261.709519 
L 81.16992 259.786786 
L 81.52704 258.721578 
L 81.88416 259.724816 
L 82.24128 257.678701 
L 82.95552 258.123654 
L 83.31264 257.077986 
L 83.66976 257.518473 
L 84.02688 254.83368 
L 84.384 256.155699 
L 84.74112 255.309339 
L 85.09824 255.926244 
L 85.45536 254.341831 
L 85.81248 254.005185 
L 86.88384 251.198128 
L 87.24096 250.340044 
L 87.59808 249.186068 
L 87.9552 248.595403 
L 88.31232 249.623764 
L 88.66944 247.574299 
L 89.02656 247.780865 
L 89.38368 248.770146 
L 90.09792 246.96521 
L 90.45504 246.882584 
L 90.81216 244.931378 
L 91.5264 244.537787 
L 91.88352 245.08379 
L 92.24064 243.950471 
L 92.59776 242.112038 
L 92.95488 242.389506 
L 93.312 244.024723 
L 93.66912 240.784994 
L 94.02624 242.302972 
L 94.38336 242.332002 
L 94.74048 241.794374 
L 95.0976 238.544596 
L 95.45472 238.647321 
L 95.81184 237.487204 
L 96.16896 237.581555 
L 96.52608 235.213309 
L 96.8832 235.953595 
L 97.24032 237.099196 
L 97.59744 236.135038 
L 97.95456 233.498258 
L 98.31168 235.840822 
L 98.6688 236.018915 
L 99.02592 233.33468 
L 99.38304 231.537002 
L 99.74016 233.517239 
L 100.09728 233.787449 
L 100.4544 233.058329 
L 101.16864 229.892294 
L 101.52576 227.658037 
L 101.88288 231.265117 
L 102.24 231.069717 
L 102.59712 227.926014 
L 102.95424 227.38057 
L 103.31136 227.915407 
L 103.66848 228.890731 
L 104.0256 224.077197 
L 104.38272 225.909488 
L 104.73984 225.390283 
L 105.09696 222.656361 
L 105.45408 224.63939 
L 105.8112 224.744906 
L 106.16832 221.304753 
L 106.52544 224.438407 
L 106.88256 223.463083 
L 107.23968 220.460068 
L 107.5968 220.628112 
L 107.95392 217.929361 
L 108.31104 219.00741 
L 108.66816 217.408481 
L 109.02528 216.898209 
L 109.3824 215.249593 
L 109.73952 216.152898 
L 110.09664 218.989545 
L 110.45376 218.922551 
L 111.168 214.064354 
L 111.52512 211.818931 
L 111.88224 216.797159 
L 112.23936 213.639499 
L 112.59648 214.148097 
L 112.9536 210.309328 
L 113.66784 214.424448 
L 114.02496 208.693651 
L 114.38208 211.732397 
L 114.7392 212.665291 
L 115.45344 207.82496 
L 115.81056 210.458949 
L 116.16768 206.184718 
L 116.5248 209.925228 
L 116.88192 209.351311 
L 117.23904 205.024602 
L 117.59616 208.096845 
L 117.95328 204.535544 
L 118.3104 203.648987 
L 118.66752 202.016003 
L 119.02464 202.179023 
L 119.38176 205.290904 
L 120.096 199.618727 
L 120.45312 198.600415 
L 120.81024 203.497692 
L 121.16736 198.404457 
L 121.8816 196.98418 
L 122.23872 195.94577 
L 122.59584 198.117499 
L 122.95296 197.314685 
L 123.31008 199.795704 
L 123.6672 196.698896 
L 124.02432 195.136815 
L 124.38144 196.32652 
L 124.73856 198.327972 
L 125.09568 193.288333 
L 125.4528 193.910262 
L 126.16704 191.117162 
L 126.52416 190.292017 
L 126.88128 193.330204 
L 127.2384 194.61426 
L 127.59552 188.242552 
L 127.95264 186.884245 
L 128.30976 191.212629 
L 128.66688 190.869842 
L 129.024 184.690743 
L 129.38112 186.907134 
L 129.73824 185.471783 
L 130.09536 187.637929 
L 130.45248 185.780515 
L 130.8096 185.857 
L 131.16672 183.967205 
L 131.52384 187.508407 
L 131.88096 182.871291 
L 132.23808 180.497463 
L 132.5952 183.621627 
L 132.95232 180.019013 
L 133.30944 182.584333 
L 133.66656 182.989648 
L 134.02368 181.112693 
L 134.3808 179.987749 
L 134.73792 175.455032 
L 135.09504 180.892729 
L 135.45216 181.401327 
L 135.80928 179.994448 
L 136.1664 179.963184 
L 136.52352 174.149762 
L 136.88064 175.194872 
L 137.23776 175.870396 
L 137.59488 175.813451 
L 137.952 176.621848 
L 138.30912 171.286876 
L 138.66624 176.962402 
L 139.02336 177.114814 
L 139.38048 177.00539 
L 139.7376 173.159922 
L 140.09472 171.89429 
L 140.45184 173.660146 
L 140.80896 171.520797 
L 141.16608 172.714969 
L 141.5232 166.512422 
L 141.88032 166.136696 
L 142.23744 172.217537 
L 142.59456 163.910255 
L 142.95168 167.315236 
L 143.3088 165.716866 
L 143.66592 162.440849 
L 144.02304 170.375755 
L 144.38016 170.447215 
L 144.73728 162.97122 
L 145.0944 167.537992 
L 145.45152 168.623298 
L 145.80864 167.747907 
L 146.16576 162.207486 
L 146.52288 165.457821 
L 146.88 166.534195 
L 147.23712 162.24824 
L 147.59424 164.254717 
L 147.95136 161.507954 
L 148.30848 167.582096 
L 148.6656 158.629437 
L 149.02272 160.243997 
L 149.37984 164.921309 
L 149.73696 158.923653 
L 150.09408 160.231156 
L 150.4512 159.620393 
L 150.80832 160.625306 
L 151.16544 159.996118 
L 151.52256 165.88156 
L 151.87968 161.798263 
L 152.2368 163.926445 
L 152.59392 155.803956 
L 152.95104 164.794579 
L 153.30816 163.090693 
L 153.66528 164.332319 
L 154.0224 157.031625 
L 154.37952 157.279503 
L 154.73664 155.348953 
L 155.09376 159.977137 
L 155.45088 155.729704 
L 155.808 162.387812 
L 156.52224 154.515434 
L 156.87936 162.378321 
L 157.23648 159.139151 
L 157.5936 161.855208 
L 157.95072 153.830418 
L 158.30784 157.244331 
L 158.66496 159.570705 
L 159.02208 159.752706 
L 159.3792 155.878766 
L 159.73632 153.949891 
L 160.09344 155.092142 
L 160.45056 159.593595 
L 160.80768 160.088235 
L 161.1648 155.762643 
L 161.52192 158.512197 
L 161.87904 155.308199 
L 162.23616 154.902325 
L 162.59328 149.941404 
L 162.9504 152.785308 
L 163.30752 158.067243 
L 163.66464 149.403217 
L 164.02176 154.800717 
L 164.37888 157.859003 
L 164.736 158.412264 
L 165.09312 153.392164 
L 165.45024 156.122178 
L 165.80736 151.190288 
L 166.5216 153.952124 
L 166.87872 147.254936 
L 167.23584 153.471999 
L 167.59296 153.007506 
L 167.95008 149.261413 
L 168.3072 154.691852 
L 168.66432 152.873517 
L 169.02144 148.250917 
L 169.37856 152.756836 
L 169.73568 152.219766 
L 170.0928 146.468871 
L 170.44992 145.351742 
L 170.80704 154.706926 
L 171.16416 144.469094 
L 171.52128 150.35286 
L 171.8784 152.826063 
L 172.23552 144.604199 
L 172.59264 153.685822 
L 172.94976 152.082427 
L 173.30688 145.059759 
L 173.664 143.013086 
L 174.02112 146.575503 
L 174.37824 153.167734 
L 174.73536 147.845044 
L 175.09248 148.629434 
L 175.4496 152.038323 
L 175.80672 146.781511 
L 176.16384 147.959492 
L 176.52096 148.523918 
L 176.87808 142.908687 
L 177.59232 147.002033 
L 177.94944 143.608218 
L 178.30656 143.085105 
L 178.66368 149.121842 
L 179.0208 143.075614 
L 179.37792 147.444195 
L 179.73504 143.145958 
L 180.09216 140.845265 
L 180.44928 143.187271 
L 180.8064 143.104645 
L 181.16352 138.716524 
L 181.52064 142.379433 
L 181.87776 144.163712 
L 182.23488 138.646739 
L 182.592 139.469651 
L 182.94912 144.240755 
L 183.30624 146.328741 
L 183.66336 141.023358 
L 184.02048 137.540776 
L 184.3776 138.96217 
L 184.73472 138.157681 
L 185.09184 143.123627 
L 185.44896 145.017888 
L 185.80608 137.214737 
L 186.1632 138.513867 
L 186.52032 138.223559 
L 186.87744 138.113576 
L 187.23456 146.437607 
L 187.59168 140.979812 
L 187.9488 144.966526 
L 188.30592 145.972555 
L 188.66304 145.231153 
L 189.02016 138.312326 
L 189.37728 135.613576 
L 189.7344 144.031398 
L 190.44864 138.154889 
L 190.80576 140.122286 
L 191.16288 139.771683 
L 191.52 142.944417 
L 191.87712 141.912706 
L 192.23424 134.158127 
L 192.59136 133.595933 
L 192.94848 143.010853 
L 193.3056 143.296137 
L 193.66272 133.134232 
L 194.01984 132.812659 
L 194.37696 142.318021 
L 195.0912 135.653214 
L 195.44832 140.785529 
L 195.80544 131.804955 
L 196.16256 134.029721 
L 196.51968 138.820365 
L 196.8768 138.995108 
L 197.23392 130.776594 
L 197.59104 130.745888 
L 197.94816 132.47378 
L 198.30528 132.900869 
L 198.6624 140.594595 
L 199.01952 140.740866 
L 199.37664 130.838005 
L 199.73376 132.648524 
L 200.09088 131.30194 
L 200.448 137.831084 
L 200.80512 135.267439 
L 201.16224 138.385461 
L 201.51936 136.065228 
L 201.87648 136.060204 
L 202.2336 132.001471 
L 202.59072 130.613016 
L 202.94784 132.30462 
L 203.30496 127.13155 
L 203.66208 130.126192 
L 204.0192 134.2776 
L 204.37632 132.95893 
L 204.73344 137.443634 
L 205.09056 130.349506 
L 205.44768 128.227464 
L 205.8048 127.125409 
L 206.16192 130.766545 
L 206.51904 133.019783 
L 206.87616 132.315227 
L 207.23328 127.029943 
L 207.5904 125.050264 
L 207.94752 132.114245 
L 208.30464 135.091021 
L 208.66176 136.465519 
L 209.376 126.482823 
L 209.73312 135.261298 
L 210.09024 128.325164 
L 210.44736 134.167617 
L 210.80448 126.891488 
L 211.1616 133.398301 
L 211.51872 132.196313 
L 211.87584 133.464178 
L 212.23296 125.566677 
L 212.59008 131.056295 
L 212.9472 133.568019 
L 213.30432 133.88345 
L 213.66144 124.229026 
L 214.01856 122.465404 
L 214.37568 122.18682 
L 214.7328 133.728805 
L 215.08992 125.089902 
L 215.44704 129.98997 
L 215.80416 123.952675 
L 216.16128 129.401538 
L 216.5184 122.641264 
L 216.87552 128.198992 
L 217.23264 130.817349 
L 217.58976 120.779941 
L 217.94688 120.256828 
L 218.304 129.29993 
L 218.66112 131.511855 
L 219.01824 131.110448 
L 219.37536 128.31009 
L 219.73248 121.211495 
L 220.0896 121.605645 
L 220.44672 118.950999 
L 220.80384 130.215517 
L 221.16096 130.210493 
L 221.51808 124.674538 
L 221.8752 123.695306 
L 222.23232 123.636128 
L 222.58944 120.610781 
L 222.94656 119.339566 
L 223.30368 127.158906 
L 223.6608 127.180121 
L 224.01792 120.682799 
L 224.37504 126.209264 
L 224.73216 120.778825 
L 225.08928 120.470093 
L 225.4464 127.908683 
L 225.80352 123.836552 
L 226.16064 124.072148 
L 226.51776 123.565784 
L 226.87488 122.541889 
L 227.232 116.484496 
L 227.58912 122.58711 
L 227.94624 120.007275 
L 228.30336 122.697092 
L 228.66048 118.632777 
L 229.0176 123.455243 
L 229.37472 116.443741 
L 229.73184 122.835547 
L 230.08896 121.807186 
L 230.44608 118.680231 
L 230.8032 122.597717 
L 231.16032 118.499347 
L 231.87456 125.999348 
L 232.23168 125.71239 
L 232.5888 124.057633 
L 232.94592 119.944747 
L 233.30304 123.532287 
L 233.66016 120.284184 
L 234.01728 113.619935 
L 234.3744 117.314666 
L 234.73152 116.918841 
L 235.08864 112.678666 
L 235.44576 124.541666 
L 235.80288 116.850731 
L 236.16 121.468307 
L 236.51712 113.285522 
L 236.87424 113.945415 
L 237.23136 120.590124 
L 237.9456 112.544678 
L 238.30272 123.894614 
L 238.65984 112.045013 
L 239.01696 115.51308 
L 239.37408 113.052717 
L 239.7312 121.518552 
L 240.08832 113.544566 
L 240.44544 116.207028 
L 240.80256 120.059195 
L 241.15968 118.794121 
L 241.5168 112.072927 
L 241.87392 118.544568 
L 242.23104 116.832307 
L 242.58816 109.282618 
L 242.94528 112.339229 
L 243.3024 111.012185 
L 243.65952 110.260175 
L 244.37376 114.506492 
L 244.73088 108.235834 
L 245.088 120.12284 
L 245.44512 115.466742 
L 245.80224 117.484384 
L 246.15936 120.824046 
L 246.8736 108.514418 
L 247.23072 109.834204 
L 247.58784 117.426323 
L 247.94496 117.881883 
L 248.30208 114.642155 
L 248.6592 117.510065 
L 249.01632 118.843808 
L 249.37344 106.474444 
L 249.73056 112.042221 
L 250.08768 113.216295 
L 250.4448 110.585655 
L 250.80192 109.93637 
L 251.15904 111.846263 
L 251.51616 109.876633 
L 251.87328 112.484383 
L 252.2304 116.51241 
L 252.94464 105.371273 
L 253.30176 113.141485 
L 253.65888 112.654102 
L 254.016 105.392488 
L 254.37312 113.382664 
L 254.73024 108.932573 
L 255.08736 113.30897 
L 255.8016 115.16136 
L 256.15872 105.28418 
L 256.51584 116.090346 
L 256.87296 109.047022 
L 257.23008 105.572255 
L 257.5872 106.295793 
L 257.94432 104.639919 
L 258.30144 105.594587 
L 258.65856 105.413144 
L 259.01568 108.55294 
L 259.3728 113.433468 
L 259.72992 108.10017 
L 260.08704 107.690947 
L 260.44416 109.497 
L 260.80128 108.095704 
L 261.1584 101.546462 
L 261.51552 101.663702 
L 261.87264 108.966629 
L 262.22976 106.44318 
L 262.58688 110.811761 
L 262.944 104.788981 
L 263.30112 102.203563 
L 263.65824 109.6857 
L 264.01536 111.085321 
L 264.37248 108.70591 
L 264.7296 105.321585 
L 265.08672 106.502917 
L 265.44384 105.283064 
L 265.80096 109.215066 
L 266.15808 106.414708 
L 266.5152 112.321364 
L 266.87232 112.095258 
L 267.22944 99.176542 
L 267.58656 111.33934 
L 267.94368 100.472321 
L 268.3008 108.082863 
L 268.65792 108.268772 
L 269.01504 111.719532 
L 269.37216 104.643269 
L 269.72928 101.269552 
L 270.0864 111.74968 
L 270.44352 98.155996 
L 270.80064 106.92833 
L 271.15776 107.005932 
L 271.51488 106.764194 
L 271.872 98.818123 
L 272.22912 103.817565 
L 272.58624 101.304166 
L 272.94336 103.010285 
L 273.30048 97.690945 
L 273.6576 102.244318 
L 274.01472 100.436591 
L 274.37184 105.585096 
L 274.72896 104.854301 
L 275.08608 107.957249 
L 275.4432 99.359101 
L 275.80032 104.381992 
L 276.15744 101.925537 
L 276.51456 101.514081 
L 276.87168 97.354299 
L 277.2288 104.160911 
L 277.58592 107.518996 
L 277.94304 100.837998 
L 278.30016 97.385563 
L 278.65728 104.676766 
L 279.0144 100.842464 
L 279.37152 98.794675 
L 279.72864 94.542775 
L 280.08576 103.490969 
L 280.44288 96.749676 
L 280.8 97.141592 
L 281.15712 97.251575 
L 281.87136 104.217298 
L 282.22848 103.595368 
L 282.5856 96.744652 
L 282.94272 103.514975 
L 283.29984 99.440052 
L 283.65696 105.340009 
L 284.01408 99.512071 
L 284.3712 101.291884 
L 284.72832 105.240076 
L 285.08544 98.631655 
L 285.44256 100.971986 
L 285.79968 95.080962 
L 286.1568 94.366357 
L 286.87104 104.618146 
L 287.22816 103.909124 
L 287.58528 104.788981 
L 287.9424 96.81667 
L 288.29952 101.936703 
L 288.65664 94.125178 
L 289.01376 101.203116 
L 289.37088 104.024131 
L 289.728 93.814213 
L 290.08512 96.016648 
L 290.44224 95.890476 
L 290.79936 93.331855 
L 291.15648 92.98851 
L 291.5136 98.844362 
L 291.87072 95.317117 
L 292.22784 103.737172 
L 292.58496 90.777142 
L 292.94208 91.487839 
L 293.2992 102.091906 
L 293.65632 102.680897 
L 294.01344 101.649186 
L 294.72768 95.784401 
L 295.0848 92.875736 
L 295.44192 91.473882 
L 295.79904 100.846931 
L 296.15616 96.760284 
L 296.51328 90.298134 
L 296.8704 88.848268 
L 297.22752 97.036077 
L 297.58464 91.349943 
L 297.94176 88.368701 
L 298.29888 95.170846 
L 298.656 95.414258 
L 299.01312 95.249564 
L 299.37024 98.796349 
L 299.72736 99.818011 
L 300.08448 88.098491 
L 300.4416 97.47433 
L 300.79872 91.481698 
L 301.15584 88.032055 
L 301.51296 99.097823 
L 301.87008 99.390923 
L 302.2272 90.596816 
L 302.58432 100.685028 
L 303.29856 94.790654 
L 303.65568 95.951887 
L 304.0128 97.836657 
L 304.36992 86.373948 
L 304.72704 90.113342 
L 305.08416 95.436031 
L 305.44128 88.867807 
L 305.7984 96.027814 
L 306.51264 87.129308 
L 306.86976 96.224888 
L 307.22688 86.590004 
L 307.584 97.07404 
L 307.94112 97.981253 
L 308.29824 93.655102 
L 308.65536 86.801036 
L 309.01248 97.236501 
L 309.3696 88.906887 
L 309.72672 84.536632 
L 310.08384 94.335093 
L 310.44096 91.03507 
L 310.79808 92.778594 
L 311.1552 93.437371 
L 311.51232 94.767764 
L 311.86944 87.135449 
L 312.22656 86.509053 
L 312.58368 94.065442 
L 312.9408 94.697979 
L 313.29792 87.318566 
L 313.65504 84.433349 
L 314.01216 88.144828 
L 314.36928 84.164256 
L 314.7264 93.858876 
L 315.08352 93.625513 
L 315.44064 82.127073 
L 316.15488 91.242752 
L 316.512 83.450209 
L 317.22624 94.91571 
L 317.58336 82.583192 
L 317.94048 82.209141 
L 318.2976 89.352399 
L 318.65472 93.775692 
L 319.01184 93.120823 
L 319.36896 82.972875 
L 319.72608 83.308405 
L 320.0832 80.290874 
L 320.44032 94.668948 
L 320.79744 80.008382 
L 321.15456 91.346035 
L 321.51168 91.960707 
L 321.8688 84.486386 
L 322.22592 80.49074 
L 322.58304 81.17743 
L 322.94016 88.283283 
L 323.29728 79.820239 
L 323.6544 83.698088 
L 324.01152 79.981026 
L 324.36864 90.76821 
L 324.72576 89.775021 
L 325.08288 85.279151 
L 325.44 84.191053 
L 325.79712 85.707914 
L 326.15424 90.413699 
L 326.51136 83.193956 
L 326.86848 79.935804 
L 327.2256 80.339445 
L 327.58272 90.92118 
L 327.93984 82.632321 
L 328.29696 84.982143 
L 328.65408 91.711153 
L 329.36832 80.325487 
L 329.72544 86.864681 
L 330.08256 79.361329 
L 330.43968 89.590228 
L 330.7968 78.795228 
L 331.15392 85.993756 
L 331.51104 80.94965 
L 331.86816 87.618365 
L 332.22528 87.094136 
L 332.5824 80.534844 
L 332.93952 84.766087 
L 333.29664 84.101169 
L 333.65376 90.990966 
L 334.01088 81.289087 
L 334.368 76.254473 
L 334.72512 88.432345 
L 335.08224 77.834419 
L 335.43936 90.490184 
L 335.79648 81.6302 
L 336.1536 82.154429 
L 336.51072 76.315884 
L 336.86784 82.585425 
L 337.22496 83.994537 
L 337.58208 79.590784 
L 337.9392 82.489959 
L 338.29632 80.688931 
L 338.65344 83.653983 
L 339.01056 78.38768 
L 340.08192 83.533952 
L 340.43904 81.401861 
L 340.79616 82.321915 
L 341.15328 85.003358 
L 341.5104 84.148624 
L 342.22464 73.431225 
L 342.58176 77.051704 
L 342.93888 75.582856 
L 343.296 82.741187 
L 343.65312 85.324372 
L 344.01024 84.796793 
L 344.72448 74.123498 
L 345.0816 72.916486 
L 345.43872 84.580178 
L 345.79584 87.236498 
L 346.15296 75.283615 
L 346.51008 83.229686 
L 346.8672 76.903758 
L 347.22432 84.434466 
L 347.58144 86.075824 
L 347.93856 86.743533 
L 348.29568 73.811975 
L 348.6528 86.113229 
L 349.00992 83.504921 
L 349.36704 71.924972 
L 349.72416 85.142929 
L 350.08128 73.994535 
L 350.4384 73.159898 
L 350.79552 81.296345 
L 351.15264 70.857531 
L 351.86688 80.841901 
L 352.58112 72.843909 
L 352.93824 81.93949 
L 353.29536 81.504027 
L 353.65248 81.384554 
L 354.36672 71.783167 
L 354.72384 78.551257 
L 355.08096 76.000453 
L 355.43808 76.420283 
L 355.7952 77.635112 
L 356.15232 73.728791 
L 356.50944 74.291542 
L 356.86656 83.852174 
L 357.22368 76.741855 
L 357.5808 72.73281 
L 357.93792 75.67274 
L 358.29504 72.297906 
L 358.65216 75.512512 
L 359.00928 75.504696 
L 359.3664 71.630197 
L 359.72352 80.491856 
L 360.08064 72.05896 
L 360.43776 69.969857 
L 360.79488 77.643486 
L 361.152 69.918495 
L 361.50912 75.965281 
L 361.86624 70.25235 
L 362.22336 68.222983 
L 362.58048 74.791766 
L 362.9376 75.041877 
L 363.29472 68.226891 
L 363.65184 71.045115 
L 364.00896 77.981807 
L 364.36608 69.711371 
L 364.7232 75.897728 
L 365.08032 67.603287 
L 365.43744 78.38433 
L 365.79456 80.685023 
L 366.15168 72.172292 
L 366.5088 73.956013 
L 366.86592 68.934239 
L 367.22304 69.814654 
L 367.58016 81.45099 
L 367.93728 70.222202 
L 368.2944 74.725888 
L 368.65152 69.531604 
L 369.00864 79.652754 
L 369.36576 72.643485 
L 369.72288 76.023901 
L 370.08 76.798801 
L 370.43712 74.479684 
L 370.79424 74.979349 
L 371.15136 70.402528 
L 371.50848 70.804494 
L 371.8656 71.417491 
L 372.22272 73.996768 
L 372.57984 79.877185 
L 372.93696 65.83129 
L 373.29408 70.510277 
L 373.6512 68.749446 
L 374.00832 70.976445 
L 374.36544 64.833635 
L 374.72256 65.626958 
L 375.07968 77.34257 
L 375.4368 66.351612 
L 375.79392 74.897282 
L 376.15104 73.770662 
L 376.50816 66.617914 
L 376.86528 68.836539 
L 377.2224 65.091562 
L 377.57952 67.540759 
L 377.93664 71.219299 
L 378.29376 65.39192 
L 378.65088 77.309073 
L 379.36512 62.105854 
L 379.72224 63.610432 
L 380.07936 67.182898 
L 380.43648 67.296788 
L 380.7936 67.163917 
L 381.15072 67.869031 
L 381.50784 68.920281 
L 381.86496 61.375617 
L 382.22208 63.082853 
L 382.5792 76.735714 
L 382.93632 67.933792 
L 383.29344 66.287409 
L 383.65056 67.687588 
L 384.00768 68.08397 
L 384.3648 72.766866 
L 384.72192 65.396944 
L 385.07904 71.205342 
L 385.43616 69.67285 
L 385.79328 62.441383 
L 386.1504 75.9396 
L 386.50752 72.886897 
L 386.86464 64.357976 
L 387.22176 62.108087 
L 387.57888 75.613561 
L 387.936 68.830398 
L 388.29312 64.642701 
L 388.65024 66.483367 
L 389.36448 73.272114 
L 389.7216 63.570236 
L 390.07872 62.492745 
L 390.43584 64.088324 
L 390.79296 58.690824 
L 391.15008 67.283948 
L 391.5072 66.173519 
L 391.86432 61.103174 
L 392.22144 65.731357 
L 392.93568 62.557506 
L 393.2928 64.759383 
L 393.64992 59.545 
L 394.00704 62.598819 
L 394.36416 72.328612 
L 394.72128 71.517982 
L 395.0784 68.452439 
L 395.43552 69.594132 
L 395.79264 65.958021 
L 396.14976 58.640578 
L 396.50688 71.922739 
L 396.864 61.405764 
L 397.22112 68.875619 
L 397.57824 73.102395 
L 398.29248 67.958356 
L 398.6496 62.968963 
L 399.00672 64.785622 
L 399.36384 60.211034 
L 399.72096 70.590112 
L 400.07808 64.334528 
L 400.4352 65.231134 
L 400.79232 71.742971 
L 401.14944 68.792992 
L 401.50656 71.812757 
L 401.86368 62.567556 
L 402.2208 62.944398 
L 402.57792 56.483923 
L 403.29216 66.790982 
L 403.64928 61.639686 
L 404.0064 64.143594 
L 404.36352 59.611994 
L 404.72064 67.553041 
L 405.07776 69.132988 
L 405.792 54.753239 
L 406.14912 66.730129 
L 406.50624 58.146496 
L 406.86336 68.425083 
L 407.22048 58.024232 
L 407.5776 54.897835 
L 407.93472 65.442724 
L 408.29184 60.97756 
L 408.64896 68.464163 
L 409.00608 55.329389 
L 409.3632 58.797456 
L 409.72032 60.214942 
L 410.43456 69.509272 
L 410.79168 62.927091 
L 411.1488 64.960924 
L 411.50592 62.488837 
L 411.86304 63.111883 
L 412.22016 61.947859 
L 412.57728 54.328384 
L 412.9344 53.60373 
L 413.29152 58.196183 
L 413.64864 53.568 
L 414.00576 56.151185 
L 414.36288 56.365008 
L 414.72 68.715949 
L 414.72 68.715949 
" style="fill:none;stroke:#000080;stroke-linecap:square;stroke-width:0.5;"/>
   </g>
   <g id="patch_3">
    <path d="M 57.6 307.584 
L 57.6 41.472 
" style="fill:none;stroke:#000000;stroke-linecap:square;stroke-linejoin:miter;stroke-width:0.8;"/>
   </g>
   <g id="patch_4">
    <path d="M 414.72 307.584 
L 414.72 41.472 
" style="fill:none;stroke:#000000;stroke-linecap:square;stroke-linejoin:miter;stroke-width:0.8;"/>
   </g>
   <g id="patch_5">
    <path d="M 57.6 307.584 
L 414.72 307.584 
" style="fill:none;stroke:#000000;stroke-linecap:square;stroke-linejoin:miter;stroke-width:0.8;"/>
   </g>
   <g id="patch_6">
    <path d="M 57.6 41.472 
L 414.72 41.472 
" style="fill:none;stroke:#000000;stroke-linecap:square;stroke-linejoin:miter;stroke-width:0.8;"/>
   </g>
   <g id="text_14">
    <!-- Test -->
    <defs>
     <path d="M -0.296875 72.90625 
L 61.375 72.90625 
L 61.375 64.59375 
L 35.5 64.59375 
L 35.5 0 
L 25.59375 0 
L 25.59375 64.59375 
L -0.296875 64.59375 
z
" id="DejaVuSans-54"/>
    </defs>
    <g transform="translate(223.341563 35.472)scale(0.12 -0.12)">
     <use xlink:href="#DejaVuSans-54"/>
     <use x="60.818359" xlink:href="#DejaVuSans-65"/>
     <use x="122.341797" xlink:href="#DejaVuSans-73"/>
     <use x="174.441406" xlink:href="#DejaVuSans-74"/>
    </g>
   </g>
   <g id="legend_1">
    <g id="patch_7">
     <path d="M 64.6 64.150125 
L 306.276563 64.150125 
Q 308.276563 64.150125 308.276563 62.150125 
L 308.276563 48.472 
Q 308.276563 46.472 306.276563 46.472 
L 64.6 46.472 
Q 62.6 46.472 62.6 48.472 
L 62.6 62.150125 
Q 62.6 64.150125 64.6 64.150125 
z
" style="fill:#ffffff;opacity:0.8;stroke:#cccccc;stroke-linejoin:miter;"/>
    </g>
    <g id="line2d_24">
     <path d="M 66.6 54.570438 
L 86.6 54.570438 
" style="fill:none;stroke:#000080;stroke-linecap:square;stroke-width:0.5;"/>
    </g>
    <g id="line2d_25"/>
    <g id="text_15">
     <!-- Successful download requests per second -->
     <g transform="translate(94.6 58.070438)scale(0.1 -0.1)">
      <use xlink:href="#DejaVuSans-53"/>
      <use x="63.476562" xlink:href="#DejaVuSans-75"/>
      <use x="126.855469" xlink:href="#DejaVuSans-63"/>
      <use x="181.835938" xlink:href="#DejaVuSans-63"/>
      <use x="236.816406" xlink:href="#DejaVuSans-65"/>
      <use x="298.339844" xlink:href="#DejaVuSans-73"/>
      <use x="350.439453" xlink:href="#DejaVuSans-73"/>
      <use x="402.539062" xlink:href="#DejaVuSans-66"/>
      <use x="437.744141" xlink:href="#DejaVuSans-75"/>
      <use x="501.123047" xlink:href="#DejaVuSans-6c"/>
      <use x="528.90625" xlink:href="#DejaVuSans-20"/>
      <use x="560.693359" xlink:href="#DejaVuSans-64"/>
      <use x="624.169922" xlink:href="#DejaVuSans-6f"/>
      <use x="685.351562" xlink:href="#DejaVuSans-77"/>
      <use x="767.138672" xlink:href="#DejaVuSans-6e"/>
      <use x="830.517578" xlink:href="#DejaVuSans-6c"/>
      <use x="858.300781" xlink:href="#DejaVuSans-6f"/>
      <use x="919.482422" xlink:href="#DejaVuSans-61"/>
      <use x="980.761719" xlink:href="#DejaVuSans-64"/>
      <use x="1044.238281" xlink:href="#DejaVuSans-20"/>
      <use x="1076.025391" xlink:href="#DejaVuSans-72"/>
      <use x="1117.107422" xlink:href="#DejaVuSans-65"/>
      <use x="1178.630859" xlink:href="#DejaVuSans-71"/>
      <use x="1242.107422" xlink:href="#DejaVuSans-75"/>
      <use x="1305.486328" xlink:href="#DejaVuSans-65"/>
      <use x="1367.009766" xlink:href="#DejaVuSans-73"/>
      <use x="1419.109375" xlink:href="#DejaVuSans-74"/>
      <use x="1458.318359" xlink:href="#DejaVuSans-73"/>
      <use x="1510.417969" xlink:href="#DejaVuSans-20"/>
      <use x="1542.205078" xlink:href="#DejaVuSans-70"/>
      <use x="1605.681641" xlink:href="#DejaVuSans-65"/>
      <use x="1667.205078" xlink:href="#DejaVuSans-72"/>
      <use x="1708.318359" xlink:href="#DejaVuSans-20"/>
      <use x="1740.105469" xlink:href="#DejaVuSans-73"/>
      <use x="1792.205078" xlink:href="#DejaVuSans-65"/>
      <use x="1853.728516" xlink:href="#DejaVuSans-63"/>
      <use x="1908.708984" xlink:href="#DejaVuSans-6f"/>
      <use x="1969.890625" xlink:href="#DejaVuSans-6e"/>
      <use x="2033.269531" xlink:href="#DejaVuSans-64"/>
     </g>
    </g>
   </g>
  </g>
 </g>
 <defs>
  <clipPath id="p6d2745ea29">
   <rect height="266.112" width="357.12" x="57.6" y="41.472"/>
  </clipPath>
 </defs>
</svg>
