<?xml version="1.0" encoding="utf-8" standalone="no"?>
<!DOCTYPE svg PUBLIC "-//W3C//DTD SVG 1.1//EN"
  "http://www.w3.org/Graphics/SVG/1.1/DTD/svg11.dtd">
<!-- Created with matplotlib (http://matplotlib.org/) -->
<svg height="345pt" version="1.1" viewBox="0 0 460 345" width="460pt" xmlns="http://www.w3.org/2000/svg" xmlns:xlink="http://www.w3.org/1999/xlink">
 <defs>
  <style type="text/css">
*{stroke-linecap:butt;stroke-linejoin:round;}
  </style>
 </defs>
 <g id="figure_1">
  <g id="patch_1">
   <path d="M 0 345.6 
L 460.8 345.6 
L 460.8 0 
L 0 0 
z
" style="fill:#ffffff;"/>
  </g>
  <g id="axes_1">
   <g id="patch_2">
    <path d="M 57.6 307.584 
L 414.72 307.584 
L 414.72 41.472 
L 57.6 41.472 
z
" style="fill:#ffffff;"/>
   </g>
   <g id="matplotlib.axis_1">
    <g id="xtick_1">
     <g id="line2d_1">
      <path clip-path="url(#p4f5a3d96f7)" d="M 57.6 307.584 
L 57.6 41.472 
" style="fill:none;stroke:#b0b0b0;stroke-linecap:square;stroke-width:0.8;"/>
     </g>
     <g id="line2d_2">
      <defs>
       <path d="M 0 0 
L 0 3.5 
" id="m376ca20a6b" style="stroke:#000000;stroke-width:0.8;"/>
      </defs>
      <g>
       <use style="stroke:#000000;stroke-width:0.8;" x="57.6" xlink:href="#m376ca20a6b" y="307.584"/>
      </g>
     </g>
     <g id="text_1">
      <!-- 0 -->
      <defs>
       <path d="M 31.78125 66.40625 
Q 24.171875 66.40625 20.328125 58.90625 
Q 16.5 51.421875 16.5 36.375 
Q 16.5 21.390625 20.328125 13.890625 
Q 24.171875 6.390625 31.78125 6.390625 
Q 39.453125 6.390625 43.28125 13.890625 
Q 47.125 21.390625 47.125 36.375 
Q 47.125 51.421875 43.28125 58.90625 
Q 39.453125 66.40625 31.78125 66.40625 
M 31.78125 74.21875 
Q 44.046875 74.21875 50.515625 64.515625 
Q 56.984375 54.828125 56.984375 36.375 
Q 56.984375 17.96875 50.515625 8.265625 
Q 44.046875 -1.421875 31.78125 -1.421875 
Q 19.53125 -1.421875 13.0625 8.265625 
Q 6.59375 17.96875 6.59375 36.375 
Q 6.59375 54.828125 13.0625 64.515625 
Q 19.53125 74.21875 31.78125 74.21875 
" id="DejaVuSans-30"/>
      </defs>
      <g transform="translate(54.41875 322.182437)scale(0.1 -0.1)">
       <use xlink:href="#DejaVuSans-30"/>
      </g>
     </g>
    </g>
    <g id="xtick_2">
     <g id="line2d_3">
      <path clip-path="url(#p4f5a3d96f7)" d="M 129.024 307.584 
L 129.024 41.472 
" style="fill:none;stroke:#b0b0b0;stroke-linecap:square;stroke-width:0.8;"/>
     </g>
     <g id="line2d_4">
      <g>
       <use style="stroke:#000000;stroke-width:0.8;" x="129.024" xlink:href="#m376ca20a6b" y="307.584"/>
      </g>
     </g>
     <g id="text_2">
      <!-- 200 -->
      <defs>
       <path d="M 19.1875 8.296875 
L 53.609375 8.296875 
L 53.609375 0 
L 7.328125 0 
L 7.328125 8.296875 
Q 12.9375 14.109375 22.625 23.890625 
Q 32.328125 33.6875 34.8125 36.53125 
Q 39.546875 41.84375 41.421875 45.53125 
Q 43.3125 49.21875 43.3125 52.78125 
Q 43.3125 58.59375 39.234375 62.25 
Q 35.15625 65.921875 28.609375 65.921875 
Q 23.96875 65.921875 18.8125 64.3125 
Q 13.671875 62.703125 7.8125 59.421875 
L 7.8125 69.390625 
Q 13.765625 71.78125 18.9375 73 
Q 24.125 74.21875 28.421875 74.21875 
Q 39.75 74.21875 46.484375 68.546875 
Q 53.21875 62.890625 53.21875 53.421875 
Q 53.21875 48.921875 51.53125 44.890625 
Q 49.859375 40.875 45.40625 35.40625 
Q 44.1875 33.984375 37.640625 27.21875 
Q 31.109375 20.453125 19.1875 8.296875 
" id="DejaVuSans-32"/>
      </defs>
      <g transform="translate(119.48025 322.182437)scale(0.1 -0.1)">
       <use xlink:href="#DejaVuSans-32"/>
       <use x="63.623047" xlink:href="#DejaVuSans-30"/>
       <use x="127.246094" xlink:href="#DejaVuSans-30"/>
      </g>
     </g>
    </g>
    <g id="xtick_3">
     <g id="line2d_5">
      <path clip-path="url(#p4f5a3d96f7)" d="M 200.448 307.584 
L 200.448 41.472 
" style="fill:none;stroke:#b0b0b0;stroke-linecap:square;stroke-width:0.8;"/>
     </g>
     <g id="line2d_6">
      <g>
       <use style="stroke:#000000;stroke-width:0.8;" x="200.448" xlink:href="#m376ca20a6b" y="307.584"/>
      </g>
     </g>
     <g id="text_3">
      <!-- 400 -->
      <defs>
       <path d="M 37.796875 64.3125 
L 12.890625 25.390625 
L 37.796875 25.390625 
z
M 35.203125 72.90625 
L 47.609375 72.90625 
L 47.609375 25.390625 
L 58.015625 25.390625 
L 58.015625 17.1875 
L 47.609375 17.1875 
L 47.609375 0 
L 37.796875 0 
L 37.796875 17.1875 
L 4.890625 17.1875 
L 4.890625 26.703125 
z
" id="DejaVuSans-34"/>
      </defs>
      <g transform="translate(190.90425 322.182437)scale(0.1 -0.1)">
       <use xlink:href="#DejaVuSans-34"/>
       <use x="63.623047" xlink:href="#DejaVuSans-30"/>
       <use x="127.246094" xlink:href="#DejaVuSans-30"/>
      </g>
     </g>
    </g>
    <g id="xtick_4">
     <g id="line2d_7">
      <path clip-path="url(#p4f5a3d96f7)" d="M 271.872 307.584 
L 271.872 41.472 
" style="fill:none;stroke:#b0b0b0;stroke-linecap:square;stroke-width:0.8;"/>
     </g>
     <g id="line2d_8">
      <g>
       <use style="stroke:#000000;stroke-width:0.8;" x="271.872" xlink:href="#m376ca20a6b" y="307.584"/>
      </g>
     </g>
     <g id="text_4">
      <!-- 600 -->
      <defs>
       <path d="M 33.015625 40.375 
Q 26.375 40.375 22.484375 35.828125 
Q 18.609375 31.296875 18.609375 23.390625 
Q 18.609375 15.53125 22.484375 10.953125 
Q 26.375 6.390625 33.015625 6.390625 
Q 39.65625 6.390625 43.53125 10.953125 
Q 47.40625 15.53125 47.40625 23.390625 
Q 47.40625 31.296875 43.53125 35.828125 
Q 39.65625 40.375 33.015625 40.375 
M 52.59375 71.296875 
L 52.59375 62.3125 
Q 48.875 64.0625 45.09375 64.984375 
Q 41.3125 65.921875 37.59375 65.921875 
Q 27.828125 65.921875 22.671875 59.328125 
Q 17.53125 52.734375 16.796875 39.40625 
Q 19.671875 43.65625 24.015625 45.921875 
Q 28.375 48.1875 33.59375 48.1875 
Q 44.578125 48.1875 50.953125 41.515625 
Q 57.328125 34.859375 57.328125 23.390625 
Q 57.328125 12.15625 50.6875 5.359375 
Q 44.046875 -1.421875 33.015625 -1.421875 
Q 20.359375 -1.421875 13.671875 8.265625 
Q 6.984375 17.96875 6.984375 36.375 
Q 6.984375 53.65625 15.1875 63.9375 
Q 23.390625 74.21875 37.203125 74.21875 
Q 40.921875 74.21875 44.703125 73.484375 
Q 48.484375 72.75 52.59375 71.296875 
" id="DejaVuSans-36"/>
      </defs>
      <g transform="translate(262.32825 322.182437)scale(0.1 -0.1)">
       <use xlink:href="#DejaVuSans-36"/>
       <use x="63.623047" xlink:href="#DejaVuSans-30"/>
       <use x="127.246094" xlink:href="#DejaVuSans-30"/>
      </g>
     </g>
    </g>
    <g id="xtick_5">
     <g id="line2d_9">
      <path clip-path="url(#p4f5a3d96f7)" d="M 343.296 307.584 
L 343.296 41.472 
" style="fill:none;stroke:#b0b0b0;stroke-linecap:square;stroke-width:0.8;"/>
     </g>
     <g id="line2d_10">
      <g>
       <use style="stroke:#000000;stroke-width:0.8;" x="343.296" xlink:href="#m376ca20a6b" y="307.584"/>
      </g>
     </g>
     <g id="text_5">
      <!-- 800 -->
      <defs>
       <path d="M 31.78125 34.625 
Q 24.75 34.625 20.71875 30.859375 
Q 16.703125 27.09375 16.703125 20.515625 
Q 16.703125 13.921875 20.71875 10.15625 
Q 24.75 6.390625 31.78125 6.390625 
Q 38.8125 6.390625 42.859375 10.171875 
Q 46.921875 13.96875 46.921875 20.515625 
Q 46.921875 27.09375 42.890625 30.859375 
Q 38.875 34.625 31.78125 34.625 
M 21.921875 38.8125 
Q 15.578125 40.375 12.03125 44.71875 
Q 8.5 49.078125 8.5 55.328125 
Q 8.5 64.0625 14.71875 69.140625 
Q 20.953125 74.21875 31.78125 74.21875 
Q 42.671875 74.21875 48.875 69.140625 
Q 55.078125 64.0625 55.078125 55.328125 
Q 55.078125 49.078125 51.53125 44.71875 
Q 48 40.375 41.703125 38.8125 
Q 48.828125 37.15625 52.796875 32.3125 
Q 56.78125 27.484375 56.78125 20.515625 
Q 56.78125 9.90625 50.3125 4.234375 
Q 43.84375 -1.421875 31.78125 -1.421875 
Q 19.734375 -1.421875 13.25 4.234375 
Q 6.78125 9.90625 6.78125 20.515625 
Q 6.78125 27.484375 10.78125 32.3125 
Q 14.796875 37.15625 21.921875 38.8125 
M 18.3125 54.390625 
Q 18.3125 48.734375 21.84375 45.5625 
Q 25.390625 42.390625 31.78125 42.390625 
Q 38.140625 42.390625 41.71875 45.5625 
Q 45.3125 48.734375 45.3125 54.390625 
Q 45.3125 60.0625 41.71875 63.234375 
Q 38.140625 66.40625 31.78125 66.40625 
Q 25.390625 66.40625 21.84375 63.234375 
Q 18.3125 60.0625 18.3125 54.390625 
" id="DejaVuSans-38"/>
      </defs>
      <g transform="translate(333.75225 322.182437)scale(0.1 -0.1)">
       <use xlink:href="#DejaVuSans-38"/>
       <use x="63.623047" xlink:href="#DejaVuSans-30"/>
       <use x="127.246094" xlink:href="#DejaVuSans-30"/>
      </g>
     </g>
    </g>
    <g id="xtick_6">
     <g id="line2d_11">
      <path clip-path="url(#p4f5a3d96f7)" d="M 414.72 307.584 
L 414.72 41.472 
" style="fill:none;stroke:#b0b0b0;stroke-linecap:square;stroke-width:0.8;"/>
     </g>
     <g id="line2d_12">
      <g>
       <use style="stroke:#000000;stroke-width:0.8;" x="414.72" xlink:href="#m376ca20a6b" y="307.584"/>
      </g>
     </g>
     <g id="text_6">
      <!-- 1000 -->
      <defs>
       <path d="M 12.40625 8.296875 
L 28.515625 8.296875 
L 28.515625 63.921875 
L 10.984375 60.40625 
L 10.984375 69.390625 
L 28.421875 72.90625 
L 38.28125 72.90625 
L 38.28125 8.296875 
L 54.390625 8.296875 
L 54.390625 0 
L 12.40625 0 
z
" id="DejaVuSans-31"/>
      </defs>
      <g transform="translate(401.995 322.182437)scale(0.1 -0.1)">
       <use xlink:href="#DejaVuSans-31"/>
       <use x="63.623047" xlink:href="#DejaVuSans-30"/>
       <use x="127.246094" xlink:href="#DejaVuSans-30"/>
       <use x="190.869141" xlink:href="#DejaVuSans-30"/>
      </g>
     </g>
    </g>
    <g id="text_7">
     <!-- Number of clients -->
     <defs>
      <path d="M 9.8125 72.90625 
L 23.09375 72.90625 
L 55.421875 11.921875 
L 55.421875 72.90625 
L 64.984375 72.90625 
L 64.984375 0 
L 51.703125 0 
L 19.390625 60.984375 
L 19.390625 0 
L 9.8125 0 
z
" id="DejaVuSans-4e"/>
      <path d="M 8.5 21.578125 
L 8.5 54.6875 
L 17.484375 54.6875 
L 17.484375 21.921875 
Q 17.484375 14.15625 20.5 10.265625 
Q 23.53125 6.390625 29.59375 6.390625 
Q 36.859375 6.390625 41.078125 11.03125 
Q 45.3125 15.671875 45.3125 23.6875 
L 45.3125 54.6875 
L 54.296875 54.6875 
L 54.296875 0 
L 45.3125 0 
L 45.3125 8.40625 
Q 42.046875 3.421875 37.71875 1 
Q 33.40625 -1.421875 27.6875 -1.421875 
Q 18.265625 -1.421875 13.375 4.4375 
Q 8.5 10.296875 8.5 21.578125 
M 31.109375 56 
z
" id="DejaVuSans-75"/>
      <path d="M 52 44.1875 
Q 55.375 50.25 60.0625 53.125 
Q 64.75 56 71.09375 56 
Q 79.640625 56 84.28125 50.015625 
Q 88.921875 44.046875 88.921875 33.015625 
L 88.921875 0 
L 79.890625 0 
L 79.890625 32.71875 
Q 79.890625 40.578125 77.09375 44.375 
Q 74.3125 48.1875 68.609375 48.1875 
Q 61.625 48.1875 57.5625 43.546875 
Q 53.515625 38.921875 53.515625 30.90625 
L 53.515625 0 
L 44.484375 0 
L 44.484375 32.71875 
Q 44.484375 40.625 41.703125 44.40625 
Q 38.921875 48.1875 33.109375 48.1875 
Q 26.21875 48.1875 22.15625 43.53125 
Q 18.109375 38.875 18.109375 30.90625 
L 18.109375 0 
L 9.078125 0 
L 9.078125 54.6875 
L 18.109375 54.6875 
L 18.109375 46.1875 
Q 21.1875 51.21875 25.484375 53.609375 
Q 29.78125 56 35.6875 56 
Q 41.65625 56 45.828125 52.96875 
Q 50 49.953125 52 44.1875 
" id="DejaVuSans-6d"/>
      <path d="M 48.6875 27.296875 
Q 48.6875 37.203125 44.609375 42.84375 
Q 40.53125 48.484375 33.40625 48.484375 
Q 26.265625 48.484375 22.1875 42.84375 
Q 18.109375 37.203125 18.109375 27.296875 
Q 18.109375 17.390625 22.1875 11.75 
Q 26.265625 6.109375 33.40625 6.109375 
Q 40.53125 6.109375 44.609375 11.75 
Q 48.6875 17.390625 48.6875 27.296875 
M 18.109375 46.390625 
Q 20.953125 51.265625 25.265625 53.625 
Q 29.59375 56 35.59375 56 
Q 45.5625 56 51.78125 48.09375 
Q 58.015625 40.1875 58.015625 27.296875 
Q 58.015625 14.40625 51.78125 6.484375 
Q 45.5625 -1.421875 35.59375 -1.421875 
Q 29.59375 -1.421875 25.265625 0.953125 
Q 20.953125 3.328125 18.109375 8.203125 
L 18.109375 0 
L 9.078125 0 
L 9.078125 75.984375 
L 18.109375 75.984375 
z
" id="DejaVuSans-62"/>
      <path d="M 56.203125 29.59375 
L 56.203125 25.203125 
L 14.890625 25.203125 
Q 15.484375 15.921875 20.484375 11.0625 
Q 25.484375 6.203125 34.421875 6.203125 
Q 39.59375 6.203125 44.453125 7.46875 
Q 49.3125 8.734375 54.109375 11.28125 
L 54.109375 2.78125 
Q 49.265625 0.734375 44.1875 -0.34375 
Q 39.109375 -1.421875 33.890625 -1.421875 
Q 20.796875 -1.421875 13.15625 6.1875 
Q 5.515625 13.8125 5.515625 26.8125 
Q 5.515625 40.234375 12.765625 48.109375 
Q 20.015625 56 32.328125 56 
Q 43.359375 56 49.78125 48.890625 
Q 56.203125 41.796875 56.203125 29.59375 
M 47.21875 32.234375 
Q 47.125 39.59375 43.09375 43.984375 
Q 39.0625 48.390625 32.421875 48.390625 
Q 24.90625 48.390625 20.390625 44.140625 
Q 15.875 39.890625 15.1875 32.171875 
z
" id="DejaVuSans-65"/>
      <path d="M 41.109375 46.296875 
Q 39.59375 47.171875 37.8125 47.578125 
Q 36.03125 48 33.890625 48 
Q 26.265625 48 22.1875 43.046875 
Q 18.109375 38.09375 18.109375 28.8125 
L 18.109375 0 
L 9.078125 0 
L 9.078125 54.6875 
L 18.109375 54.6875 
L 18.109375 46.1875 
Q 20.953125 51.171875 25.484375 53.578125 
Q 30.03125 56 36.53125 56 
Q 37.453125 56 38.578125 55.875 
Q 39.703125 55.765625 41.0625 55.515625 
z
" id="DejaVuSans-72"/>
      <path id="DejaVuSans-20"/>
      <path d="M 30.609375 48.390625 
Q 23.390625 48.390625 19.1875 42.75 
Q 14.984375 37.109375 14.984375 27.296875 
Q 14.984375 17.484375 19.15625 11.84375 
Q 23.34375 6.203125 30.609375 6.203125 
Q 37.796875 6.203125 41.984375 11.859375 
Q 46.1875 17.53125 46.1875 27.296875 
Q 46.1875 37.015625 41.984375 42.703125 
Q 37.796875 48.390625 30.609375 48.390625 
M 30.609375 56 
Q 42.328125 56 49.015625 48.375 
Q 55.71875 40.765625 55.71875 27.296875 
Q 55.71875 13.875 49.015625 6.21875 
Q 42.328125 -1.421875 30.609375 -1.421875 
Q 18.84375 -1.421875 12.171875 6.21875 
Q 5.515625 13.875 5.515625 27.296875 
Q 5.515625 40.765625 12.171875 48.375 
Q 18.84375 56 30.609375 56 
" id="DejaVuSans-6f"/>
      <path d="M 37.109375 75.984375 
L 37.109375 68.5 
L 28.515625 68.5 
Q 23.6875 68.5 21.796875 66.546875 
Q 19.921875 64.59375 19.921875 59.515625 
L 19.921875 54.6875 
L 34.71875 54.6875 
L 34.71875 47.703125 
L 19.921875 47.703125 
L 19.921875 0 
L 10.890625 0 
L 10.890625 47.703125 
L 2.296875 47.703125 
L 2.296875 54.6875 
L 10.890625 54.6875 
L 10.890625 58.5 
Q 10.890625 67.625 15.140625 71.796875 
Q 19.390625 75.984375 28.609375 75.984375 
z
" id="DejaVuSans-66"/>
      <path d="M 48.78125 52.59375 
L 48.78125 44.1875 
Q 44.96875 46.296875 41.140625 47.34375 
Q 37.3125 48.390625 33.40625 48.390625 
Q 24.65625 48.390625 19.8125 42.84375 
Q 14.984375 37.3125 14.984375 27.296875 
Q 14.984375 17.28125 19.8125 11.734375 
Q 24.65625 6.203125 33.40625 6.203125 
Q 37.3125 6.203125 41.140625 7.25 
Q 44.96875 8.296875 48.78125 10.40625 
L 48.78125 2.09375 
Q 45.015625 0.34375 40.984375 -0.53125 
Q 36.96875 -1.421875 32.421875 -1.421875 
Q 20.0625 -1.421875 12.78125 6.34375 
Q 5.515625 14.109375 5.515625 27.296875 
Q 5.515625 40.671875 12.859375 48.328125 
Q 20.21875 56 33.015625 56 
Q 37.15625 56 41.109375 55.140625 
Q 45.0625 54.296875 48.78125 52.59375 
" id="DejaVuSans-63"/>
      <path d="M 9.421875 75.984375 
L 18.40625 75.984375 
L 18.40625 0 
L 9.421875 0 
z
" id="DejaVuSans-6c"/>
      <path d="M 9.421875 54.6875 
L 18.40625 54.6875 
L 18.40625 0 
L 9.421875 0 
z
M 9.421875 75.984375 
L 18.40625 75.984375 
L 18.40625 64.59375 
L 9.421875 64.59375 
z
" id="DejaVuSans-69"/>
      <path d="M 54.890625 33.015625 
L 54.890625 0 
L 45.90625 0 
L 45.90625 32.71875 
Q 45.90625 40.484375 42.875 44.328125 
Q 39.84375 48.1875 33.796875 48.1875 
Q 26.515625 48.1875 22.3125 43.546875 
Q 18.109375 38.921875 18.109375 30.90625 
L 18.109375 0 
L 9.078125 0 
L 9.078125 54.6875 
L 18.109375 54.6875 
L 18.109375 46.1875 
Q 21.34375 51.125 25.703125 53.5625 
Q 30.078125 56 35.796875 56 
Q 45.21875 56 50.046875 50.171875 
Q 54.890625 44.34375 54.890625 33.015625 
" id="DejaVuSans-6e"/>
      <path d="M 18.3125 70.21875 
L 18.3125 54.6875 
L 36.8125 54.6875 
L 36.8125 47.703125 
L 18.3125 47.703125 
L 18.3125 18.015625 
Q 18.3125 11.328125 20.140625 9.421875 
Q 21.96875 7.515625 27.59375 7.515625 
L 36.8125 7.515625 
L 36.8125 0 
L 27.59375 0 
Q 17.1875 0 13.234375 3.875 
Q 9.28125 7.765625 9.28125 18.015625 
L 9.28125 47.703125 
L 2.6875 47.703125 
L 2.6875 54.6875 
L 9.28125 54.6875 
L 9.28125 70.21875 
z
" id="DejaVuSans-74"/>
      <path d="M 44.28125 53.078125 
L 44.28125 44.578125 
Q 40.484375 46.53125 36.375 47.5 
Q 32.28125 48.484375 27.875 48.484375 
Q 21.1875 48.484375 17.84375 46.4375 
Q 14.5 44.390625 14.5 40.28125 
Q 14.5 37.15625 16.890625 35.375 
Q 19.28125 33.59375 26.515625 31.984375 
L 29.59375 31.296875 
Q 39.15625 29.25 43.1875 25.515625 
Q 47.21875 21.78125 47.21875 15.09375 
Q 47.21875 7.46875 41.1875 3.015625 
Q 35.15625 -1.421875 24.609375 -1.421875 
Q 20.21875 -1.421875 15.453125 -0.5625 
Q 10.6875 0.296875 5.421875 2 
L 5.421875 11.28125 
Q 10.40625 8.6875 15.234375 7.390625 
Q 20.0625 6.109375 24.8125 6.109375 
Q 31.15625 6.109375 34.5625 8.28125 
Q 37.984375 10.453125 37.984375 14.40625 
Q 37.984375 18.0625 35.515625 20.015625 
Q 33.0625 21.96875 24.703125 23.78125 
L 21.578125 24.515625 
Q 13.234375 26.265625 9.515625 29.90625 
Q 5.8125 33.546875 5.8125 39.890625 
Q 5.8125 47.609375 11.28125 51.796875 
Q 16.75 56 26.8125 56 
Q 31.78125 56 36.171875 55.265625 
Q 40.578125 54.546875 44.28125 53.078125 
" id="DejaVuSans-73"/>
     </defs>
     <g transform="translate(191.738906 335.860562)scale(0.1 -0.1)">
      <use xlink:href="#DejaVuSans-4e"/>
      <use x="74.804688" xlink:href="#DejaVuSans-75"/>
      <use x="138.183594" xlink:href="#DejaVuSans-6d"/>
      <use x="235.595703" xlink:href="#DejaVuSans-62"/>
      <use x="299.072266" xlink:href="#DejaVuSans-65"/>
      <use x="360.595703" xlink:href="#DejaVuSans-72"/>
      <use x="401.708984" xlink:href="#DejaVuSans-20"/>
      <use x="433.496094" xlink:href="#DejaVuSans-6f"/>
      <use x="494.677734" xlink:href="#DejaVuSans-66"/>
      <use x="529.882812" xlink:href="#DejaVuSans-20"/>
      <use x="561.669922" xlink:href="#DejaVuSans-63"/>
      <use x="616.650391" xlink:href="#DejaVuSans-6c"/>
      <use x="644.433594" xlink:href="#DejaVuSans-69"/>
      <use x="672.216797" xlink:href="#DejaVuSans-65"/>
      <use x="733.740234" xlink:href="#DejaVuSans-6e"/>
      <use x="797.119141" xlink:href="#DejaVuSans-74"/>
      <use x="836.328125" xlink:href="#DejaVuSans-73"/>
     </g>
    </g>
   </g>
   <g id="matplotlib.axis_2">
    <g id="ytick_1">
     <g id="line2d_13">
      <path clip-path="url(#p4f5a3d96f7)" d="M 57.6 295.954436 
L 414.72 295.954436 
" style="fill:none;stroke:#b0b0b0;stroke-linecap:square;stroke-width:0.8;"/>
     </g>
     <g id="line2d_14">
      <defs>
       <path d="M 0 0 
L -3.5 0 
" id="m6784c5dd87" style="stroke:#000000;stroke-width:0.8;"/>
      </defs>
      <g>
       <use style="stroke:#000000;stroke-width:0.8;" x="57.6" xlink:href="#m6784c5dd87" y="295.954436"/>
      </g>
     </g>
     <g id="text_8">
      <!-- 0 -->
      <g transform="translate(44.2375 299.753655)scale(0.1 -0.1)">
       <use xlink:href="#DejaVuSans-30"/>
      </g>
     </g>
    </g>
    <g id="ytick_2">
     <g id="line2d_15">
      <path clip-path="url(#p4f5a3d96f7)" d="M 57.6 247.112987 
L 414.72 247.112987 
" style="fill:none;stroke:#b0b0b0;stroke-linecap:square;stroke-width:0.8;"/>
     </g>
     <g id="line2d_16">
      <g>
       <use style="stroke:#000000;stroke-width:0.8;" x="57.6" xlink:href="#m6784c5dd87" y="247.112987"/>
      </g>
     </g>
     <g id="text_9">
      <!-- 100 -->
      <g transform="translate(31.5125 250.912206)scale(0.1 -0.1)">
       <use xlink:href="#DejaVuSans-31"/>
       <use x="63.623047" xlink:href="#DejaVuSans-30"/>
       <use x="127.246094" xlink:href="#DejaVuSans-30"/>
      </g>
     </g>
    </g>
    <g id="ytick_3">
     <g id="line2d_17">
      <path clip-path="url(#p4f5a3d96f7)" d="M 57.6 198.271538 
L 414.72 198.271538 
" style="fill:none;stroke:#b0b0b0;stroke-linecap:square;stroke-width:0.8;"/>
     </g>
     <g id="line2d_18">
      <g>
       <use style="stroke:#000000;stroke-width:0.8;" x="57.6" xlink:href="#m6784c5dd87" y="198.271538"/>
      </g>
     </g>
     <g id="text_10">
      <!-- 200 -->
      <g transform="translate(31.5125 202.070757)scale(0.1 -0.1)">
       <use xlink:href="#DejaVuSans-32"/>
       <use x="63.623047" xlink:href="#DejaVuSans-30"/>
       <use x="127.246094" xlink:href="#DejaVuSans-30"/>
      </g>
     </g>
    </g>
    <g id="ytick_4">
     <g id="line2d_19">
      <path clip-path="url(#p4f5a3d96f7)" d="M 57.6 149.430089 
L 414.72 149.430089 
" style="fill:none;stroke:#b0b0b0;stroke-linecap:square;stroke-width:0.8;"/>
     </g>
     <g id="line2d_20">
      <g>
       <use style="stroke:#000000;stroke-width:0.8;" x="57.6" xlink:href="#m6784c5dd87" y="149.430089"/>
      </g>
     </g>
     <g id="text_11">
      <!-- 300 -->
      <defs>
       <path d="M 40.578125 39.3125 
Q 47.65625 37.796875 51.625 33 
Q 55.609375 28.21875 55.609375 21.1875 
Q 55.609375 10.40625 48.1875 4.484375 
Q 40.765625 -1.421875 27.09375 -1.421875 
Q 22.515625 -1.421875 17.65625 -0.515625 
Q 12.796875 0.390625 7.625 2.203125 
L 7.625 11.71875 
Q 11.71875 9.328125 16.59375 8.109375 
Q 21.484375 6.890625 26.8125 6.890625 
Q 36.078125 6.890625 40.9375 10.546875 
Q 45.796875 14.203125 45.796875 21.1875 
Q 45.796875 27.640625 41.28125 31.265625 
Q 36.765625 34.90625 28.71875 34.90625 
L 20.21875 34.90625 
L 20.21875 43.015625 
L 29.109375 43.015625 
Q 36.375 43.015625 40.234375 45.921875 
Q 44.09375 48.828125 44.09375 54.296875 
Q 44.09375 59.90625 40.109375 62.90625 
Q 36.140625 65.921875 28.71875 65.921875 
Q 24.65625 65.921875 20.015625 65.03125 
Q 15.375 64.15625 9.8125 62.3125 
L 9.8125 71.09375 
Q 15.4375 72.65625 20.34375 73.4375 
Q 25.25 74.21875 29.59375 74.21875 
Q 40.828125 74.21875 47.359375 69.109375 
Q 53.90625 64.015625 53.90625 55.328125 
Q 53.90625 49.265625 50.4375 45.09375 
Q 46.96875 40.921875 40.578125 39.3125 
" id="DejaVuSans-33"/>
      </defs>
      <g transform="translate(31.5125 153.229308)scale(0.1 -0.1)">
       <use xlink:href="#DejaVuSans-33"/>
       <use x="63.623047" xlink:href="#DejaVuSans-30"/>
       <use x="127.246094" xlink:href="#DejaVuSans-30"/>
      </g>
     </g>
    </g>
    <g id="ytick_5">
     <g id="line2d_21">
      <path clip-path="url(#p4f5a3d96f7)" d="M 57.6 100.58864 
L 414.72 100.58864 
" style="fill:none;stroke:#b0b0b0;stroke-linecap:square;stroke-width:0.8;"/>
     </g>
     <g id="line2d_22">
      <g>
       <use style="stroke:#000000;stroke-width:0.8;" x="57.6" xlink:href="#m6784c5dd87" y="100.58864"/>
      </g>
     </g>
     <g id="text_12">
      <!-- 400 -->
      <g transform="translate(31.5125 104.387859)scale(0.1 -0.1)">
       <use xlink:href="#DejaVuSans-34"/>
       <use x="63.623047" xlink:href="#DejaVuSans-30"/>
       <use x="127.246094" xlink:href="#DejaVuSans-30"/>
      </g>
     </g>
    </g>
    <g id="ytick_6">
     <g id="line2d_23">
      <path clip-path="url(#p4f5a3d96f7)" d="M 57.6 51.747191 
L 414.72 51.747191 
" style="fill:none;stroke:#b0b0b0;stroke-linecap:square;stroke-width:0.8;"/>
     </g>
     <g id="line2d_24">
      <g>
       <use style="stroke:#000000;stroke-width:0.8;" x="57.6" xlink:href="#m6784c5dd87" y="51.747191"/>
      </g>
     </g>
     <g id="text_13">
      <!-- 500 -->
      <defs>
       <path d="M 10.796875 72.90625 
L 49.515625 72.90625 
L 49.515625 64.59375 
L 19.828125 64.59375 
L 19.828125 46.734375 
Q 21.96875 47.46875 24.109375 47.828125 
Q 26.265625 48.1875 28.421875 48.1875 
Q 40.625 48.1875 47.75 41.5 
Q 54.890625 34.8125 54.890625 23.390625 
Q 54.890625 11.625 47.5625 5.09375 
Q 40.234375 -1.421875 26.90625 -1.421875 
Q 22.3125 -1.421875 17.546875 -0.640625 
Q 12.796875 0.140625 7.71875 1.703125 
L 7.71875 11.625 
Q 12.109375 9.234375 16.796875 8.0625 
Q 21.484375 6.890625 26.703125 6.890625 
Q 35.15625 6.890625 40.078125 11.328125 
Q 45.015625 15.765625 45.015625 23.390625 
Q 45.015625 31 40.078125 35.4375 
Q 35.15625 39.890625 26.703125 39.890625 
Q 22.75 39.890625 18.8125 39.015625 
Q 14.890625 38.140625 10.796875 36.28125 
z
" id="DejaVuSans-35"/>
      </defs>
      <g transform="translate(31.5125 55.54641)scale(0.1 -0.1)">
       <use xlink:href="#DejaVuSans-35"/>
       <use x="63.623047" xlink:href="#DejaVuSans-30"/>
       <use x="127.246094" xlink:href="#DejaVuSans-30"/>
      </g>
     </g>
    </g>
    <g id="text_14">
     <!-- Successful download requests per second -->
     <defs>
      <path d="M 53.515625 70.515625 
L 53.515625 60.890625 
Q 47.90625 63.578125 42.921875 64.890625 
Q 37.9375 66.21875 33.296875 66.21875 
Q 25.25 66.21875 20.875 63.09375 
Q 16.5 59.96875 16.5 54.203125 
Q 16.5 49.359375 19.40625 46.890625 
Q 22.3125 44.4375 30.421875 42.921875 
L 36.375 41.703125 
Q 47.40625 39.59375 52.65625 34.296875 
Q 57.90625 29 57.90625 20.125 
Q 57.90625 9.515625 50.796875 4.046875 
Q 43.703125 -1.421875 29.984375 -1.421875 
Q 24.8125 -1.421875 18.96875 -0.25 
Q 13.140625 0.921875 6.890625 3.21875 
L 6.890625 13.375 
Q 12.890625 10.015625 18.65625 8.296875 
Q 24.421875 6.59375 29.984375 6.59375 
Q 38.421875 6.59375 43.015625 9.90625 
Q 47.609375 13.234375 47.609375 19.390625 
Q 47.609375 24.75 44.3125 27.78125 
Q 41.015625 30.8125 33.5 32.328125 
L 27.484375 33.5 
Q 16.453125 35.6875 11.515625 40.375 
Q 6.59375 45.0625 6.59375 53.421875 
Q 6.59375 63.09375 13.40625 68.65625 
Q 20.21875 74.21875 32.171875 74.21875 
Q 37.3125 74.21875 42.625 73.28125 
Q 47.953125 72.359375 53.515625 70.515625 
" id="DejaVuSans-53"/>
      <path d="M 45.40625 46.390625 
L 45.40625 75.984375 
L 54.390625 75.984375 
L 54.390625 0 
L 45.40625 0 
L 45.40625 8.203125 
Q 42.578125 3.328125 38.25 0.953125 
Q 33.9375 -1.421875 27.875 -1.421875 
Q 17.96875 -1.421875 11.734375 6.484375 
Q 5.515625 14.40625 5.515625 27.296875 
Q 5.515625 40.1875 11.734375 48.09375 
Q 17.96875 56 27.875 56 
Q 33.9375 56 38.25 53.625 
Q 42.578125 51.265625 45.40625 46.390625 
M 14.796875 27.296875 
Q 14.796875 17.390625 18.875 11.75 
Q 22.953125 6.109375 30.078125 6.109375 
Q 37.203125 6.109375 41.296875 11.75 
Q 45.40625 17.390625 45.40625 27.296875 
Q 45.40625 37.203125 41.296875 42.84375 
Q 37.203125 48.484375 30.078125 48.484375 
Q 22.953125 48.484375 18.875 42.84375 
Q 14.796875 37.203125 14.796875 27.296875 
" id="DejaVuSans-64"/>
      <path d="M 4.203125 54.6875 
L 13.1875 54.6875 
L 24.421875 12.015625 
L 35.59375 54.6875 
L 46.1875 54.6875 
L 57.421875 12.015625 
L 68.609375 54.6875 
L 77.59375 54.6875 
L 63.28125 0 
L 52.6875 0 
L 40.921875 44.828125 
L 29.109375 0 
L 18.5 0 
z
" id="DejaVuSans-77"/>
      <path d="M 34.28125 27.484375 
Q 23.390625 27.484375 19.1875 25 
Q 14.984375 22.515625 14.984375 16.5 
Q 14.984375 11.71875 18.140625 8.90625 
Q 21.296875 6.109375 26.703125 6.109375 
Q 34.1875 6.109375 38.703125 11.40625 
Q 43.21875 16.703125 43.21875 25.484375 
L 43.21875 27.484375 
z
M 52.203125 31.203125 
L 52.203125 0 
L 43.21875 0 
L 43.21875 8.296875 
Q 40.140625 3.328125 35.546875 0.953125 
Q 30.953125 -1.421875 24.3125 -1.421875 
Q 15.921875 -1.421875 10.953125 3.296875 
Q 6 8.015625 6 15.921875 
Q 6 25.140625 12.171875 29.828125 
Q 18.359375 34.515625 30.609375 34.515625 
L 43.21875 34.515625 
L 43.21875 35.40625 
Q 43.21875 41.609375 39.140625 45 
Q 35.0625 48.390625 27.6875 48.390625 
Q 23 48.390625 18.546875 47.265625 
Q 14.109375 46.140625 10.015625 43.890625 
L 10.015625 52.203125 
Q 14.9375 54.109375 19.578125 55.046875 
Q 24.21875 56 28.609375 56 
Q 40.484375 56 46.34375 49.84375 
Q 52.203125 43.703125 52.203125 31.203125 
" id="DejaVuSans-61"/>
      <path d="M 14.796875 27.296875 
Q 14.796875 17.390625 18.875 11.75 
Q 22.953125 6.109375 30.078125 6.109375 
Q 37.203125 6.109375 41.296875 11.75 
Q 45.40625 17.390625 45.40625 27.296875 
Q 45.40625 37.203125 41.296875 42.84375 
Q 37.203125 48.484375 30.078125 48.484375 
Q 22.953125 48.484375 18.875 42.84375 
Q 14.796875 37.203125 14.796875 27.296875 
M 45.40625 8.203125 
Q 42.578125 3.328125 38.25 0.953125 
Q 33.9375 -1.421875 27.875 -1.421875 
Q 17.96875 -1.421875 11.734375 6.484375 
Q 5.515625 14.40625 5.515625 27.296875 
Q 5.515625 40.1875 11.734375 48.09375 
Q 17.96875 56 27.875 56 
Q 33.9375 56 38.25 53.625 
Q 42.578125 51.265625 45.40625 46.390625 
L 45.40625 54.6875 
L 54.390625 54.6875 
L 54.390625 -20.796875 
L 45.40625 -20.796875 
z
" id="DejaVuSans-71"/>
      <path d="M 18.109375 8.203125 
L 18.109375 -20.796875 
L 9.078125 -20.796875 
L 9.078125 54.6875 
L 18.109375 54.6875 
L 18.109375 46.390625 
Q 20.953125 51.265625 25.265625 53.625 
Q 29.59375 56 35.59375 56 
Q 45.5625 56 51.78125 48.09375 
Q 58.015625 40.1875 58.015625 27.296875 
Q 58.015625 14.40625 51.78125 6.484375 
Q 45.5625 -1.421875 35.59375 -1.421875 
Q 29.59375 -1.421875 25.265625 0.953125 
Q 20.953125 3.328125 18.109375 8.203125 
M 48.6875 27.296875 
Q 48.6875 37.203125 44.609375 42.84375 
Q 40.53125 48.484375 33.40625 48.484375 
Q 26.265625 48.484375 22.1875 42.84375 
Q 18.109375 37.203125 18.109375 27.296875 
Q 18.109375 17.390625 22.1875 11.75 
Q 26.265625 6.109375 33.40625 6.109375 
Q 40.53125 6.109375 44.609375 11.75 
Q 48.6875 17.390625 48.6875 27.296875 
" id="DejaVuSans-70"/>
     </defs>
     <g transform="translate(25.432812 279.366281)rotate(-90)scale(0.1 -0.1)">
      <use xlink:href="#DejaVuSans-53"/>
      <use x="63.476562" xlink:href="#DejaVuSans-75"/>
      <use x="126.855469" xlink:href="#DejaVuSans-63"/>
      <use x="181.835938" xlink:href="#DejaVuSans-63"/>
      <use x="236.816406" xlink:href="#DejaVuSans-65"/>
      <use x="298.339844" xlink:href="#DejaVuSans-73"/>
      <use x="350.439453" xlink:href="#DejaVuSans-73"/>
      <use x="402.539062" xlink:href="#DejaVuSans-66"/>
      <use x="437.744141" xlink:href="#DejaVuSans-75"/>
      <use x="501.123047" xlink:href="#DejaVuSans-6c"/>
      <use x="528.90625" xlink:href="#DejaVuSans-20"/>
      <use x="560.693359" xlink:href="#DejaVuSans-64"/>
      <use x="624.169922" xlink:href="#DejaVuSans-6f"/>
      <use x="685.351562" xlink:href="#DejaVuSans-77"/>
      <use x="767.138672" xlink:href="#DejaVuSans-6e"/>
      <use x="830.517578" xlink:href="#DejaVuSans-6c"/>
      <use x="858.300781" xlink:href="#DejaVuSans-6f"/>
      <use x="919.482422" xlink:href="#DejaVuSans-61"/>
      <use x="980.761719" xlink:href="#DejaVuSans-64"/>
      <use x="1044.238281" xlink:href="#DejaVuSans-20"/>
      <use x="1076.025391" xlink:href="#DejaVuSans-72"/>
      <use x="1117.107422" xlink:href="#DejaVuSans-65"/>
      <use x="1178.630859" xlink:href="#DejaVuSans-71"/>
      <use x="1242.107422" xlink:href="#DejaVuSans-75"/>
      <use x="1305.486328" xlink:href="#DejaVuSans-65"/>
      <use x="1367.009766" xlink:href="#DejaVuSans-73"/>
      <use x="1419.109375" xlink:href="#DejaVuSans-74"/>
      <use x="1458.318359" xlink:href="#DejaVuSans-73"/>
      <use x="1510.417969" xlink:href="#DejaVuSans-20"/>
      <use x="1542.205078" xlink:href="#DejaVuSans-70"/>
      <use x="1605.681641" xlink:href="#DejaVuSans-65"/>
      <use x="1667.205078" xlink:href="#DejaVuSans-72"/>
      <use x="1708.318359" xlink:href="#DejaVuSans-20"/>
      <use x="1740.105469" xlink:href="#DejaVuSans-73"/>
      <use x="1792.205078" xlink:href="#DejaVuSans-65"/>
      <use x="1853.728516" xlink:href="#DejaVuSans-63"/>
      <use x="1908.708984" xlink:href="#DejaVuSans-6f"/>
      <use x="1969.890625" xlink:href="#DejaVuSans-6e"/>
      <use x="2033.269531" xlink:href="#DejaVuSans-64"/>
     </g>
    </g>
   </g>
   <g id="line2d_25">
    <path clip-path="url(#p4f5a3d96f7)" d="M 57.6 295.476766 
L 57.95712 295.488 
L 60.45696 292.104264 
L 60.81408 291.727697 
L 61.1712 291.074198 
L 62.24256 290.005547 
L 62.59968 289.152776 
L 62.9568 289.092212 
L 63.31392 288.140292 
L 63.67104 287.791076 
L 64.02816 287.770563 
L 64.7424 286.531943 
L 65.45664 285.943404 
L 66.17088 284.669619 
L 66.528 284.466439 
L 67.24224 283.52038 
L 67.59936 282.431215 
L 67.95648 282.630977 
L 68.3136 282.203614 
L 68.67072 281.049979 
L 69.02784 281.015302 
L 69.38496 280.174252 
L 69.74208 280.232862 
L 70.45632 279.105113 
L 70.81344 279.036735 
L 71.17056 277.690664 
L 71.52768 277.766369 
L 72.24192 276.04715 
L 72.59904 275.916255 
L 72.95616 275.444935 
L 73.31328 274.603885 
L 73.6704 274.154055 
L 74.02752 274.647842 
L 75.09888 272.856338 
L 75.456 271.779872 
L 75.81312 271.141026 
L 76.17024 271.861926 
L 76.88448 270.043559 
L 77.2416 269.091639 
L 77.59872 269.504838 
L 77.95584 269.418388 
L 78.31296 268.479167 
L 78.67008 268.574408 
L 79.0272 268.001498 
L 79.38432 267.896489 
L 79.74144 266.433687 
L 80.09856 266.664219 
L 80.45568 265.365525 
L 80.8128 264.589923 
L 81.16992 264.862946 
L 81.52704 263.274134 
L 81.88416 264.355484 
L 82.24128 264.457074 
L 82.95552 262.133686 
L 83.31264 262.191807 
L 83.66976 261.515842 
L 84.02688 261.091898 
L 84.384 260.989819 
L 84.74112 259.396123 
L 85.09824 260.626439 
L 85.45536 259.956823 
L 85.81248 259.830323 
L 86.1696 258.552631 
L 86.52672 256.736218 
L 86.88384 258.385593 
L 87.24096 256.400677 
L 87.59808 257.118646 
L 87.9552 256.090045 
L 88.31232 255.994316 
L 88.66944 254.149574 
L 89.02656 253.645042 
L 89.38368 254.578891 
L 89.7408 253.757378 
L 90.09792 252.532434 
L 90.45504 254.118316 
L 90.81216 252.147075 
L 91.16928 252.235478 
L 91.5264 252.608138 
L 91.88352 252.073324 
L 92.24064 248.856627 
L 92.59776 250.277913 
L 92.95488 248.583114 
L 93.312 248.374561 
L 93.66912 248.889839 
L 94.02624 248.263203 
L 94.38336 248.186522 
L 94.74048 247.566724 
L 95.0976 247.621915 
L 95.45472 244.965428 
L 96.16896 245.583761 
L 96.52608 243.156829 
L 96.8832 245.042109 
L 97.24032 243.603729 
L 97.59744 243.281375 
L 97.95456 244.117052 
L 98.31168 243.081614 
L 98.6688 240.396311 
L 99.02592 241.884021 
L 99.38304 240.430011 
L 99.74016 239.987508 
L 100.09728 238.716165 
L 100.4544 239.338405 
L 100.81152 239.702274 
L 101.16864 239.329125 
L 101.52576 236.876308 
L 101.88288 237.671935 
L 102.59712 235.715346 
L 102.95424 234.151443 
L 103.31136 233.599535 
L 103.66848 233.725057 
L 104.0256 233.033951 
L 104.38272 235.125342 
L 104.73984 233.158008 
L 105.09696 231.950159 
L 105.45408 232.206577 
L 105.8112 233.554112 
L 106.16832 231.850034 
L 106.52544 231.772376 
L 106.88256 232.209507 
L 107.23968 230.117628 
L 107.5968 229.519808 
L 108.31104 227.648204 
L 108.66816 229.748386 
L 109.02528 230.349136 
L 109.3824 225.669637 
L 109.73952 227.69558 
L 110.09664 226.815946 
L 110.45376 224.949226 
L 110.81088 226.822784 
L 111.168 224.066661 
L 111.52512 223.670068 
L 111.88224 224.059334 
L 112.23936 222.644398 
L 112.59648 224.918944 
L 112.9536 224.510629 
L 114.02496 222.755268 
L 114.38208 221.422385 
L 114.7392 220.553984 
L 115.09632 220.704904 
L 115.45344 217.086241 
L 115.81056 218.75613 
L 116.16768 217.284049 
L 116.5248 216.815659 
L 116.88192 217.539489 
L 117.23904 215.868135 
L 117.59616 218.805948 
L 117.95328 214.966522 
L 118.3104 216.992465 
L 118.66752 217.153642 
L 119.02464 213.311285 
L 119.38176 212.972814 
L 119.73888 212.207468 
L 120.096 212.827266 
L 120.45312 212.081458 
L 120.81024 210.600585 
L 121.16736 212.655833 
L 121.52448 211.037227 
L 121.8816 211.892441 
L 122.23872 211.27655 
L 122.59584 207.212453 
L 122.95296 210.522438 
L 123.31008 208.32555 
L 123.6672 208.076947 
L 124.02432 206.616588 
L 124.38144 210.144894 
L 124.73856 207.307694 
L 125.09568 209.085035 
L 125.4528 203.363747 
L 125.80992 209.0865 
L 126.16704 203.563997 
L 126.52416 205.352571 
L 126.88128 202.880217 
L 127.2384 205.566985 
L 127.59552 200.922163 
L 127.95264 202.713668 
L 128.30976 201.163928 
L 128.66688 202.767393 
L 129.024 201.902411 
L 129.38112 203.775481 
L 129.73824 198.075195 
L 130.09536 198.929921 
L 130.45248 196.840972 
L 131.16672 200.440098 
L 131.52384 200.84011 
L 131.88096 196.455124 
L 132.23808 195.690756 
L 132.5952 197.271753 
L 132.95232 195.589654 
L 133.30944 197.339155 
L 133.66656 195.993084 
L 134.02368 196.160122 
L 134.3808 196.10542 
L 134.73792 194.814052 
L 135.09504 192.031066 
L 135.45216 192.751966 
L 135.80928 196.396515 
L 136.1664 195.761576 
L 136.52352 194.376921 
L 136.88064 189.575806 
L 137.23776 190.766072 
L 137.59488 193.641368 
L 137.952 192.107747 
L 138.30912 192.086257 
L 138.66624 188.856372 
L 139.02336 190.964369 
L 139.38048 185.49315 
L 139.7376 189.972887 
L 140.09472 186.58964 
L 140.45184 189.955304 
L 141.5232 181.731381 
L 141.88032 187.216276 
L 142.23744 185.880462 
L 143.3088 180.113264 
L 143.66592 182.292081 
L 144.02304 182.904553 
L 144.38016 181.963866 
L 144.73728 177.023065 
L 145.0944 184.401055 
L 145.45152 177.621373 
L 145.80864 183.414457 
L 146.16576 177.25262 
L 146.88 181.543342 
L 147.23712 180.502042 
L 147.59424 177.061162 
L 147.95136 180.22218 
L 148.6656 178.941069 
L 149.02272 176.276768 
L 149.37984 176.846259 
L 149.73696 176.250394 
L 150.09408 176.344169 
L 150.4512 171.180163 
L 150.80832 173.716011 
L 151.16544 168.813795 
L 151.52256 170.693702 
L 151.87968 175.045964 
L 152.2368 173.844952 
L 152.59392 166.854764 
L 153.30816 169.97964 
L 153.66528 166.805923 
L 154.0224 166.242781 
L 154.37952 172.275677 
L 154.73664 166.165123 
L 155.09376 167.172234 
L 155.45088 162.344256 
L 155.808 166.303833 
L 156.16512 168.710251 
L 156.52224 169.698313 
L 156.87936 169.052629 
L 157.23648 165.438851 
L 157.5936 165.315282 
L 157.95072 159.738077 
L 158.30784 167.207399 
L 158.66496 161.255092 
L 159.3792 166.461102 
L 159.73632 159.631602 
L 160.09344 157.172924 
L 160.45056 158.628887 
L 160.80768 159.21938 
L 161.1648 160.986952 
L 161.52192 156.352876 
L 161.87904 160.924435 
L 162.23616 152.909065 
L 162.59328 159.94956 
L 162.9504 155.835645 
L 163.30752 153.964529 
L 163.66464 156.124786 
L 164.02176 158.995687 
L 164.37888 152.269731 
L 164.736 157.091847 
L 165.09312 152.089506 
L 165.45024 157.020538 
L 165.80736 152.613086 
L 166.16448 158.645493 
L 166.5216 153.423366 
L 167.23584 157.42348 
L 167.59296 148.610529 
L 167.95008 155.039041 
L 168.3072 155.252966 
L 168.66432 148.778055 
L 169.02144 153.191857 
L 169.73568 147.271297 
L 170.0928 150.143174 
L 170.44992 156.319664 
L 170.80704 149.933156 
L 171.16416 153.034588 
L 171.52128 146.227067 
L 171.8784 154.030465 
L 172.23552 149.109689 
L 172.59264 146.388732 
L 173.30688 144.736914 
L 173.664 153.212859 
L 174.02112 148.219309 
L 174.37824 147.41196 
L 174.73536 146.048307 
L 175.09248 150.013744 
L 175.4496 143.590605 
L 175.80672 143.901237 
L 176.16384 148.3546 
L 176.52096 149.995184 
L 176.87808 149.382224 
L 177.2352 147.691822 
L 177.59232 149.10334 
L 177.94944 146.351612 
L 178.30656 148.902113 
L 178.66368 141.803008 
L 179.0208 146.383359 
L 179.37792 144.431166 
L 179.73504 147.311347 
L 180.09216 141.167092 
L 180.44928 142.319751 
L 180.8064 142.330496 
L 181.16352 148.077669 
L 181.52064 146.981667 
L 181.87776 142.017422 
L 182.23488 140.868671 
L 182.592 147.755804 
L 182.94912 140.0496 
L 183.30624 144.851691 
L 183.66336 145.544752 
L 184.02048 142.433063 
L 184.3776 143.33663 
L 184.73472 140.138492 
L 185.09184 147.41196 
L 185.44896 137.636344 
L 185.80608 144.270967 
L 186.1632 147.887676 
L 186.52032 140.983937 
L 186.87744 143.537368 
L 187.23456 144.211868 
L 187.59168 137.660765 
L 187.9488 139.42736 
L 188.30592 136.484663 
L 188.66304 144.06339 
L 189.02016 140.660118 
L 189.37728 144.937164 
L 189.7344 140.201009 
L 190.09152 143.0807 
L 190.44864 140.407608 
L 190.80576 139.874259 
L 191.16288 145.343525 
L 191.52 142.337822 
L 191.87712 136.685401 
L 192.23424 137.680301 
L 192.59136 134.622827 
L 192.94848 143.680473 
L 193.3056 142.525862 
L 193.66272 139.910402 
L 194.01984 134.528563 
L 194.37696 135.669011 
L 194.73408 133.084321 
L 195.0912 137.112275 
L 195.44832 143.178872 
L 195.80544 143.465083 
L 196.16256 138.651758 
L 196.51968 140.959028 
L 196.8768 132.794691 
L 197.23392 132.796645 
L 197.59104 140.692354 
L 197.94816 135.424803 
L 198.30528 136.59944 
L 198.6624 141.170511 
L 199.01952 137.533777 
L 199.37664 132.044975 
L 199.73376 139.334073 
L 200.09088 138.243932 
L 200.448 131.668896 
L 200.80512 137.608504 
L 201.16224 132.512876 
L 201.51936 129.661512 
L 201.87648 131.691363 
L 202.2336 139.192921 
L 202.59072 129.275665 
L 202.94784 139.431267 
L 203.66208 132.595907 
L 204.0192 131.810536 
L 204.37632 137.125951 
L 204.73344 130.31843 
L 205.09056 137.462957 
L 205.44768 136.504199 
L 205.8048 130.682299 
L 206.16192 137.804359 
L 206.51904 128.333025 
L 206.87616 137.996306 
L 207.23328 133.401302 
L 207.5904 131.044702 
L 207.94752 126.338829 
L 208.30464 128.952334 
L 208.66176 135.782811 
L 209.01888 127.045076 
L 209.376 126.322222 
L 209.73312 134.931505 
L 210.09024 129.98875 
L 210.44736 136.426541 
L 210.80448 130.756049 
L 211.1616 130.180697 
L 211.51872 129.917442 
L 211.87584 134.987184 
L 212.23296 129.198495 
L 212.59008 135.195248 
L 212.9472 135.071191 
L 213.30432 127.30882 
L 213.66144 124.757831 
L 214.01856 132.544623 
L 214.37568 131.946804 
L 214.7328 127.052891 
L 215.08992 132.534855 
L 215.44704 124.739271 
L 215.80416 123.610545 
L 216.16128 128.095655 
L 216.5184 127.907616 
L 216.87552 130.869361 
L 217.23264 132.004437 
L 217.58976 132.16366 
L 217.94688 131.44276 
L 218.304 121.31109 
L 218.66112 130.034661 
L 219.01824 121.516224 
L 219.37536 122.750447 
L 219.73248 128.833161 
L 220.0896 127.234092 
L 220.80384 131.724575 
L 221.16096 131.26107 
L 221.51808 119.601151 
L 222.23232 131.279141 
L 222.58944 120.653684 
L 222.94656 120.651242 
L 223.30368 122.462283 
L 224.01792 130.586081 
L 224.73216 125.65749 
L 225.08928 128.706174 
L 225.4464 129.676653 
L 225.80352 119.390156 
L 226.16064 120.416803 
L 226.51776 128.005787 
L 226.87488 128.266601 
L 227.232 118.34446 
L 227.58912 124.372472 
L 227.94624 124.543905 
L 228.30336 122.428094 
L 228.66048 128.678334 
L 229.0176 118.966212 
L 229.37472 118.417234 
L 229.73184 123.105036 
L 230.08896 124.883353 
L 230.44608 125.300459 
L 230.8032 126.43993 
L 231.16032 127.024074 
L 231.51744 119.382829 
L 231.87456 116.144153 
L 232.23168 124.088215 
L 232.5888 125.195939 
L 232.94592 117.464337 
L 233.30304 117.473617 
L 233.66016 114.986122 
L 234.01728 123.489418 
L 234.3744 124.871631 
L 234.73152 116.942222 
L 235.08864 118.360578 
L 235.44576 125.374698 
L 235.80288 125.522688 
L 236.16 117.094119 
L 236.51712 121.201197 
L 236.87424 116.28677 
L 237.23136 113.743107 
L 237.58848 122.464236 
L 237.9456 114.926536 
L 238.30272 117.839928 
L 238.65984 116.735134 
L 239.37408 122.931161 
L 239.7312 116.0494 
L 240.08832 112.093732 
L 240.44544 119.011634 
L 240.80256 113.497435 
L 241.15968 122.893553 
L 241.5168 110.869276 
L 241.87392 119.136668 
L 242.23104 115.634737 
L 242.58816 122.384625 
L 242.94528 119.674901 
L 243.3024 115.449139 
L 243.65952 113.800252 
L 244.01664 117.803785 
L 244.37376 114.443005 
L 244.73088 113.091562 
L 245.088 119.357432 
L 245.44512 118.572061 
L 245.80224 112.579704 
L 246.15936 112.602171 
L 246.51648 110.602114 
L 246.8736 112.069311 
L 247.23072 109.777182 
L 247.58784 111.010428 
L 247.94496 108.081895 
L 248.30208 107.89239 
L 248.6592 117.587418 
L 249.01632 114.209543 
L 249.37344 114.104534 
L 249.73056 114.357533 
L 250.08768 117.761782 
L 250.4448 113.434429 
L 250.80192 112.826353 
L 251.51616 118.249219 
L 251.87328 109.417709 
L 252.58752 111.562337 
L 252.94464 110.112722 
L 253.30176 112.915245 
L 253.65888 107.022035 
L 254.016 110.040925 
L 254.37312 109.977432 
L 254.73024 107.627181 
L 255.08736 114.66963 
L 255.8016 109.552023 
L 256.15872 110.576716 
L 256.51584 110.743754 
L 256.87296 116.769812 
L 257.23008 113.876933 
L 257.5872 106.162914 
L 257.94432 107.594946 
L 258.30144 107.236938 
L 258.65856 116.710225 
L 259.01568 113.200967 
L 259.3728 107.552942 
L 259.72992 115.400298 
L 260.08704 115.616665 
L 260.44416 114.182192 
L 260.80128 111.323502 
L 261.1584 111.687859 
L 261.51552 102.63705 
L 261.87264 105.331144 
L 262.22976 113.600979 
L 262.58688 102.194058 
L 263.30112 111.209213 
L 263.65824 108.075057 
L 264.01536 114.292574 
L 264.37248 108.618662 
L 264.7296 105.176806 
L 265.08672 106.650352 
L 265.44384 104.529168 
L 265.80096 111.165256 
L 266.15808 102.292718 
L 266.5152 112.40534 
L 266.87232 106.292344 
L 267.22944 105.208064 
L 267.58656 111.389926 
L 267.94368 108.480441 
L 268.3008 102.389424 
L 268.65792 104.439788 
L 269.01504 104.633689 
L 269.37216 105.696479 
L 269.72928 110.14105 
L 270.0864 109.981827 
L 270.44352 103.605088 
L 270.80064 105.750204 
L 271.15776 101.963038 
L 271.51488 110.271945 
L 272.22912 104.769956 
L 272.58624 101.014537 
L 272.94336 108.791561 
L 273.30048 99.644046 
L 273.6576 109.253113 
L 274.01472 109.930055 
L 274.37184 97.966831 
L 275.08608 105.555327 
L 275.4432 104.516469 
L 275.80032 96.859595 
L 276.15744 99.739775 
L 276.51456 105.8684 
L 276.87168 108.815493 
L 277.2288 109.107077 
L 277.58592 106.275738 
L 277.94304 99.711447 
L 278.30016 99.60595 
L 279.0144 101.333472 
L 279.37152 104.293752 
L 279.72864 102.757689 
L 280.08576 103.091764 
L 280.44288 99.609369 
L 280.8 102.422636 
L 281.15712 100.600362 
L 281.51424 104.900851 
L 281.87136 97.71139 
L 282.22848 96.405858 
L 282.5856 101.604054 
L 282.94272 100.413299 
L 283.29984 105.239323 
L 283.65696 98.08405 
L 284.01408 97.754371 
L 284.3712 106.988335 
L 284.72832 99.210334 
L 285.08544 95.65663 
L 285.44256 99.619137 
L 285.79968 105.180713 
L 286.1568 100.514401 
L 286.51392 99.48873 
L 287.22816 99.446238 
L 287.58528 98.590048 
L 287.9424 103.974817 
L 288.29952 102.435335 
L 288.65664 92.027222 
L 289.01376 92.124417 
L 289.37088 96.603666 
L 289.728 104.527703 
L 290.08512 93.464626 
L 290.79936 98.717035 
L 291.15648 104.264936 
L 291.5136 101.58354 
L 291.87072 101.244092 
L 292.22784 98.644262 
L 292.58496 98.634005 
L 292.94208 100.972534 
L 293.2992 99.089696 
L 293.65632 91.966659 
L 294.01344 93.758163 
L 294.37056 100.334176 
L 295.0848 96.601712 
L 295.44192 99.892649 
L 295.79904 99.363696 
L 296.51328 97.769023 
L 296.8704 89.736558 
L 297.22752 102.444615 
L 297.58464 94.44927 
L 297.94176 93.742534 
L 298.656 90.085775 
L 299.01312 95.857369 
L 299.37024 91.405471 
L 299.72736 89.558287 
L 300.08448 95.078836 
L 300.4416 94.824372 
L 300.79872 98.134357 
L 301.15584 89.943158 
L 301.51296 94.995805 
L 301.87008 92.370578 
L 302.2272 98.38296 
L 302.58432 87.374097 
L 302.94144 90.429618 
L 303.29856 97.935084 
L 303.65568 98.182222 
L 304.0128 86.36894 
L 304.36992 87.874234 
L 304.72704 91.382027 
L 305.08416 85.945973 
L 305.44128 89.619339 
L 305.7984 91.676541 
L 306.15552 96.567035 
L 306.51264 88.658627 
L 306.86976 95.63514 
L 307.22688 97.317728 
L 307.584 86.218997 
L 307.94112 86.405083 
L 308.29824 93.353268 
L 308.65536 90.390545 
L 309.01248 89.943158 
L 309.3696 88.354345 
L 309.72672 90.45697 
L 310.08384 93.55596 
L 310.44096 90.423269 
L 311.1552 93.720067 
L 311.51232 96.234913 
L 311.86944 91.802063 
L 312.22656 92.740307 
L 312.58368 84.38207 
L 312.9408 84.661932 
L 313.29792 96.100599 
L 313.65504 96.373134 
L 314.01216 89.476722 
L 314.36928 91.88314 
L 314.7264 92.019896 
L 315.08352 94.550371 
L 315.44064 85.243145 
L 315.79776 84.268758 
L 316.15488 92.045294 
L 316.512 89.019566 
L 316.86912 83.064816 
L 317.22624 84.95498 
L 317.58336 91.639421 
L 317.94048 88.983423 
L 318.2976 88.429561 
L 318.65472 83.948358 
L 319.01184 93.388433 
L 319.36896 81.810568 
L 319.72608 84.266804 
L 320.0832 92.019896 
L 320.44032 93.806516 
L 320.79744 89.79761 
L 321.15456 83.216225 
L 321.51168 80.134818 
L 321.8688 92.883901 
L 322.22592 86.869077 
L 322.58304 89.023473 
L 322.94016 81.182467 
L 323.29728 82.017656 
L 323.6544 79.457387 
L 324.01152 92.128812 
L 324.36864 81.965395 
L 325.44 89.594918 
L 325.79712 84.642395 
L 326.15424 91.727336 
L 326.51136 90.244509 
L 326.86848 81.322642 
L 327.2256 91.971055 
L 327.58272 80.385863 
L 327.93984 79.886703 
L 328.29696 84.748381 
L 328.65408 92.870714 
L 329.0112 89.335082 
L 329.36832 80.854741 
L 329.72544 90.550257 
L 330.08256 81.37246 
L 330.43968 90.895077 
L 330.7968 82.919269 
L 331.15392 79.782183 
L 331.51104 89.995906 
L 331.86816 83.727106 
L 332.22528 87.408286 
L 332.5824 89.20321 
L 332.93952 81.401765 
L 333.29664 81.456467 
L 333.65376 78.678366 
L 334.01088 83.400357 
L 334.368 81.422278 
L 335.08224 75.9325 
L 335.43936 85.094667 
L 335.79648 89.570986 
L 336.1536 85.041918 
L 336.51072 77.724981 
L 336.86784 83.272881 
L 337.22496 83.099005 
L 337.58208 75.429433 
L 337.9392 79.017325 
L 338.29632 88.267896 
L 338.65344 77.285408 
L 339.01056 75.898799 
L 339.36768 80.488918 
L 339.7248 88.813455 
L 340.08192 80.933375 
L 340.43904 86.545258 
L 340.79616 80.71017 
L 341.15328 83.52588 
L 341.5104 84.927141 
L 341.86752 73.441097 
L 342.22464 81.668439 
L 342.58176 79.982921 
L 342.93888 76.578183 
L 343.296 88.08474 
L 343.65312 79.790486 
L 344.01024 74.865314 
L 344.36736 87.796576 
L 344.72448 86.187739 
L 345.0816 81.775402 
L 345.43872 72.580999 
L 345.79584 78.344779 
L 346.15296 87.454197 
L 346.51008 75.943245 
L 346.8672 82.047449 
L 347.22432 83.007183 
L 347.58144 82.397154 
L 347.93856 74.303637 
L 348.6528 77.353297 
L 349.00992 74.992302 
L 349.36704 76.881977 
L 349.72416 76.740825 
L 350.08128 83.15908 
L 350.4384 82.358569 
L 350.79552 73.160747 
L 351.15264 80.756081 
L 351.50976 74.313405 
L 351.86688 71.705761 
L 352.224 75.121243 
L 352.58112 71.815654 
L 352.93824 71.958271 
L 353.29536 77.375276 
L 353.65248 70.183861 
L 354.0096 78.982648 
L 354.36672 75.259464 
L 354.72384 83.339794 
L 355.08096 82.139759 
L 355.43808 75.156897 
L 355.7952 83.042838 
L 356.15232 74.002774 
L 356.50944 82.803026 
L 356.86656 84.004037 
L 357.22368 77.404092 
L 357.5808 77.83927 
L 357.93792 77.271244 
L 358.29504 83.288999 
L 358.65216 73.660884 
L 359.00928 81.662578 
L 359.3664 79.594631 
L 359.72352 83.245041 
L 360.08064 68.915449 
L 360.43776 75.571073 
L 360.79488 78.057591 
L 361.152 81.683092 
L 361.50912 72.482828 
L 361.86624 68.882725 
L 362.22336 73.150979 
L 362.58048 78.754558 
L 362.9376 70.94823 
L 363.29472 73.923651 
L 363.65184 72.661588 
L 364.00896 70.884247 
L 364.36608 76.581602 
L 364.7232 75.67364 
L 365.08032 79.850072 
L 365.43744 77.622414 
L 366.15168 66.087529 
L 366.5088 74.508283 
L 366.86592 70.500842 
L 367.22304 80.206615 
L 367.58016 76.90884 
L 367.93728 70.781192 
L 368.2944 68.591141 
L 368.65152 77.248288 
L 369.00864 80.284273 
L 369.36576 76.817507 
L 369.72288 67.84289 
L 370.43712 69.332554 
L 371.15136 66.868015 
L 371.8656 70.228307 
L 372.22272 67.037983 
L 372.57984 70.458838 
L 372.93696 64.697013 
L 373.29408 73.374673 
L 373.6512 70.929181 
L 374.00832 64.150965 
L 374.36544 75.381568 
L 374.72256 71.125036 
L 375.07968 64.32191 
L 375.4368 74.051615 
L 375.79392 75.582306 
L 376.15104 78.453207 
L 376.50816 75.006466 
L 376.86528 69.775058 
L 377.2224 75.754228 
L 377.57952 75.589144 
L 377.93664 67.324683 
L 378.29376 77.239497 
L 378.65088 62.106462 
L 379.36512 77.288338 
L 379.72224 67.203067 
L 380.07936 65.787642 
L 380.43648 61.859813 
L 380.7936 73.266733 
L 381.15072 64.8704 
L 381.50784 71.637871 
L 382.22208 67.736416 
L 382.93632 63.581474 
L 383.29344 72.159986 
L 383.65056 64.347796 
L 384.00768 63.668412 
L 384.3648 68.810928 
L 384.72192 63.908712 
L 385.07904 75.478274 
L 385.43616 71.582192 
L 385.79328 72.888212 
L 386.1504 75.798674 
L 386.50752 63.166322 
L 386.86464 73.7361 
L 387.22176 61.538436 
L 387.57888 73.972004 
L 387.936 74.388621 
L 388.29312 64.579305 
L 388.65024 68.839744 
L 389.00736 68.657566 
L 389.36448 74.06871 
L 389.7216 68.908611 
L 390.07872 59.458279 
L 390.43584 69.492754 
L 390.79296 59.153997 
L 391.15008 65.139028 
L 391.5072 73.342437 
L 391.86432 66.121718 
L 392.57856 60.075635 
L 392.93568 73.158794 
L 393.2928 60.60703 
L 393.64992 73.818642 
L 394.00704 59.771352 
L 394.36416 67.534212 
L 394.72128 64.948058 
L 395.0784 59.518842 
L 395.79264 68.399194 
L 396.14976 63.29917 
L 396.50688 66.832849 
L 396.864 64.79323 
L 397.22112 59.602361 
L 397.57824 61.681542 
L 397.93536 66.696581 
L 398.6496 56.38371 
L 399.00672 63.09892 
L 399.36384 66.763494 
L 399.72096 63.155576 
L 400.07808 70.084224 
L 400.4352 72.512133 
L 401.14944 55.612015 
L 401.50656 62.263732 
L 401.86368 60.801907 
L 402.2208 61.597046 
L 402.57792 57.604746 
L 402.93504 58.551781 
L 403.29216 68.863677 
L 403.64928 67.554237 
L 404.0064 67.51028 
L 404.36352 66.250171 
L 404.72064 67.422854 
L 405.07776 65.553203 
L 405.43488 58.539571 
L 405.792 61.690821 
L 406.14912 68.637052 
L 406.50624 59.499794 
L 406.86336 66.281918 
L 407.22048 60.255371 
L 407.5776 60.328145 
L 407.93472 58.162027 
L 408.29184 53.568 
L 408.64896 56.355381 
L 409.00608 61.471523 
L 409.3632 58.402815 
L 409.72032 56.793489 
L 410.43456 63.489164 
L 410.79168 62.322341 
L 411.1488 63.181462 
L 411.50592 64.807394 
L 411.86304 68.29272 
L 412.22016 60.120569 
L 412.57728 64.237903 
L 412.9344 61.756269 
L 413.29152 56.046704 
L 413.64864 56.37736 
L 414.00576 56.469182 
L 414.36288 54.202939 
L 414.72 56.44818 
L 414.72 56.44818 
" style="fill:none;stroke:#000080;stroke-linecap:square;stroke-width:0.5;"/>
   </g>
   <g id="patch_3">
    <path d="M 57.6 307.584 
L 57.6 41.472 
" style="fill:none;stroke:#000000;stroke-linecap:square;stroke-linejoin:miter;stroke-width:0.8;"/>
   </g>
   <g id="patch_4">
    <path d="M 414.72 307.584 
L 414.72 41.472 
" style="fill:none;stroke:#000000;stroke-linecap:square;stroke-linejoin:miter;stroke-width:0.8;"/>
   </g>
   <g id="patch_5">
    <path d="M 57.6 307.584 
L 414.72 307.584 
" style="fill:none;stroke:#000000;stroke-linecap:square;stroke-linejoin:miter;stroke-width:0.8;"/>
   </g>
   <g id="patch_6">
    <path d="M 57.6 41.472 
L 414.72 41.472 
" style="fill:none;stroke:#000000;stroke-linecap:square;stroke-linejoin:miter;stroke-width:0.8;"/>
   </g>
   <g id="text_15">
    <!-- Test -->
    <defs>
     <path d="M -0.296875 72.90625 
L 61.375 72.90625 
L 61.375 64.59375 
L 35.5 64.59375 
L 35.5 0 
L 25.59375 0 
L 25.59375 64.59375 
L -0.296875 64.59375 
z
" id="DejaVuSans-54"/>
    </defs>
    <g transform="translate(223.341563 35.472)scale(0.12 -0.12)">
     <use xlink:href="#DejaVuSans-54"/>
     <use x="60.818359" xlink:href="#DejaVuSans-65"/>
     <use x="122.341797" xlink:href="#DejaVuSans-73"/>
     <use x="174.441406" xlink:href="#DejaVuSans-74"/>
    </g>
   </g>
   <g id="legend_1">
    <g id="patch_7">
     <path d="M 64.6 64.150125 
L 306.276563 64.150125 
Q 308.276563 64.150125 308.276563 62.150125 
L 308.276563 48.472 
Q 308.276563 46.472 306.276563 46.472 
L 64.6 46.472 
Q 62.6 46.472 62.6 48.472 
L 62.6 62.150125 
Q 62.6 64.150125 64.6 64.150125 
z
" style="fill:#ffffff;opacity:0.8;stroke:#cccccc;stroke-linejoin:miter;"/>
    </g>
    <g id="line2d_26">
     <path d="M 66.6 54.570438 
L 86.6 54.570438 
" style="fill:none;stroke:#000080;stroke-linecap:square;stroke-width:0.5;"/>
    </g>
    <g id="line2d_27"/>
    <g id="text_16">
     <!-- Successful download requests per second -->
     <g transform="translate(94.6 58.070438)scale(0.1 -0.1)">
      <use xlink:href="#DejaVuSans-53"/>
      <use x="63.476562" xlink:href="#DejaVuSans-75"/>
      <use x="126.855469" xlink:href="#DejaVuSans-63"/>
      <use x="181.835938" xlink:href="#DejaVuSans-63"/>
      <use x="236.816406" xlink:href="#DejaVuSans-65"/>
      <use x="298.339844" xlink:href="#DejaVuSans-73"/>
      <use x="350.439453" xlink:href="#DejaVuSans-73"/>
      <use x="402.539062" xlink:href="#DejaVuSans-66"/>
      <use x="437.744141" xlink:href="#DejaVuSans-75"/>
      <use x="501.123047" xlink:href="#DejaVuSans-6c"/>
      <use x="528.90625" xlink:href="#DejaVuSans-20"/>
      <use x="560.693359" xlink:href="#DejaVuSans-64"/>
      <use x="624.169922" xlink:href="#DejaVuSans-6f"/>
      <use x="685.351562" xlink:href="#DejaVuSans-77"/>
      <use x="767.138672" xlink:href="#DejaVuSans-6e"/>
      <use x="830.517578" xlink:href="#DejaVuSans-6c"/>
      <use x="858.300781" xlink:href="#DejaVuSans-6f"/>
      <use x="919.482422" xlink:href="#DejaVuSans-61"/>
      <use x="980.761719" xlink:href="#DejaVuSans-64"/>
      <use x="1044.238281" xlink:href="#DejaVuSans-20"/>
      <use x="1076.025391" xlink:href="#DejaVuSans-72"/>
      <use x="1117.107422" xlink:href="#DejaVuSans-65"/>
      <use x="1178.630859" xlink:href="#DejaVuSans-71"/>
      <use x="1242.107422" xlink:href="#DejaVuSans-75"/>
      <use x="1305.486328" xlink:href="#DejaVuSans-65"/>
      <use x="1367.009766" xlink:href="#DejaVuSans-73"/>
      <use x="1419.109375" xlink:href="#DejaVuSans-74"/>
      <use x="1458.318359" xlink:href="#DejaVuSans-73"/>
      <use x="1510.417969" xlink:href="#DejaVuSans-20"/>
      <use x="1542.205078" xlink:href="#DejaVuSans-70"/>
      <use x="1605.681641" xlink:href="#DejaVuSans-65"/>
      <use x="1667.205078" xlink:href="#DejaVuSans-72"/>
      <use x="1708.318359" xlink:href="#DejaVuSans-20"/>
      <use x="1740.105469" xlink:href="#DejaVuSans-73"/>
      <use x="1792.205078" xlink:href="#DejaVuSans-65"/>
      <use x="1853.728516" xlink:href="#DejaVuSans-63"/>
      <use x="1908.708984" xlink:href="#DejaVuSans-6f"/>
      <use x="1969.890625" xlink:href="#DejaVuSans-6e"/>
      <use x="2033.269531" xlink:href="#DejaVuSans-64"/>
     </g>
    </g>
   </g>
  </g>
 </g>
 <defs>
  <clipPath id="p4f5a3d96f7">
   <rect height="266.112" width="357.12" x="57.6" y="41.472"/>
  </clipPath>
 </defs>
</svg>
