<?xml version="1.0" encoding="utf-8" standalone="no"?>
<!DOCTYPE svg PUBLIC "-//W3C//DTD SVG 1.1//EN"
  "http://www.w3.org/Graphics/SVG/1.1/DTD/svg11.dtd">
<!-- Created with matplotlib (http://matplotlib.org/) -->
<svg height="345pt" version="1.1" viewBox="0 0 460 345" width="460pt" xmlns="http://www.w3.org/2000/svg" xmlns:xlink="http://www.w3.org/1999/xlink">
 <defs>
  <style type="text/css">
*{stroke-linecap:butt;stroke-linejoin:round;}
  </style>
 </defs>
 <g id="figure_1">
  <g id="patch_1">
   <path d="M 0 345.6 
L 460.8 345.6 
L 460.8 0 
L 0 0 
z
" style="fill:#ffffff;"/>
  </g>
  <g id="axes_1">
   <g id="patch_2">
    <path d="M 57.6 307.584 
L 414.72 307.584 
L 414.72 41.472 
L 57.6 41.472 
z
" style="fill:#ffffff;"/>
   </g>
   <g id="matplotlib.axis_1">
    <g id="xtick_1">
     <g id="line2d_1">
      <path clip-path="url(#pab930eb8d1)" d="M 57.6 307.584 
L 57.6 41.472 
" style="fill:none;stroke:#b0b0b0;stroke-linecap:square;stroke-width:0.8;"/>
     </g>
     <g id="line2d_2">
      <defs>
       <path d="M 0 0 
L 0 3.5 
" id="m12eac11665" style="stroke:#000000;stroke-width:0.8;"/>
      </defs>
      <g>
       <use style="stroke:#000000;stroke-width:0.8;" x="57.6" xlink:href="#m12eac11665" y="307.584"/>
      </g>
     </g>
     <g id="text_1">
      <!-- 0 -->
      <defs>
       <path d="M 31.78125 66.40625 
Q 24.171875 66.40625 20.328125 58.90625 
Q 16.5 51.421875 16.5 36.375 
Q 16.5 21.390625 20.328125 13.890625 
Q 24.171875 6.390625 31.78125 6.390625 
Q 39.453125 6.390625 43.28125 13.890625 
Q 47.125 21.390625 47.125 36.375 
Q 47.125 51.421875 43.28125 58.90625 
Q 39.453125 66.40625 31.78125 66.40625 
M 31.78125 74.21875 
Q 44.046875 74.21875 50.515625 64.515625 
Q 56.984375 54.828125 56.984375 36.375 
Q 56.984375 17.96875 50.515625 8.265625 
Q 44.046875 -1.421875 31.78125 -1.421875 
Q 19.53125 -1.421875 13.0625 8.265625 
Q 6.59375 17.96875 6.59375 36.375 
Q 6.59375 54.828125 13.0625 64.515625 
Q 19.53125 74.21875 31.78125 74.21875 
" id="DejaVuSans-30"/>
      </defs>
      <g transform="translate(54.41875 322.182437)scale(0.1 -0.1)">
       <use xlink:href="#DejaVuSans-30"/>
      </g>
     </g>
    </g>
    <g id="xtick_2">
     <g id="line2d_3">
      <path clip-path="url(#pab930eb8d1)" d="M 129.024 307.584 
L 129.024 41.472 
" style="fill:none;stroke:#b0b0b0;stroke-linecap:square;stroke-width:0.8;"/>
     </g>
     <g id="line2d_4">
      <g>
       <use style="stroke:#000000;stroke-width:0.8;" x="129.024" xlink:href="#m12eac11665" y="307.584"/>
      </g>
     </g>
     <g id="text_2">
      <!-- 200 -->
      <defs>
       <path d="M 19.1875 8.296875 
L 53.609375 8.296875 
L 53.609375 0 
L 7.328125 0 
L 7.328125 8.296875 
Q 12.9375 14.109375 22.625 23.890625 
Q 32.328125 33.6875 34.8125 36.53125 
Q 39.546875 41.84375 41.421875 45.53125 
Q 43.3125 49.21875 43.3125 52.78125 
Q 43.3125 58.59375 39.234375 62.25 
Q 35.15625 65.921875 28.609375 65.921875 
Q 23.96875 65.921875 18.8125 64.3125 
Q 13.671875 62.703125 7.8125 59.421875 
L 7.8125 69.390625 
Q 13.765625 71.78125 18.9375 73 
Q 24.125 74.21875 28.421875 74.21875 
Q 39.75 74.21875 46.484375 68.546875 
Q 53.21875 62.890625 53.21875 53.421875 
Q 53.21875 48.921875 51.53125 44.890625 
Q 49.859375 40.875 45.40625 35.40625 
Q 44.1875 33.984375 37.640625 27.21875 
Q 31.109375 20.453125 19.1875 8.296875 
" id="DejaVuSans-32"/>
      </defs>
      <g transform="translate(119.48025 322.182437)scale(0.1 -0.1)">
       <use xlink:href="#DejaVuSans-32"/>
       <use x="63.623047" xlink:href="#DejaVuSans-30"/>
       <use x="127.246094" xlink:href="#DejaVuSans-30"/>
      </g>
     </g>
    </g>
    <g id="xtick_3">
     <g id="line2d_5">
      <path clip-path="url(#pab930eb8d1)" d="M 200.448 307.584 
L 200.448 41.472 
" style="fill:none;stroke:#b0b0b0;stroke-linecap:square;stroke-width:0.8;"/>
     </g>
     <g id="line2d_6">
      <g>
       <use style="stroke:#000000;stroke-width:0.8;" x="200.448" xlink:href="#m12eac11665" y="307.584"/>
      </g>
     </g>
     <g id="text_3">
      <!-- 400 -->
      <defs>
       <path d="M 37.796875 64.3125 
L 12.890625 25.390625 
L 37.796875 25.390625 
z
M 35.203125 72.90625 
L 47.609375 72.90625 
L 47.609375 25.390625 
L 58.015625 25.390625 
L 58.015625 17.1875 
L 47.609375 17.1875 
L 47.609375 0 
L 37.796875 0 
L 37.796875 17.1875 
L 4.890625 17.1875 
L 4.890625 26.703125 
z
" id="DejaVuSans-34"/>
      </defs>
      <g transform="translate(190.90425 322.182437)scale(0.1 -0.1)">
       <use xlink:href="#DejaVuSans-34"/>
       <use x="63.623047" xlink:href="#DejaVuSans-30"/>
       <use x="127.246094" xlink:href="#DejaVuSans-30"/>
      </g>
     </g>
    </g>
    <g id="xtick_4">
     <g id="line2d_7">
      <path clip-path="url(#pab930eb8d1)" d="M 271.872 307.584 
L 271.872 41.472 
" style="fill:none;stroke:#b0b0b0;stroke-linecap:square;stroke-width:0.8;"/>
     </g>
     <g id="line2d_8">
      <g>
       <use style="stroke:#000000;stroke-width:0.8;" x="271.872" xlink:href="#m12eac11665" y="307.584"/>
      </g>
     </g>
     <g id="text_4">
      <!-- 600 -->
      <defs>
       <path d="M 33.015625 40.375 
Q 26.375 40.375 22.484375 35.828125 
Q 18.609375 31.296875 18.609375 23.390625 
Q 18.609375 15.53125 22.484375 10.953125 
Q 26.375 6.390625 33.015625 6.390625 
Q 39.65625 6.390625 43.53125 10.953125 
Q 47.40625 15.53125 47.40625 23.390625 
Q 47.40625 31.296875 43.53125 35.828125 
Q 39.65625 40.375 33.015625 40.375 
M 52.59375 71.296875 
L 52.59375 62.3125 
Q 48.875 64.0625 45.09375 64.984375 
Q 41.3125 65.921875 37.59375 65.921875 
Q 27.828125 65.921875 22.671875 59.328125 
Q 17.53125 52.734375 16.796875 39.40625 
Q 19.671875 43.65625 24.015625 45.921875 
Q 28.375 48.1875 33.59375 48.1875 
Q 44.578125 48.1875 50.953125 41.515625 
Q 57.328125 34.859375 57.328125 23.390625 
Q 57.328125 12.15625 50.6875 5.359375 
Q 44.046875 -1.421875 33.015625 -1.421875 
Q 20.359375 -1.421875 13.671875 8.265625 
Q 6.984375 17.96875 6.984375 36.375 
Q 6.984375 53.65625 15.1875 63.9375 
Q 23.390625 74.21875 37.203125 74.21875 
Q 40.921875 74.21875 44.703125 73.484375 
Q 48.484375 72.75 52.59375 71.296875 
" id="DejaVuSans-36"/>
      </defs>
      <g transform="translate(262.32825 322.182437)scale(0.1 -0.1)">
       <use xlink:href="#DejaVuSans-36"/>
       <use x="63.623047" xlink:href="#DejaVuSans-30"/>
       <use x="127.246094" xlink:href="#DejaVuSans-30"/>
      </g>
     </g>
    </g>
    <g id="xtick_5">
     <g id="line2d_9">
      <path clip-path="url(#pab930eb8d1)" d="M 343.296 307.584 
L 343.296 41.472 
" style="fill:none;stroke:#b0b0b0;stroke-linecap:square;stroke-width:0.8;"/>
     </g>
     <g id="line2d_10">
      <g>
       <use style="stroke:#000000;stroke-width:0.8;" x="343.296" xlink:href="#m12eac11665" y="307.584"/>
      </g>
     </g>
     <g id="text_5">
      <!-- 800 -->
      <defs>
       <path d="M 31.78125 34.625 
Q 24.75 34.625 20.71875 30.859375 
Q 16.703125 27.09375 16.703125 20.515625 
Q 16.703125 13.921875 20.71875 10.15625 
Q 24.75 6.390625 31.78125 6.390625 
Q 38.8125 6.390625 42.859375 10.171875 
Q 46.921875 13.96875 46.921875 20.515625 
Q 46.921875 27.09375 42.890625 30.859375 
Q 38.875 34.625 31.78125 34.625 
M 21.921875 38.8125 
Q 15.578125 40.375 12.03125 44.71875 
Q 8.5 49.078125 8.5 55.328125 
Q 8.5 64.0625 14.71875 69.140625 
Q 20.953125 74.21875 31.78125 74.21875 
Q 42.671875 74.21875 48.875 69.140625 
Q 55.078125 64.0625 55.078125 55.328125 
Q 55.078125 49.078125 51.53125 44.71875 
Q 48 40.375 41.703125 38.8125 
Q 48.828125 37.15625 52.796875 32.3125 
Q 56.78125 27.484375 56.78125 20.515625 
Q 56.78125 9.90625 50.3125 4.234375 
Q 43.84375 -1.421875 31.78125 -1.421875 
Q 19.734375 -1.421875 13.25 4.234375 
Q 6.78125 9.90625 6.78125 20.515625 
Q 6.78125 27.484375 10.78125 32.3125 
Q 14.796875 37.15625 21.921875 38.8125 
M 18.3125 54.390625 
Q 18.3125 48.734375 21.84375 45.5625 
Q 25.390625 42.390625 31.78125 42.390625 
Q 38.140625 42.390625 41.71875 45.5625 
Q 45.3125 48.734375 45.3125 54.390625 
Q 45.3125 60.0625 41.71875 63.234375 
Q 38.140625 66.40625 31.78125 66.40625 
Q 25.390625 66.40625 21.84375 63.234375 
Q 18.3125 60.0625 18.3125 54.390625 
" id="DejaVuSans-38"/>
      </defs>
      <g transform="translate(333.75225 322.182437)scale(0.1 -0.1)">
       <use xlink:href="#DejaVuSans-38"/>
       <use x="63.623047" xlink:href="#DejaVuSans-30"/>
       <use x="127.246094" xlink:href="#DejaVuSans-30"/>
      </g>
     </g>
    </g>
    <g id="xtick_6">
     <g id="line2d_11">
      <path clip-path="url(#pab930eb8d1)" d="M 414.72 307.584 
L 414.72 41.472 
" style="fill:none;stroke:#b0b0b0;stroke-linecap:square;stroke-width:0.8;"/>
     </g>
     <g id="line2d_12">
      <g>
       <use style="stroke:#000000;stroke-width:0.8;" x="414.72" xlink:href="#m12eac11665" y="307.584"/>
      </g>
     </g>
     <g id="text_6">
      <!-- 1000 -->
      <defs>
       <path d="M 12.40625 8.296875 
L 28.515625 8.296875 
L 28.515625 63.921875 
L 10.984375 60.40625 
L 10.984375 69.390625 
L 28.421875 72.90625 
L 38.28125 72.90625 
L 38.28125 8.296875 
L 54.390625 8.296875 
L 54.390625 0 
L 12.40625 0 
z
" id="DejaVuSans-31"/>
      </defs>
      <g transform="translate(401.995 322.182437)scale(0.1 -0.1)">
       <use xlink:href="#DejaVuSans-31"/>
       <use x="63.623047" xlink:href="#DejaVuSans-30"/>
       <use x="127.246094" xlink:href="#DejaVuSans-30"/>
       <use x="190.869141" xlink:href="#DejaVuSans-30"/>
      </g>
     </g>
    </g>
    <g id="text_7">
     <!-- Number of clients -->
     <defs>
      <path d="M 9.8125 72.90625 
L 23.09375 72.90625 
L 55.421875 11.921875 
L 55.421875 72.90625 
L 64.984375 72.90625 
L 64.984375 0 
L 51.703125 0 
L 19.390625 60.984375 
L 19.390625 0 
L 9.8125 0 
z
" id="DejaVuSans-4e"/>
      <path d="M 8.5 21.578125 
L 8.5 54.6875 
L 17.484375 54.6875 
L 17.484375 21.921875 
Q 17.484375 14.15625 20.5 10.265625 
Q 23.53125 6.390625 29.59375 6.390625 
Q 36.859375 6.390625 41.078125 11.03125 
Q 45.3125 15.671875 45.3125 23.6875 
L 45.3125 54.6875 
L 54.296875 54.6875 
L 54.296875 0 
L 45.3125 0 
L 45.3125 8.40625 
Q 42.046875 3.421875 37.71875 1 
Q 33.40625 -1.421875 27.6875 -1.421875 
Q 18.265625 -1.421875 13.375 4.4375 
Q 8.5 10.296875 8.5 21.578125 
M 31.109375 56 
z
" id="DejaVuSans-75"/>
      <path d="M 52 44.1875 
Q 55.375 50.25 60.0625 53.125 
Q 64.75 56 71.09375 56 
Q 79.640625 56 84.28125 50.015625 
Q 88.921875 44.046875 88.921875 33.015625 
L 88.921875 0 
L 79.890625 0 
L 79.890625 32.71875 
Q 79.890625 40.578125 77.09375 44.375 
Q 74.3125 48.1875 68.609375 48.1875 
Q 61.625 48.1875 57.5625 43.546875 
Q 53.515625 38.921875 53.515625 30.90625 
L 53.515625 0 
L 44.484375 0 
L 44.484375 32.71875 
Q 44.484375 40.625 41.703125 44.40625 
Q 38.921875 48.1875 33.109375 48.1875 
Q 26.21875 48.1875 22.15625 43.53125 
Q 18.109375 38.875 18.109375 30.90625 
L 18.109375 0 
L 9.078125 0 
L 9.078125 54.6875 
L 18.109375 54.6875 
L 18.109375 46.1875 
Q 21.1875 51.21875 25.484375 53.609375 
Q 29.78125 56 35.6875 56 
Q 41.65625 56 45.828125 52.96875 
Q 50 49.953125 52 44.1875 
" id="DejaVuSans-6d"/>
      <path d="M 48.6875 27.296875 
Q 48.6875 37.203125 44.609375 42.84375 
Q 40.53125 48.484375 33.40625 48.484375 
Q 26.265625 48.484375 22.1875 42.84375 
Q 18.109375 37.203125 18.109375 27.296875 
Q 18.109375 17.390625 22.1875 11.75 
Q 26.265625 6.109375 33.40625 6.109375 
Q 40.53125 6.109375 44.609375 11.75 
Q 48.6875 17.390625 48.6875 27.296875 
M 18.109375 46.390625 
Q 20.953125 51.265625 25.265625 53.625 
Q 29.59375 56 35.59375 56 
Q 45.5625 56 51.78125 48.09375 
Q 58.015625 40.1875 58.015625 27.296875 
Q 58.015625 14.40625 51.78125 6.484375 
Q 45.5625 -1.421875 35.59375 -1.421875 
Q 29.59375 -1.421875 25.265625 0.953125 
Q 20.953125 3.328125 18.109375 8.203125 
L 18.109375 0 
L 9.078125 0 
L 9.078125 75.984375 
L 18.109375 75.984375 
z
" id="DejaVuSans-62"/>
      <path d="M 56.203125 29.59375 
L 56.203125 25.203125 
L 14.890625 25.203125 
Q 15.484375 15.921875 20.484375 11.0625 
Q 25.484375 6.203125 34.421875 6.203125 
Q 39.59375 6.203125 44.453125 7.46875 
Q 49.3125 8.734375 54.109375 11.28125 
L 54.109375 2.78125 
Q 49.265625 0.734375 44.1875 -0.34375 
Q 39.109375 -1.421875 33.890625 -1.421875 
Q 20.796875 -1.421875 13.15625 6.1875 
Q 5.515625 13.8125 5.515625 26.8125 
Q 5.515625 40.234375 12.765625 48.109375 
Q 20.015625 56 32.328125 56 
Q 43.359375 56 49.78125 48.890625 
Q 56.203125 41.796875 56.203125 29.59375 
M 47.21875 32.234375 
Q 47.125 39.59375 43.09375 43.984375 
Q 39.0625 48.390625 32.421875 48.390625 
Q 24.90625 48.390625 20.390625 44.140625 
Q 15.875 39.890625 15.1875 32.171875 
z
" id="DejaVuSans-65"/>
      <path d="M 41.109375 46.296875 
Q 39.59375 47.171875 37.8125 47.578125 
Q 36.03125 48 33.890625 48 
Q 26.265625 48 22.1875 43.046875 
Q 18.109375 38.09375 18.109375 28.8125 
L 18.109375 0 
L 9.078125 0 
L 9.078125 54.6875 
L 18.109375 54.6875 
L 18.109375 46.1875 
Q 20.953125 51.171875 25.484375 53.578125 
Q 30.03125 56 36.53125 56 
Q 37.453125 56 38.578125 55.875 
Q 39.703125 55.765625 41.0625 55.515625 
z
" id="DejaVuSans-72"/>
      <path id="DejaVuSans-20"/>
      <path d="M 30.609375 48.390625 
Q 23.390625 48.390625 19.1875 42.75 
Q 14.984375 37.109375 14.984375 27.296875 
Q 14.984375 17.484375 19.15625 11.84375 
Q 23.34375 6.203125 30.609375 6.203125 
Q 37.796875 6.203125 41.984375 11.859375 
Q 46.1875 17.53125 46.1875 27.296875 
Q 46.1875 37.015625 41.984375 42.703125 
Q 37.796875 48.390625 30.609375 48.390625 
M 30.609375 56 
Q 42.328125 56 49.015625 48.375 
Q 55.71875 40.765625 55.71875 27.296875 
Q 55.71875 13.875 49.015625 6.21875 
Q 42.328125 -1.421875 30.609375 -1.421875 
Q 18.84375 -1.421875 12.171875 6.21875 
Q 5.515625 13.875 5.515625 27.296875 
Q 5.515625 40.765625 12.171875 48.375 
Q 18.84375 56 30.609375 56 
" id="DejaVuSans-6f"/>
      <path d="M 37.109375 75.984375 
L 37.109375 68.5 
L 28.515625 68.5 
Q 23.6875 68.5 21.796875 66.546875 
Q 19.921875 64.59375 19.921875 59.515625 
L 19.921875 54.6875 
L 34.71875 54.6875 
L 34.71875 47.703125 
L 19.921875 47.703125 
L 19.921875 0 
L 10.890625 0 
L 10.890625 47.703125 
L 2.296875 47.703125 
L 2.296875 54.6875 
L 10.890625 54.6875 
L 10.890625 58.5 
Q 10.890625 67.625 15.140625 71.796875 
Q 19.390625 75.984375 28.609375 75.984375 
z
" id="DejaVuSans-66"/>
      <path d="M 48.78125 52.59375 
L 48.78125 44.1875 
Q 44.96875 46.296875 41.140625 47.34375 
Q 37.3125 48.390625 33.40625 48.390625 
Q 24.65625 48.390625 19.8125 42.84375 
Q 14.984375 37.3125 14.984375 27.296875 
Q 14.984375 17.28125 19.8125 11.734375 
Q 24.65625 6.203125 33.40625 6.203125 
Q 37.3125 6.203125 41.140625 7.25 
Q 44.96875 8.296875 48.78125 10.40625 
L 48.78125 2.09375 
Q 45.015625 0.34375 40.984375 -0.53125 
Q 36.96875 -1.421875 32.421875 -1.421875 
Q 20.0625 -1.421875 12.78125 6.34375 
Q 5.515625 14.109375 5.515625 27.296875 
Q 5.515625 40.671875 12.859375 48.328125 
Q 20.21875 56 33.015625 56 
Q 37.15625 56 41.109375 55.140625 
Q 45.0625 54.296875 48.78125 52.59375 
" id="DejaVuSans-63"/>
      <path d="M 9.421875 75.984375 
L 18.40625 75.984375 
L 18.40625 0 
L 9.421875 0 
z
" id="DejaVuSans-6c"/>
      <path d="M 9.421875 54.6875 
L 18.40625 54.6875 
L 18.40625 0 
L 9.421875 0 
z
M 9.421875 75.984375 
L 18.40625 75.984375 
L 18.40625 64.59375 
L 9.421875 64.59375 
z
" id="DejaVuSans-69"/>
      <path d="M 54.890625 33.015625 
L 54.890625 0 
L 45.90625 0 
L 45.90625 32.71875 
Q 45.90625 40.484375 42.875 44.328125 
Q 39.84375 48.1875 33.796875 48.1875 
Q 26.515625 48.1875 22.3125 43.546875 
Q 18.109375 38.921875 18.109375 30.90625 
L 18.109375 0 
L 9.078125 0 
L 9.078125 54.6875 
L 18.109375 54.6875 
L 18.109375 46.1875 
Q 21.34375 51.125 25.703125 53.5625 
Q 30.078125 56 35.796875 56 
Q 45.21875 56 50.046875 50.171875 
Q 54.890625 44.34375 54.890625 33.015625 
" id="DejaVuSans-6e"/>
      <path d="M 18.3125 70.21875 
L 18.3125 54.6875 
L 36.8125 54.6875 
L 36.8125 47.703125 
L 18.3125 47.703125 
L 18.3125 18.015625 
Q 18.3125 11.328125 20.140625 9.421875 
Q 21.96875 7.515625 27.59375 7.515625 
L 36.8125 7.515625 
L 36.8125 0 
L 27.59375 0 
Q 17.1875 0 13.234375 3.875 
Q 9.28125 7.765625 9.28125 18.015625 
L 9.28125 47.703125 
L 2.6875 47.703125 
L 2.6875 54.6875 
L 9.28125 54.6875 
L 9.28125 70.21875 
z
" id="DejaVuSans-74"/>
      <path d="M 44.28125 53.078125 
L 44.28125 44.578125 
Q 40.484375 46.53125 36.375 47.5 
Q 32.28125 48.484375 27.875 48.484375 
Q 21.1875 48.484375 17.84375 46.4375 
Q 14.5 44.390625 14.5 40.28125 
Q 14.5 37.15625 16.890625 35.375 
Q 19.28125 33.59375 26.515625 31.984375 
L 29.59375 31.296875 
Q 39.15625 29.25 43.1875 25.515625 
Q 47.21875 21.78125 47.21875 15.09375 
Q 47.21875 7.46875 41.1875 3.015625 
Q 35.15625 -1.421875 24.609375 -1.421875 
Q 20.21875 -1.421875 15.453125 -0.5625 
Q 10.6875 0.296875 5.421875 2 
L 5.421875 11.28125 
Q 10.40625 8.6875 15.234375 7.390625 
Q 20.0625 6.109375 24.8125 6.109375 
Q 31.15625 6.109375 34.5625 8.28125 
Q 37.984375 10.453125 37.984375 14.40625 
Q 37.984375 18.0625 35.515625 20.015625 
Q 33.0625 21.96875 24.703125 23.78125 
L 21.578125 24.515625 
Q 13.234375 26.265625 9.515625 29.90625 
Q 5.8125 33.546875 5.8125 39.890625 
Q 5.8125 47.609375 11.28125 51.796875 
Q 16.75 56 26.8125 56 
Q 31.78125 56 36.171875 55.265625 
Q 40.578125 54.546875 44.28125 53.078125 
" id="DejaVuSans-73"/>
     </defs>
     <g transform="translate(191.738906 335.860562)scale(0.1 -0.1)">
      <use xlink:href="#DejaVuSans-4e"/>
      <use x="74.804688" xlink:href="#DejaVuSans-75"/>
      <use x="138.183594" xlink:href="#DejaVuSans-6d"/>
      <use x="235.595703" xlink:href="#DejaVuSans-62"/>
      <use x="299.072266" xlink:href="#DejaVuSans-65"/>
      <use x="360.595703" xlink:href="#DejaVuSans-72"/>
      <use x="401.708984" xlink:href="#DejaVuSans-20"/>
      <use x="433.496094" xlink:href="#DejaVuSans-6f"/>
      <use x="494.677734" xlink:href="#DejaVuSans-66"/>
      <use x="529.882812" xlink:href="#DejaVuSans-20"/>
      <use x="561.669922" xlink:href="#DejaVuSans-63"/>
      <use x="616.650391" xlink:href="#DejaVuSans-6c"/>
      <use x="644.433594" xlink:href="#DejaVuSans-69"/>
      <use x="672.216797" xlink:href="#DejaVuSans-65"/>
      <use x="733.740234" xlink:href="#DejaVuSans-6e"/>
      <use x="797.119141" xlink:href="#DejaVuSans-74"/>
      <use x="836.328125" xlink:href="#DejaVuSans-73"/>
     </g>
    </g>
   </g>
   <g id="matplotlib.axis_2">
    <g id="ytick_1">
     <g id="line2d_13">
      <path clip-path="url(#pab930eb8d1)" d="M 57.6 295.901401 
L 414.72 295.901401 
" style="fill:none;stroke:#b0b0b0;stroke-linecap:square;stroke-width:0.8;"/>
     </g>
     <g id="line2d_14">
      <defs>
       <path d="M 0 0 
L -3.5 0 
" id="m8d0a25335b" style="stroke:#000000;stroke-width:0.8;"/>
      </defs>
      <g>
       <use style="stroke:#000000;stroke-width:0.8;" x="57.6" xlink:href="#m8d0a25335b" y="295.901401"/>
      </g>
     </g>
     <g id="text_8">
      <!-- 0 -->
      <g transform="translate(44.2375 299.700619)scale(0.1 -0.1)">
       <use xlink:href="#DejaVuSans-30"/>
      </g>
     </g>
    </g>
    <g id="ytick_2">
     <g id="line2d_15">
      <path clip-path="url(#pab930eb8d1)" d="M 57.6 252.062527 
L 414.72 252.062527 
" style="fill:none;stroke:#b0b0b0;stroke-linecap:square;stroke-width:0.8;"/>
     </g>
     <g id="line2d_16">
      <g>
       <use style="stroke:#000000;stroke-width:0.8;" x="57.6" xlink:href="#m8d0a25335b" y="252.062527"/>
      </g>
     </g>
     <g id="text_9">
      <!-- 100 -->
      <g transform="translate(31.5125 255.861746)scale(0.1 -0.1)">
       <use xlink:href="#DejaVuSans-31"/>
       <use x="63.623047" xlink:href="#DejaVuSans-30"/>
       <use x="127.246094" xlink:href="#DejaVuSans-30"/>
      </g>
     </g>
    </g>
    <g id="ytick_3">
     <g id="line2d_17">
      <path clip-path="url(#pab930eb8d1)" d="M 57.6 208.223654 
L 414.72 208.223654 
" style="fill:none;stroke:#b0b0b0;stroke-linecap:square;stroke-width:0.8;"/>
     </g>
     <g id="line2d_18">
      <g>
       <use style="stroke:#000000;stroke-width:0.8;" x="57.6" xlink:href="#m8d0a25335b" y="208.223654"/>
      </g>
     </g>
     <g id="text_10">
      <!-- 200 -->
      <g transform="translate(31.5125 212.022873)scale(0.1 -0.1)">
       <use xlink:href="#DejaVuSans-32"/>
       <use x="63.623047" xlink:href="#DejaVuSans-30"/>
       <use x="127.246094" xlink:href="#DejaVuSans-30"/>
      </g>
     </g>
    </g>
    <g id="ytick_4">
     <g id="line2d_19">
      <path clip-path="url(#pab930eb8d1)" d="M 57.6 164.384781 
L 414.72 164.384781 
" style="fill:none;stroke:#b0b0b0;stroke-linecap:square;stroke-width:0.8;"/>
     </g>
     <g id="line2d_20">
      <g>
       <use style="stroke:#000000;stroke-width:0.8;" x="57.6" xlink:href="#m8d0a25335b" y="164.384781"/>
      </g>
     </g>
     <g id="text_11">
      <!-- 300 -->
      <defs>
       <path d="M 40.578125 39.3125 
Q 47.65625 37.796875 51.625 33 
Q 55.609375 28.21875 55.609375 21.1875 
Q 55.609375 10.40625 48.1875 4.484375 
Q 40.765625 -1.421875 27.09375 -1.421875 
Q 22.515625 -1.421875 17.65625 -0.515625 
Q 12.796875 0.390625 7.625 2.203125 
L 7.625 11.71875 
Q 11.71875 9.328125 16.59375 8.109375 
Q 21.484375 6.890625 26.8125 6.890625 
Q 36.078125 6.890625 40.9375 10.546875 
Q 45.796875 14.203125 45.796875 21.1875 
Q 45.796875 27.640625 41.28125 31.265625 
Q 36.765625 34.90625 28.71875 34.90625 
L 20.21875 34.90625 
L 20.21875 43.015625 
L 29.109375 43.015625 
Q 36.375 43.015625 40.234375 45.921875 
Q 44.09375 48.828125 44.09375 54.296875 
Q 44.09375 59.90625 40.109375 62.90625 
Q 36.140625 65.921875 28.71875 65.921875 
Q 24.65625 65.921875 20.015625 65.03125 
Q 15.375 64.15625 9.8125 62.3125 
L 9.8125 71.09375 
Q 15.4375 72.65625 20.34375 73.4375 
Q 25.25 74.21875 29.59375 74.21875 
Q 40.828125 74.21875 47.359375 69.109375 
Q 53.90625 64.015625 53.90625 55.328125 
Q 53.90625 49.265625 50.4375 45.09375 
Q 46.96875 40.921875 40.578125 39.3125 
" id="DejaVuSans-33"/>
      </defs>
      <g transform="translate(31.5125 168.183999)scale(0.1 -0.1)">
       <use xlink:href="#DejaVuSans-33"/>
       <use x="63.623047" xlink:href="#DejaVuSans-30"/>
       <use x="127.246094" xlink:href="#DejaVuSans-30"/>
      </g>
     </g>
    </g>
    <g id="ytick_5">
     <g id="line2d_21">
      <path clip-path="url(#pab930eb8d1)" d="M 57.6 120.545907 
L 414.72 120.545907 
" style="fill:none;stroke:#b0b0b0;stroke-linecap:square;stroke-width:0.8;"/>
     </g>
     <g id="line2d_22">
      <g>
       <use style="stroke:#000000;stroke-width:0.8;" x="57.6" xlink:href="#m8d0a25335b" y="120.545907"/>
      </g>
     </g>
     <g id="text_12">
      <!-- 400 -->
      <g transform="translate(31.5125 124.345126)scale(0.1 -0.1)">
       <use xlink:href="#DejaVuSans-34"/>
       <use x="63.623047" xlink:href="#DejaVuSans-30"/>
       <use x="127.246094" xlink:href="#DejaVuSans-30"/>
      </g>
     </g>
    </g>
    <g id="ytick_6">
     <g id="line2d_23">
      <path clip-path="url(#pab930eb8d1)" d="M 57.6 76.707034 
L 414.72 76.707034 
" style="fill:none;stroke:#b0b0b0;stroke-linecap:square;stroke-width:0.8;"/>
     </g>
     <g id="line2d_24">
      <g>
       <use style="stroke:#000000;stroke-width:0.8;" x="57.6" xlink:href="#m8d0a25335b" y="76.707034"/>
      </g>
     </g>
     <g id="text_13">
      <!-- 500 -->
      <defs>
       <path d="M 10.796875 72.90625 
L 49.515625 72.90625 
L 49.515625 64.59375 
L 19.828125 64.59375 
L 19.828125 46.734375 
Q 21.96875 47.46875 24.109375 47.828125 
Q 26.265625 48.1875 28.421875 48.1875 
Q 40.625 48.1875 47.75 41.5 
Q 54.890625 34.8125 54.890625 23.390625 
Q 54.890625 11.625 47.5625 5.09375 
Q 40.234375 -1.421875 26.90625 -1.421875 
Q 22.3125 -1.421875 17.546875 -0.640625 
Q 12.796875 0.140625 7.71875 1.703125 
L 7.71875 11.625 
Q 12.109375 9.234375 16.796875 8.0625 
Q 21.484375 6.890625 26.703125 6.890625 
Q 35.15625 6.890625 40.078125 11.328125 
Q 45.015625 15.765625 45.015625 23.390625 
Q 45.015625 31 40.078125 35.4375 
Q 35.15625 39.890625 26.703125 39.890625 
Q 22.75 39.890625 18.8125 39.015625 
Q 14.890625 38.140625 10.796875 36.28125 
z
" id="DejaVuSans-35"/>
      </defs>
      <g transform="translate(31.5125 80.506253)scale(0.1 -0.1)">
       <use xlink:href="#DejaVuSans-35"/>
       <use x="63.623047" xlink:href="#DejaVuSans-30"/>
       <use x="127.246094" xlink:href="#DejaVuSans-30"/>
      </g>
     </g>
    </g>
    <g id="text_14">
     <!-- Successful download requests per second -->
     <defs>
      <path d="M 53.515625 70.515625 
L 53.515625 60.890625 
Q 47.90625 63.578125 42.921875 64.890625 
Q 37.9375 66.21875 33.296875 66.21875 
Q 25.25 66.21875 20.875 63.09375 
Q 16.5 59.96875 16.5 54.203125 
Q 16.5 49.359375 19.40625 46.890625 
Q 22.3125 44.4375 30.421875 42.921875 
L 36.375 41.703125 
Q 47.40625 39.59375 52.65625 34.296875 
Q 57.90625 29 57.90625 20.125 
Q 57.90625 9.515625 50.796875 4.046875 
Q 43.703125 -1.421875 29.984375 -1.421875 
Q 24.8125 -1.421875 18.96875 -0.25 
Q 13.140625 0.921875 6.890625 3.21875 
L 6.890625 13.375 
Q 12.890625 10.015625 18.65625 8.296875 
Q 24.421875 6.59375 29.984375 6.59375 
Q 38.421875 6.59375 43.015625 9.90625 
Q 47.609375 13.234375 47.609375 19.390625 
Q 47.609375 24.75 44.3125 27.78125 
Q 41.015625 30.8125 33.5 32.328125 
L 27.484375 33.5 
Q 16.453125 35.6875 11.515625 40.375 
Q 6.59375 45.0625 6.59375 53.421875 
Q 6.59375 63.09375 13.40625 68.65625 
Q 20.21875 74.21875 32.171875 74.21875 
Q 37.3125 74.21875 42.625 73.28125 
Q 47.953125 72.359375 53.515625 70.515625 
" id="DejaVuSans-53"/>
      <path d="M 45.40625 46.390625 
L 45.40625 75.984375 
L 54.390625 75.984375 
L 54.390625 0 
L 45.40625 0 
L 45.40625 8.203125 
Q 42.578125 3.328125 38.25 0.953125 
Q 33.9375 -1.421875 27.875 -1.421875 
Q 17.96875 -1.421875 11.734375 6.484375 
Q 5.515625 14.40625 5.515625 27.296875 
Q 5.515625 40.1875 11.734375 48.09375 
Q 17.96875 56 27.875 56 
Q 33.9375 56 38.25 53.625 
Q 42.578125 51.265625 45.40625 46.390625 
M 14.796875 27.296875 
Q 14.796875 17.390625 18.875 11.75 
Q 22.953125 6.109375 30.078125 6.109375 
Q 37.203125 6.109375 41.296875 11.75 
Q 45.40625 17.390625 45.40625 27.296875 
Q 45.40625 37.203125 41.296875 42.84375 
Q 37.203125 48.484375 30.078125 48.484375 
Q 22.953125 48.484375 18.875 42.84375 
Q 14.796875 37.203125 14.796875 27.296875 
" id="DejaVuSans-64"/>
      <path d="M 4.203125 54.6875 
L 13.1875 54.6875 
L 24.421875 12.015625 
L 35.59375 54.6875 
L 46.1875 54.6875 
L 57.421875 12.015625 
L 68.609375 54.6875 
L 77.59375 54.6875 
L 63.28125 0 
L 52.6875 0 
L 40.921875 44.828125 
L 29.109375 0 
L 18.5 0 
z
" id="DejaVuSans-77"/>
      <path d="M 34.28125 27.484375 
Q 23.390625 27.484375 19.1875 25 
Q 14.984375 22.515625 14.984375 16.5 
Q 14.984375 11.71875 18.140625 8.90625 
Q 21.296875 6.109375 26.703125 6.109375 
Q 34.1875 6.109375 38.703125 11.40625 
Q 43.21875 16.703125 43.21875 25.484375 
L 43.21875 27.484375 
z
M 52.203125 31.203125 
L 52.203125 0 
L 43.21875 0 
L 43.21875 8.296875 
Q 40.140625 3.328125 35.546875 0.953125 
Q 30.953125 -1.421875 24.3125 -1.421875 
Q 15.921875 -1.421875 10.953125 3.296875 
Q 6 8.015625 6 15.921875 
Q 6 25.140625 12.171875 29.828125 
Q 18.359375 34.515625 30.609375 34.515625 
L 43.21875 34.515625 
L 43.21875 35.40625 
Q 43.21875 41.609375 39.140625 45 
Q 35.0625 48.390625 27.6875 48.390625 
Q 23 48.390625 18.546875 47.265625 
Q 14.109375 46.140625 10.015625 43.890625 
L 10.015625 52.203125 
Q 14.9375 54.109375 19.578125 55.046875 
Q 24.21875 56 28.609375 56 
Q 40.484375 56 46.34375 49.84375 
Q 52.203125 43.703125 52.203125 31.203125 
" id="DejaVuSans-61"/>
      <path d="M 14.796875 27.296875 
Q 14.796875 17.390625 18.875 11.75 
Q 22.953125 6.109375 30.078125 6.109375 
Q 37.203125 6.109375 41.296875 11.75 
Q 45.40625 17.390625 45.40625 27.296875 
Q 45.40625 37.203125 41.296875 42.84375 
Q 37.203125 48.484375 30.078125 48.484375 
Q 22.953125 48.484375 18.875 42.84375 
Q 14.796875 37.203125 14.796875 27.296875 
M 45.40625 8.203125 
Q 42.578125 3.328125 38.25 0.953125 
Q 33.9375 -1.421875 27.875 -1.421875 
Q 17.96875 -1.421875 11.734375 6.484375 
Q 5.515625 14.40625 5.515625 27.296875 
Q 5.515625 40.1875 11.734375 48.09375 
Q 17.96875 56 27.875 56 
Q 33.9375 56 38.25 53.625 
Q 42.578125 51.265625 45.40625 46.390625 
L 45.40625 54.6875 
L 54.390625 54.6875 
L 54.390625 -20.796875 
L 45.40625 -20.796875 
z
" id="DejaVuSans-71"/>
      <path d="M 18.109375 8.203125 
L 18.109375 -20.796875 
L 9.078125 -20.796875 
L 9.078125 54.6875 
L 18.109375 54.6875 
L 18.109375 46.390625 
Q 20.953125 51.265625 25.265625 53.625 
Q 29.59375 56 35.59375 56 
Q 45.5625 56 51.78125 48.09375 
Q 58.015625 40.1875 58.015625 27.296875 
Q 58.015625 14.40625 51.78125 6.484375 
Q 45.5625 -1.421875 35.59375 -1.421875 
Q 29.59375 -1.421875 25.265625 0.953125 
Q 20.953125 3.328125 18.109375 8.203125 
M 48.6875 27.296875 
Q 48.6875 37.203125 44.609375 42.84375 
Q 40.53125 48.484375 33.40625 48.484375 
Q 26.265625 48.484375 22.1875 42.84375 
Q 18.109375 37.203125 18.109375 27.296875 
Q 18.109375 17.390625 22.1875 11.75 
Q 26.265625 6.109375 33.40625 6.109375 
Q 40.53125 6.109375 44.609375 11.75 
Q 48.6875 17.390625 48.6875 27.296875 
" id="DejaVuSans-70"/>
     </defs>
     <g transform="translate(25.432812 279.366281)rotate(-90)scale(0.1 -0.1)">
      <use xlink:href="#DejaVuSans-53"/>
      <use x="63.476562" xlink:href="#DejaVuSans-75"/>
      <use x="126.855469" xlink:href="#DejaVuSans-63"/>
      <use x="181.835938" xlink:href="#DejaVuSans-63"/>
      <use x="236.816406" xlink:href="#DejaVuSans-65"/>
      <use x="298.339844" xlink:href="#DejaVuSans-73"/>
      <use x="350.439453" xlink:href="#DejaVuSans-73"/>
      <use x="402.539062" xlink:href="#DejaVuSans-66"/>
      <use x="437.744141" xlink:href="#DejaVuSans-75"/>
      <use x="501.123047" xlink:href="#DejaVuSans-6c"/>
      <use x="528.90625" xlink:href="#DejaVuSans-20"/>
      <use x="560.693359" xlink:href="#DejaVuSans-64"/>
      <use x="624.169922" xlink:href="#DejaVuSans-6f"/>
      <use x="685.351562" xlink:href="#DejaVuSans-77"/>
      <use x="767.138672" xlink:href="#DejaVuSans-6e"/>
      <use x="830.517578" xlink:href="#DejaVuSans-6c"/>
      <use x="858.300781" xlink:href="#DejaVuSans-6f"/>
      <use x="919.482422" xlink:href="#DejaVuSans-61"/>
      <use x="980.761719" xlink:href="#DejaVuSans-64"/>
      <use x="1044.238281" xlink:href="#DejaVuSans-20"/>
      <use x="1076.025391" xlink:href="#DejaVuSans-72"/>
      <use x="1117.107422" xlink:href="#DejaVuSans-65"/>
      <use x="1178.630859" xlink:href="#DejaVuSans-71"/>
      <use x="1242.107422" xlink:href="#DejaVuSans-75"/>
      <use x="1305.486328" xlink:href="#DejaVuSans-65"/>
      <use x="1367.009766" xlink:href="#DejaVuSans-73"/>
      <use x="1419.109375" xlink:href="#DejaVuSans-74"/>
      <use x="1458.318359" xlink:href="#DejaVuSans-73"/>
      <use x="1510.417969" xlink:href="#DejaVuSans-20"/>
      <use x="1542.205078" xlink:href="#DejaVuSans-70"/>
      <use x="1605.681641" xlink:href="#DejaVuSans-65"/>
      <use x="1667.205078" xlink:href="#DejaVuSans-72"/>
      <use x="1708.318359" xlink:href="#DejaVuSans-20"/>
      <use x="1740.105469" xlink:href="#DejaVuSans-73"/>
      <use x="1792.205078" xlink:href="#DejaVuSans-65"/>
      <use x="1853.728516" xlink:href="#DejaVuSans-63"/>
      <use x="1908.708984" xlink:href="#DejaVuSans-6f"/>
      <use x="1969.890625" xlink:href="#DejaVuSans-6e"/>
      <use x="2033.269531" xlink:href="#DejaVuSans-64"/>
     </g>
    </g>
   </g>
   <g id="line2d_25">
    <path clip-path="url(#pab930eb8d1)" d="M 57.6 295.488 
L 57.95712 295.482301 
L 60.09984 292.916412 
L 60.45696 292.620938 
L 60.81408 291.9673 
L 63.31392 289.237892 
L 63.67104 288.637738 
L 64.38528 288.105534 
L 64.7424 287.252868 
L 65.09952 287.219988 
L 65.45664 286.435273 
L 65.81376 286.077547 
L 66.17088 286.11218 
L 66.528 285.500189 
L 66.88512 285.236718 
L 68.3136 282.832594 
L 69.02784 282.534051 
L 69.74208 281.187321 
L 70.45632 280.221989 
L 70.81344 280.298707 
L 71.17056 280.153162 
L 71.52768 279.30225 
L 71.8848 279.279015 
L 72.59904 278.669655 
L 72.95616 277.400519 
L 73.31328 277.276455 
L 73.6704 277.456633 
L 74.38464 275.327379 
L 74.74176 275.741218 
L 75.09888 275.128789 
L 75.456 274.049476 
L 75.81312 274.877154 
L 76.17024 274.504523 
L 76.52736 273.247224 
L 76.88448 273.436608 
L 77.2416 272.375708 
L 77.59872 272.068397 
L 77.95584 272.214819 
L 78.31296 270.70457 
L 78.67008 271.597129 
L 79.0272 269.769487 
L 79.38432 269.268408 
L 79.74144 270.410849 
L 80.09856 268.331133 
L 80.45568 268.789249 
L 80.8128 268.275896 
L 81.16992 268.304391 
L 81.52704 267.501702 
L 81.88416 266.201441 
L 82.24128 266.851133 
L 82.5984 265.383846 
L 82.95552 265.649509 
L 83.31264 265.437768 
L 83.66976 264.114272 
L 84.02688 264.371168 
L 84.384 264.858656 
L 84.74112 263.871405 
L 85.09824 263.497021 
L 85.45536 262.190622 
L 85.81248 263.598288 
L 86.1696 261.017056 
L 86.52672 262.633833 
L 86.88384 260.308181 
L 87.24096 261.990717 
L 88.66944 259.691806 
L 89.02656 259.80228 
L 89.38368 257.742292 
L 89.7408 258.332801 
L 90.09792 257.728263 
L 90.45504 258.090811 
L 90.81216 257.51696 
L 91.16928 257.41613 
L 91.5264 254.29831 
L 91.88352 254.408345 
L 92.24064 254.741082 
L 92.59776 255.375431 
L 92.95488 252.710466 
L 93.312 252.120833 
L 93.66912 253.638973 
L 94.02624 252.218594 
L 94.38336 251.98011 
L 94.74048 250.727195 
L 95.0976 250.817942 
L 95.81184 251.801248 
L 96.16896 249.639114 
L 96.52608 250.615844 
L 97.24032 248.381377 
L 97.59744 249.626839 
L 97.95456 247.414292 
L 98.31168 246.876827 
L 98.6688 247.674694 
L 99.02592 245.621282 
L 99.38304 246.872005 
L 99.74016 245.207004 
L 100.09728 246.121483 
L 100.81152 243.027335 
L 101.16864 245.270571 
L 101.52576 242.413591 
L 101.88288 243.97294 
L 102.24 243.676589 
L 102.95424 242.506091 
L 103.31136 241.58679 
L 103.66848 239.990617 
L 104.0256 240.865641 
L 104.38272 239.05115 
L 104.73984 241.533745 
L 105.45408 238.020936 
L 105.8112 239.270782 
L 106.16832 238.10423 
L 106.52544 239.134005 
L 107.5968 235.643992 
L 107.95392 234.378364 
L 108.31104 234.988163 
L 108.66816 236.770651 
L 109.02528 236.193732 
L 109.3824 236.045995 
L 109.73952 232.90494 
L 110.09664 233.361741 
L 110.45376 234.108317 
L 110.81088 232.662072 
L 111.168 232.214477 
L 111.52512 230.48328 
L 111.88224 232.85321 
L 112.59648 230.82347 
L 112.9536 229.221159 
L 113.31072 230.088292 
L 113.66784 229.627984 
L 114.02496 230.369299 
L 114.38208 227.710033 
L 114.7392 226.161644 
L 115.09632 225.839428 
L 115.45344 224.892509 
L 115.81056 225.469428 
L 116.16768 227.241834 
L 116.5248 223.96707 
L 116.88192 226.760922 
L 117.23904 225.821893 
L 117.59616 223.984167 
L 117.95328 226.600471 
L 118.3104 222.501975 
L 118.66752 221.655885 
L 119.02464 225.586917 
L 119.38176 222.02457 
L 119.73888 223.45021 
L 120.096 224.387047 
L 120.45312 220.921584 
L 120.81024 219.631844 
L 121.16736 223.133693 
L 121.52448 219.423609 
L 121.8816 219.062815 
L 122.23872 219.502519 
L 122.59584 217.672685 
L 122.95296 220.567804 
L 123.31008 218.41663 
L 123.6672 218.858526 
L 124.02432 215.845042 
L 124.38144 214.07176 
L 124.73856 216.709106 
L 125.09568 214.049402 
L 125.4528 213.692115 
L 125.80992 217.813408 
L 126.16704 216.155421 
L 126.52416 216.474568 
L 126.88128 212.276996 
L 127.2384 213.317731 
L 127.59552 213.207257 
L 127.95264 213.480373 
L 128.30976 210.765432 
L 128.66688 209.162683 
L 129.024 209.21792 
L 129.38112 209.401166 
L 129.73824 210.21087 
L 130.09536 208.528334 
L 130.45248 210.846095 
L 130.8096 211.907435 
L 131.16672 210.056557 
L 131.52384 205.974281 
L 131.88096 209.937754 
L 132.23808 204.534613 
L 132.5952 208.962777 
L 132.95232 204.029589 
L 133.30944 206.996604 
L 134.02368 203.937966 
L 134.3808 202.551781 
L 134.73792 203.542539 
L 135.09504 202.109446 
L 135.45216 202.96825 
L 135.80928 202.663131 
L 136.1664 205.795419 
L 136.52352 204.639826 
L 136.88064 202.108131 
L 137.23776 202.150655 
L 137.59488 197.874173 
L 137.952 198.624256 
L 138.30912 199.745216 
L 138.66624 198.57428 
L 139.02336 196.04653 
L 139.38048 201.244505 
L 139.7376 198.650559 
L 140.09472 195.136874 
L 140.45184 198.815832 
L 140.80896 196.28063 
L 141.16608 194.675689 
L 141.5232 199.19723 
L 141.88032 195.534054 
L 142.23744 198.417775 
L 142.59456 195.961483 
L 142.95168 196.539279 
L 143.66592 191.270285 
L 144.02304 196.717703 
L 144.38016 192.922572 
L 144.73728 191.44301 
L 145.0944 191.66878 
L 145.45152 194.88217 
L 145.80864 193.30397 
L 146.16576 190.834088 
L 146.52288 191.541209 
L 147.23712 188.353685 
L 147.59424 192.518816 
L 147.95136 191.588117 
L 148.30848 189.593886 
L 148.6656 186.264324 
L 149.02272 188.772346 
L 149.37984 188.677216 
L 149.73696 183.018932 
L 150.09408 187.326101 
L 150.4512 185.335378 
L 150.80832 187.488744 
L 151.16544 183.182013 
L 151.52256 185.100402 
L 151.87968 181.082131 
L 152.2368 185.8518 
L 152.59392 187.289715 
L 153.30816 179.202758 
L 153.66528 185.395876 
L 154.0224 183.510366 
L 154.37952 180.574038 
L 154.73664 179.272462 
L 155.09376 182.890046 
L 155.45088 182.55161 
L 155.808 181.319299 
L 156.16512 181.7327 
L 156.52224 178.479855 
L 156.87936 177.143208 
L 157.23648 178.137035 
L 157.5936 181.048813 
L 157.95072 175.197639 
L 158.30784 172.569937 
L 158.66496 174.225731 
L 159.02208 178.667486 
L 159.3792 179.382936 
L 160.09344 173.060494 
L 160.45056 176.689476 
L 160.80768 169.88086 
L 161.1648 170.646287 
L 161.52192 176.30457 
L 161.87904 169.146559 
L 162.23616 168.919035 
L 162.59328 169.857187 
L 163.30752 173.486608 
L 163.66464 171.651512 
L 164.02176 172.906619 
L 164.37888 170.970695 
L 164.736 171.178929 
L 165.45024 165.046309 
L 165.80736 169.624841 
L 166.16448 168.862922 
L 166.5216 164.280006 
L 167.23584 169.729178 
L 167.59296 165.528099 
L 167.95008 167.238253 
L 168.3072 163.672837 
L 168.66432 162.616321 
L 169.02144 159.507268 
L 169.37856 168.022092 
L 169.73568 160.270941 
L 170.0928 161.811 
L 170.44992 159.067564 
L 170.80704 163.158169 
L 171.16416 165.520646 
L 171.52128 158.071983 
L 171.8784 158.111438 
L 172.23552 161.049519 
L 172.59264 160.550633 
L 172.94976 154.430726 
L 173.30688 156.18998 
L 173.664 155.878286 
L 174.02112 153.576745 
L 174.37824 155.5587 
L 174.73536 154.13306 
L 175.09248 158.496343 
L 175.4496 156.256177 
L 176.16384 154.757764 
L 176.52096 151.461081 
L 176.87808 150.91441 
L 177.2352 156.154909 
L 177.59232 151.262929 
L 177.94944 157.709874 
L 178.66368 149.753118 
L 179.0208 154.872622 
L 179.37792 151.266436 
L 179.73504 150.926247 
L 180.09216 155.143985 
L 180.44928 148.177988 
L 180.8064 147.420452 
L 181.16352 147.160049 
L 181.52064 149.349801 
L 181.87776 145.413947 
L 182.23488 143.417963 
L 182.94912 151.817929 
L 183.30624 142.884882 
L 183.66336 149.534801 
L 184.02048 142.830083 
L 184.3776 141.199277 
L 184.73472 143.036126 
L 185.09184 148.763237 
L 185.44896 146.780404 
L 185.80608 147.630878 
L 186.1632 145.17371 
L 186.52032 148.129326 
L 186.87744 140.78237 
L 187.23456 138.285746 
L 187.59168 146.03076 
L 187.9488 141.624076 
L 188.30592 143.718259 
L 188.66304 139.644751 
L 189.02016 144.197418 
L 189.37728 144.695866 
L 189.7344 146.49326 
L 190.09152 145.989989 
L 190.44864 140.262002 
L 190.80576 142.556967 
L 191.16288 146.251269 
L 191.52 146.310013 
L 191.87712 144.286411 
L 192.23424 144.94224 
L 192.59136 143.95192 
L 192.94848 136.800485 
L 193.3056 137.440532 
L 193.66272 144.200487 
L 194.01984 141.041457 
L 194.37696 140.646469 
L 194.73408 134.748826 
L 195.0912 138.284869 
L 195.44832 137.10122 
L 195.80544 142.908117 
L 196.16256 135.641385 
L 196.51968 142.318922 
L 196.8768 134.669916 
L 197.23392 137.902156 
L 197.94816 132.70988 
L 198.30528 139.023116 
L 198.6624 135.935105 
L 199.01952 139.075284 
L 199.37664 135.300757 
L 199.73376 141.105024 
L 200.09088 139.511042 
L 200.448 141.896315 
L 200.80512 135.839975 
L 201.16224 135.733447 
L 201.51936 139.80827 
L 201.87648 131.254867 
L 202.59072 134.7177 
L 202.94784 139.394869 
L 203.30496 134.647996 
L 203.66208 134.824667 
L 204.0192 138.313803 
L 204.37632 137.453684 
L 204.73344 135.00879 
L 205.09056 138.68731 
L 205.44768 133.865911 
L 205.8048 132.43501 
L 206.16192 135.924146 
L 206.51904 128.256727 
L 206.87616 133.41437 
L 207.23328 129.699026 
L 207.5904 131.275033 
L 207.94752 135.838222 
L 208.30464 127.43431 
L 208.66176 135.611136 
L 209.01888 126.691679 
L 209.376 134.683944 
L 210.09024 125.809203 
L 210.44736 132.765555 
L 210.80448 130.353979 
L 211.1616 125.392295 
L 211.51872 125.876276 
L 211.87584 136.384016 
L 212.59008 131.668706 
L 212.9472 135.189845 
L 213.30432 133.212273 
L 213.66144 125.1297 
L 214.01856 126.138871 
L 214.37568 131.914204 
L 214.7328 132.933458 
L 215.08992 134.511219 
L 215.44704 132.427557 
L 215.80416 126.926217 
L 216.16128 128.031395 
L 216.5184 134.501574 
L 216.87552 125.52688 
L 217.23264 130.549938 
L 217.58976 122.588799 
L 217.94688 130.189583 
L 218.304 124.322626 
L 218.66112 130.098398 
L 219.01824 126.016999 
L 219.37536 131.965496 
L 219.73248 125.920553 
L 220.0896 131.20796 
L 220.44672 132.140851 
L 220.80384 123.319155 
L 221.16096 132.257024 
L 221.51808 131.350874 
L 221.8752 125.138468 
L 222.23232 130.273753 
L 222.58944 127.87226 
L 222.94656 124.282295 
L 223.30368 125.479096 
L 223.6608 120.891358 
L 224.01792 130.172047 
L 224.37504 129.867805 
L 224.73216 118.762104 
L 225.08928 125.138468 
L 225.80352 130.006775 
L 226.16064 130.488125 
L 226.51776 126.485198 
L 226.87488 125.206856 
L 227.232 129.081336 
L 227.58912 119.408289 
L 227.94624 124.448882 
L 228.30336 126.307212 
L 228.66048 121.166227 
L 229.0176 125.91047 
L 229.73184 120.941334 
L 230.08896 128.037971 
L 230.8032 118.301357 
L 231.16032 116.401819 
L 231.51744 115.812186 
L 231.87456 120.943088 
L 232.23168 127.866122 
L 232.5888 124.085458 
L 232.94592 127.465874 
L 233.30304 123.45111 
L 233.66016 116.460563 
L 234.01728 126.396643 
L 234.3744 119.079935 
L 234.73152 123.096891 
L 235.08864 125.465944 
L 235.44576 123.966216 
L 235.80288 120.385896 
L 236.16 124.138941 
L 236.51712 114.139733 
L 236.87424 121.909735 
L 237.23136 123.66592 
L 237.58848 115.255871 
L 237.9456 115.625871 
L 238.30272 118.883976 
L 238.65984 116.215065 
L 239.01696 114.994591 
L 239.37408 120.731346 
L 239.7312 116.24356 
L 240.08832 114.76356 
L 240.44544 119.510433 
L 240.80256 114.856498 
L 241.15968 123.087247 
L 241.5168 112.805278 
L 241.87392 118.202281 
L 242.23104 113.287067 
L 242.58816 116.244876 
L 242.94528 120.738798 
L 243.65952 112.650088 
L 244.01664 118.779201 
L 244.37376 110.393263 
L 244.73088 122.04169 
L 245.088 121.285031 
L 245.44512 115.752565 
L 245.80224 117.967743 
L 246.15936 115.952909 
L 246.51648 116.302304 
L 246.8736 118.276369 
L 247.23072 118.222886 
L 247.58784 118.471452 
L 247.94496 119.35086 
L 248.30208 116.515361 
L 248.6592 121.062768 
L 249.37344 112.249401 
L 249.73056 109.729981 
L 250.08768 117.927411 
L 250.4448 119.803715 
L 250.80192 110.232812 
L 251.15904 113.600515 
L 251.51616 114.037588 
L 251.87328 116.924378 
L 252.2304 109.376201 
L 252.58752 118.7358 
L 252.94464 107.952753 
L 253.30176 116.304496 
L 253.65888 107.961959 
L 254.016 110.887327 
L 254.37312 111.248121 
L 254.73024 106.014198 
L 255.08736 107.492444 
L 255.44448 115.525041 
L 255.8016 113.501877 
L 256.15872 113.520728 
L 256.51584 112.429578 
L 257.23008 105.140051 
L 257.5872 117.715231 
L 257.94432 104.430299 
L 258.30144 112.74215 
L 258.65856 112.198548 
L 259.01568 104.165074 
L 259.3728 106.884838 
L 259.72992 104.720951 
L 260.08704 109.548926 
L 260.44416 106.453463 
L 260.80128 110.399839 
L 261.1584 104.221626 
L 261.51552 107.145679 
L 261.87264 112.847801 
L 262.22976 111.248121 
L 262.58688 103.792882 
L 262.944 114.632043 
L 263.30112 104.007254 
L 263.65824 106.498617 
L 264.01536 110.950893 
L 264.37248 108.147836 
L 264.7296 114.595657 
L 265.08672 111.165265 
L 265.44384 102.632905 
L 266.15808 112.053002 
L 266.5152 110.388002 
L 267.22944 103.795512 
L 267.58656 112.704448 
L 267.94368 113.241913 
L 268.3008 113.314685 
L 268.65792 102.164706 
L 269.01504 110.440609 
L 269.37216 112.696996 
L 269.72928 110.749673 
L 270.0864 112.239756 
L 270.44352 100.582123 
L 270.80064 108.08953 
L 271.15776 99.446258 
L 271.51488 100.326981 
L 271.872 99.386198 
L 272.58624 111.274862 
L 272.94336 102.799055 
L 273.30048 99.213473 
L 273.6576 109.093879 
L 274.01472 103.206318 
L 274.37184 110.425703 
L 274.72896 102.364611 
L 275.08608 106.342112 
L 275.4432 99.283177 
L 275.80032 110.822007 
L 276.15744 103.269446 
L 276.51456 100.890749 
L 276.87168 102.344884 
L 277.2288 104.400927 
L 277.58592 98.849172 
L 277.94304 96.504231 
L 278.30016 106.82697 
L 278.65728 96.424444 
L 279.0144 99.493604 
L 279.37152 100.045097 
L 279.72864 108.717303 
L 280.44288 96.846612 
L 280.8 101.151151 
L 281.15712 95.772998 
L 281.51424 101.912194 
L 281.87136 101.949457 
L 282.22848 106.650738 
L 282.5856 108.411746 
L 282.94272 104.531567 
L 283.29984 98.599291 
L 283.65696 102.71883 
L 284.01408 102.390476 
L 284.3712 97.54935 
L 284.72832 97.741802 
L 285.08544 94.789693 
L 285.44256 100.254647 
L 285.79968 97.584859 
L 286.1568 102.605725 
L 286.51392 95.417027 
L 286.87104 103.670133 
L 287.22816 103.870038 
L 287.58528 102.447467 
L 287.9424 93.659965 
L 288.29952 100.08236 
L 288.65664 100.737751 
L 289.01376 99.025404 
L 289.37088 103.565797 
L 289.728 103.210702 
L 290.08512 102.212491 
L 290.44224 105.147942 
L 290.79936 92.438175 
L 291.15648 95.500759 
L 291.5136 100.000819 
L 291.87072 96.531411 
L 292.22784 103.952455 
L 292.58496 98.226222 
L 292.94208 104.14973 
L 293.2992 103.134422 
L 293.65632 102.837633 
L 294.01344 90.198886 
L 294.37056 102.719268 
L 294.72768 99.812751 
L 295.0848 91.823554 
L 295.44192 98.753165 
L 295.79904 98.670748 
L 296.15616 95.610795 
L 296.51328 91.476351 
L 296.8704 102.854292 
L 297.22752 92.448258 
L 297.58464 99.377869 
L 297.94176 98.006589 
L 298.29888 98.273568 
L 298.656 96.552015 
L 299.01312 90.920035 
L 299.37024 99.267395 
L 299.72736 96.307394 
L 300.08448 88.161693 
L 300.4416 99.757952 
L 300.79872 97.492797 
L 301.15584 94.17551 
L 301.51296 101.215595 
L 301.87008 90.625 
L 302.2272 99.469054 
L 302.58432 97.754077 
L 302.94144 91.546054 
L 303.29856 98.84172 
L 303.65568 99.511139 
L 304.0128 96.796636 
L 304.36992 91.072156 
L 304.72704 87.219158 
L 305.08416 96.533165 
L 305.44128 100.49576 
L 306.15552 86.488802 
L 306.51264 96.738769 
L 306.86976 90.520225 
L 307.22688 95.14128 
L 307.584 89.460639 
L 307.94112 94.514823 
L 308.29824 90.99763 
L 308.65536 92.159799 
L 309.01248 90.751256 
L 309.3696 97.135949 
L 309.72672 92.354882 
L 310.08384 91.951564 
L 310.44096 98.305132 
L 310.79808 96.155712 
L 311.1552 97.060546 
L 311.51232 97.031174 
L 311.86944 94.64064 
L 312.22656 95.368804 
L 312.58368 96.707205 
L 312.9408 89.179632 
L 313.29792 89.653092 
L 313.65504 91.617073 
L 314.01216 91.765249 
L 314.36928 94.300012 
L 314.7264 85.034228 
L 315.08352 96.183769 
L 315.44064 94.319301 
L 315.79776 82.780472 
L 316.15488 82.282462 
L 316.512 93.457429 
L 316.86912 84.504654 
L 317.22624 93.386849 
L 317.58336 96.103105 
L 317.94048 96.587525 
L 318.2976 83.954477 
L 318.65472 89.343589 
L 319.01184 89.465023 
L 319.36896 93.406138 
L 320.0832 94.799337 
L 320.44032 87.12315 
L 320.79744 95.382833 
L 321.15456 87.502795 
L 321.8688 91.990142 
L 322.58304 80.81649 
L 322.94016 91.068211 
L 323.29728 79.982675 
L 323.6544 84.02418 
L 324.01152 82.541111 
L 324.36864 85.163991 
L 324.72576 79.495625 
L 325.08288 94.212773 
L 325.44 92.323756 
L 325.79712 93.227275 
L 326.15424 89.618021 
L 326.51136 92.027405 
L 326.86848 85.03642 
L 327.2256 89.714466 
L 327.58272 88.137582 
L 327.93984 85.141633 
L 328.29696 92.664384 
L 328.65408 92.36891 
L 329.0112 83.09655 
L 329.36832 81.008504 
L 329.72544 84.313517 
L 330.08256 79.54867 
L 330.43968 91.455308 
L 330.7968 88.281373 
L 331.15392 88.933257 
L 331.51104 79.410577 
L 331.86816 83.32495 
L 332.22528 81.030424 
L 332.5824 84.91937 
L 332.93952 82.792746 
L 333.29664 77.221702 
L 333.65376 77.056868 
L 334.01088 85.36828 
L 334.368 80.790625 
L 335.08224 88.108648 
L 335.43936 80.257106 
L 335.79648 87.252037 
L 336.1536 77.849037 
L 336.51072 79.724025 
L 336.86784 85.556349 
L 337.22496 84.593647 
L 337.58208 80.165483 
L 337.9392 82.603801 
L 338.29632 83.790519 
L 338.65344 85.939501 
L 339.01056 80.573623 
L 339.36768 87.26738 
L 339.7248 78.281726 
L 340.08192 89.234869 
L 340.43904 85.320496 
L 340.79616 89.249774 
L 341.15328 77.339629 
L 341.5104 76.633385 
L 341.86752 76.58034 
L 342.22464 83.955792 
L 342.58176 87.334892 
L 342.93888 76.172638 
L 343.65312 87.912689 
L 344.01024 83.698019 
L 344.36736 75.245446 
L 344.72448 85.212214 
L 345.0816 80.6613 
L 345.43872 78.093219 
L 345.79584 77.119558 
L 346.15296 86.529134 
L 346.51008 76.940257 
L 346.8672 83.412628 
L 347.22432 76.699143 
L 347.58144 80.05457 
L 347.93856 84.544986 
L 348.29568 79.833184 
L 348.6528 82.897521 
L 349.00992 76.62374 
L 349.36704 78.82489 
L 349.72416 79.359724 
L 350.4384 85.820697 
L 350.79552 76.001667 
L 351.15264 83.02027 
L 351.50976 79.961194 
L 351.86688 82.820365 
L 352.224 82.902344 
L 352.58112 81.356585 
L 352.93824 75.4756 
L 353.29536 82.374524 
L 353.65248 83.011064 
L 354.0096 69.726132 
L 354.36672 69.850634 
L 354.72384 71.687483 
L 355.08096 76.85784 
L 355.43808 71.050943 
L 355.7952 71.843549 
L 356.15232 83.059287 
L 356.50944 75.912235 
L 356.86656 71.604628 
L 357.22368 80.211952 
L 357.5808 79.596016 
L 357.93792 76.367283 
L 358.29504 77.454049 
L 358.65216 75.018361 
L 359.00928 78.482508 
L 359.3664 83.385886 
L 359.72352 71.196049 
L 360.08064 71.452945 
L 360.43776 77.383468 
L 360.79488 75.038088 
L 361.152 69.091345 
L 361.50912 68.772636 
L 361.86624 75.498835 
L 362.22336 68.054556 
L 362.58048 73.184581 
L 362.9376 73.557649 
L 363.29472 79.70649 
L 363.65184 73.437969 
L 364.00896 71.146511 
L 364.36608 72.098253 
L 364.7232 71.411298 
L 365.08032 67.845444 
L 365.43744 72.25695 
L 365.79456 72.567768 
L 366.15168 75.021429 
L 366.5088 69.35657 
L 366.86592 81.338611 
L 367.22304 68.026499 
L 367.58016 81.391218 
L 367.93728 74.589178 
L 368.2944 70.704177 
L 368.65152 69.983028 
L 369.00864 78.347046 
L 369.36576 67.180409 
L 369.72288 79.85598 
L 370.08 65.11779 
L 370.43712 79.262402 
L 370.79424 78.025707 
L 371.15136 68.049295 
L 371.50848 72.564699 
L 371.8656 73.968858 
L 372.22272 71.656358 
L 372.57984 66.40183 
L 372.93696 76.434795 
L 373.29408 69.552092 
L 373.6512 73.187649 
L 374.00832 73.587898 
L 374.36544 77.994143 
L 374.72256 63.770183 
L 375.07968 78.948516 
L 375.4368 72.211796 
L 375.79392 78.942378 
L 376.50816 63.181865 
L 376.86528 65.524176 
L 377.2224 65.205467 
L 377.57952 69.693253 
L 377.93664 72.140339 
L 378.29376 77.028811 
L 378.65088 69.70772 
L 379.008 74.370422 
L 379.36512 70.43413 
L 379.72224 71.462151 
L 380.07936 77.264226 
L 380.43648 72.290706 
L 380.7936 74.799166 
L 381.15072 63.118737 
L 381.50784 77.440458 
L 381.86496 65.750823 
L 382.22208 72.883408 
L 382.5792 71.087329 
L 383.29344 65.975716 
L 383.65056 73.500659 
L 384.00768 65.50401 
L 384.3648 74.81714 
L 384.72192 70.856736 
L 385.07904 63.443145 
L 385.43616 70.42317 
L 385.79328 72.733917 
L 386.1504 64.287043 
L 386.50752 61.388417 
L 386.86464 61.399376 
L 387.22176 61.592706 
L 387.57888 65.462363 
L 387.936 60.041686 
L 388.29312 59.820738 
L 388.65024 71.388502 
L 389.00736 73.976311 
L 389.36448 71.737021 
L 389.7216 60.99562 
L 390.07872 61.306876 
L 390.43584 69.627933 
L 390.79296 64.058642 
L 391.15008 66.983572 
L 391.5072 64.436972 
L 391.86432 73.490576 
L 392.22144 61.302054 
L 392.57856 67.647293 
L 392.93568 65.463678 
L 393.2928 67.03048 
L 393.64992 66.713525 
L 394.00704 61.122315 
L 394.36416 68.083051 
L 394.72128 57.325868 
L 395.0784 57.22197 
L 395.43552 62.167433 
L 395.79264 70.730481 
L 396.14976 63.269981 
L 396.50688 59.435833 
L 396.864 65.714875 
L 397.22112 65.531629 
L 397.57824 62.833784 
L 397.93536 71.303016 
L 398.29248 67.012067 
L 398.6496 71.932104 
L 399.00672 66.932719 
L 399.36384 66.952008 
L 399.72096 70.063691 
L 400.07808 69.631002 
L 400.4352 67.196191 
L 400.79232 68.37721 
L 401.14944 65.266842 
L 401.50656 63.366427 
L 401.86368 67.850267 
L 402.2208 68.410966 
L 402.57792 59.932966 
L 402.93504 57.032148 
L 403.29216 70.990445 
L 403.64928 57.471413 
L 404.0064 69.904995 
L 404.36352 57.77697 
L 404.72064 57.710335 
L 405.07776 62.616343 
L 405.43488 61.198594 
L 405.792 70.359604 
L 406.14912 69.959793 
L 406.50624 60.445442 
L 406.86336 70.601156 
L 407.22048 59.688783 
L 407.5776 53.568 
L 407.93472 59.287658 
L 408.29184 57.932598 
L 408.64896 58.41088 
L 409.00608 62.814934 
L 409.3632 55.969493 
L 409.72032 60.835608 
L 410.07744 61.775952 
L 410.43456 65.457102 
L 410.79168 53.732396 
L 411.1488 56.715631 
L 411.50592 63.24587 
L 411.86304 62.263441 
L 412.22016 57.988712 
L 412.9344 64.449685 
L 413.29152 59.778653 
L 413.64864 57.956271 
L 414.00576 59.73876 
L 414.36288 54.444339 
L 414.72 63.308559 
L 414.72 63.308559 
" style="fill:none;stroke:#000080;stroke-linecap:square;stroke-width:0.5;"/>
   </g>
   <g id="patch_3">
    <path d="M 57.6 307.584 
L 57.6 41.472 
" style="fill:none;stroke:#000000;stroke-linecap:square;stroke-linejoin:miter;stroke-width:0.8;"/>
   </g>
   <g id="patch_4">
    <path d="M 414.72 307.584 
L 414.72 41.472 
" style="fill:none;stroke:#000000;stroke-linecap:square;stroke-linejoin:miter;stroke-width:0.8;"/>
   </g>
   <g id="patch_5">
    <path d="M 57.6 307.584 
L 414.72 307.584 
" style="fill:none;stroke:#000000;stroke-linecap:square;stroke-linejoin:miter;stroke-width:0.8;"/>
   </g>
   <g id="patch_6">
    <path d="M 57.6 41.472 
L 414.72 41.472 
" style="fill:none;stroke:#000000;stroke-linecap:square;stroke-linejoin:miter;stroke-width:0.8;"/>
   </g>
   <g id="text_15">
    <!-- Test -->
    <defs>
     <path d="M -0.296875 72.90625 
L 61.375 72.90625 
L 61.375 64.59375 
L 35.5 64.59375 
L 35.5 0 
L 25.59375 0 
L 25.59375 64.59375 
L -0.296875 64.59375 
z
" id="DejaVuSans-54"/>
    </defs>
    <g transform="translate(223.341563 35.472)scale(0.12 -0.12)">
     <use xlink:href="#DejaVuSans-54"/>
     <use x="60.818359" xlink:href="#DejaVuSans-65"/>
     <use x="122.341797" xlink:href="#DejaVuSans-73"/>
     <use x="174.441406" xlink:href="#DejaVuSans-74"/>
    </g>
   </g>
   <g id="legend_1">
    <g id="patch_7">
     <path d="M 64.6 64.150125 
L 306.276563 64.150125 
Q 308.276563 64.150125 308.276563 62.150125 
L 308.276563 48.472 
Q 308.276563 46.472 306.276563 46.472 
L 64.6 46.472 
Q 62.6 46.472 62.6 48.472 
L 62.6 62.150125 
Q 62.6 64.150125 64.6 64.150125 
z
" style="fill:#ffffff;opacity:0.8;stroke:#cccccc;stroke-linejoin:miter;"/>
    </g>
    <g id="line2d_26">
     <path d="M 66.6 54.570438 
L 86.6 54.570438 
" style="fill:none;stroke:#000080;stroke-linecap:square;stroke-width:0.5;"/>
    </g>
    <g id="line2d_27"/>
    <g id="text_16">
     <!-- Successful download requests per second -->
     <g transform="translate(94.6 58.070438)scale(0.1 -0.1)">
      <use xlink:href="#DejaVuSans-53"/>
      <use x="63.476562" xlink:href="#DejaVuSans-75"/>
      <use x="126.855469" xlink:href="#DejaVuSans-63"/>
      <use x="181.835938" xlink:href="#DejaVuSans-63"/>
      <use x="236.816406" xlink:href="#DejaVuSans-65"/>
      <use x="298.339844" xlink:href="#DejaVuSans-73"/>
      <use x="350.439453" xlink:href="#DejaVuSans-73"/>
      <use x="402.539062" xlink:href="#DejaVuSans-66"/>
      <use x="437.744141" xlink:href="#DejaVuSans-75"/>
      <use x="501.123047" xlink:href="#DejaVuSans-6c"/>
      <use x="528.90625" xlink:href="#DejaVuSans-20"/>
      <use x="560.693359" xlink:href="#DejaVuSans-64"/>
      <use x="624.169922" xlink:href="#DejaVuSans-6f"/>
      <use x="685.351562" xlink:href="#DejaVuSans-77"/>
      <use x="767.138672" xlink:href="#DejaVuSans-6e"/>
      <use x="830.517578" xlink:href="#DejaVuSans-6c"/>
      <use x="858.300781" xlink:href="#DejaVuSans-6f"/>
      <use x="919.482422" xlink:href="#DejaVuSans-61"/>
      <use x="980.761719" xlink:href="#DejaVuSans-64"/>
      <use x="1044.238281" xlink:href="#DejaVuSans-20"/>
      <use x="1076.025391" xlink:href="#DejaVuSans-72"/>
      <use x="1117.107422" xlink:href="#DejaVuSans-65"/>
      <use x="1178.630859" xlink:href="#DejaVuSans-71"/>
      <use x="1242.107422" xlink:href="#DejaVuSans-75"/>
      <use x="1305.486328" xlink:href="#DejaVuSans-65"/>
      <use x="1367.009766" xlink:href="#DejaVuSans-73"/>
      <use x="1419.109375" xlink:href="#DejaVuSans-74"/>
      <use x="1458.318359" xlink:href="#DejaVuSans-73"/>
      <use x="1510.417969" xlink:href="#DejaVuSans-20"/>
      <use x="1542.205078" xlink:href="#DejaVuSans-70"/>
      <use x="1605.681641" xlink:href="#DejaVuSans-65"/>
      <use x="1667.205078" xlink:href="#DejaVuSans-72"/>
      <use x="1708.318359" xlink:href="#DejaVuSans-20"/>
      <use x="1740.105469" xlink:href="#DejaVuSans-73"/>
      <use x="1792.205078" xlink:href="#DejaVuSans-65"/>
      <use x="1853.728516" xlink:href="#DejaVuSans-63"/>
      <use x="1908.708984" xlink:href="#DejaVuSans-6f"/>
      <use x="1969.890625" xlink:href="#DejaVuSans-6e"/>
      <use x="2033.269531" xlink:href="#DejaVuSans-64"/>
     </g>
    </g>
   </g>
  </g>
 </g>
 <defs>
  <clipPath id="pab930eb8d1">
   <rect height="266.112" width="357.12" x="57.6" y="41.472"/>
  </clipPath>
 </defs>
</svg>
