<?xml version="1.0" encoding="utf-8" standalone="no"?>
<!DOCTYPE svg PUBLIC "-//W3C//DTD SVG 1.1//EN"
  "http://www.w3.org/Graphics/SVG/1.1/DTD/svg11.dtd">
<!-- Created with matplotlib (http://matplotlib.org/) -->
<svg height="345pt" version="1.1" viewBox="0 0 460 345" width="460pt" xmlns="http://www.w3.org/2000/svg" xmlns:xlink="http://www.w3.org/1999/xlink">
 <defs>
  <style type="text/css">
*{stroke-linecap:butt;stroke-linejoin:round;}
  </style>
 </defs>
 <g id="figure_1">
  <g id="patch_1">
   <path d="M 0 345.6 
L 460.8 345.6 
L 460.8 0 
L 0 0 
z
" style="fill:#ffffff;"/>
  </g>
  <g id="axes_1">
   <g id="patch_2">
    <path d="M 57.6 307.584 
L 414.72 307.584 
L 414.72 41.472 
L 57.6 41.472 
z
" style="fill:#ffffff;"/>
   </g>
   <g id="matplotlib.axis_1">
    <g id="xtick_1">
     <g id="line2d_1">
      <path clip-path="url(#p12811def24)" d="M 57.6 307.584 
L 57.6 41.472 
" style="fill:none;stroke:#b0b0b0;stroke-linecap:square;stroke-width:0.8;"/>
     </g>
     <g id="line2d_2">
      <defs>
       <path d="M 0 0 
L 0 3.5 
" id="mf57400a941" style="stroke:#000000;stroke-width:0.8;"/>
      </defs>
      <g>
       <use style="stroke:#000000;stroke-width:0.8;" x="57.6" xlink:href="#mf57400a941" y="307.584"/>
      </g>
     </g>
     <g id="text_1">
      <!-- 0 -->
      <defs>
       <path d="M 31.78125 66.40625 
Q 24.171875 66.40625 20.328125 58.90625 
Q 16.5 51.421875 16.5 36.375 
Q 16.5 21.390625 20.328125 13.890625 
Q 24.171875 6.390625 31.78125 6.390625 
Q 39.453125 6.390625 43.28125 13.890625 
Q 47.125 21.390625 47.125 36.375 
Q 47.125 51.421875 43.28125 58.90625 
Q 39.453125 66.40625 31.78125 66.40625 
M 31.78125 74.21875 
Q 44.046875 74.21875 50.515625 64.515625 
Q 56.984375 54.828125 56.984375 36.375 
Q 56.984375 17.96875 50.515625 8.265625 
Q 44.046875 -1.421875 31.78125 -1.421875 
Q 19.53125 -1.421875 13.0625 8.265625 
Q 6.59375 17.96875 6.59375 36.375 
Q 6.59375 54.828125 13.0625 64.515625 
Q 19.53125 74.21875 31.78125 74.21875 
" id="DejaVuSans-30"/>
      </defs>
      <g transform="translate(54.41875 322.182437)scale(0.1 -0.1)">
       <use xlink:href="#DejaVuSans-30"/>
      </g>
     </g>
    </g>
    <g id="xtick_2">
     <g id="line2d_3">
      <path clip-path="url(#p12811def24)" d="M 129.024 307.584 
L 129.024 41.472 
" style="fill:none;stroke:#b0b0b0;stroke-linecap:square;stroke-width:0.8;"/>
     </g>
     <g id="line2d_4">
      <g>
       <use style="stroke:#000000;stroke-width:0.8;" x="129.024" xlink:href="#mf57400a941" y="307.584"/>
      </g>
     </g>
     <g id="text_2">
      <!-- 200 -->
      <defs>
       <path d="M 19.1875 8.296875 
L 53.609375 8.296875 
L 53.609375 0 
L 7.328125 0 
L 7.328125 8.296875 
Q 12.9375 14.109375 22.625 23.890625 
Q 32.328125 33.6875 34.8125 36.53125 
Q 39.546875 41.84375 41.421875 45.53125 
Q 43.3125 49.21875 43.3125 52.78125 
Q 43.3125 58.59375 39.234375 62.25 
Q 35.15625 65.921875 28.609375 65.921875 
Q 23.96875 65.921875 18.8125 64.3125 
Q 13.671875 62.703125 7.8125 59.421875 
L 7.8125 69.390625 
Q 13.765625 71.78125 18.9375 73 
Q 24.125 74.21875 28.421875 74.21875 
Q 39.75 74.21875 46.484375 68.546875 
Q 53.21875 62.890625 53.21875 53.421875 
Q 53.21875 48.921875 51.53125 44.890625 
Q 49.859375 40.875 45.40625 35.40625 
Q 44.1875 33.984375 37.640625 27.21875 
Q 31.109375 20.453125 19.1875 8.296875 
" id="DejaVuSans-32"/>
      </defs>
      <g transform="translate(119.48025 322.182437)scale(0.1 -0.1)">
       <use xlink:href="#DejaVuSans-32"/>
       <use x="63.623047" xlink:href="#DejaVuSans-30"/>
       <use x="127.246094" xlink:href="#DejaVuSans-30"/>
      </g>
     </g>
    </g>
    <g id="xtick_3">
     <g id="line2d_5">
      <path clip-path="url(#p12811def24)" d="M 200.448 307.584 
L 200.448 41.472 
" style="fill:none;stroke:#b0b0b0;stroke-linecap:square;stroke-width:0.8;"/>
     </g>
     <g id="line2d_6">
      <g>
       <use style="stroke:#000000;stroke-width:0.8;" x="200.448" xlink:href="#mf57400a941" y="307.584"/>
      </g>
     </g>
     <g id="text_3">
      <!-- 400 -->
      <defs>
       <path d="M 37.796875 64.3125 
L 12.890625 25.390625 
L 37.796875 25.390625 
z
M 35.203125 72.90625 
L 47.609375 72.90625 
L 47.609375 25.390625 
L 58.015625 25.390625 
L 58.015625 17.1875 
L 47.609375 17.1875 
L 47.609375 0 
L 37.796875 0 
L 37.796875 17.1875 
L 4.890625 17.1875 
L 4.890625 26.703125 
z
" id="DejaVuSans-34"/>
      </defs>
      <g transform="translate(190.90425 322.182437)scale(0.1 -0.1)">
       <use xlink:href="#DejaVuSans-34"/>
       <use x="63.623047" xlink:href="#DejaVuSans-30"/>
       <use x="127.246094" xlink:href="#DejaVuSans-30"/>
      </g>
     </g>
    </g>
    <g id="xtick_4">
     <g id="line2d_7">
      <path clip-path="url(#p12811def24)" d="M 271.872 307.584 
L 271.872 41.472 
" style="fill:none;stroke:#b0b0b0;stroke-linecap:square;stroke-width:0.8;"/>
     </g>
     <g id="line2d_8">
      <g>
       <use style="stroke:#000000;stroke-width:0.8;" x="271.872" xlink:href="#mf57400a941" y="307.584"/>
      </g>
     </g>
     <g id="text_4">
      <!-- 600 -->
      <defs>
       <path d="M 33.015625 40.375 
Q 26.375 40.375 22.484375 35.828125 
Q 18.609375 31.296875 18.609375 23.390625 
Q 18.609375 15.53125 22.484375 10.953125 
Q 26.375 6.390625 33.015625 6.390625 
Q 39.65625 6.390625 43.53125 10.953125 
Q 47.40625 15.53125 47.40625 23.390625 
Q 47.40625 31.296875 43.53125 35.828125 
Q 39.65625 40.375 33.015625 40.375 
M 52.59375 71.296875 
L 52.59375 62.3125 
Q 48.875 64.0625 45.09375 64.984375 
Q 41.3125 65.921875 37.59375 65.921875 
Q 27.828125 65.921875 22.671875 59.328125 
Q 17.53125 52.734375 16.796875 39.40625 
Q 19.671875 43.65625 24.015625 45.921875 
Q 28.375 48.1875 33.59375 48.1875 
Q 44.578125 48.1875 50.953125 41.515625 
Q 57.328125 34.859375 57.328125 23.390625 
Q 57.328125 12.15625 50.6875 5.359375 
Q 44.046875 -1.421875 33.015625 -1.421875 
Q 20.359375 -1.421875 13.671875 8.265625 
Q 6.984375 17.96875 6.984375 36.375 
Q 6.984375 53.65625 15.1875 63.9375 
Q 23.390625 74.21875 37.203125 74.21875 
Q 40.921875 74.21875 44.703125 73.484375 
Q 48.484375 72.75 52.59375 71.296875 
" id="DejaVuSans-36"/>
      </defs>
      <g transform="translate(262.32825 322.182437)scale(0.1 -0.1)">
       <use xlink:href="#DejaVuSans-36"/>
       <use x="63.623047" xlink:href="#DejaVuSans-30"/>
       <use x="127.246094" xlink:href="#DejaVuSans-30"/>
      </g>
     </g>
    </g>
    <g id="xtick_5">
     <g id="line2d_9">
      <path clip-path="url(#p12811def24)" d="M 343.296 307.584 
L 343.296 41.472 
" style="fill:none;stroke:#b0b0b0;stroke-linecap:square;stroke-width:0.8;"/>
     </g>
     <g id="line2d_10">
      <g>
       <use style="stroke:#000000;stroke-width:0.8;" x="343.296" xlink:href="#mf57400a941" y="307.584"/>
      </g>
     </g>
     <g id="text_5">
      <!-- 800 -->
      <defs>
       <path d="M 31.78125 34.625 
Q 24.75 34.625 20.71875 30.859375 
Q 16.703125 27.09375 16.703125 20.515625 
Q 16.703125 13.921875 20.71875 10.15625 
Q 24.75 6.390625 31.78125 6.390625 
Q 38.8125 6.390625 42.859375 10.171875 
Q 46.921875 13.96875 46.921875 20.515625 
Q 46.921875 27.09375 42.890625 30.859375 
Q 38.875 34.625 31.78125 34.625 
M 21.921875 38.8125 
Q 15.578125 40.375 12.03125 44.71875 
Q 8.5 49.078125 8.5 55.328125 
Q 8.5 64.0625 14.71875 69.140625 
Q 20.953125 74.21875 31.78125 74.21875 
Q 42.671875 74.21875 48.875 69.140625 
Q 55.078125 64.0625 55.078125 55.328125 
Q 55.078125 49.078125 51.53125 44.71875 
Q 48 40.375 41.703125 38.8125 
Q 48.828125 37.15625 52.796875 32.3125 
Q 56.78125 27.484375 56.78125 20.515625 
Q 56.78125 9.90625 50.3125 4.234375 
Q 43.84375 -1.421875 31.78125 -1.421875 
Q 19.734375 -1.421875 13.25 4.234375 
Q 6.78125 9.90625 6.78125 20.515625 
Q 6.78125 27.484375 10.78125 32.3125 
Q 14.796875 37.15625 21.921875 38.8125 
M 18.3125 54.390625 
Q 18.3125 48.734375 21.84375 45.5625 
Q 25.390625 42.390625 31.78125 42.390625 
Q 38.140625 42.390625 41.71875 45.5625 
Q 45.3125 48.734375 45.3125 54.390625 
Q 45.3125 60.0625 41.71875 63.234375 
Q 38.140625 66.40625 31.78125 66.40625 
Q 25.390625 66.40625 21.84375 63.234375 
Q 18.3125 60.0625 18.3125 54.390625 
" id="DejaVuSans-38"/>
      </defs>
      <g transform="translate(333.75225 322.182437)scale(0.1 -0.1)">
       <use xlink:href="#DejaVuSans-38"/>
       <use x="63.623047" xlink:href="#DejaVuSans-30"/>
       <use x="127.246094" xlink:href="#DejaVuSans-30"/>
      </g>
     </g>
    </g>
    <g id="xtick_6">
     <g id="line2d_11">
      <path clip-path="url(#p12811def24)" d="M 414.72 307.584 
L 414.72 41.472 
" style="fill:none;stroke:#b0b0b0;stroke-linecap:square;stroke-width:0.8;"/>
     </g>
     <g id="line2d_12">
      <g>
       <use style="stroke:#000000;stroke-width:0.8;" x="414.72" xlink:href="#mf57400a941" y="307.584"/>
      </g>
     </g>
     <g id="text_6">
      <!-- 1000 -->
      <defs>
       <path d="M 12.40625 8.296875 
L 28.515625 8.296875 
L 28.515625 63.921875 
L 10.984375 60.40625 
L 10.984375 69.390625 
L 28.421875 72.90625 
L 38.28125 72.90625 
L 38.28125 8.296875 
L 54.390625 8.296875 
L 54.390625 0 
L 12.40625 0 
z
" id="DejaVuSans-31"/>
      </defs>
      <g transform="translate(401.995 322.182437)scale(0.1 -0.1)">
       <use xlink:href="#DejaVuSans-31"/>
       <use x="63.623047" xlink:href="#DejaVuSans-30"/>
       <use x="127.246094" xlink:href="#DejaVuSans-30"/>
       <use x="190.869141" xlink:href="#DejaVuSans-30"/>
      </g>
     </g>
    </g>
    <g id="text_7">
     <!-- Number of clients -->
     <defs>
      <path d="M 9.8125 72.90625 
L 23.09375 72.90625 
L 55.421875 11.921875 
L 55.421875 72.90625 
L 64.984375 72.90625 
L 64.984375 0 
L 51.703125 0 
L 19.390625 60.984375 
L 19.390625 0 
L 9.8125 0 
z
" id="DejaVuSans-4e"/>
      <path d="M 8.5 21.578125 
L 8.5 54.6875 
L 17.484375 54.6875 
L 17.484375 21.921875 
Q 17.484375 14.15625 20.5 10.265625 
Q 23.53125 6.390625 29.59375 6.390625 
Q 36.859375 6.390625 41.078125 11.03125 
Q 45.3125 15.671875 45.3125 23.6875 
L 45.3125 54.6875 
L 54.296875 54.6875 
L 54.296875 0 
L 45.3125 0 
L 45.3125 8.40625 
Q 42.046875 3.421875 37.71875 1 
Q 33.40625 -1.421875 27.6875 -1.421875 
Q 18.265625 -1.421875 13.375 4.4375 
Q 8.5 10.296875 8.5 21.578125 
M 31.109375 56 
z
" id="DejaVuSans-75"/>
      <path d="M 52 44.1875 
Q 55.375 50.25 60.0625 53.125 
Q 64.75 56 71.09375 56 
Q 79.640625 56 84.28125 50.015625 
Q 88.921875 44.046875 88.921875 33.015625 
L 88.921875 0 
L 79.890625 0 
L 79.890625 32.71875 
Q 79.890625 40.578125 77.09375 44.375 
Q 74.3125 48.1875 68.609375 48.1875 
Q 61.625 48.1875 57.5625 43.546875 
Q 53.515625 38.921875 53.515625 30.90625 
L 53.515625 0 
L 44.484375 0 
L 44.484375 32.71875 
Q 44.484375 40.625 41.703125 44.40625 
Q 38.921875 48.1875 33.109375 48.1875 
Q 26.21875 48.1875 22.15625 43.53125 
Q 18.109375 38.875 18.109375 30.90625 
L 18.109375 0 
L 9.078125 0 
L 9.078125 54.6875 
L 18.109375 54.6875 
L 18.109375 46.1875 
Q 21.1875 51.21875 25.484375 53.609375 
Q 29.78125 56 35.6875 56 
Q 41.65625 56 45.828125 52.96875 
Q 50 49.953125 52 44.1875 
" id="DejaVuSans-6d"/>
      <path d="M 48.6875 27.296875 
Q 48.6875 37.203125 44.609375 42.84375 
Q 40.53125 48.484375 33.40625 48.484375 
Q 26.265625 48.484375 22.1875 42.84375 
Q 18.109375 37.203125 18.109375 27.296875 
Q 18.109375 17.390625 22.1875 11.75 
Q 26.265625 6.109375 33.40625 6.109375 
Q 40.53125 6.109375 44.609375 11.75 
Q 48.6875 17.390625 48.6875 27.296875 
M 18.109375 46.390625 
Q 20.953125 51.265625 25.265625 53.625 
Q 29.59375 56 35.59375 56 
Q 45.5625 56 51.78125 48.09375 
Q 58.015625 40.1875 58.015625 27.296875 
Q 58.015625 14.40625 51.78125 6.484375 
Q 45.5625 -1.421875 35.59375 -1.421875 
Q 29.59375 -1.421875 25.265625 0.953125 
Q 20.953125 3.328125 18.109375 8.203125 
L 18.109375 0 
L 9.078125 0 
L 9.078125 75.984375 
L 18.109375 75.984375 
z
" id="DejaVuSans-62"/>
      <path d="M 56.203125 29.59375 
L 56.203125 25.203125 
L 14.890625 25.203125 
Q 15.484375 15.921875 20.484375 11.0625 
Q 25.484375 6.203125 34.421875 6.203125 
Q 39.59375 6.203125 44.453125 7.46875 
Q 49.3125 8.734375 54.109375 11.28125 
L 54.109375 2.78125 
Q 49.265625 0.734375 44.1875 -0.34375 
Q 39.109375 -1.421875 33.890625 -1.421875 
Q 20.796875 -1.421875 13.15625 6.1875 
Q 5.515625 13.8125 5.515625 26.8125 
Q 5.515625 40.234375 12.765625 48.109375 
Q 20.015625 56 32.328125 56 
Q 43.359375 56 49.78125 48.890625 
Q 56.203125 41.796875 56.203125 29.59375 
M 47.21875 32.234375 
Q 47.125 39.59375 43.09375 43.984375 
Q 39.0625 48.390625 32.421875 48.390625 
Q 24.90625 48.390625 20.390625 44.140625 
Q 15.875 39.890625 15.1875 32.171875 
z
" id="DejaVuSans-65"/>
      <path d="M 41.109375 46.296875 
Q 39.59375 47.171875 37.8125 47.578125 
Q 36.03125 48 33.890625 48 
Q 26.265625 48 22.1875 43.046875 
Q 18.109375 38.09375 18.109375 28.8125 
L 18.109375 0 
L 9.078125 0 
L 9.078125 54.6875 
L 18.109375 54.6875 
L 18.109375 46.1875 
Q 20.953125 51.171875 25.484375 53.578125 
Q 30.03125 56 36.53125 56 
Q 37.453125 56 38.578125 55.875 
Q 39.703125 55.765625 41.0625 55.515625 
z
" id="DejaVuSans-72"/>
      <path id="DejaVuSans-20"/>
      <path d="M 30.609375 48.390625 
Q 23.390625 48.390625 19.1875 42.75 
Q 14.984375 37.109375 14.984375 27.296875 
Q 14.984375 17.484375 19.15625 11.84375 
Q 23.34375 6.203125 30.609375 6.203125 
Q 37.796875 6.203125 41.984375 11.859375 
Q 46.1875 17.53125 46.1875 27.296875 
Q 46.1875 37.015625 41.984375 42.703125 
Q 37.796875 48.390625 30.609375 48.390625 
M 30.609375 56 
Q 42.328125 56 49.015625 48.375 
Q 55.71875 40.765625 55.71875 27.296875 
Q 55.71875 13.875 49.015625 6.21875 
Q 42.328125 -1.421875 30.609375 -1.421875 
Q 18.84375 -1.421875 12.171875 6.21875 
Q 5.515625 13.875 5.515625 27.296875 
Q 5.515625 40.765625 12.171875 48.375 
Q 18.84375 56 30.609375 56 
" id="DejaVuSans-6f"/>
      <path d="M 37.109375 75.984375 
L 37.109375 68.5 
L 28.515625 68.5 
Q 23.6875 68.5 21.796875 66.546875 
Q 19.921875 64.59375 19.921875 59.515625 
L 19.921875 54.6875 
L 34.71875 54.6875 
L 34.71875 47.703125 
L 19.921875 47.703125 
L 19.921875 0 
L 10.890625 0 
L 10.890625 47.703125 
L 2.296875 47.703125 
L 2.296875 54.6875 
L 10.890625 54.6875 
L 10.890625 58.5 
Q 10.890625 67.625 15.140625 71.796875 
Q 19.390625 75.984375 28.609375 75.984375 
z
" id="DejaVuSans-66"/>
      <path d="M 48.78125 52.59375 
L 48.78125 44.1875 
Q 44.96875 46.296875 41.140625 47.34375 
Q 37.3125 48.390625 33.40625 48.390625 
Q 24.65625 48.390625 19.8125 42.84375 
Q 14.984375 37.3125 14.984375 27.296875 
Q 14.984375 17.28125 19.8125 11.734375 
Q 24.65625 6.203125 33.40625 6.203125 
Q 37.3125 6.203125 41.140625 7.25 
Q 44.96875 8.296875 48.78125 10.40625 
L 48.78125 2.09375 
Q 45.015625 0.34375 40.984375 -0.53125 
Q 36.96875 -1.421875 32.421875 -1.421875 
Q 20.0625 -1.421875 12.78125 6.34375 
Q 5.515625 14.109375 5.515625 27.296875 
Q 5.515625 40.671875 12.859375 48.328125 
Q 20.21875 56 33.015625 56 
Q 37.15625 56 41.109375 55.140625 
Q 45.0625 54.296875 48.78125 52.59375 
" id="DejaVuSans-63"/>
      <path d="M 9.421875 75.984375 
L 18.40625 75.984375 
L 18.40625 0 
L 9.421875 0 
z
" id="DejaVuSans-6c"/>
      <path d="M 9.421875 54.6875 
L 18.40625 54.6875 
L 18.40625 0 
L 9.421875 0 
z
M 9.421875 75.984375 
L 18.40625 75.984375 
L 18.40625 64.59375 
L 9.421875 64.59375 
z
" id="DejaVuSans-69"/>
      <path d="M 54.890625 33.015625 
L 54.890625 0 
L 45.90625 0 
L 45.90625 32.71875 
Q 45.90625 40.484375 42.875 44.328125 
Q 39.84375 48.1875 33.796875 48.1875 
Q 26.515625 48.1875 22.3125 43.546875 
Q 18.109375 38.921875 18.109375 30.90625 
L 18.109375 0 
L 9.078125 0 
L 9.078125 54.6875 
L 18.109375 54.6875 
L 18.109375 46.1875 
Q 21.34375 51.125 25.703125 53.5625 
Q 30.078125 56 35.796875 56 
Q 45.21875 56 50.046875 50.171875 
Q 54.890625 44.34375 54.890625 33.015625 
" id="DejaVuSans-6e"/>
      <path d="M 18.3125 70.21875 
L 18.3125 54.6875 
L 36.8125 54.6875 
L 36.8125 47.703125 
L 18.3125 47.703125 
L 18.3125 18.015625 
Q 18.3125 11.328125 20.140625 9.421875 
Q 21.96875 7.515625 27.59375 7.515625 
L 36.8125 7.515625 
L 36.8125 0 
L 27.59375 0 
Q 17.1875 0 13.234375 3.875 
Q 9.28125 7.765625 9.28125 18.015625 
L 9.28125 47.703125 
L 2.6875 47.703125 
L 2.6875 54.6875 
L 9.28125 54.6875 
L 9.28125 70.21875 
z
" id="DejaVuSans-74"/>
      <path d="M 44.28125 53.078125 
L 44.28125 44.578125 
Q 40.484375 46.53125 36.375 47.5 
Q 32.28125 48.484375 27.875 48.484375 
Q 21.1875 48.484375 17.84375 46.4375 
Q 14.5 44.390625 14.5 40.28125 
Q 14.5 37.15625 16.890625 35.375 
Q 19.28125 33.59375 26.515625 31.984375 
L 29.59375 31.296875 
Q 39.15625 29.25 43.1875 25.515625 
Q 47.21875 21.78125 47.21875 15.09375 
Q 47.21875 7.46875 41.1875 3.015625 
Q 35.15625 -1.421875 24.609375 -1.421875 
Q 20.21875 -1.421875 15.453125 -0.5625 
Q 10.6875 0.296875 5.421875 2 
L 5.421875 11.28125 
Q 10.40625 8.6875 15.234375 7.390625 
Q 20.0625 6.109375 24.8125 6.109375 
Q 31.15625 6.109375 34.5625 8.28125 
Q 37.984375 10.453125 37.984375 14.40625 
Q 37.984375 18.0625 35.515625 20.015625 
Q 33.0625 21.96875 24.703125 23.78125 
L 21.578125 24.515625 
Q 13.234375 26.265625 9.515625 29.90625 
Q 5.8125 33.546875 5.8125 39.890625 
Q 5.8125 47.609375 11.28125 51.796875 
Q 16.75 56 26.8125 56 
Q 31.78125 56 36.171875 55.265625 
Q 40.578125 54.546875 44.28125 53.078125 
" id="DejaVuSans-73"/>
     </defs>
     <g transform="translate(191.738906 335.860562)scale(0.1 -0.1)">
      <use xlink:href="#DejaVuSans-4e"/>
      <use x="74.804688" xlink:href="#DejaVuSans-75"/>
      <use x="138.183594" xlink:href="#DejaVuSans-6d"/>
      <use x="235.595703" xlink:href="#DejaVuSans-62"/>
      <use x="299.072266" xlink:href="#DejaVuSans-65"/>
      <use x="360.595703" xlink:href="#DejaVuSans-72"/>
      <use x="401.708984" xlink:href="#DejaVuSans-20"/>
      <use x="433.496094" xlink:href="#DejaVuSans-6f"/>
      <use x="494.677734" xlink:href="#DejaVuSans-66"/>
      <use x="529.882812" xlink:href="#DejaVuSans-20"/>
      <use x="561.669922" xlink:href="#DejaVuSans-63"/>
      <use x="616.650391" xlink:href="#DejaVuSans-6c"/>
      <use x="644.433594" xlink:href="#DejaVuSans-69"/>
      <use x="672.216797" xlink:href="#DejaVuSans-65"/>
      <use x="733.740234" xlink:href="#DejaVuSans-6e"/>
      <use x="797.119141" xlink:href="#DejaVuSans-74"/>
      <use x="836.328125" xlink:href="#DejaVuSans-73"/>
     </g>
    </g>
   </g>
   <g id="matplotlib.axis_2">
    <g id="ytick_1">
     <g id="line2d_13">
      <path clip-path="url(#p12811def24)" d="M 57.6 295.866323 
L 414.72 295.866323 
" style="fill:none;stroke:#b0b0b0;stroke-linecap:square;stroke-width:0.8;"/>
     </g>
     <g id="line2d_14">
      <defs>
       <path d="M 0 0 
L -3.5 0 
" id="md433ef9356" style="stroke:#000000;stroke-width:0.8;"/>
      </defs>
      <g>
       <use style="stroke:#000000;stroke-width:0.8;" x="57.6" xlink:href="#md433ef9356" y="295.866323"/>
      </g>
     </g>
     <g id="text_8">
      <!-- 0 -->
      <g transform="translate(44.2375 299.665542)scale(0.1 -0.1)">
       <use xlink:href="#DejaVuSans-30"/>
      </g>
     </g>
    </g>
    <g id="ytick_2">
     <g id="line2d_15">
      <path clip-path="url(#p12811def24)" d="M 57.6 255.747253 
L 414.72 255.747253 
" style="fill:none;stroke:#b0b0b0;stroke-linecap:square;stroke-width:0.8;"/>
     </g>
     <g id="line2d_16">
      <g>
       <use style="stroke:#000000;stroke-width:0.8;" x="57.6" xlink:href="#md433ef9356" y="255.747253"/>
      </g>
     </g>
     <g id="text_9">
      <!-- 100 -->
      <g transform="translate(31.5125 259.546471)scale(0.1 -0.1)">
       <use xlink:href="#DejaVuSans-31"/>
       <use x="63.623047" xlink:href="#DejaVuSans-30"/>
       <use x="127.246094" xlink:href="#DejaVuSans-30"/>
      </g>
     </g>
    </g>
    <g id="ytick_3">
     <g id="line2d_17">
      <path clip-path="url(#p12811def24)" d="M 57.6 215.628182 
L 414.72 215.628182 
" style="fill:none;stroke:#b0b0b0;stroke-linecap:square;stroke-width:0.8;"/>
     </g>
     <g id="line2d_18">
      <g>
       <use style="stroke:#000000;stroke-width:0.8;" x="57.6" xlink:href="#md433ef9356" y="215.628182"/>
      </g>
     </g>
     <g id="text_10">
      <!-- 200 -->
      <g transform="translate(31.5125 219.427401)scale(0.1 -0.1)">
       <use xlink:href="#DejaVuSans-32"/>
       <use x="63.623047" xlink:href="#DejaVuSans-30"/>
       <use x="127.246094" xlink:href="#DejaVuSans-30"/>
      </g>
     </g>
    </g>
    <g id="ytick_4">
     <g id="line2d_19">
      <path clip-path="url(#p12811def24)" d="M 57.6 175.509112 
L 414.72 175.509112 
" style="fill:none;stroke:#b0b0b0;stroke-linecap:square;stroke-width:0.8;"/>
     </g>
     <g id="line2d_20">
      <g>
       <use style="stroke:#000000;stroke-width:0.8;" x="57.6" xlink:href="#md433ef9356" y="175.509112"/>
      </g>
     </g>
     <g id="text_11">
      <!-- 300 -->
      <defs>
       <path d="M 40.578125 39.3125 
Q 47.65625 37.796875 51.625 33 
Q 55.609375 28.21875 55.609375 21.1875 
Q 55.609375 10.40625 48.1875 4.484375 
Q 40.765625 -1.421875 27.09375 -1.421875 
Q 22.515625 -1.421875 17.65625 -0.515625 
Q 12.796875 0.390625 7.625 2.203125 
L 7.625 11.71875 
Q 11.71875 9.328125 16.59375 8.109375 
Q 21.484375 6.890625 26.8125 6.890625 
Q 36.078125 6.890625 40.9375 10.546875 
Q 45.796875 14.203125 45.796875 21.1875 
Q 45.796875 27.640625 41.28125 31.265625 
Q 36.765625 34.90625 28.71875 34.90625 
L 20.21875 34.90625 
L 20.21875 43.015625 
L 29.109375 43.015625 
Q 36.375 43.015625 40.234375 45.921875 
Q 44.09375 48.828125 44.09375 54.296875 
Q 44.09375 59.90625 40.109375 62.90625 
Q 36.140625 65.921875 28.71875 65.921875 
Q 24.65625 65.921875 20.015625 65.03125 
Q 15.375 64.15625 9.8125 62.3125 
L 9.8125 71.09375 
Q 15.4375 72.65625 20.34375 73.4375 
Q 25.25 74.21875 29.59375 74.21875 
Q 40.828125 74.21875 47.359375 69.109375 
Q 53.90625 64.015625 53.90625 55.328125 
Q 53.90625 49.265625 50.4375 45.09375 
Q 46.96875 40.921875 40.578125 39.3125 
" id="DejaVuSans-33"/>
      </defs>
      <g transform="translate(31.5125 179.308331)scale(0.1 -0.1)">
       <use xlink:href="#DejaVuSans-33"/>
       <use x="63.623047" xlink:href="#DejaVuSans-30"/>
       <use x="127.246094" xlink:href="#DejaVuSans-30"/>
      </g>
     </g>
    </g>
    <g id="ytick_5">
     <g id="line2d_21">
      <path clip-path="url(#p12811def24)" d="M 57.6 135.390042 
L 414.72 135.390042 
" style="fill:none;stroke:#b0b0b0;stroke-linecap:square;stroke-width:0.8;"/>
     </g>
     <g id="line2d_22">
      <g>
       <use style="stroke:#000000;stroke-width:0.8;" x="57.6" xlink:href="#md433ef9356" y="135.390042"/>
      </g>
     </g>
     <g id="text_12">
      <!-- 400 -->
      <g transform="translate(31.5125 139.18926)scale(0.1 -0.1)">
       <use xlink:href="#DejaVuSans-34"/>
       <use x="63.623047" xlink:href="#DejaVuSans-30"/>
       <use x="127.246094" xlink:href="#DejaVuSans-30"/>
      </g>
     </g>
    </g>
    <g id="ytick_6">
     <g id="line2d_23">
      <path clip-path="url(#p12811def24)" d="M 57.6 95.270971 
L 414.72 95.270971 
" style="fill:none;stroke:#b0b0b0;stroke-linecap:square;stroke-width:0.8;"/>
     </g>
     <g id="line2d_24">
      <g>
       <use style="stroke:#000000;stroke-width:0.8;" x="57.6" xlink:href="#md433ef9356" y="95.270971"/>
      </g>
     </g>
     <g id="text_13">
      <!-- 500 -->
      <defs>
       <path d="M 10.796875 72.90625 
L 49.515625 72.90625 
L 49.515625 64.59375 
L 19.828125 64.59375 
L 19.828125 46.734375 
Q 21.96875 47.46875 24.109375 47.828125 
Q 26.265625 48.1875 28.421875 48.1875 
Q 40.625 48.1875 47.75 41.5 
Q 54.890625 34.8125 54.890625 23.390625 
Q 54.890625 11.625 47.5625 5.09375 
Q 40.234375 -1.421875 26.90625 -1.421875 
Q 22.3125 -1.421875 17.546875 -0.640625 
Q 12.796875 0.140625 7.71875 1.703125 
L 7.71875 11.625 
Q 12.109375 9.234375 16.796875 8.0625 
Q 21.484375 6.890625 26.703125 6.890625 
Q 35.15625 6.890625 40.078125 11.328125 
Q 45.015625 15.765625 45.015625 23.390625 
Q 45.015625 31 40.078125 35.4375 
Q 35.15625 39.890625 26.703125 39.890625 
Q 22.75 39.890625 18.8125 39.015625 
Q 14.890625 38.140625 10.796875 36.28125 
z
" id="DejaVuSans-35"/>
      </defs>
      <g transform="translate(31.5125 99.07019)scale(0.1 -0.1)">
       <use xlink:href="#DejaVuSans-35"/>
       <use x="63.623047" xlink:href="#DejaVuSans-30"/>
       <use x="127.246094" xlink:href="#DejaVuSans-30"/>
      </g>
     </g>
    </g>
    <g id="ytick_7">
     <g id="line2d_25">
      <path clip-path="url(#p12811def24)" d="M 57.6 55.151901 
L 414.72 55.151901 
" style="fill:none;stroke:#b0b0b0;stroke-linecap:square;stroke-width:0.8;"/>
     </g>
     <g id="line2d_26">
      <g>
       <use style="stroke:#000000;stroke-width:0.8;" x="57.6" xlink:href="#md433ef9356" y="55.151901"/>
      </g>
     </g>
     <g id="text_14">
      <!-- 600 -->
      <g transform="translate(31.5125 58.95112)scale(0.1 -0.1)">
       <use xlink:href="#DejaVuSans-36"/>
       <use x="63.623047" xlink:href="#DejaVuSans-30"/>
       <use x="127.246094" xlink:href="#DejaVuSans-30"/>
      </g>
     </g>
    </g>
    <g id="text_15">
     <!-- Successful download requests per second -->
     <defs>
      <path d="M 53.515625 70.515625 
L 53.515625 60.890625 
Q 47.90625 63.578125 42.921875 64.890625 
Q 37.9375 66.21875 33.296875 66.21875 
Q 25.25 66.21875 20.875 63.09375 
Q 16.5 59.96875 16.5 54.203125 
Q 16.5 49.359375 19.40625 46.890625 
Q 22.3125 44.4375 30.421875 42.921875 
L 36.375 41.703125 
Q 47.40625 39.59375 52.65625 34.296875 
Q 57.90625 29 57.90625 20.125 
Q 57.90625 9.515625 50.796875 4.046875 
Q 43.703125 -1.421875 29.984375 -1.421875 
Q 24.8125 -1.421875 18.96875 -0.25 
Q 13.140625 0.921875 6.890625 3.21875 
L 6.890625 13.375 
Q 12.890625 10.015625 18.65625 8.296875 
Q 24.421875 6.59375 29.984375 6.59375 
Q 38.421875 6.59375 43.015625 9.90625 
Q 47.609375 13.234375 47.609375 19.390625 
Q 47.609375 24.75 44.3125 27.78125 
Q 41.015625 30.8125 33.5 32.328125 
L 27.484375 33.5 
Q 16.453125 35.6875 11.515625 40.375 
Q 6.59375 45.0625 6.59375 53.421875 
Q 6.59375 63.09375 13.40625 68.65625 
Q 20.21875 74.21875 32.171875 74.21875 
Q 37.3125 74.21875 42.625 73.28125 
Q 47.953125 72.359375 53.515625 70.515625 
" id="DejaVuSans-53"/>
      <path d="M 45.40625 46.390625 
L 45.40625 75.984375 
L 54.390625 75.984375 
L 54.390625 0 
L 45.40625 0 
L 45.40625 8.203125 
Q 42.578125 3.328125 38.25 0.953125 
Q 33.9375 -1.421875 27.875 -1.421875 
Q 17.96875 -1.421875 11.734375 6.484375 
Q 5.515625 14.40625 5.515625 27.296875 
Q 5.515625 40.1875 11.734375 48.09375 
Q 17.96875 56 27.875 56 
Q 33.9375 56 38.25 53.625 
Q 42.578125 51.265625 45.40625 46.390625 
M 14.796875 27.296875 
Q 14.796875 17.390625 18.875 11.75 
Q 22.953125 6.109375 30.078125 6.109375 
Q 37.203125 6.109375 41.296875 11.75 
Q 45.40625 17.390625 45.40625 27.296875 
Q 45.40625 37.203125 41.296875 42.84375 
Q 37.203125 48.484375 30.078125 48.484375 
Q 22.953125 48.484375 18.875 42.84375 
Q 14.796875 37.203125 14.796875 27.296875 
" id="DejaVuSans-64"/>
      <path d="M 4.203125 54.6875 
L 13.1875 54.6875 
L 24.421875 12.015625 
L 35.59375 54.6875 
L 46.1875 54.6875 
L 57.421875 12.015625 
L 68.609375 54.6875 
L 77.59375 54.6875 
L 63.28125 0 
L 52.6875 0 
L 40.921875 44.828125 
L 29.109375 0 
L 18.5 0 
z
" id="DejaVuSans-77"/>
      <path d="M 34.28125 27.484375 
Q 23.390625 27.484375 19.1875 25 
Q 14.984375 22.515625 14.984375 16.5 
Q 14.984375 11.71875 18.140625 8.90625 
Q 21.296875 6.109375 26.703125 6.109375 
Q 34.1875 6.109375 38.703125 11.40625 
Q 43.21875 16.703125 43.21875 25.484375 
L 43.21875 27.484375 
z
M 52.203125 31.203125 
L 52.203125 0 
L 43.21875 0 
L 43.21875 8.296875 
Q 40.140625 3.328125 35.546875 0.953125 
Q 30.953125 -1.421875 24.3125 -1.421875 
Q 15.921875 -1.421875 10.953125 3.296875 
Q 6 8.015625 6 15.921875 
Q 6 25.140625 12.171875 29.828125 
Q 18.359375 34.515625 30.609375 34.515625 
L 43.21875 34.515625 
L 43.21875 35.40625 
Q 43.21875 41.609375 39.140625 45 
Q 35.0625 48.390625 27.6875 48.390625 
Q 23 48.390625 18.546875 47.265625 
Q 14.109375 46.140625 10.015625 43.890625 
L 10.015625 52.203125 
Q 14.9375 54.109375 19.578125 55.046875 
Q 24.21875 56 28.609375 56 
Q 40.484375 56 46.34375 49.84375 
Q 52.203125 43.703125 52.203125 31.203125 
" id="DejaVuSans-61"/>
      <path d="M 14.796875 27.296875 
Q 14.796875 17.390625 18.875 11.75 
Q 22.953125 6.109375 30.078125 6.109375 
Q 37.203125 6.109375 41.296875 11.75 
Q 45.40625 17.390625 45.40625 27.296875 
Q 45.40625 37.203125 41.296875 42.84375 
Q 37.203125 48.484375 30.078125 48.484375 
Q 22.953125 48.484375 18.875 42.84375 
Q 14.796875 37.203125 14.796875 27.296875 
M 45.40625 8.203125 
Q 42.578125 3.328125 38.25 0.953125 
Q 33.9375 -1.421875 27.875 -1.421875 
Q 17.96875 -1.421875 11.734375 6.484375 
Q 5.515625 14.40625 5.515625 27.296875 
Q 5.515625 40.1875 11.734375 48.09375 
Q 17.96875 56 27.875 56 
Q 33.9375 56 38.25 53.625 
Q 42.578125 51.265625 45.40625 46.390625 
L 45.40625 54.6875 
L 54.390625 54.6875 
L 54.390625 -20.796875 
L 45.40625 -20.796875 
z
" id="DejaVuSans-71"/>
      <path d="M 18.109375 8.203125 
L 18.109375 -20.796875 
L 9.078125 -20.796875 
L 9.078125 54.6875 
L 18.109375 54.6875 
L 18.109375 46.390625 
Q 20.953125 51.265625 25.265625 53.625 
Q 29.59375 56 35.59375 56 
Q 45.5625 56 51.78125 48.09375 
Q 58.015625 40.1875 58.015625 27.296875 
Q 58.015625 14.40625 51.78125 6.484375 
Q 45.5625 -1.421875 35.59375 -1.421875 
Q 29.59375 -1.421875 25.265625 0.953125 
Q 20.953125 3.328125 18.109375 8.203125 
M 48.6875 27.296875 
Q 48.6875 37.203125 44.609375 42.84375 
Q 40.53125 48.484375 33.40625 48.484375 
Q 26.265625 48.484375 22.1875 42.84375 
Q 18.109375 37.203125 18.109375 27.296875 
Q 18.109375 17.390625 22.1875 11.75 
Q 26.265625 6.109375 33.40625 6.109375 
Q 40.53125 6.109375 44.609375 11.75 
Q 48.6875 17.390625 48.6875 27.296875 
" id="DejaVuSans-70"/>
     </defs>
     <g transform="translate(25.432812 279.366281)rotate(-90)scale(0.1 -0.1)">
      <use xlink:href="#DejaVuSans-53"/>
      <use x="63.476562" xlink:href="#DejaVuSans-75"/>
      <use x="126.855469" xlink:href="#DejaVuSans-63"/>
      <use x="181.835938" xlink:href="#DejaVuSans-63"/>
      <use x="236.816406" xlink:href="#DejaVuSans-65"/>
      <use x="298.339844" xlink:href="#DejaVuSans-73"/>
      <use x="350.439453" xlink:href="#DejaVuSans-73"/>
      <use x="402.539062" xlink:href="#DejaVuSans-66"/>
      <use x="437.744141" xlink:href="#DejaVuSans-75"/>
      <use x="501.123047" xlink:href="#DejaVuSans-6c"/>
      <use x="528.90625" xlink:href="#DejaVuSans-20"/>
      <use x="560.693359" xlink:href="#DejaVuSans-64"/>
      <use x="624.169922" xlink:href="#DejaVuSans-6f"/>
      <use x="685.351562" xlink:href="#DejaVuSans-77"/>
      <use x="767.138672" xlink:href="#DejaVuSans-6e"/>
      <use x="830.517578" xlink:href="#DejaVuSans-6c"/>
      <use x="858.300781" xlink:href="#DejaVuSans-6f"/>
      <use x="919.482422" xlink:href="#DejaVuSans-61"/>
      <use x="980.761719" xlink:href="#DejaVuSans-64"/>
      <use x="1044.238281" xlink:href="#DejaVuSans-20"/>
      <use x="1076.025391" xlink:href="#DejaVuSans-72"/>
      <use x="1117.107422" xlink:href="#DejaVuSans-65"/>
      <use x="1178.630859" xlink:href="#DejaVuSans-71"/>
      <use x="1242.107422" xlink:href="#DejaVuSans-75"/>
      <use x="1305.486328" xlink:href="#DejaVuSans-65"/>
      <use x="1367.009766" xlink:href="#DejaVuSans-73"/>
      <use x="1419.109375" xlink:href="#DejaVuSans-74"/>
      <use x="1458.318359" xlink:href="#DejaVuSans-73"/>
      <use x="1510.417969" xlink:href="#DejaVuSans-20"/>
      <use x="1542.205078" xlink:href="#DejaVuSans-70"/>
      <use x="1605.681641" xlink:href="#DejaVuSans-65"/>
      <use x="1667.205078" xlink:href="#DejaVuSans-72"/>
      <use x="1708.318359" xlink:href="#DejaVuSans-20"/>
      <use x="1740.105469" xlink:href="#DejaVuSans-73"/>
      <use x="1792.205078" xlink:href="#DejaVuSans-65"/>
      <use x="1853.728516" xlink:href="#DejaVuSans-63"/>
      <use x="1908.708984" xlink:href="#DejaVuSans-6f"/>
      <use x="1969.890625" xlink:href="#DejaVuSans-6e"/>
      <use x="2033.269531" xlink:href="#DejaVuSans-64"/>
     </g>
    </g>
   </g>
   <g id="line2d_27">
    <path clip-path="url(#p12811def24)" d="M 57.6 295.488 
L 57.95712 295.473958 
L 59.3856 293.942613 
L 61.1712 291.961534 
L 61.52832 291.684311 
L 61.88544 291.158751 
L 62.24256 290.977413 
L 63.31392 289.796307 
L 64.7424 288.053134 
L 65.09952 287.94722 
L 65.81376 286.688684 
L 66.17088 286.71757 
L 66.528 286.092916 
L 66.88512 286.09412 
L 67.24224 285.468663 
L 67.59936 285.221931 
L 67.95648 284.352952 
L 68.3136 284.630977 
L 68.67072 284.15356 
L 69.02784 283.922474 
L 69.38496 283.514865 
L 69.74208 282.575276 
L 70.0992 282.436865 
L 70.45632 282.096656 
L 71.17056 281.052356 
L 71.52768 281.193575 
L 71.8848 280.895892 
L 72.24192 279.701948 
L 73.6704 278.917219 
L 74.02752 277.739724 
L 74.38464 278.072713 
L 74.74176 277.865698 
L 75.09888 276.232852 
L 75.456 276.942559 
L 75.81312 275.452937 
L 76.17024 276.169865 
L 77.2416 275.164883 
L 77.59872 274.643736 
L 77.95584 273.507564 
L 78.31296 274.147864 
L 78.67008 272.549119 
L 79.0272 272.878497 
L 79.38432 272.332476 
L 79.74144 272.561155 
L 80.45568 271.983841 
L 80.8128 271.384463 
L 81.16992 269.682612 
L 81.52704 270.864519 
L 81.88416 269.962242 
L 82.24128 269.78652 
L 82.5984 269.086442 
L 82.95552 268.681641 
L 83.31264 267.009077 
L 83.66976 267.977551 
L 84.02688 268.177344 
L 84.384 267.352496 
L 84.74112 265.920245 
L 85.09824 266.747902 
L 85.45536 266.599461 
L 85.81248 264.434235 
L 86.1696 264.128126 
L 86.52672 265.20773 
L 86.88384 262.998774 
L 87.24096 264.690997 
L 87.59808 263.267973 
L 87.9552 262.631685 
L 88.31232 261.660803 
L 88.66944 262.650942 
L 89.02656 261.81446 
L 89.38368 262.529783 
L 89.7408 259.79968 
L 90.09792 259.570199 
L 90.45504 260.189236 
L 90.81216 260.464854 
L 91.16928 259.228785 
L 91.5264 258.503031 
L 91.88352 259.155769 
L 92.24064 258.113876 
L 92.59776 258.030429 
L 92.95488 257.466355 
L 93.66912 257.700249 
L 94.02624 256.328578 
L 94.38336 255.958279 
L 94.74048 255.96189 
L 95.0976 254.926818 
L 95.45472 255.105347 
L 95.81184 253.12507 
L 96.16896 252.841027 
L 96.52608 254.06185 
L 96.8832 251.979269 
L 97.24032 252.26933 
L 97.59744 251.911067 
L 98.31168 250.476409 
L 98.6688 252.442243 
L 99.02592 250.953826 
L 99.74016 249.907521 
L 100.09728 248.789803 
L 100.4544 248.491719 
L 100.81152 249.384769 
L 101.52576 249.511144 
L 101.88288 246.679139 
L 102.24 246.949542 
L 102.59712 246.038036 
L 102.95424 247.319038 
L 103.31136 247.921627 
L 103.66848 246.525483 
L 104.0256 247.274907 
L 104.38272 244.274402 
L 104.73984 245.848674 
L 105.09696 242.88909 
L 105.45408 243.145451 
L 105.8112 244.780303 
L 106.16832 241.965148 
L 106.52544 240.980225 
L 106.88256 241.401074 
L 107.23968 240.116462 
L 107.5968 240.765187 
L 107.95392 239.345774 
L 108.31104 240.057888 
L 108.66816 241.042008 
L 109.02528 240.027798 
L 109.3824 239.794707 
L 109.73952 240.457875 
L 110.09664 237.010844 
L 110.45376 239.403546 
L 111.168 236.108968 
L 111.52512 237.355868 
L 111.88224 237.438112 
L 112.23936 238.574686 
L 112.59648 236.738436 
L 112.9536 237.103118 
L 113.31072 235.545696 
L 113.66784 236.66221 
L 114.02496 232.788713 
L 114.38208 235.716202 
L 114.7392 235.342292 
L 115.09632 231.324367 
L 115.81056 233.900814 
L 116.16768 231.093683 
L 116.88192 230.662403 
L 117.23904 231.400192 
L 117.59616 229.735251 
L 117.95328 229.066466 
L 118.3104 230.700115 
L 118.66752 229.034772 
L 119.02464 230.088299 
L 119.38176 229.919397 
L 119.73888 226.161845 
L 120.096 226.449098 
L 120.45312 225.370296 
L 120.81024 228.598678 
L 121.16736 224.879239 
L 121.52448 226.792918 
L 121.8816 225.658752 
L 122.23872 223.499945 
L 122.59584 223.15131 
L 122.95296 224.796995 
L 123.31008 222.135094 
L 123.6672 221.890368 
L 124.02432 224.096917 
L 124.38144 221.174644 
L 124.73856 222.337696 
L 125.09568 222.918218 
L 125.4528 224.463605 
L 126.16704 221.226397 
L 126.52416 223.439365 
L 126.88128 222.121454 
L 127.2384 222.721635 
L 127.59552 219.605186 
L 127.95264 218.696087 
L 128.30976 216.875484 
L 128.66688 219.058363 
L 129.024 217.492917 
L 129.38112 219.635676 
L 129.73824 219.48884 
L 130.09536 217.639752 
L 130.45248 214.447478 
L 131.16672 217.924197 
L 131.52384 215.900992 
L 131.88096 214.895207 
L 132.23808 214.758401 
L 132.5952 217.106971 
L 132.95232 213.43728 
L 133.30944 214.993498 
L 133.66656 214.211177 
L 134.02368 210.606478 
L 134.3808 210.352926 
L 134.73792 212.624467 
L 135.09504 212.269414 
L 135.80928 210.373386 
L 136.1664 210.236179 
L 136.52352 208.748564 
L 136.88064 212.99918 
L 137.23776 206.920739 
L 137.59488 209.490767 
L 137.952 208.97283 
L 138.30912 207.006193 
L 138.66624 205.752071 
L 139.02336 207.884399 
L 139.38048 209.260885 
L 139.7376 209.451049 
L 140.09472 207.706271 
L 140.45184 205.383376 
L 140.80896 208.114282 
L 141.16608 204.557325 
L 141.5232 208.014385 
L 141.88032 201.682392 
L 142.23744 206.255164 
L 142.59456 206.371509 
L 142.95168 203.75374 
L 143.3088 203.617736 
L 143.66592 200.336799 
L 144.02304 204.996629 
L 144.38016 204.491529 
L 144.73728 202.210359 
L 145.0944 197.739891 
L 145.45152 203.646622 
L 145.80864 202.543347 
L 146.16576 202.019392 
L 146.52288 202.479959 
L 146.88 195.631634 
L 147.23712 202.082379 
L 147.59424 195.686196 
L 147.95136 195.089625 
L 148.30848 197.030987 
L 148.6656 197.451435 
L 149.02272 193.585561 
L 149.37984 195.791709 
L 149.73696 194.706488 
L 150.09408 198.962319 
L 150.4512 197.945702 
L 150.80832 197.356353 
L 151.16544 194.462564 
L 151.52256 196.055291 
L 151.87968 196.654269 
L 152.2368 189.893002 
L 152.59392 191.592446 
L 152.95104 194.124762 
L 153.30816 191.726444 
L 153.66528 188.097273 
L 154.0224 192.769138 
L 154.37952 192.600237 
L 154.73664 187.613437 
L 155.09376 187.215455 
L 155.45088 187.055781 
L 156.16512 189.431633 
L 156.52224 187.980526 
L 156.87936 190.378042 
L 157.23648 189.606953 
L 157.5936 184.72045 
L 157.95072 190.581044 
L 158.30784 190.341132 
L 158.66496 189.72049 
L 159.02208 186.817073 
L 159.3792 181.711119 
L 159.73632 186.531024 
L 160.09344 188.437883 
L 160.45056 188.217229 
L 161.1648 181.874805 
L 161.52192 183.042671 
L 161.87904 182.876177 
L 162.23616 183.871531 
L 162.59328 178.279735 
L 162.9504 184.623362 
L 163.30752 180.447368 
L 163.66464 183.285391 
L 164.02176 181.466794 
L 164.37888 182.275193 
L 164.736 175.947212 
L 165.09312 183.400533 
L 165.45024 179.549503 
L 165.80736 179.734452 
L 166.16448 174.826285 
L 166.5216 176.535358 
L 166.87872 180.071453 
L 167.23584 177.132329 
L 167.59296 177.6278 
L 167.95008 175.300092 
L 168.3072 179.950694 
L 168.66432 172.703184 
L 169.02144 171.491989 
L 169.37856 178.582634 
L 169.73568 173.710574 
L 170.0928 173.481093 
L 170.44992 176.615596 
L 170.80704 169.276614 
L 171.16416 177.057307 
L 171.52128 170.950382 
L 171.8784 173.677275 
L 172.23552 174.223697 
L 172.59264 174.233727 
L 172.94976 168.322583 
L 173.30688 168.227902 
L 173.664 172.45244 
L 174.02112 168.062611 
L 174.37824 172.143122 
L 174.73536 165.316461 
L 175.09248 165.685556 
L 175.4496 172.101398 
L 175.80672 166.353539 
L 176.16384 166.19547 
L 176.52096 167.918183 
L 176.87808 164.166648 
L 177.2352 169.247729 
L 177.59232 165.510637 
L 177.94944 168.236327 
L 178.30656 161.422103 
L 178.66368 168.821263 
L 179.0208 159.767191 
L 179.37792 165.08377 
L 179.73504 158.841644 
L 180.09216 163.016435 
L 180.44928 161.411672 
L 180.8064 163.249526 
L 181.16352 157.579097 
L 181.52064 161.515981 
L 181.87776 162.057188 
L 182.23488 165.61254 
L 182.592 155.911347 
L 182.94912 157.049525 
L 183.30624 156.050962 
L 183.66336 163.405991 
L 184.02048 161.609058 
L 184.3776 162.48606 
L 184.73472 156.591767 
L 185.09184 157.573881 
L 185.44896 160.243003 
L 185.80608 160.126257 
L 186.1632 160.567165 
L 186.52032 159.288972 
L 187.23456 154.067074 
L 187.59168 155.782164 
L 187.9488 158.943948 
L 188.30592 151.415203 
L 188.66304 150.46398 
L 189.02016 153.126683 
L 189.37728 150.003012 
L 189.7344 156.237114 
L 190.09152 151.379497 
L 190.80576 155.8279 
L 191.16288 154.559736 
L 191.52 154.73987 
L 191.87712 148.101769 
L 192.23424 151.637061 
L 192.59136 148.334861 
L 192.94848 149.945641 
L 193.3056 150.884027 
L 193.66272 143.900901 
L 194.37696 142.898727 
L 194.73408 143.437526 
L 195.0912 148.965533 
L 195.44832 150.155865 
L 195.80544 147.887132 
L 196.16256 140.847037 
L 196.51968 149.318179 
L 196.8768 149.313766 
L 197.23392 149.179768 
L 197.59104 139.7225 
L 197.94816 145.90204 
L 198.30528 141.205301 
L 198.6624 142.864626 
L 199.01952 141.954725 
L 199.37664 136.916973 
L 199.73376 139.064948 
L 200.09088 138.794145 
L 200.448 138.995944 
L 200.80512 137.128401 
L 201.16224 137.61344 
L 201.51936 139.879366 
L 201.87648 140.581449 
L 202.2336 139.616987 
L 202.59072 142.093136 
L 202.94784 141.382627 
L 203.30496 138.069995 
L 204.0192 142.385604 
L 204.37632 141.51502 
L 204.73344 132.935958 
L 205.09056 136.901728 
L 205.44768 132.970862 
L 205.8048 132.285628 
L 206.16192 134.905804 
L 206.51904 128.874303 
L 206.87616 139.661118 
L 207.23328 133.65088 
L 207.5904 131.75405 
L 207.94752 133.434237 
L 208.30464 130.378768 
L 208.66176 136.298337 
L 209.01888 138.108911 
L 209.376 131.730781 
L 209.73312 133.517685 
L 210.09024 132.992125 
L 210.44736 135.998648 
L 210.80448 135.678096 
L 211.1616 128.552147 
L 211.51872 135.693342 
L 211.87584 128.553351 
L 212.23296 130.438145 
L 212.59008 136.360522 
L 212.9472 128.314642 
L 213.30432 131.981525 
L 213.66144 129.774174 
L 214.01856 129.233369 
L 214.37568 127.657492 
L 214.7328 134.375029 
L 215.08992 128.812921 
L 215.44704 134.665491 
L 215.80416 131.581538 
L 216.16128 134.64503 
L 216.5184 123.726224 
L 217.23264 130.865413 
L 217.94688 125.169307 
L 218.304 131.884437 
L 218.66112 130.724996 
L 219.01824 123.81248 
L 219.37536 125.790752 
L 219.73248 131.021476 
L 220.0896 123.699344 
L 220.44672 128.633188 
L 220.80384 131.189575 
L 221.16096 130.12321 
L 221.51808 126.724724 
L 221.8752 125.702088 
L 222.23232 120.818795 
L 222.58944 129.878885 
L 222.94656 131.038326 
L 223.30368 129.451216 
L 223.6608 125.455356 
L 224.01792 131.370111 
L 224.37504 123.36435 
L 224.73216 122.248639 
L 225.08928 124.660999 
L 225.4464 119.317941 
L 225.80352 126.225642 
L 226.16064 127.718473 
L 226.51776 130.172155 
L 226.87488 124.604832 
L 227.232 128.256871 
L 227.58912 119.237301 
L 227.94624 125.450542 
L 228.30336 117.461631 
L 228.66048 118.622677 
L 229.0176 126.805764 
L 229.37472 117.983581 
L 229.73184 126.119728 
L 230.08896 126.215613 
L 230.44608 125.270006 
L 230.8032 120.400754 
L 231.16032 122.695164 
L 231.51744 122.210927 
L 231.87456 121.461503 
L 232.23168 124.748458 
L 232.5888 126.930534 
L 232.94592 127.86571 
L 233.30304 120.315301 
L 233.66016 118.765501 
L 234.01728 124.234132 
L 234.3744 119.578715 
L 234.73152 117.73404 
L 235.08864 117.423518 
L 235.44576 117.685496 
L 235.80288 114.447887 
L 236.16 115.192898 
L 236.51712 113.95041 
L 236.87424 120.121125 
L 237.23136 120.784694 
L 237.58848 125.771494 
L 237.9456 121.950955 
L 238.30272 122.119857 
L 238.65984 121.597506 
L 239.01696 123.537665 
L 239.37408 118.432513 
L 239.7312 118.793986 
L 240.08832 124.287891 
L 240.44544 116.082338 
L 240.80256 113.686427 
L 241.15968 114.871544 
L 241.5168 112.17474 
L 241.87392 111.682479 
L 242.23104 119.076424 
L 242.58816 112.857968 
L 242.94528 118.452974 
L 243.3024 115.827582 
L 243.65952 121.954566 
L 244.01664 122.237004 
L 244.37376 119.778107 
L 244.73088 120.450101 
L 245.088 120.602955 
L 245.44512 117.512984 
L 245.80224 120.089431 
L 246.15936 114.749983 
L 246.51648 121.756378 
L 246.8736 112.045156 
L 247.23072 117.570354 
L 247.58784 120.840459 
L 247.94496 119.609205 
L 248.30208 121.575842 
L 248.6592 118.322587 
L 249.01632 108.563623 
L 249.37344 115.167222 
L 249.73056 110.257851 
L 250.4448 120.168465 
L 250.80192 118.127608 
L 251.15904 117.033561 
L 251.51616 118.566912 
L 251.87328 109.448649 
L 252.2304 118.335024 
L 252.58752 117.398243 
L 252.94464 107.714703 
L 253.30176 117.47126 
L 253.65888 107.653722 
L 254.016 108.101852 
L 254.37312 116.96576 
L 255.08736 106.763079 
L 255.44448 115.035631 
L 255.8016 116.053452 
L 256.15872 108.358213 
L 256.51584 110.388238 
L 256.87296 111.539655 
L 257.23008 114.03105 
L 257.5872 105.093724 
L 257.94432 108.964813 
L 258.30144 117.441171 
L 258.65856 111.546074 
L 259.01568 117.205271 
L 259.3728 108.842049 
L 259.72992 105.63132 
L 260.08704 107.800157 
L 260.44416 113.704079 
L 260.80128 111.771544 
L 261.1584 114.396534 
L 261.51552 106.13 
L 261.87264 115.254681 
L 262.22976 105.286296 
L 262.58688 105.42591 
L 262.944 106.513939 
L 263.30112 115.058499 
L 263.65824 114.18952 
L 264.01536 104.741078 
L 264.37248 107.545 
L 264.7296 101.734956 
L 265.08672 105.044779 
L 265.80096 112.566302 
L 266.15808 105.680666 
L 266.5152 109.550953 
L 266.87232 109.057489 
L 267.22944 101.457733 
L 267.58656 110.571983 
L 267.94368 103.989648 
L 268.3008 112.147459 
L 268.65792 110.01152 
L 269.01504 112.370923 
L 269.37216 112.689468 
L 269.72928 110.921019 
L 270.0864 102.497218 
L 270.44352 110.664659 
L 270.80064 107.473989 
L 271.15776 106.634297 
L 271.51488 111.887488 
L 271.872 112.002629 
L 272.22912 110.696353 
L 272.58624 98.722816 
L 272.94336 102.078776 
L 273.30048 106.975309 
L 273.6576 107.421433 
L 274.01472 107.327955 
L 274.37184 101.522325 
L 274.72896 110.374598 
L 275.08608 104.244404 
L 275.4432 103.260684 
L 275.80032 99.355494 
L 276.15744 105.909345 
L 276.51456 106.220669 
L 276.87168 102.491601 
L 277.2288 101.936755 
L 277.58592 99.442151 
L 277.94304 101.301269 
L 278.30016 96.483771 
L 278.65728 105.447173 
L 279.0144 100.304711 
L 279.37152 102.184691 
L 279.72864 98.630542 
L 280.08576 103.82195 
L 280.44288 107.337183 
L 280.8 100.003016 
L 281.15712 109.071129 
L 281.51424 102.783668 
L 281.87136 100.975903 
L 282.22848 107.121743 
L 282.5856 101.637868 
L 282.94272 99.03735 
L 283.29984 102.66973 
L 283.65696 101.591731 
L 284.01408 102.886373 
L 284.3712 98.075294 
L 284.72832 95.84668 
L 285.08544 104.941673 
L 285.44256 105.634128 
L 285.79968 105.037558 
L 286.1568 102.284186 
L 286.51392 102.820979 
L 286.87104 101.199366 
L 287.22816 96.98887 
L 287.58528 105.987577 
L 287.9424 103.099004 
L 288.29952 103.554356 
L 288.65664 99.463815 
L 289.01376 103.911014 
L 289.37088 98.06045 
L 289.728 106.040936 
L 290.08512 92.610274 
L 290.44224 98.109797 
L 290.79936 96.677145 
L 291.15648 98.507377 
L 291.5136 91.399481 
L 291.87072 93.44435 
L 292.22784 97.228381 
L 292.58496 92.374776 
L 292.94208 94.439704 
L 293.2992 100.00101 
L 293.65632 98.074893 
L 294.01344 99.544053 
L 294.37056 92.142486 
L 295.0848 96.767413 
L 295.44192 94.54602 
L 295.79904 101.16005 
L 296.15616 98.289129 
L 296.51328 97.207519 
L 296.8704 102.274156 
L 297.22752 102.45389 
L 297.58464 101.736159 
L 297.94176 102.467129 
L 298.29888 90.100425 
L 298.656 101.291239 
L 299.01312 89.896621 
L 299.37024 91.683925 
L 299.72736 98.709577 
L 300.4416 89.955997 
L 300.79872 100.579125 
L 301.15584 99.858587 
L 301.51296 90.091599 
L 301.87008 90.517263 
L 302.2272 100.525767 
L 302.58432 95.579888 
L 302.94144 98.672266 
L 303.29856 99.324602 
L 303.65568 94.882217 
L 304.0128 100.193581 
L 304.36992 99.676045 
L 304.72704 89.255117 
L 305.08416 86.161535 
L 305.44128 99.399224 
L 305.7984 89.473766 
L 306.15552 91.758547 
L 306.51264 97.7403 
L 306.86976 100.121768 
L 307.22688 87.71294 
L 307.584 85.46226 
L 307.94112 99.392805 
L 308.29824 98.416708 
L 308.65536 94.293269 
L 309.01248 86.322413 
L 309.3696 91.090163 
L 309.72672 90.137335 
L 310.08384 97.075126 
L 310.44096 86.43595 
L 310.79808 92.0462 
L 311.1552 93.762494 
L 311.51232 89.633439 
L 311.86944 96.474543 
L 312.22656 88.047934 
L 312.58368 84.592478 
L 312.9408 85.864654 
L 313.29792 95.519709 
L 313.65504 85.225958 
L 314.01216 86.888894 
L 314.36928 97.532483 
L 314.7264 96.877339 
L 315.08352 96.998097 
L 315.44064 94.669185 
L 315.79776 91.380625 
L 316.15488 86.50335 
L 316.512 94.985725 
L 316.86912 84.309238 
L 317.22624 85.42856 
L 317.58336 88.123759 
L 317.94048 88.87198 
L 318.2976 88.495663 
L 318.65472 91.663866 
L 319.01184 83.849874 
L 319.36896 85.485529 
L 319.72608 95.504063 
L 320.0832 88.236493 
L 320.44032 84.666699 
L 320.79744 82.750612 
L 321.15456 84.693177 
L 321.51168 87.528793 
L 321.8688 83.739948 
L 322.22592 92.138073 
L 322.58304 80.215488 
L 322.94016 94.020861 
L 323.29728 92.255622 
L 323.6544 84.250263 
L 324.01152 91.204502 
L 324.36864 88.086047 
L 324.72576 89.909057 
L 325.08288 89.85249 
L 325.44 87.275241 
L 325.79712 88.250535 
L 326.15424 92.404865 
L 326.51136 78.812925 
L 326.86848 86.284299 
L 327.2256 87.917547 
L 327.58272 80.68448 
L 327.93984 78.596683 
L 328.65408 83.816575 
L 329.0112 84.766595 
L 329.36832 89.644673 
L 329.72544 88.87198 
L 330.08256 79.731652 
L 330.43968 83.23846 
L 330.7968 83.993099 
L 331.15392 84.319669 
L 331.51104 84.018374 
L 331.86816 79.145512 
L 332.22528 88.46437 
L 332.5824 87.858572 
L 332.93952 76.435469 
L 333.29664 82.70969 
L 333.65376 80.746664 
L 334.01088 88.092466 
L 334.368 78.354364 
L 334.72512 87.001628 
L 335.08224 89.631032 
L 335.79648 80.285696 
L 336.1536 88.814609 
L 336.86784 87.677635 
L 337.22496 81.332001 
L 337.58208 85.30058 
L 337.9392 85.651221 
L 338.29632 80.255206 
L 338.65344 85.160564 
L 339.01056 88.396569 
L 339.36768 77.67234 
L 339.7248 89.182501 
L 340.08192 83.790498 
L 340.43904 83.972237 
L 340.79616 81.852747 
L 341.15328 75.250753 
L 341.5104 80.005264 
L 341.86752 74.859592 
L 342.22464 73.822915 
L 342.58176 78.101213 
L 342.93888 86.11259 
L 343.296 75.388762 
L 343.65312 79.847195 
L 344.36736 77.69601 
L 344.72448 81.94462 
L 345.0816 75.150054 
L 345.43872 87.778735 
L 345.79584 83.800127 
L 346.15296 86.275072 
L 346.51008 76.583909 
L 346.8672 85.992634 
L 347.22432 71.629605 
L 347.58144 74.590794 
L 347.93856 72.071316 
L 348.29568 76.168677 
L 349.00992 82.34581 
L 349.36704 80.991391 
L 349.72416 76.657729 
L 350.08128 82.834059 
L 350.4384 81.288673 
L 350.79552 75.182149 
L 351.15264 71.879547 
L 351.50976 78.887948 
L 351.86688 71.475548 
L 352.224 85.796452 
L 352.58112 72.289564 
L 352.93824 78.443027 
L 353.29536 76.589927 
L 353.65248 80.312576 
L 354.0096 76.826229 
L 354.36672 81.536207 
L 354.72384 69.795763 
L 355.08096 84.001524 
L 355.43808 79.224145 
L 355.7952 72.598882 
L 356.15232 78.242031 
L 356.50944 73.804861 
L 356.86656 71.289797 
L 357.22368 72.657456 
L 357.5808 80.272858 
L 357.93792 79.84559 
L 358.29504 78.971797 
L 358.65216 80.410868 
L 359.00928 76.567461 
L 359.3664 68.647555 
L 359.72352 80.263631 
L 360.08064 80.156111 
L 360.43776 75.218256 
L 360.79488 76.116522 
L 361.152 74.102144 
L 361.50912 70.051321 
L 361.86624 73.850597 
L 362.22336 70.357029 
L 362.58048 70.582498 
L 362.9376 78.224378 
L 363.29472 75.917131 
L 363.65184 80.854183 
L 364.00896 69.206414 
L 364.36608 73.180208 
L 364.7232 68.2921 
L 365.08032 76.327147 
L 365.43744 70.018424 
L 365.79456 77.192115 
L 366.15168 74.102946 
L 366.5088 66.139311 
L 366.86592 69.965466 
L 367.22304 80.479872 
L 367.58016 73.396851 
L 367.93728 78.428584 
L 368.2944 68.572933 
L 368.65152 68.463007 
L 369.00864 72.415939 
L 369.36576 72.194883 
L 369.72288 67.437564 
L 370.08 79.711191 
L 370.79424 67.367757 
L 371.15136 65.651463 
L 371.8656 72.563979 
L 372.22272 76.017428 
L 372.57984 66.479922 
L 372.93696 65.345755 
L 373.29408 75.703296 
L 373.6512 78.383651 
L 374.00832 70.035675 
L 374.36544 68.771122 
L 374.72256 63.314126 
L 375.07968 76.160252 
L 375.4368 77.68919 
L 375.79392 73.209093 
L 376.15104 70.587713 
L 376.50816 66.394869 
L 376.86528 66.450635 
L 377.2224 67.128647 
L 377.57952 65.662696 
L 377.93664 73.859022 
L 378.65088 62.552666 
L 379.008 70.497044 
L 379.36512 62.318772 
L 379.72224 71.223199 
L 380.07936 65.961583 
L 380.43648 75.385553 
L 380.7936 68.394805 
L 381.15072 69.260173 
L 381.50784 65.107448 
L 381.86496 72.013946 
L 382.22208 62.851954 
L 382.5792 62.514151 
L 382.93632 76.650106 
L 383.29344 73.465053 
L 383.65056 63.974486 
L 384.00768 72.633786 
L 384.3648 64.736347 
L 384.72192 67.323626 
L 385.07904 64.227236 
L 385.43616 68.537228 
L 385.79328 69.939389 
L 386.1504 67.370164 
L 386.50752 61.966927 
L 386.86464 68.968508 
L 387.22176 71.318683 
L 387.936 66.104808 
L 388.29312 73.984996 
L 388.65024 64.004174 
L 389.00736 72.239817 
L 389.36448 62.698298 
L 389.7216 74.017091 
L 390.07872 58.562824 
L 390.43584 69.590353 
L 390.79296 72.619343 
L 391.15008 58.909854 
L 391.5072 73.102778 
L 391.86432 70.085824 
L 392.22144 62.461997 
L 392.57856 71.87032 
L 392.93568 58.948369 
L 393.2928 65.089796 
L 393.64992 61.562126 
L 394.00704 68.195012 
L 394.36416 67.893718 
L 394.72128 73.364755 
L 395.0784 57.932554 
L 396.14976 68.982549 
L 396.50688 69.268197 
L 396.864 62.357286 
L 397.22112 66.702582 
L 397.93536 59.933693 
L 398.29248 69.813014 
L 398.6496 68.991375 
L 399.00672 70.641874 
L 399.36384 59.975417 
L 399.72096 57.650517 
L 400.07808 57.74921 
L 400.4352 59.768804 
L 400.79232 57.036695 
L 401.14944 70.154828 
L 401.50656 57.791335 
L 401.86368 65.486573 
L 402.2208 65.657481 
L 402.57792 61.942856 
L 402.93504 69.413428 
L 403.29216 55.349688 
L 403.64928 56.718149 
L 404.36352 54.142505 
L 405.07776 66.321852 
L 405.43488 68.614256 
L 405.792 66.363175 
L 406.14912 66.672493 
L 406.50624 56.96769 
L 406.86336 55.694311 
L 407.22048 60.841587 
L 407.5776 68.236736 
L 407.93472 67.120222 
L 408.29184 64.948175 
L 408.64896 53.568 
L 409.00608 64.088825 
L 409.72032 60.314824 
L 410.07744 54.010915 
L 410.43456 54.761944 
L 410.79168 56.980528 
L 411.1488 63.383131 
L 411.50592 61.578174 
L 411.86304 66.365181 
L 412.22016 67.858413 
L 412.57728 63.471794 
L 412.9344 57.029875 
L 413.29152 63.192565 
L 413.64864 63.728957 
L 414.00576 62.142248 
L 414.36288 64.734742 
L 414.72 58.126329 
L 414.72 58.126329 
" style="fill:none;stroke:#000080;stroke-linecap:square;stroke-width:0.5;"/>
   </g>
   <g id="patch_3">
    <path d="M 57.6 307.584 
L 57.6 41.472 
" style="fill:none;stroke:#000000;stroke-linecap:square;stroke-linejoin:miter;stroke-width:0.8;"/>
   </g>
   <g id="patch_4">
    <path d="M 414.72 307.584 
L 414.72 41.472 
" style="fill:none;stroke:#000000;stroke-linecap:square;stroke-linejoin:miter;stroke-width:0.8;"/>
   </g>
   <g id="patch_5">
    <path d="M 57.6 307.584 
L 414.72 307.584 
" style="fill:none;stroke:#000000;stroke-linecap:square;stroke-linejoin:miter;stroke-width:0.8;"/>
   </g>
   <g id="patch_6">
    <path d="M 57.6 41.472 
L 414.72 41.472 
" style="fill:none;stroke:#000000;stroke-linecap:square;stroke-linejoin:miter;stroke-width:0.8;"/>
   </g>
   <g id="text_16">
    <!-- Test -->
    <defs>
     <path d="M -0.296875 72.90625 
L 61.375 72.90625 
L 61.375 64.59375 
L 35.5 64.59375 
L 35.5 0 
L 25.59375 0 
L 25.59375 64.59375 
L -0.296875 64.59375 
z
" id="DejaVuSans-54"/>
    </defs>
    <g transform="translate(223.341563 35.472)scale(0.12 -0.12)">
     <use xlink:href="#DejaVuSans-54"/>
     <use x="60.818359" xlink:href="#DejaVuSans-65"/>
     <use x="122.341797" xlink:href="#DejaVuSans-73"/>
     <use x="174.441406" xlink:href="#DejaVuSans-74"/>
    </g>
   </g>
   <g id="legend_1">
    <g id="patch_7">
     <path d="M 64.6 64.150125 
L 306.276563 64.150125 
Q 308.276563 64.150125 308.276563 62.150125 
L 308.276563 48.472 
Q 308.276563 46.472 306.276563 46.472 
L 64.6 46.472 
Q 62.6 46.472 62.6 48.472 
L 62.6 62.150125 
Q 62.6 64.150125 64.6 64.150125 
z
" style="fill:#ffffff;opacity:0.8;stroke:#cccccc;stroke-linejoin:miter;"/>
    </g>
    <g id="line2d_28">
     <path d="M 66.6 54.570438 
L 86.6 54.570438 
" style="fill:none;stroke:#000080;stroke-linecap:square;stroke-width:0.5;"/>
    </g>
    <g id="line2d_29"/>
    <g id="text_17">
     <!-- Successful download requests per second -->
     <g transform="translate(94.6 58.070438)scale(0.1 -0.1)">
      <use xlink:href="#DejaVuSans-53"/>
      <use x="63.476562" xlink:href="#DejaVuSans-75"/>
      <use x="126.855469" xlink:href="#DejaVuSans-63"/>
      <use x="181.835938" xlink:href="#DejaVuSans-63"/>
      <use x="236.816406" xlink:href="#DejaVuSans-65"/>
      <use x="298.339844" xlink:href="#DejaVuSans-73"/>
      <use x="350.439453" xlink:href="#DejaVuSans-73"/>
      <use x="402.539062" xlink:href="#DejaVuSans-66"/>
      <use x="437.744141" xlink:href="#DejaVuSans-75"/>
      <use x="501.123047" xlink:href="#DejaVuSans-6c"/>
      <use x="528.90625" xlink:href="#DejaVuSans-20"/>
      <use x="560.693359" xlink:href="#DejaVuSans-64"/>
      <use x="624.169922" xlink:href="#DejaVuSans-6f"/>
      <use x="685.351562" xlink:href="#DejaVuSans-77"/>
      <use x="767.138672" xlink:href="#DejaVuSans-6e"/>
      <use x="830.517578" xlink:href="#DejaVuSans-6c"/>
      <use x="858.300781" xlink:href="#DejaVuSans-6f"/>
      <use x="919.482422" xlink:href="#DejaVuSans-61"/>
      <use x="980.761719" xlink:href="#DejaVuSans-64"/>
      <use x="1044.238281" xlink:href="#DejaVuSans-20"/>
      <use x="1076.025391" xlink:href="#DejaVuSans-72"/>
      <use x="1117.107422" xlink:href="#DejaVuSans-65"/>
      <use x="1178.630859" xlink:href="#DejaVuSans-71"/>
      <use x="1242.107422" xlink:href="#DejaVuSans-75"/>
      <use x="1305.486328" xlink:href="#DejaVuSans-65"/>
      <use x="1367.009766" xlink:href="#DejaVuSans-73"/>
      <use x="1419.109375" xlink:href="#DejaVuSans-74"/>
      <use x="1458.318359" xlink:href="#DejaVuSans-73"/>
      <use x="1510.417969" xlink:href="#DejaVuSans-20"/>
      <use x="1542.205078" xlink:href="#DejaVuSans-70"/>
      <use x="1605.681641" xlink:href="#DejaVuSans-65"/>
      <use x="1667.205078" xlink:href="#DejaVuSans-72"/>
      <use x="1708.318359" xlink:href="#DejaVuSans-20"/>
      <use x="1740.105469" xlink:href="#DejaVuSans-73"/>
      <use x="1792.205078" xlink:href="#DejaVuSans-65"/>
      <use x="1853.728516" xlink:href="#DejaVuSans-63"/>
      <use x="1908.708984" xlink:href="#DejaVuSans-6f"/>
      <use x="1969.890625" xlink:href="#DejaVuSans-6e"/>
      <use x="2033.269531" xlink:href="#DejaVuSans-64"/>
     </g>
    </g>
   </g>
  </g>
 </g>
 <defs>
  <clipPath id="p12811def24">
   <rect height="266.112" width="357.12" x="57.6" y="41.472"/>
  </clipPath>
 </defs>
</svg>
