<?xml version="1.0" encoding="utf-8" standalone="no"?>
<!DOCTYPE svg PUBLIC "-//W3C//DTD SVG 1.1//EN"
  "http://www.w3.org/Graphics/SVG/1.1/DTD/svg11.dtd">
<!-- Created with matplotlib (http://matplotlib.org/) -->
<svg height="345pt" version="1.1" viewBox="0 0 460 345" width="460pt" xmlns="http://www.w3.org/2000/svg" xmlns:xlink="http://www.w3.org/1999/xlink">
 <defs>
  <style type="text/css">
*{stroke-linecap:butt;stroke-linejoin:round;}
  </style>
 </defs>
 <g id="figure_1">
  <g id="patch_1">
   <path d="M 0 345.6 
L 460.8 345.6 
L 460.8 0 
L 0 0 
z
" style="fill:#ffffff;"/>
  </g>
  <g id="axes_1">
   <g id="patch_2">
    <path d="M 57.6 307.584 
L 414.72 307.584 
L 414.72 41.472 
L 57.6 41.472 
z
" style="fill:#ffffff;"/>
   </g>
   <g id="matplotlib.axis_1">
    <g id="xtick_1">
     <g id="line2d_1">
      <path clip-path="url(#pf0f63cfc25)" d="M 57.6 307.584 
L 57.6 41.472 
" style="fill:none;stroke:#b0b0b0;stroke-linecap:square;stroke-width:0.8;"/>
     </g>
     <g id="line2d_2">
      <defs>
       <path d="M 0 0 
L 0 3.5 
" id="m9eea19b35b" style="stroke:#000000;stroke-width:0.8;"/>
      </defs>
      <g>
       <use style="stroke:#000000;stroke-width:0.8;" x="57.6" xlink:href="#m9eea19b35b" y="307.584"/>
      </g>
     </g>
     <g id="text_1">
      <!-- 0 -->
      <defs>
       <path d="M 31.78125 66.40625 
Q 24.171875 66.40625 20.328125 58.90625 
Q 16.5 51.421875 16.5 36.375 
Q 16.5 21.390625 20.328125 13.890625 
Q 24.171875 6.390625 31.78125 6.390625 
Q 39.453125 6.390625 43.28125 13.890625 
Q 47.125 21.390625 47.125 36.375 
Q 47.125 51.421875 43.28125 58.90625 
Q 39.453125 66.40625 31.78125 66.40625 
M 31.78125 74.21875 
Q 44.046875 74.21875 50.515625 64.515625 
Q 56.984375 54.828125 56.984375 36.375 
Q 56.984375 17.96875 50.515625 8.265625 
Q 44.046875 -1.421875 31.78125 -1.421875 
Q 19.53125 -1.421875 13.0625 8.265625 
Q 6.59375 17.96875 6.59375 36.375 
Q 6.59375 54.828125 13.0625 64.515625 
Q 19.53125 74.21875 31.78125 74.21875 
" id="DejaVuSans-30"/>
      </defs>
      <g transform="translate(54.41875 322.182437)scale(0.1 -0.1)">
       <use xlink:href="#DejaVuSans-30"/>
      </g>
     </g>
    </g>
    <g id="xtick_2">
     <g id="line2d_3">
      <path clip-path="url(#pf0f63cfc25)" d="M 129.024 307.584 
L 129.024 41.472 
" style="fill:none;stroke:#b0b0b0;stroke-linecap:square;stroke-width:0.8;"/>
     </g>
     <g id="line2d_4">
      <g>
       <use style="stroke:#000000;stroke-width:0.8;" x="129.024" xlink:href="#m9eea19b35b" y="307.584"/>
      </g>
     </g>
     <g id="text_2">
      <!-- 200 -->
      <defs>
       <path d="M 19.1875 8.296875 
L 53.609375 8.296875 
L 53.609375 0 
L 7.328125 0 
L 7.328125 8.296875 
Q 12.9375 14.109375 22.625 23.890625 
Q 32.328125 33.6875 34.8125 36.53125 
Q 39.546875 41.84375 41.421875 45.53125 
Q 43.3125 49.21875 43.3125 52.78125 
Q 43.3125 58.59375 39.234375 62.25 
Q 35.15625 65.921875 28.609375 65.921875 
Q 23.96875 65.921875 18.8125 64.3125 
Q 13.671875 62.703125 7.8125 59.421875 
L 7.8125 69.390625 
Q 13.765625 71.78125 18.9375 73 
Q 24.125 74.21875 28.421875 74.21875 
Q 39.75 74.21875 46.484375 68.546875 
Q 53.21875 62.890625 53.21875 53.421875 
Q 53.21875 48.921875 51.53125 44.890625 
Q 49.859375 40.875 45.40625 35.40625 
Q 44.1875 33.984375 37.640625 27.21875 
Q 31.109375 20.453125 19.1875 8.296875 
" id="DejaVuSans-32"/>
      </defs>
      <g transform="translate(119.48025 322.182437)scale(0.1 -0.1)">
       <use xlink:href="#DejaVuSans-32"/>
       <use x="63.623047" xlink:href="#DejaVuSans-30"/>
       <use x="127.246094" xlink:href="#DejaVuSans-30"/>
      </g>
     </g>
    </g>
    <g id="xtick_3">
     <g id="line2d_5">
      <path clip-path="url(#pf0f63cfc25)" d="M 200.448 307.584 
L 200.448 41.472 
" style="fill:none;stroke:#b0b0b0;stroke-linecap:square;stroke-width:0.8;"/>
     </g>
     <g id="line2d_6">
      <g>
       <use style="stroke:#000000;stroke-width:0.8;" x="200.448" xlink:href="#m9eea19b35b" y="307.584"/>
      </g>
     </g>
     <g id="text_3">
      <!-- 400 -->
      <defs>
       <path d="M 37.796875 64.3125 
L 12.890625 25.390625 
L 37.796875 25.390625 
z
M 35.203125 72.90625 
L 47.609375 72.90625 
L 47.609375 25.390625 
L 58.015625 25.390625 
L 58.015625 17.1875 
L 47.609375 17.1875 
L 47.609375 0 
L 37.796875 0 
L 37.796875 17.1875 
L 4.890625 17.1875 
L 4.890625 26.703125 
z
" id="DejaVuSans-34"/>
      </defs>
      <g transform="translate(190.90425 322.182437)scale(0.1 -0.1)">
       <use xlink:href="#DejaVuSans-34"/>
       <use x="63.623047" xlink:href="#DejaVuSans-30"/>
       <use x="127.246094" xlink:href="#DejaVuSans-30"/>
      </g>
     </g>
    </g>
    <g id="xtick_4">
     <g id="line2d_7">
      <path clip-path="url(#pf0f63cfc25)" d="M 271.872 307.584 
L 271.872 41.472 
" style="fill:none;stroke:#b0b0b0;stroke-linecap:square;stroke-width:0.8;"/>
     </g>
     <g id="line2d_8">
      <g>
       <use style="stroke:#000000;stroke-width:0.8;" x="271.872" xlink:href="#m9eea19b35b" y="307.584"/>
      </g>
     </g>
     <g id="text_4">
      <!-- 600 -->
      <defs>
       <path d="M 33.015625 40.375 
Q 26.375 40.375 22.484375 35.828125 
Q 18.609375 31.296875 18.609375 23.390625 
Q 18.609375 15.53125 22.484375 10.953125 
Q 26.375 6.390625 33.015625 6.390625 
Q 39.65625 6.390625 43.53125 10.953125 
Q 47.40625 15.53125 47.40625 23.390625 
Q 47.40625 31.296875 43.53125 35.828125 
Q 39.65625 40.375 33.015625 40.375 
M 52.59375 71.296875 
L 52.59375 62.3125 
Q 48.875 64.0625 45.09375 64.984375 
Q 41.3125 65.921875 37.59375 65.921875 
Q 27.828125 65.921875 22.671875 59.328125 
Q 17.53125 52.734375 16.796875 39.40625 
Q 19.671875 43.65625 24.015625 45.921875 
Q 28.375 48.1875 33.59375 48.1875 
Q 44.578125 48.1875 50.953125 41.515625 
Q 57.328125 34.859375 57.328125 23.390625 
Q 57.328125 12.15625 50.6875 5.359375 
Q 44.046875 -1.421875 33.015625 -1.421875 
Q 20.359375 -1.421875 13.671875 8.265625 
Q 6.984375 17.96875 6.984375 36.375 
Q 6.984375 53.65625 15.1875 63.9375 
Q 23.390625 74.21875 37.203125 74.21875 
Q 40.921875 74.21875 44.703125 73.484375 
Q 48.484375 72.75 52.59375 71.296875 
" id="DejaVuSans-36"/>
      </defs>
      <g transform="translate(262.32825 322.182437)scale(0.1 -0.1)">
       <use xlink:href="#DejaVuSans-36"/>
       <use x="63.623047" xlink:href="#DejaVuSans-30"/>
       <use x="127.246094" xlink:href="#DejaVuSans-30"/>
      </g>
     </g>
    </g>
    <g id="xtick_5">
     <g id="line2d_9">
      <path clip-path="url(#pf0f63cfc25)" d="M 343.296 307.584 
L 343.296 41.472 
" style="fill:none;stroke:#b0b0b0;stroke-linecap:square;stroke-width:0.8;"/>
     </g>
     <g id="line2d_10">
      <g>
       <use style="stroke:#000000;stroke-width:0.8;" x="343.296" xlink:href="#m9eea19b35b" y="307.584"/>
      </g>
     </g>
     <g id="text_5">
      <!-- 800 -->
      <defs>
       <path d="M 31.78125 34.625 
Q 24.75 34.625 20.71875 30.859375 
Q 16.703125 27.09375 16.703125 20.515625 
Q 16.703125 13.921875 20.71875 10.15625 
Q 24.75 6.390625 31.78125 6.390625 
Q 38.8125 6.390625 42.859375 10.171875 
Q 46.921875 13.96875 46.921875 20.515625 
Q 46.921875 27.09375 42.890625 30.859375 
Q 38.875 34.625 31.78125 34.625 
M 21.921875 38.8125 
Q 15.578125 40.375 12.03125 44.71875 
Q 8.5 49.078125 8.5 55.328125 
Q 8.5 64.0625 14.71875 69.140625 
Q 20.953125 74.21875 31.78125 74.21875 
Q 42.671875 74.21875 48.875 69.140625 
Q 55.078125 64.0625 55.078125 55.328125 
Q 55.078125 49.078125 51.53125 44.71875 
Q 48 40.375 41.703125 38.8125 
Q 48.828125 37.15625 52.796875 32.3125 
Q 56.78125 27.484375 56.78125 20.515625 
Q 56.78125 9.90625 50.3125 4.234375 
Q 43.84375 -1.421875 31.78125 -1.421875 
Q 19.734375 -1.421875 13.25 4.234375 
Q 6.78125 9.90625 6.78125 20.515625 
Q 6.78125 27.484375 10.78125 32.3125 
Q 14.796875 37.15625 21.921875 38.8125 
M 18.3125 54.390625 
Q 18.3125 48.734375 21.84375 45.5625 
Q 25.390625 42.390625 31.78125 42.390625 
Q 38.140625 42.390625 41.71875 45.5625 
Q 45.3125 48.734375 45.3125 54.390625 
Q 45.3125 60.0625 41.71875 63.234375 
Q 38.140625 66.40625 31.78125 66.40625 
Q 25.390625 66.40625 21.84375 63.234375 
Q 18.3125 60.0625 18.3125 54.390625 
" id="DejaVuSans-38"/>
      </defs>
      <g transform="translate(333.75225 322.182437)scale(0.1 -0.1)">
       <use xlink:href="#DejaVuSans-38"/>
       <use x="63.623047" xlink:href="#DejaVuSans-30"/>
       <use x="127.246094" xlink:href="#DejaVuSans-30"/>
      </g>
     </g>
    </g>
    <g id="xtick_6">
     <g id="line2d_11">
      <path clip-path="url(#pf0f63cfc25)" d="M 414.72 307.584 
L 414.72 41.472 
" style="fill:none;stroke:#b0b0b0;stroke-linecap:square;stroke-width:0.8;"/>
     </g>
     <g id="line2d_12">
      <g>
       <use style="stroke:#000000;stroke-width:0.8;" x="414.72" xlink:href="#m9eea19b35b" y="307.584"/>
      </g>
     </g>
     <g id="text_6">
      <!-- 1000 -->
      <defs>
       <path d="M 12.40625 8.296875 
L 28.515625 8.296875 
L 28.515625 63.921875 
L 10.984375 60.40625 
L 10.984375 69.390625 
L 28.421875 72.90625 
L 38.28125 72.90625 
L 38.28125 8.296875 
L 54.390625 8.296875 
L 54.390625 0 
L 12.40625 0 
z
" id="DejaVuSans-31"/>
      </defs>
      <g transform="translate(401.995 322.182437)scale(0.1 -0.1)">
       <use xlink:href="#DejaVuSans-31"/>
       <use x="63.623047" xlink:href="#DejaVuSans-30"/>
       <use x="127.246094" xlink:href="#DejaVuSans-30"/>
       <use x="190.869141" xlink:href="#DejaVuSans-30"/>
      </g>
     </g>
    </g>
    <g id="text_7">
     <!-- Number of clients -->
     <defs>
      <path d="M 9.8125 72.90625 
L 23.09375 72.90625 
L 55.421875 11.921875 
L 55.421875 72.90625 
L 64.984375 72.90625 
L 64.984375 0 
L 51.703125 0 
L 19.390625 60.984375 
L 19.390625 0 
L 9.8125 0 
z
" id="DejaVuSans-4e"/>
      <path d="M 8.5 21.578125 
L 8.5 54.6875 
L 17.484375 54.6875 
L 17.484375 21.921875 
Q 17.484375 14.15625 20.5 10.265625 
Q 23.53125 6.390625 29.59375 6.390625 
Q 36.859375 6.390625 41.078125 11.03125 
Q 45.3125 15.671875 45.3125 23.6875 
L 45.3125 54.6875 
L 54.296875 54.6875 
L 54.296875 0 
L 45.3125 0 
L 45.3125 8.40625 
Q 42.046875 3.421875 37.71875 1 
Q 33.40625 -1.421875 27.6875 -1.421875 
Q 18.265625 -1.421875 13.375 4.4375 
Q 8.5 10.296875 8.5 21.578125 
M 31.109375 56 
z
" id="DejaVuSans-75"/>
      <path d="M 52 44.1875 
Q 55.375 50.25 60.0625 53.125 
Q 64.75 56 71.09375 56 
Q 79.640625 56 84.28125 50.015625 
Q 88.921875 44.046875 88.921875 33.015625 
L 88.921875 0 
L 79.890625 0 
L 79.890625 32.71875 
Q 79.890625 40.578125 77.09375 44.375 
Q 74.3125 48.1875 68.609375 48.1875 
Q 61.625 48.1875 57.5625 43.546875 
Q 53.515625 38.921875 53.515625 30.90625 
L 53.515625 0 
L 44.484375 0 
L 44.484375 32.71875 
Q 44.484375 40.625 41.703125 44.40625 
Q 38.921875 48.1875 33.109375 48.1875 
Q 26.21875 48.1875 22.15625 43.53125 
Q 18.109375 38.875 18.109375 30.90625 
L 18.109375 0 
L 9.078125 0 
L 9.078125 54.6875 
L 18.109375 54.6875 
L 18.109375 46.1875 
Q 21.1875 51.21875 25.484375 53.609375 
Q 29.78125 56 35.6875 56 
Q 41.65625 56 45.828125 52.96875 
Q 50 49.953125 52 44.1875 
" id="DejaVuSans-6d"/>
      <path d="M 48.6875 27.296875 
Q 48.6875 37.203125 44.609375 42.84375 
Q 40.53125 48.484375 33.40625 48.484375 
Q 26.265625 48.484375 22.1875 42.84375 
Q 18.109375 37.203125 18.109375 27.296875 
Q 18.109375 17.390625 22.1875 11.75 
Q 26.265625 6.109375 33.40625 6.109375 
Q 40.53125 6.109375 44.609375 11.75 
Q 48.6875 17.390625 48.6875 27.296875 
M 18.109375 46.390625 
Q 20.953125 51.265625 25.265625 53.625 
Q 29.59375 56 35.59375 56 
Q 45.5625 56 51.78125 48.09375 
Q 58.015625 40.1875 58.015625 27.296875 
Q 58.015625 14.40625 51.78125 6.484375 
Q 45.5625 -1.421875 35.59375 -1.421875 
Q 29.59375 -1.421875 25.265625 0.953125 
Q 20.953125 3.328125 18.109375 8.203125 
L 18.109375 0 
L 9.078125 0 
L 9.078125 75.984375 
L 18.109375 75.984375 
z
" id="DejaVuSans-62"/>
      <path d="M 56.203125 29.59375 
L 56.203125 25.203125 
L 14.890625 25.203125 
Q 15.484375 15.921875 20.484375 11.0625 
Q 25.484375 6.203125 34.421875 6.203125 
Q 39.59375 6.203125 44.453125 7.46875 
Q 49.3125 8.734375 54.109375 11.28125 
L 54.109375 2.78125 
Q 49.265625 0.734375 44.1875 -0.34375 
Q 39.109375 -1.421875 33.890625 -1.421875 
Q 20.796875 -1.421875 13.15625 6.1875 
Q 5.515625 13.8125 5.515625 26.8125 
Q 5.515625 40.234375 12.765625 48.109375 
Q 20.015625 56 32.328125 56 
Q 43.359375 56 49.78125 48.890625 
Q 56.203125 41.796875 56.203125 29.59375 
M 47.21875 32.234375 
Q 47.125 39.59375 43.09375 43.984375 
Q 39.0625 48.390625 32.421875 48.390625 
Q 24.90625 48.390625 20.390625 44.140625 
Q 15.875 39.890625 15.1875 32.171875 
z
" id="DejaVuSans-65"/>
      <path d="M 41.109375 46.296875 
Q 39.59375 47.171875 37.8125 47.578125 
Q 36.03125 48 33.890625 48 
Q 26.265625 48 22.1875 43.046875 
Q 18.109375 38.09375 18.109375 28.8125 
L 18.109375 0 
L 9.078125 0 
L 9.078125 54.6875 
L 18.109375 54.6875 
L 18.109375 46.1875 
Q 20.953125 51.171875 25.484375 53.578125 
Q 30.03125 56 36.53125 56 
Q 37.453125 56 38.578125 55.875 
Q 39.703125 55.765625 41.0625 55.515625 
z
" id="DejaVuSans-72"/>
      <path id="DejaVuSans-20"/>
      <path d="M 30.609375 48.390625 
Q 23.390625 48.390625 19.1875 42.75 
Q 14.984375 37.109375 14.984375 27.296875 
Q 14.984375 17.484375 19.15625 11.84375 
Q 23.34375 6.203125 30.609375 6.203125 
Q 37.796875 6.203125 41.984375 11.859375 
Q 46.1875 17.53125 46.1875 27.296875 
Q 46.1875 37.015625 41.984375 42.703125 
Q 37.796875 48.390625 30.609375 48.390625 
M 30.609375 56 
Q 42.328125 56 49.015625 48.375 
Q 55.71875 40.765625 55.71875 27.296875 
Q 55.71875 13.875 49.015625 6.21875 
Q 42.328125 -1.421875 30.609375 -1.421875 
Q 18.84375 -1.421875 12.171875 6.21875 
Q 5.515625 13.875 5.515625 27.296875 
Q 5.515625 40.765625 12.171875 48.375 
Q 18.84375 56 30.609375 56 
" id="DejaVuSans-6f"/>
      <path d="M 37.109375 75.984375 
L 37.109375 68.5 
L 28.515625 68.5 
Q 23.6875 68.5 21.796875 66.546875 
Q 19.921875 64.59375 19.921875 59.515625 
L 19.921875 54.6875 
L 34.71875 54.6875 
L 34.71875 47.703125 
L 19.921875 47.703125 
L 19.921875 0 
L 10.890625 0 
L 10.890625 47.703125 
L 2.296875 47.703125 
L 2.296875 54.6875 
L 10.890625 54.6875 
L 10.890625 58.5 
Q 10.890625 67.625 15.140625 71.796875 
Q 19.390625 75.984375 28.609375 75.984375 
z
" id="DejaVuSans-66"/>
      <path d="M 48.78125 52.59375 
L 48.78125 44.1875 
Q 44.96875 46.296875 41.140625 47.34375 
Q 37.3125 48.390625 33.40625 48.390625 
Q 24.65625 48.390625 19.8125 42.84375 
Q 14.984375 37.3125 14.984375 27.296875 
Q 14.984375 17.28125 19.8125 11.734375 
Q 24.65625 6.203125 33.40625 6.203125 
Q 37.3125 6.203125 41.140625 7.25 
Q 44.96875 8.296875 48.78125 10.40625 
L 48.78125 2.09375 
Q 45.015625 0.34375 40.984375 -0.53125 
Q 36.96875 -1.421875 32.421875 -1.421875 
Q 20.0625 -1.421875 12.78125 6.34375 
Q 5.515625 14.109375 5.515625 27.296875 
Q 5.515625 40.671875 12.859375 48.328125 
Q 20.21875 56 33.015625 56 
Q 37.15625 56 41.109375 55.140625 
Q 45.0625 54.296875 48.78125 52.59375 
" id="DejaVuSans-63"/>
      <path d="M 9.421875 75.984375 
L 18.40625 75.984375 
L 18.40625 0 
L 9.421875 0 
z
" id="DejaVuSans-6c"/>
      <path d="M 9.421875 54.6875 
L 18.40625 54.6875 
L 18.40625 0 
L 9.421875 0 
z
M 9.421875 75.984375 
L 18.40625 75.984375 
L 18.40625 64.59375 
L 9.421875 64.59375 
z
" id="DejaVuSans-69"/>
      <path d="M 54.890625 33.015625 
L 54.890625 0 
L 45.90625 0 
L 45.90625 32.71875 
Q 45.90625 40.484375 42.875 44.328125 
Q 39.84375 48.1875 33.796875 48.1875 
Q 26.515625 48.1875 22.3125 43.546875 
Q 18.109375 38.921875 18.109375 30.90625 
L 18.109375 0 
L 9.078125 0 
L 9.078125 54.6875 
L 18.109375 54.6875 
L 18.109375 46.1875 
Q 21.34375 51.125 25.703125 53.5625 
Q 30.078125 56 35.796875 56 
Q 45.21875 56 50.046875 50.171875 
Q 54.890625 44.34375 54.890625 33.015625 
" id="DejaVuSans-6e"/>
      <path d="M 18.3125 70.21875 
L 18.3125 54.6875 
L 36.8125 54.6875 
L 36.8125 47.703125 
L 18.3125 47.703125 
L 18.3125 18.015625 
Q 18.3125 11.328125 20.140625 9.421875 
Q 21.96875 7.515625 27.59375 7.515625 
L 36.8125 7.515625 
L 36.8125 0 
L 27.59375 0 
Q 17.1875 0 13.234375 3.875 
Q 9.28125 7.765625 9.28125 18.015625 
L 9.28125 47.703125 
L 2.6875 47.703125 
L 2.6875 54.6875 
L 9.28125 54.6875 
L 9.28125 70.21875 
z
" id="DejaVuSans-74"/>
      <path d="M 44.28125 53.078125 
L 44.28125 44.578125 
Q 40.484375 46.53125 36.375 47.5 
Q 32.28125 48.484375 27.875 48.484375 
Q 21.1875 48.484375 17.84375 46.4375 
Q 14.5 44.390625 14.5 40.28125 
Q 14.5 37.15625 16.890625 35.375 
Q 19.28125 33.59375 26.515625 31.984375 
L 29.59375 31.296875 
Q 39.15625 29.25 43.1875 25.515625 
Q 47.21875 21.78125 47.21875 15.09375 
Q 47.21875 7.46875 41.1875 3.015625 
Q 35.15625 -1.421875 24.609375 -1.421875 
Q 20.21875 -1.421875 15.453125 -0.5625 
Q 10.6875 0.296875 5.421875 2 
L 5.421875 11.28125 
Q 10.40625 8.6875 15.234375 7.390625 
Q 20.0625 6.109375 24.8125 6.109375 
Q 31.15625 6.109375 34.5625 8.28125 
Q 37.984375 10.453125 37.984375 14.40625 
Q 37.984375 18.0625 35.515625 20.015625 
Q 33.0625 21.96875 24.703125 23.78125 
L 21.578125 24.515625 
Q 13.234375 26.265625 9.515625 29.90625 
Q 5.8125 33.546875 5.8125 39.890625 
Q 5.8125 47.609375 11.28125 51.796875 
Q 16.75 56 26.8125 56 
Q 31.78125 56 36.171875 55.265625 
Q 40.578125 54.546875 44.28125 53.078125 
" id="DejaVuSans-73"/>
     </defs>
     <g transform="translate(191.738906 335.860562)scale(0.1 -0.1)">
      <use xlink:href="#DejaVuSans-4e"/>
      <use x="74.804688" xlink:href="#DejaVuSans-75"/>
      <use x="138.183594" xlink:href="#DejaVuSans-6d"/>
      <use x="235.595703" xlink:href="#DejaVuSans-62"/>
      <use x="299.072266" xlink:href="#DejaVuSans-65"/>
      <use x="360.595703" xlink:href="#DejaVuSans-72"/>
      <use x="401.708984" xlink:href="#DejaVuSans-20"/>
      <use x="433.496094" xlink:href="#DejaVuSans-6f"/>
      <use x="494.677734" xlink:href="#DejaVuSans-66"/>
      <use x="529.882812" xlink:href="#DejaVuSans-20"/>
      <use x="561.669922" xlink:href="#DejaVuSans-63"/>
      <use x="616.650391" xlink:href="#DejaVuSans-6c"/>
      <use x="644.433594" xlink:href="#DejaVuSans-69"/>
      <use x="672.216797" xlink:href="#DejaVuSans-65"/>
      <use x="733.740234" xlink:href="#DejaVuSans-6e"/>
      <use x="797.119141" xlink:href="#DejaVuSans-74"/>
      <use x="836.328125" xlink:href="#DejaVuSans-73"/>
     </g>
    </g>
   </g>
   <g id="matplotlib.axis_2">
    <g id="ytick_1">
     <g id="line2d_13">
      <path clip-path="url(#pf0f63cfc25)" d="M 57.6 295.847889 
L 414.72 295.847889 
" style="fill:none;stroke:#b0b0b0;stroke-linecap:square;stroke-width:0.8;"/>
     </g>
     <g id="line2d_14">
      <defs>
       <path d="M 0 0 
L -3.5 0 
" id="md9cbfd9d51" style="stroke:#000000;stroke-width:0.8;"/>
      </defs>
      <g>
       <use style="stroke:#000000;stroke-width:0.8;" x="57.6" xlink:href="#md9cbfd9d51" y="295.847889"/>
      </g>
     </g>
     <g id="text_8">
      <!-- 0 -->
      <g transform="translate(44.2375 299.647107)scale(0.1 -0.1)">
       <use xlink:href="#DejaVuSans-30"/>
      </g>
     </g>
    </g>
    <g id="ytick_2">
     <g id="line2d_15">
      <path clip-path="url(#pf0f63cfc25)" d="M 57.6 259.011786 
L 414.72 259.011786 
" style="fill:none;stroke:#b0b0b0;stroke-linecap:square;stroke-width:0.8;"/>
     </g>
     <g id="line2d_16">
      <g>
       <use style="stroke:#000000;stroke-width:0.8;" x="57.6" xlink:href="#md9cbfd9d51" y="259.011786"/>
      </g>
     </g>
     <g id="text_9">
      <!-- 100 -->
      <g transform="translate(31.5125 262.811005)scale(0.1 -0.1)">
       <use xlink:href="#DejaVuSans-31"/>
       <use x="63.623047" xlink:href="#DejaVuSans-30"/>
       <use x="127.246094" xlink:href="#DejaVuSans-30"/>
      </g>
     </g>
    </g>
    <g id="ytick_3">
     <g id="line2d_17">
      <path clip-path="url(#pf0f63cfc25)" d="M 57.6 222.175683 
L 414.72 222.175683 
" style="fill:none;stroke:#b0b0b0;stroke-linecap:square;stroke-width:0.8;"/>
     </g>
     <g id="line2d_18">
      <g>
       <use style="stroke:#000000;stroke-width:0.8;" x="57.6" xlink:href="#md9cbfd9d51" y="222.175683"/>
      </g>
     </g>
     <g id="text_10">
      <!-- 200 -->
      <g transform="translate(31.5125 225.974902)scale(0.1 -0.1)">
       <use xlink:href="#DejaVuSans-32"/>
       <use x="63.623047" xlink:href="#DejaVuSans-30"/>
       <use x="127.246094" xlink:href="#DejaVuSans-30"/>
      </g>
     </g>
    </g>
    <g id="ytick_4">
     <g id="line2d_19">
      <path clip-path="url(#pf0f63cfc25)" d="M 57.6 185.33958 
L 414.72 185.33958 
" style="fill:none;stroke:#b0b0b0;stroke-linecap:square;stroke-width:0.8;"/>
     </g>
     <g id="line2d_20">
      <g>
       <use style="stroke:#000000;stroke-width:0.8;" x="57.6" xlink:href="#md9cbfd9d51" y="185.33958"/>
      </g>
     </g>
     <g id="text_11">
      <!-- 300 -->
      <defs>
       <path d="M 40.578125 39.3125 
Q 47.65625 37.796875 51.625 33 
Q 55.609375 28.21875 55.609375 21.1875 
Q 55.609375 10.40625 48.1875 4.484375 
Q 40.765625 -1.421875 27.09375 -1.421875 
Q 22.515625 -1.421875 17.65625 -0.515625 
Q 12.796875 0.390625 7.625 2.203125 
L 7.625 11.71875 
Q 11.71875 9.328125 16.59375 8.109375 
Q 21.484375 6.890625 26.8125 6.890625 
Q 36.078125 6.890625 40.9375 10.546875 
Q 45.796875 14.203125 45.796875 21.1875 
Q 45.796875 27.640625 41.28125 31.265625 
Q 36.765625 34.90625 28.71875 34.90625 
L 20.21875 34.90625 
L 20.21875 43.015625 
L 29.109375 43.015625 
Q 36.375 43.015625 40.234375 45.921875 
Q 44.09375 48.828125 44.09375 54.296875 
Q 44.09375 59.90625 40.109375 62.90625 
Q 36.140625 65.921875 28.71875 65.921875 
Q 24.65625 65.921875 20.015625 65.03125 
Q 15.375 64.15625 9.8125 62.3125 
L 9.8125 71.09375 
Q 15.4375 72.65625 20.34375 73.4375 
Q 25.25 74.21875 29.59375 74.21875 
Q 40.828125 74.21875 47.359375 69.109375 
Q 53.90625 64.015625 53.90625 55.328125 
Q 53.90625 49.265625 50.4375 45.09375 
Q 46.96875 40.921875 40.578125 39.3125 
" id="DejaVuSans-33"/>
      </defs>
      <g transform="translate(31.5125 189.138799)scale(0.1 -0.1)">
       <use xlink:href="#DejaVuSans-33"/>
       <use x="63.623047" xlink:href="#DejaVuSans-30"/>
       <use x="127.246094" xlink:href="#DejaVuSans-30"/>
      </g>
     </g>
    </g>
    <g id="ytick_5">
     <g id="line2d_21">
      <path clip-path="url(#pf0f63cfc25)" d="M 57.6 148.503478 
L 414.72 148.503478 
" style="fill:none;stroke:#b0b0b0;stroke-linecap:square;stroke-width:0.8;"/>
     </g>
     <g id="line2d_22">
      <g>
       <use style="stroke:#000000;stroke-width:0.8;" x="57.6" xlink:href="#md9cbfd9d51" y="148.503478"/>
      </g>
     </g>
     <g id="text_12">
      <!-- 400 -->
      <g transform="translate(31.5125 152.302696)scale(0.1 -0.1)">
       <use xlink:href="#DejaVuSans-34"/>
       <use x="63.623047" xlink:href="#DejaVuSans-30"/>
       <use x="127.246094" xlink:href="#DejaVuSans-30"/>
      </g>
     </g>
    </g>
    <g id="ytick_6">
     <g id="line2d_23">
      <path clip-path="url(#pf0f63cfc25)" d="M 57.6 111.667375 
L 414.72 111.667375 
" style="fill:none;stroke:#b0b0b0;stroke-linecap:square;stroke-width:0.8;"/>
     </g>
     <g id="line2d_24">
      <g>
       <use style="stroke:#000000;stroke-width:0.8;" x="57.6" xlink:href="#md9cbfd9d51" y="111.667375"/>
      </g>
     </g>
     <g id="text_13">
      <!-- 500 -->
      <defs>
       <path d="M 10.796875 72.90625 
L 49.515625 72.90625 
L 49.515625 64.59375 
L 19.828125 64.59375 
L 19.828125 46.734375 
Q 21.96875 47.46875 24.109375 47.828125 
Q 26.265625 48.1875 28.421875 48.1875 
Q 40.625 48.1875 47.75 41.5 
Q 54.890625 34.8125 54.890625 23.390625 
Q 54.890625 11.625 47.5625 5.09375 
Q 40.234375 -1.421875 26.90625 -1.421875 
Q 22.3125 -1.421875 17.546875 -0.640625 
Q 12.796875 0.140625 7.71875 1.703125 
L 7.71875 11.625 
Q 12.109375 9.234375 16.796875 8.0625 
Q 21.484375 6.890625 26.703125 6.890625 
Q 35.15625 6.890625 40.078125 11.328125 
Q 45.015625 15.765625 45.015625 23.390625 
Q 45.015625 31 40.078125 35.4375 
Q 35.15625 39.890625 26.703125 39.890625 
Q 22.75 39.890625 18.8125 39.015625 
Q 14.890625 38.140625 10.796875 36.28125 
z
" id="DejaVuSans-35"/>
      </defs>
      <g transform="translate(31.5125 115.466594)scale(0.1 -0.1)">
       <use xlink:href="#DejaVuSans-35"/>
       <use x="63.623047" xlink:href="#DejaVuSans-30"/>
       <use x="127.246094" xlink:href="#DejaVuSans-30"/>
      </g>
     </g>
    </g>
    <g id="ytick_7">
     <g id="line2d_25">
      <path clip-path="url(#pf0f63cfc25)" d="M 57.6 74.831272 
L 414.72 74.831272 
" style="fill:none;stroke:#b0b0b0;stroke-linecap:square;stroke-width:0.8;"/>
     </g>
     <g id="line2d_26">
      <g>
       <use style="stroke:#000000;stroke-width:0.8;" x="57.6" xlink:href="#md9cbfd9d51" y="74.831272"/>
      </g>
     </g>
     <g id="text_14">
      <!-- 600 -->
      <g transform="translate(31.5125 78.630491)scale(0.1 -0.1)">
       <use xlink:href="#DejaVuSans-36"/>
       <use x="63.623047" xlink:href="#DejaVuSans-30"/>
       <use x="127.246094" xlink:href="#DejaVuSans-30"/>
      </g>
     </g>
    </g>
    <g id="text_15">
     <!-- Successful download requests per second -->
     <defs>
      <path d="M 53.515625 70.515625 
L 53.515625 60.890625 
Q 47.90625 63.578125 42.921875 64.890625 
Q 37.9375 66.21875 33.296875 66.21875 
Q 25.25 66.21875 20.875 63.09375 
Q 16.5 59.96875 16.5 54.203125 
Q 16.5 49.359375 19.40625 46.890625 
Q 22.3125 44.4375 30.421875 42.921875 
L 36.375 41.703125 
Q 47.40625 39.59375 52.65625 34.296875 
Q 57.90625 29 57.90625 20.125 
Q 57.90625 9.515625 50.796875 4.046875 
Q 43.703125 -1.421875 29.984375 -1.421875 
Q 24.8125 -1.421875 18.96875 -0.25 
Q 13.140625 0.921875 6.890625 3.21875 
L 6.890625 13.375 
Q 12.890625 10.015625 18.65625 8.296875 
Q 24.421875 6.59375 29.984375 6.59375 
Q 38.421875 6.59375 43.015625 9.90625 
Q 47.609375 13.234375 47.609375 19.390625 
Q 47.609375 24.75 44.3125 27.78125 
Q 41.015625 30.8125 33.5 32.328125 
L 27.484375 33.5 
Q 16.453125 35.6875 11.515625 40.375 
Q 6.59375 45.0625 6.59375 53.421875 
Q 6.59375 63.09375 13.40625 68.65625 
Q 20.21875 74.21875 32.171875 74.21875 
Q 37.3125 74.21875 42.625 73.28125 
Q 47.953125 72.359375 53.515625 70.515625 
" id="DejaVuSans-53"/>
      <path d="M 45.40625 46.390625 
L 45.40625 75.984375 
L 54.390625 75.984375 
L 54.390625 0 
L 45.40625 0 
L 45.40625 8.203125 
Q 42.578125 3.328125 38.25 0.953125 
Q 33.9375 -1.421875 27.875 -1.421875 
Q 17.96875 -1.421875 11.734375 6.484375 
Q 5.515625 14.40625 5.515625 27.296875 
Q 5.515625 40.1875 11.734375 48.09375 
Q 17.96875 56 27.875 56 
Q 33.9375 56 38.25 53.625 
Q 42.578125 51.265625 45.40625 46.390625 
M 14.796875 27.296875 
Q 14.796875 17.390625 18.875 11.75 
Q 22.953125 6.109375 30.078125 6.109375 
Q 37.203125 6.109375 41.296875 11.75 
Q 45.40625 17.390625 45.40625 27.296875 
Q 45.40625 37.203125 41.296875 42.84375 
Q 37.203125 48.484375 30.078125 48.484375 
Q 22.953125 48.484375 18.875 42.84375 
Q 14.796875 37.203125 14.796875 27.296875 
" id="DejaVuSans-64"/>
      <path d="M 4.203125 54.6875 
L 13.1875 54.6875 
L 24.421875 12.015625 
L 35.59375 54.6875 
L 46.1875 54.6875 
L 57.421875 12.015625 
L 68.609375 54.6875 
L 77.59375 54.6875 
L 63.28125 0 
L 52.6875 0 
L 40.921875 44.828125 
L 29.109375 0 
L 18.5 0 
z
" id="DejaVuSans-77"/>
      <path d="M 34.28125 27.484375 
Q 23.390625 27.484375 19.1875 25 
Q 14.984375 22.515625 14.984375 16.5 
Q 14.984375 11.71875 18.140625 8.90625 
Q 21.296875 6.109375 26.703125 6.109375 
Q 34.1875 6.109375 38.703125 11.40625 
Q 43.21875 16.703125 43.21875 25.484375 
L 43.21875 27.484375 
z
M 52.203125 31.203125 
L 52.203125 0 
L 43.21875 0 
L 43.21875 8.296875 
Q 40.140625 3.328125 35.546875 0.953125 
Q 30.953125 -1.421875 24.3125 -1.421875 
Q 15.921875 -1.421875 10.953125 3.296875 
Q 6 8.015625 6 15.921875 
Q 6 25.140625 12.171875 29.828125 
Q 18.359375 34.515625 30.609375 34.515625 
L 43.21875 34.515625 
L 43.21875 35.40625 
Q 43.21875 41.609375 39.140625 45 
Q 35.0625 48.390625 27.6875 48.390625 
Q 23 48.390625 18.546875 47.265625 
Q 14.109375 46.140625 10.015625 43.890625 
L 10.015625 52.203125 
Q 14.9375 54.109375 19.578125 55.046875 
Q 24.21875 56 28.609375 56 
Q 40.484375 56 46.34375 49.84375 
Q 52.203125 43.703125 52.203125 31.203125 
" id="DejaVuSans-61"/>
      <path d="M 14.796875 27.296875 
Q 14.796875 17.390625 18.875 11.75 
Q 22.953125 6.109375 30.078125 6.109375 
Q 37.203125 6.109375 41.296875 11.75 
Q 45.40625 17.390625 45.40625 27.296875 
Q 45.40625 37.203125 41.296875 42.84375 
Q 37.203125 48.484375 30.078125 48.484375 
Q 22.953125 48.484375 18.875 42.84375 
Q 14.796875 37.203125 14.796875 27.296875 
M 45.40625 8.203125 
Q 42.578125 3.328125 38.25 0.953125 
Q 33.9375 -1.421875 27.875 -1.421875 
Q 17.96875 -1.421875 11.734375 6.484375 
Q 5.515625 14.40625 5.515625 27.296875 
Q 5.515625 40.1875 11.734375 48.09375 
Q 17.96875 56 27.875 56 
Q 33.9375 56 38.25 53.625 
Q 42.578125 51.265625 45.40625 46.390625 
L 45.40625 54.6875 
L 54.390625 54.6875 
L 54.390625 -20.796875 
L 45.40625 -20.796875 
z
" id="DejaVuSans-71"/>
      <path d="M 18.109375 8.203125 
L 18.109375 -20.796875 
L 9.078125 -20.796875 
L 9.078125 54.6875 
L 18.109375 54.6875 
L 18.109375 46.390625 
Q 20.953125 51.265625 25.265625 53.625 
Q 29.59375 56 35.59375 56 
Q 45.5625 56 51.78125 48.09375 
Q 58.015625 40.1875 58.015625 27.296875 
Q 58.015625 14.40625 51.78125 6.484375 
Q 45.5625 -1.421875 35.59375 -1.421875 
Q 29.59375 -1.421875 25.265625 0.953125 
Q 20.953125 3.328125 18.109375 8.203125 
M 48.6875 27.296875 
Q 48.6875 37.203125 44.609375 42.84375 
Q 40.53125 48.484375 33.40625 48.484375 
Q 26.265625 48.484375 22.1875 42.84375 
Q 18.109375 37.203125 18.109375 27.296875 
Q 18.109375 17.390625 22.1875 11.75 
Q 26.265625 6.109375 33.40625 6.109375 
Q 40.53125 6.109375 44.609375 11.75 
Q 48.6875 17.390625 48.6875 27.296875 
" id="DejaVuSans-70"/>
     </defs>
     <g transform="translate(25.432812 279.366281)rotate(-90)scale(0.1 -0.1)">
      <use xlink:href="#DejaVuSans-53"/>
      <use x="63.476562" xlink:href="#DejaVuSans-75"/>
      <use x="126.855469" xlink:href="#DejaVuSans-63"/>
      <use x="181.835938" xlink:href="#DejaVuSans-63"/>
      <use x="236.816406" xlink:href="#DejaVuSans-65"/>
      <use x="298.339844" xlink:href="#DejaVuSans-73"/>
      <use x="350.439453" xlink:href="#DejaVuSans-73"/>
      <use x="402.539062" xlink:href="#DejaVuSans-66"/>
      <use x="437.744141" xlink:href="#DejaVuSans-75"/>
      <use x="501.123047" xlink:href="#DejaVuSans-6c"/>
      <use x="528.90625" xlink:href="#DejaVuSans-20"/>
      <use x="560.693359" xlink:href="#DejaVuSans-64"/>
      <use x="624.169922" xlink:href="#DejaVuSans-6f"/>
      <use x="685.351562" xlink:href="#DejaVuSans-77"/>
      <use x="767.138672" xlink:href="#DejaVuSans-6e"/>
      <use x="830.517578" xlink:href="#DejaVuSans-6c"/>
      <use x="858.300781" xlink:href="#DejaVuSans-6f"/>
      <use x="919.482422" xlink:href="#DejaVuSans-61"/>
      <use x="980.761719" xlink:href="#DejaVuSans-64"/>
      <use x="1044.238281" xlink:href="#DejaVuSans-20"/>
      <use x="1076.025391" xlink:href="#DejaVuSans-72"/>
      <use x="1117.107422" xlink:href="#DejaVuSans-65"/>
      <use x="1178.630859" xlink:href="#DejaVuSans-71"/>
      <use x="1242.107422" xlink:href="#DejaVuSans-75"/>
      <use x="1305.486328" xlink:href="#DejaVuSans-65"/>
      <use x="1367.009766" xlink:href="#DejaVuSans-73"/>
      <use x="1419.109375" xlink:href="#DejaVuSans-74"/>
      <use x="1458.318359" xlink:href="#DejaVuSans-73"/>
      <use x="1510.417969" xlink:href="#DejaVuSans-20"/>
      <use x="1542.205078" xlink:href="#DejaVuSans-70"/>
      <use x="1605.681641" xlink:href="#DejaVuSans-65"/>
      <use x="1667.205078" xlink:href="#DejaVuSans-72"/>
      <use x="1708.318359" xlink:href="#DejaVuSans-20"/>
      <use x="1740.105469" xlink:href="#DejaVuSans-73"/>
      <use x="1792.205078" xlink:href="#DejaVuSans-65"/>
      <use x="1853.728516" xlink:href="#DejaVuSans-63"/>
      <use x="1908.708984" xlink:href="#DejaVuSans-6f"/>
      <use x="1969.890625" xlink:href="#DejaVuSans-6e"/>
      <use x="2033.269531" xlink:href="#DejaVuSans-64"/>
     </g>
    </g>
   </g>
   <g id="line2d_27">
    <path clip-path="url(#pf0f63cfc25)" d="M 57.6 295.488 
L 57.95712 295.486527 
L 61.1712 292.313833 
L 61.52832 292.006252 
L 61.88544 291.547274 
L 62.24256 291.304524 
L 62.59968 290.72325 
L 63.31392 290.30516 
L 63.67104 289.867547 
L 64.02816 289.610431 
L 64.38528 288.957696 
L 64.7424 288.63759 
L 65.09952 288.128515 
L 65.45664 287.948755 
L 65.81376 287.447415 
L 66.17088 287.317752 
L 66.88512 286.674226 
L 67.24224 286.473101 
L 67.59936 285.885933 
L 67.95648 285.588666 
L 68.3136 284.811056 
L 68.67072 284.481372 
L 69.02784 284.40107 
L 69.74208 283.64814 
L 70.45632 282.863531 
L 70.81344 283.131698 
L 71.17056 282.252788 
L 71.52768 282.02993 
L 72.24192 280.975681 
L 72.59904 281.184541 
L 72.95616 280.208016 
L 73.31328 280.244852 
L 74.02752 279.562648 
L 74.38464 278.636588 
L 75.09888 279.021157 
L 75.81312 278.322744 
L 76.17024 277.08321 
L 76.52736 276.36159 
L 76.88448 276.679118 
L 77.2416 275.797998 
L 77.59872 276.405057 
L 77.95584 275.487838 
L 78.67008 274.283297 
L 79.38432 273.802586 
L 80.09856 274.095065 
L 80.45568 273.822478 
L 80.8128 272.470961 
L 81.16992 271.923945 
L 81.52704 271.822646 
L 81.88416 271.497015 
L 82.24128 271.98583 
L 82.95552 269.888382 
L 83.31264 270.404456 
L 83.66976 268.981846 
L 84.02688 269.033784 
L 84.384 269.317422 
L 85.09824 268.756777 
L 85.45536 267.282596 
L 85.81248 268.609064 
L 86.1696 267.043161 
L 86.52672 267.978062 
L 86.88384 265.671753 
L 87.24096 267.086628 
L 87.59808 266.367587 
L 87.9552 264.78474 
L 88.31232 264.177681 
L 88.66944 264.130162 
L 89.02656 264.875357 
L 89.38368 264.993601 
L 89.7408 264.960448 
L 90.45504 264.084117 
L 90.81216 263.618877 
L 91.16928 262.758754 
L 91.5264 262.509374 
L 91.88352 261.329514 
L 92.24064 262.257783 
L 92.95488 259.676309 
L 93.312 261.079765 
L 93.66912 260.479336 
L 94.02624 259.145501 
L 94.38336 259.256009 
L 94.74048 258.782665 
L 95.0976 258.883965 
L 95.45472 258.41983 
L 95.81184 257.255441 
L 96.16896 257.91407 
L 97.59744 255.478099 
L 97.95456 254.290134 
L 98.31168 255.912396 
L 98.6688 254.989652 
L 99.02592 255.433159 
L 99.38304 252.891467 
L 99.74016 252.79201 
L 100.09728 253.955294 
L 100.81152 253.254303 
L 101.16864 250.980042 
L 101.52576 251.250051 
L 101.88288 253.12243 
L 102.24 250.115499 
L 102.59712 250.564899 
L 102.95424 252.042764 
L 103.31136 251.790436 
L 103.66848 249.31063 
L 104.0256 249.657258 
L 104.38272 247.612854 
L 104.73984 249.354833 
L 105.09696 248.443876 
L 105.45408 248.605587 
L 105.8112 248.573171 
L 106.16832 247.430515 
L 106.52544 248.904328 
L 106.88256 245.867928 
L 107.5968 244.291711 
L 107.95392 246.130569 
L 108.31104 245.103947 
L 108.66816 246.697477 
L 109.02528 245.020697 
L 109.3824 245.205983 
L 109.73952 245.086266 
L 110.09664 243.302293 
L 110.45376 243.826103 
L 110.81088 244.727114 
L 111.168 241.320879 
L 111.52512 243.612822 
L 111.88224 241.452016 
L 112.23936 240.459283 
L 112.59648 240.335513 
L 112.9536 240.674406 
L 113.31072 241.416653 
L 113.66784 241.286253 
L 114.02496 239.044408 
L 114.38208 237.799348 
L 114.7392 240.120022 
L 115.09632 239.879483 
L 115.45344 236.52003 
L 115.81056 239.541327 
L 116.16768 237.157663 
L 116.5248 236.523345 
L 116.88192 238.308423 
L 117.23904 236.897968 
L 117.59616 238.251695 
L 117.95328 236.231235 
L 118.3104 234.984333 
L 118.66752 236.535501 
L 119.02464 233.696174 
L 119.38176 232.39365 
L 119.73888 232.668447 
L 120.096 233.68144 
L 120.45312 232.650029 
L 120.81024 233.564301 
L 121.16736 231.505163 
L 121.52448 232.140586 
L 121.8816 233.826942 
L 122.23872 230.64946 
L 122.59584 232.030077 
L 122.95296 228.904902 
L 123.31008 229.69209 
L 123.6672 231.736862 
L 124.02432 229.850485 
L 124.38144 230.190114 
L 124.73856 226.82882 
L 125.09568 230.940097 
L 125.80992 227.332738 
L 126.52416 228.02894 
L 127.2384 225.465515 
L 127.59552 226.176084 
L 127.95264 224.865455 
L 128.30976 227.420407 
L 128.66688 224.360432 
L 129.024 227.10067 
L 129.38112 225.23308 
L 129.73824 222.548465 
L 130.09536 223.1069 
L 130.45248 225.893919 
L 130.8096 224.324701 
L 131.16672 224.677223 
L 131.52384 222.938559 
L 131.88096 224.382902 
L 132.23808 221.565677 
L 132.5952 222.639818 
L 132.95232 221.056234 
L 133.30944 222.412908 
L 133.66656 219.111656 
L 134.02368 217.642264 
L 134.3808 220.292622 
L 134.73792 218.570902 
L 135.09504 221.083861 
L 135.45216 216.242124 
L 135.80928 215.408523 
L 136.1664 219.817436 
L 136.88064 216.367366 
L 137.23776 215.531924 
L 137.59488 213.490835 
L 137.952 218.68141 
L 138.30912 213.687908 
L 138.66624 215.273703 
L 139.02336 215.165773 
L 139.38048 215.272229 
L 139.7376 212.696649 
L 140.09472 211.697654 
L 140.45184 213.409059 
L 140.80896 212.092537 
L 141.16608 215.570602 
L 141.88032 211.129641 
L 142.23744 210.599569 
L 142.59456 211.350658 
L 142.95168 211.094278 
L 143.3088 207.577536 
L 143.66592 208.172807 
L 144.02304 209.18801 
L 144.38016 208.253478 
L 144.73728 211.227625 
L 145.0944 209.730974 
L 145.45152 210.527739 
L 145.80864 205.391313 
L 146.16576 207.116348 
L 146.52288 205.557812 
L 146.88 209.623781 
L 147.23712 207.622107 
L 147.59424 207.731879 
L 147.95136 207.610688 
L 148.30848 205.88639 
L 148.6656 203.276921 
L 149.02272 203.422055 
L 149.37984 203.206932 
L 149.73696 206.006476 
L 150.09408 200.756226 
L 150.4512 204.71316 
L 150.80832 206.375205 
L 151.16544 205.444357 
L 151.52256 199.864056 
L 151.87968 198.866166 
L 152.2368 201.730909 
L 152.59392 198.090029 
L 152.95104 197.915426 
L 153.30816 201.646555 
L 153.66528 197.043147 
L 154.0224 201.660552 
L 154.73664 196.565383 
L 155.09376 201.916563 
L 155.45088 194.966327 
L 155.808 200.377551 
L 156.16512 196.749563 
L 156.52224 197.468972 
L 156.87936 195.121039 
L 157.23648 197.427716 
L 157.5936 193.818514 
L 157.95072 198.997302 
L 158.30784 196.093144 
L 158.66496 192.120002 
L 159.02208 193.012909 
L 159.73632 196.742933 
L 160.09344 195.034843 
L 160.45056 192.700539 
L 160.80768 192.051855 
L 161.1648 195.364157 
L 161.52192 195.745779 
L 161.87904 193.662329 
L 162.23616 188.620572 
L 162.9504 193.380902 
L 163.30752 192.697592 
L 163.66464 192.808469 
L 164.02176 189.902837 
L 164.37888 191.844836 
L 164.736 187.374038 
L 165.09312 186.740826 
L 165.45024 186.783187 
L 165.80736 185.969109 
L 166.16448 190.607511 
L 166.5216 189.812957 
L 166.87872 189.970247 
L 167.23584 183.901131 
L 167.59296 187.388036 
L 167.95008 184.733258 
L 168.3072 188.426446 
L 168.66432 182.041276 
L 169.02144 186.864595 
L 169.37856 185.812924 
L 169.73568 183.567027 
L 170.0928 183.396108 
L 170.44992 187.210854 
L 171.52128 180.717755 
L 171.8784 182.54372 
L 172.23552 185.293535 
L 172.59264 180.457323 
L 172.94976 181.164945 
L 173.30688 181.311184 
L 173.664 177.169701 
L 174.02112 183.041744 
L 174.37824 178.909839 
L 174.73536 176.463185 
L 175.09248 175.734567 
L 175.4496 180.134639 
L 175.80672 178.332985 
L 176.16384 181.907192 
L 176.52096 178.893631 
L 176.87808 174.262228 
L 177.2352 178.683665 
L 177.94944 174.091308 
L 178.30656 179.926515 
L 178.66368 176.489338 
L 179.0208 176.251009 
L 179.37792 177.130286 
L 179.73504 174.462984 
L 180.09216 172.684169 
L 180.44928 174.631325 
L 181.16352 168.394973 
L 181.52064 170.639397 
L 181.87776 176.227802 
L 182.592 173.076473 
L 182.94912 169.983346 
L 183.30624 173.545765 
L 183.66336 174.745886 
L 184.02048 167.711663 
L 184.3776 172.78731 
L 184.73472 170.549517 
L 185.09184 169.967506 
L 185.44896 164.482242 
L 185.80608 165.772243 
L 186.1632 170.190733 
L 186.52032 169.013083 
L 186.87744 169.632666 
L 187.23456 163.424678 
L 187.59168 163.379001 
L 188.30592 170.465162 
L 188.66304 162.0599 
L 189.02016 166.269162 
L 189.37728 168.571418 
L 189.7344 169.037763 
L 190.09152 160.659023 
L 190.44864 168.275256 
L 190.80576 166.66294 
L 191.16288 158.177375 
L 191.52 161.14526 
L 191.87712 160.708383 
L 192.23424 161.690434 
L 192.59136 165.808342 
L 192.94848 160.988706 
L 193.3056 163.454515 
L 193.66272 157.791333 
L 194.01984 161.79247 
L 194.37696 159.130693 
L 194.73408 164.130457 
L 195.0912 162.596234 
L 195.44832 163.553972 
L 195.80544 162.871768 
L 196.16256 158.416441 
L 196.51968 158.353083 
L 196.8768 159.457798 
L 197.23392 153.492191 
L 197.59104 161.032541 
L 197.94816 160.506153 
L 198.30528 156.880376 
L 198.6624 158.75828 
L 199.37664 156.743714 
L 199.73376 156.393034 
L 200.09088 149.489212 
L 200.448 157.033246 
L 200.80512 151.319966 
L 201.16224 151.405057 
L 201.51936 154.474978 
L 201.87648 152.384529 
L 202.2336 156.739293 
L 202.94784 147.960882 
L 203.30496 148.775696 
L 203.66208 154.58475 
L 204.0192 148.82653 
L 204.37632 153.735309 
L 204.73344 153.049421 
L 205.09056 153.639904 
L 205.44768 150.776265 
L 205.8048 144.048151 
L 206.16192 149.710597 
L 206.51904 146.402715 
L 206.87616 150.980705 
L 207.23328 145.642417 
L 207.5904 147.016772 
L 207.94752 147.704502 
L 208.66176 142.496246 
L 209.01888 139.979972 
L 209.376 146.812332 
L 209.73312 141.232768 
L 210.09024 140.242245 
L 210.44736 140.694592 
L 210.80448 145.055618 
L 211.1616 140.313338 
L 211.51872 147.897524 
L 211.87584 140.993333 
L 212.23296 140.37817 
L 212.59008 142.906232 
L 212.9472 136.407238 
L 213.30432 139.177313 
L 213.66144 145.905796 
L 214.01856 137.329246 
L 214.37568 137.035294 
L 214.7328 137.751388 
L 215.08992 135.709194 
L 215.44704 136.280522 
L 215.80416 134.205913 
L 216.16128 133.039682 
L 216.5184 136.72366 
L 216.87552 134.111981 
L 217.23264 142.117202 
L 217.58976 136.147544 
L 218.304 130.851249 
L 218.66112 134.996784 
L 219.01824 131.108733 
L 219.37536 137.64751 
L 219.73248 133.259593 
L 220.0896 133.886912 
L 220.44672 132.014165 
L 220.80384 129.239301 
L 221.16096 138.688498 
L 221.51808 134.806341 
L 221.8752 127.065971 
L 222.23232 132.963431 
L 222.58944 127.106491 
L 222.94656 125.798072 
L 223.30368 135.385405 
L 223.6608 129.332128 
L 224.01792 131.761837 
L 224.37504 127.495848 
L 224.73216 127.605988 
L 225.08928 128.129429 
L 225.80352 133.085727 
L 226.16064 130.81736 
L 226.51776 124.406036 
L 226.87488 132.55013 
L 227.58912 131.492934 
L 227.94624 126.437179 
L 228.30336 127.129697 
L 228.66048 127.480745 
L 229.0176 127.673767 
L 229.37472 128.595774 
L 229.73184 122.799613 
L 230.08896 127.008875 
L 230.44608 128.145637 
L 230.8032 126.673666 
L 231.16032 129.568247 
L 231.51744 118.429378 
L 231.87456 129.002813 
L 232.23168 123.460085 
L 232.5888 122.279119 
L 232.94592 125.997724 
L 233.66016 122.071364 
L 234.01728 121.526558 
L 234.3744 125.23448 
L 234.73152 120.673802 
L 235.08864 120.580238 
L 235.44576 117.203104 
L 235.80288 118.164895 
L 236.16 124.901113 
L 236.51712 122.201395 
L 236.87424 122.918962 
L 237.23136 120.593131 
L 237.58848 123.613323 
L 237.9456 117.5501 
L 238.30272 119.421006 
L 238.65984 124.085562 
L 239.01696 114.65773 
L 239.37408 115.884372 
L 240.08832 125.446656 
L 240.44544 123.210336 
L 240.80256 124.65468 
L 241.15968 115.63978 
L 241.5168 125.253266 
L 241.87392 122.295327 
L 242.23104 121.98001 
L 242.58816 124.609739 
L 242.94528 114.699723 
L 243.3024 121.316592 
L 243.65952 114.340202 
L 244.01664 119.02907 
L 244.37376 120.499199 
L 244.73088 114.174808 
L 245.088 112.489188 
L 245.44512 117.052445 
L 245.80224 119.572402 
L 246.15936 116.093969 
L 246.51648 114.651467 
L 246.8736 118.224569 
L 247.23072 112.032421 
L 247.58784 123.019893 
L 247.94496 115.019828 
L 248.30208 120.683379 
L 248.6592 112.486978 
L 249.37344 117.817162 
L 249.73056 118.165632 
L 250.08768 111.180033 
L 250.80192 109.455367 
L 251.15904 116.48701 
L 251.51616 118.563462 
L 251.87328 110.596181 
L 252.2304 115.015777 
L 252.94464 115.497224 
L 253.30176 113.396461 
L 253.65888 118.634924 
L 254.016 115.916419 
L 254.37312 119.469261 
L 254.73024 112.271118 
L 255.08736 114.575585 
L 255.44448 108.984601 
L 255.8016 115.026091 
L 256.15872 118.845258 
L 256.51584 116.894418 
L 257.23008 114.917056 
L 257.5872 109.58061 
L 257.94432 117.032553 
L 258.30144 106.89931 
L 258.65856 110.576658 
L 259.01568 110.019696 
L 259.3728 111.417994 
L 259.72992 117.11875 
L 260.08704 109.519093 
L 260.44416 118.401383 
L 260.80128 106.361871 
L 261.1584 113.199388 
L 261.51552 106.804272 
L 261.87264 115.646411 
L 262.22976 112.509816 
L 262.944 116.237262 
L 263.30112 104.844592 
L 263.65824 110.002015 
L 264.01536 105.762916 
L 264.37248 115.218743 
L 264.7296 116.225842 
L 265.08672 111.255547 
L 265.44384 116.304672 
L 266.15808 105.843955 
L 266.5152 107.848944 
L 266.87232 111.816929 
L 267.22944 105.416288 
L 267.58656 111.311538 
L 267.94368 103.248852 
L 268.3008 112.514605 
L 268.65792 102.935377 
L 269.01504 107.340606 
L 269.37216 102.105828 
L 270.0864 115.019092 
L 270.44352 101.499874 
L 270.80064 108.42985 
L 271.15776 103.750928 
L 271.51488 102.368469 
L 271.872 111.910493 
L 272.58624 102.34121 
L 272.94336 103.06283 
L 273.30048 101.375368 
L 273.6576 107.539889 
L 274.01472 101.093571 
L 274.37184 104.810334 
L 274.72896 100.661484 
L 275.08608 107.641925 
L 275.80032 106.050237 
L 276.15744 110.543505 
L 276.51456 102.718044 
L 276.87168 102.401253 
L 277.2288 104.141022 
L 277.58592 98.823731 
L 277.94304 106.744598 
L 278.30016 109.972546 
L 278.65728 111.350216 
L 279.0144 102.907013 
L 279.37152 104.587476 
L 279.72864 101.608909 
L 280.08576 104.040828 
L 280.44288 102.670157 
L 280.8 97.82142 
L 281.15712 105.349615 
L 281.51424 98.463842 
L 281.87136 108.845729 
L 282.22848 103.919637 
L 282.5856 97.41033 
L 282.94272 96.6865 
L 283.29984 100.712318 
L 283.65696 108.672968 
L 284.01408 99.519933 
L 284.3712 105.040928 
L 284.72832 105.568421 
L 285.08544 102.746407 
L 285.44256 108.56246 
L 285.79968 101.330796 
L 286.1568 99.329859 
L 286.51392 99.280498 
L 286.87104 104.576793 
L 287.22816 105.657565 
L 287.58528 97.471109 
L 287.9424 97.097591 
L 288.29952 97.767271 
L 288.65664 108.093168 
L 289.01376 97.118956 
L 289.37088 96.066549 
L 289.728 101.264859 
L 290.08512 97.61035 
L 290.79936 102.404937 
L 291.15648 96.603251 
L 291.5136 94.370614 
L 291.87072 101.081416 
L 292.22784 95.026665 
L 292.58496 105.387556 
L 292.94208 96.326243 
L 293.65632 102.71657 
L 294.37056 98.938659 
L 294.72768 101.322324 
L 295.0848 93.938158 
L 295.44192 100.89613 
L 295.79904 103.615371 
L 296.15616 101.486244 
L 296.51328 97.220992 
L 296.8704 100.301964 
L 297.22752 100.433468 
L 297.58464 92.227858 
L 298.29888 104.321888 
L 298.656 99.43963 
L 299.01312 101.845396 
L 299.37024 93.975731 
L 299.72736 94.004463 
L 300.08448 94.999775 
L 300.4416 98.737166 
L 300.79872 91.423726 
L 301.15584 98.485575 
L 301.51296 89.949545 
L 301.87008 98.364753 
L 302.2272 100.525927 
L 302.58432 91.599066 
L 302.94144 101.075522 
L 303.29856 102.373258 
L 303.65568 101.496927 
L 304.0128 96.744333 
L 304.36992 98.318708 
L 304.72704 98.310972 
L 305.08416 99.568925 
L 305.44128 99.766367 
L 305.7984 90.558078 
L 306.15552 98.152209 
L 306.51264 88.348648 
L 306.86976 101.276279 
L 307.22688 98.323497 
L 307.584 87.757797 
L 307.94112 92.642264 
L 308.29824 95.280834 
L 309.01248 88.224879 
L 309.3696 95.041768 
L 309.72672 87.368808 
L 310.08384 96.39439 
L 310.79808 92.875437 
L 311.1552 94.088818 
L 311.51232 90.70137 
L 311.86944 94.887793 
L 312.22656 95.325406 
L 312.58368 85.878419 
L 312.9408 93.917899 
L 313.29792 93.323732 
L 313.65504 96.123644 
L 314.36928 90.82956 
L 314.7264 86.670027 
L 315.08352 95.879421 
L 315.44064 89.956913 
L 315.79776 87.967395 
L 316.15488 90.822193 
L 316.512 90.685162 
L 316.86912 88.218617 
L 317.22624 84.11618 
L 317.94048 94.077031 
L 318.65472 84.908525 
L 319.01184 84.724712 
L 319.36896 87.043545 
L 319.72608 93.883273 
L 320.0832 87.439533 
L 320.44032 88.451789 
L 320.79744 91.347107 
L 321.15456 86.176423 
L 321.51168 97.163528 
L 321.8688 86.739279 
L 322.22592 96.961666 
L 322.58304 90.090628 
L 322.94016 93.268478 
L 323.29728 88.277186 
L 323.6544 86.281406 
L 324.01152 94.53785 
L 324.36864 85.242996 
L 324.72576 87.871989 
L 325.08288 88.143471 
L 325.44 95.307356 
L 325.79712 95.44807 
L 326.15424 83.80823 
L 326.51136 83.084032 
L 326.86848 81.785928 
L 327.2256 89.858192 
L 327.58272 87.777689 
L 327.93984 87.039862 
L 328.29696 90.851661 
L 328.65408 87.815998 
L 329.0112 83.082191 
L 329.36832 85.899416 
L 329.72544 81.114038 
L 330.08256 90.285859 
L 330.43968 89.532929 
L 330.7968 80.508084 
L 331.51104 87.923928 
L 331.86816 86.135167 
L 332.22528 93.744769 
L 332.5824 85.82427 
L 332.93952 87.625924 
L 333.29664 85.894627 
L 333.65376 87.683388 
L 334.01088 88.132052 
L 334.368 79.699163 
L 334.72512 84.679772 
L 335.08224 77.702646 
L 335.43936 79.600074 
L 335.79648 89.89687 
L 336.1536 83.906583 
L 336.51072 87.510995 
L 336.86784 83.305786 
L 337.22496 90.439834 
L 337.58208 84.959358 
L 337.9392 91.488558 
L 338.65344 88.561561 
L 339.01056 80.424834 
L 339.36768 77.939134 
L 339.7248 83.437291 
L 340.08192 86.724544 
L 340.43904 83.684093 
L 340.79616 84.771494 
L 341.15328 76.484108 
L 341.5104 79.991642 
L 341.86752 90.465619 
L 342.22464 88.17736 
L 342.58176 78.869982 
L 343.296 88.786261 
L 343.65312 79.062635 
L 344.01024 83.887428 
L 344.36736 75.20479 
L 344.72448 75.381603 
L 345.0816 85.564576 
L 345.43872 78.856353 
L 345.79584 74.470647 
L 346.15296 83.737873 
L 346.51008 86.268145 
L 346.8672 85.535107 
L 347.22432 81.035577 
L 347.58144 84.518799 
L 347.93856 83.223641 
L 348.29568 82.690991 
L 348.6528 88.286395 
L 349.00992 76.958925 
L 349.36704 84.384347 
L 349.72416 80.743835 
L 350.08128 85.350926 
L 350.4384 88.039593 
L 350.79552 86.476638 
L 351.15264 87.494419 
L 351.50976 72.555906 
L 351.86688 87.324973 
L 352.224 74.189587 
L 352.58112 84.991406 
L 352.93824 82.05741 
L 353.29536 81.491608 
L 353.65248 84.2871 
L 354.36672 72.951894 
L 354.72384 83.661623 
L 355.08096 76.453534 
L 355.43808 77.254351 
L 355.7952 73.045826 
L 356.15232 80.420414 
L 356.50944 79.915759 
L 356.86656 74.298254 
L 357.22368 81.164135 
L 357.5808 74.483171 
L 357.93792 82.542173 
L 358.29504 84.632254 
L 358.65216 85.110386 
L 359.00928 78.592975 
L 359.3664 74.317777 
L 359.72352 73.445498 
L 360.08064 78.755422 
L 360.43776 82.262587 
L 360.79488 75.410704 
L 361.152 82.825811 
L 361.50912 80.748992 
L 361.86624 80.43478 
L 362.22336 72.821494 
L 362.58048 82.558013 
L 362.9376 84.075292 
L 363.29472 79.478883 
L 363.65184 72.774712 
L 364.00896 83.184963 
L 364.36608 77.050647 
L 364.7232 80.468669 
L 365.08032 74.790384 
L 365.43744 81.820922 
L 365.79456 67.86004 
L 366.15168 80.713998 
L 366.5088 69.970748 
L 366.86592 75.492848 
L 367.22304 69.204189 
L 367.58016 71.335526 
L 367.93728 77.315867 
L 368.2944 70.506345 
L 368.65152 67.6847 
L 369.00864 68.841353 
L 369.36576 66.899722 
L 369.72288 81.425303 
L 370.08 81.353104 
L 370.43712 67.739585 
L 370.79424 65.98766 
L 371.15136 70.463984 
L 371.50848 78.97165 
L 371.8656 77.835625 
L 372.22272 70.233758 
L 372.57984 74.721869 
L 372.93696 75.45417 
L 373.6512 71.89875 
L 374.00832 80.61454 
L 374.36544 75.386392 
L 374.72256 66.885356 
L 375.07968 69.559657 
L 375.4368 78.939603 
L 375.79392 75.126329 
L 376.15104 68.538561 
L 376.86528 72.345572 
L 377.2224 68.636176 
L 377.57952 68.236504 
L 377.93664 75.113805 
L 378.29376 68.167253 
L 378.65088 74.58005 
L 379.008 70.571177 
L 379.36512 74.045558 
L 379.72224 73.859904 
L 380.07936 66.66876 
L 380.43648 66.528783 
L 380.7936 67.529988 
L 381.15072 77.293029 
L 381.50784 78.170096 
L 381.86496 73.332779 
L 382.22208 74.32367 
L 382.5792 78.420582 
L 382.93632 64.845373 
L 383.29344 68.713164 
L 383.65056 76.529416 
L 384.00768 71.793767 
L 384.3648 62.56485 
L 384.72192 68.881873 
L 385.07904 68.44868 
L 385.43616 69.721736 
L 385.79328 65.760382 
L 386.1504 63.224216 
L 386.50752 72.842491 
L 387.22176 61.061568 
L 387.57888 72.979521 
L 387.936 74.375241 
L 388.29312 64.707237 
L 388.65024 71.339209 
L 389.00736 61.282217 
L 389.36448 66.28677 
L 389.7216 66.891618 
L 390.07872 66.226358 
L 390.43584 61.350363 
L 390.79296 61.227331 
L 391.15008 64.343665 
L 391.5072 59.774883 
L 391.86432 71.776086 
L 392.22144 60.537759 
L 392.57856 75.663031 
L 392.93568 63.869953 
L 393.2928 71.785663 
L 393.64992 69.612701 
L 394.00704 64.154328 
L 394.36416 67.800365 
L 394.72128 60.327425 
L 395.0784 62.115449 
L 395.43552 72.461974 
L 395.79264 70.134669 
L 396.14976 65.061601 
L 396.50688 66.971921 
L 397.22112 72.380198 
L 397.57824 61.235803 
L 397.93536 69.781779 
L 398.29248 69.414891 
L 398.6496 59.489404 
L 399.00672 58.634069 
L 399.72096 64.404445 
L 400.07808 64.118965 
L 400.79232 73.315098 
L 401.14944 59.81393 
L 401.50656 63.979356 
L 401.86368 62.186175 
L 402.2208 66.239619 
L 402.57792 71.603693 
L 402.93504 63.925944 
L 403.29216 70.384786 
L 403.64928 66.912983 
L 404.0064 67.014651 
L 404.36352 57.910977 
L 404.72064 60.715309 
L 405.07776 61.655735 
L 405.43488 66.836364 
L 406.14912 65.779536 
L 406.50624 70.076468 
L 407.22048 57.963652 
L 407.5776 69.109888 
L 407.93472 57.674857 
L 408.29184 67.446738 
L 408.64896 66.234462 
L 409.00608 60.392256 
L 409.3632 65.683026 
L 409.72032 55.507421 
L 410.07744 67.008757 
L 410.43456 69.263495 
L 410.79168 62.767448 
L 411.1488 69.087418 
L 411.50592 53.792332 
L 411.86304 64.707974 
L 412.22016 60.692471 
L 412.57728 61.627739 
L 412.9344 55.418646 
L 413.29152 53.568 
L 414.36288 67.321496 
L 414.72 56.391119 
L 414.72 56.391119 
" style="fill:none;stroke:#000080;stroke-linecap:square;stroke-width:0.5;"/>
   </g>
   <g id="patch_3">
    <path d="M 57.6 307.584 
L 57.6 41.472 
" style="fill:none;stroke:#000000;stroke-linecap:square;stroke-linejoin:miter;stroke-width:0.8;"/>
   </g>
   <g id="patch_4">
    <path d="M 414.72 307.584 
L 414.72 41.472 
" style="fill:none;stroke:#000000;stroke-linecap:square;stroke-linejoin:miter;stroke-width:0.8;"/>
   </g>
   <g id="patch_5">
    <path d="M 57.6 307.584 
L 414.72 307.584 
" style="fill:none;stroke:#000000;stroke-linecap:square;stroke-linejoin:miter;stroke-width:0.8;"/>
   </g>
   <g id="patch_6">
    <path d="M 57.6 41.472 
L 414.72 41.472 
" style="fill:none;stroke:#000000;stroke-linecap:square;stroke-linejoin:miter;stroke-width:0.8;"/>
   </g>
   <g id="text_16">
    <!-- Test -->
    <defs>
     <path d="M -0.296875 72.90625 
L 61.375 72.90625 
L 61.375 64.59375 
L 35.5 64.59375 
L 35.5 0 
L 25.59375 0 
L 25.59375 64.59375 
L -0.296875 64.59375 
z
" id="DejaVuSans-54"/>
    </defs>
    <g transform="translate(223.341563 35.472)scale(0.12 -0.12)">
     <use xlink:href="#DejaVuSans-54"/>
     <use x="60.818359" xlink:href="#DejaVuSans-65"/>
     <use x="122.341797" xlink:href="#DejaVuSans-73"/>
     <use x="174.441406" xlink:href="#DejaVuSans-74"/>
    </g>
   </g>
   <g id="legend_1">
    <g id="patch_7">
     <path d="M 64.6 64.150125 
L 306.276563 64.150125 
Q 308.276563 64.150125 308.276563 62.150125 
L 308.276563 48.472 
Q 308.276563 46.472 306.276563 46.472 
L 64.6 46.472 
Q 62.6 46.472 62.6 48.472 
L 62.6 62.150125 
Q 62.6 64.150125 64.6 64.150125 
z
" style="fill:#ffffff;opacity:0.8;stroke:#cccccc;stroke-linejoin:miter;"/>
    </g>
    <g id="line2d_28">
     <path d="M 66.6 54.570438 
L 86.6 54.570438 
" style="fill:none;stroke:#000080;stroke-linecap:square;stroke-width:0.5;"/>
    </g>
    <g id="line2d_29"/>
    <g id="text_17">
     <!-- Successful download requests per second -->
     <g transform="translate(94.6 58.070438)scale(0.1 -0.1)">
      <use xlink:href="#DejaVuSans-53"/>
      <use x="63.476562" xlink:href="#DejaVuSans-75"/>
      <use x="126.855469" xlink:href="#DejaVuSans-63"/>
      <use x="181.835938" xlink:href="#DejaVuSans-63"/>
      <use x="236.816406" xlink:href="#DejaVuSans-65"/>
      <use x="298.339844" xlink:href="#DejaVuSans-73"/>
      <use x="350.439453" xlink:href="#DejaVuSans-73"/>
      <use x="402.539062" xlink:href="#DejaVuSans-66"/>
      <use x="437.744141" xlink:href="#DejaVuSans-75"/>
      <use x="501.123047" xlink:href="#DejaVuSans-6c"/>
      <use x="528.90625" xlink:href="#DejaVuSans-20"/>
      <use x="560.693359" xlink:href="#DejaVuSans-64"/>
      <use x="624.169922" xlink:href="#DejaVuSans-6f"/>
      <use x="685.351562" xlink:href="#DejaVuSans-77"/>
      <use x="767.138672" xlink:href="#DejaVuSans-6e"/>
      <use x="830.517578" xlink:href="#DejaVuSans-6c"/>
      <use x="858.300781" xlink:href="#DejaVuSans-6f"/>
      <use x="919.482422" xlink:href="#DejaVuSans-61"/>
      <use x="980.761719" xlink:href="#DejaVuSans-64"/>
      <use x="1044.238281" xlink:href="#DejaVuSans-20"/>
      <use x="1076.025391" xlink:href="#DejaVuSans-72"/>
      <use x="1117.107422" xlink:href="#DejaVuSans-65"/>
      <use x="1178.630859" xlink:href="#DejaVuSans-71"/>
      <use x="1242.107422" xlink:href="#DejaVuSans-75"/>
      <use x="1305.486328" xlink:href="#DejaVuSans-65"/>
      <use x="1367.009766" xlink:href="#DejaVuSans-73"/>
      <use x="1419.109375" xlink:href="#DejaVuSans-74"/>
      <use x="1458.318359" xlink:href="#DejaVuSans-73"/>
      <use x="1510.417969" xlink:href="#DejaVuSans-20"/>
      <use x="1542.205078" xlink:href="#DejaVuSans-70"/>
      <use x="1605.681641" xlink:href="#DejaVuSans-65"/>
      <use x="1667.205078" xlink:href="#DejaVuSans-72"/>
      <use x="1708.318359" xlink:href="#DejaVuSans-20"/>
      <use x="1740.105469" xlink:href="#DejaVuSans-73"/>
      <use x="1792.205078" xlink:href="#DejaVuSans-65"/>
      <use x="1853.728516" xlink:href="#DejaVuSans-63"/>
      <use x="1908.708984" xlink:href="#DejaVuSans-6f"/>
      <use x="1969.890625" xlink:href="#DejaVuSans-6e"/>
      <use x="2033.269531" xlink:href="#DejaVuSans-64"/>
     </g>
    </g>
   </g>
  </g>
 </g>
 <defs>
  <clipPath id="pf0f63cfc25">
   <rect height="266.112" width="357.12" x="57.6" y="41.472"/>
  </clipPath>
 </defs>
</svg>
