<?xml version="1.0" encoding="utf-8" standalone="no"?>
<!DOCTYPE svg PUBLIC "-//W3C//DTD SVG 1.1//EN"
  "http://www.w3.org/Graphics/SVG/1.1/DTD/svg11.dtd">
<!-- Created with matplotlib (http://matplotlib.org/) -->
<svg height="345pt" version="1.1" viewBox="0 0 460 345" width="460pt" xmlns="http://www.w3.org/2000/svg" xmlns:xlink="http://www.w3.org/1999/xlink">
 <defs>
  <style type="text/css">
*{stroke-linecap:butt;stroke-linejoin:round;}
  </style>
 </defs>
 <g id="figure_1">
  <g id="patch_1">
   <path d="M 0 345.6 
L 460.8 345.6 
L 460.8 0 
L 0 0 
z
" style="fill:#ffffff;"/>
  </g>
  <g id="axes_1">
   <g id="patch_2">
    <path d="M 57.6 307.584 
L 414.72 307.584 
L 414.72 41.472 
L 57.6 41.472 
z
" style="fill:#ffffff;"/>
   </g>
   <g id="matplotlib.axis_1">
    <g id="xtick_1">
     <g id="line2d_1">
      <path clip-path="url(#pfe7cb002f6)" d="M 57.6 307.584 
L 57.6 41.472 
" style="fill:none;stroke:#b0b0b0;stroke-linecap:square;stroke-width:0.8;"/>
     </g>
     <g id="line2d_2">
      <defs>
       <path d="M 0 0 
L 0 3.5 
" id="m017d7d72d6" style="stroke:#000000;stroke-width:0.8;"/>
      </defs>
      <g>
       <use style="stroke:#000000;stroke-width:0.8;" x="57.6" xlink:href="#m017d7d72d6" y="307.584"/>
      </g>
     </g>
     <g id="text_1">
      <!-- 0 -->
      <defs>
       <path d="M 31.78125 66.40625 
Q 24.171875 66.40625 20.328125 58.90625 
Q 16.5 51.421875 16.5 36.375 
Q 16.5 21.390625 20.328125 13.890625 
Q 24.171875 6.390625 31.78125 6.390625 
Q 39.453125 6.390625 43.28125 13.890625 
Q 47.125 21.390625 47.125 36.375 
Q 47.125 51.421875 43.28125 58.90625 
Q 39.453125 66.40625 31.78125 66.40625 
M 31.78125 74.21875 
Q 44.046875 74.21875 50.515625 64.515625 
Q 56.984375 54.828125 56.984375 36.375 
Q 56.984375 17.96875 50.515625 8.265625 
Q 44.046875 -1.421875 31.78125 -1.421875 
Q 19.53125 -1.421875 13.0625 8.265625 
Q 6.59375 17.96875 6.59375 36.375 
Q 6.59375 54.828125 13.0625 64.515625 
Q 19.53125 74.21875 31.78125 74.21875 
" id="DejaVuSans-30"/>
      </defs>
      <g transform="translate(54.41875 322.182437)scale(0.1 -0.1)">
       <use xlink:href="#DejaVuSans-30"/>
      </g>
     </g>
    </g>
    <g id="xtick_2">
     <g id="line2d_3">
      <path clip-path="url(#pfe7cb002f6)" d="M 129.024 307.584 
L 129.024 41.472 
" style="fill:none;stroke:#b0b0b0;stroke-linecap:square;stroke-width:0.8;"/>
     </g>
     <g id="line2d_4">
      <g>
       <use style="stroke:#000000;stroke-width:0.8;" x="129.024" xlink:href="#m017d7d72d6" y="307.584"/>
      </g>
     </g>
     <g id="text_2">
      <!-- 200 -->
      <defs>
       <path d="M 19.1875 8.296875 
L 53.609375 8.296875 
L 53.609375 0 
L 7.328125 0 
L 7.328125 8.296875 
Q 12.9375 14.109375 22.625 23.890625 
Q 32.328125 33.6875 34.8125 36.53125 
Q 39.546875 41.84375 41.421875 45.53125 
Q 43.3125 49.21875 43.3125 52.78125 
Q 43.3125 58.59375 39.234375 62.25 
Q 35.15625 65.921875 28.609375 65.921875 
Q 23.96875 65.921875 18.8125 64.3125 
Q 13.671875 62.703125 7.8125 59.421875 
L 7.8125 69.390625 
Q 13.765625 71.78125 18.9375 73 
Q 24.125 74.21875 28.421875 74.21875 
Q 39.75 74.21875 46.484375 68.546875 
Q 53.21875 62.890625 53.21875 53.421875 
Q 53.21875 48.921875 51.53125 44.890625 
Q 49.859375 40.875 45.40625 35.40625 
Q 44.1875 33.984375 37.640625 27.21875 
Q 31.109375 20.453125 19.1875 8.296875 
" id="DejaVuSans-32"/>
      </defs>
      <g transform="translate(119.48025 322.182437)scale(0.1 -0.1)">
       <use xlink:href="#DejaVuSans-32"/>
       <use x="63.623047" xlink:href="#DejaVuSans-30"/>
       <use x="127.246094" xlink:href="#DejaVuSans-30"/>
      </g>
     </g>
    </g>
    <g id="xtick_3">
     <g id="line2d_5">
      <path clip-path="url(#pfe7cb002f6)" d="M 200.448 307.584 
L 200.448 41.472 
" style="fill:none;stroke:#b0b0b0;stroke-linecap:square;stroke-width:0.8;"/>
     </g>
     <g id="line2d_6">
      <g>
       <use style="stroke:#000000;stroke-width:0.8;" x="200.448" xlink:href="#m017d7d72d6" y="307.584"/>
      </g>
     </g>
     <g id="text_3">
      <!-- 400 -->
      <defs>
       <path d="M 37.796875 64.3125 
L 12.890625 25.390625 
L 37.796875 25.390625 
z
M 35.203125 72.90625 
L 47.609375 72.90625 
L 47.609375 25.390625 
L 58.015625 25.390625 
L 58.015625 17.1875 
L 47.609375 17.1875 
L 47.609375 0 
L 37.796875 0 
L 37.796875 17.1875 
L 4.890625 17.1875 
L 4.890625 26.703125 
z
" id="DejaVuSans-34"/>
      </defs>
      <g transform="translate(190.90425 322.182437)scale(0.1 -0.1)">
       <use xlink:href="#DejaVuSans-34"/>
       <use x="63.623047" xlink:href="#DejaVuSans-30"/>
       <use x="127.246094" xlink:href="#DejaVuSans-30"/>
      </g>
     </g>
    </g>
    <g id="xtick_4">
     <g id="line2d_7">
      <path clip-path="url(#pfe7cb002f6)" d="M 271.872 307.584 
L 271.872 41.472 
" style="fill:none;stroke:#b0b0b0;stroke-linecap:square;stroke-width:0.8;"/>
     </g>
     <g id="line2d_8">
      <g>
       <use style="stroke:#000000;stroke-width:0.8;" x="271.872" xlink:href="#m017d7d72d6" y="307.584"/>
      </g>
     </g>
     <g id="text_4">
      <!-- 600 -->
      <defs>
       <path d="M 33.015625 40.375 
Q 26.375 40.375 22.484375 35.828125 
Q 18.609375 31.296875 18.609375 23.390625 
Q 18.609375 15.53125 22.484375 10.953125 
Q 26.375 6.390625 33.015625 6.390625 
Q 39.65625 6.390625 43.53125 10.953125 
Q 47.40625 15.53125 47.40625 23.390625 
Q 47.40625 31.296875 43.53125 35.828125 
Q 39.65625 40.375 33.015625 40.375 
M 52.59375 71.296875 
L 52.59375 62.3125 
Q 48.875 64.0625 45.09375 64.984375 
Q 41.3125 65.921875 37.59375 65.921875 
Q 27.828125 65.921875 22.671875 59.328125 
Q 17.53125 52.734375 16.796875 39.40625 
Q 19.671875 43.65625 24.015625 45.921875 
Q 28.375 48.1875 33.59375 48.1875 
Q 44.578125 48.1875 50.953125 41.515625 
Q 57.328125 34.859375 57.328125 23.390625 
Q 57.328125 12.15625 50.6875 5.359375 
Q 44.046875 -1.421875 33.015625 -1.421875 
Q 20.359375 -1.421875 13.671875 8.265625 
Q 6.984375 17.96875 6.984375 36.375 
Q 6.984375 53.65625 15.1875 63.9375 
Q 23.390625 74.21875 37.203125 74.21875 
Q 40.921875 74.21875 44.703125 73.484375 
Q 48.484375 72.75 52.59375 71.296875 
" id="DejaVuSans-36"/>
      </defs>
      <g transform="translate(262.32825 322.182437)scale(0.1 -0.1)">
       <use xlink:href="#DejaVuSans-36"/>
       <use x="63.623047" xlink:href="#DejaVuSans-30"/>
       <use x="127.246094" xlink:href="#DejaVuSans-30"/>
      </g>
     </g>
    </g>
    <g id="xtick_5">
     <g id="line2d_9">
      <path clip-path="url(#pfe7cb002f6)" d="M 343.296 307.584 
L 343.296 41.472 
" style="fill:none;stroke:#b0b0b0;stroke-linecap:square;stroke-width:0.8;"/>
     </g>
     <g id="line2d_10">
      <g>
       <use style="stroke:#000000;stroke-width:0.8;" x="343.296" xlink:href="#m017d7d72d6" y="307.584"/>
      </g>
     </g>
     <g id="text_5">
      <!-- 800 -->
      <defs>
       <path d="M 31.78125 34.625 
Q 24.75 34.625 20.71875 30.859375 
Q 16.703125 27.09375 16.703125 20.515625 
Q 16.703125 13.921875 20.71875 10.15625 
Q 24.75 6.390625 31.78125 6.390625 
Q 38.8125 6.390625 42.859375 10.171875 
Q 46.921875 13.96875 46.921875 20.515625 
Q 46.921875 27.09375 42.890625 30.859375 
Q 38.875 34.625 31.78125 34.625 
M 21.921875 38.8125 
Q 15.578125 40.375 12.03125 44.71875 
Q 8.5 49.078125 8.5 55.328125 
Q 8.5 64.0625 14.71875 69.140625 
Q 20.953125 74.21875 31.78125 74.21875 
Q 42.671875 74.21875 48.875 69.140625 
Q 55.078125 64.0625 55.078125 55.328125 
Q 55.078125 49.078125 51.53125 44.71875 
Q 48 40.375 41.703125 38.8125 
Q 48.828125 37.15625 52.796875 32.3125 
Q 56.78125 27.484375 56.78125 20.515625 
Q 56.78125 9.90625 50.3125 4.234375 
Q 43.84375 -1.421875 31.78125 -1.421875 
Q 19.734375 -1.421875 13.25 4.234375 
Q 6.78125 9.90625 6.78125 20.515625 
Q 6.78125 27.484375 10.78125 32.3125 
Q 14.796875 37.15625 21.921875 38.8125 
M 18.3125 54.390625 
Q 18.3125 48.734375 21.84375 45.5625 
Q 25.390625 42.390625 31.78125 42.390625 
Q 38.140625 42.390625 41.71875 45.5625 
Q 45.3125 48.734375 45.3125 54.390625 
Q 45.3125 60.0625 41.71875 63.234375 
Q 38.140625 66.40625 31.78125 66.40625 
Q 25.390625 66.40625 21.84375 63.234375 
Q 18.3125 60.0625 18.3125 54.390625 
" id="DejaVuSans-38"/>
      </defs>
      <g transform="translate(333.75225 322.182437)scale(0.1 -0.1)">
       <use xlink:href="#DejaVuSans-38"/>
       <use x="63.623047" xlink:href="#DejaVuSans-30"/>
       <use x="127.246094" xlink:href="#DejaVuSans-30"/>
      </g>
     </g>
    </g>
    <g id="xtick_6">
     <g id="line2d_11">
      <path clip-path="url(#pfe7cb002f6)" d="M 414.72 307.584 
L 414.72 41.472 
" style="fill:none;stroke:#b0b0b0;stroke-linecap:square;stroke-width:0.8;"/>
     </g>
     <g id="line2d_12">
      <g>
       <use style="stroke:#000000;stroke-width:0.8;" x="414.72" xlink:href="#m017d7d72d6" y="307.584"/>
      </g>
     </g>
     <g id="text_6">
      <!-- 1000 -->
      <defs>
       <path d="M 12.40625 8.296875 
L 28.515625 8.296875 
L 28.515625 63.921875 
L 10.984375 60.40625 
L 10.984375 69.390625 
L 28.421875 72.90625 
L 38.28125 72.90625 
L 38.28125 8.296875 
L 54.390625 8.296875 
L 54.390625 0 
L 12.40625 0 
z
" id="DejaVuSans-31"/>
      </defs>
      <g transform="translate(401.995 322.182437)scale(0.1 -0.1)">
       <use xlink:href="#DejaVuSans-31"/>
       <use x="63.623047" xlink:href="#DejaVuSans-30"/>
       <use x="127.246094" xlink:href="#DejaVuSans-30"/>
       <use x="190.869141" xlink:href="#DejaVuSans-30"/>
      </g>
     </g>
    </g>
    <g id="text_7">
     <!-- Number of clients -->
     <defs>
      <path d="M 9.8125 72.90625 
L 23.09375 72.90625 
L 55.421875 11.921875 
L 55.421875 72.90625 
L 64.984375 72.90625 
L 64.984375 0 
L 51.703125 0 
L 19.390625 60.984375 
L 19.390625 0 
L 9.8125 0 
z
" id="DejaVuSans-4e"/>
      <path d="M 8.5 21.578125 
L 8.5 54.6875 
L 17.484375 54.6875 
L 17.484375 21.921875 
Q 17.484375 14.15625 20.5 10.265625 
Q 23.53125 6.390625 29.59375 6.390625 
Q 36.859375 6.390625 41.078125 11.03125 
Q 45.3125 15.671875 45.3125 23.6875 
L 45.3125 54.6875 
L 54.296875 54.6875 
L 54.296875 0 
L 45.3125 0 
L 45.3125 8.40625 
Q 42.046875 3.421875 37.71875 1 
Q 33.40625 -1.421875 27.6875 -1.421875 
Q 18.265625 -1.421875 13.375 4.4375 
Q 8.5 10.296875 8.5 21.578125 
M 31.109375 56 
z
" id="DejaVuSans-75"/>
      <path d="M 52 44.1875 
Q 55.375 50.25 60.0625 53.125 
Q 64.75 56 71.09375 56 
Q 79.640625 56 84.28125 50.015625 
Q 88.921875 44.046875 88.921875 33.015625 
L 88.921875 0 
L 79.890625 0 
L 79.890625 32.71875 
Q 79.890625 40.578125 77.09375 44.375 
Q 74.3125 48.1875 68.609375 48.1875 
Q 61.625 48.1875 57.5625 43.546875 
Q 53.515625 38.921875 53.515625 30.90625 
L 53.515625 0 
L 44.484375 0 
L 44.484375 32.71875 
Q 44.484375 40.625 41.703125 44.40625 
Q 38.921875 48.1875 33.109375 48.1875 
Q 26.21875 48.1875 22.15625 43.53125 
Q 18.109375 38.875 18.109375 30.90625 
L 18.109375 0 
L 9.078125 0 
L 9.078125 54.6875 
L 18.109375 54.6875 
L 18.109375 46.1875 
Q 21.1875 51.21875 25.484375 53.609375 
Q 29.78125 56 35.6875 56 
Q 41.65625 56 45.828125 52.96875 
Q 50 49.953125 52 44.1875 
" id="DejaVuSans-6d"/>
      <path d="M 48.6875 27.296875 
Q 48.6875 37.203125 44.609375 42.84375 
Q 40.53125 48.484375 33.40625 48.484375 
Q 26.265625 48.484375 22.1875 42.84375 
Q 18.109375 37.203125 18.109375 27.296875 
Q 18.109375 17.390625 22.1875 11.75 
Q 26.265625 6.109375 33.40625 6.109375 
Q 40.53125 6.109375 44.609375 11.75 
Q 48.6875 17.390625 48.6875 27.296875 
M 18.109375 46.390625 
Q 20.953125 51.265625 25.265625 53.625 
Q 29.59375 56 35.59375 56 
Q 45.5625 56 51.78125 48.09375 
Q 58.015625 40.1875 58.015625 27.296875 
Q 58.015625 14.40625 51.78125 6.484375 
Q 45.5625 -1.421875 35.59375 -1.421875 
Q 29.59375 -1.421875 25.265625 0.953125 
Q 20.953125 3.328125 18.109375 8.203125 
L 18.109375 0 
L 9.078125 0 
L 9.078125 75.984375 
L 18.109375 75.984375 
z
" id="DejaVuSans-62"/>
      <path d="M 56.203125 29.59375 
L 56.203125 25.203125 
L 14.890625 25.203125 
Q 15.484375 15.921875 20.484375 11.0625 
Q 25.484375 6.203125 34.421875 6.203125 
Q 39.59375 6.203125 44.453125 7.46875 
Q 49.3125 8.734375 54.109375 11.28125 
L 54.109375 2.78125 
Q 49.265625 0.734375 44.1875 -0.34375 
Q 39.109375 -1.421875 33.890625 -1.421875 
Q 20.796875 -1.421875 13.15625 6.1875 
Q 5.515625 13.8125 5.515625 26.8125 
Q 5.515625 40.234375 12.765625 48.109375 
Q 20.015625 56 32.328125 56 
Q 43.359375 56 49.78125 48.890625 
Q 56.203125 41.796875 56.203125 29.59375 
M 47.21875 32.234375 
Q 47.125 39.59375 43.09375 43.984375 
Q 39.0625 48.390625 32.421875 48.390625 
Q 24.90625 48.390625 20.390625 44.140625 
Q 15.875 39.890625 15.1875 32.171875 
z
" id="DejaVuSans-65"/>
      <path d="M 41.109375 46.296875 
Q 39.59375 47.171875 37.8125 47.578125 
Q 36.03125 48 33.890625 48 
Q 26.265625 48 22.1875 43.046875 
Q 18.109375 38.09375 18.109375 28.8125 
L 18.109375 0 
L 9.078125 0 
L 9.078125 54.6875 
L 18.109375 54.6875 
L 18.109375 46.1875 
Q 20.953125 51.171875 25.484375 53.578125 
Q 30.03125 56 36.53125 56 
Q 37.453125 56 38.578125 55.875 
Q 39.703125 55.765625 41.0625 55.515625 
z
" id="DejaVuSans-72"/>
      <path id="DejaVuSans-20"/>
      <path d="M 30.609375 48.390625 
Q 23.390625 48.390625 19.1875 42.75 
Q 14.984375 37.109375 14.984375 27.296875 
Q 14.984375 17.484375 19.15625 11.84375 
Q 23.34375 6.203125 30.609375 6.203125 
Q 37.796875 6.203125 41.984375 11.859375 
Q 46.1875 17.53125 46.1875 27.296875 
Q 46.1875 37.015625 41.984375 42.703125 
Q 37.796875 48.390625 30.609375 48.390625 
M 30.609375 56 
Q 42.328125 56 49.015625 48.375 
Q 55.71875 40.765625 55.71875 27.296875 
Q 55.71875 13.875 49.015625 6.21875 
Q 42.328125 -1.421875 30.609375 -1.421875 
Q 18.84375 -1.421875 12.171875 6.21875 
Q 5.515625 13.875 5.515625 27.296875 
Q 5.515625 40.765625 12.171875 48.375 
Q 18.84375 56 30.609375 56 
" id="DejaVuSans-6f"/>
      <path d="M 37.109375 75.984375 
L 37.109375 68.5 
L 28.515625 68.5 
Q 23.6875 68.5 21.796875 66.546875 
Q 19.921875 64.59375 19.921875 59.515625 
L 19.921875 54.6875 
L 34.71875 54.6875 
L 34.71875 47.703125 
L 19.921875 47.703125 
L 19.921875 0 
L 10.890625 0 
L 10.890625 47.703125 
L 2.296875 47.703125 
L 2.296875 54.6875 
L 10.890625 54.6875 
L 10.890625 58.5 
Q 10.890625 67.625 15.140625 71.796875 
Q 19.390625 75.984375 28.609375 75.984375 
z
" id="DejaVuSans-66"/>
      <path d="M 48.78125 52.59375 
L 48.78125 44.1875 
Q 44.96875 46.296875 41.140625 47.34375 
Q 37.3125 48.390625 33.40625 48.390625 
Q 24.65625 48.390625 19.8125 42.84375 
Q 14.984375 37.3125 14.984375 27.296875 
Q 14.984375 17.28125 19.8125 11.734375 
Q 24.65625 6.203125 33.40625 6.203125 
Q 37.3125 6.203125 41.140625 7.25 
Q 44.96875 8.296875 48.78125 10.40625 
L 48.78125 2.09375 
Q 45.015625 0.34375 40.984375 -0.53125 
Q 36.96875 -1.421875 32.421875 -1.421875 
Q 20.0625 -1.421875 12.78125 6.34375 
Q 5.515625 14.109375 5.515625 27.296875 
Q 5.515625 40.671875 12.859375 48.328125 
Q 20.21875 56 33.015625 56 
Q 37.15625 56 41.109375 55.140625 
Q 45.0625 54.296875 48.78125 52.59375 
" id="DejaVuSans-63"/>
      <path d="M 9.421875 75.984375 
L 18.40625 75.984375 
L 18.40625 0 
L 9.421875 0 
z
" id="DejaVuSans-6c"/>
      <path d="M 9.421875 54.6875 
L 18.40625 54.6875 
L 18.40625 0 
L 9.421875 0 
z
M 9.421875 75.984375 
L 18.40625 75.984375 
L 18.40625 64.59375 
L 9.421875 64.59375 
z
" id="DejaVuSans-69"/>
      <path d="M 54.890625 33.015625 
L 54.890625 0 
L 45.90625 0 
L 45.90625 32.71875 
Q 45.90625 40.484375 42.875 44.328125 
Q 39.84375 48.1875 33.796875 48.1875 
Q 26.515625 48.1875 22.3125 43.546875 
Q 18.109375 38.921875 18.109375 30.90625 
L 18.109375 0 
L 9.078125 0 
L 9.078125 54.6875 
L 18.109375 54.6875 
L 18.109375 46.1875 
Q 21.34375 51.125 25.703125 53.5625 
Q 30.078125 56 35.796875 56 
Q 45.21875 56 50.046875 50.171875 
Q 54.890625 44.34375 54.890625 33.015625 
" id="DejaVuSans-6e"/>
      <path d="M 18.3125 70.21875 
L 18.3125 54.6875 
L 36.8125 54.6875 
L 36.8125 47.703125 
L 18.3125 47.703125 
L 18.3125 18.015625 
Q 18.3125 11.328125 20.140625 9.421875 
Q 21.96875 7.515625 27.59375 7.515625 
L 36.8125 7.515625 
L 36.8125 0 
L 27.59375 0 
Q 17.1875 0 13.234375 3.875 
Q 9.28125 7.765625 9.28125 18.015625 
L 9.28125 47.703125 
L 2.6875 47.703125 
L 2.6875 54.6875 
L 9.28125 54.6875 
L 9.28125 70.21875 
z
" id="DejaVuSans-74"/>
      <path d="M 44.28125 53.078125 
L 44.28125 44.578125 
Q 40.484375 46.53125 36.375 47.5 
Q 32.28125 48.484375 27.875 48.484375 
Q 21.1875 48.484375 17.84375 46.4375 
Q 14.5 44.390625 14.5 40.28125 
Q 14.5 37.15625 16.890625 35.375 
Q 19.28125 33.59375 26.515625 31.984375 
L 29.59375 31.296875 
Q 39.15625 29.25 43.1875 25.515625 
Q 47.21875 21.78125 47.21875 15.09375 
Q 47.21875 7.46875 41.1875 3.015625 
Q 35.15625 -1.421875 24.609375 -1.421875 
Q 20.21875 -1.421875 15.453125 -0.5625 
Q 10.6875 0.296875 5.421875 2 
L 5.421875 11.28125 
Q 10.40625 8.6875 15.234375 7.390625 
Q 20.0625 6.109375 24.8125 6.109375 
Q 31.15625 6.109375 34.5625 8.28125 
Q 37.984375 10.453125 37.984375 14.40625 
Q 37.984375 18.0625 35.515625 20.015625 
Q 33.0625 21.96875 24.703125 23.78125 
L 21.578125 24.515625 
Q 13.234375 26.265625 9.515625 29.90625 
Q 5.8125 33.546875 5.8125 39.890625 
Q 5.8125 47.609375 11.28125 51.796875 
Q 16.75 56 26.8125 56 
Q 31.78125 56 36.171875 55.265625 
Q 40.578125 54.546875 44.28125 53.078125 
" id="DejaVuSans-73"/>
     </defs>
     <g transform="translate(191.738906 335.860562)scale(0.1 -0.1)">
      <use xlink:href="#DejaVuSans-4e"/>
      <use x="74.804688" xlink:href="#DejaVuSans-75"/>
      <use x="138.183594" xlink:href="#DejaVuSans-6d"/>
      <use x="235.595703" xlink:href="#DejaVuSans-62"/>
      <use x="299.072266" xlink:href="#DejaVuSans-65"/>
      <use x="360.595703" xlink:href="#DejaVuSans-72"/>
      <use x="401.708984" xlink:href="#DejaVuSans-20"/>
      <use x="433.496094" xlink:href="#DejaVuSans-6f"/>
      <use x="494.677734" xlink:href="#DejaVuSans-66"/>
      <use x="529.882812" xlink:href="#DejaVuSans-20"/>
      <use x="561.669922" xlink:href="#DejaVuSans-63"/>
      <use x="616.650391" xlink:href="#DejaVuSans-6c"/>
      <use x="644.433594" xlink:href="#DejaVuSans-69"/>
      <use x="672.216797" xlink:href="#DejaVuSans-65"/>
      <use x="733.740234" xlink:href="#DejaVuSans-6e"/>
      <use x="797.119141" xlink:href="#DejaVuSans-74"/>
      <use x="836.328125" xlink:href="#DejaVuSans-73"/>
     </g>
    </g>
   </g>
   <g id="matplotlib.axis_2">
    <g id="ytick_1">
     <g id="line2d_13">
      <path clip-path="url(#pfe7cb002f6)" d="M 57.6 295.812915 
L 414.72 295.812915 
" style="fill:none;stroke:#b0b0b0;stroke-linecap:square;stroke-width:0.8;"/>
     </g>
     <g id="line2d_14">
      <defs>
       <path d="M 0 0 
L -3.5 0 
" id="mb350a86168" style="stroke:#000000;stroke-width:0.8;"/>
      </defs>
      <g>
       <use style="stroke:#000000;stroke-width:0.8;" x="57.6" xlink:href="#mb350a86168" y="295.812915"/>
      </g>
     </g>
     <g id="text_8">
      <!-- 0 -->
      <g transform="translate(44.2375 299.612134)scale(0.1 -0.1)">
       <use xlink:href="#DejaVuSans-30"/>
      </g>
     </g>
    </g>
    <g id="ytick_2">
     <g id="line2d_15">
      <path clip-path="url(#pfe7cb002f6)" d="M 57.6 261.393935 
L 414.72 261.393935 
" style="fill:none;stroke:#b0b0b0;stroke-linecap:square;stroke-width:0.8;"/>
     </g>
     <g id="line2d_16">
      <g>
       <use style="stroke:#000000;stroke-width:0.8;" x="57.6" xlink:href="#mb350a86168" y="261.393935"/>
      </g>
     </g>
     <g id="text_9">
      <!-- 100 -->
      <g transform="translate(31.5125 265.193153)scale(0.1 -0.1)">
       <use xlink:href="#DejaVuSans-31"/>
       <use x="63.623047" xlink:href="#DejaVuSans-30"/>
       <use x="127.246094" xlink:href="#DejaVuSans-30"/>
      </g>
     </g>
    </g>
    <g id="ytick_3">
     <g id="line2d_17">
      <path clip-path="url(#pfe7cb002f6)" d="M 57.6 226.974954 
L 414.72 226.974954 
" style="fill:none;stroke:#b0b0b0;stroke-linecap:square;stroke-width:0.8;"/>
     </g>
     <g id="line2d_18">
      <g>
       <use style="stroke:#000000;stroke-width:0.8;" x="57.6" xlink:href="#mb350a86168" y="226.974954"/>
      </g>
     </g>
     <g id="text_10">
      <!-- 200 -->
      <g transform="translate(31.5125 230.774173)scale(0.1 -0.1)">
       <use xlink:href="#DejaVuSans-32"/>
       <use x="63.623047" xlink:href="#DejaVuSans-30"/>
       <use x="127.246094" xlink:href="#DejaVuSans-30"/>
      </g>
     </g>
    </g>
    <g id="ytick_4">
     <g id="line2d_19">
      <path clip-path="url(#pfe7cb002f6)" d="M 57.6 192.555974 
L 414.72 192.555974 
" style="fill:none;stroke:#b0b0b0;stroke-linecap:square;stroke-width:0.8;"/>
     </g>
     <g id="line2d_20">
      <g>
       <use style="stroke:#000000;stroke-width:0.8;" x="57.6" xlink:href="#mb350a86168" y="192.555974"/>
      </g>
     </g>
     <g id="text_11">
      <!-- 300 -->
      <defs>
       <path d="M 40.578125 39.3125 
Q 47.65625 37.796875 51.625 33 
Q 55.609375 28.21875 55.609375 21.1875 
Q 55.609375 10.40625 48.1875 4.484375 
Q 40.765625 -1.421875 27.09375 -1.421875 
Q 22.515625 -1.421875 17.65625 -0.515625 
Q 12.796875 0.390625 7.625 2.203125 
L 7.625 11.71875 
Q 11.71875 9.328125 16.59375 8.109375 
Q 21.484375 6.890625 26.8125 6.890625 
Q 36.078125 6.890625 40.9375 10.546875 
Q 45.796875 14.203125 45.796875 21.1875 
Q 45.796875 27.640625 41.28125 31.265625 
Q 36.765625 34.90625 28.71875 34.90625 
L 20.21875 34.90625 
L 20.21875 43.015625 
L 29.109375 43.015625 
Q 36.375 43.015625 40.234375 45.921875 
Q 44.09375 48.828125 44.09375 54.296875 
Q 44.09375 59.90625 40.109375 62.90625 
Q 36.140625 65.921875 28.71875 65.921875 
Q 24.65625 65.921875 20.015625 65.03125 
Q 15.375 64.15625 9.8125 62.3125 
L 9.8125 71.09375 
Q 15.4375 72.65625 20.34375 73.4375 
Q 25.25 74.21875 29.59375 74.21875 
Q 40.828125 74.21875 47.359375 69.109375 
Q 53.90625 64.015625 53.90625 55.328125 
Q 53.90625 49.265625 50.4375 45.09375 
Q 46.96875 40.921875 40.578125 39.3125 
" id="DejaVuSans-33"/>
      </defs>
      <g transform="translate(31.5125 196.355192)scale(0.1 -0.1)">
       <use xlink:href="#DejaVuSans-33"/>
       <use x="63.623047" xlink:href="#DejaVuSans-30"/>
       <use x="127.246094" xlink:href="#DejaVuSans-30"/>
      </g>
     </g>
    </g>
    <g id="ytick_5">
     <g id="line2d_21">
      <path clip-path="url(#pfe7cb002f6)" d="M 57.6 158.136993 
L 414.72 158.136993 
" style="fill:none;stroke:#b0b0b0;stroke-linecap:square;stroke-width:0.8;"/>
     </g>
     <g id="line2d_22">
      <g>
       <use style="stroke:#000000;stroke-width:0.8;" x="57.6" xlink:href="#mb350a86168" y="158.136993"/>
      </g>
     </g>
     <g id="text_12">
      <!-- 400 -->
      <g transform="translate(31.5125 161.936212)scale(0.1 -0.1)">
       <use xlink:href="#DejaVuSans-34"/>
       <use x="63.623047" xlink:href="#DejaVuSans-30"/>
       <use x="127.246094" xlink:href="#DejaVuSans-30"/>
      </g>
     </g>
    </g>
    <g id="ytick_6">
     <g id="line2d_23">
      <path clip-path="url(#pfe7cb002f6)" d="M 57.6 123.718013 
L 414.72 123.718013 
" style="fill:none;stroke:#b0b0b0;stroke-linecap:square;stroke-width:0.8;"/>
     </g>
     <g id="line2d_24">
      <g>
       <use style="stroke:#000000;stroke-width:0.8;" x="57.6" xlink:href="#mb350a86168" y="123.718013"/>
      </g>
     </g>
     <g id="text_13">
      <!-- 500 -->
      <defs>
       <path d="M 10.796875 72.90625 
L 49.515625 72.90625 
L 49.515625 64.59375 
L 19.828125 64.59375 
L 19.828125 46.734375 
Q 21.96875 47.46875 24.109375 47.828125 
Q 26.265625 48.1875 28.421875 48.1875 
Q 40.625 48.1875 47.75 41.5 
Q 54.890625 34.8125 54.890625 23.390625 
Q 54.890625 11.625 47.5625 5.09375 
Q 40.234375 -1.421875 26.90625 -1.421875 
Q 22.3125 -1.421875 17.546875 -0.640625 
Q 12.796875 0.140625 7.71875 1.703125 
L 7.71875 11.625 
Q 12.109375 9.234375 16.796875 8.0625 
Q 21.484375 6.890625 26.703125 6.890625 
Q 35.15625 6.890625 40.078125 11.328125 
Q 45.015625 15.765625 45.015625 23.390625 
Q 45.015625 31 40.078125 35.4375 
Q 35.15625 39.890625 26.703125 39.890625 
Q 22.75 39.890625 18.8125 39.015625 
Q 14.890625 38.140625 10.796875 36.28125 
z
" id="DejaVuSans-35"/>
      </defs>
      <g transform="translate(31.5125 127.517231)scale(0.1 -0.1)">
       <use xlink:href="#DejaVuSans-35"/>
       <use x="63.623047" xlink:href="#DejaVuSans-30"/>
       <use x="127.246094" xlink:href="#DejaVuSans-30"/>
      </g>
     </g>
    </g>
    <g id="ytick_7">
     <g id="line2d_25">
      <path clip-path="url(#pfe7cb002f6)" d="M 57.6 89.299032 
L 414.72 89.299032 
" style="fill:none;stroke:#b0b0b0;stroke-linecap:square;stroke-width:0.8;"/>
     </g>
     <g id="line2d_26">
      <g>
       <use style="stroke:#000000;stroke-width:0.8;" x="57.6" xlink:href="#mb350a86168" y="89.299032"/>
      </g>
     </g>
     <g id="text_14">
      <!-- 600 -->
      <g transform="translate(31.5125 93.098251)scale(0.1 -0.1)">
       <use xlink:href="#DejaVuSans-36"/>
       <use x="63.623047" xlink:href="#DejaVuSans-30"/>
       <use x="127.246094" xlink:href="#DejaVuSans-30"/>
      </g>
     </g>
    </g>
    <g id="ytick_8">
     <g id="line2d_27">
      <path clip-path="url(#pfe7cb002f6)" d="M 57.6 54.880052 
L 414.72 54.880052 
" style="fill:none;stroke:#b0b0b0;stroke-linecap:square;stroke-width:0.8;"/>
     </g>
     <g id="line2d_28">
      <g>
       <use style="stroke:#000000;stroke-width:0.8;" x="57.6" xlink:href="#mb350a86168" y="54.880052"/>
      </g>
     </g>
     <g id="text_15">
      <!-- 700 -->
      <defs>
       <path d="M 8.203125 72.90625 
L 55.078125 72.90625 
L 55.078125 68.703125 
L 28.609375 0 
L 18.3125 0 
L 43.21875 64.59375 
L 8.203125 64.59375 
z
" id="DejaVuSans-37"/>
      </defs>
      <g transform="translate(31.5125 58.67927)scale(0.1 -0.1)">
       <use xlink:href="#DejaVuSans-37"/>
       <use x="63.623047" xlink:href="#DejaVuSans-30"/>
       <use x="127.246094" xlink:href="#DejaVuSans-30"/>
      </g>
     </g>
    </g>
    <g id="text_16">
     <!-- Successful download requests per second -->
     <defs>
      <path d="M 53.515625 70.515625 
L 53.515625 60.890625 
Q 47.90625 63.578125 42.921875 64.890625 
Q 37.9375 66.21875 33.296875 66.21875 
Q 25.25 66.21875 20.875 63.09375 
Q 16.5 59.96875 16.5 54.203125 
Q 16.5 49.359375 19.40625 46.890625 
Q 22.3125 44.4375 30.421875 42.921875 
L 36.375 41.703125 
Q 47.40625 39.59375 52.65625 34.296875 
Q 57.90625 29 57.90625 20.125 
Q 57.90625 9.515625 50.796875 4.046875 
Q 43.703125 -1.421875 29.984375 -1.421875 
Q 24.8125 -1.421875 18.96875 -0.25 
Q 13.140625 0.921875 6.890625 3.21875 
L 6.890625 13.375 
Q 12.890625 10.015625 18.65625 8.296875 
Q 24.421875 6.59375 29.984375 6.59375 
Q 38.421875 6.59375 43.015625 9.90625 
Q 47.609375 13.234375 47.609375 19.390625 
Q 47.609375 24.75 44.3125 27.78125 
Q 41.015625 30.8125 33.5 32.328125 
L 27.484375 33.5 
Q 16.453125 35.6875 11.515625 40.375 
Q 6.59375 45.0625 6.59375 53.421875 
Q 6.59375 63.09375 13.40625 68.65625 
Q 20.21875 74.21875 32.171875 74.21875 
Q 37.3125 74.21875 42.625 73.28125 
Q 47.953125 72.359375 53.515625 70.515625 
" id="DejaVuSans-53"/>
      <path d="M 45.40625 46.390625 
L 45.40625 75.984375 
L 54.390625 75.984375 
L 54.390625 0 
L 45.40625 0 
L 45.40625 8.203125 
Q 42.578125 3.328125 38.25 0.953125 
Q 33.9375 -1.421875 27.875 -1.421875 
Q 17.96875 -1.421875 11.734375 6.484375 
Q 5.515625 14.40625 5.515625 27.296875 
Q 5.515625 40.1875 11.734375 48.09375 
Q 17.96875 56 27.875 56 
Q 33.9375 56 38.25 53.625 
Q 42.578125 51.265625 45.40625 46.390625 
M 14.796875 27.296875 
Q 14.796875 17.390625 18.875 11.75 
Q 22.953125 6.109375 30.078125 6.109375 
Q 37.203125 6.109375 41.296875 11.75 
Q 45.40625 17.390625 45.40625 27.296875 
Q 45.40625 37.203125 41.296875 42.84375 
Q 37.203125 48.484375 30.078125 48.484375 
Q 22.953125 48.484375 18.875 42.84375 
Q 14.796875 37.203125 14.796875 27.296875 
" id="DejaVuSans-64"/>
      <path d="M 4.203125 54.6875 
L 13.1875 54.6875 
L 24.421875 12.015625 
L 35.59375 54.6875 
L 46.1875 54.6875 
L 57.421875 12.015625 
L 68.609375 54.6875 
L 77.59375 54.6875 
L 63.28125 0 
L 52.6875 0 
L 40.921875 44.828125 
L 29.109375 0 
L 18.5 0 
z
" id="DejaVuSans-77"/>
      <path d="M 34.28125 27.484375 
Q 23.390625 27.484375 19.1875 25 
Q 14.984375 22.515625 14.984375 16.5 
Q 14.984375 11.71875 18.140625 8.90625 
Q 21.296875 6.109375 26.703125 6.109375 
Q 34.1875 6.109375 38.703125 11.40625 
Q 43.21875 16.703125 43.21875 25.484375 
L 43.21875 27.484375 
z
M 52.203125 31.203125 
L 52.203125 0 
L 43.21875 0 
L 43.21875 8.296875 
Q 40.140625 3.328125 35.546875 0.953125 
Q 30.953125 -1.421875 24.3125 -1.421875 
Q 15.921875 -1.421875 10.953125 3.296875 
Q 6 8.015625 6 15.921875 
Q 6 25.140625 12.171875 29.828125 
Q 18.359375 34.515625 30.609375 34.515625 
L 43.21875 34.515625 
L 43.21875 35.40625 
Q 43.21875 41.609375 39.140625 45 
Q 35.0625 48.390625 27.6875 48.390625 
Q 23 48.390625 18.546875 47.265625 
Q 14.109375 46.140625 10.015625 43.890625 
L 10.015625 52.203125 
Q 14.9375 54.109375 19.578125 55.046875 
Q 24.21875 56 28.609375 56 
Q 40.484375 56 46.34375 49.84375 
Q 52.203125 43.703125 52.203125 31.203125 
" id="DejaVuSans-61"/>
      <path d="M 14.796875 27.296875 
Q 14.796875 17.390625 18.875 11.75 
Q 22.953125 6.109375 30.078125 6.109375 
Q 37.203125 6.109375 41.296875 11.75 
Q 45.40625 17.390625 45.40625 27.296875 
Q 45.40625 37.203125 41.296875 42.84375 
Q 37.203125 48.484375 30.078125 48.484375 
Q 22.953125 48.484375 18.875 42.84375 
Q 14.796875 37.203125 14.796875 27.296875 
M 45.40625 8.203125 
Q 42.578125 3.328125 38.25 0.953125 
Q 33.9375 -1.421875 27.875 -1.421875 
Q 17.96875 -1.421875 11.734375 6.484375 
Q 5.515625 14.40625 5.515625 27.296875 
Q 5.515625 40.1875 11.734375 48.09375 
Q 17.96875 56 27.875 56 
Q 33.9375 56 38.25 53.625 
Q 42.578125 51.265625 45.40625 46.390625 
L 45.40625 54.6875 
L 54.390625 54.6875 
L 54.390625 -20.796875 
L 45.40625 -20.796875 
z
" id="DejaVuSans-71"/>
      <path d="M 18.109375 8.203125 
L 18.109375 -20.796875 
L 9.078125 -20.796875 
L 9.078125 54.6875 
L 18.109375 54.6875 
L 18.109375 46.390625 
Q 20.953125 51.265625 25.265625 53.625 
Q 29.59375 56 35.59375 56 
Q 45.5625 56 51.78125 48.09375 
Q 58.015625 40.1875 58.015625 27.296875 
Q 58.015625 14.40625 51.78125 6.484375 
Q 45.5625 -1.421875 35.59375 -1.421875 
Q 29.59375 -1.421875 25.265625 0.953125 
Q 20.953125 3.328125 18.109375 8.203125 
M 48.6875 27.296875 
Q 48.6875 37.203125 44.609375 42.84375 
Q 40.53125 48.484375 33.40625 48.484375 
Q 26.265625 48.484375 22.1875 42.84375 
Q 18.109375 37.203125 18.109375 27.296875 
Q 18.109375 17.390625 22.1875 11.75 
Q 26.265625 6.109375 33.40625 6.109375 
Q 40.53125 6.109375 44.609375 11.75 
Q 48.6875 17.390625 48.6875 27.296875 
" id="DejaVuSans-70"/>
     </defs>
     <g transform="translate(25.432812 279.366281)rotate(-90)scale(0.1 -0.1)">
      <use xlink:href="#DejaVuSans-53"/>
      <use x="63.476562" xlink:href="#DejaVuSans-75"/>
      <use x="126.855469" xlink:href="#DejaVuSans-63"/>
      <use x="181.835938" xlink:href="#DejaVuSans-63"/>
      <use x="236.816406" xlink:href="#DejaVuSans-65"/>
      <use x="298.339844" xlink:href="#DejaVuSans-73"/>
      <use x="350.439453" xlink:href="#DejaVuSans-73"/>
      <use x="402.539062" xlink:href="#DejaVuSans-66"/>
      <use x="437.744141" xlink:href="#DejaVuSans-75"/>
      <use x="501.123047" xlink:href="#DejaVuSans-6c"/>
      <use x="528.90625" xlink:href="#DejaVuSans-20"/>
      <use x="560.693359" xlink:href="#DejaVuSans-64"/>
      <use x="624.169922" xlink:href="#DejaVuSans-6f"/>
      <use x="685.351562" xlink:href="#DejaVuSans-77"/>
      <use x="767.138672" xlink:href="#DejaVuSans-6e"/>
      <use x="830.517578" xlink:href="#DejaVuSans-6c"/>
      <use x="858.300781" xlink:href="#DejaVuSans-6f"/>
      <use x="919.482422" xlink:href="#DejaVuSans-61"/>
      <use x="980.761719" xlink:href="#DejaVuSans-64"/>
      <use x="1044.238281" xlink:href="#DejaVuSans-20"/>
      <use x="1076.025391" xlink:href="#DejaVuSans-72"/>
      <use x="1117.107422" xlink:href="#DejaVuSans-65"/>
      <use x="1178.630859" xlink:href="#DejaVuSans-71"/>
      <use x="1242.107422" xlink:href="#DejaVuSans-75"/>
      <use x="1305.486328" xlink:href="#DejaVuSans-65"/>
      <use x="1367.009766" xlink:href="#DejaVuSans-73"/>
      <use x="1419.109375" xlink:href="#DejaVuSans-74"/>
      <use x="1458.318359" xlink:href="#DejaVuSans-73"/>
      <use x="1510.417969" xlink:href="#DejaVuSans-20"/>
      <use x="1542.205078" xlink:href="#DejaVuSans-70"/>
      <use x="1605.681641" xlink:href="#DejaVuSans-65"/>
      <use x="1667.205078" xlink:href="#DejaVuSans-72"/>
      <use x="1708.318359" xlink:href="#DejaVuSans-20"/>
      <use x="1740.105469" xlink:href="#DejaVuSans-73"/>
      <use x="1792.205078" xlink:href="#DejaVuSans-65"/>
      <use x="1853.728516" xlink:href="#DejaVuSans-63"/>
      <use x="1908.708984" xlink:href="#DejaVuSans-6f"/>
      <use x="1969.890625" xlink:href="#DejaVuSans-6e"/>
      <use x="2033.269531" xlink:href="#DejaVuSans-64"/>
     </g>
    </g>
   </g>
   <g id="line2d_29">
    <path clip-path="url(#pfe7cb002f6)" d="M 57.6 295.488 
L 57.95712 295.471135 
L 61.88544 291.931143 
L 62.24256 291.37562 
L 62.9568 290.93368 
L 63.31392 290.323776 
L 63.67104 290.302781 
L 64.02816 289.775826 
L 65.09952 288.968013 
L 65.45664 288.471691 
L 65.81376 288.272405 
L 66.528 287.508648 
L 66.88512 287.394033 
L 67.24224 286.614098 
L 67.59936 286.332207 
L 67.95648 286.490878 
L 68.3136 285.660004 
L 68.67072 285.785289 
L 69.02784 284.992964 
L 69.38496 284.913457 
L 69.74208 284.205458 
L 70.0992 283.934237 
L 70.45632 284.285999 
L 71.52768 282.689302 
L 71.8848 282.332377 
L 72.24192 282.226711 
L 72.59904 281.723161 
L 72.95616 281.730733 
L 73.6704 280.71675 
L 74.02752 280.593186 
L 74.38464 279.689344 
L 74.74176 280.383575 
L 75.09888 279.677297 
L 75.456 279.453918 
L 75.81312 278.423758 
L 76.17024 278.62683 
L 76.52736 278.178695 
L 76.88448 277.485496 
L 77.2416 277.974246 
L 77.59872 277.035985 
L 77.95584 276.475644 
L 78.67008 276.908634 
L 79.0272 275.206272 
L 79.74144 275.844399 
L 80.09856 274.421863 
L 80.45568 274.581911 
L 80.8128 273.78821 
L 81.16992 274.333406 
L 81.52704 273.076769 
L 81.88416 273.625408 
L 82.24128 273.438513 
L 82.5984 272.800729 
L 82.95552 271.43877 
L 83.31264 272.566336 
L 83.66976 271.16032 
L 84.02688 270.670882 
L 84.384 270.390712 
L 84.74112 270.39794 
L 85.09824 270.807526 
L 85.45536 269.351259 
L 85.81248 268.718982 
L 86.1696 269.334049 
L 86.88384 268.221628 
L 87.24096 267.365284 
L 87.59808 267.35427 
L 87.9552 268.465314 
L 88.66944 267.304362 
L 89.02656 265.626093 
L 89.7408 265.996097 
L 90.09792 266.431841 
L 90.81216 264.867498 
L 91.16928 265.282247 
L 91.5264 263.494869 
L 91.88352 264.889526 
L 92.24064 263.033999 
L 92.59776 262.894602 
L 92.95488 262.499128 
L 93.312 263.282848 
L 93.66912 262.539054 
L 94.02624 262.477444 
L 94.38336 261.048712 
L 95.0976 261.810749 
L 95.81184 261.425944 
L 96.16896 258.95535 
L 96.52608 258.448702 
L 96.8832 258.460749 
L 97.24032 260.204759 
L 97.59744 258.809758 
L 97.95456 259.187334 
L 98.31168 257.179675 
L 98.6688 257.1456 
L 99.02592 257.960641 
L 99.38304 256.21078 
L 99.74016 256.193571 
L 100.09728 255.361664 
L 100.4544 257.22201 
L 100.81152 255.813241 
L 101.16864 255.032619 
L 101.52576 253.507169 
L 102.24 255.367171 
L 102.59712 254.967567 
L 102.95424 252.535177 
L 103.31136 254.754169 
L 103.66848 254.001426 
L 104.0256 252.186513 
L 104.38272 251.402793 
L 104.73984 252.132131 
L 105.09696 251.65061 
L 105.45408 252.099777 
L 105.8112 252.001339 
L 106.16832 251.244466 
L 106.52544 248.734978 
L 106.88256 250.655557 
L 107.23968 248.948375 
L 107.5968 250.29106 
L 107.95392 249.547954 
L 108.31104 249.281551 
L 108.66816 249.990926 
L 109.02528 248.68507 
L 109.3824 246.775161 
L 109.73952 246.426497 
L 110.09664 248.050384 
L 110.45376 247.736139 
L 110.81088 246.901479 
L 111.168 246.38898 
L 111.52512 246.681541 
L 111.88224 243.532549 
L 112.23936 244.253971 
L 112.59648 245.29721 
L 112.9536 242.788411 
L 113.31072 243.897046 
L 113.66784 244.521406 
L 114.02496 244.815 
L 114.38208 241.611626 
L 114.7392 243.830273 
L 115.09632 241.360367 
L 115.45344 242.665191 
L 115.81056 240.381491 
L 116.16768 243.048274 
L 116.5248 240.591791 
L 116.88192 241.753088 
L 117.23904 241.576174 
L 117.59616 240.611754 
L 117.95328 238.695305 
L 118.3104 238.009335 
L 118.66752 237.945316 
L 119.02464 236.63292 
L 119.38176 236.943379 
L 119.73888 236.032997 
L 120.096 238.70391 
L 120.45312 235.629951 
L 120.81024 235.718752 
L 121.16736 236.777136 
L 121.52448 238.437851 
L 121.8816 234.539558 
L 122.23872 234.016045 
L 122.59584 237.016003 
L 122.95296 237.041129 
L 123.6672 232.86886 
L 124.02432 232.967643 
L 124.38144 235.846791 
L 124.73856 234.909906 
L 125.09568 233.543472 
L 125.4528 231.240843 
L 125.80992 230.551086 
L 126.16704 233.040611 
L 126.52416 231.100069 
L 126.88128 232.503675 
L 127.2384 232.388716 
L 127.59552 233.012732 
L 127.95264 229.407688 
L 128.30976 227.835084 
L 128.66688 227.362168 
L 129.024 229.668584 
L 129.38112 229.473428 
L 129.73824 228.617772 
L 130.09536 229.405278 
L 130.45248 228.050891 
L 130.8096 227.511202 
L 131.16672 226.438362 
L 131.52384 229.158838 
L 131.88096 228.957143 
L 132.23808 227.281283 
L 132.5952 226.791501 
L 132.95232 224.098904 
L 133.30944 222.931412 
L 133.66656 222.767234 
L 134.02368 225.337643 
L 134.3808 226.401534 
L 134.73792 222.91971 
L 135.09504 221.536755 
L 135.45216 225.643284 
L 135.80928 224.202849 
L 136.1664 223.637346 
L 136.52352 221.067625 
L 136.88064 222.676023 
L 137.23776 222.862574 
L 137.59488 220.754412 
L 137.952 220.782635 
L 138.30912 219.468863 
L 138.66624 220.52587 
L 139.02336 220.875222 
L 139.38048 220.767491 
L 139.7376 221.431433 
L 140.09472 218.425624 
L 140.45184 217.341426 
L 140.80896 220.034711 
L 141.16608 218.361948 
L 141.5232 220.51107 
L 141.88032 219.991687 
L 142.23744 214.479832 
L 142.59456 219.045165 
L 142.95168 214.939325 
L 143.3088 218.533011 
L 143.66592 215.412242 
L 144.38016 212.397139 
L 144.73728 216.369089 
L 145.0944 215.193337 
L 145.45152 211.219322 
L 145.80864 215.677956 
L 146.16576 211.021412 
L 146.52288 211.447519 
L 146.88 213.783191 
L 147.23712 214.718699 
L 147.59424 214.674987 
L 147.95136 209.708328 
L 148.30848 209.998136 
L 148.6656 212.38819 
L 149.02272 211.037245 
L 149.37984 212.371669 
L 149.73696 210.797689 
L 150.09408 207.691032 
L 150.4512 211.817179 
L 150.80832 211.594833 
L 151.16544 206.335957 
L 151.52256 210.803885 
L 151.87968 205.538469 
L 152.59392 208.48198 
L 152.95104 206.088484 
L 153.30816 204.525518 
L 153.66528 204.405396 
L 154.0224 205.165023 
L 154.37952 204.378893 
L 154.73664 208.307476 
L 155.09376 206.427167 
L 155.45088 205.809002 
L 156.16512 206.635058 
L 156.52224 203.055139 
L 156.87936 204.307646 
L 157.23648 204.603649 
L 157.5936 201.429875 
L 157.95072 204.058109 
L 158.30784 203.765547 
L 158.66496 198.639184 
L 159.02208 202.838988 
L 159.3792 200.403501 
L 159.73632 200.220392 
L 160.09344 201.600938 
L 160.80768 201.076736 
L 161.1648 199.60326 
L 161.52192 197.476511 
L 161.87904 198.524569 
L 162.23616 196.06671 
L 162.59328 199.430821 
L 162.9504 196.508649 
L 163.30752 196.999464 
L 163.66464 196.794327 
L 164.02176 200.338105 
L 164.37888 194.146475 
L 164.736 195.570044 
L 165.09312 198.086071 
L 165.45024 198.357981 
L 165.80736 194.976316 
L 166.5216 191.092134 
L 166.87872 193.742052 
L 167.23584 193.904165 
L 167.59296 190.37381 
L 167.95008 192.518113 
L 168.3072 196.575422 
L 168.66432 192.741148 
L 169.02144 193.845653 
L 169.37856 189.325752 
L 169.73568 188.630145 
L 170.0928 189.465149 
L 170.44992 187.140147 
L 170.80704 189.263454 
L 171.16416 187.594133 
L 171.52128 188.414338 
L 171.8784 193.089124 
L 172.23552 185.590949 
L 172.59264 187.768982 
L 172.94976 185.137651 
L 173.30688 187.722516 
L 173.664 186.049754 
L 174.02112 185.507655 
L 174.37824 191.031213 
L 174.73536 190.402378 
L 175.4496 185.537943 
L 175.80672 187.269218 
L 176.16384 185.549302 
L 176.52096 183.243574 
L 176.87808 186.10035 
L 177.2352 182.664303 
L 177.59232 181.500941 
L 177.94944 183.555754 
L 178.30656 184.126765 
L 178.66368 186.026005 
L 179.0208 184.87469 
L 179.37792 179.085073 
L 179.73504 185.515915 
L 180.09216 185.152107 
L 181.16352 178.790791 
L 181.52064 177.791952 
L 181.87776 179.304666 
L 182.23488 176.497798 
L 182.592 180.17822 
L 182.94912 181.370149 
L 183.30624 182.011031 
L 183.66336 182.41924 
L 184.02048 174.745872 
L 184.3776 176.371136 
L 184.73472 175.991839 
L 185.09184 174.906953 
L 185.44896 179.260266 
L 185.80608 178.493755 
L 186.1632 172.633235 
L 186.52032 173.543617 
L 186.87744 172.934401 
L 187.23456 173.618306 
L 187.9488 178.265213 
L 188.30592 174.054395 
L 188.66304 176.135711 
L 189.02016 169.541034 
L 189.37728 171.385203 
L 189.7344 168.685378 
L 190.44864 174.379654 
L 190.80576 171.635773 
L 191.16288 175.339944 
L 191.52 167.193315 
L 191.87712 170.247656 
L 192.23424 171.948297 
L 192.59136 173.058654 
L 192.94848 171.811654 
L 193.3056 168.170126 
L 193.66272 166.576871 
L 194.01984 172.87348 
L 194.37696 169.893828 
L 194.73408 172.220552 
L 195.0912 167.511002 
L 195.44832 168.83338 
L 195.80544 167.655906 
L 196.16256 164.968817 
L 196.51968 165.343983 
L 196.8768 162.612493 
L 197.23392 169.863884 
L 197.59104 166.953759 
L 197.94816 168.433775 
L 198.6624 161.961286 
L 199.01952 165.486478 
L 199.37664 164.08597 
L 199.73376 160.244467 
L 200.09088 160.788287 
L 200.448 159.168186 
L 200.80512 159.126195 
L 201.16224 158.852908 
L 201.51936 161.735842 
L 201.87648 160.51741 
L 202.2336 163.16836 
L 202.59072 161.422629 
L 202.94784 163.758645 
L 203.30496 159.433556 
L 203.66208 159.247005 
L 204.0192 157.194257 
L 204.37632 163.92661 
L 204.73344 158.016871 
L 205.09056 158.219943 
L 205.44768 154.555354 
L 206.16192 160.908754 
L 206.51904 153.853207 
L 206.87616 159.847272 
L 207.23328 154.091042 
L 207.5904 160.269249 
L 207.94752 156.041566 
L 208.66176 156.039845 
L 209.376 153.402662 
L 209.73312 156.475245 
L 210.09024 158.483592 
L 210.44736 156.33688 
L 210.80448 157.499209 
L 211.1616 148.484534 
L 211.51872 150.18793 
L 211.87584 153.430198 
L 212.23296 150.221316 
L 212.59008 155.814056 
L 212.9472 146.236975 
L 213.30432 154.338859 
L 213.66144 146.191542 
L 214.01856 153.542403 
L 214.37568 151.874115 
L 214.7328 153.995013 
L 215.08992 145.385105 
L 215.44704 147.269888 
L 215.80416 146.026675 
L 216.16128 143.698575 
L 216.5184 148.823905 
L 216.87552 142.959599 
L 217.23264 143.952587 
L 217.58976 141.637566 
L 217.94688 146.712989 
L 218.304 142.944111 
L 218.66112 147.276772 
L 219.01824 147.589985 
L 219.37536 144.151529 
L 219.73248 147.634041 
L 220.0896 146.638988 
L 220.44672 149.81586 
L 220.80384 148.33963 
L 221.16096 149.087211 
L 221.51808 141.457211 
L 222.23232 137.263602 
L 222.58944 145.490771 
L 222.94656 147.173171 
L 223.30368 139.485003 
L 223.6608 137.680416 
L 224.01792 143.122401 
L 224.37504 145.056404 
L 224.73216 137.077396 
L 225.08928 140.082861 
L 225.4464 141.664757 
L 225.80352 136.071329 
L 226.16064 138.177082 
L 226.51776 134.298751 
L 226.87488 140.478335 
L 227.232 138.251083 
L 227.58912 141.463062 
L 227.94624 138.380498 
L 228.30336 139.973753 
L 228.66048 138.412852 
L 229.0176 140.246695 
L 229.37472 138.451057 
L 229.73184 131.330114 
L 230.44608 139.137027 
L 230.8032 139.234089 
L 231.16032 135.164045 
L 231.51744 134.939289 
L 231.87456 136.50191 
L 232.23168 131.462627 
L 232.5888 134.857371 
L 233.66016 126.958904 
L 234.01728 128.889464 
L 234.3744 136.398998 
L 234.73152 129.623965 
L 235.08864 131.743486 
L 235.44576 131.893553 
L 235.80288 135.832117 
L 236.51712 123.916954 
L 237.23136 124.891011 
L 237.58848 122.669266 
L 237.9456 129.151393 
L 238.30272 124.444597 
L 238.65984 121.870746 
L 239.01696 130.939459 
L 239.37408 123.539034 
L 239.7312 124.45389 
L 240.08832 129.079457 
L 240.44544 122.634503 
L 240.80256 128.402092 
L 241.15968 130.763234 
L 241.5168 129.064657 
L 241.87392 124.041551 
L 242.23104 127.682391 
L 242.58816 117.80965 
L 242.94528 123.530773 
L 243.3024 117.974173 
L 244.01664 123.39 
L 244.37376 127.82282 
L 244.73088 116.22741 
L 245.088 126.307697 
L 245.44512 114.832409 
L 245.80224 116.96432 
L 246.15936 117.057596 
L 246.51648 125.245527 
L 246.8736 113.583688 
L 247.23072 117.999299 
L 247.58784 117.779706 
L 247.94496 113.926501 
L 248.30208 119.940874 
L 248.6592 121.506249 
L 249.01632 121.723088 
L 249.37344 111.668616 
L 249.73056 113.814639 
L 250.08768 122.177075 
L 250.4448 115.557961 
L 250.80192 118.912435 
L 251.15904 111.690644 
L 251.51616 117.109224 
L 251.87328 110.893156 
L 252.2304 109.240013 
L 252.58752 120.240319 
L 252.94464 117.035912 
L 253.30176 121.186152 
L 253.65888 119.314792 
L 254.016 109.688492 
L 254.37312 110.444333 
L 254.73024 109.50676 
L 255.08736 119.941562 
L 255.44448 115.471225 
L 255.8016 120.212784 
L 256.15872 111.030832 
L 256.51584 110.632949 
L 256.87296 119.792184 
L 257.23008 113.178577 
L 257.94432 109.51502 
L 258.30144 112.413787 
L 258.65856 112.679846 
L 259.01568 106.88541 
L 259.3728 117.383199 
L 259.72992 109.763869 
L 260.44416 117.708803 
L 260.80128 110.552753 
L 261.1584 116.245308 
L 261.51552 114.425576 
L 261.87264 111.468642 
L 262.22976 107.278819 
L 262.58688 115.127035 
L 262.944 111.777036 
L 263.30112 114.835162 
L 263.65824 114.655839 
L 264.01536 104.634753 
L 264.37248 108.178875 
L 264.7296 106.289618 
L 265.08672 116.842821 
L 265.44384 105.032292 
L 265.80096 107.31014 
L 266.15808 106.911569 
L 266.5152 103.667924 
L 266.87232 105.762319 
L 267.22944 111.154052 
L 267.58656 112.555249 
L 267.94368 107.833997 
L 268.3008 110.778197 
L 268.65792 105.168936 
L 269.37216 112.722869 
L 269.72928 114.445539 
L 270.0864 104.097473 
L 270.44352 110.248145 
L 270.80064 103.540918 
L 271.15776 112.164938 
L 271.51488 112.574179 
L 271.872 114.225258 
L 272.22912 114.446228 
L 272.58624 105.698644 
L 272.94336 104.507403 
L 273.30048 105.119372 
L 273.6576 108.7017 
L 274.37184 111.128238 
L 274.72896 103.781506 
L 275.08608 105.316593 
L 275.4432 105.947493 
L 275.80032 109.56183 
L 276.15744 103.48688 
L 276.51456 105.7427 
L 276.87168 106.707808 
L 277.2288 108.515493 
L 277.58592 103.636947 
L 277.94304 105.790542 
L 278.30016 101.152585 
L 278.65728 105.325886 
L 279.0144 98.565654 
L 279.37152 99.795789 
L 279.72864 111.651062 
L 280.08576 107.889412 
L 280.44288 98.935314 
L 281.15712 106.8386 
L 281.51424 100.868284 
L 281.87136 109.61931 
L 282.22848 103.308934 
L 282.5856 104.80375 
L 282.94272 101.813085 
L 283.29984 105.68109 
L 283.65696 107.97718 
L 284.01408 99.955493 
L 284.3712 109.533607 
L 285.08544 97.574732 
L 285.79968 103.1599 
L 286.1568 102.634666 
L 286.51392 98.291679 
L 286.87104 106.414559 
L 287.22816 99.286043 
L 287.58528 107.350755 
L 287.9424 98.890914 
L 288.29952 108.107972 
L 288.65664 101.962808 
L 289.01376 105.046404 
L 289.37088 103.873061 
L 289.728 95.242502 
L 290.08512 102.737235 
L 290.44224 97.785376 
L 290.79936 98.331261 
L 291.15648 98.566687 
L 291.5136 99.65295 
L 291.87072 105.774021 
L 292.22784 103.703375 
L 292.58496 95.539537 
L 292.94208 104.924561 
L 293.2992 94.90313 
L 293.65632 95.224948 
L 294.01344 93.767992 
L 294.37056 95.88476 
L 294.72768 105.872804 
L 295.0848 104.164246 
L 295.44192 97.415372 
L 295.79904 98.470314 
L 296.15616 95.453834 
L 296.51328 102.701439 
L 296.8704 92.50103 
L 297.22752 97.465624 
L 297.58464 97.450823 
L 297.94176 95.45762 
L 298.29888 104.42342 
L 298.656 101.557008 
L 299.01312 101.431034 
L 299.37024 102.196512 
L 299.72736 104.013146 
L 300.08448 97.225035 
L 300.79872 93.668866 
L 301.15584 101.499528 
L 301.51296 92.168198 
L 302.2272 99.103279 
L 302.58432 90.21561 
L 303.29856 99.696662 
L 303.65568 96.805123 
L 304.0128 90.924296 
L 304.36992 94.377208 
L 304.72704 99.039259 
L 305.08416 88.545601 
L 305.44128 88.225848 
L 305.7984 99.699071 
L 306.15552 88.168369 
L 306.51264 93.395923 
L 306.86976 90.690591 
L 307.94112 99.793035 
L 308.29824 99.714904 
L 308.65536 88.267151 
L 309.01248 88.342873 
L 309.3696 101.090631 
L 309.72672 100.706515 
L 310.08384 88.66056 
L 310.44096 94.059177 
L 310.79808 95.577742 
L 311.1552 99.813686 
L 311.51232 96.990986 
L 311.86944 89.227441 
L 312.22656 89.703799 
L 312.58368 97.890698 
L 312.9408 90.084817 
L 313.29792 89.929932 
L 313.65504 99.371058 
L 314.01216 89.900676 
L 314.36928 94.114592 
L 315.08352 96.411714 
L 315.44064 98.686121 
L 315.79776 95.149915 
L 316.15488 87.508901 
L 316.512 85.813766 
L 316.86912 96.136018 
L 317.22624 87.504082 
L 317.94048 95.331647 
L 318.2976 92.507914 
L 318.65472 84.567799 
L 319.01184 98.051779 
L 319.36896 94.659788 
L 319.72608 89.223999 
L 320.0832 85.942837 
L 320.44032 88.904591 
L 320.79744 97.091833 
L 321.51168 87.686847 
L 321.8688 86.009954 
L 322.22592 93.976572 
L 322.58304 87.633842 
L 322.94016 93.515013 
L 323.29728 91.269519 
L 323.6544 82.936339 
L 324.01152 82.42212 
L 324.36864 87.610093 
L 324.72576 87.308582 
L 325.08288 92.610826 
L 325.44 93.43998 
L 325.79712 91.472935 
L 326.15424 88.660904 
L 326.51136 95.573268 
L 326.86848 90.982809 
L 327.2256 91.271928 
L 327.58272 83.280185 
L 327.93984 82.931865 
L 328.65408 92.040848 
L 329.0112 82.656513 
L 329.36832 86.392349 
L 329.72544 82.564614 
L 330.08256 84.805634 
L 330.43968 86.094969 
L 330.7968 86.233678 
L 331.15392 86.524174 
L 331.51104 87.650363 
L 331.86816 81.685554 
L 332.22528 88.509116 
L 332.5824 78.934789 
L 332.93952 90.009784 
L 333.29664 89.315553 
L 333.65376 89.489025 
L 334.01088 88.123624 
L 334.368 80.643003 
L 334.72512 80.186951 
L 335.08224 92.659701 
L 335.43936 92.760205 
L 335.79648 83.783735 
L 336.1536 81.250153 
L 336.51072 82.966628 
L 336.86784 82.389422 
L 337.22496 91.476033 
L 337.58208 80.911815 
L 337.9392 80.225845 
L 338.29632 77.560439 
L 338.65344 81.73787 
L 339.01056 82.050051 
L 339.36768 79.689253 
L 339.7248 86.796772 
L 340.08192 76.221885 
L 340.79616 86.853908 
L 341.15328 82.302342 
L 341.5104 88.275756 
L 341.86752 86.635691 
L 342.22464 83.280873 
L 342.58176 78.579241 
L 342.93888 86.851154 
L 343.296 89.396782 
L 343.65312 79.587373 
L 344.01024 84.918184 
L 344.36736 77.139839 
L 344.72448 83.110499 
L 345.0816 86.468415 
L 345.43872 86.588537 
L 345.79584 75.133556 
L 346.15296 88.615471 
L 346.51008 74.058307 
L 346.8672 85.005953 
L 347.22432 83.089504 
L 347.58144 74.40353 
L 347.93856 84.949161 
L 348.29568 73.498311 
L 348.6528 75.889397 
L 349.00992 74.993127 
L 349.36704 83.705948 
L 349.72416 79.488934 
L 350.08128 78.109766 
L 350.79552 82.867157 
L 351.15264 81.285261 
L 351.50976 72.299498 
L 351.86688 82.813464 
L 352.224 82.169484 
L 352.58112 77.308492 
L 352.93824 79.703709 
L 353.29536 77.331553 
L 353.65248 83.842591 
L 354.0096 83.763427 
L 354.36672 80.38486 
L 354.72384 84.596711 
L 355.08096 74.749785 
L 355.43808 76.27248 
L 355.7952 79.812128 
L 356.15232 77.006637 
L 356.50944 84.318261 
L 356.86656 79.14681 
L 357.22368 71.003623 
L 357.5808 84.591892 
L 357.93792 78.875932 
L 358.29504 84.470049 
L 358.65216 81.863844 
L 359.00928 81.881053 
L 359.3664 74.570118 
L 359.72352 84.481752 
L 360.08064 83.756199 
L 360.43776 73.566116 
L 360.79488 79.718509 
L 361.152 79.767384 
L 361.50912 75.673246 
L 361.86624 78.595762 
L 362.22336 72.796508 
L 362.58048 82.510577 
L 362.9376 73.032966 
L 363.29472 69.419317 
L 363.65184 74.528815 
L 364.00896 72.426159 
L 364.36608 80.937973 
L 364.7232 81.404695 
L 365.08032 73.797756 
L 365.43744 76.336844 
L 365.79456 81.178906 
L 366.15168 76.837296 
L 366.5088 78.343126 
L 366.86592 80.506703 
L 367.22304 75.198264 
L 367.58016 77.186649 
L 367.93728 71.231132 
L 368.2944 80.15976 
L 368.65152 71.00913 
L 369.00864 73.22468 
L 369.36576 82.553256 
L 369.72288 72.346996 
L 370.08 71.09621 
L 370.43712 66.645836 
L 370.79424 80.059601 
L 371.50848 71.315803 
L 371.8656 75.21685 
L 372.22272 67.63194 
L 372.57984 78.242279 
L 372.93696 66.393545 
L 373.29408 67.927943 
L 373.6512 66.558067 
L 374.00832 76.058739 
L 374.36544 72.687399 
L 374.72256 77.575927 
L 375.07968 80.54422 
L 375.4368 66.35947 
L 375.79392 80.126374 
L 376.15104 79.698546 
L 376.50816 70.63121 
L 376.86528 70.92859 
L 377.2224 64.460919 
L 377.93664 78.936165 
L 378.65088 78.225069 
L 379.008 79.406329 
L 380.07936 65.28663 
L 380.43648 72.672599 
L 380.7936 65.247393 
L 381.15072 63.849982 
L 382.5792 77.448233 
L 382.93632 69.367689 
L 383.29344 67.004137 
L 383.65056 69.907723 
L 384.00768 68.115526 
L 384.3648 68.844176 
L 384.72192 62.101842 
L 385.07904 68.533717 
L 385.43616 62.752705 
L 385.79328 74.343985 
L 386.1504 70.87524 
L 386.50752 75.41889 
L 386.86464 72.720442 
L 387.22176 71.729175 
L 387.57888 68.105545 
L 387.936 70.616754 
L 388.29312 66.611073 
L 388.65024 67.789923 
L 389.00736 73.369584 
L 389.36448 70.64601 
L 389.7216 69.173566 
L 390.07872 75.636418 
L 390.43584 62.840818 
L 390.79296 61.429295 
L 391.15008 74.804855 
L 391.5072 67.959264 
L 391.86432 67.40856 
L 392.22144 61.116427 
L 392.57856 63.707487 
L 392.93568 63.800763 
L 393.2928 74.712956 
L 393.64992 74.662361 
L 394.00704 73.301778 
L 394.36416 73.963999 
L 395.0784 60.594979 
L 395.43552 65.290072 
L 395.79264 61.911849 
L 396.14976 74.593523 
L 396.50688 61.800676 
L 396.864 59.79818 
L 397.22112 67.335248 
L 397.57824 67.049226 
L 397.93536 60.19744 
L 398.29248 58.357745 
L 398.6496 60.003317 
L 399.00672 70.945455 
L 399.36384 65.335505 
L 399.72096 71.012228 
L 400.07808 67.302894 
L 400.4352 72.668125 
L 400.79232 58.235214 
L 401.86368 72.925235 
L 402.2208 70.246405 
L 402.57792 62.972642 
L 402.93504 68.001599 
L 403.29216 58.002886 
L 403.64928 57.226738 
L 404.0064 68.170941 
L 404.36352 65.500716 
L 405.07776 55.815904 
L 405.792 64.272647 
L 406.14912 71.444874 
L 406.86336 64.104683 
L 407.22048 69.01042 
L 407.5776 68.220504 
L 407.93472 62.63809 
L 408.29184 55.042165 
L 408.64896 57.741301 
L 409.00608 59.58134 
L 409.3632 67.051291 
L 409.72032 59.292565 
L 410.07744 60.340967 
L 410.43456 55.737773 
L 410.79168 54.076713 
L 411.1488 70.470817 
L 411.50592 57.783637 
L 412.22016 66.500244 
L 412.57728 57.477308 
L 412.9344 65.235002 
L 413.29152 66.783512 
L 413.64864 60.128258 
L 414.00576 69.987575 
L 414.36288 53.568 
L 414.72 59.078479 
L 414.72 59.078479 
" style="fill:none;stroke:#000080;stroke-linecap:square;stroke-width:0.5;"/>
   </g>
   <g id="patch_3">
    <path d="M 57.6 307.584 
L 57.6 41.472 
" style="fill:none;stroke:#000000;stroke-linecap:square;stroke-linejoin:miter;stroke-width:0.8;"/>
   </g>
   <g id="patch_4">
    <path d="M 414.72 307.584 
L 414.72 41.472 
" style="fill:none;stroke:#000000;stroke-linecap:square;stroke-linejoin:miter;stroke-width:0.8;"/>
   </g>
   <g id="patch_5">
    <path d="M 57.6 307.584 
L 414.72 307.584 
" style="fill:none;stroke:#000000;stroke-linecap:square;stroke-linejoin:miter;stroke-width:0.8;"/>
   </g>
   <g id="patch_6">
    <path d="M 57.6 41.472 
L 414.72 41.472 
" style="fill:none;stroke:#000000;stroke-linecap:square;stroke-linejoin:miter;stroke-width:0.8;"/>
   </g>
   <g id="text_17">
    <!-- Test -->
    <defs>
     <path d="M -0.296875 72.90625 
L 61.375 72.90625 
L 61.375 64.59375 
L 35.5 64.59375 
L 35.5 0 
L 25.59375 0 
L 25.59375 64.59375 
L -0.296875 64.59375 
z
" id="DejaVuSans-54"/>
    </defs>
    <g transform="translate(223.341563 35.472)scale(0.12 -0.12)">
     <use xlink:href="#DejaVuSans-54"/>
     <use x="60.818359" xlink:href="#DejaVuSans-65"/>
     <use x="122.341797" xlink:href="#DejaVuSans-73"/>
     <use x="174.441406" xlink:href="#DejaVuSans-74"/>
    </g>
   </g>
   <g id="legend_1">
    <g id="patch_7">
     <path d="M 64.6 64.150125 
L 306.276563 64.150125 
Q 308.276563 64.150125 308.276563 62.150125 
L 308.276563 48.472 
Q 308.276563 46.472 306.276563 46.472 
L 64.6 46.472 
Q 62.6 46.472 62.6 48.472 
L 62.6 62.150125 
Q 62.6 64.150125 64.6 64.150125 
z
" style="fill:#ffffff;opacity:0.8;stroke:#cccccc;stroke-linejoin:miter;"/>
    </g>
    <g id="line2d_30">
     <path d="M 66.6 54.570438 
L 86.6 54.570438 
" style="fill:none;stroke:#000080;stroke-linecap:square;stroke-width:0.5;"/>
    </g>
    <g id="line2d_31"/>
    <g id="text_18">
     <!-- Successful download requests per second -->
     <g transform="translate(94.6 58.070438)scale(0.1 -0.1)">
      <use xlink:href="#DejaVuSans-53"/>
      <use x="63.476562" xlink:href="#DejaVuSans-75"/>
      <use x="126.855469" xlink:href="#DejaVuSans-63"/>
      <use x="181.835938" xlink:href="#DejaVuSans-63"/>
      <use x="236.816406" xlink:href="#DejaVuSans-65"/>
      <use x="298.339844" xlink:href="#DejaVuSans-73"/>
      <use x="350.439453" xlink:href="#DejaVuSans-73"/>
      <use x="402.539062" xlink:href="#DejaVuSans-66"/>
      <use x="437.744141" xlink:href="#DejaVuSans-75"/>
      <use x="501.123047" xlink:href="#DejaVuSans-6c"/>
      <use x="528.90625" xlink:href="#DejaVuSans-20"/>
      <use x="560.693359" xlink:href="#DejaVuSans-64"/>
      <use x="624.169922" xlink:href="#DejaVuSans-6f"/>
      <use x="685.351562" xlink:href="#DejaVuSans-77"/>
      <use x="767.138672" xlink:href="#DejaVuSans-6e"/>
      <use x="830.517578" xlink:href="#DejaVuSans-6c"/>
      <use x="858.300781" xlink:href="#DejaVuSans-6f"/>
      <use x="919.482422" xlink:href="#DejaVuSans-61"/>
      <use x="980.761719" xlink:href="#DejaVuSans-64"/>
      <use x="1044.238281" xlink:href="#DejaVuSans-20"/>
      <use x="1076.025391" xlink:href="#DejaVuSans-72"/>
      <use x="1117.107422" xlink:href="#DejaVuSans-65"/>
      <use x="1178.630859" xlink:href="#DejaVuSans-71"/>
      <use x="1242.107422" xlink:href="#DejaVuSans-75"/>
      <use x="1305.486328" xlink:href="#DejaVuSans-65"/>
      <use x="1367.009766" xlink:href="#DejaVuSans-73"/>
      <use x="1419.109375" xlink:href="#DejaVuSans-74"/>
      <use x="1458.318359" xlink:href="#DejaVuSans-73"/>
      <use x="1510.417969" xlink:href="#DejaVuSans-20"/>
      <use x="1542.205078" xlink:href="#DejaVuSans-70"/>
      <use x="1605.681641" xlink:href="#DejaVuSans-65"/>
      <use x="1667.205078" xlink:href="#DejaVuSans-72"/>
      <use x="1708.318359" xlink:href="#DejaVuSans-20"/>
      <use x="1740.105469" xlink:href="#DejaVuSans-73"/>
      <use x="1792.205078" xlink:href="#DejaVuSans-65"/>
      <use x="1853.728516" xlink:href="#DejaVuSans-63"/>
      <use x="1908.708984" xlink:href="#DejaVuSans-6f"/>
      <use x="1969.890625" xlink:href="#DejaVuSans-6e"/>
      <use x="2033.269531" xlink:href="#DejaVuSans-64"/>
     </g>
    </g>
   </g>
  </g>
 </g>
 <defs>
  <clipPath id="pfe7cb002f6">
   <rect height="266.112" width="357.12" x="57.6" y="41.472"/>
  </clipPath>
 </defs>
</svg>
