<?xml version="1.0" encoding="utf-8" standalone="no"?>
<!DOCTYPE svg PUBLIC "-//W3C//DTD SVG 1.1//EN"
  "http://www.w3.org/Graphics/SVG/1.1/DTD/svg11.dtd">
<!-- Created with matplotlib (http://matplotlib.org/) -->
<svg height="345pt" version="1.1" viewBox="0 0 460 345" width="460pt" xmlns="http://www.w3.org/2000/svg" xmlns:xlink="http://www.w3.org/1999/xlink">
 <defs>
  <style type="text/css">
*{stroke-linecap:butt;stroke-linejoin:round;}
  </style>
 </defs>
 <g id="figure_1">
  <g id="patch_1">
   <path d="M 0 345.6 
L 460.8 345.6 
L 460.8 0 
L 0 0 
z
" style="fill:#ffffff;"/>
  </g>
  <g id="axes_1">
   <g id="patch_2">
    <path d="M 57.6 307.584 
L 414.72 307.584 
L 414.72 41.472 
L 57.6 41.472 
z
" style="fill:#ffffff;"/>
   </g>
   <g id="matplotlib.axis_1">
    <g id="xtick_1">
     <g id="line2d_1">
      <path clip-path="url(#pe0db1cc97e)" d="M 57.6 307.584 
L 57.6 41.472 
" style="fill:none;stroke:#b0b0b0;stroke-linecap:square;stroke-width:0.8;"/>
     </g>
     <g id="line2d_2">
      <defs>
       <path d="M 0 0 
L 0 3.5 
" id="m3d782ddf50" style="stroke:#000000;stroke-width:0.8;"/>
      </defs>
      <g>
       <use style="stroke:#000000;stroke-width:0.8;" x="57.6" xlink:href="#m3d782ddf50" y="307.584"/>
      </g>
     </g>
     <g id="text_1">
      <!-- 0 -->
      <defs>
       <path d="M 31.78125 66.40625 
Q 24.171875 66.40625 20.328125 58.90625 
Q 16.5 51.421875 16.5 36.375 
Q 16.5 21.390625 20.328125 13.890625 
Q 24.171875 6.390625 31.78125 6.390625 
Q 39.453125 6.390625 43.28125 13.890625 
Q 47.125 21.390625 47.125 36.375 
Q 47.125 51.421875 43.28125 58.90625 
Q 39.453125 66.40625 31.78125 66.40625 
M 31.78125 74.21875 
Q 44.046875 74.21875 50.515625 64.515625 
Q 56.984375 54.828125 56.984375 36.375 
Q 56.984375 17.96875 50.515625 8.265625 
Q 44.046875 -1.421875 31.78125 -1.421875 
Q 19.53125 -1.421875 13.0625 8.265625 
Q 6.59375 17.96875 6.59375 36.375 
Q 6.59375 54.828125 13.0625 64.515625 
Q 19.53125 74.21875 31.78125 74.21875 
" id="DejaVuSans-30"/>
      </defs>
      <g transform="translate(54.41875 322.182437)scale(0.1 -0.1)">
       <use xlink:href="#DejaVuSans-30"/>
      </g>
     </g>
    </g>
    <g id="xtick_2">
     <g id="line2d_3">
      <path clip-path="url(#pe0db1cc97e)" d="M 129.024 307.584 
L 129.024 41.472 
" style="fill:none;stroke:#b0b0b0;stroke-linecap:square;stroke-width:0.8;"/>
     </g>
     <g id="line2d_4">
      <g>
       <use style="stroke:#000000;stroke-width:0.8;" x="129.024" xlink:href="#m3d782ddf50" y="307.584"/>
      </g>
     </g>
     <g id="text_2">
      <!-- 200 -->
      <defs>
       <path d="M 19.1875 8.296875 
L 53.609375 8.296875 
L 53.609375 0 
L 7.328125 0 
L 7.328125 8.296875 
Q 12.9375 14.109375 22.625 23.890625 
Q 32.328125 33.6875 34.8125 36.53125 
Q 39.546875 41.84375 41.421875 45.53125 
Q 43.3125 49.21875 43.3125 52.78125 
Q 43.3125 58.59375 39.234375 62.25 
Q 35.15625 65.921875 28.609375 65.921875 
Q 23.96875 65.921875 18.8125 64.3125 
Q 13.671875 62.703125 7.8125 59.421875 
L 7.8125 69.390625 
Q 13.765625 71.78125 18.9375 73 
Q 24.125 74.21875 28.421875 74.21875 
Q 39.75 74.21875 46.484375 68.546875 
Q 53.21875 62.890625 53.21875 53.421875 
Q 53.21875 48.921875 51.53125 44.890625 
Q 49.859375 40.875 45.40625 35.40625 
Q 44.1875 33.984375 37.640625 27.21875 
Q 31.109375 20.453125 19.1875 8.296875 
" id="DejaVuSans-32"/>
      </defs>
      <g transform="translate(119.48025 322.182437)scale(0.1 -0.1)">
       <use xlink:href="#DejaVuSans-32"/>
       <use x="63.623047" xlink:href="#DejaVuSans-30"/>
       <use x="127.246094" xlink:href="#DejaVuSans-30"/>
      </g>
     </g>
    </g>
    <g id="xtick_3">
     <g id="line2d_5">
      <path clip-path="url(#pe0db1cc97e)" d="M 200.448 307.584 
L 200.448 41.472 
" style="fill:none;stroke:#b0b0b0;stroke-linecap:square;stroke-width:0.8;"/>
     </g>
     <g id="line2d_6">
      <g>
       <use style="stroke:#000000;stroke-width:0.8;" x="200.448" xlink:href="#m3d782ddf50" y="307.584"/>
      </g>
     </g>
     <g id="text_3">
      <!-- 400 -->
      <defs>
       <path d="M 37.796875 64.3125 
L 12.890625 25.390625 
L 37.796875 25.390625 
z
M 35.203125 72.90625 
L 47.609375 72.90625 
L 47.609375 25.390625 
L 58.015625 25.390625 
L 58.015625 17.1875 
L 47.609375 17.1875 
L 47.609375 0 
L 37.796875 0 
L 37.796875 17.1875 
L 4.890625 17.1875 
L 4.890625 26.703125 
z
" id="DejaVuSans-34"/>
      </defs>
      <g transform="translate(190.90425 322.182437)scale(0.1 -0.1)">
       <use xlink:href="#DejaVuSans-34"/>
       <use x="63.623047" xlink:href="#DejaVuSans-30"/>
       <use x="127.246094" xlink:href="#DejaVuSans-30"/>
      </g>
     </g>
    </g>
    <g id="xtick_4">
     <g id="line2d_7">
      <path clip-path="url(#pe0db1cc97e)" d="M 271.872 307.584 
L 271.872 41.472 
" style="fill:none;stroke:#b0b0b0;stroke-linecap:square;stroke-width:0.8;"/>
     </g>
     <g id="line2d_8">
      <g>
       <use style="stroke:#000000;stroke-width:0.8;" x="271.872" xlink:href="#m3d782ddf50" y="307.584"/>
      </g>
     </g>
     <g id="text_4">
      <!-- 600 -->
      <defs>
       <path d="M 33.015625 40.375 
Q 26.375 40.375 22.484375 35.828125 
Q 18.609375 31.296875 18.609375 23.390625 
Q 18.609375 15.53125 22.484375 10.953125 
Q 26.375 6.390625 33.015625 6.390625 
Q 39.65625 6.390625 43.53125 10.953125 
Q 47.40625 15.53125 47.40625 23.390625 
Q 47.40625 31.296875 43.53125 35.828125 
Q 39.65625 40.375 33.015625 40.375 
M 52.59375 71.296875 
L 52.59375 62.3125 
Q 48.875 64.0625 45.09375 64.984375 
Q 41.3125 65.921875 37.59375 65.921875 
Q 27.828125 65.921875 22.671875 59.328125 
Q 17.53125 52.734375 16.796875 39.40625 
Q 19.671875 43.65625 24.015625 45.921875 
Q 28.375 48.1875 33.59375 48.1875 
Q 44.578125 48.1875 50.953125 41.515625 
Q 57.328125 34.859375 57.328125 23.390625 
Q 57.328125 12.15625 50.6875 5.359375 
Q 44.046875 -1.421875 33.015625 -1.421875 
Q 20.359375 -1.421875 13.671875 8.265625 
Q 6.984375 17.96875 6.984375 36.375 
Q 6.984375 53.65625 15.1875 63.9375 
Q 23.390625 74.21875 37.203125 74.21875 
Q 40.921875 74.21875 44.703125 73.484375 
Q 48.484375 72.75 52.59375 71.296875 
" id="DejaVuSans-36"/>
      </defs>
      <g transform="translate(262.32825 322.182437)scale(0.1 -0.1)">
       <use xlink:href="#DejaVuSans-36"/>
       <use x="63.623047" xlink:href="#DejaVuSans-30"/>
       <use x="127.246094" xlink:href="#DejaVuSans-30"/>
      </g>
     </g>
    </g>
    <g id="xtick_5">
     <g id="line2d_9">
      <path clip-path="url(#pe0db1cc97e)" d="M 343.296 307.584 
L 343.296 41.472 
" style="fill:none;stroke:#b0b0b0;stroke-linecap:square;stroke-width:0.8;"/>
     </g>
     <g id="line2d_10">
      <g>
       <use style="stroke:#000000;stroke-width:0.8;" x="343.296" xlink:href="#m3d782ddf50" y="307.584"/>
      </g>
     </g>
     <g id="text_5">
      <!-- 800 -->
      <defs>
       <path d="M 31.78125 34.625 
Q 24.75 34.625 20.71875 30.859375 
Q 16.703125 27.09375 16.703125 20.515625 
Q 16.703125 13.921875 20.71875 10.15625 
Q 24.75 6.390625 31.78125 6.390625 
Q 38.8125 6.390625 42.859375 10.171875 
Q 46.921875 13.96875 46.921875 20.515625 
Q 46.921875 27.09375 42.890625 30.859375 
Q 38.875 34.625 31.78125 34.625 
M 21.921875 38.8125 
Q 15.578125 40.375 12.03125 44.71875 
Q 8.5 49.078125 8.5 55.328125 
Q 8.5 64.0625 14.71875 69.140625 
Q 20.953125 74.21875 31.78125 74.21875 
Q 42.671875 74.21875 48.875 69.140625 
Q 55.078125 64.0625 55.078125 55.328125 
Q 55.078125 49.078125 51.53125 44.71875 
Q 48 40.375 41.703125 38.8125 
Q 48.828125 37.15625 52.796875 32.3125 
Q 56.78125 27.484375 56.78125 20.515625 
Q 56.78125 9.90625 50.3125 4.234375 
Q 43.84375 -1.421875 31.78125 -1.421875 
Q 19.734375 -1.421875 13.25 4.234375 
Q 6.78125 9.90625 6.78125 20.515625 
Q 6.78125 27.484375 10.78125 32.3125 
Q 14.796875 37.15625 21.921875 38.8125 
M 18.3125 54.390625 
Q 18.3125 48.734375 21.84375 45.5625 
Q 25.390625 42.390625 31.78125 42.390625 
Q 38.140625 42.390625 41.71875 45.5625 
Q 45.3125 48.734375 45.3125 54.390625 
Q 45.3125 60.0625 41.71875 63.234375 
Q 38.140625 66.40625 31.78125 66.40625 
Q 25.390625 66.40625 21.84375 63.234375 
Q 18.3125 60.0625 18.3125 54.390625 
" id="DejaVuSans-38"/>
      </defs>
      <g transform="translate(333.75225 322.182437)scale(0.1 -0.1)">
       <use xlink:href="#DejaVuSans-38"/>
       <use x="63.623047" xlink:href="#DejaVuSans-30"/>
       <use x="127.246094" xlink:href="#DejaVuSans-30"/>
      </g>
     </g>
    </g>
    <g id="xtick_6">
     <g id="line2d_11">
      <path clip-path="url(#pe0db1cc97e)" d="M 414.72 307.584 
L 414.72 41.472 
" style="fill:none;stroke:#b0b0b0;stroke-linecap:square;stroke-width:0.8;"/>
     </g>
     <g id="line2d_12">
      <g>
       <use style="stroke:#000000;stroke-width:0.8;" x="414.72" xlink:href="#m3d782ddf50" y="307.584"/>
      </g>
     </g>
     <g id="text_6">
      <!-- 1000 -->
      <defs>
       <path d="M 12.40625 8.296875 
L 28.515625 8.296875 
L 28.515625 63.921875 
L 10.984375 60.40625 
L 10.984375 69.390625 
L 28.421875 72.90625 
L 38.28125 72.90625 
L 38.28125 8.296875 
L 54.390625 8.296875 
L 54.390625 0 
L 12.40625 0 
z
" id="DejaVuSans-31"/>
      </defs>
      <g transform="translate(401.995 322.182437)scale(0.1 -0.1)">
       <use xlink:href="#DejaVuSans-31"/>
       <use x="63.623047" xlink:href="#DejaVuSans-30"/>
       <use x="127.246094" xlink:href="#DejaVuSans-30"/>
       <use x="190.869141" xlink:href="#DejaVuSans-30"/>
      </g>
     </g>
    </g>
    <g id="text_7">
     <!-- Number of clients -->
     <defs>
      <path d="M 9.8125 72.90625 
L 23.09375 72.90625 
L 55.421875 11.921875 
L 55.421875 72.90625 
L 64.984375 72.90625 
L 64.984375 0 
L 51.703125 0 
L 19.390625 60.984375 
L 19.390625 0 
L 9.8125 0 
z
" id="DejaVuSans-4e"/>
      <path d="M 8.5 21.578125 
L 8.5 54.6875 
L 17.484375 54.6875 
L 17.484375 21.921875 
Q 17.484375 14.15625 20.5 10.265625 
Q 23.53125 6.390625 29.59375 6.390625 
Q 36.859375 6.390625 41.078125 11.03125 
Q 45.3125 15.671875 45.3125 23.6875 
L 45.3125 54.6875 
L 54.296875 54.6875 
L 54.296875 0 
L 45.3125 0 
L 45.3125 8.40625 
Q 42.046875 3.421875 37.71875 1 
Q 33.40625 -1.421875 27.6875 -1.421875 
Q 18.265625 -1.421875 13.375 4.4375 
Q 8.5 10.296875 8.5 21.578125 
M 31.109375 56 
z
" id="DejaVuSans-75"/>
      <path d="M 52 44.1875 
Q 55.375 50.25 60.0625 53.125 
Q 64.75 56 71.09375 56 
Q 79.640625 56 84.28125 50.015625 
Q 88.921875 44.046875 88.921875 33.015625 
L 88.921875 0 
L 79.890625 0 
L 79.890625 32.71875 
Q 79.890625 40.578125 77.09375 44.375 
Q 74.3125 48.1875 68.609375 48.1875 
Q 61.625 48.1875 57.5625 43.546875 
Q 53.515625 38.921875 53.515625 30.90625 
L 53.515625 0 
L 44.484375 0 
L 44.484375 32.71875 
Q 44.484375 40.625 41.703125 44.40625 
Q 38.921875 48.1875 33.109375 48.1875 
Q 26.21875 48.1875 22.15625 43.53125 
Q 18.109375 38.875 18.109375 30.90625 
L 18.109375 0 
L 9.078125 0 
L 9.078125 54.6875 
L 18.109375 54.6875 
L 18.109375 46.1875 
Q 21.1875 51.21875 25.484375 53.609375 
Q 29.78125 56 35.6875 56 
Q 41.65625 56 45.828125 52.96875 
Q 50 49.953125 52 44.1875 
" id="DejaVuSans-6d"/>
      <path d="M 48.6875 27.296875 
Q 48.6875 37.203125 44.609375 42.84375 
Q 40.53125 48.484375 33.40625 48.484375 
Q 26.265625 48.484375 22.1875 42.84375 
Q 18.109375 37.203125 18.109375 27.296875 
Q 18.109375 17.390625 22.1875 11.75 
Q 26.265625 6.109375 33.40625 6.109375 
Q 40.53125 6.109375 44.609375 11.75 
Q 48.6875 17.390625 48.6875 27.296875 
M 18.109375 46.390625 
Q 20.953125 51.265625 25.265625 53.625 
Q 29.59375 56 35.59375 56 
Q 45.5625 56 51.78125 48.09375 
Q 58.015625 40.1875 58.015625 27.296875 
Q 58.015625 14.40625 51.78125 6.484375 
Q 45.5625 -1.421875 35.59375 -1.421875 
Q 29.59375 -1.421875 25.265625 0.953125 
Q 20.953125 3.328125 18.109375 8.203125 
L 18.109375 0 
L 9.078125 0 
L 9.078125 75.984375 
L 18.109375 75.984375 
z
" id="DejaVuSans-62"/>
      <path d="M 56.203125 29.59375 
L 56.203125 25.203125 
L 14.890625 25.203125 
Q 15.484375 15.921875 20.484375 11.0625 
Q 25.484375 6.203125 34.421875 6.203125 
Q 39.59375 6.203125 44.453125 7.46875 
Q 49.3125 8.734375 54.109375 11.28125 
L 54.109375 2.78125 
Q 49.265625 0.734375 44.1875 -0.34375 
Q 39.109375 -1.421875 33.890625 -1.421875 
Q 20.796875 -1.421875 13.15625 6.1875 
Q 5.515625 13.8125 5.515625 26.8125 
Q 5.515625 40.234375 12.765625 48.109375 
Q 20.015625 56 32.328125 56 
Q 43.359375 56 49.78125 48.890625 
Q 56.203125 41.796875 56.203125 29.59375 
M 47.21875 32.234375 
Q 47.125 39.59375 43.09375 43.984375 
Q 39.0625 48.390625 32.421875 48.390625 
Q 24.90625 48.390625 20.390625 44.140625 
Q 15.875 39.890625 15.1875 32.171875 
z
" id="DejaVuSans-65"/>
      <path d="M 41.109375 46.296875 
Q 39.59375 47.171875 37.8125 47.578125 
Q 36.03125 48 33.890625 48 
Q 26.265625 48 22.1875 43.046875 
Q 18.109375 38.09375 18.109375 28.8125 
L 18.109375 0 
L 9.078125 0 
L 9.078125 54.6875 
L 18.109375 54.6875 
L 18.109375 46.1875 
Q 20.953125 51.171875 25.484375 53.578125 
Q 30.03125 56 36.53125 56 
Q 37.453125 56 38.578125 55.875 
Q 39.703125 55.765625 41.0625 55.515625 
z
" id="DejaVuSans-72"/>
      <path id="DejaVuSans-20"/>
      <path d="M 30.609375 48.390625 
Q 23.390625 48.390625 19.1875 42.75 
Q 14.984375 37.109375 14.984375 27.296875 
Q 14.984375 17.484375 19.15625 11.84375 
Q 23.34375 6.203125 30.609375 6.203125 
Q 37.796875 6.203125 41.984375 11.859375 
Q 46.1875 17.53125 46.1875 27.296875 
Q 46.1875 37.015625 41.984375 42.703125 
Q 37.796875 48.390625 30.609375 48.390625 
M 30.609375 56 
Q 42.328125 56 49.015625 48.375 
Q 55.71875 40.765625 55.71875 27.296875 
Q 55.71875 13.875 49.015625 6.21875 
Q 42.328125 -1.421875 30.609375 -1.421875 
Q 18.84375 -1.421875 12.171875 6.21875 
Q 5.515625 13.875 5.515625 27.296875 
Q 5.515625 40.765625 12.171875 48.375 
Q 18.84375 56 30.609375 56 
" id="DejaVuSans-6f"/>
      <path d="M 37.109375 75.984375 
L 37.109375 68.5 
L 28.515625 68.5 
Q 23.6875 68.5 21.796875 66.546875 
Q 19.921875 64.59375 19.921875 59.515625 
L 19.921875 54.6875 
L 34.71875 54.6875 
L 34.71875 47.703125 
L 19.921875 47.703125 
L 19.921875 0 
L 10.890625 0 
L 10.890625 47.703125 
L 2.296875 47.703125 
L 2.296875 54.6875 
L 10.890625 54.6875 
L 10.890625 58.5 
Q 10.890625 67.625 15.140625 71.796875 
Q 19.390625 75.984375 28.609375 75.984375 
z
" id="DejaVuSans-66"/>
      <path d="M 48.78125 52.59375 
L 48.78125 44.1875 
Q 44.96875 46.296875 41.140625 47.34375 
Q 37.3125 48.390625 33.40625 48.390625 
Q 24.65625 48.390625 19.8125 42.84375 
Q 14.984375 37.3125 14.984375 27.296875 
Q 14.984375 17.28125 19.8125 11.734375 
Q 24.65625 6.203125 33.40625 6.203125 
Q 37.3125 6.203125 41.140625 7.25 
Q 44.96875 8.296875 48.78125 10.40625 
L 48.78125 2.09375 
Q 45.015625 0.34375 40.984375 -0.53125 
Q 36.96875 -1.421875 32.421875 -1.421875 
Q 20.0625 -1.421875 12.78125 6.34375 
Q 5.515625 14.109375 5.515625 27.296875 
Q 5.515625 40.671875 12.859375 48.328125 
Q 20.21875 56 33.015625 56 
Q 37.15625 56 41.109375 55.140625 
Q 45.0625 54.296875 48.78125 52.59375 
" id="DejaVuSans-63"/>
      <path d="M 9.421875 75.984375 
L 18.40625 75.984375 
L 18.40625 0 
L 9.421875 0 
z
" id="DejaVuSans-6c"/>
      <path d="M 9.421875 54.6875 
L 18.40625 54.6875 
L 18.40625 0 
L 9.421875 0 
z
M 9.421875 75.984375 
L 18.40625 75.984375 
L 18.40625 64.59375 
L 9.421875 64.59375 
z
" id="DejaVuSans-69"/>
      <path d="M 54.890625 33.015625 
L 54.890625 0 
L 45.90625 0 
L 45.90625 32.71875 
Q 45.90625 40.484375 42.875 44.328125 
Q 39.84375 48.1875 33.796875 48.1875 
Q 26.515625 48.1875 22.3125 43.546875 
Q 18.109375 38.921875 18.109375 30.90625 
L 18.109375 0 
L 9.078125 0 
L 9.078125 54.6875 
L 18.109375 54.6875 
L 18.109375 46.1875 
Q 21.34375 51.125 25.703125 53.5625 
Q 30.078125 56 35.796875 56 
Q 45.21875 56 50.046875 50.171875 
Q 54.890625 44.34375 54.890625 33.015625 
" id="DejaVuSans-6e"/>
      <path d="M 18.3125 70.21875 
L 18.3125 54.6875 
L 36.8125 54.6875 
L 36.8125 47.703125 
L 18.3125 47.703125 
L 18.3125 18.015625 
Q 18.3125 11.328125 20.140625 9.421875 
Q 21.96875 7.515625 27.59375 7.515625 
L 36.8125 7.515625 
L 36.8125 0 
L 27.59375 0 
Q 17.1875 0 13.234375 3.875 
Q 9.28125 7.765625 9.28125 18.015625 
L 9.28125 47.703125 
L 2.6875 47.703125 
L 2.6875 54.6875 
L 9.28125 54.6875 
L 9.28125 70.21875 
z
" id="DejaVuSans-74"/>
      <path d="M 44.28125 53.078125 
L 44.28125 44.578125 
Q 40.484375 46.53125 36.375 47.5 
Q 32.28125 48.484375 27.875 48.484375 
Q 21.1875 48.484375 17.84375 46.4375 
Q 14.5 44.390625 14.5 40.28125 
Q 14.5 37.15625 16.890625 35.375 
Q 19.28125 33.59375 26.515625 31.984375 
L 29.59375 31.296875 
Q 39.15625 29.25 43.1875 25.515625 
Q 47.21875 21.78125 47.21875 15.09375 
Q 47.21875 7.46875 41.1875 3.015625 
Q 35.15625 -1.421875 24.609375 -1.421875 
Q 20.21875 -1.421875 15.453125 -0.5625 
Q 10.6875 0.296875 5.421875 2 
L 5.421875 11.28125 
Q 10.40625 8.6875 15.234375 7.390625 
Q 20.0625 6.109375 24.8125 6.109375 
Q 31.15625 6.109375 34.5625 8.28125 
Q 37.984375 10.453125 37.984375 14.40625 
Q 37.984375 18.0625 35.515625 20.015625 
Q 33.0625 21.96875 24.703125 23.78125 
L 21.578125 24.515625 
Q 13.234375 26.265625 9.515625 29.90625 
Q 5.8125 33.546875 5.8125 39.890625 
Q 5.8125 47.609375 11.28125 51.796875 
Q 16.75 56 26.8125 56 
Q 31.78125 56 36.171875 55.265625 
Q 40.578125 54.546875 44.28125 53.078125 
" id="DejaVuSans-73"/>
     </defs>
     <g transform="translate(191.738906 335.860562)scale(0.1 -0.1)">
      <use xlink:href="#DejaVuSans-4e"/>
      <use x="74.804688" xlink:href="#DejaVuSans-75"/>
      <use x="138.183594" xlink:href="#DejaVuSans-6d"/>
      <use x="235.595703" xlink:href="#DejaVuSans-62"/>
      <use x="299.072266" xlink:href="#DejaVuSans-65"/>
      <use x="360.595703" xlink:href="#DejaVuSans-72"/>
      <use x="401.708984" xlink:href="#DejaVuSans-20"/>
      <use x="433.496094" xlink:href="#DejaVuSans-6f"/>
      <use x="494.677734" xlink:href="#DejaVuSans-66"/>
      <use x="529.882812" xlink:href="#DejaVuSans-20"/>
      <use x="561.669922" xlink:href="#DejaVuSans-63"/>
      <use x="616.650391" xlink:href="#DejaVuSans-6c"/>
      <use x="644.433594" xlink:href="#DejaVuSans-69"/>
      <use x="672.216797" xlink:href="#DejaVuSans-65"/>
      <use x="733.740234" xlink:href="#DejaVuSans-6e"/>
      <use x="797.119141" xlink:href="#DejaVuSans-74"/>
      <use x="836.328125" xlink:href="#DejaVuSans-73"/>
     </g>
    </g>
   </g>
   <g id="matplotlib.axis_2">
    <g id="ytick_1">
     <g id="line2d_13">
      <path clip-path="url(#pe0db1cc97e)" d="M 57.6 296.859603 
L 414.72 296.859603 
" style="fill:none;stroke:#b0b0b0;stroke-linecap:square;stroke-width:0.8;"/>
     </g>
     <g id="line2d_14">
      <defs>
       <path d="M 0 0 
L -3.5 0 
" id="m2ede71b2b8" style="stroke:#000000;stroke-width:0.8;"/>
      </defs>
      <g>
       <use style="stroke:#000000;stroke-width:0.8;" x="57.6" xlink:href="#m2ede71b2b8" y="296.859603"/>
      </g>
     </g>
     <g id="text_8">
      <!-- 0 -->
      <g transform="translate(44.2375 300.658822)scale(0.1 -0.1)">
       <use xlink:href="#DejaVuSans-30"/>
      </g>
     </g>
    </g>
    <g id="ytick_2">
     <g id="line2d_15">
      <path clip-path="url(#pe0db1cc97e)" d="M 57.6 262.153042 
L 414.72 262.153042 
" style="fill:none;stroke:#b0b0b0;stroke-linecap:square;stroke-width:0.8;"/>
     </g>
     <g id="line2d_16">
      <g>
       <use style="stroke:#000000;stroke-width:0.8;" x="57.6" xlink:href="#m2ede71b2b8" y="262.153042"/>
      </g>
     </g>
     <g id="text_9">
      <!-- 25 -->
      <defs>
       <path d="M 10.796875 72.90625 
L 49.515625 72.90625 
L 49.515625 64.59375 
L 19.828125 64.59375 
L 19.828125 46.734375 
Q 21.96875 47.46875 24.109375 47.828125 
Q 26.265625 48.1875 28.421875 48.1875 
Q 40.625 48.1875 47.75 41.5 
Q 54.890625 34.8125 54.890625 23.390625 
Q 54.890625 11.625 47.5625 5.09375 
Q 40.234375 -1.421875 26.90625 -1.421875 
Q 22.3125 -1.421875 17.546875 -0.640625 
Q 12.796875 0.140625 7.71875 1.703125 
L 7.71875 11.625 
Q 12.109375 9.234375 16.796875 8.0625 
Q 21.484375 6.890625 26.703125 6.890625 
Q 35.15625 6.890625 40.078125 11.328125 
Q 45.015625 15.765625 45.015625 23.390625 
Q 45.015625 31 40.078125 35.4375 
Q 35.15625 39.890625 26.703125 39.890625 
Q 22.75 39.890625 18.8125 39.015625 
Q 14.890625 38.140625 10.796875 36.28125 
z
" id="DejaVuSans-35"/>
      </defs>
      <g transform="translate(37.875 265.952261)scale(0.1 -0.1)">
       <use xlink:href="#DejaVuSans-32"/>
       <use x="63.623047" xlink:href="#DejaVuSans-35"/>
      </g>
     </g>
    </g>
    <g id="ytick_3">
     <g id="line2d_17">
      <path clip-path="url(#pe0db1cc97e)" d="M 57.6 227.446482 
L 414.72 227.446482 
" style="fill:none;stroke:#b0b0b0;stroke-linecap:square;stroke-width:0.8;"/>
     </g>
     <g id="line2d_18">
      <g>
       <use style="stroke:#000000;stroke-width:0.8;" x="57.6" xlink:href="#m2ede71b2b8" y="227.446482"/>
      </g>
     </g>
     <g id="text_10">
      <!-- 50 -->
      <g transform="translate(37.875 231.2457)scale(0.1 -0.1)">
       <use xlink:href="#DejaVuSans-35"/>
       <use x="63.623047" xlink:href="#DejaVuSans-30"/>
      </g>
     </g>
    </g>
    <g id="ytick_4">
     <g id="line2d_19">
      <path clip-path="url(#pe0db1cc97e)" d="M 57.6 192.739921 
L 414.72 192.739921 
" style="fill:none;stroke:#b0b0b0;stroke-linecap:square;stroke-width:0.8;"/>
     </g>
     <g id="line2d_20">
      <g>
       <use style="stroke:#000000;stroke-width:0.8;" x="57.6" xlink:href="#m2ede71b2b8" y="192.739921"/>
      </g>
     </g>
     <g id="text_11">
      <!-- 75 -->
      <defs>
       <path d="M 8.203125 72.90625 
L 55.078125 72.90625 
L 55.078125 68.703125 
L 28.609375 0 
L 18.3125 0 
L 43.21875 64.59375 
L 8.203125 64.59375 
z
" id="DejaVuSans-37"/>
      </defs>
      <g transform="translate(37.875 196.539139)scale(0.1 -0.1)">
       <use xlink:href="#DejaVuSans-37"/>
       <use x="63.623047" xlink:href="#DejaVuSans-35"/>
      </g>
     </g>
    </g>
    <g id="ytick_5">
     <g id="line2d_21">
      <path clip-path="url(#pe0db1cc97e)" d="M 57.6 158.03336 
L 414.72 158.03336 
" style="fill:none;stroke:#b0b0b0;stroke-linecap:square;stroke-width:0.8;"/>
     </g>
     <g id="line2d_22">
      <g>
       <use style="stroke:#000000;stroke-width:0.8;" x="57.6" xlink:href="#m2ede71b2b8" y="158.03336"/>
      </g>
     </g>
     <g id="text_12">
      <!-- 100 -->
      <g transform="translate(31.5125 161.832579)scale(0.1 -0.1)">
       <use xlink:href="#DejaVuSans-31"/>
       <use x="63.623047" xlink:href="#DejaVuSans-30"/>
       <use x="127.246094" xlink:href="#DejaVuSans-30"/>
      </g>
     </g>
    </g>
    <g id="ytick_6">
     <g id="line2d_23">
      <path clip-path="url(#pe0db1cc97e)" d="M 57.6 123.326799 
L 414.72 123.326799 
" style="fill:none;stroke:#b0b0b0;stroke-linecap:square;stroke-width:0.8;"/>
     </g>
     <g id="line2d_24">
      <g>
       <use style="stroke:#000000;stroke-width:0.8;" x="57.6" xlink:href="#m2ede71b2b8" y="123.326799"/>
      </g>
     </g>
     <g id="text_13">
      <!-- 125 -->
      <g transform="translate(31.5125 127.126018)scale(0.1 -0.1)">
       <use xlink:href="#DejaVuSans-31"/>
       <use x="63.623047" xlink:href="#DejaVuSans-32"/>
       <use x="127.246094" xlink:href="#DejaVuSans-35"/>
      </g>
     </g>
    </g>
    <g id="ytick_7">
     <g id="line2d_25">
      <path clip-path="url(#pe0db1cc97e)" d="M 57.6 88.620238 
L 414.72 88.620238 
" style="fill:none;stroke:#b0b0b0;stroke-linecap:square;stroke-width:0.8;"/>
     </g>
     <g id="line2d_26">
      <g>
       <use style="stroke:#000000;stroke-width:0.8;" x="57.6" xlink:href="#m2ede71b2b8" y="88.620238"/>
      </g>
     </g>
     <g id="text_14">
      <!-- 150 -->
      <g transform="translate(31.5125 92.419457)scale(0.1 -0.1)">
       <use xlink:href="#DejaVuSans-31"/>
       <use x="63.623047" xlink:href="#DejaVuSans-35"/>
       <use x="127.246094" xlink:href="#DejaVuSans-30"/>
      </g>
     </g>
    </g>
    <g id="ytick_8">
     <g id="line2d_27">
      <path clip-path="url(#pe0db1cc97e)" d="M 57.6 53.913677 
L 414.72 53.913677 
" style="fill:none;stroke:#b0b0b0;stroke-linecap:square;stroke-width:0.8;"/>
     </g>
     <g id="line2d_28">
      <g>
       <use style="stroke:#000000;stroke-width:0.8;" x="57.6" xlink:href="#m2ede71b2b8" y="53.913677"/>
      </g>
     </g>
     <g id="text_15">
      <!-- 175 -->
      <g transform="translate(31.5125 57.712896)scale(0.1 -0.1)">
       <use xlink:href="#DejaVuSans-31"/>
       <use x="63.623047" xlink:href="#DejaVuSans-37"/>
       <use x="127.246094" xlink:href="#DejaVuSans-35"/>
      </g>
     </g>
    </g>
    <g id="text_16">
     <!-- Successful download requests per second -->
     <defs>
      <path d="M 53.515625 70.515625 
L 53.515625 60.890625 
Q 47.90625 63.578125 42.921875 64.890625 
Q 37.9375 66.21875 33.296875 66.21875 
Q 25.25 66.21875 20.875 63.09375 
Q 16.5 59.96875 16.5 54.203125 
Q 16.5 49.359375 19.40625 46.890625 
Q 22.3125 44.4375 30.421875 42.921875 
L 36.375 41.703125 
Q 47.40625 39.59375 52.65625 34.296875 
Q 57.90625 29 57.90625 20.125 
Q 57.90625 9.515625 50.796875 4.046875 
Q 43.703125 -1.421875 29.984375 -1.421875 
Q 24.8125 -1.421875 18.96875 -0.25 
Q 13.140625 0.921875 6.890625 3.21875 
L 6.890625 13.375 
Q 12.890625 10.015625 18.65625 8.296875 
Q 24.421875 6.59375 29.984375 6.59375 
Q 38.421875 6.59375 43.015625 9.90625 
Q 47.609375 13.234375 47.609375 19.390625 
Q 47.609375 24.75 44.3125 27.78125 
Q 41.015625 30.8125 33.5 32.328125 
L 27.484375 33.5 
Q 16.453125 35.6875 11.515625 40.375 
Q 6.59375 45.0625 6.59375 53.421875 
Q 6.59375 63.09375 13.40625 68.65625 
Q 20.21875 74.21875 32.171875 74.21875 
Q 37.3125 74.21875 42.625 73.28125 
Q 47.953125 72.359375 53.515625 70.515625 
" id="DejaVuSans-53"/>
      <path d="M 45.40625 46.390625 
L 45.40625 75.984375 
L 54.390625 75.984375 
L 54.390625 0 
L 45.40625 0 
L 45.40625 8.203125 
Q 42.578125 3.328125 38.25 0.953125 
Q 33.9375 -1.421875 27.875 -1.421875 
Q 17.96875 -1.421875 11.734375 6.484375 
Q 5.515625 14.40625 5.515625 27.296875 
Q 5.515625 40.1875 11.734375 48.09375 
Q 17.96875 56 27.875 56 
Q 33.9375 56 38.25 53.625 
Q 42.578125 51.265625 45.40625 46.390625 
M 14.796875 27.296875 
Q 14.796875 17.390625 18.875 11.75 
Q 22.953125 6.109375 30.078125 6.109375 
Q 37.203125 6.109375 41.296875 11.75 
Q 45.40625 17.390625 45.40625 27.296875 
Q 45.40625 37.203125 41.296875 42.84375 
Q 37.203125 48.484375 30.078125 48.484375 
Q 22.953125 48.484375 18.875 42.84375 
Q 14.796875 37.203125 14.796875 27.296875 
" id="DejaVuSans-64"/>
      <path d="M 4.203125 54.6875 
L 13.1875 54.6875 
L 24.421875 12.015625 
L 35.59375 54.6875 
L 46.1875 54.6875 
L 57.421875 12.015625 
L 68.609375 54.6875 
L 77.59375 54.6875 
L 63.28125 0 
L 52.6875 0 
L 40.921875 44.828125 
L 29.109375 0 
L 18.5 0 
z
" id="DejaVuSans-77"/>
      <path d="M 34.28125 27.484375 
Q 23.390625 27.484375 19.1875 25 
Q 14.984375 22.515625 14.984375 16.5 
Q 14.984375 11.71875 18.140625 8.90625 
Q 21.296875 6.109375 26.703125 6.109375 
Q 34.1875 6.109375 38.703125 11.40625 
Q 43.21875 16.703125 43.21875 25.484375 
L 43.21875 27.484375 
z
M 52.203125 31.203125 
L 52.203125 0 
L 43.21875 0 
L 43.21875 8.296875 
Q 40.140625 3.328125 35.546875 0.953125 
Q 30.953125 -1.421875 24.3125 -1.421875 
Q 15.921875 -1.421875 10.953125 3.296875 
Q 6 8.015625 6 15.921875 
Q 6 25.140625 12.171875 29.828125 
Q 18.359375 34.515625 30.609375 34.515625 
L 43.21875 34.515625 
L 43.21875 35.40625 
Q 43.21875 41.609375 39.140625 45 
Q 35.0625 48.390625 27.6875 48.390625 
Q 23 48.390625 18.546875 47.265625 
Q 14.109375 46.140625 10.015625 43.890625 
L 10.015625 52.203125 
Q 14.9375 54.109375 19.578125 55.046875 
Q 24.21875 56 28.609375 56 
Q 40.484375 56 46.34375 49.84375 
Q 52.203125 43.703125 52.203125 31.203125 
" id="DejaVuSans-61"/>
      <path d="M 14.796875 27.296875 
Q 14.796875 17.390625 18.875 11.75 
Q 22.953125 6.109375 30.078125 6.109375 
Q 37.203125 6.109375 41.296875 11.75 
Q 45.40625 17.390625 45.40625 27.296875 
Q 45.40625 37.203125 41.296875 42.84375 
Q 37.203125 48.484375 30.078125 48.484375 
Q 22.953125 48.484375 18.875 42.84375 
Q 14.796875 37.203125 14.796875 27.296875 
M 45.40625 8.203125 
Q 42.578125 3.328125 38.25 0.953125 
Q 33.9375 -1.421875 27.875 -1.421875 
Q 17.96875 -1.421875 11.734375 6.484375 
Q 5.515625 14.40625 5.515625 27.296875 
Q 5.515625 40.1875 11.734375 48.09375 
Q 17.96875 56 27.875 56 
Q 33.9375 56 38.25 53.625 
Q 42.578125 51.265625 45.40625 46.390625 
L 45.40625 54.6875 
L 54.390625 54.6875 
L 54.390625 -20.796875 
L 45.40625 -20.796875 
z
" id="DejaVuSans-71"/>
      <path d="M 18.109375 8.203125 
L 18.109375 -20.796875 
L 9.078125 -20.796875 
L 9.078125 54.6875 
L 18.109375 54.6875 
L 18.109375 46.390625 
Q 20.953125 51.265625 25.265625 53.625 
Q 29.59375 56 35.59375 56 
Q 45.5625 56 51.78125 48.09375 
Q 58.015625 40.1875 58.015625 27.296875 
Q 58.015625 14.40625 51.78125 6.484375 
Q 45.5625 -1.421875 35.59375 -1.421875 
Q 29.59375 -1.421875 25.265625 0.953125 
Q 20.953125 3.328125 18.109375 8.203125 
M 48.6875 27.296875 
Q 48.6875 37.203125 44.609375 42.84375 
Q 40.53125 48.484375 33.40625 48.484375 
Q 26.265625 48.484375 22.1875 42.84375 
Q 18.109375 37.203125 18.109375 27.296875 
Q 18.109375 17.390625 22.1875 11.75 
Q 26.265625 6.109375 33.40625 6.109375 
Q 40.53125 6.109375 44.609375 11.75 
Q 48.6875 17.390625 48.6875 27.296875 
" id="DejaVuSans-70"/>
     </defs>
     <g transform="translate(25.432812 279.366281)rotate(-90)scale(0.1 -0.1)">
      <use xlink:href="#DejaVuSans-53"/>
      <use x="63.476562" xlink:href="#DejaVuSans-75"/>
      <use x="126.855469" xlink:href="#DejaVuSans-63"/>
      <use x="181.835938" xlink:href="#DejaVuSans-63"/>
      <use x="236.816406" xlink:href="#DejaVuSans-65"/>
      <use x="298.339844" xlink:href="#DejaVuSans-73"/>
      <use x="350.439453" xlink:href="#DejaVuSans-73"/>
      <use x="402.539062" xlink:href="#DejaVuSans-66"/>
      <use x="437.744141" xlink:href="#DejaVuSans-75"/>
      <use x="501.123047" xlink:href="#DejaVuSans-6c"/>
      <use x="528.90625" xlink:href="#DejaVuSans-20"/>
      <use x="560.693359" xlink:href="#DejaVuSans-64"/>
      <use x="624.169922" xlink:href="#DejaVuSans-6f"/>
      <use x="685.351562" xlink:href="#DejaVuSans-77"/>
      <use x="767.138672" xlink:href="#DejaVuSans-6e"/>
      <use x="830.517578" xlink:href="#DejaVuSans-6c"/>
      <use x="858.300781" xlink:href="#DejaVuSans-6f"/>
      <use x="919.482422" xlink:href="#DejaVuSans-61"/>
      <use x="980.761719" xlink:href="#DejaVuSans-64"/>
      <use x="1044.238281" xlink:href="#DejaVuSans-20"/>
      <use x="1076.025391" xlink:href="#DejaVuSans-72"/>
      <use x="1117.107422" xlink:href="#DejaVuSans-65"/>
      <use x="1178.630859" xlink:href="#DejaVuSans-71"/>
      <use x="1242.107422" xlink:href="#DejaVuSans-75"/>
      <use x="1305.486328" xlink:href="#DejaVuSans-65"/>
      <use x="1367.009766" xlink:href="#DejaVuSans-73"/>
      <use x="1419.109375" xlink:href="#DejaVuSans-74"/>
      <use x="1458.318359" xlink:href="#DejaVuSans-73"/>
      <use x="1510.417969" xlink:href="#DejaVuSans-20"/>
      <use x="1542.205078" xlink:href="#DejaVuSans-70"/>
      <use x="1605.681641" xlink:href="#DejaVuSans-65"/>
      <use x="1667.205078" xlink:href="#DejaVuSans-72"/>
      <use x="1708.318359" xlink:href="#DejaVuSans-20"/>
      <use x="1740.105469" xlink:href="#DejaVuSans-73"/>
      <use x="1792.205078" xlink:href="#DejaVuSans-65"/>
      <use x="1853.728516" xlink:href="#DejaVuSans-63"/>
      <use x="1908.708984" xlink:href="#DejaVuSans-6f"/>
      <use x="1969.890625" xlink:href="#DejaVuSans-6e"/>
      <use x="2033.269531" xlink:href="#DejaVuSans-64"/>
     </g>
    </g>
   </g>
   <g id="line2d_29">
    <path clip-path="url(#pe0db1cc97e)" d="M 57.6 295.488 
L 57.95712 295.471341 
L 60.45696 286.242172 
L 61.1712 283.285173 
L 62.9568 276.492405 
L 63.31392 274.95421 
L 63.67104 274.031016 
L 64.02816 271.898645 
L 65.45664 266.31783 
L 65.81376 266.838428 
L 66.17088 265.812502 
L 66.528 263.517704 
L 66.88512 262.836068 
L 67.95648 258.102093 
L 68.3136 257.167792 
L 68.67072 254.220511 
L 69.02784 254.276041 
L 69.38496 254.106673 
L 70.0992 250.004358 
L 70.45632 247.570734 
L 70.81344 246.848837 
L 71.17056 247.077901 
L 71.52768 246.086681 
L 72.24192 242.06072 
L 72.59904 241.184727 
L 72.95616 239.738157 
L 73.31328 239.761758 
L 74.02752 234.930604 
L 74.38464 236.13284 
L 75.09888 230.000884 
L 75.456 230.080015 
L 76.17024 224.7713 
L 76.52736 226.66489 
L 76.88448 222.990159 
L 77.2416 221.322856 
L 77.59872 221.647709 
L 77.95584 222.858274 
L 78.31296 221.470012 
L 78.67008 215.657357 
L 79.0272 215.260314 
L 79.38432 216.626364 
L 79.74144 216.595822 
L 80.09856 214.367661 
L 80.45568 215.027086 
L 80.8128 212.518496 
L 81.16992 215.23116 
L 81.52704 211.767446 
L 81.88416 212.879444 
L 82.24128 212.338022 
L 82.5984 209.110311 
L 82.95552 208.598043 
L 83.31264 210.740131 
L 83.66976 208.678562 
L 84.02688 208.663291 
L 84.384 206.572568 
L 84.74112 206.952952 
L 85.09824 209.764183 
L 85.45536 203.557262 
L 85.81248 207.598494 
L 86.1696 204.638718 
L 86.52672 206.886315 
L 86.88384 201.352701 
L 87.24096 203.194925 
L 87.59808 207.026529 
L 87.9552 204.294429 
L 88.31232 202.74374 
L 88.66944 203.307374 
L 89.02656 198.891312 
L 89.7408 203.90988 
L 90.45504 202.214812 
L 90.81216 202.386956 
L 91.88352 195.680261 
L 92.24064 198.94823 
L 92.59776 196.918591 
L 92.95488 198.819122 
L 93.312 193.534007 
L 93.66912 196.738117 
L 94.02624 193.779729 
L 94.38336 193.26746 
L 94.74048 195.342913 
L 95.0976 191.251703 
L 95.45472 192.527517 
L 95.81184 189.992549 
L 96.16896 195.519222 
L 96.52608 193.638127 
L 96.8832 195.134673 
L 97.24032 189.027707 
L 97.59744 194.865351 
L 97.95456 189.749603 
L 98.31168 193.310497 
L 98.6688 192.934277 
L 99.02592 188.353011 
L 99.38304 191.619593 
L 100.09728 192.338713 
L 100.4544 190.504818 
L 100.81152 190.985157 
L 101.16864 184.796283 
L 101.52576 188.532097 
L 101.88288 186.437209 
L 102.59712 183.32889 
L 102.95424 186.137345 
L 103.31136 185.448766 
L 103.66848 185.986024 
L 104.0256 185.040617 
L 104.38272 184.762965 
L 104.73984 181.04381 
L 105.09696 187.446476 
L 105.45408 180.141439 
L 105.8112 182.955447 
L 106.16832 180.438527 
L 106.52544 185.661171 
L 106.88256 184.864308 
L 107.23968 183.378867 
L 107.5968 183.258088 
L 107.95392 176.754079 
L 108.31104 184.581102 
L 109.02528 179.762444 
L 109.3824 182.094724 
L 109.73952 175.296403 
L 110.09664 177.686991 
L 110.45376 179.286269 
L 110.81088 182.053077 
L 111.168 175.753142 
L 111.52512 173.254269 
L 111.88224 174.003931 
L 112.23936 179.902658 
L 112.9536 175.980817 
L 113.31072 177.31216 
L 114.02496 172.621222 
L 114.38208 175.053457 
L 114.7392 175.804507 
L 115.09632 175.825331 
L 115.45344 177.550941 
L 115.81056 170.120961 
L 116.16768 175.489372 
L 116.5248 176.948436 
L 116.88192 176.985919 
L 117.59616 169.986299 
L 117.95328 174.617543 
L 118.3104 169.708647 
L 118.66752 174.605049 
L 119.02464 168.974256 
L 119.38176 168.424504 
L 119.73888 173.598558 
L 120.096 167.177845 
L 120.45312 170.384731 
L 120.81024 171.768828 
L 121.16736 167.105655 
L 121.52448 165.853442 
L 121.8816 166.712777 
L 122.23872 172.80586 
L 122.59584 169.965476 
L 122.95296 163.02694 
L 123.31008 164.563746 
L 123.6672 164.745609 
L 124.02432 162.806206 
L 124.38144 164.284706 
L 124.73856 164.652595 
L 125.09568 168.768793 
L 125.4528 166.78219 
L 125.80992 165.467505 
L 126.16704 162.391116 
L 126.52416 161.52484 
L 126.88128 160.092153 
L 127.2384 165.321738 
L 127.59552 166.71 
L 127.95264 166.946005 
L 128.66688 160.261521 
L 129.024 162.872843 
L 129.38112 159.021803 
L 129.73824 165.753487 
L 130.09536 158.534523 
L 130.45248 160.006081 
L 130.8096 165.824289 
L 131.16672 158.18468 
L 131.52384 165.217618 
L 131.88096 162.802041 
L 132.23808 157.215673 
L 132.5952 157.494714 
L 132.95232 162.592414 
L 133.30944 162.797877 
L 133.66656 156.917197 
L 134.02368 155.269329 
L 134.3808 163.498949 
L 134.73792 158.002818 
L 135.09504 161.783057 
L 135.45216 159.978316 
L 135.80928 156.466012 
L 136.1664 159.382751 
L 136.52352 158.701114 
L 136.88064 153.875514 
L 137.23776 155.408156 
L 137.59488 160.891792 
L 137.952 155.13328 
L 138.30912 156.73117 
L 138.66624 157.754319 
L 139.02336 152.917613 
L 139.38048 155.490063 
L 139.7376 152.730197 
L 140.09472 157.886204 
L 140.45184 152.2804 
L 140.80896 156.485447 
L 141.16608 154.482185 
L 141.5232 154.366959 
L 141.88032 148.818074 
L 142.23744 157.187908 
L 142.59456 150.61865 
L 142.95168 152.223482 
L 143.3088 153.073098 
L 143.66592 156.292479 
L 144.02304 153.643674 
L 144.38016 157.012987 
L 144.73728 149.126268 
L 145.0944 147.247949 
L 145.45152 151.365535 
L 145.80864 150.06751 
L 146.16576 150.409023 
L 146.52288 154.459972 
L 146.88 154.598799 
L 147.23712 149.509429 
L 147.59424 147.85462 
L 147.95136 147.48673 
L 148.30848 145.848581 
L 148.6656 154.580751 
L 149.02272 152.029125 
L 149.37984 146.017949 
L 149.73696 148.390489 
L 150.09408 144.704652 
L 150.4512 143.831435 
L 150.80832 151.028188 
L 151.16544 144.457542 
L 151.52256 143.421898 
L 151.87968 150.567285 
L 152.59392 144.499189 
L 152.95104 143.135916 
L 153.30816 149.302577 
L 153.66528 150.91435 
L 154.0224 142.090554 
L 154.37952 149.917578 
L 154.73664 147.23129 
L 155.09376 149.962002 
L 155.45088 143.41218 
L 155.808 142.196062 
L 156.16512 144.538061 
L 156.52224 141.511649 
L 156.87936 147.267385 
L 157.23648 139.112731 
L 157.5936 142.266863 
L 157.95072 143.93139 
L 158.30784 138.088194 
L 158.66496 146.555206 
L 159.02208 141.146536 
L 159.3792 148.550139 
L 159.73632 142.383477 
L 160.09344 144.919833 
L 160.45056 140.326073 
L 160.80768 143.788399 
L 161.1648 140.878601 
L 161.52192 142.440396 
L 161.87904 138.948916 
L 162.23616 146.809258 
L 162.59328 142.051683 
L 162.9504 142.282134 
L 163.30752 139.885993 
L 163.66464 136.171003 
L 164.02176 136.647177 
L 164.37888 142.308511 
L 164.736 145.060047 
L 165.09312 135.525461 
L 165.45024 141.25482 
L 165.80736 140.033149 
L 166.16448 144.03551 
L 166.5216 135.060393 
L 166.87872 134.997921 
L 167.23584 136.06133 
L 167.59296 139.922088 
L 167.95008 138.510225 
L 168.3072 137.879954 
L 168.66432 139.336241 
L 169.02144 139.758273 
L 169.37856 131.854895 
L 169.73568 141.59078 
L 170.0928 136.75685 
L 170.44992 135.61431 
L 170.80704 134.098327 
L 171.16416 140.688409 
L 171.8784 130.384725 
L 172.23552 137.836918 
L 172.59264 138.072923 
L 172.94976 134.201059 
L 173.30688 138.300598 
L 173.664 137.613408 
L 174.02112 129.140842 
L 174.37824 132.310245 
L 174.73536 139.56114 
L 175.09248 138.722629 
L 175.4496 136.502798 
L 175.80672 137.17194 
L 176.16384 133.611047 
L 176.52096 139.025271 
L 177.2352 131.911814 
L 177.59232 137.655056 
L 177.94944 130.012671 
L 178.30656 136.672166 
L 178.66368 138.37834 
L 179.0208 136.559717 
L 179.37792 136.527787 
L 179.73504 129.814149 
L 180.09216 132.672582 
L 180.44928 131.130222 
L 180.8064 126.597545 
L 181.16352 132.106171 
L 181.52064 125.584114 
L 181.87776 136.963701 
L 182.23488 134.07195 
L 182.592 134.164964 
L 182.94912 126.679453 
L 183.30624 134.462052 
L 183.66336 125.982545 
L 184.02048 133.95256 
L 184.3776 125.638256 
L 184.73472 128.675774 
L 185.09184 130.627671 
L 185.44896 130.869229 
L 185.80608 132.840562 
L 186.1632 133.427797 
L 186.52032 125.810401 
L 186.87744 124.47628 
L 187.59168 122.842295 
L 187.9488 125.629926 
L 188.30592 125.802071 
L 188.66304 127.090379 
L 189.02016 130.248676 
L 189.7344 122.584079 
L 190.09152 126.661405 
L 190.44864 122.053762 
L 190.80576 129.399059 
L 191.16288 121.821923 
L 191.52 129.071429 
L 191.87712 127.22504 
L 192.23424 131.781317 
L 192.59136 119.802001 
L 192.94848 119.854755 
L 193.3056 120.951482 
L 193.66272 120.63357 
L 194.01984 122.843684 
L 194.37696 121.531776 
L 194.73408 123.722454 
L 195.0912 129.914104 
L 196.16256 122.305038 
L 196.51968 121.81637 
L 196.8768 117.714054 
L 197.23392 122.292544 
L 197.59104 118.487316 
L 197.94816 127.719261 
L 198.30528 126.051958 
L 198.6624 129.210255 
L 199.01952 121.336031 
L 199.37664 123.473955 
L 199.73376 121.091697 
L 200.09088 122.221742 
L 200.448 124.394373 
L 200.80512 127.812275 
L 201.16224 126.682229 
L 201.51936 124.15698 
L 201.87648 118.144415 
L 202.2336 126.264362 
L 202.59072 116.858884 
L 203.30496 114.908376 
L 203.66208 125.65908 
L 204.0192 125.03575 
L 204.37632 120.807103 
L 204.73344 118.030578 
L 205.09056 124.047307 
L 205.44768 125.806236 
L 205.8048 125.568843 
L 206.16192 117.575228 
L 206.51904 124.913583 
L 206.87616 121.806652 
L 207.23328 121.86357 
L 207.5904 118.286018 
L 207.94752 112.744075 
L 208.30464 124.538752 
L 208.66176 117.262869 
L 209.01888 122.850625 
L 209.376 116.829731 
L 209.73312 124.202793 
L 210.09024 117.033805 
L 210.44736 123.822409 
L 210.80448 112.526117 
L 211.1616 123.729395 
L 211.51872 123.74189 
L 211.87584 115.074967 
L 212.59008 121.970467 
L 212.9472 122.871449 
L 213.66144 111.623747 
L 214.01856 122.850625 
L 214.7328 110.531184 
L 215.08992 110.420123 
L 215.44704 121.842747 
L 215.80416 112.273454 
L 216.16128 110.969875 
L 216.5184 117.108772 
L 216.87552 111.818103 
L 217.23264 119.431335 
L 217.58976 115.453963 
L 217.94688 114.677924 
L 218.304 112.935655 
L 218.66112 120.812656 
L 219.01824 120.727972 
L 219.73248 118.798287 
L 220.0896 119.653457 
L 220.44672 115.019437 
L 220.80384 115.834347 
L 221.16096 118.140251 
L 221.51808 108.747267 
L 221.8752 115.89543 
L 222.23232 118.18051 
L 222.58944 115.752439 
L 222.94656 115.748274 
L 223.30368 116.83806 
L 223.6608 113.563149 
L 224.01792 107.76993 
L 224.37504 108.577899 
L 224.73216 114.286434 
L 225.08928 112.086038 
L 225.4464 117.875092 
L 225.80352 106.671815 
L 226.16064 116.856108 
L 226.51776 112.47614 
L 226.87488 117.086559 
L 227.232 116.711729 
L 227.58912 107.622774 
L 227.94624 111.230868 
L 228.30336 116.611774 
L 228.66048 105.856905 
L 229.0176 106.73151 
L 229.37472 106.674591 
L 229.73184 107.781036 
L 230.08896 114.250339 
L 230.44608 109.079062 
L 230.8032 108.523757 
L 231.16032 103.395515 
L 231.51744 105.999896 
L 231.87456 111.039288 
L 232.23168 114.251728 
L 232.5888 104.175719 
L 232.94592 113.556208 
L 233.66016 103.166452 
L 234.01728 115.227676 
L 234.3744 110.936557 
L 234.73152 103.728698 
L 235.08864 104.618574 
L 235.44576 104.006351 
L 235.80288 107.568632 
L 236.16 108.986048 
L 236.51712 112.474752 
L 236.87424 111.511297 
L 237.23136 112.2207 
L 237.58848 100.63565 
L 237.9456 111.719537 
L 238.30272 110.918509 
L 238.65984 103.39968 
L 239.01696 104.328428 
L 239.37408 110.731094 
L 239.7312 111.86114 
L 240.08832 103.43994 
L 240.44544 101.526914 
L 240.80256 102.777738 
L 241.5168 111.902787 
L 241.87392 111.418284 
L 242.23104 111.72509 
L 242.58816 111.448826 
L 242.94528 99.973448 
L 243.3024 111.189221 
L 243.65952 109.315066 
L 244.01664 109.762087 
L 244.37376 108.247492 
L 244.73088 105.116961 
L 245.088 111.148961 
L 245.44512 100.752264 
L 245.80224 108.283587 
L 246.15936 101.64214 
L 246.51648 102.116926 
L 246.8736 106.980009 
L 247.23072 98.871168 
L 247.58784 101.095164 
L 247.94496 109.274807 
L 248.30208 97.452364 
L 248.6592 99.624995 
L 249.01632 109.67185 
L 249.37344 99.036371 
L 249.73056 98.33391 
L 250.08768 107.529761 
L 250.4448 99.518098 
L 250.80192 101.011869 
L 251.15904 103.720369 
L 251.51616 103.781452 
L 251.87328 96.397284 
L 252.2304 101.33811 
L 252.58752 103.320549 
L 252.94464 102.282129 
L 253.30176 107.364558 
L 253.65888 100.42741 
L 254.016 101.876756 
L 254.37312 97.026167 
L 254.73024 99.08496 
L 255.08736 105.38906 
L 255.44448 99.977613 
L 255.8016 105.934647 
L 256.15872 103.402457 
L 256.51584 95.636517 
L 256.87296 100.906361 
L 257.23008 99.491721 
L 257.5872 94.885467 
L 257.94432 94.294067 
L 258.30144 103.212265 
L 258.65856 104.136847 
L 259.01568 101.794849 
L 259.3728 93.534687 
L 259.72992 93.570782 
L 260.08704 105.407108 
L 260.44416 93.386143 
L 260.80128 103.045673 
L 261.1584 93.661019 
L 261.51552 106.027661 
L 261.87264 102.859646 
L 262.22976 104.726859 
L 262.58688 101.711553 
L 263.30112 94.798006 
L 263.65824 93.011312 
L 264.01536 92.200567 
L 264.37248 103.042897 
L 264.7296 102.600041 
L 265.08672 96.055772 
L 265.44384 99.763821 
L 265.80096 101.05074 
L 266.15808 93.411132 
L 266.5152 103.037344 
L 266.87232 92.23805 
L 267.22944 95.174225 
L 267.58656 96.637454 
L 267.94368 99.319577 
L 268.3008 103.67178 
L 268.65792 100.37188 
L 269.01504 101.76986 
L 269.37216 100.702286 
L 269.72928 94.793841 
L 270.0864 103.330267 
L 270.44352 94.829936 
L 270.80064 91.979833 
L 271.15776 103.339985 
L 271.51488 103.14424 
L 271.872 102.118314 
L 272.22912 94.16357 
L 272.58624 93.219552 
L 272.94336 94.041403 
L 273.6576 97.574531 
L 274.01472 96.820704 
L 274.37184 97.809147 
L 274.72896 95.664282 
L 275.08608 96.609689 
L 275.4432 98.200637 
L 275.80032 88.589696 
L 276.15744 91.865996 
L 276.51456 91.813242 
L 276.87168 97.784159 
L 277.2288 101.336722 
L 277.58592 99.656925 
L 277.94304 101.228438 
L 278.30016 93.704055 
L 278.65728 96.526393 
L 279.0144 94.327385 
L 279.37152 88.749347 
L 279.72864 88.727134 
L 280.08576 92.704506 
L 280.44288 90.026548 
L 280.8 95.177002 
L 281.15712 85.697946 
L 281.51424 98.514385 
L 281.87136 99.890153 
L 282.22848 92.650364 
L 282.5856 90.069584 
L 282.94272 91.635544 
L 283.29984 92.121436 
L 283.65696 90.931695 
L 284.01408 86.02974 
L 284.3712 94.59532 
L 284.72832 87.312495 
L 285.44256 95.292227 
L 285.79968 96.423661 
L 286.1568 90.617948 
L 286.51392 90.333354 
L 286.87104 88.03578 
L 287.22816 94.834101 
L 287.58528 91.732723 
L 287.9424 84.281918 
L 288.29952 92.822509 
L 288.65664 93.422238 
L 289.01376 86.815497 
L 289.37088 84.869153 
L 289.728 90.58463 
L 290.44224 95.156178 
L 290.79936 97.678651 
L 291.15648 91.639709 
L 291.5136 89.196367 
L 291.87072 87.741468 
L 292.22784 95.568492 
L 292.58496 88.990904 
L 292.94208 92.692012 
L 293.2992 92.696177 
L 293.65632 93.663796 
L 294.01344 83.866828 
L 294.37056 92.529585 
L 294.72768 93.438897 
L 295.0848 85.724323 
L 295.44192 94.582825 
L 295.79904 86.907122 
L 296.15616 87.741468 
L 296.8704 94.021967 
L 297.22752 88.101028 
L 297.58464 93.069619 
L 297.94176 82.616003 
L 298.29888 89.374065 
L 298.656 80.970912 
L 299.01312 82.777042 
L 299.37024 80.930653 
L 299.72736 81.176375 
L 300.08448 92.671188 
L 300.4416 87.51657 
L 300.79872 84.985767 
L 301.15584 92.683682 
L 301.51296 94.700828 
L 301.87008 91.988163 
L 302.2272 84.172245 
L 302.58432 89.022834 
L 302.94144 84.870541 
L 303.29856 93.386143 
L 303.65568 85.098216 
L 304.0128 87.56377 
L 304.36992 79.327209 
L 304.72704 81.930202 
L 305.08416 79.338316 
L 305.44128 86.866863 
L 305.7984 78.923225 
L 306.15552 87.529064 
L 306.51264 81.094468 
L 307.22688 91.253772 
L 307.584 80.534998 
L 307.94112 85.082946 
L 308.29824 84.510981 
L 308.65536 83.461455 
L 309.01248 77.496091 
L 309.72672 91.132993 
L 310.08384 78.566442 
L 310.44096 80.375348 
L 310.79808 85.864537 
L 311.1552 88.002461 
L 311.51232 78.077773 
L 311.86944 90.620724 
L 312.22656 86.902958 
L 312.58368 87.025125 
L 312.9408 89.153331 
L 313.29792 84.258318 
L 313.65504 89.045046 
L 314.01216 77.901464 
L 314.36928 77.6488 
L 314.7264 87.127856 
L 315.08352 83.490609 
L 315.44064 89.110295 
L 315.79776 88.971469 
L 316.15488 82.261996 
L 316.512 80.415607 
L 316.86912 84.075067 
L 317.22624 82.134276 
L 317.58336 81.155551 
L 317.94048 89.246345 
L 318.2976 88.518895 
L 319.36896 77.915347 
L 319.72608 76.185572 
L 320.0832 85.621591 
L 320.44032 77.350324 
L 320.79744 82.446635 
L 321.15456 80.982018 
L 321.51168 82.121782 
L 321.8688 83.948735 
L 322.22592 87.026513 
L 322.58304 86.188002 
L 322.94016 84.159751 
L 323.29728 87.555441 
L 323.6544 81.038937 
L 324.01152 87.58043 
L 324.72576 74.186474 
L 325.08288 87.737303 
L 325.79712 74.312806 
L 326.15424 85.55912 
L 326.51136 86.004752 
L 326.86848 83.247663 
L 327.2256 76.545132 
L 327.58272 82.879773 
L 327.93984 78.987085 
L 328.29696 84.179187 
L 328.65408 85.192618 
L 329.0112 83.231003 
L 329.36832 82.371669 
L 329.72544 74.754273 
L 330.08256 74.394713 
L 330.43968 73.624227 
L 330.7968 78.326272 
L 331.15392 73.377117 
L 331.51104 83.293475 
L 331.86816 84.784469 
L 332.22528 76.135594 
L 332.5824 80.991736 
L 332.93952 82.70624 
L 333.29664 71.452985 
L 333.65376 85.174571 
L 334.01088 73.248008 
L 334.368 82.057922 
L 334.72512 74.984725 
L 335.08224 72.549712 
L 335.43936 74.297535 
L 335.79648 76.699229 
L 336.1536 71.659836 
L 336.51072 82.713182 
L 336.86784 84.706726 
L 337.22496 71.214204 
L 337.58208 70.059169 
L 337.9392 82.528543 
L 338.29632 79.21476 
L 338.65344 82.056533 
L 339.01056 74.489115 
L 339.36768 80.659941 
L 339.7248 71.015682 
L 340.08192 82.926974 
L 340.43904 82.684028 
L 340.79616 75.406756 
L 341.15328 78.892683 
L 341.5104 77.786238 
L 341.86752 72.398392 
L 342.22464 75.634431 
L 342.58176 68.947171 
L 342.93888 81.760834 
L 343.296 77.694613 
L 343.65312 81.144445 
L 344.01024 68.944395 
L 344.36736 78.76774 
L 344.72448 81.342967 
L 345.0816 73.632557 
L 345.43872 71.509904 
L 345.79584 83.594728 
L 346.15296 69.444169 
L 346.51008 68.441844 
L 346.8672 78.340155 
L 347.22432 78.497029 
L 347.58144 72.099915 
L 347.93856 74.618223 
L 348.29568 76.077287 
L 348.6528 82.781206 
L 349.00992 78.177728 
L 349.36704 75.567795 
L 349.72416 79.027345 
L 350.08128 67.92541 
L 350.4384 78.459545 
L 350.79552 74.943077 
L 351.15264 76.779748 
L 351.50976 80.26151 
L 351.86688 71.142014 
L 352.224 79.211984 
L 352.58112 66.677362 
L 352.93824 78.984309 
L 353.29536 70.49786 
L 353.65248 79.889456 
L 354.0096 67.80602 
L 354.36672 68.627871 
L 354.72384 76.685346 
L 355.08096 81.008395 
L 355.7952 70.867138 
L 356.15232 65.368231 
L 356.50944 67.31041 
L 356.86656 77.221215 
L 357.22368 72.319261 
L 357.5808 69.072115 
L 357.93792 79.545167 
L 358.29504 76.964387 
L 358.65216 65.37656 
L 359.00928 66.381662 
L 359.3664 72.169328 
L 359.72352 73.82969 
L 360.08064 77.459996 
L 361.152 65.391831 
L 361.50912 65.992949 
L 361.86624 64.328422 
L 362.22336 65.158603 
L 362.58048 64.064652 
L 362.9376 70.478425 
L 363.29472 66.069303 
L 363.65184 69.466381 
L 364.00896 75.154093 
L 364.36608 76.579838 
L 364.7232 65.298818 
L 365.08032 77.158744 
L 365.43744 66.885602 
L 365.79456 75.498382 
L 366.15168 72.537218 
L 366.5088 67.560297 
L 366.86592 71.133685 
L 367.22304 65.693084 
L 367.58016 76.781136 
L 367.93728 65.12112 
L 368.2944 67.567238 
L 368.65152 62.874911 
L 369.00864 76.915798 
L 369.36576 68.247487 
L 369.72288 67.75743 
L 370.08 63.353862 
L 370.43712 64.556097 
L 370.79424 72.190152 
L 371.15136 75.848224 
L 371.50848 69.516359 
L 371.8656 67.972611 
L 372.22272 68.634812 
L 372.57984 73.02311 
L 372.93696 64.324257 
L 373.29408 65.003118 
L 373.6512 76.553461 
L 374.00832 69.712104 
L 374.36544 77.376701 
L 374.72256 74.312806 
L 375.07968 64.739348 
L 375.4368 61.900351 
L 375.79392 64.382564 
L 376.50816 73.009227 
L 376.86528 74.025435 
L 377.2224 64.812926 
L 377.57952 75.646926 
L 377.93664 74.329465 
L 378.29376 65.141944 
L 378.65088 74.761214 
L 379.008 66.660703 
L 379.36512 69.652409 
L 379.72224 64.350634 
L 380.07936 65.251617 
L 380.43648 60.74254 
L 380.7936 71.658448 
L 381.15072 70.951822 
L 381.50784 59.493104 
L 381.86496 74.409984 
L 382.22208 73.221631 
L 382.5792 72.898166 
L 382.93632 74.18925 
L 383.29344 66.358062 
L 383.65056 63.484359 
L 384.00768 59.593059 
L 384.72192 74.572411 
L 385.07904 59.226558 
L 385.43616 67.472837 
L 385.79328 62.008636 
L 386.1504 73.715853 
L 386.50752 58.565745 
L 386.86464 60.843883 
L 387.22176 70.87408 
L 387.57888 67.242385 
L 387.936 72.800988 
L 388.29312 65.371007 
L 388.65024 64.175713 
L 389.00736 69.037408 
L 389.36448 60.861931 
L 389.7216 72.004125 
L 390.07872 68.783356 
L 390.43584 61.639358 
L 390.79296 71.201709 
L 391.15008 63.199765 
L 391.5072 58.19369 
L 391.86432 70.783842 
L 392.22144 72.827365 
L 392.93568 57.503724 
L 393.2928 69.69128 
L 394.00704 65.110014 
L 394.36416 63.102586 
L 394.72128 64.778219 
L 395.0784 70.543673 
L 395.43552 61.081276 
L 395.79264 63.750905 
L 396.14976 60.091445 
L 396.50688 59.20851 
L 396.864 71.856969 
L 397.22112 64.117406 
L 397.93536 60.008149 
L 398.29248 55.969694 
L 398.6496 62.037789 
L 399.00672 61.307563 
L 399.36384 57.806365 
L 399.72096 71.44882 
L 400.07808 65.870782 
L 400.4352 56.366737 
L 400.79232 58.660147 
L 401.14944 65.843016 
L 401.50656 66.059585 
L 401.86368 59.287641 
L 402.2208 65.951301 
L 402.57792 63.544054 
L 402.93504 66.792588 
L 403.64928 55.855856 
L 404.0064 66.735669 
L 404.36352 66.105398 
L 404.72064 61.115983 
L 405.07776 64.522779 
L 405.43488 54.946545 
L 405.792 54.431499 
L 406.14912 59.182133 
L 406.86336 57.799424 
L 407.22048 58.900316 
L 407.5776 61.328387 
L 407.93472 68.164191 
L 408.29184 66.394157 
L 408.64896 62.477868 
L 409.00608 61.43806 
L 409.3632 69.814835 
L 409.72032 58.775372 
L 410.07744 64.209032 
L 410.43456 67.431189 
L 410.79168 53.568 
L 411.1488 65.350183 
L 411.50592 57.603679 
L 411.86304 65.418208 
L 412.22016 65.28077 
L 412.57728 63.931379 
L 412.9344 67.707453 
L 413.29152 56.533329 
L 413.64864 56.119626 
L 414.00576 63.828648 
L 414.36288 58.082629 
L 414.72 57.892437 
L 414.72 57.892437 
" style="fill:none;stroke:#000080;stroke-linecap:square;stroke-width:0.5;"/>
   </g>
   <g id="patch_3">
    <path d="M 57.6 307.584 
L 57.6 41.472 
" style="fill:none;stroke:#000000;stroke-linecap:square;stroke-linejoin:miter;stroke-width:0.8;"/>
   </g>
   <g id="patch_4">
    <path d="M 414.72 307.584 
L 414.72 41.472 
" style="fill:none;stroke:#000000;stroke-linecap:square;stroke-linejoin:miter;stroke-width:0.8;"/>
   </g>
   <g id="patch_5">
    <path d="M 57.6 307.584 
L 414.72 307.584 
" style="fill:none;stroke:#000000;stroke-linecap:square;stroke-linejoin:miter;stroke-width:0.8;"/>
   </g>
   <g id="patch_6">
    <path d="M 57.6 41.472 
L 414.72 41.472 
" style="fill:none;stroke:#000000;stroke-linecap:square;stroke-linejoin:miter;stroke-width:0.8;"/>
   </g>
   <g id="text_17">
    <!-- Test -->
    <defs>
     <path d="M -0.296875 72.90625 
L 61.375 72.90625 
L 61.375 64.59375 
L 35.5 64.59375 
L 35.5 0 
L 25.59375 0 
L 25.59375 64.59375 
L -0.296875 64.59375 
z
" id="DejaVuSans-54"/>
    </defs>
    <g transform="translate(223.341563 35.472)scale(0.12 -0.12)">
     <use xlink:href="#DejaVuSans-54"/>
     <use x="60.818359" xlink:href="#DejaVuSans-65"/>
     <use x="122.341797" xlink:href="#DejaVuSans-73"/>
     <use x="174.441406" xlink:href="#DejaVuSans-74"/>
    </g>
   </g>
   <g id="legend_1">
    <g id="patch_7">
     <path d="M 64.6 64.150125 
L 306.276563 64.150125 
Q 308.276563 64.150125 308.276563 62.150125 
L 308.276563 48.472 
Q 308.276563 46.472 306.276563 46.472 
L 64.6 46.472 
Q 62.6 46.472 62.6 48.472 
L 62.6 62.150125 
Q 62.6 64.150125 64.6 64.150125 
z
" style="fill:#ffffff;opacity:0.8;stroke:#cccccc;stroke-linejoin:miter;"/>
    </g>
    <g id="line2d_30">
     <path d="M 66.6 54.570438 
L 86.6 54.570438 
" style="fill:none;stroke:#000080;stroke-linecap:square;stroke-width:0.5;"/>
    </g>
    <g id="line2d_31"/>
    <g id="text_18">
     <!-- Successful download requests per second -->
     <g transform="translate(94.6 58.070438)scale(0.1 -0.1)">
      <use xlink:href="#DejaVuSans-53"/>
      <use x="63.476562" xlink:href="#DejaVuSans-75"/>
      <use x="126.855469" xlink:href="#DejaVuSans-63"/>
      <use x="181.835938" xlink:href="#DejaVuSans-63"/>
      <use x="236.816406" xlink:href="#DejaVuSans-65"/>
      <use x="298.339844" xlink:href="#DejaVuSans-73"/>
      <use x="350.439453" xlink:href="#DejaVuSans-73"/>
      <use x="402.539062" xlink:href="#DejaVuSans-66"/>
      <use x="437.744141" xlink:href="#DejaVuSans-75"/>
      <use x="501.123047" xlink:href="#DejaVuSans-6c"/>
      <use x="528.90625" xlink:href="#DejaVuSans-20"/>
      <use x="560.693359" xlink:href="#DejaVuSans-64"/>
      <use x="624.169922" xlink:href="#DejaVuSans-6f"/>
      <use x="685.351562" xlink:href="#DejaVuSans-77"/>
      <use x="767.138672" xlink:href="#DejaVuSans-6e"/>
      <use x="830.517578" xlink:href="#DejaVuSans-6c"/>
      <use x="858.300781" xlink:href="#DejaVuSans-6f"/>
      <use x="919.482422" xlink:href="#DejaVuSans-61"/>
      <use x="980.761719" xlink:href="#DejaVuSans-64"/>
      <use x="1044.238281" xlink:href="#DejaVuSans-20"/>
      <use x="1076.025391" xlink:href="#DejaVuSans-72"/>
      <use x="1117.107422" xlink:href="#DejaVuSans-65"/>
      <use x="1178.630859" xlink:href="#DejaVuSans-71"/>
      <use x="1242.107422" xlink:href="#DejaVuSans-75"/>
      <use x="1305.486328" xlink:href="#DejaVuSans-65"/>
      <use x="1367.009766" xlink:href="#DejaVuSans-73"/>
      <use x="1419.109375" xlink:href="#DejaVuSans-74"/>
      <use x="1458.318359" xlink:href="#DejaVuSans-73"/>
      <use x="1510.417969" xlink:href="#DejaVuSans-20"/>
      <use x="1542.205078" xlink:href="#DejaVuSans-70"/>
      <use x="1605.681641" xlink:href="#DejaVuSans-65"/>
      <use x="1667.205078" xlink:href="#DejaVuSans-72"/>
      <use x="1708.318359" xlink:href="#DejaVuSans-20"/>
      <use x="1740.105469" xlink:href="#DejaVuSans-73"/>
      <use x="1792.205078" xlink:href="#DejaVuSans-65"/>
      <use x="1853.728516" xlink:href="#DejaVuSans-63"/>
      <use x="1908.708984" xlink:href="#DejaVuSans-6f"/>
      <use x="1969.890625" xlink:href="#DejaVuSans-6e"/>
      <use x="2033.269531" xlink:href="#DejaVuSans-64"/>
     </g>
    </g>
   </g>
  </g>
 </g>
 <defs>
  <clipPath id="pe0db1cc97e">
   <rect height="266.112" width="357.12" x="57.6" y="41.472"/>
  </clipPath>
 </defs>
</svg>
