<?xml version="1.0" encoding="utf-8" standalone="no"?>
<!DOCTYPE svg PUBLIC "-//W3C//DTD SVG 1.1//EN"
  "http://www.w3.org/Graphics/SVG/1.1/DTD/svg11.dtd">
<!-- Created with matplotlib (http://matplotlib.org/) -->
<svg height="345pt" version="1.1" viewBox="0 0 460 345" width="460pt" xmlns="http://www.w3.org/2000/svg" xmlns:xlink="http://www.w3.org/1999/xlink">
 <defs>
  <style type="text/css">
*{stroke-linecap:butt;stroke-linejoin:round;}
  </style>
 </defs>
 <g id="figure_1">
  <g id="patch_1">
   <path d="M 0 345.6 
L 460.8 345.6 
L 460.8 0 
L 0 0 
z
" style="fill:#ffffff;"/>
  </g>
  <g id="axes_1">
   <g id="patch_2">
    <path d="M 57.6 307.584 
L 414.72 307.584 
L 414.72 41.472 
L 57.6 41.472 
z
" style="fill:#ffffff;"/>
   </g>
   <g id="matplotlib.axis_1">
    <g id="xtick_1">
     <g id="line2d_1">
      <path clip-path="url(#p2e37f0b8df)" d="M 57.6 307.584 
L 57.6 41.472 
" style="fill:none;stroke:#b0b0b0;stroke-linecap:square;stroke-width:0.8;"/>
     </g>
     <g id="line2d_2">
      <defs>
       <path d="M 0 0 
L 0 3.5 
" id="m0422a9fe21" style="stroke:#000000;stroke-width:0.8;"/>
      </defs>
      <g>
       <use style="stroke:#000000;stroke-width:0.8;" x="57.6" xlink:href="#m0422a9fe21" y="307.584"/>
      </g>
     </g>
     <g id="text_1">
      <!-- 0 -->
      <defs>
       <path d="M 31.78125 66.40625 
Q 24.171875 66.40625 20.328125 58.90625 
Q 16.5 51.421875 16.5 36.375 
Q 16.5 21.390625 20.328125 13.890625 
Q 24.171875 6.390625 31.78125 6.390625 
Q 39.453125 6.390625 43.28125 13.890625 
Q 47.125 21.390625 47.125 36.375 
Q 47.125 51.421875 43.28125 58.90625 
Q 39.453125 66.40625 31.78125 66.40625 
M 31.78125 74.21875 
Q 44.046875 74.21875 50.515625 64.515625 
Q 56.984375 54.828125 56.984375 36.375 
Q 56.984375 17.96875 50.515625 8.265625 
Q 44.046875 -1.421875 31.78125 -1.421875 
Q 19.53125 -1.421875 13.0625 8.265625 
Q 6.59375 17.96875 6.59375 36.375 
Q 6.59375 54.828125 13.0625 64.515625 
Q 19.53125 74.21875 31.78125 74.21875 
" id="DejaVuSans-30"/>
      </defs>
      <g transform="translate(54.41875 322.182437)scale(0.1 -0.1)">
       <use xlink:href="#DejaVuSans-30"/>
      </g>
     </g>
    </g>
    <g id="xtick_2">
     <g id="line2d_3">
      <path clip-path="url(#p2e37f0b8df)" d="M 129.024 307.584 
L 129.024 41.472 
" style="fill:none;stroke:#b0b0b0;stroke-linecap:square;stroke-width:0.8;"/>
     </g>
     <g id="line2d_4">
      <g>
       <use style="stroke:#000000;stroke-width:0.8;" x="129.024" xlink:href="#m0422a9fe21" y="307.584"/>
      </g>
     </g>
     <g id="text_2">
      <!-- 200 -->
      <defs>
       <path d="M 19.1875 8.296875 
L 53.609375 8.296875 
L 53.609375 0 
L 7.328125 0 
L 7.328125 8.296875 
Q 12.9375 14.109375 22.625 23.890625 
Q 32.328125 33.6875 34.8125 36.53125 
Q 39.546875 41.84375 41.421875 45.53125 
Q 43.3125 49.21875 43.3125 52.78125 
Q 43.3125 58.59375 39.234375 62.25 
Q 35.15625 65.921875 28.609375 65.921875 
Q 23.96875 65.921875 18.8125 64.3125 
Q 13.671875 62.703125 7.8125 59.421875 
L 7.8125 69.390625 
Q 13.765625 71.78125 18.9375 73 
Q 24.125 74.21875 28.421875 74.21875 
Q 39.75 74.21875 46.484375 68.546875 
Q 53.21875 62.890625 53.21875 53.421875 
Q 53.21875 48.921875 51.53125 44.890625 
Q 49.859375 40.875 45.40625 35.40625 
Q 44.1875 33.984375 37.640625 27.21875 
Q 31.109375 20.453125 19.1875 8.296875 
" id="DejaVuSans-32"/>
      </defs>
      <g transform="translate(119.48025 322.182437)scale(0.1 -0.1)">
       <use xlink:href="#DejaVuSans-32"/>
       <use x="63.623047" xlink:href="#DejaVuSans-30"/>
       <use x="127.246094" xlink:href="#DejaVuSans-30"/>
      </g>
     </g>
    </g>
    <g id="xtick_3">
     <g id="line2d_5">
      <path clip-path="url(#p2e37f0b8df)" d="M 200.448 307.584 
L 200.448 41.472 
" style="fill:none;stroke:#b0b0b0;stroke-linecap:square;stroke-width:0.8;"/>
     </g>
     <g id="line2d_6">
      <g>
       <use style="stroke:#000000;stroke-width:0.8;" x="200.448" xlink:href="#m0422a9fe21" y="307.584"/>
      </g>
     </g>
     <g id="text_3">
      <!-- 400 -->
      <defs>
       <path d="M 37.796875 64.3125 
L 12.890625 25.390625 
L 37.796875 25.390625 
z
M 35.203125 72.90625 
L 47.609375 72.90625 
L 47.609375 25.390625 
L 58.015625 25.390625 
L 58.015625 17.1875 
L 47.609375 17.1875 
L 47.609375 0 
L 37.796875 0 
L 37.796875 17.1875 
L 4.890625 17.1875 
L 4.890625 26.703125 
z
" id="DejaVuSans-34"/>
      </defs>
      <g transform="translate(190.90425 322.182437)scale(0.1 -0.1)">
       <use xlink:href="#DejaVuSans-34"/>
       <use x="63.623047" xlink:href="#DejaVuSans-30"/>
       <use x="127.246094" xlink:href="#DejaVuSans-30"/>
      </g>
     </g>
    </g>
    <g id="xtick_4">
     <g id="line2d_7">
      <path clip-path="url(#p2e37f0b8df)" d="M 271.872 307.584 
L 271.872 41.472 
" style="fill:none;stroke:#b0b0b0;stroke-linecap:square;stroke-width:0.8;"/>
     </g>
     <g id="line2d_8">
      <g>
       <use style="stroke:#000000;stroke-width:0.8;" x="271.872" xlink:href="#m0422a9fe21" y="307.584"/>
      </g>
     </g>
     <g id="text_4">
      <!-- 600 -->
      <defs>
       <path d="M 33.015625 40.375 
Q 26.375 40.375 22.484375 35.828125 
Q 18.609375 31.296875 18.609375 23.390625 
Q 18.609375 15.53125 22.484375 10.953125 
Q 26.375 6.390625 33.015625 6.390625 
Q 39.65625 6.390625 43.53125 10.953125 
Q 47.40625 15.53125 47.40625 23.390625 
Q 47.40625 31.296875 43.53125 35.828125 
Q 39.65625 40.375 33.015625 40.375 
M 52.59375 71.296875 
L 52.59375 62.3125 
Q 48.875 64.0625 45.09375 64.984375 
Q 41.3125 65.921875 37.59375 65.921875 
Q 27.828125 65.921875 22.671875 59.328125 
Q 17.53125 52.734375 16.796875 39.40625 
Q 19.671875 43.65625 24.015625 45.921875 
Q 28.375 48.1875 33.59375 48.1875 
Q 44.578125 48.1875 50.953125 41.515625 
Q 57.328125 34.859375 57.328125 23.390625 
Q 57.328125 12.15625 50.6875 5.359375 
Q 44.046875 -1.421875 33.015625 -1.421875 
Q 20.359375 -1.421875 13.671875 8.265625 
Q 6.984375 17.96875 6.984375 36.375 
Q 6.984375 53.65625 15.1875 63.9375 
Q 23.390625 74.21875 37.203125 74.21875 
Q 40.921875 74.21875 44.703125 73.484375 
Q 48.484375 72.75 52.59375 71.296875 
" id="DejaVuSans-36"/>
      </defs>
      <g transform="translate(262.32825 322.182437)scale(0.1 -0.1)">
       <use xlink:href="#DejaVuSans-36"/>
       <use x="63.623047" xlink:href="#DejaVuSans-30"/>
       <use x="127.246094" xlink:href="#DejaVuSans-30"/>
      </g>
     </g>
    </g>
    <g id="xtick_5">
     <g id="line2d_9">
      <path clip-path="url(#p2e37f0b8df)" d="M 343.296 307.584 
L 343.296 41.472 
" style="fill:none;stroke:#b0b0b0;stroke-linecap:square;stroke-width:0.8;"/>
     </g>
     <g id="line2d_10">
      <g>
       <use style="stroke:#000000;stroke-width:0.8;" x="343.296" xlink:href="#m0422a9fe21" y="307.584"/>
      </g>
     </g>
     <g id="text_5">
      <!-- 800 -->
      <defs>
       <path d="M 31.78125 34.625 
Q 24.75 34.625 20.71875 30.859375 
Q 16.703125 27.09375 16.703125 20.515625 
Q 16.703125 13.921875 20.71875 10.15625 
Q 24.75 6.390625 31.78125 6.390625 
Q 38.8125 6.390625 42.859375 10.171875 
Q 46.921875 13.96875 46.921875 20.515625 
Q 46.921875 27.09375 42.890625 30.859375 
Q 38.875 34.625 31.78125 34.625 
M 21.921875 38.8125 
Q 15.578125 40.375 12.03125 44.71875 
Q 8.5 49.078125 8.5 55.328125 
Q 8.5 64.0625 14.71875 69.140625 
Q 20.953125 74.21875 31.78125 74.21875 
Q 42.671875 74.21875 48.875 69.140625 
Q 55.078125 64.0625 55.078125 55.328125 
Q 55.078125 49.078125 51.53125 44.71875 
Q 48 40.375 41.703125 38.8125 
Q 48.828125 37.15625 52.796875 32.3125 
Q 56.78125 27.484375 56.78125 20.515625 
Q 56.78125 9.90625 50.3125 4.234375 
Q 43.84375 -1.421875 31.78125 -1.421875 
Q 19.734375 -1.421875 13.25 4.234375 
Q 6.78125 9.90625 6.78125 20.515625 
Q 6.78125 27.484375 10.78125 32.3125 
Q 14.796875 37.15625 21.921875 38.8125 
M 18.3125 54.390625 
Q 18.3125 48.734375 21.84375 45.5625 
Q 25.390625 42.390625 31.78125 42.390625 
Q 38.140625 42.390625 41.71875 45.5625 
Q 45.3125 48.734375 45.3125 54.390625 
Q 45.3125 60.0625 41.71875 63.234375 
Q 38.140625 66.40625 31.78125 66.40625 
Q 25.390625 66.40625 21.84375 63.234375 
Q 18.3125 60.0625 18.3125 54.390625 
" id="DejaVuSans-38"/>
      </defs>
      <g transform="translate(333.75225 322.182437)scale(0.1 -0.1)">
       <use xlink:href="#DejaVuSans-38"/>
       <use x="63.623047" xlink:href="#DejaVuSans-30"/>
       <use x="127.246094" xlink:href="#DejaVuSans-30"/>
      </g>
     </g>
    </g>
    <g id="xtick_6">
     <g id="line2d_11">
      <path clip-path="url(#p2e37f0b8df)" d="M 414.72 307.584 
L 414.72 41.472 
" style="fill:none;stroke:#b0b0b0;stroke-linecap:square;stroke-width:0.8;"/>
     </g>
     <g id="line2d_12">
      <g>
       <use style="stroke:#000000;stroke-width:0.8;" x="414.72" xlink:href="#m0422a9fe21" y="307.584"/>
      </g>
     </g>
     <g id="text_6">
      <!-- 1000 -->
      <defs>
       <path d="M 12.40625 8.296875 
L 28.515625 8.296875 
L 28.515625 63.921875 
L 10.984375 60.40625 
L 10.984375 69.390625 
L 28.421875 72.90625 
L 38.28125 72.90625 
L 38.28125 8.296875 
L 54.390625 8.296875 
L 54.390625 0 
L 12.40625 0 
z
" id="DejaVuSans-31"/>
      </defs>
      <g transform="translate(401.995 322.182437)scale(0.1 -0.1)">
       <use xlink:href="#DejaVuSans-31"/>
       <use x="63.623047" xlink:href="#DejaVuSans-30"/>
       <use x="127.246094" xlink:href="#DejaVuSans-30"/>
       <use x="190.869141" xlink:href="#DejaVuSans-30"/>
      </g>
     </g>
    </g>
    <g id="text_7">
     <!-- Number of clients -->
     <defs>
      <path d="M 9.8125 72.90625 
L 23.09375 72.90625 
L 55.421875 11.921875 
L 55.421875 72.90625 
L 64.984375 72.90625 
L 64.984375 0 
L 51.703125 0 
L 19.390625 60.984375 
L 19.390625 0 
L 9.8125 0 
z
" id="DejaVuSans-4e"/>
      <path d="M 8.5 21.578125 
L 8.5 54.6875 
L 17.484375 54.6875 
L 17.484375 21.921875 
Q 17.484375 14.15625 20.5 10.265625 
Q 23.53125 6.390625 29.59375 6.390625 
Q 36.859375 6.390625 41.078125 11.03125 
Q 45.3125 15.671875 45.3125 23.6875 
L 45.3125 54.6875 
L 54.296875 54.6875 
L 54.296875 0 
L 45.3125 0 
L 45.3125 8.40625 
Q 42.046875 3.421875 37.71875 1 
Q 33.40625 -1.421875 27.6875 -1.421875 
Q 18.265625 -1.421875 13.375 4.4375 
Q 8.5 10.296875 8.5 21.578125 
M 31.109375 56 
z
" id="DejaVuSans-75"/>
      <path d="M 52 44.1875 
Q 55.375 50.25 60.0625 53.125 
Q 64.75 56 71.09375 56 
Q 79.640625 56 84.28125 50.015625 
Q 88.921875 44.046875 88.921875 33.015625 
L 88.921875 0 
L 79.890625 0 
L 79.890625 32.71875 
Q 79.890625 40.578125 77.09375 44.375 
Q 74.3125 48.1875 68.609375 48.1875 
Q 61.625 48.1875 57.5625 43.546875 
Q 53.515625 38.921875 53.515625 30.90625 
L 53.515625 0 
L 44.484375 0 
L 44.484375 32.71875 
Q 44.484375 40.625 41.703125 44.40625 
Q 38.921875 48.1875 33.109375 48.1875 
Q 26.21875 48.1875 22.15625 43.53125 
Q 18.109375 38.875 18.109375 30.90625 
L 18.109375 0 
L 9.078125 0 
L 9.078125 54.6875 
L 18.109375 54.6875 
L 18.109375 46.1875 
Q 21.1875 51.21875 25.484375 53.609375 
Q 29.78125 56 35.6875 56 
Q 41.65625 56 45.828125 52.96875 
Q 50 49.953125 52 44.1875 
" id="DejaVuSans-6d"/>
      <path d="M 48.6875 27.296875 
Q 48.6875 37.203125 44.609375 42.84375 
Q 40.53125 48.484375 33.40625 48.484375 
Q 26.265625 48.484375 22.1875 42.84375 
Q 18.109375 37.203125 18.109375 27.296875 
Q 18.109375 17.390625 22.1875 11.75 
Q 26.265625 6.109375 33.40625 6.109375 
Q 40.53125 6.109375 44.609375 11.75 
Q 48.6875 17.390625 48.6875 27.296875 
M 18.109375 46.390625 
Q 20.953125 51.265625 25.265625 53.625 
Q 29.59375 56 35.59375 56 
Q 45.5625 56 51.78125 48.09375 
Q 58.015625 40.1875 58.015625 27.296875 
Q 58.015625 14.40625 51.78125 6.484375 
Q 45.5625 -1.421875 35.59375 -1.421875 
Q 29.59375 -1.421875 25.265625 0.953125 
Q 20.953125 3.328125 18.109375 8.203125 
L 18.109375 0 
L 9.078125 0 
L 9.078125 75.984375 
L 18.109375 75.984375 
z
" id="DejaVuSans-62"/>
      <path d="M 56.203125 29.59375 
L 56.203125 25.203125 
L 14.890625 25.203125 
Q 15.484375 15.921875 20.484375 11.0625 
Q 25.484375 6.203125 34.421875 6.203125 
Q 39.59375 6.203125 44.453125 7.46875 
Q 49.3125 8.734375 54.109375 11.28125 
L 54.109375 2.78125 
Q 49.265625 0.734375 44.1875 -0.34375 
Q 39.109375 -1.421875 33.890625 -1.421875 
Q 20.796875 -1.421875 13.15625 6.1875 
Q 5.515625 13.8125 5.515625 26.8125 
Q 5.515625 40.234375 12.765625 48.109375 
Q 20.015625 56 32.328125 56 
Q 43.359375 56 49.78125 48.890625 
Q 56.203125 41.796875 56.203125 29.59375 
M 47.21875 32.234375 
Q 47.125 39.59375 43.09375 43.984375 
Q 39.0625 48.390625 32.421875 48.390625 
Q 24.90625 48.390625 20.390625 44.140625 
Q 15.875 39.890625 15.1875 32.171875 
z
" id="DejaVuSans-65"/>
      <path d="M 41.109375 46.296875 
Q 39.59375 47.171875 37.8125 47.578125 
Q 36.03125 48 33.890625 48 
Q 26.265625 48 22.1875 43.046875 
Q 18.109375 38.09375 18.109375 28.8125 
L 18.109375 0 
L 9.078125 0 
L 9.078125 54.6875 
L 18.109375 54.6875 
L 18.109375 46.1875 
Q 20.953125 51.171875 25.484375 53.578125 
Q 30.03125 56 36.53125 56 
Q 37.453125 56 38.578125 55.875 
Q 39.703125 55.765625 41.0625 55.515625 
z
" id="DejaVuSans-72"/>
      <path id="DejaVuSans-20"/>
      <path d="M 30.609375 48.390625 
Q 23.390625 48.390625 19.1875 42.75 
Q 14.984375 37.109375 14.984375 27.296875 
Q 14.984375 17.484375 19.15625 11.84375 
Q 23.34375 6.203125 30.609375 6.203125 
Q 37.796875 6.203125 41.984375 11.859375 
Q 46.1875 17.53125 46.1875 27.296875 
Q 46.1875 37.015625 41.984375 42.703125 
Q 37.796875 48.390625 30.609375 48.390625 
M 30.609375 56 
Q 42.328125 56 49.015625 48.375 
Q 55.71875 40.765625 55.71875 27.296875 
Q 55.71875 13.875 49.015625 6.21875 
Q 42.328125 -1.421875 30.609375 -1.421875 
Q 18.84375 -1.421875 12.171875 6.21875 
Q 5.515625 13.875 5.515625 27.296875 
Q 5.515625 40.765625 12.171875 48.375 
Q 18.84375 56 30.609375 56 
" id="DejaVuSans-6f"/>
      <path d="M 37.109375 75.984375 
L 37.109375 68.5 
L 28.515625 68.5 
Q 23.6875 68.5 21.796875 66.546875 
Q 19.921875 64.59375 19.921875 59.515625 
L 19.921875 54.6875 
L 34.71875 54.6875 
L 34.71875 47.703125 
L 19.921875 47.703125 
L 19.921875 0 
L 10.890625 0 
L 10.890625 47.703125 
L 2.296875 47.703125 
L 2.296875 54.6875 
L 10.890625 54.6875 
L 10.890625 58.5 
Q 10.890625 67.625 15.140625 71.796875 
Q 19.390625 75.984375 28.609375 75.984375 
z
" id="DejaVuSans-66"/>
      <path d="M 48.78125 52.59375 
L 48.78125 44.1875 
Q 44.96875 46.296875 41.140625 47.34375 
Q 37.3125 48.390625 33.40625 48.390625 
Q 24.65625 48.390625 19.8125 42.84375 
Q 14.984375 37.3125 14.984375 27.296875 
Q 14.984375 17.28125 19.8125 11.734375 
Q 24.65625 6.203125 33.40625 6.203125 
Q 37.3125 6.203125 41.140625 7.25 
Q 44.96875 8.296875 48.78125 10.40625 
L 48.78125 2.09375 
Q 45.015625 0.34375 40.984375 -0.53125 
Q 36.96875 -1.421875 32.421875 -1.421875 
Q 20.0625 -1.421875 12.78125 6.34375 
Q 5.515625 14.109375 5.515625 27.296875 
Q 5.515625 40.671875 12.859375 48.328125 
Q 20.21875 56 33.015625 56 
Q 37.15625 56 41.109375 55.140625 
Q 45.0625 54.296875 48.78125 52.59375 
" id="DejaVuSans-63"/>
      <path d="M 9.421875 75.984375 
L 18.40625 75.984375 
L 18.40625 0 
L 9.421875 0 
z
" id="DejaVuSans-6c"/>
      <path d="M 9.421875 54.6875 
L 18.40625 54.6875 
L 18.40625 0 
L 9.421875 0 
z
M 9.421875 75.984375 
L 18.40625 75.984375 
L 18.40625 64.59375 
L 9.421875 64.59375 
z
" id="DejaVuSans-69"/>
      <path d="M 54.890625 33.015625 
L 54.890625 0 
L 45.90625 0 
L 45.90625 32.71875 
Q 45.90625 40.484375 42.875 44.328125 
Q 39.84375 48.1875 33.796875 48.1875 
Q 26.515625 48.1875 22.3125 43.546875 
Q 18.109375 38.921875 18.109375 30.90625 
L 18.109375 0 
L 9.078125 0 
L 9.078125 54.6875 
L 18.109375 54.6875 
L 18.109375 46.1875 
Q 21.34375 51.125 25.703125 53.5625 
Q 30.078125 56 35.796875 56 
Q 45.21875 56 50.046875 50.171875 
Q 54.890625 44.34375 54.890625 33.015625 
" id="DejaVuSans-6e"/>
      <path d="M 18.3125 70.21875 
L 18.3125 54.6875 
L 36.8125 54.6875 
L 36.8125 47.703125 
L 18.3125 47.703125 
L 18.3125 18.015625 
Q 18.3125 11.328125 20.140625 9.421875 
Q 21.96875 7.515625 27.59375 7.515625 
L 36.8125 7.515625 
L 36.8125 0 
L 27.59375 0 
Q 17.1875 0 13.234375 3.875 
Q 9.28125 7.765625 9.28125 18.015625 
L 9.28125 47.703125 
L 2.6875 47.703125 
L 2.6875 54.6875 
L 9.28125 54.6875 
L 9.28125 70.21875 
z
" id="DejaVuSans-74"/>
      <path d="M 44.28125 53.078125 
L 44.28125 44.578125 
Q 40.484375 46.53125 36.375 47.5 
Q 32.28125 48.484375 27.875 48.484375 
Q 21.1875 48.484375 17.84375 46.4375 
Q 14.5 44.390625 14.5 40.28125 
Q 14.5 37.15625 16.890625 35.375 
Q 19.28125 33.59375 26.515625 31.984375 
L 29.59375 31.296875 
Q 39.15625 29.25 43.1875 25.515625 
Q 47.21875 21.78125 47.21875 15.09375 
Q 47.21875 7.46875 41.1875 3.015625 
Q 35.15625 -1.421875 24.609375 -1.421875 
Q 20.21875 -1.421875 15.453125 -0.5625 
Q 10.6875 0.296875 5.421875 2 
L 5.421875 11.28125 
Q 10.40625 8.6875 15.234375 7.390625 
Q 20.0625 6.109375 24.8125 6.109375 
Q 31.15625 6.109375 34.5625 8.28125 
Q 37.984375 10.453125 37.984375 14.40625 
Q 37.984375 18.0625 35.515625 20.015625 
Q 33.0625 21.96875 24.703125 23.78125 
L 21.578125 24.515625 
Q 13.234375 26.265625 9.515625 29.90625 
Q 5.8125 33.546875 5.8125 39.890625 
Q 5.8125 47.609375 11.28125 51.796875 
Q 16.75 56 26.8125 56 
Q 31.78125 56 36.171875 55.265625 
Q 40.578125 54.546875 44.28125 53.078125 
" id="DejaVuSans-73"/>
     </defs>
     <g transform="translate(191.738906 335.860562)scale(0.1 -0.1)">
      <use xlink:href="#DejaVuSans-4e"/>
      <use x="74.804688" xlink:href="#DejaVuSans-75"/>
      <use x="138.183594" xlink:href="#DejaVuSans-6d"/>
      <use x="235.595703" xlink:href="#DejaVuSans-62"/>
      <use x="299.072266" xlink:href="#DejaVuSans-65"/>
      <use x="360.595703" xlink:href="#DejaVuSans-72"/>
      <use x="401.708984" xlink:href="#DejaVuSans-20"/>
      <use x="433.496094" xlink:href="#DejaVuSans-6f"/>
      <use x="494.677734" xlink:href="#DejaVuSans-66"/>
      <use x="529.882812" xlink:href="#DejaVuSans-20"/>
      <use x="561.669922" xlink:href="#DejaVuSans-63"/>
      <use x="616.650391" xlink:href="#DejaVuSans-6c"/>
      <use x="644.433594" xlink:href="#DejaVuSans-69"/>
      <use x="672.216797" xlink:href="#DejaVuSans-65"/>
      <use x="733.740234" xlink:href="#DejaVuSans-6e"/>
      <use x="797.119141" xlink:href="#DejaVuSans-74"/>
      <use x="836.328125" xlink:href="#DejaVuSans-73"/>
     </g>
    </g>
   </g>
   <g id="matplotlib.axis_2">
    <g id="ytick_1">
     <g id="line2d_13">
      <path clip-path="url(#p2e37f0b8df)" d="M 57.6 295.795616 
L 414.72 295.795616 
" style="fill:none;stroke:#b0b0b0;stroke-linecap:square;stroke-width:0.8;"/>
     </g>
     <g id="line2d_14">
      <defs>
       <path d="M 0 0 
L -3.5 0 
" id="m78b5c255e5" style="stroke:#000000;stroke-width:0.8;"/>
      </defs>
      <g>
       <use style="stroke:#000000;stroke-width:0.8;" x="57.6" xlink:href="#m78b5c255e5" y="295.795616"/>
      </g>
     </g>
     <g id="text_8">
      <!-- 0 -->
      <g transform="translate(44.2375 299.594835)scale(0.1 -0.1)">
       <use xlink:href="#DejaVuSans-30"/>
      </g>
     </g>
    </g>
    <g id="ytick_2">
     <g id="line2d_15">
      <path clip-path="url(#p2e37f0b8df)" d="M 57.6 263.346696 
L 414.72 263.346696 
" style="fill:none;stroke:#b0b0b0;stroke-linecap:square;stroke-width:0.8;"/>
     </g>
     <g id="line2d_16">
      <g>
       <use style="stroke:#000000;stroke-width:0.8;" x="57.6" xlink:href="#m78b5c255e5" y="263.346696"/>
      </g>
     </g>
     <g id="text_9">
      <!-- 100 -->
      <g transform="translate(31.5125 267.145915)scale(0.1 -0.1)">
       <use xlink:href="#DejaVuSans-31"/>
       <use x="63.623047" xlink:href="#DejaVuSans-30"/>
       <use x="127.246094" xlink:href="#DejaVuSans-30"/>
      </g>
     </g>
    </g>
    <g id="ytick_3">
     <g id="line2d_17">
      <path clip-path="url(#p2e37f0b8df)" d="M 57.6 230.897776 
L 414.72 230.897776 
" style="fill:none;stroke:#b0b0b0;stroke-linecap:square;stroke-width:0.8;"/>
     </g>
     <g id="line2d_18">
      <g>
       <use style="stroke:#000000;stroke-width:0.8;" x="57.6" xlink:href="#m78b5c255e5" y="230.897776"/>
      </g>
     </g>
     <g id="text_10">
      <!-- 200 -->
      <g transform="translate(31.5125 234.696995)scale(0.1 -0.1)">
       <use xlink:href="#DejaVuSans-32"/>
       <use x="63.623047" xlink:href="#DejaVuSans-30"/>
       <use x="127.246094" xlink:href="#DejaVuSans-30"/>
      </g>
     </g>
    </g>
    <g id="ytick_4">
     <g id="line2d_19">
      <path clip-path="url(#p2e37f0b8df)" d="M 57.6 198.448857 
L 414.72 198.448857 
" style="fill:none;stroke:#b0b0b0;stroke-linecap:square;stroke-width:0.8;"/>
     </g>
     <g id="line2d_20">
      <g>
       <use style="stroke:#000000;stroke-width:0.8;" x="57.6" xlink:href="#m78b5c255e5" y="198.448857"/>
      </g>
     </g>
     <g id="text_11">
      <!-- 300 -->
      <defs>
       <path d="M 40.578125 39.3125 
Q 47.65625 37.796875 51.625 33 
Q 55.609375 28.21875 55.609375 21.1875 
Q 55.609375 10.40625 48.1875 4.484375 
Q 40.765625 -1.421875 27.09375 -1.421875 
Q 22.515625 -1.421875 17.65625 -0.515625 
Q 12.796875 0.390625 7.625 2.203125 
L 7.625 11.71875 
Q 11.71875 9.328125 16.59375 8.109375 
Q 21.484375 6.890625 26.8125 6.890625 
Q 36.078125 6.890625 40.9375 10.546875 
Q 45.796875 14.203125 45.796875 21.1875 
Q 45.796875 27.640625 41.28125 31.265625 
Q 36.765625 34.90625 28.71875 34.90625 
L 20.21875 34.90625 
L 20.21875 43.015625 
L 29.109375 43.015625 
Q 36.375 43.015625 40.234375 45.921875 
Q 44.09375 48.828125 44.09375 54.296875 
Q 44.09375 59.90625 40.109375 62.90625 
Q 36.140625 65.921875 28.71875 65.921875 
Q 24.65625 65.921875 20.015625 65.03125 
Q 15.375 64.15625 9.8125 62.3125 
L 9.8125 71.09375 
Q 15.4375 72.65625 20.34375 73.4375 
Q 25.25 74.21875 29.59375 74.21875 
Q 40.828125 74.21875 47.359375 69.109375 
Q 53.90625 64.015625 53.90625 55.328125 
Q 53.90625 49.265625 50.4375 45.09375 
Q 46.96875 40.921875 40.578125 39.3125 
" id="DejaVuSans-33"/>
      </defs>
      <g transform="translate(31.5125 202.248076)scale(0.1 -0.1)">
       <use xlink:href="#DejaVuSans-33"/>
       <use x="63.623047" xlink:href="#DejaVuSans-30"/>
       <use x="127.246094" xlink:href="#DejaVuSans-30"/>
      </g>
     </g>
    </g>
    <g id="ytick_5">
     <g id="line2d_21">
      <path clip-path="url(#p2e37f0b8df)" d="M 57.6 165.999937 
L 414.72 165.999937 
" style="fill:none;stroke:#b0b0b0;stroke-linecap:square;stroke-width:0.8;"/>
     </g>
     <g id="line2d_22">
      <g>
       <use style="stroke:#000000;stroke-width:0.8;" x="57.6" xlink:href="#m78b5c255e5" y="165.999937"/>
      </g>
     </g>
     <g id="text_12">
      <!-- 400 -->
      <g transform="translate(31.5125 169.799156)scale(0.1 -0.1)">
       <use xlink:href="#DejaVuSans-34"/>
       <use x="63.623047" xlink:href="#DejaVuSans-30"/>
       <use x="127.246094" xlink:href="#DejaVuSans-30"/>
      </g>
     </g>
    </g>
    <g id="ytick_6">
     <g id="line2d_23">
      <path clip-path="url(#p2e37f0b8df)" d="M 57.6 133.551018 
L 414.72 133.551018 
" style="fill:none;stroke:#b0b0b0;stroke-linecap:square;stroke-width:0.8;"/>
     </g>
     <g id="line2d_24">
      <g>
       <use style="stroke:#000000;stroke-width:0.8;" x="57.6" xlink:href="#m78b5c255e5" y="133.551018"/>
      </g>
     </g>
     <g id="text_13">
      <!-- 500 -->
      <defs>
       <path d="M 10.796875 72.90625 
L 49.515625 72.90625 
L 49.515625 64.59375 
L 19.828125 64.59375 
L 19.828125 46.734375 
Q 21.96875 47.46875 24.109375 47.828125 
Q 26.265625 48.1875 28.421875 48.1875 
Q 40.625 48.1875 47.75 41.5 
Q 54.890625 34.8125 54.890625 23.390625 
Q 54.890625 11.625 47.5625 5.09375 
Q 40.234375 -1.421875 26.90625 -1.421875 
Q 22.3125 -1.421875 17.546875 -0.640625 
Q 12.796875 0.140625 7.71875 1.703125 
L 7.71875 11.625 
Q 12.109375 9.234375 16.796875 8.0625 
Q 21.484375 6.890625 26.703125 6.890625 
Q 35.15625 6.890625 40.078125 11.328125 
Q 45.015625 15.765625 45.015625 23.390625 
Q 45.015625 31 40.078125 35.4375 
Q 35.15625 39.890625 26.703125 39.890625 
Q 22.75 39.890625 18.8125 39.015625 
Q 14.890625 38.140625 10.796875 36.28125 
z
" id="DejaVuSans-35"/>
      </defs>
      <g transform="translate(31.5125 137.350236)scale(0.1 -0.1)">
       <use xlink:href="#DejaVuSans-35"/>
       <use x="63.623047" xlink:href="#DejaVuSans-30"/>
       <use x="127.246094" xlink:href="#DejaVuSans-30"/>
      </g>
     </g>
    </g>
    <g id="ytick_7">
     <g id="line2d_25">
      <path clip-path="url(#p2e37f0b8df)" d="M 57.6 101.102098 
L 414.72 101.102098 
" style="fill:none;stroke:#b0b0b0;stroke-linecap:square;stroke-width:0.8;"/>
     </g>
     <g id="line2d_26">
      <g>
       <use style="stroke:#000000;stroke-width:0.8;" x="57.6" xlink:href="#m78b5c255e5" y="101.102098"/>
      </g>
     </g>
     <g id="text_14">
      <!-- 600 -->
      <g transform="translate(31.5125 104.901317)scale(0.1 -0.1)">
       <use xlink:href="#DejaVuSans-36"/>
       <use x="63.623047" xlink:href="#DejaVuSans-30"/>
       <use x="127.246094" xlink:href="#DejaVuSans-30"/>
      </g>
     </g>
    </g>
    <g id="ytick_8">
     <g id="line2d_27">
      <path clip-path="url(#p2e37f0b8df)" d="M 57.6 68.653178 
L 414.72 68.653178 
" style="fill:none;stroke:#b0b0b0;stroke-linecap:square;stroke-width:0.8;"/>
     </g>
     <g id="line2d_28">
      <g>
       <use style="stroke:#000000;stroke-width:0.8;" x="57.6" xlink:href="#m78b5c255e5" y="68.653178"/>
      </g>
     </g>
     <g id="text_15">
      <!-- 700 -->
      <defs>
       <path d="M 8.203125 72.90625 
L 55.078125 72.90625 
L 55.078125 68.703125 
L 28.609375 0 
L 18.3125 0 
L 43.21875 64.59375 
L 8.203125 64.59375 
z
" id="DejaVuSans-37"/>
      </defs>
      <g transform="translate(31.5125 72.452397)scale(0.1 -0.1)">
       <use xlink:href="#DejaVuSans-37"/>
       <use x="63.623047" xlink:href="#DejaVuSans-30"/>
       <use x="127.246094" xlink:href="#DejaVuSans-30"/>
      </g>
     </g>
    </g>
    <g id="text_16">
     <!-- Successful download requests per second -->
     <defs>
      <path d="M 53.515625 70.515625 
L 53.515625 60.890625 
Q 47.90625 63.578125 42.921875 64.890625 
Q 37.9375 66.21875 33.296875 66.21875 
Q 25.25 66.21875 20.875 63.09375 
Q 16.5 59.96875 16.5 54.203125 
Q 16.5 49.359375 19.40625 46.890625 
Q 22.3125 44.4375 30.421875 42.921875 
L 36.375 41.703125 
Q 47.40625 39.59375 52.65625 34.296875 
Q 57.90625 29 57.90625 20.125 
Q 57.90625 9.515625 50.796875 4.046875 
Q 43.703125 -1.421875 29.984375 -1.421875 
Q 24.8125 -1.421875 18.96875 -0.25 
Q 13.140625 0.921875 6.890625 3.21875 
L 6.890625 13.375 
Q 12.890625 10.015625 18.65625 8.296875 
Q 24.421875 6.59375 29.984375 6.59375 
Q 38.421875 6.59375 43.015625 9.90625 
Q 47.609375 13.234375 47.609375 19.390625 
Q 47.609375 24.75 44.3125 27.78125 
Q 41.015625 30.8125 33.5 32.328125 
L 27.484375 33.5 
Q 16.453125 35.6875 11.515625 40.375 
Q 6.59375 45.0625 6.59375 53.421875 
Q 6.59375 63.09375 13.40625 68.65625 
Q 20.21875 74.21875 32.171875 74.21875 
Q 37.3125 74.21875 42.625 73.28125 
Q 47.953125 72.359375 53.515625 70.515625 
" id="DejaVuSans-53"/>
      <path d="M 45.40625 46.390625 
L 45.40625 75.984375 
L 54.390625 75.984375 
L 54.390625 0 
L 45.40625 0 
L 45.40625 8.203125 
Q 42.578125 3.328125 38.25 0.953125 
Q 33.9375 -1.421875 27.875 -1.421875 
Q 17.96875 -1.421875 11.734375 6.484375 
Q 5.515625 14.40625 5.515625 27.296875 
Q 5.515625 40.1875 11.734375 48.09375 
Q 17.96875 56 27.875 56 
Q 33.9375 56 38.25 53.625 
Q 42.578125 51.265625 45.40625 46.390625 
M 14.796875 27.296875 
Q 14.796875 17.390625 18.875 11.75 
Q 22.953125 6.109375 30.078125 6.109375 
Q 37.203125 6.109375 41.296875 11.75 
Q 45.40625 17.390625 45.40625 27.296875 
Q 45.40625 37.203125 41.296875 42.84375 
Q 37.203125 48.484375 30.078125 48.484375 
Q 22.953125 48.484375 18.875 42.84375 
Q 14.796875 37.203125 14.796875 27.296875 
" id="DejaVuSans-64"/>
      <path d="M 4.203125 54.6875 
L 13.1875 54.6875 
L 24.421875 12.015625 
L 35.59375 54.6875 
L 46.1875 54.6875 
L 57.421875 12.015625 
L 68.609375 54.6875 
L 77.59375 54.6875 
L 63.28125 0 
L 52.6875 0 
L 40.921875 44.828125 
L 29.109375 0 
L 18.5 0 
z
" id="DejaVuSans-77"/>
      <path d="M 34.28125 27.484375 
Q 23.390625 27.484375 19.1875 25 
Q 14.984375 22.515625 14.984375 16.5 
Q 14.984375 11.71875 18.140625 8.90625 
Q 21.296875 6.109375 26.703125 6.109375 
Q 34.1875 6.109375 38.703125 11.40625 
Q 43.21875 16.703125 43.21875 25.484375 
L 43.21875 27.484375 
z
M 52.203125 31.203125 
L 52.203125 0 
L 43.21875 0 
L 43.21875 8.296875 
Q 40.140625 3.328125 35.546875 0.953125 
Q 30.953125 -1.421875 24.3125 -1.421875 
Q 15.921875 -1.421875 10.953125 3.296875 
Q 6 8.015625 6 15.921875 
Q 6 25.140625 12.171875 29.828125 
Q 18.359375 34.515625 30.609375 34.515625 
L 43.21875 34.515625 
L 43.21875 35.40625 
Q 43.21875 41.609375 39.140625 45 
Q 35.0625 48.390625 27.6875 48.390625 
Q 23 48.390625 18.546875 47.265625 
Q 14.109375 46.140625 10.015625 43.890625 
L 10.015625 52.203125 
Q 14.9375 54.109375 19.578125 55.046875 
Q 24.21875 56 28.609375 56 
Q 40.484375 56 46.34375 49.84375 
Q 52.203125 43.703125 52.203125 31.203125 
" id="DejaVuSans-61"/>
      <path d="M 14.796875 27.296875 
Q 14.796875 17.390625 18.875 11.75 
Q 22.953125 6.109375 30.078125 6.109375 
Q 37.203125 6.109375 41.296875 11.75 
Q 45.40625 17.390625 45.40625 27.296875 
Q 45.40625 37.203125 41.296875 42.84375 
Q 37.203125 48.484375 30.078125 48.484375 
Q 22.953125 48.484375 18.875 42.84375 
Q 14.796875 37.203125 14.796875 27.296875 
M 45.40625 8.203125 
Q 42.578125 3.328125 38.25 0.953125 
Q 33.9375 -1.421875 27.875 -1.421875 
Q 17.96875 -1.421875 11.734375 6.484375 
Q 5.515625 14.40625 5.515625 27.296875 
Q 5.515625 40.1875 11.734375 48.09375 
Q 17.96875 56 27.875 56 
Q 33.9375 56 38.25 53.625 
Q 42.578125 51.265625 45.40625 46.390625 
L 45.40625 54.6875 
L 54.390625 54.6875 
L 54.390625 -20.796875 
L 45.40625 -20.796875 
z
" id="DejaVuSans-71"/>
      <path d="M 18.109375 8.203125 
L 18.109375 -20.796875 
L 9.078125 -20.796875 
L 9.078125 54.6875 
L 18.109375 54.6875 
L 18.109375 46.390625 
Q 20.953125 51.265625 25.265625 53.625 
Q 29.59375 56 35.59375 56 
Q 45.5625 56 51.78125 48.09375 
Q 58.015625 40.1875 58.015625 27.296875 
Q 58.015625 14.40625 51.78125 6.484375 
Q 45.5625 -1.421875 35.59375 -1.421875 
Q 29.59375 -1.421875 25.265625 0.953125 
Q 20.953125 3.328125 18.109375 8.203125 
M 48.6875 27.296875 
Q 48.6875 37.203125 44.609375 42.84375 
Q 40.53125 48.484375 33.40625 48.484375 
Q 26.265625 48.484375 22.1875 42.84375 
Q 18.109375 37.203125 18.109375 27.296875 
Q 18.109375 17.390625 22.1875 11.75 
Q 26.265625 6.109375 33.40625 6.109375 
Q 40.53125 6.109375 44.609375 11.75 
Q 48.6875 17.390625 48.6875 27.296875 
" id="DejaVuSans-70"/>
     </defs>
     <g transform="translate(25.432812 279.366281)rotate(-90)scale(0.1 -0.1)">
      <use xlink:href="#DejaVuSans-53"/>
      <use x="63.476562" xlink:href="#DejaVuSans-75"/>
      <use x="126.855469" xlink:href="#DejaVuSans-63"/>
      <use x="181.835938" xlink:href="#DejaVuSans-63"/>
      <use x="236.816406" xlink:href="#DejaVuSans-65"/>
      <use x="298.339844" xlink:href="#DejaVuSans-73"/>
      <use x="350.439453" xlink:href="#DejaVuSans-73"/>
      <use x="402.539062" xlink:href="#DejaVuSans-66"/>
      <use x="437.744141" xlink:href="#DejaVuSans-75"/>
      <use x="501.123047" xlink:href="#DejaVuSans-6c"/>
      <use x="528.90625" xlink:href="#DejaVuSans-20"/>
      <use x="560.693359" xlink:href="#DejaVuSans-64"/>
      <use x="624.169922" xlink:href="#DejaVuSans-6f"/>
      <use x="685.351562" xlink:href="#DejaVuSans-77"/>
      <use x="767.138672" xlink:href="#DejaVuSans-6e"/>
      <use x="830.517578" xlink:href="#DejaVuSans-6c"/>
      <use x="858.300781" xlink:href="#DejaVuSans-6f"/>
      <use x="919.482422" xlink:href="#DejaVuSans-61"/>
      <use x="980.761719" xlink:href="#DejaVuSans-64"/>
      <use x="1044.238281" xlink:href="#DejaVuSans-20"/>
      <use x="1076.025391" xlink:href="#DejaVuSans-72"/>
      <use x="1117.107422" xlink:href="#DejaVuSans-65"/>
      <use x="1178.630859" xlink:href="#DejaVuSans-71"/>
      <use x="1242.107422" xlink:href="#DejaVuSans-75"/>
      <use x="1305.486328" xlink:href="#DejaVuSans-65"/>
      <use x="1367.009766" xlink:href="#DejaVuSans-73"/>
      <use x="1419.109375" xlink:href="#DejaVuSans-74"/>
      <use x="1458.318359" xlink:href="#DejaVuSans-73"/>
      <use x="1510.417969" xlink:href="#DejaVuSans-20"/>
      <use x="1542.205078" xlink:href="#DejaVuSans-70"/>
      <use x="1605.681641" xlink:href="#DejaVuSans-65"/>
      <use x="1667.205078" xlink:href="#DejaVuSans-72"/>
      <use x="1708.318359" xlink:href="#DejaVuSans-20"/>
      <use x="1740.105469" xlink:href="#DejaVuSans-73"/>
      <use x="1792.205078" xlink:href="#DejaVuSans-65"/>
      <use x="1853.728516" xlink:href="#DejaVuSans-63"/>
      <use x="1908.708984" xlink:href="#DejaVuSans-6f"/>
      <use x="1969.890625" xlink:href="#DejaVuSans-6e"/>
      <use x="2033.269531" xlink:href="#DejaVuSans-64"/>
     </g>
    </g>
   </g>
   <g id="line2d_29">
    <path clip-path="url(#p2e37f0b8df)" d="M 57.6 295.477292 
L 57.95712 295.488 
L 60.09984 293.551124 
L 60.81408 293.023829 
L 61.52832 292.416061 
L 62.59968 291.349789 
L 62.9568 291.232649 
L 63.67104 290.342575 
L 64.02816 290.19331 
L 64.38528 289.715662 
L 64.7424 289.61507 
L 65.09952 289.153971 
L 65.45664 288.966741 
L 66.17088 288.037404 
L 66.528 287.877755 
L 66.88512 287.891059 
L 67.24224 287.442939 
L 67.59936 287.199572 
L 67.95648 286.551568 
L 68.67072 286.411713 
L 69.38496 285.26659 
L 69.74208 285.51742 
L 70.0992 284.725342 
L 70.45632 284.741242 
L 71.17056 284.01828 
L 71.8848 282.995166 
L 72.24192 282.926374 
L 73.6704 281.39803 
L 74.02752 281.618358 
L 74.38464 280.863921 
L 74.74176 280.696484 
L 75.09888 280.763654 
L 75.456 280.002727 
L 75.81312 280.199043 
L 76.17024 279.032179 
L 76.52736 279.786941 
L 76.88448 278.464648 
L 77.2416 279.024392 
L 77.59872 278.303377 
L 77.95584 278.441609 
L 78.31296 277.537907 
L 78.67008 276.989844 
L 79.0272 277.043061 
L 79.38432 276.836036 
L 79.74144 275.93785 
L 80.09856 275.633155 
L 80.45568 276.368772 
L 81.16992 274.461749 
L 81.52704 274.310537 
L 81.88416 274.890399 
L 82.5984 273.171904 
L 82.95552 273.022964 
L 83.66976 273.721265 
L 84.02688 272.939895 
L 84.384 272.877917 
L 84.74112 271.236326 
L 85.09824 270.834284 
L 86.1696 271.460873 
L 86.52672 271.335296 
L 86.88384 270.40174 
L 87.24096 270.069463 
L 87.59808 269.315026 
L 87.9552 269.712201 
L 88.31232 267.989163 
L 88.66944 269.309834 
L 89.02656 268.84549 
L 89.38368 267.471927 
L 89.7408 268.42333 
L 90.09792 267.869102 
L 90.45504 266.868377 
L 90.81216 267.242513 
L 91.16928 265.978952 
L 91.5264 266.514035 
L 91.88352 264.930203 
L 92.24064 265.492219 
L 92.59776 265.524992 
L 93.312 263.850952 
L 93.66912 265.155723 
L 94.02624 264.729669 
L 94.38336 263.800332 
L 94.74048 263.633869 
L 95.0976 262.28951 
L 95.45472 263.051411 
L 95.81184 261.296573 
L 96.16896 261.783632 
L 96.52608 262.040627 
L 96.8832 261.206041 
L 97.24032 261.756375 
L 97.59744 260.890313 
L 97.95456 261.494836 
L 98.31168 260.057025 
L 98.6688 259.691325 
L 99.02592 259.696193 
L 99.38304 258.431009 
L 99.74016 259.213353 
L 100.09728 257.551644 
L 100.4544 259.577105 
L 100.81152 259.06928 
L 101.16864 258.039675 
L 101.52576 256.204689 
L 101.88288 256.742043 
L 102.24 257.687605 
L 102.59712 257.265444 
L 102.95424 255.589457 
L 103.31136 256.624578 
L 103.66848 256.204364 
L 104.0256 254.096158 
L 104.38272 256.054775 
L 104.73984 252.99906 
L 105.09696 253.402725 
L 105.45408 252.974399 
L 105.8112 254.982338 
L 106.88256 251.558328 
L 107.23968 251.932464 
L 107.95392 251.784822 
L 108.31104 252.44678 
L 108.66816 251.258176 
L 109.02528 251.842905 
L 109.3824 250.585834 
L 109.73952 250.678638 
L 110.09664 250.352851 
L 110.45376 250.867491 
L 110.81088 248.089863 
L 111.168 248.335177 
L 111.52512 248.427007 
L 111.88224 247.01191 
L 112.23936 248.129775 
L 112.59648 248.048977 
L 112.9536 246.144226 
L 113.31072 245.444627 
L 113.66784 245.738939 
L 114.02496 247.548291 
L 114.38208 245.5092 
L 114.7392 246.817541 
L 115.45344 244.019471 
L 115.81056 245.284654 
L 116.16768 245.36967 
L 116.5248 244.649629 
L 116.88192 243.265033 
L 117.23904 245.035122 
L 117.59616 244.799867 
L 117.95328 243.605747 
L 118.3104 241.331402 
L 118.66752 241.896662 
L 119.02464 243.636249 
L 119.38176 242.893169 
L 119.73888 240.342359 
L 120.45312 240.060702 
L 120.81024 238.594336 
L 121.16736 238.663127 
L 121.52448 241.517659 
L 121.8816 240.785287 
L 122.23872 240.52894 
L 122.59584 240.781717 
L 122.95296 238.047571 
L 123.31008 236.892065 
L 123.6672 239.895862 
L 124.02432 236.074353 
L 124.38144 237.601074 
L 124.73856 237.323961 
L 125.09568 237.257765 
L 125.4528 236.360877 
L 125.80992 236.59029 
L 126.16704 236.001343 
L 126.52416 236.571146 
L 126.88128 236.321613 
L 127.2384 236.541942 
L 127.59552 236.037685 
L 127.95264 233.155572 
L 128.30976 235.225489 
L 128.66688 235.127818 
L 129.024 231.229404 
L 129.38112 230.591459 
L 129.73824 232.781436 
L 130.09536 230.145611 
L 130.45248 232.203845 
L 130.8096 230.728069 
L 131.16672 231.019135 
L 131.88096 229.747462 
L 132.23808 231.428641 
L 132.5952 231.110966 
L 132.95232 229.964221 
L 133.30944 231.626579 
L 133.66656 227.492262 
L 134.02368 231.191439 
L 134.3808 227.075618 
L 134.73792 225.769874 
L 135.09504 225.795508 
L 135.80928 229.672181 
L 136.1664 225.667335 
L 136.52352 228.460863 
L 136.88064 227.485448 
L 137.23776 228.363191 
L 137.59488 223.293048 
L 137.952 223.516296 
L 138.30912 227.081135 
L 138.66624 226.900719 
L 139.02336 224.204862 
L 139.38048 224.197724 
L 139.7376 225.535917 
L 140.09472 224.66369 
L 140.45184 224.429409 
L 140.80896 220.343116 
L 141.16608 224.308699 
L 141.5232 224.067279 
L 141.88032 222.770296 
L 142.23744 219.209351 
L 142.59456 223.237884 
L 142.95168 221.47818 
L 143.3088 220.491408 
L 143.66592 218.497097 
L 144.02304 217.989272 
L 144.38016 218.92088 
L 144.73728 218.171959 
L 145.0944 218.321549 
L 145.45152 221.369151 
L 145.80864 216.387269 
L 146.52288 219.952431 
L 146.88 215.133118 
L 147.59424 219.364781 
L 147.95136 215.809029 
L 148.30848 216.144551 
L 148.6656 217.574575 
L 149.02272 215.744131 
L 149.37984 212.60048 
L 149.73696 216.355469 
L 150.4512 215.981657 
L 150.80832 215.443654 
L 151.16544 211.981679 
L 151.52256 211.213613 
L 152.2368 214.091832 
L 152.95104 212.213689 
L 153.30816 213.385744 
L 153.66528 210.08439 
L 154.0224 211.096472 
L 154.37952 209.090156 
L 154.73664 211.599755 
L 155.09376 209.262459 
L 155.45088 208.877291 
L 155.808 211.745775 
L 156.16512 209.778722 
L 156.52224 206.132437 
L 156.87936 208.83965 
L 157.23648 208.057955 
L 157.5936 205.148585 
L 158.30784 210.438733 
L 158.66496 210.264806 
L 159.02208 205.763168 
L 159.3792 209.148888 
L 159.73632 204.641733 
L 160.09344 209.075229 
L 160.45056 202.826865 
L 160.80768 206.79699 
L 161.1648 207.075402 
L 161.52192 205.692105 
L 161.87904 206.788554 
L 162.59328 203.514458 
L 162.9504 206.001343 
L 163.30752 204.62129 
L 163.66464 206.087657 
L 164.02176 199.395716 
L 164.37888 200.641106 
L 164.736 199.246127 
L 165.09312 203.70331 
L 165.80736 202.499455 
L 166.16448 199.063764 
L 166.87872 201.985789 
L 167.23584 203.122799 
L 167.59296 201.680445 
L 167.95008 198.251567 
L 168.3072 197.457218 
L 168.66432 201.781036 
L 169.02144 196.985735 
L 169.37856 196.079112 
L 169.73568 199.697491 
L 170.0928 195.255883 
L 170.44992 200.398712 
L 170.80704 195.863002 
L 171.16416 196.248496 
L 171.8784 193.521813 
L 172.23552 198.430036 
L 172.59264 191.456439 
L 172.94976 193.172014 
L 173.30688 197.314118 
L 173.664 192.935136 
L 174.02112 194.773368 
L 174.37824 191.247468 
L 174.73536 190.182819 
L 175.09248 193.552315 
L 175.4496 192.949089 
L 175.80672 193.90828 
L 176.16384 190.772416 
L 176.87808 193.144107 
L 177.2352 187.213418 
L 177.59232 192.124887 
L 177.94944 187.759209 
L 178.30656 188.406241 
L 178.66368 190.583239 
L 179.0208 186.172133 
L 179.37792 191.27148 
L 179.73504 184.991316 
L 180.09216 188.858903 
L 180.44928 189.976768 
L 181.16352 190.304827 
L 181.52064 188.139835 
L 181.87776 189.623724 
L 182.23488 186.948635 
L 182.592 190.087095 
L 182.94912 186.141306 
L 183.30624 184.053867 
L 183.66336 188.988374 
L 184.02048 187.825405 
L 184.3776 182.778949 
L 184.73472 182.193895 
L 185.09184 184.404964 
L 185.44896 181.490727 
L 185.80608 185.63997 
L 186.1632 184.695382 
L 186.52032 185.190228 
L 186.87744 179.226766 
L 187.9488 184.022716 
L 188.30592 180.46599 
L 188.66304 184.710633 
L 189.02016 183.062228 
L 189.37728 177.190596 
L 189.7344 183.912065 
L 190.09152 182.724759 
L 190.44864 183.036918 
L 190.80576 176.396247 
L 191.52 177.919723 
L 192.23424 174.824745 
L 192.94848 178.048221 
L 193.3056 175.450361 
L 193.66272 179.4432 
L 194.01984 179.242017 
L 194.37696 173.377848 
L 194.73408 178.762746 
L 195.0912 176.009455 
L 195.44832 175.181035 
L 195.80544 173.409323 
L 196.16256 177.851905 
L 196.51968 171.681094 
L 196.8768 171.246927 
L 197.23392 169.764012 
L 197.59104 176.920946 
L 197.94816 169.369433 
L 198.30528 174.471052 
L 198.6624 170.547329 
L 199.01952 173.684166 
L 199.37664 168.064662 
L 199.73376 174.052786 
L 200.09088 175.106402 
L 200.448 170.624557 
L 201.16224 173.623811 
L 201.51936 167.571114 
L 201.87648 172.070806 
L 202.2336 169.878557 
L 202.59072 171.799533 
L 202.94784 165.0229 
L 203.30496 167.741146 
L 203.66208 167.185621 
L 204.0192 166.023949 
L 204.37632 162.915992 
L 204.73344 166.934791 
L 205.09056 166.200147 
L 205.44768 170.607035 
L 205.8048 164.705225 
L 206.16192 167.706101 
L 206.51904 166.308851 
L 206.87616 160.406068 
L 207.23328 165.459338 
L 207.5904 167.867048 
L 207.94752 161.299062 
L 208.30464 167.037654 
L 208.66176 162.312766 
L 209.01888 164.241206 
L 209.376 163.312842 
L 209.73312 161.607976 
L 210.09024 163.116202 
L 210.44736 158.955926 
L 210.80448 160.76041 
L 211.1616 158.990322 
L 211.51872 165.417479 
L 211.87584 156.106911 
L 212.23296 161.015783 
L 212.59008 158.181046 
L 212.9472 161.302307 
L 213.30432 161.914294 
L 213.66144 154.152512 
L 214.01856 154.117143 
L 214.37568 154.451691 
L 214.7328 162.704749 
L 215.08992 155.700975 
L 215.44704 157.361061 
L 215.80416 160.851592 
L 216.16128 158.580167 
L 216.5184 159.160678 
L 216.87552 153.504832 
L 217.23264 158.140484 
L 217.58976 151.645509 
L 217.94688 157.708265 
L 218.304 153.720942 
L 218.66112 156.724414 
L 219.01824 151.046502 
L 219.37536 154.234932 
L 219.73248 154.118441 
L 220.0896 149.744651 
L 220.44672 149.54801 
L 220.80384 156.991793 
L 221.16096 152.079351 
L 221.51808 153.287748 
L 221.8752 151.451789 
L 222.23232 151.766219 
L 222.58944 155.38914 
L 222.94656 146.503653 
L 223.30368 153.189753 
L 223.6608 149.692733 
L 224.01792 151.855453 
L 224.37504 145.394224 
L 224.73216 150.50428 
L 225.08928 149.575917 
L 225.4464 151.900882 
L 225.80352 150.182711 
L 226.16064 151.438809 
L 226.51776 142.602319 
L 226.87488 150.417966 
L 227.232 147.575765 
L 227.58912 147.469008 
L 227.94624 141.436754 
L 228.30336 145.977331 
L 228.66048 148.906171 
L 229.0176 150.082444 
L 229.37472 145.867329 
L 229.73184 147.241866 
L 230.08896 139.341527 
L 230.8032 143.61797 
L 231.16032 138.689953 
L 231.51744 139.594629 
L 231.87456 142.288863 
L 232.23168 137.420227 
L 232.5888 144.909762 
L 232.94592 139.884073 
L 233.66016 145.452957 
L 234.01728 137.057772 
L 234.73152 143.68157 
L 235.08864 144.887697 
L 235.44576 136.507439 
L 235.80288 136.017784 
L 236.16 136.901368 
L 236.51712 139.951891 
L 236.87424 133.814178 
L 237.23136 133.023074 
L 238.30272 140.948073 
L 238.65984 139.582623 
L 239.01696 132.039871 
L 239.37408 137.579226 
L 239.7312 135.646569 
L 240.08832 136.307553 
L 240.44544 139.472621 
L 240.80256 139.703333 
L 241.15968 139.025475 
L 241.5168 135.211104 
L 241.87392 134.336606 
L 242.23104 136.572012 
L 242.58816 129.592898 
L 242.94528 132.678791 
L 243.3024 134.526108 
L 243.65952 127.091736 
L 244.01664 130.206507 
L 244.37376 131.255256 
L 244.73088 136.499002 
L 245.088 134.298965 
L 245.44512 130.53846 
L 246.15936 134.911276 
L 246.51648 133.525058 
L 246.8736 133.531548 
L 247.23072 124.721991 
L 247.58784 131.795206 
L 247.94496 129.913169 
L 248.30208 125.077631 
L 248.6592 127.917561 
L 249.01632 126.020921 
L 249.37344 131.717654 
L 249.73056 130.104618 
L 250.08768 132.257279 
L 250.4448 122.926592 
L 250.80192 125.727583 
L 251.15904 120.365724 
L 251.51616 129.736323 
L 251.87328 120.088934 
L 252.2304 120.248907 
L 252.58752 128.781675 
L 252.94464 118.536253 
L 253.30176 118.797143 
L 253.65888 118.810771 
L 254.016 129.544549 
L 254.37312 125.450145 
L 254.73024 126.74583 
L 255.08736 120.912812 
L 255.44448 127.089789 
L 255.8016 118.805255 
L 256.15872 121.290193 
L 256.51584 121.975839 
L 256.87296 120.16811 
L 257.23008 120.602276 
L 257.5872 117.363549 
L 257.94432 121.224322 
L 258.30144 122.342836 
L 259.01568 115.717416 
L 259.3728 120.454634 
L 259.72992 115.040207 
L 260.08704 114.836752 
L 260.44416 119.988018 
L 260.80128 120.311858 
L 261.1584 118.462594 
L 261.51552 112.393024 
L 261.87264 111.435132 
L 262.22976 120.913137 
L 262.58688 113.606614 
L 262.944 120.041559 
L 263.65824 112.379071 
L 264.01536 118.061201 
L 264.37248 119.831614 
L 264.7296 113.283098 
L 265.08672 114.512587 
L 265.44384 116.22297 
L 265.80096 114.100486 
L 266.15808 119.174199 
L 266.5152 118.645931 
L 266.87232 112.074051 
L 267.22944 116.973838 
L 267.58656 114.612206 
L 267.94368 110.263726 
L 268.3008 107.657104 
L 268.65792 108.855118 
L 269.01504 113.124098 
L 269.37216 111.603542 
L 269.72928 104.843458 
L 270.44352 112.932325 
L 270.80064 114.835779 
L 271.15776 101.85978 
L 271.51488 102.202116 
L 271.872 109.647196 
L 272.22912 104.899595 
L 272.58624 111.146012 
L 272.94336 103.811583 
L 273.30048 106.363041 
L 273.6576 103.474438 
L 274.01472 102.073619 
L 274.37184 105.644298 
L 274.72896 101.886064 
L 275.08608 105.105646 
L 275.4432 102.138516 
L 275.80032 110.364642 
L 276.15744 109.116332 
L 276.51456 112.406977 
L 276.87168 106.202095 
L 277.58592 110.492491 
L 277.94304 108.578978 
L 278.30016 100.421644 
L 278.65728 103.43193 
L 279.0144 101.344491 
L 279.37152 108.332042 
L 279.72864 98.726188 
L 280.08576 104.309025 
L 280.44288 102.411736 
L 280.8 109.865578 
L 281.15712 98.762531 
L 281.51424 107.156093 
L 281.87136 109.567697 
L 282.22848 97.09206 
L 282.5856 100.043939 
L 282.94272 96.798398 
L 283.29984 96.644914 
L 283.65696 100.091963 
L 284.01408 96.924624 
L 284.3712 103.256382 
L 284.72832 104.534869 
L 285.08544 97.179997 
L 285.44256 107.966018 
L 285.79968 96.427831 
L 286.87104 100.915192 
L 287.22816 100.022198 
L 287.58528 94.993589 
L 287.9424 106.775143 
L 288.29952 95.154535 
L 289.01376 95.838883 
L 289.37088 98.312789 
L 289.728 105.747161 
L 290.08512 102.975699 
L 290.44224 104.569914 
L 290.79936 96.53037 
L 291.15648 93.705367 
L 291.5136 96.700077 
L 291.87072 104.888562 
L 292.22784 100.659819 
L 292.58496 100.641972 
L 292.94208 95.382327 
L 293.65632 101.487267 
L 294.01344 93.755662 
L 294.72768 98.004849 
L 295.0848 97.545372 
L 295.44192 96.300631 
L 295.79904 93.797522 
L 296.15616 94.93583 
L 296.51328 94.874501 
L 296.8704 103.099978 
L 297.58464 98.303703 
L 297.94176 98.317332 
L 298.29888 100.053349 
L 298.656 99.322275 
L 299.01312 91.449842 
L 299.37024 101.049531 
L 300.4416 90.744403 
L 300.79872 103.051304 
L 301.15584 104.037103 
L 301.51296 94.762877 
L 301.87008 100.525481 
L 302.2272 94.53249 
L 302.58432 101.705648 
L 302.94144 101.971729 
L 303.29856 99.139912 
L 303.65568 93.783569 
L 304.0128 96.046556 
L 304.36992 92.771162 
L 304.72704 98.085322 
L 305.08416 100.34182 
L 305.44128 91.831117 
L 305.7984 93.548963 
L 306.15552 88.982102 
L 306.51264 101.113131 
L 306.86976 101.704025 
L 307.22688 89.333848 
L 307.584 98.556156 
L 307.94112 90.840452 
L 308.29824 101.098529 
L 308.65536 94.384198 
L 309.01248 96.10107 
L 309.3696 99.913494 
L 309.72672 94.387118 
L 310.08384 99.962167 
L 310.44096 92.332777 
L 310.79808 98.98513 
L 311.1552 88.924018 
L 311.51232 93.217659 
L 311.86944 91.519607 
L 312.22656 97.379882 
L 312.58368 89.045377 
L 312.9408 88.255246 
L 313.29792 91.988819 
L 313.65504 92.939897 
L 314.01216 85.630777 
L 314.36928 92.130621 
L 314.7264 94.03018 
L 315.08352 90.137932 
L 315.44064 96.032279 
L 315.79776 87.593613 
L 316.15488 89.259216 
L 316.512 93.801091 
L 316.86912 86.325184 
L 317.22624 92.592369 
L 317.58336 93.776105 
L 317.94048 96.224052 
L 318.2976 91.60073 
L 318.65472 95.359288 
L 319.01184 91.831766 
L 319.36896 84.890618 
L 319.72608 86.060401 
L 320.0832 86.307986 
L 320.44032 84.020338 
L 320.79744 95.967705 
L 321.15456 85.918275 
L 321.51168 83.313276 
L 322.22592 87.100389 
L 322.58304 82.815834 
L 322.94016 92.814644 
L 323.29728 91.136386 
L 323.6544 92.20071 
L 324.01152 85.104132 
L 324.36864 95.294066 
L 324.72576 83.700391 
L 325.08288 82.794742 
L 325.44 90.339765 
L 325.79712 94.598685 
L 326.15424 86.83301 
L 326.51136 83.427171 
L 326.86848 89.574295 
L 327.2256 84.326655 
L 327.58272 93.153086 
L 328.65408 92.378206 
L 329.0112 80.886096 
L 329.36832 82.851203 
L 330.08256 92.122184 
L 330.43968 86.895961 
L 330.7968 89.082369 
L 331.15392 79.993751 
L 331.51104 90.714225 
L 331.86816 79.823394 
L 332.22528 80.36951 
L 332.93952 93.139458 
L 333.29664 89.277712 
L 333.65376 87.545588 
L 334.01088 84.69852 
L 334.368 87.462844 
L 334.72512 86.002318 
L 335.08224 92.023864 
L 335.43936 82.465385 
L 335.79648 78.645174 
L 336.1536 86.846314 
L 336.51072 80.300069 
L 336.86784 85.923142 
L 337.22496 79.568995 
L 337.58208 81.242386 
L 337.9392 81.890066 
L 338.29632 78.547503 
L 338.65344 82.143817 
L 339.01056 80.104402 
L 339.36768 87.811345 
L 339.7248 85.634671 
L 340.08192 86.580882 
L 340.43904 78.980371 
L 340.79616 89.509072 
L 341.15328 80.299096 
L 341.5104 80.180657 
L 341.86752 88.536254 
L 342.22464 80.63916 
L 342.58176 79.563479 
L 342.93888 87.392105 
L 343.296 76.419178 
L 343.65312 79.410644 
L 344.01024 83.721808 
L 344.36736 89.618425 
L 344.72448 81.817056 
L 345.0816 79.62286 
L 345.43872 76.681365 
L 345.79584 87.075079 
L 346.15296 76.258232 
L 346.51008 74.647467 
L 346.8672 89.023637 
L 347.22432 75.358747 
L 347.58144 74.415133 
L 347.93856 76.539888 
L 348.29568 80.599573 
L 348.6528 88.032322 
L 349.00992 76.468825 
L 349.36704 73.931969 
L 349.72416 82.232727 
L 350.08128 82.525416 
L 350.4384 86.555896 
L 350.79552 73.240807 
L 351.15264 76.707325 
L 351.50976 82.527038 
L 351.86688 84.184854 
L 352.224 81.267047 
L 352.58112 83.083213 
L 352.93824 74.48068 
L 353.29536 74.113033 
L 353.65248 72.708644 
L 354.0096 76.678445 
L 354.36672 79.300318 
L 354.72384 83.765938 
L 355.08096 82.474471 
L 355.43808 80.016141 
L 355.7952 70.904809 
L 356.15232 84.931828 
L 356.50944 84.459372 
L 356.86656 76.488943 
L 357.22368 78.160063 
L 357.5808 78.711045 
L 357.93792 84.669316 
L 358.29504 76.31956 
L 358.65216 77.694096 
L 359.00928 79.751033 
L 359.3664 84.233852 
L 360.08064 71.69494 
L 360.43776 71.770546 
L 360.79488 72.767052 
L 361.152 82.023756 
L 361.50912 80.754678 
L 361.86624 69.531895 
L 362.22336 70.339224 
L 362.58048 80.203047 
L 362.9376 70.890207 
L 363.29472 79.347044 
L 363.65184 83.636467 
L 364.00896 79.797435 
L 364.36608 68.503913 
L 364.7232 72.571385 
L 365.08032 68.961119 
L 365.43744 73.129507 
L 365.79456 73.848899 
L 366.15168 82.934597 
L 366.5088 77.050634 
L 366.86592 75.243878 
L 367.22304 82.069833 
L 367.58016 67.794904 
L 367.93728 69.878125 
L 368.2944 67.679711 
L 369.00864 81.295926 
L 369.36576 80.803676 
L 369.72288 75.585241 
L 370.08 77.808316 
L 370.43712 80.93477 
L 370.79424 66.451844 
L 371.15136 68.158657 
L 371.50848 72.010992 
L 371.8656 67.112179 
L 372.22272 69.74184 
L 372.57984 74.666288 
L 372.93696 70.81168 
L 373.29408 70.362263 
L 373.6512 69.363161 
L 374.00832 77.127214 
L 374.36544 71.730309 
L 374.72256 79.762715 
L 375.07968 79.49566 
L 375.4368 71.289328 
L 376.15104 76.001561 
L 376.86528 73.824238 
L 377.2224 74.36646 
L 377.57952 65.062705 
L 378.29376 76.518147 
L 378.65088 65.640296 
L 379.008 64.390039 
L 379.36512 75.452849 
L 379.72224 75.021279 
L 380.07936 63.02978 
L 380.43648 72.102174 
L 380.7936 65.516341 
L 381.15072 63.120637 
L 381.50784 64.104164 
L 381.86496 75.63002 
L 382.22208 70.799999 
L 382.5792 64.264462 
L 382.93632 72.664838 
L 383.29344 65.518288 
L 383.65056 76.12292 
L 384.3648 66.323021 
L 384.72192 76.632043 
L 385.07904 66.369423 
L 385.43616 67.345162 
L 385.79328 62.785765 
L 386.1504 66.538807 
L 386.50752 62.567059 
L 386.86464 77.181728 
L 387.22176 75.334735 
L 387.57888 76.022328 
L 387.936 66.265911 
L 388.29312 69.043214 
L 388.65024 66.134493 
L 389.00736 73.913473 
L 389.36448 62.141329 
L 389.7216 74.318111 
L 390.07872 66.500841 
L 390.43584 73.336206 
L 390.79296 66.172783 
L 391.15008 65.10716 
L 391.5072 63.296186 
L 391.86432 67.345162 
L 392.22144 59.553528 
L 392.57856 75.189689 
L 392.93568 67.361711 
L 393.2928 63.756636 
L 393.64992 65.824606 
L 394.00704 72.028839 
L 394.36416 61.045854 
L 394.72128 74.516698 
L 395.0784 69.078584 
L 395.43552 69.47446 
L 395.79264 61.383322 
L 396.14976 63.374712 
L 396.50688 66.733825 
L 396.864 60.580861 
L 397.22112 57.973265 
L 397.57824 62.56933 
L 397.93536 60.62856 
L 398.6496 71.807213 
L 399.00672 59.374734 
L 399.36384 68.178451 
L 399.72096 67.691717 
L 400.07808 68.659993 
L 400.4352 61.309988 
L 400.79232 68.289101 
L 401.14944 61.234057 
L 401.50656 71.689424 
L 401.86368 66.776657 
L 402.2208 68.973125 
L 402.57792 67.91529 
L 402.93504 68.989349 
L 403.29216 67.830274 
L 403.64928 67.678737 
L 404.0064 68.502291 
L 404.36352 72.287457 
L 405.07776 55.320566 
L 405.43488 71.654379 
L 405.792 59.068416 
L 406.14912 58.559617 
L 406.50624 66.888606 
L 406.86336 61.38819 
L 407.22048 61.758107 
L 407.5776 61.706189 
L 407.93472 59.897162 
L 408.29184 56.683745 
L 408.64896 68.366005 
L 409.00608 55.831961 
L 409.3632 62.98857 
L 409.72032 65.613363 
L 410.07744 62.158851 
L 410.43456 61.71852 
L 410.79168 56.835606 
L 411.1488 65.484541 
L 411.50592 67.930216 
L 411.86304 67.067724 
L 412.22016 53.568 
L 412.57728 66.071542 
L 412.9344 58.645931 
L 413.29152 64.733998 
L 413.64864 62.916209 
L 414.00576 53.913905 
L 414.36288 68.318305 
L 414.72 66.142605 
L 414.72 66.142605 
" style="fill:none;stroke:#000080;stroke-linecap:square;stroke-width:0.5;"/>
   </g>
   <g id="patch_3">
    <path d="M 57.6 307.584 
L 57.6 41.472 
" style="fill:none;stroke:#000000;stroke-linecap:square;stroke-linejoin:miter;stroke-width:0.8;"/>
   </g>
   <g id="patch_4">
    <path d="M 414.72 307.584 
L 414.72 41.472 
" style="fill:none;stroke:#000000;stroke-linecap:square;stroke-linejoin:miter;stroke-width:0.8;"/>
   </g>
   <g id="patch_5">
    <path d="M 57.6 307.584 
L 414.72 307.584 
" style="fill:none;stroke:#000000;stroke-linecap:square;stroke-linejoin:miter;stroke-width:0.8;"/>
   </g>
   <g id="patch_6">
    <path d="M 57.6 41.472 
L 414.72 41.472 
" style="fill:none;stroke:#000000;stroke-linecap:square;stroke-linejoin:miter;stroke-width:0.8;"/>
   </g>
   <g id="text_17">
    <!-- Test -->
    <defs>
     <path d="M -0.296875 72.90625 
L 61.375 72.90625 
L 61.375 64.59375 
L 35.5 64.59375 
L 35.5 0 
L 25.59375 0 
L 25.59375 64.59375 
L -0.296875 64.59375 
z
" id="DejaVuSans-54"/>
    </defs>
    <g transform="translate(223.341563 35.472)scale(0.12 -0.12)">
     <use xlink:href="#DejaVuSans-54"/>
     <use x="60.818359" xlink:href="#DejaVuSans-65"/>
     <use x="122.341797" xlink:href="#DejaVuSans-73"/>
     <use x="174.441406" xlink:href="#DejaVuSans-74"/>
    </g>
   </g>
   <g id="legend_1">
    <g id="patch_7">
     <path d="M 64.6 64.150125 
L 306.276563 64.150125 
Q 308.276563 64.150125 308.276563 62.150125 
L 308.276563 48.472 
Q 308.276563 46.472 306.276563 46.472 
L 64.6 46.472 
Q 62.6 46.472 62.6 48.472 
L 62.6 62.150125 
Q 62.6 64.150125 64.6 64.150125 
z
" style="fill:#ffffff;opacity:0.8;stroke:#cccccc;stroke-linejoin:miter;"/>
    </g>
    <g id="line2d_30">
     <path d="M 66.6 54.570438 
L 86.6 54.570438 
" style="fill:none;stroke:#000080;stroke-linecap:square;stroke-width:0.5;"/>
    </g>
    <g id="line2d_31"/>
    <g id="text_18">
     <!-- Successful download requests per second -->
     <g transform="translate(94.6 58.070438)scale(0.1 -0.1)">
      <use xlink:href="#DejaVuSans-53"/>
      <use x="63.476562" xlink:href="#DejaVuSans-75"/>
      <use x="126.855469" xlink:href="#DejaVuSans-63"/>
      <use x="181.835938" xlink:href="#DejaVuSans-63"/>
      <use x="236.816406" xlink:href="#DejaVuSans-65"/>
      <use x="298.339844" xlink:href="#DejaVuSans-73"/>
      <use x="350.439453" xlink:href="#DejaVuSans-73"/>
      <use x="402.539062" xlink:href="#DejaVuSans-66"/>
      <use x="437.744141" xlink:href="#DejaVuSans-75"/>
      <use x="501.123047" xlink:href="#DejaVuSans-6c"/>
      <use x="528.90625" xlink:href="#DejaVuSans-20"/>
      <use x="560.693359" xlink:href="#DejaVuSans-64"/>
      <use x="624.169922" xlink:href="#DejaVuSans-6f"/>
      <use x="685.351562" xlink:href="#DejaVuSans-77"/>
      <use x="767.138672" xlink:href="#DejaVuSans-6e"/>
      <use x="830.517578" xlink:href="#DejaVuSans-6c"/>
      <use x="858.300781" xlink:href="#DejaVuSans-6f"/>
      <use x="919.482422" xlink:href="#DejaVuSans-61"/>
      <use x="980.761719" xlink:href="#DejaVuSans-64"/>
      <use x="1044.238281" xlink:href="#DejaVuSans-20"/>
      <use x="1076.025391" xlink:href="#DejaVuSans-72"/>
      <use x="1117.107422" xlink:href="#DejaVuSans-65"/>
      <use x="1178.630859" xlink:href="#DejaVuSans-71"/>
      <use x="1242.107422" xlink:href="#DejaVuSans-75"/>
      <use x="1305.486328" xlink:href="#DejaVuSans-65"/>
      <use x="1367.009766" xlink:href="#DejaVuSans-73"/>
      <use x="1419.109375" xlink:href="#DejaVuSans-74"/>
      <use x="1458.318359" xlink:href="#DejaVuSans-73"/>
      <use x="1510.417969" xlink:href="#DejaVuSans-20"/>
      <use x="1542.205078" xlink:href="#DejaVuSans-70"/>
      <use x="1605.681641" xlink:href="#DejaVuSans-65"/>
      <use x="1667.205078" xlink:href="#DejaVuSans-72"/>
      <use x="1708.318359" xlink:href="#DejaVuSans-20"/>
      <use x="1740.105469" xlink:href="#DejaVuSans-73"/>
      <use x="1792.205078" xlink:href="#DejaVuSans-65"/>
      <use x="1853.728516" xlink:href="#DejaVuSans-63"/>
      <use x="1908.708984" xlink:href="#DejaVuSans-6f"/>
      <use x="1969.890625" xlink:href="#DejaVuSans-6e"/>
      <use x="2033.269531" xlink:href="#DejaVuSans-64"/>
     </g>
    </g>
   </g>
  </g>
 </g>
 <defs>
  <clipPath id="p2e37f0b8df">
   <rect height="266.112" width="357.12" x="57.6" y="41.472"/>
  </clipPath>
 </defs>
</svg>
