<?xml version="1.0" encoding="utf-8" standalone="no"?>
<!DOCTYPE svg PUBLIC "-//W3C//DTD SVG 1.1//EN"
  "http://www.w3.org/Graphics/SVG/1.1/DTD/svg11.dtd">
<!-- Created with matplotlib (http://matplotlib.org/) -->
<svg height="345pt" version="1.1" viewBox="0 0 460 345" width="460pt" xmlns="http://www.w3.org/2000/svg" xmlns:xlink="http://www.w3.org/1999/xlink">
 <defs>
  <style type="text/css">
*{stroke-linecap:butt;stroke-linejoin:round;}
  </style>
 </defs>
 <g id="figure_1">
  <g id="patch_1">
   <path d="M 0 345.6 
L 460.8 345.6 
L 460.8 0 
L 0 0 
z
" style="fill:#ffffff;"/>
  </g>
  <g id="axes_1">
   <g id="patch_2">
    <path d="M 57.6 307.584 
L 414.72 307.584 
L 414.72 41.472 
L 57.6 41.472 
z
" style="fill:#ffffff;"/>
   </g>
   <g id="matplotlib.axis_1">
    <g id="xtick_1">
     <g id="line2d_1">
      <path clip-path="url(#p99fe7e4ee0)" d="M 57.6 307.584 
L 57.6 41.472 
" style="fill:none;stroke:#b0b0b0;stroke-linecap:square;stroke-width:0.8;"/>
     </g>
     <g id="line2d_2">
      <defs>
       <path d="M 0 0 
L 0 3.5 
" id="m5eb61fb901" style="stroke:#000000;stroke-width:0.8;"/>
      </defs>
      <g>
       <use style="stroke:#000000;stroke-width:0.8;" x="57.6" xlink:href="#m5eb61fb901" y="307.584"/>
      </g>
     </g>
     <g id="text_1">
      <!-- 0 -->
      <defs>
       <path d="M 31.78125 66.40625 
Q 24.171875 66.40625 20.328125 58.90625 
Q 16.5 51.421875 16.5 36.375 
Q 16.5 21.390625 20.328125 13.890625 
Q 24.171875 6.390625 31.78125 6.390625 
Q 39.453125 6.390625 43.28125 13.890625 
Q 47.125 21.390625 47.125 36.375 
Q 47.125 51.421875 43.28125 58.90625 
Q 39.453125 66.40625 31.78125 66.40625 
M 31.78125 74.21875 
Q 44.046875 74.21875 50.515625 64.515625 
Q 56.984375 54.828125 56.984375 36.375 
Q 56.984375 17.96875 50.515625 8.265625 
Q 44.046875 -1.421875 31.78125 -1.421875 
Q 19.53125 -1.421875 13.0625 8.265625 
Q 6.59375 17.96875 6.59375 36.375 
Q 6.59375 54.828125 13.0625 64.515625 
Q 19.53125 74.21875 31.78125 74.21875 
" id="DejaVuSans-30"/>
      </defs>
      <g transform="translate(54.41875 322.182437)scale(0.1 -0.1)">
       <use xlink:href="#DejaVuSans-30"/>
      </g>
     </g>
    </g>
    <g id="xtick_2">
     <g id="line2d_3">
      <path clip-path="url(#p99fe7e4ee0)" d="M 129.024 307.584 
L 129.024 41.472 
" style="fill:none;stroke:#b0b0b0;stroke-linecap:square;stroke-width:0.8;"/>
     </g>
     <g id="line2d_4">
      <g>
       <use style="stroke:#000000;stroke-width:0.8;" x="129.024" xlink:href="#m5eb61fb901" y="307.584"/>
      </g>
     </g>
     <g id="text_2">
      <!-- 200 -->
      <defs>
       <path d="M 19.1875 8.296875 
L 53.609375 8.296875 
L 53.609375 0 
L 7.328125 0 
L 7.328125 8.296875 
Q 12.9375 14.109375 22.625 23.890625 
Q 32.328125 33.6875 34.8125 36.53125 
Q 39.546875 41.84375 41.421875 45.53125 
Q 43.3125 49.21875 43.3125 52.78125 
Q 43.3125 58.59375 39.234375 62.25 
Q 35.15625 65.921875 28.609375 65.921875 
Q 23.96875 65.921875 18.8125 64.3125 
Q 13.671875 62.703125 7.8125 59.421875 
L 7.8125 69.390625 
Q 13.765625 71.78125 18.9375 73 
Q 24.125 74.21875 28.421875 74.21875 
Q 39.75 74.21875 46.484375 68.546875 
Q 53.21875 62.890625 53.21875 53.421875 
Q 53.21875 48.921875 51.53125 44.890625 
Q 49.859375 40.875 45.40625 35.40625 
Q 44.1875 33.984375 37.640625 27.21875 
Q 31.109375 20.453125 19.1875 8.296875 
" id="DejaVuSans-32"/>
      </defs>
      <g transform="translate(119.48025 322.182437)scale(0.1 -0.1)">
       <use xlink:href="#DejaVuSans-32"/>
       <use x="63.623047" xlink:href="#DejaVuSans-30"/>
       <use x="127.246094" xlink:href="#DejaVuSans-30"/>
      </g>
     </g>
    </g>
    <g id="xtick_3">
     <g id="line2d_5">
      <path clip-path="url(#p99fe7e4ee0)" d="M 200.448 307.584 
L 200.448 41.472 
" style="fill:none;stroke:#b0b0b0;stroke-linecap:square;stroke-width:0.8;"/>
     </g>
     <g id="line2d_6">
      <g>
       <use style="stroke:#000000;stroke-width:0.8;" x="200.448" xlink:href="#m5eb61fb901" y="307.584"/>
      </g>
     </g>
     <g id="text_3">
      <!-- 400 -->
      <defs>
       <path d="M 37.796875 64.3125 
L 12.890625 25.390625 
L 37.796875 25.390625 
z
M 35.203125 72.90625 
L 47.609375 72.90625 
L 47.609375 25.390625 
L 58.015625 25.390625 
L 58.015625 17.1875 
L 47.609375 17.1875 
L 47.609375 0 
L 37.796875 0 
L 37.796875 17.1875 
L 4.890625 17.1875 
L 4.890625 26.703125 
z
" id="DejaVuSans-34"/>
      </defs>
      <g transform="translate(190.90425 322.182437)scale(0.1 -0.1)">
       <use xlink:href="#DejaVuSans-34"/>
       <use x="63.623047" xlink:href="#DejaVuSans-30"/>
       <use x="127.246094" xlink:href="#DejaVuSans-30"/>
      </g>
     </g>
    </g>
    <g id="xtick_4">
     <g id="line2d_7">
      <path clip-path="url(#p99fe7e4ee0)" d="M 271.872 307.584 
L 271.872 41.472 
" style="fill:none;stroke:#b0b0b0;stroke-linecap:square;stroke-width:0.8;"/>
     </g>
     <g id="line2d_8">
      <g>
       <use style="stroke:#000000;stroke-width:0.8;" x="271.872" xlink:href="#m5eb61fb901" y="307.584"/>
      </g>
     </g>
     <g id="text_4">
      <!-- 600 -->
      <defs>
       <path d="M 33.015625 40.375 
Q 26.375 40.375 22.484375 35.828125 
Q 18.609375 31.296875 18.609375 23.390625 
Q 18.609375 15.53125 22.484375 10.953125 
Q 26.375 6.390625 33.015625 6.390625 
Q 39.65625 6.390625 43.53125 10.953125 
Q 47.40625 15.53125 47.40625 23.390625 
Q 47.40625 31.296875 43.53125 35.828125 
Q 39.65625 40.375 33.015625 40.375 
M 52.59375 71.296875 
L 52.59375 62.3125 
Q 48.875 64.0625 45.09375 64.984375 
Q 41.3125 65.921875 37.59375 65.921875 
Q 27.828125 65.921875 22.671875 59.328125 
Q 17.53125 52.734375 16.796875 39.40625 
Q 19.671875 43.65625 24.015625 45.921875 
Q 28.375 48.1875 33.59375 48.1875 
Q 44.578125 48.1875 50.953125 41.515625 
Q 57.328125 34.859375 57.328125 23.390625 
Q 57.328125 12.15625 50.6875 5.359375 
Q 44.046875 -1.421875 33.015625 -1.421875 
Q 20.359375 -1.421875 13.671875 8.265625 
Q 6.984375 17.96875 6.984375 36.375 
Q 6.984375 53.65625 15.1875 63.9375 
Q 23.390625 74.21875 37.203125 74.21875 
Q 40.921875 74.21875 44.703125 73.484375 
Q 48.484375 72.75 52.59375 71.296875 
" id="DejaVuSans-36"/>
      </defs>
      <g transform="translate(262.32825 322.182437)scale(0.1 -0.1)">
       <use xlink:href="#DejaVuSans-36"/>
       <use x="63.623047" xlink:href="#DejaVuSans-30"/>
       <use x="127.246094" xlink:href="#DejaVuSans-30"/>
      </g>
     </g>
    </g>
    <g id="xtick_5">
     <g id="line2d_9">
      <path clip-path="url(#p99fe7e4ee0)" d="M 343.296 307.584 
L 343.296 41.472 
" style="fill:none;stroke:#b0b0b0;stroke-linecap:square;stroke-width:0.8;"/>
     </g>
     <g id="line2d_10">
      <g>
       <use style="stroke:#000000;stroke-width:0.8;" x="343.296" xlink:href="#m5eb61fb901" y="307.584"/>
      </g>
     </g>
     <g id="text_5">
      <!-- 800 -->
      <defs>
       <path d="M 31.78125 34.625 
Q 24.75 34.625 20.71875 30.859375 
Q 16.703125 27.09375 16.703125 20.515625 
Q 16.703125 13.921875 20.71875 10.15625 
Q 24.75 6.390625 31.78125 6.390625 
Q 38.8125 6.390625 42.859375 10.171875 
Q 46.921875 13.96875 46.921875 20.515625 
Q 46.921875 27.09375 42.890625 30.859375 
Q 38.875 34.625 31.78125 34.625 
M 21.921875 38.8125 
Q 15.578125 40.375 12.03125 44.71875 
Q 8.5 49.078125 8.5 55.328125 
Q 8.5 64.0625 14.71875 69.140625 
Q 20.953125 74.21875 31.78125 74.21875 
Q 42.671875 74.21875 48.875 69.140625 
Q 55.078125 64.0625 55.078125 55.328125 
Q 55.078125 49.078125 51.53125 44.71875 
Q 48 40.375 41.703125 38.8125 
Q 48.828125 37.15625 52.796875 32.3125 
Q 56.78125 27.484375 56.78125 20.515625 
Q 56.78125 9.90625 50.3125 4.234375 
Q 43.84375 -1.421875 31.78125 -1.421875 
Q 19.734375 -1.421875 13.25 4.234375 
Q 6.78125 9.90625 6.78125 20.515625 
Q 6.78125 27.484375 10.78125 32.3125 
Q 14.796875 37.15625 21.921875 38.8125 
M 18.3125 54.390625 
Q 18.3125 48.734375 21.84375 45.5625 
Q 25.390625 42.390625 31.78125 42.390625 
Q 38.140625 42.390625 41.71875 45.5625 
Q 45.3125 48.734375 45.3125 54.390625 
Q 45.3125 60.0625 41.71875 63.234375 
Q 38.140625 66.40625 31.78125 66.40625 
Q 25.390625 66.40625 21.84375 63.234375 
Q 18.3125 60.0625 18.3125 54.390625 
" id="DejaVuSans-38"/>
      </defs>
      <g transform="translate(333.75225 322.182437)scale(0.1 -0.1)">
       <use xlink:href="#DejaVuSans-38"/>
       <use x="63.623047" xlink:href="#DejaVuSans-30"/>
       <use x="127.246094" xlink:href="#DejaVuSans-30"/>
      </g>
     </g>
    </g>
    <g id="xtick_6">
     <g id="line2d_11">
      <path clip-path="url(#p99fe7e4ee0)" d="M 414.72 307.584 
L 414.72 41.472 
" style="fill:none;stroke:#b0b0b0;stroke-linecap:square;stroke-width:0.8;"/>
     </g>
     <g id="line2d_12">
      <g>
       <use style="stroke:#000000;stroke-width:0.8;" x="414.72" xlink:href="#m5eb61fb901" y="307.584"/>
      </g>
     </g>
     <g id="text_6">
      <!-- 1000 -->
      <defs>
       <path d="M 12.40625 8.296875 
L 28.515625 8.296875 
L 28.515625 63.921875 
L 10.984375 60.40625 
L 10.984375 69.390625 
L 28.421875 72.90625 
L 38.28125 72.90625 
L 38.28125 8.296875 
L 54.390625 8.296875 
L 54.390625 0 
L 12.40625 0 
z
" id="DejaVuSans-31"/>
      </defs>
      <g transform="translate(401.995 322.182437)scale(0.1 -0.1)">
       <use xlink:href="#DejaVuSans-31"/>
       <use x="63.623047" xlink:href="#DejaVuSans-30"/>
       <use x="127.246094" xlink:href="#DejaVuSans-30"/>
       <use x="190.869141" xlink:href="#DejaVuSans-30"/>
      </g>
     </g>
    </g>
    <g id="text_7">
     <!-- Number of clients -->
     <defs>
      <path d="M 9.8125 72.90625 
L 23.09375 72.90625 
L 55.421875 11.921875 
L 55.421875 72.90625 
L 64.984375 72.90625 
L 64.984375 0 
L 51.703125 0 
L 19.390625 60.984375 
L 19.390625 0 
L 9.8125 0 
z
" id="DejaVuSans-4e"/>
      <path d="M 8.5 21.578125 
L 8.5 54.6875 
L 17.484375 54.6875 
L 17.484375 21.921875 
Q 17.484375 14.15625 20.5 10.265625 
Q 23.53125 6.390625 29.59375 6.390625 
Q 36.859375 6.390625 41.078125 11.03125 
Q 45.3125 15.671875 45.3125 23.6875 
L 45.3125 54.6875 
L 54.296875 54.6875 
L 54.296875 0 
L 45.3125 0 
L 45.3125 8.40625 
Q 42.046875 3.421875 37.71875 1 
Q 33.40625 -1.421875 27.6875 -1.421875 
Q 18.265625 -1.421875 13.375 4.4375 
Q 8.5 10.296875 8.5 21.578125 
M 31.109375 56 
z
" id="DejaVuSans-75"/>
      <path d="M 52 44.1875 
Q 55.375 50.25 60.0625 53.125 
Q 64.75 56 71.09375 56 
Q 79.640625 56 84.28125 50.015625 
Q 88.921875 44.046875 88.921875 33.015625 
L 88.921875 0 
L 79.890625 0 
L 79.890625 32.71875 
Q 79.890625 40.578125 77.09375 44.375 
Q 74.3125 48.1875 68.609375 48.1875 
Q 61.625 48.1875 57.5625 43.546875 
Q 53.515625 38.921875 53.515625 30.90625 
L 53.515625 0 
L 44.484375 0 
L 44.484375 32.71875 
Q 44.484375 40.625 41.703125 44.40625 
Q 38.921875 48.1875 33.109375 48.1875 
Q 26.21875 48.1875 22.15625 43.53125 
Q 18.109375 38.875 18.109375 30.90625 
L 18.109375 0 
L 9.078125 0 
L 9.078125 54.6875 
L 18.109375 54.6875 
L 18.109375 46.1875 
Q 21.1875 51.21875 25.484375 53.609375 
Q 29.78125 56 35.6875 56 
Q 41.65625 56 45.828125 52.96875 
Q 50 49.953125 52 44.1875 
" id="DejaVuSans-6d"/>
      <path d="M 48.6875 27.296875 
Q 48.6875 37.203125 44.609375 42.84375 
Q 40.53125 48.484375 33.40625 48.484375 
Q 26.265625 48.484375 22.1875 42.84375 
Q 18.109375 37.203125 18.109375 27.296875 
Q 18.109375 17.390625 22.1875 11.75 
Q 26.265625 6.109375 33.40625 6.109375 
Q 40.53125 6.109375 44.609375 11.75 
Q 48.6875 17.390625 48.6875 27.296875 
M 18.109375 46.390625 
Q 20.953125 51.265625 25.265625 53.625 
Q 29.59375 56 35.59375 56 
Q 45.5625 56 51.78125 48.09375 
Q 58.015625 40.1875 58.015625 27.296875 
Q 58.015625 14.40625 51.78125 6.484375 
Q 45.5625 -1.421875 35.59375 -1.421875 
Q 29.59375 -1.421875 25.265625 0.953125 
Q 20.953125 3.328125 18.109375 8.203125 
L 18.109375 0 
L 9.078125 0 
L 9.078125 75.984375 
L 18.109375 75.984375 
z
" id="DejaVuSans-62"/>
      <path d="M 56.203125 29.59375 
L 56.203125 25.203125 
L 14.890625 25.203125 
Q 15.484375 15.921875 20.484375 11.0625 
Q 25.484375 6.203125 34.421875 6.203125 
Q 39.59375 6.203125 44.453125 7.46875 
Q 49.3125 8.734375 54.109375 11.28125 
L 54.109375 2.78125 
Q 49.265625 0.734375 44.1875 -0.34375 
Q 39.109375 -1.421875 33.890625 -1.421875 
Q 20.796875 -1.421875 13.15625 6.1875 
Q 5.515625 13.8125 5.515625 26.8125 
Q 5.515625 40.234375 12.765625 48.109375 
Q 20.015625 56 32.328125 56 
Q 43.359375 56 49.78125 48.890625 
Q 56.203125 41.796875 56.203125 29.59375 
M 47.21875 32.234375 
Q 47.125 39.59375 43.09375 43.984375 
Q 39.0625 48.390625 32.421875 48.390625 
Q 24.90625 48.390625 20.390625 44.140625 
Q 15.875 39.890625 15.1875 32.171875 
z
" id="DejaVuSans-65"/>
      <path d="M 41.109375 46.296875 
Q 39.59375 47.171875 37.8125 47.578125 
Q 36.03125 48 33.890625 48 
Q 26.265625 48 22.1875 43.046875 
Q 18.109375 38.09375 18.109375 28.8125 
L 18.109375 0 
L 9.078125 0 
L 9.078125 54.6875 
L 18.109375 54.6875 
L 18.109375 46.1875 
Q 20.953125 51.171875 25.484375 53.578125 
Q 30.03125 56 36.53125 56 
Q 37.453125 56 38.578125 55.875 
Q 39.703125 55.765625 41.0625 55.515625 
z
" id="DejaVuSans-72"/>
      <path id="DejaVuSans-20"/>
      <path d="M 30.609375 48.390625 
Q 23.390625 48.390625 19.1875 42.75 
Q 14.984375 37.109375 14.984375 27.296875 
Q 14.984375 17.484375 19.15625 11.84375 
Q 23.34375 6.203125 30.609375 6.203125 
Q 37.796875 6.203125 41.984375 11.859375 
Q 46.1875 17.53125 46.1875 27.296875 
Q 46.1875 37.015625 41.984375 42.703125 
Q 37.796875 48.390625 30.609375 48.390625 
M 30.609375 56 
Q 42.328125 56 49.015625 48.375 
Q 55.71875 40.765625 55.71875 27.296875 
Q 55.71875 13.875 49.015625 6.21875 
Q 42.328125 -1.421875 30.609375 -1.421875 
Q 18.84375 -1.421875 12.171875 6.21875 
Q 5.515625 13.875 5.515625 27.296875 
Q 5.515625 40.765625 12.171875 48.375 
Q 18.84375 56 30.609375 56 
" id="DejaVuSans-6f"/>
      <path d="M 37.109375 75.984375 
L 37.109375 68.5 
L 28.515625 68.5 
Q 23.6875 68.5 21.796875 66.546875 
Q 19.921875 64.59375 19.921875 59.515625 
L 19.921875 54.6875 
L 34.71875 54.6875 
L 34.71875 47.703125 
L 19.921875 47.703125 
L 19.921875 0 
L 10.890625 0 
L 10.890625 47.703125 
L 2.296875 47.703125 
L 2.296875 54.6875 
L 10.890625 54.6875 
L 10.890625 58.5 
Q 10.890625 67.625 15.140625 71.796875 
Q 19.390625 75.984375 28.609375 75.984375 
z
" id="DejaVuSans-66"/>
      <path d="M 48.78125 52.59375 
L 48.78125 44.1875 
Q 44.96875 46.296875 41.140625 47.34375 
Q 37.3125 48.390625 33.40625 48.390625 
Q 24.65625 48.390625 19.8125 42.84375 
Q 14.984375 37.3125 14.984375 27.296875 
Q 14.984375 17.28125 19.8125 11.734375 
Q 24.65625 6.203125 33.40625 6.203125 
Q 37.3125 6.203125 41.140625 7.25 
Q 44.96875 8.296875 48.78125 10.40625 
L 48.78125 2.09375 
Q 45.015625 0.34375 40.984375 -0.53125 
Q 36.96875 -1.421875 32.421875 -1.421875 
Q 20.0625 -1.421875 12.78125 6.34375 
Q 5.515625 14.109375 5.515625 27.296875 
Q 5.515625 40.671875 12.859375 48.328125 
Q 20.21875 56 33.015625 56 
Q 37.15625 56 41.109375 55.140625 
Q 45.0625 54.296875 48.78125 52.59375 
" id="DejaVuSans-63"/>
      <path d="M 9.421875 75.984375 
L 18.40625 75.984375 
L 18.40625 0 
L 9.421875 0 
z
" id="DejaVuSans-6c"/>
      <path d="M 9.421875 54.6875 
L 18.40625 54.6875 
L 18.40625 0 
L 9.421875 0 
z
M 9.421875 75.984375 
L 18.40625 75.984375 
L 18.40625 64.59375 
L 9.421875 64.59375 
z
" id="DejaVuSans-69"/>
      <path d="M 54.890625 33.015625 
L 54.890625 0 
L 45.90625 0 
L 45.90625 32.71875 
Q 45.90625 40.484375 42.875 44.328125 
Q 39.84375 48.1875 33.796875 48.1875 
Q 26.515625 48.1875 22.3125 43.546875 
Q 18.109375 38.921875 18.109375 30.90625 
L 18.109375 0 
L 9.078125 0 
L 9.078125 54.6875 
L 18.109375 54.6875 
L 18.109375 46.1875 
Q 21.34375 51.125 25.703125 53.5625 
Q 30.078125 56 35.796875 56 
Q 45.21875 56 50.046875 50.171875 
Q 54.890625 44.34375 54.890625 33.015625 
" id="DejaVuSans-6e"/>
      <path d="M 18.3125 70.21875 
L 18.3125 54.6875 
L 36.8125 54.6875 
L 36.8125 47.703125 
L 18.3125 47.703125 
L 18.3125 18.015625 
Q 18.3125 11.328125 20.140625 9.421875 
Q 21.96875 7.515625 27.59375 7.515625 
L 36.8125 7.515625 
L 36.8125 0 
L 27.59375 0 
Q 17.1875 0 13.234375 3.875 
Q 9.28125 7.765625 9.28125 18.015625 
L 9.28125 47.703125 
L 2.6875 47.703125 
L 2.6875 54.6875 
L 9.28125 54.6875 
L 9.28125 70.21875 
z
" id="DejaVuSans-74"/>
      <path d="M 44.28125 53.078125 
L 44.28125 44.578125 
Q 40.484375 46.53125 36.375 47.5 
Q 32.28125 48.484375 27.875 48.484375 
Q 21.1875 48.484375 17.84375 46.4375 
Q 14.5 44.390625 14.5 40.28125 
Q 14.5 37.15625 16.890625 35.375 
Q 19.28125 33.59375 26.515625 31.984375 
L 29.59375 31.296875 
Q 39.15625 29.25 43.1875 25.515625 
Q 47.21875 21.78125 47.21875 15.09375 
Q 47.21875 7.46875 41.1875 3.015625 
Q 35.15625 -1.421875 24.609375 -1.421875 
Q 20.21875 -1.421875 15.453125 -0.5625 
Q 10.6875 0.296875 5.421875 2 
L 5.421875 11.28125 
Q 10.40625 8.6875 15.234375 7.390625 
Q 20.0625 6.109375 24.8125 6.109375 
Q 31.15625 6.109375 34.5625 8.28125 
Q 37.984375 10.453125 37.984375 14.40625 
Q 37.984375 18.0625 35.515625 20.015625 
Q 33.0625 21.96875 24.703125 23.78125 
L 21.578125 24.515625 
Q 13.234375 26.265625 9.515625 29.90625 
Q 5.8125 33.546875 5.8125 39.890625 
Q 5.8125 47.609375 11.28125 51.796875 
Q 16.75 56 26.8125 56 
Q 31.78125 56 36.171875 55.265625 
Q 40.578125 54.546875 44.28125 53.078125 
" id="DejaVuSans-73"/>
     </defs>
     <g transform="translate(191.738906 335.860562)scale(0.1 -0.1)">
      <use xlink:href="#DejaVuSans-4e"/>
      <use x="74.804688" xlink:href="#DejaVuSans-75"/>
      <use x="138.183594" xlink:href="#DejaVuSans-6d"/>
      <use x="235.595703" xlink:href="#DejaVuSans-62"/>
      <use x="299.072266" xlink:href="#DejaVuSans-65"/>
      <use x="360.595703" xlink:href="#DejaVuSans-72"/>
      <use x="401.708984" xlink:href="#DejaVuSans-20"/>
      <use x="433.496094" xlink:href="#DejaVuSans-6f"/>
      <use x="494.677734" xlink:href="#DejaVuSans-66"/>
      <use x="529.882812" xlink:href="#DejaVuSans-20"/>
      <use x="561.669922" xlink:href="#DejaVuSans-63"/>
      <use x="616.650391" xlink:href="#DejaVuSans-6c"/>
      <use x="644.433594" xlink:href="#DejaVuSans-69"/>
      <use x="672.216797" xlink:href="#DejaVuSans-65"/>
      <use x="733.740234" xlink:href="#DejaVuSans-6e"/>
      <use x="797.119141" xlink:href="#DejaVuSans-74"/>
      <use x="836.328125" xlink:href="#DejaVuSans-73"/>
     </g>
    </g>
   </g>
   <g id="matplotlib.axis_2">
    <g id="ytick_1">
     <g id="line2d_13">
      <path clip-path="url(#p99fe7e4ee0)" d="M 57.6 296.317577 
L 414.72 296.317577 
" style="fill:none;stroke:#b0b0b0;stroke-linecap:square;stroke-width:0.8;"/>
     </g>
     <g id="line2d_14">
      <defs>
       <path d="M 0 0 
L -3.5 0 
" id="m53643525f1" style="stroke:#000000;stroke-width:0.8;"/>
      </defs>
      <g>
       <use style="stroke:#000000;stroke-width:0.8;" x="57.6" xlink:href="#m53643525f1" y="296.317577"/>
      </g>
     </g>
     <g id="text_8">
      <!-- 0 -->
      <g transform="translate(44.2375 300.116796)scale(0.1 -0.1)">
       <use xlink:href="#DejaVuSans-30"/>
      </g>
     </g>
    </g>
    <g id="ytick_2">
     <g id="line2d_15">
      <path clip-path="url(#p99fe7e4ee0)" d="M 57.6 252.838691 
L 414.72 252.838691 
" style="fill:none;stroke:#b0b0b0;stroke-linecap:square;stroke-width:0.8;"/>
     </g>
     <g id="line2d_16">
      <g>
       <use style="stroke:#000000;stroke-width:0.8;" x="57.6" xlink:href="#m53643525f1" y="252.838691"/>
      </g>
     </g>
     <g id="text_9">
      <!-- 50 -->
      <defs>
       <path d="M 10.796875 72.90625 
L 49.515625 72.90625 
L 49.515625 64.59375 
L 19.828125 64.59375 
L 19.828125 46.734375 
Q 21.96875 47.46875 24.109375 47.828125 
Q 26.265625 48.1875 28.421875 48.1875 
Q 40.625 48.1875 47.75 41.5 
Q 54.890625 34.8125 54.890625 23.390625 
Q 54.890625 11.625 47.5625 5.09375 
Q 40.234375 -1.421875 26.90625 -1.421875 
Q 22.3125 -1.421875 17.546875 -0.640625 
Q 12.796875 0.140625 7.71875 1.703125 
L 7.71875 11.625 
Q 12.109375 9.234375 16.796875 8.0625 
Q 21.484375 6.890625 26.703125 6.890625 
Q 35.15625 6.890625 40.078125 11.328125 
Q 45.015625 15.765625 45.015625 23.390625 
Q 45.015625 31 40.078125 35.4375 
Q 35.15625 39.890625 26.703125 39.890625 
Q 22.75 39.890625 18.8125 39.015625 
Q 14.890625 38.140625 10.796875 36.28125 
z
" id="DejaVuSans-35"/>
      </defs>
      <g transform="translate(37.875 256.63791)scale(0.1 -0.1)">
       <use xlink:href="#DejaVuSans-35"/>
       <use x="63.623047" xlink:href="#DejaVuSans-30"/>
      </g>
     </g>
    </g>
    <g id="ytick_3">
     <g id="line2d_17">
      <path clip-path="url(#p99fe7e4ee0)" d="M 57.6 209.359805 
L 414.72 209.359805 
" style="fill:none;stroke:#b0b0b0;stroke-linecap:square;stroke-width:0.8;"/>
     </g>
     <g id="line2d_18">
      <g>
       <use style="stroke:#000000;stroke-width:0.8;" x="57.6" xlink:href="#m53643525f1" y="209.359805"/>
      </g>
     </g>
     <g id="text_10">
      <!-- 100 -->
      <g transform="translate(31.5125 213.159024)scale(0.1 -0.1)">
       <use xlink:href="#DejaVuSans-31"/>
       <use x="63.623047" xlink:href="#DejaVuSans-30"/>
       <use x="127.246094" xlink:href="#DejaVuSans-30"/>
      </g>
     </g>
    </g>
    <g id="ytick_4">
     <g id="line2d_19">
      <path clip-path="url(#p99fe7e4ee0)" d="M 57.6 165.880919 
L 414.72 165.880919 
" style="fill:none;stroke:#b0b0b0;stroke-linecap:square;stroke-width:0.8;"/>
     </g>
     <g id="line2d_20">
      <g>
       <use style="stroke:#000000;stroke-width:0.8;" x="57.6" xlink:href="#m53643525f1" y="165.880919"/>
      </g>
     </g>
     <g id="text_11">
      <!-- 150 -->
      <g transform="translate(31.5125 169.680138)scale(0.1 -0.1)">
       <use xlink:href="#DejaVuSans-31"/>
       <use x="63.623047" xlink:href="#DejaVuSans-35"/>
       <use x="127.246094" xlink:href="#DejaVuSans-30"/>
      </g>
     </g>
    </g>
    <g id="ytick_5">
     <g id="line2d_21">
      <path clip-path="url(#p99fe7e4ee0)" d="M 57.6 122.402033 
L 414.72 122.402033 
" style="fill:none;stroke:#b0b0b0;stroke-linecap:square;stroke-width:0.8;"/>
     </g>
     <g id="line2d_22">
      <g>
       <use style="stroke:#000000;stroke-width:0.8;" x="57.6" xlink:href="#m53643525f1" y="122.402033"/>
      </g>
     </g>
     <g id="text_12">
      <!-- 200 -->
      <g transform="translate(31.5125 126.201252)scale(0.1 -0.1)">
       <use xlink:href="#DejaVuSans-32"/>
       <use x="63.623047" xlink:href="#DejaVuSans-30"/>
       <use x="127.246094" xlink:href="#DejaVuSans-30"/>
      </g>
     </g>
    </g>
    <g id="ytick_6">
     <g id="line2d_23">
      <path clip-path="url(#p99fe7e4ee0)" d="M 57.6 78.923147 
L 414.72 78.923147 
" style="fill:none;stroke:#b0b0b0;stroke-linecap:square;stroke-width:0.8;"/>
     </g>
     <g id="line2d_24">
      <g>
       <use style="stroke:#000000;stroke-width:0.8;" x="57.6" xlink:href="#m53643525f1" y="78.923147"/>
      </g>
     </g>
     <g id="text_13">
      <!-- 250 -->
      <g transform="translate(31.5125 82.722366)scale(0.1 -0.1)">
       <use xlink:href="#DejaVuSans-32"/>
       <use x="63.623047" xlink:href="#DejaVuSans-35"/>
       <use x="127.246094" xlink:href="#DejaVuSans-30"/>
      </g>
     </g>
    </g>
    <g id="text_14">
     <!-- Successful download requests per second -->
     <defs>
      <path d="M 53.515625 70.515625 
L 53.515625 60.890625 
Q 47.90625 63.578125 42.921875 64.890625 
Q 37.9375 66.21875 33.296875 66.21875 
Q 25.25 66.21875 20.875 63.09375 
Q 16.5 59.96875 16.5 54.203125 
Q 16.5 49.359375 19.40625 46.890625 
Q 22.3125 44.4375 30.421875 42.921875 
L 36.375 41.703125 
Q 47.40625 39.59375 52.65625 34.296875 
Q 57.90625 29 57.90625 20.125 
Q 57.90625 9.515625 50.796875 4.046875 
Q 43.703125 -1.421875 29.984375 -1.421875 
Q 24.8125 -1.421875 18.96875 -0.25 
Q 13.140625 0.921875 6.890625 3.21875 
L 6.890625 13.375 
Q 12.890625 10.015625 18.65625 8.296875 
Q 24.421875 6.59375 29.984375 6.59375 
Q 38.421875 6.59375 43.015625 9.90625 
Q 47.609375 13.234375 47.609375 19.390625 
Q 47.609375 24.75 44.3125 27.78125 
Q 41.015625 30.8125 33.5 32.328125 
L 27.484375 33.5 
Q 16.453125 35.6875 11.515625 40.375 
Q 6.59375 45.0625 6.59375 53.421875 
Q 6.59375 63.09375 13.40625 68.65625 
Q 20.21875 74.21875 32.171875 74.21875 
Q 37.3125 74.21875 42.625 73.28125 
Q 47.953125 72.359375 53.515625 70.515625 
" id="DejaVuSans-53"/>
      <path d="M 45.40625 46.390625 
L 45.40625 75.984375 
L 54.390625 75.984375 
L 54.390625 0 
L 45.40625 0 
L 45.40625 8.203125 
Q 42.578125 3.328125 38.25 0.953125 
Q 33.9375 -1.421875 27.875 -1.421875 
Q 17.96875 -1.421875 11.734375 6.484375 
Q 5.515625 14.40625 5.515625 27.296875 
Q 5.515625 40.1875 11.734375 48.09375 
Q 17.96875 56 27.875 56 
Q 33.9375 56 38.25 53.625 
Q 42.578125 51.265625 45.40625 46.390625 
M 14.796875 27.296875 
Q 14.796875 17.390625 18.875 11.75 
Q 22.953125 6.109375 30.078125 6.109375 
Q 37.203125 6.109375 41.296875 11.75 
Q 45.40625 17.390625 45.40625 27.296875 
Q 45.40625 37.203125 41.296875 42.84375 
Q 37.203125 48.484375 30.078125 48.484375 
Q 22.953125 48.484375 18.875 42.84375 
Q 14.796875 37.203125 14.796875 27.296875 
" id="DejaVuSans-64"/>
      <path d="M 4.203125 54.6875 
L 13.1875 54.6875 
L 24.421875 12.015625 
L 35.59375 54.6875 
L 46.1875 54.6875 
L 57.421875 12.015625 
L 68.609375 54.6875 
L 77.59375 54.6875 
L 63.28125 0 
L 52.6875 0 
L 40.921875 44.828125 
L 29.109375 0 
L 18.5 0 
z
" id="DejaVuSans-77"/>
      <path d="M 34.28125 27.484375 
Q 23.390625 27.484375 19.1875 25 
Q 14.984375 22.515625 14.984375 16.5 
Q 14.984375 11.71875 18.140625 8.90625 
Q 21.296875 6.109375 26.703125 6.109375 
Q 34.1875 6.109375 38.703125 11.40625 
Q 43.21875 16.703125 43.21875 25.484375 
L 43.21875 27.484375 
z
M 52.203125 31.203125 
L 52.203125 0 
L 43.21875 0 
L 43.21875 8.296875 
Q 40.140625 3.328125 35.546875 0.953125 
Q 30.953125 -1.421875 24.3125 -1.421875 
Q 15.921875 -1.421875 10.953125 3.296875 
Q 6 8.015625 6 15.921875 
Q 6 25.140625 12.171875 29.828125 
Q 18.359375 34.515625 30.609375 34.515625 
L 43.21875 34.515625 
L 43.21875 35.40625 
Q 43.21875 41.609375 39.140625 45 
Q 35.0625 48.390625 27.6875 48.390625 
Q 23 48.390625 18.546875 47.265625 
Q 14.109375 46.140625 10.015625 43.890625 
L 10.015625 52.203125 
Q 14.9375 54.109375 19.578125 55.046875 
Q 24.21875 56 28.609375 56 
Q 40.484375 56 46.34375 49.84375 
Q 52.203125 43.703125 52.203125 31.203125 
" id="DejaVuSans-61"/>
      <path d="M 14.796875 27.296875 
Q 14.796875 17.390625 18.875 11.75 
Q 22.953125 6.109375 30.078125 6.109375 
Q 37.203125 6.109375 41.296875 11.75 
Q 45.40625 17.390625 45.40625 27.296875 
Q 45.40625 37.203125 41.296875 42.84375 
Q 37.203125 48.484375 30.078125 48.484375 
Q 22.953125 48.484375 18.875 42.84375 
Q 14.796875 37.203125 14.796875 27.296875 
M 45.40625 8.203125 
Q 42.578125 3.328125 38.25 0.953125 
Q 33.9375 -1.421875 27.875 -1.421875 
Q 17.96875 -1.421875 11.734375 6.484375 
Q 5.515625 14.40625 5.515625 27.296875 
Q 5.515625 40.1875 11.734375 48.09375 
Q 17.96875 56 27.875 56 
Q 33.9375 56 38.25 53.625 
Q 42.578125 51.265625 45.40625 46.390625 
L 45.40625 54.6875 
L 54.390625 54.6875 
L 54.390625 -20.796875 
L 45.40625 -20.796875 
z
" id="DejaVuSans-71"/>
      <path d="M 18.109375 8.203125 
L 18.109375 -20.796875 
L 9.078125 -20.796875 
L 9.078125 54.6875 
L 18.109375 54.6875 
L 18.109375 46.390625 
Q 20.953125 51.265625 25.265625 53.625 
Q 29.59375 56 35.59375 56 
Q 45.5625 56 51.78125 48.09375 
Q 58.015625 40.1875 58.015625 27.296875 
Q 58.015625 14.40625 51.78125 6.484375 
Q 45.5625 -1.421875 35.59375 -1.421875 
Q 29.59375 -1.421875 25.265625 0.953125 
Q 20.953125 3.328125 18.109375 8.203125 
M 48.6875 27.296875 
Q 48.6875 37.203125 44.609375 42.84375 
Q 40.53125 48.484375 33.40625 48.484375 
Q 26.265625 48.484375 22.1875 42.84375 
Q 18.109375 37.203125 18.109375 27.296875 
Q 18.109375 17.390625 22.1875 11.75 
Q 26.265625 6.109375 33.40625 6.109375 
Q 40.53125 6.109375 44.609375 11.75 
Q 48.6875 17.390625 48.6875 27.296875 
" id="DejaVuSans-70"/>
     </defs>
     <g transform="translate(25.432812 279.366281)rotate(-90)scale(0.1 -0.1)">
      <use xlink:href="#DejaVuSans-53"/>
      <use x="63.476562" xlink:href="#DejaVuSans-75"/>
      <use x="126.855469" xlink:href="#DejaVuSans-63"/>
      <use x="181.835938" xlink:href="#DejaVuSans-63"/>
      <use x="236.816406" xlink:href="#DejaVuSans-65"/>
      <use x="298.339844" xlink:href="#DejaVuSans-73"/>
      <use x="350.439453" xlink:href="#DejaVuSans-73"/>
      <use x="402.539062" xlink:href="#DejaVuSans-66"/>
      <use x="437.744141" xlink:href="#DejaVuSans-75"/>
      <use x="501.123047" xlink:href="#DejaVuSans-6c"/>
      <use x="528.90625" xlink:href="#DejaVuSans-20"/>
      <use x="560.693359" xlink:href="#DejaVuSans-64"/>
      <use x="624.169922" xlink:href="#DejaVuSans-6f"/>
      <use x="685.351562" xlink:href="#DejaVuSans-77"/>
      <use x="767.138672" xlink:href="#DejaVuSans-6e"/>
      <use x="830.517578" xlink:href="#DejaVuSans-6c"/>
      <use x="858.300781" xlink:href="#DejaVuSans-6f"/>
      <use x="919.482422" xlink:href="#DejaVuSans-61"/>
      <use x="980.761719" xlink:href="#DejaVuSans-64"/>
      <use x="1044.238281" xlink:href="#DejaVuSans-20"/>
      <use x="1076.025391" xlink:href="#DejaVuSans-72"/>
      <use x="1117.107422" xlink:href="#DejaVuSans-65"/>
      <use x="1178.630859" xlink:href="#DejaVuSans-71"/>
      <use x="1242.107422" xlink:href="#DejaVuSans-75"/>
      <use x="1305.486328" xlink:href="#DejaVuSans-65"/>
      <use x="1367.009766" xlink:href="#DejaVuSans-73"/>
      <use x="1419.109375" xlink:href="#DejaVuSans-74"/>
      <use x="1458.318359" xlink:href="#DejaVuSans-73"/>
      <use x="1510.417969" xlink:href="#DejaVuSans-20"/>
      <use x="1542.205078" xlink:href="#DejaVuSans-70"/>
      <use x="1605.681641" xlink:href="#DejaVuSans-65"/>
      <use x="1667.205078" xlink:href="#DejaVuSans-72"/>
      <use x="1708.318359" xlink:href="#DejaVuSans-20"/>
      <use x="1740.105469" xlink:href="#DejaVuSans-73"/>
      <use x="1792.205078" xlink:href="#DejaVuSans-65"/>
      <use x="1853.728516" xlink:href="#DejaVuSans-63"/>
      <use x="1908.708984" xlink:href="#DejaVuSans-6f"/>
      <use x="1969.890625" xlink:href="#DejaVuSans-6e"/>
      <use x="2033.269531" xlink:href="#DejaVuSans-64"/>
     </g>
    </g>
   </g>
   <g id="line2d_25">
    <path clip-path="url(#p99fe7e4ee0)" d="M 57.6 295.488 
L 57.95712 295.461913 
L 59.02848 293.07927 
L 59.74272 291.282722 
L 60.45696 289.744439 
L 61.1712 287.966153 
L 61.52832 287.275708 
L 61.88544 286.253085 
L 62.24256 285.791339 
L 62.9568 283.369565 
L 63.31392 282.932167 
L 63.67104 281.702584 
L 64.02816 280.948661 
L 64.38528 279.861688 
L 64.7424 279.229505 
L 65.09952 278.8695 
L 65.45664 277.725136 
L 65.81376 277.368609 
L 66.17088 275.490321 
L 67.24224 272.986807 
L 67.59936 272.796369 
L 67.95648 271.454611 
L 68.3136 270.980691 
L 68.67072 269.691107 
L 69.02784 270.34503 
L 69.38496 268.093693 
L 69.74208 267.774558 
L 70.0992 267.871951 
L 70.45632 265.262348 
L 70.81344 264.852777 
L 71.17056 265.491917 
L 71.52768 264.157984 
L 71.8848 261.564034 
L 72.24192 262.25187 
L 72.59904 262.221435 
L 72.95616 259.635311 
L 73.31328 259.07965 
L 73.6704 258.077027 
L 74.02752 256.392655 
L 74.38464 255.616122 
L 74.74176 255.959606 
L 75.09888 253.848271 
L 75.456 255.12742 
L 76.17024 251.236059 
L 76.52736 251.923895 
L 77.2416 250.583007 
L 77.59872 250.743878 
L 78.67008 245.105536 
L 79.0272 247.725574 
L 79.38432 243.886389 
L 79.74144 243.675951 
L 80.09856 244.786401 
L 80.45568 244.560311 
L 80.8128 242.066362 
L 81.16992 241.311569 
L 81.88416 237.235858 
L 82.24128 237.148031 
L 82.5984 236.750634 
L 82.95552 237.701952 
L 83.31264 237.928912 
L 83.66976 236.348889 
L 84.02688 235.283656 
L 84.384 233.171452 
L 84.74112 232.644488 
L 85.09824 229.646184 
L 85.45536 229.534878 
L 85.81248 231.237511 
L 86.1696 229.030523 
L 86.88384 226.5644 
L 87.24096 228.411383 
L 87.59808 226.954841 
L 87.9552 227.179192 
L 88.31232 225.852216 
L 88.66944 221.394761 
L 89.38368 224.050451 
L 89.7408 222.481733 
L 90.09792 217.961668 
L 90.45504 220.124308 
L 90.81216 218.888638 
L 91.16928 219.858217 
L 91.5264 219.328644 
L 92.24064 213.462473 
L 92.95488 210.241557 
L 93.312 211.545054 
L 93.66912 211.047656 
L 94.02624 212.091149 
L 94.38336 210.644171 
L 94.74048 206.457155 
L 95.0976 208.251963 
L 95.45472 206.955423 
L 95.81184 203.819725 
L 96.16896 206.571069 
L 96.52608 201.937959 
L 96.8832 201.675347 
L 97.24032 201.93622 
L 97.95456 199.678796 
L 98.31168 203.160586 
L 98.6688 200.628375 
L 99.02592 201.229253 
L 99.38304 199.690101 
L 99.74016 199.438793 
L 100.09728 193.866539 
L 100.4544 193.633492 
L 100.81152 197.645724 
L 101.16864 194.936989 
L 101.52576 194.148282 
L 101.88288 190.526491 
L 102.24 196.300487 
L 102.59712 190.968236 
L 102.95424 192.778697 
L 103.31136 190.643884 
L 103.66848 191.003889 
L 104.0256 191.740421 
L 104.38272 191.712595 
L 105.09696 193.953497 
L 105.45408 191.443895 
L 105.8112 190.375184 
L 106.16832 190.523882 
L 106.52544 186.758611 
L 106.88256 186.546434 
L 107.23968 189.876916 
L 107.5968 190.134311 
L 107.95392 189.613434 
L 108.31104 185.063804 
L 108.66816 186.542955 
L 109.02528 185.66816 
L 109.3824 183.735089 
L 109.73952 186.03947 
L 110.09664 187.162964 
L 110.45376 182.182023 
L 110.81088 186.296865 
L 111.168 182.330721 
L 111.52512 183.446389 
L 111.88224 181.408968 
L 112.23936 181.175922 
L 112.59648 184.500317 
L 112.9536 182.163762 
L 113.31072 187.279488 
L 113.66784 181.457665 
L 114.02496 183.282039 
L 114.38208 179.522854 
L 114.7392 178.99589 
L 115.09632 184.72119 
L 115.45344 185.428157 
L 115.81056 178.034137 
L 116.16768 181.222009 
L 116.5248 181.345489 
L 116.88192 179.139371 
L 117.23904 183.166385 
L 117.95328 175.659321 
L 118.3104 180.815047 
L 118.66752 179.991557 
L 119.02464 175.795844 
L 119.38176 182.174197 
L 119.73888 174.948876 
L 120.096 175.862802 
L 120.81024 180.180255 
L 121.16736 178.195009 
L 121.52448 173.495811 
L 121.8816 177.003688 
L 122.23872 174.400172 
L 122.59584 175.134965 
L 122.95296 174.531478 
L 123.31008 173.434941 
L 123.6672 178.797627 
L 124.02432 172.948847 
L 124.38144 171.25317 
L 124.73856 177.748916 
L 125.4528 171.536653 
L 125.80992 177.269779 
L 126.16704 168.218344 
L 126.52416 167.869643 
L 126.88128 176.307156 
L 127.2384 175.16627 
L 127.59552 174.474086 
L 127.95264 174.42539 
L 128.66688 168.775743 
L 129.024 169.121835 
L 129.38112 168.282693 
L 129.73824 171.724481 
L 130.09536 172.590581 
L 130.45248 167.93747 
L 130.8096 166.432231 
L 131.16672 166.217446 
L 131.52384 166.244403 
L 131.88096 172.614929 
L 132.23808 169.281838 
L 132.5952 167.493986 
L 132.95232 171.791439 
L 133.30944 171.334041 
L 133.66656 167.227895 
L 134.02368 170.963601 
L 134.3808 163.773932 
L 134.73792 162.50261 
L 135.09504 162.27652 
L 135.45216 163.312187 
L 135.80928 161.392159 
L 136.1664 161.766947 
L 136.52352 160.698236 
L 136.88064 166.040921 
L 137.23776 163.362622 
L 137.59488 161.902601 
L 137.952 164.691337 
L 138.30912 163.481754 
L 138.66624 165.680916 
L 139.38048 162.533915 
L 139.7376 162.994791 
L 140.09472 162.603481 
L 140.45184 165.860049 
L 140.80896 164.112198 
L 141.16608 159.646047 
L 141.88032 163.493059 
L 142.23744 161.096503 
L 143.3088 164.648728 
L 143.66592 156.431218 
L 144.02304 161.78173 
L 144.38016 163.104357 
L 144.73728 161.046067 
L 145.0944 159.727787 
L 145.45152 154.438146 
L 145.80864 155.744252 
L 146.16576 163.397405 
L 146.52288 160.517364 
L 146.88 153.191171 
L 147.23712 160.613017 
L 147.59424 159.419087 
L 148.30848 161.753034 
L 148.6656 161.632162 
L 149.02272 151.738977 
L 149.73696 159.749527 
L 150.09408 157.74428 
L 150.4512 154.806847 
L 150.80832 157.266882 
L 151.16544 153.348565 
L 151.52256 158.400812 
L 151.87968 152.410291 
L 152.2368 156.523393 
L 152.59392 149.998082 
L 152.95104 157.383406 
L 153.30816 152.691164 
L 153.66528 152.085069 
L 154.0224 152.213766 
L 154.37952 153.268564 
L 154.73664 157.582539 
L 155.09376 154.818151 
L 155.45088 149.053721 
L 155.808 153.969444 
L 156.16512 150.343304 
L 156.52224 151.988545 
L 156.87936 148.686759 
L 157.23648 155.034676 
L 157.95072 146.64586 
L 158.30784 147.226738 
L 158.66496 150.601569 
L 159.02208 149.922429 
L 159.3792 152.369421 
L 160.09344 147.431958 
L 160.45056 144.821486 
L 160.80768 144.976271 
L 161.1648 147.056301 
L 161.52192 144.885835 
L 161.87904 146.694556 
L 162.23616 146.128461 
L 162.59328 149.396334 
L 162.9504 144.500612 
L 163.30752 147.454567 
L 164.02176 142.751891 
L 164.37888 150.845051 
L 164.736 150.265042 
L 165.09312 145.758891 
L 165.45024 150.265912 
L 165.80736 151.447668 
L 166.16448 148.245013 
L 166.5216 141.197086 
L 166.87872 146.774557 
L 167.23584 148.497191 
L 167.59296 146.668469 
L 167.95008 143.387552 
L 168.3072 145.939763 
L 168.66432 145.454539 
L 169.02144 147.500655 
L 169.73568 138.953575 
L 170.0928 140.670122 
L 170.44992 146.54238 
L 170.80704 147.698919 
L 171.16416 144.211912 
L 171.52128 148.603279 
L 171.8784 140.81795 
L 172.23552 145.851936 
L 172.59264 139.404886 
L 172.94976 145.971068 
L 173.30688 136.971808 
L 173.664 137.240507 
L 174.02112 138.643136 
L 174.37824 145.144099 
L 174.73536 143.910168 
L 175.09248 137.162245 
L 175.4496 139.498801 
L 175.80672 146.262376 
L 176.16384 142.261449 
L 176.52096 139.799675 
L 176.87808 135.657876 
L 177.2352 137.240507 
L 177.59232 143.991039 
L 177.94944 138.591831 
L 178.30656 135.603093 
L 178.66368 134.463946 
L 179.0208 142.387538 
L 179.37792 135.468308 
L 179.73504 137.367466 
L 180.44928 143.47364 
L 180.8064 137.123114 
L 181.16352 143.514511 
L 181.52064 137.724862 
L 181.87776 134.95004 
L 182.23488 135.833531 
L 182.592 138.910966 
L 182.94912 138.070954 
L 183.30624 139.182274 
L 183.66336 136.963982 
L 184.02048 133.327408 
L 184.3776 141.228391 
L 184.73472 130.503889 
L 185.09184 136.931807 
L 185.44896 139.60402 
L 185.80608 131.547382 
L 186.1632 136.950938 
L 186.52032 135.907445 
L 186.87744 133.879589 
L 187.23456 130.771719 
L 187.59168 134.103071 
L 187.9488 131.306509 
L 188.30592 137.925735 
L 188.66304 130.059535 
L 189.02016 139.624889 
L 189.37728 130.519541 
L 189.7344 135.824835 
L 190.09152 135.991794 
L 190.44864 133.251754 
L 190.80576 127.61863 
L 191.16288 133.254363 
L 191.52 127.159493 
L 191.87712 135.480482 
L 192.23424 137.257899 
L 192.59136 127.376887 
L 192.94848 136.703978 
L 193.3056 129.892576 
L 193.66272 136.890937 
L 194.01984 134.834386 
L 194.37696 126.684703 
L 194.73408 129.117782 
L 195.0912 127.900373 
L 195.44832 134.94917 
L 195.80544 130.792589 
L 196.16256 125.004679 
L 196.51968 124.527281 
L 196.8768 125.663819 
L 197.23392 135.633528 
L 197.59104 129.877793 
L 197.94816 127.28993 
L 198.30528 134.353509 
L 198.6624 134.650035 
L 199.01952 129.247349 
L 199.37664 127.452541 
L 199.73376 132.25174 
L 200.09088 127.282973 
L 200.448 133.139579 
L 200.80512 130.015186 
L 201.16224 128.336901 
L 201.51936 131.381293 
L 201.87648 126.438613 
L 202.2336 123.66553 
L 202.59072 125.234248 
L 202.94784 127.958635 
L 203.30496 129.376916 
L 203.66208 132.27261 
L 204.0192 128.928214 
L 204.73344 120.34983 
L 205.09056 124.877721 
L 205.44768 126.291654 
L 205.8048 125.337728 
L 206.16192 122.292466 
L 206.51904 131.088245 
L 207.23328 128.169073 
L 207.5904 123.862924 
L 207.94752 130.558672 
L 208.30464 130.303016 
L 208.66176 125.876866 
L 209.01888 124.421193 
L 209.376 130.221276 
L 210.09024 117.991535 
L 210.44736 117.913273 
L 210.80448 118.31154 
L 211.1616 126.516875 
L 211.51872 129.144739 
L 211.87584 118.321105 
L 212.23296 118.069797 
L 212.59008 120.460266 
L 212.9472 125.749907 
L 213.30432 117.834141 
L 213.66144 116.978477 
L 214.01856 117.094131 
L 214.37568 118.37241 
L 215.08992 124.608152 
L 215.44704 115.549761 
L 215.80416 121.879417 
L 216.16128 124.833372 
L 216.5184 121.822894 
L 216.87552 117.282829 
L 217.23264 120.050695 
L 217.58976 115.896722 
L 217.94688 114.934969 
L 218.304 118.092406 
L 218.66112 118.728067 
L 219.01824 114.41931 
L 219.37536 122.588123 
L 219.73248 114.256699 
L 220.0896 119.314163 
L 220.44672 113.364512 
L 220.80384 122.8203 
L 221.16096 117.892403 
L 221.51808 116.555862 
L 221.8752 116.325424 
L 222.23232 115.334105 
L 222.58944 117.435875 
L 222.94656 124.030752 
L 223.30368 118.513282 
L 223.6608 121.619413 
L 224.01792 112.225365 
L 224.37504 123.305524 
L 224.73216 115.52976 
L 225.08928 113.122769 
L 225.4464 118.666327 
L 225.80352 111.972318 
L 226.51776 113.331468 
L 226.87488 112.789721 
L 227.232 119.935041 
L 227.58912 119.281119 
L 227.94624 112.674937 
L 228.30336 110.329686 
L 228.66048 110.504471 
L 229.0176 119.499383 
L 229.37472 109.468804 
L 229.73184 113.247988 
L 230.08896 119.290684 
L 230.44608 120.920273 
L 230.8032 112.239278 
L 231.16032 117.048043 
L 231.87456 108.543573 
L 232.23168 109.10532 
L 232.5888 108.256612 
L 233.30304 118.711545 
L 233.66016 120.581137 
L 234.01728 111.510572 
L 234.3744 113.668864 
L 235.08864 106.949637 
L 235.44576 117.088913 
L 235.80288 106.760069 
L 236.16 113.392338 
L 236.51712 113.954955 
L 236.87424 115.358454 
L 237.23136 114.672357 
L 237.58848 115.945419 
L 237.9456 114.405396 
L 238.30272 112.288844 
L 238.65984 109.074015 
L 239.01696 114.815837 
L 239.37408 108.145306 
L 239.7312 118.169798 
L 240.08832 117.498484 
L 240.44544 117.28196 
L 241.15968 110.226206 
L 241.5168 117.307177 
L 241.87392 104.872216 
L 242.23104 116.58021 
L 242.58816 115.52976 
L 242.94528 106.276584 
L 243.3024 105.622661 
L 243.65952 103.453935 
L 244.01664 113.436687 
L 244.37376 105.535704 
L 244.73088 104.285251 
L 245.088 116.093247 
L 245.44512 108.65227 
L 245.80224 108.298352 
L 246.15936 102.498269 
L 246.51648 113.458426 
L 246.8736 110.999261 
L 247.23072 106.170495 
L 248.30208 112.971463 
L 248.6592 106.179191 
L 249.01632 111.860142 
L 249.37344 103.773939 
L 249.73056 102.514791 
L 250.08768 101.938261 
L 250.4448 108.194872 
L 250.80192 111.67927 
L 251.15904 109.532283 
L 251.51616 112.350584 
L 251.87328 100.573893 
L 252.58752 109.073146 
L 253.30176 102.59827 
L 253.65888 110.167075 
L 254.37312 110.666212 
L 254.73024 102.112176 
L 255.08736 102.018262 
L 255.44448 109.532283 
L 255.8016 110.192292 
L 256.15872 106.254844 
L 256.51584 111.987101 
L 256.87296 104.579168 
L 257.23008 100.256497 
L 257.5872 108.399223 
L 257.94432 97.778201 
L 258.65856 109.615762 
L 259.01568 100.116495 
L 259.3728 101.377383 
L 259.72992 100.255628 
L 260.08704 98.323426 
L 260.44416 97.407761 
L 260.80128 102.583487 
L 261.1584 101.293904 
L 261.51552 107.976608 
L 261.87264 101.299121 
L 262.22976 96.951232 
L 262.58688 100.646068 
L 262.944 96.995581 
L 263.30112 109.638371 
L 263.65824 105.988754 
L 264.01536 99.495617 
L 264.37248 99.956493 
L 264.7296 96.899927 
L 265.44384 102.51566 
L 265.80096 97.14254 
L 266.15808 98.395601 
L 266.5152 98.2956 
L 266.87232 108.255743 
L 267.22944 95.747737 
L 267.58656 97.811245 
L 268.3008 103.674807 
L 268.65792 99.836491 
L 269.01504 99.24257 
L 269.37216 100.762592 
L 269.72928 97.001668 
L 270.0864 102.303483 
L 270.44352 99.861709 
L 270.80064 100.419978 
L 271.15776 99.413007 
L 271.51488 99.659097 
L 271.872 105.194829 
L 272.22912 104.689605 
L 272.58624 97.116452 
L 272.94336 98.633865 
L 273.30048 96.179917 
L 273.6576 95.554691 
L 274.01472 99.020827 
L 274.37184 91.966813 
L 274.72896 98.588647 
L 275.08608 91.698113 
L 275.4432 98.358209 
L 275.80032 101.623474 
L 276.15744 103.083495 
L 276.51456 100.922594 
L 276.87168 93.97119 
L 277.2288 94.710331 
L 277.58592 94.989465 
L 277.94304 98.426036 
L 278.30016 99.026045 
L 278.65728 92.788564 
L 279.0144 94.540763 
L 279.37152 90.172005 
L 279.72864 103.806114 
L 280.08576 94.622503 
L 280.44288 102.386963 
L 280.8 97.621677 
L 281.15712 96.415573 
L 281.51424 94.585111 
L 281.87136 101.397383 
L 282.22848 95.301644 
L 282.5856 101.179119 
L 282.94272 99.086915 
L 283.29984 98.765172 
L 283.65696 94.516415 
L 284.01408 98.821694 
L 284.3712 95.835564 
L 284.72832 96.460791 
L 285.08544 96.779926 
L 285.44256 99.625184 
L 285.79968 93.33292 
L 286.1568 91.387674 
L 286.51392 101.164337 
L 286.87104 99.689533 
L 287.22816 99.692141 
L 287.58528 98.962566 
L 287.9424 97.836463 
L 288.29952 95.669475 
L 288.65664 99.748664 
L 289.01376 99.311266 
L 289.37088 90.826797 
L 289.728 86.594562 
L 290.08512 91.002451 
L 290.44224 90.133743 
L 290.79936 87.116308 
L 291.15648 90.885058 
L 291.5136 97.943421 
L 291.87072 85.991075 
L 292.22784 95.06251 
L 292.58496 98.815607 
L 292.94208 93.622489 
L 293.2992 85.453676 
L 293.65632 88.439806 
L 294.01344 89.802434 
L 294.37056 91.610286 
L 294.72768 89.939827 
L 295.44192 95.980784 
L 295.79904 90.542445 
L 296.15616 91.452023 
L 296.51328 93.060742 
L 296.8704 84.446705 
L 297.22752 85.458893 
L 297.58464 85.402371 
L 297.94176 87.845884 
L 298.656 97.793853 
L 299.72736 83.763217 
L 300.08448 87.918059 
L 300.4416 88.267629 
L 300.79872 95.49469 
L 301.15584 89.19199 
L 301.51296 93.914667 
L 302.2272 83.116251 
L 302.58432 91.440718 
L 303.65568 84.787579 
L 304.0128 89.842435 
L 304.36992 83.417994 
L 304.72704 85.499763 
L 305.08416 93.452921 
L 305.44128 82.654505 
L 305.7984 96.098177 
L 306.15552 87.777188 
L 306.51264 93.201613 
L 306.86976 81.927538 
L 307.22688 94.46511 
L 307.584 86.262383 
L 307.94112 92.695519 
L 308.29824 85.23976 
L 308.65536 81.34666 
L 309.01248 85.471937 
L 309.3696 80.515344 
L 309.72672 85.402371 
L 310.08384 86.277166 
L 310.44096 94.555546 
L 310.79808 91.537242 
L 311.1552 92.918131 
L 311.51232 82.817116 
L 311.86944 79.939684 
L 312.22656 89.02851 
L 312.58368 90.320702 
L 312.9408 92.802477 
L 313.29792 88.280673 
L 313.65504 82.337109 
L 314.01216 82.243195 
L 314.36928 91.805072 
L 314.7264 87.808492 
L 315.08352 85.731941 
L 315.44064 91.751158 
L 315.79776 92.945957 
L 316.15488 79.078802 
L 316.512 91.62246 
L 316.86912 82.042322 
L 317.22624 81.076222 
L 317.94048 91.039843 
L 318.2976 87.331094 
L 318.65472 90.848536 
L 319.01184 82.545808 
L 319.36896 78.950974 
L 319.72608 86.758042 
L 320.0832 81.517097 
L 320.44032 78.778797 
L 320.79744 85.428458 
L 321.15456 77.854436 
L 321.51168 87.191092 
L 321.8688 88.505894 
L 322.22592 85.658027 
L 322.58304 80.52317 
L 322.94016 80.555345 
L 323.29728 88.08067 
L 323.6544 90.558967 
L 324.01152 87.056308 
L 324.36864 82.189281 
L 324.72576 80.087512 
L 325.08288 78.913582 
L 325.44 89.078945 
L 325.79712 77.492692 
L 326.15424 75.882234 
L 326.51136 89.723302 
L 326.86848 78.710101 
L 327.2256 78.604882 
L 327.58272 79.090106 
L 327.93984 87.50414 
L 328.29696 74.837001 
L 328.65408 86.167599 
L 329.0112 86.845 
L 329.36832 74.128296 
L 329.72544 85.459763 
L 330.08256 74.882219 
L 330.43968 73.903075 
L 330.7968 84.673665 
L 331.15392 75.081353 
L 331.51104 87.144135 
L 331.86816 76.902249 
L 332.22528 80.331863 
L 332.5824 77.570954 
L 332.93952 87.952842 
L 333.29664 78.648361 
L 333.65376 83.683216 
L 334.01088 80.27708 
L 334.368 78.357052 
L 334.72512 72.717841 
L 335.08224 82.248412 
L 335.43936 85.932813 
L 335.79648 76.613549 
L 336.1536 82.750159 
L 336.51072 71.755218 
L 336.86784 76.889205 
L 337.22496 80.29708 
L 337.58208 74.244819 
L 337.9392 80.664042 
L 338.29632 81.745796 
L 338.65344 74.426561 
L 339.01056 82.257978 
L 339.36768 83.154512 
L 339.7248 74.688304 
L 340.08192 74.113513 
L 340.43904 80.000554 
L 341.15328 85.418023 
L 341.5104 81.619708 
L 341.86752 73.622201 
L 342.22464 76.308327 
L 342.58176 76.097889 
L 342.93888 70.703029 
L 343.296 83.24147 
L 343.65312 82.938857 
L 344.01024 70.079542 
L 344.36736 77.53791 
L 344.72448 81.189267 
L 345.0816 81.394487 
L 345.43872 72.313487 
L 345.79584 77.240514 
L 346.15296 74.500475 
L 346.51008 81.025786 
L 346.8672 81.853624 
L 347.22432 75.750058 
L 347.58144 82.89103 
L 348.29568 68.912568 
L 348.6528 80.515344 
L 349.00992 81.075352 
L 349.36704 73.373502 
L 349.72416 83.57191 
L 350.4384 77.079642 
L 350.79552 71.252602 
L 351.15264 69.776059 
L 351.50976 74.340473 
L 351.86688 70.379546 
L 352.224 76.743985 
L 352.58112 79.007496 
L 352.93824 79.522286 
L 353.29536 78.770101 
L 353.65248 69.503012 
L 354.0096 76.540504 
L 354.36672 81.156223 
L 354.72384 68.130818 
L 355.08096 75.821363 
L 355.43808 72.490011 
L 355.7952 76.372676 
L 356.15232 77.953568 
L 356.50944 72.12131 
L 356.86656 80.621432 
L 357.22368 79.43185 
L 357.5808 71.623912 
L 358.29504 80.301428 
L 358.65216 67.506461 
L 359.00928 71.387387 
L 359.3664 73.038715 
L 359.72352 75.549186 
L 360.08064 72.703927 
L 360.43776 76.561374 
L 360.79488 67.702986 
L 361.152 75.711797 
L 361.50912 64.964686 
L 361.86624 66.279487 
L 362.22336 79.994467 
L 362.58048 79.546634 
L 362.9376 70.002149 
L 363.29472 75.530924 
L 363.65184 74.382212 
L 364.00896 78.111831 
L 364.36608 79.176194 
L 364.7232 74.560476 
L 365.08032 66.196877 
L 365.43744 78.450097 
L 365.79456 74.530041 
L 366.15168 78.791841 
L 366.86592 75.64223 
L 367.22304 75.91093 
L 367.58016 65.629913 
L 368.2944 67.696029 
L 368.65152 70.905641 
L 369.00864 63.403794 
L 369.36576 63.86467 
L 370.08 72.339574 
L 370.43712 66.219486 
L 370.79424 74.173514 
L 371.15136 72.116093 
L 371.8656 63.778582 
L 372.22272 66.86993 
L 372.57984 75.269182 
L 372.93696 66.35688 
L 373.29408 62.31943 
L 373.6512 69.312574 
L 374.00832 67.001237 
L 374.36544 63.189877 
L 374.72256 69.221269 
L 375.07968 66.264704 
L 375.4368 71.231732 
L 375.79392 66.905583 
L 376.15104 76.93964 
L 376.50816 69.576926 
L 376.86528 66.022092 
L 377.2224 63.916844 
L 377.57952 75.203963 
L 377.93664 67.169065 
L 378.29376 62.599434 
L 378.65088 62.0116 
L 379.008 67.857771 
L 379.36512 64.607289 
L 380.07936 75.124832 
L 380.7936 64.841206 
L 381.15072 62.71161 
L 381.50784 70.333458 
L 381.86496 73.497852 
L 382.22208 62.787263 
L 382.5792 63.211617 
L 382.93632 63.918584 
L 383.29344 70.825639 
L 383.65056 70.156065 
L 384.00768 61.004629 
L 384.3648 61.778553 
L 384.72192 59.774176 
L 385.07904 72.955235 
L 385.43616 64.589898 
L 385.79328 60.784625 
L 386.1504 74.581346 
L 386.86464 60.047224 
L 387.22176 59.873308 
L 387.57888 62.021165 
L 387.936 67.1595 
L 388.29312 68.275168 
L 388.65024 63.341184 
L 389.7216 67.96299 
L 390.07872 57.765452 
L 390.43584 61.879424 
L 390.79296 72.396097 
L 391.15008 65.942961 
L 391.5072 64.515114 
L 391.86432 58.373286 
L 392.22144 69.106484 
L 392.57856 66.235139 
L 392.93568 71.4213 
L 393.2928 68.884742 
L 393.64992 58.095891 
L 394.00704 58.192414 
L 394.36416 62.173341 
L 394.72128 56.013253 
L 395.0784 71.389995 
L 395.43552 57.181965 
L 395.79264 71.424778 
L 396.14976 69.13518 
L 396.50688 61.24811 
L 396.864 68.376909 
L 397.22112 67.449939 
L 397.57824 62.540303 
L 398.29248 70.65955 
L 398.6496 65.492519 
L 399.00672 55.168023 
L 399.36384 62.534216 
L 400.07808 55.005412 
L 400.4352 60.552448 
L 400.79232 54.779322 
L 401.14944 67.341242 
L 401.50656 62.904656 
L 401.86368 63.887279 
L 402.2208 55.937599 
L 402.57792 60.768973 
L 402.93504 69.386488 
L 403.29216 70.424764 
L 404.36352 55.740205 
L 404.72064 61.602029 
L 405.07776 55.822815 
L 405.43488 55.56629 
L 405.792 55.088891 
L 406.14912 62.815089 
L 406.50624 55.921947 
L 406.86336 63.994237 
L 407.22048 67.966468 
L 407.5776 67.390807 
L 407.93472 53.568 
L 408.29184 63.800321 
L 408.64896 62.028991 
L 409.00608 53.736698 
L 409.3632 61.027238 
L 409.72032 60.277662 
L 410.07744 67.114282 
L 410.43456 56.915874 
L 410.79168 62.815959 
L 411.1488 62.460302 
L 411.50592 55.328895 
L 411.86304 61.645507 
L 412.22016 61.28985 
L 412.57728 66.569056 
L 412.9344 66.214269 
L 413.29152 64.866423 
L 413.64864 55.714987 
L 414.00576 55.906294 
L 414.36288 58.876772 
L 414.72 64.613376 
L 414.72 64.613376 
" style="fill:none;stroke:#000080;stroke-linecap:square;stroke-width:0.5;"/>
   </g>
   <g id="patch_3">
    <path d="M 57.6 307.584 
L 57.6 41.472 
" style="fill:none;stroke:#000000;stroke-linecap:square;stroke-linejoin:miter;stroke-width:0.8;"/>
   </g>
   <g id="patch_4">
    <path d="M 414.72 307.584 
L 414.72 41.472 
" style="fill:none;stroke:#000000;stroke-linecap:square;stroke-linejoin:miter;stroke-width:0.8;"/>
   </g>
   <g id="patch_5">
    <path d="M 57.6 307.584 
L 414.72 307.584 
" style="fill:none;stroke:#000000;stroke-linecap:square;stroke-linejoin:miter;stroke-width:0.8;"/>
   </g>
   <g id="patch_6">
    <path d="M 57.6 41.472 
L 414.72 41.472 
" style="fill:none;stroke:#000000;stroke-linecap:square;stroke-linejoin:miter;stroke-width:0.8;"/>
   </g>
   <g id="text_15">
    <!-- Test -->
    <defs>
     <path d="M -0.296875 72.90625 
L 61.375 72.90625 
L 61.375 64.59375 
L 35.5 64.59375 
L 35.5 0 
L 25.59375 0 
L 25.59375 64.59375 
L -0.296875 64.59375 
z
" id="DejaVuSans-54"/>
    </defs>
    <g transform="translate(223.341563 35.472)scale(0.12 -0.12)">
     <use xlink:href="#DejaVuSans-54"/>
     <use x="60.818359" xlink:href="#DejaVuSans-65"/>
     <use x="122.341797" xlink:href="#DejaVuSans-73"/>
     <use x="174.441406" xlink:href="#DejaVuSans-74"/>
    </g>
   </g>
   <g id="legend_1">
    <g id="patch_7">
     <path d="M 64.6 64.150125 
L 306.276563 64.150125 
Q 308.276563 64.150125 308.276563 62.150125 
L 308.276563 48.472 
Q 308.276563 46.472 306.276563 46.472 
L 64.6 46.472 
Q 62.6 46.472 62.6 48.472 
L 62.6 62.150125 
Q 62.6 64.150125 64.6 64.150125 
z
" style="fill:#ffffff;opacity:0.8;stroke:#cccccc;stroke-linejoin:miter;"/>
    </g>
    <g id="line2d_26">
     <path d="M 66.6 54.570438 
L 86.6 54.570438 
" style="fill:none;stroke:#000080;stroke-linecap:square;stroke-width:0.5;"/>
    </g>
    <g id="line2d_27"/>
    <g id="text_16">
     <!-- Successful download requests per second -->
     <g transform="translate(94.6 58.070438)scale(0.1 -0.1)">
      <use xlink:href="#DejaVuSans-53"/>
      <use x="63.476562" xlink:href="#DejaVuSans-75"/>
      <use x="126.855469" xlink:href="#DejaVuSans-63"/>
      <use x="181.835938" xlink:href="#DejaVuSans-63"/>
      <use x="236.816406" xlink:href="#DejaVuSans-65"/>
      <use x="298.339844" xlink:href="#DejaVuSans-73"/>
      <use x="350.439453" xlink:href="#DejaVuSans-73"/>
      <use x="402.539062" xlink:href="#DejaVuSans-66"/>
      <use x="437.744141" xlink:href="#DejaVuSans-75"/>
      <use x="501.123047" xlink:href="#DejaVuSans-6c"/>
      <use x="528.90625" xlink:href="#DejaVuSans-20"/>
      <use x="560.693359" xlink:href="#DejaVuSans-64"/>
      <use x="624.169922" xlink:href="#DejaVuSans-6f"/>
      <use x="685.351562" xlink:href="#DejaVuSans-77"/>
      <use x="767.138672" xlink:href="#DejaVuSans-6e"/>
      <use x="830.517578" xlink:href="#DejaVuSans-6c"/>
      <use x="858.300781" xlink:href="#DejaVuSans-6f"/>
      <use x="919.482422" xlink:href="#DejaVuSans-61"/>
      <use x="980.761719" xlink:href="#DejaVuSans-64"/>
      <use x="1044.238281" xlink:href="#DejaVuSans-20"/>
      <use x="1076.025391" xlink:href="#DejaVuSans-72"/>
      <use x="1117.107422" xlink:href="#DejaVuSans-65"/>
      <use x="1178.630859" xlink:href="#DejaVuSans-71"/>
      <use x="1242.107422" xlink:href="#DejaVuSans-75"/>
      <use x="1305.486328" xlink:href="#DejaVuSans-65"/>
      <use x="1367.009766" xlink:href="#DejaVuSans-73"/>
      <use x="1419.109375" xlink:href="#DejaVuSans-74"/>
      <use x="1458.318359" xlink:href="#DejaVuSans-73"/>
      <use x="1510.417969" xlink:href="#DejaVuSans-20"/>
      <use x="1542.205078" xlink:href="#DejaVuSans-70"/>
      <use x="1605.681641" xlink:href="#DejaVuSans-65"/>
      <use x="1667.205078" xlink:href="#DejaVuSans-72"/>
      <use x="1708.318359" xlink:href="#DejaVuSans-20"/>
      <use x="1740.105469" xlink:href="#DejaVuSans-73"/>
      <use x="1792.205078" xlink:href="#DejaVuSans-65"/>
      <use x="1853.728516" xlink:href="#DejaVuSans-63"/>
      <use x="1908.708984" xlink:href="#DejaVuSans-6f"/>
      <use x="1969.890625" xlink:href="#DejaVuSans-6e"/>
      <use x="2033.269531" xlink:href="#DejaVuSans-64"/>
     </g>
    </g>
   </g>
  </g>
 </g>
 <defs>
  <clipPath id="p99fe7e4ee0">
   <rect height="266.112" width="357.12" x="57.6" y="41.472"/>
  </clipPath>
 </defs>
</svg>
