<?xml version="1.0" encoding="utf-8" standalone="no"?>
<!DOCTYPE svg PUBLIC "-//W3C//DTD SVG 1.1//EN"
  "http://www.w3.org/Graphics/SVG/1.1/DTD/svg11.dtd">
<!-- Created with matplotlib (http://matplotlib.org/) -->
<svg height="345pt" version="1.1" viewBox="0 0 460 345" width="460pt" xmlns="http://www.w3.org/2000/svg" xmlns:xlink="http://www.w3.org/1999/xlink">
 <defs>
  <style type="text/css">
*{stroke-linecap:butt;stroke-linejoin:round;}
  </style>
 </defs>
 <g id="figure_1">
  <g id="patch_1">
   <path d="M 0 345.6 
L 460.8 345.6 
L 460.8 0 
L 0 0 
z
" style="fill:#ffffff;"/>
  </g>
  <g id="axes_1">
   <g id="patch_2">
    <path d="M 57.6 307.584 
L 414.72 307.584 
L 414.72 41.472 
L 57.6 41.472 
z
" style="fill:#ffffff;"/>
   </g>
   <g id="matplotlib.axis_1">
    <g id="xtick_1">
     <g id="line2d_1">
      <path clip-path="url(#p91cb4b81cb)" d="M 57.6 307.584 
L 57.6 41.472 
" style="fill:none;stroke:#b0b0b0;stroke-linecap:square;stroke-width:0.8;"/>
     </g>
     <g id="line2d_2">
      <defs>
       <path d="M 0 0 
L 0 3.5 
" id="mb82f3d921b" style="stroke:#000000;stroke-width:0.8;"/>
      </defs>
      <g>
       <use style="stroke:#000000;stroke-width:0.8;" x="57.6" xlink:href="#mb82f3d921b" y="307.584"/>
      </g>
     </g>
     <g id="text_1">
      <!-- 0 -->
      <defs>
       <path d="M 31.78125 66.40625 
Q 24.171875 66.40625 20.328125 58.90625 
Q 16.5 51.421875 16.5 36.375 
Q 16.5 21.390625 20.328125 13.890625 
Q 24.171875 6.390625 31.78125 6.390625 
Q 39.453125 6.390625 43.28125 13.890625 
Q 47.125 21.390625 47.125 36.375 
Q 47.125 51.421875 43.28125 58.90625 
Q 39.453125 66.40625 31.78125 66.40625 
M 31.78125 74.21875 
Q 44.046875 74.21875 50.515625 64.515625 
Q 56.984375 54.828125 56.984375 36.375 
Q 56.984375 17.96875 50.515625 8.265625 
Q 44.046875 -1.421875 31.78125 -1.421875 
Q 19.53125 -1.421875 13.0625 8.265625 
Q 6.59375 17.96875 6.59375 36.375 
Q 6.59375 54.828125 13.0625 64.515625 
Q 19.53125 74.21875 31.78125 74.21875 
" id="DejaVuSans-30"/>
      </defs>
      <g transform="translate(54.41875 322.182437)scale(0.1 -0.1)">
       <use xlink:href="#DejaVuSans-30"/>
      </g>
     </g>
    </g>
    <g id="xtick_2">
     <g id="line2d_3">
      <path clip-path="url(#p91cb4b81cb)" d="M 129.024 307.584 
L 129.024 41.472 
" style="fill:none;stroke:#b0b0b0;stroke-linecap:square;stroke-width:0.8;"/>
     </g>
     <g id="line2d_4">
      <g>
       <use style="stroke:#000000;stroke-width:0.8;" x="129.024" xlink:href="#mb82f3d921b" y="307.584"/>
      </g>
     </g>
     <g id="text_2">
      <!-- 200 -->
      <defs>
       <path d="M 19.1875 8.296875 
L 53.609375 8.296875 
L 53.609375 0 
L 7.328125 0 
L 7.328125 8.296875 
Q 12.9375 14.109375 22.625 23.890625 
Q 32.328125 33.6875 34.8125 36.53125 
Q 39.546875 41.84375 41.421875 45.53125 
Q 43.3125 49.21875 43.3125 52.78125 
Q 43.3125 58.59375 39.234375 62.25 
Q 35.15625 65.921875 28.609375 65.921875 
Q 23.96875 65.921875 18.8125 64.3125 
Q 13.671875 62.703125 7.8125 59.421875 
L 7.8125 69.390625 
Q 13.765625 71.78125 18.9375 73 
Q 24.125 74.21875 28.421875 74.21875 
Q 39.75 74.21875 46.484375 68.546875 
Q 53.21875 62.890625 53.21875 53.421875 
Q 53.21875 48.921875 51.53125 44.890625 
Q 49.859375 40.875 45.40625 35.40625 
Q 44.1875 33.984375 37.640625 27.21875 
Q 31.109375 20.453125 19.1875 8.296875 
" id="DejaVuSans-32"/>
      </defs>
      <g transform="translate(119.48025 322.182437)scale(0.1 -0.1)">
       <use xlink:href="#DejaVuSans-32"/>
       <use x="63.623047" xlink:href="#DejaVuSans-30"/>
       <use x="127.246094" xlink:href="#DejaVuSans-30"/>
      </g>
     </g>
    </g>
    <g id="xtick_3">
     <g id="line2d_5">
      <path clip-path="url(#p91cb4b81cb)" d="M 200.448 307.584 
L 200.448 41.472 
" style="fill:none;stroke:#b0b0b0;stroke-linecap:square;stroke-width:0.8;"/>
     </g>
     <g id="line2d_6">
      <g>
       <use style="stroke:#000000;stroke-width:0.8;" x="200.448" xlink:href="#mb82f3d921b" y="307.584"/>
      </g>
     </g>
     <g id="text_3">
      <!-- 400 -->
      <defs>
       <path d="M 37.796875 64.3125 
L 12.890625 25.390625 
L 37.796875 25.390625 
z
M 35.203125 72.90625 
L 47.609375 72.90625 
L 47.609375 25.390625 
L 58.015625 25.390625 
L 58.015625 17.1875 
L 47.609375 17.1875 
L 47.609375 0 
L 37.796875 0 
L 37.796875 17.1875 
L 4.890625 17.1875 
L 4.890625 26.703125 
z
" id="DejaVuSans-34"/>
      </defs>
      <g transform="translate(190.90425 322.182437)scale(0.1 -0.1)">
       <use xlink:href="#DejaVuSans-34"/>
       <use x="63.623047" xlink:href="#DejaVuSans-30"/>
       <use x="127.246094" xlink:href="#DejaVuSans-30"/>
      </g>
     </g>
    </g>
    <g id="xtick_4">
     <g id="line2d_7">
      <path clip-path="url(#p91cb4b81cb)" d="M 271.872 307.584 
L 271.872 41.472 
" style="fill:none;stroke:#b0b0b0;stroke-linecap:square;stroke-width:0.8;"/>
     </g>
     <g id="line2d_8">
      <g>
       <use style="stroke:#000000;stroke-width:0.8;" x="271.872" xlink:href="#mb82f3d921b" y="307.584"/>
      </g>
     </g>
     <g id="text_4">
      <!-- 600 -->
      <defs>
       <path d="M 33.015625 40.375 
Q 26.375 40.375 22.484375 35.828125 
Q 18.609375 31.296875 18.609375 23.390625 
Q 18.609375 15.53125 22.484375 10.953125 
Q 26.375 6.390625 33.015625 6.390625 
Q 39.65625 6.390625 43.53125 10.953125 
Q 47.40625 15.53125 47.40625 23.390625 
Q 47.40625 31.296875 43.53125 35.828125 
Q 39.65625 40.375 33.015625 40.375 
M 52.59375 71.296875 
L 52.59375 62.3125 
Q 48.875 64.0625 45.09375 64.984375 
Q 41.3125 65.921875 37.59375 65.921875 
Q 27.828125 65.921875 22.671875 59.328125 
Q 17.53125 52.734375 16.796875 39.40625 
Q 19.671875 43.65625 24.015625 45.921875 
Q 28.375 48.1875 33.59375 48.1875 
Q 44.578125 48.1875 50.953125 41.515625 
Q 57.328125 34.859375 57.328125 23.390625 
Q 57.328125 12.15625 50.6875 5.359375 
Q 44.046875 -1.421875 33.015625 -1.421875 
Q 20.359375 -1.421875 13.671875 8.265625 
Q 6.984375 17.96875 6.984375 36.375 
Q 6.984375 53.65625 15.1875 63.9375 
Q 23.390625 74.21875 37.203125 74.21875 
Q 40.921875 74.21875 44.703125 73.484375 
Q 48.484375 72.75 52.59375 71.296875 
" id="DejaVuSans-36"/>
      </defs>
      <g transform="translate(262.32825 322.182437)scale(0.1 -0.1)">
       <use xlink:href="#DejaVuSans-36"/>
       <use x="63.623047" xlink:href="#DejaVuSans-30"/>
       <use x="127.246094" xlink:href="#DejaVuSans-30"/>
      </g>
     </g>
    </g>
    <g id="xtick_5">
     <g id="line2d_9">
      <path clip-path="url(#p91cb4b81cb)" d="M 343.296 307.584 
L 343.296 41.472 
" style="fill:none;stroke:#b0b0b0;stroke-linecap:square;stroke-width:0.8;"/>
     </g>
     <g id="line2d_10">
      <g>
       <use style="stroke:#000000;stroke-width:0.8;" x="343.296" xlink:href="#mb82f3d921b" y="307.584"/>
      </g>
     </g>
     <g id="text_5">
      <!-- 800 -->
      <defs>
       <path d="M 31.78125 34.625 
Q 24.75 34.625 20.71875 30.859375 
Q 16.703125 27.09375 16.703125 20.515625 
Q 16.703125 13.921875 20.71875 10.15625 
Q 24.75 6.390625 31.78125 6.390625 
Q 38.8125 6.390625 42.859375 10.171875 
Q 46.921875 13.96875 46.921875 20.515625 
Q 46.921875 27.09375 42.890625 30.859375 
Q 38.875 34.625 31.78125 34.625 
M 21.921875 38.8125 
Q 15.578125 40.375 12.03125 44.71875 
Q 8.5 49.078125 8.5 55.328125 
Q 8.5 64.0625 14.71875 69.140625 
Q 20.953125 74.21875 31.78125 74.21875 
Q 42.671875 74.21875 48.875 69.140625 
Q 55.078125 64.0625 55.078125 55.328125 
Q 55.078125 49.078125 51.53125 44.71875 
Q 48 40.375 41.703125 38.8125 
Q 48.828125 37.15625 52.796875 32.3125 
Q 56.78125 27.484375 56.78125 20.515625 
Q 56.78125 9.90625 50.3125 4.234375 
Q 43.84375 -1.421875 31.78125 -1.421875 
Q 19.734375 -1.421875 13.25 4.234375 
Q 6.78125 9.90625 6.78125 20.515625 
Q 6.78125 27.484375 10.78125 32.3125 
Q 14.796875 37.15625 21.921875 38.8125 
M 18.3125 54.390625 
Q 18.3125 48.734375 21.84375 45.5625 
Q 25.390625 42.390625 31.78125 42.390625 
Q 38.140625 42.390625 41.71875 45.5625 
Q 45.3125 48.734375 45.3125 54.390625 
Q 45.3125 60.0625 41.71875 63.234375 
Q 38.140625 66.40625 31.78125 66.40625 
Q 25.390625 66.40625 21.84375 63.234375 
Q 18.3125 60.0625 18.3125 54.390625 
" id="DejaVuSans-38"/>
      </defs>
      <g transform="translate(333.75225 322.182437)scale(0.1 -0.1)">
       <use xlink:href="#DejaVuSans-38"/>
       <use x="63.623047" xlink:href="#DejaVuSans-30"/>
       <use x="127.246094" xlink:href="#DejaVuSans-30"/>
      </g>
     </g>
    </g>
    <g id="xtick_6">
     <g id="line2d_11">
      <path clip-path="url(#p91cb4b81cb)" d="M 414.72 307.584 
L 414.72 41.472 
" style="fill:none;stroke:#b0b0b0;stroke-linecap:square;stroke-width:0.8;"/>
     </g>
     <g id="line2d_12">
      <g>
       <use style="stroke:#000000;stroke-width:0.8;" x="414.72" xlink:href="#mb82f3d921b" y="307.584"/>
      </g>
     </g>
     <g id="text_6">
      <!-- 1000 -->
      <defs>
       <path d="M 12.40625 8.296875 
L 28.515625 8.296875 
L 28.515625 63.921875 
L 10.984375 60.40625 
L 10.984375 69.390625 
L 28.421875 72.90625 
L 38.28125 72.90625 
L 38.28125 8.296875 
L 54.390625 8.296875 
L 54.390625 0 
L 12.40625 0 
z
" id="DejaVuSans-31"/>
      </defs>
      <g transform="translate(401.995 322.182437)scale(0.1 -0.1)">
       <use xlink:href="#DejaVuSans-31"/>
       <use x="63.623047" xlink:href="#DejaVuSans-30"/>
       <use x="127.246094" xlink:href="#DejaVuSans-30"/>
       <use x="190.869141" xlink:href="#DejaVuSans-30"/>
      </g>
     </g>
    </g>
    <g id="text_7">
     <!-- Number of clients -->
     <defs>
      <path d="M 9.8125 72.90625 
L 23.09375 72.90625 
L 55.421875 11.921875 
L 55.421875 72.90625 
L 64.984375 72.90625 
L 64.984375 0 
L 51.703125 0 
L 19.390625 60.984375 
L 19.390625 0 
L 9.8125 0 
z
" id="DejaVuSans-4e"/>
      <path d="M 8.5 21.578125 
L 8.5 54.6875 
L 17.484375 54.6875 
L 17.484375 21.921875 
Q 17.484375 14.15625 20.5 10.265625 
Q 23.53125 6.390625 29.59375 6.390625 
Q 36.859375 6.390625 41.078125 11.03125 
Q 45.3125 15.671875 45.3125 23.6875 
L 45.3125 54.6875 
L 54.296875 54.6875 
L 54.296875 0 
L 45.3125 0 
L 45.3125 8.40625 
Q 42.046875 3.421875 37.71875 1 
Q 33.40625 -1.421875 27.6875 -1.421875 
Q 18.265625 -1.421875 13.375 4.4375 
Q 8.5 10.296875 8.5 21.578125 
M 31.109375 56 
z
" id="DejaVuSans-75"/>
      <path d="M 52 44.1875 
Q 55.375 50.25 60.0625 53.125 
Q 64.75 56 71.09375 56 
Q 79.640625 56 84.28125 50.015625 
Q 88.921875 44.046875 88.921875 33.015625 
L 88.921875 0 
L 79.890625 0 
L 79.890625 32.71875 
Q 79.890625 40.578125 77.09375 44.375 
Q 74.3125 48.1875 68.609375 48.1875 
Q 61.625 48.1875 57.5625 43.546875 
Q 53.515625 38.921875 53.515625 30.90625 
L 53.515625 0 
L 44.484375 0 
L 44.484375 32.71875 
Q 44.484375 40.625 41.703125 44.40625 
Q 38.921875 48.1875 33.109375 48.1875 
Q 26.21875 48.1875 22.15625 43.53125 
Q 18.109375 38.875 18.109375 30.90625 
L 18.109375 0 
L 9.078125 0 
L 9.078125 54.6875 
L 18.109375 54.6875 
L 18.109375 46.1875 
Q 21.1875 51.21875 25.484375 53.609375 
Q 29.78125 56 35.6875 56 
Q 41.65625 56 45.828125 52.96875 
Q 50 49.953125 52 44.1875 
" id="DejaVuSans-6d"/>
      <path d="M 48.6875 27.296875 
Q 48.6875 37.203125 44.609375 42.84375 
Q 40.53125 48.484375 33.40625 48.484375 
Q 26.265625 48.484375 22.1875 42.84375 
Q 18.109375 37.203125 18.109375 27.296875 
Q 18.109375 17.390625 22.1875 11.75 
Q 26.265625 6.109375 33.40625 6.109375 
Q 40.53125 6.109375 44.609375 11.75 
Q 48.6875 17.390625 48.6875 27.296875 
M 18.109375 46.390625 
Q 20.953125 51.265625 25.265625 53.625 
Q 29.59375 56 35.59375 56 
Q 45.5625 56 51.78125 48.09375 
Q 58.015625 40.1875 58.015625 27.296875 
Q 58.015625 14.40625 51.78125 6.484375 
Q 45.5625 -1.421875 35.59375 -1.421875 
Q 29.59375 -1.421875 25.265625 0.953125 
Q 20.953125 3.328125 18.109375 8.203125 
L 18.109375 0 
L 9.078125 0 
L 9.078125 75.984375 
L 18.109375 75.984375 
z
" id="DejaVuSans-62"/>
      <path d="M 56.203125 29.59375 
L 56.203125 25.203125 
L 14.890625 25.203125 
Q 15.484375 15.921875 20.484375 11.0625 
Q 25.484375 6.203125 34.421875 6.203125 
Q 39.59375 6.203125 44.453125 7.46875 
Q 49.3125 8.734375 54.109375 11.28125 
L 54.109375 2.78125 
Q 49.265625 0.734375 44.1875 -0.34375 
Q 39.109375 -1.421875 33.890625 -1.421875 
Q 20.796875 -1.421875 13.15625 6.1875 
Q 5.515625 13.8125 5.515625 26.8125 
Q 5.515625 40.234375 12.765625 48.109375 
Q 20.015625 56 32.328125 56 
Q 43.359375 56 49.78125 48.890625 
Q 56.203125 41.796875 56.203125 29.59375 
M 47.21875 32.234375 
Q 47.125 39.59375 43.09375 43.984375 
Q 39.0625 48.390625 32.421875 48.390625 
Q 24.90625 48.390625 20.390625 44.140625 
Q 15.875 39.890625 15.1875 32.171875 
z
" id="DejaVuSans-65"/>
      <path d="M 41.109375 46.296875 
Q 39.59375 47.171875 37.8125 47.578125 
Q 36.03125 48 33.890625 48 
Q 26.265625 48 22.1875 43.046875 
Q 18.109375 38.09375 18.109375 28.8125 
L 18.109375 0 
L 9.078125 0 
L 9.078125 54.6875 
L 18.109375 54.6875 
L 18.109375 46.1875 
Q 20.953125 51.171875 25.484375 53.578125 
Q 30.03125 56 36.53125 56 
Q 37.453125 56 38.578125 55.875 
Q 39.703125 55.765625 41.0625 55.515625 
z
" id="DejaVuSans-72"/>
      <path id="DejaVuSans-20"/>
      <path d="M 30.609375 48.390625 
Q 23.390625 48.390625 19.1875 42.75 
Q 14.984375 37.109375 14.984375 27.296875 
Q 14.984375 17.484375 19.15625 11.84375 
Q 23.34375 6.203125 30.609375 6.203125 
Q 37.796875 6.203125 41.984375 11.859375 
Q 46.1875 17.53125 46.1875 27.296875 
Q 46.1875 37.015625 41.984375 42.703125 
Q 37.796875 48.390625 30.609375 48.390625 
M 30.609375 56 
Q 42.328125 56 49.015625 48.375 
Q 55.71875 40.765625 55.71875 27.296875 
Q 55.71875 13.875 49.015625 6.21875 
Q 42.328125 -1.421875 30.609375 -1.421875 
Q 18.84375 -1.421875 12.171875 6.21875 
Q 5.515625 13.875 5.515625 27.296875 
Q 5.515625 40.765625 12.171875 48.375 
Q 18.84375 56 30.609375 56 
" id="DejaVuSans-6f"/>
      <path d="M 37.109375 75.984375 
L 37.109375 68.5 
L 28.515625 68.5 
Q 23.6875 68.5 21.796875 66.546875 
Q 19.921875 64.59375 19.921875 59.515625 
L 19.921875 54.6875 
L 34.71875 54.6875 
L 34.71875 47.703125 
L 19.921875 47.703125 
L 19.921875 0 
L 10.890625 0 
L 10.890625 47.703125 
L 2.296875 47.703125 
L 2.296875 54.6875 
L 10.890625 54.6875 
L 10.890625 58.5 
Q 10.890625 67.625 15.140625 71.796875 
Q 19.390625 75.984375 28.609375 75.984375 
z
" id="DejaVuSans-66"/>
      <path d="M 48.78125 52.59375 
L 48.78125 44.1875 
Q 44.96875 46.296875 41.140625 47.34375 
Q 37.3125 48.390625 33.40625 48.390625 
Q 24.65625 48.390625 19.8125 42.84375 
Q 14.984375 37.3125 14.984375 27.296875 
Q 14.984375 17.28125 19.8125 11.734375 
Q 24.65625 6.203125 33.40625 6.203125 
Q 37.3125 6.203125 41.140625 7.25 
Q 44.96875 8.296875 48.78125 10.40625 
L 48.78125 2.09375 
Q 45.015625 0.34375 40.984375 -0.53125 
Q 36.96875 -1.421875 32.421875 -1.421875 
Q 20.0625 -1.421875 12.78125 6.34375 
Q 5.515625 14.109375 5.515625 27.296875 
Q 5.515625 40.671875 12.859375 48.328125 
Q 20.21875 56 33.015625 56 
Q 37.15625 56 41.109375 55.140625 
Q 45.0625 54.296875 48.78125 52.59375 
" id="DejaVuSans-63"/>
      <path d="M 9.421875 75.984375 
L 18.40625 75.984375 
L 18.40625 0 
L 9.421875 0 
z
" id="DejaVuSans-6c"/>
      <path d="M 9.421875 54.6875 
L 18.40625 54.6875 
L 18.40625 0 
L 9.421875 0 
z
M 9.421875 75.984375 
L 18.40625 75.984375 
L 18.40625 64.59375 
L 9.421875 64.59375 
z
" id="DejaVuSans-69"/>
      <path d="M 54.890625 33.015625 
L 54.890625 0 
L 45.90625 0 
L 45.90625 32.71875 
Q 45.90625 40.484375 42.875 44.328125 
Q 39.84375 48.1875 33.796875 48.1875 
Q 26.515625 48.1875 22.3125 43.546875 
Q 18.109375 38.921875 18.109375 30.90625 
L 18.109375 0 
L 9.078125 0 
L 9.078125 54.6875 
L 18.109375 54.6875 
L 18.109375 46.1875 
Q 21.34375 51.125 25.703125 53.5625 
Q 30.078125 56 35.796875 56 
Q 45.21875 56 50.046875 50.171875 
Q 54.890625 44.34375 54.890625 33.015625 
" id="DejaVuSans-6e"/>
      <path d="M 18.3125 70.21875 
L 18.3125 54.6875 
L 36.8125 54.6875 
L 36.8125 47.703125 
L 18.3125 47.703125 
L 18.3125 18.015625 
Q 18.3125 11.328125 20.140625 9.421875 
Q 21.96875 7.515625 27.59375 7.515625 
L 36.8125 7.515625 
L 36.8125 0 
L 27.59375 0 
Q 17.1875 0 13.234375 3.875 
Q 9.28125 7.765625 9.28125 18.015625 
L 9.28125 47.703125 
L 2.6875 47.703125 
L 2.6875 54.6875 
L 9.28125 54.6875 
L 9.28125 70.21875 
z
" id="DejaVuSans-74"/>
      <path d="M 44.28125 53.078125 
L 44.28125 44.578125 
Q 40.484375 46.53125 36.375 47.5 
Q 32.28125 48.484375 27.875 48.484375 
Q 21.1875 48.484375 17.84375 46.4375 
Q 14.5 44.390625 14.5 40.28125 
Q 14.5 37.15625 16.890625 35.375 
Q 19.28125 33.59375 26.515625 31.984375 
L 29.59375 31.296875 
Q 39.15625 29.25 43.1875 25.515625 
Q 47.21875 21.78125 47.21875 15.09375 
Q 47.21875 7.46875 41.1875 3.015625 
Q 35.15625 -1.421875 24.609375 -1.421875 
Q 20.21875 -1.421875 15.453125 -0.5625 
Q 10.6875 0.296875 5.421875 2 
L 5.421875 11.28125 
Q 10.40625 8.6875 15.234375 7.390625 
Q 20.0625 6.109375 24.8125 6.109375 
Q 31.15625 6.109375 34.5625 8.28125 
Q 37.984375 10.453125 37.984375 14.40625 
Q 37.984375 18.0625 35.515625 20.015625 
Q 33.0625 21.96875 24.703125 23.78125 
L 21.578125 24.515625 
Q 13.234375 26.265625 9.515625 29.90625 
Q 5.8125 33.546875 5.8125 39.890625 
Q 5.8125 47.609375 11.28125 51.796875 
Q 16.75 56 26.8125 56 
Q 31.78125 56 36.171875 55.265625 
Q 40.578125 54.546875 44.28125 53.078125 
" id="DejaVuSans-73"/>
     </defs>
     <g transform="translate(191.738906 335.860562)scale(0.1 -0.1)">
      <use xlink:href="#DejaVuSans-4e"/>
      <use x="74.804688" xlink:href="#DejaVuSans-75"/>
      <use x="138.183594" xlink:href="#DejaVuSans-6d"/>
      <use x="235.595703" xlink:href="#DejaVuSans-62"/>
      <use x="299.072266" xlink:href="#DejaVuSans-65"/>
      <use x="360.595703" xlink:href="#DejaVuSans-72"/>
      <use x="401.708984" xlink:href="#DejaVuSans-20"/>
      <use x="433.496094" xlink:href="#DejaVuSans-6f"/>
      <use x="494.677734" xlink:href="#DejaVuSans-66"/>
      <use x="529.882812" xlink:href="#DejaVuSans-20"/>
      <use x="561.669922" xlink:href="#DejaVuSans-63"/>
      <use x="616.650391" xlink:href="#DejaVuSans-6c"/>
      <use x="644.433594" xlink:href="#DejaVuSans-69"/>
      <use x="672.216797" xlink:href="#DejaVuSans-65"/>
      <use x="733.740234" xlink:href="#DejaVuSans-6e"/>
      <use x="797.119141" xlink:href="#DejaVuSans-74"/>
      <use x="836.328125" xlink:href="#DejaVuSans-73"/>
     </g>
    </g>
   </g>
   <g id="matplotlib.axis_2">
    <g id="ytick_1">
     <g id="line2d_13">
      <path clip-path="url(#p91cb4b81cb)" d="M 57.6 296.119727 
L 414.72 296.119727 
" style="fill:none;stroke:#b0b0b0;stroke-linecap:square;stroke-width:0.8;"/>
     </g>
     <g id="line2d_14">
      <defs>
       <path d="M 0 0 
L -3.5 0 
" id="m8c73038700" style="stroke:#000000;stroke-width:0.8;"/>
      </defs>
      <g>
       <use style="stroke:#000000;stroke-width:0.8;" x="57.6" xlink:href="#m8c73038700" y="296.119727"/>
      </g>
     </g>
     <g id="text_8">
      <!-- 0 -->
      <g transform="translate(44.2375 299.918946)scale(0.1 -0.1)">
       <use xlink:href="#DejaVuSans-30"/>
      </g>
     </g>
    </g>
    <g id="ytick_2">
     <g id="line2d_15">
      <path clip-path="url(#p91cb4b81cb)" d="M 57.6 262.730358 
L 414.72 262.730358 
" style="fill:none;stroke:#b0b0b0;stroke-linecap:square;stroke-width:0.8;"/>
     </g>
     <g id="line2d_16">
      <g>
       <use style="stroke:#000000;stroke-width:0.8;" x="57.6" xlink:href="#m8c73038700" y="262.730358"/>
      </g>
     </g>
     <g id="text_9">
      <!-- 50 -->
      <defs>
       <path d="M 10.796875 72.90625 
L 49.515625 72.90625 
L 49.515625 64.59375 
L 19.828125 64.59375 
L 19.828125 46.734375 
Q 21.96875 47.46875 24.109375 47.828125 
Q 26.265625 48.1875 28.421875 48.1875 
Q 40.625 48.1875 47.75 41.5 
Q 54.890625 34.8125 54.890625 23.390625 
Q 54.890625 11.625 47.5625 5.09375 
Q 40.234375 -1.421875 26.90625 -1.421875 
Q 22.3125 -1.421875 17.546875 -0.640625 
Q 12.796875 0.140625 7.71875 1.703125 
L 7.71875 11.625 
Q 12.109375 9.234375 16.796875 8.0625 
Q 21.484375 6.890625 26.703125 6.890625 
Q 35.15625 6.890625 40.078125 11.328125 
Q 45.015625 15.765625 45.015625 23.390625 
Q 45.015625 31 40.078125 35.4375 
Q 35.15625 39.890625 26.703125 39.890625 
Q 22.75 39.890625 18.8125 39.015625 
Q 14.890625 38.140625 10.796875 36.28125 
z
" id="DejaVuSans-35"/>
      </defs>
      <g transform="translate(37.875 266.529577)scale(0.1 -0.1)">
       <use xlink:href="#DejaVuSans-35"/>
       <use x="63.623047" xlink:href="#DejaVuSans-30"/>
      </g>
     </g>
    </g>
    <g id="ytick_3">
     <g id="line2d_17">
      <path clip-path="url(#p91cb4b81cb)" d="M 57.6 229.340989 
L 414.72 229.340989 
" style="fill:none;stroke:#b0b0b0;stroke-linecap:square;stroke-width:0.8;"/>
     </g>
     <g id="line2d_18">
      <g>
       <use style="stroke:#000000;stroke-width:0.8;" x="57.6" xlink:href="#m8c73038700" y="229.340989"/>
      </g>
     </g>
     <g id="text_10">
      <!-- 100 -->
      <g transform="translate(31.5125 233.140208)scale(0.1 -0.1)">
       <use xlink:href="#DejaVuSans-31"/>
       <use x="63.623047" xlink:href="#DejaVuSans-30"/>
       <use x="127.246094" xlink:href="#DejaVuSans-30"/>
      </g>
     </g>
    </g>
    <g id="ytick_4">
     <g id="line2d_19">
      <path clip-path="url(#p91cb4b81cb)" d="M 57.6 195.951621 
L 414.72 195.951621 
" style="fill:none;stroke:#b0b0b0;stroke-linecap:square;stroke-width:0.8;"/>
     </g>
     <g id="line2d_20">
      <g>
       <use style="stroke:#000000;stroke-width:0.8;" x="57.6" xlink:href="#m8c73038700" y="195.951621"/>
      </g>
     </g>
     <g id="text_11">
      <!-- 150 -->
      <g transform="translate(31.5125 199.750839)scale(0.1 -0.1)">
       <use xlink:href="#DejaVuSans-31"/>
       <use x="63.623047" xlink:href="#DejaVuSans-35"/>
       <use x="127.246094" xlink:href="#DejaVuSans-30"/>
      </g>
     </g>
    </g>
    <g id="ytick_5">
     <g id="line2d_21">
      <path clip-path="url(#p91cb4b81cb)" d="M 57.6 162.562252 
L 414.72 162.562252 
" style="fill:none;stroke:#b0b0b0;stroke-linecap:square;stroke-width:0.8;"/>
     </g>
     <g id="line2d_22">
      <g>
       <use style="stroke:#000000;stroke-width:0.8;" x="57.6" xlink:href="#m8c73038700" y="162.562252"/>
      </g>
     </g>
     <g id="text_12">
      <!-- 200 -->
      <g transform="translate(31.5125 166.361471)scale(0.1 -0.1)">
       <use xlink:href="#DejaVuSans-32"/>
       <use x="63.623047" xlink:href="#DejaVuSans-30"/>
       <use x="127.246094" xlink:href="#DejaVuSans-30"/>
      </g>
     </g>
    </g>
    <g id="ytick_6">
     <g id="line2d_23">
      <path clip-path="url(#p91cb4b81cb)" d="M 57.6 129.172883 
L 414.72 129.172883 
" style="fill:none;stroke:#b0b0b0;stroke-linecap:square;stroke-width:0.8;"/>
     </g>
     <g id="line2d_24">
      <g>
       <use style="stroke:#000000;stroke-width:0.8;" x="57.6" xlink:href="#m8c73038700" y="129.172883"/>
      </g>
     </g>
     <g id="text_13">
      <!-- 250 -->
      <g transform="translate(31.5125 132.972102)scale(0.1 -0.1)">
       <use xlink:href="#DejaVuSans-32"/>
       <use x="63.623047" xlink:href="#DejaVuSans-35"/>
       <use x="127.246094" xlink:href="#DejaVuSans-30"/>
      </g>
     </g>
    </g>
    <g id="ytick_7">
     <g id="line2d_25">
      <path clip-path="url(#p91cb4b81cb)" d="M 57.6 95.783514 
L 414.72 95.783514 
" style="fill:none;stroke:#b0b0b0;stroke-linecap:square;stroke-width:0.8;"/>
     </g>
     <g id="line2d_26">
      <g>
       <use style="stroke:#000000;stroke-width:0.8;" x="57.6" xlink:href="#m8c73038700" y="95.783514"/>
      </g>
     </g>
     <g id="text_14">
      <!-- 300 -->
      <defs>
       <path d="M 40.578125 39.3125 
Q 47.65625 37.796875 51.625 33 
Q 55.609375 28.21875 55.609375 21.1875 
Q 55.609375 10.40625 48.1875 4.484375 
Q 40.765625 -1.421875 27.09375 -1.421875 
Q 22.515625 -1.421875 17.65625 -0.515625 
Q 12.796875 0.390625 7.625 2.203125 
L 7.625 11.71875 
Q 11.71875 9.328125 16.59375 8.109375 
Q 21.484375 6.890625 26.8125 6.890625 
Q 36.078125 6.890625 40.9375 10.546875 
Q 45.796875 14.203125 45.796875 21.1875 
Q 45.796875 27.640625 41.28125 31.265625 
Q 36.765625 34.90625 28.71875 34.90625 
L 20.21875 34.90625 
L 20.21875 43.015625 
L 29.109375 43.015625 
Q 36.375 43.015625 40.234375 45.921875 
Q 44.09375 48.828125 44.09375 54.296875 
Q 44.09375 59.90625 40.109375 62.90625 
Q 36.140625 65.921875 28.71875 65.921875 
Q 24.65625 65.921875 20.015625 65.03125 
Q 15.375 64.15625 9.8125 62.3125 
L 9.8125 71.09375 
Q 15.4375 72.65625 20.34375 73.4375 
Q 25.25 74.21875 29.59375 74.21875 
Q 40.828125 74.21875 47.359375 69.109375 
Q 53.90625 64.015625 53.90625 55.328125 
Q 53.90625 49.265625 50.4375 45.09375 
Q 46.96875 40.921875 40.578125 39.3125 
" id="DejaVuSans-33"/>
      </defs>
      <g transform="translate(31.5125 99.582733)scale(0.1 -0.1)">
       <use xlink:href="#DejaVuSans-33"/>
       <use x="63.623047" xlink:href="#DejaVuSans-30"/>
       <use x="127.246094" xlink:href="#DejaVuSans-30"/>
      </g>
     </g>
    </g>
    <g id="ytick_8">
     <g id="line2d_27">
      <path clip-path="url(#p91cb4b81cb)" d="M 57.6 62.394146 
L 414.72 62.394146 
" style="fill:none;stroke:#b0b0b0;stroke-linecap:square;stroke-width:0.8;"/>
     </g>
     <g id="line2d_28">
      <g>
       <use style="stroke:#000000;stroke-width:0.8;" x="57.6" xlink:href="#m8c73038700" y="62.394146"/>
      </g>
     </g>
     <g id="text_15">
      <!-- 350 -->
      <g transform="translate(31.5125 66.193364)scale(0.1 -0.1)">
       <use xlink:href="#DejaVuSans-33"/>
       <use x="63.623047" xlink:href="#DejaVuSans-35"/>
       <use x="127.246094" xlink:href="#DejaVuSans-30"/>
      </g>
     </g>
    </g>
    <g id="text_16">
     <!-- Successful download requests per second -->
     <defs>
      <path d="M 53.515625 70.515625 
L 53.515625 60.890625 
Q 47.90625 63.578125 42.921875 64.890625 
Q 37.9375 66.21875 33.296875 66.21875 
Q 25.25 66.21875 20.875 63.09375 
Q 16.5 59.96875 16.5 54.203125 
Q 16.5 49.359375 19.40625 46.890625 
Q 22.3125 44.4375 30.421875 42.921875 
L 36.375 41.703125 
Q 47.40625 39.59375 52.65625 34.296875 
Q 57.90625 29 57.90625 20.125 
Q 57.90625 9.515625 50.796875 4.046875 
Q 43.703125 -1.421875 29.984375 -1.421875 
Q 24.8125 -1.421875 18.96875 -0.25 
Q 13.140625 0.921875 6.890625 3.21875 
L 6.890625 13.375 
Q 12.890625 10.015625 18.65625 8.296875 
Q 24.421875 6.59375 29.984375 6.59375 
Q 38.421875 6.59375 43.015625 9.90625 
Q 47.609375 13.234375 47.609375 19.390625 
Q 47.609375 24.75 44.3125 27.78125 
Q 41.015625 30.8125 33.5 32.328125 
L 27.484375 33.5 
Q 16.453125 35.6875 11.515625 40.375 
Q 6.59375 45.0625 6.59375 53.421875 
Q 6.59375 63.09375 13.40625 68.65625 
Q 20.21875 74.21875 32.171875 74.21875 
Q 37.3125 74.21875 42.625 73.28125 
Q 47.953125 72.359375 53.515625 70.515625 
" id="DejaVuSans-53"/>
      <path d="M 45.40625 46.390625 
L 45.40625 75.984375 
L 54.390625 75.984375 
L 54.390625 0 
L 45.40625 0 
L 45.40625 8.203125 
Q 42.578125 3.328125 38.25 0.953125 
Q 33.9375 -1.421875 27.875 -1.421875 
Q 17.96875 -1.421875 11.734375 6.484375 
Q 5.515625 14.40625 5.515625 27.296875 
Q 5.515625 40.1875 11.734375 48.09375 
Q 17.96875 56 27.875 56 
Q 33.9375 56 38.25 53.625 
Q 42.578125 51.265625 45.40625 46.390625 
M 14.796875 27.296875 
Q 14.796875 17.390625 18.875 11.75 
Q 22.953125 6.109375 30.078125 6.109375 
Q 37.203125 6.109375 41.296875 11.75 
Q 45.40625 17.390625 45.40625 27.296875 
Q 45.40625 37.203125 41.296875 42.84375 
Q 37.203125 48.484375 30.078125 48.484375 
Q 22.953125 48.484375 18.875 42.84375 
Q 14.796875 37.203125 14.796875 27.296875 
" id="DejaVuSans-64"/>
      <path d="M 4.203125 54.6875 
L 13.1875 54.6875 
L 24.421875 12.015625 
L 35.59375 54.6875 
L 46.1875 54.6875 
L 57.421875 12.015625 
L 68.609375 54.6875 
L 77.59375 54.6875 
L 63.28125 0 
L 52.6875 0 
L 40.921875 44.828125 
L 29.109375 0 
L 18.5 0 
z
" id="DejaVuSans-77"/>
      <path d="M 34.28125 27.484375 
Q 23.390625 27.484375 19.1875 25 
Q 14.984375 22.515625 14.984375 16.5 
Q 14.984375 11.71875 18.140625 8.90625 
Q 21.296875 6.109375 26.703125 6.109375 
Q 34.1875 6.109375 38.703125 11.40625 
Q 43.21875 16.703125 43.21875 25.484375 
L 43.21875 27.484375 
z
M 52.203125 31.203125 
L 52.203125 0 
L 43.21875 0 
L 43.21875 8.296875 
Q 40.140625 3.328125 35.546875 0.953125 
Q 30.953125 -1.421875 24.3125 -1.421875 
Q 15.921875 -1.421875 10.953125 3.296875 
Q 6 8.015625 6 15.921875 
Q 6 25.140625 12.171875 29.828125 
Q 18.359375 34.515625 30.609375 34.515625 
L 43.21875 34.515625 
L 43.21875 35.40625 
Q 43.21875 41.609375 39.140625 45 
Q 35.0625 48.390625 27.6875 48.390625 
Q 23 48.390625 18.546875 47.265625 
Q 14.109375 46.140625 10.015625 43.890625 
L 10.015625 52.203125 
Q 14.9375 54.109375 19.578125 55.046875 
Q 24.21875 56 28.609375 56 
Q 40.484375 56 46.34375 49.84375 
Q 52.203125 43.703125 52.203125 31.203125 
" id="DejaVuSans-61"/>
      <path d="M 14.796875 27.296875 
Q 14.796875 17.390625 18.875 11.75 
Q 22.953125 6.109375 30.078125 6.109375 
Q 37.203125 6.109375 41.296875 11.75 
Q 45.40625 17.390625 45.40625 27.296875 
Q 45.40625 37.203125 41.296875 42.84375 
Q 37.203125 48.484375 30.078125 48.484375 
Q 22.953125 48.484375 18.875 42.84375 
Q 14.796875 37.203125 14.796875 27.296875 
M 45.40625 8.203125 
Q 42.578125 3.328125 38.25 0.953125 
Q 33.9375 -1.421875 27.875 -1.421875 
Q 17.96875 -1.421875 11.734375 6.484375 
Q 5.515625 14.40625 5.515625 27.296875 
Q 5.515625 40.1875 11.734375 48.09375 
Q 17.96875 56 27.875 56 
Q 33.9375 56 38.25 53.625 
Q 42.578125 51.265625 45.40625 46.390625 
L 45.40625 54.6875 
L 54.390625 54.6875 
L 54.390625 -20.796875 
L 45.40625 -20.796875 
z
" id="DejaVuSans-71"/>
      <path d="M 18.109375 8.203125 
L 18.109375 -20.796875 
L 9.078125 -20.796875 
L 9.078125 54.6875 
L 18.109375 54.6875 
L 18.109375 46.390625 
Q 20.953125 51.265625 25.265625 53.625 
Q 29.59375 56 35.59375 56 
Q 45.5625 56 51.78125 48.09375 
Q 58.015625 40.1875 58.015625 27.296875 
Q 58.015625 14.40625 51.78125 6.484375 
Q 45.5625 -1.421875 35.59375 -1.421875 
Q 29.59375 -1.421875 25.265625 0.953125 
Q 20.953125 3.328125 18.109375 8.203125 
M 48.6875 27.296875 
Q 48.6875 37.203125 44.609375 42.84375 
Q 40.53125 48.484375 33.40625 48.484375 
Q 26.265625 48.484375 22.1875 42.84375 
Q 18.109375 37.203125 18.109375 27.296875 
Q 18.109375 17.390625 22.1875 11.75 
Q 26.265625 6.109375 33.40625 6.109375 
Q 40.53125 6.109375 44.609375 11.75 
Q 48.6875 17.390625 48.6875 27.296875 
" id="DejaVuSans-70"/>
     </defs>
     <g transform="translate(25.432812 279.366281)rotate(-90)scale(0.1 -0.1)">
      <use xlink:href="#DejaVuSans-53"/>
      <use x="63.476562" xlink:href="#DejaVuSans-75"/>
      <use x="126.855469" xlink:href="#DejaVuSans-63"/>
      <use x="181.835938" xlink:href="#DejaVuSans-63"/>
      <use x="236.816406" xlink:href="#DejaVuSans-65"/>
      <use x="298.339844" xlink:href="#DejaVuSans-73"/>
      <use x="350.439453" xlink:href="#DejaVuSans-73"/>
      <use x="402.539062" xlink:href="#DejaVuSans-66"/>
      <use x="437.744141" xlink:href="#DejaVuSans-75"/>
      <use x="501.123047" xlink:href="#DejaVuSans-6c"/>
      <use x="528.90625" xlink:href="#DejaVuSans-20"/>
      <use x="560.693359" xlink:href="#DejaVuSans-64"/>
      <use x="624.169922" xlink:href="#DejaVuSans-6f"/>
      <use x="685.351562" xlink:href="#DejaVuSans-77"/>
      <use x="767.138672" xlink:href="#DejaVuSans-6e"/>
      <use x="830.517578" xlink:href="#DejaVuSans-6c"/>
      <use x="858.300781" xlink:href="#DejaVuSans-6f"/>
      <use x="919.482422" xlink:href="#DejaVuSans-61"/>
      <use x="980.761719" xlink:href="#DejaVuSans-64"/>
      <use x="1044.238281" xlink:href="#DejaVuSans-20"/>
      <use x="1076.025391" xlink:href="#DejaVuSans-72"/>
      <use x="1117.107422" xlink:href="#DejaVuSans-65"/>
      <use x="1178.630859" xlink:href="#DejaVuSans-71"/>
      <use x="1242.107422" xlink:href="#DejaVuSans-75"/>
      <use x="1305.486328" xlink:href="#DejaVuSans-65"/>
      <use x="1367.009766" xlink:href="#DejaVuSans-73"/>
      <use x="1419.109375" xlink:href="#DejaVuSans-74"/>
      <use x="1458.318359" xlink:href="#DejaVuSans-73"/>
      <use x="1510.417969" xlink:href="#DejaVuSans-20"/>
      <use x="1542.205078" xlink:href="#DejaVuSans-70"/>
      <use x="1605.681641" xlink:href="#DejaVuSans-65"/>
      <use x="1667.205078" xlink:href="#DejaVuSans-72"/>
      <use x="1708.318359" xlink:href="#DejaVuSans-20"/>
      <use x="1740.105469" xlink:href="#DejaVuSans-73"/>
      <use x="1792.205078" xlink:href="#DejaVuSans-65"/>
      <use x="1853.728516" xlink:href="#DejaVuSans-63"/>
      <use x="1908.708984" xlink:href="#DejaVuSans-6f"/>
      <use x="1969.890625" xlink:href="#DejaVuSans-6e"/>
      <use x="2033.269531" xlink:href="#DejaVuSans-64"/>
     </g>
    </g>
   </g>
   <g id="line2d_29">
    <path clip-path="url(#p91cb4b81cb)" d="M 57.6 295.488 
L 57.95712 295.482658 
L 59.74272 292.149731 
L 60.45696 291.071922 
L 60.81408 290.171745 
L 61.1712 289.82316 
L 61.52832 288.798106 
L 62.9568 286.590401 
L 63.31392 285.468518 
L 64.02816 284.768677 
L 64.38528 284.023426 
L 64.7424 282.800708 
L 65.09952 282.390686 
L 65.45664 281.636086 
L 65.81376 281.271475 
L 66.17088 280.335237 
L 66.528 279.912527 
L 66.88512 278.830044 
L 67.24224 279.273455 
L 67.95648 277.027686 
L 68.3136 276.828017 
L 68.67072 275.923833 
L 69.02784 275.94587 
L 69.38496 275.211972 
L 69.74208 273.694759 
L 70.0992 272.789907 
L 70.45632 273.241999 
L 70.81344 272.375211 
L 71.17056 272.301755 
L 71.8848 269.937119 
L 72.24192 270.44998 
L 72.95616 268.874002 
L 73.31328 266.741089 
L 73.6704 266.126057 
L 74.02752 266.164789 
L 74.38464 265.689324 
L 74.74176 265.912365 
L 75.09888 263.975114 
L 75.456 263.737381 
L 75.81312 262.968758 
L 76.17024 263.135037 
L 76.52736 261.331344 
L 76.88448 261.836191 
L 77.2416 261.85155 
L 77.59872 260.951373 
L 77.95584 258.370374 
L 78.31296 257.832806 
L 78.67008 259.202437 
L 79.0272 258.158686 
L 79.38432 255.430107 
L 79.74144 256.168679 
L 80.09856 254.146619 
L 80.45568 254.491197 
L 80.8128 252.838424 
L 81.16992 253.205707 
L 81.88416 250.970622 
L 82.24128 251.880817 
L 82.5984 250.912525 
L 82.95552 249.569605 
L 83.31264 250.953928 
L 83.66976 249.667769 
L 84.02688 249.515514 
L 84.384 246.529836 
L 84.74112 248.696806 
L 85.09824 246.30546 
L 85.45536 247.054717 
L 85.81248 246.041684 
L 86.1696 245.968895 
L 86.52672 244.171879 
L 86.88384 241.729113 
L 87.24096 242.501075 
L 87.59808 241.855325 
L 87.9552 240.22392 
L 88.66944 240.442287 
L 89.02656 238.012876 
L 89.38368 238.25929 
L 89.7408 238.786842 
L 90.09792 236.329384 
L 90.45504 236.472291 
L 90.81216 234.384787 
L 91.16928 233.505979 
L 91.5264 236.259267 
L 91.88352 232.187099 
L 92.59776 233.045206 
L 92.95488 230.448181 
L 93.312 230.715296 
L 93.66912 229.216113 
L 94.02624 230.470218 
L 94.38336 230.997102 
L 94.74048 230.286576 
L 95.0976 230.55703 
L 95.45472 227.653491 
L 95.81184 227.812424 
L 96.16896 224.079493 
L 96.52608 226.046794 
L 96.8832 224.293185 
L 97.24032 226.976354 
L 97.59744 222.170289 
L 97.95456 221.383635 
L 98.31168 220.050731 
L 98.6688 221.141228 
L 99.02592 220.098812 
L 99.38304 219.826355 
L 99.74016 222.080805 
L 100.09728 218.57225 
L 100.4544 220.86009 
L 101.16864 220.18696 
L 101.52576 216.281739 
L 101.88288 213.818272 
L 102.24 217.53718 
L 102.59712 212.443965 
L 102.95424 217.009628 
L 103.31136 216.488754 
L 103.66848 213.955168 
L 104.0256 214.18088 
L 104.38272 210.562141 
L 104.73984 210.871994 
L 105.09696 210.443942 
L 105.45408 211.973175 
L 105.8112 210.75847 
L 106.16832 211.613238 
L 106.52544 206.067264 
L 106.88256 205.461581 
L 107.23968 204.135355 
L 107.5968 208.185485 
L 107.95392 208.124049 
L 108.31104 206.345063 
L 109.02528 200.64483 
L 109.3824 200.347665 
L 110.09664 201.528313 
L 110.45376 202.821817 
L 110.81088 201.216456 
L 111.168 202.535336 
L 111.52512 201.064869 
L 111.88224 198.168675 
L 112.23936 201.071546 
L 112.59648 198.081862 
L 112.9536 198.655492 
L 113.31072 194.832409 
L 113.66784 198.17602 
L 114.02496 196.503213 
L 114.38208 191.064085 
L 114.7392 196.281508 
L 115.09632 189.381261 
L 115.45344 193.50418 
L 115.81056 189.74654 
L 116.16768 189.998964 
L 116.5248 192.320861 
L 116.88192 190.240703 
L 117.23904 191.133535 
L 117.59616 191.250398 
L 117.95328 189.180924 
L 118.3104 184.3201 
L 118.66752 181.992193 
L 119.02464 187.065374 
L 119.38176 187.280402 
L 119.73888 183.129435 
L 120.096 186.611279 
L 120.45312 186.182559 
L 120.81024 183.754484 
L 121.16736 178.784811 
L 121.52448 183.522094 
L 121.8816 181.976166 
L 122.23872 177.021852 
L 122.59584 181.431252 
L 122.95296 182.66933 
L 123.31008 180.015543 
L 123.6672 182.887028 
L 124.02432 178.116355 
L 124.38144 179.615538 
L 124.73856 175.136688 
L 125.09568 181.171483 
L 125.4528 180.756119 
L 125.80992 173.317635 
L 126.16704 174.124323 
L 126.52416 172.246504 
L 126.88128 178.147741 
L 127.2384 177.582793 
L 127.59552 178.100996 
L 127.95264 178.211849 
L 128.30976 177.578787 
L 128.66688 178.933059 
L 129.024 172.890251 
L 129.38112 176.515001 
L 129.73824 173.083242 
L 130.09536 174.2699 
L 130.45248 175.873258 
L 130.8096 169.78504 
L 131.16672 171.710939 
L 131.52384 175.312316 
L 131.88096 168.72259 
L 132.23808 175.923342 
L 132.5952 175.643539 
L 132.95232 172.006101 
L 133.30944 171.503257 
L 133.66656 169.305569 
L 134.02368 170.37069 
L 134.3808 169.547976 
L 134.73792 172.098923 
L 135.09504 166.647107 
L 135.45216 168.006722 
L 135.80928 168.189696 
L 136.1664 171.353673 
L 136.52352 169.023095 
L 136.88064 171.346327 
L 137.23776 171.516613 
L 137.59488 169.001726 
L 137.952 169.505905 
L 138.30912 164.514862 
L 138.66624 166.301861 
L 139.02336 172.028806 
L 139.38048 170.98639 
L 139.7376 168.179012 
L 140.09472 167.503878 
L 140.45184 167.684181 
L 140.80896 169.809081 
L 141.16608 166.238421 
L 141.88032 164.531557 
L 142.23744 165.077139 
L 142.59456 161.096459 
L 142.95168 166.740598 
L 143.3088 160.812649 
L 143.66592 160.653048 
L 144.38016 166.041424 
L 144.73728 163.057082 
L 145.0944 159.071727 
L 145.45152 158.36454 
L 145.80864 166.486838 
L 146.16576 165.570634 
L 146.52288 162.634373 
L 146.88 157.521125 
L 147.23712 160.659726 
L 147.59424 158.884747 
L 147.95136 165.625393 
L 148.30848 160.194278 
L 148.6656 160.275748 
L 149.02272 163.973954 
L 149.37984 164.507517 
L 149.73696 160.787273 
L 150.09408 159.099107 
L 150.4512 158.256359 
L 150.80832 161.473759 
L 151.52256 154.200886 
L 151.87968 158.616296 
L 152.2368 154.582193 
L 152.59392 162.021344 
L 154.0224 154.056644 
L 154.37952 161.097794 
L 154.73664 159.602618 
L 155.09376 154.760492 
L 155.45088 158.299765 
L 155.808 158.650353 
L 156.16512 151.169799 
L 156.87936 160.336517 
L 157.23648 158.260366 
L 157.5936 156.842653 
L 157.95072 153.018903 
L 158.30784 159.006284 
L 158.66496 153.852969 
L 159.02208 153.595871 
L 159.3792 150.334397 
L 159.73632 154.194876 
L 160.09344 153.342112 
L 160.45056 153.417572 
L 160.80768 150.596838 
L 161.1648 149.84157 
L 161.52192 154.244292 
L 162.23616 156.710431 
L 162.59328 155.838969 
L 162.9504 147.65657 
L 163.66464 154.985536 
L 164.02176 151.163789 
L 164.37888 150.104678 
L 164.736 155.816932 
L 165.09312 155.248645 
L 165.45024 145.829504 
L 165.80736 151.922396 
L 166.16448 153.908395 
L 166.5216 149.206504 
L 166.87872 149.50968 
L 167.23584 150.069954 
L 167.59296 146.451882 
L 167.95008 152.486008 
L 168.3072 152.789184 
L 168.66432 149.077621 
L 169.02144 149.710016 
L 169.37856 145.279247 
L 169.73568 151.240585 
L 170.0928 145.491603 
L 170.44992 151.127061 
L 170.80704 149.43422 
L 171.16416 151.609871 
L 171.52128 148.932712 
L 171.8784 142.33564 
L 172.23552 150.337068 
L 172.59264 151.400854 
L 172.94976 146.824507 
L 173.30688 144.85587 
L 173.664 141.381372 
L 174.02112 150.562113 
L 174.37824 151.04893 
L 174.73536 150.455935 
L 175.09248 142.849836 
L 175.4496 149.476291 
L 175.80672 143.167035 
L 176.16384 140.961334 
L 176.52096 149.273951 
L 176.87808 144.187415 
L 177.2352 142.6495 
L 177.59232 144.144008 
L 177.94944 144.747688 
L 178.30656 140.186033 
L 178.66368 141.896236 
L 179.0208 138.730256 
L 179.37792 139.144952 
L 179.73504 143.777393 
L 180.09216 139.82476 
L 180.44928 140.891884 
L 180.8064 138.356295 
L 181.16352 139.615742 
L 181.52064 144.974736 
L 181.87776 143.973055 
L 182.23488 143.372714 
L 182.592 143.434818 
L 182.94912 146.33168 
L 183.30624 141.006743 
L 183.66336 141.609087 
L 184.02048 143.63649 
L 184.3776 137.647105 
L 184.73472 139.788699 
L 185.09184 135.039395 
L 185.44896 144.555365 
L 185.80608 144.672228 
L 186.1632 136.015033 
L 186.52032 135.236393 
L 187.23456 136.001677 
L 187.59168 144.093924 
L 187.9488 138.533927 
L 188.30592 142.746997 
L 188.66304 134.916522 
L 189.37728 140.393047 
L 189.7344 141.410755 
L 190.09152 140.728944 
L 190.44864 136.933908 
L 190.80576 139.730602 
L 191.16288 133.237037 
L 191.52 132.441035 
L 191.87712 136.934576 
L 192.23424 136.756944 
L 192.59136 140.558658 
L 192.94848 139.271164 
L 193.3056 131.178916 
L 193.66272 133.895476 
L 194.37696 131.391941 
L 194.73408 135.941576 
L 195.0912 132.844378 
L 195.44832 136.563954 
L 195.80544 130.286085 
L 196.16256 139.032764 
L 196.51968 132.804311 
L 196.8768 136.284151 
L 197.23392 131.958892 
L 197.59104 137.261124 
L 197.94816 131.80864 
L 198.30528 129.249011 
L 198.6624 133.18495 
L 199.01952 133.331863 
L 199.37664 134.924536 
L 199.73376 132.96458 
L 200.09088 134.383628 
L 200.448 131.232339 
L 200.80512 129.990255 
L 201.51936 136.937915 
L 201.87648 132.776932 
L 202.2336 130.064379 
L 202.59072 126.020927 
L 202.94784 134.15057 
L 203.30496 125.012568 
L 203.66208 136.564622 
L 204.0192 131.661059 
L 204.37632 130.569227 
L 204.73344 127.538807 
L 205.09056 127.164179 
L 205.44768 131.271739 
L 205.8048 126.787547 
L 206.16192 128.380887 
L 206.51904 131.37992 
L 206.87616 126.775527 
L 207.23328 130.9305 
L 207.5904 131.021319 
L 207.94752 133.831368 
L 208.30464 133.258406 
L 208.66176 127.565519 
L 209.01888 129.833993 
L 209.376 129.634992 
L 209.73312 124.887024 
L 210.09024 122.71805 
L 210.44736 130.260041 
L 210.80448 128.142487 
L 211.1616 127.392562 
L 211.51872 122.499016 
L 211.87584 128.40426 
L 212.23296 126.48771 
L 212.59008 125.45264 
L 212.9472 129.755194 
L 213.30432 122.184488 
L 213.66144 123.12874 
L 214.01856 129.996265 
L 214.37568 128.876386 
L 214.7328 124.504382 
L 215.44704 129.159527 
L 215.80416 128.69408 
L 216.16128 119.455909 
L 216.5184 121.936739 
L 216.87552 122.794178 
L 217.23264 122.521721 
L 217.94688 129.019292 
L 218.304 120.008169 
L 218.66112 126.314753 
L 219.01824 124.846957 
L 219.37536 119.023851 
L 219.73248 125.285693 
L 220.0896 126.497059 
L 220.44672 121.425882 
L 220.80384 126.692053 
L 221.16096 122.07831 
L 221.51808 123.745107 
L 221.8752 116.666561 
L 222.23232 124.318069 
L 222.58944 124.732097 
L 222.94656 126.195219 
L 223.30368 116.177073 
L 223.6608 117.548041 
L 224.37504 125.643627 
L 224.73216 121.208183 
L 225.08928 120.838897 
L 225.4464 127.162843 
L 225.80352 120.645906 
L 226.16064 124.602546 
L 226.51776 114.915623 
L 226.87488 122.277979 
L 227.232 123.79853 
L 227.58912 117.253546 
L 227.94624 125.507398 
L 228.30336 125.769839 
L 228.66048 119.543389 
L 229.37472 114.048167 
L 229.73184 120.541064 
L 230.08896 120.173113 
L 230.44608 121.412526 
L 230.8032 120.183797 
L 231.16032 112.360668 
L 231.51744 118.701309 
L 232.23168 113.188057 
L 232.5888 117.453883 
L 232.94592 117.92534 
L 233.66016 112.460836 
L 234.01728 119.282284 
L 234.3744 119.564091 
L 234.73152 120.301328 
L 235.08864 117.375751 
L 235.44576 120.727376 
L 235.80288 121.650926 
L 236.16 115.398433 
L 236.51712 115.09459 
L 236.87424 112.859505 
L 237.23136 115.635498 
L 237.58848 116.44352 
L 237.9456 112.792727 
L 238.30272 114.045496 
L 238.65984 110.91157 
L 239.01696 119.41651 
L 239.37408 115.311621 
L 239.7312 120.000156 
L 240.08832 110.002043 
L 240.44544 114.418121 
L 240.80256 116.471567 
L 241.15968 116.210462 
L 241.5168 109.950624 
L 241.87392 118.816169 
L 242.23104 107.953272 
L 242.58816 116.488262 
L 242.94528 114.945005 
L 243.3024 108.701193 
L 243.65952 114.807441 
L 244.01664 115.753028 
L 244.37376 106.868785 
L 244.73088 115.353023 
L 245.088 118.774098 
L 245.44512 117.706306 
L 245.80224 118.366748 
L 246.15936 110.904224 
L 246.51648 116.293936 
L 246.8736 113.768364 
L 247.23072 108.809375 
L 247.58784 118.285946 
L 248.30208 105.597986 
L 248.6592 117.357721 
L 249.01632 108.176313 
L 249.37344 111.642129 
L 249.73056 109.973328 
L 250.08768 112.747317 
L 250.4448 104.733201 
L 250.80192 113.562018 
L 251.15904 115.901945 
L 251.51616 103.939869 
L 251.87328 116.253201 
L 252.2304 113.880552 
L 252.58752 112.786717 
L 252.94464 116.29861 
L 253.65888 105.194642 
L 254.016 105.79899 
L 254.37312 108.532243 
L 254.73024 107.173964 
L 255.08736 108.976322 
L 255.44448 109.722908 
L 255.8016 109.084503 
L 256.15872 114.619793 
L 256.87296 110.365987 
L 257.23008 104.343213 
L 257.5872 108.324561 
L 258.30144 103.997299 
L 258.65856 114.426135 
L 259.01568 101.615302 
L 259.3728 109.183336 
L 259.72992 111.612079 
L 260.08704 109.479166 
L 260.44416 101.719476 
L 260.80128 103.970588 
L 261.1584 110.964325 
L 261.51552 106.860771 
L 261.87264 111.817757 
L 262.22976 104.488123 
L 262.58688 103.375589 
L 262.944 110.120242 
L 263.30112 112.638468 
L 263.65824 107.761617 
L 264.01536 109.205373 
L 264.37248 104.015997 
L 264.7296 106.192984 
L 265.08672 106.657096 
L 265.44384 102.564227 
L 265.80096 111.912583 
L 266.15808 106.667113 
L 266.5152 105.925869 
L 266.87232 107.712868 
L 267.22944 107.194665 
L 267.58656 99.317445 
L 267.94368 109.456461 
L 268.3008 99.202586 
L 268.65792 97.131777 
L 269.01504 102.994283 
L 269.37216 101.481744 
L 269.72928 96.671672 
L 270.0864 99.835648 
L 270.44352 106.962275 
L 270.80064 109.04644 
L 271.15776 109.775663 
L 271.51488 107.871134 
L 271.872 96.947468 
L 272.22912 106.483472 
L 272.58624 108.716553 
L 272.94336 103.603972 
L 273.6576 100.365871 
L 274.01472 104.263079 
L 274.37184 105.095142 
L 274.72896 103.150545 
L 275.08608 107.016366 
L 275.4432 100.935494 
L 275.80032 99.974548 
L 276.15744 106.687815 
L 276.51456 105.941896 
L 277.2288 96.857317 
L 277.58592 97.49305 
L 277.94304 100.555523 
L 278.30016 102.65705 
L 278.65728 95.048948 
L 279.0144 106.769952 
L 279.37152 106.818701 
L 279.72864 93.039576 
L 280.08576 100.056018 
L 280.44288 96.469332 
L 280.8 94.774488 
L 281.15712 100.35118 
L 281.51424 95.346114 
L 282.22848 105.60867 
L 282.5856 96.865998 
L 282.94272 102.120149 
L 283.29984 98.733799 
L 283.65696 99.870373 
L 284.3712 93.772139 
L 284.72832 96.75982 
L 285.08544 101.27473 
L 285.44256 102.748537 
L 285.79968 92.648253 
L 286.51392 103.208642 
L 286.87104 98.479372 
L 287.22816 99.668701 
L 287.58528 99.475711 
L 287.9424 102.558885 
L 288.29952 104.028685 
L 288.65664 89.965751 
L 289.01376 102.043353 
L 289.37088 99.450335 
L 289.728 99.794245 
L 290.08512 97.935793 
L 290.44224 89.56775 
L 290.79936 97.883706 
L 291.15648 89.171752 
L 291.5136 95.537769 
L 291.87072 89.459568 
L 292.22784 101.794936 
L 292.58496 101.168552 
L 293.2992 95.253959 
L 293.65632 100.322465 
L 294.01344 101.357536 
L 294.37056 95.973834 
L 294.72768 98.906088 
L 295.44192 94.564135 
L 295.79904 100.748514 
L 296.15616 101.071723 
L 296.51328 100.32714 
L 296.8704 90.790468 
L 297.22752 94.100022 
L 297.58464 98.646319 
L 297.94176 90.031862 
L 298.29888 90.483954 
L 298.656 100.459362 
L 299.01312 100.56554 
L 299.37024 91.521028 
L 299.72736 97.14313 
L 300.08448 94.892018 
L 300.4416 99.889739 
L 300.79872 98.050653 
L 301.15584 99.23464 
L 301.51296 89.967754 
L 301.87008 88.534015 
L 302.2272 90.883291 
L 302.58432 87.334001 
L 302.94144 86.326977 
L 303.29856 89.434192 
L 303.65568 99.167861 
L 304.0128 96.090697 
L 304.36992 86.959372 
L 305.08416 96.403221 
L 305.44128 84.775707 
L 305.7984 84.790399 
L 306.15552 84.59674 
L 306.51264 94.358456 
L 306.86976 96.954814 
L 307.22688 93.058942 
L 307.584 91.350074 
L 307.94112 84.493901 
L 308.29824 96.030596 
L 308.65536 84.94399 
L 309.01248 88.09795 
L 309.3696 84.932637 
L 309.72672 84.875208 
L 310.08384 84.982721 
L 310.79808 96.554141 
L 311.1552 89.414158 
L 311.51232 87.155034 
L 311.86944 93.672639 
L 312.22656 86.129312 
L 312.58368 86.149346 
L 312.9408 94.301694 
L 313.29792 86.115289 
L 313.65504 85.323293 
L 314.01216 92.796502 
L 314.36928 90.425856 
L 314.7264 89.06357 
L 315.08352 93.082982 
L 315.44064 90.830536 
L 315.79776 84.212763 
L 316.15488 87.436172 
L 316.512 81.036766 
L 316.86912 80.86047 
L 317.22624 81.864822 
L 318.2976 93.839585 
L 318.65472 90.441883 
L 319.01184 92.50134 
L 319.36896 82.724265 
L 319.72608 84.524619 
L 320.0832 94.22757 
L 320.44032 83.251149 
L 320.79744 78.894504 
L 321.15456 85.080218 
L 321.51168 86.323639 
L 321.8688 88.331007 
L 322.58304 82.561324 
L 322.94016 84.448492 
L 323.29728 84.489894 
L 323.6544 81.660479 
L 324.01152 85.155011 
L 324.36864 81.421411 
L 324.72576 78.953937 
L 325.08288 79.48416 
L 325.44 82.939292 
L 325.79712 79.56563 
L 326.15424 89.264574 
L 326.51136 79.234408 
L 326.86848 78.72355 
L 327.2256 87.102279 
L 327.58272 77.685809 
L 327.93984 91.697991 
L 328.29696 84.888563 
L 328.65408 86.487914 
L 329.0112 78.115196 
L 329.72544 88.108634 
L 330.08256 81.373331 
L 330.43968 89.639871 
L 330.7968 78.825054 
L 331.15392 86.326977 
L 331.51104 82.606066 
L 331.86816 80.597362 
L 332.22528 86.02447 
L 332.5824 82.267498 
L 332.93952 77.299828 
L 333.29664 83.183034 
L 333.65376 76.940558 
L 334.01088 79.311203 
L 334.368 82.785701 
L 334.72512 75.432026 
L 335.08224 84.714939 
L 335.43936 84.547992 
L 335.79648 85.918959 
L 336.1536 76.859088 
L 336.51072 88.697623 
L 336.86784 73.902126 
L 337.22496 87.215135 
L 337.58208 86.224138 
L 337.9392 83.486878 
L 338.29632 74.680098 
L 338.65344 87.59978 
L 339.01056 81.565653 
L 339.36768 84.115266 
L 339.7248 78.996008 
L 340.08192 86.081232 
L 340.43904 77.892155 
L 340.79616 86.330316 
L 341.15328 78.791665 
L 341.86752 72.34351 
L 342.22464 78.208686 
L 342.58176 80.158625 
L 342.93888 85.3273 
L 343.296 83.388713 
L 343.65312 86.475226 
L 344.01024 72.88976 
L 344.36736 81.886859 
L 344.72448 76.686799 
L 345.0816 79.304525 
L 345.43872 86.428481 
L 345.79584 76.89181 
L 346.15296 74.423 
L 346.51008 76.178613 
L 347.22432 84.508592 
L 347.58144 85.876889 
L 347.93856 82.396381 
L 348.29568 77.774625 
L 348.6528 79.775316 
L 349.00992 74.119824 
L 349.36704 80.710886 
L 349.72416 83.808751 
L 350.08128 77.355922 
L 350.4384 78.77497 
L 350.79552 81.622415 
L 351.15264 71.765206 
L 351.50976 75.882783 
L 351.86688 69.85667 
L 352.224 69.798572 
L 353.29536 82.402391 
L 353.65248 84.357005 
L 354.0096 69.098731 
L 354.36672 70.061013 
L 354.72384 71.710447 
L 355.08096 69.18354 
L 355.7952 76.253405 
L 356.15232 71.361862 
L 356.50944 76.339549 
L 356.86656 77.725208 
L 357.5808 70.678716 
L 357.93792 70.095738 
L 358.29504 67.943459 
L 358.65216 76.602658 
L 359.00928 75.397301 
L 359.72352 80.427076 
L 360.08064 80.859802 
L 360.43776 76.298814 
L 360.79488 73.87074 
L 361.152 76.293472 
L 361.50912 81.613066 
L 361.86624 71.158187 
L 362.22336 78.797675 
L 362.58048 81.518241 
L 362.9376 67.618914 
L 363.29472 74.65539 
L 363.65184 74.378926 
L 364.00896 80.699533 
L 364.36608 73.036673 
L 364.7232 72.388252 
L 365.43744 76.504493 
L 365.79456 72.543846 
L 366.15168 77.894826 
L 366.5088 78.575302 
L 366.86592 74.10914 
L 367.22304 67.939452 
L 367.58016 78.515201 
L 367.93728 75.566919 
L 368.2944 77.367942 
L 369.00864 65.200188 
L 369.36576 69.190886 
L 369.72288 70.732139 
L 370.08 69.626951 
L 370.43712 69.447316 
L 370.79424 76.439718 
L 371.15136 79.435412 
L 371.50848 73.30312 
L 371.8656 78.922551 
L 372.22272 69.558836 
L 372.57984 76.762927 
L 372.93696 70.814945 
L 373.29408 67.096704 
L 373.6512 78.552597 
L 374.00832 69.920109 
L 374.36544 65.789177 
L 374.72256 63.174121 
L 375.07968 70.708766 
L 375.4368 67.391199 
L 375.79392 72.23466 
L 376.15104 62.563764 
L 376.50816 77.088139 
L 376.86528 65.543431 
L 377.2224 70.575877 
L 377.57952 68.906408 
L 377.93664 71.352513 
L 378.29376 74.835025 
L 378.65088 69.258332 
L 379.008 70.706763 
L 379.36512 66.504377 
L 379.72224 76.484459 
L 380.07936 62.940396 
L 380.43648 68.238621 
L 380.7936 61.181444 
L 381.50784 63.735731 
L 381.86496 65.765136 
L 382.22208 61.333032 
L 382.5792 70.817616 
L 382.93632 66.945784 
L 383.29344 71.76988 
L 383.65056 71.098754 
L 384.00768 66.330752 
L 384.3648 70.449665 
L 384.72192 69.331789 
L 385.07904 60.852225 
L 385.43616 67.887365 
L 385.79328 69.96218 
L 386.1504 75.930196 
L 386.50752 74.895793 
L 386.86464 69.733129 
L 387.22176 69.093389 
L 387.57888 69.000566 
L 387.936 69.439303 
L 388.29312 72.484413 
L 388.65024 70.334138 
L 389.00736 66.288014 
L 389.36448 71.812619 
L 389.7216 71.156184 
L 390.07872 69.68438 
L 390.43584 66.714062 
L 390.79296 72.1986 
L 391.15008 70.175872 
L 391.5072 72.40094 
L 391.86432 63.226209 
L 392.22144 61.848563 
L 392.57856 67.059976 
L 392.93568 65.882667 
L 393.2928 59.479922 
L 393.64992 70.442319 
L 394.36416 62.505666 
L 394.72128 58.349358 
L 395.0784 72.223308 
L 395.43552 57.65753 
L 395.79264 66.201869 
L 396.14976 60.700637 
L 396.50688 58.094263 
L 396.864 67.370497 
L 397.22112 68.705404 
L 397.57824 72.843015 
L 397.93536 71.630313 
L 398.29248 62.157081 
L 398.6496 71.554185 
L 399.00672 63.771123 
L 399.36384 59.292941 
L 400.07808 68.325433 
L 400.4352 59.940027 
L 400.79232 60.67259 
L 401.50656 58.602449 
L 401.86368 58.509627 
L 402.2208 65.988177 
L 402.57792 64.144416 
L 402.93504 57.220797 
L 403.29216 58.461546 
L 403.64928 55.853836 
L 404.36352 71.064029 
L 404.72064 64.553102 
L 405.43488 68.689377 
L 405.792 59.529338 
L 406.14912 54.291214 
L 406.50624 55.892568 
L 406.86336 56.698587 
L 407.22048 66.16848 
L 407.5776 67.352467 
L 407.93472 67.349796 
L 408.29184 60.4402 
L 408.64896 63.236893 
L 409.00608 56.864198 
L 409.3632 57.775728 
L 409.72032 54.625775 
L 410.07744 65.994855 
L 410.43456 67.421917 
L 410.79168 55.781047 
L 411.1488 56.609771 
L 411.50592 60.810822 
L 411.86304 67.979519 
L 412.22016 61.485955 
L 412.57728 65.54076 
L 412.9344 66.563142 
L 413.29152 62.058249 
L 413.64864 69.224275 
L 414.00576 53.568 
L 414.36288 54.279861 
L 414.72 55.727624 
L 414.72 55.727624 
" style="fill:none;stroke:#000080;stroke-linecap:square;stroke-width:0.5;"/>
   </g>
   <g id="patch_3">
    <path d="M 57.6 307.584 
L 57.6 41.472 
" style="fill:none;stroke:#000000;stroke-linecap:square;stroke-linejoin:miter;stroke-width:0.8;"/>
   </g>
   <g id="patch_4">
    <path d="M 414.72 307.584 
L 414.72 41.472 
" style="fill:none;stroke:#000000;stroke-linecap:square;stroke-linejoin:miter;stroke-width:0.8;"/>
   </g>
   <g id="patch_5">
    <path d="M 57.6 307.584 
L 414.72 307.584 
" style="fill:none;stroke:#000000;stroke-linecap:square;stroke-linejoin:miter;stroke-width:0.8;"/>
   </g>
   <g id="patch_6">
    <path d="M 57.6 41.472 
L 414.72 41.472 
" style="fill:none;stroke:#000000;stroke-linecap:square;stroke-linejoin:miter;stroke-width:0.8;"/>
   </g>
   <g id="text_17">
    <!-- Test -->
    <defs>
     <path d="M -0.296875 72.90625 
L 61.375 72.90625 
L 61.375 64.59375 
L 35.5 64.59375 
L 35.5 0 
L 25.59375 0 
L 25.59375 64.59375 
L -0.296875 64.59375 
z
" id="DejaVuSans-54"/>
    </defs>
    <g transform="translate(223.341563 35.472)scale(0.12 -0.12)">
     <use xlink:href="#DejaVuSans-54"/>
     <use x="60.818359" xlink:href="#DejaVuSans-65"/>
     <use x="122.341797" xlink:href="#DejaVuSans-73"/>
     <use x="174.441406" xlink:href="#DejaVuSans-74"/>
    </g>
   </g>
   <g id="legend_1">
    <g id="patch_7">
     <path d="M 64.6 64.150125 
L 306.276563 64.150125 
Q 308.276563 64.150125 308.276563 62.150125 
L 308.276563 48.472 
Q 308.276563 46.472 306.276563 46.472 
L 64.6 46.472 
Q 62.6 46.472 62.6 48.472 
L 62.6 62.150125 
Q 62.6 64.150125 64.6 64.150125 
z
" style="fill:#ffffff;opacity:0.8;stroke:#cccccc;stroke-linejoin:miter;"/>
    </g>
    <g id="line2d_30">
     <path d="M 66.6 54.570438 
L 86.6 54.570438 
" style="fill:none;stroke:#000080;stroke-linecap:square;stroke-width:0.5;"/>
    </g>
    <g id="line2d_31"/>
    <g id="text_18">
     <!-- Successful download requests per second -->
     <g transform="translate(94.6 58.070438)scale(0.1 -0.1)">
      <use xlink:href="#DejaVuSans-53"/>
      <use x="63.476562" xlink:href="#DejaVuSans-75"/>
      <use x="126.855469" xlink:href="#DejaVuSans-63"/>
      <use x="181.835938" xlink:href="#DejaVuSans-63"/>
      <use x="236.816406" xlink:href="#DejaVuSans-65"/>
      <use x="298.339844" xlink:href="#DejaVuSans-73"/>
      <use x="350.439453" xlink:href="#DejaVuSans-73"/>
      <use x="402.539062" xlink:href="#DejaVuSans-66"/>
      <use x="437.744141" xlink:href="#DejaVuSans-75"/>
      <use x="501.123047" xlink:href="#DejaVuSans-6c"/>
      <use x="528.90625" xlink:href="#DejaVuSans-20"/>
      <use x="560.693359" xlink:href="#DejaVuSans-64"/>
      <use x="624.169922" xlink:href="#DejaVuSans-6f"/>
      <use x="685.351562" xlink:href="#DejaVuSans-77"/>
      <use x="767.138672" xlink:href="#DejaVuSans-6e"/>
      <use x="830.517578" xlink:href="#DejaVuSans-6c"/>
      <use x="858.300781" xlink:href="#DejaVuSans-6f"/>
      <use x="919.482422" xlink:href="#DejaVuSans-61"/>
      <use x="980.761719" xlink:href="#DejaVuSans-64"/>
      <use x="1044.238281" xlink:href="#DejaVuSans-20"/>
      <use x="1076.025391" xlink:href="#DejaVuSans-72"/>
      <use x="1117.107422" xlink:href="#DejaVuSans-65"/>
      <use x="1178.630859" xlink:href="#DejaVuSans-71"/>
      <use x="1242.107422" xlink:href="#DejaVuSans-75"/>
      <use x="1305.486328" xlink:href="#DejaVuSans-65"/>
      <use x="1367.009766" xlink:href="#DejaVuSans-73"/>
      <use x="1419.109375" xlink:href="#DejaVuSans-74"/>
      <use x="1458.318359" xlink:href="#DejaVuSans-73"/>
      <use x="1510.417969" xlink:href="#DejaVuSans-20"/>
      <use x="1542.205078" xlink:href="#DejaVuSans-70"/>
      <use x="1605.681641" xlink:href="#DejaVuSans-65"/>
      <use x="1667.205078" xlink:href="#DejaVuSans-72"/>
      <use x="1708.318359" xlink:href="#DejaVuSans-20"/>
      <use x="1740.105469" xlink:href="#DejaVuSans-73"/>
      <use x="1792.205078" xlink:href="#DejaVuSans-65"/>
      <use x="1853.728516" xlink:href="#DejaVuSans-63"/>
      <use x="1908.708984" xlink:href="#DejaVuSans-6f"/>
      <use x="1969.890625" xlink:href="#DejaVuSans-6e"/>
      <use x="2033.269531" xlink:href="#DejaVuSans-64"/>
     </g>
    </g>
   </g>
  </g>
 </g>
 <defs>
  <clipPath id="p91cb4b81cb">
   <rect height="266.112" width="357.12" x="57.6" y="41.472"/>
  </clipPath>
 </defs>
</svg>
