<?xml version="1.0" encoding="utf-8" standalone="no"?>
<!DOCTYPE svg PUBLIC "-//W3C//DTD SVG 1.1//EN"
  "http://www.w3.org/Graphics/SVG/1.1/DTD/svg11.dtd">
<!-- Created with matplotlib (http://matplotlib.org/) -->
<svg height="345pt" version="1.1" viewBox="0 0 460 345" width="460pt" xmlns="http://www.w3.org/2000/svg" xmlns:xlink="http://www.w3.org/1999/xlink">
 <defs>
  <style type="text/css">
*{stroke-linecap:butt;stroke-linejoin:round;}
  </style>
 </defs>
 <g id="figure_1">
  <g id="patch_1">
   <path d="M 0 345.6 
L 460.8 345.6 
L 460.8 0 
L 0 0 
z
" style="fill:#ffffff;"/>
  </g>
  <g id="axes_1">
   <g id="patch_2">
    <path d="M 57.6 307.584 
L 414.72 307.584 
L 414.72 41.472 
L 57.6 41.472 
z
" style="fill:#ffffff;"/>
   </g>
   <g id="matplotlib.axis_1">
    <g id="xtick_1">
     <g id="line2d_1">
      <path clip-path="url(#pb93ca32a8f)" d="M 57.6 307.584 
L 57.6 41.472 
" style="fill:none;stroke:#b0b0b0;stroke-linecap:square;stroke-width:0.8;"/>
     </g>
     <g id="line2d_2">
      <defs>
       <path d="M 0 0 
L 0 3.5 
" id="m29da908b2a" style="stroke:#000000;stroke-width:0.8;"/>
      </defs>
      <g>
       <use style="stroke:#000000;stroke-width:0.8;" x="57.6" xlink:href="#m29da908b2a" y="307.584"/>
      </g>
     </g>
     <g id="text_1">
      <!-- 0 -->
      <defs>
       <path d="M 31.78125 66.40625 
Q 24.171875 66.40625 20.328125 58.90625 
Q 16.5 51.421875 16.5 36.375 
Q 16.5 21.390625 20.328125 13.890625 
Q 24.171875 6.390625 31.78125 6.390625 
Q 39.453125 6.390625 43.28125 13.890625 
Q 47.125 21.390625 47.125 36.375 
Q 47.125 51.421875 43.28125 58.90625 
Q 39.453125 66.40625 31.78125 66.40625 
M 31.78125 74.21875 
Q 44.046875 74.21875 50.515625 64.515625 
Q 56.984375 54.828125 56.984375 36.375 
Q 56.984375 17.96875 50.515625 8.265625 
Q 44.046875 -1.421875 31.78125 -1.421875 
Q 19.53125 -1.421875 13.0625 8.265625 
Q 6.59375 17.96875 6.59375 36.375 
Q 6.59375 54.828125 13.0625 64.515625 
Q 19.53125 74.21875 31.78125 74.21875 
" id="DejaVuSans-30"/>
      </defs>
      <g transform="translate(54.41875 322.182437)scale(0.1 -0.1)">
       <use xlink:href="#DejaVuSans-30"/>
      </g>
     </g>
    </g>
    <g id="xtick_2">
     <g id="line2d_3">
      <path clip-path="url(#pb93ca32a8f)" d="M 129.024 307.584 
L 129.024 41.472 
" style="fill:none;stroke:#b0b0b0;stroke-linecap:square;stroke-width:0.8;"/>
     </g>
     <g id="line2d_4">
      <g>
       <use style="stroke:#000000;stroke-width:0.8;" x="129.024" xlink:href="#m29da908b2a" y="307.584"/>
      </g>
     </g>
     <g id="text_2">
      <!-- 200 -->
      <defs>
       <path d="M 19.1875 8.296875 
L 53.609375 8.296875 
L 53.609375 0 
L 7.328125 0 
L 7.328125 8.296875 
Q 12.9375 14.109375 22.625 23.890625 
Q 32.328125 33.6875 34.8125 36.53125 
Q 39.546875 41.84375 41.421875 45.53125 
Q 43.3125 49.21875 43.3125 52.78125 
Q 43.3125 58.59375 39.234375 62.25 
Q 35.15625 65.921875 28.609375 65.921875 
Q 23.96875 65.921875 18.8125 64.3125 
Q 13.671875 62.703125 7.8125 59.421875 
L 7.8125 69.390625 
Q 13.765625 71.78125 18.9375 73 
Q 24.125 74.21875 28.421875 74.21875 
Q 39.75 74.21875 46.484375 68.546875 
Q 53.21875 62.890625 53.21875 53.421875 
Q 53.21875 48.921875 51.53125 44.890625 
Q 49.859375 40.875 45.40625 35.40625 
Q 44.1875 33.984375 37.640625 27.21875 
Q 31.109375 20.453125 19.1875 8.296875 
" id="DejaVuSans-32"/>
      </defs>
      <g transform="translate(119.48025 322.182437)scale(0.1 -0.1)">
       <use xlink:href="#DejaVuSans-32"/>
       <use x="63.623047" xlink:href="#DejaVuSans-30"/>
       <use x="127.246094" xlink:href="#DejaVuSans-30"/>
      </g>
     </g>
    </g>
    <g id="xtick_3">
     <g id="line2d_5">
      <path clip-path="url(#pb93ca32a8f)" d="M 200.448 307.584 
L 200.448 41.472 
" style="fill:none;stroke:#b0b0b0;stroke-linecap:square;stroke-width:0.8;"/>
     </g>
     <g id="line2d_6">
      <g>
       <use style="stroke:#000000;stroke-width:0.8;" x="200.448" xlink:href="#m29da908b2a" y="307.584"/>
      </g>
     </g>
     <g id="text_3">
      <!-- 400 -->
      <defs>
       <path d="M 37.796875 64.3125 
L 12.890625 25.390625 
L 37.796875 25.390625 
z
M 35.203125 72.90625 
L 47.609375 72.90625 
L 47.609375 25.390625 
L 58.015625 25.390625 
L 58.015625 17.1875 
L 47.609375 17.1875 
L 47.609375 0 
L 37.796875 0 
L 37.796875 17.1875 
L 4.890625 17.1875 
L 4.890625 26.703125 
z
" id="DejaVuSans-34"/>
      </defs>
      <g transform="translate(190.90425 322.182437)scale(0.1 -0.1)">
       <use xlink:href="#DejaVuSans-34"/>
       <use x="63.623047" xlink:href="#DejaVuSans-30"/>
       <use x="127.246094" xlink:href="#DejaVuSans-30"/>
      </g>
     </g>
    </g>
    <g id="xtick_4">
     <g id="line2d_7">
      <path clip-path="url(#pb93ca32a8f)" d="M 271.872 307.584 
L 271.872 41.472 
" style="fill:none;stroke:#b0b0b0;stroke-linecap:square;stroke-width:0.8;"/>
     </g>
     <g id="line2d_8">
      <g>
       <use style="stroke:#000000;stroke-width:0.8;" x="271.872" xlink:href="#m29da908b2a" y="307.584"/>
      </g>
     </g>
     <g id="text_4">
      <!-- 600 -->
      <defs>
       <path d="M 33.015625 40.375 
Q 26.375 40.375 22.484375 35.828125 
Q 18.609375 31.296875 18.609375 23.390625 
Q 18.609375 15.53125 22.484375 10.953125 
Q 26.375 6.390625 33.015625 6.390625 
Q 39.65625 6.390625 43.53125 10.953125 
Q 47.40625 15.53125 47.40625 23.390625 
Q 47.40625 31.296875 43.53125 35.828125 
Q 39.65625 40.375 33.015625 40.375 
M 52.59375 71.296875 
L 52.59375 62.3125 
Q 48.875 64.0625 45.09375 64.984375 
Q 41.3125 65.921875 37.59375 65.921875 
Q 27.828125 65.921875 22.671875 59.328125 
Q 17.53125 52.734375 16.796875 39.40625 
Q 19.671875 43.65625 24.015625 45.921875 
Q 28.375 48.1875 33.59375 48.1875 
Q 44.578125 48.1875 50.953125 41.515625 
Q 57.328125 34.859375 57.328125 23.390625 
Q 57.328125 12.15625 50.6875 5.359375 
Q 44.046875 -1.421875 33.015625 -1.421875 
Q 20.359375 -1.421875 13.671875 8.265625 
Q 6.984375 17.96875 6.984375 36.375 
Q 6.984375 53.65625 15.1875 63.9375 
Q 23.390625 74.21875 37.203125 74.21875 
Q 40.921875 74.21875 44.703125 73.484375 
Q 48.484375 72.75 52.59375 71.296875 
" id="DejaVuSans-36"/>
      </defs>
      <g transform="translate(262.32825 322.182437)scale(0.1 -0.1)">
       <use xlink:href="#DejaVuSans-36"/>
       <use x="63.623047" xlink:href="#DejaVuSans-30"/>
       <use x="127.246094" xlink:href="#DejaVuSans-30"/>
      </g>
     </g>
    </g>
    <g id="xtick_5">
     <g id="line2d_9">
      <path clip-path="url(#pb93ca32a8f)" d="M 343.296 307.584 
L 343.296 41.472 
" style="fill:none;stroke:#b0b0b0;stroke-linecap:square;stroke-width:0.8;"/>
     </g>
     <g id="line2d_10">
      <g>
       <use style="stroke:#000000;stroke-width:0.8;" x="343.296" xlink:href="#m29da908b2a" y="307.584"/>
      </g>
     </g>
     <g id="text_5">
      <!-- 800 -->
      <defs>
       <path d="M 31.78125 34.625 
Q 24.75 34.625 20.71875 30.859375 
Q 16.703125 27.09375 16.703125 20.515625 
Q 16.703125 13.921875 20.71875 10.15625 
Q 24.75 6.390625 31.78125 6.390625 
Q 38.8125 6.390625 42.859375 10.171875 
Q 46.921875 13.96875 46.921875 20.515625 
Q 46.921875 27.09375 42.890625 30.859375 
Q 38.875 34.625 31.78125 34.625 
M 21.921875 38.8125 
Q 15.578125 40.375 12.03125 44.71875 
Q 8.5 49.078125 8.5 55.328125 
Q 8.5 64.0625 14.71875 69.140625 
Q 20.953125 74.21875 31.78125 74.21875 
Q 42.671875 74.21875 48.875 69.140625 
Q 55.078125 64.0625 55.078125 55.328125 
Q 55.078125 49.078125 51.53125 44.71875 
Q 48 40.375 41.703125 38.8125 
Q 48.828125 37.15625 52.796875 32.3125 
Q 56.78125 27.484375 56.78125 20.515625 
Q 56.78125 9.90625 50.3125 4.234375 
Q 43.84375 -1.421875 31.78125 -1.421875 
Q 19.734375 -1.421875 13.25 4.234375 
Q 6.78125 9.90625 6.78125 20.515625 
Q 6.78125 27.484375 10.78125 32.3125 
Q 14.796875 37.15625 21.921875 38.8125 
M 18.3125 54.390625 
Q 18.3125 48.734375 21.84375 45.5625 
Q 25.390625 42.390625 31.78125 42.390625 
Q 38.140625 42.390625 41.71875 45.5625 
Q 45.3125 48.734375 45.3125 54.390625 
Q 45.3125 60.0625 41.71875 63.234375 
Q 38.140625 66.40625 31.78125 66.40625 
Q 25.390625 66.40625 21.84375 63.234375 
Q 18.3125 60.0625 18.3125 54.390625 
" id="DejaVuSans-38"/>
      </defs>
      <g transform="translate(333.75225 322.182437)scale(0.1 -0.1)">
       <use xlink:href="#DejaVuSans-38"/>
       <use x="63.623047" xlink:href="#DejaVuSans-30"/>
       <use x="127.246094" xlink:href="#DejaVuSans-30"/>
      </g>
     </g>
    </g>
    <g id="xtick_6">
     <g id="line2d_11">
      <path clip-path="url(#pb93ca32a8f)" d="M 414.72 307.584 
L 414.72 41.472 
" style="fill:none;stroke:#b0b0b0;stroke-linecap:square;stroke-width:0.8;"/>
     </g>
     <g id="line2d_12">
      <g>
       <use style="stroke:#000000;stroke-width:0.8;" x="414.72" xlink:href="#m29da908b2a" y="307.584"/>
      </g>
     </g>
     <g id="text_6">
      <!-- 1000 -->
      <defs>
       <path d="M 12.40625 8.296875 
L 28.515625 8.296875 
L 28.515625 63.921875 
L 10.984375 60.40625 
L 10.984375 69.390625 
L 28.421875 72.90625 
L 38.28125 72.90625 
L 38.28125 8.296875 
L 54.390625 8.296875 
L 54.390625 0 
L 12.40625 0 
z
" id="DejaVuSans-31"/>
      </defs>
      <g transform="translate(401.995 322.182437)scale(0.1 -0.1)">
       <use xlink:href="#DejaVuSans-31"/>
       <use x="63.623047" xlink:href="#DejaVuSans-30"/>
       <use x="127.246094" xlink:href="#DejaVuSans-30"/>
       <use x="190.869141" xlink:href="#DejaVuSans-30"/>
      </g>
     </g>
    </g>
    <g id="text_7">
     <!-- Number of clients -->
     <defs>
      <path d="M 9.8125 72.90625 
L 23.09375 72.90625 
L 55.421875 11.921875 
L 55.421875 72.90625 
L 64.984375 72.90625 
L 64.984375 0 
L 51.703125 0 
L 19.390625 60.984375 
L 19.390625 0 
L 9.8125 0 
z
" id="DejaVuSans-4e"/>
      <path d="M 8.5 21.578125 
L 8.5 54.6875 
L 17.484375 54.6875 
L 17.484375 21.921875 
Q 17.484375 14.15625 20.5 10.265625 
Q 23.53125 6.390625 29.59375 6.390625 
Q 36.859375 6.390625 41.078125 11.03125 
Q 45.3125 15.671875 45.3125 23.6875 
L 45.3125 54.6875 
L 54.296875 54.6875 
L 54.296875 0 
L 45.3125 0 
L 45.3125 8.40625 
Q 42.046875 3.421875 37.71875 1 
Q 33.40625 -1.421875 27.6875 -1.421875 
Q 18.265625 -1.421875 13.375 4.4375 
Q 8.5 10.296875 8.5 21.578125 
M 31.109375 56 
z
" id="DejaVuSans-75"/>
      <path d="M 52 44.1875 
Q 55.375 50.25 60.0625 53.125 
Q 64.75 56 71.09375 56 
Q 79.640625 56 84.28125 50.015625 
Q 88.921875 44.046875 88.921875 33.015625 
L 88.921875 0 
L 79.890625 0 
L 79.890625 32.71875 
Q 79.890625 40.578125 77.09375 44.375 
Q 74.3125 48.1875 68.609375 48.1875 
Q 61.625 48.1875 57.5625 43.546875 
Q 53.515625 38.921875 53.515625 30.90625 
L 53.515625 0 
L 44.484375 0 
L 44.484375 32.71875 
Q 44.484375 40.625 41.703125 44.40625 
Q 38.921875 48.1875 33.109375 48.1875 
Q 26.21875 48.1875 22.15625 43.53125 
Q 18.109375 38.875 18.109375 30.90625 
L 18.109375 0 
L 9.078125 0 
L 9.078125 54.6875 
L 18.109375 54.6875 
L 18.109375 46.1875 
Q 21.1875 51.21875 25.484375 53.609375 
Q 29.78125 56 35.6875 56 
Q 41.65625 56 45.828125 52.96875 
Q 50 49.953125 52 44.1875 
" id="DejaVuSans-6d"/>
      <path d="M 48.6875 27.296875 
Q 48.6875 37.203125 44.609375 42.84375 
Q 40.53125 48.484375 33.40625 48.484375 
Q 26.265625 48.484375 22.1875 42.84375 
Q 18.109375 37.203125 18.109375 27.296875 
Q 18.109375 17.390625 22.1875 11.75 
Q 26.265625 6.109375 33.40625 6.109375 
Q 40.53125 6.109375 44.609375 11.75 
Q 48.6875 17.390625 48.6875 27.296875 
M 18.109375 46.390625 
Q 20.953125 51.265625 25.265625 53.625 
Q 29.59375 56 35.59375 56 
Q 45.5625 56 51.78125 48.09375 
Q 58.015625 40.1875 58.015625 27.296875 
Q 58.015625 14.40625 51.78125 6.484375 
Q 45.5625 -1.421875 35.59375 -1.421875 
Q 29.59375 -1.421875 25.265625 0.953125 
Q 20.953125 3.328125 18.109375 8.203125 
L 18.109375 0 
L 9.078125 0 
L 9.078125 75.984375 
L 18.109375 75.984375 
z
" id="DejaVuSans-62"/>
      <path d="M 56.203125 29.59375 
L 56.203125 25.203125 
L 14.890625 25.203125 
Q 15.484375 15.921875 20.484375 11.0625 
Q 25.484375 6.203125 34.421875 6.203125 
Q 39.59375 6.203125 44.453125 7.46875 
Q 49.3125 8.734375 54.109375 11.28125 
L 54.109375 2.78125 
Q 49.265625 0.734375 44.1875 -0.34375 
Q 39.109375 -1.421875 33.890625 -1.421875 
Q 20.796875 -1.421875 13.15625 6.1875 
Q 5.515625 13.8125 5.515625 26.8125 
Q 5.515625 40.234375 12.765625 48.109375 
Q 20.015625 56 32.328125 56 
Q 43.359375 56 49.78125 48.890625 
Q 56.203125 41.796875 56.203125 29.59375 
M 47.21875 32.234375 
Q 47.125 39.59375 43.09375 43.984375 
Q 39.0625 48.390625 32.421875 48.390625 
Q 24.90625 48.390625 20.390625 44.140625 
Q 15.875 39.890625 15.1875 32.171875 
z
" id="DejaVuSans-65"/>
      <path d="M 41.109375 46.296875 
Q 39.59375 47.171875 37.8125 47.578125 
Q 36.03125 48 33.890625 48 
Q 26.265625 48 22.1875 43.046875 
Q 18.109375 38.09375 18.109375 28.8125 
L 18.109375 0 
L 9.078125 0 
L 9.078125 54.6875 
L 18.109375 54.6875 
L 18.109375 46.1875 
Q 20.953125 51.171875 25.484375 53.578125 
Q 30.03125 56 36.53125 56 
Q 37.453125 56 38.578125 55.875 
Q 39.703125 55.765625 41.0625 55.515625 
z
" id="DejaVuSans-72"/>
      <path id="DejaVuSans-20"/>
      <path d="M 30.609375 48.390625 
Q 23.390625 48.390625 19.1875 42.75 
Q 14.984375 37.109375 14.984375 27.296875 
Q 14.984375 17.484375 19.15625 11.84375 
Q 23.34375 6.203125 30.609375 6.203125 
Q 37.796875 6.203125 41.984375 11.859375 
Q 46.1875 17.53125 46.1875 27.296875 
Q 46.1875 37.015625 41.984375 42.703125 
Q 37.796875 48.390625 30.609375 48.390625 
M 30.609375 56 
Q 42.328125 56 49.015625 48.375 
Q 55.71875 40.765625 55.71875 27.296875 
Q 55.71875 13.875 49.015625 6.21875 
Q 42.328125 -1.421875 30.609375 -1.421875 
Q 18.84375 -1.421875 12.171875 6.21875 
Q 5.515625 13.875 5.515625 27.296875 
Q 5.515625 40.765625 12.171875 48.375 
Q 18.84375 56 30.609375 56 
" id="DejaVuSans-6f"/>
      <path d="M 37.109375 75.984375 
L 37.109375 68.5 
L 28.515625 68.5 
Q 23.6875 68.5 21.796875 66.546875 
Q 19.921875 64.59375 19.921875 59.515625 
L 19.921875 54.6875 
L 34.71875 54.6875 
L 34.71875 47.703125 
L 19.921875 47.703125 
L 19.921875 0 
L 10.890625 0 
L 10.890625 47.703125 
L 2.296875 47.703125 
L 2.296875 54.6875 
L 10.890625 54.6875 
L 10.890625 58.5 
Q 10.890625 67.625 15.140625 71.796875 
Q 19.390625 75.984375 28.609375 75.984375 
z
" id="DejaVuSans-66"/>
      <path d="M 48.78125 52.59375 
L 48.78125 44.1875 
Q 44.96875 46.296875 41.140625 47.34375 
Q 37.3125 48.390625 33.40625 48.390625 
Q 24.65625 48.390625 19.8125 42.84375 
Q 14.984375 37.3125 14.984375 27.296875 
Q 14.984375 17.28125 19.8125 11.734375 
Q 24.65625 6.203125 33.40625 6.203125 
Q 37.3125 6.203125 41.140625 7.25 
Q 44.96875 8.296875 48.78125 10.40625 
L 48.78125 2.09375 
Q 45.015625 0.34375 40.984375 -0.53125 
Q 36.96875 -1.421875 32.421875 -1.421875 
Q 20.0625 -1.421875 12.78125 6.34375 
Q 5.515625 14.109375 5.515625 27.296875 
Q 5.515625 40.671875 12.859375 48.328125 
Q 20.21875 56 33.015625 56 
Q 37.15625 56 41.109375 55.140625 
Q 45.0625 54.296875 48.78125 52.59375 
" id="DejaVuSans-63"/>
      <path d="M 9.421875 75.984375 
L 18.40625 75.984375 
L 18.40625 0 
L 9.421875 0 
z
" id="DejaVuSans-6c"/>
      <path d="M 9.421875 54.6875 
L 18.40625 54.6875 
L 18.40625 0 
L 9.421875 0 
z
M 9.421875 75.984375 
L 18.40625 75.984375 
L 18.40625 64.59375 
L 9.421875 64.59375 
z
" id="DejaVuSans-69"/>
      <path d="M 54.890625 33.015625 
L 54.890625 0 
L 45.90625 0 
L 45.90625 32.71875 
Q 45.90625 40.484375 42.875 44.328125 
Q 39.84375 48.1875 33.796875 48.1875 
Q 26.515625 48.1875 22.3125 43.546875 
Q 18.109375 38.921875 18.109375 30.90625 
L 18.109375 0 
L 9.078125 0 
L 9.078125 54.6875 
L 18.109375 54.6875 
L 18.109375 46.1875 
Q 21.34375 51.125 25.703125 53.5625 
Q 30.078125 56 35.796875 56 
Q 45.21875 56 50.046875 50.171875 
Q 54.890625 44.34375 54.890625 33.015625 
" id="DejaVuSans-6e"/>
      <path d="M 18.3125 70.21875 
L 18.3125 54.6875 
L 36.8125 54.6875 
L 36.8125 47.703125 
L 18.3125 47.703125 
L 18.3125 18.015625 
Q 18.3125 11.328125 20.140625 9.421875 
Q 21.96875 7.515625 27.59375 7.515625 
L 36.8125 7.515625 
L 36.8125 0 
L 27.59375 0 
Q 17.1875 0 13.234375 3.875 
Q 9.28125 7.765625 9.28125 18.015625 
L 9.28125 47.703125 
L 2.6875 47.703125 
L 2.6875 54.6875 
L 9.28125 54.6875 
L 9.28125 70.21875 
z
" id="DejaVuSans-74"/>
      <path d="M 44.28125 53.078125 
L 44.28125 44.578125 
Q 40.484375 46.53125 36.375 47.5 
Q 32.28125 48.484375 27.875 48.484375 
Q 21.1875 48.484375 17.84375 46.4375 
Q 14.5 44.390625 14.5 40.28125 
Q 14.5 37.15625 16.890625 35.375 
Q 19.28125 33.59375 26.515625 31.984375 
L 29.59375 31.296875 
Q 39.15625 29.25 43.1875 25.515625 
Q 47.21875 21.78125 47.21875 15.09375 
Q 47.21875 7.46875 41.1875 3.015625 
Q 35.15625 -1.421875 24.609375 -1.421875 
Q 20.21875 -1.421875 15.453125 -0.5625 
Q 10.6875 0.296875 5.421875 2 
L 5.421875 11.28125 
Q 10.40625 8.6875 15.234375 7.390625 
Q 20.0625 6.109375 24.8125 6.109375 
Q 31.15625 6.109375 34.5625 8.28125 
Q 37.984375 10.453125 37.984375 14.40625 
Q 37.984375 18.0625 35.515625 20.015625 
Q 33.0625 21.96875 24.703125 23.78125 
L 21.578125 24.515625 
Q 13.234375 26.265625 9.515625 29.90625 
Q 5.8125 33.546875 5.8125 39.890625 
Q 5.8125 47.609375 11.28125 51.796875 
Q 16.75 56 26.8125 56 
Q 31.78125 56 36.171875 55.265625 
Q 40.578125 54.546875 44.28125 53.078125 
" id="DejaVuSans-73"/>
     </defs>
     <g transform="translate(191.738906 335.860562)scale(0.1 -0.1)">
      <use xlink:href="#DejaVuSans-4e"/>
      <use x="74.804688" xlink:href="#DejaVuSans-75"/>
      <use x="138.183594" xlink:href="#DejaVuSans-6d"/>
      <use x="235.595703" xlink:href="#DejaVuSans-62"/>
      <use x="299.072266" xlink:href="#DejaVuSans-65"/>
      <use x="360.595703" xlink:href="#DejaVuSans-72"/>
      <use x="401.708984" xlink:href="#DejaVuSans-20"/>
      <use x="433.496094" xlink:href="#DejaVuSans-6f"/>
      <use x="494.677734" xlink:href="#DejaVuSans-66"/>
      <use x="529.882812" xlink:href="#DejaVuSans-20"/>
      <use x="561.669922" xlink:href="#DejaVuSans-63"/>
      <use x="616.650391" xlink:href="#DejaVuSans-6c"/>
      <use x="644.433594" xlink:href="#DejaVuSans-69"/>
      <use x="672.216797" xlink:href="#DejaVuSans-65"/>
      <use x="733.740234" xlink:href="#DejaVuSans-6e"/>
      <use x="797.119141" xlink:href="#DejaVuSans-74"/>
      <use x="836.328125" xlink:href="#DejaVuSans-73"/>
     </g>
    </g>
   </g>
   <g id="matplotlib.axis_2">
    <g id="ytick_1">
     <g id="line2d_13">
      <path clip-path="url(#pb93ca32a8f)" d="M 57.6 296.024546 
L 414.72 296.024546 
" style="fill:none;stroke:#b0b0b0;stroke-linecap:square;stroke-width:0.8;"/>
     </g>
     <g id="line2d_14">
      <defs>
       <path d="M 0 0 
L -3.5 0 
" id="mb731855dd9" style="stroke:#000000;stroke-width:0.8;"/>
      </defs>
      <g>
       <use style="stroke:#000000;stroke-width:0.8;" x="57.6" xlink:href="#mb731855dd9" y="296.024546"/>
      </g>
     </g>
     <g id="text_8">
      <!-- 0 -->
      <g transform="translate(44.2375 299.823765)scale(0.1 -0.1)">
       <use xlink:href="#DejaVuSans-30"/>
      </g>
     </g>
    </g>
    <g id="ytick_2">
     <g id="line2d_15">
      <path clip-path="url(#pb93ca32a8f)" d="M 57.6 240.423918 
L 414.72 240.423918 
" style="fill:none;stroke:#b0b0b0;stroke-linecap:square;stroke-width:0.8;"/>
     </g>
     <g id="line2d_16">
      <g>
       <use style="stroke:#000000;stroke-width:0.8;" x="57.6" xlink:href="#mb731855dd9" y="240.423918"/>
      </g>
     </g>
     <g id="text_9">
      <!-- 100 -->
      <g transform="translate(31.5125 244.223137)scale(0.1 -0.1)">
       <use xlink:href="#DejaVuSans-31"/>
       <use x="63.623047" xlink:href="#DejaVuSans-30"/>
       <use x="127.246094" xlink:href="#DejaVuSans-30"/>
      </g>
     </g>
    </g>
    <g id="ytick_3">
     <g id="line2d_17">
      <path clip-path="url(#pb93ca32a8f)" d="M 57.6 184.82329 
L 414.72 184.82329 
" style="fill:none;stroke:#b0b0b0;stroke-linecap:square;stroke-width:0.8;"/>
     </g>
     <g id="line2d_18">
      <g>
       <use style="stroke:#000000;stroke-width:0.8;" x="57.6" xlink:href="#mb731855dd9" y="184.82329"/>
      </g>
     </g>
     <g id="text_10">
      <!-- 200 -->
      <g transform="translate(31.5125 188.622509)scale(0.1 -0.1)">
       <use xlink:href="#DejaVuSans-32"/>
       <use x="63.623047" xlink:href="#DejaVuSans-30"/>
       <use x="127.246094" xlink:href="#DejaVuSans-30"/>
      </g>
     </g>
    </g>
    <g id="ytick_4">
     <g id="line2d_19">
      <path clip-path="url(#pb93ca32a8f)" d="M 57.6 129.222662 
L 414.72 129.222662 
" style="fill:none;stroke:#b0b0b0;stroke-linecap:square;stroke-width:0.8;"/>
     </g>
     <g id="line2d_20">
      <g>
       <use style="stroke:#000000;stroke-width:0.8;" x="57.6" xlink:href="#mb731855dd9" y="129.222662"/>
      </g>
     </g>
     <g id="text_11">
      <!-- 300 -->
      <defs>
       <path d="M 40.578125 39.3125 
Q 47.65625 37.796875 51.625 33 
Q 55.609375 28.21875 55.609375 21.1875 
Q 55.609375 10.40625 48.1875 4.484375 
Q 40.765625 -1.421875 27.09375 -1.421875 
Q 22.515625 -1.421875 17.65625 -0.515625 
Q 12.796875 0.390625 7.625 2.203125 
L 7.625 11.71875 
Q 11.71875 9.328125 16.59375 8.109375 
Q 21.484375 6.890625 26.8125 6.890625 
Q 36.078125 6.890625 40.9375 10.546875 
Q 45.796875 14.203125 45.796875 21.1875 
Q 45.796875 27.640625 41.28125 31.265625 
Q 36.765625 34.90625 28.71875 34.90625 
L 20.21875 34.90625 
L 20.21875 43.015625 
L 29.109375 43.015625 
Q 36.375 43.015625 40.234375 45.921875 
Q 44.09375 48.828125 44.09375 54.296875 
Q 44.09375 59.90625 40.109375 62.90625 
Q 36.140625 65.921875 28.71875 65.921875 
Q 24.65625 65.921875 20.015625 65.03125 
Q 15.375 64.15625 9.8125 62.3125 
L 9.8125 71.09375 
Q 15.4375 72.65625 20.34375 73.4375 
Q 25.25 74.21875 29.59375 74.21875 
Q 40.828125 74.21875 47.359375 69.109375 
Q 53.90625 64.015625 53.90625 55.328125 
Q 53.90625 49.265625 50.4375 45.09375 
Q 46.96875 40.921875 40.578125 39.3125 
" id="DejaVuSans-33"/>
      </defs>
      <g transform="translate(31.5125 133.021881)scale(0.1 -0.1)">
       <use xlink:href="#DejaVuSans-33"/>
       <use x="63.623047" xlink:href="#DejaVuSans-30"/>
       <use x="127.246094" xlink:href="#DejaVuSans-30"/>
      </g>
     </g>
    </g>
    <g id="ytick_5">
     <g id="line2d_21">
      <path clip-path="url(#pb93ca32a8f)" d="M 57.6 73.622034 
L 414.72 73.622034 
" style="fill:none;stroke:#b0b0b0;stroke-linecap:square;stroke-width:0.8;"/>
     </g>
     <g id="line2d_22">
      <g>
       <use style="stroke:#000000;stroke-width:0.8;" x="57.6" xlink:href="#mb731855dd9" y="73.622034"/>
      </g>
     </g>
     <g id="text_12">
      <!-- 400 -->
      <g transform="translate(31.5125 77.421253)scale(0.1 -0.1)">
       <use xlink:href="#DejaVuSans-34"/>
       <use x="63.623047" xlink:href="#DejaVuSans-30"/>
       <use x="127.246094" xlink:href="#DejaVuSans-30"/>
      </g>
     </g>
    </g>
    <g id="text_13">
     <!-- Successful download requests per second -->
     <defs>
      <path d="M 53.515625 70.515625 
L 53.515625 60.890625 
Q 47.90625 63.578125 42.921875 64.890625 
Q 37.9375 66.21875 33.296875 66.21875 
Q 25.25 66.21875 20.875 63.09375 
Q 16.5 59.96875 16.5 54.203125 
Q 16.5 49.359375 19.40625 46.890625 
Q 22.3125 44.4375 30.421875 42.921875 
L 36.375 41.703125 
Q 47.40625 39.59375 52.65625 34.296875 
Q 57.90625 29 57.90625 20.125 
Q 57.90625 9.515625 50.796875 4.046875 
Q 43.703125 -1.421875 29.984375 -1.421875 
Q 24.8125 -1.421875 18.96875 -0.25 
Q 13.140625 0.921875 6.890625 3.21875 
L 6.890625 13.375 
Q 12.890625 10.015625 18.65625 8.296875 
Q 24.421875 6.59375 29.984375 6.59375 
Q 38.421875 6.59375 43.015625 9.90625 
Q 47.609375 13.234375 47.609375 19.390625 
Q 47.609375 24.75 44.3125 27.78125 
Q 41.015625 30.8125 33.5 32.328125 
L 27.484375 33.5 
Q 16.453125 35.6875 11.515625 40.375 
Q 6.59375 45.0625 6.59375 53.421875 
Q 6.59375 63.09375 13.40625 68.65625 
Q 20.21875 74.21875 32.171875 74.21875 
Q 37.3125 74.21875 42.625 73.28125 
Q 47.953125 72.359375 53.515625 70.515625 
" id="DejaVuSans-53"/>
      <path d="M 45.40625 46.390625 
L 45.40625 75.984375 
L 54.390625 75.984375 
L 54.390625 0 
L 45.40625 0 
L 45.40625 8.203125 
Q 42.578125 3.328125 38.25 0.953125 
Q 33.9375 -1.421875 27.875 -1.421875 
Q 17.96875 -1.421875 11.734375 6.484375 
Q 5.515625 14.40625 5.515625 27.296875 
Q 5.515625 40.1875 11.734375 48.09375 
Q 17.96875 56 27.875 56 
Q 33.9375 56 38.25 53.625 
Q 42.578125 51.265625 45.40625 46.390625 
M 14.796875 27.296875 
Q 14.796875 17.390625 18.875 11.75 
Q 22.953125 6.109375 30.078125 6.109375 
Q 37.203125 6.109375 41.296875 11.75 
Q 45.40625 17.390625 45.40625 27.296875 
Q 45.40625 37.203125 41.296875 42.84375 
Q 37.203125 48.484375 30.078125 48.484375 
Q 22.953125 48.484375 18.875 42.84375 
Q 14.796875 37.203125 14.796875 27.296875 
" id="DejaVuSans-64"/>
      <path d="M 4.203125 54.6875 
L 13.1875 54.6875 
L 24.421875 12.015625 
L 35.59375 54.6875 
L 46.1875 54.6875 
L 57.421875 12.015625 
L 68.609375 54.6875 
L 77.59375 54.6875 
L 63.28125 0 
L 52.6875 0 
L 40.921875 44.828125 
L 29.109375 0 
L 18.5 0 
z
" id="DejaVuSans-77"/>
      <path d="M 34.28125 27.484375 
Q 23.390625 27.484375 19.1875 25 
Q 14.984375 22.515625 14.984375 16.5 
Q 14.984375 11.71875 18.140625 8.90625 
Q 21.296875 6.109375 26.703125 6.109375 
Q 34.1875 6.109375 38.703125 11.40625 
Q 43.21875 16.703125 43.21875 25.484375 
L 43.21875 27.484375 
z
M 52.203125 31.203125 
L 52.203125 0 
L 43.21875 0 
L 43.21875 8.296875 
Q 40.140625 3.328125 35.546875 0.953125 
Q 30.953125 -1.421875 24.3125 -1.421875 
Q 15.921875 -1.421875 10.953125 3.296875 
Q 6 8.015625 6 15.921875 
Q 6 25.140625 12.171875 29.828125 
Q 18.359375 34.515625 30.609375 34.515625 
L 43.21875 34.515625 
L 43.21875 35.40625 
Q 43.21875 41.609375 39.140625 45 
Q 35.0625 48.390625 27.6875 48.390625 
Q 23 48.390625 18.546875 47.265625 
Q 14.109375 46.140625 10.015625 43.890625 
L 10.015625 52.203125 
Q 14.9375 54.109375 19.578125 55.046875 
Q 24.21875 56 28.609375 56 
Q 40.484375 56 46.34375 49.84375 
Q 52.203125 43.703125 52.203125 31.203125 
" id="DejaVuSans-61"/>
      <path d="M 14.796875 27.296875 
Q 14.796875 17.390625 18.875 11.75 
Q 22.953125 6.109375 30.078125 6.109375 
Q 37.203125 6.109375 41.296875 11.75 
Q 45.40625 17.390625 45.40625 27.296875 
Q 45.40625 37.203125 41.296875 42.84375 
Q 37.203125 48.484375 30.078125 48.484375 
Q 22.953125 48.484375 18.875 42.84375 
Q 14.796875 37.203125 14.796875 27.296875 
M 45.40625 8.203125 
Q 42.578125 3.328125 38.25 0.953125 
Q 33.9375 -1.421875 27.875 -1.421875 
Q 17.96875 -1.421875 11.734375 6.484375 
Q 5.515625 14.40625 5.515625 27.296875 
Q 5.515625 40.1875 11.734375 48.09375 
Q 17.96875 56 27.875 56 
Q 33.9375 56 38.25 53.625 
Q 42.578125 51.265625 45.40625 46.390625 
L 45.40625 54.6875 
L 54.390625 54.6875 
L 54.390625 -20.796875 
L 45.40625 -20.796875 
z
" id="DejaVuSans-71"/>
      <path d="M 18.109375 8.203125 
L 18.109375 -20.796875 
L 9.078125 -20.796875 
L 9.078125 54.6875 
L 18.109375 54.6875 
L 18.109375 46.390625 
Q 20.953125 51.265625 25.265625 53.625 
Q 29.59375 56 35.59375 56 
Q 45.5625 56 51.78125 48.09375 
Q 58.015625 40.1875 58.015625 27.296875 
Q 58.015625 14.40625 51.78125 6.484375 
Q 45.5625 -1.421875 35.59375 -1.421875 
Q 29.59375 -1.421875 25.265625 0.953125 
Q 20.953125 3.328125 18.109375 8.203125 
M 48.6875 27.296875 
Q 48.6875 37.203125 44.609375 42.84375 
Q 40.53125 48.484375 33.40625 48.484375 
Q 26.265625 48.484375 22.1875 42.84375 
Q 18.109375 37.203125 18.109375 27.296875 
Q 18.109375 17.390625 22.1875 11.75 
Q 26.265625 6.109375 33.40625 6.109375 
Q 40.53125 6.109375 44.609375 11.75 
Q 48.6875 17.390625 48.6875 27.296875 
" id="DejaVuSans-70"/>
     </defs>
     <g transform="translate(25.432812 279.366281)rotate(-90)scale(0.1 -0.1)">
      <use xlink:href="#DejaVuSans-53"/>
      <use x="63.476562" xlink:href="#DejaVuSans-75"/>
      <use x="126.855469" xlink:href="#DejaVuSans-63"/>
      <use x="181.835938" xlink:href="#DejaVuSans-63"/>
      <use x="236.816406" xlink:href="#DejaVuSans-65"/>
      <use x="298.339844" xlink:href="#DejaVuSans-73"/>
      <use x="350.439453" xlink:href="#DejaVuSans-73"/>
      <use x="402.539062" xlink:href="#DejaVuSans-66"/>
      <use x="437.744141" xlink:href="#DejaVuSans-75"/>
      <use x="501.123047" xlink:href="#DejaVuSans-6c"/>
      <use x="528.90625" xlink:href="#DejaVuSans-20"/>
      <use x="560.693359" xlink:href="#DejaVuSans-64"/>
      <use x="624.169922" xlink:href="#DejaVuSans-6f"/>
      <use x="685.351562" xlink:href="#DejaVuSans-77"/>
      <use x="767.138672" xlink:href="#DejaVuSans-6e"/>
      <use x="830.517578" xlink:href="#DejaVuSans-6c"/>
      <use x="858.300781" xlink:href="#DejaVuSans-6f"/>
      <use x="919.482422" xlink:href="#DejaVuSans-61"/>
      <use x="980.761719" xlink:href="#DejaVuSans-64"/>
      <use x="1044.238281" xlink:href="#DejaVuSans-20"/>
      <use x="1076.025391" xlink:href="#DejaVuSans-72"/>
      <use x="1117.107422" xlink:href="#DejaVuSans-65"/>
      <use x="1178.630859" xlink:href="#DejaVuSans-71"/>
      <use x="1242.107422" xlink:href="#DejaVuSans-75"/>
      <use x="1305.486328" xlink:href="#DejaVuSans-65"/>
      <use x="1367.009766" xlink:href="#DejaVuSans-73"/>
      <use x="1419.109375" xlink:href="#DejaVuSans-74"/>
      <use x="1458.318359" xlink:href="#DejaVuSans-73"/>
      <use x="1510.417969" xlink:href="#DejaVuSans-20"/>
      <use x="1542.205078" xlink:href="#DejaVuSans-70"/>
      <use x="1605.681641" xlink:href="#DejaVuSans-65"/>
      <use x="1667.205078" xlink:href="#DejaVuSans-72"/>
      <use x="1708.318359" xlink:href="#DejaVuSans-20"/>
      <use x="1740.105469" xlink:href="#DejaVuSans-73"/>
      <use x="1792.205078" xlink:href="#DejaVuSans-65"/>
      <use x="1853.728516" xlink:href="#DejaVuSans-63"/>
      <use x="1908.708984" xlink:href="#DejaVuSans-6f"/>
      <use x="1969.890625" xlink:href="#DejaVuSans-6e"/>
      <use x="2033.269531" xlink:href="#DejaVuSans-64"/>
     </g>
    </g>
   </g>
   <g id="line2d_23">
    <path clip-path="url(#pb93ca32a8f)" d="M 57.6 295.488 
L 57.95712 295.472432 
L 62.24256 288.988843 
L 62.59968 288.7442 
L 63.67104 286.941071 
L 64.02816 286.360601 
L 64.38528 286.054797 
L 65.09952 284.484636 
L 65.81376 283.64729 
L 66.17088 283.386523 
L 66.528 282.174986 
L 67.24224 281.198639 
L 67.59936 280.510859 
L 67.95648 280.341833 
L 68.3136 280.440802 
L 69.02784 278.456416 
L 69.38496 278.719407 
L 69.74208 278.021619 
L 70.45632 276.029448 
L 70.81344 276.457573 
L 71.17056 276.155106 
L 71.52768 274.382558 
L 71.8848 274.945792 
L 72.24192 273.422891 
L 72.59904 274.239664 
L 72.95616 272.797384 
L 73.31328 272.229701 
L 73.6704 272.675062 
L 74.02752 270.944215 
L 74.38464 271.300615 
L 74.74176 269.536407 
L 75.09888 270.52165 
L 75.456 268.893664 
L 75.81312 269.036001 
L 76.17024 267.579821 
L 76.52736 267.657662 
L 76.88448 267.563697 
L 77.2416 267.143912 
L 77.59872 265.716644 
L 77.95584 265.104481 
L 78.31296 264.920443 
L 78.67008 263.787302 
L 79.0272 264.83593 
L 79.38432 262.747014 
L 79.74144 263.579356 
L 80.09856 261.052307 
L 80.45568 260.596938 
L 80.8128 261.933021 
L 81.52704 258.852746 
L 81.88416 259.626707 
L 82.24128 258.551947 
L 82.5984 258.046537 
L 82.95552 258.454646 
L 83.31264 258.354565 
L 83.66976 257.38211 
L 84.02688 256.933413 
L 84.384 256.948425 
L 84.74112 256.584241 
L 85.09824 254.057192 
L 85.45536 253.928199 
L 85.81248 254.92901 
L 86.1696 253.586811 
L 86.52672 251.773118 
L 87.24096 250.12456 
L 87.59808 250.134012 
L 87.9552 250.292474 
L 88.31232 248.224686 
L 88.66944 248.322543 
L 89.02656 247.592507 
L 89.38368 249.567441 
L 89.7408 248.103477 
L 90.09792 248.261383 
L 90.45504 246.901947 
L 90.81216 246.925856 
L 91.5264 244.97483 
L 91.88352 245.891128 
L 92.24064 243.092192 
L 92.59776 242.0469 
L 92.95488 241.997416 
L 93.312 243.09386 
L 93.66912 240.359421 
L 94.02624 241.189539 
L 94.38336 240.371654 
L 94.74048 240.41391 
L 95.45472 238.614118 
L 95.81184 240.350525 
L 96.16896 236.152678 
L 96.52608 236.14545 
L 96.8832 235.364817 
L 97.24032 237.305835 
L 97.59744 236.497958 
L 97.95456 234.581404 
L 98.31168 237.07676 
L 98.6688 235.378161 
L 99.02592 234.724298 
L 99.38304 231.955387 
L 99.74016 231.224238 
L 100.09728 234.107131 
L 100.4544 229.864247 
L 100.81152 229.477823 
L 101.16864 228.315213 
L 101.52576 230.364653 
L 101.88288 230.665452 
L 102.24 228.182884 
L 102.59712 227.752535 
L 102.95424 226.306363 
L 103.31136 227.929345 
L 103.66848 225.645271 
L 104.0256 225.124849 
L 104.38272 225.956079 
L 104.73984 223.669225 
L 105.09696 224.285836 
L 105.45408 222.244737 
L 105.8112 221.410171 
L 106.16832 223.885511 
L 106.52544 223.317273 
L 106.88256 222.346486 
L 107.23968 219.534762 
L 107.5968 222.38485 
L 107.95392 222.259193 
L 108.31104 221.255602 
L 108.66816 217.35633 
L 109.02528 221.116044 
L 109.3824 216.165364 
L 109.73952 216.961565 
L 110.09664 219.772733 
L 110.45376 215.895701 
L 110.81088 214.640795 
L 111.168 212.710897 
L 111.52512 213.730613 
L 111.88224 213.694472 
L 112.23936 214.974955 
L 112.59648 215.548197 
L 112.9536 214.006392 
L 113.31072 214.721416 
L 114.02496 213.685576 
L 114.38208 210.231109 
L 114.7392 210.849944 
L 115.09632 208.838313 
L 115.45344 207.729637 
L 115.81056 207.888655 
L 116.16768 207.711845 
L 116.5248 210.480756 
L 116.88192 204.444752 
L 117.23904 203.17817 
L 117.59616 205.394411 
L 117.95328 204.256266 
L 118.3104 204.891225 
L 118.66752 201.653044 
L 119.02464 206.865047 
L 119.38176 201.875447 
L 119.73888 203.308831 
L 120.096 203.388896 
L 120.45312 203.215978 
L 120.81024 199.66421 
L 121.16736 199.632518 
L 121.52448 202.637175 
L 121.8816 198.843545 
L 122.23872 200.53714 
L 122.59584 201.248828 
L 122.95296 199.752615 
L 123.31008 199.649198 
L 123.6672 198.981434 
L 124.02432 194.598437 
L 124.38144 192.531761 
L 124.73856 196.997604 
L 125.09568 198.074588 
L 125.4528 190.930463 
L 125.80992 193.990166 
L 126.16704 192.409996 
L 126.52416 195.475815 
L 126.88128 194.637913 
L 127.2384 195.109406 
L 127.59552 191.517606 
L 127.95264 192.471713 
L 128.30976 189.780642 
L 128.66688 192.063604 
L 129.024 191.548742 
L 129.38112 188.569661 
L 130.09536 189.633857 
L 130.45248 189.093974 
L 131.16672 181.567317 
L 131.52384 186.321171 
L 131.88096 185.256975 
L 132.23808 187.872429 
L 132.5952 187.027855 
L 132.95232 182.066055 
L 133.30944 183.522792 
L 133.66656 179.27824 
L 134.02368 184.376817 
L 134.3808 179.261559 
L 134.73792 183.056302 
L 135.09504 175.574126 
L 135.45216 175.078168 
L 135.80928 182.620949 
L 136.1664 179.123114 
L 136.52352 177.680278 
L 136.88064 173.515791 
L 137.23776 178.509839 
L 137.59488 176.239109 
L 137.952 176.361431 
L 138.30912 171.633709 
L 138.66624 177.206004 
L 139.02336 175.653079 
L 139.38048 170.713519 
L 139.7376 170.43496 
L 140.09472 174.968635 
L 140.45184 174.453217 
L 140.80896 169.984595 
L 141.16608 171.71155 
L 141.5232 171.280645 
L 141.88032 165.367519 
L 142.23744 164.906033 
L 142.59456 168.891486 
L 142.95168 170.971506 
L 143.66592 162.579703 
L 144.02304 163.946367 
L 144.38016 167.170091 
L 144.73728 167.452542 
L 145.0944 169.057176 
L 145.45152 164.974422 
L 145.80864 163.744536 
L 146.16576 166.597404 
L 146.52288 166.06197 
L 146.88 165.012787 
L 147.23712 159.969254 
L 148.30848 167.986864 
L 148.6656 163.225226 
L 149.02272 163.985287 
L 149.37984 163.265815 
L 149.73696 165.854024 
L 150.09408 165.476496 
L 150.4512 166.850943 
L 151.16544 158.099404 
L 151.52256 166.515116 
L 151.87968 159.535569 
L 152.2368 158.877813 
L 152.59392 162.863266 
L 152.95104 160.772127 
L 153.30816 160.57808 
L 153.66528 156.818366 
L 154.0224 161.136867 
L 154.37952 159.201409 
L 154.73664 164.537401 
L 155.45088 156.832266 
L 155.808 157.432197 
L 156.16512 156.355769 
L 156.52224 162.2739 
L 156.87936 155.631849 
L 157.23648 157.905914 
L 157.5936 154.167884 
L 157.95072 153.464536 
L 158.30784 156.692709 
L 158.66496 153.119812 
L 159.02208 159.518889 
L 159.73632 151.90049 
L 160.09344 151.891594 
L 160.45056 157.756349 
L 160.80768 161.256964 
L 161.1648 152.247438 
L 161.52192 160.085459 
L 161.87904 151.385073 
L 162.23616 160.002614 
L 162.9504 151.287772 
L 163.30752 155.786418 
L 163.66464 151.628047 
L 164.02176 157.879782 
L 164.37888 157.49169 
L 164.736 156.732185 
L 165.09312 148.838564 
L 165.45024 153.535149 
L 165.80736 152.283023 
L 166.16448 148.779071 
L 166.5216 150.903571 
L 166.87872 153.991074 
L 167.23584 152.622187 
L 167.59296 152.053392 
L 167.95008 148.727363 
L 168.66432 150.238032 
L 169.02144 150.809606 
L 169.37856 152.842921 
L 169.73568 148.805204 
L 170.0928 150.043429 
L 170.44992 146.37212 
L 170.80704 148.562785 
L 171.16416 153.371683 
L 171.52128 149.036502 
L 171.8784 149.174948 
L 172.23552 153.125928 
L 172.59264 145.575363 
L 172.94976 144.126411 
L 173.30688 150.328661 
L 173.664 153.153729 
L 174.02112 152.363644 
L 174.37824 144.56232 
L 174.73536 148.090735 
L 175.09248 146.274263 
L 175.4496 150.470998 
L 175.80672 144.469467 
L 176.16384 144.863119 
L 176.52096 143.435295 
L 176.87808 148.086287 
L 177.2352 148.369851 
L 177.59232 151.027005 
L 177.94944 149.191072 
L 178.30656 145.191163 
L 178.66368 150.031197 
L 179.0208 147.830525 
L 179.37792 148.851352 
L 179.73504 148.991466 
L 180.09216 143.122819 
L 180.44928 140.380596 
L 180.8064 148.094071 
L 181.16352 145.769409 
L 181.52064 147.63481 
L 181.87776 146.503894 
L 182.23488 142.761971 
L 182.592 143.608213 
L 182.94912 146.609535 
L 183.30624 141.584906 
L 183.66336 147.934498 
L 184.02048 146.102457 
L 184.3776 145.564243 
L 184.73472 144.314897 
L 185.09184 142.407795 
L 185.44896 147.943394 
L 185.80608 141.445348 
L 186.1632 146.928126 
L 186.52032 142.615742 
L 186.87744 140.485682 
L 187.23456 137.209693 
L 187.59168 138.153235 
L 187.9488 144.106394 
L 188.30592 145.803326 
L 188.66304 137.176332 
L 189.02016 145.922867 
L 189.37728 141.754488 
L 189.7344 144.126411 
L 190.09152 134.838326 
L 190.44864 144.791394 
L 190.80576 143.857304 
L 191.16288 141.617154 
L 191.52 141.007771 
L 191.87712 137.168548 
L 192.23424 144.123631 
L 192.59136 136.075996 
L 192.94848 137.844652 
L 193.3056 136.671478 
L 193.66272 134.227275 
L 194.01984 142.802004 
L 194.73408 132.280697 
L 195.0912 143.17008 
L 195.44832 133.570631 
L 195.80544 142.875397 
L 196.16256 141.046136 
L 196.51968 133.698513 
L 196.8768 142.436152 
L 197.23392 135.329279 
L 197.59104 135.431028 
L 197.94816 131.442795 
L 198.6624 136.809368 
L 199.01952 134.299556 
L 199.37664 136.440736 
L 199.73376 140.183214 
L 200.09088 139.339197 
L 200.80512 129.546814 
L 201.16224 135.160809 
L 201.51936 131.194261 
L 201.87648 136.30785 
L 202.2336 137.277525 
L 202.59072 132.808903 
L 202.94784 133.272056 
L 203.30496 139.518787 
L 203.66208 131.575125 
L 204.0192 127.556312 
L 204.37632 135.247546 
L 204.73344 128.434801 
L 205.09056 134.049353 
L 205.44768 127.803178 
L 205.8048 126.90634 
L 206.16192 130.982978 
L 206.51904 132.489755 
L 206.87616 136.819932 
L 207.23328 137.765143 
L 207.5904 125.860492 
L 207.94752 136.953374 
L 208.30464 135.418796 
L 208.66176 133.294852 
L 209.01888 127.421202 
L 209.376 136.574177 
L 209.73312 135.347072 
L 210.09024 126.457087 
L 210.44736 135.241986 
L 210.80448 132.832255 
L 211.1616 127.79317 
L 211.51872 126.047311 
L 211.87584 129.656347 
L 212.23296 127.982768 
L 212.59008 129.450069 
L 212.9472 132.34853 
L 213.30432 127.839319 
L 213.66144 129.300503 
L 214.01856 123.579199 
L 214.37568 122.622312 
L 214.7328 125.555245 
L 215.08992 126.912456 
L 215.44704 126.603317 
L 215.80416 131.355502 
L 216.16128 123.51915 
L 216.5184 127.777602 
L 217.23264 132.782215 
L 217.58976 121.059378 
L 217.94688 121.923968 
L 218.304 120.87534 
L 218.66112 121.202272 
L 219.01824 130.989094 
L 219.37536 124.850785 
L 219.73248 129.989395 
L 220.0896 126.886324 
L 220.44672 120.259285 
L 220.80384 123.803825 
L 221.16096 129.272147 
L 221.51808 125.923877 
L 221.8752 121.05771 
L 222.23232 128.934651 
L 222.58944 119.96627 
L 222.94656 122.725173 
L 223.30368 120.863108 
L 223.6608 129.480093 
L 224.01792 120.718546 
L 224.37504 128.902959 
L 224.73216 118.590154 
L 225.08928 121.391314 
L 225.4464 127.862115 
L 225.80352 118.974355 
L 226.16064 119.604866 
L 226.51776 118.782532 
L 226.87488 118.699132 
L 227.232 119.483656 
L 227.58912 118.924314 
L 227.94624 127.777602 
L 228.30336 120.121952 
L 228.66048 127.90882 
L 229.0176 119.660466 
L 229.37472 117.421985 
L 229.73184 126.315306 
L 230.08896 120.107495 
L 230.44608 125.119892 
L 230.8032 121.866143 
L 231.16032 126.750102 
L 231.51744 118.339395 
L 231.87456 118.833685 
L 232.23168 121.287897 
L 232.5888 119.712175 
L 232.94592 115.790107 
L 234.01728 124.982002 
L 234.3744 121.449139 
L 234.73152 122.234775 
L 235.08864 114.059815 
L 235.44576 121.146115 
L 235.80288 124.628382 
L 236.16 113.496025 
L 236.51712 121.962888 
L 236.87424 120.814179 
L 237.23136 117.489262 
L 237.58848 123.406281 
L 237.9456 122.579499 
L 238.30272 113.701191 
L 238.65984 123.931151 
L 239.01696 123.917806 
L 239.37408 123.788813 
L 239.7312 114.897161 
L 240.08832 121.860027 
L 240.44544 118.95545 
L 240.80256 119.575953 
L 241.15968 117.548755 
L 241.5168 110.801062 
L 241.87392 121.199492 
L 242.58816 111.744049 
L 243.3024 122.120238 
L 243.65952 119.877865 
L 244.01664 118.638527 
L 244.37376 120.759135 
L 244.73088 121.168911 
L 245.088 111.949771 
L 245.44512 119.893433 
L 246.15936 109.1336 
L 246.51648 112.36344 
L 246.8736 118.887062 
L 247.23072 116.022517 
L 247.58784 116.092018 
L 247.94496 111.428237 
L 248.30208 113.473785 
L 248.6592 117.279647 
L 249.01632 108.95957 
L 249.37344 117.860674 
L 249.73056 118.251546 
L 250.08768 112.616423 
L 250.4448 113.177433 
L 250.80192 119.563165 
L 251.15904 110.757138 
L 251.51616 107.558434 
L 251.87328 116.868759 
L 252.2304 112.832153 
L 252.58752 114.543541 
L 252.94464 117.963535 
L 253.30176 107.517289 
L 253.65888 106.920139 
L 254.016 111.238639 
L 254.37312 113.759016 
L 254.73024 117.48815 
L 255.08736 116.5902 
L 255.44448 116.883771 
L 255.8016 116.213227 
L 256.15872 112.039288 
L 256.51584 109.36323 
L 256.87296 108.740503 
L 257.23008 109.622885 
L 257.5872 107.761376 
L 257.94432 113.494357 
L 258.30144 108.034931 
L 258.65856 109.595641 
L 259.01568 114.398423 
L 259.3728 107.591238 
L 259.72992 106.073897 
L 260.08704 109.019062 
L 260.44416 103.033655 
L 260.80128 113.243598 
L 261.1584 110.778266 
L 261.51552 110.874455 
L 261.87264 111.28312 
L 262.22976 111.978128 
L 262.58688 107.030784 
L 262.944 111.031249 
L 263.30112 103.462891 
L 263.65824 103.951065 
L 264.01536 107.890925 
L 264.37248 103.729774 
L 264.7296 111.376529 
L 265.08672 113.964738 
L 265.44384 103.960517 
L 265.80096 105.383893 
L 266.15808 105.234883 
L 266.5152 110.198352 
L 266.87232 109.106911 
L 267.22944 102.606642 
L 267.58656 104.269657 
L 267.94368 100.863562 
L 268.3008 104.990241 
L 268.65792 103.411183 
L 269.01504 107.188134 
L 269.37216 109.081891 
L 270.0864 102.77678 
L 270.44352 104.520971 
L 270.80064 100.449337 
L 271.15776 109.220892 
L 271.51488 109.797471 
L 271.872 98.18806 
L 272.22912 107.864237 
L 272.94336 100.333688 
L 273.30048 102.616094 
L 273.6576 110.350141 
L 274.37184 98.059622 
L 274.72896 106.322432 
L 275.4432 97.321802 
L 275.80032 110.485807 
L 276.15744 100.111842 
L 276.51456 101.838241 
L 277.2288 106.068893 
L 277.58592 102.371451 
L 277.94304 105.772542 
L 278.30016 102.561049 
L 278.65728 96.63847 
L 279.0144 99.004833 
L 279.37152 105.883743 
L 279.72864 105.631316 
L 280.08576 102.66391 
L 280.44288 96.793596 
L 280.8 102.493773 
L 281.15712 102.211321 
L 281.51424 100.476582 
L 281.87136 107.743028 
L 282.22848 107.704663 
L 282.5856 104.529312 
L 282.94272 102.792348 
L 283.29984 97.219497 
L 283.65696 101.465161 
L 284.01408 99.865531 
L 284.3712 101.949998 
L 284.72832 98.930884 
L 285.08544 106.667712 
L 285.44256 96.873105 
L 285.79968 106.125606 
L 286.1568 100.001752 
L 286.51392 101.228302 
L 286.87104 96.731879 
L 287.22816 98.100767 
L 287.58528 103.778147 
L 287.9424 94.96656 
L 288.29952 93.967972 
L 288.65664 98.497199 
L 289.01376 101.331163 
L 289.37088 95.629875 
L 289.728 105.350533 
L 290.08512 96.050216 
L 290.44224 97.587017 
L 290.79936 102.079548 
L 291.15648 98.328173 
L 291.5136 93.308549 
L 291.87072 105.077534 
L 292.22784 96.835853 
L 292.58496 95.20175 
L 292.94208 97.48082 
L 293.2992 91.164589 
L 293.65632 101.659207 
L 294.37056 90.567994 
L 294.72768 96.534497 
L 295.0848 100.066805 
L 295.44192 101.189938 
L 295.79904 98.856935 
L 296.15616 91.25355 
L 296.51328 93.344133 
L 296.8704 101.828789 
L 297.22752 100.086265 
L 297.94176 91.935769 
L 298.29888 101.298359 
L 298.656 99.421838 
L 299.01312 98.735726 
L 299.37024 91.791208 
L 299.72736 100.041229 
L 300.08448 98.58338 
L 300.4416 99.325093 
L 300.79872 96.858649 
L 301.15584 97.439675 
L 301.51296 101.95111 
L 302.2272 88.544687 
L 302.58432 87.821879 
L 302.94144 89.733428 
L 303.29856 99.660365 
L 303.65568 91.321382 
L 304.0128 89.83629 
L 304.36992 89.538826 
L 304.72704 92.515684 
L 305.08416 87.70901 
L 305.44128 88.704261 
L 305.7984 98.202516 
L 306.51264 90.343367 
L 306.86976 94.732481 
L 307.22688 95.366884 
L 307.584 95.294603 
L 307.94112 95.577054 
L 308.29824 85.284822 
L 308.65536 99.349557 
L 309.01248 85.499441 
L 309.3696 94.180923 
L 309.72672 88.513551 
L 310.44096 85.192525 
L 310.79808 88.097102 
L 311.1552 93.92794 
L 311.51232 95.19341 
L 311.86944 88.379553 
L 312.22656 93.255172 
L 312.58368 88.009253 
L 312.9408 84.454149 
L 313.29792 84.483061 
L 313.65504 93.167323 
L 314.01216 88.506879 
L 314.36928 92.297173 
L 314.7264 86.989537 
L 315.08352 85.229778 
L 315.44064 95.344088 
L 315.79776 96.098588 
L 316.15488 83.005752 
L 316.512 91.251326 
L 316.86912 89.640019 
L 317.22624 90.678639 
L 317.58336 85.318183 
L 317.94048 88.365653 
L 318.2976 90.080932 
L 318.65472 96.07746 
L 319.01184 89.882994 
L 319.36896 88.371769 
L 319.72608 81.445043 
L 320.0832 81.868164 
L 320.44032 85.469416 
L 320.79744 92.494 
L 321.15456 81.696914 
L 321.51168 94.66854 
L 321.8688 88.976148 
L 322.22592 89.195214 
L 322.58304 90.78984 
L 322.94016 86.386271 
L 323.29728 87.648405 
L 323.6544 82.603204 
L 324.01152 82.684381 
L 324.36864 91.005015 
L 324.72576 85.075764 
L 325.08288 84.461933 
L 325.44 80.297446 
L 325.79712 88.484082 
L 326.15424 85.654566 
L 326.51136 93.837867 
L 327.58272 80.364723 
L 327.93984 85.959814 
L 328.29696 85.193081 
L 328.65408 81.239876 
L 329.0112 86.281185 
L 329.36832 78.571046 
L 329.72544 86.01319 
L 330.08256 78.768985 
L 330.43968 87.289781 
L 330.7968 86.186108 
L 331.15392 90.099281 
L 331.51104 84.572578 
L 331.86816 91.85904 
L 332.22528 87.660637 
L 332.5824 78.767317 
L 332.93952 85.065756 
L 333.29664 79.844857 
L 333.65376 87.978673 
L 334.01088 78.145702 
L 334.368 87.23974 
L 334.72512 81.779759 
L 335.08224 90.732016 
L 335.43936 86.946725 
L 335.79648 86.730995 
L 336.1536 83.202023 
L 336.51072 75.830491 
L 336.86784 84.572022 
L 337.22496 87.812983 
L 337.58208 81.189836 
L 338.29632 75.91556 
L 338.65344 81.602949 
L 339.01056 77.253867 
L 339.36768 82.731641 
L 339.7248 75.761547 
L 340.08192 80.856788 
L 340.43904 88.392341 
L 340.79616 75.101011 
L 341.5104 82.595976 
L 341.86752 79.24159 
L 342.22464 86.003182 
L 342.58176 78.230215 
L 342.93888 77.732033 
L 343.296 75.661466 
L 343.65312 85.80024 
L 344.01024 76.563308 
L 344.36736 81.723602 
L 344.72448 80.415875 
L 345.0816 76.485467 
L 345.43872 86.885008 
L 345.79584 88.390673 
L 346.15296 78.628315 
L 346.51008 79.599658 
L 346.8672 75.206096 
L 347.22432 72.404937 
L 347.58144 85.919781 
L 347.93856 81.351078 
L 348.29568 87.140215 
L 348.6528 75.18052 
L 349.00992 77.347833 
L 349.36704 76.471567 
L 349.72416 85.615646 
L 350.08128 79.447312 
L 350.4384 85.332083 
L 351.15264 74.519985 
L 351.50976 78.050068 
L 351.86688 79.834849 
L 352.224 79.352235 
L 352.58112 75.021502 
L 352.93824 85.200865 
L 353.29536 80.99579 
L 353.65248 72.665148 
L 354.0096 84.343504 
L 354.36672 77.303352 
L 354.72384 83.112506 
L 355.08096 76.160203 
L 355.43808 79.173757 
L 355.7952 85.262026 
L 356.15232 82.848403 
L 356.50944 73.743244 
L 356.86656 79.077568 
L 357.22368 71.45361 
L 357.5808 74.014019 
L 357.93792 73.25785 
L 358.29504 71.405237 
L 358.65216 84.365744 
L 359.00928 77.204939 
L 359.3664 74.253658 
L 359.72352 83.11195 
L 360.08064 79.221574 
L 360.43776 72.969283 
L 361.152 82.04275 
L 361.50912 70.454467 
L 361.86624 70.892044 
L 362.22336 76.520495 
L 362.58048 70.938192 
L 362.9376 67.780076 
L 363.29472 78.565486 
L 363.65184 70.112523 
L 364.00896 69.223469 
L 364.36608 70.463919 
L 364.7232 81.496195 
L 365.08032 71.60262 
L 365.43744 77.401209 
L 365.79456 78.199078 
L 366.15168 73.556426 
L 366.5088 75.70261 
L 366.86592 68.8376 
L 367.22304 76.111831 
L 367.58016 69.948501 
L 367.93728 72.516694 
L 368.2944 67.811213 
L 368.65152 72.103581 
L 369.00864 80.153996 
L 369.36576 70.739698 
L 369.72288 69.718314 
L 370.08 72.13305 
L 370.43712 79.875993 
L 370.79424 72.447193 
L 371.15136 80.924621 
L 371.50848 79.98775 
L 371.8656 70.981005 
L 372.22272 78.288595 
L 372.93696 65.901331 
L 373.29408 70.593468 
L 373.6512 67.154013 
L 374.00832 72.548386 
L 374.36544 68.848165 
L 374.72256 73.209478 
L 375.07968 73.451341 
L 375.4368 71.679349 
L 375.79392 73.724896 
L 376.15104 64.767078 
L 376.50816 73.463017 
L 376.86528 66.596339 
L 377.2224 70.352718 
L 377.57952 71.311828 
L 377.93664 77.094294 
L 378.29376 75.042631 
L 378.65088 70.526192 
L 379.008 70.280437 
L 379.36512 78.114009 
L 379.72224 72.662924 
L 380.07936 69.919033 
L 380.43648 77.158234 
L 380.7936 73.907266 
L 381.15072 64.945556 
L 381.50784 65.679485 
L 381.86496 77.202715 
L 382.22208 71.130014 
L 382.5792 76.357585 
L 382.93632 67.706128 
L 383.29344 75.971161 
L 383.65056 74.136896 
L 384.00768 64.866604 
L 384.3648 75.144936 
L 384.72192 77.251087 
L 385.07904 71.569259 
L 385.43616 63.071815 
L 385.79328 66.705872 
L 386.1504 75.279489 
L 386.50752 62.871653 
L 386.86464 68.10812 
L 387.22176 67.187374 
L 387.57888 65.309741 
L 387.936 69.251825 
L 388.29312 62.869985 
L 388.65024 76.222476 
L 389.00736 64.818787 
L 389.36448 68.322183 
L 389.7216 63.532745 
L 390.07872 64.955565 
L 390.43584 72.367128 
L 390.79296 62.063776 
L 391.15008 67.692784 
L 391.5072 69.054443 
L 391.86432 69.439755 
L 392.22144 64.33951 
L 392.57856 73.627595 
L 392.93568 68.292714 
L 393.2928 72.097465 
L 393.64992 70.194256 
L 394.00704 69.81784 
L 394.36416 63.293662 
L 394.72128 71.176163 
L 395.0784 73.743244 
L 395.43552 59.027982 
L 395.79264 74.85748 
L 396.14976 65.142383 
L 396.50688 60.999024 
L 396.864 61.03572 
L 397.22112 71.708261 
L 397.57824 74.234197 
L 397.93536 67.485949 
L 398.29248 66.257175 
L 398.6496 57.997702 
L 399.00672 59.570644 
L 399.36384 73.528625 
L 399.72096 62.587534 
L 400.07808 66.740345 
L 400.4352 67.734484 
L 400.79232 71.374657 
L 401.86368 64.413458 
L 402.2208 67.287455 
L 402.57792 72.143058 
L 402.93504 69.535388 
L 403.29216 67.882938 
L 403.64928 64.784871 
L 404.0064 65.498227 
L 404.36352 65.45597 
L 404.72064 71.903419 
L 405.07776 69.290746 
L 405.43488 61.105777 
L 405.792 58.873968 
L 406.50624 70.730246 
L 406.86336 70.20204 
L 407.22048 71.528115 
L 407.5776 59.344905 
L 407.93472 57.884277 
L 408.29184 64.929988 
L 409.00608 55.640791 
L 409.3632 55.13983 
L 409.72032 69.484236 
L 410.07744 59.381046 
L 410.43456 60.86169 
L 410.79168 65.999744 
L 411.1488 61.21809 
L 411.50592 68.326075 
L 411.86304 58.203424 
L 412.22016 58.262917 
L 412.57728 57.592929 
L 412.9344 66.509602 
L 413.29152 66.199351 
L 413.64864 67.230186 
L 414.00576 53.568 
L 414.36288 66.949959 
L 414.72 53.787066 
L 414.72 53.787066 
" style="fill:none;stroke:#000080;stroke-linecap:square;stroke-width:0.5;"/>
   </g>
   <g id="patch_3">
    <path d="M 57.6 307.584 
L 57.6 41.472 
" style="fill:none;stroke:#000000;stroke-linecap:square;stroke-linejoin:miter;stroke-width:0.8;"/>
   </g>
   <g id="patch_4">
    <path d="M 414.72 307.584 
L 414.72 41.472 
" style="fill:none;stroke:#000000;stroke-linecap:square;stroke-linejoin:miter;stroke-width:0.8;"/>
   </g>
   <g id="patch_5">
    <path d="M 57.6 307.584 
L 414.72 307.584 
" style="fill:none;stroke:#000000;stroke-linecap:square;stroke-linejoin:miter;stroke-width:0.8;"/>
   </g>
   <g id="patch_6">
    <path d="M 57.6 41.472 
L 414.72 41.472 
" style="fill:none;stroke:#000000;stroke-linecap:square;stroke-linejoin:miter;stroke-width:0.8;"/>
   </g>
   <g id="text_14">
    <!-- Test -->
    <defs>
     <path d="M -0.296875 72.90625 
L 61.375 72.90625 
L 61.375 64.59375 
L 35.5 64.59375 
L 35.5 0 
L 25.59375 0 
L 25.59375 64.59375 
L -0.296875 64.59375 
z
" id="DejaVuSans-54"/>
    </defs>
    <g transform="translate(223.341563 35.472)scale(0.12 -0.12)">
     <use xlink:href="#DejaVuSans-54"/>
     <use x="60.818359" xlink:href="#DejaVuSans-65"/>
     <use x="122.341797" xlink:href="#DejaVuSans-73"/>
     <use x="174.441406" xlink:href="#DejaVuSans-74"/>
    </g>
   </g>
   <g id="legend_1">
    <g id="patch_7">
     <path d="M 64.6 64.150125 
L 306.276563 64.150125 
Q 308.276563 64.150125 308.276563 62.150125 
L 308.276563 48.472 
Q 308.276563 46.472 306.276563 46.472 
L 64.6 46.472 
Q 62.6 46.472 62.6 48.472 
L 62.6 62.150125 
Q 62.6 64.150125 64.6 64.150125 
z
" style="fill:#ffffff;opacity:0.8;stroke:#cccccc;stroke-linejoin:miter;"/>
    </g>
    <g id="line2d_24">
     <path d="M 66.6 54.570438 
L 86.6 54.570438 
" style="fill:none;stroke:#000080;stroke-linecap:square;stroke-width:0.5;"/>
    </g>
    <g id="line2d_25"/>
    <g id="text_15">
     <!-- Successful download requests per second -->
     <g transform="translate(94.6 58.070438)scale(0.1 -0.1)">
      <use xlink:href="#DejaVuSans-53"/>
      <use x="63.476562" xlink:href="#DejaVuSans-75"/>
      <use x="126.855469" xlink:href="#DejaVuSans-63"/>
      <use x="181.835938" xlink:href="#DejaVuSans-63"/>
      <use x="236.816406" xlink:href="#DejaVuSans-65"/>
      <use x="298.339844" xlink:href="#DejaVuSans-73"/>
      <use x="350.439453" xlink:href="#DejaVuSans-73"/>
      <use x="402.539062" xlink:href="#DejaVuSans-66"/>
      <use x="437.744141" xlink:href="#DejaVuSans-75"/>
      <use x="501.123047" xlink:href="#DejaVuSans-6c"/>
      <use x="528.90625" xlink:href="#DejaVuSans-20"/>
      <use x="560.693359" xlink:href="#DejaVuSans-64"/>
      <use x="624.169922" xlink:href="#DejaVuSans-6f"/>
      <use x="685.351562" xlink:href="#DejaVuSans-77"/>
      <use x="767.138672" xlink:href="#DejaVuSans-6e"/>
      <use x="830.517578" xlink:href="#DejaVuSans-6c"/>
      <use x="858.300781" xlink:href="#DejaVuSans-6f"/>
      <use x="919.482422" xlink:href="#DejaVuSans-61"/>
      <use x="980.761719" xlink:href="#DejaVuSans-64"/>
      <use x="1044.238281" xlink:href="#DejaVuSans-20"/>
      <use x="1076.025391" xlink:href="#DejaVuSans-72"/>
      <use x="1117.107422" xlink:href="#DejaVuSans-65"/>
      <use x="1178.630859" xlink:href="#DejaVuSans-71"/>
      <use x="1242.107422" xlink:href="#DejaVuSans-75"/>
      <use x="1305.486328" xlink:href="#DejaVuSans-65"/>
      <use x="1367.009766" xlink:href="#DejaVuSans-73"/>
      <use x="1419.109375" xlink:href="#DejaVuSans-74"/>
      <use x="1458.318359" xlink:href="#DejaVuSans-73"/>
      <use x="1510.417969" xlink:href="#DejaVuSans-20"/>
      <use x="1542.205078" xlink:href="#DejaVuSans-70"/>
      <use x="1605.681641" xlink:href="#DejaVuSans-65"/>
      <use x="1667.205078" xlink:href="#DejaVuSans-72"/>
      <use x="1708.318359" xlink:href="#DejaVuSans-20"/>
      <use x="1740.105469" xlink:href="#DejaVuSans-73"/>
      <use x="1792.205078" xlink:href="#DejaVuSans-65"/>
      <use x="1853.728516" xlink:href="#DejaVuSans-63"/>
      <use x="1908.708984" xlink:href="#DejaVuSans-6f"/>
      <use x="1969.890625" xlink:href="#DejaVuSans-6e"/>
      <use x="2033.269531" xlink:href="#DejaVuSans-64"/>
     </g>
    </g>
   </g>
  </g>
 </g>
 <defs>
  <clipPath id="pb93ca32a8f">
   <rect height="266.112" width="357.12" x="57.6" y="41.472"/>
  </clipPath>
 </defs>
</svg>
