<?xml version="1.0" encoding="utf-8" standalone="no"?>
<!DOCTYPE svg PUBLIC "-//W3C//DTD SVG 1.1//EN"
  "http://www.w3.org/Graphics/SVG/1.1/DTD/svg11.dtd">
<!-- Created with matplotlib (http://matplotlib.org/) -->
<svg height="345pt" version="1.1" viewBox="0 0 460 345" width="460pt" xmlns="http://www.w3.org/2000/svg" xmlns:xlink="http://www.w3.org/1999/xlink">
 <defs>
  <style type="text/css">
*{stroke-linecap:butt;stroke-linejoin:round;}
  </style>
 </defs>
 <g id="figure_1">
  <g id="patch_1">
   <path d="M 0 345.6 
L 460.8 345.6 
L 460.8 0 
L 0 0 
z
" style="fill:#ffffff;"/>
  </g>
  <g id="axes_1">
   <g id="patch_2">
    <path d="M 57.6 307.584 
L 414.72 307.584 
L 414.72 41.472 
L 57.6 41.472 
z
" style="fill:#ffffff;"/>
   </g>
   <g id="matplotlib.axis_1">
    <g id="xtick_1">
     <g id="line2d_1">
      <path clip-path="url(#p3005138b01)" d="M 57.6 307.584 
L 57.6 41.472 
" style="fill:none;stroke:#b0b0b0;stroke-linecap:square;stroke-width:0.8;"/>
     </g>
     <g id="line2d_2">
      <defs>
       <path d="M 0 0 
L 0 3.5 
" id="mea83c0e6d4" style="stroke:#000000;stroke-width:0.8;"/>
      </defs>
      <g>
       <use style="stroke:#000000;stroke-width:0.8;" x="57.6" xlink:href="#mea83c0e6d4" y="307.584"/>
      </g>
     </g>
     <g id="text_1">
      <!-- 0 -->
      <defs>
       <path d="M 31.78125 66.40625 
Q 24.171875 66.40625 20.328125 58.90625 
Q 16.5 51.421875 16.5 36.375 
Q 16.5 21.390625 20.328125 13.890625 
Q 24.171875 6.390625 31.78125 6.390625 
Q 39.453125 6.390625 43.28125 13.890625 
Q 47.125 21.390625 47.125 36.375 
Q 47.125 51.421875 43.28125 58.90625 
Q 39.453125 66.40625 31.78125 66.40625 
M 31.78125 74.21875 
Q 44.046875 74.21875 50.515625 64.515625 
Q 56.984375 54.828125 56.984375 36.375 
Q 56.984375 17.96875 50.515625 8.265625 
Q 44.046875 -1.421875 31.78125 -1.421875 
Q 19.53125 -1.421875 13.0625 8.265625 
Q 6.59375 17.96875 6.59375 36.375 
Q 6.59375 54.828125 13.0625 64.515625 
Q 19.53125 74.21875 31.78125 74.21875 
" id="DejaVuSans-30"/>
      </defs>
      <g transform="translate(54.41875 322.182437)scale(0.1 -0.1)">
       <use xlink:href="#DejaVuSans-30"/>
      </g>
     </g>
    </g>
    <g id="xtick_2">
     <g id="line2d_3">
      <path clip-path="url(#p3005138b01)" d="M 129.024 307.584 
L 129.024 41.472 
" style="fill:none;stroke:#b0b0b0;stroke-linecap:square;stroke-width:0.8;"/>
     </g>
     <g id="line2d_4">
      <g>
       <use style="stroke:#000000;stroke-width:0.8;" x="129.024" xlink:href="#mea83c0e6d4" y="307.584"/>
      </g>
     </g>
     <g id="text_2">
      <!-- 200 -->
      <defs>
       <path d="M 19.1875 8.296875 
L 53.609375 8.296875 
L 53.609375 0 
L 7.328125 0 
L 7.328125 8.296875 
Q 12.9375 14.109375 22.625 23.890625 
Q 32.328125 33.6875 34.8125 36.53125 
Q 39.546875 41.84375 41.421875 45.53125 
Q 43.3125 49.21875 43.3125 52.78125 
Q 43.3125 58.59375 39.234375 62.25 
Q 35.15625 65.921875 28.609375 65.921875 
Q 23.96875 65.921875 18.8125 64.3125 
Q 13.671875 62.703125 7.8125 59.421875 
L 7.8125 69.390625 
Q 13.765625 71.78125 18.9375 73 
Q 24.125 74.21875 28.421875 74.21875 
Q 39.75 74.21875 46.484375 68.546875 
Q 53.21875 62.890625 53.21875 53.421875 
Q 53.21875 48.921875 51.53125 44.890625 
Q 49.859375 40.875 45.40625 35.40625 
Q 44.1875 33.984375 37.640625 27.21875 
Q 31.109375 20.453125 19.1875 8.296875 
" id="DejaVuSans-32"/>
      </defs>
      <g transform="translate(119.48025 322.182437)scale(0.1 -0.1)">
       <use xlink:href="#DejaVuSans-32"/>
       <use x="63.623047" xlink:href="#DejaVuSans-30"/>
       <use x="127.246094" xlink:href="#DejaVuSans-30"/>
      </g>
     </g>
    </g>
    <g id="xtick_3">
     <g id="line2d_5">
      <path clip-path="url(#p3005138b01)" d="M 200.448 307.584 
L 200.448 41.472 
" style="fill:none;stroke:#b0b0b0;stroke-linecap:square;stroke-width:0.8;"/>
     </g>
     <g id="line2d_6">
      <g>
       <use style="stroke:#000000;stroke-width:0.8;" x="200.448" xlink:href="#mea83c0e6d4" y="307.584"/>
      </g>
     </g>
     <g id="text_3">
      <!-- 400 -->
      <defs>
       <path d="M 37.796875 64.3125 
L 12.890625 25.390625 
L 37.796875 25.390625 
z
M 35.203125 72.90625 
L 47.609375 72.90625 
L 47.609375 25.390625 
L 58.015625 25.390625 
L 58.015625 17.1875 
L 47.609375 17.1875 
L 47.609375 0 
L 37.796875 0 
L 37.796875 17.1875 
L 4.890625 17.1875 
L 4.890625 26.703125 
z
" id="DejaVuSans-34"/>
      </defs>
      <g transform="translate(190.90425 322.182437)scale(0.1 -0.1)">
       <use xlink:href="#DejaVuSans-34"/>
       <use x="63.623047" xlink:href="#DejaVuSans-30"/>
       <use x="127.246094" xlink:href="#DejaVuSans-30"/>
      </g>
     </g>
    </g>
    <g id="xtick_4">
     <g id="line2d_7">
      <path clip-path="url(#p3005138b01)" d="M 271.872 307.584 
L 271.872 41.472 
" style="fill:none;stroke:#b0b0b0;stroke-linecap:square;stroke-width:0.8;"/>
     </g>
     <g id="line2d_8">
      <g>
       <use style="stroke:#000000;stroke-width:0.8;" x="271.872" xlink:href="#mea83c0e6d4" y="307.584"/>
      </g>
     </g>
     <g id="text_4">
      <!-- 600 -->
      <defs>
       <path d="M 33.015625 40.375 
Q 26.375 40.375 22.484375 35.828125 
Q 18.609375 31.296875 18.609375 23.390625 
Q 18.609375 15.53125 22.484375 10.953125 
Q 26.375 6.390625 33.015625 6.390625 
Q 39.65625 6.390625 43.53125 10.953125 
Q 47.40625 15.53125 47.40625 23.390625 
Q 47.40625 31.296875 43.53125 35.828125 
Q 39.65625 40.375 33.015625 40.375 
M 52.59375 71.296875 
L 52.59375 62.3125 
Q 48.875 64.0625 45.09375 64.984375 
Q 41.3125 65.921875 37.59375 65.921875 
Q 27.828125 65.921875 22.671875 59.328125 
Q 17.53125 52.734375 16.796875 39.40625 
Q 19.671875 43.65625 24.015625 45.921875 
Q 28.375 48.1875 33.59375 48.1875 
Q 44.578125 48.1875 50.953125 41.515625 
Q 57.328125 34.859375 57.328125 23.390625 
Q 57.328125 12.15625 50.6875 5.359375 
Q 44.046875 -1.421875 33.015625 -1.421875 
Q 20.359375 -1.421875 13.671875 8.265625 
Q 6.984375 17.96875 6.984375 36.375 
Q 6.984375 53.65625 15.1875 63.9375 
Q 23.390625 74.21875 37.203125 74.21875 
Q 40.921875 74.21875 44.703125 73.484375 
Q 48.484375 72.75 52.59375 71.296875 
" id="DejaVuSans-36"/>
      </defs>
      <g transform="translate(262.32825 322.182437)scale(0.1 -0.1)">
       <use xlink:href="#DejaVuSans-36"/>
       <use x="63.623047" xlink:href="#DejaVuSans-30"/>
       <use x="127.246094" xlink:href="#DejaVuSans-30"/>
      </g>
     </g>
    </g>
    <g id="xtick_5">
     <g id="line2d_9">
      <path clip-path="url(#p3005138b01)" d="M 343.296 307.584 
L 343.296 41.472 
" style="fill:none;stroke:#b0b0b0;stroke-linecap:square;stroke-width:0.8;"/>
     </g>
     <g id="line2d_10">
      <g>
       <use style="stroke:#000000;stroke-width:0.8;" x="343.296" xlink:href="#mea83c0e6d4" y="307.584"/>
      </g>
     </g>
     <g id="text_5">
      <!-- 800 -->
      <defs>
       <path d="M 31.78125 34.625 
Q 24.75 34.625 20.71875 30.859375 
Q 16.703125 27.09375 16.703125 20.515625 
Q 16.703125 13.921875 20.71875 10.15625 
Q 24.75 6.390625 31.78125 6.390625 
Q 38.8125 6.390625 42.859375 10.171875 
Q 46.921875 13.96875 46.921875 20.515625 
Q 46.921875 27.09375 42.890625 30.859375 
Q 38.875 34.625 31.78125 34.625 
M 21.921875 38.8125 
Q 15.578125 40.375 12.03125 44.71875 
Q 8.5 49.078125 8.5 55.328125 
Q 8.5 64.0625 14.71875 69.140625 
Q 20.953125 74.21875 31.78125 74.21875 
Q 42.671875 74.21875 48.875 69.140625 
Q 55.078125 64.0625 55.078125 55.328125 
Q 55.078125 49.078125 51.53125 44.71875 
Q 48 40.375 41.703125 38.8125 
Q 48.828125 37.15625 52.796875 32.3125 
Q 56.78125 27.484375 56.78125 20.515625 
Q 56.78125 9.90625 50.3125 4.234375 
Q 43.84375 -1.421875 31.78125 -1.421875 
Q 19.734375 -1.421875 13.25 4.234375 
Q 6.78125 9.90625 6.78125 20.515625 
Q 6.78125 27.484375 10.78125 32.3125 
Q 14.796875 37.15625 21.921875 38.8125 
M 18.3125 54.390625 
Q 18.3125 48.734375 21.84375 45.5625 
Q 25.390625 42.390625 31.78125 42.390625 
Q 38.140625 42.390625 41.71875 45.5625 
Q 45.3125 48.734375 45.3125 54.390625 
Q 45.3125 60.0625 41.71875 63.234375 
Q 38.140625 66.40625 31.78125 66.40625 
Q 25.390625 66.40625 21.84375 63.234375 
Q 18.3125 60.0625 18.3125 54.390625 
" id="DejaVuSans-38"/>
      </defs>
      <g transform="translate(333.75225 322.182437)scale(0.1 -0.1)">
       <use xlink:href="#DejaVuSans-38"/>
       <use x="63.623047" xlink:href="#DejaVuSans-30"/>
       <use x="127.246094" xlink:href="#DejaVuSans-30"/>
      </g>
     </g>
    </g>
    <g id="xtick_6">
     <g id="line2d_11">
      <path clip-path="url(#p3005138b01)" d="M 414.72 307.584 
L 414.72 41.472 
" style="fill:none;stroke:#b0b0b0;stroke-linecap:square;stroke-width:0.8;"/>
     </g>
     <g id="line2d_12">
      <g>
       <use style="stroke:#000000;stroke-width:0.8;" x="414.72" xlink:href="#mea83c0e6d4" y="307.584"/>
      </g>
     </g>
     <g id="text_6">
      <!-- 1000 -->
      <defs>
       <path d="M 12.40625 8.296875 
L 28.515625 8.296875 
L 28.515625 63.921875 
L 10.984375 60.40625 
L 10.984375 69.390625 
L 28.421875 72.90625 
L 38.28125 72.90625 
L 38.28125 8.296875 
L 54.390625 8.296875 
L 54.390625 0 
L 12.40625 0 
z
" id="DejaVuSans-31"/>
      </defs>
      <g transform="translate(401.995 322.182437)scale(0.1 -0.1)">
       <use xlink:href="#DejaVuSans-31"/>
       <use x="63.623047" xlink:href="#DejaVuSans-30"/>
       <use x="127.246094" xlink:href="#DejaVuSans-30"/>
       <use x="190.869141" xlink:href="#DejaVuSans-30"/>
      </g>
     </g>
    </g>
    <g id="text_7">
     <!-- Number of clients -->
     <defs>
      <path d="M 9.8125 72.90625 
L 23.09375 72.90625 
L 55.421875 11.921875 
L 55.421875 72.90625 
L 64.984375 72.90625 
L 64.984375 0 
L 51.703125 0 
L 19.390625 60.984375 
L 19.390625 0 
L 9.8125 0 
z
" id="DejaVuSans-4e"/>
      <path d="M 8.5 21.578125 
L 8.5 54.6875 
L 17.484375 54.6875 
L 17.484375 21.921875 
Q 17.484375 14.15625 20.5 10.265625 
Q 23.53125 6.390625 29.59375 6.390625 
Q 36.859375 6.390625 41.078125 11.03125 
Q 45.3125 15.671875 45.3125 23.6875 
L 45.3125 54.6875 
L 54.296875 54.6875 
L 54.296875 0 
L 45.3125 0 
L 45.3125 8.40625 
Q 42.046875 3.421875 37.71875 1 
Q 33.40625 -1.421875 27.6875 -1.421875 
Q 18.265625 -1.421875 13.375 4.4375 
Q 8.5 10.296875 8.5 21.578125 
M 31.109375 56 
z
" id="DejaVuSans-75"/>
      <path d="M 52 44.1875 
Q 55.375 50.25 60.0625 53.125 
Q 64.75 56 71.09375 56 
Q 79.640625 56 84.28125 50.015625 
Q 88.921875 44.046875 88.921875 33.015625 
L 88.921875 0 
L 79.890625 0 
L 79.890625 32.71875 
Q 79.890625 40.578125 77.09375 44.375 
Q 74.3125 48.1875 68.609375 48.1875 
Q 61.625 48.1875 57.5625 43.546875 
Q 53.515625 38.921875 53.515625 30.90625 
L 53.515625 0 
L 44.484375 0 
L 44.484375 32.71875 
Q 44.484375 40.625 41.703125 44.40625 
Q 38.921875 48.1875 33.109375 48.1875 
Q 26.21875 48.1875 22.15625 43.53125 
Q 18.109375 38.875 18.109375 30.90625 
L 18.109375 0 
L 9.078125 0 
L 9.078125 54.6875 
L 18.109375 54.6875 
L 18.109375 46.1875 
Q 21.1875 51.21875 25.484375 53.609375 
Q 29.78125 56 35.6875 56 
Q 41.65625 56 45.828125 52.96875 
Q 50 49.953125 52 44.1875 
" id="DejaVuSans-6d"/>
      <path d="M 48.6875 27.296875 
Q 48.6875 37.203125 44.609375 42.84375 
Q 40.53125 48.484375 33.40625 48.484375 
Q 26.265625 48.484375 22.1875 42.84375 
Q 18.109375 37.203125 18.109375 27.296875 
Q 18.109375 17.390625 22.1875 11.75 
Q 26.265625 6.109375 33.40625 6.109375 
Q 40.53125 6.109375 44.609375 11.75 
Q 48.6875 17.390625 48.6875 27.296875 
M 18.109375 46.390625 
Q 20.953125 51.265625 25.265625 53.625 
Q 29.59375 56 35.59375 56 
Q 45.5625 56 51.78125 48.09375 
Q 58.015625 40.1875 58.015625 27.296875 
Q 58.015625 14.40625 51.78125 6.484375 
Q 45.5625 -1.421875 35.59375 -1.421875 
Q 29.59375 -1.421875 25.265625 0.953125 
Q 20.953125 3.328125 18.109375 8.203125 
L 18.109375 0 
L 9.078125 0 
L 9.078125 75.984375 
L 18.109375 75.984375 
z
" id="DejaVuSans-62"/>
      <path d="M 56.203125 29.59375 
L 56.203125 25.203125 
L 14.890625 25.203125 
Q 15.484375 15.921875 20.484375 11.0625 
Q 25.484375 6.203125 34.421875 6.203125 
Q 39.59375 6.203125 44.453125 7.46875 
Q 49.3125 8.734375 54.109375 11.28125 
L 54.109375 2.78125 
Q 49.265625 0.734375 44.1875 -0.34375 
Q 39.109375 -1.421875 33.890625 -1.421875 
Q 20.796875 -1.421875 13.15625 6.1875 
Q 5.515625 13.8125 5.515625 26.8125 
Q 5.515625 40.234375 12.765625 48.109375 
Q 20.015625 56 32.328125 56 
Q 43.359375 56 49.78125 48.890625 
Q 56.203125 41.796875 56.203125 29.59375 
M 47.21875 32.234375 
Q 47.125 39.59375 43.09375 43.984375 
Q 39.0625 48.390625 32.421875 48.390625 
Q 24.90625 48.390625 20.390625 44.140625 
Q 15.875 39.890625 15.1875 32.171875 
z
" id="DejaVuSans-65"/>
      <path d="M 41.109375 46.296875 
Q 39.59375 47.171875 37.8125 47.578125 
Q 36.03125 48 33.890625 48 
Q 26.265625 48 22.1875 43.046875 
Q 18.109375 38.09375 18.109375 28.8125 
L 18.109375 0 
L 9.078125 0 
L 9.078125 54.6875 
L 18.109375 54.6875 
L 18.109375 46.1875 
Q 20.953125 51.171875 25.484375 53.578125 
Q 30.03125 56 36.53125 56 
Q 37.453125 56 38.578125 55.875 
Q 39.703125 55.765625 41.0625 55.515625 
z
" id="DejaVuSans-72"/>
      <path id="DejaVuSans-20"/>
      <path d="M 30.609375 48.390625 
Q 23.390625 48.390625 19.1875 42.75 
Q 14.984375 37.109375 14.984375 27.296875 
Q 14.984375 17.484375 19.15625 11.84375 
Q 23.34375 6.203125 30.609375 6.203125 
Q 37.796875 6.203125 41.984375 11.859375 
Q 46.1875 17.53125 46.1875 27.296875 
Q 46.1875 37.015625 41.984375 42.703125 
Q 37.796875 48.390625 30.609375 48.390625 
M 30.609375 56 
Q 42.328125 56 49.015625 48.375 
Q 55.71875 40.765625 55.71875 27.296875 
Q 55.71875 13.875 49.015625 6.21875 
Q 42.328125 -1.421875 30.609375 -1.421875 
Q 18.84375 -1.421875 12.171875 6.21875 
Q 5.515625 13.875 5.515625 27.296875 
Q 5.515625 40.765625 12.171875 48.375 
Q 18.84375 56 30.609375 56 
" id="DejaVuSans-6f"/>
      <path d="M 37.109375 75.984375 
L 37.109375 68.5 
L 28.515625 68.5 
Q 23.6875 68.5 21.796875 66.546875 
Q 19.921875 64.59375 19.921875 59.515625 
L 19.921875 54.6875 
L 34.71875 54.6875 
L 34.71875 47.703125 
L 19.921875 47.703125 
L 19.921875 0 
L 10.890625 0 
L 10.890625 47.703125 
L 2.296875 47.703125 
L 2.296875 54.6875 
L 10.890625 54.6875 
L 10.890625 58.5 
Q 10.890625 67.625 15.140625 71.796875 
Q 19.390625 75.984375 28.609375 75.984375 
z
" id="DejaVuSans-66"/>
      <path d="M 48.78125 52.59375 
L 48.78125 44.1875 
Q 44.96875 46.296875 41.140625 47.34375 
Q 37.3125 48.390625 33.40625 48.390625 
Q 24.65625 48.390625 19.8125 42.84375 
Q 14.984375 37.3125 14.984375 27.296875 
Q 14.984375 17.28125 19.8125 11.734375 
Q 24.65625 6.203125 33.40625 6.203125 
Q 37.3125 6.203125 41.140625 7.25 
Q 44.96875 8.296875 48.78125 10.40625 
L 48.78125 2.09375 
Q 45.015625 0.34375 40.984375 -0.53125 
Q 36.96875 -1.421875 32.421875 -1.421875 
Q 20.0625 -1.421875 12.78125 6.34375 
Q 5.515625 14.109375 5.515625 27.296875 
Q 5.515625 40.671875 12.859375 48.328125 
Q 20.21875 56 33.015625 56 
Q 37.15625 56 41.109375 55.140625 
Q 45.0625 54.296875 48.78125 52.59375 
" id="DejaVuSans-63"/>
      <path d="M 9.421875 75.984375 
L 18.40625 75.984375 
L 18.40625 0 
L 9.421875 0 
z
" id="DejaVuSans-6c"/>
      <path d="M 9.421875 54.6875 
L 18.40625 54.6875 
L 18.40625 0 
L 9.421875 0 
z
M 9.421875 75.984375 
L 18.40625 75.984375 
L 18.40625 64.59375 
L 9.421875 64.59375 
z
" id="DejaVuSans-69"/>
      <path d="M 54.890625 33.015625 
L 54.890625 0 
L 45.90625 0 
L 45.90625 32.71875 
Q 45.90625 40.484375 42.875 44.328125 
Q 39.84375 48.1875 33.796875 48.1875 
Q 26.515625 48.1875 22.3125 43.546875 
Q 18.109375 38.921875 18.109375 30.90625 
L 18.109375 0 
L 9.078125 0 
L 9.078125 54.6875 
L 18.109375 54.6875 
L 18.109375 46.1875 
Q 21.34375 51.125 25.703125 53.5625 
Q 30.078125 56 35.796875 56 
Q 45.21875 56 50.046875 50.171875 
Q 54.890625 44.34375 54.890625 33.015625 
" id="DejaVuSans-6e"/>
      <path d="M 18.3125 70.21875 
L 18.3125 54.6875 
L 36.8125 54.6875 
L 36.8125 47.703125 
L 18.3125 47.703125 
L 18.3125 18.015625 
Q 18.3125 11.328125 20.140625 9.421875 
Q 21.96875 7.515625 27.59375 7.515625 
L 36.8125 7.515625 
L 36.8125 0 
L 27.59375 0 
Q 17.1875 0 13.234375 3.875 
Q 9.28125 7.765625 9.28125 18.015625 
L 9.28125 47.703125 
L 2.6875 47.703125 
L 2.6875 54.6875 
L 9.28125 54.6875 
L 9.28125 70.21875 
z
" id="DejaVuSans-74"/>
      <path d="M 44.28125 53.078125 
L 44.28125 44.578125 
Q 40.484375 46.53125 36.375 47.5 
Q 32.28125 48.484375 27.875 48.484375 
Q 21.1875 48.484375 17.84375 46.4375 
Q 14.5 44.390625 14.5 40.28125 
Q 14.5 37.15625 16.890625 35.375 
Q 19.28125 33.59375 26.515625 31.984375 
L 29.59375 31.296875 
Q 39.15625 29.25 43.1875 25.515625 
Q 47.21875 21.78125 47.21875 15.09375 
Q 47.21875 7.46875 41.1875 3.015625 
Q 35.15625 -1.421875 24.609375 -1.421875 
Q 20.21875 -1.421875 15.453125 -0.5625 
Q 10.6875 0.296875 5.421875 2 
L 5.421875 11.28125 
Q 10.40625 8.6875 15.234375 7.390625 
Q 20.0625 6.109375 24.8125 6.109375 
Q 31.15625 6.109375 34.5625 8.28125 
Q 37.984375 10.453125 37.984375 14.40625 
Q 37.984375 18.0625 35.515625 20.015625 
Q 33.0625 21.96875 24.703125 23.78125 
L 21.578125 24.515625 
Q 13.234375 26.265625 9.515625 29.90625 
Q 5.8125 33.546875 5.8125 39.890625 
Q 5.8125 47.609375 11.28125 51.796875 
Q 16.75 56 26.8125 56 
Q 31.78125 56 36.171875 55.265625 
Q 40.578125 54.546875 44.28125 53.078125 
" id="DejaVuSans-73"/>
     </defs>
     <g transform="translate(191.738906 335.860562)scale(0.1 -0.1)">
      <use xlink:href="#DejaVuSans-4e"/>
      <use x="74.804688" xlink:href="#DejaVuSans-75"/>
      <use x="138.183594" xlink:href="#DejaVuSans-6d"/>
      <use x="235.595703" xlink:href="#DejaVuSans-62"/>
      <use x="299.072266" xlink:href="#DejaVuSans-65"/>
      <use x="360.595703" xlink:href="#DejaVuSans-72"/>
      <use x="401.708984" xlink:href="#DejaVuSans-20"/>
      <use x="433.496094" xlink:href="#DejaVuSans-6f"/>
      <use x="494.677734" xlink:href="#DejaVuSans-66"/>
      <use x="529.882812" xlink:href="#DejaVuSans-20"/>
      <use x="561.669922" xlink:href="#DejaVuSans-63"/>
      <use x="616.650391" xlink:href="#DejaVuSans-6c"/>
      <use x="644.433594" xlink:href="#DejaVuSans-69"/>
      <use x="672.216797" xlink:href="#DejaVuSans-65"/>
      <use x="733.740234" xlink:href="#DejaVuSans-6e"/>
      <use x="797.119141" xlink:href="#DejaVuSans-74"/>
      <use x="836.328125" xlink:href="#DejaVuSans-73"/>
     </g>
    </g>
   </g>
   <g id="matplotlib.axis_2">
    <g id="ytick_1">
     <g id="line2d_13">
      <path clip-path="url(#p3005138b01)" d="M 57.6 295.967656 
L 414.72 295.967656 
" style="fill:none;stroke:#b0b0b0;stroke-linecap:square;stroke-width:0.8;"/>
     </g>
     <g id="line2d_14">
      <defs>
       <path d="M 0 0 
L -3.5 0 
" id="m3d55156539" style="stroke:#000000;stroke-width:0.8;"/>
      </defs>
      <g>
       <use style="stroke:#000000;stroke-width:0.8;" x="57.6" xlink:href="#m3d55156539" y="295.967656"/>
      </g>
     </g>
     <g id="text_8">
      <!-- 0 -->
      <g transform="translate(44.2375 299.766875)scale(0.1 -0.1)">
       <use xlink:href="#DejaVuSans-30"/>
      </g>
     </g>
    </g>
    <g id="ytick_2">
     <g id="line2d_15">
      <path clip-path="url(#p3005138b01)" d="M 57.6 247.271612 
L 414.72 247.271612 
" style="fill:none;stroke:#b0b0b0;stroke-linecap:square;stroke-width:0.8;"/>
     </g>
     <g id="line2d_16">
      <g>
       <use style="stroke:#000000;stroke-width:0.8;" x="57.6" xlink:href="#m3d55156539" y="247.271612"/>
      </g>
     </g>
     <g id="text_9">
      <!-- 100 -->
      <g transform="translate(31.5125 251.070831)scale(0.1 -0.1)">
       <use xlink:href="#DejaVuSans-31"/>
       <use x="63.623047" xlink:href="#DejaVuSans-30"/>
       <use x="127.246094" xlink:href="#DejaVuSans-30"/>
      </g>
     </g>
    </g>
    <g id="ytick_3">
     <g id="line2d_17">
      <path clip-path="url(#p3005138b01)" d="M 57.6 198.575568 
L 414.72 198.575568 
" style="fill:none;stroke:#b0b0b0;stroke-linecap:square;stroke-width:0.8;"/>
     </g>
     <g id="line2d_18">
      <g>
       <use style="stroke:#000000;stroke-width:0.8;" x="57.6" xlink:href="#m3d55156539" y="198.575568"/>
      </g>
     </g>
     <g id="text_10">
      <!-- 200 -->
      <g transform="translate(31.5125 202.374786)scale(0.1 -0.1)">
       <use xlink:href="#DejaVuSans-32"/>
       <use x="63.623047" xlink:href="#DejaVuSans-30"/>
       <use x="127.246094" xlink:href="#DejaVuSans-30"/>
      </g>
     </g>
    </g>
    <g id="ytick_4">
     <g id="line2d_19">
      <path clip-path="url(#p3005138b01)" d="M 57.6 149.879523 
L 414.72 149.879523 
" style="fill:none;stroke:#b0b0b0;stroke-linecap:square;stroke-width:0.8;"/>
     </g>
     <g id="line2d_20">
      <g>
       <use style="stroke:#000000;stroke-width:0.8;" x="57.6" xlink:href="#m3d55156539" y="149.879523"/>
      </g>
     </g>
     <g id="text_11">
      <!-- 300 -->
      <defs>
       <path d="M 40.578125 39.3125 
Q 47.65625 37.796875 51.625 33 
Q 55.609375 28.21875 55.609375 21.1875 
Q 55.609375 10.40625 48.1875 4.484375 
Q 40.765625 -1.421875 27.09375 -1.421875 
Q 22.515625 -1.421875 17.65625 -0.515625 
Q 12.796875 0.390625 7.625 2.203125 
L 7.625 11.71875 
Q 11.71875 9.328125 16.59375 8.109375 
Q 21.484375 6.890625 26.8125 6.890625 
Q 36.078125 6.890625 40.9375 10.546875 
Q 45.796875 14.203125 45.796875 21.1875 
Q 45.796875 27.640625 41.28125 31.265625 
Q 36.765625 34.90625 28.71875 34.90625 
L 20.21875 34.90625 
L 20.21875 43.015625 
L 29.109375 43.015625 
Q 36.375 43.015625 40.234375 45.921875 
Q 44.09375 48.828125 44.09375 54.296875 
Q 44.09375 59.90625 40.109375 62.90625 
Q 36.140625 65.921875 28.71875 65.921875 
Q 24.65625 65.921875 20.015625 65.03125 
Q 15.375 64.15625 9.8125 62.3125 
L 9.8125 71.09375 
Q 15.4375 72.65625 20.34375 73.4375 
Q 25.25 74.21875 29.59375 74.21875 
Q 40.828125 74.21875 47.359375 69.109375 
Q 53.90625 64.015625 53.90625 55.328125 
Q 53.90625 49.265625 50.4375 45.09375 
Q 46.96875 40.921875 40.578125 39.3125 
" id="DejaVuSans-33"/>
      </defs>
      <g transform="translate(31.5125 153.678742)scale(0.1 -0.1)">
       <use xlink:href="#DejaVuSans-33"/>
       <use x="63.623047" xlink:href="#DejaVuSans-30"/>
       <use x="127.246094" xlink:href="#DejaVuSans-30"/>
      </g>
     </g>
    </g>
    <g id="ytick_5">
     <g id="line2d_21">
      <path clip-path="url(#p3005138b01)" d="M 57.6 101.183479 
L 414.72 101.183479 
" style="fill:none;stroke:#b0b0b0;stroke-linecap:square;stroke-width:0.8;"/>
     </g>
     <g id="line2d_22">
      <g>
       <use style="stroke:#000000;stroke-width:0.8;" x="57.6" xlink:href="#m3d55156539" y="101.183479"/>
      </g>
     </g>
     <g id="text_12">
      <!-- 400 -->
      <g transform="translate(31.5125 104.982698)scale(0.1 -0.1)">
       <use xlink:href="#DejaVuSans-34"/>
       <use x="63.623047" xlink:href="#DejaVuSans-30"/>
       <use x="127.246094" xlink:href="#DejaVuSans-30"/>
      </g>
     </g>
    </g>
    <g id="ytick_6">
     <g id="line2d_23">
      <path clip-path="url(#p3005138b01)" d="M 57.6 52.487435 
L 414.72 52.487435 
" style="fill:none;stroke:#b0b0b0;stroke-linecap:square;stroke-width:0.8;"/>
     </g>
     <g id="line2d_24">
      <g>
       <use style="stroke:#000000;stroke-width:0.8;" x="57.6" xlink:href="#m3d55156539" y="52.487435"/>
      </g>
     </g>
     <g id="text_13">
      <!-- 500 -->
      <defs>
       <path d="M 10.796875 72.90625 
L 49.515625 72.90625 
L 49.515625 64.59375 
L 19.828125 64.59375 
L 19.828125 46.734375 
Q 21.96875 47.46875 24.109375 47.828125 
Q 26.265625 48.1875 28.421875 48.1875 
Q 40.625 48.1875 47.75 41.5 
Q 54.890625 34.8125 54.890625 23.390625 
Q 54.890625 11.625 47.5625 5.09375 
Q 40.234375 -1.421875 26.90625 -1.421875 
Q 22.3125 -1.421875 17.546875 -0.640625 
Q 12.796875 0.140625 7.71875 1.703125 
L 7.71875 11.625 
Q 12.109375 9.234375 16.796875 8.0625 
Q 21.484375 6.890625 26.703125 6.890625 
Q 35.15625 6.890625 40.078125 11.328125 
Q 45.015625 15.765625 45.015625 23.390625 
Q 45.015625 31 40.078125 35.4375 
Q 35.15625 39.890625 26.703125 39.890625 
Q 22.75 39.890625 18.8125 39.015625 
Q 14.890625 38.140625 10.796875 36.28125 
z
" id="DejaVuSans-35"/>
      </defs>
      <g transform="translate(31.5125 56.286654)scale(0.1 -0.1)">
       <use xlink:href="#DejaVuSans-35"/>
       <use x="63.623047" xlink:href="#DejaVuSans-30"/>
       <use x="127.246094" xlink:href="#DejaVuSans-30"/>
      </g>
     </g>
    </g>
    <g id="text_14">
     <!-- Successful download requests per second -->
     <defs>
      <path d="M 53.515625 70.515625 
L 53.515625 60.890625 
Q 47.90625 63.578125 42.921875 64.890625 
Q 37.9375 66.21875 33.296875 66.21875 
Q 25.25 66.21875 20.875 63.09375 
Q 16.5 59.96875 16.5 54.203125 
Q 16.5 49.359375 19.40625 46.890625 
Q 22.3125 44.4375 30.421875 42.921875 
L 36.375 41.703125 
Q 47.40625 39.59375 52.65625 34.296875 
Q 57.90625 29 57.90625 20.125 
Q 57.90625 9.515625 50.796875 4.046875 
Q 43.703125 -1.421875 29.984375 -1.421875 
Q 24.8125 -1.421875 18.96875 -0.25 
Q 13.140625 0.921875 6.890625 3.21875 
L 6.890625 13.375 
Q 12.890625 10.015625 18.65625 8.296875 
Q 24.421875 6.59375 29.984375 6.59375 
Q 38.421875 6.59375 43.015625 9.90625 
Q 47.609375 13.234375 47.609375 19.390625 
Q 47.609375 24.75 44.3125 27.78125 
Q 41.015625 30.8125 33.5 32.328125 
L 27.484375 33.5 
Q 16.453125 35.6875 11.515625 40.375 
Q 6.59375 45.0625 6.59375 53.421875 
Q 6.59375 63.09375 13.40625 68.65625 
Q 20.21875 74.21875 32.171875 74.21875 
Q 37.3125 74.21875 42.625 73.28125 
Q 47.953125 72.359375 53.515625 70.515625 
" id="DejaVuSans-53"/>
      <path d="M 45.40625 46.390625 
L 45.40625 75.984375 
L 54.390625 75.984375 
L 54.390625 0 
L 45.40625 0 
L 45.40625 8.203125 
Q 42.578125 3.328125 38.25 0.953125 
Q 33.9375 -1.421875 27.875 -1.421875 
Q 17.96875 -1.421875 11.734375 6.484375 
Q 5.515625 14.40625 5.515625 27.296875 
Q 5.515625 40.1875 11.734375 48.09375 
Q 17.96875 56 27.875 56 
Q 33.9375 56 38.25 53.625 
Q 42.578125 51.265625 45.40625 46.390625 
M 14.796875 27.296875 
Q 14.796875 17.390625 18.875 11.75 
Q 22.953125 6.109375 30.078125 6.109375 
Q 37.203125 6.109375 41.296875 11.75 
Q 45.40625 17.390625 45.40625 27.296875 
Q 45.40625 37.203125 41.296875 42.84375 
Q 37.203125 48.484375 30.078125 48.484375 
Q 22.953125 48.484375 18.875 42.84375 
Q 14.796875 37.203125 14.796875 27.296875 
" id="DejaVuSans-64"/>
      <path d="M 4.203125 54.6875 
L 13.1875 54.6875 
L 24.421875 12.015625 
L 35.59375 54.6875 
L 46.1875 54.6875 
L 57.421875 12.015625 
L 68.609375 54.6875 
L 77.59375 54.6875 
L 63.28125 0 
L 52.6875 0 
L 40.921875 44.828125 
L 29.109375 0 
L 18.5 0 
z
" id="DejaVuSans-77"/>
      <path d="M 34.28125 27.484375 
Q 23.390625 27.484375 19.1875 25 
Q 14.984375 22.515625 14.984375 16.5 
Q 14.984375 11.71875 18.140625 8.90625 
Q 21.296875 6.109375 26.703125 6.109375 
Q 34.1875 6.109375 38.703125 11.40625 
Q 43.21875 16.703125 43.21875 25.484375 
L 43.21875 27.484375 
z
M 52.203125 31.203125 
L 52.203125 0 
L 43.21875 0 
L 43.21875 8.296875 
Q 40.140625 3.328125 35.546875 0.953125 
Q 30.953125 -1.421875 24.3125 -1.421875 
Q 15.921875 -1.421875 10.953125 3.296875 
Q 6 8.015625 6 15.921875 
Q 6 25.140625 12.171875 29.828125 
Q 18.359375 34.515625 30.609375 34.515625 
L 43.21875 34.515625 
L 43.21875 35.40625 
Q 43.21875 41.609375 39.140625 45 
Q 35.0625 48.390625 27.6875 48.390625 
Q 23 48.390625 18.546875 47.265625 
Q 14.109375 46.140625 10.015625 43.890625 
L 10.015625 52.203125 
Q 14.9375 54.109375 19.578125 55.046875 
Q 24.21875 56 28.609375 56 
Q 40.484375 56 46.34375 49.84375 
Q 52.203125 43.703125 52.203125 31.203125 
" id="DejaVuSans-61"/>
      <path d="M 14.796875 27.296875 
Q 14.796875 17.390625 18.875 11.75 
Q 22.953125 6.109375 30.078125 6.109375 
Q 37.203125 6.109375 41.296875 11.75 
Q 45.40625 17.390625 45.40625 27.296875 
Q 45.40625 37.203125 41.296875 42.84375 
Q 37.203125 48.484375 30.078125 48.484375 
Q 22.953125 48.484375 18.875 42.84375 
Q 14.796875 37.203125 14.796875 27.296875 
M 45.40625 8.203125 
Q 42.578125 3.328125 38.25 0.953125 
Q 33.9375 -1.421875 27.875 -1.421875 
Q 17.96875 -1.421875 11.734375 6.484375 
Q 5.515625 14.40625 5.515625 27.296875 
Q 5.515625 40.1875 11.734375 48.09375 
Q 17.96875 56 27.875 56 
Q 33.9375 56 38.25 53.625 
Q 42.578125 51.265625 45.40625 46.390625 
L 45.40625 54.6875 
L 54.390625 54.6875 
L 54.390625 -20.796875 
L 45.40625 -20.796875 
z
" id="DejaVuSans-71"/>
      <path d="M 18.109375 8.203125 
L 18.109375 -20.796875 
L 9.078125 -20.796875 
L 9.078125 54.6875 
L 18.109375 54.6875 
L 18.109375 46.390625 
Q 20.953125 51.265625 25.265625 53.625 
Q 29.59375 56 35.59375 56 
Q 45.5625 56 51.78125 48.09375 
Q 58.015625 40.1875 58.015625 27.296875 
Q 58.015625 14.40625 51.78125 6.484375 
Q 45.5625 -1.421875 35.59375 -1.421875 
Q 29.59375 -1.421875 25.265625 0.953125 
Q 20.953125 3.328125 18.109375 8.203125 
M 48.6875 27.296875 
Q 48.6875 37.203125 44.609375 42.84375 
Q 40.53125 48.484375 33.40625 48.484375 
Q 26.265625 48.484375 22.1875 42.84375 
Q 18.109375 37.203125 18.109375 27.296875 
Q 18.109375 17.390625 22.1875 11.75 
Q 26.265625 6.109375 33.40625 6.109375 
Q 40.53125 6.109375 44.609375 11.75 
Q 48.6875 17.390625 48.6875 27.296875 
" id="DejaVuSans-70"/>
     </defs>
     <g transform="translate(25.432812 279.366281)rotate(-90)scale(0.1 -0.1)">
      <use xlink:href="#DejaVuSans-53"/>
      <use x="63.476562" xlink:href="#DejaVuSans-75"/>
      <use x="126.855469" xlink:href="#DejaVuSans-63"/>
      <use x="181.835938" xlink:href="#DejaVuSans-63"/>
      <use x="236.816406" xlink:href="#DejaVuSans-65"/>
      <use x="298.339844" xlink:href="#DejaVuSans-73"/>
      <use x="350.439453" xlink:href="#DejaVuSans-73"/>
      <use x="402.539062" xlink:href="#DejaVuSans-66"/>
      <use x="437.744141" xlink:href="#DejaVuSans-75"/>
      <use x="501.123047" xlink:href="#DejaVuSans-6c"/>
      <use x="528.90625" xlink:href="#DejaVuSans-20"/>
      <use x="560.693359" xlink:href="#DejaVuSans-64"/>
      <use x="624.169922" xlink:href="#DejaVuSans-6f"/>
      <use x="685.351562" xlink:href="#DejaVuSans-77"/>
      <use x="767.138672" xlink:href="#DejaVuSans-6e"/>
      <use x="830.517578" xlink:href="#DejaVuSans-6c"/>
      <use x="858.300781" xlink:href="#DejaVuSans-6f"/>
      <use x="919.482422" xlink:href="#DejaVuSans-61"/>
      <use x="980.761719" xlink:href="#DejaVuSans-64"/>
      <use x="1044.238281" xlink:href="#DejaVuSans-20"/>
      <use x="1076.025391" xlink:href="#DejaVuSans-72"/>
      <use x="1117.107422" xlink:href="#DejaVuSans-65"/>
      <use x="1178.630859" xlink:href="#DejaVuSans-71"/>
      <use x="1242.107422" xlink:href="#DejaVuSans-75"/>
      <use x="1305.486328" xlink:href="#DejaVuSans-65"/>
      <use x="1367.009766" xlink:href="#DejaVuSans-73"/>
      <use x="1419.109375" xlink:href="#DejaVuSans-74"/>
      <use x="1458.318359" xlink:href="#DejaVuSans-73"/>
      <use x="1510.417969" xlink:href="#DejaVuSans-20"/>
      <use x="1542.205078" xlink:href="#DejaVuSans-70"/>
      <use x="1605.681641" xlink:href="#DejaVuSans-65"/>
      <use x="1667.205078" xlink:href="#DejaVuSans-72"/>
      <use x="1708.318359" xlink:href="#DejaVuSans-20"/>
      <use x="1740.105469" xlink:href="#DejaVuSans-73"/>
      <use x="1792.205078" xlink:href="#DejaVuSans-65"/>
      <use x="1853.728516" xlink:href="#DejaVuSans-63"/>
      <use x="1908.708984" xlink:href="#DejaVuSans-6f"/>
      <use x="1969.890625" xlink:href="#DejaVuSans-6e"/>
      <use x="2033.269531" xlink:href="#DejaVuSans-64"/>
     </g>
    </g>
   </g>
   <g id="line2d_25">
    <path clip-path="url(#p3005138b01)" d="M 57.6 295.488 
L 57.95712 295.486052 
L 61.1712 291.434541 
L 61.52832 290.717736 
L 61.88544 290.296515 
L 62.24256 289.688788 
L 62.59968 289.397099 
L 62.9568 288.717302 
L 63.31392 288.463109 
L 65.45664 285.442006 
L 65.81376 285.524302 
L 66.17088 284.350728 
L 66.528 284.50412 
L 66.88512 283.617852 
L 67.59936 283.162057 
L 67.95648 282.440869 
L 68.3136 282.268972 
L 69.38496 279.916953 
L 69.74208 280.507149 
L 70.0992 279.404671 
L 70.45632 278.865118 
L 70.81344 278.604594 
L 71.17056 277.698848 
L 71.52768 277.172931 
L 71.8848 277.820101 
L 72.24192 276.140575 
L 72.59904 276.051948 
L 72.95616 275.193924 
L 73.31328 275.484639 
L 73.6704 275.252359 
L 74.02752 274.243377 
L 74.38464 273.698955 
L 75.09888 272.190352 
L 75.456 272.35397 
L 75.81312 272.359814 
L 76.17024 270.709505 
L 76.52736 270.523486 
L 76.88448 271.300675 
L 77.2416 269.505252 
L 77.59872 269.058709 
L 77.95584 269.914785 
L 79.0272 268.676445 
L 79.38432 266.657994 
L 79.74144 267.477548 
L 80.09856 267.436644 
L 80.45568 266.76756 
L 80.8128 265.248243 
L 81.16992 264.321071 
L 81.52704 264.376097 
L 81.88416 264.036686 
L 82.24128 263.373933 
L 82.95552 262.501787 
L 83.66976 261.123689 
L 84.02688 261.261985 
L 84.384 261.922791 
L 84.74112 260.228168 
L 85.09824 260.070393 
L 85.45536 259.649172 
L 85.81248 257.610756 
L 86.1696 257.359971 
L 86.52672 258.926036 
L 86.88384 256.565252 
L 87.24096 257.855697 
L 87.59808 256.835515 
L 87.9552 256.24191 
L 88.31232 254.106589 
L 88.66944 255.337138 
L 89.02656 254.803916 
L 89.38368 254.639323 
L 89.7408 254.288712 
L 90.09792 252.997293 
L 90.45504 252.481115 
L 90.81216 250.927711 
L 91.16928 250.648195 
L 91.5264 251.008059 
L 91.88352 249.893407 
L 92.24064 251.288548 
L 92.59776 251.228652 
L 92.95488 249.435664 
L 93.312 248.993017 
L 93.66912 249.779945 
L 94.02624 246.56211 
L 94.38336 249.0758 
L 95.0976 245.266309 
L 95.45472 246.72719 
L 95.81184 244.854827 
L 96.16896 243.637426 
L 96.52608 243.903306 
L 96.8832 246.024019 
L 97.24032 242.263224 
L 97.59744 242.100092 
L 97.95456 244.145813 
L 98.31168 242.059187 
L 98.6688 243.451894 
L 99.02592 241.338486 
L 99.38304 241.477756 
L 99.74016 239.45541 
L 100.09728 239.556697 
L 100.4544 238.964067 
L 100.81152 237.626873 
L 101.16864 237.336158 
L 101.52576 238.193208 
L 101.88288 238.50535 
L 102.24 235.757919 
L 102.59712 235.963416 
L 102.95424 237.054695 
L 103.31136 236.040843 
L 103.66848 235.42776 
L 104.0256 236.602308 
L 104.38272 236.440151 
L 104.73984 235.5719 
L 105.09696 231.310509 
L 105.45408 231.95281 
L 105.8112 234.070601 
L 106.16832 233.94107 
L 106.52544 231.883175 
L 106.88256 231.890479 
L 107.23968 231.289083 
L 107.5968 228.909794 
L 107.95392 229.358285 
L 108.31104 228.489061 
L 108.66816 226.605498 
L 109.02528 230.434954 
L 109.3824 226.099546 
L 109.73952 228.663879 
L 110.09664 224.640125 
L 110.45376 224.891397 
L 110.81088 223.537647 
L 111.168 226.436522 
L 111.52512 223.47629 
L 111.88224 226.809534 
L 112.23936 221.822572 
L 112.59648 224.16193 
L 112.9536 221.820137 
L 113.31072 221.772415 
L 113.66784 224.513516 
L 114.02496 220.751259 
L 114.38208 220.464926 
L 114.7392 219.12822 
L 115.45344 221.453456 
L 115.81056 218.265326 
L 116.16768 220.086558 
L 116.5248 220.310073 
L 116.88192 219.246064 
L 117.23904 214.850272 
L 117.59616 219.312291 
L 117.95328 216.119778 
L 118.3104 216.452859 
L 118.66752 218.479589 
L 119.38176 213.286156 
L 119.73888 216.770358 
L 120.096 212.43787 
L 120.45312 214.245955 
L 120.81024 212.906813 
L 121.16736 210.101921 
L 121.52448 210.803144 
L 121.8816 209.051061 
L 122.23872 210.678482 
L 122.59584 212.998849 
L 122.95296 208.974608 
L 123.31008 206.787181 
L 123.6672 209.770788 
L 124.02432 205.798652 
L 124.38144 208.494952 
L 124.73856 208.610361 
L 125.4528 205.647207 
L 125.80992 203.056091 
L 126.16704 208.407299 
L 126.52416 207.813207 
L 126.88128 203.249901 
L 127.2384 203.95502 
L 127.59552 201.291833 
L 127.95264 200.479583 
L 128.30976 205.617016 
L 128.66688 201.958969 
L 129.024 203.388685 
L 129.38112 200.959239 
L 129.73824 203.95015 
L 130.09536 203.757801 
L 130.45248 196.676422 
L 130.8096 202.296919 
L 131.16672 199.958048 
L 131.52384 201.80655 
L 131.88096 200.13238 
L 132.23808 200.569184 
L 132.5952 194.249898 
L 132.95232 196.268349 
L 133.30944 192.840634 
L 133.66656 193.116254 
L 134.02368 192.049811 
L 134.3808 195.888033 
L 134.73792 191.108029 
L 135.09504 194.099427 
L 135.45216 194.462213 
L 135.80928 194.235289 
L 136.1664 194.303464 
L 136.52352 194.888303 
L 136.88064 192.95507 
L 137.23776 187.443652 
L 137.59488 193.172741 
L 137.952 189.714835 
L 138.30912 187.594123 
L 138.66624 189.613548 
L 139.02336 188.554409 
L 139.38048 185.648229 
L 139.7376 190.395606 
L 140.09472 185.534767 
L 140.45184 190.853836 
L 140.80896 188.128805 
L 141.16608 183.76564 
L 141.5232 188.541261 
L 141.88032 184.890518 
L 142.23744 186.948413 
L 142.59456 182.837493 
L 142.95168 183.192974 
L 143.3088 181.207636 
L 143.66592 180.713372 
L 144.02304 181.167219 
L 144.38016 179.508144 
L 144.73728 183.678474 
L 145.0944 183.452037 
L 145.45152 181.483256 
L 145.80864 182.785875 
L 146.16576 177.137134 
L 146.52288 182.361733 
L 146.88 178.105211 
L 147.23712 178.865357 
L 147.59424 178.665216 
L 147.95136 174.43986 
L 148.30848 178.054568 
L 148.6656 180.058897 
L 149.02272 176.646278 
L 149.37984 177.520372 
L 149.73696 170.736526 
L 150.09408 171.575072 
L 150.4512 175.393329 
L 150.80832 170.463341 
L 151.52256 168.5603 
L 152.2368 173.300373 
L 152.59392 172.565549 
L 152.95104 168.570526 
L 153.30816 170.7151 
L 153.66528 165.442779 
L 154.0224 170.838788 
L 154.37952 171.779595 
L 154.73664 167.343873 
L 155.09376 169.99732 
L 155.45088 169.171922 
L 155.808 170.743343 
L 156.52224 163.789548 
L 156.87936 163.748157 
L 157.23648 164.385101 
L 157.5936 163.1789 
L 157.95072 165.472971 
L 158.30784 161.98049 
L 158.66496 160.193345 
L 159.02208 157.700108 
L 159.3792 160.778672 
L 159.73632 162.868219 
L 160.09344 162.735279 
L 160.45056 158.717368 
L 160.80768 156.053695 
L 161.1648 160.838568 
L 161.52192 161.562678 
L 161.87904 154.710658 
L 162.23616 153.538057 
L 162.59328 157.10066 
L 162.9504 156.507542 
L 163.30752 158.749021 
L 164.02176 152.255403 
L 164.736 159.798907 
L 165.09312 152.684415 
L 165.45024 153.58091 
L 165.80736 151.122246 
L 166.16448 158.923353 
L 166.5216 153.881364 
L 166.87872 158.317574 
L 167.23584 154.656605 
L 167.59296 152.962957 
L 167.95008 152.031888 
L 168.3072 155.685066 
L 168.66432 150.195561 
L 169.02144 157.45955 
L 169.37856 157.137669 
L 169.73568 152.861182 
L 170.0928 154.007487 
L 170.44992 155.566247 
L 170.80704 156.186635 
L 171.16416 153.483518 
L 171.52128 156.269905 
L 171.8784 146.458139 
L 172.23552 152.837321 
L 172.59264 152.914748 
L 172.94976 150.805722 
L 173.30688 155.326176 
L 173.664 146.689932 
L 174.02112 152.937635 
L 174.73536 147.837698 
L 175.09248 149.864428 
L 175.4496 154.170132 
L 175.80672 145.84116 
L 176.16384 149.566408 
L 176.52096 143.877736 
L 176.87808 150.711252 
L 177.2352 146.986491 
L 177.59232 145.188146 
L 177.94944 144.064729 
L 178.30656 149.224075 
L 178.66368 144.7903 
L 179.0208 146.91783 
L 179.37792 151.313622 
L 179.73504 147.96236 
L 180.09216 141.923077 
L 180.44928 151.558076 
L 180.8064 142.909658 
L 181.16352 147.539678 
L 181.52064 140.610718 
L 181.87776 144.115859 
L 182.23488 144.00045 
L 182.592 149.994446 
L 182.94912 149.964741 
L 183.30624 141.210167 
L 183.66336 140.094053 
L 184.02048 142.232296 
L 184.3776 139.30956 
L 184.73472 139.590049 
L 185.09184 147.42573 
L 185.44896 140.15541 
L 185.80608 139.034427 
L 186.52032 144.011163 
L 186.87744 141.126409 
L 187.23456 144.521011 
L 187.59168 137.454728 
L 187.9488 138.200264 
L 188.30592 146.407008 
L 188.66304 142.34868 
L 189.02016 143.855336 
L 189.37728 136.693608 
L 189.7344 138.175916 
L 190.09152 141.785267 
L 190.44864 137.690416 
L 190.80576 136.806096 
L 191.16288 144.813187 
L 191.52 140.303446 
L 192.23424 139.680137 
L 192.59136 139.815999 
L 192.94848 142.390072 
L 193.3056 141.724884 
L 193.66272 134.036265 
L 194.01984 140.312211 
L 194.37696 138.846947 
L 194.73408 137.915392 
L 195.0912 138.78559 
L 195.44832 136.515868 
L 195.80544 143.875301 
L 196.16256 134.929838 
L 196.51968 138.957001 
L 196.8768 132.272008 
L 197.23392 141.11034 
L 197.59104 138.487084 
L 197.94816 137.631981 
L 198.30528 137.594485 
L 198.6624 137.096325 
L 199.01952 137.984054 
L 199.73376 131.185112 
L 200.09088 136.66293 
L 200.448 130.650429 
L 200.80512 139.603684 
L 201.16224 136.130195 
L 201.51936 137.040324 
L 201.87648 140.272281 
L 202.2336 137.653894 
L 202.59072 137.554068 
L 202.94784 132.92843 
L 203.30496 133.151945 
L 203.66208 132.474583 
L 204.0192 139.117211 
L 204.73344 133.023388 
L 205.09056 139.584206 
L 205.44768 128.414794 
L 205.8048 136.813888 
L 206.16192 127.531935 
L 206.51904 131.882926 
L 206.87616 134.362529 
L 207.23328 135.354954 
L 207.5904 127.043513 
L 207.94752 131.663794 
L 208.30464 128.251175 
L 208.66176 128.816049 
L 209.01888 131.204103 
L 209.376 137.125055 
L 209.73312 129.316158 
L 210.09024 131.582959 
L 210.44736 137.022307 
L 210.80448 135.042326 
L 211.1616 128.160114 
L 211.51872 125.365448 
L 211.87584 127.018191 
L 212.23296 124.650103 
L 212.59008 132.151241 
L 212.9472 134.070353 
L 213.30432 128.342237 
L 213.66144 129.840127 
L 214.01856 127.550926 
L 214.37568 128.520464 
L 214.7328 125.705833 
L 215.08992 123.855383 
L 215.44704 132.268599 
L 215.80416 132.945474 
L 216.16128 124.127107 
L 216.5184 122.598051 
L 216.87552 125.106872 
L 217.23264 125.964409 
L 217.58976 123.788183 
L 217.94688 129.834284 
L 218.304 123.309988 
L 218.66112 126.250255 
L 219.01824 126.234672 
L 219.37536 130.274496 
L 219.73248 129.209026 
L 220.0896 125.540266 
L 220.44672 126.853112 
L 220.80384 126.348621 
L 221.16096 121.153727 
L 221.51808 122.591234 
L 221.8752 125.8938 
L 222.23232 122.956941 
L 222.58944 128.120183 
L 222.94656 120.543565 
L 223.30368 125.319186 
L 223.6608 128.035452 
L 224.01792 121.72834 
L 224.37504 122.709565 
L 224.73216 129.954563 
L 225.08928 129.764648 
L 225.4464 127.0104 
L 225.80352 126.021383 
L 226.16064 125.666389 
L 226.51776 123.726339 
L 226.87488 129.628786 
L 227.232 123.701017 
L 227.58912 127.574787 
L 227.94624 129.45202 
L 228.30336 119.634897 
L 228.66048 127.094157 
L 229.0176 116.755987 
L 229.37472 122.830819 
L 229.73184 120.449095 
L 230.08896 126.627649 
L 230.44608 124.498171 
L 230.8032 119.538966 
L 231.51744 124.459214 
L 231.87456 122.018569 
L 232.23168 116.142417 
L 232.5888 120.078031 
L 232.94592 118.65562 
L 233.30304 122.207509 
L 233.66016 121.82768 
L 234.01728 122.095508 
L 234.3744 116.599186 
L 234.73152 124.953479 
L 235.08864 126.29749 
L 235.44576 121.786775 
L 235.80288 124.395422 
L 236.16 121.679157 
L 236.51712 121.836932 
L 236.87424 117.8721 
L 237.23136 122.500659 
L 237.58848 113.656484 
L 237.9456 115.850728 
L 238.30272 125.000227 
L 238.65984 113.719789 
L 239.01696 116.706317 
L 239.37408 112.833034 
L 239.7312 123.984915 
L 240.08832 117.879892 
L 240.44544 114.218436 
L 240.80256 122.777253 
L 241.15968 123.292944 
L 241.5168 122.036099 
L 241.87392 112.900234 
L 242.23104 120.061961 
L 242.58816 122.226501 
L 242.94528 121.109413 
L 243.3024 110.423066 
L 243.65952 119.936813 
L 244.01664 122.449042 
L 244.37376 120.156919 
L 244.73088 122.491407 
L 245.088 110.942653 
L 245.44512 116.356679 
L 245.80224 119.544809 
L 246.15936 111.643389 
L 246.51648 116.339636 
L 246.8736 110.598859 
L 247.23072 112.823781 
L 247.58784 119.883247 
L 247.94496 111.544536 
L 248.30208 113.829355 
L 248.6592 113.26302 
L 249.01632 120.505095 
L 249.37344 114.699066 
L 249.73056 110.967975 
L 250.08768 109.818262 
L 250.4448 110.701608 
L 250.80192 116.716056 
L 251.15904 113.730502 
L 251.51616 115.772327 
L 251.87328 113.405212 
L 252.2304 117.001902 
L 252.58752 107.624992 
L 252.94464 108.607191 
L 253.30176 110.934375 
L 253.65888 108.502494 
L 254.016 111.579111 
L 254.37312 113.049244 
L 254.73024 116.468193 
L 255.44448 111.504606 
L 255.8016 115.092043 
L 256.15872 115.060878 
L 256.51584 115.190409 
L 256.87296 108.97095 
L 257.23008 115.813232 
L 257.5872 109.961428 
L 257.94432 109.914193 
L 258.30144 112.447361 
L 258.65856 110.574511 
L 259.01568 110.851592 
L 259.3728 111.372639 
L 259.72992 108.754253 
L 260.08704 104.433453 
L 260.44416 112.914356 
L 260.80128 107.442869 
L 261.1584 112.655293 
L 261.51552 104.984205 
L 261.87264 107.617687 
L 262.22976 107.031387 
L 262.58688 109.087821 
L 262.944 112.423013 
L 263.30112 112.994218 
L 263.65824 115.183105 
L 264.01536 114.642579 
L 264.37248 112.01981 
L 264.7296 111.681372 
L 265.08672 105.646471 
L 265.44384 102.685265 
L 265.80096 106.747976 
L 266.15808 109.464728 
L 266.5152 106.254685 
L 266.87232 107.061579 
L 267.22944 106.227415 
L 267.58656 102.653126 
L 267.94368 111.409161 
L 268.3008 101.662161 
L 268.65792 102.429124 
L 269.01504 110.270648 
L 269.37216 102.633647 
L 269.72928 108.974359 
L 270.0864 102.427176 
L 270.44352 100.595718 
L 270.80064 104.441244 
L 271.15776 103.961101 
L 271.51488 105.564662 
L 271.872 103.938701 
L 272.22912 100.251437 
L 272.58624 99.505413 
L 273.30048 110.408945 
L 273.6576 105.56661 
L 274.01472 104.657455 
L 274.37184 98.916191 
L 274.72896 98.863113 
L 275.08608 107.24711 
L 275.4432 100.884972 
L 276.15744 104.613628 
L 276.51456 100.272376 
L 276.87168 102.7325 
L 277.2288 104.093555 
L 277.58592 96.811061 
L 277.94304 97.429988 
L 278.30016 102.595177 
L 278.65728 98.153124 
L 279.0144 109.698956 
L 279.72864 96.039229 
L 280.44288 99.209828 
L 280.8 107.452608 
L 281.15712 103.726386 
L 281.51424 106.045779 
L 281.87136 107.002656 
L 282.22848 102.677474 
L 282.5856 101.364141 
L 282.94272 102.249922 
L 283.29984 95.019534 
L 283.65696 95.422737 
L 284.01408 106.218163 
L 284.3712 107.337685 
L 284.72832 104.296617 
L 285.08544 96.591929 
L 285.44256 94.60367 
L 285.79968 93.776324 
L 286.51392 106.947143 
L 286.87104 97.883835 
L 287.22816 93.047344 
L 287.58528 104.200199 
L 287.9424 103.94698 
L 288.29952 96.740452 
L 288.65664 95.314145 
L 289.01376 102.346341 
L 289.37088 94.825723 
L 289.728 96.053351 
L 290.08512 95.481659 
L 290.79936 99.188889 
L 291.15648 98.504223 
L 291.5136 101.860354 
L 291.87072 94.39379 
L 292.22784 93.116979 
L 292.58496 102.350236 
L 292.94208 94.253058 
L 293.2992 91.292339 
L 293.65632 90.788821 
L 294.01344 99.368577 
L 294.37056 90.500541 
L 294.72768 102.652152 
L 295.0848 93.5158 
L 295.44192 94.456607 
L 295.79904 102.489507 
L 296.15616 93.525052 
L 296.51328 93.803107 
L 296.8704 102.951145 
L 297.22752 100.456934 
L 297.58464 92.135754 
L 297.94176 100.619579 
L 298.29888 93.536252 
L 298.656 99.811711 
L 299.01312 101.50536 
L 299.37024 91.039606 
L 299.72736 97.180177 
L 300.08448 90.103181 
L 300.4416 93.65994 
L 300.79872 99.537553 
L 301.15584 94.009578 
L 301.51296 101.091444 
L 301.87008 87.604587 
L 302.2272 97.276108 
L 302.58432 96.760904 
L 302.94144 94.578348 
L 303.29856 89.453089 
L 303.65568 97.496215 
L 304.0128 87.255436 
L 304.36992 90.13386 
L 304.72704 97.48891 
L 305.08416 99.394386 
L 305.44128 92.757602 
L 305.7984 89.344984 
L 306.15552 99.099288 
L 306.51264 86.597066 
L 306.86976 91.049345 
L 307.22688 98.73212 
L 307.584 89.980467 
L 307.94112 92.48247 
L 308.29824 86.844442 
L 308.65536 94.735636 
L 309.01248 87.999999 
L 309.72672 89.292392 
L 310.08384 97.175308 
L 310.44096 92.661671 
L 310.79808 91.772482 
L 311.1552 85.057297 
L 311.51232 94.677201 
L 311.86944 93.224598 
L 312.22656 93.670653 
L 312.58368 90.908127 
L 312.9408 91.220268 
L 313.29792 85.241368 
L 313.65504 96.444867 
L 314.36928 91.252408 
L 314.7264 84.917539 
L 315.08352 86.317551 
L 315.44064 92.465913 
L 315.79776 87.838815 
L 316.15488 90.842874 
L 316.512 92.534575 
L 316.86912 91.146737 
L 317.22624 89.293366 
L 317.58336 96.39471 
L 318.2976 88.505951 
L 318.65472 85.703007 
L 319.01184 92.173737 
L 319.36896 87.071852 
L 319.72608 95.249379 
L 320.0832 86.189967 
L 320.44032 84.43204 
L 320.79744 88.573151 
L 321.15456 83.320796 
L 321.51168 84.482684 
L 321.8688 91.782708 
L 322.22592 92.31739 
L 322.58304 88.580943 
L 322.94016 88.465533 
L 323.29728 90.843361 
L 323.6544 87.176549 
L 324.01152 81.084674 
L 324.36864 87.989286 
L 324.72576 81.861863 
L 325.08288 93.654584 
L 325.44 84.3999 
L 325.79712 84.496319 
L 326.15424 85.48777 
L 326.51136 82.471537 
L 327.2256 80.033326 
L 327.93984 91.243156 
L 328.29696 82.024994 
L 328.65408 80.460877 
L 329.0112 93.104318 
L 329.36832 82.652199 
L 329.72544 92.792664 
L 330.08256 82.925384 
L 330.43968 92.78682 
L 330.7968 89.252948 
L 331.15392 84.323935 
L 331.51104 88.893084 
L 331.86816 87.939616 
L 332.22528 77.748021 
L 332.5824 81.309649 
L 332.93952 79.784002 
L 333.29664 91.882535 
L 333.65376 77.066276 
L 334.01088 85.229194 
L 334.368 84.348283 
L 334.72512 91.078563 
L 335.08224 87.90845 
L 335.43936 86.289794 
L 335.79648 88.381289 
L 336.1536 81.307215 
L 336.51072 85.094306 
L 336.86784 90.259008 
L 337.22496 79.131475 
L 337.58208 87.201384 
L 337.9392 88.235201 
L 338.29632 81.170866 
L 338.65344 81.290171 
L 339.01056 83.623199 
L 339.36768 89.782761 
L 339.7248 82.534355 
L 340.08192 83.539441 
L 340.79616 89.431663 
L 341.15328 75.21534 
L 341.5104 74.759545 
L 341.86752 77.628715 
L 342.22464 77.20506 
L 342.58176 83.252135 
L 342.93888 85.32123 
L 343.296 78.517905 
L 343.65312 79.372521 
L 344.01024 76.48728 
L 344.36736 85.716154 
L 344.72448 78.135154 
L 345.0816 85.751216 
L 345.43872 80.412181 
L 345.79584 85.72492 
L 346.15296 77.363322 
L 346.51008 80.709227 
L 347.22432 76.718099 
L 347.58144 72.189854 
L 347.93856 82.530946 
L 348.29568 72.261924 
L 348.6528 80.135588 
L 349.00992 74.203436 
L 349.36704 75.75684 
L 349.72416 80.187693 
L 350.08128 78.649385 
L 350.4384 75.442263 
L 350.79552 74.545282 
L 351.15264 77.710038 
L 351.50976 75.522125 
L 351.86688 74.277941 
L 352.224 74.782919 
L 352.58112 71.991661 
L 352.93824 80.608913 
L 353.29536 77.138833 
L 353.65248 82.876688 
L 354.0096 80.605992 
L 354.36672 83.473215 
L 354.72384 84.491936 
L 355.08096 84.60978 
L 355.43808 84.522127 
L 355.7952 71.092732 
L 356.50944 70.857044 
L 356.86656 71.017254 
L 357.22368 72.955843 
L 357.5808 73.76858 
L 357.93792 79.270259 
L 358.29504 75.206574 
L 358.65216 73.365377 
L 359.00928 74.340272 
L 359.3664 69.7906 
L 360.08064 82.323014 
L 360.43776 80.513956 
L 360.79488 70.407579 
L 361.152 73.810946 
L 361.86624 68.77334 
L 362.22336 73.811433 
L 362.58048 73.561622 
L 362.9376 70.399788 
L 363.29472 77.255217 
L 363.65184 81.410937 
L 364.00896 81.293093 
L 364.36608 71.269012 
L 364.7232 76.165886 
L 365.08032 76.944536 
L 365.43744 80.24418 
L 365.79456 69.783783 
L 366.15168 80.442373 
L 366.5088 72.592571 
L 366.86592 70.236169 
L 367.22304 69.180926 
L 367.58016 77.493827 
L 367.93728 75.587377 
L 368.2944 66.380903 
L 368.65152 77.767499 
L 369.00864 74.278915 
L 369.36576 67.737575 
L 370.08 77.328261 
L 370.43712 76.54815 
L 370.79424 80.617192 
L 371.15136 79.498644 
L 371.50848 74.771232 
L 371.8656 65.976239 
L 372.22272 76.721021 
L 372.57984 78.871925 
L 372.93696 74.78438 
L 373.29408 80.083483 
L 373.6512 69.957141 
L 374.00832 80.161397 
L 374.36544 65.739089 
L 374.72256 66.137423 
L 375.07968 69.771122 
L 375.4368 68.545929 
L 375.79392 72.216637 
L 376.15104 78.576827 
L 376.50816 74.358289 
L 376.86528 67.806236 
L 377.2224 65.4698 
L 377.57952 65.300338 
L 377.93664 73.043009 
L 378.29376 77.642837 
L 378.65088 67.273989 
L 379.008 78.769177 
L 379.36512 71.235412 
L 379.72224 76.252078 
L 380.43648 68.248883 
L 380.7936 67.47559 
L 381.15072 70.190882 
L 381.50784 67.861263 
L 381.86496 76.924571 
L 382.22208 61.95005 
L 382.5792 68.54106 
L 382.93632 67.766793 
L 383.29344 62.459411 
L 383.65056 75.122817 
L 384.00768 74.202949 
L 384.3648 65.076336 
L 384.72192 74.319819 
L 385.07904 62.58456 
L 385.43616 71.374196 
L 385.79328 72.115836 
L 386.1504 64.056641 
L 386.50752 74.243853 
L 386.86464 67.267658 
L 387.22176 63.421645 
L 387.57888 65.350495 
L 387.936 62.210574 
L 388.29312 74.981598 
L 388.65024 75.13353 
L 389.00736 60.416125 
L 389.7216 65.873003 
L 390.07872 68.837132 
L 390.43584 61.581421 
L 390.79296 62.838753 
L 391.15008 65.805803 
L 391.5072 64.744716 
L 391.86432 60.263219 
L 392.22144 69.06162 
L 392.57856 62.170156 
L 392.93568 72.372951 
L 393.2928 71.213012 
L 393.64992 64.3308 
L 394.00704 68.141752 
L 394.36416 60.536891 
L 394.72128 71.261221 
L 395.0784 65.450809 
L 395.43552 62.935658 
L 396.14976 73.046905 
L 396.50688 61.469907 
L 396.864 57.997879 
L 397.22112 62.741361 
L 397.57824 62.024555 
L 397.93536 59.752398 
L 398.29248 72.363212 
L 398.6496 58.749746 
L 399.00672 60.340646 
L 399.72096 67.363102 
L 400.07808 69.228161 
L 401.14944 57.716903 
L 401.86368 72.482031 
L 402.2208 66.15544 
L 402.57792 72.598414 
L 402.93504 66.098953 
L 403.29216 65.784864 
L 403.64928 66.177354 
L 404.0064 62.731622 
L 404.36352 58.036836 
L 404.72064 71.638128 
L 405.07776 60.503778 
L 405.43488 65.9553 
L 405.792 62.098086 
L 406.14912 66.390155 
L 406.50624 68.642834 
L 406.86336 58.41423 
L 407.22048 66.462226 
L 407.5776 64.711603 
L 407.93472 63.889614 
L 408.29184 67.551069 
L 409.00608 54.952429 
L 409.3632 62.32501 
L 409.72032 62.162365 
L 410.07744 55.404328 
L 410.43456 60.174592 
L 410.79168 57.279126 
L 411.1488 69.285622 
L 411.50592 57.136933 
L 411.86304 67.301745 
L 412.22016 60.274906 
L 412.57728 67.270093 
L 412.9344 65.017901 
L 413.29152 59.003452 
L 414.00576 53.568 
L 414.36288 67.543278 
L 414.72 65.304234 
L 414.72 65.304234 
" style="fill:none;stroke:#000080;stroke-linecap:square;stroke-width:0.5;"/>
   </g>
   <g id="patch_3">
    <path d="M 57.6 307.584 
L 57.6 41.472 
" style="fill:none;stroke:#000000;stroke-linecap:square;stroke-linejoin:miter;stroke-width:0.8;"/>
   </g>
   <g id="patch_4">
    <path d="M 414.72 307.584 
L 414.72 41.472 
" style="fill:none;stroke:#000000;stroke-linecap:square;stroke-linejoin:miter;stroke-width:0.8;"/>
   </g>
   <g id="patch_5">
    <path d="M 57.6 307.584 
L 414.72 307.584 
" style="fill:none;stroke:#000000;stroke-linecap:square;stroke-linejoin:miter;stroke-width:0.8;"/>
   </g>
   <g id="patch_6">
    <path d="M 57.6 41.472 
L 414.72 41.472 
" style="fill:none;stroke:#000000;stroke-linecap:square;stroke-linejoin:miter;stroke-width:0.8;"/>
   </g>
   <g id="text_15">
    <!-- Test -->
    <defs>
     <path d="M -0.296875 72.90625 
L 61.375 72.90625 
L 61.375 64.59375 
L 35.5 64.59375 
L 35.5 0 
L 25.59375 0 
L 25.59375 64.59375 
L -0.296875 64.59375 
z
" id="DejaVuSans-54"/>
    </defs>
    <g transform="translate(223.341563 35.472)scale(0.12 -0.12)">
     <use xlink:href="#DejaVuSans-54"/>
     <use x="60.818359" xlink:href="#DejaVuSans-65"/>
     <use x="122.341797" xlink:href="#DejaVuSans-73"/>
     <use x="174.441406" xlink:href="#DejaVuSans-74"/>
    </g>
   </g>
   <g id="legend_1">
    <g id="patch_7">
     <path d="M 64.6 64.150125 
L 306.276563 64.150125 
Q 308.276563 64.150125 308.276563 62.150125 
L 308.276563 48.472 
Q 308.276563 46.472 306.276563 46.472 
L 64.6 46.472 
Q 62.6 46.472 62.6 48.472 
L 62.6 62.150125 
Q 62.6 64.150125 64.6 64.150125 
z
" style="fill:#ffffff;opacity:0.8;stroke:#cccccc;stroke-linejoin:miter;"/>
    </g>
    <g id="line2d_26">
     <path d="M 66.6 54.570438 
L 86.6 54.570438 
" style="fill:none;stroke:#000080;stroke-linecap:square;stroke-width:0.5;"/>
    </g>
    <g id="line2d_27"/>
    <g id="text_16">
     <!-- Successful download requests per second -->
     <g transform="translate(94.6 58.070438)scale(0.1 -0.1)">
      <use xlink:href="#DejaVuSans-53"/>
      <use x="63.476562" xlink:href="#DejaVuSans-75"/>
      <use x="126.855469" xlink:href="#DejaVuSans-63"/>
      <use x="181.835938" xlink:href="#DejaVuSans-63"/>
      <use x="236.816406" xlink:href="#DejaVuSans-65"/>
      <use x="298.339844" xlink:href="#DejaVuSans-73"/>
      <use x="350.439453" xlink:href="#DejaVuSans-73"/>
      <use x="402.539062" xlink:href="#DejaVuSans-66"/>
      <use x="437.744141" xlink:href="#DejaVuSans-75"/>
      <use x="501.123047" xlink:href="#DejaVuSans-6c"/>
      <use x="528.90625" xlink:href="#DejaVuSans-20"/>
      <use x="560.693359" xlink:href="#DejaVuSans-64"/>
      <use x="624.169922" xlink:href="#DejaVuSans-6f"/>
      <use x="685.351562" xlink:href="#DejaVuSans-77"/>
      <use x="767.138672" xlink:href="#DejaVuSans-6e"/>
      <use x="830.517578" xlink:href="#DejaVuSans-6c"/>
      <use x="858.300781" xlink:href="#DejaVuSans-6f"/>
      <use x="919.482422" xlink:href="#DejaVuSans-61"/>
      <use x="980.761719" xlink:href="#DejaVuSans-64"/>
      <use x="1044.238281" xlink:href="#DejaVuSans-20"/>
      <use x="1076.025391" xlink:href="#DejaVuSans-72"/>
      <use x="1117.107422" xlink:href="#DejaVuSans-65"/>
      <use x="1178.630859" xlink:href="#DejaVuSans-71"/>
      <use x="1242.107422" xlink:href="#DejaVuSans-75"/>
      <use x="1305.486328" xlink:href="#DejaVuSans-65"/>
      <use x="1367.009766" xlink:href="#DejaVuSans-73"/>
      <use x="1419.109375" xlink:href="#DejaVuSans-74"/>
      <use x="1458.318359" xlink:href="#DejaVuSans-73"/>
      <use x="1510.417969" xlink:href="#DejaVuSans-20"/>
      <use x="1542.205078" xlink:href="#DejaVuSans-70"/>
      <use x="1605.681641" xlink:href="#DejaVuSans-65"/>
      <use x="1667.205078" xlink:href="#DejaVuSans-72"/>
      <use x="1708.318359" xlink:href="#DejaVuSans-20"/>
      <use x="1740.105469" xlink:href="#DejaVuSans-73"/>
      <use x="1792.205078" xlink:href="#DejaVuSans-65"/>
      <use x="1853.728516" xlink:href="#DejaVuSans-63"/>
      <use x="1908.708984" xlink:href="#DejaVuSans-6f"/>
      <use x="1969.890625" xlink:href="#DejaVuSans-6e"/>
      <use x="2033.269531" xlink:href="#DejaVuSans-64"/>
     </g>
    </g>
   </g>
  </g>
 </g>
 <defs>
  <clipPath id="p3005138b01">
   <rect height="266.112" width="357.12" x="57.6" y="41.472"/>
  </clipPath>
 </defs>
</svg>
