<?xml version="1.0" encoding="utf-8" standalone="no"?>
<!DOCTYPE svg PUBLIC "-//W3C//DTD SVG 1.1//EN"
  "http://www.w3.org/Graphics/SVG/1.1/DTD/svg11.dtd">
<!-- Created with matplotlib (http://matplotlib.org/) -->
<svg height="345pt" version="1.1" viewBox="0 0 460 345" width="460pt" xmlns="http://www.w3.org/2000/svg" xmlns:xlink="http://www.w3.org/1999/xlink">
 <defs>
  <style type="text/css">
*{stroke-linecap:butt;stroke-linejoin:round;}
  </style>
 </defs>
 <g id="figure_1">
  <g id="patch_1">
   <path d="M 0 345.6 
L 460.8 345.6 
L 460.8 0 
L 0 0 
z
" style="fill:#ffffff;"/>
  </g>
  <g id="axes_1">
   <g id="patch_2">
    <path d="M 57.6 307.584 
L 414.72 307.584 
L 414.72 41.472 
L 57.6 41.472 
z
" style="fill:#ffffff;"/>
   </g>
   <g id="matplotlib.axis_1">
    <g id="xtick_1">
     <g id="line2d_1">
      <path clip-path="url(#p2d97d0ac68)" d="M 57.6 307.584 
L 57.6 41.472 
" style="fill:none;stroke:#b0b0b0;stroke-linecap:square;stroke-width:0.8;"/>
     </g>
     <g id="line2d_2">
      <defs>
       <path d="M 0 0 
L 0 3.5 
" id="m7a43b55a78" style="stroke:#000000;stroke-width:0.8;"/>
      </defs>
      <g>
       <use style="stroke:#000000;stroke-width:0.8;" x="57.6" xlink:href="#m7a43b55a78" y="307.584"/>
      </g>
     </g>
     <g id="text_1">
      <!-- 0 -->
      <defs>
       <path d="M 31.78125 66.40625 
Q 24.171875 66.40625 20.328125 58.90625 
Q 16.5 51.421875 16.5 36.375 
Q 16.5 21.390625 20.328125 13.890625 
Q 24.171875 6.390625 31.78125 6.390625 
Q 39.453125 6.390625 43.28125 13.890625 
Q 47.125 21.390625 47.125 36.375 
Q 47.125 51.421875 43.28125 58.90625 
Q 39.453125 66.40625 31.78125 66.40625 
M 31.78125 74.21875 
Q 44.046875 74.21875 50.515625 64.515625 
Q 56.984375 54.828125 56.984375 36.375 
Q 56.984375 17.96875 50.515625 8.265625 
Q 44.046875 -1.421875 31.78125 -1.421875 
Q 19.53125 -1.421875 13.0625 8.265625 
Q 6.59375 17.96875 6.59375 36.375 
Q 6.59375 54.828125 13.0625 64.515625 
Q 19.53125 74.21875 31.78125 74.21875 
" id="DejaVuSans-30"/>
      </defs>
      <g transform="translate(54.41875 322.182437)scale(0.1 -0.1)">
       <use xlink:href="#DejaVuSans-30"/>
      </g>
     </g>
    </g>
    <g id="xtick_2">
     <g id="line2d_3">
      <path clip-path="url(#p2d97d0ac68)" d="M 129.024 307.584 
L 129.024 41.472 
" style="fill:none;stroke:#b0b0b0;stroke-linecap:square;stroke-width:0.8;"/>
     </g>
     <g id="line2d_4">
      <g>
       <use style="stroke:#000000;stroke-width:0.8;" x="129.024" xlink:href="#m7a43b55a78" y="307.584"/>
      </g>
     </g>
     <g id="text_2">
      <!-- 200 -->
      <defs>
       <path d="M 19.1875 8.296875 
L 53.609375 8.296875 
L 53.609375 0 
L 7.328125 0 
L 7.328125 8.296875 
Q 12.9375 14.109375 22.625 23.890625 
Q 32.328125 33.6875 34.8125 36.53125 
Q 39.546875 41.84375 41.421875 45.53125 
Q 43.3125 49.21875 43.3125 52.78125 
Q 43.3125 58.59375 39.234375 62.25 
Q 35.15625 65.921875 28.609375 65.921875 
Q 23.96875 65.921875 18.8125 64.3125 
Q 13.671875 62.703125 7.8125 59.421875 
L 7.8125 69.390625 
Q 13.765625 71.78125 18.9375 73 
Q 24.125 74.21875 28.421875 74.21875 
Q 39.75 74.21875 46.484375 68.546875 
Q 53.21875 62.890625 53.21875 53.421875 
Q 53.21875 48.921875 51.53125 44.890625 
Q 49.859375 40.875 45.40625 35.40625 
Q 44.1875 33.984375 37.640625 27.21875 
Q 31.109375 20.453125 19.1875 8.296875 
" id="DejaVuSans-32"/>
      </defs>
      <g transform="translate(119.48025 322.182437)scale(0.1 -0.1)">
       <use xlink:href="#DejaVuSans-32"/>
       <use x="63.623047" xlink:href="#DejaVuSans-30"/>
       <use x="127.246094" xlink:href="#DejaVuSans-30"/>
      </g>
     </g>
    </g>
    <g id="xtick_3">
     <g id="line2d_5">
      <path clip-path="url(#p2d97d0ac68)" d="M 200.448 307.584 
L 200.448 41.472 
" style="fill:none;stroke:#b0b0b0;stroke-linecap:square;stroke-width:0.8;"/>
     </g>
     <g id="line2d_6">
      <g>
       <use style="stroke:#000000;stroke-width:0.8;" x="200.448" xlink:href="#m7a43b55a78" y="307.584"/>
      </g>
     </g>
     <g id="text_3">
      <!-- 400 -->
      <defs>
       <path d="M 37.796875 64.3125 
L 12.890625 25.390625 
L 37.796875 25.390625 
z
M 35.203125 72.90625 
L 47.609375 72.90625 
L 47.609375 25.390625 
L 58.015625 25.390625 
L 58.015625 17.1875 
L 47.609375 17.1875 
L 47.609375 0 
L 37.796875 0 
L 37.796875 17.1875 
L 4.890625 17.1875 
L 4.890625 26.703125 
z
" id="DejaVuSans-34"/>
      </defs>
      <g transform="translate(190.90425 322.182437)scale(0.1 -0.1)">
       <use xlink:href="#DejaVuSans-34"/>
       <use x="63.623047" xlink:href="#DejaVuSans-30"/>
       <use x="127.246094" xlink:href="#DejaVuSans-30"/>
      </g>
     </g>
    </g>
    <g id="xtick_4">
     <g id="line2d_7">
      <path clip-path="url(#p2d97d0ac68)" d="M 271.872 307.584 
L 271.872 41.472 
" style="fill:none;stroke:#b0b0b0;stroke-linecap:square;stroke-width:0.8;"/>
     </g>
     <g id="line2d_8">
      <g>
       <use style="stroke:#000000;stroke-width:0.8;" x="271.872" xlink:href="#m7a43b55a78" y="307.584"/>
      </g>
     </g>
     <g id="text_4">
      <!-- 600 -->
      <defs>
       <path d="M 33.015625 40.375 
Q 26.375 40.375 22.484375 35.828125 
Q 18.609375 31.296875 18.609375 23.390625 
Q 18.609375 15.53125 22.484375 10.953125 
Q 26.375 6.390625 33.015625 6.390625 
Q 39.65625 6.390625 43.53125 10.953125 
Q 47.40625 15.53125 47.40625 23.390625 
Q 47.40625 31.296875 43.53125 35.828125 
Q 39.65625 40.375 33.015625 40.375 
M 52.59375 71.296875 
L 52.59375 62.3125 
Q 48.875 64.0625 45.09375 64.984375 
Q 41.3125 65.921875 37.59375 65.921875 
Q 27.828125 65.921875 22.671875 59.328125 
Q 17.53125 52.734375 16.796875 39.40625 
Q 19.671875 43.65625 24.015625 45.921875 
Q 28.375 48.1875 33.59375 48.1875 
Q 44.578125 48.1875 50.953125 41.515625 
Q 57.328125 34.859375 57.328125 23.390625 
Q 57.328125 12.15625 50.6875 5.359375 
Q 44.046875 -1.421875 33.015625 -1.421875 
Q 20.359375 -1.421875 13.671875 8.265625 
Q 6.984375 17.96875 6.984375 36.375 
Q 6.984375 53.65625 15.1875 63.9375 
Q 23.390625 74.21875 37.203125 74.21875 
Q 40.921875 74.21875 44.703125 73.484375 
Q 48.484375 72.75 52.59375 71.296875 
" id="DejaVuSans-36"/>
      </defs>
      <g transform="translate(262.32825 322.182437)scale(0.1 -0.1)">
       <use xlink:href="#DejaVuSans-36"/>
       <use x="63.623047" xlink:href="#DejaVuSans-30"/>
       <use x="127.246094" xlink:href="#DejaVuSans-30"/>
      </g>
     </g>
    </g>
    <g id="xtick_5">
     <g id="line2d_9">
      <path clip-path="url(#p2d97d0ac68)" d="M 343.296 307.584 
L 343.296 41.472 
" style="fill:none;stroke:#b0b0b0;stroke-linecap:square;stroke-width:0.8;"/>
     </g>
     <g id="line2d_10">
      <g>
       <use style="stroke:#000000;stroke-width:0.8;" x="343.296" xlink:href="#m7a43b55a78" y="307.584"/>
      </g>
     </g>
     <g id="text_5">
      <!-- 800 -->
      <defs>
       <path d="M 31.78125 34.625 
Q 24.75 34.625 20.71875 30.859375 
Q 16.703125 27.09375 16.703125 20.515625 
Q 16.703125 13.921875 20.71875 10.15625 
Q 24.75 6.390625 31.78125 6.390625 
Q 38.8125 6.390625 42.859375 10.171875 
Q 46.921875 13.96875 46.921875 20.515625 
Q 46.921875 27.09375 42.890625 30.859375 
Q 38.875 34.625 31.78125 34.625 
M 21.921875 38.8125 
Q 15.578125 40.375 12.03125 44.71875 
Q 8.5 49.078125 8.5 55.328125 
Q 8.5 64.0625 14.71875 69.140625 
Q 20.953125 74.21875 31.78125 74.21875 
Q 42.671875 74.21875 48.875 69.140625 
Q 55.078125 64.0625 55.078125 55.328125 
Q 55.078125 49.078125 51.53125 44.71875 
Q 48 40.375 41.703125 38.8125 
Q 48.828125 37.15625 52.796875 32.3125 
Q 56.78125 27.484375 56.78125 20.515625 
Q 56.78125 9.90625 50.3125 4.234375 
Q 43.84375 -1.421875 31.78125 -1.421875 
Q 19.734375 -1.421875 13.25 4.234375 
Q 6.78125 9.90625 6.78125 20.515625 
Q 6.78125 27.484375 10.78125 32.3125 
Q 14.796875 37.15625 21.921875 38.8125 
M 18.3125 54.390625 
Q 18.3125 48.734375 21.84375 45.5625 
Q 25.390625 42.390625 31.78125 42.390625 
Q 38.140625 42.390625 41.71875 45.5625 
Q 45.3125 48.734375 45.3125 54.390625 
Q 45.3125 60.0625 41.71875 63.234375 
Q 38.140625 66.40625 31.78125 66.40625 
Q 25.390625 66.40625 21.84375 63.234375 
Q 18.3125 60.0625 18.3125 54.390625 
" id="DejaVuSans-38"/>
      </defs>
      <g transform="translate(333.75225 322.182437)scale(0.1 -0.1)">
       <use xlink:href="#DejaVuSans-38"/>
       <use x="63.623047" xlink:href="#DejaVuSans-30"/>
       <use x="127.246094" xlink:href="#DejaVuSans-30"/>
      </g>
     </g>
    </g>
    <g id="xtick_6">
     <g id="line2d_11">
      <path clip-path="url(#p2d97d0ac68)" d="M 414.72 307.584 
L 414.72 41.472 
" style="fill:none;stroke:#b0b0b0;stroke-linecap:square;stroke-width:0.8;"/>
     </g>
     <g id="line2d_12">
      <g>
       <use style="stroke:#000000;stroke-width:0.8;" x="414.72" xlink:href="#m7a43b55a78" y="307.584"/>
      </g>
     </g>
     <g id="text_6">
      <!-- 1000 -->
      <defs>
       <path d="M 12.40625 8.296875 
L 28.515625 8.296875 
L 28.515625 63.921875 
L 10.984375 60.40625 
L 10.984375 69.390625 
L 28.421875 72.90625 
L 38.28125 72.90625 
L 38.28125 8.296875 
L 54.390625 8.296875 
L 54.390625 0 
L 12.40625 0 
z
" id="DejaVuSans-31"/>
      </defs>
      <g transform="translate(401.995 322.182437)scale(0.1 -0.1)">
       <use xlink:href="#DejaVuSans-31"/>
       <use x="63.623047" xlink:href="#DejaVuSans-30"/>
       <use x="127.246094" xlink:href="#DejaVuSans-30"/>
       <use x="190.869141" xlink:href="#DejaVuSans-30"/>
      </g>
     </g>
    </g>
    <g id="text_7">
     <!-- Number of clients -->
     <defs>
      <path d="M 9.8125 72.90625 
L 23.09375 72.90625 
L 55.421875 11.921875 
L 55.421875 72.90625 
L 64.984375 72.90625 
L 64.984375 0 
L 51.703125 0 
L 19.390625 60.984375 
L 19.390625 0 
L 9.8125 0 
z
" id="DejaVuSans-4e"/>
      <path d="M 8.5 21.578125 
L 8.5 54.6875 
L 17.484375 54.6875 
L 17.484375 21.921875 
Q 17.484375 14.15625 20.5 10.265625 
Q 23.53125 6.390625 29.59375 6.390625 
Q 36.859375 6.390625 41.078125 11.03125 
Q 45.3125 15.671875 45.3125 23.6875 
L 45.3125 54.6875 
L 54.296875 54.6875 
L 54.296875 0 
L 45.3125 0 
L 45.3125 8.40625 
Q 42.046875 3.421875 37.71875 1 
Q 33.40625 -1.421875 27.6875 -1.421875 
Q 18.265625 -1.421875 13.375 4.4375 
Q 8.5 10.296875 8.5 21.578125 
M 31.109375 56 
z
" id="DejaVuSans-75"/>
      <path d="M 52 44.1875 
Q 55.375 50.25 60.0625 53.125 
Q 64.75 56 71.09375 56 
Q 79.640625 56 84.28125 50.015625 
Q 88.921875 44.046875 88.921875 33.015625 
L 88.921875 0 
L 79.890625 0 
L 79.890625 32.71875 
Q 79.890625 40.578125 77.09375 44.375 
Q 74.3125 48.1875 68.609375 48.1875 
Q 61.625 48.1875 57.5625 43.546875 
Q 53.515625 38.921875 53.515625 30.90625 
L 53.515625 0 
L 44.484375 0 
L 44.484375 32.71875 
Q 44.484375 40.625 41.703125 44.40625 
Q 38.921875 48.1875 33.109375 48.1875 
Q 26.21875 48.1875 22.15625 43.53125 
Q 18.109375 38.875 18.109375 30.90625 
L 18.109375 0 
L 9.078125 0 
L 9.078125 54.6875 
L 18.109375 54.6875 
L 18.109375 46.1875 
Q 21.1875 51.21875 25.484375 53.609375 
Q 29.78125 56 35.6875 56 
Q 41.65625 56 45.828125 52.96875 
Q 50 49.953125 52 44.1875 
" id="DejaVuSans-6d"/>
      <path d="M 48.6875 27.296875 
Q 48.6875 37.203125 44.609375 42.84375 
Q 40.53125 48.484375 33.40625 48.484375 
Q 26.265625 48.484375 22.1875 42.84375 
Q 18.109375 37.203125 18.109375 27.296875 
Q 18.109375 17.390625 22.1875 11.75 
Q 26.265625 6.109375 33.40625 6.109375 
Q 40.53125 6.109375 44.609375 11.75 
Q 48.6875 17.390625 48.6875 27.296875 
M 18.109375 46.390625 
Q 20.953125 51.265625 25.265625 53.625 
Q 29.59375 56 35.59375 56 
Q 45.5625 56 51.78125 48.09375 
Q 58.015625 40.1875 58.015625 27.296875 
Q 58.015625 14.40625 51.78125 6.484375 
Q 45.5625 -1.421875 35.59375 -1.421875 
Q 29.59375 -1.421875 25.265625 0.953125 
Q 20.953125 3.328125 18.109375 8.203125 
L 18.109375 0 
L 9.078125 0 
L 9.078125 75.984375 
L 18.109375 75.984375 
z
" id="DejaVuSans-62"/>
      <path d="M 56.203125 29.59375 
L 56.203125 25.203125 
L 14.890625 25.203125 
Q 15.484375 15.921875 20.484375 11.0625 
Q 25.484375 6.203125 34.421875 6.203125 
Q 39.59375 6.203125 44.453125 7.46875 
Q 49.3125 8.734375 54.109375 11.28125 
L 54.109375 2.78125 
Q 49.265625 0.734375 44.1875 -0.34375 
Q 39.109375 -1.421875 33.890625 -1.421875 
Q 20.796875 -1.421875 13.15625 6.1875 
Q 5.515625 13.8125 5.515625 26.8125 
Q 5.515625 40.234375 12.765625 48.109375 
Q 20.015625 56 32.328125 56 
Q 43.359375 56 49.78125 48.890625 
Q 56.203125 41.796875 56.203125 29.59375 
M 47.21875 32.234375 
Q 47.125 39.59375 43.09375 43.984375 
Q 39.0625 48.390625 32.421875 48.390625 
Q 24.90625 48.390625 20.390625 44.140625 
Q 15.875 39.890625 15.1875 32.171875 
z
" id="DejaVuSans-65"/>
      <path d="M 41.109375 46.296875 
Q 39.59375 47.171875 37.8125 47.578125 
Q 36.03125 48 33.890625 48 
Q 26.265625 48 22.1875 43.046875 
Q 18.109375 38.09375 18.109375 28.8125 
L 18.109375 0 
L 9.078125 0 
L 9.078125 54.6875 
L 18.109375 54.6875 
L 18.109375 46.1875 
Q 20.953125 51.171875 25.484375 53.578125 
Q 30.03125 56 36.53125 56 
Q 37.453125 56 38.578125 55.875 
Q 39.703125 55.765625 41.0625 55.515625 
z
" id="DejaVuSans-72"/>
      <path id="DejaVuSans-20"/>
      <path d="M 30.609375 48.390625 
Q 23.390625 48.390625 19.1875 42.75 
Q 14.984375 37.109375 14.984375 27.296875 
Q 14.984375 17.484375 19.15625 11.84375 
Q 23.34375 6.203125 30.609375 6.203125 
Q 37.796875 6.203125 41.984375 11.859375 
Q 46.1875 17.53125 46.1875 27.296875 
Q 46.1875 37.015625 41.984375 42.703125 
Q 37.796875 48.390625 30.609375 48.390625 
M 30.609375 56 
Q 42.328125 56 49.015625 48.375 
Q 55.71875 40.765625 55.71875 27.296875 
Q 55.71875 13.875 49.015625 6.21875 
Q 42.328125 -1.421875 30.609375 -1.421875 
Q 18.84375 -1.421875 12.171875 6.21875 
Q 5.515625 13.875 5.515625 27.296875 
Q 5.515625 40.765625 12.171875 48.375 
Q 18.84375 56 30.609375 56 
" id="DejaVuSans-6f"/>
      <path d="M 37.109375 75.984375 
L 37.109375 68.5 
L 28.515625 68.5 
Q 23.6875 68.5 21.796875 66.546875 
Q 19.921875 64.59375 19.921875 59.515625 
L 19.921875 54.6875 
L 34.71875 54.6875 
L 34.71875 47.703125 
L 19.921875 47.703125 
L 19.921875 0 
L 10.890625 0 
L 10.890625 47.703125 
L 2.296875 47.703125 
L 2.296875 54.6875 
L 10.890625 54.6875 
L 10.890625 58.5 
Q 10.890625 67.625 15.140625 71.796875 
Q 19.390625 75.984375 28.609375 75.984375 
z
" id="DejaVuSans-66"/>
      <path d="M 48.78125 52.59375 
L 48.78125 44.1875 
Q 44.96875 46.296875 41.140625 47.34375 
Q 37.3125 48.390625 33.40625 48.390625 
Q 24.65625 48.390625 19.8125 42.84375 
Q 14.984375 37.3125 14.984375 27.296875 
Q 14.984375 17.28125 19.8125 11.734375 
Q 24.65625 6.203125 33.40625 6.203125 
Q 37.3125 6.203125 41.140625 7.25 
Q 44.96875 8.296875 48.78125 10.40625 
L 48.78125 2.09375 
Q 45.015625 0.34375 40.984375 -0.53125 
Q 36.96875 -1.421875 32.421875 -1.421875 
Q 20.0625 -1.421875 12.78125 6.34375 
Q 5.515625 14.109375 5.515625 27.296875 
Q 5.515625 40.671875 12.859375 48.328125 
Q 20.21875 56 33.015625 56 
Q 37.15625 56 41.109375 55.140625 
Q 45.0625 54.296875 48.78125 52.59375 
" id="DejaVuSans-63"/>
      <path d="M 9.421875 75.984375 
L 18.40625 75.984375 
L 18.40625 0 
L 9.421875 0 
z
" id="DejaVuSans-6c"/>
      <path d="M 9.421875 54.6875 
L 18.40625 54.6875 
L 18.40625 0 
L 9.421875 0 
z
M 9.421875 75.984375 
L 18.40625 75.984375 
L 18.40625 64.59375 
L 9.421875 64.59375 
z
" id="DejaVuSans-69"/>
      <path d="M 54.890625 33.015625 
L 54.890625 0 
L 45.90625 0 
L 45.90625 32.71875 
Q 45.90625 40.484375 42.875 44.328125 
Q 39.84375 48.1875 33.796875 48.1875 
Q 26.515625 48.1875 22.3125 43.546875 
Q 18.109375 38.921875 18.109375 30.90625 
L 18.109375 0 
L 9.078125 0 
L 9.078125 54.6875 
L 18.109375 54.6875 
L 18.109375 46.1875 
Q 21.34375 51.125 25.703125 53.5625 
Q 30.078125 56 35.796875 56 
Q 45.21875 56 50.046875 50.171875 
Q 54.890625 44.34375 54.890625 33.015625 
" id="DejaVuSans-6e"/>
      <path d="M 18.3125 70.21875 
L 18.3125 54.6875 
L 36.8125 54.6875 
L 36.8125 47.703125 
L 18.3125 47.703125 
L 18.3125 18.015625 
Q 18.3125 11.328125 20.140625 9.421875 
Q 21.96875 7.515625 27.59375 7.515625 
L 36.8125 7.515625 
L 36.8125 0 
L 27.59375 0 
Q 17.1875 0 13.234375 3.875 
Q 9.28125 7.765625 9.28125 18.015625 
L 9.28125 47.703125 
L 2.6875 47.703125 
L 2.6875 54.6875 
L 9.28125 54.6875 
L 9.28125 70.21875 
z
" id="DejaVuSans-74"/>
      <path d="M 44.28125 53.078125 
L 44.28125 44.578125 
Q 40.484375 46.53125 36.375 47.5 
Q 32.28125 48.484375 27.875 48.484375 
Q 21.1875 48.484375 17.84375 46.4375 
Q 14.5 44.390625 14.5 40.28125 
Q 14.5 37.15625 16.890625 35.375 
Q 19.28125 33.59375 26.515625 31.984375 
L 29.59375 31.296875 
Q 39.15625 29.25 43.1875 25.515625 
Q 47.21875 21.78125 47.21875 15.09375 
Q 47.21875 7.46875 41.1875 3.015625 
Q 35.15625 -1.421875 24.609375 -1.421875 
Q 20.21875 -1.421875 15.453125 -0.5625 
Q 10.6875 0.296875 5.421875 2 
L 5.421875 11.28125 
Q 10.40625 8.6875 15.234375 7.390625 
Q 20.0625 6.109375 24.8125 6.109375 
Q 31.15625 6.109375 34.5625 8.28125 
Q 37.984375 10.453125 37.984375 14.40625 
Q 37.984375 18.0625 35.515625 20.015625 
Q 33.0625 21.96875 24.703125 23.78125 
L 21.578125 24.515625 
Q 13.234375 26.265625 9.515625 29.90625 
Q 5.8125 33.546875 5.8125 39.890625 
Q 5.8125 47.609375 11.28125 51.796875 
Q 16.75 56 26.8125 56 
Q 31.78125 56 36.171875 55.265625 
Q 40.578125 54.546875 44.28125 53.078125 
" id="DejaVuSans-73"/>
     </defs>
     <g transform="translate(191.738906 335.860562)scale(0.1 -0.1)">
      <use xlink:href="#DejaVuSans-4e"/>
      <use x="74.804688" xlink:href="#DejaVuSans-75"/>
      <use x="138.183594" xlink:href="#DejaVuSans-6d"/>
      <use x="235.595703" xlink:href="#DejaVuSans-62"/>
      <use x="299.072266" xlink:href="#DejaVuSans-65"/>
      <use x="360.595703" xlink:href="#DejaVuSans-72"/>
      <use x="401.708984" xlink:href="#DejaVuSans-20"/>
      <use x="433.496094" xlink:href="#DejaVuSans-6f"/>
      <use x="494.677734" xlink:href="#DejaVuSans-66"/>
      <use x="529.882812" xlink:href="#DejaVuSans-20"/>
      <use x="561.669922" xlink:href="#DejaVuSans-63"/>
      <use x="616.650391" xlink:href="#DejaVuSans-6c"/>
      <use x="644.433594" xlink:href="#DejaVuSans-69"/>
      <use x="672.216797" xlink:href="#DejaVuSans-65"/>
      <use x="733.740234" xlink:href="#DejaVuSans-6e"/>
      <use x="797.119141" xlink:href="#DejaVuSans-74"/>
      <use x="836.328125" xlink:href="#DejaVuSans-73"/>
     </g>
    </g>
   </g>
   <g id="matplotlib.axis_2">
    <g id="ytick_1">
     <g id="line2d_13">
      <path clip-path="url(#p2d97d0ac68)" d="M 57.6 295.91351 
L 414.72 295.91351 
" style="fill:none;stroke:#b0b0b0;stroke-linecap:square;stroke-width:0.8;"/>
     </g>
     <g id="line2d_14">
      <defs>
       <path d="M 0 0 
L -3.5 0 
" id="mba8b01420f" style="stroke:#000000;stroke-width:0.8;"/>
      </defs>
      <g>
       <use style="stroke:#000000;stroke-width:0.8;" x="57.6" xlink:href="#mba8b01420f" y="295.91351"/>
      </g>
     </g>
     <g id="text_8">
      <!-- 0 -->
      <g transform="translate(44.2375 299.712728)scale(0.1 -0.1)">
       <use xlink:href="#DejaVuSans-30"/>
      </g>
     </g>
    </g>
    <g id="ytick_2">
     <g id="line2d_15">
      <path clip-path="url(#p2d97d0ac68)" d="M 57.6 252.001269 
L 414.72 252.001269 
" style="fill:none;stroke:#b0b0b0;stroke-linecap:square;stroke-width:0.8;"/>
     </g>
     <g id="line2d_16">
      <g>
       <use style="stroke:#000000;stroke-width:0.8;" x="57.6" xlink:href="#mba8b01420f" y="252.001269"/>
      </g>
     </g>
     <g id="text_9">
      <!-- 100 -->
      <g transform="translate(31.5125 255.800488)scale(0.1 -0.1)">
       <use xlink:href="#DejaVuSans-31"/>
       <use x="63.623047" xlink:href="#DejaVuSans-30"/>
       <use x="127.246094" xlink:href="#DejaVuSans-30"/>
      </g>
     </g>
    </g>
    <g id="ytick_3">
     <g id="line2d_17">
      <path clip-path="url(#p2d97d0ac68)" d="M 57.6 208.089028 
L 414.72 208.089028 
" style="fill:none;stroke:#b0b0b0;stroke-linecap:square;stroke-width:0.8;"/>
     </g>
     <g id="line2d_18">
      <g>
       <use style="stroke:#000000;stroke-width:0.8;" x="57.6" xlink:href="#mba8b01420f" y="208.089028"/>
      </g>
     </g>
     <g id="text_10">
      <!-- 200 -->
      <g transform="translate(31.5125 211.888247)scale(0.1 -0.1)">
       <use xlink:href="#DejaVuSans-32"/>
       <use x="63.623047" xlink:href="#DejaVuSans-30"/>
       <use x="127.246094" xlink:href="#DejaVuSans-30"/>
      </g>
     </g>
    </g>
    <g id="ytick_4">
     <g id="line2d_19">
      <path clip-path="url(#p2d97d0ac68)" d="M 57.6 164.176787 
L 414.72 164.176787 
" style="fill:none;stroke:#b0b0b0;stroke-linecap:square;stroke-width:0.8;"/>
     </g>
     <g id="line2d_20">
      <g>
       <use style="stroke:#000000;stroke-width:0.8;" x="57.6" xlink:href="#mba8b01420f" y="164.176787"/>
      </g>
     </g>
     <g id="text_11">
      <!-- 300 -->
      <defs>
       <path d="M 40.578125 39.3125 
Q 47.65625 37.796875 51.625 33 
Q 55.609375 28.21875 55.609375 21.1875 
Q 55.609375 10.40625 48.1875 4.484375 
Q 40.765625 -1.421875 27.09375 -1.421875 
Q 22.515625 -1.421875 17.65625 -0.515625 
Q 12.796875 0.390625 7.625 2.203125 
L 7.625 11.71875 
Q 11.71875 9.328125 16.59375 8.109375 
Q 21.484375 6.890625 26.8125 6.890625 
Q 36.078125 6.890625 40.9375 10.546875 
Q 45.796875 14.203125 45.796875 21.1875 
Q 45.796875 27.640625 41.28125 31.265625 
Q 36.765625 34.90625 28.71875 34.90625 
L 20.21875 34.90625 
L 20.21875 43.015625 
L 29.109375 43.015625 
Q 36.375 43.015625 40.234375 45.921875 
Q 44.09375 48.828125 44.09375 54.296875 
Q 44.09375 59.90625 40.109375 62.90625 
Q 36.140625 65.921875 28.71875 65.921875 
Q 24.65625 65.921875 20.015625 65.03125 
Q 15.375 64.15625 9.8125 62.3125 
L 9.8125 71.09375 
Q 15.4375 72.65625 20.34375 73.4375 
Q 25.25 74.21875 29.59375 74.21875 
Q 40.828125 74.21875 47.359375 69.109375 
Q 53.90625 64.015625 53.90625 55.328125 
Q 53.90625 49.265625 50.4375 45.09375 
Q 46.96875 40.921875 40.578125 39.3125 
" id="DejaVuSans-33"/>
      </defs>
      <g transform="translate(31.5125 167.976006)scale(0.1 -0.1)">
       <use xlink:href="#DejaVuSans-33"/>
       <use x="63.623047" xlink:href="#DejaVuSans-30"/>
       <use x="127.246094" xlink:href="#DejaVuSans-30"/>
      </g>
     </g>
    </g>
    <g id="ytick_5">
     <g id="line2d_21">
      <path clip-path="url(#p2d97d0ac68)" d="M 57.6 120.264546 
L 414.72 120.264546 
" style="fill:none;stroke:#b0b0b0;stroke-linecap:square;stroke-width:0.8;"/>
     </g>
     <g id="line2d_22">
      <g>
       <use style="stroke:#000000;stroke-width:0.8;" x="57.6" xlink:href="#mba8b01420f" y="120.264546"/>
      </g>
     </g>
     <g id="text_12">
      <!-- 400 -->
      <g transform="translate(31.5125 124.063765)scale(0.1 -0.1)">
       <use xlink:href="#DejaVuSans-34"/>
       <use x="63.623047" xlink:href="#DejaVuSans-30"/>
       <use x="127.246094" xlink:href="#DejaVuSans-30"/>
      </g>
     </g>
    </g>
    <g id="ytick_6">
     <g id="line2d_23">
      <path clip-path="url(#p2d97d0ac68)" d="M 57.6 76.352305 
L 414.72 76.352305 
" style="fill:none;stroke:#b0b0b0;stroke-linecap:square;stroke-width:0.8;"/>
     </g>
     <g id="line2d_24">
      <g>
       <use style="stroke:#000000;stroke-width:0.8;" x="57.6" xlink:href="#mba8b01420f" y="76.352305"/>
      </g>
     </g>
     <g id="text_13">
      <!-- 500 -->
      <defs>
       <path d="M 10.796875 72.90625 
L 49.515625 72.90625 
L 49.515625 64.59375 
L 19.828125 64.59375 
L 19.828125 46.734375 
Q 21.96875 47.46875 24.109375 47.828125 
Q 26.265625 48.1875 28.421875 48.1875 
Q 40.625 48.1875 47.75 41.5 
Q 54.890625 34.8125 54.890625 23.390625 
Q 54.890625 11.625 47.5625 5.09375 
Q 40.234375 -1.421875 26.90625 -1.421875 
Q 22.3125 -1.421875 17.546875 -0.640625 
Q 12.796875 0.140625 7.71875 1.703125 
L 7.71875 11.625 
Q 12.109375 9.234375 16.796875 8.0625 
Q 21.484375 6.890625 26.703125 6.890625 
Q 35.15625 6.890625 40.078125 11.328125 
Q 45.015625 15.765625 45.015625 23.390625 
Q 45.015625 31 40.078125 35.4375 
Q 35.15625 39.890625 26.703125 39.890625 
Q 22.75 39.890625 18.8125 39.015625 
Q 14.890625 38.140625 10.796875 36.28125 
z
" id="DejaVuSans-35"/>
      </defs>
      <g transform="translate(31.5125 80.151524)scale(0.1 -0.1)">
       <use xlink:href="#DejaVuSans-35"/>
       <use x="63.623047" xlink:href="#DejaVuSans-30"/>
       <use x="127.246094" xlink:href="#DejaVuSans-30"/>
      </g>
     </g>
    </g>
    <g id="text_14">
     <!-- Successful download requests per second -->
     <defs>
      <path d="M 53.515625 70.515625 
L 53.515625 60.890625 
Q 47.90625 63.578125 42.921875 64.890625 
Q 37.9375 66.21875 33.296875 66.21875 
Q 25.25 66.21875 20.875 63.09375 
Q 16.5 59.96875 16.5 54.203125 
Q 16.5 49.359375 19.40625 46.890625 
Q 22.3125 44.4375 30.421875 42.921875 
L 36.375 41.703125 
Q 47.40625 39.59375 52.65625 34.296875 
Q 57.90625 29 57.90625 20.125 
Q 57.90625 9.515625 50.796875 4.046875 
Q 43.703125 -1.421875 29.984375 -1.421875 
Q 24.8125 -1.421875 18.96875 -0.25 
Q 13.140625 0.921875 6.890625 3.21875 
L 6.890625 13.375 
Q 12.890625 10.015625 18.65625 8.296875 
Q 24.421875 6.59375 29.984375 6.59375 
Q 38.421875 6.59375 43.015625 9.90625 
Q 47.609375 13.234375 47.609375 19.390625 
Q 47.609375 24.75 44.3125 27.78125 
Q 41.015625 30.8125 33.5 32.328125 
L 27.484375 33.5 
Q 16.453125 35.6875 11.515625 40.375 
Q 6.59375 45.0625 6.59375 53.421875 
Q 6.59375 63.09375 13.40625 68.65625 
Q 20.21875 74.21875 32.171875 74.21875 
Q 37.3125 74.21875 42.625 73.28125 
Q 47.953125 72.359375 53.515625 70.515625 
" id="DejaVuSans-53"/>
      <path d="M 45.40625 46.390625 
L 45.40625 75.984375 
L 54.390625 75.984375 
L 54.390625 0 
L 45.40625 0 
L 45.40625 8.203125 
Q 42.578125 3.328125 38.25 0.953125 
Q 33.9375 -1.421875 27.875 -1.421875 
Q 17.96875 -1.421875 11.734375 6.484375 
Q 5.515625 14.40625 5.515625 27.296875 
Q 5.515625 40.1875 11.734375 48.09375 
Q 17.96875 56 27.875 56 
Q 33.9375 56 38.25 53.625 
Q 42.578125 51.265625 45.40625 46.390625 
M 14.796875 27.296875 
Q 14.796875 17.390625 18.875 11.75 
Q 22.953125 6.109375 30.078125 6.109375 
Q 37.203125 6.109375 41.296875 11.75 
Q 45.40625 17.390625 45.40625 27.296875 
Q 45.40625 37.203125 41.296875 42.84375 
Q 37.203125 48.484375 30.078125 48.484375 
Q 22.953125 48.484375 18.875 42.84375 
Q 14.796875 37.203125 14.796875 27.296875 
" id="DejaVuSans-64"/>
      <path d="M 4.203125 54.6875 
L 13.1875 54.6875 
L 24.421875 12.015625 
L 35.59375 54.6875 
L 46.1875 54.6875 
L 57.421875 12.015625 
L 68.609375 54.6875 
L 77.59375 54.6875 
L 63.28125 0 
L 52.6875 0 
L 40.921875 44.828125 
L 29.109375 0 
L 18.5 0 
z
" id="DejaVuSans-77"/>
      <path d="M 34.28125 27.484375 
Q 23.390625 27.484375 19.1875 25 
Q 14.984375 22.515625 14.984375 16.5 
Q 14.984375 11.71875 18.140625 8.90625 
Q 21.296875 6.109375 26.703125 6.109375 
Q 34.1875 6.109375 38.703125 11.40625 
Q 43.21875 16.703125 43.21875 25.484375 
L 43.21875 27.484375 
z
M 52.203125 31.203125 
L 52.203125 0 
L 43.21875 0 
L 43.21875 8.296875 
Q 40.140625 3.328125 35.546875 0.953125 
Q 30.953125 -1.421875 24.3125 -1.421875 
Q 15.921875 -1.421875 10.953125 3.296875 
Q 6 8.015625 6 15.921875 
Q 6 25.140625 12.171875 29.828125 
Q 18.359375 34.515625 30.609375 34.515625 
L 43.21875 34.515625 
L 43.21875 35.40625 
Q 43.21875 41.609375 39.140625 45 
Q 35.0625 48.390625 27.6875 48.390625 
Q 23 48.390625 18.546875 47.265625 
Q 14.109375 46.140625 10.015625 43.890625 
L 10.015625 52.203125 
Q 14.9375 54.109375 19.578125 55.046875 
Q 24.21875 56 28.609375 56 
Q 40.484375 56 46.34375 49.84375 
Q 52.203125 43.703125 52.203125 31.203125 
" id="DejaVuSans-61"/>
      <path d="M 14.796875 27.296875 
Q 14.796875 17.390625 18.875 11.75 
Q 22.953125 6.109375 30.078125 6.109375 
Q 37.203125 6.109375 41.296875 11.75 
Q 45.40625 17.390625 45.40625 27.296875 
Q 45.40625 37.203125 41.296875 42.84375 
Q 37.203125 48.484375 30.078125 48.484375 
Q 22.953125 48.484375 18.875 42.84375 
Q 14.796875 37.203125 14.796875 27.296875 
M 45.40625 8.203125 
Q 42.578125 3.328125 38.25 0.953125 
Q 33.9375 -1.421875 27.875 -1.421875 
Q 17.96875 -1.421875 11.734375 6.484375 
Q 5.515625 14.40625 5.515625 27.296875 
Q 5.515625 40.1875 11.734375 48.09375 
Q 17.96875 56 27.875 56 
Q 33.9375 56 38.25 53.625 
Q 42.578125 51.265625 45.40625 46.390625 
L 45.40625 54.6875 
L 54.390625 54.6875 
L 54.390625 -20.796875 
L 45.40625 -20.796875 
z
" id="DejaVuSans-71"/>
      <path d="M 18.109375 8.203125 
L 18.109375 -20.796875 
L 9.078125 -20.796875 
L 9.078125 54.6875 
L 18.109375 54.6875 
L 18.109375 46.390625 
Q 20.953125 51.265625 25.265625 53.625 
Q 29.59375 56 35.59375 56 
Q 45.5625 56 51.78125 48.09375 
Q 58.015625 40.1875 58.015625 27.296875 
Q 58.015625 14.40625 51.78125 6.484375 
Q 45.5625 -1.421875 35.59375 -1.421875 
Q 29.59375 -1.421875 25.265625 0.953125 
Q 20.953125 3.328125 18.109375 8.203125 
M 48.6875 27.296875 
Q 48.6875 37.203125 44.609375 42.84375 
Q 40.53125 48.484375 33.40625 48.484375 
Q 26.265625 48.484375 22.1875 42.84375 
Q 18.109375 37.203125 18.109375 27.296875 
Q 18.109375 17.390625 22.1875 11.75 
Q 26.265625 6.109375 33.40625 6.109375 
Q 40.53125 6.109375 44.609375 11.75 
Q 48.6875 17.390625 48.6875 27.296875 
" id="DejaVuSans-70"/>
     </defs>
     <g transform="translate(25.432812 279.366281)rotate(-90)scale(0.1 -0.1)">
      <use xlink:href="#DejaVuSans-53"/>
      <use x="63.476562" xlink:href="#DejaVuSans-75"/>
      <use x="126.855469" xlink:href="#DejaVuSans-63"/>
      <use x="181.835938" xlink:href="#DejaVuSans-63"/>
      <use x="236.816406" xlink:href="#DejaVuSans-65"/>
      <use x="298.339844" xlink:href="#DejaVuSans-73"/>
      <use x="350.439453" xlink:href="#DejaVuSans-73"/>
      <use x="402.539062" xlink:href="#DejaVuSans-66"/>
      <use x="437.744141" xlink:href="#DejaVuSans-75"/>
      <use x="501.123047" xlink:href="#DejaVuSans-6c"/>
      <use x="528.90625" xlink:href="#DejaVuSans-20"/>
      <use x="560.693359" xlink:href="#DejaVuSans-64"/>
      <use x="624.169922" xlink:href="#DejaVuSans-6f"/>
      <use x="685.351562" xlink:href="#DejaVuSans-77"/>
      <use x="767.138672" xlink:href="#DejaVuSans-6e"/>
      <use x="830.517578" xlink:href="#DejaVuSans-6c"/>
      <use x="858.300781" xlink:href="#DejaVuSans-6f"/>
      <use x="919.482422" xlink:href="#DejaVuSans-61"/>
      <use x="980.761719" xlink:href="#DejaVuSans-64"/>
      <use x="1044.238281" xlink:href="#DejaVuSans-20"/>
      <use x="1076.025391" xlink:href="#DejaVuSans-72"/>
      <use x="1117.107422" xlink:href="#DejaVuSans-65"/>
      <use x="1178.630859" xlink:href="#DejaVuSans-71"/>
      <use x="1242.107422" xlink:href="#DejaVuSans-75"/>
      <use x="1305.486328" xlink:href="#DejaVuSans-65"/>
      <use x="1367.009766" xlink:href="#DejaVuSans-73"/>
      <use x="1419.109375" xlink:href="#DejaVuSans-74"/>
      <use x="1458.318359" xlink:href="#DejaVuSans-73"/>
      <use x="1510.417969" xlink:href="#DejaVuSans-20"/>
      <use x="1542.205078" xlink:href="#DejaVuSans-70"/>
      <use x="1605.681641" xlink:href="#DejaVuSans-65"/>
      <use x="1667.205078" xlink:href="#DejaVuSans-72"/>
      <use x="1708.318359" xlink:href="#DejaVuSans-20"/>
      <use x="1740.105469" xlink:href="#DejaVuSans-73"/>
      <use x="1792.205078" xlink:href="#DejaVuSans-65"/>
      <use x="1853.728516" xlink:href="#DejaVuSans-63"/>
      <use x="1908.708984" xlink:href="#DejaVuSans-6f"/>
      <use x="1969.890625" xlink:href="#DejaVuSans-6e"/>
      <use x="2033.269531" xlink:href="#DejaVuSans-64"/>
     </g>
    </g>
   </g>
   <g id="line2d_25">
    <path clip-path="url(#p2d97d0ac68)" d="M 57.6 295.488 
L 57.95712 295.478778 
L 64.38528 287.801601 
L 64.7424 287.694895 
L 65.09952 286.903157 
L 65.45664 286.676131 
L 65.81376 286.147427 
L 66.17088 286.036329 
L 67.24224 284.606547 
L 67.59936 283.809979 
L 67.95648 283.925029 
L 68.67072 282.500955 
L 69.38496 281.472091 
L 69.74208 281.40227 
L 70.0992 280.69177 
L 70.45632 280.230253 
L 70.81344 280.763347 
L 71.17056 279.729214 
L 71.52768 279.939993 
L 71.8848 279.396359 
L 72.24192 278.133882 
L 72.59904 278.179112 
L 72.95616 277.795319 
L 73.31328 277.185817 
L 73.6704 276.83891 
L 74.02752 276.862184 
L 74.38464 276.667653 
L 74.74176 275.288808 
L 75.456 274.386412 
L 75.81312 274.569965 
L 76.17024 273.14633 
L 76.52736 274.114595 
L 76.88448 272.889883 
L 77.2416 272.979024 
L 77.59872 271.656388 
L 77.95584 271.685809 
L 78.31296 270.597664 
L 78.67008 271.349002 
L 79.0272 270.06413 
L 79.38432 269.459019 
L 79.74144 270.155467 
L 80.45568 268.260215 
L 80.8128 268.907042 
L 81.16992 267.493507 
L 81.52704 266.675422 
L 81.88416 268.051632 
L 82.24128 266.140132 
L 82.5984 267.152309 
L 82.95552 266.088755 
L 83.31264 265.761609 
L 83.66976 266.056699 
L 84.02688 263.705198 
L 84.384 263.172982 
L 84.74112 264.640529 
L 85.09824 262.380366 
L 85.45536 263.843961 
L 85.81248 262.512103 
L 86.1696 262.74352 
L 86.52672 260.698088 
L 86.88384 261.523638 
L 87.59808 259.837847 
L 87.9552 259.905033 
L 88.31232 259.383356 
L 88.66944 260.183437 
L 89.02656 259.104513 
L 89.38368 258.637287 
L 89.7408 259.109343 
L 90.09792 258.087505 
L 90.45504 258.169621 
L 90.81216 255.383829 
L 91.16928 255.280196 
L 91.5264 254.807261 
L 91.88352 253.846461 
L 92.24064 255.522152 
L 92.59776 255.44311 
L 92.95488 252.897078 
L 93.312 253.538197 
L 93.66912 253.42183 
L 94.02624 251.154202 
L 94.38336 253.824505 
L 94.74048 252.600671 
L 95.0976 250.221945 
L 95.45472 251.696079 
L 95.81184 252.206778 
L 96.16896 250.158272 
L 96.52608 248.890086 
L 96.8832 249.676116 
L 97.24032 249.852643 
L 97.59744 247.534076 
L 97.95456 249.189568 
L 98.31168 245.923815 
L 98.6688 245.488644 
L 99.02592 247.863418 
L 99.38304 246.240861 
L 99.74016 245.769244 
L 100.09728 247.260942 
L 100.4544 244.819861 
L 100.81152 243.237264 
L 101.16864 244.759262 
L 101.52576 244.064131 
L 101.88288 244.923055 
L 102.24 243.920099 
L 102.59712 241.77323 
L 102.95424 243.127483 
L 103.31136 242.786724 
L 103.66848 243.231994 
L 104.0256 241.740735 
L 104.38272 240.788278 
L 104.73984 239.036619 
L 105.09696 239.860852 
L 105.45408 239.336539 
L 105.8112 239.055501 
L 106.16832 236.460288 
L 106.52544 238.714303 
L 106.88256 235.492901 
L 107.23968 238.994463 
L 108.31104 237.434261 
L 108.66816 233.809306 
L 109.02528 235.844638 
L 109.3824 236.212183 
L 109.73952 233.251181 
L 110.09664 233.617409 
L 110.45376 234.849587 
L 111.168 232.760681 
L 111.52512 232.595132 
L 111.88224 230.432893 
L 112.23936 233.275772 
L 112.59648 232.099363 
L 112.9536 228.835805 
L 113.31072 231.663754 
L 113.66784 228.008938 
L 114.02496 229.140117 
L 114.7392 226.509774 
L 115.09632 227.644905 
L 115.81056 225.754483 
L 116.16768 228.842831 
L 116.5248 228.038359 
L 116.88192 225.636798 
L 117.23904 227.148697 
L 117.59616 225.703984 
L 117.95328 226.4966 
L 118.3104 223.091645 
L 118.66752 223.846057 
L 119.38176 223.412643 
L 119.73888 224.453364 
L 120.096 219.997588 
L 120.45312 221.668449 
L 120.81024 218.977946 
L 121.16736 220.885055 
L 121.52448 217.453752 
L 121.8816 218.321019 
L 122.23872 217.311477 
L 122.59584 220.373477 
L 122.95296 216.150437 
L 123.31008 216.845568 
L 123.6672 215.642812 
L 124.02432 219.479424 
L 124.38144 219.017028 
L 124.73856 217.4902 
L 125.09568 213.889396 
L 125.4528 215.522931 
L 125.80992 215.922093 
L 126.16704 211.72584 
L 126.52416 212.4561 
L 126.88128 216.10872 
L 127.2384 212.484643 
L 127.59552 213.665004 
L 128.30976 210.671507 
L 128.66688 212.106559 
L 129.024 212.705961 
L 129.38112 212.574224 
L 129.73824 211.215579 
L 130.09536 207.495334 
L 130.8096 210.27937 
L 131.16672 205.454293 
L 131.52384 206.612259 
L 131.88096 206.647389 
L 132.23808 209.803362 
L 132.5952 207.73246 
L 133.30944 208.997133 
L 133.66656 208.777133 
L 134.02368 206.033057 
L 134.3808 202.196005 
L 134.73792 203.758842 
L 135.09504 204.759602 
L 135.45216 203.964351 
L 136.1664 204.13517 
L 136.52352 205.60623 
L 136.88064 200.379795 
L 137.23776 199.71672 
L 137.59488 204.235729 
L 137.952 198.819154 
L 138.30912 201.201393 
L 138.66624 202.310177 
L 139.02336 199.087458 
L 139.38048 200.570374 
L 139.7376 201.412611 
L 140.09472 198.275081 
L 140.45184 196.903702 
L 140.80896 199.77161 
L 141.16608 200.157599 
L 141.5232 198.924982 
L 141.88032 194.036233 
L 142.23744 195.301783 
L 142.59456 198.418235 
L 142.95168 196.825977 
L 143.3088 195.961345 
L 143.66592 191.011118 
L 144.02304 192.666171 
L 144.38016 191.656628 
L 144.73728 195.727732 
L 145.0944 189.187004 
L 145.45152 189.688921 
L 145.80864 193.865853 
L 146.16576 189.305567 
L 146.52288 187.161332 
L 146.88 186.61682 
L 147.23712 190.685729 
L 147.59424 188.430396 
L 147.95136 191.293474 
L 148.30848 185.219533 
L 148.6656 189.533911 
L 149.02272 183.521886 
L 149.37984 184.046637 
L 149.73696 189.297663 
L 150.09408 188.056264 
L 150.4512 182.748591 
L 150.80832 185.30604 
L 151.16544 182.136015 
L 151.52256 183.027434 
L 151.87968 181.162042 
L 152.2368 182.551864 
L 153.30816 180.321122 
L 153.66528 177.979722 
L 154.37952 184.016777 
L 154.73664 178.445191 
L 155.09376 181.840047 
L 155.45088 177.834372 
L 155.808 177.242874 
L 156.16512 182.317373 
L 156.52224 180.415534 
L 156.87936 177.836568 
L 157.23648 176.382633 
L 157.5936 181.514218 
L 157.95072 174.506703 
L 158.30784 173.944626 
L 158.66496 174.877761 
L 159.02208 174.904108 
L 159.3792 178.376688 
L 159.73632 172.223266 
L 160.09344 171.64099 
L 160.45056 176.475288 
L 160.80768 172.08099 
L 161.1648 170.966059 
L 161.52192 175.266823 
L 161.87904 174.062311 
L 162.23616 167.295873 
L 162.59328 169.007573 
L 162.9504 172.810373 
L 163.30752 172.038396 
L 163.66464 173.098876 
L 164.02176 165.109922 
L 164.37888 165.645212 
L 164.736 172.798956 
L 165.09312 170.501028 
L 165.45024 172.061669 
L 165.80736 168.885497 
L 166.16448 170.213842 
L 166.5216 170.081227 
L 166.87872 170.111087 
L 167.59296 163.835589 
L 167.95008 163.853154 
L 168.3072 166.703497 
L 168.66432 159.919934 
L 169.02144 165.332996 
L 169.37856 162.268361 
L 169.73568 164.380101 
L 170.0928 158.761529 
L 170.44992 158.015461 
L 170.80704 163.113672 
L 171.16416 157.690071 
L 171.52128 161.805087 
L 171.8784 155.778132 
L 172.23552 159.967799 
L 172.59264 161.484088 
L 172.94976 155.625756 
L 173.30688 157.193423 
L 173.664 160.351592 
L 174.02112 155.735976 
L 174.37824 156.019649 
L 174.73536 152.365272 
L 175.80672 159.710912 
L 176.16384 158.738256 
L 176.52096 150.177126 
L 176.87808 158.486639 
L 177.2352 156.293662 
L 177.59232 151.559922 
L 177.94944 152.487349 
L 178.30656 154.648709 
L 178.66368 150.583314 
L 179.37792 146.351052 
L 179.73504 149.476286 
L 180.09216 154.361962 
L 180.44928 152.373616 
L 180.8064 153.154815 
L 181.16352 151.74128 
L 181.52064 144.562067 
L 181.87776 152.052178 
L 182.23488 149.268142 
L 182.592 148.57872 
L 182.94912 145.395961 
L 183.30624 150.441916 
L 183.66336 144.24546 
L 184.02048 150.529302 
L 184.3776 149.136845 
L 184.73472 143.426936 
L 185.09184 145.895682 
L 185.44896 149.536007 
L 185.80608 138.842498 
L 186.1632 144.369293 
L 186.52032 140.703499 
L 186.87744 146.425264 
L 187.23456 144.609053 
L 187.59168 146.181112 
L 187.9488 142.825338 
L 188.30592 144.233604 
L 188.66304 139.015951 
L 189.02016 147.3079 
L 189.37728 146.558318 
L 189.7344 143.186297 
L 190.09152 136.319301 
L 190.44864 144.60598 
L 191.16288 137.177785 
L 191.52 135.660178 
L 191.87712 140.039546 
L 192.23424 139.325093 
L 192.59136 139.130123 
L 192.94848 136.829122 
L 193.3056 144.498395 
L 193.66272 135.675108 
L 194.01984 140.999028 
L 194.37696 142.957953 
L 194.73408 136.176586 
L 195.0912 136.277584 
L 195.44832 133.149715 
L 195.80544 133.226122 
L 196.16256 143.175758 
L 196.51968 133.370154 
L 196.8768 133.025004 
L 197.59104 142.19388 
L 197.94816 138.592637 
L 198.30528 141.836434 
L 199.01952 138.593955 
L 199.37664 134.085046 
L 199.73376 136.230598 
L 200.09088 140.315314 
L 200.448 136.410199 
L 201.16224 139.916152 
L 201.51936 138.151319 
L 201.87648 132.004484 
L 202.2336 131.919294 
L 202.59072 140.143618 
L 202.94784 132.415502 
L 203.30496 135.513072 
L 203.66208 136.218302 
L 204.0192 139.117389 
L 204.37632 131.48588 
L 204.73344 132.848477 
L 205.09056 132.79183 
L 205.44768 128.332981 
L 205.8048 129.227474 
L 206.16192 132.566121 
L 206.51904 139.006291 
L 206.87616 133.887441 
L 207.23328 132.604764 
L 207.5904 130.786797 
L 207.94752 127.980805 
L 208.30464 128.921405 
L 208.66176 133.4773 
L 209.01888 126.836891 
L 209.376 128.38875 
L 210.09024 133.042569 
L 210.44736 133.376741 
L 210.80448 128.402802 
L 211.1616 128.997373 
L 211.51872 135.656665 
L 211.87584 136.321057 
L 212.23296 126.337609 
L 212.59008 130.024042 
L 212.9472 125.909904 
L 213.30432 131.182007 
L 213.66144 128.617533 
L 214.37568 125.648626 
L 214.7328 125.623596 
L 215.08992 123.033213 
L 215.44704 127.392381 
L 215.80416 125.187987 
L 216.16128 134.536464 
L 216.5184 126.126391 
L 216.87552 131.286958 
L 217.23264 124.733495 
L 217.58976 121.859878 
L 217.94688 133.339855 
L 218.304 122.606825 
L 218.66112 128.354059 
L 219.01824 130.320449 
L 219.37536 131.250071 
L 219.73248 126.690224 
L 220.0896 131.668555 
L 220.44672 122.483432 
L 220.80384 120.448538 
L 221.16096 131.749354 
L 221.51808 130.08991 
L 221.8752 127.145594 
L 222.23232 130.712147 
L 222.58944 125.021559 
L 222.94656 131.450311 
L 223.30368 122.631855 
L 223.6608 129.851906 
L 224.01792 125.133096 
L 224.37504 118.91644 
L 224.73216 130.564601 
L 225.08928 120.475764 
L 225.4464 130.09474 
L 225.80352 127.050744 
L 226.16064 119.400792 
L 226.51776 117.927098 
L 226.87488 119.661631 
L 227.232 128.889349 
L 227.58912 124.869184 
L 227.94624 125.864674 
L 228.30336 129.345158 
L 228.66048 128.528391 
L 229.0176 125.713177 
L 229.37472 121.988541 
L 230.08896 127.240445 
L 230.44608 124.907387 
L 230.8032 116.716437 
L 231.16032 125.774215 
L 231.51744 123.903114 
L 231.87456 118.802708 
L 232.23168 118.290252 
L 232.5888 122.086465 
L 232.94592 116.731367 
L 233.30304 125.09138 
L 233.66016 120.276842 
L 234.01728 117.285979 
L 234.3744 121.023789 
L 234.73152 119.965943 
L 235.08864 114.047451 
L 235.44576 125.1713 
L 235.80288 115.262503 
L 236.16 115.220347 
L 236.51712 116.125378 
L 236.87424 120.426582 
L 237.23136 120.864826 
L 237.58848 116.171925 
L 237.9456 118.572168 
L 238.30272 118.407058 
L 238.65984 117.122625 
L 239.01696 114.086094 
L 239.7312 122.209419 
L 240.08832 112.200941 
L 240.80256 123.938683 
L 241.15968 113.674636 
L 241.5168 116.072245 
L 241.87392 116.374361 
L 242.23104 112.850843 
L 242.58816 117.955641 
L 242.94528 117.027336 
L 243.3024 112.066131 
L 243.65952 118.537917 
L 244.01664 111.030241 
L 244.37376 122.675767 
L 244.73088 114.364497 
L 245.44512 121.448859 
L 245.80224 117.59073 
L 246.15936 116.671647 
L 246.51648 117.127456 
L 246.8736 109.166166 
L 247.23072 115.75915 
L 247.58784 119.211092 
L 247.94496 117.779552 
L 248.30208 119.555803 
L 248.6592 118.596759 
L 249.01632 116.160508 
L 249.37344 116.081466 
L 249.73056 112.49208 
L 250.08768 119.002069 
L 250.4448 114.365815 
L 250.80192 111.204134 
L 251.15904 115.558471 
L 251.51616 114.116393 
L 251.87328 114.024617 
L 252.58752 119.089015 
L 252.94464 114.655636 
L 253.30176 105.918856 
L 253.65888 107.393429 
L 254.016 113.920545 
L 254.37312 109.470917 
L 254.73024 113.288648 
L 255.08736 108.324369 
L 255.44448 105.825762 
L 255.8016 110.065489 
L 256.15872 115.771007 
L 256.51584 109.308003 
L 256.87296 105.248755 
L 257.23008 113.420384 
L 257.5872 116.502584 
L 257.94432 106.27235 
L 258.30144 104.620371 
L 258.65856 103.827755 
L 259.01568 103.883085 
L 259.72992 110.308324 
L 260.08704 103.714023 
L 260.80128 106.667121 
L 261.1584 108.635267 
L 261.51552 115.413122 
L 261.87264 114.952043 
L 262.22976 111.316988 
L 262.58688 104.9765 
L 262.944 109.423931 
L 263.30112 108.482892 
L 263.65824 104.425401 
L 264.01536 111.238824 
L 264.37248 105.884166 
L 264.7296 102.498532 
L 265.08672 112.955793 
L 265.44384 104.191788 
L 265.80096 111.633156 
L 266.15808 101.817453 
L 266.5152 113.646971 
L 266.87232 111.760941 
L 267.22944 102.499849 
L 267.58656 107.240176 
L 267.94368 105.455582 
L 268.3008 109.711556 
L 268.65792 108.339299 
L 269.01504 106.222729 
L 269.37216 101.571105 
L 269.72928 103.152385 
L 270.0864 101.579888 
L 270.44352 109.163532 
L 271.15776 104.420131 
L 271.51488 98.477488 
L 271.872 98.792778 
L 272.22912 107.206363 
L 272.58624 110.59024 
L 272.94336 100.685834 
L 273.30048 110.299102 
L 273.6576 111.194912 
L 274.01472 108.841216 
L 274.37184 98.81166 
L 274.72896 110.191078 
L 275.08608 102.083561 
L 275.4432 106.321531 
L 275.80032 99.69254 
L 276.15744 105.456021 
L 276.51456 99.794855 
L 276.87168 106.44712 
L 277.2288 101.506554 
L 277.58592 101.846874 
L 277.94304 104.987917 
L 278.30016 104.995821 
L 278.65728 99.95733 
L 279.0144 106.443607 
L 279.37152 96.823314 
L 279.72864 95.32415 
L 280.08576 105.953986 
L 280.44288 95.484869 
L 280.8 98.416011 
L 281.15712 97.604952 
L 281.51424 105.363366 
L 281.87136 95.388262 
L 282.5856 104.452187 
L 282.94272 104.280051 
L 283.29984 107.049596 
L 283.65696 94.340516 
L 284.3712 97.526788 
L 284.72832 107.164646 
L 285.08544 100.098728 
L 285.44256 107.096582 
L 285.79968 103.360968 
L 286.1568 105.194743 
L 286.51392 93.770096 
L 286.87104 104.969474 
L 287.22816 93.345025 
L 287.58528 102.606117 
L 287.9424 93.875924 
L 288.29952 94.798959 
L 288.65664 99.794855 
L 289.01376 98.264953 
L 289.37088 100.323558 
L 289.728 94.355446 
L 290.08512 100.911982 
L 290.44224 93.761752 
L 290.79936 91.392687 
L 291.15648 92.378956 
L 291.5136 95.865149 
L 291.87072 97.21545 
L 292.22784 102.421246 
L 292.58496 97.389782 
L 292.94208 96.858444 
L 293.2992 101.887712 
L 293.65632 95.376405 
L 294.01344 100.988829 
L 294.37056 95.840558 
L 294.72768 103.627515 
L 295.0848 94.716844 
L 295.79904 89.684501 
L 296.15616 90.871009 
L 297.22752 93.469297 
L 297.58464 91.932807 
L 297.94176 102.68472 
L 298.29888 94.117441 
L 298.656 94.237761 
L 299.01312 102.494141 
L 299.37024 89.63005 
L 299.72736 98.040122 
L 300.08448 88.744779 
L 300.4416 88.163381 
L 300.79872 96.837366 
L 301.15584 98.671141 
L 301.51296 95.361914 
L 301.87008 96.612096 
L 302.2272 98.523157 
L 302.58432 99.455413 
L 302.94144 91.567458 
L 303.29856 94.506065 
L 303.65568 94.573251 
L 304.0128 99.925274 
L 304.36992 95.442274 
L 304.72704 95.319319 
L 305.08416 86.018707 
L 305.44128 87.936354 
L 305.7984 96.070658 
L 306.15552 90.143823 
L 306.51264 87.939867 
L 306.86976 97.81617 
L 307.22688 92.602908 
L 307.584 98.004553 
L 307.94112 86.193917 
L 308.29824 91.347018 
L 308.65536 88.279309 
L 309.01248 89.30949 
L 309.3696 87.955676 
L 309.72672 94.116563 
L 310.08384 87.454198 
L 310.44096 97.021797 
L 310.79808 90.6655 
L 311.1552 89.993643 
L 311.51232 88.666615 
L 311.86944 94.449857 
L 312.22656 83.32996 
L 312.58368 95.998642 
L 312.9408 92.348217 
L 313.29792 86.516672 
L 313.65504 85.050442 
L 314.01216 90.644422 
L 314.36928 83.921019 
L 314.7264 87.129687 
L 315.08352 93.558439 
L 315.44064 87.154717 
L 315.79776 85.280981 
L 316.15488 92.064983 
L 316.512 91.691729 
L 316.86912 91.693047 
L 317.22624 84.850202 
L 317.58336 95.510777 
L 317.94048 88.272283 
L 318.2976 95.819919 
L 318.65472 81.729359 
L 319.01184 93.346343 
L 319.36896 94.645706 
L 319.72608 94.545147 
L 320.0832 91.956959 
L 320.44032 93.348538 
L 321.15456 86.018268 
L 321.51168 82.331835 
L 321.8688 87.57847 
L 322.22592 80.303529 
L 322.58304 84.692557 
L 322.94016 85.435991 
L 323.29728 91.500272 
L 323.6544 82.05914 
L 324.01152 93.438997 
L 324.36864 82.865369 
L 324.72576 81.651635 
L 325.08288 90.118354 
L 325.44 90.322106 
L 325.79712 83.999183 
L 326.51136 88.255596 
L 326.86848 89.283143 
L 327.2256 90.677357 
L 327.93984 78.785922 
L 328.29696 85.172518 
L 328.65408 87.379108 
L 329.0112 78.746401 
L 329.36832 89.198831 
L 329.72544 92.314844 
L 330.08256 87.577152 
L 330.43968 85.408766 
L 330.7968 85.845254 
L 331.15392 83.183293 
L 331.51104 86.904417 
L 331.86816 86.774876 
L 332.22528 80.283329 
L 332.5824 82.425807 
L 332.93952 83.709801 
L 333.29664 90.521029 
L 333.65376 77.5959 
L 334.01088 78.17115 
L 334.368 84.837028 
L 334.72512 77.02548 
L 335.08224 90.427496 
L 335.43936 81.838701 
L 335.79648 89.263821 
L 336.1536 75.594819 
L 336.51072 78.493027 
L 336.86784 83.54513 
L 337.22496 80.489717 
L 337.58208 74.611185 
L 337.9392 79.515304 
L 338.29632 81.152352 
L 338.65344 82.000298 
L 339.01056 76.111227 
L 339.36768 87.007611 
L 340.08192 76.010229 
L 340.43904 88.184898 
L 340.79616 88.884859 
L 341.15328 77.406199 
L 341.5104 74.392941 
L 341.86752 84.130041 
L 342.22464 88.261744 
L 342.58176 86.529845 
L 342.93888 73.849747 
L 343.296 88.310487 
L 343.65312 78.447797 
L 344.01024 73.533139 
L 344.72448 82.507484 
L 345.0816 74.54883 
L 345.79584 79.885923 
L 346.15296 82.331396 
L 346.51008 74.325755 
L 346.8672 86.853918 
L 347.22432 76.076976 
L 347.58144 72.820005 
L 347.93856 74.781564 
L 348.29568 73.424676 
L 348.6528 73.625794 
L 349.00992 79.26193 
L 349.36704 73.635016 
L 350.08128 73.361003 
L 350.4384 79.988239 
L 350.79552 71.318206 
L 351.15264 84.904214 
L 351.50976 76.244281 
L 351.86688 71.467068 
L 352.224 72.445433 
L 352.58112 82.260258 
L 352.93824 69.748783 
L 353.29536 70.475091 
L 353.65248 82.841217 
L 354.0096 84.5112 
L 354.36672 81.500576 
L 354.72384 72.08667 
L 355.08096 75.041525 
L 355.43808 72.975893 
L 355.7952 69.556447 
L 356.15232 75.299729 
L 356.50944 71.766989 
L 356.86656 80.448439 
L 357.22368 76.548593 
L 357.5808 70.795211 
L 357.93792 81.930477 
L 358.29504 74.850068 
L 358.65216 75.618971 
L 359.00928 68.576765 
L 359.3664 77.256019 
L 359.72352 71.135531 
L 360.08064 70.241478 
L 360.43776 77.894503 
L 360.79488 74.840846 
L 361.152 82.520219 
L 361.50912 77.558135 
L 361.86624 69.528782 
L 362.22336 77.602048 
L 362.58048 80.514307 
L 362.9376 67.174208 
L 363.29472 71.643157 
L 363.65184 73.158129 
L 364.00896 67.517162 
L 364.36608 71.767867 
L 364.7232 71.997967 
L 365.08032 78.687997 
L 365.43744 68.590817 
L 365.79456 66.385105 
L 366.15168 79.793708 
L 366.5088 76.817336 
L 366.86592 70.576089 
L 367.22304 72.164834 
L 367.58016 70.99106 
L 367.93728 76.543324 
L 368.2944 75.047673 
L 368.65152 77.45099 
L 369.00864 66.076402 
L 369.36576 68.00854 
L 369.72288 79.003726 
L 370.08 69.332934 
L 370.43712 70.361797 
L 370.79424 65.823467 
L 371.15136 66.315724 
L 371.50848 67.507502 
L 371.8656 78.112308 
L 372.22272 66.544506 
L 372.57984 68.275088 
L 372.93696 68.770857 
L 373.29408 74.885636 
L 373.6512 78.317817 
L 374.00832 70.913335 
L 374.36544 73.401403 
L 374.72256 78.633107 
L 375.07968 70.19054 
L 375.4368 76.128353 
L 375.79392 65.961352 
L 376.15104 64.710292 
L 376.50816 76.264042 
L 376.86528 70.01006 
L 377.2224 75.422244 
L 377.57952 72.601761 
L 377.93664 64.208375 
L 378.65088 77.049193 
L 379.008 77.375461 
L 379.36512 61.763342 
L 379.72224 72.281201 
L 380.07936 71.587388 
L 380.43648 61.441904 
L 381.15072 66.706542 
L 381.50784 75.983882 
L 381.86496 75.818332 
L 382.22208 71.566749 
L 382.5792 75.206196 
L 382.93632 60.479787 
L 383.29344 74.115416 
L 383.65056 63.518514 
L 384.00768 63.694163 
L 384.3648 60.334876 
L 384.72192 73.995974 
L 385.07904 74.62348 
L 385.43616 67.229098 
L 385.79328 64.991769 
L 386.1504 65.434405 
L 386.50752 71.360801 
L 386.86464 61.33388 
L 387.22176 71.110062 
L 387.57888 66.581393 
L 387.936 74.27833 
L 388.29312 71.50659 
L 388.65024 71.323915 
L 389.00736 64.910532 
L 389.7216 60.780586 
L 390.07872 73.171742 
L 390.43584 66.165544 
L 390.79296 67.629578 
L 391.15008 70.977447 
L 391.5072 71.461799 
L 391.86432 68.712015 
L 392.22144 72.799366 
L 392.57856 58.749205 
L 392.93568 64.355481 
L 393.2928 59.125972 
L 394.36416 73.651263 
L 394.72128 66.560315 
L 395.0784 63.196198 
L 395.43552 60.984777 
L 395.79264 73.063278 
L 396.14976 61.216634 
L 396.50688 60.377032 
L 396.864 61.113879 
L 397.22112 63.86586 
L 397.57824 57.670282 
L 398.29248 72.253976 
L 399.00672 65.199035 
L 399.36384 69.2899 
L 399.72096 61.230247 
L 400.07808 64.902188 
L 400.4352 64.432767 
L 400.79232 68.379599 
L 401.14944 70.474652 
L 401.50656 65.621032 
L 401.86368 56.729681 
L 402.2208 71.368705 
L 402.57792 70.529981 
L 402.93504 56.002495 
L 403.29216 54.970996 
L 404.0064 63.041188 
L 404.36352 57.576748 
L 404.72064 69.80499 
L 405.07776 57.37607 
L 405.43488 67.360396 
L 405.792 66.229656 
L 406.14912 54.377742 
L 406.50624 59.384615 
L 406.86336 66.959477 
L 407.22048 58.84669 
L 407.5776 63.063583 
L 407.93472 68.983831 
L 408.29184 56.525929 
L 408.64896 55.830798 
L 409.00608 57.381778 
L 409.3632 57.52098 
L 409.72032 57.20086 
L 410.07744 66.730255 
L 410.43456 61.912643 
L 410.79168 68.791496 
L 411.1488 54.962214 
L 411.50592 66.145783 
L 411.86304 53.568 
L 412.22016 55.860219 
L 412.57728 65.178396 
L 412.9344 63.493484 
L 413.29152 64.663745 
L 413.64864 59.264296 
L 414.00576 65.963547 
L 414.36288 55.285408 
L 414.72 54.416384 
L 414.72 54.416384 
" style="fill:none;stroke:#000080;stroke-linecap:square;stroke-width:0.5;"/>
   </g>
   <g id="patch_3">
    <path d="M 57.6 307.584 
L 57.6 41.472 
" style="fill:none;stroke:#000000;stroke-linecap:square;stroke-linejoin:miter;stroke-width:0.8;"/>
   </g>
   <g id="patch_4">
    <path d="M 414.72 307.584 
L 414.72 41.472 
" style="fill:none;stroke:#000000;stroke-linecap:square;stroke-linejoin:miter;stroke-width:0.8;"/>
   </g>
   <g id="patch_5">
    <path d="M 57.6 307.584 
L 414.72 307.584 
" style="fill:none;stroke:#000000;stroke-linecap:square;stroke-linejoin:miter;stroke-width:0.8;"/>
   </g>
   <g id="patch_6">
    <path d="M 57.6 41.472 
L 414.72 41.472 
" style="fill:none;stroke:#000000;stroke-linecap:square;stroke-linejoin:miter;stroke-width:0.8;"/>
   </g>
   <g id="text_15">
    <!-- Test -->
    <defs>
     <path d="M -0.296875 72.90625 
L 61.375 72.90625 
L 61.375 64.59375 
L 35.5 64.59375 
L 35.5 0 
L 25.59375 0 
L 25.59375 64.59375 
L -0.296875 64.59375 
z
" id="DejaVuSans-54"/>
    </defs>
    <g transform="translate(223.341563 35.472)scale(0.12 -0.12)">
     <use xlink:href="#DejaVuSans-54"/>
     <use x="60.818359" xlink:href="#DejaVuSans-65"/>
     <use x="122.341797" xlink:href="#DejaVuSans-73"/>
     <use x="174.441406" xlink:href="#DejaVuSans-74"/>
    </g>
   </g>
   <g id="legend_1">
    <g id="patch_7">
     <path d="M 64.6 64.150125 
L 306.276563 64.150125 
Q 308.276563 64.150125 308.276563 62.150125 
L 308.276563 48.472 
Q 308.276563 46.472 306.276563 46.472 
L 64.6 46.472 
Q 62.6 46.472 62.6 48.472 
L 62.6 62.150125 
Q 62.6 64.150125 64.6 64.150125 
z
" style="fill:#ffffff;opacity:0.8;stroke:#cccccc;stroke-linejoin:miter;"/>
    </g>
    <g id="line2d_26">
     <path d="M 66.6 54.570438 
L 86.6 54.570438 
" style="fill:none;stroke:#000080;stroke-linecap:square;stroke-width:0.5;"/>
    </g>
    <g id="line2d_27"/>
    <g id="text_16">
     <!-- Successful download requests per second -->
     <g transform="translate(94.6 58.070438)scale(0.1 -0.1)">
      <use xlink:href="#DejaVuSans-53"/>
      <use x="63.476562" xlink:href="#DejaVuSans-75"/>
      <use x="126.855469" xlink:href="#DejaVuSans-63"/>
      <use x="181.835938" xlink:href="#DejaVuSans-63"/>
      <use x="236.816406" xlink:href="#DejaVuSans-65"/>
      <use x="298.339844" xlink:href="#DejaVuSans-73"/>
      <use x="350.439453" xlink:href="#DejaVuSans-73"/>
      <use x="402.539062" xlink:href="#DejaVuSans-66"/>
      <use x="437.744141" xlink:href="#DejaVuSans-75"/>
      <use x="501.123047" xlink:href="#DejaVuSans-6c"/>
      <use x="528.90625" xlink:href="#DejaVuSans-20"/>
      <use x="560.693359" xlink:href="#DejaVuSans-64"/>
      <use x="624.169922" xlink:href="#DejaVuSans-6f"/>
      <use x="685.351562" xlink:href="#DejaVuSans-77"/>
      <use x="767.138672" xlink:href="#DejaVuSans-6e"/>
      <use x="830.517578" xlink:href="#DejaVuSans-6c"/>
      <use x="858.300781" xlink:href="#DejaVuSans-6f"/>
      <use x="919.482422" xlink:href="#DejaVuSans-61"/>
      <use x="980.761719" xlink:href="#DejaVuSans-64"/>
      <use x="1044.238281" xlink:href="#DejaVuSans-20"/>
      <use x="1076.025391" xlink:href="#DejaVuSans-72"/>
      <use x="1117.107422" xlink:href="#DejaVuSans-65"/>
      <use x="1178.630859" xlink:href="#DejaVuSans-71"/>
      <use x="1242.107422" xlink:href="#DejaVuSans-75"/>
      <use x="1305.486328" xlink:href="#DejaVuSans-65"/>
      <use x="1367.009766" xlink:href="#DejaVuSans-73"/>
      <use x="1419.109375" xlink:href="#DejaVuSans-74"/>
      <use x="1458.318359" xlink:href="#DejaVuSans-73"/>
      <use x="1510.417969" xlink:href="#DejaVuSans-20"/>
      <use x="1542.205078" xlink:href="#DejaVuSans-70"/>
      <use x="1605.681641" xlink:href="#DejaVuSans-65"/>
      <use x="1667.205078" xlink:href="#DejaVuSans-72"/>
      <use x="1708.318359" xlink:href="#DejaVuSans-20"/>
      <use x="1740.105469" xlink:href="#DejaVuSans-73"/>
      <use x="1792.205078" xlink:href="#DejaVuSans-65"/>
      <use x="1853.728516" xlink:href="#DejaVuSans-63"/>
      <use x="1908.708984" xlink:href="#DejaVuSans-6f"/>
      <use x="1969.890625" xlink:href="#DejaVuSans-6e"/>
      <use x="2033.269531" xlink:href="#DejaVuSans-64"/>
     </g>
    </g>
   </g>
  </g>
 </g>
 <defs>
  <clipPath id="p2d97d0ac68">
   <rect height="266.112" width="357.12" x="57.6" y="41.472"/>
  </clipPath>
 </defs>
</svg>
