<?xml version="1.0" encoding="utf-8" standalone="no"?>
<!DOCTYPE svg PUBLIC "-//W3C//DTD SVG 1.1//EN"
  "http://www.w3.org/Graphics/SVG/1.1/DTD/svg11.dtd">
<!-- Created with matplotlib (http://matplotlib.org/) -->
<svg height="345pt" version="1.1" viewBox="0 0 460 345" width="460pt" xmlns="http://www.w3.org/2000/svg" xmlns:xlink="http://www.w3.org/1999/xlink">
 <defs>
  <style type="text/css">
*{stroke-linecap:butt;stroke-linejoin:round;}
  </style>
 </defs>
 <g id="figure_1">
  <g id="patch_1">
   <path d="M 0 345.6 
L 460.8 345.6 
L 460.8 0 
L 0 0 
z
" style="fill:#ffffff;"/>
  </g>
  <g id="axes_1">
   <g id="patch_2">
    <path d="M 57.6 307.584 
L 414.72 307.584 
L 414.72 41.472 
L 57.6 41.472 
z
" style="fill:#ffffff;"/>
   </g>
   <g id="matplotlib.axis_1">
    <g id="xtick_1">
     <g id="line2d_1">
      <path clip-path="url(#pc2cf48e8f4)" d="M 57.6 307.584 
L 57.6 41.472 
" style="fill:none;stroke:#b0b0b0;stroke-linecap:square;stroke-width:0.8;"/>
     </g>
     <g id="line2d_2">
      <defs>
       <path d="M 0 0 
L 0 3.5 
" id="m1eb7601d01" style="stroke:#000000;stroke-width:0.8;"/>
      </defs>
      <g>
       <use style="stroke:#000000;stroke-width:0.8;" x="57.6" xlink:href="#m1eb7601d01" y="307.584"/>
      </g>
     </g>
     <g id="text_1">
      <!-- 0 -->
      <defs>
       <path d="M 31.78125 66.40625 
Q 24.171875 66.40625 20.328125 58.90625 
Q 16.5 51.421875 16.5 36.375 
Q 16.5 21.390625 20.328125 13.890625 
Q 24.171875 6.390625 31.78125 6.390625 
Q 39.453125 6.390625 43.28125 13.890625 
Q 47.125 21.390625 47.125 36.375 
Q 47.125 51.421875 43.28125 58.90625 
Q 39.453125 66.40625 31.78125 66.40625 
M 31.78125 74.21875 
Q 44.046875 74.21875 50.515625 64.515625 
Q 56.984375 54.828125 56.984375 36.375 
Q 56.984375 17.96875 50.515625 8.265625 
Q 44.046875 -1.421875 31.78125 -1.421875 
Q 19.53125 -1.421875 13.0625 8.265625 
Q 6.59375 17.96875 6.59375 36.375 
Q 6.59375 54.828125 13.0625 64.515625 
Q 19.53125 74.21875 31.78125 74.21875 
" id="DejaVuSans-30"/>
      </defs>
      <g transform="translate(54.41875 322.182437)scale(0.1 -0.1)">
       <use xlink:href="#DejaVuSans-30"/>
      </g>
     </g>
    </g>
    <g id="xtick_2">
     <g id="line2d_3">
      <path clip-path="url(#pc2cf48e8f4)" d="M 129.024 307.584 
L 129.024 41.472 
" style="fill:none;stroke:#b0b0b0;stroke-linecap:square;stroke-width:0.8;"/>
     </g>
     <g id="line2d_4">
      <g>
       <use style="stroke:#000000;stroke-width:0.8;" x="129.024" xlink:href="#m1eb7601d01" y="307.584"/>
      </g>
     </g>
     <g id="text_2">
      <!-- 200 -->
      <defs>
       <path d="M 19.1875 8.296875 
L 53.609375 8.296875 
L 53.609375 0 
L 7.328125 0 
L 7.328125 8.296875 
Q 12.9375 14.109375 22.625 23.890625 
Q 32.328125 33.6875 34.8125 36.53125 
Q 39.546875 41.84375 41.421875 45.53125 
Q 43.3125 49.21875 43.3125 52.78125 
Q 43.3125 58.59375 39.234375 62.25 
Q 35.15625 65.921875 28.609375 65.921875 
Q 23.96875 65.921875 18.8125 64.3125 
Q 13.671875 62.703125 7.8125 59.421875 
L 7.8125 69.390625 
Q 13.765625 71.78125 18.9375 73 
Q 24.125 74.21875 28.421875 74.21875 
Q 39.75 74.21875 46.484375 68.546875 
Q 53.21875 62.890625 53.21875 53.421875 
Q 53.21875 48.921875 51.53125 44.890625 
Q 49.859375 40.875 45.40625 35.40625 
Q 44.1875 33.984375 37.640625 27.21875 
Q 31.109375 20.453125 19.1875 8.296875 
" id="DejaVuSans-32"/>
      </defs>
      <g transform="translate(119.48025 322.182437)scale(0.1 -0.1)">
       <use xlink:href="#DejaVuSans-32"/>
       <use x="63.623047" xlink:href="#DejaVuSans-30"/>
       <use x="127.246094" xlink:href="#DejaVuSans-30"/>
      </g>
     </g>
    </g>
    <g id="xtick_3">
     <g id="line2d_5">
      <path clip-path="url(#pc2cf48e8f4)" d="M 200.448 307.584 
L 200.448 41.472 
" style="fill:none;stroke:#b0b0b0;stroke-linecap:square;stroke-width:0.8;"/>
     </g>
     <g id="line2d_6">
      <g>
       <use style="stroke:#000000;stroke-width:0.8;" x="200.448" xlink:href="#m1eb7601d01" y="307.584"/>
      </g>
     </g>
     <g id="text_3">
      <!-- 400 -->
      <defs>
       <path d="M 37.796875 64.3125 
L 12.890625 25.390625 
L 37.796875 25.390625 
z
M 35.203125 72.90625 
L 47.609375 72.90625 
L 47.609375 25.390625 
L 58.015625 25.390625 
L 58.015625 17.1875 
L 47.609375 17.1875 
L 47.609375 0 
L 37.796875 0 
L 37.796875 17.1875 
L 4.890625 17.1875 
L 4.890625 26.703125 
z
" id="DejaVuSans-34"/>
      </defs>
      <g transform="translate(190.90425 322.182437)scale(0.1 -0.1)">
       <use xlink:href="#DejaVuSans-34"/>
       <use x="63.623047" xlink:href="#DejaVuSans-30"/>
       <use x="127.246094" xlink:href="#DejaVuSans-30"/>
      </g>
     </g>
    </g>
    <g id="xtick_4">
     <g id="line2d_7">
      <path clip-path="url(#pc2cf48e8f4)" d="M 271.872 307.584 
L 271.872 41.472 
" style="fill:none;stroke:#b0b0b0;stroke-linecap:square;stroke-width:0.8;"/>
     </g>
     <g id="line2d_8">
      <g>
       <use style="stroke:#000000;stroke-width:0.8;" x="271.872" xlink:href="#m1eb7601d01" y="307.584"/>
      </g>
     </g>
     <g id="text_4">
      <!-- 600 -->
      <defs>
       <path d="M 33.015625 40.375 
Q 26.375 40.375 22.484375 35.828125 
Q 18.609375 31.296875 18.609375 23.390625 
Q 18.609375 15.53125 22.484375 10.953125 
Q 26.375 6.390625 33.015625 6.390625 
Q 39.65625 6.390625 43.53125 10.953125 
Q 47.40625 15.53125 47.40625 23.390625 
Q 47.40625 31.296875 43.53125 35.828125 
Q 39.65625 40.375 33.015625 40.375 
M 52.59375 71.296875 
L 52.59375 62.3125 
Q 48.875 64.0625 45.09375 64.984375 
Q 41.3125 65.921875 37.59375 65.921875 
Q 27.828125 65.921875 22.671875 59.328125 
Q 17.53125 52.734375 16.796875 39.40625 
Q 19.671875 43.65625 24.015625 45.921875 
Q 28.375 48.1875 33.59375 48.1875 
Q 44.578125 48.1875 50.953125 41.515625 
Q 57.328125 34.859375 57.328125 23.390625 
Q 57.328125 12.15625 50.6875 5.359375 
Q 44.046875 -1.421875 33.015625 -1.421875 
Q 20.359375 -1.421875 13.671875 8.265625 
Q 6.984375 17.96875 6.984375 36.375 
Q 6.984375 53.65625 15.1875 63.9375 
Q 23.390625 74.21875 37.203125 74.21875 
Q 40.921875 74.21875 44.703125 73.484375 
Q 48.484375 72.75 52.59375 71.296875 
" id="DejaVuSans-36"/>
      </defs>
      <g transform="translate(262.32825 322.182437)scale(0.1 -0.1)">
       <use xlink:href="#DejaVuSans-36"/>
       <use x="63.623047" xlink:href="#DejaVuSans-30"/>
       <use x="127.246094" xlink:href="#DejaVuSans-30"/>
      </g>
     </g>
    </g>
    <g id="xtick_5">
     <g id="line2d_9">
      <path clip-path="url(#pc2cf48e8f4)" d="M 343.296 307.584 
L 343.296 41.472 
" style="fill:none;stroke:#b0b0b0;stroke-linecap:square;stroke-width:0.8;"/>
     </g>
     <g id="line2d_10">
      <g>
       <use style="stroke:#000000;stroke-width:0.8;" x="343.296" xlink:href="#m1eb7601d01" y="307.584"/>
      </g>
     </g>
     <g id="text_5">
      <!-- 800 -->
      <defs>
       <path d="M 31.78125 34.625 
Q 24.75 34.625 20.71875 30.859375 
Q 16.703125 27.09375 16.703125 20.515625 
Q 16.703125 13.921875 20.71875 10.15625 
Q 24.75 6.390625 31.78125 6.390625 
Q 38.8125 6.390625 42.859375 10.171875 
Q 46.921875 13.96875 46.921875 20.515625 
Q 46.921875 27.09375 42.890625 30.859375 
Q 38.875 34.625 31.78125 34.625 
M 21.921875 38.8125 
Q 15.578125 40.375 12.03125 44.71875 
Q 8.5 49.078125 8.5 55.328125 
Q 8.5 64.0625 14.71875 69.140625 
Q 20.953125 74.21875 31.78125 74.21875 
Q 42.671875 74.21875 48.875 69.140625 
Q 55.078125 64.0625 55.078125 55.328125 
Q 55.078125 49.078125 51.53125 44.71875 
Q 48 40.375 41.703125 38.8125 
Q 48.828125 37.15625 52.796875 32.3125 
Q 56.78125 27.484375 56.78125 20.515625 
Q 56.78125 9.90625 50.3125 4.234375 
Q 43.84375 -1.421875 31.78125 -1.421875 
Q 19.734375 -1.421875 13.25 4.234375 
Q 6.78125 9.90625 6.78125 20.515625 
Q 6.78125 27.484375 10.78125 32.3125 
Q 14.796875 37.15625 21.921875 38.8125 
M 18.3125 54.390625 
Q 18.3125 48.734375 21.84375 45.5625 
Q 25.390625 42.390625 31.78125 42.390625 
Q 38.140625 42.390625 41.71875 45.5625 
Q 45.3125 48.734375 45.3125 54.390625 
Q 45.3125 60.0625 41.71875 63.234375 
Q 38.140625 66.40625 31.78125 66.40625 
Q 25.390625 66.40625 21.84375 63.234375 
Q 18.3125 60.0625 18.3125 54.390625 
" id="DejaVuSans-38"/>
      </defs>
      <g transform="translate(333.75225 322.182437)scale(0.1 -0.1)">
       <use xlink:href="#DejaVuSans-38"/>
       <use x="63.623047" xlink:href="#DejaVuSans-30"/>
       <use x="127.246094" xlink:href="#DejaVuSans-30"/>
      </g>
     </g>
    </g>
    <g id="xtick_6">
     <g id="line2d_11">
      <path clip-path="url(#pc2cf48e8f4)" d="M 414.72 307.584 
L 414.72 41.472 
" style="fill:none;stroke:#b0b0b0;stroke-linecap:square;stroke-width:0.8;"/>
     </g>
     <g id="line2d_12">
      <g>
       <use style="stroke:#000000;stroke-width:0.8;" x="414.72" xlink:href="#m1eb7601d01" y="307.584"/>
      </g>
     </g>
     <g id="text_6">
      <!-- 1000 -->
      <defs>
       <path d="M 12.40625 8.296875 
L 28.515625 8.296875 
L 28.515625 63.921875 
L 10.984375 60.40625 
L 10.984375 69.390625 
L 28.421875 72.90625 
L 38.28125 72.90625 
L 38.28125 8.296875 
L 54.390625 8.296875 
L 54.390625 0 
L 12.40625 0 
z
" id="DejaVuSans-31"/>
      </defs>
      <g transform="translate(401.995 322.182437)scale(0.1 -0.1)">
       <use xlink:href="#DejaVuSans-31"/>
       <use x="63.623047" xlink:href="#DejaVuSans-30"/>
       <use x="127.246094" xlink:href="#DejaVuSans-30"/>
       <use x="190.869141" xlink:href="#DejaVuSans-30"/>
      </g>
     </g>
    </g>
    <g id="text_7">
     <!-- Number of clients -->
     <defs>
      <path d="M 9.8125 72.90625 
L 23.09375 72.90625 
L 55.421875 11.921875 
L 55.421875 72.90625 
L 64.984375 72.90625 
L 64.984375 0 
L 51.703125 0 
L 19.390625 60.984375 
L 19.390625 0 
L 9.8125 0 
z
" id="DejaVuSans-4e"/>
      <path d="M 8.5 21.578125 
L 8.5 54.6875 
L 17.484375 54.6875 
L 17.484375 21.921875 
Q 17.484375 14.15625 20.5 10.265625 
Q 23.53125 6.390625 29.59375 6.390625 
Q 36.859375 6.390625 41.078125 11.03125 
Q 45.3125 15.671875 45.3125 23.6875 
L 45.3125 54.6875 
L 54.296875 54.6875 
L 54.296875 0 
L 45.3125 0 
L 45.3125 8.40625 
Q 42.046875 3.421875 37.71875 1 
Q 33.40625 -1.421875 27.6875 -1.421875 
Q 18.265625 -1.421875 13.375 4.4375 
Q 8.5 10.296875 8.5 21.578125 
M 31.109375 56 
z
" id="DejaVuSans-75"/>
      <path d="M 52 44.1875 
Q 55.375 50.25 60.0625 53.125 
Q 64.75 56 71.09375 56 
Q 79.640625 56 84.28125 50.015625 
Q 88.921875 44.046875 88.921875 33.015625 
L 88.921875 0 
L 79.890625 0 
L 79.890625 32.71875 
Q 79.890625 40.578125 77.09375 44.375 
Q 74.3125 48.1875 68.609375 48.1875 
Q 61.625 48.1875 57.5625 43.546875 
Q 53.515625 38.921875 53.515625 30.90625 
L 53.515625 0 
L 44.484375 0 
L 44.484375 32.71875 
Q 44.484375 40.625 41.703125 44.40625 
Q 38.921875 48.1875 33.109375 48.1875 
Q 26.21875 48.1875 22.15625 43.53125 
Q 18.109375 38.875 18.109375 30.90625 
L 18.109375 0 
L 9.078125 0 
L 9.078125 54.6875 
L 18.109375 54.6875 
L 18.109375 46.1875 
Q 21.1875 51.21875 25.484375 53.609375 
Q 29.78125 56 35.6875 56 
Q 41.65625 56 45.828125 52.96875 
Q 50 49.953125 52 44.1875 
" id="DejaVuSans-6d"/>
      <path d="M 48.6875 27.296875 
Q 48.6875 37.203125 44.609375 42.84375 
Q 40.53125 48.484375 33.40625 48.484375 
Q 26.265625 48.484375 22.1875 42.84375 
Q 18.109375 37.203125 18.109375 27.296875 
Q 18.109375 17.390625 22.1875 11.75 
Q 26.265625 6.109375 33.40625 6.109375 
Q 40.53125 6.109375 44.609375 11.75 
Q 48.6875 17.390625 48.6875 27.296875 
M 18.109375 46.390625 
Q 20.953125 51.265625 25.265625 53.625 
Q 29.59375 56 35.59375 56 
Q 45.5625 56 51.78125 48.09375 
Q 58.015625 40.1875 58.015625 27.296875 
Q 58.015625 14.40625 51.78125 6.484375 
Q 45.5625 -1.421875 35.59375 -1.421875 
Q 29.59375 -1.421875 25.265625 0.953125 
Q 20.953125 3.328125 18.109375 8.203125 
L 18.109375 0 
L 9.078125 0 
L 9.078125 75.984375 
L 18.109375 75.984375 
z
" id="DejaVuSans-62"/>
      <path d="M 56.203125 29.59375 
L 56.203125 25.203125 
L 14.890625 25.203125 
Q 15.484375 15.921875 20.484375 11.0625 
Q 25.484375 6.203125 34.421875 6.203125 
Q 39.59375 6.203125 44.453125 7.46875 
Q 49.3125 8.734375 54.109375 11.28125 
L 54.109375 2.78125 
Q 49.265625 0.734375 44.1875 -0.34375 
Q 39.109375 -1.421875 33.890625 -1.421875 
Q 20.796875 -1.421875 13.15625 6.1875 
Q 5.515625 13.8125 5.515625 26.8125 
Q 5.515625 40.234375 12.765625 48.109375 
Q 20.015625 56 32.328125 56 
Q 43.359375 56 49.78125 48.890625 
Q 56.203125 41.796875 56.203125 29.59375 
M 47.21875 32.234375 
Q 47.125 39.59375 43.09375 43.984375 
Q 39.0625 48.390625 32.421875 48.390625 
Q 24.90625 48.390625 20.390625 44.140625 
Q 15.875 39.890625 15.1875 32.171875 
z
" id="DejaVuSans-65"/>
      <path d="M 41.109375 46.296875 
Q 39.59375 47.171875 37.8125 47.578125 
Q 36.03125 48 33.890625 48 
Q 26.265625 48 22.1875 43.046875 
Q 18.109375 38.09375 18.109375 28.8125 
L 18.109375 0 
L 9.078125 0 
L 9.078125 54.6875 
L 18.109375 54.6875 
L 18.109375 46.1875 
Q 20.953125 51.171875 25.484375 53.578125 
Q 30.03125 56 36.53125 56 
Q 37.453125 56 38.578125 55.875 
Q 39.703125 55.765625 41.0625 55.515625 
z
" id="DejaVuSans-72"/>
      <path id="DejaVuSans-20"/>
      <path d="M 30.609375 48.390625 
Q 23.390625 48.390625 19.1875 42.75 
Q 14.984375 37.109375 14.984375 27.296875 
Q 14.984375 17.484375 19.15625 11.84375 
Q 23.34375 6.203125 30.609375 6.203125 
Q 37.796875 6.203125 41.984375 11.859375 
Q 46.1875 17.53125 46.1875 27.296875 
Q 46.1875 37.015625 41.984375 42.703125 
Q 37.796875 48.390625 30.609375 48.390625 
M 30.609375 56 
Q 42.328125 56 49.015625 48.375 
Q 55.71875 40.765625 55.71875 27.296875 
Q 55.71875 13.875 49.015625 6.21875 
Q 42.328125 -1.421875 30.609375 -1.421875 
Q 18.84375 -1.421875 12.171875 6.21875 
Q 5.515625 13.875 5.515625 27.296875 
Q 5.515625 40.765625 12.171875 48.375 
Q 18.84375 56 30.609375 56 
" id="DejaVuSans-6f"/>
      <path d="M 37.109375 75.984375 
L 37.109375 68.5 
L 28.515625 68.5 
Q 23.6875 68.5 21.796875 66.546875 
Q 19.921875 64.59375 19.921875 59.515625 
L 19.921875 54.6875 
L 34.71875 54.6875 
L 34.71875 47.703125 
L 19.921875 47.703125 
L 19.921875 0 
L 10.890625 0 
L 10.890625 47.703125 
L 2.296875 47.703125 
L 2.296875 54.6875 
L 10.890625 54.6875 
L 10.890625 58.5 
Q 10.890625 67.625 15.140625 71.796875 
Q 19.390625 75.984375 28.609375 75.984375 
z
" id="DejaVuSans-66"/>
      <path d="M 48.78125 52.59375 
L 48.78125 44.1875 
Q 44.96875 46.296875 41.140625 47.34375 
Q 37.3125 48.390625 33.40625 48.390625 
Q 24.65625 48.390625 19.8125 42.84375 
Q 14.984375 37.3125 14.984375 27.296875 
Q 14.984375 17.28125 19.8125 11.734375 
Q 24.65625 6.203125 33.40625 6.203125 
Q 37.3125 6.203125 41.140625 7.25 
Q 44.96875 8.296875 48.78125 10.40625 
L 48.78125 2.09375 
Q 45.015625 0.34375 40.984375 -0.53125 
Q 36.96875 -1.421875 32.421875 -1.421875 
Q 20.0625 -1.421875 12.78125 6.34375 
Q 5.515625 14.109375 5.515625 27.296875 
Q 5.515625 40.671875 12.859375 48.328125 
Q 20.21875 56 33.015625 56 
Q 37.15625 56 41.109375 55.140625 
Q 45.0625 54.296875 48.78125 52.59375 
" id="DejaVuSans-63"/>
      <path d="M 9.421875 75.984375 
L 18.40625 75.984375 
L 18.40625 0 
L 9.421875 0 
z
" id="DejaVuSans-6c"/>
      <path d="M 9.421875 54.6875 
L 18.40625 54.6875 
L 18.40625 0 
L 9.421875 0 
z
M 9.421875 75.984375 
L 18.40625 75.984375 
L 18.40625 64.59375 
L 9.421875 64.59375 
z
" id="DejaVuSans-69"/>
      <path d="M 54.890625 33.015625 
L 54.890625 0 
L 45.90625 0 
L 45.90625 32.71875 
Q 45.90625 40.484375 42.875 44.328125 
Q 39.84375 48.1875 33.796875 48.1875 
Q 26.515625 48.1875 22.3125 43.546875 
Q 18.109375 38.921875 18.109375 30.90625 
L 18.109375 0 
L 9.078125 0 
L 9.078125 54.6875 
L 18.109375 54.6875 
L 18.109375 46.1875 
Q 21.34375 51.125 25.703125 53.5625 
Q 30.078125 56 35.796875 56 
Q 45.21875 56 50.046875 50.171875 
Q 54.890625 44.34375 54.890625 33.015625 
" id="DejaVuSans-6e"/>
      <path d="M 18.3125 70.21875 
L 18.3125 54.6875 
L 36.8125 54.6875 
L 36.8125 47.703125 
L 18.3125 47.703125 
L 18.3125 18.015625 
Q 18.3125 11.328125 20.140625 9.421875 
Q 21.96875 7.515625 27.59375 7.515625 
L 36.8125 7.515625 
L 36.8125 0 
L 27.59375 0 
Q 17.1875 0 13.234375 3.875 
Q 9.28125 7.765625 9.28125 18.015625 
L 9.28125 47.703125 
L 2.6875 47.703125 
L 2.6875 54.6875 
L 9.28125 54.6875 
L 9.28125 70.21875 
z
" id="DejaVuSans-74"/>
      <path d="M 44.28125 53.078125 
L 44.28125 44.578125 
Q 40.484375 46.53125 36.375 47.5 
Q 32.28125 48.484375 27.875 48.484375 
Q 21.1875 48.484375 17.84375 46.4375 
Q 14.5 44.390625 14.5 40.28125 
Q 14.5 37.15625 16.890625 35.375 
Q 19.28125 33.59375 26.515625 31.984375 
L 29.59375 31.296875 
Q 39.15625 29.25 43.1875 25.515625 
Q 47.21875 21.78125 47.21875 15.09375 
Q 47.21875 7.46875 41.1875 3.015625 
Q 35.15625 -1.421875 24.609375 -1.421875 
Q 20.21875 -1.421875 15.453125 -0.5625 
Q 10.6875 0.296875 5.421875 2 
L 5.421875 11.28125 
Q 10.40625 8.6875 15.234375 7.390625 
Q 20.0625 6.109375 24.8125 6.109375 
Q 31.15625 6.109375 34.5625 8.28125 
Q 37.984375 10.453125 37.984375 14.40625 
Q 37.984375 18.0625 35.515625 20.015625 
Q 33.0625 21.96875 24.703125 23.78125 
L 21.578125 24.515625 
Q 13.234375 26.265625 9.515625 29.90625 
Q 5.8125 33.546875 5.8125 39.890625 
Q 5.8125 47.609375 11.28125 51.796875 
Q 16.75 56 26.8125 56 
Q 31.78125 56 36.171875 55.265625 
Q 40.578125 54.546875 44.28125 53.078125 
" id="DejaVuSans-73"/>
     </defs>
     <g transform="translate(191.738906 335.860562)scale(0.1 -0.1)">
      <use xlink:href="#DejaVuSans-4e"/>
      <use x="74.804688" xlink:href="#DejaVuSans-75"/>
      <use x="138.183594" xlink:href="#DejaVuSans-6d"/>
      <use x="235.595703" xlink:href="#DejaVuSans-62"/>
      <use x="299.072266" xlink:href="#DejaVuSans-65"/>
      <use x="360.595703" xlink:href="#DejaVuSans-72"/>
      <use x="401.708984" xlink:href="#DejaVuSans-20"/>
      <use x="433.496094" xlink:href="#DejaVuSans-6f"/>
      <use x="494.677734" xlink:href="#DejaVuSans-66"/>
      <use x="529.882812" xlink:href="#DejaVuSans-20"/>
      <use x="561.669922" xlink:href="#DejaVuSans-63"/>
      <use x="616.650391" xlink:href="#DejaVuSans-6c"/>
      <use x="644.433594" xlink:href="#DejaVuSans-69"/>
      <use x="672.216797" xlink:href="#DejaVuSans-65"/>
      <use x="733.740234" xlink:href="#DejaVuSans-6e"/>
      <use x="797.119141" xlink:href="#DejaVuSans-74"/>
      <use x="836.328125" xlink:href="#DejaVuSans-73"/>
     </g>
    </g>
   </g>
   <g id="matplotlib.axis_2">
    <g id="ytick_1">
     <g id="line2d_13">
      <path clip-path="url(#pc2cf48e8f4)" d="M 57.6 295.866555 
L 414.72 295.866555 
" style="fill:none;stroke:#b0b0b0;stroke-linecap:square;stroke-width:0.8;"/>
     </g>
     <g id="line2d_14">
      <defs>
       <path d="M 0 0 
L -3.5 0 
" id="m5d9499f90f" style="stroke:#000000;stroke-width:0.8;"/>
      </defs>
      <g>
       <use style="stroke:#000000;stroke-width:0.8;" x="57.6" xlink:href="#m5d9499f90f" y="295.866555"/>
      </g>
     </g>
     <g id="text_8">
      <!-- 0 -->
      <g transform="translate(44.2375 299.665774)scale(0.1 -0.1)">
       <use xlink:href="#DejaVuSans-30"/>
      </g>
     </g>
    </g>
    <g id="ytick_2">
     <g id="line2d_15">
      <path clip-path="url(#pc2cf48e8f4)" d="M 57.6 256.102327 
L 414.72 256.102327 
" style="fill:none;stroke:#b0b0b0;stroke-linecap:square;stroke-width:0.8;"/>
     </g>
     <g id="line2d_16">
      <g>
       <use style="stroke:#000000;stroke-width:0.8;" x="57.6" xlink:href="#m5d9499f90f" y="256.102327"/>
      </g>
     </g>
     <g id="text_9">
      <!-- 100 -->
      <g transform="translate(31.5125 259.901546)scale(0.1 -0.1)">
       <use xlink:href="#DejaVuSans-31"/>
       <use x="63.623047" xlink:href="#DejaVuSans-30"/>
       <use x="127.246094" xlink:href="#DejaVuSans-30"/>
      </g>
     </g>
    </g>
    <g id="ytick_3">
     <g id="line2d_17">
      <path clip-path="url(#pc2cf48e8f4)" d="M 57.6 216.338098 
L 414.72 216.338098 
" style="fill:none;stroke:#b0b0b0;stroke-linecap:square;stroke-width:0.8;"/>
     </g>
     <g id="line2d_18">
      <g>
       <use style="stroke:#000000;stroke-width:0.8;" x="57.6" xlink:href="#m5d9499f90f" y="216.338098"/>
      </g>
     </g>
     <g id="text_10">
      <!-- 200 -->
      <g transform="translate(31.5125 220.137317)scale(0.1 -0.1)">
       <use xlink:href="#DejaVuSans-32"/>
       <use x="63.623047" xlink:href="#DejaVuSans-30"/>
       <use x="127.246094" xlink:href="#DejaVuSans-30"/>
      </g>
     </g>
    </g>
    <g id="ytick_4">
     <g id="line2d_19">
      <path clip-path="url(#pc2cf48e8f4)" d="M 57.6 176.57387 
L 414.72 176.57387 
" style="fill:none;stroke:#b0b0b0;stroke-linecap:square;stroke-width:0.8;"/>
     </g>
     <g id="line2d_20">
      <g>
       <use style="stroke:#000000;stroke-width:0.8;" x="57.6" xlink:href="#m5d9499f90f" y="176.57387"/>
      </g>
     </g>
     <g id="text_11">
      <!-- 300 -->
      <defs>
       <path d="M 40.578125 39.3125 
Q 47.65625 37.796875 51.625 33 
Q 55.609375 28.21875 55.609375 21.1875 
Q 55.609375 10.40625 48.1875 4.484375 
Q 40.765625 -1.421875 27.09375 -1.421875 
Q 22.515625 -1.421875 17.65625 -0.515625 
Q 12.796875 0.390625 7.625 2.203125 
L 7.625 11.71875 
Q 11.71875 9.328125 16.59375 8.109375 
Q 21.484375 6.890625 26.8125 6.890625 
Q 36.078125 6.890625 40.9375 10.546875 
Q 45.796875 14.203125 45.796875 21.1875 
Q 45.796875 27.640625 41.28125 31.265625 
Q 36.765625 34.90625 28.71875 34.90625 
L 20.21875 34.90625 
L 20.21875 43.015625 
L 29.109375 43.015625 
Q 36.375 43.015625 40.234375 45.921875 
Q 44.09375 48.828125 44.09375 54.296875 
Q 44.09375 59.90625 40.109375 62.90625 
Q 36.140625 65.921875 28.71875 65.921875 
Q 24.65625 65.921875 20.015625 65.03125 
Q 15.375 64.15625 9.8125 62.3125 
L 9.8125 71.09375 
Q 15.4375 72.65625 20.34375 73.4375 
Q 25.25 74.21875 29.59375 74.21875 
Q 40.828125 74.21875 47.359375 69.109375 
Q 53.90625 64.015625 53.90625 55.328125 
Q 53.90625 49.265625 50.4375 45.09375 
Q 46.96875 40.921875 40.578125 39.3125 
" id="DejaVuSans-33"/>
      </defs>
      <g transform="translate(31.5125 180.373088)scale(0.1 -0.1)">
       <use xlink:href="#DejaVuSans-33"/>
       <use x="63.623047" xlink:href="#DejaVuSans-30"/>
       <use x="127.246094" xlink:href="#DejaVuSans-30"/>
      </g>
     </g>
    </g>
    <g id="ytick_5">
     <g id="line2d_21">
      <path clip-path="url(#pc2cf48e8f4)" d="M 57.6 136.809641 
L 414.72 136.809641 
" style="fill:none;stroke:#b0b0b0;stroke-linecap:square;stroke-width:0.8;"/>
     </g>
     <g id="line2d_22">
      <g>
       <use style="stroke:#000000;stroke-width:0.8;" x="57.6" xlink:href="#m5d9499f90f" y="136.809641"/>
      </g>
     </g>
     <g id="text_12">
      <!-- 400 -->
      <g transform="translate(31.5125 140.60886)scale(0.1 -0.1)">
       <use xlink:href="#DejaVuSans-34"/>
       <use x="63.623047" xlink:href="#DejaVuSans-30"/>
       <use x="127.246094" xlink:href="#DejaVuSans-30"/>
      </g>
     </g>
    </g>
    <g id="ytick_6">
     <g id="line2d_23">
      <path clip-path="url(#pc2cf48e8f4)" d="M 57.6 97.045412 
L 414.72 97.045412 
" style="fill:none;stroke:#b0b0b0;stroke-linecap:square;stroke-width:0.8;"/>
     </g>
     <g id="line2d_24">
      <g>
       <use style="stroke:#000000;stroke-width:0.8;" x="57.6" xlink:href="#m5d9499f90f" y="97.045412"/>
      </g>
     </g>
     <g id="text_13">
      <!-- 500 -->
      <defs>
       <path d="M 10.796875 72.90625 
L 49.515625 72.90625 
L 49.515625 64.59375 
L 19.828125 64.59375 
L 19.828125 46.734375 
Q 21.96875 47.46875 24.109375 47.828125 
Q 26.265625 48.1875 28.421875 48.1875 
Q 40.625 48.1875 47.75 41.5 
Q 54.890625 34.8125 54.890625 23.390625 
Q 54.890625 11.625 47.5625 5.09375 
Q 40.234375 -1.421875 26.90625 -1.421875 
Q 22.3125 -1.421875 17.546875 -0.640625 
Q 12.796875 0.140625 7.71875 1.703125 
L 7.71875 11.625 
Q 12.109375 9.234375 16.796875 8.0625 
Q 21.484375 6.890625 26.703125 6.890625 
Q 35.15625 6.890625 40.078125 11.328125 
Q 45.015625 15.765625 45.015625 23.390625 
Q 45.015625 31 40.078125 35.4375 
Q 35.15625 39.890625 26.703125 39.890625 
Q 22.75 39.890625 18.8125 39.015625 
Q 14.890625 38.140625 10.796875 36.28125 
z
" id="DejaVuSans-35"/>
      </defs>
      <g transform="translate(31.5125 100.844631)scale(0.1 -0.1)">
       <use xlink:href="#DejaVuSans-35"/>
       <use x="63.623047" xlink:href="#DejaVuSans-30"/>
       <use x="127.246094" xlink:href="#DejaVuSans-30"/>
      </g>
     </g>
    </g>
    <g id="ytick_7">
     <g id="line2d_25">
      <path clip-path="url(#pc2cf48e8f4)" d="M 57.6 57.281184 
L 414.72 57.281184 
" style="fill:none;stroke:#b0b0b0;stroke-linecap:square;stroke-width:0.8;"/>
     </g>
     <g id="line2d_26">
      <g>
       <use style="stroke:#000000;stroke-width:0.8;" x="57.6" xlink:href="#m5d9499f90f" y="57.281184"/>
      </g>
     </g>
     <g id="text_14">
      <!-- 600 -->
      <g transform="translate(31.5125 61.080402)scale(0.1 -0.1)">
       <use xlink:href="#DejaVuSans-36"/>
       <use x="63.623047" xlink:href="#DejaVuSans-30"/>
       <use x="127.246094" xlink:href="#DejaVuSans-30"/>
      </g>
     </g>
    </g>
    <g id="text_15">
     <!-- Successful download requests per second -->
     <defs>
      <path d="M 53.515625 70.515625 
L 53.515625 60.890625 
Q 47.90625 63.578125 42.921875 64.890625 
Q 37.9375 66.21875 33.296875 66.21875 
Q 25.25 66.21875 20.875 63.09375 
Q 16.5 59.96875 16.5 54.203125 
Q 16.5 49.359375 19.40625 46.890625 
Q 22.3125 44.4375 30.421875 42.921875 
L 36.375 41.703125 
Q 47.40625 39.59375 52.65625 34.296875 
Q 57.90625 29 57.90625 20.125 
Q 57.90625 9.515625 50.796875 4.046875 
Q 43.703125 -1.421875 29.984375 -1.421875 
Q 24.8125 -1.421875 18.96875 -0.25 
Q 13.140625 0.921875 6.890625 3.21875 
L 6.890625 13.375 
Q 12.890625 10.015625 18.65625 8.296875 
Q 24.421875 6.59375 29.984375 6.59375 
Q 38.421875 6.59375 43.015625 9.90625 
Q 47.609375 13.234375 47.609375 19.390625 
Q 47.609375 24.75 44.3125 27.78125 
Q 41.015625 30.8125 33.5 32.328125 
L 27.484375 33.5 
Q 16.453125 35.6875 11.515625 40.375 
Q 6.59375 45.0625 6.59375 53.421875 
Q 6.59375 63.09375 13.40625 68.65625 
Q 20.21875 74.21875 32.171875 74.21875 
Q 37.3125 74.21875 42.625 73.28125 
Q 47.953125 72.359375 53.515625 70.515625 
" id="DejaVuSans-53"/>
      <path d="M 45.40625 46.390625 
L 45.40625 75.984375 
L 54.390625 75.984375 
L 54.390625 0 
L 45.40625 0 
L 45.40625 8.203125 
Q 42.578125 3.328125 38.25 0.953125 
Q 33.9375 -1.421875 27.875 -1.421875 
Q 17.96875 -1.421875 11.734375 6.484375 
Q 5.515625 14.40625 5.515625 27.296875 
Q 5.515625 40.1875 11.734375 48.09375 
Q 17.96875 56 27.875 56 
Q 33.9375 56 38.25 53.625 
Q 42.578125 51.265625 45.40625 46.390625 
M 14.796875 27.296875 
Q 14.796875 17.390625 18.875 11.75 
Q 22.953125 6.109375 30.078125 6.109375 
Q 37.203125 6.109375 41.296875 11.75 
Q 45.40625 17.390625 45.40625 27.296875 
Q 45.40625 37.203125 41.296875 42.84375 
Q 37.203125 48.484375 30.078125 48.484375 
Q 22.953125 48.484375 18.875 42.84375 
Q 14.796875 37.203125 14.796875 27.296875 
" id="DejaVuSans-64"/>
      <path d="M 4.203125 54.6875 
L 13.1875 54.6875 
L 24.421875 12.015625 
L 35.59375 54.6875 
L 46.1875 54.6875 
L 57.421875 12.015625 
L 68.609375 54.6875 
L 77.59375 54.6875 
L 63.28125 0 
L 52.6875 0 
L 40.921875 44.828125 
L 29.109375 0 
L 18.5 0 
z
" id="DejaVuSans-77"/>
      <path d="M 34.28125 27.484375 
Q 23.390625 27.484375 19.1875 25 
Q 14.984375 22.515625 14.984375 16.5 
Q 14.984375 11.71875 18.140625 8.90625 
Q 21.296875 6.109375 26.703125 6.109375 
Q 34.1875 6.109375 38.703125 11.40625 
Q 43.21875 16.703125 43.21875 25.484375 
L 43.21875 27.484375 
z
M 52.203125 31.203125 
L 52.203125 0 
L 43.21875 0 
L 43.21875 8.296875 
Q 40.140625 3.328125 35.546875 0.953125 
Q 30.953125 -1.421875 24.3125 -1.421875 
Q 15.921875 -1.421875 10.953125 3.296875 
Q 6 8.015625 6 15.921875 
Q 6 25.140625 12.171875 29.828125 
Q 18.359375 34.515625 30.609375 34.515625 
L 43.21875 34.515625 
L 43.21875 35.40625 
Q 43.21875 41.609375 39.140625 45 
Q 35.0625 48.390625 27.6875 48.390625 
Q 23 48.390625 18.546875 47.265625 
Q 14.109375 46.140625 10.015625 43.890625 
L 10.015625 52.203125 
Q 14.9375 54.109375 19.578125 55.046875 
Q 24.21875 56 28.609375 56 
Q 40.484375 56 46.34375 49.84375 
Q 52.203125 43.703125 52.203125 31.203125 
" id="DejaVuSans-61"/>
      <path d="M 14.796875 27.296875 
Q 14.796875 17.390625 18.875 11.75 
Q 22.953125 6.109375 30.078125 6.109375 
Q 37.203125 6.109375 41.296875 11.75 
Q 45.40625 17.390625 45.40625 27.296875 
Q 45.40625 37.203125 41.296875 42.84375 
Q 37.203125 48.484375 30.078125 48.484375 
Q 22.953125 48.484375 18.875 42.84375 
Q 14.796875 37.203125 14.796875 27.296875 
M 45.40625 8.203125 
Q 42.578125 3.328125 38.25 0.953125 
Q 33.9375 -1.421875 27.875 -1.421875 
Q 17.96875 -1.421875 11.734375 6.484375 
Q 5.515625 14.40625 5.515625 27.296875 
Q 5.515625 40.1875 11.734375 48.09375 
Q 17.96875 56 27.875 56 
Q 33.9375 56 38.25 53.625 
Q 42.578125 51.265625 45.40625 46.390625 
L 45.40625 54.6875 
L 54.390625 54.6875 
L 54.390625 -20.796875 
L 45.40625 -20.796875 
z
" id="DejaVuSans-71"/>
      <path d="M 18.109375 8.203125 
L 18.109375 -20.796875 
L 9.078125 -20.796875 
L 9.078125 54.6875 
L 18.109375 54.6875 
L 18.109375 46.390625 
Q 20.953125 51.265625 25.265625 53.625 
Q 29.59375 56 35.59375 56 
Q 45.5625 56 51.78125 48.09375 
Q 58.015625 40.1875 58.015625 27.296875 
Q 58.015625 14.40625 51.78125 6.484375 
Q 45.5625 -1.421875 35.59375 -1.421875 
Q 29.59375 -1.421875 25.265625 0.953125 
Q 20.953125 3.328125 18.109375 8.203125 
M 48.6875 27.296875 
Q 48.6875 37.203125 44.609375 42.84375 
Q 40.53125 48.484375 33.40625 48.484375 
Q 26.265625 48.484375 22.1875 42.84375 
Q 18.109375 37.203125 18.109375 27.296875 
Q 18.109375 17.390625 22.1875 11.75 
Q 26.265625 6.109375 33.40625 6.109375 
Q 40.53125 6.109375 44.609375 11.75 
Q 48.6875 17.390625 48.6875 27.296875 
" id="DejaVuSans-70"/>
     </defs>
     <g transform="translate(25.432812 279.366281)rotate(-90)scale(0.1 -0.1)">
      <use xlink:href="#DejaVuSans-53"/>
      <use x="63.476562" xlink:href="#DejaVuSans-75"/>
      <use x="126.855469" xlink:href="#DejaVuSans-63"/>
      <use x="181.835938" xlink:href="#DejaVuSans-63"/>
      <use x="236.816406" xlink:href="#DejaVuSans-65"/>
      <use x="298.339844" xlink:href="#DejaVuSans-73"/>
      <use x="350.439453" xlink:href="#DejaVuSans-73"/>
      <use x="402.539062" xlink:href="#DejaVuSans-66"/>
      <use x="437.744141" xlink:href="#DejaVuSans-75"/>
      <use x="501.123047" xlink:href="#DejaVuSans-6c"/>
      <use x="528.90625" xlink:href="#DejaVuSans-20"/>
      <use x="560.693359" xlink:href="#DejaVuSans-64"/>
      <use x="624.169922" xlink:href="#DejaVuSans-6f"/>
      <use x="685.351562" xlink:href="#DejaVuSans-77"/>
      <use x="767.138672" xlink:href="#DejaVuSans-6e"/>
      <use x="830.517578" xlink:href="#DejaVuSans-6c"/>
      <use x="858.300781" xlink:href="#DejaVuSans-6f"/>
      <use x="919.482422" xlink:href="#DejaVuSans-61"/>
      <use x="980.761719" xlink:href="#DejaVuSans-64"/>
      <use x="1044.238281" xlink:href="#DejaVuSans-20"/>
      <use x="1076.025391" xlink:href="#DejaVuSans-72"/>
      <use x="1117.107422" xlink:href="#DejaVuSans-65"/>
      <use x="1178.630859" xlink:href="#DejaVuSans-71"/>
      <use x="1242.107422" xlink:href="#DejaVuSans-75"/>
      <use x="1305.486328" xlink:href="#DejaVuSans-65"/>
      <use x="1367.009766" xlink:href="#DejaVuSans-73"/>
      <use x="1419.109375" xlink:href="#DejaVuSans-74"/>
      <use x="1458.318359" xlink:href="#DejaVuSans-73"/>
      <use x="1510.417969" xlink:href="#DejaVuSans-20"/>
      <use x="1542.205078" xlink:href="#DejaVuSans-70"/>
      <use x="1605.681641" xlink:href="#DejaVuSans-65"/>
      <use x="1667.205078" xlink:href="#DejaVuSans-72"/>
      <use x="1708.318359" xlink:href="#DejaVuSans-20"/>
      <use x="1740.105469" xlink:href="#DejaVuSans-73"/>
      <use x="1792.205078" xlink:href="#DejaVuSans-65"/>
      <use x="1853.728516" xlink:href="#DejaVuSans-63"/>
      <use x="1908.708984" xlink:href="#DejaVuSans-6f"/>
      <use x="1969.890625" xlink:href="#DejaVuSans-6e"/>
      <use x="2033.269531" xlink:href="#DejaVuSans-64"/>
     </g>
    </g>
   </g>
   <g id="line2d_27">
    <path clip-path="url(#pc2cf48e8f4)" d="M 57.6 295.474083 
L 57.95712 295.488 
L 62.24256 290.84314 
L 62.59968 290.621654 
L 62.9568 290.110286 
L 63.31392 289.913453 
L 63.67104 289.111806 
L 64.38528 288.585328 
L 65.09952 287.516465 
L 65.45664 287.569749 
L 65.81376 286.850812 
L 66.528 286.571269 
L 66.88512 286.229297 
L 67.24224 285.442761 
L 68.3136 284.140084 
L 68.67072 284.076462 
L 69.02784 283.289925 
L 69.38496 282.84894 
L 70.0992 282.451695 
L 70.45632 281.670726 
L 70.81344 281.853244 
L 71.17056 281.039668 
L 71.52768 281.398341 
L 72.59904 279.551292 
L 72.95616 279.358038 
L 73.31328 279.391838 
L 74.02752 278.09115 
L 74.38464 277.321315 
L 74.74176 277.506616 
L 75.09888 276.39441 
L 75.456 277.365055 
L 75.81312 276.747914 
L 76.52736 276.039713 
L 76.88448 274.677789 
L 77.2416 274.304005 
L 77.59872 275.001469 
L 77.95584 274.274977 
L 78.31296 274.056274 
L 79.0272 272.345219 
L 79.38432 272.741271 
L 79.74144 272.700313 
L 80.45568 271.326062 
L 80.8128 271.541584 
L 81.16992 269.991574 
L 81.52704 270.003901 
L 81.88416 270.186021 
L 82.24128 269.696921 
L 82.5984 268.158046 
L 82.95552 269.463903 
L 83.31264 268.529046 
L 83.66976 268.809781 
L 84.02688 268.30915 
L 84.384 267.157975 
L 84.74112 267.473306 
L 85.09824 266.145976 
L 85.45536 266.038215 
L 85.81248 265.642561 
L 86.1696 265.720896 
L 86.52672 263.682184 
L 86.88384 264.821032 
L 87.24096 263.562096 
L 87.59808 263.343791 
L 87.9552 263.649975 
L 88.66944 261.668921 
L 89.02656 261.121368 
L 89.38368 261.88842 
L 89.7408 260.677599 
L 90.09792 261.312236 
L 90.45504 261.068481 
L 90.81216 259.124011 
L 91.16928 259.644524 
L 92.24064 258.021746 
L 92.59776 257.887741 
L 92.95488 258.420581 
L 93.312 258.195516 
L 93.66912 258.20665 
L 94.02624 256.797406 
L 94.38336 255.912651 
L 94.74048 254.670815 
L 95.0976 255.955199 
L 95.45472 255.424744 
L 95.81184 255.927762 
L 96.16896 255.115776 
L 96.52608 254.783745 
L 97.24032 252.284563 
L 97.59744 252.736683 
L 97.95456 252.719584 
L 98.31168 252.509231 
L 98.6688 252.496904 
L 99.02592 249.88519 
L 99.38304 251.14333 
L 99.74016 251.069766 
L 100.09728 248.729244 
L 100.81152 250.14326 
L 101.16864 249.673644 
L 101.52576 249.722952 
L 101.88288 249.206414 
L 102.24 246.446777 
L 102.59712 245.97398 
L 102.95424 246.571239 
L 103.31136 248.214297 
L 104.0256 246.962917 
L 104.38272 245.627634 
L 104.73984 246.273007 
L 105.09696 246.622932 
L 105.45408 242.951899 
L 105.8112 243.530071 
L 106.16832 243.195256 
L 106.52544 243.281147 
L 106.88256 244.310642 
L 107.23968 242.973769 
L 107.5968 240.48095 
L 107.95392 240.674204 
L 108.31104 239.41328 
L 108.66816 242.749101 
L 109.02528 239.427595 
L 109.73952 237.891901 
L 110.09664 241.386381 
L 110.45376 238.15673 
L 110.81088 240.155678 
L 111.168 238.094698 
L 111.52512 238.222341 
L 112.23936 235.938682 
L 112.59648 236.06553 
L 112.9536 236.816278 
L 113.31072 236.865188 
L 113.66784 237.706202 
L 114.02496 233.971545 
L 114.38208 236.168917 
L 115.09632 235.995942 
L 115.45344 234.05505 
L 115.81056 235.252351 
L 116.16768 231.155443 
L 116.5248 234.416507 
L 116.88192 230.86079 
L 117.23904 233.862194 
L 117.95328 232.047354 
L 118.3104 229.956551 
L 118.66752 232.43426 
L 119.02464 229.468644 
L 119.38176 227.724585 
L 120.096 229.971662 
L 120.81024 225.937183 
L 121.16736 226.646974 
L 121.52448 226.427476 
L 121.8816 226.660892 
L 122.23872 226.281541 
L 122.59584 227.847457 
L 122.95296 223.225263 
L 123.31008 223.294452 
L 123.6672 225.768185 
L 124.02432 225.705358 
L 124.38144 221.950024 
L 124.73856 223.63722 
L 125.4528 225.275109 
L 125.80992 220.049691 
L 126.16704 220.299411 
L 126.52416 220.829865 
L 126.88128 222.957649 
L 127.59552 219.347057 
L 127.95264 221.25415 
L 128.66688 219.44448 
L 129.024 221.253752 
L 129.38112 221.473648 
L 129.73824 219.287411 
L 130.09536 220.17972 
L 130.45248 219.415054 
L 130.8096 215.285539 
L 131.16672 217.186269 
L 131.52384 215.513786 
L 131.88096 214.986512 
L 132.23808 216.831572 
L 132.5952 217.312719 
L 132.95232 217.549317 
L 133.30944 214.322052 
L 133.66656 213.190362 
L 134.3808 215.861325 
L 134.73792 215.675626 
L 135.09504 212.2901 
L 135.45216 210.266896 
L 135.80928 213.799947 
L 136.1664 212.818964 
L 136.52352 213.739108 
L 136.88064 210.630341 
L 137.23776 210.20884 
L 137.952 208.175695 
L 138.30912 209.365043 
L 138.66624 206.296835 
L 139.02336 211.061783 
L 139.38048 211.091606 
L 139.7376 208.935192 
L 140.09472 209.753142 
L 140.45184 203.729657 
L 140.80896 209.189285 
L 141.16608 205.814495 
L 141.5232 206.548145 
L 141.88032 202.673121 
L 142.23744 202.779689 
L 142.59456 205.620048 
L 142.95168 202.453225 
L 143.3088 201.594715 
L 143.66592 201.818985 
L 144.02304 205.248252 
L 144.38016 205.516263 
L 144.73728 199.724603 
L 145.0944 201.288133 
L 145.45152 204.051747 
L 145.80864 203.877977 
L 146.16576 198.300646 
L 146.52288 201.012169 
L 146.88 200.206944 
L 147.23712 200.830049 
L 147.59424 198.824341 
L 147.95136 199.270098 
L 148.30848 196.145028 
L 149.02272 194.148466 
L 149.37984 198.329277 
L 149.73696 198.761514 
L 150.09408 198.089498 
L 150.4512 192.942814 
L 150.80832 195.045944 
L 151.16544 193.317791 
L 151.52256 197.640958 
L 151.87968 193.056938 
L 152.2368 196.495748 
L 152.59392 194.950908 
L 152.95104 191.197165 
L 153.30816 195.325885 
L 153.66528 190.55537 
L 154.0224 188.518249 
L 154.37952 195.07537 
L 154.73664 192.258074 
L 155.09376 192.348339 
L 155.45088 187.217561 
L 155.808 186.568608 
L 156.16512 187.461713 
L 156.52224 190.26867 
L 156.87936 190.018951 
L 157.23648 185.188392 
L 157.5936 186.693468 
L 157.95072 184.645213 
L 158.30784 185.764576 
L 158.66496 184.696509 
L 159.02208 184.090104 
L 159.3792 186.473174 
L 159.73632 182.522996 
L 160.09344 188.669353 
L 160.45056 188.311872 
L 160.80768 184.551767 
L 161.1648 185.304901 
L 161.52192 186.608373 
L 161.87904 187.143202 
L 162.23616 179.422579 
L 162.59328 184.344595 
L 162.9504 185.632161 
L 163.30752 183.635201 
L 163.66464 184.463093 
L 164.02176 181.806842 
L 164.37888 180.009101 
L 164.736 177.350465 
L 165.09312 180.13078 
L 165.45024 183.873787 
L 165.80736 175.735242 
L 166.16448 176.167877 
L 166.5216 178.728693 
L 166.87872 177.612114 
L 167.23584 180.498599 
L 167.59296 178.142171 
L 167.95008 179.093331 
L 168.3072 179.414228 
L 168.66432 176.277228 
L 169.02144 177.620862 
L 169.37856 173.704483 
L 169.73568 178.541006 
L 170.0928 171.766772 
L 170.44992 172.111528 
L 170.80704 171.252223 
L 171.16416 175.036982 
L 171.52128 171.771146 
L 171.8784 174.054408 
L 172.23552 173.611037 
L 172.59264 176.053753 
L 172.94976 170.367866 
L 173.30688 172.667034 
L 173.664 167.691336 
L 174.02112 173.648813 
L 174.37824 168.677489 
L 174.73536 167.339025 
L 175.09248 167.86272 
L 175.4496 169.660063 
L 175.80672 172.511158 
L 176.16384 170.512211 
L 176.52096 171.191384 
L 176.87808 164.402039 
L 177.2352 165.612462 
L 177.59232 164.36307 
L 177.94944 164.825131 
L 178.30656 169.272362 
L 178.66368 166.321856 
L 179.0208 166.214095 
L 179.37792 168.908122 
L 179.73504 161.519928 
L 180.09216 168.822231 
L 180.44928 167.436845 
L 180.8064 161.829691 
L 181.16352 164.975837 
L 181.52064 165.148016 
L 181.87776 163.308523 
L 182.23488 159.08079 
L 182.592 166.141724 
L 182.94912 158.765857 
L 183.30624 164.861714 
L 183.66336 163.772174 
L 184.02048 156.756571 
L 184.3776 164.041378 
L 184.73472 154.801364 
L 185.09184 156.054732 
L 185.44896 155.812568 
L 185.80608 159.258536 
L 186.1632 156.96414 
L 186.52032 153.372635 
L 187.59168 160.659032 
L 187.9488 160.439931 
L 188.30592 158.642588 
L 188.66304 159.371069 
L 189.02016 152.125629 
L 189.37728 157.024582 
L 189.7344 151.004675 
L 190.09152 156.46828 
L 190.44864 155.191849 
L 190.80576 150.401054 
L 191.16288 152.09342 
L 191.52 152.084672 
L 191.87712 148.666141 
L 192.23424 154.192971 
L 192.59136 154.764383 
L 192.94848 148.651826 
L 193.3056 152.198397 
L 193.66272 151.236898 
L 194.01984 153.334859 
L 194.37696 143.56956 
L 194.73408 143.706349 
L 195.0912 149.579128 
L 195.44832 144.418128 
L 195.80544 151.005868 
L 196.16256 144.84281 
L 196.51968 145.157345 
L 196.8768 142.06687 
L 197.23392 141.073957 
L 197.59104 145.871909 
L 197.94816 145.28141 
L 198.30528 146.949122 
L 198.6624 142.393334 
L 199.01952 149.345712 
L 199.37664 142.20167 
L 199.73376 147.60881 
L 200.09088 142.8713 
L 200.448 141.775398 
L 200.80512 142.160316 
L 201.16224 145.995575 
L 201.87648 139.537467 
L 202.2336 145.226535 
L 202.59072 135.237363 
L 202.94784 140.812308 
L 203.30496 137.012836 
L 203.66208 141.370598 
L 204.0192 135.252474 
L 204.37632 133.407811 
L 205.09056 142.653392 
L 205.44768 138.7561 
L 205.8048 132.17353 
L 206.16192 130.910618 
L 206.51904 136.920981 
L 206.87616 140.228172 
L 207.23328 131.76197 
L 207.5904 131.931365 
L 207.94752 139.142608 
L 208.30464 138.696056 
L 208.66176 128.480228 
L 209.01888 133.235234 
L 209.376 133.170816 
L 209.73312 136.342014 
L 210.09024 138.036765 
L 210.80448 131.194534 
L 211.1616 130.587334 
L 211.51872 132.616503 
L 212.23296 128.477047 
L 212.59008 132.896046 
L 212.9472 133.216545 
L 213.30432 137.912303 
L 214.01856 125.800119 
L 214.37568 133.270625 
L 214.7328 133.500462 
L 215.08992 127.244356 
L 215.44704 136.534075 
L 215.80416 128.713246 
L 216.16128 132.045091 
L 216.5184 132.313897 
L 216.87552 134.048015 
L 217.23264 127.638022 
L 217.58976 124.764658 
L 217.94688 133.61538 
L 218.304 126.910336 
L 218.66112 125.018752 
L 219.01824 133.764496 
L 219.73248 131.160735 
L 220.0896 131.569511 
L 220.44672 134.647262 
L 220.80384 127.985959 
L 221.16096 133.521139 
L 221.51808 122.578819 
L 221.8752 127.645577 
L 222.23232 125.815229 
L 222.58944 126.810926 
L 222.94656 129.151448 
L 223.30368 122.919996 
L 223.6608 129.726837 
L 224.01792 122.260705 
L 224.73216 129.266764 
L 225.08928 125.107426 
L 225.4464 132.491643 
L 225.80352 126.742134 
L 226.16064 128.381215 
L 226.51776 126.598187 
L 226.87488 119.743232 
L 227.232 123.147447 
L 227.58912 125.211211 
L 227.94624 122.381588 
L 228.30336 122.196685 
L 229.0176 128.078212 
L 229.37472 128.308844 
L 229.73184 126.937774 
L 230.08896 126.982707 
L 230.44608 125.421961 
L 230.8032 129.366175 
L 231.16032 124.763068 
L 231.51744 128.789594 
L 231.87456 122.791955 
L 232.23168 119.109787 
L 232.5888 127.661482 
L 233.30304 121.579941 
L 233.66016 127.498052 
L 234.3744 118.297007 
L 234.73152 121.964461 
L 235.08864 120.349636 
L 235.44576 124.530447 
L 235.80288 125.691563 
L 236.16 123.193176 
L 236.51712 118.163001 
L 236.87424 124.774599 
L 237.23136 123.726017 
L 237.58848 115.719489 
L 237.9456 115.80379 
L 238.30272 125.002449 
L 238.65984 120.801358 
L 239.37408 119.734881 
L 239.7312 126.219632 
L 240.44544 114.482822 
L 241.15968 126.045862 
L 241.5168 119.159493 
L 241.87392 124.437796 
L 242.23104 115.053439 
L 242.58816 117.529159 
L 242.94528 117.339882 
L 243.3024 118.743559 
L 243.65952 116.061462 
L 244.01664 119.050141 
L 244.37376 123.885869 
L 244.73088 121.215701 
L 245.088 124.281921 
L 245.80224 119.602466 
L 246.15936 113.041369 
L 246.51648 114.197315 
L 246.8736 116.508412 
L 247.23072 123.503735 
L 247.58784 117.886242 
L 247.94496 110.376768 
L 248.6592 122.078585 
L 249.01632 122.860747 
L 249.37344 120.113834 
L 250.08768 110.628078 
L 250.4448 111.287766 
L 250.80192 109.92266 
L 251.15904 111.800327 
L 251.51616 120.161551 
L 251.87328 110.940227 
L 252.2304 115.105927 
L 252.58752 109.843132 
L 252.94464 111.861564 
L 253.30176 117.41941 
L 253.65888 118.619097 
L 254.016 111.13189 
L 254.37312 119.918592 
L 254.73024 116.509207 
L 255.08736 119.16506 
L 255.44448 117.374874 
L 255.8016 112.489043 
L 256.15872 118.52247 
L 256.51584 114.120967 
L 256.87296 111.951431 
L 257.23008 118.861659 
L 257.94432 116.32828 
L 258.30144 111.789988 
L 258.65856 110.836044 
L 259.01568 111.358149 
L 259.3728 118.675562 
L 259.72992 114.846267 
L 260.08704 105.981627 
L 260.44416 112.805567 
L 260.80128 110.540596 
L 261.1584 113.126862 
L 261.51552 112.960647 
L 261.87264 104.772 
L 262.22976 116.153317 
L 262.58688 114.688801 
L 262.944 104.698833 
L 263.30112 110.290479 
L 263.65824 108.443033 
L 264.01536 107.481136 
L 264.37248 103.596569 
L 264.7296 113.099424 
L 265.08672 107.744376 
L 265.44384 115.821286 
L 265.80096 115.389844 
L 266.15808 108.268468 
L 266.5152 115.513113 
L 266.87232 107.326454 
L 267.22944 111.060315 
L 267.58656 108.117762 
L 267.94368 113.337214 
L 268.3008 107.284304 
L 268.65792 111.030492 
L 269.01504 108.135258 
L 269.37216 114.922217 
L 270.0864 104.684518 
L 270.44352 111.471079 
L 270.80064 109.972763 
L 271.15776 110.533836 
L 271.51488 101.682319 
L 271.872 114.175842 
L 272.22912 105.998726 
L 272.58624 104.4515 
L 272.94336 107.780561 
L 273.30048 109.482868 
L 273.6576 110.529462 
L 274.01472 105.150555 
L 274.37184 107.227043 
L 274.72896 104.534209 
L 275.08608 106.228563 
L 275.4432 106.685852 
L 275.80032 105.752188 
L 276.15744 111.795953 
L 276.51456 112.411106 
L 276.87168 103.055775 
L 277.2288 104.799437 
L 277.58592 107.348324 
L 277.94304 100.517227 
L 278.30016 106.308092 
L 278.65728 103.971546 
L 279.0144 108.5667 
L 279.72864 107.402801 
L 280.08576 106.174086 
L 280.44288 98.490444 
L 280.8 110.53145 
L 281.15712 98.941371 
L 281.51424 107.056057 
L 281.87136 100.998374 
L 282.22848 109.098348 
L 282.5856 101.540758 
L 282.94272 105.543823 
L 283.29984 100.994398 
L 283.65696 109.747697 
L 284.01408 103.332932 
L 284.3712 103.342078 
L 284.72832 101.416296 
L 285.08544 103.613668 
L 285.44256 96.785354 
L 285.79968 101.231393 
L 286.1568 107.835436 
L 286.51392 103.768748 
L 286.87104 103.428366 
L 287.22816 105.86313 
L 287.58528 102.281566 
L 287.9424 106.976926 
L 288.29952 100.455593 
L 288.65664 99.40701 
L 289.01376 94.879455 
L 289.37088 97.971124 
L 289.728 93.805423 
L 290.08512 106.646088 
L 290.44224 104.791882 
L 290.79936 101.99924 
L 291.15648 106.271111 
L 291.5136 97.184587 
L 291.87072 99.725919 
L 292.22784 96.141174 
L 292.58496 103.267719 
L 292.94208 95.096567 
L 293.2992 92.642717 
L 293.65632 98.92626 
L 294.01344 101.551892 
L 294.37056 101.76821 
L 294.72768 94.28498 
L 295.0848 105.118744 
L 295.44192 103.321798 
L 296.15616 96.227064 
L 296.51328 92.099935 
L 296.8704 97.461346 
L 297.22752 91.349982 
L 297.58464 97.953627 
L 297.94176 92.625618 
L 298.29888 100.46116 
L 298.656 92.956059 
L 299.01312 93.014115 
L 299.37024 92.035119 
L 299.72736 101.217873 
L 300.08448 102.767485 
L 300.4416 101.86603 
L 300.79872 95.591234 
L 301.15584 102.646999 
L 301.51296 96.177757 
L 301.87008 100.088966 
L 302.2272 89.817071 
L 302.58432 98.930634 
L 302.94144 96.415547 
L 303.29856 95.72524 
L 303.65568 89.56258 
L 304.0128 89.884272 
L 304.36992 89.829 
L 304.72704 92.333351 
L 305.08416 93.312744 
L 305.44128 95.313283 
L 305.7984 99.370427 
L 306.15552 89.657219 
L 306.51264 102.031051 
L 306.86976 100.218995 
L 307.22688 91.014769 
L 307.584 101.557062 
L 307.94112 94.624168 
L 308.29824 95.261987 
L 308.65536 91.699112 
L 309.01248 89.465157 
L 309.3696 94.074229 
L 309.72672 88.143792 
L 310.08384 98.334569 
L 310.44096 90.564638 
L 311.1552 97.976293 
L 311.51232 94.017366 
L 311.86944 96.089083 
L 312.22656 91.948036 
L 312.58368 91.781821 
L 312.9408 95.847316 
L 313.29792 93.411359 
L 313.65504 86.026347 
L 314.01216 89.609104 
L 314.36928 87.830848 
L 314.7264 97.853421 
L 315.08352 89.389208 
L 315.44064 98.699604 
L 315.79776 96.523308 
L 316.15488 90.860882 
L 316.512 94.003449 
L 316.86912 93.632051 
L 317.22624 94.448808 
L 317.58336 91.893161 
L 317.94048 95.163769 
L 318.2976 85.241799 
L 318.65472 86.369115 
L 319.01184 95.034933 
L 319.36896 85.498676 
L 319.72608 87.62805 
L 320.0832 96.161453 
L 320.44032 95.732 
L 320.79744 86.443474 
L 321.15456 87.80182 
L 321.51168 87.681732 
L 321.8688 87.202573 
L 322.22592 85.120518 
L 322.58304 93.449135 
L 322.94016 85.972665 
L 323.6544 96.222293 
L 324.01152 84.800813 
L 324.36864 87.369583 
L 324.72576 92.482467 
L 325.08288 85.808439 
L 325.44 91.904693 
L 325.79712 91.788979 
L 326.15424 93.647161 
L 326.51136 86.386213 
L 326.86848 82.63247 
L 327.2256 82.572426 
L 327.58272 94.307248 
L 327.93984 87.726268 
L 328.29696 94.700118 
L 329.0112 79.974231 
L 329.36832 82.321911 
L 329.72544 92.400155 
L 330.08256 90.800838 
L 330.43968 79.339594 
L 330.7968 88.705661 
L 331.15392 89.805142 
L 331.51104 90.146716 
L 331.86816 90.002372 
L 332.22528 85.598484 
L 332.5824 79.775013 
L 332.93952 90.498232 
L 333.29664 78.424222 
L 333.65376 80.942093 
L 334.368 89.450842 
L 334.72512 81.091606 
L 335.08224 92.555633 
L 335.43936 77.997949 
L 335.79648 91.798125 
L 336.1536 86.330543 
L 336.51072 84.623863 
L 336.86784 78.074694 
L 337.22496 89.698176 
L 337.58208 89.831784 
L 337.9392 89.367337 
L 338.29632 86.093151 
L 338.65344 78.882703 
L 339.01056 86.082017 
L 339.36768 79.279153 
L 339.7248 83.886634 
L 340.08192 81.186643 
L 340.43904 87.710362 
L 340.79616 90.450117 
L 341.15328 77.001855 
L 341.5104 89.351034 
L 341.86752 78.126785 
L 342.22464 87.107536 
L 342.58176 81.541737 
L 342.93888 89.823433 
L 343.296 89.89978 
L 343.65312 87.31431 
L 344.01024 86.553621 
L 344.36736 82.244371 
L 344.72448 88.626927 
L 345.0816 88.812626 
L 345.43872 75.823641 
L 345.79584 75.459798 
L 346.15296 89.325187 
L 346.51008 84.81831 
L 346.8672 77.850026 
L 347.22432 88.160493 
L 347.58144 87.94338 
L 347.93856 81.075303 
L 348.29568 78.158597 
L 348.6528 87.64992 
L 349.00992 82.471823 
L 349.36704 80.738102 
L 349.72416 81.42324 
L 350.08128 83.921626 
L 350.4384 82.577198 
L 350.79552 86.189778 
L 351.15264 75.112657 
L 351.86688 85.490325 
L 352.224 77.452384 
L 352.58112 76.603418 
L 352.93824 72.616656 
L 353.29536 73.004755 
L 353.65248 80.538883 
L 354.0096 75.385837 
L 354.36672 74.078787 
L 354.72384 81.861442 
L 355.08096 82.461086 
L 355.43808 71.001831 
L 355.7952 71.218546 
L 356.15232 85.005202 
L 356.50944 77.582413 
L 356.86656 73.386492 
L 357.22368 74.979447 
L 357.5808 80.047795 
L 357.93792 73.935636 
L 358.29504 84.004336 
L 358.65216 85.21118 
L 359.00928 74.598903 
L 359.3664 85.237822 
L 359.72352 70.148888 
L 360.08064 72.794005 
L 360.43776 83.908106 
L 360.79488 80.471682 
L 361.152 78.650878 
L 361.50912 71.683787 
L 361.86624 69.237492 
L 362.22336 78.916105 
L 362.58048 78.459214 
L 363.29472 73.787713 
L 363.65184 76.163228 
L 364.00896 75.130948 
L 364.36608 71.308413 
L 364.7232 71.900105 
L 365.08032 71.694921 
L 365.43744 83.59039 
L 365.79456 68.425109 
L 366.15168 74.450582 
L 366.5088 75.797794 
L 366.86592 82.424901 
L 367.22304 74.431495 
L 367.58016 75.829208 
L 367.93728 67.664817 
L 368.2944 72.106083 
L 368.65152 68.69471 
L 369.00864 76.830869 
L 369.36576 77.094506 
L 369.72288 81.710338 
L 370.08 78.69939 
L 370.43712 66.315219 
L 371.15136 80.848249 
L 371.50848 78.63696 
L 371.8656 70.674174 
L 372.22272 66.716042 
L 372.57984 69.685635 
L 372.93696 77.867125 
L 373.29408 79.974231 
L 373.6512 65.859918 
L 374.00832 70.870609 
L 374.72256 66.034086 
L 375.07968 72.329956 
L 375.4368 67.419074 
L 375.79392 76.878586 
L 376.15104 76.629662 
L 376.50816 68.683974 
L 376.86528 76.520708 
L 377.2224 75.574319 
L 377.57952 65.816575 
L 377.93664 70.628047 
L 378.29376 70.03556 
L 378.65088 74.999726 
L 379.008 75.44946 
L 379.36512 68.14159 
L 379.72224 67.303757 
L 380.07936 67.799617 
L 380.43648 68.654946 
L 380.7936 75.947308 
L 381.15072 76.791105 
L 381.50784 73.085079 
L 381.86496 71.905672 
L 382.22208 63.966346 
L 382.5792 70.588283 
L 382.93632 64.831218 
L 383.29344 77.802707 
L 383.65056 65.322306 
L 384.00768 66.754613 
L 384.3648 73.033783 
L 384.72192 75.977926 
L 385.07904 77.794754 
L 385.43616 66.122362 
L 385.79328 74.856973 
L 386.1504 66.14304 
L 386.50752 77.347804 
L 386.86464 76.362049 
L 387.22176 61.919681 
L 387.57888 71.823757 
L 387.936 64.881321 
L 388.29312 64.875754 
L 388.65024 62.269606 
L 389.00736 71.13862 
L 389.36448 64.777536 
L 389.7216 75.699577 
L 390.07872 71.379591 
L 390.43584 64.696815 
L 390.79296 72.003094 
L 391.15008 75.337325 
L 391.5072 60.620186 
L 391.86432 69.405695 
L 392.22144 65.617754 
L 392.57856 67.81433 
L 392.93568 67.712931 
L 393.2928 69.962394 
L 393.64992 65.870257 
L 394.00704 66.33192 
L 394.36416 71.601078 
L 394.72128 73.32605 
L 395.0784 68.49907 
L 395.43552 67.037735 
L 395.79264 61.888267 
L 396.14976 63.546436 
L 396.50688 68.580189 
L 396.864 64.09041 
L 397.22112 73.454488 
L 397.57824 59.726286 
L 397.93536 60.405459 
L 398.29248 68.997714 
L 398.6496 57.799709 
L 399.00672 74.18456 
L 399.36384 58.559604 
L 399.72096 59.824504 
L 400.07808 70.773186 
L 400.4352 65.147343 
L 400.79232 70.443939 
L 401.14944 69.025946 
L 401.50656 65.365649 
L 401.86368 63.994578 
L 402.2208 61.819077 
L 402.57792 72.233329 
L 402.93504 60.712439 
L 403.29216 70.298004 
L 404.0064 59.553709 
L 404.36352 64.570364 
L 404.72064 57.034248 
L 405.07776 67.428617 
L 405.43488 71.834096 
L 405.792 61.753864 
L 406.14912 62.42747 
L 406.50624 67.711341 
L 406.86336 62.716556 
L 407.22048 55.983279 
L 408.29184 66.602714 
L 408.64896 67.045688 
L 409.00608 67.066763 
L 409.3632 70.464616 
L 409.72032 69.11979 
L 410.07744 57.113379 
L 410.43456 54.748202 
L 411.1488 66.775689 
L 411.50592 65.579581 
L 411.86304 57.949223 
L 412.22016 68.384549 
L 412.57728 58.580281 
L 412.9344 65.482158 
L 413.29152 65.810213 
L 413.64864 62.728485 
L 414.00576 53.568 
L 414.36288 60.734309 
L 414.72 57.936101 
L 414.72 57.936101 
" style="fill:none;stroke:#000080;stroke-linecap:square;stroke-width:0.5;"/>
   </g>
   <g id="patch_3">
    <path d="M 57.6 307.584 
L 57.6 41.472 
" style="fill:none;stroke:#000000;stroke-linecap:square;stroke-linejoin:miter;stroke-width:0.8;"/>
   </g>
   <g id="patch_4">
    <path d="M 414.72 307.584 
L 414.72 41.472 
" style="fill:none;stroke:#000000;stroke-linecap:square;stroke-linejoin:miter;stroke-width:0.8;"/>
   </g>
   <g id="patch_5">
    <path d="M 57.6 307.584 
L 414.72 307.584 
" style="fill:none;stroke:#000000;stroke-linecap:square;stroke-linejoin:miter;stroke-width:0.8;"/>
   </g>
   <g id="patch_6">
    <path d="M 57.6 41.472 
L 414.72 41.472 
" style="fill:none;stroke:#000000;stroke-linecap:square;stroke-linejoin:miter;stroke-width:0.8;"/>
   </g>
   <g id="text_16">
    <!-- Test -->
    <defs>
     <path d="M -0.296875 72.90625 
L 61.375 72.90625 
L 61.375 64.59375 
L 35.5 64.59375 
L 35.5 0 
L 25.59375 0 
L 25.59375 64.59375 
L -0.296875 64.59375 
z
" id="DejaVuSans-54"/>
    </defs>
    <g transform="translate(223.341563 35.472)scale(0.12 -0.12)">
     <use xlink:href="#DejaVuSans-54"/>
     <use x="60.818359" xlink:href="#DejaVuSans-65"/>
     <use x="122.341797" xlink:href="#DejaVuSans-73"/>
     <use x="174.441406" xlink:href="#DejaVuSans-74"/>
    </g>
   </g>
   <g id="legend_1">
    <g id="patch_7">
     <path d="M 64.6 64.150125 
L 306.276563 64.150125 
Q 308.276563 64.150125 308.276563 62.150125 
L 308.276563 48.472 
Q 308.276563 46.472 306.276563 46.472 
L 64.6 46.472 
Q 62.6 46.472 62.6 48.472 
L 62.6 62.150125 
Q 62.6 64.150125 64.6 64.150125 
z
" style="fill:#ffffff;opacity:0.8;stroke:#cccccc;stroke-linejoin:miter;"/>
    </g>
    <g id="line2d_28">
     <path d="M 66.6 54.570438 
L 86.6 54.570438 
" style="fill:none;stroke:#000080;stroke-linecap:square;stroke-width:0.5;"/>
    </g>
    <g id="line2d_29"/>
    <g id="text_17">
     <!-- Successful download requests per second -->
     <g transform="translate(94.6 58.070438)scale(0.1 -0.1)">
      <use xlink:href="#DejaVuSans-53"/>
      <use x="63.476562" xlink:href="#DejaVuSans-75"/>
      <use x="126.855469" xlink:href="#DejaVuSans-63"/>
      <use x="181.835938" xlink:href="#DejaVuSans-63"/>
      <use x="236.816406" xlink:href="#DejaVuSans-65"/>
      <use x="298.339844" xlink:href="#DejaVuSans-73"/>
      <use x="350.439453" xlink:href="#DejaVuSans-73"/>
      <use x="402.539062" xlink:href="#DejaVuSans-66"/>
      <use x="437.744141" xlink:href="#DejaVuSans-75"/>
      <use x="501.123047" xlink:href="#DejaVuSans-6c"/>
      <use x="528.90625" xlink:href="#DejaVuSans-20"/>
      <use x="560.693359" xlink:href="#DejaVuSans-64"/>
      <use x="624.169922" xlink:href="#DejaVuSans-6f"/>
      <use x="685.351562" xlink:href="#DejaVuSans-77"/>
      <use x="767.138672" xlink:href="#DejaVuSans-6e"/>
      <use x="830.517578" xlink:href="#DejaVuSans-6c"/>
      <use x="858.300781" xlink:href="#DejaVuSans-6f"/>
      <use x="919.482422" xlink:href="#DejaVuSans-61"/>
      <use x="980.761719" xlink:href="#DejaVuSans-64"/>
      <use x="1044.238281" xlink:href="#DejaVuSans-20"/>
      <use x="1076.025391" xlink:href="#DejaVuSans-72"/>
      <use x="1117.107422" xlink:href="#DejaVuSans-65"/>
      <use x="1178.630859" xlink:href="#DejaVuSans-71"/>
      <use x="1242.107422" xlink:href="#DejaVuSans-75"/>
      <use x="1305.486328" xlink:href="#DejaVuSans-65"/>
      <use x="1367.009766" xlink:href="#DejaVuSans-73"/>
      <use x="1419.109375" xlink:href="#DejaVuSans-74"/>
      <use x="1458.318359" xlink:href="#DejaVuSans-73"/>
      <use x="1510.417969" xlink:href="#DejaVuSans-20"/>
      <use x="1542.205078" xlink:href="#DejaVuSans-70"/>
      <use x="1605.681641" xlink:href="#DejaVuSans-65"/>
      <use x="1667.205078" xlink:href="#DejaVuSans-72"/>
      <use x="1708.318359" xlink:href="#DejaVuSans-20"/>
      <use x="1740.105469" xlink:href="#DejaVuSans-73"/>
      <use x="1792.205078" xlink:href="#DejaVuSans-65"/>
      <use x="1853.728516" xlink:href="#DejaVuSans-63"/>
      <use x="1908.708984" xlink:href="#DejaVuSans-6f"/>
      <use x="1969.890625" xlink:href="#DejaVuSans-6e"/>
      <use x="2033.269531" xlink:href="#DejaVuSans-64"/>
     </g>
    </g>
   </g>
  </g>
 </g>
 <defs>
  <clipPath id="pc2cf48e8f4">
   <rect height="266.112" width="357.12" x="57.6" y="41.472"/>
  </clipPath>
 </defs>
</svg>
