<?xml version="1.0" encoding="utf-8" standalone="no"?>
<!DOCTYPE svg PUBLIC "-//W3C//DTD SVG 1.1//EN"
  "http://www.w3.org/Graphics/SVG/1.1/DTD/svg11.dtd">
<!-- Created with matplotlib (http://matplotlib.org/) -->
<svg height="345pt" version="1.1" viewBox="0 0 460 345" width="460pt" xmlns="http://www.w3.org/2000/svg" xmlns:xlink="http://www.w3.org/1999/xlink">
 <defs>
  <style type="text/css">
*{stroke-linecap:butt;stroke-linejoin:round;}
  </style>
 </defs>
 <g id="figure_1">
  <g id="patch_1">
   <path d="M 0 345.6 
L 460.8 345.6 
L 460.8 0 
L 0 0 
z
" style="fill:#ffffff;"/>
  </g>
  <g id="axes_1">
   <g id="patch_2">
    <path d="M 57.6 307.584 
L 414.72 307.584 
L 414.72 41.472 
L 57.6 41.472 
z
" style="fill:#ffffff;"/>
   </g>
   <g id="matplotlib.axis_1">
    <g id="xtick_1">
     <g id="line2d_1">
      <path clip-path="url(#p347c2eab4e)" d="M 57.6 307.584 
L 57.6 41.472 
" style="fill:none;stroke:#b0b0b0;stroke-linecap:square;stroke-width:0.8;"/>
     </g>
     <g id="line2d_2">
      <defs>
       <path d="M 0 0 
L 0 3.5 
" id="m0da7211434" style="stroke:#000000;stroke-width:0.8;"/>
      </defs>
      <g>
       <use style="stroke:#000000;stroke-width:0.8;" x="57.6" xlink:href="#m0da7211434" y="307.584"/>
      </g>
     </g>
     <g id="text_1">
      <!-- 0 -->
      <defs>
       <path d="M 31.78125 66.40625 
Q 24.171875 66.40625 20.328125 58.90625 
Q 16.5 51.421875 16.5 36.375 
Q 16.5 21.390625 20.328125 13.890625 
Q 24.171875 6.390625 31.78125 6.390625 
Q 39.453125 6.390625 43.28125 13.890625 
Q 47.125 21.390625 47.125 36.375 
Q 47.125 51.421875 43.28125 58.90625 
Q 39.453125 66.40625 31.78125 66.40625 
M 31.78125 74.21875 
Q 44.046875 74.21875 50.515625 64.515625 
Q 56.984375 54.828125 56.984375 36.375 
Q 56.984375 17.96875 50.515625 8.265625 
Q 44.046875 -1.421875 31.78125 -1.421875 
Q 19.53125 -1.421875 13.0625 8.265625 
Q 6.59375 17.96875 6.59375 36.375 
Q 6.59375 54.828125 13.0625 64.515625 
Q 19.53125 74.21875 31.78125 74.21875 
" id="DejaVuSans-30"/>
      </defs>
      <g transform="translate(54.41875 322.182437)scale(0.1 -0.1)">
       <use xlink:href="#DejaVuSans-30"/>
      </g>
     </g>
    </g>
    <g id="xtick_2">
     <g id="line2d_3">
      <path clip-path="url(#p347c2eab4e)" d="M 129.024 307.584 
L 129.024 41.472 
" style="fill:none;stroke:#b0b0b0;stroke-linecap:square;stroke-width:0.8;"/>
     </g>
     <g id="line2d_4">
      <g>
       <use style="stroke:#000000;stroke-width:0.8;" x="129.024" xlink:href="#m0da7211434" y="307.584"/>
      </g>
     </g>
     <g id="text_2">
      <!-- 200 -->
      <defs>
       <path d="M 19.1875 8.296875 
L 53.609375 8.296875 
L 53.609375 0 
L 7.328125 0 
L 7.328125 8.296875 
Q 12.9375 14.109375 22.625 23.890625 
Q 32.328125 33.6875 34.8125 36.53125 
Q 39.546875 41.84375 41.421875 45.53125 
Q 43.3125 49.21875 43.3125 52.78125 
Q 43.3125 58.59375 39.234375 62.25 
Q 35.15625 65.921875 28.609375 65.921875 
Q 23.96875 65.921875 18.8125 64.3125 
Q 13.671875 62.703125 7.8125 59.421875 
L 7.8125 69.390625 
Q 13.765625 71.78125 18.9375 73 
Q 24.125 74.21875 28.421875 74.21875 
Q 39.75 74.21875 46.484375 68.546875 
Q 53.21875 62.890625 53.21875 53.421875 
Q 53.21875 48.921875 51.53125 44.890625 
Q 49.859375 40.875 45.40625 35.40625 
Q 44.1875 33.984375 37.640625 27.21875 
Q 31.109375 20.453125 19.1875 8.296875 
" id="DejaVuSans-32"/>
      </defs>
      <g transform="translate(119.48025 322.182437)scale(0.1 -0.1)">
       <use xlink:href="#DejaVuSans-32"/>
       <use x="63.623047" xlink:href="#DejaVuSans-30"/>
       <use x="127.246094" xlink:href="#DejaVuSans-30"/>
      </g>
     </g>
    </g>
    <g id="xtick_3">
     <g id="line2d_5">
      <path clip-path="url(#p347c2eab4e)" d="M 200.448 307.584 
L 200.448 41.472 
" style="fill:none;stroke:#b0b0b0;stroke-linecap:square;stroke-width:0.8;"/>
     </g>
     <g id="line2d_6">
      <g>
       <use style="stroke:#000000;stroke-width:0.8;" x="200.448" xlink:href="#m0da7211434" y="307.584"/>
      </g>
     </g>
     <g id="text_3">
      <!-- 400 -->
      <defs>
       <path d="M 37.796875 64.3125 
L 12.890625 25.390625 
L 37.796875 25.390625 
z
M 35.203125 72.90625 
L 47.609375 72.90625 
L 47.609375 25.390625 
L 58.015625 25.390625 
L 58.015625 17.1875 
L 47.609375 17.1875 
L 47.609375 0 
L 37.796875 0 
L 37.796875 17.1875 
L 4.890625 17.1875 
L 4.890625 26.703125 
z
" id="DejaVuSans-34"/>
      </defs>
      <g transform="translate(190.90425 322.182437)scale(0.1 -0.1)">
       <use xlink:href="#DejaVuSans-34"/>
       <use x="63.623047" xlink:href="#DejaVuSans-30"/>
       <use x="127.246094" xlink:href="#DejaVuSans-30"/>
      </g>
     </g>
    </g>
    <g id="xtick_4">
     <g id="line2d_7">
      <path clip-path="url(#p347c2eab4e)" d="M 271.872 307.584 
L 271.872 41.472 
" style="fill:none;stroke:#b0b0b0;stroke-linecap:square;stroke-width:0.8;"/>
     </g>
     <g id="line2d_8">
      <g>
       <use style="stroke:#000000;stroke-width:0.8;" x="271.872" xlink:href="#m0da7211434" y="307.584"/>
      </g>
     </g>
     <g id="text_4">
      <!-- 600 -->
      <defs>
       <path d="M 33.015625 40.375 
Q 26.375 40.375 22.484375 35.828125 
Q 18.609375 31.296875 18.609375 23.390625 
Q 18.609375 15.53125 22.484375 10.953125 
Q 26.375 6.390625 33.015625 6.390625 
Q 39.65625 6.390625 43.53125 10.953125 
Q 47.40625 15.53125 47.40625 23.390625 
Q 47.40625 31.296875 43.53125 35.828125 
Q 39.65625 40.375 33.015625 40.375 
M 52.59375 71.296875 
L 52.59375 62.3125 
Q 48.875 64.0625 45.09375 64.984375 
Q 41.3125 65.921875 37.59375 65.921875 
Q 27.828125 65.921875 22.671875 59.328125 
Q 17.53125 52.734375 16.796875 39.40625 
Q 19.671875 43.65625 24.015625 45.921875 
Q 28.375 48.1875 33.59375 48.1875 
Q 44.578125 48.1875 50.953125 41.515625 
Q 57.328125 34.859375 57.328125 23.390625 
Q 57.328125 12.15625 50.6875 5.359375 
Q 44.046875 -1.421875 33.015625 -1.421875 
Q 20.359375 -1.421875 13.671875 8.265625 
Q 6.984375 17.96875 6.984375 36.375 
Q 6.984375 53.65625 15.1875 63.9375 
Q 23.390625 74.21875 37.203125 74.21875 
Q 40.921875 74.21875 44.703125 73.484375 
Q 48.484375 72.75 52.59375 71.296875 
" id="DejaVuSans-36"/>
      </defs>
      <g transform="translate(262.32825 322.182437)scale(0.1 -0.1)">
       <use xlink:href="#DejaVuSans-36"/>
       <use x="63.623047" xlink:href="#DejaVuSans-30"/>
       <use x="127.246094" xlink:href="#DejaVuSans-30"/>
      </g>
     </g>
    </g>
    <g id="xtick_5">
     <g id="line2d_9">
      <path clip-path="url(#p347c2eab4e)" d="M 343.296 307.584 
L 343.296 41.472 
" style="fill:none;stroke:#b0b0b0;stroke-linecap:square;stroke-width:0.8;"/>
     </g>
     <g id="line2d_10">
      <g>
       <use style="stroke:#000000;stroke-width:0.8;" x="343.296" xlink:href="#m0da7211434" y="307.584"/>
      </g>
     </g>
     <g id="text_5">
      <!-- 800 -->
      <defs>
       <path d="M 31.78125 34.625 
Q 24.75 34.625 20.71875 30.859375 
Q 16.703125 27.09375 16.703125 20.515625 
Q 16.703125 13.921875 20.71875 10.15625 
Q 24.75 6.390625 31.78125 6.390625 
Q 38.8125 6.390625 42.859375 10.171875 
Q 46.921875 13.96875 46.921875 20.515625 
Q 46.921875 27.09375 42.890625 30.859375 
Q 38.875 34.625 31.78125 34.625 
M 21.921875 38.8125 
Q 15.578125 40.375 12.03125 44.71875 
Q 8.5 49.078125 8.5 55.328125 
Q 8.5 64.0625 14.71875 69.140625 
Q 20.953125 74.21875 31.78125 74.21875 
Q 42.671875 74.21875 48.875 69.140625 
Q 55.078125 64.0625 55.078125 55.328125 
Q 55.078125 49.078125 51.53125 44.71875 
Q 48 40.375 41.703125 38.8125 
Q 48.828125 37.15625 52.796875 32.3125 
Q 56.78125 27.484375 56.78125 20.515625 
Q 56.78125 9.90625 50.3125 4.234375 
Q 43.84375 -1.421875 31.78125 -1.421875 
Q 19.734375 -1.421875 13.25 4.234375 
Q 6.78125 9.90625 6.78125 20.515625 
Q 6.78125 27.484375 10.78125 32.3125 
Q 14.796875 37.15625 21.921875 38.8125 
M 18.3125 54.390625 
Q 18.3125 48.734375 21.84375 45.5625 
Q 25.390625 42.390625 31.78125 42.390625 
Q 38.140625 42.390625 41.71875 45.5625 
Q 45.3125 48.734375 45.3125 54.390625 
Q 45.3125 60.0625 41.71875 63.234375 
Q 38.140625 66.40625 31.78125 66.40625 
Q 25.390625 66.40625 21.84375 63.234375 
Q 18.3125 60.0625 18.3125 54.390625 
" id="DejaVuSans-38"/>
      </defs>
      <g transform="translate(333.75225 322.182437)scale(0.1 -0.1)">
       <use xlink:href="#DejaVuSans-38"/>
       <use x="63.623047" xlink:href="#DejaVuSans-30"/>
       <use x="127.246094" xlink:href="#DejaVuSans-30"/>
      </g>
     </g>
    </g>
    <g id="xtick_6">
     <g id="line2d_11">
      <path clip-path="url(#p347c2eab4e)" d="M 414.72 307.584 
L 414.72 41.472 
" style="fill:none;stroke:#b0b0b0;stroke-linecap:square;stroke-width:0.8;"/>
     </g>
     <g id="line2d_12">
      <g>
       <use style="stroke:#000000;stroke-width:0.8;" x="414.72" xlink:href="#m0da7211434" y="307.584"/>
      </g>
     </g>
     <g id="text_6">
      <!-- 1000 -->
      <defs>
       <path d="M 12.40625 8.296875 
L 28.515625 8.296875 
L 28.515625 63.921875 
L 10.984375 60.40625 
L 10.984375 69.390625 
L 28.421875 72.90625 
L 38.28125 72.90625 
L 38.28125 8.296875 
L 54.390625 8.296875 
L 54.390625 0 
L 12.40625 0 
z
" id="DejaVuSans-31"/>
      </defs>
      <g transform="translate(401.995 322.182437)scale(0.1 -0.1)">
       <use xlink:href="#DejaVuSans-31"/>
       <use x="63.623047" xlink:href="#DejaVuSans-30"/>
       <use x="127.246094" xlink:href="#DejaVuSans-30"/>
       <use x="190.869141" xlink:href="#DejaVuSans-30"/>
      </g>
     </g>
    </g>
    <g id="text_7">
     <!-- Number of clients -->
     <defs>
      <path d="M 9.8125 72.90625 
L 23.09375 72.90625 
L 55.421875 11.921875 
L 55.421875 72.90625 
L 64.984375 72.90625 
L 64.984375 0 
L 51.703125 0 
L 19.390625 60.984375 
L 19.390625 0 
L 9.8125 0 
z
" id="DejaVuSans-4e"/>
      <path d="M 8.5 21.578125 
L 8.5 54.6875 
L 17.484375 54.6875 
L 17.484375 21.921875 
Q 17.484375 14.15625 20.5 10.265625 
Q 23.53125 6.390625 29.59375 6.390625 
Q 36.859375 6.390625 41.078125 11.03125 
Q 45.3125 15.671875 45.3125 23.6875 
L 45.3125 54.6875 
L 54.296875 54.6875 
L 54.296875 0 
L 45.3125 0 
L 45.3125 8.40625 
Q 42.046875 3.421875 37.71875 1 
Q 33.40625 -1.421875 27.6875 -1.421875 
Q 18.265625 -1.421875 13.375 4.4375 
Q 8.5 10.296875 8.5 21.578125 
M 31.109375 56 
z
" id="DejaVuSans-75"/>
      <path d="M 52 44.1875 
Q 55.375 50.25 60.0625 53.125 
Q 64.75 56 71.09375 56 
Q 79.640625 56 84.28125 50.015625 
Q 88.921875 44.046875 88.921875 33.015625 
L 88.921875 0 
L 79.890625 0 
L 79.890625 32.71875 
Q 79.890625 40.578125 77.09375 44.375 
Q 74.3125 48.1875 68.609375 48.1875 
Q 61.625 48.1875 57.5625 43.546875 
Q 53.515625 38.921875 53.515625 30.90625 
L 53.515625 0 
L 44.484375 0 
L 44.484375 32.71875 
Q 44.484375 40.625 41.703125 44.40625 
Q 38.921875 48.1875 33.109375 48.1875 
Q 26.21875 48.1875 22.15625 43.53125 
Q 18.109375 38.875 18.109375 30.90625 
L 18.109375 0 
L 9.078125 0 
L 9.078125 54.6875 
L 18.109375 54.6875 
L 18.109375 46.1875 
Q 21.1875 51.21875 25.484375 53.609375 
Q 29.78125 56 35.6875 56 
Q 41.65625 56 45.828125 52.96875 
Q 50 49.953125 52 44.1875 
" id="DejaVuSans-6d"/>
      <path d="M 48.6875 27.296875 
Q 48.6875 37.203125 44.609375 42.84375 
Q 40.53125 48.484375 33.40625 48.484375 
Q 26.265625 48.484375 22.1875 42.84375 
Q 18.109375 37.203125 18.109375 27.296875 
Q 18.109375 17.390625 22.1875 11.75 
Q 26.265625 6.109375 33.40625 6.109375 
Q 40.53125 6.109375 44.609375 11.75 
Q 48.6875 17.390625 48.6875 27.296875 
M 18.109375 46.390625 
Q 20.953125 51.265625 25.265625 53.625 
Q 29.59375 56 35.59375 56 
Q 45.5625 56 51.78125 48.09375 
Q 58.015625 40.1875 58.015625 27.296875 
Q 58.015625 14.40625 51.78125 6.484375 
Q 45.5625 -1.421875 35.59375 -1.421875 
Q 29.59375 -1.421875 25.265625 0.953125 
Q 20.953125 3.328125 18.109375 8.203125 
L 18.109375 0 
L 9.078125 0 
L 9.078125 75.984375 
L 18.109375 75.984375 
z
" id="DejaVuSans-62"/>
      <path d="M 56.203125 29.59375 
L 56.203125 25.203125 
L 14.890625 25.203125 
Q 15.484375 15.921875 20.484375 11.0625 
Q 25.484375 6.203125 34.421875 6.203125 
Q 39.59375 6.203125 44.453125 7.46875 
Q 49.3125 8.734375 54.109375 11.28125 
L 54.109375 2.78125 
Q 49.265625 0.734375 44.1875 -0.34375 
Q 39.109375 -1.421875 33.890625 -1.421875 
Q 20.796875 -1.421875 13.15625 6.1875 
Q 5.515625 13.8125 5.515625 26.8125 
Q 5.515625 40.234375 12.765625 48.109375 
Q 20.015625 56 32.328125 56 
Q 43.359375 56 49.78125 48.890625 
Q 56.203125 41.796875 56.203125 29.59375 
M 47.21875 32.234375 
Q 47.125 39.59375 43.09375 43.984375 
Q 39.0625 48.390625 32.421875 48.390625 
Q 24.90625 48.390625 20.390625 44.140625 
Q 15.875 39.890625 15.1875 32.171875 
z
" id="DejaVuSans-65"/>
      <path d="M 41.109375 46.296875 
Q 39.59375 47.171875 37.8125 47.578125 
Q 36.03125 48 33.890625 48 
Q 26.265625 48 22.1875 43.046875 
Q 18.109375 38.09375 18.109375 28.8125 
L 18.109375 0 
L 9.078125 0 
L 9.078125 54.6875 
L 18.109375 54.6875 
L 18.109375 46.1875 
Q 20.953125 51.171875 25.484375 53.578125 
Q 30.03125 56 36.53125 56 
Q 37.453125 56 38.578125 55.875 
Q 39.703125 55.765625 41.0625 55.515625 
z
" id="DejaVuSans-72"/>
      <path id="DejaVuSans-20"/>
      <path d="M 30.609375 48.390625 
Q 23.390625 48.390625 19.1875 42.75 
Q 14.984375 37.109375 14.984375 27.296875 
Q 14.984375 17.484375 19.15625 11.84375 
Q 23.34375 6.203125 30.609375 6.203125 
Q 37.796875 6.203125 41.984375 11.859375 
Q 46.1875 17.53125 46.1875 27.296875 
Q 46.1875 37.015625 41.984375 42.703125 
Q 37.796875 48.390625 30.609375 48.390625 
M 30.609375 56 
Q 42.328125 56 49.015625 48.375 
Q 55.71875 40.765625 55.71875 27.296875 
Q 55.71875 13.875 49.015625 6.21875 
Q 42.328125 -1.421875 30.609375 -1.421875 
Q 18.84375 -1.421875 12.171875 6.21875 
Q 5.515625 13.875 5.515625 27.296875 
Q 5.515625 40.765625 12.171875 48.375 
Q 18.84375 56 30.609375 56 
" id="DejaVuSans-6f"/>
      <path d="M 37.109375 75.984375 
L 37.109375 68.5 
L 28.515625 68.5 
Q 23.6875 68.5 21.796875 66.546875 
Q 19.921875 64.59375 19.921875 59.515625 
L 19.921875 54.6875 
L 34.71875 54.6875 
L 34.71875 47.703125 
L 19.921875 47.703125 
L 19.921875 0 
L 10.890625 0 
L 10.890625 47.703125 
L 2.296875 47.703125 
L 2.296875 54.6875 
L 10.890625 54.6875 
L 10.890625 58.5 
Q 10.890625 67.625 15.140625 71.796875 
Q 19.390625 75.984375 28.609375 75.984375 
z
" id="DejaVuSans-66"/>
      <path d="M 48.78125 52.59375 
L 48.78125 44.1875 
Q 44.96875 46.296875 41.140625 47.34375 
Q 37.3125 48.390625 33.40625 48.390625 
Q 24.65625 48.390625 19.8125 42.84375 
Q 14.984375 37.3125 14.984375 27.296875 
Q 14.984375 17.28125 19.8125 11.734375 
Q 24.65625 6.203125 33.40625 6.203125 
Q 37.3125 6.203125 41.140625 7.25 
Q 44.96875 8.296875 48.78125 10.40625 
L 48.78125 2.09375 
Q 45.015625 0.34375 40.984375 -0.53125 
Q 36.96875 -1.421875 32.421875 -1.421875 
Q 20.0625 -1.421875 12.78125 6.34375 
Q 5.515625 14.109375 5.515625 27.296875 
Q 5.515625 40.671875 12.859375 48.328125 
Q 20.21875 56 33.015625 56 
Q 37.15625 56 41.109375 55.140625 
Q 45.0625 54.296875 48.78125 52.59375 
" id="DejaVuSans-63"/>
      <path d="M 9.421875 75.984375 
L 18.40625 75.984375 
L 18.40625 0 
L 9.421875 0 
z
" id="DejaVuSans-6c"/>
      <path d="M 9.421875 54.6875 
L 18.40625 54.6875 
L 18.40625 0 
L 9.421875 0 
z
M 9.421875 75.984375 
L 18.40625 75.984375 
L 18.40625 64.59375 
L 9.421875 64.59375 
z
" id="DejaVuSans-69"/>
      <path d="M 54.890625 33.015625 
L 54.890625 0 
L 45.90625 0 
L 45.90625 32.71875 
Q 45.90625 40.484375 42.875 44.328125 
Q 39.84375 48.1875 33.796875 48.1875 
Q 26.515625 48.1875 22.3125 43.546875 
Q 18.109375 38.921875 18.109375 30.90625 
L 18.109375 0 
L 9.078125 0 
L 9.078125 54.6875 
L 18.109375 54.6875 
L 18.109375 46.1875 
Q 21.34375 51.125 25.703125 53.5625 
Q 30.078125 56 35.796875 56 
Q 45.21875 56 50.046875 50.171875 
Q 54.890625 44.34375 54.890625 33.015625 
" id="DejaVuSans-6e"/>
      <path d="M 18.3125 70.21875 
L 18.3125 54.6875 
L 36.8125 54.6875 
L 36.8125 47.703125 
L 18.3125 47.703125 
L 18.3125 18.015625 
Q 18.3125 11.328125 20.140625 9.421875 
Q 21.96875 7.515625 27.59375 7.515625 
L 36.8125 7.515625 
L 36.8125 0 
L 27.59375 0 
Q 17.1875 0 13.234375 3.875 
Q 9.28125 7.765625 9.28125 18.015625 
L 9.28125 47.703125 
L 2.6875 47.703125 
L 2.6875 54.6875 
L 9.28125 54.6875 
L 9.28125 70.21875 
z
" id="DejaVuSans-74"/>
      <path d="M 44.28125 53.078125 
L 44.28125 44.578125 
Q 40.484375 46.53125 36.375 47.5 
Q 32.28125 48.484375 27.875 48.484375 
Q 21.1875 48.484375 17.84375 46.4375 
Q 14.5 44.390625 14.5 40.28125 
Q 14.5 37.15625 16.890625 35.375 
Q 19.28125 33.59375 26.515625 31.984375 
L 29.59375 31.296875 
Q 39.15625 29.25 43.1875 25.515625 
Q 47.21875 21.78125 47.21875 15.09375 
Q 47.21875 7.46875 41.1875 3.015625 
Q 35.15625 -1.421875 24.609375 -1.421875 
Q 20.21875 -1.421875 15.453125 -0.5625 
Q 10.6875 0.296875 5.421875 2 
L 5.421875 11.28125 
Q 10.40625 8.6875 15.234375 7.390625 
Q 20.0625 6.109375 24.8125 6.109375 
Q 31.15625 6.109375 34.5625 8.28125 
Q 37.984375 10.453125 37.984375 14.40625 
Q 37.984375 18.0625 35.515625 20.015625 
Q 33.0625 21.96875 24.703125 23.78125 
L 21.578125 24.515625 
Q 13.234375 26.265625 9.515625 29.90625 
Q 5.8125 33.546875 5.8125 39.890625 
Q 5.8125 47.609375 11.28125 51.796875 
Q 16.75 56 26.8125 56 
Q 31.78125 56 36.171875 55.265625 
Q 40.578125 54.546875 44.28125 53.078125 
" id="DejaVuSans-73"/>
     </defs>
     <g transform="translate(191.738906 335.860562)scale(0.1 -0.1)">
      <use xlink:href="#DejaVuSans-4e"/>
      <use x="74.804688" xlink:href="#DejaVuSans-75"/>
      <use x="138.183594" xlink:href="#DejaVuSans-6d"/>
      <use x="235.595703" xlink:href="#DejaVuSans-62"/>
      <use x="299.072266" xlink:href="#DejaVuSans-65"/>
      <use x="360.595703" xlink:href="#DejaVuSans-72"/>
      <use x="401.708984" xlink:href="#DejaVuSans-20"/>
      <use x="433.496094" xlink:href="#DejaVuSans-6f"/>
      <use x="494.677734" xlink:href="#DejaVuSans-66"/>
      <use x="529.882812" xlink:href="#DejaVuSans-20"/>
      <use x="561.669922" xlink:href="#DejaVuSans-63"/>
      <use x="616.650391" xlink:href="#DejaVuSans-6c"/>
      <use x="644.433594" xlink:href="#DejaVuSans-69"/>
      <use x="672.216797" xlink:href="#DejaVuSans-65"/>
      <use x="733.740234" xlink:href="#DejaVuSans-6e"/>
      <use x="797.119141" xlink:href="#DejaVuSans-74"/>
      <use x="836.328125" xlink:href="#DejaVuSans-73"/>
     </g>
    </g>
   </g>
   <g id="matplotlib.axis_2">
    <g id="ytick_1">
     <g id="line2d_13">
      <path clip-path="url(#p347c2eab4e)" d="M 57.6 295.847858 
L 414.72 295.847858 
" style="fill:none;stroke:#b0b0b0;stroke-linecap:square;stroke-width:0.8;"/>
     </g>
     <g id="line2d_14">
      <defs>
       <path d="M 0 0 
L -3.5 0 
" id="m722eb1bdc9" style="stroke:#000000;stroke-width:0.8;"/>
      </defs>
      <g>
       <use style="stroke:#000000;stroke-width:0.8;" x="57.6" xlink:href="#m722eb1bdc9" y="295.847858"/>
      </g>
     </g>
     <g id="text_8">
      <!-- 0 -->
      <g transform="translate(44.2375 299.647077)scale(0.1 -0.1)">
       <use xlink:href="#DejaVuSans-30"/>
      </g>
     </g>
    </g>
    <g id="ytick_2">
     <g id="line2d_15">
      <path clip-path="url(#p347c2eab4e)" d="M 57.6 258.939315 
L 414.72 258.939315 
" style="fill:none;stroke:#b0b0b0;stroke-linecap:square;stroke-width:0.8;"/>
     </g>
     <g id="line2d_16">
      <g>
       <use style="stroke:#000000;stroke-width:0.8;" x="57.6" xlink:href="#m722eb1bdc9" y="258.939315"/>
      </g>
     </g>
     <g id="text_9">
      <!-- 100 -->
      <g transform="translate(31.5125 262.738534)scale(0.1 -0.1)">
       <use xlink:href="#DejaVuSans-31"/>
       <use x="63.623047" xlink:href="#DejaVuSans-30"/>
       <use x="127.246094" xlink:href="#DejaVuSans-30"/>
      </g>
     </g>
    </g>
    <g id="ytick_3">
     <g id="line2d_17">
      <path clip-path="url(#p347c2eab4e)" d="M 57.6 222.030772 
L 414.72 222.030772 
" style="fill:none;stroke:#b0b0b0;stroke-linecap:square;stroke-width:0.8;"/>
     </g>
     <g id="line2d_18">
      <g>
       <use style="stroke:#000000;stroke-width:0.8;" x="57.6" xlink:href="#m722eb1bdc9" y="222.030772"/>
      </g>
     </g>
     <g id="text_10">
      <!-- 200 -->
      <g transform="translate(31.5125 225.82999)scale(0.1 -0.1)">
       <use xlink:href="#DejaVuSans-32"/>
       <use x="63.623047" xlink:href="#DejaVuSans-30"/>
       <use x="127.246094" xlink:href="#DejaVuSans-30"/>
      </g>
     </g>
    </g>
    <g id="ytick_4">
     <g id="line2d_19">
      <path clip-path="url(#p347c2eab4e)" d="M 57.6 185.122228 
L 414.72 185.122228 
" style="fill:none;stroke:#b0b0b0;stroke-linecap:square;stroke-width:0.8;"/>
     </g>
     <g id="line2d_20">
      <g>
       <use style="stroke:#000000;stroke-width:0.8;" x="57.6" xlink:href="#m722eb1bdc9" y="185.122228"/>
      </g>
     </g>
     <g id="text_11">
      <!-- 300 -->
      <defs>
       <path d="M 40.578125 39.3125 
Q 47.65625 37.796875 51.625 33 
Q 55.609375 28.21875 55.609375 21.1875 
Q 55.609375 10.40625 48.1875 4.484375 
Q 40.765625 -1.421875 27.09375 -1.421875 
Q 22.515625 -1.421875 17.65625 -0.515625 
Q 12.796875 0.390625 7.625 2.203125 
L 7.625 11.71875 
Q 11.71875 9.328125 16.59375 8.109375 
Q 21.484375 6.890625 26.8125 6.890625 
Q 36.078125 6.890625 40.9375 10.546875 
Q 45.796875 14.203125 45.796875 21.1875 
Q 45.796875 27.640625 41.28125 31.265625 
Q 36.765625 34.90625 28.71875 34.90625 
L 20.21875 34.90625 
L 20.21875 43.015625 
L 29.109375 43.015625 
Q 36.375 43.015625 40.234375 45.921875 
Q 44.09375 48.828125 44.09375 54.296875 
Q 44.09375 59.90625 40.109375 62.90625 
Q 36.140625 65.921875 28.71875 65.921875 
Q 24.65625 65.921875 20.015625 65.03125 
Q 15.375 64.15625 9.8125 62.3125 
L 9.8125 71.09375 
Q 15.4375 72.65625 20.34375 73.4375 
Q 25.25 74.21875 29.59375 74.21875 
Q 40.828125 74.21875 47.359375 69.109375 
Q 53.90625 64.015625 53.90625 55.328125 
Q 53.90625 49.265625 50.4375 45.09375 
Q 46.96875 40.921875 40.578125 39.3125 
" id="DejaVuSans-33"/>
      </defs>
      <g transform="translate(31.5125 188.921447)scale(0.1 -0.1)">
       <use xlink:href="#DejaVuSans-33"/>
       <use x="63.623047" xlink:href="#DejaVuSans-30"/>
       <use x="127.246094" xlink:href="#DejaVuSans-30"/>
      </g>
     </g>
    </g>
    <g id="ytick_5">
     <g id="line2d_21">
      <path clip-path="url(#p347c2eab4e)" d="M 57.6 148.213685 
L 414.72 148.213685 
" style="fill:none;stroke:#b0b0b0;stroke-linecap:square;stroke-width:0.8;"/>
     </g>
     <g id="line2d_22">
      <g>
       <use style="stroke:#000000;stroke-width:0.8;" x="57.6" xlink:href="#m722eb1bdc9" y="148.213685"/>
      </g>
     </g>
     <g id="text_12">
      <!-- 400 -->
      <g transform="translate(31.5125 152.012904)scale(0.1 -0.1)">
       <use xlink:href="#DejaVuSans-34"/>
       <use x="63.623047" xlink:href="#DejaVuSans-30"/>
       <use x="127.246094" xlink:href="#DejaVuSans-30"/>
      </g>
     </g>
    </g>
    <g id="ytick_6">
     <g id="line2d_23">
      <path clip-path="url(#p347c2eab4e)" d="M 57.6 111.305142 
L 414.72 111.305142 
" style="fill:none;stroke:#b0b0b0;stroke-linecap:square;stroke-width:0.8;"/>
     </g>
     <g id="line2d_24">
      <g>
       <use style="stroke:#000000;stroke-width:0.8;" x="57.6" xlink:href="#m722eb1bdc9" y="111.305142"/>
      </g>
     </g>
     <g id="text_13">
      <!-- 500 -->
      <defs>
       <path d="M 10.796875 72.90625 
L 49.515625 72.90625 
L 49.515625 64.59375 
L 19.828125 64.59375 
L 19.828125 46.734375 
Q 21.96875 47.46875 24.109375 47.828125 
Q 26.265625 48.1875 28.421875 48.1875 
Q 40.625 48.1875 47.75 41.5 
Q 54.890625 34.8125 54.890625 23.390625 
Q 54.890625 11.625 47.5625 5.09375 
Q 40.234375 -1.421875 26.90625 -1.421875 
Q 22.3125 -1.421875 17.546875 -0.640625 
Q 12.796875 0.140625 7.71875 1.703125 
L 7.71875 11.625 
Q 12.109375 9.234375 16.796875 8.0625 
Q 21.484375 6.890625 26.703125 6.890625 
Q 35.15625 6.890625 40.078125 11.328125 
Q 45.015625 15.765625 45.015625 23.390625 
Q 45.015625 31 40.078125 35.4375 
Q 35.15625 39.890625 26.703125 39.890625 
Q 22.75 39.890625 18.8125 39.015625 
Q 14.890625 38.140625 10.796875 36.28125 
z
" id="DejaVuSans-35"/>
      </defs>
      <g transform="translate(31.5125 115.10436)scale(0.1 -0.1)">
       <use xlink:href="#DejaVuSans-35"/>
       <use x="63.623047" xlink:href="#DejaVuSans-30"/>
       <use x="127.246094" xlink:href="#DejaVuSans-30"/>
      </g>
     </g>
    </g>
    <g id="ytick_7">
     <g id="line2d_25">
      <path clip-path="url(#p347c2eab4e)" d="M 57.6 74.396598 
L 414.72 74.396598 
" style="fill:none;stroke:#b0b0b0;stroke-linecap:square;stroke-width:0.8;"/>
     </g>
     <g id="line2d_26">
      <g>
       <use style="stroke:#000000;stroke-width:0.8;" x="57.6" xlink:href="#m722eb1bdc9" y="74.396598"/>
      </g>
     </g>
     <g id="text_14">
      <!-- 600 -->
      <g transform="translate(31.5125 78.195817)scale(0.1 -0.1)">
       <use xlink:href="#DejaVuSans-36"/>
       <use x="63.623047" xlink:href="#DejaVuSans-30"/>
       <use x="127.246094" xlink:href="#DejaVuSans-30"/>
      </g>
     </g>
    </g>
    <g id="text_15">
     <!-- Successful download requests per second -->
     <defs>
      <path d="M 53.515625 70.515625 
L 53.515625 60.890625 
Q 47.90625 63.578125 42.921875 64.890625 
Q 37.9375 66.21875 33.296875 66.21875 
Q 25.25 66.21875 20.875 63.09375 
Q 16.5 59.96875 16.5 54.203125 
Q 16.5 49.359375 19.40625 46.890625 
Q 22.3125 44.4375 30.421875 42.921875 
L 36.375 41.703125 
Q 47.40625 39.59375 52.65625 34.296875 
Q 57.90625 29 57.90625 20.125 
Q 57.90625 9.515625 50.796875 4.046875 
Q 43.703125 -1.421875 29.984375 -1.421875 
Q 24.8125 -1.421875 18.96875 -0.25 
Q 13.140625 0.921875 6.890625 3.21875 
L 6.890625 13.375 
Q 12.890625 10.015625 18.65625 8.296875 
Q 24.421875 6.59375 29.984375 6.59375 
Q 38.421875 6.59375 43.015625 9.90625 
Q 47.609375 13.234375 47.609375 19.390625 
Q 47.609375 24.75 44.3125 27.78125 
Q 41.015625 30.8125 33.5 32.328125 
L 27.484375 33.5 
Q 16.453125 35.6875 11.515625 40.375 
Q 6.59375 45.0625 6.59375 53.421875 
Q 6.59375 63.09375 13.40625 68.65625 
Q 20.21875 74.21875 32.171875 74.21875 
Q 37.3125 74.21875 42.625 73.28125 
Q 47.953125 72.359375 53.515625 70.515625 
" id="DejaVuSans-53"/>
      <path d="M 45.40625 46.390625 
L 45.40625 75.984375 
L 54.390625 75.984375 
L 54.390625 0 
L 45.40625 0 
L 45.40625 8.203125 
Q 42.578125 3.328125 38.25 0.953125 
Q 33.9375 -1.421875 27.875 -1.421875 
Q 17.96875 -1.421875 11.734375 6.484375 
Q 5.515625 14.40625 5.515625 27.296875 
Q 5.515625 40.1875 11.734375 48.09375 
Q 17.96875 56 27.875 56 
Q 33.9375 56 38.25 53.625 
Q 42.578125 51.265625 45.40625 46.390625 
M 14.796875 27.296875 
Q 14.796875 17.390625 18.875 11.75 
Q 22.953125 6.109375 30.078125 6.109375 
Q 37.203125 6.109375 41.296875 11.75 
Q 45.40625 17.390625 45.40625 27.296875 
Q 45.40625 37.203125 41.296875 42.84375 
Q 37.203125 48.484375 30.078125 48.484375 
Q 22.953125 48.484375 18.875 42.84375 
Q 14.796875 37.203125 14.796875 27.296875 
" id="DejaVuSans-64"/>
      <path d="M 4.203125 54.6875 
L 13.1875 54.6875 
L 24.421875 12.015625 
L 35.59375 54.6875 
L 46.1875 54.6875 
L 57.421875 12.015625 
L 68.609375 54.6875 
L 77.59375 54.6875 
L 63.28125 0 
L 52.6875 0 
L 40.921875 44.828125 
L 29.109375 0 
L 18.5 0 
z
" id="DejaVuSans-77"/>
      <path d="M 34.28125 27.484375 
Q 23.390625 27.484375 19.1875 25 
Q 14.984375 22.515625 14.984375 16.5 
Q 14.984375 11.71875 18.140625 8.90625 
Q 21.296875 6.109375 26.703125 6.109375 
Q 34.1875 6.109375 38.703125 11.40625 
Q 43.21875 16.703125 43.21875 25.484375 
L 43.21875 27.484375 
z
M 52.203125 31.203125 
L 52.203125 0 
L 43.21875 0 
L 43.21875 8.296875 
Q 40.140625 3.328125 35.546875 0.953125 
Q 30.953125 -1.421875 24.3125 -1.421875 
Q 15.921875 -1.421875 10.953125 3.296875 
Q 6 8.015625 6 15.921875 
Q 6 25.140625 12.171875 29.828125 
Q 18.359375 34.515625 30.609375 34.515625 
L 43.21875 34.515625 
L 43.21875 35.40625 
Q 43.21875 41.609375 39.140625 45 
Q 35.0625 48.390625 27.6875 48.390625 
Q 23 48.390625 18.546875 47.265625 
Q 14.109375 46.140625 10.015625 43.890625 
L 10.015625 52.203125 
Q 14.9375 54.109375 19.578125 55.046875 
Q 24.21875 56 28.609375 56 
Q 40.484375 56 46.34375 49.84375 
Q 52.203125 43.703125 52.203125 31.203125 
" id="DejaVuSans-61"/>
      <path d="M 14.796875 27.296875 
Q 14.796875 17.390625 18.875 11.75 
Q 22.953125 6.109375 30.078125 6.109375 
Q 37.203125 6.109375 41.296875 11.75 
Q 45.40625 17.390625 45.40625 27.296875 
Q 45.40625 37.203125 41.296875 42.84375 
Q 37.203125 48.484375 30.078125 48.484375 
Q 22.953125 48.484375 18.875 42.84375 
Q 14.796875 37.203125 14.796875 27.296875 
M 45.40625 8.203125 
Q 42.578125 3.328125 38.25 0.953125 
Q 33.9375 -1.421875 27.875 -1.421875 
Q 17.96875 -1.421875 11.734375 6.484375 
Q 5.515625 14.40625 5.515625 27.296875 
Q 5.515625 40.1875 11.734375 48.09375 
Q 17.96875 56 27.875 56 
Q 33.9375 56 38.25 53.625 
Q 42.578125 51.265625 45.40625 46.390625 
L 45.40625 54.6875 
L 54.390625 54.6875 
L 54.390625 -20.796875 
L 45.40625 -20.796875 
z
" id="DejaVuSans-71"/>
      <path d="M 18.109375 8.203125 
L 18.109375 -20.796875 
L 9.078125 -20.796875 
L 9.078125 54.6875 
L 18.109375 54.6875 
L 18.109375 46.390625 
Q 20.953125 51.265625 25.265625 53.625 
Q 29.59375 56 35.59375 56 
Q 45.5625 56 51.78125 48.09375 
Q 58.015625 40.1875 58.015625 27.296875 
Q 58.015625 14.40625 51.78125 6.484375 
Q 45.5625 -1.421875 35.59375 -1.421875 
Q 29.59375 -1.421875 25.265625 0.953125 
Q 20.953125 3.328125 18.109375 8.203125 
M 48.6875 27.296875 
Q 48.6875 37.203125 44.609375 42.84375 
Q 40.53125 48.484375 33.40625 48.484375 
Q 26.265625 48.484375 22.1875 42.84375 
Q 18.109375 37.203125 18.109375 27.296875 
Q 18.109375 17.390625 22.1875 11.75 
Q 26.265625 6.109375 33.40625 6.109375 
Q 40.53125 6.109375 44.609375 11.75 
Q 48.6875 17.390625 48.6875 27.296875 
" id="DejaVuSans-70"/>
     </defs>
     <g transform="translate(25.432812 279.366281)rotate(-90)scale(0.1 -0.1)">
      <use xlink:href="#DejaVuSans-53"/>
      <use x="63.476562" xlink:href="#DejaVuSans-75"/>
      <use x="126.855469" xlink:href="#DejaVuSans-63"/>
      <use x="181.835938" xlink:href="#DejaVuSans-63"/>
      <use x="236.816406" xlink:href="#DejaVuSans-65"/>
      <use x="298.339844" xlink:href="#DejaVuSans-73"/>
      <use x="350.439453" xlink:href="#DejaVuSans-73"/>
      <use x="402.539062" xlink:href="#DejaVuSans-66"/>
      <use x="437.744141" xlink:href="#DejaVuSans-75"/>
      <use x="501.123047" xlink:href="#DejaVuSans-6c"/>
      <use x="528.90625" xlink:href="#DejaVuSans-20"/>
      <use x="560.693359" xlink:href="#DejaVuSans-64"/>
      <use x="624.169922" xlink:href="#DejaVuSans-6f"/>
      <use x="685.351562" xlink:href="#DejaVuSans-77"/>
      <use x="767.138672" xlink:href="#DejaVuSans-6e"/>
      <use x="830.517578" xlink:href="#DejaVuSans-6c"/>
      <use x="858.300781" xlink:href="#DejaVuSans-6f"/>
      <use x="919.482422" xlink:href="#DejaVuSans-61"/>
      <use x="980.761719" xlink:href="#DejaVuSans-64"/>
      <use x="1044.238281" xlink:href="#DejaVuSans-20"/>
      <use x="1076.025391" xlink:href="#DejaVuSans-72"/>
      <use x="1117.107422" xlink:href="#DejaVuSans-65"/>
      <use x="1178.630859" xlink:href="#DejaVuSans-71"/>
      <use x="1242.107422" xlink:href="#DejaVuSans-75"/>
      <use x="1305.486328" xlink:href="#DejaVuSans-65"/>
      <use x="1367.009766" xlink:href="#DejaVuSans-73"/>
      <use x="1419.109375" xlink:href="#DejaVuSans-74"/>
      <use x="1458.318359" xlink:href="#DejaVuSans-73"/>
      <use x="1510.417969" xlink:href="#DejaVuSans-20"/>
      <use x="1542.205078" xlink:href="#DejaVuSans-70"/>
      <use x="1605.681641" xlink:href="#DejaVuSans-65"/>
      <use x="1667.205078" xlink:href="#DejaVuSans-72"/>
      <use x="1708.318359" xlink:href="#DejaVuSans-20"/>
      <use x="1740.105469" xlink:href="#DejaVuSans-73"/>
      <use x="1792.205078" xlink:href="#DejaVuSans-65"/>
      <use x="1853.728516" xlink:href="#DejaVuSans-63"/>
      <use x="1908.708984" xlink:href="#DejaVuSans-6f"/>
      <use x="1969.890625" xlink:href="#DejaVuSans-6e"/>
      <use x="2033.269531" xlink:href="#DejaVuSans-64"/>
     </g>
    </g>
   </g>
   <g id="line2d_27">
    <path clip-path="url(#p347c2eab4e)" d="M 57.6 295.485785 
L 57.95712 295.488 
L 59.74272 293.697197 
L 60.45696 292.900711 
L 60.81408 292.714323 
L 61.1712 292.225285 
L 62.9568 290.694318 
L 63.67104 289.659772 
L 64.02816 289.594444 
L 64.38528 289.098762 
L 65.09952 288.527787 
L 65.45664 287.877458 
L 65.81376 287.739051 
L 66.17088 287.027086 
L 67.24224 286.029079 
L 67.59936 285.565507 
L 67.95648 285.628252 
L 68.3136 285.203065 
L 68.67072 284.43832 
L 69.02784 284.11574 
L 69.38496 284.428724 
L 69.74208 283.556206 
L 70.0992 283.57097 
L 70.45632 282.930975 
L 70.81344 283.1229 
L 71.52768 282.134489 
L 71.8848 281.857306 
L 72.24192 280.896576 
L 72.59904 281.176343 
L 73.31328 280.583592 
L 73.6704 279.840254 
L 74.02752 279.471169 
L 74.38464 278.823793 
L 74.74176 278.44548 
L 75.09888 278.960354 
L 75.456 277.548603 
L 76.17024 277.873767 
L 76.52736 277.582927 
L 77.2416 276.308475 
L 77.59872 276.122456 
L 77.95584 275.500547 
L 78.31296 275.208232 
L 79.0272 273.944483 
L 79.38432 273.557313 
L 79.74144 273.645524 
L 80.09856 273.388272 
L 80.8128 271.936289 
L 81.16992 273.075656 
L 81.52704 271.724803 
L 81.88416 271.586396 
L 82.5984 270.704651 
L 83.31264 270.834569 
L 83.66976 269.261158 
L 84.02688 268.937101 
L 84.384 269.776771 
L 84.74112 268.945959 
L 85.09824 269.288471 
L 85.45536 268.270164 
L 85.81248 268.706792 
L 86.1696 267.14556 
L 86.88384 265.60832 
L 87.24096 266.485267 
L 87.59808 265.675862 
L 87.9552 266.241301 
L 88.31232 265.561815 
L 88.66944 265.184979 
L 89.02656 264.138991 
L 89.38368 265.057275 
L 89.7408 264.309139 
L 90.09792 264.398089 
L 90.45504 263.192286 
L 90.81216 263.709375 
L 91.88352 260.819805 
L 92.24064 260.086802 
L 92.59776 260.186455 
L 92.95488 260.689518 
L 93.66912 259.739123 
L 94.02624 260.272452 
L 94.38336 258.651797 
L 94.74048 257.868598 
L 95.0976 258.27127 
L 95.81184 258.359851 
L 96.16896 256.486004 
L 96.52608 257.039632 
L 96.8832 256.982055 
L 97.24032 257.73868 
L 97.59744 254.565283 
L 97.95456 255.291644 
L 98.31168 254.770495 
L 98.6688 256.198856 
L 99.02592 255.845272 
L 99.38304 255.122233 
L 99.74016 253.887274 
L 100.09728 252.224913 
L 100.4544 252.028928 
L 100.81152 252.529777 
L 101.16864 250.895098 
L 101.52576 251.31807 
L 101.88288 252.198708 
L 102.24 252.767468 
L 102.95424 251.927061 
L 103.31136 248.69092 
L 103.66848 248.989141 
L 104.0256 249.112784 
L 104.38272 248.418166 
L 104.73984 247.333054 
L 105.09696 247.110127 
L 105.45408 247.910304 
L 105.8112 247.650099 
L 106.16832 246.288174 
L 106.52544 246.16453 
L 106.88256 248.083774 
L 107.23968 246.387088 
L 107.5968 246.780164 
L 107.95392 244.163718 
L 108.31104 244.523576 
L 108.66816 244.298803 
L 109.02528 245.10304 
L 109.3824 243.420749 
L 109.73952 242.776326 
L 110.09664 241.869483 
L 110.45376 242.989657 
L 110.81088 243.560263 
L 111.168 242.484748 
L 111.52512 243.490506 
L 111.88224 240.536346 
L 112.23936 243.117361 
L 112.59648 239.788579 
L 112.9536 240.730116 
L 113.31072 240.906539 
L 113.66784 241.698227 
L 114.02496 237.667076 
L 114.38208 239.829178 
L 114.7392 240.481352 
L 115.09632 240.143639 
L 115.45344 237.625738 
L 115.81056 239.110569 
L 116.16768 235.372841 
L 116.5248 238.742591 
L 116.88192 237.007151 
L 117.23904 234.240856 
L 117.59616 236.28522 
L 117.95328 234.983087 
L 118.3104 234.398824 
L 118.66752 233.388269 
L 119.02464 234.071446 
L 119.38176 234.503645 
L 119.73888 232.328255 
L 120.096 233.703837 
L 120.45312 232.22122 
L 120.81024 234.667519 
L 121.16736 230.279462 
L 122.23872 232.728344 
L 122.59584 230.606841 
L 122.95296 230.93385 
L 123.31008 230.565134 
L 123.6672 230.415654 
L 124.02432 227.995561 
L 124.38144 229.399193 
L 124.73856 227.785921 
L 125.09568 230.734544 
L 125.4528 225.932743 
L 125.80992 227.74569 
L 126.16704 228.73853 
L 126.52416 229.336449 
L 126.88128 227.854202 
L 127.2384 228.365016 
L 127.59552 224.828808 
L 127.95264 223.677631 
L 128.30976 227.756394 
L 128.66688 223.947432 
L 129.024 224.113152 
L 129.38112 225.717566 
L 129.73824 223.568012 
L 130.09536 224.757575 
L 130.45248 223.985448 
L 130.8096 222.764513 
L 131.16672 224.931045 
L 131.52384 220.415285 
L 131.88096 219.416539 
L 132.23808 220.393878 
L 132.5952 223.09263 
L 132.95232 219.164823 
L 133.30944 221.945144 
L 133.66656 217.810649 
L 134.02368 220.606471 
L 134.3808 218.64958 
L 134.73792 217.939091 
L 135.09504 220.549632 
L 135.45216 220.484304 
L 135.80928 220.302714 
L 136.1664 216.456474 
L 136.52352 217.054762 
L 136.88064 219.021249 
L 137.59488 213.502684 
L 137.952 216.826298 
L 138.30912 213.105917 
L 138.66624 215.338145 
L 139.02336 212.644929 
L 139.38048 212.611342 
L 139.7376 214.048192 
L 140.09472 211.76466 
L 140.45184 215.434846 
L 140.80896 211.608906 
L 141.16608 213.357264 
L 141.5232 212.482531 
L 141.88032 212.774109 
L 142.59456 210.010028 
L 142.95168 210.162091 
L 143.3088 207.936875 
L 143.66592 210.323013 
L 144.02304 206.810427 
L 144.38016 209.970905 
L 144.73728 208.741112 
L 145.0944 206.447246 
L 145.45152 205.154709 
L 145.80864 208.991352 
L 146.16576 204.730999 
L 146.52288 207.657478 
L 146.88 204.261153 
L 147.23712 207.189108 
L 147.59424 206.588606 
L 147.95136 206.933701 
L 148.30848 205.105621 
L 148.6656 207.482531 
L 149.02272 201.467915 
L 149.37984 201.185565 
L 149.73696 204.516561 
L 150.09408 206.243511 
L 150.4512 200.127397 
L 150.80832 205.423773 
L 151.16544 204.454554 
L 151.52256 200.748936 
L 151.87968 198.62079 
L 152.2368 199.368557 
L 152.59392 202.110862 
L 152.95104 201.917092 
L 153.30816 201.052694 
L 153.66528 200.775511 
L 154.0224 198.845563 
L 154.37952 201.825928 
L 154.73664 197.916206 
L 155.09376 195.376898 
L 155.45088 195.730851 
L 155.808 198.264253 
L 156.52224 200.16652 
L 156.87936 199.016819 
L 157.23648 199.454185 
L 157.5936 198.877304 
L 157.95072 193.97179 
L 158.30784 197.288391 
L 158.66496 192.413142 
L 159.02208 192.480315 
L 159.3792 193.125108 
L 159.73632 196.377858 
L 160.09344 193.79832 
L 160.45056 192.282117 
L 160.80768 196.312899 
L 161.1648 196.223211 
L 161.52192 194.759418 
L 162.23616 188.962562 
L 162.59328 187.815445 
L 162.9504 187.798467 
L 163.30752 193.886531 
L 163.66464 186.889409 
L 164.02176 192.781858 
L 164.37888 189.446433 
L 164.736 188.238048 
L 165.09312 186.417349 
L 165.45024 191.414028 
L 165.80736 191.373428 
L 166.16448 188.994673 
L 166.5216 185.727528 
L 166.87872 186.599677 
L 167.23584 190.446655 
L 167.59296 188.54365 
L 167.95008 182.742365 
L 168.3072 183.137287 
L 168.66432 188.197448 
L 169.02144 183.812713 
L 169.37856 185.556273 
L 169.73568 184.89561 
L 170.0928 180.643746 
L 170.44992 179.674158 
L 170.80704 182.852722 
L 171.16416 180.507922 
L 171.52128 182.601375 
L 171.8784 177.939088 
L 172.23552 179.818102 
L 172.59264 177.152197 
L 172.94976 181.607059 
L 173.30688 181.487475 
L 173.664 183.577975 
L 174.02112 183.493823 
L 174.37824 176.948093 
L 174.73536 176.872431 
L 175.09248 181.533242 
L 175.4496 179.787467 
L 175.80672 179.701101 
L 176.16384 174.57229 
L 176.52096 181.528443 
L 176.87808 174.419858 
L 177.2352 175.18165 
L 177.59232 177.59916 
L 177.94944 171.596723 
L 178.30656 172.572954 
L 178.66368 176.806364 
L 179.0208 174.900407 
L 179.37792 170.535972 
L 179.73504 174.939899 
L 180.09216 175.711657 
L 180.44928 171.415503 
L 180.8064 173.861432 
L 181.16352 170.709811 
L 181.52064 174.131602 
L 181.87776 167.927645 
L 182.23488 170.111893 
L 182.592 175.430045 
L 182.94912 172.746425 
L 183.30624 174.13271 
L 183.66336 169.24528 
L 184.02048 168.794996 
L 184.3776 170.206379 
L 184.73472 165.106356 
L 185.09184 164.656072 
L 185.44896 169.200252 
L 185.80608 163.782078 
L 186.1632 168.362428 
L 186.52032 171.505928 
L 186.87744 168.729668 
L 187.23456 170.54483 
L 187.9488 165.790271 
L 188.30592 167.741257 
L 188.66304 162.213834 
L 189.02016 163.931926 
L 189.37728 168.912365 
L 189.7344 166.034975 
L 190.09152 165.176113 
L 190.44864 167.486219 
L 190.80576 158.863276 
L 191.16288 164.438312 
L 191.87712 159.344933 
L 192.23424 161.60189 
L 192.59136 162.417938 
L 192.94848 164.013494 
L 193.3056 164.676741 
L 193.66272 159.508068 
L 194.01984 164.331646 
L 194.37696 157.169912 
L 194.73408 157.611338 
L 195.0912 155.043242 
L 195.44832 153.979168 
L 195.80544 158.99098 
L 196.16256 161.915243 
L 196.51968 152.585133 
L 196.8768 159.804075 
L 197.23392 160.283517 
L 197.59104 152.189104 
L 197.94816 160.778091 
L 198.30528 155.304185 
L 198.6624 159.743914 
L 199.01952 153.649575 
L 199.37664 156.490426 
L 199.73376 151.070037 
L 200.09088 157.747162 
L 200.448 152.616136 
L 200.80512 150.579523 
L 201.51936 156.45647 
L 201.87648 147.039993 
L 202.2336 152.960124 
L 202.59072 154.862759 
L 202.94784 146.229482 
L 203.30496 150.341832 
L 203.66208 152.84866 
L 204.0192 147.870066 
L 204.37632 149.760522 
L 204.73344 149.096168 
L 205.09056 151.012829 
L 205.44768 149.688919 
L 205.8048 149.550143 
L 206.16192 149.982342 
L 206.51904 147.078378 
L 206.87616 149.972008 
L 207.23328 150.272813 
L 207.94752 143.497511 
L 208.30464 145.817582 
L 208.66176 139.779345 
L 209.01888 149.357112 
L 209.376 145.410112 
L 209.73312 147.708407 
L 210.09024 138.446946 
L 210.44736 148.063467 
L 210.80448 139.915537 
L 211.1616 145.917604 
L 211.51872 140.279824 
L 211.87584 144.249338 
L 212.23296 140.307137 
L 212.59008 138.591259 
L 212.9472 136.205859 
L 213.30432 144.80555 
L 214.01856 144.701099 
L 214.37568 145.115951 
L 214.7328 135.985146 
L 215.08992 133.183788 
L 215.44704 139.632449 
L 215.80416 142.987066 
L 216.5184 134.019028 
L 216.87552 134.750187 
L 217.23264 133.107018 
L 217.58976 134.571918 
L 218.304 140.060219 
L 218.66112 131.243137 
L 219.01824 136.56498 
L 219.37536 132.608015 
L 219.73248 133.878038 
L 220.0896 130.876266 
L 220.44672 129.877521 
L 220.80384 137.329725 
L 221.51808 134.252659 
L 221.8752 126.900478 
L 222.23232 127.402803 
L 222.58944 132.814333 
L 222.94656 134.339394 
L 223.30368 128.644037 
L 223.6608 135.780304 
L 224.01792 126.009136 
L 224.37504 124.643151 
L 224.73216 125.135142 
L 225.08928 131.628462 
L 225.4464 134.484076 
L 225.80352 123.761037 
L 226.16064 122.541948 
L 226.51776 130.875528 
L 226.87488 132.278052 
L 227.58912 132.375122 
L 227.94624 128.248378 
L 228.30336 119.635031 
L 228.66048 119.179579 
L 229.0176 126.152341 
L 229.73184 123.254283 
L 230.08896 123.219588 
L 230.44608 126.371947 
L 230.8032 126.839578 
L 231.16032 127.9568 
L 231.51744 128.527406 
L 231.87456 124.976804 
L 232.23168 129.26041 
L 232.5888 128.333267 
L 232.94592 121.793073 
L 233.30304 123.453589 
L 233.66016 120.675483 
L 234.01728 125.667732 
L 234.3744 123.956283 
L 234.73152 116.642486 
L 235.08864 119.908154 
L 235.44576 119.486289 
L 235.80288 121.789752 
L 236.51712 115.995479 
L 236.87424 123.780967 
L 237.23136 118.247639 
L 237.58848 121.145697 
L 237.9456 117.275837 
L 238.30272 117.284326 
L 238.65984 117.991862 
L 239.01696 125.555899 
L 239.37408 126.018732 
L 239.7312 121.335776 
L 240.08832 125.863717 
L 240.44544 118.200027 
L 240.80256 113.410036 
L 241.15968 115.067968 
L 241.5168 118.098528 
L 242.23104 112.833524 
L 242.58816 121.38671 
L 242.94528 113.316657 
L 243.3024 116.219145 
L 243.65952 123.898337 
L 244.01664 115.141785 
L 244.37376 113.816399 
L 245.088 120.348104 
L 245.44512 114.105024 
L 245.80224 111.587123 
L 246.15936 117.797354 
L 246.51648 111.796394 
L 246.8736 111.37047 
L 247.94496 120.795804 
L 248.30208 119.610671 
L 249.01632 114.032683 
L 249.37344 121.181499 
L 249.73056 121.690098 
L 250.08768 111.260482 
L 250.4448 116.675335 
L 250.80192 114.802964 
L 251.15904 109.970529 
L 251.51616 110.408633 
L 251.87328 119.761258 
L 252.2304 120.641896 
L 252.58752 113.463184 
L 252.94464 115.471009 
L 253.65888 110.442589 
L 254.016 110.293848 
L 254.37312 115.391656 
L 254.73024 112.6619 
L 255.08736 107.70988 
L 255.44448 117.377704 
L 255.8016 112.422363 
L 256.15872 115.55922 
L 256.51584 112.846811 
L 256.87296 107.320864 
L 257.23008 108.697553 
L 257.5872 109.200986 
L 257.94432 106.330608 
L 258.30144 105.982561 
L 258.65856 114.643519 
L 259.01568 113.423323 
L 259.3728 116.879808 
L 259.72992 109.124216 
L 260.08704 116.881653 
L 260.44416 117.290969 
L 260.80128 106.817801 
L 261.1584 109.695929 
L 261.51552 116.970603 
L 261.87264 109.328689 
L 262.22976 112.364048 
L 262.58688 109.015705 
L 263.30112 114.160387 
L 263.65824 113.82009 
L 264.01536 107.381394 
L 264.37248 115.671791 
L 264.7296 108.551395 
L 265.08672 114.157803 
L 265.44384 114.196188 
L 265.80096 105.086421 
L 266.5152 112.026335 
L 266.87232 106.511829 
L 267.22944 106.356444 
L 267.58656 108.805695 
L 267.94368 108.747749 
L 268.3008 111.067081 
L 268.65792 104.608455 
L 269.01504 113.268676 
L 269.72928 102.562246 
L 270.0864 113.668396 
L 270.44352 110.491308 
L 270.80064 109.836182 
L 271.15776 112.432698 
L 271.51488 101.851018 
L 271.872 106.184081 
L 272.22912 105.073503 
L 272.58624 111.786798 
L 273.30048 102.886672 
L 273.6576 112.512051 
L 274.01472 99.638351 
L 274.37184 99.881947 
L 274.72896 107.641231 
L 275.08608 109.296579 
L 275.4432 103.263139 
L 275.80032 106.159722 
L 276.15744 107.004189 
L 276.51456 108.402654 
L 276.87168 100.873311 
L 277.2288 110.542242 
L 277.58592 111.545785 
L 277.94304 99.196925 
L 278.30016 100.374676 
L 278.65728 106.090334 
L 279.0144 97.64123 
L 279.37152 110.671053 
L 279.72864 108.233244 
L 280.08576 103.552502 
L 280.44288 110.392393 
L 280.8 99.159647 
L 281.15712 110.300122 
L 281.51424 109.250074 
L 281.87136 100.437052 
L 282.22848 109.199878 
L 282.5856 103.911991 
L 282.94272 104.044862 
L 283.29984 102.232653 
L 283.65696 102.14075 
L 284.01408 105.596128 
L 284.3712 100.822008 
L 284.72832 102.078006 
L 285.08544 106.102882 
L 285.44256 100.308241 
L 285.79968 101.539141 
L 286.1568 98.324038 
L 286.51392 97.344485 
L 286.87104 101.170056 
L 287.22816 94.705155 
L 287.58528 97.066933 
L 288.29952 105.956725 
L 288.65664 97.328614 
L 289.01376 103.096682 
L 289.37088 101.579371 
L 289.728 104.94949 
L 290.08512 103.956282 
L 290.44224 93.838173 
L 291.15648 99.991197 
L 291.5136 103.131376 
L 291.87072 98.279378 
L 292.22784 102.989278 
L 292.58496 92.788864 
L 292.94208 98.913467 
L 293.2992 95.816102 
L 293.65632 103.635546 
L 294.01344 94.781187 
L 294.37056 95.192348 
L 294.72768 98.865486 
L 295.0848 105.120008 
L 295.44192 91.389661 
L 296.15616 100.645216 
L 296.51328 97.590665 
L 296.8704 100.14732 
L 297.22752 93.856259 
L 297.58464 91.61185 
L 298.29888 97.250737 
L 298.656 91.864674 
L 299.01312 102.126725 
L 299.37024 100.862977 
L 299.72736 98.890215 
L 300.08448 92.597308 
L 300.4416 89.432401 
L 301.15584 98.93672 
L 301.51296 90.992525 
L 301.87008 90.050988 
L 302.2272 99.141193 
L 302.58432 95.665515 
L 302.94144 89.630969 
L 303.29856 102.559293 
L 303.65568 99.806654 
L 304.0128 93.502306 
L 304.36992 100.637096 
L 304.72704 92.563721 
L 305.08416 101.835148 
L 305.44128 92.426053 
L 305.7984 89.702202 
L 306.15552 100.142891 
L 306.51264 92.892577 
L 306.86976 99.957979 
L 307.584 92.690318 
L 307.94112 92.44746 
L 308.29824 95.223351 
L 308.65536 99.54202 
L 309.3696 88.745533 
L 309.72672 100.516774 
L 310.08384 86.845481 
L 310.44096 86.893831 
L 310.79808 91.931478 
L 311.1552 88.921217 
L 311.51232 99.300269 
L 311.86944 94.182899 
L 312.22656 86.286316 
L 312.58368 88.388258 
L 312.9408 94.761256 
L 313.29792 91.181497 
L 313.65504 92.980419 
L 314.01216 85.755572 
L 314.36928 85.569922 
L 314.7264 95.369509 
L 315.08352 90.90579 
L 315.44064 89.03305 
L 315.79776 96.522532 
L 316.15488 95.141414 
L 316.512 84.97717 
L 316.86912 84.643517 
L 317.22624 91.464954 
L 317.58336 96.047519 
L 317.94048 94.990827 
L 318.2976 97.450044 
L 319.01184 83.608233 
L 319.36896 87.200541 
L 319.72608 89.109082 
L 320.0832 87.223793 
L 320.44032 92.0518 
L 320.79744 87.892207 
L 321.15456 87.695485 
L 321.51168 92.892577 
L 321.8688 85.098969 
L 322.22592 91.755793 
L 322.58304 95.32891 
L 322.94016 84.625801 
L 323.29728 86.231323 
L 323.6544 92.198696 
L 324.01152 86.289269 
L 324.36864 87.763765 
L 324.72576 90.143997 
L 325.08288 81.782736 
L 325.44 89.334224 
L 325.79712 83.769523 
L 326.15424 85.323373 
L 326.51136 94.929559 
L 326.86848 88.074535 
L 327.2256 91.796762 
L 327.58272 93.526296 
L 327.93984 89.7476 
L 328.29696 91.463109 
L 328.65408 84.193971 
L 329.0112 92.247415 
L 329.36832 92.37475 
L 329.72544 87.234866 
L 330.08256 86.509613 
L 330.43968 79.202829 
L 330.7968 93.207776 
L 331.15392 89.13824 
L 331.51104 88.83928 
L 331.86816 89.835442 
L 332.22528 87.540469 
L 332.5824 81.873531 
L 332.93952 84.576713 
L 333.29664 90.534859 
L 333.65376 82.569257 
L 334.01088 86.974661 
L 334.368 88.541059 
L 334.72512 78.893904 
L 335.08224 87.913245 
L 335.79648 78.227705 
L 336.1536 90.681755 
L 336.51072 90.660717 
L 337.22496 79.161491 
L 337.9392 86.612219 
L 338.29632 88.097788 
L 338.65344 85.659978 
L 339.01056 87.409074 
L 339.36768 86.632888 
L 339.7248 81.955468 
L 340.08192 80.219659 
L 340.43904 77.092767 
L 340.79616 81.097713 
L 341.15328 80.054678 
L 341.5104 86.694156 
L 341.86752 89.644256 
L 342.22464 75.139936 
L 342.58176 84.467094 
L 342.93888 87.002711 
L 343.296 88.441037 
L 343.65312 78.667286 
L 344.01024 78.876926 
L 344.36736 84.071066 
L 344.72448 85.620486 
L 345.0816 83.985438 
L 345.43872 78.585349 
L 345.79584 82.717629 
L 346.15296 84.114618 
L 346.51008 80.669205 
L 346.8672 85.978499 
L 347.22432 76.184817 
L 347.58144 86.848803 
L 347.93856 72.940556 
L 348.29568 86.332083 
L 348.6528 82.440446 
L 349.00992 80.077561 
L 349.36704 74.067374 
L 350.08128 83.370911 
L 350.4384 82.680352 
L 350.79552 73.195963 
L 351.15264 78.569109 
L 351.50976 73.387888 
L 351.86688 83.335478 
L 352.224 79.70663 
L 352.58112 81.794916 
L 352.93824 85.850796 
L 353.29536 73.141339 
L 353.65248 75.544823 
L 354.0096 83.179355 
L 354.36672 73.773951 
L 354.72384 84.032312 
L 355.08096 77.425682 
L 355.7952 82.017105 
L 356.50944 74.923652 
L 356.86656 83.302261 
L 357.22368 83.020279 
L 357.5808 84.542388 
L 357.93792 81.251622 
L 358.29504 81.428045 
L 358.65216 73.2982 
L 359.3664 83.704933 
L 359.72352 71.277457 
L 360.08064 83.729293 
L 360.43776 78.615983 
L 360.79488 83.245422 
L 361.152 69.329793 
L 361.50912 75.805766 
L 361.86624 72.128568 
L 362.22336 72.159941 
L 362.58048 69.816617 
L 362.9376 81.457941 
L 363.29472 70.277236 
L 363.65184 71.026848 
L 364.00896 69.094317 
L 364.7232 83.418523 
L 365.08032 73.971781 
L 365.43744 78.37497 
L 365.79456 70.357696 
L 366.15168 81.860982 
L 366.5088 77.956796 
L 366.86592 81.922619 
L 367.93728 68.647724 
L 368.2944 81.904534 
L 368.65152 81.863935 
L 369.00864 70.228147 
L 369.36576 71.147908 
L 370.08 81.68825 
L 370.43712 71.722205 
L 370.79424 72.758228 
L 371.15136 81.408483 
L 371.50848 75.979237 
L 371.8656 66.218034 
L 372.22272 74.312816 
L 372.57984 78.941147 
L 372.93696 73.177509 
L 373.29408 76.095499 
L 373.6512 65.17869 
L 374.00832 72.613547 
L 374.36544 65.346254 
L 374.72256 80.09823 
L 375.07968 77.595093 
L 375.4368 64.220544 
L 375.79392 75.455135 
L 376.15104 79.409886 
L 376.50816 65.43262 
L 376.86528 75.920552 
L 377.2224 74.612882 
L 377.57952 65.250661 
L 377.93664 79.563056 
L 378.29376 71.676439 
L 378.65088 77.484736 
L 379.008 67.634215 
L 379.36512 71.880912 
L 380.07936 63.981746 
L 380.43648 70.535965 
L 380.7936 65.839352 
L 381.15072 63.639234 
L 381.50784 66.359763 
L 381.86496 64.452699 
L 382.22208 67.684041 
L 382.5792 74.963513 
L 382.93632 72.943509 
L 383.29344 66.725896 
L 383.65056 71.260479 
L 384.00768 62.887038 
L 384.3648 72.151821 
L 384.72192 63.032458 
L 385.07904 77.202386 
L 385.43616 63.425534 
L 385.79328 63.614136 
L 386.1504 72.984108 
L 386.50752 63.252064 
L 386.86464 74.293993 
L 387.22176 73.69792 
L 387.57888 60.623806 
L 387.936 66.419924 
L 388.29312 69.630967 
L 388.65024 61.604835 
L 389.00736 63.033934 
L 389.36448 70.791372 
L 390.07872 71.694524 
L 390.43584 72.833521 
L 390.79296 63.298199 
L 391.15008 67.498022 
L 391.5072 61.944394 
L 391.86432 66.89346 
L 392.57856 64.497358 
L 392.93568 71.247192 
L 393.2928 65.899513 
L 394.00704 71.309568 
L 394.36416 62.812852 
L 394.72128 64.687806 
L 395.0784 65.96558 
L 395.43552 73.687216 
L 395.79264 63.11218 
L 396.14976 71.589704 
L 396.50688 64.654957 
L 396.864 67.637537 
L 397.22112 65.65075 
L 397.57824 62.376962 
L 397.93536 70.472851 
L 398.29248 66.864672 
L 398.6496 65.242172 
L 399.00672 59.271108 
L 399.36384 68.91974 
L 400.07808 59.142297 
L 400.4352 70.144365 
L 400.79232 71.821489 
L 401.14944 57.120078 
L 401.50656 56.528803 
L 401.86368 68.372017 
L 402.2208 69.027882 
L 402.57792 68.576121 
L 402.93504 61.117273 
L 403.29216 64.915163 
L 403.64928 70.751141 
L 404.0064 65.689873 
L 404.36352 69.427601 
L 404.72064 55.824219 
L 405.07776 69.905198 
L 405.43488 58.312962 
L 405.792 58.648461 
L 406.14912 59.355629 
L 406.50624 66.729587 
L 406.86336 58.712682 
L 407.22048 55.941958 
L 407.5776 64.08472 
L 407.93472 56.547258 
L 408.29184 65.559955 
L 408.64896 54.514335 
L 409.00608 69.780447 
L 409.3632 55.967424 
L 409.72032 64.352307 
L 410.07744 64.406194 
L 410.43456 62.27288 
L 410.79168 63.31001 
L 411.1488 69.21833 
L 411.50592 57.424943 
L 411.86304 69.48444 
L 412.22016 61.096605 
L 412.57728 66.164886 
L 412.9344 58.057924 
L 413.29152 53.568 
L 414.00576 60.838614 
L 414.36288 60.824958 
L 414.72 65.310453 
L 414.72 65.310453 
" style="fill:none;stroke:#000080;stroke-linecap:square;stroke-width:0.5;"/>
   </g>
   <g id="patch_3">
    <path d="M 57.6 307.584 
L 57.6 41.472 
" style="fill:none;stroke:#000000;stroke-linecap:square;stroke-linejoin:miter;stroke-width:0.8;"/>
   </g>
   <g id="patch_4">
    <path d="M 414.72 307.584 
L 414.72 41.472 
" style="fill:none;stroke:#000000;stroke-linecap:square;stroke-linejoin:miter;stroke-width:0.8;"/>
   </g>
   <g id="patch_5">
    <path d="M 57.6 307.584 
L 414.72 307.584 
" style="fill:none;stroke:#000000;stroke-linecap:square;stroke-linejoin:miter;stroke-width:0.8;"/>
   </g>
   <g id="patch_6">
    <path d="M 57.6 41.472 
L 414.72 41.472 
" style="fill:none;stroke:#000000;stroke-linecap:square;stroke-linejoin:miter;stroke-width:0.8;"/>
   </g>
   <g id="text_16">
    <!-- Test -->
    <defs>
     <path d="M -0.296875 72.90625 
L 61.375 72.90625 
L 61.375 64.59375 
L 35.5 64.59375 
L 35.5 0 
L 25.59375 0 
L 25.59375 64.59375 
L -0.296875 64.59375 
z
" id="DejaVuSans-54"/>
    </defs>
    <g transform="translate(223.341563 35.472)scale(0.12 -0.12)">
     <use xlink:href="#DejaVuSans-54"/>
     <use x="60.818359" xlink:href="#DejaVuSans-65"/>
     <use x="122.341797" xlink:href="#DejaVuSans-73"/>
     <use x="174.441406" xlink:href="#DejaVuSans-74"/>
    </g>
   </g>
   <g id="legend_1">
    <g id="patch_7">
     <path d="M 64.6 64.150125 
L 306.276563 64.150125 
Q 308.276563 64.150125 308.276563 62.150125 
L 308.276563 48.472 
Q 308.276563 46.472 306.276563 46.472 
L 64.6 46.472 
Q 62.6 46.472 62.6 48.472 
L 62.6 62.150125 
Q 62.6 64.150125 64.6 64.150125 
z
" style="fill:#ffffff;opacity:0.8;stroke:#cccccc;stroke-linejoin:miter;"/>
    </g>
    <g id="line2d_28">
     <path d="M 66.6 54.570438 
L 86.6 54.570438 
" style="fill:none;stroke:#000080;stroke-linecap:square;stroke-width:0.5;"/>
    </g>
    <g id="line2d_29"/>
    <g id="text_17">
     <!-- Successful download requests per second -->
     <g transform="translate(94.6 58.070438)scale(0.1 -0.1)">
      <use xlink:href="#DejaVuSans-53"/>
      <use x="63.476562" xlink:href="#DejaVuSans-75"/>
      <use x="126.855469" xlink:href="#DejaVuSans-63"/>
      <use x="181.835938" xlink:href="#DejaVuSans-63"/>
      <use x="236.816406" xlink:href="#DejaVuSans-65"/>
      <use x="298.339844" xlink:href="#DejaVuSans-73"/>
      <use x="350.439453" xlink:href="#DejaVuSans-73"/>
      <use x="402.539062" xlink:href="#DejaVuSans-66"/>
      <use x="437.744141" xlink:href="#DejaVuSans-75"/>
      <use x="501.123047" xlink:href="#DejaVuSans-6c"/>
      <use x="528.90625" xlink:href="#DejaVuSans-20"/>
      <use x="560.693359" xlink:href="#DejaVuSans-64"/>
      <use x="624.169922" xlink:href="#DejaVuSans-6f"/>
      <use x="685.351562" xlink:href="#DejaVuSans-77"/>
      <use x="767.138672" xlink:href="#DejaVuSans-6e"/>
      <use x="830.517578" xlink:href="#DejaVuSans-6c"/>
      <use x="858.300781" xlink:href="#DejaVuSans-6f"/>
      <use x="919.482422" xlink:href="#DejaVuSans-61"/>
      <use x="980.761719" xlink:href="#DejaVuSans-64"/>
      <use x="1044.238281" xlink:href="#DejaVuSans-20"/>
      <use x="1076.025391" xlink:href="#DejaVuSans-72"/>
      <use x="1117.107422" xlink:href="#DejaVuSans-65"/>
      <use x="1178.630859" xlink:href="#DejaVuSans-71"/>
      <use x="1242.107422" xlink:href="#DejaVuSans-75"/>
      <use x="1305.486328" xlink:href="#DejaVuSans-65"/>
      <use x="1367.009766" xlink:href="#DejaVuSans-73"/>
      <use x="1419.109375" xlink:href="#DejaVuSans-74"/>
      <use x="1458.318359" xlink:href="#DejaVuSans-73"/>
      <use x="1510.417969" xlink:href="#DejaVuSans-20"/>
      <use x="1542.205078" xlink:href="#DejaVuSans-70"/>
      <use x="1605.681641" xlink:href="#DejaVuSans-65"/>
      <use x="1667.205078" xlink:href="#DejaVuSans-72"/>
      <use x="1708.318359" xlink:href="#DejaVuSans-20"/>
      <use x="1740.105469" xlink:href="#DejaVuSans-73"/>
      <use x="1792.205078" xlink:href="#DejaVuSans-65"/>
      <use x="1853.728516" xlink:href="#DejaVuSans-63"/>
      <use x="1908.708984" xlink:href="#DejaVuSans-6f"/>
      <use x="1969.890625" xlink:href="#DejaVuSans-6e"/>
      <use x="2033.269531" xlink:href="#DejaVuSans-64"/>
     </g>
    </g>
   </g>
  </g>
 </g>
 <defs>
  <clipPath id="p347c2eab4e">
   <rect height="266.112" width="357.12" x="57.6" y="41.472"/>
  </clipPath>
 </defs>
</svg>
