<?xml version="1.0" encoding="utf-8" standalone="no"?>
<!DOCTYPE svg PUBLIC "-//W3C//DTD SVG 1.1//EN"
  "http://www.w3.org/Graphics/SVG/1.1/DTD/svg11.dtd">
<!-- Created with matplotlib (http://matplotlib.org/) -->
<svg height="345pt" version="1.1" viewBox="0 0 460 345" width="460pt" xmlns="http://www.w3.org/2000/svg" xmlns:xlink="http://www.w3.org/1999/xlink">
 <defs>
  <style type="text/css">
*{stroke-linecap:butt;stroke-linejoin:round;}
  </style>
 </defs>
 <g id="figure_1">
  <g id="patch_1">
   <path d="M 0 345.6 
L 460.8 345.6 
L 460.8 0 
L 0 0 
z
" style="fill:#ffffff;"/>
  </g>
  <g id="axes_1">
   <g id="patch_2">
    <path d="M 57.6 307.584 
L 414.72 307.584 
L 414.72 41.472 
L 57.6 41.472 
z
" style="fill:#ffffff;"/>
   </g>
   <g id="matplotlib.axis_1">
    <g id="xtick_1">
     <g id="line2d_1">
      <path clip-path="url(#pfe7cf1fcb7)" d="M 57.6 307.584 
L 57.6 41.472 
" style="fill:none;stroke:#b0b0b0;stroke-linecap:square;stroke-width:0.8;"/>
     </g>
     <g id="line2d_2">
      <defs>
       <path d="M 0 0 
L 0 3.5 
" id="m7610d1b620" style="stroke:#000000;stroke-width:0.8;"/>
      </defs>
      <g>
       <use style="stroke:#000000;stroke-width:0.8;" x="57.6" xlink:href="#m7610d1b620" y="307.584"/>
      </g>
     </g>
     <g id="text_1">
      <!-- 0 -->
      <defs>
       <path d="M 31.78125 66.40625 
Q 24.171875 66.40625 20.328125 58.90625 
Q 16.5 51.421875 16.5 36.375 
Q 16.5 21.390625 20.328125 13.890625 
Q 24.171875 6.390625 31.78125 6.390625 
Q 39.453125 6.390625 43.28125 13.890625 
Q 47.125 21.390625 47.125 36.375 
Q 47.125 51.421875 43.28125 58.90625 
Q 39.453125 66.40625 31.78125 66.40625 
M 31.78125 74.21875 
Q 44.046875 74.21875 50.515625 64.515625 
Q 56.984375 54.828125 56.984375 36.375 
Q 56.984375 17.96875 50.515625 8.265625 
Q 44.046875 -1.421875 31.78125 -1.421875 
Q 19.53125 -1.421875 13.0625 8.265625 
Q 6.59375 17.96875 6.59375 36.375 
Q 6.59375 54.828125 13.0625 64.515625 
Q 19.53125 74.21875 31.78125 74.21875 
" id="DejaVuSans-30"/>
      </defs>
      <g transform="translate(54.41875 322.182437)scale(0.1 -0.1)">
       <use xlink:href="#DejaVuSans-30"/>
      </g>
     </g>
    </g>
    <g id="xtick_2">
     <g id="line2d_3">
      <path clip-path="url(#pfe7cf1fcb7)" d="M 129.024 307.584 
L 129.024 41.472 
" style="fill:none;stroke:#b0b0b0;stroke-linecap:square;stroke-width:0.8;"/>
     </g>
     <g id="line2d_4">
      <g>
       <use style="stroke:#000000;stroke-width:0.8;" x="129.024" xlink:href="#m7610d1b620" y="307.584"/>
      </g>
     </g>
     <g id="text_2">
      <!-- 200 -->
      <defs>
       <path d="M 19.1875 8.296875 
L 53.609375 8.296875 
L 53.609375 0 
L 7.328125 0 
L 7.328125 8.296875 
Q 12.9375 14.109375 22.625 23.890625 
Q 32.328125 33.6875 34.8125 36.53125 
Q 39.546875 41.84375 41.421875 45.53125 
Q 43.3125 49.21875 43.3125 52.78125 
Q 43.3125 58.59375 39.234375 62.25 
Q 35.15625 65.921875 28.609375 65.921875 
Q 23.96875 65.921875 18.8125 64.3125 
Q 13.671875 62.703125 7.8125 59.421875 
L 7.8125 69.390625 
Q 13.765625 71.78125 18.9375 73 
Q 24.125 74.21875 28.421875 74.21875 
Q 39.75 74.21875 46.484375 68.546875 
Q 53.21875 62.890625 53.21875 53.421875 
Q 53.21875 48.921875 51.53125 44.890625 
Q 49.859375 40.875 45.40625 35.40625 
Q 44.1875 33.984375 37.640625 27.21875 
Q 31.109375 20.453125 19.1875 8.296875 
" id="DejaVuSans-32"/>
      </defs>
      <g transform="translate(119.48025 322.182437)scale(0.1 -0.1)">
       <use xlink:href="#DejaVuSans-32"/>
       <use x="63.623047" xlink:href="#DejaVuSans-30"/>
       <use x="127.246094" xlink:href="#DejaVuSans-30"/>
      </g>
     </g>
    </g>
    <g id="xtick_3">
     <g id="line2d_5">
      <path clip-path="url(#pfe7cf1fcb7)" d="M 200.448 307.584 
L 200.448 41.472 
" style="fill:none;stroke:#b0b0b0;stroke-linecap:square;stroke-width:0.8;"/>
     </g>
     <g id="line2d_6">
      <g>
       <use style="stroke:#000000;stroke-width:0.8;" x="200.448" xlink:href="#m7610d1b620" y="307.584"/>
      </g>
     </g>
     <g id="text_3">
      <!-- 400 -->
      <defs>
       <path d="M 37.796875 64.3125 
L 12.890625 25.390625 
L 37.796875 25.390625 
z
M 35.203125 72.90625 
L 47.609375 72.90625 
L 47.609375 25.390625 
L 58.015625 25.390625 
L 58.015625 17.1875 
L 47.609375 17.1875 
L 47.609375 0 
L 37.796875 0 
L 37.796875 17.1875 
L 4.890625 17.1875 
L 4.890625 26.703125 
z
" id="DejaVuSans-34"/>
      </defs>
      <g transform="translate(190.90425 322.182437)scale(0.1 -0.1)">
       <use xlink:href="#DejaVuSans-34"/>
       <use x="63.623047" xlink:href="#DejaVuSans-30"/>
       <use x="127.246094" xlink:href="#DejaVuSans-30"/>
      </g>
     </g>
    </g>
    <g id="xtick_4">
     <g id="line2d_7">
      <path clip-path="url(#pfe7cf1fcb7)" d="M 271.872 307.584 
L 271.872 41.472 
" style="fill:none;stroke:#b0b0b0;stroke-linecap:square;stroke-width:0.8;"/>
     </g>
     <g id="line2d_8">
      <g>
       <use style="stroke:#000000;stroke-width:0.8;" x="271.872" xlink:href="#m7610d1b620" y="307.584"/>
      </g>
     </g>
     <g id="text_4">
      <!-- 600 -->
      <defs>
       <path d="M 33.015625 40.375 
Q 26.375 40.375 22.484375 35.828125 
Q 18.609375 31.296875 18.609375 23.390625 
Q 18.609375 15.53125 22.484375 10.953125 
Q 26.375 6.390625 33.015625 6.390625 
Q 39.65625 6.390625 43.53125 10.953125 
Q 47.40625 15.53125 47.40625 23.390625 
Q 47.40625 31.296875 43.53125 35.828125 
Q 39.65625 40.375 33.015625 40.375 
M 52.59375 71.296875 
L 52.59375 62.3125 
Q 48.875 64.0625 45.09375 64.984375 
Q 41.3125 65.921875 37.59375 65.921875 
Q 27.828125 65.921875 22.671875 59.328125 
Q 17.53125 52.734375 16.796875 39.40625 
Q 19.671875 43.65625 24.015625 45.921875 
Q 28.375 48.1875 33.59375 48.1875 
Q 44.578125 48.1875 50.953125 41.515625 
Q 57.328125 34.859375 57.328125 23.390625 
Q 57.328125 12.15625 50.6875 5.359375 
Q 44.046875 -1.421875 33.015625 -1.421875 
Q 20.359375 -1.421875 13.671875 8.265625 
Q 6.984375 17.96875 6.984375 36.375 
Q 6.984375 53.65625 15.1875 63.9375 
Q 23.390625 74.21875 37.203125 74.21875 
Q 40.921875 74.21875 44.703125 73.484375 
Q 48.484375 72.75 52.59375 71.296875 
" id="DejaVuSans-36"/>
      </defs>
      <g transform="translate(262.32825 322.182437)scale(0.1 -0.1)">
       <use xlink:href="#DejaVuSans-36"/>
       <use x="63.623047" xlink:href="#DejaVuSans-30"/>
       <use x="127.246094" xlink:href="#DejaVuSans-30"/>
      </g>
     </g>
    </g>
    <g id="xtick_5">
     <g id="line2d_9">
      <path clip-path="url(#pfe7cf1fcb7)" d="M 343.296 307.584 
L 343.296 41.472 
" style="fill:none;stroke:#b0b0b0;stroke-linecap:square;stroke-width:0.8;"/>
     </g>
     <g id="line2d_10">
      <g>
       <use style="stroke:#000000;stroke-width:0.8;" x="343.296" xlink:href="#m7610d1b620" y="307.584"/>
      </g>
     </g>
     <g id="text_5">
      <!-- 800 -->
      <defs>
       <path d="M 31.78125 34.625 
Q 24.75 34.625 20.71875 30.859375 
Q 16.703125 27.09375 16.703125 20.515625 
Q 16.703125 13.921875 20.71875 10.15625 
Q 24.75 6.390625 31.78125 6.390625 
Q 38.8125 6.390625 42.859375 10.171875 
Q 46.921875 13.96875 46.921875 20.515625 
Q 46.921875 27.09375 42.890625 30.859375 
Q 38.875 34.625 31.78125 34.625 
M 21.921875 38.8125 
Q 15.578125 40.375 12.03125 44.71875 
Q 8.5 49.078125 8.5 55.328125 
Q 8.5 64.0625 14.71875 69.140625 
Q 20.953125 74.21875 31.78125 74.21875 
Q 42.671875 74.21875 48.875 69.140625 
Q 55.078125 64.0625 55.078125 55.328125 
Q 55.078125 49.078125 51.53125 44.71875 
Q 48 40.375 41.703125 38.8125 
Q 48.828125 37.15625 52.796875 32.3125 
Q 56.78125 27.484375 56.78125 20.515625 
Q 56.78125 9.90625 50.3125 4.234375 
Q 43.84375 -1.421875 31.78125 -1.421875 
Q 19.734375 -1.421875 13.25 4.234375 
Q 6.78125 9.90625 6.78125 20.515625 
Q 6.78125 27.484375 10.78125 32.3125 
Q 14.796875 37.15625 21.921875 38.8125 
M 18.3125 54.390625 
Q 18.3125 48.734375 21.84375 45.5625 
Q 25.390625 42.390625 31.78125 42.390625 
Q 38.140625 42.390625 41.71875 45.5625 
Q 45.3125 48.734375 45.3125 54.390625 
Q 45.3125 60.0625 41.71875 63.234375 
Q 38.140625 66.40625 31.78125 66.40625 
Q 25.390625 66.40625 21.84375 63.234375 
Q 18.3125 60.0625 18.3125 54.390625 
" id="DejaVuSans-38"/>
      </defs>
      <g transform="translate(333.75225 322.182437)scale(0.1 -0.1)">
       <use xlink:href="#DejaVuSans-38"/>
       <use x="63.623047" xlink:href="#DejaVuSans-30"/>
       <use x="127.246094" xlink:href="#DejaVuSans-30"/>
      </g>
     </g>
    </g>
    <g id="xtick_6">
     <g id="line2d_11">
      <path clip-path="url(#pfe7cf1fcb7)" d="M 414.72 307.584 
L 414.72 41.472 
" style="fill:none;stroke:#b0b0b0;stroke-linecap:square;stroke-width:0.8;"/>
     </g>
     <g id="line2d_12">
      <g>
       <use style="stroke:#000000;stroke-width:0.8;" x="414.72" xlink:href="#m7610d1b620" y="307.584"/>
      </g>
     </g>
     <g id="text_6">
      <!-- 1000 -->
      <defs>
       <path d="M 12.40625 8.296875 
L 28.515625 8.296875 
L 28.515625 63.921875 
L 10.984375 60.40625 
L 10.984375 69.390625 
L 28.421875 72.90625 
L 38.28125 72.90625 
L 38.28125 8.296875 
L 54.390625 8.296875 
L 54.390625 0 
L 12.40625 0 
z
" id="DejaVuSans-31"/>
      </defs>
      <g transform="translate(401.995 322.182437)scale(0.1 -0.1)">
       <use xlink:href="#DejaVuSans-31"/>
       <use x="63.623047" xlink:href="#DejaVuSans-30"/>
       <use x="127.246094" xlink:href="#DejaVuSans-30"/>
       <use x="190.869141" xlink:href="#DejaVuSans-30"/>
      </g>
     </g>
    </g>
    <g id="text_7">
     <!-- Number of clients -->
     <defs>
      <path d="M 9.8125 72.90625 
L 23.09375 72.90625 
L 55.421875 11.921875 
L 55.421875 72.90625 
L 64.984375 72.90625 
L 64.984375 0 
L 51.703125 0 
L 19.390625 60.984375 
L 19.390625 0 
L 9.8125 0 
z
" id="DejaVuSans-4e"/>
      <path d="M 8.5 21.578125 
L 8.5 54.6875 
L 17.484375 54.6875 
L 17.484375 21.921875 
Q 17.484375 14.15625 20.5 10.265625 
Q 23.53125 6.390625 29.59375 6.390625 
Q 36.859375 6.390625 41.078125 11.03125 
Q 45.3125 15.671875 45.3125 23.6875 
L 45.3125 54.6875 
L 54.296875 54.6875 
L 54.296875 0 
L 45.3125 0 
L 45.3125 8.40625 
Q 42.046875 3.421875 37.71875 1 
Q 33.40625 -1.421875 27.6875 -1.421875 
Q 18.265625 -1.421875 13.375 4.4375 
Q 8.5 10.296875 8.5 21.578125 
M 31.109375 56 
z
" id="DejaVuSans-75"/>
      <path d="M 52 44.1875 
Q 55.375 50.25 60.0625 53.125 
Q 64.75 56 71.09375 56 
Q 79.640625 56 84.28125 50.015625 
Q 88.921875 44.046875 88.921875 33.015625 
L 88.921875 0 
L 79.890625 0 
L 79.890625 32.71875 
Q 79.890625 40.578125 77.09375 44.375 
Q 74.3125 48.1875 68.609375 48.1875 
Q 61.625 48.1875 57.5625 43.546875 
Q 53.515625 38.921875 53.515625 30.90625 
L 53.515625 0 
L 44.484375 0 
L 44.484375 32.71875 
Q 44.484375 40.625 41.703125 44.40625 
Q 38.921875 48.1875 33.109375 48.1875 
Q 26.21875 48.1875 22.15625 43.53125 
Q 18.109375 38.875 18.109375 30.90625 
L 18.109375 0 
L 9.078125 0 
L 9.078125 54.6875 
L 18.109375 54.6875 
L 18.109375 46.1875 
Q 21.1875 51.21875 25.484375 53.609375 
Q 29.78125 56 35.6875 56 
Q 41.65625 56 45.828125 52.96875 
Q 50 49.953125 52 44.1875 
" id="DejaVuSans-6d"/>
      <path d="M 48.6875 27.296875 
Q 48.6875 37.203125 44.609375 42.84375 
Q 40.53125 48.484375 33.40625 48.484375 
Q 26.265625 48.484375 22.1875 42.84375 
Q 18.109375 37.203125 18.109375 27.296875 
Q 18.109375 17.390625 22.1875 11.75 
Q 26.265625 6.109375 33.40625 6.109375 
Q 40.53125 6.109375 44.609375 11.75 
Q 48.6875 17.390625 48.6875 27.296875 
M 18.109375 46.390625 
Q 20.953125 51.265625 25.265625 53.625 
Q 29.59375 56 35.59375 56 
Q 45.5625 56 51.78125 48.09375 
Q 58.015625 40.1875 58.015625 27.296875 
Q 58.015625 14.40625 51.78125 6.484375 
Q 45.5625 -1.421875 35.59375 -1.421875 
Q 29.59375 -1.421875 25.265625 0.953125 
Q 20.953125 3.328125 18.109375 8.203125 
L 18.109375 0 
L 9.078125 0 
L 9.078125 75.984375 
L 18.109375 75.984375 
z
" id="DejaVuSans-62"/>
      <path d="M 56.203125 29.59375 
L 56.203125 25.203125 
L 14.890625 25.203125 
Q 15.484375 15.921875 20.484375 11.0625 
Q 25.484375 6.203125 34.421875 6.203125 
Q 39.59375 6.203125 44.453125 7.46875 
Q 49.3125 8.734375 54.109375 11.28125 
L 54.109375 2.78125 
Q 49.265625 0.734375 44.1875 -0.34375 
Q 39.109375 -1.421875 33.890625 -1.421875 
Q 20.796875 -1.421875 13.15625 6.1875 
Q 5.515625 13.8125 5.515625 26.8125 
Q 5.515625 40.234375 12.765625 48.109375 
Q 20.015625 56 32.328125 56 
Q 43.359375 56 49.78125 48.890625 
Q 56.203125 41.796875 56.203125 29.59375 
M 47.21875 32.234375 
Q 47.125 39.59375 43.09375 43.984375 
Q 39.0625 48.390625 32.421875 48.390625 
Q 24.90625 48.390625 20.390625 44.140625 
Q 15.875 39.890625 15.1875 32.171875 
z
" id="DejaVuSans-65"/>
      <path d="M 41.109375 46.296875 
Q 39.59375 47.171875 37.8125 47.578125 
Q 36.03125 48 33.890625 48 
Q 26.265625 48 22.1875 43.046875 
Q 18.109375 38.09375 18.109375 28.8125 
L 18.109375 0 
L 9.078125 0 
L 9.078125 54.6875 
L 18.109375 54.6875 
L 18.109375 46.1875 
Q 20.953125 51.171875 25.484375 53.578125 
Q 30.03125 56 36.53125 56 
Q 37.453125 56 38.578125 55.875 
Q 39.703125 55.765625 41.0625 55.515625 
z
" id="DejaVuSans-72"/>
      <path id="DejaVuSans-20"/>
      <path d="M 30.609375 48.390625 
Q 23.390625 48.390625 19.1875 42.75 
Q 14.984375 37.109375 14.984375 27.296875 
Q 14.984375 17.484375 19.15625 11.84375 
Q 23.34375 6.203125 30.609375 6.203125 
Q 37.796875 6.203125 41.984375 11.859375 
Q 46.1875 17.53125 46.1875 27.296875 
Q 46.1875 37.015625 41.984375 42.703125 
Q 37.796875 48.390625 30.609375 48.390625 
M 30.609375 56 
Q 42.328125 56 49.015625 48.375 
Q 55.71875 40.765625 55.71875 27.296875 
Q 55.71875 13.875 49.015625 6.21875 
Q 42.328125 -1.421875 30.609375 -1.421875 
Q 18.84375 -1.421875 12.171875 6.21875 
Q 5.515625 13.875 5.515625 27.296875 
Q 5.515625 40.765625 12.171875 48.375 
Q 18.84375 56 30.609375 56 
" id="DejaVuSans-6f"/>
      <path d="M 37.109375 75.984375 
L 37.109375 68.5 
L 28.515625 68.5 
Q 23.6875 68.5 21.796875 66.546875 
Q 19.921875 64.59375 19.921875 59.515625 
L 19.921875 54.6875 
L 34.71875 54.6875 
L 34.71875 47.703125 
L 19.921875 47.703125 
L 19.921875 0 
L 10.890625 0 
L 10.890625 47.703125 
L 2.296875 47.703125 
L 2.296875 54.6875 
L 10.890625 54.6875 
L 10.890625 58.5 
Q 10.890625 67.625 15.140625 71.796875 
Q 19.390625 75.984375 28.609375 75.984375 
z
" id="DejaVuSans-66"/>
      <path d="M 48.78125 52.59375 
L 48.78125 44.1875 
Q 44.96875 46.296875 41.140625 47.34375 
Q 37.3125 48.390625 33.40625 48.390625 
Q 24.65625 48.390625 19.8125 42.84375 
Q 14.984375 37.3125 14.984375 27.296875 
Q 14.984375 17.28125 19.8125 11.734375 
Q 24.65625 6.203125 33.40625 6.203125 
Q 37.3125 6.203125 41.140625 7.25 
Q 44.96875 8.296875 48.78125 10.40625 
L 48.78125 2.09375 
Q 45.015625 0.34375 40.984375 -0.53125 
Q 36.96875 -1.421875 32.421875 -1.421875 
Q 20.0625 -1.421875 12.78125 6.34375 
Q 5.515625 14.109375 5.515625 27.296875 
Q 5.515625 40.671875 12.859375 48.328125 
Q 20.21875 56 33.015625 56 
Q 37.15625 56 41.109375 55.140625 
Q 45.0625 54.296875 48.78125 52.59375 
" id="DejaVuSans-63"/>
      <path d="M 9.421875 75.984375 
L 18.40625 75.984375 
L 18.40625 0 
L 9.421875 0 
z
" id="DejaVuSans-6c"/>
      <path d="M 9.421875 54.6875 
L 18.40625 54.6875 
L 18.40625 0 
L 9.421875 0 
z
M 9.421875 75.984375 
L 18.40625 75.984375 
L 18.40625 64.59375 
L 9.421875 64.59375 
z
" id="DejaVuSans-69"/>
      <path d="M 54.890625 33.015625 
L 54.890625 0 
L 45.90625 0 
L 45.90625 32.71875 
Q 45.90625 40.484375 42.875 44.328125 
Q 39.84375 48.1875 33.796875 48.1875 
Q 26.515625 48.1875 22.3125 43.546875 
Q 18.109375 38.921875 18.109375 30.90625 
L 18.109375 0 
L 9.078125 0 
L 9.078125 54.6875 
L 18.109375 54.6875 
L 18.109375 46.1875 
Q 21.34375 51.125 25.703125 53.5625 
Q 30.078125 56 35.796875 56 
Q 45.21875 56 50.046875 50.171875 
Q 54.890625 44.34375 54.890625 33.015625 
" id="DejaVuSans-6e"/>
      <path d="M 18.3125 70.21875 
L 18.3125 54.6875 
L 36.8125 54.6875 
L 36.8125 47.703125 
L 18.3125 47.703125 
L 18.3125 18.015625 
Q 18.3125 11.328125 20.140625 9.421875 
Q 21.96875 7.515625 27.59375 7.515625 
L 36.8125 7.515625 
L 36.8125 0 
L 27.59375 0 
Q 17.1875 0 13.234375 3.875 
Q 9.28125 7.765625 9.28125 18.015625 
L 9.28125 47.703125 
L 2.6875 47.703125 
L 2.6875 54.6875 
L 9.28125 54.6875 
L 9.28125 70.21875 
z
" id="DejaVuSans-74"/>
      <path d="M 44.28125 53.078125 
L 44.28125 44.578125 
Q 40.484375 46.53125 36.375 47.5 
Q 32.28125 48.484375 27.875 48.484375 
Q 21.1875 48.484375 17.84375 46.4375 
Q 14.5 44.390625 14.5 40.28125 
Q 14.5 37.15625 16.890625 35.375 
Q 19.28125 33.59375 26.515625 31.984375 
L 29.59375 31.296875 
Q 39.15625 29.25 43.1875 25.515625 
Q 47.21875 21.78125 47.21875 15.09375 
Q 47.21875 7.46875 41.1875 3.015625 
Q 35.15625 -1.421875 24.609375 -1.421875 
Q 20.21875 -1.421875 15.453125 -0.5625 
Q 10.6875 0.296875 5.421875 2 
L 5.421875 11.28125 
Q 10.40625 8.6875 15.234375 7.390625 
Q 20.0625 6.109375 24.8125 6.109375 
Q 31.15625 6.109375 34.5625 8.28125 
Q 37.984375 10.453125 37.984375 14.40625 
Q 37.984375 18.0625 35.515625 20.015625 
Q 33.0625 21.96875 24.703125 23.78125 
L 21.578125 24.515625 
Q 13.234375 26.265625 9.515625 29.90625 
Q 5.8125 33.546875 5.8125 39.890625 
Q 5.8125 47.609375 11.28125 51.796875 
Q 16.75 56 26.8125 56 
Q 31.78125 56 36.171875 55.265625 
Q 40.578125 54.546875 44.28125 53.078125 
" id="DejaVuSans-73"/>
     </defs>
     <g transform="translate(191.738906 335.860562)scale(0.1 -0.1)">
      <use xlink:href="#DejaVuSans-4e"/>
      <use x="74.804688" xlink:href="#DejaVuSans-75"/>
      <use x="138.183594" xlink:href="#DejaVuSans-6d"/>
      <use x="235.595703" xlink:href="#DejaVuSans-62"/>
      <use x="299.072266" xlink:href="#DejaVuSans-65"/>
      <use x="360.595703" xlink:href="#DejaVuSans-72"/>
      <use x="401.708984" xlink:href="#DejaVuSans-20"/>
      <use x="433.496094" xlink:href="#DejaVuSans-6f"/>
      <use x="494.677734" xlink:href="#DejaVuSans-66"/>
      <use x="529.882812" xlink:href="#DejaVuSans-20"/>
      <use x="561.669922" xlink:href="#DejaVuSans-63"/>
      <use x="616.650391" xlink:href="#DejaVuSans-6c"/>
      <use x="644.433594" xlink:href="#DejaVuSans-69"/>
      <use x="672.216797" xlink:href="#DejaVuSans-65"/>
      <use x="733.740234" xlink:href="#DejaVuSans-6e"/>
      <use x="797.119141" xlink:href="#DejaVuSans-74"/>
      <use x="836.328125" xlink:href="#DejaVuSans-73"/>
     </g>
    </g>
   </g>
   <g id="matplotlib.axis_2">
    <g id="ytick_1">
     <g id="line2d_13">
      <path clip-path="url(#pfe7cf1fcb7)" d="M 57.6 295.811542 
L 414.72 295.811542 
" style="fill:none;stroke:#b0b0b0;stroke-linecap:square;stroke-width:0.8;"/>
     </g>
     <g id="line2d_14">
      <defs>
       <path d="M 0 0 
L -3.5 0 
" id="m7140d96ef7" style="stroke:#000000;stroke-width:0.8;"/>
      </defs>
      <g>
       <use style="stroke:#000000;stroke-width:0.8;" x="57.6" xlink:href="#m7140d96ef7" y="295.811542"/>
      </g>
     </g>
     <g id="text_8">
      <!-- 0 -->
      <g transform="translate(44.2375 299.610761)scale(0.1 -0.1)">
       <use xlink:href="#DejaVuSans-30"/>
      </g>
     </g>
    </g>
    <g id="ytick_2">
     <g id="line2d_15">
      <path clip-path="url(#pfe7cf1fcb7)" d="M 57.6 261.318803 
L 414.72 261.318803 
" style="fill:none;stroke:#b0b0b0;stroke-linecap:square;stroke-width:0.8;"/>
     </g>
     <g id="line2d_16">
      <g>
       <use style="stroke:#000000;stroke-width:0.8;" x="57.6" xlink:href="#m7140d96ef7" y="261.318803"/>
      </g>
     </g>
     <g id="text_9">
      <!-- 100 -->
      <g transform="translate(31.5125 265.118021)scale(0.1 -0.1)">
       <use xlink:href="#DejaVuSans-31"/>
       <use x="63.623047" xlink:href="#DejaVuSans-30"/>
       <use x="127.246094" xlink:href="#DejaVuSans-30"/>
      </g>
     </g>
    </g>
    <g id="ytick_3">
     <g id="line2d_17">
      <path clip-path="url(#pfe7cf1fcb7)" d="M 57.6 226.826064 
L 414.72 226.826064 
" style="fill:none;stroke:#b0b0b0;stroke-linecap:square;stroke-width:0.8;"/>
     </g>
     <g id="line2d_18">
      <g>
       <use style="stroke:#000000;stroke-width:0.8;" x="57.6" xlink:href="#m7140d96ef7" y="226.826064"/>
      </g>
     </g>
     <g id="text_10">
      <!-- 200 -->
      <g transform="translate(31.5125 230.625282)scale(0.1 -0.1)">
       <use xlink:href="#DejaVuSans-32"/>
       <use x="63.623047" xlink:href="#DejaVuSans-30"/>
       <use x="127.246094" xlink:href="#DejaVuSans-30"/>
      </g>
     </g>
    </g>
    <g id="ytick_4">
     <g id="line2d_19">
      <path clip-path="url(#pfe7cf1fcb7)" d="M 57.6 192.333324 
L 414.72 192.333324 
" style="fill:none;stroke:#b0b0b0;stroke-linecap:square;stroke-width:0.8;"/>
     </g>
     <g id="line2d_20">
      <g>
       <use style="stroke:#000000;stroke-width:0.8;" x="57.6" xlink:href="#m7140d96ef7" y="192.333324"/>
      </g>
     </g>
     <g id="text_11">
      <!-- 300 -->
      <defs>
       <path d="M 40.578125 39.3125 
Q 47.65625 37.796875 51.625 33 
Q 55.609375 28.21875 55.609375 21.1875 
Q 55.609375 10.40625 48.1875 4.484375 
Q 40.765625 -1.421875 27.09375 -1.421875 
Q 22.515625 -1.421875 17.65625 -0.515625 
Q 12.796875 0.390625 7.625 2.203125 
L 7.625 11.71875 
Q 11.71875 9.328125 16.59375 8.109375 
Q 21.484375 6.890625 26.8125 6.890625 
Q 36.078125 6.890625 40.9375 10.546875 
Q 45.796875 14.203125 45.796875 21.1875 
Q 45.796875 27.640625 41.28125 31.265625 
Q 36.765625 34.90625 28.71875 34.90625 
L 20.21875 34.90625 
L 20.21875 43.015625 
L 29.109375 43.015625 
Q 36.375 43.015625 40.234375 45.921875 
Q 44.09375 48.828125 44.09375 54.296875 
Q 44.09375 59.90625 40.109375 62.90625 
Q 36.140625 65.921875 28.71875 65.921875 
Q 24.65625 65.921875 20.015625 65.03125 
Q 15.375 64.15625 9.8125 62.3125 
L 9.8125 71.09375 
Q 15.4375 72.65625 20.34375 73.4375 
Q 25.25 74.21875 29.59375 74.21875 
Q 40.828125 74.21875 47.359375 69.109375 
Q 53.90625 64.015625 53.90625 55.328125 
Q 53.90625 49.265625 50.4375 45.09375 
Q 46.96875 40.921875 40.578125 39.3125 
" id="DejaVuSans-33"/>
      </defs>
      <g transform="translate(31.5125 196.132543)scale(0.1 -0.1)">
       <use xlink:href="#DejaVuSans-33"/>
       <use x="63.623047" xlink:href="#DejaVuSans-30"/>
       <use x="127.246094" xlink:href="#DejaVuSans-30"/>
      </g>
     </g>
    </g>
    <g id="ytick_5">
     <g id="line2d_21">
      <path clip-path="url(#pfe7cf1fcb7)" d="M 57.6 157.840585 
L 414.72 157.840585 
" style="fill:none;stroke:#b0b0b0;stroke-linecap:square;stroke-width:0.8;"/>
     </g>
     <g id="line2d_22">
      <g>
       <use style="stroke:#000000;stroke-width:0.8;" x="57.6" xlink:href="#m7140d96ef7" y="157.840585"/>
      </g>
     </g>
     <g id="text_12">
      <!-- 400 -->
      <g transform="translate(31.5125 161.639804)scale(0.1 -0.1)">
       <use xlink:href="#DejaVuSans-34"/>
       <use x="63.623047" xlink:href="#DejaVuSans-30"/>
       <use x="127.246094" xlink:href="#DejaVuSans-30"/>
      </g>
     </g>
    </g>
    <g id="ytick_6">
     <g id="line2d_23">
      <path clip-path="url(#pfe7cf1fcb7)" d="M 57.6 123.347846 
L 414.72 123.347846 
" style="fill:none;stroke:#b0b0b0;stroke-linecap:square;stroke-width:0.8;"/>
     </g>
     <g id="line2d_24">
      <g>
       <use style="stroke:#000000;stroke-width:0.8;" x="57.6" xlink:href="#m7140d96ef7" y="123.347846"/>
      </g>
     </g>
     <g id="text_13">
      <!-- 500 -->
      <defs>
       <path d="M 10.796875 72.90625 
L 49.515625 72.90625 
L 49.515625 64.59375 
L 19.828125 64.59375 
L 19.828125 46.734375 
Q 21.96875 47.46875 24.109375 47.828125 
Q 26.265625 48.1875 28.421875 48.1875 
Q 40.625 48.1875 47.75 41.5 
Q 54.890625 34.8125 54.890625 23.390625 
Q 54.890625 11.625 47.5625 5.09375 
Q 40.234375 -1.421875 26.90625 -1.421875 
Q 22.3125 -1.421875 17.546875 -0.640625 
Q 12.796875 0.140625 7.71875 1.703125 
L 7.71875 11.625 
Q 12.109375 9.234375 16.796875 8.0625 
Q 21.484375 6.890625 26.703125 6.890625 
Q 35.15625 6.890625 40.078125 11.328125 
Q 45.015625 15.765625 45.015625 23.390625 
Q 45.015625 31 40.078125 35.4375 
Q 35.15625 39.890625 26.703125 39.890625 
Q 22.75 39.890625 18.8125 39.015625 
Q 14.890625 38.140625 10.796875 36.28125 
z
" id="DejaVuSans-35"/>
      </defs>
      <g transform="translate(31.5125 127.147065)scale(0.1 -0.1)">
       <use xlink:href="#DejaVuSans-35"/>
       <use x="63.623047" xlink:href="#DejaVuSans-30"/>
       <use x="127.246094" xlink:href="#DejaVuSans-30"/>
      </g>
     </g>
    </g>
    <g id="ytick_7">
     <g id="line2d_25">
      <path clip-path="url(#pfe7cf1fcb7)" d="M 57.6 88.855107 
L 414.72 88.855107 
" style="fill:none;stroke:#b0b0b0;stroke-linecap:square;stroke-width:0.8;"/>
     </g>
     <g id="line2d_26">
      <g>
       <use style="stroke:#000000;stroke-width:0.8;" x="57.6" xlink:href="#m7140d96ef7" y="88.855107"/>
      </g>
     </g>
     <g id="text_14">
      <!-- 600 -->
      <g transform="translate(31.5125 92.654326)scale(0.1 -0.1)">
       <use xlink:href="#DejaVuSans-36"/>
       <use x="63.623047" xlink:href="#DejaVuSans-30"/>
       <use x="127.246094" xlink:href="#DejaVuSans-30"/>
      </g>
     </g>
    </g>
    <g id="ytick_8">
     <g id="line2d_27">
      <path clip-path="url(#pfe7cf1fcb7)" d="M 57.6 54.362368 
L 414.72 54.362368 
" style="fill:none;stroke:#b0b0b0;stroke-linecap:square;stroke-width:0.8;"/>
     </g>
     <g id="line2d_28">
      <g>
       <use style="stroke:#000000;stroke-width:0.8;" x="57.6" xlink:href="#m7140d96ef7" y="54.362368"/>
      </g>
     </g>
     <g id="text_15">
      <!-- 700 -->
      <defs>
       <path d="M 8.203125 72.90625 
L 55.078125 72.90625 
L 55.078125 68.703125 
L 28.609375 0 
L 18.3125 0 
L 43.21875 64.59375 
L 8.203125 64.59375 
z
" id="DejaVuSans-37"/>
      </defs>
      <g transform="translate(31.5125 58.161587)scale(0.1 -0.1)">
       <use xlink:href="#DejaVuSans-37"/>
       <use x="63.623047" xlink:href="#DejaVuSans-30"/>
       <use x="127.246094" xlink:href="#DejaVuSans-30"/>
      </g>
     </g>
    </g>
    <g id="text_16">
     <!-- Successful download requests per second -->
     <defs>
      <path d="M 53.515625 70.515625 
L 53.515625 60.890625 
Q 47.90625 63.578125 42.921875 64.890625 
Q 37.9375 66.21875 33.296875 66.21875 
Q 25.25 66.21875 20.875 63.09375 
Q 16.5 59.96875 16.5 54.203125 
Q 16.5 49.359375 19.40625 46.890625 
Q 22.3125 44.4375 30.421875 42.921875 
L 36.375 41.703125 
Q 47.40625 39.59375 52.65625 34.296875 
Q 57.90625 29 57.90625 20.125 
Q 57.90625 9.515625 50.796875 4.046875 
Q 43.703125 -1.421875 29.984375 -1.421875 
Q 24.8125 -1.421875 18.96875 -0.25 
Q 13.140625 0.921875 6.890625 3.21875 
L 6.890625 13.375 
Q 12.890625 10.015625 18.65625 8.296875 
Q 24.421875 6.59375 29.984375 6.59375 
Q 38.421875 6.59375 43.015625 9.90625 
Q 47.609375 13.234375 47.609375 19.390625 
Q 47.609375 24.75 44.3125 27.78125 
Q 41.015625 30.8125 33.5 32.328125 
L 27.484375 33.5 
Q 16.453125 35.6875 11.515625 40.375 
Q 6.59375 45.0625 6.59375 53.421875 
Q 6.59375 63.09375 13.40625 68.65625 
Q 20.21875 74.21875 32.171875 74.21875 
Q 37.3125 74.21875 42.625 73.28125 
Q 47.953125 72.359375 53.515625 70.515625 
" id="DejaVuSans-53"/>
      <path d="M 45.40625 46.390625 
L 45.40625 75.984375 
L 54.390625 75.984375 
L 54.390625 0 
L 45.40625 0 
L 45.40625 8.203125 
Q 42.578125 3.328125 38.25 0.953125 
Q 33.9375 -1.421875 27.875 -1.421875 
Q 17.96875 -1.421875 11.734375 6.484375 
Q 5.515625 14.40625 5.515625 27.296875 
Q 5.515625 40.1875 11.734375 48.09375 
Q 17.96875 56 27.875 56 
Q 33.9375 56 38.25 53.625 
Q 42.578125 51.265625 45.40625 46.390625 
M 14.796875 27.296875 
Q 14.796875 17.390625 18.875 11.75 
Q 22.953125 6.109375 30.078125 6.109375 
Q 37.203125 6.109375 41.296875 11.75 
Q 45.40625 17.390625 45.40625 27.296875 
Q 45.40625 37.203125 41.296875 42.84375 
Q 37.203125 48.484375 30.078125 48.484375 
Q 22.953125 48.484375 18.875 42.84375 
Q 14.796875 37.203125 14.796875 27.296875 
" id="DejaVuSans-64"/>
      <path d="M 4.203125 54.6875 
L 13.1875 54.6875 
L 24.421875 12.015625 
L 35.59375 54.6875 
L 46.1875 54.6875 
L 57.421875 12.015625 
L 68.609375 54.6875 
L 77.59375 54.6875 
L 63.28125 0 
L 52.6875 0 
L 40.921875 44.828125 
L 29.109375 0 
L 18.5 0 
z
" id="DejaVuSans-77"/>
      <path d="M 34.28125 27.484375 
Q 23.390625 27.484375 19.1875 25 
Q 14.984375 22.515625 14.984375 16.5 
Q 14.984375 11.71875 18.140625 8.90625 
Q 21.296875 6.109375 26.703125 6.109375 
Q 34.1875 6.109375 38.703125 11.40625 
Q 43.21875 16.703125 43.21875 25.484375 
L 43.21875 27.484375 
z
M 52.203125 31.203125 
L 52.203125 0 
L 43.21875 0 
L 43.21875 8.296875 
Q 40.140625 3.328125 35.546875 0.953125 
Q 30.953125 -1.421875 24.3125 -1.421875 
Q 15.921875 -1.421875 10.953125 3.296875 
Q 6 8.015625 6 15.921875 
Q 6 25.140625 12.171875 29.828125 
Q 18.359375 34.515625 30.609375 34.515625 
L 43.21875 34.515625 
L 43.21875 35.40625 
Q 43.21875 41.609375 39.140625 45 
Q 35.0625 48.390625 27.6875 48.390625 
Q 23 48.390625 18.546875 47.265625 
Q 14.109375 46.140625 10.015625 43.890625 
L 10.015625 52.203125 
Q 14.9375 54.109375 19.578125 55.046875 
Q 24.21875 56 28.609375 56 
Q 40.484375 56 46.34375 49.84375 
Q 52.203125 43.703125 52.203125 31.203125 
" id="DejaVuSans-61"/>
      <path d="M 14.796875 27.296875 
Q 14.796875 17.390625 18.875 11.75 
Q 22.953125 6.109375 30.078125 6.109375 
Q 37.203125 6.109375 41.296875 11.75 
Q 45.40625 17.390625 45.40625 27.296875 
Q 45.40625 37.203125 41.296875 42.84375 
Q 37.203125 48.484375 30.078125 48.484375 
Q 22.953125 48.484375 18.875 42.84375 
Q 14.796875 37.203125 14.796875 27.296875 
M 45.40625 8.203125 
Q 42.578125 3.328125 38.25 0.953125 
Q 33.9375 -1.421875 27.875 -1.421875 
Q 17.96875 -1.421875 11.734375 6.484375 
Q 5.515625 14.40625 5.515625 27.296875 
Q 5.515625 40.1875 11.734375 48.09375 
Q 17.96875 56 27.875 56 
Q 33.9375 56 38.25 53.625 
Q 42.578125 51.265625 45.40625 46.390625 
L 45.40625 54.6875 
L 54.390625 54.6875 
L 54.390625 -20.796875 
L 45.40625 -20.796875 
z
" id="DejaVuSans-71"/>
      <path d="M 18.109375 8.203125 
L 18.109375 -20.796875 
L 9.078125 -20.796875 
L 9.078125 54.6875 
L 18.109375 54.6875 
L 18.109375 46.390625 
Q 20.953125 51.265625 25.265625 53.625 
Q 29.59375 56 35.59375 56 
Q 45.5625 56 51.78125 48.09375 
Q 58.015625 40.1875 58.015625 27.296875 
Q 58.015625 14.40625 51.78125 6.484375 
Q 45.5625 -1.421875 35.59375 -1.421875 
Q 29.59375 -1.421875 25.265625 0.953125 
Q 20.953125 3.328125 18.109375 8.203125 
M 48.6875 27.296875 
Q 48.6875 37.203125 44.609375 42.84375 
Q 40.53125 48.484375 33.40625 48.484375 
Q 26.265625 48.484375 22.1875 42.84375 
Q 18.109375 37.203125 18.109375 27.296875 
Q 18.109375 17.390625 22.1875 11.75 
Q 26.265625 6.109375 33.40625 6.109375 
Q 40.53125 6.109375 44.609375 11.75 
Q 48.6875 17.390625 48.6875 27.296875 
" id="DejaVuSans-70"/>
     </defs>
     <g transform="translate(25.432812 279.366281)rotate(-90)scale(0.1 -0.1)">
      <use xlink:href="#DejaVuSans-53"/>
      <use x="63.476562" xlink:href="#DejaVuSans-75"/>
      <use x="126.855469" xlink:href="#DejaVuSans-63"/>
      <use x="181.835938" xlink:href="#DejaVuSans-63"/>
      <use x="236.816406" xlink:href="#DejaVuSans-65"/>
      <use x="298.339844" xlink:href="#DejaVuSans-73"/>
      <use x="350.439453" xlink:href="#DejaVuSans-73"/>
      <use x="402.539062" xlink:href="#DejaVuSans-66"/>
      <use x="437.744141" xlink:href="#DejaVuSans-75"/>
      <use x="501.123047" xlink:href="#DejaVuSans-6c"/>
      <use x="528.90625" xlink:href="#DejaVuSans-20"/>
      <use x="560.693359" xlink:href="#DejaVuSans-64"/>
      <use x="624.169922" xlink:href="#DejaVuSans-6f"/>
      <use x="685.351562" xlink:href="#DejaVuSans-77"/>
      <use x="767.138672" xlink:href="#DejaVuSans-6e"/>
      <use x="830.517578" xlink:href="#DejaVuSans-6c"/>
      <use x="858.300781" xlink:href="#DejaVuSans-6f"/>
      <use x="919.482422" xlink:href="#DejaVuSans-61"/>
      <use x="980.761719" xlink:href="#DejaVuSans-64"/>
      <use x="1044.238281" xlink:href="#DejaVuSans-20"/>
      <use x="1076.025391" xlink:href="#DejaVuSans-72"/>
      <use x="1117.107422" xlink:href="#DejaVuSans-65"/>
      <use x="1178.630859" xlink:href="#DejaVuSans-71"/>
      <use x="1242.107422" xlink:href="#DejaVuSans-75"/>
      <use x="1305.486328" xlink:href="#DejaVuSans-65"/>
      <use x="1367.009766" xlink:href="#DejaVuSans-73"/>
      <use x="1419.109375" xlink:href="#DejaVuSans-74"/>
      <use x="1458.318359" xlink:href="#DejaVuSans-73"/>
      <use x="1510.417969" xlink:href="#DejaVuSans-20"/>
      <use x="1542.205078" xlink:href="#DejaVuSans-70"/>
      <use x="1605.681641" xlink:href="#DejaVuSans-65"/>
      <use x="1667.205078" xlink:href="#DejaVuSans-72"/>
      <use x="1708.318359" xlink:href="#DejaVuSans-20"/>
      <use x="1740.105469" xlink:href="#DejaVuSans-73"/>
      <use x="1792.205078" xlink:href="#DejaVuSans-65"/>
      <use x="1853.728516" xlink:href="#DejaVuSans-63"/>
      <use x="1908.708984" xlink:href="#DejaVuSans-6f"/>
      <use x="1969.890625" xlink:href="#DejaVuSans-6e"/>
      <use x="2033.269531" xlink:href="#DejaVuSans-64"/>
     </g>
    </g>
   </g>
   <g id="line2d_29">
    <path clip-path="url(#pfe7cf1fcb7)" d="M 57.6 295.486965 
L 57.95712 295.488 
L 62.59968 291.111216 
L 62.9568 290.887358 
L 64.38528 289.313455 
L 64.7424 289.234121 
L 65.09952 288.656368 
L 65.45664 288.721559 
L 65.81376 287.950302 
L 66.528 287.431531 
L 66.88512 287.450502 
L 67.24224 287.016238 
L 67.95648 285.8221 
L 68.67072 285.649636 
L 69.38496 284.675906 
L 69.74208 284.350639 
L 70.0992 284.503787 
L 70.45632 284.231984 
L 70.81344 283.712869 
L 71.17056 282.880559 
L 71.52768 283.276536 
L 71.8848 282.529078 
L 72.24192 282.352475 
L 72.59904 281.641925 
L 72.95616 281.777136 
L 73.31328 281.633301 
L 73.6704 281.013467 
L 74.02752 280.753392 
L 74.38464 280.140111 
L 74.74176 280.167015 
L 75.09888 279.268479 
L 75.456 279.360575 
L 75.81312 278.279228 
L 76.17024 278.917343 
L 76.52736 278.063993 
L 76.88448 277.871178 
L 77.2416 277.395524 
L 77.59872 277.705613 
L 78.31296 276.683938 
L 78.67008 276.807077 
L 79.0272 275.167982 
L 79.38432 275.442545 
L 79.74144 274.755449 
L 80.09856 275.565684 
L 80.45568 274.511931 
L 80.8128 274.952748 
L 81.16992 273.916586 
L 81.52704 274.307734 
L 81.88416 272.886633 
L 82.24128 273.04116 
L 82.5984 272.815923 
L 82.95552 271.793213 
L 83.31264 271.234086 
L 83.66976 271.468981 
L 84.02688 271.491056 
L 84.384 270.052364 
L 84.74112 271.02092 
L 85.09824 269.707782 
L 85.45536 269.519107 
L 85.81248 270.397292 
L 86.1696 269.241095 
L 86.52672 269.458399 
L 86.88384 268.857881 
L 87.24096 267.775844 
L 87.59808 268.808901 
L 87.9552 267.600965 
L 88.31232 268.118356 
L 88.66944 266.044308 
L 89.02656 266.29507 
L 89.38368 265.357902 
L 89.7408 265.078856 
L 90.09792 265.029532 
L 90.45504 266.208493 
L 90.81216 264.227231 
L 91.5264 263.360083 
L 91.88352 263.39837 
L 92.24064 264.648732 
L 92.59776 262.264249 
L 92.95488 262.739214 
L 93.312 262.323231 
L 93.66912 262.907883 
L 94.02624 261.025614 
L 94.38336 262.581927 
L 94.74048 260.684826 
L 95.0976 260.823832 
L 95.45472 259.924951 
L 95.81184 261.278446 
L 96.16896 259.247859 
L 96.52608 259.512073 
L 96.8832 258.801868 
L 97.24032 258.802902 
L 97.59744 259.71627 
L 97.95456 257.374903 
L 98.31168 258.705633 
L 98.6688 257.491488 
L 99.02592 257.48321 
L 99.38304 256.339086 
L 99.74016 256.033135 
L 100.09728 257.494593 
L 100.4544 255.793756 
L 100.81152 256.146616 
L 101.16864 256.054521 
L 101.52576 255.77306 
L 101.88288 253.420655 
L 102.24 255.60508 
L 102.59712 253.099183 
L 102.95424 254.032557 
L 103.31136 252.798061 
L 103.66848 254.334023 
L 104.0256 251.482508 
L 104.38272 252.495215 
L 104.73984 252.722522 
L 105.09696 252.582137 
L 105.45408 250.607083 
L 105.8112 252.091995 
L 106.16832 249.771668 
L 106.52544 250.435309 
L 106.88256 249.580924 
L 107.23968 250.283196 
L 107.5968 248.583049 
L 107.95392 250.519816 
L 108.31104 248.450252 
L 108.66816 247.067093 
L 109.3824 248.90935 
L 109.73952 247.454446 
L 110.09664 248.50406 
L 110.45376 248.042547 
L 110.81088 246.029206 
L 111.168 245.684279 
L 111.88224 243.947914 
L 112.23936 244.840242 
L 112.59648 246.147171 
L 112.9536 243.893416 
L 113.31072 243.727851 
L 113.66784 243.310833 
L 114.02496 242.686515 
L 114.38208 242.891402 
L 114.7392 243.686804 
L 115.09632 243.547454 
L 115.45344 243.797871 
L 115.81056 242.410228 
L 116.16768 242.949694 
L 116.5248 240.07369 
L 116.88192 238.733992 
L 117.23904 240.700423 
L 117.59616 238.715711 
L 117.95328 239.00407 
L 118.3104 238.253508 
L 118.66752 240.247533 
L 119.38176 237.028671 
L 119.73888 239.747389 
L 120.096 235.571698 
L 120.45312 235.656895 
L 120.81024 237.678169 
L 121.16736 237.07903 
L 121.52448 234.147492 
L 122.23872 237.247355 
L 122.95296 233.467641 
L 123.31008 235.58377 
L 123.6672 234.948069 
L 124.02432 232.741913 
L 124.38144 233.459362 
L 124.73856 233.584226 
L 125.09568 231.820267 
L 125.80992 234.495869 
L 126.16704 230.225323 
L 126.52416 230.755131 
L 126.88128 230.544381 
L 127.2384 229.492352 
L 127.59552 231.050044 
L 127.95264 229.107068 
L 128.30976 232.100693 
L 129.024 229.699309 
L 129.38112 229.625839 
L 129.73824 229.876946 
L 130.09536 230.560248 
L 130.45248 228.396863 
L 130.8096 229.293674 
L 131.52384 224.87136 
L 131.88096 225.18145 
L 132.23808 228.470332 
L 132.5952 227.063029 
L 132.95232 226.185533 
L 133.30944 223.224332 
L 133.66656 225.556386 
L 134.02368 226.626696 
L 134.3808 224.974493 
L 134.73792 225.025888 
L 135.09504 224.158395 
L 135.45216 221.896361 
L 135.80928 221.964657 
L 136.1664 222.75868 
L 136.52352 222.709355 
L 136.88064 220.122055 
L 137.23776 218.930331 
L 137.59488 219.916133 
L 137.952 223.184665 
L 138.30912 223.254685 
L 138.66624 222.538961 
L 139.38048 218.288421 
L 139.7376 217.239152 
L 140.09472 218.035244 
L 140.45184 216.382007 
L 140.80896 218.081809 
L 141.5232 220.172414 
L 141.88032 219.001386 
L 142.23744 214.080996 
L 142.59456 216.775914 
L 142.95168 214.256909 
L 143.3088 214.70359 
L 143.66592 218.020067 
L 144.73728 211.861389 
L 145.0944 215.445184 
L 145.45152 214.273811 
L 145.80864 215.236503 
L 146.16576 212.958258 
L 146.52288 213.928539 
L 146.88 210.376476 
L 147.23712 209.465178 
L 147.59424 214.481457 
L 147.95136 213.187635 
L 148.30848 210.162621 
L 148.6656 212.232531 
L 149.02272 212.64058 
L 150.09408 210.058453 
L 150.4512 212.019021 
L 150.80832 210.184007 
L 151.16544 207.262472 
L 151.52256 211.160151 
L 151.87968 205.024928 
L 152.2368 209.537268 
L 152.59392 204.259879 
L 152.95104 205.018029 
L 153.30816 206.451203 
L 153.66528 208.403837 
L 154.0224 207.661898 
L 154.37952 203.298221 
L 154.73664 204.7038 
L 155.09376 201.844007 
L 155.45088 203.789053 
L 155.808 204.037401 
L 156.16512 201.524605 
L 156.87936 203.821476 
L 157.23648 204.218143 
L 157.5936 200.59744 
L 157.95072 200.121785 
L 158.30784 201.708106 
L 158.66496 202.57008 
L 159.02208 198.229168 
L 159.3792 204.292302 
L 159.73632 200.221469 
L 160.09344 203.310294 
L 160.45056 201.722593 
L 160.80768 199.239806 
L 161.1648 202.343462 
L 161.52192 200.496376 
L 161.87904 196.298265 
L 162.23616 198.758977 
L 162.9504 196.472453 
L 163.30752 198.780017 
L 163.66464 197.806977 
L 164.02176 193.879289 
L 164.37888 197.067453 
L 164.736 194.897515 
L 165.09312 194.379434 
L 165.45024 191.687275 
L 165.80736 193.537121 
L 166.16448 192.68584 
L 166.5216 193.539536 
L 166.87872 196.056126 
L 167.23584 190.111647 
L 167.59296 196.043708 
L 167.95008 191.333035 
L 168.3072 193.030768 
L 168.66432 190.491412 
L 169.02144 194.409097 
L 169.37856 187.879622 
L 169.73568 187.784767 
L 170.0928 189.273818 
L 170.44992 188.76781 
L 170.80704 189.615297 
L 171.16416 193.718208 
L 171.52128 191.556203 
L 171.8784 191.190925 
L 172.23552 188.949587 
L 172.59264 192.286414 
L 172.94976 185.304739 
L 173.30688 189.773618 
L 173.664 184.110255 
L 174.02112 190.890148 
L 174.37824 189.470772 
L 174.73536 182.873346 
L 175.09248 182.75952 
L 175.4496 188.168671 
L 175.80672 188.265941 
L 176.16384 185.816611 
L 176.52096 188.259387 
L 176.87808 184.226841 
L 177.2352 183.035117 
L 177.59232 186.268121 
L 177.94944 184.339287 
L 178.30656 185.273351 
L 178.66368 180.436434 
L 179.37792 185.13193 
L 179.73504 180.843793 
L 180.09216 181.766474 
L 180.44928 181.625054 
L 180.8064 177.994348 
L 181.16352 182.740549 
L 181.52064 180.059428 
L 181.87776 180.146005 
L 182.23488 181.810969 
L 182.592 181.644714 
L 182.94912 174.852059 
L 183.30624 179.088458 
L 183.66336 180.018382 
L 184.02048 181.895477 
L 184.3776 177.768075 
L 185.09184 175.223891 
L 185.44896 180.504729 
L 185.80608 177.053386 
L 186.1632 171.941907 
L 186.52032 175.912366 
L 186.87744 173.386463 
L 187.23456 172.715234 
L 187.59168 175.27632 
L 187.9488 171.278956 
L 188.30592 174.137025 
L 188.66304 169.861305 
L 189.02016 172.636591 
L 189.37728 170.671539 
L 189.7344 170.57358 
L 190.09152 173.674822 
L 190.44864 168.127355 
L 190.80576 175.024868 
L 191.16288 175.035216 
L 191.52 172.674878 
L 191.87712 166.81801 
L 192.23424 170.079299 
L 192.59136 167.418529 
L 192.94848 171.645269 
L 193.3056 166.115393 
L 193.66272 170.134487 
L 194.01984 165.091649 
L 194.37696 164.592194 
L 194.73408 168.866879 
L 195.0912 167.755523 
L 195.44832 162.697508 
L 195.80544 168.286021 
L 196.16256 170.214511 
L 196.51968 169.496372 
L 196.8768 170.150699 
L 197.23392 169.743685 
L 197.59104 162.75787 
L 197.94816 165.341031 
L 198.30528 161.337114 
L 198.6624 161.07221 
L 199.01952 165.416226 
L 199.37664 163.457383 
L 199.73376 159.058869 
L 200.09088 165.064055 
L 200.448 161.211216 
L 200.80512 166.209559 
L 201.16224 164.760519 
L 201.51936 159.841854 
L 201.87648 165.34724 
L 202.2336 165.337237 
L 202.59072 164.505272 
L 202.94784 162.334299 
L 203.30496 164.548043 
L 203.66208 159.446912 
L 204.0192 162.28118 
L 204.37632 161.350221 
L 204.73344 162.256346 
L 205.09056 161.563387 
L 205.44768 159.029205 
L 205.8048 155.261908 
L 206.16192 161.813459 
L 206.51904 157.041388 
L 207.23328 153.907033 
L 207.5904 159.916703 
L 207.94752 159.450706 
L 208.30464 158.362805 
L 208.66176 159.405521 
L 209.01888 152.152388 
L 209.376 155.661679 
L 209.73312 155.630291 
L 210.09024 148.857296 
L 210.80448 157.108304 
L 211.1616 151.33422 
L 211.51872 150.987913 
L 211.87584 153.68697 
L 212.23296 150.838559 
L 212.59008 151.446666 
L 212.9472 153.582457 
L 213.30432 147.707653 
L 213.66144 152.59079 
L 214.01856 148.540653 
L 214.37568 151.967162 
L 214.7328 151.883689 
L 215.08992 152.749457 
L 215.44704 144.719547 
L 215.80416 151.437353 
L 216.16128 146.426593 
L 216.5184 150.817864 
L 216.87552 145.63533 
L 217.58976 151.992686 
L 217.94688 144.809573 
L 218.304 144.636075 
L 218.66112 148.841085 
L 219.01824 148.831772 
L 219.37536 144.918915 
L 219.73248 145.572208 
L 220.0896 145.032741 
L 220.44672 139.889874 
L 220.80384 145.671892 
L 221.16096 142.479244 
L 221.51808 142.288499 
L 221.8752 138.466704 
L 222.23232 144.480168 
L 222.58944 136.968339 
L 222.94656 146.808428 
L 223.30368 136.560635 
L 223.6608 140.753227 
L 224.01792 135.221627 
L 224.37504 140.593871 
L 224.73216 136.249855 
L 225.08928 134.788053 
L 225.4464 136.158104 
L 225.80352 134.067155 
L 226.16064 142.396461 
L 226.51776 141.842853 
L 226.87488 142.593415 
L 227.232 135.984951 
L 227.58912 131.80995 
L 227.94624 141.623479 
L 228.30336 141.104018 
L 228.66048 136.397139 
L 229.0176 135.021224 
L 229.37472 139.819509 
L 229.73184 133.89745 
L 230.08896 139.964033 
L 230.44608 129.83662 
L 230.8032 138.569147 
L 231.16032 138.819909 
L 231.51744 137.60335 
L 231.87456 137.254974 
L 232.23168 133.612195 
L 232.5888 135.54034 
L 232.94592 131.265309 
L 233.30304 130.26502 
L 233.66016 131.582988 
L 234.01728 132.096929 
L 234.3744 127.080305 
L 234.73152 135.11056 
L 235.08864 127.622531 
L 235.44576 126.021723 
L 235.80288 125.030057 
L 236.16 124.941411 
L 236.51712 123.002919 
L 236.87424 130.136362 
L 237.23136 128.701119 
L 237.58848 128.904626 
L 237.9456 126.281109 
L 238.30272 130.746539 
L 238.65984 127.409021 
L 239.01696 129.566887 
L 239.37408 130.677553 
L 239.7312 130.143606 
L 240.08832 119.677129 
L 240.44544 126.39114 
L 240.80256 124.01666 
L 241.15968 119.759911 
L 241.5168 124.702031 
L 241.87392 120.245914 
L 242.23104 121.366238 
L 242.58816 124.28053 
L 242.94528 122.295473 
L 243.3024 126.39321 
L 243.65952 117.928347 
L 244.01664 126.699506 
L 244.37376 117.207794 
L 244.73088 121.016137 
L 245.088 121.468337 
L 245.44512 126.927503 
L 245.80224 116.045388 
L 246.15936 122.817693 
L 246.51648 118.390205 
L 246.8736 121.471441 
L 247.23072 116.757663 
L 247.58784 119.451891 
L 247.94496 116.121962 
L 248.30208 114.134491 
L 248.6592 118.160483 
L 249.01632 112.379845 
L 249.37344 111.117066 
L 249.73056 119.827172 
L 250.08768 113.747827 
L 250.4448 110.971851 
L 250.80192 115.543519 
L 251.51616 118.855167 
L 251.87328 109.370698 
L 252.2304 115.724951 
L 252.58752 111.62135 
L 252.94464 116.454817 
L 253.30176 118.723749 
L 253.65888 113.61572 
L 254.016 120.237981 
L 254.37312 120.017572 
L 254.73024 113.240094 
L 255.08736 109.983979 
L 255.44448 110.058828 
L 255.8016 109.250319 
L 256.15872 119.93203 
L 256.51584 107.643647 
L 256.87296 108.261412 
L 257.23008 117.208139 
L 257.5872 111.885564 
L 257.94432 111.156387 
L 258.30144 106.431917 
L 258.65856 106.681299 
L 259.01568 115.305174 
L 259.3728 112.502984 
L 259.72992 117.431651 
L 260.08704 117.598596 
L 260.44416 118.246025 
L 260.80128 111.235031 
L 261.1584 113.441876 
L 261.51552 116.401008 
L 261.87264 115.365881 
L 262.22976 112.883784 
L 262.58688 105.039445 
L 262.944 105.066694 
L 263.30112 111.722413 
L 263.65824 112.426755 
L 264.01536 109.6256 
L 264.37248 110.90873 
L 264.7296 104.025014 
L 265.08672 104.107796 
L 265.44384 108.948852 
L 265.80096 112.138741 
L 266.15808 112.066651 
L 266.5152 104.646228 
L 266.87232 115.357948 
L 267.22944 104.479283 
L 267.58656 107.151436 
L 267.94368 107.321485 
L 268.3008 115.234809 
L 268.65792 109.223759 
L 269.01504 111.012553 
L 269.37216 114.734664 
L 269.72928 112.219454 
L 270.0864 104.597248 
L 270.44352 114.044464 
L 271.15776 101.744009 
L 271.51488 102.583562 
L 271.872 101.607762 
L 272.22912 108.765351 
L 272.58624 103.059907 
L 272.94336 104.534126 
L 273.30048 108.970583 
L 273.6576 106.297395 
L 274.01472 107.325624 
L 274.37184 102.972985 
L 275.4432 110.575875 
L 275.80032 105.250196 
L 276.15744 108.709817 
L 276.51456 108.809501 
L 276.87168 108.647386 
L 277.2288 103.541425 
L 277.58592 102.228632 
L 277.94304 107.221456 
L 278.30016 99.018048 
L 278.65728 103.54522 
L 279.0144 101.28767 
L 279.72864 110.380646 
L 280.08576 110.582773 
L 280.44288 107.324589 
L 280.8 97.928077 
L 281.15712 109.564203 
L 281.51424 103.750106 
L 281.87136 101.106583 
L 282.22848 103.718028 
L 282.94272 105.139474 
L 283.29984 109.26998 
L 283.65696 100.691635 
L 284.01408 100.248059 
L 284.3712 106.03732 
L 284.72832 104.96701 
L 285.08544 104.694863 
L 285.44256 101.783675 
L 285.79968 95.722956 
L 286.1568 104.285434 
L 286.51392 107.023123 
L 286.87104 104.107106 
L 287.22816 95.441151 
L 287.58528 100.843058 
L 287.9424 104.334413 
L 288.29952 99.307097 
L 288.65664 98.495483 
L 289.01376 95.888521 
L 289.37088 105.242262 
L 289.728 98.037764 
L 290.08512 97.153715 
L 290.44224 95.191768 
L 290.79936 100.615061 
L 291.15648 96.340721 
L 291.5136 102.014087 
L 291.87072 101.42978 
L 292.22784 96.693237 
L 292.58496 95.749171 
L 292.94208 101.353551 
L 293.2992 100.397757 
L 293.65632 92.170549 
L 294.01344 103.519005 
L 294.37056 98.209883 
L 294.72768 100.393618 
L 295.0848 101.679507 
L 295.44192 99.148775 
L 295.79904 92.406824 
L 296.15616 100.852027 
L 296.51328 104.20679 
L 296.8704 102.346252 
L 297.22752 94.585386 
L 297.58464 97.728019 
L 297.94176 91.980839 
L 298.29888 97.096112 
L 298.656 99.657543 
L 299.01312 97.356532 
L 299.37024 97.256848 
L 299.72736 92.717259 
L 300.08448 94.591249 
L 300.4416 92.859369 
L 300.79872 92.772102 
L 301.15584 103.379999 
L 301.51296 101.376316 
L 301.87008 94.537096 
L 302.2272 90.846373 
L 302.58432 102.350736 
L 302.94144 89.453901 
L 303.29856 100.653348 
L 303.65568 99.541992 
L 304.36992 94.2784 
L 304.72704 102.194139 
L 305.08416 89.453556 
L 305.44128 89.614637 
L 305.7984 101.507044 
L 306.15552 100.364299 
L 306.51264 90.203083 
L 306.86976 88.278733 
L 307.22688 92.999065 
L 307.584 101.33596 
L 307.94112 101.185571 
L 308.29824 90.760141 
L 308.65536 101.221444 
L 309.01248 90.095121 
L 309.3696 98.164352 
L 309.72672 89.619811 
L 310.08384 90.946057 
L 310.44096 90.334845 
L 310.79808 87.223945 
L 311.1552 96.185849 
L 311.51232 93.723067 
L 311.86944 96.94193 
L 312.22656 86.41647 
L 312.58368 93.159801 
L 312.9408 85.570363 
L 313.29792 88.040388 
L 313.65504 89.361805 
L 314.01216 92.650688 
L 314.36928 88.193881 
L 314.7264 90.302422 
L 315.08352 98.811091 
L 315.44064 88.275974 
L 315.79776 96.275185 
L 316.15488 96.62977 
L 316.512 85.525523 
L 316.86912 96.598037 
L 317.22624 87.234638 
L 317.58336 95.58602 
L 318.2976 86.607215 
L 318.65472 94.645748 
L 319.01184 88.548811 
L 319.36896 86.814861 
L 319.72608 95.58533 
L 320.0832 97.377918 
L 320.44032 90.626309 
L 320.79744 96.036495 
L 321.15456 90.653213 
L 321.51168 89.185202 
L 321.8688 94.754745 
L 322.22592 85.105746 
L 322.58304 96.002692 
L 322.94016 92.569975 
L 323.29728 85.725926 
L 323.6544 84.717013 
L 324.01152 82.80508 
L 324.36864 89.658788 
L 324.72576 83.23417 
L 325.08288 94.372221 
L 325.44 83.409048 
L 325.79712 94.289438 
L 326.15424 81.534368 
L 326.51136 89.438724 
L 326.86848 88.504316 
L 327.2256 89.487704 
L 327.58272 94.130771 
L 327.93984 83.896086 
L 328.29696 84.031642 
L 328.65408 94.631606 
L 329.0112 93.258795 
L 329.36832 87.700635 
L 329.72544 88.477067 
L 330.08256 80.846238 
L 330.43968 84.125463 
L 330.7968 91.268219 
L 331.15392 89.130359 
L 331.51104 81.696484 
L 331.86816 93.431949 
L 332.5824 83.999909 
L 332.93952 89.201414 
L 333.29664 90.366579 
L 333.65376 81.108728 
L 334.01088 78.025422 
L 334.368 85.895285 
L 334.72512 84.157196 
L 335.08224 80.658252 
L 335.43936 82.175933 
L 335.79648 82.685046 
L 336.1536 78.015419 
L 336.86784 88.005206 
L 337.22496 86.616183 
L 337.58208 83.56737 
L 337.9392 85.985656 
L 338.29632 87.145647 
L 338.65344 88.738177 
L 339.01056 76.958216 
L 339.7248 85.484821 
L 340.08192 86.741392 
L 340.43904 86.843145 
L 340.79616 82.808875 
L 341.15328 87.201525 
L 341.5104 88.184913 
L 341.86752 82.52224 
L 342.58176 84.983297 
L 342.93888 82.918217 
L 343.296 87.946223 
L 344.01024 76.353903 
L 344.36736 80.425081 
L 344.72448 78.539363 
L 345.0816 79.137123 
L 345.43872 86.371975 
L 345.79584 80.941438 
L 346.15296 88.994803 
L 346.51008 80.337815 
L 346.8672 80.845893 
L 347.22432 84.642509 
L 347.58144 83.750526 
L 347.93856 81.282226 
L 348.29568 76.235938 
L 348.6528 76.931657 
L 349.00992 74.268817 
L 349.36704 87.674076 
L 349.72416 75.238753 
L 350.08128 87.548177 
L 350.4384 77.730509 
L 350.79552 76.174541 
L 351.15264 76.325275 
L 351.86688 73.976664 
L 352.224 72.306525 
L 352.93824 78.013349 
L 353.29536 77.789491 
L 353.65248 73.931823 
L 354.0096 72.273757 
L 354.36672 80.378516 
L 354.72384 73.412708 
L 355.08096 77.317286 
L 355.43808 85.753175 
L 355.7952 84.776685 
L 356.86656 77.337636 
L 357.22368 81.605768 
L 357.5808 83.85297 
L 357.93792 74.911417 
L 358.29504 72.818398 
L 358.65216 80.468887 
L 359.00928 83.181051 
L 359.3664 79.091247 
L 359.72352 83.249692 
L 360.08064 79.553105 
L 360.43776 83.478379 
L 360.79488 77.934706 
L 361.152 82.881309 
L 361.50912 73.990806 
L 361.86624 79.004326 
L 362.22336 80.407835 
L 362.58048 69.654724 
L 362.9376 68.982805 
L 363.29472 79.07745 
L 363.65184 78.98432 
L 364.00896 77.007541 
L 364.7232 79.665206 
L 365.08032 77.941949 
L 365.43744 82.040721 
L 365.79456 70.665361 
L 366.15168 72.875311 
L 366.5088 79.894583 
L 366.86592 80.749313 
L 367.22304 69.431556 
L 367.58016 78.193056 
L 367.93728 71.920552 
L 368.2944 78.50763 
L 368.65152 72.229262 
L 369.00864 74.016331 
L 369.72288 71.673584 
L 370.08 67.843855 
L 370.43712 70.470822 
L 370.79424 67.749 
L 371.15136 79.183343 
L 371.50848 66.074032 
L 371.8656 72.40207 
L 372.22272 71.307961 
L 372.57984 69.663692 
L 372.93696 66.239943 
L 373.29408 70.398042 
L 373.6512 77.715677 
L 374.00832 68.884156 
L 374.72256 78.792195 
L 375.07968 66.20407 
L 375.4368 66.141983 
L 375.79392 72.960508 
L 376.15104 74.038406 
L 376.50816 70.017242 
L 376.86528 77.839506 
L 377.2224 65.768427 
L 377.57952 75.369481 
L 377.93664 73.717968 
L 378.29376 75.940336 
L 378.65088 74.808974 
L 379.008 70.629144 
L 379.36512 64.472535 
L 379.72224 78.473827 
L 380.07936 77.162758 
L 380.43648 73.548264 
L 380.7936 65.781189 
L 381.15072 64.609816 
L 381.50784 78.448992 
L 381.86496 77.871929 
L 382.22208 64.429764 
L 382.5792 61.897307 
L 382.93632 69.896863 
L 383.29344 70.79057 
L 383.65056 69.76648 
L 384.00768 76.501877 
L 384.3648 62.020791 
L 384.72192 69.744405 
L 385.07904 64.381474 
L 385.43616 62.07115 
L 385.79328 64.987856 
L 386.1504 61.211936 
L 386.50752 70.846793 
L 386.86464 66.312722 
L 387.22176 71.692555 
L 387.57888 67.435116 
L 387.936 73.743838 
L 388.29312 61.928005 
L 388.65024 73.027079 
L 389.36448 66.329279 
L 389.7216 65.066844 
L 390.07872 71.889163 
L 390.43584 75.508831 
L 390.79296 70.839549 
L 391.15008 74.627887 
L 391.5072 59.3852 
L 391.86432 64.464946 
L 392.22144 66.863226 
L 392.57856 73.709345 
L 392.93568 70.123135 
L 393.2928 61.45304 
L 393.64992 64.320077 
L 394.00704 68.535779 
L 394.36416 58.739841 
L 394.72128 62.092191 
L 395.0784 59.556974 
L 395.43552 66.343076 
L 395.79264 64.807114 
L 396.50688 71.067546 
L 396.864 67.463745 
L 397.22112 69.897897 
L 397.57824 73.251971 
L 397.93536 68.893469 
L 398.29248 70.880596 
L 398.6496 63.006938 
L 399.00672 59.039928 
L 399.36384 70.361825 
L 399.72096 57.288732 
L 400.07808 66.577282 
L 400.4352 68.016664 
L 400.79232 62.836889 
L 401.14944 72.157517 
L 401.50656 62.211191 
L 401.86368 56.317416 
L 402.2208 65.816027 
L 402.57792 67.999072 
L 402.93504 56.77341 
L 403.29216 57.559155 
L 404.0064 72.157862 
L 404.36352 62.480579 
L 404.72064 67.17849 
L 405.07776 61.416823 
L 405.792 71.583558 
L 406.14912 55.288498 
L 406.50624 56.078037 
L 406.86336 59.654934 
L 407.22048 55.193643 
L 407.5776 60.818719 
L 407.93472 54.832504 
L 408.29184 63.8289 
L 408.64896 63.609871 
L 409.00608 67.149516 
L 409.72032 64.782969 
L 410.07744 61.173994 
L 410.43456 54.000884 
L 410.79168 66.944629 
L 411.1488 59.17376 
L 411.50592 59.88707 
L 411.86304 53.568 
L 412.57728 67.643797 
L 412.9344 55.502353 
L 413.29152 61.339214 
L 413.64864 61.750023 
L 414.00576 64.596708 
L 414.36288 62.964857 
L 414.72 67.690362 
L 414.72 67.690362 
" style="fill:none;stroke:#000080;stroke-linecap:square;stroke-width:0.5;"/>
   </g>
   <g id="patch_3">
    <path d="M 57.6 307.584 
L 57.6 41.472 
" style="fill:none;stroke:#000000;stroke-linecap:square;stroke-linejoin:miter;stroke-width:0.8;"/>
   </g>
   <g id="patch_4">
    <path d="M 414.72 307.584 
L 414.72 41.472 
" style="fill:none;stroke:#000000;stroke-linecap:square;stroke-linejoin:miter;stroke-width:0.8;"/>
   </g>
   <g id="patch_5">
    <path d="M 57.6 307.584 
L 414.72 307.584 
" style="fill:none;stroke:#000000;stroke-linecap:square;stroke-linejoin:miter;stroke-width:0.8;"/>
   </g>
   <g id="patch_6">
    <path d="M 57.6 41.472 
L 414.72 41.472 
" style="fill:none;stroke:#000000;stroke-linecap:square;stroke-linejoin:miter;stroke-width:0.8;"/>
   </g>
   <g id="text_17">
    <!-- Test -->
    <defs>
     <path d="M -0.296875 72.90625 
L 61.375 72.90625 
L 61.375 64.59375 
L 35.5 64.59375 
L 35.5 0 
L 25.59375 0 
L 25.59375 64.59375 
L -0.296875 64.59375 
z
" id="DejaVuSans-54"/>
    </defs>
    <g transform="translate(223.341563 35.472)scale(0.12 -0.12)">
     <use xlink:href="#DejaVuSans-54"/>
     <use x="60.818359" xlink:href="#DejaVuSans-65"/>
     <use x="122.341797" xlink:href="#DejaVuSans-73"/>
     <use x="174.441406" xlink:href="#DejaVuSans-74"/>
    </g>
   </g>
   <g id="legend_1">
    <g id="patch_7">
     <path d="M 64.6 64.150125 
L 306.276563 64.150125 
Q 308.276563 64.150125 308.276563 62.150125 
L 308.276563 48.472 
Q 308.276563 46.472 306.276563 46.472 
L 64.6 46.472 
Q 62.6 46.472 62.6 48.472 
L 62.6 62.150125 
Q 62.6 64.150125 64.6 64.150125 
z
" style="fill:#ffffff;opacity:0.8;stroke:#cccccc;stroke-linejoin:miter;"/>
    </g>
    <g id="line2d_30">
     <path d="M 66.6 54.570438 
L 86.6 54.570438 
" style="fill:none;stroke:#000080;stroke-linecap:square;stroke-width:0.5;"/>
    </g>
    <g id="line2d_31"/>
    <g id="text_18">
     <!-- Successful download requests per second -->
     <g transform="translate(94.6 58.070438)scale(0.1 -0.1)">
      <use xlink:href="#DejaVuSans-53"/>
      <use x="63.476562" xlink:href="#DejaVuSans-75"/>
      <use x="126.855469" xlink:href="#DejaVuSans-63"/>
      <use x="181.835938" xlink:href="#DejaVuSans-63"/>
      <use x="236.816406" xlink:href="#DejaVuSans-65"/>
      <use x="298.339844" xlink:href="#DejaVuSans-73"/>
      <use x="350.439453" xlink:href="#DejaVuSans-73"/>
      <use x="402.539062" xlink:href="#DejaVuSans-66"/>
      <use x="437.744141" xlink:href="#DejaVuSans-75"/>
      <use x="501.123047" xlink:href="#DejaVuSans-6c"/>
      <use x="528.90625" xlink:href="#DejaVuSans-20"/>
      <use x="560.693359" xlink:href="#DejaVuSans-64"/>
      <use x="624.169922" xlink:href="#DejaVuSans-6f"/>
      <use x="685.351562" xlink:href="#DejaVuSans-77"/>
      <use x="767.138672" xlink:href="#DejaVuSans-6e"/>
      <use x="830.517578" xlink:href="#DejaVuSans-6c"/>
      <use x="858.300781" xlink:href="#DejaVuSans-6f"/>
      <use x="919.482422" xlink:href="#DejaVuSans-61"/>
      <use x="980.761719" xlink:href="#DejaVuSans-64"/>
      <use x="1044.238281" xlink:href="#DejaVuSans-20"/>
      <use x="1076.025391" xlink:href="#DejaVuSans-72"/>
      <use x="1117.107422" xlink:href="#DejaVuSans-65"/>
      <use x="1178.630859" xlink:href="#DejaVuSans-71"/>
      <use x="1242.107422" xlink:href="#DejaVuSans-75"/>
      <use x="1305.486328" xlink:href="#DejaVuSans-65"/>
      <use x="1367.009766" xlink:href="#DejaVuSans-73"/>
      <use x="1419.109375" xlink:href="#DejaVuSans-74"/>
      <use x="1458.318359" xlink:href="#DejaVuSans-73"/>
      <use x="1510.417969" xlink:href="#DejaVuSans-20"/>
      <use x="1542.205078" xlink:href="#DejaVuSans-70"/>
      <use x="1605.681641" xlink:href="#DejaVuSans-65"/>
      <use x="1667.205078" xlink:href="#DejaVuSans-72"/>
      <use x="1708.318359" xlink:href="#DejaVuSans-20"/>
      <use x="1740.105469" xlink:href="#DejaVuSans-73"/>
      <use x="1792.205078" xlink:href="#DejaVuSans-65"/>
      <use x="1853.728516" xlink:href="#DejaVuSans-63"/>
      <use x="1908.708984" xlink:href="#DejaVuSans-6f"/>
      <use x="1969.890625" xlink:href="#DejaVuSans-6e"/>
      <use x="2033.269531" xlink:href="#DejaVuSans-64"/>
     </g>
    </g>
   </g>
  </g>
 </g>
 <defs>
  <clipPath id="pfe7cf1fcb7">
   <rect height="266.112" width="357.12" x="57.6" y="41.472"/>
  </clipPath>
 </defs>
</svg>
