<?xml version="1.0" encoding="utf-8" standalone="no"?>
<!DOCTYPE svg PUBLIC "-//W3C//DTD SVG 1.1//EN"
  "http://www.w3.org/Graphics/SVG/1.1/DTD/svg11.dtd">
<!-- Created with matplotlib (http://matplotlib.org/) -->
<svg height="345pt" version="1.1" viewBox="0 0 460 345" width="460pt" xmlns="http://www.w3.org/2000/svg" xmlns:xlink="http://www.w3.org/1999/xlink">
 <defs>
  <style type="text/css">
*{stroke-linecap:butt;stroke-linejoin:round;}
  </style>
 </defs>
 <g id="figure_1">
  <g id="patch_1">
   <path d="M 0 345.6 
L 460.8 345.6 
L 460.8 0 
L 0 0 
z
" style="fill:#ffffff;"/>
  </g>
  <g id="axes_1">
   <g id="patch_2">
    <path d="M 57.6 307.584 
L 414.72 307.584 
L 414.72 41.472 
L 57.6 41.472 
z
" style="fill:#ffffff;"/>
   </g>
   <g id="matplotlib.axis_1">
    <g id="xtick_1">
     <g id="line2d_1">
      <path clip-path="url(#p90e60c2456)" d="M 57.6 307.584 
L 57.6 41.472 
" style="fill:none;stroke:#b0b0b0;stroke-linecap:square;stroke-width:0.8;"/>
     </g>
     <g id="line2d_2">
      <defs>
       <path d="M 0 0 
L 0 3.5 
" id="m34357c8834" style="stroke:#000000;stroke-width:0.8;"/>
      </defs>
      <g>
       <use style="stroke:#000000;stroke-width:0.8;" x="57.6" xlink:href="#m34357c8834" y="307.584"/>
      </g>
     </g>
     <g id="text_1">
      <!-- 0 -->
      <defs>
       <path d="M 31.78125 66.40625 
Q 24.171875 66.40625 20.328125 58.90625 
Q 16.5 51.421875 16.5 36.375 
Q 16.5 21.390625 20.328125 13.890625 
Q 24.171875 6.390625 31.78125 6.390625 
Q 39.453125 6.390625 43.28125 13.890625 
Q 47.125 21.390625 47.125 36.375 
Q 47.125 51.421875 43.28125 58.90625 
Q 39.453125 66.40625 31.78125 66.40625 
M 31.78125 74.21875 
Q 44.046875 74.21875 50.515625 64.515625 
Q 56.984375 54.828125 56.984375 36.375 
Q 56.984375 17.96875 50.515625 8.265625 
Q 44.046875 -1.421875 31.78125 -1.421875 
Q 19.53125 -1.421875 13.0625 8.265625 
Q 6.59375 17.96875 6.59375 36.375 
Q 6.59375 54.828125 13.0625 64.515625 
Q 19.53125 74.21875 31.78125 74.21875 
" id="DejaVuSans-30"/>
      </defs>
      <g transform="translate(54.41875 322.182437)scale(0.1 -0.1)">
       <use xlink:href="#DejaVuSans-30"/>
      </g>
     </g>
    </g>
    <g id="xtick_2">
     <g id="line2d_3">
      <path clip-path="url(#p90e60c2456)" d="M 129.024 307.584 
L 129.024 41.472 
" style="fill:none;stroke:#b0b0b0;stroke-linecap:square;stroke-width:0.8;"/>
     </g>
     <g id="line2d_4">
      <g>
       <use style="stroke:#000000;stroke-width:0.8;" x="129.024" xlink:href="#m34357c8834" y="307.584"/>
      </g>
     </g>
     <g id="text_2">
      <!-- 200 -->
      <defs>
       <path d="M 19.1875 8.296875 
L 53.609375 8.296875 
L 53.609375 0 
L 7.328125 0 
L 7.328125 8.296875 
Q 12.9375 14.109375 22.625 23.890625 
Q 32.328125 33.6875 34.8125 36.53125 
Q 39.546875 41.84375 41.421875 45.53125 
Q 43.3125 49.21875 43.3125 52.78125 
Q 43.3125 58.59375 39.234375 62.25 
Q 35.15625 65.921875 28.609375 65.921875 
Q 23.96875 65.921875 18.8125 64.3125 
Q 13.671875 62.703125 7.8125 59.421875 
L 7.8125 69.390625 
Q 13.765625 71.78125 18.9375 73 
Q 24.125 74.21875 28.421875 74.21875 
Q 39.75 74.21875 46.484375 68.546875 
Q 53.21875 62.890625 53.21875 53.421875 
Q 53.21875 48.921875 51.53125 44.890625 
Q 49.859375 40.875 45.40625 35.40625 
Q 44.1875 33.984375 37.640625 27.21875 
Q 31.109375 20.453125 19.1875 8.296875 
" id="DejaVuSans-32"/>
      </defs>
      <g transform="translate(119.48025 322.182437)scale(0.1 -0.1)">
       <use xlink:href="#DejaVuSans-32"/>
       <use x="63.623047" xlink:href="#DejaVuSans-30"/>
       <use x="127.246094" xlink:href="#DejaVuSans-30"/>
      </g>
     </g>
    </g>
    <g id="xtick_3">
     <g id="line2d_5">
      <path clip-path="url(#p90e60c2456)" d="M 200.448 307.584 
L 200.448 41.472 
" style="fill:none;stroke:#b0b0b0;stroke-linecap:square;stroke-width:0.8;"/>
     </g>
     <g id="line2d_6">
      <g>
       <use style="stroke:#000000;stroke-width:0.8;" x="200.448" xlink:href="#m34357c8834" y="307.584"/>
      </g>
     </g>
     <g id="text_3">
      <!-- 400 -->
      <defs>
       <path d="M 37.796875 64.3125 
L 12.890625 25.390625 
L 37.796875 25.390625 
z
M 35.203125 72.90625 
L 47.609375 72.90625 
L 47.609375 25.390625 
L 58.015625 25.390625 
L 58.015625 17.1875 
L 47.609375 17.1875 
L 47.609375 0 
L 37.796875 0 
L 37.796875 17.1875 
L 4.890625 17.1875 
L 4.890625 26.703125 
z
" id="DejaVuSans-34"/>
      </defs>
      <g transform="translate(190.90425 322.182437)scale(0.1 -0.1)">
       <use xlink:href="#DejaVuSans-34"/>
       <use x="63.623047" xlink:href="#DejaVuSans-30"/>
       <use x="127.246094" xlink:href="#DejaVuSans-30"/>
      </g>
     </g>
    </g>
    <g id="xtick_4">
     <g id="line2d_7">
      <path clip-path="url(#p90e60c2456)" d="M 271.872 307.584 
L 271.872 41.472 
" style="fill:none;stroke:#b0b0b0;stroke-linecap:square;stroke-width:0.8;"/>
     </g>
     <g id="line2d_8">
      <g>
       <use style="stroke:#000000;stroke-width:0.8;" x="271.872" xlink:href="#m34357c8834" y="307.584"/>
      </g>
     </g>
     <g id="text_4">
      <!-- 600 -->
      <defs>
       <path d="M 33.015625 40.375 
Q 26.375 40.375 22.484375 35.828125 
Q 18.609375 31.296875 18.609375 23.390625 
Q 18.609375 15.53125 22.484375 10.953125 
Q 26.375 6.390625 33.015625 6.390625 
Q 39.65625 6.390625 43.53125 10.953125 
Q 47.40625 15.53125 47.40625 23.390625 
Q 47.40625 31.296875 43.53125 35.828125 
Q 39.65625 40.375 33.015625 40.375 
M 52.59375 71.296875 
L 52.59375 62.3125 
Q 48.875 64.0625 45.09375 64.984375 
Q 41.3125 65.921875 37.59375 65.921875 
Q 27.828125 65.921875 22.671875 59.328125 
Q 17.53125 52.734375 16.796875 39.40625 
Q 19.671875 43.65625 24.015625 45.921875 
Q 28.375 48.1875 33.59375 48.1875 
Q 44.578125 48.1875 50.953125 41.515625 
Q 57.328125 34.859375 57.328125 23.390625 
Q 57.328125 12.15625 50.6875 5.359375 
Q 44.046875 -1.421875 33.015625 -1.421875 
Q 20.359375 -1.421875 13.671875 8.265625 
Q 6.984375 17.96875 6.984375 36.375 
Q 6.984375 53.65625 15.1875 63.9375 
Q 23.390625 74.21875 37.203125 74.21875 
Q 40.921875 74.21875 44.703125 73.484375 
Q 48.484375 72.75 52.59375 71.296875 
" id="DejaVuSans-36"/>
      </defs>
      <g transform="translate(262.32825 322.182437)scale(0.1 -0.1)">
       <use xlink:href="#DejaVuSans-36"/>
       <use x="63.623047" xlink:href="#DejaVuSans-30"/>
       <use x="127.246094" xlink:href="#DejaVuSans-30"/>
      </g>
     </g>
    </g>
    <g id="xtick_5">
     <g id="line2d_9">
      <path clip-path="url(#p90e60c2456)" d="M 343.296 307.584 
L 343.296 41.472 
" style="fill:none;stroke:#b0b0b0;stroke-linecap:square;stroke-width:0.8;"/>
     </g>
     <g id="line2d_10">
      <g>
       <use style="stroke:#000000;stroke-width:0.8;" x="343.296" xlink:href="#m34357c8834" y="307.584"/>
      </g>
     </g>
     <g id="text_5">
      <!-- 800 -->
      <defs>
       <path d="M 31.78125 34.625 
Q 24.75 34.625 20.71875 30.859375 
Q 16.703125 27.09375 16.703125 20.515625 
Q 16.703125 13.921875 20.71875 10.15625 
Q 24.75 6.390625 31.78125 6.390625 
Q 38.8125 6.390625 42.859375 10.171875 
Q 46.921875 13.96875 46.921875 20.515625 
Q 46.921875 27.09375 42.890625 30.859375 
Q 38.875 34.625 31.78125 34.625 
M 21.921875 38.8125 
Q 15.578125 40.375 12.03125 44.71875 
Q 8.5 49.078125 8.5 55.328125 
Q 8.5 64.0625 14.71875 69.140625 
Q 20.953125 74.21875 31.78125 74.21875 
Q 42.671875 74.21875 48.875 69.140625 
Q 55.078125 64.0625 55.078125 55.328125 
Q 55.078125 49.078125 51.53125 44.71875 
Q 48 40.375 41.703125 38.8125 
Q 48.828125 37.15625 52.796875 32.3125 
Q 56.78125 27.484375 56.78125 20.515625 
Q 56.78125 9.90625 50.3125 4.234375 
Q 43.84375 -1.421875 31.78125 -1.421875 
Q 19.734375 -1.421875 13.25 4.234375 
Q 6.78125 9.90625 6.78125 20.515625 
Q 6.78125 27.484375 10.78125 32.3125 
Q 14.796875 37.15625 21.921875 38.8125 
M 18.3125 54.390625 
Q 18.3125 48.734375 21.84375 45.5625 
Q 25.390625 42.390625 31.78125 42.390625 
Q 38.140625 42.390625 41.71875 45.5625 
Q 45.3125 48.734375 45.3125 54.390625 
Q 45.3125 60.0625 41.71875 63.234375 
Q 38.140625 66.40625 31.78125 66.40625 
Q 25.390625 66.40625 21.84375 63.234375 
Q 18.3125 60.0625 18.3125 54.390625 
" id="DejaVuSans-38"/>
      </defs>
      <g transform="translate(333.75225 322.182437)scale(0.1 -0.1)">
       <use xlink:href="#DejaVuSans-38"/>
       <use x="63.623047" xlink:href="#DejaVuSans-30"/>
       <use x="127.246094" xlink:href="#DejaVuSans-30"/>
      </g>
     </g>
    </g>
    <g id="xtick_6">
     <g id="line2d_11">
      <path clip-path="url(#p90e60c2456)" d="M 414.72 307.584 
L 414.72 41.472 
" style="fill:none;stroke:#b0b0b0;stroke-linecap:square;stroke-width:0.8;"/>
     </g>
     <g id="line2d_12">
      <g>
       <use style="stroke:#000000;stroke-width:0.8;" x="414.72" xlink:href="#m34357c8834" y="307.584"/>
      </g>
     </g>
     <g id="text_6">
      <!-- 1000 -->
      <defs>
       <path d="M 12.40625 8.296875 
L 28.515625 8.296875 
L 28.515625 63.921875 
L 10.984375 60.40625 
L 10.984375 69.390625 
L 28.421875 72.90625 
L 38.28125 72.90625 
L 38.28125 8.296875 
L 54.390625 8.296875 
L 54.390625 0 
L 12.40625 0 
z
" id="DejaVuSans-31"/>
      </defs>
      <g transform="translate(401.995 322.182437)scale(0.1 -0.1)">
       <use xlink:href="#DejaVuSans-31"/>
       <use x="63.623047" xlink:href="#DejaVuSans-30"/>
       <use x="127.246094" xlink:href="#DejaVuSans-30"/>
       <use x="190.869141" xlink:href="#DejaVuSans-30"/>
      </g>
     </g>
    </g>
    <g id="text_7">
     <!-- Number of clients -->
     <defs>
      <path d="M 9.8125 72.90625 
L 23.09375 72.90625 
L 55.421875 11.921875 
L 55.421875 72.90625 
L 64.984375 72.90625 
L 64.984375 0 
L 51.703125 0 
L 19.390625 60.984375 
L 19.390625 0 
L 9.8125 0 
z
" id="DejaVuSans-4e"/>
      <path d="M 8.5 21.578125 
L 8.5 54.6875 
L 17.484375 54.6875 
L 17.484375 21.921875 
Q 17.484375 14.15625 20.5 10.265625 
Q 23.53125 6.390625 29.59375 6.390625 
Q 36.859375 6.390625 41.078125 11.03125 
Q 45.3125 15.671875 45.3125 23.6875 
L 45.3125 54.6875 
L 54.296875 54.6875 
L 54.296875 0 
L 45.3125 0 
L 45.3125 8.40625 
Q 42.046875 3.421875 37.71875 1 
Q 33.40625 -1.421875 27.6875 -1.421875 
Q 18.265625 -1.421875 13.375 4.4375 
Q 8.5 10.296875 8.5 21.578125 
M 31.109375 56 
z
" id="DejaVuSans-75"/>
      <path d="M 52 44.1875 
Q 55.375 50.25 60.0625 53.125 
Q 64.75 56 71.09375 56 
Q 79.640625 56 84.28125 50.015625 
Q 88.921875 44.046875 88.921875 33.015625 
L 88.921875 0 
L 79.890625 0 
L 79.890625 32.71875 
Q 79.890625 40.578125 77.09375 44.375 
Q 74.3125 48.1875 68.609375 48.1875 
Q 61.625 48.1875 57.5625 43.546875 
Q 53.515625 38.921875 53.515625 30.90625 
L 53.515625 0 
L 44.484375 0 
L 44.484375 32.71875 
Q 44.484375 40.625 41.703125 44.40625 
Q 38.921875 48.1875 33.109375 48.1875 
Q 26.21875 48.1875 22.15625 43.53125 
Q 18.109375 38.875 18.109375 30.90625 
L 18.109375 0 
L 9.078125 0 
L 9.078125 54.6875 
L 18.109375 54.6875 
L 18.109375 46.1875 
Q 21.1875 51.21875 25.484375 53.609375 
Q 29.78125 56 35.6875 56 
Q 41.65625 56 45.828125 52.96875 
Q 50 49.953125 52 44.1875 
" id="DejaVuSans-6d"/>
      <path d="M 48.6875 27.296875 
Q 48.6875 37.203125 44.609375 42.84375 
Q 40.53125 48.484375 33.40625 48.484375 
Q 26.265625 48.484375 22.1875 42.84375 
Q 18.109375 37.203125 18.109375 27.296875 
Q 18.109375 17.390625 22.1875 11.75 
Q 26.265625 6.109375 33.40625 6.109375 
Q 40.53125 6.109375 44.609375 11.75 
Q 48.6875 17.390625 48.6875 27.296875 
M 18.109375 46.390625 
Q 20.953125 51.265625 25.265625 53.625 
Q 29.59375 56 35.59375 56 
Q 45.5625 56 51.78125 48.09375 
Q 58.015625 40.1875 58.015625 27.296875 
Q 58.015625 14.40625 51.78125 6.484375 
Q 45.5625 -1.421875 35.59375 -1.421875 
Q 29.59375 -1.421875 25.265625 0.953125 
Q 20.953125 3.328125 18.109375 8.203125 
L 18.109375 0 
L 9.078125 0 
L 9.078125 75.984375 
L 18.109375 75.984375 
z
" id="DejaVuSans-62"/>
      <path d="M 56.203125 29.59375 
L 56.203125 25.203125 
L 14.890625 25.203125 
Q 15.484375 15.921875 20.484375 11.0625 
Q 25.484375 6.203125 34.421875 6.203125 
Q 39.59375 6.203125 44.453125 7.46875 
Q 49.3125 8.734375 54.109375 11.28125 
L 54.109375 2.78125 
Q 49.265625 0.734375 44.1875 -0.34375 
Q 39.109375 -1.421875 33.890625 -1.421875 
Q 20.796875 -1.421875 13.15625 6.1875 
Q 5.515625 13.8125 5.515625 26.8125 
Q 5.515625 40.234375 12.765625 48.109375 
Q 20.015625 56 32.328125 56 
Q 43.359375 56 49.78125 48.890625 
Q 56.203125 41.796875 56.203125 29.59375 
M 47.21875 32.234375 
Q 47.125 39.59375 43.09375 43.984375 
Q 39.0625 48.390625 32.421875 48.390625 
Q 24.90625 48.390625 20.390625 44.140625 
Q 15.875 39.890625 15.1875 32.171875 
z
" id="DejaVuSans-65"/>
      <path d="M 41.109375 46.296875 
Q 39.59375 47.171875 37.8125 47.578125 
Q 36.03125 48 33.890625 48 
Q 26.265625 48 22.1875 43.046875 
Q 18.109375 38.09375 18.109375 28.8125 
L 18.109375 0 
L 9.078125 0 
L 9.078125 54.6875 
L 18.109375 54.6875 
L 18.109375 46.1875 
Q 20.953125 51.171875 25.484375 53.578125 
Q 30.03125 56 36.53125 56 
Q 37.453125 56 38.578125 55.875 
Q 39.703125 55.765625 41.0625 55.515625 
z
" id="DejaVuSans-72"/>
      <path id="DejaVuSans-20"/>
      <path d="M 30.609375 48.390625 
Q 23.390625 48.390625 19.1875 42.75 
Q 14.984375 37.109375 14.984375 27.296875 
Q 14.984375 17.484375 19.15625 11.84375 
Q 23.34375 6.203125 30.609375 6.203125 
Q 37.796875 6.203125 41.984375 11.859375 
Q 46.1875 17.53125 46.1875 27.296875 
Q 46.1875 37.015625 41.984375 42.703125 
Q 37.796875 48.390625 30.609375 48.390625 
M 30.609375 56 
Q 42.328125 56 49.015625 48.375 
Q 55.71875 40.765625 55.71875 27.296875 
Q 55.71875 13.875 49.015625 6.21875 
Q 42.328125 -1.421875 30.609375 -1.421875 
Q 18.84375 -1.421875 12.171875 6.21875 
Q 5.515625 13.875 5.515625 27.296875 
Q 5.515625 40.765625 12.171875 48.375 
Q 18.84375 56 30.609375 56 
" id="DejaVuSans-6f"/>
      <path d="M 37.109375 75.984375 
L 37.109375 68.5 
L 28.515625 68.5 
Q 23.6875 68.5 21.796875 66.546875 
Q 19.921875 64.59375 19.921875 59.515625 
L 19.921875 54.6875 
L 34.71875 54.6875 
L 34.71875 47.703125 
L 19.921875 47.703125 
L 19.921875 0 
L 10.890625 0 
L 10.890625 47.703125 
L 2.296875 47.703125 
L 2.296875 54.6875 
L 10.890625 54.6875 
L 10.890625 58.5 
Q 10.890625 67.625 15.140625 71.796875 
Q 19.390625 75.984375 28.609375 75.984375 
z
" id="DejaVuSans-66"/>
      <path d="M 48.78125 52.59375 
L 48.78125 44.1875 
Q 44.96875 46.296875 41.140625 47.34375 
Q 37.3125 48.390625 33.40625 48.390625 
Q 24.65625 48.390625 19.8125 42.84375 
Q 14.984375 37.3125 14.984375 27.296875 
Q 14.984375 17.28125 19.8125 11.734375 
Q 24.65625 6.203125 33.40625 6.203125 
Q 37.3125 6.203125 41.140625 7.25 
Q 44.96875 8.296875 48.78125 10.40625 
L 48.78125 2.09375 
Q 45.015625 0.34375 40.984375 -0.53125 
Q 36.96875 -1.421875 32.421875 -1.421875 
Q 20.0625 -1.421875 12.78125 6.34375 
Q 5.515625 14.109375 5.515625 27.296875 
Q 5.515625 40.671875 12.859375 48.328125 
Q 20.21875 56 33.015625 56 
Q 37.15625 56 41.109375 55.140625 
Q 45.0625 54.296875 48.78125 52.59375 
" id="DejaVuSans-63"/>
      <path d="M 9.421875 75.984375 
L 18.40625 75.984375 
L 18.40625 0 
L 9.421875 0 
z
" id="DejaVuSans-6c"/>
      <path d="M 9.421875 54.6875 
L 18.40625 54.6875 
L 18.40625 0 
L 9.421875 0 
z
M 9.421875 75.984375 
L 18.40625 75.984375 
L 18.40625 64.59375 
L 9.421875 64.59375 
z
" id="DejaVuSans-69"/>
      <path d="M 54.890625 33.015625 
L 54.890625 0 
L 45.90625 0 
L 45.90625 32.71875 
Q 45.90625 40.484375 42.875 44.328125 
Q 39.84375 48.1875 33.796875 48.1875 
Q 26.515625 48.1875 22.3125 43.546875 
Q 18.109375 38.921875 18.109375 30.90625 
L 18.109375 0 
L 9.078125 0 
L 9.078125 54.6875 
L 18.109375 54.6875 
L 18.109375 46.1875 
Q 21.34375 51.125 25.703125 53.5625 
Q 30.078125 56 35.796875 56 
Q 45.21875 56 50.046875 50.171875 
Q 54.890625 44.34375 54.890625 33.015625 
" id="DejaVuSans-6e"/>
      <path d="M 18.3125 70.21875 
L 18.3125 54.6875 
L 36.8125 54.6875 
L 36.8125 47.703125 
L 18.3125 47.703125 
L 18.3125 18.015625 
Q 18.3125 11.328125 20.140625 9.421875 
Q 21.96875 7.515625 27.59375 7.515625 
L 36.8125 7.515625 
L 36.8125 0 
L 27.59375 0 
Q 17.1875 0 13.234375 3.875 
Q 9.28125 7.765625 9.28125 18.015625 
L 9.28125 47.703125 
L 2.6875 47.703125 
L 2.6875 54.6875 
L 9.28125 54.6875 
L 9.28125 70.21875 
z
" id="DejaVuSans-74"/>
      <path d="M 44.28125 53.078125 
L 44.28125 44.578125 
Q 40.484375 46.53125 36.375 47.5 
Q 32.28125 48.484375 27.875 48.484375 
Q 21.1875 48.484375 17.84375 46.4375 
Q 14.5 44.390625 14.5 40.28125 
Q 14.5 37.15625 16.890625 35.375 
Q 19.28125 33.59375 26.515625 31.984375 
L 29.59375 31.296875 
Q 39.15625 29.25 43.1875 25.515625 
Q 47.21875 21.78125 47.21875 15.09375 
Q 47.21875 7.46875 41.1875 3.015625 
Q 35.15625 -1.421875 24.609375 -1.421875 
Q 20.21875 -1.421875 15.453125 -0.5625 
Q 10.6875 0.296875 5.421875 2 
L 5.421875 11.28125 
Q 10.40625 8.6875 15.234375 7.390625 
Q 20.0625 6.109375 24.8125 6.109375 
Q 31.15625 6.109375 34.5625 8.28125 
Q 37.984375 10.453125 37.984375 14.40625 
Q 37.984375 18.0625 35.515625 20.015625 
Q 33.0625 21.96875 24.703125 23.78125 
L 21.578125 24.515625 
Q 13.234375 26.265625 9.515625 29.90625 
Q 5.8125 33.546875 5.8125 39.890625 
Q 5.8125 47.609375 11.28125 51.796875 
Q 16.75 56 26.8125 56 
Q 31.78125 56 36.171875 55.265625 
Q 40.578125 54.546875 44.28125 53.078125 
" id="DejaVuSans-73"/>
     </defs>
     <g transform="translate(191.738906 335.860562)scale(0.1 -0.1)">
      <use xlink:href="#DejaVuSans-4e"/>
      <use x="74.804688" xlink:href="#DejaVuSans-75"/>
      <use x="138.183594" xlink:href="#DejaVuSans-6d"/>
      <use x="235.595703" xlink:href="#DejaVuSans-62"/>
      <use x="299.072266" xlink:href="#DejaVuSans-65"/>
      <use x="360.595703" xlink:href="#DejaVuSans-72"/>
      <use x="401.708984" xlink:href="#DejaVuSans-20"/>
      <use x="433.496094" xlink:href="#DejaVuSans-6f"/>
      <use x="494.677734" xlink:href="#DejaVuSans-66"/>
      <use x="529.882812" xlink:href="#DejaVuSans-20"/>
      <use x="561.669922" xlink:href="#DejaVuSans-63"/>
      <use x="616.650391" xlink:href="#DejaVuSans-6c"/>
      <use x="644.433594" xlink:href="#DejaVuSans-69"/>
      <use x="672.216797" xlink:href="#DejaVuSans-65"/>
      <use x="733.740234" xlink:href="#DejaVuSans-6e"/>
      <use x="797.119141" xlink:href="#DejaVuSans-74"/>
      <use x="836.328125" xlink:href="#DejaVuSans-73"/>
     </g>
    </g>
   </g>
   <g id="matplotlib.axis_2">
    <g id="ytick_1">
     <g id="line2d_13">
      <path clip-path="url(#p90e60c2456)" d="M 57.6 295.79871 
L 414.72 295.79871 
" style="fill:none;stroke:#b0b0b0;stroke-linecap:square;stroke-width:0.8;"/>
     </g>
     <g id="line2d_14">
      <defs>
       <path d="M 0 0 
L -3.5 0 
" id="mf57d671cc6" style="stroke:#000000;stroke-width:0.8;"/>
      </defs>
      <g>
       <use style="stroke:#000000;stroke-width:0.8;" x="57.6" xlink:href="#mf57d671cc6" y="295.79871"/>
      </g>
     </g>
     <g id="text_8">
      <!-- 0 -->
      <g transform="translate(44.2375 299.597929)scale(0.1 -0.1)">
       <use xlink:href="#DejaVuSans-30"/>
      </g>
     </g>
    </g>
    <g id="ytick_2">
     <g id="line2d_15">
      <path clip-path="url(#p90e60c2456)" d="M 57.6 263.399332 
L 414.72 263.399332 
" style="fill:none;stroke:#b0b0b0;stroke-linecap:square;stroke-width:0.8;"/>
     </g>
     <g id="line2d_16">
      <g>
       <use style="stroke:#000000;stroke-width:0.8;" x="57.6" xlink:href="#mf57d671cc6" y="263.399332"/>
      </g>
     </g>
     <g id="text_9">
      <!-- 100 -->
      <g transform="translate(31.5125 267.198551)scale(0.1 -0.1)">
       <use xlink:href="#DejaVuSans-31"/>
       <use x="63.623047" xlink:href="#DejaVuSans-30"/>
       <use x="127.246094" xlink:href="#DejaVuSans-30"/>
      </g>
     </g>
    </g>
    <g id="ytick_3">
     <g id="line2d_17">
      <path clip-path="url(#p90e60c2456)" d="M 57.6 230.999954 
L 414.72 230.999954 
" style="fill:none;stroke:#b0b0b0;stroke-linecap:square;stroke-width:0.8;"/>
     </g>
     <g id="line2d_18">
      <g>
       <use style="stroke:#000000;stroke-width:0.8;" x="57.6" xlink:href="#mf57d671cc6" y="230.999954"/>
      </g>
     </g>
     <g id="text_10">
      <!-- 200 -->
      <g transform="translate(31.5125 234.799173)scale(0.1 -0.1)">
       <use xlink:href="#DejaVuSans-32"/>
       <use x="63.623047" xlink:href="#DejaVuSans-30"/>
       <use x="127.246094" xlink:href="#DejaVuSans-30"/>
      </g>
     </g>
    </g>
    <g id="ytick_4">
     <g id="line2d_19">
      <path clip-path="url(#p90e60c2456)" d="M 57.6 198.600576 
L 414.72 198.600576 
" style="fill:none;stroke:#b0b0b0;stroke-linecap:square;stroke-width:0.8;"/>
     </g>
     <g id="line2d_20">
      <g>
       <use style="stroke:#000000;stroke-width:0.8;" x="57.6" xlink:href="#mf57d671cc6" y="198.600576"/>
      </g>
     </g>
     <g id="text_11">
      <!-- 300 -->
      <defs>
       <path d="M 40.578125 39.3125 
Q 47.65625 37.796875 51.625 33 
Q 55.609375 28.21875 55.609375 21.1875 
Q 55.609375 10.40625 48.1875 4.484375 
Q 40.765625 -1.421875 27.09375 -1.421875 
Q 22.515625 -1.421875 17.65625 -0.515625 
Q 12.796875 0.390625 7.625 2.203125 
L 7.625 11.71875 
Q 11.71875 9.328125 16.59375 8.109375 
Q 21.484375 6.890625 26.8125 6.890625 
Q 36.078125 6.890625 40.9375 10.546875 
Q 45.796875 14.203125 45.796875 21.1875 
Q 45.796875 27.640625 41.28125 31.265625 
Q 36.765625 34.90625 28.71875 34.90625 
L 20.21875 34.90625 
L 20.21875 43.015625 
L 29.109375 43.015625 
Q 36.375 43.015625 40.234375 45.921875 
Q 44.09375 48.828125 44.09375 54.296875 
Q 44.09375 59.90625 40.109375 62.90625 
Q 36.140625 65.921875 28.71875 65.921875 
Q 24.65625 65.921875 20.015625 65.03125 
Q 15.375 64.15625 9.8125 62.3125 
L 9.8125 71.09375 
Q 15.4375 72.65625 20.34375 73.4375 
Q 25.25 74.21875 29.59375 74.21875 
Q 40.828125 74.21875 47.359375 69.109375 
Q 53.90625 64.015625 53.90625 55.328125 
Q 53.90625 49.265625 50.4375 45.09375 
Q 46.96875 40.921875 40.578125 39.3125 
" id="DejaVuSans-33"/>
      </defs>
      <g transform="translate(31.5125 202.399795)scale(0.1 -0.1)">
       <use xlink:href="#DejaVuSans-33"/>
       <use x="63.623047" xlink:href="#DejaVuSans-30"/>
       <use x="127.246094" xlink:href="#DejaVuSans-30"/>
      </g>
     </g>
    </g>
    <g id="ytick_5">
     <g id="line2d_21">
      <path clip-path="url(#p90e60c2456)" d="M 57.6 166.201198 
L 414.72 166.201198 
" style="fill:none;stroke:#b0b0b0;stroke-linecap:square;stroke-width:0.8;"/>
     </g>
     <g id="line2d_22">
      <g>
       <use style="stroke:#000000;stroke-width:0.8;" x="57.6" xlink:href="#mf57d671cc6" y="166.201198"/>
      </g>
     </g>
     <g id="text_12">
      <!-- 400 -->
      <g transform="translate(31.5125 170.000417)scale(0.1 -0.1)">
       <use xlink:href="#DejaVuSans-34"/>
       <use x="63.623047" xlink:href="#DejaVuSans-30"/>
       <use x="127.246094" xlink:href="#DejaVuSans-30"/>
      </g>
     </g>
    </g>
    <g id="ytick_6">
     <g id="line2d_23">
      <path clip-path="url(#p90e60c2456)" d="M 57.6 133.80182 
L 414.72 133.80182 
" style="fill:none;stroke:#b0b0b0;stroke-linecap:square;stroke-width:0.8;"/>
     </g>
     <g id="line2d_24">
      <g>
       <use style="stroke:#000000;stroke-width:0.8;" x="57.6" xlink:href="#mf57d671cc6" y="133.80182"/>
      </g>
     </g>
     <g id="text_13">
      <!-- 500 -->
      <defs>
       <path d="M 10.796875 72.90625 
L 49.515625 72.90625 
L 49.515625 64.59375 
L 19.828125 64.59375 
L 19.828125 46.734375 
Q 21.96875 47.46875 24.109375 47.828125 
Q 26.265625 48.1875 28.421875 48.1875 
Q 40.625 48.1875 47.75 41.5 
Q 54.890625 34.8125 54.890625 23.390625 
Q 54.890625 11.625 47.5625 5.09375 
Q 40.234375 -1.421875 26.90625 -1.421875 
Q 22.3125 -1.421875 17.546875 -0.640625 
Q 12.796875 0.140625 7.71875 1.703125 
L 7.71875 11.625 
Q 12.109375 9.234375 16.796875 8.0625 
Q 21.484375 6.890625 26.703125 6.890625 
Q 35.15625 6.890625 40.078125 11.328125 
Q 45.015625 15.765625 45.015625 23.390625 
Q 45.015625 31 40.078125 35.4375 
Q 35.15625 39.890625 26.703125 39.890625 
Q 22.75 39.890625 18.8125 39.015625 
Q 14.890625 38.140625 10.796875 36.28125 
z
" id="DejaVuSans-35"/>
      </defs>
      <g transform="translate(31.5125 137.601039)scale(0.1 -0.1)">
       <use xlink:href="#DejaVuSans-35"/>
       <use x="63.623047" xlink:href="#DejaVuSans-30"/>
       <use x="127.246094" xlink:href="#DejaVuSans-30"/>
      </g>
     </g>
    </g>
    <g id="ytick_7">
     <g id="line2d_25">
      <path clip-path="url(#p90e60c2456)" d="M 57.6 101.402442 
L 414.72 101.402442 
" style="fill:none;stroke:#b0b0b0;stroke-linecap:square;stroke-width:0.8;"/>
     </g>
     <g id="line2d_26">
      <g>
       <use style="stroke:#000000;stroke-width:0.8;" x="57.6" xlink:href="#mf57d671cc6" y="101.402442"/>
      </g>
     </g>
     <g id="text_14">
      <!-- 600 -->
      <g transform="translate(31.5125 105.20166)scale(0.1 -0.1)">
       <use xlink:href="#DejaVuSans-36"/>
       <use x="63.623047" xlink:href="#DejaVuSans-30"/>
       <use x="127.246094" xlink:href="#DejaVuSans-30"/>
      </g>
     </g>
    </g>
    <g id="ytick_8">
     <g id="line2d_27">
      <path clip-path="url(#p90e60c2456)" d="M 57.6 69.003064 
L 414.72 69.003064 
" style="fill:none;stroke:#b0b0b0;stroke-linecap:square;stroke-width:0.8;"/>
     </g>
     <g id="line2d_28">
      <g>
       <use style="stroke:#000000;stroke-width:0.8;" x="57.6" xlink:href="#mf57d671cc6" y="69.003064"/>
      </g>
     </g>
     <g id="text_15">
      <!-- 700 -->
      <defs>
       <path d="M 8.203125 72.90625 
L 55.078125 72.90625 
L 55.078125 68.703125 
L 28.609375 0 
L 18.3125 0 
L 43.21875 64.59375 
L 8.203125 64.59375 
z
" id="DejaVuSans-37"/>
      </defs>
      <g transform="translate(31.5125 72.802282)scale(0.1 -0.1)">
       <use xlink:href="#DejaVuSans-37"/>
       <use x="63.623047" xlink:href="#DejaVuSans-30"/>
       <use x="127.246094" xlink:href="#DejaVuSans-30"/>
      </g>
     </g>
    </g>
    <g id="text_16">
     <!-- Successful download requests per second -->
     <defs>
      <path d="M 53.515625 70.515625 
L 53.515625 60.890625 
Q 47.90625 63.578125 42.921875 64.890625 
Q 37.9375 66.21875 33.296875 66.21875 
Q 25.25 66.21875 20.875 63.09375 
Q 16.5 59.96875 16.5 54.203125 
Q 16.5 49.359375 19.40625 46.890625 
Q 22.3125 44.4375 30.421875 42.921875 
L 36.375 41.703125 
Q 47.40625 39.59375 52.65625 34.296875 
Q 57.90625 29 57.90625 20.125 
Q 57.90625 9.515625 50.796875 4.046875 
Q 43.703125 -1.421875 29.984375 -1.421875 
Q 24.8125 -1.421875 18.96875 -0.25 
Q 13.140625 0.921875 6.890625 3.21875 
L 6.890625 13.375 
Q 12.890625 10.015625 18.65625 8.296875 
Q 24.421875 6.59375 29.984375 6.59375 
Q 38.421875 6.59375 43.015625 9.90625 
Q 47.609375 13.234375 47.609375 19.390625 
Q 47.609375 24.75 44.3125 27.78125 
Q 41.015625 30.8125 33.5 32.328125 
L 27.484375 33.5 
Q 16.453125 35.6875 11.515625 40.375 
Q 6.59375 45.0625 6.59375 53.421875 
Q 6.59375 63.09375 13.40625 68.65625 
Q 20.21875 74.21875 32.171875 74.21875 
Q 37.3125 74.21875 42.625 73.28125 
Q 47.953125 72.359375 53.515625 70.515625 
" id="DejaVuSans-53"/>
      <path d="M 45.40625 46.390625 
L 45.40625 75.984375 
L 54.390625 75.984375 
L 54.390625 0 
L 45.40625 0 
L 45.40625 8.203125 
Q 42.578125 3.328125 38.25 0.953125 
Q 33.9375 -1.421875 27.875 -1.421875 
Q 17.96875 -1.421875 11.734375 6.484375 
Q 5.515625 14.40625 5.515625 27.296875 
Q 5.515625 40.1875 11.734375 48.09375 
Q 17.96875 56 27.875 56 
Q 33.9375 56 38.25 53.625 
Q 42.578125 51.265625 45.40625 46.390625 
M 14.796875 27.296875 
Q 14.796875 17.390625 18.875 11.75 
Q 22.953125 6.109375 30.078125 6.109375 
Q 37.203125 6.109375 41.296875 11.75 
Q 45.40625 17.390625 45.40625 27.296875 
Q 45.40625 37.203125 41.296875 42.84375 
Q 37.203125 48.484375 30.078125 48.484375 
Q 22.953125 48.484375 18.875 42.84375 
Q 14.796875 37.203125 14.796875 27.296875 
" id="DejaVuSans-64"/>
      <path d="M 4.203125 54.6875 
L 13.1875 54.6875 
L 24.421875 12.015625 
L 35.59375 54.6875 
L 46.1875 54.6875 
L 57.421875 12.015625 
L 68.609375 54.6875 
L 77.59375 54.6875 
L 63.28125 0 
L 52.6875 0 
L 40.921875 44.828125 
L 29.109375 0 
L 18.5 0 
z
" id="DejaVuSans-77"/>
      <path d="M 34.28125 27.484375 
Q 23.390625 27.484375 19.1875 25 
Q 14.984375 22.515625 14.984375 16.5 
Q 14.984375 11.71875 18.140625 8.90625 
Q 21.296875 6.109375 26.703125 6.109375 
Q 34.1875 6.109375 38.703125 11.40625 
Q 43.21875 16.703125 43.21875 25.484375 
L 43.21875 27.484375 
z
M 52.203125 31.203125 
L 52.203125 0 
L 43.21875 0 
L 43.21875 8.296875 
Q 40.140625 3.328125 35.546875 0.953125 
Q 30.953125 -1.421875 24.3125 -1.421875 
Q 15.921875 -1.421875 10.953125 3.296875 
Q 6 8.015625 6 15.921875 
Q 6 25.140625 12.171875 29.828125 
Q 18.359375 34.515625 30.609375 34.515625 
L 43.21875 34.515625 
L 43.21875 35.40625 
Q 43.21875 41.609375 39.140625 45 
Q 35.0625 48.390625 27.6875 48.390625 
Q 23 48.390625 18.546875 47.265625 
Q 14.109375 46.140625 10.015625 43.890625 
L 10.015625 52.203125 
Q 14.9375 54.109375 19.578125 55.046875 
Q 24.21875 56 28.609375 56 
Q 40.484375 56 46.34375 49.84375 
Q 52.203125 43.703125 52.203125 31.203125 
" id="DejaVuSans-61"/>
      <path d="M 14.796875 27.296875 
Q 14.796875 17.390625 18.875 11.75 
Q 22.953125 6.109375 30.078125 6.109375 
Q 37.203125 6.109375 41.296875 11.75 
Q 45.40625 17.390625 45.40625 27.296875 
Q 45.40625 37.203125 41.296875 42.84375 
Q 37.203125 48.484375 30.078125 48.484375 
Q 22.953125 48.484375 18.875 42.84375 
Q 14.796875 37.203125 14.796875 27.296875 
M 45.40625 8.203125 
Q 42.578125 3.328125 38.25 0.953125 
Q 33.9375 -1.421875 27.875 -1.421875 
Q 17.96875 -1.421875 11.734375 6.484375 
Q 5.515625 14.40625 5.515625 27.296875 
Q 5.515625 40.1875 11.734375 48.09375 
Q 17.96875 56 27.875 56 
Q 33.9375 56 38.25 53.625 
Q 42.578125 51.265625 45.40625 46.390625 
L 45.40625 54.6875 
L 54.390625 54.6875 
L 54.390625 -20.796875 
L 45.40625 -20.796875 
z
" id="DejaVuSans-71"/>
      <path d="M 18.109375 8.203125 
L 18.109375 -20.796875 
L 9.078125 -20.796875 
L 9.078125 54.6875 
L 18.109375 54.6875 
L 18.109375 46.390625 
Q 20.953125 51.265625 25.265625 53.625 
Q 29.59375 56 35.59375 56 
Q 45.5625 56 51.78125 48.09375 
Q 58.015625 40.1875 58.015625 27.296875 
Q 58.015625 14.40625 51.78125 6.484375 
Q 45.5625 -1.421875 35.59375 -1.421875 
Q 29.59375 -1.421875 25.265625 0.953125 
Q 20.953125 3.328125 18.109375 8.203125 
M 48.6875 27.296875 
Q 48.6875 37.203125 44.609375 42.84375 
Q 40.53125 48.484375 33.40625 48.484375 
Q 26.265625 48.484375 22.1875 42.84375 
Q 18.109375 37.203125 18.109375 27.296875 
Q 18.109375 17.390625 22.1875 11.75 
Q 26.265625 6.109375 33.40625 6.109375 
Q 40.53125 6.109375 44.609375 11.75 
Q 48.6875 17.390625 48.6875 27.296875 
" id="DejaVuSans-70"/>
     </defs>
     <g transform="translate(25.432812 279.366281)rotate(-90)scale(0.1 -0.1)">
      <use xlink:href="#DejaVuSans-53"/>
      <use x="63.476562" xlink:href="#DejaVuSans-75"/>
      <use x="126.855469" xlink:href="#DejaVuSans-63"/>
      <use x="181.835938" xlink:href="#DejaVuSans-63"/>
      <use x="236.816406" xlink:href="#DejaVuSans-65"/>
      <use x="298.339844" xlink:href="#DejaVuSans-73"/>
      <use x="350.439453" xlink:href="#DejaVuSans-73"/>
      <use x="402.539062" xlink:href="#DejaVuSans-66"/>
      <use x="437.744141" xlink:href="#DejaVuSans-75"/>
      <use x="501.123047" xlink:href="#DejaVuSans-6c"/>
      <use x="528.90625" xlink:href="#DejaVuSans-20"/>
      <use x="560.693359" xlink:href="#DejaVuSans-64"/>
      <use x="624.169922" xlink:href="#DejaVuSans-6f"/>
      <use x="685.351562" xlink:href="#DejaVuSans-77"/>
      <use x="767.138672" xlink:href="#DejaVuSans-6e"/>
      <use x="830.517578" xlink:href="#DejaVuSans-6c"/>
      <use x="858.300781" xlink:href="#DejaVuSans-6f"/>
      <use x="919.482422" xlink:href="#DejaVuSans-61"/>
      <use x="980.761719" xlink:href="#DejaVuSans-64"/>
      <use x="1044.238281" xlink:href="#DejaVuSans-20"/>
      <use x="1076.025391" xlink:href="#DejaVuSans-72"/>
      <use x="1117.107422" xlink:href="#DejaVuSans-65"/>
      <use x="1178.630859" xlink:href="#DejaVuSans-71"/>
      <use x="1242.107422" xlink:href="#DejaVuSans-75"/>
      <use x="1305.486328" xlink:href="#DejaVuSans-65"/>
      <use x="1367.009766" xlink:href="#DejaVuSans-73"/>
      <use x="1419.109375" xlink:href="#DejaVuSans-74"/>
      <use x="1458.318359" xlink:href="#DejaVuSans-73"/>
      <use x="1510.417969" xlink:href="#DejaVuSans-20"/>
      <use x="1542.205078" xlink:href="#DejaVuSans-70"/>
      <use x="1605.681641" xlink:href="#DejaVuSans-65"/>
      <use x="1667.205078" xlink:href="#DejaVuSans-72"/>
      <use x="1708.318359" xlink:href="#DejaVuSans-20"/>
      <use x="1740.105469" xlink:href="#DejaVuSans-73"/>
      <use x="1792.205078" xlink:href="#DejaVuSans-65"/>
      <use x="1853.728516" xlink:href="#DejaVuSans-63"/>
      <use x="1908.708984" xlink:href="#DejaVuSans-6f"/>
      <use x="1969.890625" xlink:href="#DejaVuSans-6e"/>
      <use x="2033.269531" xlink:href="#DejaVuSans-64"/>
     </g>
    </g>
   </g>
   <g id="line2d_29">
    <path clip-path="url(#p90e60c2456)" d="M 57.6 295.488 
L 57.95712 295.47666 
L 59.74272 293.914038 
L 60.09984 293.534318 
L 60.45696 293.363249 
L 61.88544 291.918237 
L 62.24256 291.765959 
L 63.31392 290.923252 
L 63.67104 290.643645 
L 64.02816 289.98205 
L 64.38528 289.928591 
L 64.7424 289.471112 
L 65.45664 289.109858 
L 65.81376 288.369857 
L 66.17088 288.110014 
L 66.528 288.089926 
L 66.88512 287.884838 
L 67.24224 287.088137 
L 67.95648 286.450841 
L 68.3136 286.313468 
L 69.02784 285.518063 
L 69.38496 285.110803 
L 69.74208 285.546251 
L 70.0992 285.101083 
L 70.81344 283.816772 
L 71.17056 284.279759 
L 71.8848 283.334345 
L 72.24192 283.28769 
L 72.59904 282.540561 
L 72.95616 282.776752 
L 73.31328 282.156628 
L 73.6704 282.067206 
L 74.02752 281.0868 
L 74.38464 281.545252 
L 74.74176 280.681484 
L 75.09888 280.864217 
L 75.456 280.234049 
L 75.81312 280.351983 
L 76.17024 280.098619 
L 76.52736 278.852863 
L 77.59872 278.301426 
L 77.95584 277.800208 
L 78.31296 277.948921 
L 78.67008 277.453858 
L 79.0272 276.455633 
L 79.38432 276.426474 
L 79.74144 276.96398 
L 80.09856 276.473129 
L 80.45568 275.321331 
L 80.8128 275.987786 
L 81.16992 275.067644 
L 81.52704 274.908563 
L 82.5984 273.582781 
L 82.95552 274.048036 
L 83.31264 272.698277 
L 83.66976 273.269803 
L 84.02688 273.400696 
L 84.384 272.344476 
L 84.74112 272.124808 
L 85.09824 270.952599 
L 85.81248 270.633141 
L 86.1696 270.942555 
L 86.52672 270.673964 
L 86.88384 270.759823 
L 87.24096 269.048488 
L 87.59808 269.111018 
L 87.9552 269.813113 
L 88.31232 268.654835 
L 88.66944 268.773417 
L 89.02656 268.197356 
L 89.38368 267.187467 
L 89.7408 268.29261 
L 90.09792 266.845654 
L 90.45504 267.798196 
L 90.81216 265.844513 
L 91.16928 265.948839 
L 91.5264 265.529915 
L 91.88352 265.716536 
L 92.24064 264.516463 
L 92.59776 264.447452 
L 92.95488 265.45896 
L 93.312 263.480978 
L 93.66912 265.201061 
L 94.02624 264.384597 
L 94.38336 264.401121 
L 94.74048 262.381668 
L 95.0976 263.396416 
L 95.45472 262.991424 
L 95.81184 262.385879 
L 96.16896 262.347972 
L 96.52608 262.715705 
L 97.24032 261.75636 
L 97.59744 260.471724 
L 97.95456 260.455848 
L 98.31168 259.269383 
L 98.6688 260.200865 
L 99.02592 258.741597 
L 99.38304 260.168142 
L 99.74016 259.007272 
L 100.09728 259.351354 
L 100.4544 259.336126 
L 100.81152 258.658979 
L 101.52576 256.003202 
L 101.88288 257.608915 
L 102.24 255.316335 
L 102.59712 256.135715 
L 103.31136 255.26806 
L 103.66848 255.840881 
L 104.0256 255.749191 
L 104.38272 253.429719 
L 104.73984 255.755671 
L 105.45408 253.763433 
L 105.8112 253.366865 
L 106.16832 252.253622 
L 106.52544 253.751121 
L 106.88256 252.865322 
L 107.23968 253.695394 
L 108.31104 249.814273 
L 108.66816 252.610339 
L 109.02528 250.734091 
L 109.3824 250.77621 
L 109.73952 251.601422 
L 110.09664 251.08206 
L 110.81088 247.682394 
L 111.168 250.030053 
L 111.52512 249.399561 
L 111.88224 247.227182 
L 112.23936 246.481025 
L 112.59648 248.089978 
L 112.9536 248.81378 
L 113.31072 246.504676 
L 113.66784 248.011571 
L 114.02496 247.295221 
L 114.7392 245.400182 
L 115.09632 244.541274 
L 115.45344 245.523623 
L 115.81056 244.10777 
L 116.16768 245.56477 
L 116.5248 243.222943 
L 116.88192 244.892159 
L 117.23904 243.415072 
L 117.59616 243.265062 
L 117.95328 242.718809 
L 118.66752 242.377644 
L 119.02464 243.477278 
L 119.38176 243.377164 
L 120.096 241.759139 
L 120.45312 239.119238 
L 120.81024 239.326918 
L 121.16736 238.692862 
L 121.52448 240.864917 
L 121.8816 237.924673 
L 122.23872 240.784566 
L 122.59584 240.76545 
L 122.95296 239.927603 
L 123.31008 237.56504 
L 123.6672 238.385716 
L 124.02432 238.800752 
L 124.38144 236.030281 
L 124.73856 239.079063 
L 125.09568 234.581057 
L 125.4528 234.455348 
L 125.80992 236.865861 
L 126.16704 234.127466 
L 126.88128 236.564871 
L 127.2384 233.031071 
L 127.59552 232.304677 
L 127.95264 233.155809 
L 128.30976 235.873468 
L 129.38112 230.730715 
L 129.73824 230.608569 
L 130.09536 230.290408 
L 130.45248 230.351642 
L 130.8096 230.691188 
L 131.16672 231.550743 
L 131.52384 231.464237 
L 131.88096 228.469239 
L 132.23808 229.610345 
L 132.5952 231.589299 
L 132.95232 232.03965 
L 133.30944 228.169868 
L 133.66656 229.237104 
L 134.02368 227.250374 
L 134.3808 227.861426 
L 134.73792 228.015647 
L 135.09504 227.086757 
L 135.45216 228.243415 
L 136.1664 224.534982 
L 136.52352 226.080756 
L 136.88064 227.079305 
L 137.23776 227.720489 
L 137.59488 225.784626 
L 137.952 226.436502 
L 138.30912 224.021452 
L 138.66624 227.235794 
L 139.02336 225.035876 
L 139.38048 225.203381 
L 139.7376 221.509528 
L 140.45184 223.215679 
L 140.80896 221.137907 
L 141.16608 220.923423 
L 141.5232 222.719321 
L 141.88032 219.534138 
L 142.23744 223.328429 
L 142.59456 223.297974 
L 142.95168 220.234289 
L 143.3088 220.631181 
L 143.66592 221.509528 
L 144.02304 219.038752 
L 144.38016 218.710546 
L 144.73728 221.901885 
L 145.0944 218.059318 
L 145.45152 216.146459 
L 145.80864 220.130611 
L 146.16576 218.029835 
L 146.52288 218.162348 
L 146.88 216.801898 
L 147.23712 219.104198 
L 147.59424 214.986561 
L 147.95136 219.112946 
L 148.30848 217.122004 
L 148.6656 214.475623 
L 149.02272 213.134937 
L 149.37984 216.973615 
L 149.73696 214.431884 
L 150.09408 213.117765 
L 150.4512 214.555974 
L 151.16544 215.113243 
L 151.52256 213.719746 
L 151.87968 210.461988 
L 152.2368 210.006453 
L 152.59392 212.596459 
L 152.95104 214.076139 
L 153.66528 214.043739 
L 154.0224 210.482076 
L 154.37952 209.877179 
L 154.73664 207.894337 
L 155.09376 208.128585 
L 155.45088 207.378539 
L 155.808 212.020398 
L 156.16512 208.335617 
L 156.52224 208.78532 
L 156.87936 211.787447 
L 157.23648 209.719718 
L 157.5936 211.367227 
L 158.30784 205.212641 
L 158.66496 206.239377 
L 159.02208 208.093594 
L 159.3792 209.271311 
L 159.73632 203.798084 
L 160.09344 206.28182 
L 160.45056 207.250238 
L 160.80768 203.68501 
L 161.1648 205.832765 
L 161.52192 206.281496 
L 161.87904 205.219121 
L 162.23616 202.55654 
L 162.59328 204.425336 
L 162.9504 200.508251 
L 163.30752 206.18689 
L 163.66464 203.674642 
L 164.02176 205.932879 
L 164.37888 203.881675 
L 164.736 200.111035 
L 165.09312 201.799042 
L 165.45024 200.69228 
L 165.80736 203.751429 
L 166.16448 198.456075 
L 166.87872 200.307051 
L 167.23584 197.307517 
L 167.59296 198.71203 
L 167.95008 201.795479 
L 168.3072 199.902383 
L 168.66432 196.877577 
L 169.02144 197.415731 
L 169.37856 196.19881 
L 169.73568 196.464485 
L 170.0928 200.870476 
L 170.44992 198.182624 
L 170.80704 198.017387 
L 171.16416 194.744726 
L 171.52128 194.738246 
L 171.8784 195.597154 
L 172.23552 192.692225 
L 172.94976 198.386416 
L 173.30688 196.732752 
L 173.664 197.687237 
L 174.02112 191.300672 
L 174.37824 195.155226 
L 174.73536 193.285458 
L 175.09248 195.927627 
L 175.4496 191.440313 
L 175.80672 189.900371 
L 176.16384 194.806285 
L 176.52096 193.20284 
L 176.87808 187.668054 
L 177.2352 193.232647 
L 177.59232 190.79265 
L 177.94944 192.192303 
L 178.30656 191.754587 
L 178.66368 191.585139 
L 179.0208 186.859041 
L 179.37792 189.044379 
L 179.73504 187.800567 
L 180.09216 185.034308 
L 180.44928 189.033688 
L 180.8064 184.044183 
L 181.52064 186.386982 
L 181.87776 188.021207 
L 182.23488 187.54526 
L 182.592 188.838643 
L 182.94912 189.694959 
L 183.30624 183.125985 
L 183.66336 186.328663 
L 184.02048 182.204871 
L 184.3776 182.568392 
L 184.73472 183.282798 
L 185.09184 186.31862 
L 185.44896 185.711779 
L 185.80608 179.647912 
L 186.1632 180.638685 
L 186.52032 186.377587 
L 186.87744 182.847998 
L 187.23456 181.078668 
L 187.59168 180.605637 
L 187.9488 178.219747 
L 188.30592 183.832615 
L 188.66304 179.048847 
L 189.02016 178.029563 
L 189.37728 179.266247 
L 189.7344 179.495635 
L 190.09152 180.418369 
L 190.44864 179.871143 
L 190.80576 174.94903 
L 191.16288 181.851717 
L 191.52 176.894937 
L 191.87712 174.898163 
L 192.23424 179.689383 
L 192.59136 181.559151 
L 192.94848 174.560885 
L 193.3056 172.922449 
L 193.66272 177.904501 
L 194.01984 178.591368 
L 194.37696 172.543052 
L 194.73408 177.777496 
L 195.0912 178.552813 
L 195.44832 174.107618 
L 195.80544 173.809868 
L 196.16256 174.620824 
L 196.51968 173.170628 
L 196.8768 173.633615 
L 197.23392 171.582411 
L 197.94816 175.332315 
L 198.30528 175.365362 
L 198.6624 173.133369 
L 199.01952 169.562957 
L 199.37664 168.019451 
L 199.73376 172.635066 
L 200.09088 171.013477 
L 200.448 167.317032 
L 200.80512 168.751029 
L 201.16224 167.085053 
L 201.51936 172.202859 
L 201.87648 166.069008 
L 202.2336 164.64538 
L 202.59072 172.433866 
L 202.94784 168.66841 
L 203.30496 167.532488 
L 203.66208 170.056724 
L 204.0192 163.770273 
L 204.37632 168.230047 
L 204.73344 169.807249 
L 205.09056 165.35201 
L 205.44768 171.026437 
L 205.8048 162.555296 
L 206.16192 163.734633 
L 206.51904 164.09783 
L 207.23328 168.360292 
L 207.94752 160.361534 
L 208.30464 166.241697 
L 208.66176 161.550591 
L 209.01888 160.415965 
L 209.376 166.246233 
L 209.73312 158.386144 
L 210.09024 158.818676 
L 210.44736 162.060557 
L 210.80448 158.021651 
L 211.1616 164.10755 
L 211.51872 158.972573 
L 211.87584 156.626858 
L 212.23296 158.632379 
L 212.59008 163.187732 
L 212.9472 158.600628 
L 213.30432 159.70901 
L 213.66144 163.242163 
L 214.37568 158.802476 
L 214.7328 161.703516 
L 215.08992 158.978404 
L 215.44704 159.690867 
L 215.80416 161.723604 
L 216.16128 156.688416 
L 216.5184 154.739918 
L 216.87552 153.876798 
L 217.23264 156.975151 
L 217.58976 156.847497 
L 217.94688 155.13195 
L 218.304 152.246786 
L 218.66112 158.412711 
L 219.01824 150.860416 
L 219.37536 155.974658 
L 219.73248 157.55024 
L 220.0896 155.13033 
L 220.44672 156.641437 
L 220.80384 153.848611 
L 221.16096 153.008171 
L 221.51808 147.137728 
L 221.8752 148.023851 
L 222.23232 153.202243 
L 222.58944 146.39643 
L 222.94656 150.724987 
L 223.30368 147.885829 
L 223.6608 146.734032 
L 224.01792 147.914341 
L 224.37504 151.706364 
L 224.73216 154.030047 
L 225.4464 149.085902 
L 225.80352 144.661119 
L 226.16064 149.617576 
L 226.51776 151.732284 
L 226.87488 146.278496 
L 227.232 149.140981 
L 227.58912 142.052645 
L 227.94624 148.815692 
L 228.30336 149.699871 
L 229.0176 144.440156 
L 229.37472 147.201231 
L 229.73184 143.219347 
L 230.08896 149.924398 
L 230.44608 145.341506 
L 230.8032 148.539325 
L 231.16032 145.524239 
L 231.51744 146.352691 
L 231.87456 146.300204 
L 232.23168 142.079213 
L 232.5888 144.554201 
L 232.94592 138.421647 
L 233.30304 144.260339 
L 234.3744 137.083229 
L 234.73152 136.053901 
L 235.08864 137.377415 
L 235.80288 144.333886 
L 236.16 136.183174 
L 236.51712 141.647329 
L 236.87424 143.890014 
L 237.58848 132.665898 
L 237.9456 142.512717 
L 238.30272 142.404179 
L 238.65984 136.167622 
L 239.01696 141.336943 
L 239.37408 137.488869 
L 239.7312 139.653147 
L 240.08832 131.663461 
L 240.44544 131.435045 
L 240.80256 134.709002 
L 241.15968 135.129546 
L 241.5168 133.496942 
L 241.87392 136.880085 
L 242.23104 135.528383 
L 242.58816 129.039111 
L 242.94528 136.344523 
L 243.3024 134.622172 
L 243.65952 129.432116 
L 244.01664 135.36347 
L 244.37376 135.151254 
L 244.73088 128.082034 
L 245.088 133.155452 
L 245.44512 126.797722 
L 245.80224 131.711412 
L 246.15936 132.549584 
L 246.51648 125.353682 
L 246.8736 125.512439 
L 247.58784 134.60662 
L 247.94496 123.508861 
L 248.30208 131.384826 
L 248.6592 133.697818 
L 249.37344 121.826362 
L 249.73056 131.458697 
L 250.08768 124.760125 
L 250.4448 123.365008 
L 250.80192 123.008939 
L 251.15904 121.497184 
L 251.51616 120.855352 
L 251.87328 123.012827 
L 252.2304 127.268809 
L 252.58752 125.176457 
L 252.94464 124.71509 
L 253.30176 118.424103 
L 253.65888 129.381249 
L 254.016 125.248708 
L 254.37312 126.313028 
L 254.73024 126.743939 
L 255.08736 127.441174 
L 255.44448 117.801387 
L 255.8016 126.996006 
L 256.15872 127.750912 
L 256.87296 118.819375 
L 257.23008 116.904896 
L 257.94432 125.870776 
L 258.30144 118.863439 
L 258.65856 120.821657 
L 259.01568 115.611837 
L 259.3728 114.459391 
L 260.08704 121.815994 
L 260.44416 118.765268 
L 260.80128 116.724108 
L 261.1584 112.958004 
L 261.51552 111.614078 
L 261.87264 113.367208 
L 262.22976 117.024774 
L 262.58688 122.23265 
L 262.944 116.68782 
L 263.30112 118.688482 
L 263.65824 109.246979 
L 264.01536 113.183828 
L 264.37248 119.906375 
L 264.7296 115.353938 
L 265.08672 107.769244 
L 265.44384 119.021548 
L 265.80096 114.129565 
L 266.15808 116.254965 
L 266.5152 107.682089 
L 266.87232 117.500721 
L 267.22944 105.614361 
L 267.58656 108.730857 
L 267.94368 106.676089 
L 268.3008 115.427485 
L 268.65792 106.275308 
L 269.01504 115.446924 
L 269.37216 109.924126 
L 269.72928 111.80653 
L 270.0864 103.791572 
L 270.44352 114.579917 
L 270.80064 112.055357 
L 271.15776 106.919408 
L 271.51488 115.080487 
L 271.872 107.85251 
L 272.22912 107.631546 
L 272.58624 103.036342 
L 272.94336 113.763452 
L 273.30048 106.218609 
L 273.6576 113.632235 
L 274.01472 112.377731 
L 274.37184 102.846482 
L 274.72896 101.281916 
L 275.08608 112.166811 
L 275.4432 100.64138 
L 275.80032 109.93741 
L 276.15744 104.791741 
L 276.51456 108.321329 
L 276.87168 103.607543 
L 277.2288 101.26766 
L 277.58592 104.982249 
L 277.94304 99.347673 
L 278.30016 103.232359 
L 278.65728 98.982532 
L 279.0144 107.457238 
L 279.37152 104.324218 
L 279.72864 111.875541 
L 280.08576 103.027271 
L 280.44288 106.351771 
L 280.8 111.094716 
L 281.15712 103.864146 
L 281.51424 108.515725 
L 281.87136 109.63318 
L 282.22848 98.871402 
L 282.5856 110.107507 
L 282.94272 103.881966 
L 283.29984 104.471635 
L 283.65696 102.149571 
L 284.01408 98.179352 
L 284.3712 107.725828 
L 284.72832 100.472904 
L 285.08544 107.142316 
L 285.44256 96.789418 
L 285.79968 100.079575 
L 286.1568 101.988546 
L 286.51392 105.974318 
L 286.87104 106.095492 
L 287.22816 104.098718 
L 287.58528 103.377184 
L 287.9424 106.673497 
L 288.29952 105.390805 
L 289.01376 96.794926 
L 289.37088 105.112819 
L 289.728 106.914548 
L 290.08512 98.871078 
L 290.44224 98.69515 
L 290.79936 101.132879 
L 291.15648 100.718167 
L 291.5136 95.635028 
L 291.87072 103.05967 
L 292.22784 97.419262 
L 292.58496 102.275605 
L 293.2992 106.572411 
L 293.65632 101.729999 
L 294.01344 99.283522 
L 294.37056 103.320161 
L 294.72768 94.609588 
L 295.0848 102.380255 
L 295.44192 104.702966 
L 295.79904 92.768331 
L 296.15616 100.411345 
L 296.51328 99.782473 
L 296.8704 100.439208 
L 297.22752 103.928297 
L 297.58464 93.686206 
L 297.94176 103.547281 
L 298.29888 96.57299 
L 298.656 97.016214 
L 299.01312 92.051657 
L 299.37024 104.192352 
L 299.72736 102.530588 
L 300.08448 98.250954 
L 300.4416 99.359661 
L 300.79872 94.828284 
L 301.15584 92.033838 
L 301.51296 91.599686 
L 301.87008 97.077449 
L 302.2272 94.785193 
L 302.58432 100.359182 
L 302.94144 96.70842 
L 303.29856 96.118103 
L 303.65568 90.348422 
L 304.36992 97.53104 
L 304.72704 98.955641 
L 305.08416 99.135133 
L 305.44128 96.818578 
L 305.7984 89.358945 
L 306.15552 101.884868 
L 306.51264 100.264576 
L 306.86976 94.146925 
L 307.22688 100.411021 
L 307.584 101.249517 
L 307.94112 101.141627 
L 308.29824 96.118751 
L 308.65536 89.017132 
L 309.01248 87.295753 
L 309.3696 100.697755 
L 309.72672 100.049768 
L 310.08384 101.142275 
L 310.44096 87.976139 
L 310.79808 90.205865 
L 311.1552 98.551296 
L 311.51232 95.084887 
L 311.86944 96.296624 
L 312.22656 90.504587 
L 312.58368 90.231136 
L 312.9408 99.691755 
L 313.29792 94.642312 
L 313.65504 86.863221 
L 314.01216 85.571458 
L 314.36928 99.844356 
L 314.7264 95.63924 
L 315.08352 93.598404 
L 315.44064 87.509264 
L 315.79776 94.918678 
L 316.15488 92.179635 
L 316.512 93.506065 
L 316.86912 89.831004 
L 317.22624 89.899043 
L 317.58336 95.169773 
L 317.94048 97.184367 
L 318.2976 95.699503 
L 318.65472 84.962997 
L 319.01184 95.949626 
L 319.36896 91.726691 
L 319.72608 93.434463 
L 320.79744 85.040108 
L 321.15456 90.028964 
L 321.51168 84.17796 
L 321.8688 83.246478 
L 322.22592 86.212317 
L 322.58304 97.208018 
L 322.94016 84.573881 
L 323.29728 94.429772 
L 323.6544 88.337393 
L 324.01152 88.994452 
L 324.36864 90.327038 
L 324.72576 90.911523 
L 325.08288 95.188565 
L 325.44 94.410656 
L 325.79712 93.000959 
L 326.15424 87.981971 
L 326.51136 85.393909 
L 326.86848 86.430689 
L 327.2256 91.293836 
L 327.58272 92.275213 
L 327.93984 91.28282 
L 328.29696 80.589729 
L 328.65408 93.839131 
L 329.0112 86.80555 
L 329.36832 83.995228 
L 329.72544 89.120486 
L 330.08256 90.015356 
L 330.43968 93.9697 
L 330.7968 88.68925 
L 331.15392 92.192919 
L 331.51104 89.332053 
L 331.86816 93.083253 
L 332.22528 85.073803 
L 332.5824 85.394557 
L 332.93952 82.84343 
L 333.29664 83.27013 
L 333.65376 80.897847 
L 334.01088 90.306951 
L 334.368 89.322658 
L 334.72512 79.451863 
L 335.08224 78.857335 
L 335.43936 83.633327 
L 335.79648 86.842485 
L 336.1536 79.240295 
L 336.51072 79.791409 
L 336.86784 90.803957 
L 337.22496 81.768743 
L 337.9392 91.533267 
L 338.29632 86.4997 
L 338.65344 89.450635 
L 339.01056 84.656175 
L 339.36768 83.157704 
L 340.08192 78.127377 
L 340.43904 88.402839 
L 340.79616 91.057968 
L 341.15328 79.676715 
L 341.5104 86.874237 
L 341.86752 79.31611 
L 342.22464 82.867406 
L 342.58176 76.965211 
L 342.93888 80.24176 
L 343.296 85.730863 
L 343.65312 86.698308 
L 344.01024 88.05325 
L 345.0816 76.982383 
L 345.79584 81.939487 
L 346.15296 75.851644 
L 346.51008 83.276286 
L 346.8672 83.751909 
L 347.22432 87.879913 
L 347.58144 81.580826 
L 347.93856 84.950362 
L 348.29568 79.017063 
L 348.6528 85.54975 
L 349.00992 82.41511 
L 349.36704 74.149057 
L 349.72416 80.659388 
L 350.08128 76.175638 
L 350.4384 77.870125 
L 350.79552 86.798746 
L 351.50976 76.163002 
L 351.86688 79.989693 
L 352.224 79.750585 
L 352.58112 75.799481 
L 352.93824 85.069915 
L 353.29536 78.060634 
L 353.65248 78.526861 
L 354.0096 80.202233 
L 354.36672 86.134883 
L 354.72384 79.615156 
L 355.08096 78.716073 
L 355.43808 85.334294 
L 355.7952 75.956294 
L 356.15232 75.275259 
L 356.50944 75.838036 
L 356.86656 75.708115 
L 357.22368 82.453342 
L 357.5808 75.890199 
L 357.93792 79.012204 
L 358.29504 72.520016 
L 358.65216 80.905947 
L 359.00928 72.953844 
L 359.72352 73.515973 
L 360.08064 85.071535 
L 360.43776 76.598774 
L 360.79488 82.969464 
L 361.152 78.071326 
L 361.50912 75.405829 
L 361.86624 78.563472 
L 362.22336 79.691943 
L 362.58048 69.618652 
L 362.9376 71.920304 
L 363.29472 75.433368 
L 363.65184 80.4462 
L 364.00896 69.764773 
L 364.36608 80.865772 
L 364.7232 82.430662 
L 365.08032 76.773731 
L 365.43744 78.258918 
L 365.79456 70.34375 
L 366.15168 77.816667 
L 366.5088 82.804551 
L 366.86592 81.147323 
L 367.22304 78.48053 
L 367.58016 79.84422 
L 367.93728 67.392167 
L 368.2944 68.912345 
L 368.65152 69.07175 
L 369.00864 72.9357 
L 369.36576 79.306066 
L 369.72288 66.631105 
L 370.08 73.406787 
L 370.43712 71.722344 
L 370.79424 68.782424 
L 371.15136 80.619537 
L 371.50848 81.414617 
L 371.8656 68.478518 
L 372.22272 76.275104 
L 372.57984 71.671476 
L 372.93696 71.222745 
L 373.29408 73.129124 
L 373.6512 65.419045 
L 374.00832 79.32097 
L 374.36544 68.909429 
L 374.72256 69.445315 
L 375.07968 76.449413 
L 375.4368 70.971974 
L 375.79392 75.119418 
L 376.15104 77.878549 
L 376.50816 76.557627 
L 377.2224 66.388758 
L 377.57952 78.478586 
L 377.93664 65.063299 
L 378.29376 73.185823 
L 378.65088 78.440679 
L 379.008 67.282333 
L 379.36512 68.57118 
L 379.72224 74.466247 
L 380.43648 65.589789 
L 380.7936 73.447934 
L 381.15072 72.151959 
L 381.50784 70.397857 
L 381.86496 75.594069 
L 382.22208 64.665435 
L 382.5792 75.057859 
L 382.93632 72.060917 
L 383.29344 77.300868 
L 384.00768 69.746629 
L 384.3648 77.433058 
L 384.72192 68.812555 
L 385.07904 75.588237 
L 385.79328 67.950732 
L 386.1504 73.308617 
L 386.50752 63.287489 
L 387.22176 76.907216 
L 387.57888 67.10446 
L 387.936 72.162651 
L 388.29312 63.204871 
L 388.65024 76.169158 
L 389.00736 68.539429 
L 389.36448 74.119249 
L 389.7216 72.466557 
L 390.07872 70.219012 
L 390.43584 65.98895 
L 390.79296 66.179782 
L 391.15008 60.457728 
L 391.86432 64.952493 
L 392.22144 69.775465 
L 392.57856 59.626684 
L 392.93568 63.674014 
L 393.2928 70.490843 
L 394.00704 59.90629 
L 394.36416 61.722599 
L 394.72128 71.605382 
L 395.0784 74.690451 
L 395.43552 64.059567 
L 395.79264 70.551106 
L 396.14976 74.804172 
L 396.50688 62.047241 
L 396.864 73.854871 
L 397.22112 74.486658 
L 397.57824 72.121828 
L 397.93536 67.138803 
L 398.29248 74.286754 
L 398.6496 72.719272 
L 399.00672 70.399801 
L 399.36384 73.837051 
L 399.72096 62.198222 
L 400.07808 67.790355 
L 400.4352 59.21424 
L 400.79232 70.830065 
L 401.14944 62.431822 
L 401.50656 72.23555 
L 401.86368 61.921856 
L 402.2208 72.036293 
L 402.57792 62.853014 
L 403.29216 70.898751 
L 403.64928 58.531909 
L 404.0064 69.641655 
L 404.36352 72.598423 
L 404.72064 57.208394 
L 405.07776 71.156974 
L 405.43488 71.276528 
L 405.792 62.932716 
L 406.14912 57.376223 
L 406.50624 63.77186 
L 406.86336 66.39945 
L 407.22048 60.399409 
L 407.5776 61.054848 
L 407.93472 68.088105 
L 408.29184 56.613218 
L 408.64896 66.18367 
L 409.00608 71.353963 
L 409.72032 55.85734 
L 410.07744 65.208125 
L 410.43456 59.997657 
L 410.79168 62.891569 
L 411.1488 54.30541 
L 411.50592 55.84438 
L 411.86304 69.844152 
L 412.22016 53.568 
L 412.57728 62.014194 
L 413.29152 69.334833 
L 413.64864 54.916786 
L 414.00576 67.406746 
L 414.36288 66.016489 
L 414.72 57.566083 
L 414.72 57.566083 
" style="fill:none;stroke:#000080;stroke-linecap:square;stroke-width:0.5;"/>
   </g>
   <g id="patch_3">
    <path d="M 57.6 307.584 
L 57.6 41.472 
" style="fill:none;stroke:#000000;stroke-linecap:square;stroke-linejoin:miter;stroke-width:0.8;"/>
   </g>
   <g id="patch_4">
    <path d="M 414.72 307.584 
L 414.72 41.472 
" style="fill:none;stroke:#000000;stroke-linecap:square;stroke-linejoin:miter;stroke-width:0.8;"/>
   </g>
   <g id="patch_5">
    <path d="M 57.6 307.584 
L 414.72 307.584 
" style="fill:none;stroke:#000000;stroke-linecap:square;stroke-linejoin:miter;stroke-width:0.8;"/>
   </g>
   <g id="patch_6">
    <path d="M 57.6 41.472 
L 414.72 41.472 
" style="fill:none;stroke:#000000;stroke-linecap:square;stroke-linejoin:miter;stroke-width:0.8;"/>
   </g>
   <g id="text_17">
    <!-- Test -->
    <defs>
     <path d="M -0.296875 72.90625 
L 61.375 72.90625 
L 61.375 64.59375 
L 35.5 64.59375 
L 35.5 0 
L 25.59375 0 
L 25.59375 64.59375 
L -0.296875 64.59375 
z
" id="DejaVuSans-54"/>
    </defs>
    <g transform="translate(223.341563 35.472)scale(0.12 -0.12)">
     <use xlink:href="#DejaVuSans-54"/>
     <use x="60.818359" xlink:href="#DejaVuSans-65"/>
     <use x="122.341797" xlink:href="#DejaVuSans-73"/>
     <use x="174.441406" xlink:href="#DejaVuSans-74"/>
    </g>
   </g>
   <g id="legend_1">
    <g id="patch_7">
     <path d="M 64.6 64.150125 
L 306.276563 64.150125 
Q 308.276563 64.150125 308.276563 62.150125 
L 308.276563 48.472 
Q 308.276563 46.472 306.276563 46.472 
L 64.6 46.472 
Q 62.6 46.472 62.6 48.472 
L 62.6 62.150125 
Q 62.6 64.150125 64.6 64.150125 
z
" style="fill:#ffffff;opacity:0.8;stroke:#cccccc;stroke-linejoin:miter;"/>
    </g>
    <g id="line2d_30">
     <path d="M 66.6 54.570438 
L 86.6 54.570438 
" style="fill:none;stroke:#000080;stroke-linecap:square;stroke-width:0.5;"/>
    </g>
    <g id="line2d_31"/>
    <g id="text_18">
     <!-- Successful download requests per second -->
     <g transform="translate(94.6 58.070438)scale(0.1 -0.1)">
      <use xlink:href="#DejaVuSans-53"/>
      <use x="63.476562" xlink:href="#DejaVuSans-75"/>
      <use x="126.855469" xlink:href="#DejaVuSans-63"/>
      <use x="181.835938" xlink:href="#DejaVuSans-63"/>
      <use x="236.816406" xlink:href="#DejaVuSans-65"/>
      <use x="298.339844" xlink:href="#DejaVuSans-73"/>
      <use x="350.439453" xlink:href="#DejaVuSans-73"/>
      <use x="402.539062" xlink:href="#DejaVuSans-66"/>
      <use x="437.744141" xlink:href="#DejaVuSans-75"/>
      <use x="501.123047" xlink:href="#DejaVuSans-6c"/>
      <use x="528.90625" xlink:href="#DejaVuSans-20"/>
      <use x="560.693359" xlink:href="#DejaVuSans-64"/>
      <use x="624.169922" xlink:href="#DejaVuSans-6f"/>
      <use x="685.351562" xlink:href="#DejaVuSans-77"/>
      <use x="767.138672" xlink:href="#DejaVuSans-6e"/>
      <use x="830.517578" xlink:href="#DejaVuSans-6c"/>
      <use x="858.300781" xlink:href="#DejaVuSans-6f"/>
      <use x="919.482422" xlink:href="#DejaVuSans-61"/>
      <use x="980.761719" xlink:href="#DejaVuSans-64"/>
      <use x="1044.238281" xlink:href="#DejaVuSans-20"/>
      <use x="1076.025391" xlink:href="#DejaVuSans-72"/>
      <use x="1117.107422" xlink:href="#DejaVuSans-65"/>
      <use x="1178.630859" xlink:href="#DejaVuSans-71"/>
      <use x="1242.107422" xlink:href="#DejaVuSans-75"/>
      <use x="1305.486328" xlink:href="#DejaVuSans-65"/>
      <use x="1367.009766" xlink:href="#DejaVuSans-73"/>
      <use x="1419.109375" xlink:href="#DejaVuSans-74"/>
      <use x="1458.318359" xlink:href="#DejaVuSans-73"/>
      <use x="1510.417969" xlink:href="#DejaVuSans-20"/>
      <use x="1542.205078" xlink:href="#DejaVuSans-70"/>
      <use x="1605.681641" xlink:href="#DejaVuSans-65"/>
      <use x="1667.205078" xlink:href="#DejaVuSans-72"/>
      <use x="1708.318359" xlink:href="#DejaVuSans-20"/>
      <use x="1740.105469" xlink:href="#DejaVuSans-73"/>
      <use x="1792.205078" xlink:href="#DejaVuSans-65"/>
      <use x="1853.728516" xlink:href="#DejaVuSans-63"/>
      <use x="1908.708984" xlink:href="#DejaVuSans-6f"/>
      <use x="1969.890625" xlink:href="#DejaVuSans-6e"/>
      <use x="2033.269531" xlink:href="#DejaVuSans-64"/>
     </g>
    </g>
   </g>
  </g>
 </g>
 <defs>
  <clipPath id="p90e60c2456">
   <rect height="266.112" width="357.12" x="57.6" y="41.472"/>
  </clipPath>
 </defs>
</svg>
