<?xml version="1.0" encoding="utf-8" standalone="no"?>
<!DOCTYPE svg PUBLIC "-//W3C//DTD SVG 1.1//EN"
  "http://www.w3.org/Graphics/SVG/1.1/DTD/svg11.dtd">
<!-- Created with matplotlib (http://matplotlib.org/) -->
<svg height="345pt" version="1.1" viewBox="0 0 460 345" width="460pt" xmlns="http://www.w3.org/2000/svg" xmlns:xlink="http://www.w3.org/1999/xlink">
 <defs>
  <style type="text/css">
*{stroke-linecap:butt;stroke-linejoin:round;}
  </style>
 </defs>
 <g id="figure_1">
  <g id="patch_1">
   <path d="M 0 345.6 
L 460.8 345.6 
L 460.8 0 
L 0 0 
z
" style="fill:#ffffff;"/>
  </g>
  <g id="axes_1">
   <g id="patch_2">
    <path d="M 57.6 307.584 
L 414.72 307.584 
L 414.72 41.472 
L 57.6 41.472 
z
" style="fill:#ffffff;"/>
   </g>
   <g id="matplotlib.axis_1">
    <g id="xtick_1">
     <g id="line2d_1">
      <path clip-path="url(#p6fa744c7d1)" d="M 57.6 307.584 
L 57.6 41.472 
" style="fill:none;stroke:#b0b0b0;stroke-linecap:square;stroke-width:0.8;"/>
     </g>
     <g id="line2d_2">
      <defs>
       <path d="M 0 0 
L 0 3.5 
" id="m6a75d03050" style="stroke:#000000;stroke-width:0.8;"/>
      </defs>
      <g>
       <use style="stroke:#000000;stroke-width:0.8;" x="57.6" xlink:href="#m6a75d03050" y="307.584"/>
      </g>
     </g>
     <g id="text_1">
      <!-- 0 -->
      <defs>
       <path d="M 31.78125 66.40625 
Q 24.171875 66.40625 20.328125 58.90625 
Q 16.5 51.421875 16.5 36.375 
Q 16.5 21.390625 20.328125 13.890625 
Q 24.171875 6.390625 31.78125 6.390625 
Q 39.453125 6.390625 43.28125 13.890625 
Q 47.125 21.390625 47.125 36.375 
Q 47.125 51.421875 43.28125 58.90625 
Q 39.453125 66.40625 31.78125 66.40625 
M 31.78125 74.21875 
Q 44.046875 74.21875 50.515625 64.515625 
Q 56.984375 54.828125 56.984375 36.375 
Q 56.984375 17.96875 50.515625 8.265625 
Q 44.046875 -1.421875 31.78125 -1.421875 
Q 19.53125 -1.421875 13.0625 8.265625 
Q 6.59375 17.96875 6.59375 36.375 
Q 6.59375 54.828125 13.0625 64.515625 
Q 19.53125 74.21875 31.78125 74.21875 
" id="DejaVuSans-30"/>
      </defs>
      <g transform="translate(54.41875 322.182437)scale(0.1 -0.1)">
       <use xlink:href="#DejaVuSans-30"/>
      </g>
     </g>
    </g>
    <g id="xtick_2">
     <g id="line2d_3">
      <path clip-path="url(#p6fa744c7d1)" d="M 129.024 307.584 
L 129.024 41.472 
" style="fill:none;stroke:#b0b0b0;stroke-linecap:square;stroke-width:0.8;"/>
     </g>
     <g id="line2d_4">
      <g>
       <use style="stroke:#000000;stroke-width:0.8;" x="129.024" xlink:href="#m6a75d03050" y="307.584"/>
      </g>
     </g>
     <g id="text_2">
      <!-- 200 -->
      <defs>
       <path d="M 19.1875 8.296875 
L 53.609375 8.296875 
L 53.609375 0 
L 7.328125 0 
L 7.328125 8.296875 
Q 12.9375 14.109375 22.625 23.890625 
Q 32.328125 33.6875 34.8125 36.53125 
Q 39.546875 41.84375 41.421875 45.53125 
Q 43.3125 49.21875 43.3125 52.78125 
Q 43.3125 58.59375 39.234375 62.25 
Q 35.15625 65.921875 28.609375 65.921875 
Q 23.96875 65.921875 18.8125 64.3125 
Q 13.671875 62.703125 7.8125 59.421875 
L 7.8125 69.390625 
Q 13.765625 71.78125 18.9375 73 
Q 24.125 74.21875 28.421875 74.21875 
Q 39.75 74.21875 46.484375 68.546875 
Q 53.21875 62.890625 53.21875 53.421875 
Q 53.21875 48.921875 51.53125 44.890625 
Q 49.859375 40.875 45.40625 35.40625 
Q 44.1875 33.984375 37.640625 27.21875 
Q 31.109375 20.453125 19.1875 8.296875 
" id="DejaVuSans-32"/>
      </defs>
      <g transform="translate(119.48025 322.182437)scale(0.1 -0.1)">
       <use xlink:href="#DejaVuSans-32"/>
       <use x="63.623047" xlink:href="#DejaVuSans-30"/>
       <use x="127.246094" xlink:href="#DejaVuSans-30"/>
      </g>
     </g>
    </g>
    <g id="xtick_3">
     <g id="line2d_5">
      <path clip-path="url(#p6fa744c7d1)" d="M 200.448 307.584 
L 200.448 41.472 
" style="fill:none;stroke:#b0b0b0;stroke-linecap:square;stroke-width:0.8;"/>
     </g>
     <g id="line2d_6">
      <g>
       <use style="stroke:#000000;stroke-width:0.8;" x="200.448" xlink:href="#m6a75d03050" y="307.584"/>
      </g>
     </g>
     <g id="text_3">
      <!-- 400 -->
      <defs>
       <path d="M 37.796875 64.3125 
L 12.890625 25.390625 
L 37.796875 25.390625 
z
M 35.203125 72.90625 
L 47.609375 72.90625 
L 47.609375 25.390625 
L 58.015625 25.390625 
L 58.015625 17.1875 
L 47.609375 17.1875 
L 47.609375 0 
L 37.796875 0 
L 37.796875 17.1875 
L 4.890625 17.1875 
L 4.890625 26.703125 
z
" id="DejaVuSans-34"/>
      </defs>
      <g transform="translate(190.90425 322.182437)scale(0.1 -0.1)">
       <use xlink:href="#DejaVuSans-34"/>
       <use x="63.623047" xlink:href="#DejaVuSans-30"/>
       <use x="127.246094" xlink:href="#DejaVuSans-30"/>
      </g>
     </g>
    </g>
    <g id="xtick_4">
     <g id="line2d_7">
      <path clip-path="url(#p6fa744c7d1)" d="M 271.872 307.584 
L 271.872 41.472 
" style="fill:none;stroke:#b0b0b0;stroke-linecap:square;stroke-width:0.8;"/>
     </g>
     <g id="line2d_8">
      <g>
       <use style="stroke:#000000;stroke-width:0.8;" x="271.872" xlink:href="#m6a75d03050" y="307.584"/>
      </g>
     </g>
     <g id="text_4">
      <!-- 600 -->
      <defs>
       <path d="M 33.015625 40.375 
Q 26.375 40.375 22.484375 35.828125 
Q 18.609375 31.296875 18.609375 23.390625 
Q 18.609375 15.53125 22.484375 10.953125 
Q 26.375 6.390625 33.015625 6.390625 
Q 39.65625 6.390625 43.53125 10.953125 
Q 47.40625 15.53125 47.40625 23.390625 
Q 47.40625 31.296875 43.53125 35.828125 
Q 39.65625 40.375 33.015625 40.375 
M 52.59375 71.296875 
L 52.59375 62.3125 
Q 48.875 64.0625 45.09375 64.984375 
Q 41.3125 65.921875 37.59375 65.921875 
Q 27.828125 65.921875 22.671875 59.328125 
Q 17.53125 52.734375 16.796875 39.40625 
Q 19.671875 43.65625 24.015625 45.921875 
Q 28.375 48.1875 33.59375 48.1875 
Q 44.578125 48.1875 50.953125 41.515625 
Q 57.328125 34.859375 57.328125 23.390625 
Q 57.328125 12.15625 50.6875 5.359375 
Q 44.046875 -1.421875 33.015625 -1.421875 
Q 20.359375 -1.421875 13.671875 8.265625 
Q 6.984375 17.96875 6.984375 36.375 
Q 6.984375 53.65625 15.1875 63.9375 
Q 23.390625 74.21875 37.203125 74.21875 
Q 40.921875 74.21875 44.703125 73.484375 
Q 48.484375 72.75 52.59375 71.296875 
" id="DejaVuSans-36"/>
      </defs>
      <g transform="translate(262.32825 322.182437)scale(0.1 -0.1)">
       <use xlink:href="#DejaVuSans-36"/>
       <use x="63.623047" xlink:href="#DejaVuSans-30"/>
       <use x="127.246094" xlink:href="#DejaVuSans-30"/>
      </g>
     </g>
    </g>
    <g id="xtick_5">
     <g id="line2d_9">
      <path clip-path="url(#p6fa744c7d1)" d="M 343.296 307.584 
L 343.296 41.472 
" style="fill:none;stroke:#b0b0b0;stroke-linecap:square;stroke-width:0.8;"/>
     </g>
     <g id="line2d_10">
      <g>
       <use style="stroke:#000000;stroke-width:0.8;" x="343.296" xlink:href="#m6a75d03050" y="307.584"/>
      </g>
     </g>
     <g id="text_5">
      <!-- 800 -->
      <defs>
       <path d="M 31.78125 34.625 
Q 24.75 34.625 20.71875 30.859375 
Q 16.703125 27.09375 16.703125 20.515625 
Q 16.703125 13.921875 20.71875 10.15625 
Q 24.75 6.390625 31.78125 6.390625 
Q 38.8125 6.390625 42.859375 10.171875 
Q 46.921875 13.96875 46.921875 20.515625 
Q 46.921875 27.09375 42.890625 30.859375 
Q 38.875 34.625 31.78125 34.625 
M 21.921875 38.8125 
Q 15.578125 40.375 12.03125 44.71875 
Q 8.5 49.078125 8.5 55.328125 
Q 8.5 64.0625 14.71875 69.140625 
Q 20.953125 74.21875 31.78125 74.21875 
Q 42.671875 74.21875 48.875 69.140625 
Q 55.078125 64.0625 55.078125 55.328125 
Q 55.078125 49.078125 51.53125 44.71875 
Q 48 40.375 41.703125 38.8125 
Q 48.828125 37.15625 52.796875 32.3125 
Q 56.78125 27.484375 56.78125 20.515625 
Q 56.78125 9.90625 50.3125 4.234375 
Q 43.84375 -1.421875 31.78125 -1.421875 
Q 19.734375 -1.421875 13.25 4.234375 
Q 6.78125 9.90625 6.78125 20.515625 
Q 6.78125 27.484375 10.78125 32.3125 
Q 14.796875 37.15625 21.921875 38.8125 
M 18.3125 54.390625 
Q 18.3125 48.734375 21.84375 45.5625 
Q 25.390625 42.390625 31.78125 42.390625 
Q 38.140625 42.390625 41.71875 45.5625 
Q 45.3125 48.734375 45.3125 54.390625 
Q 45.3125 60.0625 41.71875 63.234375 
Q 38.140625 66.40625 31.78125 66.40625 
Q 25.390625 66.40625 21.84375 63.234375 
Q 18.3125 60.0625 18.3125 54.390625 
" id="DejaVuSans-38"/>
      </defs>
      <g transform="translate(333.75225 322.182437)scale(0.1 -0.1)">
       <use xlink:href="#DejaVuSans-38"/>
       <use x="63.623047" xlink:href="#DejaVuSans-30"/>
       <use x="127.246094" xlink:href="#DejaVuSans-30"/>
      </g>
     </g>
    </g>
    <g id="xtick_6">
     <g id="line2d_11">
      <path clip-path="url(#p6fa744c7d1)" d="M 414.72 307.584 
L 414.72 41.472 
" style="fill:none;stroke:#b0b0b0;stroke-linecap:square;stroke-width:0.8;"/>
     </g>
     <g id="line2d_12">
      <g>
       <use style="stroke:#000000;stroke-width:0.8;" x="414.72" xlink:href="#m6a75d03050" y="307.584"/>
      </g>
     </g>
     <g id="text_6">
      <!-- 1000 -->
      <defs>
       <path d="M 12.40625 8.296875 
L 28.515625 8.296875 
L 28.515625 63.921875 
L 10.984375 60.40625 
L 10.984375 69.390625 
L 28.421875 72.90625 
L 38.28125 72.90625 
L 38.28125 8.296875 
L 54.390625 8.296875 
L 54.390625 0 
L 12.40625 0 
z
" id="DejaVuSans-31"/>
      </defs>
      <g transform="translate(401.995 322.182437)scale(0.1 -0.1)">
       <use xlink:href="#DejaVuSans-31"/>
       <use x="63.623047" xlink:href="#DejaVuSans-30"/>
       <use x="127.246094" xlink:href="#DejaVuSans-30"/>
       <use x="190.869141" xlink:href="#DejaVuSans-30"/>
      </g>
     </g>
    </g>
    <g id="text_7">
     <!-- Number of clients -->
     <defs>
      <path d="M 9.8125 72.90625 
L 23.09375 72.90625 
L 55.421875 11.921875 
L 55.421875 72.90625 
L 64.984375 72.90625 
L 64.984375 0 
L 51.703125 0 
L 19.390625 60.984375 
L 19.390625 0 
L 9.8125 0 
z
" id="DejaVuSans-4e"/>
      <path d="M 8.5 21.578125 
L 8.5 54.6875 
L 17.484375 54.6875 
L 17.484375 21.921875 
Q 17.484375 14.15625 20.5 10.265625 
Q 23.53125 6.390625 29.59375 6.390625 
Q 36.859375 6.390625 41.078125 11.03125 
Q 45.3125 15.671875 45.3125 23.6875 
L 45.3125 54.6875 
L 54.296875 54.6875 
L 54.296875 0 
L 45.3125 0 
L 45.3125 8.40625 
Q 42.046875 3.421875 37.71875 1 
Q 33.40625 -1.421875 27.6875 -1.421875 
Q 18.265625 -1.421875 13.375 4.4375 
Q 8.5 10.296875 8.5 21.578125 
M 31.109375 56 
z
" id="DejaVuSans-75"/>
      <path d="M 52 44.1875 
Q 55.375 50.25 60.0625 53.125 
Q 64.75 56 71.09375 56 
Q 79.640625 56 84.28125 50.015625 
Q 88.921875 44.046875 88.921875 33.015625 
L 88.921875 0 
L 79.890625 0 
L 79.890625 32.71875 
Q 79.890625 40.578125 77.09375 44.375 
Q 74.3125 48.1875 68.609375 48.1875 
Q 61.625 48.1875 57.5625 43.546875 
Q 53.515625 38.921875 53.515625 30.90625 
L 53.515625 0 
L 44.484375 0 
L 44.484375 32.71875 
Q 44.484375 40.625 41.703125 44.40625 
Q 38.921875 48.1875 33.109375 48.1875 
Q 26.21875 48.1875 22.15625 43.53125 
Q 18.109375 38.875 18.109375 30.90625 
L 18.109375 0 
L 9.078125 0 
L 9.078125 54.6875 
L 18.109375 54.6875 
L 18.109375 46.1875 
Q 21.1875 51.21875 25.484375 53.609375 
Q 29.78125 56 35.6875 56 
Q 41.65625 56 45.828125 52.96875 
Q 50 49.953125 52 44.1875 
" id="DejaVuSans-6d"/>
      <path d="M 48.6875 27.296875 
Q 48.6875 37.203125 44.609375 42.84375 
Q 40.53125 48.484375 33.40625 48.484375 
Q 26.265625 48.484375 22.1875 42.84375 
Q 18.109375 37.203125 18.109375 27.296875 
Q 18.109375 17.390625 22.1875 11.75 
Q 26.265625 6.109375 33.40625 6.109375 
Q 40.53125 6.109375 44.609375 11.75 
Q 48.6875 17.390625 48.6875 27.296875 
M 18.109375 46.390625 
Q 20.953125 51.265625 25.265625 53.625 
Q 29.59375 56 35.59375 56 
Q 45.5625 56 51.78125 48.09375 
Q 58.015625 40.1875 58.015625 27.296875 
Q 58.015625 14.40625 51.78125 6.484375 
Q 45.5625 -1.421875 35.59375 -1.421875 
Q 29.59375 -1.421875 25.265625 0.953125 
Q 20.953125 3.328125 18.109375 8.203125 
L 18.109375 0 
L 9.078125 0 
L 9.078125 75.984375 
L 18.109375 75.984375 
z
" id="DejaVuSans-62"/>
      <path d="M 56.203125 29.59375 
L 56.203125 25.203125 
L 14.890625 25.203125 
Q 15.484375 15.921875 20.484375 11.0625 
Q 25.484375 6.203125 34.421875 6.203125 
Q 39.59375 6.203125 44.453125 7.46875 
Q 49.3125 8.734375 54.109375 11.28125 
L 54.109375 2.78125 
Q 49.265625 0.734375 44.1875 -0.34375 
Q 39.109375 -1.421875 33.890625 -1.421875 
Q 20.796875 -1.421875 13.15625 6.1875 
Q 5.515625 13.8125 5.515625 26.8125 
Q 5.515625 40.234375 12.765625 48.109375 
Q 20.015625 56 32.328125 56 
Q 43.359375 56 49.78125 48.890625 
Q 56.203125 41.796875 56.203125 29.59375 
M 47.21875 32.234375 
Q 47.125 39.59375 43.09375 43.984375 
Q 39.0625 48.390625 32.421875 48.390625 
Q 24.90625 48.390625 20.390625 44.140625 
Q 15.875 39.890625 15.1875 32.171875 
z
" id="DejaVuSans-65"/>
      <path d="M 41.109375 46.296875 
Q 39.59375 47.171875 37.8125 47.578125 
Q 36.03125 48 33.890625 48 
Q 26.265625 48 22.1875 43.046875 
Q 18.109375 38.09375 18.109375 28.8125 
L 18.109375 0 
L 9.078125 0 
L 9.078125 54.6875 
L 18.109375 54.6875 
L 18.109375 46.1875 
Q 20.953125 51.171875 25.484375 53.578125 
Q 30.03125 56 36.53125 56 
Q 37.453125 56 38.578125 55.875 
Q 39.703125 55.765625 41.0625 55.515625 
z
" id="DejaVuSans-72"/>
      <path id="DejaVuSans-20"/>
      <path d="M 30.609375 48.390625 
Q 23.390625 48.390625 19.1875 42.75 
Q 14.984375 37.109375 14.984375 27.296875 
Q 14.984375 17.484375 19.15625 11.84375 
Q 23.34375 6.203125 30.609375 6.203125 
Q 37.796875 6.203125 41.984375 11.859375 
Q 46.1875 17.53125 46.1875 27.296875 
Q 46.1875 37.015625 41.984375 42.703125 
Q 37.796875 48.390625 30.609375 48.390625 
M 30.609375 56 
Q 42.328125 56 49.015625 48.375 
Q 55.71875 40.765625 55.71875 27.296875 
Q 55.71875 13.875 49.015625 6.21875 
Q 42.328125 -1.421875 30.609375 -1.421875 
Q 18.84375 -1.421875 12.171875 6.21875 
Q 5.515625 13.875 5.515625 27.296875 
Q 5.515625 40.765625 12.171875 48.375 
Q 18.84375 56 30.609375 56 
" id="DejaVuSans-6f"/>
      <path d="M 37.109375 75.984375 
L 37.109375 68.5 
L 28.515625 68.5 
Q 23.6875 68.5 21.796875 66.546875 
Q 19.921875 64.59375 19.921875 59.515625 
L 19.921875 54.6875 
L 34.71875 54.6875 
L 34.71875 47.703125 
L 19.921875 47.703125 
L 19.921875 0 
L 10.890625 0 
L 10.890625 47.703125 
L 2.296875 47.703125 
L 2.296875 54.6875 
L 10.890625 54.6875 
L 10.890625 58.5 
Q 10.890625 67.625 15.140625 71.796875 
Q 19.390625 75.984375 28.609375 75.984375 
z
" id="DejaVuSans-66"/>
      <path d="M 48.78125 52.59375 
L 48.78125 44.1875 
Q 44.96875 46.296875 41.140625 47.34375 
Q 37.3125 48.390625 33.40625 48.390625 
Q 24.65625 48.390625 19.8125 42.84375 
Q 14.984375 37.3125 14.984375 27.296875 
Q 14.984375 17.28125 19.8125 11.734375 
Q 24.65625 6.203125 33.40625 6.203125 
Q 37.3125 6.203125 41.140625 7.25 
Q 44.96875 8.296875 48.78125 10.40625 
L 48.78125 2.09375 
Q 45.015625 0.34375 40.984375 -0.53125 
Q 36.96875 -1.421875 32.421875 -1.421875 
Q 20.0625 -1.421875 12.78125 6.34375 
Q 5.515625 14.109375 5.515625 27.296875 
Q 5.515625 40.671875 12.859375 48.328125 
Q 20.21875 56 33.015625 56 
Q 37.15625 56 41.109375 55.140625 
Q 45.0625 54.296875 48.78125 52.59375 
" id="DejaVuSans-63"/>
      <path d="M 9.421875 75.984375 
L 18.40625 75.984375 
L 18.40625 0 
L 9.421875 0 
z
" id="DejaVuSans-6c"/>
      <path d="M 9.421875 54.6875 
L 18.40625 54.6875 
L 18.40625 0 
L 9.421875 0 
z
M 9.421875 75.984375 
L 18.40625 75.984375 
L 18.40625 64.59375 
L 9.421875 64.59375 
z
" id="DejaVuSans-69"/>
      <path d="M 54.890625 33.015625 
L 54.890625 0 
L 45.90625 0 
L 45.90625 32.71875 
Q 45.90625 40.484375 42.875 44.328125 
Q 39.84375 48.1875 33.796875 48.1875 
Q 26.515625 48.1875 22.3125 43.546875 
Q 18.109375 38.921875 18.109375 30.90625 
L 18.109375 0 
L 9.078125 0 
L 9.078125 54.6875 
L 18.109375 54.6875 
L 18.109375 46.1875 
Q 21.34375 51.125 25.703125 53.5625 
Q 30.078125 56 35.796875 56 
Q 45.21875 56 50.046875 50.171875 
Q 54.890625 44.34375 54.890625 33.015625 
" id="DejaVuSans-6e"/>
      <path d="M 18.3125 70.21875 
L 18.3125 54.6875 
L 36.8125 54.6875 
L 36.8125 47.703125 
L 18.3125 47.703125 
L 18.3125 18.015625 
Q 18.3125 11.328125 20.140625 9.421875 
Q 21.96875 7.515625 27.59375 7.515625 
L 36.8125 7.515625 
L 36.8125 0 
L 27.59375 0 
Q 17.1875 0 13.234375 3.875 
Q 9.28125 7.765625 9.28125 18.015625 
L 9.28125 47.703125 
L 2.6875 47.703125 
L 2.6875 54.6875 
L 9.28125 54.6875 
L 9.28125 70.21875 
z
" id="DejaVuSans-74"/>
      <path d="M 44.28125 53.078125 
L 44.28125 44.578125 
Q 40.484375 46.53125 36.375 47.5 
Q 32.28125 48.484375 27.875 48.484375 
Q 21.1875 48.484375 17.84375 46.4375 
Q 14.5 44.390625 14.5 40.28125 
Q 14.5 37.15625 16.890625 35.375 
Q 19.28125 33.59375 26.515625 31.984375 
L 29.59375 31.296875 
Q 39.15625 29.25 43.1875 25.515625 
Q 47.21875 21.78125 47.21875 15.09375 
Q 47.21875 7.46875 41.1875 3.015625 
Q 35.15625 -1.421875 24.609375 -1.421875 
Q 20.21875 -1.421875 15.453125 -0.5625 
Q 10.6875 0.296875 5.421875 2 
L 5.421875 11.28125 
Q 10.40625 8.6875 15.234375 7.390625 
Q 20.0625 6.109375 24.8125 6.109375 
Q 31.15625 6.109375 34.5625 8.28125 
Q 37.984375 10.453125 37.984375 14.40625 
Q 37.984375 18.0625 35.515625 20.015625 
Q 33.0625 21.96875 24.703125 23.78125 
L 21.578125 24.515625 
Q 13.234375 26.265625 9.515625 29.90625 
Q 5.8125 33.546875 5.8125 39.890625 
Q 5.8125 47.609375 11.28125 51.796875 
Q 16.75 56 26.8125 56 
Q 31.78125 56 36.171875 55.265625 
Q 40.578125 54.546875 44.28125 53.078125 
" id="DejaVuSans-73"/>
     </defs>
     <g transform="translate(191.738906 335.860562)scale(0.1 -0.1)">
      <use xlink:href="#DejaVuSans-4e"/>
      <use x="74.804688" xlink:href="#DejaVuSans-75"/>
      <use x="138.183594" xlink:href="#DejaVuSans-6d"/>
      <use x="235.595703" xlink:href="#DejaVuSans-62"/>
      <use x="299.072266" xlink:href="#DejaVuSans-65"/>
      <use x="360.595703" xlink:href="#DejaVuSans-72"/>
      <use x="401.708984" xlink:href="#DejaVuSans-20"/>
      <use x="433.496094" xlink:href="#DejaVuSans-6f"/>
      <use x="494.677734" xlink:href="#DejaVuSans-66"/>
      <use x="529.882812" xlink:href="#DejaVuSans-20"/>
      <use x="561.669922" xlink:href="#DejaVuSans-63"/>
      <use x="616.650391" xlink:href="#DejaVuSans-6c"/>
      <use x="644.433594" xlink:href="#DejaVuSans-69"/>
      <use x="672.216797" xlink:href="#DejaVuSans-65"/>
      <use x="733.740234" xlink:href="#DejaVuSans-6e"/>
      <use x="797.119141" xlink:href="#DejaVuSans-74"/>
      <use x="836.328125" xlink:href="#DejaVuSans-73"/>
     </g>
    </g>
   </g>
   <g id="matplotlib.axis_2">
    <g id="ytick_1">
     <g id="line2d_13">
      <path clip-path="url(#p6fa744c7d1)" d="M 57.6 296.793409 
L 414.72 296.793409 
" style="fill:none;stroke:#b0b0b0;stroke-linecap:square;stroke-width:0.8;"/>
     </g>
     <g id="line2d_14">
      <defs>
       <path d="M 0 0 
L -3.5 0 
" id="mc44f57339f" style="stroke:#000000;stroke-width:0.8;"/>
      </defs>
      <g>
       <use style="stroke:#000000;stroke-width:0.8;" x="57.6" xlink:href="#mc44f57339f" y="296.793409"/>
      </g>
     </g>
     <g id="text_8">
      <!-- 0 -->
      <g transform="translate(44.2375 300.592627)scale(0.1 -0.1)">
       <use xlink:href="#DejaVuSans-30"/>
      </g>
     </g>
    </g>
    <g id="ytick_2">
     <g id="line2d_15">
      <path clip-path="url(#p6fa744c7d1)" d="M 57.6 262.075093 
L 414.72 262.075093 
" style="fill:none;stroke:#b0b0b0;stroke-linecap:square;stroke-width:0.8;"/>
     </g>
     <g id="line2d_16">
      <g>
       <use style="stroke:#000000;stroke-width:0.8;" x="57.6" xlink:href="#mc44f57339f" y="262.075093"/>
      </g>
     </g>
     <g id="text_9">
      <!-- 25 -->
      <defs>
       <path d="M 10.796875 72.90625 
L 49.515625 72.90625 
L 49.515625 64.59375 
L 19.828125 64.59375 
L 19.828125 46.734375 
Q 21.96875 47.46875 24.109375 47.828125 
Q 26.265625 48.1875 28.421875 48.1875 
Q 40.625 48.1875 47.75 41.5 
Q 54.890625 34.8125 54.890625 23.390625 
Q 54.890625 11.625 47.5625 5.09375 
Q 40.234375 -1.421875 26.90625 -1.421875 
Q 22.3125 -1.421875 17.546875 -0.640625 
Q 12.796875 0.140625 7.71875 1.703125 
L 7.71875 11.625 
Q 12.109375 9.234375 16.796875 8.0625 
Q 21.484375 6.890625 26.703125 6.890625 
Q 35.15625 6.890625 40.078125 11.328125 
Q 45.015625 15.765625 45.015625 23.390625 
Q 45.015625 31 40.078125 35.4375 
Q 35.15625 39.890625 26.703125 39.890625 
Q 22.75 39.890625 18.8125 39.015625 
Q 14.890625 38.140625 10.796875 36.28125 
z
" id="DejaVuSans-35"/>
      </defs>
      <g transform="translate(37.875 265.874312)scale(0.1 -0.1)">
       <use xlink:href="#DejaVuSans-32"/>
       <use x="63.623047" xlink:href="#DejaVuSans-35"/>
      </g>
     </g>
    </g>
    <g id="ytick_3">
     <g id="line2d_17">
      <path clip-path="url(#p6fa744c7d1)" d="M 57.6 227.356778 
L 414.72 227.356778 
" style="fill:none;stroke:#b0b0b0;stroke-linecap:square;stroke-width:0.8;"/>
     </g>
     <g id="line2d_18">
      <g>
       <use style="stroke:#000000;stroke-width:0.8;" x="57.6" xlink:href="#mc44f57339f" y="227.356778"/>
      </g>
     </g>
     <g id="text_10">
      <!-- 50 -->
      <g transform="translate(37.875 231.155996)scale(0.1 -0.1)">
       <use xlink:href="#DejaVuSans-35"/>
       <use x="63.623047" xlink:href="#DejaVuSans-30"/>
      </g>
     </g>
    </g>
    <g id="ytick_4">
     <g id="line2d_19">
      <path clip-path="url(#p6fa744c7d1)" d="M 57.6 192.638462 
L 414.72 192.638462 
" style="fill:none;stroke:#b0b0b0;stroke-linecap:square;stroke-width:0.8;"/>
     </g>
     <g id="line2d_20">
      <g>
       <use style="stroke:#000000;stroke-width:0.8;" x="57.6" xlink:href="#mc44f57339f" y="192.638462"/>
      </g>
     </g>
     <g id="text_11">
      <!-- 75 -->
      <defs>
       <path d="M 8.203125 72.90625 
L 55.078125 72.90625 
L 55.078125 68.703125 
L 28.609375 0 
L 18.3125 0 
L 43.21875 64.59375 
L 8.203125 64.59375 
z
" id="DejaVuSans-37"/>
      </defs>
      <g transform="translate(37.875 196.437681)scale(0.1 -0.1)">
       <use xlink:href="#DejaVuSans-37"/>
       <use x="63.623047" xlink:href="#DejaVuSans-35"/>
      </g>
     </g>
    </g>
    <g id="ytick_5">
     <g id="line2d_21">
      <path clip-path="url(#p6fa744c7d1)" d="M 57.6 157.920147 
L 414.72 157.920147 
" style="fill:none;stroke:#b0b0b0;stroke-linecap:square;stroke-width:0.8;"/>
     </g>
     <g id="line2d_22">
      <g>
       <use style="stroke:#000000;stroke-width:0.8;" x="57.6" xlink:href="#mc44f57339f" y="157.920147"/>
      </g>
     </g>
     <g id="text_12">
      <!-- 100 -->
      <g transform="translate(31.5125 161.719365)scale(0.1 -0.1)">
       <use xlink:href="#DejaVuSans-31"/>
       <use x="63.623047" xlink:href="#DejaVuSans-30"/>
       <use x="127.246094" xlink:href="#DejaVuSans-30"/>
      </g>
     </g>
    </g>
    <g id="ytick_6">
     <g id="line2d_23">
      <path clip-path="url(#p6fa744c7d1)" d="M 57.6 123.201831 
L 414.72 123.201831 
" style="fill:none;stroke:#b0b0b0;stroke-linecap:square;stroke-width:0.8;"/>
     </g>
     <g id="line2d_24">
      <g>
       <use style="stroke:#000000;stroke-width:0.8;" x="57.6" xlink:href="#mc44f57339f" y="123.201831"/>
      </g>
     </g>
     <g id="text_13">
      <!-- 125 -->
      <g transform="translate(31.5125 127.00105)scale(0.1 -0.1)">
       <use xlink:href="#DejaVuSans-31"/>
       <use x="63.623047" xlink:href="#DejaVuSans-32"/>
       <use x="127.246094" xlink:href="#DejaVuSans-35"/>
      </g>
     </g>
    </g>
    <g id="ytick_7">
     <g id="line2d_25">
      <path clip-path="url(#p6fa744c7d1)" d="M 57.6 88.483516 
L 414.72 88.483516 
" style="fill:none;stroke:#b0b0b0;stroke-linecap:square;stroke-width:0.8;"/>
     </g>
     <g id="line2d_26">
      <g>
       <use style="stroke:#000000;stroke-width:0.8;" x="57.6" xlink:href="#mc44f57339f" y="88.483516"/>
      </g>
     </g>
     <g id="text_14">
      <!-- 150 -->
      <g transform="translate(31.5125 92.282734)scale(0.1 -0.1)">
       <use xlink:href="#DejaVuSans-31"/>
       <use x="63.623047" xlink:href="#DejaVuSans-35"/>
       <use x="127.246094" xlink:href="#DejaVuSans-30"/>
      </g>
     </g>
    </g>
    <g id="ytick_8">
     <g id="line2d_27">
      <path clip-path="url(#p6fa744c7d1)" d="M 57.6 53.7652 
L 414.72 53.7652 
" style="fill:none;stroke:#b0b0b0;stroke-linecap:square;stroke-width:0.8;"/>
     </g>
     <g id="line2d_28">
      <g>
       <use style="stroke:#000000;stroke-width:0.8;" x="57.6" xlink:href="#mc44f57339f" y="53.7652"/>
      </g>
     </g>
     <g id="text_15">
      <!-- 175 -->
      <g transform="translate(31.5125 57.564419)scale(0.1 -0.1)">
       <use xlink:href="#DejaVuSans-31"/>
       <use x="63.623047" xlink:href="#DejaVuSans-37"/>
       <use x="127.246094" xlink:href="#DejaVuSans-35"/>
      </g>
     </g>
    </g>
    <g id="text_16">
     <!-- Successful download requests per second -->
     <defs>
      <path d="M 53.515625 70.515625 
L 53.515625 60.890625 
Q 47.90625 63.578125 42.921875 64.890625 
Q 37.9375 66.21875 33.296875 66.21875 
Q 25.25 66.21875 20.875 63.09375 
Q 16.5 59.96875 16.5 54.203125 
Q 16.5 49.359375 19.40625 46.890625 
Q 22.3125 44.4375 30.421875 42.921875 
L 36.375 41.703125 
Q 47.40625 39.59375 52.65625 34.296875 
Q 57.90625 29 57.90625 20.125 
Q 57.90625 9.515625 50.796875 4.046875 
Q 43.703125 -1.421875 29.984375 -1.421875 
Q 24.8125 -1.421875 18.96875 -0.25 
Q 13.140625 0.921875 6.890625 3.21875 
L 6.890625 13.375 
Q 12.890625 10.015625 18.65625 8.296875 
Q 24.421875 6.59375 29.984375 6.59375 
Q 38.421875 6.59375 43.015625 9.90625 
Q 47.609375 13.234375 47.609375 19.390625 
Q 47.609375 24.75 44.3125 27.78125 
Q 41.015625 30.8125 33.5 32.328125 
L 27.484375 33.5 
Q 16.453125 35.6875 11.515625 40.375 
Q 6.59375 45.0625 6.59375 53.421875 
Q 6.59375 63.09375 13.40625 68.65625 
Q 20.21875 74.21875 32.171875 74.21875 
Q 37.3125 74.21875 42.625 73.28125 
Q 47.953125 72.359375 53.515625 70.515625 
" id="DejaVuSans-53"/>
      <path d="M 45.40625 46.390625 
L 45.40625 75.984375 
L 54.390625 75.984375 
L 54.390625 0 
L 45.40625 0 
L 45.40625 8.203125 
Q 42.578125 3.328125 38.25 0.953125 
Q 33.9375 -1.421875 27.875 -1.421875 
Q 17.96875 -1.421875 11.734375 6.484375 
Q 5.515625 14.40625 5.515625 27.296875 
Q 5.515625 40.1875 11.734375 48.09375 
Q 17.96875 56 27.875 56 
Q 33.9375 56 38.25 53.625 
Q 42.578125 51.265625 45.40625 46.390625 
M 14.796875 27.296875 
Q 14.796875 17.390625 18.875 11.75 
Q 22.953125 6.109375 30.078125 6.109375 
Q 37.203125 6.109375 41.296875 11.75 
Q 45.40625 17.390625 45.40625 27.296875 
Q 45.40625 37.203125 41.296875 42.84375 
Q 37.203125 48.484375 30.078125 48.484375 
Q 22.953125 48.484375 18.875 42.84375 
Q 14.796875 37.203125 14.796875 27.296875 
" id="DejaVuSans-64"/>
      <path d="M 4.203125 54.6875 
L 13.1875 54.6875 
L 24.421875 12.015625 
L 35.59375 54.6875 
L 46.1875 54.6875 
L 57.421875 12.015625 
L 68.609375 54.6875 
L 77.59375 54.6875 
L 63.28125 0 
L 52.6875 0 
L 40.921875 44.828125 
L 29.109375 0 
L 18.5 0 
z
" id="DejaVuSans-77"/>
      <path d="M 34.28125 27.484375 
Q 23.390625 27.484375 19.1875 25 
Q 14.984375 22.515625 14.984375 16.5 
Q 14.984375 11.71875 18.140625 8.90625 
Q 21.296875 6.109375 26.703125 6.109375 
Q 34.1875 6.109375 38.703125 11.40625 
Q 43.21875 16.703125 43.21875 25.484375 
L 43.21875 27.484375 
z
M 52.203125 31.203125 
L 52.203125 0 
L 43.21875 0 
L 43.21875 8.296875 
Q 40.140625 3.328125 35.546875 0.953125 
Q 30.953125 -1.421875 24.3125 -1.421875 
Q 15.921875 -1.421875 10.953125 3.296875 
Q 6 8.015625 6 15.921875 
Q 6 25.140625 12.171875 29.828125 
Q 18.359375 34.515625 30.609375 34.515625 
L 43.21875 34.515625 
L 43.21875 35.40625 
Q 43.21875 41.609375 39.140625 45 
Q 35.0625 48.390625 27.6875 48.390625 
Q 23 48.390625 18.546875 47.265625 
Q 14.109375 46.140625 10.015625 43.890625 
L 10.015625 52.203125 
Q 14.9375 54.109375 19.578125 55.046875 
Q 24.21875 56 28.609375 56 
Q 40.484375 56 46.34375 49.84375 
Q 52.203125 43.703125 52.203125 31.203125 
" id="DejaVuSans-61"/>
      <path d="M 14.796875 27.296875 
Q 14.796875 17.390625 18.875 11.75 
Q 22.953125 6.109375 30.078125 6.109375 
Q 37.203125 6.109375 41.296875 11.75 
Q 45.40625 17.390625 45.40625 27.296875 
Q 45.40625 37.203125 41.296875 42.84375 
Q 37.203125 48.484375 30.078125 48.484375 
Q 22.953125 48.484375 18.875 42.84375 
Q 14.796875 37.203125 14.796875 27.296875 
M 45.40625 8.203125 
Q 42.578125 3.328125 38.25 0.953125 
Q 33.9375 -1.421875 27.875 -1.421875 
Q 17.96875 -1.421875 11.734375 6.484375 
Q 5.515625 14.40625 5.515625 27.296875 
Q 5.515625 40.1875 11.734375 48.09375 
Q 17.96875 56 27.875 56 
Q 33.9375 56 38.25 53.625 
Q 42.578125 51.265625 45.40625 46.390625 
L 45.40625 54.6875 
L 54.390625 54.6875 
L 54.390625 -20.796875 
L 45.40625 -20.796875 
z
" id="DejaVuSans-71"/>
      <path d="M 18.109375 8.203125 
L 18.109375 -20.796875 
L 9.078125 -20.796875 
L 9.078125 54.6875 
L 18.109375 54.6875 
L 18.109375 46.390625 
Q 20.953125 51.265625 25.265625 53.625 
Q 29.59375 56 35.59375 56 
Q 45.5625 56 51.78125 48.09375 
Q 58.015625 40.1875 58.015625 27.296875 
Q 58.015625 14.40625 51.78125 6.484375 
Q 45.5625 -1.421875 35.59375 -1.421875 
Q 29.59375 -1.421875 25.265625 0.953125 
Q 20.953125 3.328125 18.109375 8.203125 
M 48.6875 27.296875 
Q 48.6875 37.203125 44.609375 42.84375 
Q 40.53125 48.484375 33.40625 48.484375 
Q 26.265625 48.484375 22.1875 42.84375 
Q 18.109375 37.203125 18.109375 27.296875 
Q 18.109375 17.390625 22.1875 11.75 
Q 26.265625 6.109375 33.40625 6.109375 
Q 40.53125 6.109375 44.609375 11.75 
Q 48.6875 17.390625 48.6875 27.296875 
" id="DejaVuSans-70"/>
     </defs>
     <g transform="translate(25.432812 279.366281)rotate(-90)scale(0.1 -0.1)">
      <use xlink:href="#DejaVuSans-53"/>
      <use x="63.476562" xlink:href="#DejaVuSans-75"/>
      <use x="126.855469" xlink:href="#DejaVuSans-63"/>
      <use x="181.835938" xlink:href="#DejaVuSans-63"/>
      <use x="236.816406" xlink:href="#DejaVuSans-65"/>
      <use x="298.339844" xlink:href="#DejaVuSans-73"/>
      <use x="350.439453" xlink:href="#DejaVuSans-73"/>
      <use x="402.539062" xlink:href="#DejaVuSans-66"/>
      <use x="437.744141" xlink:href="#DejaVuSans-75"/>
      <use x="501.123047" xlink:href="#DejaVuSans-6c"/>
      <use x="528.90625" xlink:href="#DejaVuSans-20"/>
      <use x="560.693359" xlink:href="#DejaVuSans-64"/>
      <use x="624.169922" xlink:href="#DejaVuSans-6f"/>
      <use x="685.351562" xlink:href="#DejaVuSans-77"/>
      <use x="767.138672" xlink:href="#DejaVuSans-6e"/>
      <use x="830.517578" xlink:href="#DejaVuSans-6c"/>
      <use x="858.300781" xlink:href="#DejaVuSans-6f"/>
      <use x="919.482422" xlink:href="#DejaVuSans-61"/>
      <use x="980.761719" xlink:href="#DejaVuSans-64"/>
      <use x="1044.238281" xlink:href="#DejaVuSans-20"/>
      <use x="1076.025391" xlink:href="#DejaVuSans-72"/>
      <use x="1117.107422" xlink:href="#DejaVuSans-65"/>
      <use x="1178.630859" xlink:href="#DejaVuSans-71"/>
      <use x="1242.107422" xlink:href="#DejaVuSans-75"/>
      <use x="1305.486328" xlink:href="#DejaVuSans-65"/>
      <use x="1367.009766" xlink:href="#DejaVuSans-73"/>
      <use x="1419.109375" xlink:href="#DejaVuSans-74"/>
      <use x="1458.318359" xlink:href="#DejaVuSans-73"/>
      <use x="1510.417969" xlink:href="#DejaVuSans-20"/>
      <use x="1542.205078" xlink:href="#DejaVuSans-70"/>
      <use x="1605.681641" xlink:href="#DejaVuSans-65"/>
      <use x="1667.205078" xlink:href="#DejaVuSans-72"/>
      <use x="1708.318359" xlink:href="#DejaVuSans-20"/>
      <use x="1740.105469" xlink:href="#DejaVuSans-73"/>
      <use x="1792.205078" xlink:href="#DejaVuSans-65"/>
      <use x="1853.728516" xlink:href="#DejaVuSans-63"/>
      <use x="1908.708984" xlink:href="#DejaVuSans-6f"/>
      <use x="1969.890625" xlink:href="#DejaVuSans-6e"/>
      <use x="2033.269531" xlink:href="#DejaVuSans-64"/>
     </g>
    </g>
   </g>
   <g id="line2d_29">
    <path clip-path="url(#p6fa744c7d1)" d="M 57.6 295.425507 
L 57.95712 295.488 
L 60.81408 284.521178 
L 61.1712 283.779595 
L 61.88544 280.702164 
L 62.24256 279.848093 
L 62.9568 276.145732 
L 63.31392 275.58885 
L 64.02816 271.864269 
L 64.38528 271.119909 
L 65.09952 268.563252 
L 65.45664 266.30795 
L 65.81376 266.08853 
L 66.17088 264.133195 
L 66.528 263.224964 
L 66.88512 263.093034 
L 67.24224 260.573873 
L 67.59936 260.386394 
L 67.95648 256.943726 
L 68.3136 257.167312 
L 68.67072 256.068825 
L 69.02784 253.719089 
L 69.38496 252.944176 
L 69.74208 250.340302 
L 70.0992 250.32086 
L 70.45632 247.510065 
L 70.81344 247.093446 
L 71.17056 247.353139 
L 71.52768 243.299428 
L 72.24192 240.971912 
L 72.59904 241.63156 
L 72.95616 240.342816 
L 73.6704 236.396038 
L 74.02752 236.811269 
L 74.38464 233.606074 
L 75.09888 230.298113 
L 75.456 230.973037 
L 75.81312 230.113412 
L 76.52736 224.447383 
L 76.88448 227.015149 
L 77.2416 222.268461 
L 77.59872 222.176805 
L 77.95584 218.261968 
L 78.31296 221.586594 
L 78.67008 219.750689 
L 79.0272 214.670705 
L 79.38432 214.776249 
L 79.74144 216.614931 
L 80.09856 214.697091 
L 80.45568 211.536336 
L 80.8128 215.149818 
L 81.16992 212.114048 
L 81.52704 210.140659 
L 81.88416 214.098547 
L 82.24128 212.738978 
L 82.5984 211.823803 
L 82.95552 209.507397 
L 83.31264 209.374079 
L 83.66976 206.407746 
L 84.02688 209.06578 
L 84.384 206.759095 
L 84.74112 207.160439 
L 85.09824 206.18416 
L 85.45536 208.357527 
L 85.81248 204.130225 
L 86.1696 202.931748 
L 86.52672 205.996681 
L 86.88384 202.626227 
L 87.24096 201.031962 
L 87.59808 200.505632 
L 87.9552 200.709776 
L 88.31232 199.830708 
L 88.66944 200.909754 
L 89.02656 201.599954 
L 89.38368 202.998407 
L 89.7408 199.200224 
L 90.09792 201.777711 
L 90.45504 201.216664 
L 90.81216 199.716832 
L 91.16928 200.148728 
L 91.5264 198.544742 
L 91.88352 200.186224 
L 92.24064 196.696339 
L 92.59776 194.556302 
L 92.95488 199.032187 
L 93.312 192.878713 
L 94.02624 196.553299 
L 94.38336 196.975474 
L 94.74048 194.434093 
L 95.0976 195.615905 
L 95.45472 190.444265 
L 96.16896 194.279944 
L 96.52608 192.206566 
L 96.8832 193.841105 
L 97.24032 189.351332 
L 97.59744 194.910429 
L 97.95456 193.710564 
L 98.31168 191.20529 
L 98.6688 193.530028 
L 99.02592 191.240008 
L 99.38304 190.910879 
L 99.74016 188.063977 
L 100.09728 190.871994 
L 100.4544 189.291616 
L 100.81152 189.609636 
L 101.16864 187.651523 
L 101.52576 188.954154 
L 101.88288 183.210356 
L 102.24 189.711014 
L 102.59712 189.399938 
L 102.95424 187.526537 
L 103.31136 181.378618 
L 103.66848 180.895339 
L 104.0256 181.489717 
L 104.38272 180.448167 
L 104.73984 183.111756 
L 105.09696 184.406055 
L 105.8112 178.60393 
L 106.16832 183.845007 
L 106.52544 180.634257 
L 106.88256 185.428162 
L 107.23968 182.939553 
L 107.5968 179.531604 
L 107.95392 177.970668 
L 108.31104 183.32701 
L 108.66816 179.673254 
L 109.02528 178.210919 
L 109.3824 178.092877 
L 109.73952 180.345401 
L 110.09664 176.756916 
L 110.45376 178.037327 
L 110.81088 175.480671 
L 111.168 176.01811 
L 111.52512 179.796852 
L 111.88224 173.835022 
L 112.23936 174.278028 
L 112.9536 171.797752 
L 113.31072 173.039279 
L 113.66784 175.983392 
L 114.02496 177.523496 
L 114.38208 175.45984 
L 115.09632 174.311358 
L 115.45344 169.518841 
L 115.81056 173.66282 
L 116.16768 169.657715 
L 116.5248 170.888132 
L 117.23904 175.500113 
L 117.59616 170.836749 
L 117.95328 172.975397 
L 118.3104 173.360076 
L 118.66752 168.730041 
L 119.02464 169.25776 
L 119.38176 172.165766 
L 119.73888 171.486676 
L 120.096 167.445464 
L 120.45312 173.923901 
L 120.81024 172.733757 
L 121.16736 172.551833 
L 121.52448 169.527174 
L 121.8816 171.028394 
L 122.23872 166.394193 
L 122.59584 165.158221 
L 122.95296 164.434691 
L 123.31008 166.201159 
L 123.6672 171.511673 
L 124.02432 165.252655 
L 124.38144 169.79381 
L 124.73856 166.733044 
L 125.09568 170.484011 
L 125.4528 168.320365 
L 125.80992 169.184157 
L 126.16704 167.853751 
L 126.52416 164.805483 
L 126.88128 165.501238 
L 127.2384 160.158784 
L 127.95264 167.116334 
L 128.30976 159.136676 
L 128.66688 158.654786 
L 129.024 165.998404 
L 129.38112 163.058457 
L 129.73824 158.177062 
L 130.09536 161.33504 
L 130.45248 157.052189 
L 130.8096 162.159947 
L 131.52384 159.882426 
L 131.88096 164.912415 
L 132.23808 157.300772 
L 132.5952 161.197556 
L 132.95232 156.582797 
L 133.30944 159.671338 
L 133.66656 154.630239 
L 134.3808 156.223115 
L 134.73792 154.470535 
L 135.09504 156.078687 
L 135.45216 156.566132 
L 135.80928 153.913653 
L 136.52352 158.76033 
L 136.88064 157.359099 
L 137.23776 161.526685 
L 137.59488 151.597247 
L 137.952 154.794109 
L 138.30912 152.576303 
L 138.66624 160.953139 
L 139.02336 158.925589 
L 139.38048 157.734056 
L 139.7376 159.807434 
L 140.09472 159.604679 
L 140.80896 151.187571 
L 141.16608 152.805444 
L 141.5232 158.729778 
L 141.88032 153.963647 
L 142.23744 158.3326 
L 142.59456 151.294503 
L 142.95168 152.53603 
L 143.66592 156.398096 
L 144.02304 148.655911 
L 144.38016 157.046634 
L 144.73728 154.551081 
L 145.0944 147.889331 
L 145.45152 151.376438 
L 145.80864 146.413108 
L 146.16576 147.785176 
L 146.52288 155.702341 
L 146.88 147.435215 
L 147.23712 154.677456 
L 147.59424 147.217184 
L 147.95136 150.516813 
L 148.30848 147.076922 
L 148.6656 149.246123 
L 149.02272 147.275511 
L 149.37984 147.72546 
L 149.73696 153.905321 
L 150.09408 143.703691 
L 150.4512 151.806946 
L 151.16544 145.485435 
L 151.87968 149.290562 
L 152.2368 146.177024 
L 152.59392 149.73079 
L 152.95104 149.278063 
L 153.30816 150.319613 
L 153.66528 142.935722 
L 154.0224 142.573262 
L 154.37952 143.755074 
L 154.73664 143.220412 
L 155.09376 146.232573 
L 155.45088 143.613423 
L 155.808 150.094638 
L 156.16512 142.380229 
L 156.52224 147.853224 
L 156.87936 148.721182 
L 157.23648 149.203072 
L 157.5936 141.570597 
L 157.95072 140.58182 
L 158.30784 148.554534 
L 158.66496 137.764081 
L 159.02208 148.230959 
L 159.73632 146.8825 
L 160.09344 138.465391 
L 160.45056 141.002606 
L 160.80768 137.215532 
L 161.1648 145.413221 
L 161.52192 140.419338 
L 161.87904 144.588313 
L 162.23616 146.850559 
L 162.59328 139.222251 
L 162.9504 137.751583 
L 163.30752 139.52916 
L 163.66464 136.243419 
L 164.02176 139.898563 
L 164.37888 134.867185 
L 164.736 140.013828 
L 165.09312 137.228031 
L 165.80736 135.628211 
L 166.16448 138.607042 
L 166.5216 138.915341 
L 166.87872 144.110589 
L 167.23584 139.524994 
L 167.59296 140.74569 
L 167.95008 134.706092 
L 168.66432 140.970665 
L 169.02144 133.340968 
L 169.37856 137.493278 
L 169.73568 133.989506 
L 170.0928 138.294577 
L 170.44992 138.779245 
L 170.80704 138.184867 
L 171.16416 139.64998 
L 171.52128 138.951448 
L 172.23552 131.305086 
L 172.59264 130.562114 
L 172.94976 138.365403 
L 173.30688 133.493729 
L 173.664 136.730864 
L 174.02112 136.898901 
L 174.37824 129.260871 
L 174.73536 132.389686 
L 175.09248 131.600886 
L 175.4496 129.183102 
L 175.80672 136.944729 
L 176.16384 129.774703 
L 176.52096 136.786414 
L 176.87808 129.638607 
L 177.2352 134.768585 
L 177.59232 135.301858 
L 177.94944 137.228031 
L 178.30656 130.337139 
L 178.66368 134.481117 
L 179.0208 130.663491 
L 179.37792 136.239253 
L 179.73504 137.225253 
L 180.09216 130.744038 
L 180.44928 133.752033 
L 180.8064 132.8563 
L 181.16352 127.384694 
L 181.52064 134.272808 
L 181.87776 133.413182 
L 182.23488 133.829802 
L 182.592 129.991345 
L 182.94912 130.684322 
L 183.30624 126.484795 
L 183.66336 127.819367 
L 184.02048 135.406013 
L 184.3776 135.674039 
L 184.73472 130.980122 
L 185.09184 133.056278 
L 185.44896 123.49902 
L 185.80608 134.935233 
L 186.1632 125.433524 
L 186.52032 131.773089 
L 186.87744 130.713486 
L 187.23456 132.049447 
L 187.59168 129.606666 
L 187.9488 130.221874 
L 188.30592 129.062283 
L 188.66304 130.035784 
L 189.02016 124.044792 
L 189.37728 123.332372 
L 189.7344 128.097114 
L 190.09152 128.213767 
L 190.44864 130.328807 
L 190.80576 125.633502 
L 191.16288 129.309477 
L 191.52 122.2936 
L 191.87712 123.769823 
L 192.23424 124.754434 
L 192.59136 123.385144 
L 192.94848 123.814262 
L 193.3056 119.80638 
L 193.66272 120.607679 
L 194.01984 128.858139 
L 194.37696 120.009135 
L 194.73408 126.043178 
L 195.0912 124.607228 
L 195.44832 130.532951 
L 195.80544 128.212378 
L 196.16256 119.374484 
L 196.51968 117.803827 
L 196.8768 120.096625 
L 197.23392 117.671898 
L 197.59104 128.606778 
L 198.30528 122.036684 
L 198.6624 121.485358 
L 199.01952 127.216657 
L 199.73376 120.789603 
L 200.09088 125.412693 
L 200.448 126.486184 
L 200.80512 123.973966 
L 201.16224 126.888916 
L 201.87648 124.029516 
L 202.2336 124.244769 
L 202.59072 120.666005 
L 202.94784 115.897097 
L 203.66208 124.104507 
L 204.0192 125.422415 
L 204.37632 124.90164 
L 205.09056 117.158067 
L 205.44768 117.142791 
L 205.8048 114.638906 
L 206.16192 116.8581 
L 206.51904 124.261434 
L 206.87616 118.452366 
L 207.23328 115.608241 
L 207.5904 124.191997 
L 207.94752 123.579566 
L 208.30464 112.755784 
L 208.66176 118.607904 
L 209.01888 118.910647 
L 209.376 122.618563 
L 209.73312 112.496091 
L 210.09024 113.223787 
L 210.44736 124.100341 
L 210.80448 120.943752 
L 211.1616 111.919767 
L 211.51872 117.763554 
L 211.87584 112.941874 
L 212.23296 120.086904 
L 212.59008 118.650954 
L 212.9472 120.918755 
L 213.30432 119.18145 
L 213.66144 120.710445 
L 214.01856 119.717501 
L 214.37568 110.172742 
L 214.7328 120.216056 
L 215.08992 118.880095 
L 215.44704 110.599083 
L 215.80416 110.147744 
L 216.16128 112.233621 
L 216.5184 117.49414 
L 216.87552 109.978319 
L 217.23264 121.346484 
L 217.58976 115.458258 
L 217.94688 115.763779 
L 218.304 114.313942 
L 218.66112 111.380939 
L 219.01824 111.328167 
L 219.37536 113.832052 
L 219.73248 114.138962 
L 220.0896 107.434161 
L 220.44672 118.155177 
L 220.80384 107.286955 
L 221.16096 115.487421 
L 221.51808 111.064308 
L 221.8752 108.553479 
L 222.58944 116.651179 
L 222.94656 108.468767 
L 223.30368 106.696744 
L 223.6608 118.084351 
L 224.01792 110.314392 
L 224.37504 114.348661 
L 224.73216 112.176683 
L 225.08928 113.820942 
L 225.4464 117.238613 
L 226.16064 109.300618 
L 226.51776 108.341003 
L 226.87488 112.426655 
L 227.232 112.425266 
L 227.58912 112.841886 
L 228.30336 105.217744 
L 228.66048 114.422263 
L 229.0176 104.978882 
L 229.37472 107.381389 
L 229.73184 108.503485 
L 230.08896 103.898448 
L 230.44608 112.255841 
L 230.8032 105.667693 
L 231.16032 107.836893 
L 231.51744 108.81595 
L 231.87456 111.630911 
L 232.23168 104.766406 
L 232.5888 108.781232 
L 232.94592 103.009659 
L 233.30304 112.098914 
L 233.66016 103.51238 
L 234.01728 102.994383 
L 234.3744 103.787349 
L 234.73152 109.556144 
L 235.08864 102.463887 
L 235.44576 104.066484 
L 235.80288 108.082699 
L 236.16 109.732513 
L 236.87424 105.055262 
L 237.23136 109.550589 
L 237.58848 112.185015 
L 237.9456 101.908394 
L 238.30272 112.123911 
L 238.65984 109.147857 
L 239.01696 102.680529 
L 239.37408 112.877993 
L 239.7312 106.170414 
L 240.08832 110.847666 
L 240.44544 102.776352 
L 240.80256 101.582042 
L 241.15968 111.911435 
L 241.5168 108.353502 
L 241.87392 111.98226 
L 242.23104 99.464224 
L 242.58816 105.381614 
L 242.94528 106.823119 
L 243.3024 105.989879 
L 243.65952 108.921494 
L 244.01664 110.494928 
L 244.37376 102.661087 
L 244.73088 102.477774 
L 245.088 104.413667 
L 245.80224 98.761526 
L 246.15936 99.694754 
L 246.51648 105.128865 
L 247.23072 110.476874 
L 247.58784 98.667092 
L 247.94496 103.330456 
L 248.30208 97.065883 
L 248.6592 97.850517 
L 249.37344 110.111637 
L 249.73056 101.770909 
L 250.08768 102.618036 
L 250.4448 97.076993 
L 250.80192 98.865681 
L 251.15904 96.303469 
L 251.51616 106.793955 
L 251.87328 99.396176 
L 252.2304 99.073991 
L 252.58752 106.932828 
L 252.94464 103.648476 
L 253.30176 107.529983 
L 253.65888 99.190644 
L 254.016 101.093208 
L 254.37312 103.779017 
L 254.73024 102.554154 
L 255.08736 102.363898 
L 255.44448 101.22236 
L 255.8016 104.426166 
L 256.51584 98.489334 
L 256.87296 97.742196 
L 257.23008 98.333796 
L 257.5872 105.251073 
L 257.94432 103.226301 
L 258.30144 95.891015 
L 259.01568 105.303845 
L 259.3728 97.086714 
L 259.72992 93.850967 
L 260.08704 92.441404 
L 260.44416 100.866844 
L 260.80128 96.224311 
L 261.1584 103.816512 
L 261.51552 105.021932 
L 261.87264 93.816249 
L 262.22976 93.021894 
L 262.58688 105.142752 
L 262.944 94.364798 
L 263.30112 102.213915 
L 263.65824 94.818914 
L 264.01536 92.05117 
L 264.37248 98.761526 
L 264.7296 95.547998 
L 265.44384 104.667806 
L 265.80096 103.935943 
L 266.15808 95.847965 
L 266.5152 95.632711 
L 266.87232 95.603548 
L 267.22944 96.733976 
L 267.58656 102.268076 
L 267.94368 102.606926 
L 268.3008 93.042725 
L 268.65792 90.141662 
L 269.01504 102.102816 
L 269.37216 94.948066 
L 269.72928 98.379624 
L 270.0864 92.946902 
L 270.44352 93.880131 
L 270.80064 100.768244 
L 271.15776 102.71247 
L 271.51488 93.641269 
L 271.872 93.966232 
L 272.22912 93.051057 
L 272.58624 89.20149 
L 272.94336 89.276482 
L 273.30048 100.048881 
L 273.6576 102.470831 
L 274.01472 90.791589 
L 274.37184 102.183363 
L 274.72896 102.03338 
L 275.08608 88.987625 
L 275.4432 88.669606 
L 275.80032 94.232869 
L 276.15744 92.802474 
L 276.51456 95.966007 
L 276.87168 87.203104 
L 277.2288 93.01495 
L 277.58592 88.447409 
L 277.94304 87.497515 
L 278.30016 88.504347 
L 278.65728 98.278247 
L 279.0144 94.531446 
L 279.37152 86.296262 
L 280.08576 95.167486 
L 280.44288 89.402857 
L 280.8 98.412954 
L 281.15712 94.418959 
L 281.51424 85.656056 
L 281.87136 90.786034 
L 282.22848 91.951181 
L 282.5856 94.260643 
L 282.94272 97.757472 
L 283.29984 86.586507 
L 283.65696 99.435061 
L 284.01408 97.772748 
L 284.3712 98.249083 
L 284.72832 98.964281 
L 285.08544 98.103266 
L 285.44256 93.551001 
L 285.79968 92.091443 
L 286.1568 87.800259 
L 286.51392 92.35808 
L 286.87104 89.032065 
L 287.22816 88.895969 
L 287.58528 89.118166 
L 287.9424 88.207158 
L 288.29952 97.349185 
L 288.65664 94.707815 
L 289.01376 89.250096 
L 289.37088 93.364911 
L 289.728 87.39336 
L 290.08512 89.580614 
L 290.79936 96.524277 
L 291.15648 93.213539 
L 291.5136 95.964618 
L 291.87072 92.710818 
L 292.22784 86.208772 
L 292.58496 83.864591 
L 292.94208 88.676549 
L 293.2992 84.751991 
L 293.65632 92.505285 
L 294.01344 90.942961 
L 294.37056 84.363146 
L 294.72768 90.590223 
L 295.0848 82.509188 
L 295.44192 84.622839 
L 295.79904 84.293709 
L 296.15616 90.761037 
L 296.51328 93.985674 
L 296.8704 83.227163 
L 297.22752 86.087952 
L 297.94176 94.728646 
L 298.29888 94.160655 
L 299.01312 81.242664 
L 299.37024 81.792602 
L 299.72736 91.084612 
L 300.08448 94.843911 
L 300.4416 89.901412 
L 300.79872 89.362583 
L 301.15584 88.396025 
L 301.51296 79.944199 
L 301.87008 85.154723 
L 302.2272 87.278096 
L 302.58432 86.46291 
L 302.94144 93.834302 
L 303.29856 86.493462 
L 303.65568 93.216316 
L 304.0128 89.044564 
L 304.36992 83.311875 
L 304.72704 92.853857 
L 305.08416 81.614844 
L 305.44128 87.265597 
L 305.7984 82.103678 
L 306.15552 80.977416 
L 306.51264 89.868082 
L 306.86976 82.478636 
L 307.22688 82.503633 
L 307.584 82.021743 
L 307.94112 85.911583 
L 308.29824 86.04629 
L 308.65536 89.251485 
L 309.01248 90.170826 
L 309.3696 90.568003 
L 309.72672 90.090279 
L 310.08384 87.933577 
L 310.44096 82.621675 
L 310.79808 86.097673 
L 311.51232 77.613905 
L 311.86944 91.348471 
L 312.22656 90.252761 
L 312.58368 81.253774 
L 312.9408 85.790763 
L 313.29792 78.234669 
L 313.65504 76.127961 
L 314.01216 83.760436 
L 314.36928 86.542067 
L 314.7264 78.758221 
L 315.08352 82.763326 
L 315.44064 76.116852 
L 315.79776 80.652452 
L 316.15488 78.729058 
L 316.512 88.930687 
L 316.86912 87.659997 
L 317.22624 75.336384 
L 317.58336 84.821428 
L 317.94048 78.792939 
L 318.2976 75.930761 
L 318.65472 79.224835 
L 319.01184 83.938194 
L 319.36896 87.051732 
L 319.72608 77.570855 
L 320.0832 86.090729 
L 320.44032 81.013523 
L 320.79744 87.343366 
L 321.15456 87.035067 
L 321.51168 82.746661 
L 321.8688 74.178181 
L 322.58304 87.237822 
L 322.94016 87.241989 
L 323.29728 86.82398 
L 323.6544 74.875325 
L 324.01152 87.443355 
L 324.36864 79.05541 
L 324.72576 88.221045 
L 325.08288 77.022305 
L 325.79712 85.275543 
L 326.15424 83.868757 
L 326.51136 72.711679 
L 326.86848 77.361156 
L 327.2256 77.441702 
L 327.58272 83.134117 
L 327.93984 79.680339 
L 328.29696 72.746397 
L 329.0112 81.313489 
L 329.36832 73.522699 
L 329.72544 77.984697 
L 330.08256 87.036456 
L 330.43968 80.484416 
L 330.7968 85.254712 
L 331.15392 77.812494 
L 331.51104 81.464861 
L 331.86816 76.937593 
L 332.5824 80.394148 
L 332.93952 75.182235 
L 333.29664 79.458142 
L 333.65376 75.254449 
L 334.01088 79.630345 
L 334.368 82.077292 
L 334.72512 77.648624 
L 335.08224 82.617509 
L 335.43936 70.603583 
L 335.79648 77.161178 
L 336.1536 73.025533 
L 336.51072 73.72962 
L 336.86784 72.02009 
L 337.22496 72.200626 
L 337.58208 73.93793 
L 337.9392 73.356051 
L 338.29632 77.53197 
L 338.65344 84.082622 
L 339.01056 69.842558 
L 339.36768 77.207007 
L 339.7248 78.379097 
L 340.08192 84.335371 
L 340.43904 74.411488 
L 340.79616 70.877163 
L 341.15328 69.799507 
L 341.5104 76.65568 
L 342.22464 83.386867 
L 342.58176 75.773835 
L 342.93888 81.86065 
L 343.296 81.585681 
L 343.65312 75.436373 
L 344.01024 78.472142 
L 344.36736 77.586131 
L 344.72448 78.334658 
L 345.0816 71.678462 
L 345.43872 68.401053 
L 345.79584 72.082583 
L 346.15296 68.128862 
L 346.51008 71.075752 
L 346.8672 76.514029 
L 347.22432 68.605197 
L 347.58144 73.98237 
L 347.93856 73.076916 
L 348.29568 80.246942 
L 348.6528 81.291269 
L 349.00992 68.026095 
L 349.36704 70.306394 
L 349.72416 71.863164 
L 350.08128 69.119028 
L 350.79552 80.881593 
L 351.15264 68.15247 
L 351.50976 80.752441 
L 351.86688 66.930385 
L 352.58112 72.672795 
L 352.93824 81.753717 
L 353.29536 68.463546 
L 353.65248 75.916874 
L 354.0096 74.604522 
L 354.36672 71.883995 
L 354.72384 81.305157 
L 355.08096 74.14624 
L 355.43808 70.920214 
L 355.7952 75.198899 
L 356.15232 66.165194 
L 356.50944 70.768842 
L 356.86656 79.498415 
L 357.22368 76.593187 
L 357.5808 72.468651 
L 357.93792 70.38833 
L 358.29504 74.954482 
L 358.65216 65.702746 
L 359.00928 79.201227 
L 359.3664 72.547809 
L 359.72352 76.861212 
L 360.43776 67.596977 
L 360.79488 65.395836 
L 361.50912 74.197623 
L 362.22336 72.292282 
L 362.58048 73.632409 
L 362.9376 79.038745 
L 363.65184 69.634248 
L 364.00896 74.015699 
L 364.36608 65.105591 
L 365.08032 68.328839 
L 365.43744 66.808177 
L 365.79456 72.16313 
L 366.15168 67.333118 
L 366.5088 78.281886 
L 366.86592 63.007216 
L 367.22304 74.043474 
L 367.58016 78.099962 
L 367.93728 67.881667 
L 368.2944 75.172513 
L 368.65152 63.040545 
L 369.00864 69.070422 
L 369.36576 66.37767 
L 369.72288 65.722188 
L 370.08 66.66236 
L 370.43712 68.753791 
L 370.79424 71.883995 
L 371.15136 69.435659 
L 371.50848 63.082207 
L 371.8656 70.860499 
L 372.22272 72.182572 
L 372.57984 67.192856 
L 372.93696 75.952981 
L 373.29408 72.94082 
L 373.6512 74.679513 
L 374.00832 65.144475 
L 374.36544 77.23617 
L 374.72256 76.583466 
L 375.07968 75.269725 
L 375.4368 66.912332 
L 375.79392 63.162754 
L 376.15104 72.876938 
L 376.50816 72.668628 
L 376.86528 63.355788 
L 377.2224 66.523487 
L 377.57952 74.04764 
L 377.93664 76.077967 
L 378.29376 69.52176 
L 378.65088 71.485428 
L 379.008 67.080368 
L 379.36512 67.452549 
L 379.72224 63.308571 
L 380.07936 69.589808 
L 380.7936 63.075264 
L 381.15072 74.067082 
L 381.50784 67.026208 
L 381.86496 64.207081 
L 382.22208 62.998883 
L 382.5792 72.224234 
L 382.93632 69.137081 
L 383.29344 69.777287 
L 383.65056 75.166958 
L 384.00768 68.928772 
L 384.3648 72.571417 
L 384.72192 71.829834 
L 385.07904 75.11002 
L 385.43616 73.351885 
L 385.79328 64.198748 
L 386.1504 60.935227 
L 386.50752 59.371514 
L 386.86464 65.308346 
L 387.22176 58.248029 
L 387.57888 59.858959 
L 387.936 71.404882 
L 388.29312 67.016487 
L 388.65024 66.858171 
L 389.00736 66.483213 
L 389.36448 65.102813 
L 389.7216 67.055371 
L 390.07872 62.943334 
L 390.43584 60.43806 
L 390.79296 66.851228 
L 391.15008 59.063215 
L 391.5072 71.518758 
L 391.86432 68.695464 
L 392.22144 61.286576 
L 392.57856 60.170035 
L 392.93568 64.059875 
L 393.2928 64.069596 
L 393.64992 59.6937 
L 394.00704 62.9475 
L 394.36416 68.02054 
L 394.72128 69.714794 
L 395.0784 64.173751 
L 395.43552 64.352898 
L 395.79264 70.81467 
L 396.14976 65.437498 
L 396.50688 58.102212 
L 396.864 68.089977 
L 397.22112 64.359841 
L 397.57824 69.920327 
L 397.93536 63.623813 
L 398.29248 67.180357 
L 398.6496 69.338448 
L 399.00672 68.828783 
L 399.36384 69.484265 
L 399.72096 64.429278 
L 400.07808 65.624977 
L 400.4352 68.377445 
L 400.79232 67.376168 
L 401.14944 63.025269 
L 401.50656 64.950053 
L 401.86368 57.396736 
L 402.2208 63.080818 
L 402.57792 70.734124 
L 402.93504 70.173076 
L 403.29216 56.730144 
L 404.0064 68.33856 
L 404.36352 56.512113 
L 404.72064 56.43851 
L 405.07776 66.43183 
L 405.43488 57.60088 
L 405.792 63.048878 
L 406.14912 55.263643 
L 406.86336 65.420833 
L 407.22048 65.55554 
L 407.5776 68.684355 
L 407.93472 55.971896 
L 408.29184 57.160651 
L 408.64896 63.643255 
L 409.00608 58.95906 
L 409.3632 59.67148 
L 409.72032 53.568 
L 410.07744 59.274302 
L 410.43456 59.765914 
L 410.79168 55.994116 
L 411.1488 65.716633 
L 411.86304 59.263192 
L 412.22016 56.870406 
L 412.57728 59.602043 
L 412.9344 66.777625 
L 413.29152 67.051205 
L 413.64864 61.017162 
L 414.00576 59.425674 
L 414.36288 58.534108 
L 414.72 63.409948 
L 414.72 63.409948 
" style="fill:none;stroke:#000080;stroke-linecap:square;stroke-width:0.5;"/>
   </g>
   <g id="patch_3">
    <path d="M 57.6 307.584 
L 57.6 41.472 
" style="fill:none;stroke:#000000;stroke-linecap:square;stroke-linejoin:miter;stroke-width:0.8;"/>
   </g>
   <g id="patch_4">
    <path d="M 414.72 307.584 
L 414.72 41.472 
" style="fill:none;stroke:#000000;stroke-linecap:square;stroke-linejoin:miter;stroke-width:0.8;"/>
   </g>
   <g id="patch_5">
    <path d="M 57.6 307.584 
L 414.72 307.584 
" style="fill:none;stroke:#000000;stroke-linecap:square;stroke-linejoin:miter;stroke-width:0.8;"/>
   </g>
   <g id="patch_6">
    <path d="M 57.6 41.472 
L 414.72 41.472 
" style="fill:none;stroke:#000000;stroke-linecap:square;stroke-linejoin:miter;stroke-width:0.8;"/>
   </g>
   <g id="text_17">
    <!-- Test -->
    <defs>
     <path d="M -0.296875 72.90625 
L 61.375 72.90625 
L 61.375 64.59375 
L 35.5 64.59375 
L 35.5 0 
L 25.59375 0 
L 25.59375 64.59375 
L -0.296875 64.59375 
z
" id="DejaVuSans-54"/>
    </defs>
    <g transform="translate(223.341563 35.472)scale(0.12 -0.12)">
     <use xlink:href="#DejaVuSans-54"/>
     <use x="60.818359" xlink:href="#DejaVuSans-65"/>
     <use x="122.341797" xlink:href="#DejaVuSans-73"/>
     <use x="174.441406" xlink:href="#DejaVuSans-74"/>
    </g>
   </g>
   <g id="legend_1">
    <g id="patch_7">
     <path d="M 64.6 64.150125 
L 306.276563 64.150125 
Q 308.276563 64.150125 308.276563 62.150125 
L 308.276563 48.472 
Q 308.276563 46.472 306.276563 46.472 
L 64.6 46.472 
Q 62.6 46.472 62.6 48.472 
L 62.6 62.150125 
Q 62.6 64.150125 64.6 64.150125 
z
" style="fill:#ffffff;opacity:0.8;stroke:#cccccc;stroke-linejoin:miter;"/>
    </g>
    <g id="line2d_30">
     <path d="M 66.6 54.570438 
L 86.6 54.570438 
" style="fill:none;stroke:#000080;stroke-linecap:square;stroke-width:0.5;"/>
    </g>
    <g id="line2d_31"/>
    <g id="text_18">
     <!-- Successful download requests per second -->
     <g transform="translate(94.6 58.070438)scale(0.1 -0.1)">
      <use xlink:href="#DejaVuSans-53"/>
      <use x="63.476562" xlink:href="#DejaVuSans-75"/>
      <use x="126.855469" xlink:href="#DejaVuSans-63"/>
      <use x="181.835938" xlink:href="#DejaVuSans-63"/>
      <use x="236.816406" xlink:href="#DejaVuSans-65"/>
      <use x="298.339844" xlink:href="#DejaVuSans-73"/>
      <use x="350.439453" xlink:href="#DejaVuSans-73"/>
      <use x="402.539062" xlink:href="#DejaVuSans-66"/>
      <use x="437.744141" xlink:href="#DejaVuSans-75"/>
      <use x="501.123047" xlink:href="#DejaVuSans-6c"/>
      <use x="528.90625" xlink:href="#DejaVuSans-20"/>
      <use x="560.693359" xlink:href="#DejaVuSans-64"/>
      <use x="624.169922" xlink:href="#DejaVuSans-6f"/>
      <use x="685.351562" xlink:href="#DejaVuSans-77"/>
      <use x="767.138672" xlink:href="#DejaVuSans-6e"/>
      <use x="830.517578" xlink:href="#DejaVuSans-6c"/>
      <use x="858.300781" xlink:href="#DejaVuSans-6f"/>
      <use x="919.482422" xlink:href="#DejaVuSans-61"/>
      <use x="980.761719" xlink:href="#DejaVuSans-64"/>
      <use x="1044.238281" xlink:href="#DejaVuSans-20"/>
      <use x="1076.025391" xlink:href="#DejaVuSans-72"/>
      <use x="1117.107422" xlink:href="#DejaVuSans-65"/>
      <use x="1178.630859" xlink:href="#DejaVuSans-71"/>
      <use x="1242.107422" xlink:href="#DejaVuSans-75"/>
      <use x="1305.486328" xlink:href="#DejaVuSans-65"/>
      <use x="1367.009766" xlink:href="#DejaVuSans-73"/>
      <use x="1419.109375" xlink:href="#DejaVuSans-74"/>
      <use x="1458.318359" xlink:href="#DejaVuSans-73"/>
      <use x="1510.417969" xlink:href="#DejaVuSans-20"/>
      <use x="1542.205078" xlink:href="#DejaVuSans-70"/>
      <use x="1605.681641" xlink:href="#DejaVuSans-65"/>
      <use x="1667.205078" xlink:href="#DejaVuSans-72"/>
      <use x="1708.318359" xlink:href="#DejaVuSans-20"/>
      <use x="1740.105469" xlink:href="#DejaVuSans-73"/>
      <use x="1792.205078" xlink:href="#DejaVuSans-65"/>
      <use x="1853.728516" xlink:href="#DejaVuSans-63"/>
      <use x="1908.708984" xlink:href="#DejaVuSans-6f"/>
      <use x="1969.890625" xlink:href="#DejaVuSans-6e"/>
      <use x="2033.269531" xlink:href="#DejaVuSans-64"/>
     </g>
    </g>
   </g>
  </g>
 </g>
 <defs>
  <clipPath id="p6fa744c7d1">
   <rect height="266.112" width="357.12" x="57.6" y="41.472"/>
  </clipPath>
 </defs>
</svg>
