<?xml version="1.0" encoding="utf-8" standalone="no"?>
<!DOCTYPE svg PUBLIC "-//W3C//DTD SVG 1.1//EN"
  "http://www.w3.org/Graphics/SVG/1.1/DTD/svg11.dtd">
<!-- Created with matplotlib (http://matplotlib.org/) -->
<svg height="345pt" version="1.1" viewBox="0 0 460 345" width="460pt" xmlns="http://www.w3.org/2000/svg" xmlns:xlink="http://www.w3.org/1999/xlink">
 <defs>
  <style type="text/css">
*{stroke-linecap:butt;stroke-linejoin:round;}
  </style>
 </defs>
 <g id="figure_1">
  <g id="patch_1">
   <path d="M 0 345.6 
L 460.8 345.6 
L 460.8 0 
L 0 0 
z
" style="fill:#ffffff;"/>
  </g>
  <g id="axes_1">
   <g id="patch_2">
    <path d="M 57.6 307.584 
L 414.72 307.584 
L 414.72 41.472 
L 57.6 41.472 
z
" style="fill:#ffffff;"/>
   </g>
   <g id="matplotlib.axis_1">
    <g id="xtick_1">
     <g id="line2d_1">
      <path clip-path="url(#p9987a33cbd)" d="M 57.6 307.584 
L 57.6 41.472 
" style="fill:none;stroke:#b0b0b0;stroke-linecap:square;stroke-width:0.8;"/>
     </g>
     <g id="line2d_2">
      <defs>
       <path d="M 0 0 
L 0 3.5 
" id="m55a21d4595" style="stroke:#000000;stroke-width:0.8;"/>
      </defs>
      <g>
       <use style="stroke:#000000;stroke-width:0.8;" x="57.6" xlink:href="#m55a21d4595" y="307.584"/>
      </g>
     </g>
     <g id="text_1">
      <!-- 0 -->
      <defs>
       <path d="M 31.78125 66.40625 
Q 24.171875 66.40625 20.328125 58.90625 
Q 16.5 51.421875 16.5 36.375 
Q 16.5 21.390625 20.328125 13.890625 
Q 24.171875 6.390625 31.78125 6.390625 
Q 39.453125 6.390625 43.28125 13.890625 
Q 47.125 21.390625 47.125 36.375 
Q 47.125 51.421875 43.28125 58.90625 
Q 39.453125 66.40625 31.78125 66.40625 
M 31.78125 74.21875 
Q 44.046875 74.21875 50.515625 64.515625 
Q 56.984375 54.828125 56.984375 36.375 
Q 56.984375 17.96875 50.515625 8.265625 
Q 44.046875 -1.421875 31.78125 -1.421875 
Q 19.53125 -1.421875 13.0625 8.265625 
Q 6.59375 17.96875 6.59375 36.375 
Q 6.59375 54.828125 13.0625 64.515625 
Q 19.53125 74.21875 31.78125 74.21875 
" id="DejaVuSans-30"/>
      </defs>
      <g transform="translate(54.41875 322.182437)scale(0.1 -0.1)">
       <use xlink:href="#DejaVuSans-30"/>
      </g>
     </g>
    </g>
    <g id="xtick_2">
     <g id="line2d_3">
      <path clip-path="url(#p9987a33cbd)" d="M 129.024 307.584 
L 129.024 41.472 
" style="fill:none;stroke:#b0b0b0;stroke-linecap:square;stroke-width:0.8;"/>
     </g>
     <g id="line2d_4">
      <g>
       <use style="stroke:#000000;stroke-width:0.8;" x="129.024" xlink:href="#m55a21d4595" y="307.584"/>
      </g>
     </g>
     <g id="text_2">
      <!-- 200 -->
      <defs>
       <path d="M 19.1875 8.296875 
L 53.609375 8.296875 
L 53.609375 0 
L 7.328125 0 
L 7.328125 8.296875 
Q 12.9375 14.109375 22.625 23.890625 
Q 32.328125 33.6875 34.8125 36.53125 
Q 39.546875 41.84375 41.421875 45.53125 
Q 43.3125 49.21875 43.3125 52.78125 
Q 43.3125 58.59375 39.234375 62.25 
Q 35.15625 65.921875 28.609375 65.921875 
Q 23.96875 65.921875 18.8125 64.3125 
Q 13.671875 62.703125 7.8125 59.421875 
L 7.8125 69.390625 
Q 13.765625 71.78125 18.9375 73 
Q 24.125 74.21875 28.421875 74.21875 
Q 39.75 74.21875 46.484375 68.546875 
Q 53.21875 62.890625 53.21875 53.421875 
Q 53.21875 48.921875 51.53125 44.890625 
Q 49.859375 40.875 45.40625 35.40625 
Q 44.1875 33.984375 37.640625 27.21875 
Q 31.109375 20.453125 19.1875 8.296875 
" id="DejaVuSans-32"/>
      </defs>
      <g transform="translate(119.48025 322.182437)scale(0.1 -0.1)">
       <use xlink:href="#DejaVuSans-32"/>
       <use x="63.623047" xlink:href="#DejaVuSans-30"/>
       <use x="127.246094" xlink:href="#DejaVuSans-30"/>
      </g>
     </g>
    </g>
    <g id="xtick_3">
     <g id="line2d_5">
      <path clip-path="url(#p9987a33cbd)" d="M 200.448 307.584 
L 200.448 41.472 
" style="fill:none;stroke:#b0b0b0;stroke-linecap:square;stroke-width:0.8;"/>
     </g>
     <g id="line2d_6">
      <g>
       <use style="stroke:#000000;stroke-width:0.8;" x="200.448" xlink:href="#m55a21d4595" y="307.584"/>
      </g>
     </g>
     <g id="text_3">
      <!-- 400 -->
      <defs>
       <path d="M 37.796875 64.3125 
L 12.890625 25.390625 
L 37.796875 25.390625 
z
M 35.203125 72.90625 
L 47.609375 72.90625 
L 47.609375 25.390625 
L 58.015625 25.390625 
L 58.015625 17.1875 
L 47.609375 17.1875 
L 47.609375 0 
L 37.796875 0 
L 37.796875 17.1875 
L 4.890625 17.1875 
L 4.890625 26.703125 
z
" id="DejaVuSans-34"/>
      </defs>
      <g transform="translate(190.90425 322.182437)scale(0.1 -0.1)">
       <use xlink:href="#DejaVuSans-34"/>
       <use x="63.623047" xlink:href="#DejaVuSans-30"/>
       <use x="127.246094" xlink:href="#DejaVuSans-30"/>
      </g>
     </g>
    </g>
    <g id="xtick_4">
     <g id="line2d_7">
      <path clip-path="url(#p9987a33cbd)" d="M 271.872 307.584 
L 271.872 41.472 
" style="fill:none;stroke:#b0b0b0;stroke-linecap:square;stroke-width:0.8;"/>
     </g>
     <g id="line2d_8">
      <g>
       <use style="stroke:#000000;stroke-width:0.8;" x="271.872" xlink:href="#m55a21d4595" y="307.584"/>
      </g>
     </g>
     <g id="text_4">
      <!-- 600 -->
      <defs>
       <path d="M 33.015625 40.375 
Q 26.375 40.375 22.484375 35.828125 
Q 18.609375 31.296875 18.609375 23.390625 
Q 18.609375 15.53125 22.484375 10.953125 
Q 26.375 6.390625 33.015625 6.390625 
Q 39.65625 6.390625 43.53125 10.953125 
Q 47.40625 15.53125 47.40625 23.390625 
Q 47.40625 31.296875 43.53125 35.828125 
Q 39.65625 40.375 33.015625 40.375 
M 52.59375 71.296875 
L 52.59375 62.3125 
Q 48.875 64.0625 45.09375 64.984375 
Q 41.3125 65.921875 37.59375 65.921875 
Q 27.828125 65.921875 22.671875 59.328125 
Q 17.53125 52.734375 16.796875 39.40625 
Q 19.671875 43.65625 24.015625 45.921875 
Q 28.375 48.1875 33.59375 48.1875 
Q 44.578125 48.1875 50.953125 41.515625 
Q 57.328125 34.859375 57.328125 23.390625 
Q 57.328125 12.15625 50.6875 5.359375 
Q 44.046875 -1.421875 33.015625 -1.421875 
Q 20.359375 -1.421875 13.671875 8.265625 
Q 6.984375 17.96875 6.984375 36.375 
Q 6.984375 53.65625 15.1875 63.9375 
Q 23.390625 74.21875 37.203125 74.21875 
Q 40.921875 74.21875 44.703125 73.484375 
Q 48.484375 72.75 52.59375 71.296875 
" id="DejaVuSans-36"/>
      </defs>
      <g transform="translate(262.32825 322.182437)scale(0.1 -0.1)">
       <use xlink:href="#DejaVuSans-36"/>
       <use x="63.623047" xlink:href="#DejaVuSans-30"/>
       <use x="127.246094" xlink:href="#DejaVuSans-30"/>
      </g>
     </g>
    </g>
    <g id="xtick_5">
     <g id="line2d_9">
      <path clip-path="url(#p9987a33cbd)" d="M 343.296 307.584 
L 343.296 41.472 
" style="fill:none;stroke:#b0b0b0;stroke-linecap:square;stroke-width:0.8;"/>
     </g>
     <g id="line2d_10">
      <g>
       <use style="stroke:#000000;stroke-width:0.8;" x="343.296" xlink:href="#m55a21d4595" y="307.584"/>
      </g>
     </g>
     <g id="text_5">
      <!-- 800 -->
      <defs>
       <path d="M 31.78125 34.625 
Q 24.75 34.625 20.71875 30.859375 
Q 16.703125 27.09375 16.703125 20.515625 
Q 16.703125 13.921875 20.71875 10.15625 
Q 24.75 6.390625 31.78125 6.390625 
Q 38.8125 6.390625 42.859375 10.171875 
Q 46.921875 13.96875 46.921875 20.515625 
Q 46.921875 27.09375 42.890625 30.859375 
Q 38.875 34.625 31.78125 34.625 
M 21.921875 38.8125 
Q 15.578125 40.375 12.03125 44.71875 
Q 8.5 49.078125 8.5 55.328125 
Q 8.5 64.0625 14.71875 69.140625 
Q 20.953125 74.21875 31.78125 74.21875 
Q 42.671875 74.21875 48.875 69.140625 
Q 55.078125 64.0625 55.078125 55.328125 
Q 55.078125 49.078125 51.53125 44.71875 
Q 48 40.375 41.703125 38.8125 
Q 48.828125 37.15625 52.796875 32.3125 
Q 56.78125 27.484375 56.78125 20.515625 
Q 56.78125 9.90625 50.3125 4.234375 
Q 43.84375 -1.421875 31.78125 -1.421875 
Q 19.734375 -1.421875 13.25 4.234375 
Q 6.78125 9.90625 6.78125 20.515625 
Q 6.78125 27.484375 10.78125 32.3125 
Q 14.796875 37.15625 21.921875 38.8125 
M 18.3125 54.390625 
Q 18.3125 48.734375 21.84375 45.5625 
Q 25.390625 42.390625 31.78125 42.390625 
Q 38.140625 42.390625 41.71875 45.5625 
Q 45.3125 48.734375 45.3125 54.390625 
Q 45.3125 60.0625 41.71875 63.234375 
Q 38.140625 66.40625 31.78125 66.40625 
Q 25.390625 66.40625 21.84375 63.234375 
Q 18.3125 60.0625 18.3125 54.390625 
" id="DejaVuSans-38"/>
      </defs>
      <g transform="translate(333.75225 322.182437)scale(0.1 -0.1)">
       <use xlink:href="#DejaVuSans-38"/>
       <use x="63.623047" xlink:href="#DejaVuSans-30"/>
       <use x="127.246094" xlink:href="#DejaVuSans-30"/>
      </g>
     </g>
    </g>
    <g id="xtick_6">
     <g id="line2d_11">
      <path clip-path="url(#p9987a33cbd)" d="M 414.72 307.584 
L 414.72 41.472 
" style="fill:none;stroke:#b0b0b0;stroke-linecap:square;stroke-width:0.8;"/>
     </g>
     <g id="line2d_12">
      <g>
       <use style="stroke:#000000;stroke-width:0.8;" x="414.72" xlink:href="#m55a21d4595" y="307.584"/>
      </g>
     </g>
     <g id="text_6">
      <!-- 1000 -->
      <defs>
       <path d="M 12.40625 8.296875 
L 28.515625 8.296875 
L 28.515625 63.921875 
L 10.984375 60.40625 
L 10.984375 69.390625 
L 28.421875 72.90625 
L 38.28125 72.90625 
L 38.28125 8.296875 
L 54.390625 8.296875 
L 54.390625 0 
L 12.40625 0 
z
" id="DejaVuSans-31"/>
      </defs>
      <g transform="translate(401.995 322.182437)scale(0.1 -0.1)">
       <use xlink:href="#DejaVuSans-31"/>
       <use x="63.623047" xlink:href="#DejaVuSans-30"/>
       <use x="127.246094" xlink:href="#DejaVuSans-30"/>
       <use x="190.869141" xlink:href="#DejaVuSans-30"/>
      </g>
     </g>
    </g>
    <g id="text_7">
     <!-- Number of clients -->
     <defs>
      <path d="M 9.8125 72.90625 
L 23.09375 72.90625 
L 55.421875 11.921875 
L 55.421875 72.90625 
L 64.984375 72.90625 
L 64.984375 0 
L 51.703125 0 
L 19.390625 60.984375 
L 19.390625 0 
L 9.8125 0 
z
" id="DejaVuSans-4e"/>
      <path d="M 8.5 21.578125 
L 8.5 54.6875 
L 17.484375 54.6875 
L 17.484375 21.921875 
Q 17.484375 14.15625 20.5 10.265625 
Q 23.53125 6.390625 29.59375 6.390625 
Q 36.859375 6.390625 41.078125 11.03125 
Q 45.3125 15.671875 45.3125 23.6875 
L 45.3125 54.6875 
L 54.296875 54.6875 
L 54.296875 0 
L 45.3125 0 
L 45.3125 8.40625 
Q 42.046875 3.421875 37.71875 1 
Q 33.40625 -1.421875 27.6875 -1.421875 
Q 18.265625 -1.421875 13.375 4.4375 
Q 8.5 10.296875 8.5 21.578125 
M 31.109375 56 
z
" id="DejaVuSans-75"/>
      <path d="M 52 44.1875 
Q 55.375 50.25 60.0625 53.125 
Q 64.75 56 71.09375 56 
Q 79.640625 56 84.28125 50.015625 
Q 88.921875 44.046875 88.921875 33.015625 
L 88.921875 0 
L 79.890625 0 
L 79.890625 32.71875 
Q 79.890625 40.578125 77.09375 44.375 
Q 74.3125 48.1875 68.609375 48.1875 
Q 61.625 48.1875 57.5625 43.546875 
Q 53.515625 38.921875 53.515625 30.90625 
L 53.515625 0 
L 44.484375 0 
L 44.484375 32.71875 
Q 44.484375 40.625 41.703125 44.40625 
Q 38.921875 48.1875 33.109375 48.1875 
Q 26.21875 48.1875 22.15625 43.53125 
Q 18.109375 38.875 18.109375 30.90625 
L 18.109375 0 
L 9.078125 0 
L 9.078125 54.6875 
L 18.109375 54.6875 
L 18.109375 46.1875 
Q 21.1875 51.21875 25.484375 53.609375 
Q 29.78125 56 35.6875 56 
Q 41.65625 56 45.828125 52.96875 
Q 50 49.953125 52 44.1875 
" id="DejaVuSans-6d"/>
      <path d="M 48.6875 27.296875 
Q 48.6875 37.203125 44.609375 42.84375 
Q 40.53125 48.484375 33.40625 48.484375 
Q 26.265625 48.484375 22.1875 42.84375 
Q 18.109375 37.203125 18.109375 27.296875 
Q 18.109375 17.390625 22.1875 11.75 
Q 26.265625 6.109375 33.40625 6.109375 
Q 40.53125 6.109375 44.609375 11.75 
Q 48.6875 17.390625 48.6875 27.296875 
M 18.109375 46.390625 
Q 20.953125 51.265625 25.265625 53.625 
Q 29.59375 56 35.59375 56 
Q 45.5625 56 51.78125 48.09375 
Q 58.015625 40.1875 58.015625 27.296875 
Q 58.015625 14.40625 51.78125 6.484375 
Q 45.5625 -1.421875 35.59375 -1.421875 
Q 29.59375 -1.421875 25.265625 0.953125 
Q 20.953125 3.328125 18.109375 8.203125 
L 18.109375 0 
L 9.078125 0 
L 9.078125 75.984375 
L 18.109375 75.984375 
z
" id="DejaVuSans-62"/>
      <path d="M 56.203125 29.59375 
L 56.203125 25.203125 
L 14.890625 25.203125 
Q 15.484375 15.921875 20.484375 11.0625 
Q 25.484375 6.203125 34.421875 6.203125 
Q 39.59375 6.203125 44.453125 7.46875 
Q 49.3125 8.734375 54.109375 11.28125 
L 54.109375 2.78125 
Q 49.265625 0.734375 44.1875 -0.34375 
Q 39.109375 -1.421875 33.890625 -1.421875 
Q 20.796875 -1.421875 13.15625 6.1875 
Q 5.515625 13.8125 5.515625 26.8125 
Q 5.515625 40.234375 12.765625 48.109375 
Q 20.015625 56 32.328125 56 
Q 43.359375 56 49.78125 48.890625 
Q 56.203125 41.796875 56.203125 29.59375 
M 47.21875 32.234375 
Q 47.125 39.59375 43.09375 43.984375 
Q 39.0625 48.390625 32.421875 48.390625 
Q 24.90625 48.390625 20.390625 44.140625 
Q 15.875 39.890625 15.1875 32.171875 
z
" id="DejaVuSans-65"/>
      <path d="M 41.109375 46.296875 
Q 39.59375 47.171875 37.8125 47.578125 
Q 36.03125 48 33.890625 48 
Q 26.265625 48 22.1875 43.046875 
Q 18.109375 38.09375 18.109375 28.8125 
L 18.109375 0 
L 9.078125 0 
L 9.078125 54.6875 
L 18.109375 54.6875 
L 18.109375 46.1875 
Q 20.953125 51.171875 25.484375 53.578125 
Q 30.03125 56 36.53125 56 
Q 37.453125 56 38.578125 55.875 
Q 39.703125 55.765625 41.0625 55.515625 
z
" id="DejaVuSans-72"/>
      <path id="DejaVuSans-20"/>
      <path d="M 30.609375 48.390625 
Q 23.390625 48.390625 19.1875 42.75 
Q 14.984375 37.109375 14.984375 27.296875 
Q 14.984375 17.484375 19.15625 11.84375 
Q 23.34375 6.203125 30.609375 6.203125 
Q 37.796875 6.203125 41.984375 11.859375 
Q 46.1875 17.53125 46.1875 27.296875 
Q 46.1875 37.015625 41.984375 42.703125 
Q 37.796875 48.390625 30.609375 48.390625 
M 30.609375 56 
Q 42.328125 56 49.015625 48.375 
Q 55.71875 40.765625 55.71875 27.296875 
Q 55.71875 13.875 49.015625 6.21875 
Q 42.328125 -1.421875 30.609375 -1.421875 
Q 18.84375 -1.421875 12.171875 6.21875 
Q 5.515625 13.875 5.515625 27.296875 
Q 5.515625 40.765625 12.171875 48.375 
Q 18.84375 56 30.609375 56 
" id="DejaVuSans-6f"/>
      <path d="M 37.109375 75.984375 
L 37.109375 68.5 
L 28.515625 68.5 
Q 23.6875 68.5 21.796875 66.546875 
Q 19.921875 64.59375 19.921875 59.515625 
L 19.921875 54.6875 
L 34.71875 54.6875 
L 34.71875 47.703125 
L 19.921875 47.703125 
L 19.921875 0 
L 10.890625 0 
L 10.890625 47.703125 
L 2.296875 47.703125 
L 2.296875 54.6875 
L 10.890625 54.6875 
L 10.890625 58.5 
Q 10.890625 67.625 15.140625 71.796875 
Q 19.390625 75.984375 28.609375 75.984375 
z
" id="DejaVuSans-66"/>
      <path d="M 48.78125 52.59375 
L 48.78125 44.1875 
Q 44.96875 46.296875 41.140625 47.34375 
Q 37.3125 48.390625 33.40625 48.390625 
Q 24.65625 48.390625 19.8125 42.84375 
Q 14.984375 37.3125 14.984375 27.296875 
Q 14.984375 17.28125 19.8125 11.734375 
Q 24.65625 6.203125 33.40625 6.203125 
Q 37.3125 6.203125 41.140625 7.25 
Q 44.96875 8.296875 48.78125 10.40625 
L 48.78125 2.09375 
Q 45.015625 0.34375 40.984375 -0.53125 
Q 36.96875 -1.421875 32.421875 -1.421875 
Q 20.0625 -1.421875 12.78125 6.34375 
Q 5.515625 14.109375 5.515625 27.296875 
Q 5.515625 40.671875 12.859375 48.328125 
Q 20.21875 56 33.015625 56 
Q 37.15625 56 41.109375 55.140625 
Q 45.0625 54.296875 48.78125 52.59375 
" id="DejaVuSans-63"/>
      <path d="M 9.421875 75.984375 
L 18.40625 75.984375 
L 18.40625 0 
L 9.421875 0 
z
" id="DejaVuSans-6c"/>
      <path d="M 9.421875 54.6875 
L 18.40625 54.6875 
L 18.40625 0 
L 9.421875 0 
z
M 9.421875 75.984375 
L 18.40625 75.984375 
L 18.40625 64.59375 
L 9.421875 64.59375 
z
" id="DejaVuSans-69"/>
      <path d="M 54.890625 33.015625 
L 54.890625 0 
L 45.90625 0 
L 45.90625 32.71875 
Q 45.90625 40.484375 42.875 44.328125 
Q 39.84375 48.1875 33.796875 48.1875 
Q 26.515625 48.1875 22.3125 43.546875 
Q 18.109375 38.921875 18.109375 30.90625 
L 18.109375 0 
L 9.078125 0 
L 9.078125 54.6875 
L 18.109375 54.6875 
L 18.109375 46.1875 
Q 21.34375 51.125 25.703125 53.5625 
Q 30.078125 56 35.796875 56 
Q 45.21875 56 50.046875 50.171875 
Q 54.890625 44.34375 54.890625 33.015625 
" id="DejaVuSans-6e"/>
      <path d="M 18.3125 70.21875 
L 18.3125 54.6875 
L 36.8125 54.6875 
L 36.8125 47.703125 
L 18.3125 47.703125 
L 18.3125 18.015625 
Q 18.3125 11.328125 20.140625 9.421875 
Q 21.96875 7.515625 27.59375 7.515625 
L 36.8125 7.515625 
L 36.8125 0 
L 27.59375 0 
Q 17.1875 0 13.234375 3.875 
Q 9.28125 7.765625 9.28125 18.015625 
L 9.28125 47.703125 
L 2.6875 47.703125 
L 2.6875 54.6875 
L 9.28125 54.6875 
L 9.28125 70.21875 
z
" id="DejaVuSans-74"/>
      <path d="M 44.28125 53.078125 
L 44.28125 44.578125 
Q 40.484375 46.53125 36.375 47.5 
Q 32.28125 48.484375 27.875 48.484375 
Q 21.1875 48.484375 17.84375 46.4375 
Q 14.5 44.390625 14.5 40.28125 
Q 14.5 37.15625 16.890625 35.375 
Q 19.28125 33.59375 26.515625 31.984375 
L 29.59375 31.296875 
Q 39.15625 29.25 43.1875 25.515625 
Q 47.21875 21.78125 47.21875 15.09375 
Q 47.21875 7.46875 41.1875 3.015625 
Q 35.15625 -1.421875 24.609375 -1.421875 
Q 20.21875 -1.421875 15.453125 -0.5625 
Q 10.6875 0.296875 5.421875 2 
L 5.421875 11.28125 
Q 10.40625 8.6875 15.234375 7.390625 
Q 20.0625 6.109375 24.8125 6.109375 
Q 31.15625 6.109375 34.5625 8.28125 
Q 37.984375 10.453125 37.984375 14.40625 
Q 37.984375 18.0625 35.515625 20.015625 
Q 33.0625 21.96875 24.703125 23.78125 
L 21.578125 24.515625 
Q 13.234375 26.265625 9.515625 29.90625 
Q 5.8125 33.546875 5.8125 39.890625 
Q 5.8125 47.609375 11.28125 51.796875 
Q 16.75 56 26.8125 56 
Q 31.78125 56 36.171875 55.265625 
Q 40.578125 54.546875 44.28125 53.078125 
" id="DejaVuSans-73"/>
     </defs>
     <g transform="translate(191.738906 335.860562)scale(0.1 -0.1)">
      <use xlink:href="#DejaVuSans-4e"/>
      <use x="74.804688" xlink:href="#DejaVuSans-75"/>
      <use x="138.183594" xlink:href="#DejaVuSans-6d"/>
      <use x="235.595703" xlink:href="#DejaVuSans-62"/>
      <use x="299.072266" xlink:href="#DejaVuSans-65"/>
      <use x="360.595703" xlink:href="#DejaVuSans-72"/>
      <use x="401.708984" xlink:href="#DejaVuSans-20"/>
      <use x="433.496094" xlink:href="#DejaVuSans-6f"/>
      <use x="494.677734" xlink:href="#DejaVuSans-66"/>
      <use x="529.882812" xlink:href="#DejaVuSans-20"/>
      <use x="561.669922" xlink:href="#DejaVuSans-63"/>
      <use x="616.650391" xlink:href="#DejaVuSans-6c"/>
      <use x="644.433594" xlink:href="#DejaVuSans-69"/>
      <use x="672.216797" xlink:href="#DejaVuSans-65"/>
      <use x="733.740234" xlink:href="#DejaVuSans-6e"/>
      <use x="797.119141" xlink:href="#DejaVuSans-74"/>
      <use x="836.328125" xlink:href="#DejaVuSans-73"/>
     </g>
    </g>
   </g>
   <g id="matplotlib.axis_2">
    <g id="ytick_1">
     <g id="line2d_13">
      <path clip-path="url(#p9987a33cbd)" d="M 57.6 296.312103 
L 414.72 296.312103 
" style="fill:none;stroke:#b0b0b0;stroke-linecap:square;stroke-width:0.8;"/>
     </g>
     <g id="line2d_14">
      <defs>
       <path d="M 0 0 
L -3.5 0 
" id="mbb32c6f1c3" style="stroke:#000000;stroke-width:0.8;"/>
      </defs>
      <g>
       <use style="stroke:#000000;stroke-width:0.8;" x="57.6" xlink:href="#mbb32c6f1c3" y="296.312103"/>
      </g>
     </g>
     <g id="text_8">
      <!-- 0 -->
      <g transform="translate(44.2375 300.111322)scale(0.1 -0.1)">
       <use xlink:href="#DejaVuSans-30"/>
      </g>
     </g>
    </g>
    <g id="ytick_2">
     <g id="line2d_15">
      <path clip-path="url(#p9987a33cbd)" d="M 57.6 252.800842 
L 414.72 252.800842 
" style="fill:none;stroke:#b0b0b0;stroke-linecap:square;stroke-width:0.8;"/>
     </g>
     <g id="line2d_16">
      <g>
       <use style="stroke:#000000;stroke-width:0.8;" x="57.6" xlink:href="#mbb32c6f1c3" y="252.800842"/>
      </g>
     </g>
     <g id="text_9">
      <!-- 50 -->
      <defs>
       <path d="M 10.796875 72.90625 
L 49.515625 72.90625 
L 49.515625 64.59375 
L 19.828125 64.59375 
L 19.828125 46.734375 
Q 21.96875 47.46875 24.109375 47.828125 
Q 26.265625 48.1875 28.421875 48.1875 
Q 40.625 48.1875 47.75 41.5 
Q 54.890625 34.8125 54.890625 23.390625 
Q 54.890625 11.625 47.5625 5.09375 
Q 40.234375 -1.421875 26.90625 -1.421875 
Q 22.3125 -1.421875 17.546875 -0.640625 
Q 12.796875 0.140625 7.71875 1.703125 
L 7.71875 11.625 
Q 12.109375 9.234375 16.796875 8.0625 
Q 21.484375 6.890625 26.703125 6.890625 
Q 35.15625 6.890625 40.078125 11.328125 
Q 45.015625 15.765625 45.015625 23.390625 
Q 45.015625 31 40.078125 35.4375 
Q 35.15625 39.890625 26.703125 39.890625 
Q 22.75 39.890625 18.8125 39.015625 
Q 14.890625 38.140625 10.796875 36.28125 
z
" id="DejaVuSans-35"/>
      </defs>
      <g transform="translate(37.875 256.600061)scale(0.1 -0.1)">
       <use xlink:href="#DejaVuSans-35"/>
       <use x="63.623047" xlink:href="#DejaVuSans-30"/>
      </g>
     </g>
    </g>
    <g id="ytick_3">
     <g id="line2d_17">
      <path clip-path="url(#p9987a33cbd)" d="M 57.6 209.289581 
L 414.72 209.289581 
" style="fill:none;stroke:#b0b0b0;stroke-linecap:square;stroke-width:0.8;"/>
     </g>
     <g id="line2d_18">
      <g>
       <use style="stroke:#000000;stroke-width:0.8;" x="57.6" xlink:href="#mbb32c6f1c3" y="209.289581"/>
      </g>
     </g>
     <g id="text_10">
      <!-- 100 -->
      <g transform="translate(31.5125 213.0888)scale(0.1 -0.1)">
       <use xlink:href="#DejaVuSans-31"/>
       <use x="63.623047" xlink:href="#DejaVuSans-30"/>
       <use x="127.246094" xlink:href="#DejaVuSans-30"/>
      </g>
     </g>
    </g>
    <g id="ytick_4">
     <g id="line2d_19">
      <path clip-path="url(#p9987a33cbd)" d="M 57.6 165.778321 
L 414.72 165.778321 
" style="fill:none;stroke:#b0b0b0;stroke-linecap:square;stroke-width:0.8;"/>
     </g>
     <g id="line2d_20">
      <g>
       <use style="stroke:#000000;stroke-width:0.8;" x="57.6" xlink:href="#mbb32c6f1c3" y="165.778321"/>
      </g>
     </g>
     <g id="text_11">
      <!-- 150 -->
      <g transform="translate(31.5125 169.577539)scale(0.1 -0.1)">
       <use xlink:href="#DejaVuSans-31"/>
       <use x="63.623047" xlink:href="#DejaVuSans-35"/>
       <use x="127.246094" xlink:href="#DejaVuSans-30"/>
      </g>
     </g>
    </g>
    <g id="ytick_5">
     <g id="line2d_21">
      <path clip-path="url(#p9987a33cbd)" d="M 57.6 122.26706 
L 414.72 122.26706 
" style="fill:none;stroke:#b0b0b0;stroke-linecap:square;stroke-width:0.8;"/>
     </g>
     <g id="line2d_22">
      <g>
       <use style="stroke:#000000;stroke-width:0.8;" x="57.6" xlink:href="#mbb32c6f1c3" y="122.26706"/>
      </g>
     </g>
     <g id="text_12">
      <!-- 200 -->
      <g transform="translate(31.5125 126.066278)scale(0.1 -0.1)">
       <use xlink:href="#DejaVuSans-32"/>
       <use x="63.623047" xlink:href="#DejaVuSans-30"/>
       <use x="127.246094" xlink:href="#DejaVuSans-30"/>
      </g>
     </g>
    </g>
    <g id="ytick_6">
     <g id="line2d_23">
      <path clip-path="url(#p9987a33cbd)" d="M 57.6 78.755799 
L 414.72 78.755799 
" style="fill:none;stroke:#b0b0b0;stroke-linecap:square;stroke-width:0.8;"/>
     </g>
     <g id="line2d_24">
      <g>
       <use style="stroke:#000000;stroke-width:0.8;" x="57.6" xlink:href="#mbb32c6f1c3" y="78.755799"/>
      </g>
     </g>
     <g id="text_13">
      <!-- 250 -->
      <g transform="translate(31.5125 82.555017)scale(0.1 -0.1)">
       <use xlink:href="#DejaVuSans-32"/>
       <use x="63.623047" xlink:href="#DejaVuSans-35"/>
       <use x="127.246094" xlink:href="#DejaVuSans-30"/>
      </g>
     </g>
    </g>
    <g id="text_14">
     <!-- Successful download requests per second -->
     <defs>
      <path d="M 53.515625 70.515625 
L 53.515625 60.890625 
Q 47.90625 63.578125 42.921875 64.890625 
Q 37.9375 66.21875 33.296875 66.21875 
Q 25.25 66.21875 20.875 63.09375 
Q 16.5 59.96875 16.5 54.203125 
Q 16.5 49.359375 19.40625 46.890625 
Q 22.3125 44.4375 30.421875 42.921875 
L 36.375 41.703125 
Q 47.40625 39.59375 52.65625 34.296875 
Q 57.90625 29 57.90625 20.125 
Q 57.90625 9.515625 50.796875 4.046875 
Q 43.703125 -1.421875 29.984375 -1.421875 
Q 24.8125 -1.421875 18.96875 -0.25 
Q 13.140625 0.921875 6.890625 3.21875 
L 6.890625 13.375 
Q 12.890625 10.015625 18.65625 8.296875 
Q 24.421875 6.59375 29.984375 6.59375 
Q 38.421875 6.59375 43.015625 9.90625 
Q 47.609375 13.234375 47.609375 19.390625 
Q 47.609375 24.75 44.3125 27.78125 
Q 41.015625 30.8125 33.5 32.328125 
L 27.484375 33.5 
Q 16.453125 35.6875 11.515625 40.375 
Q 6.59375 45.0625 6.59375 53.421875 
Q 6.59375 63.09375 13.40625 68.65625 
Q 20.21875 74.21875 32.171875 74.21875 
Q 37.3125 74.21875 42.625 73.28125 
Q 47.953125 72.359375 53.515625 70.515625 
" id="DejaVuSans-53"/>
      <path d="M 45.40625 46.390625 
L 45.40625 75.984375 
L 54.390625 75.984375 
L 54.390625 0 
L 45.40625 0 
L 45.40625 8.203125 
Q 42.578125 3.328125 38.25 0.953125 
Q 33.9375 -1.421875 27.875 -1.421875 
Q 17.96875 -1.421875 11.734375 6.484375 
Q 5.515625 14.40625 5.515625 27.296875 
Q 5.515625 40.1875 11.734375 48.09375 
Q 17.96875 56 27.875 56 
Q 33.9375 56 38.25 53.625 
Q 42.578125 51.265625 45.40625 46.390625 
M 14.796875 27.296875 
Q 14.796875 17.390625 18.875 11.75 
Q 22.953125 6.109375 30.078125 6.109375 
Q 37.203125 6.109375 41.296875 11.75 
Q 45.40625 17.390625 45.40625 27.296875 
Q 45.40625 37.203125 41.296875 42.84375 
Q 37.203125 48.484375 30.078125 48.484375 
Q 22.953125 48.484375 18.875 42.84375 
Q 14.796875 37.203125 14.796875 27.296875 
" id="DejaVuSans-64"/>
      <path d="M 4.203125 54.6875 
L 13.1875 54.6875 
L 24.421875 12.015625 
L 35.59375 54.6875 
L 46.1875 54.6875 
L 57.421875 12.015625 
L 68.609375 54.6875 
L 77.59375 54.6875 
L 63.28125 0 
L 52.6875 0 
L 40.921875 44.828125 
L 29.109375 0 
L 18.5 0 
z
" id="DejaVuSans-77"/>
      <path d="M 34.28125 27.484375 
Q 23.390625 27.484375 19.1875 25 
Q 14.984375 22.515625 14.984375 16.5 
Q 14.984375 11.71875 18.140625 8.90625 
Q 21.296875 6.109375 26.703125 6.109375 
Q 34.1875 6.109375 38.703125 11.40625 
Q 43.21875 16.703125 43.21875 25.484375 
L 43.21875 27.484375 
z
M 52.203125 31.203125 
L 52.203125 0 
L 43.21875 0 
L 43.21875 8.296875 
Q 40.140625 3.328125 35.546875 0.953125 
Q 30.953125 -1.421875 24.3125 -1.421875 
Q 15.921875 -1.421875 10.953125 3.296875 
Q 6 8.015625 6 15.921875 
Q 6 25.140625 12.171875 29.828125 
Q 18.359375 34.515625 30.609375 34.515625 
L 43.21875 34.515625 
L 43.21875 35.40625 
Q 43.21875 41.609375 39.140625 45 
Q 35.0625 48.390625 27.6875 48.390625 
Q 23 48.390625 18.546875 47.265625 
Q 14.109375 46.140625 10.015625 43.890625 
L 10.015625 52.203125 
Q 14.9375 54.109375 19.578125 55.046875 
Q 24.21875 56 28.609375 56 
Q 40.484375 56 46.34375 49.84375 
Q 52.203125 43.703125 52.203125 31.203125 
" id="DejaVuSans-61"/>
      <path d="M 14.796875 27.296875 
Q 14.796875 17.390625 18.875 11.75 
Q 22.953125 6.109375 30.078125 6.109375 
Q 37.203125 6.109375 41.296875 11.75 
Q 45.40625 17.390625 45.40625 27.296875 
Q 45.40625 37.203125 41.296875 42.84375 
Q 37.203125 48.484375 30.078125 48.484375 
Q 22.953125 48.484375 18.875 42.84375 
Q 14.796875 37.203125 14.796875 27.296875 
M 45.40625 8.203125 
Q 42.578125 3.328125 38.25 0.953125 
Q 33.9375 -1.421875 27.875 -1.421875 
Q 17.96875 -1.421875 11.734375 6.484375 
Q 5.515625 14.40625 5.515625 27.296875 
Q 5.515625 40.1875 11.734375 48.09375 
Q 17.96875 56 27.875 56 
Q 33.9375 56 38.25 53.625 
Q 42.578125 51.265625 45.40625 46.390625 
L 45.40625 54.6875 
L 54.390625 54.6875 
L 54.390625 -20.796875 
L 45.40625 -20.796875 
z
" id="DejaVuSans-71"/>
      <path d="M 18.109375 8.203125 
L 18.109375 -20.796875 
L 9.078125 -20.796875 
L 9.078125 54.6875 
L 18.109375 54.6875 
L 18.109375 46.390625 
Q 20.953125 51.265625 25.265625 53.625 
Q 29.59375 56 35.59375 56 
Q 45.5625 56 51.78125 48.09375 
Q 58.015625 40.1875 58.015625 27.296875 
Q 58.015625 14.40625 51.78125 6.484375 
Q 45.5625 -1.421875 35.59375 -1.421875 
Q 29.59375 -1.421875 25.265625 0.953125 
Q 20.953125 3.328125 18.109375 8.203125 
M 48.6875 27.296875 
Q 48.6875 37.203125 44.609375 42.84375 
Q 40.53125 48.484375 33.40625 48.484375 
Q 26.265625 48.484375 22.1875 42.84375 
Q 18.109375 37.203125 18.109375 27.296875 
Q 18.109375 17.390625 22.1875 11.75 
Q 26.265625 6.109375 33.40625 6.109375 
Q 40.53125 6.109375 44.609375 11.75 
Q 48.6875 17.390625 48.6875 27.296875 
" id="DejaVuSans-70"/>
     </defs>
     <g transform="translate(25.432812 279.366281)rotate(-90)scale(0.1 -0.1)">
      <use xlink:href="#DejaVuSans-53"/>
      <use x="63.476562" xlink:href="#DejaVuSans-75"/>
      <use x="126.855469" xlink:href="#DejaVuSans-63"/>
      <use x="181.835938" xlink:href="#DejaVuSans-63"/>
      <use x="236.816406" xlink:href="#DejaVuSans-65"/>
      <use x="298.339844" xlink:href="#DejaVuSans-73"/>
      <use x="350.439453" xlink:href="#DejaVuSans-73"/>
      <use x="402.539062" xlink:href="#DejaVuSans-66"/>
      <use x="437.744141" xlink:href="#DejaVuSans-75"/>
      <use x="501.123047" xlink:href="#DejaVuSans-6c"/>
      <use x="528.90625" xlink:href="#DejaVuSans-20"/>
      <use x="560.693359" xlink:href="#DejaVuSans-64"/>
      <use x="624.169922" xlink:href="#DejaVuSans-6f"/>
      <use x="685.351562" xlink:href="#DejaVuSans-77"/>
      <use x="767.138672" xlink:href="#DejaVuSans-6e"/>
      <use x="830.517578" xlink:href="#DejaVuSans-6c"/>
      <use x="858.300781" xlink:href="#DejaVuSans-6f"/>
      <use x="919.482422" xlink:href="#DejaVuSans-61"/>
      <use x="980.761719" xlink:href="#DejaVuSans-64"/>
      <use x="1044.238281" xlink:href="#DejaVuSans-20"/>
      <use x="1076.025391" xlink:href="#DejaVuSans-72"/>
      <use x="1117.107422" xlink:href="#DejaVuSans-65"/>
      <use x="1178.630859" xlink:href="#DejaVuSans-71"/>
      <use x="1242.107422" xlink:href="#DejaVuSans-75"/>
      <use x="1305.486328" xlink:href="#DejaVuSans-65"/>
      <use x="1367.009766" xlink:href="#DejaVuSans-73"/>
      <use x="1419.109375" xlink:href="#DejaVuSans-74"/>
      <use x="1458.318359" xlink:href="#DejaVuSans-73"/>
      <use x="1510.417969" xlink:href="#DejaVuSans-20"/>
      <use x="1542.205078" xlink:href="#DejaVuSans-70"/>
      <use x="1605.681641" xlink:href="#DejaVuSans-65"/>
      <use x="1667.205078" xlink:href="#DejaVuSans-72"/>
      <use x="1708.318359" xlink:href="#DejaVuSans-20"/>
      <use x="1740.105469" xlink:href="#DejaVuSans-73"/>
      <use x="1792.205078" xlink:href="#DejaVuSans-65"/>
      <use x="1853.728516" xlink:href="#DejaVuSans-63"/>
      <use x="1908.708984" xlink:href="#DejaVuSans-6f"/>
      <use x="1969.890625" xlink:href="#DejaVuSans-6e"/>
      <use x="2033.269531" xlink:href="#DejaVuSans-64"/>
     </g>
    </g>
   </g>
   <g id="line2d_25">
    <path clip-path="url(#p9987a33cbd)" d="M 57.6 295.488 
L 57.95712 295.478428 
L 61.52832 287.200845 
L 62.24256 285.000916 
L 62.59968 284.962626 
L 62.9568 283.389259 
L 63.31392 283.150817 
L 63.67104 281.813281 
L 64.02816 281.667083 
L 64.38528 280.125044 
L 64.7424 279.747366 
L 65.09952 278.06 
L 65.45664 277.811985 
L 66.17088 275.809597 
L 66.528 275.223936 
L 66.88512 273.881178 
L 67.24224 274.083941 
L 67.59936 272.215567 
L 68.3136 270.308033 
L 68.67072 271.081664 
L 69.02784 269.010528 
L 69.38496 268.955703 
L 69.74208 268.174241 
L 70.0992 267.00988 
L 70.45632 266.992475 
L 71.17056 263.99803 
L 71.52768 264.017175 
L 71.8848 263.177408 
L 72.24192 262.825837 
L 72.59904 262.226252 
L 73.6704 257.192869 
L 74.02752 257.307739 
L 74.38464 256.608078 
L 74.74176 254.725781 
L 75.09888 254.0296 
L 75.456 255.231381 
L 75.81312 254.95378 
L 76.17024 251.706969 
L 76.52736 253.160245 
L 76.88448 252.487561 
L 78.31296 247.881459 
L 78.67008 247.725689 
L 79.0272 244.75648 
L 79.38432 246.315924 
L 79.74144 242.675772 
L 80.09856 244.331811 
L 81.16992 241.442663 
L 81.52704 239.064337 
L 81.88416 237.886923 
L 82.24128 239.851891 
L 82.5984 238.522187 
L 82.95552 234.569624 
L 83.66976 235.609543 
L 84.02688 235.697436 
L 84.384 235.166599 
L 84.74112 232.984944 
L 85.09824 232.367954 
L 85.45536 232.938822 
L 85.81248 230.875518 
L 86.1696 231.147898 
L 86.52672 225.966578 
L 87.24096 224.897071 
L 87.59808 226.656666 
L 87.9552 224.554202 
L 88.31232 224.992796 
L 88.66944 224.116479 
L 89.02656 220.059489 
L 89.38368 221.290857 
L 89.7408 221.133347 
L 90.09792 222.054915 
L 90.45504 219.081356 
L 90.81216 220.292709 
L 91.16928 215.00348 
L 91.5264 218.576625 
L 91.88352 214.864244 
L 92.24064 213.194282 
L 92.59776 216.85619 
L 92.95488 210.256402 
L 93.312 211.348534 
L 93.66912 211.459053 
L 94.02624 212.072562 
L 94.38336 208.950194 
L 94.74048 211.707067 
L 95.0976 205.021997 
L 95.45472 207.561314 
L 95.81184 205.661613 
L 96.16896 206.755486 
L 96.52608 206.875577 
L 96.8832 205.438835 
L 97.24032 202.746358 
L 97.59744 201.528043 
L 97.95456 199.559593 
L 98.31168 201.398379 
L 98.6688 199.493456 
L 99.02592 202.354757 
L 99.38304 196.441576 
L 100.09728 192.805775 
L 100.4544 197.799128 
L 100.81152 191.668391 
L 101.52576 197.236962 
L 101.88288 193.965786 
L 102.24 196.168326 
L 102.59712 191.751062 
L 102.95424 193.640321 
L 103.31136 190.936532 
L 103.66848 194.279067 
L 104.0256 192.922386 
L 104.38272 190.808608 
L 104.73984 189.835697 
L 105.09696 189.65643 
L 105.45408 193.785649 
L 105.8112 187.827217 
L 106.16832 192.387197 
L 106.52544 192.027794 
L 106.88256 189.686888 
L 107.23968 190.790334 
L 107.95392 187.510455 
L 108.31104 184.392438 
L 108.66816 188.232742 
L 109.02528 185.255701 
L 109.3824 187.659263 
L 109.73952 184.652635 
L 110.09664 183.838104 
L 110.45376 185.411472 
L 110.81088 183.523953 
L 111.52512 187.514806 
L 111.88224 185.625547 
L 112.23936 180.629584 
L 112.59648 180.902835 
L 112.9536 187.367738 
L 113.31072 186.462704 
L 113.66784 179.202415 
L 114.02496 183.308137 
L 114.38208 185.743898 
L 114.7392 184.644803 
L 115.09632 184.299324 
L 115.45344 183.604884 
L 115.81056 178.317396 
L 116.5248 183.306397 
L 116.88192 183.211542 
L 117.23904 177.750879 
L 117.59616 177.205248 
L 117.95328 175.071456 
L 118.3104 178.610662 
L 118.66752 174.724236 
L 119.02464 180.982896 
L 119.38176 173.903613 
L 119.73888 178.60544 
L 120.096 173.559874 
L 120.45312 174.449245 
L 120.81024 177.09821 
L 121.16736 177.658635 
L 121.52448 174.687686 
L 121.8816 175.093211 
L 122.23872 175.818109 
L 122.59584 178.479258 
L 122.95296 179.422582 
L 123.31008 170.595887 
L 123.6672 178.183381 
L 124.02432 169.866639 
L 124.38144 176.844975 
L 124.73856 174.363092 
L 125.09568 175.529194 
L 125.4528 170.919611 
L 125.80992 176.476869 
L 126.16704 175.516141 
L 126.52416 176.100932 
L 126.88128 172.649619 
L 127.2384 171.68976 
L 127.59552 172.239743 
L 127.95264 172.231911 
L 128.30976 168.823239 
L 128.66688 174.163811 
L 129.024 167.97999 
L 129.38112 166.167311 
L 129.73824 165.900152 
L 130.09536 173.780041 
L 130.8096 164.437303 
L 131.16672 168.826719 
L 131.52384 168.719682 
L 131.88096 170.083325 
L 132.23808 172.607848 
L 132.5952 169.8736 
L 132.95232 168.345485 
L 133.30944 169.455022 
L 133.66656 165.783542 
L 134.02368 165.541619 
L 134.3808 163.764619 
L 134.73792 162.567189 
L 135.09504 164.603516 
L 135.45216 162.553266 
L 135.80928 166.823461 
L 136.1664 162.613311 
L 136.52352 161.211379 
L 137.23776 162.320046 
L 137.59488 159.514439 
L 137.952 159.073235 
L 138.30912 163.252057 
L 138.66624 161.219211 
L 139.02336 161.971955 
L 139.38048 158.857419 
L 139.7376 158.603314 
L 140.09472 164.043091 
L 140.45184 157.707852 
L 140.80896 164.905485 
L 141.5232 159.145464 
L 141.88032 164.585242 
L 142.23744 158.476261 
L 142.59456 163.081493 
L 142.95168 157.15787 
L 143.3088 163.429583 
L 143.66592 158.350078 
L 144.02304 155.026688 
L 144.38016 159.604943 
L 144.73728 160.87025 
L 145.0944 162.548915 
L 145.45152 160.263703 
L 145.80864 161.320157 
L 146.16576 156.46517 
L 146.52288 154.674247 
L 146.88 162.02939 
L 147.23712 156.943794 
L 147.59424 155.451358 
L 147.95136 162.011116 
L 148.30848 153.445489 
L 148.6656 156.238912 
L 149.02272 155.491388 
L 149.37984 159.122838 
L 149.73696 156.883749 
L 150.09408 160.439489 
L 150.4512 159.577096 
L 150.80832 154.528919 
L 151.16544 152.427325 
L 151.52256 153.675228 
L 151.87968 150.180404 
L 152.2368 159.223784 
L 152.59392 158.688596 
L 153.30816 150.158648 
L 153.66528 154.665545 
L 154.0224 154.497591 
L 154.37952 152.429066 
L 154.73664 155.756807 
L 155.09376 151.163758 
L 155.45088 152.602241 
L 155.808 155.394793 
L 156.16512 157.16048 
L 156.52224 153.574282 
L 156.87936 146.544603 
L 157.23648 151.369131 
L 157.5936 146.68732 
L 157.95072 154.946627 
L 158.30784 153.670877 
L 158.66496 151.302124 
L 159.02208 149.70178 
L 159.3792 154.898765 
L 159.73632 145.438547 
L 160.09344 144.730183 
L 160.45056 150.052481 
L 160.80768 153.620404 
L 161.1648 148.158 
L 161.52192 149.380667 
L 161.87904 153.908449 
L 162.23616 147.299088 
L 162.59328 144.595298 
L 162.9504 144.522199 
L 163.30752 149.62346 
L 163.66464 152.094899 
L 164.02176 147.485316 
L 164.37888 148.393831 
L 164.736 148.839387 
L 165.09312 142.711261 
L 165.45024 150.412754 
L 165.80736 148.733219 
L 166.16448 150.887027 
L 166.5216 147.208585 
L 166.87872 141.554731 
L 167.23584 148.546121 
L 167.95008 141.534716 
L 168.3072 141.273649 
L 168.66432 143.235136 
L 169.02144 149.774009 
L 169.37856 148.643586 
L 169.73568 139.581931 
L 170.0928 141.865402 
L 170.44992 140.434752 
L 170.80704 141.718334 
L 171.16416 144.304643 
L 171.52128 140.784582 
L 171.8784 139.861273 
L 172.23552 141.411144 
L 172.59264 145.263631 
L 172.94976 144.356857 
L 173.30688 141.35632 
L 173.664 142.974939 
L 174.02112 139.19294 
L 174.37824 144.969495 
L 174.73536 143.690264 
L 175.09248 137.544734 
L 175.4496 145.913689 
L 175.80672 137.365467 
L 176.16384 145.25928 
L 176.52096 137.086995 
L 176.87808 140.153669 
L 177.2352 137.026079 
L 177.94944 142.856588 
L 178.30656 144.674489 
L 178.66368 137.506444 
L 179.0208 141.171832 
L 179.37792 140.62098 
L 179.73504 141.372854 
L 180.09216 138.555065 
L 180.44928 137.313254 
L 181.16352 133.869772 
L 181.52064 136.922523 
L 181.87776 136.690172 
L 182.23488 132.225917 
L 182.592 139.793396 
L 182.94912 133.890658 
L 183.66336 137.476856 
L 184.02048 137.978976 
L 184.3776 136.961683 
L 184.73472 138.860514 
L 185.09184 141.50948 
L 185.44896 133.084829 
L 185.80608 130.73087 
L 186.1632 132.833334 
L 186.52032 137.945037 
L 186.87744 137.556917 
L 187.23456 135.586727 
L 187.9488 128.852924 
L 188.30592 137.602168 
L 189.02016 130.68997 
L 189.37728 128.999122 
L 189.7344 138.179128 
L 190.09152 135.808634 
L 190.44864 132.012712 
L 190.80576 131.574118 
L 191.16288 133.365042 
L 191.52 130.293147 
L 191.87712 136.520478 
L 192.23424 130.210475 
L 192.59136 136.535272 
L 192.94848 131.131174 
L 193.3056 133.366782 
L 193.66272 134.472839 
L 194.01984 129.171427 
L 194.37696 136.753699 
L 195.0912 132.00401 
L 195.44832 134.967997 
L 195.80544 125.902861 
L 196.16256 132.453916 
L 196.51968 135.441399 
L 196.8768 127.147283 
L 197.23392 133.902841 
L 197.59104 129.228861 
L 197.94816 135.130729 
L 198.30528 128.64494 
L 198.6624 134.390167 
L 199.01952 130.646458 
L 199.37664 133.406813 
L 199.73376 129.838019 
L 200.09088 133.747941 
L 200.448 124.728057 
L 200.80512 129.312403 
L 201.16224 130.160002 
L 201.51936 126.82965 
L 201.87648 131.481004 
L 202.2336 133.264966 
L 202.94784 124.601874 
L 203.30496 127.675509 
L 203.66208 126.158707 
L 204.0192 128.946038 
L 204.37632 121.024378 
L 204.73344 120.767662 
L 205.09056 130.605558 
L 205.44768 131.742942 
L 205.8048 121.087904 
L 206.16192 121.452529 
L 206.51904 119.551087 
L 206.87616 128.95387 
L 207.23328 120.641479 
L 207.5904 130.984106 
L 207.94752 126.351027 
L 209.01888 121.706635 
L 209.376 127.571082 
L 209.73312 121.554345 
L 210.09024 126.756552 
L 210.44736 117.725354 
L 210.80448 119.200386 
L 211.1616 124.027525 
L 211.51872 117.493004 
L 211.87584 125.192757 
L 212.23296 123.89177 
L 212.59008 125.068315 
L 212.9472 126.978459 
L 213.30432 119.599819 
L 213.66144 125.723594 
L 214.01856 123.219956 
L 214.37568 123.771679 
L 214.7328 121.364636 
L 215.08992 121.169706 
L 215.44704 119.06028 
L 215.80416 127.719891 
L 216.16128 119.721651 
L 216.5184 125.576526 
L 217.23264 120.015787 
L 217.58976 121.453399 
L 217.94688 117.12838 
L 218.304 121.630925 
L 218.66112 115.485395 
L 219.01824 125.302405 
L 219.37536 114.388911 
L 219.73248 120.380411 
L 220.0896 122.176556 
L 220.44672 121.692711 
L 220.80384 115.376616 
L 221.16096 115.529776 
L 221.51808 123.184277 
L 222.23232 120.000993 
L 222.58944 114.381949 
L 222.94656 114.033859 
L 223.30368 124.513111 
L 223.6608 119.350065 
L 224.01792 122.07474 
L 224.37504 120.60667 
L 224.73216 115.338326 
L 225.08928 123.608077 
L 225.4464 121.697062 
L 225.80352 117.236288 
L 226.16064 122.134785 
L 226.51776 121.522147 
L 226.87488 118.992402 
L 227.232 121.441216 
L 227.58912 112.787696 
L 227.94624 120.944317 
L 228.30336 119.297851 
L 228.66048 116.614947 
L 229.0176 112.238584 
L 229.37472 119.768643 
L 229.73184 111.611152 
L 230.08896 115.950965 
L 230.44608 115.200831 
L 230.8032 113.713616 
L 231.16032 119.632888 
L 231.51744 113.789326 
L 231.87456 119.059409 
L 232.23168 108.116327 
L 232.5888 116.268597 
L 232.94592 108.212922 
L 233.66016 117.890697 
L 234.01728 112.334309 
L 234.3744 117.781919 
L 234.73152 109.298963 
L 235.08864 117.037006 
L 235.44576 115.395761 
L 235.80288 111.612022 
L 236.16 113.237603 
L 236.51712 107.516742 
L 236.87424 115.471471 
L 237.23136 106.476823 
L 237.58848 114.671734 
L 237.9456 114.611688 
L 238.30272 118.388466 
L 238.65984 117.035266 
L 239.01696 112.921711 
L 239.37408 117.63137 
L 239.7312 117.267616 
L 240.08832 109.309406 
L 240.44544 105.475194 
L 240.80256 117.599172 
L 241.15968 112.973054 
L 241.5168 111.435366 
L 241.87392 114.918878 
L 242.23104 110.672179 
L 242.58816 112.30037 
L 242.94528 107.141675 
L 243.3024 111.134268 
L 243.65952 108.158098 
L 244.01664 108.329533 
L 244.37376 108.637592 
L 245.088 103.615523 
L 245.44512 105.196722 
L 245.80224 103.902697 
L 246.15936 110.17528 
L 246.51648 109.889846 
L 246.8736 108.964797 
L 247.23072 113.907676 
L 247.58784 104.195093 
L 247.94496 107.111217 
L 248.30208 113.087924 
L 248.6592 106.018214 
L 249.01632 106.468991 
L 249.37344 106.073039 
L 249.73056 101.173671 
L 250.08768 111.416221 
L 250.80192 113.086184 
L 251.15904 109.758442 
L 251.51616 101.124068 
L 251.87328 104.587564 
L 252.2304 112.759849 
L 252.58752 100.614116 
L 252.94464 110.338883 
L 253.30176 105.315072 
L 253.65888 102.7949 
L 254.016 103.460622 
L 254.37312 111.876571 
L 254.73024 107.076408 
L 255.08736 109.503466 
L 255.44448 99.505449 
L 255.8016 108.427868 
L 256.15872 100.203369 
L 256.51584 110.29102 
L 256.87296 102.043896 
L 257.23008 110.619095 
L 257.5872 99.984073 
L 258.30144 108.999606 
L 258.65856 105.794566 
L 259.01568 101.540035 
L 259.3728 110.975017 
L 259.72992 97.996478 
L 260.08704 108.518371 
L 260.44416 105.387301 
L 260.80128 109.453864 
L 261.1584 97.1132 
L 261.51552 106.669143 
L 261.87264 97.981684 
L 262.22976 109.86548 
L 262.944 96.812972 
L 263.30112 96.30215 
L 263.65824 99.233939 
L 264.01536 105.195852 
L 264.37248 103.183021 
L 264.7296 105.099257 
L 265.08672 108.286021 
L 265.44384 97.583992 
L 265.80096 102.958502 
L 266.15808 98.482934 
L 266.5152 107.808268 
L 266.87232 106.865814 
L 267.22944 96.158563 
L 267.58656 103.831338 
L 267.94368 104.698953 
L 268.3008 102.448551 
L 268.65792 102.437238 
L 269.01504 98.877146 
L 269.37216 101.379044 
L 269.72928 95.639908 
L 270.0864 100.375674 
L 270.44352 96.551034 
L 270.80064 96.1107 
L 271.15776 106.714395 
L 271.51488 106.180076 
L 271.872 102.835801 
L 272.22912 104.255138 
L 272.58624 100.248621 
L 272.94336 102.455512 
L 273.30048 101.060541 
L 274.01472 93.569643 
L 274.37184 102.815786 
L 274.72896 102.264933 
L 275.08608 95.845282 
L 275.4432 94.600859 
L 275.80032 104.073261 
L 276.15744 96.565828 
L 276.51456 92.112886 
L 276.87168 92.188595 
L 277.2288 99.609876 
L 277.58592 99.460197 
L 277.94304 97.378618 
L 278.30016 98.974611 
L 278.65728 94.594768 
L 279.0144 99.398411 
L 279.37152 96.966132 
L 279.72864 99.997996 
L 280.08576 94.351105 
L 280.44288 96.531019 
L 280.8 93.121477 
L 281.87136 100.956984 
L 282.22848 97.237642 
L 282.5856 91.828322 
L 282.94272 98.207073 
L 283.29984 99.850058 
L 283.65696 100.082408 
L 284.01408 91.341866 
L 284.3712 94.879332 
L 284.72832 88.853022 
L 285.08544 94.334571 
L 285.44256 88.578901 
L 285.79968 88.764259 
L 286.1568 96.653721 
L 286.51392 93.231125 
L 286.87104 98.073928 
L 287.58528 87.981056 
L 287.9424 92.771646 
L 288.29952 100.502727 
L 288.65664 91.082539 
L 289.01376 88.114201 
L 289.37088 97.972982 
L 289.728 99.622929 
L 290.08512 86.135309 
L 290.44224 86.839321 
L 290.79936 99.313999 
L 291.15648 94.955911 
L 291.5136 96.551904 
L 291.87072 95.449329 
L 292.22784 96.545813 
L 292.58496 89.400394 
L 293.2992 95.3771 
L 293.65632 89.107998 
L 294.01344 96.527538 
L 294.37056 98.177485 
L 294.72768 86.519948 
L 295.0848 93.1354 
L 295.44192 97.369046 
L 295.79904 91.229607 
L 296.15616 91.59075 
L 296.51328 96.976574 
L 296.8704 87.511135 
L 297.22752 93.346865 
L 297.58464 92.118107 
L 297.94176 95.148231 
L 298.29888 96.602377 
L 299.01312 93.158896 
L 299.37024 97.675365 
L 299.72736 97.2681 
L 300.08448 94.364158 
L 300.4416 89.512653 
L 300.79872 88.621542 
L 301.15584 93.508727 
L 301.51296 93.63839 
L 302.2272 89.099296 
L 302.58432 96.398745 
L 302.94144 96.711156 
L 303.29856 93.480009 
L 303.65568 92.348717 
L 304.0128 87.938415 
L 304.36992 93.197186 
L 304.72704 84.990962 
L 305.08416 82.408134 
L 305.44128 88.410948 
L 305.7984 84.305225 
L 306.15552 95.867907 
L 306.51264 84.548018 
L 307.22688 85.440869 
L 307.584 90.499488 
L 308.29824 81.15762 
L 308.65536 95.124735 
L 309.01248 79.931473 
L 309.72672 89.228089 
L 310.08384 88.133346 
L 310.44096 84.381805 
L 310.79808 86.366788 
L 311.1552 85.40693 
L 311.51232 90.177505 
L 311.86944 84.245179 
L 312.58368 84.923955 
L 312.9408 88.288246 
L 313.29792 81.047972 
L 313.65504 79.062118 
L 314.01216 88.425741 
L 314.36928 85.75415 
L 314.7264 88.30391 
L 315.08352 86.073523 
L 315.44064 78.169267 
L 315.79776 91.947543 
L 316.15488 81.314261 
L 316.512 80.363105 
L 316.86912 77.694994 
L 317.22624 84.880444 
L 317.58336 89.450867 
L 317.94048 92.2469 
L 318.2976 87.56944 
L 318.65472 90.750983 
L 319.01184 80.336998 
L 319.36896 82.781461 
L 319.72608 90.534297 
L 320.0832 85.553128 
L 320.44032 84.601102 
L 320.79744 77.763742 
L 321.15456 83.373214 
L 321.51168 82.219295 
L 321.8688 75.957154 
L 322.22592 78.240625 
L 322.58304 82.442073 
L 322.94016 88.779053 
L 323.29728 80.298708 
L 323.6544 81.939953 
L 324.01152 90.23755 
L 324.36864 81.667572 
L 324.72576 82.941582 
L 325.08288 87.253548 
L 325.44 75.585568 
L 325.79712 80.054175 
L 326.51136 76.692495 
L 327.2256 78.810623 
L 327.58272 81.597954 
L 327.93984 80.793866 
L 328.29696 80.363105 
L 328.65408 77.752429 
L 329.0112 89.004441 
L 329.36832 78.789738 
L 329.72544 81.664091 
L 330.08256 86.10137 
L 330.43968 78.056138 
L 330.7968 82.590011 
L 331.15392 80.61373 
L 331.51104 83.402801 
L 331.86816 79.53291 
L 332.22528 79.149141 
L 332.5824 87.921881 
L 332.93952 85.661906 
L 333.29664 78.574792 
L 333.65376 76.136421 
L 334.01088 76.942249 
L 334.368 85.861188 
L 334.72512 76.422725 
L 335.08224 83.277489 
L 335.43936 72.571978 
L 335.79648 76.334832 
L 336.1536 75.917994 
L 336.51072 71.834027 
L 336.86784 76.24781 
L 337.22496 71.894073 
L 337.58208 80.865225 
L 337.9392 80.686828 
L 338.29632 78.506044 
L 338.65344 71.700013 
L 339.01056 72.243033 
L 339.36768 76.609823 
L 339.7248 73.823362 
L 340.08192 85.038825 
L 340.43904 81.383879 
L 340.79616 71.255328 
L 341.15328 84.037196 
L 341.5104 76.4819 
L 341.86752 72.690329 
L 342.22464 77.819436 
L 342.58176 79.290117 
L 342.93888 78.858485 
L 343.296 69.713288 
L 343.65312 83.775258 
L 344.01024 81.725007 
L 344.36736 81.914716 
L 344.72448 83.424557 
L 345.0816 81.595344 
L 345.43872 75.371493 
L 345.79584 76.450572 
L 346.15296 71.780944 
L 346.51008 69.800311 
L 346.8672 75.694346 
L 347.58144 69.242497 
L 347.93856 81.434352 
L 348.29568 80.684218 
L 348.6528 73.063656 
L 349.00992 74.291543 
L 349.36704 81.645817 
L 349.72416 80.319593 
L 350.08128 70.204095 
L 350.4384 70.009165 
L 350.79552 82.00522 
L 351.15264 67.598641 
L 351.50976 77.151974 
L 351.86688 71.681738 
L 352.224 81.197651 
L 352.58112 81.280322 
L 352.93824 78.906348 
L 353.29536 79.631245 
L 353.65248 82.206242 
L 354.0096 75.133051 
L 354.36672 74.345497 
L 354.72384 75.795293 
L 355.08096 74.476031 
L 355.43808 68.532393 
L 355.7952 77.13805 
L 356.15232 76.769945 
L 356.50944 80.918308 
L 356.86656 69.916051 
L 357.22368 79.37801 
L 357.5808 65.959137 
L 357.93792 79.128255 
L 358.29504 75.705659 
L 358.65216 76.824769 
L 359.00928 76.311336 
L 359.3664 69.046696 
L 359.72352 79.784405 
L 360.08064 79.741764 
L 360.43776 77.380843 
L 360.79488 73.364753 
L 361.152 77.342553 
L 361.50912 80.009793 
L 361.86624 70.745376 
L 362.22336 77.342553 
L 362.9376 65.797275 
L 363.29472 73.442204 
L 363.65184 78.603509 
L 364.00896 78.757539 
L 364.36608 79.383231 
L 364.7232 73.754614 
L 365.08032 65.872985 
L 365.43744 64.375327 
L 365.79456 72.417948 
L 366.15168 63.874077 
L 366.5088 79.366697 
L 366.86592 74.362032 
L 367.22304 78.061359 
L 367.58016 66.154938 
L 367.93728 64.507601 
L 368.2944 74.128811 
L 368.65152 72.679886 
L 369.00864 66.989484 
L 369.36576 71.891462 
L 369.72288 65.229888 
L 370.08 73.478753 
L 370.43712 77.995222 
L 370.79424 77.841192 
L 371.15136 70.450369 
L 371.50848 71.606899 
L 371.8656 62.926402 
L 372.22272 66.841545 
L 372.57984 64.299617 
L 372.93696 67.692626 
L 373.29408 73.719805 
L 373.6512 61.25557 
L 374.36544 77.075394 
L 374.72256 63.362385 
L 375.07968 74.263696 
L 375.4368 69.129367 
L 375.79392 68.890055 
L 376.15104 62.083154 
L 376.50816 64.681646 
L 376.86528 66.274158 
L 377.2224 66.298525 
L 377.93664 70.135348 
L 378.29376 75.074746 
L 378.65088 75.946712 
L 379.008 67.16962 
L 379.36512 64.297007 
L 379.72224 68.547187 
L 380.07936 69.94912 
L 380.43648 66.196708 
L 380.7936 69.108482 
L 381.15072 69.733304 
L 381.50784 64.383159 
L 381.86496 71.732211 
L 382.22208 61.743766 
L 382.93632 74.230628 
L 383.29344 68.938788 
L 383.65056 75.173952 
L 384.00768 59.924995 
L 384.3648 70.174508 
L 384.72192 66.172342 
L 385.07904 58.934679 
L 385.43616 58.227186 
L 385.79328 68.05899 
L 386.1504 68.004166 
L 386.50752 66.731897 
L 386.86464 66.543928 
L 387.22176 66.957285 
L 387.57888 70.496491 
L 387.936 59.227945 
L 388.29312 67.063453 
L 388.65024 63.73136 
L 389.00736 68.546316 
L 389.36448 66.802385 
L 389.7216 73.297746 
L 390.07872 57.54928 
L 390.43584 68.654224 
L 390.79296 67.730045 
L 391.15008 68.012868 
L 391.5072 57.373495 
L 391.86432 67.875373 
L 392.22144 56.825253 
L 392.93568 65.871244 
L 393.2928 60.456703 
L 393.64992 64.421449 
L 394.00704 65.54578 
L 394.36416 57.870393 
L 394.72128 62.344221 
L 395.0784 57.676333 
L 395.43552 69.17897 
L 395.79264 59.370662 
L 396.14976 70.191042 
L 396.50688 55.737471 
L 396.864 61.841231 
L 397.22112 56.168233 
L 397.57824 59.844934 
L 398.29248 65.04453 
L 398.6496 57.336945 
L 399.00672 62.60964 
L 399.36384 58.463887 
L 399.72096 58.868542 
L 400.07808 55.565167 
L 400.4352 62.962951 
L 400.79232 62.640968 
L 401.14944 59.319318 
L 401.50656 57.418747 
L 401.86368 59.52034 
L 402.2208 56.940993 
L 402.57792 59.807515 
L 402.93504 67.548168 
L 403.29216 65.564055 
L 403.64928 66.925087 
L 404.0064 64.292656 
L 404.36352 55.436374 
L 405.07776 61.440057 
L 405.43488 62.683609 
L 405.792 58.922496 
L 406.14912 58.343796 
L 406.50624 68.055509 
L 406.86336 55.361534 
L 407.22048 61.328668 
L 407.5776 56.469331 
L 407.93472 65.85384 
L 408.29184 60.737786 
L 408.64896 53.568 
L 409.00608 61.134608 
L 409.3632 64.588532 
L 409.72032 59.720492 
L 410.07744 64.800867 
L 410.43456 57.467479 
L 410.79168 62.790647 
L 411.1488 59.696126 
L 411.50592 55.126573 
L 411.86304 67.837083 
L 412.22016 60.389695 
L 412.57728 60.838732 
L 412.9344 57.207282 
L 413.29152 65.288193 
L 413.64864 54.38079 
L 414.00576 67.959785 
L 414.36288 54.247646 
L 414.72 63.627804 
L 414.72 63.627804 
" style="fill:none;stroke:#000080;stroke-linecap:square;stroke-width:0.5;"/>
   </g>
   <g id="patch_3">
    <path d="M 57.6 307.584 
L 57.6 41.472 
" style="fill:none;stroke:#000000;stroke-linecap:square;stroke-linejoin:miter;stroke-width:0.8;"/>
   </g>
   <g id="patch_4">
    <path d="M 414.72 307.584 
L 414.72 41.472 
" style="fill:none;stroke:#000000;stroke-linecap:square;stroke-linejoin:miter;stroke-width:0.8;"/>
   </g>
   <g id="patch_5">
    <path d="M 57.6 307.584 
L 414.72 307.584 
" style="fill:none;stroke:#000000;stroke-linecap:square;stroke-linejoin:miter;stroke-width:0.8;"/>
   </g>
   <g id="patch_6">
    <path d="M 57.6 41.472 
L 414.72 41.472 
" style="fill:none;stroke:#000000;stroke-linecap:square;stroke-linejoin:miter;stroke-width:0.8;"/>
   </g>
   <g id="text_15">
    <!-- Test -->
    <defs>
     <path d="M -0.296875 72.90625 
L 61.375 72.90625 
L 61.375 64.59375 
L 35.5 64.59375 
L 35.5 0 
L 25.59375 0 
L 25.59375 64.59375 
L -0.296875 64.59375 
z
" id="DejaVuSans-54"/>
    </defs>
    <g transform="translate(223.341563 35.472)scale(0.12 -0.12)">
     <use xlink:href="#DejaVuSans-54"/>
     <use x="60.818359" xlink:href="#DejaVuSans-65"/>
     <use x="122.341797" xlink:href="#DejaVuSans-73"/>
     <use x="174.441406" xlink:href="#DejaVuSans-74"/>
    </g>
   </g>
   <g id="legend_1">
    <g id="patch_7">
     <path d="M 64.6 64.150125 
L 306.276563 64.150125 
Q 308.276563 64.150125 308.276563 62.150125 
L 308.276563 48.472 
Q 308.276563 46.472 306.276563 46.472 
L 64.6 46.472 
Q 62.6 46.472 62.6 48.472 
L 62.6 62.150125 
Q 62.6 64.150125 64.6 64.150125 
z
" style="fill:#ffffff;opacity:0.8;stroke:#cccccc;stroke-linejoin:miter;"/>
    </g>
    <g id="line2d_26">
     <path d="M 66.6 54.570438 
L 86.6 54.570438 
" style="fill:none;stroke:#000080;stroke-linecap:square;stroke-width:0.5;"/>
    </g>
    <g id="line2d_27"/>
    <g id="text_16">
     <!-- Successful download requests per second -->
     <g transform="translate(94.6 58.070438)scale(0.1 -0.1)">
      <use xlink:href="#DejaVuSans-53"/>
      <use x="63.476562" xlink:href="#DejaVuSans-75"/>
      <use x="126.855469" xlink:href="#DejaVuSans-63"/>
      <use x="181.835938" xlink:href="#DejaVuSans-63"/>
      <use x="236.816406" xlink:href="#DejaVuSans-65"/>
      <use x="298.339844" xlink:href="#DejaVuSans-73"/>
      <use x="350.439453" xlink:href="#DejaVuSans-73"/>
      <use x="402.539062" xlink:href="#DejaVuSans-66"/>
      <use x="437.744141" xlink:href="#DejaVuSans-75"/>
      <use x="501.123047" xlink:href="#DejaVuSans-6c"/>
      <use x="528.90625" xlink:href="#DejaVuSans-20"/>
      <use x="560.693359" xlink:href="#DejaVuSans-64"/>
      <use x="624.169922" xlink:href="#DejaVuSans-6f"/>
      <use x="685.351562" xlink:href="#DejaVuSans-77"/>
      <use x="767.138672" xlink:href="#DejaVuSans-6e"/>
      <use x="830.517578" xlink:href="#DejaVuSans-6c"/>
      <use x="858.300781" xlink:href="#DejaVuSans-6f"/>
      <use x="919.482422" xlink:href="#DejaVuSans-61"/>
      <use x="980.761719" xlink:href="#DejaVuSans-64"/>
      <use x="1044.238281" xlink:href="#DejaVuSans-20"/>
      <use x="1076.025391" xlink:href="#DejaVuSans-72"/>
      <use x="1117.107422" xlink:href="#DejaVuSans-65"/>
      <use x="1178.630859" xlink:href="#DejaVuSans-71"/>
      <use x="1242.107422" xlink:href="#DejaVuSans-75"/>
      <use x="1305.486328" xlink:href="#DejaVuSans-65"/>
      <use x="1367.009766" xlink:href="#DejaVuSans-73"/>
      <use x="1419.109375" xlink:href="#DejaVuSans-74"/>
      <use x="1458.318359" xlink:href="#DejaVuSans-73"/>
      <use x="1510.417969" xlink:href="#DejaVuSans-20"/>
      <use x="1542.205078" xlink:href="#DejaVuSans-70"/>
      <use x="1605.681641" xlink:href="#DejaVuSans-65"/>
      <use x="1667.205078" xlink:href="#DejaVuSans-72"/>
      <use x="1708.318359" xlink:href="#DejaVuSans-20"/>
      <use x="1740.105469" xlink:href="#DejaVuSans-73"/>
      <use x="1792.205078" xlink:href="#DejaVuSans-65"/>
      <use x="1853.728516" xlink:href="#DejaVuSans-63"/>
      <use x="1908.708984" xlink:href="#DejaVuSans-6f"/>
      <use x="1969.890625" xlink:href="#DejaVuSans-6e"/>
      <use x="2033.269531" xlink:href="#DejaVuSans-64"/>
     </g>
    </g>
   </g>
  </g>
 </g>
 <defs>
  <clipPath id="p9987a33cbd">
   <rect height="266.112" width="357.12" x="57.6" y="41.472"/>
  </clipPath>
 </defs>
</svg>
