<?xml version="1.0" encoding="utf-8" standalone="no"?>
<!DOCTYPE svg PUBLIC "-//W3C//DTD SVG 1.1//EN"
  "http://www.w3.org/Graphics/SVG/1.1/DTD/svg11.dtd">
<!-- Created with matplotlib (http://matplotlib.org/) -->
<svg height="345pt" version="1.1" viewBox="0 0 460 345" width="460pt" xmlns="http://www.w3.org/2000/svg" xmlns:xlink="http://www.w3.org/1999/xlink">
 <defs>
  <style type="text/css">
*{stroke-linecap:butt;stroke-linejoin:round;}
  </style>
 </defs>
 <g id="figure_1">
  <g id="patch_1">
   <path d="M 0 345.6 
L 460.8 345.6 
L 460.8 0 
L 0 0 
z
" style="fill:#ffffff;"/>
  </g>
  <g id="axes_1">
   <g id="patch_2">
    <path d="M 57.6 307.584 
L 414.72 307.584 
L 414.72 41.472 
L 57.6 41.472 
z
" style="fill:#ffffff;"/>
   </g>
   <g id="matplotlib.axis_1">
    <g id="xtick_1">
     <g id="line2d_1">
      <path clip-path="url(#p599a55374c)" d="M 57.6 307.584 
L 57.6 41.472 
" style="fill:none;stroke:#b0b0b0;stroke-linecap:square;stroke-width:0.8;"/>
     </g>
     <g id="line2d_2">
      <defs>
       <path d="M 0 0 
L 0 3.5 
" id="m2e363665e2" style="stroke:#000000;stroke-width:0.8;"/>
      </defs>
      <g>
       <use style="stroke:#000000;stroke-width:0.8;" x="57.6" xlink:href="#m2e363665e2" y="307.584"/>
      </g>
     </g>
     <g id="text_1">
      <!-- 0 -->
      <defs>
       <path d="M 31.78125 66.40625 
Q 24.171875 66.40625 20.328125 58.90625 
Q 16.5 51.421875 16.5 36.375 
Q 16.5 21.390625 20.328125 13.890625 
Q 24.171875 6.390625 31.78125 6.390625 
Q 39.453125 6.390625 43.28125 13.890625 
Q 47.125 21.390625 47.125 36.375 
Q 47.125 51.421875 43.28125 58.90625 
Q 39.453125 66.40625 31.78125 66.40625 
M 31.78125 74.21875 
Q 44.046875 74.21875 50.515625 64.515625 
Q 56.984375 54.828125 56.984375 36.375 
Q 56.984375 17.96875 50.515625 8.265625 
Q 44.046875 -1.421875 31.78125 -1.421875 
Q 19.53125 -1.421875 13.0625 8.265625 
Q 6.59375 17.96875 6.59375 36.375 
Q 6.59375 54.828125 13.0625 64.515625 
Q 19.53125 74.21875 31.78125 74.21875 
" id="DejaVuSans-30"/>
      </defs>
      <g transform="translate(54.41875 322.182437)scale(0.1 -0.1)">
       <use xlink:href="#DejaVuSans-30"/>
      </g>
     </g>
    </g>
    <g id="xtick_2">
     <g id="line2d_3">
      <path clip-path="url(#p599a55374c)" d="M 129.024 307.584 
L 129.024 41.472 
" style="fill:none;stroke:#b0b0b0;stroke-linecap:square;stroke-width:0.8;"/>
     </g>
     <g id="line2d_4">
      <g>
       <use style="stroke:#000000;stroke-width:0.8;" x="129.024" xlink:href="#m2e363665e2" y="307.584"/>
      </g>
     </g>
     <g id="text_2">
      <!-- 200 -->
      <defs>
       <path d="M 19.1875 8.296875 
L 53.609375 8.296875 
L 53.609375 0 
L 7.328125 0 
L 7.328125 8.296875 
Q 12.9375 14.109375 22.625 23.890625 
Q 32.328125 33.6875 34.8125 36.53125 
Q 39.546875 41.84375 41.421875 45.53125 
Q 43.3125 49.21875 43.3125 52.78125 
Q 43.3125 58.59375 39.234375 62.25 
Q 35.15625 65.921875 28.609375 65.921875 
Q 23.96875 65.921875 18.8125 64.3125 
Q 13.671875 62.703125 7.8125 59.421875 
L 7.8125 69.390625 
Q 13.765625 71.78125 18.9375 73 
Q 24.125 74.21875 28.421875 74.21875 
Q 39.75 74.21875 46.484375 68.546875 
Q 53.21875 62.890625 53.21875 53.421875 
Q 53.21875 48.921875 51.53125 44.890625 
Q 49.859375 40.875 45.40625 35.40625 
Q 44.1875 33.984375 37.640625 27.21875 
Q 31.109375 20.453125 19.1875 8.296875 
" id="DejaVuSans-32"/>
      </defs>
      <g transform="translate(119.48025 322.182437)scale(0.1 -0.1)">
       <use xlink:href="#DejaVuSans-32"/>
       <use x="63.623047" xlink:href="#DejaVuSans-30"/>
       <use x="127.246094" xlink:href="#DejaVuSans-30"/>
      </g>
     </g>
    </g>
    <g id="xtick_3">
     <g id="line2d_5">
      <path clip-path="url(#p599a55374c)" d="M 200.448 307.584 
L 200.448 41.472 
" style="fill:none;stroke:#b0b0b0;stroke-linecap:square;stroke-width:0.8;"/>
     </g>
     <g id="line2d_6">
      <g>
       <use style="stroke:#000000;stroke-width:0.8;" x="200.448" xlink:href="#m2e363665e2" y="307.584"/>
      </g>
     </g>
     <g id="text_3">
      <!-- 400 -->
      <defs>
       <path d="M 37.796875 64.3125 
L 12.890625 25.390625 
L 37.796875 25.390625 
z
M 35.203125 72.90625 
L 47.609375 72.90625 
L 47.609375 25.390625 
L 58.015625 25.390625 
L 58.015625 17.1875 
L 47.609375 17.1875 
L 47.609375 0 
L 37.796875 0 
L 37.796875 17.1875 
L 4.890625 17.1875 
L 4.890625 26.703125 
z
" id="DejaVuSans-34"/>
      </defs>
      <g transform="translate(190.90425 322.182437)scale(0.1 -0.1)">
       <use xlink:href="#DejaVuSans-34"/>
       <use x="63.623047" xlink:href="#DejaVuSans-30"/>
       <use x="127.246094" xlink:href="#DejaVuSans-30"/>
      </g>
     </g>
    </g>
    <g id="xtick_4">
     <g id="line2d_7">
      <path clip-path="url(#p599a55374c)" d="M 271.872 307.584 
L 271.872 41.472 
" style="fill:none;stroke:#b0b0b0;stroke-linecap:square;stroke-width:0.8;"/>
     </g>
     <g id="line2d_8">
      <g>
       <use style="stroke:#000000;stroke-width:0.8;" x="271.872" xlink:href="#m2e363665e2" y="307.584"/>
      </g>
     </g>
     <g id="text_4">
      <!-- 600 -->
      <defs>
       <path d="M 33.015625 40.375 
Q 26.375 40.375 22.484375 35.828125 
Q 18.609375 31.296875 18.609375 23.390625 
Q 18.609375 15.53125 22.484375 10.953125 
Q 26.375 6.390625 33.015625 6.390625 
Q 39.65625 6.390625 43.53125 10.953125 
Q 47.40625 15.53125 47.40625 23.390625 
Q 47.40625 31.296875 43.53125 35.828125 
Q 39.65625 40.375 33.015625 40.375 
M 52.59375 71.296875 
L 52.59375 62.3125 
Q 48.875 64.0625 45.09375 64.984375 
Q 41.3125 65.921875 37.59375 65.921875 
Q 27.828125 65.921875 22.671875 59.328125 
Q 17.53125 52.734375 16.796875 39.40625 
Q 19.671875 43.65625 24.015625 45.921875 
Q 28.375 48.1875 33.59375 48.1875 
Q 44.578125 48.1875 50.953125 41.515625 
Q 57.328125 34.859375 57.328125 23.390625 
Q 57.328125 12.15625 50.6875 5.359375 
Q 44.046875 -1.421875 33.015625 -1.421875 
Q 20.359375 -1.421875 13.671875 8.265625 
Q 6.984375 17.96875 6.984375 36.375 
Q 6.984375 53.65625 15.1875 63.9375 
Q 23.390625 74.21875 37.203125 74.21875 
Q 40.921875 74.21875 44.703125 73.484375 
Q 48.484375 72.75 52.59375 71.296875 
" id="DejaVuSans-36"/>
      </defs>
      <g transform="translate(262.32825 322.182437)scale(0.1 -0.1)">
       <use xlink:href="#DejaVuSans-36"/>
       <use x="63.623047" xlink:href="#DejaVuSans-30"/>
       <use x="127.246094" xlink:href="#DejaVuSans-30"/>
      </g>
     </g>
    </g>
    <g id="xtick_5">
     <g id="line2d_9">
      <path clip-path="url(#p599a55374c)" d="M 343.296 307.584 
L 343.296 41.472 
" style="fill:none;stroke:#b0b0b0;stroke-linecap:square;stroke-width:0.8;"/>
     </g>
     <g id="line2d_10">
      <g>
       <use style="stroke:#000000;stroke-width:0.8;" x="343.296" xlink:href="#m2e363665e2" y="307.584"/>
      </g>
     </g>
     <g id="text_5">
      <!-- 800 -->
      <defs>
       <path d="M 31.78125 34.625 
Q 24.75 34.625 20.71875 30.859375 
Q 16.703125 27.09375 16.703125 20.515625 
Q 16.703125 13.921875 20.71875 10.15625 
Q 24.75 6.390625 31.78125 6.390625 
Q 38.8125 6.390625 42.859375 10.171875 
Q 46.921875 13.96875 46.921875 20.515625 
Q 46.921875 27.09375 42.890625 30.859375 
Q 38.875 34.625 31.78125 34.625 
M 21.921875 38.8125 
Q 15.578125 40.375 12.03125 44.71875 
Q 8.5 49.078125 8.5 55.328125 
Q 8.5 64.0625 14.71875 69.140625 
Q 20.953125 74.21875 31.78125 74.21875 
Q 42.671875 74.21875 48.875 69.140625 
Q 55.078125 64.0625 55.078125 55.328125 
Q 55.078125 49.078125 51.53125 44.71875 
Q 48 40.375 41.703125 38.8125 
Q 48.828125 37.15625 52.796875 32.3125 
Q 56.78125 27.484375 56.78125 20.515625 
Q 56.78125 9.90625 50.3125 4.234375 
Q 43.84375 -1.421875 31.78125 -1.421875 
Q 19.734375 -1.421875 13.25 4.234375 
Q 6.78125 9.90625 6.78125 20.515625 
Q 6.78125 27.484375 10.78125 32.3125 
Q 14.796875 37.15625 21.921875 38.8125 
M 18.3125 54.390625 
Q 18.3125 48.734375 21.84375 45.5625 
Q 25.390625 42.390625 31.78125 42.390625 
Q 38.140625 42.390625 41.71875 45.5625 
Q 45.3125 48.734375 45.3125 54.390625 
Q 45.3125 60.0625 41.71875 63.234375 
Q 38.140625 66.40625 31.78125 66.40625 
Q 25.390625 66.40625 21.84375 63.234375 
Q 18.3125 60.0625 18.3125 54.390625 
" id="DejaVuSans-38"/>
      </defs>
      <g transform="translate(333.75225 322.182437)scale(0.1 -0.1)">
       <use xlink:href="#DejaVuSans-38"/>
       <use x="63.623047" xlink:href="#DejaVuSans-30"/>
       <use x="127.246094" xlink:href="#DejaVuSans-30"/>
      </g>
     </g>
    </g>
    <g id="xtick_6">
     <g id="line2d_11">
      <path clip-path="url(#p599a55374c)" d="M 414.72 307.584 
L 414.72 41.472 
" style="fill:none;stroke:#b0b0b0;stroke-linecap:square;stroke-width:0.8;"/>
     </g>
     <g id="line2d_12">
      <g>
       <use style="stroke:#000000;stroke-width:0.8;" x="414.72" xlink:href="#m2e363665e2" y="307.584"/>
      </g>
     </g>
     <g id="text_6">
      <!-- 1000 -->
      <defs>
       <path d="M 12.40625 8.296875 
L 28.515625 8.296875 
L 28.515625 63.921875 
L 10.984375 60.40625 
L 10.984375 69.390625 
L 28.421875 72.90625 
L 38.28125 72.90625 
L 38.28125 8.296875 
L 54.390625 8.296875 
L 54.390625 0 
L 12.40625 0 
z
" id="DejaVuSans-31"/>
      </defs>
      <g transform="translate(401.995 322.182437)scale(0.1 -0.1)">
       <use xlink:href="#DejaVuSans-31"/>
       <use x="63.623047" xlink:href="#DejaVuSans-30"/>
       <use x="127.246094" xlink:href="#DejaVuSans-30"/>
       <use x="190.869141" xlink:href="#DejaVuSans-30"/>
      </g>
     </g>
    </g>
    <g id="text_7">
     <!-- Number of clients -->
     <defs>
      <path d="M 9.8125 72.90625 
L 23.09375 72.90625 
L 55.421875 11.921875 
L 55.421875 72.90625 
L 64.984375 72.90625 
L 64.984375 0 
L 51.703125 0 
L 19.390625 60.984375 
L 19.390625 0 
L 9.8125 0 
z
" id="DejaVuSans-4e"/>
      <path d="M 8.5 21.578125 
L 8.5 54.6875 
L 17.484375 54.6875 
L 17.484375 21.921875 
Q 17.484375 14.15625 20.5 10.265625 
Q 23.53125 6.390625 29.59375 6.390625 
Q 36.859375 6.390625 41.078125 11.03125 
Q 45.3125 15.671875 45.3125 23.6875 
L 45.3125 54.6875 
L 54.296875 54.6875 
L 54.296875 0 
L 45.3125 0 
L 45.3125 8.40625 
Q 42.046875 3.421875 37.71875 1 
Q 33.40625 -1.421875 27.6875 -1.421875 
Q 18.265625 -1.421875 13.375 4.4375 
Q 8.5 10.296875 8.5 21.578125 
M 31.109375 56 
z
" id="DejaVuSans-75"/>
      <path d="M 52 44.1875 
Q 55.375 50.25 60.0625 53.125 
Q 64.75 56 71.09375 56 
Q 79.640625 56 84.28125 50.015625 
Q 88.921875 44.046875 88.921875 33.015625 
L 88.921875 0 
L 79.890625 0 
L 79.890625 32.71875 
Q 79.890625 40.578125 77.09375 44.375 
Q 74.3125 48.1875 68.609375 48.1875 
Q 61.625 48.1875 57.5625 43.546875 
Q 53.515625 38.921875 53.515625 30.90625 
L 53.515625 0 
L 44.484375 0 
L 44.484375 32.71875 
Q 44.484375 40.625 41.703125 44.40625 
Q 38.921875 48.1875 33.109375 48.1875 
Q 26.21875 48.1875 22.15625 43.53125 
Q 18.109375 38.875 18.109375 30.90625 
L 18.109375 0 
L 9.078125 0 
L 9.078125 54.6875 
L 18.109375 54.6875 
L 18.109375 46.1875 
Q 21.1875 51.21875 25.484375 53.609375 
Q 29.78125 56 35.6875 56 
Q 41.65625 56 45.828125 52.96875 
Q 50 49.953125 52 44.1875 
" id="DejaVuSans-6d"/>
      <path d="M 48.6875 27.296875 
Q 48.6875 37.203125 44.609375 42.84375 
Q 40.53125 48.484375 33.40625 48.484375 
Q 26.265625 48.484375 22.1875 42.84375 
Q 18.109375 37.203125 18.109375 27.296875 
Q 18.109375 17.390625 22.1875 11.75 
Q 26.265625 6.109375 33.40625 6.109375 
Q 40.53125 6.109375 44.609375 11.75 
Q 48.6875 17.390625 48.6875 27.296875 
M 18.109375 46.390625 
Q 20.953125 51.265625 25.265625 53.625 
Q 29.59375 56 35.59375 56 
Q 45.5625 56 51.78125 48.09375 
Q 58.015625 40.1875 58.015625 27.296875 
Q 58.015625 14.40625 51.78125 6.484375 
Q 45.5625 -1.421875 35.59375 -1.421875 
Q 29.59375 -1.421875 25.265625 0.953125 
Q 20.953125 3.328125 18.109375 8.203125 
L 18.109375 0 
L 9.078125 0 
L 9.078125 75.984375 
L 18.109375 75.984375 
z
" id="DejaVuSans-62"/>
      <path d="M 56.203125 29.59375 
L 56.203125 25.203125 
L 14.890625 25.203125 
Q 15.484375 15.921875 20.484375 11.0625 
Q 25.484375 6.203125 34.421875 6.203125 
Q 39.59375 6.203125 44.453125 7.46875 
Q 49.3125 8.734375 54.109375 11.28125 
L 54.109375 2.78125 
Q 49.265625 0.734375 44.1875 -0.34375 
Q 39.109375 -1.421875 33.890625 -1.421875 
Q 20.796875 -1.421875 13.15625 6.1875 
Q 5.515625 13.8125 5.515625 26.8125 
Q 5.515625 40.234375 12.765625 48.109375 
Q 20.015625 56 32.328125 56 
Q 43.359375 56 49.78125 48.890625 
Q 56.203125 41.796875 56.203125 29.59375 
M 47.21875 32.234375 
Q 47.125 39.59375 43.09375 43.984375 
Q 39.0625 48.390625 32.421875 48.390625 
Q 24.90625 48.390625 20.390625 44.140625 
Q 15.875 39.890625 15.1875 32.171875 
z
" id="DejaVuSans-65"/>
      <path d="M 41.109375 46.296875 
Q 39.59375 47.171875 37.8125 47.578125 
Q 36.03125 48 33.890625 48 
Q 26.265625 48 22.1875 43.046875 
Q 18.109375 38.09375 18.109375 28.8125 
L 18.109375 0 
L 9.078125 0 
L 9.078125 54.6875 
L 18.109375 54.6875 
L 18.109375 46.1875 
Q 20.953125 51.171875 25.484375 53.578125 
Q 30.03125 56 36.53125 56 
Q 37.453125 56 38.578125 55.875 
Q 39.703125 55.765625 41.0625 55.515625 
z
" id="DejaVuSans-72"/>
      <path id="DejaVuSans-20"/>
      <path d="M 30.609375 48.390625 
Q 23.390625 48.390625 19.1875 42.75 
Q 14.984375 37.109375 14.984375 27.296875 
Q 14.984375 17.484375 19.15625 11.84375 
Q 23.34375 6.203125 30.609375 6.203125 
Q 37.796875 6.203125 41.984375 11.859375 
Q 46.1875 17.53125 46.1875 27.296875 
Q 46.1875 37.015625 41.984375 42.703125 
Q 37.796875 48.390625 30.609375 48.390625 
M 30.609375 56 
Q 42.328125 56 49.015625 48.375 
Q 55.71875 40.765625 55.71875 27.296875 
Q 55.71875 13.875 49.015625 6.21875 
Q 42.328125 -1.421875 30.609375 -1.421875 
Q 18.84375 -1.421875 12.171875 6.21875 
Q 5.515625 13.875 5.515625 27.296875 
Q 5.515625 40.765625 12.171875 48.375 
Q 18.84375 56 30.609375 56 
" id="DejaVuSans-6f"/>
      <path d="M 37.109375 75.984375 
L 37.109375 68.5 
L 28.515625 68.5 
Q 23.6875 68.5 21.796875 66.546875 
Q 19.921875 64.59375 19.921875 59.515625 
L 19.921875 54.6875 
L 34.71875 54.6875 
L 34.71875 47.703125 
L 19.921875 47.703125 
L 19.921875 0 
L 10.890625 0 
L 10.890625 47.703125 
L 2.296875 47.703125 
L 2.296875 54.6875 
L 10.890625 54.6875 
L 10.890625 58.5 
Q 10.890625 67.625 15.140625 71.796875 
Q 19.390625 75.984375 28.609375 75.984375 
z
" id="DejaVuSans-66"/>
      <path d="M 48.78125 52.59375 
L 48.78125 44.1875 
Q 44.96875 46.296875 41.140625 47.34375 
Q 37.3125 48.390625 33.40625 48.390625 
Q 24.65625 48.390625 19.8125 42.84375 
Q 14.984375 37.3125 14.984375 27.296875 
Q 14.984375 17.28125 19.8125 11.734375 
Q 24.65625 6.203125 33.40625 6.203125 
Q 37.3125 6.203125 41.140625 7.25 
Q 44.96875 8.296875 48.78125 10.40625 
L 48.78125 2.09375 
Q 45.015625 0.34375 40.984375 -0.53125 
Q 36.96875 -1.421875 32.421875 -1.421875 
Q 20.0625 -1.421875 12.78125 6.34375 
Q 5.515625 14.109375 5.515625 27.296875 
Q 5.515625 40.671875 12.859375 48.328125 
Q 20.21875 56 33.015625 56 
Q 37.15625 56 41.109375 55.140625 
Q 45.0625 54.296875 48.78125 52.59375 
" id="DejaVuSans-63"/>
      <path d="M 9.421875 75.984375 
L 18.40625 75.984375 
L 18.40625 0 
L 9.421875 0 
z
" id="DejaVuSans-6c"/>
      <path d="M 9.421875 54.6875 
L 18.40625 54.6875 
L 18.40625 0 
L 9.421875 0 
z
M 9.421875 75.984375 
L 18.40625 75.984375 
L 18.40625 64.59375 
L 9.421875 64.59375 
z
" id="DejaVuSans-69"/>
      <path d="M 54.890625 33.015625 
L 54.890625 0 
L 45.90625 0 
L 45.90625 32.71875 
Q 45.90625 40.484375 42.875 44.328125 
Q 39.84375 48.1875 33.796875 48.1875 
Q 26.515625 48.1875 22.3125 43.546875 
Q 18.109375 38.921875 18.109375 30.90625 
L 18.109375 0 
L 9.078125 0 
L 9.078125 54.6875 
L 18.109375 54.6875 
L 18.109375 46.1875 
Q 21.34375 51.125 25.703125 53.5625 
Q 30.078125 56 35.796875 56 
Q 45.21875 56 50.046875 50.171875 
Q 54.890625 44.34375 54.890625 33.015625 
" id="DejaVuSans-6e"/>
      <path d="M 18.3125 70.21875 
L 18.3125 54.6875 
L 36.8125 54.6875 
L 36.8125 47.703125 
L 18.3125 47.703125 
L 18.3125 18.015625 
Q 18.3125 11.328125 20.140625 9.421875 
Q 21.96875 7.515625 27.59375 7.515625 
L 36.8125 7.515625 
L 36.8125 0 
L 27.59375 0 
Q 17.1875 0 13.234375 3.875 
Q 9.28125 7.765625 9.28125 18.015625 
L 9.28125 47.703125 
L 2.6875 47.703125 
L 2.6875 54.6875 
L 9.28125 54.6875 
L 9.28125 70.21875 
z
" id="DejaVuSans-74"/>
      <path d="M 44.28125 53.078125 
L 44.28125 44.578125 
Q 40.484375 46.53125 36.375 47.5 
Q 32.28125 48.484375 27.875 48.484375 
Q 21.1875 48.484375 17.84375 46.4375 
Q 14.5 44.390625 14.5 40.28125 
Q 14.5 37.15625 16.890625 35.375 
Q 19.28125 33.59375 26.515625 31.984375 
L 29.59375 31.296875 
Q 39.15625 29.25 43.1875 25.515625 
Q 47.21875 21.78125 47.21875 15.09375 
Q 47.21875 7.46875 41.1875 3.015625 
Q 35.15625 -1.421875 24.609375 -1.421875 
Q 20.21875 -1.421875 15.453125 -0.5625 
Q 10.6875 0.296875 5.421875 2 
L 5.421875 11.28125 
Q 10.40625 8.6875 15.234375 7.390625 
Q 20.0625 6.109375 24.8125 6.109375 
Q 31.15625 6.109375 34.5625 8.28125 
Q 37.984375 10.453125 37.984375 14.40625 
Q 37.984375 18.0625 35.515625 20.015625 
Q 33.0625 21.96875 24.703125 23.78125 
L 21.578125 24.515625 
Q 13.234375 26.265625 9.515625 29.90625 
Q 5.8125 33.546875 5.8125 39.890625 
Q 5.8125 47.609375 11.28125 51.796875 
Q 16.75 56 26.8125 56 
Q 31.78125 56 36.171875 55.265625 
Q 40.578125 54.546875 44.28125 53.078125 
" id="DejaVuSans-73"/>
     </defs>
     <g transform="translate(191.738906 335.860562)scale(0.1 -0.1)">
      <use xlink:href="#DejaVuSans-4e"/>
      <use x="74.804688" xlink:href="#DejaVuSans-75"/>
      <use x="138.183594" xlink:href="#DejaVuSans-6d"/>
      <use x="235.595703" xlink:href="#DejaVuSans-62"/>
      <use x="299.072266" xlink:href="#DejaVuSans-65"/>
      <use x="360.595703" xlink:href="#DejaVuSans-72"/>
      <use x="401.708984" xlink:href="#DejaVuSans-20"/>
      <use x="433.496094" xlink:href="#DejaVuSans-6f"/>
      <use x="494.677734" xlink:href="#DejaVuSans-66"/>
      <use x="529.882812" xlink:href="#DejaVuSans-20"/>
      <use x="561.669922" xlink:href="#DejaVuSans-63"/>
      <use x="616.650391" xlink:href="#DejaVuSans-6c"/>
      <use x="644.433594" xlink:href="#DejaVuSans-69"/>
      <use x="672.216797" xlink:href="#DejaVuSans-65"/>
      <use x="733.740234" xlink:href="#DejaVuSans-6e"/>
      <use x="797.119141" xlink:href="#DejaVuSans-74"/>
      <use x="836.328125" xlink:href="#DejaVuSans-73"/>
     </g>
    </g>
   </g>
   <g id="matplotlib.axis_2">
    <g id="ytick_1">
     <g id="line2d_13">
      <path clip-path="url(#p599a55374c)" d="M 57.6 296.130576 
L 414.72 296.130576 
" style="fill:none;stroke:#b0b0b0;stroke-linecap:square;stroke-width:0.8;"/>
     </g>
     <g id="line2d_14">
      <defs>
       <path d="M 0 0 
L -3.5 0 
" id="m37e92150e5" style="stroke:#000000;stroke-width:0.8;"/>
      </defs>
      <g>
       <use style="stroke:#000000;stroke-width:0.8;" x="57.6" xlink:href="#m37e92150e5" y="296.130576"/>
      </g>
     </g>
     <g id="text_8">
      <!-- 0 -->
      <g transform="translate(44.2375 299.929794)scale(0.1 -0.1)">
       <use xlink:href="#DejaVuSans-30"/>
      </g>
     </g>
    </g>
    <g id="ytick_2">
     <g id="line2d_15">
      <path clip-path="url(#p599a55374c)" d="M 57.6 262.55818 
L 414.72 262.55818 
" style="fill:none;stroke:#b0b0b0;stroke-linecap:square;stroke-width:0.8;"/>
     </g>
     <g id="line2d_16">
      <g>
       <use style="stroke:#000000;stroke-width:0.8;" x="57.6" xlink:href="#m37e92150e5" y="262.55818"/>
      </g>
     </g>
     <g id="text_9">
      <!-- 50 -->
      <defs>
       <path d="M 10.796875 72.90625 
L 49.515625 72.90625 
L 49.515625 64.59375 
L 19.828125 64.59375 
L 19.828125 46.734375 
Q 21.96875 47.46875 24.109375 47.828125 
Q 26.265625 48.1875 28.421875 48.1875 
Q 40.625 48.1875 47.75 41.5 
Q 54.890625 34.8125 54.890625 23.390625 
Q 54.890625 11.625 47.5625 5.09375 
Q 40.234375 -1.421875 26.90625 -1.421875 
Q 22.3125 -1.421875 17.546875 -0.640625 
Q 12.796875 0.140625 7.71875 1.703125 
L 7.71875 11.625 
Q 12.109375 9.234375 16.796875 8.0625 
Q 21.484375 6.890625 26.703125 6.890625 
Q 35.15625 6.890625 40.078125 11.328125 
Q 45.015625 15.765625 45.015625 23.390625 
Q 45.015625 31 40.078125 35.4375 
Q 35.15625 39.890625 26.703125 39.890625 
Q 22.75 39.890625 18.8125 39.015625 
Q 14.890625 38.140625 10.796875 36.28125 
z
" id="DejaVuSans-35"/>
      </defs>
      <g transform="translate(37.875 266.357398)scale(0.1 -0.1)">
       <use xlink:href="#DejaVuSans-35"/>
       <use x="63.623047" xlink:href="#DejaVuSans-30"/>
      </g>
     </g>
    </g>
    <g id="ytick_3">
     <g id="line2d_17">
      <path clip-path="url(#p599a55374c)" d="M 57.6 228.985784 
L 414.72 228.985784 
" style="fill:none;stroke:#b0b0b0;stroke-linecap:square;stroke-width:0.8;"/>
     </g>
     <g id="line2d_18">
      <g>
       <use style="stroke:#000000;stroke-width:0.8;" x="57.6" xlink:href="#m37e92150e5" y="228.985784"/>
      </g>
     </g>
     <g id="text_10">
      <!-- 100 -->
      <g transform="translate(31.5125 232.785002)scale(0.1 -0.1)">
       <use xlink:href="#DejaVuSans-31"/>
       <use x="63.623047" xlink:href="#DejaVuSans-30"/>
       <use x="127.246094" xlink:href="#DejaVuSans-30"/>
      </g>
     </g>
    </g>
    <g id="ytick_4">
     <g id="line2d_19">
      <path clip-path="url(#p599a55374c)" d="M 57.6 195.413388 
L 414.72 195.413388 
" style="fill:none;stroke:#b0b0b0;stroke-linecap:square;stroke-width:0.8;"/>
     </g>
     <g id="line2d_20">
      <g>
       <use style="stroke:#000000;stroke-width:0.8;" x="57.6" xlink:href="#m37e92150e5" y="195.413388"/>
      </g>
     </g>
     <g id="text_11">
      <!-- 150 -->
      <g transform="translate(31.5125 199.212606)scale(0.1 -0.1)">
       <use xlink:href="#DejaVuSans-31"/>
       <use x="63.623047" xlink:href="#DejaVuSans-35"/>
       <use x="127.246094" xlink:href="#DejaVuSans-30"/>
      </g>
     </g>
    </g>
    <g id="ytick_5">
     <g id="line2d_21">
      <path clip-path="url(#p599a55374c)" d="M 57.6 161.840992 
L 414.72 161.840992 
" style="fill:none;stroke:#b0b0b0;stroke-linecap:square;stroke-width:0.8;"/>
     </g>
     <g id="line2d_22">
      <g>
       <use style="stroke:#000000;stroke-width:0.8;" x="57.6" xlink:href="#m37e92150e5" y="161.840992"/>
      </g>
     </g>
     <g id="text_12">
      <!-- 200 -->
      <g transform="translate(31.5125 165.64021)scale(0.1 -0.1)">
       <use xlink:href="#DejaVuSans-32"/>
       <use x="63.623047" xlink:href="#DejaVuSans-30"/>
       <use x="127.246094" xlink:href="#DejaVuSans-30"/>
      </g>
     </g>
    </g>
    <g id="ytick_6">
     <g id="line2d_23">
      <path clip-path="url(#p599a55374c)" d="M 57.6 128.268596 
L 414.72 128.268596 
" style="fill:none;stroke:#b0b0b0;stroke-linecap:square;stroke-width:0.8;"/>
     </g>
     <g id="line2d_24">
      <g>
       <use style="stroke:#000000;stroke-width:0.8;" x="57.6" xlink:href="#m37e92150e5" y="128.268596"/>
      </g>
     </g>
     <g id="text_13">
      <!-- 250 -->
      <g transform="translate(31.5125 132.067814)scale(0.1 -0.1)">
       <use xlink:href="#DejaVuSans-32"/>
       <use x="63.623047" xlink:href="#DejaVuSans-35"/>
       <use x="127.246094" xlink:href="#DejaVuSans-30"/>
      </g>
     </g>
    </g>
    <g id="ytick_7">
     <g id="line2d_25">
      <path clip-path="url(#p599a55374c)" d="M 57.6 94.696199 
L 414.72 94.696199 
" style="fill:none;stroke:#b0b0b0;stroke-linecap:square;stroke-width:0.8;"/>
     </g>
     <g id="line2d_26">
      <g>
       <use style="stroke:#000000;stroke-width:0.8;" x="57.6" xlink:href="#m37e92150e5" y="94.696199"/>
      </g>
     </g>
     <g id="text_14">
      <!-- 300 -->
      <defs>
       <path d="M 40.578125 39.3125 
Q 47.65625 37.796875 51.625 33 
Q 55.609375 28.21875 55.609375 21.1875 
Q 55.609375 10.40625 48.1875 4.484375 
Q 40.765625 -1.421875 27.09375 -1.421875 
Q 22.515625 -1.421875 17.65625 -0.515625 
Q 12.796875 0.390625 7.625 2.203125 
L 7.625 11.71875 
Q 11.71875 9.328125 16.59375 8.109375 
Q 21.484375 6.890625 26.8125 6.890625 
Q 36.078125 6.890625 40.9375 10.546875 
Q 45.796875 14.203125 45.796875 21.1875 
Q 45.796875 27.640625 41.28125 31.265625 
Q 36.765625 34.90625 28.71875 34.90625 
L 20.21875 34.90625 
L 20.21875 43.015625 
L 29.109375 43.015625 
Q 36.375 43.015625 40.234375 45.921875 
Q 44.09375 48.828125 44.09375 54.296875 
Q 44.09375 59.90625 40.109375 62.90625 
Q 36.140625 65.921875 28.71875 65.921875 
Q 24.65625 65.921875 20.015625 65.03125 
Q 15.375 64.15625 9.8125 62.3125 
L 9.8125 71.09375 
Q 15.4375 72.65625 20.34375 73.4375 
Q 25.25 74.21875 29.59375 74.21875 
Q 40.828125 74.21875 47.359375 69.109375 
Q 53.90625 64.015625 53.90625 55.328125 
Q 53.90625 49.265625 50.4375 45.09375 
Q 46.96875 40.921875 40.578125 39.3125 
" id="DejaVuSans-33"/>
      </defs>
      <g transform="translate(31.5125 98.495418)scale(0.1 -0.1)">
       <use xlink:href="#DejaVuSans-33"/>
       <use x="63.623047" xlink:href="#DejaVuSans-30"/>
       <use x="127.246094" xlink:href="#DejaVuSans-30"/>
      </g>
     </g>
    </g>
    <g id="ytick_8">
     <g id="line2d_27">
      <path clip-path="url(#p599a55374c)" d="M 57.6 61.123803 
L 414.72 61.123803 
" style="fill:none;stroke:#b0b0b0;stroke-linecap:square;stroke-width:0.8;"/>
     </g>
     <g id="line2d_28">
      <g>
       <use style="stroke:#000000;stroke-width:0.8;" x="57.6" xlink:href="#m37e92150e5" y="61.123803"/>
      </g>
     </g>
     <g id="text_15">
      <!-- 350 -->
      <g transform="translate(31.5125 64.923022)scale(0.1 -0.1)">
       <use xlink:href="#DejaVuSans-33"/>
       <use x="63.623047" xlink:href="#DejaVuSans-35"/>
       <use x="127.246094" xlink:href="#DejaVuSans-30"/>
      </g>
     </g>
    </g>
    <g id="text_16">
     <!-- Successful download requests per second -->
     <defs>
      <path d="M 53.515625 70.515625 
L 53.515625 60.890625 
Q 47.90625 63.578125 42.921875 64.890625 
Q 37.9375 66.21875 33.296875 66.21875 
Q 25.25 66.21875 20.875 63.09375 
Q 16.5 59.96875 16.5 54.203125 
Q 16.5 49.359375 19.40625 46.890625 
Q 22.3125 44.4375 30.421875 42.921875 
L 36.375 41.703125 
Q 47.40625 39.59375 52.65625 34.296875 
Q 57.90625 29 57.90625 20.125 
Q 57.90625 9.515625 50.796875 4.046875 
Q 43.703125 -1.421875 29.984375 -1.421875 
Q 24.8125 -1.421875 18.96875 -0.25 
Q 13.140625 0.921875 6.890625 3.21875 
L 6.890625 13.375 
Q 12.890625 10.015625 18.65625 8.296875 
Q 24.421875 6.59375 29.984375 6.59375 
Q 38.421875 6.59375 43.015625 9.90625 
Q 47.609375 13.234375 47.609375 19.390625 
Q 47.609375 24.75 44.3125 27.78125 
Q 41.015625 30.8125 33.5 32.328125 
L 27.484375 33.5 
Q 16.453125 35.6875 11.515625 40.375 
Q 6.59375 45.0625 6.59375 53.421875 
Q 6.59375 63.09375 13.40625 68.65625 
Q 20.21875 74.21875 32.171875 74.21875 
Q 37.3125 74.21875 42.625 73.28125 
Q 47.953125 72.359375 53.515625 70.515625 
" id="DejaVuSans-53"/>
      <path d="M 45.40625 46.390625 
L 45.40625 75.984375 
L 54.390625 75.984375 
L 54.390625 0 
L 45.40625 0 
L 45.40625 8.203125 
Q 42.578125 3.328125 38.25 0.953125 
Q 33.9375 -1.421875 27.875 -1.421875 
Q 17.96875 -1.421875 11.734375 6.484375 
Q 5.515625 14.40625 5.515625 27.296875 
Q 5.515625 40.1875 11.734375 48.09375 
Q 17.96875 56 27.875 56 
Q 33.9375 56 38.25 53.625 
Q 42.578125 51.265625 45.40625 46.390625 
M 14.796875 27.296875 
Q 14.796875 17.390625 18.875 11.75 
Q 22.953125 6.109375 30.078125 6.109375 
Q 37.203125 6.109375 41.296875 11.75 
Q 45.40625 17.390625 45.40625 27.296875 
Q 45.40625 37.203125 41.296875 42.84375 
Q 37.203125 48.484375 30.078125 48.484375 
Q 22.953125 48.484375 18.875 42.84375 
Q 14.796875 37.203125 14.796875 27.296875 
" id="DejaVuSans-64"/>
      <path d="M 4.203125 54.6875 
L 13.1875 54.6875 
L 24.421875 12.015625 
L 35.59375 54.6875 
L 46.1875 54.6875 
L 57.421875 12.015625 
L 68.609375 54.6875 
L 77.59375 54.6875 
L 63.28125 0 
L 52.6875 0 
L 40.921875 44.828125 
L 29.109375 0 
L 18.5 0 
z
" id="DejaVuSans-77"/>
      <path d="M 34.28125 27.484375 
Q 23.390625 27.484375 19.1875 25 
Q 14.984375 22.515625 14.984375 16.5 
Q 14.984375 11.71875 18.140625 8.90625 
Q 21.296875 6.109375 26.703125 6.109375 
Q 34.1875 6.109375 38.703125 11.40625 
Q 43.21875 16.703125 43.21875 25.484375 
L 43.21875 27.484375 
z
M 52.203125 31.203125 
L 52.203125 0 
L 43.21875 0 
L 43.21875 8.296875 
Q 40.140625 3.328125 35.546875 0.953125 
Q 30.953125 -1.421875 24.3125 -1.421875 
Q 15.921875 -1.421875 10.953125 3.296875 
Q 6 8.015625 6 15.921875 
Q 6 25.140625 12.171875 29.828125 
Q 18.359375 34.515625 30.609375 34.515625 
L 43.21875 34.515625 
L 43.21875 35.40625 
Q 43.21875 41.609375 39.140625 45 
Q 35.0625 48.390625 27.6875 48.390625 
Q 23 48.390625 18.546875 47.265625 
Q 14.109375 46.140625 10.015625 43.890625 
L 10.015625 52.203125 
Q 14.9375 54.109375 19.578125 55.046875 
Q 24.21875 56 28.609375 56 
Q 40.484375 56 46.34375 49.84375 
Q 52.203125 43.703125 52.203125 31.203125 
" id="DejaVuSans-61"/>
      <path d="M 14.796875 27.296875 
Q 14.796875 17.390625 18.875 11.75 
Q 22.953125 6.109375 30.078125 6.109375 
Q 37.203125 6.109375 41.296875 11.75 
Q 45.40625 17.390625 45.40625 27.296875 
Q 45.40625 37.203125 41.296875 42.84375 
Q 37.203125 48.484375 30.078125 48.484375 
Q 22.953125 48.484375 18.875 42.84375 
Q 14.796875 37.203125 14.796875 27.296875 
M 45.40625 8.203125 
Q 42.578125 3.328125 38.25 0.953125 
Q 33.9375 -1.421875 27.875 -1.421875 
Q 17.96875 -1.421875 11.734375 6.484375 
Q 5.515625 14.40625 5.515625 27.296875 
Q 5.515625 40.1875 11.734375 48.09375 
Q 17.96875 56 27.875 56 
Q 33.9375 56 38.25 53.625 
Q 42.578125 51.265625 45.40625 46.390625 
L 45.40625 54.6875 
L 54.390625 54.6875 
L 54.390625 -20.796875 
L 45.40625 -20.796875 
z
" id="DejaVuSans-71"/>
      <path d="M 18.109375 8.203125 
L 18.109375 -20.796875 
L 9.078125 -20.796875 
L 9.078125 54.6875 
L 18.109375 54.6875 
L 18.109375 46.390625 
Q 20.953125 51.265625 25.265625 53.625 
Q 29.59375 56 35.59375 56 
Q 45.5625 56 51.78125 48.09375 
Q 58.015625 40.1875 58.015625 27.296875 
Q 58.015625 14.40625 51.78125 6.484375 
Q 45.5625 -1.421875 35.59375 -1.421875 
Q 29.59375 -1.421875 25.265625 0.953125 
Q 20.953125 3.328125 18.109375 8.203125 
M 48.6875 27.296875 
Q 48.6875 37.203125 44.609375 42.84375 
Q 40.53125 48.484375 33.40625 48.484375 
Q 26.265625 48.484375 22.1875 42.84375 
Q 18.109375 37.203125 18.109375 27.296875 
Q 18.109375 17.390625 22.1875 11.75 
Q 26.265625 6.109375 33.40625 6.109375 
Q 40.53125 6.109375 44.609375 11.75 
Q 48.6875 17.390625 48.6875 27.296875 
" id="DejaVuSans-70"/>
     </defs>
     <g transform="translate(25.432812 279.366281)rotate(-90)scale(0.1 -0.1)">
      <use xlink:href="#DejaVuSans-53"/>
      <use x="63.476562" xlink:href="#DejaVuSans-75"/>
      <use x="126.855469" xlink:href="#DejaVuSans-63"/>
      <use x="181.835938" xlink:href="#DejaVuSans-63"/>
      <use x="236.816406" xlink:href="#DejaVuSans-65"/>
      <use x="298.339844" xlink:href="#DejaVuSans-73"/>
      <use x="350.439453" xlink:href="#DejaVuSans-73"/>
      <use x="402.539062" xlink:href="#DejaVuSans-66"/>
      <use x="437.744141" xlink:href="#DejaVuSans-75"/>
      <use x="501.123047" xlink:href="#DejaVuSans-6c"/>
      <use x="528.90625" xlink:href="#DejaVuSans-20"/>
      <use x="560.693359" xlink:href="#DejaVuSans-64"/>
      <use x="624.169922" xlink:href="#DejaVuSans-6f"/>
      <use x="685.351562" xlink:href="#DejaVuSans-77"/>
      <use x="767.138672" xlink:href="#DejaVuSans-6e"/>
      <use x="830.517578" xlink:href="#DejaVuSans-6c"/>
      <use x="858.300781" xlink:href="#DejaVuSans-6f"/>
      <use x="919.482422" xlink:href="#DejaVuSans-61"/>
      <use x="980.761719" xlink:href="#DejaVuSans-64"/>
      <use x="1044.238281" xlink:href="#DejaVuSans-20"/>
      <use x="1076.025391" xlink:href="#DejaVuSans-72"/>
      <use x="1117.107422" xlink:href="#DejaVuSans-65"/>
      <use x="1178.630859" xlink:href="#DejaVuSans-71"/>
      <use x="1242.107422" xlink:href="#DejaVuSans-75"/>
      <use x="1305.486328" xlink:href="#DejaVuSans-65"/>
      <use x="1367.009766" xlink:href="#DejaVuSans-73"/>
      <use x="1419.109375" xlink:href="#DejaVuSans-74"/>
      <use x="1458.318359" xlink:href="#DejaVuSans-73"/>
      <use x="1510.417969" xlink:href="#DejaVuSans-20"/>
      <use x="1542.205078" xlink:href="#DejaVuSans-70"/>
      <use x="1605.681641" xlink:href="#DejaVuSans-65"/>
      <use x="1667.205078" xlink:href="#DejaVuSans-72"/>
      <use x="1708.318359" xlink:href="#DejaVuSans-20"/>
      <use x="1740.105469" xlink:href="#DejaVuSans-73"/>
      <use x="1792.205078" xlink:href="#DejaVuSans-65"/>
      <use x="1853.728516" xlink:href="#DejaVuSans-63"/>
      <use x="1908.708984" xlink:href="#DejaVuSans-6f"/>
      <use x="1969.890625" xlink:href="#DejaVuSans-6e"/>
      <use x="2033.269531" xlink:href="#DejaVuSans-64"/>
     </g>
    </g>
   </g>
   <g id="line2d_29">
    <path clip-path="url(#p599a55374c)" d="M 57.6 295.479271 
L 57.95712 295.488 
L 59.02848 293.480371 
L 59.74272 292.379868 
L 60.09984 291.488856 
L 61.1712 289.870667 
L 61.88544 288.104759 
L 62.24256 287.967783 
L 63.67104 285.26722 
L 64.02816 284.078085 
L 64.38528 283.428124 
L 64.7424 283.526827 
L 65.09952 282.784205 
L 65.45664 281.709217 
L 66.17088 281.064627 
L 66.528 279.404137 
L 66.88512 279.860721 
L 67.24224 278.016925 
L 67.59936 277.79199 
L 67.95648 277.213202 
L 68.3136 276.022053 
L 69.02784 274.919536 
L 69.38496 274.920207 
L 69.74208 273.434293 
L 70.0992 274.227273 
L 70.45632 272.827976 
L 70.81344 272.733973 
L 71.17056 271.29976 
L 71.52768 271.318561 
L 71.8848 269.383448 
L 72.24192 270.406734 
L 72.59904 268.047938 
L 72.95616 268.462893 
L 73.31328 268.049281 
L 73.6704 267.02398 
L 74.02752 267.032037 
L 74.74176 264.848488 
L 75.09888 265.198984 
L 75.456 264.31133 
L 75.81312 263.931291 
L 76.17024 261.516092 
L 76.52736 262.975149 
L 76.88448 260.126195 
L 77.2416 260.038236 
L 77.59872 260.366574 
L 78.31296 258.781285 
L 78.67008 256.781042 
L 79.0272 257.437046 
L 79.38432 257.589465 
L 79.74144 255.033934 
L 80.09856 254.110693 
L 80.45568 254.653223 
L 80.8128 254.453803 
L 81.16992 253.412388 
L 81.52704 253.483561 
L 81.88416 251.743839 
L 82.24128 252.180952 
L 82.5984 249.704652 
L 82.95552 249.048647 
L 83.31264 248.050204 
L 83.66976 249.853042 
L 84.02688 249.894 
L 84.384 247.31564 
L 84.74112 246.543475 
L 85.09824 244.837998 
L 85.45536 244.684907 
L 85.81248 246.461559 
L 86.1696 242.722937 
L 86.52672 245.101205 
L 86.88384 243.912071 
L 87.24096 243.232566 
L 87.59808 243.408485 
L 87.9552 239.824296 
L 88.31232 240.002901 
L 88.66944 238.761394 
L 89.02656 240.612576 
L 89.38368 239.789381 
L 89.7408 235.780837 
L 90.09792 237.047859 
L 90.45504 236.489214 
L 90.81216 237.174091 
L 91.16928 233.076244 
L 91.88352 235.367225 
L 92.24064 235.208091 
L 92.59776 231.826008 
L 93.312 229.117387 
L 93.66912 230.066143 
L 94.02624 227.839622 
L 94.38336 227.116473 
L 94.74048 227.639531 
L 95.0976 227.424667 
L 95.45472 229.665289 
L 95.81184 225.422409 
L 96.16896 227.761734 
L 96.52608 227.266877 
L 96.8832 223.563842 
L 97.24032 224.933595 
L 97.59744 221.686473 
L 97.95456 222.057113 
L 98.31168 220.362378 
L 98.6688 220.72496 
L 99.38304 222.729232 
L 99.74016 217.054825 
L 100.4544 219.634528 
L 100.81152 215.61927 
L 101.16864 218.881835 
L 101.52576 216.918522 
L 101.88288 218.396378 
L 102.24 213.944679 
L 102.59712 214.951179 
L 102.95424 213.059039 
L 103.31136 213.903049 
L 103.66848 215.455437 
L 104.38272 212.893191 
L 104.73984 210.185913 
L 105.09696 211.747701 
L 105.45408 206.39559 
L 105.8112 210.390033 
L 106.52544 210.407491 
L 107.23968 203.97502 
L 107.5968 207.648512 
L 107.95392 202.775143 
L 108.31104 201.906289 
L 108.66816 204.643782 
L 109.02528 202.068108 
L 109.3824 205.462949 
L 110.09664 200.357259 
L 110.45376 201.987534 
L 110.81088 200.609052 
L 111.168 200.461333 
L 111.52512 201.349659 
L 111.88224 200.10748 
L 112.23936 194.535134 
L 112.59648 193.009604 
L 112.9536 194.073849 
L 113.31072 197.360587 
L 113.66784 196.697867 
L 114.02496 190.517189 
L 114.38208 189.781282 
L 114.7392 190.977803 
L 115.09632 194.565349 
L 115.45344 192.663137 
L 115.81056 187.787754 
L 116.16768 187.292896 
L 116.5248 192.057491 
L 116.88192 187.853555 
L 117.23904 185.435 
L 117.59616 186.509317 
L 117.95328 190.03509 
L 118.3104 186.331383 
L 118.66752 188.578719 
L 119.02464 180.965171 
L 119.73888 179.42957 
L 120.096 181.958243 
L 120.45312 183.034574 
L 120.81024 185.046232 
L 121.52448 176.000485 
L 121.8816 176.632318 
L 122.23872 176.651118 
L 122.59584 182.777409 
L 122.95296 181.700407 
L 123.31008 179.201949 
L 123.6672 175.169233 
L 124.02432 177.205734 
L 124.38144 174.332609 
L 124.73856 176.700805 
L 125.09568 181.218307 
L 126.16704 174.981227 
L 126.52416 174.571644 
L 126.88128 179.92577 
L 127.2384 171.325193 
L 127.95264 178.069216 
L 128.30976 170.833022 
L 128.66688 171.456126 
L 129.024 170.452983 
L 129.38112 172.459269 
L 129.73824 169.953425 
L 130.09536 176.949913 
L 130.45248 175.537858 
L 130.8096 172.992399 
L 131.16672 172.135631 
L 131.52384 173.589987 
L 131.88096 173.455698 
L 132.23808 175.229663 
L 132.5952 171.072058 
L 132.95232 171.617945 
L 133.30944 167.03867 
L 133.66656 167.245476 
L 134.02368 166.294706 
L 134.3808 167.602686 
L 134.73792 166.184588 
L 135.09504 166.059027 
L 135.45216 168.999969 
L 135.80928 165.045141 
L 136.1664 171.993284 
L 136.52352 164.029912 
L 136.88064 164.566399 
L 137.23776 168.073371 
L 137.59488 163.945981 
L 137.952 167.048742 
L 138.30912 169.155074 
L 138.66624 167.38178 
L 139.02336 162.664187 
L 139.38048 162.831377 
L 139.7376 163.614285 
L 140.09472 168.943568 
L 140.45184 168.987212 
L 140.80896 164.254847 
L 141.16608 164.483139 
L 141.5232 166.986968 
L 141.88032 167.796063 
L 142.23744 159.947508 
L 142.59456 166.518969 
L 142.95168 161.336063 
L 143.3088 161.023168 
L 143.66592 160.258389 
L 144.02304 161.661043 
L 144.38016 159.825976 
L 144.73728 162.832049 
L 145.0944 161.072855 
L 145.45152 165.938838 
L 145.80864 157.891535 
L 146.16576 164.184345 
L 146.52288 166.080514 
L 146.88 157.016638 
L 147.23712 165.734718 
L 147.59424 159.70243 
L 147.95136 164.242761 
L 148.30848 161.782576 
L 148.6656 155.312503 
L 149.02272 161.511982 
L 149.37984 164.271633 
L 149.73696 160.016668 
L 150.09408 158.844991 
L 150.4512 155.205072 
L 150.80832 160.238917 
L 151.16544 162.906579 
L 151.52256 162.916651 
L 151.87968 153.509666 
L 152.2368 156.353248 
L 152.59392 156.647342 
L 152.95104 153.172599 
L 153.30816 159.02561 
L 153.66528 161.276975 
L 154.0224 157.937865 
L 154.37952 158.759046 
L 154.73664 160.294647 
L 155.09376 151.874019 
L 155.45088 155.023109 
L 155.808 152.457507 
L 156.16512 153.171256 
L 156.52224 157.24023 
L 156.87936 159.848806 
L 157.23648 151.529566 
L 157.5936 150.043652 
L 157.95072 150.096696 
L 158.66496 158.003667 
L 159.3792 151.02598 
L 160.09344 155.745587 
L 160.45056 157.45778 
L 160.80768 157.667271 
L 161.1648 149.842889 
L 161.52192 151.379833 
L 161.87904 154.761916 
L 162.23616 148.901519 
L 162.59328 155.741559 
L 162.9504 151.61014 
L 163.30752 152.546138 
L 164.02176 155.631441 
L 164.37888 147.055708 
L 164.736 149.231871 
L 165.09312 154.476551 
L 165.45024 152.917449 
L 165.80736 149.687784 
L 166.16448 149.810659 
L 166.5216 144.269199 
L 166.87872 153.186028 
L 167.23584 146.599124 
L 167.95008 143.270085 
L 168.3072 150.126911 
L 169.02144 147.380689 
L 169.37856 152.195642 
L 169.73568 149.68107 
L 170.0928 146.123739 
L 170.44992 144.168482 
L 171.16416 145.808158 
L 171.52128 148.516779 
L 171.8784 146.786458 
L 172.23552 149.799245 
L 172.59264 141.168453 
L 172.94976 148.418076 
L 173.664 144.604252 
L 174.02112 147.59421 
L 174.37824 139.885316 
L 174.73536 149.767015 
L 175.09248 149.093553 
L 175.4496 140.764241 
L 175.80672 140.619209 
L 176.16384 140.949561 
L 176.87808 146.133139 
L 177.2352 138.161038 
L 177.59232 138.149623 
L 177.94944 143.073351 
L 178.30656 145.105824 
L 178.66368 141.830501 
L 179.0208 147.281986 
L 179.73504 136.847014 
L 180.09216 144.207426 
L 180.44928 144.838587 
L 180.8064 141.845944 
L 181.16352 141.353773 
L 181.52064 140.027663 
L 181.87776 136.908787 
L 182.23488 138.316814 
L 182.592 142.24747 
L 183.30624 135.005232 
L 183.66336 138.88083 
L 184.02048 138.98759 
L 184.3776 143.185483 
L 184.73472 136.667738 
L 185.09184 144.712355 
L 185.44896 137.521819 
L 185.80608 136.20511 
L 186.1632 140.325114 
L 186.52032 132.888829 
L 186.87744 140.67091 
L 187.23456 139.400531 
L 187.59168 138.839872 
L 187.9488 133.933602 
L 188.30592 136.669752 
L 188.66304 133.317884 
L 189.02016 136.902744 
L 189.37728 135.427573 
L 189.7344 132.226781 
L 190.09152 132.978131 
L 190.44864 131.727224 
L 190.80576 136.100364 
L 191.16288 135.304698 
L 191.52 139.844358 
L 191.87712 131.067862 
L 192.23424 140.030349 
L 192.59136 138.970132 
L 192.94848 134.22971 
L 193.3056 134.833342 
L 193.66272 139.665081 
L 194.01984 138.801599 
L 194.37696 136.540834 
L 194.73408 137.986461 
L 195.0912 128.833283 
L 195.44832 131.404929 
L 195.80544 128.598948 
L 196.16256 131.991103 
L 196.51968 139.051378 
L 196.8768 131.093377 
L 197.23392 127.756952 
L 197.59104 138.201325 
L 197.94816 134.748739 
L 198.30528 133.544162 
L 198.6624 136.460932 
L 199.01952 136.791955 
L 199.37664 133.694566 
L 199.73376 127.515902 
L 200.09088 131.014146 
L 200.448 128.547918 
L 200.80512 131.649336 
L 201.16224 136.350143 
L 201.51936 132.002517 
L 201.87648 135.034776 
L 202.2336 132.767297 
L 202.59072 125.399499 
L 202.94784 134.909887 
L 203.30496 126.567146 
L 203.66208 125.513645 
L 204.0192 133.003646 
L 204.37632 133.646893 
L 204.73344 130.882542 
L 205.09056 126.09109 
L 205.44768 126.853183 
L 205.8048 124.826753 
L 206.16192 133.009018 
L 206.51904 126.927043 
L 206.87616 125.322282 
L 207.23328 126.15152 
L 207.5904 126.433528 
L 207.94752 130.305097 
L 208.30464 128.736595 
L 208.66176 129.439601 
L 209.01888 132.079062 
L 209.376 128.904457 
L 209.73312 132.285197 
L 210.09024 124.282209 
L 210.44736 124.840182 
L 210.80448 131.684251 
L 211.1616 125.81311 
L 211.51872 127.090876 
L 212.23296 121.074702 
L 212.59008 124.997301 
L 212.9472 124.4635 
L 213.30432 130.156036 
L 213.66144 125.821839 
L 214.01856 124.966415 
L 214.7328 119.535072 
L 215.08992 122.864783 
L 215.44704 130.322555 
L 215.80416 128.447201 
L 216.16128 129.737724 
L 216.5184 122.528387 
L 216.87552 119.955399 
L 217.23264 125.721794 
L 217.58976 119.366539 
L 217.94688 121.421841 
L 218.304 127.156678 
L 218.66112 124.74148 
L 219.01824 119.344381 
L 219.37536 117.032586 
L 220.0896 117.21052 
L 220.44672 124.842868 
L 220.80384 120.143404 
L 221.16096 120.086331 
L 221.51808 122.533087 
L 221.8752 121.339253 
L 222.23232 125.933971 
L 222.58944 125.122191 
L 222.94656 126.645706 
L 223.30368 118.961656 
L 223.6608 120.941084 
L 224.01792 123.929028 
L 224.37504 120.618789 
L 224.73216 123.931713 
L 225.08928 117.260207 
L 225.4464 121.560159 
L 225.80352 120.602675 
L 226.16064 113.643788 
L 226.51776 123.382469 
L 226.87488 121.912669 
L 227.232 113.181161 
L 227.94624 121.576274 
L 228.30336 117.568401 
L 228.66048 121.288894 
L 229.37472 112.816565 
L 229.73184 118.311694 
L 230.08896 117.695977 
L 230.44608 111.818121 
L 230.8032 116.461855 
L 231.16032 118.213663 
L 231.51744 123.376426 
L 231.87456 115.709162 
L 232.23168 110.846536 
L 232.5888 115.511085 
L 232.94592 116.439026 
L 233.30304 122.834567 
L 233.66016 110.240219 
L 234.01728 117.372339 
L 234.3744 118.62056 
L 234.73152 113.83918 
L 235.08864 121.803223 
L 235.44576 119.711663 
L 235.80288 113.271806 
L 236.16 121.426541 
L 236.51712 111.727476 
L 236.87424 110.094515 
L 237.58848 120.541573 
L 237.9456 114.060758 
L 238.30272 117.902111 
L 238.65984 118.680319 
L 239.01696 113.17176 
L 239.37408 116.614274 
L 239.7312 115.057858 
L 240.08832 117.542886 
L 240.44544 116.937912 
L 240.80256 119.085202 
L 241.15968 110.188517 
L 241.5168 113.819708 
L 241.87392 118.9959 
L 242.23104 117.329366 
L 242.58816 110.610858 
L 242.94528 115.957598 
L 243.3024 114.898053 
L 243.65952 112.971669 
L 244.01664 112.361994 
L 244.37376 117.342123 
L 244.73088 111.863108 
L 245.088 117.171576 
L 245.44512 117.875253 
L 245.80224 116.587416 
L 246.15936 116.194619 
L 246.51648 113.978841 
L 246.8736 108.930224 
L 247.23072 111.873852 
L 247.58784 109.678217 
L 247.94496 108.379637 
L 248.30208 108.748262 
L 248.6592 105.630729 
L 249.01632 116.319508 
L 249.37344 111.639516 
L 249.73056 115.966998 
L 250.08768 116.5337 
L 250.4448 108.884565 
L 251.15904 103.541854 
L 251.51616 103.073184 
L 251.87328 105.708617 
L 252.2304 113.39401 
L 252.58752 105.737489 
L 252.94464 106.86015 
L 253.30176 113.627002 
L 253.65888 106.281362 
L 254.016 114.0386 
L 254.37312 113.700861 
L 254.73024 101.49931 
L 255.08736 108.916795 
L 255.44448 105.106999 
L 255.8016 112.989127 
L 256.15872 102.873092 
L 256.51584 101.953209 
L 256.87296 102.072726 
L 257.23008 109.854136 
L 257.5872 109.541242 
L 257.94432 111.109072 
L 258.30144 107.720946 
L 258.65856 107.722961 
L 259.01568 113.021356 
L 259.3728 109.270648 
L 259.72992 99.399692 
L 260.08704 109.307578 
L 260.44416 109.658073 
L 260.80128 106.185345 
L 261.1584 99.020324 
L 261.51552 103.179944 
L 261.87264 111.067443 
L 262.22976 99.323147 
L 262.58688 107.80152 
L 263.30112 97.980251 
L 263.65824 104.269032 
L 264.01536 100.662686 
L 264.37248 100.596884 
L 264.7296 110.532299 
L 265.08672 111.085572 
L 265.44384 104.327448 
L 265.80096 109.394194 
L 266.15808 104.634972 
L 266.5152 110.26842 
L 266.87232 97.038881 
L 267.22944 99.167371 
L 267.58656 96.864976 
L 267.94368 107.982139 
L 268.3008 106.803748 
L 268.65792 100.91515 
L 269.01504 98.678557 
L 269.37216 98.011809 
L 269.72928 105.771061 
L 270.0864 109.113529 
L 270.44352 108.074128 
L 270.80064 105.456824 
L 271.15776 97.598197 
L 271.51488 105.624014 
L 271.872 99.955651 
L 272.22912 105.158701 
L 272.58624 107.079042 
L 272.94336 104.438237 
L 273.30048 96.33789 
L 273.6576 96.601769 
L 274.01472 103.038268 
L 274.37184 104.030668 
L 274.72896 104.683987 
L 275.08608 98.061496 
L 275.4432 102.658229 
L 275.80032 96.311032 
L 276.15744 98.539567 
L 276.51456 92.992065 
L 276.87168 95.76313 
L 277.2288 93.269373 
L 277.58592 95.232686 
L 277.94304 103.315576 
L 278.30016 103.961509 
L 278.65728 96.856247 
L 279.0144 104.814248 
L 279.37152 93.983793 
L 279.72864 105.741518 
L 280.08576 92.894705 
L 280.44288 92.965207 
L 280.8 92.86449 
L 281.15712 101.640985 
L 281.51424 94.959407 
L 281.87136 104.94048 
L 282.22848 97.506209 
L 282.5856 98.430121 
L 282.94272 91.486007 
L 283.29984 96.582968 
L 283.65696 97.43705 
L 284.01408 95.323332 
L 284.3712 100.072483 
L 284.72832 102.100256 
L 285.08544 100.563983 
L 285.44256 99.893206 
L 285.79968 101.057497 
L 286.1568 91.44572 
L 286.51392 97.138256 
L 286.87104 93.176713 
L 287.22816 96.993894 
L 287.58528 94.985594 
L 287.9424 93.701114 
L 288.29952 90.788373 
L 288.65664 93.568838 
L 289.01376 93.125011 
L 289.37088 96.200914 
L 289.728 90.533222 
L 290.08512 89.388404 
L 290.44224 94.844589 
L 290.79936 90.799787 
L 291.15648 98.175643 
L 291.5136 101.910236 
L 291.87072 88.132796 
L 292.22784 96.749487 
L 292.58496 95.518052 
L 292.94208 88.884146 
L 293.2992 95.115854 
L 293.65632 89.105053 
L 294.01344 100.403507 
L 294.37056 100.183943 
L 294.72768 94.150984 
L 295.0848 95.57311 
L 295.44192 90.251214 
L 295.79904 99.041139 
L 296.15616 97.379305 
L 296.51328 88.103924 
L 296.8704 94.507523 
L 297.22752 96.526567 
L 297.58464 93.474164 
L 297.94176 88.101238 
L 298.29888 97.94735 
L 298.656 89.246728 
L 299.01312 91.136854 
L 299.37024 95.129283 
L 299.72736 87.404947 
L 300.08448 89.608639 
L 300.79872 96.708529 
L 301.15584 94.294002 
L 301.51296 84.231684 
L 301.87008 93.452006 
L 302.2272 94.702914 
L 302.58432 95.405248 
L 302.94144 94.516251 
L 303.29856 86.674411 
L 303.65568 92.200428 
L 304.0128 94.61764 
L 304.36992 93.16127 
L 304.72704 85.763928 
L 305.08416 88.406747 
L 305.44128 83.493762 
L 305.7984 85.749827 
L 306.15552 86.049965 
L 306.51264 94.670013 
L 306.86976 94.721715 
L 307.22688 93.784373 
L 307.584 82.728983 
L 307.94112 89.777843 
L 308.29824 87.111524 
L 308.65536 94.637112 
L 309.01248 81.921231 
L 309.3696 83.921475 
L 309.72672 94.420906 
L 310.08384 95.708071 
L 310.44096 93.835403 
L 310.79808 86.989992 
L 311.1552 92.421334 
L 311.51232 89.383704 
L 311.86944 89.99405 
L 312.22656 89.428019 
L 312.9408 84.923946 
L 313.29792 87.968963 
L 313.65504 95.056767 
L 314.01216 86.18224 
L 314.36928 85.613523 
L 314.7264 82.907588 
L 315.08352 87.613767 
L 315.44064 80.537377 
L 315.79776 83.289642 
L 316.15488 83.523978 
L 316.512 86.722084 
L 316.86912 81.743969 
L 317.22624 79.559749 
L 317.58336 90.098124 
L 317.94048 89.774486 
L 318.2976 91.980193 
L 318.65472 80.772384 
L 319.01184 84.3183 
L 319.36896 78.803027 
L 319.72608 88.276486 
L 320.0832 89.464949 
L 320.44032 89.49315 
L 320.79744 83.35813 
L 321.15456 91.171769 
L 321.51168 88.659883 
L 321.8688 79.099807 
L 322.22592 86.158068 
L 322.58304 83.364173 
L 322.94016 77.100907 
L 323.29728 83.08015 
L 323.6544 80.587736 
L 324.01152 84.270628 
L 324.36864 78.964175 
L 324.72576 82.542992 
L 325.08288 89.434062 
L 325.44 77.054577 
L 325.79712 86.538779 
L 326.15424 89.960477 
L 326.51136 79.521476 
L 326.86848 89.624082 
L 327.2256 86.430004 
L 327.58272 84.376045 
L 327.93984 84.638581 
L 328.29696 80.014991 
L 328.65408 87.484849 
L 329.36832 78.73924 
L 329.72544 77.962374 
L 330.08256 85.353673 
L 330.43968 84.502277 
L 330.7968 76.52749 
L 331.15392 88.851917 
L 331.86816 74.54739 
L 332.5824 84.170582 
L 332.93952 80.764327 
L 333.29664 74.272097 
L 333.65376 87.278714 
L 334.01088 77.681709 
L 334.368 82.921689 
L 334.72512 78.41493 
L 335.08224 86.361516 
L 335.43936 82.665196 
L 335.79648 86.34003 
L 336.1536 82.530906 
L 336.51072 74.385571 
L 336.86784 76.998847 
L 337.22496 86.926876 
L 337.58208 72.59952 
L 337.9392 87.895775 
L 338.29632 85.269071 
L 338.65344 72.034832 
L 339.01056 87.008121 
L 339.36768 76.274354 
L 340.08192 85.33353 
L 340.43904 73.326027 
L 340.79616 80.801256 
L 341.15328 74.557462 
L 341.5104 84.182668 
L 341.86752 78.061077 
L 342.22464 77.072706 
L 342.58176 82.455032 
L 342.93888 78.249083 
L 343.296 79.281098 
L 343.65312 78.940003 
L 344.01024 82.153552 
L 344.36736 76.074934 
L 344.72448 81.379373 
L 345.0816 80.184196 
L 345.43872 71.46813 
L 345.79584 76.62015 
L 346.15296 73.345499 
L 346.51008 76.331427 
L 346.8672 83.301728 
L 347.22432 71.885099 
L 347.58144 78.495504 
L 347.93856 82.252255 
L 348.29568 73.092363 
L 348.6528 78.56802 
L 349.00992 78.083906 
L 349.36704 73.493217 
L 349.72416 70.649635 
L 350.08128 83.62268 
L 350.4384 68.493616 
L 350.79552 71.368756 
L 351.15264 78.761397 
L 351.50976 72.371899 
L 351.86688 82.678625 
L 352.224 68.920657 
L 352.58112 69.53436 
L 352.93824 69.700879 
L 353.29536 68.443929 
L 353.65248 82.183096 
L 354.0096 82.404002 
L 354.36672 71.331826 
L 354.72384 79.354286 
L 355.08096 82.86193 
L 355.43808 72.016032 
L 355.7952 81.14168 
L 356.15232 81.010748 
L 356.50944 82.149524 
L 356.86656 74.787097 
L 357.22368 76.58322 
L 357.5808 69.952672 
L 357.93792 81.098708 
L 358.29504 66.188535 
L 358.65216 78.712382 
L 359.00928 69.86337 
L 359.3664 81.224268 
L 359.72352 77.497732 
L 360.08064 66.619605 
L 360.43776 77.461474 
L 360.79488 73.293126 
L 361.152 78.638522 
L 361.50912 67.919528 
L 361.86624 79.057506 
L 362.22336 72.294011 
L 362.58048 77.875758 
L 362.9376 65.697035 
L 363.29472 73.662422 
L 363.65184 77.178123 
L 364.00896 70.57779 
L 364.36608 76.51339 
L 364.7232 66.985544 
L 365.08032 75.132893 
L 365.43744 66.782095 
L 365.79456 79.520805 
L 366.15168 67.490473 
L 366.5088 71.439929 
L 367.58016 78.179924 
L 367.93728 63.434927 
L 368.2944 72.706952 
L 368.65152 68.531888 
L 369.00864 69.525631 
L 369.36576 63.256322 
L 369.72288 75.011361 
L 370.08 66.958014 
L 370.79424 73.692637 
L 371.15136 65.449271 
L 371.50848 76.265626 
L 371.8656 69.653878 
L 372.22272 69.654549 
L 372.57984 62.083974 
L 372.93696 65.262608 
L 373.29408 72.363842 
L 374.36544 63.092489 
L 374.72256 74.575591 
L 375.07968 66.130791 
L 375.4368 61.839567 
L 375.79392 72.712995 
L 376.15104 73.01246 
L 376.50816 64.718064 
L 376.86528 67.699964 
L 377.2224 76.815541 
L 377.57952 72.320869 
L 377.93664 62.132318 
L 378.29376 66.125419 
L 378.65088 63.569217 
L 379.008 72.487388 
L 379.36512 70.493859 
L 379.72224 73.208523 
L 380.07936 62.449913 
L 380.43648 67.36424 
L 380.7936 66.044174 
L 381.15072 66.262394 
L 381.50784 70.406571 
L 381.86496 63.601446 
L 382.22208 63.803552 
L 382.5792 66.841182 
L 383.29344 70.849727 
L 383.65056 59.582159 
L 384.00768 64.018415 
L 384.3648 62.394183 
L 384.72192 64.425313 
L 385.07904 62.999157 
L 385.43616 69.990945 
L 385.79328 64.638162 
L 386.1504 66.791495 
L 386.50752 59.267921 
L 386.86464 70.61942 
L 387.22176 62.841367 
L 387.57888 63.74715 
L 387.936 73.814169 
L 388.29312 62.355239 
L 388.65024 62.477442 
L 389.00736 73.158165 
L 389.36448 68.304268 
L 389.7216 71.756181 
L 390.07872 58.217777 
L 390.79296 57.47247 
L 391.15008 72.247681 
L 391.5072 64.065417 
L 391.86432 62.530487 
L 392.22144 58.227849 
L 392.57856 62.594274 
L 392.93568 60.788751 
L 393.2928 56.884281 
L 393.64992 69.618963 
L 394.00704 65.378769 
L 394.36416 56.261178 
L 394.72128 69.330911 
L 395.0784 58.811337 
L 395.43552 60.467127 
L 395.79264 63.807581 
L 396.14976 57.955912 
L 396.50688 68.82934 
L 396.864 66.042831 
L 397.22112 71.026989 
L 397.57824 55.589058 
L 398.29248 69.545103 
L 398.6496 56.098016 
L 399.00672 59.80508 
L 399.36384 61.892611 
L 399.72096 59.129603 
L 400.07808 66.208007 
L 400.4352 64.105032 
L 400.79232 64.064745 
L 401.14944 65.905184 
L 401.50656 61.648204 
L 401.86368 66.64042 
L 402.2208 62.770865 
L 402.57792 66.716965 
L 402.93504 57.058858 
L 403.29216 61.209749 
L 403.64928 69.234894 
L 404.0064 66.123405 
L 404.36352 57.929054 
L 404.72064 59.027543 
L 405.07776 59.735249 
L 405.43488 56.956798 
L 405.792 59.298808 
L 406.14912 56.091973 
L 406.50624 64.311838 
L 406.86336 58.702562 
L 407.22048 68.549346 
L 407.5776 68.956915 
L 407.93472 62.43917 
L 408.29184 65.660777 
L 408.64896 67.365583 
L 409.00608 66.71495 
L 409.3632 58.820737 
L 409.72032 59.0215 
L 410.07744 55.289592 
L 410.43456 60.518157 
L 410.79168 53.568 
L 411.1488 55.803922 
L 411.50592 61.26145 
L 411.86304 57.64436 
L 412.22016 64.272223 
L 412.57728 66.550446 
L 412.9344 62.229007 
L 413.29152 67.442128 
L 413.64864 63.598089 
L 414.00576 54.205876 
L 414.36288 65.588261 
L 414.72 61.035172 
L 414.72 61.035172 
" style="fill:none;stroke:#000080;stroke-linecap:square;stroke-width:0.5;"/>
   </g>
   <g id="patch_3">
    <path d="M 57.6 307.584 
L 57.6 41.472 
" style="fill:none;stroke:#000000;stroke-linecap:square;stroke-linejoin:miter;stroke-width:0.8;"/>
   </g>
   <g id="patch_4">
    <path d="M 414.72 307.584 
L 414.72 41.472 
" style="fill:none;stroke:#000000;stroke-linecap:square;stroke-linejoin:miter;stroke-width:0.8;"/>
   </g>
   <g id="patch_5">
    <path d="M 57.6 307.584 
L 414.72 307.584 
" style="fill:none;stroke:#000000;stroke-linecap:square;stroke-linejoin:miter;stroke-width:0.8;"/>
   </g>
   <g id="patch_6">
    <path d="M 57.6 41.472 
L 414.72 41.472 
" style="fill:none;stroke:#000000;stroke-linecap:square;stroke-linejoin:miter;stroke-width:0.8;"/>
   </g>
   <g id="text_17">
    <!-- Test -->
    <defs>
     <path d="M -0.296875 72.90625 
L 61.375 72.90625 
L 61.375 64.59375 
L 35.5 64.59375 
L 35.5 0 
L 25.59375 0 
L 25.59375 64.59375 
L -0.296875 64.59375 
z
" id="DejaVuSans-54"/>
    </defs>
    <g transform="translate(223.341563 35.472)scale(0.12 -0.12)">
     <use xlink:href="#DejaVuSans-54"/>
     <use x="60.818359" xlink:href="#DejaVuSans-65"/>
     <use x="122.341797" xlink:href="#DejaVuSans-73"/>
     <use x="174.441406" xlink:href="#DejaVuSans-74"/>
    </g>
   </g>
   <g id="legend_1">
    <g id="patch_7">
     <path d="M 64.6 64.150125 
L 306.276563 64.150125 
Q 308.276563 64.150125 308.276563 62.150125 
L 308.276563 48.472 
Q 308.276563 46.472 306.276563 46.472 
L 64.6 46.472 
Q 62.6 46.472 62.6 48.472 
L 62.6 62.150125 
Q 62.6 64.150125 64.6 64.150125 
z
" style="fill:#ffffff;opacity:0.8;stroke:#cccccc;stroke-linejoin:miter;"/>
    </g>
    <g id="line2d_30">
     <path d="M 66.6 54.570438 
L 86.6 54.570438 
" style="fill:none;stroke:#000080;stroke-linecap:square;stroke-width:0.5;"/>
    </g>
    <g id="line2d_31"/>
    <g id="text_18">
     <!-- Successful download requests per second -->
     <g transform="translate(94.6 58.070438)scale(0.1 -0.1)">
      <use xlink:href="#DejaVuSans-53"/>
      <use x="63.476562" xlink:href="#DejaVuSans-75"/>
      <use x="126.855469" xlink:href="#DejaVuSans-63"/>
      <use x="181.835938" xlink:href="#DejaVuSans-63"/>
      <use x="236.816406" xlink:href="#DejaVuSans-65"/>
      <use x="298.339844" xlink:href="#DejaVuSans-73"/>
      <use x="350.439453" xlink:href="#DejaVuSans-73"/>
      <use x="402.539062" xlink:href="#DejaVuSans-66"/>
      <use x="437.744141" xlink:href="#DejaVuSans-75"/>
      <use x="501.123047" xlink:href="#DejaVuSans-6c"/>
      <use x="528.90625" xlink:href="#DejaVuSans-20"/>
      <use x="560.693359" xlink:href="#DejaVuSans-64"/>
      <use x="624.169922" xlink:href="#DejaVuSans-6f"/>
      <use x="685.351562" xlink:href="#DejaVuSans-77"/>
      <use x="767.138672" xlink:href="#DejaVuSans-6e"/>
      <use x="830.517578" xlink:href="#DejaVuSans-6c"/>
      <use x="858.300781" xlink:href="#DejaVuSans-6f"/>
      <use x="919.482422" xlink:href="#DejaVuSans-61"/>
      <use x="980.761719" xlink:href="#DejaVuSans-64"/>
      <use x="1044.238281" xlink:href="#DejaVuSans-20"/>
      <use x="1076.025391" xlink:href="#DejaVuSans-72"/>
      <use x="1117.107422" xlink:href="#DejaVuSans-65"/>
      <use x="1178.630859" xlink:href="#DejaVuSans-71"/>
      <use x="1242.107422" xlink:href="#DejaVuSans-75"/>
      <use x="1305.486328" xlink:href="#DejaVuSans-65"/>
      <use x="1367.009766" xlink:href="#DejaVuSans-73"/>
      <use x="1419.109375" xlink:href="#DejaVuSans-74"/>
      <use x="1458.318359" xlink:href="#DejaVuSans-73"/>
      <use x="1510.417969" xlink:href="#DejaVuSans-20"/>
      <use x="1542.205078" xlink:href="#DejaVuSans-70"/>
      <use x="1605.681641" xlink:href="#DejaVuSans-65"/>
      <use x="1667.205078" xlink:href="#DejaVuSans-72"/>
      <use x="1708.318359" xlink:href="#DejaVuSans-20"/>
      <use x="1740.105469" xlink:href="#DejaVuSans-73"/>
      <use x="1792.205078" xlink:href="#DejaVuSans-65"/>
      <use x="1853.728516" xlink:href="#DejaVuSans-63"/>
      <use x="1908.708984" xlink:href="#DejaVuSans-6f"/>
      <use x="1969.890625" xlink:href="#DejaVuSans-6e"/>
      <use x="2033.269531" xlink:href="#DejaVuSans-64"/>
     </g>
    </g>
   </g>
  </g>
 </g>
 <defs>
  <clipPath id="p599a55374c">
   <rect height="266.112" width="357.12" x="57.6" y="41.472"/>
  </clipPath>
 </defs>
</svg>
