<?xml version="1.0" encoding="utf-8" standalone="no"?>
<!DOCTYPE svg PUBLIC "-//W3C//DTD SVG 1.1//EN"
  "http://www.w3.org/Graphics/SVG/1.1/DTD/svg11.dtd">
<!-- Created with matplotlib (http://matplotlib.org/) -->
<svg height="345pt" version="1.1" viewBox="0 0 460 345" width="460pt" xmlns="http://www.w3.org/2000/svg" xmlns:xlink="http://www.w3.org/1999/xlink">
 <defs>
  <style type="text/css">
*{stroke-linecap:butt;stroke-linejoin:round;}
  </style>
 </defs>
 <g id="figure_1">
  <g id="patch_1">
   <path d="M 0 345.6 
L 460.8 345.6 
L 460.8 0 
L 0 0 
z
" style="fill:#ffffff;"/>
  </g>
  <g id="axes_1">
   <g id="patch_2">
    <path d="M 57.6 307.584 
L 414.72 307.584 
L 414.72 41.472 
L 57.6 41.472 
z
" style="fill:#ffffff;"/>
   </g>
   <g id="matplotlib.axis_1">
    <g id="xtick_1">
     <g id="line2d_1">
      <path clip-path="url(#p945c97a968)" d="M 57.6 307.584 
L 57.6 41.472 
" style="fill:none;stroke:#b0b0b0;stroke-linecap:square;stroke-width:0.8;"/>
     </g>
     <g id="line2d_2">
      <defs>
       <path d="M 0 0 
L 0 3.5 
" id="m4bce4f56d6" style="stroke:#000000;stroke-width:0.8;"/>
      </defs>
      <g>
       <use style="stroke:#000000;stroke-width:0.8;" x="57.6" xlink:href="#m4bce4f56d6" y="307.584"/>
      </g>
     </g>
     <g id="text_1">
      <!-- 0 -->
      <defs>
       <path d="M 31.78125 66.40625 
Q 24.171875 66.40625 20.328125 58.90625 
Q 16.5 51.421875 16.5 36.375 
Q 16.5 21.390625 20.328125 13.890625 
Q 24.171875 6.390625 31.78125 6.390625 
Q 39.453125 6.390625 43.28125 13.890625 
Q 47.125 21.390625 47.125 36.375 
Q 47.125 51.421875 43.28125 58.90625 
Q 39.453125 66.40625 31.78125 66.40625 
M 31.78125 74.21875 
Q 44.046875 74.21875 50.515625 64.515625 
Q 56.984375 54.828125 56.984375 36.375 
Q 56.984375 17.96875 50.515625 8.265625 
Q 44.046875 -1.421875 31.78125 -1.421875 
Q 19.53125 -1.421875 13.0625 8.265625 
Q 6.59375 17.96875 6.59375 36.375 
Q 6.59375 54.828125 13.0625 64.515625 
Q 19.53125 74.21875 31.78125 74.21875 
" id="DejaVuSans-30"/>
      </defs>
      <g transform="translate(54.41875 322.182437)scale(0.1 -0.1)">
       <use xlink:href="#DejaVuSans-30"/>
      </g>
     </g>
    </g>
    <g id="xtick_2">
     <g id="line2d_3">
      <path clip-path="url(#p945c97a968)" d="M 129.024 307.584 
L 129.024 41.472 
" style="fill:none;stroke:#b0b0b0;stroke-linecap:square;stroke-width:0.8;"/>
     </g>
     <g id="line2d_4">
      <g>
       <use style="stroke:#000000;stroke-width:0.8;" x="129.024" xlink:href="#m4bce4f56d6" y="307.584"/>
      </g>
     </g>
     <g id="text_2">
      <!-- 200 -->
      <defs>
       <path d="M 19.1875 8.296875 
L 53.609375 8.296875 
L 53.609375 0 
L 7.328125 0 
L 7.328125 8.296875 
Q 12.9375 14.109375 22.625 23.890625 
Q 32.328125 33.6875 34.8125 36.53125 
Q 39.546875 41.84375 41.421875 45.53125 
Q 43.3125 49.21875 43.3125 52.78125 
Q 43.3125 58.59375 39.234375 62.25 
Q 35.15625 65.921875 28.609375 65.921875 
Q 23.96875 65.921875 18.8125 64.3125 
Q 13.671875 62.703125 7.8125 59.421875 
L 7.8125 69.390625 
Q 13.765625 71.78125 18.9375 73 
Q 24.125 74.21875 28.421875 74.21875 
Q 39.75 74.21875 46.484375 68.546875 
Q 53.21875 62.890625 53.21875 53.421875 
Q 53.21875 48.921875 51.53125 44.890625 
Q 49.859375 40.875 45.40625 35.40625 
Q 44.1875 33.984375 37.640625 27.21875 
Q 31.109375 20.453125 19.1875 8.296875 
" id="DejaVuSans-32"/>
      </defs>
      <g transform="translate(119.48025 322.182437)scale(0.1 -0.1)">
       <use xlink:href="#DejaVuSans-32"/>
       <use x="63.623047" xlink:href="#DejaVuSans-30"/>
       <use x="127.246094" xlink:href="#DejaVuSans-30"/>
      </g>
     </g>
    </g>
    <g id="xtick_3">
     <g id="line2d_5">
      <path clip-path="url(#p945c97a968)" d="M 200.448 307.584 
L 200.448 41.472 
" style="fill:none;stroke:#b0b0b0;stroke-linecap:square;stroke-width:0.8;"/>
     </g>
     <g id="line2d_6">
      <g>
       <use style="stroke:#000000;stroke-width:0.8;" x="200.448" xlink:href="#m4bce4f56d6" y="307.584"/>
      </g>
     </g>
     <g id="text_3">
      <!-- 400 -->
      <defs>
       <path d="M 37.796875 64.3125 
L 12.890625 25.390625 
L 37.796875 25.390625 
z
M 35.203125 72.90625 
L 47.609375 72.90625 
L 47.609375 25.390625 
L 58.015625 25.390625 
L 58.015625 17.1875 
L 47.609375 17.1875 
L 47.609375 0 
L 37.796875 0 
L 37.796875 17.1875 
L 4.890625 17.1875 
L 4.890625 26.703125 
z
" id="DejaVuSans-34"/>
      </defs>
      <g transform="translate(190.90425 322.182437)scale(0.1 -0.1)">
       <use xlink:href="#DejaVuSans-34"/>
       <use x="63.623047" xlink:href="#DejaVuSans-30"/>
       <use x="127.246094" xlink:href="#DejaVuSans-30"/>
      </g>
     </g>
    </g>
    <g id="xtick_4">
     <g id="line2d_7">
      <path clip-path="url(#p945c97a968)" d="M 271.872 307.584 
L 271.872 41.472 
" style="fill:none;stroke:#b0b0b0;stroke-linecap:square;stroke-width:0.8;"/>
     </g>
     <g id="line2d_8">
      <g>
       <use style="stroke:#000000;stroke-width:0.8;" x="271.872" xlink:href="#m4bce4f56d6" y="307.584"/>
      </g>
     </g>
     <g id="text_4">
      <!-- 600 -->
      <defs>
       <path d="M 33.015625 40.375 
Q 26.375 40.375 22.484375 35.828125 
Q 18.609375 31.296875 18.609375 23.390625 
Q 18.609375 15.53125 22.484375 10.953125 
Q 26.375 6.390625 33.015625 6.390625 
Q 39.65625 6.390625 43.53125 10.953125 
Q 47.40625 15.53125 47.40625 23.390625 
Q 47.40625 31.296875 43.53125 35.828125 
Q 39.65625 40.375 33.015625 40.375 
M 52.59375 71.296875 
L 52.59375 62.3125 
Q 48.875 64.0625 45.09375 64.984375 
Q 41.3125 65.921875 37.59375 65.921875 
Q 27.828125 65.921875 22.671875 59.328125 
Q 17.53125 52.734375 16.796875 39.40625 
Q 19.671875 43.65625 24.015625 45.921875 
Q 28.375 48.1875 33.59375 48.1875 
Q 44.578125 48.1875 50.953125 41.515625 
Q 57.328125 34.859375 57.328125 23.390625 
Q 57.328125 12.15625 50.6875 5.359375 
Q 44.046875 -1.421875 33.015625 -1.421875 
Q 20.359375 -1.421875 13.671875 8.265625 
Q 6.984375 17.96875 6.984375 36.375 
Q 6.984375 53.65625 15.1875 63.9375 
Q 23.390625 74.21875 37.203125 74.21875 
Q 40.921875 74.21875 44.703125 73.484375 
Q 48.484375 72.75 52.59375 71.296875 
" id="DejaVuSans-36"/>
      </defs>
      <g transform="translate(262.32825 322.182437)scale(0.1 -0.1)">
       <use xlink:href="#DejaVuSans-36"/>
       <use x="63.623047" xlink:href="#DejaVuSans-30"/>
       <use x="127.246094" xlink:href="#DejaVuSans-30"/>
      </g>
     </g>
    </g>
    <g id="xtick_5">
     <g id="line2d_9">
      <path clip-path="url(#p945c97a968)" d="M 343.296 307.584 
L 343.296 41.472 
" style="fill:none;stroke:#b0b0b0;stroke-linecap:square;stroke-width:0.8;"/>
     </g>
     <g id="line2d_10">
      <g>
       <use style="stroke:#000000;stroke-width:0.8;" x="343.296" xlink:href="#m4bce4f56d6" y="307.584"/>
      </g>
     </g>
     <g id="text_5">
      <!-- 800 -->
      <defs>
       <path d="M 31.78125 34.625 
Q 24.75 34.625 20.71875 30.859375 
Q 16.703125 27.09375 16.703125 20.515625 
Q 16.703125 13.921875 20.71875 10.15625 
Q 24.75 6.390625 31.78125 6.390625 
Q 38.8125 6.390625 42.859375 10.171875 
Q 46.921875 13.96875 46.921875 20.515625 
Q 46.921875 27.09375 42.890625 30.859375 
Q 38.875 34.625 31.78125 34.625 
M 21.921875 38.8125 
Q 15.578125 40.375 12.03125 44.71875 
Q 8.5 49.078125 8.5 55.328125 
Q 8.5 64.0625 14.71875 69.140625 
Q 20.953125 74.21875 31.78125 74.21875 
Q 42.671875 74.21875 48.875 69.140625 
Q 55.078125 64.0625 55.078125 55.328125 
Q 55.078125 49.078125 51.53125 44.71875 
Q 48 40.375 41.703125 38.8125 
Q 48.828125 37.15625 52.796875 32.3125 
Q 56.78125 27.484375 56.78125 20.515625 
Q 56.78125 9.90625 50.3125 4.234375 
Q 43.84375 -1.421875 31.78125 -1.421875 
Q 19.734375 -1.421875 13.25 4.234375 
Q 6.78125 9.90625 6.78125 20.515625 
Q 6.78125 27.484375 10.78125 32.3125 
Q 14.796875 37.15625 21.921875 38.8125 
M 18.3125 54.390625 
Q 18.3125 48.734375 21.84375 45.5625 
Q 25.390625 42.390625 31.78125 42.390625 
Q 38.140625 42.390625 41.71875 45.5625 
Q 45.3125 48.734375 45.3125 54.390625 
Q 45.3125 60.0625 41.71875 63.234375 
Q 38.140625 66.40625 31.78125 66.40625 
Q 25.390625 66.40625 21.84375 63.234375 
Q 18.3125 60.0625 18.3125 54.390625 
" id="DejaVuSans-38"/>
      </defs>
      <g transform="translate(333.75225 322.182437)scale(0.1 -0.1)">
       <use xlink:href="#DejaVuSans-38"/>
       <use x="63.623047" xlink:href="#DejaVuSans-30"/>
       <use x="127.246094" xlink:href="#DejaVuSans-30"/>
      </g>
     </g>
    </g>
    <g id="xtick_6">
     <g id="line2d_11">
      <path clip-path="url(#p945c97a968)" d="M 414.72 307.584 
L 414.72 41.472 
" style="fill:none;stroke:#b0b0b0;stroke-linecap:square;stroke-width:0.8;"/>
     </g>
     <g id="line2d_12">
      <g>
       <use style="stroke:#000000;stroke-width:0.8;" x="414.72" xlink:href="#m4bce4f56d6" y="307.584"/>
      </g>
     </g>
     <g id="text_6">
      <!-- 1000 -->
      <defs>
       <path d="M 12.40625 8.296875 
L 28.515625 8.296875 
L 28.515625 63.921875 
L 10.984375 60.40625 
L 10.984375 69.390625 
L 28.421875 72.90625 
L 38.28125 72.90625 
L 38.28125 8.296875 
L 54.390625 8.296875 
L 54.390625 0 
L 12.40625 0 
z
" id="DejaVuSans-31"/>
      </defs>
      <g transform="translate(401.995 322.182437)scale(0.1 -0.1)">
       <use xlink:href="#DejaVuSans-31"/>
       <use x="63.623047" xlink:href="#DejaVuSans-30"/>
       <use x="127.246094" xlink:href="#DejaVuSans-30"/>
       <use x="190.869141" xlink:href="#DejaVuSans-30"/>
      </g>
     </g>
    </g>
    <g id="text_7">
     <!-- Number of clients -->
     <defs>
      <path d="M 9.8125 72.90625 
L 23.09375 72.90625 
L 55.421875 11.921875 
L 55.421875 72.90625 
L 64.984375 72.90625 
L 64.984375 0 
L 51.703125 0 
L 19.390625 60.984375 
L 19.390625 0 
L 9.8125 0 
z
" id="DejaVuSans-4e"/>
      <path d="M 8.5 21.578125 
L 8.5 54.6875 
L 17.484375 54.6875 
L 17.484375 21.921875 
Q 17.484375 14.15625 20.5 10.265625 
Q 23.53125 6.390625 29.59375 6.390625 
Q 36.859375 6.390625 41.078125 11.03125 
Q 45.3125 15.671875 45.3125 23.6875 
L 45.3125 54.6875 
L 54.296875 54.6875 
L 54.296875 0 
L 45.3125 0 
L 45.3125 8.40625 
Q 42.046875 3.421875 37.71875 1 
Q 33.40625 -1.421875 27.6875 -1.421875 
Q 18.265625 -1.421875 13.375 4.4375 
Q 8.5 10.296875 8.5 21.578125 
M 31.109375 56 
z
" id="DejaVuSans-75"/>
      <path d="M 52 44.1875 
Q 55.375 50.25 60.0625 53.125 
Q 64.75 56 71.09375 56 
Q 79.640625 56 84.28125 50.015625 
Q 88.921875 44.046875 88.921875 33.015625 
L 88.921875 0 
L 79.890625 0 
L 79.890625 32.71875 
Q 79.890625 40.578125 77.09375 44.375 
Q 74.3125 48.1875 68.609375 48.1875 
Q 61.625 48.1875 57.5625 43.546875 
Q 53.515625 38.921875 53.515625 30.90625 
L 53.515625 0 
L 44.484375 0 
L 44.484375 32.71875 
Q 44.484375 40.625 41.703125 44.40625 
Q 38.921875 48.1875 33.109375 48.1875 
Q 26.21875 48.1875 22.15625 43.53125 
Q 18.109375 38.875 18.109375 30.90625 
L 18.109375 0 
L 9.078125 0 
L 9.078125 54.6875 
L 18.109375 54.6875 
L 18.109375 46.1875 
Q 21.1875 51.21875 25.484375 53.609375 
Q 29.78125 56 35.6875 56 
Q 41.65625 56 45.828125 52.96875 
Q 50 49.953125 52 44.1875 
" id="DejaVuSans-6d"/>
      <path d="M 48.6875 27.296875 
Q 48.6875 37.203125 44.609375 42.84375 
Q 40.53125 48.484375 33.40625 48.484375 
Q 26.265625 48.484375 22.1875 42.84375 
Q 18.109375 37.203125 18.109375 27.296875 
Q 18.109375 17.390625 22.1875 11.75 
Q 26.265625 6.109375 33.40625 6.109375 
Q 40.53125 6.109375 44.609375 11.75 
Q 48.6875 17.390625 48.6875 27.296875 
M 18.109375 46.390625 
Q 20.953125 51.265625 25.265625 53.625 
Q 29.59375 56 35.59375 56 
Q 45.5625 56 51.78125 48.09375 
Q 58.015625 40.1875 58.015625 27.296875 
Q 58.015625 14.40625 51.78125 6.484375 
Q 45.5625 -1.421875 35.59375 -1.421875 
Q 29.59375 -1.421875 25.265625 0.953125 
Q 20.953125 3.328125 18.109375 8.203125 
L 18.109375 0 
L 9.078125 0 
L 9.078125 75.984375 
L 18.109375 75.984375 
z
" id="DejaVuSans-62"/>
      <path d="M 56.203125 29.59375 
L 56.203125 25.203125 
L 14.890625 25.203125 
Q 15.484375 15.921875 20.484375 11.0625 
Q 25.484375 6.203125 34.421875 6.203125 
Q 39.59375 6.203125 44.453125 7.46875 
Q 49.3125 8.734375 54.109375 11.28125 
L 54.109375 2.78125 
Q 49.265625 0.734375 44.1875 -0.34375 
Q 39.109375 -1.421875 33.890625 -1.421875 
Q 20.796875 -1.421875 13.15625 6.1875 
Q 5.515625 13.8125 5.515625 26.8125 
Q 5.515625 40.234375 12.765625 48.109375 
Q 20.015625 56 32.328125 56 
Q 43.359375 56 49.78125 48.890625 
Q 56.203125 41.796875 56.203125 29.59375 
M 47.21875 32.234375 
Q 47.125 39.59375 43.09375 43.984375 
Q 39.0625 48.390625 32.421875 48.390625 
Q 24.90625 48.390625 20.390625 44.140625 
Q 15.875 39.890625 15.1875 32.171875 
z
" id="DejaVuSans-65"/>
      <path d="M 41.109375 46.296875 
Q 39.59375 47.171875 37.8125 47.578125 
Q 36.03125 48 33.890625 48 
Q 26.265625 48 22.1875 43.046875 
Q 18.109375 38.09375 18.109375 28.8125 
L 18.109375 0 
L 9.078125 0 
L 9.078125 54.6875 
L 18.109375 54.6875 
L 18.109375 46.1875 
Q 20.953125 51.171875 25.484375 53.578125 
Q 30.03125 56 36.53125 56 
Q 37.453125 56 38.578125 55.875 
Q 39.703125 55.765625 41.0625 55.515625 
z
" id="DejaVuSans-72"/>
      <path id="DejaVuSans-20"/>
      <path d="M 30.609375 48.390625 
Q 23.390625 48.390625 19.1875 42.75 
Q 14.984375 37.109375 14.984375 27.296875 
Q 14.984375 17.484375 19.15625 11.84375 
Q 23.34375 6.203125 30.609375 6.203125 
Q 37.796875 6.203125 41.984375 11.859375 
Q 46.1875 17.53125 46.1875 27.296875 
Q 46.1875 37.015625 41.984375 42.703125 
Q 37.796875 48.390625 30.609375 48.390625 
M 30.609375 56 
Q 42.328125 56 49.015625 48.375 
Q 55.71875 40.765625 55.71875 27.296875 
Q 55.71875 13.875 49.015625 6.21875 
Q 42.328125 -1.421875 30.609375 -1.421875 
Q 18.84375 -1.421875 12.171875 6.21875 
Q 5.515625 13.875 5.515625 27.296875 
Q 5.515625 40.765625 12.171875 48.375 
Q 18.84375 56 30.609375 56 
" id="DejaVuSans-6f"/>
      <path d="M 37.109375 75.984375 
L 37.109375 68.5 
L 28.515625 68.5 
Q 23.6875 68.5 21.796875 66.546875 
Q 19.921875 64.59375 19.921875 59.515625 
L 19.921875 54.6875 
L 34.71875 54.6875 
L 34.71875 47.703125 
L 19.921875 47.703125 
L 19.921875 0 
L 10.890625 0 
L 10.890625 47.703125 
L 2.296875 47.703125 
L 2.296875 54.6875 
L 10.890625 54.6875 
L 10.890625 58.5 
Q 10.890625 67.625 15.140625 71.796875 
Q 19.390625 75.984375 28.609375 75.984375 
z
" id="DejaVuSans-66"/>
      <path d="M 48.78125 52.59375 
L 48.78125 44.1875 
Q 44.96875 46.296875 41.140625 47.34375 
Q 37.3125 48.390625 33.40625 48.390625 
Q 24.65625 48.390625 19.8125 42.84375 
Q 14.984375 37.3125 14.984375 27.296875 
Q 14.984375 17.28125 19.8125 11.734375 
Q 24.65625 6.203125 33.40625 6.203125 
Q 37.3125 6.203125 41.140625 7.25 
Q 44.96875 8.296875 48.78125 10.40625 
L 48.78125 2.09375 
Q 45.015625 0.34375 40.984375 -0.53125 
Q 36.96875 -1.421875 32.421875 -1.421875 
Q 20.0625 -1.421875 12.78125 6.34375 
Q 5.515625 14.109375 5.515625 27.296875 
Q 5.515625 40.671875 12.859375 48.328125 
Q 20.21875 56 33.015625 56 
Q 37.15625 56 41.109375 55.140625 
Q 45.0625 54.296875 48.78125 52.59375 
" id="DejaVuSans-63"/>
      <path d="M 9.421875 75.984375 
L 18.40625 75.984375 
L 18.40625 0 
L 9.421875 0 
z
" id="DejaVuSans-6c"/>
      <path d="M 9.421875 54.6875 
L 18.40625 54.6875 
L 18.40625 0 
L 9.421875 0 
z
M 9.421875 75.984375 
L 18.40625 75.984375 
L 18.40625 64.59375 
L 9.421875 64.59375 
z
" id="DejaVuSans-69"/>
      <path d="M 54.890625 33.015625 
L 54.890625 0 
L 45.90625 0 
L 45.90625 32.71875 
Q 45.90625 40.484375 42.875 44.328125 
Q 39.84375 48.1875 33.796875 48.1875 
Q 26.515625 48.1875 22.3125 43.546875 
Q 18.109375 38.921875 18.109375 30.90625 
L 18.109375 0 
L 9.078125 0 
L 9.078125 54.6875 
L 18.109375 54.6875 
L 18.109375 46.1875 
Q 21.34375 51.125 25.703125 53.5625 
Q 30.078125 56 35.796875 56 
Q 45.21875 56 50.046875 50.171875 
Q 54.890625 44.34375 54.890625 33.015625 
" id="DejaVuSans-6e"/>
      <path d="M 18.3125 70.21875 
L 18.3125 54.6875 
L 36.8125 54.6875 
L 36.8125 47.703125 
L 18.3125 47.703125 
L 18.3125 18.015625 
Q 18.3125 11.328125 20.140625 9.421875 
Q 21.96875 7.515625 27.59375 7.515625 
L 36.8125 7.515625 
L 36.8125 0 
L 27.59375 0 
Q 17.1875 0 13.234375 3.875 
Q 9.28125 7.765625 9.28125 18.015625 
L 9.28125 47.703125 
L 2.6875 47.703125 
L 2.6875 54.6875 
L 9.28125 54.6875 
L 9.28125 70.21875 
z
" id="DejaVuSans-74"/>
      <path d="M 44.28125 53.078125 
L 44.28125 44.578125 
Q 40.484375 46.53125 36.375 47.5 
Q 32.28125 48.484375 27.875 48.484375 
Q 21.1875 48.484375 17.84375 46.4375 
Q 14.5 44.390625 14.5 40.28125 
Q 14.5 37.15625 16.890625 35.375 
Q 19.28125 33.59375 26.515625 31.984375 
L 29.59375 31.296875 
Q 39.15625 29.25 43.1875 25.515625 
Q 47.21875 21.78125 47.21875 15.09375 
Q 47.21875 7.46875 41.1875 3.015625 
Q 35.15625 -1.421875 24.609375 -1.421875 
Q 20.21875 -1.421875 15.453125 -0.5625 
Q 10.6875 0.296875 5.421875 2 
L 5.421875 11.28125 
Q 10.40625 8.6875 15.234375 7.390625 
Q 20.0625 6.109375 24.8125 6.109375 
Q 31.15625 6.109375 34.5625 8.28125 
Q 37.984375 10.453125 37.984375 14.40625 
Q 37.984375 18.0625 35.515625 20.015625 
Q 33.0625 21.96875 24.703125 23.78125 
L 21.578125 24.515625 
Q 13.234375 26.265625 9.515625 29.90625 
Q 5.8125 33.546875 5.8125 39.890625 
Q 5.8125 47.609375 11.28125 51.796875 
Q 16.75 56 26.8125 56 
Q 31.78125 56 36.171875 55.265625 
Q 40.578125 54.546875 44.28125 53.078125 
" id="DejaVuSans-73"/>
     </defs>
     <g transform="translate(191.738906 335.860562)scale(0.1 -0.1)">
      <use xlink:href="#DejaVuSans-4e"/>
      <use x="74.804688" xlink:href="#DejaVuSans-75"/>
      <use x="138.183594" xlink:href="#DejaVuSans-6d"/>
      <use x="235.595703" xlink:href="#DejaVuSans-62"/>
      <use x="299.072266" xlink:href="#DejaVuSans-65"/>
      <use x="360.595703" xlink:href="#DejaVuSans-72"/>
      <use x="401.708984" xlink:href="#DejaVuSans-20"/>
      <use x="433.496094" xlink:href="#DejaVuSans-6f"/>
      <use x="494.677734" xlink:href="#DejaVuSans-66"/>
      <use x="529.882812" xlink:href="#DejaVuSans-20"/>
      <use x="561.669922" xlink:href="#DejaVuSans-63"/>
      <use x="616.650391" xlink:href="#DejaVuSans-6c"/>
      <use x="644.433594" xlink:href="#DejaVuSans-69"/>
      <use x="672.216797" xlink:href="#DejaVuSans-65"/>
      <use x="733.740234" xlink:href="#DejaVuSans-6e"/>
      <use x="797.119141" xlink:href="#DejaVuSans-74"/>
      <use x="836.328125" xlink:href="#DejaVuSans-73"/>
     </g>
    </g>
   </g>
   <g id="matplotlib.axis_2">
    <g id="ytick_1">
     <g id="line2d_13">
      <path clip-path="url(#p945c97a968)" d="M 57.6 296.032932 
L 414.72 296.032932 
" style="fill:none;stroke:#b0b0b0;stroke-linecap:square;stroke-width:0.8;"/>
     </g>
     <g id="line2d_14">
      <defs>
       <path d="M 0 0 
L -3.5 0 
" id="m8931ebbdec" style="stroke:#000000;stroke-width:0.8;"/>
      </defs>
      <g>
       <use style="stroke:#000000;stroke-width:0.8;" x="57.6" xlink:href="#m8931ebbdec" y="296.032932"/>
      </g>
     </g>
     <g id="text_8">
      <!-- 0 -->
      <g transform="translate(44.2375 299.83215)scale(0.1 -0.1)">
       <use xlink:href="#DejaVuSans-30"/>
      </g>
     </g>
    </g>
    <g id="ytick_2">
     <g id="line2d_15">
      <path clip-path="url(#p945c97a968)" d="M 57.6 240.199785 
L 414.72 240.199785 
" style="fill:none;stroke:#b0b0b0;stroke-linecap:square;stroke-width:0.8;"/>
     </g>
     <g id="line2d_16">
      <g>
       <use style="stroke:#000000;stroke-width:0.8;" x="57.6" xlink:href="#m8931ebbdec" y="240.199785"/>
      </g>
     </g>
     <g id="text_9">
      <!-- 100 -->
      <g transform="translate(31.5125 243.999003)scale(0.1 -0.1)">
       <use xlink:href="#DejaVuSans-31"/>
       <use x="63.623047" xlink:href="#DejaVuSans-30"/>
       <use x="127.246094" xlink:href="#DejaVuSans-30"/>
      </g>
     </g>
    </g>
    <g id="ytick_3">
     <g id="line2d_17">
      <path clip-path="url(#p945c97a968)" d="M 57.6 184.366638 
L 414.72 184.366638 
" style="fill:none;stroke:#b0b0b0;stroke-linecap:square;stroke-width:0.8;"/>
     </g>
     <g id="line2d_18">
      <g>
       <use style="stroke:#000000;stroke-width:0.8;" x="57.6" xlink:href="#m8931ebbdec" y="184.366638"/>
      </g>
     </g>
     <g id="text_10">
      <!-- 200 -->
      <g transform="translate(31.5125 188.165857)scale(0.1 -0.1)">
       <use xlink:href="#DejaVuSans-32"/>
       <use x="63.623047" xlink:href="#DejaVuSans-30"/>
       <use x="127.246094" xlink:href="#DejaVuSans-30"/>
      </g>
     </g>
    </g>
    <g id="ytick_4">
     <g id="line2d_19">
      <path clip-path="url(#p945c97a968)" d="M 57.6 128.533491 
L 414.72 128.533491 
" style="fill:none;stroke:#b0b0b0;stroke-linecap:square;stroke-width:0.8;"/>
     </g>
     <g id="line2d_20">
      <g>
       <use style="stroke:#000000;stroke-width:0.8;" x="57.6" xlink:href="#m8931ebbdec" y="128.533491"/>
      </g>
     </g>
     <g id="text_11">
      <!-- 300 -->
      <defs>
       <path d="M 40.578125 39.3125 
Q 47.65625 37.796875 51.625 33 
Q 55.609375 28.21875 55.609375 21.1875 
Q 55.609375 10.40625 48.1875 4.484375 
Q 40.765625 -1.421875 27.09375 -1.421875 
Q 22.515625 -1.421875 17.65625 -0.515625 
Q 12.796875 0.390625 7.625 2.203125 
L 7.625 11.71875 
Q 11.71875 9.328125 16.59375 8.109375 
Q 21.484375 6.890625 26.8125 6.890625 
Q 36.078125 6.890625 40.9375 10.546875 
Q 45.796875 14.203125 45.796875 21.1875 
Q 45.796875 27.640625 41.28125 31.265625 
Q 36.765625 34.90625 28.71875 34.90625 
L 20.21875 34.90625 
L 20.21875 43.015625 
L 29.109375 43.015625 
Q 36.375 43.015625 40.234375 45.921875 
Q 44.09375 48.828125 44.09375 54.296875 
Q 44.09375 59.90625 40.109375 62.90625 
Q 36.140625 65.921875 28.71875 65.921875 
Q 24.65625 65.921875 20.015625 65.03125 
Q 15.375 64.15625 9.8125 62.3125 
L 9.8125 71.09375 
Q 15.4375 72.65625 20.34375 73.4375 
Q 25.25 74.21875 29.59375 74.21875 
Q 40.828125 74.21875 47.359375 69.109375 
Q 53.90625 64.015625 53.90625 55.328125 
Q 53.90625 49.265625 50.4375 45.09375 
Q 46.96875 40.921875 40.578125 39.3125 
" id="DejaVuSans-33"/>
      </defs>
      <g transform="translate(31.5125 132.33271)scale(0.1 -0.1)">
       <use xlink:href="#DejaVuSans-33"/>
       <use x="63.623047" xlink:href="#DejaVuSans-30"/>
       <use x="127.246094" xlink:href="#DejaVuSans-30"/>
      </g>
     </g>
    </g>
    <g id="ytick_5">
     <g id="line2d_21">
      <path clip-path="url(#p945c97a968)" d="M 57.6 72.700344 
L 414.72 72.700344 
" style="fill:none;stroke:#b0b0b0;stroke-linecap:square;stroke-width:0.8;"/>
     </g>
     <g id="line2d_22">
      <g>
       <use style="stroke:#000000;stroke-width:0.8;" x="57.6" xlink:href="#m8931ebbdec" y="72.700344"/>
      </g>
     </g>
     <g id="text_12">
      <!-- 400 -->
      <g transform="translate(31.5125 76.499563)scale(0.1 -0.1)">
       <use xlink:href="#DejaVuSans-34"/>
       <use x="63.623047" xlink:href="#DejaVuSans-30"/>
       <use x="127.246094" xlink:href="#DejaVuSans-30"/>
      </g>
     </g>
    </g>
    <g id="text_13">
     <!-- Successful download requests per second -->
     <defs>
      <path d="M 53.515625 70.515625 
L 53.515625 60.890625 
Q 47.90625 63.578125 42.921875 64.890625 
Q 37.9375 66.21875 33.296875 66.21875 
Q 25.25 66.21875 20.875 63.09375 
Q 16.5 59.96875 16.5 54.203125 
Q 16.5 49.359375 19.40625 46.890625 
Q 22.3125 44.4375 30.421875 42.921875 
L 36.375 41.703125 
Q 47.40625 39.59375 52.65625 34.296875 
Q 57.90625 29 57.90625 20.125 
Q 57.90625 9.515625 50.796875 4.046875 
Q 43.703125 -1.421875 29.984375 -1.421875 
Q 24.8125 -1.421875 18.96875 -0.25 
Q 13.140625 0.921875 6.890625 3.21875 
L 6.890625 13.375 
Q 12.890625 10.015625 18.65625 8.296875 
Q 24.421875 6.59375 29.984375 6.59375 
Q 38.421875 6.59375 43.015625 9.90625 
Q 47.609375 13.234375 47.609375 19.390625 
Q 47.609375 24.75 44.3125 27.78125 
Q 41.015625 30.8125 33.5 32.328125 
L 27.484375 33.5 
Q 16.453125 35.6875 11.515625 40.375 
Q 6.59375 45.0625 6.59375 53.421875 
Q 6.59375 63.09375 13.40625 68.65625 
Q 20.21875 74.21875 32.171875 74.21875 
Q 37.3125 74.21875 42.625 73.28125 
Q 47.953125 72.359375 53.515625 70.515625 
" id="DejaVuSans-53"/>
      <path d="M 45.40625 46.390625 
L 45.40625 75.984375 
L 54.390625 75.984375 
L 54.390625 0 
L 45.40625 0 
L 45.40625 8.203125 
Q 42.578125 3.328125 38.25 0.953125 
Q 33.9375 -1.421875 27.875 -1.421875 
Q 17.96875 -1.421875 11.734375 6.484375 
Q 5.515625 14.40625 5.515625 27.296875 
Q 5.515625 40.1875 11.734375 48.09375 
Q 17.96875 56 27.875 56 
Q 33.9375 56 38.25 53.625 
Q 42.578125 51.265625 45.40625 46.390625 
M 14.796875 27.296875 
Q 14.796875 17.390625 18.875 11.75 
Q 22.953125 6.109375 30.078125 6.109375 
Q 37.203125 6.109375 41.296875 11.75 
Q 45.40625 17.390625 45.40625 27.296875 
Q 45.40625 37.203125 41.296875 42.84375 
Q 37.203125 48.484375 30.078125 48.484375 
Q 22.953125 48.484375 18.875 42.84375 
Q 14.796875 37.203125 14.796875 27.296875 
" id="DejaVuSans-64"/>
      <path d="M 4.203125 54.6875 
L 13.1875 54.6875 
L 24.421875 12.015625 
L 35.59375 54.6875 
L 46.1875 54.6875 
L 57.421875 12.015625 
L 68.609375 54.6875 
L 77.59375 54.6875 
L 63.28125 0 
L 52.6875 0 
L 40.921875 44.828125 
L 29.109375 0 
L 18.5 0 
z
" id="DejaVuSans-77"/>
      <path d="M 34.28125 27.484375 
Q 23.390625 27.484375 19.1875 25 
Q 14.984375 22.515625 14.984375 16.5 
Q 14.984375 11.71875 18.140625 8.90625 
Q 21.296875 6.109375 26.703125 6.109375 
Q 34.1875 6.109375 38.703125 11.40625 
Q 43.21875 16.703125 43.21875 25.484375 
L 43.21875 27.484375 
z
M 52.203125 31.203125 
L 52.203125 0 
L 43.21875 0 
L 43.21875 8.296875 
Q 40.140625 3.328125 35.546875 0.953125 
Q 30.953125 -1.421875 24.3125 -1.421875 
Q 15.921875 -1.421875 10.953125 3.296875 
Q 6 8.015625 6 15.921875 
Q 6 25.140625 12.171875 29.828125 
Q 18.359375 34.515625 30.609375 34.515625 
L 43.21875 34.515625 
L 43.21875 35.40625 
Q 43.21875 41.609375 39.140625 45 
Q 35.0625 48.390625 27.6875 48.390625 
Q 23 48.390625 18.546875 47.265625 
Q 14.109375 46.140625 10.015625 43.890625 
L 10.015625 52.203125 
Q 14.9375 54.109375 19.578125 55.046875 
Q 24.21875 56 28.609375 56 
Q 40.484375 56 46.34375 49.84375 
Q 52.203125 43.703125 52.203125 31.203125 
" id="DejaVuSans-61"/>
      <path d="M 14.796875 27.296875 
Q 14.796875 17.390625 18.875 11.75 
Q 22.953125 6.109375 30.078125 6.109375 
Q 37.203125 6.109375 41.296875 11.75 
Q 45.40625 17.390625 45.40625 27.296875 
Q 45.40625 37.203125 41.296875 42.84375 
Q 37.203125 48.484375 30.078125 48.484375 
Q 22.953125 48.484375 18.875 42.84375 
Q 14.796875 37.203125 14.796875 27.296875 
M 45.40625 8.203125 
Q 42.578125 3.328125 38.25 0.953125 
Q 33.9375 -1.421875 27.875 -1.421875 
Q 17.96875 -1.421875 11.734375 6.484375 
Q 5.515625 14.40625 5.515625 27.296875 
Q 5.515625 40.1875 11.734375 48.09375 
Q 17.96875 56 27.875 56 
Q 33.9375 56 38.25 53.625 
Q 42.578125 51.265625 45.40625 46.390625 
L 45.40625 54.6875 
L 54.390625 54.6875 
L 54.390625 -20.796875 
L 45.40625 -20.796875 
z
" id="DejaVuSans-71"/>
      <path d="M 18.109375 8.203125 
L 18.109375 -20.796875 
L 9.078125 -20.796875 
L 9.078125 54.6875 
L 18.109375 54.6875 
L 18.109375 46.390625 
Q 20.953125 51.265625 25.265625 53.625 
Q 29.59375 56 35.59375 56 
Q 45.5625 56 51.78125 48.09375 
Q 58.015625 40.1875 58.015625 27.296875 
Q 58.015625 14.40625 51.78125 6.484375 
Q 45.5625 -1.421875 35.59375 -1.421875 
Q 29.59375 -1.421875 25.265625 0.953125 
Q 20.953125 3.328125 18.109375 8.203125 
M 48.6875 27.296875 
Q 48.6875 37.203125 44.609375 42.84375 
Q 40.53125 48.484375 33.40625 48.484375 
Q 26.265625 48.484375 22.1875 42.84375 
Q 18.109375 37.203125 18.109375 27.296875 
Q 18.109375 17.390625 22.1875 11.75 
Q 26.265625 6.109375 33.40625 6.109375 
Q 40.53125 6.109375 44.609375 11.75 
Q 48.6875 17.390625 48.6875 27.296875 
" id="DejaVuSans-70"/>
     </defs>
     <g transform="translate(25.432812 279.366281)rotate(-90)scale(0.1 -0.1)">
      <use xlink:href="#DejaVuSans-53"/>
      <use x="63.476562" xlink:href="#DejaVuSans-75"/>
      <use x="126.855469" xlink:href="#DejaVuSans-63"/>
      <use x="181.835938" xlink:href="#DejaVuSans-63"/>
      <use x="236.816406" xlink:href="#DejaVuSans-65"/>
      <use x="298.339844" xlink:href="#DejaVuSans-73"/>
      <use x="350.439453" xlink:href="#DejaVuSans-73"/>
      <use x="402.539062" xlink:href="#DejaVuSans-66"/>
      <use x="437.744141" xlink:href="#DejaVuSans-75"/>
      <use x="501.123047" xlink:href="#DejaVuSans-6c"/>
      <use x="528.90625" xlink:href="#DejaVuSans-20"/>
      <use x="560.693359" xlink:href="#DejaVuSans-64"/>
      <use x="624.169922" xlink:href="#DejaVuSans-6f"/>
      <use x="685.351562" xlink:href="#DejaVuSans-77"/>
      <use x="767.138672" xlink:href="#DejaVuSans-6e"/>
      <use x="830.517578" xlink:href="#DejaVuSans-6c"/>
      <use x="858.300781" xlink:href="#DejaVuSans-6f"/>
      <use x="919.482422" xlink:href="#DejaVuSans-61"/>
      <use x="980.761719" xlink:href="#DejaVuSans-64"/>
      <use x="1044.238281" xlink:href="#DejaVuSans-20"/>
      <use x="1076.025391" xlink:href="#DejaVuSans-72"/>
      <use x="1117.107422" xlink:href="#DejaVuSans-65"/>
      <use x="1178.630859" xlink:href="#DejaVuSans-71"/>
      <use x="1242.107422" xlink:href="#DejaVuSans-75"/>
      <use x="1305.486328" xlink:href="#DejaVuSans-65"/>
      <use x="1367.009766" xlink:href="#DejaVuSans-73"/>
      <use x="1419.109375" xlink:href="#DejaVuSans-74"/>
      <use x="1458.318359" xlink:href="#DejaVuSans-73"/>
      <use x="1510.417969" xlink:href="#DejaVuSans-20"/>
      <use x="1542.205078" xlink:href="#DejaVuSans-70"/>
      <use x="1605.681641" xlink:href="#DejaVuSans-65"/>
      <use x="1667.205078" xlink:href="#DejaVuSans-72"/>
      <use x="1708.318359" xlink:href="#DejaVuSans-20"/>
      <use x="1740.105469" xlink:href="#DejaVuSans-73"/>
      <use x="1792.205078" xlink:href="#DejaVuSans-65"/>
      <use x="1853.728516" xlink:href="#DejaVuSans-63"/>
      <use x="1908.708984" xlink:href="#DejaVuSans-6f"/>
      <use x="1969.890625" xlink:href="#DejaVuSans-6e"/>
      <use x="2033.269531" xlink:href="#DejaVuSans-64"/>
     </g>
    </g>
   </g>
   <g id="line2d_23">
    <path clip-path="url(#p945c97a968)" d="M 57.6 295.488 
L 57.95712 295.483533 
L 61.52832 290.054876 
L 61.88544 289.341329 
L 62.24256 288.981763 
L 62.59968 288.250349 
L 62.9568 287.814292 
L 63.31392 287.614968 
L 63.67104 286.695954 
L 64.02816 286.266039 
L 64.38528 286.025957 
L 65.09952 285.072885 
L 65.45664 284.134888 
L 65.81376 284.065097 
L 66.17088 282.850726 
L 66.528 282.309144 
L 67.24224 281.694421 
L 67.59936 280.926157 
L 67.95648 280.477258 
L 68.3136 280.256159 
L 68.67072 278.965855 
L 69.02784 278.740289 
L 69.38496 278.829622 
L 69.74208 277.149045 
L 70.0992 277.677226 
L 70.45632 276.468997 
L 70.81344 276.411489 
L 71.17056 275.144635 
L 71.52768 275.6449 
L 71.8848 274.767203 
L 72.24192 273.203874 
L 72.59904 273.395382 
L 72.95616 272.816392 
L 73.31328 271.770638 
L 74.02752 271.234081 
L 74.38464 270.750008 
L 74.74176 270.814216 
L 75.81312 268.177775 
L 76.52736 267.690351 
L 76.88448 266.518413 
L 77.2416 267.080653 
L 77.59872 265.322467 
L 77.95584 264.579887 
L 78.31296 264.409037 
L 78.67008 265.261051 
L 79.0272 262.929459 
L 79.38432 263.1098 
L 79.74144 261.430897 
L 80.45568 261.517997 
L 80.8128 261.639155 
L 81.16992 260.13501 
L 81.52704 261.015499 
L 81.88416 260.375651 
L 82.24128 257.985434 
L 82.5984 257.067537 
L 82.95552 256.55778 
L 83.31264 258.427632 
L 83.66976 257.357311 
L 84.02688 255.459542 
L 84.384 255.6209 
L 84.74112 254.49977 
L 85.09824 255.780024 
L 85.45536 254.565095 
L 86.1696 253.49254 
L 86.52672 252.473027 
L 86.88384 250.499884 
L 87.24096 250.087277 
L 87.59808 249.313429 
L 87.9552 249.591478 
L 88.31232 250.856657 
L 88.66944 248.508874 
L 89.02656 250.091185 
L 89.38368 247.829943 
L 89.7408 248.354216 
L 90.09792 245.836699 
L 90.45504 248.161591 
L 90.81216 247.517277 
L 91.16928 245.621742 
L 91.5264 244.766378 
L 91.88352 245.142135 
L 92.24064 243.474399 
L 92.59776 242.856326 
L 92.95488 243.129908 
L 93.312 240.707866 
L 93.66912 240.518034 
L 94.02624 239.131138 
L 94.38336 241.898229 
L 94.74048 240.640867 
L 95.0976 240.342159 
L 95.45472 237.371836 
L 95.81184 236.826904 
L 96.16896 239.595112 
L 96.8832 235.979357 
L 97.24032 237.259611 
L 97.59744 235.202718 
L 97.95456 235.388084 
L 98.31168 232.931426 
L 98.6688 235.843124 
L 99.02592 235.337834 
L 99.74016 231.15984 
L 100.09728 233.73989 
L 100.4544 231.063807 
L 100.81152 233.127958 
L 101.16864 229.723811 
L 101.52576 228.03095 
L 101.88288 228.573649 
L 102.24 227.623927 
L 102.59712 225.835591 
L 102.95424 229.800303 
L 103.31136 227.688135 
L 104.0256 228.373208 
L 104.38272 223.21925 
L 104.73984 225.5782 
L 105.09696 222.190803 
L 105.45408 226.139323 
L 105.8112 224.003147 
L 106.16832 220.20091 
L 106.88256 223.147225 
L 107.23968 220.733558 
L 107.5968 219.557154 
L 107.95392 222.504586 
L 108.31104 216.955329 
L 108.66816 218.281925 
L 109.02528 218.964764 
L 109.3824 216.015657 
L 109.73952 218.984306 
L 110.09664 215.337284 
L 110.45376 213.920239 
L 110.81088 214.600287 
L 111.168 217.371844 
L 111.52512 212.527761 
L 111.88224 211.582505 
L 112.23936 216.480189 
L 112.59648 211.19949 
L 112.9536 211.751121 
L 113.31072 211.280448 
L 113.66784 214.124589 
L 114.02496 208.365958 
L 114.38208 210.097902 
L 114.7392 209.19508 
L 115.09632 210.615475 
L 115.45344 210.629434 
L 115.81056 209.070014 
L 116.16768 209.914769 
L 116.5248 209.466987 
L 116.88192 208.351999 
L 117.23904 203.979706 
L 117.59616 203.480557 
L 117.95328 206.754055 
L 118.3104 204.352113 
L 119.38176 204.681528 
L 119.73888 202.732393 
L 120.45312 199.926219 
L 120.81024 201.476706 
L 121.16736 200.26066 
L 121.52448 202.318111 
L 121.8816 200.063569 
L 122.23872 196.262448 
L 122.59584 200.854166 
L 122.95296 194.222863 
L 123.31008 199.973677 
L 123.6672 195.886691 
L 124.02432 194.894536 
L 124.38144 194.336205 
L 124.73856 193.021334 
L 125.09568 197.001121 
L 125.4528 194.850986 
L 125.80992 195.691833 
L 126.16704 194.761653 
L 126.52416 189.421771 
L 126.88128 193.077167 
L 127.2384 189.551304 
L 127.59552 193.471349 
L 127.95264 191.207873 
L 128.30976 192.548427 
L 128.66688 191.349131 
L 129.024 187.87631 
L 129.38112 191.459681 
L 129.73824 187.205195 
L 130.45248 183.385091 
L 130.8096 187.431878 
L 131.16672 188.697615 
L 131.52384 188.022592 
L 132.23808 180.714033 
L 132.5952 183.042834 
L 132.95232 182.36502 
L 133.30944 178.437158 
L 134.02368 183.634107 
L 134.73792 180.490143 
L 135.09504 175.917966 
L 135.45216 176.208299 
L 135.80928 176.668364 
L 136.1664 178.978181 
L 136.52352 173.298275 
L 136.88064 178.972598 
L 137.23776 172.780143 
L 137.59488 172.481436 
L 137.952 178.313767 
L 138.30912 174.266422 
L 138.66624 171.607089 
L 139.02336 175.327251 
L 139.38048 176.409298 
L 139.7376 171.626072 
L 140.09472 173.973856 
L 140.45184 167.969001 
L 140.80896 172.780702 
L 141.16608 168.172792 
L 141.5232 166.854571 
L 141.88032 168.888015 
L 142.23744 166.005349 
L 142.59456 171.010233 
L 142.95168 168.541849 
L 143.3088 170.512759 
L 143.66592 168.467033 
L 144.02304 163.176284 
L 144.38016 163.281808 
L 144.73728 163.72959 
L 145.0944 166.508964 
L 145.45152 162.006579 
L 145.80864 169.508321 
L 146.16576 168.719957 
L 146.52288 162.762002 
L 146.88 164.702762 
L 147.23712 165.206935 
L 147.59424 159.224972 
L 147.95136 166.41684 
L 148.30848 166.180665 
L 148.6656 159.883803 
L 149.02272 163.634116 
L 149.37984 165.17511 
L 149.73696 165.008169 
L 150.09408 158.622532 
L 150.4512 157.698494 
L 150.80832 164.540846 
L 151.16544 161.763705 
L 151.52256 163.305258 
L 151.87968 165.538584 
L 152.2368 158.469549 
L 152.59392 160.989299 
L 152.95104 158.552741 
L 153.30816 164.215897 
L 154.0224 160.521976 
L 154.37952 162.339903 
L 154.73664 155.172602 
L 155.09376 158.896673 
L 155.45088 159.729704 
L 155.808 157.149654 
L 156.16512 156.737605 
L 156.52224 154.596962 
L 156.87936 155.002869 
L 157.23648 154.619296 
L 157.5936 157.328878 
L 157.95072 157.302078 
L 158.30784 158.66664 
L 158.66496 158.946923 
L 159.3792 152.885118 
L 159.73632 153.374217 
L 160.09344 151.236365 
L 160.45056 157.948626 
L 160.80768 157.331112 
L 161.1648 156.457881 
L 161.52192 151.947121 
L 161.87904 158.184242 
L 162.23616 155.170369 
L 162.59328 157.390853 
L 162.9504 155.129611 
L 163.30752 152.152587 
L 163.66464 153.959348 
L 164.02176 154.709745 
L 164.37888 156.073191 
L 164.736 148.923198 
L 165.09312 158.223884 
L 165.45024 148.546324 
L 165.80736 149.943828 
L 166.16448 149.087906 
L 166.5216 154.839837 
L 166.87872 148.122551 
L 167.23584 150.9438 
L 167.59296 152.705894 
L 167.95008 146.546939 
L 168.3072 151.207332 
L 168.66432 154.042539 
L 169.02144 153.485324 
L 169.37856 149.247589 
L 169.73568 153.677949 
L 170.0928 146.173974 
L 170.44992 146.421873 
L 170.80704 153.393758 
L 171.16416 153.558466 
L 171.52128 144.453755 
L 171.8784 149.697604 
L 172.23552 153.197784 
L 172.94976 151.32514 
L 173.30688 148.432425 
L 173.664 148.051643 
L 174.02112 147.961193 
L 174.73536 149.804803 
L 175.09248 143.792132 
L 175.4496 151.92088 
L 175.80672 150.337452 
L 176.16384 141.739705 
L 176.52096 145.275619 
L 177.2352 141.93903 
L 177.59232 144.914936 
L 177.94944 151.177182 
L 178.30656 146.204124 
L 178.66368 149.243122 
L 179.0208 142.398537 
L 179.37792 148.670832 
L 179.73504 146.69713 
L 180.09216 142.338237 
L 180.44928 140.089836 
L 180.8064 141.301415 
L 181.16352 144.389547 
L 181.52064 142.401887 
L 181.87776 143.623516 
L 182.23488 148.939948 
L 182.592 145.757459 
L 182.94912 147.766335 
L 183.30624 140.037911 
L 183.66336 140.401385 
L 184.02048 147.330278 
L 184.3776 146.725605 
L 185.09184 147.657461 
L 185.44896 139.284164 
L 185.80608 140.22551 
L 186.52032 146.043324 
L 186.87744 145.167861 
L 187.23456 141.018341 
L 187.59168 141.644789 
L 187.9488 142.532536 
L 188.30592 139.958628 
L 188.66304 136.429973 
L 189.02016 135.303819 
L 189.37728 138.83024 
L 189.7344 134.168172 
L 190.09152 138.985456 
L 190.44864 133.802465 
L 190.80576 134.763912 
L 191.16288 144.453755 
L 191.52 142.774294 
L 191.87712 136.615339 
L 192.23424 135.644401 
L 192.59136 138.184809 
L 192.94848 134.602554 
L 193.3056 142.494011 
L 193.66272 137.428828 
L 194.01984 139.537088 
L 194.37696 132.087829 
L 194.73408 139.841937 
L 195.0912 136.934146 
L 195.44832 137.218337 
L 195.80544 139.839145 
L 196.16256 132.050979 
L 196.51968 139.632004 
L 196.8768 136.72198 
L 197.23392 140.993775 
L 197.59104 131.745572 
L 197.94816 132.077779 
L 198.30528 131.246424 
L 198.6624 140.291952 
L 199.01952 131.518331 
L 199.37664 133.818099 
L 200.09088 131.781864 
L 200.448 138.980431 
L 200.80512 134.047014 
L 201.16224 138.456716 
L 201.51936 138.700149 
L 201.87648 134.246897 
L 202.2336 137.447253 
L 202.59072 136.052541 
L 202.94784 138.589041 
L 203.30496 132.061588 
L 203.66208 131.676897 
L 204.0192 130.142044 
L 204.37632 129.708221 
L 204.73344 127.802077 
L 205.09056 134.379222 
L 205.44768 127.132079 
L 205.8048 132.734935 
L 206.16192 135.046986 
L 206.51904 134.320597 
L 206.87616 131.610456 
L 207.23328 134.432263 
L 207.5904 136.314957 
L 207.94752 126.780889 
L 208.30464 132.464145 
L 208.66176 135.589126 
L 209.01888 129.753445 
L 209.376 128.816565 
L 209.73312 129.961703 
L 210.09024 132.95436 
L 210.44736 133.648924 
L 210.80448 130.33411 
L 211.1616 125.816092 
L 211.51872 133.516041 
L 211.87584 134.591388 
L 212.23296 126.645772 
L 212.59008 126.818855 
L 212.9472 132.52277 
L 213.30432 123.616824 
L 213.66144 128.234226 
L 214.01856 130.459735 
L 214.37568 124.235456 
L 214.7328 125.449268 
L 215.08992 128.120326 
L 215.44704 124.765312 
L 215.80416 130.466993 
L 216.16128 121.715147 
L 216.5184 132.83711 
L 216.87552 128.296759 
L 217.23264 130.128644 
L 217.58976 120.939067 
L 217.94688 131.587564 
L 218.304 123.246092 
L 218.66112 128.118093 
L 219.01824 131.30784 
L 219.37536 123.153967 
L 219.73248 121.556581 
L 220.0896 121.629164 
L 220.44672 128.323 
L 220.80384 128.998581 
L 221.16096 130.47146 
L 221.51808 118.494691 
L 221.8752 122.786027 
L 222.23232 125.503985 
L 222.58944 122.778769 
L 222.94656 125.889792 
L 223.30368 129.993528 
L 223.6608 120.190902 
L 224.01792 122.583911 
L 224.37504 118.531541 
L 224.73216 121.103216 
L 225.08928 126.767489 
L 225.4464 121.126666 
L 225.80352 123.295225 
L 226.16064 124.046181 
L 226.51776 116.198274 
L 226.87488 127.771369 
L 227.232 117.592986 
L 227.58912 119.315997 
L 227.94624 116.227307 
L 228.30336 115.411027 
L 228.66048 126.441982 
L 229.37472 118.585699 
L 229.73184 116.462923 
L 230.08896 124.563196 
L 230.44608 126.066224 
L 230.8032 122.90216 
L 231.16032 115.555635 
L 231.51744 116.878322 
L 231.87456 125.143861 
L 232.23168 116.581289 
L 232.5888 121.360048 
L 232.94592 118.99719 
L 233.30304 114.377555 
L 233.66016 121.461665 
L 234.01728 118.260751 
L 234.3744 118.135126 
L 234.73152 123.418058 
L 235.08864 120.339977 
L 235.44576 112.676319 
L 235.80288 115.99895 
L 236.16 123.620174 
L 236.51712 116.134624 
L 236.87424 112.213462 
L 237.58848 120.726901 
L 237.9456 123.402425 
L 238.30272 112.403295 
L 238.65984 123.466075 
L 239.01696 112.79971 
L 239.37408 112.310612 
L 239.7312 116.318315 
L 240.08832 117.289254 
L 240.44544 121.816764 
L 240.80256 120.475093 
L 241.15968 114.124631 
L 241.5168 113.584724 
L 242.23104 119.968128 
L 242.58816 117.365745 
L 242.94528 110.530651 
L 243.3024 120.706801 
L 243.65952 109.182839 
L 244.01664 119.51923 
L 244.37376 111.194507 
L 244.73088 120.380177 
L 245.088 115.635476 
L 245.44512 120.179177 
L 245.80224 112.238029 
L 246.15936 116.207207 
L 246.51648 112.646169 
L 246.8736 118.881615 
L 247.23072 120.28861 
L 247.58784 109.896945 
L 247.94496 110.201236 
L 248.30208 111.923688 
L 248.6592 110.295035 
L 249.01632 112.870619 
L 249.37344 114.055956 
L 249.73056 110.657951 
L 250.08768 113.161509 
L 250.4448 117.013438 
L 250.80192 118.91344 
L 251.15904 116.177057 
L 251.51616 107.832794 
L 251.87328 107.648544 
L 252.2304 111.981196 
L 252.58752 108.45645 
L 252.94464 112.395478 
L 253.30176 114.103973 
L 253.65888 106.942255 
L 254.016 109.06559 
L 254.37312 112.709819 
L 254.73024 107.35877 
L 255.08736 108.036585 
L 255.44448 104.49118 
L 255.8016 109.517838 
L 256.15872 104.055123 
L 256.87296 109.88187 
L 257.23008 107.987452 
L 257.5872 108.401733 
L 257.94432 115.97215 
L 258.30144 105.321419 
L 258.65856 111.574173 
L 259.01568 105.487243 
L 259.3728 108.222509 
L 259.72992 107.351512 
L 260.08704 114.494805 
L 260.44416 114.538913 
L 260.80128 106.32474 
L 261.1584 106.512898 
L 261.51552 108.800382 
L 261.87264 108.81434 
L 262.22976 110.261536 
L 262.58688 109.185072 
L 262.944 102.149538 
L 263.30112 103.199201 
L 263.65824 103.375075 
L 264.01536 109.467588 
L 264.37248 106.237082 
L 264.7296 105.771992 
L 265.44384 110.416752 
L 265.80096 110.546285 
L 266.15808 111.473115 
L 266.5152 110.819309 
L 266.87232 100.910042 
L 267.22944 108.503908 
L 267.58656 108.206317 
L 267.94368 112.573586 
L 268.3008 109.668588 
L 269.01504 101.635314 
L 269.37216 100.254002 
L 269.72928 108.177843 
L 270.0864 103.404108 
L 270.44352 109.913695 
L 270.80064 103.442633 
L 271.15776 109.350339 
L 271.51488 97.644919 
L 271.872 104.072431 
L 272.22912 107.823302 
L 272.58624 98.251826 
L 272.94336 110.073378 
L 273.30048 110.587601 
L 273.6576 96.85488 
L 274.37184 106.742372 
L 274.72896 100.461143 
L 275.08608 107.283396 
L 275.4432 107.925477 
L 275.80032 98.956998 
L 276.15744 107.85401 
L 276.51456 106.099733 
L 276.87168 98.993848 
L 277.2288 100.800609 
L 277.58592 96.368015 
L 277.94304 103.437608 
L 278.30016 101.042366 
L 278.65728 104.547571 
L 279.0144 103.997057 
L 279.37152 106.761356 
L 279.72864 101.582831 
L 280.08576 101.510806 
L 280.44288 102.32932 
L 281.15712 105.669259 
L 281.51424 106.223682 
L 282.22848 104.940078 
L 282.5856 103.52415 
L 282.94272 93.231867 
L 283.29984 100.630318 
L 283.65696 99.025115 
L 284.01408 98.897257 
L 284.72832 106.320274 
L 285.08544 93.383175 
L 285.44256 106.474932 
L 285.79968 105.46826 
L 286.1568 101.889914 
L 286.51392 91.97618 
L 286.87104 95.620968 
L 287.22816 94.720379 
L 287.58528 95.99505 
L 287.9424 95.05147 
L 288.29952 95.167044 
L 288.65664 95.082736 
L 289.01376 101.57334 
L 289.37088 93.981148 
L 289.728 93.393784 
L 290.08512 91.368157 
L 290.44224 93.656758 
L 290.79936 101.507456 
L 291.15648 91.846647 
L 291.5136 94.617088 
L 291.87072 91.894664 
L 292.22784 92.748911 
L 292.58496 101.332699 
L 292.94208 99.911187 
L 293.2992 101.322649 
L 293.65632 93.4016 
L 294.01344 98.257967 
L 294.37056 93.412209 
L 294.72768 101.566081 
L 295.0848 100.720767 
L 295.44192 92.210679 
L 295.79904 93.203951 
L 296.15616 96.509832 
L 296.51328 101.739722 
L 296.8704 97.183179 
L 297.22752 97.032988 
L 297.58464 95.207244 
L 297.94176 91.382674 
L 298.29888 93.096193 
L 298.656 100.534285 
L 299.01312 94.793521 
L 299.37024 98.019001 
L 299.72736 99.859262 
L 300.08448 94.517705 
L 300.4416 94.016323 
L 300.79872 100.018386 
L 301.15584 93.158726 
L 301.51296 93.946532 
L 301.87008 91.463632 
L 302.2272 92.854435 
L 302.58432 86.357132 
L 302.94144 86.58549 
L 303.29856 98.332225 
L 303.65568 88.942765 
L 304.0128 94.799662 
L 304.36992 88.211909 
L 304.72704 92.483703 
L 305.08416 95.122936 
L 305.44128 88.125926 
L 305.7984 90.973417 
L 306.15552 85.990867 
L 306.51264 89.772446 
L 306.86976 87.299596 
L 307.22688 88.362659 
L 307.584 87.797627 
L 307.94112 93.724316 
L 308.29824 97.344537 
L 308.65536 88.503917 
L 309.01248 85.251077 
L 309.3696 91.176091 
L 309.72672 93.570775 
L 310.08384 89.750671 
L 310.44096 96.865489 
L 310.79808 86.908205 
L 311.1552 92.465278 
L 311.51232 95.062636 
L 311.86944 93.948207 
L 312.22656 88.684258 
L 312.9408 92.677444 
L 313.29792 96.778389 
L 313.65504 86.179024 
L 314.01216 87.85681 
L 314.36928 84.669296 
L 314.7264 95.159228 
L 315.08352 83.741908 
L 315.44064 86.563156 
L 315.79776 88.381642 
L 316.15488 92.726019 
L 316.512 87.082405 
L 316.86912 90.469243 
L 317.22624 90.414527 
L 317.58336 92.769011 
L 317.94048 85.894275 
L 318.2976 92.708711 
L 318.65472 91.013617 
L 319.01184 84.669854 
L 319.36896 82.938469 
L 319.72608 82.473937 
L 320.0832 93.718733 
L 320.44032 87.590486 
L 320.79744 85.101445 
L 321.15456 81.414224 
L 321.51168 92.593136 
L 321.8688 80.058036 
L 322.22592 87.960102 
L 322.58304 83.766474 
L 322.94016 87.369387 
L 323.29728 81.03065 
L 323.6544 83.177434 
L 324.01152 90.327986 
L 324.72576 79.027915 
L 325.08288 88.046085 
L 325.44 90.554668 
L 325.79712 80.597943 
L 326.15424 90.608268 
L 326.51136 89.491605 
L 326.86848 78.6181 
L 327.2256 82.962477 
L 327.58272 89.557488 
L 327.93984 89.187873 
L 328.29696 86.706648 
L 328.65408 85.324777 
L 329.0112 79.393622 
L 329.36832 88.350375 
L 329.72544 87.167271 
L 330.08256 80.292536 
L 330.43968 76.833114 
L 330.7968 88.817699 
L 331.15392 85.144436 
L 331.51104 88.138768 
L 331.86816 84.292981 
L 332.22528 78.903965 
L 332.5824 86.688781 
L 332.93952 85.177936 
L 333.29664 80.752601 
L 333.65376 79.854246 
L 334.01088 88.288959 
L 334.368 85.587751 
L 334.72512 89.309031 
L 335.08224 77.613661 
L 335.43936 80.221628 
L 335.79648 78.857624 
L 336.1536 88.448642 
L 336.51072 87.026013 
L 336.86784 78.321067 
L 337.22496 79.077048 
L 337.58208 86.114816 
L 337.9392 88.009235 
L 338.29632 82.687219 
L 338.65344 83.743024 
L 339.01056 76.813572 
L 339.36768 74.04369 
L 339.7248 74.382039 
L 340.08192 79.047457 
L 340.43904 85.228186 
L 340.79616 84.389572 
L 341.15328 88.693191 
L 341.5104 76.722006 
L 342.22464 87.646319 
L 342.58176 73.064377 
L 342.93888 85.921634 
L 343.296 86.832831 
L 343.65312 78.235084 
L 344.36736 78.221126 
L 344.72448 78.802349 
L 345.0816 87.361012 
L 345.43872 75.37196 
L 345.79584 82.055188 
L 346.15296 76.534407 
L 346.51008 86.49169 
L 346.8672 78.40705 
L 347.22432 77.734261 
L 347.58144 85.961833 
L 347.93856 74.12074 
L 348.29568 80.686718 
L 348.6528 84.927804 
L 349.00992 85.659776 
L 349.36704 76.728148 
L 349.72416 83.103735 
L 350.08128 83.552633 
L 350.4384 86.069591 
L 350.79552 71.024792 
L 351.15264 74.06044 
L 351.86688 74.145865 
L 352.224 80.432677 
L 352.58112 83.036177 
L 352.93824 74.283772 
L 353.29536 77.632086 
L 353.65248 77.46347 
L 354.0096 77.708019 
L 354.36672 76.444515 
L 354.72384 80.293094 
L 355.08096 79.379664 
L 355.43808 82.725744 
L 355.7952 71.492115 
L 356.15232 71.273808 
L 356.50944 75.210044 
L 356.86656 69.307922 
L 357.22368 82.775436 
L 357.5808 82.467237 
L 357.93792 69.719413 
L 358.29504 78.483542 
L 358.65216 76.848747 
L 359.3664 68.653 
L 359.72352 75.340136 
L 360.08064 76.43614 
L 360.43776 79.324947 
L 360.79488 69.202398 
L 361.152 68.247651 
L 361.50912 72.435695 
L 361.86624 68.900899 
L 362.22336 76.926355 
L 362.9376 79.852571 
L 363.29472 78.756566 
L 363.65184 80.504143 
L 364.00896 79.439964 
L 364.36608 75.399319 
L 364.7232 73.5116 
L 365.08032 72.942102 
L 365.43744 80.376844 
L 366.15168 74.213981 
L 366.86592 78.964265 
L 367.93728 68.326376 
L 368.2944 79.98992 
L 368.65152 66.146091 
L 369.00864 74.098965 
L 369.36576 73.512717 
L 369.72288 79.014515 
L 370.08 67.673128 
L 370.79424 79.352864 
L 371.15136 74.728763 
L 371.50848 78.994973 
L 371.8656 69.49608 
L 372.22272 66.45429 
L 372.57984 71.047683 
L 372.93696 77.954802 
L 373.29408 67.641861 
L 373.6512 76.88113 
L 374.00832 65.760843 
L 374.36544 65.788759 
L 374.72256 78.413192 
L 375.07968 76.490298 
L 375.4368 66.42749 
L 375.79392 62.997102 
L 376.15104 71.431815 
L 376.50816 70.695376 
L 376.86528 64.844621 
L 377.2224 78.636525 
L 377.57952 71.345274 
L 377.93664 78.510342 
L 378.29376 73.48815 
L 378.65088 75.437285 
L 379.36512 63.03451 
L 379.72224 65.277328 
L 380.07936 68.719441 
L 380.43648 70.671368 
L 380.7936 69.916504 
L 381.15072 71.017533 
L 381.50784 76.1285 
L 381.86496 67.205246 
L 382.22208 67.945035 
L 382.5792 66.694373 
L 382.93632 67.138246 
L 383.29344 69.592113 
L 383.65056 68.802632 
L 384.00768 76.137991 
L 384.3648 73.751124 
L 385.07904 66.249383 
L 385.43616 72.47422 
L 385.79328 71.767373 
L 386.1504 64.417497 
L 386.50752 63.293576 
L 386.86464 74.655063 
L 387.22176 72.724353 
L 387.57888 73.092851 
L 387.936 65.08247 
L 388.29312 70.882417 
L 388.65024 65.931134 
L 389.00736 62.600128 
L 389.36448 73.532258 
L 389.7216 66.634631 
L 390.07872 65.408535 
L 390.43584 73.200609 
L 390.79296 62.788844 
L 391.15008 70.253736 
L 391.5072 59.067007 
L 391.86432 73.591441 
L 392.22144 74.163731 
L 393.2928 60.553843 
L 393.64992 63.6403 
L 394.00704 72.08283 
L 394.36416 71.322382 
L 394.72128 63.784349 
L 395.0784 72.755619 
L 395.43552 61.319316 
L 395.79264 59.367389 
L 396.14976 69.802604 
L 396.50688 73.221826 
L 396.864 63.508533 
L 397.22112 59.010057 
L 397.57824 64.087523 
L 397.93536 71.665198 
L 398.29248 63.360576 
L 398.6496 67.557553 
L 399.00672 64.528605 
L 399.36384 58.359042 
L 399.72096 66.740156 
L 400.4352 56.152516 
L 400.79232 70.325761 
L 401.14944 67.610595 
L 401.50656 63.581117 
L 401.86368 63.386259 
L 402.2208 65.244944 
L 402.57792 60.098245 
L 402.93504 70.147095 
L 403.29216 59.064773 
L 403.64928 68.632341 
L 404.0064 71.374866 
L 404.36352 67.774186 
L 404.72064 71.059408 
L 405.07776 64.938979 
L 405.43488 68.4118 
L 405.792 63.604008 
L 406.14912 68.753499 
L 406.50624 56.989455 
L 406.86336 62.005505 
L 407.22048 58.762716 
L 407.5776 69.254881 
L 407.93472 63.233834 
L 408.29184 65.141653 
L 408.64896 55.366944 
L 409.00608 59.360131 
L 409.3632 59.623105 
L 409.72032 59.682288 
L 410.07744 58.332242 
L 410.43456 58.442234 
L 410.79168 53.776258 
L 411.1488 56.622631 
L 411.50592 64.064632 
L 411.86304 56.944789 
L 412.22016 61.788314 
L 412.57728 55.786809 
L 412.9344 68.659141 
L 413.29152 58.752108 
L 413.64864 56.545023 
L 414.00576 58.720283 
L 414.36288 53.866707 
L 414.72 53.568 
L 414.72 53.568 
" style="fill:none;stroke:#000080;stroke-linecap:square;stroke-width:0.5;"/>
   </g>
   <g id="patch_3">
    <path d="M 57.6 307.584 
L 57.6 41.472 
" style="fill:none;stroke:#000000;stroke-linecap:square;stroke-linejoin:miter;stroke-width:0.8;"/>
   </g>
   <g id="patch_4">
    <path d="M 414.72 307.584 
L 414.72 41.472 
" style="fill:none;stroke:#000000;stroke-linecap:square;stroke-linejoin:miter;stroke-width:0.8;"/>
   </g>
   <g id="patch_5">
    <path d="M 57.6 307.584 
L 414.72 307.584 
" style="fill:none;stroke:#000000;stroke-linecap:square;stroke-linejoin:miter;stroke-width:0.8;"/>
   </g>
   <g id="patch_6">
    <path d="M 57.6 41.472 
L 414.72 41.472 
" style="fill:none;stroke:#000000;stroke-linecap:square;stroke-linejoin:miter;stroke-width:0.8;"/>
   </g>
   <g id="text_14">
    <!-- Test -->
    <defs>
     <path d="M -0.296875 72.90625 
L 61.375 72.90625 
L 61.375 64.59375 
L 35.5 64.59375 
L 35.5 0 
L 25.59375 0 
L 25.59375 64.59375 
L -0.296875 64.59375 
z
" id="DejaVuSans-54"/>
    </defs>
    <g transform="translate(223.341563 35.472)scale(0.12 -0.12)">
     <use xlink:href="#DejaVuSans-54"/>
     <use x="60.818359" xlink:href="#DejaVuSans-65"/>
     <use x="122.341797" xlink:href="#DejaVuSans-73"/>
     <use x="174.441406" xlink:href="#DejaVuSans-74"/>
    </g>
   </g>
   <g id="legend_1">
    <g id="patch_7">
     <path d="M 64.6 64.150125 
L 306.276563 64.150125 
Q 308.276563 64.150125 308.276563 62.150125 
L 308.276563 48.472 
Q 308.276563 46.472 306.276563 46.472 
L 64.6 46.472 
Q 62.6 46.472 62.6 48.472 
L 62.6 62.150125 
Q 62.6 64.150125 64.6 64.150125 
z
" style="fill:#ffffff;opacity:0.8;stroke:#cccccc;stroke-linejoin:miter;"/>
    </g>
    <g id="line2d_24">
     <path d="M 66.6 54.570438 
L 86.6 54.570438 
" style="fill:none;stroke:#000080;stroke-linecap:square;stroke-width:0.5;"/>
    </g>
    <g id="line2d_25"/>
    <g id="text_15">
     <!-- Successful download requests per second -->
     <g transform="translate(94.6 58.070438)scale(0.1 -0.1)">
      <use xlink:href="#DejaVuSans-53"/>
      <use x="63.476562" xlink:href="#DejaVuSans-75"/>
      <use x="126.855469" xlink:href="#DejaVuSans-63"/>
      <use x="181.835938" xlink:href="#DejaVuSans-63"/>
      <use x="236.816406" xlink:href="#DejaVuSans-65"/>
      <use x="298.339844" xlink:href="#DejaVuSans-73"/>
      <use x="350.439453" xlink:href="#DejaVuSans-73"/>
      <use x="402.539062" xlink:href="#DejaVuSans-66"/>
      <use x="437.744141" xlink:href="#DejaVuSans-75"/>
      <use x="501.123047" xlink:href="#DejaVuSans-6c"/>
      <use x="528.90625" xlink:href="#DejaVuSans-20"/>
      <use x="560.693359" xlink:href="#DejaVuSans-64"/>
      <use x="624.169922" xlink:href="#DejaVuSans-6f"/>
      <use x="685.351562" xlink:href="#DejaVuSans-77"/>
      <use x="767.138672" xlink:href="#DejaVuSans-6e"/>
      <use x="830.517578" xlink:href="#DejaVuSans-6c"/>
      <use x="858.300781" xlink:href="#DejaVuSans-6f"/>
      <use x="919.482422" xlink:href="#DejaVuSans-61"/>
      <use x="980.761719" xlink:href="#DejaVuSans-64"/>
      <use x="1044.238281" xlink:href="#DejaVuSans-20"/>
      <use x="1076.025391" xlink:href="#DejaVuSans-72"/>
      <use x="1117.107422" xlink:href="#DejaVuSans-65"/>
      <use x="1178.630859" xlink:href="#DejaVuSans-71"/>
      <use x="1242.107422" xlink:href="#DejaVuSans-75"/>
      <use x="1305.486328" xlink:href="#DejaVuSans-65"/>
      <use x="1367.009766" xlink:href="#DejaVuSans-73"/>
      <use x="1419.109375" xlink:href="#DejaVuSans-74"/>
      <use x="1458.318359" xlink:href="#DejaVuSans-73"/>
      <use x="1510.417969" xlink:href="#DejaVuSans-20"/>
      <use x="1542.205078" xlink:href="#DejaVuSans-70"/>
      <use x="1605.681641" xlink:href="#DejaVuSans-65"/>
      <use x="1667.205078" xlink:href="#DejaVuSans-72"/>
      <use x="1708.318359" xlink:href="#DejaVuSans-20"/>
      <use x="1740.105469" xlink:href="#DejaVuSans-73"/>
      <use x="1792.205078" xlink:href="#DejaVuSans-65"/>
      <use x="1853.728516" xlink:href="#DejaVuSans-63"/>
      <use x="1908.708984" xlink:href="#DejaVuSans-6f"/>
      <use x="1969.890625" xlink:href="#DejaVuSans-6e"/>
      <use x="2033.269531" xlink:href="#DejaVuSans-64"/>
     </g>
    </g>
   </g>
  </g>
 </g>
 <defs>
  <clipPath id="p945c97a968">
   <rect height="266.112" width="357.12" x="57.6" y="41.472"/>
  </clipPath>
 </defs>
</svg>
