<?xml version="1.0" encoding="utf-8" standalone="no"?>
<!DOCTYPE svg PUBLIC "-//W3C//DTD SVG 1.1//EN"
  "http://www.w3.org/Graphics/SVG/1.1/DTD/svg11.dtd">
<!-- Created with matplotlib (http://matplotlib.org/) -->
<svg height="345pt" version="1.1" viewBox="0 0 460 345" width="460pt" xmlns="http://www.w3.org/2000/svg" xmlns:xlink="http://www.w3.org/1999/xlink">
 <defs>
  <style type="text/css">
*{stroke-linecap:butt;stroke-linejoin:round;}
  </style>
 </defs>
 <g id="figure_1">
  <g id="patch_1">
   <path d="M 0 345.6 
L 460.8 345.6 
L 460.8 0 
L 0 0 
z
" style="fill:#ffffff;"/>
  </g>
  <g id="axes_1">
   <g id="patch_2">
    <path d="M 57.6 307.584 
L 414.72 307.584 
L 414.72 41.472 
L 57.6 41.472 
z
" style="fill:#ffffff;"/>
   </g>
   <g id="matplotlib.axis_1">
    <g id="xtick_1">
     <g id="line2d_1">
      <path clip-path="url(#pd679e56014)" d="M 57.6 307.584 
L 57.6 41.472 
" style="fill:none;stroke:#b0b0b0;stroke-linecap:square;stroke-width:0.8;"/>
     </g>
     <g id="line2d_2">
      <defs>
       <path d="M 0 0 
L 0 3.5 
" id="meb9fdcd938" style="stroke:#000000;stroke-width:0.8;"/>
      </defs>
      <g>
       <use style="stroke:#000000;stroke-width:0.8;" x="57.6" xlink:href="#meb9fdcd938" y="307.584"/>
      </g>
     </g>
     <g id="text_1">
      <!-- 0 -->
      <defs>
       <path d="M 31.78125 66.40625 
Q 24.171875 66.40625 20.328125 58.90625 
Q 16.5 51.421875 16.5 36.375 
Q 16.5 21.390625 20.328125 13.890625 
Q 24.171875 6.390625 31.78125 6.390625 
Q 39.453125 6.390625 43.28125 13.890625 
Q 47.125 21.390625 47.125 36.375 
Q 47.125 51.421875 43.28125 58.90625 
Q 39.453125 66.40625 31.78125 66.40625 
M 31.78125 74.21875 
Q 44.046875 74.21875 50.515625 64.515625 
Q 56.984375 54.828125 56.984375 36.375 
Q 56.984375 17.96875 50.515625 8.265625 
Q 44.046875 -1.421875 31.78125 -1.421875 
Q 19.53125 -1.421875 13.0625 8.265625 
Q 6.59375 17.96875 6.59375 36.375 
Q 6.59375 54.828125 13.0625 64.515625 
Q 19.53125 74.21875 31.78125 74.21875 
" id="DejaVuSans-30"/>
      </defs>
      <g transform="translate(54.41875 322.182437)scale(0.1 -0.1)">
       <use xlink:href="#DejaVuSans-30"/>
      </g>
     </g>
    </g>
    <g id="xtick_2">
     <g id="line2d_3">
      <path clip-path="url(#pd679e56014)" d="M 129.024 307.584 
L 129.024 41.472 
" style="fill:none;stroke:#b0b0b0;stroke-linecap:square;stroke-width:0.8;"/>
     </g>
     <g id="line2d_4">
      <g>
       <use style="stroke:#000000;stroke-width:0.8;" x="129.024" xlink:href="#meb9fdcd938" y="307.584"/>
      </g>
     </g>
     <g id="text_2">
      <!-- 200 -->
      <defs>
       <path d="M 19.1875 8.296875 
L 53.609375 8.296875 
L 53.609375 0 
L 7.328125 0 
L 7.328125 8.296875 
Q 12.9375 14.109375 22.625 23.890625 
Q 32.328125 33.6875 34.8125 36.53125 
Q 39.546875 41.84375 41.421875 45.53125 
Q 43.3125 49.21875 43.3125 52.78125 
Q 43.3125 58.59375 39.234375 62.25 
Q 35.15625 65.921875 28.609375 65.921875 
Q 23.96875 65.921875 18.8125 64.3125 
Q 13.671875 62.703125 7.8125 59.421875 
L 7.8125 69.390625 
Q 13.765625 71.78125 18.9375 73 
Q 24.125 74.21875 28.421875 74.21875 
Q 39.75 74.21875 46.484375 68.546875 
Q 53.21875 62.890625 53.21875 53.421875 
Q 53.21875 48.921875 51.53125 44.890625 
Q 49.859375 40.875 45.40625 35.40625 
Q 44.1875 33.984375 37.640625 27.21875 
Q 31.109375 20.453125 19.1875 8.296875 
" id="DejaVuSans-32"/>
      </defs>
      <g transform="translate(119.48025 322.182437)scale(0.1 -0.1)">
       <use xlink:href="#DejaVuSans-32"/>
       <use x="63.623047" xlink:href="#DejaVuSans-30"/>
       <use x="127.246094" xlink:href="#DejaVuSans-30"/>
      </g>
     </g>
    </g>
    <g id="xtick_3">
     <g id="line2d_5">
      <path clip-path="url(#pd679e56014)" d="M 200.448 307.584 
L 200.448 41.472 
" style="fill:none;stroke:#b0b0b0;stroke-linecap:square;stroke-width:0.8;"/>
     </g>
     <g id="line2d_6">
      <g>
       <use style="stroke:#000000;stroke-width:0.8;" x="200.448" xlink:href="#meb9fdcd938" y="307.584"/>
      </g>
     </g>
     <g id="text_3">
      <!-- 400 -->
      <defs>
       <path d="M 37.796875 64.3125 
L 12.890625 25.390625 
L 37.796875 25.390625 
z
M 35.203125 72.90625 
L 47.609375 72.90625 
L 47.609375 25.390625 
L 58.015625 25.390625 
L 58.015625 17.1875 
L 47.609375 17.1875 
L 47.609375 0 
L 37.796875 0 
L 37.796875 17.1875 
L 4.890625 17.1875 
L 4.890625 26.703125 
z
" id="DejaVuSans-34"/>
      </defs>
      <g transform="translate(190.90425 322.182437)scale(0.1 -0.1)">
       <use xlink:href="#DejaVuSans-34"/>
       <use x="63.623047" xlink:href="#DejaVuSans-30"/>
       <use x="127.246094" xlink:href="#DejaVuSans-30"/>
      </g>
     </g>
    </g>
    <g id="xtick_4">
     <g id="line2d_7">
      <path clip-path="url(#pd679e56014)" d="M 271.872 307.584 
L 271.872 41.472 
" style="fill:none;stroke:#b0b0b0;stroke-linecap:square;stroke-width:0.8;"/>
     </g>
     <g id="line2d_8">
      <g>
       <use style="stroke:#000000;stroke-width:0.8;" x="271.872" xlink:href="#meb9fdcd938" y="307.584"/>
      </g>
     </g>
     <g id="text_4">
      <!-- 600 -->
      <defs>
       <path d="M 33.015625 40.375 
Q 26.375 40.375 22.484375 35.828125 
Q 18.609375 31.296875 18.609375 23.390625 
Q 18.609375 15.53125 22.484375 10.953125 
Q 26.375 6.390625 33.015625 6.390625 
Q 39.65625 6.390625 43.53125 10.953125 
Q 47.40625 15.53125 47.40625 23.390625 
Q 47.40625 31.296875 43.53125 35.828125 
Q 39.65625 40.375 33.015625 40.375 
M 52.59375 71.296875 
L 52.59375 62.3125 
Q 48.875 64.0625 45.09375 64.984375 
Q 41.3125 65.921875 37.59375 65.921875 
Q 27.828125 65.921875 22.671875 59.328125 
Q 17.53125 52.734375 16.796875 39.40625 
Q 19.671875 43.65625 24.015625 45.921875 
Q 28.375 48.1875 33.59375 48.1875 
Q 44.578125 48.1875 50.953125 41.515625 
Q 57.328125 34.859375 57.328125 23.390625 
Q 57.328125 12.15625 50.6875 5.359375 
Q 44.046875 -1.421875 33.015625 -1.421875 
Q 20.359375 -1.421875 13.671875 8.265625 
Q 6.984375 17.96875 6.984375 36.375 
Q 6.984375 53.65625 15.1875 63.9375 
Q 23.390625 74.21875 37.203125 74.21875 
Q 40.921875 74.21875 44.703125 73.484375 
Q 48.484375 72.75 52.59375 71.296875 
" id="DejaVuSans-36"/>
      </defs>
      <g transform="translate(262.32825 322.182437)scale(0.1 -0.1)">
       <use xlink:href="#DejaVuSans-36"/>
       <use x="63.623047" xlink:href="#DejaVuSans-30"/>
       <use x="127.246094" xlink:href="#DejaVuSans-30"/>
      </g>
     </g>
    </g>
    <g id="xtick_5">
     <g id="line2d_9">
      <path clip-path="url(#pd679e56014)" d="M 343.296 307.584 
L 343.296 41.472 
" style="fill:none;stroke:#b0b0b0;stroke-linecap:square;stroke-width:0.8;"/>
     </g>
     <g id="line2d_10">
      <g>
       <use style="stroke:#000000;stroke-width:0.8;" x="343.296" xlink:href="#meb9fdcd938" y="307.584"/>
      </g>
     </g>
     <g id="text_5">
      <!-- 800 -->
      <defs>
       <path d="M 31.78125 34.625 
Q 24.75 34.625 20.71875 30.859375 
Q 16.703125 27.09375 16.703125 20.515625 
Q 16.703125 13.921875 20.71875 10.15625 
Q 24.75 6.390625 31.78125 6.390625 
Q 38.8125 6.390625 42.859375 10.171875 
Q 46.921875 13.96875 46.921875 20.515625 
Q 46.921875 27.09375 42.890625 30.859375 
Q 38.875 34.625 31.78125 34.625 
M 21.921875 38.8125 
Q 15.578125 40.375 12.03125 44.71875 
Q 8.5 49.078125 8.5 55.328125 
Q 8.5 64.0625 14.71875 69.140625 
Q 20.953125 74.21875 31.78125 74.21875 
Q 42.671875 74.21875 48.875 69.140625 
Q 55.078125 64.0625 55.078125 55.328125 
Q 55.078125 49.078125 51.53125 44.71875 
Q 48 40.375 41.703125 38.8125 
Q 48.828125 37.15625 52.796875 32.3125 
Q 56.78125 27.484375 56.78125 20.515625 
Q 56.78125 9.90625 50.3125 4.234375 
Q 43.84375 -1.421875 31.78125 -1.421875 
Q 19.734375 -1.421875 13.25 4.234375 
Q 6.78125 9.90625 6.78125 20.515625 
Q 6.78125 27.484375 10.78125 32.3125 
Q 14.796875 37.15625 21.921875 38.8125 
M 18.3125 54.390625 
Q 18.3125 48.734375 21.84375 45.5625 
Q 25.390625 42.390625 31.78125 42.390625 
Q 38.140625 42.390625 41.71875 45.5625 
Q 45.3125 48.734375 45.3125 54.390625 
Q 45.3125 60.0625 41.71875 63.234375 
Q 38.140625 66.40625 31.78125 66.40625 
Q 25.390625 66.40625 21.84375 63.234375 
Q 18.3125 60.0625 18.3125 54.390625 
" id="DejaVuSans-38"/>
      </defs>
      <g transform="translate(333.75225 322.182437)scale(0.1 -0.1)">
       <use xlink:href="#DejaVuSans-38"/>
       <use x="63.623047" xlink:href="#DejaVuSans-30"/>
       <use x="127.246094" xlink:href="#DejaVuSans-30"/>
      </g>
     </g>
    </g>
    <g id="xtick_6">
     <g id="line2d_11">
      <path clip-path="url(#pd679e56014)" d="M 414.72 307.584 
L 414.72 41.472 
" style="fill:none;stroke:#b0b0b0;stroke-linecap:square;stroke-width:0.8;"/>
     </g>
     <g id="line2d_12">
      <g>
       <use style="stroke:#000000;stroke-width:0.8;" x="414.72" xlink:href="#meb9fdcd938" y="307.584"/>
      </g>
     </g>
     <g id="text_6">
      <!-- 1000 -->
      <defs>
       <path d="M 12.40625 8.296875 
L 28.515625 8.296875 
L 28.515625 63.921875 
L 10.984375 60.40625 
L 10.984375 69.390625 
L 28.421875 72.90625 
L 38.28125 72.90625 
L 38.28125 8.296875 
L 54.390625 8.296875 
L 54.390625 0 
L 12.40625 0 
z
" id="DejaVuSans-31"/>
      </defs>
      <g transform="translate(401.995 322.182437)scale(0.1 -0.1)">
       <use xlink:href="#DejaVuSans-31"/>
       <use x="63.623047" xlink:href="#DejaVuSans-30"/>
       <use x="127.246094" xlink:href="#DejaVuSans-30"/>
       <use x="190.869141" xlink:href="#DejaVuSans-30"/>
      </g>
     </g>
    </g>
    <g id="text_7">
     <!-- Number of clients -->
     <defs>
      <path d="M 9.8125 72.90625 
L 23.09375 72.90625 
L 55.421875 11.921875 
L 55.421875 72.90625 
L 64.984375 72.90625 
L 64.984375 0 
L 51.703125 0 
L 19.390625 60.984375 
L 19.390625 0 
L 9.8125 0 
z
" id="DejaVuSans-4e"/>
      <path d="M 8.5 21.578125 
L 8.5 54.6875 
L 17.484375 54.6875 
L 17.484375 21.921875 
Q 17.484375 14.15625 20.5 10.265625 
Q 23.53125 6.390625 29.59375 6.390625 
Q 36.859375 6.390625 41.078125 11.03125 
Q 45.3125 15.671875 45.3125 23.6875 
L 45.3125 54.6875 
L 54.296875 54.6875 
L 54.296875 0 
L 45.3125 0 
L 45.3125 8.40625 
Q 42.046875 3.421875 37.71875 1 
Q 33.40625 -1.421875 27.6875 -1.421875 
Q 18.265625 -1.421875 13.375 4.4375 
Q 8.5 10.296875 8.5 21.578125 
M 31.109375 56 
z
" id="DejaVuSans-75"/>
      <path d="M 52 44.1875 
Q 55.375 50.25 60.0625 53.125 
Q 64.75 56 71.09375 56 
Q 79.640625 56 84.28125 50.015625 
Q 88.921875 44.046875 88.921875 33.015625 
L 88.921875 0 
L 79.890625 0 
L 79.890625 32.71875 
Q 79.890625 40.578125 77.09375 44.375 
Q 74.3125 48.1875 68.609375 48.1875 
Q 61.625 48.1875 57.5625 43.546875 
Q 53.515625 38.921875 53.515625 30.90625 
L 53.515625 0 
L 44.484375 0 
L 44.484375 32.71875 
Q 44.484375 40.625 41.703125 44.40625 
Q 38.921875 48.1875 33.109375 48.1875 
Q 26.21875 48.1875 22.15625 43.53125 
Q 18.109375 38.875 18.109375 30.90625 
L 18.109375 0 
L 9.078125 0 
L 9.078125 54.6875 
L 18.109375 54.6875 
L 18.109375 46.1875 
Q 21.1875 51.21875 25.484375 53.609375 
Q 29.78125 56 35.6875 56 
Q 41.65625 56 45.828125 52.96875 
Q 50 49.953125 52 44.1875 
" id="DejaVuSans-6d"/>
      <path d="M 48.6875 27.296875 
Q 48.6875 37.203125 44.609375 42.84375 
Q 40.53125 48.484375 33.40625 48.484375 
Q 26.265625 48.484375 22.1875 42.84375 
Q 18.109375 37.203125 18.109375 27.296875 
Q 18.109375 17.390625 22.1875 11.75 
Q 26.265625 6.109375 33.40625 6.109375 
Q 40.53125 6.109375 44.609375 11.75 
Q 48.6875 17.390625 48.6875 27.296875 
M 18.109375 46.390625 
Q 20.953125 51.265625 25.265625 53.625 
Q 29.59375 56 35.59375 56 
Q 45.5625 56 51.78125 48.09375 
Q 58.015625 40.1875 58.015625 27.296875 
Q 58.015625 14.40625 51.78125 6.484375 
Q 45.5625 -1.421875 35.59375 -1.421875 
Q 29.59375 -1.421875 25.265625 0.953125 
Q 20.953125 3.328125 18.109375 8.203125 
L 18.109375 0 
L 9.078125 0 
L 9.078125 75.984375 
L 18.109375 75.984375 
z
" id="DejaVuSans-62"/>
      <path d="M 56.203125 29.59375 
L 56.203125 25.203125 
L 14.890625 25.203125 
Q 15.484375 15.921875 20.484375 11.0625 
Q 25.484375 6.203125 34.421875 6.203125 
Q 39.59375 6.203125 44.453125 7.46875 
Q 49.3125 8.734375 54.109375 11.28125 
L 54.109375 2.78125 
Q 49.265625 0.734375 44.1875 -0.34375 
Q 39.109375 -1.421875 33.890625 -1.421875 
Q 20.796875 -1.421875 13.15625 6.1875 
Q 5.515625 13.8125 5.515625 26.8125 
Q 5.515625 40.234375 12.765625 48.109375 
Q 20.015625 56 32.328125 56 
Q 43.359375 56 49.78125 48.890625 
Q 56.203125 41.796875 56.203125 29.59375 
M 47.21875 32.234375 
Q 47.125 39.59375 43.09375 43.984375 
Q 39.0625 48.390625 32.421875 48.390625 
Q 24.90625 48.390625 20.390625 44.140625 
Q 15.875 39.890625 15.1875 32.171875 
z
" id="DejaVuSans-65"/>
      <path d="M 41.109375 46.296875 
Q 39.59375 47.171875 37.8125 47.578125 
Q 36.03125 48 33.890625 48 
Q 26.265625 48 22.1875 43.046875 
Q 18.109375 38.09375 18.109375 28.8125 
L 18.109375 0 
L 9.078125 0 
L 9.078125 54.6875 
L 18.109375 54.6875 
L 18.109375 46.1875 
Q 20.953125 51.171875 25.484375 53.578125 
Q 30.03125 56 36.53125 56 
Q 37.453125 56 38.578125 55.875 
Q 39.703125 55.765625 41.0625 55.515625 
z
" id="DejaVuSans-72"/>
      <path id="DejaVuSans-20"/>
      <path d="M 30.609375 48.390625 
Q 23.390625 48.390625 19.1875 42.75 
Q 14.984375 37.109375 14.984375 27.296875 
Q 14.984375 17.484375 19.15625 11.84375 
Q 23.34375 6.203125 30.609375 6.203125 
Q 37.796875 6.203125 41.984375 11.859375 
Q 46.1875 17.53125 46.1875 27.296875 
Q 46.1875 37.015625 41.984375 42.703125 
Q 37.796875 48.390625 30.609375 48.390625 
M 30.609375 56 
Q 42.328125 56 49.015625 48.375 
Q 55.71875 40.765625 55.71875 27.296875 
Q 55.71875 13.875 49.015625 6.21875 
Q 42.328125 -1.421875 30.609375 -1.421875 
Q 18.84375 -1.421875 12.171875 6.21875 
Q 5.515625 13.875 5.515625 27.296875 
Q 5.515625 40.765625 12.171875 48.375 
Q 18.84375 56 30.609375 56 
" id="DejaVuSans-6f"/>
      <path d="M 37.109375 75.984375 
L 37.109375 68.5 
L 28.515625 68.5 
Q 23.6875 68.5 21.796875 66.546875 
Q 19.921875 64.59375 19.921875 59.515625 
L 19.921875 54.6875 
L 34.71875 54.6875 
L 34.71875 47.703125 
L 19.921875 47.703125 
L 19.921875 0 
L 10.890625 0 
L 10.890625 47.703125 
L 2.296875 47.703125 
L 2.296875 54.6875 
L 10.890625 54.6875 
L 10.890625 58.5 
Q 10.890625 67.625 15.140625 71.796875 
Q 19.390625 75.984375 28.609375 75.984375 
z
" id="DejaVuSans-66"/>
      <path d="M 48.78125 52.59375 
L 48.78125 44.1875 
Q 44.96875 46.296875 41.140625 47.34375 
Q 37.3125 48.390625 33.40625 48.390625 
Q 24.65625 48.390625 19.8125 42.84375 
Q 14.984375 37.3125 14.984375 27.296875 
Q 14.984375 17.28125 19.8125 11.734375 
Q 24.65625 6.203125 33.40625 6.203125 
Q 37.3125 6.203125 41.140625 7.25 
Q 44.96875 8.296875 48.78125 10.40625 
L 48.78125 2.09375 
Q 45.015625 0.34375 40.984375 -0.53125 
Q 36.96875 -1.421875 32.421875 -1.421875 
Q 20.0625 -1.421875 12.78125 6.34375 
Q 5.515625 14.109375 5.515625 27.296875 
Q 5.515625 40.671875 12.859375 48.328125 
Q 20.21875 56 33.015625 56 
Q 37.15625 56 41.109375 55.140625 
Q 45.0625 54.296875 48.78125 52.59375 
" id="DejaVuSans-63"/>
      <path d="M 9.421875 75.984375 
L 18.40625 75.984375 
L 18.40625 0 
L 9.421875 0 
z
" id="DejaVuSans-6c"/>
      <path d="M 9.421875 54.6875 
L 18.40625 54.6875 
L 18.40625 0 
L 9.421875 0 
z
M 9.421875 75.984375 
L 18.40625 75.984375 
L 18.40625 64.59375 
L 9.421875 64.59375 
z
" id="DejaVuSans-69"/>
      <path d="M 54.890625 33.015625 
L 54.890625 0 
L 45.90625 0 
L 45.90625 32.71875 
Q 45.90625 40.484375 42.875 44.328125 
Q 39.84375 48.1875 33.796875 48.1875 
Q 26.515625 48.1875 22.3125 43.546875 
Q 18.109375 38.921875 18.109375 30.90625 
L 18.109375 0 
L 9.078125 0 
L 9.078125 54.6875 
L 18.109375 54.6875 
L 18.109375 46.1875 
Q 21.34375 51.125 25.703125 53.5625 
Q 30.078125 56 35.796875 56 
Q 45.21875 56 50.046875 50.171875 
Q 54.890625 44.34375 54.890625 33.015625 
" id="DejaVuSans-6e"/>
      <path d="M 18.3125 70.21875 
L 18.3125 54.6875 
L 36.8125 54.6875 
L 36.8125 47.703125 
L 18.3125 47.703125 
L 18.3125 18.015625 
Q 18.3125 11.328125 20.140625 9.421875 
Q 21.96875 7.515625 27.59375 7.515625 
L 36.8125 7.515625 
L 36.8125 0 
L 27.59375 0 
Q 17.1875 0 13.234375 3.875 
Q 9.28125 7.765625 9.28125 18.015625 
L 9.28125 47.703125 
L 2.6875 47.703125 
L 2.6875 54.6875 
L 9.28125 54.6875 
L 9.28125 70.21875 
z
" id="DejaVuSans-74"/>
      <path d="M 44.28125 53.078125 
L 44.28125 44.578125 
Q 40.484375 46.53125 36.375 47.5 
Q 32.28125 48.484375 27.875 48.484375 
Q 21.1875 48.484375 17.84375 46.4375 
Q 14.5 44.390625 14.5 40.28125 
Q 14.5 37.15625 16.890625 35.375 
Q 19.28125 33.59375 26.515625 31.984375 
L 29.59375 31.296875 
Q 39.15625 29.25 43.1875 25.515625 
Q 47.21875 21.78125 47.21875 15.09375 
Q 47.21875 7.46875 41.1875 3.015625 
Q 35.15625 -1.421875 24.609375 -1.421875 
Q 20.21875 -1.421875 15.453125 -0.5625 
Q 10.6875 0.296875 5.421875 2 
L 5.421875 11.28125 
Q 10.40625 8.6875 15.234375 7.390625 
Q 20.0625 6.109375 24.8125 6.109375 
Q 31.15625 6.109375 34.5625 8.28125 
Q 37.984375 10.453125 37.984375 14.40625 
Q 37.984375 18.0625 35.515625 20.015625 
Q 33.0625 21.96875 24.703125 23.78125 
L 21.578125 24.515625 
Q 13.234375 26.265625 9.515625 29.90625 
Q 5.8125 33.546875 5.8125 39.890625 
Q 5.8125 47.609375 11.28125 51.796875 
Q 16.75 56 26.8125 56 
Q 31.78125 56 36.171875 55.265625 
Q 40.578125 54.546875 44.28125 53.078125 
" id="DejaVuSans-73"/>
     </defs>
     <g transform="translate(191.738906 335.860562)scale(0.1 -0.1)">
      <use xlink:href="#DejaVuSans-4e"/>
      <use x="74.804688" xlink:href="#DejaVuSans-75"/>
      <use x="138.183594" xlink:href="#DejaVuSans-6d"/>
      <use x="235.595703" xlink:href="#DejaVuSans-62"/>
      <use x="299.072266" xlink:href="#DejaVuSans-65"/>
      <use x="360.595703" xlink:href="#DejaVuSans-72"/>
      <use x="401.708984" xlink:href="#DejaVuSans-20"/>
      <use x="433.496094" xlink:href="#DejaVuSans-6f"/>
      <use x="494.677734" xlink:href="#DejaVuSans-66"/>
      <use x="529.882812" xlink:href="#DejaVuSans-20"/>
      <use x="561.669922" xlink:href="#DejaVuSans-63"/>
      <use x="616.650391" xlink:href="#DejaVuSans-6c"/>
      <use x="644.433594" xlink:href="#DejaVuSans-69"/>
      <use x="672.216797" xlink:href="#DejaVuSans-65"/>
      <use x="733.740234" xlink:href="#DejaVuSans-6e"/>
      <use x="797.119141" xlink:href="#DejaVuSans-74"/>
      <use x="836.328125" xlink:href="#DejaVuSans-73"/>
     </g>
    </g>
   </g>
   <g id="matplotlib.axis_2">
    <g id="ytick_1">
     <g id="line2d_13">
      <path clip-path="url(#pd679e56014)" d="M 57.6 295.955247 
L 414.72 295.955247 
" style="fill:none;stroke:#b0b0b0;stroke-linecap:square;stroke-width:0.8;"/>
     </g>
     <g id="line2d_14">
      <defs>
       <path d="M 0 0 
L -3.5 0 
" id="m82b6bebc01" style="stroke:#000000;stroke-width:0.8;"/>
      </defs>
      <g>
       <use style="stroke:#000000;stroke-width:0.8;" x="57.6" xlink:href="#m82b6bebc01" y="295.955247"/>
      </g>
     </g>
     <g id="text_8">
      <!-- 0 -->
      <g transform="translate(44.2375 299.754465)scale(0.1 -0.1)">
       <use xlink:href="#DejaVuSans-30"/>
      </g>
     </g>
    </g>
    <g id="ytick_2">
     <g id="line2d_15">
      <path clip-path="url(#pd679e56014)" d="M 57.6 247.334366 
L 414.72 247.334366 
" style="fill:none;stroke:#b0b0b0;stroke-linecap:square;stroke-width:0.8;"/>
     </g>
     <g id="line2d_16">
      <g>
       <use style="stroke:#000000;stroke-width:0.8;" x="57.6" xlink:href="#m82b6bebc01" y="247.334366"/>
      </g>
     </g>
     <g id="text_9">
      <!-- 100 -->
      <g transform="translate(31.5125 251.133584)scale(0.1 -0.1)">
       <use xlink:href="#DejaVuSans-31"/>
       <use x="63.623047" xlink:href="#DejaVuSans-30"/>
       <use x="127.246094" xlink:href="#DejaVuSans-30"/>
      </g>
     </g>
    </g>
    <g id="ytick_3">
     <g id="line2d_17">
      <path clip-path="url(#pd679e56014)" d="M 57.6 198.713485 
L 414.72 198.713485 
" style="fill:none;stroke:#b0b0b0;stroke-linecap:square;stroke-width:0.8;"/>
     </g>
     <g id="line2d_18">
      <g>
       <use style="stroke:#000000;stroke-width:0.8;" x="57.6" xlink:href="#m82b6bebc01" y="198.713485"/>
      </g>
     </g>
     <g id="text_10">
      <!-- 200 -->
      <g transform="translate(31.5125 202.512704)scale(0.1 -0.1)">
       <use xlink:href="#DejaVuSans-32"/>
       <use x="63.623047" xlink:href="#DejaVuSans-30"/>
       <use x="127.246094" xlink:href="#DejaVuSans-30"/>
      </g>
     </g>
    </g>
    <g id="ytick_4">
     <g id="line2d_19">
      <path clip-path="url(#pd679e56014)" d="M 57.6 150.092604 
L 414.72 150.092604 
" style="fill:none;stroke:#b0b0b0;stroke-linecap:square;stroke-width:0.8;"/>
     </g>
     <g id="line2d_20">
      <g>
       <use style="stroke:#000000;stroke-width:0.8;" x="57.6" xlink:href="#m82b6bebc01" y="150.092604"/>
      </g>
     </g>
     <g id="text_11">
      <!-- 300 -->
      <defs>
       <path d="M 40.578125 39.3125 
Q 47.65625 37.796875 51.625 33 
Q 55.609375 28.21875 55.609375 21.1875 
Q 55.609375 10.40625 48.1875 4.484375 
Q 40.765625 -1.421875 27.09375 -1.421875 
Q 22.515625 -1.421875 17.65625 -0.515625 
Q 12.796875 0.390625 7.625 2.203125 
L 7.625 11.71875 
Q 11.71875 9.328125 16.59375 8.109375 
Q 21.484375 6.890625 26.8125 6.890625 
Q 36.078125 6.890625 40.9375 10.546875 
Q 45.796875 14.203125 45.796875 21.1875 
Q 45.796875 27.640625 41.28125 31.265625 
Q 36.765625 34.90625 28.71875 34.90625 
L 20.21875 34.90625 
L 20.21875 43.015625 
L 29.109375 43.015625 
Q 36.375 43.015625 40.234375 45.921875 
Q 44.09375 48.828125 44.09375 54.296875 
Q 44.09375 59.90625 40.109375 62.90625 
Q 36.140625 65.921875 28.71875 65.921875 
Q 24.65625 65.921875 20.015625 65.03125 
Q 15.375 64.15625 9.8125 62.3125 
L 9.8125 71.09375 
Q 15.4375 72.65625 20.34375 73.4375 
Q 25.25 74.21875 29.59375 74.21875 
Q 40.828125 74.21875 47.359375 69.109375 
Q 53.90625 64.015625 53.90625 55.328125 
Q 53.90625 49.265625 50.4375 45.09375 
Q 46.96875 40.921875 40.578125 39.3125 
" id="DejaVuSans-33"/>
      </defs>
      <g transform="translate(31.5125 153.891823)scale(0.1 -0.1)">
       <use xlink:href="#DejaVuSans-33"/>
       <use x="63.623047" xlink:href="#DejaVuSans-30"/>
       <use x="127.246094" xlink:href="#DejaVuSans-30"/>
      </g>
     </g>
    </g>
    <g id="ytick_5">
     <g id="line2d_21">
      <path clip-path="url(#pd679e56014)" d="M 57.6 101.471723 
L 414.72 101.471723 
" style="fill:none;stroke:#b0b0b0;stroke-linecap:square;stroke-width:0.8;"/>
     </g>
     <g id="line2d_22">
      <g>
       <use style="stroke:#000000;stroke-width:0.8;" x="57.6" xlink:href="#m82b6bebc01" y="101.471723"/>
      </g>
     </g>
     <g id="text_12">
      <!-- 400 -->
      <g transform="translate(31.5125 105.270942)scale(0.1 -0.1)">
       <use xlink:href="#DejaVuSans-34"/>
       <use x="63.623047" xlink:href="#DejaVuSans-30"/>
       <use x="127.246094" xlink:href="#DejaVuSans-30"/>
      </g>
     </g>
    </g>
    <g id="ytick_6">
     <g id="line2d_23">
      <path clip-path="url(#pd679e56014)" d="M 57.6 52.850842 
L 414.72 52.850842 
" style="fill:none;stroke:#b0b0b0;stroke-linecap:square;stroke-width:0.8;"/>
     </g>
     <g id="line2d_24">
      <g>
       <use style="stroke:#000000;stroke-width:0.8;" x="57.6" xlink:href="#m82b6bebc01" y="52.850842"/>
      </g>
     </g>
     <g id="text_13">
      <!-- 500 -->
      <defs>
       <path d="M 10.796875 72.90625 
L 49.515625 72.90625 
L 49.515625 64.59375 
L 19.828125 64.59375 
L 19.828125 46.734375 
Q 21.96875 47.46875 24.109375 47.828125 
Q 26.265625 48.1875 28.421875 48.1875 
Q 40.625 48.1875 47.75 41.5 
Q 54.890625 34.8125 54.890625 23.390625 
Q 54.890625 11.625 47.5625 5.09375 
Q 40.234375 -1.421875 26.90625 -1.421875 
Q 22.3125 -1.421875 17.546875 -0.640625 
Q 12.796875 0.140625 7.71875 1.703125 
L 7.71875 11.625 
Q 12.109375 9.234375 16.796875 8.0625 
Q 21.484375 6.890625 26.703125 6.890625 
Q 35.15625 6.890625 40.078125 11.328125 
Q 45.015625 15.765625 45.015625 23.390625 
Q 45.015625 31 40.078125 35.4375 
Q 35.15625 39.890625 26.703125 39.890625 
Q 22.75 39.890625 18.8125 39.015625 
Q 14.890625 38.140625 10.796875 36.28125 
z
" id="DejaVuSans-35"/>
      </defs>
      <g transform="translate(31.5125 56.650061)scale(0.1 -0.1)">
       <use xlink:href="#DejaVuSans-35"/>
       <use x="63.623047" xlink:href="#DejaVuSans-30"/>
       <use x="127.246094" xlink:href="#DejaVuSans-30"/>
      </g>
     </g>
    </g>
    <g id="text_14">
     <!-- Successful download requests per second -->
     <defs>
      <path d="M 53.515625 70.515625 
L 53.515625 60.890625 
Q 47.90625 63.578125 42.921875 64.890625 
Q 37.9375 66.21875 33.296875 66.21875 
Q 25.25 66.21875 20.875 63.09375 
Q 16.5 59.96875 16.5 54.203125 
Q 16.5 49.359375 19.40625 46.890625 
Q 22.3125 44.4375 30.421875 42.921875 
L 36.375 41.703125 
Q 47.40625 39.59375 52.65625 34.296875 
Q 57.90625 29 57.90625 20.125 
Q 57.90625 9.515625 50.796875 4.046875 
Q 43.703125 -1.421875 29.984375 -1.421875 
Q 24.8125 -1.421875 18.96875 -0.25 
Q 13.140625 0.921875 6.890625 3.21875 
L 6.890625 13.375 
Q 12.890625 10.015625 18.65625 8.296875 
Q 24.421875 6.59375 29.984375 6.59375 
Q 38.421875 6.59375 43.015625 9.90625 
Q 47.609375 13.234375 47.609375 19.390625 
Q 47.609375 24.75 44.3125 27.78125 
Q 41.015625 30.8125 33.5 32.328125 
L 27.484375 33.5 
Q 16.453125 35.6875 11.515625 40.375 
Q 6.59375 45.0625 6.59375 53.421875 
Q 6.59375 63.09375 13.40625 68.65625 
Q 20.21875 74.21875 32.171875 74.21875 
Q 37.3125 74.21875 42.625 73.28125 
Q 47.953125 72.359375 53.515625 70.515625 
" id="DejaVuSans-53"/>
      <path d="M 45.40625 46.390625 
L 45.40625 75.984375 
L 54.390625 75.984375 
L 54.390625 0 
L 45.40625 0 
L 45.40625 8.203125 
Q 42.578125 3.328125 38.25 0.953125 
Q 33.9375 -1.421875 27.875 -1.421875 
Q 17.96875 -1.421875 11.734375 6.484375 
Q 5.515625 14.40625 5.515625 27.296875 
Q 5.515625 40.1875 11.734375 48.09375 
Q 17.96875 56 27.875 56 
Q 33.9375 56 38.25 53.625 
Q 42.578125 51.265625 45.40625 46.390625 
M 14.796875 27.296875 
Q 14.796875 17.390625 18.875 11.75 
Q 22.953125 6.109375 30.078125 6.109375 
Q 37.203125 6.109375 41.296875 11.75 
Q 45.40625 17.390625 45.40625 27.296875 
Q 45.40625 37.203125 41.296875 42.84375 
Q 37.203125 48.484375 30.078125 48.484375 
Q 22.953125 48.484375 18.875 42.84375 
Q 14.796875 37.203125 14.796875 27.296875 
" id="DejaVuSans-64"/>
      <path d="M 4.203125 54.6875 
L 13.1875 54.6875 
L 24.421875 12.015625 
L 35.59375 54.6875 
L 46.1875 54.6875 
L 57.421875 12.015625 
L 68.609375 54.6875 
L 77.59375 54.6875 
L 63.28125 0 
L 52.6875 0 
L 40.921875 44.828125 
L 29.109375 0 
L 18.5 0 
z
" id="DejaVuSans-77"/>
      <path d="M 34.28125 27.484375 
Q 23.390625 27.484375 19.1875 25 
Q 14.984375 22.515625 14.984375 16.5 
Q 14.984375 11.71875 18.140625 8.90625 
Q 21.296875 6.109375 26.703125 6.109375 
Q 34.1875 6.109375 38.703125 11.40625 
Q 43.21875 16.703125 43.21875 25.484375 
L 43.21875 27.484375 
z
M 52.203125 31.203125 
L 52.203125 0 
L 43.21875 0 
L 43.21875 8.296875 
Q 40.140625 3.328125 35.546875 0.953125 
Q 30.953125 -1.421875 24.3125 -1.421875 
Q 15.921875 -1.421875 10.953125 3.296875 
Q 6 8.015625 6 15.921875 
Q 6 25.140625 12.171875 29.828125 
Q 18.359375 34.515625 30.609375 34.515625 
L 43.21875 34.515625 
L 43.21875 35.40625 
Q 43.21875 41.609375 39.140625 45 
Q 35.0625 48.390625 27.6875 48.390625 
Q 23 48.390625 18.546875 47.265625 
Q 14.109375 46.140625 10.015625 43.890625 
L 10.015625 52.203125 
Q 14.9375 54.109375 19.578125 55.046875 
Q 24.21875 56 28.609375 56 
Q 40.484375 56 46.34375 49.84375 
Q 52.203125 43.703125 52.203125 31.203125 
" id="DejaVuSans-61"/>
      <path d="M 14.796875 27.296875 
Q 14.796875 17.390625 18.875 11.75 
Q 22.953125 6.109375 30.078125 6.109375 
Q 37.203125 6.109375 41.296875 11.75 
Q 45.40625 17.390625 45.40625 27.296875 
Q 45.40625 37.203125 41.296875 42.84375 
Q 37.203125 48.484375 30.078125 48.484375 
Q 22.953125 48.484375 18.875 42.84375 
Q 14.796875 37.203125 14.796875 27.296875 
M 45.40625 8.203125 
Q 42.578125 3.328125 38.25 0.953125 
Q 33.9375 -1.421875 27.875 -1.421875 
Q 17.96875 -1.421875 11.734375 6.484375 
Q 5.515625 14.40625 5.515625 27.296875 
Q 5.515625 40.1875 11.734375 48.09375 
Q 17.96875 56 27.875 56 
Q 33.9375 56 38.25 53.625 
Q 42.578125 51.265625 45.40625 46.390625 
L 45.40625 54.6875 
L 54.390625 54.6875 
L 54.390625 -20.796875 
L 45.40625 -20.796875 
z
" id="DejaVuSans-71"/>
      <path d="M 18.109375 8.203125 
L 18.109375 -20.796875 
L 9.078125 -20.796875 
L 9.078125 54.6875 
L 18.109375 54.6875 
L 18.109375 46.390625 
Q 20.953125 51.265625 25.265625 53.625 
Q 29.59375 56 35.59375 56 
Q 45.5625 56 51.78125 48.09375 
Q 58.015625 40.1875 58.015625 27.296875 
Q 58.015625 14.40625 51.78125 6.484375 
Q 45.5625 -1.421875 35.59375 -1.421875 
Q 29.59375 -1.421875 25.265625 0.953125 
Q 20.953125 3.328125 18.109375 8.203125 
M 48.6875 27.296875 
Q 48.6875 37.203125 44.609375 42.84375 
Q 40.53125 48.484375 33.40625 48.484375 
Q 26.265625 48.484375 22.1875 42.84375 
Q 18.109375 37.203125 18.109375 27.296875 
Q 18.109375 17.390625 22.1875 11.75 
Q 26.265625 6.109375 33.40625 6.109375 
Q 40.53125 6.109375 44.609375 11.75 
Q 48.6875 17.390625 48.6875 27.296875 
" id="DejaVuSans-70"/>
     </defs>
     <g transform="translate(25.432812 279.366281)rotate(-90)scale(0.1 -0.1)">
      <use xlink:href="#DejaVuSans-53"/>
      <use x="63.476562" xlink:href="#DejaVuSans-75"/>
      <use x="126.855469" xlink:href="#DejaVuSans-63"/>
      <use x="181.835938" xlink:href="#DejaVuSans-63"/>
      <use x="236.816406" xlink:href="#DejaVuSans-65"/>
      <use x="298.339844" xlink:href="#DejaVuSans-73"/>
      <use x="350.439453" xlink:href="#DejaVuSans-73"/>
      <use x="402.539062" xlink:href="#DejaVuSans-66"/>
      <use x="437.744141" xlink:href="#DejaVuSans-75"/>
      <use x="501.123047" xlink:href="#DejaVuSans-6c"/>
      <use x="528.90625" xlink:href="#DejaVuSans-20"/>
      <use x="560.693359" xlink:href="#DejaVuSans-64"/>
      <use x="624.169922" xlink:href="#DejaVuSans-6f"/>
      <use x="685.351562" xlink:href="#DejaVuSans-77"/>
      <use x="767.138672" xlink:href="#DejaVuSans-6e"/>
      <use x="830.517578" xlink:href="#DejaVuSans-6c"/>
      <use x="858.300781" xlink:href="#DejaVuSans-6f"/>
      <use x="919.482422" xlink:href="#DejaVuSans-61"/>
      <use x="980.761719" xlink:href="#DejaVuSans-64"/>
      <use x="1044.238281" xlink:href="#DejaVuSans-20"/>
      <use x="1076.025391" xlink:href="#DejaVuSans-72"/>
      <use x="1117.107422" xlink:href="#DejaVuSans-65"/>
      <use x="1178.630859" xlink:href="#DejaVuSans-71"/>
      <use x="1242.107422" xlink:href="#DejaVuSans-75"/>
      <use x="1305.486328" xlink:href="#DejaVuSans-65"/>
      <use x="1367.009766" xlink:href="#DejaVuSans-73"/>
      <use x="1419.109375" xlink:href="#DejaVuSans-74"/>
      <use x="1458.318359" xlink:href="#DejaVuSans-73"/>
      <use x="1510.417969" xlink:href="#DejaVuSans-20"/>
      <use x="1542.205078" xlink:href="#DejaVuSans-70"/>
      <use x="1605.681641" xlink:href="#DejaVuSans-65"/>
      <use x="1667.205078" xlink:href="#DejaVuSans-72"/>
      <use x="1708.318359" xlink:href="#DejaVuSans-20"/>
      <use x="1740.105469" xlink:href="#DejaVuSans-73"/>
      <use x="1792.205078" xlink:href="#DejaVuSans-65"/>
      <use x="1853.728516" xlink:href="#DejaVuSans-63"/>
      <use x="1908.708984" xlink:href="#DejaVuSans-6f"/>
      <use x="1969.890625" xlink:href="#DejaVuSans-6e"/>
      <use x="2033.269531" xlink:href="#DejaVuSans-64"/>
     </g>
    </g>
   </g>
   <g id="line2d_25">
    <path clip-path="url(#pd679e56014)" d="M 57.6 295.479734 
L 57.95712 295.488 
L 60.09984 292.762313 
L 60.81408 291.628474 
L 61.88544 290.203396 
L 62.24256 290.063368 
L 62.59968 289.308286 
L 63.31392 288.384489 
L 63.67104 288.264882 
L 64.38528 287.047901 
L 65.45664 285.660748 
L 65.81376 285.0525 
L 66.17088 284.931434 
L 66.528 284.503571 
L 66.88512 283.870527 
L 67.24224 283.65465 
L 67.95648 281.974799 
L 68.3136 281.740446 
L 68.67072 281.002867 
L 69.02784 281.055378 
L 69.38496 280.148598 
L 69.74208 280.090739 
L 70.0992 278.946204 
L 70.81344 279.090122 
L 71.17056 278.217863 
L 72.95616 276.122303 
L 73.31328 274.735636 
L 74.02752 273.794822 
L 74.38464 274.013616 
L 74.74176 273.951867 
L 75.09888 272.237981 
L 75.456 273.118505 
L 75.81312 271.640917 
L 76.17024 270.999607 
L 76.52736 270.66072 
L 76.88448 270.77352 
L 77.2416 270.516802 
L 77.59872 268.872444 
L 77.95584 268.445066 
L 78.31296 269.47826 
L 78.67008 268.072144 
L 79.0272 268.775688 
L 79.38432 266.913022 
L 79.74144 267.795977 
L 80.09856 266.228926 
L 80.45568 265.273526 
L 80.8128 266.035415 
L 81.16992 264.146494 
L 81.52704 263.502267 
L 81.88416 264.522333 
L 82.24128 263.102117 
L 82.5984 264.290898 
L 83.31264 261.15631 
L 83.66976 261.487904 
L 84.02688 259.990867 
L 84.384 261.067334 
L 85.09824 258.847304 
L 85.81248 259.93787 
L 86.1696 259.269333 
L 86.52672 257.711034 
L 86.88384 258.235167 
L 87.24096 255.712716 
L 87.59808 256.062786 
L 87.9552 257.095008 
L 88.66944 255.561991 
L 89.02656 254.040644 
L 89.38368 254.805937 
L 89.7408 254.527339 
L 90.09792 254.615343 
L 90.81216 252.16874 
L 91.16928 250.699417 
L 91.5264 250.592937 
L 91.88352 250.24627 
L 92.24064 249.278229 
L 92.59776 248.753609 
L 92.95488 249.801875 
L 93.312 250.186467 
L 94.02624 247.090775 
L 94.38336 248.066596 
L 94.74048 247.569691 
L 95.0976 246.586577 
L 95.45472 246.043968 
L 95.81184 245.820798 
L 96.16896 243.448585 
L 96.52608 246.493711 
L 96.8832 245.276244 
L 97.24032 243.198674 
L 97.59744 243.588613 
L 97.95456 241.671492 
L 98.31168 243.127201 
L 98.6688 241.567929 
L 99.02592 241.311697 
L 99.38304 242.174718 
L 99.74016 240.213352 
L 100.09728 241.364694 
L 100.81152 237.230947 
L 101.16864 238.157661 
L 101.52576 237.214902 
L 101.88288 236.931442 
L 102.24 239.348386 
L 103.31136 234.48727 
L 103.66848 235.161642 
L 104.0256 236.270198 
L 104.38272 233.162351 
L 104.73984 231.825277 
L 105.09696 232.253627 
L 105.45408 231.468886 
L 105.8112 232.173403 
L 106.16832 231.617666 
L 106.52544 229.587258 
L 106.88256 229.154532 
L 107.23968 228.419384 
L 107.5968 229.534747 
L 107.95392 231.819443 
L 108.31104 230.504248 
L 108.66816 227.658954 
L 109.02528 229.636365 
L 109.3824 226.900954 
L 109.73952 228.362498 
L 110.45376 225.643618 
L 110.81088 225.518176 
L 111.168 224.341065 
L 111.52512 224.752884 
L 111.88224 224.571042 
L 112.23936 221.955725 
L 112.59648 223.511106 
L 112.9536 222.930087 
L 113.31072 221.991704 
L 113.66784 223.612238 
L 114.02496 223.307385 
L 114.38208 220.883148 
L 114.7392 223.596679 
L 115.09632 223.018091 
L 115.81056 219.471684 
L 116.5248 221.290105 
L 117.23904 215.940835 
L 117.59616 217.319724 
L 118.3104 213.323087 
L 118.66752 213.616757 
L 119.02464 214.358712 
L 119.38176 216.592841 
L 119.73888 214.019824 
L 120.096 216.324454 
L 120.45312 212.66476 
L 120.81024 210.546835 
L 121.16736 214.050455 
L 121.52448 210.233716 
L 121.8816 208.560186 
L 122.95296 211.949061 
L 123.31008 208.521775 
L 123.6672 211.925237 
L 124.38144 206.790872 
L 124.73856 210.261916 
L 125.09568 204.85965 
L 125.4528 205.121231 
L 125.80992 207.217277 
L 126.16704 206.896379 
L 126.52416 207.21436 
L 126.88128 204.357883 
L 127.2384 202.425203 
L 127.59552 201.838835 
L 127.95264 201.700752 
L 128.66688 205.505336 
L 129.024 204.621894 
L 129.38112 198.706192 
L 129.73824 198.889006 
L 130.09536 199.410708 
L 130.45248 200.892673 
L 130.8096 200.32235 
L 131.16672 202.400892 
L 131.52384 202.242388 
L 131.88096 196.090874 
L 132.23808 194.778597 
L 132.5952 195.831239 
L 132.95232 199.066959 
L 133.30944 198.946865 
L 134.02368 197.558253 
L 134.3808 193.666637 
L 134.73792 191.073686 
L 135.09504 194.864656 
L 135.45216 191.052293 
L 135.80928 192.65824 
L 136.1664 189.880529 
L 136.52352 193.13667 
L 136.88064 193.207656 
L 137.23776 188.024184 
L 137.59488 190.498015 
L 137.952 191.482101 
L 138.30912 186.895207 
L 138.66624 186.520826 
L 139.02336 186.512075 
L 139.38048 192.212387 
L 139.7376 188.299378 
L 140.09472 191.487449 
L 140.45184 185.752617 
L 140.80896 189.179416 
L 141.16608 188.450103 
L 141.5232 188.01446 
L 141.88032 187.24236 
L 142.23744 182.014157 
L 142.59456 186.150822 
L 142.95168 179.87338 
L 143.3088 186.159087 
L 143.66592 184.766585 
L 144.02304 185.672392 
L 144.38016 179.237419 
L 144.73728 184.1632 
L 145.0944 181.645611 
L 145.80864 179.182477 
L 146.16576 176.42227 
L 146.52288 179.38085 
L 146.88 179.635624 
L 147.23712 176.975089 
L 147.59424 180.952277 
L 147.95136 174.390889 
L 148.30848 177.73163 
L 148.6656 178.15998 
L 149.02272 177.131648 
L 149.37984 175.259258 
L 149.73696 171.338956 
L 150.09408 170.55616 
L 150.4512 171.806203 
L 151.16544 169.736898 
L 151.52256 170.042724 
L 151.87968 169.132541 
L 152.2368 169.310493 
L 152.59392 168.751353 
L 152.95104 174.752142 
L 153.30816 173.632403 
L 153.66528 167.820263 
L 154.0224 165.790828 
L 154.37952 171.25776 
L 154.73664 171.602968 
L 155.09376 163.554753 
L 155.808 164.971566 
L 156.16512 166.806032 
L 156.52224 168.035168 
L 156.87936 166.608145 
L 157.23648 166.361151 
L 157.5936 168.66967 
L 157.95072 168.234513 
L 158.66496 158.936256 
L 159.02208 167.160964 
L 159.73632 161.815098 
L 160.09344 157.781024 
L 160.45056 163.808068 
L 161.1648 155.270728 
L 161.52192 161.629366 
L 161.87904 160.084195 
L 162.23616 161.354172 
L 162.59328 156.8723 
L 162.9504 155.234262 
L 163.30752 157.104707 
L 163.66464 160.173657 
L 164.02176 152.099674 
L 164.736 155.177376 
L 165.09312 157.269532 
L 165.45024 158.376143 
L 165.80736 157.927859 
L 166.16448 153.278244 
L 166.5216 157.43144 
L 166.87872 156.406025 
L 167.23584 152.087519 
L 167.59296 150.020645 
L 167.95008 157.931262 
L 168.66432 152.576645 
L 169.02144 151.915401 
L 169.37856 155.976703 
L 169.73568 156.330663 
L 170.0928 154.850643 
L 170.44992 156.62725 
L 170.80704 148.615988 
L 171.16416 155.755478 
L 171.52128 153.346313 
L 171.8784 151.82448 
L 172.23552 146.375538 
L 172.59264 147.075192 
L 172.94976 148.970434 
L 173.30688 152.23484 
L 173.664 150.123721 
L 174.02112 145.412844 
L 174.37824 153.323948 
L 174.73536 145.494041 
L 175.09248 152.79009 
L 175.4496 151.905677 
L 175.80672 150.32647 
L 176.16384 151.563386 
L 176.52096 150.526788 
L 176.87808 144.155994 
L 177.2352 144.963101 
L 177.59232 146.310386 
L 177.94944 152.037439 
L 178.30656 150.52533 
L 178.66368 142.348756 
L 179.0208 151.592558 
L 179.37792 144.52211 
L 179.73504 144.975742 
L 180.09216 141.996741 
L 180.44928 142.385222 
L 180.8064 140.830812 
L 181.16352 142.829617 
L 181.52064 142.515526 
L 182.592 150.426143 
L 182.94912 146.686225 
L 183.30624 139.935216 
L 183.66336 139.740246 
L 184.02048 142.490243 
L 184.3776 138.846108 
L 184.73472 149.554371 
L 185.09184 149.340439 
L 185.44896 140.725791 
L 185.80608 145.59809 
L 186.1632 139.913822 
L 186.52032 139.014336 
L 186.87744 143.560875 
L 187.23456 143.12037 
L 187.59168 146.205364 
L 187.9488 144.254695 
L 188.30592 146.993023 
L 188.66304 141.479901 
L 189.02016 138.121657 
L 189.37728 139.891943 
L 189.7344 142.876293 
L 190.09152 136.135008 
L 190.44864 141.941799 
L 190.80576 142.142604 
L 191.16288 137.415682 
L 191.52 135.382356 
L 191.87712 135.036662 
L 192.23424 142.653123 
L 192.59136 138.461517 
L 192.94848 136.93239 
L 193.3056 145.248019 
L 193.66272 134.489677 
L 194.01984 135.894334 
L 194.37696 134.517391 
L 194.73408 135.585105 
L 195.0912 141.124482 
L 195.44832 139.921602 
L 195.80544 139.790812 
L 196.16256 137.522161 
L 196.51968 132.39752 
L 196.8768 137.200291 
L 197.23392 138.560217 
L 197.59104 138.671559 
L 197.94816 142.004034 
L 198.30528 135.846686 
L 198.6624 133.663608 
L 199.01952 136.484592 
L 199.37664 133.432659 
L 199.73376 139.579797 
L 200.09088 135.136821 
L 200.448 135.158214 
L 200.80512 133.556156 
L 201.16224 135.563226 
L 201.51936 138.88938 
L 201.87648 137.916477 
L 202.2336 130.253826 
L 202.59072 135.942955 
L 202.94784 129.991273 
L 203.30496 136.547313 
L 203.66208 138.155691 
L 204.0192 138.737683 
L 204.73344 128.942521 
L 205.09056 135.958514 
L 205.44768 139.389689 
L 205.8048 138.566052 
L 206.16192 134.133772 
L 206.51904 134.767302 
L 206.87616 132.5322 
L 207.23328 138.428941 
L 207.5904 130.203746 
L 207.94752 127.733806 
L 208.30464 131.463027 
L 208.66176 133.79926 
L 209.01888 137.567379 
L 209.376 130.206664 
L 209.73312 135.147517 
L 210.09024 137.308716 
L 210.44736 130.117687 
L 210.80448 126.389438 
L 211.51872 131.841298 
L 211.87584 129.087897 
L 212.23296 130.623831 
L 212.59008 126.880509 
L 212.9472 131.627366 
L 213.30432 124.654159 
L 214.01856 135.610388 
L 214.37568 130.829983 
L 214.7328 128.022127 
L 215.08992 130.867421 
L 215.44704 128.345456 
L 215.80416 130.216874 
L 216.16128 129.59404 
L 216.5184 129.9057 
L 216.87552 133.984992 
L 217.23264 124.840377 
L 217.58976 125.61199 
L 217.94688 123.09586 
L 218.304 122.173522 
L 218.66112 122.275139 
L 219.37536 130.5791 
L 219.73248 122.793438 
L 220.0896 132.200606 
L 220.44672 121.520057 
L 220.80384 130.551872 
L 221.16096 123.549979 
L 221.51808 129.858538 
L 221.8752 121.415522 
L 222.23232 120.006975 
L 222.58944 127.651636 
L 222.94656 124.468913 
L 223.30368 126.039854 
L 223.6608 121.947921 
L 224.01792 131.073574 
L 224.37504 127.996358 
L 224.73216 127.035124 
L 225.4464 119.827078 
L 225.80352 125.848288 
L 226.16064 128.207859 
L 226.51776 129.562923 
L 226.87488 123.661321 
L 227.232 125.901771 
L 227.58912 124.360975 
L 227.94624 118.252248 
L 228.30336 120.470818 
L 228.66048 126.853768 
L 229.37472 124.906015 
L 230.08896 119.457559 
L 230.44608 125.065005 
L 230.8032 127.055058 
L 231.16032 116.579203 
L 231.51744 119.625787 
L 231.87456 117.879325 
L 232.5888 123.563593 
L 232.94592 118.992744 
L 233.30304 125.125295 
L 233.66016 115.449254 
L 234.01728 118.656773 
L 234.3744 125.009578 
L 234.73152 125.929971 
L 235.44576 115.940325 
L 235.80288 121.995569 
L 236.16 124.98624 
L 236.51712 113.649795 
L 236.87424 123.951587 
L 237.23136 123.792111 
L 237.58848 118.010602 
L 237.9456 116.295743 
L 238.30272 118.132154 
L 238.65984 114.515247 
L 239.01696 116.148422 
L 239.37408 113.990627 
L 239.7312 120.144572 
L 240.08832 120.2423 
L 240.44544 116.93608 
L 240.80256 114.876986 
L 241.15968 120.679888 
L 241.5168 120.056082 
L 241.87392 121.035307 
L 242.23104 119.893689 
L 242.58816 111.688429 
L 242.94528 119.940365 
L 243.3024 110.554103 
L 243.65952 120.235007 
L 244.01664 118.063112 
L 244.37376 122.875121 
L 244.73088 119.934044 
L 245.088 122.240618 
L 245.44512 119.2305 
L 245.80224 110.041153 
L 246.15936 118.656287 
L 246.51648 115.571778 
L 246.8736 118.98545 
L 247.23072 109.139236 
L 247.58784 111.636891 
L 248.30208 119.690453 
L 249.37344 108.031652 
L 249.73056 120.51166 
L 250.08768 119.107489 
L 250.4448 110.698021 
L 250.80192 117.53509 
L 251.15904 110.115543 
L 251.51616 118.219672 
L 251.87328 111.623763 
L 252.2304 108.817852 
L 252.58752 111.335441 
L 252.94464 106.510305 
L 253.30176 110.59689 
L 253.65888 118.436035 
L 254.016 114.682989 
L 254.37312 115.447309 
L 254.73024 110.541948 
L 255.08736 117.07465 
L 255.44448 109.057067 
L 255.8016 107.165714 
L 256.15872 106.620188 
L 256.87296 116.737221 
L 257.23008 115.797866 
L 257.5872 105.614708 
L 257.94432 109.264192 
L 258.30144 111.671898 
L 258.65856 109.988643 
L 259.01568 105.159617 
L 259.3728 112.46539 
L 259.72992 104.778915 
L 260.08704 113.307504 
L 260.44416 116.392013 
L 260.80128 109.623014 
L 261.1584 110.145202 
L 261.51552 103.524497 
L 261.87264 106.34159 
L 262.22976 106.877879 
L 262.58688 111.299462 
L 262.944 109.104229 
L 263.30112 114.904214 
L 263.65824 112.912702 
L 264.01536 115.520726 
L 264.37248 105.729453 
L 264.7296 115.243587 
L 265.08672 108.145425 
L 265.44384 104.931585 
L 265.80096 112.586456 
L 266.15808 111.553749 
L 266.5152 114.258528 
L 266.87232 104.732725 
L 267.58656 108.750755 
L 267.94368 102.937156 
L 268.3008 104.141009 
L 268.65792 109.444089 
L 269.01504 109.379423 
L 269.37216 111.950009 
L 269.72928 106.270604 
L 270.0864 102.768442 
L 270.44352 109.549596 
L 270.80064 111.922295 
L 271.51488 109.085267 
L 271.872 112.484352 
L 272.22912 107.828417 
L 272.58624 101.647244 
L 272.94336 102.672172 
L 273.30048 106.381946 
L 273.6576 105.336111 
L 274.01472 105.037092 
L 274.37184 105.320066 
L 274.72896 105.298672 
L 275.08608 111.495404 
L 275.80032 97.745419 
L 276.15744 106.523919 
L 276.51456 101.8427 
L 276.87168 99.898837 
L 277.2288 109.171326 
L 277.58592 104.092875 
L 277.94304 103.501159 
L 278.30016 105.01813 
L 278.65728 98.390132 
L 279.0144 108.463892 
L 279.37152 99.031441 
L 279.72864 96.251299 
L 280.08576 95.920191 
L 280.8 101.936539 
L 281.15712 98.815564 
L 281.51424 102.827759 
L 281.87136 103.5561 
L 282.22848 106.466546 
L 282.5856 95.359106 
L 282.94272 98.521894 
L 283.29984 98.700333 
L 283.65696 105.537887 
L 284.01408 102.602645 
L 284.3712 96.895526 
L 284.72832 94.134832 
L 285.44256 100.959745 
L 285.79968 98.778126 
L 286.1568 104.827536 
L 286.51392 94.463509 
L 286.87104 105.116344 
L 287.22816 93.490119 
L 287.58528 102.906525 
L 287.9424 96.340275 
L 288.29952 101.346767 
L 288.65664 97.704091 
L 289.01376 95.823435 
L 289.37088 104.63208 
L 289.728 103.082047 
L 290.08512 92.267304 
L 290.79936 105.853923 
L 291.15648 93.70551 
L 291.5136 97.081744 
L 291.87072 95.551644 
L 292.22784 93.20277 
L 292.58496 105.131417 
L 292.94208 94.982294 
L 293.2992 97.123071 
L 293.65632 97.657901 
L 294.01344 104.072454 
L 294.37056 100.485205 
L 294.72768 103.154005 
L 295.0848 102.125188 
L 295.44192 92.363087 
L 295.79904 97.743474 
L 296.15616 96.494403 
L 296.51328 94.463995 
L 296.8704 99.408739 
L 297.22752 91.018234 
L 297.58464 96.632487 
L 297.94176 90.082768 
L 298.29888 91.490342 
L 298.656 98.015265 
L 299.01312 99.284756 
L 299.37024 95.100929 
L 299.72736 94.033701 
L 300.08448 95.798152 
L 300.4416 98.611357 
L 300.79872 94.883107 
L 301.15584 92.591605 
L 301.51296 97.418686 
L 301.87008 91.396504 
L 302.2272 90.3531 
L 302.58432 100.440474 
L 302.94144 100.671909 
L 303.29856 91.074148 
L 303.65568 95.554076 
L 304.0128 93.619451 
L 304.36992 100.052966 
L 304.72704 101.296688 
L 305.08416 88.052846 
L 305.44128 95.946446 
L 305.7984 92.203611 
L 306.15552 86.695351 
L 306.51264 92.987865 
L 306.86976 87.855931 
L 307.22688 95.157329 
L 307.584 97.965671 
L 307.94112 89.75166 
L 308.29824 86.874762 
L 308.65536 86.35306 
L 309.01248 89.178906 
L 309.3696 94.678413 
L 309.72672 96.243033 
L 310.08384 85.031058 
L 310.44096 98.979417 
L 310.79808 96.778349 
L 311.1552 84.556032 
L 311.51232 93.479909 
L 311.86944 99.036789 
L 312.22656 84.482615 
L 312.58368 87.444599 
L 312.9408 97.386597 
L 313.29792 90.588425 
L 313.65504 90.053595 
L 314.01216 87.272967 
L 314.36928 92.403929 
L 314.7264 88.34214 
L 315.08352 86.822738 
L 315.44064 94.52623 
L 315.79776 93.098235 
L 316.15488 94.727521 
L 316.512 86.133294 
L 316.86912 95.139826 
L 317.22624 83.248617 
L 317.58336 82.364689 
L 317.94048 89.739018 
L 318.2976 88.888639 
L 318.65472 94.927352 
L 319.01184 96.776891 
L 319.36896 82.373441 
L 319.72608 95.53171 
L 320.0832 86.981728 
L 320.44032 91.971203 
L 320.79744 93.26938 
L 321.15456 89.396241 
L 321.51168 84.028982 
L 321.8688 82.766298 
L 322.22592 85.720016 
L 322.58304 92.189511 
L 322.94016 92.980572 
L 323.29728 80.540434 
L 323.6544 91.788875 
L 324.01152 91.07123 
L 324.36864 83.990571 
L 324.72576 80.06249 
L 325.44 86.303953 
L 325.79712 86.294715 
L 326.15424 84.102886 
L 326.51136 93.979731 
L 326.86848 91.926958 
L 327.2256 88.156895 
L 327.58272 88.514258 
L 327.93984 90.90835 
L 328.29696 85.748702 
L 328.65408 86.638465 
L 329.0112 88.168564 
L 329.36832 92.152559 
L 329.72544 78.8917 
L 330.08256 81.45791 
L 330.43968 87.97797 
L 330.7968 82.416713 
L 331.51104 92.592091 
L 331.86816 84.915827 
L 332.22528 86.714313 
L 332.5824 81.552234 
L 332.93952 78.911148 
L 333.29664 81.476386 
L 333.65376 89.133202 
L 334.01088 91.016775 
L 334.368 81.07186 
L 334.72512 80.344005 
L 335.08224 90.67497 
L 335.43936 90.627808 
L 336.51072 82.775049 
L 336.86784 84.665429 
L 337.22496 76.001674 
L 337.58208 77.366463 
L 337.9392 82.99044 
L 338.29632 82.461931 
L 338.65344 88.527386 
L 339.01056 84.819071 
L 339.36768 85.667506 
L 339.7248 82.69677 
L 340.08192 85.278539 
L 340.43904 85.339801 
L 340.79616 77.57845 
L 341.15328 78.224621 
L 341.5104 78.127866 
L 341.86752 80.435413 
L 342.22464 77.359656 
L 342.58176 87.201981 
L 342.93888 85.401063 
L 343.296 75.918533 
L 343.65312 81.078667 
L 344.01024 76.658056 
L 344.36736 85.561026 
L 344.72448 75.795036 
L 345.0816 82.447345 
L 345.43872 73.964946 
L 345.79584 74.086012 
L 346.15296 80.919677 
L 346.51008 83.559304 
L 346.8672 82.451721 
L 347.22432 78.669988 
L 347.58144 81.798256 
L 347.93856 79.671579 
L 348.29568 82.975854 
L 348.6528 84.592012 
L 349.00992 76.712026 
L 349.36704 74.673352 
L 349.72416 83.01864 
L 350.08128 78.830924 
L 350.4384 85.695219 
L 350.79552 76.304583 
L 351.15264 74.371903 
L 351.50976 76.384807 
L 351.86688 76.244293 
L 352.224 75.97785 
L 352.58112 71.647675 
L 353.29536 85.284373 
L 353.65248 82.97245 
L 354.0096 72.81409 
L 354.36672 77.156907 
L 354.72384 76.038626 
L 355.08096 81.257105 
L 355.43808 77.577963 
L 355.7952 83.00843 
L 356.15232 73.881804 
L 356.50944 84.22541 
L 356.86656 75.962778 
L 357.5808 82.473114 
L 357.93792 72.182504 
L 358.29504 71.851882 
L 358.65216 83.575835 
L 359.00928 71.142017 
L 359.3664 81.621762 
L 359.72352 82.170206 
L 360.08064 81.399078 
L 360.43776 72.96919 
L 360.79488 70.440904 
L 361.152 70.778819 
L 361.50912 76.139758 
L 361.86624 70.499249 
L 362.22336 74.157971 
L 362.58048 70.890647 
L 362.9376 79.249549 
L 363.29472 77.852185 
L 363.65184 81.985446 
L 364.00896 77.436477 
L 364.36608 79.781948 
L 364.7232 76.637149 
L 365.08032 74.851304 
L 365.43744 78.336935 
L 365.79456 76.646874 
L 366.15168 71.506188 
L 366.5088 71.560643 
L 366.86592 75.357448 
L 367.22304 68.779529 
L 367.58016 76.114961 
L 367.93728 67.859136 
L 368.2944 81.073319 
L 368.65152 67.774535 
L 369.00864 77.040216 
L 369.36576 78.887324 
L 369.72288 70.0991 
L 370.08 74.444348 
L 370.43712 76.552063 
L 370.79424 75.497962 
L 371.50848 70.189048 
L 371.8656 76.678963 
L 372.22272 69.075144 
L 372.57984 69.035275 
L 372.93696 70.225514 
L 373.29408 68.097864 
L 373.6512 67.361258 
L 374.00832 70.044644 
L 374.36544 73.7515 
L 374.72256 79.749372 
L 375.07968 69.994078 
L 375.4368 64.500405 
L 375.79392 78.495439 
L 376.15104 79.794103 
L 376.50816 70.216762 
L 376.86528 69.935247 
L 377.2224 64.332177 
L 377.57952 68.26512 
L 377.93664 74.563955 
L 378.29376 68.238865 
L 378.65088 68.266579 
L 379.008 74.965563 
L 379.36512 73.576951 
L 379.72224 65.641051 
L 380.07936 67.726401 
L 380.43648 65.793721 
L 380.7936 74.910622 
L 381.15072 71.164869 
L 381.86496 76.055157 
L 382.22208 63.28148 
L 382.5792 73.303216 
L 382.93632 63.36997 
L 383.29344 76.467463 
L 383.65056 69.70916 
L 384.00768 76.50247 
L 384.3648 71.840699 
L 384.72192 71.396791 
L 385.07904 74.37093 
L 385.43616 62.928492 
L 385.79328 73.715521 
L 386.1504 62.180703 
L 386.50752 77.191427 
L 386.86464 70.276566 
L 387.22176 70.128272 
L 387.57888 63.715664 
L 387.936 69.304148 
L 388.29312 71.498895 
L 388.65024 68.033684 
L 389.00736 67.917967 
L 389.36448 69.140782 
L 389.7216 60.629211 
L 390.07872 73.094146 
L 390.43584 70.334425 
L 390.79296 72.338577 
L 391.15008 61.446528 
L 391.5072 69.826336 
L 391.86432 75.230547 
L 392.22144 75.152268 
L 392.57856 64.690999 
L 392.93568 67.777452 
L 393.2928 67.613114 
L 393.64992 72.564178 
L 394.00704 58.695558 
L 394.36416 64.0458 
L 394.72128 73.374688 
L 395.0784 70.768123 
L 395.43552 65.829214 
L 395.79264 66.447185 
L 396.14976 73.528816 
L 396.50688 74.250837 
L 396.864 65.338143 
L 397.22112 61.737767 
L 397.57824 65.576385 
L 397.93536 60.772156 
L 398.29248 64.964248 
L 398.6496 67.62381 
L 399.00672 64.803313 
L 399.36384 58.786965 
L 399.72096 59.256157 
L 400.07808 57.634164 
L 400.4352 69.336724 
L 400.79232 70.866337 
L 401.14944 71.777492 
L 401.50656 58.492323 
L 401.86368 62.233213 
L 402.2208 61.599197 
L 402.57792 60.176064 
L 402.93504 72.149928 
L 403.64928 56.017034 
L 404.0064 71.551891 
L 404.36352 61.166471 
L 404.72064 69.195724 
L 405.07776 65.702313 
L 405.43488 71.753668 
L 405.792 63.92911 
L 406.14912 60.833904 
L 406.50624 60.366172 
L 406.86336 64.722116 
L 407.22048 65.201032 
L 407.5776 62.659132 
L 407.93472 67.325764 
L 408.29184 66.607148 
L 408.64896 59.043684 
L 409.00608 70.579474 
L 409.3632 54.977033 
L 409.72032 70.531339 
L 410.07744 59.622758 
L 410.43456 54.310927 
L 410.79168 60.159533 
L 411.1488 57.52185 
L 411.50592 60.189192 
L 412.22016 68.839819 
L 412.57728 61.39742 
L 412.9344 63.188128 
L 413.29152 69.466056 
L 413.64864 53.568 
L 414.00576 62.53369 
L 414.36288 58.510313 
L 414.72 62.074223 
L 414.72 62.074223 
" style="fill:none;stroke:#000080;stroke-linecap:square;stroke-width:0.5;"/>
   </g>
   <g id="patch_3">
    <path d="M 57.6 307.584 
L 57.6 41.472 
" style="fill:none;stroke:#000000;stroke-linecap:square;stroke-linejoin:miter;stroke-width:0.8;"/>
   </g>
   <g id="patch_4">
    <path d="M 414.72 307.584 
L 414.72 41.472 
" style="fill:none;stroke:#000000;stroke-linecap:square;stroke-linejoin:miter;stroke-width:0.8;"/>
   </g>
   <g id="patch_5">
    <path d="M 57.6 307.584 
L 414.72 307.584 
" style="fill:none;stroke:#000000;stroke-linecap:square;stroke-linejoin:miter;stroke-width:0.8;"/>
   </g>
   <g id="patch_6">
    <path d="M 57.6 41.472 
L 414.72 41.472 
" style="fill:none;stroke:#000000;stroke-linecap:square;stroke-linejoin:miter;stroke-width:0.8;"/>
   </g>
   <g id="text_15">
    <!-- Test -->
    <defs>
     <path d="M -0.296875 72.90625 
L 61.375 72.90625 
L 61.375 64.59375 
L 35.5 64.59375 
L 35.5 0 
L 25.59375 0 
L 25.59375 64.59375 
L -0.296875 64.59375 
z
" id="DejaVuSans-54"/>
    </defs>
    <g transform="translate(223.341563 35.472)scale(0.12 -0.12)">
     <use xlink:href="#DejaVuSans-54"/>
     <use x="60.818359" xlink:href="#DejaVuSans-65"/>
     <use x="122.341797" xlink:href="#DejaVuSans-73"/>
     <use x="174.441406" xlink:href="#DejaVuSans-74"/>
    </g>
   </g>
   <g id="legend_1">
    <g id="patch_7">
     <path d="M 64.6 64.150125 
L 306.276563 64.150125 
Q 308.276563 64.150125 308.276563 62.150125 
L 308.276563 48.472 
Q 308.276563 46.472 306.276563 46.472 
L 64.6 46.472 
Q 62.6 46.472 62.6 48.472 
L 62.6 62.150125 
Q 62.6 64.150125 64.6 64.150125 
z
" style="fill:#ffffff;opacity:0.8;stroke:#cccccc;stroke-linejoin:miter;"/>
    </g>
    <g id="line2d_26">
     <path d="M 66.6 54.570438 
L 86.6 54.570438 
" style="fill:none;stroke:#000080;stroke-linecap:square;stroke-width:0.5;"/>
    </g>
    <g id="line2d_27"/>
    <g id="text_16">
     <!-- Successful download requests per second -->
     <g transform="translate(94.6 58.070438)scale(0.1 -0.1)">
      <use xlink:href="#DejaVuSans-53"/>
      <use x="63.476562" xlink:href="#DejaVuSans-75"/>
      <use x="126.855469" xlink:href="#DejaVuSans-63"/>
      <use x="181.835938" xlink:href="#DejaVuSans-63"/>
      <use x="236.816406" xlink:href="#DejaVuSans-65"/>
      <use x="298.339844" xlink:href="#DejaVuSans-73"/>
      <use x="350.439453" xlink:href="#DejaVuSans-73"/>
      <use x="402.539062" xlink:href="#DejaVuSans-66"/>
      <use x="437.744141" xlink:href="#DejaVuSans-75"/>
      <use x="501.123047" xlink:href="#DejaVuSans-6c"/>
      <use x="528.90625" xlink:href="#DejaVuSans-20"/>
      <use x="560.693359" xlink:href="#DejaVuSans-64"/>
      <use x="624.169922" xlink:href="#DejaVuSans-6f"/>
      <use x="685.351562" xlink:href="#DejaVuSans-77"/>
      <use x="767.138672" xlink:href="#DejaVuSans-6e"/>
      <use x="830.517578" xlink:href="#DejaVuSans-6c"/>
      <use x="858.300781" xlink:href="#DejaVuSans-6f"/>
      <use x="919.482422" xlink:href="#DejaVuSans-61"/>
      <use x="980.761719" xlink:href="#DejaVuSans-64"/>
      <use x="1044.238281" xlink:href="#DejaVuSans-20"/>
      <use x="1076.025391" xlink:href="#DejaVuSans-72"/>
      <use x="1117.107422" xlink:href="#DejaVuSans-65"/>
      <use x="1178.630859" xlink:href="#DejaVuSans-71"/>
      <use x="1242.107422" xlink:href="#DejaVuSans-75"/>
      <use x="1305.486328" xlink:href="#DejaVuSans-65"/>
      <use x="1367.009766" xlink:href="#DejaVuSans-73"/>
      <use x="1419.109375" xlink:href="#DejaVuSans-74"/>
      <use x="1458.318359" xlink:href="#DejaVuSans-73"/>
      <use x="1510.417969" xlink:href="#DejaVuSans-20"/>
      <use x="1542.205078" xlink:href="#DejaVuSans-70"/>
      <use x="1605.681641" xlink:href="#DejaVuSans-65"/>
      <use x="1667.205078" xlink:href="#DejaVuSans-72"/>
      <use x="1708.318359" xlink:href="#DejaVuSans-20"/>
      <use x="1740.105469" xlink:href="#DejaVuSans-73"/>
      <use x="1792.205078" xlink:href="#DejaVuSans-65"/>
      <use x="1853.728516" xlink:href="#DejaVuSans-63"/>
      <use x="1908.708984" xlink:href="#DejaVuSans-6f"/>
      <use x="1969.890625" xlink:href="#DejaVuSans-6e"/>
      <use x="2033.269531" xlink:href="#DejaVuSans-64"/>
     </g>
    </g>
   </g>
  </g>
 </g>
 <defs>
  <clipPath id="pd679e56014">
   <rect height="266.112" width="357.12" x="57.6" y="41.472"/>
  </clipPath>
 </defs>
</svg>
