<?xml version="1.0" encoding="utf-8" standalone="no"?>
<!DOCTYPE svg PUBLIC "-//W3C//DTD SVG 1.1//EN"
  "http://www.w3.org/Graphics/SVG/1.1/DTD/svg11.dtd">
<!-- Created with matplotlib (http://matplotlib.org/) -->
<svg height="345pt" version="1.1" viewBox="0 0 460 345" width="460pt" xmlns="http://www.w3.org/2000/svg" xmlns:xlink="http://www.w3.org/1999/xlink">
 <defs>
  <style type="text/css">
*{stroke-linecap:butt;stroke-linejoin:round;}
  </style>
 </defs>
 <g id="figure_1">
  <g id="patch_1">
   <path d="M 0 345.6 
L 460.8 345.6 
L 460.8 0 
L 0 0 
z
" style="fill:#ffffff;"/>
  </g>
  <g id="axes_1">
   <g id="patch_2">
    <path d="M 57.6 307.584 
L 414.72 307.584 
L 414.72 41.472 
L 57.6 41.472 
z
" style="fill:#ffffff;"/>
   </g>
   <g id="matplotlib.axis_1">
    <g id="xtick_1">
     <g id="line2d_1">
      <path clip-path="url(#paa622747a3)" d="M 57.6 307.584 
L 57.6 41.472 
" style="fill:none;stroke:#b0b0b0;stroke-linecap:square;stroke-width:0.8;"/>
     </g>
     <g id="line2d_2">
      <defs>
       <path d="M 0 0 
L 0 3.5 
" id="m0b2d81cff7" style="stroke:#000000;stroke-width:0.8;"/>
      </defs>
      <g>
       <use style="stroke:#000000;stroke-width:0.8;" x="57.6" xlink:href="#m0b2d81cff7" y="307.584"/>
      </g>
     </g>
     <g id="text_1">
      <!-- 0 -->
      <defs>
       <path d="M 31.78125 66.40625 
Q 24.171875 66.40625 20.328125 58.90625 
Q 16.5 51.421875 16.5 36.375 
Q 16.5 21.390625 20.328125 13.890625 
Q 24.171875 6.390625 31.78125 6.390625 
Q 39.453125 6.390625 43.28125 13.890625 
Q 47.125 21.390625 47.125 36.375 
Q 47.125 51.421875 43.28125 58.90625 
Q 39.453125 66.40625 31.78125 66.40625 
M 31.78125 74.21875 
Q 44.046875 74.21875 50.515625 64.515625 
Q 56.984375 54.828125 56.984375 36.375 
Q 56.984375 17.96875 50.515625 8.265625 
Q 44.046875 -1.421875 31.78125 -1.421875 
Q 19.53125 -1.421875 13.0625 8.265625 
Q 6.59375 17.96875 6.59375 36.375 
Q 6.59375 54.828125 13.0625 64.515625 
Q 19.53125 74.21875 31.78125 74.21875 
" id="DejaVuSans-30"/>
      </defs>
      <g transform="translate(54.41875 322.182437)scale(0.1 -0.1)">
       <use xlink:href="#DejaVuSans-30"/>
      </g>
     </g>
    </g>
    <g id="xtick_2">
     <g id="line2d_3">
      <path clip-path="url(#paa622747a3)" d="M 129.024 307.584 
L 129.024 41.472 
" style="fill:none;stroke:#b0b0b0;stroke-linecap:square;stroke-width:0.8;"/>
     </g>
     <g id="line2d_4">
      <g>
       <use style="stroke:#000000;stroke-width:0.8;" x="129.024" xlink:href="#m0b2d81cff7" y="307.584"/>
      </g>
     </g>
     <g id="text_2">
      <!-- 200 -->
      <defs>
       <path d="M 19.1875 8.296875 
L 53.609375 8.296875 
L 53.609375 0 
L 7.328125 0 
L 7.328125 8.296875 
Q 12.9375 14.109375 22.625 23.890625 
Q 32.328125 33.6875 34.8125 36.53125 
Q 39.546875 41.84375 41.421875 45.53125 
Q 43.3125 49.21875 43.3125 52.78125 
Q 43.3125 58.59375 39.234375 62.25 
Q 35.15625 65.921875 28.609375 65.921875 
Q 23.96875 65.921875 18.8125 64.3125 
Q 13.671875 62.703125 7.8125 59.421875 
L 7.8125 69.390625 
Q 13.765625 71.78125 18.9375 73 
Q 24.125 74.21875 28.421875 74.21875 
Q 39.75 74.21875 46.484375 68.546875 
Q 53.21875 62.890625 53.21875 53.421875 
Q 53.21875 48.921875 51.53125 44.890625 
Q 49.859375 40.875 45.40625 35.40625 
Q 44.1875 33.984375 37.640625 27.21875 
Q 31.109375 20.453125 19.1875 8.296875 
" id="DejaVuSans-32"/>
      </defs>
      <g transform="translate(119.48025 322.182437)scale(0.1 -0.1)">
       <use xlink:href="#DejaVuSans-32"/>
       <use x="63.623047" xlink:href="#DejaVuSans-30"/>
       <use x="127.246094" xlink:href="#DejaVuSans-30"/>
      </g>
     </g>
    </g>
    <g id="xtick_3">
     <g id="line2d_5">
      <path clip-path="url(#paa622747a3)" d="M 200.448 307.584 
L 200.448 41.472 
" style="fill:none;stroke:#b0b0b0;stroke-linecap:square;stroke-width:0.8;"/>
     </g>
     <g id="line2d_6">
      <g>
       <use style="stroke:#000000;stroke-width:0.8;" x="200.448" xlink:href="#m0b2d81cff7" y="307.584"/>
      </g>
     </g>
     <g id="text_3">
      <!-- 400 -->
      <defs>
       <path d="M 37.796875 64.3125 
L 12.890625 25.390625 
L 37.796875 25.390625 
z
M 35.203125 72.90625 
L 47.609375 72.90625 
L 47.609375 25.390625 
L 58.015625 25.390625 
L 58.015625 17.1875 
L 47.609375 17.1875 
L 47.609375 0 
L 37.796875 0 
L 37.796875 17.1875 
L 4.890625 17.1875 
L 4.890625 26.703125 
z
" id="DejaVuSans-34"/>
      </defs>
      <g transform="translate(190.90425 322.182437)scale(0.1 -0.1)">
       <use xlink:href="#DejaVuSans-34"/>
       <use x="63.623047" xlink:href="#DejaVuSans-30"/>
       <use x="127.246094" xlink:href="#DejaVuSans-30"/>
      </g>
     </g>
    </g>
    <g id="xtick_4">
     <g id="line2d_7">
      <path clip-path="url(#paa622747a3)" d="M 271.872 307.584 
L 271.872 41.472 
" style="fill:none;stroke:#b0b0b0;stroke-linecap:square;stroke-width:0.8;"/>
     </g>
     <g id="line2d_8">
      <g>
       <use style="stroke:#000000;stroke-width:0.8;" x="271.872" xlink:href="#m0b2d81cff7" y="307.584"/>
      </g>
     </g>
     <g id="text_4">
      <!-- 600 -->
      <defs>
       <path d="M 33.015625 40.375 
Q 26.375 40.375 22.484375 35.828125 
Q 18.609375 31.296875 18.609375 23.390625 
Q 18.609375 15.53125 22.484375 10.953125 
Q 26.375 6.390625 33.015625 6.390625 
Q 39.65625 6.390625 43.53125 10.953125 
Q 47.40625 15.53125 47.40625 23.390625 
Q 47.40625 31.296875 43.53125 35.828125 
Q 39.65625 40.375 33.015625 40.375 
M 52.59375 71.296875 
L 52.59375 62.3125 
Q 48.875 64.0625 45.09375 64.984375 
Q 41.3125 65.921875 37.59375 65.921875 
Q 27.828125 65.921875 22.671875 59.328125 
Q 17.53125 52.734375 16.796875 39.40625 
Q 19.671875 43.65625 24.015625 45.921875 
Q 28.375 48.1875 33.59375 48.1875 
Q 44.578125 48.1875 50.953125 41.515625 
Q 57.328125 34.859375 57.328125 23.390625 
Q 57.328125 12.15625 50.6875 5.359375 
Q 44.046875 -1.421875 33.015625 -1.421875 
Q 20.359375 -1.421875 13.671875 8.265625 
Q 6.984375 17.96875 6.984375 36.375 
Q 6.984375 53.65625 15.1875 63.9375 
Q 23.390625 74.21875 37.203125 74.21875 
Q 40.921875 74.21875 44.703125 73.484375 
Q 48.484375 72.75 52.59375 71.296875 
" id="DejaVuSans-36"/>
      </defs>
      <g transform="translate(262.32825 322.182437)scale(0.1 -0.1)">
       <use xlink:href="#DejaVuSans-36"/>
       <use x="63.623047" xlink:href="#DejaVuSans-30"/>
       <use x="127.246094" xlink:href="#DejaVuSans-30"/>
      </g>
     </g>
    </g>
    <g id="xtick_5">
     <g id="line2d_9">
      <path clip-path="url(#paa622747a3)" d="M 343.296 307.584 
L 343.296 41.472 
" style="fill:none;stroke:#b0b0b0;stroke-linecap:square;stroke-width:0.8;"/>
     </g>
     <g id="line2d_10">
      <g>
       <use style="stroke:#000000;stroke-width:0.8;" x="343.296" xlink:href="#m0b2d81cff7" y="307.584"/>
      </g>
     </g>
     <g id="text_5">
      <!-- 800 -->
      <defs>
       <path d="M 31.78125 34.625 
Q 24.75 34.625 20.71875 30.859375 
Q 16.703125 27.09375 16.703125 20.515625 
Q 16.703125 13.921875 20.71875 10.15625 
Q 24.75 6.390625 31.78125 6.390625 
Q 38.8125 6.390625 42.859375 10.171875 
Q 46.921875 13.96875 46.921875 20.515625 
Q 46.921875 27.09375 42.890625 30.859375 
Q 38.875 34.625 31.78125 34.625 
M 21.921875 38.8125 
Q 15.578125 40.375 12.03125 44.71875 
Q 8.5 49.078125 8.5 55.328125 
Q 8.5 64.0625 14.71875 69.140625 
Q 20.953125 74.21875 31.78125 74.21875 
Q 42.671875 74.21875 48.875 69.140625 
Q 55.078125 64.0625 55.078125 55.328125 
Q 55.078125 49.078125 51.53125 44.71875 
Q 48 40.375 41.703125 38.8125 
Q 48.828125 37.15625 52.796875 32.3125 
Q 56.78125 27.484375 56.78125 20.515625 
Q 56.78125 9.90625 50.3125 4.234375 
Q 43.84375 -1.421875 31.78125 -1.421875 
Q 19.734375 -1.421875 13.25 4.234375 
Q 6.78125 9.90625 6.78125 20.515625 
Q 6.78125 27.484375 10.78125 32.3125 
Q 14.796875 37.15625 21.921875 38.8125 
M 18.3125 54.390625 
Q 18.3125 48.734375 21.84375 45.5625 
Q 25.390625 42.390625 31.78125 42.390625 
Q 38.140625 42.390625 41.71875 45.5625 
Q 45.3125 48.734375 45.3125 54.390625 
Q 45.3125 60.0625 41.71875 63.234375 
Q 38.140625 66.40625 31.78125 66.40625 
Q 25.390625 66.40625 21.84375 63.234375 
Q 18.3125 60.0625 18.3125 54.390625 
" id="DejaVuSans-38"/>
      </defs>
      <g transform="translate(333.75225 322.182437)scale(0.1 -0.1)">
       <use xlink:href="#DejaVuSans-38"/>
       <use x="63.623047" xlink:href="#DejaVuSans-30"/>
       <use x="127.246094" xlink:href="#DejaVuSans-30"/>
      </g>
     </g>
    </g>
    <g id="xtick_6">
     <g id="line2d_11">
      <path clip-path="url(#paa622747a3)" d="M 414.72 307.584 
L 414.72 41.472 
" style="fill:none;stroke:#b0b0b0;stroke-linecap:square;stroke-width:0.8;"/>
     </g>
     <g id="line2d_12">
      <g>
       <use style="stroke:#000000;stroke-width:0.8;" x="414.72" xlink:href="#m0b2d81cff7" y="307.584"/>
      </g>
     </g>
     <g id="text_6">
      <!-- 1000 -->
      <defs>
       <path d="M 12.40625 8.296875 
L 28.515625 8.296875 
L 28.515625 63.921875 
L 10.984375 60.40625 
L 10.984375 69.390625 
L 28.421875 72.90625 
L 38.28125 72.90625 
L 38.28125 8.296875 
L 54.390625 8.296875 
L 54.390625 0 
L 12.40625 0 
z
" id="DejaVuSans-31"/>
      </defs>
      <g transform="translate(401.995 322.182437)scale(0.1 -0.1)">
       <use xlink:href="#DejaVuSans-31"/>
       <use x="63.623047" xlink:href="#DejaVuSans-30"/>
       <use x="127.246094" xlink:href="#DejaVuSans-30"/>
       <use x="190.869141" xlink:href="#DejaVuSans-30"/>
      </g>
     </g>
    </g>
    <g id="text_7">
     <!-- Number of clients -->
     <defs>
      <path d="M 9.8125 72.90625 
L 23.09375 72.90625 
L 55.421875 11.921875 
L 55.421875 72.90625 
L 64.984375 72.90625 
L 64.984375 0 
L 51.703125 0 
L 19.390625 60.984375 
L 19.390625 0 
L 9.8125 0 
z
" id="DejaVuSans-4e"/>
      <path d="M 8.5 21.578125 
L 8.5 54.6875 
L 17.484375 54.6875 
L 17.484375 21.921875 
Q 17.484375 14.15625 20.5 10.265625 
Q 23.53125 6.390625 29.59375 6.390625 
Q 36.859375 6.390625 41.078125 11.03125 
Q 45.3125 15.671875 45.3125 23.6875 
L 45.3125 54.6875 
L 54.296875 54.6875 
L 54.296875 0 
L 45.3125 0 
L 45.3125 8.40625 
Q 42.046875 3.421875 37.71875 1 
Q 33.40625 -1.421875 27.6875 -1.421875 
Q 18.265625 -1.421875 13.375 4.4375 
Q 8.5 10.296875 8.5 21.578125 
M 31.109375 56 
z
" id="DejaVuSans-75"/>
      <path d="M 52 44.1875 
Q 55.375 50.25 60.0625 53.125 
Q 64.75 56 71.09375 56 
Q 79.640625 56 84.28125 50.015625 
Q 88.921875 44.046875 88.921875 33.015625 
L 88.921875 0 
L 79.890625 0 
L 79.890625 32.71875 
Q 79.890625 40.578125 77.09375 44.375 
Q 74.3125 48.1875 68.609375 48.1875 
Q 61.625 48.1875 57.5625 43.546875 
Q 53.515625 38.921875 53.515625 30.90625 
L 53.515625 0 
L 44.484375 0 
L 44.484375 32.71875 
Q 44.484375 40.625 41.703125 44.40625 
Q 38.921875 48.1875 33.109375 48.1875 
Q 26.21875 48.1875 22.15625 43.53125 
Q 18.109375 38.875 18.109375 30.90625 
L 18.109375 0 
L 9.078125 0 
L 9.078125 54.6875 
L 18.109375 54.6875 
L 18.109375 46.1875 
Q 21.1875 51.21875 25.484375 53.609375 
Q 29.78125 56 35.6875 56 
Q 41.65625 56 45.828125 52.96875 
Q 50 49.953125 52 44.1875 
" id="DejaVuSans-6d"/>
      <path d="M 48.6875 27.296875 
Q 48.6875 37.203125 44.609375 42.84375 
Q 40.53125 48.484375 33.40625 48.484375 
Q 26.265625 48.484375 22.1875 42.84375 
Q 18.109375 37.203125 18.109375 27.296875 
Q 18.109375 17.390625 22.1875 11.75 
Q 26.265625 6.109375 33.40625 6.109375 
Q 40.53125 6.109375 44.609375 11.75 
Q 48.6875 17.390625 48.6875 27.296875 
M 18.109375 46.390625 
Q 20.953125 51.265625 25.265625 53.625 
Q 29.59375 56 35.59375 56 
Q 45.5625 56 51.78125 48.09375 
Q 58.015625 40.1875 58.015625 27.296875 
Q 58.015625 14.40625 51.78125 6.484375 
Q 45.5625 -1.421875 35.59375 -1.421875 
Q 29.59375 -1.421875 25.265625 0.953125 
Q 20.953125 3.328125 18.109375 8.203125 
L 18.109375 0 
L 9.078125 0 
L 9.078125 75.984375 
L 18.109375 75.984375 
z
" id="DejaVuSans-62"/>
      <path d="M 56.203125 29.59375 
L 56.203125 25.203125 
L 14.890625 25.203125 
Q 15.484375 15.921875 20.484375 11.0625 
Q 25.484375 6.203125 34.421875 6.203125 
Q 39.59375 6.203125 44.453125 7.46875 
Q 49.3125 8.734375 54.109375 11.28125 
L 54.109375 2.78125 
Q 49.265625 0.734375 44.1875 -0.34375 
Q 39.109375 -1.421875 33.890625 -1.421875 
Q 20.796875 -1.421875 13.15625 6.1875 
Q 5.515625 13.8125 5.515625 26.8125 
Q 5.515625 40.234375 12.765625 48.109375 
Q 20.015625 56 32.328125 56 
Q 43.359375 56 49.78125 48.890625 
Q 56.203125 41.796875 56.203125 29.59375 
M 47.21875 32.234375 
Q 47.125 39.59375 43.09375 43.984375 
Q 39.0625 48.390625 32.421875 48.390625 
Q 24.90625 48.390625 20.390625 44.140625 
Q 15.875 39.890625 15.1875 32.171875 
z
" id="DejaVuSans-65"/>
      <path d="M 41.109375 46.296875 
Q 39.59375 47.171875 37.8125 47.578125 
Q 36.03125 48 33.890625 48 
Q 26.265625 48 22.1875 43.046875 
Q 18.109375 38.09375 18.109375 28.8125 
L 18.109375 0 
L 9.078125 0 
L 9.078125 54.6875 
L 18.109375 54.6875 
L 18.109375 46.1875 
Q 20.953125 51.171875 25.484375 53.578125 
Q 30.03125 56 36.53125 56 
Q 37.453125 56 38.578125 55.875 
Q 39.703125 55.765625 41.0625 55.515625 
z
" id="DejaVuSans-72"/>
      <path id="DejaVuSans-20"/>
      <path d="M 30.609375 48.390625 
Q 23.390625 48.390625 19.1875 42.75 
Q 14.984375 37.109375 14.984375 27.296875 
Q 14.984375 17.484375 19.15625 11.84375 
Q 23.34375 6.203125 30.609375 6.203125 
Q 37.796875 6.203125 41.984375 11.859375 
Q 46.1875 17.53125 46.1875 27.296875 
Q 46.1875 37.015625 41.984375 42.703125 
Q 37.796875 48.390625 30.609375 48.390625 
M 30.609375 56 
Q 42.328125 56 49.015625 48.375 
Q 55.71875 40.765625 55.71875 27.296875 
Q 55.71875 13.875 49.015625 6.21875 
Q 42.328125 -1.421875 30.609375 -1.421875 
Q 18.84375 -1.421875 12.171875 6.21875 
Q 5.515625 13.875 5.515625 27.296875 
Q 5.515625 40.765625 12.171875 48.375 
Q 18.84375 56 30.609375 56 
" id="DejaVuSans-6f"/>
      <path d="M 37.109375 75.984375 
L 37.109375 68.5 
L 28.515625 68.5 
Q 23.6875 68.5 21.796875 66.546875 
Q 19.921875 64.59375 19.921875 59.515625 
L 19.921875 54.6875 
L 34.71875 54.6875 
L 34.71875 47.703125 
L 19.921875 47.703125 
L 19.921875 0 
L 10.890625 0 
L 10.890625 47.703125 
L 2.296875 47.703125 
L 2.296875 54.6875 
L 10.890625 54.6875 
L 10.890625 58.5 
Q 10.890625 67.625 15.140625 71.796875 
Q 19.390625 75.984375 28.609375 75.984375 
z
" id="DejaVuSans-66"/>
      <path d="M 48.78125 52.59375 
L 48.78125 44.1875 
Q 44.96875 46.296875 41.140625 47.34375 
Q 37.3125 48.390625 33.40625 48.390625 
Q 24.65625 48.390625 19.8125 42.84375 
Q 14.984375 37.3125 14.984375 27.296875 
Q 14.984375 17.28125 19.8125 11.734375 
Q 24.65625 6.203125 33.40625 6.203125 
Q 37.3125 6.203125 41.140625 7.25 
Q 44.96875 8.296875 48.78125 10.40625 
L 48.78125 2.09375 
Q 45.015625 0.34375 40.984375 -0.53125 
Q 36.96875 -1.421875 32.421875 -1.421875 
Q 20.0625 -1.421875 12.78125 6.34375 
Q 5.515625 14.109375 5.515625 27.296875 
Q 5.515625 40.671875 12.859375 48.328125 
Q 20.21875 56 33.015625 56 
Q 37.15625 56 41.109375 55.140625 
Q 45.0625 54.296875 48.78125 52.59375 
" id="DejaVuSans-63"/>
      <path d="M 9.421875 75.984375 
L 18.40625 75.984375 
L 18.40625 0 
L 9.421875 0 
z
" id="DejaVuSans-6c"/>
      <path d="M 9.421875 54.6875 
L 18.40625 54.6875 
L 18.40625 0 
L 9.421875 0 
z
M 9.421875 75.984375 
L 18.40625 75.984375 
L 18.40625 64.59375 
L 9.421875 64.59375 
z
" id="DejaVuSans-69"/>
      <path d="M 54.890625 33.015625 
L 54.890625 0 
L 45.90625 0 
L 45.90625 32.71875 
Q 45.90625 40.484375 42.875 44.328125 
Q 39.84375 48.1875 33.796875 48.1875 
Q 26.515625 48.1875 22.3125 43.546875 
Q 18.109375 38.921875 18.109375 30.90625 
L 18.109375 0 
L 9.078125 0 
L 9.078125 54.6875 
L 18.109375 54.6875 
L 18.109375 46.1875 
Q 21.34375 51.125 25.703125 53.5625 
Q 30.078125 56 35.796875 56 
Q 45.21875 56 50.046875 50.171875 
Q 54.890625 44.34375 54.890625 33.015625 
" id="DejaVuSans-6e"/>
      <path d="M 18.3125 70.21875 
L 18.3125 54.6875 
L 36.8125 54.6875 
L 36.8125 47.703125 
L 18.3125 47.703125 
L 18.3125 18.015625 
Q 18.3125 11.328125 20.140625 9.421875 
Q 21.96875 7.515625 27.59375 7.515625 
L 36.8125 7.515625 
L 36.8125 0 
L 27.59375 0 
Q 17.1875 0 13.234375 3.875 
Q 9.28125 7.765625 9.28125 18.015625 
L 9.28125 47.703125 
L 2.6875 47.703125 
L 2.6875 54.6875 
L 9.28125 54.6875 
L 9.28125 70.21875 
z
" id="DejaVuSans-74"/>
      <path d="M 44.28125 53.078125 
L 44.28125 44.578125 
Q 40.484375 46.53125 36.375 47.5 
Q 32.28125 48.484375 27.875 48.484375 
Q 21.1875 48.484375 17.84375 46.4375 
Q 14.5 44.390625 14.5 40.28125 
Q 14.5 37.15625 16.890625 35.375 
Q 19.28125 33.59375 26.515625 31.984375 
L 29.59375 31.296875 
Q 39.15625 29.25 43.1875 25.515625 
Q 47.21875 21.78125 47.21875 15.09375 
Q 47.21875 7.46875 41.1875 3.015625 
Q 35.15625 -1.421875 24.609375 -1.421875 
Q 20.21875 -1.421875 15.453125 -0.5625 
Q 10.6875 0.296875 5.421875 2 
L 5.421875 11.28125 
Q 10.40625 8.6875 15.234375 7.390625 
Q 20.0625 6.109375 24.8125 6.109375 
Q 31.15625 6.109375 34.5625 8.28125 
Q 37.984375 10.453125 37.984375 14.40625 
Q 37.984375 18.0625 35.515625 20.015625 
Q 33.0625 21.96875 24.703125 23.78125 
L 21.578125 24.515625 
Q 13.234375 26.265625 9.515625 29.90625 
Q 5.8125 33.546875 5.8125 39.890625 
Q 5.8125 47.609375 11.28125 51.796875 
Q 16.75 56 26.8125 56 
Q 31.78125 56 36.171875 55.265625 
Q 40.578125 54.546875 44.28125 53.078125 
" id="DejaVuSans-73"/>
     </defs>
     <g transform="translate(191.738906 335.860562)scale(0.1 -0.1)">
      <use xlink:href="#DejaVuSans-4e"/>
      <use x="74.804688" xlink:href="#DejaVuSans-75"/>
      <use x="138.183594" xlink:href="#DejaVuSans-6d"/>
      <use x="235.595703" xlink:href="#DejaVuSans-62"/>
      <use x="299.072266" xlink:href="#DejaVuSans-65"/>
      <use x="360.595703" xlink:href="#DejaVuSans-72"/>
      <use x="401.708984" xlink:href="#DejaVuSans-20"/>
      <use x="433.496094" xlink:href="#DejaVuSans-6f"/>
      <use x="494.677734" xlink:href="#DejaVuSans-66"/>
      <use x="529.882812" xlink:href="#DejaVuSans-20"/>
      <use x="561.669922" xlink:href="#DejaVuSans-63"/>
      <use x="616.650391" xlink:href="#DejaVuSans-6c"/>
      <use x="644.433594" xlink:href="#DejaVuSans-69"/>
      <use x="672.216797" xlink:href="#DejaVuSans-65"/>
      <use x="733.740234" xlink:href="#DejaVuSans-6e"/>
      <use x="797.119141" xlink:href="#DejaVuSans-74"/>
      <use x="836.328125" xlink:href="#DejaVuSans-73"/>
     </g>
    </g>
   </g>
   <g id="matplotlib.axis_2">
    <g id="ytick_1">
     <g id="line2d_13">
      <path clip-path="url(#paa622747a3)" d="M 57.6 295.909713 
L 414.72 295.909713 
" style="fill:none;stroke:#b0b0b0;stroke-linecap:square;stroke-width:0.8;"/>
     </g>
     <g id="line2d_14">
      <defs>
       <path d="M 0 0 
L -3.5 0 
" id="m94fee6af36" style="stroke:#000000;stroke-width:0.8;"/>
      </defs>
      <g>
       <use style="stroke:#000000;stroke-width:0.8;" x="57.6" xlink:href="#m94fee6af36" y="295.909713"/>
      </g>
     </g>
     <g id="text_8">
      <!-- 0 -->
      <g transform="translate(44.2375 299.708932)scale(0.1 -0.1)">
       <use xlink:href="#DejaVuSans-30"/>
      </g>
     </g>
    </g>
    <g id="ytick_2">
     <g id="line2d_15">
      <path clip-path="url(#paa622747a3)" d="M 57.6 252.29923 
L 414.72 252.29923 
" style="fill:none;stroke:#b0b0b0;stroke-linecap:square;stroke-width:0.8;"/>
     </g>
     <g id="line2d_16">
      <g>
       <use style="stroke:#000000;stroke-width:0.8;" x="57.6" xlink:href="#m94fee6af36" y="252.29923"/>
      </g>
     </g>
     <g id="text_9">
      <!-- 100 -->
      <g transform="translate(31.5125 256.098448)scale(0.1 -0.1)">
       <use xlink:href="#DejaVuSans-31"/>
       <use x="63.623047" xlink:href="#DejaVuSans-30"/>
       <use x="127.246094" xlink:href="#DejaVuSans-30"/>
      </g>
     </g>
    </g>
    <g id="ytick_3">
     <g id="line2d_17">
      <path clip-path="url(#paa622747a3)" d="M 57.6 208.688746 
L 414.72 208.688746 
" style="fill:none;stroke:#b0b0b0;stroke-linecap:square;stroke-width:0.8;"/>
     </g>
     <g id="line2d_18">
      <g>
       <use style="stroke:#000000;stroke-width:0.8;" x="57.6" xlink:href="#m94fee6af36" y="208.688746"/>
      </g>
     </g>
     <g id="text_10">
      <!-- 200 -->
      <g transform="translate(31.5125 212.487965)scale(0.1 -0.1)">
       <use xlink:href="#DejaVuSans-32"/>
       <use x="63.623047" xlink:href="#DejaVuSans-30"/>
       <use x="127.246094" xlink:href="#DejaVuSans-30"/>
      </g>
     </g>
    </g>
    <g id="ytick_4">
     <g id="line2d_19">
      <path clip-path="url(#paa622747a3)" d="M 57.6 165.078262 
L 414.72 165.078262 
" style="fill:none;stroke:#b0b0b0;stroke-linecap:square;stroke-width:0.8;"/>
     </g>
     <g id="line2d_20">
      <g>
       <use style="stroke:#000000;stroke-width:0.8;" x="57.6" xlink:href="#m94fee6af36" y="165.078262"/>
      </g>
     </g>
     <g id="text_11">
      <!-- 300 -->
      <defs>
       <path d="M 40.578125 39.3125 
Q 47.65625 37.796875 51.625 33 
Q 55.609375 28.21875 55.609375 21.1875 
Q 55.609375 10.40625 48.1875 4.484375 
Q 40.765625 -1.421875 27.09375 -1.421875 
Q 22.515625 -1.421875 17.65625 -0.515625 
Q 12.796875 0.390625 7.625 2.203125 
L 7.625 11.71875 
Q 11.71875 9.328125 16.59375 8.109375 
Q 21.484375 6.890625 26.8125 6.890625 
Q 36.078125 6.890625 40.9375 10.546875 
Q 45.796875 14.203125 45.796875 21.1875 
Q 45.796875 27.640625 41.28125 31.265625 
Q 36.765625 34.90625 28.71875 34.90625 
L 20.21875 34.90625 
L 20.21875 43.015625 
L 29.109375 43.015625 
Q 36.375 43.015625 40.234375 45.921875 
Q 44.09375 48.828125 44.09375 54.296875 
Q 44.09375 59.90625 40.109375 62.90625 
Q 36.140625 65.921875 28.71875 65.921875 
Q 24.65625 65.921875 20.015625 65.03125 
Q 15.375 64.15625 9.8125 62.3125 
L 9.8125 71.09375 
Q 15.4375 72.65625 20.34375 73.4375 
Q 25.25 74.21875 29.59375 74.21875 
Q 40.828125 74.21875 47.359375 69.109375 
Q 53.90625 64.015625 53.90625 55.328125 
Q 53.90625 49.265625 50.4375 45.09375 
Q 46.96875 40.921875 40.578125 39.3125 
" id="DejaVuSans-33"/>
      </defs>
      <g transform="translate(31.5125 168.877481)scale(0.1 -0.1)">
       <use xlink:href="#DejaVuSans-33"/>
       <use x="63.623047" xlink:href="#DejaVuSans-30"/>
       <use x="127.246094" xlink:href="#DejaVuSans-30"/>
      </g>
     </g>
    </g>
    <g id="ytick_5">
     <g id="line2d_21">
      <path clip-path="url(#paa622747a3)" d="M 57.6 121.467779 
L 414.72 121.467779 
" style="fill:none;stroke:#b0b0b0;stroke-linecap:square;stroke-width:0.8;"/>
     </g>
     <g id="line2d_22">
      <g>
       <use style="stroke:#000000;stroke-width:0.8;" x="57.6" xlink:href="#m94fee6af36" y="121.467779"/>
      </g>
     </g>
     <g id="text_12">
      <!-- 400 -->
      <g transform="translate(31.5125 125.266997)scale(0.1 -0.1)">
       <use xlink:href="#DejaVuSans-34"/>
       <use x="63.623047" xlink:href="#DejaVuSans-30"/>
       <use x="127.246094" xlink:href="#DejaVuSans-30"/>
      </g>
     </g>
    </g>
    <g id="ytick_6">
     <g id="line2d_23">
      <path clip-path="url(#paa622747a3)" d="M 57.6 77.857295 
L 414.72 77.857295 
" style="fill:none;stroke:#b0b0b0;stroke-linecap:square;stroke-width:0.8;"/>
     </g>
     <g id="line2d_24">
      <g>
       <use style="stroke:#000000;stroke-width:0.8;" x="57.6" xlink:href="#m94fee6af36" y="77.857295"/>
      </g>
     </g>
     <g id="text_13">
      <!-- 500 -->
      <defs>
       <path d="M 10.796875 72.90625 
L 49.515625 72.90625 
L 49.515625 64.59375 
L 19.828125 64.59375 
L 19.828125 46.734375 
Q 21.96875 47.46875 24.109375 47.828125 
Q 26.265625 48.1875 28.421875 48.1875 
Q 40.625 48.1875 47.75 41.5 
Q 54.890625 34.8125 54.890625 23.390625 
Q 54.890625 11.625 47.5625 5.09375 
Q 40.234375 -1.421875 26.90625 -1.421875 
Q 22.3125 -1.421875 17.546875 -0.640625 
Q 12.796875 0.140625 7.71875 1.703125 
L 7.71875 11.625 
Q 12.109375 9.234375 16.796875 8.0625 
Q 21.484375 6.890625 26.703125 6.890625 
Q 35.15625 6.890625 40.078125 11.328125 
Q 45.015625 15.765625 45.015625 23.390625 
Q 45.015625 31 40.078125 35.4375 
Q 35.15625 39.890625 26.703125 39.890625 
Q 22.75 39.890625 18.8125 39.015625 
Q 14.890625 38.140625 10.796875 36.28125 
z
" id="DejaVuSans-35"/>
      </defs>
      <g transform="translate(31.5125 81.656514)scale(0.1 -0.1)">
       <use xlink:href="#DejaVuSans-35"/>
       <use x="63.623047" xlink:href="#DejaVuSans-30"/>
       <use x="127.246094" xlink:href="#DejaVuSans-30"/>
      </g>
     </g>
    </g>
    <g id="text_14">
     <!-- Successful download requests per second -->
     <defs>
      <path d="M 53.515625 70.515625 
L 53.515625 60.890625 
Q 47.90625 63.578125 42.921875 64.890625 
Q 37.9375 66.21875 33.296875 66.21875 
Q 25.25 66.21875 20.875 63.09375 
Q 16.5 59.96875 16.5 54.203125 
Q 16.5 49.359375 19.40625 46.890625 
Q 22.3125 44.4375 30.421875 42.921875 
L 36.375 41.703125 
Q 47.40625 39.59375 52.65625 34.296875 
Q 57.90625 29 57.90625 20.125 
Q 57.90625 9.515625 50.796875 4.046875 
Q 43.703125 -1.421875 29.984375 -1.421875 
Q 24.8125 -1.421875 18.96875 -0.25 
Q 13.140625 0.921875 6.890625 3.21875 
L 6.890625 13.375 
Q 12.890625 10.015625 18.65625 8.296875 
Q 24.421875 6.59375 29.984375 6.59375 
Q 38.421875 6.59375 43.015625 9.90625 
Q 47.609375 13.234375 47.609375 19.390625 
Q 47.609375 24.75 44.3125 27.78125 
Q 41.015625 30.8125 33.5 32.328125 
L 27.484375 33.5 
Q 16.453125 35.6875 11.515625 40.375 
Q 6.59375 45.0625 6.59375 53.421875 
Q 6.59375 63.09375 13.40625 68.65625 
Q 20.21875 74.21875 32.171875 74.21875 
Q 37.3125 74.21875 42.625 73.28125 
Q 47.953125 72.359375 53.515625 70.515625 
" id="DejaVuSans-53"/>
      <path d="M 45.40625 46.390625 
L 45.40625 75.984375 
L 54.390625 75.984375 
L 54.390625 0 
L 45.40625 0 
L 45.40625 8.203125 
Q 42.578125 3.328125 38.25 0.953125 
Q 33.9375 -1.421875 27.875 -1.421875 
Q 17.96875 -1.421875 11.734375 6.484375 
Q 5.515625 14.40625 5.515625 27.296875 
Q 5.515625 40.1875 11.734375 48.09375 
Q 17.96875 56 27.875 56 
Q 33.9375 56 38.25 53.625 
Q 42.578125 51.265625 45.40625 46.390625 
M 14.796875 27.296875 
Q 14.796875 17.390625 18.875 11.75 
Q 22.953125 6.109375 30.078125 6.109375 
Q 37.203125 6.109375 41.296875 11.75 
Q 45.40625 17.390625 45.40625 27.296875 
Q 45.40625 37.203125 41.296875 42.84375 
Q 37.203125 48.484375 30.078125 48.484375 
Q 22.953125 48.484375 18.875 42.84375 
Q 14.796875 37.203125 14.796875 27.296875 
" id="DejaVuSans-64"/>
      <path d="M 4.203125 54.6875 
L 13.1875 54.6875 
L 24.421875 12.015625 
L 35.59375 54.6875 
L 46.1875 54.6875 
L 57.421875 12.015625 
L 68.609375 54.6875 
L 77.59375 54.6875 
L 63.28125 0 
L 52.6875 0 
L 40.921875 44.828125 
L 29.109375 0 
L 18.5 0 
z
" id="DejaVuSans-77"/>
      <path d="M 34.28125 27.484375 
Q 23.390625 27.484375 19.1875 25 
Q 14.984375 22.515625 14.984375 16.5 
Q 14.984375 11.71875 18.140625 8.90625 
Q 21.296875 6.109375 26.703125 6.109375 
Q 34.1875 6.109375 38.703125 11.40625 
Q 43.21875 16.703125 43.21875 25.484375 
L 43.21875 27.484375 
z
M 52.203125 31.203125 
L 52.203125 0 
L 43.21875 0 
L 43.21875 8.296875 
Q 40.140625 3.328125 35.546875 0.953125 
Q 30.953125 -1.421875 24.3125 -1.421875 
Q 15.921875 -1.421875 10.953125 3.296875 
Q 6 8.015625 6 15.921875 
Q 6 25.140625 12.171875 29.828125 
Q 18.359375 34.515625 30.609375 34.515625 
L 43.21875 34.515625 
L 43.21875 35.40625 
Q 43.21875 41.609375 39.140625 45 
Q 35.0625 48.390625 27.6875 48.390625 
Q 23 48.390625 18.546875 47.265625 
Q 14.109375 46.140625 10.015625 43.890625 
L 10.015625 52.203125 
Q 14.9375 54.109375 19.578125 55.046875 
Q 24.21875 56 28.609375 56 
Q 40.484375 56 46.34375 49.84375 
Q 52.203125 43.703125 52.203125 31.203125 
" id="DejaVuSans-61"/>
      <path d="M 14.796875 27.296875 
Q 14.796875 17.390625 18.875 11.75 
Q 22.953125 6.109375 30.078125 6.109375 
Q 37.203125 6.109375 41.296875 11.75 
Q 45.40625 17.390625 45.40625 27.296875 
Q 45.40625 37.203125 41.296875 42.84375 
Q 37.203125 48.484375 30.078125 48.484375 
Q 22.953125 48.484375 18.875 42.84375 
Q 14.796875 37.203125 14.796875 27.296875 
M 45.40625 8.203125 
Q 42.578125 3.328125 38.25 0.953125 
Q 33.9375 -1.421875 27.875 -1.421875 
Q 17.96875 -1.421875 11.734375 6.484375 
Q 5.515625 14.40625 5.515625 27.296875 
Q 5.515625 40.1875 11.734375 48.09375 
Q 17.96875 56 27.875 56 
Q 33.9375 56 38.25 53.625 
Q 42.578125 51.265625 45.40625 46.390625 
L 45.40625 54.6875 
L 54.390625 54.6875 
L 54.390625 -20.796875 
L 45.40625 -20.796875 
z
" id="DejaVuSans-71"/>
      <path d="M 18.109375 8.203125 
L 18.109375 -20.796875 
L 9.078125 -20.796875 
L 9.078125 54.6875 
L 18.109375 54.6875 
L 18.109375 46.390625 
Q 20.953125 51.265625 25.265625 53.625 
Q 29.59375 56 35.59375 56 
Q 45.5625 56 51.78125 48.09375 
Q 58.015625 40.1875 58.015625 27.296875 
Q 58.015625 14.40625 51.78125 6.484375 
Q 45.5625 -1.421875 35.59375 -1.421875 
Q 29.59375 -1.421875 25.265625 0.953125 
Q 20.953125 3.328125 18.109375 8.203125 
M 48.6875 27.296875 
Q 48.6875 37.203125 44.609375 42.84375 
Q 40.53125 48.484375 33.40625 48.484375 
Q 26.265625 48.484375 22.1875 42.84375 
Q 18.109375 37.203125 18.109375 27.296875 
Q 18.109375 17.390625 22.1875 11.75 
Q 26.265625 6.109375 33.40625 6.109375 
Q 40.53125 6.109375 44.609375 11.75 
Q 48.6875 17.390625 48.6875 27.296875 
" id="DejaVuSans-70"/>
     </defs>
     <g transform="translate(25.432812 279.366281)rotate(-90)scale(0.1 -0.1)">
      <use xlink:href="#DejaVuSans-53"/>
      <use x="63.476562" xlink:href="#DejaVuSans-75"/>
      <use x="126.855469" xlink:href="#DejaVuSans-63"/>
      <use x="181.835938" xlink:href="#DejaVuSans-63"/>
      <use x="236.816406" xlink:href="#DejaVuSans-65"/>
      <use x="298.339844" xlink:href="#DejaVuSans-73"/>
      <use x="350.439453" xlink:href="#DejaVuSans-73"/>
      <use x="402.539062" xlink:href="#DejaVuSans-66"/>
      <use x="437.744141" xlink:href="#DejaVuSans-75"/>
      <use x="501.123047" xlink:href="#DejaVuSans-6c"/>
      <use x="528.90625" xlink:href="#DejaVuSans-20"/>
      <use x="560.693359" xlink:href="#DejaVuSans-64"/>
      <use x="624.169922" xlink:href="#DejaVuSans-6f"/>
      <use x="685.351562" xlink:href="#DejaVuSans-77"/>
      <use x="767.138672" xlink:href="#DejaVuSans-6e"/>
      <use x="830.517578" xlink:href="#DejaVuSans-6c"/>
      <use x="858.300781" xlink:href="#DejaVuSans-6f"/>
      <use x="919.482422" xlink:href="#DejaVuSans-61"/>
      <use x="980.761719" xlink:href="#DejaVuSans-64"/>
      <use x="1044.238281" xlink:href="#DejaVuSans-20"/>
      <use x="1076.025391" xlink:href="#DejaVuSans-72"/>
      <use x="1117.107422" xlink:href="#DejaVuSans-65"/>
      <use x="1178.630859" xlink:href="#DejaVuSans-71"/>
      <use x="1242.107422" xlink:href="#DejaVuSans-75"/>
      <use x="1305.486328" xlink:href="#DejaVuSans-65"/>
      <use x="1367.009766" xlink:href="#DejaVuSans-73"/>
      <use x="1419.109375" xlink:href="#DejaVuSans-74"/>
      <use x="1458.318359" xlink:href="#DejaVuSans-73"/>
      <use x="1510.417969" xlink:href="#DejaVuSans-20"/>
      <use x="1542.205078" xlink:href="#DejaVuSans-70"/>
      <use x="1605.681641" xlink:href="#DejaVuSans-65"/>
      <use x="1667.205078" xlink:href="#DejaVuSans-72"/>
      <use x="1708.318359" xlink:href="#DejaVuSans-20"/>
      <use x="1740.105469" xlink:href="#DejaVuSans-73"/>
      <use x="1792.205078" xlink:href="#DejaVuSans-65"/>
      <use x="1853.728516" xlink:href="#DejaVuSans-63"/>
      <use x="1908.708984" xlink:href="#DejaVuSans-6f"/>
      <use x="1969.890625" xlink:href="#DejaVuSans-6e"/>
      <use x="2033.269531" xlink:href="#DejaVuSans-64"/>
     </g>
    </g>
   </g>
   <g id="line2d_25">
    <path clip-path="url(#paa622747a3)" d="M 57.6 295.476225 
L 57.95712 295.488 
L 61.52832 291.263889 
L 61.88544 290.993504 
L 62.59968 289.861375 
L 63.31392 289.03016 
L 63.67104 288.807746 
L 64.02816 288.199816 
L 64.38528 288.012291 
L 65.09952 286.769392 
L 65.45664 286.85923 
L 65.81376 286.013622 
L 66.528 285.770276 
L 66.88512 285.283147 
L 67.24224 284.143169 
L 67.59936 284.524324 
L 67.95648 283.29102 
L 68.3136 283.605015 
L 68.67072 282.546589 
L 69.02784 282.270099 
L 69.74208 281.245252 
L 70.45632 280.895496 
L 70.81344 280.617697 
L 71.17056 279.699697 
L 71.8848 278.503461 
L 72.24192 278.785185 
L 72.59904 277.965308 
L 72.95616 277.605957 
L 73.31328 277.465095 
L 73.6704 276.449843 
L 74.02752 276.749011 
L 74.38464 275.848891 
L 74.74176 276.373089 
L 75.09888 274.778254 
L 76.17024 273.649614 
L 76.52736 274.135871 
L 76.88448 272.61561 
L 77.2416 272.555427 
L 77.59872 271.763025 
L 77.95584 271.5755 
L 78.31296 271.745144 
L 78.67008 271.573755 
L 79.0272 271.120642 
L 79.38432 270.21965 
L 79.74144 269.743859 
L 80.09856 269.006406 
L 80.45568 268.585129 
L 80.8128 269.309063 
L 81.16992 269.036933 
L 81.52704 267.081439 
L 81.88416 268.274186 
L 82.24128 266.521917 
L 82.5984 266.722089 
L 82.95552 266.792738 
L 83.66976 265.123765 
L 84.02688 265.517567 
L 84.384 263.382834 
L 84.74112 265.006889 
L 85.45536 262.464833 
L 85.81248 263.444761 
L 86.1696 263.258544 
L 86.52672 261.166113 
L 86.88384 262.472247 
L 87.24096 259.943711 
L 87.59808 259.846024 
L 87.9552 259.222394 
L 88.31232 259.115984 
L 88.66944 259.85431 
L 89.02656 257.803745 
L 89.38368 259.590466 
L 89.7408 258.110763 
L 90.09792 258.646736 
L 90.45504 256.605329 
L 91.16928 256.146983 
L 91.5264 255.022268 
L 91.88352 254.781975 
L 92.24064 253.734887 
L 92.59776 255.492825 
L 92.95488 254.884023 
L 93.312 253.370739 
L 93.66912 254.894053 
L 94.02624 252.186715 
L 94.38336 254.025333 
L 95.0976 251.304475 
L 95.45472 251.048045 
L 95.81184 251.941188 
L 96.16896 249.983949 
L 96.52608 251.202862 
L 96.8832 250.822579 
L 97.24032 247.556153 
L 97.59744 250.37906 
L 97.95456 247.102604 
L 98.31168 247.206397 
L 98.6688 246.596723 
L 99.02592 248.476771 
L 99.38304 245.453256 
L 99.74016 246.124421 
L 100.09728 245.651684 
L 100.4544 246.80082 
L 100.81152 245.098703 
L 101.16864 245.055092 
L 101.52576 243.079973 
L 101.88288 245.345538 
L 102.24 242.266638 
L 102.59712 241.144976 
L 102.95424 244.09915 
L 103.31136 242.401394 
L 103.66848 242.653027 
L 104.0256 242.196425 
L 104.38272 240.239623 
L 104.73984 242.175928 
L 105.09696 240.851478 
L 105.45408 237.553653 
L 105.8112 240.736346 
L 106.16832 237.732892 
L 106.52544 238.597252 
L 106.88256 237.260591 
L 107.23968 239.21216 
L 107.5968 235.239681 
L 107.95392 237.638693 
L 108.31104 236.297671 
L 108.66816 233.647026 
L 109.02528 235.207409 
L 109.3824 234.360929 
L 109.73952 235.670116 
L 110.09664 232.318214 
L 110.45376 235.206537 
L 110.81088 232.444685 
L 111.168 232.302951 
L 111.52512 231.611288 
L 111.88224 230.150773 
L 112.23936 229.592123 
L 112.59648 232.157728 
L 112.9536 230.338735 
L 113.31072 230.315621 
L 113.66784 230.935326 
L 114.02496 228.33178 
L 114.38208 230.932709 
L 114.7392 229.923127 
L 115.09632 225.863863 
L 115.45344 229.736474 
L 115.81056 228.053981 
L 116.16768 227.612643 
L 116.5248 225.513671 
L 116.88192 227.78316 
L 117.23904 223.98774 
L 117.95328 226.175242 
L 118.3104 222.176596 
L 118.66752 224.54639 
L 119.02464 222.706028 
L 119.38176 222.25902 
L 119.73888 221.631465 
L 120.096 219.607503 
L 120.45312 221.229377 
L 120.81024 221.010016 
L 121.16736 221.081537 
L 121.52448 220.721315 
L 121.8816 221.724356 
L 122.23872 218.588326 
L 122.59584 220.516781 
L 122.95296 216.957294 
L 123.31008 221.210624 
L 123.6672 215.597519 
L 124.02432 216.673826 
L 124.38144 218.148732 
L 124.73856 217.933732 
L 125.09568 215.274365 
L 125.4528 215.828218 
L 125.80992 217.249048 
L 126.16704 216.391666 
L 126.88128 212.460181 
L 127.2384 212.839592 
L 127.59552 215.357661 
L 127.95264 215.536028 
L 128.66688 211.639867 
L 129.024 211.259148 
L 129.38112 212.725768 
L 129.73824 210.881481 
L 130.09536 209.666929 
L 130.45248 212.922888 
L 130.8096 211.045457 
L 131.16672 206.556193 
L 131.52384 207.550512 
L 131.88096 207.288849 
L 132.23808 206.263131 
L 132.5952 210.622871 
L 133.30944 203.455488 
L 133.66656 204.722809 
L 134.02368 207.051608 
L 134.3808 208.461099 
L 134.73792 201.888999 
L 135.09504 201.646089 
L 135.45216 201.111861 
L 135.80928 206.178963 
L 136.1664 205.66872 
L 136.52352 200.326436 
L 136.88064 202.198198 
L 137.23776 199.346072 
L 137.59488 198.331692 
L 137.952 198.933081 
L 138.30912 203.586756 
L 138.66624 198.708923 
L 139.02336 201.322063 
L 139.38048 200.508728 
L 139.7376 199.046032 
L 140.09472 198.51224 
L 140.45184 195.597315 
L 140.80896 197.797028 
L 141.16608 195.325622 
L 141.5232 200.175544 
L 141.88032 195.006393 
L 142.23744 197.595547 
L 142.59456 198.590302 
L 142.95168 198.049969 
L 143.3088 192.768303 
L 143.66592 191.463041 
L 144.02304 195.824526 
L 144.38016 194.661434 
L 144.73728 191.057027 
L 145.0944 193.214874 
L 145.45152 193.562014 
L 145.80864 195.641798 
L 146.16576 192.154267 
L 146.52288 190.231045 
L 146.88 190.577312 
L 147.23712 186.89179 
L 147.95136 192.665382 
L 148.30848 192.024744 
L 148.6656 184.85082 
L 149.37984 184.230678 
L 149.73696 189.577324 
L 150.09408 183.409057 
L 150.4512 187.856018 
L 150.80832 183.631907 
L 151.16544 186.449144 
L 151.52256 185.244622 
L 151.87968 182.59921 
L 152.2368 180.989111 
L 152.59392 187.100248 
L 152.95104 179.860908 
L 153.30816 185.521549 
L 153.66528 180.872235 
L 154.0224 183.889644 
L 154.37952 184.773629 
L 154.73664 180.727012 
L 155.09376 183.403388 
L 155.45088 180.139143 
L 156.16512 176.083804 
L 156.52224 180.926312 
L 156.87936 180.434822 
L 157.5936 174.877538 
L 157.95072 180.106871 
L 158.66496 176.561339 
L 159.02208 175.099079 
L 159.3792 180.033169 
L 159.73632 177.40869 
L 160.09344 178.571346 
L 160.45056 172.711841 
L 161.1648 176.955578 
L 161.52192 171.259612 
L 161.87904 172.872764 
L 162.23616 176.198936 
L 162.59328 171.024552 
L 162.9504 168.492527 
L 163.30752 167.247448 
L 164.02176 174.137904 
L 164.37888 169.493824 
L 164.736 170.5915 
L 165.09312 167.72978 
L 165.45024 171.507756 
L 165.80736 167.33118 
L 166.16448 172.335919 
L 166.5216 169.806511 
L 166.87872 162.742049 
L 167.23584 166.083484 
L 167.59296 162.228753 
L 167.95008 167.718441 
L 168.3072 168.884149 
L 168.66432 164.648263 
L 169.02144 168.074303 
L 169.37856 166.556222 
L 169.73568 160.736403 
L 170.0928 166.210391 
L 170.44992 163.5894 
L 170.80704 164.17727 
L 171.16416 165.373069 
L 171.52128 162.820111 
L 171.8784 157.049572 
L 172.23552 157.233172 
L 172.59264 157.05655 
L 172.94976 162.946146 
L 173.30688 158.459499 
L 173.664 161.606868 
L 174.02112 157.17299 
L 174.37824 156.258042 
L 174.73536 158.294216 
L 175.09248 154.470012 
L 175.4496 156.054817 
L 175.80672 159.470826 
L 176.16384 153.332215 
L 176.52096 154.620904 
L 176.87808 158.62173 
L 177.2352 159.867246 
L 177.59232 151.081042 
L 177.94944 158.108871 
L 178.30656 149.341855 
L 178.66368 156.328691 
L 179.0208 155.584696 
L 179.37792 153.568583 
L 179.73504 154.884312 
L 180.09216 151.132066 
L 180.44928 151.959357 
L 180.8064 148.592191 
L 181.16352 151.312613 
L 181.52064 154.920072 
L 181.87776 145.398595 
L 182.23488 151.017806 
L 182.592 150.955007 
L 182.94912 147.465732 
L 183.30624 150.438659 
L 183.66336 149.518914 
L 184.02048 143.300931 
L 184.3776 151.442136 
L 184.73472 146.927143 
L 185.09184 150.421215 
L 185.80608 142.526409 
L 186.52032 147.289982 
L 186.87744 149.145172 
L 187.23456 148.557303 
L 187.59168 146.753573 
L 187.9488 142.270415 
L 188.30592 145.914071 
L 188.66304 140.079425 
L 189.02016 141.921968 
L 189.37728 141.958601 
L 189.7344 138.925927 
L 190.09152 142.257332 
L 190.44864 146.801545 
L 191.16288 137.157958 
L 191.52 138.883625 
L 191.87712 144.972521 
L 192.23424 144.772349 
L 192.59136 138.889731 
L 192.94848 137.73885 
L 193.3056 139.05109 
L 193.66272 139.477164 
L 194.01984 135.831764 
L 194.37696 139.588371 
L 194.73408 135.008834 
L 195.0912 138.910664 
L 195.44832 137.052857 
L 195.80544 137.41526 
L 196.16256 140.506371 
L 196.51968 144.674225 
L 196.8768 135.051136 
L 197.23392 143.817715 
L 197.59104 134.972201 
L 197.94816 138.812976 
L 198.30528 143.897959 
L 198.6624 142.903204 
L 199.01952 133.813034 
L 199.37664 139.864425 
L 199.73376 132.463726 
L 200.09088 140.33411 
L 200.80512 134.976126 
L 201.16224 137.972602 
L 201.51936 136.505546 
L 201.87648 132.120948 
L 202.2336 131.189864 
L 202.59072 134.557465 
L 202.94784 131.562297 
L 203.30496 130.141468 
L 203.66208 139.614101 
L 204.0192 139.690419 
L 204.37632 139.347641 
L 204.73344 131.317206 
L 205.09056 134.212506 
L 205.44768 133.397426 
L 205.8048 128.976196 
L 206.16192 133.052031 
L 206.51904 131.976597 
L 206.87616 129.666986 
L 207.23328 131.819163 
L 207.5904 135.152748 
L 207.94752 129.908588 
L 208.30464 134.498155 
L 208.66176 129.538335 
L 209.01888 133.831351 
L 209.376 128.424087 
L 209.73312 137.840463 
L 210.09024 126.987994 
L 210.44736 135.058986 
L 210.80448 130.191184 
L 211.1616 133.742385 
L 211.51872 126.329911 
L 211.87584 129.075628 
L 212.23296 136.788142 
L 212.9472 127.086553 
L 213.30432 125.421069 
L 213.66144 126.769941 
L 214.01856 132.017155 
L 214.37568 126.310723 
L 214.7328 128.254878 
L 215.08992 133.136636 
L 215.44704 132.950419 
L 215.80416 133.656037 
L 216.5184 126.143259 
L 216.87552 134.286644 
L 217.23264 132.36255 
L 217.58976 129.043356 
L 217.94688 131.44891 
L 218.304 129.711905 
L 218.66112 124.585492 
L 219.01824 125.658746 
L 219.37536 129.482949 
L 219.73248 123.21089 
L 220.0896 130.148882 
L 220.44672 128.342971 
L 220.80384 127.767313 
L 221.16096 124.917804 
L 221.51808 128.363032 
L 221.8752 130.028081 
L 222.23232 123.178618 
L 222.58944 121.726825 
L 222.94656 123.6374 
L 223.30368 120.549778 
L 223.6608 130.484682 
L 224.01792 128.088286 
L 224.37504 128.670486 
L 224.73216 131.487287 
L 225.08928 130.124024 
L 225.4464 120.514453 
L 225.80352 121.390588 
L 226.16064 123.767359 
L 226.51776 127.995832 
L 226.87488 128.027232 
L 227.232 126.80483 
L 227.94624 127.539666 
L 228.30336 128.54358 
L 228.66048 123.219176 
L 229.0176 123.099683 
L 229.37472 126.163756 
L 229.73184 126.335145 
L 230.08896 124.880735 
L 230.44608 124.188201 
L 230.8032 124.560198 
L 231.16032 120.756928 
L 231.51744 125.09399 
L 231.87456 122.152027 
L 232.23168 121.770435 
L 232.5888 122.068731 
L 232.94592 125.517448 
L 233.30304 115.896975 
L 234.01728 122.185171 
L 234.3744 117.089286 
L 234.73152 119.07051 
L 235.08864 125.197347 
L 235.44576 124.807033 
L 235.80288 119.253238 
L 236.16 123.099247 
L 236.51712 121.474756 
L 236.87424 121.667079 
L 237.23136 120.561553 
L 237.58848 117.415929 
L 237.9456 115.438629 
L 238.30272 122.558477 
L 238.65984 115.805393 
L 239.01696 124.716324 
L 239.37408 124.774762 
L 239.7312 115.266804 
L 240.08832 119.65053 
L 240.44544 113.44563 
L 240.80256 123.229206 
L 241.15968 120.179089 
L 241.5168 123.014643 
L 241.87392 120.642232 
L 242.23104 124.578951 
L 242.58816 123.017259 
L 242.94528 115.103701 
L 243.3024 111.672428 
L 243.65952 114.298215 
L 244.01664 120.279393 
L 244.37376 122.606885 
L 244.73088 112.161301 
L 245.088 122.319928 
L 245.44512 115.154725 
L 245.80224 123.20304 
L 246.15936 118.822803 
L 246.51648 117.233201 
L 246.8736 119.835002 
L 247.58784 118.374051 
L 247.94496 122.459045 
L 248.6592 112.293005 
L 249.01632 113.780123 
L 249.37344 116.815848 
L 249.73056 115.819785 
L 250.08768 109.850818 
L 250.4448 117.788798 
L 250.80192 116.950169 
L 251.15904 111.258128 
L 251.51616 110.742652 
L 251.87328 116.969793 
L 252.58752 118.63833 
L 252.94464 114.788397 
L 253.30176 116.16518 
L 253.65888 116.420301 
L 254.016 118.91264 
L 254.73024 113.956309 
L 255.08736 117.342663 
L 255.44448 107.977748 
L 255.8016 116.373638 
L 256.15872 112.963734 
L 256.51584 118.902174 
L 257.23008 113.018247 
L 257.5872 108.943284 
L 257.94432 108.893132 
L 258.30144 107.039686 
L 258.65856 110.584346 
L 259.01568 111.419051 
L 259.72992 105.925874 
L 260.08704 115.43514 
L 260.44416 117.511872 
L 261.1584 109.689895 
L 261.51552 109.481873 
L 261.87264 113.392425 
L 262.22976 113.861238 
L 262.58688 110.112481 
L 262.944 108.07151 
L 263.30112 114.761358 
L 263.65824 104.481059 
L 264.01536 104.392966 
L 264.37248 109.56735 
L 264.7296 109.80808 
L 265.08672 106.635417 
L 265.44384 107.336238 
L 265.80096 109.395088 
L 266.15808 108.266449 
L 266.5152 105.573938 
L 266.87232 110.61531 
L 267.22944 105.30835 
L 267.58656 105.20979 
L 267.94368 114.433844 
L 268.3008 101.317555 
L 268.65792 102.090332 
L 269.01504 101.430942 
L 269.37216 112.101555 
L 269.72928 101.669055 
L 270.44352 113.785356 
L 270.80064 102.455352 
L 271.15776 110.546841 
L 271.51488 101.367707 
L 271.872 112.589556 
L 272.22912 101.075953 
L 272.58624 111.282114 
L 272.94336 108.549045 
L 273.30048 111.281242 
L 273.6576 108.489735 
L 274.01472 111.488828 
L 274.37184 98.75413 
L 274.72896 109.639743 
L 275.08608 105.761899 
L 275.4432 108.533781 
L 275.80032 109.39945 
L 276.15744 103.061974 
L 276.51456 100.001826 
L 276.87168 105.068056 
L 277.2288 98.173675 
L 277.58592 104.60753 
L 277.94304 100.818651 
L 278.30016 106.74924 
L 278.65728 108.804166 
L 279.0144 104.356333 
L 279.37152 97.100421 
L 279.72864 99.879281 
L 280.44288 98.199405 
L 280.8 103.599691 
L 281.15712 100.208976 
L 281.51424 109.006519 
L 281.87136 100.600598 
L 282.22848 104.532956 
L 282.5856 97.950825 
L 282.94272 107.979056 
L 283.29984 105.829495 
L 283.65696 102.032767 
L 284.01408 105.235521 
L 284.3712 100.16711 
L 284.72832 97.740187 
L 285.08544 105.710875 
L 285.44256 106.288714 
L 285.79968 96.820006 
L 286.1568 95.105677 
L 286.87104 103.972997 
L 287.22816 93.926886 
L 287.58528 98.890195 
L 288.29952 93.99361 
L 288.65664 101.677777 
L 289.01376 99.264373 
L 289.37088 104.788949 
L 290.08512 103.884032 
L 290.44224 104.726586 
L 290.79936 104.516384 
L 291.15648 97.13749 
L 291.5136 95.524774 
L 291.87072 92.883287 
L 292.22784 97.877996 
L 292.58496 92.191189 
L 292.94208 103.655949 
L 293.2992 102.730534 
L 293.65632 92.19773 
L 294.01344 94.444979 
L 294.37056 104.063707 
L 294.72768 104.600552 
L 295.0848 97.401769 
L 295.44192 95.652117 
L 295.79904 104.86614 
L 296.15616 92.391361 
L 296.51328 102.061986 
L 296.8704 101.334127 
L 297.22752 93.790385 
L 297.58464 101.159685 
L 297.94176 102.161854 
L 298.29888 101.375993 
L 298.656 92.369992 
L 299.01312 100.133966 
L 299.37024 94.052048 
L 299.72736 95.025434 
L 300.08448 101.503335 
L 300.4416 93.253104 
L 300.79872 89.414945 
L 301.15584 98.54262 
L 301.51296 94.645587 
L 301.87008 92.748531 
L 302.2272 89.628201 
L 302.58432 91.653472 
L 302.94144 92.240469 
L 303.29856 93.265315 
L 303.65568 92.543125 
L 304.0128 93.409666 
L 304.36992 92.08914 
L 304.72704 100.095589 
L 305.08416 98.719242 
L 305.44128 90.341232 
L 305.7984 97.206394 
L 306.15552 100.480233 
L 306.51264 88.061712 
L 306.86976 90.74899 
L 307.22688 88.146753 
L 307.584 91.439344 
L 307.94112 96.130088 
L 308.29824 93.424929 
L 308.65536 97.138362 
L 309.01248 93.769016 
L 309.3696 93.883276 
L 309.72672 87.416713 
L 310.08384 85.995883 
L 310.44096 90.675724 
L 310.79808 88.738983 
L 311.1552 94.341622 
L 311.51232 86.82361 
L 311.86944 94.944319 
L 312.22656 97.382581 
L 312.58368 95.090414 
L 312.9408 98.331545 
L 313.29792 98.83699 
L 313.65504 91.548806 
L 314.01216 97.46326 
L 314.7264 92.836188 
L 315.08352 97.425755 
L 315.79776 83.660978 
L 316.15488 91.899871 
L 316.512 87.433721 
L 316.86912 97.591475 
L 317.22624 89.829681 
L 317.58336 88.800474 
L 317.94048 90.366962 
L 318.2976 87.172058 
L 318.65472 82.853748 
L 319.36896 87.828396 
L 319.72608 91.525257 
L 320.0832 89.401426 
L 320.44032 91.96485 
L 320.79744 89.479489 
L 321.15456 86.121918 
L 321.51168 85.101432 
L 321.8688 86.168145 
L 322.22592 88.077412 
L 322.58304 88.876356 
L 323.29728 82.831943 
L 323.6544 86.175123 
L 324.01152 82.304692 
L 324.36864 94.864075 
L 324.72576 83.452084 
L 325.08288 90.321171 
L 325.44 87.970566 
L 325.79712 84.544963 
L 326.15424 83.126314 
L 326.51136 91.342965 
L 326.86848 84.73554 
L 327.2256 88.737238 
L 327.58272 83.363991 
L 327.93984 84.731616 
L 328.29696 92.866715 
L 328.65408 91.312438 
L 329.0112 79.551126 
L 329.36832 89.901202 
L 329.72544 88.100089 
L 330.08256 81.672776 
L 330.43968 91.965286 
L 330.7968 91.792589 
L 331.15392 83.589893 
L 331.51104 84.34261 
L 331.86816 90.343849 
L 332.22528 86.889026 
L 332.5824 89.539235 
L 332.93952 86.997616 
L 333.29664 88.183385 
L 333.65376 78.434698 
L 334.01088 92.349931 
L 334.368 80.74082 
L 334.72512 88.605971 
L 335.08224 78.990731 
L 335.43936 78.367974 
L 335.79648 89.344732 
L 336.1536 86.07133 
L 336.51072 86.08136 
L 336.86784 83.571577 
L 337.22496 83.749944 
L 337.58208 76.159103 
L 337.9392 78.058339 
L 338.29632 80.776145 
L 338.65344 84.360054 
L 339.01056 82.721172 
L 339.36768 77.872123 
L 339.7248 87.264512 
L 340.08192 86.474727 
L 340.43904 78.576432 
L 340.79616 80.162545 
L 341.15328 86.591603 
L 341.5104 89.762085 
L 341.86752 83.568524 
L 342.22464 83.751688 
L 342.58176 87.98016 
L 342.93888 82.598627 
L 343.296 81.835443 
L 343.65312 81.459957 
L 344.01024 77.94626 
L 344.36736 82.200027 
L 344.72448 73.91011 
L 345.0816 76.361892 
L 345.43872 81.539764 
L 345.79584 74.872593 
L 346.15296 78.840711 
L 346.51008 88.534014 
L 346.8672 85.245347 
L 347.22432 75.66456 
L 347.58144 84.560226 
L 347.93856 77.2812 
L 348.29568 80.123296 
L 348.6528 78.120702 
L 349.00992 85.143298 
L 349.36704 77.255906 
L 349.72416 86.635213 
L 350.08128 83.660978 
L 350.4384 72.861278 
L 350.79552 77.312164 
L 351.15264 87.401885 
L 351.50976 85.082244 
L 351.86688 85.164232 
L 352.224 75.171761 
L 352.58112 78.079708 
L 352.93824 79.259808 
L 353.29536 79.559848 
L 353.65248 86.175995 
L 354.0096 77.309983 
L 354.36672 71.982527 
L 354.72384 79.440792 
L 355.08096 76.066212 
L 355.7952 74.899196 
L 356.15232 78.091919 
L 356.50944 77.193107 
L 356.86656 79.75784 
L 357.22368 83.496567 
L 357.5808 70.976433 
L 357.93792 84.236637 
L 358.29504 85.019881 
L 358.65216 71.134739 
L 359.00928 76.608727 
L 359.3664 73.389401 
L 359.72352 84.540602 
L 360.08064 80.909157 
L 360.43776 79.595609 
L 360.79488 73.731743 
L 361.152 71.220215 
L 361.50912 83.433331 
L 361.86624 74.154765 
L 362.22336 75.624438 
L 362.58048 82.787896 
L 362.9376 75.697268 
L 363.29472 80.824988 
L 363.65184 76.345756 
L 364.00896 68.843008 
L 364.36608 83.165999 
L 364.7232 69.662885 
L 365.08032 73.377626 
L 365.43744 74.839013 
L 365.79456 71.001291 
L 366.15168 72.223257 
L 366.5088 80.964106 
L 366.86592 72.553824 
L 367.22304 82.089692 
L 367.58016 66.882281 
L 367.93728 68.266477 
L 368.2944 75.019125 
L 368.65152 78.434262 
L 369.00864 77.301697 
L 369.36576 80.640952 
L 369.72288 71.347122 
L 370.08 75.669793 
L 370.43712 76.838554 
L 370.79424 68.900138 
L 371.15136 71.018735 
L 371.50848 67.621042 
L 371.8656 81.300343 
L 372.22272 65.59708 
L 372.57984 67.961204 
L 372.93696 66.916733 
L 373.29408 73.861266 
L 373.6512 77.511464 
L 374.00832 75.418161 
L 374.72256 69.395117 
L 375.07968 72.175721 
L 375.4368 71.08197 
L 375.79392 65.266076 
L 376.15104 74.331387 
L 376.50816 74.326154 
L 376.86528 65.237729 
L 377.2224 65.797688 
L 377.57952 67.025323 
L 377.93664 70.857376 
L 378.29376 66.456206 
L 378.65088 68.353698 
L 379.008 63.621961 
L 379.36512 69.774964 
L 379.72224 68.5953 
L 380.43648 75.063607 
L 380.7936 68.332329 
L 381.15072 76.022166 
L 381.50784 69.285654 
L 381.86496 70.130826 
L 382.22208 66.265192 
L 382.5792 66.341075 
L 382.93632 75.52239 
L 383.29344 65.166644 
L 383.65056 75.815016 
L 384.00768 64.597527 
L 384.3648 73.926246 
L 384.72192 72.726522 
L 385.07904 65.992191 
L 385.43616 73.067992 
L 385.79328 71.225885 
L 386.1504 76.222338 
L 386.50752 70.893137 
L 386.86464 61.197654 
L 387.22176 65.933317 
L 387.57888 65.452293 
L 387.936 75.253749 
L 388.29312 65.213744 
L 388.65024 75.403769 
L 389.00736 76.015188 
L 389.36448 65.236421 
L 389.7216 70.056252 
L 390.07872 60.703111 
L 390.43584 73.956337 
L 391.15008 62.509457 
L 391.5072 66.908883 
L 391.86432 73.316135 
L 392.22144 72.025701 
L 392.57856 73.501916 
L 392.93568 61.051123 
L 393.2928 62.590573 
L 393.64992 67.036226 
L 394.00704 65.342394 
L 394.36416 65.358094 
L 394.72128 64.79203 
L 395.0784 66.886206 
L 395.43552 71.959413 
L 395.79264 64.423958 
L 396.14976 73.346227 
L 396.50688 59.693529 
L 396.864 74.170029 
L 397.22112 61.23952 
L 397.57824 67.024887 
L 397.93536 58.250894 
L 398.29248 68.947237 
L 398.6496 61.385615 
L 399.00672 71.491473 
L 399.72096 66.366805 
L 400.07808 68.191903 
L 400.4352 71.775813 
L 400.79232 69.805491 
L 401.14944 61.93816 
L 401.86368 70.806788 
L 402.2208 60.884531 
L 402.93504 59.997058 
L 403.29216 60.820423 
L 403.64928 62.182379 
L 404.0064 62.31888 
L 404.36352 67.633253 
L 404.72064 70.043169 
L 405.07776 66.448356 
L 405.43488 66.435709 
L 405.792 65.211127 
L 406.14912 67.017909 
L 406.50624 56.236525 
L 406.86336 70.585683 
L 407.22048 58.144484 
L 407.5776 69.958564 
L 407.93472 59.870151 
L 408.29184 60.193741 
L 408.64896 63.00182 
L 409.00608 67.249045 
L 409.3632 57.515185 
L 409.72032 68.90319 
L 410.43456 62.754984 
L 410.79168 54.968769 
L 411.1488 65.629351 
L 411.50592 68.077208 
L 411.86304 67.202818 
L 412.22016 70.111637 
L 412.57728 60.632898 
L 412.9344 64.815144 
L 413.29152 57.517365 
L 413.64864 66.749705 
L 414.00576 54.533972 
L 414.36288 53.568 
L 414.72 63.28616 
L 414.72 63.28616 
" style="fill:none;stroke:#000080;stroke-linecap:square;stroke-width:0.5;"/>
   </g>
   <g id="patch_3">
    <path d="M 57.6 307.584 
L 57.6 41.472 
" style="fill:none;stroke:#000000;stroke-linecap:square;stroke-linejoin:miter;stroke-width:0.8;"/>
   </g>
   <g id="patch_4">
    <path d="M 414.72 307.584 
L 414.72 41.472 
" style="fill:none;stroke:#000000;stroke-linecap:square;stroke-linejoin:miter;stroke-width:0.8;"/>
   </g>
   <g id="patch_5">
    <path d="M 57.6 307.584 
L 414.72 307.584 
" style="fill:none;stroke:#000000;stroke-linecap:square;stroke-linejoin:miter;stroke-width:0.8;"/>
   </g>
   <g id="patch_6">
    <path d="M 57.6 41.472 
L 414.72 41.472 
" style="fill:none;stroke:#000000;stroke-linecap:square;stroke-linejoin:miter;stroke-width:0.8;"/>
   </g>
   <g id="text_15">
    <!-- Test -->
    <defs>
     <path d="M -0.296875 72.90625 
L 61.375 72.90625 
L 61.375 64.59375 
L 35.5 64.59375 
L 35.5 0 
L 25.59375 0 
L 25.59375 64.59375 
L -0.296875 64.59375 
z
" id="DejaVuSans-54"/>
    </defs>
    <g transform="translate(223.341563 35.472)scale(0.12 -0.12)">
     <use xlink:href="#DejaVuSans-54"/>
     <use x="60.818359" xlink:href="#DejaVuSans-65"/>
     <use x="122.341797" xlink:href="#DejaVuSans-73"/>
     <use x="174.441406" xlink:href="#DejaVuSans-74"/>
    </g>
   </g>
   <g id="legend_1">
    <g id="patch_7">
     <path d="M 64.6 64.150125 
L 306.276563 64.150125 
Q 308.276563 64.150125 308.276563 62.150125 
L 308.276563 48.472 
Q 308.276563 46.472 306.276563 46.472 
L 64.6 46.472 
Q 62.6 46.472 62.6 48.472 
L 62.6 62.150125 
Q 62.6 64.150125 64.6 64.150125 
z
" style="fill:#ffffff;opacity:0.8;stroke:#cccccc;stroke-linejoin:miter;"/>
    </g>
    <g id="line2d_26">
     <path d="M 66.6 54.570438 
L 86.6 54.570438 
" style="fill:none;stroke:#000080;stroke-linecap:square;stroke-width:0.5;"/>
    </g>
    <g id="line2d_27"/>
    <g id="text_16">
     <!-- Successful download requests per second -->
     <g transform="translate(94.6 58.070438)scale(0.1 -0.1)">
      <use xlink:href="#DejaVuSans-53"/>
      <use x="63.476562" xlink:href="#DejaVuSans-75"/>
      <use x="126.855469" xlink:href="#DejaVuSans-63"/>
      <use x="181.835938" xlink:href="#DejaVuSans-63"/>
      <use x="236.816406" xlink:href="#DejaVuSans-65"/>
      <use x="298.339844" xlink:href="#DejaVuSans-73"/>
      <use x="350.439453" xlink:href="#DejaVuSans-73"/>
      <use x="402.539062" xlink:href="#DejaVuSans-66"/>
      <use x="437.744141" xlink:href="#DejaVuSans-75"/>
      <use x="501.123047" xlink:href="#DejaVuSans-6c"/>
      <use x="528.90625" xlink:href="#DejaVuSans-20"/>
      <use x="560.693359" xlink:href="#DejaVuSans-64"/>
      <use x="624.169922" xlink:href="#DejaVuSans-6f"/>
      <use x="685.351562" xlink:href="#DejaVuSans-77"/>
      <use x="767.138672" xlink:href="#DejaVuSans-6e"/>
      <use x="830.517578" xlink:href="#DejaVuSans-6c"/>
      <use x="858.300781" xlink:href="#DejaVuSans-6f"/>
      <use x="919.482422" xlink:href="#DejaVuSans-61"/>
      <use x="980.761719" xlink:href="#DejaVuSans-64"/>
      <use x="1044.238281" xlink:href="#DejaVuSans-20"/>
      <use x="1076.025391" xlink:href="#DejaVuSans-72"/>
      <use x="1117.107422" xlink:href="#DejaVuSans-65"/>
      <use x="1178.630859" xlink:href="#DejaVuSans-71"/>
      <use x="1242.107422" xlink:href="#DejaVuSans-75"/>
      <use x="1305.486328" xlink:href="#DejaVuSans-65"/>
      <use x="1367.009766" xlink:href="#DejaVuSans-73"/>
      <use x="1419.109375" xlink:href="#DejaVuSans-74"/>
      <use x="1458.318359" xlink:href="#DejaVuSans-73"/>
      <use x="1510.417969" xlink:href="#DejaVuSans-20"/>
      <use x="1542.205078" xlink:href="#DejaVuSans-70"/>
      <use x="1605.681641" xlink:href="#DejaVuSans-65"/>
      <use x="1667.205078" xlink:href="#DejaVuSans-72"/>
      <use x="1708.318359" xlink:href="#DejaVuSans-20"/>
      <use x="1740.105469" xlink:href="#DejaVuSans-73"/>
      <use x="1792.205078" xlink:href="#DejaVuSans-65"/>
      <use x="1853.728516" xlink:href="#DejaVuSans-63"/>
      <use x="1908.708984" xlink:href="#DejaVuSans-6f"/>
      <use x="1969.890625" xlink:href="#DejaVuSans-6e"/>
      <use x="2033.269531" xlink:href="#DejaVuSans-64"/>
     </g>
    </g>
   </g>
  </g>
 </g>
 <defs>
  <clipPath id="paa622747a3">
   <rect height="266.112" width="357.12" x="57.6" y="41.472"/>
  </clipPath>
 </defs>
</svg>
