<?xml version="1.0" encoding="utf-8" standalone="no"?>
<!DOCTYPE svg PUBLIC "-//W3C//DTD SVG 1.1//EN"
  "http://www.w3.org/Graphics/SVG/1.1/DTD/svg11.dtd">
<!-- Created with matplotlib (http://matplotlib.org/) -->
<svg height="345pt" version="1.1" viewBox="0 0 460 345" width="460pt" xmlns="http://www.w3.org/2000/svg" xmlns:xlink="http://www.w3.org/1999/xlink">
 <defs>
  <style type="text/css">
*{stroke-linecap:butt;stroke-linejoin:round;}
  </style>
 </defs>
 <g id="figure_1">
  <g id="patch_1">
   <path d="M 0 345.6 
L 460.8 345.6 
L 460.8 0 
L 0 0 
z
" style="fill:#ffffff;"/>
  </g>
  <g id="axes_1">
   <g id="patch_2">
    <path d="M 57.6 307.584 
L 414.72 307.584 
L 414.72 41.472 
L 57.6 41.472 
z
" style="fill:#ffffff;"/>
   </g>
   <g id="matplotlib.axis_1">
    <g id="xtick_1">
     <g id="line2d_1">
      <path clip-path="url(#p7ec427f6ac)" d="M 57.6 307.584 
L 57.6 41.472 
" style="fill:none;stroke:#b0b0b0;stroke-linecap:square;stroke-width:0.8;"/>
     </g>
     <g id="line2d_2">
      <defs>
       <path d="M 0 0 
L 0 3.5 
" id="m5c4a63fb1e" style="stroke:#000000;stroke-width:0.8;"/>
      </defs>
      <g>
       <use style="stroke:#000000;stroke-width:0.8;" x="57.6" xlink:href="#m5c4a63fb1e" y="307.584"/>
      </g>
     </g>
     <g id="text_1">
      <!-- 0 -->
      <defs>
       <path d="M 31.78125 66.40625 
Q 24.171875 66.40625 20.328125 58.90625 
Q 16.5 51.421875 16.5 36.375 
Q 16.5 21.390625 20.328125 13.890625 
Q 24.171875 6.390625 31.78125 6.390625 
Q 39.453125 6.390625 43.28125 13.890625 
Q 47.125 21.390625 47.125 36.375 
Q 47.125 51.421875 43.28125 58.90625 
Q 39.453125 66.40625 31.78125 66.40625 
M 31.78125 74.21875 
Q 44.046875 74.21875 50.515625 64.515625 
Q 56.984375 54.828125 56.984375 36.375 
Q 56.984375 17.96875 50.515625 8.265625 
Q 44.046875 -1.421875 31.78125 -1.421875 
Q 19.53125 -1.421875 13.0625 8.265625 
Q 6.59375 17.96875 6.59375 36.375 
Q 6.59375 54.828125 13.0625 64.515625 
Q 19.53125 74.21875 31.78125 74.21875 
" id="DejaVuSans-30"/>
      </defs>
      <g transform="translate(54.41875 322.182437)scale(0.1 -0.1)">
       <use xlink:href="#DejaVuSans-30"/>
      </g>
     </g>
    </g>
    <g id="xtick_2">
     <g id="line2d_3">
      <path clip-path="url(#p7ec427f6ac)" d="M 129.024 307.584 
L 129.024 41.472 
" style="fill:none;stroke:#b0b0b0;stroke-linecap:square;stroke-width:0.8;"/>
     </g>
     <g id="line2d_4">
      <g>
       <use style="stroke:#000000;stroke-width:0.8;" x="129.024" xlink:href="#m5c4a63fb1e" y="307.584"/>
      </g>
     </g>
     <g id="text_2">
      <!-- 200 -->
      <defs>
       <path d="M 19.1875 8.296875 
L 53.609375 8.296875 
L 53.609375 0 
L 7.328125 0 
L 7.328125 8.296875 
Q 12.9375 14.109375 22.625 23.890625 
Q 32.328125 33.6875 34.8125 36.53125 
Q 39.546875 41.84375 41.421875 45.53125 
Q 43.3125 49.21875 43.3125 52.78125 
Q 43.3125 58.59375 39.234375 62.25 
Q 35.15625 65.921875 28.609375 65.921875 
Q 23.96875 65.921875 18.8125 64.3125 
Q 13.671875 62.703125 7.8125 59.421875 
L 7.8125 69.390625 
Q 13.765625 71.78125 18.9375 73 
Q 24.125 74.21875 28.421875 74.21875 
Q 39.75 74.21875 46.484375 68.546875 
Q 53.21875 62.890625 53.21875 53.421875 
Q 53.21875 48.921875 51.53125 44.890625 
Q 49.859375 40.875 45.40625 35.40625 
Q 44.1875 33.984375 37.640625 27.21875 
Q 31.109375 20.453125 19.1875 8.296875 
" id="DejaVuSans-32"/>
      </defs>
      <g transform="translate(119.48025 322.182437)scale(0.1 -0.1)">
       <use xlink:href="#DejaVuSans-32"/>
       <use x="63.623047" xlink:href="#DejaVuSans-30"/>
       <use x="127.246094" xlink:href="#DejaVuSans-30"/>
      </g>
     </g>
    </g>
    <g id="xtick_3">
     <g id="line2d_5">
      <path clip-path="url(#p7ec427f6ac)" d="M 200.448 307.584 
L 200.448 41.472 
" style="fill:none;stroke:#b0b0b0;stroke-linecap:square;stroke-width:0.8;"/>
     </g>
     <g id="line2d_6">
      <g>
       <use style="stroke:#000000;stroke-width:0.8;" x="200.448" xlink:href="#m5c4a63fb1e" y="307.584"/>
      </g>
     </g>
     <g id="text_3">
      <!-- 400 -->
      <defs>
       <path d="M 37.796875 64.3125 
L 12.890625 25.390625 
L 37.796875 25.390625 
z
M 35.203125 72.90625 
L 47.609375 72.90625 
L 47.609375 25.390625 
L 58.015625 25.390625 
L 58.015625 17.1875 
L 47.609375 17.1875 
L 47.609375 0 
L 37.796875 0 
L 37.796875 17.1875 
L 4.890625 17.1875 
L 4.890625 26.703125 
z
" id="DejaVuSans-34"/>
      </defs>
      <g transform="translate(190.90425 322.182437)scale(0.1 -0.1)">
       <use xlink:href="#DejaVuSans-34"/>
       <use x="63.623047" xlink:href="#DejaVuSans-30"/>
       <use x="127.246094" xlink:href="#DejaVuSans-30"/>
      </g>
     </g>
    </g>
    <g id="xtick_4">
     <g id="line2d_7">
      <path clip-path="url(#p7ec427f6ac)" d="M 271.872 307.584 
L 271.872 41.472 
" style="fill:none;stroke:#b0b0b0;stroke-linecap:square;stroke-width:0.8;"/>
     </g>
     <g id="line2d_8">
      <g>
       <use style="stroke:#000000;stroke-width:0.8;" x="271.872" xlink:href="#m5c4a63fb1e" y="307.584"/>
      </g>
     </g>
     <g id="text_4">
      <!-- 600 -->
      <defs>
       <path d="M 33.015625 40.375 
Q 26.375 40.375 22.484375 35.828125 
Q 18.609375 31.296875 18.609375 23.390625 
Q 18.609375 15.53125 22.484375 10.953125 
Q 26.375 6.390625 33.015625 6.390625 
Q 39.65625 6.390625 43.53125 10.953125 
Q 47.40625 15.53125 47.40625 23.390625 
Q 47.40625 31.296875 43.53125 35.828125 
Q 39.65625 40.375 33.015625 40.375 
M 52.59375 71.296875 
L 52.59375 62.3125 
Q 48.875 64.0625 45.09375 64.984375 
Q 41.3125 65.921875 37.59375 65.921875 
Q 27.828125 65.921875 22.671875 59.328125 
Q 17.53125 52.734375 16.796875 39.40625 
Q 19.671875 43.65625 24.015625 45.921875 
Q 28.375 48.1875 33.59375 48.1875 
Q 44.578125 48.1875 50.953125 41.515625 
Q 57.328125 34.859375 57.328125 23.390625 
Q 57.328125 12.15625 50.6875 5.359375 
Q 44.046875 -1.421875 33.015625 -1.421875 
Q 20.359375 -1.421875 13.671875 8.265625 
Q 6.984375 17.96875 6.984375 36.375 
Q 6.984375 53.65625 15.1875 63.9375 
Q 23.390625 74.21875 37.203125 74.21875 
Q 40.921875 74.21875 44.703125 73.484375 
Q 48.484375 72.75 52.59375 71.296875 
" id="DejaVuSans-36"/>
      </defs>
      <g transform="translate(262.32825 322.182437)scale(0.1 -0.1)">
       <use xlink:href="#DejaVuSans-36"/>
       <use x="63.623047" xlink:href="#DejaVuSans-30"/>
       <use x="127.246094" xlink:href="#DejaVuSans-30"/>
      </g>
     </g>
    </g>
    <g id="xtick_5">
     <g id="line2d_9">
      <path clip-path="url(#p7ec427f6ac)" d="M 343.296 307.584 
L 343.296 41.472 
" style="fill:none;stroke:#b0b0b0;stroke-linecap:square;stroke-width:0.8;"/>
     </g>
     <g id="line2d_10">
      <g>
       <use style="stroke:#000000;stroke-width:0.8;" x="343.296" xlink:href="#m5c4a63fb1e" y="307.584"/>
      </g>
     </g>
     <g id="text_5">
      <!-- 800 -->
      <defs>
       <path d="M 31.78125 34.625 
Q 24.75 34.625 20.71875 30.859375 
Q 16.703125 27.09375 16.703125 20.515625 
Q 16.703125 13.921875 20.71875 10.15625 
Q 24.75 6.390625 31.78125 6.390625 
Q 38.8125 6.390625 42.859375 10.171875 
Q 46.921875 13.96875 46.921875 20.515625 
Q 46.921875 27.09375 42.890625 30.859375 
Q 38.875 34.625 31.78125 34.625 
M 21.921875 38.8125 
Q 15.578125 40.375 12.03125 44.71875 
Q 8.5 49.078125 8.5 55.328125 
Q 8.5 64.0625 14.71875 69.140625 
Q 20.953125 74.21875 31.78125 74.21875 
Q 42.671875 74.21875 48.875 69.140625 
Q 55.078125 64.0625 55.078125 55.328125 
Q 55.078125 49.078125 51.53125 44.71875 
Q 48 40.375 41.703125 38.8125 
Q 48.828125 37.15625 52.796875 32.3125 
Q 56.78125 27.484375 56.78125 20.515625 
Q 56.78125 9.90625 50.3125 4.234375 
Q 43.84375 -1.421875 31.78125 -1.421875 
Q 19.734375 -1.421875 13.25 4.234375 
Q 6.78125 9.90625 6.78125 20.515625 
Q 6.78125 27.484375 10.78125 32.3125 
Q 14.796875 37.15625 21.921875 38.8125 
M 18.3125 54.390625 
Q 18.3125 48.734375 21.84375 45.5625 
Q 25.390625 42.390625 31.78125 42.390625 
Q 38.140625 42.390625 41.71875 45.5625 
Q 45.3125 48.734375 45.3125 54.390625 
Q 45.3125 60.0625 41.71875 63.234375 
Q 38.140625 66.40625 31.78125 66.40625 
Q 25.390625 66.40625 21.84375 63.234375 
Q 18.3125 60.0625 18.3125 54.390625 
" id="DejaVuSans-38"/>
      </defs>
      <g transform="translate(333.75225 322.182437)scale(0.1 -0.1)">
       <use xlink:href="#DejaVuSans-38"/>
       <use x="63.623047" xlink:href="#DejaVuSans-30"/>
       <use x="127.246094" xlink:href="#DejaVuSans-30"/>
      </g>
     </g>
    </g>
    <g id="xtick_6">
     <g id="line2d_11">
      <path clip-path="url(#p7ec427f6ac)" d="M 414.72 307.584 
L 414.72 41.472 
" style="fill:none;stroke:#b0b0b0;stroke-linecap:square;stroke-width:0.8;"/>
     </g>
     <g id="line2d_12">
      <g>
       <use style="stroke:#000000;stroke-width:0.8;" x="414.72" xlink:href="#m5c4a63fb1e" y="307.584"/>
      </g>
     </g>
     <g id="text_6">
      <!-- 1000 -->
      <defs>
       <path d="M 12.40625 8.296875 
L 28.515625 8.296875 
L 28.515625 63.921875 
L 10.984375 60.40625 
L 10.984375 69.390625 
L 28.421875 72.90625 
L 38.28125 72.90625 
L 38.28125 8.296875 
L 54.390625 8.296875 
L 54.390625 0 
L 12.40625 0 
z
" id="DejaVuSans-31"/>
      </defs>
      <g transform="translate(401.995 322.182437)scale(0.1 -0.1)">
       <use xlink:href="#DejaVuSans-31"/>
       <use x="63.623047" xlink:href="#DejaVuSans-30"/>
       <use x="127.246094" xlink:href="#DejaVuSans-30"/>
       <use x="190.869141" xlink:href="#DejaVuSans-30"/>
      </g>
     </g>
    </g>
    <g id="text_7">
     <!-- Number of clients -->
     <defs>
      <path d="M 9.8125 72.90625 
L 23.09375 72.90625 
L 55.421875 11.921875 
L 55.421875 72.90625 
L 64.984375 72.90625 
L 64.984375 0 
L 51.703125 0 
L 19.390625 60.984375 
L 19.390625 0 
L 9.8125 0 
z
" id="DejaVuSans-4e"/>
      <path d="M 8.5 21.578125 
L 8.5 54.6875 
L 17.484375 54.6875 
L 17.484375 21.921875 
Q 17.484375 14.15625 20.5 10.265625 
Q 23.53125 6.390625 29.59375 6.390625 
Q 36.859375 6.390625 41.078125 11.03125 
Q 45.3125 15.671875 45.3125 23.6875 
L 45.3125 54.6875 
L 54.296875 54.6875 
L 54.296875 0 
L 45.3125 0 
L 45.3125 8.40625 
Q 42.046875 3.421875 37.71875 1 
Q 33.40625 -1.421875 27.6875 -1.421875 
Q 18.265625 -1.421875 13.375 4.4375 
Q 8.5 10.296875 8.5 21.578125 
M 31.109375 56 
z
" id="DejaVuSans-75"/>
      <path d="M 52 44.1875 
Q 55.375 50.25 60.0625 53.125 
Q 64.75 56 71.09375 56 
Q 79.640625 56 84.28125 50.015625 
Q 88.921875 44.046875 88.921875 33.015625 
L 88.921875 0 
L 79.890625 0 
L 79.890625 32.71875 
Q 79.890625 40.578125 77.09375 44.375 
Q 74.3125 48.1875 68.609375 48.1875 
Q 61.625 48.1875 57.5625 43.546875 
Q 53.515625 38.921875 53.515625 30.90625 
L 53.515625 0 
L 44.484375 0 
L 44.484375 32.71875 
Q 44.484375 40.625 41.703125 44.40625 
Q 38.921875 48.1875 33.109375 48.1875 
Q 26.21875 48.1875 22.15625 43.53125 
Q 18.109375 38.875 18.109375 30.90625 
L 18.109375 0 
L 9.078125 0 
L 9.078125 54.6875 
L 18.109375 54.6875 
L 18.109375 46.1875 
Q 21.1875 51.21875 25.484375 53.609375 
Q 29.78125 56 35.6875 56 
Q 41.65625 56 45.828125 52.96875 
Q 50 49.953125 52 44.1875 
" id="DejaVuSans-6d"/>
      <path d="M 48.6875 27.296875 
Q 48.6875 37.203125 44.609375 42.84375 
Q 40.53125 48.484375 33.40625 48.484375 
Q 26.265625 48.484375 22.1875 42.84375 
Q 18.109375 37.203125 18.109375 27.296875 
Q 18.109375 17.390625 22.1875 11.75 
Q 26.265625 6.109375 33.40625 6.109375 
Q 40.53125 6.109375 44.609375 11.75 
Q 48.6875 17.390625 48.6875 27.296875 
M 18.109375 46.390625 
Q 20.953125 51.265625 25.265625 53.625 
Q 29.59375 56 35.59375 56 
Q 45.5625 56 51.78125 48.09375 
Q 58.015625 40.1875 58.015625 27.296875 
Q 58.015625 14.40625 51.78125 6.484375 
Q 45.5625 -1.421875 35.59375 -1.421875 
Q 29.59375 -1.421875 25.265625 0.953125 
Q 20.953125 3.328125 18.109375 8.203125 
L 18.109375 0 
L 9.078125 0 
L 9.078125 75.984375 
L 18.109375 75.984375 
z
" id="DejaVuSans-62"/>
      <path d="M 56.203125 29.59375 
L 56.203125 25.203125 
L 14.890625 25.203125 
Q 15.484375 15.921875 20.484375 11.0625 
Q 25.484375 6.203125 34.421875 6.203125 
Q 39.59375 6.203125 44.453125 7.46875 
Q 49.3125 8.734375 54.109375 11.28125 
L 54.109375 2.78125 
Q 49.265625 0.734375 44.1875 -0.34375 
Q 39.109375 -1.421875 33.890625 -1.421875 
Q 20.796875 -1.421875 13.15625 6.1875 
Q 5.515625 13.8125 5.515625 26.8125 
Q 5.515625 40.234375 12.765625 48.109375 
Q 20.015625 56 32.328125 56 
Q 43.359375 56 49.78125 48.890625 
Q 56.203125 41.796875 56.203125 29.59375 
M 47.21875 32.234375 
Q 47.125 39.59375 43.09375 43.984375 
Q 39.0625 48.390625 32.421875 48.390625 
Q 24.90625 48.390625 20.390625 44.140625 
Q 15.875 39.890625 15.1875 32.171875 
z
" id="DejaVuSans-65"/>
      <path d="M 41.109375 46.296875 
Q 39.59375 47.171875 37.8125 47.578125 
Q 36.03125 48 33.890625 48 
Q 26.265625 48 22.1875 43.046875 
Q 18.109375 38.09375 18.109375 28.8125 
L 18.109375 0 
L 9.078125 0 
L 9.078125 54.6875 
L 18.109375 54.6875 
L 18.109375 46.1875 
Q 20.953125 51.171875 25.484375 53.578125 
Q 30.03125 56 36.53125 56 
Q 37.453125 56 38.578125 55.875 
Q 39.703125 55.765625 41.0625 55.515625 
z
" id="DejaVuSans-72"/>
      <path id="DejaVuSans-20"/>
      <path d="M 30.609375 48.390625 
Q 23.390625 48.390625 19.1875 42.75 
Q 14.984375 37.109375 14.984375 27.296875 
Q 14.984375 17.484375 19.15625 11.84375 
Q 23.34375 6.203125 30.609375 6.203125 
Q 37.796875 6.203125 41.984375 11.859375 
Q 46.1875 17.53125 46.1875 27.296875 
Q 46.1875 37.015625 41.984375 42.703125 
Q 37.796875 48.390625 30.609375 48.390625 
M 30.609375 56 
Q 42.328125 56 49.015625 48.375 
Q 55.71875 40.765625 55.71875 27.296875 
Q 55.71875 13.875 49.015625 6.21875 
Q 42.328125 -1.421875 30.609375 -1.421875 
Q 18.84375 -1.421875 12.171875 6.21875 
Q 5.515625 13.875 5.515625 27.296875 
Q 5.515625 40.765625 12.171875 48.375 
Q 18.84375 56 30.609375 56 
" id="DejaVuSans-6f"/>
      <path d="M 37.109375 75.984375 
L 37.109375 68.5 
L 28.515625 68.5 
Q 23.6875 68.5 21.796875 66.546875 
Q 19.921875 64.59375 19.921875 59.515625 
L 19.921875 54.6875 
L 34.71875 54.6875 
L 34.71875 47.703125 
L 19.921875 47.703125 
L 19.921875 0 
L 10.890625 0 
L 10.890625 47.703125 
L 2.296875 47.703125 
L 2.296875 54.6875 
L 10.890625 54.6875 
L 10.890625 58.5 
Q 10.890625 67.625 15.140625 71.796875 
Q 19.390625 75.984375 28.609375 75.984375 
z
" id="DejaVuSans-66"/>
      <path d="M 48.78125 52.59375 
L 48.78125 44.1875 
Q 44.96875 46.296875 41.140625 47.34375 
Q 37.3125 48.390625 33.40625 48.390625 
Q 24.65625 48.390625 19.8125 42.84375 
Q 14.984375 37.3125 14.984375 27.296875 
Q 14.984375 17.28125 19.8125 11.734375 
Q 24.65625 6.203125 33.40625 6.203125 
Q 37.3125 6.203125 41.140625 7.25 
Q 44.96875 8.296875 48.78125 10.40625 
L 48.78125 2.09375 
Q 45.015625 0.34375 40.984375 -0.53125 
Q 36.96875 -1.421875 32.421875 -1.421875 
Q 20.0625 -1.421875 12.78125 6.34375 
Q 5.515625 14.109375 5.515625 27.296875 
Q 5.515625 40.671875 12.859375 48.328125 
Q 20.21875 56 33.015625 56 
Q 37.15625 56 41.109375 55.140625 
Q 45.0625 54.296875 48.78125 52.59375 
" id="DejaVuSans-63"/>
      <path d="M 9.421875 75.984375 
L 18.40625 75.984375 
L 18.40625 0 
L 9.421875 0 
z
" id="DejaVuSans-6c"/>
      <path d="M 9.421875 54.6875 
L 18.40625 54.6875 
L 18.40625 0 
L 9.421875 0 
z
M 9.421875 75.984375 
L 18.40625 75.984375 
L 18.40625 64.59375 
L 9.421875 64.59375 
z
" id="DejaVuSans-69"/>
      <path d="M 54.890625 33.015625 
L 54.890625 0 
L 45.90625 0 
L 45.90625 32.71875 
Q 45.90625 40.484375 42.875 44.328125 
Q 39.84375 48.1875 33.796875 48.1875 
Q 26.515625 48.1875 22.3125 43.546875 
Q 18.109375 38.921875 18.109375 30.90625 
L 18.109375 0 
L 9.078125 0 
L 9.078125 54.6875 
L 18.109375 54.6875 
L 18.109375 46.1875 
Q 21.34375 51.125 25.703125 53.5625 
Q 30.078125 56 35.796875 56 
Q 45.21875 56 50.046875 50.171875 
Q 54.890625 44.34375 54.890625 33.015625 
" id="DejaVuSans-6e"/>
      <path d="M 18.3125 70.21875 
L 18.3125 54.6875 
L 36.8125 54.6875 
L 36.8125 47.703125 
L 18.3125 47.703125 
L 18.3125 18.015625 
Q 18.3125 11.328125 20.140625 9.421875 
Q 21.96875 7.515625 27.59375 7.515625 
L 36.8125 7.515625 
L 36.8125 0 
L 27.59375 0 
Q 17.1875 0 13.234375 3.875 
Q 9.28125 7.765625 9.28125 18.015625 
L 9.28125 47.703125 
L 2.6875 47.703125 
L 2.6875 54.6875 
L 9.28125 54.6875 
L 9.28125 70.21875 
z
" id="DejaVuSans-74"/>
      <path d="M 44.28125 53.078125 
L 44.28125 44.578125 
Q 40.484375 46.53125 36.375 47.5 
Q 32.28125 48.484375 27.875 48.484375 
Q 21.1875 48.484375 17.84375 46.4375 
Q 14.5 44.390625 14.5 40.28125 
Q 14.5 37.15625 16.890625 35.375 
Q 19.28125 33.59375 26.515625 31.984375 
L 29.59375 31.296875 
Q 39.15625 29.25 43.1875 25.515625 
Q 47.21875 21.78125 47.21875 15.09375 
Q 47.21875 7.46875 41.1875 3.015625 
Q 35.15625 -1.421875 24.609375 -1.421875 
Q 20.21875 -1.421875 15.453125 -0.5625 
Q 10.6875 0.296875 5.421875 2 
L 5.421875 11.28125 
Q 10.40625 8.6875 15.234375 7.390625 
Q 20.0625 6.109375 24.8125 6.109375 
Q 31.15625 6.109375 34.5625 8.28125 
Q 37.984375 10.453125 37.984375 14.40625 
Q 37.984375 18.0625 35.515625 20.015625 
Q 33.0625 21.96875 24.703125 23.78125 
L 21.578125 24.515625 
Q 13.234375 26.265625 9.515625 29.90625 
Q 5.8125 33.546875 5.8125 39.890625 
Q 5.8125 47.609375 11.28125 51.796875 
Q 16.75 56 26.8125 56 
Q 31.78125 56 36.171875 55.265625 
Q 40.578125 54.546875 44.28125 53.078125 
" id="DejaVuSans-73"/>
     </defs>
     <g transform="translate(191.738906 335.860562)scale(0.1 -0.1)">
      <use xlink:href="#DejaVuSans-4e"/>
      <use x="74.804688" xlink:href="#DejaVuSans-75"/>
      <use x="138.183594" xlink:href="#DejaVuSans-6d"/>
      <use x="235.595703" xlink:href="#DejaVuSans-62"/>
      <use x="299.072266" xlink:href="#DejaVuSans-65"/>
      <use x="360.595703" xlink:href="#DejaVuSans-72"/>
      <use x="401.708984" xlink:href="#DejaVuSans-20"/>
      <use x="433.496094" xlink:href="#DejaVuSans-6f"/>
      <use x="494.677734" xlink:href="#DejaVuSans-66"/>
      <use x="529.882812" xlink:href="#DejaVuSans-20"/>
      <use x="561.669922" xlink:href="#DejaVuSans-63"/>
      <use x="616.650391" xlink:href="#DejaVuSans-6c"/>
      <use x="644.433594" xlink:href="#DejaVuSans-69"/>
      <use x="672.216797" xlink:href="#DejaVuSans-65"/>
      <use x="733.740234" xlink:href="#DejaVuSans-6e"/>
      <use x="797.119141" xlink:href="#DejaVuSans-74"/>
      <use x="836.328125" xlink:href="#DejaVuSans-73"/>
     </g>
    </g>
   </g>
   <g id="matplotlib.axis_2">
    <g id="ytick_1">
     <g id="line2d_13">
      <path clip-path="url(#p7ec427f6ac)" d="M 57.6 295.860669 
L 414.72 295.860669 
" style="fill:none;stroke:#b0b0b0;stroke-linecap:square;stroke-width:0.8;"/>
     </g>
     <g id="line2d_14">
      <defs>
       <path d="M 0 0 
L -3.5 0 
" id="m16f5283866" style="stroke:#000000;stroke-width:0.8;"/>
      </defs>
      <g>
       <use style="stroke:#000000;stroke-width:0.8;" x="57.6" xlink:href="#m16f5283866" y="295.860669"/>
      </g>
     </g>
     <g id="text_8">
      <!-- 0 -->
      <g transform="translate(44.2375 299.659888)scale(0.1 -0.1)">
       <use xlink:href="#DejaVuSans-30"/>
      </g>
     </g>
    </g>
    <g id="ytick_2">
     <g id="line2d_15">
      <path clip-path="url(#p7ec427f6ac)" d="M 57.6 255.874751 
L 414.72 255.874751 
" style="fill:none;stroke:#b0b0b0;stroke-linecap:square;stroke-width:0.8;"/>
     </g>
     <g id="line2d_16">
      <g>
       <use style="stroke:#000000;stroke-width:0.8;" x="57.6" xlink:href="#m16f5283866" y="255.874751"/>
      </g>
     </g>
     <g id="text_9">
      <!-- 100 -->
      <g transform="translate(31.5125 259.67397)scale(0.1 -0.1)">
       <use xlink:href="#DejaVuSans-31"/>
       <use x="63.623047" xlink:href="#DejaVuSans-30"/>
       <use x="127.246094" xlink:href="#DejaVuSans-30"/>
      </g>
     </g>
    </g>
    <g id="ytick_3">
     <g id="line2d_17">
      <path clip-path="url(#p7ec427f6ac)" d="M 57.6 215.888833 
L 414.72 215.888833 
" style="fill:none;stroke:#b0b0b0;stroke-linecap:square;stroke-width:0.8;"/>
     </g>
     <g id="line2d_18">
      <g>
       <use style="stroke:#000000;stroke-width:0.8;" x="57.6" xlink:href="#m16f5283866" y="215.888833"/>
      </g>
     </g>
     <g id="text_10">
      <!-- 200 -->
      <g transform="translate(31.5125 219.688052)scale(0.1 -0.1)">
       <use xlink:href="#DejaVuSans-32"/>
       <use x="63.623047" xlink:href="#DejaVuSans-30"/>
       <use x="127.246094" xlink:href="#DejaVuSans-30"/>
      </g>
     </g>
    </g>
    <g id="ytick_4">
     <g id="line2d_19">
      <path clip-path="url(#p7ec427f6ac)" d="M 57.6 175.902916 
L 414.72 175.902916 
" style="fill:none;stroke:#b0b0b0;stroke-linecap:square;stroke-width:0.8;"/>
     </g>
     <g id="line2d_20">
      <g>
       <use style="stroke:#000000;stroke-width:0.8;" x="57.6" xlink:href="#m16f5283866" y="175.902916"/>
      </g>
     </g>
     <g id="text_11">
      <!-- 300 -->
      <defs>
       <path d="M 40.578125 39.3125 
Q 47.65625 37.796875 51.625 33 
Q 55.609375 28.21875 55.609375 21.1875 
Q 55.609375 10.40625 48.1875 4.484375 
Q 40.765625 -1.421875 27.09375 -1.421875 
Q 22.515625 -1.421875 17.65625 -0.515625 
Q 12.796875 0.390625 7.625 2.203125 
L 7.625 11.71875 
Q 11.71875 9.328125 16.59375 8.109375 
Q 21.484375 6.890625 26.8125 6.890625 
Q 36.078125 6.890625 40.9375 10.546875 
Q 45.796875 14.203125 45.796875 21.1875 
Q 45.796875 27.640625 41.28125 31.265625 
Q 36.765625 34.90625 28.71875 34.90625 
L 20.21875 34.90625 
L 20.21875 43.015625 
L 29.109375 43.015625 
Q 36.375 43.015625 40.234375 45.921875 
Q 44.09375 48.828125 44.09375 54.296875 
Q 44.09375 59.90625 40.109375 62.90625 
Q 36.140625 65.921875 28.71875 65.921875 
Q 24.65625 65.921875 20.015625 65.03125 
Q 15.375 64.15625 9.8125 62.3125 
L 9.8125 71.09375 
Q 15.4375 72.65625 20.34375 73.4375 
Q 25.25 74.21875 29.59375 74.21875 
Q 40.828125 74.21875 47.359375 69.109375 
Q 53.90625 64.015625 53.90625 55.328125 
Q 53.90625 49.265625 50.4375 45.09375 
Q 46.96875 40.921875 40.578125 39.3125 
" id="DejaVuSans-33"/>
      </defs>
      <g transform="translate(31.5125 179.702135)scale(0.1 -0.1)">
       <use xlink:href="#DejaVuSans-33"/>
       <use x="63.623047" xlink:href="#DejaVuSans-30"/>
       <use x="127.246094" xlink:href="#DejaVuSans-30"/>
      </g>
     </g>
    </g>
    <g id="ytick_5">
     <g id="line2d_21">
      <path clip-path="url(#p7ec427f6ac)" d="M 57.6 135.916998 
L 414.72 135.916998 
" style="fill:none;stroke:#b0b0b0;stroke-linecap:square;stroke-width:0.8;"/>
     </g>
     <g id="line2d_22">
      <g>
       <use style="stroke:#000000;stroke-width:0.8;" x="57.6" xlink:href="#m16f5283866" y="135.916998"/>
      </g>
     </g>
     <g id="text_12">
      <!-- 400 -->
      <g transform="translate(31.5125 139.716217)scale(0.1 -0.1)">
       <use xlink:href="#DejaVuSans-34"/>
       <use x="63.623047" xlink:href="#DejaVuSans-30"/>
       <use x="127.246094" xlink:href="#DejaVuSans-30"/>
      </g>
     </g>
    </g>
    <g id="ytick_6">
     <g id="line2d_23">
      <path clip-path="url(#p7ec427f6ac)" d="M 57.6 95.93108 
L 414.72 95.93108 
" style="fill:none;stroke:#b0b0b0;stroke-linecap:square;stroke-width:0.8;"/>
     </g>
     <g id="line2d_24">
      <g>
       <use style="stroke:#000000;stroke-width:0.8;" x="57.6" xlink:href="#m16f5283866" y="95.93108"/>
      </g>
     </g>
     <g id="text_13">
      <!-- 500 -->
      <defs>
       <path d="M 10.796875 72.90625 
L 49.515625 72.90625 
L 49.515625 64.59375 
L 19.828125 64.59375 
L 19.828125 46.734375 
Q 21.96875 47.46875 24.109375 47.828125 
Q 26.265625 48.1875 28.421875 48.1875 
Q 40.625 48.1875 47.75 41.5 
Q 54.890625 34.8125 54.890625 23.390625 
Q 54.890625 11.625 47.5625 5.09375 
Q 40.234375 -1.421875 26.90625 -1.421875 
Q 22.3125 -1.421875 17.546875 -0.640625 
Q 12.796875 0.140625 7.71875 1.703125 
L 7.71875 11.625 
Q 12.109375 9.234375 16.796875 8.0625 
Q 21.484375 6.890625 26.703125 6.890625 
Q 35.15625 6.890625 40.078125 11.328125 
Q 45.015625 15.765625 45.015625 23.390625 
Q 45.015625 31 40.078125 35.4375 
Q 35.15625 39.890625 26.703125 39.890625 
Q 22.75 39.890625 18.8125 39.015625 
Q 14.890625 38.140625 10.796875 36.28125 
z
" id="DejaVuSans-35"/>
      </defs>
      <g transform="translate(31.5125 99.730299)scale(0.1 -0.1)">
       <use xlink:href="#DejaVuSans-35"/>
       <use x="63.623047" xlink:href="#DejaVuSans-30"/>
       <use x="127.246094" xlink:href="#DejaVuSans-30"/>
      </g>
     </g>
    </g>
    <g id="ytick_7">
     <g id="line2d_25">
      <path clip-path="url(#p7ec427f6ac)" d="M 57.6 55.945163 
L 414.72 55.945163 
" style="fill:none;stroke:#b0b0b0;stroke-linecap:square;stroke-width:0.8;"/>
     </g>
     <g id="line2d_26">
      <g>
       <use style="stroke:#000000;stroke-width:0.8;" x="57.6" xlink:href="#m16f5283866" y="55.945163"/>
      </g>
     </g>
     <g id="text_14">
      <!-- 600 -->
      <g transform="translate(31.5125 59.744382)scale(0.1 -0.1)">
       <use xlink:href="#DejaVuSans-36"/>
       <use x="63.623047" xlink:href="#DejaVuSans-30"/>
       <use x="127.246094" xlink:href="#DejaVuSans-30"/>
      </g>
     </g>
    </g>
    <g id="text_15">
     <!-- Successful download requests per second -->
     <defs>
      <path d="M 53.515625 70.515625 
L 53.515625 60.890625 
Q 47.90625 63.578125 42.921875 64.890625 
Q 37.9375 66.21875 33.296875 66.21875 
Q 25.25 66.21875 20.875 63.09375 
Q 16.5 59.96875 16.5 54.203125 
Q 16.5 49.359375 19.40625 46.890625 
Q 22.3125 44.4375 30.421875 42.921875 
L 36.375 41.703125 
Q 47.40625 39.59375 52.65625 34.296875 
Q 57.90625 29 57.90625 20.125 
Q 57.90625 9.515625 50.796875 4.046875 
Q 43.703125 -1.421875 29.984375 -1.421875 
Q 24.8125 -1.421875 18.96875 -0.25 
Q 13.140625 0.921875 6.890625 3.21875 
L 6.890625 13.375 
Q 12.890625 10.015625 18.65625 8.296875 
Q 24.421875 6.59375 29.984375 6.59375 
Q 38.421875 6.59375 43.015625 9.90625 
Q 47.609375 13.234375 47.609375 19.390625 
Q 47.609375 24.75 44.3125 27.78125 
Q 41.015625 30.8125 33.5 32.328125 
L 27.484375 33.5 
Q 16.453125 35.6875 11.515625 40.375 
Q 6.59375 45.0625 6.59375 53.421875 
Q 6.59375 63.09375 13.40625 68.65625 
Q 20.21875 74.21875 32.171875 74.21875 
Q 37.3125 74.21875 42.625 73.28125 
Q 47.953125 72.359375 53.515625 70.515625 
" id="DejaVuSans-53"/>
      <path d="M 45.40625 46.390625 
L 45.40625 75.984375 
L 54.390625 75.984375 
L 54.390625 0 
L 45.40625 0 
L 45.40625 8.203125 
Q 42.578125 3.328125 38.25 0.953125 
Q 33.9375 -1.421875 27.875 -1.421875 
Q 17.96875 -1.421875 11.734375 6.484375 
Q 5.515625 14.40625 5.515625 27.296875 
Q 5.515625 40.1875 11.734375 48.09375 
Q 17.96875 56 27.875 56 
Q 33.9375 56 38.25 53.625 
Q 42.578125 51.265625 45.40625 46.390625 
M 14.796875 27.296875 
Q 14.796875 17.390625 18.875 11.75 
Q 22.953125 6.109375 30.078125 6.109375 
Q 37.203125 6.109375 41.296875 11.75 
Q 45.40625 17.390625 45.40625 27.296875 
Q 45.40625 37.203125 41.296875 42.84375 
Q 37.203125 48.484375 30.078125 48.484375 
Q 22.953125 48.484375 18.875 42.84375 
Q 14.796875 37.203125 14.796875 27.296875 
" id="DejaVuSans-64"/>
      <path d="M 4.203125 54.6875 
L 13.1875 54.6875 
L 24.421875 12.015625 
L 35.59375 54.6875 
L 46.1875 54.6875 
L 57.421875 12.015625 
L 68.609375 54.6875 
L 77.59375 54.6875 
L 63.28125 0 
L 52.6875 0 
L 40.921875 44.828125 
L 29.109375 0 
L 18.5 0 
z
" id="DejaVuSans-77"/>
      <path d="M 34.28125 27.484375 
Q 23.390625 27.484375 19.1875 25 
Q 14.984375 22.515625 14.984375 16.5 
Q 14.984375 11.71875 18.140625 8.90625 
Q 21.296875 6.109375 26.703125 6.109375 
Q 34.1875 6.109375 38.703125 11.40625 
Q 43.21875 16.703125 43.21875 25.484375 
L 43.21875 27.484375 
z
M 52.203125 31.203125 
L 52.203125 0 
L 43.21875 0 
L 43.21875 8.296875 
Q 40.140625 3.328125 35.546875 0.953125 
Q 30.953125 -1.421875 24.3125 -1.421875 
Q 15.921875 -1.421875 10.953125 3.296875 
Q 6 8.015625 6 15.921875 
Q 6 25.140625 12.171875 29.828125 
Q 18.359375 34.515625 30.609375 34.515625 
L 43.21875 34.515625 
L 43.21875 35.40625 
Q 43.21875 41.609375 39.140625 45 
Q 35.0625 48.390625 27.6875 48.390625 
Q 23 48.390625 18.546875 47.265625 
Q 14.109375 46.140625 10.015625 43.890625 
L 10.015625 52.203125 
Q 14.9375 54.109375 19.578125 55.046875 
Q 24.21875 56 28.609375 56 
Q 40.484375 56 46.34375 49.84375 
Q 52.203125 43.703125 52.203125 31.203125 
" id="DejaVuSans-61"/>
      <path d="M 14.796875 27.296875 
Q 14.796875 17.390625 18.875 11.75 
Q 22.953125 6.109375 30.078125 6.109375 
Q 37.203125 6.109375 41.296875 11.75 
Q 45.40625 17.390625 45.40625 27.296875 
Q 45.40625 37.203125 41.296875 42.84375 
Q 37.203125 48.484375 30.078125 48.484375 
Q 22.953125 48.484375 18.875 42.84375 
Q 14.796875 37.203125 14.796875 27.296875 
M 45.40625 8.203125 
Q 42.578125 3.328125 38.25 0.953125 
Q 33.9375 -1.421875 27.875 -1.421875 
Q 17.96875 -1.421875 11.734375 6.484375 
Q 5.515625 14.40625 5.515625 27.296875 
Q 5.515625 40.1875 11.734375 48.09375 
Q 17.96875 56 27.875 56 
Q 33.9375 56 38.25 53.625 
Q 42.578125 51.265625 45.40625 46.390625 
L 45.40625 54.6875 
L 54.390625 54.6875 
L 54.390625 -20.796875 
L 45.40625 -20.796875 
z
" id="DejaVuSans-71"/>
      <path d="M 18.109375 8.203125 
L 18.109375 -20.796875 
L 9.078125 -20.796875 
L 9.078125 54.6875 
L 18.109375 54.6875 
L 18.109375 46.390625 
Q 20.953125 51.265625 25.265625 53.625 
Q 29.59375 56 35.59375 56 
Q 45.5625 56 51.78125 48.09375 
Q 58.015625 40.1875 58.015625 27.296875 
Q 58.015625 14.40625 51.78125 6.484375 
Q 45.5625 -1.421875 35.59375 -1.421875 
Q 29.59375 -1.421875 25.265625 0.953125 
Q 20.953125 3.328125 18.109375 8.203125 
M 48.6875 27.296875 
Q 48.6875 37.203125 44.609375 42.84375 
Q 40.53125 48.484375 33.40625 48.484375 
Q 26.265625 48.484375 22.1875 42.84375 
Q 18.109375 37.203125 18.109375 27.296875 
Q 18.109375 17.390625 22.1875 11.75 
Q 26.265625 6.109375 33.40625 6.109375 
Q 40.53125 6.109375 44.609375 11.75 
Q 48.6875 17.390625 48.6875 27.296875 
" id="DejaVuSans-70"/>
     </defs>
     <g transform="translate(25.432812 279.366281)rotate(-90)scale(0.1 -0.1)">
      <use xlink:href="#DejaVuSans-53"/>
      <use x="63.476562" xlink:href="#DejaVuSans-75"/>
      <use x="126.855469" xlink:href="#DejaVuSans-63"/>
      <use x="181.835938" xlink:href="#DejaVuSans-63"/>
      <use x="236.816406" xlink:href="#DejaVuSans-65"/>
      <use x="298.339844" xlink:href="#DejaVuSans-73"/>
      <use x="350.439453" xlink:href="#DejaVuSans-73"/>
      <use x="402.539062" xlink:href="#DejaVuSans-66"/>
      <use x="437.744141" xlink:href="#DejaVuSans-75"/>
      <use x="501.123047" xlink:href="#DejaVuSans-6c"/>
      <use x="528.90625" xlink:href="#DejaVuSans-20"/>
      <use x="560.693359" xlink:href="#DejaVuSans-64"/>
      <use x="624.169922" xlink:href="#DejaVuSans-6f"/>
      <use x="685.351562" xlink:href="#DejaVuSans-77"/>
      <use x="767.138672" xlink:href="#DejaVuSans-6e"/>
      <use x="830.517578" xlink:href="#DejaVuSans-6c"/>
      <use x="858.300781" xlink:href="#DejaVuSans-6f"/>
      <use x="919.482422" xlink:href="#DejaVuSans-61"/>
      <use x="980.761719" xlink:href="#DejaVuSans-64"/>
      <use x="1044.238281" xlink:href="#DejaVuSans-20"/>
      <use x="1076.025391" xlink:href="#DejaVuSans-72"/>
      <use x="1117.107422" xlink:href="#DejaVuSans-65"/>
      <use x="1178.630859" xlink:href="#DejaVuSans-71"/>
      <use x="1242.107422" xlink:href="#DejaVuSans-75"/>
      <use x="1305.486328" xlink:href="#DejaVuSans-65"/>
      <use x="1367.009766" xlink:href="#DejaVuSans-73"/>
      <use x="1419.109375" xlink:href="#DejaVuSans-74"/>
      <use x="1458.318359" xlink:href="#DejaVuSans-73"/>
      <use x="1510.417969" xlink:href="#DejaVuSans-20"/>
      <use x="1542.205078" xlink:href="#DejaVuSans-70"/>
      <use x="1605.681641" xlink:href="#DejaVuSans-65"/>
      <use x="1667.205078" xlink:href="#DejaVuSans-72"/>
      <use x="1708.318359" xlink:href="#DejaVuSans-20"/>
      <use x="1740.105469" xlink:href="#DejaVuSans-73"/>
      <use x="1792.205078" xlink:href="#DejaVuSans-65"/>
      <use x="1853.728516" xlink:href="#DejaVuSans-63"/>
      <use x="1908.708984" xlink:href="#DejaVuSans-6f"/>
      <use x="1969.890625" xlink:href="#DejaVuSans-6e"/>
      <use x="2033.269531" xlink:href="#DejaVuSans-64"/>
     </g>
    </g>
   </g>
   <g id="line2d_27">
    <path clip-path="url(#p7ec427f6ac)" d="M 57.6 295.488 
L 57.95712 295.464008 
L 60.45696 292.868123 
L 61.1712 291.948447 
L 61.88544 291.20151 
L 62.24256 290.827241 
L 62.59968 290.625712 
L 63.31392 289.78041 
L 63.67104 289.538495 
L 64.02816 288.745974 
L 65.09952 287.797908 
L 65.45664 287.102553 
L 65.81376 287.02618 
L 66.17088 286.464378 
L 66.528 286.396802 
L 67.24224 285.112054 
L 67.59936 285.103657 
L 67.95648 284.814159 
L 68.3136 284.105209 
L 68.67072 284.094812 
L 69.02784 283.762929 
L 69.38496 283.25111 
L 69.74208 283.092366 
L 70.0992 282.099915 
L 70.45632 282.411805 
L 70.81344 281.552508 
L 71.17056 281.706054 
L 71.52768 280.832761 
L 71.8848 280.861551 
L 72.24192 280.007052 
L 72.59904 280.027045 
L 72.95616 279.528421 
L 73.31328 279.484836 
L 73.6704 278.356833 
L 74.02752 278.322046 
L 74.38464 277.196042 
L 75.09888 276.29356 
L 75.81312 276.217187 
L 76.88448 274.624948 
L 77.2416 274.744505 
L 78.31296 273.092687 
L 78.67008 272.927945 
L 79.0272 272.992722 
L 79.38432 272.734413 
L 79.74144 271.392086 
L 80.09856 270.854675 
L 80.45568 271.278126 
L 80.8128 271.470858 
L 81.16992 269.62151 
L 81.52704 270.373645 
L 81.88416 269.208855 
L 82.24128 268.863377 
L 82.5984 268.178018 
L 82.95552 268.146429 
L 83.31264 268.781805 
L 83.66976 267.241148 
L 84.384 266.769714 
L 84.74112 266.61177 
L 85.09824 266.110346 
L 85.45536 264.791611 
L 85.81248 266.133538 
L 86.52672 264.800807 
L 87.24096 264.839994 
L 87.59808 263.398901 
L 88.31232 263.867936 
L 89.02656 263.015436 
L 89.38368 261.999394 
L 89.7408 261.790268 
L 90.09792 261.959408 
L 90.45504 260.739838 
L 90.81216 260.368369 
L 91.16928 260.465534 
L 91.5264 259.998499 
L 91.88352 258.970861 
L 92.24064 259.1432 
L 92.59776 257.81007 
L 92.95488 258.269908 
L 93.312 256.028697 
L 93.66912 257.713703 
L 94.38336 257.223876 
L 94.74048 255.780384 
L 95.0976 255.392121 
L 95.45472 254.312101 
L 95.81184 254.549218 
L 96.16896 255.683618 
L 96.52608 254.768741 
L 96.8832 252.759848 
L 97.24032 254.008608 
L 97.59744 253.969822 
L 97.95456 253.697118 
L 98.31168 252.210442 
L 98.6688 251.267574 
L 99.02592 251.373136 
L 99.38304 251.143617 
L 99.74016 251.266774 
L 100.09728 250.016014 
L 100.4544 250.54103 
L 100.81152 247.606463 
L 101.16864 247.299771 
L 101.52576 248.106687 
L 101.88288 247.544885 
L 102.59712 245.746318 
L 102.95424 247.939946 
L 103.31136 248.121882 
L 103.66848 246.784752 
L 104.0256 243.911764 
L 104.38272 245.08895 
L 104.73984 244.686291 
L 105.09696 245.080553 
L 105.45408 244.526348 
L 105.8112 245.37125 
L 106.16832 242.499861 
L 106.52544 243.18522 
L 106.88256 241.437036 
L 107.23968 242.92971 
L 107.5968 243.485514 
L 107.95392 239.685653 
L 108.31104 241.099955 
L 109.02528 239.873187 
L 109.3824 240.99799 
L 109.73952 239.287393 
L 110.09664 239.624074 
L 110.45376 236.930223 
L 110.81088 239.651265 
L 111.52512 235.659471 
L 111.88224 237.813512 
L 112.23936 234.977711 
L 112.59648 237.627178 
L 112.9536 234.58105 
L 113.31072 234.35593 
L 114.02496 233.182743 
L 114.38208 236.372819 
L 114.7392 233.397067 
L 115.09632 234.953319 
L 115.45344 232.860856 
L 115.81056 232.330643 
L 116.16768 231.270616 
L 116.5248 230.659631 
L 116.88192 231.607298 
L 117.23904 230.327748 
L 117.59616 230.960326 
L 118.3104 231.48654 
L 118.66752 230.624444 
L 119.02464 227.407577 
L 119.38176 229.735557 
L 119.73888 230.960725 
L 120.096 227.046104 
L 120.45312 228.480799 
L 120.81024 227.017714 
L 121.16736 229.309307 
L 121.52448 227.22684 
L 121.8816 226.863768 
L 122.23872 227.554325 
L 122.95296 225.278327 
L 123.31008 225.798943 
L 123.6672 225.599414 
L 124.02432 223.116288 
L 124.73856 222.592073 
L 125.09568 221.594024 
L 125.4528 224.609762 
L 126.16704 220.936256 
L 126.52416 220.529999 
L 126.88128 218.619072 
L 127.2384 223.340609 
L 127.59552 222.530095 
L 127.95264 222.45892 
L 128.30976 220.978241 
L 128.66688 221.3797 
L 129.024 221.011029 
L 129.38112 220.372454 
L 129.73824 218.068866 
L 130.45248 215.248659 
L 130.8096 217.54465 
L 131.16672 213.823961 
L 131.52384 214.271803 
L 131.88096 212.911082 
L 132.23808 214.296594 
L 132.5952 216.128349 
L 132.95232 216.144343 
L 133.30944 213.476083 
L 133.66656 215.764077 
L 134.02368 216.166736 
L 134.3808 214.891985 
L 134.73792 210.827416 
L 135.09504 213.786374 
L 135.45216 210.936977 
L 135.80928 213.918727 
L 136.1664 211.457194 
L 136.52352 207.992814 
L 136.88064 209.490287 
L 137.23776 208.009209 
L 137.59488 211.784679 
L 137.952 206.043501 
L 138.30912 210.875799 
L 138.66624 206.693672 
L 139.02336 205.496893 
L 139.7376 209.39752 
L 140.09472 207.960826 
L 140.45184 208.989663 
L 140.80896 204.102184 
L 141.16608 207.467799 
L 141.5232 203.367243 
L 141.88032 205.682028 
L 142.23744 206.341396 
L 142.59456 206.536527 
L 142.95168 200.548636 
L 143.3088 201.137229 
L 143.66592 201.369947 
L 144.02304 199.338662 
L 144.38016 201.442721 
L 144.73728 198.738873 
L 145.0944 203.881862 
L 145.45152 198.011929 
L 145.80864 203.386836 
L 146.16576 198.528148 
L 146.52288 203.06335 
L 147.23712 201.053258 
L 147.59424 201.451518 
L 147.95136 195.978246 
L 148.30848 195.703942 
L 148.6656 197.386949 
L 149.02272 194.284842 
L 149.37984 197.700839 
L 149.73696 199.745319 
L 150.09408 197.647258 
L 150.4512 194.00774 
L 150.80832 192.249959 
L 151.16544 196.729581 
L 151.52256 193.870588 
L 151.87968 194.022135 
L 152.2368 196.247351 
L 152.59392 194.85864 
L 152.95104 194.098108 
L 153.30816 190.123508 
L 153.66528 191.814912 
L 154.0224 190.808066 
L 154.37952 191.13995 
L 154.73664 187.624388 
L 155.09376 189.794024 
L 155.45088 193.830602 
L 155.808 190.633328 
L 156.16512 193.031683 
L 156.52224 190.333034 
L 156.87936 189.734445 
L 157.23648 185.932184 
L 157.5936 187.160551 
L 157.95072 188.817168 
L 158.30784 188.751991 
L 158.66496 186.946227 
L 159.02208 183.691773 
L 159.3792 184.900147 
L 159.73632 189.105866 
L 160.09344 183.591408 
L 160.45056 182.821279 
L 160.80768 180.997122 
L 161.1648 183.140367 
L 161.52192 180.470907 
L 161.87904 183.662583 
L 162.23616 183.237133 
L 162.59328 181.782845 
L 162.9504 181.345399 
L 163.30752 180.261381 
L 163.66464 181.508542 
L 164.02176 184.968523 
L 164.37888 177.608315 
L 164.736 182.70452 
L 165.09312 182.976025 
L 165.45024 177.571528 
L 165.80736 182.878859 
L 166.5216 175.269539 
L 166.87872 177.066906 
L 167.23584 174.745323 
L 167.59296 173.824848 
L 167.95008 176.014476 
L 168.3072 175.609419 
L 168.66432 177.667494 
L 169.37856 171.694798 
L 169.73568 171.342122 
L 170.0928 177.875421 
L 170.44992 171.053024 
L 170.80704 172.610075 
L 171.16416 176.653851 
L 171.52128 172.386154 
L 172.23552 174.235503 
L 172.59264 169.070922 
L 172.94976 169.328031 
L 173.30688 173.706489 
L 173.664 171.728386 
L 174.02112 166.446246 
L 174.37824 166.891689 
L 174.73536 170.692751 
L 175.09248 165.41221 
L 175.4496 169.329231 
L 175.80672 170.159339 
L 176.16384 170.643968 
L 176.52096 167.06043 
L 176.87808 166.047187 
L 177.2352 167.740191 
L 177.59232 164.376575 
L 177.94944 169.7011 
L 178.30656 162.846314 
L 178.66368 164.274611 
L 179.0208 160.412771 
L 179.37792 161.732706 
L 179.73504 162.354087 
L 180.44928 166.021596 
L 180.8064 158.585015 
L 181.16352 164.685666 
L 181.52064 158.158365 
L 181.87776 161.696719 
L 182.23488 156.778851 
L 182.592 161.121721 
L 182.94912 163.713609 
L 183.30624 164.578504 
L 183.66336 159.038055 
L 184.02048 156.995575 
L 184.3776 157.418226 
L 184.73472 154.487258 
L 185.09184 158.856519 
L 185.44896 157.881663 
L 186.1632 158.592212 
L 186.52032 157.058752 
L 186.87744 157.485002 
L 187.23456 160.526731 
L 187.59168 159.216792 
L 187.9488 156.04191 
L 188.30592 154.101794 
L 188.66304 150.242353 
L 189.02016 153.563983 
L 189.37728 158.083192 
L 189.7344 151.44433 
L 190.09152 152.642708 
L 190.44864 154.568429 
L 190.80576 151.745424 
L 191.16288 156.080297 
L 191.52 146.438093 
L 191.87712 153.112142 
L 192.59136 145.528413 
L 192.94848 147.592086 
L 193.3056 151.636262 
L 193.66272 153.527996 
L 194.01984 145.210125 
L 194.37696 152.320021 
L 194.73408 145.861496 
L 195.0912 146.343726 
L 195.44832 146.052629 
L 195.80544 146.292944 
L 196.16256 141.93168 
L 196.8768 150.045622 
L 197.23392 147.515713 
L 197.59104 139.313402 
L 197.94816 140.069136 
L 198.30528 149.311081 
L 198.6624 145.987052 
L 199.01952 145.05378 
L 199.37664 140.839265 
L 199.73376 138.844367 
L 200.09088 139.778838 
L 200.80512 145.39446 
L 201.51936 134.988125 
L 201.87648 141.826117 
L 202.2336 137.375285 
L 202.59072 136.983822 
L 202.94784 134.758606 
L 203.30496 143.612688 
L 204.0192 136.405626 
L 204.37632 140.59535 
L 204.73344 141.70496 
L 205.09056 135.227241 
L 205.44768 134.374741 
L 205.8048 138.677626 
L 206.16192 130.753617 
L 206.51904 129.959896 
L 206.87616 137.705168 
L 207.23328 134.60586 
L 207.5904 135.090889 
L 207.94752 133.967685 
L 208.30464 131.476162 
L 208.66176 137.352892 
L 209.01888 138.568064 
L 209.376 132.966837 
L 209.73312 138.629243 
L 210.44736 133.417878 
L 210.80448 134.412328 
L 211.1616 129.968693 
L 211.51872 134.447516 
L 211.87584 132.16232 
L 212.23296 137.023009 
L 212.59008 134.546281 
L 213.30432 128.085356 
L 213.66144 134.315962 
L 214.01856 132.02037 
L 214.37568 125.056823 
L 214.7328 131.497355 
L 215.08992 134.443117 
L 215.44704 127.583133 
L 215.80416 124.946862 
L 216.16128 131.331013 
L 216.5184 127.126494 
L 216.87552 128.853886 
L 217.23264 128.313676 
L 217.58976 123.889634 
L 217.94688 130.852382 
L 218.304 131.950395 
L 218.66112 125.928916 
L 219.01824 129.29653 
L 219.37536 131.601318 
L 219.73248 125.016037 
L 220.0896 126.165233 
L 220.44672 133.389088 
L 220.80384 131.059109 
L 221.16096 125.744981 
L 221.51808 124.01559 
L 221.8752 121.622432 
L 222.94656 132.38984 
L 223.30368 126.274794 
L 223.6608 124.330279 
L 224.01792 131.725674 
L 224.37504 124.04198 
L 224.73216 127.517956 
L 225.08928 120.816716 
L 225.80352 129.775961 
L 226.16064 122.762031 
L 226.51776 128.622367 
L 226.87488 130.165824 
L 227.232 126.523506 
L 227.58912 128.230105 
L 227.94624 126.420743 
L 228.30336 122.156244 
L 228.66048 128.774714 
L 229.0176 119.579152 
L 229.37472 117.582255 
L 229.73184 117.531473 
L 230.08896 128.348863 
L 230.44608 125.667808 
L 230.8032 129.171374 
L 231.16032 126.373959 
L 231.51744 127.061717 
L 231.87456 126.168032 
L 232.23168 120.72115 
L 232.5888 125.836948 
L 232.94592 125.319131 
L 233.30304 124.069571 
L 233.66016 121.026242 
L 234.01728 127.892624 
L 234.73152 116.952877 
L 235.08864 119.884644 
L 235.44576 115.862861 
L 235.80288 114.752852 
L 236.16 115.532977 
L 236.51712 125.541452 
L 236.87424 121.767181 
L 237.23136 126.605477 
L 237.58848 120.201333 
L 237.9456 120.162946 
L 238.30272 117.789382 
L 238.65984 122.642873 
L 239.01696 124.206322 
L 239.37408 114.421768 
L 239.7312 117.697815 
L 240.08832 124.518612 
L 240.44544 118.905789 
L 240.80256 121.219774 
L 241.15968 120.60799 
L 241.5168 114.669681 
L 241.87392 124.506217 
L 242.23104 112.261329 
L 242.58816 114.826826 
L 242.94528 115.060743 
L 243.65952 119.410411 
L 244.01664 111.925048 
L 244.37376 117.02885 
L 244.73088 111.616756 
L 245.088 121.360525 
L 245.44512 117.956523 
L 245.80224 119.47159 
L 246.15936 113.238985 
L 246.51648 112.99627 
L 246.8736 119.566756 
L 247.23072 112.511641 
L 247.58784 109.7902 
L 247.94496 115.173903 
L 248.30208 118.698262 
L 248.6592 110.29962 
L 249.01632 119.10212 
L 249.37344 110.350402 
L 249.73056 113.293766 
L 250.08768 110.494751 
L 250.80192 120.709554 
L 251.15904 110.9258 
L 251.51616 118.991759 
L 251.87328 110.246039 
L 252.2304 108.9365 
L 252.58752 119.951421 
L 252.94464 109.38994 
L 253.30176 116.854911 
L 253.65888 112.875913 
L 254.016 107.117141 
L 254.37312 107.245896 
L 254.73024 115.277867 
L 255.08736 117.019653 
L 255.8016 113.999517 
L 256.15872 109.706629 
L 256.51584 110.718673 
L 256.87296 107.283082 
L 257.23008 116.14916 
L 257.5872 106.935605 
L 257.94432 106.988786 
L 258.30144 110.503948 
L 258.65856 109.116437 
L 259.01568 110.738665 
L 259.3728 105.384951 
L 259.72992 115.734506 
L 260.08704 117.393922 
L 260.44416 116.652583 
L 260.80128 115.628543 
L 261.1584 112.518839 
L 261.51552 104.466075 
L 261.87264 106.138286 
L 262.58688 115.601753 
L 262.944 109.957741 
L 263.30112 109.317566 
L 263.65824 116.097978 
L 264.01536 109.644651 
L 264.37248 107.406239 
L 264.7296 110.923001 
L 265.44384 108.00003 
L 265.80096 103.609176 
L 266.15808 108.42628 
L 266.5152 101.772623 
L 266.87232 102.799062 
L 267.22944 104.671602 
L 267.58656 113.852769 
L 267.94368 101.988147 
L 268.3008 102.459581 
L 268.65792 104.557642 
L 269.01504 113.029059 
L 269.37216 112.580417 
L 270.0864 105.654056 
L 270.44352 112.521238 
L 270.80064 106.488162 
L 271.15776 106.954798 
L 271.51488 112.520038 
L 271.872 99.860896 
L 272.22912 105.773614 
L 272.58624 100.638223 
L 272.94336 102.275246 
L 273.30048 108.038017 
L 273.6576 107.089151 
L 274.01472 109.853777 
L 274.37184 103.875483 
L 274.72896 106.006332 
L 275.08608 102.300837 
L 275.4432 108.381096 
L 275.80032 106.598923 
L 276.15744 109.640652 
L 276.51456 111.229693 
L 276.87168 97.461342 
L 277.2288 107.703334 
L 277.58592 110.769455 
L 277.94304 99.185534 
L 278.65728 110.282426 
L 279.0144 98.660519 
L 279.37152 104.454479 
L 279.72864 99.782524 
L 280.08576 105.362159 
L 280.44288 106.740474 
L 280.8 101.892981 
L 281.15712 109.531491 
L 281.51424 106.473768 
L 281.87136 105.081058 
L 282.22848 106.395395 
L 282.5856 98.17629 
L 282.94272 104.771967 
L 283.29984 95.683568 
L 283.65696 101.893381 
L 284.01408 103.267697 
L 284.3712 95.076182 
L 284.72832 98.027942 
L 285.08544 106.486963 
L 285.44256 100.018841 
L 285.79968 96.339737 
L 286.1568 99.626579 
L 286.51392 100.513067 
L 286.87104 103.538801 
L 287.22816 101.171235 
L 287.58528 93.725057 
L 287.9424 103.123347 
L 288.29952 105.691643 
L 288.65664 101.075669 
L 289.01376 104.755573 
L 289.728 98.139103 
L 290.08512 95.088177 
L 290.44224 102.879833 
L 290.79936 106.161078 
L 291.15648 96.174195 
L 291.5136 105.896371 
L 291.87072 94.68232 
L 292.22784 95.408065 
L 292.58496 94.260869 
L 292.94208 96.935127 
L 293.2992 101.046479 
L 293.65632 96.933527 
L 294.37056 101.928968 
L 294.72768 97.924778 
L 295.0848 97.738844 
L 295.44192 98.257861 
L 295.79904 102.016537 
L 296.15616 93.610298 
L 296.51328 94.416814 
L 297.22752 92.556269 
L 297.58464 100.584242 
L 298.656 98.213477 
L 299.01312 100.534259 
L 299.37024 90.661336 
L 299.72736 103.170531 
L 300.08448 94.157705 
L 300.4416 103.028181 
L 300.79872 95.746745 
L 301.15584 92.394726 
L 301.51296 100.743786 
L 301.87008 90.029159 
L 302.2272 94.515179 
L 302.58432 101.279597 
L 302.94144 101.216019 
L 303.29856 95.318496 
L 304.0128 91.753352 
L 304.36992 100.24836 
L 304.72704 96.807572 
L 305.08416 95.747945 
L 305.44128 91.832124 
L 305.7984 92.028455 
L 306.15552 86.713527 
L 306.51264 100.196378 
L 306.86976 91.974474 
L 307.22688 87.370095 
L 307.584 87.418878 
L 308.65536 98.754886 
L 309.01248 93.228832 
L 309.3696 90.142719 
L 309.72672 91.595807 
L 310.08384 88.624054 
L 310.79808 97.016698 
L 311.1552 87.996675 
L 311.51232 87.959888 
L 311.86944 97.234222 
L 312.22656 95.752343 
L 312.9408 88.631651 
L 313.29792 96.001056 
L 313.65504 93.327997 
L 314.01216 97.129059 
L 314.36928 95.033796 
L 314.7264 90.496994 
L 315.08352 83.306327 
L 315.44064 86.128533 
L 315.79776 85.334013 
L 316.15488 87.714374 
L 316.512 92.260373 
L 316.86912 85.647902 
L 317.22624 94.395221 
L 317.58336 94.575958 
L 317.94048 93.979368 
L 318.2976 83.537845 
L 318.65472 96.302949 
L 319.01184 84.547889 
L 319.36896 89.250633 
L 319.72608 85.950995 
L 320.0832 88.829981 
L 320.79744 96.220978 
L 321.15456 89.055902 
L 321.51168 92.079637 
L 321.8688 81.684498 
L 322.22592 93.200042 
L 322.58304 94.363632 
L 322.94016 89.409377 
L 323.6544 95.058188 
L 324.01152 83.603022 
L 324.36864 80.943559 
L 324.72576 86.973835 
L 325.08288 87.490053 
L 325.44 83.587828 
L 325.79712 85.314819 
L 326.51136 81.377006 
L 326.86848 89.20425 
L 327.2256 89.072296 
L 327.58272 86.070553 
L 327.93984 87.122183 
L 328.29696 85.348008 
L 328.65408 79.403701 
L 329.0112 92.356339 
L 329.36832 84.810997 
L 329.72544 93.317201 
L 330.08256 83.279136 
L 330.43968 92.389528 
L 331.15392 81.793659 
L 331.51104 91.255527 
L 331.86816 92.640239 
L 332.22528 80.993941 
L 332.5824 82.788509 
L 332.93952 79.669607 
L 333.65376 84.934953 
L 334.01088 81.352215 
L 334.368 89.675684 
L 335.08224 79.186578 
L 335.43936 82.880477 
L 335.79648 79.795563 
L 336.51072 90.369439 
L 336.86784 81.50696 
L 337.22496 89.945588 
L 337.58208 84.158427 
L 337.9392 75.911731 
L 338.29632 79.992694 
L 338.65344 76.36957 
L 339.01056 88.986726 
L 339.36768 79.89073 
L 339.7248 86.535989 
L 340.08192 81.392601 
L 340.43904 84.220405 
L 340.79616 76.699454 
L 341.15328 78.691152 
L 341.5104 78.544004 
L 341.86752 76.736241 
L 342.22464 77.070123 
L 342.58176 82.454627 
L 342.93888 82.574185 
L 343.296 79.972301 
L 343.65312 89.056302 
L 344.01024 87.342905 
L 344.36736 88.307765 
L 345.0816 77.218471 
L 345.43872 86.981033 
L 345.79584 84.950947 
L 346.15296 75.108414 
L 346.51008 88.137025 
L 346.8672 81.804855 
L 347.22432 86.996627 
L 347.58144 85.103294 
L 348.29568 74.322291 
L 348.6528 80.85479 
L 349.00992 78.78232 
L 349.36704 86.548385 
L 349.72416 78.416049 
L 350.08128 76.120058 
L 350.4384 79.779169 
L 350.79552 75.735793 
L 351.15264 85.771459 
L 351.50976 86.671142 
L 351.86688 71.773588 
L 352.224 71.895145 
L 352.58112 73.041542 
L 352.93824 82.740126 
L 353.29536 79.900726 
L 353.65248 70.489241 
L 354.0096 73.344635 
L 354.36672 74.006402 
L 354.72384 70.524828 
L 355.08096 81.170679 
L 355.43808 74.175143 
L 355.7952 74.712153 
L 356.15232 84.822193 
L 356.50944 81.132292 
L 356.86656 74.329488 
L 357.22368 73.377024 
L 357.5808 76.012096 
L 357.93792 80.255001 
L 358.29504 81.656908 
L 358.65216 72.214233 
L 359.00928 77.30564 
L 359.3664 78.629174 
L 359.72352 74.555009 
L 360.08064 79.926317 
L 360.43776 81.429388 
L 360.79488 79.041829 
L 361.152 72.295005 
L 361.50912 72.040694 
L 361.86624 75.7158 
L 362.22336 74.376272 
L 362.58048 75.738192 
L 363.29472 82.740126 
L 363.65184 70.624393 
L 364.00896 69.744703 
L 364.36608 68.335199 
L 364.7232 79.963504 
L 365.08032 71.113021 
L 365.43744 73.523772 
L 365.79456 70.363285 
L 366.15168 81.42179 
L 366.5088 70.738353 
L 366.86592 66.125178 
L 367.22304 80.496916 
L 367.58016 69.396026 
L 367.93728 70.687571 
L 368.2944 80.667256 
L 368.65152 68.196448 
L 369.00864 76.458738 
L 369.36576 71.462898 
L 369.72288 73.163499 
L 370.08 74.26791 
L 370.43712 80.869185 
L 370.79424 73.990408 
L 371.15136 64.856824 
L 371.50848 79.329727 
L 371.8656 70.54642 
L 372.22272 77.664714 
L 372.57984 64.431374 
L 372.93696 68.797037 
L 373.29408 74.659772 
L 373.6512 67.233987 
L 374.00832 67.921345 
L 374.36544 72.119067 
L 374.72256 65.218297 
L 375.07968 66.312712 
L 375.79392 76.25401 
L 376.15104 64.799245 
L 376.50816 72.511328 
L 376.86528 64.174265 
L 377.2224 77.765478 
L 377.57952 64.430175 
L 377.93664 69.872258 
L 378.29376 72.216632 
L 378.65088 68.468352 
L 379.008 76.666665 
L 379.36512 63.56248 
L 379.72224 77.297243 
L 380.07936 72.399368 
L 380.43648 63.95954 
L 380.7936 65.572172 
L 381.15072 72.727652 
L 381.50784 69.853065 
L 381.86496 71.947127 
L 382.22208 63.422929 
L 382.5792 66.042007 
L 382.93632 64.473759 
L 383.29344 72.652479 
L 383.65056 64.787649 
L 384.00768 64.599315 
L 384.3648 72.510129 
L 384.72192 74.400263 
L 385.07904 70.295709 
L 385.43616 62.11579 
L 385.79328 69.859063 
L 386.1504 65.219097 
L 386.50752 70.148561 
L 386.86464 61.013378 
L 387.22176 73.066333 
L 387.57888 71.015055 
L 387.936 61.967442 
L 388.29312 72.035896 
L 388.65024 71.636836 
L 389.00736 73.655326 
L 389.36448 59.441132 
L 389.7216 68.81463 
L 390.07872 63.688836 
L 390.43584 67.200799 
L 390.79296 69.454805 
L 391.15008 74.184739 
L 391.5072 71.544469 
L 391.86432 74.784528 
L 392.22144 60.504357 
L 392.57856 69.663931 
L 392.93568 60.21166 
L 393.2928 71.893146 
L 393.64992 59.952152 
L 394.00704 61.047366 
L 394.36416 59.026478 
L 394.72128 70.311703 
L 395.0784 65.006771 
L 395.43552 71.431309 
L 395.79264 72.701661 
L 396.14976 71.600849 
L 396.50688 60.805451 
L 396.864 62.274134 
L 397.22112 68.36079 
L 397.57824 58.872532 
L 397.93536 66.604609 
L 398.29248 59.50271 
L 398.6496 67.091237 
L 399.00672 65.75051 
L 399.36384 58.790561 
L 399.72096 71.104224 
L 400.07808 66.776148 
L 400.4352 72.739248 
L 400.79232 70.475246 
L 401.50656 56.574941 
L 402.57792 67.461907 
L 402.93504 55.335777 
L 403.29216 63.001478 
L 403.64928 66.256331 
L 404.0064 57.167532 
L 404.36352 61.519999 
L 404.72064 55.663262 
L 405.07776 63.10944 
L 405.43488 62.266537 
L 405.792 54.763179 
L 406.14912 69.642739 
L 406.86336 56.029133 
L 407.22048 64.562128 
L 407.5776 69.799883 
L 407.93472 62.145779 
L 408.29184 63.657247 
L 408.64896 54.315737 
L 409.00608 54.858346 
L 409.72032 68.902599 
L 410.07744 63.217802 
L 410.43456 53.568 
L 410.79168 56.74768 
L 411.1488 61.903464 
L 411.50592 64.851626 
L 411.86304 66.559425 
L 412.22016 64.21505 
L 412.57728 67.014864 
L 412.9344 66.561424 
L 413.29152 62.867525 
L 413.64864 56.867638 
L 414.00576 57.399451 
L 414.36288 63.037465 
L 414.72 66.305914 
L 414.72 66.305914 
" style="fill:none;stroke:#000080;stroke-linecap:square;stroke-width:0.5;"/>
   </g>
   <g id="patch_3">
    <path d="M 57.6 307.584 
L 57.6 41.472 
" style="fill:none;stroke:#000000;stroke-linecap:square;stroke-linejoin:miter;stroke-width:0.8;"/>
   </g>
   <g id="patch_4">
    <path d="M 414.72 307.584 
L 414.72 41.472 
" style="fill:none;stroke:#000000;stroke-linecap:square;stroke-linejoin:miter;stroke-width:0.8;"/>
   </g>
   <g id="patch_5">
    <path d="M 57.6 307.584 
L 414.72 307.584 
" style="fill:none;stroke:#000000;stroke-linecap:square;stroke-linejoin:miter;stroke-width:0.8;"/>
   </g>
   <g id="patch_6">
    <path d="M 57.6 41.472 
L 414.72 41.472 
" style="fill:none;stroke:#000000;stroke-linecap:square;stroke-linejoin:miter;stroke-width:0.8;"/>
   </g>
   <g id="text_16">
    <!-- Test -->
    <defs>
     <path d="M -0.296875 72.90625 
L 61.375 72.90625 
L 61.375 64.59375 
L 35.5 64.59375 
L 35.5 0 
L 25.59375 0 
L 25.59375 64.59375 
L -0.296875 64.59375 
z
" id="DejaVuSans-54"/>
    </defs>
    <g transform="translate(223.341563 35.472)scale(0.12 -0.12)">
     <use xlink:href="#DejaVuSans-54"/>
     <use x="60.818359" xlink:href="#DejaVuSans-65"/>
     <use x="122.341797" xlink:href="#DejaVuSans-73"/>
     <use x="174.441406" xlink:href="#DejaVuSans-74"/>
    </g>
   </g>
   <g id="legend_1">
    <g id="patch_7">
     <path d="M 64.6 64.150125 
L 306.276563 64.150125 
Q 308.276563 64.150125 308.276563 62.150125 
L 308.276563 48.472 
Q 308.276563 46.472 306.276563 46.472 
L 64.6 46.472 
Q 62.6 46.472 62.6 48.472 
L 62.6 62.150125 
Q 62.6 64.150125 64.6 64.150125 
z
" style="fill:#ffffff;opacity:0.8;stroke:#cccccc;stroke-linejoin:miter;"/>
    </g>
    <g id="line2d_28">
     <path d="M 66.6 54.570438 
L 86.6 54.570438 
" style="fill:none;stroke:#000080;stroke-linecap:square;stroke-width:0.5;"/>
    </g>
    <g id="line2d_29"/>
    <g id="text_17">
     <!-- Successful download requests per second -->
     <g transform="translate(94.6 58.070438)scale(0.1 -0.1)">
      <use xlink:href="#DejaVuSans-53"/>
      <use x="63.476562" xlink:href="#DejaVuSans-75"/>
      <use x="126.855469" xlink:href="#DejaVuSans-63"/>
      <use x="181.835938" xlink:href="#DejaVuSans-63"/>
      <use x="236.816406" xlink:href="#DejaVuSans-65"/>
      <use x="298.339844" xlink:href="#DejaVuSans-73"/>
      <use x="350.439453" xlink:href="#DejaVuSans-73"/>
      <use x="402.539062" xlink:href="#DejaVuSans-66"/>
      <use x="437.744141" xlink:href="#DejaVuSans-75"/>
      <use x="501.123047" xlink:href="#DejaVuSans-6c"/>
      <use x="528.90625" xlink:href="#DejaVuSans-20"/>
      <use x="560.693359" xlink:href="#DejaVuSans-64"/>
      <use x="624.169922" xlink:href="#DejaVuSans-6f"/>
      <use x="685.351562" xlink:href="#DejaVuSans-77"/>
      <use x="767.138672" xlink:href="#DejaVuSans-6e"/>
      <use x="830.517578" xlink:href="#DejaVuSans-6c"/>
      <use x="858.300781" xlink:href="#DejaVuSans-6f"/>
      <use x="919.482422" xlink:href="#DejaVuSans-61"/>
      <use x="980.761719" xlink:href="#DejaVuSans-64"/>
      <use x="1044.238281" xlink:href="#DejaVuSans-20"/>
      <use x="1076.025391" xlink:href="#DejaVuSans-72"/>
      <use x="1117.107422" xlink:href="#DejaVuSans-65"/>
      <use x="1178.630859" xlink:href="#DejaVuSans-71"/>
      <use x="1242.107422" xlink:href="#DejaVuSans-75"/>
      <use x="1305.486328" xlink:href="#DejaVuSans-65"/>
      <use x="1367.009766" xlink:href="#DejaVuSans-73"/>
      <use x="1419.109375" xlink:href="#DejaVuSans-74"/>
      <use x="1458.318359" xlink:href="#DejaVuSans-73"/>
      <use x="1510.417969" xlink:href="#DejaVuSans-20"/>
      <use x="1542.205078" xlink:href="#DejaVuSans-70"/>
      <use x="1605.681641" xlink:href="#DejaVuSans-65"/>
      <use x="1667.205078" xlink:href="#DejaVuSans-72"/>
      <use x="1708.318359" xlink:href="#DejaVuSans-20"/>
      <use x="1740.105469" xlink:href="#DejaVuSans-73"/>
      <use x="1792.205078" xlink:href="#DejaVuSans-65"/>
      <use x="1853.728516" xlink:href="#DejaVuSans-63"/>
      <use x="1908.708984" xlink:href="#DejaVuSans-6f"/>
      <use x="1969.890625" xlink:href="#DejaVuSans-6e"/>
      <use x="2033.269531" xlink:href="#DejaVuSans-64"/>
     </g>
    </g>
   </g>
  </g>
 </g>
 <defs>
  <clipPath id="p7ec427f6ac">
   <rect height="266.112" width="357.12" x="57.6" y="41.472"/>
  </clipPath>
 </defs>
</svg>
