<?xml version="1.0" encoding="utf-8" standalone="no"?>
<!DOCTYPE svg PUBLIC "-//W3C//DTD SVG 1.1//EN"
  "http://www.w3.org/Graphics/SVG/1.1/DTD/svg11.dtd">
<!-- Created with matplotlib (http://matplotlib.org/) -->
<svg height="345pt" version="1.1" viewBox="0 0 460 345" width="460pt" xmlns="http://www.w3.org/2000/svg" xmlns:xlink="http://www.w3.org/1999/xlink">
 <defs>
  <style type="text/css">
*{stroke-linecap:butt;stroke-linejoin:round;}
  </style>
 </defs>
 <g id="figure_1">
  <g id="patch_1">
   <path d="M 0 345.6 
L 460.8 345.6 
L 460.8 0 
L 0 0 
z
" style="fill:#ffffff;"/>
  </g>
  <g id="axes_1">
   <g id="patch_2">
    <path d="M 57.6 307.584 
L 414.72 307.584 
L 414.72 41.472 
L 57.6 41.472 
z
" style="fill:#ffffff;"/>
   </g>
   <g id="matplotlib.axis_1">
    <g id="xtick_1">
     <g id="line2d_1">
      <path clip-path="url(#p941a91f304)" d="M 57.6 307.584 
L 57.6 41.472 
" style="fill:none;stroke:#b0b0b0;stroke-linecap:square;stroke-width:0.8;"/>
     </g>
     <g id="line2d_2">
      <defs>
       <path d="M 0 0 
L 0 3.5 
" id="mb29ea0ba74" style="stroke:#000000;stroke-width:0.8;"/>
      </defs>
      <g>
       <use style="stroke:#000000;stroke-width:0.8;" x="57.6" xlink:href="#mb29ea0ba74" y="307.584"/>
      </g>
     </g>
     <g id="text_1">
      <!-- 0 -->
      <defs>
       <path d="M 31.78125 66.40625 
Q 24.171875 66.40625 20.328125 58.90625 
Q 16.5 51.421875 16.5 36.375 
Q 16.5 21.390625 20.328125 13.890625 
Q 24.171875 6.390625 31.78125 6.390625 
Q 39.453125 6.390625 43.28125 13.890625 
Q 47.125 21.390625 47.125 36.375 
Q 47.125 51.421875 43.28125 58.90625 
Q 39.453125 66.40625 31.78125 66.40625 
M 31.78125 74.21875 
Q 44.046875 74.21875 50.515625 64.515625 
Q 56.984375 54.828125 56.984375 36.375 
Q 56.984375 17.96875 50.515625 8.265625 
Q 44.046875 -1.421875 31.78125 -1.421875 
Q 19.53125 -1.421875 13.0625 8.265625 
Q 6.59375 17.96875 6.59375 36.375 
Q 6.59375 54.828125 13.0625 64.515625 
Q 19.53125 74.21875 31.78125 74.21875 
" id="DejaVuSans-30"/>
      </defs>
      <g transform="translate(54.41875 322.182437)scale(0.1 -0.1)">
       <use xlink:href="#DejaVuSans-30"/>
      </g>
     </g>
    </g>
    <g id="xtick_2">
     <g id="line2d_3">
      <path clip-path="url(#p941a91f304)" d="M 129.024 307.584 
L 129.024 41.472 
" style="fill:none;stroke:#b0b0b0;stroke-linecap:square;stroke-width:0.8;"/>
     </g>
     <g id="line2d_4">
      <g>
       <use style="stroke:#000000;stroke-width:0.8;" x="129.024" xlink:href="#mb29ea0ba74" y="307.584"/>
      </g>
     </g>
     <g id="text_2">
      <!-- 200 -->
      <defs>
       <path d="M 19.1875 8.296875 
L 53.609375 8.296875 
L 53.609375 0 
L 7.328125 0 
L 7.328125 8.296875 
Q 12.9375 14.109375 22.625 23.890625 
Q 32.328125 33.6875 34.8125 36.53125 
Q 39.546875 41.84375 41.421875 45.53125 
Q 43.3125 49.21875 43.3125 52.78125 
Q 43.3125 58.59375 39.234375 62.25 
Q 35.15625 65.921875 28.609375 65.921875 
Q 23.96875 65.921875 18.8125 64.3125 
Q 13.671875 62.703125 7.8125 59.421875 
L 7.8125 69.390625 
Q 13.765625 71.78125 18.9375 73 
Q 24.125 74.21875 28.421875 74.21875 
Q 39.75 74.21875 46.484375 68.546875 
Q 53.21875 62.890625 53.21875 53.421875 
Q 53.21875 48.921875 51.53125 44.890625 
Q 49.859375 40.875 45.40625 35.40625 
Q 44.1875 33.984375 37.640625 27.21875 
Q 31.109375 20.453125 19.1875 8.296875 
" id="DejaVuSans-32"/>
      </defs>
      <g transform="translate(119.48025 322.182437)scale(0.1 -0.1)">
       <use xlink:href="#DejaVuSans-32"/>
       <use x="63.623047" xlink:href="#DejaVuSans-30"/>
       <use x="127.246094" xlink:href="#DejaVuSans-30"/>
      </g>
     </g>
    </g>
    <g id="xtick_3">
     <g id="line2d_5">
      <path clip-path="url(#p941a91f304)" d="M 200.448 307.584 
L 200.448 41.472 
" style="fill:none;stroke:#b0b0b0;stroke-linecap:square;stroke-width:0.8;"/>
     </g>
     <g id="line2d_6">
      <g>
       <use style="stroke:#000000;stroke-width:0.8;" x="200.448" xlink:href="#mb29ea0ba74" y="307.584"/>
      </g>
     </g>
     <g id="text_3">
      <!-- 400 -->
      <defs>
       <path d="M 37.796875 64.3125 
L 12.890625 25.390625 
L 37.796875 25.390625 
z
M 35.203125 72.90625 
L 47.609375 72.90625 
L 47.609375 25.390625 
L 58.015625 25.390625 
L 58.015625 17.1875 
L 47.609375 17.1875 
L 47.609375 0 
L 37.796875 0 
L 37.796875 17.1875 
L 4.890625 17.1875 
L 4.890625 26.703125 
z
" id="DejaVuSans-34"/>
      </defs>
      <g transform="translate(190.90425 322.182437)scale(0.1 -0.1)">
       <use xlink:href="#DejaVuSans-34"/>
       <use x="63.623047" xlink:href="#DejaVuSans-30"/>
       <use x="127.246094" xlink:href="#DejaVuSans-30"/>
      </g>
     </g>
    </g>
    <g id="xtick_4">
     <g id="line2d_7">
      <path clip-path="url(#p941a91f304)" d="M 271.872 307.584 
L 271.872 41.472 
" style="fill:none;stroke:#b0b0b0;stroke-linecap:square;stroke-width:0.8;"/>
     </g>
     <g id="line2d_8">
      <g>
       <use style="stroke:#000000;stroke-width:0.8;" x="271.872" xlink:href="#mb29ea0ba74" y="307.584"/>
      </g>
     </g>
     <g id="text_4">
      <!-- 600 -->
      <defs>
       <path d="M 33.015625 40.375 
Q 26.375 40.375 22.484375 35.828125 
Q 18.609375 31.296875 18.609375 23.390625 
Q 18.609375 15.53125 22.484375 10.953125 
Q 26.375 6.390625 33.015625 6.390625 
Q 39.65625 6.390625 43.53125 10.953125 
Q 47.40625 15.53125 47.40625 23.390625 
Q 47.40625 31.296875 43.53125 35.828125 
Q 39.65625 40.375 33.015625 40.375 
M 52.59375 71.296875 
L 52.59375 62.3125 
Q 48.875 64.0625 45.09375 64.984375 
Q 41.3125 65.921875 37.59375 65.921875 
Q 27.828125 65.921875 22.671875 59.328125 
Q 17.53125 52.734375 16.796875 39.40625 
Q 19.671875 43.65625 24.015625 45.921875 
Q 28.375 48.1875 33.59375 48.1875 
Q 44.578125 48.1875 50.953125 41.515625 
Q 57.328125 34.859375 57.328125 23.390625 
Q 57.328125 12.15625 50.6875 5.359375 
Q 44.046875 -1.421875 33.015625 -1.421875 
Q 20.359375 -1.421875 13.671875 8.265625 
Q 6.984375 17.96875 6.984375 36.375 
Q 6.984375 53.65625 15.1875 63.9375 
Q 23.390625 74.21875 37.203125 74.21875 
Q 40.921875 74.21875 44.703125 73.484375 
Q 48.484375 72.75 52.59375 71.296875 
" id="DejaVuSans-36"/>
      </defs>
      <g transform="translate(262.32825 322.182437)scale(0.1 -0.1)">
       <use xlink:href="#DejaVuSans-36"/>
       <use x="63.623047" xlink:href="#DejaVuSans-30"/>
       <use x="127.246094" xlink:href="#DejaVuSans-30"/>
      </g>
     </g>
    </g>
    <g id="xtick_5">
     <g id="line2d_9">
      <path clip-path="url(#p941a91f304)" d="M 343.296 307.584 
L 343.296 41.472 
" style="fill:none;stroke:#b0b0b0;stroke-linecap:square;stroke-width:0.8;"/>
     </g>
     <g id="line2d_10">
      <g>
       <use style="stroke:#000000;stroke-width:0.8;" x="343.296" xlink:href="#mb29ea0ba74" y="307.584"/>
      </g>
     </g>
     <g id="text_5">
      <!-- 800 -->
      <defs>
       <path d="M 31.78125 34.625 
Q 24.75 34.625 20.71875 30.859375 
Q 16.703125 27.09375 16.703125 20.515625 
Q 16.703125 13.921875 20.71875 10.15625 
Q 24.75 6.390625 31.78125 6.390625 
Q 38.8125 6.390625 42.859375 10.171875 
Q 46.921875 13.96875 46.921875 20.515625 
Q 46.921875 27.09375 42.890625 30.859375 
Q 38.875 34.625 31.78125 34.625 
M 21.921875 38.8125 
Q 15.578125 40.375 12.03125 44.71875 
Q 8.5 49.078125 8.5 55.328125 
Q 8.5 64.0625 14.71875 69.140625 
Q 20.953125 74.21875 31.78125 74.21875 
Q 42.671875 74.21875 48.875 69.140625 
Q 55.078125 64.0625 55.078125 55.328125 
Q 55.078125 49.078125 51.53125 44.71875 
Q 48 40.375 41.703125 38.8125 
Q 48.828125 37.15625 52.796875 32.3125 
Q 56.78125 27.484375 56.78125 20.515625 
Q 56.78125 9.90625 50.3125 4.234375 
Q 43.84375 -1.421875 31.78125 -1.421875 
Q 19.734375 -1.421875 13.25 4.234375 
Q 6.78125 9.90625 6.78125 20.515625 
Q 6.78125 27.484375 10.78125 32.3125 
Q 14.796875 37.15625 21.921875 38.8125 
M 18.3125 54.390625 
Q 18.3125 48.734375 21.84375 45.5625 
Q 25.390625 42.390625 31.78125 42.390625 
Q 38.140625 42.390625 41.71875 45.5625 
Q 45.3125 48.734375 45.3125 54.390625 
Q 45.3125 60.0625 41.71875 63.234375 
Q 38.140625 66.40625 31.78125 66.40625 
Q 25.390625 66.40625 21.84375 63.234375 
Q 18.3125 60.0625 18.3125 54.390625 
" id="DejaVuSans-38"/>
      </defs>
      <g transform="translate(333.75225 322.182437)scale(0.1 -0.1)">
       <use xlink:href="#DejaVuSans-38"/>
       <use x="63.623047" xlink:href="#DejaVuSans-30"/>
       <use x="127.246094" xlink:href="#DejaVuSans-30"/>
      </g>
     </g>
    </g>
    <g id="xtick_6">
     <g id="line2d_11">
      <path clip-path="url(#p941a91f304)" d="M 414.72 307.584 
L 414.72 41.472 
" style="fill:none;stroke:#b0b0b0;stroke-linecap:square;stroke-width:0.8;"/>
     </g>
     <g id="line2d_12">
      <g>
       <use style="stroke:#000000;stroke-width:0.8;" x="414.72" xlink:href="#mb29ea0ba74" y="307.584"/>
      </g>
     </g>
     <g id="text_6">
      <!-- 1000 -->
      <defs>
       <path d="M 12.40625 8.296875 
L 28.515625 8.296875 
L 28.515625 63.921875 
L 10.984375 60.40625 
L 10.984375 69.390625 
L 28.421875 72.90625 
L 38.28125 72.90625 
L 38.28125 8.296875 
L 54.390625 8.296875 
L 54.390625 0 
L 12.40625 0 
z
" id="DejaVuSans-31"/>
      </defs>
      <g transform="translate(401.995 322.182437)scale(0.1 -0.1)">
       <use xlink:href="#DejaVuSans-31"/>
       <use x="63.623047" xlink:href="#DejaVuSans-30"/>
       <use x="127.246094" xlink:href="#DejaVuSans-30"/>
       <use x="190.869141" xlink:href="#DejaVuSans-30"/>
      </g>
     </g>
    </g>
    <g id="text_7">
     <!-- Number of clients -->
     <defs>
      <path d="M 9.8125 72.90625 
L 23.09375 72.90625 
L 55.421875 11.921875 
L 55.421875 72.90625 
L 64.984375 72.90625 
L 64.984375 0 
L 51.703125 0 
L 19.390625 60.984375 
L 19.390625 0 
L 9.8125 0 
z
" id="DejaVuSans-4e"/>
      <path d="M 8.5 21.578125 
L 8.5 54.6875 
L 17.484375 54.6875 
L 17.484375 21.921875 
Q 17.484375 14.15625 20.5 10.265625 
Q 23.53125 6.390625 29.59375 6.390625 
Q 36.859375 6.390625 41.078125 11.03125 
Q 45.3125 15.671875 45.3125 23.6875 
L 45.3125 54.6875 
L 54.296875 54.6875 
L 54.296875 0 
L 45.3125 0 
L 45.3125 8.40625 
Q 42.046875 3.421875 37.71875 1 
Q 33.40625 -1.421875 27.6875 -1.421875 
Q 18.265625 -1.421875 13.375 4.4375 
Q 8.5 10.296875 8.5 21.578125 
M 31.109375 56 
z
" id="DejaVuSans-75"/>
      <path d="M 52 44.1875 
Q 55.375 50.25 60.0625 53.125 
Q 64.75 56 71.09375 56 
Q 79.640625 56 84.28125 50.015625 
Q 88.921875 44.046875 88.921875 33.015625 
L 88.921875 0 
L 79.890625 0 
L 79.890625 32.71875 
Q 79.890625 40.578125 77.09375 44.375 
Q 74.3125 48.1875 68.609375 48.1875 
Q 61.625 48.1875 57.5625 43.546875 
Q 53.515625 38.921875 53.515625 30.90625 
L 53.515625 0 
L 44.484375 0 
L 44.484375 32.71875 
Q 44.484375 40.625 41.703125 44.40625 
Q 38.921875 48.1875 33.109375 48.1875 
Q 26.21875 48.1875 22.15625 43.53125 
Q 18.109375 38.875 18.109375 30.90625 
L 18.109375 0 
L 9.078125 0 
L 9.078125 54.6875 
L 18.109375 54.6875 
L 18.109375 46.1875 
Q 21.1875 51.21875 25.484375 53.609375 
Q 29.78125 56 35.6875 56 
Q 41.65625 56 45.828125 52.96875 
Q 50 49.953125 52 44.1875 
" id="DejaVuSans-6d"/>
      <path d="M 48.6875 27.296875 
Q 48.6875 37.203125 44.609375 42.84375 
Q 40.53125 48.484375 33.40625 48.484375 
Q 26.265625 48.484375 22.1875 42.84375 
Q 18.109375 37.203125 18.109375 27.296875 
Q 18.109375 17.390625 22.1875 11.75 
Q 26.265625 6.109375 33.40625 6.109375 
Q 40.53125 6.109375 44.609375 11.75 
Q 48.6875 17.390625 48.6875 27.296875 
M 18.109375 46.390625 
Q 20.953125 51.265625 25.265625 53.625 
Q 29.59375 56 35.59375 56 
Q 45.5625 56 51.78125 48.09375 
Q 58.015625 40.1875 58.015625 27.296875 
Q 58.015625 14.40625 51.78125 6.484375 
Q 45.5625 -1.421875 35.59375 -1.421875 
Q 29.59375 -1.421875 25.265625 0.953125 
Q 20.953125 3.328125 18.109375 8.203125 
L 18.109375 0 
L 9.078125 0 
L 9.078125 75.984375 
L 18.109375 75.984375 
z
" id="DejaVuSans-62"/>
      <path d="M 56.203125 29.59375 
L 56.203125 25.203125 
L 14.890625 25.203125 
Q 15.484375 15.921875 20.484375 11.0625 
Q 25.484375 6.203125 34.421875 6.203125 
Q 39.59375 6.203125 44.453125 7.46875 
Q 49.3125 8.734375 54.109375 11.28125 
L 54.109375 2.78125 
Q 49.265625 0.734375 44.1875 -0.34375 
Q 39.109375 -1.421875 33.890625 -1.421875 
Q 20.796875 -1.421875 13.15625 6.1875 
Q 5.515625 13.8125 5.515625 26.8125 
Q 5.515625 40.234375 12.765625 48.109375 
Q 20.015625 56 32.328125 56 
Q 43.359375 56 49.78125 48.890625 
Q 56.203125 41.796875 56.203125 29.59375 
M 47.21875 32.234375 
Q 47.125 39.59375 43.09375 43.984375 
Q 39.0625 48.390625 32.421875 48.390625 
Q 24.90625 48.390625 20.390625 44.140625 
Q 15.875 39.890625 15.1875 32.171875 
z
" id="DejaVuSans-65"/>
      <path d="M 41.109375 46.296875 
Q 39.59375 47.171875 37.8125 47.578125 
Q 36.03125 48 33.890625 48 
Q 26.265625 48 22.1875 43.046875 
Q 18.109375 38.09375 18.109375 28.8125 
L 18.109375 0 
L 9.078125 0 
L 9.078125 54.6875 
L 18.109375 54.6875 
L 18.109375 46.1875 
Q 20.953125 51.171875 25.484375 53.578125 
Q 30.03125 56 36.53125 56 
Q 37.453125 56 38.578125 55.875 
Q 39.703125 55.765625 41.0625 55.515625 
z
" id="DejaVuSans-72"/>
      <path id="DejaVuSans-20"/>
      <path d="M 30.609375 48.390625 
Q 23.390625 48.390625 19.1875 42.75 
Q 14.984375 37.109375 14.984375 27.296875 
Q 14.984375 17.484375 19.15625 11.84375 
Q 23.34375 6.203125 30.609375 6.203125 
Q 37.796875 6.203125 41.984375 11.859375 
Q 46.1875 17.53125 46.1875 27.296875 
Q 46.1875 37.015625 41.984375 42.703125 
Q 37.796875 48.390625 30.609375 48.390625 
M 30.609375 56 
Q 42.328125 56 49.015625 48.375 
Q 55.71875 40.765625 55.71875 27.296875 
Q 55.71875 13.875 49.015625 6.21875 
Q 42.328125 -1.421875 30.609375 -1.421875 
Q 18.84375 -1.421875 12.171875 6.21875 
Q 5.515625 13.875 5.515625 27.296875 
Q 5.515625 40.765625 12.171875 48.375 
Q 18.84375 56 30.609375 56 
" id="DejaVuSans-6f"/>
      <path d="M 37.109375 75.984375 
L 37.109375 68.5 
L 28.515625 68.5 
Q 23.6875 68.5 21.796875 66.546875 
Q 19.921875 64.59375 19.921875 59.515625 
L 19.921875 54.6875 
L 34.71875 54.6875 
L 34.71875 47.703125 
L 19.921875 47.703125 
L 19.921875 0 
L 10.890625 0 
L 10.890625 47.703125 
L 2.296875 47.703125 
L 2.296875 54.6875 
L 10.890625 54.6875 
L 10.890625 58.5 
Q 10.890625 67.625 15.140625 71.796875 
Q 19.390625 75.984375 28.609375 75.984375 
z
" id="DejaVuSans-66"/>
      <path d="M 48.78125 52.59375 
L 48.78125 44.1875 
Q 44.96875 46.296875 41.140625 47.34375 
Q 37.3125 48.390625 33.40625 48.390625 
Q 24.65625 48.390625 19.8125 42.84375 
Q 14.984375 37.3125 14.984375 27.296875 
Q 14.984375 17.28125 19.8125 11.734375 
Q 24.65625 6.203125 33.40625 6.203125 
Q 37.3125 6.203125 41.140625 7.25 
Q 44.96875 8.296875 48.78125 10.40625 
L 48.78125 2.09375 
Q 45.015625 0.34375 40.984375 -0.53125 
Q 36.96875 -1.421875 32.421875 -1.421875 
Q 20.0625 -1.421875 12.78125 6.34375 
Q 5.515625 14.109375 5.515625 27.296875 
Q 5.515625 40.671875 12.859375 48.328125 
Q 20.21875 56 33.015625 56 
Q 37.15625 56 41.109375 55.140625 
Q 45.0625 54.296875 48.78125 52.59375 
" id="DejaVuSans-63"/>
      <path d="M 9.421875 75.984375 
L 18.40625 75.984375 
L 18.40625 0 
L 9.421875 0 
z
" id="DejaVuSans-6c"/>
      <path d="M 9.421875 54.6875 
L 18.40625 54.6875 
L 18.40625 0 
L 9.421875 0 
z
M 9.421875 75.984375 
L 18.40625 75.984375 
L 18.40625 64.59375 
L 9.421875 64.59375 
z
" id="DejaVuSans-69"/>
      <path d="M 54.890625 33.015625 
L 54.890625 0 
L 45.90625 0 
L 45.90625 32.71875 
Q 45.90625 40.484375 42.875 44.328125 
Q 39.84375 48.1875 33.796875 48.1875 
Q 26.515625 48.1875 22.3125 43.546875 
Q 18.109375 38.921875 18.109375 30.90625 
L 18.109375 0 
L 9.078125 0 
L 9.078125 54.6875 
L 18.109375 54.6875 
L 18.109375 46.1875 
Q 21.34375 51.125 25.703125 53.5625 
Q 30.078125 56 35.796875 56 
Q 45.21875 56 50.046875 50.171875 
Q 54.890625 44.34375 54.890625 33.015625 
" id="DejaVuSans-6e"/>
      <path d="M 18.3125 70.21875 
L 18.3125 54.6875 
L 36.8125 54.6875 
L 36.8125 47.703125 
L 18.3125 47.703125 
L 18.3125 18.015625 
Q 18.3125 11.328125 20.140625 9.421875 
Q 21.96875 7.515625 27.59375 7.515625 
L 36.8125 7.515625 
L 36.8125 0 
L 27.59375 0 
Q 17.1875 0 13.234375 3.875 
Q 9.28125 7.765625 9.28125 18.015625 
L 9.28125 47.703125 
L 2.6875 47.703125 
L 2.6875 54.6875 
L 9.28125 54.6875 
L 9.28125 70.21875 
z
" id="DejaVuSans-74"/>
      <path d="M 44.28125 53.078125 
L 44.28125 44.578125 
Q 40.484375 46.53125 36.375 47.5 
Q 32.28125 48.484375 27.875 48.484375 
Q 21.1875 48.484375 17.84375 46.4375 
Q 14.5 44.390625 14.5 40.28125 
Q 14.5 37.15625 16.890625 35.375 
Q 19.28125 33.59375 26.515625 31.984375 
L 29.59375 31.296875 
Q 39.15625 29.25 43.1875 25.515625 
Q 47.21875 21.78125 47.21875 15.09375 
Q 47.21875 7.46875 41.1875 3.015625 
Q 35.15625 -1.421875 24.609375 -1.421875 
Q 20.21875 -1.421875 15.453125 -0.5625 
Q 10.6875 0.296875 5.421875 2 
L 5.421875 11.28125 
Q 10.40625 8.6875 15.234375 7.390625 
Q 20.0625 6.109375 24.8125 6.109375 
Q 31.15625 6.109375 34.5625 8.28125 
Q 37.984375 10.453125 37.984375 14.40625 
Q 37.984375 18.0625 35.515625 20.015625 
Q 33.0625 21.96875 24.703125 23.78125 
L 21.578125 24.515625 
Q 13.234375 26.265625 9.515625 29.90625 
Q 5.8125 33.546875 5.8125 39.890625 
Q 5.8125 47.609375 11.28125 51.796875 
Q 16.75 56 26.8125 56 
Q 31.78125 56 36.171875 55.265625 
Q 40.578125 54.546875 44.28125 53.078125 
" id="DejaVuSans-73"/>
     </defs>
     <g transform="translate(191.738906 335.860562)scale(0.1 -0.1)">
      <use xlink:href="#DejaVuSans-4e"/>
      <use x="74.804688" xlink:href="#DejaVuSans-75"/>
      <use x="138.183594" xlink:href="#DejaVuSans-6d"/>
      <use x="235.595703" xlink:href="#DejaVuSans-62"/>
      <use x="299.072266" xlink:href="#DejaVuSans-65"/>
      <use x="360.595703" xlink:href="#DejaVuSans-72"/>
      <use x="401.708984" xlink:href="#DejaVuSans-20"/>
      <use x="433.496094" xlink:href="#DejaVuSans-6f"/>
      <use x="494.677734" xlink:href="#DejaVuSans-66"/>
      <use x="529.882812" xlink:href="#DejaVuSans-20"/>
      <use x="561.669922" xlink:href="#DejaVuSans-63"/>
      <use x="616.650391" xlink:href="#DejaVuSans-6c"/>
      <use x="644.433594" xlink:href="#DejaVuSans-69"/>
      <use x="672.216797" xlink:href="#DejaVuSans-65"/>
      <use x="733.740234" xlink:href="#DejaVuSans-6e"/>
      <use x="797.119141" xlink:href="#DejaVuSans-74"/>
      <use x="836.328125" xlink:href="#DejaVuSans-73"/>
     </g>
    </g>
   </g>
   <g id="matplotlib.axis_2">
    <g id="ytick_1">
     <g id="line2d_13">
      <path clip-path="url(#p941a91f304)" d="M 57.6 295.847085 
L 414.72 295.847085 
" style="fill:none;stroke:#b0b0b0;stroke-linecap:square;stroke-width:0.8;"/>
     </g>
     <g id="line2d_14">
      <defs>
       <path d="M 0 0 
L -3.5 0 
" id="mf307e1dbe4" style="stroke:#000000;stroke-width:0.8;"/>
      </defs>
      <g>
       <use style="stroke:#000000;stroke-width:0.8;" x="57.6" xlink:href="#mf307e1dbe4" y="295.847085"/>
      </g>
     </g>
     <g id="text_8">
      <!-- 0 -->
      <g transform="translate(44.2375 299.646304)scale(0.1 -0.1)">
       <use xlink:href="#DejaVuSans-30"/>
      </g>
     </g>
    </g>
    <g id="ytick_2">
     <g id="line2d_15">
      <path clip-path="url(#p941a91f304)" d="M 57.6 258.789794 
L 414.72 258.789794 
" style="fill:none;stroke:#b0b0b0;stroke-linecap:square;stroke-width:0.8;"/>
     </g>
     <g id="line2d_16">
      <g>
       <use style="stroke:#000000;stroke-width:0.8;" x="57.6" xlink:href="#mf307e1dbe4" y="258.789794"/>
      </g>
     </g>
     <g id="text_9">
      <!-- 100 -->
      <g transform="translate(31.5125 262.589013)scale(0.1 -0.1)">
       <use xlink:href="#DejaVuSans-31"/>
       <use x="63.623047" xlink:href="#DejaVuSans-30"/>
       <use x="127.246094" xlink:href="#DejaVuSans-30"/>
      </g>
     </g>
    </g>
    <g id="ytick_3">
     <g id="line2d_17">
      <path clip-path="url(#p941a91f304)" d="M 57.6 221.732503 
L 414.72 221.732503 
" style="fill:none;stroke:#b0b0b0;stroke-linecap:square;stroke-width:0.8;"/>
     </g>
     <g id="line2d_18">
      <g>
       <use style="stroke:#000000;stroke-width:0.8;" x="57.6" xlink:href="#mf307e1dbe4" y="221.732503"/>
      </g>
     </g>
     <g id="text_10">
      <!-- 200 -->
      <g transform="translate(31.5125 225.531722)scale(0.1 -0.1)">
       <use xlink:href="#DejaVuSans-32"/>
       <use x="63.623047" xlink:href="#DejaVuSans-30"/>
       <use x="127.246094" xlink:href="#DejaVuSans-30"/>
      </g>
     </g>
    </g>
    <g id="ytick_4">
     <g id="line2d_19">
      <path clip-path="url(#p941a91f304)" d="M 57.6 184.675213 
L 414.72 184.675213 
" style="fill:none;stroke:#b0b0b0;stroke-linecap:square;stroke-width:0.8;"/>
     </g>
     <g id="line2d_20">
      <g>
       <use style="stroke:#000000;stroke-width:0.8;" x="57.6" xlink:href="#mf307e1dbe4" y="184.675213"/>
      </g>
     </g>
     <g id="text_11">
      <!-- 300 -->
      <defs>
       <path d="M 40.578125 39.3125 
Q 47.65625 37.796875 51.625 33 
Q 55.609375 28.21875 55.609375 21.1875 
Q 55.609375 10.40625 48.1875 4.484375 
Q 40.765625 -1.421875 27.09375 -1.421875 
Q 22.515625 -1.421875 17.65625 -0.515625 
Q 12.796875 0.390625 7.625 2.203125 
L 7.625 11.71875 
Q 11.71875 9.328125 16.59375 8.109375 
Q 21.484375 6.890625 26.8125 6.890625 
Q 36.078125 6.890625 40.9375 10.546875 
Q 45.796875 14.203125 45.796875 21.1875 
Q 45.796875 27.640625 41.28125 31.265625 
Q 36.765625 34.90625 28.71875 34.90625 
L 20.21875 34.90625 
L 20.21875 43.015625 
L 29.109375 43.015625 
Q 36.375 43.015625 40.234375 45.921875 
Q 44.09375 48.828125 44.09375 54.296875 
Q 44.09375 59.90625 40.109375 62.90625 
Q 36.140625 65.921875 28.71875 65.921875 
Q 24.65625 65.921875 20.015625 65.03125 
Q 15.375 64.15625 9.8125 62.3125 
L 9.8125 71.09375 
Q 15.4375 72.65625 20.34375 73.4375 
Q 25.25 74.21875 29.59375 74.21875 
Q 40.828125 74.21875 47.359375 69.109375 
Q 53.90625 64.015625 53.90625 55.328125 
Q 53.90625 49.265625 50.4375 45.09375 
Q 46.96875 40.921875 40.578125 39.3125 
" id="DejaVuSans-33"/>
      </defs>
      <g transform="translate(31.5125 188.474431)scale(0.1 -0.1)">
       <use xlink:href="#DejaVuSans-33"/>
       <use x="63.623047" xlink:href="#DejaVuSans-30"/>
       <use x="127.246094" xlink:href="#DejaVuSans-30"/>
      </g>
     </g>
    </g>
    <g id="ytick_5">
     <g id="line2d_21">
      <path clip-path="url(#p941a91f304)" d="M 57.6 147.617922 
L 414.72 147.617922 
" style="fill:none;stroke:#b0b0b0;stroke-linecap:square;stroke-width:0.8;"/>
     </g>
     <g id="line2d_22">
      <g>
       <use style="stroke:#000000;stroke-width:0.8;" x="57.6" xlink:href="#mf307e1dbe4" y="147.617922"/>
      </g>
     </g>
     <g id="text_12">
      <!-- 400 -->
      <g transform="translate(31.5125 151.417141)scale(0.1 -0.1)">
       <use xlink:href="#DejaVuSans-34"/>
       <use x="63.623047" xlink:href="#DejaVuSans-30"/>
       <use x="127.246094" xlink:href="#DejaVuSans-30"/>
      </g>
     </g>
    </g>
    <g id="ytick_6">
     <g id="line2d_23">
      <path clip-path="url(#p941a91f304)" d="M 57.6 110.560631 
L 414.72 110.560631 
" style="fill:none;stroke:#b0b0b0;stroke-linecap:square;stroke-width:0.8;"/>
     </g>
     <g id="line2d_24">
      <g>
       <use style="stroke:#000000;stroke-width:0.8;" x="57.6" xlink:href="#mf307e1dbe4" y="110.560631"/>
      </g>
     </g>
     <g id="text_13">
      <!-- 500 -->
      <defs>
       <path d="M 10.796875 72.90625 
L 49.515625 72.90625 
L 49.515625 64.59375 
L 19.828125 64.59375 
L 19.828125 46.734375 
Q 21.96875 47.46875 24.109375 47.828125 
Q 26.265625 48.1875 28.421875 48.1875 
Q 40.625 48.1875 47.75 41.5 
Q 54.890625 34.8125 54.890625 23.390625 
Q 54.890625 11.625 47.5625 5.09375 
Q 40.234375 -1.421875 26.90625 -1.421875 
Q 22.3125 -1.421875 17.546875 -0.640625 
Q 12.796875 0.140625 7.71875 1.703125 
L 7.71875 11.625 
Q 12.109375 9.234375 16.796875 8.0625 
Q 21.484375 6.890625 26.703125 6.890625 
Q 35.15625 6.890625 40.078125 11.328125 
Q 45.015625 15.765625 45.015625 23.390625 
Q 45.015625 31 40.078125 35.4375 
Q 35.15625 39.890625 26.703125 39.890625 
Q 22.75 39.890625 18.8125 39.015625 
Q 14.890625 38.140625 10.796875 36.28125 
z
" id="DejaVuSans-35"/>
      </defs>
      <g transform="translate(31.5125 114.35985)scale(0.1 -0.1)">
       <use xlink:href="#DejaVuSans-35"/>
       <use x="63.623047" xlink:href="#DejaVuSans-30"/>
       <use x="127.246094" xlink:href="#DejaVuSans-30"/>
      </g>
     </g>
    </g>
    <g id="ytick_7">
     <g id="line2d_25">
      <path clip-path="url(#p941a91f304)" d="M 57.6 73.50334 
L 414.72 73.50334 
" style="fill:none;stroke:#b0b0b0;stroke-linecap:square;stroke-width:0.8;"/>
     </g>
     <g id="line2d_26">
      <g>
       <use style="stroke:#000000;stroke-width:0.8;" x="57.6" xlink:href="#mf307e1dbe4" y="73.50334"/>
      </g>
     </g>
     <g id="text_14">
      <!-- 600 -->
      <g transform="translate(31.5125 77.302559)scale(0.1 -0.1)">
       <use xlink:href="#DejaVuSans-36"/>
       <use x="63.623047" xlink:href="#DejaVuSans-30"/>
       <use x="127.246094" xlink:href="#DejaVuSans-30"/>
      </g>
     </g>
    </g>
    <g id="text_15">
     <!-- Successful download requests per second -->
     <defs>
      <path d="M 53.515625 70.515625 
L 53.515625 60.890625 
Q 47.90625 63.578125 42.921875 64.890625 
Q 37.9375 66.21875 33.296875 66.21875 
Q 25.25 66.21875 20.875 63.09375 
Q 16.5 59.96875 16.5 54.203125 
Q 16.5 49.359375 19.40625 46.890625 
Q 22.3125 44.4375 30.421875 42.921875 
L 36.375 41.703125 
Q 47.40625 39.59375 52.65625 34.296875 
Q 57.90625 29 57.90625 20.125 
Q 57.90625 9.515625 50.796875 4.046875 
Q 43.703125 -1.421875 29.984375 -1.421875 
Q 24.8125 -1.421875 18.96875 -0.25 
Q 13.140625 0.921875 6.890625 3.21875 
L 6.890625 13.375 
Q 12.890625 10.015625 18.65625 8.296875 
Q 24.421875 6.59375 29.984375 6.59375 
Q 38.421875 6.59375 43.015625 9.90625 
Q 47.609375 13.234375 47.609375 19.390625 
Q 47.609375 24.75 44.3125 27.78125 
Q 41.015625 30.8125 33.5 32.328125 
L 27.484375 33.5 
Q 16.453125 35.6875 11.515625 40.375 
Q 6.59375 45.0625 6.59375 53.421875 
Q 6.59375 63.09375 13.40625 68.65625 
Q 20.21875 74.21875 32.171875 74.21875 
Q 37.3125 74.21875 42.625 73.28125 
Q 47.953125 72.359375 53.515625 70.515625 
" id="DejaVuSans-53"/>
      <path d="M 45.40625 46.390625 
L 45.40625 75.984375 
L 54.390625 75.984375 
L 54.390625 0 
L 45.40625 0 
L 45.40625 8.203125 
Q 42.578125 3.328125 38.25 0.953125 
Q 33.9375 -1.421875 27.875 -1.421875 
Q 17.96875 -1.421875 11.734375 6.484375 
Q 5.515625 14.40625 5.515625 27.296875 
Q 5.515625 40.1875 11.734375 48.09375 
Q 17.96875 56 27.875 56 
Q 33.9375 56 38.25 53.625 
Q 42.578125 51.265625 45.40625 46.390625 
M 14.796875 27.296875 
Q 14.796875 17.390625 18.875 11.75 
Q 22.953125 6.109375 30.078125 6.109375 
Q 37.203125 6.109375 41.296875 11.75 
Q 45.40625 17.390625 45.40625 27.296875 
Q 45.40625 37.203125 41.296875 42.84375 
Q 37.203125 48.484375 30.078125 48.484375 
Q 22.953125 48.484375 18.875 42.84375 
Q 14.796875 37.203125 14.796875 27.296875 
" id="DejaVuSans-64"/>
      <path d="M 4.203125 54.6875 
L 13.1875 54.6875 
L 24.421875 12.015625 
L 35.59375 54.6875 
L 46.1875 54.6875 
L 57.421875 12.015625 
L 68.609375 54.6875 
L 77.59375 54.6875 
L 63.28125 0 
L 52.6875 0 
L 40.921875 44.828125 
L 29.109375 0 
L 18.5 0 
z
" id="DejaVuSans-77"/>
      <path d="M 34.28125 27.484375 
Q 23.390625 27.484375 19.1875 25 
Q 14.984375 22.515625 14.984375 16.5 
Q 14.984375 11.71875 18.140625 8.90625 
Q 21.296875 6.109375 26.703125 6.109375 
Q 34.1875 6.109375 38.703125 11.40625 
Q 43.21875 16.703125 43.21875 25.484375 
L 43.21875 27.484375 
z
M 52.203125 31.203125 
L 52.203125 0 
L 43.21875 0 
L 43.21875 8.296875 
Q 40.140625 3.328125 35.546875 0.953125 
Q 30.953125 -1.421875 24.3125 -1.421875 
Q 15.921875 -1.421875 10.953125 3.296875 
Q 6 8.015625 6 15.921875 
Q 6 25.140625 12.171875 29.828125 
Q 18.359375 34.515625 30.609375 34.515625 
L 43.21875 34.515625 
L 43.21875 35.40625 
Q 43.21875 41.609375 39.140625 45 
Q 35.0625 48.390625 27.6875 48.390625 
Q 23 48.390625 18.546875 47.265625 
Q 14.109375 46.140625 10.015625 43.890625 
L 10.015625 52.203125 
Q 14.9375 54.109375 19.578125 55.046875 
Q 24.21875 56 28.609375 56 
Q 40.484375 56 46.34375 49.84375 
Q 52.203125 43.703125 52.203125 31.203125 
" id="DejaVuSans-61"/>
      <path d="M 14.796875 27.296875 
Q 14.796875 17.390625 18.875 11.75 
Q 22.953125 6.109375 30.078125 6.109375 
Q 37.203125 6.109375 41.296875 11.75 
Q 45.40625 17.390625 45.40625 27.296875 
Q 45.40625 37.203125 41.296875 42.84375 
Q 37.203125 48.484375 30.078125 48.484375 
Q 22.953125 48.484375 18.875 42.84375 
Q 14.796875 37.203125 14.796875 27.296875 
M 45.40625 8.203125 
Q 42.578125 3.328125 38.25 0.953125 
Q 33.9375 -1.421875 27.875 -1.421875 
Q 17.96875 -1.421875 11.734375 6.484375 
Q 5.515625 14.40625 5.515625 27.296875 
Q 5.515625 40.1875 11.734375 48.09375 
Q 17.96875 56 27.875 56 
Q 33.9375 56 38.25 53.625 
Q 42.578125 51.265625 45.40625 46.390625 
L 45.40625 54.6875 
L 54.390625 54.6875 
L 54.390625 -20.796875 
L 45.40625 -20.796875 
z
" id="DejaVuSans-71"/>
      <path d="M 18.109375 8.203125 
L 18.109375 -20.796875 
L 9.078125 -20.796875 
L 9.078125 54.6875 
L 18.109375 54.6875 
L 18.109375 46.390625 
Q 20.953125 51.265625 25.265625 53.625 
Q 29.59375 56 35.59375 56 
Q 45.5625 56 51.78125 48.09375 
Q 58.015625 40.1875 58.015625 27.296875 
Q 58.015625 14.40625 51.78125 6.484375 
Q 45.5625 -1.421875 35.59375 -1.421875 
Q 29.59375 -1.421875 25.265625 0.953125 
Q 20.953125 3.328125 18.109375 8.203125 
M 48.6875 27.296875 
Q 48.6875 37.203125 44.609375 42.84375 
Q 40.53125 48.484375 33.40625 48.484375 
Q 26.265625 48.484375 22.1875 42.84375 
Q 18.109375 37.203125 18.109375 27.296875 
Q 18.109375 17.390625 22.1875 11.75 
Q 26.265625 6.109375 33.40625 6.109375 
Q 40.53125 6.109375 44.609375 11.75 
Q 48.6875 17.390625 48.6875 27.296875 
" id="DejaVuSans-70"/>
     </defs>
     <g transform="translate(25.432812 279.366281)rotate(-90)scale(0.1 -0.1)">
      <use xlink:href="#DejaVuSans-53"/>
      <use x="63.476562" xlink:href="#DejaVuSans-75"/>
      <use x="126.855469" xlink:href="#DejaVuSans-63"/>
      <use x="181.835938" xlink:href="#DejaVuSans-63"/>
      <use x="236.816406" xlink:href="#DejaVuSans-65"/>
      <use x="298.339844" xlink:href="#DejaVuSans-73"/>
      <use x="350.439453" xlink:href="#DejaVuSans-73"/>
      <use x="402.539062" xlink:href="#DejaVuSans-66"/>
      <use x="437.744141" xlink:href="#DejaVuSans-75"/>
      <use x="501.123047" xlink:href="#DejaVuSans-6c"/>
      <use x="528.90625" xlink:href="#DejaVuSans-20"/>
      <use x="560.693359" xlink:href="#DejaVuSans-64"/>
      <use x="624.169922" xlink:href="#DejaVuSans-6f"/>
      <use x="685.351562" xlink:href="#DejaVuSans-77"/>
      <use x="767.138672" xlink:href="#DejaVuSans-6e"/>
      <use x="830.517578" xlink:href="#DejaVuSans-6c"/>
      <use x="858.300781" xlink:href="#DejaVuSans-6f"/>
      <use x="919.482422" xlink:href="#DejaVuSans-61"/>
      <use x="980.761719" xlink:href="#DejaVuSans-64"/>
      <use x="1044.238281" xlink:href="#DejaVuSans-20"/>
      <use x="1076.025391" xlink:href="#DejaVuSans-72"/>
      <use x="1117.107422" xlink:href="#DejaVuSans-65"/>
      <use x="1178.630859" xlink:href="#DejaVuSans-71"/>
      <use x="1242.107422" xlink:href="#DejaVuSans-75"/>
      <use x="1305.486328" xlink:href="#DejaVuSans-65"/>
      <use x="1367.009766" xlink:href="#DejaVuSans-73"/>
      <use x="1419.109375" xlink:href="#DejaVuSans-74"/>
      <use x="1458.318359" xlink:href="#DejaVuSans-73"/>
      <use x="1510.417969" xlink:href="#DejaVuSans-20"/>
      <use x="1542.205078" xlink:href="#DejaVuSans-70"/>
      <use x="1605.681641" xlink:href="#DejaVuSans-65"/>
      <use x="1667.205078" xlink:href="#DejaVuSans-72"/>
      <use x="1708.318359" xlink:href="#DejaVuSans-20"/>
      <use x="1740.105469" xlink:href="#DejaVuSans-73"/>
      <use x="1792.205078" xlink:href="#DejaVuSans-65"/>
      <use x="1853.728516" xlink:href="#DejaVuSans-63"/>
      <use x="1908.708984" xlink:href="#DejaVuSans-6f"/>
      <use x="1969.890625" xlink:href="#DejaVuSans-6e"/>
      <use x="2033.269531" xlink:href="#DejaVuSans-64"/>
     </g>
    </g>
   </g>
   <g id="line2d_27">
    <path clip-path="url(#p941a91f304)" d="M 57.6 295.482071 
L 57.95712 295.488 
L 61.88544 291.630707 
L 62.59968 290.699086 
L 62.9568 290.530105 
L 63.31392 290.160644 
L 63.67104 289.614419 
L 64.02816 289.390964 
L 64.38528 288.996304 
L 64.7424 288.813241 
L 65.09952 288.175485 
L 65.45664 288.028367 
L 66.17088 286.991134 
L 66.528 287.030044 
L 67.24224 286.087306 
L 68.67072 285.089354 
L 69.02784 284.601309 
L 69.38496 283.872392 
L 69.74208 283.49552 
L 70.0992 282.893339 
L 70.45632 282.612815 
L 71.17056 282.427899 
L 71.8848 281.28357 
L 72.24192 281.615974 
L 72.59904 280.974883 
L 72.95616 280.638773 
L 73.31328 279.694924 
L 73.6704 279.631185 
L 74.02752 279.734946 
L 74.38464 279.633409 
L 75.456 277.883934 
L 75.81312 277.573764 
L 76.17024 276.798526 
L 76.52736 277.200598 
L 76.88448 276.179299 
L 77.2416 275.930644 
L 77.95584 275.043863 
L 78.31296 274.69219 
L 78.67008 274.497639 
L 79.0272 273.674967 
L 79.38432 274.267513 
L 80.45568 272.635139 
L 80.8128 271.810244 
L 81.16992 272.192305 
L 81.52704 271.772816 
L 81.88416 271.087256 
L 82.24128 271.317382 
L 82.95552 270.118579 
L 83.31264 270.476923 
L 84.02688 268.474717 
L 84.384 268.849737 
L 84.74112 268.992408 
L 85.09824 268.00409 
L 85.45536 268.435437 
L 85.81248 266.874954 
L 86.1696 267.305189 
L 86.52672 266.914976 
L 86.88384 265.847355 
L 87.24096 265.47493 
L 87.59808 266.379498 
L 87.9552 264.50477 
L 88.31232 264.127156 
L 88.66944 265.446395 
L 89.02656 263.78697 
L 89.38368 263.26335 
L 89.7408 262.953181 
L 90.09792 262.870914 
L 90.45504 263.587231 
L 90.81216 262.476624 
L 91.16928 262.564079 
L 92.24064 260.324337 
L 92.59776 259.864085 
L 92.95488 260.428838 
L 93.312 260.465525 
L 93.66912 259.011397 
L 94.02624 260.504065 
L 95.0976 257.214859 
L 95.45472 257.393846 
L 95.81184 258.183166 
L 96.16896 255.855969 
L 96.52608 255.587674 
L 96.8832 256.736079 
L 97.24032 256.176144 
L 98.31168 256.52337 
L 98.6688 254.319944 
L 99.02592 255.237853 
L 99.38304 253.676629 
L 100.09728 253.239724 
L 100.4544 253.762602 
L 100.81152 252.891015 
L 101.16864 253.067778 
L 101.52576 252.927701 
L 101.88288 251.333867 
L 102.24 251.432069 
L 102.59712 250.351108 
L 102.95424 251.169333 
L 103.66848 248.809525 
L 104.0256 247.810831 
L 104.38272 249.989799 
L 104.73984 247.890133 
L 105.09696 249.88678 
L 105.45408 247.872716 
L 105.8112 249.080043 
L 106.16832 246.447493 
L 106.52544 246.50382 
L 106.88256 246.282959 
L 107.23968 245.862729 
L 107.5968 245.205333 
L 107.95392 243.727858 
L 108.31104 243.667826 
L 109.02528 245.271295 
L 109.3824 244.344492 
L 110.45376 243.824207 
L 110.81088 242.970037 
L 111.168 240.362315 
L 111.52512 240.051034 
L 111.88224 241.046022 
L 112.23936 240.292277 
L 112.59648 240.368615 
L 112.9536 241.339516 
L 113.31072 240.486087 
L 113.66784 239.015283 
L 114.02496 238.218551 
L 114.38208 240.897793 
L 114.7392 237.248391 
L 115.09632 239.053822 
L 115.45344 238.112938 
L 115.81056 236.4713 
L 116.16768 237.361786 
L 116.5248 238.819991 
L 116.88192 237.324729 
L 117.23904 236.396073 
L 117.59616 236.998625 
L 117.95328 235.271755 
L 118.3104 234.860419 
L 118.66752 235.854666 
L 119.38176 233.016819 
L 119.73888 234.305672 
L 120.096 233.579719 
L 120.45312 232.598442 
L 120.81024 230.443931 
L 121.52448 229.992944 
L 121.8816 232.68775 
L 122.23872 233.111686 
L 122.59584 232.439467 
L 122.95296 232.413897 
L 123.31008 228.745225 
L 123.6672 229.105052 
L 124.02432 230.949393 
L 124.73856 228.354271 
L 125.4528 227.646106 
L 125.80992 227.822499 
L 126.16704 225.972228 
L 126.52416 228.066336 
L 126.88128 227.805823 
L 127.2384 228.582914 
L 127.59552 223.763984 
L 127.95264 223.733227 
L 128.30976 224.214971 
L 128.66688 227.10507 
L 129.024 224.461402 
L 129.38112 224.876073 
L 129.73824 224.659288 
L 130.09536 221.073625 
L 130.45248 221.461985 
L 130.8096 221.118835 
L 131.16672 222.955765 
L 131.52384 221.189614 
L 131.88096 222.571851 
L 132.23808 219.611715 
L 132.5952 220.663401 
L 132.95232 222.412505 
L 133.66656 218.898732 
L 134.02368 222.012286 
L 134.3808 220.351008 
L 134.73792 220.896491 
L 135.09504 217.971559 
L 135.45216 219.818124 
L 135.80928 215.589146 
L 136.1664 216.923208 
L 136.52352 217.665466 
L 136.88064 217.207808 
L 137.23776 217.970077 
L 137.59488 213.379049 
L 137.952 214.948796 
L 138.30912 214.935085 
L 139.02336 215.484644 
L 139.38048 216.843165 
L 140.09472 213.300858 
L 140.45184 210.403719 
L 140.80896 209.503598 
L 141.16608 212.246949 
L 141.5232 209.554737 
L 141.88032 211.47134 
L 142.23744 210.627916 
L 142.59456 212.460028 
L 142.95168 212.686448 
L 143.3088 207.426166 
L 143.66592 208.383356 
L 144.02304 210.418171 
L 144.38016 209.239379 
L 144.73728 211.066674 
L 145.0944 208.692043 
L 145.45152 209.87417 
L 145.80864 207.141195 
L 146.16576 207.213086 
L 146.52288 204.02653 
L 146.88 204.851055 
L 147.23712 206.772475 
L 147.59424 208.006112 
L 147.95136 202.216652 
L 148.30848 203.559979 
L 148.6656 206.245891 
L 149.02272 202.786593 
L 149.37984 206.342981 
L 150.4512 200.78624 
L 150.80832 203.717843 
L 151.16544 200.571679 
L 151.52256 200.323765 
L 152.2368 197.652305 
L 152.59392 197.950987 
L 152.95104 199.314325 
L 153.30816 196.631006 
L 153.66528 200.265956 
L 154.0224 197.90763 
L 154.37952 202.318189 
L 154.73664 201.422514 
L 155.09376 196.146668 
L 155.45088 198.119598 
L 155.808 194.8026 
L 156.16512 197.743096 
L 156.52224 198.077352 
L 156.87936 199.909465 
L 157.23648 198.739196 
L 157.5936 194.904878 
L 157.95072 198.669899 
L 158.30784 193.166891 
L 158.66496 196.040313 
L 159.02208 196.674734 
L 159.3792 191.727215 
L 159.73632 192.096306 
L 160.45056 191.848763 
L 160.80768 189.366295 
L 161.1648 188.877509 
L 161.52192 191.950671 
L 161.87904 193.540428 
L 162.23616 189.883615 
L 162.59328 191.085383 
L 162.9504 191.731662 
L 163.30752 193.444079 
L 163.66464 193.383305 
L 164.02176 192.597691 
L 164.37888 191.080195 
L 164.736 186.301657 
L 165.09312 188.161933 
L 165.45024 186.268676 
L 165.80736 183.720617 
L 166.16448 184.391724 
L 166.5216 183.194033 
L 166.87872 189.793936 
L 167.23584 183.498644 
L 167.59296 187.678706 
L 167.95008 188.353519 
L 168.66432 183.156234 
L 169.02144 183.182545 
L 169.37856 186.897168 
L 169.73568 185.661307 
L 170.0928 181.388231 
L 170.44992 181.746204 
L 171.16416 178.450329 
L 171.52128 180.563706 
L 171.8784 177.695472 
L 172.23552 182.405454 
L 172.59264 176.764963 
L 172.94976 178.221685 
L 173.30688 181.521637 
L 173.664 182.82976 
L 174.02112 175.615446 
L 174.37824 182.634838 
L 174.73536 178.510732 
L 175.09248 180.431782 
L 175.4496 179.387508 
L 175.80672 180.305417 
L 176.16384 174.590812 
L 176.52096 172.748694 
L 176.87808 180.150517 
L 177.2352 179.934473 
L 177.59232 175.204481 
L 177.94944 175.684743 
L 178.30656 172.285478 
L 178.66368 172.790569 
L 179.0208 178.565948 
L 179.37792 170.00349 
L 179.73504 169.341647 
L 180.09216 172.51301 
L 180.44928 172.760182 
L 180.8064 169.574367 
L 181.16352 168.759847 
L 181.52064 174.981396 
L 181.87776 169.911959 
L 182.23488 171.65921 
L 182.592 172.656422 
L 182.94912 169.85489 
L 183.30624 168.628665 
L 183.66336 173.440924 
L 184.02048 168.080217 
L 184.3776 169.478388 
L 184.73472 164.892919 
L 185.09184 168.618289 
L 185.44896 167.444684 
L 185.80608 168.827292 
L 186.1632 162.917024 
L 186.52032 167.529545 
L 186.87744 163.408775 
L 187.23456 164.944799 
L 187.59168 161.2324 
L 187.9488 169.061864 
L 188.30592 168.211399 
L 188.66304 168.395945 
L 189.02016 160.860345 
L 189.37728 159.6608 
L 189.7344 161.297621 
L 190.09152 160.173673 
L 190.44864 165.897172 
L 190.80576 157.875009 
L 191.16288 160.172932 
L 191.52 157.144981 
L 191.87712 163.085635 
L 192.23424 165.71522 
L 192.94848 159.165344 
L 193.3056 159.573716 
L 193.66272 163.602955 
L 194.01984 160.283363 
L 194.37696 160.405281 
L 194.73408 159.0853 
L 195.0912 162.204783 
L 195.44832 161.276869 
L 195.80544 162.253328 
L 196.16256 156.050308 
L 196.51968 154.973794 
L 196.8768 161.237959 
L 197.23392 159.361377 
L 197.59104 155.595615 
L 197.94816 155.288781 
L 198.30528 160.041379 
L 198.6624 150.24936 
L 199.01952 152.633997 
L 199.37664 151.819107 
L 199.73376 148.792638 
L 200.09088 156.786266 
L 200.448 150.056292 
L 200.80512 154.601368 
L 201.16224 149.223244 
L 201.51936 147.122836 
L 201.87648 152.59101 
L 202.2336 155.083484 
L 202.59072 147.521943 
L 202.94784 145.287759 
L 203.30496 151.850235 
L 203.66208 152.929343 
L 204.0192 150.314581 
L 204.37632 144.042634 
L 204.73344 143.951103 
L 205.09056 149.785403 
L 205.44768 147.58457 
L 205.8048 150.111507 
L 206.16192 147.936615 
L 206.51904 144.184564 
L 206.87616 147.453387 
L 207.5904 141.503098 
L 207.94752 140.545908 
L 208.30464 147.335916 
L 208.66176 149.387037 
L 209.01888 147.523055 
L 209.376 141.771393 
L 209.73312 147.232155 
L 210.09024 145.764687 
L 210.44736 139.195911 
L 210.80448 142.146042 
L 211.1616 141.330411 
L 211.51872 144.179746 
L 211.87584 145.508991 
L 212.23296 137.197412 
L 212.59008 143.270731 
L 212.9472 135.494259 
L 213.30432 141.82105 
L 213.66144 133.906724 
L 214.01856 142.773422 
L 214.37568 139.895553 
L 214.7328 138.193512 
L 215.08992 142.891635 
L 215.44704 141.868483 
L 215.80416 133.142603 
L 216.16128 138.753077 
L 216.5184 131.103711 
L 217.23264 139.048053 
L 217.94688 135.17853 
L 218.304 134.073482 
L 218.66112 137.738448 
L 219.01824 131.384976 
L 219.37536 139.552032 
L 219.73248 138.01786 
L 220.0896 131.697739 
L 220.44672 135.903 
L 220.80384 138.23131 
L 221.16096 130.508571 
L 221.51808 132.719409 
L 222.23232 126.483778 
L 222.58944 126.823594 
L 222.94656 130.312908 
L 223.30368 125.104877 
L 223.6608 124.471567 
L 224.01792 124.224025 
L 224.37504 128.107629 
L 224.73216 129.739261 
L 225.08928 128.106888 
L 225.4464 132.150579 
L 225.80352 121.942407 
L 226.16064 129.323478 
L 226.51776 121.75638 
L 226.87488 132.134645 
L 227.232 127.698516 
L 227.58912 120.343385 
L 227.94624 119.591122 
L 228.30336 119.965401 
L 228.66048 126.021674 
L 229.0176 128.767249 
L 229.37472 122.518278 
L 229.73184 120.562023 
L 230.08896 127.143028 
L 230.44608 121.588881 
L 230.8032 119.477727 
L 231.16032 125.789325 
L 231.51744 122.175498 
L 231.87456 128.828023 
L 232.23168 123.616656 
L 232.5888 125.244582 
L 232.94592 118.575382 
L 233.30304 127.277545 
L 233.66016 127.289404 
L 234.01728 128.222136 
L 234.3744 126.405587 
L 234.73152 122.716534 
L 235.08864 123.193832 
L 235.44576 119.724158 
L 235.80288 122.16438 
L 236.16 117.94022 
L 236.51712 121.830494 
L 236.87424 118.06955 
L 237.23136 117.328033 
L 237.58848 123.329091 
L 237.9456 122.527913 
L 238.30272 116.755128 
L 238.65984 114.276366 
L 239.01696 113.900975 
L 239.7312 124.277017 
L 240.08832 125.395406 
L 240.44544 113.652321 
L 240.80256 115.200574 
L 241.15968 125.274228 
L 241.5168 124.613497 
L 241.87392 124.762097 
L 242.23104 114.282665 
L 242.58816 117.604481 
L 242.94528 111.909887 
L 243.3024 111.985484 
L 243.65952 123.553288 
L 244.01664 114.076627 
L 244.37376 121.140117 
L 244.73088 121.432499 
L 245.088 120.922591 
L 245.44512 115.705665 
L 245.80224 115.126089 
L 246.15936 118.845159 
L 246.51648 118.983383 
L 246.8736 116.05141 
L 247.23072 116.018799 
L 247.58784 114.644344 
L 247.94496 121.811224 
L 248.30208 111.524491 
L 248.6592 122.2548 
L 249.01632 121.758603 
L 249.73056 115.670461 
L 250.08768 113.215786 
L 250.4448 114.325652 
L 250.80192 113.744223 
L 251.15904 117.143488 
L 251.51616 111.172817 
L 251.87328 109.733142 
L 252.2304 110.728501 
L 252.58752 109.90657 
L 252.94464 109.49264 
L 253.30176 118.452722 
L 253.65888 115.759769 
L 254.016 111.952132 
L 254.37312 112.546161 
L 254.73024 116.572065 
L 255.08736 116.628021 
L 255.44448 107.742424 
L 255.8016 118.506826 
L 256.15872 115.044563 
L 256.51584 108.704431 
L 256.87296 106.027783 
L 257.23008 115.268389 
L 257.5872 111.366998 
L 257.94432 115.958025 
L 258.30144 106.631817 
L 259.01568 114.559483 
L 259.3728 104.836762 
L 259.72992 117.076044 
L 260.08704 106.616994 
L 260.44416 107.208058 
L 260.80128 107.1962 
L 261.1584 113.122772 
L 261.51552 105.560861 
L 261.87264 108.455036 
L 262.22976 113.508538 
L 262.58688 112.506509 
L 262.944 103.492694 
L 263.30112 113.616375 
L 263.65824 105.022419 
L 264.01536 116.244849 
L 264.37248 115.175005 
L 264.7296 112.154836 
L 265.08672 112.273048 
L 265.44384 106.440231 
L 265.80096 107.003131 
L 266.15808 104.715955 
L 266.5152 114.545772 
L 266.87232 104.53771 
L 267.22944 104.571432 
L 267.58656 113.07645 
L 268.3008 110.744435 
L 268.65792 112.135566 
L 269.01504 111.139095 
L 269.37216 101.201442 
L 269.72928 102.466578 
L 270.44352 112.305288 
L 270.80064 102.478065 
L 271.15776 100.758236 
L 271.51488 103.169184 
L 271.872 110.832632 
L 272.22912 100.357647 
L 272.58624 109.503016 
L 272.94336 109.904717 
L 273.30048 107.110227 
L 273.6576 110.641786 
L 274.01472 100.061189 
L 274.37184 101.839568 
L 274.72896 102.570338 
L 275.08608 102.486588 
L 275.4432 101.295938 
L 275.80032 103.580149 
L 276.15744 100.17199 
L 276.51456 111.238409 
L 276.87168 104.569579 
L 277.2288 110.669579 
L 277.58592 100.544786 
L 277.94304 102.673357 
L 278.30016 109.857654 
L 278.65728 98.764554 
L 279.37152 104.121556 
L 279.72864 101.502347 
L 280.08576 100.443991 
L 280.44288 99.957799 
L 281.15712 106.500264 
L 281.51424 98.538505 
L 281.87136 100.13938 
L 282.22848 95.59912 
L 282.5856 109.299571 
L 282.94272 102.568856 
L 283.29984 107.860637 
L 283.65696 101.443796 
L 284.01408 101.450837 
L 284.3712 98.499965 
L 284.72832 103.523081 
L 285.08544 95.5213 
L 285.44256 102.977227 
L 285.79968 99.371182 
L 286.1568 101.258139 
L 286.51392 97.052507 
L 286.87104 100.667817 
L 287.22816 106.72409 
L 287.58528 97.384541 
L 287.9424 96.895755 
L 288.29952 106.921605 
L 288.65664 96.754937 
L 289.01376 97.956705 
L 289.37088 102.970927 
L 289.728 102.9272 
L 290.08512 103.338906 
L 290.44224 95.673235 
L 290.79936 105.548262 
L 291.15648 103.224399 
L 291.5136 92.488902 
L 291.87072 93.882627 
L 292.22784 102.211253 
L 292.58496 101.353377 
L 292.94208 97.403069 
L 293.2992 101.698009 
L 293.65632 100.652994 
L 294.01344 91.732933 
L 294.37056 104.228281 
L 294.72768 100.483642 
L 295.0848 104.896795 
L 295.44192 92.491496 
L 295.79904 91.351614 
L 296.15616 93.78146 
L 296.51328 101.703938 
L 296.8704 99.530899 
L 297.22752 89.752221 
L 297.58464 102.452125 
L 297.94176 95.523524 
L 298.29888 91.347167 
L 298.656 90.622326 
L 299.01312 97.42308 
L 299.37024 97.295603 
L 299.72736 91.255635 
L 300.08448 90.399612 
L 300.4416 99.917777 
L 301.15584 92.970276 
L 301.51296 100.095652 
L 301.87008 101.789541 
L 302.2272 90.647525 
L 302.58432 89.891186 
L 302.94144 91.014392 
L 303.29856 97.287451 
L 303.65568 95.046596 
L 304.0128 100.629648 
L 304.36992 91.257859 
L 304.72704 97.782165 
L 305.08416 87.343868 
L 305.44128 101.076929 
L 305.7984 99.461231 
L 306.15552 91.555799 
L 306.51264 87.087431 
L 306.86976 89.349779 
L 307.22688 98.487736 
L 307.584 95.544276 
L 307.94112 87.833765 
L 308.29824 97.062142 
L 308.65536 86.428553 
L 309.01248 88.185068 
L 309.3696 92.184662 
L 309.72672 86.322569 
L 310.08384 92.318438 
L 310.44096 90.377748 
L 310.79808 94.891326 
L 311.1552 97.711015 
L 311.51232 94.128687 
L 311.86944 97.869621 
L 312.58368 84.157311 
L 312.9408 96.975428 
L 313.29792 95.208166 
L 313.65504 87.009982 
L 314.01216 94.401429 
L 314.36928 94.458497 
L 314.7264 92.269893 
L 315.08352 97.074001 
L 315.44064 97.937806 
L 315.79776 96.255034 
L 316.15488 88.084643 
L 316.512 95.300439 
L 316.86912 83.060045 
L 317.22624 82.799162 
L 317.58336 91.460192 
L 317.94048 91.458709 
L 318.2976 93.986387 
L 318.65472 83.880864 
L 319.36896 92.864292 
L 319.72608 84.345562 
L 320.0832 89.263806 
L 320.44032 81.784904 
L 320.79744 93.588762 
L 321.15456 82.661679 
L 321.51168 85.755963 
L 321.8688 83.150094 
L 322.58304 89.924167 
L 322.94016 87.316816 
L 323.29728 81.930909 
L 323.6544 81.067474 
L 324.36864 86.894363 
L 324.72576 86.244378 
L 325.08288 82.628698 
L 325.44 89.151893 
L 325.79712 83.368362 
L 326.15424 84.504538 
L 326.51136 86.460792 
L 326.86848 83.594782 
L 327.2256 86.631627 
L 327.58272 83.170476 
L 327.93984 85.070774 
L 328.29696 89.711087 
L 328.65408 78.577595 
L 329.36832 78.376744 
L 329.72544 82.887729 
L 330.08256 89.035533 
L 330.43968 79.778622 
L 330.7968 82.786933 
L 331.15392 91.802601 
L 331.51104 91.580998 
L 331.86816 79.139754 
L 332.22528 86.118754 
L 332.5824 81.408401 
L 332.93952 84.383361 
L 333.29664 80.556084 
L 333.65376 84.853247 
L 334.01088 86.883987 
L 334.368 87.121153 
L 334.72512 82.335575 
L 335.08224 84.153976 
L 335.43936 77.501081 
L 335.79648 80.750264 
L 336.1536 77.368045 
L 336.51072 88.847282 
L 336.86784 88.14764 
L 337.22496 85.36575 
L 337.58208 78.739165 
L 337.9392 80.071374 
L 338.29632 86.19398 
L 338.65344 79.83569 
L 339.01056 75.975803 
L 339.36768 81.580718 
L 339.7248 83.16714 
L 340.08192 86.412618 
L 340.43904 84.811372 
L 340.79616 79.177182 
L 341.15328 82.178452 
L 341.86752 79.75787 
L 342.22464 83.46434 
L 342.58176 81.515497 
L 342.93888 81.649274 
L 343.296 80.429348 
L 343.65312 81.715606 
L 344.36736 83.170105 
L 344.72448 83.259413 
L 345.0816 73.642305 
L 345.43872 75.038994 
L 345.79584 82.779521 
L 346.15296 78.352287 
L 346.8672 74.444966 
L 347.58144 87.274571 
L 348.29568 74.291178 
L 348.6528 73.798316 
L 349.00992 79.521074 
L 349.36704 72.198924 
L 349.72416 80.158459 
L 350.08128 74.417544 
L 350.4384 84.683525 
L 350.79552 86.508967 
L 351.15264 72.59099 
L 351.50976 77.86276 
L 351.86688 78.332646 
L 352.224 74.545391 
L 352.58112 73.925793 
L 352.93824 85.193433 
L 353.29536 71.863926 
L 353.65248 84.264407 
L 354.0096 76.123291 
L 354.36672 82.670202 
L 354.72384 70.183748 
L 355.08096 69.687922 
L 355.43808 74.64174 
L 355.7952 84.547154 
L 356.15232 85.120801 
L 356.50944 71.462225 
L 356.86656 81.111573 
L 357.22368 70.296032 
L 357.93792 84.472669 
L 358.29504 82.7269 
L 358.65216 76.474964 
L 359.00928 73.752365 
L 359.3664 83.088208 
L 359.72352 72.077376 
L 360.08064 69.524499 
L 360.43776 77.181276 
L 360.79488 77.805692 
L 361.152 69.885807 
L 361.50912 69.372935 
L 361.86624 83.025582 
L 362.22336 74.504999 
L 362.58048 80.748411 
L 362.9376 81.073404 
L 363.29472 68.486154 
L 363.65184 74.84852 
L 364.00896 70.809646 
L 364.36608 72.864102 
L 364.7232 80.539037 
L 365.08032 68.339036 
L 365.43744 75.971356 
L 365.79456 76.779205 
L 366.15168 79.807526 
L 366.5088 69.804281 
L 366.86592 71.303249 
L 367.22304 73.39958 
L 367.58016 81.203475 
L 367.93728 71.665669 
L 368.2944 77.024524 
L 368.65152 77.385462 
L 369.00864 69.334395 
L 369.36576 69.563038 
L 369.72288 66.753725 
L 370.08 80.048028 
L 370.43712 69.669393 
L 371.15136 71.555238 
L 371.50848 65.289962 
L 371.8656 72.926729 
L 372.22272 75.138308 
L 372.57984 78.407131 
L 372.93696 75.331376 
L 373.29408 74.96525 
L 373.6512 77.962815 
L 374.00832 74.850743 
L 374.36544 65.29478 
L 374.72256 69.98475 
L 375.07968 70.186342 
L 375.4368 73.629335 
L 375.79392 74.615059 
L 376.15104 74.917446 
L 376.50816 78.906293 
L 376.86528 71.361799 
L 377.2224 75.69602 
L 377.57952 71.246551 
L 377.93664 64.864545 
L 378.29376 62.515483 
L 378.65088 62.797859 
L 379.008 76.484229 
L 379.36512 62.495843 
L 379.72224 67.873967 
L 380.43648 74.168889 
L 380.7936 73.687885 
L 381.15072 65.590867 
L 381.50784 67.519329 
L 381.86496 62.517336 
L 382.22208 77.446236 
L 382.5792 73.414773 
L 382.93632 72.488712 
L 383.29344 74.705479 
L 383.65056 63.25774 
L 384.00768 75.01046 
L 384.3648 65.959217 
L 384.72192 75.350276 
L 385.07904 60.632602 
L 385.43616 71.28435 
L 385.79328 64.477296 
L 386.1504 70.234887 
L 386.86464 62.735603 
L 387.22176 73.79424 
L 387.57888 62.571439 
L 387.936 73.57412 
L 388.29312 75.145719 
L 388.65024 60.859022 
L 389.00736 72.224864 
L 389.36448 66.897878 
L 389.7216 74.062164 
L 390.07872 61.459721 
L 390.43584 70.771106 
L 390.79296 62.543276 
L 391.15008 68.239352 
L 391.5072 70.581373 
L 391.86432 59.214419 
L 392.22144 59.506801 
L 392.57856 65.57938 
L 392.93568 60.626673 
L 393.2928 63.604967 
L 393.64992 68.47059 
L 394.00704 68.418339 
L 394.36416 65.561963 
L 394.72128 68.364606 
L 395.0784 68.530252 
L 395.43552 60.021157 
L 395.79264 62.474349 
L 396.14976 67.974763 
L 396.50688 70.199683 
L 396.864 60.136405 
L 397.22112 57.367855 
L 397.93536 71.961386 
L 398.29248 60.271293 
L 398.6496 67.853215 
L 399.00672 68.03776 
L 399.36384 64.645165 
L 399.72096 64.711127 
L 400.07808 70.258233 
L 400.4352 70.259716 
L 400.79232 68.023679 
L 401.14944 62.5203 
L 401.50656 62.30018 
L 401.86368 64.944218 
L 402.2208 66.427621 
L 402.57792 65.787642 
L 402.93504 59.73211 
L 403.29216 66.88639 
L 403.64928 57.111789 
L 404.0064 55.115883 
L 404.36352 56.988388 
L 404.72064 61.145475 
L 405.07776 67.217683 
L 405.43488 58.031551 
L 405.792 63.024279 
L 406.14912 59.451957 
L 406.50624 63.145457 
L 406.86336 70.130386 
L 407.22048 54.821648 
L 407.5776 61.36856 
L 407.93472 64.662582 
L 408.29184 55.648767 
L 408.64896 70.137797 
L 409.00608 57.567223 
L 409.3632 55.118848 
L 409.72032 56.921314 
L 410.43456 53.568 
L 410.79168 58.19942 
L 411.1488 54.946161 
L 411.50592 63.588291 
L 411.86304 54.673419 
L 412.22016 66.240111 
L 412.57728 68.088529 
L 412.9344 57.269653 
L 413.29152 59.013569 
L 413.64864 66.415763 
L 414.00576 57.582787 
L 414.36288 57.944095 
L 414.72 56.748998 
L 414.72 56.748998 
" style="fill:none;stroke:#000080;stroke-linecap:square;stroke-width:0.5;"/>
   </g>
   <g id="patch_3">
    <path d="M 57.6 307.584 
L 57.6 41.472 
" style="fill:none;stroke:#000000;stroke-linecap:square;stroke-linejoin:miter;stroke-width:0.8;"/>
   </g>
   <g id="patch_4">
    <path d="M 414.72 307.584 
L 414.72 41.472 
" style="fill:none;stroke:#000000;stroke-linecap:square;stroke-linejoin:miter;stroke-width:0.8;"/>
   </g>
   <g id="patch_5">
    <path d="M 57.6 307.584 
L 414.72 307.584 
" style="fill:none;stroke:#000000;stroke-linecap:square;stroke-linejoin:miter;stroke-width:0.8;"/>
   </g>
   <g id="patch_6">
    <path d="M 57.6 41.472 
L 414.72 41.472 
" style="fill:none;stroke:#000000;stroke-linecap:square;stroke-linejoin:miter;stroke-width:0.8;"/>
   </g>
   <g id="text_16">
    <!-- Test -->
    <defs>
     <path d="M -0.296875 72.90625 
L 61.375 72.90625 
L 61.375 64.59375 
L 35.5 64.59375 
L 35.5 0 
L 25.59375 0 
L 25.59375 64.59375 
L -0.296875 64.59375 
z
" id="DejaVuSans-54"/>
    </defs>
    <g transform="translate(223.341563 35.472)scale(0.12 -0.12)">
     <use xlink:href="#DejaVuSans-54"/>
     <use x="60.818359" xlink:href="#DejaVuSans-65"/>
     <use x="122.341797" xlink:href="#DejaVuSans-73"/>
     <use x="174.441406" xlink:href="#DejaVuSans-74"/>
    </g>
   </g>
   <g id="legend_1">
    <g id="patch_7">
     <path d="M 64.6 64.150125 
L 306.276563 64.150125 
Q 308.276563 64.150125 308.276563 62.150125 
L 308.276563 48.472 
Q 308.276563 46.472 306.276563 46.472 
L 64.6 46.472 
Q 62.6 46.472 62.6 48.472 
L 62.6 62.150125 
Q 62.6 64.150125 64.6 64.150125 
z
" style="fill:#ffffff;opacity:0.8;stroke:#cccccc;stroke-linejoin:miter;"/>
    </g>
    <g id="line2d_28">
     <path d="M 66.6 54.570438 
L 86.6 54.570438 
" style="fill:none;stroke:#000080;stroke-linecap:square;stroke-width:0.5;"/>
    </g>
    <g id="line2d_29"/>
    <g id="text_17">
     <!-- Successful download requests per second -->
     <g transform="translate(94.6 58.070438)scale(0.1 -0.1)">
      <use xlink:href="#DejaVuSans-53"/>
      <use x="63.476562" xlink:href="#DejaVuSans-75"/>
      <use x="126.855469" xlink:href="#DejaVuSans-63"/>
      <use x="181.835938" xlink:href="#DejaVuSans-63"/>
      <use x="236.816406" xlink:href="#DejaVuSans-65"/>
      <use x="298.339844" xlink:href="#DejaVuSans-73"/>
      <use x="350.439453" xlink:href="#DejaVuSans-73"/>
      <use x="402.539062" xlink:href="#DejaVuSans-66"/>
      <use x="437.744141" xlink:href="#DejaVuSans-75"/>
      <use x="501.123047" xlink:href="#DejaVuSans-6c"/>
      <use x="528.90625" xlink:href="#DejaVuSans-20"/>
      <use x="560.693359" xlink:href="#DejaVuSans-64"/>
      <use x="624.169922" xlink:href="#DejaVuSans-6f"/>
      <use x="685.351562" xlink:href="#DejaVuSans-77"/>
      <use x="767.138672" xlink:href="#DejaVuSans-6e"/>
      <use x="830.517578" xlink:href="#DejaVuSans-6c"/>
      <use x="858.300781" xlink:href="#DejaVuSans-6f"/>
      <use x="919.482422" xlink:href="#DejaVuSans-61"/>
      <use x="980.761719" xlink:href="#DejaVuSans-64"/>
      <use x="1044.238281" xlink:href="#DejaVuSans-20"/>
      <use x="1076.025391" xlink:href="#DejaVuSans-72"/>
      <use x="1117.107422" xlink:href="#DejaVuSans-65"/>
      <use x="1178.630859" xlink:href="#DejaVuSans-71"/>
      <use x="1242.107422" xlink:href="#DejaVuSans-75"/>
      <use x="1305.486328" xlink:href="#DejaVuSans-65"/>
      <use x="1367.009766" xlink:href="#DejaVuSans-73"/>
      <use x="1419.109375" xlink:href="#DejaVuSans-74"/>
      <use x="1458.318359" xlink:href="#DejaVuSans-73"/>
      <use x="1510.417969" xlink:href="#DejaVuSans-20"/>
      <use x="1542.205078" xlink:href="#DejaVuSans-70"/>
      <use x="1605.681641" xlink:href="#DejaVuSans-65"/>
      <use x="1667.205078" xlink:href="#DejaVuSans-72"/>
      <use x="1708.318359" xlink:href="#DejaVuSans-20"/>
      <use x="1740.105469" xlink:href="#DejaVuSans-73"/>
      <use x="1792.205078" xlink:href="#DejaVuSans-65"/>
      <use x="1853.728516" xlink:href="#DejaVuSans-63"/>
      <use x="1908.708984" xlink:href="#DejaVuSans-6f"/>
      <use x="1969.890625" xlink:href="#DejaVuSans-6e"/>
      <use x="2033.269531" xlink:href="#DejaVuSans-64"/>
     </g>
    </g>
   </g>
  </g>
 </g>
 <defs>
  <clipPath id="p941a91f304">
   <rect height="266.112" width="357.12" x="57.6" y="41.472"/>
  </clipPath>
 </defs>
</svg>
