<?xml version="1.0" encoding="utf-8" standalone="no"?>
<!DOCTYPE svg PUBLIC "-//W3C//DTD SVG 1.1//EN"
  "http://www.w3.org/Graphics/SVG/1.1/DTD/svg11.dtd">
<!-- Created with matplotlib (http://matplotlib.org/) -->
<svg height="345pt" version="1.1" viewBox="0 0 460 345" width="460pt" xmlns="http://www.w3.org/2000/svg" xmlns:xlink="http://www.w3.org/1999/xlink">
 <defs>
  <style type="text/css">
*{stroke-linecap:butt;stroke-linejoin:round;}
  </style>
 </defs>
 <g id="figure_1">
  <g id="patch_1">
   <path d="M 0 345.6 
L 460.8 345.6 
L 460.8 0 
L 0 0 
z
" style="fill:#ffffff;"/>
  </g>
  <g id="axes_1">
   <g id="patch_2">
    <path d="M 57.6 307.584 
L 414.72 307.584 
L 414.72 41.472 
L 57.6 41.472 
z
" style="fill:#ffffff;"/>
   </g>
   <g id="matplotlib.axis_1">
    <g id="xtick_1">
     <g id="line2d_1">
      <path clip-path="url(#p652c44c1d9)" d="M 57.6 307.584 
L 57.6 41.472 
" style="fill:none;stroke:#b0b0b0;stroke-linecap:square;stroke-width:0.8;"/>
     </g>
     <g id="line2d_2">
      <defs>
       <path d="M 0 0 
L 0 3.5 
" id="m70b1f3d88c" style="stroke:#000000;stroke-width:0.8;"/>
      </defs>
      <g>
       <use style="stroke:#000000;stroke-width:0.8;" x="57.6" xlink:href="#m70b1f3d88c" y="307.584"/>
      </g>
     </g>
     <g id="text_1">
      <!-- 0 -->
      <defs>
       <path d="M 31.78125 66.40625 
Q 24.171875 66.40625 20.328125 58.90625 
Q 16.5 51.421875 16.5 36.375 
Q 16.5 21.390625 20.328125 13.890625 
Q 24.171875 6.390625 31.78125 6.390625 
Q 39.453125 6.390625 43.28125 13.890625 
Q 47.125 21.390625 47.125 36.375 
Q 47.125 51.421875 43.28125 58.90625 
Q 39.453125 66.40625 31.78125 66.40625 
M 31.78125 74.21875 
Q 44.046875 74.21875 50.515625 64.515625 
Q 56.984375 54.828125 56.984375 36.375 
Q 56.984375 17.96875 50.515625 8.265625 
Q 44.046875 -1.421875 31.78125 -1.421875 
Q 19.53125 -1.421875 13.0625 8.265625 
Q 6.59375 17.96875 6.59375 36.375 
Q 6.59375 54.828125 13.0625 64.515625 
Q 19.53125 74.21875 31.78125 74.21875 
" id="DejaVuSans-30"/>
      </defs>
      <g transform="translate(54.41875 322.182437)scale(0.1 -0.1)">
       <use xlink:href="#DejaVuSans-30"/>
      </g>
     </g>
    </g>
    <g id="xtick_2">
     <g id="line2d_3">
      <path clip-path="url(#p652c44c1d9)" d="M 129.024 307.584 
L 129.024 41.472 
" style="fill:none;stroke:#b0b0b0;stroke-linecap:square;stroke-width:0.8;"/>
     </g>
     <g id="line2d_4">
      <g>
       <use style="stroke:#000000;stroke-width:0.8;" x="129.024" xlink:href="#m70b1f3d88c" y="307.584"/>
      </g>
     </g>
     <g id="text_2">
      <!-- 200 -->
      <defs>
       <path d="M 19.1875 8.296875 
L 53.609375 8.296875 
L 53.609375 0 
L 7.328125 0 
L 7.328125 8.296875 
Q 12.9375 14.109375 22.625 23.890625 
Q 32.328125 33.6875 34.8125 36.53125 
Q 39.546875 41.84375 41.421875 45.53125 
Q 43.3125 49.21875 43.3125 52.78125 
Q 43.3125 58.59375 39.234375 62.25 
Q 35.15625 65.921875 28.609375 65.921875 
Q 23.96875 65.921875 18.8125 64.3125 
Q 13.671875 62.703125 7.8125 59.421875 
L 7.8125 69.390625 
Q 13.765625 71.78125 18.9375 73 
Q 24.125 74.21875 28.421875 74.21875 
Q 39.75 74.21875 46.484375 68.546875 
Q 53.21875 62.890625 53.21875 53.421875 
Q 53.21875 48.921875 51.53125 44.890625 
Q 49.859375 40.875 45.40625 35.40625 
Q 44.1875 33.984375 37.640625 27.21875 
Q 31.109375 20.453125 19.1875 8.296875 
" id="DejaVuSans-32"/>
      </defs>
      <g transform="translate(119.48025 322.182437)scale(0.1 -0.1)">
       <use xlink:href="#DejaVuSans-32"/>
       <use x="63.623047" xlink:href="#DejaVuSans-30"/>
       <use x="127.246094" xlink:href="#DejaVuSans-30"/>
      </g>
     </g>
    </g>
    <g id="xtick_3">
     <g id="line2d_5">
      <path clip-path="url(#p652c44c1d9)" d="M 200.448 307.584 
L 200.448 41.472 
" style="fill:none;stroke:#b0b0b0;stroke-linecap:square;stroke-width:0.8;"/>
     </g>
     <g id="line2d_6">
      <g>
       <use style="stroke:#000000;stroke-width:0.8;" x="200.448" xlink:href="#m70b1f3d88c" y="307.584"/>
      </g>
     </g>
     <g id="text_3">
      <!-- 400 -->
      <defs>
       <path d="M 37.796875 64.3125 
L 12.890625 25.390625 
L 37.796875 25.390625 
z
M 35.203125 72.90625 
L 47.609375 72.90625 
L 47.609375 25.390625 
L 58.015625 25.390625 
L 58.015625 17.1875 
L 47.609375 17.1875 
L 47.609375 0 
L 37.796875 0 
L 37.796875 17.1875 
L 4.890625 17.1875 
L 4.890625 26.703125 
z
" id="DejaVuSans-34"/>
      </defs>
      <g transform="translate(190.90425 322.182437)scale(0.1 -0.1)">
       <use xlink:href="#DejaVuSans-34"/>
       <use x="63.623047" xlink:href="#DejaVuSans-30"/>
       <use x="127.246094" xlink:href="#DejaVuSans-30"/>
      </g>
     </g>
    </g>
    <g id="xtick_4">
     <g id="line2d_7">
      <path clip-path="url(#p652c44c1d9)" d="M 271.872 307.584 
L 271.872 41.472 
" style="fill:none;stroke:#b0b0b0;stroke-linecap:square;stroke-width:0.8;"/>
     </g>
     <g id="line2d_8">
      <g>
       <use style="stroke:#000000;stroke-width:0.8;" x="271.872" xlink:href="#m70b1f3d88c" y="307.584"/>
      </g>
     </g>
     <g id="text_4">
      <!-- 600 -->
      <defs>
       <path d="M 33.015625 40.375 
Q 26.375 40.375 22.484375 35.828125 
Q 18.609375 31.296875 18.609375 23.390625 
Q 18.609375 15.53125 22.484375 10.953125 
Q 26.375 6.390625 33.015625 6.390625 
Q 39.65625 6.390625 43.53125 10.953125 
Q 47.40625 15.53125 47.40625 23.390625 
Q 47.40625 31.296875 43.53125 35.828125 
Q 39.65625 40.375 33.015625 40.375 
M 52.59375 71.296875 
L 52.59375 62.3125 
Q 48.875 64.0625 45.09375 64.984375 
Q 41.3125 65.921875 37.59375 65.921875 
Q 27.828125 65.921875 22.671875 59.328125 
Q 17.53125 52.734375 16.796875 39.40625 
Q 19.671875 43.65625 24.015625 45.921875 
Q 28.375 48.1875 33.59375 48.1875 
Q 44.578125 48.1875 50.953125 41.515625 
Q 57.328125 34.859375 57.328125 23.390625 
Q 57.328125 12.15625 50.6875 5.359375 
Q 44.046875 -1.421875 33.015625 -1.421875 
Q 20.359375 -1.421875 13.671875 8.265625 
Q 6.984375 17.96875 6.984375 36.375 
Q 6.984375 53.65625 15.1875 63.9375 
Q 23.390625 74.21875 37.203125 74.21875 
Q 40.921875 74.21875 44.703125 73.484375 
Q 48.484375 72.75 52.59375 71.296875 
" id="DejaVuSans-36"/>
      </defs>
      <g transform="translate(262.32825 322.182437)scale(0.1 -0.1)">
       <use xlink:href="#DejaVuSans-36"/>
       <use x="63.623047" xlink:href="#DejaVuSans-30"/>
       <use x="127.246094" xlink:href="#DejaVuSans-30"/>
      </g>
     </g>
    </g>
    <g id="xtick_5">
     <g id="line2d_9">
      <path clip-path="url(#p652c44c1d9)" d="M 343.296 307.584 
L 343.296 41.472 
" style="fill:none;stroke:#b0b0b0;stroke-linecap:square;stroke-width:0.8;"/>
     </g>
     <g id="line2d_10">
      <g>
       <use style="stroke:#000000;stroke-width:0.8;" x="343.296" xlink:href="#m70b1f3d88c" y="307.584"/>
      </g>
     </g>
     <g id="text_5">
      <!-- 800 -->
      <defs>
       <path d="M 31.78125 34.625 
Q 24.75 34.625 20.71875 30.859375 
Q 16.703125 27.09375 16.703125 20.515625 
Q 16.703125 13.921875 20.71875 10.15625 
Q 24.75 6.390625 31.78125 6.390625 
Q 38.8125 6.390625 42.859375 10.171875 
Q 46.921875 13.96875 46.921875 20.515625 
Q 46.921875 27.09375 42.890625 30.859375 
Q 38.875 34.625 31.78125 34.625 
M 21.921875 38.8125 
Q 15.578125 40.375 12.03125 44.71875 
Q 8.5 49.078125 8.5 55.328125 
Q 8.5 64.0625 14.71875 69.140625 
Q 20.953125 74.21875 31.78125 74.21875 
Q 42.671875 74.21875 48.875 69.140625 
Q 55.078125 64.0625 55.078125 55.328125 
Q 55.078125 49.078125 51.53125 44.71875 
Q 48 40.375 41.703125 38.8125 
Q 48.828125 37.15625 52.796875 32.3125 
Q 56.78125 27.484375 56.78125 20.515625 
Q 56.78125 9.90625 50.3125 4.234375 
Q 43.84375 -1.421875 31.78125 -1.421875 
Q 19.734375 -1.421875 13.25 4.234375 
Q 6.78125 9.90625 6.78125 20.515625 
Q 6.78125 27.484375 10.78125 32.3125 
Q 14.796875 37.15625 21.921875 38.8125 
M 18.3125 54.390625 
Q 18.3125 48.734375 21.84375 45.5625 
Q 25.390625 42.390625 31.78125 42.390625 
Q 38.140625 42.390625 41.71875 45.5625 
Q 45.3125 48.734375 45.3125 54.390625 
Q 45.3125 60.0625 41.71875 63.234375 
Q 38.140625 66.40625 31.78125 66.40625 
Q 25.390625 66.40625 21.84375 63.234375 
Q 18.3125 60.0625 18.3125 54.390625 
" id="DejaVuSans-38"/>
      </defs>
      <g transform="translate(333.75225 322.182437)scale(0.1 -0.1)">
       <use xlink:href="#DejaVuSans-38"/>
       <use x="63.623047" xlink:href="#DejaVuSans-30"/>
       <use x="127.246094" xlink:href="#DejaVuSans-30"/>
      </g>
     </g>
    </g>
    <g id="xtick_6">
     <g id="line2d_11">
      <path clip-path="url(#p652c44c1d9)" d="M 414.72 307.584 
L 414.72 41.472 
" style="fill:none;stroke:#b0b0b0;stroke-linecap:square;stroke-width:0.8;"/>
     </g>
     <g id="line2d_12">
      <g>
       <use style="stroke:#000000;stroke-width:0.8;" x="414.72" xlink:href="#m70b1f3d88c" y="307.584"/>
      </g>
     </g>
     <g id="text_6">
      <!-- 1000 -->
      <defs>
       <path d="M 12.40625 8.296875 
L 28.515625 8.296875 
L 28.515625 63.921875 
L 10.984375 60.40625 
L 10.984375 69.390625 
L 28.421875 72.90625 
L 38.28125 72.90625 
L 38.28125 8.296875 
L 54.390625 8.296875 
L 54.390625 0 
L 12.40625 0 
z
" id="DejaVuSans-31"/>
      </defs>
      <g transform="translate(401.995 322.182437)scale(0.1 -0.1)">
       <use xlink:href="#DejaVuSans-31"/>
       <use x="63.623047" xlink:href="#DejaVuSans-30"/>
       <use x="127.246094" xlink:href="#DejaVuSans-30"/>
       <use x="190.869141" xlink:href="#DejaVuSans-30"/>
      </g>
     </g>
    </g>
    <g id="text_7">
     <!-- Number of clients -->
     <defs>
      <path d="M 9.8125 72.90625 
L 23.09375 72.90625 
L 55.421875 11.921875 
L 55.421875 72.90625 
L 64.984375 72.90625 
L 64.984375 0 
L 51.703125 0 
L 19.390625 60.984375 
L 19.390625 0 
L 9.8125 0 
z
" id="DejaVuSans-4e"/>
      <path d="M 8.5 21.578125 
L 8.5 54.6875 
L 17.484375 54.6875 
L 17.484375 21.921875 
Q 17.484375 14.15625 20.5 10.265625 
Q 23.53125 6.390625 29.59375 6.390625 
Q 36.859375 6.390625 41.078125 11.03125 
Q 45.3125 15.671875 45.3125 23.6875 
L 45.3125 54.6875 
L 54.296875 54.6875 
L 54.296875 0 
L 45.3125 0 
L 45.3125 8.40625 
Q 42.046875 3.421875 37.71875 1 
Q 33.40625 -1.421875 27.6875 -1.421875 
Q 18.265625 -1.421875 13.375 4.4375 
Q 8.5 10.296875 8.5 21.578125 
M 31.109375 56 
z
" id="DejaVuSans-75"/>
      <path d="M 52 44.1875 
Q 55.375 50.25 60.0625 53.125 
Q 64.75 56 71.09375 56 
Q 79.640625 56 84.28125 50.015625 
Q 88.921875 44.046875 88.921875 33.015625 
L 88.921875 0 
L 79.890625 0 
L 79.890625 32.71875 
Q 79.890625 40.578125 77.09375 44.375 
Q 74.3125 48.1875 68.609375 48.1875 
Q 61.625 48.1875 57.5625 43.546875 
Q 53.515625 38.921875 53.515625 30.90625 
L 53.515625 0 
L 44.484375 0 
L 44.484375 32.71875 
Q 44.484375 40.625 41.703125 44.40625 
Q 38.921875 48.1875 33.109375 48.1875 
Q 26.21875 48.1875 22.15625 43.53125 
Q 18.109375 38.875 18.109375 30.90625 
L 18.109375 0 
L 9.078125 0 
L 9.078125 54.6875 
L 18.109375 54.6875 
L 18.109375 46.1875 
Q 21.1875 51.21875 25.484375 53.609375 
Q 29.78125 56 35.6875 56 
Q 41.65625 56 45.828125 52.96875 
Q 50 49.953125 52 44.1875 
" id="DejaVuSans-6d"/>
      <path d="M 48.6875 27.296875 
Q 48.6875 37.203125 44.609375 42.84375 
Q 40.53125 48.484375 33.40625 48.484375 
Q 26.265625 48.484375 22.1875 42.84375 
Q 18.109375 37.203125 18.109375 27.296875 
Q 18.109375 17.390625 22.1875 11.75 
Q 26.265625 6.109375 33.40625 6.109375 
Q 40.53125 6.109375 44.609375 11.75 
Q 48.6875 17.390625 48.6875 27.296875 
M 18.109375 46.390625 
Q 20.953125 51.265625 25.265625 53.625 
Q 29.59375 56 35.59375 56 
Q 45.5625 56 51.78125 48.09375 
Q 58.015625 40.1875 58.015625 27.296875 
Q 58.015625 14.40625 51.78125 6.484375 
Q 45.5625 -1.421875 35.59375 -1.421875 
Q 29.59375 -1.421875 25.265625 0.953125 
Q 20.953125 3.328125 18.109375 8.203125 
L 18.109375 0 
L 9.078125 0 
L 9.078125 75.984375 
L 18.109375 75.984375 
z
" id="DejaVuSans-62"/>
      <path d="M 56.203125 29.59375 
L 56.203125 25.203125 
L 14.890625 25.203125 
Q 15.484375 15.921875 20.484375 11.0625 
Q 25.484375 6.203125 34.421875 6.203125 
Q 39.59375 6.203125 44.453125 7.46875 
Q 49.3125 8.734375 54.109375 11.28125 
L 54.109375 2.78125 
Q 49.265625 0.734375 44.1875 -0.34375 
Q 39.109375 -1.421875 33.890625 -1.421875 
Q 20.796875 -1.421875 13.15625 6.1875 
Q 5.515625 13.8125 5.515625 26.8125 
Q 5.515625 40.234375 12.765625 48.109375 
Q 20.015625 56 32.328125 56 
Q 43.359375 56 49.78125 48.890625 
Q 56.203125 41.796875 56.203125 29.59375 
M 47.21875 32.234375 
Q 47.125 39.59375 43.09375 43.984375 
Q 39.0625 48.390625 32.421875 48.390625 
Q 24.90625 48.390625 20.390625 44.140625 
Q 15.875 39.890625 15.1875 32.171875 
z
" id="DejaVuSans-65"/>
      <path d="M 41.109375 46.296875 
Q 39.59375 47.171875 37.8125 47.578125 
Q 36.03125 48 33.890625 48 
Q 26.265625 48 22.1875 43.046875 
Q 18.109375 38.09375 18.109375 28.8125 
L 18.109375 0 
L 9.078125 0 
L 9.078125 54.6875 
L 18.109375 54.6875 
L 18.109375 46.1875 
Q 20.953125 51.171875 25.484375 53.578125 
Q 30.03125 56 36.53125 56 
Q 37.453125 56 38.578125 55.875 
Q 39.703125 55.765625 41.0625 55.515625 
z
" id="DejaVuSans-72"/>
      <path id="DejaVuSans-20"/>
      <path d="M 30.609375 48.390625 
Q 23.390625 48.390625 19.1875 42.75 
Q 14.984375 37.109375 14.984375 27.296875 
Q 14.984375 17.484375 19.15625 11.84375 
Q 23.34375 6.203125 30.609375 6.203125 
Q 37.796875 6.203125 41.984375 11.859375 
Q 46.1875 17.53125 46.1875 27.296875 
Q 46.1875 37.015625 41.984375 42.703125 
Q 37.796875 48.390625 30.609375 48.390625 
M 30.609375 56 
Q 42.328125 56 49.015625 48.375 
Q 55.71875 40.765625 55.71875 27.296875 
Q 55.71875 13.875 49.015625 6.21875 
Q 42.328125 -1.421875 30.609375 -1.421875 
Q 18.84375 -1.421875 12.171875 6.21875 
Q 5.515625 13.875 5.515625 27.296875 
Q 5.515625 40.765625 12.171875 48.375 
Q 18.84375 56 30.609375 56 
" id="DejaVuSans-6f"/>
      <path d="M 37.109375 75.984375 
L 37.109375 68.5 
L 28.515625 68.5 
Q 23.6875 68.5 21.796875 66.546875 
Q 19.921875 64.59375 19.921875 59.515625 
L 19.921875 54.6875 
L 34.71875 54.6875 
L 34.71875 47.703125 
L 19.921875 47.703125 
L 19.921875 0 
L 10.890625 0 
L 10.890625 47.703125 
L 2.296875 47.703125 
L 2.296875 54.6875 
L 10.890625 54.6875 
L 10.890625 58.5 
Q 10.890625 67.625 15.140625 71.796875 
Q 19.390625 75.984375 28.609375 75.984375 
z
" id="DejaVuSans-66"/>
      <path d="M 48.78125 52.59375 
L 48.78125 44.1875 
Q 44.96875 46.296875 41.140625 47.34375 
Q 37.3125 48.390625 33.40625 48.390625 
Q 24.65625 48.390625 19.8125 42.84375 
Q 14.984375 37.3125 14.984375 27.296875 
Q 14.984375 17.28125 19.8125 11.734375 
Q 24.65625 6.203125 33.40625 6.203125 
Q 37.3125 6.203125 41.140625 7.25 
Q 44.96875 8.296875 48.78125 10.40625 
L 48.78125 2.09375 
Q 45.015625 0.34375 40.984375 -0.53125 
Q 36.96875 -1.421875 32.421875 -1.421875 
Q 20.0625 -1.421875 12.78125 6.34375 
Q 5.515625 14.109375 5.515625 27.296875 
Q 5.515625 40.671875 12.859375 48.328125 
Q 20.21875 56 33.015625 56 
Q 37.15625 56 41.109375 55.140625 
Q 45.0625 54.296875 48.78125 52.59375 
" id="DejaVuSans-63"/>
      <path d="M 9.421875 75.984375 
L 18.40625 75.984375 
L 18.40625 0 
L 9.421875 0 
z
" id="DejaVuSans-6c"/>
      <path d="M 9.421875 54.6875 
L 18.40625 54.6875 
L 18.40625 0 
L 9.421875 0 
z
M 9.421875 75.984375 
L 18.40625 75.984375 
L 18.40625 64.59375 
L 9.421875 64.59375 
z
" id="DejaVuSans-69"/>
      <path d="M 54.890625 33.015625 
L 54.890625 0 
L 45.90625 0 
L 45.90625 32.71875 
Q 45.90625 40.484375 42.875 44.328125 
Q 39.84375 48.1875 33.796875 48.1875 
Q 26.515625 48.1875 22.3125 43.546875 
Q 18.109375 38.921875 18.109375 30.90625 
L 18.109375 0 
L 9.078125 0 
L 9.078125 54.6875 
L 18.109375 54.6875 
L 18.109375 46.1875 
Q 21.34375 51.125 25.703125 53.5625 
Q 30.078125 56 35.796875 56 
Q 45.21875 56 50.046875 50.171875 
Q 54.890625 44.34375 54.890625 33.015625 
" id="DejaVuSans-6e"/>
      <path d="M 18.3125 70.21875 
L 18.3125 54.6875 
L 36.8125 54.6875 
L 36.8125 47.703125 
L 18.3125 47.703125 
L 18.3125 18.015625 
Q 18.3125 11.328125 20.140625 9.421875 
Q 21.96875 7.515625 27.59375 7.515625 
L 36.8125 7.515625 
L 36.8125 0 
L 27.59375 0 
Q 17.1875 0 13.234375 3.875 
Q 9.28125 7.765625 9.28125 18.015625 
L 9.28125 47.703125 
L 2.6875 47.703125 
L 2.6875 54.6875 
L 9.28125 54.6875 
L 9.28125 70.21875 
z
" id="DejaVuSans-74"/>
      <path d="M 44.28125 53.078125 
L 44.28125 44.578125 
Q 40.484375 46.53125 36.375 47.5 
Q 32.28125 48.484375 27.875 48.484375 
Q 21.1875 48.484375 17.84375 46.4375 
Q 14.5 44.390625 14.5 40.28125 
Q 14.5 37.15625 16.890625 35.375 
Q 19.28125 33.59375 26.515625 31.984375 
L 29.59375 31.296875 
Q 39.15625 29.25 43.1875 25.515625 
Q 47.21875 21.78125 47.21875 15.09375 
Q 47.21875 7.46875 41.1875 3.015625 
Q 35.15625 -1.421875 24.609375 -1.421875 
Q 20.21875 -1.421875 15.453125 -0.5625 
Q 10.6875 0.296875 5.421875 2 
L 5.421875 11.28125 
Q 10.40625 8.6875 15.234375 7.390625 
Q 20.0625 6.109375 24.8125 6.109375 
Q 31.15625 6.109375 34.5625 8.28125 
Q 37.984375 10.453125 37.984375 14.40625 
Q 37.984375 18.0625 35.515625 20.015625 
Q 33.0625 21.96875 24.703125 23.78125 
L 21.578125 24.515625 
Q 13.234375 26.265625 9.515625 29.90625 
Q 5.8125 33.546875 5.8125 39.890625 
Q 5.8125 47.609375 11.28125 51.796875 
Q 16.75 56 26.8125 56 
Q 31.78125 56 36.171875 55.265625 
Q 40.578125 54.546875 44.28125 53.078125 
" id="DejaVuSans-73"/>
     </defs>
     <g transform="translate(191.738906 335.860562)scale(0.1 -0.1)">
      <use xlink:href="#DejaVuSans-4e"/>
      <use x="74.804688" xlink:href="#DejaVuSans-75"/>
      <use x="138.183594" xlink:href="#DejaVuSans-6d"/>
      <use x="235.595703" xlink:href="#DejaVuSans-62"/>
      <use x="299.072266" xlink:href="#DejaVuSans-65"/>
      <use x="360.595703" xlink:href="#DejaVuSans-72"/>
      <use x="401.708984" xlink:href="#DejaVuSans-20"/>
      <use x="433.496094" xlink:href="#DejaVuSans-6f"/>
      <use x="494.677734" xlink:href="#DejaVuSans-66"/>
      <use x="529.882812" xlink:href="#DejaVuSans-20"/>
      <use x="561.669922" xlink:href="#DejaVuSans-63"/>
      <use x="616.650391" xlink:href="#DejaVuSans-6c"/>
      <use x="644.433594" xlink:href="#DejaVuSans-69"/>
      <use x="672.216797" xlink:href="#DejaVuSans-65"/>
      <use x="733.740234" xlink:href="#DejaVuSans-6e"/>
      <use x="797.119141" xlink:href="#DejaVuSans-74"/>
      <use x="836.328125" xlink:href="#DejaVuSans-73"/>
     </g>
    </g>
   </g>
   <g id="matplotlib.axis_2">
    <g id="ytick_1">
     <g id="line2d_13">
      <path clip-path="url(#p652c44c1d9)" d="M 57.6 295.821307 
L 414.72 295.821307 
" style="fill:none;stroke:#b0b0b0;stroke-linecap:square;stroke-width:0.8;"/>
     </g>
     <g id="line2d_14">
      <defs>
       <path d="M 0 0 
L -3.5 0 
" id="m0a7238b478" style="stroke:#000000;stroke-width:0.8;"/>
      </defs>
      <g>
       <use style="stroke:#000000;stroke-width:0.8;" x="57.6" xlink:href="#m0a7238b478" y="295.821307"/>
      </g>
     </g>
     <g id="text_8">
      <!-- 0 -->
      <g transform="translate(44.2375 299.620526)scale(0.1 -0.1)">
       <use xlink:href="#DejaVuSans-30"/>
      </g>
     </g>
    </g>
    <g id="ytick_2">
     <g id="line2d_15">
      <path clip-path="url(#p652c44c1d9)" d="M 57.6 261.35314 
L 414.72 261.35314 
" style="fill:none;stroke:#b0b0b0;stroke-linecap:square;stroke-width:0.8;"/>
     </g>
     <g id="line2d_16">
      <g>
       <use style="stroke:#000000;stroke-width:0.8;" x="57.6" xlink:href="#m0a7238b478" y="261.35314"/>
      </g>
     </g>
     <g id="text_9">
      <!-- 100 -->
      <g transform="translate(31.5125 265.152359)scale(0.1 -0.1)">
       <use xlink:href="#DejaVuSans-31"/>
       <use x="63.623047" xlink:href="#DejaVuSans-30"/>
       <use x="127.246094" xlink:href="#DejaVuSans-30"/>
      </g>
     </g>
    </g>
    <g id="ytick_3">
     <g id="line2d_17">
      <path clip-path="url(#p652c44c1d9)" d="M 57.6 226.884973 
L 414.72 226.884973 
" style="fill:none;stroke:#b0b0b0;stroke-linecap:square;stroke-width:0.8;"/>
     </g>
     <g id="line2d_18">
      <g>
       <use style="stroke:#000000;stroke-width:0.8;" x="57.6" xlink:href="#m0a7238b478" y="226.884973"/>
      </g>
     </g>
     <g id="text_10">
      <!-- 200 -->
      <g transform="translate(31.5125 230.684192)scale(0.1 -0.1)">
       <use xlink:href="#DejaVuSans-32"/>
       <use x="63.623047" xlink:href="#DejaVuSans-30"/>
       <use x="127.246094" xlink:href="#DejaVuSans-30"/>
      </g>
     </g>
    </g>
    <g id="ytick_4">
     <g id="line2d_19">
      <path clip-path="url(#p652c44c1d9)" d="M 57.6 192.416806 
L 414.72 192.416806 
" style="fill:none;stroke:#b0b0b0;stroke-linecap:square;stroke-width:0.8;"/>
     </g>
     <g id="line2d_20">
      <g>
       <use style="stroke:#000000;stroke-width:0.8;" x="57.6" xlink:href="#m0a7238b478" y="192.416806"/>
      </g>
     </g>
     <g id="text_11">
      <!-- 300 -->
      <defs>
       <path d="M 40.578125 39.3125 
Q 47.65625 37.796875 51.625 33 
Q 55.609375 28.21875 55.609375 21.1875 
Q 55.609375 10.40625 48.1875 4.484375 
Q 40.765625 -1.421875 27.09375 -1.421875 
Q 22.515625 -1.421875 17.65625 -0.515625 
Q 12.796875 0.390625 7.625 2.203125 
L 7.625 11.71875 
Q 11.71875 9.328125 16.59375 8.109375 
Q 21.484375 6.890625 26.8125 6.890625 
Q 36.078125 6.890625 40.9375 10.546875 
Q 45.796875 14.203125 45.796875 21.1875 
Q 45.796875 27.640625 41.28125 31.265625 
Q 36.765625 34.90625 28.71875 34.90625 
L 20.21875 34.90625 
L 20.21875 43.015625 
L 29.109375 43.015625 
Q 36.375 43.015625 40.234375 45.921875 
Q 44.09375 48.828125 44.09375 54.296875 
Q 44.09375 59.90625 40.109375 62.90625 
Q 36.140625 65.921875 28.71875 65.921875 
Q 24.65625 65.921875 20.015625 65.03125 
Q 15.375 64.15625 9.8125 62.3125 
L 9.8125 71.09375 
Q 15.4375 72.65625 20.34375 73.4375 
Q 25.25 74.21875 29.59375 74.21875 
Q 40.828125 74.21875 47.359375 69.109375 
Q 53.90625 64.015625 53.90625 55.328125 
Q 53.90625 49.265625 50.4375 45.09375 
Q 46.96875 40.921875 40.578125 39.3125 
" id="DejaVuSans-33"/>
      </defs>
      <g transform="translate(31.5125 196.216025)scale(0.1 -0.1)">
       <use xlink:href="#DejaVuSans-33"/>
       <use x="63.623047" xlink:href="#DejaVuSans-30"/>
       <use x="127.246094" xlink:href="#DejaVuSans-30"/>
      </g>
     </g>
    </g>
    <g id="ytick_5">
     <g id="line2d_21">
      <path clip-path="url(#p652c44c1d9)" d="M 57.6 157.948639 
L 414.72 157.948639 
" style="fill:none;stroke:#b0b0b0;stroke-linecap:square;stroke-width:0.8;"/>
     </g>
     <g id="line2d_22">
      <g>
       <use style="stroke:#000000;stroke-width:0.8;" x="57.6" xlink:href="#m0a7238b478" y="157.948639"/>
      </g>
     </g>
     <g id="text_12">
      <!-- 400 -->
      <g transform="translate(31.5125 161.747858)scale(0.1 -0.1)">
       <use xlink:href="#DejaVuSans-34"/>
       <use x="63.623047" xlink:href="#DejaVuSans-30"/>
       <use x="127.246094" xlink:href="#DejaVuSans-30"/>
      </g>
     </g>
    </g>
    <g id="ytick_6">
     <g id="line2d_23">
      <path clip-path="url(#p652c44c1d9)" d="M 57.6 123.480472 
L 414.72 123.480472 
" style="fill:none;stroke:#b0b0b0;stroke-linecap:square;stroke-width:0.8;"/>
     </g>
     <g id="line2d_24">
      <g>
       <use style="stroke:#000000;stroke-width:0.8;" x="57.6" xlink:href="#m0a7238b478" y="123.480472"/>
      </g>
     </g>
     <g id="text_13">
      <!-- 500 -->
      <defs>
       <path d="M 10.796875 72.90625 
L 49.515625 72.90625 
L 49.515625 64.59375 
L 19.828125 64.59375 
L 19.828125 46.734375 
Q 21.96875 47.46875 24.109375 47.828125 
Q 26.265625 48.1875 28.421875 48.1875 
Q 40.625 48.1875 47.75 41.5 
Q 54.890625 34.8125 54.890625 23.390625 
Q 54.890625 11.625 47.5625 5.09375 
Q 40.234375 -1.421875 26.90625 -1.421875 
Q 22.3125 -1.421875 17.546875 -0.640625 
Q 12.796875 0.140625 7.71875 1.703125 
L 7.71875 11.625 
Q 12.109375 9.234375 16.796875 8.0625 
Q 21.484375 6.890625 26.703125 6.890625 
Q 35.15625 6.890625 40.078125 11.328125 
Q 45.015625 15.765625 45.015625 23.390625 
Q 45.015625 31 40.078125 35.4375 
Q 35.15625 39.890625 26.703125 39.890625 
Q 22.75 39.890625 18.8125 39.015625 
Q 14.890625 38.140625 10.796875 36.28125 
z
" id="DejaVuSans-35"/>
      </defs>
      <g transform="translate(31.5125 127.279691)scale(0.1 -0.1)">
       <use xlink:href="#DejaVuSans-35"/>
       <use x="63.623047" xlink:href="#DejaVuSans-30"/>
       <use x="127.246094" xlink:href="#DejaVuSans-30"/>
      </g>
     </g>
    </g>
    <g id="ytick_7">
     <g id="line2d_25">
      <path clip-path="url(#p652c44c1d9)" d="M 57.6 89.012305 
L 414.72 89.012305 
" style="fill:none;stroke:#b0b0b0;stroke-linecap:square;stroke-width:0.8;"/>
     </g>
     <g id="line2d_26">
      <g>
       <use style="stroke:#000000;stroke-width:0.8;" x="57.6" xlink:href="#m0a7238b478" y="89.012305"/>
      </g>
     </g>
     <g id="text_14">
      <!-- 600 -->
      <g transform="translate(31.5125 92.811524)scale(0.1 -0.1)">
       <use xlink:href="#DejaVuSans-36"/>
       <use x="63.623047" xlink:href="#DejaVuSans-30"/>
       <use x="127.246094" xlink:href="#DejaVuSans-30"/>
      </g>
     </g>
    </g>
    <g id="ytick_8">
     <g id="line2d_27">
      <path clip-path="url(#p652c44c1d9)" d="M 57.6 54.544138 
L 414.72 54.544138 
" style="fill:none;stroke:#b0b0b0;stroke-linecap:square;stroke-width:0.8;"/>
     </g>
     <g id="line2d_28">
      <g>
       <use style="stroke:#000000;stroke-width:0.8;" x="57.6" xlink:href="#m0a7238b478" y="54.544138"/>
      </g>
     </g>
     <g id="text_15">
      <!-- 700 -->
      <defs>
       <path d="M 8.203125 72.90625 
L 55.078125 72.90625 
L 55.078125 68.703125 
L 28.609375 0 
L 18.3125 0 
L 43.21875 64.59375 
L 8.203125 64.59375 
z
" id="DejaVuSans-37"/>
      </defs>
      <g transform="translate(31.5125 58.343357)scale(0.1 -0.1)">
       <use xlink:href="#DejaVuSans-37"/>
       <use x="63.623047" xlink:href="#DejaVuSans-30"/>
       <use x="127.246094" xlink:href="#DejaVuSans-30"/>
      </g>
     </g>
    </g>
    <g id="text_16">
     <!-- Successful download requests per second -->
     <defs>
      <path d="M 53.515625 70.515625 
L 53.515625 60.890625 
Q 47.90625 63.578125 42.921875 64.890625 
Q 37.9375 66.21875 33.296875 66.21875 
Q 25.25 66.21875 20.875 63.09375 
Q 16.5 59.96875 16.5 54.203125 
Q 16.5 49.359375 19.40625 46.890625 
Q 22.3125 44.4375 30.421875 42.921875 
L 36.375 41.703125 
Q 47.40625 39.59375 52.65625 34.296875 
Q 57.90625 29 57.90625 20.125 
Q 57.90625 9.515625 50.796875 4.046875 
Q 43.703125 -1.421875 29.984375 -1.421875 
Q 24.8125 -1.421875 18.96875 -0.25 
Q 13.140625 0.921875 6.890625 3.21875 
L 6.890625 13.375 
Q 12.890625 10.015625 18.65625 8.296875 
Q 24.421875 6.59375 29.984375 6.59375 
Q 38.421875 6.59375 43.015625 9.90625 
Q 47.609375 13.234375 47.609375 19.390625 
Q 47.609375 24.75 44.3125 27.78125 
Q 41.015625 30.8125 33.5 32.328125 
L 27.484375 33.5 
Q 16.453125 35.6875 11.515625 40.375 
Q 6.59375 45.0625 6.59375 53.421875 
Q 6.59375 63.09375 13.40625 68.65625 
Q 20.21875 74.21875 32.171875 74.21875 
Q 37.3125 74.21875 42.625 73.28125 
Q 47.953125 72.359375 53.515625 70.515625 
" id="DejaVuSans-53"/>
      <path d="M 45.40625 46.390625 
L 45.40625 75.984375 
L 54.390625 75.984375 
L 54.390625 0 
L 45.40625 0 
L 45.40625 8.203125 
Q 42.578125 3.328125 38.25 0.953125 
Q 33.9375 -1.421875 27.875 -1.421875 
Q 17.96875 -1.421875 11.734375 6.484375 
Q 5.515625 14.40625 5.515625 27.296875 
Q 5.515625 40.1875 11.734375 48.09375 
Q 17.96875 56 27.875 56 
Q 33.9375 56 38.25 53.625 
Q 42.578125 51.265625 45.40625 46.390625 
M 14.796875 27.296875 
Q 14.796875 17.390625 18.875 11.75 
Q 22.953125 6.109375 30.078125 6.109375 
Q 37.203125 6.109375 41.296875 11.75 
Q 45.40625 17.390625 45.40625 27.296875 
Q 45.40625 37.203125 41.296875 42.84375 
Q 37.203125 48.484375 30.078125 48.484375 
Q 22.953125 48.484375 18.875 42.84375 
Q 14.796875 37.203125 14.796875 27.296875 
" id="DejaVuSans-64"/>
      <path d="M 4.203125 54.6875 
L 13.1875 54.6875 
L 24.421875 12.015625 
L 35.59375 54.6875 
L 46.1875 54.6875 
L 57.421875 12.015625 
L 68.609375 54.6875 
L 77.59375 54.6875 
L 63.28125 0 
L 52.6875 0 
L 40.921875 44.828125 
L 29.109375 0 
L 18.5 0 
z
" id="DejaVuSans-77"/>
      <path d="M 34.28125 27.484375 
Q 23.390625 27.484375 19.1875 25 
Q 14.984375 22.515625 14.984375 16.5 
Q 14.984375 11.71875 18.140625 8.90625 
Q 21.296875 6.109375 26.703125 6.109375 
Q 34.1875 6.109375 38.703125 11.40625 
Q 43.21875 16.703125 43.21875 25.484375 
L 43.21875 27.484375 
z
M 52.203125 31.203125 
L 52.203125 0 
L 43.21875 0 
L 43.21875 8.296875 
Q 40.140625 3.328125 35.546875 0.953125 
Q 30.953125 -1.421875 24.3125 -1.421875 
Q 15.921875 -1.421875 10.953125 3.296875 
Q 6 8.015625 6 15.921875 
Q 6 25.140625 12.171875 29.828125 
Q 18.359375 34.515625 30.609375 34.515625 
L 43.21875 34.515625 
L 43.21875 35.40625 
Q 43.21875 41.609375 39.140625 45 
Q 35.0625 48.390625 27.6875 48.390625 
Q 23 48.390625 18.546875 47.265625 
Q 14.109375 46.140625 10.015625 43.890625 
L 10.015625 52.203125 
Q 14.9375 54.109375 19.578125 55.046875 
Q 24.21875 56 28.609375 56 
Q 40.484375 56 46.34375 49.84375 
Q 52.203125 43.703125 52.203125 31.203125 
" id="DejaVuSans-61"/>
      <path d="M 14.796875 27.296875 
Q 14.796875 17.390625 18.875 11.75 
Q 22.953125 6.109375 30.078125 6.109375 
Q 37.203125 6.109375 41.296875 11.75 
Q 45.40625 17.390625 45.40625 27.296875 
Q 45.40625 37.203125 41.296875 42.84375 
Q 37.203125 48.484375 30.078125 48.484375 
Q 22.953125 48.484375 18.875 42.84375 
Q 14.796875 37.203125 14.796875 27.296875 
M 45.40625 8.203125 
Q 42.578125 3.328125 38.25 0.953125 
Q 33.9375 -1.421875 27.875 -1.421875 
Q 17.96875 -1.421875 11.734375 6.484375 
Q 5.515625 14.40625 5.515625 27.296875 
Q 5.515625 40.1875 11.734375 48.09375 
Q 17.96875 56 27.875 56 
Q 33.9375 56 38.25 53.625 
Q 42.578125 51.265625 45.40625 46.390625 
L 45.40625 54.6875 
L 54.390625 54.6875 
L 54.390625 -20.796875 
L 45.40625 -20.796875 
z
" id="DejaVuSans-71"/>
      <path d="M 18.109375 8.203125 
L 18.109375 -20.796875 
L 9.078125 -20.796875 
L 9.078125 54.6875 
L 18.109375 54.6875 
L 18.109375 46.390625 
Q 20.953125 51.265625 25.265625 53.625 
Q 29.59375 56 35.59375 56 
Q 45.5625 56 51.78125 48.09375 
Q 58.015625 40.1875 58.015625 27.296875 
Q 58.015625 14.40625 51.78125 6.484375 
Q 45.5625 -1.421875 35.59375 -1.421875 
Q 29.59375 -1.421875 25.265625 0.953125 
Q 20.953125 3.328125 18.109375 8.203125 
M 48.6875 27.296875 
Q 48.6875 37.203125 44.609375 42.84375 
Q 40.53125 48.484375 33.40625 48.484375 
Q 26.265625 48.484375 22.1875 42.84375 
Q 18.109375 37.203125 18.109375 27.296875 
Q 18.109375 17.390625 22.1875 11.75 
Q 26.265625 6.109375 33.40625 6.109375 
Q 40.53125 6.109375 44.609375 11.75 
Q 48.6875 17.390625 48.6875 27.296875 
" id="DejaVuSans-70"/>
     </defs>
     <g transform="translate(25.432812 279.366281)rotate(-90)scale(0.1 -0.1)">
      <use xlink:href="#DejaVuSans-53"/>
      <use x="63.476562" xlink:href="#DejaVuSans-75"/>
      <use x="126.855469" xlink:href="#DejaVuSans-63"/>
      <use x="181.835938" xlink:href="#DejaVuSans-63"/>
      <use x="236.816406" xlink:href="#DejaVuSans-65"/>
      <use x="298.339844" xlink:href="#DejaVuSans-73"/>
      <use x="350.439453" xlink:href="#DejaVuSans-73"/>
      <use x="402.539062" xlink:href="#DejaVuSans-66"/>
      <use x="437.744141" xlink:href="#DejaVuSans-75"/>
      <use x="501.123047" xlink:href="#DejaVuSans-6c"/>
      <use x="528.90625" xlink:href="#DejaVuSans-20"/>
      <use x="560.693359" xlink:href="#DejaVuSans-64"/>
      <use x="624.169922" xlink:href="#DejaVuSans-6f"/>
      <use x="685.351562" xlink:href="#DejaVuSans-77"/>
      <use x="767.138672" xlink:href="#DejaVuSans-6e"/>
      <use x="830.517578" xlink:href="#DejaVuSans-6c"/>
      <use x="858.300781" xlink:href="#DejaVuSans-6f"/>
      <use x="919.482422" xlink:href="#DejaVuSans-61"/>
      <use x="980.761719" xlink:href="#DejaVuSans-64"/>
      <use x="1044.238281" xlink:href="#DejaVuSans-20"/>
      <use x="1076.025391" xlink:href="#DejaVuSans-72"/>
      <use x="1117.107422" xlink:href="#DejaVuSans-65"/>
      <use x="1178.630859" xlink:href="#DejaVuSans-71"/>
      <use x="1242.107422" xlink:href="#DejaVuSans-75"/>
      <use x="1305.486328" xlink:href="#DejaVuSans-65"/>
      <use x="1367.009766" xlink:href="#DejaVuSans-73"/>
      <use x="1419.109375" xlink:href="#DejaVuSans-74"/>
      <use x="1458.318359" xlink:href="#DejaVuSans-73"/>
      <use x="1510.417969" xlink:href="#DejaVuSans-20"/>
      <use x="1542.205078" xlink:href="#DejaVuSans-70"/>
      <use x="1605.681641" xlink:href="#DejaVuSans-65"/>
      <use x="1667.205078" xlink:href="#DejaVuSans-72"/>
      <use x="1708.318359" xlink:href="#DejaVuSans-20"/>
      <use x="1740.105469" xlink:href="#DejaVuSans-73"/>
      <use x="1792.205078" xlink:href="#DejaVuSans-65"/>
      <use x="1853.728516" xlink:href="#DejaVuSans-63"/>
      <use x="1908.708984" xlink:href="#DejaVuSans-6f"/>
      <use x="1969.890625" xlink:href="#DejaVuSans-6e"/>
      <use x="2033.269531" xlink:href="#DejaVuSans-64"/>
     </g>
    </g>
   </g>
   <g id="line2d_29">
    <path clip-path="url(#p652c44c1d9)" d="M 57.6 295.481451 
L 57.95712 295.488 
L 59.3856 294.197512 
L 60.09984 293.447829 
L 60.45696 293.201726 
L 60.81408 292.719517 
L 61.1712 292.575785 
L 62.24256 291.49762 
L 62.59968 291.057807 
L 62.9568 290.979564 
L 63.31392 290.613167 
L 63.67104 289.972749 
L 64.02816 289.819365 
L 64.7424 289.181015 
L 65.09952 289.024185 
L 65.45664 288.632626 
L 65.81376 288.04391 
L 66.528 287.538607 
L 66.88512 286.870269 
L 67.24224 287.039852 
L 67.59936 286.308093 
L 67.95648 286.214684 
L 68.67072 285.20132 
L 69.02784 285.059311 
L 69.38496 285.216831 
L 69.74208 284.797009 
L 70.0992 283.970117 
L 70.45632 284.068696 
L 71.52768 283.05809 
L 72.24192 281.735891 
L 72.59904 282.013359 
L 72.95616 281.40672 
L 73.6704 280.801459 
L 74.02752 279.998006 
L 74.38464 280.288228 
L 74.74176 280.307185 
L 75.456 278.623415 
L 75.81312 278.700279 
L 76.17024 278.99705 
L 76.52736 277.893379 
L 76.88448 277.338787 
L 77.59872 277.768949 
L 77.95584 276.371265 
L 78.31296 277.079586 
L 79.38432 276.177899 
L 79.74144 275.93352 
L 80.09856 274.650614 
L 80.45568 274.457937 
L 80.8128 273.667927 
L 81.16992 274.63924 
L 81.52704 273.460084 
L 81.88416 273.332896 
L 82.24128 272.895495 
L 82.5984 273.316696 
L 82.95552 272.883776 
L 83.31264 271.49402 
L 83.66976 272.225434 
L 84.02688 271.00595 
L 84.384 270.381043 
L 84.74112 270.716418 
L 85.09824 269.888492 
L 85.45536 270.193191 
L 85.81248 270.154587 
L 86.1696 268.565259 
L 86.52672 269.311151 
L 86.88384 269.033337 
L 87.59808 267.532938 
L 87.9552 267.872794 
L 88.31232 268.048237 
L 88.66944 267.802824 
L 89.02656 265.897079 
L 89.38368 266.087343 
L 89.7408 266.033228 
L 90.09792 265.067775 
L 90.45504 265.793329 
L 90.81216 264.589356 
L 91.16928 264.643816 
L 91.5264 263.195808 
L 91.88352 263.227519 
L 92.24064 264.039589 
L 92.59776 262.174861 
L 92.95488 263.319549 
L 93.312 263.708005 
L 93.66912 261.498251 
L 94.02624 262.659828 
L 94.38336 261.22354 
L 94.74048 261.75366 
L 95.45472 260.195699 
L 95.81184 260.749947 
L 96.16896 260.094018 
L 96.52608 258.393014 
L 96.8832 258.763547 
L 97.24032 257.660565 
L 97.59744 258.500555 
L 97.95456 257.163879 
L 98.31168 257.875302 
L 98.6688 258.214124 
L 99.02592 257.775 
L 99.38304 256.512776 
L 99.74016 257.528897 
L 100.09728 256.885721 
L 100.4544 255.012376 
L 100.81152 255.256411 
L 101.16864 256.066068 
L 102.24 252.847775 
L 102.59712 255.008929 
L 102.95424 252.598226 
L 103.31136 254.47226 
L 103.66848 253.526798 
L 104.0256 253.098359 
L 104.38272 250.800711 
L 105.09696 250.752111 
L 105.8112 252.481379 
L 106.16832 250.713162 
L 106.52544 250.411221 
L 106.88256 251.065426 
L 107.5968 247.700989 
L 107.95392 249.248954 
L 108.31104 247.356307 
L 108.66816 246.894089 
L 109.02528 248.334169 
L 109.3824 248.627148 
L 109.73952 246.854106 
L 110.09664 246.192317 
L 110.45376 247.329422 
L 110.81088 246.401539 
L 111.168 246.873063 
L 111.52512 243.854686 
L 111.88224 246.561816 
L 112.23936 244.266236 
L 112.59648 245.642205 
L 112.9536 244.32173 
L 113.31072 244.489934 
L 113.66784 242.013052 
L 114.02496 243.374544 
L 114.7392 241.03519 
L 115.09632 243.901218 
L 115.45344 241.139973 
L 115.81056 243.240808 
L 116.16768 243.028829 
L 116.5248 242.519734 
L 116.88192 242.505257 
L 117.59616 240.018379 
L 117.95328 239.111521 
L 118.3104 238.620005 
L 118.66752 240.218639 
L 119.02464 239.868442 
L 119.38176 238.591397 
L 119.73888 236.274791 
L 120.096 236.291681 
L 120.45312 235.352768 
L 120.81024 236.16208 
L 121.16736 237.328138 
L 121.52448 234.149139 
L 121.8816 233.891662 
L 122.23872 237.744169 
L 122.59584 236.242047 
L 122.95296 236.488839 
L 123.31008 234.881588 
L 123.6672 234.947767 
L 124.02432 234.439017 
L 124.38144 235.250397 
L 124.73856 233.153009 
L 125.09568 233.73173 
L 125.4528 230.478624 
L 125.80992 231.567818 
L 126.16704 229.781333 
L 126.52416 231.42581 
L 126.88128 231.845632 
L 127.2384 230.118777 
L 127.59552 229.058191 
L 127.95264 229.145396 
L 128.30976 228.453275 
L 128.66688 229.35186 
L 129.024 231.416158 
L 129.38112 228.664565 
L 129.73824 230.582029 
L 130.45248 227.863869 
L 130.8096 227.990712 
L 131.16672 225.358723 
L 131.52384 227.164165 
L 131.88096 227.625349 
L 132.23808 228.59356 
L 132.5952 224.421189 
L 132.95232 227.410613 
L 133.30944 227.822852 
L 133.66656 226.093929 
L 134.02368 222.229703 
L 134.3808 225.667558 
L 134.73792 222.412384 
L 135.09504 224.19818 
L 136.1664 220.384277 
L 136.52352 220.920946 
L 136.88064 221.840902 
L 137.23776 223.358535 
L 137.59488 219.850365 
L 138.30912 223.305109 
L 138.66624 219.468113 
L 139.02336 220.540073 
L 139.38048 218.093867 
L 139.7376 219.352645 
L 140.09472 217.492742 
L 140.45184 219.616671 
L 140.80896 216.145726 
L 141.5232 219.277849 
L 141.88032 217.147027 
L 142.23744 218.786333 
L 142.59456 215.354682 
L 142.95168 215.351235 
L 143.3088 218.309293 
L 143.66592 215.230252 
L 144.02304 214.702889 
L 144.38016 217.234921 
L 144.73728 212.772672 
L 145.45152 211.439098 
L 145.80864 213.289349 
L 146.16576 211.937853 
L 146.52288 214.819736 
L 146.88 213.782934 
L 147.23712 214.986907 
L 147.59424 210.591181 
L 147.95136 213.49409 
L 148.30848 209.804273 
L 148.6656 213.717099 
L 149.02272 211.091314 
L 149.37984 210.276487 
L 149.73696 213.099775 
L 150.09408 211.073046 
L 150.4512 210.275453 
L 150.80832 209.971444 
L 151.16544 206.6463 
L 151.52256 207.651047 
L 151.87968 209.755673 
L 152.2368 207.434587 
L 152.95104 205.717383 
L 153.30816 207.281203 
L 153.66528 206.58081 
L 154.0224 203.591041 
L 154.37952 206.950309 
L 154.73664 206.248192 
L 155.09376 207.117824 
L 155.45088 203.256011 
L 155.808 201.684262 
L 156.16512 203.985357 
L 156.52224 203.271866 
L 156.87936 202.957861 
L 157.23648 200.732252 
L 157.5936 203.654463 
L 157.95072 201.311661 
L 158.30784 201.063835 
L 158.66496 204.510652 
L 159.02208 203.989149 
L 159.3792 197.868981 
L 159.73632 201.68633 
L 160.09344 197.770057 
L 160.45056 202.959929 
L 160.80768 198.697596 
L 161.1648 200.985593 
L 161.52192 197.393665 
L 161.87904 196.005632 
L 162.23616 195.812265 
L 162.59328 198.293973 
L 163.30752 194.481105 
L 163.66464 199.857105 
L 164.02176 193.688682 
L 164.37888 198.345331 
L 164.736 192.966918 
L 165.09312 194.860944 
L 165.45024 193.352272 
L 165.80736 196.661216 
L 166.16448 193.077216 
L 166.87872 193.538056 
L 167.23584 190.241176 
L 167.59296 191.168025 
L 167.95008 189.433931 
L 168.3072 194.048529 
L 168.66432 189.510795 
L 169.02144 194.935395 
L 169.37856 193.713154 
L 169.73568 188.235128 
L 170.0928 194.3453 
L 170.44992 188.640129 
L 170.80704 190.695121 
L 171.52128 187.45339 
L 171.8784 190.680645 
L 172.23552 187.416854 
L 172.59264 189.122339 
L 172.94976 191.6978 
L 173.30688 189.640051 
L 173.664 185.328772 
L 174.02112 190.785773 
L 174.37824 183.733586 
L 175.09248 189.398429 
L 175.4496 189.059262 
L 175.80672 189.685893 
L 176.16384 188.61221 
L 176.52096 182.343829 
L 176.87808 188.369554 
L 177.2352 186.140153 
L 177.59232 187.191088 
L 177.94944 179.761129 
L 178.30656 183.22518 
L 178.66368 181.370793 
L 179.37792 182.571319 
L 179.73504 178.855995 
L 180.09216 184.025876 
L 180.44928 183.76633 
L 180.8064 184.572541 
L 181.16352 179.266167 
L 181.52064 182.579591 
L 181.87776 178.475122 
L 182.23488 183.543666 
L 182.592 179.134843 
L 182.94912 176.921297 
L 183.30624 177.839529 
L 183.66336 181.575534 
L 184.3776 174.170393 
L 184.73472 181.454895 
L 185.09184 178.99766 
L 185.44896 180.985094 
L 185.80608 172.470423 
L 186.1632 175.566354 
L 186.52032 177.662363 
L 186.87744 175.937576 
L 187.23456 175.764201 
L 187.59168 174.853897 
L 187.9488 175.780746 
L 188.30592 172.378737 
L 188.66304 173.653026 
L 189.02016 175.806252 
L 189.37728 171.812081 
L 189.7344 170.422669 
L 190.09152 168.302532 
L 190.44864 171.55805 
L 190.80576 170.683938 
L 191.16288 173.777456 
L 191.52 169.081168 
L 191.87712 172.172273 
L 192.23424 171.215781 
L 192.59136 168.222221 
L 192.94848 166.769043 
L 193.3056 171.388467 
L 193.66272 172.090584 
L 194.01984 167.433934 
L 194.37696 166.84832 
L 194.73408 171.422246 
L 195.44832 163.603142 
L 195.80544 170.356835 
L 196.51968 169.765016 
L 197.23392 165.862186 
L 197.59104 162.966515 
L 197.94816 165.718798 
L 198.30528 165.882177 
L 198.6624 159.929525 
L 199.01952 168.652729 
L 199.73376 163.314644 
L 200.09088 158.918918 
L 200.448 160.235947 
L 200.80512 163.457342 
L 201.16224 165.057699 
L 201.51936 165.266921 
L 201.87648 161.316869 
L 202.59072 159.936074 
L 202.94784 157.77492 
L 203.30496 163.19435 
L 203.66208 159.158817 
L 204.0192 159.240162 
L 204.37632 163.349801 
L 204.73344 160.124615 
L 205.09056 153.627365 
L 205.44768 159.016463 
L 205.8048 154.079932 
L 206.16192 156.498908 
L 206.51904 155.177743 
L 206.87616 155.274254 
L 207.23328 151.81434 
L 207.5904 154.297771 
L 207.94752 153.016245 
L 208.30464 155.212212 
L 208.66176 158.583888 
L 209.01888 158.463938 
L 209.376 155.443148 
L 209.73312 153.581523 
L 210.09024 158.295734 
L 210.44736 150.972282 
L 210.80448 155.384897 
L 211.1616 152.972125 
L 211.51872 156.081843 
L 211.87584 149.587007 
L 212.23296 154.200571 
L 212.59008 155.391791 
L 212.9472 153.483633 
L 213.30432 146.213263 
L 213.66144 152.586771 
L 214.01856 152.544031 
L 214.37568 145.141647 
L 214.7328 153.132058 
L 215.08992 149.551849 
L 215.44704 149.742803 
L 215.80416 145.436005 
L 216.16128 150.056463 
L 216.5184 152.723955 
L 216.87552 152.789789 
L 217.23264 143.366192 
L 217.58976 149.726947 
L 217.94688 150.061633 
L 218.304 141.887163 
L 218.66112 150.359094 
L 219.37536 141.844767 
L 219.73248 142.446926 
L 220.0896 148.026288 
L 220.44672 141.748946 
L 220.80384 141.047518 
L 221.16096 147.869458 
L 221.51808 144.70011 
L 221.8752 139.787018 
L 222.23232 144.886927 
L 222.58944 146.867124 
L 222.94656 137.239131 
L 223.30368 141.027527 
L 223.6608 140.492236 
L 224.01792 135.548122 
L 224.37504 136.387422 
L 224.73216 135.447475 
L 225.08928 137.571748 
L 225.4464 138.300061 
L 225.80352 138.408291 
L 226.16064 138.973913 
L 226.51776 135.194824 
L 226.87488 133.563101 
L 227.232 134.756389 
L 227.58912 138.483087 
L 227.94624 131.580836 
L 228.30336 131.882433 
L 228.66048 140.091716 
L 229.0176 130.895264 
L 229.37472 140.625283 
L 229.73184 137.360114 
L 230.08896 139.024237 
L 230.44608 133.059176 
L 230.8032 134.326226 
L 231.16032 138.812602 
L 231.51744 129.923607 
L 231.87456 138.095665 
L 232.23168 128.145049 
L 232.5888 136.385354 
L 232.94592 138.097733 
L 233.30304 135.295471 
L 233.66016 126.048006 
L 234.01728 136.859636 
L 234.3744 131.402291 
L 234.73152 136.132358 
L 235.08864 134.119761 
L 235.44576 133.481756 
L 235.80288 127.665942 
L 236.16 124.083665 
L 236.51712 124.042304 
L 236.87424 124.632054 
L 237.23136 124.036444 
L 237.58848 125.834993 
L 237.9456 124.998106 
L 238.30272 126.918327 
L 238.65984 124.358377 
L 239.01696 122.745266 
L 239.37408 122.773186 
L 239.7312 123.835839 
L 240.08832 119.799962 
L 240.44544 122.864871 
L 240.80256 119.222275 
L 241.15968 129.804002 
L 241.5168 129.394176 
L 241.87392 127.103766 
L 242.23104 125.928746 
L 242.58816 125.849814 
L 242.94528 129.078103 
L 243.3024 121.567834 
L 243.65952 126.864212 
L 244.37376 123.528038 
L 244.73088 118.255098 
L 245.088 118.828304 
L 245.44512 121.029441 
L 245.80224 121.790498 
L 246.15936 116.415532 
L 246.51648 123.644541 
L 246.8736 119.764115 
L 247.23072 120.879505 
L 247.58784 116.840525 
L 247.94496 121.391012 
L 248.30208 122.41644 
L 248.6592 118.012787 
L 249.01632 119.038215 
L 249.37344 110.856851 
L 249.73056 112.654021 
L 250.08768 121.495106 
L 250.4448 120.819875 
L 250.80192 111.196018 
L 251.15904 110.039611 
L 251.51616 110.775506 
L 251.87328 120.610997 
L 252.2304 115.078167 
L 252.58752 115.716518 
L 252.94464 111.232899 
L 253.30176 115.65999 
L 253.65888 109.765244 
L 254.016 120.990147 
L 254.37312 118.417099 
L 254.73024 111.788181 
L 255.08736 117.591931 
L 255.44448 117.712569 
L 255.8016 115.050937 
L 256.15872 116.068093 
L 256.51584 108.236581 
L 256.87296 118.703184 
L 257.23008 110.756204 
L 257.5872 113.880054 
L 257.94432 119.526974 
L 258.30144 115.97951 
L 258.65856 109.957921 
L 259.3728 116.551681 
L 259.72992 106.805807 
L 260.08704 110.226083 
L 260.44416 112.186288 
L 260.80128 111.002996 
L 261.1584 107.976691 
L 261.51552 115.26981 
L 261.87264 111.587921 
L 262.22976 116.301098 
L 262.58688 114.703154 
L 262.944 114.898588 
L 263.30112 104.86456 
L 263.65824 116.592699 
L 264.01536 107.525503 
L 264.37248 111.910198 
L 264.7296 110.249867 
L 265.08672 109.179975 
L 265.44384 112.82257 
L 265.80096 112.063581 
L 266.15808 105.611141 
L 266.5152 115.321857 
L 266.87232 108.673982 
L 267.58656 115.522117 
L 267.94368 113.138988 
L 268.3008 114.343306 
L 268.65792 106.85751 
L 269.01504 106.662075 
L 269.37216 105.570468 
L 269.72928 114.113403 
L 270.0864 111.557244 
L 270.44352 102.940892 
L 270.80064 102.675487 
L 271.15776 101.128555 
L 271.51488 103.795013 
L 271.872 104.950386 
L 272.22912 103.389323 
L 272.58624 111.423508 
L 272.94336 104.652926 
L 273.30048 111.673746 
L 273.6576 112.416191 
L 274.01472 100.69598 
L 274.37184 110.378777 
L 274.72896 102.513142 
L 275.08608 111.112605 
L 275.4432 110.33259 
L 275.80032 108.354462 
L 276.15744 108.536109 
L 276.51456 100.917955 
L 276.87168 104.391312 
L 277.2288 99.879084 
L 277.58592 107.293187 
L 277.94304 102.473159 
L 278.30016 101.505293 
L 278.65728 110.875119 
L 279.0144 99.067704 
L 279.37152 98.484502 
L 279.72864 99.121474 
L 280.08576 110.419105 
L 280.44288 103.440335 
L 280.8 101.734161 
L 281.15712 100.9993 
L 281.51424 102.825079 
L 281.87136 108.679152 
L 282.22848 107.265613 
L 282.5856 105.376068 
L 282.94272 105.96892 
L 283.29984 98.447966 
L 283.65696 103.97149 
L 284.01408 102.970879 
L 284.3712 96.27268 
L 285.08544 104.882828 
L 285.44256 97.667952 
L 285.79968 107.117744 
L 286.1568 107.367294 
L 286.51392 99.381019 
L 286.87104 103.831549 
L 287.22816 102.0816 
L 287.58528 94.822949 
L 287.9424 99.984902 
L 288.29952 102.615857 
L 288.65664 108.157649 
L 289.01376 96.436059 
L 289.37088 95.127992 
L 289.728 95.685343 
L 290.08512 101.139585 
L 290.44224 104.336163 
L 290.79936 95.67707 
L 291.15648 100.420235 
L 291.5136 93.719623 
L 291.87072 97.645203 
L 292.22784 103.834996 
L 292.58496 106.166423 
L 292.94208 100.036259 
L 293.2992 97.770667 
L 293.65632 99.078044 
L 294.01344 96.26751 
L 294.37056 95.678794 
L 294.72768 94.575812 
L 295.0848 98.685107 
L 295.44192 94.524799 
L 295.79904 103.116679 
L 296.15616 104.965207 
L 296.51328 104.639483 
L 296.8704 97.234342 
L 297.22752 97.305346 
L 297.58464 98.008152 
L 297.94176 97.62073 
L 298.29888 103.238697 
L 298.656 98.685452 
L 299.01312 102.254975 
L 299.72736 90.86945 
L 300.08448 94.023632 
L 300.4416 99.706399 
L 300.79872 94.283178 
L 301.15584 100.118294 
L 301.51296 97.247095 
L 301.87008 91.364413 
L 302.2272 95.169699 
L 302.58432 91.190004 
L 303.29856 102.773721 
L 303.65568 99.038751 
L 304.0128 91.946236 
L 304.36992 91.73012 
L 304.72704 94.667842 
L 305.08416 91.675661 
L 305.44128 90.353462 
L 305.7984 90.631965 
L 306.15552 89.963627 
L 306.51264 93.596227 
L 306.86976 92.200266 
L 307.22688 89.328379 
L 307.584 97.16058 
L 307.94112 101.56768 
L 308.29824 97.205389 
L 308.65536 97.506296 
L 309.01248 87.630132 
L 309.72672 91.829389 
L 310.08384 96.25131 
L 310.44096 97.141278 
L 310.79808 87.867273 
L 311.1552 89.576549 
L 311.51232 87.302684 
L 311.86944 87.424702 
L 312.22656 99.50476 
L 312.58368 99.281406 
L 313.29792 93.435605 
L 314.01216 98.034003 
L 314.36928 97.86959 
L 314.7264 93.934015 
L 315.08352 98.014357 
L 315.44064 86.405133 
L 315.79776 97.80479 
L 316.15488 90.21421 
L 316.512 87.420565 
L 316.86912 94.389684 
L 317.22624 84.942649 
L 317.58336 92.528403 
L 317.94048 96.391595 
L 318.2976 98.147059 
L 318.65472 96.525676 
L 319.36896 84.111966 
L 319.72608 97.691045 
L 320.0832 95.051818 
L 320.44032 85.258033 
L 320.79744 91.93107 
L 321.15456 85.143598 
L 321.51168 93.410444 
L 321.8688 84.685861 
L 322.22592 93.516606 
L 322.58304 89.037812 
L 322.94016 88.781713 
L 323.29728 87.880371 
L 323.6544 82.310315 
L 324.01152 84.51352 
L 324.36864 91.152779 
L 324.72576 95.138677 
L 325.08288 91.260664 
L 325.44 85.828136 
L 325.79712 95.34652 
L 326.15424 83.098257 
L 326.51136 94.194594 
L 326.86848 88.767237 
L 327.2256 89.97638 
L 327.58272 89.329413 
L 327.93984 93.729963 
L 328.29696 85.447608 
L 328.65408 82.83044 
L 329.0112 83.359526 
L 329.36832 93.554865 
L 329.72544 80.964678 
L 330.08256 91.29203 
L 330.43968 80.477298 
L 330.7968 83.391581 
L 331.15392 79.184397 
L 331.51104 87.543962 
L 331.86816 89.205672 
L 332.22528 88.829969 
L 332.5824 89.276676 
L 333.29664 85.705774 
L 333.65376 91.719091 
L 334.01088 85.01193 
L 334.368 88.390844 
L 334.72512 80.253944 
L 335.08224 81.738488 
L 335.43936 88.868918 
L 335.79648 78.653243 
L 336.1536 91.04248 
L 336.51072 89.350783 
L 336.86784 78.490553 
L 337.22496 78.047982 
L 337.58208 90.557513 
L 337.9392 85.254241 
L 338.29632 83.340569 
L 338.65344 80.226025 
L 339.01056 90.65816 
L 339.36768 81.558564 
L 339.7248 91.094872 
L 340.08192 90.320372 
L 340.43904 86.200392 
L 340.79616 77.341384 
L 341.15328 90.291764 
L 341.5104 79.218176 
L 341.86752 81.417245 
L 342.22464 77.653321 
L 342.58176 84.246392 
L 342.93888 81.222844 
L 343.296 88.336385 
L 343.65312 77.7843 
L 344.01024 74.830723 
L 344.36736 80.976052 
L 345.0816 88.273308 
L 345.43872 77.383435 
L 345.79584 75.292596 
L 346.15296 89.074003 
L 346.51008 76.658914 
L 346.8672 83.234407 
L 347.22432 73.808742 
L 347.58144 73.518864 
L 348.29568 88.178176 
L 349.00992 75.498027 
L 349.36704 72.66302 
L 349.72416 78.969316 
L 350.08128 81.701263 
L 350.4384 85.671995 
L 350.79552 76.98257 
L 351.15264 74.220292 
L 351.50976 72.442768 
L 351.86688 77.578525 
L 352.224 72.726441 
L 352.58112 73.551609 
L 352.93824 82.826648 
L 353.29536 73.649499 
L 353.65248 74.822795 
L 354.0096 82.950044 
L 354.36672 72.940489 
L 355.08096 85.895004 
L 355.43808 75.431158 
L 355.7952 75.380145 
L 356.15232 81.70402 
L 356.50944 76.336637 
L 356.86656 77.076669 
L 357.22368 78.196884 
L 357.5808 71.729277 
L 357.93792 77.387916 
L 358.29504 73.620201 
L 358.65216 84.416665 
L 359.00928 81.124265 
L 359.3664 81.347619 
L 359.72352 81.25421 
L 360.08064 81.414832 
L 360.43776 76.336982 
L 360.79488 83.039317 
L 361.152 74.175483 
L 361.50912 84.159188 
L 361.86624 73.728431 
L 362.22336 77.849445 
L 362.58048 76.131551 
L 362.9376 70.046541 
L 363.29472 82.15831 
L 363.65184 83.821055 
L 364.00896 71.094029 
L 364.36608 83.688352 
L 364.7232 69.702894 
L 365.08032 70.325044 
L 365.43744 80.508319 
L 365.79456 76.001951 
L 366.15168 73.55609 
L 366.5088 68.0498 
L 366.86592 77.29175 
L 367.22304 81.879463 
L 367.58016 70.869296 
L 367.93728 74.31956 
L 368.2944 74.017619 
L 368.65152 76.011602 
L 369.00864 66.970257 
L 369.36576 75.762742 
L 369.72288 70.910314 
L 370.08 75.256749 
L 370.43712 71.606915 
L 370.79424 75.1854 
L 371.15136 81.490662 
L 371.50848 69.85869 
L 372.22272 80.740979 
L 372.57984 78.165863 
L 372.93696 74.651488 
L 373.29408 68.257299 
L 373.6512 76.700276 
L 374.00832 70.786573 
L 374.36544 78.041777 
L 374.72256 69.370621 
L 375.07968 73.343766 
L 375.4368 74.970664 
L 375.79392 65.766974 
L 376.15104 71.010271 
L 376.50816 67.314939 
L 376.86528 72.028461 
L 377.2224 79.914777 
L 377.57952 70.64353 
L 377.93664 64.469592 
L 378.29376 77.701232 
L 378.65088 65.030044 
L 379.008 72.99805 
L 379.36512 76.297343 
L 379.72224 75.867181 
L 380.07936 66.498733 
L 380.43648 79.019639 
L 380.7936 71.570724 
L 381.15072 69.880405 
L 381.50784 77.861853 
L 381.86496 71.62863 
L 382.22208 74.074147 
L 382.5792 64.037361 
L 382.93632 77.418248 
L 383.29344 71.009582 
L 383.65056 68.888411 
L 384.00768 75.159549 
L 384.3648 66.527341 
L 384.72192 70.423968 
L 385.07904 69.169671 
L 385.43616 70.328491 
L 385.79328 75.399792 
L 386.1504 64.315174 
L 386.50752 75.836159 
L 386.86464 62.701375 
L 387.22176 70.083767 
L 387.57888 69.007326 
L 387.936 73.895601 
L 388.29312 73.479571 
L 389.00736 64.924916 
L 389.36448 64.290357 
L 389.7216 63.209436 
L 390.07872 60.970728 
L 390.43584 66.715193 
L 390.79296 59.548227 
L 391.15008 70.145465 
L 391.86432 64.109399 
L 392.57856 71.241897 
L 392.93568 64.074587 
L 393.2928 73.14454 
L 393.64992 67.001279 
L 394.36416 59.150809 
L 394.72128 66.241256 
L 395.0784 64.224868 
L 395.43552 60.493689 
L 395.79264 70.174418 
L 396.14976 69.389923 
L 396.50688 71.75375 
L 396.864 63.936369 
L 397.22112 64.398932 
L 397.57824 60.925575 
L 397.93536 60.08593 
L 398.29248 62.401502 
L 398.6496 72.620624 
L 399.00672 65.334743 
L 399.36384 68.007405 
L 399.72096 57.234379 
L 400.07808 69.377514 
L 400.4352 72.357632 
L 400.79232 65.725957 
L 401.14944 56.675995 
L 401.50656 72.395547 
L 401.86368 71.776499 
L 402.2208 60.150386 
L 402.57792 69.514008 
L 402.93504 61.252333 
L 403.29216 65.382998 
L 403.64928 57.146485 
L 404.0064 68.324856 
L 404.36352 64.641588 
L 404.72064 58.296343 
L 405.07776 66.325013 
L 405.43488 69.795613 
L 405.792 55.860822 
L 406.14912 68.603704 
L 406.50624 70.764858 
L 406.86336 59.36072 
L 407.22048 67.682025 
L 407.5776 66.434277 
L 407.93472 55.216612 
L 408.64896 70.837241 
L 409.3632 60.046981 
L 409.72032 60.825617 
L 410.07744 67.466599 
L 410.43456 57.250234 
L 410.79168 55.045306 
L 411.1488 53.568 
L 411.50592 65.61428 
L 411.86304 68.248682 
L 412.22016 56.449194 
L 412.57728 63.245283 
L 412.9344 59.813977 
L 413.29152 61.61804 
L 413.64864 54.287351 
L 414.00576 68.753985 
L 414.36288 57.265745 
L 414.72 58.850936 
L 414.72 58.850936 
" style="fill:none;stroke:#000080;stroke-linecap:square;stroke-width:0.5;"/>
   </g>
   <g id="patch_3">
    <path d="M 57.6 307.584 
L 57.6 41.472 
" style="fill:none;stroke:#000000;stroke-linecap:square;stroke-linejoin:miter;stroke-width:0.8;"/>
   </g>
   <g id="patch_4">
    <path d="M 414.72 307.584 
L 414.72 41.472 
" style="fill:none;stroke:#000000;stroke-linecap:square;stroke-linejoin:miter;stroke-width:0.8;"/>
   </g>
   <g id="patch_5">
    <path d="M 57.6 307.584 
L 414.72 307.584 
" style="fill:none;stroke:#000000;stroke-linecap:square;stroke-linejoin:miter;stroke-width:0.8;"/>
   </g>
   <g id="patch_6">
    <path d="M 57.6 41.472 
L 414.72 41.472 
" style="fill:none;stroke:#000000;stroke-linecap:square;stroke-linejoin:miter;stroke-width:0.8;"/>
   </g>
   <g id="text_17">
    <!-- Test -->
    <defs>
     <path d="M -0.296875 72.90625 
L 61.375 72.90625 
L 61.375 64.59375 
L 35.5 64.59375 
L 35.5 0 
L 25.59375 0 
L 25.59375 64.59375 
L -0.296875 64.59375 
z
" id="DejaVuSans-54"/>
    </defs>
    <g transform="translate(223.341563 35.472)scale(0.12 -0.12)">
     <use xlink:href="#DejaVuSans-54"/>
     <use x="60.818359" xlink:href="#DejaVuSans-65"/>
     <use x="122.341797" xlink:href="#DejaVuSans-73"/>
     <use x="174.441406" xlink:href="#DejaVuSans-74"/>
    </g>
   </g>
   <g id="legend_1">
    <g id="patch_7">
     <path d="M 64.6 64.150125 
L 306.276563 64.150125 
Q 308.276563 64.150125 308.276563 62.150125 
L 308.276563 48.472 
Q 308.276563 46.472 306.276563 46.472 
L 64.6 46.472 
Q 62.6 46.472 62.6 48.472 
L 62.6 62.150125 
Q 62.6 64.150125 64.6 64.150125 
z
" style="fill:#ffffff;opacity:0.8;stroke:#cccccc;stroke-linejoin:miter;"/>
    </g>
    <g id="line2d_30">
     <path d="M 66.6 54.570438 
L 86.6 54.570438 
" style="fill:none;stroke:#000080;stroke-linecap:square;stroke-width:0.5;"/>
    </g>
    <g id="line2d_31"/>
    <g id="text_18">
     <!-- Successful download requests per second -->
     <g transform="translate(94.6 58.070438)scale(0.1 -0.1)">
      <use xlink:href="#DejaVuSans-53"/>
      <use x="63.476562" xlink:href="#DejaVuSans-75"/>
      <use x="126.855469" xlink:href="#DejaVuSans-63"/>
      <use x="181.835938" xlink:href="#DejaVuSans-63"/>
      <use x="236.816406" xlink:href="#DejaVuSans-65"/>
      <use x="298.339844" xlink:href="#DejaVuSans-73"/>
      <use x="350.439453" xlink:href="#DejaVuSans-73"/>
      <use x="402.539062" xlink:href="#DejaVuSans-66"/>
      <use x="437.744141" xlink:href="#DejaVuSans-75"/>
      <use x="501.123047" xlink:href="#DejaVuSans-6c"/>
      <use x="528.90625" xlink:href="#DejaVuSans-20"/>
      <use x="560.693359" xlink:href="#DejaVuSans-64"/>
      <use x="624.169922" xlink:href="#DejaVuSans-6f"/>
      <use x="685.351562" xlink:href="#DejaVuSans-77"/>
      <use x="767.138672" xlink:href="#DejaVuSans-6e"/>
      <use x="830.517578" xlink:href="#DejaVuSans-6c"/>
      <use x="858.300781" xlink:href="#DejaVuSans-6f"/>
      <use x="919.482422" xlink:href="#DejaVuSans-61"/>
      <use x="980.761719" xlink:href="#DejaVuSans-64"/>
      <use x="1044.238281" xlink:href="#DejaVuSans-20"/>
      <use x="1076.025391" xlink:href="#DejaVuSans-72"/>
      <use x="1117.107422" xlink:href="#DejaVuSans-65"/>
      <use x="1178.630859" xlink:href="#DejaVuSans-71"/>
      <use x="1242.107422" xlink:href="#DejaVuSans-75"/>
      <use x="1305.486328" xlink:href="#DejaVuSans-65"/>
      <use x="1367.009766" xlink:href="#DejaVuSans-73"/>
      <use x="1419.109375" xlink:href="#DejaVuSans-74"/>
      <use x="1458.318359" xlink:href="#DejaVuSans-73"/>
      <use x="1510.417969" xlink:href="#DejaVuSans-20"/>
      <use x="1542.205078" xlink:href="#DejaVuSans-70"/>
      <use x="1605.681641" xlink:href="#DejaVuSans-65"/>
      <use x="1667.205078" xlink:href="#DejaVuSans-72"/>
      <use x="1708.318359" xlink:href="#DejaVuSans-20"/>
      <use x="1740.105469" xlink:href="#DejaVuSans-73"/>
      <use x="1792.205078" xlink:href="#DejaVuSans-65"/>
      <use x="1853.728516" xlink:href="#DejaVuSans-63"/>
      <use x="1908.708984" xlink:href="#DejaVuSans-6f"/>
      <use x="1969.890625" xlink:href="#DejaVuSans-6e"/>
      <use x="2033.269531" xlink:href="#DejaVuSans-64"/>
     </g>
    </g>
   </g>
  </g>
 </g>
 <defs>
  <clipPath id="p652c44c1d9">
   <rect height="266.112" width="357.12" x="57.6" y="41.472"/>
  </clipPath>
 </defs>
</svg>
