<?xml version="1.0" encoding="utf-8" standalone="no"?>
<!DOCTYPE svg PUBLIC "-//W3C//DTD SVG 1.1//EN"
  "http://www.w3.org/Graphics/SVG/1.1/DTD/svg11.dtd">
<!-- Created with matplotlib (http://matplotlib.org/) -->
<svg height="345pt" version="1.1" viewBox="0 0 460 345" width="460pt" xmlns="http://www.w3.org/2000/svg" xmlns:xlink="http://www.w3.org/1999/xlink">
 <defs>
  <style type="text/css">
*{stroke-linecap:butt;stroke-linejoin:round;}
  </style>
 </defs>
 <g id="figure_1">
  <g id="patch_1">
   <path d="M 0 345.6 
L 460.8 345.6 
L 460.8 0 
L 0 0 
z
" style="fill:#ffffff;"/>
  </g>
  <g id="axes_1">
   <g id="patch_2">
    <path d="M 57.6 307.584 
L 414.72 307.584 
L 414.72 41.472 
L 57.6 41.472 
z
" style="fill:#ffffff;"/>
   </g>
   <g id="matplotlib.axis_1">
    <g id="xtick_1">
     <g id="line2d_1">
      <path clip-path="url(#pf67525d67b)" d="M 57.6 307.584 
L 57.6 41.472 
" style="fill:none;stroke:#b0b0b0;stroke-linecap:square;stroke-width:0.8;"/>
     </g>
     <g id="line2d_2">
      <defs>
       <path d="M 0 0 
L 0 3.5 
" id="m11db64a6c2" style="stroke:#000000;stroke-width:0.8;"/>
      </defs>
      <g>
       <use style="stroke:#000000;stroke-width:0.8;" x="57.6" xlink:href="#m11db64a6c2" y="307.584"/>
      </g>
     </g>
     <g id="text_1">
      <!-- 0 -->
      <defs>
       <path d="M 31.78125 66.40625 
Q 24.171875 66.40625 20.328125 58.90625 
Q 16.5 51.421875 16.5 36.375 
Q 16.5 21.390625 20.328125 13.890625 
Q 24.171875 6.390625 31.78125 6.390625 
Q 39.453125 6.390625 43.28125 13.890625 
Q 47.125 21.390625 47.125 36.375 
Q 47.125 51.421875 43.28125 58.90625 
Q 39.453125 66.40625 31.78125 66.40625 
M 31.78125 74.21875 
Q 44.046875 74.21875 50.515625 64.515625 
Q 56.984375 54.828125 56.984375 36.375 
Q 56.984375 17.96875 50.515625 8.265625 
Q 44.046875 -1.421875 31.78125 -1.421875 
Q 19.53125 -1.421875 13.0625 8.265625 
Q 6.59375 17.96875 6.59375 36.375 
Q 6.59375 54.828125 13.0625 64.515625 
Q 19.53125 74.21875 31.78125 74.21875 
" id="DejaVuSans-30"/>
      </defs>
      <g transform="translate(54.41875 322.182437)scale(0.1 -0.1)">
       <use xlink:href="#DejaVuSans-30"/>
      </g>
     </g>
    </g>
    <g id="xtick_2">
     <g id="line2d_3">
      <path clip-path="url(#pf67525d67b)" d="M 129.024 307.584 
L 129.024 41.472 
" style="fill:none;stroke:#b0b0b0;stroke-linecap:square;stroke-width:0.8;"/>
     </g>
     <g id="line2d_4">
      <g>
       <use style="stroke:#000000;stroke-width:0.8;" x="129.024" xlink:href="#m11db64a6c2" y="307.584"/>
      </g>
     </g>
     <g id="text_2">
      <!-- 200 -->
      <defs>
       <path d="M 19.1875 8.296875 
L 53.609375 8.296875 
L 53.609375 0 
L 7.328125 0 
L 7.328125 8.296875 
Q 12.9375 14.109375 22.625 23.890625 
Q 32.328125 33.6875 34.8125 36.53125 
Q 39.546875 41.84375 41.421875 45.53125 
Q 43.3125 49.21875 43.3125 52.78125 
Q 43.3125 58.59375 39.234375 62.25 
Q 35.15625 65.921875 28.609375 65.921875 
Q 23.96875 65.921875 18.8125 64.3125 
Q 13.671875 62.703125 7.8125 59.421875 
L 7.8125 69.390625 
Q 13.765625 71.78125 18.9375 73 
Q 24.125 74.21875 28.421875 74.21875 
Q 39.75 74.21875 46.484375 68.546875 
Q 53.21875 62.890625 53.21875 53.421875 
Q 53.21875 48.921875 51.53125 44.890625 
Q 49.859375 40.875 45.40625 35.40625 
Q 44.1875 33.984375 37.640625 27.21875 
Q 31.109375 20.453125 19.1875 8.296875 
" id="DejaVuSans-32"/>
      </defs>
      <g transform="translate(119.48025 322.182437)scale(0.1 -0.1)">
       <use xlink:href="#DejaVuSans-32"/>
       <use x="63.623047" xlink:href="#DejaVuSans-30"/>
       <use x="127.246094" xlink:href="#DejaVuSans-30"/>
      </g>
     </g>
    </g>
    <g id="xtick_3">
     <g id="line2d_5">
      <path clip-path="url(#pf67525d67b)" d="M 200.448 307.584 
L 200.448 41.472 
" style="fill:none;stroke:#b0b0b0;stroke-linecap:square;stroke-width:0.8;"/>
     </g>
     <g id="line2d_6">
      <g>
       <use style="stroke:#000000;stroke-width:0.8;" x="200.448" xlink:href="#m11db64a6c2" y="307.584"/>
      </g>
     </g>
     <g id="text_3">
      <!-- 400 -->
      <defs>
       <path d="M 37.796875 64.3125 
L 12.890625 25.390625 
L 37.796875 25.390625 
z
M 35.203125 72.90625 
L 47.609375 72.90625 
L 47.609375 25.390625 
L 58.015625 25.390625 
L 58.015625 17.1875 
L 47.609375 17.1875 
L 47.609375 0 
L 37.796875 0 
L 37.796875 17.1875 
L 4.890625 17.1875 
L 4.890625 26.703125 
z
" id="DejaVuSans-34"/>
      </defs>
      <g transform="translate(190.90425 322.182437)scale(0.1 -0.1)">
       <use xlink:href="#DejaVuSans-34"/>
       <use x="63.623047" xlink:href="#DejaVuSans-30"/>
       <use x="127.246094" xlink:href="#DejaVuSans-30"/>
      </g>
     </g>
    </g>
    <g id="xtick_4">
     <g id="line2d_7">
      <path clip-path="url(#pf67525d67b)" d="M 271.872 307.584 
L 271.872 41.472 
" style="fill:none;stroke:#b0b0b0;stroke-linecap:square;stroke-width:0.8;"/>
     </g>
     <g id="line2d_8">
      <g>
       <use style="stroke:#000000;stroke-width:0.8;" x="271.872" xlink:href="#m11db64a6c2" y="307.584"/>
      </g>
     </g>
     <g id="text_4">
      <!-- 600 -->
      <defs>
       <path d="M 33.015625 40.375 
Q 26.375 40.375 22.484375 35.828125 
Q 18.609375 31.296875 18.609375 23.390625 
Q 18.609375 15.53125 22.484375 10.953125 
Q 26.375 6.390625 33.015625 6.390625 
Q 39.65625 6.390625 43.53125 10.953125 
Q 47.40625 15.53125 47.40625 23.390625 
Q 47.40625 31.296875 43.53125 35.828125 
Q 39.65625 40.375 33.015625 40.375 
M 52.59375 71.296875 
L 52.59375 62.3125 
Q 48.875 64.0625 45.09375 64.984375 
Q 41.3125 65.921875 37.59375 65.921875 
Q 27.828125 65.921875 22.671875 59.328125 
Q 17.53125 52.734375 16.796875 39.40625 
Q 19.671875 43.65625 24.015625 45.921875 
Q 28.375 48.1875 33.59375 48.1875 
Q 44.578125 48.1875 50.953125 41.515625 
Q 57.328125 34.859375 57.328125 23.390625 
Q 57.328125 12.15625 50.6875 5.359375 
Q 44.046875 -1.421875 33.015625 -1.421875 
Q 20.359375 -1.421875 13.671875 8.265625 
Q 6.984375 17.96875 6.984375 36.375 
Q 6.984375 53.65625 15.1875 63.9375 
Q 23.390625 74.21875 37.203125 74.21875 
Q 40.921875 74.21875 44.703125 73.484375 
Q 48.484375 72.75 52.59375 71.296875 
" id="DejaVuSans-36"/>
      </defs>
      <g transform="translate(262.32825 322.182437)scale(0.1 -0.1)">
       <use xlink:href="#DejaVuSans-36"/>
       <use x="63.623047" xlink:href="#DejaVuSans-30"/>
       <use x="127.246094" xlink:href="#DejaVuSans-30"/>
      </g>
     </g>
    </g>
    <g id="xtick_5">
     <g id="line2d_9">
      <path clip-path="url(#pf67525d67b)" d="M 343.296 307.584 
L 343.296 41.472 
" style="fill:none;stroke:#b0b0b0;stroke-linecap:square;stroke-width:0.8;"/>
     </g>
     <g id="line2d_10">
      <g>
       <use style="stroke:#000000;stroke-width:0.8;" x="343.296" xlink:href="#m11db64a6c2" y="307.584"/>
      </g>
     </g>
     <g id="text_5">
      <!-- 800 -->
      <defs>
       <path d="M 31.78125 34.625 
Q 24.75 34.625 20.71875 30.859375 
Q 16.703125 27.09375 16.703125 20.515625 
Q 16.703125 13.921875 20.71875 10.15625 
Q 24.75 6.390625 31.78125 6.390625 
Q 38.8125 6.390625 42.859375 10.171875 
Q 46.921875 13.96875 46.921875 20.515625 
Q 46.921875 27.09375 42.890625 30.859375 
Q 38.875 34.625 31.78125 34.625 
M 21.921875 38.8125 
Q 15.578125 40.375 12.03125 44.71875 
Q 8.5 49.078125 8.5 55.328125 
Q 8.5 64.0625 14.71875 69.140625 
Q 20.953125 74.21875 31.78125 74.21875 
Q 42.671875 74.21875 48.875 69.140625 
Q 55.078125 64.0625 55.078125 55.328125 
Q 55.078125 49.078125 51.53125 44.71875 
Q 48 40.375 41.703125 38.8125 
Q 48.828125 37.15625 52.796875 32.3125 
Q 56.78125 27.484375 56.78125 20.515625 
Q 56.78125 9.90625 50.3125 4.234375 
Q 43.84375 -1.421875 31.78125 -1.421875 
Q 19.734375 -1.421875 13.25 4.234375 
Q 6.78125 9.90625 6.78125 20.515625 
Q 6.78125 27.484375 10.78125 32.3125 
Q 14.796875 37.15625 21.921875 38.8125 
M 18.3125 54.390625 
Q 18.3125 48.734375 21.84375 45.5625 
Q 25.390625 42.390625 31.78125 42.390625 
Q 38.140625 42.390625 41.71875 45.5625 
Q 45.3125 48.734375 45.3125 54.390625 
Q 45.3125 60.0625 41.71875 63.234375 
Q 38.140625 66.40625 31.78125 66.40625 
Q 25.390625 66.40625 21.84375 63.234375 
Q 18.3125 60.0625 18.3125 54.390625 
" id="DejaVuSans-38"/>
      </defs>
      <g transform="translate(333.75225 322.182437)scale(0.1 -0.1)">
       <use xlink:href="#DejaVuSans-38"/>
       <use x="63.623047" xlink:href="#DejaVuSans-30"/>
       <use x="127.246094" xlink:href="#DejaVuSans-30"/>
      </g>
     </g>
    </g>
    <g id="xtick_6">
     <g id="line2d_11">
      <path clip-path="url(#pf67525d67b)" d="M 414.72 307.584 
L 414.72 41.472 
" style="fill:none;stroke:#b0b0b0;stroke-linecap:square;stroke-width:0.8;"/>
     </g>
     <g id="line2d_12">
      <g>
       <use style="stroke:#000000;stroke-width:0.8;" x="414.72" xlink:href="#m11db64a6c2" y="307.584"/>
      </g>
     </g>
     <g id="text_6">
      <!-- 1000 -->
      <defs>
       <path d="M 12.40625 8.296875 
L 28.515625 8.296875 
L 28.515625 63.921875 
L 10.984375 60.40625 
L 10.984375 69.390625 
L 28.421875 72.90625 
L 38.28125 72.90625 
L 38.28125 8.296875 
L 54.390625 8.296875 
L 54.390625 0 
L 12.40625 0 
z
" id="DejaVuSans-31"/>
      </defs>
      <g transform="translate(401.995 322.182437)scale(0.1 -0.1)">
       <use xlink:href="#DejaVuSans-31"/>
       <use x="63.623047" xlink:href="#DejaVuSans-30"/>
       <use x="127.246094" xlink:href="#DejaVuSans-30"/>
       <use x="190.869141" xlink:href="#DejaVuSans-30"/>
      </g>
     </g>
    </g>
    <g id="text_7">
     <!-- Number of clients -->
     <defs>
      <path d="M 9.8125 72.90625 
L 23.09375 72.90625 
L 55.421875 11.921875 
L 55.421875 72.90625 
L 64.984375 72.90625 
L 64.984375 0 
L 51.703125 0 
L 19.390625 60.984375 
L 19.390625 0 
L 9.8125 0 
z
" id="DejaVuSans-4e"/>
      <path d="M 8.5 21.578125 
L 8.5 54.6875 
L 17.484375 54.6875 
L 17.484375 21.921875 
Q 17.484375 14.15625 20.5 10.265625 
Q 23.53125 6.390625 29.59375 6.390625 
Q 36.859375 6.390625 41.078125 11.03125 
Q 45.3125 15.671875 45.3125 23.6875 
L 45.3125 54.6875 
L 54.296875 54.6875 
L 54.296875 0 
L 45.3125 0 
L 45.3125 8.40625 
Q 42.046875 3.421875 37.71875 1 
Q 33.40625 -1.421875 27.6875 -1.421875 
Q 18.265625 -1.421875 13.375 4.4375 
Q 8.5 10.296875 8.5 21.578125 
M 31.109375 56 
z
" id="DejaVuSans-75"/>
      <path d="M 52 44.1875 
Q 55.375 50.25 60.0625 53.125 
Q 64.75 56 71.09375 56 
Q 79.640625 56 84.28125 50.015625 
Q 88.921875 44.046875 88.921875 33.015625 
L 88.921875 0 
L 79.890625 0 
L 79.890625 32.71875 
Q 79.890625 40.578125 77.09375 44.375 
Q 74.3125 48.1875 68.609375 48.1875 
Q 61.625 48.1875 57.5625 43.546875 
Q 53.515625 38.921875 53.515625 30.90625 
L 53.515625 0 
L 44.484375 0 
L 44.484375 32.71875 
Q 44.484375 40.625 41.703125 44.40625 
Q 38.921875 48.1875 33.109375 48.1875 
Q 26.21875 48.1875 22.15625 43.53125 
Q 18.109375 38.875 18.109375 30.90625 
L 18.109375 0 
L 9.078125 0 
L 9.078125 54.6875 
L 18.109375 54.6875 
L 18.109375 46.1875 
Q 21.1875 51.21875 25.484375 53.609375 
Q 29.78125 56 35.6875 56 
Q 41.65625 56 45.828125 52.96875 
Q 50 49.953125 52 44.1875 
" id="DejaVuSans-6d"/>
      <path d="M 48.6875 27.296875 
Q 48.6875 37.203125 44.609375 42.84375 
Q 40.53125 48.484375 33.40625 48.484375 
Q 26.265625 48.484375 22.1875 42.84375 
Q 18.109375 37.203125 18.109375 27.296875 
Q 18.109375 17.390625 22.1875 11.75 
Q 26.265625 6.109375 33.40625 6.109375 
Q 40.53125 6.109375 44.609375 11.75 
Q 48.6875 17.390625 48.6875 27.296875 
M 18.109375 46.390625 
Q 20.953125 51.265625 25.265625 53.625 
Q 29.59375 56 35.59375 56 
Q 45.5625 56 51.78125 48.09375 
Q 58.015625 40.1875 58.015625 27.296875 
Q 58.015625 14.40625 51.78125 6.484375 
Q 45.5625 -1.421875 35.59375 -1.421875 
Q 29.59375 -1.421875 25.265625 0.953125 
Q 20.953125 3.328125 18.109375 8.203125 
L 18.109375 0 
L 9.078125 0 
L 9.078125 75.984375 
L 18.109375 75.984375 
z
" id="DejaVuSans-62"/>
      <path d="M 56.203125 29.59375 
L 56.203125 25.203125 
L 14.890625 25.203125 
Q 15.484375 15.921875 20.484375 11.0625 
Q 25.484375 6.203125 34.421875 6.203125 
Q 39.59375 6.203125 44.453125 7.46875 
Q 49.3125 8.734375 54.109375 11.28125 
L 54.109375 2.78125 
Q 49.265625 0.734375 44.1875 -0.34375 
Q 39.109375 -1.421875 33.890625 -1.421875 
Q 20.796875 -1.421875 13.15625 6.1875 
Q 5.515625 13.8125 5.515625 26.8125 
Q 5.515625 40.234375 12.765625 48.109375 
Q 20.015625 56 32.328125 56 
Q 43.359375 56 49.78125 48.890625 
Q 56.203125 41.796875 56.203125 29.59375 
M 47.21875 32.234375 
Q 47.125 39.59375 43.09375 43.984375 
Q 39.0625 48.390625 32.421875 48.390625 
Q 24.90625 48.390625 20.390625 44.140625 
Q 15.875 39.890625 15.1875 32.171875 
z
" id="DejaVuSans-65"/>
      <path d="M 41.109375 46.296875 
Q 39.59375 47.171875 37.8125 47.578125 
Q 36.03125 48 33.890625 48 
Q 26.265625 48 22.1875 43.046875 
Q 18.109375 38.09375 18.109375 28.8125 
L 18.109375 0 
L 9.078125 0 
L 9.078125 54.6875 
L 18.109375 54.6875 
L 18.109375 46.1875 
Q 20.953125 51.171875 25.484375 53.578125 
Q 30.03125 56 36.53125 56 
Q 37.453125 56 38.578125 55.875 
Q 39.703125 55.765625 41.0625 55.515625 
z
" id="DejaVuSans-72"/>
      <path id="DejaVuSans-20"/>
      <path d="M 30.609375 48.390625 
Q 23.390625 48.390625 19.1875 42.75 
Q 14.984375 37.109375 14.984375 27.296875 
Q 14.984375 17.484375 19.15625 11.84375 
Q 23.34375 6.203125 30.609375 6.203125 
Q 37.796875 6.203125 41.984375 11.859375 
Q 46.1875 17.53125 46.1875 27.296875 
Q 46.1875 37.015625 41.984375 42.703125 
Q 37.796875 48.390625 30.609375 48.390625 
M 30.609375 56 
Q 42.328125 56 49.015625 48.375 
Q 55.71875 40.765625 55.71875 27.296875 
Q 55.71875 13.875 49.015625 6.21875 
Q 42.328125 -1.421875 30.609375 -1.421875 
Q 18.84375 -1.421875 12.171875 6.21875 
Q 5.515625 13.875 5.515625 27.296875 
Q 5.515625 40.765625 12.171875 48.375 
Q 18.84375 56 30.609375 56 
" id="DejaVuSans-6f"/>
      <path d="M 37.109375 75.984375 
L 37.109375 68.5 
L 28.515625 68.5 
Q 23.6875 68.5 21.796875 66.546875 
Q 19.921875 64.59375 19.921875 59.515625 
L 19.921875 54.6875 
L 34.71875 54.6875 
L 34.71875 47.703125 
L 19.921875 47.703125 
L 19.921875 0 
L 10.890625 0 
L 10.890625 47.703125 
L 2.296875 47.703125 
L 2.296875 54.6875 
L 10.890625 54.6875 
L 10.890625 58.5 
Q 10.890625 67.625 15.140625 71.796875 
Q 19.390625 75.984375 28.609375 75.984375 
z
" id="DejaVuSans-66"/>
      <path d="M 48.78125 52.59375 
L 48.78125 44.1875 
Q 44.96875 46.296875 41.140625 47.34375 
Q 37.3125 48.390625 33.40625 48.390625 
Q 24.65625 48.390625 19.8125 42.84375 
Q 14.984375 37.3125 14.984375 27.296875 
Q 14.984375 17.28125 19.8125 11.734375 
Q 24.65625 6.203125 33.40625 6.203125 
Q 37.3125 6.203125 41.140625 7.25 
Q 44.96875 8.296875 48.78125 10.40625 
L 48.78125 2.09375 
Q 45.015625 0.34375 40.984375 -0.53125 
Q 36.96875 -1.421875 32.421875 -1.421875 
Q 20.0625 -1.421875 12.78125 6.34375 
Q 5.515625 14.109375 5.515625 27.296875 
Q 5.515625 40.671875 12.859375 48.328125 
Q 20.21875 56 33.015625 56 
Q 37.15625 56 41.109375 55.140625 
Q 45.0625 54.296875 48.78125 52.59375 
" id="DejaVuSans-63"/>
      <path d="M 9.421875 75.984375 
L 18.40625 75.984375 
L 18.40625 0 
L 9.421875 0 
z
" id="DejaVuSans-6c"/>
      <path d="M 9.421875 54.6875 
L 18.40625 54.6875 
L 18.40625 0 
L 9.421875 0 
z
M 9.421875 75.984375 
L 18.40625 75.984375 
L 18.40625 64.59375 
L 9.421875 64.59375 
z
" id="DejaVuSans-69"/>
      <path d="M 54.890625 33.015625 
L 54.890625 0 
L 45.90625 0 
L 45.90625 32.71875 
Q 45.90625 40.484375 42.875 44.328125 
Q 39.84375 48.1875 33.796875 48.1875 
Q 26.515625 48.1875 22.3125 43.546875 
Q 18.109375 38.921875 18.109375 30.90625 
L 18.109375 0 
L 9.078125 0 
L 9.078125 54.6875 
L 18.109375 54.6875 
L 18.109375 46.1875 
Q 21.34375 51.125 25.703125 53.5625 
Q 30.078125 56 35.796875 56 
Q 45.21875 56 50.046875 50.171875 
Q 54.890625 44.34375 54.890625 33.015625 
" id="DejaVuSans-6e"/>
      <path d="M 18.3125 70.21875 
L 18.3125 54.6875 
L 36.8125 54.6875 
L 36.8125 47.703125 
L 18.3125 47.703125 
L 18.3125 18.015625 
Q 18.3125 11.328125 20.140625 9.421875 
Q 21.96875 7.515625 27.59375 7.515625 
L 36.8125 7.515625 
L 36.8125 0 
L 27.59375 0 
Q 17.1875 0 13.234375 3.875 
Q 9.28125 7.765625 9.28125 18.015625 
L 9.28125 47.703125 
L 2.6875 47.703125 
L 2.6875 54.6875 
L 9.28125 54.6875 
L 9.28125 70.21875 
z
" id="DejaVuSans-74"/>
      <path d="M 44.28125 53.078125 
L 44.28125 44.578125 
Q 40.484375 46.53125 36.375 47.5 
Q 32.28125 48.484375 27.875 48.484375 
Q 21.1875 48.484375 17.84375 46.4375 
Q 14.5 44.390625 14.5 40.28125 
Q 14.5 37.15625 16.890625 35.375 
Q 19.28125 33.59375 26.515625 31.984375 
L 29.59375 31.296875 
Q 39.15625 29.25 43.1875 25.515625 
Q 47.21875 21.78125 47.21875 15.09375 
Q 47.21875 7.46875 41.1875 3.015625 
Q 35.15625 -1.421875 24.609375 -1.421875 
Q 20.21875 -1.421875 15.453125 -0.5625 
Q 10.6875 0.296875 5.421875 2 
L 5.421875 11.28125 
Q 10.40625 8.6875 15.234375 7.390625 
Q 20.0625 6.109375 24.8125 6.109375 
Q 31.15625 6.109375 34.5625 8.28125 
Q 37.984375 10.453125 37.984375 14.40625 
Q 37.984375 18.0625 35.515625 20.015625 
Q 33.0625 21.96875 24.703125 23.78125 
L 21.578125 24.515625 
Q 13.234375 26.265625 9.515625 29.90625 
Q 5.8125 33.546875 5.8125 39.890625 
Q 5.8125 47.609375 11.28125 51.796875 
Q 16.75 56 26.8125 56 
Q 31.78125 56 36.171875 55.265625 
Q 40.578125 54.546875 44.28125 53.078125 
" id="DejaVuSans-73"/>
     </defs>
     <g transform="translate(191.738906 335.860562)scale(0.1 -0.1)">
      <use xlink:href="#DejaVuSans-4e"/>
      <use x="74.804688" xlink:href="#DejaVuSans-75"/>
      <use x="138.183594" xlink:href="#DejaVuSans-6d"/>
      <use x="235.595703" xlink:href="#DejaVuSans-62"/>
      <use x="299.072266" xlink:href="#DejaVuSans-65"/>
      <use x="360.595703" xlink:href="#DejaVuSans-72"/>
      <use x="401.708984" xlink:href="#DejaVuSans-20"/>
      <use x="433.496094" xlink:href="#DejaVuSans-6f"/>
      <use x="494.677734" xlink:href="#DejaVuSans-66"/>
      <use x="529.882812" xlink:href="#DejaVuSans-20"/>
      <use x="561.669922" xlink:href="#DejaVuSans-63"/>
      <use x="616.650391" xlink:href="#DejaVuSans-6c"/>
      <use x="644.433594" xlink:href="#DejaVuSans-69"/>
      <use x="672.216797" xlink:href="#DejaVuSans-65"/>
      <use x="733.740234" xlink:href="#DejaVuSans-6e"/>
      <use x="797.119141" xlink:href="#DejaVuSans-74"/>
      <use x="836.328125" xlink:href="#DejaVuSans-73"/>
     </g>
    </g>
   </g>
   <g id="matplotlib.axis_2">
    <g id="ytick_1">
     <g id="line2d_13">
      <path clip-path="url(#pf67525d67b)" d="M 57.6 295.791115 
L 414.72 295.791115 
" style="fill:none;stroke:#b0b0b0;stroke-linecap:square;stroke-width:0.8;"/>
     </g>
     <g id="line2d_14">
      <defs>
       <path d="M 0 0 
L -3.5 0 
" id="me8136e08ea" style="stroke:#000000;stroke-width:0.8;"/>
      </defs>
      <g>
       <use style="stroke:#000000;stroke-width:0.8;" x="57.6" xlink:href="#me8136e08ea" y="295.791115"/>
      </g>
     </g>
     <g id="text_8">
      <!-- 0 -->
      <g transform="translate(44.2375 299.590334)scale(0.1 -0.1)">
       <use xlink:href="#DejaVuSans-30"/>
      </g>
     </g>
    </g>
    <g id="ytick_2">
     <g id="line2d_15">
      <path clip-path="url(#pf67525d67b)" d="M 57.6 263.337712 
L 414.72 263.337712 
" style="fill:none;stroke:#b0b0b0;stroke-linecap:square;stroke-width:0.8;"/>
     </g>
     <g id="line2d_16">
      <g>
       <use style="stroke:#000000;stroke-width:0.8;" x="57.6" xlink:href="#me8136e08ea" y="263.337712"/>
      </g>
     </g>
     <g id="text_9">
      <!-- 100 -->
      <g transform="translate(31.5125 267.13693)scale(0.1 -0.1)">
       <use xlink:href="#DejaVuSans-31"/>
       <use x="63.623047" xlink:href="#DejaVuSans-30"/>
       <use x="127.246094" xlink:href="#DejaVuSans-30"/>
      </g>
     </g>
    </g>
    <g id="ytick_3">
     <g id="line2d_17">
      <path clip-path="url(#pf67525d67b)" d="M 57.6 230.884308 
L 414.72 230.884308 
" style="fill:none;stroke:#b0b0b0;stroke-linecap:square;stroke-width:0.8;"/>
     </g>
     <g id="line2d_18">
      <g>
       <use style="stroke:#000000;stroke-width:0.8;" x="57.6" xlink:href="#me8136e08ea" y="230.884308"/>
      </g>
     </g>
     <g id="text_10">
      <!-- 200 -->
      <g transform="translate(31.5125 234.683527)scale(0.1 -0.1)">
       <use xlink:href="#DejaVuSans-32"/>
       <use x="63.623047" xlink:href="#DejaVuSans-30"/>
       <use x="127.246094" xlink:href="#DejaVuSans-30"/>
      </g>
     </g>
    </g>
    <g id="ytick_4">
     <g id="line2d_19">
      <path clip-path="url(#pf67525d67b)" d="M 57.6 198.430905 
L 414.72 198.430905 
" style="fill:none;stroke:#b0b0b0;stroke-linecap:square;stroke-width:0.8;"/>
     </g>
     <g id="line2d_20">
      <g>
       <use style="stroke:#000000;stroke-width:0.8;" x="57.6" xlink:href="#me8136e08ea" y="198.430905"/>
      </g>
     </g>
     <g id="text_11">
      <!-- 300 -->
      <defs>
       <path d="M 40.578125 39.3125 
Q 47.65625 37.796875 51.625 33 
Q 55.609375 28.21875 55.609375 21.1875 
Q 55.609375 10.40625 48.1875 4.484375 
Q 40.765625 -1.421875 27.09375 -1.421875 
Q 22.515625 -1.421875 17.65625 -0.515625 
Q 12.796875 0.390625 7.625 2.203125 
L 7.625 11.71875 
Q 11.71875 9.328125 16.59375 8.109375 
Q 21.484375 6.890625 26.8125 6.890625 
Q 36.078125 6.890625 40.9375 10.546875 
Q 45.796875 14.203125 45.796875 21.1875 
Q 45.796875 27.640625 41.28125 31.265625 
Q 36.765625 34.90625 28.71875 34.90625 
L 20.21875 34.90625 
L 20.21875 43.015625 
L 29.109375 43.015625 
Q 36.375 43.015625 40.234375 45.921875 
Q 44.09375 48.828125 44.09375 54.296875 
Q 44.09375 59.90625 40.109375 62.90625 
Q 36.140625 65.921875 28.71875 65.921875 
Q 24.65625 65.921875 20.015625 65.03125 
Q 15.375 64.15625 9.8125 62.3125 
L 9.8125 71.09375 
Q 15.4375 72.65625 20.34375 73.4375 
Q 25.25 74.21875 29.59375 74.21875 
Q 40.828125 74.21875 47.359375 69.109375 
Q 53.90625 64.015625 53.90625 55.328125 
Q 53.90625 49.265625 50.4375 45.09375 
Q 46.96875 40.921875 40.578125 39.3125 
" id="DejaVuSans-33"/>
      </defs>
      <g transform="translate(31.5125 202.230124)scale(0.1 -0.1)">
       <use xlink:href="#DejaVuSans-33"/>
       <use x="63.623047" xlink:href="#DejaVuSans-30"/>
       <use x="127.246094" xlink:href="#DejaVuSans-30"/>
      </g>
     </g>
    </g>
    <g id="ytick_5">
     <g id="line2d_21">
      <path clip-path="url(#pf67525d67b)" d="M 57.6 165.977502 
L 414.72 165.977502 
" style="fill:none;stroke:#b0b0b0;stroke-linecap:square;stroke-width:0.8;"/>
     </g>
     <g id="line2d_22">
      <g>
       <use style="stroke:#000000;stroke-width:0.8;" x="57.6" xlink:href="#me8136e08ea" y="165.977502"/>
      </g>
     </g>
     <g id="text_12">
      <!-- 400 -->
      <g transform="translate(31.5125 169.776721)scale(0.1 -0.1)">
       <use xlink:href="#DejaVuSans-34"/>
       <use x="63.623047" xlink:href="#DejaVuSans-30"/>
       <use x="127.246094" xlink:href="#DejaVuSans-30"/>
      </g>
     </g>
    </g>
    <g id="ytick_6">
     <g id="line2d_23">
      <path clip-path="url(#pf67525d67b)" d="M 57.6 133.524099 
L 414.72 133.524099 
" style="fill:none;stroke:#b0b0b0;stroke-linecap:square;stroke-width:0.8;"/>
     </g>
     <g id="line2d_24">
      <g>
       <use style="stroke:#000000;stroke-width:0.8;" x="57.6" xlink:href="#me8136e08ea" y="133.524099"/>
      </g>
     </g>
     <g id="text_13">
      <!-- 500 -->
      <defs>
       <path d="M 10.796875 72.90625 
L 49.515625 72.90625 
L 49.515625 64.59375 
L 19.828125 64.59375 
L 19.828125 46.734375 
Q 21.96875 47.46875 24.109375 47.828125 
Q 26.265625 48.1875 28.421875 48.1875 
Q 40.625 48.1875 47.75 41.5 
Q 54.890625 34.8125 54.890625 23.390625 
Q 54.890625 11.625 47.5625 5.09375 
Q 40.234375 -1.421875 26.90625 -1.421875 
Q 22.3125 -1.421875 17.546875 -0.640625 
Q 12.796875 0.140625 7.71875 1.703125 
L 7.71875 11.625 
Q 12.109375 9.234375 16.796875 8.0625 
Q 21.484375 6.890625 26.703125 6.890625 
Q 35.15625 6.890625 40.078125 11.328125 
Q 45.015625 15.765625 45.015625 23.390625 
Q 45.015625 31 40.078125 35.4375 
Q 35.15625 39.890625 26.703125 39.890625 
Q 22.75 39.890625 18.8125 39.015625 
Q 14.890625 38.140625 10.796875 36.28125 
z
" id="DejaVuSans-35"/>
      </defs>
      <g transform="translate(31.5125 137.323317)scale(0.1 -0.1)">
       <use xlink:href="#DejaVuSans-35"/>
       <use x="63.623047" xlink:href="#DejaVuSans-30"/>
       <use x="127.246094" xlink:href="#DejaVuSans-30"/>
      </g>
     </g>
    </g>
    <g id="ytick_7">
     <g id="line2d_25">
      <path clip-path="url(#pf67525d67b)" d="M 57.6 101.070695 
L 414.72 101.070695 
" style="fill:none;stroke:#b0b0b0;stroke-linecap:square;stroke-width:0.8;"/>
     </g>
     <g id="line2d_26">
      <g>
       <use style="stroke:#000000;stroke-width:0.8;" x="57.6" xlink:href="#me8136e08ea" y="101.070695"/>
      </g>
     </g>
     <g id="text_14">
      <!-- 600 -->
      <g transform="translate(31.5125 104.869914)scale(0.1 -0.1)">
       <use xlink:href="#DejaVuSans-36"/>
       <use x="63.623047" xlink:href="#DejaVuSans-30"/>
       <use x="127.246094" xlink:href="#DejaVuSans-30"/>
      </g>
     </g>
    </g>
    <g id="ytick_8">
     <g id="line2d_27">
      <path clip-path="url(#pf67525d67b)" d="M 57.6 68.617292 
L 414.72 68.617292 
" style="fill:none;stroke:#b0b0b0;stroke-linecap:square;stroke-width:0.8;"/>
     </g>
     <g id="line2d_28">
      <g>
       <use style="stroke:#000000;stroke-width:0.8;" x="57.6" xlink:href="#me8136e08ea" y="68.617292"/>
      </g>
     </g>
     <g id="text_15">
      <!-- 700 -->
      <defs>
       <path d="M 8.203125 72.90625 
L 55.078125 72.90625 
L 55.078125 68.703125 
L 28.609375 0 
L 18.3125 0 
L 43.21875 64.59375 
L 8.203125 64.59375 
z
" id="DejaVuSans-37"/>
      </defs>
      <g transform="translate(31.5125 72.416511)scale(0.1 -0.1)">
       <use xlink:href="#DejaVuSans-37"/>
       <use x="63.623047" xlink:href="#DejaVuSans-30"/>
       <use x="127.246094" xlink:href="#DejaVuSans-30"/>
      </g>
     </g>
    </g>
    <g id="text_16">
     <!-- Successful download requests per second -->
     <defs>
      <path d="M 53.515625 70.515625 
L 53.515625 60.890625 
Q 47.90625 63.578125 42.921875 64.890625 
Q 37.9375 66.21875 33.296875 66.21875 
Q 25.25 66.21875 20.875 63.09375 
Q 16.5 59.96875 16.5 54.203125 
Q 16.5 49.359375 19.40625 46.890625 
Q 22.3125 44.4375 30.421875 42.921875 
L 36.375 41.703125 
Q 47.40625 39.59375 52.65625 34.296875 
Q 57.90625 29 57.90625 20.125 
Q 57.90625 9.515625 50.796875 4.046875 
Q 43.703125 -1.421875 29.984375 -1.421875 
Q 24.8125 -1.421875 18.96875 -0.25 
Q 13.140625 0.921875 6.890625 3.21875 
L 6.890625 13.375 
Q 12.890625 10.015625 18.65625 8.296875 
Q 24.421875 6.59375 29.984375 6.59375 
Q 38.421875 6.59375 43.015625 9.90625 
Q 47.609375 13.234375 47.609375 19.390625 
Q 47.609375 24.75 44.3125 27.78125 
Q 41.015625 30.8125 33.5 32.328125 
L 27.484375 33.5 
Q 16.453125 35.6875 11.515625 40.375 
Q 6.59375 45.0625 6.59375 53.421875 
Q 6.59375 63.09375 13.40625 68.65625 
Q 20.21875 74.21875 32.171875 74.21875 
Q 37.3125 74.21875 42.625 73.28125 
Q 47.953125 72.359375 53.515625 70.515625 
" id="DejaVuSans-53"/>
      <path d="M 45.40625 46.390625 
L 45.40625 75.984375 
L 54.390625 75.984375 
L 54.390625 0 
L 45.40625 0 
L 45.40625 8.203125 
Q 42.578125 3.328125 38.25 0.953125 
Q 33.9375 -1.421875 27.875 -1.421875 
Q 17.96875 -1.421875 11.734375 6.484375 
Q 5.515625 14.40625 5.515625 27.296875 
Q 5.515625 40.1875 11.734375 48.09375 
Q 17.96875 56 27.875 56 
Q 33.9375 56 38.25 53.625 
Q 42.578125 51.265625 45.40625 46.390625 
M 14.796875 27.296875 
Q 14.796875 17.390625 18.875 11.75 
Q 22.953125 6.109375 30.078125 6.109375 
Q 37.203125 6.109375 41.296875 11.75 
Q 45.40625 17.390625 45.40625 27.296875 
Q 45.40625 37.203125 41.296875 42.84375 
Q 37.203125 48.484375 30.078125 48.484375 
Q 22.953125 48.484375 18.875 42.84375 
Q 14.796875 37.203125 14.796875 27.296875 
" id="DejaVuSans-64"/>
      <path d="M 4.203125 54.6875 
L 13.1875 54.6875 
L 24.421875 12.015625 
L 35.59375 54.6875 
L 46.1875 54.6875 
L 57.421875 12.015625 
L 68.609375 54.6875 
L 77.59375 54.6875 
L 63.28125 0 
L 52.6875 0 
L 40.921875 44.828125 
L 29.109375 0 
L 18.5 0 
z
" id="DejaVuSans-77"/>
      <path d="M 34.28125 27.484375 
Q 23.390625 27.484375 19.1875 25 
Q 14.984375 22.515625 14.984375 16.5 
Q 14.984375 11.71875 18.140625 8.90625 
Q 21.296875 6.109375 26.703125 6.109375 
Q 34.1875 6.109375 38.703125 11.40625 
Q 43.21875 16.703125 43.21875 25.484375 
L 43.21875 27.484375 
z
M 52.203125 31.203125 
L 52.203125 0 
L 43.21875 0 
L 43.21875 8.296875 
Q 40.140625 3.328125 35.546875 0.953125 
Q 30.953125 -1.421875 24.3125 -1.421875 
Q 15.921875 -1.421875 10.953125 3.296875 
Q 6 8.015625 6 15.921875 
Q 6 25.140625 12.171875 29.828125 
Q 18.359375 34.515625 30.609375 34.515625 
L 43.21875 34.515625 
L 43.21875 35.40625 
Q 43.21875 41.609375 39.140625 45 
Q 35.0625 48.390625 27.6875 48.390625 
Q 23 48.390625 18.546875 47.265625 
Q 14.109375 46.140625 10.015625 43.890625 
L 10.015625 52.203125 
Q 14.9375 54.109375 19.578125 55.046875 
Q 24.21875 56 28.609375 56 
Q 40.484375 56 46.34375 49.84375 
Q 52.203125 43.703125 52.203125 31.203125 
" id="DejaVuSans-61"/>
      <path d="M 14.796875 27.296875 
Q 14.796875 17.390625 18.875 11.75 
Q 22.953125 6.109375 30.078125 6.109375 
Q 37.203125 6.109375 41.296875 11.75 
Q 45.40625 17.390625 45.40625 27.296875 
Q 45.40625 37.203125 41.296875 42.84375 
Q 37.203125 48.484375 30.078125 48.484375 
Q 22.953125 48.484375 18.875 42.84375 
Q 14.796875 37.203125 14.796875 27.296875 
M 45.40625 8.203125 
Q 42.578125 3.328125 38.25 0.953125 
Q 33.9375 -1.421875 27.875 -1.421875 
Q 17.96875 -1.421875 11.734375 6.484375 
Q 5.515625 14.40625 5.515625 27.296875 
Q 5.515625 40.1875 11.734375 48.09375 
Q 17.96875 56 27.875 56 
Q 33.9375 56 38.25 53.625 
Q 42.578125 51.265625 45.40625 46.390625 
L 45.40625 54.6875 
L 54.390625 54.6875 
L 54.390625 -20.796875 
L 45.40625 -20.796875 
z
" id="DejaVuSans-71"/>
      <path d="M 18.109375 8.203125 
L 18.109375 -20.796875 
L 9.078125 -20.796875 
L 9.078125 54.6875 
L 18.109375 54.6875 
L 18.109375 46.390625 
Q 20.953125 51.265625 25.265625 53.625 
Q 29.59375 56 35.59375 56 
Q 45.5625 56 51.78125 48.09375 
Q 58.015625 40.1875 58.015625 27.296875 
Q 58.015625 14.40625 51.78125 6.484375 
Q 45.5625 -1.421875 35.59375 -1.421875 
Q 29.59375 -1.421875 25.265625 0.953125 
Q 20.953125 3.328125 18.109375 8.203125 
M 48.6875 27.296875 
Q 48.6875 37.203125 44.609375 42.84375 
Q 40.53125 48.484375 33.40625 48.484375 
Q 26.265625 48.484375 22.1875 42.84375 
Q 18.109375 37.203125 18.109375 27.296875 
Q 18.109375 17.390625 22.1875 11.75 
Q 26.265625 6.109375 33.40625 6.109375 
Q 40.53125 6.109375 44.609375 11.75 
Q 48.6875 17.390625 48.6875 27.296875 
" id="DejaVuSans-70"/>
     </defs>
     <g transform="translate(25.432812 279.366281)rotate(-90)scale(0.1 -0.1)">
      <use xlink:href="#DejaVuSans-53"/>
      <use x="63.476562" xlink:href="#DejaVuSans-75"/>
      <use x="126.855469" xlink:href="#DejaVuSans-63"/>
      <use x="181.835938" xlink:href="#DejaVuSans-63"/>
      <use x="236.816406" xlink:href="#DejaVuSans-65"/>
      <use x="298.339844" xlink:href="#DejaVuSans-73"/>
      <use x="350.439453" xlink:href="#DejaVuSans-73"/>
      <use x="402.539062" xlink:href="#DejaVuSans-66"/>
      <use x="437.744141" xlink:href="#DejaVuSans-75"/>
      <use x="501.123047" xlink:href="#DejaVuSans-6c"/>
      <use x="528.90625" xlink:href="#DejaVuSans-20"/>
      <use x="560.693359" xlink:href="#DejaVuSans-64"/>
      <use x="624.169922" xlink:href="#DejaVuSans-6f"/>
      <use x="685.351562" xlink:href="#DejaVuSans-77"/>
      <use x="767.138672" xlink:href="#DejaVuSans-6e"/>
      <use x="830.517578" xlink:href="#DejaVuSans-6c"/>
      <use x="858.300781" xlink:href="#DejaVuSans-6f"/>
      <use x="919.482422" xlink:href="#DejaVuSans-61"/>
      <use x="980.761719" xlink:href="#DejaVuSans-64"/>
      <use x="1044.238281" xlink:href="#DejaVuSans-20"/>
      <use x="1076.025391" xlink:href="#DejaVuSans-72"/>
      <use x="1117.107422" xlink:href="#DejaVuSans-65"/>
      <use x="1178.630859" xlink:href="#DejaVuSans-71"/>
      <use x="1242.107422" xlink:href="#DejaVuSans-75"/>
      <use x="1305.486328" xlink:href="#DejaVuSans-65"/>
      <use x="1367.009766" xlink:href="#DejaVuSans-73"/>
      <use x="1419.109375" xlink:href="#DejaVuSans-74"/>
      <use x="1458.318359" xlink:href="#DejaVuSans-73"/>
      <use x="1510.417969" xlink:href="#DejaVuSans-20"/>
      <use x="1542.205078" xlink:href="#DejaVuSans-70"/>
      <use x="1605.681641" xlink:href="#DejaVuSans-65"/>
      <use x="1667.205078" xlink:href="#DejaVuSans-72"/>
      <use x="1708.318359" xlink:href="#DejaVuSans-20"/>
      <use x="1740.105469" xlink:href="#DejaVuSans-73"/>
      <use x="1792.205078" xlink:href="#DejaVuSans-65"/>
      <use x="1853.728516" xlink:href="#DejaVuSans-63"/>
      <use x="1908.708984" xlink:href="#DejaVuSans-6f"/>
      <use x="1969.890625" xlink:href="#DejaVuSans-6e"/>
      <use x="2033.269531" xlink:href="#DejaVuSans-64"/>
     </g>
    </g>
   </g>
   <g id="line2d_29">
    <path clip-path="url(#pf67525d67b)" d="M 57.6 295.488 
L 57.95712 295.48443 
L 61.1712 292.591209 
L 61.52832 292.433486 
L 62.24256 291.768515 
L 62.59968 291.36512 
L 63.31392 290.853979 
L 63.67104 290.406122 
L 64.38528 289.889463 
L 65.09952 289.140439 
L 65.45664 288.680899 
L 65.81376 288.512466 
L 66.17088 288.148014 
L 66.528 288.127568 
L 67.24224 287.161755 
L 67.59936 287.134169 
L 67.95648 286.405266 
L 68.3136 286.444859 
L 68.67072 286.228395 
L 69.38496 285.270371 
L 69.74208 285.154836 
L 70.0992 284.580411 
L 70.45632 284.623899 
L 70.81344 283.995276 
L 71.17056 283.864489 
L 71.52768 283.917388 
L 71.8848 283.677557 
L 72.24192 282.730243 
L 72.59904 282.561485 
L 72.95616 282.663389 
L 73.31328 281.677454 
L 73.6704 281.780007 
L 74.02752 281.006642 
L 74.38464 280.944656 
L 74.74176 280.625639 
L 75.09888 280.073607 
L 75.456 280.114174 
L 75.81312 279.690657 
L 76.17024 279.472895 
L 76.88448 279.450177 
L 77.2416 278.240314 
L 77.95584 277.850873 
L 78.31296 277.32383 
L 78.67008 277.049599 
L 79.0272 277.502324 
L 79.74144 275.707975 
L 80.09856 276.401829 
L 80.45568 275.763795 
L 80.8128 275.873163 
L 81.16992 274.503954 
L 82.24128 273.666332 
L 82.5984 274.350774 
L 82.95552 273.1831 
L 83.31264 272.969233 
L 83.66976 272.123497 
L 84.02688 272.184185 
L 84.384 271.648704 
L 84.74112 272.303938 
L 85.09824 272.371116 
L 85.45536 270.566058 
L 85.81248 271.87036 
L 86.1696 269.944575 
L 86.52672 269.538908 
L 86.88384 269.579799 
L 87.24096 270.523544 
L 87.59808 269.192305 
L 87.9552 269.582395 
L 88.31232 268.428352 
L 88.66944 268.511109 
L 89.02656 268.435492 
L 89.38368 267.681924 
L 89.7408 268.196311 
L 90.09792 266.696639 
L 90.45504 266.28513 
L 90.81216 266.819962 
L 91.16928 265.692855 
L 91.5264 265.63379 
L 91.88352 265.996619 
L 92.24064 265.038594 
L 92.59776 265.7834 
L 92.95488 263.904997 
L 93.312 264.382711 
L 93.66912 264.080245 
L 94.02624 262.813914 
L 94.38336 263.35621 
L 95.45472 261.797473 
L 95.81184 262.016534 
L 96.16896 263.032974 
L 96.52608 260.496092 
L 96.8832 261.264264 
L 97.24032 259.916474 
L 97.59744 261.745872 
L 98.31168 259.245013 
L 98.6688 258.736144 
L 99.02592 259.481274 
L 99.38304 259.466021 
L 99.74016 259.659443 
L 100.09728 257.747288 
L 100.4544 259.183351 
L 101.52576 256.085674 
L 101.88288 257.681408 
L 102.24 257.981602 
L 102.59712 255.729985 
L 102.95424 254.800195 
L 103.31136 255.009844 
L 103.66848 255.567393 
L 104.0256 255.521309 
L 104.38272 253.304093 
L 104.73984 254.116077 
L 105.45408 253.022073 
L 105.8112 254.374082 
L 106.16832 254.709974 
L 106.52544 253.810366 
L 106.88256 253.867808 
L 107.23968 250.750335 
L 107.5968 250.671148 
L 107.95392 252.510932 
L 108.31104 251.078438 
L 109.02528 249.800748 
L 109.3824 251.556802 
L 109.73952 249.984759 
L 110.09664 250.883069 
L 110.45376 250.62474 
L 110.81088 248.644109 
L 111.168 248.947873 
L 111.52512 249.554751 
L 111.88224 249.362627 
L 112.23936 248.340994 
L 112.59648 246.145197 
L 112.9536 246.622262 
L 113.31072 246.701773 
L 113.66784 245.427652 
L 114.02496 247.999909 
L 114.7392 244.952534 
L 115.45344 243.912078 
L 116.16768 246.151687 
L 116.5248 244.072073 
L 116.88192 242.74051 
L 117.23904 244.454374 
L 117.59616 243.357125 
L 117.95328 243.033564 
L 118.3104 241.303798 
L 118.66752 240.311373 
L 119.02464 241.780538 
L 119.38176 242.460762 
L 119.73888 241.764961 
L 120.096 242.631467 
L 121.16736 239.398783 
L 121.8816 240.449949 
L 122.23872 240.746898 
L 122.59584 240.860484 
L 123.31008 236.302729 
L 124.02432 238.009453 
L 124.38144 238.111032 
L 124.73856 235.526119 
L 125.09568 235.849679 
L 125.4528 235.951258 
L 125.80992 235.909393 
L 126.16704 233.803492 
L 126.52416 234.151392 
L 126.88128 233.880407 
L 127.2384 233.915781 
L 127.59552 232.761413 
L 127.95264 232.582919 
L 128.30976 233.557495 
L 128.66688 231.57946 
L 129.024 233.051547 
L 129.38112 232.253842 
L 129.73824 230.638961 
L 130.09536 230.104453 
L 130.45248 232.311284 
L 130.8096 232.517039 
L 131.16672 230.509472 
L 131.52384 229.322651 
L 131.88096 232.781859 
L 132.23808 229.359323 
L 132.5952 231.856288 
L 133.30944 227.404005 
L 133.66656 230.46858 
L 134.02368 227.186892 
L 134.3808 226.182459 
L 135.09504 226.358032 
L 135.80928 225.345161 
L 136.1664 227.896973 
L 136.52352 226.754937 
L 136.88064 228.485353 
L 137.23776 223.430086 
L 137.59488 226.937325 
L 137.952 222.878378 
L 138.30912 223.498887 
L 138.66624 226.149357 
L 139.02336 224.713294 
L 139.38048 224.141465 
L 139.7376 224.471516 
L 140.45184 220.578406 
L 140.80896 223.440471 
L 141.16608 220.567696 
L 141.5232 221.297898 
L 141.88032 219.571052 
L 142.23744 222.570071 
L 142.59456 221.27161 
L 142.95168 221.968385 
L 143.3088 219.663869 
L 143.66592 220.020207 
L 144.02304 222.6194 
L 144.38016 218.458549 
L 144.73728 221.959298 
L 145.0944 216.736572 
L 145.45152 220.996405 
L 145.80864 220.221094 
L 146.16576 216.326361 
L 146.52288 219.87514 
L 147.23712 214.601138 
L 147.59424 216.693409 
L 147.95136 216.741764 
L 148.30848 218.517939 
L 148.6656 214.048781 
L 149.37984 215.719482 
L 149.73696 214.892245 
L 150.09408 211.983771 
L 150.4512 214.513189 
L 150.80832 215.202499 
L 151.16544 213.031042 
L 151.52256 212.075614 
L 151.87968 210.617807 
L 152.2368 214.238309 
L 152.59392 212.051274 
L 152.95104 214.253886 
L 153.30816 214.447633 
L 153.66528 214.217539 
L 154.0224 213.68725 
L 154.37952 207.873223 
L 154.73664 213.579505 
L 155.808 207.874845 
L 156.16512 206.777596 
L 156.52224 206.675368 
L 156.87936 206.745467 
L 157.23648 206.944731 
L 157.5936 211.008871 
L 157.95072 204.858626 
L 158.30784 209.615321 
L 158.66496 207.310481 
L 159.3792 204.580825 
L 159.73632 209.471553 
L 160.09344 207.768074 
L 160.45056 204.896597 
L 160.80768 205.112736 
L 161.1648 203.712047 
L 161.52192 205.979242 
L 161.87904 205.093589 
L 162.23616 205.255531 
L 162.59328 200.611774 
L 162.9504 202.338944 
L 163.30752 203.077908 
L 163.66464 202.474275 
L 164.02176 200.34598 
L 164.37888 199.849119 
L 164.736 200.884382 
L 165.09312 203.405687 
L 165.45024 198.248517 
L 165.80736 202.227629 
L 166.16448 201.870317 
L 166.5216 203.612415 
L 166.87872 203.038964 
L 167.23584 201.808331 
L 167.59296 201.852143 
L 167.95008 196.829654 
L 168.3072 196.840688 
L 168.66432 194.952874 
L 169.02144 200.199616 
L 169.37856 195.499065 
L 169.73568 199.551197 
L 170.0928 198.779455 
L 170.44992 198.550658 
L 170.80704 196.600858 
L 171.16416 195.522431 
L 171.52128 192.532824 
L 171.8784 197.435884 
L 172.23552 192.425078 
L 172.59264 196.360378 
L 172.94976 197.306395 
L 173.30688 193.784876 
L 173.664 194.806509 
L 174.02112 194.192166 
L 174.37824 194.229488 
L 174.73536 194.112655 
L 175.09248 193.361683 
L 175.4496 191.948338 
L 175.80672 192.227762 
L 176.52096 189.030128 
L 176.87808 187.556094 
L 177.2352 193.107249 
L 177.59232 193.144246 
L 177.94944 191.031854 
L 178.30656 192.226139 
L 178.66368 186.274509 
L 179.0208 189.465977 
L 179.37792 185.930503 
L 179.73504 186.773967 
L 180.09216 185.317458 
L 180.44928 185.675419 
L 180.8064 184.798853 
L 181.16352 189.751242 
L 181.87776 183.224863 
L 182.592 184.001148 
L 182.94912 186.209602 
L 183.30624 183.186568 
L 183.66336 181.639514 
L 184.02048 182.916556 
L 184.3776 183.033063 
L 184.73472 182.165584 
L 185.09184 185.114949 
L 185.80608 180.792156 
L 186.1632 183.064219 
L 186.52032 180.397523 
L 186.87744 180.102521 
L 187.23456 185.844177 
L 187.59168 181.538909 
L 187.9488 181.390921 
L 188.30592 178.491534 
L 188.66304 183.256992 
L 189.02016 177.332299 
L 189.37728 181.60414 
L 189.7344 178.033292 
L 190.09152 178.456809 
L 190.44864 177.092792 
L 190.80576 175.138124 
L 191.16288 175.205627 
L 191.52 174.397537 
L 191.87712 179.010789 
L 192.23424 179.334024 
L 192.59136 173.400569 
L 192.94848 175.651212 
L 193.3056 175.12709 
L 193.66272 174.091177 
L 194.01984 176.132172 
L 194.37696 176.758522 
L 194.73408 172.897216 
L 195.0912 171.737656 
L 195.44832 172.03785 
L 196.16256 177.478663 
L 196.51968 170.572579 
L 196.8768 169.417887 
L 197.23392 175.195891 
L 197.59104 171.521517 
L 197.94816 168.999238 
L 198.30528 168.220032 
L 198.6624 167.914321 
L 199.01952 169.44385 
L 199.37664 168.204779 
L 199.73376 172.467533 
L 200.448 173.94676 
L 200.80512 173.296069 
L 201.16224 171.301158 
L 201.51936 166.038514 
L 201.87648 168.892142 
L 202.2336 170.059166 
L 202.59072 165.755196 
L 202.94784 170.640407 
L 203.30496 165.828216 
L 203.66208 168.454995 
L 204.0192 167.202942 
L 204.37632 170.969484 
L 204.73344 165.929795 
L 205.09056 170.934435 
L 205.44768 165.148966 
L 205.8048 165.993079 
L 206.16192 165.945048 
L 206.51904 161.161417 
L 206.87616 168.815227 
L 207.23328 165.389122 
L 207.5904 160.145301 
L 207.94752 166.976093 
L 208.30464 159.988226 
L 208.66176 161.242226 
L 209.01888 166.568803 
L 209.376 167.02672 
L 209.73312 164.478479 
L 210.09024 163.956953 
L 210.44736 158.825421 
L 210.80448 157.277394 
L 211.1616 161.223403 
L 211.51872 160.655793 
L 211.87584 161.922449 
L 212.23296 164.956842 
L 212.59008 158.502509 
L 212.9472 157.454914 
L 213.30432 157.216057 
L 213.66144 158.566118 
L 214.01856 162.202522 
L 215.08992 157.230012 
L 215.44704 152.357133 
L 215.80416 156.692259 
L 216.16128 159.414126 
L 216.5184 160.936839 
L 216.87552 160.20826 
L 217.23264 156.989856 
L 217.94688 155.440531 
L 218.304 157.847275 
L 218.66112 155.757925 
L 219.01824 155.611885 
L 219.37536 156.567313 
L 219.73248 155.579431 
L 220.0896 153.709791 
L 220.44672 154.619784 
L 220.80384 152.981537 
L 221.16096 153.210008 
L 221.51808 153.305421 
L 221.8752 149.232844 
L 222.23232 154.569482 
L 222.58944 152.888395 
L 222.94656 148.171942 
L 223.30368 149.096864 
L 223.6608 153.798389 
L 224.01792 152.455791 
L 224.37504 153.442375 
L 224.73216 151.968017 
L 225.08928 145.055117 
L 225.4464 148.524062 
L 225.80352 143.192292 
L 226.16064 148.797968 
L 226.51776 152.408734 
L 227.232 144.378139 
L 227.58912 151.877796 
L 227.94624 151.58604 
L 228.30336 147.526769 
L 228.66048 150.622499 
L 229.0176 150.570249 
L 229.37472 149.775789 
L 229.73184 147.80814 
L 230.08896 144.132467 
L 230.8032 141.730591 
L 231.51744 148.098273 
L 231.87456 138.40509 
L 232.23168 141.115274 
L 232.5888 146.197802 
L 232.94592 137.337373 
L 233.30304 138.959395 
L 233.66016 138.640702 
L 234.01728 139.163526 
L 234.3744 136.529933 
L 234.73152 138.191223 
L 235.08864 144.94153 
L 235.44576 135.315851 
L 235.80288 144.016933 
L 236.16 139.975835 
L 236.51712 137.752128 
L 236.87424 143.606397 
L 237.23136 139.806428 
L 237.58848 141.294092 
L 237.9456 134.872862 
L 238.65984 141.71047 
L 239.01696 134.690149 
L 239.37408 132.002359 
L 239.7312 131.692104 
L 240.08832 141.46999 
L 240.44544 138.737089 
L 240.80256 138.523545 
L 241.15968 138.683865 
L 241.5168 129.475212 
L 241.87392 136.795077 
L 242.23104 135.406396 
L 242.58816 139.20312 
L 242.94528 127.381643 
L 243.3024 135.822449 
L 243.65952 134.911157 
L 244.01664 135.349278 
L 244.37376 128.851782 
L 244.73088 126.99707 
L 245.088 125.899821 
L 245.44512 126.4366 
L 245.80224 125.420159 
L 246.15936 132.605667 
L 246.51648 128.054402 
L 246.8736 133.299846 
L 247.23072 127.999231 
L 247.58784 133.230395 
L 247.94496 132.791625 
L 248.30208 123.254219 
L 248.6592 126.528768 
L 249.01632 127.332638 
L 249.37344 130.043471 
L 249.73056 126.875045 
L 250.08768 129.744575 
L 250.80192 127.088264 
L 251.15904 129.891589 
L 251.51616 124.577344 
L 251.87328 125.868665 
L 252.2304 123.364885 
L 252.58752 119.215718 
L 252.94464 121.402428 
L 253.30176 130.07203 
L 253.65888 120.976964 
L 254.016 128.254964 
L 254.73024 118.366412 
L 255.08736 125.60774 
L 255.44448 118.629609 
L 255.8016 128.169287 
L 256.15872 117.308107 
L 256.51584 123.452834 
L 256.87296 116.742119 
L 257.23008 121.526075 
L 257.5872 118.873659 
L 257.94432 124.509192 
L 258.30144 117.871498 
L 258.65856 124.717219 
L 259.01568 123.01666 
L 259.3728 116.434136 
L 259.72992 113.879405 
L 260.08704 120.577787 
L 260.44416 120.552798 
L 260.80128 116.211182 
L 261.1584 114.393466 
L 261.51552 119.173204 
L 261.87264 112.704591 
L 262.22976 115.078882 
L 262.58688 116.106682 
L 262.944 119.542523 
L 263.30112 117.783549 
L 263.65824 112.637737 
L 264.01536 113.541565 
L 264.37248 116.790799 
L 264.7296 111.290272 
L 265.08672 112.516362 
L 265.44384 110.931662 
L 266.15808 119.225129 
L 266.5152 111.427225 
L 266.87232 110.646397 
L 267.22944 112.543947 
L 267.58656 110.161218 
L 267.94368 112.12043 
L 268.3008 108.39056 
L 268.65792 115.672131 
L 269.01504 106.477757 
L 269.37216 110.293628 
L 269.72928 104.866445 
L 270.0864 111.344145 
L 270.44352 102.436659 
L 270.80064 111.497325 
L 271.15776 111.514525 
L 271.51488 111.900396 
L 271.872 104.491933 
L 272.22912 108.469747 
L 272.58624 101.697046 
L 272.94336 108.548284 
L 273.30048 107.836256 
L 274.01472 103.452775 
L 274.37184 111.079974 
L 274.72896 103.445311 
L 275.08608 102.673569 
L 275.80032 106.322305 
L 276.15744 110.667491 
L 276.51456 106.363521 
L 276.87168 107.204389 
L 277.2288 108.40484 
L 277.58592 106.890564 
L 277.94304 107.831064 
L 278.30016 101.232638 
L 278.65728 103.553056 
L 279.0144 111.077378 
L 279.37152 99.886795 
L 279.72864 110.688586 
L 280.08576 101.880408 
L 280.44288 105.043641 
L 280.8 99.536623 
L 281.15712 106.842209 
L 281.51424 104.887865 
L 281.87136 108.786492 
L 282.22848 105.564518 
L 282.5856 107.171611 
L 283.29984 98.816482 
L 283.65696 98.064537 
L 284.01408 105.147492 
L 284.3712 100.723444 
L 284.72832 102.321774 
L 285.44256 109.182099 
L 285.79968 107.062243 
L 286.1568 106.272327 
L 286.51392 100.484911 
L 286.87104 96.922826 
L 287.22816 103.715323 
L 287.58528 101.290405 
L 287.9424 102.015414 
L 288.29952 107.108002 
L 288.65664 106.471266 
L 289.01376 106.934376 
L 289.37088 101.442611 
L 289.728 104.515949 
L 290.08512 104.753508 
L 290.44224 102.884192 
L 290.79936 102.96565 
L 291.15648 97.043228 
L 291.5136 96.583039 
L 291.87072 96.547989 
L 292.22784 101.153452 
L 292.58496 101.278073 
L 292.94208 92.977466 
L 293.2992 105.766054 
L 293.65632 103.220084 
L 294.01344 103.105848 
L 294.37056 100.982747 
L 294.72768 97.14643 
L 295.0848 96.115385 
L 295.44192 101.022015 
L 295.79904 96.050478 
L 296.15616 93.560004 
L 296.51328 97.016616 
L 296.8704 102.59633 
L 297.22752 97.685481 
L 297.58464 96.365601 
L 297.94176 94.528089 
L 298.29888 104.513677 
L 298.656 97.753958 
L 299.01312 93.198798 
L 299.37024 90.909859 
L 299.72736 101.17909 
L 300.08448 99.800145 
L 300.4416 101.343953 
L 300.79872 91.068881 
L 301.15584 92.177165 
L 301.51296 91.064013 
L 301.87008 103.556302 
L 302.2272 90.655425 
L 302.58432 89.959624 
L 302.94144 92.982334 
L 303.29856 99.701811 
L 304.0128 94.695224 
L 304.36992 99.558042 
L 304.72704 101.044408 
L 305.08416 93.671319 
L 305.44128 92.77236 
L 305.7984 94.403793 
L 306.86976 101.935254 
L 307.22688 99.946185 
L 307.584 87.390612 
L 307.94112 89.931714 
L 308.29824 98.817131 
L 308.65536 100.623487 
L 309.01248 91.899688 
L 309.3696 91.918836 
L 309.72672 94.750395 
L 310.08384 100.51704 
L 310.44096 86.683453 
L 310.79808 88.299957 
L 311.1552 86.585443 
L 311.51232 98.415682 
L 311.86944 86.899917 
L 312.58368 92.736337 
L 312.9408 89.326782 
L 313.65504 95.960258 
L 314.01216 95.483517 
L 314.36928 88.731587 
L 314.7264 86.285574 
L 315.08352 93.66775 
L 315.44064 91.192529 
L 315.79776 89.588032 
L 316.15488 92.913857 
L 316.512 93.546374 
L 316.86912 94.565735 
L 317.22624 91.521281 
L 317.58336 95.926182 
L 317.94048 84.070305 
L 318.2976 88.015665 
L 318.65472 83.399168 
L 319.01184 94.269436 
L 319.36896 92.689279 
L 319.72608 93.819307 
L 320.0832 96.009587 
L 320.44032 83.061653 
L 320.79744 87.472395 
L 321.15456 85.735489 
L 321.51168 88.375249 
L 321.8688 86.846693 
L 322.22592 86.259287 
L 322.58304 84.009617 
L 322.94016 83.330367 
L 323.29728 96.259478 
L 323.6544 84.714505 
L 324.01152 89.527344 
L 324.36864 87.934856 
L 324.72576 83.906739 
L 325.08288 81.979007 
L 325.44 95.134968 
L 326.15424 84.887157 
L 326.51136 81.314037 
L 326.86848 86.767507 
L 327.2256 89.376436 
L 327.58272 89.890498 
L 327.93984 88.50279 
L 328.29696 88.896775 
L 328.65408 80.900256 
L 329.0112 86.252796 
L 329.36832 93.322121 
L 329.72544 84.694059 
L 330.08256 82.193524 
L 330.43968 86.074302 
L 330.7968 91.400879 
L 331.15392 92.635082 
L 331.51104 83.162583 
L 331.86816 92.90477 
L 332.22528 90.645364 
L 332.5824 89.691883 
L 332.93952 81.293267 
L 333.29664 90.646338 
L 334.01088 83.109684 
L 334.368 90.618428 
L 334.72512 91.72444 
L 335.08224 80.473818 
L 335.43936 91.892224 
L 335.79648 79.406102 
L 336.1536 86.965797 
L 336.51072 77.678282 
L 336.86784 84.817382 
L 337.22496 82.860442 
L 337.58208 91.237314 
L 337.9392 91.03156 
L 338.29632 85.329497 
L 338.65344 87.869949 
L 339.01056 83.743174 
L 339.36768 89.85415 
L 339.7248 86.216773 
L 340.08192 76.201977 
L 340.43904 84.429564 
L 340.79616 88.382064 
L 341.15328 77.812964 
L 341.5104 76.752062 
L 341.86752 80.259626 
L 342.22464 81.655122 
L 342.58176 80.070098 
L 342.93888 77.385228 
L 343.296 85.589773 
L 343.65312 85.227593 
L 344.01024 88.458329 
L 344.36736 78.19559 
L 344.72448 75.906651 
L 345.0816 78.440288 
L 345.43872 76.522292 
L 346.15296 85.033522 
L 346.51008 88.60437 
L 346.8672 87.077437 
L 347.22432 83.743499 
L 347.58144 84.626231 
L 347.93856 73.793934 
L 348.29568 77.977503 
L 348.6528 83.585126 
L 349.00992 80.304087 
L 349.36704 88.229857 
L 349.72416 75.340664 
L 350.4384 86.522484 
L 350.79552 72.986494 
L 351.15264 79.161727 
L 351.50976 73.815678 
L 351.86688 74.967774 
L 352.224 86.328737 
L 352.58112 81.198178 
L 352.93824 73.519703 
L 353.29536 83.406633 
L 353.65248 73.144542 
L 354.0096 79.725118 
L 354.36672 76.15135 
L 354.72384 74.27392 
L 355.08096 81.653175 
L 355.43808 85.007234 
L 355.7952 86.032437 
L 356.15232 80.766548 
L 356.50944 84.772921 
L 356.86656 80.432603 
L 357.22368 74.097698 
L 357.5808 82.153282 
L 357.93792 76.477182 
L 358.29504 80.635112 
L 358.65216 78.450673 
L 359.00928 85.227268 
L 359.3664 71.319038 
L 359.72352 69.682088 
L 360.43776 72.433163 
L 360.79488 76.208792 
L 361.152 74.603322 
L 361.50912 70.994179 
L 361.86624 80.101902 
L 362.22336 84.207907 
L 362.58048 70.682302 
L 362.9376 74.565027 
L 363.29472 71.473516 
L 363.65184 80.924596 
L 364.00896 82.522277 
L 364.7232 69.039835 
L 365.08032 74.612085 
L 365.43744 82.858819 
L 365.79456 74.021433 
L 366.15168 78.245568 
L 366.5088 71.029878 
L 366.86592 72.038205 
L 367.22304 69.603227 
L 367.58016 70.596301 
L 367.93728 81.229009 
L 368.2944 82.421672 
L 368.65152 79.458027 
L 369.00864 70.452208 
L 369.36576 81.862175 
L 369.72288 80.872022 
L 370.08 66.175823 
L 370.43712 69.490289 
L 370.79424 74.369658 
L 371.15136 72.53669 
L 371.50848 80.614342 
L 371.8656 68.446587 
L 372.22272 70.593704 
L 372.57984 69.143362 
L 372.93696 72.358845 
L 373.29408 78.582759 
L 373.6512 65.884067 
L 374.00832 74.213882 
L 374.36544 72.487685 
L 374.72256 77.818156 
L 375.07968 75.897889 
L 375.4368 67.283782 
L 375.79392 77.986265 
L 376.15104 64.417822 
L 376.50816 64.111137 
L 376.86528 66.953731 
L 377.2224 79.935417 
L 377.57952 77.491026 
L 377.93664 76.816644 
L 378.29376 71.034097 
L 378.65088 76.914978 
L 379.008 76.46777 
L 379.72224 78.783645 
L 380.07936 68.504679 
L 380.43648 78.249462 
L 380.7936 76.725775 
L 381.15072 69.354633 
L 381.50784 75.520131 
L 381.86496 71.067524 
L 382.22208 76.667683 
L 382.5792 68.383303 
L 382.93632 68.144771 
L 383.29344 76.683261 
L 383.65056 78.119649 
L 384.00768 71.755212 
L 384.3648 69.534101 
L 384.72192 63.094047 
L 385.07904 76.264288 
L 385.43616 70.544375 
L 385.79328 62.666961 
L 386.1504 75.609378 
L 386.50752 69.174517 
L 386.86464 71.832451 
L 387.22176 65.653647 
L 387.57888 63.372498 
L 387.936 62.753287 
L 388.29312 72.69993 
L 388.65024 68.951238 
L 389.00736 72.19528 
L 389.36448 71.992446 
L 389.7216 72.119663 
L 390.07872 68.133412 
L 390.43584 66.738565 
L 390.79296 70.138708 
L 391.15008 61.629425 
L 391.5072 68.77177 
L 391.86432 65.238893 
L 392.22144 60.47733 
L 392.57856 71.640651 
L 392.93568 69.713568 
L 393.2928 63.736625 
L 393.64992 71.265814 
L 394.00704 72.192684 
L 394.36416 63.750255 
L 394.72128 62.431024 
L 395.0784 67.047196 
L 395.43552 58.391874 
L 395.79264 60.297862 
L 396.14976 60.657121 
L 396.50688 63.482515 
L 396.864 63.393917 
L 397.22112 62.704931 
L 397.57824 61.548616 
L 397.93536 62.711097 
L 398.29248 62.30543 
L 398.6496 68.965517 
L 399.00672 60.423781 
L 399.36384 66.905375 
L 399.72096 68.62573 
L 400.07808 65.829545 
L 400.4352 73.092941 
L 400.79232 66.14272 
L 401.14944 70.849437 
L 401.50656 57.638955 
L 401.86368 71.990174 
L 402.2208 66.990728 
L 402.57792 71.370963 
L 402.93504 56.257089 
L 403.29216 68.600741 
L 403.64928 63.558131 
L 404.0064 69.206321 
L 404.36352 61.652792 
L 404.72064 67.60864 
L 405.07776 68.282698 
L 405.43488 61.241283 
L 405.792 70.896495 
L 406.14912 63.563973 
L 406.50624 69.062228 
L 406.86336 70.852683 
L 407.22048 55.761201 
L 407.5776 61.854977 
L 407.93472 55.196187 
L 408.64896 71.019493 
L 409.3632 54.369275 
L 409.72032 63.053481 
L 410.07744 64.104322 
L 410.43456 56.698455 
L 410.79168 70.49959 
L 411.1488 57.797003 
L 411.50592 62.140566 
L 411.86304 58.72874 
L 412.22016 59.390465 
L 412.57728 68.397258 
L 413.29152 55.853044 
L 413.64864 57.672706 
L 414.00576 64.055966 
L 414.36288 53.568 
L 414.72 54.929096 
L 414.72 54.929096 
" style="fill:none;stroke:#000080;stroke-linecap:square;stroke-width:0.5;"/>
   </g>
   <g id="patch_3">
    <path d="M 57.6 307.584 
L 57.6 41.472 
" style="fill:none;stroke:#000000;stroke-linecap:square;stroke-linejoin:miter;stroke-width:0.8;"/>
   </g>
   <g id="patch_4">
    <path d="M 414.72 307.584 
L 414.72 41.472 
" style="fill:none;stroke:#000000;stroke-linecap:square;stroke-linejoin:miter;stroke-width:0.8;"/>
   </g>
   <g id="patch_5">
    <path d="M 57.6 307.584 
L 414.72 307.584 
" style="fill:none;stroke:#000000;stroke-linecap:square;stroke-linejoin:miter;stroke-width:0.8;"/>
   </g>
   <g id="patch_6">
    <path d="M 57.6 41.472 
L 414.72 41.472 
" style="fill:none;stroke:#000000;stroke-linecap:square;stroke-linejoin:miter;stroke-width:0.8;"/>
   </g>
   <g id="text_17">
    <!-- Test -->
    <defs>
     <path d="M -0.296875 72.90625 
L 61.375 72.90625 
L 61.375 64.59375 
L 35.5 64.59375 
L 35.5 0 
L 25.59375 0 
L 25.59375 64.59375 
L -0.296875 64.59375 
z
" id="DejaVuSans-54"/>
    </defs>
    <g transform="translate(223.341563 35.472)scale(0.12 -0.12)">
     <use xlink:href="#DejaVuSans-54"/>
     <use x="60.818359" xlink:href="#DejaVuSans-65"/>
     <use x="122.341797" xlink:href="#DejaVuSans-73"/>
     <use x="174.441406" xlink:href="#DejaVuSans-74"/>
    </g>
   </g>
   <g id="legend_1">
    <g id="patch_7">
     <path d="M 64.6 64.150125 
L 306.276563 64.150125 
Q 308.276563 64.150125 308.276563 62.150125 
L 308.276563 48.472 
Q 308.276563 46.472 306.276563 46.472 
L 64.6 46.472 
Q 62.6 46.472 62.6 48.472 
L 62.6 62.150125 
Q 62.6 64.150125 64.6 64.150125 
z
" style="fill:#ffffff;opacity:0.8;stroke:#cccccc;stroke-linejoin:miter;"/>
    </g>
    <g id="line2d_30">
     <path d="M 66.6 54.570438 
L 86.6 54.570438 
" style="fill:none;stroke:#000080;stroke-linecap:square;stroke-width:0.5;"/>
    </g>
    <g id="line2d_31"/>
    <g id="text_18">
     <!-- Successful download requests per second -->
     <g transform="translate(94.6 58.070438)scale(0.1 -0.1)">
      <use xlink:href="#DejaVuSans-53"/>
      <use x="63.476562" xlink:href="#DejaVuSans-75"/>
      <use x="126.855469" xlink:href="#DejaVuSans-63"/>
      <use x="181.835938" xlink:href="#DejaVuSans-63"/>
      <use x="236.816406" xlink:href="#DejaVuSans-65"/>
      <use x="298.339844" xlink:href="#DejaVuSans-73"/>
      <use x="350.439453" xlink:href="#DejaVuSans-73"/>
      <use x="402.539062" xlink:href="#DejaVuSans-66"/>
      <use x="437.744141" xlink:href="#DejaVuSans-75"/>
      <use x="501.123047" xlink:href="#DejaVuSans-6c"/>
      <use x="528.90625" xlink:href="#DejaVuSans-20"/>
      <use x="560.693359" xlink:href="#DejaVuSans-64"/>
      <use x="624.169922" xlink:href="#DejaVuSans-6f"/>
      <use x="685.351562" xlink:href="#DejaVuSans-77"/>
      <use x="767.138672" xlink:href="#DejaVuSans-6e"/>
      <use x="830.517578" xlink:href="#DejaVuSans-6c"/>
      <use x="858.300781" xlink:href="#DejaVuSans-6f"/>
      <use x="919.482422" xlink:href="#DejaVuSans-61"/>
      <use x="980.761719" xlink:href="#DejaVuSans-64"/>
      <use x="1044.238281" xlink:href="#DejaVuSans-20"/>
      <use x="1076.025391" xlink:href="#DejaVuSans-72"/>
      <use x="1117.107422" xlink:href="#DejaVuSans-65"/>
      <use x="1178.630859" xlink:href="#DejaVuSans-71"/>
      <use x="1242.107422" xlink:href="#DejaVuSans-75"/>
      <use x="1305.486328" xlink:href="#DejaVuSans-65"/>
      <use x="1367.009766" xlink:href="#DejaVuSans-73"/>
      <use x="1419.109375" xlink:href="#DejaVuSans-74"/>
      <use x="1458.318359" xlink:href="#DejaVuSans-73"/>
      <use x="1510.417969" xlink:href="#DejaVuSans-20"/>
      <use x="1542.205078" xlink:href="#DejaVuSans-70"/>
      <use x="1605.681641" xlink:href="#DejaVuSans-65"/>
      <use x="1667.205078" xlink:href="#DejaVuSans-72"/>
      <use x="1708.318359" xlink:href="#DejaVuSans-20"/>
      <use x="1740.105469" xlink:href="#DejaVuSans-73"/>
      <use x="1792.205078" xlink:href="#DejaVuSans-65"/>
      <use x="1853.728516" xlink:href="#DejaVuSans-63"/>
      <use x="1908.708984" xlink:href="#DejaVuSans-6f"/>
      <use x="1969.890625" xlink:href="#DejaVuSans-6e"/>
      <use x="2033.269531" xlink:href="#DejaVuSans-64"/>
     </g>
    </g>
   </g>
  </g>
 </g>
 <defs>
  <clipPath id="pf67525d67b">
   <rect height="266.112" width="357.12" x="57.6" y="41.472"/>
  </clipPath>
 </defs>
</svg>
