<?xml version="1.0" encoding="utf-8" standalone="no"?>
<!DOCTYPE svg PUBLIC "-//W3C//DTD SVG 1.1//EN"
  "http://www.w3.org/Graphics/SVG/1.1/DTD/svg11.dtd">
<!-- Created with matplotlib (http://matplotlib.org/) -->
<svg height="345pt" version="1.1" viewBox="0 0 460 345" width="460pt" xmlns="http://www.w3.org/2000/svg" xmlns:xlink="http://www.w3.org/1999/xlink">
 <defs>
  <style type="text/css">
*{stroke-linecap:butt;stroke-linejoin:round;}
  </style>
 </defs>
 <g id="figure_1">
  <g id="patch_1">
   <path d="M 0 345.6 
L 460.8 345.6 
L 460.8 0 
L 0 0 
z
" style="fill:#ffffff;"/>
  </g>
  <g id="axes_1">
   <g id="patch_2">
    <path d="M 57.6 307.584 
L 414.72 307.584 
L 414.72 41.472 
L 57.6 41.472 
z
" style="fill:#ffffff;"/>
   </g>
   <g id="matplotlib.axis_1">
    <g id="xtick_1">
     <g id="line2d_1">
      <path clip-path="url(#p605f4ade1b)" d="M 57.6 307.584 
L 57.6 41.472 
" style="fill:none;stroke:#b0b0b0;stroke-linecap:square;stroke-width:0.8;"/>
     </g>
     <g id="line2d_2">
      <defs>
       <path d="M 0 0 
L 0 3.5 
" id="mea0bdbafc0" style="stroke:#000000;stroke-width:0.8;"/>
      </defs>
      <g>
       <use style="stroke:#000000;stroke-width:0.8;" x="57.6" xlink:href="#mea0bdbafc0" y="307.584"/>
      </g>
     </g>
     <g id="text_1">
      <!-- 0 -->
      <defs>
       <path d="M 31.78125 66.40625 
Q 24.171875 66.40625 20.328125 58.90625 
Q 16.5 51.421875 16.5 36.375 
Q 16.5 21.390625 20.328125 13.890625 
Q 24.171875 6.390625 31.78125 6.390625 
Q 39.453125 6.390625 43.28125 13.890625 
Q 47.125 21.390625 47.125 36.375 
Q 47.125 51.421875 43.28125 58.90625 
Q 39.453125 66.40625 31.78125 66.40625 
M 31.78125 74.21875 
Q 44.046875 74.21875 50.515625 64.515625 
Q 56.984375 54.828125 56.984375 36.375 
Q 56.984375 17.96875 50.515625 8.265625 
Q 44.046875 -1.421875 31.78125 -1.421875 
Q 19.53125 -1.421875 13.0625 8.265625 
Q 6.59375 17.96875 6.59375 36.375 
Q 6.59375 54.828125 13.0625 64.515625 
Q 19.53125 74.21875 31.78125 74.21875 
" id="DejaVuSans-30"/>
      </defs>
      <g transform="translate(54.41875 322.182437)scale(0.1 -0.1)">
       <use xlink:href="#DejaVuSans-30"/>
      </g>
     </g>
    </g>
    <g id="xtick_2">
     <g id="line2d_3">
      <path clip-path="url(#p605f4ade1b)" d="M 129.024 307.584 
L 129.024 41.472 
" style="fill:none;stroke:#b0b0b0;stroke-linecap:square;stroke-width:0.8;"/>
     </g>
     <g id="line2d_4">
      <g>
       <use style="stroke:#000000;stroke-width:0.8;" x="129.024" xlink:href="#mea0bdbafc0" y="307.584"/>
      </g>
     </g>
     <g id="text_2">
      <!-- 200 -->
      <defs>
       <path d="M 19.1875 8.296875 
L 53.609375 8.296875 
L 53.609375 0 
L 7.328125 0 
L 7.328125 8.296875 
Q 12.9375 14.109375 22.625 23.890625 
Q 32.328125 33.6875 34.8125 36.53125 
Q 39.546875 41.84375 41.421875 45.53125 
Q 43.3125 49.21875 43.3125 52.78125 
Q 43.3125 58.59375 39.234375 62.25 
Q 35.15625 65.921875 28.609375 65.921875 
Q 23.96875 65.921875 18.8125 64.3125 
Q 13.671875 62.703125 7.8125 59.421875 
L 7.8125 69.390625 
Q 13.765625 71.78125 18.9375 73 
Q 24.125 74.21875 28.421875 74.21875 
Q 39.75 74.21875 46.484375 68.546875 
Q 53.21875 62.890625 53.21875 53.421875 
Q 53.21875 48.921875 51.53125 44.890625 
Q 49.859375 40.875 45.40625 35.40625 
Q 44.1875 33.984375 37.640625 27.21875 
Q 31.109375 20.453125 19.1875 8.296875 
" id="DejaVuSans-32"/>
      </defs>
      <g transform="translate(119.48025 322.182437)scale(0.1 -0.1)">
       <use xlink:href="#DejaVuSans-32"/>
       <use x="63.623047" xlink:href="#DejaVuSans-30"/>
       <use x="127.246094" xlink:href="#DejaVuSans-30"/>
      </g>
     </g>
    </g>
    <g id="xtick_3">
     <g id="line2d_5">
      <path clip-path="url(#p605f4ade1b)" d="M 200.448 307.584 
L 200.448 41.472 
" style="fill:none;stroke:#b0b0b0;stroke-linecap:square;stroke-width:0.8;"/>
     </g>
     <g id="line2d_6">
      <g>
       <use style="stroke:#000000;stroke-width:0.8;" x="200.448" xlink:href="#mea0bdbafc0" y="307.584"/>
      </g>
     </g>
     <g id="text_3">
      <!-- 400 -->
      <defs>
       <path d="M 37.796875 64.3125 
L 12.890625 25.390625 
L 37.796875 25.390625 
z
M 35.203125 72.90625 
L 47.609375 72.90625 
L 47.609375 25.390625 
L 58.015625 25.390625 
L 58.015625 17.1875 
L 47.609375 17.1875 
L 47.609375 0 
L 37.796875 0 
L 37.796875 17.1875 
L 4.890625 17.1875 
L 4.890625 26.703125 
z
" id="DejaVuSans-34"/>
      </defs>
      <g transform="translate(190.90425 322.182437)scale(0.1 -0.1)">
       <use xlink:href="#DejaVuSans-34"/>
       <use x="63.623047" xlink:href="#DejaVuSans-30"/>
       <use x="127.246094" xlink:href="#DejaVuSans-30"/>
      </g>
     </g>
    </g>
    <g id="xtick_4">
     <g id="line2d_7">
      <path clip-path="url(#p605f4ade1b)" d="M 271.872 307.584 
L 271.872 41.472 
" style="fill:none;stroke:#b0b0b0;stroke-linecap:square;stroke-width:0.8;"/>
     </g>
     <g id="line2d_8">
      <g>
       <use style="stroke:#000000;stroke-width:0.8;" x="271.872" xlink:href="#mea0bdbafc0" y="307.584"/>
      </g>
     </g>
     <g id="text_4">
      <!-- 600 -->
      <defs>
       <path d="M 33.015625 40.375 
Q 26.375 40.375 22.484375 35.828125 
Q 18.609375 31.296875 18.609375 23.390625 
Q 18.609375 15.53125 22.484375 10.953125 
Q 26.375 6.390625 33.015625 6.390625 
Q 39.65625 6.390625 43.53125 10.953125 
Q 47.40625 15.53125 47.40625 23.390625 
Q 47.40625 31.296875 43.53125 35.828125 
Q 39.65625 40.375 33.015625 40.375 
M 52.59375 71.296875 
L 52.59375 62.3125 
Q 48.875 64.0625 45.09375 64.984375 
Q 41.3125 65.921875 37.59375 65.921875 
Q 27.828125 65.921875 22.671875 59.328125 
Q 17.53125 52.734375 16.796875 39.40625 
Q 19.671875 43.65625 24.015625 45.921875 
Q 28.375 48.1875 33.59375 48.1875 
Q 44.578125 48.1875 50.953125 41.515625 
Q 57.328125 34.859375 57.328125 23.390625 
Q 57.328125 12.15625 50.6875 5.359375 
Q 44.046875 -1.421875 33.015625 -1.421875 
Q 20.359375 -1.421875 13.671875 8.265625 
Q 6.984375 17.96875 6.984375 36.375 
Q 6.984375 53.65625 15.1875 63.9375 
Q 23.390625 74.21875 37.203125 74.21875 
Q 40.921875 74.21875 44.703125 73.484375 
Q 48.484375 72.75 52.59375 71.296875 
" id="DejaVuSans-36"/>
      </defs>
      <g transform="translate(262.32825 322.182437)scale(0.1 -0.1)">
       <use xlink:href="#DejaVuSans-36"/>
       <use x="63.623047" xlink:href="#DejaVuSans-30"/>
       <use x="127.246094" xlink:href="#DejaVuSans-30"/>
      </g>
     </g>
    </g>
    <g id="xtick_5">
     <g id="line2d_9">
      <path clip-path="url(#p605f4ade1b)" d="M 343.296 307.584 
L 343.296 41.472 
" style="fill:none;stroke:#b0b0b0;stroke-linecap:square;stroke-width:0.8;"/>
     </g>
     <g id="line2d_10">
      <g>
       <use style="stroke:#000000;stroke-width:0.8;" x="343.296" xlink:href="#mea0bdbafc0" y="307.584"/>
      </g>
     </g>
     <g id="text_5">
      <!-- 800 -->
      <defs>
       <path d="M 31.78125 34.625 
Q 24.75 34.625 20.71875 30.859375 
Q 16.703125 27.09375 16.703125 20.515625 
Q 16.703125 13.921875 20.71875 10.15625 
Q 24.75 6.390625 31.78125 6.390625 
Q 38.8125 6.390625 42.859375 10.171875 
Q 46.921875 13.96875 46.921875 20.515625 
Q 46.921875 27.09375 42.890625 30.859375 
Q 38.875 34.625 31.78125 34.625 
M 21.921875 38.8125 
Q 15.578125 40.375 12.03125 44.71875 
Q 8.5 49.078125 8.5 55.328125 
Q 8.5 64.0625 14.71875 69.140625 
Q 20.953125 74.21875 31.78125 74.21875 
Q 42.671875 74.21875 48.875 69.140625 
Q 55.078125 64.0625 55.078125 55.328125 
Q 55.078125 49.078125 51.53125 44.71875 
Q 48 40.375 41.703125 38.8125 
Q 48.828125 37.15625 52.796875 32.3125 
Q 56.78125 27.484375 56.78125 20.515625 
Q 56.78125 9.90625 50.3125 4.234375 
Q 43.84375 -1.421875 31.78125 -1.421875 
Q 19.734375 -1.421875 13.25 4.234375 
Q 6.78125 9.90625 6.78125 20.515625 
Q 6.78125 27.484375 10.78125 32.3125 
Q 14.796875 37.15625 21.921875 38.8125 
M 18.3125 54.390625 
Q 18.3125 48.734375 21.84375 45.5625 
Q 25.390625 42.390625 31.78125 42.390625 
Q 38.140625 42.390625 41.71875 45.5625 
Q 45.3125 48.734375 45.3125 54.390625 
Q 45.3125 60.0625 41.71875 63.234375 
Q 38.140625 66.40625 31.78125 66.40625 
Q 25.390625 66.40625 21.84375 63.234375 
Q 18.3125 60.0625 18.3125 54.390625 
" id="DejaVuSans-38"/>
      </defs>
      <g transform="translate(333.75225 322.182437)scale(0.1 -0.1)">
       <use xlink:href="#DejaVuSans-38"/>
       <use x="63.623047" xlink:href="#DejaVuSans-30"/>
       <use x="127.246094" xlink:href="#DejaVuSans-30"/>
      </g>
     </g>
    </g>
    <g id="xtick_6">
     <g id="line2d_11">
      <path clip-path="url(#p605f4ade1b)" d="M 414.72 307.584 
L 414.72 41.472 
" style="fill:none;stroke:#b0b0b0;stroke-linecap:square;stroke-width:0.8;"/>
     </g>
     <g id="line2d_12">
      <g>
       <use style="stroke:#000000;stroke-width:0.8;" x="414.72" xlink:href="#mea0bdbafc0" y="307.584"/>
      </g>
     </g>
     <g id="text_6">
      <!-- 1000 -->
      <defs>
       <path d="M 12.40625 8.296875 
L 28.515625 8.296875 
L 28.515625 63.921875 
L 10.984375 60.40625 
L 10.984375 69.390625 
L 28.421875 72.90625 
L 38.28125 72.90625 
L 38.28125 8.296875 
L 54.390625 8.296875 
L 54.390625 0 
L 12.40625 0 
z
" id="DejaVuSans-31"/>
      </defs>
      <g transform="translate(401.995 322.182437)scale(0.1 -0.1)">
       <use xlink:href="#DejaVuSans-31"/>
       <use x="63.623047" xlink:href="#DejaVuSans-30"/>
       <use x="127.246094" xlink:href="#DejaVuSans-30"/>
       <use x="190.869141" xlink:href="#DejaVuSans-30"/>
      </g>
     </g>
    </g>
    <g id="text_7">
     <!-- Number of clients -->
     <defs>
      <path d="M 9.8125 72.90625 
L 23.09375 72.90625 
L 55.421875 11.921875 
L 55.421875 72.90625 
L 64.984375 72.90625 
L 64.984375 0 
L 51.703125 0 
L 19.390625 60.984375 
L 19.390625 0 
L 9.8125 0 
z
" id="DejaVuSans-4e"/>
      <path d="M 8.5 21.578125 
L 8.5 54.6875 
L 17.484375 54.6875 
L 17.484375 21.921875 
Q 17.484375 14.15625 20.5 10.265625 
Q 23.53125 6.390625 29.59375 6.390625 
Q 36.859375 6.390625 41.078125 11.03125 
Q 45.3125 15.671875 45.3125 23.6875 
L 45.3125 54.6875 
L 54.296875 54.6875 
L 54.296875 0 
L 45.3125 0 
L 45.3125 8.40625 
Q 42.046875 3.421875 37.71875 1 
Q 33.40625 -1.421875 27.6875 -1.421875 
Q 18.265625 -1.421875 13.375 4.4375 
Q 8.5 10.296875 8.5 21.578125 
M 31.109375 56 
z
" id="DejaVuSans-75"/>
      <path d="M 52 44.1875 
Q 55.375 50.25 60.0625 53.125 
Q 64.75 56 71.09375 56 
Q 79.640625 56 84.28125 50.015625 
Q 88.921875 44.046875 88.921875 33.015625 
L 88.921875 0 
L 79.890625 0 
L 79.890625 32.71875 
Q 79.890625 40.578125 77.09375 44.375 
Q 74.3125 48.1875 68.609375 48.1875 
Q 61.625 48.1875 57.5625 43.546875 
Q 53.515625 38.921875 53.515625 30.90625 
L 53.515625 0 
L 44.484375 0 
L 44.484375 32.71875 
Q 44.484375 40.625 41.703125 44.40625 
Q 38.921875 48.1875 33.109375 48.1875 
Q 26.21875 48.1875 22.15625 43.53125 
Q 18.109375 38.875 18.109375 30.90625 
L 18.109375 0 
L 9.078125 0 
L 9.078125 54.6875 
L 18.109375 54.6875 
L 18.109375 46.1875 
Q 21.1875 51.21875 25.484375 53.609375 
Q 29.78125 56 35.6875 56 
Q 41.65625 56 45.828125 52.96875 
Q 50 49.953125 52 44.1875 
" id="DejaVuSans-6d"/>
      <path d="M 48.6875 27.296875 
Q 48.6875 37.203125 44.609375 42.84375 
Q 40.53125 48.484375 33.40625 48.484375 
Q 26.265625 48.484375 22.1875 42.84375 
Q 18.109375 37.203125 18.109375 27.296875 
Q 18.109375 17.390625 22.1875 11.75 
Q 26.265625 6.109375 33.40625 6.109375 
Q 40.53125 6.109375 44.609375 11.75 
Q 48.6875 17.390625 48.6875 27.296875 
M 18.109375 46.390625 
Q 20.953125 51.265625 25.265625 53.625 
Q 29.59375 56 35.59375 56 
Q 45.5625 56 51.78125 48.09375 
Q 58.015625 40.1875 58.015625 27.296875 
Q 58.015625 14.40625 51.78125 6.484375 
Q 45.5625 -1.421875 35.59375 -1.421875 
Q 29.59375 -1.421875 25.265625 0.953125 
Q 20.953125 3.328125 18.109375 8.203125 
L 18.109375 0 
L 9.078125 0 
L 9.078125 75.984375 
L 18.109375 75.984375 
z
" id="DejaVuSans-62"/>
      <path d="M 56.203125 29.59375 
L 56.203125 25.203125 
L 14.890625 25.203125 
Q 15.484375 15.921875 20.484375 11.0625 
Q 25.484375 6.203125 34.421875 6.203125 
Q 39.59375 6.203125 44.453125 7.46875 
Q 49.3125 8.734375 54.109375 11.28125 
L 54.109375 2.78125 
Q 49.265625 0.734375 44.1875 -0.34375 
Q 39.109375 -1.421875 33.890625 -1.421875 
Q 20.796875 -1.421875 13.15625 6.1875 
Q 5.515625 13.8125 5.515625 26.8125 
Q 5.515625 40.234375 12.765625 48.109375 
Q 20.015625 56 32.328125 56 
Q 43.359375 56 49.78125 48.890625 
Q 56.203125 41.796875 56.203125 29.59375 
M 47.21875 32.234375 
Q 47.125 39.59375 43.09375 43.984375 
Q 39.0625 48.390625 32.421875 48.390625 
Q 24.90625 48.390625 20.390625 44.140625 
Q 15.875 39.890625 15.1875 32.171875 
z
" id="DejaVuSans-65"/>
      <path d="M 41.109375 46.296875 
Q 39.59375 47.171875 37.8125 47.578125 
Q 36.03125 48 33.890625 48 
Q 26.265625 48 22.1875 43.046875 
Q 18.109375 38.09375 18.109375 28.8125 
L 18.109375 0 
L 9.078125 0 
L 9.078125 54.6875 
L 18.109375 54.6875 
L 18.109375 46.1875 
Q 20.953125 51.171875 25.484375 53.578125 
Q 30.03125 56 36.53125 56 
Q 37.453125 56 38.578125 55.875 
Q 39.703125 55.765625 41.0625 55.515625 
z
" id="DejaVuSans-72"/>
      <path id="DejaVuSans-20"/>
      <path d="M 30.609375 48.390625 
Q 23.390625 48.390625 19.1875 42.75 
Q 14.984375 37.109375 14.984375 27.296875 
Q 14.984375 17.484375 19.15625 11.84375 
Q 23.34375 6.203125 30.609375 6.203125 
Q 37.796875 6.203125 41.984375 11.859375 
Q 46.1875 17.53125 46.1875 27.296875 
Q 46.1875 37.015625 41.984375 42.703125 
Q 37.796875 48.390625 30.609375 48.390625 
M 30.609375 56 
Q 42.328125 56 49.015625 48.375 
Q 55.71875 40.765625 55.71875 27.296875 
Q 55.71875 13.875 49.015625 6.21875 
Q 42.328125 -1.421875 30.609375 -1.421875 
Q 18.84375 -1.421875 12.171875 6.21875 
Q 5.515625 13.875 5.515625 27.296875 
Q 5.515625 40.765625 12.171875 48.375 
Q 18.84375 56 30.609375 56 
" id="DejaVuSans-6f"/>
      <path d="M 37.109375 75.984375 
L 37.109375 68.5 
L 28.515625 68.5 
Q 23.6875 68.5 21.796875 66.546875 
Q 19.921875 64.59375 19.921875 59.515625 
L 19.921875 54.6875 
L 34.71875 54.6875 
L 34.71875 47.703125 
L 19.921875 47.703125 
L 19.921875 0 
L 10.890625 0 
L 10.890625 47.703125 
L 2.296875 47.703125 
L 2.296875 54.6875 
L 10.890625 54.6875 
L 10.890625 58.5 
Q 10.890625 67.625 15.140625 71.796875 
Q 19.390625 75.984375 28.609375 75.984375 
z
" id="DejaVuSans-66"/>
      <path d="M 48.78125 52.59375 
L 48.78125 44.1875 
Q 44.96875 46.296875 41.140625 47.34375 
Q 37.3125 48.390625 33.40625 48.390625 
Q 24.65625 48.390625 19.8125 42.84375 
Q 14.984375 37.3125 14.984375 27.296875 
Q 14.984375 17.28125 19.8125 11.734375 
Q 24.65625 6.203125 33.40625 6.203125 
Q 37.3125 6.203125 41.140625 7.25 
Q 44.96875 8.296875 48.78125 10.40625 
L 48.78125 2.09375 
Q 45.015625 0.34375 40.984375 -0.53125 
Q 36.96875 -1.421875 32.421875 -1.421875 
Q 20.0625 -1.421875 12.78125 6.34375 
Q 5.515625 14.109375 5.515625 27.296875 
Q 5.515625 40.671875 12.859375 48.328125 
Q 20.21875 56 33.015625 56 
Q 37.15625 56 41.109375 55.140625 
Q 45.0625 54.296875 48.78125 52.59375 
" id="DejaVuSans-63"/>
      <path d="M 9.421875 75.984375 
L 18.40625 75.984375 
L 18.40625 0 
L 9.421875 0 
z
" id="DejaVuSans-6c"/>
      <path d="M 9.421875 54.6875 
L 18.40625 54.6875 
L 18.40625 0 
L 9.421875 0 
z
M 9.421875 75.984375 
L 18.40625 75.984375 
L 18.40625 64.59375 
L 9.421875 64.59375 
z
" id="DejaVuSans-69"/>
      <path d="M 54.890625 33.015625 
L 54.890625 0 
L 45.90625 0 
L 45.90625 32.71875 
Q 45.90625 40.484375 42.875 44.328125 
Q 39.84375 48.1875 33.796875 48.1875 
Q 26.515625 48.1875 22.3125 43.546875 
Q 18.109375 38.921875 18.109375 30.90625 
L 18.109375 0 
L 9.078125 0 
L 9.078125 54.6875 
L 18.109375 54.6875 
L 18.109375 46.1875 
Q 21.34375 51.125 25.703125 53.5625 
Q 30.078125 56 35.796875 56 
Q 45.21875 56 50.046875 50.171875 
Q 54.890625 44.34375 54.890625 33.015625 
" id="DejaVuSans-6e"/>
      <path d="M 18.3125 70.21875 
L 18.3125 54.6875 
L 36.8125 54.6875 
L 36.8125 47.703125 
L 18.3125 47.703125 
L 18.3125 18.015625 
Q 18.3125 11.328125 20.140625 9.421875 
Q 21.96875 7.515625 27.59375 7.515625 
L 36.8125 7.515625 
L 36.8125 0 
L 27.59375 0 
Q 17.1875 0 13.234375 3.875 
Q 9.28125 7.765625 9.28125 18.015625 
L 9.28125 47.703125 
L 2.6875 47.703125 
L 2.6875 54.6875 
L 9.28125 54.6875 
L 9.28125 70.21875 
z
" id="DejaVuSans-74"/>
      <path d="M 44.28125 53.078125 
L 44.28125 44.578125 
Q 40.484375 46.53125 36.375 47.5 
Q 32.28125 48.484375 27.875 48.484375 
Q 21.1875 48.484375 17.84375 46.4375 
Q 14.5 44.390625 14.5 40.28125 
Q 14.5 37.15625 16.890625 35.375 
Q 19.28125 33.59375 26.515625 31.984375 
L 29.59375 31.296875 
Q 39.15625 29.25 43.1875 25.515625 
Q 47.21875 21.78125 47.21875 15.09375 
Q 47.21875 7.46875 41.1875 3.015625 
Q 35.15625 -1.421875 24.609375 -1.421875 
Q 20.21875 -1.421875 15.453125 -0.5625 
Q 10.6875 0.296875 5.421875 2 
L 5.421875 11.28125 
Q 10.40625 8.6875 15.234375 7.390625 
Q 20.0625 6.109375 24.8125 6.109375 
Q 31.15625 6.109375 34.5625 8.28125 
Q 37.984375 10.453125 37.984375 14.40625 
Q 37.984375 18.0625 35.515625 20.015625 
Q 33.0625 21.96875 24.703125 23.78125 
L 21.578125 24.515625 
Q 13.234375 26.265625 9.515625 29.90625 
Q 5.8125 33.546875 5.8125 39.890625 
Q 5.8125 47.609375 11.28125 51.796875 
Q 16.75 56 26.8125 56 
Q 31.78125 56 36.171875 55.265625 
Q 40.578125 54.546875 44.28125 53.078125 
" id="DejaVuSans-73"/>
     </defs>
     <g transform="translate(191.738906 335.860562)scale(0.1 -0.1)">
      <use xlink:href="#DejaVuSans-4e"/>
      <use x="74.804688" xlink:href="#DejaVuSans-75"/>
      <use x="138.183594" xlink:href="#DejaVuSans-6d"/>
      <use x="235.595703" xlink:href="#DejaVuSans-62"/>
      <use x="299.072266" xlink:href="#DejaVuSans-65"/>
      <use x="360.595703" xlink:href="#DejaVuSans-72"/>
      <use x="401.708984" xlink:href="#DejaVuSans-20"/>
      <use x="433.496094" xlink:href="#DejaVuSans-6f"/>
      <use x="494.677734" xlink:href="#DejaVuSans-66"/>
      <use x="529.882812" xlink:href="#DejaVuSans-20"/>
      <use x="561.669922" xlink:href="#DejaVuSans-63"/>
      <use x="616.650391" xlink:href="#DejaVuSans-6c"/>
      <use x="644.433594" xlink:href="#DejaVuSans-69"/>
      <use x="672.216797" xlink:href="#DejaVuSans-65"/>
      <use x="733.740234" xlink:href="#DejaVuSans-6e"/>
      <use x="797.119141" xlink:href="#DejaVuSans-74"/>
      <use x="836.328125" xlink:href="#DejaVuSans-73"/>
     </g>
    </g>
   </g>
   <g id="matplotlib.axis_2">
    <g id="ytick_1">
     <g id="line2d_13">
      <path clip-path="url(#p605f4ade1b)" d="M 57.6 296.790978 
L 414.72 296.790978 
" style="fill:none;stroke:#b0b0b0;stroke-linecap:square;stroke-width:0.8;"/>
     </g>
     <g id="line2d_14">
      <defs>
       <path d="M 0 0 
L -3.5 0 
" id="mff9d5c4172" style="stroke:#000000;stroke-width:0.8;"/>
      </defs>
      <g>
       <use style="stroke:#000000;stroke-width:0.8;" x="57.6" xlink:href="#mff9d5c4172" y="296.790978"/>
      </g>
     </g>
     <g id="text_8">
      <!-- 0 -->
      <g transform="translate(44.2375 300.590197)scale(0.1 -0.1)">
       <use xlink:href="#DejaVuSans-30"/>
      </g>
     </g>
    </g>
    <g id="ytick_2">
     <g id="line2d_15">
      <path clip-path="url(#p605f4ade1b)" d="M 57.6 262.137314 
L 414.72 262.137314 
" style="fill:none;stroke:#b0b0b0;stroke-linecap:square;stroke-width:0.8;"/>
     </g>
     <g id="line2d_16">
      <g>
       <use style="stroke:#000000;stroke-width:0.8;" x="57.6" xlink:href="#mff9d5c4172" y="262.137314"/>
      </g>
     </g>
     <g id="text_9">
      <!-- 25 -->
      <defs>
       <path d="M 10.796875 72.90625 
L 49.515625 72.90625 
L 49.515625 64.59375 
L 19.828125 64.59375 
L 19.828125 46.734375 
Q 21.96875 47.46875 24.109375 47.828125 
Q 26.265625 48.1875 28.421875 48.1875 
Q 40.625 48.1875 47.75 41.5 
Q 54.890625 34.8125 54.890625 23.390625 
Q 54.890625 11.625 47.5625 5.09375 
Q 40.234375 -1.421875 26.90625 -1.421875 
Q 22.3125 -1.421875 17.546875 -0.640625 
Q 12.796875 0.140625 7.71875 1.703125 
L 7.71875 11.625 
Q 12.109375 9.234375 16.796875 8.0625 
Q 21.484375 6.890625 26.703125 6.890625 
Q 35.15625 6.890625 40.078125 11.328125 
Q 45.015625 15.765625 45.015625 23.390625 
Q 45.015625 31 40.078125 35.4375 
Q 35.15625 39.890625 26.703125 39.890625 
Q 22.75 39.890625 18.8125 39.015625 
Q 14.890625 38.140625 10.796875 36.28125 
z
" id="DejaVuSans-35"/>
      </defs>
      <g transform="translate(37.875 265.936533)scale(0.1 -0.1)">
       <use xlink:href="#DejaVuSans-32"/>
       <use x="63.623047" xlink:href="#DejaVuSans-35"/>
      </g>
     </g>
    </g>
    <g id="ytick_3">
     <g id="line2d_17">
      <path clip-path="url(#p605f4ade1b)" d="M 57.6 227.48365 
L 414.72 227.48365 
" style="fill:none;stroke:#b0b0b0;stroke-linecap:square;stroke-width:0.8;"/>
     </g>
     <g id="line2d_18">
      <g>
       <use style="stroke:#000000;stroke-width:0.8;" x="57.6" xlink:href="#mff9d5c4172" y="227.48365"/>
      </g>
     </g>
     <g id="text_10">
      <!-- 50 -->
      <g transform="translate(37.875 231.282869)scale(0.1 -0.1)">
       <use xlink:href="#DejaVuSans-35"/>
       <use x="63.623047" xlink:href="#DejaVuSans-30"/>
      </g>
     </g>
    </g>
    <g id="ytick_4">
     <g id="line2d_19">
      <path clip-path="url(#p605f4ade1b)" d="M 57.6 192.829986 
L 414.72 192.829986 
" style="fill:none;stroke:#b0b0b0;stroke-linecap:square;stroke-width:0.8;"/>
     </g>
     <g id="line2d_20">
      <g>
       <use style="stroke:#000000;stroke-width:0.8;" x="57.6" xlink:href="#mff9d5c4172" y="192.829986"/>
      </g>
     </g>
     <g id="text_11">
      <!-- 75 -->
      <defs>
       <path d="M 8.203125 72.90625 
L 55.078125 72.90625 
L 55.078125 68.703125 
L 28.609375 0 
L 18.3125 0 
L 43.21875 64.59375 
L 8.203125 64.59375 
z
" id="DejaVuSans-37"/>
      </defs>
      <g transform="translate(37.875 196.629205)scale(0.1 -0.1)">
       <use xlink:href="#DejaVuSans-37"/>
       <use x="63.623047" xlink:href="#DejaVuSans-35"/>
      </g>
     </g>
    </g>
    <g id="ytick_5">
     <g id="line2d_21">
      <path clip-path="url(#p605f4ade1b)" d="M 57.6 158.176322 
L 414.72 158.176322 
" style="fill:none;stroke:#b0b0b0;stroke-linecap:square;stroke-width:0.8;"/>
     </g>
     <g id="line2d_22">
      <g>
       <use style="stroke:#000000;stroke-width:0.8;" x="57.6" xlink:href="#mff9d5c4172" y="158.176322"/>
      </g>
     </g>
     <g id="text_12">
      <!-- 100 -->
      <g transform="translate(31.5125 161.975541)scale(0.1 -0.1)">
       <use xlink:href="#DejaVuSans-31"/>
       <use x="63.623047" xlink:href="#DejaVuSans-30"/>
       <use x="127.246094" xlink:href="#DejaVuSans-30"/>
      </g>
     </g>
    </g>
    <g id="ytick_6">
     <g id="line2d_23">
      <path clip-path="url(#p605f4ade1b)" d="M 57.6 123.522658 
L 414.72 123.522658 
" style="fill:none;stroke:#b0b0b0;stroke-linecap:square;stroke-width:0.8;"/>
     </g>
     <g id="line2d_24">
      <g>
       <use style="stroke:#000000;stroke-width:0.8;" x="57.6" xlink:href="#mff9d5c4172" y="123.522658"/>
      </g>
     </g>
     <g id="text_13">
      <!-- 125 -->
      <g transform="translate(31.5125 127.321877)scale(0.1 -0.1)">
       <use xlink:href="#DejaVuSans-31"/>
       <use x="63.623047" xlink:href="#DejaVuSans-32"/>
       <use x="127.246094" xlink:href="#DejaVuSans-35"/>
      </g>
     </g>
    </g>
    <g id="ytick_7">
     <g id="line2d_25">
      <path clip-path="url(#p605f4ade1b)" d="M 57.6 88.868994 
L 414.72 88.868994 
" style="fill:none;stroke:#b0b0b0;stroke-linecap:square;stroke-width:0.8;"/>
     </g>
     <g id="line2d_26">
      <g>
       <use style="stroke:#000000;stroke-width:0.8;" x="57.6" xlink:href="#mff9d5c4172" y="88.868994"/>
      </g>
     </g>
     <g id="text_14">
      <!-- 150 -->
      <g transform="translate(31.5125 92.668213)scale(0.1 -0.1)">
       <use xlink:href="#DejaVuSans-31"/>
       <use x="63.623047" xlink:href="#DejaVuSans-35"/>
       <use x="127.246094" xlink:href="#DejaVuSans-30"/>
      </g>
     </g>
    </g>
    <g id="ytick_8">
     <g id="line2d_27">
      <path clip-path="url(#p605f4ade1b)" d="M 57.6 54.21533 
L 414.72 54.21533 
" style="fill:none;stroke:#b0b0b0;stroke-linecap:square;stroke-width:0.8;"/>
     </g>
     <g id="line2d_28">
      <g>
       <use style="stroke:#000000;stroke-width:0.8;" x="57.6" xlink:href="#mff9d5c4172" y="54.21533"/>
      </g>
     </g>
     <g id="text_15">
      <!-- 175 -->
      <g transform="translate(31.5125 58.014549)scale(0.1 -0.1)">
       <use xlink:href="#DejaVuSans-31"/>
       <use x="63.623047" xlink:href="#DejaVuSans-37"/>
       <use x="127.246094" xlink:href="#DejaVuSans-35"/>
      </g>
     </g>
    </g>
    <g id="text_16">
     <!-- Successful download requests per second -->
     <defs>
      <path d="M 53.515625 70.515625 
L 53.515625 60.890625 
Q 47.90625 63.578125 42.921875 64.890625 
Q 37.9375 66.21875 33.296875 66.21875 
Q 25.25 66.21875 20.875 63.09375 
Q 16.5 59.96875 16.5 54.203125 
Q 16.5 49.359375 19.40625 46.890625 
Q 22.3125 44.4375 30.421875 42.921875 
L 36.375 41.703125 
Q 47.40625 39.59375 52.65625 34.296875 
Q 57.90625 29 57.90625 20.125 
Q 57.90625 9.515625 50.796875 4.046875 
Q 43.703125 -1.421875 29.984375 -1.421875 
Q 24.8125 -1.421875 18.96875 -0.25 
Q 13.140625 0.921875 6.890625 3.21875 
L 6.890625 13.375 
Q 12.890625 10.015625 18.65625 8.296875 
Q 24.421875 6.59375 29.984375 6.59375 
Q 38.421875 6.59375 43.015625 9.90625 
Q 47.609375 13.234375 47.609375 19.390625 
Q 47.609375 24.75 44.3125 27.78125 
Q 41.015625 30.8125 33.5 32.328125 
L 27.484375 33.5 
Q 16.453125 35.6875 11.515625 40.375 
Q 6.59375 45.0625 6.59375 53.421875 
Q 6.59375 63.09375 13.40625 68.65625 
Q 20.21875 74.21875 32.171875 74.21875 
Q 37.3125 74.21875 42.625 73.28125 
Q 47.953125 72.359375 53.515625 70.515625 
" id="DejaVuSans-53"/>
      <path d="M 45.40625 46.390625 
L 45.40625 75.984375 
L 54.390625 75.984375 
L 54.390625 0 
L 45.40625 0 
L 45.40625 8.203125 
Q 42.578125 3.328125 38.25 0.953125 
Q 33.9375 -1.421875 27.875 -1.421875 
Q 17.96875 -1.421875 11.734375 6.484375 
Q 5.515625 14.40625 5.515625 27.296875 
Q 5.515625 40.1875 11.734375 48.09375 
Q 17.96875 56 27.875 56 
Q 33.9375 56 38.25 53.625 
Q 42.578125 51.265625 45.40625 46.390625 
M 14.796875 27.296875 
Q 14.796875 17.390625 18.875 11.75 
Q 22.953125 6.109375 30.078125 6.109375 
Q 37.203125 6.109375 41.296875 11.75 
Q 45.40625 17.390625 45.40625 27.296875 
Q 45.40625 37.203125 41.296875 42.84375 
Q 37.203125 48.484375 30.078125 48.484375 
Q 22.953125 48.484375 18.875 42.84375 
Q 14.796875 37.203125 14.796875 27.296875 
" id="DejaVuSans-64"/>
      <path d="M 4.203125 54.6875 
L 13.1875 54.6875 
L 24.421875 12.015625 
L 35.59375 54.6875 
L 46.1875 54.6875 
L 57.421875 12.015625 
L 68.609375 54.6875 
L 77.59375 54.6875 
L 63.28125 0 
L 52.6875 0 
L 40.921875 44.828125 
L 29.109375 0 
L 18.5 0 
z
" id="DejaVuSans-77"/>
      <path d="M 34.28125 27.484375 
Q 23.390625 27.484375 19.1875 25 
Q 14.984375 22.515625 14.984375 16.5 
Q 14.984375 11.71875 18.140625 8.90625 
Q 21.296875 6.109375 26.703125 6.109375 
Q 34.1875 6.109375 38.703125 11.40625 
Q 43.21875 16.703125 43.21875 25.484375 
L 43.21875 27.484375 
z
M 52.203125 31.203125 
L 52.203125 0 
L 43.21875 0 
L 43.21875 8.296875 
Q 40.140625 3.328125 35.546875 0.953125 
Q 30.953125 -1.421875 24.3125 -1.421875 
Q 15.921875 -1.421875 10.953125 3.296875 
Q 6 8.015625 6 15.921875 
Q 6 25.140625 12.171875 29.828125 
Q 18.359375 34.515625 30.609375 34.515625 
L 43.21875 34.515625 
L 43.21875 35.40625 
Q 43.21875 41.609375 39.140625 45 
Q 35.0625 48.390625 27.6875 48.390625 
Q 23 48.390625 18.546875 47.265625 
Q 14.109375 46.140625 10.015625 43.890625 
L 10.015625 52.203125 
Q 14.9375 54.109375 19.578125 55.046875 
Q 24.21875 56 28.609375 56 
Q 40.484375 56 46.34375 49.84375 
Q 52.203125 43.703125 52.203125 31.203125 
" id="DejaVuSans-61"/>
      <path d="M 14.796875 27.296875 
Q 14.796875 17.390625 18.875 11.75 
Q 22.953125 6.109375 30.078125 6.109375 
Q 37.203125 6.109375 41.296875 11.75 
Q 45.40625 17.390625 45.40625 27.296875 
Q 45.40625 37.203125 41.296875 42.84375 
Q 37.203125 48.484375 30.078125 48.484375 
Q 22.953125 48.484375 18.875 42.84375 
Q 14.796875 37.203125 14.796875 27.296875 
M 45.40625 8.203125 
Q 42.578125 3.328125 38.25 0.953125 
Q 33.9375 -1.421875 27.875 -1.421875 
Q 17.96875 -1.421875 11.734375 6.484375 
Q 5.515625 14.40625 5.515625 27.296875 
Q 5.515625 40.1875 11.734375 48.09375 
Q 17.96875 56 27.875 56 
Q 33.9375 56 38.25 53.625 
Q 42.578125 51.265625 45.40625 46.390625 
L 45.40625 54.6875 
L 54.390625 54.6875 
L 54.390625 -20.796875 
L 45.40625 -20.796875 
z
" id="DejaVuSans-71"/>
      <path d="M 18.109375 8.203125 
L 18.109375 -20.796875 
L 9.078125 -20.796875 
L 9.078125 54.6875 
L 18.109375 54.6875 
L 18.109375 46.390625 
Q 20.953125 51.265625 25.265625 53.625 
Q 29.59375 56 35.59375 56 
Q 45.5625 56 51.78125 48.09375 
Q 58.015625 40.1875 58.015625 27.296875 
Q 58.015625 14.40625 51.78125 6.484375 
Q 45.5625 -1.421875 35.59375 -1.421875 
Q 29.59375 -1.421875 25.265625 0.953125 
Q 20.953125 3.328125 18.109375 8.203125 
M 48.6875 27.296875 
Q 48.6875 37.203125 44.609375 42.84375 
Q 40.53125 48.484375 33.40625 48.484375 
Q 26.265625 48.484375 22.1875 42.84375 
Q 18.109375 37.203125 18.109375 27.296875 
Q 18.109375 17.390625 22.1875 11.75 
Q 26.265625 6.109375 33.40625 6.109375 
Q 40.53125 6.109375 44.609375 11.75 
Q 48.6875 17.390625 48.6875 27.296875 
" id="DejaVuSans-70"/>
     </defs>
     <g transform="translate(25.432812 279.366281)rotate(-90)scale(0.1 -0.1)">
      <use xlink:href="#DejaVuSans-53"/>
      <use x="63.476562" xlink:href="#DejaVuSans-75"/>
      <use x="126.855469" xlink:href="#DejaVuSans-63"/>
      <use x="181.835938" xlink:href="#DejaVuSans-63"/>
      <use x="236.816406" xlink:href="#DejaVuSans-65"/>
      <use x="298.339844" xlink:href="#DejaVuSans-73"/>
      <use x="350.439453" xlink:href="#DejaVuSans-73"/>
      <use x="402.539062" xlink:href="#DejaVuSans-66"/>
      <use x="437.744141" xlink:href="#DejaVuSans-75"/>
      <use x="501.123047" xlink:href="#DejaVuSans-6c"/>
      <use x="528.90625" xlink:href="#DejaVuSans-20"/>
      <use x="560.693359" xlink:href="#DejaVuSans-64"/>
      <use x="624.169922" xlink:href="#DejaVuSans-6f"/>
      <use x="685.351562" xlink:href="#DejaVuSans-77"/>
      <use x="767.138672" xlink:href="#DejaVuSans-6e"/>
      <use x="830.517578" xlink:href="#DejaVuSans-6c"/>
      <use x="858.300781" xlink:href="#DejaVuSans-6f"/>
      <use x="919.482422" xlink:href="#DejaVuSans-61"/>
      <use x="980.761719" xlink:href="#DejaVuSans-64"/>
      <use x="1044.238281" xlink:href="#DejaVuSans-20"/>
      <use x="1076.025391" xlink:href="#DejaVuSans-72"/>
      <use x="1117.107422" xlink:href="#DejaVuSans-65"/>
      <use x="1178.630859" xlink:href="#DejaVuSans-71"/>
      <use x="1242.107422" xlink:href="#DejaVuSans-75"/>
      <use x="1305.486328" xlink:href="#DejaVuSans-65"/>
      <use x="1367.009766" xlink:href="#DejaVuSans-73"/>
      <use x="1419.109375" xlink:href="#DejaVuSans-74"/>
      <use x="1458.318359" xlink:href="#DejaVuSans-73"/>
      <use x="1510.417969" xlink:href="#DejaVuSans-20"/>
      <use x="1542.205078" xlink:href="#DejaVuSans-70"/>
      <use x="1605.681641" xlink:href="#DejaVuSans-65"/>
      <use x="1667.205078" xlink:href="#DejaVuSans-72"/>
      <use x="1708.318359" xlink:href="#DejaVuSans-20"/>
      <use x="1740.105469" xlink:href="#DejaVuSans-73"/>
      <use x="1792.205078" xlink:href="#DejaVuSans-65"/>
      <use x="1853.728516" xlink:href="#DejaVuSans-63"/>
      <use x="1908.708984" xlink:href="#DejaVuSans-6f"/>
      <use x="1969.890625" xlink:href="#DejaVuSans-6e"/>
      <use x="2033.269531" xlink:href="#DejaVuSans-64"/>
     </g>
    </g>
   </g>
   <g id="line2d_29">
    <path clip-path="url(#p605f4ade1b)" d="M 57.6 295.488 
L 57.95712 295.456119 
L 61.1712 283.13189 
L 61.52832 282.449905 
L 62.24256 278.959588 
L 62.59968 278.068296 
L 63.67104 273.41223 
L 64.38528 270.483302 
L 64.7424 270.687066 
L 65.45664 268.276557 
L 65.81376 266.399715 
L 66.17088 263.621877 
L 66.528 263.334944 
L 67.24224 261.654935 
L 67.59936 260.044233 
L 67.95648 257.44798 
L 68.3136 256.138072 
L 68.67072 256.103418 
L 69.02784 252.636665 
L 69.38496 251.226954 
L 69.74208 251.287945 
L 70.0992 251.542996 
L 70.45632 247.112871 
L 70.81344 246.300589 
L 71.17056 244.570679 
L 71.52768 245.894449 
L 71.8848 243.111066 
L 72.24192 241.45878 
L 72.59904 241.788682 
L 72.95616 237.348855 
L 73.31328 237.239349 
L 73.6704 238.051631 
L 74.02752 234.250817 
L 74.38464 234.565473 
L 74.74176 234.414383 
L 75.09888 232.483481 
L 75.456 228.939104 
L 75.81312 228.587023 
L 76.17024 229.348017 
L 76.52736 227.881474 
L 76.88448 225.842452 
L 77.2416 225.633144 
L 77.59872 219.269345 
L 77.95584 218.067556 
L 78.31296 220.254896 
L 78.67008 220.200836 
L 79.0272 214.484368 
L 79.38432 217.465969 
L 80.09856 216.698044 
L 80.45568 211.752273 
L 80.8128 212.367722 
L 81.16992 210.119392 
L 81.52704 209.657805 
L 81.88416 210.508899 
L 82.24128 212.80713 
L 82.95552 209.624538 
L 83.31264 210.291274 
L 83.66976 209.76038 
L 84.02688 211.615044 
L 84.384 210.867911 
L 84.74112 209.147703 
L 85.09824 204.700945 
L 85.45536 209.747905 
L 85.81248 204.68847 
L 86.1696 207.975023 
L 86.52672 203.47975 
L 87.24096 205.875011 
L 87.59808 200.473198 
L 88.31232 201.017954 
L 88.66944 204.347478 
L 89.02656 202.772815 
L 89.38368 201.896771 
L 89.7408 202.293209 
L 90.09792 203.679355 
L 90.45504 199.988047 
L 90.81216 201.432412 
L 91.16928 196.719513 
L 91.5264 195.144851 
L 91.88352 197.732786 
L 92.24064 194.927226 
L 92.59776 196.381294 
L 92.95488 193.516129 
L 93.312 196.126243 
L 93.66912 193.672763 
L 94.02624 195.878122 
L 94.38336 196.841494 
L 94.74048 193.423257 
L 95.0976 193.380286 
L 95.45472 196.870603 
L 95.81184 192.274141 
L 96.16896 190.799281 
L 96.52608 192.13414 
L 96.8832 191.628197 
L 97.24032 190.172743 
L 97.59744 190.491557 
L 98.31168 192.329587 
L 98.6688 188.783824 
L 99.02592 190.201852 
L 99.38304 190.29611 
L 99.74016 188.521843 
L 100.09728 191.630969 
L 101.16864 183.710528 
L 101.52576 187.485005 
L 101.88288 186.816882 
L 102.24 183.588547 
L 102.59712 182.188539 
L 102.95424 185.947768 
L 103.31136 183.125574 
L 103.66848 183.086762 
L 104.0256 185.020436 
L 104.38272 182.499036 
L 104.73984 181.168335 
L 105.45408 186.732327 
L 105.8112 185.795292 
L 106.16832 186.523019 
L 106.52544 180.956255 
L 106.88256 182.713888 
L 107.23968 180.271498 
L 107.5968 180.863383 
L 107.95392 179.729515 
L 108.31104 176.287713 
L 108.66816 180.210508 
L 109.02528 179.406543 
L 109.3824 176.591279 
L 109.73952 182.924583 
L 110.09664 181.994478 
L 110.45376 175.482362 
L 110.81088 173.965918 
L 111.168 174.410871 
L 111.52512 176.541378 
L 111.88224 179.962388 
L 112.23936 175.905137 
L 112.59648 175.518402 
L 112.9536 176.139395 
L 113.31072 178.767529 
L 113.66784 176.90039 
L 114.38208 171.705113 
L 114.7392 171.293427 
L 115.09632 174.100374 
L 115.45344 173.584727 
L 115.81056 169.817181 
L 116.16768 171.845113 
L 116.5248 171.452834 
L 116.88192 169.982132 
L 117.23904 173.910472 
L 117.59616 176.441575 
L 117.95328 174.617406 
L 118.3104 168.498956 
L 118.66752 174.840576 
L 119.38176 168.633412 
L 119.73888 168.663907 
L 120.096 170.912237 
L 120.45312 168.260538 
L 120.81024 168.278558 
L 121.16736 169.679952 
L 121.52448 172.926308 
L 121.8816 164.833984 
L 122.23872 169.627279 
L 122.59584 168.343707 
L 122.95296 166.148051 
L 123.31008 165.47577 
L 123.6672 169.372228 
L 124.02432 169.359753 
L 124.38144 168.997968 
L 124.73856 164.246258 
L 125.09568 163.03338 
L 125.4528 170.048667 
L 125.80992 161.465648 
L 126.16704 162.068622 
L 126.52416 160.294354 
L 126.88128 164.200515 
L 127.2384 162.466446 
L 127.59552 165.019728 
L 127.95264 163.79576 
L 128.30976 161.419905 
L 128.66688 163.131796 
L 129.024 162.397138 
L 129.38112 161.214755 
L 129.73824 166.791223 
L 130.09536 160.48287 
L 130.45248 161.10525 
L 130.8096 166.003892 
L 131.16672 157.659289 
L 131.52384 162.968231 
L 131.88096 158.326026 
L 132.23808 159.848015 
L 132.5952 155.878091 
L 132.95232 159.735737 
L 133.30944 159.437716 
L 133.66656 157.509586 
L 134.02368 159.902075 
L 134.3808 163.463085 
L 134.73792 159.005238 
L 135.09504 156.167796 
L 135.45216 159.185437 
L 135.80928 153.815505 
L 136.1664 160.248611 
L 136.52352 157.257307 
L 136.88064 157.171366 
L 137.23776 161.491985 
L 137.59488 157.28503 
L 137.952 154.436499 
L 138.66624 160.78505 
L 139.02336 158.424442 
L 139.38048 153.886199 
L 139.7376 154.809372 
L 140.09472 155.008977 
L 140.45184 150.908756 
L 140.80896 151.477076 
L 141.16608 155.01175 
L 141.5232 153.937486 
L 141.88032 153.761445 
L 142.23744 149.280034 
L 142.59456 148.557851 
L 142.95168 151.094499 
L 143.3088 152.233912 
L 143.66592 156.69869 
L 144.02304 150.372317 
L 144.38016 151.037667 
L 144.73728 152.010742 
L 145.0944 146.933287 
L 145.45152 156.792948 
L 146.16576 153.172333 
L 146.52288 154.713728 
L 146.88 147.478043 
L 147.23712 149.676471 
L 147.59424 149.140033 
L 147.95136 150.126969 
L 148.30848 153.377483 
L 149.02272 146.995664 
L 149.37984 152.863222 
L 149.73696 150.510932 
L 150.09408 143.782576 
L 150.4512 152.096683 
L 150.80832 145.039811 
L 151.16544 153.340057 
L 151.52256 143.943369 
L 151.87968 144.271886 
L 152.2368 149.684788 
L 152.59392 143.393069 
L 152.95104 149.300826 
L 153.30816 151.177668 
L 153.66528 143.426337 
L 154.0224 146.438433 
L 154.37952 150.826973 
L 154.73664 142.826135 
L 155.09376 146.050312 
L 155.45088 147.089922 
L 155.808 148.914091 
L 156.16512 143.204553 
L 156.87936 149.435282 
L 157.23648 146.646355 
L 157.5936 148.963992 
L 157.95072 142.632075 
L 158.30784 138.949083 
L 158.66496 143.358415 
L 159.02208 140.681766 
L 159.3792 140.616618 
L 159.73632 138.186703 
L 160.09344 144.848523 
L 160.45056 146.995664 
L 160.80768 147.627747 
L 161.1648 144.727928 
L 161.52192 147.145368 
L 161.87904 139.402353 
L 162.23616 145.178426 
L 162.59328 139.647701 
L 162.9504 146.773881 
L 163.30752 144.919216 
L 163.66464 136.052037 
L 164.736 145.473675 
L 165.09312 139.297006 
L 165.45024 143.451287 
L 165.80736 140.374042 
L 166.16448 144.952484 
L 166.5216 141.139195 
L 166.87872 134.306878 
L 167.23584 143.517822 
L 167.59296 134.123907 
L 167.95008 142.497618 
L 168.3072 132.529839 
L 168.66432 139.588097 
L 169.02144 136.849071 
L 169.37856 142.973067 
L 169.73568 138.950469 
L 170.0928 133.633211 
L 170.44992 141.574445 
L 170.80704 136.632832 
L 171.16416 138.685715 
L 171.52128 132.811226 
L 171.8784 138.359971 
L 172.23552 132.170827 
L 172.59264 140.906322 
L 172.94976 131.143692 
L 173.30688 134.520345 
L 173.664 133.759351 
L 174.02112 140.911867 
L 174.37824 139.535423 
L 175.09248 130.377153 
L 175.4496 132.685087 
L 175.80672 139.468888 
L 176.16384 129.623089 
L 176.52096 129.234968 
L 176.87808 129.580119 
L 177.2352 136.347286 
L 177.59232 131.271217 
L 177.94944 138.875618 
L 178.30656 128.932788 
L 178.66368 129.973784 
L 179.0208 137.592046 
L 179.37792 135.4754 
L 179.73504 134.77401 
L 180.09216 130.512995 
L 180.44928 128.622291 
L 180.8064 137.147093 
L 181.16352 130.418737 
L 181.52064 136.78115 
L 181.87776 131.876964 
L 182.23488 130.115171 
L 182.592 136.499762 
L 182.94912 128.303478 
L 183.30624 125.8098 
L 183.66336 127.261096 
L 184.02048 132.270629 
L 184.3776 130.381311 
L 184.73472 130.923295 
L 185.09184 130.278737 
L 185.44896 135.108071 
L 185.80608 128.830213 
L 186.1632 132.830632 
L 186.52032 123.761075 
L 186.87744 129.728436 
L 187.23456 129.205859 
L 187.59168 133.164694 
L 187.9488 130.529629 
L 188.30592 131.109038 
L 188.66304 122.000669 
L 189.02016 122.585623 
L 189.37728 125.174945 
L 189.7344 129.058928 
L 190.44864 132.82786 
L 190.80576 132.728058 
L 191.16288 128.631994 
L 191.52 127.134956 
L 191.87712 129.589822 
L 192.23424 120.656107 
L 192.59136 130.045864 
L 192.94848 119.868776 
L 193.3056 127.664464 
L 193.66272 129.229424 
L 194.01984 123.636322 
L 194.37696 127.801693 
L 194.73408 119.683032 
L 195.44832 128.24526 
L 195.80544 130.396559 
L 196.16256 121.889778 
L 196.51968 122.076907 
L 196.8768 120.297095 
L 197.23392 122.503841 
L 197.59104 129.356949 
L 198.30528 122.79909 
L 198.6624 122.890575 
L 199.01952 124.179692 
L 199.37664 123.833155 
L 199.73376 124.698111 
L 200.09088 128.633381 
L 200.448 122.880872 
L 200.80512 122.37077 
L 201.16224 121.023436 
L 201.51936 126.581884 
L 201.87648 120.999872 
L 202.59072 125.122271 
L 202.94784 124.588605 
L 203.30496 125.568611 
L 203.66208 120.448185 
L 204.37632 122.462256 
L 204.73344 115.065778 
L 205.09056 122.081066 
L 205.44768 119.343426 
L 205.8048 126.401685 
L 206.87616 114.735875 
L 207.23328 113.681018 
L 207.5904 115.247363 
L 207.94752 115.298651 
L 208.30464 114.088545 
L 208.66176 119.634517 
L 209.01888 119.22699 
L 209.376 123.004239 
L 209.73312 121.552944 
L 210.09024 117.096483 
L 210.44736 122.100472 
L 211.1616 115.413701 
L 211.51872 121.106605 
L 211.87584 117.803418 
L 212.23296 123.808204 
L 212.59008 114.38518 
L 212.9472 116.397865 
L 213.30432 112.900617 
L 213.66144 121.180071 
L 214.01856 113.109925 
L 214.37568 115.627167 
L 214.7328 115.532909 
L 215.44704 109.686143 
L 215.80416 122.386018 
L 216.16128 116.984205 
L 216.5184 109.774857 
L 216.87552 110.218424 
L 217.23264 117.908765 
L 217.58976 117.333514 
L 217.94688 113.937455 
L 218.304 113.714285 
L 218.66112 112.766161 
L 219.01824 116.160834 
L 219.37536 117.368168 
L 219.73248 114.185575 
L 220.0896 114.070525 
L 220.44672 116.658461 
L 220.80384 110.380603 
L 221.16096 112.174276 
L 221.51808 112.390515 
L 221.8752 117.869953 
L 222.23232 110.246147 
L 222.58944 108.774059 
L 222.94656 118.991345 
L 223.30368 117.843616 
L 223.6608 106.4786 
L 224.01792 112.79527 
L 224.37504 115.702019 
L 224.73216 111.969127 
L 225.08928 118.252529 
L 225.4464 106.256817 
L 225.80352 115.548157 
L 226.16064 105.70513 
L 226.51776 116.02915 
L 226.87488 111.008527 
L 227.58912 106.188896 
L 227.94624 107.878608 
L 228.30336 110.609317 
L 228.66048 109.866342 
L 229.0176 107.263159 
L 229.37472 108.609107 
L 229.73184 108.013064 
L 230.08896 104.011259 
L 230.44608 117.020245 
L 230.8032 108.240392 
L 231.16032 105.34196 
L 231.51744 113.134876 
L 231.87456 114.130129 
L 232.23168 113.700424 
L 232.5888 106.384342 
L 232.94592 107.472467 
L 233.30304 112.985172 
L 233.66016 112.895073 
L 234.01728 105.695427 
L 234.3744 110.251691 
L 234.73152 111.443777 
L 235.08864 104.926116 
L 235.44576 108.125342 
L 235.80288 114.514092 
L 236.16 105.481961 
L 236.51712 106.021172 
L 236.87424 107.46415 
L 237.23136 111.651699 
L 237.58848 112.512496 
L 237.9456 105.206118 
L 238.30272 114.292308 
L 238.65984 104.079181 
L 239.01696 107.827321 
L 239.37408 105.221365 
L 239.7312 104.126309 
L 240.08832 110.695258 
L 240.44544 101.148867 
L 240.80256 112.983786 
L 241.15968 105.817408 
L 241.5168 105.03978 
L 241.87392 99.753017 
L 242.23104 100.148069 
L 242.58816 109.626539 
L 242.94528 103.405513 
L 243.3024 102.293824 
L 243.65952 109.102576 
L 244.01664 107.548705 
L 244.37376 99.310836 
L 244.73088 103.588485 
L 245.088 103.670267 
L 245.44512 104.560173 
L 245.80224 111.42853 
L 246.51648 97.895581 
L 246.8736 108.876634 
L 247.23072 111.142983 
L 247.58784 107.710884 
L 247.94496 98.850636 
L 248.30208 104.05423 
L 248.6592 98.707863 
L 249.01632 108.137818 
L 249.37344 102.101149 
L 249.73056 102.328477 
L 250.08768 101.222332 
L 250.4448 102.026297 
L 250.80192 100.075989 
L 251.15904 108.728316 
L 251.51616 109.594658 
L 251.87328 103.436009 
L 252.2304 108.670098 
L 252.58752 106.028103 
L 252.94464 105.161761 
L 253.30176 97.94271 
L 253.65888 103.793634 
L 254.016 106.685136 
L 254.37312 104.927502 
L 254.73024 98.257365 
L 255.08736 95.358933 
L 255.44448 95.094179 
L 255.8016 94.50368 
L 256.15872 98.933804 
L 256.51584 107.060782 
L 256.87296 104.288489 
L 257.5872 94.001895 
L 257.94432 95.401903 
L 258.30144 96.192007 
L 258.65856 105.516614 
L 259.01568 94.53972 
L 259.3728 95.25913 
L 259.72992 105.17285 
L 260.08704 105.943548 
L 260.44416 105.530476 
L 260.80128 95.207843 
L 261.1584 106.004538 
L 261.51552 103.000758 
L 261.87264 101.553621 
L 262.22976 101.324907 
L 262.58688 99.732225 
L 262.944 94.394175 
L 263.30112 99.617175 
L 263.65824 92.691987 
L 264.01536 96.742307 
L 264.37248 97.963502 
L 264.7296 93.746844 
L 265.08672 99.072419 
L 265.44384 93.093969 
L 265.80096 103.702149 
L 266.15808 96.392998 
L 266.5152 100.304703 
L 266.87232 91.182473 
L 267.22944 91.800694 
L 267.58656 100.489061 
L 267.94368 100.897974 
L 268.3008 93.76625 
L 268.65792 97.098546 
L 269.01504 92.116736 
L 269.37216 96.322304 
L 269.72928 102.765114 
L 270.0864 92.873572 
L 270.44352 98.960141 
L 270.80064 94.287441 
L 271.51488 103.124126 
L 271.872 103.045115 
L 272.22912 101.000549 
L 272.58624 90.648807 
L 272.94336 91.555346 
L 273.30048 90.989799 
L 273.6576 98.728655 
L 274.01472 95.291011 
L 274.37184 95.515567 
L 274.72896 88.550181 
L 275.08608 101.717187 
L 275.4432 98.610832 
L 275.80032 102.060951 
L 276.15744 100.475199 
L 276.51456 100.075989 
L 276.87168 95.90646 
L 277.2288 101.227877 
L 277.58592 89.96405 
L 277.94304 89.940486 
L 278.30016 95.297942 
L 278.65728 88.895331 
L 279.0144 98.51103 
L 279.37152 99.244301 
L 279.72864 97.180329 
L 280.08576 89.410978 
L 280.44288 95.19814 
L 280.8 99.030835 
L 281.15712 92.504857 
L 281.51424 99.220737 
L 281.87136 90.104051 
L 282.22848 95.834381 
L 282.5856 89.915535 
L 282.94272 100.094009 
L 283.29984 97.370231 
L 283.65696 99.576976 
L 284.01408 93.72328 
L 284.3712 92.431391 
L 284.72832 87.888989 
L 285.08544 87.543838 
L 285.44256 98.279543 
L 285.79968 89.898901 
L 286.1568 84.663426 
L 286.51392 87.872355 
L 286.87104 84.788179 
L 287.22816 84.828377 
L 287.58528 96.445671 
L 287.9424 95.613983 
L 288.29952 92.245647 
L 288.65664 86.441852 
L 289.01376 98.084097 
L 289.37088 91.053561 
L 289.728 86.405812 
L 290.08512 85.418876 
L 290.44224 89.67989 
L 290.79936 95.907847 
L 291.15648 95.956362 
L 291.5136 84.710555 
L 291.87072 92.488223 
L 292.22784 84.797882 
L 292.58496 85.263627 
L 292.94208 96.042303 
L 293.2992 87.742057 
L 293.65632 89.291769 
L 294.01344 86.829973 
L 294.37056 92.651788 
L 294.72768 88.067802 
L 295.0848 86.113335 
L 295.44192 85.151349 
L 295.79904 94.542492 
L 296.15616 93.735755 
L 296.51328 85.806997 
L 296.8704 92.10426 
L 297.22752 94.209817 
L 297.58464 94.715761 
L 297.94176 81.801033 
L 298.29888 82.952921 
L 299.01312 94.008826 
L 299.37024 85.687788 
L 299.72736 90.07217 
L 300.08448 92.85278 
L 300.4416 85.567193 
L 300.79872 93.676151 
L 301.15584 90.877521 
L 301.51296 84.764614 
L 301.87008 86.83829 
L 302.2272 81.326971 
L 302.58432 90.883065 
L 302.94144 90.603064 
L 303.29856 92.956741 
L 303.65568 86.465416 
L 304.0128 90.876135 
L 304.36992 85.368974 
L 304.72704 83.774906 
L 305.08416 88.588993 
L 305.44128 91.652377 
L 305.7984 82.179451 
L 306.15552 83.286982 
L 306.51264 80.008746 
L 306.86976 88.015128 
L 307.22688 92.463272 
L 307.584 87.455125 
L 307.94112 87.0074 
L 308.29824 81.349149 
L 308.65536 86.232544 
L 309.01248 86.396109 
L 309.3696 83.263418 
L 309.72672 85.330162 
L 310.08384 89.042263 
L 310.44096 79.238048 
L 310.79808 84.519266 
L 311.1552 91.75911 
L 311.51232 78.404974 
L 311.86944 92.235944 
L 312.22656 87.771166 
L 312.58368 81.006771 
L 312.9408 85.902641 
L 313.29792 78.330122 
L 313.65504 83.539261 
L 314.01216 79.786962 
L 314.36928 79.689932 
L 314.7264 80.99984 
L 315.08352 76.823381 
L 315.44064 83.916293 
L 315.79776 79.630328 
L 316.512 78.897056 
L 316.86912 86.544427 
L 317.22624 82.114302 
L 317.58336 76.020802 
L 317.94048 76.855262 
L 318.2976 85.959473 
L 318.65472 78.510321 
L 319.01184 86.195118 
L 319.36896 84.084016 
L 319.72608 75.459413 
L 320.0832 79.095275 
L 320.44032 89.703455 
L 320.79744 81.770538 
L 321.15456 82.939059 
L 321.51168 74.669309 
L 321.8688 78.439628 
L 322.22592 78.018239 
L 322.58304 82.025589 
L 322.94016 88.862064 
L 323.29728 82.498265 
L 323.6544 86.279673 
L 324.01152 87.549383 
L 324.36864 85.836106 
L 324.72576 86.762052 
L 325.08288 81.965984 
L 325.44 87.226411 
L 325.79712 73.455045 
L 326.15424 84.559465 
L 326.51136 79.190919 
L 326.86848 79.929735 
L 327.2256 87.162648 
L 327.58272 86.886805 
L 327.93984 85.622639 
L 328.29696 78.154081 
L 328.65408 83.876094 
L 329.0112 73.258212 
L 329.36832 85.129171 
L 329.72544 83.106783 
L 330.08256 73.059993 
L 330.43968 81.105187 
L 330.7968 83.504607 
L 331.15392 86.992152 
L 331.51104 74.992281 
L 332.22528 77.20873 
L 332.5824 84.645406 
L 332.93952 86.689972 
L 333.65376 74.891092 
L 334.01088 77.882397 
L 334.368 76.59328 
L 334.72512 86.152147 
L 335.08224 75.81288 
L 335.43936 78.55745 
L 335.79648 83.442231 
L 336.1536 82.05747 
L 336.51072 75.537037 
L 336.86784 85.183231 
L 337.22496 76.787341 
L 337.58208 75.097628 
L 337.9392 84.628772 
L 338.29632 81.447566 
L 338.65344 71.781966 
L 339.01056 75.555057 
L 339.36768 77.041006 
L 339.7248 77.193482 
L 340.08192 80.607561 
L 340.43904 75.17248 
L 340.79616 79.975478 
L 341.15328 72.322563 
L 341.5104 76.26615 
L 341.86752 71.014041 
L 342.22464 78.310716 
L 342.58176 80.284589 
L 342.93888 76.001396 
L 343.296 82.191926 
L 343.65312 83.641836 
L 344.01024 71.124932 
L 344.36736 76.761004 
L 344.72448 74.198019 
L 345.0816 68.879375 
L 345.43872 79.419633 
L 345.79584 75.509314 
L 346.15296 80.021221 
L 346.51008 82.309749 
L 347.22432 67.792636 
L 347.58144 73.881978 
L 347.93856 70.411067 
L 348.29568 68.718582 
L 348.6528 80.356668 
L 349.00992 83.23015 
L 349.36704 74.534853 
L 349.72416 72.440385 
L 350.08128 79.674684 
L 350.4384 78.047348 
L 350.79552 82.441433 
L 351.15264 81.217465 
L 351.50976 75.803177 
L 351.86688 81.989549 
L 352.58112 71.330082 
L 352.93824 67.551446 
L 353.29536 66.593619 
L 353.65248 79.262999 
L 354.0096 77.922595 
L 354.36672 70.732653 
L 354.72384 76.580805 
L 355.08096 67.767685 
L 355.43808 81.124594 
L 355.7952 76.579419 
L 356.15232 69.310466 
L 356.50944 73.259598 
L 356.86656 66.535401 
L 357.22368 66.646293 
L 357.5808 74.278416 
L 357.93792 75.494066 
L 358.29504 79.859042 
L 358.65216 78.222003 
L 359.00928 67.05382 
L 359.3664 64.85955 
L 359.72352 68.853038 
L 360.08064 66.527084 
L 360.43776 72.590089 
L 360.79488 75.046341 
L 361.50912 68.392837 
L 361.86624 72.103552 
L 362.22336 74.401783 
L 362.58048 64.023703 
L 362.9376 69.824727 
L 363.29472 69.206505 
L 363.65184 70.266908 
L 364.00896 75.309709 
L 364.36608 74.07188 
L 364.7232 66.514609 
L 365.08032 64.619746 
L 365.43744 78.605965 
L 365.79456 66.008665 
L 366.15168 78.483984 
L 366.5088 65.075789 
L 366.86592 78.526955 
L 367.22304 65.944903 
L 367.58016 77.718831 
L 367.93728 67.207682 
L 368.2944 72.698209 
L 368.65152 63.178154 
L 369.00864 67.753824 
L 369.36576 69.379774 
L 369.72288 70.253046 
L 370.08 78.49646 
L 370.43712 62.755379 
L 370.79424 77.868535 
L 371.15136 75.739414 
L 371.50848 63.876772 
L 371.8656 73.843166 
L 372.22272 67.812042 
L 372.57984 71.303745 
L 372.93696 69.8774 
L 373.29408 76.615459 
L 373.6512 66.707283 
L 374.00832 69.891262 
L 374.36544 71.445132 
L 374.72256 70.709088 
L 375.07968 71.90256 
L 375.4368 75.257035 
L 375.79392 71.748698 
L 376.15104 63.846277 
L 376.50816 64.643311 
L 376.86528 75.535651 
L 377.2224 66.172231 
L 377.57952 71.483944 
L 377.93664 70.135224 
L 378.29376 76.874668 
L 378.65088 63.57875 
L 379.008 71.446518 
L 379.36512 74.849508 
L 379.72224 70.964139 
L 380.07936 73.026725 
L 380.43648 68.675611 
L 380.7936 60.904874 
L 381.15072 63.065876 
L 381.50784 75.351293 
L 381.86496 69.085911 
L 382.22208 75.537037 
L 382.5792 74.997826 
L 382.93632 74.243762 
L 383.29344 64.098555 
L 383.65056 59.432786 
L 384.00768 68.984722 
L 384.3648 64.317567 
L 384.72192 66.571441 
L 385.07904 67.795408 
L 385.79328 72.459791 
L 386.1504 66.887482 
L 386.50752 68.912642 
L 386.86464 65.653812 
L 387.22176 65.929655 
L 387.57888 67.422535 
L 387.936 70.253046 
L 388.29312 70.546909 
L 388.65024 61.739334 
L 389.00736 69.783142 
L 389.36448 65.264305 
L 389.7216 67.563922 
L 390.07872 63.243303 
L 390.43584 74.142573 
L 390.79296 61.218143 
L 391.15008 58.933773 
L 391.5072 58.305849 
L 391.86432 69.636211 
L 392.22144 73.987325 
L 392.57856 69.978589 
L 392.93568 63.316769 
L 393.64992 69.292447 
L 394.00704 58.127036 
L 394.36416 58.455553 
L 394.72128 70.487305 
L 395.0784 62.907855 
L 395.43552 63.523305 
L 395.79264 59.29833 
L 396.14976 64.722321 
L 396.50688 66.331637 
L 396.864 58.519315 
L 397.22112 61.524481 
L 397.57824 69.246704 
L 397.93536 67.84531 
L 398.29248 71.615628 
L 398.6496 72.757813 
L 399.00672 58.10763 
L 399.36384 60.107839 
L 399.72096 69.935619 
L 400.4352 64.310636 
L 400.79232 69.557201 
L 401.14944 57.632182 
L 401.50656 59.63655 
L 401.86368 60.627644 
L 402.2208 70.275224 
L 402.57792 56.509403 
L 402.93504 61.189034 
L 403.29216 63.605087 
L 403.64928 64.549053 
L 404.0064 57.080495 
L 404.36352 64.339745 
L 404.72064 64.878956 
L 405.07776 58.48882 
L 405.43488 69.044326 
L 405.792 60.073186 
L 406.14912 54.948602 
L 406.50624 58.522088 
L 406.86336 69.0069 
L 407.22048 60.534773 
L 407.5776 57.679311 
L 407.93472 64.860936 
L 408.29184 62.666666 
L 408.64896 70.024332 
L 409.00608 57.443666 
L 409.3632 63.325086 
L 409.72032 62.421318 
L 410.07744 65.839555 
L 410.43456 67.439169 
L 410.79168 69.772053 
L 411.1488 65.020343 
L 411.50592 67.814814 
L 411.86304 65.63302 
L 412.22016 64.815193 
L 412.57728 56.629998 
L 412.9344 64.763906 
L 413.29152 61.044875 
L 413.64864 53.568 
L 414.00576 60.820319 
L 414.36288 60.68309 
L 414.72 62.134386 
L 414.72 62.134386 
" style="fill:none;stroke:#000080;stroke-linecap:square;stroke-width:0.5;"/>
   </g>
   <g id="patch_3">
    <path d="M 57.6 307.584 
L 57.6 41.472 
" style="fill:none;stroke:#000000;stroke-linecap:square;stroke-linejoin:miter;stroke-width:0.8;"/>
   </g>
   <g id="patch_4">
    <path d="M 414.72 307.584 
L 414.72 41.472 
" style="fill:none;stroke:#000000;stroke-linecap:square;stroke-linejoin:miter;stroke-width:0.8;"/>
   </g>
   <g id="patch_5">
    <path d="M 57.6 307.584 
L 414.72 307.584 
" style="fill:none;stroke:#000000;stroke-linecap:square;stroke-linejoin:miter;stroke-width:0.8;"/>
   </g>
   <g id="patch_6">
    <path d="M 57.6 41.472 
L 414.72 41.472 
" style="fill:none;stroke:#000000;stroke-linecap:square;stroke-linejoin:miter;stroke-width:0.8;"/>
   </g>
   <g id="text_17">
    <!-- Test -->
    <defs>
     <path d="M -0.296875 72.90625 
L 61.375 72.90625 
L 61.375 64.59375 
L 35.5 64.59375 
L 35.5 0 
L 25.59375 0 
L 25.59375 64.59375 
L -0.296875 64.59375 
z
" id="DejaVuSans-54"/>
    </defs>
    <g transform="translate(223.341563 35.472)scale(0.12 -0.12)">
     <use xlink:href="#DejaVuSans-54"/>
     <use x="60.818359" xlink:href="#DejaVuSans-65"/>
     <use x="122.341797" xlink:href="#DejaVuSans-73"/>
     <use x="174.441406" xlink:href="#DejaVuSans-74"/>
    </g>
   </g>
   <g id="legend_1">
    <g id="patch_7">
     <path d="M 64.6 64.150125 
L 306.276563 64.150125 
Q 308.276563 64.150125 308.276563 62.150125 
L 308.276563 48.472 
Q 308.276563 46.472 306.276563 46.472 
L 64.6 46.472 
Q 62.6 46.472 62.6 48.472 
L 62.6 62.150125 
Q 62.6 64.150125 64.6 64.150125 
z
" style="fill:#ffffff;opacity:0.8;stroke:#cccccc;stroke-linejoin:miter;"/>
    </g>
    <g id="line2d_30">
     <path d="M 66.6 54.570438 
L 86.6 54.570438 
" style="fill:none;stroke:#000080;stroke-linecap:square;stroke-width:0.5;"/>
    </g>
    <g id="line2d_31"/>
    <g id="text_18">
     <!-- Successful download requests per second -->
     <g transform="translate(94.6 58.070438)scale(0.1 -0.1)">
      <use xlink:href="#DejaVuSans-53"/>
      <use x="63.476562" xlink:href="#DejaVuSans-75"/>
      <use x="126.855469" xlink:href="#DejaVuSans-63"/>
      <use x="181.835938" xlink:href="#DejaVuSans-63"/>
      <use x="236.816406" xlink:href="#DejaVuSans-65"/>
      <use x="298.339844" xlink:href="#DejaVuSans-73"/>
      <use x="350.439453" xlink:href="#DejaVuSans-73"/>
      <use x="402.539062" xlink:href="#DejaVuSans-66"/>
      <use x="437.744141" xlink:href="#DejaVuSans-75"/>
      <use x="501.123047" xlink:href="#DejaVuSans-6c"/>
      <use x="528.90625" xlink:href="#DejaVuSans-20"/>
      <use x="560.693359" xlink:href="#DejaVuSans-64"/>
      <use x="624.169922" xlink:href="#DejaVuSans-6f"/>
      <use x="685.351562" xlink:href="#DejaVuSans-77"/>
      <use x="767.138672" xlink:href="#DejaVuSans-6e"/>
      <use x="830.517578" xlink:href="#DejaVuSans-6c"/>
      <use x="858.300781" xlink:href="#DejaVuSans-6f"/>
      <use x="919.482422" xlink:href="#DejaVuSans-61"/>
      <use x="980.761719" xlink:href="#DejaVuSans-64"/>
      <use x="1044.238281" xlink:href="#DejaVuSans-20"/>
      <use x="1076.025391" xlink:href="#DejaVuSans-72"/>
      <use x="1117.107422" xlink:href="#DejaVuSans-65"/>
      <use x="1178.630859" xlink:href="#DejaVuSans-71"/>
      <use x="1242.107422" xlink:href="#DejaVuSans-75"/>
      <use x="1305.486328" xlink:href="#DejaVuSans-65"/>
      <use x="1367.009766" xlink:href="#DejaVuSans-73"/>
      <use x="1419.109375" xlink:href="#DejaVuSans-74"/>
      <use x="1458.318359" xlink:href="#DejaVuSans-73"/>
      <use x="1510.417969" xlink:href="#DejaVuSans-20"/>
      <use x="1542.205078" xlink:href="#DejaVuSans-70"/>
      <use x="1605.681641" xlink:href="#DejaVuSans-65"/>
      <use x="1667.205078" xlink:href="#DejaVuSans-72"/>
      <use x="1708.318359" xlink:href="#DejaVuSans-20"/>
      <use x="1740.105469" xlink:href="#DejaVuSans-73"/>
      <use x="1792.205078" xlink:href="#DejaVuSans-65"/>
      <use x="1853.728516" xlink:href="#DejaVuSans-63"/>
      <use x="1908.708984" xlink:href="#DejaVuSans-6f"/>
      <use x="1969.890625" xlink:href="#DejaVuSans-6e"/>
      <use x="2033.269531" xlink:href="#DejaVuSans-64"/>
     </g>
    </g>
   </g>
  </g>
 </g>
 <defs>
  <clipPath id="p605f4ade1b">
   <rect height="266.112" width="357.12" x="57.6" y="41.472"/>
  </clipPath>
 </defs>
</svg>
