<?xml version="1.0" encoding="utf-8" standalone="no"?>
<!DOCTYPE svg PUBLIC "-//W3C//DTD SVG 1.1//EN"
  "http://www.w3.org/Graphics/SVG/1.1/DTD/svg11.dtd">
<!-- Created with matplotlib (http://matplotlib.org/) -->
<svg height="345pt" version="1.1" viewBox="0 0 460 345" width="460pt" xmlns="http://www.w3.org/2000/svg" xmlns:xlink="http://www.w3.org/1999/xlink">
 <defs>
  <style type="text/css">
*{stroke-linecap:butt;stroke-linejoin:round;}
  </style>
 </defs>
 <g id="figure_1">
  <g id="patch_1">
   <path d="M 0 345.6 
L 460.8 345.6 
L 460.8 0 
L 0 0 
z
" style="fill:#ffffff;"/>
  </g>
  <g id="axes_1">
   <g id="patch_2">
    <path d="M 57.6 307.584 
L 414.72 307.584 
L 414.72 41.472 
L 57.6 41.472 
z
" style="fill:#ffffff;"/>
   </g>
   <g id="matplotlib.axis_1">
    <g id="xtick_1">
     <g id="line2d_1">
      <path clip-path="url(#pebda4f467a)" d="M 57.6 307.584 
L 57.6 41.472 
" style="fill:none;stroke:#b0b0b0;stroke-linecap:square;stroke-width:0.8;"/>
     </g>
     <g id="line2d_2">
      <defs>
       <path d="M 0 0 
L 0 3.5 
" id="m01b2510065" style="stroke:#000000;stroke-width:0.8;"/>
      </defs>
      <g>
       <use style="stroke:#000000;stroke-width:0.8;" x="57.6" xlink:href="#m01b2510065" y="307.584"/>
      </g>
     </g>
     <g id="text_1">
      <!-- 0 -->
      <defs>
       <path d="M 31.78125 66.40625 
Q 24.171875 66.40625 20.328125 58.90625 
Q 16.5 51.421875 16.5 36.375 
Q 16.5 21.390625 20.328125 13.890625 
Q 24.171875 6.390625 31.78125 6.390625 
Q 39.453125 6.390625 43.28125 13.890625 
Q 47.125 21.390625 47.125 36.375 
Q 47.125 51.421875 43.28125 58.90625 
Q 39.453125 66.40625 31.78125 66.40625 
M 31.78125 74.21875 
Q 44.046875 74.21875 50.515625 64.515625 
Q 56.984375 54.828125 56.984375 36.375 
Q 56.984375 17.96875 50.515625 8.265625 
Q 44.046875 -1.421875 31.78125 -1.421875 
Q 19.53125 -1.421875 13.0625 8.265625 
Q 6.59375 17.96875 6.59375 36.375 
Q 6.59375 54.828125 13.0625 64.515625 
Q 19.53125 74.21875 31.78125 74.21875 
" id="DejaVuSans-30"/>
      </defs>
      <g transform="translate(54.41875 322.182437)scale(0.1 -0.1)">
       <use xlink:href="#DejaVuSans-30"/>
      </g>
     </g>
    </g>
    <g id="xtick_2">
     <g id="line2d_3">
      <path clip-path="url(#pebda4f467a)" d="M 129.024 307.584 
L 129.024 41.472 
" style="fill:none;stroke:#b0b0b0;stroke-linecap:square;stroke-width:0.8;"/>
     </g>
     <g id="line2d_4">
      <g>
       <use style="stroke:#000000;stroke-width:0.8;" x="129.024" xlink:href="#m01b2510065" y="307.584"/>
      </g>
     </g>
     <g id="text_2">
      <!-- 200 -->
      <defs>
       <path d="M 19.1875 8.296875 
L 53.609375 8.296875 
L 53.609375 0 
L 7.328125 0 
L 7.328125 8.296875 
Q 12.9375 14.109375 22.625 23.890625 
Q 32.328125 33.6875 34.8125 36.53125 
Q 39.546875 41.84375 41.421875 45.53125 
Q 43.3125 49.21875 43.3125 52.78125 
Q 43.3125 58.59375 39.234375 62.25 
Q 35.15625 65.921875 28.609375 65.921875 
Q 23.96875 65.921875 18.8125 64.3125 
Q 13.671875 62.703125 7.8125 59.421875 
L 7.8125 69.390625 
Q 13.765625 71.78125 18.9375 73 
Q 24.125 74.21875 28.421875 74.21875 
Q 39.75 74.21875 46.484375 68.546875 
Q 53.21875 62.890625 53.21875 53.421875 
Q 53.21875 48.921875 51.53125 44.890625 
Q 49.859375 40.875 45.40625 35.40625 
Q 44.1875 33.984375 37.640625 27.21875 
Q 31.109375 20.453125 19.1875 8.296875 
" id="DejaVuSans-32"/>
      </defs>
      <g transform="translate(119.48025 322.182437)scale(0.1 -0.1)">
       <use xlink:href="#DejaVuSans-32"/>
       <use x="63.623047" xlink:href="#DejaVuSans-30"/>
       <use x="127.246094" xlink:href="#DejaVuSans-30"/>
      </g>
     </g>
    </g>
    <g id="xtick_3">
     <g id="line2d_5">
      <path clip-path="url(#pebda4f467a)" d="M 200.448 307.584 
L 200.448 41.472 
" style="fill:none;stroke:#b0b0b0;stroke-linecap:square;stroke-width:0.8;"/>
     </g>
     <g id="line2d_6">
      <g>
       <use style="stroke:#000000;stroke-width:0.8;" x="200.448" xlink:href="#m01b2510065" y="307.584"/>
      </g>
     </g>
     <g id="text_3">
      <!-- 400 -->
      <defs>
       <path d="M 37.796875 64.3125 
L 12.890625 25.390625 
L 37.796875 25.390625 
z
M 35.203125 72.90625 
L 47.609375 72.90625 
L 47.609375 25.390625 
L 58.015625 25.390625 
L 58.015625 17.1875 
L 47.609375 17.1875 
L 47.609375 0 
L 37.796875 0 
L 37.796875 17.1875 
L 4.890625 17.1875 
L 4.890625 26.703125 
z
" id="DejaVuSans-34"/>
      </defs>
      <g transform="translate(190.90425 322.182437)scale(0.1 -0.1)">
       <use xlink:href="#DejaVuSans-34"/>
       <use x="63.623047" xlink:href="#DejaVuSans-30"/>
       <use x="127.246094" xlink:href="#DejaVuSans-30"/>
      </g>
     </g>
    </g>
    <g id="xtick_4">
     <g id="line2d_7">
      <path clip-path="url(#pebda4f467a)" d="M 271.872 307.584 
L 271.872 41.472 
" style="fill:none;stroke:#b0b0b0;stroke-linecap:square;stroke-width:0.8;"/>
     </g>
     <g id="line2d_8">
      <g>
       <use style="stroke:#000000;stroke-width:0.8;" x="271.872" xlink:href="#m01b2510065" y="307.584"/>
      </g>
     </g>
     <g id="text_4">
      <!-- 600 -->
      <defs>
       <path d="M 33.015625 40.375 
Q 26.375 40.375 22.484375 35.828125 
Q 18.609375 31.296875 18.609375 23.390625 
Q 18.609375 15.53125 22.484375 10.953125 
Q 26.375 6.390625 33.015625 6.390625 
Q 39.65625 6.390625 43.53125 10.953125 
Q 47.40625 15.53125 47.40625 23.390625 
Q 47.40625 31.296875 43.53125 35.828125 
Q 39.65625 40.375 33.015625 40.375 
M 52.59375 71.296875 
L 52.59375 62.3125 
Q 48.875 64.0625 45.09375 64.984375 
Q 41.3125 65.921875 37.59375 65.921875 
Q 27.828125 65.921875 22.671875 59.328125 
Q 17.53125 52.734375 16.796875 39.40625 
Q 19.671875 43.65625 24.015625 45.921875 
Q 28.375 48.1875 33.59375 48.1875 
Q 44.578125 48.1875 50.953125 41.515625 
Q 57.328125 34.859375 57.328125 23.390625 
Q 57.328125 12.15625 50.6875 5.359375 
Q 44.046875 -1.421875 33.015625 -1.421875 
Q 20.359375 -1.421875 13.671875 8.265625 
Q 6.984375 17.96875 6.984375 36.375 
Q 6.984375 53.65625 15.1875 63.9375 
Q 23.390625 74.21875 37.203125 74.21875 
Q 40.921875 74.21875 44.703125 73.484375 
Q 48.484375 72.75 52.59375 71.296875 
" id="DejaVuSans-36"/>
      </defs>
      <g transform="translate(262.32825 322.182437)scale(0.1 -0.1)">
       <use xlink:href="#DejaVuSans-36"/>
       <use x="63.623047" xlink:href="#DejaVuSans-30"/>
       <use x="127.246094" xlink:href="#DejaVuSans-30"/>
      </g>
     </g>
    </g>
    <g id="xtick_5">
     <g id="line2d_9">
      <path clip-path="url(#pebda4f467a)" d="M 343.296 307.584 
L 343.296 41.472 
" style="fill:none;stroke:#b0b0b0;stroke-linecap:square;stroke-width:0.8;"/>
     </g>
     <g id="line2d_10">
      <g>
       <use style="stroke:#000000;stroke-width:0.8;" x="343.296" xlink:href="#m01b2510065" y="307.584"/>
      </g>
     </g>
     <g id="text_5">
      <!-- 800 -->
      <defs>
       <path d="M 31.78125 34.625 
Q 24.75 34.625 20.71875 30.859375 
Q 16.703125 27.09375 16.703125 20.515625 
Q 16.703125 13.921875 20.71875 10.15625 
Q 24.75 6.390625 31.78125 6.390625 
Q 38.8125 6.390625 42.859375 10.171875 
Q 46.921875 13.96875 46.921875 20.515625 
Q 46.921875 27.09375 42.890625 30.859375 
Q 38.875 34.625 31.78125 34.625 
M 21.921875 38.8125 
Q 15.578125 40.375 12.03125 44.71875 
Q 8.5 49.078125 8.5 55.328125 
Q 8.5 64.0625 14.71875 69.140625 
Q 20.953125 74.21875 31.78125 74.21875 
Q 42.671875 74.21875 48.875 69.140625 
Q 55.078125 64.0625 55.078125 55.328125 
Q 55.078125 49.078125 51.53125 44.71875 
Q 48 40.375 41.703125 38.8125 
Q 48.828125 37.15625 52.796875 32.3125 
Q 56.78125 27.484375 56.78125 20.515625 
Q 56.78125 9.90625 50.3125 4.234375 
Q 43.84375 -1.421875 31.78125 -1.421875 
Q 19.734375 -1.421875 13.25 4.234375 
Q 6.78125 9.90625 6.78125 20.515625 
Q 6.78125 27.484375 10.78125 32.3125 
Q 14.796875 37.15625 21.921875 38.8125 
M 18.3125 54.390625 
Q 18.3125 48.734375 21.84375 45.5625 
Q 25.390625 42.390625 31.78125 42.390625 
Q 38.140625 42.390625 41.71875 45.5625 
Q 45.3125 48.734375 45.3125 54.390625 
Q 45.3125 60.0625 41.71875 63.234375 
Q 38.140625 66.40625 31.78125 66.40625 
Q 25.390625 66.40625 21.84375 63.234375 
Q 18.3125 60.0625 18.3125 54.390625 
" id="DejaVuSans-38"/>
      </defs>
      <g transform="translate(333.75225 322.182437)scale(0.1 -0.1)">
       <use xlink:href="#DejaVuSans-38"/>
       <use x="63.623047" xlink:href="#DejaVuSans-30"/>
       <use x="127.246094" xlink:href="#DejaVuSans-30"/>
      </g>
     </g>
    </g>
    <g id="xtick_6">
     <g id="line2d_11">
      <path clip-path="url(#pebda4f467a)" d="M 414.72 307.584 
L 414.72 41.472 
" style="fill:none;stroke:#b0b0b0;stroke-linecap:square;stroke-width:0.8;"/>
     </g>
     <g id="line2d_12">
      <g>
       <use style="stroke:#000000;stroke-width:0.8;" x="414.72" xlink:href="#m01b2510065" y="307.584"/>
      </g>
     </g>
     <g id="text_6">
      <!-- 1000 -->
      <defs>
       <path d="M 12.40625 8.296875 
L 28.515625 8.296875 
L 28.515625 63.921875 
L 10.984375 60.40625 
L 10.984375 69.390625 
L 28.421875 72.90625 
L 38.28125 72.90625 
L 38.28125 8.296875 
L 54.390625 8.296875 
L 54.390625 0 
L 12.40625 0 
z
" id="DejaVuSans-31"/>
      </defs>
      <g transform="translate(401.995 322.182437)scale(0.1 -0.1)">
       <use xlink:href="#DejaVuSans-31"/>
       <use x="63.623047" xlink:href="#DejaVuSans-30"/>
       <use x="127.246094" xlink:href="#DejaVuSans-30"/>
       <use x="190.869141" xlink:href="#DejaVuSans-30"/>
      </g>
     </g>
    </g>
    <g id="text_7">
     <!-- Number of clients -->
     <defs>
      <path d="M 9.8125 72.90625 
L 23.09375 72.90625 
L 55.421875 11.921875 
L 55.421875 72.90625 
L 64.984375 72.90625 
L 64.984375 0 
L 51.703125 0 
L 19.390625 60.984375 
L 19.390625 0 
L 9.8125 0 
z
" id="DejaVuSans-4e"/>
      <path d="M 8.5 21.578125 
L 8.5 54.6875 
L 17.484375 54.6875 
L 17.484375 21.921875 
Q 17.484375 14.15625 20.5 10.265625 
Q 23.53125 6.390625 29.59375 6.390625 
Q 36.859375 6.390625 41.078125 11.03125 
Q 45.3125 15.671875 45.3125 23.6875 
L 45.3125 54.6875 
L 54.296875 54.6875 
L 54.296875 0 
L 45.3125 0 
L 45.3125 8.40625 
Q 42.046875 3.421875 37.71875 1 
Q 33.40625 -1.421875 27.6875 -1.421875 
Q 18.265625 -1.421875 13.375 4.4375 
Q 8.5 10.296875 8.5 21.578125 
M 31.109375 56 
z
" id="DejaVuSans-75"/>
      <path d="M 52 44.1875 
Q 55.375 50.25 60.0625 53.125 
Q 64.75 56 71.09375 56 
Q 79.640625 56 84.28125 50.015625 
Q 88.921875 44.046875 88.921875 33.015625 
L 88.921875 0 
L 79.890625 0 
L 79.890625 32.71875 
Q 79.890625 40.578125 77.09375 44.375 
Q 74.3125 48.1875 68.609375 48.1875 
Q 61.625 48.1875 57.5625 43.546875 
Q 53.515625 38.921875 53.515625 30.90625 
L 53.515625 0 
L 44.484375 0 
L 44.484375 32.71875 
Q 44.484375 40.625 41.703125 44.40625 
Q 38.921875 48.1875 33.109375 48.1875 
Q 26.21875 48.1875 22.15625 43.53125 
Q 18.109375 38.875 18.109375 30.90625 
L 18.109375 0 
L 9.078125 0 
L 9.078125 54.6875 
L 18.109375 54.6875 
L 18.109375 46.1875 
Q 21.1875 51.21875 25.484375 53.609375 
Q 29.78125 56 35.6875 56 
Q 41.65625 56 45.828125 52.96875 
Q 50 49.953125 52 44.1875 
" id="DejaVuSans-6d"/>
      <path d="M 48.6875 27.296875 
Q 48.6875 37.203125 44.609375 42.84375 
Q 40.53125 48.484375 33.40625 48.484375 
Q 26.265625 48.484375 22.1875 42.84375 
Q 18.109375 37.203125 18.109375 27.296875 
Q 18.109375 17.390625 22.1875 11.75 
Q 26.265625 6.109375 33.40625 6.109375 
Q 40.53125 6.109375 44.609375 11.75 
Q 48.6875 17.390625 48.6875 27.296875 
M 18.109375 46.390625 
Q 20.953125 51.265625 25.265625 53.625 
Q 29.59375 56 35.59375 56 
Q 45.5625 56 51.78125 48.09375 
Q 58.015625 40.1875 58.015625 27.296875 
Q 58.015625 14.40625 51.78125 6.484375 
Q 45.5625 -1.421875 35.59375 -1.421875 
Q 29.59375 -1.421875 25.265625 0.953125 
Q 20.953125 3.328125 18.109375 8.203125 
L 18.109375 0 
L 9.078125 0 
L 9.078125 75.984375 
L 18.109375 75.984375 
z
" id="DejaVuSans-62"/>
      <path d="M 56.203125 29.59375 
L 56.203125 25.203125 
L 14.890625 25.203125 
Q 15.484375 15.921875 20.484375 11.0625 
Q 25.484375 6.203125 34.421875 6.203125 
Q 39.59375 6.203125 44.453125 7.46875 
Q 49.3125 8.734375 54.109375 11.28125 
L 54.109375 2.78125 
Q 49.265625 0.734375 44.1875 -0.34375 
Q 39.109375 -1.421875 33.890625 -1.421875 
Q 20.796875 -1.421875 13.15625 6.1875 
Q 5.515625 13.8125 5.515625 26.8125 
Q 5.515625 40.234375 12.765625 48.109375 
Q 20.015625 56 32.328125 56 
Q 43.359375 56 49.78125 48.890625 
Q 56.203125 41.796875 56.203125 29.59375 
M 47.21875 32.234375 
Q 47.125 39.59375 43.09375 43.984375 
Q 39.0625 48.390625 32.421875 48.390625 
Q 24.90625 48.390625 20.390625 44.140625 
Q 15.875 39.890625 15.1875 32.171875 
z
" id="DejaVuSans-65"/>
      <path d="M 41.109375 46.296875 
Q 39.59375 47.171875 37.8125 47.578125 
Q 36.03125 48 33.890625 48 
Q 26.265625 48 22.1875 43.046875 
Q 18.109375 38.09375 18.109375 28.8125 
L 18.109375 0 
L 9.078125 0 
L 9.078125 54.6875 
L 18.109375 54.6875 
L 18.109375 46.1875 
Q 20.953125 51.171875 25.484375 53.578125 
Q 30.03125 56 36.53125 56 
Q 37.453125 56 38.578125 55.875 
Q 39.703125 55.765625 41.0625 55.515625 
z
" id="DejaVuSans-72"/>
      <path id="DejaVuSans-20"/>
      <path d="M 30.609375 48.390625 
Q 23.390625 48.390625 19.1875 42.75 
Q 14.984375 37.109375 14.984375 27.296875 
Q 14.984375 17.484375 19.15625 11.84375 
Q 23.34375 6.203125 30.609375 6.203125 
Q 37.796875 6.203125 41.984375 11.859375 
Q 46.1875 17.53125 46.1875 27.296875 
Q 46.1875 37.015625 41.984375 42.703125 
Q 37.796875 48.390625 30.609375 48.390625 
M 30.609375 56 
Q 42.328125 56 49.015625 48.375 
Q 55.71875 40.765625 55.71875 27.296875 
Q 55.71875 13.875 49.015625 6.21875 
Q 42.328125 -1.421875 30.609375 -1.421875 
Q 18.84375 -1.421875 12.171875 6.21875 
Q 5.515625 13.875 5.515625 27.296875 
Q 5.515625 40.765625 12.171875 48.375 
Q 18.84375 56 30.609375 56 
" id="DejaVuSans-6f"/>
      <path d="M 37.109375 75.984375 
L 37.109375 68.5 
L 28.515625 68.5 
Q 23.6875 68.5 21.796875 66.546875 
Q 19.921875 64.59375 19.921875 59.515625 
L 19.921875 54.6875 
L 34.71875 54.6875 
L 34.71875 47.703125 
L 19.921875 47.703125 
L 19.921875 0 
L 10.890625 0 
L 10.890625 47.703125 
L 2.296875 47.703125 
L 2.296875 54.6875 
L 10.890625 54.6875 
L 10.890625 58.5 
Q 10.890625 67.625 15.140625 71.796875 
Q 19.390625 75.984375 28.609375 75.984375 
z
" id="DejaVuSans-66"/>
      <path d="M 48.78125 52.59375 
L 48.78125 44.1875 
Q 44.96875 46.296875 41.140625 47.34375 
Q 37.3125 48.390625 33.40625 48.390625 
Q 24.65625 48.390625 19.8125 42.84375 
Q 14.984375 37.3125 14.984375 27.296875 
Q 14.984375 17.28125 19.8125 11.734375 
Q 24.65625 6.203125 33.40625 6.203125 
Q 37.3125 6.203125 41.140625 7.25 
Q 44.96875 8.296875 48.78125 10.40625 
L 48.78125 2.09375 
Q 45.015625 0.34375 40.984375 -0.53125 
Q 36.96875 -1.421875 32.421875 -1.421875 
Q 20.0625 -1.421875 12.78125 6.34375 
Q 5.515625 14.109375 5.515625 27.296875 
Q 5.515625 40.671875 12.859375 48.328125 
Q 20.21875 56 33.015625 56 
Q 37.15625 56 41.109375 55.140625 
Q 45.0625 54.296875 48.78125 52.59375 
" id="DejaVuSans-63"/>
      <path d="M 9.421875 75.984375 
L 18.40625 75.984375 
L 18.40625 0 
L 9.421875 0 
z
" id="DejaVuSans-6c"/>
      <path d="M 9.421875 54.6875 
L 18.40625 54.6875 
L 18.40625 0 
L 9.421875 0 
z
M 9.421875 75.984375 
L 18.40625 75.984375 
L 18.40625 64.59375 
L 9.421875 64.59375 
z
" id="DejaVuSans-69"/>
      <path d="M 54.890625 33.015625 
L 54.890625 0 
L 45.90625 0 
L 45.90625 32.71875 
Q 45.90625 40.484375 42.875 44.328125 
Q 39.84375 48.1875 33.796875 48.1875 
Q 26.515625 48.1875 22.3125 43.546875 
Q 18.109375 38.921875 18.109375 30.90625 
L 18.109375 0 
L 9.078125 0 
L 9.078125 54.6875 
L 18.109375 54.6875 
L 18.109375 46.1875 
Q 21.34375 51.125 25.703125 53.5625 
Q 30.078125 56 35.796875 56 
Q 45.21875 56 50.046875 50.171875 
Q 54.890625 44.34375 54.890625 33.015625 
" id="DejaVuSans-6e"/>
      <path d="M 18.3125 70.21875 
L 18.3125 54.6875 
L 36.8125 54.6875 
L 36.8125 47.703125 
L 18.3125 47.703125 
L 18.3125 18.015625 
Q 18.3125 11.328125 20.140625 9.421875 
Q 21.96875 7.515625 27.59375 7.515625 
L 36.8125 7.515625 
L 36.8125 0 
L 27.59375 0 
Q 17.1875 0 13.234375 3.875 
Q 9.28125 7.765625 9.28125 18.015625 
L 9.28125 47.703125 
L 2.6875 47.703125 
L 2.6875 54.6875 
L 9.28125 54.6875 
L 9.28125 70.21875 
z
" id="DejaVuSans-74"/>
      <path d="M 44.28125 53.078125 
L 44.28125 44.578125 
Q 40.484375 46.53125 36.375 47.5 
Q 32.28125 48.484375 27.875 48.484375 
Q 21.1875 48.484375 17.84375 46.4375 
Q 14.5 44.390625 14.5 40.28125 
Q 14.5 37.15625 16.890625 35.375 
Q 19.28125 33.59375 26.515625 31.984375 
L 29.59375 31.296875 
Q 39.15625 29.25 43.1875 25.515625 
Q 47.21875 21.78125 47.21875 15.09375 
Q 47.21875 7.46875 41.1875 3.015625 
Q 35.15625 -1.421875 24.609375 -1.421875 
Q 20.21875 -1.421875 15.453125 -0.5625 
Q 10.6875 0.296875 5.421875 2 
L 5.421875 11.28125 
Q 10.40625 8.6875 15.234375 7.390625 
Q 20.0625 6.109375 24.8125 6.109375 
Q 31.15625 6.109375 34.5625 8.28125 
Q 37.984375 10.453125 37.984375 14.40625 
Q 37.984375 18.0625 35.515625 20.015625 
Q 33.0625 21.96875 24.703125 23.78125 
L 21.578125 24.515625 
Q 13.234375 26.265625 9.515625 29.90625 
Q 5.8125 33.546875 5.8125 39.890625 
Q 5.8125 47.609375 11.28125 51.796875 
Q 16.75 56 26.8125 56 
Q 31.78125 56 36.171875 55.265625 
Q 40.578125 54.546875 44.28125 53.078125 
" id="DejaVuSans-73"/>
     </defs>
     <g transform="translate(191.738906 335.860562)scale(0.1 -0.1)">
      <use xlink:href="#DejaVuSans-4e"/>
      <use x="74.804688" xlink:href="#DejaVuSans-75"/>
      <use x="138.183594" xlink:href="#DejaVuSans-6d"/>
      <use x="235.595703" xlink:href="#DejaVuSans-62"/>
      <use x="299.072266" xlink:href="#DejaVuSans-65"/>
      <use x="360.595703" xlink:href="#DejaVuSans-72"/>
      <use x="401.708984" xlink:href="#DejaVuSans-20"/>
      <use x="433.496094" xlink:href="#DejaVuSans-6f"/>
      <use x="494.677734" xlink:href="#DejaVuSans-66"/>
      <use x="529.882812" xlink:href="#DejaVuSans-20"/>
      <use x="561.669922" xlink:href="#DejaVuSans-63"/>
      <use x="616.650391" xlink:href="#DejaVuSans-6c"/>
      <use x="644.433594" xlink:href="#DejaVuSans-69"/>
      <use x="672.216797" xlink:href="#DejaVuSans-65"/>
      <use x="733.740234" xlink:href="#DejaVuSans-6e"/>
      <use x="797.119141" xlink:href="#DejaVuSans-74"/>
      <use x="836.328125" xlink:href="#DejaVuSans-73"/>
     </g>
    </g>
   </g>
   <g id="matplotlib.axis_2">
    <g id="ytick_1">
     <g id="line2d_13">
      <path clip-path="url(#pebda4f467a)" d="M 57.6 296.29684 
L 414.72 296.29684 
" style="fill:none;stroke:#b0b0b0;stroke-linecap:square;stroke-width:0.8;"/>
     </g>
     <g id="line2d_14">
      <defs>
       <path d="M 0 0 
L -3.5 0 
" id="m3d021db6ee" style="stroke:#000000;stroke-width:0.8;"/>
      </defs>
      <g>
       <use style="stroke:#000000;stroke-width:0.8;" x="57.6" xlink:href="#m3d021db6ee" y="296.29684"/>
      </g>
     </g>
     <g id="text_8">
      <!-- 0 -->
      <g transform="translate(44.2375 300.096059)scale(0.1 -0.1)">
       <use xlink:href="#DejaVuSans-30"/>
      </g>
     </g>
    </g>
    <g id="ytick_2">
     <g id="line2d_15">
      <path clip-path="url(#pebda4f467a)" d="M 57.6 253.089587 
L 414.72 253.089587 
" style="fill:none;stroke:#b0b0b0;stroke-linecap:square;stroke-width:0.8;"/>
     </g>
     <g id="line2d_16">
      <g>
       <use style="stroke:#000000;stroke-width:0.8;" x="57.6" xlink:href="#m3d021db6ee" y="253.089587"/>
      </g>
     </g>
     <g id="text_9">
      <!-- 50 -->
      <defs>
       <path d="M 10.796875 72.90625 
L 49.515625 72.90625 
L 49.515625 64.59375 
L 19.828125 64.59375 
L 19.828125 46.734375 
Q 21.96875 47.46875 24.109375 47.828125 
Q 26.265625 48.1875 28.421875 48.1875 
Q 40.625 48.1875 47.75 41.5 
Q 54.890625 34.8125 54.890625 23.390625 
Q 54.890625 11.625 47.5625 5.09375 
Q 40.234375 -1.421875 26.90625 -1.421875 
Q 22.3125 -1.421875 17.546875 -0.640625 
Q 12.796875 0.140625 7.71875 1.703125 
L 7.71875 11.625 
Q 12.109375 9.234375 16.796875 8.0625 
Q 21.484375 6.890625 26.703125 6.890625 
Q 35.15625 6.890625 40.078125 11.328125 
Q 45.015625 15.765625 45.015625 23.390625 
Q 45.015625 31 40.078125 35.4375 
Q 35.15625 39.890625 26.703125 39.890625 
Q 22.75 39.890625 18.8125 39.015625 
Q 14.890625 38.140625 10.796875 36.28125 
z
" id="DejaVuSans-35"/>
      </defs>
      <g transform="translate(37.875 256.888806)scale(0.1 -0.1)">
       <use xlink:href="#DejaVuSans-35"/>
       <use x="63.623047" xlink:href="#DejaVuSans-30"/>
      </g>
     </g>
    </g>
    <g id="ytick_3">
     <g id="line2d_17">
      <path clip-path="url(#pebda4f467a)" d="M 57.6 209.882334 
L 414.72 209.882334 
" style="fill:none;stroke:#b0b0b0;stroke-linecap:square;stroke-width:0.8;"/>
     </g>
     <g id="line2d_18">
      <g>
       <use style="stroke:#000000;stroke-width:0.8;" x="57.6" xlink:href="#m3d021db6ee" y="209.882334"/>
      </g>
     </g>
     <g id="text_10">
      <!-- 100 -->
      <g transform="translate(31.5125 213.681553)scale(0.1 -0.1)">
       <use xlink:href="#DejaVuSans-31"/>
       <use x="63.623047" xlink:href="#DejaVuSans-30"/>
       <use x="127.246094" xlink:href="#DejaVuSans-30"/>
      </g>
     </g>
    </g>
    <g id="ytick_4">
     <g id="line2d_19">
      <path clip-path="url(#pebda4f467a)" d="M 57.6 166.675082 
L 414.72 166.675082 
" style="fill:none;stroke:#b0b0b0;stroke-linecap:square;stroke-width:0.8;"/>
     </g>
     <g id="line2d_20">
      <g>
       <use style="stroke:#000000;stroke-width:0.8;" x="57.6" xlink:href="#m3d021db6ee" y="166.675082"/>
      </g>
     </g>
     <g id="text_11">
      <!-- 150 -->
      <g transform="translate(31.5125 170.474301)scale(0.1 -0.1)">
       <use xlink:href="#DejaVuSans-31"/>
       <use x="63.623047" xlink:href="#DejaVuSans-35"/>
       <use x="127.246094" xlink:href="#DejaVuSans-30"/>
      </g>
     </g>
    </g>
    <g id="ytick_5">
     <g id="line2d_21">
      <path clip-path="url(#pebda4f467a)" d="M 57.6 123.467829 
L 414.72 123.467829 
" style="fill:none;stroke:#b0b0b0;stroke-linecap:square;stroke-width:0.8;"/>
     </g>
     <g id="line2d_22">
      <g>
       <use style="stroke:#000000;stroke-width:0.8;" x="57.6" xlink:href="#m3d021db6ee" y="123.467829"/>
      </g>
     </g>
     <g id="text_12">
      <!-- 200 -->
      <g transform="translate(31.5125 127.267048)scale(0.1 -0.1)">
       <use xlink:href="#DejaVuSans-32"/>
       <use x="63.623047" xlink:href="#DejaVuSans-30"/>
       <use x="127.246094" xlink:href="#DejaVuSans-30"/>
      </g>
     </g>
    </g>
    <g id="ytick_6">
     <g id="line2d_23">
      <path clip-path="url(#pebda4f467a)" d="M 57.6 80.260577 
L 414.72 80.260577 
" style="fill:none;stroke:#b0b0b0;stroke-linecap:square;stroke-width:0.8;"/>
     </g>
     <g id="line2d_24">
      <g>
       <use style="stroke:#000000;stroke-width:0.8;" x="57.6" xlink:href="#m3d021db6ee" y="80.260577"/>
      </g>
     </g>
     <g id="text_13">
      <!-- 250 -->
      <g transform="translate(31.5125 84.059795)scale(0.1 -0.1)">
       <use xlink:href="#DejaVuSans-32"/>
       <use x="63.623047" xlink:href="#DejaVuSans-35"/>
       <use x="127.246094" xlink:href="#DejaVuSans-30"/>
      </g>
     </g>
    </g>
    <g id="text_14">
     <!-- Successful download requests per second -->
     <defs>
      <path d="M 53.515625 70.515625 
L 53.515625 60.890625 
Q 47.90625 63.578125 42.921875 64.890625 
Q 37.9375 66.21875 33.296875 66.21875 
Q 25.25 66.21875 20.875 63.09375 
Q 16.5 59.96875 16.5 54.203125 
Q 16.5 49.359375 19.40625 46.890625 
Q 22.3125 44.4375 30.421875 42.921875 
L 36.375 41.703125 
Q 47.40625 39.59375 52.65625 34.296875 
Q 57.90625 29 57.90625 20.125 
Q 57.90625 9.515625 50.796875 4.046875 
Q 43.703125 -1.421875 29.984375 -1.421875 
Q 24.8125 -1.421875 18.96875 -0.25 
Q 13.140625 0.921875 6.890625 3.21875 
L 6.890625 13.375 
Q 12.890625 10.015625 18.65625 8.296875 
Q 24.421875 6.59375 29.984375 6.59375 
Q 38.421875 6.59375 43.015625 9.90625 
Q 47.609375 13.234375 47.609375 19.390625 
Q 47.609375 24.75 44.3125 27.78125 
Q 41.015625 30.8125 33.5 32.328125 
L 27.484375 33.5 
Q 16.453125 35.6875 11.515625 40.375 
Q 6.59375 45.0625 6.59375 53.421875 
Q 6.59375 63.09375 13.40625 68.65625 
Q 20.21875 74.21875 32.171875 74.21875 
Q 37.3125 74.21875 42.625 73.28125 
Q 47.953125 72.359375 53.515625 70.515625 
" id="DejaVuSans-53"/>
      <path d="M 45.40625 46.390625 
L 45.40625 75.984375 
L 54.390625 75.984375 
L 54.390625 0 
L 45.40625 0 
L 45.40625 8.203125 
Q 42.578125 3.328125 38.25 0.953125 
Q 33.9375 -1.421875 27.875 -1.421875 
Q 17.96875 -1.421875 11.734375 6.484375 
Q 5.515625 14.40625 5.515625 27.296875 
Q 5.515625 40.1875 11.734375 48.09375 
Q 17.96875 56 27.875 56 
Q 33.9375 56 38.25 53.625 
Q 42.578125 51.265625 45.40625 46.390625 
M 14.796875 27.296875 
Q 14.796875 17.390625 18.875 11.75 
Q 22.953125 6.109375 30.078125 6.109375 
Q 37.203125 6.109375 41.296875 11.75 
Q 45.40625 17.390625 45.40625 27.296875 
Q 45.40625 37.203125 41.296875 42.84375 
Q 37.203125 48.484375 30.078125 48.484375 
Q 22.953125 48.484375 18.875 42.84375 
Q 14.796875 37.203125 14.796875 27.296875 
" id="DejaVuSans-64"/>
      <path d="M 4.203125 54.6875 
L 13.1875 54.6875 
L 24.421875 12.015625 
L 35.59375 54.6875 
L 46.1875 54.6875 
L 57.421875 12.015625 
L 68.609375 54.6875 
L 77.59375 54.6875 
L 63.28125 0 
L 52.6875 0 
L 40.921875 44.828125 
L 29.109375 0 
L 18.5 0 
z
" id="DejaVuSans-77"/>
      <path d="M 34.28125 27.484375 
Q 23.390625 27.484375 19.1875 25 
Q 14.984375 22.515625 14.984375 16.5 
Q 14.984375 11.71875 18.140625 8.90625 
Q 21.296875 6.109375 26.703125 6.109375 
Q 34.1875 6.109375 38.703125 11.40625 
Q 43.21875 16.703125 43.21875 25.484375 
L 43.21875 27.484375 
z
M 52.203125 31.203125 
L 52.203125 0 
L 43.21875 0 
L 43.21875 8.296875 
Q 40.140625 3.328125 35.546875 0.953125 
Q 30.953125 -1.421875 24.3125 -1.421875 
Q 15.921875 -1.421875 10.953125 3.296875 
Q 6 8.015625 6 15.921875 
Q 6 25.140625 12.171875 29.828125 
Q 18.359375 34.515625 30.609375 34.515625 
L 43.21875 34.515625 
L 43.21875 35.40625 
Q 43.21875 41.609375 39.140625 45 
Q 35.0625 48.390625 27.6875 48.390625 
Q 23 48.390625 18.546875 47.265625 
Q 14.109375 46.140625 10.015625 43.890625 
L 10.015625 52.203125 
Q 14.9375 54.109375 19.578125 55.046875 
Q 24.21875 56 28.609375 56 
Q 40.484375 56 46.34375 49.84375 
Q 52.203125 43.703125 52.203125 31.203125 
" id="DejaVuSans-61"/>
      <path d="M 14.796875 27.296875 
Q 14.796875 17.390625 18.875 11.75 
Q 22.953125 6.109375 30.078125 6.109375 
Q 37.203125 6.109375 41.296875 11.75 
Q 45.40625 17.390625 45.40625 27.296875 
Q 45.40625 37.203125 41.296875 42.84375 
Q 37.203125 48.484375 30.078125 48.484375 
Q 22.953125 48.484375 18.875 42.84375 
Q 14.796875 37.203125 14.796875 27.296875 
M 45.40625 8.203125 
Q 42.578125 3.328125 38.25 0.953125 
Q 33.9375 -1.421875 27.875 -1.421875 
Q 17.96875 -1.421875 11.734375 6.484375 
Q 5.515625 14.40625 5.515625 27.296875 
Q 5.515625 40.1875 11.734375 48.09375 
Q 17.96875 56 27.875 56 
Q 33.9375 56 38.25 53.625 
Q 42.578125 51.265625 45.40625 46.390625 
L 45.40625 54.6875 
L 54.390625 54.6875 
L 54.390625 -20.796875 
L 45.40625 -20.796875 
z
" id="DejaVuSans-71"/>
      <path d="M 18.109375 8.203125 
L 18.109375 -20.796875 
L 9.078125 -20.796875 
L 9.078125 54.6875 
L 18.109375 54.6875 
L 18.109375 46.390625 
Q 20.953125 51.265625 25.265625 53.625 
Q 29.59375 56 35.59375 56 
Q 45.5625 56 51.78125 48.09375 
Q 58.015625 40.1875 58.015625 27.296875 
Q 58.015625 14.40625 51.78125 6.484375 
Q 45.5625 -1.421875 35.59375 -1.421875 
Q 29.59375 -1.421875 25.265625 0.953125 
Q 20.953125 3.328125 18.109375 8.203125 
M 48.6875 27.296875 
Q 48.6875 37.203125 44.609375 42.84375 
Q 40.53125 48.484375 33.40625 48.484375 
Q 26.265625 48.484375 22.1875 42.84375 
Q 18.109375 37.203125 18.109375 27.296875 
Q 18.109375 17.390625 22.1875 11.75 
Q 26.265625 6.109375 33.40625 6.109375 
Q 40.53125 6.109375 44.609375 11.75 
Q 48.6875 17.390625 48.6875 27.296875 
" id="DejaVuSans-70"/>
     </defs>
     <g transform="translate(25.432812 279.366281)rotate(-90)scale(0.1 -0.1)">
      <use xlink:href="#DejaVuSans-53"/>
      <use x="63.476562" xlink:href="#DejaVuSans-75"/>
      <use x="126.855469" xlink:href="#DejaVuSans-63"/>
      <use x="181.835938" xlink:href="#DejaVuSans-63"/>
      <use x="236.816406" xlink:href="#DejaVuSans-65"/>
      <use x="298.339844" xlink:href="#DejaVuSans-73"/>
      <use x="350.439453" xlink:href="#DejaVuSans-73"/>
      <use x="402.539062" xlink:href="#DejaVuSans-66"/>
      <use x="437.744141" xlink:href="#DejaVuSans-75"/>
      <use x="501.123047" xlink:href="#DejaVuSans-6c"/>
      <use x="528.90625" xlink:href="#DejaVuSans-20"/>
      <use x="560.693359" xlink:href="#DejaVuSans-64"/>
      <use x="624.169922" xlink:href="#DejaVuSans-6f"/>
      <use x="685.351562" xlink:href="#DejaVuSans-77"/>
      <use x="767.138672" xlink:href="#DejaVuSans-6e"/>
      <use x="830.517578" xlink:href="#DejaVuSans-6c"/>
      <use x="858.300781" xlink:href="#DejaVuSans-6f"/>
      <use x="919.482422" xlink:href="#DejaVuSans-61"/>
      <use x="980.761719" xlink:href="#DejaVuSans-64"/>
      <use x="1044.238281" xlink:href="#DejaVuSans-20"/>
      <use x="1076.025391" xlink:href="#DejaVuSans-72"/>
      <use x="1117.107422" xlink:href="#DejaVuSans-65"/>
      <use x="1178.630859" xlink:href="#DejaVuSans-71"/>
      <use x="1242.107422" xlink:href="#DejaVuSans-75"/>
      <use x="1305.486328" xlink:href="#DejaVuSans-65"/>
      <use x="1367.009766" xlink:href="#DejaVuSans-73"/>
      <use x="1419.109375" xlink:href="#DejaVuSans-74"/>
      <use x="1458.318359" xlink:href="#DejaVuSans-73"/>
      <use x="1510.417969" xlink:href="#DejaVuSans-20"/>
      <use x="1542.205078" xlink:href="#DejaVuSans-70"/>
      <use x="1605.681641" xlink:href="#DejaVuSans-65"/>
      <use x="1667.205078" xlink:href="#DejaVuSans-72"/>
      <use x="1708.318359" xlink:href="#DejaVuSans-20"/>
      <use x="1740.105469" xlink:href="#DejaVuSans-73"/>
      <use x="1792.205078" xlink:href="#DejaVuSans-65"/>
      <use x="1853.728516" xlink:href="#DejaVuSans-63"/>
      <use x="1908.708984" xlink:href="#DejaVuSans-6f"/>
      <use x="1969.890625" xlink:href="#DejaVuSans-6e"/>
      <use x="2033.269531" xlink:href="#DejaVuSans-64"/>
     </g>
    </g>
   </g>
   <g id="line2d_25">
    <path clip-path="url(#pebda4f467a)" d="M 57.6 295.488 
L 57.95712 295.47763 
L 59.3856 292.053023 
L 61.1712 287.787603 
L 61.52832 287.427255 
L 61.88544 286.0524 
L 62.59968 284.795933 
L 62.9568 284.15733 
L 63.31392 283.229238 
L 63.67104 281.720441 
L 64.02816 281.693653 
L 64.38528 280.685195 
L 64.7424 279.158251 
L 65.09952 278.881725 
L 65.81376 277.023813 
L 66.17088 276.71272 
L 66.528 274.743334 
L 66.88512 274.785677 
L 67.24224 273.78154 
L 67.59936 273.775491 
L 67.95648 272.631363 
L 68.3136 271.933134 
L 68.67072 269.658704 
L 69.02784 269.141946 
L 69.38496 269.079727 
L 69.74208 268.549142 
L 70.0992 266.159781 
L 70.45632 265.566113 
L 70.81344 266.160645 
L 71.17056 263.686598 
L 71.52768 263.786839 
L 71.8848 261.934112 
L 72.24192 261.24366 
L 72.59904 261.216871 
L 72.95616 261.685238 
L 73.31328 259.964725 
L 73.6704 257.562402 
L 74.02752 256.665419 
L 74.38464 257.302294 
L 74.74176 254.939722 
L 75.81312 255.039098 
L 76.52736 252.167544 
L 76.88448 252.55641 
L 77.59872 248.734296 
L 77.95584 249.578566 
L 78.31296 249.361665 
L 78.67008 245.333885 
L 79.0272 245.663989 
L 79.38432 246.23346 
L 79.74144 244.328885 
L 80.09856 244.793795 
L 80.45568 241.881626 
L 80.8128 240.225924 
L 81.16992 241.934339 
L 81.52704 238.909831 
L 81.88416 238.094078 
L 82.24128 237.776937 
L 82.5984 238.110497 
L 82.95552 237.261906 
L 83.31264 234.492321 
L 83.66976 233.788043 
L 84.02688 236.557628 
L 84.384 233.109689 
L 84.74112 232.6033 
L 85.09824 230.167275 
L 85.45536 231.73397 
L 85.81248 229.549412 
L 86.1696 228.399235 
L 86.52672 228.604037 
L 86.88384 230.208754 
L 87.24096 225.571752 
L 88.31232 222.812537 
L 88.66944 226.247513 
L 89.02656 224.94179 
L 89.38368 220.846607 
L 89.7408 222.002833 
L 90.09792 217.929253 
L 90.45504 221.130911 
L 91.16928 215.686797 
L 91.5264 216.915611 
L 91.88352 214.442428 
L 92.24064 213.331137 
L 92.59776 215.582235 
L 92.95488 216.537116 
L 93.312 212.435019 
L 93.66912 210.227992 
L 94.02624 212.096274 
L 94.38336 209.906531 
L 94.74048 211.099915 
L 95.0976 206.640926 
L 95.45472 205.973806 
L 95.81184 208.396005 
L 96.16896 209.397549 
L 96.52608 206.015285 
L 96.8832 204.747585 
L 97.24032 201.142371 
L 97.59744 204.011333 
L 97.95456 203.071143 
L 98.31168 203.307919 
L 98.6688 199.486669 
L 99.02592 199.395934 
L 99.38304 200.103669 
L 99.74016 194.791769 
L 100.09728 198.193044 
L 100.4544 196.032682 
L 100.81152 192.238221 
L 101.16864 195.674062 
L 101.52576 195.572957 
L 101.88288 195.637767 
L 102.24 197.525924 
L 102.59712 195.929848 
L 102.95424 190.732016 
L 103.31136 195.89269 
L 103.66848 190.959286 
L 104.0256 192.779176 
L 104.38272 193.52234 
L 104.73984 188.300312 
L 105.09696 189.580975 
L 105.45408 193.282108 
L 106.16832 187.367035 
L 106.52544 193.326179 
L 106.88256 186.995453 
L 107.23968 190.830528 
L 107.5968 186.138221 
L 107.95392 190.102918 
L 108.31104 185.917864 
L 108.66816 191.121745 
L 109.02528 191.500241 
L 109.3824 184.543873 
L 109.73952 190.990395 
L 110.09664 187.204576 
L 110.45376 187.365307 
L 110.81088 186.228956 
L 111.168 187.539864 
L 111.52512 185.198895 
L 111.88224 187.946876 
L 112.23936 184.225868 
L 112.59648 188.225131 
L 112.9536 180.248208 
L 113.31072 187.125075 
L 114.02496 183.714294 
L 114.38208 179.130869 
L 114.7392 185.269755 
L 115.09632 179.870577 
L 115.45344 180.483256 
L 115.81056 183.752316 
L 116.16768 179.863664 
L 116.5248 178.678057 
L 116.88192 181.198768 
L 117.23904 177.875266 
L 117.59616 178.780026 
L 117.95328 180.476342 
L 118.66752 176.01649 
L 119.02464 181.790707 
L 119.38176 178.203641 
L 119.73888 176.669784 
L 120.096 178.838788 
L 120.45312 177.097535 
L 120.81024 181.006063 
L 121.16736 175.210243 
L 121.52448 177.788851 
L 121.8816 173.176045 
L 122.23872 175.792676 
L 122.59584 171.828843 
L 122.95296 175.184318 
L 123.31008 176.886684 
L 123.6672 172.825202 
L 124.02432 174.49041 
L 124.38144 170.727058 
L 124.73856 171.091727 
L 125.09568 177.881315 
L 125.4528 176.954951 
L 125.80992 169.702182 
L 126.16704 174.499051 
L 126.52416 175.861808 
L 126.88128 169.137031 
L 127.2384 174.116235 
L 127.59552 173.621944 
L 127.95264 168.017099 
L 128.30976 171.686259 
L 128.66688 168.953832 
L 129.024 174.524111 
L 129.38112 173.663423 
L 129.73824 167.205667 
L 130.09536 174.466214 
L 130.45248 166.605086 
L 130.8096 169.111971 
L 131.16672 170.041791 
L 131.52384 169.338377 
L 131.88096 167.711192 
L 132.23808 164.432625 
L 132.5952 171.724281 
L 132.95232 167.943647 
L 133.30944 172.010313 
L 133.66656 168.134623 
L 134.02368 168.130302 
L 134.3808 171.095184 
L 134.73792 163.139864 
L 135.09504 171.370846 
L 135.45216 167.304179 
L 135.80928 170.768537 
L 136.52352 167.044936 
L 136.88064 161.58786 
L 137.23776 166.102154 
L 137.59488 166.835813 
L 137.952 162.916915 
L 138.30912 165.524041 
L 138.66624 166.77273 
L 139.02336 162.799391 
L 139.38048 161.262941 
L 139.7376 158.923701 
L 140.09472 166.09092 
L 140.45184 161.841054 
L 140.80896 163.426761 
L 141.16608 165.562063 
L 141.5232 166.376088 
L 141.88032 163.562431 
L 142.23744 157.697479 
L 142.59456 160.098938 
L 142.95168 157.537612 
L 143.3088 157.420952 
L 143.66592 157.609336 
L 144.02304 164.401516 
L 144.73728 155.343548 
L 145.0944 160.144738 
L 145.45152 160.118813 
L 146.16576 163.650574 
L 146.52288 163.565888 
L 146.88 157.406262 
L 147.23712 161.959442 
L 147.59424 155.719451 
L 147.95136 155.936351 
L 148.30848 156.99925 
L 148.6656 162.171158 
L 149.02272 159.864755 
L 149.37984 155.706489 
L 149.73696 153.364656 
L 150.09408 158.792351 
L 150.4512 154.828517 
L 151.16544 160.477434 
L 151.52256 154.686798 
L 151.87968 155.043689 
L 152.2368 159.175167 
L 152.59392 155.774756 
L 152.95104 156.036592 
L 153.30816 159.26763 
L 153.66528 151.381443 
L 154.0224 155.267503 
L 154.37952 157.174671 
L 154.73664 157.271455 
L 155.09376 155.360831 
L 155.45088 157.125415 
L 155.808 156.592237 
L 156.16512 152.534212 
L 156.52224 157.346636 
L 156.87936 154.656552 
L 157.23648 148.711234 
L 157.5936 148.99381 
L 158.30784 154.431875 
L 158.66496 149.431931 
L 159.02208 156.339907 
L 159.3792 146.009917 
L 159.73632 153.356878 
L 160.09344 149.693767 
L 160.45056 154.202012 
L 160.80768 150.92431 
L 161.1648 149.145899 
L 161.52192 152.30435 
L 161.87904 145.692776 
L 162.23616 150.616674 
L 162.59328 145.288356 
L 162.9504 150.665931 
L 163.30752 145.099108 
L 163.66464 145.713515 
L 164.02176 149.603896 
L 164.37888 150.809379 
L 164.736 143.881528 
L 165.09312 142.475564 
L 165.45024 145.416249 
L 166.16448 147.569699 
L 166.5216 150.64087 
L 166.87872 144.649753 
L 167.23584 141.381556 
L 167.59296 151.596615 
L 167.95008 145.738575 
L 168.3072 146.061766 
L 168.66432 145.338476 
L 169.02144 149.525259 
L 169.37856 149.430203 
L 169.73568 149.478595 
L 170.0928 147.50748 
L 170.44992 140.046452 
L 170.80704 150.027327 
L 171.16416 149.826846 
L 171.52128 149.251325 
L 171.8784 149.074175 
L 172.23552 140.640984 
L 172.59264 149.040474 
L 172.94976 148.021647 
L 173.30688 145.500936 
L 174.02112 137.647585 
L 174.37824 146.770365 
L 174.73536 144.171881 
L 175.09248 138.437414 
L 175.4496 141.095524 
L 175.80672 146.035841 
L 176.16384 142.451368 
L 176.52096 140.273722 
L 176.87808 143.478836 
L 177.2352 138.157431 
L 177.59232 144.109662 
L 177.94944 138.946395 
L 178.30656 139.988554 
L 178.66368 139.811405 
L 179.0208 144.948747 
L 179.37792 140.138916 
L 179.73504 139.861525 
L 180.09216 143.57562 
L 180.44928 142.472971 
L 180.8064 139.099349 
L 181.16352 140.192493 
L 181.52064 140.865662 
L 181.87776 141.781655 
L 182.23488 138.727767 
L 182.592 141.387605 
L 182.94912 134.241126 
L 183.30624 135.432782 
L 183.66336 135.603882 
L 184.02048 136.168169 
L 184.3776 134.427781 
L 184.73472 136.274459 
L 185.09184 142.00979 
L 185.44896 132.474813 
L 185.80608 137.733136 
L 186.1632 135.850164 
L 186.52032 131.304761 
L 186.87744 133.014904 
L 187.23456 140.185579 
L 187.59168 131.019593 
L 187.9488 139.978185 
L 188.30592 139.291189 
L 188.66304 133.06416 
L 189.02016 130.287662 
L 189.37728 137.64845 
L 189.7344 134.672334 
L 190.09152 139.050957 
L 190.80576 128.569742 
L 191.16288 136.619253 
L 191.52 128.985395 
L 191.87712 134.812325 
L 192.23424 136.210512 
L 192.59136 132.18446 
L 192.94848 134.211745 
L 193.3056 131.965832 
L 194.01984 136.975281 
L 194.37696 134.691345 
L 194.73408 129.891884 
L 195.0912 137.366738 
L 195.44832 134.708628 
L 195.80544 134.910838 
L 196.16256 128.492833 
L 196.51968 134.947132 
L 196.8768 136.552714 
L 197.23392 127.541409 
L 197.59104 125.688682 
L 197.94816 125.202168 
L 198.30528 136.210512 
L 198.6624 134.820103 
L 199.01952 125.077731 
L 199.37664 127.919904 
L 199.73376 127.387591 
L 200.09088 131.339326 
L 200.448 132.105823 
L 200.80512 133.915343 
L 201.16224 125.086373 
L 201.87648 129.823616 
L 202.2336 134.729368 
L 202.59072 125.308458 
L 202.94784 124.166058 
L 203.30496 129.72856 
L 203.66208 133.398584 
L 204.0192 125.945333 
L 204.37632 121.830274 
L 204.73344 125.186614 
L 205.09056 125.045758 
L 205.8048 132.057431 
L 206.16192 124.71047 
L 206.51904 121.065506 
L 206.87616 131.425741 
L 207.23328 123.024523 
L 207.5904 128.052983 
L 207.94752 129.967928 
L 208.30464 128.340743 
L 208.66176 123.432399 
L 209.01888 126.898485 
L 209.376 124.173836 
L 209.73312 129.794235 
L 210.09024 122.35049 
L 210.44736 118.907736 
L 210.80448 119.564486 
L 211.1616 130.819111 
L 211.51872 127.538817 
L 211.87584 128.070266 
L 212.23296 123.932739 
L 212.59008 130.086316 
L 212.9472 129.522029 
L 213.66144 122.564798 
L 214.01856 125.743987 
L 214.37568 127.862007 
L 214.7328 127.257969 
L 215.08992 120.755278 
L 215.44704 123.379686 
L 215.80416 124.422709 
L 216.16128 117.623616 
L 216.5184 121.667815 
L 216.87552 127.122299 
L 217.23264 127.769543 
L 217.58976 118.711575 
L 217.94688 119.517822 
L 218.304 125.435487 
L 218.66112 126.313459 
L 219.01824 117.364373 
L 219.37536 117.334992 
L 219.73248 120.411348 
L 220.0896 119.342401 
L 220.44672 118.717624 
L 220.80384 120.553932 
L 221.16096 126.607268 
L 221.51808 115.166852 
L 221.8752 113.938038 
L 222.23232 118.683922 
L 222.58944 125.244511 
L 222.94656 125.881386 
L 223.30368 124.736394 
L 223.6608 124.924778 
L 224.01792 122.813671 
L 224.37504 112.583058 
L 224.73216 121.119083 
L 225.08928 116.307523 
L 225.4464 117.460293 
L 226.16064 121.075876 
L 226.51776 114.311348 
L 226.87488 122.700468 
L 227.232 119.475479 
L 227.58912 113.017723 
L 227.94624 121.246976 
L 228.30336 123.790155 
L 228.66048 117.360916 
L 229.0176 115.3561 
L 229.37472 110.407141 
L 230.08896 121.106121 
L 230.44608 110.86773 
L 230.8032 115.091671 
L 231.16032 112.764529 
L 231.51744 117.664231 
L 231.87456 116.252218 
L 232.23168 119.27759 
L 232.5888 111.114876 
L 232.94592 121.750773 
L 233.30304 109.757304 
L 234.01728 121.585721 
L 234.3744 113.907792 
L 234.73152 117.51819 
L 235.08864 110.089135 
L 235.44576 117.05328 
L 235.80288 112.252955 
L 236.16 109.890382 
L 236.51712 111.345602 
L 236.87424 114.325175 
L 237.23136 110.105554 
L 237.58848 113.049696 
L 237.9456 114.062474 
L 238.30272 110.683667 
L 238.65984 118.537882 
L 239.01696 117.4577 
L 239.37408 115.845206 
L 239.7312 109.810017 
L 240.08832 111.387081 
L 240.44544 117.153521 
L 240.80256 107.437074 
L 241.15968 113.517199 
L 241.5168 111.575465 
L 241.87392 117.174261 
L 242.23104 105.75804 
L 242.94528 110.57997 
L 243.3024 106.457134 
L 243.65952 113.740148 
L 244.01664 114.531705 
L 244.37376 113.468807 
L 245.088 104.246651 
L 245.44512 105.937783 
L 245.80224 113.969147 
L 246.15936 115.670648 
L 246.51648 105.249059 
L 246.8736 106.988583 
L 247.23072 114.084942 
L 247.58784 108.68922 
L 247.94496 108.702183 
L 248.30208 115.668056 
L 248.6592 113.829155 
L 249.01632 105.514352 
L 249.37344 111.271286 
L 250.08768 105.74335 
L 250.4448 106.845135 
L 250.80192 107.024013 
L 251.15904 112.014451 
L 251.51616 114.87045 
L 251.87328 108.531946 
L 252.2304 111.240177 
L 252.58752 111.315357 
L 252.94464 113.237216 
L 253.30176 112.615896 
L 253.65888 103.035984 
L 254.016 103.682364 
L 254.37312 107.265109 
L 254.73024 104.937967 
L 255.08736 111.177958 
L 255.8016 102.724027 
L 256.15872 104.558607 
L 256.51584 103.132768 
L 256.87296 112.316901 
L 257.23008 102.412071 
L 257.5872 109.000313 
L 257.94432 109.231904 
L 258.65856 101.232513 
L 259.01568 100.21455 
L 259.3728 110.343194 
L 259.72992 108.471456 
L 260.08704 108.261469 
L 260.44416 108.995128 
L 260.80128 102.356766 
L 261.51552 111.120925 
L 261.87264 107.93655 
L 262.22976 108.1595 
L 262.58688 103.449909 
L 262.944 108.354796 
L 263.30112 110.532442 
L 263.65824 110.005313 
L 264.01536 110.230855 
L 264.37248 103.566569 
L 264.7296 105.832357 
L 265.08672 100.766739 
L 265.44384 98.901914 
L 265.80096 103.495709 
L 266.15808 101.64471 
L 266.5152 103.889759 
L 266.87232 108.090368 
L 267.22944 99.59323 
L 267.58656 97.005979 
L 267.94368 106.401829 
L 268.3008 102.675635 
L 268.65792 100.536876 
L 269.01504 100.59391 
L 269.37216 94.882775 
L 269.72928 98.508728 
L 270.0864 105.21795 
L 270.44352 107.38609 
L 270.80064 104.593173 
L 271.15776 103.01438 
L 271.51488 97.525331 
L 271.872 100.50231 
L 272.22912 96.012213 
L 272.58624 104.355533 
L 272.94336 95.803089 
L 273.30048 93.532116 
L 273.6576 94.215655 
L 274.01472 101.854697 
L 274.37184 97.805314 
L 274.72896 103.434354 
L 275.08608 104.939695 
L 275.4432 95.396077 
L 275.80032 102.676499 
L 276.15744 98.901914 
L 276.51456 101.636933 
L 276.87168 93.77062 
L 277.2288 103.757545 
L 277.58592 105.071045 
L 277.94304 95.989745 
L 278.30016 104.607863 
L 278.65728 93.594335 
L 279.0144 99.826549 
L 279.37152 99.922469 
L 279.72864 100.521321 
L 280.44288 91.497919 
L 280.8 98.554527 
L 281.15712 91.885056 
L 281.87136 92.518474 
L 282.22848 97.589277 
L 282.5856 94.930303 
L 282.94272 94.853394 
L 283.29984 101.611873 
L 284.01408 100.281089 
L 284.3712 94.056652 
L 284.72832 94.385892 
L 285.08544 99.570762 
L 285.44256 101.935063 
L 285.79968 101.69051 
L 286.1568 102.272943 
L 286.51392 100.023574 
L 286.87104 99.443733 
L 287.22816 95.446198 
L 287.58528 95.285467 
L 287.9424 97.55644 
L 288.29952 94.294292 
L 288.65664 98.171711 
L 289.01376 96.146155 
L 289.37088 95.826421 
L 289.728 88.468226 
L 290.08512 95.653592 
L 290.44224 99.397933 
L 290.79936 98.437004 
L 291.15648 89.761851 
L 291.5136 93.671244 
L 291.87072 93.643591 
L 292.22784 89.511249 
L 292.58496 93.793952 
L 292.94208 94.354782 
L 293.2992 90.892153 
L 293.65632 94.551807 
L 294.01344 88.865733 
L 294.37056 99.017709 
L 294.72768 94.240715 
L 295.0848 87.515074 
L 295.44192 98.375649 
L 295.79904 98.825005 
L 296.15616 93.787903 
L 296.8704 99.661497 
L 297.22752 95.28201 
L 297.58464 93.026591 
L 297.94176 97.514961 
L 298.656 86.603401 
L 299.01312 96.725996 
L 299.37024 85.898259 
L 299.72736 86.672533 
L 300.08448 98.906234 
L 300.4416 87.40792 
L 300.79872 92.762163 
L 301.15584 88.90462 
L 301.51296 96.839199 
L 301.87008 91.893697 
L 302.94144 84.376499 
L 303.29856 91.809011 
L 303.65568 86.521307 
L 304.0128 83.094108 
L 304.36992 93.182138 
L 304.72704 88.724013 
L 305.08416 95.3425 
L 305.44128 95.983696 
L 305.7984 87.792465 
L 306.51264 89.099052 
L 306.86976 85.540503 
L 307.22688 94.040234 
L 307.584 94.818828 
L 307.94112 87.759627 
L 308.29824 89.092139 
L 308.65536 96.379474 
L 309.01248 95.206829 
L 309.3696 85.815301 
L 309.72672 94.408359 
L 310.08384 93.098315 
L 310.44096 81.219778 
L 310.79808 82.887578 
L 311.1552 94.651184 
L 311.51232 95.09017 
L 311.86944 80.606235 
L 312.22656 94.292564 
L 312.58368 80.518956 
L 312.9408 81.996644 
L 313.29792 94.6002 
L 313.65504 82.942019 
L 314.01216 92.029368 
L 314.36928 82.5713 
L 314.7264 84.873383 
L 315.08352 93.566682 
L 315.44064 93.782718 
L 315.79776 93.634085 
L 316.15488 93.850122 
L 316.512 92.560817 
L 316.86912 89.385084 
L 317.22624 83.739625 
L 317.58336 93.774941 
L 317.94048 90.792776 
L 318.2976 83.418163 
L 318.65472 85.248422 
L 319.01184 91.444342 
L 319.36896 84.761908 
L 319.72608 87.558282 
L 320.0832 81.799619 
L 320.44032 91.32509 
L 320.79744 89.938137 
L 321.15456 81.019296 
L 321.51168 90.957828 
L 321.8688 78.814862 
L 322.22592 82.814989 
L 322.58304 83.95134 
L 322.94016 83.002509 
L 323.29728 90.84981 
L 323.6544 82.163424 
L 324.01152 88.726606 
L 324.36864 91.422738 
L 324.72576 87.339653 
L 325.08288 77.834921 
L 325.44 90.645872 
L 325.79712 79.593457 
L 326.15424 88.580565 
L 326.51136 89.080905 
L 326.86848 78.969544 
L 327.2256 85.330516 
L 327.58272 84.286628 
L 327.93984 90.270833 
L 328.29696 81.841098 
L 329.0112 75.38507 
L 329.36832 88.636735 
L 329.72544 80.190581 
L 330.08256 84.781783 
L 330.43968 83.735304 
L 330.7968 79.431861 
L 331.15392 86.728702 
L 331.51104 74.646226 
L 331.86816 80.022937 
L 332.22528 88.776726 
L 332.5824 87.496927 
L 332.93952 78.72067 
L 333.29664 83.612595 
L 333.65376 80.289957 
L 334.368 85.150773 
L 334.72512 74.717086 
L 335.08224 74.613389 
L 335.43936 87.319777 
L 335.79648 86.269841 
L 336.1536 86.547232 
L 336.51072 78.715485 
L 336.86784 86.742529 
L 337.22496 81.625926 
L 337.58208 85.187067 
L 337.9392 75.88541 
L 338.29632 74.358466 
L 338.65344 83.657531 
L 339.01056 78.699931 
L 339.36768 78.050958 
L 339.7248 81.072873 
L 340.08192 85.746169 
L 340.43904 74.327357 
L 340.79616 73.204832 
L 341.15328 82.706971 
L 341.5104 87.185835 
L 341.86752 84.353168 
L 342.22464 86.555009 
L 342.58176 72.9646 
L 343.296 86.522172 
L 343.65312 85.812709 
L 344.01024 77.072745 
L 344.36736 72.917936 
L 344.72448 86.491062 
L 345.0816 83.806164 
L 345.43872 82.415754 
L 345.79584 82.699194 
L 346.15296 74.014536 
L 346.51008 79.232244 
L 346.8672 74.623758 
L 347.22432 73.273964 
L 347.58144 77.247303 
L 347.93856 73.520245 
L 348.29568 82.936834 
L 348.6528 83.493343 
L 349.00992 85.367674 
L 349.36704 76.746963 
L 349.72416 83.799251 
L 350.08128 83.912454 
L 350.4384 83.72407 
L 350.79552 73.321492 
L 351.15264 76.789306 
L 351.50976 72.044285 
L 351.86688 76.008119 
L 352.224 76.246623 
L 352.58112 72.930034 
L 352.93824 71.301985 
L 353.29536 78.832145 
L 353.65248 70.850901 
L 354.0096 70.449938 
L 354.36672 81.297551 
L 354.72384 77.704435 
L 355.08096 78.74573 
L 355.43808 80.811901 
L 356.15232 80.098117 
L 356.50944 67.493698 
L 356.86656 68.693995 
L 357.22368 76.308841 
L 357.5808 77.193726 
L 357.93792 79.138052 
L 358.29504 75.080027 
L 358.65216 80.993372 
L 359.00928 82.315513 
L 359.3664 70.185509 
L 359.72352 81.909365 
L 360.08064 76.847204 
L 360.43776 76.739185 
L 360.79488 76.372788 
L 361.152 80.725487 
L 361.50912 68.114154 
L 361.86624 66.696092 
L 362.22336 79.050773 
L 362.58048 77.249895 
L 362.9376 73.574686 
L 363.29472 76.808317 
L 363.65184 66.345249 
L 364.00896 71.179276 
L 364.36608 69.727512 
L 364.7232 76.377973 
L 365.08032 67.985396 
L 365.43744 78.268722 
L 365.79456 79.78184 
L 366.15168 78.914239 
L 366.5088 74.610796 
L 366.86592 67.562829 
L 367.22304 68.296488 
L 367.58016 66.109337 
L 367.93728 75.009167 
L 368.2944 73.213474 
L 368.65152 66.622639 
L 369.00864 74.52611 
L 369.36576 67.768496 
L 369.72288 70.375621 
L 370.08 64.782874 
L 370.43712 74.978922 
L 370.79424 66.728929 
L 371.15136 71.067801 
L 371.50848 65.678993 
L 371.8656 72.973241 
L 372.22272 67.646651 
L 372.93696 76.475621 
L 373.29408 66.047119 
L 374.00832 77.289646 
L 374.36544 73.063977 
L 375.07968 76.912879 
L 375.4368 78.315386 
L 375.79392 73.805413 
L 376.15104 66.310683 
L 376.50816 77.726903 
L 376.86528 65.11125 
L 377.2224 64.822625 
L 377.57952 73.413955 
L 377.93664 63.260251 
L 378.29376 74.239214 
L 378.65088 67.644923 
L 379.008 75.133604 
L 379.36512 74.832881 
L 379.72224 69.333462 
L 380.07936 69.211618 
L 380.43648 67.574927 
L 380.7936 64.421662 
L 381.15072 66.770408 
L 381.50784 76.801404 
L 381.86496 61.6443 
L 382.22208 76.746963 
L 382.5792 63.689731 
L 382.93632 69.509748 
L 383.29344 69.670479 
L 383.65056 61.866385 
L 384.00768 62.420302 
L 384.3648 60.891629 
L 384.72192 62.389193 
L 385.07904 68.057984 
L 385.43616 63.268892 
L 385.79328 60.960761 
L 386.1504 74.587464 
L 386.50752 61.890581 
L 386.86464 61.303827 
L 387.22176 68.975706 
L 387.57888 66.499931 
L 387.936 74.562404 
L 388.29312 66.590666 
L 388.65024 64.676585 
L 389.00736 67.447034 
L 389.7216 59.058778 
L 390.07872 72.061568 
L 390.43584 62.124764 
L 390.79296 68.862503 
L 391.15008 69.177052 
L 391.5072 70.307354 
L 391.86432 69.02237 
L 392.22144 60.501036 
L 392.57856 62.647572 
L 392.93568 68.717327 
L 393.2928 66.32883 
L 393.64992 72.755477 
L 394.00704 72.137613 
L 394.36416 62.0781 
L 394.72128 60.653125 
L 395.0784 67.472958 
L 395.43552 64.979035 
L 395.79264 66.734114 
L 396.14976 73.597154 
L 396.50688 61.607141 
L 396.864 64.988541 
L 397.22112 61.887124 
L 397.57824 70.351425 
L 397.93536 72.448705 
L 398.29248 69.228901 
L 398.6496 68.844356 
L 399.00672 71.548266 
L 399.36384 58.615471 
L 399.72096 67.132485 
L 400.07808 64.510669 
L 400.4352 65.300497 
L 400.79232 71.491233 
L 401.14944 63.198032 
L 401.50656 61.244201 
L 401.86368 66.177605 
L 402.2208 64.476967 
L 402.57792 61.444682 
L 402.93504 62.034029 
L 403.29216 60.094023 
L 403.64928 68.681033 
L 404.0064 64.700781 
L 404.36352 57.273454 
L 404.72064 58.910145 
L 405.07776 57.067787 
L 405.43488 65.078412 
L 405.792 60.903727 
L 406.14912 70.578695 
L 406.50624 66.11625 
L 406.86336 66.118843 
L 407.22048 59.518503 
L 407.5776 60.484617 
L 407.93472 63.891077 
L 408.29184 58.164388 
L 408.64896 59.776018 
L 409.00608 54.84175 
L 409.3632 59.523688 
L 409.72032 66.111065 
L 410.07744 60.681642 
L 410.43456 67.239639 
L 411.1488 55.078526 
L 411.50592 60.826818 
L 411.86304 59.076925 
L 412.22016 54.519424 
L 412.57728 70.076627 
L 412.9344 64.27735 
L 413.29152 53.568 
L 414.00576 67.392593 
L 414.36288 67.346793 
L 414.72 59.592819 
L 414.72 59.592819 
" style="fill:none;stroke:#000080;stroke-linecap:square;stroke-width:0.5;"/>
   </g>
   <g id="patch_3">
    <path d="M 57.6 307.584 
L 57.6 41.472 
" style="fill:none;stroke:#000000;stroke-linecap:square;stroke-linejoin:miter;stroke-width:0.8;"/>
   </g>
   <g id="patch_4">
    <path d="M 414.72 307.584 
L 414.72 41.472 
" style="fill:none;stroke:#000000;stroke-linecap:square;stroke-linejoin:miter;stroke-width:0.8;"/>
   </g>
   <g id="patch_5">
    <path d="M 57.6 307.584 
L 414.72 307.584 
" style="fill:none;stroke:#000000;stroke-linecap:square;stroke-linejoin:miter;stroke-width:0.8;"/>
   </g>
   <g id="patch_6">
    <path d="M 57.6 41.472 
L 414.72 41.472 
" style="fill:none;stroke:#000000;stroke-linecap:square;stroke-linejoin:miter;stroke-width:0.8;"/>
   </g>
   <g id="text_15">
    <!-- Test -->
    <defs>
     <path d="M -0.296875 72.90625 
L 61.375 72.90625 
L 61.375 64.59375 
L 35.5 64.59375 
L 35.5 0 
L 25.59375 0 
L 25.59375 64.59375 
L -0.296875 64.59375 
z
" id="DejaVuSans-54"/>
    </defs>
    <g transform="translate(223.341563 35.472)scale(0.12 -0.12)">
     <use xlink:href="#DejaVuSans-54"/>
     <use x="60.818359" xlink:href="#DejaVuSans-65"/>
     <use x="122.341797" xlink:href="#DejaVuSans-73"/>
     <use x="174.441406" xlink:href="#DejaVuSans-74"/>
    </g>
   </g>
   <g id="legend_1">
    <g id="patch_7">
     <path d="M 64.6 64.150125 
L 306.276563 64.150125 
Q 308.276563 64.150125 308.276563 62.150125 
L 308.276563 48.472 
Q 308.276563 46.472 306.276563 46.472 
L 64.6 46.472 
Q 62.6 46.472 62.6 48.472 
L 62.6 62.150125 
Q 62.6 64.150125 64.6 64.150125 
z
" style="fill:#ffffff;opacity:0.8;stroke:#cccccc;stroke-linejoin:miter;"/>
    </g>
    <g id="line2d_26">
     <path d="M 66.6 54.570438 
L 86.6 54.570438 
" style="fill:none;stroke:#000080;stroke-linecap:square;stroke-width:0.5;"/>
    </g>
    <g id="line2d_27"/>
    <g id="text_16">
     <!-- Successful download requests per second -->
     <g transform="translate(94.6 58.070438)scale(0.1 -0.1)">
      <use xlink:href="#DejaVuSans-53"/>
      <use x="63.476562" xlink:href="#DejaVuSans-75"/>
      <use x="126.855469" xlink:href="#DejaVuSans-63"/>
      <use x="181.835938" xlink:href="#DejaVuSans-63"/>
      <use x="236.816406" xlink:href="#DejaVuSans-65"/>
      <use x="298.339844" xlink:href="#DejaVuSans-73"/>
      <use x="350.439453" xlink:href="#DejaVuSans-73"/>
      <use x="402.539062" xlink:href="#DejaVuSans-66"/>
      <use x="437.744141" xlink:href="#DejaVuSans-75"/>
      <use x="501.123047" xlink:href="#DejaVuSans-6c"/>
      <use x="528.90625" xlink:href="#DejaVuSans-20"/>
      <use x="560.693359" xlink:href="#DejaVuSans-64"/>
      <use x="624.169922" xlink:href="#DejaVuSans-6f"/>
      <use x="685.351562" xlink:href="#DejaVuSans-77"/>
      <use x="767.138672" xlink:href="#DejaVuSans-6e"/>
      <use x="830.517578" xlink:href="#DejaVuSans-6c"/>
      <use x="858.300781" xlink:href="#DejaVuSans-6f"/>
      <use x="919.482422" xlink:href="#DejaVuSans-61"/>
      <use x="980.761719" xlink:href="#DejaVuSans-64"/>
      <use x="1044.238281" xlink:href="#DejaVuSans-20"/>
      <use x="1076.025391" xlink:href="#DejaVuSans-72"/>
      <use x="1117.107422" xlink:href="#DejaVuSans-65"/>
      <use x="1178.630859" xlink:href="#DejaVuSans-71"/>
      <use x="1242.107422" xlink:href="#DejaVuSans-75"/>
      <use x="1305.486328" xlink:href="#DejaVuSans-65"/>
      <use x="1367.009766" xlink:href="#DejaVuSans-73"/>
      <use x="1419.109375" xlink:href="#DejaVuSans-74"/>
      <use x="1458.318359" xlink:href="#DejaVuSans-73"/>
      <use x="1510.417969" xlink:href="#DejaVuSans-20"/>
      <use x="1542.205078" xlink:href="#DejaVuSans-70"/>
      <use x="1605.681641" xlink:href="#DejaVuSans-65"/>
      <use x="1667.205078" xlink:href="#DejaVuSans-72"/>
      <use x="1708.318359" xlink:href="#DejaVuSans-20"/>
      <use x="1740.105469" xlink:href="#DejaVuSans-73"/>
      <use x="1792.205078" xlink:href="#DejaVuSans-65"/>
      <use x="1853.728516" xlink:href="#DejaVuSans-63"/>
      <use x="1908.708984" xlink:href="#DejaVuSans-6f"/>
      <use x="1969.890625" xlink:href="#DejaVuSans-6e"/>
      <use x="2033.269531" xlink:href="#DejaVuSans-64"/>
     </g>
    </g>
   </g>
  </g>
 </g>
 <defs>
  <clipPath id="pebda4f467a">
   <rect height="266.112" width="357.12" x="57.6" y="41.472"/>
  </clipPath>
 </defs>
</svg>
