<?xml version="1.0" encoding="utf-8" standalone="no"?>
<!DOCTYPE svg PUBLIC "-//W3C//DTD SVG 1.1//EN"
  "http://www.w3.org/Graphics/SVG/1.1/DTD/svg11.dtd">
<!-- Created with matplotlib (http://matplotlib.org/) -->
<svg height="345pt" version="1.1" viewBox="0 0 460 345" width="460pt" xmlns="http://www.w3.org/2000/svg" xmlns:xlink="http://www.w3.org/1999/xlink">
 <defs>
  <style type="text/css">
*{stroke-linecap:butt;stroke-linejoin:round;}
  </style>
 </defs>
 <g id="figure_1">
  <g id="patch_1">
   <path d="M 0 345.6 
L 460.8 345.6 
L 460.8 0 
L 0 0 
z
" style="fill:#ffffff;"/>
  </g>
  <g id="axes_1">
   <g id="patch_2">
    <path d="M 57.6 307.584 
L 414.72 307.584 
L 414.72 41.472 
L 57.6 41.472 
z
" style="fill:#ffffff;"/>
   </g>
   <g id="matplotlib.axis_1">
    <g id="xtick_1">
     <g id="line2d_1">
      <path clip-path="url(#p0827b3f3c8)" d="M 57.6 307.584 
L 57.6 41.472 
" style="fill:none;stroke:#b0b0b0;stroke-linecap:square;stroke-width:0.8;"/>
     </g>
     <g id="line2d_2">
      <defs>
       <path d="M 0 0 
L 0 3.5 
" id="m0c641bb81a" style="stroke:#000000;stroke-width:0.8;"/>
      </defs>
      <g>
       <use style="stroke:#000000;stroke-width:0.8;" x="57.6" xlink:href="#m0c641bb81a" y="307.584"/>
      </g>
     </g>
     <g id="text_1">
      <!-- 0 -->
      <defs>
       <path d="M 31.78125 66.40625 
Q 24.171875 66.40625 20.328125 58.90625 
Q 16.5 51.421875 16.5 36.375 
Q 16.5 21.390625 20.328125 13.890625 
Q 24.171875 6.390625 31.78125 6.390625 
Q 39.453125 6.390625 43.28125 13.890625 
Q 47.125 21.390625 47.125 36.375 
Q 47.125 51.421875 43.28125 58.90625 
Q 39.453125 66.40625 31.78125 66.40625 
M 31.78125 74.21875 
Q 44.046875 74.21875 50.515625 64.515625 
Q 56.984375 54.828125 56.984375 36.375 
Q 56.984375 17.96875 50.515625 8.265625 
Q 44.046875 -1.421875 31.78125 -1.421875 
Q 19.53125 -1.421875 13.0625 8.265625 
Q 6.59375 17.96875 6.59375 36.375 
Q 6.59375 54.828125 13.0625 64.515625 
Q 19.53125 74.21875 31.78125 74.21875 
" id="DejaVuSans-30"/>
      </defs>
      <g transform="translate(54.41875 322.182437)scale(0.1 -0.1)">
       <use xlink:href="#DejaVuSans-30"/>
      </g>
     </g>
    </g>
    <g id="xtick_2">
     <g id="line2d_3">
      <path clip-path="url(#p0827b3f3c8)" d="M 129.024 307.584 
L 129.024 41.472 
" style="fill:none;stroke:#b0b0b0;stroke-linecap:square;stroke-width:0.8;"/>
     </g>
     <g id="line2d_4">
      <g>
       <use style="stroke:#000000;stroke-width:0.8;" x="129.024" xlink:href="#m0c641bb81a" y="307.584"/>
      </g>
     </g>
     <g id="text_2">
      <!-- 200 -->
      <defs>
       <path d="M 19.1875 8.296875 
L 53.609375 8.296875 
L 53.609375 0 
L 7.328125 0 
L 7.328125 8.296875 
Q 12.9375 14.109375 22.625 23.890625 
Q 32.328125 33.6875 34.8125 36.53125 
Q 39.546875 41.84375 41.421875 45.53125 
Q 43.3125 49.21875 43.3125 52.78125 
Q 43.3125 58.59375 39.234375 62.25 
Q 35.15625 65.921875 28.609375 65.921875 
Q 23.96875 65.921875 18.8125 64.3125 
Q 13.671875 62.703125 7.8125 59.421875 
L 7.8125 69.390625 
Q 13.765625 71.78125 18.9375 73 
Q 24.125 74.21875 28.421875 74.21875 
Q 39.75 74.21875 46.484375 68.546875 
Q 53.21875 62.890625 53.21875 53.421875 
Q 53.21875 48.921875 51.53125 44.890625 
Q 49.859375 40.875 45.40625 35.40625 
Q 44.1875 33.984375 37.640625 27.21875 
Q 31.109375 20.453125 19.1875 8.296875 
" id="DejaVuSans-32"/>
      </defs>
      <g transform="translate(119.48025 322.182437)scale(0.1 -0.1)">
       <use xlink:href="#DejaVuSans-32"/>
       <use x="63.623047" xlink:href="#DejaVuSans-30"/>
       <use x="127.246094" xlink:href="#DejaVuSans-30"/>
      </g>
     </g>
    </g>
    <g id="xtick_3">
     <g id="line2d_5">
      <path clip-path="url(#p0827b3f3c8)" d="M 200.448 307.584 
L 200.448 41.472 
" style="fill:none;stroke:#b0b0b0;stroke-linecap:square;stroke-width:0.8;"/>
     </g>
     <g id="line2d_6">
      <g>
       <use style="stroke:#000000;stroke-width:0.8;" x="200.448" xlink:href="#m0c641bb81a" y="307.584"/>
      </g>
     </g>
     <g id="text_3">
      <!-- 400 -->
      <defs>
       <path d="M 37.796875 64.3125 
L 12.890625 25.390625 
L 37.796875 25.390625 
z
M 35.203125 72.90625 
L 47.609375 72.90625 
L 47.609375 25.390625 
L 58.015625 25.390625 
L 58.015625 17.1875 
L 47.609375 17.1875 
L 47.609375 0 
L 37.796875 0 
L 37.796875 17.1875 
L 4.890625 17.1875 
L 4.890625 26.703125 
z
" id="DejaVuSans-34"/>
      </defs>
      <g transform="translate(190.90425 322.182437)scale(0.1 -0.1)">
       <use xlink:href="#DejaVuSans-34"/>
       <use x="63.623047" xlink:href="#DejaVuSans-30"/>
       <use x="127.246094" xlink:href="#DejaVuSans-30"/>
      </g>
     </g>
    </g>
    <g id="xtick_4">
     <g id="line2d_7">
      <path clip-path="url(#p0827b3f3c8)" d="M 271.872 307.584 
L 271.872 41.472 
" style="fill:none;stroke:#b0b0b0;stroke-linecap:square;stroke-width:0.8;"/>
     </g>
     <g id="line2d_8">
      <g>
       <use style="stroke:#000000;stroke-width:0.8;" x="271.872" xlink:href="#m0c641bb81a" y="307.584"/>
      </g>
     </g>
     <g id="text_4">
      <!-- 600 -->
      <defs>
       <path d="M 33.015625 40.375 
Q 26.375 40.375 22.484375 35.828125 
Q 18.609375 31.296875 18.609375 23.390625 
Q 18.609375 15.53125 22.484375 10.953125 
Q 26.375 6.390625 33.015625 6.390625 
Q 39.65625 6.390625 43.53125 10.953125 
Q 47.40625 15.53125 47.40625 23.390625 
Q 47.40625 31.296875 43.53125 35.828125 
Q 39.65625 40.375 33.015625 40.375 
M 52.59375 71.296875 
L 52.59375 62.3125 
Q 48.875 64.0625 45.09375 64.984375 
Q 41.3125 65.921875 37.59375 65.921875 
Q 27.828125 65.921875 22.671875 59.328125 
Q 17.53125 52.734375 16.796875 39.40625 
Q 19.671875 43.65625 24.015625 45.921875 
Q 28.375 48.1875 33.59375 48.1875 
Q 44.578125 48.1875 50.953125 41.515625 
Q 57.328125 34.859375 57.328125 23.390625 
Q 57.328125 12.15625 50.6875 5.359375 
Q 44.046875 -1.421875 33.015625 -1.421875 
Q 20.359375 -1.421875 13.671875 8.265625 
Q 6.984375 17.96875 6.984375 36.375 
Q 6.984375 53.65625 15.1875 63.9375 
Q 23.390625 74.21875 37.203125 74.21875 
Q 40.921875 74.21875 44.703125 73.484375 
Q 48.484375 72.75 52.59375 71.296875 
" id="DejaVuSans-36"/>
      </defs>
      <g transform="translate(262.32825 322.182437)scale(0.1 -0.1)">
       <use xlink:href="#DejaVuSans-36"/>
       <use x="63.623047" xlink:href="#DejaVuSans-30"/>
       <use x="127.246094" xlink:href="#DejaVuSans-30"/>
      </g>
     </g>
    </g>
    <g id="xtick_5">
     <g id="line2d_9">
      <path clip-path="url(#p0827b3f3c8)" d="M 343.296 307.584 
L 343.296 41.472 
" style="fill:none;stroke:#b0b0b0;stroke-linecap:square;stroke-width:0.8;"/>
     </g>
     <g id="line2d_10">
      <g>
       <use style="stroke:#000000;stroke-width:0.8;" x="343.296" xlink:href="#m0c641bb81a" y="307.584"/>
      </g>
     </g>
     <g id="text_5">
      <!-- 800 -->
      <defs>
       <path d="M 31.78125 34.625 
Q 24.75 34.625 20.71875 30.859375 
Q 16.703125 27.09375 16.703125 20.515625 
Q 16.703125 13.921875 20.71875 10.15625 
Q 24.75 6.390625 31.78125 6.390625 
Q 38.8125 6.390625 42.859375 10.171875 
Q 46.921875 13.96875 46.921875 20.515625 
Q 46.921875 27.09375 42.890625 30.859375 
Q 38.875 34.625 31.78125 34.625 
M 21.921875 38.8125 
Q 15.578125 40.375 12.03125 44.71875 
Q 8.5 49.078125 8.5 55.328125 
Q 8.5 64.0625 14.71875 69.140625 
Q 20.953125 74.21875 31.78125 74.21875 
Q 42.671875 74.21875 48.875 69.140625 
Q 55.078125 64.0625 55.078125 55.328125 
Q 55.078125 49.078125 51.53125 44.71875 
Q 48 40.375 41.703125 38.8125 
Q 48.828125 37.15625 52.796875 32.3125 
Q 56.78125 27.484375 56.78125 20.515625 
Q 56.78125 9.90625 50.3125 4.234375 
Q 43.84375 -1.421875 31.78125 -1.421875 
Q 19.734375 -1.421875 13.25 4.234375 
Q 6.78125 9.90625 6.78125 20.515625 
Q 6.78125 27.484375 10.78125 32.3125 
Q 14.796875 37.15625 21.921875 38.8125 
M 18.3125 54.390625 
Q 18.3125 48.734375 21.84375 45.5625 
Q 25.390625 42.390625 31.78125 42.390625 
Q 38.140625 42.390625 41.71875 45.5625 
Q 45.3125 48.734375 45.3125 54.390625 
Q 45.3125 60.0625 41.71875 63.234375 
Q 38.140625 66.40625 31.78125 66.40625 
Q 25.390625 66.40625 21.84375 63.234375 
Q 18.3125 60.0625 18.3125 54.390625 
" id="DejaVuSans-38"/>
      </defs>
      <g transform="translate(333.75225 322.182437)scale(0.1 -0.1)">
       <use xlink:href="#DejaVuSans-38"/>
       <use x="63.623047" xlink:href="#DejaVuSans-30"/>
       <use x="127.246094" xlink:href="#DejaVuSans-30"/>
      </g>
     </g>
    </g>
    <g id="xtick_6">
     <g id="line2d_11">
      <path clip-path="url(#p0827b3f3c8)" d="M 414.72 307.584 
L 414.72 41.472 
" style="fill:none;stroke:#b0b0b0;stroke-linecap:square;stroke-width:0.8;"/>
     </g>
     <g id="line2d_12">
      <g>
       <use style="stroke:#000000;stroke-width:0.8;" x="414.72" xlink:href="#m0c641bb81a" y="307.584"/>
      </g>
     </g>
     <g id="text_6">
      <!-- 1000 -->
      <defs>
       <path d="M 12.40625 8.296875 
L 28.515625 8.296875 
L 28.515625 63.921875 
L 10.984375 60.40625 
L 10.984375 69.390625 
L 28.421875 72.90625 
L 38.28125 72.90625 
L 38.28125 8.296875 
L 54.390625 8.296875 
L 54.390625 0 
L 12.40625 0 
z
" id="DejaVuSans-31"/>
      </defs>
      <g transform="translate(401.995 322.182437)scale(0.1 -0.1)">
       <use xlink:href="#DejaVuSans-31"/>
       <use x="63.623047" xlink:href="#DejaVuSans-30"/>
       <use x="127.246094" xlink:href="#DejaVuSans-30"/>
       <use x="190.869141" xlink:href="#DejaVuSans-30"/>
      </g>
     </g>
    </g>
    <g id="text_7">
     <!-- Number of clients -->
     <defs>
      <path d="M 9.8125 72.90625 
L 23.09375 72.90625 
L 55.421875 11.921875 
L 55.421875 72.90625 
L 64.984375 72.90625 
L 64.984375 0 
L 51.703125 0 
L 19.390625 60.984375 
L 19.390625 0 
L 9.8125 0 
z
" id="DejaVuSans-4e"/>
      <path d="M 8.5 21.578125 
L 8.5 54.6875 
L 17.484375 54.6875 
L 17.484375 21.921875 
Q 17.484375 14.15625 20.5 10.265625 
Q 23.53125 6.390625 29.59375 6.390625 
Q 36.859375 6.390625 41.078125 11.03125 
Q 45.3125 15.671875 45.3125 23.6875 
L 45.3125 54.6875 
L 54.296875 54.6875 
L 54.296875 0 
L 45.3125 0 
L 45.3125 8.40625 
Q 42.046875 3.421875 37.71875 1 
Q 33.40625 -1.421875 27.6875 -1.421875 
Q 18.265625 -1.421875 13.375 4.4375 
Q 8.5 10.296875 8.5 21.578125 
M 31.109375 56 
z
" id="DejaVuSans-75"/>
      <path d="M 52 44.1875 
Q 55.375 50.25 60.0625 53.125 
Q 64.75 56 71.09375 56 
Q 79.640625 56 84.28125 50.015625 
Q 88.921875 44.046875 88.921875 33.015625 
L 88.921875 0 
L 79.890625 0 
L 79.890625 32.71875 
Q 79.890625 40.578125 77.09375 44.375 
Q 74.3125 48.1875 68.609375 48.1875 
Q 61.625 48.1875 57.5625 43.546875 
Q 53.515625 38.921875 53.515625 30.90625 
L 53.515625 0 
L 44.484375 0 
L 44.484375 32.71875 
Q 44.484375 40.625 41.703125 44.40625 
Q 38.921875 48.1875 33.109375 48.1875 
Q 26.21875 48.1875 22.15625 43.53125 
Q 18.109375 38.875 18.109375 30.90625 
L 18.109375 0 
L 9.078125 0 
L 9.078125 54.6875 
L 18.109375 54.6875 
L 18.109375 46.1875 
Q 21.1875 51.21875 25.484375 53.609375 
Q 29.78125 56 35.6875 56 
Q 41.65625 56 45.828125 52.96875 
Q 50 49.953125 52 44.1875 
" id="DejaVuSans-6d"/>
      <path d="M 48.6875 27.296875 
Q 48.6875 37.203125 44.609375 42.84375 
Q 40.53125 48.484375 33.40625 48.484375 
Q 26.265625 48.484375 22.1875 42.84375 
Q 18.109375 37.203125 18.109375 27.296875 
Q 18.109375 17.390625 22.1875 11.75 
Q 26.265625 6.109375 33.40625 6.109375 
Q 40.53125 6.109375 44.609375 11.75 
Q 48.6875 17.390625 48.6875 27.296875 
M 18.109375 46.390625 
Q 20.953125 51.265625 25.265625 53.625 
Q 29.59375 56 35.59375 56 
Q 45.5625 56 51.78125 48.09375 
Q 58.015625 40.1875 58.015625 27.296875 
Q 58.015625 14.40625 51.78125 6.484375 
Q 45.5625 -1.421875 35.59375 -1.421875 
Q 29.59375 -1.421875 25.265625 0.953125 
Q 20.953125 3.328125 18.109375 8.203125 
L 18.109375 0 
L 9.078125 0 
L 9.078125 75.984375 
L 18.109375 75.984375 
z
" id="DejaVuSans-62"/>
      <path d="M 56.203125 29.59375 
L 56.203125 25.203125 
L 14.890625 25.203125 
Q 15.484375 15.921875 20.484375 11.0625 
Q 25.484375 6.203125 34.421875 6.203125 
Q 39.59375 6.203125 44.453125 7.46875 
Q 49.3125 8.734375 54.109375 11.28125 
L 54.109375 2.78125 
Q 49.265625 0.734375 44.1875 -0.34375 
Q 39.109375 -1.421875 33.890625 -1.421875 
Q 20.796875 -1.421875 13.15625 6.1875 
Q 5.515625 13.8125 5.515625 26.8125 
Q 5.515625 40.234375 12.765625 48.109375 
Q 20.015625 56 32.328125 56 
Q 43.359375 56 49.78125 48.890625 
Q 56.203125 41.796875 56.203125 29.59375 
M 47.21875 32.234375 
Q 47.125 39.59375 43.09375 43.984375 
Q 39.0625 48.390625 32.421875 48.390625 
Q 24.90625 48.390625 20.390625 44.140625 
Q 15.875 39.890625 15.1875 32.171875 
z
" id="DejaVuSans-65"/>
      <path d="M 41.109375 46.296875 
Q 39.59375 47.171875 37.8125 47.578125 
Q 36.03125 48 33.890625 48 
Q 26.265625 48 22.1875 43.046875 
Q 18.109375 38.09375 18.109375 28.8125 
L 18.109375 0 
L 9.078125 0 
L 9.078125 54.6875 
L 18.109375 54.6875 
L 18.109375 46.1875 
Q 20.953125 51.171875 25.484375 53.578125 
Q 30.03125 56 36.53125 56 
Q 37.453125 56 38.578125 55.875 
Q 39.703125 55.765625 41.0625 55.515625 
z
" id="DejaVuSans-72"/>
      <path id="DejaVuSans-20"/>
      <path d="M 30.609375 48.390625 
Q 23.390625 48.390625 19.1875 42.75 
Q 14.984375 37.109375 14.984375 27.296875 
Q 14.984375 17.484375 19.15625 11.84375 
Q 23.34375 6.203125 30.609375 6.203125 
Q 37.796875 6.203125 41.984375 11.859375 
Q 46.1875 17.53125 46.1875 27.296875 
Q 46.1875 37.015625 41.984375 42.703125 
Q 37.796875 48.390625 30.609375 48.390625 
M 30.609375 56 
Q 42.328125 56 49.015625 48.375 
Q 55.71875 40.765625 55.71875 27.296875 
Q 55.71875 13.875 49.015625 6.21875 
Q 42.328125 -1.421875 30.609375 -1.421875 
Q 18.84375 -1.421875 12.171875 6.21875 
Q 5.515625 13.875 5.515625 27.296875 
Q 5.515625 40.765625 12.171875 48.375 
Q 18.84375 56 30.609375 56 
" id="DejaVuSans-6f"/>
      <path d="M 37.109375 75.984375 
L 37.109375 68.5 
L 28.515625 68.5 
Q 23.6875 68.5 21.796875 66.546875 
Q 19.921875 64.59375 19.921875 59.515625 
L 19.921875 54.6875 
L 34.71875 54.6875 
L 34.71875 47.703125 
L 19.921875 47.703125 
L 19.921875 0 
L 10.890625 0 
L 10.890625 47.703125 
L 2.296875 47.703125 
L 2.296875 54.6875 
L 10.890625 54.6875 
L 10.890625 58.5 
Q 10.890625 67.625 15.140625 71.796875 
Q 19.390625 75.984375 28.609375 75.984375 
z
" id="DejaVuSans-66"/>
      <path d="M 48.78125 52.59375 
L 48.78125 44.1875 
Q 44.96875 46.296875 41.140625 47.34375 
Q 37.3125 48.390625 33.40625 48.390625 
Q 24.65625 48.390625 19.8125 42.84375 
Q 14.984375 37.3125 14.984375 27.296875 
Q 14.984375 17.28125 19.8125 11.734375 
Q 24.65625 6.203125 33.40625 6.203125 
Q 37.3125 6.203125 41.140625 7.25 
Q 44.96875 8.296875 48.78125 10.40625 
L 48.78125 2.09375 
Q 45.015625 0.34375 40.984375 -0.53125 
Q 36.96875 -1.421875 32.421875 -1.421875 
Q 20.0625 -1.421875 12.78125 6.34375 
Q 5.515625 14.109375 5.515625 27.296875 
Q 5.515625 40.671875 12.859375 48.328125 
Q 20.21875 56 33.015625 56 
Q 37.15625 56 41.109375 55.140625 
Q 45.0625 54.296875 48.78125 52.59375 
" id="DejaVuSans-63"/>
      <path d="M 9.421875 75.984375 
L 18.40625 75.984375 
L 18.40625 0 
L 9.421875 0 
z
" id="DejaVuSans-6c"/>
      <path d="M 9.421875 54.6875 
L 18.40625 54.6875 
L 18.40625 0 
L 9.421875 0 
z
M 9.421875 75.984375 
L 18.40625 75.984375 
L 18.40625 64.59375 
L 9.421875 64.59375 
z
" id="DejaVuSans-69"/>
      <path d="M 54.890625 33.015625 
L 54.890625 0 
L 45.90625 0 
L 45.90625 32.71875 
Q 45.90625 40.484375 42.875 44.328125 
Q 39.84375 48.1875 33.796875 48.1875 
Q 26.515625 48.1875 22.3125 43.546875 
Q 18.109375 38.921875 18.109375 30.90625 
L 18.109375 0 
L 9.078125 0 
L 9.078125 54.6875 
L 18.109375 54.6875 
L 18.109375 46.1875 
Q 21.34375 51.125 25.703125 53.5625 
Q 30.078125 56 35.796875 56 
Q 45.21875 56 50.046875 50.171875 
Q 54.890625 44.34375 54.890625 33.015625 
" id="DejaVuSans-6e"/>
      <path d="M 18.3125 70.21875 
L 18.3125 54.6875 
L 36.8125 54.6875 
L 36.8125 47.703125 
L 18.3125 47.703125 
L 18.3125 18.015625 
Q 18.3125 11.328125 20.140625 9.421875 
Q 21.96875 7.515625 27.59375 7.515625 
L 36.8125 7.515625 
L 36.8125 0 
L 27.59375 0 
Q 17.1875 0 13.234375 3.875 
Q 9.28125 7.765625 9.28125 18.015625 
L 9.28125 47.703125 
L 2.6875 47.703125 
L 2.6875 54.6875 
L 9.28125 54.6875 
L 9.28125 70.21875 
z
" id="DejaVuSans-74"/>
      <path d="M 44.28125 53.078125 
L 44.28125 44.578125 
Q 40.484375 46.53125 36.375 47.5 
Q 32.28125 48.484375 27.875 48.484375 
Q 21.1875 48.484375 17.84375 46.4375 
Q 14.5 44.390625 14.5 40.28125 
Q 14.5 37.15625 16.890625 35.375 
Q 19.28125 33.59375 26.515625 31.984375 
L 29.59375 31.296875 
Q 39.15625 29.25 43.1875 25.515625 
Q 47.21875 21.78125 47.21875 15.09375 
Q 47.21875 7.46875 41.1875 3.015625 
Q 35.15625 -1.421875 24.609375 -1.421875 
Q 20.21875 -1.421875 15.453125 -0.5625 
Q 10.6875 0.296875 5.421875 2 
L 5.421875 11.28125 
Q 10.40625 8.6875 15.234375 7.390625 
Q 20.0625 6.109375 24.8125 6.109375 
Q 31.15625 6.109375 34.5625 8.28125 
Q 37.984375 10.453125 37.984375 14.40625 
Q 37.984375 18.0625 35.515625 20.015625 
Q 33.0625 21.96875 24.703125 23.78125 
L 21.578125 24.515625 
Q 13.234375 26.265625 9.515625 29.90625 
Q 5.8125 33.546875 5.8125 39.890625 
Q 5.8125 47.609375 11.28125 51.796875 
Q 16.75 56 26.8125 56 
Q 31.78125 56 36.171875 55.265625 
Q 40.578125 54.546875 44.28125 53.078125 
" id="DejaVuSans-73"/>
     </defs>
     <g transform="translate(191.738906 335.860562)scale(0.1 -0.1)">
      <use xlink:href="#DejaVuSans-4e"/>
      <use x="74.804688" xlink:href="#DejaVuSans-75"/>
      <use x="138.183594" xlink:href="#DejaVuSans-6d"/>
      <use x="235.595703" xlink:href="#DejaVuSans-62"/>
      <use x="299.072266" xlink:href="#DejaVuSans-65"/>
      <use x="360.595703" xlink:href="#DejaVuSans-72"/>
      <use x="401.708984" xlink:href="#DejaVuSans-20"/>
      <use x="433.496094" xlink:href="#DejaVuSans-6f"/>
      <use x="494.677734" xlink:href="#DejaVuSans-66"/>
      <use x="529.882812" xlink:href="#DejaVuSans-20"/>
      <use x="561.669922" xlink:href="#DejaVuSans-63"/>
      <use x="616.650391" xlink:href="#DejaVuSans-6c"/>
      <use x="644.433594" xlink:href="#DejaVuSans-69"/>
      <use x="672.216797" xlink:href="#DejaVuSans-65"/>
      <use x="733.740234" xlink:href="#DejaVuSans-6e"/>
      <use x="797.119141" xlink:href="#DejaVuSans-74"/>
      <use x="836.328125" xlink:href="#DejaVuSans-73"/>
     </g>
    </g>
   </g>
   <g id="matplotlib.axis_2">
    <g id="ytick_1">
     <g id="line2d_13">
      <path clip-path="url(#p0827b3f3c8)" d="M 57.6 296.139953 
L 414.72 296.139953 
" style="fill:none;stroke:#b0b0b0;stroke-linecap:square;stroke-width:0.8;"/>
     </g>
     <g id="line2d_14">
      <defs>
       <path d="M 0 0 
L -3.5 0 
" id="mfba913d683" style="stroke:#000000;stroke-width:0.8;"/>
      </defs>
      <g>
       <use style="stroke:#000000;stroke-width:0.8;" x="57.6" xlink:href="#mfba913d683" y="296.139953"/>
      </g>
     </g>
     <g id="text_8">
      <!-- 0 -->
      <g transform="translate(44.2375 299.939171)scale(0.1 -0.1)">
       <use xlink:href="#DejaVuSans-30"/>
      </g>
     </g>
    </g>
    <g id="ytick_2">
     <g id="line2d_15">
      <path clip-path="url(#p0827b3f3c8)" d="M 57.6 262.6033 
L 414.72 262.6033 
" style="fill:none;stroke:#b0b0b0;stroke-linecap:square;stroke-width:0.8;"/>
     </g>
     <g id="line2d_16">
      <g>
       <use style="stroke:#000000;stroke-width:0.8;" x="57.6" xlink:href="#mfba913d683" y="262.6033"/>
      </g>
     </g>
     <g id="text_9">
      <!-- 50 -->
      <defs>
       <path d="M 10.796875 72.90625 
L 49.515625 72.90625 
L 49.515625 64.59375 
L 19.828125 64.59375 
L 19.828125 46.734375 
Q 21.96875 47.46875 24.109375 47.828125 
Q 26.265625 48.1875 28.421875 48.1875 
Q 40.625 48.1875 47.75 41.5 
Q 54.890625 34.8125 54.890625 23.390625 
Q 54.890625 11.625 47.5625 5.09375 
Q 40.234375 -1.421875 26.90625 -1.421875 
Q 22.3125 -1.421875 17.546875 -0.640625 
Q 12.796875 0.140625 7.71875 1.703125 
L 7.71875 11.625 
Q 12.109375 9.234375 16.796875 8.0625 
Q 21.484375 6.890625 26.703125 6.890625 
Q 35.15625 6.890625 40.078125 11.328125 
Q 45.015625 15.765625 45.015625 23.390625 
Q 45.015625 31 40.078125 35.4375 
Q 35.15625 39.890625 26.703125 39.890625 
Q 22.75 39.890625 18.8125 39.015625 
Q 14.890625 38.140625 10.796875 36.28125 
z
" id="DejaVuSans-35"/>
      </defs>
      <g transform="translate(37.875 266.402518)scale(0.1 -0.1)">
       <use xlink:href="#DejaVuSans-35"/>
       <use x="63.623047" xlink:href="#DejaVuSans-30"/>
      </g>
     </g>
    </g>
    <g id="ytick_3">
     <g id="line2d_17">
      <path clip-path="url(#p0827b3f3c8)" d="M 57.6 229.066647 
L 414.72 229.066647 
" style="fill:none;stroke:#b0b0b0;stroke-linecap:square;stroke-width:0.8;"/>
     </g>
     <g id="line2d_18">
      <g>
       <use style="stroke:#000000;stroke-width:0.8;" x="57.6" xlink:href="#mfba913d683" y="229.066647"/>
      </g>
     </g>
     <g id="text_10">
      <!-- 100 -->
      <g transform="translate(31.5125 232.865865)scale(0.1 -0.1)">
       <use xlink:href="#DejaVuSans-31"/>
       <use x="63.623047" xlink:href="#DejaVuSans-30"/>
       <use x="127.246094" xlink:href="#DejaVuSans-30"/>
      </g>
     </g>
    </g>
    <g id="ytick_4">
     <g id="line2d_19">
      <path clip-path="url(#p0827b3f3c8)" d="M 57.6 195.529994 
L 414.72 195.529994 
" style="fill:none;stroke:#b0b0b0;stroke-linecap:square;stroke-width:0.8;"/>
     </g>
     <g id="line2d_20">
      <g>
       <use style="stroke:#000000;stroke-width:0.8;" x="57.6" xlink:href="#mfba913d683" y="195.529994"/>
      </g>
     </g>
     <g id="text_11">
      <!-- 150 -->
      <g transform="translate(31.5125 199.329212)scale(0.1 -0.1)">
       <use xlink:href="#DejaVuSans-31"/>
       <use x="63.623047" xlink:href="#DejaVuSans-35"/>
       <use x="127.246094" xlink:href="#DejaVuSans-30"/>
      </g>
     </g>
    </g>
    <g id="ytick_5">
     <g id="line2d_21">
      <path clip-path="url(#p0827b3f3c8)" d="M 57.6 161.993341 
L 414.72 161.993341 
" style="fill:none;stroke:#b0b0b0;stroke-linecap:square;stroke-width:0.8;"/>
     </g>
     <g id="line2d_22">
      <g>
       <use style="stroke:#000000;stroke-width:0.8;" x="57.6" xlink:href="#mfba913d683" y="161.993341"/>
      </g>
     </g>
     <g id="text_12">
      <!-- 200 -->
      <g transform="translate(31.5125 165.792559)scale(0.1 -0.1)">
       <use xlink:href="#DejaVuSans-32"/>
       <use x="63.623047" xlink:href="#DejaVuSans-30"/>
       <use x="127.246094" xlink:href="#DejaVuSans-30"/>
      </g>
     </g>
    </g>
    <g id="ytick_6">
     <g id="line2d_23">
      <path clip-path="url(#p0827b3f3c8)" d="M 57.6 128.456688 
L 414.72 128.456688 
" style="fill:none;stroke:#b0b0b0;stroke-linecap:square;stroke-width:0.8;"/>
     </g>
     <g id="line2d_24">
      <g>
       <use style="stroke:#000000;stroke-width:0.8;" x="57.6" xlink:href="#mfba913d683" y="128.456688"/>
      </g>
     </g>
     <g id="text_13">
      <!-- 250 -->
      <g transform="translate(31.5125 132.255906)scale(0.1 -0.1)">
       <use xlink:href="#DejaVuSans-32"/>
       <use x="63.623047" xlink:href="#DejaVuSans-35"/>
       <use x="127.246094" xlink:href="#DejaVuSans-30"/>
      </g>
     </g>
    </g>
    <g id="ytick_7">
     <g id="line2d_25">
      <path clip-path="url(#p0827b3f3c8)" d="M 57.6 94.920035 
L 414.72 94.920035 
" style="fill:none;stroke:#b0b0b0;stroke-linecap:square;stroke-width:0.8;"/>
     </g>
     <g id="line2d_26">
      <g>
       <use style="stroke:#000000;stroke-width:0.8;" x="57.6" xlink:href="#mfba913d683" y="94.920035"/>
      </g>
     </g>
     <g id="text_14">
      <!-- 300 -->
      <defs>
       <path d="M 40.578125 39.3125 
Q 47.65625 37.796875 51.625 33 
Q 55.609375 28.21875 55.609375 21.1875 
Q 55.609375 10.40625 48.1875 4.484375 
Q 40.765625 -1.421875 27.09375 -1.421875 
Q 22.515625 -1.421875 17.65625 -0.515625 
Q 12.796875 0.390625 7.625 2.203125 
L 7.625 11.71875 
Q 11.71875 9.328125 16.59375 8.109375 
Q 21.484375 6.890625 26.8125 6.890625 
Q 36.078125 6.890625 40.9375 10.546875 
Q 45.796875 14.203125 45.796875 21.1875 
Q 45.796875 27.640625 41.28125 31.265625 
Q 36.765625 34.90625 28.71875 34.90625 
L 20.21875 34.90625 
L 20.21875 43.015625 
L 29.109375 43.015625 
Q 36.375 43.015625 40.234375 45.921875 
Q 44.09375 48.828125 44.09375 54.296875 
Q 44.09375 59.90625 40.109375 62.90625 
Q 36.140625 65.921875 28.71875 65.921875 
Q 24.65625 65.921875 20.015625 65.03125 
Q 15.375 64.15625 9.8125 62.3125 
L 9.8125 71.09375 
Q 15.4375 72.65625 20.34375 73.4375 
Q 25.25 74.21875 29.59375 74.21875 
Q 40.828125 74.21875 47.359375 69.109375 
Q 53.90625 64.015625 53.90625 55.328125 
Q 53.90625 49.265625 50.4375 45.09375 
Q 46.96875 40.921875 40.578125 39.3125 
" id="DejaVuSans-33"/>
      </defs>
      <g transform="translate(31.5125 98.719253)scale(0.1 -0.1)">
       <use xlink:href="#DejaVuSans-33"/>
       <use x="63.623047" xlink:href="#DejaVuSans-30"/>
       <use x="127.246094" xlink:href="#DejaVuSans-30"/>
      </g>
     </g>
    </g>
    <g id="ytick_8">
     <g id="line2d_27">
      <path clip-path="url(#p0827b3f3c8)" d="M 57.6 61.383382 
L 414.72 61.383382 
" style="fill:none;stroke:#b0b0b0;stroke-linecap:square;stroke-width:0.8;"/>
     </g>
     <g id="line2d_28">
      <g>
       <use style="stroke:#000000;stroke-width:0.8;" x="57.6" xlink:href="#mfba913d683" y="61.383382"/>
      </g>
     </g>
     <g id="text_15">
      <!-- 350 -->
      <g transform="translate(31.5125 65.1826)scale(0.1 -0.1)">
       <use xlink:href="#DejaVuSans-33"/>
       <use x="63.623047" xlink:href="#DejaVuSans-35"/>
       <use x="127.246094" xlink:href="#DejaVuSans-30"/>
      </g>
     </g>
    </g>
    <g id="text_16">
     <!-- Successful download requests per second -->
     <defs>
      <path d="M 53.515625 70.515625 
L 53.515625 60.890625 
Q 47.90625 63.578125 42.921875 64.890625 
Q 37.9375 66.21875 33.296875 66.21875 
Q 25.25 66.21875 20.875 63.09375 
Q 16.5 59.96875 16.5 54.203125 
Q 16.5 49.359375 19.40625 46.890625 
Q 22.3125 44.4375 30.421875 42.921875 
L 36.375 41.703125 
Q 47.40625 39.59375 52.65625 34.296875 
Q 57.90625 29 57.90625 20.125 
Q 57.90625 9.515625 50.796875 4.046875 
Q 43.703125 -1.421875 29.984375 -1.421875 
Q 24.8125 -1.421875 18.96875 -0.25 
Q 13.140625 0.921875 6.890625 3.21875 
L 6.890625 13.375 
Q 12.890625 10.015625 18.65625 8.296875 
Q 24.421875 6.59375 29.984375 6.59375 
Q 38.421875 6.59375 43.015625 9.90625 
Q 47.609375 13.234375 47.609375 19.390625 
Q 47.609375 24.75 44.3125 27.78125 
Q 41.015625 30.8125 33.5 32.328125 
L 27.484375 33.5 
Q 16.453125 35.6875 11.515625 40.375 
Q 6.59375 45.0625 6.59375 53.421875 
Q 6.59375 63.09375 13.40625 68.65625 
Q 20.21875 74.21875 32.171875 74.21875 
Q 37.3125 74.21875 42.625 73.28125 
Q 47.953125 72.359375 53.515625 70.515625 
" id="DejaVuSans-53"/>
      <path d="M 45.40625 46.390625 
L 45.40625 75.984375 
L 54.390625 75.984375 
L 54.390625 0 
L 45.40625 0 
L 45.40625 8.203125 
Q 42.578125 3.328125 38.25 0.953125 
Q 33.9375 -1.421875 27.875 -1.421875 
Q 17.96875 -1.421875 11.734375 6.484375 
Q 5.515625 14.40625 5.515625 27.296875 
Q 5.515625 40.1875 11.734375 48.09375 
Q 17.96875 56 27.875 56 
Q 33.9375 56 38.25 53.625 
Q 42.578125 51.265625 45.40625 46.390625 
M 14.796875 27.296875 
Q 14.796875 17.390625 18.875 11.75 
Q 22.953125 6.109375 30.078125 6.109375 
Q 37.203125 6.109375 41.296875 11.75 
Q 45.40625 17.390625 45.40625 27.296875 
Q 45.40625 37.203125 41.296875 42.84375 
Q 37.203125 48.484375 30.078125 48.484375 
Q 22.953125 48.484375 18.875 42.84375 
Q 14.796875 37.203125 14.796875 27.296875 
" id="DejaVuSans-64"/>
      <path d="M 4.203125 54.6875 
L 13.1875 54.6875 
L 24.421875 12.015625 
L 35.59375 54.6875 
L 46.1875 54.6875 
L 57.421875 12.015625 
L 68.609375 54.6875 
L 77.59375 54.6875 
L 63.28125 0 
L 52.6875 0 
L 40.921875 44.828125 
L 29.109375 0 
L 18.5 0 
z
" id="DejaVuSans-77"/>
      <path d="M 34.28125 27.484375 
Q 23.390625 27.484375 19.1875 25 
Q 14.984375 22.515625 14.984375 16.5 
Q 14.984375 11.71875 18.140625 8.90625 
Q 21.296875 6.109375 26.703125 6.109375 
Q 34.1875 6.109375 38.703125 11.40625 
Q 43.21875 16.703125 43.21875 25.484375 
L 43.21875 27.484375 
z
M 52.203125 31.203125 
L 52.203125 0 
L 43.21875 0 
L 43.21875 8.296875 
Q 40.140625 3.328125 35.546875 0.953125 
Q 30.953125 -1.421875 24.3125 -1.421875 
Q 15.921875 -1.421875 10.953125 3.296875 
Q 6 8.015625 6 15.921875 
Q 6 25.140625 12.171875 29.828125 
Q 18.359375 34.515625 30.609375 34.515625 
L 43.21875 34.515625 
L 43.21875 35.40625 
Q 43.21875 41.609375 39.140625 45 
Q 35.0625 48.390625 27.6875 48.390625 
Q 23 48.390625 18.546875 47.265625 
Q 14.109375 46.140625 10.015625 43.890625 
L 10.015625 52.203125 
Q 14.9375 54.109375 19.578125 55.046875 
Q 24.21875 56 28.609375 56 
Q 40.484375 56 46.34375 49.84375 
Q 52.203125 43.703125 52.203125 31.203125 
" id="DejaVuSans-61"/>
      <path d="M 14.796875 27.296875 
Q 14.796875 17.390625 18.875 11.75 
Q 22.953125 6.109375 30.078125 6.109375 
Q 37.203125 6.109375 41.296875 11.75 
Q 45.40625 17.390625 45.40625 27.296875 
Q 45.40625 37.203125 41.296875 42.84375 
Q 37.203125 48.484375 30.078125 48.484375 
Q 22.953125 48.484375 18.875 42.84375 
Q 14.796875 37.203125 14.796875 27.296875 
M 45.40625 8.203125 
Q 42.578125 3.328125 38.25 0.953125 
Q 33.9375 -1.421875 27.875 -1.421875 
Q 17.96875 -1.421875 11.734375 6.484375 
Q 5.515625 14.40625 5.515625 27.296875 
Q 5.515625 40.1875 11.734375 48.09375 
Q 17.96875 56 27.875 56 
Q 33.9375 56 38.25 53.625 
Q 42.578125 51.265625 45.40625 46.390625 
L 45.40625 54.6875 
L 54.390625 54.6875 
L 54.390625 -20.796875 
L 45.40625 -20.796875 
z
" id="DejaVuSans-71"/>
      <path d="M 18.109375 8.203125 
L 18.109375 -20.796875 
L 9.078125 -20.796875 
L 9.078125 54.6875 
L 18.109375 54.6875 
L 18.109375 46.390625 
Q 20.953125 51.265625 25.265625 53.625 
Q 29.59375 56 35.59375 56 
Q 45.5625 56 51.78125 48.09375 
Q 58.015625 40.1875 58.015625 27.296875 
Q 58.015625 14.40625 51.78125 6.484375 
Q 45.5625 -1.421875 35.59375 -1.421875 
Q 29.59375 -1.421875 25.265625 0.953125 
Q 20.953125 3.328125 18.109375 8.203125 
M 48.6875 27.296875 
Q 48.6875 37.203125 44.609375 42.84375 
Q 40.53125 48.484375 33.40625 48.484375 
Q 26.265625 48.484375 22.1875 42.84375 
Q 18.109375 37.203125 18.109375 27.296875 
Q 18.109375 17.390625 22.1875 11.75 
Q 26.265625 6.109375 33.40625 6.109375 
Q 40.53125 6.109375 44.609375 11.75 
Q 48.6875 17.390625 48.6875 27.296875 
" id="DejaVuSans-70"/>
     </defs>
     <g transform="translate(25.432812 279.366281)rotate(-90)scale(0.1 -0.1)">
      <use xlink:href="#DejaVuSans-53"/>
      <use x="63.476562" xlink:href="#DejaVuSans-75"/>
      <use x="126.855469" xlink:href="#DejaVuSans-63"/>
      <use x="181.835938" xlink:href="#DejaVuSans-63"/>
      <use x="236.816406" xlink:href="#DejaVuSans-65"/>
      <use x="298.339844" xlink:href="#DejaVuSans-73"/>
      <use x="350.439453" xlink:href="#DejaVuSans-73"/>
      <use x="402.539062" xlink:href="#DejaVuSans-66"/>
      <use x="437.744141" xlink:href="#DejaVuSans-75"/>
      <use x="501.123047" xlink:href="#DejaVuSans-6c"/>
      <use x="528.90625" xlink:href="#DejaVuSans-20"/>
      <use x="560.693359" xlink:href="#DejaVuSans-64"/>
      <use x="624.169922" xlink:href="#DejaVuSans-6f"/>
      <use x="685.351562" xlink:href="#DejaVuSans-77"/>
      <use x="767.138672" xlink:href="#DejaVuSans-6e"/>
      <use x="830.517578" xlink:href="#DejaVuSans-6c"/>
      <use x="858.300781" xlink:href="#DejaVuSans-6f"/>
      <use x="919.482422" xlink:href="#DejaVuSans-61"/>
      <use x="980.761719" xlink:href="#DejaVuSans-64"/>
      <use x="1044.238281" xlink:href="#DejaVuSans-20"/>
      <use x="1076.025391" xlink:href="#DejaVuSans-72"/>
      <use x="1117.107422" xlink:href="#DejaVuSans-65"/>
      <use x="1178.630859" xlink:href="#DejaVuSans-71"/>
      <use x="1242.107422" xlink:href="#DejaVuSans-75"/>
      <use x="1305.486328" xlink:href="#DejaVuSans-65"/>
      <use x="1367.009766" xlink:href="#DejaVuSans-73"/>
      <use x="1419.109375" xlink:href="#DejaVuSans-74"/>
      <use x="1458.318359" xlink:href="#DejaVuSans-73"/>
      <use x="1510.417969" xlink:href="#DejaVuSans-20"/>
      <use x="1542.205078" xlink:href="#DejaVuSans-70"/>
      <use x="1605.681641" xlink:href="#DejaVuSans-65"/>
      <use x="1667.205078" xlink:href="#DejaVuSans-72"/>
      <use x="1708.318359" xlink:href="#DejaVuSans-20"/>
      <use x="1740.105469" xlink:href="#DejaVuSans-73"/>
      <use x="1792.205078" xlink:href="#DejaVuSans-65"/>
      <use x="1853.728516" xlink:href="#DejaVuSans-63"/>
      <use x="1908.708984" xlink:href="#DejaVuSans-6f"/>
      <use x="1969.890625" xlink:href="#DejaVuSans-6e"/>
      <use x="2033.269531" xlink:href="#DejaVuSans-64"/>
     </g>
    </g>
   </g>
   <g id="line2d_29">
    <path clip-path="url(#p0827b3f3c8)" d="M 57.6 295.488 
L 57.95712 295.482634 
L 59.02848 293.61263 
L 59.74272 292.177262 
L 60.09984 291.468968 
L 60.45696 291.075247 
L 61.1712 289.514451 
L 61.52832 289.135487 
L 63.31392 285.494748 
L 63.67104 285.484016 
L 64.02816 284.095599 
L 64.38528 283.742793 
L 64.7424 283.143158 
L 65.09952 282.902365 
L 65.45664 281.720533 
L 65.81376 281.789619 
L 66.528 279.6037 
L 66.88512 279.897481 
L 67.95648 276.943572 
L 68.3136 276.10918 
L 68.67072 276.578694 
L 69.02784 275.970339 
L 69.74208 273.788444 
L 70.0992 273.175394 
L 70.45632 273.410151 
L 70.81344 271.373134 
L 71.17056 271.849355 
L 71.52768 270.90228 
L 71.8848 271.102158 
L 72.24192 270.02429 
L 72.59904 269.529289 
L 72.95616 267.399041 
L 73.31328 267.687456 
L 73.6704 266.996601 
L 74.02752 266.649161 
L 74.38464 265.182939 
L 74.74176 265.930136 
L 75.09888 264.435742 
L 75.456 264.401535 
L 76.17024 262.804519 
L 76.52736 262.626775 
L 76.88448 261.781652 
L 77.2416 260.171221 
L 77.59872 259.838538 
L 77.95584 260.399941 
L 78.31296 259.48372 
L 78.67008 259.250976 
L 79.0272 255.985847 
L 79.38432 257.751217 
L 79.74144 255.425114 
L 80.09856 255.475419 
L 80.45568 253.880416 
L 80.8128 253.647001 
L 81.16992 254.381454 
L 81.52704 251.641509 
L 81.88416 252.014437 
L 82.24128 250.691751 
L 82.5984 251.522119 
L 82.95552 249.328151 
L 83.31264 250.463702 
L 83.66976 248.352234 
L 84.02688 247.169061 
L 84.384 247.905526 
L 84.74112 245.606924 
L 85.09824 247.063756 
L 85.45536 244.653812 
L 85.81248 246.048937 
L 86.52672 244.42308 
L 86.88384 244.327836 
L 87.24096 240.886305 
L 87.59808 242.468564 
L 87.9552 241.809233 
L 88.31232 240.108254 
L 88.66944 240.657585 
L 89.02656 238.243616 
L 89.38368 239.566302 
L 89.7408 235.888002 
L 90.09792 235.261537 
L 90.45504 236.62715 
L 90.81216 235.901416 
L 91.16928 235.951051 
L 91.5264 235.574099 
L 91.88352 231.772384 
L 92.24064 232.946167 
L 92.59776 231.64092 
L 92.95488 230.922565 
L 93.312 231.254578 
L 93.66912 230.999029 
L 94.02624 232.140616 
L 94.38336 230.840735 
L 94.74048 230.793113 
L 95.0976 226.250238 
L 95.45472 228.207438 
L 95.81184 229.043842 
L 96.16896 227.336826 
L 96.52608 223.086391 
L 96.8832 227.172496 
L 97.24032 222.663158 
L 97.59744 225.124748 
L 97.95456 221.911937 
L 98.31168 221.758339 
L 98.6688 221.732181 
L 99.02592 218.563638 
L 99.38304 222.437792 
L 99.74016 221.381387 
L 100.09728 221.038643 
L 100.4544 216.322718 
L 101.16864 214.957777 
L 101.52576 215.08924 
L 101.88288 215.408509 
L 102.24 212.392223 
L 102.59712 215.413875 
L 102.95424 212.793321 
L 103.31136 211.956917 
L 103.66848 210.717402 
L 104.0256 211.294903 
L 104.38272 209.98362 
L 104.73984 210.298865 
L 105.09696 211.509538 
L 105.45408 210.710024 
L 105.8112 205.629221 
L 106.16832 205.980015 
L 106.52544 208.707215 
L 106.88256 208.360446 
L 107.5968 202.835618 
L 107.95392 204.77739 
L 108.31104 201.535737 
L 108.66816 200.33915 
L 109.3824 205.480319 
L 109.73952 198.610671 
L 110.09664 202.077019 
L 110.45376 202.548544 
L 110.81088 198.264572 
L 111.168 201.220493 
L 111.52512 198.829329 
L 111.88224 199.562441 
L 112.23936 197.719937 
L 112.59648 193.309867 
L 112.9536 199.17744 
L 113.31072 197.445607 
L 113.66784 194.793529 
L 114.02496 190.431081 
L 114.38208 196.465666 
L 114.7392 190.3023 
L 115.09632 193.163647 
L 115.45344 190.356629 
L 115.81056 189.320347 
L 116.16768 190.75974 
L 116.5248 189.373335 
L 116.88192 191.064253 
L 117.23904 190.094373 
L 117.59616 189.546384 
L 117.95328 188.73748 
L 118.3104 189.538335 
L 118.66752 185.10546 
L 119.02464 184.214056 
L 119.38176 188.047296 
L 119.73888 181.539843 
L 120.096 185.696376 
L 120.45312 182.412467 
L 120.81024 184.193263 
L 121.52448 177.137822 
L 121.8816 176.785687 
L 122.23872 182.337345 
L 122.59584 176.571724 
L 122.95296 174.782208 
L 123.31008 174.266414 
L 123.6672 175.118916 
L 124.02432 174.297939 
L 124.38144 180.101792 
L 124.73856 174.98544 
L 125.09568 175.304709 
L 125.4528 176.328918 
L 125.80992 173.143607 
L 126.52416 179.356607 
L 126.88128 174.642025 
L 127.2384 178.375996 
L 127.59552 177.705933 
L 127.95264 178.582581 
L 128.30976 172.544642 
L 128.66688 178.357215 
L 129.38112 171.295737 
L 129.73824 176.7052 
L 130.09536 170.142747 
L 130.45248 174.827147 
L 130.8096 175.165196 
L 131.16672 170.105857 
L 131.52384 168.002438 
L 131.88096 172.028178 
L 132.23808 168.695976 
L 132.5952 168.527622 
L 132.95232 172.113361 
L 133.30944 166.939997 
L 133.66656 173.591657 
L 134.02368 165.903714 
L 134.3808 174.449524 
L 134.73792 168.384085 
L 135.09504 165.389933 
L 135.45216 170.027381 
L 135.80928 168.382744 
L 136.52352 171.369518 
L 136.88064 167.543657 
L 137.23776 170.606224 
L 137.59488 168.926708 
L 137.952 171.75586 
L 138.30912 166.542923 
L 138.66624 163.174501 
L 139.02336 170.009942 
L 139.38048 166.798472 
L 139.7376 168.849574 
L 140.09472 169.419026 
L 140.45184 161.89206 
L 140.80896 168.467256 
L 141.5232 164.054503 
L 141.88032 164.085357 
L 142.23744 166.884997 
L 142.59456 159.612909 
L 142.95168 162.781452 
L 143.3088 161.665352 
L 143.66592 159.355347 
L 144.02304 167.946096 
L 144.38016 161.504376 
L 144.73728 159.504921 
L 145.0944 167.294815 
L 145.45152 167.104997 
L 145.80864 167.071461 
L 146.16576 164.762127 
L 146.52288 158.439797 
L 146.88 164.956639 
L 147.23712 162.03895 
L 147.59424 156.251195 
L 147.95136 165.246396 
L 148.30848 165.14981 
L 148.6656 164.325479 
L 149.02272 158.882481 
L 149.37984 157.365953 
L 149.73696 159.191018 
L 150.4512 154.609911 
L 150.80832 161.099253 
L 151.16544 160.516386 
L 151.52256 160.991265 
L 151.87968 154.060581 
L 152.2368 158.654431 
L 152.59392 157.025892 
L 152.95104 158.649066 
L 153.30816 159.673946 
L 153.66528 152.35826 
L 154.0224 161.536571 
L 154.37952 155.557657 
L 154.73664 152.022223 
L 155.09376 156.824672 
L 155.45088 159.734312 
L 155.808 150.900087 
L 156.16512 157.5826 
L 156.52224 160.367484 
L 156.87936 156.782415 
L 157.23648 159.618275 
L 157.5936 154.587106 
L 157.95072 154.482472 
L 158.30784 152.702346 
L 159.02208 157.6926 
L 159.3792 155.364486 
L 159.73632 148.859717 
L 160.09344 151.623807 
L 160.45056 151.334722 
L 160.80768 152.823749 
L 161.1648 147.738251 
L 161.52192 150.103926 
L 161.87904 153.481067 
L 162.23616 154.316801 
L 162.59328 149.260815 
L 162.9504 154.05991 
L 163.30752 147.729531 
L 163.66464 151.637893 
L 164.37888 147.656421 
L 164.736 147.51758 
L 165.09312 149.305083 
L 165.45024 148.735631 
L 165.80736 147.731544 
L 166.16448 147.628251 
L 166.5216 144.376537 
L 166.87872 152.313992 
L 167.23584 144.83666 
L 167.59296 150.42722 
L 167.95008 152.718444 
L 168.3072 146.905871 
L 168.66432 147.065506 
L 169.02144 151.093258 
L 169.37856 144.623367 
L 170.0928 148.903314 
L 170.44992 149.762523 
L 170.80704 145.465807 
L 171.16416 148.046117 
L 171.52128 149.376852 
L 171.8784 148.855692 
L 172.23552 143.265803 
L 172.59264 142.725863 
L 172.94976 148.977095 
L 173.30688 147.822763 
L 173.664 148.699411 
L 174.02112 142.781534 
L 174.37824 149.048193 
L 174.73536 142.612509 
L 175.09248 146.545017 
L 175.4496 143.051168 
L 175.80672 141.862629 
L 176.16384 145.426234 
L 176.52096 146.702639 
L 176.87808 148.480752 
L 177.2352 146.288797 
L 177.59232 143.039095 
L 177.94944 137.872438 
L 178.30656 142.11952 
L 178.66368 144.842026 
L 179.0208 139.460063 
L 179.37792 145.803186 
L 179.73504 145.426234 
L 180.09216 138.629696 
L 180.44928 145.927272 
L 181.16352 136.902558 
L 181.52064 143.991536 
L 181.87776 141.397811 
L 182.23488 143.609218 
L 182.592 141.676165 
L 182.94912 141.907568 
L 183.30624 137.797987 
L 183.66336 144.367147 
L 184.02048 145.126416 
L 184.3776 138.205122 
L 184.73472 135.972252 
L 185.09184 138.967745 
L 185.44896 137.449206 
L 185.80608 137.935487 
L 186.1632 138.160183 
L 186.52032 140.124089 
L 187.23456 135.372616 
L 187.59168 142.709765 
L 187.9488 137.250669 
L 188.30592 141.240189 
L 188.66304 135.42225 
L 189.02016 141.413909 
L 189.37728 136.346521 
L 189.7344 137.249998 
L 190.09152 134.028467 
L 190.80576 140.996713 
L 191.16288 132.365049 
L 191.52 138.78866 
L 191.87712 138.159512 
L 192.23424 140.974579 
L 192.59136 137.492133 
L 192.94848 135.718044 
L 193.3056 135.493348 
L 193.66272 138.835611 
L 194.01984 129.97791 
L 194.37696 136.111093 
L 194.73408 133.542856 
L 195.0912 138.473415 
L 195.44832 135.33975 
L 195.80544 135.706641 
L 196.16256 133.400661 
L 196.51968 137.930121 
L 196.8768 127.500222 
L 197.23392 135.474568 
L 197.59104 132.628647 
L 197.94816 132.407305 
L 198.30528 133.93993 
L 198.6624 138.266829 
L 199.01952 130.732485 
L 199.37664 126.288208 
L 199.73376 127.847662 
L 200.09088 130.293155 
L 200.80512 125.885768 
L 201.16224 133.611942 
L 201.51936 128.810835 
L 201.87648 134.316882 
L 202.2336 132.818465 
L 202.94784 126.292903 
L 203.30496 135.720056 
L 203.66208 129.160957 
L 204.0192 129.171689 
L 204.73344 132.625964 
L 205.09056 127.70882 
L 205.44768 131.19462 
L 205.8048 128.314492 
L 206.16192 133.422124 
L 206.51904 128.476139 
L 206.87616 129.961813 
L 207.23328 128.190407 
L 207.5904 130.641936 
L 207.94752 124.639546 
L 208.30464 132.194012 
L 208.66176 130.640594 
L 209.376 125.922658 
L 209.73312 129.198518 
L 210.09024 123.98424 
L 210.44736 121.705759 
L 210.80448 132.224866 
L 211.1616 121.429417 
L 211.51872 131.834499 
L 211.87584 126.773148 
L 212.23296 127.325832 
L 212.59008 128.769249 
L 212.9472 123.6918 
L 213.30432 129.810227 
L 213.66144 131.472303 
L 214.01856 126.533025 
L 214.37568 126.125219 
L 214.7328 123.680397 
L 215.08992 123.965459 
L 215.44704 124.475887 
L 215.80416 128.983884 
L 216.16128 130.522545 
L 216.5184 121.799662 
L 216.87552 120.452159 
L 217.23264 122.100821 
L 217.58976 120.414598 
L 217.94688 128.389614 
L 218.304 123.674361 
L 219.01824 127.099124 
L 219.37536 117.885935 
L 219.73248 117.384226 
L 220.0896 124.938022 
L 220.44672 126.471318 
L 220.80384 121.941857 
L 221.16096 119.260267 
L 221.51808 125.405523 
L 221.8752 124.632838 
L 222.23232 116.720871 
L 222.58944 115.509527 
L 222.94656 116.185626 
L 223.30368 126.342537 
L 223.6608 117.631056 
L 224.01792 117.333251 
L 224.37504 115.966967 
L 224.73216 122.010272 
L 225.08928 123.16997 
L 225.4464 114.828733 
L 225.80352 120.517891 
L 226.16064 114.230439 
L 226.51776 125.891134 
L 226.87488 123.618019 
L 227.232 123.968142 
L 227.58912 123.088811 
L 227.94624 120.411245 
L 228.30336 120.863989 
L 228.66048 115.068856 
L 229.0176 120.189903 
L 229.37472 120.863989 
L 229.73184 112.297387 
L 230.08896 124.61607 
L 230.44608 120.377708 
L 230.8032 112.204155 
L 231.16032 121.878138 
L 231.51744 117.291665 
L 231.87456 119.123437 
L 232.23168 112.738729 
L 232.5888 121.785577 
L 232.94592 116.016602 
L 233.30304 115.918675 
L 233.66016 110.512566 
L 234.01728 120.670818 
L 234.3744 120.473623 
L 234.73152 116.194346 
L 235.08864 113.814585 
L 235.44576 110.019577 
L 235.80288 119.685511 
L 236.16 112.161899 
L 236.51712 110.767445 
L 236.87424 119.607036 
L 237.23136 116.787945 
L 237.58848 110.52531 
L 237.9456 113.593914 
L 238.30272 114.445745 
L 238.65984 118.641851 
L 239.01696 118.525814 
L 239.37408 110.026955 
L 239.7312 116.974408 
L 240.08832 108.857868 
L 240.44544 114.508794 
L 240.80256 117.127335 
L 241.15968 109.786833 
L 241.5168 110.288541 
L 241.87392 108.325976 
L 242.23104 109.07988 
L 242.58816 107.57878 
L 242.94528 112.970803 
L 243.3024 109.649333 
L 243.65952 118.285691 
L 244.01664 114.28544 
L 244.37376 113.117693 
L 244.73088 112.948669 
L 245.088 111.045128 
L 245.44512 105.879142 
L 245.80224 117.362763 
L 246.15936 106.803412 
L 246.51648 116.76581 
L 246.8736 107.771951 
L 247.23072 108.647257 
L 247.94496 117.600202 
L 248.30208 114.333062 
L 248.6592 113.414828 
L 249.01632 108.861892 
L 249.37344 115.253307 
L 249.73056 107.230669 
L 250.08768 112.889644 
L 250.4448 103.85487 
L 250.80192 111.169214 
L 251.15904 103.878345 
L 251.51616 108.578843 
L 251.87328 110.41598 
L 252.2304 104.748957 
L 252.58752 106.871827 
L 252.94464 105.184933 
L 253.30176 107.107925 
L 253.65888 105.650422 
L 254.37312 110.692323 
L 254.73024 102.192793 
L 255.08736 109.643296 
L 255.44448 113.65428 
L 255.8016 101.822549 
L 256.15872 110.711103 
L 256.51584 100.856693 
L 256.87296 113.766963 
L 257.23008 107.65189 
L 257.5872 109.365613 
L 257.94432 101.498584 
L 258.30144 101.976146 
L 258.65856 111.338238 
L 259.01568 105.847618 
L 259.3728 102.975539 
L 259.72992 109.648662 
L 260.08704 103.664382 
L 260.44416 109.356222 
L 260.80128 107.045547 
L 261.1584 106.621644 
L 261.51552 110.368358 
L 261.87264 110.154395 
L 262.22976 111.01964 
L 262.58688 111.540129 
L 262.944 101.357731 
L 263.30112 102.45505 
L 263.65824 104.025236 
L 264.01536 99.27108 
L 264.37248 102.952734 
L 264.7296 99.998155 
L 265.08672 107.621036 
L 265.44384 109.93976 
L 265.80096 103.838101 
L 266.15808 105.7403 
L 266.5152 97.299125 
L 266.87232 106.301704 
L 267.22944 98.604371 
L 267.58656 108.445367 
L 268.3008 96.815526 
L 268.65792 105.13597 
L 269.01504 96.222598 
L 269.37216 101.554926 
L 270.0864 100.92712 
L 270.44352 108.803538 
L 270.80064 102.450355 
L 271.15776 100.927791 
L 271.51488 98.770042 
L 271.872 98.709006 
L 272.22912 101.28395 
L 272.58624 98.572847 
L 272.94336 105.074933 
L 273.30048 97.152905 
L 273.6576 104.016516 
L 274.01472 99.124189 
L 274.37184 101.230291 
L 274.72896 106.199752 
L 275.08608 96.439916 
L 275.4432 106.503595 
L 275.80032 97.171015 
L 276.15744 102.677733 
L 276.51456 102.452367 
L 276.87168 93.157348 
L 277.2288 96.16894 
L 277.58592 100.821815 
L 277.94304 99.798276 
L 278.30016 95.438511 
L 278.65728 106.034081 
L 279.0144 100.289253 
L 279.37152 96.735709 
L 279.72864 94.6504 
L 280.08576 95.736987 
L 280.44288 101.976146 
L 281.15712 91.986919 
L 281.51424 94.06485 
L 282.22848 102.750843 
L 282.5856 99.281812 
L 282.94272 99.272421 
L 283.65696 91.78704 
L 284.01408 100.124923 
L 284.3712 90.868136 
L 284.72832 97.529857 
L 285.08544 91.938626 
L 285.44256 104.325724 
L 285.79968 103.94676 
L 286.1568 102.136452 
L 286.51392 89.839902 
L 286.87104 92.722042 
L 287.22816 98.663396 
L 287.58528 95.97711 
L 287.9424 92.186127 
L 288.29952 102.51944 
L 288.65664 99.468946 
L 289.01376 102.950051 
L 289.37088 97.207905 
L 289.728 96.461379 
L 290.08512 99.933764 
L 290.44224 95.359365 
L 290.79936 102.026451 
L 291.5136 88.372338 
L 291.87072 90.202769 
L 292.22784 100.096082 
L 292.58496 89.515938 
L 292.94208 87.973923 
L 293.2992 89.487768 
L 293.65632 89.129596 
L 294.01344 89.181913 
L 294.37056 88.120143 
L 294.72768 93.055397 
L 295.0848 87.094592 
L 295.44192 100.287241 
L 295.79904 91.312832 
L 296.15616 89.163133 
L 296.51328 98.36559 
L 296.8704 97.145527 
L 297.22752 91.035149 
L 297.58464 92.005029 
L 297.94176 95.732963 
L 298.29888 94.907291 
L 298.656 86.981909 
L 299.01312 94.554485 
L 299.37024 94.658449 
L 300.08448 84.955624 
L 300.4416 98.984677 
L 300.79872 88.635937 
L 301.15584 91.139112 
L 301.51296 97.323271 
L 301.87008 85.323857 
L 302.2272 94.510887 
L 302.58432 93.340458 
L 302.94144 98.114065 
L 303.65568 83.900561 
L 304.0128 97.819614 
L 304.36992 86.608311 
L 304.72704 92.093565 
L 305.08416 94.005825 
L 305.44128 86.98258 
L 305.7984 94.150704 
L 306.15552 96.06833 
L 306.51264 93.339117 
L 306.86976 95.543146 
L 307.22688 83.025255 
L 307.94112 93.452471 
L 308.65536 82.547693 
L 309.01248 83.14934 
L 309.3696 95.807414 
L 309.72672 96.462721 
L 310.08384 92.293444 
L 310.44096 82.495375 
L 310.79808 94.460582 
L 311.1552 91.442954 
L 311.51232 95.593451 
L 311.86944 81.314885 
L 312.22656 85.796724 
L 312.58368 83.840195 
L 312.9408 91.166612 
L 313.29792 92.157285 
L 313.65504 91.36582 
L 314.01216 88.184533 
L 314.36928 86.694835 
L 314.7264 88.382399 
L 315.08352 94.646376 
L 315.44064 87.020141 
L 315.79776 86.209895 
L 316.15488 79.860736 
L 316.512 80.776287 
L 316.86912 81.37391 
L 317.58336 89.551487 
L 318.2976 91.643504 
L 318.65472 79.366406 
L 319.01184 84.827514 
L 319.36896 83.708732 
L 319.72608 86.311176 
L 320.0832 86.153554 
L 320.44032 91.341003 
L 320.79744 85.808797 
L 321.15456 83.879098 
L 321.51168 78.230855 
L 321.8688 85.568004 
L 322.22592 88.381058 
L 322.58304 92.591249 
L 322.94016 91.963443 
L 323.29728 83.913976 
L 323.6544 89.18795 
L 324.01152 87.682825 
L 324.36864 83.090316 
L 324.72576 86.283005 
L 325.08288 85.95837 
L 325.44 83.788549 
L 325.79712 91.034478 
L 326.15424 80.165249 
L 326.51136 88.588315 
L 326.86848 86.154224 
L 327.2256 86.739774 
L 327.58272 83.052755 
L 327.93984 87.188495 
L 328.29696 76.300485 
L 328.65408 77.470914 
L 329.0112 87.191848 
L 329.36832 84.068915 
L 329.72544 90.105513 
L 330.08256 89.149047 
L 330.43968 77.377682 
L 330.7968 82.49068 
L 331.15392 76.488961 
L 331.51104 77.572865 
L 331.86816 88.220082 
L 332.22528 80.194761 
L 332.5824 79.63537 
L 332.93952 89.569597 
L 333.29664 75.264202 
L 333.65376 78.28183 
L 334.01088 86.440627 
L 334.368 82.113728 
L 334.72512 86.932275 
L 335.08224 83.584646 
L 335.43936 83.213731 
L 335.79648 76.17707 
L 336.1536 73.522309 
L 336.51072 88.521241 
L 336.86784 82.321656 
L 337.22496 78.994149 
L 337.58208 82.439705 
L 337.9392 78.560855 
L 338.29632 86.050931 
L 338.65344 86.135444 
L 339.01056 85.437211 
L 339.36768 83.357267 
L 339.7248 76.316582 
L 340.08192 83.840195 
L 340.43904 85.213186 
L 340.79616 78.462258 
L 341.15328 80.259151 
L 341.5104 73.798651 
L 341.86752 72.714746 
L 342.22464 84.197025 
L 342.58176 85.134039 
L 342.93888 75.543227 
L 343.296 71.746207 
L 343.65312 75.75652 
L 344.01024 78.413294 
L 344.36736 75.370849 
L 344.72448 83.21306 
L 345.0816 82.131167 
L 345.43872 73.329808 
L 345.79584 82.210985 
L 346.15296 70.663644 
L 346.51008 73.803346 
L 346.8672 83.427024 
L 347.22432 85.180991 
L 347.58144 82.876352 
L 347.93856 84.584038 
L 348.29568 73.989809 
L 348.6528 76.649266 
L 349.00992 83.537695 
L 349.36704 83.549097 
L 349.72416 82.128484 
L 350.08128 70.284009 
L 350.4384 74.986519 
L 350.79552 76.969876 
L 351.15264 72.357245 
L 351.50976 76.175058 
L 351.86688 70.872242 
L 352.224 81.634825 
L 352.58112 74.989202 
L 352.93824 71.963525 
L 353.29536 73.441821 
L 353.65248 69.709862 
L 354.0096 68.325469 
L 354.36672 71.244499 
L 354.72384 79.289942 
L 355.08096 71.357853 
L 355.43808 76.510424 
L 355.7952 77.996769 
L 356.15232 70.952059 
L 356.50944 71.875659 
L 356.86656 71.644927 
L 357.22368 75.284995 
L 357.5808 68.740653 
L 357.93792 68.057846 
L 358.29504 81.593239 
L 358.65216 69.346995 
L 359.00928 79.192686 
L 359.3664 69.608581 
L 359.72352 73.791943 
L 360.08064 80.75214 
L 360.43776 74.63975 
L 360.79488 65.811561 
L 361.152 69.243032 
L 361.50912 71.466512 
L 361.86624 68.651445 
L 362.22336 69.228275 
L 362.58048 80.494579 
L 362.9376 76.741827 
L 363.29472 66.253574 
L 363.65184 72.223099 
L 364.00896 80.466408 
L 364.36608 66.07583 
L 364.7232 76.902132 
L 365.43744 64.37418 
L 365.79456 76.237436 
L 366.15168 69.951996 
L 366.5088 70.63212 
L 366.86592 66.046318 
L 367.22304 74.613591 
L 367.58016 76.045606 
L 367.93728 67.48437 
L 368.2944 69.876204 
L 368.65152 77.727805 
L 369.00864 77.453475 
L 369.36576 65.991988 
L 369.72288 77.702988 
L 370.43712 63.078995 
L 370.79424 72.8281 
L 371.15136 63.82485 
L 371.50848 70.280656 
L 371.8656 73.617553 
L 372.22272 78.544758 
L 372.57984 76.503046 
L 372.93696 75.311154 
L 373.29408 77.444755 
L 373.6512 62.729543 
L 374.00832 77.453475 
L 374.36544 75.653898 
L 374.72256 71.555048 
L 375.07968 61.935395 
L 375.4368 74.188346 
L 375.79392 61.801248 
L 376.15104 66.765344 
L 376.50816 62.671189 
L 376.86528 63.016617 
L 377.2224 67.774126 
L 377.57952 61.468565 
L 377.93664 63.626313 
L 378.29376 73.796638 
L 379.008 69.386568 
L 379.36512 60.758929 
L 379.72224 62.046737 
L 380.07936 61.783139 
L 380.43648 74.524384 
L 380.7936 75.092495 
L 381.15072 74.454627 
L 381.50784 63.442532 
L 381.86496 73.723528 
L 382.22208 59.605939 
L 382.5792 65.02345 
L 382.93632 72.219745 
L 383.65056 62.331127 
L 384.00768 67.660102 
L 384.3648 70.719986 
L 384.72192 71.125109 
L 385.07904 74.52103 
L 385.43616 73.79798 
L 385.79328 62.133932 
L 386.1504 62.254664 
L 386.50752 70.445656 
L 386.86464 71.251877 
L 387.22176 59.618683 
L 387.57888 69.752118 
L 387.936 71.326328 
L 388.29312 68.933824 
L 388.65024 65.37156 
L 389.00736 68.548152 
L 389.36448 73.832187 
L 389.7216 58.058558 
L 390.07872 59.766915 
L 390.43584 67.476991 
L 390.79296 69.090775 
L 391.15008 65.786744 
L 391.5072 68.706445 
L 391.86432 60.377953 
L 392.22144 73.296942 
L 392.57856 72.95621 
L 392.93568 71.793829 
L 393.2928 62.380091 
L 393.64992 56.968617 
L 394.00704 70.148521 
L 394.36416 68.093395 
L 394.72128 61.233808 
L 395.0784 67.575589 
L 395.43552 69.232971 
L 395.79264 57.926423 
L 396.14976 71.239804 
L 396.50688 61.89448 
L 396.864 60.236428 
L 397.22112 62.905275 
L 397.57824 71.793829 
L 397.93536 69.312117 
L 398.29248 69.86346 
L 398.6496 60.530209 
L 399.00672 60.386672 
L 399.36384 61.678504 
L 399.72096 70.538217 
L 400.07808 71.193523 
L 400.4352 54.997332 
L 400.79232 69.951996 
L 401.14944 69.018336 
L 401.50656 56.627213 
L 401.86368 59.817891 
L 402.2208 56.694958 
L 402.57792 61.701309 
L 402.93504 63.542471 
L 403.29216 59.925879 
L 403.64928 59.664964 
L 404.0064 58.538803 
L 404.36352 66.476258 
L 404.72064 55.519833 
L 405.07776 63.190336 
L 405.43488 62.029968 
L 405.792 56.397823 
L 406.86336 69.449617 
L 407.22048 53.714891 
L 407.5776 68.118212 
L 407.93472 66.855222 
L 408.29184 69.120287 
L 408.64896 61.701309 
L 409.00608 61.270698 
L 409.3632 68.41803 
L 409.72032 68.707116 
L 410.07744 59.603256 
L 410.43456 53.568 
L 410.79168 60.826002 
L 411.1488 54.633124 
L 411.50592 54.183062 
L 411.86304 54.673368 
L 412.22016 66.513819 
L 412.57728 66.513148 
L 412.9344 68.054493 
L 413.29152 54.962454 
L 413.64864 59.089475 
L 414.00576 55.742517 
L 414.36288 54.382941 
L 414.72 65.843086 
L 414.72 65.843086 
" style="fill:none;stroke:#000080;stroke-linecap:square;stroke-width:0.5;"/>
   </g>
   <g id="patch_3">
    <path d="M 57.6 307.584 
L 57.6 41.472 
" style="fill:none;stroke:#000000;stroke-linecap:square;stroke-linejoin:miter;stroke-width:0.8;"/>
   </g>
   <g id="patch_4">
    <path d="M 414.72 307.584 
L 414.72 41.472 
" style="fill:none;stroke:#000000;stroke-linecap:square;stroke-linejoin:miter;stroke-width:0.8;"/>
   </g>
   <g id="patch_5">
    <path d="M 57.6 307.584 
L 414.72 307.584 
" style="fill:none;stroke:#000000;stroke-linecap:square;stroke-linejoin:miter;stroke-width:0.8;"/>
   </g>
   <g id="patch_6">
    <path d="M 57.6 41.472 
L 414.72 41.472 
" style="fill:none;stroke:#000000;stroke-linecap:square;stroke-linejoin:miter;stroke-width:0.8;"/>
   </g>
   <g id="text_17">
    <!-- Test -->
    <defs>
     <path d="M -0.296875 72.90625 
L 61.375 72.90625 
L 61.375 64.59375 
L 35.5 64.59375 
L 35.5 0 
L 25.59375 0 
L 25.59375 64.59375 
L -0.296875 64.59375 
z
" id="DejaVuSans-54"/>
    </defs>
    <g transform="translate(223.341563 35.472)scale(0.12 -0.12)">
     <use xlink:href="#DejaVuSans-54"/>
     <use x="60.818359" xlink:href="#DejaVuSans-65"/>
     <use x="122.341797" xlink:href="#DejaVuSans-73"/>
     <use x="174.441406" xlink:href="#DejaVuSans-74"/>
    </g>
   </g>
   <g id="legend_1">
    <g id="patch_7">
     <path d="M 64.6 64.150125 
L 306.276563 64.150125 
Q 308.276563 64.150125 308.276563 62.150125 
L 308.276563 48.472 
Q 308.276563 46.472 306.276563 46.472 
L 64.6 46.472 
Q 62.6 46.472 62.6 48.472 
L 62.6 62.150125 
Q 62.6 64.150125 64.6 64.150125 
z
" style="fill:#ffffff;opacity:0.8;stroke:#cccccc;stroke-linejoin:miter;"/>
    </g>
    <g id="line2d_30">
     <path d="M 66.6 54.570438 
L 86.6 54.570438 
" style="fill:none;stroke:#000080;stroke-linecap:square;stroke-width:0.5;"/>
    </g>
    <g id="line2d_31"/>
    <g id="text_18">
     <!-- Successful download requests per second -->
     <g transform="translate(94.6 58.070438)scale(0.1 -0.1)">
      <use xlink:href="#DejaVuSans-53"/>
      <use x="63.476562" xlink:href="#DejaVuSans-75"/>
      <use x="126.855469" xlink:href="#DejaVuSans-63"/>
      <use x="181.835938" xlink:href="#DejaVuSans-63"/>
      <use x="236.816406" xlink:href="#DejaVuSans-65"/>
      <use x="298.339844" xlink:href="#DejaVuSans-73"/>
      <use x="350.439453" xlink:href="#DejaVuSans-73"/>
      <use x="402.539062" xlink:href="#DejaVuSans-66"/>
      <use x="437.744141" xlink:href="#DejaVuSans-75"/>
      <use x="501.123047" xlink:href="#DejaVuSans-6c"/>
      <use x="528.90625" xlink:href="#DejaVuSans-20"/>
      <use x="560.693359" xlink:href="#DejaVuSans-64"/>
      <use x="624.169922" xlink:href="#DejaVuSans-6f"/>
      <use x="685.351562" xlink:href="#DejaVuSans-77"/>
      <use x="767.138672" xlink:href="#DejaVuSans-6e"/>
      <use x="830.517578" xlink:href="#DejaVuSans-6c"/>
      <use x="858.300781" xlink:href="#DejaVuSans-6f"/>
      <use x="919.482422" xlink:href="#DejaVuSans-61"/>
      <use x="980.761719" xlink:href="#DejaVuSans-64"/>
      <use x="1044.238281" xlink:href="#DejaVuSans-20"/>
      <use x="1076.025391" xlink:href="#DejaVuSans-72"/>
      <use x="1117.107422" xlink:href="#DejaVuSans-65"/>
      <use x="1178.630859" xlink:href="#DejaVuSans-71"/>
      <use x="1242.107422" xlink:href="#DejaVuSans-75"/>
      <use x="1305.486328" xlink:href="#DejaVuSans-65"/>
      <use x="1367.009766" xlink:href="#DejaVuSans-73"/>
      <use x="1419.109375" xlink:href="#DejaVuSans-74"/>
      <use x="1458.318359" xlink:href="#DejaVuSans-73"/>
      <use x="1510.417969" xlink:href="#DejaVuSans-20"/>
      <use x="1542.205078" xlink:href="#DejaVuSans-70"/>
      <use x="1605.681641" xlink:href="#DejaVuSans-65"/>
      <use x="1667.205078" xlink:href="#DejaVuSans-72"/>
      <use x="1708.318359" xlink:href="#DejaVuSans-20"/>
      <use x="1740.105469" xlink:href="#DejaVuSans-73"/>
      <use x="1792.205078" xlink:href="#DejaVuSans-65"/>
      <use x="1853.728516" xlink:href="#DejaVuSans-63"/>
      <use x="1908.708984" xlink:href="#DejaVuSans-6f"/>
      <use x="1969.890625" xlink:href="#DejaVuSans-6e"/>
      <use x="2033.269531" xlink:href="#DejaVuSans-64"/>
     </g>
    </g>
   </g>
  </g>
 </g>
 <defs>
  <clipPath id="p0827b3f3c8">
   <rect height="266.112" width="357.12" x="57.6" y="41.472"/>
  </clipPath>
 </defs>
</svg>
