<?xml version="1.0" encoding="utf-8" standalone="no"?>
<!DOCTYPE svg PUBLIC "-//W3C//DTD SVG 1.1//EN"
  "http://www.w3.org/Graphics/SVG/1.1/DTD/svg11.dtd">
<!-- Created with matplotlib (http://matplotlib.org/) -->
<svg height="345pt" version="1.1" viewBox="0 0 460 345" width="460pt" xmlns="http://www.w3.org/2000/svg" xmlns:xlink="http://www.w3.org/1999/xlink">
 <defs>
  <style type="text/css">
*{stroke-linecap:butt;stroke-linejoin:round;}
  </style>
 </defs>
 <g id="figure_1">
  <g id="patch_1">
   <path d="M 0 345.6 
L 460.8 345.6 
L 460.8 0 
L 0 0 
z
" style="fill:#ffffff;"/>
  </g>
  <g id="axes_1">
   <g id="patch_2">
    <path d="M 57.6 307.584 
L 414.72 307.584 
L 414.72 41.472 
L 57.6 41.472 
z
" style="fill:#ffffff;"/>
   </g>
   <g id="matplotlib.axis_1">
    <g id="xtick_1">
     <g id="line2d_1">
      <path clip-path="url(#p22c53fcf64)" d="M 57.6 307.584 
L 57.6 41.472 
" style="fill:none;stroke:#b0b0b0;stroke-linecap:square;stroke-width:0.8;"/>
     </g>
     <g id="line2d_2">
      <defs>
       <path d="M 0 0 
L 0 3.5 
" id="m267ced2705" style="stroke:#000000;stroke-width:0.8;"/>
      </defs>
      <g>
       <use style="stroke:#000000;stroke-width:0.8;" x="57.6" xlink:href="#m267ced2705" y="307.584"/>
      </g>
     </g>
     <g id="text_1">
      <!-- 0 -->
      <defs>
       <path d="M 31.78125 66.40625 
Q 24.171875 66.40625 20.328125 58.90625 
Q 16.5 51.421875 16.5 36.375 
Q 16.5 21.390625 20.328125 13.890625 
Q 24.171875 6.390625 31.78125 6.390625 
Q 39.453125 6.390625 43.28125 13.890625 
Q 47.125 21.390625 47.125 36.375 
Q 47.125 51.421875 43.28125 58.90625 
Q 39.453125 66.40625 31.78125 66.40625 
M 31.78125 74.21875 
Q 44.046875 74.21875 50.515625 64.515625 
Q 56.984375 54.828125 56.984375 36.375 
Q 56.984375 17.96875 50.515625 8.265625 
Q 44.046875 -1.421875 31.78125 -1.421875 
Q 19.53125 -1.421875 13.0625 8.265625 
Q 6.59375 17.96875 6.59375 36.375 
Q 6.59375 54.828125 13.0625 64.515625 
Q 19.53125 74.21875 31.78125 74.21875 
" id="DejaVuSans-30"/>
      </defs>
      <g transform="translate(54.41875 322.182437)scale(0.1 -0.1)">
       <use xlink:href="#DejaVuSans-30"/>
      </g>
     </g>
    </g>
    <g id="xtick_2">
     <g id="line2d_3">
      <path clip-path="url(#p22c53fcf64)" d="M 129.024 307.584 
L 129.024 41.472 
" style="fill:none;stroke:#b0b0b0;stroke-linecap:square;stroke-width:0.8;"/>
     </g>
     <g id="line2d_4">
      <g>
       <use style="stroke:#000000;stroke-width:0.8;" x="129.024" xlink:href="#m267ced2705" y="307.584"/>
      </g>
     </g>
     <g id="text_2">
      <!-- 200 -->
      <defs>
       <path d="M 19.1875 8.296875 
L 53.609375 8.296875 
L 53.609375 0 
L 7.328125 0 
L 7.328125 8.296875 
Q 12.9375 14.109375 22.625 23.890625 
Q 32.328125 33.6875 34.8125 36.53125 
Q 39.546875 41.84375 41.421875 45.53125 
Q 43.3125 49.21875 43.3125 52.78125 
Q 43.3125 58.59375 39.234375 62.25 
Q 35.15625 65.921875 28.609375 65.921875 
Q 23.96875 65.921875 18.8125 64.3125 
Q 13.671875 62.703125 7.8125 59.421875 
L 7.8125 69.390625 
Q 13.765625 71.78125 18.9375 73 
Q 24.125 74.21875 28.421875 74.21875 
Q 39.75 74.21875 46.484375 68.546875 
Q 53.21875 62.890625 53.21875 53.421875 
Q 53.21875 48.921875 51.53125 44.890625 
Q 49.859375 40.875 45.40625 35.40625 
Q 44.1875 33.984375 37.640625 27.21875 
Q 31.109375 20.453125 19.1875 8.296875 
" id="DejaVuSans-32"/>
      </defs>
      <g transform="translate(119.48025 322.182437)scale(0.1 -0.1)">
       <use xlink:href="#DejaVuSans-32"/>
       <use x="63.623047" xlink:href="#DejaVuSans-30"/>
       <use x="127.246094" xlink:href="#DejaVuSans-30"/>
      </g>
     </g>
    </g>
    <g id="xtick_3">
     <g id="line2d_5">
      <path clip-path="url(#p22c53fcf64)" d="M 200.448 307.584 
L 200.448 41.472 
" style="fill:none;stroke:#b0b0b0;stroke-linecap:square;stroke-width:0.8;"/>
     </g>
     <g id="line2d_6">
      <g>
       <use style="stroke:#000000;stroke-width:0.8;" x="200.448" xlink:href="#m267ced2705" y="307.584"/>
      </g>
     </g>
     <g id="text_3">
      <!-- 400 -->
      <defs>
       <path d="M 37.796875 64.3125 
L 12.890625 25.390625 
L 37.796875 25.390625 
z
M 35.203125 72.90625 
L 47.609375 72.90625 
L 47.609375 25.390625 
L 58.015625 25.390625 
L 58.015625 17.1875 
L 47.609375 17.1875 
L 47.609375 0 
L 37.796875 0 
L 37.796875 17.1875 
L 4.890625 17.1875 
L 4.890625 26.703125 
z
" id="DejaVuSans-34"/>
      </defs>
      <g transform="translate(190.90425 322.182437)scale(0.1 -0.1)">
       <use xlink:href="#DejaVuSans-34"/>
       <use x="63.623047" xlink:href="#DejaVuSans-30"/>
       <use x="127.246094" xlink:href="#DejaVuSans-30"/>
      </g>
     </g>
    </g>
    <g id="xtick_4">
     <g id="line2d_7">
      <path clip-path="url(#p22c53fcf64)" d="M 271.872 307.584 
L 271.872 41.472 
" style="fill:none;stroke:#b0b0b0;stroke-linecap:square;stroke-width:0.8;"/>
     </g>
     <g id="line2d_8">
      <g>
       <use style="stroke:#000000;stroke-width:0.8;" x="271.872" xlink:href="#m267ced2705" y="307.584"/>
      </g>
     </g>
     <g id="text_4">
      <!-- 600 -->
      <defs>
       <path d="M 33.015625 40.375 
Q 26.375 40.375 22.484375 35.828125 
Q 18.609375 31.296875 18.609375 23.390625 
Q 18.609375 15.53125 22.484375 10.953125 
Q 26.375 6.390625 33.015625 6.390625 
Q 39.65625 6.390625 43.53125 10.953125 
Q 47.40625 15.53125 47.40625 23.390625 
Q 47.40625 31.296875 43.53125 35.828125 
Q 39.65625 40.375 33.015625 40.375 
M 52.59375 71.296875 
L 52.59375 62.3125 
Q 48.875 64.0625 45.09375 64.984375 
Q 41.3125 65.921875 37.59375 65.921875 
Q 27.828125 65.921875 22.671875 59.328125 
Q 17.53125 52.734375 16.796875 39.40625 
Q 19.671875 43.65625 24.015625 45.921875 
Q 28.375 48.1875 33.59375 48.1875 
Q 44.578125 48.1875 50.953125 41.515625 
Q 57.328125 34.859375 57.328125 23.390625 
Q 57.328125 12.15625 50.6875 5.359375 
Q 44.046875 -1.421875 33.015625 -1.421875 
Q 20.359375 -1.421875 13.671875 8.265625 
Q 6.984375 17.96875 6.984375 36.375 
Q 6.984375 53.65625 15.1875 63.9375 
Q 23.390625 74.21875 37.203125 74.21875 
Q 40.921875 74.21875 44.703125 73.484375 
Q 48.484375 72.75 52.59375 71.296875 
" id="DejaVuSans-36"/>
      </defs>
      <g transform="translate(262.32825 322.182437)scale(0.1 -0.1)">
       <use xlink:href="#DejaVuSans-36"/>
       <use x="63.623047" xlink:href="#DejaVuSans-30"/>
       <use x="127.246094" xlink:href="#DejaVuSans-30"/>
      </g>
     </g>
    </g>
    <g id="xtick_5">
     <g id="line2d_9">
      <path clip-path="url(#p22c53fcf64)" d="M 343.296 307.584 
L 343.296 41.472 
" style="fill:none;stroke:#b0b0b0;stroke-linecap:square;stroke-width:0.8;"/>
     </g>
     <g id="line2d_10">
      <g>
       <use style="stroke:#000000;stroke-width:0.8;" x="343.296" xlink:href="#m267ced2705" y="307.584"/>
      </g>
     </g>
     <g id="text_5">
      <!-- 800 -->
      <defs>
       <path d="M 31.78125 34.625 
Q 24.75 34.625 20.71875 30.859375 
Q 16.703125 27.09375 16.703125 20.515625 
Q 16.703125 13.921875 20.71875 10.15625 
Q 24.75 6.390625 31.78125 6.390625 
Q 38.8125 6.390625 42.859375 10.171875 
Q 46.921875 13.96875 46.921875 20.515625 
Q 46.921875 27.09375 42.890625 30.859375 
Q 38.875 34.625 31.78125 34.625 
M 21.921875 38.8125 
Q 15.578125 40.375 12.03125 44.71875 
Q 8.5 49.078125 8.5 55.328125 
Q 8.5 64.0625 14.71875 69.140625 
Q 20.953125 74.21875 31.78125 74.21875 
Q 42.671875 74.21875 48.875 69.140625 
Q 55.078125 64.0625 55.078125 55.328125 
Q 55.078125 49.078125 51.53125 44.71875 
Q 48 40.375 41.703125 38.8125 
Q 48.828125 37.15625 52.796875 32.3125 
Q 56.78125 27.484375 56.78125 20.515625 
Q 56.78125 9.90625 50.3125 4.234375 
Q 43.84375 -1.421875 31.78125 -1.421875 
Q 19.734375 -1.421875 13.25 4.234375 
Q 6.78125 9.90625 6.78125 20.515625 
Q 6.78125 27.484375 10.78125 32.3125 
Q 14.796875 37.15625 21.921875 38.8125 
M 18.3125 54.390625 
Q 18.3125 48.734375 21.84375 45.5625 
Q 25.390625 42.390625 31.78125 42.390625 
Q 38.140625 42.390625 41.71875 45.5625 
Q 45.3125 48.734375 45.3125 54.390625 
Q 45.3125 60.0625 41.71875 63.234375 
Q 38.140625 66.40625 31.78125 66.40625 
Q 25.390625 66.40625 21.84375 63.234375 
Q 18.3125 60.0625 18.3125 54.390625 
" id="DejaVuSans-38"/>
      </defs>
      <g transform="translate(333.75225 322.182437)scale(0.1 -0.1)">
       <use xlink:href="#DejaVuSans-38"/>
       <use x="63.623047" xlink:href="#DejaVuSans-30"/>
       <use x="127.246094" xlink:href="#DejaVuSans-30"/>
      </g>
     </g>
    </g>
    <g id="xtick_6">
     <g id="line2d_11">
      <path clip-path="url(#p22c53fcf64)" d="M 414.72 307.584 
L 414.72 41.472 
" style="fill:none;stroke:#b0b0b0;stroke-linecap:square;stroke-width:0.8;"/>
     </g>
     <g id="line2d_12">
      <g>
       <use style="stroke:#000000;stroke-width:0.8;" x="414.72" xlink:href="#m267ced2705" y="307.584"/>
      </g>
     </g>
     <g id="text_6">
      <!-- 1000 -->
      <defs>
       <path d="M 12.40625 8.296875 
L 28.515625 8.296875 
L 28.515625 63.921875 
L 10.984375 60.40625 
L 10.984375 69.390625 
L 28.421875 72.90625 
L 38.28125 72.90625 
L 38.28125 8.296875 
L 54.390625 8.296875 
L 54.390625 0 
L 12.40625 0 
z
" id="DejaVuSans-31"/>
      </defs>
      <g transform="translate(401.995 322.182437)scale(0.1 -0.1)">
       <use xlink:href="#DejaVuSans-31"/>
       <use x="63.623047" xlink:href="#DejaVuSans-30"/>
       <use x="127.246094" xlink:href="#DejaVuSans-30"/>
       <use x="190.869141" xlink:href="#DejaVuSans-30"/>
      </g>
     </g>
    </g>
    <g id="text_7">
     <!-- Number of clients -->
     <defs>
      <path d="M 9.8125 72.90625 
L 23.09375 72.90625 
L 55.421875 11.921875 
L 55.421875 72.90625 
L 64.984375 72.90625 
L 64.984375 0 
L 51.703125 0 
L 19.390625 60.984375 
L 19.390625 0 
L 9.8125 0 
z
" id="DejaVuSans-4e"/>
      <path d="M 8.5 21.578125 
L 8.5 54.6875 
L 17.484375 54.6875 
L 17.484375 21.921875 
Q 17.484375 14.15625 20.5 10.265625 
Q 23.53125 6.390625 29.59375 6.390625 
Q 36.859375 6.390625 41.078125 11.03125 
Q 45.3125 15.671875 45.3125 23.6875 
L 45.3125 54.6875 
L 54.296875 54.6875 
L 54.296875 0 
L 45.3125 0 
L 45.3125 8.40625 
Q 42.046875 3.421875 37.71875 1 
Q 33.40625 -1.421875 27.6875 -1.421875 
Q 18.265625 -1.421875 13.375 4.4375 
Q 8.5 10.296875 8.5 21.578125 
M 31.109375 56 
z
" id="DejaVuSans-75"/>
      <path d="M 52 44.1875 
Q 55.375 50.25 60.0625 53.125 
Q 64.75 56 71.09375 56 
Q 79.640625 56 84.28125 50.015625 
Q 88.921875 44.046875 88.921875 33.015625 
L 88.921875 0 
L 79.890625 0 
L 79.890625 32.71875 
Q 79.890625 40.578125 77.09375 44.375 
Q 74.3125 48.1875 68.609375 48.1875 
Q 61.625 48.1875 57.5625 43.546875 
Q 53.515625 38.921875 53.515625 30.90625 
L 53.515625 0 
L 44.484375 0 
L 44.484375 32.71875 
Q 44.484375 40.625 41.703125 44.40625 
Q 38.921875 48.1875 33.109375 48.1875 
Q 26.21875 48.1875 22.15625 43.53125 
Q 18.109375 38.875 18.109375 30.90625 
L 18.109375 0 
L 9.078125 0 
L 9.078125 54.6875 
L 18.109375 54.6875 
L 18.109375 46.1875 
Q 21.1875 51.21875 25.484375 53.609375 
Q 29.78125 56 35.6875 56 
Q 41.65625 56 45.828125 52.96875 
Q 50 49.953125 52 44.1875 
" id="DejaVuSans-6d"/>
      <path d="M 48.6875 27.296875 
Q 48.6875 37.203125 44.609375 42.84375 
Q 40.53125 48.484375 33.40625 48.484375 
Q 26.265625 48.484375 22.1875 42.84375 
Q 18.109375 37.203125 18.109375 27.296875 
Q 18.109375 17.390625 22.1875 11.75 
Q 26.265625 6.109375 33.40625 6.109375 
Q 40.53125 6.109375 44.609375 11.75 
Q 48.6875 17.390625 48.6875 27.296875 
M 18.109375 46.390625 
Q 20.953125 51.265625 25.265625 53.625 
Q 29.59375 56 35.59375 56 
Q 45.5625 56 51.78125 48.09375 
Q 58.015625 40.1875 58.015625 27.296875 
Q 58.015625 14.40625 51.78125 6.484375 
Q 45.5625 -1.421875 35.59375 -1.421875 
Q 29.59375 -1.421875 25.265625 0.953125 
Q 20.953125 3.328125 18.109375 8.203125 
L 18.109375 0 
L 9.078125 0 
L 9.078125 75.984375 
L 18.109375 75.984375 
z
" id="DejaVuSans-62"/>
      <path d="M 56.203125 29.59375 
L 56.203125 25.203125 
L 14.890625 25.203125 
Q 15.484375 15.921875 20.484375 11.0625 
Q 25.484375 6.203125 34.421875 6.203125 
Q 39.59375 6.203125 44.453125 7.46875 
Q 49.3125 8.734375 54.109375 11.28125 
L 54.109375 2.78125 
Q 49.265625 0.734375 44.1875 -0.34375 
Q 39.109375 -1.421875 33.890625 -1.421875 
Q 20.796875 -1.421875 13.15625 6.1875 
Q 5.515625 13.8125 5.515625 26.8125 
Q 5.515625 40.234375 12.765625 48.109375 
Q 20.015625 56 32.328125 56 
Q 43.359375 56 49.78125 48.890625 
Q 56.203125 41.796875 56.203125 29.59375 
M 47.21875 32.234375 
Q 47.125 39.59375 43.09375 43.984375 
Q 39.0625 48.390625 32.421875 48.390625 
Q 24.90625 48.390625 20.390625 44.140625 
Q 15.875 39.890625 15.1875 32.171875 
z
" id="DejaVuSans-65"/>
      <path d="M 41.109375 46.296875 
Q 39.59375 47.171875 37.8125 47.578125 
Q 36.03125 48 33.890625 48 
Q 26.265625 48 22.1875 43.046875 
Q 18.109375 38.09375 18.109375 28.8125 
L 18.109375 0 
L 9.078125 0 
L 9.078125 54.6875 
L 18.109375 54.6875 
L 18.109375 46.1875 
Q 20.953125 51.171875 25.484375 53.578125 
Q 30.03125 56 36.53125 56 
Q 37.453125 56 38.578125 55.875 
Q 39.703125 55.765625 41.0625 55.515625 
z
" id="DejaVuSans-72"/>
      <path id="DejaVuSans-20"/>
      <path d="M 30.609375 48.390625 
Q 23.390625 48.390625 19.1875 42.75 
Q 14.984375 37.109375 14.984375 27.296875 
Q 14.984375 17.484375 19.15625 11.84375 
Q 23.34375 6.203125 30.609375 6.203125 
Q 37.796875 6.203125 41.984375 11.859375 
Q 46.1875 17.53125 46.1875 27.296875 
Q 46.1875 37.015625 41.984375 42.703125 
Q 37.796875 48.390625 30.609375 48.390625 
M 30.609375 56 
Q 42.328125 56 49.015625 48.375 
Q 55.71875 40.765625 55.71875 27.296875 
Q 55.71875 13.875 49.015625 6.21875 
Q 42.328125 -1.421875 30.609375 -1.421875 
Q 18.84375 -1.421875 12.171875 6.21875 
Q 5.515625 13.875 5.515625 27.296875 
Q 5.515625 40.765625 12.171875 48.375 
Q 18.84375 56 30.609375 56 
" id="DejaVuSans-6f"/>
      <path d="M 37.109375 75.984375 
L 37.109375 68.5 
L 28.515625 68.5 
Q 23.6875 68.5 21.796875 66.546875 
Q 19.921875 64.59375 19.921875 59.515625 
L 19.921875 54.6875 
L 34.71875 54.6875 
L 34.71875 47.703125 
L 19.921875 47.703125 
L 19.921875 0 
L 10.890625 0 
L 10.890625 47.703125 
L 2.296875 47.703125 
L 2.296875 54.6875 
L 10.890625 54.6875 
L 10.890625 58.5 
Q 10.890625 67.625 15.140625 71.796875 
Q 19.390625 75.984375 28.609375 75.984375 
z
" id="DejaVuSans-66"/>
      <path d="M 48.78125 52.59375 
L 48.78125 44.1875 
Q 44.96875 46.296875 41.140625 47.34375 
Q 37.3125 48.390625 33.40625 48.390625 
Q 24.65625 48.390625 19.8125 42.84375 
Q 14.984375 37.3125 14.984375 27.296875 
Q 14.984375 17.28125 19.8125 11.734375 
Q 24.65625 6.203125 33.40625 6.203125 
Q 37.3125 6.203125 41.140625 7.25 
Q 44.96875 8.296875 48.78125 10.40625 
L 48.78125 2.09375 
Q 45.015625 0.34375 40.984375 -0.53125 
Q 36.96875 -1.421875 32.421875 -1.421875 
Q 20.0625 -1.421875 12.78125 6.34375 
Q 5.515625 14.109375 5.515625 27.296875 
Q 5.515625 40.671875 12.859375 48.328125 
Q 20.21875 56 33.015625 56 
Q 37.15625 56 41.109375 55.140625 
Q 45.0625 54.296875 48.78125 52.59375 
" id="DejaVuSans-63"/>
      <path d="M 9.421875 75.984375 
L 18.40625 75.984375 
L 18.40625 0 
L 9.421875 0 
z
" id="DejaVuSans-6c"/>
      <path d="M 9.421875 54.6875 
L 18.40625 54.6875 
L 18.40625 0 
L 9.421875 0 
z
M 9.421875 75.984375 
L 18.40625 75.984375 
L 18.40625 64.59375 
L 9.421875 64.59375 
z
" id="DejaVuSans-69"/>
      <path d="M 54.890625 33.015625 
L 54.890625 0 
L 45.90625 0 
L 45.90625 32.71875 
Q 45.90625 40.484375 42.875 44.328125 
Q 39.84375 48.1875 33.796875 48.1875 
Q 26.515625 48.1875 22.3125 43.546875 
Q 18.109375 38.921875 18.109375 30.90625 
L 18.109375 0 
L 9.078125 0 
L 9.078125 54.6875 
L 18.109375 54.6875 
L 18.109375 46.1875 
Q 21.34375 51.125 25.703125 53.5625 
Q 30.078125 56 35.796875 56 
Q 45.21875 56 50.046875 50.171875 
Q 54.890625 44.34375 54.890625 33.015625 
" id="DejaVuSans-6e"/>
      <path d="M 18.3125 70.21875 
L 18.3125 54.6875 
L 36.8125 54.6875 
L 36.8125 47.703125 
L 18.3125 47.703125 
L 18.3125 18.015625 
Q 18.3125 11.328125 20.140625 9.421875 
Q 21.96875 7.515625 27.59375 7.515625 
L 36.8125 7.515625 
L 36.8125 0 
L 27.59375 0 
Q 17.1875 0 13.234375 3.875 
Q 9.28125 7.765625 9.28125 18.015625 
L 9.28125 47.703125 
L 2.6875 47.703125 
L 2.6875 54.6875 
L 9.28125 54.6875 
L 9.28125 70.21875 
z
" id="DejaVuSans-74"/>
      <path d="M 44.28125 53.078125 
L 44.28125 44.578125 
Q 40.484375 46.53125 36.375 47.5 
Q 32.28125 48.484375 27.875 48.484375 
Q 21.1875 48.484375 17.84375 46.4375 
Q 14.5 44.390625 14.5 40.28125 
Q 14.5 37.15625 16.890625 35.375 
Q 19.28125 33.59375 26.515625 31.984375 
L 29.59375 31.296875 
Q 39.15625 29.25 43.1875 25.515625 
Q 47.21875 21.78125 47.21875 15.09375 
Q 47.21875 7.46875 41.1875 3.015625 
Q 35.15625 -1.421875 24.609375 -1.421875 
Q 20.21875 -1.421875 15.453125 -0.5625 
Q 10.6875 0.296875 5.421875 2 
L 5.421875 11.28125 
Q 10.40625 8.6875 15.234375 7.390625 
Q 20.0625 6.109375 24.8125 6.109375 
Q 31.15625 6.109375 34.5625 8.28125 
Q 37.984375 10.453125 37.984375 14.40625 
Q 37.984375 18.0625 35.515625 20.015625 
Q 33.0625 21.96875 24.703125 23.78125 
L 21.578125 24.515625 
Q 13.234375 26.265625 9.515625 29.90625 
Q 5.8125 33.546875 5.8125 39.890625 
Q 5.8125 47.609375 11.28125 51.796875 
Q 16.75 56 26.8125 56 
Q 31.78125 56 36.171875 55.265625 
Q 40.578125 54.546875 44.28125 53.078125 
" id="DejaVuSans-73"/>
     </defs>
     <g transform="translate(191.738906 335.860562)scale(0.1 -0.1)">
      <use xlink:href="#DejaVuSans-4e"/>
      <use x="74.804688" xlink:href="#DejaVuSans-75"/>
      <use x="138.183594" xlink:href="#DejaVuSans-6d"/>
      <use x="235.595703" xlink:href="#DejaVuSans-62"/>
      <use x="299.072266" xlink:href="#DejaVuSans-65"/>
      <use x="360.595703" xlink:href="#DejaVuSans-72"/>
      <use x="401.708984" xlink:href="#DejaVuSans-20"/>
      <use x="433.496094" xlink:href="#DejaVuSans-6f"/>
      <use x="494.677734" xlink:href="#DejaVuSans-66"/>
      <use x="529.882812" xlink:href="#DejaVuSans-20"/>
      <use x="561.669922" xlink:href="#DejaVuSans-63"/>
      <use x="616.650391" xlink:href="#DejaVuSans-6c"/>
      <use x="644.433594" xlink:href="#DejaVuSans-69"/>
      <use x="672.216797" xlink:href="#DejaVuSans-65"/>
      <use x="733.740234" xlink:href="#DejaVuSans-6e"/>
      <use x="797.119141" xlink:href="#DejaVuSans-74"/>
      <use x="836.328125" xlink:href="#DejaVuSans-73"/>
     </g>
    </g>
   </g>
   <g id="matplotlib.axis_2">
    <g id="ytick_1">
     <g id="line2d_13">
      <path clip-path="url(#p22c53fcf64)" d="M 57.6 296.019744 
L 414.72 296.019744 
" style="fill:none;stroke:#b0b0b0;stroke-linecap:square;stroke-width:0.8;"/>
     </g>
     <g id="line2d_14">
      <defs>
       <path d="M 0 0 
L -3.5 0 
" id="m17ff18d711" style="stroke:#000000;stroke-width:0.8;"/>
      </defs>
      <g>
       <use style="stroke:#000000;stroke-width:0.8;" x="57.6" xlink:href="#m17ff18d711" y="296.019744"/>
      </g>
     </g>
     <g id="text_8">
      <!-- 0 -->
      <g transform="translate(44.2375 299.818963)scale(0.1 -0.1)">
       <use xlink:href="#DejaVuSans-30"/>
      </g>
     </g>
    </g>
    <g id="ytick_2">
     <g id="line2d_15">
      <path clip-path="url(#p22c53fcf64)" d="M 57.6 240.105557 
L 414.72 240.105557 
" style="fill:none;stroke:#b0b0b0;stroke-linecap:square;stroke-width:0.8;"/>
     </g>
     <g id="line2d_16">
      <g>
       <use style="stroke:#000000;stroke-width:0.8;" x="57.6" xlink:href="#m17ff18d711" y="240.105557"/>
      </g>
     </g>
     <g id="text_9">
      <!-- 100 -->
      <g transform="translate(31.5125 243.904775)scale(0.1 -0.1)">
       <use xlink:href="#DejaVuSans-31"/>
       <use x="63.623047" xlink:href="#DejaVuSans-30"/>
       <use x="127.246094" xlink:href="#DejaVuSans-30"/>
      </g>
     </g>
    </g>
    <g id="ytick_3">
     <g id="line2d_17">
      <path clip-path="url(#p22c53fcf64)" d="M 57.6 184.191369 
L 414.72 184.191369 
" style="fill:none;stroke:#b0b0b0;stroke-linecap:square;stroke-width:0.8;"/>
     </g>
     <g id="line2d_18">
      <g>
       <use style="stroke:#000000;stroke-width:0.8;" x="57.6" xlink:href="#m17ff18d711" y="184.191369"/>
      </g>
     </g>
     <g id="text_10">
      <!-- 200 -->
      <g transform="translate(31.5125 187.990588)scale(0.1 -0.1)">
       <use xlink:href="#DejaVuSans-32"/>
       <use x="63.623047" xlink:href="#DejaVuSans-30"/>
       <use x="127.246094" xlink:href="#DejaVuSans-30"/>
      </g>
     </g>
    </g>
    <g id="ytick_4">
     <g id="line2d_19">
      <path clip-path="url(#p22c53fcf64)" d="M 57.6 128.277182 
L 414.72 128.277182 
" style="fill:none;stroke:#b0b0b0;stroke-linecap:square;stroke-width:0.8;"/>
     </g>
     <g id="line2d_20">
      <g>
       <use style="stroke:#000000;stroke-width:0.8;" x="57.6" xlink:href="#m17ff18d711" y="128.277182"/>
      </g>
     </g>
     <g id="text_11">
      <!-- 300 -->
      <defs>
       <path d="M 40.578125 39.3125 
Q 47.65625 37.796875 51.625 33 
Q 55.609375 28.21875 55.609375 21.1875 
Q 55.609375 10.40625 48.1875 4.484375 
Q 40.765625 -1.421875 27.09375 -1.421875 
Q 22.515625 -1.421875 17.65625 -0.515625 
Q 12.796875 0.390625 7.625 2.203125 
L 7.625 11.71875 
Q 11.71875 9.328125 16.59375 8.109375 
Q 21.484375 6.890625 26.8125 6.890625 
Q 36.078125 6.890625 40.9375 10.546875 
Q 45.796875 14.203125 45.796875 21.1875 
Q 45.796875 27.640625 41.28125 31.265625 
Q 36.765625 34.90625 28.71875 34.90625 
L 20.21875 34.90625 
L 20.21875 43.015625 
L 29.109375 43.015625 
Q 36.375 43.015625 40.234375 45.921875 
Q 44.09375 48.828125 44.09375 54.296875 
Q 44.09375 59.90625 40.109375 62.90625 
Q 36.140625 65.921875 28.71875 65.921875 
Q 24.65625 65.921875 20.015625 65.03125 
Q 15.375 64.15625 9.8125 62.3125 
L 9.8125 71.09375 
Q 15.4375 72.65625 20.34375 73.4375 
Q 25.25 74.21875 29.59375 74.21875 
Q 40.828125 74.21875 47.359375 69.109375 
Q 53.90625 64.015625 53.90625 55.328125 
Q 53.90625 49.265625 50.4375 45.09375 
Q 46.96875 40.921875 40.578125 39.3125 
" id="DejaVuSans-33"/>
      </defs>
      <g transform="translate(31.5125 132.076401)scale(0.1 -0.1)">
       <use xlink:href="#DejaVuSans-33"/>
       <use x="63.623047" xlink:href="#DejaVuSans-30"/>
       <use x="127.246094" xlink:href="#DejaVuSans-30"/>
      </g>
     </g>
    </g>
    <g id="ytick_5">
     <g id="line2d_21">
      <path clip-path="url(#p22c53fcf64)" d="M 57.6 72.362995 
L 414.72 72.362995 
" style="fill:none;stroke:#b0b0b0;stroke-linecap:square;stroke-width:0.8;"/>
     </g>
     <g id="line2d_22">
      <g>
       <use style="stroke:#000000;stroke-width:0.8;" x="57.6" xlink:href="#m17ff18d711" y="72.362995"/>
      </g>
     </g>
     <g id="text_12">
      <!-- 400 -->
      <g transform="translate(31.5125 76.162214)scale(0.1 -0.1)">
       <use xlink:href="#DejaVuSans-34"/>
       <use x="63.623047" xlink:href="#DejaVuSans-30"/>
       <use x="127.246094" xlink:href="#DejaVuSans-30"/>
      </g>
     </g>
    </g>
    <g id="text_13">
     <!-- Successful download requests per second -->
     <defs>
      <path d="M 53.515625 70.515625 
L 53.515625 60.890625 
Q 47.90625 63.578125 42.921875 64.890625 
Q 37.9375 66.21875 33.296875 66.21875 
Q 25.25 66.21875 20.875 63.09375 
Q 16.5 59.96875 16.5 54.203125 
Q 16.5 49.359375 19.40625 46.890625 
Q 22.3125 44.4375 30.421875 42.921875 
L 36.375 41.703125 
Q 47.40625 39.59375 52.65625 34.296875 
Q 57.90625 29 57.90625 20.125 
Q 57.90625 9.515625 50.796875 4.046875 
Q 43.703125 -1.421875 29.984375 -1.421875 
Q 24.8125 -1.421875 18.96875 -0.25 
Q 13.140625 0.921875 6.890625 3.21875 
L 6.890625 13.375 
Q 12.890625 10.015625 18.65625 8.296875 
Q 24.421875 6.59375 29.984375 6.59375 
Q 38.421875 6.59375 43.015625 9.90625 
Q 47.609375 13.234375 47.609375 19.390625 
Q 47.609375 24.75 44.3125 27.78125 
Q 41.015625 30.8125 33.5 32.328125 
L 27.484375 33.5 
Q 16.453125 35.6875 11.515625 40.375 
Q 6.59375 45.0625 6.59375 53.421875 
Q 6.59375 63.09375 13.40625 68.65625 
Q 20.21875 74.21875 32.171875 74.21875 
Q 37.3125 74.21875 42.625 73.28125 
Q 47.953125 72.359375 53.515625 70.515625 
" id="DejaVuSans-53"/>
      <path d="M 45.40625 46.390625 
L 45.40625 75.984375 
L 54.390625 75.984375 
L 54.390625 0 
L 45.40625 0 
L 45.40625 8.203125 
Q 42.578125 3.328125 38.25 0.953125 
Q 33.9375 -1.421875 27.875 -1.421875 
Q 17.96875 -1.421875 11.734375 6.484375 
Q 5.515625 14.40625 5.515625 27.296875 
Q 5.515625 40.1875 11.734375 48.09375 
Q 17.96875 56 27.875 56 
Q 33.9375 56 38.25 53.625 
Q 42.578125 51.265625 45.40625 46.390625 
M 14.796875 27.296875 
Q 14.796875 17.390625 18.875 11.75 
Q 22.953125 6.109375 30.078125 6.109375 
Q 37.203125 6.109375 41.296875 11.75 
Q 45.40625 17.390625 45.40625 27.296875 
Q 45.40625 37.203125 41.296875 42.84375 
Q 37.203125 48.484375 30.078125 48.484375 
Q 22.953125 48.484375 18.875 42.84375 
Q 14.796875 37.203125 14.796875 27.296875 
" id="DejaVuSans-64"/>
      <path d="M 4.203125 54.6875 
L 13.1875 54.6875 
L 24.421875 12.015625 
L 35.59375 54.6875 
L 46.1875 54.6875 
L 57.421875 12.015625 
L 68.609375 54.6875 
L 77.59375 54.6875 
L 63.28125 0 
L 52.6875 0 
L 40.921875 44.828125 
L 29.109375 0 
L 18.5 0 
z
" id="DejaVuSans-77"/>
      <path d="M 34.28125 27.484375 
Q 23.390625 27.484375 19.1875 25 
Q 14.984375 22.515625 14.984375 16.5 
Q 14.984375 11.71875 18.140625 8.90625 
Q 21.296875 6.109375 26.703125 6.109375 
Q 34.1875 6.109375 38.703125 11.40625 
Q 43.21875 16.703125 43.21875 25.484375 
L 43.21875 27.484375 
z
M 52.203125 31.203125 
L 52.203125 0 
L 43.21875 0 
L 43.21875 8.296875 
Q 40.140625 3.328125 35.546875 0.953125 
Q 30.953125 -1.421875 24.3125 -1.421875 
Q 15.921875 -1.421875 10.953125 3.296875 
Q 6 8.015625 6 15.921875 
Q 6 25.140625 12.171875 29.828125 
Q 18.359375 34.515625 30.609375 34.515625 
L 43.21875 34.515625 
L 43.21875 35.40625 
Q 43.21875 41.609375 39.140625 45 
Q 35.0625 48.390625 27.6875 48.390625 
Q 23 48.390625 18.546875 47.265625 
Q 14.109375 46.140625 10.015625 43.890625 
L 10.015625 52.203125 
Q 14.9375 54.109375 19.578125 55.046875 
Q 24.21875 56 28.609375 56 
Q 40.484375 56 46.34375 49.84375 
Q 52.203125 43.703125 52.203125 31.203125 
" id="DejaVuSans-61"/>
      <path d="M 14.796875 27.296875 
Q 14.796875 17.390625 18.875 11.75 
Q 22.953125 6.109375 30.078125 6.109375 
Q 37.203125 6.109375 41.296875 11.75 
Q 45.40625 17.390625 45.40625 27.296875 
Q 45.40625 37.203125 41.296875 42.84375 
Q 37.203125 48.484375 30.078125 48.484375 
Q 22.953125 48.484375 18.875 42.84375 
Q 14.796875 37.203125 14.796875 27.296875 
M 45.40625 8.203125 
Q 42.578125 3.328125 38.25 0.953125 
Q 33.9375 -1.421875 27.875 -1.421875 
Q 17.96875 -1.421875 11.734375 6.484375 
Q 5.515625 14.40625 5.515625 27.296875 
Q 5.515625 40.1875 11.734375 48.09375 
Q 17.96875 56 27.875 56 
Q 33.9375 56 38.25 53.625 
Q 42.578125 51.265625 45.40625 46.390625 
L 45.40625 54.6875 
L 54.390625 54.6875 
L 54.390625 -20.796875 
L 45.40625 -20.796875 
z
" id="DejaVuSans-71"/>
      <path d="M 18.109375 8.203125 
L 18.109375 -20.796875 
L 9.078125 -20.796875 
L 9.078125 54.6875 
L 18.109375 54.6875 
L 18.109375 46.390625 
Q 20.953125 51.265625 25.265625 53.625 
Q 29.59375 56 35.59375 56 
Q 45.5625 56 51.78125 48.09375 
Q 58.015625 40.1875 58.015625 27.296875 
Q 58.015625 14.40625 51.78125 6.484375 
Q 45.5625 -1.421875 35.59375 -1.421875 
Q 29.59375 -1.421875 25.265625 0.953125 
Q 20.953125 3.328125 18.109375 8.203125 
M 48.6875 27.296875 
Q 48.6875 37.203125 44.609375 42.84375 
Q 40.53125 48.484375 33.40625 48.484375 
Q 26.265625 48.484375 22.1875 42.84375 
Q 18.109375 37.203125 18.109375 27.296875 
Q 18.109375 17.390625 22.1875 11.75 
Q 26.265625 6.109375 33.40625 6.109375 
Q 40.53125 6.109375 44.609375 11.75 
Q 48.6875 17.390625 48.6875 27.296875 
" id="DejaVuSans-70"/>
     </defs>
     <g transform="translate(25.432812 279.366281)rotate(-90)scale(0.1 -0.1)">
      <use xlink:href="#DejaVuSans-53"/>
      <use x="63.476562" xlink:href="#DejaVuSans-75"/>
      <use x="126.855469" xlink:href="#DejaVuSans-63"/>
      <use x="181.835938" xlink:href="#DejaVuSans-63"/>
      <use x="236.816406" xlink:href="#DejaVuSans-65"/>
      <use x="298.339844" xlink:href="#DejaVuSans-73"/>
      <use x="350.439453" xlink:href="#DejaVuSans-73"/>
      <use x="402.539062" xlink:href="#DejaVuSans-66"/>
      <use x="437.744141" xlink:href="#DejaVuSans-75"/>
      <use x="501.123047" xlink:href="#DejaVuSans-6c"/>
      <use x="528.90625" xlink:href="#DejaVuSans-20"/>
      <use x="560.693359" xlink:href="#DejaVuSans-64"/>
      <use x="624.169922" xlink:href="#DejaVuSans-6f"/>
      <use x="685.351562" xlink:href="#DejaVuSans-77"/>
      <use x="767.138672" xlink:href="#DejaVuSans-6e"/>
      <use x="830.517578" xlink:href="#DejaVuSans-6c"/>
      <use x="858.300781" xlink:href="#DejaVuSans-6f"/>
      <use x="919.482422" xlink:href="#DejaVuSans-61"/>
      <use x="980.761719" xlink:href="#DejaVuSans-64"/>
      <use x="1044.238281" xlink:href="#DejaVuSans-20"/>
      <use x="1076.025391" xlink:href="#DejaVuSans-72"/>
      <use x="1117.107422" xlink:href="#DejaVuSans-65"/>
      <use x="1178.630859" xlink:href="#DejaVuSans-71"/>
      <use x="1242.107422" xlink:href="#DejaVuSans-75"/>
      <use x="1305.486328" xlink:href="#DejaVuSans-65"/>
      <use x="1367.009766" xlink:href="#DejaVuSans-73"/>
      <use x="1419.109375" xlink:href="#DejaVuSans-74"/>
      <use x="1458.318359" xlink:href="#DejaVuSans-73"/>
      <use x="1510.417969" xlink:href="#DejaVuSans-20"/>
      <use x="1542.205078" xlink:href="#DejaVuSans-70"/>
      <use x="1605.681641" xlink:href="#DejaVuSans-65"/>
      <use x="1667.205078" xlink:href="#DejaVuSans-72"/>
      <use x="1708.318359" xlink:href="#DejaVuSans-20"/>
      <use x="1740.105469" xlink:href="#DejaVuSans-73"/>
      <use x="1792.205078" xlink:href="#DejaVuSans-65"/>
      <use x="1853.728516" xlink:href="#DejaVuSans-63"/>
      <use x="1908.708984" xlink:href="#DejaVuSans-6f"/>
      <use x="1969.890625" xlink:href="#DejaVuSans-6e"/>
      <use x="2033.269531" xlink:href="#DejaVuSans-64"/>
     </g>
    </g>
   </g>
   <g id="line2d_23">
    <path clip-path="url(#p22c53fcf64)" d="M 57.6 295.488 
L 57.95712 295.470667 
L 60.09984 292.21702 
L 60.45696 291.575125 
L 61.1712 290.7968 
L 61.52832 290.031894 
L 62.24256 289.255246 
L 62.59968 288.401995 
L 62.9568 288.099499 
L 63.31392 287.191453 
L 63.67104 286.975624 
L 64.38528 285.416177 
L 64.7424 285.275274 
L 65.09952 284.375614 
L 65.45664 284.366109 
L 65.81376 283.767268 
L 66.17088 282.906749 
L 66.528 282.713286 
L 66.88512 282.225155 
L 67.24224 280.992806 
L 67.59936 281.182355 
L 67.95648 280.461621 
L 68.3136 280.175341 
L 68.67072 279.195724 
L 69.02784 279.003938 
L 69.38496 277.640191 
L 69.74208 277.485309 
L 70.0992 277.746988 
L 70.81344 275.85597 
L 71.17056 275.79726 
L 71.52768 274.401083 
L 71.8848 274.378717 
L 72.24192 274.496137 
L 72.59904 273.014411 
L 73.31328 271.746277 
L 73.6704 272.156687 
L 74.02752 270.678875 
L 74.38464 269.817237 
L 74.74176 270.679993 
L 75.09888 270.261755 
L 75.456 268.432243 
L 75.81312 268.842653 
L 76.17024 267.500154 
L 76.52736 267.0657 
L 76.88448 266.403117 
L 77.59872 266.678215 
L 77.95584 265.139457 
L 78.31296 264.722337 
L 78.67008 264.882251 
L 79.0272 262.995148 
L 79.38432 263.167922 
L 79.74144 262.682587 
L 80.09856 262.862631 
L 80.45568 261.436819 
L 80.8128 261.672777 
L 81.16992 261.467013 
L 81.52704 259.228768 
L 81.88416 260.220686 
L 82.24128 257.503815 
L 82.5984 258.937455 
L 82.95552 256.907211 
L 83.31264 257.452374 
L 83.66976 256.573962 
L 84.02688 256.369316 
L 84.384 256.676285 
L 84.74112 254.973698 
L 85.09824 255.765443 
L 85.45536 254.07963 
L 85.81248 254.138899 
L 86.1696 251.423147 
L 86.52672 251.385685 
L 86.88384 252.352441 
L 87.24096 250.682843 
L 87.59808 250.294799 
L 87.9552 248.649244 
L 88.31232 248.903095 
L 88.66944 249.921292 
L 89.02656 247.703736 
L 89.38368 247.374401 
L 89.7408 249.061332 
L 90.09792 247.06855 
L 90.45504 246.95169 
L 90.81216 247.33582 
L 91.5264 243.648839 
L 91.88352 243.375418 
L 92.24064 244.740284 
L 92.59776 243.168536 
L 92.95488 243.865227 
L 93.312 241.334551 
L 93.66912 240.107793 
L 94.02624 242.185005 
L 94.38336 240.540569 
L 95.0976 241.070076 
L 95.45472 237.119739 
L 95.81184 239.420608 
L 96.16896 237.695096 
L 96.52608 235.295259 
L 96.8832 237.691741 
L 97.24032 233.998609 
L 97.95456 236.529844 
L 98.31168 234.704805 
L 98.6688 235.251646 
L 99.02592 231.6586 
L 99.38304 231.231975 
L 99.74016 233.578694 
L 100.81152 231.370642 
L 101.52576 227.972178 
L 101.88288 227.142411 
L 102.24 229.747453 
L 102.59712 227.491316 
L 102.95424 226.415527 
L 103.31136 227.575746 
L 103.66848 224.223691 
L 104.0256 226.572646 
L 104.38272 222.951643 
L 104.73984 222.807385 
L 105.09696 225.516427 
L 105.45408 222.033532 
L 105.8112 222.992461 
L 106.88256 221.958607 
L 107.23968 223.538183 
L 107.5968 218.14526 
L 107.95392 220.977872 
L 108.31104 217.505042 
L 108.66816 216.258156 
L 109.02528 219.865739 
L 109.3824 218.570767 
L 109.73952 215.002323 
L 110.09664 219.147801 
L 110.45376 216.192177 
L 110.81088 217.303192 
L 111.168 216.827921 
L 111.52512 215.330539 
L 111.88224 214.707096 
L 112.23936 213.67492 
L 112.59648 213.781716 
L 112.9536 210.687425 
L 113.31072 212.811046 
L 114.02496 208.021437 
L 114.38208 207.253176 
L 114.7392 210.226692 
L 115.09632 207.67421 
L 115.45344 208.755031 
L 115.81056 205.281642 
L 116.16768 207.992362 
L 116.5248 204.348993 
L 116.88192 208.114254 
L 117.23904 205.113899 
L 117.59616 207.384015 
L 117.95328 201.703134 
L 118.3104 206.634765 
L 119.02464 201.483391 
L 119.38176 205.321341 
L 119.73888 199.082995 
L 120.096 203.471699 
L 120.81024 198.471853 
L 121.16736 198.178303 
L 121.52448 198.133013 
L 121.8816 196.81847 
L 122.23872 196.387931 
L 122.59584 196.998514 
L 122.95296 194.928571 
L 123.31008 195.895886 
L 123.6672 199.725449 
L 124.02432 197.355806 
L 124.38144 192.01656 
L 124.73856 196.618298 
L 125.09568 192.176474 
L 125.4528 192.571229 
L 126.16704 190.588512 
L 126.52416 193.053209 
L 126.88128 194.615451 
L 127.2384 194.260396 
L 127.95264 186.346861 
L 128.30976 185.914086 
L 128.66688 187.118477 
L 129.024 191.119137 
L 129.38112 186.724282 
L 129.73824 186.504539 
L 130.09536 185.612708 
L 130.8096 188.568891 
L 131.16672 182.803579 
L 131.52384 181.047315 
L 131.88096 187.313618 
L 132.23808 180.03415 
L 132.5952 186.276969 
L 132.95232 186.043247 
L 133.30944 185.671418 
L 133.66656 181.991146 
L 134.02368 180.442323 
L 134.3808 182.620181 
L 134.73792 182.482073 
L 135.09504 176.664761 
L 135.45216 178.862188 
L 135.80928 175.487767 
L 136.1664 173.5509 
L 136.52352 177.526957 
L 136.88064 171.959582 
L 137.23776 172.649004 
L 137.59488 177.636549 
L 137.952 174.97727 
L 138.30912 170.865341 
L 138.66624 174.149741 
L 139.02336 173.756105 
L 139.38048 174.698259 
L 139.7376 169.082797 
L 140.09472 168.892129 
L 140.45184 174.198945 
L 140.80896 166.03156 
L 141.16608 165.253793 
L 141.5232 167.169413 
L 141.88032 164.819899 
L 142.23744 165.247084 
L 142.59456 167.322059 
L 142.95168 171.205859 
L 143.3088 164.81263 
L 144.02304 164.629791 
L 144.38016 161.290596 
L 144.73728 166.628164 
L 145.0944 165.881151 
L 145.45152 166.851821 
L 145.80864 166.552121 
L 146.16576 160.353474 
L 146.52288 167.157671 
L 146.88 161.638941 
L 147.23712 167.0738 
L 147.59424 159.109383 
L 147.95136 167.071564 
L 148.30848 160.767239 
L 148.6656 161.390682 
L 149.02272 160.973562 
L 149.37984 161.263198 
L 149.73696 162.661052 
L 150.09408 157.642754 
L 150.4512 164.433532 
L 150.80832 159.208911 
L 151.52256 165.819086 
L 151.87968 162.621353 
L 152.2368 165.598225 
L 152.59392 159.383922 
L 152.95104 157.502969 
L 153.30816 160.154419 
L 153.66528 159.3979 
L 154.0224 157.887099 
L 154.37952 154.85655 
L 154.73664 155.76907 
L 155.09376 159.569557 
L 155.45088 160.186291 
L 155.808 154.221365 
L 156.16512 155.762919 
L 156.52224 156.15991 
L 156.87936 155.797586 
L 157.23648 153.005231 
L 157.5936 160.523453 
L 157.95072 154.237021 
L 158.30784 154.852636 
L 158.66496 152.91521 
L 159.02208 159.928526 
L 159.3792 153.606309 
L 159.73632 158.767188 
L 160.09344 157.285463 
L 160.45056 150.944235 
L 160.80768 158.952264 
L 161.1648 159.908397 
L 161.52192 154.373452 
L 161.87904 156.710665 
L 162.23616 152.644585 
L 162.59328 155.62537 
L 162.9504 154.016719 
L 163.30752 155.495649 
L 163.66464 158.445682 
L 164.02176 154.667001 
L 164.37888 158.040863 
L 164.736 156.802364 
L 165.09312 153.464287 
L 165.45024 148.672441 
L 165.80736 151.978088 
L 166.16448 150.310727 
L 166.5216 152.366691 
L 166.87872 153.750008 
L 167.23584 156.468556 
L 167.59296 153.145017 
L 167.95008 151.587807 
L 168.3072 147.54577 
L 168.66432 145.799011 
L 169.02144 155.764037 
L 169.37856 145.293547 
L 169.73568 145.051438 
L 170.44992 154.918615 
L 170.80704 152.451681 
L 171.16416 148.224009 
L 171.52128 150.129565 
L 171.8784 146.913381 
L 172.23552 145.10903 
L 172.59264 153.307168 
L 172.94976 152.632284 
L 173.30688 153.393276 
L 173.664 152.729575 
L 174.02112 149.216486 
L 174.37824 148.460526 
L 174.73536 144.330704 
L 175.09248 146.741165 
L 175.4496 146.241292 
L 175.80672 147.905298 
L 176.16384 147.309812 
L 176.52096 151.530774 
L 176.87808 141.153101 
L 177.2352 141.14751 
L 177.59232 148.799366 
L 178.30656 142.009707 
L 178.66368 146.360389 
L 179.0208 148.763581 
L 179.37792 140.420625 
L 179.73504 144.810448 
L 180.09216 145.036342 
L 180.44928 147.607276 
L 180.8064 144.401715 
L 181.16352 142.987087 
L 181.52064 147.069381 
L 181.87776 146.419099 
L 182.23488 144.616426 
L 182.592 141.169875 
L 182.94912 139.879376 
L 183.30624 143.409798 
L 183.66336 144.223908 
L 184.02048 142.879172 
L 184.3776 145.101202 
L 184.73472 138.14995 
L 185.09184 142.531386 
L 185.44896 139.378944 
L 185.80608 140.658261 
L 186.1632 145.521118 
L 186.52032 141.037918 
L 186.87744 142.010825 
L 187.23456 136.117469 
L 187.59168 137.032785 
L 187.9488 136.539062 
L 188.30592 138.735372 
L 188.66304 137.02272 
L 189.02016 141.231381 
L 189.37728 142.240632 
L 189.7344 134.919228 
L 190.09152 136.902505 
L 190.80576 144.213285 
L 191.16288 143.205711 
L 191.52 141.328113 
L 192.23424 133.647181 
L 192.94848 138.497177 
L 193.3056 138.754942 
L 193.66272 132.102831 
L 194.01984 140.160624 
L 194.37696 139.247546 
L 194.73408 135.702586 
L 195.0912 142.165148 
L 195.44832 140.316625 
L 195.80544 136.161083 
L 196.16256 134.268387 
L 196.51968 134.147054 
L 196.8768 138.789049 
L 197.23392 133.499567 
L 197.59104 138.82763 
L 197.94816 130.37005 
L 198.30528 135.404004 
L 198.6624 132.96335 
L 199.01952 132.37737 
L 199.37664 139.573525 
L 199.73376 134.882325 
L 200.09088 136.432826 
L 200.448 137.34199 
L 200.80512 130.648503 
L 201.16224 135.307832 
L 201.51936 134.324302 
L 201.87648 128.020536 
L 202.2336 132.918619 
L 202.59072 129.827683 
L 202.94784 132.432165 
L 203.30496 137.115538 
L 203.66208 138.466425 
L 204.0192 136.438976 
L 204.37632 128.46785 
L 204.73344 136.33218 
L 205.09056 129.345702 
L 205.44768 133.58232 
L 205.8048 129.215981 
L 206.16192 129.152239 
L 206.51904 136.463019 
L 206.87616 132.710618 
L 207.23328 127.47705 
L 207.5904 128.276623 
L 207.94752 130.674783 
L 208.30464 124.82504 
L 208.66176 127.742643 
L 209.01888 133.917246 
L 209.376 133.404513 
L 209.73312 125.509989 
L 210.09024 128.840797 
L 210.44736 127.839933 
L 211.1616 133.258018 
L 211.87584 124.272049 
L 212.23296 131.050526 
L 212.9472 123.899101 
L 213.30432 122.939055 
L 213.66144 122.697505 
L 214.01856 127.825955 
L 214.37568 124.290501 
L 214.7328 124.515835 
L 215.08992 130.7156 
L 215.44704 122.444773 
L 215.80416 127.907589 
L 216.16128 129.649316 
L 216.5184 132.120164 
L 216.87552 129.282519 
L 217.23264 124.728309 
L 217.58976 126.044529 
L 217.94688 128.585269 
L 218.304 129.858995 
L 218.66112 129.059981 
L 219.37536 121.589845 
L 219.73248 129.395466 
L 220.80384 121.634577 
L 221.16096 127.120318 
L 221.51808 118.734308 
L 221.8752 124.29106 
L 222.23232 120.440809 
L 222.58944 125.847711 
L 222.94656 126.704316 
L 223.30368 125.186246 
L 224.01792 119.92528 
L 224.37504 124.745083 
L 224.73216 122.481118 
L 225.08928 125.076095 
L 225.4464 120.356938 
L 225.80352 120.223862 
L 226.16064 117.370002 
L 227.232 121.805674 
L 227.58912 124.255275 
L 227.94624 123.204647 
L 228.30336 120.53139 
L 228.66048 120.427389 
L 229.0176 125.144869 
L 229.37472 116.625784 
L 230.08896 123.295787 
L 230.44608 119.414224 
L 230.8032 120.738831 
L 231.16032 126.364917 
L 231.51744 116.310987 
L 231.87456 119.030653 
L 232.23168 119.964979 
L 232.5888 116.089008 
L 232.94592 115.37051 
L 233.30304 120.382658 
L 233.66016 118.975298 
L 234.01728 115.048445 
L 234.3744 119.5473 
L 234.73152 114.997563 
L 235.08864 113.196008 
L 235.44576 116.997613 
L 235.80288 123.243787 
L 236.51712 118.909319 
L 236.87424 113.782547 
L 237.23136 114.833734 
L 237.9456 121.337113 
L 238.30272 114.108527 
L 238.65984 120.151173 
L 239.01696 120.966961 
L 239.37408 115.243026 
L 239.7312 122.812689 
L 240.08832 111.258581 
L 240.44544 115.14909 
L 240.80256 121.042445 
L 241.15968 111.940734 
L 241.5168 120.847864 
L 241.87392 113.537643 
L 242.23104 111.595744 
L 242.58816 111.577292 
L 242.94528 113.250803 
L 243.3024 109.914963 
L 243.65952 117.343163 
L 244.01664 111.206022 
L 244.37376 116.780107 
L 244.73088 110.106749 
L 245.088 108.5747 
L 245.44512 108.755303 
L 245.80224 112.287961 
L 246.15936 112.85549 
L 246.51648 108.65298 
L 246.8736 114.07386 
L 247.23072 114.645303 
L 247.58784 118.053273 
L 247.94496 107.21319 
L 248.30208 115.982771 
L 248.6592 116.851118 
L 249.01632 113.295535 
L 249.37344 111.078537 
L 249.73056 112.279574 
L 250.08768 114.294721 
L 250.4448 114.114119 
L 250.80192 111.785852 
L 251.15904 106.810048 
L 251.51616 114.58883 
L 251.87328 109.782446 
L 252.2304 117.562346 
L 252.58752 112.028519 
L 252.94464 117.021656 
L 253.30176 111.117118 
L 254.016 114.813046 
L 254.37312 107.872977 
L 254.73024 106.963812 
L 255.08736 107.64261 
L 255.44448 115.518683 
L 255.8016 107.373104 
L 256.15872 113.573987 
L 256.51584 108.954357 
L 256.87296 107.39547 
L 257.23008 102.926808 
L 257.5872 103.27068 
L 258.30144 114.059323 
L 258.65856 112.758199 
L 259.01568 104.884923 
L 259.3728 113.860268 
L 259.72992 113.31846 
L 260.08704 111.347485 
L 260.44416 112.124692 
L 260.80128 114.524529 
L 261.51552 109.334015 
L 261.87264 111.38327 
L 262.22976 110.661977 
L 262.58688 102.555538 
L 262.944 105.412753 
L 263.30112 111.190925 
L 263.65824 103.246637 
L 264.01536 101.215834 
L 264.37248 106.387337 
L 264.7296 100.31897 
L 265.08672 109.345757 
L 265.44384 103.395369 
L 265.80096 109.63036 
L 266.15808 103.465821 
L 266.5152 112.853254 
L 266.87232 101.551878 
L 267.22944 109.322832 
L 267.58656 106.81564 
L 267.94368 102.024912 
L 268.3008 101.058715 
L 268.65792 103.371885 
L 269.01504 100.107055 
L 269.37216 105.223204 
L 270.0864 98.753373 
L 270.44352 109.269713 
L 270.80064 98.451996 
L 271.15776 103.697865 
L 271.51488 101.268393 
L 271.872 104.950342 
L 272.22912 106.129013 
L 272.58624 102.037772 
L 272.94336 108.171559 
L 273.30048 107.092974 
L 273.6576 107.984246 
L 274.01472 105.045396 
L 274.37184 105.237182 
L 274.72896 99.561892 
L 275.08608 107.290351 
L 275.4432 98.790836 
L 276.15744 107.370868 
L 276.51456 97.394099 
L 276.87168 102.350892 
L 277.2288 95.832975 
L 277.58592 95.670824 
L 277.94304 105.582173 
L 278.30016 103.256143 
L 278.65728 101.716825 
L 279.0144 101.714588 
L 279.37152 102.263666 
L 279.72864 106.870995 
L 280.08576 107.905966 
L 280.44288 98.185285 
L 280.8 101.185081 
L 281.15712 95.274392 
L 281.51424 106.800543 
L 281.87136 95.181016 
L 282.5856 107.153361 
L 282.94272 101.854374 
L 283.65696 100.605251 
L 284.3712 94.620755 
L 284.72832 105.874604 
L 285.08544 96.530784 
L 285.44256 104.486814 
L 285.79968 94.015205 
L 286.1568 104.798815 
L 286.51392 100.411229 
L 286.87104 99.025675 
L 287.22816 94.314346 
L 287.58528 91.332442 
L 287.9424 92.27851 
L 288.29952 102.44315 
L 288.65664 95.238048 
L 289.01376 102.384999 
L 289.37088 101.499878 
L 289.728 102.816657 
L 290.08512 102.868098 
L 290.44224 90.150416 
L 290.79936 101.385254 
L 291.15648 93.355417 
L 291.5136 103.769435 
L 291.87072 100.932908 
L 292.22784 91.197689 
L 292.58496 90.997516 
L 292.94208 95.878825 
L 293.2992 96.290353 
L 293.65632 92.267886 
L 294.01344 90.735279 
L 294.37056 100.998328 
L 294.72768 91.454894 
L 295.0848 94.380324 
L 295.44192 102.267021 
L 296.15616 94.314905 
L 296.51328 101.998073 
L 296.8704 88.282882 
L 297.22752 96.745495 
L 297.58464 95.369446 
L 297.94176 99.320902 
L 298.29888 87.33961 
L 298.656 89.888179 
L 299.01312 98.744427 
L 299.37024 91.132269 
L 299.72736 89.559403 
L 300.08448 89.801512 
L 300.4416 88.827486 
L 300.79872 97.358873 
L 301.15584 91.324055 
L 301.51296 99.368429 
L 301.87008 86.288982 
L 302.2272 98.046059 
L 302.94144 89.801512 
L 303.29856 92.110208 
L 303.65568 97.650186 
L 304.0128 94.759982 
L 304.36992 87.218276 
L 304.72704 99.233676 
L 305.08416 88.834196 
L 305.44128 86.598747 
L 305.7984 85.18915 
L 306.15552 95.752459 
L 306.51264 91.755153 
L 306.86976 86.450015 
L 307.22688 95.965492 
L 307.584 95.819556 
L 307.94112 94.17456 
L 308.29824 95.33478 
L 308.65536 88.055871 
L 309.01248 97.154786 
L 309.3696 92.308704 
L 310.08384 87.56103 
L 310.44096 89.632651 
L 310.79808 89.946889 
L 311.1552 90.589902 
L 311.51232 83.142132 
L 311.86944 86.800038 
L 312.22656 86.217971 
L 312.58368 92.424446 
L 312.9408 88.478582 
L 313.29792 95.876588 
L 313.65504 90.909731 
L 314.36928 96.22717 
L 314.7264 90.697816 
L 315.44064 84.037318 
L 315.79776 91.809949 
L 316.15488 92.958986 
L 316.512 86.119003 
L 316.86912 87.311653 
L 317.22624 94.215937 
L 317.58336 86.672554 
L 317.94048 82.499119 
L 318.2976 82.758001 
L 318.65472 83.425058 
L 319.01184 89.56164 
L 319.36896 87.029286 
L 319.72608 94.445744 
L 320.0832 85.15001 
L 320.44032 86.078745 
L 320.79744 79.995281 
L 321.15456 88.394711 
L 321.51168 84.353792 
L 321.8688 89.86749 
L 322.22592 80.221175 
L 322.58304 90.007276 
L 322.94016 89.104821 
L 323.29728 79.351709 
L 323.6544 80.923457 
L 324.01152 84.262093 
L 324.72576 86.25823 
L 325.08288 87.624213 
L 325.44 83.362993 
L 325.79712 80.821693 
L 326.15424 91.793734 
L 326.51136 88.826927 
L 326.86848 82.264279 
L 327.2256 83.526822 
L 327.58272 89.765167 
L 327.93984 79.043622 
L 328.29696 88.7794 
L 328.65408 90.830892 
L 329.0112 80.446509 
L 329.36832 88.833637 
L 329.72544 84.486309 
L 330.08256 85.465366 
L 330.43968 90.088351 
L 330.7968 78.185339 
L 331.15392 76.240085 
L 331.51104 89.301639 
L 331.86816 79.629044 
L 332.5824 82.810002 
L 332.93952 75.911309 
L 333.29664 83.559811 
L 333.65376 78.292135 
L 334.01088 84.405233 
L 334.368 85.099128 
L 334.72512 90.387492 
L 335.08224 76.045503 
L 335.43936 82.465011 
L 335.79648 83.563166 
L 336.1536 78.525297 
L 336.51072 87.236728 
L 336.86784 89.130541 
L 337.22496 88.481378 
L 337.58208 81.883504 
L 337.9392 88.08271 
L 338.29632 83.856715 
L 338.65344 75.054145 
L 339.01056 88.029032 
L 339.36768 73.599258 
L 339.7248 88.954412 
L 340.08192 83.208111 
L 340.43904 85.532463 
L 340.79616 83.47594 
L 341.15328 82.931895 
L 341.5104 79.857173 
L 341.86752 82.310688 
L 342.22464 82.422516 
L 342.58176 81.423889 
L 342.93888 85.540851 
L 343.296 83.463079 
L 343.65312 85.862916 
L 344.36736 72.827642 
L 344.72448 78.740567 
L 345.0816 78.193167 
L 345.43872 80.079153 
L 345.79584 75.934234 
L 346.15296 84.832418 
L 346.51008 79.569774 
L 346.8672 80.721607 
L 347.22432 86.187778 
L 347.58144 74.47711 
L 347.93856 74.951263 
L 348.29568 71.83181 
L 348.6528 79.892399 
L 349.72416 74.23612 
L 350.08128 73.969969 
L 350.4384 72.502221 
L 350.79552 72.915427 
L 351.15264 70.876237 
L 351.50976 75.153113 
L 351.86688 83.220971 
L 352.224 73.338697 
L 352.58112 77.655273 
L 352.93824 72.012972 
L 353.29536 72.048198 
L 353.65248 74.163991 
L 354.0096 74.089066 
L 354.36672 76.684602 
L 354.72384 81.97073 
L 355.08096 76.331784 
L 355.43808 82.514216 
L 356.50944 68.802939 
L 356.86656 79.858851 
L 357.22368 80.761306 
L 357.5808 83.660456 
L 357.93792 83.256756 
L 358.29504 76.349117 
L 358.65216 81.87288 
L 359.00928 78.189253 
L 359.3664 77.510455 
L 359.72352 78.064005 
L 360.08064 74.694617 
L 360.43776 82.362129 
L 360.79488 68.026291 
L 361.152 74.912682 
L 361.50912 66.786673 
L 361.86624 76.038794 
L 362.58048 67.542633 
L 362.9376 67.533127 
L 363.29472 73.26545 
L 363.65184 67.337428 
L 364.00896 67.440869 
L 364.36608 80.767456 
L 365.08032 67.027663 
L 365.43744 72.518436 
L 365.79456 71.948112 
L 366.15168 76.526365 
L 366.5088 70.757139 
L 366.86592 73.465623 
L 367.22304 72.55534 
L 367.58016 73.698785 
L 367.93728 65.491141 
L 368.2944 66.843146 
L 368.65152 79.176139 
L 369.00864 66.974545 
L 369.36576 73.046825 
L 369.72288 75.053586 
L 370.08 75.554018 
L 370.43712 67.306116 
L 370.79424 76.670065 
L 371.15136 70.121954 
L 371.50848 73.221837 
L 371.8656 77.755918 
L 372.22272 67.148997 
L 372.57984 75.704986 
L 372.93696 77.169378 
L 373.29408 63.713629 
L 373.6512 70.194084 
L 374.00832 69.11494 
L 374.36544 64.919698 
L 374.72256 63.103046 
L 375.07968 78.231748 
L 375.4368 76.714237 
L 375.79392 74.508981 
L 376.15104 66.661984 
L 376.50816 68.376313 
L 376.86528 66.246542 
L 377.2224 69.222854 
L 377.57952 74.609068 
L 377.93664 73.921882 
L 378.29376 69.808276 
L 378.65088 72.874051 
L 379.008 68.740315 
L 379.36512 72.120327 
L 379.72224 65.126022 
L 380.43648 74.719219 
L 380.7936 70.019072 
L 381.15072 75.053026 
L 381.50784 75.203995 
L 381.86496 76.786925 
L 382.22208 69.873695 
L 382.5792 71.044538 
L 382.93632 62.358829 
L 383.29344 67.683537 
L 383.65056 63.031476 
L 384.00768 66.1828 
L 384.3648 60.386735 
L 384.72192 69.784233 
L 385.07904 68.960057 
L 385.43616 65.19256 
L 385.79328 70.634687 
L 386.1504 60.74179 
L 386.50752 69.631028 
L 387.22176 74.209841 
L 387.57888 75.25935 
L 387.936 75.629502 
L 388.65024 60.936372 
L 389.00736 74.818187 
L 389.36448 65.538109 
L 389.7216 60.30566 
L 390.07872 61.403255 
L 390.43584 71.500239 
L 390.79296 67.745042 
L 391.15008 62.588636 
L 391.5072 74.414486 
L 391.86432 61.709106 
L 392.22144 67.09476 
L 392.57856 70.550816 
L 392.93568 66.46964 
L 393.2928 68.309775 
L 393.64992 71.770864 
L 394.00704 68.120226 
L 394.36416 65.920003 
L 394.72128 68.047538 
L 395.0784 62.350441 
L 395.43552 65.064516 
L 395.79264 73.002653 
L 396.14976 61.859515 
L 396.50688 59.468065 
L 396.864 63.894791 
L 397.22112 65.878067 
L 397.57824 62.563474 
L 397.93536 64.833031 
L 398.29248 58.108232 
L 398.6496 72.015209 
L 399.00672 59.593313 
L 399.36384 67.966462 
L 399.72096 61.770611 
L 400.07808 71.396798 
L 400.4352 62.28614 
L 400.79232 65.086323 
L 401.14944 60.816156 
L 401.50656 63.02868 
L 401.86368 63.43965 
L 402.2208 64.30632 
L 402.57792 67.637128 
L 402.93504 66.380177 
L 403.29216 58.910601 
L 403.64928 59.371893 
L 404.36352 68.173345 
L 404.72064 59.729184 
L 405.07776 62.81397 
L 405.43488 62.179344 
L 405.792 54.687961 
L 406.14912 58.571201 
L 406.50624 55.257168 
L 406.86336 69.466081 
L 407.22048 55.793944 
L 407.5776 66.910803 
L 407.93472 56.010332 
L 408.29184 63.690145 
L 408.64896 65.109247 
L 409.00608 60.770306 
L 409.3632 54.320605 
L 409.72032 62.590872 
L 410.07744 62.770357 
L 410.43456 63.25737 
L 411.1488 58.646126 
L 411.50592 59.097913 
L 411.86304 53.568 
L 412.22016 63.941759 
L 412.57728 63.970275 
L 412.9344 60.978866 
L 413.29152 62.235258 
L 413.64864 59.650904 
L 414.00576 55.851535 
L 414.36288 67.037169 
L 414.72 56.485043 
L 414.72 56.485043 
" style="fill:none;stroke:#000080;stroke-linecap:square;stroke-width:0.5;"/>
   </g>
   <g id="patch_3">
    <path d="M 57.6 307.584 
L 57.6 41.472 
" style="fill:none;stroke:#000000;stroke-linecap:square;stroke-linejoin:miter;stroke-width:0.8;"/>
   </g>
   <g id="patch_4">
    <path d="M 414.72 307.584 
L 414.72 41.472 
" style="fill:none;stroke:#000000;stroke-linecap:square;stroke-linejoin:miter;stroke-width:0.8;"/>
   </g>
   <g id="patch_5">
    <path d="M 57.6 307.584 
L 414.72 307.584 
" style="fill:none;stroke:#000000;stroke-linecap:square;stroke-linejoin:miter;stroke-width:0.8;"/>
   </g>
   <g id="patch_6">
    <path d="M 57.6 41.472 
L 414.72 41.472 
" style="fill:none;stroke:#000000;stroke-linecap:square;stroke-linejoin:miter;stroke-width:0.8;"/>
   </g>
   <g id="text_14">
    <!-- Test -->
    <defs>
     <path d="M -0.296875 72.90625 
L 61.375 72.90625 
L 61.375 64.59375 
L 35.5 64.59375 
L 35.5 0 
L 25.59375 0 
L 25.59375 64.59375 
L -0.296875 64.59375 
z
" id="DejaVuSans-54"/>
    </defs>
    <g transform="translate(223.341563 35.472)scale(0.12 -0.12)">
     <use xlink:href="#DejaVuSans-54"/>
     <use x="60.818359" xlink:href="#DejaVuSans-65"/>
     <use x="122.341797" xlink:href="#DejaVuSans-73"/>
     <use x="174.441406" xlink:href="#DejaVuSans-74"/>
    </g>
   </g>
   <g id="legend_1">
    <g id="patch_7">
     <path d="M 64.6 64.150125 
L 306.276563 64.150125 
Q 308.276563 64.150125 308.276563 62.150125 
L 308.276563 48.472 
Q 308.276563 46.472 306.276563 46.472 
L 64.6 46.472 
Q 62.6 46.472 62.6 48.472 
L 62.6 62.150125 
Q 62.6 64.150125 64.6 64.150125 
z
" style="fill:#ffffff;opacity:0.8;stroke:#cccccc;stroke-linejoin:miter;"/>
    </g>
    <g id="line2d_24">
     <path d="M 66.6 54.570438 
L 86.6 54.570438 
" style="fill:none;stroke:#000080;stroke-linecap:square;stroke-width:0.5;"/>
    </g>
    <g id="line2d_25"/>
    <g id="text_15">
     <!-- Successful download requests per second -->
     <g transform="translate(94.6 58.070438)scale(0.1 -0.1)">
      <use xlink:href="#DejaVuSans-53"/>
      <use x="63.476562" xlink:href="#DejaVuSans-75"/>
      <use x="126.855469" xlink:href="#DejaVuSans-63"/>
      <use x="181.835938" xlink:href="#DejaVuSans-63"/>
      <use x="236.816406" xlink:href="#DejaVuSans-65"/>
      <use x="298.339844" xlink:href="#DejaVuSans-73"/>
      <use x="350.439453" xlink:href="#DejaVuSans-73"/>
      <use x="402.539062" xlink:href="#DejaVuSans-66"/>
      <use x="437.744141" xlink:href="#DejaVuSans-75"/>
      <use x="501.123047" xlink:href="#DejaVuSans-6c"/>
      <use x="528.90625" xlink:href="#DejaVuSans-20"/>
      <use x="560.693359" xlink:href="#DejaVuSans-64"/>
      <use x="624.169922" xlink:href="#DejaVuSans-6f"/>
      <use x="685.351562" xlink:href="#DejaVuSans-77"/>
      <use x="767.138672" xlink:href="#DejaVuSans-6e"/>
      <use x="830.517578" xlink:href="#DejaVuSans-6c"/>
      <use x="858.300781" xlink:href="#DejaVuSans-6f"/>
      <use x="919.482422" xlink:href="#DejaVuSans-61"/>
      <use x="980.761719" xlink:href="#DejaVuSans-64"/>
      <use x="1044.238281" xlink:href="#DejaVuSans-20"/>
      <use x="1076.025391" xlink:href="#DejaVuSans-72"/>
      <use x="1117.107422" xlink:href="#DejaVuSans-65"/>
      <use x="1178.630859" xlink:href="#DejaVuSans-71"/>
      <use x="1242.107422" xlink:href="#DejaVuSans-75"/>
      <use x="1305.486328" xlink:href="#DejaVuSans-65"/>
      <use x="1367.009766" xlink:href="#DejaVuSans-73"/>
      <use x="1419.109375" xlink:href="#DejaVuSans-74"/>
      <use x="1458.318359" xlink:href="#DejaVuSans-73"/>
      <use x="1510.417969" xlink:href="#DejaVuSans-20"/>
      <use x="1542.205078" xlink:href="#DejaVuSans-70"/>
      <use x="1605.681641" xlink:href="#DejaVuSans-65"/>
      <use x="1667.205078" xlink:href="#DejaVuSans-72"/>
      <use x="1708.318359" xlink:href="#DejaVuSans-20"/>
      <use x="1740.105469" xlink:href="#DejaVuSans-73"/>
      <use x="1792.205078" xlink:href="#DejaVuSans-65"/>
      <use x="1853.728516" xlink:href="#DejaVuSans-63"/>
      <use x="1908.708984" xlink:href="#DejaVuSans-6f"/>
      <use x="1969.890625" xlink:href="#DejaVuSans-6e"/>
      <use x="2033.269531" xlink:href="#DejaVuSans-64"/>
     </g>
    </g>
   </g>
  </g>
 </g>
 <defs>
  <clipPath id="p22c53fcf64">
   <rect height="266.112" width="357.12" x="57.6" y="41.472"/>
  </clipPath>
 </defs>
</svg>
