<?xml version="1.0" encoding="utf-8" standalone="no"?>
<!DOCTYPE svg PUBLIC "-//W3C//DTD SVG 1.1//EN"
  "http://www.w3.org/Graphics/SVG/1.1/DTD/svg11.dtd">
<!-- Created with matplotlib (http://matplotlib.org/) -->
<svg height="345pt" version="1.1" viewBox="0 0 460 345" width="460pt" xmlns="http://www.w3.org/2000/svg" xmlns:xlink="http://www.w3.org/1999/xlink">
 <defs>
  <style type="text/css">
*{stroke-linecap:butt;stroke-linejoin:round;}
  </style>
 </defs>
 <g id="figure_1">
  <g id="patch_1">
   <path d="M 0 345.6 
L 460.8 345.6 
L 460.8 0 
L 0 0 
z
" style="fill:#ffffff;"/>
  </g>
  <g id="axes_1">
   <g id="patch_2">
    <path d="M 57.6 307.584 
L 414.72 307.584 
L 414.72 41.472 
L 57.6 41.472 
z
" style="fill:#ffffff;"/>
   </g>
   <g id="matplotlib.axis_1">
    <g id="xtick_1">
     <g id="line2d_1">
      <path clip-path="url(#pada643949d)" d="M 57.6 307.584 
L 57.6 41.472 
" style="fill:none;stroke:#b0b0b0;stroke-linecap:square;stroke-width:0.8;"/>
     </g>
     <g id="line2d_2">
      <defs>
       <path d="M 0 0 
L 0 3.5 
" id="mca7eedb764" style="stroke:#000000;stroke-width:0.8;"/>
      </defs>
      <g>
       <use style="stroke:#000000;stroke-width:0.8;" x="57.6" xlink:href="#mca7eedb764" y="307.584"/>
      </g>
     </g>
     <g id="text_1">
      <!-- 0 -->
      <defs>
       <path d="M 31.78125 66.40625 
Q 24.171875 66.40625 20.328125 58.90625 
Q 16.5 51.421875 16.5 36.375 
Q 16.5 21.390625 20.328125 13.890625 
Q 24.171875 6.390625 31.78125 6.390625 
Q 39.453125 6.390625 43.28125 13.890625 
Q 47.125 21.390625 47.125 36.375 
Q 47.125 51.421875 43.28125 58.90625 
Q 39.453125 66.40625 31.78125 66.40625 
M 31.78125 74.21875 
Q 44.046875 74.21875 50.515625 64.515625 
Q 56.984375 54.828125 56.984375 36.375 
Q 56.984375 17.96875 50.515625 8.265625 
Q 44.046875 -1.421875 31.78125 -1.421875 
Q 19.53125 -1.421875 13.0625 8.265625 
Q 6.59375 17.96875 6.59375 36.375 
Q 6.59375 54.828125 13.0625 64.515625 
Q 19.53125 74.21875 31.78125 74.21875 
" id="DejaVuSans-30"/>
      </defs>
      <g transform="translate(54.41875 322.182437)scale(0.1 -0.1)">
       <use xlink:href="#DejaVuSans-30"/>
      </g>
     </g>
    </g>
    <g id="xtick_2">
     <g id="line2d_3">
      <path clip-path="url(#pada643949d)" d="M 129.024 307.584 
L 129.024 41.472 
" style="fill:none;stroke:#b0b0b0;stroke-linecap:square;stroke-width:0.8;"/>
     </g>
     <g id="line2d_4">
      <g>
       <use style="stroke:#000000;stroke-width:0.8;" x="129.024" xlink:href="#mca7eedb764" y="307.584"/>
      </g>
     </g>
     <g id="text_2">
      <!-- 200 -->
      <defs>
       <path d="M 19.1875 8.296875 
L 53.609375 8.296875 
L 53.609375 0 
L 7.328125 0 
L 7.328125 8.296875 
Q 12.9375 14.109375 22.625 23.890625 
Q 32.328125 33.6875 34.8125 36.53125 
Q 39.546875 41.84375 41.421875 45.53125 
Q 43.3125 49.21875 43.3125 52.78125 
Q 43.3125 58.59375 39.234375 62.25 
Q 35.15625 65.921875 28.609375 65.921875 
Q 23.96875 65.921875 18.8125 64.3125 
Q 13.671875 62.703125 7.8125 59.421875 
L 7.8125 69.390625 
Q 13.765625 71.78125 18.9375 73 
Q 24.125 74.21875 28.421875 74.21875 
Q 39.75 74.21875 46.484375 68.546875 
Q 53.21875 62.890625 53.21875 53.421875 
Q 53.21875 48.921875 51.53125 44.890625 
Q 49.859375 40.875 45.40625 35.40625 
Q 44.1875 33.984375 37.640625 27.21875 
Q 31.109375 20.453125 19.1875 8.296875 
" id="DejaVuSans-32"/>
      </defs>
      <g transform="translate(119.48025 322.182437)scale(0.1 -0.1)">
       <use xlink:href="#DejaVuSans-32"/>
       <use x="63.623047" xlink:href="#DejaVuSans-30"/>
       <use x="127.246094" xlink:href="#DejaVuSans-30"/>
      </g>
     </g>
    </g>
    <g id="xtick_3">
     <g id="line2d_5">
      <path clip-path="url(#pada643949d)" d="M 200.448 307.584 
L 200.448 41.472 
" style="fill:none;stroke:#b0b0b0;stroke-linecap:square;stroke-width:0.8;"/>
     </g>
     <g id="line2d_6">
      <g>
       <use style="stroke:#000000;stroke-width:0.8;" x="200.448" xlink:href="#mca7eedb764" y="307.584"/>
      </g>
     </g>
     <g id="text_3">
      <!-- 400 -->
      <defs>
       <path d="M 37.796875 64.3125 
L 12.890625 25.390625 
L 37.796875 25.390625 
z
M 35.203125 72.90625 
L 47.609375 72.90625 
L 47.609375 25.390625 
L 58.015625 25.390625 
L 58.015625 17.1875 
L 47.609375 17.1875 
L 47.609375 0 
L 37.796875 0 
L 37.796875 17.1875 
L 4.890625 17.1875 
L 4.890625 26.703125 
z
" id="DejaVuSans-34"/>
      </defs>
      <g transform="translate(190.90425 322.182437)scale(0.1 -0.1)">
       <use xlink:href="#DejaVuSans-34"/>
       <use x="63.623047" xlink:href="#DejaVuSans-30"/>
       <use x="127.246094" xlink:href="#DejaVuSans-30"/>
      </g>
     </g>
    </g>
    <g id="xtick_4">
     <g id="line2d_7">
      <path clip-path="url(#pada643949d)" d="M 271.872 307.584 
L 271.872 41.472 
" style="fill:none;stroke:#b0b0b0;stroke-linecap:square;stroke-width:0.8;"/>
     </g>
     <g id="line2d_8">
      <g>
       <use style="stroke:#000000;stroke-width:0.8;" x="271.872" xlink:href="#mca7eedb764" y="307.584"/>
      </g>
     </g>
     <g id="text_4">
      <!-- 600 -->
      <defs>
       <path d="M 33.015625 40.375 
Q 26.375 40.375 22.484375 35.828125 
Q 18.609375 31.296875 18.609375 23.390625 
Q 18.609375 15.53125 22.484375 10.953125 
Q 26.375 6.390625 33.015625 6.390625 
Q 39.65625 6.390625 43.53125 10.953125 
Q 47.40625 15.53125 47.40625 23.390625 
Q 47.40625 31.296875 43.53125 35.828125 
Q 39.65625 40.375 33.015625 40.375 
M 52.59375 71.296875 
L 52.59375 62.3125 
Q 48.875 64.0625 45.09375 64.984375 
Q 41.3125 65.921875 37.59375 65.921875 
Q 27.828125 65.921875 22.671875 59.328125 
Q 17.53125 52.734375 16.796875 39.40625 
Q 19.671875 43.65625 24.015625 45.921875 
Q 28.375 48.1875 33.59375 48.1875 
Q 44.578125 48.1875 50.953125 41.515625 
Q 57.328125 34.859375 57.328125 23.390625 
Q 57.328125 12.15625 50.6875 5.359375 
Q 44.046875 -1.421875 33.015625 -1.421875 
Q 20.359375 -1.421875 13.671875 8.265625 
Q 6.984375 17.96875 6.984375 36.375 
Q 6.984375 53.65625 15.1875 63.9375 
Q 23.390625 74.21875 37.203125 74.21875 
Q 40.921875 74.21875 44.703125 73.484375 
Q 48.484375 72.75 52.59375 71.296875 
" id="DejaVuSans-36"/>
      </defs>
      <g transform="translate(262.32825 322.182437)scale(0.1 -0.1)">
       <use xlink:href="#DejaVuSans-36"/>
       <use x="63.623047" xlink:href="#DejaVuSans-30"/>
       <use x="127.246094" xlink:href="#DejaVuSans-30"/>
      </g>
     </g>
    </g>
    <g id="xtick_5">
     <g id="line2d_9">
      <path clip-path="url(#pada643949d)" d="M 343.296 307.584 
L 343.296 41.472 
" style="fill:none;stroke:#b0b0b0;stroke-linecap:square;stroke-width:0.8;"/>
     </g>
     <g id="line2d_10">
      <g>
       <use style="stroke:#000000;stroke-width:0.8;" x="343.296" xlink:href="#mca7eedb764" y="307.584"/>
      </g>
     </g>
     <g id="text_5">
      <!-- 800 -->
      <defs>
       <path d="M 31.78125 34.625 
Q 24.75 34.625 20.71875 30.859375 
Q 16.703125 27.09375 16.703125 20.515625 
Q 16.703125 13.921875 20.71875 10.15625 
Q 24.75 6.390625 31.78125 6.390625 
Q 38.8125 6.390625 42.859375 10.171875 
Q 46.921875 13.96875 46.921875 20.515625 
Q 46.921875 27.09375 42.890625 30.859375 
Q 38.875 34.625 31.78125 34.625 
M 21.921875 38.8125 
Q 15.578125 40.375 12.03125 44.71875 
Q 8.5 49.078125 8.5 55.328125 
Q 8.5 64.0625 14.71875 69.140625 
Q 20.953125 74.21875 31.78125 74.21875 
Q 42.671875 74.21875 48.875 69.140625 
Q 55.078125 64.0625 55.078125 55.328125 
Q 55.078125 49.078125 51.53125 44.71875 
Q 48 40.375 41.703125 38.8125 
Q 48.828125 37.15625 52.796875 32.3125 
Q 56.78125 27.484375 56.78125 20.515625 
Q 56.78125 9.90625 50.3125 4.234375 
Q 43.84375 -1.421875 31.78125 -1.421875 
Q 19.734375 -1.421875 13.25 4.234375 
Q 6.78125 9.90625 6.78125 20.515625 
Q 6.78125 27.484375 10.78125 32.3125 
Q 14.796875 37.15625 21.921875 38.8125 
M 18.3125 54.390625 
Q 18.3125 48.734375 21.84375 45.5625 
Q 25.390625 42.390625 31.78125 42.390625 
Q 38.140625 42.390625 41.71875 45.5625 
Q 45.3125 48.734375 45.3125 54.390625 
Q 45.3125 60.0625 41.71875 63.234375 
Q 38.140625 66.40625 31.78125 66.40625 
Q 25.390625 66.40625 21.84375 63.234375 
Q 18.3125 60.0625 18.3125 54.390625 
" id="DejaVuSans-38"/>
      </defs>
      <g transform="translate(333.75225 322.182437)scale(0.1 -0.1)">
       <use xlink:href="#DejaVuSans-38"/>
       <use x="63.623047" xlink:href="#DejaVuSans-30"/>
       <use x="127.246094" xlink:href="#DejaVuSans-30"/>
      </g>
     </g>
    </g>
    <g id="xtick_6">
     <g id="line2d_11">
      <path clip-path="url(#pada643949d)" d="M 414.72 307.584 
L 414.72 41.472 
" style="fill:none;stroke:#b0b0b0;stroke-linecap:square;stroke-width:0.8;"/>
     </g>
     <g id="line2d_12">
      <g>
       <use style="stroke:#000000;stroke-width:0.8;" x="414.72" xlink:href="#mca7eedb764" y="307.584"/>
      </g>
     </g>
     <g id="text_6">
      <!-- 1000 -->
      <defs>
       <path d="M 12.40625 8.296875 
L 28.515625 8.296875 
L 28.515625 63.921875 
L 10.984375 60.40625 
L 10.984375 69.390625 
L 28.421875 72.90625 
L 38.28125 72.90625 
L 38.28125 8.296875 
L 54.390625 8.296875 
L 54.390625 0 
L 12.40625 0 
z
" id="DejaVuSans-31"/>
      </defs>
      <g transform="translate(401.995 322.182437)scale(0.1 -0.1)">
       <use xlink:href="#DejaVuSans-31"/>
       <use x="63.623047" xlink:href="#DejaVuSans-30"/>
       <use x="127.246094" xlink:href="#DejaVuSans-30"/>
       <use x="190.869141" xlink:href="#DejaVuSans-30"/>
      </g>
     </g>
    </g>
    <g id="text_7">
     <!-- Number of clients -->
     <defs>
      <path d="M 9.8125 72.90625 
L 23.09375 72.90625 
L 55.421875 11.921875 
L 55.421875 72.90625 
L 64.984375 72.90625 
L 64.984375 0 
L 51.703125 0 
L 19.390625 60.984375 
L 19.390625 0 
L 9.8125 0 
z
" id="DejaVuSans-4e"/>
      <path d="M 8.5 21.578125 
L 8.5 54.6875 
L 17.484375 54.6875 
L 17.484375 21.921875 
Q 17.484375 14.15625 20.5 10.265625 
Q 23.53125 6.390625 29.59375 6.390625 
Q 36.859375 6.390625 41.078125 11.03125 
Q 45.3125 15.671875 45.3125 23.6875 
L 45.3125 54.6875 
L 54.296875 54.6875 
L 54.296875 0 
L 45.3125 0 
L 45.3125 8.40625 
Q 42.046875 3.421875 37.71875 1 
Q 33.40625 -1.421875 27.6875 -1.421875 
Q 18.265625 -1.421875 13.375 4.4375 
Q 8.5 10.296875 8.5 21.578125 
M 31.109375 56 
z
" id="DejaVuSans-75"/>
      <path d="M 52 44.1875 
Q 55.375 50.25 60.0625 53.125 
Q 64.75 56 71.09375 56 
Q 79.640625 56 84.28125 50.015625 
Q 88.921875 44.046875 88.921875 33.015625 
L 88.921875 0 
L 79.890625 0 
L 79.890625 32.71875 
Q 79.890625 40.578125 77.09375 44.375 
Q 74.3125 48.1875 68.609375 48.1875 
Q 61.625 48.1875 57.5625 43.546875 
Q 53.515625 38.921875 53.515625 30.90625 
L 53.515625 0 
L 44.484375 0 
L 44.484375 32.71875 
Q 44.484375 40.625 41.703125 44.40625 
Q 38.921875 48.1875 33.109375 48.1875 
Q 26.21875 48.1875 22.15625 43.53125 
Q 18.109375 38.875 18.109375 30.90625 
L 18.109375 0 
L 9.078125 0 
L 9.078125 54.6875 
L 18.109375 54.6875 
L 18.109375 46.1875 
Q 21.1875 51.21875 25.484375 53.609375 
Q 29.78125 56 35.6875 56 
Q 41.65625 56 45.828125 52.96875 
Q 50 49.953125 52 44.1875 
" id="DejaVuSans-6d"/>
      <path d="M 48.6875 27.296875 
Q 48.6875 37.203125 44.609375 42.84375 
Q 40.53125 48.484375 33.40625 48.484375 
Q 26.265625 48.484375 22.1875 42.84375 
Q 18.109375 37.203125 18.109375 27.296875 
Q 18.109375 17.390625 22.1875 11.75 
Q 26.265625 6.109375 33.40625 6.109375 
Q 40.53125 6.109375 44.609375 11.75 
Q 48.6875 17.390625 48.6875 27.296875 
M 18.109375 46.390625 
Q 20.953125 51.265625 25.265625 53.625 
Q 29.59375 56 35.59375 56 
Q 45.5625 56 51.78125 48.09375 
Q 58.015625 40.1875 58.015625 27.296875 
Q 58.015625 14.40625 51.78125 6.484375 
Q 45.5625 -1.421875 35.59375 -1.421875 
Q 29.59375 -1.421875 25.265625 0.953125 
Q 20.953125 3.328125 18.109375 8.203125 
L 18.109375 0 
L 9.078125 0 
L 9.078125 75.984375 
L 18.109375 75.984375 
z
" id="DejaVuSans-62"/>
      <path d="M 56.203125 29.59375 
L 56.203125 25.203125 
L 14.890625 25.203125 
Q 15.484375 15.921875 20.484375 11.0625 
Q 25.484375 6.203125 34.421875 6.203125 
Q 39.59375 6.203125 44.453125 7.46875 
Q 49.3125 8.734375 54.109375 11.28125 
L 54.109375 2.78125 
Q 49.265625 0.734375 44.1875 -0.34375 
Q 39.109375 -1.421875 33.890625 -1.421875 
Q 20.796875 -1.421875 13.15625 6.1875 
Q 5.515625 13.8125 5.515625 26.8125 
Q 5.515625 40.234375 12.765625 48.109375 
Q 20.015625 56 32.328125 56 
Q 43.359375 56 49.78125 48.890625 
Q 56.203125 41.796875 56.203125 29.59375 
M 47.21875 32.234375 
Q 47.125 39.59375 43.09375 43.984375 
Q 39.0625 48.390625 32.421875 48.390625 
Q 24.90625 48.390625 20.390625 44.140625 
Q 15.875 39.890625 15.1875 32.171875 
z
" id="DejaVuSans-65"/>
      <path d="M 41.109375 46.296875 
Q 39.59375 47.171875 37.8125 47.578125 
Q 36.03125 48 33.890625 48 
Q 26.265625 48 22.1875 43.046875 
Q 18.109375 38.09375 18.109375 28.8125 
L 18.109375 0 
L 9.078125 0 
L 9.078125 54.6875 
L 18.109375 54.6875 
L 18.109375 46.1875 
Q 20.953125 51.171875 25.484375 53.578125 
Q 30.03125 56 36.53125 56 
Q 37.453125 56 38.578125 55.875 
Q 39.703125 55.765625 41.0625 55.515625 
z
" id="DejaVuSans-72"/>
      <path id="DejaVuSans-20"/>
      <path d="M 30.609375 48.390625 
Q 23.390625 48.390625 19.1875 42.75 
Q 14.984375 37.109375 14.984375 27.296875 
Q 14.984375 17.484375 19.15625 11.84375 
Q 23.34375 6.203125 30.609375 6.203125 
Q 37.796875 6.203125 41.984375 11.859375 
Q 46.1875 17.53125 46.1875 27.296875 
Q 46.1875 37.015625 41.984375 42.703125 
Q 37.796875 48.390625 30.609375 48.390625 
M 30.609375 56 
Q 42.328125 56 49.015625 48.375 
Q 55.71875 40.765625 55.71875 27.296875 
Q 55.71875 13.875 49.015625 6.21875 
Q 42.328125 -1.421875 30.609375 -1.421875 
Q 18.84375 -1.421875 12.171875 6.21875 
Q 5.515625 13.875 5.515625 27.296875 
Q 5.515625 40.765625 12.171875 48.375 
Q 18.84375 56 30.609375 56 
" id="DejaVuSans-6f"/>
      <path d="M 37.109375 75.984375 
L 37.109375 68.5 
L 28.515625 68.5 
Q 23.6875 68.5 21.796875 66.546875 
Q 19.921875 64.59375 19.921875 59.515625 
L 19.921875 54.6875 
L 34.71875 54.6875 
L 34.71875 47.703125 
L 19.921875 47.703125 
L 19.921875 0 
L 10.890625 0 
L 10.890625 47.703125 
L 2.296875 47.703125 
L 2.296875 54.6875 
L 10.890625 54.6875 
L 10.890625 58.5 
Q 10.890625 67.625 15.140625 71.796875 
Q 19.390625 75.984375 28.609375 75.984375 
z
" id="DejaVuSans-66"/>
      <path d="M 48.78125 52.59375 
L 48.78125 44.1875 
Q 44.96875 46.296875 41.140625 47.34375 
Q 37.3125 48.390625 33.40625 48.390625 
Q 24.65625 48.390625 19.8125 42.84375 
Q 14.984375 37.3125 14.984375 27.296875 
Q 14.984375 17.28125 19.8125 11.734375 
Q 24.65625 6.203125 33.40625 6.203125 
Q 37.3125 6.203125 41.140625 7.25 
Q 44.96875 8.296875 48.78125 10.40625 
L 48.78125 2.09375 
Q 45.015625 0.34375 40.984375 -0.53125 
Q 36.96875 -1.421875 32.421875 -1.421875 
Q 20.0625 -1.421875 12.78125 6.34375 
Q 5.515625 14.109375 5.515625 27.296875 
Q 5.515625 40.671875 12.859375 48.328125 
Q 20.21875 56 33.015625 56 
Q 37.15625 56 41.109375 55.140625 
Q 45.0625 54.296875 48.78125 52.59375 
" id="DejaVuSans-63"/>
      <path d="M 9.421875 75.984375 
L 18.40625 75.984375 
L 18.40625 0 
L 9.421875 0 
z
" id="DejaVuSans-6c"/>
      <path d="M 9.421875 54.6875 
L 18.40625 54.6875 
L 18.40625 0 
L 9.421875 0 
z
M 9.421875 75.984375 
L 18.40625 75.984375 
L 18.40625 64.59375 
L 9.421875 64.59375 
z
" id="DejaVuSans-69"/>
      <path d="M 54.890625 33.015625 
L 54.890625 0 
L 45.90625 0 
L 45.90625 32.71875 
Q 45.90625 40.484375 42.875 44.328125 
Q 39.84375 48.1875 33.796875 48.1875 
Q 26.515625 48.1875 22.3125 43.546875 
Q 18.109375 38.921875 18.109375 30.90625 
L 18.109375 0 
L 9.078125 0 
L 9.078125 54.6875 
L 18.109375 54.6875 
L 18.109375 46.1875 
Q 21.34375 51.125 25.703125 53.5625 
Q 30.078125 56 35.796875 56 
Q 45.21875 56 50.046875 50.171875 
Q 54.890625 44.34375 54.890625 33.015625 
" id="DejaVuSans-6e"/>
      <path d="M 18.3125 70.21875 
L 18.3125 54.6875 
L 36.8125 54.6875 
L 36.8125 47.703125 
L 18.3125 47.703125 
L 18.3125 18.015625 
Q 18.3125 11.328125 20.140625 9.421875 
Q 21.96875 7.515625 27.59375 7.515625 
L 36.8125 7.515625 
L 36.8125 0 
L 27.59375 0 
Q 17.1875 0 13.234375 3.875 
Q 9.28125 7.765625 9.28125 18.015625 
L 9.28125 47.703125 
L 2.6875 47.703125 
L 2.6875 54.6875 
L 9.28125 54.6875 
L 9.28125 70.21875 
z
" id="DejaVuSans-74"/>
      <path d="M 44.28125 53.078125 
L 44.28125 44.578125 
Q 40.484375 46.53125 36.375 47.5 
Q 32.28125 48.484375 27.875 48.484375 
Q 21.1875 48.484375 17.84375 46.4375 
Q 14.5 44.390625 14.5 40.28125 
Q 14.5 37.15625 16.890625 35.375 
Q 19.28125 33.59375 26.515625 31.984375 
L 29.59375 31.296875 
Q 39.15625 29.25 43.1875 25.515625 
Q 47.21875 21.78125 47.21875 15.09375 
Q 47.21875 7.46875 41.1875 3.015625 
Q 35.15625 -1.421875 24.609375 -1.421875 
Q 20.21875 -1.421875 15.453125 -0.5625 
Q 10.6875 0.296875 5.421875 2 
L 5.421875 11.28125 
Q 10.40625 8.6875 15.234375 7.390625 
Q 20.0625 6.109375 24.8125 6.109375 
Q 31.15625 6.109375 34.5625 8.28125 
Q 37.984375 10.453125 37.984375 14.40625 
Q 37.984375 18.0625 35.515625 20.015625 
Q 33.0625 21.96875 24.703125 23.78125 
L 21.578125 24.515625 
Q 13.234375 26.265625 9.515625 29.90625 
Q 5.8125 33.546875 5.8125 39.890625 
Q 5.8125 47.609375 11.28125 51.796875 
Q 16.75 56 26.8125 56 
Q 31.78125 56 36.171875 55.265625 
Q 40.578125 54.546875 44.28125 53.078125 
" id="DejaVuSans-73"/>
     </defs>
     <g transform="translate(191.738906 335.860562)scale(0.1 -0.1)">
      <use xlink:href="#DejaVuSans-4e"/>
      <use x="74.804688" xlink:href="#DejaVuSans-75"/>
      <use x="138.183594" xlink:href="#DejaVuSans-6d"/>
      <use x="235.595703" xlink:href="#DejaVuSans-62"/>
      <use x="299.072266" xlink:href="#DejaVuSans-65"/>
      <use x="360.595703" xlink:href="#DejaVuSans-72"/>
      <use x="401.708984" xlink:href="#DejaVuSans-20"/>
      <use x="433.496094" xlink:href="#DejaVuSans-6f"/>
      <use x="494.677734" xlink:href="#DejaVuSans-66"/>
      <use x="529.882812" xlink:href="#DejaVuSans-20"/>
      <use x="561.669922" xlink:href="#DejaVuSans-63"/>
      <use x="616.650391" xlink:href="#DejaVuSans-6c"/>
      <use x="644.433594" xlink:href="#DejaVuSans-69"/>
      <use x="672.216797" xlink:href="#DejaVuSans-65"/>
      <use x="733.740234" xlink:href="#DejaVuSans-6e"/>
      <use x="797.119141" xlink:href="#DejaVuSans-74"/>
      <use x="836.328125" xlink:href="#DejaVuSans-73"/>
     </g>
    </g>
   </g>
   <g id="matplotlib.axis_2">
    <g id="ytick_1">
     <g id="line2d_13">
      <path clip-path="url(#pada643949d)" d="M 57.6 295.957476 
L 414.72 295.957476 
" style="fill:none;stroke:#b0b0b0;stroke-linecap:square;stroke-width:0.8;"/>
     </g>
     <g id="line2d_14">
      <defs>
       <path d="M 0 0 
L -3.5 0 
" id="m162fcb3993" style="stroke:#000000;stroke-width:0.8;"/>
      </defs>
      <g>
       <use style="stroke:#000000;stroke-width:0.8;" x="57.6" xlink:href="#m162fcb3993" y="295.957476"/>
      </g>
     </g>
     <g id="text_8">
      <!-- 0 -->
      <g transform="translate(44.2375 299.756695)scale(0.1 -0.1)">
       <use xlink:href="#DejaVuSans-30"/>
      </g>
     </g>
    </g>
    <g id="ytick_2">
     <g id="line2d_15">
      <path clip-path="url(#pada643949d)" d="M 57.6 247.407727 
L 414.72 247.407727 
" style="fill:none;stroke:#b0b0b0;stroke-linecap:square;stroke-width:0.8;"/>
     </g>
     <g id="line2d_16">
      <g>
       <use style="stroke:#000000;stroke-width:0.8;" x="57.6" xlink:href="#m162fcb3993" y="247.407727"/>
      </g>
     </g>
     <g id="text_9">
      <!-- 100 -->
      <g transform="translate(31.5125 251.206946)scale(0.1 -0.1)">
       <use xlink:href="#DejaVuSans-31"/>
       <use x="63.623047" xlink:href="#DejaVuSans-30"/>
       <use x="127.246094" xlink:href="#DejaVuSans-30"/>
      </g>
     </g>
    </g>
    <g id="ytick_3">
     <g id="line2d_17">
      <path clip-path="url(#pada643949d)" d="M 57.6 198.857978 
L 414.72 198.857978 
" style="fill:none;stroke:#b0b0b0;stroke-linecap:square;stroke-width:0.8;"/>
     </g>
     <g id="line2d_18">
      <g>
       <use style="stroke:#000000;stroke-width:0.8;" x="57.6" xlink:href="#m162fcb3993" y="198.857978"/>
      </g>
     </g>
     <g id="text_10">
      <!-- 200 -->
      <g transform="translate(31.5125 202.657197)scale(0.1 -0.1)">
       <use xlink:href="#DejaVuSans-32"/>
       <use x="63.623047" xlink:href="#DejaVuSans-30"/>
       <use x="127.246094" xlink:href="#DejaVuSans-30"/>
      </g>
     </g>
    </g>
    <g id="ytick_4">
     <g id="line2d_19">
      <path clip-path="url(#pada643949d)" d="M 57.6 150.30823 
L 414.72 150.30823 
" style="fill:none;stroke:#b0b0b0;stroke-linecap:square;stroke-width:0.8;"/>
     </g>
     <g id="line2d_20">
      <g>
       <use style="stroke:#000000;stroke-width:0.8;" x="57.6" xlink:href="#m162fcb3993" y="150.30823"/>
      </g>
     </g>
     <g id="text_11">
      <!-- 300 -->
      <defs>
       <path d="M 40.578125 39.3125 
Q 47.65625 37.796875 51.625 33 
Q 55.609375 28.21875 55.609375 21.1875 
Q 55.609375 10.40625 48.1875 4.484375 
Q 40.765625 -1.421875 27.09375 -1.421875 
Q 22.515625 -1.421875 17.65625 -0.515625 
Q 12.796875 0.390625 7.625 2.203125 
L 7.625 11.71875 
Q 11.71875 9.328125 16.59375 8.109375 
Q 21.484375 6.890625 26.8125 6.890625 
Q 36.078125 6.890625 40.9375 10.546875 
Q 45.796875 14.203125 45.796875 21.1875 
Q 45.796875 27.640625 41.28125 31.265625 
Q 36.765625 34.90625 28.71875 34.90625 
L 20.21875 34.90625 
L 20.21875 43.015625 
L 29.109375 43.015625 
Q 36.375 43.015625 40.234375 45.921875 
Q 44.09375 48.828125 44.09375 54.296875 
Q 44.09375 59.90625 40.109375 62.90625 
Q 36.140625 65.921875 28.71875 65.921875 
Q 24.65625 65.921875 20.015625 65.03125 
Q 15.375 64.15625 9.8125 62.3125 
L 9.8125 71.09375 
Q 15.4375 72.65625 20.34375 73.4375 
Q 25.25 74.21875 29.59375 74.21875 
Q 40.828125 74.21875 47.359375 69.109375 
Q 53.90625 64.015625 53.90625 55.328125 
Q 53.90625 49.265625 50.4375 45.09375 
Q 46.96875 40.921875 40.578125 39.3125 
" id="DejaVuSans-33"/>
      </defs>
      <g transform="translate(31.5125 154.107448)scale(0.1 -0.1)">
       <use xlink:href="#DejaVuSans-33"/>
       <use x="63.623047" xlink:href="#DejaVuSans-30"/>
       <use x="127.246094" xlink:href="#DejaVuSans-30"/>
      </g>
     </g>
    </g>
    <g id="ytick_5">
     <g id="line2d_21">
      <path clip-path="url(#pada643949d)" d="M 57.6 101.758481 
L 414.72 101.758481 
" style="fill:none;stroke:#b0b0b0;stroke-linecap:square;stroke-width:0.8;"/>
     </g>
     <g id="line2d_22">
      <g>
       <use style="stroke:#000000;stroke-width:0.8;" x="57.6" xlink:href="#m162fcb3993" y="101.758481"/>
      </g>
     </g>
     <g id="text_12">
      <!-- 400 -->
      <g transform="translate(31.5125 105.557699)scale(0.1 -0.1)">
       <use xlink:href="#DejaVuSans-34"/>
       <use x="63.623047" xlink:href="#DejaVuSans-30"/>
       <use x="127.246094" xlink:href="#DejaVuSans-30"/>
      </g>
     </g>
    </g>
    <g id="ytick_6">
     <g id="line2d_23">
      <path clip-path="url(#pada643949d)" d="M 57.6 53.208732 
L 414.72 53.208732 
" style="fill:none;stroke:#b0b0b0;stroke-linecap:square;stroke-width:0.8;"/>
     </g>
     <g id="line2d_24">
      <g>
       <use style="stroke:#000000;stroke-width:0.8;" x="57.6" xlink:href="#m162fcb3993" y="53.208732"/>
      </g>
     </g>
     <g id="text_13">
      <!-- 500 -->
      <defs>
       <path d="M 10.796875 72.90625 
L 49.515625 72.90625 
L 49.515625 64.59375 
L 19.828125 64.59375 
L 19.828125 46.734375 
Q 21.96875 47.46875 24.109375 47.828125 
Q 26.265625 48.1875 28.421875 48.1875 
Q 40.625 48.1875 47.75 41.5 
Q 54.890625 34.8125 54.890625 23.390625 
Q 54.890625 11.625 47.5625 5.09375 
Q 40.234375 -1.421875 26.90625 -1.421875 
Q 22.3125 -1.421875 17.546875 -0.640625 
Q 12.796875 0.140625 7.71875 1.703125 
L 7.71875 11.625 
Q 12.109375 9.234375 16.796875 8.0625 
Q 21.484375 6.890625 26.703125 6.890625 
Q 35.15625 6.890625 40.078125 11.328125 
Q 45.015625 15.765625 45.015625 23.390625 
Q 45.015625 31 40.078125 35.4375 
Q 35.15625 39.890625 26.703125 39.890625 
Q 22.75 39.890625 18.8125 39.015625 
Q 14.890625 38.140625 10.796875 36.28125 
z
" id="DejaVuSans-35"/>
      </defs>
      <g transform="translate(31.5125 57.007951)scale(0.1 -0.1)">
       <use xlink:href="#DejaVuSans-35"/>
       <use x="63.623047" xlink:href="#DejaVuSans-30"/>
       <use x="127.246094" xlink:href="#DejaVuSans-30"/>
      </g>
     </g>
    </g>
    <g id="text_14">
     <!-- Successful download requests per second -->
     <defs>
      <path d="M 53.515625 70.515625 
L 53.515625 60.890625 
Q 47.90625 63.578125 42.921875 64.890625 
Q 37.9375 66.21875 33.296875 66.21875 
Q 25.25 66.21875 20.875 63.09375 
Q 16.5 59.96875 16.5 54.203125 
Q 16.5 49.359375 19.40625 46.890625 
Q 22.3125 44.4375 30.421875 42.921875 
L 36.375 41.703125 
Q 47.40625 39.59375 52.65625 34.296875 
Q 57.90625 29 57.90625 20.125 
Q 57.90625 9.515625 50.796875 4.046875 
Q 43.703125 -1.421875 29.984375 -1.421875 
Q 24.8125 -1.421875 18.96875 -0.25 
Q 13.140625 0.921875 6.890625 3.21875 
L 6.890625 13.375 
Q 12.890625 10.015625 18.65625 8.296875 
Q 24.421875 6.59375 29.984375 6.59375 
Q 38.421875 6.59375 43.015625 9.90625 
Q 47.609375 13.234375 47.609375 19.390625 
Q 47.609375 24.75 44.3125 27.78125 
Q 41.015625 30.8125 33.5 32.328125 
L 27.484375 33.5 
Q 16.453125 35.6875 11.515625 40.375 
Q 6.59375 45.0625 6.59375 53.421875 
Q 6.59375 63.09375 13.40625 68.65625 
Q 20.21875 74.21875 32.171875 74.21875 
Q 37.3125 74.21875 42.625 73.28125 
Q 47.953125 72.359375 53.515625 70.515625 
" id="DejaVuSans-53"/>
      <path d="M 45.40625 46.390625 
L 45.40625 75.984375 
L 54.390625 75.984375 
L 54.390625 0 
L 45.40625 0 
L 45.40625 8.203125 
Q 42.578125 3.328125 38.25 0.953125 
Q 33.9375 -1.421875 27.875 -1.421875 
Q 17.96875 -1.421875 11.734375 6.484375 
Q 5.515625 14.40625 5.515625 27.296875 
Q 5.515625 40.1875 11.734375 48.09375 
Q 17.96875 56 27.875 56 
Q 33.9375 56 38.25 53.625 
Q 42.578125 51.265625 45.40625 46.390625 
M 14.796875 27.296875 
Q 14.796875 17.390625 18.875 11.75 
Q 22.953125 6.109375 30.078125 6.109375 
Q 37.203125 6.109375 41.296875 11.75 
Q 45.40625 17.390625 45.40625 27.296875 
Q 45.40625 37.203125 41.296875 42.84375 
Q 37.203125 48.484375 30.078125 48.484375 
Q 22.953125 48.484375 18.875 42.84375 
Q 14.796875 37.203125 14.796875 27.296875 
" id="DejaVuSans-64"/>
      <path d="M 4.203125 54.6875 
L 13.1875 54.6875 
L 24.421875 12.015625 
L 35.59375 54.6875 
L 46.1875 54.6875 
L 57.421875 12.015625 
L 68.609375 54.6875 
L 77.59375 54.6875 
L 63.28125 0 
L 52.6875 0 
L 40.921875 44.828125 
L 29.109375 0 
L 18.5 0 
z
" id="DejaVuSans-77"/>
      <path d="M 34.28125 27.484375 
Q 23.390625 27.484375 19.1875 25 
Q 14.984375 22.515625 14.984375 16.5 
Q 14.984375 11.71875 18.140625 8.90625 
Q 21.296875 6.109375 26.703125 6.109375 
Q 34.1875 6.109375 38.703125 11.40625 
Q 43.21875 16.703125 43.21875 25.484375 
L 43.21875 27.484375 
z
M 52.203125 31.203125 
L 52.203125 0 
L 43.21875 0 
L 43.21875 8.296875 
Q 40.140625 3.328125 35.546875 0.953125 
Q 30.953125 -1.421875 24.3125 -1.421875 
Q 15.921875 -1.421875 10.953125 3.296875 
Q 6 8.015625 6 15.921875 
Q 6 25.140625 12.171875 29.828125 
Q 18.359375 34.515625 30.609375 34.515625 
L 43.21875 34.515625 
L 43.21875 35.40625 
Q 43.21875 41.609375 39.140625 45 
Q 35.0625 48.390625 27.6875 48.390625 
Q 23 48.390625 18.546875 47.265625 
Q 14.109375 46.140625 10.015625 43.890625 
L 10.015625 52.203125 
Q 14.9375 54.109375 19.578125 55.046875 
Q 24.21875 56 28.609375 56 
Q 40.484375 56 46.34375 49.84375 
Q 52.203125 43.703125 52.203125 31.203125 
" id="DejaVuSans-61"/>
      <path d="M 14.796875 27.296875 
Q 14.796875 17.390625 18.875 11.75 
Q 22.953125 6.109375 30.078125 6.109375 
Q 37.203125 6.109375 41.296875 11.75 
Q 45.40625 17.390625 45.40625 27.296875 
Q 45.40625 37.203125 41.296875 42.84375 
Q 37.203125 48.484375 30.078125 48.484375 
Q 22.953125 48.484375 18.875 42.84375 
Q 14.796875 37.203125 14.796875 27.296875 
M 45.40625 8.203125 
Q 42.578125 3.328125 38.25 0.953125 
Q 33.9375 -1.421875 27.875 -1.421875 
Q 17.96875 -1.421875 11.734375 6.484375 
Q 5.515625 14.40625 5.515625 27.296875 
Q 5.515625 40.1875 11.734375 48.09375 
Q 17.96875 56 27.875 56 
Q 33.9375 56 38.25 53.625 
Q 42.578125 51.265625 45.40625 46.390625 
L 45.40625 54.6875 
L 54.390625 54.6875 
L 54.390625 -20.796875 
L 45.40625 -20.796875 
z
" id="DejaVuSans-71"/>
      <path d="M 18.109375 8.203125 
L 18.109375 -20.796875 
L 9.078125 -20.796875 
L 9.078125 54.6875 
L 18.109375 54.6875 
L 18.109375 46.390625 
Q 20.953125 51.265625 25.265625 53.625 
Q 29.59375 56 35.59375 56 
Q 45.5625 56 51.78125 48.09375 
Q 58.015625 40.1875 58.015625 27.296875 
Q 58.015625 14.40625 51.78125 6.484375 
Q 45.5625 -1.421875 35.59375 -1.421875 
Q 29.59375 -1.421875 25.265625 0.953125 
Q 20.953125 3.328125 18.109375 8.203125 
M 48.6875 27.296875 
Q 48.6875 37.203125 44.609375 42.84375 
Q 40.53125 48.484375 33.40625 48.484375 
Q 26.265625 48.484375 22.1875 42.84375 
Q 18.109375 37.203125 18.109375 27.296875 
Q 18.109375 17.390625 22.1875 11.75 
Q 26.265625 6.109375 33.40625 6.109375 
Q 40.53125 6.109375 44.609375 11.75 
Q 48.6875 17.390625 48.6875 27.296875 
" id="DejaVuSans-70"/>
     </defs>
     <g transform="translate(25.432812 279.366281)rotate(-90)scale(0.1 -0.1)">
      <use xlink:href="#DejaVuSans-53"/>
      <use x="63.476562" xlink:href="#DejaVuSans-75"/>
      <use x="126.855469" xlink:href="#DejaVuSans-63"/>
      <use x="181.835938" xlink:href="#DejaVuSans-63"/>
      <use x="236.816406" xlink:href="#DejaVuSans-65"/>
      <use x="298.339844" xlink:href="#DejaVuSans-73"/>
      <use x="350.439453" xlink:href="#DejaVuSans-73"/>
      <use x="402.539062" xlink:href="#DejaVuSans-66"/>
      <use x="437.744141" xlink:href="#DejaVuSans-75"/>
      <use x="501.123047" xlink:href="#DejaVuSans-6c"/>
      <use x="528.90625" xlink:href="#DejaVuSans-20"/>
      <use x="560.693359" xlink:href="#DejaVuSans-64"/>
      <use x="624.169922" xlink:href="#DejaVuSans-6f"/>
      <use x="685.351562" xlink:href="#DejaVuSans-77"/>
      <use x="767.138672" xlink:href="#DejaVuSans-6e"/>
      <use x="830.517578" xlink:href="#DejaVuSans-6c"/>
      <use x="858.300781" xlink:href="#DejaVuSans-6f"/>
      <use x="919.482422" xlink:href="#DejaVuSans-61"/>
      <use x="980.761719" xlink:href="#DejaVuSans-64"/>
      <use x="1044.238281" xlink:href="#DejaVuSans-20"/>
      <use x="1076.025391" xlink:href="#DejaVuSans-72"/>
      <use x="1117.107422" xlink:href="#DejaVuSans-65"/>
      <use x="1178.630859" xlink:href="#DejaVuSans-71"/>
      <use x="1242.107422" xlink:href="#DejaVuSans-75"/>
      <use x="1305.486328" xlink:href="#DejaVuSans-65"/>
      <use x="1367.009766" xlink:href="#DejaVuSans-73"/>
      <use x="1419.109375" xlink:href="#DejaVuSans-74"/>
      <use x="1458.318359" xlink:href="#DejaVuSans-73"/>
      <use x="1510.417969" xlink:href="#DejaVuSans-20"/>
      <use x="1542.205078" xlink:href="#DejaVuSans-70"/>
      <use x="1605.681641" xlink:href="#DejaVuSans-65"/>
      <use x="1667.205078" xlink:href="#DejaVuSans-72"/>
      <use x="1708.318359" xlink:href="#DejaVuSans-20"/>
      <use x="1740.105469" xlink:href="#DejaVuSans-73"/>
      <use x="1792.205078" xlink:href="#DejaVuSans-65"/>
      <use x="1853.728516" xlink:href="#DejaVuSans-63"/>
      <use x="1908.708984" xlink:href="#DejaVuSans-6f"/>
      <use x="1969.890625" xlink:href="#DejaVuSans-6e"/>
      <use x="2033.269531" xlink:href="#DejaVuSans-64"/>
     </g>
    </g>
   </g>
   <g id="line2d_25">
    <path clip-path="url(#pada643949d)" d="M 57.6 295.488 
L 57.95712 295.483145 
L 62.9568 289.023115 
L 63.31392 288.322543 
L 63.67104 287.994832 
L 64.38528 286.965577 
L 64.7424 286.776233 
L 65.09952 286.182955 
L 65.81376 285.557634 
L 66.17088 284.638102 
L 66.528 284.515757 
L 66.88512 284.152605 
L 67.59936 282.791755 
L 67.95648 282.697083 
L 68.3136 282.159152 
L 69.02784 280.47399 
L 69.38496 280.001116 
L 70.0992 279.584559 
L 70.45632 278.882044 
L 71.52768 278.238274 
L 72.24192 276.157917 
L 72.59904 275.870503 
L 72.95616 275.89672 
L 73.31328 275.489873 
L 73.6704 275.312181 
L 74.74176 273.789175 
L 75.09888 273.653721 
L 75.456 271.868062 
L 75.81312 272.730791 
L 76.17024 272.086536 
L 76.52736 271.940886 
L 76.88448 270.311557 
L 77.2416 269.384257 
L 77.59872 270.499444 
L 77.95584 268.725922 
L 78.31296 267.975828 
L 79.0272 267.796194 
L 79.38432 268.122934 
L 79.74144 265.867313 
L 80.09856 265.658063 
L 80.45568 266.858213 
L 81.16992 264.015625 
L 81.52704 264.057378 
L 81.88416 263.359718 
L 82.24128 264.641432 
L 82.5984 262.012948 
L 82.95552 263.036377 
L 83.31264 262.743622 
L 83.66976 261.081764 
L 84.02688 262.422223 
L 84.384 260.324873 
L 84.74112 259.705379 
L 85.09824 260.863776 
L 85.45536 258.785846 
L 85.81248 258.322682 
L 86.52672 256.813756 
L 86.88384 257.163799 
L 87.24096 258.199851 
L 87.59808 257.967783 
L 87.9552 254.759616 
L 88.31232 255.560687 
L 88.66944 256.649172 
L 89.02656 255.389791 
L 89.38368 254.635814 
L 90.45504 254.280915 
L 90.81216 250.913505 
L 91.5264 251.359191 
L 91.88352 250.912534 
L 92.24064 249.394868 
L 92.59776 250.803297 
L 92.95488 249.222031 
L 93.312 249.501192 
L 93.66912 248.384548 
L 94.38336 247.253339 
L 94.74048 248.289876 
L 95.0976 245.376406 
L 95.45472 245.370094 
L 95.81184 247.532986 
L 96.16896 245.13123 
L 96.52608 246.057073 
L 96.8832 245.382717 
L 97.24032 245.168127 
L 97.59744 242.537216 
L 97.95456 243.92671 
L 98.31168 240.823896 
L 98.6688 241.172483 
L 99.02592 241.129759 
L 99.38304 242.251744 
L 99.74016 238.877536 
L 100.09728 241.819166 
L 100.4544 239.977674 
L 100.81152 237.450659 
L 101.16864 238.298338 
L 101.52576 236.441795 
L 101.88288 237.373951 
L 102.24 236.61706 
L 102.59712 238.844037 
L 102.95424 238.317758 
L 103.31136 237.076341 
L 103.66848 237.677387 
L 104.0256 234.702743 
L 104.38272 234.596905 
L 104.73984 235.052302 
L 105.09696 233.849724 
L 105.45408 232.248554 
L 105.8112 232.952525 
L 106.16832 234.071111 
L 106.52544 233.192361 
L 106.88256 233.597266 
L 107.23968 230.68865 
L 107.5968 232.29856 
L 107.95392 230.899842 
L 108.31104 231.031897 
L 108.66816 227.099853 
L 109.02528 230.582326 
L 109.3824 227.940249 
L 109.73952 227.868395 
L 110.09664 225.42343 
L 110.45376 225.97981 
L 110.81088 227.877134 
L 111.168 225.93126 
L 111.52512 226.876038 
L 111.88224 225.746771 
L 112.23936 223.303748 
L 112.59648 221.970572 
L 112.9536 224.561186 
L 113.31072 224.842775 
L 113.66784 223.634857 
L 114.02496 223.238691 
L 114.38208 221.270484 
L 114.7392 218.539076 
L 115.09632 219.094485 
L 115.45344 221.793851 
L 115.81056 218.715797 
L 116.16768 217.355918 
L 116.5248 218.603647 
L 116.88192 218.321087 
L 117.23904 215.560548 
L 117.59616 215.490151 
L 117.95328 214.172511 
L 118.3104 216.265491 
L 118.66752 217.534096 
L 119.02464 214.08852 
L 119.38176 215.805725 
L 119.73888 213.497184 
L 120.096 213.13646 
L 120.45312 212.405786 
L 120.81024 213.056352 
L 121.16736 213.18064 
L 121.52448 210.957547 
L 121.8816 212.929638 
L 122.23872 211.674627 
L 122.59584 211.821247 
L 123.31008 212.472784 
L 123.6672 209.610777 
L 124.02432 209.599125 
L 124.38144 206.332212 
L 124.73856 205.399572 
L 125.09568 207.865899 
L 125.4528 207.064342 
L 125.80992 205.746217 
L 126.52416 207.897456 
L 126.88128 201.79718 
L 127.2384 206.679828 
L 127.59552 206.821594 
L 127.95264 206.119079 
L 128.30976 203.31436 
L 128.66688 206.065674 
L 129.024 202.915766 
L 129.38112 203.140552 
L 129.73824 199.568747 
L 130.09536 202.078769 
L 130.45248 203.218231 
L 130.8096 197.788913 
L 131.16672 199.144422 
L 131.52384 199.94792 
L 131.88096 199.406105 
L 132.23808 200.170764 
L 132.95232 193.861724 
L 133.30944 196.764028 
L 133.66656 197.24467 
L 134.02368 196.577597 
L 134.3808 198.662808 
L 134.73792 197.953497 
L 135.45216 195.586696 
L 135.80928 196.115889 
L 136.1664 194.897775 
L 136.52352 195.872654 
L 136.88064 189.814131 
L 137.23776 189.245128 
L 137.59488 192.207634 
L 137.952 189.542253 
L 138.30912 190.705019 
L 138.66624 185.896166 
L 139.02336 188.813035 
L 139.38048 184.825159 
L 139.7376 189.41311 
L 140.09472 186.256891 
L 140.45184 188.707197 
L 140.80896 190.224377 
L 141.16608 189.977258 
L 141.5232 186.330201 
L 141.88032 185.991809 
L 142.23744 181.184413 
L 142.59456 181.104792 
L 142.95168 186.697723 
L 143.3088 185.123254 
L 143.66592 180.099326 
L 144.02304 186.082597 
L 144.38016 180.954773 
L 144.73728 183.690551 
L 145.0944 180.149818 
L 145.45152 178.464656 
L 145.80864 179.64927 
L 146.16576 182.600124 
L 146.52288 182.168517 
L 146.88 180.428494 
L 147.23712 175.334654 
L 147.59424 177.07225 
L 147.95136 180.538216 
L 148.30848 176.48237 
L 148.6656 176.531891 
L 149.02272 174.027695 
L 149.37984 174.660784 
L 149.73696 177.590761 
L 150.09408 178.197147 
L 150.4512 171.424457 
L 150.80832 175.203084 
L 151.16544 170.066035 
L 151.52256 176.387213 
L 151.87968 171.177339 
L 152.2368 170.677762 
L 152.59392 172.628006 
L 152.95104 171.683227 
L 153.30816 168.658578 
L 153.66528 168.128415 
L 154.0224 171.571563 
L 154.37952 171.994917 
L 154.73664 173.118358 
L 155.09376 172.100755 
L 155.45088 172.187174 
L 156.16512 164.83043 
L 156.52224 163.865747 
L 156.87936 167.602621 
L 157.23648 163.22489 
L 157.5936 160.589124 
L 157.95072 166.733095 
L 158.30784 167.480761 
L 158.66496 159.388975 
L 159.02208 164.021592 
L 159.3792 163.711844 
L 159.73632 161.265422 
L 160.09344 165.992711 
L 160.45056 157.945105 
L 160.80768 162.435471 
L 161.1648 162.052414 
L 161.52192 163.449676 
L 161.87904 162.468485 
L 162.23616 160.119163 
L 162.59328 154.51021 
L 162.9504 155.542863 
L 163.30752 156.938183 
L 163.66464 156.044382 
L 164.02176 151.28942 
L 164.37888 160.345405 
L 164.736 155.10009 
L 165.09312 154.258723 
L 165.45024 155.276811 
L 166.16448 158.658301 
L 166.5216 158.272816 
L 166.87872 154.462632 
L 167.23584 156.956147 
L 167.59296 150.164037 
L 167.95008 149.117304 
L 168.3072 158.227665 
L 168.66432 152.105056 
L 169.02144 156.599791 
L 169.37856 153.295496 
L 169.73568 155.694824 
L 170.0928 152.340037 
L 170.44992 155.695795 
L 170.80704 152.156033 
L 171.16416 152.771644 
L 171.52128 152.886707 
L 171.8784 155.416149 
L 172.23552 152.111853 
L 172.59264 153.954801 
L 172.94976 149.166825 
L 173.30688 153.333364 
L 173.664 150.751489 
L 174.02112 145.624635 
L 174.37824 145.325569 
L 175.09248 149.432878 
L 175.4496 148.439064 
L 175.80672 152.224488 
L 176.16384 151.275826 
L 176.87808 148.453629 
L 177.2352 152.145352 
L 177.59232 149.093515 
L 177.94944 144.768218 
L 178.66368 150.540297 
L 179.0208 151.61179 
L 179.37792 146.731084 
L 179.73504 150.557775 
L 180.09216 148.899316 
L 180.44928 144.994945 
L 181.16352 142.415497 
L 181.87776 147.566625 
L 182.23488 149.352285 
L 182.592 141.297882 
L 182.94912 145.355184 
L 183.30624 145.253715 
L 183.66336 142.513082 
L 184.02048 144.910954 
L 184.3776 141.340605 
L 185.09184 142.25771 
L 185.44896 148.120578 
L 185.80608 149.06487 
L 186.1632 139.492316 
L 186.52032 147.301058 
L 186.87744 138.501902 
L 187.23456 138.488308 
L 187.59168 137.576543 
L 187.9488 141.765901 
L 188.30592 147.42486 
L 188.66304 141.362453 
L 189.02016 141.390126 
L 189.37728 142.76991 
L 189.7344 142.017389 
L 190.09152 146.863139 
L 190.44864 142.886429 
L 190.80576 136.230259 
L 191.16288 144.526925 
L 191.52 145.080878 
L 192.23424 138.978175 
L 192.59136 139.970046 
L 192.94848 140.253091 
L 193.66272 136.903158 
L 194.01984 142.788359 
L 194.37696 142.363549 
L 194.73408 144.211838 
L 195.0912 138.143604 
L 195.44832 139.559801 
L 195.80544 136.736633 
L 196.16256 138.00718 
L 196.51968 134.159612 
L 196.8768 137.365837 
L 197.23392 133.750823 
L 197.59104 143.10199 
L 197.94816 141.243991 
L 198.30528 140.175411 
L 198.6624 136.216665 
L 199.01952 137.998926 
L 199.37664 141.158544 
L 199.73376 132.998302 
L 200.09088 134.48441 
L 200.448 130.975234 
L 200.80512 133.36728 
L 201.16224 136.67012 
L 201.51936 130.413513 
L 201.87648 136.220549 
L 202.2336 131.766595 
L 202.59072 140.768689 
L 202.94784 131.588903 
L 203.30496 132.813813 
L 203.66208 138.225168 
L 204.0192 130.079977 
L 204.37632 129.388628 
L 204.73344 136.644388 
L 205.09056 130.82036 
L 205.44768 128.720098 
L 205.8048 135.082543 
L 206.16192 137.080365 
L 206.51904 131.965163 
L 206.87616 134.342159 
L 207.23328 130.277574 
L 207.5904 137.990187 
L 207.94752 132.809929 
L 208.30464 134.951458 
L 208.66176 129.5804 
L 209.01888 126.917446 
L 209.376 137.37846 
L 210.09024 130.256698 
L 210.44736 131.900107 
L 210.80448 131.542781 
L 211.1616 135.675821 
L 211.51872 133.554197 
L 212.23296 126.3164 
L 212.59008 127.681619 
L 212.9472 133.814423 
L 213.30432 134.638313 
L 213.66144 130.172707 
L 214.01856 131.790384 
L 214.37568 125.073041 
L 214.7328 134.083389 
L 215.08992 131.775334 
L 215.44704 134.708224 
L 215.80416 129.275993 
L 216.16128 129.755179 
L 216.5184 126.017819 
L 216.87552 134.224183 
L 217.23264 132.585629 
L 217.58976 126.92133 
L 217.94688 123.618976 
L 218.304 127.423334 
L 218.66112 128.151581 
L 219.01824 128.064191 
L 219.37536 130.859686 
L 219.73248 130.934938 
L 220.0896 122.774696 
L 220.44672 130.265922 
L 220.80384 129.888691 
L 221.16096 123.791813 
L 221.51808 122.54894 
L 221.8752 123.222325 
L 222.23232 122.309589 
L 222.58944 130.375645 
L 222.94656 122.959185 
L 223.30368 120.502568 
L 223.6608 119.771409 
L 224.01792 123.626744 
L 224.37504 121.561438 
L 224.73216 130.220285 
L 225.08928 128.493371 
L 225.4464 126.006653 
L 225.80352 120.025324 
L 226.16064 125.372108 
L 226.51776 118.683409 
L 226.87488 125.995486 
L 227.232 121.752238 
L 227.58912 128.606977 
L 227.94624 120.237972 
L 228.30336 128.742431 
L 228.66048 122.26104 
L 229.0176 122.530976 
L 229.37472 126.424181 
L 229.73184 121.781854 
L 230.44608 127.529173 
L 230.8032 118.800899 
L 231.16032 125.064788 
L 231.51744 118.311032 
L 231.87456 125.217234 
L 232.23168 122.89607 
L 232.5888 125.87751 
L 232.94592 125.298797 
L 233.30304 115.277644 
L 233.66016 121.289074 
L 234.01728 122.468347 
L 234.3744 117.191475 
L 234.73152 119.081031 
L 235.08864 116.576835 
L 235.44576 122.261525 
L 235.80288 123.054343 
L 236.51712 114.926144 
L 236.87424 125.762933 
L 237.23136 116.980769 
L 237.58848 121.63669 
L 237.9456 123.152413 
L 238.30272 119.444669 
L 238.65984 124.128748 
L 239.01696 113.128832 
L 239.37408 115.13248 
L 239.7312 118.45037 
L 240.08832 123.318453 
L 240.44544 118.61641 
L 240.80256 118.751864 
L 241.15968 113.845912 
L 241.5168 120.741432 
L 241.87392 118.787791 
L 242.23104 115.977731 
L 242.58816 114.716409 
L 242.94528 112.261733 
L 243.3024 114.948962 
L 243.65952 110.909137 
L 244.01664 117.663864 
L 244.37376 116.16659 
L 244.73088 112.9123 
L 245.088 115.157726 
L 245.44512 116.404483 
L 245.80224 118.526593 
L 246.15936 110.139138 
L 246.51648 112.913271 
L 246.8736 121.493954 
L 247.23072 114.7368 
L 247.58784 120.545777 
L 247.94496 117.118165 
L 248.30208 112.544778 
L 248.6592 113.500237 
L 249.01632 120.05057 
L 249.37344 120.1734 
L 249.73056 119.048017 
L 250.08768 112.696739 
L 250.4448 112.854526 
L 250.80192 114.766415 
L 251.15904 115.77188 
L 251.51616 112.290378 
L 251.87328 118.818377 
L 252.2304 110.561521 
L 252.58752 119.917543 
L 252.94464 117.754652 
L 253.65888 110.832914 
L 254.016 107.371317 
L 254.37312 113.827463 
L 254.73024 112.437483 
L 255.08736 108.863736 
L 255.8016 115.705367 
L 256.15872 117.807571 
L 256.51584 106.101256 
L 256.87296 106.984861 
L 257.23008 106.667831 
L 257.5872 112.997748 
L 257.94432 111.279572 
L 258.30144 105.701206 
L 258.65856 108.466599 
L 259.01568 104.770507 
L 259.3728 109.056964 
L 259.72992 111.295108 
L 260.08704 105.334655 
L 260.44416 115.163066 
L 260.80128 112.240857 
L 261.1584 115.702454 
L 261.51552 107.705825 
L 261.87264 112.856468 
L 262.22976 111.883531 
L 262.58688 107.246544 
L 262.944 109.190476 
L 263.30112 103.719891 
L 263.65824 114.347916 
L 264.01536 109.619171 
L 264.37248 113.715313 
L 264.7296 105.9391 
L 265.08672 112.144728 
L 265.44384 111.481053 
L 265.80096 110.489668 
L 266.5152 103.517438 
L 266.87232 108.532142 
L 267.22944 101.875 
L 267.94368 111.912661 
L 268.3008 111.739338 
L 268.65792 102.096872 
L 269.01504 106.696476 
L 269.37216 101.080241 
L 270.0864 113.469651 
L 270.80064 101.007416 
L 271.15776 101.488544 
L 271.51488 109.016668 
L 271.872 110.992157 
L 272.22912 104.646705 
L 272.58624 107.97382 
L 272.94336 104.571453 
L 273.30048 106.619767 
L 273.6576 102.092988 
L 274.01472 110.227984 
L 274.37184 111.621362 
L 274.72896 109.873086 
L 275.08608 109.605577 
L 275.4432 104.900135 
L 275.80032 103.228082 
L 276.15744 105.594882 
L 276.51456 99.682979 
L 276.87168 99.812607 
L 277.2288 110.93584 
L 277.58592 104.194707 
L 277.94304 105.387574 
L 278.30016 110.598419 
L 278.65728 101.332699 
L 279.0144 107.553379 
L 279.37152 108.054412 
L 279.72864 104.697682 
L 280.08576 109.521586 
L 280.44288 106.287201 
L 280.8 106.439647 
L 281.15712 97.914312 
L 281.51424 106.746482 
L 281.87136 102.604703 
L 282.22848 107.040693 
L 282.5856 107.491235 
L 282.94272 97.645346 
L 283.29984 95.993198 
L 283.65696 103.959726 
L 284.01408 96.827283 
L 284.3712 107.795642 
L 284.72832 106.400808 
L 285.08544 94.342021 
L 285.79968 102.37749 
L 286.1568 99.463049 
L 286.51392 101.061792 
L 286.87104 103.244103 
L 287.22816 104.323364 
L 287.58528 100.523861 
L 287.9424 104.542323 
L 288.29952 93.209355 
L 289.01376 102.135712 
L 289.37088 98.01044 
L 289.728 92.527717 
L 290.08512 105.622555 
L 290.44224 95.873766 
L 290.79936 95.274662 
L 291.15648 94.346391 
L 291.5136 103.576183 
L 291.87072 103.167394 
L 292.22784 92.300019 
L 292.58496 102.077453 
L 292.94208 98.487199 
L 293.2992 98.720237 
L 293.65632 99.312544 
L 294.01344 95.442158 
L 294.37056 102.956203 
L 294.72768 93.033605 
L 295.0848 100.555903 
L 295.44192 103.742709 
L 296.15616 94.25269 
L 296.51328 98.5809 
L 297.22752 92.258266 
L 297.58464 98.65955 
L 297.94176 96.672895 
L 298.656 99.855331 
L 299.72736 91.156672 
L 300.08448 103.128069 
L 300.4416 88.887457 
L 300.79872 94.729448 
L 301.15584 94.097816 
L 301.51296 97.318606 
L 301.87008 92.308758 
L 302.2272 91.398935 
L 302.58432 92.439842 
L 302.94144 98.04491 
L 303.29856 98.070642 
L 303.65568 93.514248 
L 304.0128 93.771562 
L 304.36992 88.623346 
L 304.72704 92.577723 
L 305.08416 98.058019 
L 305.44128 86.961003 
L 305.7984 91.288242 
L 306.15552 97.702149 
L 306.51264 100.677763 
L 306.86976 87.487768 
L 307.22688 91.826659 
L 307.584 86.930902 
L 307.94112 96.317025 
L 308.29824 92.874848 
L 308.65536 90.635733 
L 309.3696 99.601901 
L 309.72672 87.588751 
L 310.44096 98.398838 
L 310.79808 88.092697 
L 311.1552 94.221618 
L 311.51232 93.202073 
L 311.86944 87.476601 
L 312.22656 91.307176 
L 312.58368 97.972086 
L 312.9408 96.226722 
L 313.29792 88.029097 
L 313.65504 92.523347 
L 314.01216 98.611486 
L 314.36928 86.970227 
L 314.7264 87.57807 
L 315.08352 85.048628 
L 315.44064 84.243188 
L 315.79776 90.627965 
L 316.86912 91.483412 
L 317.22624 96.574824 
L 317.58336 94.789164 
L 317.94048 94.704688 
L 318.2976 86.936728 
L 318.65472 88.403416 
L 319.01184 84.125697 
L 319.36896 95.77521 
L 319.72608 83.107124 
L 320.0832 88.983585 
L 320.44032 92.676765 
L 320.79744 82.702704 
L 321.15456 93.139444 
L 321.51168 85.919125 
L 321.8688 86.072057 
L 322.22592 83.743611 
L 322.58304 82.210895 
L 323.6544 88.140276 
L 324.01152 93.500168 
L 324.36864 84.831125 
L 324.72576 82.298285 
L 325.08288 90.399296 
L 325.44 82.87894 
L 325.79712 83.790219 
L 326.15424 81.373412 
L 326.51136 89.598711 
L 326.86848 79.789719 
L 327.2256 90.039542 
L 327.58272 79.871768 
L 327.93984 86.475991 
L 328.29696 87.774211 
L 328.65408 89.756983 
L 329.36832 79.64844 
L 329.72544 93.012243 
L 330.08256 92.75056 
L 330.43968 84.55245 
L 330.7968 91.768884 
L 331.15392 92.192724 
L 331.51104 90.054107 
L 331.86816 79.395495 
L 332.22528 84.227652 
L 332.5824 87.445529 
L 332.93952 83.557665 
L 333.29664 91.980561 
L 333.65376 79.856718 
L 334.01088 89.068062 
L 334.368 80.607297 
L 334.72512 88.280585 
L 335.08224 88.354866 
L 335.43936 91.789761 
L 335.79648 90.944995 
L 336.1536 81.94193 
L 336.51072 85.394788 
L 336.86784 85.560828 
L 337.22496 79.418799 
L 337.58208 78.596852 
L 337.9392 86.015254 
L 338.29632 81.312725 
L 338.65344 88.940862 
L 339.01056 78.033675 
L 339.36768 88.524305 
L 339.7248 81.466628 
L 340.08192 83.194028 
L 340.43904 75.508602 
L 340.79616 85.757454 
L 341.15328 85.664239 
L 341.5104 86.453658 
L 342.22464 81.106874 
L 342.58176 82.686683 
L 342.93888 82.359943 
L 343.296 86.814383 
L 343.65312 75.384801 
L 344.01024 80.912675 
L 344.36736 77.677805 
L 344.72448 84.815104 
L 345.0816 83.430951 
L 345.43872 84.818017 
L 345.79584 85.208842 
L 346.15296 76.123728 
L 346.51008 73.174331 
L 346.8672 79.895558 
L 347.22432 75.789706 
L 347.58144 79.005641 
L 347.93856 75.661534 
L 348.29568 86.478904 
L 348.6528 73.969575 
L 349.00992 87.786348 
L 349.36704 85.943886 
L 349.72416 73.463202 
L 350.08128 86.548815 
L 350.4384 73.63264 
L 350.79552 76.126155 
L 351.15264 79.783893 
L 351.50976 74.022495 
L 351.86688 86.73379 
L 352.224 75.562978 
L 352.58112 75.07651 
L 353.29536 85.689485 
L 353.65248 78.040957 
L 354.0096 78.989134 
L 354.36672 82.288089 
L 354.72384 71.156603 
L 355.08096 79.411031 
L 355.43808 76.7942 
L 355.7952 83.19597 
L 356.15232 71.948935 
L 356.50944 77.057825 
L 356.86656 73.233076 
L 357.22368 79.139638 
L 357.5808 70.403596 
L 357.93792 81.432157 
L 358.29504 70.041901 
L 358.65216 71.121647 
L 359.00928 79.232368 
L 359.3664 70.761408 
L 359.72352 72.257226 
L 360.08064 77.424861 
L 360.43776 75.395967 
L 360.79488 80.188798 
L 361.152 75.773199 
L 361.50912 77.195706 
L 361.86624 77.775876 
L 362.22336 83.121689 
L 362.58048 74.936686 
L 362.9376 69.599613 
L 363.29472 71.614427 
L 363.65184 78.724538 
L 364.00896 71.464894 
L 364.36608 77.990951 
L 364.7232 79.374619 
L 365.08032 76.760701 
L 365.43744 80.962196 
L 365.79456 81.821526 
L 366.15168 81.432157 
L 366.5088 73.333574 
L 366.86592 77.943372 
L 367.22304 72.322282 
L 367.93728 79.739713 
L 368.2944 73.727312 
L 368.65152 81.032593 
L 369.00864 66.476893 
L 369.36576 70.89055 
L 369.72288 77.126766 
L 370.08 67.686267 
L 370.43712 66.53321 
L 370.79424 68.795629 
L 371.15136 67.626551 
L 371.50848 74.990091 
L 371.8656 69.368516 
L 372.22272 78.435181 
L 372.57984 69.983156 
L 372.93696 71.75425 
L 373.29408 80.026642 
L 373.6512 67.439149 
L 374.00832 65.16605 
L 374.36544 71.747453 
L 374.72256 67.222617 
L 375.07968 69.370943 
L 375.4368 80.292695 
L 375.79392 79.724177 
L 376.15104 72.501431 
L 376.50816 69.786044 
L 376.86528 64.891743 
L 377.2224 76.19461 
L 377.57952 71.006584 
L 377.93664 76.906835 
L 378.29376 77.703051 
L 378.65088 68.01592 
L 379.008 74.574505 
L 379.36512 73.383094 
L 379.72224 76.217429 
L 380.43648 63.391556 
L 380.7936 70.24144 
L 381.15072 72.231009 
L 381.50784 62.589514 
L 381.86496 75.904768 
L 382.22208 68.006695 
L 382.5792 73.287937 
L 382.93632 69.571939 
L 383.65056 71.828046 
L 384.00768 74.351176 
L 384.3648 71.203696 
L 384.72192 69.988982 
L 385.07904 65.852057 
L 385.43616 66.44048 
L 385.79328 70.62644 
L 386.1504 69.475811 
L 386.50752 75.88632 
L 387.22176 67.038613 
L 387.57888 63.415831 
L 387.936 70.01714 
L 388.29312 66.540978 
L 388.65024 68.023202 
L 389.36448 62.760409 
L 389.7216 63.484286 
L 390.07872 63.48283 
L 390.43584 69.576309 
L 390.79296 67.974652 
L 391.15008 70.389031 
L 391.5072 70.639063 
L 391.86432 70.475936 
L 392.22144 60.793659 
L 392.57856 60.907751 
L 392.93568 62.41425 
L 393.2928 72.971878 
L 393.64992 65.862253 
L 394.00704 61.250998 
L 394.36416 72.1878 
L 394.72128 71.04591 
L 395.0784 60.053275 
L 395.43552 63.37602 
L 395.79264 68.697073 
L 396.14976 59.452715 
L 396.50688 64.094557 
L 396.864 72.136337 
L 397.22112 66.346294 
L 397.57824 67.714911 
L 397.93536 65.201976 
L 398.29248 61.585991 
L 398.6496 71.279434 
L 399.00672 60.554309 
L 399.36384 61.974389 
L 399.72096 74.035603 
L 400.07808 59.489127 
L 400.4352 58.504053 
L 400.79232 58.086525 
L 401.14944 56.983475 
L 401.50656 64.130969 
L 401.86368 58.625913 
L 402.2208 73.235018 
L 402.57792 70.72888 
L 402.93504 66.175884 
L 403.29216 69.384537 
L 403.64928 59.290073 
L 404.0064 65.167991 
L 404.36352 66.41572 
L 404.72064 68.891272 
L 405.07776 64.982531 
L 405.792 61.074762 
L 406.14912 71.310506 
L 406.50624 62.379779 
L 406.86336 72.119345 
L 407.22048 56.881035 
L 407.5776 65.699611 
L 407.93472 58.13556 
L 408.29184 70.13366 
L 408.64896 69.298604 
L 409.00608 62.19966 
L 409.3632 64.046978 
L 409.72032 63.648384 
L 410.43456 60.39895 
L 410.79168 63.720723 
L 411.1488 69.973446 
L 411.50592 67.224073 
L 411.86304 67.165328 
L 412.22016 70.445349 
L 412.57728 60.844636 
L 412.9344 59.325515 
L 413.29152 58.483662 
L 413.64864 53.568 
L 414.00576 69.142274 
L 414.36288 57.21263 
L 414.72 64.440716 
L 414.72 64.440716 
" style="fill:none;stroke:#000080;stroke-linecap:square;stroke-width:0.5;"/>
   </g>
   <g id="patch_3">
    <path d="M 57.6 307.584 
L 57.6 41.472 
" style="fill:none;stroke:#000000;stroke-linecap:square;stroke-linejoin:miter;stroke-width:0.8;"/>
   </g>
   <g id="patch_4">
    <path d="M 414.72 307.584 
L 414.72 41.472 
" style="fill:none;stroke:#000000;stroke-linecap:square;stroke-linejoin:miter;stroke-width:0.8;"/>
   </g>
   <g id="patch_5">
    <path d="M 57.6 307.584 
L 414.72 307.584 
" style="fill:none;stroke:#000000;stroke-linecap:square;stroke-linejoin:miter;stroke-width:0.8;"/>
   </g>
   <g id="patch_6">
    <path d="M 57.6 41.472 
L 414.72 41.472 
" style="fill:none;stroke:#000000;stroke-linecap:square;stroke-linejoin:miter;stroke-width:0.8;"/>
   </g>
   <g id="text_15">
    <!-- Test -->
    <defs>
     <path d="M -0.296875 72.90625 
L 61.375 72.90625 
L 61.375 64.59375 
L 35.5 64.59375 
L 35.5 0 
L 25.59375 0 
L 25.59375 64.59375 
L -0.296875 64.59375 
z
" id="DejaVuSans-54"/>
    </defs>
    <g transform="translate(223.341563 35.472)scale(0.12 -0.12)">
     <use xlink:href="#DejaVuSans-54"/>
     <use x="60.818359" xlink:href="#DejaVuSans-65"/>
     <use x="122.341797" xlink:href="#DejaVuSans-73"/>
     <use x="174.441406" xlink:href="#DejaVuSans-74"/>
    </g>
   </g>
   <g id="legend_1">
    <g id="patch_7">
     <path d="M 64.6 64.150125 
L 306.276563 64.150125 
Q 308.276563 64.150125 308.276563 62.150125 
L 308.276563 48.472 
Q 308.276563 46.472 306.276563 46.472 
L 64.6 46.472 
Q 62.6 46.472 62.6 48.472 
L 62.6 62.150125 
Q 62.6 64.150125 64.6 64.150125 
z
" style="fill:#ffffff;opacity:0.8;stroke:#cccccc;stroke-linejoin:miter;"/>
    </g>
    <g id="line2d_26">
     <path d="M 66.6 54.570438 
L 86.6 54.570438 
" style="fill:none;stroke:#000080;stroke-linecap:square;stroke-width:0.5;"/>
    </g>
    <g id="line2d_27"/>
    <g id="text_16">
     <!-- Successful download requests per second -->
     <g transform="translate(94.6 58.070438)scale(0.1 -0.1)">
      <use xlink:href="#DejaVuSans-53"/>
      <use x="63.476562" xlink:href="#DejaVuSans-75"/>
      <use x="126.855469" xlink:href="#DejaVuSans-63"/>
      <use x="181.835938" xlink:href="#DejaVuSans-63"/>
      <use x="236.816406" xlink:href="#DejaVuSans-65"/>
      <use x="298.339844" xlink:href="#DejaVuSans-73"/>
      <use x="350.439453" xlink:href="#DejaVuSans-73"/>
      <use x="402.539062" xlink:href="#DejaVuSans-66"/>
      <use x="437.744141" xlink:href="#DejaVuSans-75"/>
      <use x="501.123047" xlink:href="#DejaVuSans-6c"/>
      <use x="528.90625" xlink:href="#DejaVuSans-20"/>
      <use x="560.693359" xlink:href="#DejaVuSans-64"/>
      <use x="624.169922" xlink:href="#DejaVuSans-6f"/>
      <use x="685.351562" xlink:href="#DejaVuSans-77"/>
      <use x="767.138672" xlink:href="#DejaVuSans-6e"/>
      <use x="830.517578" xlink:href="#DejaVuSans-6c"/>
      <use x="858.300781" xlink:href="#DejaVuSans-6f"/>
      <use x="919.482422" xlink:href="#DejaVuSans-61"/>
      <use x="980.761719" xlink:href="#DejaVuSans-64"/>
      <use x="1044.238281" xlink:href="#DejaVuSans-20"/>
      <use x="1076.025391" xlink:href="#DejaVuSans-72"/>
      <use x="1117.107422" xlink:href="#DejaVuSans-65"/>
      <use x="1178.630859" xlink:href="#DejaVuSans-71"/>
      <use x="1242.107422" xlink:href="#DejaVuSans-75"/>
      <use x="1305.486328" xlink:href="#DejaVuSans-65"/>
      <use x="1367.009766" xlink:href="#DejaVuSans-73"/>
      <use x="1419.109375" xlink:href="#DejaVuSans-74"/>
      <use x="1458.318359" xlink:href="#DejaVuSans-73"/>
      <use x="1510.417969" xlink:href="#DejaVuSans-20"/>
      <use x="1542.205078" xlink:href="#DejaVuSans-70"/>
      <use x="1605.681641" xlink:href="#DejaVuSans-65"/>
      <use x="1667.205078" xlink:href="#DejaVuSans-72"/>
      <use x="1708.318359" xlink:href="#DejaVuSans-20"/>
      <use x="1740.105469" xlink:href="#DejaVuSans-73"/>
      <use x="1792.205078" xlink:href="#DejaVuSans-65"/>
      <use x="1853.728516" xlink:href="#DejaVuSans-63"/>
      <use x="1908.708984" xlink:href="#DejaVuSans-6f"/>
      <use x="1969.890625" xlink:href="#DejaVuSans-6e"/>
      <use x="2033.269531" xlink:href="#DejaVuSans-64"/>
     </g>
    </g>
   </g>
  </g>
 </g>
 <defs>
  <clipPath id="pada643949d">
   <rect height="266.112" width="357.12" x="57.6" y="41.472"/>
  </clipPath>
 </defs>
</svg>
