<?xml version="1.0" encoding="utf-8" standalone="no"?>
<!DOCTYPE svg PUBLIC "-//W3C//DTD SVG 1.1//EN"
  "http://www.w3.org/Graphics/SVG/1.1/DTD/svg11.dtd">
<!-- Created with matplotlib (http://matplotlib.org/) -->
<svg height="345pt" version="1.1" viewBox="0 0 460 345" width="460pt" xmlns="http://www.w3.org/2000/svg" xmlns:xlink="http://www.w3.org/1999/xlink">
 <defs>
  <style type="text/css">
*{stroke-linecap:butt;stroke-linejoin:round;}
  </style>
 </defs>
 <g id="figure_1">
  <g id="patch_1">
   <path d="M 0 345.6 
L 460.8 345.6 
L 460.8 0 
L 0 0 
z
" style="fill:#ffffff;"/>
  </g>
  <g id="axes_1">
   <g id="patch_2">
    <path d="M 57.6 307.584 
L 414.72 307.584 
L 414.72 41.472 
L 57.6 41.472 
z
" style="fill:#ffffff;"/>
   </g>
   <g id="matplotlib.axis_1">
    <g id="xtick_1">
     <g id="line2d_1">
      <path clip-path="url(#p931515e2d0)" d="M 57.6 307.584 
L 57.6 41.472 
" style="fill:none;stroke:#b0b0b0;stroke-linecap:square;stroke-width:0.8;"/>
     </g>
     <g id="line2d_2">
      <defs>
       <path d="M 0 0 
L 0 3.5 
" id="m83d9cfa008" style="stroke:#000000;stroke-width:0.8;"/>
      </defs>
      <g>
       <use style="stroke:#000000;stroke-width:0.8;" x="57.6" xlink:href="#m83d9cfa008" y="307.584"/>
      </g>
     </g>
     <g id="text_1">
      <!-- 0 -->
      <defs>
       <path d="M 31.78125 66.40625 
Q 24.171875 66.40625 20.328125 58.90625 
Q 16.5 51.421875 16.5 36.375 
Q 16.5 21.390625 20.328125 13.890625 
Q 24.171875 6.390625 31.78125 6.390625 
Q 39.453125 6.390625 43.28125 13.890625 
Q 47.125 21.390625 47.125 36.375 
Q 47.125 51.421875 43.28125 58.90625 
Q 39.453125 66.40625 31.78125 66.40625 
M 31.78125 74.21875 
Q 44.046875 74.21875 50.515625 64.515625 
Q 56.984375 54.828125 56.984375 36.375 
Q 56.984375 17.96875 50.515625 8.265625 
Q 44.046875 -1.421875 31.78125 -1.421875 
Q 19.53125 -1.421875 13.0625 8.265625 
Q 6.59375 17.96875 6.59375 36.375 
Q 6.59375 54.828125 13.0625 64.515625 
Q 19.53125 74.21875 31.78125 74.21875 
" id="DejaVuSans-30"/>
      </defs>
      <g transform="translate(54.41875 322.182437)scale(0.1 -0.1)">
       <use xlink:href="#DejaVuSans-30"/>
      </g>
     </g>
    </g>
    <g id="xtick_2">
     <g id="line2d_3">
      <path clip-path="url(#p931515e2d0)" d="M 129.024 307.584 
L 129.024 41.472 
" style="fill:none;stroke:#b0b0b0;stroke-linecap:square;stroke-width:0.8;"/>
     </g>
     <g id="line2d_4">
      <g>
       <use style="stroke:#000000;stroke-width:0.8;" x="129.024" xlink:href="#m83d9cfa008" y="307.584"/>
      </g>
     </g>
     <g id="text_2">
      <!-- 200 -->
      <defs>
       <path d="M 19.1875 8.296875 
L 53.609375 8.296875 
L 53.609375 0 
L 7.328125 0 
L 7.328125 8.296875 
Q 12.9375 14.109375 22.625 23.890625 
Q 32.328125 33.6875 34.8125 36.53125 
Q 39.546875 41.84375 41.421875 45.53125 
Q 43.3125 49.21875 43.3125 52.78125 
Q 43.3125 58.59375 39.234375 62.25 
Q 35.15625 65.921875 28.609375 65.921875 
Q 23.96875 65.921875 18.8125 64.3125 
Q 13.671875 62.703125 7.8125 59.421875 
L 7.8125 69.390625 
Q 13.765625 71.78125 18.9375 73 
Q 24.125 74.21875 28.421875 74.21875 
Q 39.75 74.21875 46.484375 68.546875 
Q 53.21875 62.890625 53.21875 53.421875 
Q 53.21875 48.921875 51.53125 44.890625 
Q 49.859375 40.875 45.40625 35.40625 
Q 44.1875 33.984375 37.640625 27.21875 
Q 31.109375 20.453125 19.1875 8.296875 
" id="DejaVuSans-32"/>
      </defs>
      <g transform="translate(119.48025 322.182437)scale(0.1 -0.1)">
       <use xlink:href="#DejaVuSans-32"/>
       <use x="63.623047" xlink:href="#DejaVuSans-30"/>
       <use x="127.246094" xlink:href="#DejaVuSans-30"/>
      </g>
     </g>
    </g>
    <g id="xtick_3">
     <g id="line2d_5">
      <path clip-path="url(#p931515e2d0)" d="M 200.448 307.584 
L 200.448 41.472 
" style="fill:none;stroke:#b0b0b0;stroke-linecap:square;stroke-width:0.8;"/>
     </g>
     <g id="line2d_6">
      <g>
       <use style="stroke:#000000;stroke-width:0.8;" x="200.448" xlink:href="#m83d9cfa008" y="307.584"/>
      </g>
     </g>
     <g id="text_3">
      <!-- 400 -->
      <defs>
       <path d="M 37.796875 64.3125 
L 12.890625 25.390625 
L 37.796875 25.390625 
z
M 35.203125 72.90625 
L 47.609375 72.90625 
L 47.609375 25.390625 
L 58.015625 25.390625 
L 58.015625 17.1875 
L 47.609375 17.1875 
L 47.609375 0 
L 37.796875 0 
L 37.796875 17.1875 
L 4.890625 17.1875 
L 4.890625 26.703125 
z
" id="DejaVuSans-34"/>
      </defs>
      <g transform="translate(190.90425 322.182437)scale(0.1 -0.1)">
       <use xlink:href="#DejaVuSans-34"/>
       <use x="63.623047" xlink:href="#DejaVuSans-30"/>
       <use x="127.246094" xlink:href="#DejaVuSans-30"/>
      </g>
     </g>
    </g>
    <g id="xtick_4">
     <g id="line2d_7">
      <path clip-path="url(#p931515e2d0)" d="M 271.872 307.584 
L 271.872 41.472 
" style="fill:none;stroke:#b0b0b0;stroke-linecap:square;stroke-width:0.8;"/>
     </g>
     <g id="line2d_8">
      <g>
       <use style="stroke:#000000;stroke-width:0.8;" x="271.872" xlink:href="#m83d9cfa008" y="307.584"/>
      </g>
     </g>
     <g id="text_4">
      <!-- 600 -->
      <defs>
       <path d="M 33.015625 40.375 
Q 26.375 40.375 22.484375 35.828125 
Q 18.609375 31.296875 18.609375 23.390625 
Q 18.609375 15.53125 22.484375 10.953125 
Q 26.375 6.390625 33.015625 6.390625 
Q 39.65625 6.390625 43.53125 10.953125 
Q 47.40625 15.53125 47.40625 23.390625 
Q 47.40625 31.296875 43.53125 35.828125 
Q 39.65625 40.375 33.015625 40.375 
M 52.59375 71.296875 
L 52.59375 62.3125 
Q 48.875 64.0625 45.09375 64.984375 
Q 41.3125 65.921875 37.59375 65.921875 
Q 27.828125 65.921875 22.671875 59.328125 
Q 17.53125 52.734375 16.796875 39.40625 
Q 19.671875 43.65625 24.015625 45.921875 
Q 28.375 48.1875 33.59375 48.1875 
Q 44.578125 48.1875 50.953125 41.515625 
Q 57.328125 34.859375 57.328125 23.390625 
Q 57.328125 12.15625 50.6875 5.359375 
Q 44.046875 -1.421875 33.015625 -1.421875 
Q 20.359375 -1.421875 13.671875 8.265625 
Q 6.984375 17.96875 6.984375 36.375 
Q 6.984375 53.65625 15.1875 63.9375 
Q 23.390625 74.21875 37.203125 74.21875 
Q 40.921875 74.21875 44.703125 73.484375 
Q 48.484375 72.75 52.59375 71.296875 
" id="DejaVuSans-36"/>
      </defs>
      <g transform="translate(262.32825 322.182437)scale(0.1 -0.1)">
       <use xlink:href="#DejaVuSans-36"/>
       <use x="63.623047" xlink:href="#DejaVuSans-30"/>
       <use x="127.246094" xlink:href="#DejaVuSans-30"/>
      </g>
     </g>
    </g>
    <g id="xtick_5">
     <g id="line2d_9">
      <path clip-path="url(#p931515e2d0)" d="M 343.296 307.584 
L 343.296 41.472 
" style="fill:none;stroke:#b0b0b0;stroke-linecap:square;stroke-width:0.8;"/>
     </g>
     <g id="line2d_10">
      <g>
       <use style="stroke:#000000;stroke-width:0.8;" x="343.296" xlink:href="#m83d9cfa008" y="307.584"/>
      </g>
     </g>
     <g id="text_5">
      <!-- 800 -->
      <defs>
       <path d="M 31.78125 34.625 
Q 24.75 34.625 20.71875 30.859375 
Q 16.703125 27.09375 16.703125 20.515625 
Q 16.703125 13.921875 20.71875 10.15625 
Q 24.75 6.390625 31.78125 6.390625 
Q 38.8125 6.390625 42.859375 10.171875 
Q 46.921875 13.96875 46.921875 20.515625 
Q 46.921875 27.09375 42.890625 30.859375 
Q 38.875 34.625 31.78125 34.625 
M 21.921875 38.8125 
Q 15.578125 40.375 12.03125 44.71875 
Q 8.5 49.078125 8.5 55.328125 
Q 8.5 64.0625 14.71875 69.140625 
Q 20.953125 74.21875 31.78125 74.21875 
Q 42.671875 74.21875 48.875 69.140625 
Q 55.078125 64.0625 55.078125 55.328125 
Q 55.078125 49.078125 51.53125 44.71875 
Q 48 40.375 41.703125 38.8125 
Q 48.828125 37.15625 52.796875 32.3125 
Q 56.78125 27.484375 56.78125 20.515625 
Q 56.78125 9.90625 50.3125 4.234375 
Q 43.84375 -1.421875 31.78125 -1.421875 
Q 19.734375 -1.421875 13.25 4.234375 
Q 6.78125 9.90625 6.78125 20.515625 
Q 6.78125 27.484375 10.78125 32.3125 
Q 14.796875 37.15625 21.921875 38.8125 
M 18.3125 54.390625 
Q 18.3125 48.734375 21.84375 45.5625 
Q 25.390625 42.390625 31.78125 42.390625 
Q 38.140625 42.390625 41.71875 45.5625 
Q 45.3125 48.734375 45.3125 54.390625 
Q 45.3125 60.0625 41.71875 63.234375 
Q 38.140625 66.40625 31.78125 66.40625 
Q 25.390625 66.40625 21.84375 63.234375 
Q 18.3125 60.0625 18.3125 54.390625 
" id="DejaVuSans-38"/>
      </defs>
      <g transform="translate(333.75225 322.182437)scale(0.1 -0.1)">
       <use xlink:href="#DejaVuSans-38"/>
       <use x="63.623047" xlink:href="#DejaVuSans-30"/>
       <use x="127.246094" xlink:href="#DejaVuSans-30"/>
      </g>
     </g>
    </g>
    <g id="xtick_6">
     <g id="line2d_11">
      <path clip-path="url(#p931515e2d0)" d="M 414.72 307.584 
L 414.72 41.472 
" style="fill:none;stroke:#b0b0b0;stroke-linecap:square;stroke-width:0.8;"/>
     </g>
     <g id="line2d_12">
      <g>
       <use style="stroke:#000000;stroke-width:0.8;" x="414.72" xlink:href="#m83d9cfa008" y="307.584"/>
      </g>
     </g>
     <g id="text_6">
      <!-- 1000 -->
      <defs>
       <path d="M 12.40625 8.296875 
L 28.515625 8.296875 
L 28.515625 63.921875 
L 10.984375 60.40625 
L 10.984375 69.390625 
L 28.421875 72.90625 
L 38.28125 72.90625 
L 38.28125 8.296875 
L 54.390625 8.296875 
L 54.390625 0 
L 12.40625 0 
z
" id="DejaVuSans-31"/>
      </defs>
      <g transform="translate(401.995 322.182437)scale(0.1 -0.1)">
       <use xlink:href="#DejaVuSans-31"/>
       <use x="63.623047" xlink:href="#DejaVuSans-30"/>
       <use x="127.246094" xlink:href="#DejaVuSans-30"/>
       <use x="190.869141" xlink:href="#DejaVuSans-30"/>
      </g>
     </g>
    </g>
    <g id="text_7">
     <!-- Number of clients -->
     <defs>
      <path d="M 9.8125 72.90625 
L 23.09375 72.90625 
L 55.421875 11.921875 
L 55.421875 72.90625 
L 64.984375 72.90625 
L 64.984375 0 
L 51.703125 0 
L 19.390625 60.984375 
L 19.390625 0 
L 9.8125 0 
z
" id="DejaVuSans-4e"/>
      <path d="M 8.5 21.578125 
L 8.5 54.6875 
L 17.484375 54.6875 
L 17.484375 21.921875 
Q 17.484375 14.15625 20.5 10.265625 
Q 23.53125 6.390625 29.59375 6.390625 
Q 36.859375 6.390625 41.078125 11.03125 
Q 45.3125 15.671875 45.3125 23.6875 
L 45.3125 54.6875 
L 54.296875 54.6875 
L 54.296875 0 
L 45.3125 0 
L 45.3125 8.40625 
Q 42.046875 3.421875 37.71875 1 
Q 33.40625 -1.421875 27.6875 -1.421875 
Q 18.265625 -1.421875 13.375 4.4375 
Q 8.5 10.296875 8.5 21.578125 
M 31.109375 56 
z
" id="DejaVuSans-75"/>
      <path d="M 52 44.1875 
Q 55.375 50.25 60.0625 53.125 
Q 64.75 56 71.09375 56 
Q 79.640625 56 84.28125 50.015625 
Q 88.921875 44.046875 88.921875 33.015625 
L 88.921875 0 
L 79.890625 0 
L 79.890625 32.71875 
Q 79.890625 40.578125 77.09375 44.375 
Q 74.3125 48.1875 68.609375 48.1875 
Q 61.625 48.1875 57.5625 43.546875 
Q 53.515625 38.921875 53.515625 30.90625 
L 53.515625 0 
L 44.484375 0 
L 44.484375 32.71875 
Q 44.484375 40.625 41.703125 44.40625 
Q 38.921875 48.1875 33.109375 48.1875 
Q 26.21875 48.1875 22.15625 43.53125 
Q 18.109375 38.875 18.109375 30.90625 
L 18.109375 0 
L 9.078125 0 
L 9.078125 54.6875 
L 18.109375 54.6875 
L 18.109375 46.1875 
Q 21.1875 51.21875 25.484375 53.609375 
Q 29.78125 56 35.6875 56 
Q 41.65625 56 45.828125 52.96875 
Q 50 49.953125 52 44.1875 
" id="DejaVuSans-6d"/>
      <path d="M 48.6875 27.296875 
Q 48.6875 37.203125 44.609375 42.84375 
Q 40.53125 48.484375 33.40625 48.484375 
Q 26.265625 48.484375 22.1875 42.84375 
Q 18.109375 37.203125 18.109375 27.296875 
Q 18.109375 17.390625 22.1875 11.75 
Q 26.265625 6.109375 33.40625 6.109375 
Q 40.53125 6.109375 44.609375 11.75 
Q 48.6875 17.390625 48.6875 27.296875 
M 18.109375 46.390625 
Q 20.953125 51.265625 25.265625 53.625 
Q 29.59375 56 35.59375 56 
Q 45.5625 56 51.78125 48.09375 
Q 58.015625 40.1875 58.015625 27.296875 
Q 58.015625 14.40625 51.78125 6.484375 
Q 45.5625 -1.421875 35.59375 -1.421875 
Q 29.59375 -1.421875 25.265625 0.953125 
Q 20.953125 3.328125 18.109375 8.203125 
L 18.109375 0 
L 9.078125 0 
L 9.078125 75.984375 
L 18.109375 75.984375 
z
" id="DejaVuSans-62"/>
      <path d="M 56.203125 29.59375 
L 56.203125 25.203125 
L 14.890625 25.203125 
Q 15.484375 15.921875 20.484375 11.0625 
Q 25.484375 6.203125 34.421875 6.203125 
Q 39.59375 6.203125 44.453125 7.46875 
Q 49.3125 8.734375 54.109375 11.28125 
L 54.109375 2.78125 
Q 49.265625 0.734375 44.1875 -0.34375 
Q 39.109375 -1.421875 33.890625 -1.421875 
Q 20.796875 -1.421875 13.15625 6.1875 
Q 5.515625 13.8125 5.515625 26.8125 
Q 5.515625 40.234375 12.765625 48.109375 
Q 20.015625 56 32.328125 56 
Q 43.359375 56 49.78125 48.890625 
Q 56.203125 41.796875 56.203125 29.59375 
M 47.21875 32.234375 
Q 47.125 39.59375 43.09375 43.984375 
Q 39.0625 48.390625 32.421875 48.390625 
Q 24.90625 48.390625 20.390625 44.140625 
Q 15.875 39.890625 15.1875 32.171875 
z
" id="DejaVuSans-65"/>
      <path d="M 41.109375 46.296875 
Q 39.59375 47.171875 37.8125 47.578125 
Q 36.03125 48 33.890625 48 
Q 26.265625 48 22.1875 43.046875 
Q 18.109375 38.09375 18.109375 28.8125 
L 18.109375 0 
L 9.078125 0 
L 9.078125 54.6875 
L 18.109375 54.6875 
L 18.109375 46.1875 
Q 20.953125 51.171875 25.484375 53.578125 
Q 30.03125 56 36.53125 56 
Q 37.453125 56 38.578125 55.875 
Q 39.703125 55.765625 41.0625 55.515625 
z
" id="DejaVuSans-72"/>
      <path id="DejaVuSans-20"/>
      <path d="M 30.609375 48.390625 
Q 23.390625 48.390625 19.1875 42.75 
Q 14.984375 37.109375 14.984375 27.296875 
Q 14.984375 17.484375 19.15625 11.84375 
Q 23.34375 6.203125 30.609375 6.203125 
Q 37.796875 6.203125 41.984375 11.859375 
Q 46.1875 17.53125 46.1875 27.296875 
Q 46.1875 37.015625 41.984375 42.703125 
Q 37.796875 48.390625 30.609375 48.390625 
M 30.609375 56 
Q 42.328125 56 49.015625 48.375 
Q 55.71875 40.765625 55.71875 27.296875 
Q 55.71875 13.875 49.015625 6.21875 
Q 42.328125 -1.421875 30.609375 -1.421875 
Q 18.84375 -1.421875 12.171875 6.21875 
Q 5.515625 13.875 5.515625 27.296875 
Q 5.515625 40.765625 12.171875 48.375 
Q 18.84375 56 30.609375 56 
" id="DejaVuSans-6f"/>
      <path d="M 37.109375 75.984375 
L 37.109375 68.5 
L 28.515625 68.5 
Q 23.6875 68.5 21.796875 66.546875 
Q 19.921875 64.59375 19.921875 59.515625 
L 19.921875 54.6875 
L 34.71875 54.6875 
L 34.71875 47.703125 
L 19.921875 47.703125 
L 19.921875 0 
L 10.890625 0 
L 10.890625 47.703125 
L 2.296875 47.703125 
L 2.296875 54.6875 
L 10.890625 54.6875 
L 10.890625 58.5 
Q 10.890625 67.625 15.140625 71.796875 
Q 19.390625 75.984375 28.609375 75.984375 
z
" id="DejaVuSans-66"/>
      <path d="M 48.78125 52.59375 
L 48.78125 44.1875 
Q 44.96875 46.296875 41.140625 47.34375 
Q 37.3125 48.390625 33.40625 48.390625 
Q 24.65625 48.390625 19.8125 42.84375 
Q 14.984375 37.3125 14.984375 27.296875 
Q 14.984375 17.28125 19.8125 11.734375 
Q 24.65625 6.203125 33.40625 6.203125 
Q 37.3125 6.203125 41.140625 7.25 
Q 44.96875 8.296875 48.78125 10.40625 
L 48.78125 2.09375 
Q 45.015625 0.34375 40.984375 -0.53125 
Q 36.96875 -1.421875 32.421875 -1.421875 
Q 20.0625 -1.421875 12.78125 6.34375 
Q 5.515625 14.109375 5.515625 27.296875 
Q 5.515625 40.671875 12.859375 48.328125 
Q 20.21875 56 33.015625 56 
Q 37.15625 56 41.109375 55.140625 
Q 45.0625 54.296875 48.78125 52.59375 
" id="DejaVuSans-63"/>
      <path d="M 9.421875 75.984375 
L 18.40625 75.984375 
L 18.40625 0 
L 9.421875 0 
z
" id="DejaVuSans-6c"/>
      <path d="M 9.421875 54.6875 
L 18.40625 54.6875 
L 18.40625 0 
L 9.421875 0 
z
M 9.421875 75.984375 
L 18.40625 75.984375 
L 18.40625 64.59375 
L 9.421875 64.59375 
z
" id="DejaVuSans-69"/>
      <path d="M 54.890625 33.015625 
L 54.890625 0 
L 45.90625 0 
L 45.90625 32.71875 
Q 45.90625 40.484375 42.875 44.328125 
Q 39.84375 48.1875 33.796875 48.1875 
Q 26.515625 48.1875 22.3125 43.546875 
Q 18.109375 38.921875 18.109375 30.90625 
L 18.109375 0 
L 9.078125 0 
L 9.078125 54.6875 
L 18.109375 54.6875 
L 18.109375 46.1875 
Q 21.34375 51.125 25.703125 53.5625 
Q 30.078125 56 35.796875 56 
Q 45.21875 56 50.046875 50.171875 
Q 54.890625 44.34375 54.890625 33.015625 
" id="DejaVuSans-6e"/>
      <path d="M 18.3125 70.21875 
L 18.3125 54.6875 
L 36.8125 54.6875 
L 36.8125 47.703125 
L 18.3125 47.703125 
L 18.3125 18.015625 
Q 18.3125 11.328125 20.140625 9.421875 
Q 21.96875 7.515625 27.59375 7.515625 
L 36.8125 7.515625 
L 36.8125 0 
L 27.59375 0 
Q 17.1875 0 13.234375 3.875 
Q 9.28125 7.765625 9.28125 18.015625 
L 9.28125 47.703125 
L 2.6875 47.703125 
L 2.6875 54.6875 
L 9.28125 54.6875 
L 9.28125 70.21875 
z
" id="DejaVuSans-74"/>
      <path d="M 44.28125 53.078125 
L 44.28125 44.578125 
Q 40.484375 46.53125 36.375 47.5 
Q 32.28125 48.484375 27.875 48.484375 
Q 21.1875 48.484375 17.84375 46.4375 
Q 14.5 44.390625 14.5 40.28125 
Q 14.5 37.15625 16.890625 35.375 
Q 19.28125 33.59375 26.515625 31.984375 
L 29.59375 31.296875 
Q 39.15625 29.25 43.1875 25.515625 
Q 47.21875 21.78125 47.21875 15.09375 
Q 47.21875 7.46875 41.1875 3.015625 
Q 35.15625 -1.421875 24.609375 -1.421875 
Q 20.21875 -1.421875 15.453125 -0.5625 
Q 10.6875 0.296875 5.421875 2 
L 5.421875 11.28125 
Q 10.40625 8.6875 15.234375 7.390625 
Q 20.0625 6.109375 24.8125 6.109375 
Q 31.15625 6.109375 34.5625 8.28125 
Q 37.984375 10.453125 37.984375 14.40625 
Q 37.984375 18.0625 35.515625 20.015625 
Q 33.0625 21.96875 24.703125 23.78125 
L 21.578125 24.515625 
Q 13.234375 26.265625 9.515625 29.90625 
Q 5.8125 33.546875 5.8125 39.890625 
Q 5.8125 47.609375 11.28125 51.796875 
Q 16.75 56 26.8125 56 
Q 31.78125 56 36.171875 55.265625 
Q 40.578125 54.546875 44.28125 53.078125 
" id="DejaVuSans-73"/>
     </defs>
     <g transform="translate(191.738906 335.860562)scale(0.1 -0.1)">
      <use xlink:href="#DejaVuSans-4e"/>
      <use x="74.804688" xlink:href="#DejaVuSans-75"/>
      <use x="138.183594" xlink:href="#DejaVuSans-6d"/>
      <use x="235.595703" xlink:href="#DejaVuSans-62"/>
      <use x="299.072266" xlink:href="#DejaVuSans-65"/>
      <use x="360.595703" xlink:href="#DejaVuSans-72"/>
      <use x="401.708984" xlink:href="#DejaVuSans-20"/>
      <use x="433.496094" xlink:href="#DejaVuSans-6f"/>
      <use x="494.677734" xlink:href="#DejaVuSans-66"/>
      <use x="529.882812" xlink:href="#DejaVuSans-20"/>
      <use x="561.669922" xlink:href="#DejaVuSans-63"/>
      <use x="616.650391" xlink:href="#DejaVuSans-6c"/>
      <use x="644.433594" xlink:href="#DejaVuSans-69"/>
      <use x="672.216797" xlink:href="#DejaVuSans-65"/>
      <use x="733.740234" xlink:href="#DejaVuSans-6e"/>
      <use x="797.119141" xlink:href="#DejaVuSans-74"/>
      <use x="836.328125" xlink:href="#DejaVuSans-73"/>
     </g>
    </g>
   </g>
   <g id="matplotlib.axis_2">
    <g id="ytick_1">
     <g id="line2d_13">
      <path clip-path="url(#p931515e2d0)" d="M 57.6 295.908101 
L 414.72 295.908101 
" style="fill:none;stroke:#b0b0b0;stroke-linecap:square;stroke-width:0.8;"/>
     </g>
     <g id="line2d_14">
      <defs>
       <path d="M 0 0 
L -3.5 0 
" id="m9f72d7b5ad" style="stroke:#000000;stroke-width:0.8;"/>
      </defs>
      <g>
       <use style="stroke:#000000;stroke-width:0.8;" x="57.6" xlink:href="#m9f72d7b5ad" y="295.908101"/>
      </g>
     </g>
     <g id="text_8">
      <!-- 0 -->
      <g transform="translate(44.2375 299.70732)scale(0.1 -0.1)">
       <use xlink:href="#DejaVuSans-30"/>
      </g>
     </g>
    </g>
    <g id="ytick_2">
     <g id="line2d_15">
      <path clip-path="url(#p931515e2d0)" d="M 57.6 252.37429 
L 414.72 252.37429 
" style="fill:none;stroke:#b0b0b0;stroke-linecap:square;stroke-width:0.8;"/>
     </g>
     <g id="line2d_16">
      <g>
       <use style="stroke:#000000;stroke-width:0.8;" x="57.6" xlink:href="#m9f72d7b5ad" y="252.37429"/>
      </g>
     </g>
     <g id="text_9">
      <!-- 100 -->
      <g transform="translate(31.5125 256.173509)scale(0.1 -0.1)">
       <use xlink:href="#DejaVuSans-31"/>
       <use x="63.623047" xlink:href="#DejaVuSans-30"/>
       <use x="127.246094" xlink:href="#DejaVuSans-30"/>
      </g>
     </g>
    </g>
    <g id="ytick_3">
     <g id="line2d_17">
      <path clip-path="url(#p931515e2d0)" d="M 57.6 208.840479 
L 414.72 208.840479 
" style="fill:none;stroke:#b0b0b0;stroke-linecap:square;stroke-width:0.8;"/>
     </g>
     <g id="line2d_18">
      <g>
       <use style="stroke:#000000;stroke-width:0.8;" x="57.6" xlink:href="#m9f72d7b5ad" y="208.840479"/>
      </g>
     </g>
     <g id="text_10">
      <!-- 200 -->
      <g transform="translate(31.5125 212.639698)scale(0.1 -0.1)">
       <use xlink:href="#DejaVuSans-32"/>
       <use x="63.623047" xlink:href="#DejaVuSans-30"/>
       <use x="127.246094" xlink:href="#DejaVuSans-30"/>
      </g>
     </g>
    </g>
    <g id="ytick_4">
     <g id="line2d_19">
      <path clip-path="url(#p931515e2d0)" d="M 57.6 165.306668 
L 414.72 165.306668 
" style="fill:none;stroke:#b0b0b0;stroke-linecap:square;stroke-width:0.8;"/>
     </g>
     <g id="line2d_20">
      <g>
       <use style="stroke:#000000;stroke-width:0.8;" x="57.6" xlink:href="#m9f72d7b5ad" y="165.306668"/>
      </g>
     </g>
     <g id="text_11">
      <!-- 300 -->
      <defs>
       <path d="M 40.578125 39.3125 
Q 47.65625 37.796875 51.625 33 
Q 55.609375 28.21875 55.609375 21.1875 
Q 55.609375 10.40625 48.1875 4.484375 
Q 40.765625 -1.421875 27.09375 -1.421875 
Q 22.515625 -1.421875 17.65625 -0.515625 
Q 12.796875 0.390625 7.625 2.203125 
L 7.625 11.71875 
Q 11.71875 9.328125 16.59375 8.109375 
Q 21.484375 6.890625 26.8125 6.890625 
Q 36.078125 6.890625 40.9375 10.546875 
Q 45.796875 14.203125 45.796875 21.1875 
Q 45.796875 27.640625 41.28125 31.265625 
Q 36.765625 34.90625 28.71875 34.90625 
L 20.21875 34.90625 
L 20.21875 43.015625 
L 29.109375 43.015625 
Q 36.375 43.015625 40.234375 45.921875 
Q 44.09375 48.828125 44.09375 54.296875 
Q 44.09375 59.90625 40.109375 62.90625 
Q 36.140625 65.921875 28.71875 65.921875 
Q 24.65625 65.921875 20.015625 65.03125 
Q 15.375 64.15625 9.8125 62.3125 
L 9.8125 71.09375 
Q 15.4375 72.65625 20.34375 73.4375 
Q 25.25 74.21875 29.59375 74.21875 
Q 40.828125 74.21875 47.359375 69.109375 
Q 53.90625 64.015625 53.90625 55.328125 
Q 53.90625 49.265625 50.4375 45.09375 
Q 46.96875 40.921875 40.578125 39.3125 
" id="DejaVuSans-33"/>
      </defs>
      <g transform="translate(31.5125 169.105887)scale(0.1 -0.1)">
       <use xlink:href="#DejaVuSans-33"/>
       <use x="63.623047" xlink:href="#DejaVuSans-30"/>
       <use x="127.246094" xlink:href="#DejaVuSans-30"/>
      </g>
     </g>
    </g>
    <g id="ytick_5">
     <g id="line2d_21">
      <path clip-path="url(#p931515e2d0)" d="M 57.6 121.772857 
L 414.72 121.772857 
" style="fill:none;stroke:#b0b0b0;stroke-linecap:square;stroke-width:0.8;"/>
     </g>
     <g id="line2d_22">
      <g>
       <use style="stroke:#000000;stroke-width:0.8;" x="57.6" xlink:href="#m9f72d7b5ad" y="121.772857"/>
      </g>
     </g>
     <g id="text_12">
      <!-- 400 -->
      <g transform="translate(31.5125 125.572076)scale(0.1 -0.1)">
       <use xlink:href="#DejaVuSans-34"/>
       <use x="63.623047" xlink:href="#DejaVuSans-30"/>
       <use x="127.246094" xlink:href="#DejaVuSans-30"/>
      </g>
     </g>
    </g>
    <g id="ytick_6">
     <g id="line2d_23">
      <path clip-path="url(#p931515e2d0)" d="M 57.6 78.239046 
L 414.72 78.239046 
" style="fill:none;stroke:#b0b0b0;stroke-linecap:square;stroke-width:0.8;"/>
     </g>
     <g id="line2d_24">
      <g>
       <use style="stroke:#000000;stroke-width:0.8;" x="57.6" xlink:href="#m9f72d7b5ad" y="78.239046"/>
      </g>
     </g>
     <g id="text_13">
      <!-- 500 -->
      <defs>
       <path d="M 10.796875 72.90625 
L 49.515625 72.90625 
L 49.515625 64.59375 
L 19.828125 64.59375 
L 19.828125 46.734375 
Q 21.96875 47.46875 24.109375 47.828125 
Q 26.265625 48.1875 28.421875 48.1875 
Q 40.625 48.1875 47.75 41.5 
Q 54.890625 34.8125 54.890625 23.390625 
Q 54.890625 11.625 47.5625 5.09375 
Q 40.234375 -1.421875 26.90625 -1.421875 
Q 22.3125 -1.421875 17.546875 -0.640625 
Q 12.796875 0.140625 7.71875 1.703125 
L 7.71875 11.625 
Q 12.109375 9.234375 16.796875 8.0625 
Q 21.484375 6.890625 26.703125 6.890625 
Q 35.15625 6.890625 40.078125 11.328125 
Q 45.015625 15.765625 45.015625 23.390625 
Q 45.015625 31 40.078125 35.4375 
Q 35.15625 39.890625 26.703125 39.890625 
Q 22.75 39.890625 18.8125 39.015625 
Q 14.890625 38.140625 10.796875 36.28125 
z
" id="DejaVuSans-35"/>
      </defs>
      <g transform="translate(31.5125 82.038265)scale(0.1 -0.1)">
       <use xlink:href="#DejaVuSans-35"/>
       <use x="63.623047" xlink:href="#DejaVuSans-30"/>
       <use x="127.246094" xlink:href="#DejaVuSans-30"/>
      </g>
     </g>
    </g>
    <g id="text_14">
     <!-- Successful download requests per second -->
     <defs>
      <path d="M 53.515625 70.515625 
L 53.515625 60.890625 
Q 47.90625 63.578125 42.921875 64.890625 
Q 37.9375 66.21875 33.296875 66.21875 
Q 25.25 66.21875 20.875 63.09375 
Q 16.5 59.96875 16.5 54.203125 
Q 16.5 49.359375 19.40625 46.890625 
Q 22.3125 44.4375 30.421875 42.921875 
L 36.375 41.703125 
Q 47.40625 39.59375 52.65625 34.296875 
Q 57.90625 29 57.90625 20.125 
Q 57.90625 9.515625 50.796875 4.046875 
Q 43.703125 -1.421875 29.984375 -1.421875 
Q 24.8125 -1.421875 18.96875 -0.25 
Q 13.140625 0.921875 6.890625 3.21875 
L 6.890625 13.375 
Q 12.890625 10.015625 18.65625 8.296875 
Q 24.421875 6.59375 29.984375 6.59375 
Q 38.421875 6.59375 43.015625 9.90625 
Q 47.609375 13.234375 47.609375 19.390625 
Q 47.609375 24.75 44.3125 27.78125 
Q 41.015625 30.8125 33.5 32.328125 
L 27.484375 33.5 
Q 16.453125 35.6875 11.515625 40.375 
Q 6.59375 45.0625 6.59375 53.421875 
Q 6.59375 63.09375 13.40625 68.65625 
Q 20.21875 74.21875 32.171875 74.21875 
Q 37.3125 74.21875 42.625 73.28125 
Q 47.953125 72.359375 53.515625 70.515625 
" id="DejaVuSans-53"/>
      <path d="M 45.40625 46.390625 
L 45.40625 75.984375 
L 54.390625 75.984375 
L 54.390625 0 
L 45.40625 0 
L 45.40625 8.203125 
Q 42.578125 3.328125 38.25 0.953125 
Q 33.9375 -1.421875 27.875 -1.421875 
Q 17.96875 -1.421875 11.734375 6.484375 
Q 5.515625 14.40625 5.515625 27.296875 
Q 5.515625 40.1875 11.734375 48.09375 
Q 17.96875 56 27.875 56 
Q 33.9375 56 38.25 53.625 
Q 42.578125 51.265625 45.40625 46.390625 
M 14.796875 27.296875 
Q 14.796875 17.390625 18.875 11.75 
Q 22.953125 6.109375 30.078125 6.109375 
Q 37.203125 6.109375 41.296875 11.75 
Q 45.40625 17.390625 45.40625 27.296875 
Q 45.40625 37.203125 41.296875 42.84375 
Q 37.203125 48.484375 30.078125 48.484375 
Q 22.953125 48.484375 18.875 42.84375 
Q 14.796875 37.203125 14.796875 27.296875 
" id="DejaVuSans-64"/>
      <path d="M 4.203125 54.6875 
L 13.1875 54.6875 
L 24.421875 12.015625 
L 35.59375 54.6875 
L 46.1875 54.6875 
L 57.421875 12.015625 
L 68.609375 54.6875 
L 77.59375 54.6875 
L 63.28125 0 
L 52.6875 0 
L 40.921875 44.828125 
L 29.109375 0 
L 18.5 0 
z
" id="DejaVuSans-77"/>
      <path d="M 34.28125 27.484375 
Q 23.390625 27.484375 19.1875 25 
Q 14.984375 22.515625 14.984375 16.5 
Q 14.984375 11.71875 18.140625 8.90625 
Q 21.296875 6.109375 26.703125 6.109375 
Q 34.1875 6.109375 38.703125 11.40625 
Q 43.21875 16.703125 43.21875 25.484375 
L 43.21875 27.484375 
z
M 52.203125 31.203125 
L 52.203125 0 
L 43.21875 0 
L 43.21875 8.296875 
Q 40.140625 3.328125 35.546875 0.953125 
Q 30.953125 -1.421875 24.3125 -1.421875 
Q 15.921875 -1.421875 10.953125 3.296875 
Q 6 8.015625 6 15.921875 
Q 6 25.140625 12.171875 29.828125 
Q 18.359375 34.515625 30.609375 34.515625 
L 43.21875 34.515625 
L 43.21875 35.40625 
Q 43.21875 41.609375 39.140625 45 
Q 35.0625 48.390625 27.6875 48.390625 
Q 23 48.390625 18.546875 47.265625 
Q 14.109375 46.140625 10.015625 43.890625 
L 10.015625 52.203125 
Q 14.9375 54.109375 19.578125 55.046875 
Q 24.21875 56 28.609375 56 
Q 40.484375 56 46.34375 49.84375 
Q 52.203125 43.703125 52.203125 31.203125 
" id="DejaVuSans-61"/>
      <path d="M 14.796875 27.296875 
Q 14.796875 17.390625 18.875 11.75 
Q 22.953125 6.109375 30.078125 6.109375 
Q 37.203125 6.109375 41.296875 11.75 
Q 45.40625 17.390625 45.40625 27.296875 
Q 45.40625 37.203125 41.296875 42.84375 
Q 37.203125 48.484375 30.078125 48.484375 
Q 22.953125 48.484375 18.875 42.84375 
Q 14.796875 37.203125 14.796875 27.296875 
M 45.40625 8.203125 
Q 42.578125 3.328125 38.25 0.953125 
Q 33.9375 -1.421875 27.875 -1.421875 
Q 17.96875 -1.421875 11.734375 6.484375 
Q 5.515625 14.40625 5.515625 27.296875 
Q 5.515625 40.1875 11.734375 48.09375 
Q 17.96875 56 27.875 56 
Q 33.9375 56 38.25 53.625 
Q 42.578125 51.265625 45.40625 46.390625 
L 45.40625 54.6875 
L 54.390625 54.6875 
L 54.390625 -20.796875 
L 45.40625 -20.796875 
z
" id="DejaVuSans-71"/>
      <path d="M 18.109375 8.203125 
L 18.109375 -20.796875 
L 9.078125 -20.796875 
L 9.078125 54.6875 
L 18.109375 54.6875 
L 18.109375 46.390625 
Q 20.953125 51.265625 25.265625 53.625 
Q 29.59375 56 35.59375 56 
Q 45.5625 56 51.78125 48.09375 
Q 58.015625 40.1875 58.015625 27.296875 
Q 58.015625 14.40625 51.78125 6.484375 
Q 45.5625 -1.421875 35.59375 -1.421875 
Q 29.59375 -1.421875 25.265625 0.953125 
Q 20.953125 3.328125 18.109375 8.203125 
M 48.6875 27.296875 
Q 48.6875 37.203125 44.609375 42.84375 
Q 40.53125 48.484375 33.40625 48.484375 
Q 26.265625 48.484375 22.1875 42.84375 
Q 18.109375 37.203125 18.109375 27.296875 
Q 18.109375 17.390625 22.1875 11.75 
Q 26.265625 6.109375 33.40625 6.109375 
Q 40.53125 6.109375 44.609375 11.75 
Q 48.6875 17.390625 48.6875 27.296875 
" id="DejaVuSans-70"/>
     </defs>
     <g transform="translate(25.432812 279.366281)rotate(-90)scale(0.1 -0.1)">
      <use xlink:href="#DejaVuSans-53"/>
      <use x="63.476562" xlink:href="#DejaVuSans-75"/>
      <use x="126.855469" xlink:href="#DejaVuSans-63"/>
      <use x="181.835938" xlink:href="#DejaVuSans-63"/>
      <use x="236.816406" xlink:href="#DejaVuSans-65"/>
      <use x="298.339844" xlink:href="#DejaVuSans-73"/>
      <use x="350.439453" xlink:href="#DejaVuSans-73"/>
      <use x="402.539062" xlink:href="#DejaVuSans-66"/>
      <use x="437.744141" xlink:href="#DejaVuSans-75"/>
      <use x="501.123047" xlink:href="#DejaVuSans-6c"/>
      <use x="528.90625" xlink:href="#DejaVuSans-20"/>
      <use x="560.693359" xlink:href="#DejaVuSans-64"/>
      <use x="624.169922" xlink:href="#DejaVuSans-6f"/>
      <use x="685.351562" xlink:href="#DejaVuSans-77"/>
      <use x="767.138672" xlink:href="#DejaVuSans-6e"/>
      <use x="830.517578" xlink:href="#DejaVuSans-6c"/>
      <use x="858.300781" xlink:href="#DejaVuSans-6f"/>
      <use x="919.482422" xlink:href="#DejaVuSans-61"/>
      <use x="980.761719" xlink:href="#DejaVuSans-64"/>
      <use x="1044.238281" xlink:href="#DejaVuSans-20"/>
      <use x="1076.025391" xlink:href="#DejaVuSans-72"/>
      <use x="1117.107422" xlink:href="#DejaVuSans-65"/>
      <use x="1178.630859" xlink:href="#DejaVuSans-71"/>
      <use x="1242.107422" xlink:href="#DejaVuSans-75"/>
      <use x="1305.486328" xlink:href="#DejaVuSans-65"/>
      <use x="1367.009766" xlink:href="#DejaVuSans-73"/>
      <use x="1419.109375" xlink:href="#DejaVuSans-74"/>
      <use x="1458.318359" xlink:href="#DejaVuSans-73"/>
      <use x="1510.417969" xlink:href="#DejaVuSans-20"/>
      <use x="1542.205078" xlink:href="#DejaVuSans-70"/>
      <use x="1605.681641" xlink:href="#DejaVuSans-65"/>
      <use x="1667.205078" xlink:href="#DejaVuSans-72"/>
      <use x="1708.318359" xlink:href="#DejaVuSans-20"/>
      <use x="1740.105469" xlink:href="#DejaVuSans-73"/>
      <use x="1792.205078" xlink:href="#DejaVuSans-65"/>
      <use x="1853.728516" xlink:href="#DejaVuSans-63"/>
      <use x="1908.708984" xlink:href="#DejaVuSans-6f"/>
      <use x="1969.890625" xlink:href="#DejaVuSans-6e"/>
      <use x="2033.269531" xlink:href="#DejaVuSans-64"/>
     </g>
    </g>
   </g>
   <g id="line2d_25">
    <path clip-path="url(#p931515e2d0)" d="M 57.6 295.479293 
L 57.95712 295.488 
L 60.09984 292.953462 
L 60.45696 292.42975 
L 60.81408 292.120224 
L 61.1712 291.630469 
L 61.52832 291.415847 
L 61.88544 290.893877 
L 62.24256 290.625273 
L 62.9568 289.478593 
L 63.31392 289.21173 
L 64.38528 287.85304 
L 64.7424 287.656703 
L 65.09952 286.876141 
L 65.81376 286.373326 
L 66.17088 285.963237 
L 66.528 285.055122 
L 66.88512 284.961524 
L 67.95648 284.022065 
L 68.3136 283.117432 
L 68.67072 282.856665 
L 69.38496 281.740893 
L 69.74208 281.297284 
L 70.0992 281.403071 
L 70.45632 280.809705 
L 71.17056 280.473624 
L 71.52768 279.026125 
L 71.8848 278.627355 
L 72.24192 278.51765 
L 72.59904 278.565972 
L 73.6704 276.817219 
L 74.02752 276.940855 
L 74.38464 275.700577 
L 74.74176 275.044087 
L 75.09888 276.0458 
L 75.456 275.500321 
L 75.81312 274.750234 
L 76.17024 273.382837 
L 76.52736 273.061122 
L 76.88448 272.964477 
L 77.2416 273.075923 
L 77.59872 272.436847 
L 77.95584 271.434263 
L 78.31296 271.192215 
L 78.67008 271.114725 
L 79.0272 270.8631 
L 79.74144 270.139568 
L 80.45568 268.116552 
L 80.8128 268.282415 
L 81.16992 267.793095 
L 81.52704 266.920243 
L 81.88416 267.649869 
L 82.24128 265.924624 
L 82.5984 265.611616 
L 82.95552 267.07827 
L 83.31264 266.259835 
L 83.66976 265.747877 
L 84.02688 264.319968 
L 84.384 264.311261 
L 84.74112 264.017408 
L 85.09824 264.703066 
L 85.45536 262.781483 
L 85.81248 261.86292 
L 86.1696 263.262967 
L 86.52672 261.583868 
L 86.88384 262.506785 
L 87.24096 261.338337 
L 87.59808 260.977877 
L 87.9552 259.230865 
L 88.31232 260.505535 
L 88.66944 258.563927 
L 89.02656 258.22567 
L 89.38368 258.820342 
L 89.7408 256.749438 
L 90.09792 256.563984 
L 90.45504 256.984085 
L 90.81216 255.583167 
L 91.16928 257.203496 
L 91.5264 254.985013 
L 91.88352 256.169133 
L 92.24064 256.056815 
L 92.59776 254.305015 
L 92.95488 253.919741 
L 93.312 255.199199 
L 93.66912 253.764325 
L 94.02624 254.0991 
L 94.38336 254.137845 
L 94.74048 253.035133 
L 95.0976 253.208398 
L 95.45472 252.352959 
L 95.81184 252.398669 
L 96.16896 249.671711 
L 96.52608 250.020852 
L 96.8832 249.562877 
L 97.24032 249.645591 
L 97.95456 247.548132 
L 98.31168 248.516759 
L 98.6688 246.548596 
L 99.02592 245.702298 
L 99.38304 246.3035 
L 99.74016 245.677919 
L 100.09728 247.098428 
L 100.4544 246.64437 
L 100.81152 246.727955 
L 101.16864 244.77111 
L 101.52576 245.345321 
L 101.88288 244.692314 
L 102.24 241.967097 
L 102.59712 241.151709 
L 102.95424 242.326687 
L 103.31136 241.327586 
L 103.66848 242.906122 
L 104.0256 240.170022 
L 104.38272 241.421619 
L 104.73984 240.249689 
L 105.09696 240.671096 
L 105.45408 237.793511 
L 105.8112 237.228007 
L 106.16832 237.352949 
L 106.52544 237.231054 
L 106.88256 239.519627 
L 107.23968 235.790085 
L 107.5968 238.60411 
L 107.95392 237.047777 
L 108.31104 236.05477 
L 108.66816 235.929393 
L 109.02528 237.480503 
L 109.3824 236.071749 
L 109.73952 233.852395 
L 110.45376 235.568933 
L 111.168 231.485026 
L 111.52512 232.781028 
L 111.88224 231.654373 
L 112.23936 229.627874 
L 112.59648 231.094963 
L 112.9536 230.924746 
L 113.31072 228.936557 
L 113.66784 230.512046 
L 114.02496 231.145027 
L 114.38208 230.347488 
L 114.7392 227.000173 
L 115.09632 226.486039 
L 115.45344 225.560945 
L 115.81056 226.26924 
L 116.16768 224.522664 
L 116.5248 228.733254 
L 116.88192 227.522144 
L 117.23904 223.679849 
L 117.59616 224.312396 
L 117.95328 223.443025 
L 118.3104 223.739491 
L 118.66752 222.601082 
L 119.02464 225.453852 
L 119.38176 224.480001 
L 119.73888 220.180602 
L 120.096 222.28372 
L 120.45312 220.484468 
L 120.81024 219.959015 
L 121.16736 219.915045 
L 121.52448 221.937191 
L 122.23872 219.836685 
L 122.59584 221.840111 
L 122.95296 220.964646 
L 123.31008 216.624325 
L 123.6672 219.863675 
L 124.02432 217.814539 
L 124.38144 218.86501 
L 124.73856 215.11849 
L 125.09568 217.528522 
L 125.4528 213.981387 
L 125.80992 213.625716 
L 126.16704 218.051363 
L 126.52416 216.363557 
L 126.88128 213.616138 
L 127.2384 215.432369 
L 127.59552 211.573532 
L 127.95264 213.610479 
L 128.30976 210.242268 
L 128.66688 215.242997 
L 129.024 210.77251 
L 129.38112 211.19827 
L 129.73824 212.845154 
L 130.09536 207.899278 
L 130.45248 212.96139 
L 131.16672 206.460921 
L 131.52384 209.540068 
L 131.88096 209.547468 
L 132.23808 208.126089 
L 132.5952 205.709527 
L 132.95232 209.961039 
L 133.30944 207.117846 
L 133.66656 207.270215 
L 134.02368 207.884477 
L 134.3808 203.345642 
L 134.73792 206.772188 
L 135.09504 204.997314 
L 135.45216 205.900641 
L 135.80928 203.151916 
L 136.52352 200.688338 
L 136.88064 202.69307 
L 137.23776 202.993453 
L 137.59488 200.064934 
L 137.952 200.322654 
L 138.66624 199.728853 
L 139.02336 199.972207 
L 139.38048 201.986951 
L 139.7376 200.308288 
L 140.09472 199.976995 
L 140.45184 195.751168 
L 140.80896 195.638851 
L 141.16608 198.125067 
L 141.5232 199.27523 
L 141.88032 194.915754 
L 142.23744 193.354197 
L 142.59456 192.783468 
L 142.95168 193.253198 
L 143.3088 194.22792 
L 143.66592 194.15696 
L 144.02304 194.472145 
L 144.38016 196.637517 
L 144.73728 191.663343 
L 145.0944 190.28811 
L 145.45152 193.657627 
L 145.80864 195.733319 
L 146.88 189.001251 
L 147.23712 189.238945 
L 147.59424 187.523713 
L 147.95136 187.833674 
L 148.30848 186.593831 
L 148.6656 190.965932 
L 149.02272 188.206323 
L 149.37984 187.002178 
L 149.73696 187.183714 
L 150.09408 190.819223 
L 150.4512 186.562922 
L 150.80832 188.059179 
L 151.16544 186.033116 
L 151.52256 186.631705 
L 151.87968 182.435046 
L 152.2368 187.658233 
L 152.59392 182.094176 
L 152.95104 183.285261 
L 153.30816 183.247387 
L 153.66528 180.113823 
L 154.37952 182.514713 
L 154.73664 183.033201 
L 155.09376 178.341997 
L 155.45088 182.512101 
L 155.808 181.6288 
L 156.16512 177.832216 
L 156.52224 176.408225 
L 156.87936 177.900129 
L 157.23648 175.545385 
L 157.5936 176.385588 
L 157.95072 175.51317 
L 158.30784 177.79173 
L 158.66496 175.734322 
L 159.02208 178.719871 
L 159.3792 173.512792 
L 159.73632 173.771818 
L 160.09344 173.152332 
L 160.45056 174.550202 
L 160.80768 174.349076 
L 161.1648 170.004837 
L 161.52192 172.39049 
L 161.87904 172.384395 
L 162.23616 171.363092 
L 162.59328 174.396093 
L 162.9504 169.434109 
L 163.30752 173.253765 
L 163.66464 166.856907 
L 164.02176 171.698738 
L 164.736 174.119653 
L 165.09312 167.943946 
L 165.45024 171.568136 
L 165.80736 167.084589 
L 166.16448 172.041784 
L 166.5216 166.53171 
L 166.87872 171.898558 
L 167.23584 171.034847 
L 167.59296 167.56825 
L 167.95008 169.439768 
L 168.3072 161.897971 
L 168.66432 163.465188 
L 169.02144 164.332381 
L 169.37856 164.569205 
L 169.73568 164.407695 
L 170.0928 163.106034 
L 170.44992 160.161407 
L 170.80704 160.156618 
L 171.16416 160.658998 
L 171.52128 158.930706 
L 171.8784 163.855251 
L 172.23552 163.716378 
L 172.59264 158.888914 
L 173.30688 157.62295 
L 173.664 157.008253 
L 174.02112 155.468027 
L 174.37824 156.691327 
L 174.73536 154.656557 
L 175.09248 160.822686 
L 175.4496 153.614357 
L 175.80672 154.615199 
L 176.16384 153.530772 
L 176.52096 158.896314 
L 176.87808 155.767104 
L 177.2352 158.583742 
L 177.59232 152.347959 
L 177.94944 154.169849 
L 178.30656 156.787537 
L 178.66368 153.937813 
L 179.0208 156.969508 
L 179.37792 153.848569 
L 179.73504 156.381366 
L 180.09216 148.897033 
L 180.8064 147.209228 
L 181.16352 147.84308 
L 181.52064 146.400369 
L 181.87776 146.955425 
L 182.23488 145.113075 
L 182.592 154.098888 
L 182.94912 146.559268 
L 183.30624 150.03849 
L 183.66336 152.033644 
L 184.02048 150.730678 
L 184.3776 142.217641 
L 184.73472 141.329116 
L 185.09184 145.148772 
L 185.44896 142.140586 
L 185.80608 146.448257 
L 186.52032 147.769508 
L 186.87744 144.551924 
L 187.23456 147.526154 
L 187.9488 142.152775 
L 188.30592 146.087797 
L 188.66304 143.261582 
L 189.02016 147.574912 
L 189.7344 141.221152 
L 190.09152 139.412757 
L 190.44864 147.140009 
L 190.80576 142.114901 
L 191.16288 140.225098 
L 191.52 146.19576 
L 191.87712 140.158492 
L 192.23424 141.419666 
L 192.59136 139.668736 
L 192.94848 139.552936 
L 193.3056 144.809209 
L 194.01984 138.488099 
L 194.37696 141.530677 
L 194.73408 145.890588 
L 195.0912 144.463115 
L 195.44832 136.458988 
L 195.80544 141.192855 
L 196.51968 137.342725 
L 196.8768 142.641225 
L 197.23392 143.491875 
L 197.59104 142.943785 
L 197.94816 134.970132 
L 198.30528 138.979596 
L 198.6624 139.272578 
L 199.01952 138.307869 
L 199.37664 142.096181 
L 199.73376 135.364548 
L 200.09088 138.195117 
L 200.448 134.33062 
L 200.80512 139.91775 
L 201.16224 136.670127 
L 201.51936 138.710122 
L 201.87648 133.354157 
L 202.2336 142.122302 
L 202.59072 137.63919 
L 202.94784 141.950343 
L 203.30496 138.640903 
L 203.66208 138.575602 
L 204.0192 133.804732 
L 204.37632 136.341012 
L 204.73344 140.60689 
L 205.09056 135.940936 
L 205.44768 135.805546 
L 205.8048 133.871339 
L 206.16192 129.933705 
L 206.51904 130.401694 
L 206.87616 131.821331 
L 207.23328 135.649259 
L 207.5904 128.387384 
L 207.94752 128.247205 
L 208.30464 128.460521 
L 208.66176 134.412464 
L 209.376 130.499645 
L 209.73312 133.472569 
L 210.09024 138.522056 
L 210.44736 137.756296 
L 210.80448 132.223584 
L 211.1616 133.895717 
L 211.51872 129.192325 
L 211.87584 134.219174 
L 212.23296 131.055136 
L 212.59008 132.818256 
L 212.9472 129.683386 
L 213.30432 131.999385 
L 213.66144 135.348005 
L 214.01856 131.908834 
L 214.37568 132.702891 
L 214.7328 128.895859 
L 215.08992 126.377428 
L 215.44704 127.374353 
L 215.80416 130.861846 
L 216.16128 132.287143 
L 216.5184 134.908749 
L 216.87552 129.179264 
L 217.23264 131.079515 
L 217.58976 128.755245 
L 217.94688 124.202044 
L 218.304 132.133033 
L 218.66112 129.247612 
L 219.01824 133.039843 
L 219.37536 127.819268 
L 219.73248 131.71598 
L 220.0896 129.161416 
L 220.44672 122.487247 
L 220.80384 130.254985 
L 221.51808 127.117503 
L 221.8752 131.149169 
L 222.23232 123.419741 
L 222.58944 123.439767 
L 222.94656 125.115383 
L 223.30368 130.561028 
L 223.6608 120.593091 
L 224.01792 132.278436 
L 224.37504 126.08401 
L 224.73216 131.159182 
L 225.08928 128.577192 
L 225.4464 123.992211 
L 225.80352 121.300515 
L 226.16064 131.237978 
L 226.51776 129.774372 
L 226.87488 131.107377 
L 227.232 124.225117 
L 227.58912 124.786703 
L 227.94624 123.165068 
L 228.30336 119.588766 
L 228.66048 123.247347 
L 229.0176 119.155604 
L 229.37472 125.999555 
L 229.73184 128.215861 
L 230.08896 122.245634 
L 230.44608 120.364538 
L 230.8032 124.059253 
L 231.16032 118.722008 
L 231.51744 129.013836 
L 231.87456 118.780778 
L 232.23168 128.414375 
L 232.5888 121.631372 
L 232.94592 120.747201 
L 233.30304 116.891846 
L 233.66016 117.678502 
L 234.01728 128.049562 
L 234.3744 125.21377 
L 234.73152 126.541551 
L 235.08864 127.391766 
L 235.44576 115.806113 
L 235.80288 116.535304 
L 236.16 119.535655 
L 236.51712 114.776974 
L 236.87424 114.785245 
L 237.23136 115.403425 
L 237.58848 120.920465 
L 237.9456 123.37969 
L 238.30272 120.402848 
L 238.65984 123.401892 
L 239.01696 116.528339 
L 239.37408 115.314616 
L 239.7312 118.229205 
L 240.08832 115.173567 
L 240.44544 115.250622 
L 240.80256 116.238404 
L 241.15968 121.140746 
L 241.5168 115.177049 
L 241.87392 120.460748 
L 242.23104 117.856991 
L 242.58816 112.790961 
L 242.94528 118.511739 
L 243.3024 116.365522 
L 243.65952 115.48048 
L 244.01664 123.195107 
L 244.37376 115.361633 
L 244.73088 114.034722 
L 245.088 119.632735 
L 245.44512 113.734774 
L 245.80224 118.797756 
L 246.15936 121.559541 
L 246.51648 121.027123 
L 246.8736 115.970235 
L 247.23072 122.367529 
L 247.58784 112.369119 
L 247.94496 119.726333 
L 248.30208 113.440486 
L 248.6592 110.577702 
L 249.01632 112.714342 
L 249.37344 122.097184 
L 249.73056 110.63952 
L 250.4448 121.730629 
L 250.80192 114.941531 
L 251.15904 120.060672 
L 251.51616 110.528074 
L 251.87328 115.613258 
L 252.2304 111.983409 
L 252.58752 114.010343 
L 252.94464 110.875038 
L 253.30176 109.212482 
L 253.65888 108.233842 
L 254.016 114.017309 
L 254.73024 108.268234 
L 255.08736 114.821378 
L 255.8016 116.475228 
L 256.15872 106.4224 
L 256.51584 109.051407 
L 256.87296 110.727894 
L 257.23008 107.072795 
L 257.5872 114.981583 
L 257.94432 108.353995 
L 258.65856 106.15815 
L 259.01568 109.765361 
L 259.3728 105.70801 
L 259.72992 112.717824 
L 260.08704 104.7359 
L 260.44416 115.761273 
L 260.80128 115.22276 
L 261.1584 107.131566 
L 261.51552 109.338295 
L 261.87264 110.259035 
L 262.22976 116.46565 
L 262.58688 103.871754 
L 262.944 110.864155 
L 263.30112 109.014838 
L 263.65824 103.791216 
L 264.01536 106.347086 
L 264.37248 107.273486 
L 264.7296 104.835593 
L 265.08672 103.67977 
L 265.44384 110.765333 
L 265.80096 115.640684 
L 266.15808 113.935465 
L 266.5152 107.995712 
L 266.87232 114.333364 
L 267.22944 112.46141 
L 267.58656 112.381743 
L 267.94368 110.696985 
L 268.3008 113.679922 
L 268.65792 105.317947 
L 269.01504 101.621056 
L 269.37216 114.469625 
L 269.72928 108.084956 
L 270.0864 113.934159 
L 270.44352 105.926985 
L 270.80064 110.155424 
L 271.15776 100.888817 
L 271.872 110.181109 
L 272.22912 101.554014 
L 272.58624 107.210797 
L 272.94336 100.686385 
L 273.30048 111.769658 
L 274.01472 105.669265 
L 274.37184 112.164074 
L 275.08608 107.405829 
L 275.4432 102.301489 
L 275.80032 112.130118 
L 276.51456 103.195674 
L 276.87168 102.174806 
L 277.58592 105.594387 
L 277.94304 97.89848 
L 278.30016 99.011204 
L 278.65728 97.777456 
L 279.0144 107.806775 
L 279.37152 110.070533 
L 279.72864 98.203216 
L 280.08576 99.586286 
L 280.44288 96.746575 
L 280.8 100.070817 
L 281.15712 99.336837 
L 281.51424 96.547626 
L 281.87136 109.696143 
L 282.5856 109.597321 
L 282.94272 101.918827 
L 283.29984 97.132285 
L 283.65696 109.387488 
L 284.01408 97.706496 
L 284.3712 102.378544 
L 284.72832 100.89883 
L 285.08544 107.830283 
L 285.44256 108.872918 
L 285.79968 107.761935 
L 286.1568 102.195267 
L 286.51392 94.646504 
L 286.87104 98.097865 
L 287.22816 98.898887 
L 287.58528 95.531982 
L 287.9424 107.817223 
L 288.65664 95.304735 
L 289.01376 99.976784 
L 289.37088 93.537698 
L 289.728 106.616125 
L 290.08512 105.711058 
L 290.44224 96.848444 
L 290.79936 101.382055 
L 291.15648 101.511351 
L 291.5136 97.413078 
L 291.87072 105.646627 
L 292.22784 92.73624 
L 292.58496 102.974957 
L 292.94208 97.241119 
L 293.2992 95.141919 
L 293.65632 94.998257 
L 294.37056 98.260246 
L 294.72768 99.651586 
L 295.0848 104.555235 
L 295.44192 102.655419 
L 295.79904 91.255656 
L 296.15616 95.231163 
L 296.51328 100.978932 
L 296.8704 95.090984 
L 297.22752 103.910499 
L 297.58464 91.123748 
L 297.94176 95.962967 
L 298.29888 96.672568 
L 298.656 101.65153 
L 299.01312 99.264571 
L 299.37024 90.203879 
L 299.72736 99.942392 
L 300.08448 96.292517 
L 300.4416 96.124477 
L 300.79872 100.7186 
L 301.15584 89.908719 
L 301.51296 90.3606 
L 301.87008 99.789153 
L 302.2272 101.321543 
L 302.58432 92.083669 
L 302.94144 99.672047 
L 303.29856 96.265527 
L 303.65568 88.506495 
L 304.0128 101.885306 
L 304.36992 93.815008 
L 304.72704 90.091561 
L 305.08416 93.11542 
L 305.44128 100.695092 
L 305.7984 99.977655 
L 306.15552 100.121316 
L 306.51264 87.767727 
L 306.86976 95.495849 
L 307.22688 92.754525 
L 307.584 87.696767 
L 307.94112 91.542108 
L 308.29824 97.077867 
L 308.65536 90.869946 
L 309.01248 94.078823 
L 309.3696 92.048406 
L 309.72672 99.583238 
L 310.08384 96.789238 
L 310.44096 89.151231 
L 310.79808 87.202658 
L 311.1552 89.980115 
L 311.51232 95.075747 
L 311.86944 92.788481 
L 312.22656 95.103174 
L 312.58368 98.33643 
L 312.9408 94.156313 
L 313.29792 96.934641 
L 313.65504 85.530959 
L 314.01216 88.870438 
L 314.36928 95.369165 
L 314.7264 85.930164 
L 315.08352 93.25081 
L 315.44064 97.969005 
L 315.79776 95.552443 
L 316.15488 85.795645 
L 316.512 97.102246 
L 316.86912 85.387298 
L 317.22624 89.892612 
L 317.58336 97.872359 
L 317.94048 88.87958 
L 318.2976 94.095801 
L 318.65472 85.448681 
L 319.01184 92.266511 
L 319.36896 86.564887 
L 319.72608 84.21885 
L 320.0832 85.831343 
L 320.44032 89.824264 
L 320.79744 88.583986 
L 321.15456 83.958518 
L 321.51168 94.939487 
L 321.8688 91.632223 
L 322.22592 96.285552 
L 322.58304 83.505767 
L 322.94016 81.808383 
L 323.6544 89.128158 
L 324.01152 89.026289 
L 324.36864 92.08541 
L 324.72576 89.305341 
L 325.08288 82.198011 
L 325.44 87.776869 
L 325.79712 90.315325 
L 326.15424 94.109297 
L 326.51136 90.477706 
L 326.86848 92.856394 
L 327.2256 88.298404 
L 327.58272 80.650384 
L 327.93984 94.651293 
L 328.29696 91.874706 
L 328.65408 84.943253 
L 329.0112 87.934461 
L 329.36832 79.219427 
L 329.72544 92.485486 
L 330.43968 81.124902 
L 330.7968 88.592692 
L 331.15392 80.919858 
L 331.51104 84.561026 
L 332.22528 86.752083 
L 332.5824 91.882107 
L 332.93952 90.032355 
L 333.65376 84.251065 
L 334.01088 88.046778 
L 334.368 86.405989 
L 334.72512 87.088164 
L 335.08224 92.422362 
L 335.43936 84.627633 
L 335.79648 91.406718 
L 336.1536 81.380881 
L 336.51072 78.459762 
L 337.22496 81.910688 
L 337.58208 80.921164 
L 337.9392 81.313404 
L 338.29632 86.918382 
L 338.65344 85.176594 
L 339.01056 84.464381 
L 339.36768 79.917274 
L 339.7248 84.486583 
L 340.08192 79.195049 
L 340.43904 85.66635 
L 341.15328 81.198475 
L 341.5104 86.724221 
L 341.86752 77.51029 
L 342.22464 85.359872 
L 342.58176 77.157231 
L 342.93888 78.590799 
L 343.296 78.368777 
L 343.65312 83.648557 
L 344.01024 81.708255 
L 344.36736 81.006926 
L 344.72448 76.689242 
L 345.0816 83.641157 
L 345.43872 85.084738 
L 345.79584 81.99079 
L 346.15296 88.304063 
L 346.51008 79.824547 
L 346.8672 87.046371 
L 347.22432 84.384279 
L 347.58144 78.976073 
L 347.93856 87.893539 
L 348.29568 81.343442 
L 348.6528 78.31436 
L 349.00992 88.370235 
L 349.36704 75.529502 
L 349.72416 77.68399 
L 350.08128 78.542477 
L 350.4384 83.001645 
L 350.79552 75.972676 
L 351.50976 86.046835 
L 351.86688 85.940613 
L 352.224 87.37244 
L 352.58112 78.555102 
L 352.93824 84.036444 
L 353.29536 83.647251 
L 353.65248 76.214289 
L 354.0096 72.911378 
L 354.36672 86.096899 
L 354.72384 84.118287 
L 355.08096 80.1689 
L 355.43808 73.410276 
L 355.7952 85.550985 
L 356.50944 75.99749 
L 356.86656 84.463075 
L 357.22368 80.977323 
L 357.5808 83.494448 
L 357.93792 83.294628 
L 358.29504 71.860472 
L 359.00928 81.348231 
L 359.3664 70.29282 
L 359.72352 73.527382 
L 360.08064 84.188377 
L 360.43776 72.023289 
L 360.79488 75.518183 
L 361.152 70.69246 
L 361.50912 80.626876 
L 361.86624 73.541313 
L 362.22336 68.867087 
L 362.58048 75.919129 
L 362.9376 80.350436 
L 363.29472 77.569496 
L 363.65184 72.426847 
L 364.00896 77.740584 
L 364.36608 74.571758 
L 364.7232 81.201087 
L 365.08032 72.186105 
L 365.79456 80.970357 
L 366.15168 81.619011 
L 366.86592 75.906504 
L 367.22304 81.711303 
L 367.58016 68.308984 
L 367.93728 69.450876 
L 368.65152 74.00103 
L 369.00864 82.356039 
L 369.36576 81.724798 
L 369.72288 74.038033 
L 370.43712 81.532814 
L 371.15136 69.705984 
L 371.50848 74.141644 
L 371.8656 66.801408 
L 372.22272 68.967215 
L 372.57984 68.989417 
L 372.93696 69.157458 
L 373.29408 70.730334 
L 373.6512 68.751287 
L 374.00832 66.043484 
L 374.36544 79.404011 
L 374.72256 75.776774 
L 375.07968 78.927316 
L 375.4368 72.560496 
L 376.15104 79.516328 
L 376.50816 77.940404 
L 376.86528 66.712164 
L 377.2224 72.64321 
L 377.57952 72.930098 
L 377.93664 79.373102 
L 378.29376 74.365843 
L 378.65088 64.134962 
L 379.008 67.15142 
L 379.36512 78.95866 
L 380.07936 64.442746 
L 380.43648 76.819408 
L 380.7936 70.475226 
L 381.15072 71.840447 
L 381.50784 70.5636 
L 381.86496 70.934508 
L 382.22208 76.483327 
L 382.5792 64.047024 
L 382.93632 66.982509 
L 383.29344 72.227027 
L 383.65056 74.024102 
L 384.00768 69.995048 
L 384.3648 74.020184 
L 384.72192 75.493369 
L 385.07904 69.705984 
L 385.43616 78.033566 
L 385.79328 65.54894 
L 386.1504 65.609887 
L 386.86464 72.53394 
L 387.22176 62.062753 
L 387.57888 76.395824 
L 387.936 66.608553 
L 388.29312 75.624405 
L 388.65024 66.305558 
L 389.00736 62.365748 
L 389.36448 66.876721 
L 389.7216 67.714747 
L 390.07872 63.259497 
L 390.43584 75.252191 
L 390.79296 70.185726 
L 391.15008 61.151155 
L 391.5072 65.228096 
L 391.86432 73.226563 
L 392.22144 73.40984 
L 392.57856 66.925915 
L 392.93568 75.83032 
L 393.2928 60.48204 
L 393.64992 61.008799 
L 394.00704 63.342647 
L 394.36416 71.532227 
L 394.72128 72.46298 
L 395.0784 65.395266 
L 395.43552 67.553237 
L 395.79264 71.456914 
L 396.14976 63.665667 
L 396.50688 68.935 
L 396.864 68.005118 
L 397.22112 71.20137 
L 397.57824 58.502993 
L 397.93536 62.863775 
L 398.29248 57.981893 
L 398.6496 62.063188 
L 399.00672 61.329208 
L 399.36384 71.10429 
L 399.72096 66.918949 
L 400.07808 65.802307 
L 400.4352 70.531385 
L 400.79232 71.788641 
L 401.14944 60.024064 
L 401.50656 69.322886 
L 402.2208 60.442424 
L 402.57792 66.454879 
L 402.93504 57.628834 
L 403.29216 72.244005 
L 403.64928 58.819048 
L 404.0064 60.798531 
L 404.36352 67.378666 
L 404.72064 58.82079 
L 405.07776 68.495744 
L 405.43488 70.466955 
L 406.14912 60.103296 
L 406.50624 67.137924 
L 406.86336 60.713204 
L 407.22048 59.318381 
L 407.5776 62.049692 
L 407.93472 68.406499 
L 408.29184 66.119668 
L 408.64896 61.385802 
L 409.00608 70.231002 
L 409.3632 60.262194 
L 409.72032 63.390098 
L 410.07744 70.74383 
L 410.43456 69.653308 
L 410.79168 70.523549 
L 411.1488 55.375959 
L 411.50592 62.925593 
L 411.86304 58.715438 
L 412.22016 66.374777 
L 412.57728 69.736457 
L 412.9344 66.355186 
L 413.29152 64.921618 
L 413.64864 66.947246 
L 414.00576 57.943583 
L 414.36288 53.568 
L 414.72 69.757354 
L 414.72 69.757354 
" style="fill:none;stroke:#000080;stroke-linecap:square;stroke-width:0.5;"/>
   </g>
   <g id="patch_3">
    <path d="M 57.6 307.584 
L 57.6 41.472 
" style="fill:none;stroke:#000000;stroke-linecap:square;stroke-linejoin:miter;stroke-width:0.8;"/>
   </g>
   <g id="patch_4">
    <path d="M 414.72 307.584 
L 414.72 41.472 
" style="fill:none;stroke:#000000;stroke-linecap:square;stroke-linejoin:miter;stroke-width:0.8;"/>
   </g>
   <g id="patch_5">
    <path d="M 57.6 307.584 
L 414.72 307.584 
" style="fill:none;stroke:#000000;stroke-linecap:square;stroke-linejoin:miter;stroke-width:0.8;"/>
   </g>
   <g id="patch_6">
    <path d="M 57.6 41.472 
L 414.72 41.472 
" style="fill:none;stroke:#000000;stroke-linecap:square;stroke-linejoin:miter;stroke-width:0.8;"/>
   </g>
   <g id="text_15">
    <!-- Test -->
    <defs>
     <path d="M -0.296875 72.90625 
L 61.375 72.90625 
L 61.375 64.59375 
L 35.5 64.59375 
L 35.5 0 
L 25.59375 0 
L 25.59375 64.59375 
L -0.296875 64.59375 
z
" id="DejaVuSans-54"/>
    </defs>
    <g transform="translate(223.341563 35.472)scale(0.12 -0.12)">
     <use xlink:href="#DejaVuSans-54"/>
     <use x="60.818359" xlink:href="#DejaVuSans-65"/>
     <use x="122.341797" xlink:href="#DejaVuSans-73"/>
     <use x="174.441406" xlink:href="#DejaVuSans-74"/>
    </g>
   </g>
   <g id="legend_1">
    <g id="patch_7">
     <path d="M 64.6 64.150125 
L 306.276563 64.150125 
Q 308.276563 64.150125 308.276563 62.150125 
L 308.276563 48.472 
Q 308.276563 46.472 306.276563 46.472 
L 64.6 46.472 
Q 62.6 46.472 62.6 48.472 
L 62.6 62.150125 
Q 62.6 64.150125 64.6 64.150125 
z
" style="fill:#ffffff;opacity:0.8;stroke:#cccccc;stroke-linejoin:miter;"/>
    </g>
    <g id="line2d_26">
     <path d="M 66.6 54.570438 
L 86.6 54.570438 
" style="fill:none;stroke:#000080;stroke-linecap:square;stroke-width:0.5;"/>
    </g>
    <g id="line2d_27"/>
    <g id="text_16">
     <!-- Successful download requests per second -->
     <g transform="translate(94.6 58.070438)scale(0.1 -0.1)">
      <use xlink:href="#DejaVuSans-53"/>
      <use x="63.476562" xlink:href="#DejaVuSans-75"/>
      <use x="126.855469" xlink:href="#DejaVuSans-63"/>
      <use x="181.835938" xlink:href="#DejaVuSans-63"/>
      <use x="236.816406" xlink:href="#DejaVuSans-65"/>
      <use x="298.339844" xlink:href="#DejaVuSans-73"/>
      <use x="350.439453" xlink:href="#DejaVuSans-73"/>
      <use x="402.539062" xlink:href="#DejaVuSans-66"/>
      <use x="437.744141" xlink:href="#DejaVuSans-75"/>
      <use x="501.123047" xlink:href="#DejaVuSans-6c"/>
      <use x="528.90625" xlink:href="#DejaVuSans-20"/>
      <use x="560.693359" xlink:href="#DejaVuSans-64"/>
      <use x="624.169922" xlink:href="#DejaVuSans-6f"/>
      <use x="685.351562" xlink:href="#DejaVuSans-77"/>
      <use x="767.138672" xlink:href="#DejaVuSans-6e"/>
      <use x="830.517578" xlink:href="#DejaVuSans-6c"/>
      <use x="858.300781" xlink:href="#DejaVuSans-6f"/>
      <use x="919.482422" xlink:href="#DejaVuSans-61"/>
      <use x="980.761719" xlink:href="#DejaVuSans-64"/>
      <use x="1044.238281" xlink:href="#DejaVuSans-20"/>
      <use x="1076.025391" xlink:href="#DejaVuSans-72"/>
      <use x="1117.107422" xlink:href="#DejaVuSans-65"/>
      <use x="1178.630859" xlink:href="#DejaVuSans-71"/>
      <use x="1242.107422" xlink:href="#DejaVuSans-75"/>
      <use x="1305.486328" xlink:href="#DejaVuSans-65"/>
      <use x="1367.009766" xlink:href="#DejaVuSans-73"/>
      <use x="1419.109375" xlink:href="#DejaVuSans-74"/>
      <use x="1458.318359" xlink:href="#DejaVuSans-73"/>
      <use x="1510.417969" xlink:href="#DejaVuSans-20"/>
      <use x="1542.205078" xlink:href="#DejaVuSans-70"/>
      <use x="1605.681641" xlink:href="#DejaVuSans-65"/>
      <use x="1667.205078" xlink:href="#DejaVuSans-72"/>
      <use x="1708.318359" xlink:href="#DejaVuSans-20"/>
      <use x="1740.105469" xlink:href="#DejaVuSans-73"/>
      <use x="1792.205078" xlink:href="#DejaVuSans-65"/>
      <use x="1853.728516" xlink:href="#DejaVuSans-63"/>
      <use x="1908.708984" xlink:href="#DejaVuSans-6f"/>
      <use x="1969.890625" xlink:href="#DejaVuSans-6e"/>
      <use x="2033.269531" xlink:href="#DejaVuSans-64"/>
     </g>
    </g>
   </g>
  </g>
 </g>
 <defs>
  <clipPath id="p931515e2d0">
   <rect height="266.112" width="357.12" x="57.6" y="41.472"/>
  </clipPath>
 </defs>
</svg>
