<?xml version="1.0" encoding="utf-8" standalone="no"?>
<!DOCTYPE svg PUBLIC "-//W3C//DTD SVG 1.1//EN"
  "http://www.w3.org/Graphics/SVG/1.1/DTD/svg11.dtd">
<!-- Created with matplotlib (http://matplotlib.org/) -->
<svg height="345pt" version="1.1" viewBox="0 0 460 345" width="460pt" xmlns="http://www.w3.org/2000/svg" xmlns:xlink="http://www.w3.org/1999/xlink">
 <defs>
  <style type="text/css">
*{stroke-linecap:butt;stroke-linejoin:round;}
  </style>
 </defs>
 <g id="figure_1">
  <g id="patch_1">
   <path d="M 0 345.6 
L 460.8 345.6 
L 460.8 0 
L 0 0 
z
" style="fill:#ffffff;"/>
  </g>
  <g id="axes_1">
   <g id="patch_2">
    <path d="M 57.6 307.584 
L 414.72 307.584 
L 414.72 41.472 
L 57.6 41.472 
z
" style="fill:#ffffff;"/>
   </g>
   <g id="matplotlib.axis_1">
    <g id="xtick_1">
     <g id="line2d_1">
      <path clip-path="url(#p5bc79b5349)" d="M 57.6 307.584 
L 57.6 41.472 
" style="fill:none;stroke:#b0b0b0;stroke-linecap:square;stroke-width:0.8;"/>
     </g>
     <g id="line2d_2">
      <defs>
       <path d="M 0 0 
L 0 3.5 
" id="m006668843c" style="stroke:#000000;stroke-width:0.8;"/>
      </defs>
      <g>
       <use style="stroke:#000000;stroke-width:0.8;" x="57.6" xlink:href="#m006668843c" y="307.584"/>
      </g>
     </g>
     <g id="text_1">
      <!-- 0 -->
      <defs>
       <path d="M 31.78125 66.40625 
Q 24.171875 66.40625 20.328125 58.90625 
Q 16.5 51.421875 16.5 36.375 
Q 16.5 21.390625 20.328125 13.890625 
Q 24.171875 6.390625 31.78125 6.390625 
Q 39.453125 6.390625 43.28125 13.890625 
Q 47.125 21.390625 47.125 36.375 
Q 47.125 51.421875 43.28125 58.90625 
Q 39.453125 66.40625 31.78125 66.40625 
M 31.78125 74.21875 
Q 44.046875 74.21875 50.515625 64.515625 
Q 56.984375 54.828125 56.984375 36.375 
Q 56.984375 17.96875 50.515625 8.265625 
Q 44.046875 -1.421875 31.78125 -1.421875 
Q 19.53125 -1.421875 13.0625 8.265625 
Q 6.59375 17.96875 6.59375 36.375 
Q 6.59375 54.828125 13.0625 64.515625 
Q 19.53125 74.21875 31.78125 74.21875 
" id="DejaVuSans-30"/>
      </defs>
      <g transform="translate(54.41875 322.182437)scale(0.1 -0.1)">
       <use xlink:href="#DejaVuSans-30"/>
      </g>
     </g>
    </g>
    <g id="xtick_2">
     <g id="line2d_3">
      <path clip-path="url(#p5bc79b5349)" d="M 129.024 307.584 
L 129.024 41.472 
" style="fill:none;stroke:#b0b0b0;stroke-linecap:square;stroke-width:0.8;"/>
     </g>
     <g id="line2d_4">
      <g>
       <use style="stroke:#000000;stroke-width:0.8;" x="129.024" xlink:href="#m006668843c" y="307.584"/>
      </g>
     </g>
     <g id="text_2">
      <!-- 200 -->
      <defs>
       <path d="M 19.1875 8.296875 
L 53.609375 8.296875 
L 53.609375 0 
L 7.328125 0 
L 7.328125 8.296875 
Q 12.9375 14.109375 22.625 23.890625 
Q 32.328125 33.6875 34.8125 36.53125 
Q 39.546875 41.84375 41.421875 45.53125 
Q 43.3125 49.21875 43.3125 52.78125 
Q 43.3125 58.59375 39.234375 62.25 
Q 35.15625 65.921875 28.609375 65.921875 
Q 23.96875 65.921875 18.8125 64.3125 
Q 13.671875 62.703125 7.8125 59.421875 
L 7.8125 69.390625 
Q 13.765625 71.78125 18.9375 73 
Q 24.125 74.21875 28.421875 74.21875 
Q 39.75 74.21875 46.484375 68.546875 
Q 53.21875 62.890625 53.21875 53.421875 
Q 53.21875 48.921875 51.53125 44.890625 
Q 49.859375 40.875 45.40625 35.40625 
Q 44.1875 33.984375 37.640625 27.21875 
Q 31.109375 20.453125 19.1875 8.296875 
" id="DejaVuSans-32"/>
      </defs>
      <g transform="translate(119.48025 322.182437)scale(0.1 -0.1)">
       <use xlink:href="#DejaVuSans-32"/>
       <use x="63.623047" xlink:href="#DejaVuSans-30"/>
       <use x="127.246094" xlink:href="#DejaVuSans-30"/>
      </g>
     </g>
    </g>
    <g id="xtick_3">
     <g id="line2d_5">
      <path clip-path="url(#p5bc79b5349)" d="M 200.448 307.584 
L 200.448 41.472 
" style="fill:none;stroke:#b0b0b0;stroke-linecap:square;stroke-width:0.8;"/>
     </g>
     <g id="line2d_6">
      <g>
       <use style="stroke:#000000;stroke-width:0.8;" x="200.448" xlink:href="#m006668843c" y="307.584"/>
      </g>
     </g>
     <g id="text_3">
      <!-- 400 -->
      <defs>
       <path d="M 37.796875 64.3125 
L 12.890625 25.390625 
L 37.796875 25.390625 
z
M 35.203125 72.90625 
L 47.609375 72.90625 
L 47.609375 25.390625 
L 58.015625 25.390625 
L 58.015625 17.1875 
L 47.609375 17.1875 
L 47.609375 0 
L 37.796875 0 
L 37.796875 17.1875 
L 4.890625 17.1875 
L 4.890625 26.703125 
z
" id="DejaVuSans-34"/>
      </defs>
      <g transform="translate(190.90425 322.182437)scale(0.1 -0.1)">
       <use xlink:href="#DejaVuSans-34"/>
       <use x="63.623047" xlink:href="#DejaVuSans-30"/>
       <use x="127.246094" xlink:href="#DejaVuSans-30"/>
      </g>
     </g>
    </g>
    <g id="xtick_4">
     <g id="line2d_7">
      <path clip-path="url(#p5bc79b5349)" d="M 271.872 307.584 
L 271.872 41.472 
" style="fill:none;stroke:#b0b0b0;stroke-linecap:square;stroke-width:0.8;"/>
     </g>
     <g id="line2d_8">
      <g>
       <use style="stroke:#000000;stroke-width:0.8;" x="271.872" xlink:href="#m006668843c" y="307.584"/>
      </g>
     </g>
     <g id="text_4">
      <!-- 600 -->
      <defs>
       <path d="M 33.015625 40.375 
Q 26.375 40.375 22.484375 35.828125 
Q 18.609375 31.296875 18.609375 23.390625 
Q 18.609375 15.53125 22.484375 10.953125 
Q 26.375 6.390625 33.015625 6.390625 
Q 39.65625 6.390625 43.53125 10.953125 
Q 47.40625 15.53125 47.40625 23.390625 
Q 47.40625 31.296875 43.53125 35.828125 
Q 39.65625 40.375 33.015625 40.375 
M 52.59375 71.296875 
L 52.59375 62.3125 
Q 48.875 64.0625 45.09375 64.984375 
Q 41.3125 65.921875 37.59375 65.921875 
Q 27.828125 65.921875 22.671875 59.328125 
Q 17.53125 52.734375 16.796875 39.40625 
Q 19.671875 43.65625 24.015625 45.921875 
Q 28.375 48.1875 33.59375 48.1875 
Q 44.578125 48.1875 50.953125 41.515625 
Q 57.328125 34.859375 57.328125 23.390625 
Q 57.328125 12.15625 50.6875 5.359375 
Q 44.046875 -1.421875 33.015625 -1.421875 
Q 20.359375 -1.421875 13.671875 8.265625 
Q 6.984375 17.96875 6.984375 36.375 
Q 6.984375 53.65625 15.1875 63.9375 
Q 23.390625 74.21875 37.203125 74.21875 
Q 40.921875 74.21875 44.703125 73.484375 
Q 48.484375 72.75 52.59375 71.296875 
" id="DejaVuSans-36"/>
      </defs>
      <g transform="translate(262.32825 322.182437)scale(0.1 -0.1)">
       <use xlink:href="#DejaVuSans-36"/>
       <use x="63.623047" xlink:href="#DejaVuSans-30"/>
       <use x="127.246094" xlink:href="#DejaVuSans-30"/>
      </g>
     </g>
    </g>
    <g id="xtick_5">
     <g id="line2d_9">
      <path clip-path="url(#p5bc79b5349)" d="M 343.296 307.584 
L 343.296 41.472 
" style="fill:none;stroke:#b0b0b0;stroke-linecap:square;stroke-width:0.8;"/>
     </g>
     <g id="line2d_10">
      <g>
       <use style="stroke:#000000;stroke-width:0.8;" x="343.296" xlink:href="#m006668843c" y="307.584"/>
      </g>
     </g>
     <g id="text_5">
      <!-- 800 -->
      <defs>
       <path d="M 31.78125 34.625 
Q 24.75 34.625 20.71875 30.859375 
Q 16.703125 27.09375 16.703125 20.515625 
Q 16.703125 13.921875 20.71875 10.15625 
Q 24.75 6.390625 31.78125 6.390625 
Q 38.8125 6.390625 42.859375 10.171875 
Q 46.921875 13.96875 46.921875 20.515625 
Q 46.921875 27.09375 42.890625 30.859375 
Q 38.875 34.625 31.78125 34.625 
M 21.921875 38.8125 
Q 15.578125 40.375 12.03125 44.71875 
Q 8.5 49.078125 8.5 55.328125 
Q 8.5 64.0625 14.71875 69.140625 
Q 20.953125 74.21875 31.78125 74.21875 
Q 42.671875 74.21875 48.875 69.140625 
Q 55.078125 64.0625 55.078125 55.328125 
Q 55.078125 49.078125 51.53125 44.71875 
Q 48 40.375 41.703125 38.8125 
Q 48.828125 37.15625 52.796875 32.3125 
Q 56.78125 27.484375 56.78125 20.515625 
Q 56.78125 9.90625 50.3125 4.234375 
Q 43.84375 -1.421875 31.78125 -1.421875 
Q 19.734375 -1.421875 13.25 4.234375 
Q 6.78125 9.90625 6.78125 20.515625 
Q 6.78125 27.484375 10.78125 32.3125 
Q 14.796875 37.15625 21.921875 38.8125 
M 18.3125 54.390625 
Q 18.3125 48.734375 21.84375 45.5625 
Q 25.390625 42.390625 31.78125 42.390625 
Q 38.140625 42.390625 41.71875 45.5625 
Q 45.3125 48.734375 45.3125 54.390625 
Q 45.3125 60.0625 41.71875 63.234375 
Q 38.140625 66.40625 31.78125 66.40625 
Q 25.390625 66.40625 21.84375 63.234375 
Q 18.3125 60.0625 18.3125 54.390625 
" id="DejaVuSans-38"/>
      </defs>
      <g transform="translate(333.75225 322.182437)scale(0.1 -0.1)">
       <use xlink:href="#DejaVuSans-38"/>
       <use x="63.623047" xlink:href="#DejaVuSans-30"/>
       <use x="127.246094" xlink:href="#DejaVuSans-30"/>
      </g>
     </g>
    </g>
    <g id="xtick_6">
     <g id="line2d_11">
      <path clip-path="url(#p5bc79b5349)" d="M 414.72 307.584 
L 414.72 41.472 
" style="fill:none;stroke:#b0b0b0;stroke-linecap:square;stroke-width:0.8;"/>
     </g>
     <g id="line2d_12">
      <g>
       <use style="stroke:#000000;stroke-width:0.8;" x="414.72" xlink:href="#m006668843c" y="307.584"/>
      </g>
     </g>
     <g id="text_6">
      <!-- 1000 -->
      <defs>
       <path d="M 12.40625 8.296875 
L 28.515625 8.296875 
L 28.515625 63.921875 
L 10.984375 60.40625 
L 10.984375 69.390625 
L 28.421875 72.90625 
L 38.28125 72.90625 
L 38.28125 8.296875 
L 54.390625 8.296875 
L 54.390625 0 
L 12.40625 0 
z
" id="DejaVuSans-31"/>
      </defs>
      <g transform="translate(401.995 322.182437)scale(0.1 -0.1)">
       <use xlink:href="#DejaVuSans-31"/>
       <use x="63.623047" xlink:href="#DejaVuSans-30"/>
       <use x="127.246094" xlink:href="#DejaVuSans-30"/>
       <use x="190.869141" xlink:href="#DejaVuSans-30"/>
      </g>
     </g>
    </g>
    <g id="text_7">
     <!-- Number of clients -->
     <defs>
      <path d="M 9.8125 72.90625 
L 23.09375 72.90625 
L 55.421875 11.921875 
L 55.421875 72.90625 
L 64.984375 72.90625 
L 64.984375 0 
L 51.703125 0 
L 19.390625 60.984375 
L 19.390625 0 
L 9.8125 0 
z
" id="DejaVuSans-4e"/>
      <path d="M 8.5 21.578125 
L 8.5 54.6875 
L 17.484375 54.6875 
L 17.484375 21.921875 
Q 17.484375 14.15625 20.5 10.265625 
Q 23.53125 6.390625 29.59375 6.390625 
Q 36.859375 6.390625 41.078125 11.03125 
Q 45.3125 15.671875 45.3125 23.6875 
L 45.3125 54.6875 
L 54.296875 54.6875 
L 54.296875 0 
L 45.3125 0 
L 45.3125 8.40625 
Q 42.046875 3.421875 37.71875 1 
Q 33.40625 -1.421875 27.6875 -1.421875 
Q 18.265625 -1.421875 13.375 4.4375 
Q 8.5 10.296875 8.5 21.578125 
M 31.109375 56 
z
" id="DejaVuSans-75"/>
      <path d="M 52 44.1875 
Q 55.375 50.25 60.0625 53.125 
Q 64.75 56 71.09375 56 
Q 79.640625 56 84.28125 50.015625 
Q 88.921875 44.046875 88.921875 33.015625 
L 88.921875 0 
L 79.890625 0 
L 79.890625 32.71875 
Q 79.890625 40.578125 77.09375 44.375 
Q 74.3125 48.1875 68.609375 48.1875 
Q 61.625 48.1875 57.5625 43.546875 
Q 53.515625 38.921875 53.515625 30.90625 
L 53.515625 0 
L 44.484375 0 
L 44.484375 32.71875 
Q 44.484375 40.625 41.703125 44.40625 
Q 38.921875 48.1875 33.109375 48.1875 
Q 26.21875 48.1875 22.15625 43.53125 
Q 18.109375 38.875 18.109375 30.90625 
L 18.109375 0 
L 9.078125 0 
L 9.078125 54.6875 
L 18.109375 54.6875 
L 18.109375 46.1875 
Q 21.1875 51.21875 25.484375 53.609375 
Q 29.78125 56 35.6875 56 
Q 41.65625 56 45.828125 52.96875 
Q 50 49.953125 52 44.1875 
" id="DejaVuSans-6d"/>
      <path d="M 48.6875 27.296875 
Q 48.6875 37.203125 44.609375 42.84375 
Q 40.53125 48.484375 33.40625 48.484375 
Q 26.265625 48.484375 22.1875 42.84375 
Q 18.109375 37.203125 18.109375 27.296875 
Q 18.109375 17.390625 22.1875 11.75 
Q 26.265625 6.109375 33.40625 6.109375 
Q 40.53125 6.109375 44.609375 11.75 
Q 48.6875 17.390625 48.6875 27.296875 
M 18.109375 46.390625 
Q 20.953125 51.265625 25.265625 53.625 
Q 29.59375 56 35.59375 56 
Q 45.5625 56 51.78125 48.09375 
Q 58.015625 40.1875 58.015625 27.296875 
Q 58.015625 14.40625 51.78125 6.484375 
Q 45.5625 -1.421875 35.59375 -1.421875 
Q 29.59375 -1.421875 25.265625 0.953125 
Q 20.953125 3.328125 18.109375 8.203125 
L 18.109375 0 
L 9.078125 0 
L 9.078125 75.984375 
L 18.109375 75.984375 
z
" id="DejaVuSans-62"/>
      <path d="M 56.203125 29.59375 
L 56.203125 25.203125 
L 14.890625 25.203125 
Q 15.484375 15.921875 20.484375 11.0625 
Q 25.484375 6.203125 34.421875 6.203125 
Q 39.59375 6.203125 44.453125 7.46875 
Q 49.3125 8.734375 54.109375 11.28125 
L 54.109375 2.78125 
Q 49.265625 0.734375 44.1875 -0.34375 
Q 39.109375 -1.421875 33.890625 -1.421875 
Q 20.796875 -1.421875 13.15625 6.1875 
Q 5.515625 13.8125 5.515625 26.8125 
Q 5.515625 40.234375 12.765625 48.109375 
Q 20.015625 56 32.328125 56 
Q 43.359375 56 49.78125 48.890625 
Q 56.203125 41.796875 56.203125 29.59375 
M 47.21875 32.234375 
Q 47.125 39.59375 43.09375 43.984375 
Q 39.0625 48.390625 32.421875 48.390625 
Q 24.90625 48.390625 20.390625 44.140625 
Q 15.875 39.890625 15.1875 32.171875 
z
" id="DejaVuSans-65"/>
      <path d="M 41.109375 46.296875 
Q 39.59375 47.171875 37.8125 47.578125 
Q 36.03125 48 33.890625 48 
Q 26.265625 48 22.1875 43.046875 
Q 18.109375 38.09375 18.109375 28.8125 
L 18.109375 0 
L 9.078125 0 
L 9.078125 54.6875 
L 18.109375 54.6875 
L 18.109375 46.1875 
Q 20.953125 51.171875 25.484375 53.578125 
Q 30.03125 56 36.53125 56 
Q 37.453125 56 38.578125 55.875 
Q 39.703125 55.765625 41.0625 55.515625 
z
" id="DejaVuSans-72"/>
      <path id="DejaVuSans-20"/>
      <path d="M 30.609375 48.390625 
Q 23.390625 48.390625 19.1875 42.75 
Q 14.984375 37.109375 14.984375 27.296875 
Q 14.984375 17.484375 19.15625 11.84375 
Q 23.34375 6.203125 30.609375 6.203125 
Q 37.796875 6.203125 41.984375 11.859375 
Q 46.1875 17.53125 46.1875 27.296875 
Q 46.1875 37.015625 41.984375 42.703125 
Q 37.796875 48.390625 30.609375 48.390625 
M 30.609375 56 
Q 42.328125 56 49.015625 48.375 
Q 55.71875 40.765625 55.71875 27.296875 
Q 55.71875 13.875 49.015625 6.21875 
Q 42.328125 -1.421875 30.609375 -1.421875 
Q 18.84375 -1.421875 12.171875 6.21875 
Q 5.515625 13.875 5.515625 27.296875 
Q 5.515625 40.765625 12.171875 48.375 
Q 18.84375 56 30.609375 56 
" id="DejaVuSans-6f"/>
      <path d="M 37.109375 75.984375 
L 37.109375 68.5 
L 28.515625 68.5 
Q 23.6875 68.5 21.796875 66.546875 
Q 19.921875 64.59375 19.921875 59.515625 
L 19.921875 54.6875 
L 34.71875 54.6875 
L 34.71875 47.703125 
L 19.921875 47.703125 
L 19.921875 0 
L 10.890625 0 
L 10.890625 47.703125 
L 2.296875 47.703125 
L 2.296875 54.6875 
L 10.890625 54.6875 
L 10.890625 58.5 
Q 10.890625 67.625 15.140625 71.796875 
Q 19.390625 75.984375 28.609375 75.984375 
z
" id="DejaVuSans-66"/>
      <path d="M 48.78125 52.59375 
L 48.78125 44.1875 
Q 44.96875 46.296875 41.140625 47.34375 
Q 37.3125 48.390625 33.40625 48.390625 
Q 24.65625 48.390625 19.8125 42.84375 
Q 14.984375 37.3125 14.984375 27.296875 
Q 14.984375 17.28125 19.8125 11.734375 
Q 24.65625 6.203125 33.40625 6.203125 
Q 37.3125 6.203125 41.140625 7.25 
Q 44.96875 8.296875 48.78125 10.40625 
L 48.78125 2.09375 
Q 45.015625 0.34375 40.984375 -0.53125 
Q 36.96875 -1.421875 32.421875 -1.421875 
Q 20.0625 -1.421875 12.78125 6.34375 
Q 5.515625 14.109375 5.515625 27.296875 
Q 5.515625 40.671875 12.859375 48.328125 
Q 20.21875 56 33.015625 56 
Q 37.15625 56 41.109375 55.140625 
Q 45.0625 54.296875 48.78125 52.59375 
" id="DejaVuSans-63"/>
      <path d="M 9.421875 75.984375 
L 18.40625 75.984375 
L 18.40625 0 
L 9.421875 0 
z
" id="DejaVuSans-6c"/>
      <path d="M 9.421875 54.6875 
L 18.40625 54.6875 
L 18.40625 0 
L 9.421875 0 
z
M 9.421875 75.984375 
L 18.40625 75.984375 
L 18.40625 64.59375 
L 9.421875 64.59375 
z
" id="DejaVuSans-69"/>
      <path d="M 54.890625 33.015625 
L 54.890625 0 
L 45.90625 0 
L 45.90625 32.71875 
Q 45.90625 40.484375 42.875 44.328125 
Q 39.84375 48.1875 33.796875 48.1875 
Q 26.515625 48.1875 22.3125 43.546875 
Q 18.109375 38.921875 18.109375 30.90625 
L 18.109375 0 
L 9.078125 0 
L 9.078125 54.6875 
L 18.109375 54.6875 
L 18.109375 46.1875 
Q 21.34375 51.125 25.703125 53.5625 
Q 30.078125 56 35.796875 56 
Q 45.21875 56 50.046875 50.171875 
Q 54.890625 44.34375 54.890625 33.015625 
" id="DejaVuSans-6e"/>
      <path d="M 18.3125 70.21875 
L 18.3125 54.6875 
L 36.8125 54.6875 
L 36.8125 47.703125 
L 18.3125 47.703125 
L 18.3125 18.015625 
Q 18.3125 11.328125 20.140625 9.421875 
Q 21.96875 7.515625 27.59375 7.515625 
L 36.8125 7.515625 
L 36.8125 0 
L 27.59375 0 
Q 17.1875 0 13.234375 3.875 
Q 9.28125 7.765625 9.28125 18.015625 
L 9.28125 47.703125 
L 2.6875 47.703125 
L 2.6875 54.6875 
L 9.28125 54.6875 
L 9.28125 70.21875 
z
" id="DejaVuSans-74"/>
      <path d="M 44.28125 53.078125 
L 44.28125 44.578125 
Q 40.484375 46.53125 36.375 47.5 
Q 32.28125 48.484375 27.875 48.484375 
Q 21.1875 48.484375 17.84375 46.4375 
Q 14.5 44.390625 14.5 40.28125 
Q 14.5 37.15625 16.890625 35.375 
Q 19.28125 33.59375 26.515625 31.984375 
L 29.59375 31.296875 
Q 39.15625 29.25 43.1875 25.515625 
Q 47.21875 21.78125 47.21875 15.09375 
Q 47.21875 7.46875 41.1875 3.015625 
Q 35.15625 -1.421875 24.609375 -1.421875 
Q 20.21875 -1.421875 15.453125 -0.5625 
Q 10.6875 0.296875 5.421875 2 
L 5.421875 11.28125 
Q 10.40625 8.6875 15.234375 7.390625 
Q 20.0625 6.109375 24.8125 6.109375 
Q 31.15625 6.109375 34.5625 8.28125 
Q 37.984375 10.453125 37.984375 14.40625 
Q 37.984375 18.0625 35.515625 20.015625 
Q 33.0625 21.96875 24.703125 23.78125 
L 21.578125 24.515625 
Q 13.234375 26.265625 9.515625 29.90625 
Q 5.8125 33.546875 5.8125 39.890625 
Q 5.8125 47.609375 11.28125 51.796875 
Q 16.75 56 26.8125 56 
Q 31.78125 56 36.171875 55.265625 
Q 40.578125 54.546875 44.28125 53.078125 
" id="DejaVuSans-73"/>
     </defs>
     <g transform="translate(191.738906 335.860562)scale(0.1 -0.1)">
      <use xlink:href="#DejaVuSans-4e"/>
      <use x="74.804688" xlink:href="#DejaVuSans-75"/>
      <use x="138.183594" xlink:href="#DejaVuSans-6d"/>
      <use x="235.595703" xlink:href="#DejaVuSans-62"/>
      <use x="299.072266" xlink:href="#DejaVuSans-65"/>
      <use x="360.595703" xlink:href="#DejaVuSans-72"/>
      <use x="401.708984" xlink:href="#DejaVuSans-20"/>
      <use x="433.496094" xlink:href="#DejaVuSans-6f"/>
      <use x="494.677734" xlink:href="#DejaVuSans-66"/>
      <use x="529.882812" xlink:href="#DejaVuSans-20"/>
      <use x="561.669922" xlink:href="#DejaVuSans-63"/>
      <use x="616.650391" xlink:href="#DejaVuSans-6c"/>
      <use x="644.433594" xlink:href="#DejaVuSans-69"/>
      <use x="672.216797" xlink:href="#DejaVuSans-65"/>
      <use x="733.740234" xlink:href="#DejaVuSans-6e"/>
      <use x="797.119141" xlink:href="#DejaVuSans-74"/>
      <use x="836.328125" xlink:href="#DejaVuSans-73"/>
     </g>
    </g>
   </g>
   <g id="matplotlib.axis_2">
    <g id="ytick_1">
     <g id="line2d_13">
      <path clip-path="url(#p5bc79b5349)" d="M 57.6 295.861726 
L 414.72 295.861726 
" style="fill:none;stroke:#b0b0b0;stroke-linecap:square;stroke-width:0.8;"/>
     </g>
     <g id="line2d_14">
      <defs>
       <path d="M 0 0 
L -3.5 0 
" id="m85e6439ce7" style="stroke:#000000;stroke-width:0.8;"/>
      </defs>
      <g>
       <use style="stroke:#000000;stroke-width:0.8;" x="57.6" xlink:href="#m85e6439ce7" y="295.861726"/>
      </g>
     </g>
     <g id="text_8">
      <!-- 0 -->
      <g transform="translate(44.2375 299.660945)scale(0.1 -0.1)">
       <use xlink:href="#DejaVuSans-30"/>
      </g>
     </g>
    </g>
    <g id="ytick_2">
     <g id="line2d_15">
      <path clip-path="url(#p5bc79b5349)" d="M 57.6 255.976344 
L 414.72 255.976344 
" style="fill:none;stroke:#b0b0b0;stroke-linecap:square;stroke-width:0.8;"/>
     </g>
     <g id="line2d_16">
      <g>
       <use style="stroke:#000000;stroke-width:0.8;" x="57.6" xlink:href="#m85e6439ce7" y="255.976344"/>
      </g>
     </g>
     <g id="text_9">
      <!-- 100 -->
      <g transform="translate(31.5125 259.775562)scale(0.1 -0.1)">
       <use xlink:href="#DejaVuSans-31"/>
       <use x="63.623047" xlink:href="#DejaVuSans-30"/>
       <use x="127.246094" xlink:href="#DejaVuSans-30"/>
      </g>
     </g>
    </g>
    <g id="ytick_3">
     <g id="line2d_17">
      <path clip-path="url(#p5bc79b5349)" d="M 57.6 216.090961 
L 414.72 216.090961 
" style="fill:none;stroke:#b0b0b0;stroke-linecap:square;stroke-width:0.8;"/>
     </g>
     <g id="line2d_18">
      <g>
       <use style="stroke:#000000;stroke-width:0.8;" x="57.6" xlink:href="#m85e6439ce7" y="216.090961"/>
      </g>
     </g>
     <g id="text_10">
      <!-- 200 -->
      <g transform="translate(31.5125 219.89018)scale(0.1 -0.1)">
       <use xlink:href="#DejaVuSans-32"/>
       <use x="63.623047" xlink:href="#DejaVuSans-30"/>
       <use x="127.246094" xlink:href="#DejaVuSans-30"/>
      </g>
     </g>
    </g>
    <g id="ytick_4">
     <g id="line2d_19">
      <path clip-path="url(#p5bc79b5349)" d="M 57.6 176.205579 
L 414.72 176.205579 
" style="fill:none;stroke:#b0b0b0;stroke-linecap:square;stroke-width:0.8;"/>
     </g>
     <g id="line2d_20">
      <g>
       <use style="stroke:#000000;stroke-width:0.8;" x="57.6" xlink:href="#m85e6439ce7" y="176.205579"/>
      </g>
     </g>
     <g id="text_11">
      <!-- 300 -->
      <defs>
       <path d="M 40.578125 39.3125 
Q 47.65625 37.796875 51.625 33 
Q 55.609375 28.21875 55.609375 21.1875 
Q 55.609375 10.40625 48.1875 4.484375 
Q 40.765625 -1.421875 27.09375 -1.421875 
Q 22.515625 -1.421875 17.65625 -0.515625 
Q 12.796875 0.390625 7.625 2.203125 
L 7.625 11.71875 
Q 11.71875 9.328125 16.59375 8.109375 
Q 21.484375 6.890625 26.8125 6.890625 
Q 36.078125 6.890625 40.9375 10.546875 
Q 45.796875 14.203125 45.796875 21.1875 
Q 45.796875 27.640625 41.28125 31.265625 
Q 36.765625 34.90625 28.71875 34.90625 
L 20.21875 34.90625 
L 20.21875 43.015625 
L 29.109375 43.015625 
Q 36.375 43.015625 40.234375 45.921875 
Q 44.09375 48.828125 44.09375 54.296875 
Q 44.09375 59.90625 40.109375 62.90625 
Q 36.140625 65.921875 28.71875 65.921875 
Q 24.65625 65.921875 20.015625 65.03125 
Q 15.375 64.15625 9.8125 62.3125 
L 9.8125 71.09375 
Q 15.4375 72.65625 20.34375 73.4375 
Q 25.25 74.21875 29.59375 74.21875 
Q 40.828125 74.21875 47.359375 69.109375 
Q 53.90625 64.015625 53.90625 55.328125 
Q 53.90625 49.265625 50.4375 45.09375 
Q 46.96875 40.921875 40.578125 39.3125 
" id="DejaVuSans-33"/>
      </defs>
      <g transform="translate(31.5125 180.004798)scale(0.1 -0.1)">
       <use xlink:href="#DejaVuSans-33"/>
       <use x="63.623047" xlink:href="#DejaVuSans-30"/>
       <use x="127.246094" xlink:href="#DejaVuSans-30"/>
      </g>
     </g>
    </g>
    <g id="ytick_5">
     <g id="line2d_21">
      <path clip-path="url(#p5bc79b5349)" d="M 57.6 136.320197 
L 414.72 136.320197 
" style="fill:none;stroke:#b0b0b0;stroke-linecap:square;stroke-width:0.8;"/>
     </g>
     <g id="line2d_22">
      <g>
       <use style="stroke:#000000;stroke-width:0.8;" x="57.6" xlink:href="#m85e6439ce7" y="136.320197"/>
      </g>
     </g>
     <g id="text_12">
      <!-- 400 -->
      <g transform="translate(31.5125 140.119416)scale(0.1 -0.1)">
       <use xlink:href="#DejaVuSans-34"/>
       <use x="63.623047" xlink:href="#DejaVuSans-30"/>
       <use x="127.246094" xlink:href="#DejaVuSans-30"/>
      </g>
     </g>
    </g>
    <g id="ytick_6">
     <g id="line2d_23">
      <path clip-path="url(#p5bc79b5349)" d="M 57.6 96.434815 
L 414.72 96.434815 
" style="fill:none;stroke:#b0b0b0;stroke-linecap:square;stroke-width:0.8;"/>
     </g>
     <g id="line2d_24">
      <g>
       <use style="stroke:#000000;stroke-width:0.8;" x="57.6" xlink:href="#m85e6439ce7" y="96.434815"/>
      </g>
     </g>
     <g id="text_13">
      <!-- 500 -->
      <defs>
       <path d="M 10.796875 72.90625 
L 49.515625 72.90625 
L 49.515625 64.59375 
L 19.828125 64.59375 
L 19.828125 46.734375 
Q 21.96875 47.46875 24.109375 47.828125 
Q 26.265625 48.1875 28.421875 48.1875 
Q 40.625 48.1875 47.75 41.5 
Q 54.890625 34.8125 54.890625 23.390625 
Q 54.890625 11.625 47.5625 5.09375 
Q 40.234375 -1.421875 26.90625 -1.421875 
Q 22.3125 -1.421875 17.546875 -0.640625 
Q 12.796875 0.140625 7.71875 1.703125 
L 7.71875 11.625 
Q 12.109375 9.234375 16.796875 8.0625 
Q 21.484375 6.890625 26.703125 6.890625 
Q 35.15625 6.890625 40.078125 11.328125 
Q 45.015625 15.765625 45.015625 23.390625 
Q 45.015625 31 40.078125 35.4375 
Q 35.15625 39.890625 26.703125 39.890625 
Q 22.75 39.890625 18.8125 39.015625 
Q 14.890625 38.140625 10.796875 36.28125 
z
" id="DejaVuSans-35"/>
      </defs>
      <g transform="translate(31.5125 100.234033)scale(0.1 -0.1)">
       <use xlink:href="#DejaVuSans-35"/>
       <use x="63.623047" xlink:href="#DejaVuSans-30"/>
       <use x="127.246094" xlink:href="#DejaVuSans-30"/>
      </g>
     </g>
    </g>
    <g id="ytick_7">
     <g id="line2d_25">
      <path clip-path="url(#p5bc79b5349)" d="M 57.6 56.549432 
L 414.72 56.549432 
" style="fill:none;stroke:#b0b0b0;stroke-linecap:square;stroke-width:0.8;"/>
     </g>
     <g id="line2d_26">
      <g>
       <use style="stroke:#000000;stroke-width:0.8;" x="57.6" xlink:href="#m85e6439ce7" y="56.549432"/>
      </g>
     </g>
     <g id="text_14">
      <!-- 600 -->
      <g transform="translate(31.5125 60.348651)scale(0.1 -0.1)">
       <use xlink:href="#DejaVuSans-36"/>
       <use x="63.623047" xlink:href="#DejaVuSans-30"/>
       <use x="127.246094" xlink:href="#DejaVuSans-30"/>
      </g>
     </g>
    </g>
    <g id="text_15">
     <!-- Successful download requests per second -->
     <defs>
      <path d="M 53.515625 70.515625 
L 53.515625 60.890625 
Q 47.90625 63.578125 42.921875 64.890625 
Q 37.9375 66.21875 33.296875 66.21875 
Q 25.25 66.21875 20.875 63.09375 
Q 16.5 59.96875 16.5 54.203125 
Q 16.5 49.359375 19.40625 46.890625 
Q 22.3125 44.4375 30.421875 42.921875 
L 36.375 41.703125 
Q 47.40625 39.59375 52.65625 34.296875 
Q 57.90625 29 57.90625 20.125 
Q 57.90625 9.515625 50.796875 4.046875 
Q 43.703125 -1.421875 29.984375 -1.421875 
Q 24.8125 -1.421875 18.96875 -0.25 
Q 13.140625 0.921875 6.890625 3.21875 
L 6.890625 13.375 
Q 12.890625 10.015625 18.65625 8.296875 
Q 24.421875 6.59375 29.984375 6.59375 
Q 38.421875 6.59375 43.015625 9.90625 
Q 47.609375 13.234375 47.609375 19.390625 
Q 47.609375 24.75 44.3125 27.78125 
Q 41.015625 30.8125 33.5 32.328125 
L 27.484375 33.5 
Q 16.453125 35.6875 11.515625 40.375 
Q 6.59375 45.0625 6.59375 53.421875 
Q 6.59375 63.09375 13.40625 68.65625 
Q 20.21875 74.21875 32.171875 74.21875 
Q 37.3125 74.21875 42.625 73.28125 
Q 47.953125 72.359375 53.515625 70.515625 
" id="DejaVuSans-53"/>
      <path d="M 45.40625 46.390625 
L 45.40625 75.984375 
L 54.390625 75.984375 
L 54.390625 0 
L 45.40625 0 
L 45.40625 8.203125 
Q 42.578125 3.328125 38.25 0.953125 
Q 33.9375 -1.421875 27.875 -1.421875 
Q 17.96875 -1.421875 11.734375 6.484375 
Q 5.515625 14.40625 5.515625 27.296875 
Q 5.515625 40.1875 11.734375 48.09375 
Q 17.96875 56 27.875 56 
Q 33.9375 56 38.25 53.625 
Q 42.578125 51.265625 45.40625 46.390625 
M 14.796875 27.296875 
Q 14.796875 17.390625 18.875 11.75 
Q 22.953125 6.109375 30.078125 6.109375 
Q 37.203125 6.109375 41.296875 11.75 
Q 45.40625 17.390625 45.40625 27.296875 
Q 45.40625 37.203125 41.296875 42.84375 
Q 37.203125 48.484375 30.078125 48.484375 
Q 22.953125 48.484375 18.875 42.84375 
Q 14.796875 37.203125 14.796875 27.296875 
" id="DejaVuSans-64"/>
      <path d="M 4.203125 54.6875 
L 13.1875 54.6875 
L 24.421875 12.015625 
L 35.59375 54.6875 
L 46.1875 54.6875 
L 57.421875 12.015625 
L 68.609375 54.6875 
L 77.59375 54.6875 
L 63.28125 0 
L 52.6875 0 
L 40.921875 44.828125 
L 29.109375 0 
L 18.5 0 
z
" id="DejaVuSans-77"/>
      <path d="M 34.28125 27.484375 
Q 23.390625 27.484375 19.1875 25 
Q 14.984375 22.515625 14.984375 16.5 
Q 14.984375 11.71875 18.140625 8.90625 
Q 21.296875 6.109375 26.703125 6.109375 
Q 34.1875 6.109375 38.703125 11.40625 
Q 43.21875 16.703125 43.21875 25.484375 
L 43.21875 27.484375 
z
M 52.203125 31.203125 
L 52.203125 0 
L 43.21875 0 
L 43.21875 8.296875 
Q 40.140625 3.328125 35.546875 0.953125 
Q 30.953125 -1.421875 24.3125 -1.421875 
Q 15.921875 -1.421875 10.953125 3.296875 
Q 6 8.015625 6 15.921875 
Q 6 25.140625 12.171875 29.828125 
Q 18.359375 34.515625 30.609375 34.515625 
L 43.21875 34.515625 
L 43.21875 35.40625 
Q 43.21875 41.609375 39.140625 45 
Q 35.0625 48.390625 27.6875 48.390625 
Q 23 48.390625 18.546875 47.265625 
Q 14.109375 46.140625 10.015625 43.890625 
L 10.015625 52.203125 
Q 14.9375 54.109375 19.578125 55.046875 
Q 24.21875 56 28.609375 56 
Q 40.484375 56 46.34375 49.84375 
Q 52.203125 43.703125 52.203125 31.203125 
" id="DejaVuSans-61"/>
      <path d="M 14.796875 27.296875 
Q 14.796875 17.390625 18.875 11.75 
Q 22.953125 6.109375 30.078125 6.109375 
Q 37.203125 6.109375 41.296875 11.75 
Q 45.40625 17.390625 45.40625 27.296875 
Q 45.40625 37.203125 41.296875 42.84375 
Q 37.203125 48.484375 30.078125 48.484375 
Q 22.953125 48.484375 18.875 42.84375 
Q 14.796875 37.203125 14.796875 27.296875 
M 45.40625 8.203125 
Q 42.578125 3.328125 38.25 0.953125 
Q 33.9375 -1.421875 27.875 -1.421875 
Q 17.96875 -1.421875 11.734375 6.484375 
Q 5.515625 14.40625 5.515625 27.296875 
Q 5.515625 40.1875 11.734375 48.09375 
Q 17.96875 56 27.875 56 
Q 33.9375 56 38.25 53.625 
Q 42.578125 51.265625 45.40625 46.390625 
L 45.40625 54.6875 
L 54.390625 54.6875 
L 54.390625 -20.796875 
L 45.40625 -20.796875 
z
" id="DejaVuSans-71"/>
      <path d="M 18.109375 8.203125 
L 18.109375 -20.796875 
L 9.078125 -20.796875 
L 9.078125 54.6875 
L 18.109375 54.6875 
L 18.109375 46.390625 
Q 20.953125 51.265625 25.265625 53.625 
Q 29.59375 56 35.59375 56 
Q 45.5625 56 51.78125 48.09375 
Q 58.015625 40.1875 58.015625 27.296875 
Q 58.015625 14.40625 51.78125 6.484375 
Q 45.5625 -1.421875 35.59375 -1.421875 
Q 29.59375 -1.421875 25.265625 0.953125 
Q 20.953125 3.328125 18.109375 8.203125 
M 48.6875 27.296875 
Q 48.6875 37.203125 44.609375 42.84375 
Q 40.53125 48.484375 33.40625 48.484375 
Q 26.265625 48.484375 22.1875 42.84375 
Q 18.109375 37.203125 18.109375 27.296875 
Q 18.109375 17.390625 22.1875 11.75 
Q 26.265625 6.109375 33.40625 6.109375 
Q 40.53125 6.109375 44.609375 11.75 
Q 48.6875 17.390625 48.6875 27.296875 
" id="DejaVuSans-70"/>
     </defs>
     <g transform="translate(25.432812 279.366281)rotate(-90)scale(0.1 -0.1)">
      <use xlink:href="#DejaVuSans-53"/>
      <use x="63.476562" xlink:href="#DejaVuSans-75"/>
      <use x="126.855469" xlink:href="#DejaVuSans-63"/>
      <use x="181.835938" xlink:href="#DejaVuSans-63"/>
      <use x="236.816406" xlink:href="#DejaVuSans-65"/>
      <use x="298.339844" xlink:href="#DejaVuSans-73"/>
      <use x="350.439453" xlink:href="#DejaVuSans-73"/>
      <use x="402.539062" xlink:href="#DejaVuSans-66"/>
      <use x="437.744141" xlink:href="#DejaVuSans-75"/>
      <use x="501.123047" xlink:href="#DejaVuSans-6c"/>
      <use x="528.90625" xlink:href="#DejaVuSans-20"/>
      <use x="560.693359" xlink:href="#DejaVuSans-64"/>
      <use x="624.169922" xlink:href="#DejaVuSans-6f"/>
      <use x="685.351562" xlink:href="#DejaVuSans-77"/>
      <use x="767.138672" xlink:href="#DejaVuSans-6e"/>
      <use x="830.517578" xlink:href="#DejaVuSans-6c"/>
      <use x="858.300781" xlink:href="#DejaVuSans-6f"/>
      <use x="919.482422" xlink:href="#DejaVuSans-61"/>
      <use x="980.761719" xlink:href="#DejaVuSans-64"/>
      <use x="1044.238281" xlink:href="#DejaVuSans-20"/>
      <use x="1076.025391" xlink:href="#DejaVuSans-72"/>
      <use x="1117.107422" xlink:href="#DejaVuSans-65"/>
      <use x="1178.630859" xlink:href="#DejaVuSans-71"/>
      <use x="1242.107422" xlink:href="#DejaVuSans-75"/>
      <use x="1305.486328" xlink:href="#DejaVuSans-65"/>
      <use x="1367.009766" xlink:href="#DejaVuSans-73"/>
      <use x="1419.109375" xlink:href="#DejaVuSans-74"/>
      <use x="1458.318359" xlink:href="#DejaVuSans-73"/>
      <use x="1510.417969" xlink:href="#DejaVuSans-20"/>
      <use x="1542.205078" xlink:href="#DejaVuSans-70"/>
      <use x="1605.681641" xlink:href="#DejaVuSans-65"/>
      <use x="1667.205078" xlink:href="#DejaVuSans-72"/>
      <use x="1708.318359" xlink:href="#DejaVuSans-20"/>
      <use x="1740.105469" xlink:href="#DejaVuSans-73"/>
      <use x="1792.205078" xlink:href="#DejaVuSans-65"/>
      <use x="1853.728516" xlink:href="#DejaVuSans-63"/>
      <use x="1908.708984" xlink:href="#DejaVuSans-6f"/>
      <use x="1969.890625" xlink:href="#DejaVuSans-6e"/>
      <use x="2033.269531" xlink:href="#DejaVuSans-64"/>
     </g>
    </g>
   </g>
   <g id="line2d_27">
    <path clip-path="url(#p5bc79b5349)" d="M 57.6 295.471647 
L 57.95712 295.488 
L 59.02848 294.314572 
L 59.74272 293.536009 
L 60.81408 292.300759 
L 61.1712 292.131246 
L 62.24256 290.722893 
L 62.59968 290.61959 
L 63.67104 289.52354 
L 64.02816 288.703895 
L 64.38528 288.703496 
L 64.7424 288.17342 
L 65.09952 287.997126 
L 65.45664 287.253264 
L 65.81376 286.773443 
L 66.17088 286.639827 
L 66.88512 285.943827 
L 67.24224 285.397397 
L 67.59936 285.340361 
L 68.3136 284.127447 
L 69.38496 283.374809 
L 69.74208 282.621375 
L 70.0992 282.609409 
L 70.45632 282.084118 
L 70.81344 281.182709 
L 71.17056 281.32151 
L 71.52768 280.828925 
L 71.8848 280.636678 
L 72.59904 279.118241 
L 73.31328 279.489175 
L 73.6704 277.914501 
L 74.38464 278.099569 
L 75.09888 276.463072 
L 75.456 276.981183 
L 75.81312 275.736759 
L 76.17024 276.179885 
L 76.52736 275.98325 
L 76.88448 275.121327 
L 77.2416 275.207081 
L 77.59872 274.858084 
L 78.31296 273.192869 
L 78.67008 272.467753 
L 79.38432 272.350889 
L 79.74144 271.916936 
L 80.09856 271.755799 
L 80.45568 270.771029 
L 80.8128 270.872736 
L 81.16992 271.228913 
L 81.88416 269.231453 
L 82.24128 269.635492 
L 82.5984 268.623998 
L 82.95552 269.172422 
L 83.31264 267.924409 
L 83.66976 268.298534 
L 84.02688 267.69786 
L 84.384 267.442992 
L 84.74112 266.484547 
L 85.09824 267.181743 
L 85.81248 265.516927 
L 86.1696 265.767009 
L 86.52672 265.395277 
L 87.24096 263.894789 
L 87.59808 264.140483 
L 88.31232 262.470482 
L 88.66944 262.808311 
L 89.02656 261.760123 
L 89.38368 261.737787 
L 89.7408 260.414789 
L 90.45504 261.561095 
L 90.81216 261.133923 
L 91.5264 258.95977 
L 91.88352 258.180011 
L 92.24064 257.93671 
L 92.59776 257.474439 
L 92.95488 256.37799 
L 93.66912 258.245024 
L 94.02624 256.59696 
L 94.38336 256.951142 
L 94.74048 255.04861 
L 95.0976 255.509286 
L 95.45472 256.48927 
L 95.81184 255.80723 
L 96.16896 253.056734 
L 96.52608 252.539022 
L 97.24032 252.487569 
L 97.59744 253.594788 
L 97.95456 252.144555 
L 98.31168 253.212287 
L 98.6688 251.984216 
L 99.02592 252.778334 
L 99.38304 249.411609 
L 99.74016 249.459072 
L 100.09728 249.109277 
L 100.4544 249.935703 
L 100.81152 250.346921 
L 101.16864 249.384885 
L 101.52576 249.474628 
L 101.88288 247.518648 
L 102.24 248.22103 
L 102.59712 245.887735 
L 102.95424 248.306385 
L 103.31136 246.34881 
L 104.0256 246.464478 
L 104.38272 245.352872 
L 104.73984 246.426587 
L 105.09696 243.898651 
L 105.45408 242.748357 
L 105.8112 245.653608 
L 106.16832 245.065299 
L 106.52544 241.670255 
L 106.88256 241.420971 
L 107.23968 243.440368 
L 107.5968 243.387719 
L 107.95392 243.067839 
L 108.31104 241.044054 
L 108.66816 241.292939 
L 109.02528 241.405815 
L 109.3824 241.67544 
L 109.73952 238.57475 
L 110.09664 238.687227 
L 110.45376 240.11632 
L 110.81088 240.226404 
L 111.168 238.605063 
L 111.52512 239.686356 
L 112.23936 236.541394 
L 112.59648 237.783424 
L 112.9536 238.245696 
L 113.31072 234.951562 
L 113.66784 235.420215 
L 114.02496 236.499913 
L 114.38208 234.370432 
L 114.7392 236.351539 
L 115.09632 233.255636 
L 115.45344 233.662865 
L 115.81056 233.729474 
L 116.16768 230.454086 
L 116.5248 233.496543 
L 116.88192 230.759609 
L 117.23904 232.58237 
L 117.59616 233.131991 
L 117.95328 232.30078 
L 118.3104 228.602208 
L 118.66752 228.440672 
L 119.02464 227.297158 
L 119.38176 229.236386 
L 119.73888 227.88467 
L 120.096 228.710298 
L 120.45312 227.147588 
L 120.81024 228.417539 
L 121.16736 227.052262 
L 121.52448 228.579872 
L 121.8816 229.038155 
L 122.23872 227.019556 
L 122.59584 228.133156 
L 122.95296 227.934926 
L 123.31008 223.91089 
L 123.6672 225.467217 
L 124.02432 222.204593 
L 124.38144 221.349051 
L 124.73856 223.758926 
L 125.09568 225.232691 
L 125.4528 220.954585 
L 125.80992 221.109739 
L 126.16704 222.519687 
L 126.52416 219.669478 
L 126.88128 219.496774 
L 127.2384 221.172359 
L 127.59552 220.794645 
L 127.95264 220.092662 
L 128.30976 217.297893 
L 129.024 221.222615 
L 129.73824 216.071418 
L 130.09536 217.206954 
L 130.45248 217.058581 
L 130.8096 218.904476 
L 131.16672 217.453446 
L 131.52384 218.032183 
L 131.88096 214.189226 
L 132.23808 216.451924 
L 132.5952 213.79117 
L 132.95232 215.432454 
L 133.30944 215.82692 
L 133.66656 211.631377 
L 134.02368 214.241476 
L 134.3808 212.923264 
L 134.73792 210.945747 
L 135.45216 210.950533 
L 135.80928 209.968156 
L 136.1664 208.341232 
L 136.52352 211.43554 
L 136.88064 209.3615 
L 137.23776 208.953073 
L 137.59488 207.468938 
L 137.952 207.746541 
L 138.30912 211.260842 
L 138.66624 207.121936 
L 139.02336 209.15609 
L 139.38048 204.607162 
L 139.7376 204.150873 
L 140.09472 206.996297 
L 140.45184 208.030126 
L 140.80896 206.597842 
L 141.16608 207.861012 
L 141.5232 207.839075 
L 141.88032 203.774754 
L 142.23744 205.356609 
L 142.59456 205.672501 
L 142.95168 202.056891 
L 143.66592 205.107325 
L 144.02304 200.805288 
L 144.73728 204.284091 
L 145.0944 200.454695 
L 145.45152 203.107871 
L 145.80864 204.123751 
L 146.16576 198.815406 
L 146.52288 199.543314 
L 146.88 200.908591 
L 147.23712 199.379385 
L 147.59424 196.025822 
L 147.95136 201.337359 
L 148.6656 200.248488 
L 149.02272 194.52693 
L 149.37984 197.231158 
L 149.73696 198.856887 
L 150.09408 194.033946 
L 150.4512 194.293999 
L 150.80832 198.588857 
L 151.16544 195.107262 
L 151.87968 193.144103 
L 152.2368 196.424676 
L 152.59392 191.972271 
L 152.95104 193.415723 
L 153.30816 193.787455 
L 153.66528 193.031228 
L 154.73664 187.867267 
L 155.09376 193.224672 
L 155.45088 193.384213 
L 155.808 187.505108 
L 156.16512 190.786877 
L 156.52224 186.693839 
L 156.87936 187.293317 
L 157.23648 191.467721 
L 157.5936 184.299919 
L 157.95072 187.651487 
L 158.30784 188.061908 
L 158.66496 189.291175 
L 159.3792 184.694784 
L 159.73632 189.191861 
L 160.09344 186.711389 
L 160.45056 188.309197 
L 160.80768 188.605147 
L 161.1648 186.031742 
L 161.52192 187.213147 
L 161.87904 183.489049 
L 162.23616 186.809906 
L 162.59328 178.836818 
L 162.9504 182.993274 
L 163.30752 180.362833 
L 163.66464 183.372584 
L 164.02176 181.421391 
L 164.37888 184.025906 
L 164.736 183.953315 
L 165.09312 180.605336 
L 165.45024 182.330378 
L 165.80736 180.820717 
L 166.16448 181.120256 
L 166.5216 181.568568 
L 166.87872 175.828662 
L 167.23584 179.619369 
L 167.59296 179.980332 
L 167.95008 179.310656 
L 168.3072 173.21258 
L 168.66432 173.945673 
L 169.02144 178.710381 
L 169.37856 176.639532 
L 169.73568 179.186613 
L 170.0928 174.022253 
L 170.44992 177.340717 
L 170.80704 176.505517 
L 171.16416 170.33126 
L 171.52128 169.972292 
L 171.8784 172.293621 
L 172.23552 172.023996 
L 172.59264 172.204676 
L 172.94976 175.987007 
L 173.30688 174.828736 
L 173.664 171.179622 
L 174.02112 168.875444 
L 174.37824 170.969027 
L 174.73536 169.213672 
L 175.09248 168.607015 
L 175.4496 168.330609 
L 175.80672 164.210848 
L 176.16384 165.027302 
L 176.52096 171.857275 
L 176.87808 166.980888 
L 177.2352 168.587072 
L 177.59232 168.385252 
L 177.94944 170.640372 
L 178.30656 161.294429 
L 178.66368 166.509044 
L 179.37792 161.709237 
L 179.73504 163.397186 
L 180.09216 167.989589 
L 180.44928 165.21596 
L 180.8064 159.345629 
L 181.16352 166.25298 
L 181.52064 157.565943 
L 181.87776 160.043623 
L 182.23488 164.963485 
L 182.592 156.721969 
L 182.94912 157.294723 
L 183.30624 158.698688 
L 183.66336 157.924513 
L 184.02048 161.210271 
L 184.3776 162.039089 
L 185.09184 155.59401 
L 185.44896 158.149467 
L 185.80608 162.165127 
L 186.52032 153.77045 
L 186.87744 155.165641 
L 187.23456 151.280406 
L 187.59168 155.170826 
L 187.9488 152.654458 
L 188.30592 157.248855 
L 188.66304 152.453834 
L 189.02016 159.121872 
L 189.37728 157.194611 
L 189.7344 158.533563 
L 190.09152 149.31645 
L 190.44864 153.107157 
L 190.80576 153.868967 
L 191.16288 152.381243 
L 191.52 155.850473 
L 191.87712 152.212527 
L 192.23424 154.661889 
L 192.59136 149.590861 
L 192.94848 146.283167 
L 193.3056 149.655077 
L 194.01984 148.245527 
L 194.37696 149.44169 
L 194.73408 152.297483 
L 195.0912 142.453372 
L 195.44832 150.795001 
L 195.80544 147.383205 
L 196.16256 147.476138 
L 196.51968 149.602428 
L 196.8768 150.500647 
L 197.59104 140.528902 
L 197.94816 139.386585 
L 198.30528 142.05731 
L 198.6624 142.758894 
L 199.01952 138.98813 
L 199.37664 144.68815 
L 199.73376 143.251877 
L 200.09088 142.58978 
L 200.448 139.759912 
L 201.16224 145.287229 
L 201.51936 145.250135 
L 201.87648 135.153549 
L 202.2336 135.773368 
L 202.59072 134.267296 
L 202.94784 139.243795 
L 203.30496 142.105572 
L 203.66208 140.084579 
L 204.0192 142.736957 
L 204.37632 133.103441 
L 204.73344 134.984834 
L 205.44768 139.717235 
L 205.8048 132.318895 
L 206.16192 130.205768 
L 206.51904 134.510996 
L 206.87616 136.773295 
L 207.23328 140.077799 
L 207.5904 130.254428 
L 207.94752 136.981895 
L 208.30464 129.152395 
L 208.66176 129.471079 
L 209.01888 130.945243 
L 209.376 128.426481 
L 209.73312 134.423248 
L 210.44736 132.514733 
L 210.80448 136.772497 
L 211.1616 130.778123 
L 211.51872 134.344275 
L 211.87584 130.425935 
L 212.23296 137.019388 
L 212.59008 132.049669 
L 212.9472 137.289811 
L 213.30432 129.402476 
L 213.66144 127.085135 
L 214.37568 133.164864 
L 214.7328 127.506325 
L 215.08992 127.983753 
L 215.44704 135.072183 
L 215.80416 128.247396 
L 216.16128 128.981287 
L 216.5184 126.119909 
L 216.87552 135.609439 
L 217.23264 134.232995 
L 217.58976 135.24369 
L 217.94688 133.212727 
L 218.304 133.620754 
L 218.66112 124.130426 
L 219.01824 131.267118 
L 219.37536 126.958699 
L 219.73248 132.66869 
L 220.44672 122.731247 
L 220.80384 129.575579 
L 221.16096 122.98093 
L 221.51808 122.631534 
L 221.8752 131.902093 
L 222.23232 124.155554 
L 222.58944 132.55382 
L 222.94656 124.488198 
L 223.30368 124.496574 
L 223.6608 132.110694 
L 224.01792 128.271726 
L 224.37504 122.17684 
L 224.73216 123.193519 
L 225.08928 129.421621 
L 225.4464 128.217481 
L 225.80352 121.509558 
L 226.16064 128.014465 
L 226.51776 130.687982 
L 227.232 119.124412 
L 227.58912 124.550021 
L 227.94624 122.741617 
L 228.30336 127.945862 
L 228.66048 130.475792 
L 229.0176 127.07676 
L 229.37472 125.004315 
L 229.73184 126.517965 
L 230.08896 119.802065 
L 230.44608 119.816423 
L 231.16032 124.9748 
L 231.51744 118.748293 
L 232.23168 124.787339 
L 232.5888 116.749636 
L 232.94592 123.60035 
L 233.30304 118.566416 
L 233.66016 124.198232 
L 234.01728 116.359956 
L 234.3744 125.064941 
L 234.73152 121.606479 
L 235.08864 127.768372 
L 235.44576 120.868201 
L 235.80288 122.75119 
L 236.16 121.914793 
L 236.51712 127.415785 
L 237.23136 116.098308 
L 237.58848 121.787958 
L 237.9456 115.466524 
L 238.30272 125.622937 
L 238.65984 125.386018 
L 239.01696 125.68476 
L 239.37408 117.521419 
L 239.7312 117.495493 
L 240.08832 114.170648 
L 240.44544 117.457602 
L 240.80256 116.57454 
L 241.15968 113.908601 
L 241.5168 121.567791 
L 241.87392 120.636068 
L 242.23104 119.291931 
L 242.58816 120.878571 
L 242.94528 113.778574 
L 243.3024 118.753079 
L 243.65952 120.37083 
L 244.01664 116.221953 
L 244.37376 121.535882 
L 244.73088 112.184356 
L 245.088 123.508613 
L 245.44512 112.758306 
L 245.80224 119.565943 
L 246.15936 120.107188 
L 246.51648 118.48146 
L 246.8736 119.400419 
L 247.23072 114.143924 
L 247.58784 120.319777 
L 247.94496 113.024342 
L 248.30208 111.127393 
L 248.6592 111.889603 
L 249.01632 109.728214 
L 249.37344 110.595721 
L 250.08768 114.561524 
L 250.4448 118.55445 
L 250.80192 119.236889 
L 251.15904 120.76051 
L 251.51616 116.35158 
L 251.87328 114.249222 
L 252.58752 118.012009 
L 253.30176 112.045156 
L 253.65888 119.578308 
L 254.016 108.662476 
L 254.37312 109.663998 
L 254.73024 117.637485 
L 255.08736 107.489447 
L 255.44448 113.620229 
L 255.8016 116.26104 
L 256.15872 106.43408 
L 256.51584 118.050299 
L 256.87296 112.728392 
L 257.23008 112.173188 
L 257.5872 115.557063 
L 257.94432 114.524431 
L 258.30144 107.438394 
L 258.65856 111.081126 
L 259.01568 113.501371 
L 259.3728 114.589843 
L 259.72992 117.499083 
L 260.08704 111.018905 
L 260.44416 117.720447 
L 260.80128 117.087864 
L 261.1584 108.138781 
L 261.51552 110.827854 
L 261.87264 108.121232 
L 262.22976 115.090006 
L 262.58688 107.593548 
L 262.944 106.252601 
L 263.30112 114.072131 
L 263.65824 113.840795 
L 264.01536 107.239765 
L 264.37248 108.191829 
L 264.7296 109.969919 
L 265.08672 104.528755 
L 265.44384 105.29256 
L 265.80096 102.996758 
L 266.15808 113.765013 
L 266.87232 103.461821 
L 267.22944 107.720782 
L 267.94368 111.156908 
L 268.65792 104.167394 
L 269.01504 105.608453 
L 269.72928 103.540794 
L 270.0864 111.422146 
L 270.44352 103.711105 
L 270.80064 110.208833 
L 271.15776 100.966592 
L 271.51488 106.513053 
L 271.872 101.753929 
L 272.22912 111.454453 
L 272.58624 110.41504 
L 272.94336 106.446843 
L 273.6576 110.93714 
L 274.01472 110.584154 
L 274.37184 100.830184 
L 274.72896 108.402025 
L 275.08608 111.415764 
L 275.4432 105.607256 
L 275.80032 110.849791 
L 276.15744 100.371103 
L 276.51456 101.367839 
L 276.87168 109.320585 
L 277.2288 99.069643 
L 277.58592 98.986283 
L 277.94304 106.74718 
L 278.30016 109.059735 
L 278.65728 106.954983 
L 279.0144 108.561566 
L 279.37152 104.296622 
L 279.72864 109.805192 
L 280.44288 101.288068 
L 280.8 107.505002 
L 281.15712 109.190958 
L 281.51424 97.864706 
L 281.87136 102.49819 
L 282.22848 97.410012 
L 282.5856 98.800417 
L 282.94272 101.118555 
L 283.29984 97.548414 
L 283.65696 107.954511 
L 284.01408 101.927032 
L 284.3712 106.447242 
L 284.72832 97.147965 
L 285.08544 101.136902 
L 285.44256 96.483874 
L 285.79968 94.854955 
L 286.1568 100.375092 
L 286.51392 94.499177 
L 286.87104 105.39347 
L 287.22816 103.159889 
L 287.58528 102.775793 
L 287.9424 106.33995 
L 288.29952 97.745448 
L 288.65664 97.98157 
L 289.01376 106.612766 
L 289.37088 100.555772 
L 289.728 104.188533 
L 290.08512 104.928407 
L 290.44224 97.138792 
L 290.79936 92.810829 
L 291.15648 102.684854 
L 291.5136 97.115658 
L 291.87072 105.894431 
L 292.22784 100.277771 
L 292.58496 101.034796 
L 292.94208 105.135013 
L 293.2992 93.448197 
L 293.65632 99.851795 
L 294.01344 101.985264 
L 294.37056 100.069171 
L 294.72768 93.035383 
L 295.0848 103.313846 
L 295.44192 90.979292 
L 295.79904 102.878298 
L 296.15616 102.567192 
L 296.51328 103.549569 
L 296.8704 96.780222 
L 297.22752 101.81974 
L 297.58464 92.895386 
L 297.94176 100.432925 
L 298.29888 100.813033 
L 298.656 100.818218 
L 299.01312 93.705059 
L 299.37024 94.241517 
L 299.72736 96.846033 
L 300.08448 102.015178 
L 300.4416 102.095348 
L 300.79872 92.933676 
L 301.15584 102.445143 
L 301.51296 97.855931 
L 301.87008 97.470239 
L 302.2272 95.966161 
L 302.58432 98.325781 
L 302.94144 88.721779 
L 303.29856 100.130195 
L 303.65568 96.368605 
L 304.0128 94.831422 
L 304.36992 90.916672 
L 304.72704 98.811585 
L 305.08416 94.354792 
L 305.44128 92.390038 
L 305.7984 91.840417 
L 306.15552 101.014454 
L 306.51264 97.485396 
L 307.22688 86.708764 
L 307.584 96.240174 
L 307.94112 90.530183 
L 308.29824 91.153192 
L 308.65536 88.326116 
L 309.01248 86.436347 
L 309.3696 99.732538 
L 309.72672 99.775215 
L 310.08384 89.160917 
L 310.44096 94.500374 
L 310.79808 91.150799 
L 311.1552 99.905242 
L 311.51232 92.954815 
L 311.86944 88.299792 
L 312.22656 85.752313 
L 312.58368 95.737618 
L 312.9408 97.866301 
L 313.29792 94.343624 
L 313.65504 95.378251 
L 314.01216 84.841729 
L 314.36928 92.411177 
L 314.7264 87.335363 
L 315.08352 89.616409 
L 315.44064 85.260925 
L 315.79776 92.388841 
L 316.15488 84.565324 
L 316.512 86.791726 
L 316.86912 87.338554 
L 317.22624 91.536092 
L 317.58336 93.29424 
L 317.94048 83.555426 
L 318.2976 88.87813 
L 318.65472 89.817431 
L 319.01184 94.194054 
L 319.36896 89.427352 
L 319.72608 94.841792 
L 320.0832 91.417234 
L 320.44032 92.107251 
L 320.79744 92.019104 
L 321.15456 91.72116 
L 321.51168 96.058695 
L 321.8688 83.064437 
L 322.22592 89.68541 
L 322.94016 94.04927 
L 323.29728 87.38881 
L 323.6544 91.951299 
L 324.01152 93.476516 
L 324.36864 91.461905 
L 324.72576 82.101604 
L 325.08288 91.802127 
L 325.44 92.04822 
L 325.79712 93.518794 
L 326.15424 87.811994 
L 326.51136 92.986723 
L 326.86848 88.499219 
L 327.2256 81.524063 
L 327.58272 83.160561 
L 327.93984 89.557777 
L 328.29696 81.950438 
L 328.65408 87.368468 
L 329.0112 79.676174 
L 329.36832 84.066358 
L 329.72544 84.981727 
L 330.08256 93.212873 
L 330.43968 90.254575 
L 330.7968 92.606217 
L 331.15392 86.826825 
L 331.51104 91.664124 
L 331.86816 91.30715 
L 332.22528 89.621992 
L 332.5824 89.935492 
L 332.93952 82.917659 
L 333.29664 78.796302 
L 333.65376 91.842811 
L 334.72512 81.658078 
L 335.08224 83.747673 
L 335.43936 88.59973 
L 335.79648 89.790708 
L 336.1536 85.687299 
L 336.51072 86.617427 
L 336.86784 89.746036 
L 337.22496 81.561954 
L 337.58208 89.476411 
L 337.9392 79.528996 
L 338.29632 84.555751 
L 338.65344 85.936583 
L 339.01056 82.73977 
L 339.36768 86.682041 
L 339.7248 88.838245 
L 340.08192 87.229268 
L 340.43904 75.220976 
L 340.79616 89.293736 
L 341.15328 85.301209 
L 341.5104 83.532691 
L 341.86752 85.262121 
L 342.22464 81.958814 
L 342.58176 84.402591 
L 342.93888 81.250848 
L 343.296 86.02473 
L 343.65312 87.450233 
L 344.01024 80.319525 
L 344.36736 82.396755 
L 344.72448 83.372751 
L 345.0816 83.92995 
L 345.43872 80.425221 
L 345.79584 79.377432 
L 346.15296 84.187609 
L 346.51008 79.992465 
L 346.8672 73.609208 
L 347.93856 85.837269 
L 348.29568 79.678966 
L 348.6528 76.689157 
L 349.00992 75.824043 
L 349.36704 86.590305 
L 349.72416 78.102296 
L 350.08128 86.076182 
L 350.4384 73.722483 
L 350.79552 75.317898 
L 351.15264 83.287396 
L 351.50976 86.350195 
L 351.86688 84.954206 
L 352.224 79.155669 
L 352.58112 79.107807 
L 352.93824 85.055116 
L 353.29536 86.207006 
L 353.65248 78.30292 
L 354.0096 82.951561 
L 354.36672 79.484724 
L 354.72384 82.561482 
L 355.08096 83.921175 
L 355.43808 85.724393 
L 355.7952 81.731467 
L 356.15232 84.089092 
L 356.50944 70.91854 
L 356.86656 73.431718 
L 357.22368 83.293778 
L 357.5808 82.854241 
L 357.93792 83.476453 
L 358.29504 80.309952 
L 358.65216 74.840071 
L 359.00928 76.760951 
L 359.3664 71.157454 
L 359.72352 79.227064 
L 360.08064 80.740714 
L 360.43776 70.630568 
L 360.79488 69.150022 
L 361.152 83.062442 
L 361.50912 76.12438 
L 361.86624 77.449373 
L 362.22336 71.777671 
L 362.58048 70.853527 
L 362.9376 80.461118 
L 363.29472 70.152741 
L 363.65184 79.162849 
L 364.00896 73.846127 
L 364.36608 81.348568 
L 364.7232 78.683825 
L 365.08032 69.966476 
L 365.43744 69.103755 
L 365.79456 79.29447 
L 366.15168 82.426669 
L 366.5088 70.551993 
L 366.86592 76.090079 
L 367.22304 66.736957 
L 367.58016 71.572262 
L 367.93728 71.768896 
L 368.2944 81.225721 
L 368.65152 76.586253 
L 369.00864 69.17515 
L 369.36576 76.101247 
L 369.72288 74.094613 
L 370.08 73.988119 
L 370.43712 73.607613 
L 370.79424 77.307381 
L 371.15136 76.476568 
L 371.50848 73.966182 
L 371.8656 77.963096 
L 372.22272 68.598806 
L 372.57984 72.953093 
L 372.93696 73.412972 
L 373.29408 74.456374 
L 373.6512 78.658299 
L 374.00832 67.183274 
L 374.36544 79.003307 
L 374.72256 74.814544 
L 375.07968 78.587303 
L 375.4368 79.312419 
L 375.79392 77.213251 
L 376.15104 64.065434 
L 376.50816 67.613239 
L 376.86528 63.70128 
L 377.2224 75.305134 
L 377.57952 76.764142 
L 377.93664 69.952915 
L 378.29376 69.668133 
L 378.65088 63.923442 
L 379.008 68.739602 
L 379.36512 68.079499 
L 379.72224 72.412647 
L 380.07936 72.031342 
L 380.43648 68.627524 
L 380.7936 67.509138 
L 381.15072 62.808645 
L 381.50784 70.176672 
L 381.86496 68.174027 
L 382.22208 64.892657 
L 382.5792 78.219161 
L 382.93632 76.053783 
L 383.29344 66.475707 
L 383.65056 69.437995 
L 384.00768 67.069202 
L 384.3648 66.997408 
L 384.72192 71.212894 
L 385.43616 75.726723 
L 385.79328 72.977822 
L 386.1504 73.814618 
L 386.50752 65.711902 
L 386.86464 74.008062 
L 387.22176 75.126847 
L 387.57888 74.515803 
L 387.936 70.094109 
L 388.29312 60.536774 
L 388.65024 62.345576 
L 389.00736 66.766073 
L 389.36448 74.247374 
L 389.7216 62.063188 
L 390.43584 75.55362 
L 390.79296 66.797184 
L 391.15008 71.166228 
L 391.5072 67.337631 
L 391.86432 67.799104 
L 392.22144 66.072466 
L 392.93568 74.880355 
L 393.64992 58.802159 
L 394.00704 74.718819 
L 394.36416 73.04124 
L 394.72128 63.095022 
L 395.0784 71.87898 
L 395.43552 62.523066 
L 395.79264 65.301482 
L 396.14976 71.598985 
L 396.50688 64.698415 
L 396.864 71.001502 
L 397.22112 58.988822 
L 397.57824 73.959402 
L 397.93536 63.708061 
L 398.29248 60.482131 
L 398.6496 63.705668 
L 399.00672 57.199564 
L 399.36384 59.153549 
L 399.72096 58.112939 
L 400.07808 63.92065 
L 400.4352 62.278569 
L 400.79232 57.182812 
L 401.14944 65.2951 
L 401.50656 69.875139 
L 401.86368 70.264021 
L 402.2208 61.386333 
L 402.57792 65.870247 
L 402.93504 67.098717 
L 403.29216 58.629056 
L 403.64928 61.419438 
L 404.0064 62.277771 
L 404.36352 60.258773 
L 404.72064 64.990376 
L 405.07776 64.319105 
L 405.43488 58.489856 
L 405.792 68.33636 
L 406.14912 71.072897 
L 406.50624 66.606531 
L 406.86336 65.884207 
L 407.22048 70.785722 
L 407.5776 56.767605 
L 407.93472 60.85825 
L 408.29184 58.864779 
L 408.64896 70.302311 
L 409.00608 68.870027 
L 409.3632 64.219391 
L 409.72032 70.050235 
L 410.07744 68.02326 
L 410.43456 68.859657 
L 410.79168 58.842443 
L 411.1488 53.568 
L 411.50592 69.065864 
L 411.86304 58.5441 
L 412.22016 58.954521 
L 412.57728 62.407398 
L 412.9344 67.598082 
L 413.29152 65.648883 
L 413.64864 61.570603 
L 414.00576 55.140282 
L 414.36288 64.969635 
L 414.72 67.173702 
L 414.72 67.173702 
" style="fill:none;stroke:#000080;stroke-linecap:square;stroke-width:0.5;"/>
   </g>
   <g id="patch_3">
    <path d="M 57.6 307.584 
L 57.6 41.472 
" style="fill:none;stroke:#000000;stroke-linecap:square;stroke-linejoin:miter;stroke-width:0.8;"/>
   </g>
   <g id="patch_4">
    <path d="M 414.72 307.584 
L 414.72 41.472 
" style="fill:none;stroke:#000000;stroke-linecap:square;stroke-linejoin:miter;stroke-width:0.8;"/>
   </g>
   <g id="patch_5">
    <path d="M 57.6 307.584 
L 414.72 307.584 
" style="fill:none;stroke:#000000;stroke-linecap:square;stroke-linejoin:miter;stroke-width:0.8;"/>
   </g>
   <g id="patch_6">
    <path d="M 57.6 41.472 
L 414.72 41.472 
" style="fill:none;stroke:#000000;stroke-linecap:square;stroke-linejoin:miter;stroke-width:0.8;"/>
   </g>
   <g id="text_16">
    <!-- Test -->
    <defs>
     <path d="M -0.296875 72.90625 
L 61.375 72.90625 
L 61.375 64.59375 
L 35.5 64.59375 
L 35.5 0 
L 25.59375 0 
L 25.59375 64.59375 
L -0.296875 64.59375 
z
" id="DejaVuSans-54"/>
    </defs>
    <g transform="translate(223.341563 35.472)scale(0.12 -0.12)">
     <use xlink:href="#DejaVuSans-54"/>
     <use x="60.818359" xlink:href="#DejaVuSans-65"/>
     <use x="122.341797" xlink:href="#DejaVuSans-73"/>
     <use x="174.441406" xlink:href="#DejaVuSans-74"/>
    </g>
   </g>
   <g id="legend_1">
    <g id="patch_7">
     <path d="M 64.6 64.150125 
L 306.276563 64.150125 
Q 308.276563 64.150125 308.276563 62.150125 
L 308.276563 48.472 
Q 308.276563 46.472 306.276563 46.472 
L 64.6 46.472 
Q 62.6 46.472 62.6 48.472 
L 62.6 62.150125 
Q 62.6 64.150125 64.6 64.150125 
z
" style="fill:#ffffff;opacity:0.8;stroke:#cccccc;stroke-linejoin:miter;"/>
    </g>
    <g id="line2d_28">
     <path d="M 66.6 54.570438 
L 86.6 54.570438 
" style="fill:none;stroke:#000080;stroke-linecap:square;stroke-width:0.5;"/>
    </g>
    <g id="line2d_29"/>
    <g id="text_17">
     <!-- Successful download requests per second -->
     <g transform="translate(94.6 58.070438)scale(0.1 -0.1)">
      <use xlink:href="#DejaVuSans-53"/>
      <use x="63.476562" xlink:href="#DejaVuSans-75"/>
      <use x="126.855469" xlink:href="#DejaVuSans-63"/>
      <use x="181.835938" xlink:href="#DejaVuSans-63"/>
      <use x="236.816406" xlink:href="#DejaVuSans-65"/>
      <use x="298.339844" xlink:href="#DejaVuSans-73"/>
      <use x="350.439453" xlink:href="#DejaVuSans-73"/>
      <use x="402.539062" xlink:href="#DejaVuSans-66"/>
      <use x="437.744141" xlink:href="#DejaVuSans-75"/>
      <use x="501.123047" xlink:href="#DejaVuSans-6c"/>
      <use x="528.90625" xlink:href="#DejaVuSans-20"/>
      <use x="560.693359" xlink:href="#DejaVuSans-64"/>
      <use x="624.169922" xlink:href="#DejaVuSans-6f"/>
      <use x="685.351562" xlink:href="#DejaVuSans-77"/>
      <use x="767.138672" xlink:href="#DejaVuSans-6e"/>
      <use x="830.517578" xlink:href="#DejaVuSans-6c"/>
      <use x="858.300781" xlink:href="#DejaVuSans-6f"/>
      <use x="919.482422" xlink:href="#DejaVuSans-61"/>
      <use x="980.761719" xlink:href="#DejaVuSans-64"/>
      <use x="1044.238281" xlink:href="#DejaVuSans-20"/>
      <use x="1076.025391" xlink:href="#DejaVuSans-72"/>
      <use x="1117.107422" xlink:href="#DejaVuSans-65"/>
      <use x="1178.630859" xlink:href="#DejaVuSans-71"/>
      <use x="1242.107422" xlink:href="#DejaVuSans-75"/>
      <use x="1305.486328" xlink:href="#DejaVuSans-65"/>
      <use x="1367.009766" xlink:href="#DejaVuSans-73"/>
      <use x="1419.109375" xlink:href="#DejaVuSans-74"/>
      <use x="1458.318359" xlink:href="#DejaVuSans-73"/>
      <use x="1510.417969" xlink:href="#DejaVuSans-20"/>
      <use x="1542.205078" xlink:href="#DejaVuSans-70"/>
      <use x="1605.681641" xlink:href="#DejaVuSans-65"/>
      <use x="1667.205078" xlink:href="#DejaVuSans-72"/>
      <use x="1708.318359" xlink:href="#DejaVuSans-20"/>
      <use x="1740.105469" xlink:href="#DejaVuSans-73"/>
      <use x="1792.205078" xlink:href="#DejaVuSans-65"/>
      <use x="1853.728516" xlink:href="#DejaVuSans-63"/>
      <use x="1908.708984" xlink:href="#DejaVuSans-6f"/>
      <use x="1969.890625" xlink:href="#DejaVuSans-6e"/>
      <use x="2033.269531" xlink:href="#DejaVuSans-64"/>
     </g>
    </g>
   </g>
  </g>
 </g>
 <defs>
  <clipPath id="p5bc79b5349">
   <rect height="266.112" width="357.12" x="57.6" y="41.472"/>
  </clipPath>
 </defs>
</svg>
