<?xml version="1.0" encoding="utf-8" standalone="no"?>
<!DOCTYPE svg PUBLIC "-//W3C//DTD SVG 1.1//EN"
  "http://www.w3.org/Graphics/SVG/1.1/DTD/svg11.dtd">
<!-- Created with matplotlib (http://matplotlib.org/) -->
<svg height="345pt" version="1.1" viewBox="0 0 460 345" width="460pt" xmlns="http://www.w3.org/2000/svg" xmlns:xlink="http://www.w3.org/1999/xlink">
 <defs>
  <style type="text/css">
*{stroke-linecap:butt;stroke-linejoin:round;}
  </style>
 </defs>
 <g id="figure_1">
  <g id="patch_1">
   <path d="M 0 345.6 
L 460.8 345.6 
L 460.8 0 
L 0 0 
z
" style="fill:#ffffff;"/>
  </g>
  <g id="axes_1">
   <g id="patch_2">
    <path d="M 57.6 307.584 
L 414.72 307.584 
L 414.72 41.472 
L 57.6 41.472 
z
" style="fill:#ffffff;"/>
   </g>
   <g id="matplotlib.axis_1">
    <g id="xtick_1">
     <g id="line2d_1">
      <path clip-path="url(#p297f28b2c3)" d="M 57.6 307.584 
L 57.6 41.472 
" style="fill:none;stroke:#b0b0b0;stroke-linecap:square;stroke-width:0.8;"/>
     </g>
     <g id="line2d_2">
      <defs>
       <path d="M 0 0 
L 0 3.5 
" id="me23e51951d" style="stroke:#000000;stroke-width:0.8;"/>
      </defs>
      <g>
       <use style="stroke:#000000;stroke-width:0.8;" x="57.6" xlink:href="#me23e51951d" y="307.584"/>
      </g>
     </g>
     <g id="text_1">
      <!-- 0 -->
      <defs>
       <path d="M 31.78125 66.40625 
Q 24.171875 66.40625 20.328125 58.90625 
Q 16.5 51.421875 16.5 36.375 
Q 16.5 21.390625 20.328125 13.890625 
Q 24.171875 6.390625 31.78125 6.390625 
Q 39.453125 6.390625 43.28125 13.890625 
Q 47.125 21.390625 47.125 36.375 
Q 47.125 51.421875 43.28125 58.90625 
Q 39.453125 66.40625 31.78125 66.40625 
M 31.78125 74.21875 
Q 44.046875 74.21875 50.515625 64.515625 
Q 56.984375 54.828125 56.984375 36.375 
Q 56.984375 17.96875 50.515625 8.265625 
Q 44.046875 -1.421875 31.78125 -1.421875 
Q 19.53125 -1.421875 13.0625 8.265625 
Q 6.59375 17.96875 6.59375 36.375 
Q 6.59375 54.828125 13.0625 64.515625 
Q 19.53125 74.21875 31.78125 74.21875 
" id="DejaVuSans-30"/>
      </defs>
      <g transform="translate(54.41875 322.182437)scale(0.1 -0.1)">
       <use xlink:href="#DejaVuSans-30"/>
      </g>
     </g>
    </g>
    <g id="xtick_2">
     <g id="line2d_3">
      <path clip-path="url(#p297f28b2c3)" d="M 129.024 307.584 
L 129.024 41.472 
" style="fill:none;stroke:#b0b0b0;stroke-linecap:square;stroke-width:0.8;"/>
     </g>
     <g id="line2d_4">
      <g>
       <use style="stroke:#000000;stroke-width:0.8;" x="129.024" xlink:href="#me23e51951d" y="307.584"/>
      </g>
     </g>
     <g id="text_2">
      <!-- 200 -->
      <defs>
       <path d="M 19.1875 8.296875 
L 53.609375 8.296875 
L 53.609375 0 
L 7.328125 0 
L 7.328125 8.296875 
Q 12.9375 14.109375 22.625 23.890625 
Q 32.328125 33.6875 34.8125 36.53125 
Q 39.546875 41.84375 41.421875 45.53125 
Q 43.3125 49.21875 43.3125 52.78125 
Q 43.3125 58.59375 39.234375 62.25 
Q 35.15625 65.921875 28.609375 65.921875 
Q 23.96875 65.921875 18.8125 64.3125 
Q 13.671875 62.703125 7.8125 59.421875 
L 7.8125 69.390625 
Q 13.765625 71.78125 18.9375 73 
Q 24.125 74.21875 28.421875 74.21875 
Q 39.75 74.21875 46.484375 68.546875 
Q 53.21875 62.890625 53.21875 53.421875 
Q 53.21875 48.921875 51.53125 44.890625 
Q 49.859375 40.875 45.40625 35.40625 
Q 44.1875 33.984375 37.640625 27.21875 
Q 31.109375 20.453125 19.1875 8.296875 
" id="DejaVuSans-32"/>
      </defs>
      <g transform="translate(119.48025 322.182437)scale(0.1 -0.1)">
       <use xlink:href="#DejaVuSans-32"/>
       <use x="63.623047" xlink:href="#DejaVuSans-30"/>
       <use x="127.246094" xlink:href="#DejaVuSans-30"/>
      </g>
     </g>
    </g>
    <g id="xtick_3">
     <g id="line2d_5">
      <path clip-path="url(#p297f28b2c3)" d="M 200.448 307.584 
L 200.448 41.472 
" style="fill:none;stroke:#b0b0b0;stroke-linecap:square;stroke-width:0.8;"/>
     </g>
     <g id="line2d_6">
      <g>
       <use style="stroke:#000000;stroke-width:0.8;" x="200.448" xlink:href="#me23e51951d" y="307.584"/>
      </g>
     </g>
     <g id="text_3">
      <!-- 400 -->
      <defs>
       <path d="M 37.796875 64.3125 
L 12.890625 25.390625 
L 37.796875 25.390625 
z
M 35.203125 72.90625 
L 47.609375 72.90625 
L 47.609375 25.390625 
L 58.015625 25.390625 
L 58.015625 17.1875 
L 47.609375 17.1875 
L 47.609375 0 
L 37.796875 0 
L 37.796875 17.1875 
L 4.890625 17.1875 
L 4.890625 26.703125 
z
" id="DejaVuSans-34"/>
      </defs>
      <g transform="translate(190.90425 322.182437)scale(0.1 -0.1)">
       <use xlink:href="#DejaVuSans-34"/>
       <use x="63.623047" xlink:href="#DejaVuSans-30"/>
       <use x="127.246094" xlink:href="#DejaVuSans-30"/>
      </g>
     </g>
    </g>
    <g id="xtick_4">
     <g id="line2d_7">
      <path clip-path="url(#p297f28b2c3)" d="M 271.872 307.584 
L 271.872 41.472 
" style="fill:none;stroke:#b0b0b0;stroke-linecap:square;stroke-width:0.8;"/>
     </g>
     <g id="line2d_8">
      <g>
       <use style="stroke:#000000;stroke-width:0.8;" x="271.872" xlink:href="#me23e51951d" y="307.584"/>
      </g>
     </g>
     <g id="text_4">
      <!-- 600 -->
      <defs>
       <path d="M 33.015625 40.375 
Q 26.375 40.375 22.484375 35.828125 
Q 18.609375 31.296875 18.609375 23.390625 
Q 18.609375 15.53125 22.484375 10.953125 
Q 26.375 6.390625 33.015625 6.390625 
Q 39.65625 6.390625 43.53125 10.953125 
Q 47.40625 15.53125 47.40625 23.390625 
Q 47.40625 31.296875 43.53125 35.828125 
Q 39.65625 40.375 33.015625 40.375 
M 52.59375 71.296875 
L 52.59375 62.3125 
Q 48.875 64.0625 45.09375 64.984375 
Q 41.3125 65.921875 37.59375 65.921875 
Q 27.828125 65.921875 22.671875 59.328125 
Q 17.53125 52.734375 16.796875 39.40625 
Q 19.671875 43.65625 24.015625 45.921875 
Q 28.375 48.1875 33.59375 48.1875 
Q 44.578125 48.1875 50.953125 41.515625 
Q 57.328125 34.859375 57.328125 23.390625 
Q 57.328125 12.15625 50.6875 5.359375 
Q 44.046875 -1.421875 33.015625 -1.421875 
Q 20.359375 -1.421875 13.671875 8.265625 
Q 6.984375 17.96875 6.984375 36.375 
Q 6.984375 53.65625 15.1875 63.9375 
Q 23.390625 74.21875 37.203125 74.21875 
Q 40.921875 74.21875 44.703125 73.484375 
Q 48.484375 72.75 52.59375 71.296875 
" id="DejaVuSans-36"/>
      </defs>
      <g transform="translate(262.32825 322.182437)scale(0.1 -0.1)">
       <use xlink:href="#DejaVuSans-36"/>
       <use x="63.623047" xlink:href="#DejaVuSans-30"/>
       <use x="127.246094" xlink:href="#DejaVuSans-30"/>
      </g>
     </g>
    </g>
    <g id="xtick_5">
     <g id="line2d_9">
      <path clip-path="url(#p297f28b2c3)" d="M 343.296 307.584 
L 343.296 41.472 
" style="fill:none;stroke:#b0b0b0;stroke-linecap:square;stroke-width:0.8;"/>
     </g>
     <g id="line2d_10">
      <g>
       <use style="stroke:#000000;stroke-width:0.8;" x="343.296" xlink:href="#me23e51951d" y="307.584"/>
      </g>
     </g>
     <g id="text_5">
      <!-- 800 -->
      <defs>
       <path d="M 31.78125 34.625 
Q 24.75 34.625 20.71875 30.859375 
Q 16.703125 27.09375 16.703125 20.515625 
Q 16.703125 13.921875 20.71875 10.15625 
Q 24.75 6.390625 31.78125 6.390625 
Q 38.8125 6.390625 42.859375 10.171875 
Q 46.921875 13.96875 46.921875 20.515625 
Q 46.921875 27.09375 42.890625 30.859375 
Q 38.875 34.625 31.78125 34.625 
M 21.921875 38.8125 
Q 15.578125 40.375 12.03125 44.71875 
Q 8.5 49.078125 8.5 55.328125 
Q 8.5 64.0625 14.71875 69.140625 
Q 20.953125 74.21875 31.78125 74.21875 
Q 42.671875 74.21875 48.875 69.140625 
Q 55.078125 64.0625 55.078125 55.328125 
Q 55.078125 49.078125 51.53125 44.71875 
Q 48 40.375 41.703125 38.8125 
Q 48.828125 37.15625 52.796875 32.3125 
Q 56.78125 27.484375 56.78125 20.515625 
Q 56.78125 9.90625 50.3125 4.234375 
Q 43.84375 -1.421875 31.78125 -1.421875 
Q 19.734375 -1.421875 13.25 4.234375 
Q 6.78125 9.90625 6.78125 20.515625 
Q 6.78125 27.484375 10.78125 32.3125 
Q 14.796875 37.15625 21.921875 38.8125 
M 18.3125 54.390625 
Q 18.3125 48.734375 21.84375 45.5625 
Q 25.390625 42.390625 31.78125 42.390625 
Q 38.140625 42.390625 41.71875 45.5625 
Q 45.3125 48.734375 45.3125 54.390625 
Q 45.3125 60.0625 41.71875 63.234375 
Q 38.140625 66.40625 31.78125 66.40625 
Q 25.390625 66.40625 21.84375 63.234375 
Q 18.3125 60.0625 18.3125 54.390625 
" id="DejaVuSans-38"/>
      </defs>
      <g transform="translate(333.75225 322.182437)scale(0.1 -0.1)">
       <use xlink:href="#DejaVuSans-38"/>
       <use x="63.623047" xlink:href="#DejaVuSans-30"/>
       <use x="127.246094" xlink:href="#DejaVuSans-30"/>
      </g>
     </g>
    </g>
    <g id="xtick_6">
     <g id="line2d_11">
      <path clip-path="url(#p297f28b2c3)" d="M 414.72 307.584 
L 414.72 41.472 
" style="fill:none;stroke:#b0b0b0;stroke-linecap:square;stroke-width:0.8;"/>
     </g>
     <g id="line2d_12">
      <g>
       <use style="stroke:#000000;stroke-width:0.8;" x="414.72" xlink:href="#me23e51951d" y="307.584"/>
      </g>
     </g>
     <g id="text_6">
      <!-- 1000 -->
      <defs>
       <path d="M 12.40625 8.296875 
L 28.515625 8.296875 
L 28.515625 63.921875 
L 10.984375 60.40625 
L 10.984375 69.390625 
L 28.421875 72.90625 
L 38.28125 72.90625 
L 38.28125 8.296875 
L 54.390625 8.296875 
L 54.390625 0 
L 12.40625 0 
z
" id="DejaVuSans-31"/>
      </defs>
      <g transform="translate(401.995 322.182437)scale(0.1 -0.1)">
       <use xlink:href="#DejaVuSans-31"/>
       <use x="63.623047" xlink:href="#DejaVuSans-30"/>
       <use x="127.246094" xlink:href="#DejaVuSans-30"/>
       <use x="190.869141" xlink:href="#DejaVuSans-30"/>
      </g>
     </g>
    </g>
    <g id="text_7">
     <!-- Number of clients -->
     <defs>
      <path d="M 9.8125 72.90625 
L 23.09375 72.90625 
L 55.421875 11.921875 
L 55.421875 72.90625 
L 64.984375 72.90625 
L 64.984375 0 
L 51.703125 0 
L 19.390625 60.984375 
L 19.390625 0 
L 9.8125 0 
z
" id="DejaVuSans-4e"/>
      <path d="M 8.5 21.578125 
L 8.5 54.6875 
L 17.484375 54.6875 
L 17.484375 21.921875 
Q 17.484375 14.15625 20.5 10.265625 
Q 23.53125 6.390625 29.59375 6.390625 
Q 36.859375 6.390625 41.078125 11.03125 
Q 45.3125 15.671875 45.3125 23.6875 
L 45.3125 54.6875 
L 54.296875 54.6875 
L 54.296875 0 
L 45.3125 0 
L 45.3125 8.40625 
Q 42.046875 3.421875 37.71875 1 
Q 33.40625 -1.421875 27.6875 -1.421875 
Q 18.265625 -1.421875 13.375 4.4375 
Q 8.5 10.296875 8.5 21.578125 
M 31.109375 56 
z
" id="DejaVuSans-75"/>
      <path d="M 52 44.1875 
Q 55.375 50.25 60.0625 53.125 
Q 64.75 56 71.09375 56 
Q 79.640625 56 84.28125 50.015625 
Q 88.921875 44.046875 88.921875 33.015625 
L 88.921875 0 
L 79.890625 0 
L 79.890625 32.71875 
Q 79.890625 40.578125 77.09375 44.375 
Q 74.3125 48.1875 68.609375 48.1875 
Q 61.625 48.1875 57.5625 43.546875 
Q 53.515625 38.921875 53.515625 30.90625 
L 53.515625 0 
L 44.484375 0 
L 44.484375 32.71875 
Q 44.484375 40.625 41.703125 44.40625 
Q 38.921875 48.1875 33.109375 48.1875 
Q 26.21875 48.1875 22.15625 43.53125 
Q 18.109375 38.875 18.109375 30.90625 
L 18.109375 0 
L 9.078125 0 
L 9.078125 54.6875 
L 18.109375 54.6875 
L 18.109375 46.1875 
Q 21.1875 51.21875 25.484375 53.609375 
Q 29.78125 56 35.6875 56 
Q 41.65625 56 45.828125 52.96875 
Q 50 49.953125 52 44.1875 
" id="DejaVuSans-6d"/>
      <path d="M 48.6875 27.296875 
Q 48.6875 37.203125 44.609375 42.84375 
Q 40.53125 48.484375 33.40625 48.484375 
Q 26.265625 48.484375 22.1875 42.84375 
Q 18.109375 37.203125 18.109375 27.296875 
Q 18.109375 17.390625 22.1875 11.75 
Q 26.265625 6.109375 33.40625 6.109375 
Q 40.53125 6.109375 44.609375 11.75 
Q 48.6875 17.390625 48.6875 27.296875 
M 18.109375 46.390625 
Q 20.953125 51.265625 25.265625 53.625 
Q 29.59375 56 35.59375 56 
Q 45.5625 56 51.78125 48.09375 
Q 58.015625 40.1875 58.015625 27.296875 
Q 58.015625 14.40625 51.78125 6.484375 
Q 45.5625 -1.421875 35.59375 -1.421875 
Q 29.59375 -1.421875 25.265625 0.953125 
Q 20.953125 3.328125 18.109375 8.203125 
L 18.109375 0 
L 9.078125 0 
L 9.078125 75.984375 
L 18.109375 75.984375 
z
" id="DejaVuSans-62"/>
      <path d="M 56.203125 29.59375 
L 56.203125 25.203125 
L 14.890625 25.203125 
Q 15.484375 15.921875 20.484375 11.0625 
Q 25.484375 6.203125 34.421875 6.203125 
Q 39.59375 6.203125 44.453125 7.46875 
Q 49.3125 8.734375 54.109375 11.28125 
L 54.109375 2.78125 
Q 49.265625 0.734375 44.1875 -0.34375 
Q 39.109375 -1.421875 33.890625 -1.421875 
Q 20.796875 -1.421875 13.15625 6.1875 
Q 5.515625 13.8125 5.515625 26.8125 
Q 5.515625 40.234375 12.765625 48.109375 
Q 20.015625 56 32.328125 56 
Q 43.359375 56 49.78125 48.890625 
Q 56.203125 41.796875 56.203125 29.59375 
M 47.21875 32.234375 
Q 47.125 39.59375 43.09375 43.984375 
Q 39.0625 48.390625 32.421875 48.390625 
Q 24.90625 48.390625 20.390625 44.140625 
Q 15.875 39.890625 15.1875 32.171875 
z
" id="DejaVuSans-65"/>
      <path d="M 41.109375 46.296875 
Q 39.59375 47.171875 37.8125 47.578125 
Q 36.03125 48 33.890625 48 
Q 26.265625 48 22.1875 43.046875 
Q 18.109375 38.09375 18.109375 28.8125 
L 18.109375 0 
L 9.078125 0 
L 9.078125 54.6875 
L 18.109375 54.6875 
L 18.109375 46.1875 
Q 20.953125 51.171875 25.484375 53.578125 
Q 30.03125 56 36.53125 56 
Q 37.453125 56 38.578125 55.875 
Q 39.703125 55.765625 41.0625 55.515625 
z
" id="DejaVuSans-72"/>
      <path id="DejaVuSans-20"/>
      <path d="M 30.609375 48.390625 
Q 23.390625 48.390625 19.1875 42.75 
Q 14.984375 37.109375 14.984375 27.296875 
Q 14.984375 17.484375 19.15625 11.84375 
Q 23.34375 6.203125 30.609375 6.203125 
Q 37.796875 6.203125 41.984375 11.859375 
Q 46.1875 17.53125 46.1875 27.296875 
Q 46.1875 37.015625 41.984375 42.703125 
Q 37.796875 48.390625 30.609375 48.390625 
M 30.609375 56 
Q 42.328125 56 49.015625 48.375 
Q 55.71875 40.765625 55.71875 27.296875 
Q 55.71875 13.875 49.015625 6.21875 
Q 42.328125 -1.421875 30.609375 -1.421875 
Q 18.84375 -1.421875 12.171875 6.21875 
Q 5.515625 13.875 5.515625 27.296875 
Q 5.515625 40.765625 12.171875 48.375 
Q 18.84375 56 30.609375 56 
" id="DejaVuSans-6f"/>
      <path d="M 37.109375 75.984375 
L 37.109375 68.5 
L 28.515625 68.5 
Q 23.6875 68.5 21.796875 66.546875 
Q 19.921875 64.59375 19.921875 59.515625 
L 19.921875 54.6875 
L 34.71875 54.6875 
L 34.71875 47.703125 
L 19.921875 47.703125 
L 19.921875 0 
L 10.890625 0 
L 10.890625 47.703125 
L 2.296875 47.703125 
L 2.296875 54.6875 
L 10.890625 54.6875 
L 10.890625 58.5 
Q 10.890625 67.625 15.140625 71.796875 
Q 19.390625 75.984375 28.609375 75.984375 
z
" id="DejaVuSans-66"/>
      <path d="M 48.78125 52.59375 
L 48.78125 44.1875 
Q 44.96875 46.296875 41.140625 47.34375 
Q 37.3125 48.390625 33.40625 48.390625 
Q 24.65625 48.390625 19.8125 42.84375 
Q 14.984375 37.3125 14.984375 27.296875 
Q 14.984375 17.28125 19.8125 11.734375 
Q 24.65625 6.203125 33.40625 6.203125 
Q 37.3125 6.203125 41.140625 7.25 
Q 44.96875 8.296875 48.78125 10.40625 
L 48.78125 2.09375 
Q 45.015625 0.34375 40.984375 -0.53125 
Q 36.96875 -1.421875 32.421875 -1.421875 
Q 20.0625 -1.421875 12.78125 6.34375 
Q 5.515625 14.109375 5.515625 27.296875 
Q 5.515625 40.671875 12.859375 48.328125 
Q 20.21875 56 33.015625 56 
Q 37.15625 56 41.109375 55.140625 
Q 45.0625 54.296875 48.78125 52.59375 
" id="DejaVuSans-63"/>
      <path d="M 9.421875 75.984375 
L 18.40625 75.984375 
L 18.40625 0 
L 9.421875 0 
z
" id="DejaVuSans-6c"/>
      <path d="M 9.421875 54.6875 
L 18.40625 54.6875 
L 18.40625 0 
L 9.421875 0 
z
M 9.421875 75.984375 
L 18.40625 75.984375 
L 18.40625 64.59375 
L 9.421875 64.59375 
z
" id="DejaVuSans-69"/>
      <path d="M 54.890625 33.015625 
L 54.890625 0 
L 45.90625 0 
L 45.90625 32.71875 
Q 45.90625 40.484375 42.875 44.328125 
Q 39.84375 48.1875 33.796875 48.1875 
Q 26.515625 48.1875 22.3125 43.546875 
Q 18.109375 38.921875 18.109375 30.90625 
L 18.109375 0 
L 9.078125 0 
L 9.078125 54.6875 
L 18.109375 54.6875 
L 18.109375 46.1875 
Q 21.34375 51.125 25.703125 53.5625 
Q 30.078125 56 35.796875 56 
Q 45.21875 56 50.046875 50.171875 
Q 54.890625 44.34375 54.890625 33.015625 
" id="DejaVuSans-6e"/>
      <path d="M 18.3125 70.21875 
L 18.3125 54.6875 
L 36.8125 54.6875 
L 36.8125 47.703125 
L 18.3125 47.703125 
L 18.3125 18.015625 
Q 18.3125 11.328125 20.140625 9.421875 
Q 21.96875 7.515625 27.59375 7.515625 
L 36.8125 7.515625 
L 36.8125 0 
L 27.59375 0 
Q 17.1875 0 13.234375 3.875 
Q 9.28125 7.765625 9.28125 18.015625 
L 9.28125 47.703125 
L 2.6875 47.703125 
L 2.6875 54.6875 
L 9.28125 54.6875 
L 9.28125 70.21875 
z
" id="DejaVuSans-74"/>
      <path d="M 44.28125 53.078125 
L 44.28125 44.578125 
Q 40.484375 46.53125 36.375 47.5 
Q 32.28125 48.484375 27.875 48.484375 
Q 21.1875 48.484375 17.84375 46.4375 
Q 14.5 44.390625 14.5 40.28125 
Q 14.5 37.15625 16.890625 35.375 
Q 19.28125 33.59375 26.515625 31.984375 
L 29.59375 31.296875 
Q 39.15625 29.25 43.1875 25.515625 
Q 47.21875 21.78125 47.21875 15.09375 
Q 47.21875 7.46875 41.1875 3.015625 
Q 35.15625 -1.421875 24.609375 -1.421875 
Q 20.21875 -1.421875 15.453125 -0.5625 
Q 10.6875 0.296875 5.421875 2 
L 5.421875 11.28125 
Q 10.40625 8.6875 15.234375 7.390625 
Q 20.0625 6.109375 24.8125 6.109375 
Q 31.15625 6.109375 34.5625 8.28125 
Q 37.984375 10.453125 37.984375 14.40625 
Q 37.984375 18.0625 35.515625 20.015625 
Q 33.0625 21.96875 24.703125 23.78125 
L 21.578125 24.515625 
Q 13.234375 26.265625 9.515625 29.90625 
Q 5.8125 33.546875 5.8125 39.890625 
Q 5.8125 47.609375 11.28125 51.796875 
Q 16.75 56 26.8125 56 
Q 31.78125 56 36.171875 55.265625 
Q 40.578125 54.546875 44.28125 53.078125 
" id="DejaVuSans-73"/>
     </defs>
     <g transform="translate(191.738906 335.860562)scale(0.1 -0.1)">
      <use xlink:href="#DejaVuSans-4e"/>
      <use x="74.804688" xlink:href="#DejaVuSans-75"/>
      <use x="138.183594" xlink:href="#DejaVuSans-6d"/>
      <use x="235.595703" xlink:href="#DejaVuSans-62"/>
      <use x="299.072266" xlink:href="#DejaVuSans-65"/>
      <use x="360.595703" xlink:href="#DejaVuSans-72"/>
      <use x="401.708984" xlink:href="#DejaVuSans-20"/>
      <use x="433.496094" xlink:href="#DejaVuSans-6f"/>
      <use x="494.677734" xlink:href="#DejaVuSans-66"/>
      <use x="529.882812" xlink:href="#DejaVuSans-20"/>
      <use x="561.669922" xlink:href="#DejaVuSans-63"/>
      <use x="616.650391" xlink:href="#DejaVuSans-6c"/>
      <use x="644.433594" xlink:href="#DejaVuSans-69"/>
      <use x="672.216797" xlink:href="#DejaVuSans-65"/>
      <use x="733.740234" xlink:href="#DejaVuSans-6e"/>
      <use x="797.119141" xlink:href="#DejaVuSans-74"/>
      <use x="836.328125" xlink:href="#DejaVuSans-73"/>
     </g>
    </g>
   </g>
   <g id="matplotlib.axis_2">
    <g id="ytick_1">
     <g id="line2d_13">
      <path clip-path="url(#p297f28b2c3)" d="M 57.6 295.845852 
L 414.72 295.845852 
" style="fill:none;stroke:#b0b0b0;stroke-linecap:square;stroke-width:0.8;"/>
     </g>
     <g id="line2d_14">
      <defs>
       <path d="M 0 0 
L -3.5 0 
" id="m1fad8286b7" style="stroke:#000000;stroke-width:0.8;"/>
      </defs>
      <g>
       <use style="stroke:#000000;stroke-width:0.8;" x="57.6" xlink:href="#m1fad8286b7" y="295.845852"/>
      </g>
     </g>
     <g id="text_8">
      <!-- 0 -->
      <g transform="translate(44.2375 299.64507)scale(0.1 -0.1)">
       <use xlink:href="#DejaVuSans-30"/>
      </g>
     </g>
    </g>
    <g id="ytick_2">
     <g id="line2d_15">
      <path clip-path="url(#p297f28b2c3)" d="M 57.6 258.801158 
L 414.72 258.801158 
" style="fill:none;stroke:#b0b0b0;stroke-linecap:square;stroke-width:0.8;"/>
     </g>
     <g id="line2d_16">
      <g>
       <use style="stroke:#000000;stroke-width:0.8;" x="57.6" xlink:href="#m1fad8286b7" y="258.801158"/>
      </g>
     </g>
     <g id="text_9">
      <!-- 100 -->
      <g transform="translate(31.5125 262.600377)scale(0.1 -0.1)">
       <use xlink:href="#DejaVuSans-31"/>
       <use x="63.623047" xlink:href="#DejaVuSans-30"/>
       <use x="127.246094" xlink:href="#DejaVuSans-30"/>
      </g>
     </g>
    </g>
    <g id="ytick_3">
     <g id="line2d_17">
      <path clip-path="url(#p297f28b2c3)" d="M 57.6 221.756465 
L 414.72 221.756465 
" style="fill:none;stroke:#b0b0b0;stroke-linecap:square;stroke-width:0.8;"/>
     </g>
     <g id="line2d_18">
      <g>
       <use style="stroke:#000000;stroke-width:0.8;" x="57.6" xlink:href="#m1fad8286b7" y="221.756465"/>
      </g>
     </g>
     <g id="text_10">
      <!-- 200 -->
      <g transform="translate(31.5125 225.555684)scale(0.1 -0.1)">
       <use xlink:href="#DejaVuSans-32"/>
       <use x="63.623047" xlink:href="#DejaVuSans-30"/>
       <use x="127.246094" xlink:href="#DejaVuSans-30"/>
      </g>
     </g>
    </g>
    <g id="ytick_4">
     <g id="line2d_19">
      <path clip-path="url(#p297f28b2c3)" d="M 57.6 184.711771 
L 414.72 184.711771 
" style="fill:none;stroke:#b0b0b0;stroke-linecap:square;stroke-width:0.8;"/>
     </g>
     <g id="line2d_20">
      <g>
       <use style="stroke:#000000;stroke-width:0.8;" x="57.6" xlink:href="#m1fad8286b7" y="184.711771"/>
      </g>
     </g>
     <g id="text_11">
      <!-- 300 -->
      <defs>
       <path d="M 40.578125 39.3125 
Q 47.65625 37.796875 51.625 33 
Q 55.609375 28.21875 55.609375 21.1875 
Q 55.609375 10.40625 48.1875 4.484375 
Q 40.765625 -1.421875 27.09375 -1.421875 
Q 22.515625 -1.421875 17.65625 -0.515625 
Q 12.796875 0.390625 7.625 2.203125 
L 7.625 11.71875 
Q 11.71875 9.328125 16.59375 8.109375 
Q 21.484375 6.890625 26.8125 6.890625 
Q 36.078125 6.890625 40.9375 10.546875 
Q 45.796875 14.203125 45.796875 21.1875 
Q 45.796875 27.640625 41.28125 31.265625 
Q 36.765625 34.90625 28.71875 34.90625 
L 20.21875 34.90625 
L 20.21875 43.015625 
L 29.109375 43.015625 
Q 36.375 43.015625 40.234375 45.921875 
Q 44.09375 48.828125 44.09375 54.296875 
Q 44.09375 59.90625 40.109375 62.90625 
Q 36.140625 65.921875 28.71875 65.921875 
Q 24.65625 65.921875 20.015625 65.03125 
Q 15.375 64.15625 9.8125 62.3125 
L 9.8125 71.09375 
Q 15.4375 72.65625 20.34375 73.4375 
Q 25.25 74.21875 29.59375 74.21875 
Q 40.828125 74.21875 47.359375 69.109375 
Q 53.90625 64.015625 53.90625 55.328125 
Q 53.90625 49.265625 50.4375 45.09375 
Q 46.96875 40.921875 40.578125 39.3125 
" id="DejaVuSans-33"/>
      </defs>
      <g transform="translate(31.5125 188.51099)scale(0.1 -0.1)">
       <use xlink:href="#DejaVuSans-33"/>
       <use x="63.623047" xlink:href="#DejaVuSans-30"/>
       <use x="127.246094" xlink:href="#DejaVuSans-30"/>
      </g>
     </g>
    </g>
    <g id="ytick_5">
     <g id="line2d_21">
      <path clip-path="url(#p297f28b2c3)" d="M 57.6 147.667078 
L 414.72 147.667078 
" style="fill:none;stroke:#b0b0b0;stroke-linecap:square;stroke-width:0.8;"/>
     </g>
     <g id="line2d_22">
      <g>
       <use style="stroke:#000000;stroke-width:0.8;" x="57.6" xlink:href="#m1fad8286b7" y="147.667078"/>
      </g>
     </g>
     <g id="text_12">
      <!-- 400 -->
      <g transform="translate(31.5125 151.466297)scale(0.1 -0.1)">
       <use xlink:href="#DejaVuSans-34"/>
       <use x="63.623047" xlink:href="#DejaVuSans-30"/>
       <use x="127.246094" xlink:href="#DejaVuSans-30"/>
      </g>
     </g>
    </g>
    <g id="ytick_6">
     <g id="line2d_23">
      <path clip-path="url(#p297f28b2c3)" d="M 57.6 110.622385 
L 414.72 110.622385 
" style="fill:none;stroke:#b0b0b0;stroke-linecap:square;stroke-width:0.8;"/>
     </g>
     <g id="line2d_24">
      <g>
       <use style="stroke:#000000;stroke-width:0.8;" x="57.6" xlink:href="#m1fad8286b7" y="110.622385"/>
      </g>
     </g>
     <g id="text_13">
      <!-- 500 -->
      <defs>
       <path d="M 10.796875 72.90625 
L 49.515625 72.90625 
L 49.515625 64.59375 
L 19.828125 64.59375 
L 19.828125 46.734375 
Q 21.96875 47.46875 24.109375 47.828125 
Q 26.265625 48.1875 28.421875 48.1875 
Q 40.625 48.1875 47.75 41.5 
Q 54.890625 34.8125 54.890625 23.390625 
Q 54.890625 11.625 47.5625 5.09375 
Q 40.234375 -1.421875 26.90625 -1.421875 
Q 22.3125 -1.421875 17.546875 -0.640625 
Q 12.796875 0.140625 7.71875 1.703125 
L 7.71875 11.625 
Q 12.109375 9.234375 16.796875 8.0625 
Q 21.484375 6.890625 26.703125 6.890625 
Q 35.15625 6.890625 40.078125 11.328125 
Q 45.015625 15.765625 45.015625 23.390625 
Q 45.015625 31 40.078125 35.4375 
Q 35.15625 39.890625 26.703125 39.890625 
Q 22.75 39.890625 18.8125 39.015625 
Q 14.890625 38.140625 10.796875 36.28125 
z
" id="DejaVuSans-35"/>
      </defs>
      <g transform="translate(31.5125 114.421603)scale(0.1 -0.1)">
       <use xlink:href="#DejaVuSans-35"/>
       <use x="63.623047" xlink:href="#DejaVuSans-30"/>
       <use x="127.246094" xlink:href="#DejaVuSans-30"/>
      </g>
     </g>
    </g>
    <g id="ytick_7">
     <g id="line2d_25">
      <path clip-path="url(#p297f28b2c3)" d="M 57.6 73.577691 
L 414.72 73.577691 
" style="fill:none;stroke:#b0b0b0;stroke-linecap:square;stroke-width:0.8;"/>
     </g>
     <g id="line2d_26">
      <g>
       <use style="stroke:#000000;stroke-width:0.8;" x="57.6" xlink:href="#m1fad8286b7" y="73.577691"/>
      </g>
     </g>
     <g id="text_14">
      <!-- 600 -->
      <g transform="translate(31.5125 77.37691)scale(0.1 -0.1)">
       <use xlink:href="#DejaVuSans-36"/>
       <use x="63.623047" xlink:href="#DejaVuSans-30"/>
       <use x="127.246094" xlink:href="#DejaVuSans-30"/>
      </g>
     </g>
    </g>
    <g id="text_15">
     <!-- Successful download requests per second -->
     <defs>
      <path d="M 53.515625 70.515625 
L 53.515625 60.890625 
Q 47.90625 63.578125 42.921875 64.890625 
Q 37.9375 66.21875 33.296875 66.21875 
Q 25.25 66.21875 20.875 63.09375 
Q 16.5 59.96875 16.5 54.203125 
Q 16.5 49.359375 19.40625 46.890625 
Q 22.3125 44.4375 30.421875 42.921875 
L 36.375 41.703125 
Q 47.40625 39.59375 52.65625 34.296875 
Q 57.90625 29 57.90625 20.125 
Q 57.90625 9.515625 50.796875 4.046875 
Q 43.703125 -1.421875 29.984375 -1.421875 
Q 24.8125 -1.421875 18.96875 -0.25 
Q 13.140625 0.921875 6.890625 3.21875 
L 6.890625 13.375 
Q 12.890625 10.015625 18.65625 8.296875 
Q 24.421875 6.59375 29.984375 6.59375 
Q 38.421875 6.59375 43.015625 9.90625 
Q 47.609375 13.234375 47.609375 19.390625 
Q 47.609375 24.75 44.3125 27.78125 
Q 41.015625 30.8125 33.5 32.328125 
L 27.484375 33.5 
Q 16.453125 35.6875 11.515625 40.375 
Q 6.59375 45.0625 6.59375 53.421875 
Q 6.59375 63.09375 13.40625 68.65625 
Q 20.21875 74.21875 32.171875 74.21875 
Q 37.3125 74.21875 42.625 73.28125 
Q 47.953125 72.359375 53.515625 70.515625 
" id="DejaVuSans-53"/>
      <path d="M 45.40625 46.390625 
L 45.40625 75.984375 
L 54.390625 75.984375 
L 54.390625 0 
L 45.40625 0 
L 45.40625 8.203125 
Q 42.578125 3.328125 38.25 0.953125 
Q 33.9375 -1.421875 27.875 -1.421875 
Q 17.96875 -1.421875 11.734375 6.484375 
Q 5.515625 14.40625 5.515625 27.296875 
Q 5.515625 40.1875 11.734375 48.09375 
Q 17.96875 56 27.875 56 
Q 33.9375 56 38.25 53.625 
Q 42.578125 51.265625 45.40625 46.390625 
M 14.796875 27.296875 
Q 14.796875 17.390625 18.875 11.75 
Q 22.953125 6.109375 30.078125 6.109375 
Q 37.203125 6.109375 41.296875 11.75 
Q 45.40625 17.390625 45.40625 27.296875 
Q 45.40625 37.203125 41.296875 42.84375 
Q 37.203125 48.484375 30.078125 48.484375 
Q 22.953125 48.484375 18.875 42.84375 
Q 14.796875 37.203125 14.796875 27.296875 
" id="DejaVuSans-64"/>
      <path d="M 4.203125 54.6875 
L 13.1875 54.6875 
L 24.421875 12.015625 
L 35.59375 54.6875 
L 46.1875 54.6875 
L 57.421875 12.015625 
L 68.609375 54.6875 
L 77.59375 54.6875 
L 63.28125 0 
L 52.6875 0 
L 40.921875 44.828125 
L 29.109375 0 
L 18.5 0 
z
" id="DejaVuSans-77"/>
      <path d="M 34.28125 27.484375 
Q 23.390625 27.484375 19.1875 25 
Q 14.984375 22.515625 14.984375 16.5 
Q 14.984375 11.71875 18.140625 8.90625 
Q 21.296875 6.109375 26.703125 6.109375 
Q 34.1875 6.109375 38.703125 11.40625 
Q 43.21875 16.703125 43.21875 25.484375 
L 43.21875 27.484375 
z
M 52.203125 31.203125 
L 52.203125 0 
L 43.21875 0 
L 43.21875 8.296875 
Q 40.140625 3.328125 35.546875 0.953125 
Q 30.953125 -1.421875 24.3125 -1.421875 
Q 15.921875 -1.421875 10.953125 3.296875 
Q 6 8.015625 6 15.921875 
Q 6 25.140625 12.171875 29.828125 
Q 18.359375 34.515625 30.609375 34.515625 
L 43.21875 34.515625 
L 43.21875 35.40625 
Q 43.21875 41.609375 39.140625 45 
Q 35.0625 48.390625 27.6875 48.390625 
Q 23 48.390625 18.546875 47.265625 
Q 14.109375 46.140625 10.015625 43.890625 
L 10.015625 52.203125 
Q 14.9375 54.109375 19.578125 55.046875 
Q 24.21875 56 28.609375 56 
Q 40.484375 56 46.34375 49.84375 
Q 52.203125 43.703125 52.203125 31.203125 
" id="DejaVuSans-61"/>
      <path d="M 14.796875 27.296875 
Q 14.796875 17.390625 18.875 11.75 
Q 22.953125 6.109375 30.078125 6.109375 
Q 37.203125 6.109375 41.296875 11.75 
Q 45.40625 17.390625 45.40625 27.296875 
Q 45.40625 37.203125 41.296875 42.84375 
Q 37.203125 48.484375 30.078125 48.484375 
Q 22.953125 48.484375 18.875 42.84375 
Q 14.796875 37.203125 14.796875 27.296875 
M 45.40625 8.203125 
Q 42.578125 3.328125 38.25 0.953125 
Q 33.9375 -1.421875 27.875 -1.421875 
Q 17.96875 -1.421875 11.734375 6.484375 
Q 5.515625 14.40625 5.515625 27.296875 
Q 5.515625 40.1875 11.734375 48.09375 
Q 17.96875 56 27.875 56 
Q 33.9375 56 38.25 53.625 
Q 42.578125 51.265625 45.40625 46.390625 
L 45.40625 54.6875 
L 54.390625 54.6875 
L 54.390625 -20.796875 
L 45.40625 -20.796875 
z
" id="DejaVuSans-71"/>
      <path d="M 18.109375 8.203125 
L 18.109375 -20.796875 
L 9.078125 -20.796875 
L 9.078125 54.6875 
L 18.109375 54.6875 
L 18.109375 46.390625 
Q 20.953125 51.265625 25.265625 53.625 
Q 29.59375 56 35.59375 56 
Q 45.5625 56 51.78125 48.09375 
Q 58.015625 40.1875 58.015625 27.296875 
Q 58.015625 14.40625 51.78125 6.484375 
Q 45.5625 -1.421875 35.59375 -1.421875 
Q 29.59375 -1.421875 25.265625 0.953125 
Q 20.953125 3.328125 18.109375 8.203125 
M 48.6875 27.296875 
Q 48.6875 37.203125 44.609375 42.84375 
Q 40.53125 48.484375 33.40625 48.484375 
Q 26.265625 48.484375 22.1875 42.84375 
Q 18.109375 37.203125 18.109375 27.296875 
Q 18.109375 17.390625 22.1875 11.75 
Q 26.265625 6.109375 33.40625 6.109375 
Q 40.53125 6.109375 44.609375 11.75 
Q 48.6875 17.390625 48.6875 27.296875 
" id="DejaVuSans-70"/>
     </defs>
     <g transform="translate(25.432812 279.366281)rotate(-90)scale(0.1 -0.1)">
      <use xlink:href="#DejaVuSans-53"/>
      <use x="63.476562" xlink:href="#DejaVuSans-75"/>
      <use x="126.855469" xlink:href="#DejaVuSans-63"/>
      <use x="181.835938" xlink:href="#DejaVuSans-63"/>
      <use x="236.816406" xlink:href="#DejaVuSans-65"/>
      <use x="298.339844" xlink:href="#DejaVuSans-73"/>
      <use x="350.439453" xlink:href="#DejaVuSans-73"/>
      <use x="402.539062" xlink:href="#DejaVuSans-66"/>
      <use x="437.744141" xlink:href="#DejaVuSans-75"/>
      <use x="501.123047" xlink:href="#DejaVuSans-6c"/>
      <use x="528.90625" xlink:href="#DejaVuSans-20"/>
      <use x="560.693359" xlink:href="#DejaVuSans-64"/>
      <use x="624.169922" xlink:href="#DejaVuSans-6f"/>
      <use x="685.351562" xlink:href="#DejaVuSans-77"/>
      <use x="767.138672" xlink:href="#DejaVuSans-6e"/>
      <use x="830.517578" xlink:href="#DejaVuSans-6c"/>
      <use x="858.300781" xlink:href="#DejaVuSans-6f"/>
      <use x="919.482422" xlink:href="#DejaVuSans-61"/>
      <use x="980.761719" xlink:href="#DejaVuSans-64"/>
      <use x="1044.238281" xlink:href="#DejaVuSans-20"/>
      <use x="1076.025391" xlink:href="#DejaVuSans-72"/>
      <use x="1117.107422" xlink:href="#DejaVuSans-65"/>
      <use x="1178.630859" xlink:href="#DejaVuSans-71"/>
      <use x="1242.107422" xlink:href="#DejaVuSans-75"/>
      <use x="1305.486328" xlink:href="#DejaVuSans-65"/>
      <use x="1367.009766" xlink:href="#DejaVuSans-73"/>
      <use x="1419.109375" xlink:href="#DejaVuSans-74"/>
      <use x="1458.318359" xlink:href="#DejaVuSans-73"/>
      <use x="1510.417969" xlink:href="#DejaVuSans-20"/>
      <use x="1542.205078" xlink:href="#DejaVuSans-70"/>
      <use x="1605.681641" xlink:href="#DejaVuSans-65"/>
      <use x="1667.205078" xlink:href="#DejaVuSans-72"/>
      <use x="1708.318359" xlink:href="#DejaVuSans-20"/>
      <use x="1740.105469" xlink:href="#DejaVuSans-73"/>
      <use x="1792.205078" xlink:href="#DejaVuSans-65"/>
      <use x="1853.728516" xlink:href="#DejaVuSans-63"/>
      <use x="1908.708984" xlink:href="#DejaVuSans-6f"/>
      <use x="1969.890625" xlink:href="#DejaVuSans-6e"/>
      <use x="2033.269531" xlink:href="#DejaVuSans-64"/>
     </g>
    </g>
   </g>
   <g id="line2d_27">
    <path clip-path="url(#p297f28b2c3)" d="M 57.6 295.488 
L 57.95712 295.484296 
L 63.67104 289.974638 
L 64.02816 289.224854 
L 64.38528 289.059264 
L 64.7424 288.759572 
L 65.09952 288.07795 
L 65.45664 288.033126 
L 65.81376 287.442633 
L 66.17088 287.378176 
L 66.528 286.742118 
L 66.88512 286.431313 
L 67.24224 286.278689 
L 67.59936 285.490008 
L 67.95648 285.647448 
L 68.3136 284.929151 
L 68.67072 285.07733 
L 69.02784 284.121947 
L 69.74208 283.455143 
L 70.0992 283.710751 
L 70.45632 282.71499 
L 70.81344 283.072841 
L 71.17056 282.580888 
L 71.52768 282.280455 
L 71.8848 281.459545 
L 72.24192 281.300623 
L 72.95616 280.74273 
L 73.31328 280.687163 
L 73.6704 279.411344 
L 74.02752 279.156106 
L 74.38464 278.608956 
L 74.74176 279.15981 
L 75.09888 278.571911 
L 75.456 277.738406 
L 75.81312 277.594302 
L 76.17024 277.575038 
L 76.52736 277.355734 
L 76.88448 275.987303 
L 77.2416 276.29144 
L 77.59872 276.086953 
L 77.95584 275.583145 
L 78.31296 275.644269 
L 78.67008 274.809652 
L 79.0272 275.025623 
L 79.38432 273.906503 
L 80.09856 273.416031 
L 80.45568 273.36528 
L 80.8128 272.144286 
L 81.16992 272.137248 
L 81.52704 272.674766 
L 81.88416 270.808825 
L 82.24128 270.353176 
L 82.5984 270.985528 
L 82.95552 270.076081 
L 83.66976 269.111808 
L 84.02688 269.686001 
L 84.74112 269.175895 
L 85.09824 267.736709 
L 85.45536 268.838048 
L 85.81248 267.758565 
L 86.1696 267.367744 
L 86.52672 266.394209 
L 87.24096 265.499209 
L 87.59808 265.717403 
L 87.9552 264.675335 
L 88.31232 265.220633 
L 88.66944 264.855373 
L 89.02656 263.876281 
L 89.38368 263.591408 
L 89.7408 263.611782 
L 90.09792 262.576383 
L 90.45504 262.864591 
L 90.81216 261.956255 
L 91.16928 261.793999 
L 91.5264 262.932012 
L 91.88352 260.910113 
L 92.24064 260.921226 
L 92.59776 260.614496 
L 92.95488 259.304966 
L 93.312 261.243885 
L 93.66912 259.069732 
L 94.38336 257.807249 
L 95.45472 258.865246 
L 95.81184 257.026717 
L 96.16896 256.033549 
L 96.8832 255.199303 
L 97.24032 255.912043 
L 97.59744 255.959089 
L 97.95456 254.773659 
L 98.31168 255.80239 
L 98.6688 253.468204 
L 99.02592 254.095371 
L 99.38304 252.86771 
L 99.74016 254.529164 
L 100.09728 253.635646 
L 100.4544 253.501915 
L 100.81152 251.244411 
L 101.16864 251.521506 
L 101.52576 250.918788 
L 101.88288 252.836592 
L 102.24 250.781353 
L 102.59712 251.927145 
L 103.31136 251.249968 
L 104.0256 247.812591 
L 104.38272 250.673553 
L 104.73984 247.72035 
L 105.09696 249.721874 
L 105.45408 249.156202 
L 105.8112 247.606993 
L 106.16832 248.639058 
L 106.52544 246.832018 
L 107.23968 245.954059 
L 107.5968 246.876842 
L 107.95392 247.261736 
L 108.31104 244.288159 
L 108.66816 243.057164 
L 109.73952 243.85807 
L 110.09664 245.163895 
L 110.81088 241.843209 
L 111.168 243.96624 
L 111.52512 241.004888 
L 111.88224 241.173811 
L 112.23936 242.809705 
L 112.59648 242.147346 
L 112.9536 239.973934 
L 113.31072 239.196736 
L 113.66784 241.75282 
L 114.02496 238.249503 
L 114.38208 239.876136 
L 114.7392 237.345983 
L 115.09632 237.744584 
L 115.45344 239.942075 
L 115.81056 238.011676 
L 116.16768 238.341745 
L 116.5248 238.88519 
L 117.23904 236.627316 
L 117.59616 237.082966 
L 117.95328 235.707496 
L 118.3104 232.962485 
L 118.66752 234.680988 
L 119.02464 235.041433 
L 119.73888 233.508894 
L 120.096 234.439457 
L 121.16736 230.114118 
L 121.52448 230.854271 
L 121.8816 231.032456 
L 122.23872 232.901731 
L 122.59584 230.694609 
L 122.95296 231.105434 
L 123.31008 227.698063 
L 123.6672 227.86958 
L 124.02432 227.338359 
L 124.38144 228.259661 
L 124.73856 230.794259 
L 125.09568 227.311317 
L 125.4528 230.333793 
L 125.80992 225.595777 
L 126.16704 225.357209 
L 126.52416 227.962933 
L 126.88128 227.113128 
L 127.2384 227.517285 
L 127.59552 224.381822 
L 127.95264 227.276495 
L 128.30976 227.559887 
L 128.66688 224.247721 
L 129.024 226.315185 
L 129.38112 226.233316 
L 130.09536 221.161157 
L 130.45248 222.422528 
L 130.8096 222.051711 
L 131.16672 223.860603 
L 131.52384 223.795775 
L 132.23808 221.289331 
L 132.5952 221.72757 
L 132.95232 218.026435 
L 133.30944 220.329133 
L 133.66656 221.138559 
L 134.02368 216.586878 
L 134.3808 221.323412 
L 134.73792 219.68863 
L 135.09504 216.415361 
L 135.45216 218.152387 
L 135.80928 218.812523 
L 136.1664 216.241621 
L 136.52352 219.450062 
L 136.88064 218.355762 
L 137.23776 215.988606 
L 137.59488 217.222194 
L 138.30912 217.850472 
L 138.66624 216.810998 
L 139.02336 215.120649 
L 139.38048 215.295129 
L 139.7376 216.577617 
L 140.09472 215.837464 
L 140.45184 211.863309 
L 140.80896 211.900354 
L 141.16608 211.406548 
L 141.5232 212.952793 
L 141.88032 211.33357 
L 142.23744 213.808526 
L 142.59456 213.468456 
L 142.95168 211.690681 
L 143.3088 211.967034 
L 143.66592 208.874173 
L 144.02304 210.320768 
L 144.38016 208.883434 
L 144.73728 205.741673 
L 145.0944 207.615024 
L 145.45152 210.85273 
L 145.80864 209.213132 
L 146.16576 208.180696 
L 146.52288 204.218025 
L 146.88 208.900104 
L 147.23712 206.424037 
L 147.59424 208.446307 
L 147.95136 202.791805 
L 148.30848 205.552746 
L 148.6656 202.010161 
L 149.02272 202.863671 
L 149.37984 204.399544 
L 150.09408 201.129239 
L 150.4512 201.322982 
L 150.80832 202.983326 
L 151.16544 200.555046 
L 151.52256 199.98678 
L 151.87968 201.224444 
L 152.2368 204.329159 
L 152.59392 202.72179 
L 152.95104 202.669187 
L 153.30816 199.929732 
L 153.66528 199.732283 
L 154.0224 201.706395 
L 154.37952 198.989537 
L 154.73664 195.176156 
L 155.09376 198.097871 
L 155.45088 199.672271 
L 155.808 197.075067 
L 156.16512 196.293424 
L 156.52224 195.200235 
L 156.87936 194.483791 
L 157.23648 197.331417 
L 157.5936 197.849302 
L 157.95072 193.251314 
L 158.30784 197.339567 
L 158.66496 198.024893 
L 159.02208 193.238719 
L 159.3792 190.940837 
L 159.73632 196.609786 
L 160.09344 196.865765 
L 160.45056 191.599121 
L 160.80768 192.001797 
L 161.1648 191.695067 
L 161.52192 193.162036 
L 161.87904 188.637027 
L 162.23616 193.892187 
L 162.9504 192.507827 
L 163.30752 190.844891 
L 163.66464 191.183479 
L 164.02176 186.070941 
L 164.736 188.811508 
L 165.09312 185.730501 
L 165.80736 188.715562 
L 166.16448 188.062464 
L 166.5216 186.379153 
L 166.87872 190.281071 
L 167.23584 183.567461 
L 167.59296 182.027883 
L 167.95008 186.441759 
L 168.3072 183.828996 
L 168.66432 184.612862 
L 169.02144 181.067315 
L 169.73568 182.02529 
L 170.0928 179.898554 
L 170.44992 185.913501 
L 171.16416 178.208576 
L 171.52128 182.529098 
L 171.8784 183.675631 
L 172.23552 178.913536 
L 172.59264 184.836612 
L 172.94976 176.668998 
L 173.30688 182.500574 
L 173.664 178.147452 
L 174.02112 180.667973 
L 174.37824 176.727899 
L 174.73536 178.064472 
L 175.09248 176.502667 
L 175.4496 177.919627 
L 175.80672 174.704148 
L 176.16384 181.148072 
L 176.52096 178.997998 
L 176.87808 178.421953 
L 177.2352 179.35585 
L 177.59232 173.519088 
L 177.94944 175.156093 
L 178.30656 171.58128 
L 178.66368 177.419894 
L 179.0208 170.555142 
L 179.37792 173.909539 
L 180.09216 170.285827 
L 180.44928 175.289824 
L 181.16352 169.725711 
L 181.52064 172.069899 
L 181.87776 170.6033 
L 182.23488 168.523611 
L 182.592 169.048164 
L 182.94912 168.877388 
L 183.30624 172.723368 
L 183.66336 170.378068 
L 184.02048 171.473109 
L 184.3776 168.24948 
L 184.73472 169.37638 
L 185.09184 172.215115 
L 185.44896 170.476237 
L 185.80608 171.68056 
L 186.1632 164.613543 
L 186.52032 162.151924 
L 186.87744 166.719164 
L 187.23456 168.781812 
L 187.59168 163.136201 
L 187.9488 164.106402 
L 188.30592 167.095538 
L 188.66304 168.409513 
L 189.02016 166.764358 
L 189.37728 163.456638 
L 189.7344 166.801403 
L 190.09152 163.62445 
L 190.44864 167.300025 
L 190.80576 162.031528 
L 191.16288 165.416302 
L 191.52 157.618764 
L 191.87712 165.635236 
L 192.23424 160.23449 
L 192.59136 160.100388 
L 192.94848 157.422057 
L 193.3056 157.322777 
L 193.66272 158.41041 
L 194.01984 154.424401 
L 194.37696 163.767072 
L 194.73408 158.025515 
L 195.0912 161.799629 
L 195.44832 159.799956 
L 195.80544 154.961549 
L 196.16256 155.281615 
L 196.51968 158.520803 
L 196.8768 156.984189 
L 197.23392 157.510594 
L 197.59104 156.699315 
L 197.94816 151.432301 
L 198.6624 157.334632 
L 199.01952 158.647496 
L 199.37664 152.422876 
L 199.73376 157.706931 
L 200.09088 148.440942 
L 200.448 156.17254 
L 200.80512 150.35393 
L 201.16224 156.808597 
L 201.51936 149.345944 
L 201.87648 148.76249 
L 202.2336 154.573691 
L 202.59072 145.697041 
L 202.94784 148.461687 
L 203.30496 145.877819 
L 203.66208 146.316428 
L 204.0192 147.875269 
L 204.37632 148.110873 
L 204.73344 144.760181 
L 205.09056 149.373357 
L 205.44768 151.541583 
L 205.8048 150.472102 
L 206.16192 143.293211 
L 206.51904 148.073829 
L 206.87616 143.470285 
L 207.23328 146.636865 
L 207.5904 147.217726 
L 207.94752 141.721775 
L 208.30464 141.716959 
L 208.66176 146.792082 
L 209.01888 143.416199 
L 209.376 138.560011 
L 209.73312 139.615043 
L 210.09024 146.988049 
L 210.44736 147.616327 
L 210.80448 143.932602 
L 211.1616 146.098606 
L 211.51872 139.692467 
L 211.87584 146.925443 
L 212.23296 140.438917 
L 212.59008 142.904612 
L 212.9472 143.984835 
L 213.30432 139.769149 
L 213.66144 137.348649 
L 214.01856 138.769313 
L 214.37568 141.347624 
L 214.7328 135.519012 
L 215.08992 133.450806 
L 215.44704 137.277523 
L 215.80416 136.780754 
L 216.16128 139.91029 
L 216.5184 140.551533 
L 216.87552 136.466985 
L 217.23264 136.27213 
L 217.58976 138.377751 
L 217.94688 138.492219 
L 218.304 138.456656 
L 218.66112 133.148151 
L 219.01824 139.210515 
L 219.37536 134.611787 
L 219.73248 138.541118 
L 220.44672 134.312466 
L 220.80384 137.73873 
L 221.16096 129.482949 
L 221.51808 129.059899 
L 221.8752 132.120161 
L 222.23232 132.92366 
L 222.58944 125.43026 
L 222.94656 124.448946 
L 223.30368 134.666984 
L 223.6608 130.460929 
L 224.01792 133.754943 
L 224.37504 133.201125 
L 224.73216 131.056608 
L 225.08928 126.180415 
L 225.4464 127.317687 
L 225.80352 133.212609 
L 226.16064 126.772019 
L 226.51776 122.684878 
L 226.87488 126.313776 
L 227.232 125.721802 
L 227.58912 129.832281 
L 228.30336 121.610582 
L 228.66048 128.785768 
L 229.0176 127.404001 
L 229.37472 119.523854 
L 229.73184 128.51386 
L 230.44608 119.585719 
L 230.8032 120.961929 
L 231.16032 125.420258 
L 231.51744 124.738635 
L 231.87456 119.178597 
L 232.23168 117.587157 
L 232.5888 128.743537 
L 232.94592 117.942786 
L 233.30304 125.91147 
L 233.66016 126.64014 
L 234.01728 127.66035 
L 234.3744 123.824743 
L 234.73152 117.936859 
L 235.08864 121.127889 
L 235.80288 116.067584 
L 236.16 122.080679 
L 236.51712 118.032064 
L 236.87424 117.265239 
L 237.23136 119.052275 
L 237.58848 119.138219 
L 237.9456 123.01865 
L 238.30272 119.999878 
L 238.65984 126.120773 
L 239.01696 120.828568 
L 239.37408 123.703607 
L 239.7312 117.659765 
L 240.08832 123.36613 
L 240.44544 119.13081 
L 240.80256 119.004117 
L 241.15968 115.861986 
L 241.5168 115.308909 
L 241.87392 112.249388 
L 242.23104 112.902485 
L 242.58816 124.629354 
L 242.94528 115.798269 
L 243.3024 118.030582 
L 243.65952 122.965306 
L 244.01664 119.020417 
L 244.37376 112.186412 
L 244.73088 116.482485 
L 245.088 111.409955 
L 245.44512 119.693148 
L 245.80224 112.059719 
L 246.15936 111.905983 
L 246.51648 120.900435 
L 246.8736 113.874538 
L 247.23072 118.747027 
L 247.58784 112.659472 
L 247.94496 119.678701 
L 248.30208 112.916933 
L 248.6592 111.368465 
L 249.01632 114.693226 
L 249.37344 121.150116 
L 249.73056 120.901917 
L 250.80192 114.054575 
L 251.15904 114.195345 
L 251.51616 116.873677 
L 251.87328 113.83416 
L 252.2304 117.294504 
L 252.58752 112.828026 
L 252.94464 111.34809 
L 253.30176 113.377398 
L 253.65888 107.458397 
L 254.016 112.000447 
L 254.37312 119.685369 
L 254.73024 113.242185 
L 255.08736 114.355378 
L 255.44448 119.157482 
L 255.8016 108.359324 
L 256.15872 106.204805 
L 256.51584 113.911212 
L 256.87296 107.089062 
L 257.5872 110.709069 
L 257.94432 108.029997 
L 258.30144 108.416373 
L 258.65856 105.037527 
L 259.01568 110.008184 
L 259.3728 107.375047 
L 259.72992 112.69059 
L 260.08704 108.997975 
L 260.44416 107.954796 
L 260.80128 116.062027 
L 261.1584 113.640416 
L 261.51552 113.069927 
L 262.22976 104.510751 
L 262.58688 108.903511 
L 262.944 109.798511 
L 263.30112 114.135703 
L 263.65824 106.922361 
L 264.01536 107.076096 
L 264.37248 105.742858 
L 264.7296 115.220001 
L 265.08672 113.336649 
L 265.80096 105.425014 
L 266.15808 111.72891 
L 266.5152 113.478901 
L 266.87232 111.697422 
L 267.58656 101.456416 
L 267.94368 104.417769 
L 268.3008 109.361013 
L 268.65792 110.136729 
L 269.01504 106.680829 
L 269.37216 107.060167 
L 269.72928 102.052465 
L 270.0864 103.866544 
L 270.44352 101.931329 
L 270.80064 112.875813 
L 271.15776 101.742401 
L 271.51488 103.878398 
L 271.872 102.08988 
L 272.22912 108.037776 
L 272.94336 112.926194 
L 273.30048 105.244606 
L 273.6576 107.146851 
L 274.01472 106.210362 
L 274.37184 100.192451 
L 274.72896 110.799458 
L 275.4432 100.060572 
L 275.80032 110.012999 
L 276.15744 102.024311 
L 276.51456 103.244563 
L 276.87168 99.680493 
L 277.2288 110.550888 
L 277.58592 97.678228 
L 277.94304 109.369904 
L 278.30016 103.436085 
L 278.65728 109.99707 
L 279.0144 103.902477 
L 279.37152 102.735569 
L 279.72864 97.925316 
L 280.08576 97.102183 
L 280.44288 107.959612 
L 280.8 102.402908 
L 281.15712 108.298571 
L 281.51424 109.791843 
L 281.87136 95.678926 
L 282.22848 97.93717 
L 282.5856 97.18257 
L 282.94272 109.106145 
L 283.29984 97.554128 
L 283.65696 99.456003 
L 284.01408 97.421138 
L 284.3712 98.946268 
L 284.72832 96.387591 
L 285.08544 98.182406 
L 285.44256 95.535933 
L 285.79968 102.571091 
L 286.1568 94.569808 
L 286.51392 106.69009 
L 286.87104 103.378295 
L 287.22816 96.466866 
L 287.58528 100.58142 
L 287.9424 100.874814 
L 288.29952 95.891562 
L 288.65664 97.644888 
L 289.01376 97.966065 
L 289.37088 94.236776 
L 289.728 96.846945 
L 290.08512 96.912884 
L 290.44224 103.231598 
L 290.79936 97.573391 
L 291.15648 95.872299 
L 291.5136 93.327699 
L 291.87072 92.550501 
L 292.58496 102.5622 
L 292.94208 100.903709 
L 293.2992 94.703909 
L 293.65632 97.107369 
L 294.01344 101.908732 
L 294.37056 93.388452 
L 294.72768 101.869464 
L 295.0848 95.45036 
L 295.44192 102.535898 
L 295.79904 96.497613 
L 296.15616 102.628881 
L 296.51328 101.682389 
L 296.8704 90.934241 
L 297.22752 97.969029 
L 297.58464 101.881689 
L 297.94176 92.009278 
L 298.29888 90.953134 
L 298.656 93.163221 
L 299.01312 94.306049 
L 299.37024 94.770219 
L 299.72736 96.930295 
L 300.08448 102.23917 
L 300.4416 102.521451 
L 300.79872 97.463369 
L 301.15584 90.641218 
L 301.51296 93.039491 
L 301.87008 92.59088 
L 302.2272 99.825338 
L 302.58432 91.896663 
L 302.94144 93.705555 
L 303.29856 94.685757 
L 303.65568 99.052215 
L 304.0128 92.024096 
L 304.36992 98.147584 
L 305.08416 88.130329 
L 305.44128 93.224715 
L 305.7984 92.395284 
L 306.15552 88.957166 
L 306.51264 89.605448 
L 306.86976 99.115932 
L 307.584 87.811374 
L 307.94112 100.440651 
L 308.65536 93.223974 
L 309.01248 92.156716 
L 309.3696 95.096213 
L 309.72672 96.919182 
L 310.08384 92.224138 
L 310.44096 85.973586 
L 310.79808 86.908595 
L 311.1552 94.230108 
L 311.51232 89.848091 
L 311.86944 90.34449 
L 312.22656 85.896163 
L 312.58368 94.969149 
L 312.9408 93.602571 
L 313.29792 96.343137 
L 313.65504 90.018497 
L 314.36928 83.573831 
L 314.7264 83.892416 
L 315.08352 85.490894 
L 315.44064 93.210267 
L 315.79776 96.947336 
L 316.15488 93.758158 
L 316.512 95.113994 
L 316.86912 92.442701 
L 317.22624 84.527732 
L 317.58336 93.724818 
L 317.94048 96.071599 
L 318.2976 89.102752 
L 318.65472 95.700412 
L 319.01184 95.702264 
L 319.36896 95.299588 
L 319.72608 90.503412 
L 320.0832 95.303663 
L 320.44032 85.519048 
L 320.79744 86.807463 
L 321.15456 91.253937 
L 321.51168 93.675549 
L 321.8688 92.113374 
L 322.22592 82.193916 
L 322.58304 95.099547 
L 322.94016 91.893328 
L 323.29728 94.866536 
L 323.6544 91.022778 
L 324.36864 88.50485 
L 324.72576 92.844636 
L 325.08288 84.938558 
L 325.44 83.273769 
L 325.79712 80.577656 
L 326.15424 93.316956 
L 326.51136 92.564208 
L 326.86848 85.349383 
L 327.2256 80.585436 
L 327.58272 91.183552 
L 327.93984 93.862624 
L 328.29696 82.102786 
L 328.65408 80.901427 
L 329.0112 86.045453 
L 329.72544 90.455253 
L 330.08256 91.086495 
L 330.43968 84.060969 
L 330.7968 80.385394 
L 331.15392 78.783211 
L 331.51104 89.586555 
L 331.86816 92.620145 
L 332.22528 77.43886 
L 332.5824 87.097152 
L 332.93952 86.750784 
L 333.65376 77.012846 
L 334.01088 79.560039 
L 334.368 80.007909 
L 334.72512 88.058091 
L 335.08224 89.23389 
L 335.43936 80.03384 
L 335.79648 89.928478 
L 336.1536 85.043765 
L 336.51072 83.649773 
L 336.86784 89.911808 
L 337.22496 78.406467 
L 337.58208 83.917236 
L 337.9392 82.721062 
L 338.29632 75.856681 
L 338.65344 82.379881 
L 339.01056 77.703359 
L 339.7248 87.292748 
L 340.08192 77.471459 
L 340.43904 81.520073 
L 340.79616 81.109618 
L 341.15328 79.923447 
L 341.5104 82.662161 
L 341.86752 86.444054 
L 342.22464 85.337159 
L 342.58176 79.209225 
L 342.93888 79.574857 
L 343.296 78.260881 
L 343.65312 74.112617 
L 344.01024 87.404253 
L 344.36736 74.576787 
L 344.72448 77.53036 
L 345.0816 77.367363 
L 345.79584 73.93332 
L 346.15296 78.862858 
L 346.51008 76.246391 
L 346.8672 83.732012 
L 347.22432 85.701308 
L 347.58144 80.016059 
L 347.93856 85.887272 
L 348.6528 74.547151 
L 349.00992 73.348014 
L 349.36704 72.556369 
L 349.72416 81.518592 
L 350.08128 82.742548 
L 350.4384 85.037097 
L 350.79552 80.931063 
L 351.15264 84.187662 
L 351.50976 73.399877 
L 351.86688 81.667141 
L 352.224 78.860264 
L 352.58112 74.457503 
L 352.93824 74.058902 
L 353.29536 74.512699 
L 353.65248 84.588115 
L 354.0096 80.227214 
L 354.72384 84.720735 
L 355.08096 78.216798 
L 355.43808 77.297349 
L 355.7952 84.823719 
L 356.15232 83.859446 
L 356.50944 76.67648 
L 356.86656 76.961724 
L 357.22368 84.249526 
L 357.93792 68.775217 
L 358.29504 74.067052 
L 358.65216 77.534805 
L 359.00928 78.108998 
L 359.3664 72.583782 
L 359.72352 72.407079 
L 360.08064 77.236966 
L 360.43776 77.031368 
L 360.79488 74.112246 
L 361.152 81.521555 
L 361.50912 80.66323 
L 361.86624 74.30599 
L 362.22336 81.678995 
L 362.58048 68.212879 
L 362.9376 81.129252 
L 363.65184 72.070343 
L 364.00896 82.331352 
L 364.36608 71.190531 
L 364.7232 73.903314 
L 365.08032 70.743031 
L 365.43744 74.599384 
L 365.79456 72.224078 
L 366.15168 82.13057 
L 366.5088 81.993134 
L 366.86592 77.075822 
L 367.22304 76.17934 
L 367.58016 79.664134 
L 367.93728 77.204737 
L 368.2944 70.357026 
L 368.65152 79.298133 
L 369.00864 67.021151 
L 369.36576 80.055326 
L 369.72288 72.388556 
L 370.08 72.619345 
L 370.43712 78.511303 
L 370.79424 66.496228 
L 371.15136 77.426264 
L 371.50848 68.962663 
L 371.8656 74.540853 
L 372.57984 65.973527 
L 372.93696 70.325538 
L 373.29408 65.73607 
L 373.6512 65.202997 
L 374.00832 65.823866 
L 374.36544 74.282281 
L 374.72256 78.031575 
L 375.07968 76.055611 
L 375.4368 69.388677 
L 375.79392 72.89718 
L 376.15104 74.35563 
L 376.50816 72.603045 
L 376.86528 72.154434 
L 377.2224 76.324555 
L 377.57952 63.777518 
L 377.93664 74.580861 
L 378.29376 68.771883 
L 378.65088 71.248321 
L 379.008 76.524597 
L 379.36512 72.329285 
L 379.72224 64.429504 
L 380.07936 70.07104 
L 380.43648 70.833791 
L 380.7936 77.10731 
L 381.15072 62.452429 
L 381.50784 77.608154 
L 381.86496 62.595421 
L 382.22208 71.637661 
L 382.5792 61.868234 
L 382.93632 66.988552 
L 383.29344 61.222545 
L 383.65056 61.47556 
L 384.00768 66.718866 
L 384.3648 63.531911 
L 384.72192 65.946114 
L 385.07904 74.827209 
L 385.43616 72.679357 
L 385.79328 74.358964 
L 386.1504 60.121577 
L 386.50752 60.624273 
L 386.86464 71.540974 
L 387.936 59.397723 
L 388.29312 66.426584 
L 388.65024 68.690755 
L 389.00736 62.918822 
L 389.36448 67.057455 
L 389.7216 62.308325 
L 390.07872 69.836548 
L 390.43584 73.818482 
L 390.79296 71.691375 
L 391.15008 59.923017 
L 391.5072 59.084325 
L 391.86432 61.356276 
L 392.22144 66.142821 
L 392.57856 68.553319 
L 392.93568 64.786615 
L 393.2928 66.515491 
L 393.64992 64.728455 
L 394.00704 59.103959 
L 394.72128 60.92841 
L 395.0784 73.115744 
L 395.43552 72.147396 
L 395.79264 66.54772 
L 396.50688 62.060126 
L 396.864 60.600194 
L 397.22112 60.67984 
L 397.57824 62.719892 
L 397.93536 63.287046 
L 398.29248 61.909724 
L 398.6496 62.56097 
L 399.00672 57.38916 
L 399.36384 57.015379 
L 399.72096 57.481401 
L 400.07808 60.502026 
L 400.4352 66.064657 
L 400.79232 68.385877 
L 401.14944 55.597679 
L 401.50656 65.947225 
L 401.86368 61.837857 
L 402.57792 69.033789 
L 402.93504 58.613487 
L 403.29216 58.712767 
L 403.64928 56.297083 
L 404.0064 69.094172 
L 404.36352 65.515655 
L 404.72064 64.181675 
L 405.07776 55.86366 
L 405.43488 57.874446 
L 405.792 57.246909 
L 406.14912 70.197363 
L 406.50624 55.160551 
L 406.86336 60.310134 
L 407.22048 56.496013 
L 407.5776 59.734089 
L 407.93472 60.80357 
L 408.29184 54.795291 
L 408.64896 70.162541 
L 409.00608 65.155951 
L 409.3632 53.568 
L 409.72032 60.860989 
L 410.07744 57.426575 
L 410.79168 66.008349 
L 411.1488 55.112023 
L 411.50592 64.552122 
L 411.86304 58.657941 
L 412.22016 65.021108 
L 412.57728 67.465317 
L 412.9344 54.669709 
L 413.29152 63.139978 
L 413.64864 68.132492 
L 414.00576 60.021186 
L 414.36288 56.108896 
L 414.72 60.917297 
L 414.72 60.917297 
" style="fill:none;stroke:#000080;stroke-linecap:square;stroke-width:0.5;"/>
   </g>
   <g id="patch_3">
    <path d="M 57.6 307.584 
L 57.6 41.472 
" style="fill:none;stroke:#000000;stroke-linecap:square;stroke-linejoin:miter;stroke-width:0.8;"/>
   </g>
   <g id="patch_4">
    <path d="M 414.72 307.584 
L 414.72 41.472 
" style="fill:none;stroke:#000000;stroke-linecap:square;stroke-linejoin:miter;stroke-width:0.8;"/>
   </g>
   <g id="patch_5">
    <path d="M 57.6 307.584 
L 414.72 307.584 
" style="fill:none;stroke:#000000;stroke-linecap:square;stroke-linejoin:miter;stroke-width:0.8;"/>
   </g>
   <g id="patch_6">
    <path d="M 57.6 41.472 
L 414.72 41.472 
" style="fill:none;stroke:#000000;stroke-linecap:square;stroke-linejoin:miter;stroke-width:0.8;"/>
   </g>
   <g id="text_16">
    <!-- Test -->
    <defs>
     <path d="M -0.296875 72.90625 
L 61.375 72.90625 
L 61.375 64.59375 
L 35.5 64.59375 
L 35.5 0 
L 25.59375 0 
L 25.59375 64.59375 
L -0.296875 64.59375 
z
" id="DejaVuSans-54"/>
    </defs>
    <g transform="translate(223.341563 35.472)scale(0.12 -0.12)">
     <use xlink:href="#DejaVuSans-54"/>
     <use x="60.818359" xlink:href="#DejaVuSans-65"/>
     <use x="122.341797" xlink:href="#DejaVuSans-73"/>
     <use x="174.441406" xlink:href="#DejaVuSans-74"/>
    </g>
   </g>
   <g id="legend_1">
    <g id="patch_7">
     <path d="M 64.6 64.150125 
L 306.276563 64.150125 
Q 308.276563 64.150125 308.276563 62.150125 
L 308.276563 48.472 
Q 308.276563 46.472 306.276563 46.472 
L 64.6 46.472 
Q 62.6 46.472 62.6 48.472 
L 62.6 62.150125 
Q 62.6 64.150125 64.6 64.150125 
z
" style="fill:#ffffff;opacity:0.8;stroke:#cccccc;stroke-linejoin:miter;"/>
    </g>
    <g id="line2d_28">
     <path d="M 66.6 54.570438 
L 86.6 54.570438 
" style="fill:none;stroke:#000080;stroke-linecap:square;stroke-width:0.5;"/>
    </g>
    <g id="line2d_29"/>
    <g id="text_17">
     <!-- Successful download requests per second -->
     <g transform="translate(94.6 58.070438)scale(0.1 -0.1)">
      <use xlink:href="#DejaVuSans-53"/>
      <use x="63.476562" xlink:href="#DejaVuSans-75"/>
      <use x="126.855469" xlink:href="#DejaVuSans-63"/>
      <use x="181.835938" xlink:href="#DejaVuSans-63"/>
      <use x="236.816406" xlink:href="#DejaVuSans-65"/>
      <use x="298.339844" xlink:href="#DejaVuSans-73"/>
      <use x="350.439453" xlink:href="#DejaVuSans-73"/>
      <use x="402.539062" xlink:href="#DejaVuSans-66"/>
      <use x="437.744141" xlink:href="#DejaVuSans-75"/>
      <use x="501.123047" xlink:href="#DejaVuSans-6c"/>
      <use x="528.90625" xlink:href="#DejaVuSans-20"/>
      <use x="560.693359" xlink:href="#DejaVuSans-64"/>
      <use x="624.169922" xlink:href="#DejaVuSans-6f"/>
      <use x="685.351562" xlink:href="#DejaVuSans-77"/>
      <use x="767.138672" xlink:href="#DejaVuSans-6e"/>
      <use x="830.517578" xlink:href="#DejaVuSans-6c"/>
      <use x="858.300781" xlink:href="#DejaVuSans-6f"/>
      <use x="919.482422" xlink:href="#DejaVuSans-61"/>
      <use x="980.761719" xlink:href="#DejaVuSans-64"/>
      <use x="1044.238281" xlink:href="#DejaVuSans-20"/>
      <use x="1076.025391" xlink:href="#DejaVuSans-72"/>
      <use x="1117.107422" xlink:href="#DejaVuSans-65"/>
      <use x="1178.630859" xlink:href="#DejaVuSans-71"/>
      <use x="1242.107422" xlink:href="#DejaVuSans-75"/>
      <use x="1305.486328" xlink:href="#DejaVuSans-65"/>
      <use x="1367.009766" xlink:href="#DejaVuSans-73"/>
      <use x="1419.109375" xlink:href="#DejaVuSans-74"/>
      <use x="1458.318359" xlink:href="#DejaVuSans-73"/>
      <use x="1510.417969" xlink:href="#DejaVuSans-20"/>
      <use x="1542.205078" xlink:href="#DejaVuSans-70"/>
      <use x="1605.681641" xlink:href="#DejaVuSans-65"/>
      <use x="1667.205078" xlink:href="#DejaVuSans-72"/>
      <use x="1708.318359" xlink:href="#DejaVuSans-20"/>
      <use x="1740.105469" xlink:href="#DejaVuSans-73"/>
      <use x="1792.205078" xlink:href="#DejaVuSans-65"/>
      <use x="1853.728516" xlink:href="#DejaVuSans-63"/>
      <use x="1908.708984" xlink:href="#DejaVuSans-6f"/>
      <use x="1969.890625" xlink:href="#DejaVuSans-6e"/>
      <use x="2033.269531" xlink:href="#DejaVuSans-64"/>
     </g>
    </g>
   </g>
  </g>
 </g>
 <defs>
  <clipPath id="p297f28b2c3">
   <rect height="266.112" width="357.12" x="57.6" y="41.472"/>
  </clipPath>
 </defs>
</svg>
