<?xml version="1.0" encoding="utf-8" standalone="no"?>
<!DOCTYPE svg PUBLIC "-//W3C//DTD SVG 1.1//EN"
  "http://www.w3.org/Graphics/SVG/1.1/DTD/svg11.dtd">
<!-- Created with matplotlib (http://matplotlib.org/) -->
<svg height="345pt" version="1.1" viewBox="0 0 460 345" width="460pt" xmlns="http://www.w3.org/2000/svg" xmlns:xlink="http://www.w3.org/1999/xlink">
 <defs>
  <style type="text/css">
*{stroke-linecap:butt;stroke-linejoin:round;}
  </style>
 </defs>
 <g id="figure_1">
  <g id="patch_1">
   <path d="M 0 345.6 
L 460.8 345.6 
L 460.8 0 
L 0 0 
z
" style="fill:#ffffff;"/>
  </g>
  <g id="axes_1">
   <g id="patch_2">
    <path d="M 57.6 307.584 
L 414.72 307.584 
L 414.72 41.472 
L 57.6 41.472 
z
" style="fill:#ffffff;"/>
   </g>
   <g id="matplotlib.axis_1">
    <g id="xtick_1">
     <g id="line2d_1">
      <path clip-path="url(#pdf854b3fd1)" d="M 57.6 307.584 
L 57.6 41.472 
" style="fill:none;stroke:#b0b0b0;stroke-linecap:square;stroke-width:0.8;"/>
     </g>
     <g id="line2d_2">
      <defs>
       <path d="M 0 0 
L 0 3.5 
" id="ma91489f976" style="stroke:#000000;stroke-width:0.8;"/>
      </defs>
      <g>
       <use style="stroke:#000000;stroke-width:0.8;" x="57.6" xlink:href="#ma91489f976" y="307.584"/>
      </g>
     </g>
     <g id="text_1">
      <!-- 0 -->
      <defs>
       <path d="M 31.78125 66.40625 
Q 24.171875 66.40625 20.328125 58.90625 
Q 16.5 51.421875 16.5 36.375 
Q 16.5 21.390625 20.328125 13.890625 
Q 24.171875 6.390625 31.78125 6.390625 
Q 39.453125 6.390625 43.28125 13.890625 
Q 47.125 21.390625 47.125 36.375 
Q 47.125 51.421875 43.28125 58.90625 
Q 39.453125 66.40625 31.78125 66.40625 
M 31.78125 74.21875 
Q 44.046875 74.21875 50.515625 64.515625 
Q 56.984375 54.828125 56.984375 36.375 
Q 56.984375 17.96875 50.515625 8.265625 
Q 44.046875 -1.421875 31.78125 -1.421875 
Q 19.53125 -1.421875 13.0625 8.265625 
Q 6.59375 17.96875 6.59375 36.375 
Q 6.59375 54.828125 13.0625 64.515625 
Q 19.53125 74.21875 31.78125 74.21875 
" id="DejaVuSans-30"/>
      </defs>
      <g transform="translate(54.41875 322.182437)scale(0.1 -0.1)">
       <use xlink:href="#DejaVuSans-30"/>
      </g>
     </g>
    </g>
    <g id="xtick_2">
     <g id="line2d_3">
      <path clip-path="url(#pdf854b3fd1)" d="M 129.024 307.584 
L 129.024 41.472 
" style="fill:none;stroke:#b0b0b0;stroke-linecap:square;stroke-width:0.8;"/>
     </g>
     <g id="line2d_4">
      <g>
       <use style="stroke:#000000;stroke-width:0.8;" x="129.024" xlink:href="#ma91489f976" y="307.584"/>
      </g>
     </g>
     <g id="text_2">
      <!-- 200 -->
      <defs>
       <path d="M 19.1875 8.296875 
L 53.609375 8.296875 
L 53.609375 0 
L 7.328125 0 
L 7.328125 8.296875 
Q 12.9375 14.109375 22.625 23.890625 
Q 32.328125 33.6875 34.8125 36.53125 
Q 39.546875 41.84375 41.421875 45.53125 
Q 43.3125 49.21875 43.3125 52.78125 
Q 43.3125 58.59375 39.234375 62.25 
Q 35.15625 65.921875 28.609375 65.921875 
Q 23.96875 65.921875 18.8125 64.3125 
Q 13.671875 62.703125 7.8125 59.421875 
L 7.8125 69.390625 
Q 13.765625 71.78125 18.9375 73 
Q 24.125 74.21875 28.421875 74.21875 
Q 39.75 74.21875 46.484375 68.546875 
Q 53.21875 62.890625 53.21875 53.421875 
Q 53.21875 48.921875 51.53125 44.890625 
Q 49.859375 40.875 45.40625 35.40625 
Q 44.1875 33.984375 37.640625 27.21875 
Q 31.109375 20.453125 19.1875 8.296875 
" id="DejaVuSans-32"/>
      </defs>
      <g transform="translate(119.48025 322.182437)scale(0.1 -0.1)">
       <use xlink:href="#DejaVuSans-32"/>
       <use x="63.623047" xlink:href="#DejaVuSans-30"/>
       <use x="127.246094" xlink:href="#DejaVuSans-30"/>
      </g>
     </g>
    </g>
    <g id="xtick_3">
     <g id="line2d_5">
      <path clip-path="url(#pdf854b3fd1)" d="M 200.448 307.584 
L 200.448 41.472 
" style="fill:none;stroke:#b0b0b0;stroke-linecap:square;stroke-width:0.8;"/>
     </g>
     <g id="line2d_6">
      <g>
       <use style="stroke:#000000;stroke-width:0.8;" x="200.448" xlink:href="#ma91489f976" y="307.584"/>
      </g>
     </g>
     <g id="text_3">
      <!-- 400 -->
      <defs>
       <path d="M 37.796875 64.3125 
L 12.890625 25.390625 
L 37.796875 25.390625 
z
M 35.203125 72.90625 
L 47.609375 72.90625 
L 47.609375 25.390625 
L 58.015625 25.390625 
L 58.015625 17.1875 
L 47.609375 17.1875 
L 47.609375 0 
L 37.796875 0 
L 37.796875 17.1875 
L 4.890625 17.1875 
L 4.890625 26.703125 
z
" id="DejaVuSans-34"/>
      </defs>
      <g transform="translate(190.90425 322.182437)scale(0.1 -0.1)">
       <use xlink:href="#DejaVuSans-34"/>
       <use x="63.623047" xlink:href="#DejaVuSans-30"/>
       <use x="127.246094" xlink:href="#DejaVuSans-30"/>
      </g>
     </g>
    </g>
    <g id="xtick_4">
     <g id="line2d_7">
      <path clip-path="url(#pdf854b3fd1)" d="M 271.872 307.584 
L 271.872 41.472 
" style="fill:none;stroke:#b0b0b0;stroke-linecap:square;stroke-width:0.8;"/>
     </g>
     <g id="line2d_8">
      <g>
       <use style="stroke:#000000;stroke-width:0.8;" x="271.872" xlink:href="#ma91489f976" y="307.584"/>
      </g>
     </g>
     <g id="text_4">
      <!-- 600 -->
      <defs>
       <path d="M 33.015625 40.375 
Q 26.375 40.375 22.484375 35.828125 
Q 18.609375 31.296875 18.609375 23.390625 
Q 18.609375 15.53125 22.484375 10.953125 
Q 26.375 6.390625 33.015625 6.390625 
Q 39.65625 6.390625 43.53125 10.953125 
Q 47.40625 15.53125 47.40625 23.390625 
Q 47.40625 31.296875 43.53125 35.828125 
Q 39.65625 40.375 33.015625 40.375 
M 52.59375 71.296875 
L 52.59375 62.3125 
Q 48.875 64.0625 45.09375 64.984375 
Q 41.3125 65.921875 37.59375 65.921875 
Q 27.828125 65.921875 22.671875 59.328125 
Q 17.53125 52.734375 16.796875 39.40625 
Q 19.671875 43.65625 24.015625 45.921875 
Q 28.375 48.1875 33.59375 48.1875 
Q 44.578125 48.1875 50.953125 41.515625 
Q 57.328125 34.859375 57.328125 23.390625 
Q 57.328125 12.15625 50.6875 5.359375 
Q 44.046875 -1.421875 33.015625 -1.421875 
Q 20.359375 -1.421875 13.671875 8.265625 
Q 6.984375 17.96875 6.984375 36.375 
Q 6.984375 53.65625 15.1875 63.9375 
Q 23.390625 74.21875 37.203125 74.21875 
Q 40.921875 74.21875 44.703125 73.484375 
Q 48.484375 72.75 52.59375 71.296875 
" id="DejaVuSans-36"/>
      </defs>
      <g transform="translate(262.32825 322.182437)scale(0.1 -0.1)">
       <use xlink:href="#DejaVuSans-36"/>
       <use x="63.623047" xlink:href="#DejaVuSans-30"/>
       <use x="127.246094" xlink:href="#DejaVuSans-30"/>
      </g>
     </g>
    </g>
    <g id="xtick_5">
     <g id="line2d_9">
      <path clip-path="url(#pdf854b3fd1)" d="M 343.296 307.584 
L 343.296 41.472 
" style="fill:none;stroke:#b0b0b0;stroke-linecap:square;stroke-width:0.8;"/>
     </g>
     <g id="line2d_10">
      <g>
       <use style="stroke:#000000;stroke-width:0.8;" x="343.296" xlink:href="#ma91489f976" y="307.584"/>
      </g>
     </g>
     <g id="text_5">
      <!-- 800 -->
      <defs>
       <path d="M 31.78125 34.625 
Q 24.75 34.625 20.71875 30.859375 
Q 16.703125 27.09375 16.703125 20.515625 
Q 16.703125 13.921875 20.71875 10.15625 
Q 24.75 6.390625 31.78125 6.390625 
Q 38.8125 6.390625 42.859375 10.171875 
Q 46.921875 13.96875 46.921875 20.515625 
Q 46.921875 27.09375 42.890625 30.859375 
Q 38.875 34.625 31.78125 34.625 
M 21.921875 38.8125 
Q 15.578125 40.375 12.03125 44.71875 
Q 8.5 49.078125 8.5 55.328125 
Q 8.5 64.0625 14.71875 69.140625 
Q 20.953125 74.21875 31.78125 74.21875 
Q 42.671875 74.21875 48.875 69.140625 
Q 55.078125 64.0625 55.078125 55.328125 
Q 55.078125 49.078125 51.53125 44.71875 
Q 48 40.375 41.703125 38.8125 
Q 48.828125 37.15625 52.796875 32.3125 
Q 56.78125 27.484375 56.78125 20.515625 
Q 56.78125 9.90625 50.3125 4.234375 
Q 43.84375 -1.421875 31.78125 -1.421875 
Q 19.734375 -1.421875 13.25 4.234375 
Q 6.78125 9.90625 6.78125 20.515625 
Q 6.78125 27.484375 10.78125 32.3125 
Q 14.796875 37.15625 21.921875 38.8125 
M 18.3125 54.390625 
Q 18.3125 48.734375 21.84375 45.5625 
Q 25.390625 42.390625 31.78125 42.390625 
Q 38.140625 42.390625 41.71875 45.5625 
Q 45.3125 48.734375 45.3125 54.390625 
Q 45.3125 60.0625 41.71875 63.234375 
Q 38.140625 66.40625 31.78125 66.40625 
Q 25.390625 66.40625 21.84375 63.234375 
Q 18.3125 60.0625 18.3125 54.390625 
" id="DejaVuSans-38"/>
      </defs>
      <g transform="translate(333.75225 322.182437)scale(0.1 -0.1)">
       <use xlink:href="#DejaVuSans-38"/>
       <use x="63.623047" xlink:href="#DejaVuSans-30"/>
       <use x="127.246094" xlink:href="#DejaVuSans-30"/>
      </g>
     </g>
    </g>
    <g id="xtick_6">
     <g id="line2d_11">
      <path clip-path="url(#pdf854b3fd1)" d="M 414.72 307.584 
L 414.72 41.472 
" style="fill:none;stroke:#b0b0b0;stroke-linecap:square;stroke-width:0.8;"/>
     </g>
     <g id="line2d_12">
      <g>
       <use style="stroke:#000000;stroke-width:0.8;" x="414.72" xlink:href="#ma91489f976" y="307.584"/>
      </g>
     </g>
     <g id="text_6">
      <!-- 1000 -->
      <defs>
       <path d="M 12.40625 8.296875 
L 28.515625 8.296875 
L 28.515625 63.921875 
L 10.984375 60.40625 
L 10.984375 69.390625 
L 28.421875 72.90625 
L 38.28125 72.90625 
L 38.28125 8.296875 
L 54.390625 8.296875 
L 54.390625 0 
L 12.40625 0 
z
" id="DejaVuSans-31"/>
      </defs>
      <g transform="translate(401.995 322.182437)scale(0.1 -0.1)">
       <use xlink:href="#DejaVuSans-31"/>
       <use x="63.623047" xlink:href="#DejaVuSans-30"/>
       <use x="127.246094" xlink:href="#DejaVuSans-30"/>
       <use x="190.869141" xlink:href="#DejaVuSans-30"/>
      </g>
     </g>
    </g>
    <g id="text_7">
     <!-- Number of clients -->
     <defs>
      <path d="M 9.8125 72.90625 
L 23.09375 72.90625 
L 55.421875 11.921875 
L 55.421875 72.90625 
L 64.984375 72.90625 
L 64.984375 0 
L 51.703125 0 
L 19.390625 60.984375 
L 19.390625 0 
L 9.8125 0 
z
" id="DejaVuSans-4e"/>
      <path d="M 8.5 21.578125 
L 8.5 54.6875 
L 17.484375 54.6875 
L 17.484375 21.921875 
Q 17.484375 14.15625 20.5 10.265625 
Q 23.53125 6.390625 29.59375 6.390625 
Q 36.859375 6.390625 41.078125 11.03125 
Q 45.3125 15.671875 45.3125 23.6875 
L 45.3125 54.6875 
L 54.296875 54.6875 
L 54.296875 0 
L 45.3125 0 
L 45.3125 8.40625 
Q 42.046875 3.421875 37.71875 1 
Q 33.40625 -1.421875 27.6875 -1.421875 
Q 18.265625 -1.421875 13.375 4.4375 
Q 8.5 10.296875 8.5 21.578125 
M 31.109375 56 
z
" id="DejaVuSans-75"/>
      <path d="M 52 44.1875 
Q 55.375 50.25 60.0625 53.125 
Q 64.75 56 71.09375 56 
Q 79.640625 56 84.28125 50.015625 
Q 88.921875 44.046875 88.921875 33.015625 
L 88.921875 0 
L 79.890625 0 
L 79.890625 32.71875 
Q 79.890625 40.578125 77.09375 44.375 
Q 74.3125 48.1875 68.609375 48.1875 
Q 61.625 48.1875 57.5625 43.546875 
Q 53.515625 38.921875 53.515625 30.90625 
L 53.515625 0 
L 44.484375 0 
L 44.484375 32.71875 
Q 44.484375 40.625 41.703125 44.40625 
Q 38.921875 48.1875 33.109375 48.1875 
Q 26.21875 48.1875 22.15625 43.53125 
Q 18.109375 38.875 18.109375 30.90625 
L 18.109375 0 
L 9.078125 0 
L 9.078125 54.6875 
L 18.109375 54.6875 
L 18.109375 46.1875 
Q 21.1875 51.21875 25.484375 53.609375 
Q 29.78125 56 35.6875 56 
Q 41.65625 56 45.828125 52.96875 
Q 50 49.953125 52 44.1875 
" id="DejaVuSans-6d"/>
      <path d="M 48.6875 27.296875 
Q 48.6875 37.203125 44.609375 42.84375 
Q 40.53125 48.484375 33.40625 48.484375 
Q 26.265625 48.484375 22.1875 42.84375 
Q 18.109375 37.203125 18.109375 27.296875 
Q 18.109375 17.390625 22.1875 11.75 
Q 26.265625 6.109375 33.40625 6.109375 
Q 40.53125 6.109375 44.609375 11.75 
Q 48.6875 17.390625 48.6875 27.296875 
M 18.109375 46.390625 
Q 20.953125 51.265625 25.265625 53.625 
Q 29.59375 56 35.59375 56 
Q 45.5625 56 51.78125 48.09375 
Q 58.015625 40.1875 58.015625 27.296875 
Q 58.015625 14.40625 51.78125 6.484375 
Q 45.5625 -1.421875 35.59375 -1.421875 
Q 29.59375 -1.421875 25.265625 0.953125 
Q 20.953125 3.328125 18.109375 8.203125 
L 18.109375 0 
L 9.078125 0 
L 9.078125 75.984375 
L 18.109375 75.984375 
z
" id="DejaVuSans-62"/>
      <path d="M 56.203125 29.59375 
L 56.203125 25.203125 
L 14.890625 25.203125 
Q 15.484375 15.921875 20.484375 11.0625 
Q 25.484375 6.203125 34.421875 6.203125 
Q 39.59375 6.203125 44.453125 7.46875 
Q 49.3125 8.734375 54.109375 11.28125 
L 54.109375 2.78125 
Q 49.265625 0.734375 44.1875 -0.34375 
Q 39.109375 -1.421875 33.890625 -1.421875 
Q 20.796875 -1.421875 13.15625 6.1875 
Q 5.515625 13.8125 5.515625 26.8125 
Q 5.515625 40.234375 12.765625 48.109375 
Q 20.015625 56 32.328125 56 
Q 43.359375 56 49.78125 48.890625 
Q 56.203125 41.796875 56.203125 29.59375 
M 47.21875 32.234375 
Q 47.125 39.59375 43.09375 43.984375 
Q 39.0625 48.390625 32.421875 48.390625 
Q 24.90625 48.390625 20.390625 44.140625 
Q 15.875 39.890625 15.1875 32.171875 
z
" id="DejaVuSans-65"/>
      <path d="M 41.109375 46.296875 
Q 39.59375 47.171875 37.8125 47.578125 
Q 36.03125 48 33.890625 48 
Q 26.265625 48 22.1875 43.046875 
Q 18.109375 38.09375 18.109375 28.8125 
L 18.109375 0 
L 9.078125 0 
L 9.078125 54.6875 
L 18.109375 54.6875 
L 18.109375 46.1875 
Q 20.953125 51.171875 25.484375 53.578125 
Q 30.03125 56 36.53125 56 
Q 37.453125 56 38.578125 55.875 
Q 39.703125 55.765625 41.0625 55.515625 
z
" id="DejaVuSans-72"/>
      <path id="DejaVuSans-20"/>
      <path d="M 30.609375 48.390625 
Q 23.390625 48.390625 19.1875 42.75 
Q 14.984375 37.109375 14.984375 27.296875 
Q 14.984375 17.484375 19.15625 11.84375 
Q 23.34375 6.203125 30.609375 6.203125 
Q 37.796875 6.203125 41.984375 11.859375 
Q 46.1875 17.53125 46.1875 27.296875 
Q 46.1875 37.015625 41.984375 42.703125 
Q 37.796875 48.390625 30.609375 48.390625 
M 30.609375 56 
Q 42.328125 56 49.015625 48.375 
Q 55.71875 40.765625 55.71875 27.296875 
Q 55.71875 13.875 49.015625 6.21875 
Q 42.328125 -1.421875 30.609375 -1.421875 
Q 18.84375 -1.421875 12.171875 6.21875 
Q 5.515625 13.875 5.515625 27.296875 
Q 5.515625 40.765625 12.171875 48.375 
Q 18.84375 56 30.609375 56 
" id="DejaVuSans-6f"/>
      <path d="M 37.109375 75.984375 
L 37.109375 68.5 
L 28.515625 68.5 
Q 23.6875 68.5 21.796875 66.546875 
Q 19.921875 64.59375 19.921875 59.515625 
L 19.921875 54.6875 
L 34.71875 54.6875 
L 34.71875 47.703125 
L 19.921875 47.703125 
L 19.921875 0 
L 10.890625 0 
L 10.890625 47.703125 
L 2.296875 47.703125 
L 2.296875 54.6875 
L 10.890625 54.6875 
L 10.890625 58.5 
Q 10.890625 67.625 15.140625 71.796875 
Q 19.390625 75.984375 28.609375 75.984375 
z
" id="DejaVuSans-66"/>
      <path d="M 48.78125 52.59375 
L 48.78125 44.1875 
Q 44.96875 46.296875 41.140625 47.34375 
Q 37.3125 48.390625 33.40625 48.390625 
Q 24.65625 48.390625 19.8125 42.84375 
Q 14.984375 37.3125 14.984375 27.296875 
Q 14.984375 17.28125 19.8125 11.734375 
Q 24.65625 6.203125 33.40625 6.203125 
Q 37.3125 6.203125 41.140625 7.25 
Q 44.96875 8.296875 48.78125 10.40625 
L 48.78125 2.09375 
Q 45.015625 0.34375 40.984375 -0.53125 
Q 36.96875 -1.421875 32.421875 -1.421875 
Q 20.0625 -1.421875 12.78125 6.34375 
Q 5.515625 14.109375 5.515625 27.296875 
Q 5.515625 40.671875 12.859375 48.328125 
Q 20.21875 56 33.015625 56 
Q 37.15625 56 41.109375 55.140625 
Q 45.0625 54.296875 48.78125 52.59375 
" id="DejaVuSans-63"/>
      <path d="M 9.421875 75.984375 
L 18.40625 75.984375 
L 18.40625 0 
L 9.421875 0 
z
" id="DejaVuSans-6c"/>
      <path d="M 9.421875 54.6875 
L 18.40625 54.6875 
L 18.40625 0 
L 9.421875 0 
z
M 9.421875 75.984375 
L 18.40625 75.984375 
L 18.40625 64.59375 
L 9.421875 64.59375 
z
" id="DejaVuSans-69"/>
      <path d="M 54.890625 33.015625 
L 54.890625 0 
L 45.90625 0 
L 45.90625 32.71875 
Q 45.90625 40.484375 42.875 44.328125 
Q 39.84375 48.1875 33.796875 48.1875 
Q 26.515625 48.1875 22.3125 43.546875 
Q 18.109375 38.921875 18.109375 30.90625 
L 18.109375 0 
L 9.078125 0 
L 9.078125 54.6875 
L 18.109375 54.6875 
L 18.109375 46.1875 
Q 21.34375 51.125 25.703125 53.5625 
Q 30.078125 56 35.796875 56 
Q 45.21875 56 50.046875 50.171875 
Q 54.890625 44.34375 54.890625 33.015625 
" id="DejaVuSans-6e"/>
      <path d="M 18.3125 70.21875 
L 18.3125 54.6875 
L 36.8125 54.6875 
L 36.8125 47.703125 
L 18.3125 47.703125 
L 18.3125 18.015625 
Q 18.3125 11.328125 20.140625 9.421875 
Q 21.96875 7.515625 27.59375 7.515625 
L 36.8125 7.515625 
L 36.8125 0 
L 27.59375 0 
Q 17.1875 0 13.234375 3.875 
Q 9.28125 7.765625 9.28125 18.015625 
L 9.28125 47.703125 
L 2.6875 47.703125 
L 2.6875 54.6875 
L 9.28125 54.6875 
L 9.28125 70.21875 
z
" id="DejaVuSans-74"/>
      <path d="M 44.28125 53.078125 
L 44.28125 44.578125 
Q 40.484375 46.53125 36.375 47.5 
Q 32.28125 48.484375 27.875 48.484375 
Q 21.1875 48.484375 17.84375 46.4375 
Q 14.5 44.390625 14.5 40.28125 
Q 14.5 37.15625 16.890625 35.375 
Q 19.28125 33.59375 26.515625 31.984375 
L 29.59375 31.296875 
Q 39.15625 29.25 43.1875 25.515625 
Q 47.21875 21.78125 47.21875 15.09375 
Q 47.21875 7.46875 41.1875 3.015625 
Q 35.15625 -1.421875 24.609375 -1.421875 
Q 20.21875 -1.421875 15.453125 -0.5625 
Q 10.6875 0.296875 5.421875 2 
L 5.421875 11.28125 
Q 10.40625 8.6875 15.234375 7.390625 
Q 20.0625 6.109375 24.8125 6.109375 
Q 31.15625 6.109375 34.5625 8.28125 
Q 37.984375 10.453125 37.984375 14.40625 
Q 37.984375 18.0625 35.515625 20.015625 
Q 33.0625 21.96875 24.703125 23.78125 
L 21.578125 24.515625 
Q 13.234375 26.265625 9.515625 29.90625 
Q 5.8125 33.546875 5.8125 39.890625 
Q 5.8125 47.609375 11.28125 51.796875 
Q 16.75 56 26.8125 56 
Q 31.78125 56 36.171875 55.265625 
Q 40.578125 54.546875 44.28125 53.078125 
" id="DejaVuSans-73"/>
     </defs>
     <g transform="translate(191.738906 335.860562)scale(0.1 -0.1)">
      <use xlink:href="#DejaVuSans-4e"/>
      <use x="74.804688" xlink:href="#DejaVuSans-75"/>
      <use x="138.183594" xlink:href="#DejaVuSans-6d"/>
      <use x="235.595703" xlink:href="#DejaVuSans-62"/>
      <use x="299.072266" xlink:href="#DejaVuSans-65"/>
      <use x="360.595703" xlink:href="#DejaVuSans-72"/>
      <use x="401.708984" xlink:href="#DejaVuSans-20"/>
      <use x="433.496094" xlink:href="#DejaVuSans-6f"/>
      <use x="494.677734" xlink:href="#DejaVuSans-66"/>
      <use x="529.882812" xlink:href="#DejaVuSans-20"/>
      <use x="561.669922" xlink:href="#DejaVuSans-63"/>
      <use x="616.650391" xlink:href="#DejaVuSans-6c"/>
      <use x="644.433594" xlink:href="#DejaVuSans-69"/>
      <use x="672.216797" xlink:href="#DejaVuSans-65"/>
      <use x="733.740234" xlink:href="#DejaVuSans-6e"/>
      <use x="797.119141" xlink:href="#DejaVuSans-74"/>
      <use x="836.328125" xlink:href="#DejaVuSans-73"/>
     </g>
    </g>
   </g>
   <g id="matplotlib.axis_2">
    <g id="ytick_1">
     <g id="line2d_13">
      <path clip-path="url(#pdf854b3fd1)" d="M 57.6 295.831473 
L 414.72 295.831473 
" style="fill:none;stroke:#b0b0b0;stroke-linecap:square;stroke-width:0.8;"/>
     </g>
     <g id="line2d_14">
      <defs>
       <path d="M 0 0 
L -3.5 0 
" id="m79834f986a" style="stroke:#000000;stroke-width:0.8;"/>
      </defs>
      <g>
       <use style="stroke:#000000;stroke-width:0.8;" x="57.6" xlink:href="#m79834f986a" y="295.831473"/>
      </g>
     </g>
     <g id="text_8">
      <!-- 0 -->
      <g transform="translate(44.2375 299.630692)scale(0.1 -0.1)">
       <use xlink:href="#DejaVuSans-30"/>
      </g>
     </g>
    </g>
    <g id="ytick_2">
     <g id="line2d_15">
      <path clip-path="url(#pdf854b3fd1)" d="M 57.6 261.380829 
L 414.72 261.380829 
" style="fill:none;stroke:#b0b0b0;stroke-linecap:square;stroke-width:0.8;"/>
     </g>
     <g id="line2d_16">
      <g>
       <use style="stroke:#000000;stroke-width:0.8;" x="57.6" xlink:href="#m79834f986a" y="261.380829"/>
      </g>
     </g>
     <g id="text_9">
      <!-- 100 -->
      <g transform="translate(31.5125 265.180048)scale(0.1 -0.1)">
       <use xlink:href="#DejaVuSans-31"/>
       <use x="63.623047" xlink:href="#DejaVuSans-30"/>
       <use x="127.246094" xlink:href="#DejaVuSans-30"/>
      </g>
     </g>
    </g>
    <g id="ytick_3">
     <g id="line2d_17">
      <path clip-path="url(#pdf854b3fd1)" d="M 57.6 226.930185 
L 414.72 226.930185 
" style="fill:none;stroke:#b0b0b0;stroke-linecap:square;stroke-width:0.8;"/>
     </g>
     <g id="line2d_18">
      <g>
       <use style="stroke:#000000;stroke-width:0.8;" x="57.6" xlink:href="#m79834f986a" y="226.930185"/>
      </g>
     </g>
     <g id="text_10">
      <!-- 200 -->
      <g transform="translate(31.5125 230.729404)scale(0.1 -0.1)">
       <use xlink:href="#DejaVuSans-32"/>
       <use x="63.623047" xlink:href="#DejaVuSans-30"/>
       <use x="127.246094" xlink:href="#DejaVuSans-30"/>
      </g>
     </g>
    </g>
    <g id="ytick_4">
     <g id="line2d_19">
      <path clip-path="url(#pdf854b3fd1)" d="M 57.6 192.479541 
L 414.72 192.479541 
" style="fill:none;stroke:#b0b0b0;stroke-linecap:square;stroke-width:0.8;"/>
     </g>
     <g id="line2d_20">
      <g>
       <use style="stroke:#000000;stroke-width:0.8;" x="57.6" xlink:href="#m79834f986a" y="192.479541"/>
      </g>
     </g>
     <g id="text_11">
      <!-- 300 -->
      <defs>
       <path d="M 40.578125 39.3125 
Q 47.65625 37.796875 51.625 33 
Q 55.609375 28.21875 55.609375 21.1875 
Q 55.609375 10.40625 48.1875 4.484375 
Q 40.765625 -1.421875 27.09375 -1.421875 
Q 22.515625 -1.421875 17.65625 -0.515625 
Q 12.796875 0.390625 7.625 2.203125 
L 7.625 11.71875 
Q 11.71875 9.328125 16.59375 8.109375 
Q 21.484375 6.890625 26.8125 6.890625 
Q 36.078125 6.890625 40.9375 10.546875 
Q 45.796875 14.203125 45.796875 21.1875 
Q 45.796875 27.640625 41.28125 31.265625 
Q 36.765625 34.90625 28.71875 34.90625 
L 20.21875 34.90625 
L 20.21875 43.015625 
L 29.109375 43.015625 
Q 36.375 43.015625 40.234375 45.921875 
Q 44.09375 48.828125 44.09375 54.296875 
Q 44.09375 59.90625 40.109375 62.90625 
Q 36.140625 65.921875 28.71875 65.921875 
Q 24.65625 65.921875 20.015625 65.03125 
Q 15.375 64.15625 9.8125 62.3125 
L 9.8125 71.09375 
Q 15.4375 72.65625 20.34375 73.4375 
Q 25.25 74.21875 29.59375 74.21875 
Q 40.828125 74.21875 47.359375 69.109375 
Q 53.90625 64.015625 53.90625 55.328125 
Q 53.90625 49.265625 50.4375 45.09375 
Q 46.96875 40.921875 40.578125 39.3125 
" id="DejaVuSans-33"/>
      </defs>
      <g transform="translate(31.5125 196.27876)scale(0.1 -0.1)">
       <use xlink:href="#DejaVuSans-33"/>
       <use x="63.623047" xlink:href="#DejaVuSans-30"/>
       <use x="127.246094" xlink:href="#DejaVuSans-30"/>
      </g>
     </g>
    </g>
    <g id="ytick_5">
     <g id="line2d_21">
      <path clip-path="url(#pdf854b3fd1)" d="M 57.6 158.028898 
L 414.72 158.028898 
" style="fill:none;stroke:#b0b0b0;stroke-linecap:square;stroke-width:0.8;"/>
     </g>
     <g id="line2d_22">
      <g>
       <use style="stroke:#000000;stroke-width:0.8;" x="57.6" xlink:href="#m79834f986a" y="158.028898"/>
      </g>
     </g>
     <g id="text_12">
      <!-- 400 -->
      <g transform="translate(31.5125 161.828116)scale(0.1 -0.1)">
       <use xlink:href="#DejaVuSans-34"/>
       <use x="63.623047" xlink:href="#DejaVuSans-30"/>
       <use x="127.246094" xlink:href="#DejaVuSans-30"/>
      </g>
     </g>
    </g>
    <g id="ytick_6">
     <g id="line2d_23">
      <path clip-path="url(#pdf854b3fd1)" d="M 57.6 123.578254 
L 414.72 123.578254 
" style="fill:none;stroke:#b0b0b0;stroke-linecap:square;stroke-width:0.8;"/>
     </g>
     <g id="line2d_24">
      <g>
       <use style="stroke:#000000;stroke-width:0.8;" x="57.6" xlink:href="#m79834f986a" y="123.578254"/>
      </g>
     </g>
     <g id="text_13">
      <!-- 500 -->
      <defs>
       <path d="M 10.796875 72.90625 
L 49.515625 72.90625 
L 49.515625 64.59375 
L 19.828125 64.59375 
L 19.828125 46.734375 
Q 21.96875 47.46875 24.109375 47.828125 
Q 26.265625 48.1875 28.421875 48.1875 
Q 40.625 48.1875 47.75 41.5 
Q 54.890625 34.8125 54.890625 23.390625 
Q 54.890625 11.625 47.5625 5.09375 
Q 40.234375 -1.421875 26.90625 -1.421875 
Q 22.3125 -1.421875 17.546875 -0.640625 
Q 12.796875 0.140625 7.71875 1.703125 
L 7.71875 11.625 
Q 12.109375 9.234375 16.796875 8.0625 
Q 21.484375 6.890625 26.703125 6.890625 
Q 35.15625 6.890625 40.078125 11.328125 
Q 45.015625 15.765625 45.015625 23.390625 
Q 45.015625 31 40.078125 35.4375 
Q 35.15625 39.890625 26.703125 39.890625 
Q 22.75 39.890625 18.8125 39.015625 
Q 14.890625 38.140625 10.796875 36.28125 
z
" id="DejaVuSans-35"/>
      </defs>
      <g transform="translate(31.5125 127.377473)scale(0.1 -0.1)">
       <use xlink:href="#DejaVuSans-35"/>
       <use x="63.623047" xlink:href="#DejaVuSans-30"/>
       <use x="127.246094" xlink:href="#DejaVuSans-30"/>
      </g>
     </g>
    </g>
    <g id="ytick_7">
     <g id="line2d_25">
      <path clip-path="url(#pdf854b3fd1)" d="M 57.6 89.12761 
L 414.72 89.12761 
" style="fill:none;stroke:#b0b0b0;stroke-linecap:square;stroke-width:0.8;"/>
     </g>
     <g id="line2d_26">
      <g>
       <use style="stroke:#000000;stroke-width:0.8;" x="57.6" xlink:href="#m79834f986a" y="89.12761"/>
      </g>
     </g>
     <g id="text_14">
      <!-- 600 -->
      <g transform="translate(31.5125 92.926829)scale(0.1 -0.1)">
       <use xlink:href="#DejaVuSans-36"/>
       <use x="63.623047" xlink:href="#DejaVuSans-30"/>
       <use x="127.246094" xlink:href="#DejaVuSans-30"/>
      </g>
     </g>
    </g>
    <g id="ytick_8">
     <g id="line2d_27">
      <path clip-path="url(#pdf854b3fd1)" d="M 57.6 54.676966 
L 414.72 54.676966 
" style="fill:none;stroke:#b0b0b0;stroke-linecap:square;stroke-width:0.8;"/>
     </g>
     <g id="line2d_28">
      <g>
       <use style="stroke:#000000;stroke-width:0.8;" x="57.6" xlink:href="#m79834f986a" y="54.676966"/>
      </g>
     </g>
     <g id="text_15">
      <!-- 700 -->
      <defs>
       <path d="M 8.203125 72.90625 
L 55.078125 72.90625 
L 55.078125 68.703125 
L 28.609375 0 
L 18.3125 0 
L 43.21875 64.59375 
L 8.203125 64.59375 
z
" id="DejaVuSans-37"/>
      </defs>
      <g transform="translate(31.5125 58.476185)scale(0.1 -0.1)">
       <use xlink:href="#DejaVuSans-37"/>
       <use x="63.623047" xlink:href="#DejaVuSans-30"/>
       <use x="127.246094" xlink:href="#DejaVuSans-30"/>
      </g>
     </g>
    </g>
    <g id="text_16">
     <!-- Successful download requests per second -->
     <defs>
      <path d="M 53.515625 70.515625 
L 53.515625 60.890625 
Q 47.90625 63.578125 42.921875 64.890625 
Q 37.9375 66.21875 33.296875 66.21875 
Q 25.25 66.21875 20.875 63.09375 
Q 16.5 59.96875 16.5 54.203125 
Q 16.5 49.359375 19.40625 46.890625 
Q 22.3125 44.4375 30.421875 42.921875 
L 36.375 41.703125 
Q 47.40625 39.59375 52.65625 34.296875 
Q 57.90625 29 57.90625 20.125 
Q 57.90625 9.515625 50.796875 4.046875 
Q 43.703125 -1.421875 29.984375 -1.421875 
Q 24.8125 -1.421875 18.96875 -0.25 
Q 13.140625 0.921875 6.890625 3.21875 
L 6.890625 13.375 
Q 12.890625 10.015625 18.65625 8.296875 
Q 24.421875 6.59375 29.984375 6.59375 
Q 38.421875 6.59375 43.015625 9.90625 
Q 47.609375 13.234375 47.609375 19.390625 
Q 47.609375 24.75 44.3125 27.78125 
Q 41.015625 30.8125 33.5 32.328125 
L 27.484375 33.5 
Q 16.453125 35.6875 11.515625 40.375 
Q 6.59375 45.0625 6.59375 53.421875 
Q 6.59375 63.09375 13.40625 68.65625 
Q 20.21875 74.21875 32.171875 74.21875 
Q 37.3125 74.21875 42.625 73.28125 
Q 47.953125 72.359375 53.515625 70.515625 
" id="DejaVuSans-53"/>
      <path d="M 45.40625 46.390625 
L 45.40625 75.984375 
L 54.390625 75.984375 
L 54.390625 0 
L 45.40625 0 
L 45.40625 8.203125 
Q 42.578125 3.328125 38.25 0.953125 
Q 33.9375 -1.421875 27.875 -1.421875 
Q 17.96875 -1.421875 11.734375 6.484375 
Q 5.515625 14.40625 5.515625 27.296875 
Q 5.515625 40.1875 11.734375 48.09375 
Q 17.96875 56 27.875 56 
Q 33.9375 56 38.25 53.625 
Q 42.578125 51.265625 45.40625 46.390625 
M 14.796875 27.296875 
Q 14.796875 17.390625 18.875 11.75 
Q 22.953125 6.109375 30.078125 6.109375 
Q 37.203125 6.109375 41.296875 11.75 
Q 45.40625 17.390625 45.40625 27.296875 
Q 45.40625 37.203125 41.296875 42.84375 
Q 37.203125 48.484375 30.078125 48.484375 
Q 22.953125 48.484375 18.875 42.84375 
Q 14.796875 37.203125 14.796875 27.296875 
" id="DejaVuSans-64"/>
      <path d="M 4.203125 54.6875 
L 13.1875 54.6875 
L 24.421875 12.015625 
L 35.59375 54.6875 
L 46.1875 54.6875 
L 57.421875 12.015625 
L 68.609375 54.6875 
L 77.59375 54.6875 
L 63.28125 0 
L 52.6875 0 
L 40.921875 44.828125 
L 29.109375 0 
L 18.5 0 
z
" id="DejaVuSans-77"/>
      <path d="M 34.28125 27.484375 
Q 23.390625 27.484375 19.1875 25 
Q 14.984375 22.515625 14.984375 16.5 
Q 14.984375 11.71875 18.140625 8.90625 
Q 21.296875 6.109375 26.703125 6.109375 
Q 34.1875 6.109375 38.703125 11.40625 
Q 43.21875 16.703125 43.21875 25.484375 
L 43.21875 27.484375 
z
M 52.203125 31.203125 
L 52.203125 0 
L 43.21875 0 
L 43.21875 8.296875 
Q 40.140625 3.328125 35.546875 0.953125 
Q 30.953125 -1.421875 24.3125 -1.421875 
Q 15.921875 -1.421875 10.953125 3.296875 
Q 6 8.015625 6 15.921875 
Q 6 25.140625 12.171875 29.828125 
Q 18.359375 34.515625 30.609375 34.515625 
L 43.21875 34.515625 
L 43.21875 35.40625 
Q 43.21875 41.609375 39.140625 45 
Q 35.0625 48.390625 27.6875 48.390625 
Q 23 48.390625 18.546875 47.265625 
Q 14.109375 46.140625 10.015625 43.890625 
L 10.015625 52.203125 
Q 14.9375 54.109375 19.578125 55.046875 
Q 24.21875 56 28.609375 56 
Q 40.484375 56 46.34375 49.84375 
Q 52.203125 43.703125 52.203125 31.203125 
" id="DejaVuSans-61"/>
      <path d="M 14.796875 27.296875 
Q 14.796875 17.390625 18.875 11.75 
Q 22.953125 6.109375 30.078125 6.109375 
Q 37.203125 6.109375 41.296875 11.75 
Q 45.40625 17.390625 45.40625 27.296875 
Q 45.40625 37.203125 41.296875 42.84375 
Q 37.203125 48.484375 30.078125 48.484375 
Q 22.953125 48.484375 18.875 42.84375 
Q 14.796875 37.203125 14.796875 27.296875 
M 45.40625 8.203125 
Q 42.578125 3.328125 38.25 0.953125 
Q 33.9375 -1.421875 27.875 -1.421875 
Q 17.96875 -1.421875 11.734375 6.484375 
Q 5.515625 14.40625 5.515625 27.296875 
Q 5.515625 40.1875 11.734375 48.09375 
Q 17.96875 56 27.875 56 
Q 33.9375 56 38.25 53.625 
Q 42.578125 51.265625 45.40625 46.390625 
L 45.40625 54.6875 
L 54.390625 54.6875 
L 54.390625 -20.796875 
L 45.40625 -20.796875 
z
" id="DejaVuSans-71"/>
      <path d="M 18.109375 8.203125 
L 18.109375 -20.796875 
L 9.078125 -20.796875 
L 9.078125 54.6875 
L 18.109375 54.6875 
L 18.109375 46.390625 
Q 20.953125 51.265625 25.265625 53.625 
Q 29.59375 56 35.59375 56 
Q 45.5625 56 51.78125 48.09375 
Q 58.015625 40.1875 58.015625 27.296875 
Q 58.015625 14.40625 51.78125 6.484375 
Q 45.5625 -1.421875 35.59375 -1.421875 
Q 29.59375 -1.421875 25.265625 0.953125 
Q 20.953125 3.328125 18.109375 8.203125 
M 48.6875 27.296875 
Q 48.6875 37.203125 44.609375 42.84375 
Q 40.53125 48.484375 33.40625 48.484375 
Q 26.265625 48.484375 22.1875 42.84375 
Q 18.109375 37.203125 18.109375 27.296875 
Q 18.109375 17.390625 22.1875 11.75 
Q 26.265625 6.109375 33.40625 6.109375 
Q 40.53125 6.109375 44.609375 11.75 
Q 48.6875 17.390625 48.6875 27.296875 
" id="DejaVuSans-70"/>
     </defs>
     <g transform="translate(25.432812 279.366281)rotate(-90)scale(0.1 -0.1)">
      <use xlink:href="#DejaVuSans-53"/>
      <use x="63.476562" xlink:href="#DejaVuSans-75"/>
      <use x="126.855469" xlink:href="#DejaVuSans-63"/>
      <use x="181.835938" xlink:href="#DejaVuSans-63"/>
      <use x="236.816406" xlink:href="#DejaVuSans-65"/>
      <use x="298.339844" xlink:href="#DejaVuSans-73"/>
      <use x="350.439453" xlink:href="#DejaVuSans-73"/>
      <use x="402.539062" xlink:href="#DejaVuSans-66"/>
      <use x="437.744141" xlink:href="#DejaVuSans-75"/>
      <use x="501.123047" xlink:href="#DejaVuSans-6c"/>
      <use x="528.90625" xlink:href="#DejaVuSans-20"/>
      <use x="560.693359" xlink:href="#DejaVuSans-64"/>
      <use x="624.169922" xlink:href="#DejaVuSans-6f"/>
      <use x="685.351562" xlink:href="#DejaVuSans-77"/>
      <use x="767.138672" xlink:href="#DejaVuSans-6e"/>
      <use x="830.517578" xlink:href="#DejaVuSans-6c"/>
      <use x="858.300781" xlink:href="#DejaVuSans-6f"/>
      <use x="919.482422" xlink:href="#DejaVuSans-61"/>
      <use x="980.761719" xlink:href="#DejaVuSans-64"/>
      <use x="1044.238281" xlink:href="#DejaVuSans-20"/>
      <use x="1076.025391" xlink:href="#DejaVuSans-72"/>
      <use x="1117.107422" xlink:href="#DejaVuSans-65"/>
      <use x="1178.630859" xlink:href="#DejaVuSans-71"/>
      <use x="1242.107422" xlink:href="#DejaVuSans-75"/>
      <use x="1305.486328" xlink:href="#DejaVuSans-65"/>
      <use x="1367.009766" xlink:href="#DejaVuSans-73"/>
      <use x="1419.109375" xlink:href="#DejaVuSans-74"/>
      <use x="1458.318359" xlink:href="#DejaVuSans-73"/>
      <use x="1510.417969" xlink:href="#DejaVuSans-20"/>
      <use x="1542.205078" xlink:href="#DejaVuSans-70"/>
      <use x="1605.681641" xlink:href="#DejaVuSans-65"/>
      <use x="1667.205078" xlink:href="#DejaVuSans-72"/>
      <use x="1708.318359" xlink:href="#DejaVuSans-20"/>
      <use x="1740.105469" xlink:href="#DejaVuSans-73"/>
      <use x="1792.205078" xlink:href="#DejaVuSans-65"/>
      <use x="1853.728516" xlink:href="#DejaVuSans-63"/>
      <use x="1908.708984" xlink:href="#DejaVuSans-6f"/>
      <use x="1969.890625" xlink:href="#DejaVuSans-6e"/>
      <use x="2033.269531" xlink:href="#DejaVuSans-64"/>
     </g>
    </g>
   </g>
   <g id="line2d_29">
    <path clip-path="url(#pdf854b3fd1)" d="M 57.6 295.487311 
L 57.95712 295.488 
L 61.1712 292.582088 
L 61.52832 292.066707 
L 62.59968 291.321884 
L 62.9568 290.776874 
L 63.31392 290.589807 
L 63.67104 290.097852 
L 64.02816 290.013793 
L 64.38528 289.472229 
L 64.7424 289.297908 
L 65.09952 288.602005 
L 65.45664 288.722238 
L 65.81376 288.239929 
L 66.17088 288.130031 
L 66.88512 287.006596 
L 67.59936 286.619371 
L 67.95648 286.018552 
L 68.3136 286.154632 
L 69.02784 285.563459 
L 69.74208 284.725963 
L 70.0992 284.561978 
L 70.45632 283.990787 
L 70.81344 283.926019 
L 71.17056 283.456802 
L 71.52768 283.253543 
L 71.8848 282.224847 
L 72.24192 282.510442 
L 72.59904 281.392519 
L 72.95616 281.922025 
L 74.02752 280.488879 
L 74.38464 280.566737 
L 74.74176 280.172622 
L 75.09888 278.99441 
L 75.456 279.181132 
L 76.17024 278.33847 
L 76.52736 278.722939 
L 77.2416 277.31873 
L 77.59872 277.160257 
L 78.31296 276.398554 
L 78.67008 276.872939 
L 79.38432 275.482856 
L 79.74144 275.33644 
L 80.09856 274.639504 
L 80.45568 275.243079 
L 81.88416 273.05753 
L 82.24128 272.747819 
L 82.5984 271.987838 
L 82.95552 271.9024 
L 83.31264 271.308127 
L 83.66976 271.09281 
L 84.02688 270.657354 
L 84.384 270.592242 
L 84.74112 270.402419 
L 85.09824 270.006237 
L 85.45536 270.709374 
L 85.81248 269.147038 
L 86.52672 269.823304 
L 87.59808 268.219626 
L 87.9552 266.659012 
L 88.31232 267.751098 
L 88.66944 267.086889 
L 89.02656 265.586908 
L 89.38368 266.561172 
L 89.7408 265.307858 
L 90.09792 265.730223 
L 90.45504 264.478631 
L 90.81216 265.83323 
L 91.16928 265.005037 
L 91.5264 264.569581 
L 91.88352 263.499544 
L 92.24064 264.077626 
L 92.59776 263.438222 
L 92.95488 262.250708 
L 93.312 263.360708 
L 93.66912 261.496583 
L 94.02624 262.125997 
L 94.38336 262.220047 
L 94.74048 261.969246 
L 95.0976 260.557114 
L 95.45472 260.594321 
L 95.81184 259.485355 
L 96.16896 259.325504 
L 96.52608 258.903139 
L 96.8832 258.163828 
L 97.24032 259.540131 
L 97.59744 258.019135 
L 97.95456 257.04935 
L 98.31168 258.295085 
L 98.6688 256.643177 
L 99.02592 257.549918 
L 99.38304 257.905448 
L 99.74016 258.011212 
L 100.09728 256.419247 
L 100.4544 255.373326 
L 100.81152 254.986445 
L 101.16864 256.602525 
L 101.52576 253.596706 
L 101.88288 253.202246 
L 102.59712 254.565803 
L 102.95424 253.686967 
L 103.31136 253.518848 
L 103.66848 252.503932 
L 104.0256 253.757246 
L 104.38272 251.528978 
L 104.73984 251.725347 
L 105.09696 252.196287 
L 105.45408 251.309183 
L 105.8112 251.784258 
L 106.52544 249.915999 
L 106.88256 251.464556 
L 107.23968 248.786363 
L 107.5968 248.667508 
L 107.95392 250.261884 
L 108.31104 248.904528 
L 108.66816 248.653383 
L 109.02528 247.236428 
L 110.09664 245.221066 
L 110.45376 246.493328 
L 110.81088 246.742062 
L 111.52512 246.210833 
L 111.88224 243.536085 
L 112.23936 244.557202 
L 112.59648 246.316596 
L 112.9536 242.642435 
L 113.31072 245.715088 
L 113.66784 243.042751 
L 114.02496 241.803217 
L 114.38208 241.235126 
L 114.7392 244.040442 
L 115.09632 241.243394 
L 115.45344 240.990182 
L 115.81056 243.489921 
L 116.16768 241.725014 
L 116.5248 242.740275 
L 116.88192 242.314465 
L 117.23904 240.82792 
L 117.59616 240.733525 
L 117.95328 237.728051 
L 118.3104 240.54508 
L 118.66752 240.673581 
L 119.02464 240.549903 
L 119.38176 238.563823 
L 119.73888 238.375723 
L 120.45312 236.658358 
L 120.81024 236.177083 
L 121.16736 235.389196 
L 121.52448 235.628284 
L 121.8816 235.500127 
L 122.23872 234.540677 
L 122.59584 235.018507 
L 122.95296 236.74104 
L 123.31008 232.877055 
L 123.6672 235.27861 
L 124.02432 231.838369 
L 124.38144 235.264485 
L 124.73856 234.197204 
L 125.09568 235.081552 
L 125.4528 233.605342 
L 125.80992 231.513843 
L 126.16704 232.561488 
L 126.52416 232.064365 
L 126.88128 230.966767 
L 127.2384 228.892494 
L 127.59552 231.446665 
L 127.95264 228.110809 
L 128.30976 231.152456 
L 129.024 229.925324 
L 129.38112 227.516191 
L 129.73824 230.883397 
L 130.09536 226.959124 
L 130.45248 230.3439 
L 130.8096 225.637597 
L 131.16672 228.226219 
L 131.52384 225.551815 
L 132.23808 228.723686 
L 132.5952 224.776676 
L 132.95232 227.445222 
L 133.30944 227.463826 
L 133.66656 222.687933 
L 134.02368 226.473025 
L 134.3808 226.148845 
L 134.73792 223.85581 
L 135.09504 224.705363 
L 135.45216 221.212756 
L 135.80928 224.968566 
L 136.1664 220.453809 
L 136.52352 223.927123 
L 136.88064 222.499143 
L 137.23776 220.275699 
L 137.59488 220.709433 
L 137.952 218.615867 
L 138.30912 223.368678 
L 138.66624 218.630336 
L 139.02336 217.652282 
L 139.38048 217.39218 
L 139.7376 221.337468 
L 140.09472 218.428455 
L 140.45184 218.915932 
L 140.80896 220.792803 
L 141.16608 220.20542 
L 141.5232 217.677776 
L 141.88032 217.965439 
L 142.23744 219.389973 
L 142.59456 218.740578 
L 142.95168 218.601053 
L 143.3088 214.567916 
L 143.66592 215.014052 
L 144.02304 216.178484 
L 144.38016 215.650011 
L 144.73728 216.820644 
L 145.0944 213.867535 
L 145.45152 214.76084 
L 145.80864 213.031762 
L 146.16576 212.732386 
L 146.52288 210.121372 
L 146.88 213.545421 
L 147.23712 214.154164 
L 147.95136 209.641474 
L 148.30848 210.709444 
L 148.6656 210.534435 
L 149.37984 213.21814 
L 149.73696 210.047303 
L 150.09408 212.413028 
L 150.4512 208.454305 
L 150.80832 211.177284 
L 151.16544 211.396045 
L 151.87968 206.709035 
L 152.2368 205.783347 
L 152.59392 207.16275 
L 152.95104 204.736736 
L 153.30816 207.368421 
L 153.66528 204.690228 
L 154.0224 203.856522 
L 154.73664 208.553867 
L 155.09376 202.531895 
L 155.45088 205.79127 
L 155.808 204.069772 
L 156.16512 204.781177 
L 156.52224 205.092611 
L 156.87936 202.1302 
L 157.23648 200.88481 
L 157.5936 201.847705 
L 157.95072 205.266242 
L 158.30784 201.298906 
L 158.66496 198.738879 
L 159.02208 200.272277 
L 159.3792 200.760443 
L 159.73632 202.461616 
L 160.09344 203.09034 
L 160.45056 200.773878 
L 160.80768 201.565899 
L 161.1648 200.316374 
L 161.52192 198.639661 
L 161.87904 200.383208 
L 162.23616 200.565108 
L 162.59328 198.417799 
L 162.9504 197.318134 
L 163.30752 194.064616 
L 163.66464 199.450629 
L 164.02176 193.808303 
L 164.37888 195.71549 
L 164.736 195.127418 
L 165.09312 194.87145 
L 165.45024 196.167483 
L 165.80736 196.005565 
L 166.16448 193.322893 
L 166.5216 193.426934 
L 166.87872 191.74092 
L 167.23584 190.926851 
L 167.59296 196.920918 
L 167.95008 190.608527 
L 168.3072 191.247242 
L 168.66432 188.974877 
L 169.02144 192.092316 
L 169.37856 192.937391 
L 169.73568 188.277252 
L 170.0928 194.574141 
L 170.44992 190.640566 
L 170.80704 188.496014 
L 171.16416 190.434896 
L 171.52128 186.995688 
L 171.8784 188.035753 
L 172.23552 187.304021 
L 172.59264 191.345426 
L 173.30688 187.62579 
L 173.664 187.981665 
L 174.02112 189.048946 
L 174.37824 184.447374 
L 174.73536 185.411992 
L 175.09248 188.502904 
L 175.4496 182.558101 
L 175.80672 183.564059 
L 176.16384 186.875455 
L 176.52096 186.451023 
L 176.87808 184.431182 
L 177.2352 183.330139 
L 177.59232 180.523101 
L 177.94944 185.259031 
L 178.30656 186.569189 
L 178.66368 179.133707 
L 179.0208 183.135149 
L 179.37792 184.349534 
L 179.73504 178.035076 
L 180.09216 181.048818 
L 180.44928 181.103939 
L 180.8064 183.499637 
L 181.16352 177.800467 
L 181.52064 176.672553 
L 181.87776 179.509908 
L 182.23488 177.980644 
L 182.592 178.53771 
L 182.94912 179.709032 
L 183.30624 176.925076 
L 183.66336 182.273883 
L 184.02048 175.574955 
L 184.3776 175.038559 
L 184.73472 175.101603 
L 185.09184 181.305475 
L 185.80608 174.06705 
L 186.1632 173.936138 
L 186.52032 175.0861 
L 186.87744 171.42572 
L 187.23456 176.395569 
L 187.59168 176.189555 
L 187.9488 178.061258 
L 188.30592 173.087274 
L 188.66304 177.212394 
L 189.02016 173.978512 
L 189.37728 168.966633 
L 189.7344 169.943308 
L 190.09152 175.087478 
L 190.80576 168.041288 
L 191.16288 171.612787 
L 191.52 167.31059 
L 191.87712 166.877201 
L 192.23424 170.962014 
L 192.59136 172.244267 
L 192.94848 170.025301 
L 193.3056 165.093002 
L 193.66272 165.888468 
L 194.01984 172.134025 
L 194.37696 164.199697 
L 194.73408 164.198319 
L 195.0912 171.394714 
L 195.44832 164.983794 
L 195.80544 166.399371 
L 196.16256 162.181578 
L 196.51968 169.932973 
L 196.8768 166.129278 
L 197.23392 165.400991 
L 197.59104 161.370955 
L 197.94816 167.690581 
L 198.30528 165.701745 
L 198.6624 164.466689 
L 199.01952 162.329027 
L 199.37664 168.138439 
L 199.73376 159.351458 
L 200.09088 165.763067 
L 200.448 163.671913 
L 200.80512 166.165106 
L 201.16224 164.125973 
L 201.51936 159.580555 
L 201.87648 156.72873 
L 202.2336 164.940041 
L 202.59072 156.921309 
L 202.94784 165.294883 
L 203.30496 161.894604 
L 203.66208 156.890993 
L 204.0192 163.195805 
L 204.37632 157.846998 
L 204.73344 163.681215 
L 205.09056 154.844969 
L 205.44768 157.429112 
L 205.8048 157.564847 
L 206.16192 158.084708 
L 206.51904 160.941355 
L 206.87616 154.549383 
L 207.23328 158.536011 
L 207.5904 154.582455 
L 207.94752 159.10927 
L 208.30464 154.103247 
L 208.66176 153.032865 
L 209.01888 156.621589 
L 209.376 152.091329 
L 209.73312 151.927689 
L 210.09024 152.496124 
L 210.44736 157.145583 
L 210.80448 151.483275 
L 211.1616 148.398909 
L 211.51872 155.435453 
L 211.87584 151.130156 
L 212.23296 148.236991 
L 212.59008 147.83323 
L 212.9472 151.384057 
L 213.30432 147.266861 
L 213.66144 146.768016 
L 214.37568 155.158815 
L 215.08992 147.062569 
L 215.44704 149.720436 
L 215.80416 153.331897 
L 216.16128 150.205156 
L 216.5184 148.782345 
L 216.87552 149.054505 
L 217.23264 152.05619 
L 217.58976 149.897857 
L 217.94688 141.581127 
L 218.304 149.214011 
L 218.66112 145.614264 
L 219.01824 145.695567 
L 219.37536 149.121339 
L 219.73248 148.458164 
L 220.0896 145.752411 
L 220.44672 142.057579 
L 220.80384 145.147802 
L 221.16096 147.236889 
L 221.51808 143.304003 
L 221.8752 146.055576 
L 222.23232 147.764328 
L 222.58944 142.685959 
L 222.94656 144.397467 
L 223.30368 138.86745 
L 223.6608 144.62932 
L 224.01792 138.348278 
L 224.37504 141.118455 
L 224.73216 134.907348 
L 225.08928 141.326881 
L 225.4464 137.710597 
L 225.80352 144.029879 
L 226.16064 133.725346 
L 226.51776 143.123138 
L 226.87488 134.101548 
L 227.232 139.464824 
L 227.58912 142.808948 
L 227.94624 141.222151 
L 228.30336 134.604182 
L 228.66048 137.778465 
L 229.0176 137.633428 
L 229.37472 140.435987 
L 229.73184 135.242553 
L 230.08896 132.370058 
L 230.44608 132.93057 
L 230.8032 131.061623 
L 231.16032 135.374843 
L 231.51744 128.550171 
L 231.87456 138.668669 
L 232.23168 137.721621 
L 232.5888 129.883066 
L 232.94592 129.295683 
L 233.30304 130.70058 
L 233.66016 130.471828 
L 234.01728 128.873662 
L 234.3744 134.826734 
L 234.73152 127.312704 
L 235.08864 124.76749 
L 235.44576 135.604285 
L 235.80288 132.743503 
L 236.16 127.89492 
L 236.51712 126.22992 
L 236.87424 133.760486 
L 237.23136 125.929166 
L 237.58848 133.017386 
L 237.9456 127.214175 
L 238.30272 125.293896 
L 238.65984 131.265915 
L 239.01696 122.500638 
L 239.37408 123.718123 
L 239.7312 129.07451 
L 240.44544 121.864334 
L 240.80256 130.790496 
L 241.15968 130.332303 
L 241.5168 120.683366 
L 241.87392 126.415953 
L 242.23104 124.566298 
L 242.58816 124.897369 
L 242.94528 127.370925 
L 243.3024 125.140246 
L 243.65952 124.183552 
L 244.01664 120.505601 
L 244.37376 120.787752 
L 244.73088 120.41534 
L 245.088 121.118822 
L 245.80224 114.912194 
L 246.15936 123.710889 
L 246.51648 123.793226 
L 246.8736 114.82779 
L 247.23072 115.766915 
L 247.58784 115.979475 
L 247.94496 119.870331 
L 248.30208 117.814661 
L 248.6592 117.042622 
L 249.01632 123.119371 
L 249.37344 116.814559 
L 249.73056 118.673516 
L 250.08768 117.785378 
L 250.80192 113.007418 
L 251.15904 113.352958 
L 251.51616 111.597698 
L 251.87328 118.855071 
L 252.2304 118.488516 
L 252.58752 114.352716 
L 252.94464 117.086375 
L 253.30176 117.636207 
L 253.65888 110.958983 
L 254.016 115.443768 
L 254.37312 116.507259 
L 254.73024 111.221152 
L 255.08736 112.481012 
L 255.44448 119.959903 
L 255.8016 117.881495 
L 256.15872 109.401814 
L 256.51584 112.157865 
L 256.87296 116.913777 
L 257.23008 111.178089 
L 257.5872 111.203583 
L 257.94432 114.858796 
L 258.30144 112.753862 
L 258.65856 118.274233 
L 259.01568 119.329111 
L 259.3728 110.620678 
L 260.08704 118.567752 
L 260.44416 108.787214 
L 260.80128 108.934663 
L 261.1584 111.537065 
L 261.51552 117.427436 
L 261.87264 108.779291 
L 262.22976 106.749459 
L 262.58688 106.937904 
L 262.944 104.676564 
L 263.30112 117.018851 
L 263.65824 110.337149 
L 264.01536 108.705222 
L 264.7296 116.470397 
L 265.44384 104.229394 
L 265.80096 112.854113 
L 266.15808 105.987755 
L 266.5152 104.346182 
L 266.87232 109.670184 
L 267.22944 104.219404 
L 267.58656 109.687065 
L 267.94368 113.336766 
L 268.3008 109.421106 
L 268.65792 112.141329 
L 269.01504 111.814393 
L 269.37216 110.984821 
L 269.72928 105.793798 
L 270.44352 113.279578 
L 270.80064 109.35944 
L 271.15776 108.826488 
L 271.51488 104.652793 
L 271.872 108.550539 
L 272.22912 103.347113 
L 272.58624 101.511238 
L 272.94336 106.510371 
L 273.30048 103.511787 
L 273.6576 103.44013 
L 274.01472 111.947372 
L 274.37184 101.239767 
L 274.72896 104.77647 
L 275.08608 101.025829 
L 275.4432 108.87024 
L 275.80032 109.876888 
L 276.15744 108.97187 
L 276.51456 99.608529 
L 276.87168 101.342086 
L 277.2288 111.824039 
L 277.58592 107.52322 
L 277.94304 110.800855 
L 278.30016 108.484393 
L 278.65728 103.813575 
L 279.0144 103.801517 
L 279.37152 104.551852 
L 279.72864 109.101749 
L 280.08576 106.763928 
L 280.8 103.913137 
L 281.15712 98.759321 
L 281.51424 110.334393 
L 281.87136 102.491704 
L 282.22848 100.768138 
L 282.5856 101.25906 
L 282.94272 106.117634 
L 283.29984 98.572254 
L 283.65696 102.235046 
L 284.01408 102.617793 
L 284.3712 102.67946 
L 284.72832 103.931741 
L 285.08544 102.258128 
L 285.44256 95.564024 
L 285.79968 106.227876 
L 286.1568 97.74475 
L 286.51392 97.201463 
L 286.87104 107.327196 
L 287.22816 105.186433 
L 287.58528 108.505064 
L 287.9424 103.855605 
L 288.29952 104.99351 
L 288.65664 100.970708 
L 289.01376 106.04701 
L 289.37088 100.000233 
L 289.728 103.853538 
L 290.08512 95.648083 
L 290.44224 100.084637 
L 290.79936 106.623369 
L 291.15648 100.28893 
L 291.5136 96.895886 
L 291.87072 104.737886 
L 292.22784 104.823323 
L 292.58496 96.510728 
L 292.94208 94.273503 
L 293.2992 98.109237 
L 293.65632 94.375477 
L 294.01344 93.13043 
L 294.37056 99.012878 
L 294.72768 94.046473 
L 295.0848 94.584248 
L 295.44192 96.394284 
L 295.79904 100.237254 
L 296.15616 102.611937 
L 296.8704 105.251889 
L 297.22752 92.113447 
L 297.58464 99.466937 
L 297.94176 90.814314 
L 298.656 99.069032 
L 299.01312 100.192468 
L 299.37024 102.713221 
L 299.72736 98.312152 
L 300.08448 103.472169 
L 300.4416 94.107106 
L 300.79872 96.71812 
L 301.15584 96.085262 
L 301.51296 103.352281 
L 302.2272 90.465673 
L 302.58432 102.736992 
L 302.94144 96.314703 
L 303.29856 100.30271 
L 303.65568 92.464844 
L 304.0128 94.71516 
L 304.36992 93.658559 
L 304.72704 88.8241 
L 305.08416 90.422954 
L 305.44128 100.170075 
L 305.7984 91.881595 
L 306.15552 98.11785 
L 306.86976 89.674686 
L 307.22688 90.523206 
L 307.584 90.949705 
L 308.29824 90.928001 
L 308.65536 98.889889 
L 309.3696 93.797395 
L 309.72672 96.002581 
L 310.08384 96.773586 
L 310.44096 86.438393 
L 310.79808 100.403995 
L 311.1552 91.557414 
L 311.51232 95.180244 
L 311.86944 94.292451 
L 312.22656 95.08137 
L 312.58368 95.3711 
L 312.9408 93.082199 
L 313.29792 99.092803 
L 313.65504 89.854863 
L 314.01216 89.065254 
L 314.36928 91.938438 
L 314.7264 88.089957 
L 315.08352 94.900849 
L 315.44064 85.456205 
L 315.79776 89.134845 
L 316.15488 90.491856 
L 316.512 90.279295 
L 317.22624 85.668421 
L 317.58336 94.795774 
L 317.94048 85.327704 
L 318.2976 85.291186 
L 318.65472 84.986987 
L 319.01184 96.890718 
L 319.36896 97.547347 
L 319.72608 84.759957 
L 320.0832 86.170711 
L 320.44032 96.836286 
L 320.79744 84.310032 
L 321.15456 85.290842 
L 321.51168 84.538784 
L 321.8688 91.34003 
L 322.22592 86.385683 
L 322.58304 87.910124 
L 322.94016 93.122851 
L 323.29728 93.453922 
L 323.6544 87.12465 
L 324.36864 96.223409 
L 324.72576 94.619732 
L 325.08288 86.081829 
L 325.44 95.529229 
L 325.79712 89.346372 
L 326.15424 90.929034 
L 326.51136 80.591774 
L 326.86848 91.159854 
L 327.2256 90.996557 
L 327.58272 87.55735 
L 327.93984 90.821548 
L 328.29696 82.390442 
L 328.65408 89.981641 
L 329.0112 88.093402 
L 329.36832 93.683019 
L 329.72544 82.250573 
L 330.08256 92.16409 
L 330.43968 87.80126 
L 330.7968 81.370014 
L 331.15392 87.792992 
L 331.51104 87.006484 
L 331.86816 81.248748 
L 332.22528 90.968652 
L 332.5824 84.21736 
L 332.93952 89.565133 
L 333.29664 83.933486 
L 333.65376 91.375859 
L 334.01088 84.397192 
L 334.368 90.322358 
L 334.72512 81.732435 
L 335.08224 89.237163 
L 335.43936 86.767741 
L 335.79648 81.389306 
L 336.1536 78.025546 
L 336.51072 90.88976 
L 336.86784 89.703625 
L 337.22496 90.034006 
L 337.58208 85.595041 
L 337.9392 84.020991 
L 338.29632 89.907917 
L 338.65344 87.750962 
L 339.01056 89.54274 
L 339.36768 81.723822 
L 339.7248 88.269789 
L 340.08192 83.228971 
L 340.43904 76.041188 
L 340.79616 80.745768 
L 341.15328 77.050592 
L 341.5104 79.523804 
L 341.86752 83.713691 
L 342.22464 83.320265 
L 342.58176 84.889492 
L 342.93888 87.574231 
L 343.296 84.738254 
L 343.65312 76.063237 
L 344.01024 82.186839 
L 344.36736 82.505507 
L 344.72448 84.871922 
L 345.0816 78.056207 
L 345.43872 82.176848 
L 345.79584 76.440127 
L 346.15296 86.236857 
L 346.51008 78.490629 
L 346.8672 76.383283 
L 347.22432 79.099028 
L 347.58144 88.716614 
L 347.93856 82.654679 
L 348.29568 74.310044 
L 348.6528 81.258394 
L 349.00992 82.034222 
L 349.36704 85.855832 
L 349.72416 80.495657 
L 350.08128 79.100406 
L 350.4384 85.476531 
L 350.79552 77.213544 
L 351.15264 87.493616 
L 351.50976 83.123896 
L 351.86688 75.975732 
L 352.224 78.102715 
L 352.58112 82.899278 
L 352.93824 75.301189 
L 353.29536 71.982214 
L 353.65248 74.992511 
L 354.0096 71.969122 
L 354.36672 80.37818 
L 354.72384 73.546617 
L 355.43808 83.50871 
L 355.7952 76.006738 
L 356.15232 77.927706 
L 356.50944 73.886645 
L 356.86656 76.724345 
L 357.22368 84.951158 
L 357.5808 72.516888 
L 357.93792 84.687267 
L 358.29504 78.963637 
L 359.00928 70.80848 
L 359.3664 72.357037 
L 359.72352 72.290891 
L 360.08064 73.065342 
L 360.43776 69.334337 
L 360.79488 74.965984 
L 361.152 78.173683 
L 361.50912 70.594542 
L 361.86624 82.405256 
L 362.22336 84.206336 
L 362.58048 75.330127 
L 362.9376 73.451534 
L 363.29472 83.057751 
L 363.65184 81.691783 
L 364.00896 68.714915 
L 364.36608 78.269801 
L 364.7232 71.871283 
L 365.08032 77.780601 
L 365.43744 70.065724 
L 365.79456 70.384737 
L 366.15168 79.165517 
L 366.5088 71.584309 
L 366.86592 71.696962 
L 367.22304 81.501616 
L 367.58016 71.202251 
L 367.93728 80.519772 
L 368.2944 78.343525 
L 368.65152 81.751383 
L 369.00864 76.314382 
L 369.36576 77.780601 
L 369.72288 74.522949 
L 370.08 69.557233 
L 370.43712 66.66269 
L 370.79424 75.613656 
L 371.15136 78.356616 
L 371.50848 68.468937 
L 371.8656 80.836374 
L 372.22272 71.343843 
L 372.57984 66.974124 
L 372.93696 75.210239 
L 373.29408 80.546644 
L 373.6512 68.838248 
L 374.00832 68.72835 
L 374.36544 73.665472 
L 374.72256 65.595409 
L 375.07968 69.710194 
L 375.4368 67.057839 
L 375.79392 75.197492 
L 376.15104 68.572633 
L 376.50816 76.54279 
L 376.86528 78.677352 
L 377.2224 70.32376 
L 377.57952 69.598229 
L 377.93664 77.715145 
L 378.65088 64.474385 
L 379.008 76.149019 
L 379.36512 76.582064 
L 379.72224 79.150015 
L 380.07936 69.885892 
L 380.43648 73.252409 
L 380.7936 68.969849 
L 381.15072 72.453843 
L 381.50784 78.668739 
L 381.86496 75.494457 
L 382.22208 67.838146 
L 382.5792 68.139589 
L 383.29344 67.286935 
L 384.00768 77.461244 
L 384.3648 61.949153 
L 384.72192 63.10256 
L 385.07904 65.07796 
L 385.43616 66.102867 
L 385.79328 72.269877 
L 386.1504 65.264683 
L 386.50752 61.047579 
L 386.86464 75.313246 
L 387.57888 63.881489 
L 387.936 75.286719 
L 388.29312 68.511311 
L 388.65024 70.912177 
L 389.00736 60.995214 
L 389.36448 68.65876 
L 389.7216 71.971534 
L 390.07872 65.31188 
L 390.43584 61.967756 
L 390.79296 60.455373 
L 391.15008 69.063211 
L 391.5072 73.360584 
L 391.86432 75.609522 
L 392.22144 67.195641 
L 392.57856 66.378816 
L 392.93568 61.997728 
L 393.2928 74.594606 
L 393.64992 59.628557 
L 394.00704 65.629515 
L 394.36416 58.683576 
L 394.72128 72.16618 
L 395.0784 73.212102 
L 395.43552 69.85213 
L 395.79264 59.502468 
L 396.14976 69.748434 
L 396.50688 62.470046 
L 396.864 60.599376 
L 397.22112 72.676739 
L 397.57824 63.106005 
L 397.93536 63.118407 
L 398.29248 59.175876 
L 398.6496 59.671276 
L 399.00672 60.86878 
L 399.36384 64.189823 
L 399.72096 71.994271 
L 400.07808 65.856545 
L 400.4352 71.694895 
L 400.79232 62.538603 
L 401.14944 62.016331 
L 401.86368 56.596212 
L 402.2208 70.258992 
L 402.57792 70.243145 
L 403.64928 57.345169 
L 404.0064 72.232325 
L 404.36352 58.413483 
L 404.72064 57.737561 
L 405.07776 64.162951 
L 405.43488 66.33472 
L 405.792 57.930141 
L 406.14912 67.836079 
L 406.50624 68.765213 
L 406.86336 58.968138 
L 407.22048 56.570374 
L 407.5776 55.318437 
L 407.93472 58.017301 
L 408.29184 54.687301 
L 408.64896 68.409337 
L 409.00608 58.604684 
L 409.3632 58.704935 
L 409.72032 63.375409 
L 410.07744 54.944648 
L 410.43456 66.73228 
L 411.1488 56.447729 
L 411.50592 67.606982 
L 411.86304 68.578146 
L 412.22016 59.976164 
L 412.57728 68.468592 
L 412.9344 59.944125 
L 413.29152 69.888993 
L 413.64864 54.097162 
L 414.00576 56.665113 
L 414.36288 53.568 
L 414.72 60.497058 
L 414.72 60.497058 
" style="fill:none;stroke:#000080;stroke-linecap:square;stroke-width:0.5;"/>
   </g>
   <g id="patch_3">
    <path d="M 57.6 307.584 
L 57.6 41.472 
" style="fill:none;stroke:#000000;stroke-linecap:square;stroke-linejoin:miter;stroke-width:0.8;"/>
   </g>
   <g id="patch_4">
    <path d="M 414.72 307.584 
L 414.72 41.472 
" style="fill:none;stroke:#000000;stroke-linecap:square;stroke-linejoin:miter;stroke-width:0.8;"/>
   </g>
   <g id="patch_5">
    <path d="M 57.6 307.584 
L 414.72 307.584 
" style="fill:none;stroke:#000000;stroke-linecap:square;stroke-linejoin:miter;stroke-width:0.8;"/>
   </g>
   <g id="patch_6">
    <path d="M 57.6 41.472 
L 414.72 41.472 
" style="fill:none;stroke:#000000;stroke-linecap:square;stroke-linejoin:miter;stroke-width:0.8;"/>
   </g>
   <g id="text_17">
    <!-- Test -->
    <defs>
     <path d="M -0.296875 72.90625 
L 61.375 72.90625 
L 61.375 64.59375 
L 35.5 64.59375 
L 35.5 0 
L 25.59375 0 
L 25.59375 64.59375 
L -0.296875 64.59375 
z
" id="DejaVuSans-54"/>
    </defs>
    <g transform="translate(223.341563 35.472)scale(0.12 -0.12)">
     <use xlink:href="#DejaVuSans-54"/>
     <use x="60.818359" xlink:href="#DejaVuSans-65"/>
     <use x="122.341797" xlink:href="#DejaVuSans-73"/>
     <use x="174.441406" xlink:href="#DejaVuSans-74"/>
    </g>
   </g>
   <g id="legend_1">
    <g id="patch_7">
     <path d="M 64.6 64.150125 
L 306.276563 64.150125 
Q 308.276563 64.150125 308.276563 62.150125 
L 308.276563 48.472 
Q 308.276563 46.472 306.276563 46.472 
L 64.6 46.472 
Q 62.6 46.472 62.6 48.472 
L 62.6 62.150125 
Q 62.6 64.150125 64.6 64.150125 
z
" style="fill:#ffffff;opacity:0.8;stroke:#cccccc;stroke-linejoin:miter;"/>
    </g>
    <g id="line2d_30">
     <path d="M 66.6 54.570438 
L 86.6 54.570438 
" style="fill:none;stroke:#000080;stroke-linecap:square;stroke-width:0.5;"/>
    </g>
    <g id="line2d_31"/>
    <g id="text_18">
     <!-- Successful download requests per second -->
     <g transform="translate(94.6 58.070438)scale(0.1 -0.1)">
      <use xlink:href="#DejaVuSans-53"/>
      <use x="63.476562" xlink:href="#DejaVuSans-75"/>
      <use x="126.855469" xlink:href="#DejaVuSans-63"/>
      <use x="181.835938" xlink:href="#DejaVuSans-63"/>
      <use x="236.816406" xlink:href="#DejaVuSans-65"/>
      <use x="298.339844" xlink:href="#DejaVuSans-73"/>
      <use x="350.439453" xlink:href="#DejaVuSans-73"/>
      <use x="402.539062" xlink:href="#DejaVuSans-66"/>
      <use x="437.744141" xlink:href="#DejaVuSans-75"/>
      <use x="501.123047" xlink:href="#DejaVuSans-6c"/>
      <use x="528.90625" xlink:href="#DejaVuSans-20"/>
      <use x="560.693359" xlink:href="#DejaVuSans-64"/>
      <use x="624.169922" xlink:href="#DejaVuSans-6f"/>
      <use x="685.351562" xlink:href="#DejaVuSans-77"/>
      <use x="767.138672" xlink:href="#DejaVuSans-6e"/>
      <use x="830.517578" xlink:href="#DejaVuSans-6c"/>
      <use x="858.300781" xlink:href="#DejaVuSans-6f"/>
      <use x="919.482422" xlink:href="#DejaVuSans-61"/>
      <use x="980.761719" xlink:href="#DejaVuSans-64"/>
      <use x="1044.238281" xlink:href="#DejaVuSans-20"/>
      <use x="1076.025391" xlink:href="#DejaVuSans-72"/>
      <use x="1117.107422" xlink:href="#DejaVuSans-65"/>
      <use x="1178.630859" xlink:href="#DejaVuSans-71"/>
      <use x="1242.107422" xlink:href="#DejaVuSans-75"/>
      <use x="1305.486328" xlink:href="#DejaVuSans-65"/>
      <use x="1367.009766" xlink:href="#DejaVuSans-73"/>
      <use x="1419.109375" xlink:href="#DejaVuSans-74"/>
      <use x="1458.318359" xlink:href="#DejaVuSans-73"/>
      <use x="1510.417969" xlink:href="#DejaVuSans-20"/>
      <use x="1542.205078" xlink:href="#DejaVuSans-70"/>
      <use x="1605.681641" xlink:href="#DejaVuSans-65"/>
      <use x="1667.205078" xlink:href="#DejaVuSans-72"/>
      <use x="1708.318359" xlink:href="#DejaVuSans-20"/>
      <use x="1740.105469" xlink:href="#DejaVuSans-73"/>
      <use x="1792.205078" xlink:href="#DejaVuSans-65"/>
      <use x="1853.728516" xlink:href="#DejaVuSans-63"/>
      <use x="1908.708984" xlink:href="#DejaVuSans-6f"/>
      <use x="1969.890625" xlink:href="#DejaVuSans-6e"/>
      <use x="2033.269531" xlink:href="#DejaVuSans-64"/>
     </g>
    </g>
   </g>
  </g>
 </g>
 <defs>
  <clipPath id="pdf854b3fd1">
   <rect height="266.112" width="357.12" x="57.6" y="41.472"/>
  </clipPath>
 </defs>
</svg>
