<?xml version="1.0" encoding="utf-8" standalone="no"?>
<!DOCTYPE svg PUBLIC "-//W3C//DTD SVG 1.1//EN"
  "http://www.w3.org/Graphics/SVG/1.1/DTD/svg11.dtd">
<!-- Created with matplotlib (http://matplotlib.org/) -->
<svg height="345pt" version="1.1" viewBox="0 0 460 345" width="460pt" xmlns="http://www.w3.org/2000/svg" xmlns:xlink="http://www.w3.org/1999/xlink">
 <defs>
  <style type="text/css">
*{stroke-linecap:butt;stroke-linejoin:round;}
  </style>
 </defs>
 <g id="figure_1">
  <g id="patch_1">
   <path d="M 0 345.6 
L 460.8 345.6 
L 460.8 0 
L 0 0 
z
" style="fill:#ffffff;"/>
  </g>
  <g id="axes_1">
   <g id="patch_2">
    <path d="M 57.6 307.584 
L 414.72 307.584 
L 414.72 41.472 
L 57.6 41.472 
z
" style="fill:#ffffff;"/>
   </g>
   <g id="matplotlib.axis_1">
    <g id="xtick_1">
     <g id="line2d_1">
      <path clip-path="url(#p60febca4b5)" d="M 57.6 307.584 
L 57.6 41.472 
" style="fill:none;stroke:#b0b0b0;stroke-linecap:square;stroke-width:0.8;"/>
     </g>
     <g id="line2d_2">
      <defs>
       <path d="M 0 0 
L 0 3.5 
" id="m03d32f16c3" style="stroke:#000000;stroke-width:0.8;"/>
      </defs>
      <g>
       <use style="stroke:#000000;stroke-width:0.8;" x="57.6" xlink:href="#m03d32f16c3" y="307.584"/>
      </g>
     </g>
     <g id="text_1">
      <!-- 0 -->
      <defs>
       <path d="M 31.78125 66.40625 
Q 24.171875 66.40625 20.328125 58.90625 
Q 16.5 51.421875 16.5 36.375 
Q 16.5 21.390625 20.328125 13.890625 
Q 24.171875 6.390625 31.78125 6.390625 
Q 39.453125 6.390625 43.28125 13.890625 
Q 47.125 21.390625 47.125 36.375 
Q 47.125 51.421875 43.28125 58.90625 
Q 39.453125 66.40625 31.78125 66.40625 
M 31.78125 74.21875 
Q 44.046875 74.21875 50.515625 64.515625 
Q 56.984375 54.828125 56.984375 36.375 
Q 56.984375 17.96875 50.515625 8.265625 
Q 44.046875 -1.421875 31.78125 -1.421875 
Q 19.53125 -1.421875 13.0625 8.265625 
Q 6.59375 17.96875 6.59375 36.375 
Q 6.59375 54.828125 13.0625 64.515625 
Q 19.53125 74.21875 31.78125 74.21875 
" id="DejaVuSans-30"/>
      </defs>
      <g transform="translate(54.41875 322.182437)scale(0.1 -0.1)">
       <use xlink:href="#DejaVuSans-30"/>
      </g>
     </g>
    </g>
    <g id="xtick_2">
     <g id="line2d_3">
      <path clip-path="url(#p60febca4b5)" d="M 129.024 307.584 
L 129.024 41.472 
" style="fill:none;stroke:#b0b0b0;stroke-linecap:square;stroke-width:0.8;"/>
     </g>
     <g id="line2d_4">
      <g>
       <use style="stroke:#000000;stroke-width:0.8;" x="129.024" xlink:href="#m03d32f16c3" y="307.584"/>
      </g>
     </g>
     <g id="text_2">
      <!-- 200 -->
      <defs>
       <path d="M 19.1875 8.296875 
L 53.609375 8.296875 
L 53.609375 0 
L 7.328125 0 
L 7.328125 8.296875 
Q 12.9375 14.109375 22.625 23.890625 
Q 32.328125 33.6875 34.8125 36.53125 
Q 39.546875 41.84375 41.421875 45.53125 
Q 43.3125 49.21875 43.3125 52.78125 
Q 43.3125 58.59375 39.234375 62.25 
Q 35.15625 65.921875 28.609375 65.921875 
Q 23.96875 65.921875 18.8125 64.3125 
Q 13.671875 62.703125 7.8125 59.421875 
L 7.8125 69.390625 
Q 13.765625 71.78125 18.9375 73 
Q 24.125 74.21875 28.421875 74.21875 
Q 39.75 74.21875 46.484375 68.546875 
Q 53.21875 62.890625 53.21875 53.421875 
Q 53.21875 48.921875 51.53125 44.890625 
Q 49.859375 40.875 45.40625 35.40625 
Q 44.1875 33.984375 37.640625 27.21875 
Q 31.109375 20.453125 19.1875 8.296875 
" id="DejaVuSans-32"/>
      </defs>
      <g transform="translate(119.48025 322.182437)scale(0.1 -0.1)">
       <use xlink:href="#DejaVuSans-32"/>
       <use x="63.623047" xlink:href="#DejaVuSans-30"/>
       <use x="127.246094" xlink:href="#DejaVuSans-30"/>
      </g>
     </g>
    </g>
    <g id="xtick_3">
     <g id="line2d_5">
      <path clip-path="url(#p60febca4b5)" d="M 200.448 307.584 
L 200.448 41.472 
" style="fill:none;stroke:#b0b0b0;stroke-linecap:square;stroke-width:0.8;"/>
     </g>
     <g id="line2d_6">
      <g>
       <use style="stroke:#000000;stroke-width:0.8;" x="200.448" xlink:href="#m03d32f16c3" y="307.584"/>
      </g>
     </g>
     <g id="text_3">
      <!-- 400 -->
      <defs>
       <path d="M 37.796875 64.3125 
L 12.890625 25.390625 
L 37.796875 25.390625 
z
M 35.203125 72.90625 
L 47.609375 72.90625 
L 47.609375 25.390625 
L 58.015625 25.390625 
L 58.015625 17.1875 
L 47.609375 17.1875 
L 47.609375 0 
L 37.796875 0 
L 37.796875 17.1875 
L 4.890625 17.1875 
L 4.890625 26.703125 
z
" id="DejaVuSans-34"/>
      </defs>
      <g transform="translate(190.90425 322.182437)scale(0.1 -0.1)">
       <use xlink:href="#DejaVuSans-34"/>
       <use x="63.623047" xlink:href="#DejaVuSans-30"/>
       <use x="127.246094" xlink:href="#DejaVuSans-30"/>
      </g>
     </g>
    </g>
    <g id="xtick_4">
     <g id="line2d_7">
      <path clip-path="url(#p60febca4b5)" d="M 271.872 307.584 
L 271.872 41.472 
" style="fill:none;stroke:#b0b0b0;stroke-linecap:square;stroke-width:0.8;"/>
     </g>
     <g id="line2d_8">
      <g>
       <use style="stroke:#000000;stroke-width:0.8;" x="271.872" xlink:href="#m03d32f16c3" y="307.584"/>
      </g>
     </g>
     <g id="text_4">
      <!-- 600 -->
      <defs>
       <path d="M 33.015625 40.375 
Q 26.375 40.375 22.484375 35.828125 
Q 18.609375 31.296875 18.609375 23.390625 
Q 18.609375 15.53125 22.484375 10.953125 
Q 26.375 6.390625 33.015625 6.390625 
Q 39.65625 6.390625 43.53125 10.953125 
Q 47.40625 15.53125 47.40625 23.390625 
Q 47.40625 31.296875 43.53125 35.828125 
Q 39.65625 40.375 33.015625 40.375 
M 52.59375 71.296875 
L 52.59375 62.3125 
Q 48.875 64.0625 45.09375 64.984375 
Q 41.3125 65.921875 37.59375 65.921875 
Q 27.828125 65.921875 22.671875 59.328125 
Q 17.53125 52.734375 16.796875 39.40625 
Q 19.671875 43.65625 24.015625 45.921875 
Q 28.375 48.1875 33.59375 48.1875 
Q 44.578125 48.1875 50.953125 41.515625 
Q 57.328125 34.859375 57.328125 23.390625 
Q 57.328125 12.15625 50.6875 5.359375 
Q 44.046875 -1.421875 33.015625 -1.421875 
Q 20.359375 -1.421875 13.671875 8.265625 
Q 6.984375 17.96875 6.984375 36.375 
Q 6.984375 53.65625 15.1875 63.9375 
Q 23.390625 74.21875 37.203125 74.21875 
Q 40.921875 74.21875 44.703125 73.484375 
Q 48.484375 72.75 52.59375 71.296875 
" id="DejaVuSans-36"/>
      </defs>
      <g transform="translate(262.32825 322.182437)scale(0.1 -0.1)">
       <use xlink:href="#DejaVuSans-36"/>
       <use x="63.623047" xlink:href="#DejaVuSans-30"/>
       <use x="127.246094" xlink:href="#DejaVuSans-30"/>
      </g>
     </g>
    </g>
    <g id="xtick_5">
     <g id="line2d_9">
      <path clip-path="url(#p60febca4b5)" d="M 343.296 307.584 
L 343.296 41.472 
" style="fill:none;stroke:#b0b0b0;stroke-linecap:square;stroke-width:0.8;"/>
     </g>
     <g id="line2d_10">
      <g>
       <use style="stroke:#000000;stroke-width:0.8;" x="343.296" xlink:href="#m03d32f16c3" y="307.584"/>
      </g>
     </g>
     <g id="text_5">
      <!-- 800 -->
      <defs>
       <path d="M 31.78125 34.625 
Q 24.75 34.625 20.71875 30.859375 
Q 16.703125 27.09375 16.703125 20.515625 
Q 16.703125 13.921875 20.71875 10.15625 
Q 24.75 6.390625 31.78125 6.390625 
Q 38.8125 6.390625 42.859375 10.171875 
Q 46.921875 13.96875 46.921875 20.515625 
Q 46.921875 27.09375 42.890625 30.859375 
Q 38.875 34.625 31.78125 34.625 
M 21.921875 38.8125 
Q 15.578125 40.375 12.03125 44.71875 
Q 8.5 49.078125 8.5 55.328125 
Q 8.5 64.0625 14.71875 69.140625 
Q 20.953125 74.21875 31.78125 74.21875 
Q 42.671875 74.21875 48.875 69.140625 
Q 55.078125 64.0625 55.078125 55.328125 
Q 55.078125 49.078125 51.53125 44.71875 
Q 48 40.375 41.703125 38.8125 
Q 48.828125 37.15625 52.796875 32.3125 
Q 56.78125 27.484375 56.78125 20.515625 
Q 56.78125 9.90625 50.3125 4.234375 
Q 43.84375 -1.421875 31.78125 -1.421875 
Q 19.734375 -1.421875 13.25 4.234375 
Q 6.78125 9.90625 6.78125 20.515625 
Q 6.78125 27.484375 10.78125 32.3125 
Q 14.796875 37.15625 21.921875 38.8125 
M 18.3125 54.390625 
Q 18.3125 48.734375 21.84375 45.5625 
Q 25.390625 42.390625 31.78125 42.390625 
Q 38.140625 42.390625 41.71875 45.5625 
Q 45.3125 48.734375 45.3125 54.390625 
Q 45.3125 60.0625 41.71875 63.234375 
Q 38.140625 66.40625 31.78125 66.40625 
Q 25.390625 66.40625 21.84375 63.234375 
Q 18.3125 60.0625 18.3125 54.390625 
" id="DejaVuSans-38"/>
      </defs>
      <g transform="translate(333.75225 322.182437)scale(0.1 -0.1)">
       <use xlink:href="#DejaVuSans-38"/>
       <use x="63.623047" xlink:href="#DejaVuSans-30"/>
       <use x="127.246094" xlink:href="#DejaVuSans-30"/>
      </g>
     </g>
    </g>
    <g id="xtick_6">
     <g id="line2d_11">
      <path clip-path="url(#p60febca4b5)" d="M 414.72 307.584 
L 414.72 41.472 
" style="fill:none;stroke:#b0b0b0;stroke-linecap:square;stroke-width:0.8;"/>
     </g>
     <g id="line2d_12">
      <g>
       <use style="stroke:#000000;stroke-width:0.8;" x="414.72" xlink:href="#m03d32f16c3" y="307.584"/>
      </g>
     </g>
     <g id="text_6">
      <!-- 1000 -->
      <defs>
       <path d="M 12.40625 8.296875 
L 28.515625 8.296875 
L 28.515625 63.921875 
L 10.984375 60.40625 
L 10.984375 69.390625 
L 28.421875 72.90625 
L 38.28125 72.90625 
L 38.28125 8.296875 
L 54.390625 8.296875 
L 54.390625 0 
L 12.40625 0 
z
" id="DejaVuSans-31"/>
      </defs>
      <g transform="translate(401.995 322.182437)scale(0.1 -0.1)">
       <use xlink:href="#DejaVuSans-31"/>
       <use x="63.623047" xlink:href="#DejaVuSans-30"/>
       <use x="127.246094" xlink:href="#DejaVuSans-30"/>
       <use x="190.869141" xlink:href="#DejaVuSans-30"/>
      </g>
     </g>
    </g>
    <g id="text_7">
     <!-- Number of clients -->
     <defs>
      <path d="M 9.8125 72.90625 
L 23.09375 72.90625 
L 55.421875 11.921875 
L 55.421875 72.90625 
L 64.984375 72.90625 
L 64.984375 0 
L 51.703125 0 
L 19.390625 60.984375 
L 19.390625 0 
L 9.8125 0 
z
" id="DejaVuSans-4e"/>
      <path d="M 8.5 21.578125 
L 8.5 54.6875 
L 17.484375 54.6875 
L 17.484375 21.921875 
Q 17.484375 14.15625 20.5 10.265625 
Q 23.53125 6.390625 29.59375 6.390625 
Q 36.859375 6.390625 41.078125 11.03125 
Q 45.3125 15.671875 45.3125 23.6875 
L 45.3125 54.6875 
L 54.296875 54.6875 
L 54.296875 0 
L 45.3125 0 
L 45.3125 8.40625 
Q 42.046875 3.421875 37.71875 1 
Q 33.40625 -1.421875 27.6875 -1.421875 
Q 18.265625 -1.421875 13.375 4.4375 
Q 8.5 10.296875 8.5 21.578125 
M 31.109375 56 
z
" id="DejaVuSans-75"/>
      <path d="M 52 44.1875 
Q 55.375 50.25 60.0625 53.125 
Q 64.75 56 71.09375 56 
Q 79.640625 56 84.28125 50.015625 
Q 88.921875 44.046875 88.921875 33.015625 
L 88.921875 0 
L 79.890625 0 
L 79.890625 32.71875 
Q 79.890625 40.578125 77.09375 44.375 
Q 74.3125 48.1875 68.609375 48.1875 
Q 61.625 48.1875 57.5625 43.546875 
Q 53.515625 38.921875 53.515625 30.90625 
L 53.515625 0 
L 44.484375 0 
L 44.484375 32.71875 
Q 44.484375 40.625 41.703125 44.40625 
Q 38.921875 48.1875 33.109375 48.1875 
Q 26.21875 48.1875 22.15625 43.53125 
Q 18.109375 38.875 18.109375 30.90625 
L 18.109375 0 
L 9.078125 0 
L 9.078125 54.6875 
L 18.109375 54.6875 
L 18.109375 46.1875 
Q 21.1875 51.21875 25.484375 53.609375 
Q 29.78125 56 35.6875 56 
Q 41.65625 56 45.828125 52.96875 
Q 50 49.953125 52 44.1875 
" id="DejaVuSans-6d"/>
      <path d="M 48.6875 27.296875 
Q 48.6875 37.203125 44.609375 42.84375 
Q 40.53125 48.484375 33.40625 48.484375 
Q 26.265625 48.484375 22.1875 42.84375 
Q 18.109375 37.203125 18.109375 27.296875 
Q 18.109375 17.390625 22.1875 11.75 
Q 26.265625 6.109375 33.40625 6.109375 
Q 40.53125 6.109375 44.609375 11.75 
Q 48.6875 17.390625 48.6875 27.296875 
M 18.109375 46.390625 
Q 20.953125 51.265625 25.265625 53.625 
Q 29.59375 56 35.59375 56 
Q 45.5625 56 51.78125 48.09375 
Q 58.015625 40.1875 58.015625 27.296875 
Q 58.015625 14.40625 51.78125 6.484375 
Q 45.5625 -1.421875 35.59375 -1.421875 
Q 29.59375 -1.421875 25.265625 0.953125 
Q 20.953125 3.328125 18.109375 8.203125 
L 18.109375 0 
L 9.078125 0 
L 9.078125 75.984375 
L 18.109375 75.984375 
z
" id="DejaVuSans-62"/>
      <path d="M 56.203125 29.59375 
L 56.203125 25.203125 
L 14.890625 25.203125 
Q 15.484375 15.921875 20.484375 11.0625 
Q 25.484375 6.203125 34.421875 6.203125 
Q 39.59375 6.203125 44.453125 7.46875 
Q 49.3125 8.734375 54.109375 11.28125 
L 54.109375 2.78125 
Q 49.265625 0.734375 44.1875 -0.34375 
Q 39.109375 -1.421875 33.890625 -1.421875 
Q 20.796875 -1.421875 13.15625 6.1875 
Q 5.515625 13.8125 5.515625 26.8125 
Q 5.515625 40.234375 12.765625 48.109375 
Q 20.015625 56 32.328125 56 
Q 43.359375 56 49.78125 48.890625 
Q 56.203125 41.796875 56.203125 29.59375 
M 47.21875 32.234375 
Q 47.125 39.59375 43.09375 43.984375 
Q 39.0625 48.390625 32.421875 48.390625 
Q 24.90625 48.390625 20.390625 44.140625 
Q 15.875 39.890625 15.1875 32.171875 
z
" id="DejaVuSans-65"/>
      <path d="M 41.109375 46.296875 
Q 39.59375 47.171875 37.8125 47.578125 
Q 36.03125 48 33.890625 48 
Q 26.265625 48 22.1875 43.046875 
Q 18.109375 38.09375 18.109375 28.8125 
L 18.109375 0 
L 9.078125 0 
L 9.078125 54.6875 
L 18.109375 54.6875 
L 18.109375 46.1875 
Q 20.953125 51.171875 25.484375 53.578125 
Q 30.03125 56 36.53125 56 
Q 37.453125 56 38.578125 55.875 
Q 39.703125 55.765625 41.0625 55.515625 
z
" id="DejaVuSans-72"/>
      <path id="DejaVuSans-20"/>
      <path d="M 30.609375 48.390625 
Q 23.390625 48.390625 19.1875 42.75 
Q 14.984375 37.109375 14.984375 27.296875 
Q 14.984375 17.484375 19.15625 11.84375 
Q 23.34375 6.203125 30.609375 6.203125 
Q 37.796875 6.203125 41.984375 11.859375 
Q 46.1875 17.53125 46.1875 27.296875 
Q 46.1875 37.015625 41.984375 42.703125 
Q 37.796875 48.390625 30.609375 48.390625 
M 30.609375 56 
Q 42.328125 56 49.015625 48.375 
Q 55.71875 40.765625 55.71875 27.296875 
Q 55.71875 13.875 49.015625 6.21875 
Q 42.328125 -1.421875 30.609375 -1.421875 
Q 18.84375 -1.421875 12.171875 6.21875 
Q 5.515625 13.875 5.515625 27.296875 
Q 5.515625 40.765625 12.171875 48.375 
Q 18.84375 56 30.609375 56 
" id="DejaVuSans-6f"/>
      <path d="M 37.109375 75.984375 
L 37.109375 68.5 
L 28.515625 68.5 
Q 23.6875 68.5 21.796875 66.546875 
Q 19.921875 64.59375 19.921875 59.515625 
L 19.921875 54.6875 
L 34.71875 54.6875 
L 34.71875 47.703125 
L 19.921875 47.703125 
L 19.921875 0 
L 10.890625 0 
L 10.890625 47.703125 
L 2.296875 47.703125 
L 2.296875 54.6875 
L 10.890625 54.6875 
L 10.890625 58.5 
Q 10.890625 67.625 15.140625 71.796875 
Q 19.390625 75.984375 28.609375 75.984375 
z
" id="DejaVuSans-66"/>
      <path d="M 48.78125 52.59375 
L 48.78125 44.1875 
Q 44.96875 46.296875 41.140625 47.34375 
Q 37.3125 48.390625 33.40625 48.390625 
Q 24.65625 48.390625 19.8125 42.84375 
Q 14.984375 37.3125 14.984375 27.296875 
Q 14.984375 17.28125 19.8125 11.734375 
Q 24.65625 6.203125 33.40625 6.203125 
Q 37.3125 6.203125 41.140625 7.25 
Q 44.96875 8.296875 48.78125 10.40625 
L 48.78125 2.09375 
Q 45.015625 0.34375 40.984375 -0.53125 
Q 36.96875 -1.421875 32.421875 -1.421875 
Q 20.0625 -1.421875 12.78125 6.34375 
Q 5.515625 14.109375 5.515625 27.296875 
Q 5.515625 40.671875 12.859375 48.328125 
Q 20.21875 56 33.015625 56 
Q 37.15625 56 41.109375 55.140625 
Q 45.0625 54.296875 48.78125 52.59375 
" id="DejaVuSans-63"/>
      <path d="M 9.421875 75.984375 
L 18.40625 75.984375 
L 18.40625 0 
L 9.421875 0 
z
" id="DejaVuSans-6c"/>
      <path d="M 9.421875 54.6875 
L 18.40625 54.6875 
L 18.40625 0 
L 9.421875 0 
z
M 9.421875 75.984375 
L 18.40625 75.984375 
L 18.40625 64.59375 
L 9.421875 64.59375 
z
" id="DejaVuSans-69"/>
      <path d="M 54.890625 33.015625 
L 54.890625 0 
L 45.90625 0 
L 45.90625 32.71875 
Q 45.90625 40.484375 42.875 44.328125 
Q 39.84375 48.1875 33.796875 48.1875 
Q 26.515625 48.1875 22.3125 43.546875 
Q 18.109375 38.921875 18.109375 30.90625 
L 18.109375 0 
L 9.078125 0 
L 9.078125 54.6875 
L 18.109375 54.6875 
L 18.109375 46.1875 
Q 21.34375 51.125 25.703125 53.5625 
Q 30.078125 56 35.796875 56 
Q 45.21875 56 50.046875 50.171875 
Q 54.890625 44.34375 54.890625 33.015625 
" id="DejaVuSans-6e"/>
      <path d="M 18.3125 70.21875 
L 18.3125 54.6875 
L 36.8125 54.6875 
L 36.8125 47.703125 
L 18.3125 47.703125 
L 18.3125 18.015625 
Q 18.3125 11.328125 20.140625 9.421875 
Q 21.96875 7.515625 27.59375 7.515625 
L 36.8125 7.515625 
L 36.8125 0 
L 27.59375 0 
Q 17.1875 0 13.234375 3.875 
Q 9.28125 7.765625 9.28125 18.015625 
L 9.28125 47.703125 
L 2.6875 47.703125 
L 2.6875 54.6875 
L 9.28125 54.6875 
L 9.28125 70.21875 
z
" id="DejaVuSans-74"/>
      <path d="M 44.28125 53.078125 
L 44.28125 44.578125 
Q 40.484375 46.53125 36.375 47.5 
Q 32.28125 48.484375 27.875 48.484375 
Q 21.1875 48.484375 17.84375 46.4375 
Q 14.5 44.390625 14.5 40.28125 
Q 14.5 37.15625 16.890625 35.375 
Q 19.28125 33.59375 26.515625 31.984375 
L 29.59375 31.296875 
Q 39.15625 29.25 43.1875 25.515625 
Q 47.21875 21.78125 47.21875 15.09375 
Q 47.21875 7.46875 41.1875 3.015625 
Q 35.15625 -1.421875 24.609375 -1.421875 
Q 20.21875 -1.421875 15.453125 -0.5625 
Q 10.6875 0.296875 5.421875 2 
L 5.421875 11.28125 
Q 10.40625 8.6875 15.234375 7.390625 
Q 20.0625 6.109375 24.8125 6.109375 
Q 31.15625 6.109375 34.5625 8.28125 
Q 37.984375 10.453125 37.984375 14.40625 
Q 37.984375 18.0625 35.515625 20.015625 
Q 33.0625 21.96875 24.703125 23.78125 
L 21.578125 24.515625 
Q 13.234375 26.265625 9.515625 29.90625 
Q 5.8125 33.546875 5.8125 39.890625 
Q 5.8125 47.609375 11.28125 51.796875 
Q 16.75 56 26.8125 56 
Q 31.78125 56 36.171875 55.265625 
Q 40.578125 54.546875 44.28125 53.078125 
" id="DejaVuSans-73"/>
     </defs>
     <g transform="translate(191.738906 335.860562)scale(0.1 -0.1)">
      <use xlink:href="#DejaVuSans-4e"/>
      <use x="74.804688" xlink:href="#DejaVuSans-75"/>
      <use x="138.183594" xlink:href="#DejaVuSans-6d"/>
      <use x="235.595703" xlink:href="#DejaVuSans-62"/>
      <use x="299.072266" xlink:href="#DejaVuSans-65"/>
      <use x="360.595703" xlink:href="#DejaVuSans-72"/>
      <use x="401.708984" xlink:href="#DejaVuSans-20"/>
      <use x="433.496094" xlink:href="#DejaVuSans-6f"/>
      <use x="494.677734" xlink:href="#DejaVuSans-66"/>
      <use x="529.882812" xlink:href="#DejaVuSans-20"/>
      <use x="561.669922" xlink:href="#DejaVuSans-63"/>
      <use x="616.650391" xlink:href="#DejaVuSans-6c"/>
      <use x="644.433594" xlink:href="#DejaVuSans-69"/>
      <use x="672.216797" xlink:href="#DejaVuSans-65"/>
      <use x="733.740234" xlink:href="#DejaVuSans-6e"/>
      <use x="797.119141" xlink:href="#DejaVuSans-74"/>
      <use x="836.328125" xlink:href="#DejaVuSans-73"/>
     </g>
    </g>
   </g>
   <g id="matplotlib.axis_2">
    <g id="ytick_1">
     <g id="line2d_13">
      <path clip-path="url(#p60febca4b5)" d="M 57.6 295.79723 
L 414.72 295.79723 
" style="fill:none;stroke:#b0b0b0;stroke-linecap:square;stroke-width:0.8;"/>
     </g>
     <g id="line2d_14">
      <defs>
       <path d="M 0 0 
L -3.5 0 
" id="m25a06765c3" style="stroke:#000000;stroke-width:0.8;"/>
      </defs>
      <g>
       <use style="stroke:#000000;stroke-width:0.8;" x="57.6" xlink:href="#m25a06765c3" y="295.79723"/>
      </g>
     </g>
     <g id="text_8">
      <!-- 0 -->
      <g transform="translate(44.2375 299.596449)scale(0.1 -0.1)">
       <use xlink:href="#DejaVuSans-30"/>
      </g>
     </g>
    </g>
    <g id="ytick_2">
     <g id="line2d_15">
      <path clip-path="url(#p60febca4b5)" d="M 57.6 263.246713 
L 414.72 263.246713 
" style="fill:none;stroke:#b0b0b0;stroke-linecap:square;stroke-width:0.8;"/>
     </g>
     <g id="line2d_16">
      <g>
       <use style="stroke:#000000;stroke-width:0.8;" x="57.6" xlink:href="#m25a06765c3" y="263.246713"/>
      </g>
     </g>
     <g id="text_9">
      <!-- 100 -->
      <g transform="translate(31.5125 267.045932)scale(0.1 -0.1)">
       <use xlink:href="#DejaVuSans-31"/>
       <use x="63.623047" xlink:href="#DejaVuSans-30"/>
       <use x="127.246094" xlink:href="#DejaVuSans-30"/>
      </g>
     </g>
    </g>
    <g id="ytick_3">
     <g id="line2d_17">
      <path clip-path="url(#p60febca4b5)" d="M 57.6 230.696196 
L 414.72 230.696196 
" style="fill:none;stroke:#b0b0b0;stroke-linecap:square;stroke-width:0.8;"/>
     </g>
     <g id="line2d_18">
      <g>
       <use style="stroke:#000000;stroke-width:0.8;" x="57.6" xlink:href="#m25a06765c3" y="230.696196"/>
      </g>
     </g>
     <g id="text_10">
      <!-- 200 -->
      <g transform="translate(31.5125 234.495415)scale(0.1 -0.1)">
       <use xlink:href="#DejaVuSans-32"/>
       <use x="63.623047" xlink:href="#DejaVuSans-30"/>
       <use x="127.246094" xlink:href="#DejaVuSans-30"/>
      </g>
     </g>
    </g>
    <g id="ytick_4">
     <g id="line2d_19">
      <path clip-path="url(#p60febca4b5)" d="M 57.6 198.145679 
L 414.72 198.145679 
" style="fill:none;stroke:#b0b0b0;stroke-linecap:square;stroke-width:0.8;"/>
     </g>
     <g id="line2d_20">
      <g>
       <use style="stroke:#000000;stroke-width:0.8;" x="57.6" xlink:href="#m25a06765c3" y="198.145679"/>
      </g>
     </g>
     <g id="text_11">
      <!-- 300 -->
      <defs>
       <path d="M 40.578125 39.3125 
Q 47.65625 37.796875 51.625 33 
Q 55.609375 28.21875 55.609375 21.1875 
Q 55.609375 10.40625 48.1875 4.484375 
Q 40.765625 -1.421875 27.09375 -1.421875 
Q 22.515625 -1.421875 17.65625 -0.515625 
Q 12.796875 0.390625 7.625 2.203125 
L 7.625 11.71875 
Q 11.71875 9.328125 16.59375 8.109375 
Q 21.484375 6.890625 26.8125 6.890625 
Q 36.078125 6.890625 40.9375 10.546875 
Q 45.796875 14.203125 45.796875 21.1875 
Q 45.796875 27.640625 41.28125 31.265625 
Q 36.765625 34.90625 28.71875 34.90625 
L 20.21875 34.90625 
L 20.21875 43.015625 
L 29.109375 43.015625 
Q 36.375 43.015625 40.234375 45.921875 
Q 44.09375 48.828125 44.09375 54.296875 
Q 44.09375 59.90625 40.109375 62.90625 
Q 36.140625 65.921875 28.71875 65.921875 
Q 24.65625 65.921875 20.015625 65.03125 
Q 15.375 64.15625 9.8125 62.3125 
L 9.8125 71.09375 
Q 15.4375 72.65625 20.34375 73.4375 
Q 25.25 74.21875 29.59375 74.21875 
Q 40.828125 74.21875 47.359375 69.109375 
Q 53.90625 64.015625 53.90625 55.328125 
Q 53.90625 49.265625 50.4375 45.09375 
Q 46.96875 40.921875 40.578125 39.3125 
" id="DejaVuSans-33"/>
      </defs>
      <g transform="translate(31.5125 201.944897)scale(0.1 -0.1)">
       <use xlink:href="#DejaVuSans-33"/>
       <use x="63.623047" xlink:href="#DejaVuSans-30"/>
       <use x="127.246094" xlink:href="#DejaVuSans-30"/>
      </g>
     </g>
    </g>
    <g id="ytick_5">
     <g id="line2d_21">
      <path clip-path="url(#p60febca4b5)" d="M 57.6 165.595162 
L 414.72 165.595162 
" style="fill:none;stroke:#b0b0b0;stroke-linecap:square;stroke-width:0.8;"/>
     </g>
     <g id="line2d_22">
      <g>
       <use style="stroke:#000000;stroke-width:0.8;" x="57.6" xlink:href="#m25a06765c3" y="165.595162"/>
      </g>
     </g>
     <g id="text_12">
      <!-- 400 -->
      <g transform="translate(31.5125 169.39438)scale(0.1 -0.1)">
       <use xlink:href="#DejaVuSans-34"/>
       <use x="63.623047" xlink:href="#DejaVuSans-30"/>
       <use x="127.246094" xlink:href="#DejaVuSans-30"/>
      </g>
     </g>
    </g>
    <g id="ytick_6">
     <g id="line2d_23">
      <path clip-path="url(#p60febca4b5)" d="M 57.6 133.044645 
L 414.72 133.044645 
" style="fill:none;stroke:#b0b0b0;stroke-linecap:square;stroke-width:0.8;"/>
     </g>
     <g id="line2d_24">
      <g>
       <use style="stroke:#000000;stroke-width:0.8;" x="57.6" xlink:href="#m25a06765c3" y="133.044645"/>
      </g>
     </g>
     <g id="text_13">
      <!-- 500 -->
      <defs>
       <path d="M 10.796875 72.90625 
L 49.515625 72.90625 
L 49.515625 64.59375 
L 19.828125 64.59375 
L 19.828125 46.734375 
Q 21.96875 47.46875 24.109375 47.828125 
Q 26.265625 48.1875 28.421875 48.1875 
Q 40.625 48.1875 47.75 41.5 
Q 54.890625 34.8125 54.890625 23.390625 
Q 54.890625 11.625 47.5625 5.09375 
Q 40.234375 -1.421875 26.90625 -1.421875 
Q 22.3125 -1.421875 17.546875 -0.640625 
Q 12.796875 0.140625 7.71875 1.703125 
L 7.71875 11.625 
Q 12.109375 9.234375 16.796875 8.0625 
Q 21.484375 6.890625 26.703125 6.890625 
Q 35.15625 6.890625 40.078125 11.328125 
Q 45.015625 15.765625 45.015625 23.390625 
Q 45.015625 31 40.078125 35.4375 
Q 35.15625 39.890625 26.703125 39.890625 
Q 22.75 39.890625 18.8125 39.015625 
Q 14.890625 38.140625 10.796875 36.28125 
z
" id="DejaVuSans-35"/>
      </defs>
      <g transform="translate(31.5125 136.843863)scale(0.1 -0.1)">
       <use xlink:href="#DejaVuSans-35"/>
       <use x="63.623047" xlink:href="#DejaVuSans-30"/>
       <use x="127.246094" xlink:href="#DejaVuSans-30"/>
      </g>
     </g>
    </g>
    <g id="ytick_7">
     <g id="line2d_25">
      <path clip-path="url(#p60febca4b5)" d="M 57.6 100.494127 
L 414.72 100.494127 
" style="fill:none;stroke:#b0b0b0;stroke-linecap:square;stroke-width:0.8;"/>
     </g>
     <g id="line2d_26">
      <g>
       <use style="stroke:#000000;stroke-width:0.8;" x="57.6" xlink:href="#m25a06765c3" y="100.494127"/>
      </g>
     </g>
     <g id="text_14">
      <!-- 600 -->
      <g transform="translate(31.5125 104.293346)scale(0.1 -0.1)">
       <use xlink:href="#DejaVuSans-36"/>
       <use x="63.623047" xlink:href="#DejaVuSans-30"/>
       <use x="127.246094" xlink:href="#DejaVuSans-30"/>
      </g>
     </g>
    </g>
    <g id="ytick_8">
     <g id="line2d_27">
      <path clip-path="url(#p60febca4b5)" d="M 57.6 67.94361 
L 414.72 67.94361 
" style="fill:none;stroke:#b0b0b0;stroke-linecap:square;stroke-width:0.8;"/>
     </g>
     <g id="line2d_28">
      <g>
       <use style="stroke:#000000;stroke-width:0.8;" x="57.6" xlink:href="#m25a06765c3" y="67.94361"/>
      </g>
     </g>
     <g id="text_15">
      <!-- 700 -->
      <defs>
       <path d="M 8.203125 72.90625 
L 55.078125 72.90625 
L 55.078125 68.703125 
L 28.609375 0 
L 18.3125 0 
L 43.21875 64.59375 
L 8.203125 64.59375 
z
" id="DejaVuSans-37"/>
      </defs>
      <g transform="translate(31.5125 71.742829)scale(0.1 -0.1)">
       <use xlink:href="#DejaVuSans-37"/>
       <use x="63.623047" xlink:href="#DejaVuSans-30"/>
       <use x="127.246094" xlink:href="#DejaVuSans-30"/>
      </g>
     </g>
    </g>
    <g id="text_16">
     <!-- Successful download requests per second -->
     <defs>
      <path d="M 53.515625 70.515625 
L 53.515625 60.890625 
Q 47.90625 63.578125 42.921875 64.890625 
Q 37.9375 66.21875 33.296875 66.21875 
Q 25.25 66.21875 20.875 63.09375 
Q 16.5 59.96875 16.5 54.203125 
Q 16.5 49.359375 19.40625 46.890625 
Q 22.3125 44.4375 30.421875 42.921875 
L 36.375 41.703125 
Q 47.40625 39.59375 52.65625 34.296875 
Q 57.90625 29 57.90625 20.125 
Q 57.90625 9.515625 50.796875 4.046875 
Q 43.703125 -1.421875 29.984375 -1.421875 
Q 24.8125 -1.421875 18.96875 -0.25 
Q 13.140625 0.921875 6.890625 3.21875 
L 6.890625 13.375 
Q 12.890625 10.015625 18.65625 8.296875 
Q 24.421875 6.59375 29.984375 6.59375 
Q 38.421875 6.59375 43.015625 9.90625 
Q 47.609375 13.234375 47.609375 19.390625 
Q 47.609375 24.75 44.3125 27.78125 
Q 41.015625 30.8125 33.5 32.328125 
L 27.484375 33.5 
Q 16.453125 35.6875 11.515625 40.375 
Q 6.59375 45.0625 6.59375 53.421875 
Q 6.59375 63.09375 13.40625 68.65625 
Q 20.21875 74.21875 32.171875 74.21875 
Q 37.3125 74.21875 42.625 73.28125 
Q 47.953125 72.359375 53.515625 70.515625 
" id="DejaVuSans-53"/>
      <path d="M 45.40625 46.390625 
L 45.40625 75.984375 
L 54.390625 75.984375 
L 54.390625 0 
L 45.40625 0 
L 45.40625 8.203125 
Q 42.578125 3.328125 38.25 0.953125 
Q 33.9375 -1.421875 27.875 -1.421875 
Q 17.96875 -1.421875 11.734375 6.484375 
Q 5.515625 14.40625 5.515625 27.296875 
Q 5.515625 40.1875 11.734375 48.09375 
Q 17.96875 56 27.875 56 
Q 33.9375 56 38.25 53.625 
Q 42.578125 51.265625 45.40625 46.390625 
M 14.796875 27.296875 
Q 14.796875 17.390625 18.875 11.75 
Q 22.953125 6.109375 30.078125 6.109375 
Q 37.203125 6.109375 41.296875 11.75 
Q 45.40625 17.390625 45.40625 27.296875 
Q 45.40625 37.203125 41.296875 42.84375 
Q 37.203125 48.484375 30.078125 48.484375 
Q 22.953125 48.484375 18.875 42.84375 
Q 14.796875 37.203125 14.796875 27.296875 
" id="DejaVuSans-64"/>
      <path d="M 4.203125 54.6875 
L 13.1875 54.6875 
L 24.421875 12.015625 
L 35.59375 54.6875 
L 46.1875 54.6875 
L 57.421875 12.015625 
L 68.609375 54.6875 
L 77.59375 54.6875 
L 63.28125 0 
L 52.6875 0 
L 40.921875 44.828125 
L 29.109375 0 
L 18.5 0 
z
" id="DejaVuSans-77"/>
      <path d="M 34.28125 27.484375 
Q 23.390625 27.484375 19.1875 25 
Q 14.984375 22.515625 14.984375 16.5 
Q 14.984375 11.71875 18.140625 8.90625 
Q 21.296875 6.109375 26.703125 6.109375 
Q 34.1875 6.109375 38.703125 11.40625 
Q 43.21875 16.703125 43.21875 25.484375 
L 43.21875 27.484375 
z
M 52.203125 31.203125 
L 52.203125 0 
L 43.21875 0 
L 43.21875 8.296875 
Q 40.140625 3.328125 35.546875 0.953125 
Q 30.953125 -1.421875 24.3125 -1.421875 
Q 15.921875 -1.421875 10.953125 3.296875 
Q 6 8.015625 6 15.921875 
Q 6 25.140625 12.171875 29.828125 
Q 18.359375 34.515625 30.609375 34.515625 
L 43.21875 34.515625 
L 43.21875 35.40625 
Q 43.21875 41.609375 39.140625 45 
Q 35.0625 48.390625 27.6875 48.390625 
Q 23 48.390625 18.546875 47.265625 
Q 14.109375 46.140625 10.015625 43.890625 
L 10.015625 52.203125 
Q 14.9375 54.109375 19.578125 55.046875 
Q 24.21875 56 28.609375 56 
Q 40.484375 56 46.34375 49.84375 
Q 52.203125 43.703125 52.203125 31.203125 
" id="DejaVuSans-61"/>
      <path d="M 14.796875 27.296875 
Q 14.796875 17.390625 18.875 11.75 
Q 22.953125 6.109375 30.078125 6.109375 
Q 37.203125 6.109375 41.296875 11.75 
Q 45.40625 17.390625 45.40625 27.296875 
Q 45.40625 37.203125 41.296875 42.84375 
Q 37.203125 48.484375 30.078125 48.484375 
Q 22.953125 48.484375 18.875 42.84375 
Q 14.796875 37.203125 14.796875 27.296875 
M 45.40625 8.203125 
Q 42.578125 3.328125 38.25 0.953125 
Q 33.9375 -1.421875 27.875 -1.421875 
Q 17.96875 -1.421875 11.734375 6.484375 
Q 5.515625 14.40625 5.515625 27.296875 
Q 5.515625 40.1875 11.734375 48.09375 
Q 17.96875 56 27.875 56 
Q 33.9375 56 38.25 53.625 
Q 42.578125 51.265625 45.40625 46.390625 
L 45.40625 54.6875 
L 54.390625 54.6875 
L 54.390625 -20.796875 
L 45.40625 -20.796875 
z
" id="DejaVuSans-71"/>
      <path d="M 18.109375 8.203125 
L 18.109375 -20.796875 
L 9.078125 -20.796875 
L 9.078125 54.6875 
L 18.109375 54.6875 
L 18.109375 46.390625 
Q 20.953125 51.265625 25.265625 53.625 
Q 29.59375 56 35.59375 56 
Q 45.5625 56 51.78125 48.09375 
Q 58.015625 40.1875 58.015625 27.296875 
Q 58.015625 14.40625 51.78125 6.484375 
Q 45.5625 -1.421875 35.59375 -1.421875 
Q 29.59375 -1.421875 25.265625 0.953125 
Q 20.953125 3.328125 18.109375 8.203125 
M 48.6875 27.296875 
Q 48.6875 37.203125 44.609375 42.84375 
Q 40.53125 48.484375 33.40625 48.484375 
Q 26.265625 48.484375 22.1875 42.84375 
Q 18.109375 37.203125 18.109375 27.296875 
Q 18.109375 17.390625 22.1875 11.75 
Q 26.265625 6.109375 33.40625 6.109375 
Q 40.53125 6.109375 44.609375 11.75 
Q 48.6875 17.390625 48.6875 27.296875 
" id="DejaVuSans-70"/>
     </defs>
     <g transform="translate(25.432812 279.366281)rotate(-90)scale(0.1 -0.1)">
      <use xlink:href="#DejaVuSans-53"/>
      <use x="63.476562" xlink:href="#DejaVuSans-75"/>
      <use x="126.855469" xlink:href="#DejaVuSans-63"/>
      <use x="181.835938" xlink:href="#DejaVuSans-63"/>
      <use x="236.816406" xlink:href="#DejaVuSans-65"/>
      <use x="298.339844" xlink:href="#DejaVuSans-73"/>
      <use x="350.439453" xlink:href="#DejaVuSans-73"/>
      <use x="402.539062" xlink:href="#DejaVuSans-66"/>
      <use x="437.744141" xlink:href="#DejaVuSans-75"/>
      <use x="501.123047" xlink:href="#DejaVuSans-6c"/>
      <use x="528.90625" xlink:href="#DejaVuSans-20"/>
      <use x="560.693359" xlink:href="#DejaVuSans-64"/>
      <use x="624.169922" xlink:href="#DejaVuSans-6f"/>
      <use x="685.351562" xlink:href="#DejaVuSans-77"/>
      <use x="767.138672" xlink:href="#DejaVuSans-6e"/>
      <use x="830.517578" xlink:href="#DejaVuSans-6c"/>
      <use x="858.300781" xlink:href="#DejaVuSans-6f"/>
      <use x="919.482422" xlink:href="#DejaVuSans-61"/>
      <use x="980.761719" xlink:href="#DejaVuSans-64"/>
      <use x="1044.238281" xlink:href="#DejaVuSans-20"/>
      <use x="1076.025391" xlink:href="#DejaVuSans-72"/>
      <use x="1117.107422" xlink:href="#DejaVuSans-65"/>
      <use x="1178.630859" xlink:href="#DejaVuSans-71"/>
      <use x="1242.107422" xlink:href="#DejaVuSans-75"/>
      <use x="1305.486328" xlink:href="#DejaVuSans-65"/>
      <use x="1367.009766" xlink:href="#DejaVuSans-73"/>
      <use x="1419.109375" xlink:href="#DejaVuSans-74"/>
      <use x="1458.318359" xlink:href="#DejaVuSans-73"/>
      <use x="1510.417969" xlink:href="#DejaVuSans-20"/>
      <use x="1542.205078" xlink:href="#DejaVuSans-70"/>
      <use x="1605.681641" xlink:href="#DejaVuSans-65"/>
      <use x="1667.205078" xlink:href="#DejaVuSans-72"/>
      <use x="1708.318359" xlink:href="#DejaVuSans-20"/>
      <use x="1740.105469" xlink:href="#DejaVuSans-73"/>
      <use x="1792.205078" xlink:href="#DejaVuSans-65"/>
      <use x="1853.728516" xlink:href="#DejaVuSans-63"/>
      <use x="1908.708984" xlink:href="#DejaVuSans-6f"/>
      <use x="1969.890625" xlink:href="#DejaVuSans-6e"/>
      <use x="2033.269531" xlink:href="#DejaVuSans-64"/>
     </g>
    </g>
   </g>
   <g id="line2d_29">
    <path clip-path="url(#p60febca4b5)" d="M 57.6 295.488 
L 57.95712 295.487349 
L 60.45696 293.296048 
L 60.81408 293.015788 
L 61.1712 292.593934 
L 61.88544 292.117394 
L 62.59968 291.329997 
L 62.9568 291.215745 
L 63.67104 290.582963 
L 64.02816 290.036114 
L 64.38528 289.888009 
L 64.7424 289.56641 
L 65.09952 289.032581 
L 65.45664 289.085639 
L 66.528 287.855555 
L 66.88512 287.508892 
L 67.24224 287.384549 
L 67.59936 286.949023 
L 67.95648 286.92461 
L 68.3136 286.258301 
L 68.67072 286.04835 
L 69.02784 285.620962 
L 69.74208 285.195526 
L 70.0992 284.657466 
L 70.45632 284.591714 
L 71.52768 283.753864 
L 72.24192 282.771815 
L 72.59904 282.723966 
L 72.95616 282.484394 
L 73.31328 282.43036 
L 73.6704 281.780001 
L 74.02752 281.600647 
L 74.38464 280.64529 
L 75.09888 280.344197 
L 75.456 279.894675 
L 75.81312 280.340942 
L 76.17024 279.350756 
L 76.52736 279.409998 
L 76.88448 278.530157 
L 77.2416 278.650269 
L 77.59872 277.787029 
L 77.95584 277.914952 
L 78.31296 277.24962 
L 78.67008 277.854734 
L 79.74144 275.766944 
L 80.09856 276.424464 
L 80.45568 275.328163 
L 80.8128 275.156296 
L 81.16992 274.62377 
L 81.52704 274.850972 
L 81.88416 274.03786 
L 82.24128 274.126723 
L 82.5984 273.656368 
L 82.95552 272.734863 
L 83.31264 272.611822 
L 83.66976 272.655765 
L 84.02688 271.787318 
L 84.384 271.512591 
L 84.74112 272.285015 
L 85.09824 271.626518 
L 85.45536 271.539934 
L 85.81248 270.804292 
L 86.1696 270.790295 
L 86.52672 270.625264 
L 86.88384 270.863859 
L 87.24096 269.606758 
L 87.59808 269.92673 
L 87.9552 268.752958 
L 88.31232 268.840519 
L 88.66944 267.650798 
L 89.02656 267.718177 
L 89.38368 267.910225 
L 89.7408 267.830477 
L 90.81216 265.557149 
L 91.16928 265.540222 
L 91.5264 266.642708 
L 91.88352 265.071495 
L 92.24064 266.276515 
L 92.59776 265.306835 
L 92.95488 264.975145 
L 93.312 263.96673 
L 93.66912 264.702372 
L 94.02624 263.820578 
L 94.38336 263.690051 
L 94.74048 262.47787 
L 95.0976 263.308233 
L 95.45472 263.634064 
L 96.16896 262.800771 
L 96.52608 260.781662 
L 96.8832 261.502982 
L 97.59744 259.498846 
L 97.95456 261.152087 
L 98.31168 260.045695 
L 98.6688 260.942462 
L 99.02592 259.764459 
L 99.38304 259.733861 
L 99.74016 258.13498 
L 100.09728 257.875552 
L 100.4544 258.420773 
L 100.81152 258.20301 
L 101.16864 258.626492 
L 101.52576 256.211244 
L 101.88288 257.169531 
L 102.24 256.880483 
L 102.59712 255.553073 
L 103.31136 254.363026 
L 103.66848 254.256911 
L 104.0256 256.058582 
L 104.38272 253.964933 
L 104.73984 253.549263 
L 105.09696 254.896203 
L 105.45408 254.94275 
L 105.8112 253.85654 
L 106.16832 254.23673 
L 106.52544 254.193438 
L 107.23968 250.824459 
L 107.5968 251.314344 
L 107.95392 252.577304 
L 108.66816 249.618137 
L 109.02528 251.58549 
L 109.3824 251.757357 
L 109.73952 250.681888 
L 110.09664 250.73462 
L 110.45376 247.902399 
L 111.168 247.846412 
L 111.52512 249.952431 
L 111.88224 248.824555 
L 112.23936 245.998519 
L 112.59648 246.241346 
L 112.9536 248.360059 
L 113.31072 245.256693 
L 114.02496 245.170109 
L 114.38208 244.161368 
L 114.7392 246.727651 
L 115.09632 243.885991 
L 115.45344 243.777923 
L 115.81056 245.752112 
L 116.16768 244.622934 
L 116.5248 244.758019 
L 116.88192 242.266277 
L 117.23904 244.740767 
L 117.59616 244.274318 
L 117.95328 242.650699 
L 118.3104 243.598895 
L 118.66752 240.856514 
L 119.02464 241.38188 
L 119.38176 242.157558 
L 119.73888 241.129613 
L 120.096 238.997229 
L 120.45312 242.129565 
L 120.81024 238.493347 
L 121.16736 241.041076 
L 121.52448 239.514131 
L 121.8816 239.946076 
L 122.23872 237.610902 
L 122.59584 240.308363 
L 122.95296 238.051962 
L 123.31008 237.023691 
L 123.6672 237.433502 
L 124.02432 238.461447 
L 124.38144 235.268567 
L 124.73856 234.602258 
L 125.09568 237.519435 
L 125.4528 238.064005 
L 125.80992 236.141246 
L 126.16704 237.101812 
L 126.52416 233.242948 
L 126.88128 236.932549 
L 127.2384 235.393886 
L 127.59552 234.548224 
L 127.95264 231.775896 
L 128.30976 234.424206 
L 128.66688 231.683778 
L 129.024 231.87192 
L 129.38112 230.40259 
L 129.73824 230.712471 
L 130.09536 232.296054 
L 130.45248 231.058158 
L 130.8096 232.058109 
L 131.16672 230.97255 
L 131.52384 232.054203 
L 131.88096 229.632445 
L 132.23808 231.976408 
L 132.5952 231.570503 
L 132.95232 227.572323 
L 133.30944 229.673784 
L 133.66656 229.871691 
L 134.02368 230.712797 
L 134.73792 226.600364 
L 135.09504 227.664441 
L 135.45216 225.592275 
L 135.80928 226.881926 
L 136.1664 226.095831 
L 136.52352 226.413524 
L 136.88064 228.507499 
L 137.23776 228.006221 
L 137.59488 224.134663 
L 137.952 226.326614 
L 138.30912 226.203248 
L 138.66624 225.838357 
L 139.02336 222.813437 
L 139.38048 225.733544 
L 139.7376 225.941216 
L 140.09472 224.653192 
L 140.45184 221.548849 
L 140.80896 222.407207 
L 141.5232 219.576614 
L 141.88032 223.344336 
L 142.23744 221.23376 
L 142.59456 223.044871 
L 142.95168 221.366892 
L 143.3088 218.621907 
L 143.66592 222.75387 
L 144.02304 221.033575 
L 144.38016 218.166851 
L 144.73728 217.35797 
L 145.0944 220.519928 
L 145.45152 218.110864 
L 145.80864 216.810145 
L 146.16576 216.710541 
L 146.52288 219.7449 
L 146.88 217.542532 
L 147.23712 218.996563 
L 147.59424 215.974899 
L 147.95136 215.34114 
L 148.30848 214.247443 
L 148.6656 218.388845 
L 149.02272 214.97039 
L 149.37984 217.834184 
L 149.73696 213.427495 
L 150.09408 215.651998 
L 150.4512 211.545099 
L 150.80832 216.549416 
L 151.16544 210.634336 
L 151.52256 214.731795 
L 151.87968 211.054888 
L 152.2368 211.434427 
L 152.59392 211.170443 
L 152.95104 211.375511 
L 153.30816 211.06563 
L 153.66528 211.086462 
L 154.0224 208.341477 
L 154.37952 210.573792 
L 154.73664 208.988907 
L 155.09376 211.811037 
L 155.45088 211.565931 
L 155.808 208.382491 
L 156.16512 206.442154 
L 156.52224 211.148634 
L 156.87936 208.828758 
L 157.23648 210.836149 
L 157.95072 204.752783 
L 158.30784 207.005604 
L 158.66496 210.088789 
L 159.02208 205.340319 
L 159.3792 207.242897 
L 159.73632 205.159664 
L 160.09344 202.383756 
L 160.45056 202.491498 
L 160.80768 207.369519 
L 161.1648 203.376547 
L 161.52192 203.110935 
L 161.87904 202.38636 
L 162.23616 204.389844 
L 162.59328 202.121724 
L 162.9504 201.077178 
L 163.66464 205.659315 
L 164.02176 202.22556 
L 164.37888 204.466338 
L 164.736 199.273554 
L 165.45024 203.130465 
L 165.80736 202.112285 
L 166.16448 201.567715 
L 166.5216 198.498852 
L 166.87872 201.505543 
L 167.23584 199.511498 
L 167.59296 198.292807 
L 167.95008 199.694107 
L 168.3072 195.886673 
L 168.66432 200.772831 
L 169.02144 200.886432 
L 169.37856 194.741546 
L 169.73568 194.418644 
L 170.0928 197.059793 
L 170.44992 196.415293 
L 170.80704 192.987724 
L 171.16416 193.822645 
L 171.52128 196.162376 
L 171.8784 194.202184 
L 172.23552 194.98893 
L 172.59264 191.366057 
L 172.94976 196.22292 
L 173.30688 195.515922 
L 174.02112 189.875569 
L 174.37824 192.143689 
L 174.73536 189.532161 
L 175.09248 192.956475 
L 175.4496 191.598793 
L 175.80672 194.337594 
L 176.16384 189.681242 
L 176.52096 187.98829 
L 176.87808 189.407167 
L 177.59232 186.718494 
L 177.94944 191.684401 
L 178.30656 188.579733 
L 178.66368 187.691104 
L 179.0208 187.232792 
L 179.37792 185.413869 
L 179.73504 187.716167 
L 180.09216 187.462599 
L 180.44928 188.471339 
L 180.8064 187.247766 
L 181.16352 183.73231 
L 181.52064 189.14839 
L 181.87776 185.859812 
L 182.23488 186.283294 
L 182.94912 189.318629 
L 183.30624 185.879342 
L 183.66336 186.757555 
L 184.02048 182.318641 
L 184.3776 180.582722 
L 184.73472 186.37411 
L 185.09184 183.797411 
L 185.44896 185.710405 
L 185.80608 184.585133 
L 186.52032 181.020852 
L 186.87744 184.109245 
L 187.23456 180.318737 
L 187.59168 183.83224 
L 187.9488 182.576766 
L 188.30592 183.050376 
L 188.66304 178.695117 
L 189.02016 180.83271 
L 189.37728 178.662241 
L 189.7344 178.968542 
L 190.44864 181.600576 
L 190.80576 174.919257 
L 191.16288 179.444105 
L 191.52 181.978162 
L 191.87712 174.178407 
L 192.23424 176.715395 
L 192.59136 175.064433 
L 192.94848 180.634477 
L 193.3056 172.24393 
L 194.01984 177.712417 
L 194.37696 175.361293 
L 195.0912 173.179758 
L 195.44832 172.430119 
L 195.80544 178.530086 
L 196.16256 176.450108 
L 196.51968 171.063648 
L 196.8768 169.436774 
L 197.23392 172.088339 
L 197.59104 168.717407 
L 197.94816 174.929999 
L 198.30528 171.884247 
L 198.6624 173.675827 
L 199.01952 174.061551 
L 199.37664 168.489228 
L 199.73376 173.355856 
L 200.448 174.171572 
L 200.80512 172.606543 
L 201.16224 172.922283 
L 201.51936 168.346657 
L 201.87648 168.30662 
L 202.2336 171.036306 
L 202.59072 164.900208 
L 202.94784 170.049374 
L 203.30496 171.525215 
L 203.66208 170.726751 
L 204.0192 163.54513 
L 204.37632 165.713645 
L 204.73344 165.631944 
L 205.09056 169.889226 
L 205.44768 162.104119 
L 205.8048 169.960511 
L 206.16192 166.273514 
L 206.51904 165.04994 
L 206.87616 164.326668 
L 207.23328 166.36075 
L 207.5904 160.118537 
L 207.94752 158.845812 
L 208.30464 161.674452 
L 208.66176 163.101141 
L 209.01888 163.850128 
L 209.376 161.253574 
L 209.73312 162.635669 
L 210.09024 159.54044 
L 210.44736 158.255997 
L 210.80448 161.248366 
L 211.1616 162.316023 
L 211.51872 162.761965 
L 211.87584 157.669436 
L 212.23296 156.254465 
L 212.59008 156.001548 
L 213.30432 163.404186 
L 213.66144 159.267016 
L 214.01856 162.607024 
L 214.37568 161.962849 
L 214.7328 152.705157 
L 215.08992 158.187966 
L 215.44704 153.877626 
L 215.80416 160.915048 
L 216.16128 158.668086 
L 216.5184 158.521609 
L 216.87552 155.37788 
L 217.23264 158.149231 
L 217.58976 151.634896 
L 217.94688 155.691667 
L 218.304 153.247123 
L 218.66112 156.300687 
L 219.01824 148.699816 
L 219.37536 154.577788 
L 219.73248 158.310681 
L 220.0896 153.352912 
L 220.44672 154.037449 
L 220.80384 148.936458 
L 221.16096 151.871213 
L 221.51808 148.607698 
L 221.8752 150.592628 
L 222.23232 147.209979 
L 222.58944 149.487864 
L 222.94656 146.934601 
L 223.6608 153.104226 
L 224.01792 147.583984 
L 224.37504 148.755477 
L 224.73216 151.799601 
L 225.08928 149.963752 
L 225.4464 151.805461 
L 225.80352 148.858988 
L 226.16064 151.870236 
L 226.51776 147.038763 
L 226.87488 150.050662 
L 227.232 148.704373 
L 227.58912 146.106191 
L 227.94624 142.661369 
L 228.30336 140.935541 
L 228.66048 141.49541 
L 229.0176 149.376215 
L 229.37472 142.199477 
L 229.73184 142.934468 
L 230.08896 142.353116 
L 230.44608 145.939206 
L 230.8032 138.78916 
L 231.16032 148.221323 
L 231.51744 138.14173 
L 231.87456 140.809245 
L 232.23168 139.098715 
L 232.5888 145.421328 
L 232.94592 137.562982 
L 233.30304 146.646204 
L 233.66016 140.771161 
L 234.01728 141.886341 
L 234.3744 141.13475 
L 234.73152 143.376504 
L 235.08864 144.077317 
L 235.44576 137.860168 
L 235.80288 140.419615 
L 236.16 136.883978 
L 236.51712 137.330897 
L 236.87424 138.398554 
L 237.23136 143.517773 
L 237.58848 142.12396 
L 237.9456 133.511419 
L 238.30272 137.352054 
L 238.65984 132.787821 
L 239.01696 137.501461 
L 239.37408 132.399819 
L 239.7312 140.492203 
L 240.08832 137.847148 
L 240.44544 140.186228 
L 240.80256 131.712026 
L 241.15968 134.120765 
L 241.5168 139.650121 
L 241.87392 134.961544 
L 242.23104 136.251847 
L 242.58816 129.805868 
L 242.94528 129.367087 
L 243.3024 134.840131 
L 243.65952 129.604055 
L 244.01664 130.593591 
L 244.37376 131.111144 
L 244.73088 135.774982 
L 245.088 131.426558 
L 245.44512 135.487886 
L 245.80224 124.47214 
L 246.15936 128.454045 
L 246.51648 125.485438 
L 246.8736 131.660271 
L 247.23072 125.156027 
L 247.58784 132.847063 
L 247.94496 133.221068 
L 248.30208 130.531094 
L 248.6592 130.282733 
L 249.01632 130.803867 
L 249.37344 121.808532 
L 249.73056 131.389451 
L 250.08768 124.071118 
L 250.4448 121.870052 
L 250.80192 125.578858 
L 251.15904 126.017639 
L 251.51616 122.400951 
L 251.87328 126.841167 
L 252.2304 122.283769 
L 252.58752 119.63904 
L 252.94464 128.651627 
L 253.30176 121.628202 
L 253.65888 121.085259 
L 254.016 126.619498 
L 254.37312 125.10655 
L 254.73024 122.231037 
L 255.08736 122.370353 
L 255.44448 116.148973 
L 255.8016 126.548538 
L 256.15872 116.932139 
L 256.51584 114.985943 
L 256.87296 118.500748 
L 257.23008 117.64825 
L 257.5872 121.438107 
L 257.94432 116.077687 
L 258.30144 120.418624 
L 258.65856 121.453405 
L 259.01568 123.174026 
L 259.3728 123.009646 
L 259.72992 118.473731 
L 260.08704 120.292328 
L 260.44416 122.726456 
L 260.80128 110.934706 
L 261.1584 115.753159 
L 261.51552 117.050622 
L 261.87264 113.922192 
L 262.22976 115.680246 
L 262.58688 115.536047 
L 262.944 112.038168 
L 263.30112 112.978553 
L 263.65824 110.688949 
L 264.01536 118.744226 
L 264.7296 108.352148 
L 265.08672 114.476202 
L 265.44384 117.651505 
L 265.80096 116.25639 
L 266.15808 107.312159 
L 266.5152 110.681788 
L 267.22944 110.115735 
L 267.58656 106.570658 
L 267.94368 105.322671 
L 268.3008 111.85556 
L 268.65792 116.149299 
L 269.01504 116.007053 
L 269.37216 102.840369 
L 269.72928 106.020229 
L 270.0864 102.935091 
L 270.44352 110.161631 
L 270.80064 113.509126 
L 271.15776 102.494031 
L 271.51488 108.872305 
L 271.872 102.65418 
L 272.22912 111.349399 
L 272.58624 103.436369 
L 272.94336 104.061664 
L 273.30048 100.423818 
L 273.6576 110.585439 
L 274.01472 112.426821 
L 274.37184 108.719643 
L 275.08608 112.05184 
L 275.80032 110.529777 
L 276.51456 106.410184 
L 276.87168 99.325564 
L 277.2288 101.519794 
L 277.58592 110.978974 
L 278.30016 99.811543 
L 278.65728 104.550247 
L 279.0144 97.865999 
L 279.37152 108.635337 
L 279.72864 108.68221 
L 280.08576 104.489703 
L 280.44288 108.318295 
L 280.8 102.742066 
L 281.15712 104.458129 
L 281.51424 97.616987 
L 281.87136 100.001964 
L 282.22848 104.149876 
L 282.5856 101.137 
L 282.94272 109.486208 
L 283.29984 101.618748 
L 283.65696 96.35891 
L 284.01408 107.315088 
L 284.3712 102.991729 
L 284.72832 107.907833 
L 285.08544 106.092491 
L 285.44256 96.168489 
L 285.79968 104.788517 
L 286.1568 95.793182 
L 286.51392 102.975453 
L 286.87104 95.700087 
L 287.22816 105.091888 
L 287.9424 99.634794 
L 288.29952 99.811218 
L 288.65664 101.712493 
L 289.01376 95.002204 
L 289.37088 102.495008 
L 290.08512 99.042374 
L 290.44224 95.504459 
L 290.79936 93.111996 
L 291.5136 103.668128 
L 291.87072 93.227225 
L 292.22784 94.12985 
L 292.58496 105.501699 
L 292.94208 93.915668 
L 293.2992 93.295581 
L 293.65632 100.409496 
L 294.01344 92.339246 
L 294.37056 105.607163 
L 294.72768 96.071814 
L 295.0848 98.628983 
L 295.44192 99.385782 
L 295.79904 93.367192 
L 296.15616 91.670333 
L 296.51328 101.764574 
L 296.8704 94.128548 
L 297.22752 96.193879 
L 297.58464 99.641955 
L 297.94176 92.666054 
L 298.29888 92.849639 
L 298.656 103.634601 
L 299.01312 96.720872 
L 299.72736 103.186055 
L 300.08448 92.114973 
L 300.4416 103.455899 
L 300.79872 89.768407 
L 301.15584 97.795364 
L 301.51296 89.501818 
L 301.87008 98.278739 
L 302.2272 99.267624 
L 302.58432 90.626113 
L 302.94144 100.582665 
L 303.29856 100.457671 
L 303.65568 96.975091 
L 304.36992 101.901937 
L 304.72704 94.41011 
L 305.08416 99.440142 
L 305.44128 98.513428 
L 305.7984 89.853363 
L 306.15552 88.336184 
L 306.51264 99.949883 
L 306.86976 101.361273 
L 307.22688 88.689031 
L 307.584 95.613177 
L 307.94112 96.043821 
L 308.29824 88.503493 
L 308.65536 91.760824 
L 309.01248 90.430159 
L 309.3696 89.93474 
L 309.72672 93.963843 
L 310.08384 99.468135 
L 310.44096 88.10833 
L 310.79808 93.322272 
L 311.1552 85.936234 
L 311.51232 91.229274 
L 311.86944 91.368264 
L 312.22656 89.943854 
L 312.58368 96.002807 
L 312.9408 94.78672 
L 313.29792 98.550862 
L 314.01216 89.50312 
L 314.36928 94.708273 
L 314.7264 94.037081 
L 315.08352 87.909121 
L 315.44064 88.034766 
L 315.79776 92.495489 
L 316.15488 94.422154 
L 316.512 85.827841 
L 316.86912 87.634069 
L 317.22624 91.050246 
L 317.58336 88.782451 
L 317.94048 83.189622 
L 318.2976 96.389507 
L 318.65472 92.093164 
L 319.01184 93.88149 
L 319.36896 86.621423 
L 319.72608 83.940887 
L 320.0832 86.655275 
L 320.44032 94.430617 
L 321.15456 89.217326 
L 321.51168 94.700461 
L 321.8688 87.472293 
L 322.22592 91.850989 
L 322.58304 83.802222 
L 322.94016 93.337571 
L 323.29728 88.738508 
L 323.6544 90.301259 
L 324.01152 84.145305 
L 324.36864 87.394172 
L 324.72576 94.354123 
L 325.44 83.588365 
L 325.79712 89.457224 
L 326.15424 84.745536 
L 326.51136 83.489086 
L 326.86848 91.228623 
L 327.2256 88.023373 
L 327.58272 86.05602 
L 327.93984 89.600446 
L 328.29696 86.480153 
L 328.65408 88.088149 
L 329.0112 86.026399 
L 329.36832 92.327854 
L 329.72544 92.089258 
L 330.08256 79.554054 
L 330.43968 83.901501 
L 330.7968 91.312929 
L 331.15392 92.337944 
L 331.51104 81.466072 
L 331.86816 88.813049 
L 332.22528 77.912206 
L 332.5824 89.325394 
L 332.93952 80.275699 
L 333.29664 77.938247 
L 333.65376 92.535852 
L 334.72512 80.921502 
L 335.08224 87.43486 
L 335.43936 90.01579 
L 335.79648 79.148149 
L 336.1536 80.85282 
L 336.51072 89.31628 
L 336.86784 82.732612 
L 337.22496 85.795616 
L 337.9392 79.482769 
L 338.29632 85.383201 
L 338.65344 82.015524 
L 339.01056 83.222823 
L 339.36768 90.493307 
L 339.7248 81.675697 
L 340.08192 79.766284 
L 340.43904 82.289274 
L 340.79616 90.147946 
L 341.15328 75.171453 
L 341.5104 81.874906 
L 341.86752 84.854255 
L 342.22464 86.21031 
L 342.58176 82.825056 
L 342.93888 86.710285 
L 343.296 80.187487 
L 343.65312 76.623206 
L 344.01024 85.700243 
L 344.36736 76.897607 
L 344.72448 88.162364 
L 345.0816 81.546146 
L 345.43872 84.746187 
L 345.79584 75.893749 
L 346.15296 73.702122 
L 346.51008 85.823284 
L 346.8672 87.753855 
L 347.22432 73.764619 
L 347.58144 87.249322 
L 347.93856 85.480852 
L 348.29568 77.879005 
L 348.6528 86.867179 
L 349.00992 76.988748 
L 349.36704 83.762511 
L 349.72416 72.007868 
L 350.08128 80.934522 
L 350.4384 76.475426 
L 350.79552 83.358559 
L 351.50976 79.881513 
L 351.86688 72.788429 
L 352.58112 82.985204 
L 352.93824 72.876316 
L 353.29536 81.501226 
L 353.65248 83.689597 
L 354.0096 73.297519 
L 354.36672 71.982153 
L 354.72384 77.279099 
L 355.08096 75.743691 
L 355.43808 84.287876 
L 355.7952 79.766935 
L 356.15232 70.685991 
L 356.50944 79.653008 
L 356.86656 70.056139 
L 357.5808 84.325635 
L 357.93792 82.931496 
L 358.29504 74.745366 
L 358.65216 82.72773 
L 359.00928 81.395112 
L 359.3664 70.494594 
L 359.72352 80.808877 
L 360.08064 77.501093 
L 360.79488 68.598852 
L 361.152 78.217205 
L 361.50912 77.675889 
L 361.86624 82.508665 
L 362.22336 81.602133 
L 362.58048 69.184762 
L 363.29472 80.892206 
L 363.65184 76.27459 
L 364.00896 81.602458 
L 364.36608 81.654214 
L 364.7232 71.409915 
L 365.08032 75.28603 
L 365.43744 68.891481 
L 365.79456 67.349889 
L 366.15168 77.937596 
L 366.5088 78.663147 
L 366.86592 78.714902 
L 367.22304 69.205594 
L 367.58016 72.758157 
L 367.93728 79.708344 
L 368.2944 78.281004 
L 368.65152 80.684534 
L 369.00864 68.769091 
L 369.36576 66.86749 
L 369.72288 71.172296 
L 370.08 68.786343 
L 370.43712 67.915291 
L 370.79424 76.701001 
L 371.15136 80.115225 
L 371.50848 74.334904 
L 371.8656 74.24181 
L 372.22272 78.032643 
L 372.57984 68.956908 
L 372.93696 65.460331 
L 373.29408 80.450821 
L 374.00832 66.679348 
L 374.36544 79.745451 
L 374.72256 77.496536 
L 375.4368 65.110739 
L 375.79392 75.779496 
L 376.15104 77.104302 
L 376.50816 77.503046 
L 376.86528 77.54406 
L 377.2224 71.214937 
L 377.57952 73.502588 
L 377.93664 71.911193 
L 378.29376 74.266874 
L 378.65088 68.430892 
L 379.008 73.139324 
L 379.36512 75.401585 
L 380.07936 67.40555 
L 380.43648 69.603361 
L 380.7936 63.962031 
L 381.15072 72.957692 
L 381.50784 77.70193 
L 381.86496 69.909336 
L 382.22208 68.522684 
L 382.5792 75.864453 
L 382.93632 73.822885 
L 383.29344 61.2841 
L 383.65056 62.997234 
L 384.00768 72.68557 
L 384.3648 73.205401 
L 384.72192 71.816796 
L 385.07904 74.098588 
L 385.43616 74.900307 
L 385.79328 70.676552 
L 386.1504 70.603964 
L 386.50752 71.471761 
L 386.86464 69.171741 
L 387.22176 67.596296 
L 387.57888 62.517765 
L 387.936 70.490037 
L 388.29312 60.779242 
L 389.00736 72.839534 
L 389.36448 70.616659 
L 389.7216 69.618009 
L 390.07872 63.232249 
L 390.43584 67.186811 
L 390.79296 64.327573 
L 391.15008 73.08236 
L 391.5072 69.791829 
L 391.86432 63.492327 
L 392.22144 71.843813 
L 392.57856 63.461404 
L 392.93568 62.323438 
L 393.2928 72.75002 
L 393.64992 60.827416 
L 394.00704 59.570641 
L 394.36416 71.193779 
L 395.0784 61.799049 
L 395.43552 72.004613 
L 395.79264 73.021166 
L 396.14976 64.018018 
L 396.50688 60.019512 
L 396.864 67.870046 
L 397.22112 64.806392 
L 397.57824 63.798628 
L 397.93536 71.845766 
L 398.29248 68.177649 
L 398.6496 58.256902 
L 399.00672 65.256891 
L 399.72096 58.456437 
L 400.07808 60.783473 
L 400.4352 57.470807 
L 400.79232 63.159986 
L 401.14944 63.677865 
L 401.50656 68.534402 
L 401.86368 55.580924 
L 402.2208 59.277361 
L 402.57792 56.646628 
L 402.93504 60.161758 
L 403.29216 70.977319 
L 404.0064 62.98519 
L 404.36352 60.401656 
L 404.72064 59.267596 
L 405.07776 71.070088 
L 405.43488 70.29506 
L 405.792 57.534281 
L 406.14912 61.082287 
L 406.50624 56.495594 
L 406.86336 62.467311 
L 407.22048 65.074282 
L 407.5776 59.111353 
L 407.93472 70.295711 
L 408.29184 56.598128 
L 408.64896 64.805741 
L 409.00608 55.744002 
L 409.3632 68.645074 
L 409.72032 55.365114 
L 410.07744 69.891759 
L 410.43456 60.120094 
L 410.79168 59.728836 
L 411.1488 65.037175 
L 411.50592 54.417243 
L 411.86304 65.058984 
L 412.22016 60.375941 
L 412.57728 58.314191 
L 412.9344 67.658793 
L 413.64864 55.276577 
L 414.00576 53.568 
L 414.36288 60.143204 
L 414.72 60.007794 
L 414.72 60.007794 
" style="fill:none;stroke:#000080;stroke-linecap:square;stroke-width:0.5;"/>
   </g>
   <g id="patch_3">
    <path d="M 57.6 307.584 
L 57.6 41.472 
" style="fill:none;stroke:#000000;stroke-linecap:square;stroke-linejoin:miter;stroke-width:0.8;"/>
   </g>
   <g id="patch_4">
    <path d="M 414.72 307.584 
L 414.72 41.472 
" style="fill:none;stroke:#000000;stroke-linecap:square;stroke-linejoin:miter;stroke-width:0.8;"/>
   </g>
   <g id="patch_5">
    <path d="M 57.6 307.584 
L 414.72 307.584 
" style="fill:none;stroke:#000000;stroke-linecap:square;stroke-linejoin:miter;stroke-width:0.8;"/>
   </g>
   <g id="patch_6">
    <path d="M 57.6 41.472 
L 414.72 41.472 
" style="fill:none;stroke:#000000;stroke-linecap:square;stroke-linejoin:miter;stroke-width:0.8;"/>
   </g>
   <g id="text_17">
    <!-- Test -->
    <defs>
     <path d="M -0.296875 72.90625 
L 61.375 72.90625 
L 61.375 64.59375 
L 35.5 64.59375 
L 35.5 0 
L 25.59375 0 
L 25.59375 64.59375 
L -0.296875 64.59375 
z
" id="DejaVuSans-54"/>
    </defs>
    <g transform="translate(223.341563 35.472)scale(0.12 -0.12)">
     <use xlink:href="#DejaVuSans-54"/>
     <use x="60.818359" xlink:href="#DejaVuSans-65"/>
     <use x="122.341797" xlink:href="#DejaVuSans-73"/>
     <use x="174.441406" xlink:href="#DejaVuSans-74"/>
    </g>
   </g>
   <g id="legend_1">
    <g id="patch_7">
     <path d="M 64.6 64.150125 
L 306.276563 64.150125 
Q 308.276563 64.150125 308.276563 62.150125 
L 308.276563 48.472 
Q 308.276563 46.472 306.276563 46.472 
L 64.6 46.472 
Q 62.6 46.472 62.6 48.472 
L 62.6 62.150125 
Q 62.6 64.150125 64.6 64.150125 
z
" style="fill:#ffffff;opacity:0.8;stroke:#cccccc;stroke-linejoin:miter;"/>
    </g>
    <g id="line2d_30">
     <path d="M 66.6 54.570438 
L 86.6 54.570438 
" style="fill:none;stroke:#000080;stroke-linecap:square;stroke-width:0.5;"/>
    </g>
    <g id="line2d_31"/>
    <g id="text_18">
     <!-- Successful download requests per second -->
     <g transform="translate(94.6 58.070438)scale(0.1 -0.1)">
      <use xlink:href="#DejaVuSans-53"/>
      <use x="63.476562" xlink:href="#DejaVuSans-75"/>
      <use x="126.855469" xlink:href="#DejaVuSans-63"/>
      <use x="181.835938" xlink:href="#DejaVuSans-63"/>
      <use x="236.816406" xlink:href="#DejaVuSans-65"/>
      <use x="298.339844" xlink:href="#DejaVuSans-73"/>
      <use x="350.439453" xlink:href="#DejaVuSans-73"/>
      <use x="402.539062" xlink:href="#DejaVuSans-66"/>
      <use x="437.744141" xlink:href="#DejaVuSans-75"/>
      <use x="501.123047" xlink:href="#DejaVuSans-6c"/>
      <use x="528.90625" xlink:href="#DejaVuSans-20"/>
      <use x="560.693359" xlink:href="#DejaVuSans-64"/>
      <use x="624.169922" xlink:href="#DejaVuSans-6f"/>
      <use x="685.351562" xlink:href="#DejaVuSans-77"/>
      <use x="767.138672" xlink:href="#DejaVuSans-6e"/>
      <use x="830.517578" xlink:href="#DejaVuSans-6c"/>
      <use x="858.300781" xlink:href="#DejaVuSans-6f"/>
      <use x="919.482422" xlink:href="#DejaVuSans-61"/>
      <use x="980.761719" xlink:href="#DejaVuSans-64"/>
      <use x="1044.238281" xlink:href="#DejaVuSans-20"/>
      <use x="1076.025391" xlink:href="#DejaVuSans-72"/>
      <use x="1117.107422" xlink:href="#DejaVuSans-65"/>
      <use x="1178.630859" xlink:href="#DejaVuSans-71"/>
      <use x="1242.107422" xlink:href="#DejaVuSans-75"/>
      <use x="1305.486328" xlink:href="#DejaVuSans-65"/>
      <use x="1367.009766" xlink:href="#DejaVuSans-73"/>
      <use x="1419.109375" xlink:href="#DejaVuSans-74"/>
      <use x="1458.318359" xlink:href="#DejaVuSans-73"/>
      <use x="1510.417969" xlink:href="#DejaVuSans-20"/>
      <use x="1542.205078" xlink:href="#DejaVuSans-70"/>
      <use x="1605.681641" xlink:href="#DejaVuSans-65"/>
      <use x="1667.205078" xlink:href="#DejaVuSans-72"/>
      <use x="1708.318359" xlink:href="#DejaVuSans-20"/>
      <use x="1740.105469" xlink:href="#DejaVuSans-73"/>
      <use x="1792.205078" xlink:href="#DejaVuSans-65"/>
      <use x="1853.728516" xlink:href="#DejaVuSans-63"/>
      <use x="1908.708984" xlink:href="#DejaVuSans-6f"/>
      <use x="1969.890625" xlink:href="#DejaVuSans-6e"/>
      <use x="2033.269531" xlink:href="#DejaVuSans-64"/>
     </g>
    </g>
   </g>
  </g>
 </g>
 <defs>
  <clipPath id="p60febca4b5">
   <rect height="266.112" width="357.12" x="57.6" y="41.472"/>
  </clipPath>
 </defs>
</svg>
