<?xml version="1.0" encoding="utf-8" standalone="no"?>
<!DOCTYPE svg PUBLIC "-//W3C//DTD SVG 1.1//EN"
  "http://www.w3.org/Graphics/SVG/1.1/DTD/svg11.dtd">
<!-- Created with matplotlib (http://matplotlib.org/) -->
<svg height="345pt" version="1.1" viewBox="0 0 460 345" width="460pt" xmlns="http://www.w3.org/2000/svg" xmlns:xlink="http://www.w3.org/1999/xlink">
 <defs>
  <style type="text/css">
*{stroke-linecap:butt;stroke-linejoin:round;}
  </style>
 </defs>
 <g id="figure_1">
  <g id="patch_1">
   <path d="M 0 345.6 
L 460.8 345.6 
L 460.8 0 
L 0 0 
z
" style="fill:#ffffff;"/>
  </g>
  <g id="axes_1">
   <g id="patch_2">
    <path d="M 57.6 307.584 
L 414.72 307.584 
L 414.72 41.472 
L 57.6 41.472 
z
" style="fill:#ffffff;"/>
   </g>
   <g id="matplotlib.axis_1">
    <g id="xtick_1">
     <g id="line2d_1">
      <path clip-path="url(#pd54f3340c8)" d="M 57.6 307.584 
L 57.6 41.472 
" style="fill:none;stroke:#b0b0b0;stroke-linecap:square;stroke-width:0.8;"/>
     </g>
     <g id="line2d_2">
      <defs>
       <path d="M 0 0 
L 0 3.5 
" id="m369c26baab" style="stroke:#000000;stroke-width:0.8;"/>
      </defs>
      <g>
       <use style="stroke:#000000;stroke-width:0.8;" x="57.6" xlink:href="#m369c26baab" y="307.584"/>
      </g>
     </g>
     <g id="text_1">
      <!-- 0 -->
      <defs>
       <path d="M 31.78125 66.40625 
Q 24.171875 66.40625 20.328125 58.90625 
Q 16.5 51.421875 16.5 36.375 
Q 16.5 21.390625 20.328125 13.890625 
Q 24.171875 6.390625 31.78125 6.390625 
Q 39.453125 6.390625 43.28125 13.890625 
Q 47.125 21.390625 47.125 36.375 
Q 47.125 51.421875 43.28125 58.90625 
Q 39.453125 66.40625 31.78125 66.40625 
M 31.78125 74.21875 
Q 44.046875 74.21875 50.515625 64.515625 
Q 56.984375 54.828125 56.984375 36.375 
Q 56.984375 17.96875 50.515625 8.265625 
Q 44.046875 -1.421875 31.78125 -1.421875 
Q 19.53125 -1.421875 13.0625 8.265625 
Q 6.59375 17.96875 6.59375 36.375 
Q 6.59375 54.828125 13.0625 64.515625 
Q 19.53125 74.21875 31.78125 74.21875 
" id="DejaVuSans-30"/>
      </defs>
      <g transform="translate(54.41875 322.182437)scale(0.1 -0.1)">
       <use xlink:href="#DejaVuSans-30"/>
      </g>
     </g>
    </g>
    <g id="xtick_2">
     <g id="line2d_3">
      <path clip-path="url(#pd54f3340c8)" d="M 129.024 307.584 
L 129.024 41.472 
" style="fill:none;stroke:#b0b0b0;stroke-linecap:square;stroke-width:0.8;"/>
     </g>
     <g id="line2d_4">
      <g>
       <use style="stroke:#000000;stroke-width:0.8;" x="129.024" xlink:href="#m369c26baab" y="307.584"/>
      </g>
     </g>
     <g id="text_2">
      <!-- 200 -->
      <defs>
       <path d="M 19.1875 8.296875 
L 53.609375 8.296875 
L 53.609375 0 
L 7.328125 0 
L 7.328125 8.296875 
Q 12.9375 14.109375 22.625 23.890625 
Q 32.328125 33.6875 34.8125 36.53125 
Q 39.546875 41.84375 41.421875 45.53125 
Q 43.3125 49.21875 43.3125 52.78125 
Q 43.3125 58.59375 39.234375 62.25 
Q 35.15625 65.921875 28.609375 65.921875 
Q 23.96875 65.921875 18.8125 64.3125 
Q 13.671875 62.703125 7.8125 59.421875 
L 7.8125 69.390625 
Q 13.765625 71.78125 18.9375 73 
Q 24.125 74.21875 28.421875 74.21875 
Q 39.75 74.21875 46.484375 68.546875 
Q 53.21875 62.890625 53.21875 53.421875 
Q 53.21875 48.921875 51.53125 44.890625 
Q 49.859375 40.875 45.40625 35.40625 
Q 44.1875 33.984375 37.640625 27.21875 
Q 31.109375 20.453125 19.1875 8.296875 
" id="DejaVuSans-32"/>
      </defs>
      <g transform="translate(119.48025 322.182437)scale(0.1 -0.1)">
       <use xlink:href="#DejaVuSans-32"/>
       <use x="63.623047" xlink:href="#DejaVuSans-30"/>
       <use x="127.246094" xlink:href="#DejaVuSans-30"/>
      </g>
     </g>
    </g>
    <g id="xtick_3">
     <g id="line2d_5">
      <path clip-path="url(#pd54f3340c8)" d="M 200.448 307.584 
L 200.448 41.472 
" style="fill:none;stroke:#b0b0b0;stroke-linecap:square;stroke-width:0.8;"/>
     </g>
     <g id="line2d_6">
      <g>
       <use style="stroke:#000000;stroke-width:0.8;" x="200.448" xlink:href="#m369c26baab" y="307.584"/>
      </g>
     </g>
     <g id="text_3">
      <!-- 400 -->
      <defs>
       <path d="M 37.796875 64.3125 
L 12.890625 25.390625 
L 37.796875 25.390625 
z
M 35.203125 72.90625 
L 47.609375 72.90625 
L 47.609375 25.390625 
L 58.015625 25.390625 
L 58.015625 17.1875 
L 47.609375 17.1875 
L 47.609375 0 
L 37.796875 0 
L 37.796875 17.1875 
L 4.890625 17.1875 
L 4.890625 26.703125 
z
" id="DejaVuSans-34"/>
      </defs>
      <g transform="translate(190.90425 322.182437)scale(0.1 -0.1)">
       <use xlink:href="#DejaVuSans-34"/>
       <use x="63.623047" xlink:href="#DejaVuSans-30"/>
       <use x="127.246094" xlink:href="#DejaVuSans-30"/>
      </g>
     </g>
    </g>
    <g id="xtick_4">
     <g id="line2d_7">
      <path clip-path="url(#pd54f3340c8)" d="M 271.872 307.584 
L 271.872 41.472 
" style="fill:none;stroke:#b0b0b0;stroke-linecap:square;stroke-width:0.8;"/>
     </g>
     <g id="line2d_8">
      <g>
       <use style="stroke:#000000;stroke-width:0.8;" x="271.872" xlink:href="#m369c26baab" y="307.584"/>
      </g>
     </g>
     <g id="text_4">
      <!-- 600 -->
      <defs>
       <path d="M 33.015625 40.375 
Q 26.375 40.375 22.484375 35.828125 
Q 18.609375 31.296875 18.609375 23.390625 
Q 18.609375 15.53125 22.484375 10.953125 
Q 26.375 6.390625 33.015625 6.390625 
Q 39.65625 6.390625 43.53125 10.953125 
Q 47.40625 15.53125 47.40625 23.390625 
Q 47.40625 31.296875 43.53125 35.828125 
Q 39.65625 40.375 33.015625 40.375 
M 52.59375 71.296875 
L 52.59375 62.3125 
Q 48.875 64.0625 45.09375 64.984375 
Q 41.3125 65.921875 37.59375 65.921875 
Q 27.828125 65.921875 22.671875 59.328125 
Q 17.53125 52.734375 16.796875 39.40625 
Q 19.671875 43.65625 24.015625 45.921875 
Q 28.375 48.1875 33.59375 48.1875 
Q 44.578125 48.1875 50.953125 41.515625 
Q 57.328125 34.859375 57.328125 23.390625 
Q 57.328125 12.15625 50.6875 5.359375 
Q 44.046875 -1.421875 33.015625 -1.421875 
Q 20.359375 -1.421875 13.671875 8.265625 
Q 6.984375 17.96875 6.984375 36.375 
Q 6.984375 53.65625 15.1875 63.9375 
Q 23.390625 74.21875 37.203125 74.21875 
Q 40.921875 74.21875 44.703125 73.484375 
Q 48.484375 72.75 52.59375 71.296875 
" id="DejaVuSans-36"/>
      </defs>
      <g transform="translate(262.32825 322.182437)scale(0.1 -0.1)">
       <use xlink:href="#DejaVuSans-36"/>
       <use x="63.623047" xlink:href="#DejaVuSans-30"/>
       <use x="127.246094" xlink:href="#DejaVuSans-30"/>
      </g>
     </g>
    </g>
    <g id="xtick_5">
     <g id="line2d_9">
      <path clip-path="url(#pd54f3340c8)" d="M 343.296 307.584 
L 343.296 41.472 
" style="fill:none;stroke:#b0b0b0;stroke-linecap:square;stroke-width:0.8;"/>
     </g>
     <g id="line2d_10">
      <g>
       <use style="stroke:#000000;stroke-width:0.8;" x="343.296" xlink:href="#m369c26baab" y="307.584"/>
      </g>
     </g>
     <g id="text_5">
      <!-- 800 -->
      <defs>
       <path d="M 31.78125 34.625 
Q 24.75 34.625 20.71875 30.859375 
Q 16.703125 27.09375 16.703125 20.515625 
Q 16.703125 13.921875 20.71875 10.15625 
Q 24.75 6.390625 31.78125 6.390625 
Q 38.8125 6.390625 42.859375 10.171875 
Q 46.921875 13.96875 46.921875 20.515625 
Q 46.921875 27.09375 42.890625 30.859375 
Q 38.875 34.625 31.78125 34.625 
M 21.921875 38.8125 
Q 15.578125 40.375 12.03125 44.71875 
Q 8.5 49.078125 8.5 55.328125 
Q 8.5 64.0625 14.71875 69.140625 
Q 20.953125 74.21875 31.78125 74.21875 
Q 42.671875 74.21875 48.875 69.140625 
Q 55.078125 64.0625 55.078125 55.328125 
Q 55.078125 49.078125 51.53125 44.71875 
Q 48 40.375 41.703125 38.8125 
Q 48.828125 37.15625 52.796875 32.3125 
Q 56.78125 27.484375 56.78125 20.515625 
Q 56.78125 9.90625 50.3125 4.234375 
Q 43.84375 -1.421875 31.78125 -1.421875 
Q 19.734375 -1.421875 13.25 4.234375 
Q 6.78125 9.90625 6.78125 20.515625 
Q 6.78125 27.484375 10.78125 32.3125 
Q 14.796875 37.15625 21.921875 38.8125 
M 18.3125 54.390625 
Q 18.3125 48.734375 21.84375 45.5625 
Q 25.390625 42.390625 31.78125 42.390625 
Q 38.140625 42.390625 41.71875 45.5625 
Q 45.3125 48.734375 45.3125 54.390625 
Q 45.3125 60.0625 41.71875 63.234375 
Q 38.140625 66.40625 31.78125 66.40625 
Q 25.390625 66.40625 21.84375 63.234375 
Q 18.3125 60.0625 18.3125 54.390625 
" id="DejaVuSans-38"/>
      </defs>
      <g transform="translate(333.75225 322.182437)scale(0.1 -0.1)">
       <use xlink:href="#DejaVuSans-38"/>
       <use x="63.623047" xlink:href="#DejaVuSans-30"/>
       <use x="127.246094" xlink:href="#DejaVuSans-30"/>
      </g>
     </g>
    </g>
    <g id="xtick_6">
     <g id="line2d_11">
      <path clip-path="url(#pd54f3340c8)" d="M 414.72 307.584 
L 414.72 41.472 
" style="fill:none;stroke:#b0b0b0;stroke-linecap:square;stroke-width:0.8;"/>
     </g>
     <g id="line2d_12">
      <g>
       <use style="stroke:#000000;stroke-width:0.8;" x="414.72" xlink:href="#m369c26baab" y="307.584"/>
      </g>
     </g>
     <g id="text_6">
      <!-- 1000 -->
      <defs>
       <path d="M 12.40625 8.296875 
L 28.515625 8.296875 
L 28.515625 63.921875 
L 10.984375 60.40625 
L 10.984375 69.390625 
L 28.421875 72.90625 
L 38.28125 72.90625 
L 38.28125 8.296875 
L 54.390625 8.296875 
L 54.390625 0 
L 12.40625 0 
z
" id="DejaVuSans-31"/>
      </defs>
      <g transform="translate(401.995 322.182437)scale(0.1 -0.1)">
       <use xlink:href="#DejaVuSans-31"/>
       <use x="63.623047" xlink:href="#DejaVuSans-30"/>
       <use x="127.246094" xlink:href="#DejaVuSans-30"/>
       <use x="190.869141" xlink:href="#DejaVuSans-30"/>
      </g>
     </g>
    </g>
    <g id="text_7">
     <!-- Number of clients -->
     <defs>
      <path d="M 9.8125 72.90625 
L 23.09375 72.90625 
L 55.421875 11.921875 
L 55.421875 72.90625 
L 64.984375 72.90625 
L 64.984375 0 
L 51.703125 0 
L 19.390625 60.984375 
L 19.390625 0 
L 9.8125 0 
z
" id="DejaVuSans-4e"/>
      <path d="M 8.5 21.578125 
L 8.5 54.6875 
L 17.484375 54.6875 
L 17.484375 21.921875 
Q 17.484375 14.15625 20.5 10.265625 
Q 23.53125 6.390625 29.59375 6.390625 
Q 36.859375 6.390625 41.078125 11.03125 
Q 45.3125 15.671875 45.3125 23.6875 
L 45.3125 54.6875 
L 54.296875 54.6875 
L 54.296875 0 
L 45.3125 0 
L 45.3125 8.40625 
Q 42.046875 3.421875 37.71875 1 
Q 33.40625 -1.421875 27.6875 -1.421875 
Q 18.265625 -1.421875 13.375 4.4375 
Q 8.5 10.296875 8.5 21.578125 
M 31.109375 56 
z
" id="DejaVuSans-75"/>
      <path d="M 52 44.1875 
Q 55.375 50.25 60.0625 53.125 
Q 64.75 56 71.09375 56 
Q 79.640625 56 84.28125 50.015625 
Q 88.921875 44.046875 88.921875 33.015625 
L 88.921875 0 
L 79.890625 0 
L 79.890625 32.71875 
Q 79.890625 40.578125 77.09375 44.375 
Q 74.3125 48.1875 68.609375 48.1875 
Q 61.625 48.1875 57.5625 43.546875 
Q 53.515625 38.921875 53.515625 30.90625 
L 53.515625 0 
L 44.484375 0 
L 44.484375 32.71875 
Q 44.484375 40.625 41.703125 44.40625 
Q 38.921875 48.1875 33.109375 48.1875 
Q 26.21875 48.1875 22.15625 43.53125 
Q 18.109375 38.875 18.109375 30.90625 
L 18.109375 0 
L 9.078125 0 
L 9.078125 54.6875 
L 18.109375 54.6875 
L 18.109375 46.1875 
Q 21.1875 51.21875 25.484375 53.609375 
Q 29.78125 56 35.6875 56 
Q 41.65625 56 45.828125 52.96875 
Q 50 49.953125 52 44.1875 
" id="DejaVuSans-6d"/>
      <path d="M 48.6875 27.296875 
Q 48.6875 37.203125 44.609375 42.84375 
Q 40.53125 48.484375 33.40625 48.484375 
Q 26.265625 48.484375 22.1875 42.84375 
Q 18.109375 37.203125 18.109375 27.296875 
Q 18.109375 17.390625 22.1875 11.75 
Q 26.265625 6.109375 33.40625 6.109375 
Q 40.53125 6.109375 44.609375 11.75 
Q 48.6875 17.390625 48.6875 27.296875 
M 18.109375 46.390625 
Q 20.953125 51.265625 25.265625 53.625 
Q 29.59375 56 35.59375 56 
Q 45.5625 56 51.78125 48.09375 
Q 58.015625 40.1875 58.015625 27.296875 
Q 58.015625 14.40625 51.78125 6.484375 
Q 45.5625 -1.421875 35.59375 -1.421875 
Q 29.59375 -1.421875 25.265625 0.953125 
Q 20.953125 3.328125 18.109375 8.203125 
L 18.109375 0 
L 9.078125 0 
L 9.078125 75.984375 
L 18.109375 75.984375 
z
" id="DejaVuSans-62"/>
      <path d="M 56.203125 29.59375 
L 56.203125 25.203125 
L 14.890625 25.203125 
Q 15.484375 15.921875 20.484375 11.0625 
Q 25.484375 6.203125 34.421875 6.203125 
Q 39.59375 6.203125 44.453125 7.46875 
Q 49.3125 8.734375 54.109375 11.28125 
L 54.109375 2.78125 
Q 49.265625 0.734375 44.1875 -0.34375 
Q 39.109375 -1.421875 33.890625 -1.421875 
Q 20.796875 -1.421875 13.15625 6.1875 
Q 5.515625 13.8125 5.515625 26.8125 
Q 5.515625 40.234375 12.765625 48.109375 
Q 20.015625 56 32.328125 56 
Q 43.359375 56 49.78125 48.890625 
Q 56.203125 41.796875 56.203125 29.59375 
M 47.21875 32.234375 
Q 47.125 39.59375 43.09375 43.984375 
Q 39.0625 48.390625 32.421875 48.390625 
Q 24.90625 48.390625 20.390625 44.140625 
Q 15.875 39.890625 15.1875 32.171875 
z
" id="DejaVuSans-65"/>
      <path d="M 41.109375 46.296875 
Q 39.59375 47.171875 37.8125 47.578125 
Q 36.03125 48 33.890625 48 
Q 26.265625 48 22.1875 43.046875 
Q 18.109375 38.09375 18.109375 28.8125 
L 18.109375 0 
L 9.078125 0 
L 9.078125 54.6875 
L 18.109375 54.6875 
L 18.109375 46.1875 
Q 20.953125 51.171875 25.484375 53.578125 
Q 30.03125 56 36.53125 56 
Q 37.453125 56 38.578125 55.875 
Q 39.703125 55.765625 41.0625 55.515625 
z
" id="DejaVuSans-72"/>
      <path id="DejaVuSans-20"/>
      <path d="M 30.609375 48.390625 
Q 23.390625 48.390625 19.1875 42.75 
Q 14.984375 37.109375 14.984375 27.296875 
Q 14.984375 17.484375 19.15625 11.84375 
Q 23.34375 6.203125 30.609375 6.203125 
Q 37.796875 6.203125 41.984375 11.859375 
Q 46.1875 17.53125 46.1875 27.296875 
Q 46.1875 37.015625 41.984375 42.703125 
Q 37.796875 48.390625 30.609375 48.390625 
M 30.609375 56 
Q 42.328125 56 49.015625 48.375 
Q 55.71875 40.765625 55.71875 27.296875 
Q 55.71875 13.875 49.015625 6.21875 
Q 42.328125 -1.421875 30.609375 -1.421875 
Q 18.84375 -1.421875 12.171875 6.21875 
Q 5.515625 13.875 5.515625 27.296875 
Q 5.515625 40.765625 12.171875 48.375 
Q 18.84375 56 30.609375 56 
" id="DejaVuSans-6f"/>
      <path d="M 37.109375 75.984375 
L 37.109375 68.5 
L 28.515625 68.5 
Q 23.6875 68.5 21.796875 66.546875 
Q 19.921875 64.59375 19.921875 59.515625 
L 19.921875 54.6875 
L 34.71875 54.6875 
L 34.71875 47.703125 
L 19.921875 47.703125 
L 19.921875 0 
L 10.890625 0 
L 10.890625 47.703125 
L 2.296875 47.703125 
L 2.296875 54.6875 
L 10.890625 54.6875 
L 10.890625 58.5 
Q 10.890625 67.625 15.140625 71.796875 
Q 19.390625 75.984375 28.609375 75.984375 
z
" id="DejaVuSans-66"/>
      <path d="M 48.78125 52.59375 
L 48.78125 44.1875 
Q 44.96875 46.296875 41.140625 47.34375 
Q 37.3125 48.390625 33.40625 48.390625 
Q 24.65625 48.390625 19.8125 42.84375 
Q 14.984375 37.3125 14.984375 27.296875 
Q 14.984375 17.28125 19.8125 11.734375 
Q 24.65625 6.203125 33.40625 6.203125 
Q 37.3125 6.203125 41.140625 7.25 
Q 44.96875 8.296875 48.78125 10.40625 
L 48.78125 2.09375 
Q 45.015625 0.34375 40.984375 -0.53125 
Q 36.96875 -1.421875 32.421875 -1.421875 
Q 20.0625 -1.421875 12.78125 6.34375 
Q 5.515625 14.109375 5.515625 27.296875 
Q 5.515625 40.671875 12.859375 48.328125 
Q 20.21875 56 33.015625 56 
Q 37.15625 56 41.109375 55.140625 
Q 45.0625 54.296875 48.78125 52.59375 
" id="DejaVuSans-63"/>
      <path d="M 9.421875 75.984375 
L 18.40625 75.984375 
L 18.40625 0 
L 9.421875 0 
z
" id="DejaVuSans-6c"/>
      <path d="M 9.421875 54.6875 
L 18.40625 54.6875 
L 18.40625 0 
L 9.421875 0 
z
M 9.421875 75.984375 
L 18.40625 75.984375 
L 18.40625 64.59375 
L 9.421875 64.59375 
z
" id="DejaVuSans-69"/>
      <path d="M 54.890625 33.015625 
L 54.890625 0 
L 45.90625 0 
L 45.90625 32.71875 
Q 45.90625 40.484375 42.875 44.328125 
Q 39.84375 48.1875 33.796875 48.1875 
Q 26.515625 48.1875 22.3125 43.546875 
Q 18.109375 38.921875 18.109375 30.90625 
L 18.109375 0 
L 9.078125 0 
L 9.078125 54.6875 
L 18.109375 54.6875 
L 18.109375 46.1875 
Q 21.34375 51.125 25.703125 53.5625 
Q 30.078125 56 35.796875 56 
Q 45.21875 56 50.046875 50.171875 
Q 54.890625 44.34375 54.890625 33.015625 
" id="DejaVuSans-6e"/>
      <path d="M 18.3125 70.21875 
L 18.3125 54.6875 
L 36.8125 54.6875 
L 36.8125 47.703125 
L 18.3125 47.703125 
L 18.3125 18.015625 
Q 18.3125 11.328125 20.140625 9.421875 
Q 21.96875 7.515625 27.59375 7.515625 
L 36.8125 7.515625 
L 36.8125 0 
L 27.59375 0 
Q 17.1875 0 13.234375 3.875 
Q 9.28125 7.765625 9.28125 18.015625 
L 9.28125 47.703125 
L 2.6875 47.703125 
L 2.6875 54.6875 
L 9.28125 54.6875 
L 9.28125 70.21875 
z
" id="DejaVuSans-74"/>
      <path d="M 44.28125 53.078125 
L 44.28125 44.578125 
Q 40.484375 46.53125 36.375 47.5 
Q 32.28125 48.484375 27.875 48.484375 
Q 21.1875 48.484375 17.84375 46.4375 
Q 14.5 44.390625 14.5 40.28125 
Q 14.5 37.15625 16.890625 35.375 
Q 19.28125 33.59375 26.515625 31.984375 
L 29.59375 31.296875 
Q 39.15625 29.25 43.1875 25.515625 
Q 47.21875 21.78125 47.21875 15.09375 
Q 47.21875 7.46875 41.1875 3.015625 
Q 35.15625 -1.421875 24.609375 -1.421875 
Q 20.21875 -1.421875 15.453125 -0.5625 
Q 10.6875 0.296875 5.421875 2 
L 5.421875 11.28125 
Q 10.40625 8.6875 15.234375 7.390625 
Q 20.0625 6.109375 24.8125 6.109375 
Q 31.15625 6.109375 34.5625 8.28125 
Q 37.984375 10.453125 37.984375 14.40625 
Q 37.984375 18.0625 35.515625 20.015625 
Q 33.0625 21.96875 24.703125 23.78125 
L 21.578125 24.515625 
Q 13.234375 26.265625 9.515625 29.90625 
Q 5.8125 33.546875 5.8125 39.890625 
Q 5.8125 47.609375 11.28125 51.796875 
Q 16.75 56 26.8125 56 
Q 31.78125 56 36.171875 55.265625 
Q 40.578125 54.546875 44.28125 53.078125 
" id="DejaVuSans-73"/>
     </defs>
     <g transform="translate(191.738906 335.860562)scale(0.1 -0.1)">
      <use xlink:href="#DejaVuSans-4e"/>
      <use x="74.804688" xlink:href="#DejaVuSans-75"/>
      <use x="138.183594" xlink:href="#DejaVuSans-6d"/>
      <use x="235.595703" xlink:href="#DejaVuSans-62"/>
      <use x="299.072266" xlink:href="#DejaVuSans-65"/>
      <use x="360.595703" xlink:href="#DejaVuSans-72"/>
      <use x="401.708984" xlink:href="#DejaVuSans-20"/>
      <use x="433.496094" xlink:href="#DejaVuSans-6f"/>
      <use x="494.677734" xlink:href="#DejaVuSans-66"/>
      <use x="529.882812" xlink:href="#DejaVuSans-20"/>
      <use x="561.669922" xlink:href="#DejaVuSans-63"/>
      <use x="616.650391" xlink:href="#DejaVuSans-6c"/>
      <use x="644.433594" xlink:href="#DejaVuSans-69"/>
      <use x="672.216797" xlink:href="#DejaVuSans-65"/>
      <use x="733.740234" xlink:href="#DejaVuSans-6e"/>
      <use x="797.119141" xlink:href="#DejaVuSans-74"/>
      <use x="836.328125" xlink:href="#DejaVuSans-73"/>
     </g>
    </g>
   </g>
   <g id="matplotlib.axis_2">
    <g id="ytick_1">
     <g id="line2d_13">
      <path clip-path="url(#pd54f3340c8)" d="M 57.6 296.807131 
L 414.72 296.807131 
" style="fill:none;stroke:#b0b0b0;stroke-linecap:square;stroke-width:0.8;"/>
     </g>
     <g id="line2d_14">
      <defs>
       <path d="M 0 0 
L -3.5 0 
" id="mb7690369f7" style="stroke:#000000;stroke-width:0.8;"/>
      </defs>
      <g>
       <use style="stroke:#000000;stroke-width:0.8;" x="57.6" xlink:href="#mb7690369f7" y="296.807131"/>
      </g>
     </g>
     <g id="text_8">
      <!-- 0 -->
      <g transform="translate(44.2375 300.60635)scale(0.1 -0.1)">
       <use xlink:href="#DejaVuSans-30"/>
      </g>
     </g>
    </g>
    <g id="ytick_2">
     <g id="line2d_15">
      <path clip-path="url(#pd54f3340c8)" d="M 57.6 262.019921 
L 414.72 262.019921 
" style="fill:none;stroke:#b0b0b0;stroke-linecap:square;stroke-width:0.8;"/>
     </g>
     <g id="line2d_16">
      <g>
       <use style="stroke:#000000;stroke-width:0.8;" x="57.6" xlink:href="#mb7690369f7" y="262.019921"/>
      </g>
     </g>
     <g id="text_9">
      <!-- 25 -->
      <defs>
       <path d="M 10.796875 72.90625 
L 49.515625 72.90625 
L 49.515625 64.59375 
L 19.828125 64.59375 
L 19.828125 46.734375 
Q 21.96875 47.46875 24.109375 47.828125 
Q 26.265625 48.1875 28.421875 48.1875 
Q 40.625 48.1875 47.75 41.5 
Q 54.890625 34.8125 54.890625 23.390625 
Q 54.890625 11.625 47.5625 5.09375 
Q 40.234375 -1.421875 26.90625 -1.421875 
Q 22.3125 -1.421875 17.546875 -0.640625 
Q 12.796875 0.140625 7.71875 1.703125 
L 7.71875 11.625 
Q 12.109375 9.234375 16.796875 8.0625 
Q 21.484375 6.890625 26.703125 6.890625 
Q 35.15625 6.890625 40.078125 11.328125 
Q 45.015625 15.765625 45.015625 23.390625 
Q 45.015625 31 40.078125 35.4375 
Q 35.15625 39.890625 26.703125 39.890625 
Q 22.75 39.890625 18.8125 39.015625 
Q 14.890625 38.140625 10.796875 36.28125 
z
" id="DejaVuSans-35"/>
      </defs>
      <g transform="translate(37.875 265.81914)scale(0.1 -0.1)">
       <use xlink:href="#DejaVuSans-32"/>
       <use x="63.623047" xlink:href="#DejaVuSans-35"/>
      </g>
     </g>
    </g>
    <g id="ytick_3">
     <g id="line2d_17">
      <path clip-path="url(#pd54f3340c8)" d="M 57.6 227.232711 
L 414.72 227.232711 
" style="fill:none;stroke:#b0b0b0;stroke-linecap:square;stroke-width:0.8;"/>
     </g>
     <g id="line2d_18">
      <g>
       <use style="stroke:#000000;stroke-width:0.8;" x="57.6" xlink:href="#mb7690369f7" y="227.232711"/>
      </g>
     </g>
     <g id="text_10">
      <!-- 50 -->
      <g transform="translate(37.875 231.031929)scale(0.1 -0.1)">
       <use xlink:href="#DejaVuSans-35"/>
       <use x="63.623047" xlink:href="#DejaVuSans-30"/>
      </g>
     </g>
    </g>
    <g id="ytick_4">
     <g id="line2d_19">
      <path clip-path="url(#pd54f3340c8)" d="M 57.6 192.4455 
L 414.72 192.4455 
" style="fill:none;stroke:#b0b0b0;stroke-linecap:square;stroke-width:0.8;"/>
     </g>
     <g id="line2d_20">
      <g>
       <use style="stroke:#000000;stroke-width:0.8;" x="57.6" xlink:href="#mb7690369f7" y="192.4455"/>
      </g>
     </g>
     <g id="text_11">
      <!-- 75 -->
      <defs>
       <path d="M 8.203125 72.90625 
L 55.078125 72.90625 
L 55.078125 68.703125 
L 28.609375 0 
L 18.3125 0 
L 43.21875 64.59375 
L 8.203125 64.59375 
z
" id="DejaVuSans-37"/>
      </defs>
      <g transform="translate(37.875 196.244719)scale(0.1 -0.1)">
       <use xlink:href="#DejaVuSans-37"/>
       <use x="63.623047" xlink:href="#DejaVuSans-35"/>
      </g>
     </g>
    </g>
    <g id="ytick_5">
     <g id="line2d_21">
      <path clip-path="url(#pd54f3340c8)" d="M 57.6 157.65829 
L 414.72 157.65829 
" style="fill:none;stroke:#b0b0b0;stroke-linecap:square;stroke-width:0.8;"/>
     </g>
     <g id="line2d_22">
      <g>
       <use style="stroke:#000000;stroke-width:0.8;" x="57.6" xlink:href="#mb7690369f7" y="157.65829"/>
      </g>
     </g>
     <g id="text_12">
      <!-- 100 -->
      <g transform="translate(31.5125 161.457509)scale(0.1 -0.1)">
       <use xlink:href="#DejaVuSans-31"/>
       <use x="63.623047" xlink:href="#DejaVuSans-30"/>
       <use x="127.246094" xlink:href="#DejaVuSans-30"/>
      </g>
     </g>
    </g>
    <g id="ytick_6">
     <g id="line2d_23">
      <path clip-path="url(#pd54f3340c8)" d="M 57.6 122.87108 
L 414.72 122.87108 
" style="fill:none;stroke:#b0b0b0;stroke-linecap:square;stroke-width:0.8;"/>
     </g>
     <g id="line2d_24">
      <g>
       <use style="stroke:#000000;stroke-width:0.8;" x="57.6" xlink:href="#mb7690369f7" y="122.87108"/>
      </g>
     </g>
     <g id="text_13">
      <!-- 125 -->
      <g transform="translate(31.5125 126.670299)scale(0.1 -0.1)">
       <use xlink:href="#DejaVuSans-31"/>
       <use x="63.623047" xlink:href="#DejaVuSans-32"/>
       <use x="127.246094" xlink:href="#DejaVuSans-35"/>
      </g>
     </g>
    </g>
    <g id="ytick_7">
     <g id="line2d_25">
      <path clip-path="url(#pd54f3340c8)" d="M 57.6 88.08387 
L 414.72 88.08387 
" style="fill:none;stroke:#b0b0b0;stroke-linecap:square;stroke-width:0.8;"/>
     </g>
     <g id="line2d_26">
      <g>
       <use style="stroke:#000000;stroke-width:0.8;" x="57.6" xlink:href="#mb7690369f7" y="88.08387"/>
      </g>
     </g>
     <g id="text_14">
      <!-- 150 -->
      <g transform="translate(31.5125 91.883089)scale(0.1 -0.1)">
       <use xlink:href="#DejaVuSans-31"/>
       <use x="63.623047" xlink:href="#DejaVuSans-35"/>
       <use x="127.246094" xlink:href="#DejaVuSans-30"/>
      </g>
     </g>
    </g>
    <g id="ytick_8">
     <g id="line2d_27">
      <path clip-path="url(#pd54f3340c8)" d="M 57.6 53.29666 
L 414.72 53.29666 
" style="fill:none;stroke:#b0b0b0;stroke-linecap:square;stroke-width:0.8;"/>
     </g>
     <g id="line2d_28">
      <g>
       <use style="stroke:#000000;stroke-width:0.8;" x="57.6" xlink:href="#mb7690369f7" y="53.29666"/>
      </g>
     </g>
     <g id="text_15">
      <!-- 175 -->
      <g transform="translate(31.5125 57.095879)scale(0.1 -0.1)">
       <use xlink:href="#DejaVuSans-31"/>
       <use x="63.623047" xlink:href="#DejaVuSans-37"/>
       <use x="127.246094" xlink:href="#DejaVuSans-35"/>
      </g>
     </g>
    </g>
    <g id="text_16">
     <!-- Successful download requests per second -->
     <defs>
      <path d="M 53.515625 70.515625 
L 53.515625 60.890625 
Q 47.90625 63.578125 42.921875 64.890625 
Q 37.9375 66.21875 33.296875 66.21875 
Q 25.25 66.21875 20.875 63.09375 
Q 16.5 59.96875 16.5 54.203125 
Q 16.5 49.359375 19.40625 46.890625 
Q 22.3125 44.4375 30.421875 42.921875 
L 36.375 41.703125 
Q 47.40625 39.59375 52.65625 34.296875 
Q 57.90625 29 57.90625 20.125 
Q 57.90625 9.515625 50.796875 4.046875 
Q 43.703125 -1.421875 29.984375 -1.421875 
Q 24.8125 -1.421875 18.96875 -0.25 
Q 13.140625 0.921875 6.890625 3.21875 
L 6.890625 13.375 
Q 12.890625 10.015625 18.65625 8.296875 
Q 24.421875 6.59375 29.984375 6.59375 
Q 38.421875 6.59375 43.015625 9.90625 
Q 47.609375 13.234375 47.609375 19.390625 
Q 47.609375 24.75 44.3125 27.78125 
Q 41.015625 30.8125 33.5 32.328125 
L 27.484375 33.5 
Q 16.453125 35.6875 11.515625 40.375 
Q 6.59375 45.0625 6.59375 53.421875 
Q 6.59375 63.09375 13.40625 68.65625 
Q 20.21875 74.21875 32.171875 74.21875 
Q 37.3125 74.21875 42.625 73.28125 
Q 47.953125 72.359375 53.515625 70.515625 
" id="DejaVuSans-53"/>
      <path d="M 45.40625 46.390625 
L 45.40625 75.984375 
L 54.390625 75.984375 
L 54.390625 0 
L 45.40625 0 
L 45.40625 8.203125 
Q 42.578125 3.328125 38.25 0.953125 
Q 33.9375 -1.421875 27.875 -1.421875 
Q 17.96875 -1.421875 11.734375 6.484375 
Q 5.515625 14.40625 5.515625 27.296875 
Q 5.515625 40.1875 11.734375 48.09375 
Q 17.96875 56 27.875 56 
Q 33.9375 56 38.25 53.625 
Q 42.578125 51.265625 45.40625 46.390625 
M 14.796875 27.296875 
Q 14.796875 17.390625 18.875 11.75 
Q 22.953125 6.109375 30.078125 6.109375 
Q 37.203125 6.109375 41.296875 11.75 
Q 45.40625 17.390625 45.40625 27.296875 
Q 45.40625 37.203125 41.296875 42.84375 
Q 37.203125 48.484375 30.078125 48.484375 
Q 22.953125 48.484375 18.875 42.84375 
Q 14.796875 37.203125 14.796875 27.296875 
" id="DejaVuSans-64"/>
      <path d="M 4.203125 54.6875 
L 13.1875 54.6875 
L 24.421875 12.015625 
L 35.59375 54.6875 
L 46.1875 54.6875 
L 57.421875 12.015625 
L 68.609375 54.6875 
L 77.59375 54.6875 
L 63.28125 0 
L 52.6875 0 
L 40.921875 44.828125 
L 29.109375 0 
L 18.5 0 
z
" id="DejaVuSans-77"/>
      <path d="M 34.28125 27.484375 
Q 23.390625 27.484375 19.1875 25 
Q 14.984375 22.515625 14.984375 16.5 
Q 14.984375 11.71875 18.140625 8.90625 
Q 21.296875 6.109375 26.703125 6.109375 
Q 34.1875 6.109375 38.703125 11.40625 
Q 43.21875 16.703125 43.21875 25.484375 
L 43.21875 27.484375 
z
M 52.203125 31.203125 
L 52.203125 0 
L 43.21875 0 
L 43.21875 8.296875 
Q 40.140625 3.328125 35.546875 0.953125 
Q 30.953125 -1.421875 24.3125 -1.421875 
Q 15.921875 -1.421875 10.953125 3.296875 
Q 6 8.015625 6 15.921875 
Q 6 25.140625 12.171875 29.828125 
Q 18.359375 34.515625 30.609375 34.515625 
L 43.21875 34.515625 
L 43.21875 35.40625 
Q 43.21875 41.609375 39.140625 45 
Q 35.0625 48.390625 27.6875 48.390625 
Q 23 48.390625 18.546875 47.265625 
Q 14.109375 46.140625 10.015625 43.890625 
L 10.015625 52.203125 
Q 14.9375 54.109375 19.578125 55.046875 
Q 24.21875 56 28.609375 56 
Q 40.484375 56 46.34375 49.84375 
Q 52.203125 43.703125 52.203125 31.203125 
" id="DejaVuSans-61"/>
      <path d="M 14.796875 27.296875 
Q 14.796875 17.390625 18.875 11.75 
Q 22.953125 6.109375 30.078125 6.109375 
Q 37.203125 6.109375 41.296875 11.75 
Q 45.40625 17.390625 45.40625 27.296875 
Q 45.40625 37.203125 41.296875 42.84375 
Q 37.203125 48.484375 30.078125 48.484375 
Q 22.953125 48.484375 18.875 42.84375 
Q 14.796875 37.203125 14.796875 27.296875 
M 45.40625 8.203125 
Q 42.578125 3.328125 38.25 0.953125 
Q 33.9375 -1.421875 27.875 -1.421875 
Q 17.96875 -1.421875 11.734375 6.484375 
Q 5.515625 14.40625 5.515625 27.296875 
Q 5.515625 40.1875 11.734375 48.09375 
Q 17.96875 56 27.875 56 
Q 33.9375 56 38.25 53.625 
Q 42.578125 51.265625 45.40625 46.390625 
L 45.40625 54.6875 
L 54.390625 54.6875 
L 54.390625 -20.796875 
L 45.40625 -20.796875 
z
" id="DejaVuSans-71"/>
      <path d="M 18.109375 8.203125 
L 18.109375 -20.796875 
L 9.078125 -20.796875 
L 9.078125 54.6875 
L 18.109375 54.6875 
L 18.109375 46.390625 
Q 20.953125 51.265625 25.265625 53.625 
Q 29.59375 56 35.59375 56 
Q 45.5625 56 51.78125 48.09375 
Q 58.015625 40.1875 58.015625 27.296875 
Q 58.015625 14.40625 51.78125 6.484375 
Q 45.5625 -1.421875 35.59375 -1.421875 
Q 29.59375 -1.421875 25.265625 0.953125 
Q 20.953125 3.328125 18.109375 8.203125 
M 48.6875 27.296875 
Q 48.6875 37.203125 44.609375 42.84375 
Q 40.53125 48.484375 33.40625 48.484375 
Q 26.265625 48.484375 22.1875 42.84375 
Q 18.109375 37.203125 18.109375 27.296875 
Q 18.109375 17.390625 22.1875 11.75 
Q 26.265625 6.109375 33.40625 6.109375 
Q 40.53125 6.109375 44.609375 11.75 
Q 48.6875 17.390625 48.6875 27.296875 
" id="DejaVuSans-70"/>
     </defs>
     <g transform="translate(25.432812 279.366281)rotate(-90)scale(0.1 -0.1)">
      <use xlink:href="#DejaVuSans-53"/>
      <use x="63.476562" xlink:href="#DejaVuSans-75"/>
      <use x="126.855469" xlink:href="#DejaVuSans-63"/>
      <use x="181.835938" xlink:href="#DejaVuSans-63"/>
      <use x="236.816406" xlink:href="#DejaVuSans-65"/>
      <use x="298.339844" xlink:href="#DejaVuSans-73"/>
      <use x="350.439453" xlink:href="#DejaVuSans-73"/>
      <use x="402.539062" xlink:href="#DejaVuSans-66"/>
      <use x="437.744141" xlink:href="#DejaVuSans-75"/>
      <use x="501.123047" xlink:href="#DejaVuSans-6c"/>
      <use x="528.90625" xlink:href="#DejaVuSans-20"/>
      <use x="560.693359" xlink:href="#DejaVuSans-64"/>
      <use x="624.169922" xlink:href="#DejaVuSans-6f"/>
      <use x="685.351562" xlink:href="#DejaVuSans-77"/>
      <use x="767.138672" xlink:href="#DejaVuSans-6e"/>
      <use x="830.517578" xlink:href="#DejaVuSans-6c"/>
      <use x="858.300781" xlink:href="#DejaVuSans-6f"/>
      <use x="919.482422" xlink:href="#DejaVuSans-61"/>
      <use x="980.761719" xlink:href="#DejaVuSans-64"/>
      <use x="1044.238281" xlink:href="#DejaVuSans-20"/>
      <use x="1076.025391" xlink:href="#DejaVuSans-72"/>
      <use x="1117.107422" xlink:href="#DejaVuSans-65"/>
      <use x="1178.630859" xlink:href="#DejaVuSans-71"/>
      <use x="1242.107422" xlink:href="#DejaVuSans-75"/>
      <use x="1305.486328" xlink:href="#DejaVuSans-65"/>
      <use x="1367.009766" xlink:href="#DejaVuSans-73"/>
      <use x="1419.109375" xlink:href="#DejaVuSans-74"/>
      <use x="1458.318359" xlink:href="#DejaVuSans-73"/>
      <use x="1510.417969" xlink:href="#DejaVuSans-20"/>
      <use x="1542.205078" xlink:href="#DejaVuSans-70"/>
      <use x="1605.681641" xlink:href="#DejaVuSans-65"/>
      <use x="1667.205078" xlink:href="#DejaVuSans-72"/>
      <use x="1708.318359" xlink:href="#DejaVuSans-20"/>
      <use x="1740.105469" xlink:href="#DejaVuSans-73"/>
      <use x="1792.205078" xlink:href="#DejaVuSans-65"/>
      <use x="1853.728516" xlink:href="#DejaVuSans-63"/>
      <use x="1908.708984" xlink:href="#DejaVuSans-6f"/>
      <use x="1969.890625" xlink:href="#DejaVuSans-6e"/>
      <use x="2033.269531" xlink:href="#DejaVuSans-64"/>
     </g>
    </g>
   </g>
   <g id="line2d_29">
    <path clip-path="url(#pd54f3340c8)" d="M 57.6 295.469911 
L 57.95712 295.488 
L 59.3856 290.072327 
L 60.09984 287.651137 
L 60.45696 285.977177 
L 60.81408 284.946084 
L 61.1712 283.171936 
L 61.52832 282.320345 
L 61.88544 280.390351 
L 63.31392 275.573018 
L 63.67104 274.703338 
L 64.02816 272.280756 
L 64.38528 272.063684 
L 64.7424 270.374417 
L 65.09952 267.763985 
L 65.45664 266.691147 
L 65.81376 266.74959 
L 66.528 262.341355 
L 66.88512 261.690138 
L 67.24224 259.59734 
L 67.59936 259.93408 
L 67.95648 256.881154 
L 68.3136 255.351908 
L 68.67072 254.329164 
L 69.02784 252.404736 
L 69.38496 252.740085 
L 69.74208 251.125958 
L 70.0992 248.817479 
L 70.45632 247.477475 
L 70.81344 248.583709 
L 71.52768 245.654626 
L 71.8848 242.379062 
L 72.24192 243.542346 
L 72.59904 241.310399 
L 73.31328 235.684611 
L 73.6704 234.777361 
L 74.02752 235.822369 
L 74.38464 234.415574 
L 74.74176 234.037089 
L 75.09888 232.395133 
L 75.81312 227.053209 
L 76.17024 227.270281 
L 76.88448 223.602317 
L 77.2416 225.107908 
L 77.59872 223.38942 
L 77.95584 218.002968 
L 78.31296 220.094375 
L 78.67008 215.146242 
L 79.0272 218.741848 
L 79.38432 217.972355 
L 79.74144 215.4148 
L 80.09856 211.783015 
L 80.45568 213.214856 
L 80.8128 210.949513 
L 81.16992 214.520073 
L 81.88416 208.641034 
L 82.24128 208.899851 
L 82.5984 211.493585 
L 82.95552 211.671696 
L 83.31264 206.85158 
L 83.66976 207.427656 
L 84.384 210.921684 
L 84.74112 204.434565 
L 85.09824 208.197149 
L 85.45536 203.491135 
L 85.81248 204.204969 
L 86.1696 208.119226 
L 86.52672 206.564933 
L 86.88384 205.511577 
L 87.24096 205.695253 
L 87.59808 204.061646 
L 87.9552 203.133523 
L 88.31232 202.842702 
L 89.02656 200.560661 
L 89.38368 197.594008 
L 89.7408 201.637673 
L 90.09792 197.464599 
L 90.45504 196.720153 
L 90.81216 196.358366 
L 91.16928 195.696017 
L 91.88352 197.962752 
L 92.24064 200.794431 
L 92.59776 194.236346 
L 93.312 199.670108 
L 93.66912 196.078677 
L 94.02624 195.93257 
L 94.74048 190.86477 
L 95.0976 196.241481 
L 95.45472 196.036932 
L 95.81184 191.708012 
L 96.16896 190.656046 
L 96.52608 194.770678 
L 96.8832 191.938999 
L 97.24032 194.659359 
L 97.95456 194.219648 
L 98.31168 191.040097 
L 98.6688 186.701436 
L 99.02592 189.028005 
L 99.38304 186.027956 
L 99.74016 191.719144 
L 100.09728 184.711608 
L 100.4544 188.049789 
L 100.81152 188.294691 
L 101.16864 188.783103 
L 101.52576 187.445883 
L 101.88288 184.071523 
L 102.24 186.974168 
L 102.59712 188.226508 
L 102.95424 184.210672 
L 103.31136 183.669383 
L 103.66848 184.747787 
L 104.0256 187.553027 
L 104.38272 180.018118 
L 104.73984 185.578505 
L 105.09696 179.194356 
L 105.45408 182.032993 
L 105.8112 182.257022 
L 106.16832 185.198629 
L 106.52544 181.853491 
L 106.88256 179.796871 
L 107.23968 178.81448 
L 107.5968 182.756567 
L 107.95392 183.026515 
L 108.31104 176.415554 
L 108.66816 179.496309 
L 109.02528 177.052856 
L 109.3824 181.288546 
L 109.73952 182.595154 
L 110.09664 178.705944 
L 110.45376 180.045947 
L 110.81088 177.517613 
L 111.168 173.703543 
L 111.52512 172.697497 
L 111.88224 176.471214 
L 112.23936 172.170123 
L 112.59648 179.166527 
L 112.9536 178.273191 
L 113.31072 178.03803 
L 113.66784 178.079774 
L 114.02496 179.025986 
L 114.38208 170.217865 
L 114.7392 170.105154 
L 115.09632 173.965143 
L 115.45344 172.875608 
L 115.81056 173.145556 
L 116.16768 176.025937 
L 116.5248 175.401159 
L 116.88192 174.008279 
L 117.23904 168.97944 
L 117.59616 175.948014 
L 117.95328 168.784632 
L 118.3104 167.281824 
L 118.66752 172.758722 
L 119.02464 166.067055 
L 119.38176 171.041626 
L 119.73888 166.822633 
L 120.096 171.642749 
L 120.45312 165.227987 
L 120.81024 167.855117 
L 121.52448 164.109231 
L 121.8816 170.59635 
L 122.23872 165.550813 
L 122.59584 167.995658 
L 122.95296 165.144498 
L 123.31008 169.131112 
L 123.6672 169.426108 
L 124.02432 165.05266 
L 124.38144 168.143155 
L 124.73856 162.458925 
L 125.09568 164.990043 
L 125.4528 166.41771 
L 125.80992 163.675086 
L 126.16704 168.052709 
L 126.52416 161.888415 
L 126.88128 165.773451 
L 127.2384 164.568422 
L 127.59552 162.663474 
L 127.95264 167.907994 
L 128.30976 158.721387 
L 128.66688 165.033179 
L 129.024 162.187585 
L 129.38112 166.808718 
L 129.73824 159.186145 
L 130.09536 160.815577 
L 130.45248 157.594282 
L 130.8096 157.11561 
L 131.16672 162.806797 
L 131.52384 159.397651 
L 131.88096 158.174532 
L 132.23808 162.489538 
L 132.5952 156.344725 
L 132.95232 156.376729 
L 133.30944 163.341129 
L 133.66656 154.821045 
L 134.02368 154.377161 
L 134.3808 161.823015 
L 134.73792 153.801084 
L 135.09504 160.843407 
L 135.45216 153.358591 
L 135.80928 158.874451 
L 136.1664 160.790531 
L 136.52352 160.992297 
L 136.88064 152.150779 
L 137.23776 160.346646 
L 137.59488 154.378552 
L 137.952 158.292809 
L 138.30912 159.216757 
L 138.66624 151.89892 
L 139.02336 150.68415 
L 139.38048 158.982987 
L 139.7376 153.321021 
L 140.09472 158.831315 
L 140.45184 151.065418 
L 141.16608 158.669902 
L 141.5232 153.080293 
L 141.88032 152.664238 
L 142.23744 149.238394 
L 142.59456 153.710638 
L 142.95168 152.472213 
L 143.3088 155.586364 
L 143.66592 154.193484 
L 144.02304 151.420248 
L 144.38016 147.326489 
L 144.73728 147.401629 
L 145.0944 146.277307 
L 145.45152 148.395152 
L 145.80864 153.898489 
L 146.16576 148.095982 
L 146.52288 153.173523 
L 147.23712 144.629784 
L 147.95136 149.246743 
L 148.30848 153.696723 
L 148.6656 146.544472 
L 149.02272 153.186047 
L 149.73696 143.331526 
L 150.09408 148.848777 
L 150.4512 149.395632 
L 150.80832 151.350673 
L 151.16544 151.372937 
L 151.52256 147.199863 
L 152.2368 148.78616 
L 152.59392 150.400287 
L 152.95104 145.694273 
L 153.30816 151.136384 
L 153.66528 143.540249 
L 154.37952 149.391458 
L 155.09376 142.151543 
L 155.45088 148.64562 
L 155.808 143.086624 
L 156.16512 149.03802 
L 156.87936 140.527677 
L 157.23648 148.381237 
L 157.5936 141.354221 
L 157.95072 142.265646 
L 158.30784 142.468803 
L 158.66496 140.730834 
L 159.02208 144.330614 
L 159.3792 144.304176 
L 159.73632 147.428068 
L 160.45056 139.38109 
L 160.80768 147.361276 
L 161.1648 136.048475 
L 161.52192 142.07362 
L 161.87904 143.915951 
L 162.23616 137.19367 
L 162.59328 135.764612 
L 163.30752 144.269389 
L 163.66464 142.722054 
L 164.02176 139.726179 
L 164.37888 135.038255 
L 164.736 142.499416 
L 165.09312 144.725797 
L 165.45024 135.889846 
L 165.80736 135.219148 
L 166.16448 137.18393 
L 166.5216 138.501669 
L 166.87872 135.259501 
L 167.23584 142.805543 
L 167.59296 137.028083 
L 168.3072 141.014697 
L 168.66432 133.13609 
L 169.37856 142.755449 
L 169.73568 142.350526 
L 170.0928 135.309595 
L 170.44992 131.777997 
L 170.80704 136.042909 
L 171.16416 130.30302 
L 171.52128 141.69931 
L 172.23552 131.260364 
L 172.59264 130.094296 
L 172.94976 129.596144 
L 173.664 134.605502 
L 174.02112 131.700074 
L 174.37824 130.674547 
L 174.73536 129.988543 
L 175.09248 139.43675 
L 175.4496 129.042331 
L 175.80672 135.233063 
L 176.16384 135.347165 
L 176.52096 134.655595 
L 176.87808 137.373172 
L 177.2352 127.123469 
L 177.59232 131.268713 
L 177.94944 131.050249 
L 178.30656 136.677428 
L 178.66368 135.116178 
L 179.0208 130.730207 
L 179.73504 129.097991 
L 180.09216 134.925544 
L 180.44928 126.153601 
L 181.16352 135.305421 
L 181.52064 126.626707 
L 181.87776 131.764083 
L 182.23488 127.774685 
L 182.592 134.43574 
L 182.94912 134.385647 
L 183.30624 130.920841 
L 183.66336 131.801653 
L 184.02048 127.732941 
L 184.3776 130.50896 
L 184.73472 123.088152 
L 185.09184 130.407381 
L 185.44896 126.580788 
L 186.1632 134.424608 
L 186.52032 125.164253 
L 186.87744 127.547873 
L 187.59168 122.115502 
L 187.9488 131.402296 
L 188.30592 126.19952 
L 188.66304 126.200912 
L 189.02016 123.654488 
L 189.37728 132.576712 
L 189.7344 122.669314 
L 190.09152 128.805778 
L 190.44864 131.718163 
L 190.80576 122.400757 
L 191.52 130.091513 
L 191.87712 123.230084 
L 192.23424 124.837253 
L 192.59136 128.847523 
L 192.94848 128.449557 
L 193.3056 121.387753 
L 193.66272 119.660916 
L 194.01984 128.601229 
L 194.37696 122.869689 
L 194.73408 126.543218 
L 195.0912 123.128505 
L 195.80544 128.417553 
L 196.16256 120.717056 
L 196.51968 120.740711 
L 196.8768 120.451282 
L 197.23392 122.477289 
L 197.59104 126.03115 
L 197.94816 120.338571 
L 198.30528 116.541199 
L 198.6624 126.253788 
L 199.01952 124.681407 
L 199.37664 119.918342 
L 199.73376 125.140598 
L 200.09088 118.126105 
L 200.448 120.831158 
L 200.80512 121.180422 
L 201.16224 122.815421 
L 201.51936 115.088485 
L 201.87648 125.85304 
L 202.2336 121.302873 
L 202.59072 115.060656 
L 202.94784 122.306136 
L 203.30496 125.691627 
L 203.66208 115.79397 
L 204.0192 119.143283 
L 204.37632 126.495907 
L 204.73344 121.255562 
L 205.09056 120.743494 
L 205.44768 123.262088 
L 205.8048 120.437367 
L 206.16192 120.722622 
L 206.87616 124.028798 
L 207.23328 117.751794 
L 207.5904 114.473448 
L 207.94752 117.14928 
L 208.30464 118.006437 
L 208.66176 112.778615 
L 209.01888 120.230035 
L 209.376 119.730491 
L 209.73312 111.456701 
L 210.09024 120.459631 
L 210.44736 112.603287 
L 210.80448 112.800879 
L 211.1616 115.994344 
L 211.51872 122.153072 
L 211.87584 117.99113 
L 212.23296 111.981292 
L 212.59008 111.033688 
L 212.9472 115.052307 
L 213.30432 120.662788 
L 213.66144 110.328204 
L 214.01856 121.293132 
L 214.37568 110.077736 
L 215.08992 120.512507 
L 215.44704 118.713313 
L 215.80416 113.674733 
L 216.16128 112.052258 
L 216.5184 118.391879 
L 216.87552 118.144194 
L 217.23264 118.596428 
L 217.58976 116.710961 
L 217.94688 109.599064 
L 218.304 113.077785 
L 218.66112 118.603385 
L 219.01824 116.740182 
L 219.37536 110.536927 
L 219.73248 112.994295 
L 220.0896 116.823672 
L 220.44672 118.453104 
L 220.80384 110.424216 
L 221.16096 116.685914 
L 221.8752 106.525266 
L 222.23232 117.993913 
L 222.58944 110.269761 
L 222.94656 113.978078 
L 223.30368 111.965985 
L 224.37504 116.293514 
L 224.73216 107.703856 
L 225.4464 108.240971 
L 225.80352 116.276817 
L 226.16064 106.735381 
L 226.51776 114.554154 
L 226.87488 110.294808 
L 227.232 111.817096 
L 227.58912 109.6422 
L 227.94624 105.12682 
L 228.30336 113.044389 
L 228.66048 110.407518 
L 229.0176 110.582846 
L 229.37472 114.729481 
L 229.73184 115.220677 
L 230.08896 105.686198 
L 230.44608 109.323549 
L 230.8032 107.991895 
L 231.16032 114.193758 
L 231.51744 115.940076 
L 231.87456 115.565766 
L 232.23168 103.704719 
L 232.5888 111.748913 
L 232.94592 106.540572 
L 233.30304 112.702083 
L 233.66016 105.821173 
L 234.01728 110.678859 
L 234.3744 109.452957 
L 234.73152 104.226527 
L 235.08864 101.131857 
L 235.44576 105.096207 
L 235.80288 104.002497 
L 236.16 105.983977 
L 236.51712 113.876499 
L 236.87424 100.507078 
L 237.23136 107.568882 
L 237.58848 105.538701 
L 237.9456 101.700975 
L 238.30272 112.020254 
L 238.65984 106.387508 
L 239.01696 109.834225 
L 239.37408 110.827748 
L 239.7312 109.843966 
L 240.44544 104.454731 
L 240.80256 108.71686 
L 241.15968 102.268703 
L 241.5168 102.887915 
L 241.87392 106.784083 
L 242.23104 99.474594 
L 242.58816 100.608657 
L 242.94528 102.384196 
L 243.3024 99.221343 
L 243.65952 110.358816 
L 244.01664 110.877842 
L 244.37376 110.322638 
L 244.73088 97.738017 
L 245.088 109.478004 
L 245.44512 101.460248 
L 245.80224 109.764651 
L 246.15936 99.484334 
L 246.51648 99.538603 
L 246.8736 100.139725 
L 247.23072 103.770119 
L 247.58784 103.561395 
L 247.94496 100.054845 
L 248.30208 108.637545 
L 249.01632 99.873951 
L 249.73056 100.397151 
L 250.08768 105.261794 
L 250.4448 101.926397 
L 250.80192 100.193994 
L 251.15904 96.300609 
L 251.87328 104.079029 
L 252.2304 97.747757 
L 252.58752 107.333721 
L 252.94464 98.080323 
L 253.30176 94.910512 
L 253.65888 100.273308 
L 254.016 97.938391 
L 254.37312 105.211701 
L 254.73024 104.923663 
L 255.08736 95.650784 
L 255.44448 98.202774 
L 256.15872 106.262274 
L 256.51584 97.040881 
L 256.87296 93.581641 
L 257.23008 103.445902 
L 257.5872 104.099902 
L 257.94432 96.956 
L 258.30144 93.119666 
L 258.65856 102.822515 
L 259.01568 105.754381 
L 259.3728 94.113189 
L 259.72992 102.84617 
L 260.08704 101.439376 
L 260.44416 97.106281 
L 260.80128 104.609186 
L 261.1584 94.500023 
L 261.51552 104.655105 
L 261.87264 103.822995 
L 262.22976 103.752029 
L 262.58688 91.863152 
L 262.944 100.962095 
L 263.30112 94.838155 
L 263.65824 101.944486 
L 264.01536 103.635144 
L 264.37248 94.0951 
L 264.7296 95.29178 
L 265.08672 91.330212 
L 265.44384 90.300511 
L 265.80096 90.370085 
L 266.15808 93.002781 
L 266.5152 100.679623 
L 266.87232 99.290918 
L 267.22944 92.912335 
L 267.58656 98.078931 
L 267.94368 89.834362 
L 268.3008 101.165252 
L 268.65792 92.201284 
L 269.01504 93.904466 
L 269.37216 91.156276 
L 269.72928 94.025525 
L 270.0864 100.772853 
L 270.44352 93.025045 
L 270.80064 91.466578 
L 271.15776 98.75102 
L 271.51488 100.392976 
L 271.872 96.250515 
L 272.22912 98.186076 
L 272.58624 95.809414 
L 272.94336 101.713499 
L 273.6576 91.285685 
L 274.01472 97.770021 
L 274.72896 89.714694 
L 275.08608 90.072307 
L 275.4432 94.1605 
L 275.80032 94.227291 
L 276.15744 93.13219 
L 276.51456 87.886279 
L 276.87168 96.474545 
L 277.58592 89.891413 
L 277.94304 91.092268 
L 278.30016 88.075521 
L 278.65728 94.916078 
L 279.37152 88.2425 
L 279.72864 85.707208 
L 280.08576 93.3757 
L 280.44288 93.402139 
L 280.8 89.695214 
L 281.15712 96.78763 
L 281.51424 86.526794 
L 281.87136 91.889591 
L 282.22848 86.958156 
L 282.5856 87.011032 
L 282.94272 98.05945 
L 283.29984 86.034208 
L 283.65696 94.43184 
L 284.01408 98.18051 
L 284.3712 95.322393 
L 284.72832 87.324117 
L 285.08544 98.12485 
L 285.44256 85.259148 
L 285.79968 96.308958 
L 286.1568 91.577897 
L 286.51392 85.231319 
L 286.87104 84.464609 
L 287.22816 88.647423 
L 287.58528 90.873804 
L 287.9424 95.348831 
L 288.29952 97.148025 
L 289.01376 87.114003 
L 289.37088 95.794107 
L 289.728 93.457798 
L 290.08512 92.755097 
L 290.44224 84.272583 
L 290.79936 91.633557 
L 291.15648 86.945632 
L 291.5136 87.278198 
L 291.87072 86.556016 
L 292.22784 82.552704 
L 292.94208 95.103929 
L 293.2992 84.464609 
L 293.65632 86.713254 
L 294.01344 94.0951 
L 294.37056 82.324499 
L 294.72768 91.327429 
L 295.0848 94.839546 
L 295.44192 85.789306 
L 295.79904 85.776782 
L 296.15616 87.62607 
L 296.51328 87.706777 
L 296.8704 87.422913 
L 297.22752 93.475888 
L 297.58464 92.407224 
L 297.94176 95.220814 
L 298.29888 83.663111 
L 298.656 88.131181 
L 299.01312 88.821359 
L 299.37024 81.059636 
L 299.72736 82.218746 
L 300.08448 79.697369 
L 300.4416 82.608363 
L 300.79872 87.471615 
L 301.15584 88.956333 
L 301.51296 86.967896 
L 301.87008 92.465667 
L 302.2272 79.779467 
L 302.58432 84.029073 
L 302.94144 90.939204 
L 303.29856 85.998029 
L 303.65568 84.279541 
L 304.0128 90.787532 
L 304.36992 82.167261 
L 304.72704 80.811952 
L 305.08416 79.929748 
L 305.44128 91.491625 
L 305.7984 81.368547 
L 306.15552 91.34691 
L 306.51264 86.309722 
L 306.86976 92.522718 
L 307.22688 89.679907 
L 307.584 78.413026 
L 307.94112 77.174601 
L 308.29824 88.779614 
L 308.65536 92.069093 
L 309.01248 91.191064 
L 309.3696 88.956333 
L 309.72672 77.658839 
L 310.08384 89.07461 
L 310.44096 80.251182 
L 310.79808 78.748374 
L 311.1552 91.108966 
L 311.51232 83.32498 
L 311.86944 82.625061 
L 312.22656 88.913197 
L 312.9408 80.8203 
L 313.29792 81.528568 
L 313.65504 83.600494 
L 314.36928 90.478621 
L 314.7264 75.888866 
L 315.08352 89.241588 
L 315.44064 87.581543 
L 315.79776 90.268507 
L 316.15488 83.078686 
L 316.512 80.358326 
L 316.86912 87.75687 
L 317.22624 75.346185 
L 317.58336 87.012424 
L 317.94048 77.518298 
L 318.65472 75.51873 
L 319.01184 86.14831 
L 319.36896 89.003644 
L 319.72608 88.040734 
L 320.0832 82.189525 
L 320.44032 78.365715 
L 320.79744 80.145429 
L 321.15456 78.349017 
L 321.51168 86.198403 
L 321.8688 80.163518 
L 322.22592 81.463168 
L 322.58304 82.295278 
L 322.94016 77.614311 
L 323.29728 81.703896 
L 323.6544 80.907964 
L 324.01152 76.832295 
L 324.36864 82.747512 
L 324.72576 84.776302 
L 325.08288 83.525354 
L 325.44 87.189143 
L 325.79712 79.353672 
L 326.15424 87.813921 
L 326.51136 86.390429 
L 326.86848 87.151573 
L 327.2256 79.019714 
L 327.58272 80.266488 
L 327.93984 84.571753 
L 328.65408 74.650441 
L 329.0112 77.981664 
L 329.36832 71.893902 
L 329.72544 82.331457 
L 330.08256 71.234337 
L 330.43968 85.314808 
L 330.7968 72.360051 
L 331.15392 77.756243 
L 331.51104 74.106369 
L 331.86816 80.583747 
L 332.22528 78.752549 
L 332.5824 79.487255 
L 332.93952 79.953403 
L 333.29664 84.573145 
L 333.65376 79.332799 
L 334.01088 85.607021 
L 334.368 74.014531 
L 334.72512 73.289565 
L 335.08224 70.324303 
L 335.43936 83.86766 
L 335.79648 81.603708 
L 336.1536 75.012228 
L 336.51072 75.941742 
L 336.86784 82.650108 
L 337.22496 71.067358 
L 337.58208 69.575683 
L 337.9392 77.166252 
L 338.29632 70.812716 
L 338.65344 81.520219 
L 339.01056 81.228007 
L 339.36768 70.448146 
L 339.7248 84.282324 
L 340.08192 83.543443 
L 340.43904 84.433996 
L 340.79616 82.911708 
L 341.15328 81.996108 
L 341.5104 78.776204 
L 341.86752 82.019763 
L 342.22464 74.027054 
L 342.58176 72.561817 
L 342.93888 81.159824 
L 343.296 76.26735 
L 343.65312 80.558701 
L 344.01024 82.865788 
L 344.36736 83.536486 
L 344.72448 72.649481 
L 345.0816 75.197296 
L 345.43872 72.73297 
L 345.79584 67.776488 
L 346.15296 77.593439 
L 346.51008 75.675968 
L 346.8672 78.471468 
L 347.22432 76.939439 
L 347.58144 77.838341 
L 347.93856 69.038568 
L 348.29568 67.29225 
L 348.6528 78.973795 
L 349.00992 70.150367 
L 349.36704 70.176806 
L 349.72416 81.503521 
L 350.08128 69.375308 
L 350.4384 72.600778 
L 350.79552 67.006995 
L 351.15264 72.124889 
L 351.50976 69.194415 
L 351.86688 68.445794 
L 352.224 73.457935 
L 352.58112 72.549293 
L 352.93824 75.8833 
L 353.29536 68.914726 
L 353.65248 78.279443 
L 354.0096 73.868424 
L 354.36672 71.678222 
L 354.72384 75.553517 
L 355.08096 66.446225 
L 355.43808 77.160686 
L 355.7952 65.967553 
L 356.15232 76.445461 
L 356.50944 69.373917 
L 356.86656 66.624336 
L 357.22368 72.738536 
L 357.5808 70.702788 
L 357.93792 73.371663 
L 358.29504 73.680573 
L 359.00928 80.05359 
L 359.3664 67.487059 
L 359.72352 78.886132 
L 360.08064 64.449439 
L 360.43776 64.93646 
L 360.79488 70.958822 
L 361.152 67.969905 
L 361.50912 69.62021 
L 361.86624 72.479719 
L 362.22336 67.428616 
L 362.58048 76.015491 
L 362.9376 73.662484 
L 363.29472 78.51043 
L 363.65184 64.186448 
L 364.00896 77.764592 
L 364.36608 73.343833 
L 364.7232 72.969523 
L 365.08032 62.953589 
L 365.43744 76.355014 
L 365.79456 75.504815 
L 366.15168 62.820006 
L 366.5088 70.455103 
L 366.86592 75.681534 
L 367.22304 67.930943 
L 367.58016 76.183861 
L 367.93728 63.330683 
L 368.2944 74.992747 
L 368.65152 63.462874 
L 369.00864 69.899899 
L 369.36576 66.709217 
L 369.72288 71.306694 
L 370.08 69.184674 
L 370.43712 70.951865 
L 370.79424 62.118696 
L 371.15136 75.695449 
L 371.50848 73.672225 
L 371.8656 67.686041 
L 372.22272 67.474535 
L 372.57984 73.044663 
L 372.93696 68.440228 
L 373.29408 70.544159 
L 373.6512 75.972355 
L 374.00832 76.872648 
L 374.36544 63.528274 
L 374.72256 73.412016 
L 375.07968 72.060881 
L 375.4368 66.717565 
L 376.15104 70.374397 
L 376.50816 72.867944 
L 376.86528 60.684072 
L 377.2224 73.629088 
L 377.57952 63.379385 
L 377.93664 62.753215 
L 378.29376 67.507931 
L 378.65088 62.728168 
L 379.72224 75.432457 
L 380.07936 73.361923 
L 380.43648 63.852491 
L 380.7936 70.116972 
L 381.15072 65.795009 
L 381.50784 73.33131 
L 381.86496 71.924515 
L 382.22208 62.264803 
L 382.5792 71.591949 
L 382.93632 71.084056 
L 383.29344 61.731862 
L 383.65056 71.235728 
L 384.00768 60.575536 
L 384.3648 70.786278 
L 384.72192 71.113277 
L 385.07904 70.421708 
L 385.43616 58.979498 
L 385.79328 74.187075 
L 386.1504 64.762524 
L 386.50752 61.307459 
L 386.86464 68.596075 
L 387.22176 66.746787 
L 387.57888 66.956901 
L 387.936 64.318639 
L 388.29312 65.266243 
L 388.65024 57.713244 
L 389.00736 62.316288 
L 389.36448 71.301128 
L 389.7216 68.60999 
L 390.07872 70.417533 
L 390.43584 58.673371 
L 390.79296 60.428038 
L 391.15008 69.309908 
L 391.5072 67.135012 
L 391.86432 63.699427 
L 392.22144 73.329918 
L 392.57856 56.786513 
L 392.93568 63.611763 
L 393.2928 56.954883 
L 393.64992 60.937323 
L 394.00704 70.651303 
L 394.72128 58.118167 
L 395.0784 69.728746 
L 395.43552 56.179824 
L 395.79264 59.360766 
L 396.14976 56.974364 
L 396.50688 58.300452 
L 396.864 70.217159 
L 397.22112 67.392437 
L 397.57824 57.501738 
L 397.93536 68.061743 
L 398.6496 57.921967 
L 399.00672 62.314896 
L 399.36384 55.79299 
L 399.72096 63.947112 
L 400.07808 61.774999 
L 400.4352 58.857047 
L 400.79232 58.122342 
L 401.50656 65.419307 
L 401.86368 59.225792 
L 402.2208 58.253141 
L 402.57792 55.090288 
L 402.93504 61.230927 
L 403.29216 65.032473 
L 403.64928 66.507451 
L 404.0064 54.064761 
L 404.36352 57.901095 
L 404.72064 67.827973 
L 405.07776 69.135972 
L 405.43488 57.632538 
L 405.792 68.623905 
L 406.14912 67.567765 
L 406.50624 53.568 
L 406.86336 66.407264 
L 407.22048 59.69194 
L 407.5776 63.352946 
L 407.93472 59.140911 
L 408.29184 65.669775 
L 408.64896 62.904887 
L 409.00608 62.527794 
L 409.3632 65.154924 
L 409.72032 62.012943 
L 410.07744 62.181313 
L 410.43456 67.596986 
L 410.79168 67.733352 
L 411.1488 66.041302 
L 411.50592 66.007906 
L 411.86304 64.467529 
L 412.22016 59.882574 
L 412.57728 53.615311 
L 412.9344 69.159628 
L 413.29152 65.479141 
L 413.64864 64.073737 
L 414.00576 61.28102 
L 414.36288 56.430292 
L 414.72 57.25127 
L 414.72 57.25127 
" style="fill:none;stroke:#000080;stroke-linecap:square;stroke-width:0.5;"/>
   </g>
   <g id="patch_3">
    <path d="M 57.6 307.584 
L 57.6 41.472 
" style="fill:none;stroke:#000000;stroke-linecap:square;stroke-linejoin:miter;stroke-width:0.8;"/>
   </g>
   <g id="patch_4">
    <path d="M 414.72 307.584 
L 414.72 41.472 
" style="fill:none;stroke:#000000;stroke-linecap:square;stroke-linejoin:miter;stroke-width:0.8;"/>
   </g>
   <g id="patch_5">
    <path d="M 57.6 307.584 
L 414.72 307.584 
" style="fill:none;stroke:#000000;stroke-linecap:square;stroke-linejoin:miter;stroke-width:0.8;"/>
   </g>
   <g id="patch_6">
    <path d="M 57.6 41.472 
L 414.72 41.472 
" style="fill:none;stroke:#000000;stroke-linecap:square;stroke-linejoin:miter;stroke-width:0.8;"/>
   </g>
   <g id="text_17">
    <!-- Test -->
    <defs>
     <path d="M -0.296875 72.90625 
L 61.375 72.90625 
L 61.375 64.59375 
L 35.5 64.59375 
L 35.5 0 
L 25.59375 0 
L 25.59375 64.59375 
L -0.296875 64.59375 
z
" id="DejaVuSans-54"/>
    </defs>
    <g transform="translate(223.341563 35.472)scale(0.12 -0.12)">
     <use xlink:href="#DejaVuSans-54"/>
     <use x="60.818359" xlink:href="#DejaVuSans-65"/>
     <use x="122.341797" xlink:href="#DejaVuSans-73"/>
     <use x="174.441406" xlink:href="#DejaVuSans-74"/>
    </g>
   </g>
   <g id="legend_1">
    <g id="patch_7">
     <path d="M 64.6 64.150125 
L 306.276563 64.150125 
Q 308.276563 64.150125 308.276563 62.150125 
L 308.276563 48.472 
Q 308.276563 46.472 306.276563 46.472 
L 64.6 46.472 
Q 62.6 46.472 62.6 48.472 
L 62.6 62.150125 
Q 62.6 64.150125 64.6 64.150125 
z
" style="fill:#ffffff;opacity:0.8;stroke:#cccccc;stroke-linejoin:miter;"/>
    </g>
    <g id="line2d_30">
     <path d="M 66.6 54.570438 
L 86.6 54.570438 
" style="fill:none;stroke:#000080;stroke-linecap:square;stroke-width:0.5;"/>
    </g>
    <g id="line2d_31"/>
    <g id="text_18">
     <!-- Successful download requests per second -->
     <g transform="translate(94.6 58.070438)scale(0.1 -0.1)">
      <use xlink:href="#DejaVuSans-53"/>
      <use x="63.476562" xlink:href="#DejaVuSans-75"/>
      <use x="126.855469" xlink:href="#DejaVuSans-63"/>
      <use x="181.835938" xlink:href="#DejaVuSans-63"/>
      <use x="236.816406" xlink:href="#DejaVuSans-65"/>
      <use x="298.339844" xlink:href="#DejaVuSans-73"/>
      <use x="350.439453" xlink:href="#DejaVuSans-73"/>
      <use x="402.539062" xlink:href="#DejaVuSans-66"/>
      <use x="437.744141" xlink:href="#DejaVuSans-75"/>
      <use x="501.123047" xlink:href="#DejaVuSans-6c"/>
      <use x="528.90625" xlink:href="#DejaVuSans-20"/>
      <use x="560.693359" xlink:href="#DejaVuSans-64"/>
      <use x="624.169922" xlink:href="#DejaVuSans-6f"/>
      <use x="685.351562" xlink:href="#DejaVuSans-77"/>
      <use x="767.138672" xlink:href="#DejaVuSans-6e"/>
      <use x="830.517578" xlink:href="#DejaVuSans-6c"/>
      <use x="858.300781" xlink:href="#DejaVuSans-6f"/>
      <use x="919.482422" xlink:href="#DejaVuSans-61"/>
      <use x="980.761719" xlink:href="#DejaVuSans-64"/>
      <use x="1044.238281" xlink:href="#DejaVuSans-20"/>
      <use x="1076.025391" xlink:href="#DejaVuSans-72"/>
      <use x="1117.107422" xlink:href="#DejaVuSans-65"/>
      <use x="1178.630859" xlink:href="#DejaVuSans-71"/>
      <use x="1242.107422" xlink:href="#DejaVuSans-75"/>
      <use x="1305.486328" xlink:href="#DejaVuSans-65"/>
      <use x="1367.009766" xlink:href="#DejaVuSans-73"/>
      <use x="1419.109375" xlink:href="#DejaVuSans-74"/>
      <use x="1458.318359" xlink:href="#DejaVuSans-73"/>
      <use x="1510.417969" xlink:href="#DejaVuSans-20"/>
      <use x="1542.205078" xlink:href="#DejaVuSans-70"/>
      <use x="1605.681641" xlink:href="#DejaVuSans-65"/>
      <use x="1667.205078" xlink:href="#DejaVuSans-72"/>
      <use x="1708.318359" xlink:href="#DejaVuSans-20"/>
      <use x="1740.105469" xlink:href="#DejaVuSans-73"/>
      <use x="1792.205078" xlink:href="#DejaVuSans-65"/>
      <use x="1853.728516" xlink:href="#DejaVuSans-63"/>
      <use x="1908.708984" xlink:href="#DejaVuSans-6f"/>
      <use x="1969.890625" xlink:href="#DejaVuSans-6e"/>
      <use x="2033.269531" xlink:href="#DejaVuSans-64"/>
     </g>
    </g>
   </g>
  </g>
 </g>
 <defs>
  <clipPath id="pd54f3340c8">
   <rect height="266.112" width="357.12" x="57.6" y="41.472"/>
  </clipPath>
 </defs>
</svg>
