<?xml version="1.0" encoding="utf-8" standalone="no"?>
<!DOCTYPE svg PUBLIC "-//W3C//DTD SVG 1.1//EN"
  "http://www.w3.org/Graphics/SVG/1.1/DTD/svg11.dtd">
<!-- Created with matplotlib (http://matplotlib.org/) -->
<svg height="345pt" version="1.1" viewBox="0 0 460 345" width="460pt" xmlns="http://www.w3.org/2000/svg" xmlns:xlink="http://www.w3.org/1999/xlink">
 <defs>
  <style type="text/css">
*{stroke-linecap:butt;stroke-linejoin:round;}
  </style>
 </defs>
 <g id="figure_1">
  <g id="patch_1">
   <path d="M 0 345.6 
L 460.8 345.6 
L 460.8 0 
L 0 0 
z
" style="fill:#ffffff;"/>
  </g>
  <g id="axes_1">
   <g id="patch_2">
    <path d="M 57.6 307.584 
L 414.72 307.584 
L 414.72 41.472 
L 57.6 41.472 
z
" style="fill:#ffffff;"/>
   </g>
   <g id="matplotlib.axis_1">
    <g id="xtick_1">
     <g id="line2d_1">
      <path clip-path="url(#p54e4eca49d)" d="M 57.6 307.584 
L 57.6 41.472 
" style="fill:none;stroke:#b0b0b0;stroke-linecap:square;stroke-width:0.8;"/>
     </g>
     <g id="line2d_2">
      <defs>
       <path d="M 0 0 
L 0 3.5 
" id="m162971aebf" style="stroke:#000000;stroke-width:0.8;"/>
      </defs>
      <g>
       <use style="stroke:#000000;stroke-width:0.8;" x="57.6" xlink:href="#m162971aebf" y="307.584"/>
      </g>
     </g>
     <g id="text_1">
      <!-- 0 -->
      <defs>
       <path d="M 31.78125 66.40625 
Q 24.171875 66.40625 20.328125 58.90625 
Q 16.5 51.421875 16.5 36.375 
Q 16.5 21.390625 20.328125 13.890625 
Q 24.171875 6.390625 31.78125 6.390625 
Q 39.453125 6.390625 43.28125 13.890625 
Q 47.125 21.390625 47.125 36.375 
Q 47.125 51.421875 43.28125 58.90625 
Q 39.453125 66.40625 31.78125 66.40625 
M 31.78125 74.21875 
Q 44.046875 74.21875 50.515625 64.515625 
Q 56.984375 54.828125 56.984375 36.375 
Q 56.984375 17.96875 50.515625 8.265625 
Q 44.046875 -1.421875 31.78125 -1.421875 
Q 19.53125 -1.421875 13.0625 8.265625 
Q 6.59375 17.96875 6.59375 36.375 
Q 6.59375 54.828125 13.0625 64.515625 
Q 19.53125 74.21875 31.78125 74.21875 
" id="DejaVuSans-30"/>
      </defs>
      <g transform="translate(54.41875 322.182437)scale(0.1 -0.1)">
       <use xlink:href="#DejaVuSans-30"/>
      </g>
     </g>
    </g>
    <g id="xtick_2">
     <g id="line2d_3">
      <path clip-path="url(#p54e4eca49d)" d="M 129.024 307.584 
L 129.024 41.472 
" style="fill:none;stroke:#b0b0b0;stroke-linecap:square;stroke-width:0.8;"/>
     </g>
     <g id="line2d_4">
      <g>
       <use style="stroke:#000000;stroke-width:0.8;" x="129.024" xlink:href="#m162971aebf" y="307.584"/>
      </g>
     </g>
     <g id="text_2">
      <!-- 200 -->
      <defs>
       <path d="M 19.1875 8.296875 
L 53.609375 8.296875 
L 53.609375 0 
L 7.328125 0 
L 7.328125 8.296875 
Q 12.9375 14.109375 22.625 23.890625 
Q 32.328125 33.6875 34.8125 36.53125 
Q 39.546875 41.84375 41.421875 45.53125 
Q 43.3125 49.21875 43.3125 52.78125 
Q 43.3125 58.59375 39.234375 62.25 
Q 35.15625 65.921875 28.609375 65.921875 
Q 23.96875 65.921875 18.8125 64.3125 
Q 13.671875 62.703125 7.8125 59.421875 
L 7.8125 69.390625 
Q 13.765625 71.78125 18.9375 73 
Q 24.125 74.21875 28.421875 74.21875 
Q 39.75 74.21875 46.484375 68.546875 
Q 53.21875 62.890625 53.21875 53.421875 
Q 53.21875 48.921875 51.53125 44.890625 
Q 49.859375 40.875 45.40625 35.40625 
Q 44.1875 33.984375 37.640625 27.21875 
Q 31.109375 20.453125 19.1875 8.296875 
" id="DejaVuSans-32"/>
      </defs>
      <g transform="translate(119.48025 322.182437)scale(0.1 -0.1)">
       <use xlink:href="#DejaVuSans-32"/>
       <use x="63.623047" xlink:href="#DejaVuSans-30"/>
       <use x="127.246094" xlink:href="#DejaVuSans-30"/>
      </g>
     </g>
    </g>
    <g id="xtick_3">
     <g id="line2d_5">
      <path clip-path="url(#p54e4eca49d)" d="M 200.448 307.584 
L 200.448 41.472 
" style="fill:none;stroke:#b0b0b0;stroke-linecap:square;stroke-width:0.8;"/>
     </g>
     <g id="line2d_6">
      <g>
       <use style="stroke:#000000;stroke-width:0.8;" x="200.448" xlink:href="#m162971aebf" y="307.584"/>
      </g>
     </g>
     <g id="text_3">
      <!-- 400 -->
      <defs>
       <path d="M 37.796875 64.3125 
L 12.890625 25.390625 
L 37.796875 25.390625 
z
M 35.203125 72.90625 
L 47.609375 72.90625 
L 47.609375 25.390625 
L 58.015625 25.390625 
L 58.015625 17.1875 
L 47.609375 17.1875 
L 47.609375 0 
L 37.796875 0 
L 37.796875 17.1875 
L 4.890625 17.1875 
L 4.890625 26.703125 
z
" id="DejaVuSans-34"/>
      </defs>
      <g transform="translate(190.90425 322.182437)scale(0.1 -0.1)">
       <use xlink:href="#DejaVuSans-34"/>
       <use x="63.623047" xlink:href="#DejaVuSans-30"/>
       <use x="127.246094" xlink:href="#DejaVuSans-30"/>
      </g>
     </g>
    </g>
    <g id="xtick_4">
     <g id="line2d_7">
      <path clip-path="url(#p54e4eca49d)" d="M 271.872 307.584 
L 271.872 41.472 
" style="fill:none;stroke:#b0b0b0;stroke-linecap:square;stroke-width:0.8;"/>
     </g>
     <g id="line2d_8">
      <g>
       <use style="stroke:#000000;stroke-width:0.8;" x="271.872" xlink:href="#m162971aebf" y="307.584"/>
      </g>
     </g>
     <g id="text_4">
      <!-- 600 -->
      <defs>
       <path d="M 33.015625 40.375 
Q 26.375 40.375 22.484375 35.828125 
Q 18.609375 31.296875 18.609375 23.390625 
Q 18.609375 15.53125 22.484375 10.953125 
Q 26.375 6.390625 33.015625 6.390625 
Q 39.65625 6.390625 43.53125 10.953125 
Q 47.40625 15.53125 47.40625 23.390625 
Q 47.40625 31.296875 43.53125 35.828125 
Q 39.65625 40.375 33.015625 40.375 
M 52.59375 71.296875 
L 52.59375 62.3125 
Q 48.875 64.0625 45.09375 64.984375 
Q 41.3125 65.921875 37.59375 65.921875 
Q 27.828125 65.921875 22.671875 59.328125 
Q 17.53125 52.734375 16.796875 39.40625 
Q 19.671875 43.65625 24.015625 45.921875 
Q 28.375 48.1875 33.59375 48.1875 
Q 44.578125 48.1875 50.953125 41.515625 
Q 57.328125 34.859375 57.328125 23.390625 
Q 57.328125 12.15625 50.6875 5.359375 
Q 44.046875 -1.421875 33.015625 -1.421875 
Q 20.359375 -1.421875 13.671875 8.265625 
Q 6.984375 17.96875 6.984375 36.375 
Q 6.984375 53.65625 15.1875 63.9375 
Q 23.390625 74.21875 37.203125 74.21875 
Q 40.921875 74.21875 44.703125 73.484375 
Q 48.484375 72.75 52.59375 71.296875 
" id="DejaVuSans-36"/>
      </defs>
      <g transform="translate(262.32825 322.182437)scale(0.1 -0.1)">
       <use xlink:href="#DejaVuSans-36"/>
       <use x="63.623047" xlink:href="#DejaVuSans-30"/>
       <use x="127.246094" xlink:href="#DejaVuSans-30"/>
      </g>
     </g>
    </g>
    <g id="xtick_5">
     <g id="line2d_9">
      <path clip-path="url(#p54e4eca49d)" d="M 343.296 307.584 
L 343.296 41.472 
" style="fill:none;stroke:#b0b0b0;stroke-linecap:square;stroke-width:0.8;"/>
     </g>
     <g id="line2d_10">
      <g>
       <use style="stroke:#000000;stroke-width:0.8;" x="343.296" xlink:href="#m162971aebf" y="307.584"/>
      </g>
     </g>
     <g id="text_5">
      <!-- 800 -->
      <defs>
       <path d="M 31.78125 34.625 
Q 24.75 34.625 20.71875 30.859375 
Q 16.703125 27.09375 16.703125 20.515625 
Q 16.703125 13.921875 20.71875 10.15625 
Q 24.75 6.390625 31.78125 6.390625 
Q 38.8125 6.390625 42.859375 10.171875 
Q 46.921875 13.96875 46.921875 20.515625 
Q 46.921875 27.09375 42.890625 30.859375 
Q 38.875 34.625 31.78125 34.625 
M 21.921875 38.8125 
Q 15.578125 40.375 12.03125 44.71875 
Q 8.5 49.078125 8.5 55.328125 
Q 8.5 64.0625 14.71875 69.140625 
Q 20.953125 74.21875 31.78125 74.21875 
Q 42.671875 74.21875 48.875 69.140625 
Q 55.078125 64.0625 55.078125 55.328125 
Q 55.078125 49.078125 51.53125 44.71875 
Q 48 40.375 41.703125 38.8125 
Q 48.828125 37.15625 52.796875 32.3125 
Q 56.78125 27.484375 56.78125 20.515625 
Q 56.78125 9.90625 50.3125 4.234375 
Q 43.84375 -1.421875 31.78125 -1.421875 
Q 19.734375 -1.421875 13.25 4.234375 
Q 6.78125 9.90625 6.78125 20.515625 
Q 6.78125 27.484375 10.78125 32.3125 
Q 14.796875 37.15625 21.921875 38.8125 
M 18.3125 54.390625 
Q 18.3125 48.734375 21.84375 45.5625 
Q 25.390625 42.390625 31.78125 42.390625 
Q 38.140625 42.390625 41.71875 45.5625 
Q 45.3125 48.734375 45.3125 54.390625 
Q 45.3125 60.0625 41.71875 63.234375 
Q 38.140625 66.40625 31.78125 66.40625 
Q 25.390625 66.40625 21.84375 63.234375 
Q 18.3125 60.0625 18.3125 54.390625 
" id="DejaVuSans-38"/>
      </defs>
      <g transform="translate(333.75225 322.182437)scale(0.1 -0.1)">
       <use xlink:href="#DejaVuSans-38"/>
       <use x="63.623047" xlink:href="#DejaVuSans-30"/>
       <use x="127.246094" xlink:href="#DejaVuSans-30"/>
      </g>
     </g>
    </g>
    <g id="xtick_6">
     <g id="line2d_11">
      <path clip-path="url(#p54e4eca49d)" d="M 414.72 307.584 
L 414.72 41.472 
" style="fill:none;stroke:#b0b0b0;stroke-linecap:square;stroke-width:0.8;"/>
     </g>
     <g id="line2d_12">
      <g>
       <use style="stroke:#000000;stroke-width:0.8;" x="414.72" xlink:href="#m162971aebf" y="307.584"/>
      </g>
     </g>
     <g id="text_6">
      <!-- 1000 -->
      <defs>
       <path d="M 12.40625 8.296875 
L 28.515625 8.296875 
L 28.515625 63.921875 
L 10.984375 60.40625 
L 10.984375 69.390625 
L 28.421875 72.90625 
L 38.28125 72.90625 
L 38.28125 8.296875 
L 54.390625 8.296875 
L 54.390625 0 
L 12.40625 0 
z
" id="DejaVuSans-31"/>
      </defs>
      <g transform="translate(401.995 322.182437)scale(0.1 -0.1)">
       <use xlink:href="#DejaVuSans-31"/>
       <use x="63.623047" xlink:href="#DejaVuSans-30"/>
       <use x="127.246094" xlink:href="#DejaVuSans-30"/>
       <use x="190.869141" xlink:href="#DejaVuSans-30"/>
      </g>
     </g>
    </g>
    <g id="text_7">
     <!-- Number of clients -->
     <defs>
      <path d="M 9.8125 72.90625 
L 23.09375 72.90625 
L 55.421875 11.921875 
L 55.421875 72.90625 
L 64.984375 72.90625 
L 64.984375 0 
L 51.703125 0 
L 19.390625 60.984375 
L 19.390625 0 
L 9.8125 0 
z
" id="DejaVuSans-4e"/>
      <path d="M 8.5 21.578125 
L 8.5 54.6875 
L 17.484375 54.6875 
L 17.484375 21.921875 
Q 17.484375 14.15625 20.5 10.265625 
Q 23.53125 6.390625 29.59375 6.390625 
Q 36.859375 6.390625 41.078125 11.03125 
Q 45.3125 15.671875 45.3125 23.6875 
L 45.3125 54.6875 
L 54.296875 54.6875 
L 54.296875 0 
L 45.3125 0 
L 45.3125 8.40625 
Q 42.046875 3.421875 37.71875 1 
Q 33.40625 -1.421875 27.6875 -1.421875 
Q 18.265625 -1.421875 13.375 4.4375 
Q 8.5 10.296875 8.5 21.578125 
M 31.109375 56 
z
" id="DejaVuSans-75"/>
      <path d="M 52 44.1875 
Q 55.375 50.25 60.0625 53.125 
Q 64.75 56 71.09375 56 
Q 79.640625 56 84.28125 50.015625 
Q 88.921875 44.046875 88.921875 33.015625 
L 88.921875 0 
L 79.890625 0 
L 79.890625 32.71875 
Q 79.890625 40.578125 77.09375 44.375 
Q 74.3125 48.1875 68.609375 48.1875 
Q 61.625 48.1875 57.5625 43.546875 
Q 53.515625 38.921875 53.515625 30.90625 
L 53.515625 0 
L 44.484375 0 
L 44.484375 32.71875 
Q 44.484375 40.625 41.703125 44.40625 
Q 38.921875 48.1875 33.109375 48.1875 
Q 26.21875 48.1875 22.15625 43.53125 
Q 18.109375 38.875 18.109375 30.90625 
L 18.109375 0 
L 9.078125 0 
L 9.078125 54.6875 
L 18.109375 54.6875 
L 18.109375 46.1875 
Q 21.1875 51.21875 25.484375 53.609375 
Q 29.78125 56 35.6875 56 
Q 41.65625 56 45.828125 52.96875 
Q 50 49.953125 52 44.1875 
" id="DejaVuSans-6d"/>
      <path d="M 48.6875 27.296875 
Q 48.6875 37.203125 44.609375 42.84375 
Q 40.53125 48.484375 33.40625 48.484375 
Q 26.265625 48.484375 22.1875 42.84375 
Q 18.109375 37.203125 18.109375 27.296875 
Q 18.109375 17.390625 22.1875 11.75 
Q 26.265625 6.109375 33.40625 6.109375 
Q 40.53125 6.109375 44.609375 11.75 
Q 48.6875 17.390625 48.6875 27.296875 
M 18.109375 46.390625 
Q 20.953125 51.265625 25.265625 53.625 
Q 29.59375 56 35.59375 56 
Q 45.5625 56 51.78125 48.09375 
Q 58.015625 40.1875 58.015625 27.296875 
Q 58.015625 14.40625 51.78125 6.484375 
Q 45.5625 -1.421875 35.59375 -1.421875 
Q 29.59375 -1.421875 25.265625 0.953125 
Q 20.953125 3.328125 18.109375 8.203125 
L 18.109375 0 
L 9.078125 0 
L 9.078125 75.984375 
L 18.109375 75.984375 
z
" id="DejaVuSans-62"/>
      <path d="M 56.203125 29.59375 
L 56.203125 25.203125 
L 14.890625 25.203125 
Q 15.484375 15.921875 20.484375 11.0625 
Q 25.484375 6.203125 34.421875 6.203125 
Q 39.59375 6.203125 44.453125 7.46875 
Q 49.3125 8.734375 54.109375 11.28125 
L 54.109375 2.78125 
Q 49.265625 0.734375 44.1875 -0.34375 
Q 39.109375 -1.421875 33.890625 -1.421875 
Q 20.796875 -1.421875 13.15625 6.1875 
Q 5.515625 13.8125 5.515625 26.8125 
Q 5.515625 40.234375 12.765625 48.109375 
Q 20.015625 56 32.328125 56 
Q 43.359375 56 49.78125 48.890625 
Q 56.203125 41.796875 56.203125 29.59375 
M 47.21875 32.234375 
Q 47.125 39.59375 43.09375 43.984375 
Q 39.0625 48.390625 32.421875 48.390625 
Q 24.90625 48.390625 20.390625 44.140625 
Q 15.875 39.890625 15.1875 32.171875 
z
" id="DejaVuSans-65"/>
      <path d="M 41.109375 46.296875 
Q 39.59375 47.171875 37.8125 47.578125 
Q 36.03125 48 33.890625 48 
Q 26.265625 48 22.1875 43.046875 
Q 18.109375 38.09375 18.109375 28.8125 
L 18.109375 0 
L 9.078125 0 
L 9.078125 54.6875 
L 18.109375 54.6875 
L 18.109375 46.1875 
Q 20.953125 51.171875 25.484375 53.578125 
Q 30.03125 56 36.53125 56 
Q 37.453125 56 38.578125 55.875 
Q 39.703125 55.765625 41.0625 55.515625 
z
" id="DejaVuSans-72"/>
      <path id="DejaVuSans-20"/>
      <path d="M 30.609375 48.390625 
Q 23.390625 48.390625 19.1875 42.75 
Q 14.984375 37.109375 14.984375 27.296875 
Q 14.984375 17.484375 19.15625 11.84375 
Q 23.34375 6.203125 30.609375 6.203125 
Q 37.796875 6.203125 41.984375 11.859375 
Q 46.1875 17.53125 46.1875 27.296875 
Q 46.1875 37.015625 41.984375 42.703125 
Q 37.796875 48.390625 30.609375 48.390625 
M 30.609375 56 
Q 42.328125 56 49.015625 48.375 
Q 55.71875 40.765625 55.71875 27.296875 
Q 55.71875 13.875 49.015625 6.21875 
Q 42.328125 -1.421875 30.609375 -1.421875 
Q 18.84375 -1.421875 12.171875 6.21875 
Q 5.515625 13.875 5.515625 27.296875 
Q 5.515625 40.765625 12.171875 48.375 
Q 18.84375 56 30.609375 56 
" id="DejaVuSans-6f"/>
      <path d="M 37.109375 75.984375 
L 37.109375 68.5 
L 28.515625 68.5 
Q 23.6875 68.5 21.796875 66.546875 
Q 19.921875 64.59375 19.921875 59.515625 
L 19.921875 54.6875 
L 34.71875 54.6875 
L 34.71875 47.703125 
L 19.921875 47.703125 
L 19.921875 0 
L 10.890625 0 
L 10.890625 47.703125 
L 2.296875 47.703125 
L 2.296875 54.6875 
L 10.890625 54.6875 
L 10.890625 58.5 
Q 10.890625 67.625 15.140625 71.796875 
Q 19.390625 75.984375 28.609375 75.984375 
z
" id="DejaVuSans-66"/>
      <path d="M 48.78125 52.59375 
L 48.78125 44.1875 
Q 44.96875 46.296875 41.140625 47.34375 
Q 37.3125 48.390625 33.40625 48.390625 
Q 24.65625 48.390625 19.8125 42.84375 
Q 14.984375 37.3125 14.984375 27.296875 
Q 14.984375 17.28125 19.8125 11.734375 
Q 24.65625 6.203125 33.40625 6.203125 
Q 37.3125 6.203125 41.140625 7.25 
Q 44.96875 8.296875 48.78125 10.40625 
L 48.78125 2.09375 
Q 45.015625 0.34375 40.984375 -0.53125 
Q 36.96875 -1.421875 32.421875 -1.421875 
Q 20.0625 -1.421875 12.78125 6.34375 
Q 5.515625 14.109375 5.515625 27.296875 
Q 5.515625 40.671875 12.859375 48.328125 
Q 20.21875 56 33.015625 56 
Q 37.15625 56 41.109375 55.140625 
Q 45.0625 54.296875 48.78125 52.59375 
" id="DejaVuSans-63"/>
      <path d="M 9.421875 75.984375 
L 18.40625 75.984375 
L 18.40625 0 
L 9.421875 0 
z
" id="DejaVuSans-6c"/>
      <path d="M 9.421875 54.6875 
L 18.40625 54.6875 
L 18.40625 0 
L 9.421875 0 
z
M 9.421875 75.984375 
L 18.40625 75.984375 
L 18.40625 64.59375 
L 9.421875 64.59375 
z
" id="DejaVuSans-69"/>
      <path d="M 54.890625 33.015625 
L 54.890625 0 
L 45.90625 0 
L 45.90625 32.71875 
Q 45.90625 40.484375 42.875 44.328125 
Q 39.84375 48.1875 33.796875 48.1875 
Q 26.515625 48.1875 22.3125 43.546875 
Q 18.109375 38.921875 18.109375 30.90625 
L 18.109375 0 
L 9.078125 0 
L 9.078125 54.6875 
L 18.109375 54.6875 
L 18.109375 46.1875 
Q 21.34375 51.125 25.703125 53.5625 
Q 30.078125 56 35.796875 56 
Q 45.21875 56 50.046875 50.171875 
Q 54.890625 44.34375 54.890625 33.015625 
" id="DejaVuSans-6e"/>
      <path d="M 18.3125 70.21875 
L 18.3125 54.6875 
L 36.8125 54.6875 
L 36.8125 47.703125 
L 18.3125 47.703125 
L 18.3125 18.015625 
Q 18.3125 11.328125 20.140625 9.421875 
Q 21.96875 7.515625 27.59375 7.515625 
L 36.8125 7.515625 
L 36.8125 0 
L 27.59375 0 
Q 17.1875 0 13.234375 3.875 
Q 9.28125 7.765625 9.28125 18.015625 
L 9.28125 47.703125 
L 2.6875 47.703125 
L 2.6875 54.6875 
L 9.28125 54.6875 
L 9.28125 70.21875 
z
" id="DejaVuSans-74"/>
      <path d="M 44.28125 53.078125 
L 44.28125 44.578125 
Q 40.484375 46.53125 36.375 47.5 
Q 32.28125 48.484375 27.875 48.484375 
Q 21.1875 48.484375 17.84375 46.4375 
Q 14.5 44.390625 14.5 40.28125 
Q 14.5 37.15625 16.890625 35.375 
Q 19.28125 33.59375 26.515625 31.984375 
L 29.59375 31.296875 
Q 39.15625 29.25 43.1875 25.515625 
Q 47.21875 21.78125 47.21875 15.09375 
Q 47.21875 7.46875 41.1875 3.015625 
Q 35.15625 -1.421875 24.609375 -1.421875 
Q 20.21875 -1.421875 15.453125 -0.5625 
Q 10.6875 0.296875 5.421875 2 
L 5.421875 11.28125 
Q 10.40625 8.6875 15.234375 7.390625 
Q 20.0625 6.109375 24.8125 6.109375 
Q 31.15625 6.109375 34.5625 8.28125 
Q 37.984375 10.453125 37.984375 14.40625 
Q 37.984375 18.0625 35.515625 20.015625 
Q 33.0625 21.96875 24.703125 23.78125 
L 21.578125 24.515625 
Q 13.234375 26.265625 9.515625 29.90625 
Q 5.8125 33.546875 5.8125 39.890625 
Q 5.8125 47.609375 11.28125 51.796875 
Q 16.75 56 26.8125 56 
Q 31.78125 56 36.171875 55.265625 
Q 40.578125 54.546875 44.28125 53.078125 
" id="DejaVuSans-73"/>
     </defs>
     <g transform="translate(191.738906 335.860562)scale(0.1 -0.1)">
      <use xlink:href="#DejaVuSans-4e"/>
      <use x="74.804688" xlink:href="#DejaVuSans-75"/>
      <use x="138.183594" xlink:href="#DejaVuSans-6d"/>
      <use x="235.595703" xlink:href="#DejaVuSans-62"/>
      <use x="299.072266" xlink:href="#DejaVuSans-65"/>
      <use x="360.595703" xlink:href="#DejaVuSans-72"/>
      <use x="401.708984" xlink:href="#DejaVuSans-20"/>
      <use x="433.496094" xlink:href="#DejaVuSans-6f"/>
      <use x="494.677734" xlink:href="#DejaVuSans-66"/>
      <use x="529.882812" xlink:href="#DejaVuSans-20"/>
      <use x="561.669922" xlink:href="#DejaVuSans-63"/>
      <use x="616.650391" xlink:href="#DejaVuSans-6c"/>
      <use x="644.433594" xlink:href="#DejaVuSans-69"/>
      <use x="672.216797" xlink:href="#DejaVuSans-65"/>
      <use x="733.740234" xlink:href="#DejaVuSans-6e"/>
      <use x="797.119141" xlink:href="#DejaVuSans-74"/>
      <use x="836.328125" xlink:href="#DejaVuSans-73"/>
     </g>
    </g>
   </g>
   <g id="matplotlib.axis_2">
    <g id="ytick_1">
     <g id="line2d_13">
      <path clip-path="url(#p54e4eca49d)" d="M 57.6 296.294045 
L 414.72 296.294045 
" style="fill:none;stroke:#b0b0b0;stroke-linecap:square;stroke-width:0.8;"/>
     </g>
     <g id="line2d_14">
      <defs>
       <path d="M 0 0 
L -3.5 0 
" id="m8a6463a502" style="stroke:#000000;stroke-width:0.8;"/>
      </defs>
      <g>
       <use style="stroke:#000000;stroke-width:0.8;" x="57.6" xlink:href="#m8a6463a502" y="296.294045"/>
      </g>
     </g>
     <g id="text_8">
      <!-- 0 -->
      <g transform="translate(44.2375 300.093264)scale(0.1 -0.1)">
       <use xlink:href="#DejaVuSans-30"/>
      </g>
     </g>
    </g>
    <g id="ytick_2">
     <g id="line2d_15">
      <path clip-path="url(#p54e4eca49d)" d="M 57.6 253.051266 
L 414.72 253.051266 
" style="fill:none;stroke:#b0b0b0;stroke-linecap:square;stroke-width:0.8;"/>
     </g>
     <g id="line2d_16">
      <g>
       <use style="stroke:#000000;stroke-width:0.8;" x="57.6" xlink:href="#m8a6463a502" y="253.051266"/>
      </g>
     </g>
     <g id="text_9">
      <!-- 50 -->
      <defs>
       <path d="M 10.796875 72.90625 
L 49.515625 72.90625 
L 49.515625 64.59375 
L 19.828125 64.59375 
L 19.828125 46.734375 
Q 21.96875 47.46875 24.109375 47.828125 
Q 26.265625 48.1875 28.421875 48.1875 
Q 40.625 48.1875 47.75 41.5 
Q 54.890625 34.8125 54.890625 23.390625 
Q 54.890625 11.625 47.5625 5.09375 
Q 40.234375 -1.421875 26.90625 -1.421875 
Q 22.3125 -1.421875 17.546875 -0.640625 
Q 12.796875 0.140625 7.71875 1.703125 
L 7.71875 11.625 
Q 12.109375 9.234375 16.796875 8.0625 
Q 21.484375 6.890625 26.703125 6.890625 
Q 35.15625 6.890625 40.078125 11.328125 
Q 45.015625 15.765625 45.015625 23.390625 
Q 45.015625 31 40.078125 35.4375 
Q 35.15625 39.890625 26.703125 39.890625 
Q 22.75 39.890625 18.8125 39.015625 
Q 14.890625 38.140625 10.796875 36.28125 
z
" id="DejaVuSans-35"/>
      </defs>
      <g transform="translate(37.875 256.850485)scale(0.1 -0.1)">
       <use xlink:href="#DejaVuSans-35"/>
       <use x="63.623047" xlink:href="#DejaVuSans-30"/>
      </g>
     </g>
    </g>
    <g id="ytick_3">
     <g id="line2d_17">
      <path clip-path="url(#p54e4eca49d)" d="M 57.6 209.808486 
L 414.72 209.808486 
" style="fill:none;stroke:#b0b0b0;stroke-linecap:square;stroke-width:0.8;"/>
     </g>
     <g id="line2d_18">
      <g>
       <use style="stroke:#000000;stroke-width:0.8;" x="57.6" xlink:href="#m8a6463a502" y="209.808486"/>
      </g>
     </g>
     <g id="text_10">
      <!-- 100 -->
      <g transform="translate(31.5125 213.607705)scale(0.1 -0.1)">
       <use xlink:href="#DejaVuSans-31"/>
       <use x="63.623047" xlink:href="#DejaVuSans-30"/>
       <use x="127.246094" xlink:href="#DejaVuSans-30"/>
      </g>
     </g>
    </g>
    <g id="ytick_4">
     <g id="line2d_19">
      <path clip-path="url(#p54e4eca49d)" d="M 57.6 166.565707 
L 414.72 166.565707 
" style="fill:none;stroke:#b0b0b0;stroke-linecap:square;stroke-width:0.8;"/>
     </g>
     <g id="line2d_20">
      <g>
       <use style="stroke:#000000;stroke-width:0.8;" x="57.6" xlink:href="#m8a6463a502" y="166.565707"/>
      </g>
     </g>
     <g id="text_11">
      <!-- 150 -->
      <g transform="translate(31.5125 170.364926)scale(0.1 -0.1)">
       <use xlink:href="#DejaVuSans-31"/>
       <use x="63.623047" xlink:href="#DejaVuSans-35"/>
       <use x="127.246094" xlink:href="#DejaVuSans-30"/>
      </g>
     </g>
    </g>
    <g id="ytick_5">
     <g id="line2d_21">
      <path clip-path="url(#p54e4eca49d)" d="M 57.6 123.322928 
L 414.72 123.322928 
" style="fill:none;stroke:#b0b0b0;stroke-linecap:square;stroke-width:0.8;"/>
     </g>
     <g id="line2d_22">
      <g>
       <use style="stroke:#000000;stroke-width:0.8;" x="57.6" xlink:href="#m8a6463a502" y="123.322928"/>
      </g>
     </g>
     <g id="text_12">
      <!-- 200 -->
      <g transform="translate(31.5125 127.122146)scale(0.1 -0.1)">
       <use xlink:href="#DejaVuSans-32"/>
       <use x="63.623047" xlink:href="#DejaVuSans-30"/>
       <use x="127.246094" xlink:href="#DejaVuSans-30"/>
      </g>
     </g>
    </g>
    <g id="ytick_6">
     <g id="line2d_23">
      <path clip-path="url(#p54e4eca49d)" d="M 57.6 80.080148 
L 414.72 80.080148 
" style="fill:none;stroke:#b0b0b0;stroke-linecap:square;stroke-width:0.8;"/>
     </g>
     <g id="line2d_24">
      <g>
       <use style="stroke:#000000;stroke-width:0.8;" x="57.6" xlink:href="#m8a6463a502" y="80.080148"/>
      </g>
     </g>
     <g id="text_13">
      <!-- 250 -->
      <g transform="translate(31.5125 83.879367)scale(0.1 -0.1)">
       <use xlink:href="#DejaVuSans-32"/>
       <use x="63.623047" xlink:href="#DejaVuSans-35"/>
       <use x="127.246094" xlink:href="#DejaVuSans-30"/>
      </g>
     </g>
    </g>
    <g id="text_14">
     <!-- Successful download requests per second -->
     <defs>
      <path d="M 53.515625 70.515625 
L 53.515625 60.890625 
Q 47.90625 63.578125 42.921875 64.890625 
Q 37.9375 66.21875 33.296875 66.21875 
Q 25.25 66.21875 20.875 63.09375 
Q 16.5 59.96875 16.5 54.203125 
Q 16.5 49.359375 19.40625 46.890625 
Q 22.3125 44.4375 30.421875 42.921875 
L 36.375 41.703125 
Q 47.40625 39.59375 52.65625 34.296875 
Q 57.90625 29 57.90625 20.125 
Q 57.90625 9.515625 50.796875 4.046875 
Q 43.703125 -1.421875 29.984375 -1.421875 
Q 24.8125 -1.421875 18.96875 -0.25 
Q 13.140625 0.921875 6.890625 3.21875 
L 6.890625 13.375 
Q 12.890625 10.015625 18.65625 8.296875 
Q 24.421875 6.59375 29.984375 6.59375 
Q 38.421875 6.59375 43.015625 9.90625 
Q 47.609375 13.234375 47.609375 19.390625 
Q 47.609375 24.75 44.3125 27.78125 
Q 41.015625 30.8125 33.5 32.328125 
L 27.484375 33.5 
Q 16.453125 35.6875 11.515625 40.375 
Q 6.59375 45.0625 6.59375 53.421875 
Q 6.59375 63.09375 13.40625 68.65625 
Q 20.21875 74.21875 32.171875 74.21875 
Q 37.3125 74.21875 42.625 73.28125 
Q 47.953125 72.359375 53.515625 70.515625 
" id="DejaVuSans-53"/>
      <path d="M 45.40625 46.390625 
L 45.40625 75.984375 
L 54.390625 75.984375 
L 54.390625 0 
L 45.40625 0 
L 45.40625 8.203125 
Q 42.578125 3.328125 38.25 0.953125 
Q 33.9375 -1.421875 27.875 -1.421875 
Q 17.96875 -1.421875 11.734375 6.484375 
Q 5.515625 14.40625 5.515625 27.296875 
Q 5.515625 40.1875 11.734375 48.09375 
Q 17.96875 56 27.875 56 
Q 33.9375 56 38.25 53.625 
Q 42.578125 51.265625 45.40625 46.390625 
M 14.796875 27.296875 
Q 14.796875 17.390625 18.875 11.75 
Q 22.953125 6.109375 30.078125 6.109375 
Q 37.203125 6.109375 41.296875 11.75 
Q 45.40625 17.390625 45.40625 27.296875 
Q 45.40625 37.203125 41.296875 42.84375 
Q 37.203125 48.484375 30.078125 48.484375 
Q 22.953125 48.484375 18.875 42.84375 
Q 14.796875 37.203125 14.796875 27.296875 
" id="DejaVuSans-64"/>
      <path d="M 4.203125 54.6875 
L 13.1875 54.6875 
L 24.421875 12.015625 
L 35.59375 54.6875 
L 46.1875 54.6875 
L 57.421875 12.015625 
L 68.609375 54.6875 
L 77.59375 54.6875 
L 63.28125 0 
L 52.6875 0 
L 40.921875 44.828125 
L 29.109375 0 
L 18.5 0 
z
" id="DejaVuSans-77"/>
      <path d="M 34.28125 27.484375 
Q 23.390625 27.484375 19.1875 25 
Q 14.984375 22.515625 14.984375 16.5 
Q 14.984375 11.71875 18.140625 8.90625 
Q 21.296875 6.109375 26.703125 6.109375 
Q 34.1875 6.109375 38.703125 11.40625 
Q 43.21875 16.703125 43.21875 25.484375 
L 43.21875 27.484375 
z
M 52.203125 31.203125 
L 52.203125 0 
L 43.21875 0 
L 43.21875 8.296875 
Q 40.140625 3.328125 35.546875 0.953125 
Q 30.953125 -1.421875 24.3125 -1.421875 
Q 15.921875 -1.421875 10.953125 3.296875 
Q 6 8.015625 6 15.921875 
Q 6 25.140625 12.171875 29.828125 
Q 18.359375 34.515625 30.609375 34.515625 
L 43.21875 34.515625 
L 43.21875 35.40625 
Q 43.21875 41.609375 39.140625 45 
Q 35.0625 48.390625 27.6875 48.390625 
Q 23 48.390625 18.546875 47.265625 
Q 14.109375 46.140625 10.015625 43.890625 
L 10.015625 52.203125 
Q 14.9375 54.109375 19.578125 55.046875 
Q 24.21875 56 28.609375 56 
Q 40.484375 56 46.34375 49.84375 
Q 52.203125 43.703125 52.203125 31.203125 
" id="DejaVuSans-61"/>
      <path d="M 14.796875 27.296875 
Q 14.796875 17.390625 18.875 11.75 
Q 22.953125 6.109375 30.078125 6.109375 
Q 37.203125 6.109375 41.296875 11.75 
Q 45.40625 17.390625 45.40625 27.296875 
Q 45.40625 37.203125 41.296875 42.84375 
Q 37.203125 48.484375 30.078125 48.484375 
Q 22.953125 48.484375 18.875 42.84375 
Q 14.796875 37.203125 14.796875 27.296875 
M 45.40625 8.203125 
Q 42.578125 3.328125 38.25 0.953125 
Q 33.9375 -1.421875 27.875 -1.421875 
Q 17.96875 -1.421875 11.734375 6.484375 
Q 5.515625 14.40625 5.515625 27.296875 
Q 5.515625 40.1875 11.734375 48.09375 
Q 17.96875 56 27.875 56 
Q 33.9375 56 38.25 53.625 
Q 42.578125 51.265625 45.40625 46.390625 
L 45.40625 54.6875 
L 54.390625 54.6875 
L 54.390625 -20.796875 
L 45.40625 -20.796875 
z
" id="DejaVuSans-71"/>
      <path d="M 18.109375 8.203125 
L 18.109375 -20.796875 
L 9.078125 -20.796875 
L 9.078125 54.6875 
L 18.109375 54.6875 
L 18.109375 46.390625 
Q 20.953125 51.265625 25.265625 53.625 
Q 29.59375 56 35.59375 56 
Q 45.5625 56 51.78125 48.09375 
Q 58.015625 40.1875 58.015625 27.296875 
Q 58.015625 14.40625 51.78125 6.484375 
Q 45.5625 -1.421875 35.59375 -1.421875 
Q 29.59375 -1.421875 25.265625 0.953125 
Q 20.953125 3.328125 18.109375 8.203125 
M 48.6875 27.296875 
Q 48.6875 37.203125 44.609375 42.84375 
Q 40.53125 48.484375 33.40625 48.484375 
Q 26.265625 48.484375 22.1875 42.84375 
Q 18.109375 37.203125 18.109375 27.296875 
Q 18.109375 17.390625 22.1875 11.75 
Q 26.265625 6.109375 33.40625 6.109375 
Q 40.53125 6.109375 44.609375 11.75 
Q 48.6875 17.390625 48.6875 27.296875 
" id="DejaVuSans-70"/>
     </defs>
     <g transform="translate(25.432812 279.366281)rotate(-90)scale(0.1 -0.1)">
      <use xlink:href="#DejaVuSans-53"/>
      <use x="63.476562" xlink:href="#DejaVuSans-75"/>
      <use x="126.855469" xlink:href="#DejaVuSans-63"/>
      <use x="181.835938" xlink:href="#DejaVuSans-63"/>
      <use x="236.816406" xlink:href="#DejaVuSans-65"/>
      <use x="298.339844" xlink:href="#DejaVuSans-73"/>
      <use x="350.439453" xlink:href="#DejaVuSans-73"/>
      <use x="402.539062" xlink:href="#DejaVuSans-66"/>
      <use x="437.744141" xlink:href="#DejaVuSans-75"/>
      <use x="501.123047" xlink:href="#DejaVuSans-6c"/>
      <use x="528.90625" xlink:href="#DejaVuSans-20"/>
      <use x="560.693359" xlink:href="#DejaVuSans-64"/>
      <use x="624.169922" xlink:href="#DejaVuSans-6f"/>
      <use x="685.351562" xlink:href="#DejaVuSans-77"/>
      <use x="767.138672" xlink:href="#DejaVuSans-6e"/>
      <use x="830.517578" xlink:href="#DejaVuSans-6c"/>
      <use x="858.300781" xlink:href="#DejaVuSans-6f"/>
      <use x="919.482422" xlink:href="#DejaVuSans-61"/>
      <use x="980.761719" xlink:href="#DejaVuSans-64"/>
      <use x="1044.238281" xlink:href="#DejaVuSans-20"/>
      <use x="1076.025391" xlink:href="#DejaVuSans-72"/>
      <use x="1117.107422" xlink:href="#DejaVuSans-65"/>
      <use x="1178.630859" xlink:href="#DejaVuSans-71"/>
      <use x="1242.107422" xlink:href="#DejaVuSans-75"/>
      <use x="1305.486328" xlink:href="#DejaVuSans-65"/>
      <use x="1367.009766" xlink:href="#DejaVuSans-73"/>
      <use x="1419.109375" xlink:href="#DejaVuSans-74"/>
      <use x="1458.318359" xlink:href="#DejaVuSans-73"/>
      <use x="1510.417969" xlink:href="#DejaVuSans-20"/>
      <use x="1542.205078" xlink:href="#DejaVuSans-70"/>
      <use x="1605.681641" xlink:href="#DejaVuSans-65"/>
      <use x="1667.205078" xlink:href="#DejaVuSans-72"/>
      <use x="1708.318359" xlink:href="#DejaVuSans-20"/>
      <use x="1740.105469" xlink:href="#DejaVuSans-73"/>
      <use x="1792.205078" xlink:href="#DejaVuSans-65"/>
      <use x="1853.728516" xlink:href="#DejaVuSans-63"/>
      <use x="1908.708984" xlink:href="#DejaVuSans-6f"/>
      <use x="1969.890625" xlink:href="#DejaVuSans-6e"/>
      <use x="2033.269531" xlink:href="#DejaVuSans-64"/>
     </g>
    </g>
   </g>
   <g id="line2d_25">
    <path clip-path="url(#p54e4eca49d)" d="M 57.6 295.458595 
L 57.95712 295.488 
L 60.09984 290.615404 
L 60.45696 289.411525 
L 60.81408 288.937584 
L 61.52832 286.950146 
L 61.88544 286.404422 
L 62.24256 285.236002 
L 62.59968 284.803574 
L 62.9568 284.090933 
L 63.31392 283.077322 
L 63.67104 281.606203 
L 64.02816 280.78632 
L 64.38528 280.954102 
L 64.7424 280.09876 
L 65.09952 278.461588 
L 65.45664 278.412291 
L 65.81376 276.568419 
L 66.17088 276.268314 
L 66.528 275.114597 
L 66.88512 274.372551 
L 67.24224 273.011268 
L 67.59936 272.310735 
L 67.95648 272.431815 
L 68.67072 270.585348 
L 69.02784 269.858869 
L 69.38496 268.189698 
L 69.74208 267.840297 
L 70.45632 265.738697 
L 70.81344 266.207449 
L 71.17056 265.640104 
L 71.52768 264.854815 
L 71.8848 263.767692 
L 72.24192 263.143266 
L 72.95616 259.548061 
L 73.31328 259.404495 
L 73.6704 258.636503 
L 74.02752 256.908522 
L 74.74176 255.922587 
L 75.09888 255.571455 
L 75.456 254.742923 
L 75.81312 253.489748 
L 76.17024 251.459932 
L 76.52736 250.912478 
L 76.88448 250.052812 
L 77.2416 250.99118 
L 77.59872 250.18427 
L 77.95584 249.699086 
L 78.31296 246.722253 
L 78.67008 248.106887 
L 79.38432 244.926813 
L 79.74144 244.092227 
L 80.09856 241.83063 
L 80.45568 242.299381 
L 80.8128 241.172474 
L 81.16992 242.330516 
L 81.52704 239.172063 
L 81.88416 237.681052 
L 82.24128 240.21162 
L 82.5984 239.915839 
L 82.95552 235.938368 
L 83.31264 237.023762 
L 83.66976 235.019892 
L 84.02688 234.861623 
L 84.384 233.195911 
L 84.74112 233.022075 
L 85.09824 231.574307 
L 85.45536 230.789883 
L 85.81248 228.14256 
L 86.1696 231.711819 
L 86.52672 229.315304 
L 86.88384 226.115339 
L 87.24096 225.938043 
L 87.59808 227.403973 
L 87.9552 224.037091 
L 88.31232 226.966357 
L 88.66944 222.568566 
L 89.38368 220.641668 
L 89.7408 218.560825 
L 90.09792 219.674759 
L 90.45504 220.002539 
L 90.81216 219.212061 
L 91.16928 218.787417 
L 91.5264 216.743763 
L 91.88352 216.795655 
L 92.24064 214.476112 
L 92.59776 216.011231 
L 93.312 212.230082 
L 93.66912 209.242871 
L 94.02624 212.641753 
L 94.38336 213.224666 
L 94.74048 211.763925 
L 95.0976 208.313151 
L 95.45472 206.04377 
L 95.81184 209.493679 
L 96.16896 206.845491 
L 96.52608 207.296946 
L 96.8832 202.651806 
L 97.59744 200.718854 
L 98.31168 201.137444 
L 98.6688 202.969208 
L 99.38304 196.508737 
L 99.74016 196.620304 
L 100.09728 197.74894 
L 100.4544 196.513926 
L 100.81152 197.669373 
L 101.16864 197.776616 
L 101.52576 193.644336 
L 101.88288 196.945489 
L 102.24 191.930192 
L 102.59712 195.651665 
L 102.95424 191.640465 
L 103.31136 189.714432 
L 103.66848 189.549244 
L 104.0256 195.981175 
L 104.38272 190.709016 
L 104.73984 189.534542 
L 105.09696 194.166708 
L 105.45408 192.790723 
L 105.8112 189.602865 
L 106.16832 194.146817 
L 106.52544 192.653211 
L 106.88256 188.564174 
L 107.23968 188.159421 
L 107.5968 189.855403 
L 107.95392 185.332208 
L 108.31104 185.455883 
L 108.66816 188.583201 
L 109.02528 184.221734 
L 109.3824 188.034882 
L 109.73952 187.581698 
L 110.09664 187.811749 
L 110.45376 189.672054 
L 110.81088 182.282728 
L 111.168 186.863003 
L 111.52512 183.577416 
L 112.23936 186.727221 
L 112.59648 186.925272 
L 113.31072 182.547373 
L 113.66784 185.173075 
L 114.02496 181.617654 
L 114.38208 184.277949 
L 114.7392 178.900277 
L 115.09632 184.707783 
L 115.45344 182.101973 
L 115.81056 183.283366 
L 116.16768 178.364067 
L 116.5248 181.026957 
L 116.88192 177.455969 
L 117.23904 181.37117 
L 117.59616 181.030417 
L 117.95328 177.937693 
L 118.3104 183.145854 
L 118.66752 180.02286 
L 119.02464 182.391699 
L 119.38176 176.679328 
L 119.73888 179.544595 
L 120.096 177.402348 
L 120.45312 178.303527 
L 120.81024 181.408359 
L 121.16736 181.1022 
L 121.52448 174.147896 
L 121.8816 173.31504 
L 122.23872 173.620334 
L 122.59584 175.786797 
L 122.95296 176.454466 
L 123.31008 175.383775 
L 123.6672 171.824894 
L 124.02432 176.182901 
L 124.38144 177.898775 
L 124.73856 174.523243 
L 125.09568 174.87351 
L 125.4528 172.581642 
L 125.80992 172.123269 
L 126.16704 171.888893 
L 126.52416 172.47786 
L 126.88128 173.502714 
L 127.2384 172.009108 
L 127.59552 169.12568 
L 127.95264 173.376445 
L 128.30976 172.503805 
L 128.66688 170.550097 
L 129.024 175.437396 
L 129.38112 173.431796 
L 129.73824 174.629621 
L 130.09536 169.281354 
L 130.45248 168.01607 
L 130.8096 173.538173 
L 131.16672 166.440303 
L 131.52384 164.936319 
L 131.88096 170.760257 
L 132.23808 165.413719 
L 132.5952 167.7151 
L 132.95232 163.895898 
L 133.30944 172.147485 
L 133.66656 169.276164 
L 134.02368 171.536897 
L 134.3808 170.464476 
L 134.73792 164.744321 
L 135.09504 170.794851 
L 135.45216 170.464476 
L 135.80928 164.621512 
L 136.1664 163.004232 
L 136.88064 165.566799 
L 137.23776 161.435384 
L 137.59488 168.737359 
L 137.952 163.349309 
L 138.30912 163.863898 
L 138.66624 167.104512 
L 139.02336 166.672084 
L 139.38048 161.620463 
L 139.7376 163.482497 
L 140.45184 160.132046 
L 140.80896 163.517956 
L 141.16608 160.199505 
L 141.5232 164.010059 
L 141.88032 157.20451 
L 142.59456 164.609404 
L 142.95168 163.778277 
L 143.3088 159.011193 
L 143.66592 159.998859 
L 144.02304 163.187581 
L 144.38016 160.568798 
L 145.0944 163.009421 
L 145.45152 155.502474 
L 145.80864 160.158857 
L 146.16576 159.837995 
L 146.52288 157.08516 
L 146.88 160.314531 
L 147.23712 159.106328 
L 147.59424 156.011874 
L 147.95136 160.754742 
L 148.6656 153.329957 
L 149.02272 160.989983 
L 149.37984 161.264142 
L 149.73696 155.793931 
L 150.09408 157.156078 
L 150.4512 161.275385 
L 150.80832 158.079744 
L 151.16544 156.727975 
L 151.52256 159.524053 
L 151.87968 154.669618 
L 152.2368 156.983107 
L 152.59392 155.902902 
L 152.95104 152.213429 
L 153.30816 158.82352 
L 154.0224 157.034998 
L 154.37952 155.849281 
L 154.73664 153.751142 
L 155.09376 157.189808 
L 155.45088 151.790514 
L 155.808 156.318898 
L 156.16512 155.368422 
L 156.52224 151.966945 
L 156.87936 157.167321 
L 157.23648 155.966037 
L 157.5936 146.78646 
L 157.95072 150.936037 
L 158.30784 153.31439 
L 158.66496 150.980144 
L 159.02208 150.314206 
L 159.3792 151.672894 
L 159.73632 154.176651 
L 160.09344 151.833757 
L 160.45056 148.289579 
L 160.80768 148.076824 
L 161.1648 153.557414 
L 161.52192 145.291124 
L 161.87904 146.886783 
L 162.59328 154.20865 
L 162.9504 152.286941 
L 163.30752 143.269092 
L 163.66464 143.549305 
L 164.02176 149.739077 
L 164.37888 148.600062 
L 164.736 150.49669 
L 165.09312 147.987744 
L 165.45024 149.458863 
L 165.80736 148.069041 
L 166.16448 148.376064 
L 166.5216 143.609845 
L 166.87872 147.008728 
L 167.23584 146.308195 
L 167.59296 148.437469 
L 167.95008 147.422129 
L 168.3072 147.5951 
L 168.66432 141.899161 
L 169.02144 144.59578 
L 169.37856 143.497414 
L 169.73568 147.939312 
L 170.0928 149.98729 
L 170.44992 141.521219 
L 170.80704 144.670158 
L 171.16416 143.492225 
L 171.52128 147.371102 
L 171.8784 143.209417 
L 172.23552 146.524408 
L 172.59264 141.719271 
L 172.94976 138.58071 
L 173.30688 137.858555 
L 174.02112 143.298497 
L 174.37824 143.463685 
L 174.73536 143.831248 
L 175.09248 141.101764 
L 175.4496 143.564008 
L 175.80672 136.948727 
L 176.16384 145.443339 
L 176.52096 141.705433 
L 176.87808 140.187612 
L 177.2352 141.236681 
L 177.59232 144.151245 
L 177.94944 143.989517 
L 178.30656 146.010684 
L 178.66368 138.570332 
L 179.0208 141.657866 
L 179.37792 142.448344 
L 179.73504 138.116282 
L 180.09216 138.952598 
L 180.44928 133.581845 
L 180.8064 136.971214 
L 181.16352 138.371415 
L 181.52064 140.312151 
L 181.87776 140.530094 
L 182.23488 137.128617 
L 182.592 141.050737 
L 182.94912 142.386939 
L 183.30624 132.525856 
L 183.66336 139.153244 
L 184.02048 142.395588 
L 184.3776 136.09252 
L 184.73472 142.552127 
L 185.09184 133.483251 
L 185.44896 139.215514 
L 185.80608 136.90462 
L 186.1632 132.211048 
L 186.52032 139.810535 
L 186.87744 132.225751 
L 187.23456 138.447522 
L 187.59168 132.885636 
L 187.9488 134.035029 
L 188.30592 131.063385 
L 188.66304 131.816674 
L 189.02016 129.937343 
L 189.37728 137.268724 
L 189.7344 129.913127 
L 190.09152 137.027429 
L 190.44864 133.232443 
L 190.80576 138.011635 
L 191.16288 136.520624 
L 191.52 137.693368 
L 191.87712 131.818404 
L 192.23424 137.176184 
L 192.59136 127.655854 
L 192.94848 132.807799 
L 193.3056 135.659228 
L 193.66272 137.246238 
L 194.01984 130.969116 
L 194.37696 128.213686 
L 194.73408 127.036617 
L 195.0912 137.471965 
L 195.44832 137.497046 
L 196.16256 135.947225 
L 196.51968 126.609379 
L 196.8768 132.248237 
L 197.23392 130.651714 
L 197.59104 132.595909 
L 197.94816 124.998153 
L 198.30528 126.135438 
L 198.6624 132.757637 
L 199.01952 130.903387 
L 199.73376 132.70834 
L 200.09088 126.556623 
L 200.448 129.788588 
L 200.80512 125.283555 
L 201.16224 134.794372 
L 201.51936 123.206172 
L 201.87648 130.425987 
L 202.2336 123.094606 
L 202.59072 124.044217 
L 202.94784 125.399446 
L 203.66208 129.498861 
L 204.0192 123.174172 
L 204.37632 127.55899 
L 204.73344 121.3303 
L 205.09056 127.636827 
L 205.44768 127.609152 
L 205.8048 130.82555 
L 206.16192 127.974121 
L 206.51904 127.837474 
L 206.87616 124.177405 
L 207.23328 129.872479 
L 207.5904 125.306906 
L 207.94752 124.366808 
L 208.30464 125.862144 
L 208.66176 119.635183 
L 209.01888 129.048272 
L 209.376 131.48457 
L 210.09024 124.889181 
L 210.44736 126.583433 
L 210.80448 118.75649 
L 211.51872 127.360073 
L 212.23296 118.314549 
L 212.59008 119.578103 
L 212.9472 124.937613 
L 213.30432 117.67715 
L 213.66144 125.905386 
L 214.01856 129.366538 
L 214.37568 123.147362 
L 214.7328 120.212907 
L 215.08992 118.846435 
L 215.44704 124.860641 
L 215.80416 121.126194 
L 216.16128 122.232345 
L 216.5184 117.643421 
L 216.87552 127.865149 
L 217.23264 117.820716 
L 217.58976 116.788944 
L 217.94688 123.844435 
L 218.304 121.054411 
L 218.66112 120.189556 
L 219.01824 117.46872 
L 219.37536 124.042487 
L 219.73248 125.012855 
L 220.0896 114.351781 
L 220.44672 115.533173 
L 220.80384 117.611421 
L 221.16096 124.241404 
L 221.51808 123.429305 
L 221.8752 121.284463 
L 222.58944 114.191782 
L 222.94656 121.286193 
L 223.30368 119.41724 
L 223.6608 113.381413 
L 224.01792 112.814932 
L 224.37504 114.218593 
L 224.73216 113.975568 
L 225.08928 115.988952 
L 225.4464 112.534719 
L 225.80352 123.891138 
L 226.16064 121.795593 
L 226.51776 112.878067 
L 226.87488 121.66154 
L 227.232 120.234528 
L 227.58912 123.085957 
L 227.94624 121.852673 
L 228.30336 121.995374 
L 228.66048 114.753938 
L 229.0176 111.729538 
L 229.37472 121.829322 
L 229.73184 115.235663 
L 230.08896 117.802554 
L 230.44608 122.789312 
L 230.8032 116.625486 
L 231.16032 115.657712 
L 231.51744 116.651432 
L 231.87456 114.05773 
L 232.23168 116.665269 
L 232.5888 110.894088 
L 232.94592 118.991731 
L 233.30304 113.358926 
L 233.66016 114.134702 
L 234.01728 112.069427 
L 234.3744 115.453607 
L 234.73152 120.742198 
L 235.08864 109.98599 
L 235.44576 117.246452 
L 235.80288 116.115221 
L 236.16 113.952217 
L 236.51712 107.816067 
L 236.87424 111.828132 
L 237.23136 117.345046 
L 237.58848 116.729269 
L 237.9456 107.937147 
L 238.30272 107.805689 
L 238.65984 118.069795 
L 239.01696 109.405671 
L 239.37408 113.776652 
L 239.7312 111.812565 
L 240.08832 105.938465 
L 240.44544 114.814478 
L 240.80256 113.141848 
L 241.15968 114.206485 
L 241.5168 111.03333 
L 241.87392 105.218906 
L 242.23104 113.889948 
L 242.58816 106.112301 
L 242.94528 109.967828 
L 243.3024 107.654339 
L 243.65952 106.613918 
L 244.01664 113.102064 
L 244.37376 112.831364 
L 244.73088 113.692761 
L 245.088 110.567172 
L 245.44512 103.849839 
L 245.80224 111.710512 
L 246.15936 116.626351 
L 246.8736 109.589021 
L 247.23072 114.02746 
L 247.58784 108.328926 
L 247.94496 113.532762 
L 248.30208 106.470352 
L 248.6592 107.093048 
L 249.01632 108.858218 
L 249.37344 106.114031 
L 249.73056 108.386007 
L 250.08768 102.453097 
L 250.4448 109.710965 
L 250.80192 103.212441 
L 251.15904 111.941428 
L 251.51616 108.5486 
L 251.87328 103.348223 
L 252.2304 113.710058 
L 252.58752 113.130604 
L 252.94464 102.583691 
L 253.30176 110.201339 
L 253.65888 105.519875 
L 254.016 108.555518 
L 254.37312 105.474038 
L 254.73024 100.381768 
L 255.08736 110.638091 
L 255.44448 111.843699 
L 255.8016 99.644046 
L 256.15872 108.654977 
L 256.51584 102.516232 
L 256.87296 110.576686 
L 257.23008 107.950984 
L 257.5872 112.034832 
L 257.94432 112.060778 
L 258.30144 112.295154 
L 258.65856 98.646868 
L 259.01568 104.56594 
L 259.3728 103.507356 
L 259.72992 103.376763 
L 260.08704 105.259554 
L 260.44416 105.505173 
L 260.80128 98.942648 
L 261.1584 107.362883 
L 261.51552 99.346536 
L 261.87264 99.938962 
L 262.22976 101.550188 
L 262.58688 98.869136 
L 262.944 110.737549 
L 263.30112 104.610912 
L 263.65824 109.65302 
L 264.01536 102.428017 
L 264.37248 107.546232 
L 264.7296 99.457238 
L 265.08672 104.272753 
L 265.44384 96.199327 
L 265.80096 102.590609 
L 266.15808 97.411854 
L 266.5152 106.046572 
L 266.87232 96.604944 
L 267.22944 106.306029 
L 267.58656 107.294559 
L 267.94368 108.946433 
L 268.3008 101.161003 
L 268.65792 96.819428 
L 269.01504 102.518826 
L 269.37216 101.519053 
L 269.72928 102.581096 
L 270.0864 100.49247 
L 270.44352 97.327098 
L 270.80064 102.578501 
L 271.872 94.581182 
L 272.22912 102.471259 
L 272.58624 98.402114 
L 272.94336 105.026043 
L 273.30048 95.63717 
L 273.6576 106.365704 
L 274.01472 105.54928 
L 274.37184 99.633668 
L 274.72896 99.881882 
L 275.08608 94.44021 
L 275.4432 104.346266 
L 275.80032 98.459194 
L 276.15744 101.351271 
L 276.51456 100.501983 
L 276.87168 103.772002 
L 277.2288 104.341077 
L 277.58592 105.540632 
L 277.94304 100.565982 
L 278.30016 100.13096 
L 278.65728 96.481269 
L 279.0144 97.967956 
L 279.37152 100.131825 
L 279.72864 104.439671 
L 280.08576 102.396882 
L 280.44288 102.79731 
L 280.8 96.416405 
L 281.15712 101.195597 
L 281.51424 98.886433 
L 281.87136 97.311531 
L 282.22848 94.896854 
L 282.94272 100.813331 
L 283.29984 99.29378 
L 283.65696 90.350308 
L 284.01408 90.981653 
L 284.3712 98.059631 
L 284.72832 99.131187 
L 285.08544 89.52956 
L 285.44256 90.452361 
L 285.79968 98.942648 
L 286.1568 96.865265 
L 286.51392 91.80586 
L 286.87104 99.410535 
L 287.22816 99.644911 
L 287.58528 93.617733 
L 287.9424 100.232148 
L 288.29952 90.013879 
L 288.65664 90.025123 
L 289.01376 95.132095 
L 289.37088 95.658792 
L 289.728 101.578728 
L 290.08512 87.487636 
L 290.44224 90.469658 
L 290.79936 91.244569 
L 291.15648 87.274882 
L 291.5136 97.253586 
L 291.87072 95.497929 
L 292.22784 89.880692 
L 292.94208 100.825439 
L 293.2992 88.618002 
L 293.65632 90.118527 
L 294.01344 86.883102 
L 294.37056 86.676402 
L 295.0848 93.60476 
L 295.44192 92.97428 
L 295.79904 98.940054 
L 296.15616 96.408622 
L 296.51328 97.730121 
L 296.8704 93.658381 
L 297.22752 92.984658 
L 297.58464 92.827255 
L 297.94176 90.227499 
L 298.29888 92.720877 
L 298.656 93.912648 
L 299.01312 97.552826 
L 299.72736 84.626694 
L 300.08448 95.472848 
L 300.4416 95.437389 
L 300.79872 84.725287 
L 301.15584 89.772585 
L 301.51296 90.092581 
L 301.87008 93.673948 
L 302.2272 90.077014 
L 302.58432 84.940637 
L 303.29856 91.235055 
L 303.65568 88.048063 
L 304.0128 83.229087 
L 304.36992 89.544263 
L 304.72704 93.577084 
L 305.08416 95.039555 
L 305.44128 94.991988 
L 305.7984 96.922346 
L 306.15552 88.331735 
L 306.51264 93.891027 
L 306.86976 86.564835 
L 307.22688 82.354718 
L 307.584 93.854703 
L 307.94112 92.770174 
L 308.29824 91.084571 
L 308.65536 90.193769 
L 309.01248 86.262136 
L 309.3696 87.341476 
L 310.08384 95.370795 
L 310.44096 83.36314 
L 311.1552 93.410167 
L 311.51232 81.399053 
L 311.86944 85.913599 
L 312.22656 85.578035 
L 312.58368 80.687277 
L 312.9408 94.035458 
L 313.29792 88.447626 
L 313.65504 85.09804 
L 314.01216 94.026809 
L 314.36928 82.256125 
L 314.7264 86.487863 
L 315.08352 84.315346 
L 315.44064 85.362686 
L 315.79776 88.279844 
L 316.512 78.968809 
L 316.86912 87.491096 
L 317.22624 89.960258 
L 317.94048 80.266957 
L 318.2976 91.662294 
L 318.65472 92.306612 
L 319.01184 81.041003 
L 319.36896 90.757655 
L 319.72608 79.525776 
L 320.0832 82.5225 
L 320.44032 89.424048 
L 320.79744 86.488728 
L 321.15456 90.842411 
L 321.51168 86.939318 
L 321.8688 91.006734 
L 322.22592 85.059987 
L 322.58304 83.344113 
L 322.94016 82.686823 
L 323.29728 79.26286 
L 323.6544 78.602975 
L 324.01152 78.188709 
L 324.72576 89.950745 
L 325.08288 85.522684 
L 325.44 86.698888 
L 325.79712 85.301281 
L 326.15424 87.743633 
L 326.51136 84.479668 
L 326.86848 83.712542 
L 327.2256 78.466328 
L 327.58272 85.60917 
L 327.93984 80.853329 
L 328.29696 87.725471 
L 328.65408 88.21325 
L 329.0112 86.550133 
L 329.72544 90.254309 
L 330.08256 83.829297 
L 330.43968 86.411756 
L 330.7968 75.7896 
L 331.15392 89.239834 
L 331.51104 84.714044 
L 331.86816 76.484943 
L 332.22528 77.345475 
L 332.5824 86.482674 
L 332.93952 77.137909 
L 333.29664 77.315205 
L 333.65376 86.653051 
L 334.368 75.571656 
L 334.72512 81.739806 
L 335.08224 82.013965 
L 335.43936 86.786238 
L 335.79648 77.174233 
L 336.1536 87.76266 
L 336.51072 82.224125 
L 336.86784 78.682541 
L 337.22496 82.307151 
L 337.58208 74.487992 
L 337.9392 79.398642 
L 338.29632 74.941176 
L 338.65344 83.024981 
L 339.01056 85.264092 
L 339.36768 75.608845 
L 339.7248 87.363097 
L 340.43904 72.868982 
L 340.79616 78.569245 
L 341.15328 75.607115 
L 341.5104 79.409885 
L 341.86752 72.634606 
L 342.22464 80.519495 
L 342.58176 71.470511 
L 342.93888 74.774259 
L 343.296 74.279562 
L 343.65312 86.488728 
L 344.01024 73.764108 
L 344.36736 85.209607 
L 344.72448 76.692509 
L 345.0816 78.348707 
L 345.43872 84.656964 
L 345.79584 82.2838 
L 346.15296 77.628282 
L 346.51008 70.974084 
L 346.8672 76.529916 
L 347.22432 70.69387 
L 347.58144 72.624228 
L 347.93856 71.47743 
L 348.29568 73.838485 
L 348.6528 72.993521 
L 349.00992 82.013965 
L 349.36704 72.780767 
L 349.72416 74.542478 
L 350.08128 79.313021 
L 350.4384 78.771622 
L 350.79552 84.217617 
L 351.50976 73.482165 
L 351.86688 75.569061 
L 352.224 70.783815 
L 352.58112 73.892971 
L 352.93824 70.810626 
L 353.29536 70.169768 
L 353.65248 74.913501 
L 354.0096 68.806755 
L 354.36672 81.501971 
L 354.72384 71.313972 
L 355.08096 78.051197 
L 355.43808 74.450803 
L 355.7952 75.893382 
L 356.15232 80.862842 
L 356.50944 80.593872 
L 357.22368 73.573839 
L 357.5808 82.918604 
L 357.93792 71.92283 
L 358.29504 73.20887 
L 358.65216 82.083154 
L 359.00928 78.824378 
L 359.3664 66.795101 
L 359.72352 78.865026 
L 360.08064 66.826236 
L 360.43776 73.366274 
L 360.79488 72.982278 
L 361.152 74.628963 
L 361.50912 79.47129 
L 361.86624 71.68413 
L 362.22336 72.493635 
L 362.58048 80.586953 
L 362.9376 74.955879 
L 363.29472 77.497689 
L 364.00896 72.171909 
L 364.36608 70.84868 
L 364.7232 77.862658 
L 365.08032 79.618315 
L 365.43744 76.482349 
L 365.79456 75.451441 
L 366.15168 73.381842 
L 366.5088 73.273735 
L 366.86592 74.382479 
L 367.22304 68.300815 
L 367.58016 76.311972 
L 367.93728 73.167357 
L 368.2944 77.854875 
L 368.65152 71.732562 
L 369.00864 71.901209 
L 369.36576 66.470781 
L 369.72288 70.073769 
L 370.08 64.818042 
L 370.43712 65.848085 
L 370.79424 78.128169 
L 371.15136 64.536099 
L 371.50848 70.641979 
L 371.8656 72.248881 
L 372.22272 77.82374 
L 372.93696 63.904754 
L 373.29408 63.353841 
L 373.6512 69.802204 
L 374.00832 74.129077 
L 374.36544 71.617536 
L 374.72256 75.735978 
L 375.07968 65.656087 
L 375.79392 75.915004 
L 376.15104 77.959522 
L 376.50816 65.682032 
L 377.2224 74.875447 
L 377.57952 74.804529 
L 377.93664 65.481386 
L 378.29376 69.352479 
L 378.65088 64.263669 
L 379.36512 72.869847 
L 379.72224 64.632098 
L 380.07936 65.480521 
L 380.43648 67.351204 
L 380.7936 72.388122 
L 381.15072 64.088103 
L 381.50784 64.113184 
L 381.86496 75.741168 
L 382.22208 63.519893 
L 382.5792 61.001434 
L 382.93632 62.72855 
L 383.29344 67.546661 
L 383.65056 62.613525 
L 384.00768 60.207496 
L 384.3648 70.707708 
L 385.07904 66.757913 
L 385.43616 70.563277 
L 385.79328 70.625547 
L 386.1504 65.283334 
L 386.50752 73.670703 
L 386.86464 74.547667 
L 387.22176 74.911771 
L 387.57888 61.426078 
L 387.936 60.373549 
L 388.29312 63.624541 
L 388.65024 64.400316 
L 389.00736 59.522531 
L 389.36448 73.05925 
L 389.7216 60.492034 
L 390.07872 61.734831 
L 390.43584 58.365354 
L 390.79296 68.906214 
L 391.15008 60.33636 
L 391.5072 66.217378 
L 391.86432 69.367182 
L 392.22144 59.403181 
L 392.57856 66.74321 
L 392.93568 58.724269 
L 393.2928 60.022417 
L 393.64992 70.145552 
L 394.00704 66.935208 
L 394.36416 70.780356 
L 394.72128 73.088656 
L 395.0784 69.424262 
L 395.43552 61.939802 
L 395.79264 73.594596 
L 396.14976 67.730875 
L 396.50688 59.500909 
L 396.864 71.871804 
L 397.22112 70.279605 
L 397.57824 71.740346 
L 397.93536 61.686399 
L 398.29248 66.38689 
L 398.6496 64.874257 
L 399.00672 65.327441 
L 399.72096 61.425213 
L 400.07808 68.119195 
L 400.4352 65.66387 
L 400.79232 69.04805 
L 401.14944 67.263853 
L 401.50656 58.015952 
L 401.86368 56.193702 
L 402.2208 70.707708 
L 402.57792 62.226934 
L 402.93504 63.441191 
L 403.29216 71.695373 
L 403.64928 62.209637 
L 404.0064 59.55799 
L 404.36352 61.349106 
L 404.72064 71.626185 
L 405.07776 56.310457 
L 405.43488 58.508055 
L 405.792 68.186654 
L 406.14912 65.617168 
L 406.50624 62.029747 
L 406.86336 56.135756 
L 407.22048 59.439505 
L 407.5776 56.032838 
L 407.93472 68.953781 
L 408.29184 60.171172 
L 408.64896 60.647708 
L 409.00608 67.948819 
L 409.3632 62.739794 
L 409.72032 53.755674 
L 410.07744 55.199982 
L 410.43456 58.208815 
L 410.79168 58.380056 
L 411.50592 53.568 
L 411.86304 56.632183 
L 412.22016 56.667642 
L 412.57728 67.452392 
L 412.9344 56.568184 
L 413.29152 69.747718 
L 413.64864 59.096157 
L 414.00576 63.363354 
L 414.36288 54.937931 
L 414.72 56.356294 
L 414.72 56.356294 
" style="fill:none;stroke:#000080;stroke-linecap:square;stroke-width:0.5;"/>
   </g>
   <g id="patch_3">
    <path d="M 57.6 307.584 
L 57.6 41.472 
" style="fill:none;stroke:#000000;stroke-linecap:square;stroke-linejoin:miter;stroke-width:0.8;"/>
   </g>
   <g id="patch_4">
    <path d="M 414.72 307.584 
L 414.72 41.472 
" style="fill:none;stroke:#000000;stroke-linecap:square;stroke-linejoin:miter;stroke-width:0.8;"/>
   </g>
   <g id="patch_5">
    <path d="M 57.6 307.584 
L 414.72 307.584 
" style="fill:none;stroke:#000000;stroke-linecap:square;stroke-linejoin:miter;stroke-width:0.8;"/>
   </g>
   <g id="patch_6">
    <path d="M 57.6 41.472 
L 414.72 41.472 
" style="fill:none;stroke:#000000;stroke-linecap:square;stroke-linejoin:miter;stroke-width:0.8;"/>
   </g>
   <g id="text_15">
    <!-- Test -->
    <defs>
     <path d="M -0.296875 72.90625 
L 61.375 72.90625 
L 61.375 64.59375 
L 35.5 64.59375 
L 35.5 0 
L 25.59375 0 
L 25.59375 64.59375 
L -0.296875 64.59375 
z
" id="DejaVuSans-54"/>
    </defs>
    <g transform="translate(223.341563 35.472)scale(0.12 -0.12)">
     <use xlink:href="#DejaVuSans-54"/>
     <use x="60.818359" xlink:href="#DejaVuSans-65"/>
     <use x="122.341797" xlink:href="#DejaVuSans-73"/>
     <use x="174.441406" xlink:href="#DejaVuSans-74"/>
    </g>
   </g>
   <g id="legend_1">
    <g id="patch_7">
     <path d="M 64.6 64.150125 
L 306.276563 64.150125 
Q 308.276563 64.150125 308.276563 62.150125 
L 308.276563 48.472 
Q 308.276563 46.472 306.276563 46.472 
L 64.6 46.472 
Q 62.6 46.472 62.6 48.472 
L 62.6 62.150125 
Q 62.6 64.150125 64.6 64.150125 
z
" style="fill:#ffffff;opacity:0.8;stroke:#cccccc;stroke-linejoin:miter;"/>
    </g>
    <g id="line2d_26">
     <path d="M 66.6 54.570438 
L 86.6 54.570438 
" style="fill:none;stroke:#000080;stroke-linecap:square;stroke-width:0.5;"/>
    </g>
    <g id="line2d_27"/>
    <g id="text_16">
     <!-- Successful download requests per second -->
     <g transform="translate(94.6 58.070438)scale(0.1 -0.1)">
      <use xlink:href="#DejaVuSans-53"/>
      <use x="63.476562" xlink:href="#DejaVuSans-75"/>
      <use x="126.855469" xlink:href="#DejaVuSans-63"/>
      <use x="181.835938" xlink:href="#DejaVuSans-63"/>
      <use x="236.816406" xlink:href="#DejaVuSans-65"/>
      <use x="298.339844" xlink:href="#DejaVuSans-73"/>
      <use x="350.439453" xlink:href="#DejaVuSans-73"/>
      <use x="402.539062" xlink:href="#DejaVuSans-66"/>
      <use x="437.744141" xlink:href="#DejaVuSans-75"/>
      <use x="501.123047" xlink:href="#DejaVuSans-6c"/>
      <use x="528.90625" xlink:href="#DejaVuSans-20"/>
      <use x="560.693359" xlink:href="#DejaVuSans-64"/>
      <use x="624.169922" xlink:href="#DejaVuSans-6f"/>
      <use x="685.351562" xlink:href="#DejaVuSans-77"/>
      <use x="767.138672" xlink:href="#DejaVuSans-6e"/>
      <use x="830.517578" xlink:href="#DejaVuSans-6c"/>
      <use x="858.300781" xlink:href="#DejaVuSans-6f"/>
      <use x="919.482422" xlink:href="#DejaVuSans-61"/>
      <use x="980.761719" xlink:href="#DejaVuSans-64"/>
      <use x="1044.238281" xlink:href="#DejaVuSans-20"/>
      <use x="1076.025391" xlink:href="#DejaVuSans-72"/>
      <use x="1117.107422" xlink:href="#DejaVuSans-65"/>
      <use x="1178.630859" xlink:href="#DejaVuSans-71"/>
      <use x="1242.107422" xlink:href="#DejaVuSans-75"/>
      <use x="1305.486328" xlink:href="#DejaVuSans-65"/>
      <use x="1367.009766" xlink:href="#DejaVuSans-73"/>
      <use x="1419.109375" xlink:href="#DejaVuSans-74"/>
      <use x="1458.318359" xlink:href="#DejaVuSans-73"/>
      <use x="1510.417969" xlink:href="#DejaVuSans-20"/>
      <use x="1542.205078" xlink:href="#DejaVuSans-70"/>
      <use x="1605.681641" xlink:href="#DejaVuSans-65"/>
      <use x="1667.205078" xlink:href="#DejaVuSans-72"/>
      <use x="1708.318359" xlink:href="#DejaVuSans-20"/>
      <use x="1740.105469" xlink:href="#DejaVuSans-73"/>
      <use x="1792.205078" xlink:href="#DejaVuSans-65"/>
      <use x="1853.728516" xlink:href="#DejaVuSans-63"/>
      <use x="1908.708984" xlink:href="#DejaVuSans-6f"/>
      <use x="1969.890625" xlink:href="#DejaVuSans-6e"/>
      <use x="2033.269531" xlink:href="#DejaVuSans-64"/>
     </g>
    </g>
   </g>
  </g>
 </g>
 <defs>
  <clipPath id="p54e4eca49d">
   <rect height="266.112" width="357.12" x="57.6" y="41.472"/>
  </clipPath>
 </defs>
</svg>
