<?xml version="1.0" encoding="utf-8" standalone="no"?>
<!DOCTYPE svg PUBLIC "-//W3C//DTD SVG 1.1//EN"
  "http://www.w3.org/Graphics/SVG/1.1/DTD/svg11.dtd">
<!-- Created with matplotlib (http://matplotlib.org/) -->
<svg height="345pt" version="1.1" viewBox="0 0 460 345" width="460pt" xmlns="http://www.w3.org/2000/svg" xmlns:xlink="http://www.w3.org/1999/xlink">
 <defs>
  <style type="text/css">
*{stroke-linecap:butt;stroke-linejoin:round;}
  </style>
 </defs>
 <g id="figure_1">
  <g id="patch_1">
   <path d="M 0 345.6 
L 460.8 345.6 
L 460.8 0 
L 0 0 
z
" style="fill:#ffffff;"/>
  </g>
  <g id="axes_1">
   <g id="patch_2">
    <path d="M 57.6 307.584 
L 414.72 307.584 
L 414.72 41.472 
L 57.6 41.472 
z
" style="fill:#ffffff;"/>
   </g>
   <g id="matplotlib.axis_1">
    <g id="xtick_1">
     <g id="line2d_1">
      <path clip-path="url(#p9a80890095)" d="M 57.6 307.584 
L 57.6 41.472 
" style="fill:none;stroke:#b0b0b0;stroke-linecap:square;stroke-width:0.8;"/>
     </g>
     <g id="line2d_2">
      <defs>
       <path d="M 0 0 
L 0 3.5 
" id="maac870a6c9" style="stroke:#000000;stroke-width:0.8;"/>
      </defs>
      <g>
       <use style="stroke:#000000;stroke-width:0.8;" x="57.6" xlink:href="#maac870a6c9" y="307.584"/>
      </g>
     </g>
     <g id="text_1">
      <!-- 0 -->
      <defs>
       <path d="M 31.78125 66.40625 
Q 24.171875 66.40625 20.328125 58.90625 
Q 16.5 51.421875 16.5 36.375 
Q 16.5 21.390625 20.328125 13.890625 
Q 24.171875 6.390625 31.78125 6.390625 
Q 39.453125 6.390625 43.28125 13.890625 
Q 47.125 21.390625 47.125 36.375 
Q 47.125 51.421875 43.28125 58.90625 
Q 39.453125 66.40625 31.78125 66.40625 
M 31.78125 74.21875 
Q 44.046875 74.21875 50.515625 64.515625 
Q 56.984375 54.828125 56.984375 36.375 
Q 56.984375 17.96875 50.515625 8.265625 
Q 44.046875 -1.421875 31.78125 -1.421875 
Q 19.53125 -1.421875 13.0625 8.265625 
Q 6.59375 17.96875 6.59375 36.375 
Q 6.59375 54.828125 13.0625 64.515625 
Q 19.53125 74.21875 31.78125 74.21875 
" id="DejaVuSans-30"/>
      </defs>
      <g transform="translate(54.41875 322.182437)scale(0.1 -0.1)">
       <use xlink:href="#DejaVuSans-30"/>
      </g>
     </g>
    </g>
    <g id="xtick_2">
     <g id="line2d_3">
      <path clip-path="url(#p9a80890095)" d="M 129.024 307.584 
L 129.024 41.472 
" style="fill:none;stroke:#b0b0b0;stroke-linecap:square;stroke-width:0.8;"/>
     </g>
     <g id="line2d_4">
      <g>
       <use style="stroke:#000000;stroke-width:0.8;" x="129.024" xlink:href="#maac870a6c9" y="307.584"/>
      </g>
     </g>
     <g id="text_2">
      <!-- 200 -->
      <defs>
       <path d="M 19.1875 8.296875 
L 53.609375 8.296875 
L 53.609375 0 
L 7.328125 0 
L 7.328125 8.296875 
Q 12.9375 14.109375 22.625 23.890625 
Q 32.328125 33.6875 34.8125 36.53125 
Q 39.546875 41.84375 41.421875 45.53125 
Q 43.3125 49.21875 43.3125 52.78125 
Q 43.3125 58.59375 39.234375 62.25 
Q 35.15625 65.921875 28.609375 65.921875 
Q 23.96875 65.921875 18.8125 64.3125 
Q 13.671875 62.703125 7.8125 59.421875 
L 7.8125 69.390625 
Q 13.765625 71.78125 18.9375 73 
Q 24.125 74.21875 28.421875 74.21875 
Q 39.75 74.21875 46.484375 68.546875 
Q 53.21875 62.890625 53.21875 53.421875 
Q 53.21875 48.921875 51.53125 44.890625 
Q 49.859375 40.875 45.40625 35.40625 
Q 44.1875 33.984375 37.640625 27.21875 
Q 31.109375 20.453125 19.1875 8.296875 
" id="DejaVuSans-32"/>
      </defs>
      <g transform="translate(119.48025 322.182437)scale(0.1 -0.1)">
       <use xlink:href="#DejaVuSans-32"/>
       <use x="63.623047" xlink:href="#DejaVuSans-30"/>
       <use x="127.246094" xlink:href="#DejaVuSans-30"/>
      </g>
     </g>
    </g>
    <g id="xtick_3">
     <g id="line2d_5">
      <path clip-path="url(#p9a80890095)" d="M 200.448 307.584 
L 200.448 41.472 
" style="fill:none;stroke:#b0b0b0;stroke-linecap:square;stroke-width:0.8;"/>
     </g>
     <g id="line2d_6">
      <g>
       <use style="stroke:#000000;stroke-width:0.8;" x="200.448" xlink:href="#maac870a6c9" y="307.584"/>
      </g>
     </g>
     <g id="text_3">
      <!-- 400 -->
      <defs>
       <path d="M 37.796875 64.3125 
L 12.890625 25.390625 
L 37.796875 25.390625 
z
M 35.203125 72.90625 
L 47.609375 72.90625 
L 47.609375 25.390625 
L 58.015625 25.390625 
L 58.015625 17.1875 
L 47.609375 17.1875 
L 47.609375 0 
L 37.796875 0 
L 37.796875 17.1875 
L 4.890625 17.1875 
L 4.890625 26.703125 
z
" id="DejaVuSans-34"/>
      </defs>
      <g transform="translate(190.90425 322.182437)scale(0.1 -0.1)">
       <use xlink:href="#DejaVuSans-34"/>
       <use x="63.623047" xlink:href="#DejaVuSans-30"/>
       <use x="127.246094" xlink:href="#DejaVuSans-30"/>
      </g>
     </g>
    </g>
    <g id="xtick_4">
     <g id="line2d_7">
      <path clip-path="url(#p9a80890095)" d="M 271.872 307.584 
L 271.872 41.472 
" style="fill:none;stroke:#b0b0b0;stroke-linecap:square;stroke-width:0.8;"/>
     </g>
     <g id="line2d_8">
      <g>
       <use style="stroke:#000000;stroke-width:0.8;" x="271.872" xlink:href="#maac870a6c9" y="307.584"/>
      </g>
     </g>
     <g id="text_4">
      <!-- 600 -->
      <defs>
       <path d="M 33.015625 40.375 
Q 26.375 40.375 22.484375 35.828125 
Q 18.609375 31.296875 18.609375 23.390625 
Q 18.609375 15.53125 22.484375 10.953125 
Q 26.375 6.390625 33.015625 6.390625 
Q 39.65625 6.390625 43.53125 10.953125 
Q 47.40625 15.53125 47.40625 23.390625 
Q 47.40625 31.296875 43.53125 35.828125 
Q 39.65625 40.375 33.015625 40.375 
M 52.59375 71.296875 
L 52.59375 62.3125 
Q 48.875 64.0625 45.09375 64.984375 
Q 41.3125 65.921875 37.59375 65.921875 
Q 27.828125 65.921875 22.671875 59.328125 
Q 17.53125 52.734375 16.796875 39.40625 
Q 19.671875 43.65625 24.015625 45.921875 
Q 28.375 48.1875 33.59375 48.1875 
Q 44.578125 48.1875 50.953125 41.515625 
Q 57.328125 34.859375 57.328125 23.390625 
Q 57.328125 12.15625 50.6875 5.359375 
Q 44.046875 -1.421875 33.015625 -1.421875 
Q 20.359375 -1.421875 13.671875 8.265625 
Q 6.984375 17.96875 6.984375 36.375 
Q 6.984375 53.65625 15.1875 63.9375 
Q 23.390625 74.21875 37.203125 74.21875 
Q 40.921875 74.21875 44.703125 73.484375 
Q 48.484375 72.75 52.59375 71.296875 
" id="DejaVuSans-36"/>
      </defs>
      <g transform="translate(262.32825 322.182437)scale(0.1 -0.1)">
       <use xlink:href="#DejaVuSans-36"/>
       <use x="63.623047" xlink:href="#DejaVuSans-30"/>
       <use x="127.246094" xlink:href="#DejaVuSans-30"/>
      </g>
     </g>
    </g>
    <g id="xtick_5">
     <g id="line2d_9">
      <path clip-path="url(#p9a80890095)" d="M 343.296 307.584 
L 343.296 41.472 
" style="fill:none;stroke:#b0b0b0;stroke-linecap:square;stroke-width:0.8;"/>
     </g>
     <g id="line2d_10">
      <g>
       <use style="stroke:#000000;stroke-width:0.8;" x="343.296" xlink:href="#maac870a6c9" y="307.584"/>
      </g>
     </g>
     <g id="text_5">
      <!-- 800 -->
      <defs>
       <path d="M 31.78125 34.625 
Q 24.75 34.625 20.71875 30.859375 
Q 16.703125 27.09375 16.703125 20.515625 
Q 16.703125 13.921875 20.71875 10.15625 
Q 24.75 6.390625 31.78125 6.390625 
Q 38.8125 6.390625 42.859375 10.171875 
Q 46.921875 13.96875 46.921875 20.515625 
Q 46.921875 27.09375 42.890625 30.859375 
Q 38.875 34.625 31.78125 34.625 
M 21.921875 38.8125 
Q 15.578125 40.375 12.03125 44.71875 
Q 8.5 49.078125 8.5 55.328125 
Q 8.5 64.0625 14.71875 69.140625 
Q 20.953125 74.21875 31.78125 74.21875 
Q 42.671875 74.21875 48.875 69.140625 
Q 55.078125 64.0625 55.078125 55.328125 
Q 55.078125 49.078125 51.53125 44.71875 
Q 48 40.375 41.703125 38.8125 
Q 48.828125 37.15625 52.796875 32.3125 
Q 56.78125 27.484375 56.78125 20.515625 
Q 56.78125 9.90625 50.3125 4.234375 
Q 43.84375 -1.421875 31.78125 -1.421875 
Q 19.734375 -1.421875 13.25 4.234375 
Q 6.78125 9.90625 6.78125 20.515625 
Q 6.78125 27.484375 10.78125 32.3125 
Q 14.796875 37.15625 21.921875 38.8125 
M 18.3125 54.390625 
Q 18.3125 48.734375 21.84375 45.5625 
Q 25.390625 42.390625 31.78125 42.390625 
Q 38.140625 42.390625 41.71875 45.5625 
Q 45.3125 48.734375 45.3125 54.390625 
Q 45.3125 60.0625 41.71875 63.234375 
Q 38.140625 66.40625 31.78125 66.40625 
Q 25.390625 66.40625 21.84375 63.234375 
Q 18.3125 60.0625 18.3125 54.390625 
" id="DejaVuSans-38"/>
      </defs>
      <g transform="translate(333.75225 322.182437)scale(0.1 -0.1)">
       <use xlink:href="#DejaVuSans-38"/>
       <use x="63.623047" xlink:href="#DejaVuSans-30"/>
       <use x="127.246094" xlink:href="#DejaVuSans-30"/>
      </g>
     </g>
    </g>
    <g id="xtick_6">
     <g id="line2d_11">
      <path clip-path="url(#p9a80890095)" d="M 414.72 307.584 
L 414.72 41.472 
" style="fill:none;stroke:#b0b0b0;stroke-linecap:square;stroke-width:0.8;"/>
     </g>
     <g id="line2d_12">
      <g>
       <use style="stroke:#000000;stroke-width:0.8;" x="414.72" xlink:href="#maac870a6c9" y="307.584"/>
      </g>
     </g>
     <g id="text_6">
      <!-- 1000 -->
      <defs>
       <path d="M 12.40625 8.296875 
L 28.515625 8.296875 
L 28.515625 63.921875 
L 10.984375 60.40625 
L 10.984375 69.390625 
L 28.421875 72.90625 
L 38.28125 72.90625 
L 38.28125 8.296875 
L 54.390625 8.296875 
L 54.390625 0 
L 12.40625 0 
z
" id="DejaVuSans-31"/>
      </defs>
      <g transform="translate(401.995 322.182437)scale(0.1 -0.1)">
       <use xlink:href="#DejaVuSans-31"/>
       <use x="63.623047" xlink:href="#DejaVuSans-30"/>
       <use x="127.246094" xlink:href="#DejaVuSans-30"/>
       <use x="190.869141" xlink:href="#DejaVuSans-30"/>
      </g>
     </g>
    </g>
    <g id="text_7">
     <!-- Number of clients -->
     <defs>
      <path d="M 9.8125 72.90625 
L 23.09375 72.90625 
L 55.421875 11.921875 
L 55.421875 72.90625 
L 64.984375 72.90625 
L 64.984375 0 
L 51.703125 0 
L 19.390625 60.984375 
L 19.390625 0 
L 9.8125 0 
z
" id="DejaVuSans-4e"/>
      <path d="M 8.5 21.578125 
L 8.5 54.6875 
L 17.484375 54.6875 
L 17.484375 21.921875 
Q 17.484375 14.15625 20.5 10.265625 
Q 23.53125 6.390625 29.59375 6.390625 
Q 36.859375 6.390625 41.078125 11.03125 
Q 45.3125 15.671875 45.3125 23.6875 
L 45.3125 54.6875 
L 54.296875 54.6875 
L 54.296875 0 
L 45.3125 0 
L 45.3125 8.40625 
Q 42.046875 3.421875 37.71875 1 
Q 33.40625 -1.421875 27.6875 -1.421875 
Q 18.265625 -1.421875 13.375 4.4375 
Q 8.5 10.296875 8.5 21.578125 
M 31.109375 56 
z
" id="DejaVuSans-75"/>
      <path d="M 52 44.1875 
Q 55.375 50.25 60.0625 53.125 
Q 64.75 56 71.09375 56 
Q 79.640625 56 84.28125 50.015625 
Q 88.921875 44.046875 88.921875 33.015625 
L 88.921875 0 
L 79.890625 0 
L 79.890625 32.71875 
Q 79.890625 40.578125 77.09375 44.375 
Q 74.3125 48.1875 68.609375 48.1875 
Q 61.625 48.1875 57.5625 43.546875 
Q 53.515625 38.921875 53.515625 30.90625 
L 53.515625 0 
L 44.484375 0 
L 44.484375 32.71875 
Q 44.484375 40.625 41.703125 44.40625 
Q 38.921875 48.1875 33.109375 48.1875 
Q 26.21875 48.1875 22.15625 43.53125 
Q 18.109375 38.875 18.109375 30.90625 
L 18.109375 0 
L 9.078125 0 
L 9.078125 54.6875 
L 18.109375 54.6875 
L 18.109375 46.1875 
Q 21.1875 51.21875 25.484375 53.609375 
Q 29.78125 56 35.6875 56 
Q 41.65625 56 45.828125 52.96875 
Q 50 49.953125 52 44.1875 
" id="DejaVuSans-6d"/>
      <path d="M 48.6875 27.296875 
Q 48.6875 37.203125 44.609375 42.84375 
Q 40.53125 48.484375 33.40625 48.484375 
Q 26.265625 48.484375 22.1875 42.84375 
Q 18.109375 37.203125 18.109375 27.296875 
Q 18.109375 17.390625 22.1875 11.75 
Q 26.265625 6.109375 33.40625 6.109375 
Q 40.53125 6.109375 44.609375 11.75 
Q 48.6875 17.390625 48.6875 27.296875 
M 18.109375 46.390625 
Q 20.953125 51.265625 25.265625 53.625 
Q 29.59375 56 35.59375 56 
Q 45.5625 56 51.78125 48.09375 
Q 58.015625 40.1875 58.015625 27.296875 
Q 58.015625 14.40625 51.78125 6.484375 
Q 45.5625 -1.421875 35.59375 -1.421875 
Q 29.59375 -1.421875 25.265625 0.953125 
Q 20.953125 3.328125 18.109375 8.203125 
L 18.109375 0 
L 9.078125 0 
L 9.078125 75.984375 
L 18.109375 75.984375 
z
" id="DejaVuSans-62"/>
      <path d="M 56.203125 29.59375 
L 56.203125 25.203125 
L 14.890625 25.203125 
Q 15.484375 15.921875 20.484375 11.0625 
Q 25.484375 6.203125 34.421875 6.203125 
Q 39.59375 6.203125 44.453125 7.46875 
Q 49.3125 8.734375 54.109375 11.28125 
L 54.109375 2.78125 
Q 49.265625 0.734375 44.1875 -0.34375 
Q 39.109375 -1.421875 33.890625 -1.421875 
Q 20.796875 -1.421875 13.15625 6.1875 
Q 5.515625 13.8125 5.515625 26.8125 
Q 5.515625 40.234375 12.765625 48.109375 
Q 20.015625 56 32.328125 56 
Q 43.359375 56 49.78125 48.890625 
Q 56.203125 41.796875 56.203125 29.59375 
M 47.21875 32.234375 
Q 47.125 39.59375 43.09375 43.984375 
Q 39.0625 48.390625 32.421875 48.390625 
Q 24.90625 48.390625 20.390625 44.140625 
Q 15.875 39.890625 15.1875 32.171875 
z
" id="DejaVuSans-65"/>
      <path d="M 41.109375 46.296875 
Q 39.59375 47.171875 37.8125 47.578125 
Q 36.03125 48 33.890625 48 
Q 26.265625 48 22.1875 43.046875 
Q 18.109375 38.09375 18.109375 28.8125 
L 18.109375 0 
L 9.078125 0 
L 9.078125 54.6875 
L 18.109375 54.6875 
L 18.109375 46.1875 
Q 20.953125 51.171875 25.484375 53.578125 
Q 30.03125 56 36.53125 56 
Q 37.453125 56 38.578125 55.875 
Q 39.703125 55.765625 41.0625 55.515625 
z
" id="DejaVuSans-72"/>
      <path id="DejaVuSans-20"/>
      <path d="M 30.609375 48.390625 
Q 23.390625 48.390625 19.1875 42.75 
Q 14.984375 37.109375 14.984375 27.296875 
Q 14.984375 17.484375 19.15625 11.84375 
Q 23.34375 6.203125 30.609375 6.203125 
Q 37.796875 6.203125 41.984375 11.859375 
Q 46.1875 17.53125 46.1875 27.296875 
Q 46.1875 37.015625 41.984375 42.703125 
Q 37.796875 48.390625 30.609375 48.390625 
M 30.609375 56 
Q 42.328125 56 49.015625 48.375 
Q 55.71875 40.765625 55.71875 27.296875 
Q 55.71875 13.875 49.015625 6.21875 
Q 42.328125 -1.421875 30.609375 -1.421875 
Q 18.84375 -1.421875 12.171875 6.21875 
Q 5.515625 13.875 5.515625 27.296875 
Q 5.515625 40.765625 12.171875 48.375 
Q 18.84375 56 30.609375 56 
" id="DejaVuSans-6f"/>
      <path d="M 37.109375 75.984375 
L 37.109375 68.5 
L 28.515625 68.5 
Q 23.6875 68.5 21.796875 66.546875 
Q 19.921875 64.59375 19.921875 59.515625 
L 19.921875 54.6875 
L 34.71875 54.6875 
L 34.71875 47.703125 
L 19.921875 47.703125 
L 19.921875 0 
L 10.890625 0 
L 10.890625 47.703125 
L 2.296875 47.703125 
L 2.296875 54.6875 
L 10.890625 54.6875 
L 10.890625 58.5 
Q 10.890625 67.625 15.140625 71.796875 
Q 19.390625 75.984375 28.609375 75.984375 
z
" id="DejaVuSans-66"/>
      <path d="M 48.78125 52.59375 
L 48.78125 44.1875 
Q 44.96875 46.296875 41.140625 47.34375 
Q 37.3125 48.390625 33.40625 48.390625 
Q 24.65625 48.390625 19.8125 42.84375 
Q 14.984375 37.3125 14.984375 27.296875 
Q 14.984375 17.28125 19.8125 11.734375 
Q 24.65625 6.203125 33.40625 6.203125 
Q 37.3125 6.203125 41.140625 7.25 
Q 44.96875 8.296875 48.78125 10.40625 
L 48.78125 2.09375 
Q 45.015625 0.34375 40.984375 -0.53125 
Q 36.96875 -1.421875 32.421875 -1.421875 
Q 20.0625 -1.421875 12.78125 6.34375 
Q 5.515625 14.109375 5.515625 27.296875 
Q 5.515625 40.671875 12.859375 48.328125 
Q 20.21875 56 33.015625 56 
Q 37.15625 56 41.109375 55.140625 
Q 45.0625 54.296875 48.78125 52.59375 
" id="DejaVuSans-63"/>
      <path d="M 9.421875 75.984375 
L 18.40625 75.984375 
L 18.40625 0 
L 9.421875 0 
z
" id="DejaVuSans-6c"/>
      <path d="M 9.421875 54.6875 
L 18.40625 54.6875 
L 18.40625 0 
L 9.421875 0 
z
M 9.421875 75.984375 
L 18.40625 75.984375 
L 18.40625 64.59375 
L 9.421875 64.59375 
z
" id="DejaVuSans-69"/>
      <path d="M 54.890625 33.015625 
L 54.890625 0 
L 45.90625 0 
L 45.90625 32.71875 
Q 45.90625 40.484375 42.875 44.328125 
Q 39.84375 48.1875 33.796875 48.1875 
Q 26.515625 48.1875 22.3125 43.546875 
Q 18.109375 38.921875 18.109375 30.90625 
L 18.109375 0 
L 9.078125 0 
L 9.078125 54.6875 
L 18.109375 54.6875 
L 18.109375 46.1875 
Q 21.34375 51.125 25.703125 53.5625 
Q 30.078125 56 35.796875 56 
Q 45.21875 56 50.046875 50.171875 
Q 54.890625 44.34375 54.890625 33.015625 
" id="DejaVuSans-6e"/>
      <path d="M 18.3125 70.21875 
L 18.3125 54.6875 
L 36.8125 54.6875 
L 36.8125 47.703125 
L 18.3125 47.703125 
L 18.3125 18.015625 
Q 18.3125 11.328125 20.140625 9.421875 
Q 21.96875 7.515625 27.59375 7.515625 
L 36.8125 7.515625 
L 36.8125 0 
L 27.59375 0 
Q 17.1875 0 13.234375 3.875 
Q 9.28125 7.765625 9.28125 18.015625 
L 9.28125 47.703125 
L 2.6875 47.703125 
L 2.6875 54.6875 
L 9.28125 54.6875 
L 9.28125 70.21875 
z
" id="DejaVuSans-74"/>
      <path d="M 44.28125 53.078125 
L 44.28125 44.578125 
Q 40.484375 46.53125 36.375 47.5 
Q 32.28125 48.484375 27.875 48.484375 
Q 21.1875 48.484375 17.84375 46.4375 
Q 14.5 44.390625 14.5 40.28125 
Q 14.5 37.15625 16.890625 35.375 
Q 19.28125 33.59375 26.515625 31.984375 
L 29.59375 31.296875 
Q 39.15625 29.25 43.1875 25.515625 
Q 47.21875 21.78125 47.21875 15.09375 
Q 47.21875 7.46875 41.1875 3.015625 
Q 35.15625 -1.421875 24.609375 -1.421875 
Q 20.21875 -1.421875 15.453125 -0.5625 
Q 10.6875 0.296875 5.421875 2 
L 5.421875 11.28125 
Q 10.40625 8.6875 15.234375 7.390625 
Q 20.0625 6.109375 24.8125 6.109375 
Q 31.15625 6.109375 34.5625 8.28125 
Q 37.984375 10.453125 37.984375 14.40625 
Q 37.984375 18.0625 35.515625 20.015625 
Q 33.0625 21.96875 24.703125 23.78125 
L 21.578125 24.515625 
Q 13.234375 26.265625 9.515625 29.90625 
Q 5.8125 33.546875 5.8125 39.890625 
Q 5.8125 47.609375 11.28125 51.796875 
Q 16.75 56 26.8125 56 
Q 31.78125 56 36.171875 55.265625 
Q 40.578125 54.546875 44.28125 53.078125 
" id="DejaVuSans-73"/>
     </defs>
     <g transform="translate(191.738906 335.860562)scale(0.1 -0.1)">
      <use xlink:href="#DejaVuSans-4e"/>
      <use x="74.804688" xlink:href="#DejaVuSans-75"/>
      <use x="138.183594" xlink:href="#DejaVuSans-6d"/>
      <use x="235.595703" xlink:href="#DejaVuSans-62"/>
      <use x="299.072266" xlink:href="#DejaVuSans-65"/>
      <use x="360.595703" xlink:href="#DejaVuSans-72"/>
      <use x="401.708984" xlink:href="#DejaVuSans-20"/>
      <use x="433.496094" xlink:href="#DejaVuSans-6f"/>
      <use x="494.677734" xlink:href="#DejaVuSans-66"/>
      <use x="529.882812" xlink:href="#DejaVuSans-20"/>
      <use x="561.669922" xlink:href="#DejaVuSans-63"/>
      <use x="616.650391" xlink:href="#DejaVuSans-6c"/>
      <use x="644.433594" xlink:href="#DejaVuSans-69"/>
      <use x="672.216797" xlink:href="#DejaVuSans-65"/>
      <use x="733.740234" xlink:href="#DejaVuSans-6e"/>
      <use x="797.119141" xlink:href="#DejaVuSans-74"/>
      <use x="836.328125" xlink:href="#DejaVuSans-73"/>
     </g>
    </g>
   </g>
   <g id="matplotlib.axis_2">
    <g id="ytick_1">
     <g id="line2d_13">
      <path clip-path="url(#p9a80890095)" d="M 57.6 296.150123 
L 414.72 296.150123 
" style="fill:none;stroke:#b0b0b0;stroke-linecap:square;stroke-width:0.8;"/>
     </g>
     <g id="line2d_14">
      <defs>
       <path d="M 0 0 
L -3.5 0 
" id="mb032fb0f6b" style="stroke:#000000;stroke-width:0.8;"/>
      </defs>
      <g>
       <use style="stroke:#000000;stroke-width:0.8;" x="57.6" xlink:href="#mb032fb0f6b" y="296.150123"/>
      </g>
     </g>
     <g id="text_8">
      <!-- 0 -->
      <g transform="translate(44.2375 299.949342)scale(0.1 -0.1)">
       <use xlink:href="#DejaVuSans-30"/>
      </g>
     </g>
    </g>
    <g id="ytick_2">
     <g id="line2d_15">
      <path clip-path="url(#p9a80890095)" d="M 57.6 262.573906 
L 414.72 262.573906 
" style="fill:none;stroke:#b0b0b0;stroke-linecap:square;stroke-width:0.8;"/>
     </g>
     <g id="line2d_16">
      <g>
       <use style="stroke:#000000;stroke-width:0.8;" x="57.6" xlink:href="#mb032fb0f6b" y="262.573906"/>
      </g>
     </g>
     <g id="text_9">
      <!-- 50 -->
      <defs>
       <path d="M 10.796875 72.90625 
L 49.515625 72.90625 
L 49.515625 64.59375 
L 19.828125 64.59375 
L 19.828125 46.734375 
Q 21.96875 47.46875 24.109375 47.828125 
Q 26.265625 48.1875 28.421875 48.1875 
Q 40.625 48.1875 47.75 41.5 
Q 54.890625 34.8125 54.890625 23.390625 
Q 54.890625 11.625 47.5625 5.09375 
Q 40.234375 -1.421875 26.90625 -1.421875 
Q 22.3125 -1.421875 17.546875 -0.640625 
Q 12.796875 0.140625 7.71875 1.703125 
L 7.71875 11.625 
Q 12.109375 9.234375 16.796875 8.0625 
Q 21.484375 6.890625 26.703125 6.890625 
Q 35.15625 6.890625 40.078125 11.328125 
Q 45.015625 15.765625 45.015625 23.390625 
Q 45.015625 31 40.078125 35.4375 
Q 35.15625 39.890625 26.703125 39.890625 
Q 22.75 39.890625 18.8125 39.015625 
Q 14.890625 38.140625 10.796875 36.28125 
z
" id="DejaVuSans-35"/>
      </defs>
      <g transform="translate(37.875 266.373125)scale(0.1 -0.1)">
       <use xlink:href="#DejaVuSans-35"/>
       <use x="63.623047" xlink:href="#DejaVuSans-30"/>
      </g>
     </g>
    </g>
    <g id="ytick_3">
     <g id="line2d_17">
      <path clip-path="url(#p9a80890095)" d="M 57.6 228.997689 
L 414.72 228.997689 
" style="fill:none;stroke:#b0b0b0;stroke-linecap:square;stroke-width:0.8;"/>
     </g>
     <g id="line2d_18">
      <g>
       <use style="stroke:#000000;stroke-width:0.8;" x="57.6" xlink:href="#mb032fb0f6b" y="228.997689"/>
      </g>
     </g>
     <g id="text_10">
      <!-- 100 -->
      <g transform="translate(31.5125 232.796908)scale(0.1 -0.1)">
       <use xlink:href="#DejaVuSans-31"/>
       <use x="63.623047" xlink:href="#DejaVuSans-30"/>
       <use x="127.246094" xlink:href="#DejaVuSans-30"/>
      </g>
     </g>
    </g>
    <g id="ytick_4">
     <g id="line2d_19">
      <path clip-path="url(#p9a80890095)" d="M 57.6 195.421472 
L 414.72 195.421472 
" style="fill:none;stroke:#b0b0b0;stroke-linecap:square;stroke-width:0.8;"/>
     </g>
     <g id="line2d_20">
      <g>
       <use style="stroke:#000000;stroke-width:0.8;" x="57.6" xlink:href="#mb032fb0f6b" y="195.421472"/>
      </g>
     </g>
     <g id="text_11">
      <!-- 150 -->
      <g transform="translate(31.5125 199.220691)scale(0.1 -0.1)">
       <use xlink:href="#DejaVuSans-31"/>
       <use x="63.623047" xlink:href="#DejaVuSans-35"/>
       <use x="127.246094" xlink:href="#DejaVuSans-30"/>
      </g>
     </g>
    </g>
    <g id="ytick_5">
     <g id="line2d_21">
      <path clip-path="url(#p9a80890095)" d="M 57.6 161.845256 
L 414.72 161.845256 
" style="fill:none;stroke:#b0b0b0;stroke-linecap:square;stroke-width:0.8;"/>
     </g>
     <g id="line2d_22">
      <g>
       <use style="stroke:#000000;stroke-width:0.8;" x="57.6" xlink:href="#mb032fb0f6b" y="161.845256"/>
      </g>
     </g>
     <g id="text_12">
      <!-- 200 -->
      <g transform="translate(31.5125 165.644474)scale(0.1 -0.1)">
       <use xlink:href="#DejaVuSans-32"/>
       <use x="63.623047" xlink:href="#DejaVuSans-30"/>
       <use x="127.246094" xlink:href="#DejaVuSans-30"/>
      </g>
     </g>
    </g>
    <g id="ytick_6">
     <g id="line2d_23">
      <path clip-path="url(#p9a80890095)" d="M 57.6 128.269039 
L 414.72 128.269039 
" style="fill:none;stroke:#b0b0b0;stroke-linecap:square;stroke-width:0.8;"/>
     </g>
     <g id="line2d_24">
      <g>
       <use style="stroke:#000000;stroke-width:0.8;" x="57.6" xlink:href="#mb032fb0f6b" y="128.269039"/>
      </g>
     </g>
     <g id="text_13">
      <!-- 250 -->
      <g transform="translate(31.5125 132.068258)scale(0.1 -0.1)">
       <use xlink:href="#DejaVuSans-32"/>
       <use x="63.623047" xlink:href="#DejaVuSans-35"/>
       <use x="127.246094" xlink:href="#DejaVuSans-30"/>
      </g>
     </g>
    </g>
    <g id="ytick_7">
     <g id="line2d_25">
      <path clip-path="url(#p9a80890095)" d="M 57.6 94.692822 
L 414.72 94.692822 
" style="fill:none;stroke:#b0b0b0;stroke-linecap:square;stroke-width:0.8;"/>
     </g>
     <g id="line2d_26">
      <g>
       <use style="stroke:#000000;stroke-width:0.8;" x="57.6" xlink:href="#mb032fb0f6b" y="94.692822"/>
      </g>
     </g>
     <g id="text_14">
      <!-- 300 -->
      <defs>
       <path d="M 40.578125 39.3125 
Q 47.65625 37.796875 51.625 33 
Q 55.609375 28.21875 55.609375 21.1875 
Q 55.609375 10.40625 48.1875 4.484375 
Q 40.765625 -1.421875 27.09375 -1.421875 
Q 22.515625 -1.421875 17.65625 -0.515625 
Q 12.796875 0.390625 7.625 2.203125 
L 7.625 11.71875 
Q 11.71875 9.328125 16.59375 8.109375 
Q 21.484375 6.890625 26.8125 6.890625 
Q 36.078125 6.890625 40.9375 10.546875 
Q 45.796875 14.203125 45.796875 21.1875 
Q 45.796875 27.640625 41.28125 31.265625 
Q 36.765625 34.90625 28.71875 34.90625 
L 20.21875 34.90625 
L 20.21875 43.015625 
L 29.109375 43.015625 
Q 36.375 43.015625 40.234375 45.921875 
Q 44.09375 48.828125 44.09375 54.296875 
Q 44.09375 59.90625 40.109375 62.90625 
Q 36.140625 65.921875 28.71875 65.921875 
Q 24.65625 65.921875 20.015625 65.03125 
Q 15.375 64.15625 9.8125 62.3125 
L 9.8125 71.09375 
Q 15.4375 72.65625 20.34375 73.4375 
Q 25.25 74.21875 29.59375 74.21875 
Q 40.828125 74.21875 47.359375 69.109375 
Q 53.90625 64.015625 53.90625 55.328125 
Q 53.90625 49.265625 50.4375 45.09375 
Q 46.96875 40.921875 40.578125 39.3125 
" id="DejaVuSans-33"/>
      </defs>
      <g transform="translate(31.5125 98.492041)scale(0.1 -0.1)">
       <use xlink:href="#DejaVuSans-33"/>
       <use x="63.623047" xlink:href="#DejaVuSans-30"/>
       <use x="127.246094" xlink:href="#DejaVuSans-30"/>
      </g>
     </g>
    </g>
    <g id="ytick_8">
     <g id="line2d_27">
      <path clip-path="url(#p9a80890095)" d="M 57.6 61.116605 
L 414.72 61.116605 
" style="fill:none;stroke:#b0b0b0;stroke-linecap:square;stroke-width:0.8;"/>
     </g>
     <g id="line2d_28">
      <g>
       <use style="stroke:#000000;stroke-width:0.8;" x="57.6" xlink:href="#mb032fb0f6b" y="61.116605"/>
      </g>
     </g>
     <g id="text_15">
      <!-- 350 -->
      <g transform="translate(31.5125 64.915824)scale(0.1 -0.1)">
       <use xlink:href="#DejaVuSans-33"/>
       <use x="63.623047" xlink:href="#DejaVuSans-35"/>
       <use x="127.246094" xlink:href="#DejaVuSans-30"/>
      </g>
     </g>
    </g>
    <g id="text_16">
     <!-- Successful download requests per second -->
     <defs>
      <path d="M 53.515625 70.515625 
L 53.515625 60.890625 
Q 47.90625 63.578125 42.921875 64.890625 
Q 37.9375 66.21875 33.296875 66.21875 
Q 25.25 66.21875 20.875 63.09375 
Q 16.5 59.96875 16.5 54.203125 
Q 16.5 49.359375 19.40625 46.890625 
Q 22.3125 44.4375 30.421875 42.921875 
L 36.375 41.703125 
Q 47.40625 39.59375 52.65625 34.296875 
Q 57.90625 29 57.90625 20.125 
Q 57.90625 9.515625 50.796875 4.046875 
Q 43.703125 -1.421875 29.984375 -1.421875 
Q 24.8125 -1.421875 18.96875 -0.25 
Q 13.140625 0.921875 6.890625 3.21875 
L 6.890625 13.375 
Q 12.890625 10.015625 18.65625 8.296875 
Q 24.421875 6.59375 29.984375 6.59375 
Q 38.421875 6.59375 43.015625 9.90625 
Q 47.609375 13.234375 47.609375 19.390625 
Q 47.609375 24.75 44.3125 27.78125 
Q 41.015625 30.8125 33.5 32.328125 
L 27.484375 33.5 
Q 16.453125 35.6875 11.515625 40.375 
Q 6.59375 45.0625 6.59375 53.421875 
Q 6.59375 63.09375 13.40625 68.65625 
Q 20.21875 74.21875 32.171875 74.21875 
Q 37.3125 74.21875 42.625 73.28125 
Q 47.953125 72.359375 53.515625 70.515625 
" id="DejaVuSans-53"/>
      <path d="M 45.40625 46.390625 
L 45.40625 75.984375 
L 54.390625 75.984375 
L 54.390625 0 
L 45.40625 0 
L 45.40625 8.203125 
Q 42.578125 3.328125 38.25 0.953125 
Q 33.9375 -1.421875 27.875 -1.421875 
Q 17.96875 -1.421875 11.734375 6.484375 
Q 5.515625 14.40625 5.515625 27.296875 
Q 5.515625 40.1875 11.734375 48.09375 
Q 17.96875 56 27.875 56 
Q 33.9375 56 38.25 53.625 
Q 42.578125 51.265625 45.40625 46.390625 
M 14.796875 27.296875 
Q 14.796875 17.390625 18.875 11.75 
Q 22.953125 6.109375 30.078125 6.109375 
Q 37.203125 6.109375 41.296875 11.75 
Q 45.40625 17.390625 45.40625 27.296875 
Q 45.40625 37.203125 41.296875 42.84375 
Q 37.203125 48.484375 30.078125 48.484375 
Q 22.953125 48.484375 18.875 42.84375 
Q 14.796875 37.203125 14.796875 27.296875 
" id="DejaVuSans-64"/>
      <path d="M 4.203125 54.6875 
L 13.1875 54.6875 
L 24.421875 12.015625 
L 35.59375 54.6875 
L 46.1875 54.6875 
L 57.421875 12.015625 
L 68.609375 54.6875 
L 77.59375 54.6875 
L 63.28125 0 
L 52.6875 0 
L 40.921875 44.828125 
L 29.109375 0 
L 18.5 0 
z
" id="DejaVuSans-77"/>
      <path d="M 34.28125 27.484375 
Q 23.390625 27.484375 19.1875 25 
Q 14.984375 22.515625 14.984375 16.5 
Q 14.984375 11.71875 18.140625 8.90625 
Q 21.296875 6.109375 26.703125 6.109375 
Q 34.1875 6.109375 38.703125 11.40625 
Q 43.21875 16.703125 43.21875 25.484375 
L 43.21875 27.484375 
z
M 52.203125 31.203125 
L 52.203125 0 
L 43.21875 0 
L 43.21875 8.296875 
Q 40.140625 3.328125 35.546875 0.953125 
Q 30.953125 -1.421875 24.3125 -1.421875 
Q 15.921875 -1.421875 10.953125 3.296875 
Q 6 8.015625 6 15.921875 
Q 6 25.140625 12.171875 29.828125 
Q 18.359375 34.515625 30.609375 34.515625 
L 43.21875 34.515625 
L 43.21875 35.40625 
Q 43.21875 41.609375 39.140625 45 
Q 35.0625 48.390625 27.6875 48.390625 
Q 23 48.390625 18.546875 47.265625 
Q 14.109375 46.140625 10.015625 43.890625 
L 10.015625 52.203125 
Q 14.9375 54.109375 19.578125 55.046875 
Q 24.21875 56 28.609375 56 
Q 40.484375 56 46.34375 49.84375 
Q 52.203125 43.703125 52.203125 31.203125 
" id="DejaVuSans-61"/>
      <path d="M 14.796875 27.296875 
Q 14.796875 17.390625 18.875 11.75 
Q 22.953125 6.109375 30.078125 6.109375 
Q 37.203125 6.109375 41.296875 11.75 
Q 45.40625 17.390625 45.40625 27.296875 
Q 45.40625 37.203125 41.296875 42.84375 
Q 37.203125 48.484375 30.078125 48.484375 
Q 22.953125 48.484375 18.875 42.84375 
Q 14.796875 37.203125 14.796875 27.296875 
M 45.40625 8.203125 
Q 42.578125 3.328125 38.25 0.953125 
Q 33.9375 -1.421875 27.875 -1.421875 
Q 17.96875 -1.421875 11.734375 6.484375 
Q 5.515625 14.40625 5.515625 27.296875 
Q 5.515625 40.1875 11.734375 48.09375 
Q 17.96875 56 27.875 56 
Q 33.9375 56 38.25 53.625 
Q 42.578125 51.265625 45.40625 46.390625 
L 45.40625 54.6875 
L 54.390625 54.6875 
L 54.390625 -20.796875 
L 45.40625 -20.796875 
z
" id="DejaVuSans-71"/>
      <path d="M 18.109375 8.203125 
L 18.109375 -20.796875 
L 9.078125 -20.796875 
L 9.078125 54.6875 
L 18.109375 54.6875 
L 18.109375 46.390625 
Q 20.953125 51.265625 25.265625 53.625 
Q 29.59375 56 35.59375 56 
Q 45.5625 56 51.78125 48.09375 
Q 58.015625 40.1875 58.015625 27.296875 
Q 58.015625 14.40625 51.78125 6.484375 
Q 45.5625 -1.421875 35.59375 -1.421875 
Q 29.59375 -1.421875 25.265625 0.953125 
Q 20.953125 3.328125 18.109375 8.203125 
M 48.6875 27.296875 
Q 48.6875 37.203125 44.609375 42.84375 
Q 40.53125 48.484375 33.40625 48.484375 
Q 26.265625 48.484375 22.1875 42.84375 
Q 18.109375 37.203125 18.109375 27.296875 
Q 18.109375 17.390625 22.1875 11.75 
Q 26.265625 6.109375 33.40625 6.109375 
Q 40.53125 6.109375 44.609375 11.75 
Q 48.6875 17.390625 48.6875 27.296875 
" id="DejaVuSans-70"/>
     </defs>
     <g transform="translate(25.432812 279.366281)rotate(-90)scale(0.1 -0.1)">
      <use xlink:href="#DejaVuSans-53"/>
      <use x="63.476562" xlink:href="#DejaVuSans-75"/>
      <use x="126.855469" xlink:href="#DejaVuSans-63"/>
      <use x="181.835938" xlink:href="#DejaVuSans-63"/>
      <use x="236.816406" xlink:href="#DejaVuSans-65"/>
      <use x="298.339844" xlink:href="#DejaVuSans-73"/>
      <use x="350.439453" xlink:href="#DejaVuSans-73"/>
      <use x="402.539062" xlink:href="#DejaVuSans-66"/>
      <use x="437.744141" xlink:href="#DejaVuSans-75"/>
      <use x="501.123047" xlink:href="#DejaVuSans-6c"/>
      <use x="528.90625" xlink:href="#DejaVuSans-20"/>
      <use x="560.693359" xlink:href="#DejaVuSans-64"/>
      <use x="624.169922" xlink:href="#DejaVuSans-6f"/>
      <use x="685.351562" xlink:href="#DejaVuSans-77"/>
      <use x="767.138672" xlink:href="#DejaVuSans-6e"/>
      <use x="830.517578" xlink:href="#DejaVuSans-6c"/>
      <use x="858.300781" xlink:href="#DejaVuSans-6f"/>
      <use x="919.482422" xlink:href="#DejaVuSans-61"/>
      <use x="980.761719" xlink:href="#DejaVuSans-64"/>
      <use x="1044.238281" xlink:href="#DejaVuSans-20"/>
      <use x="1076.025391" xlink:href="#DejaVuSans-72"/>
      <use x="1117.107422" xlink:href="#DejaVuSans-65"/>
      <use x="1178.630859" xlink:href="#DejaVuSans-71"/>
      <use x="1242.107422" xlink:href="#DejaVuSans-75"/>
      <use x="1305.486328" xlink:href="#DejaVuSans-65"/>
      <use x="1367.009766" xlink:href="#DejaVuSans-73"/>
      <use x="1419.109375" xlink:href="#DejaVuSans-74"/>
      <use x="1458.318359" xlink:href="#DejaVuSans-73"/>
      <use x="1510.417969" xlink:href="#DejaVuSans-20"/>
      <use x="1542.205078" xlink:href="#DejaVuSans-70"/>
      <use x="1605.681641" xlink:href="#DejaVuSans-65"/>
      <use x="1667.205078" xlink:href="#DejaVuSans-72"/>
      <use x="1708.318359" xlink:href="#DejaVuSans-20"/>
      <use x="1740.105469" xlink:href="#DejaVuSans-73"/>
      <use x="1792.205078" xlink:href="#DejaVuSans-65"/>
      <use x="1853.728516" xlink:href="#DejaVuSans-63"/>
      <use x="1908.708984" xlink:href="#DejaVuSans-6f"/>
      <use x="1969.890625" xlink:href="#DejaVuSans-6e"/>
      <use x="2033.269531" xlink:href="#DejaVuSans-64"/>
     </g>
    </g>
   </g>
   <g id="line2d_29">
    <path clip-path="url(#p9a80890095)" d="M 57.6 295.488 
L 57.95712 295.485985 
L 59.3856 292.808618 
L 59.74272 292.396302 
L 60.09984 291.520634 
L 61.52832 289.244167 
L 62.59968 286.95494 
L 62.9568 286.199475 
L 63.31392 286.130308 
L 63.67104 284.884631 
L 64.38528 283.791389 
L 64.7424 283.581874 
L 65.09952 282.0649 
L 65.81376 281.107306 
L 66.528 280.018094 
L 66.88512 279.119594 
L 67.24224 278.75227 
L 67.59936 277.806764 
L 67.95648 277.848399 
L 68.67072 276.418723 
L 69.38496 274.019367 
L 69.74208 274.269174 
L 70.45632 272.000765 
L 70.81344 272.728026 
L 71.17056 271.291635 
L 71.52768 270.424697 
L 71.8848 270.3421 
L 72.59904 268.753273 
L 73.31328 267.678834 
L 73.6704 267.318897 
L 74.02752 266.539929 
L 74.38464 266.119555 
L 74.74176 265.071977 
L 75.09888 264.698609 
L 75.456 264.554903 
L 75.81312 264.000224 
L 76.17024 262.849231 
L 76.52736 261.052904 
L 76.88448 260.418313 
L 77.2416 260.80914 
L 77.59872 259.913327 
L 77.95584 258.505812 
L 78.31296 259.282094 
L 78.67008 259.009455 
L 79.0272 258.540731 
L 79.74144 256.488553 
L 80.09856 255.614899 
L 80.45568 255.735774 
L 80.8128 252.528574 
L 81.16992 254.035474 
L 81.52704 253.347162 
L 82.24128 252.358006 
L 82.5984 250.239347 
L 82.95552 251.175452 
L 83.31264 249.059479 
L 83.66976 248.786168 
L 84.02688 246.568795 
L 84.384 247.664723 
L 84.74112 247.679496 
L 85.09824 244.945721 
L 85.81248 245.179411 
L 86.1696 244.699271 
L 86.52672 245.133748 
L 86.88384 241.890957 
L 87.24096 241.521618 
L 87.59808 243.039263 
L 87.9552 239.506374 
L 88.31232 239.894515 
L 88.66944 238.005517 
L 89.02656 237.589843 
L 89.38368 237.538807 
L 89.7408 236.195087 
L 90.09792 239.100773 
L 90.81216 237.378985 
L 91.16928 234.970898 
L 91.5264 233.708433 
L 91.88352 234.116048 
L 92.24064 233.027507 
L 92.59776 230.580472 
L 92.95488 233.713133 
L 93.66912 230.486459 
L 94.02624 231.696546 
L 94.38336 231.200289 
L 94.74048 229.919692 
L 95.0976 229.988188 
L 95.45472 228.312063 
L 95.81184 225.121651 
L 96.16896 223.701377 
L 96.52608 224.865129 
L 96.8832 227.267171 
L 97.24032 224.43401 
L 97.59744 223.629524 
L 98.31168 224.097576 
L 98.6688 221.535711 
L 99.02592 221.394019 
L 99.38304 222.377802 
L 99.74016 221.053556 
L 100.09728 217.558944 
L 100.4544 215.612195 
L 100.81152 218.990634 
L 101.16864 215.686734 
L 101.52576 215.894235 
L 101.88288 214.897693 
L 102.24 213.425711 
L 102.59712 215.06826 
L 103.31136 212.986535 
L 103.66848 215.55713 
L 104.0256 212.793807 
L 104.38272 213.236342 
L 104.73984 208.420841 
L 105.09696 210.520026 
L 105.45408 210.770504 
L 105.8112 211.224455 
L 106.16832 211.094179 
L 106.52544 206.868948 
L 106.88256 204.459519 
L 107.23968 205.696466 
L 107.5968 208.013225 
L 107.95392 203.056033 
L 108.31104 204.578378 
L 108.66816 200.397468 
L 109.02528 204.459519 
L 109.3824 200.367249 
L 109.73952 201.113313 
L 110.09664 201.285223 
L 110.81088 198.936902 
L 111.168 200.138259 
L 111.52512 199.782352 
L 111.88224 200.53043 
L 112.23936 198.549433 
L 112.59648 197.998111 
L 112.9536 198.585024 
L 113.31072 192.426474 
L 113.66784 193.193355 
L 114.02496 194.557221 
L 114.38208 194.093869 
L 114.7392 189.63159 
L 115.09632 193.915243 
L 115.45344 188.353007 
L 115.81056 188.905672 
L 116.16768 190.961879 
L 116.5248 190.716101 
L 116.88192 185.301601 
L 117.23904 188.613559 
L 117.59616 188.49067 
L 117.95328 187.254393 
L 118.3104 187.312816 
L 118.66752 183.787313 
L 119.02464 182.976783 
L 119.38176 182.554395 
L 119.73888 186.282026 
L 120.096 181.150909 
L 120.45312 185.730033 
L 120.81024 178.787815 
L 121.16736 183.655695 
L 121.52448 181.23955 
L 121.8816 175.563155 
L 122.23872 176.996859 
L 122.59584 182.716232 
L 122.95296 178.399674 
L 123.31008 175.636351 
L 123.6672 180.75941 
L 124.02432 180.482742 
L 124.38144 174.751282 
L 124.73856 179.40696 
L 125.09568 176.080229 
L 125.4528 176.240723 
L 125.80992 174.927893 
L 126.16704 175.25694 
L 126.88128 179.319662 
L 127.2384 175.152853 
L 127.59552 176.460311 
L 127.95264 176.084929 
L 128.30976 178.137108 
L 128.66688 171.762327 
L 129.024 172.532565 
L 129.38112 172.98853 
L 129.73824 172.80789 
L 130.45248 175.087716 
L 130.8096 168.113264 
L 131.16672 171.090131 
L 131.52384 171.740838 
L 131.88096 169.122565 
L 132.23808 175.91369 
L 132.5952 172.300218 
L 132.95232 171.14251 
L 133.30944 167.553212 
L 133.66656 170.35817 
L 134.02368 174.282558 
L 134.73792 166.474073 
L 135.09504 170.9706 
L 135.45216 170.100976 
L 135.80928 166.184646 
L 136.1664 169.918321 
L 136.52352 172.436537 
L 136.88064 168.9708 
L 137.23776 171.315092 
L 137.59488 166.25247 
L 138.30912 168.430223 
L 138.66624 164.977917 
L 139.02336 165.223023 
L 139.38048 169.826994 
L 139.7376 164.22178 
L 140.09472 164.651556 
L 140.45184 164.100234 
L 140.80896 166.84744 
L 141.16608 168.524237 
L 141.5232 169.285745 
L 141.88032 161.680732 
L 142.23744 168.194518 
L 142.59456 160.007294 
L 142.95168 165.48156 
L 143.3088 166.558685 
L 143.66592 163.8605 
L 144.02304 166.368644 
L 144.38016 164.986646 
L 144.73728 165.564157 
L 145.0944 158.809966 
L 145.45152 158.196864 
L 145.80864 161.162315 
L 146.16576 161.295277 
L 146.52288 159.878361 
L 146.88 161.449056 
L 147.23712 164.368844 
L 147.59424 165.739425 
L 147.95136 156.896793 
L 148.30848 164.976574 
L 148.6656 164.801306 
L 149.73696 163.082875 
L 150.09408 159.38479 
L 150.4512 162.487233 
L 150.80832 156.646986 
L 151.16544 153.81181 
L 151.52256 163.050642 
L 151.87968 161.310051 
L 152.2368 161.801607 
L 152.59392 161.150228 
L 152.95104 161.927182 
L 153.30816 160.752686 
L 153.66528 156.861202 
L 154.0224 154.646515 
L 154.37952 153.934027 
L 154.73664 160.328954 
L 155.09376 159.453286 
L 155.45088 157.060645 
L 155.808 158.400336 
L 156.16512 157.215095 
L 156.52224 158.408394 
L 156.87936 152.063161 
L 157.23648 155.130684 
L 157.95072 151.158617 
L 158.30784 155.880105 
L 158.66496 153.819868 
L 159.02208 153.003966 
L 159.3792 148.82507 
L 159.73632 157.979962 
L 160.09344 154.617639 
L 160.45056 148.316055 
L 160.80768 156.130584 
L 161.1648 149.157475 
L 161.52192 153.700337 
L 161.87904 147.917841 
L 162.23616 153.594908 
L 162.59328 156.761816 
L 162.9504 147.31817 
L 163.30752 151.382235 
L 163.66464 145.854247 
L 164.02176 151.227113 
L 164.37888 150.976634 
L 165.09312 145.31837 
L 165.80736 153.089921 
L 166.16448 153.536485 
L 166.87872 145.509083 
L 167.23584 150.959846 
L 167.59296 150.06269 
L 167.95008 148.242187 
L 168.3072 151.341943 
L 168.66432 152.613811 
L 169.02144 153.148344 
L 169.37856 142.365678 
L 170.0928 152.486892 
L 170.44992 147.642516 
L 170.80704 146.164491 
L 171.16416 145.376793 
L 171.52128 148.71494 
L 171.8784 142.657791 
L 172.23552 146.122185 
L 172.59264 146.621127 
L 172.94976 144.764363 
L 173.30688 149.023841 
L 173.664 141.640431 
L 174.02112 145.975121 
L 174.37824 144.056576 
L 174.73536 143.980022 
L 175.09248 144.134473 
L 175.4496 141.966792 
L 175.80672 141.768021 
L 176.16384 148.152203 
L 176.52096 141.759291 
L 176.87808 142.702783 
L 177.2352 148.029314 
L 177.59232 146.576135 
L 177.94944 141.374508 
L 178.30656 147.712354 
L 178.66368 137.77648 
L 179.0208 140.791625 
L 179.37792 136.655035 
L 179.73504 144.867106 
L 180.09216 147.087837 
L 180.44928 137.46355 
L 180.8064 139.850147 
L 181.16352 143.89541 
L 181.52064 145.251218 
L 181.87776 136.549605 
L 182.23488 139.265921 
L 182.592 145.875064 
L 183.30624 143.440788 
L 183.66336 138.225059 
L 184.02048 145.071921 
L 184.3776 138.82473 
L 184.73472 141.697511 
L 185.09184 143.667092 
L 185.44896 142.414699 
L 185.80608 137.11973 
L 186.1632 141.767349 
L 186.52032 134.114658 
L 186.87744 134.841919 
L 187.23456 142.418728 
L 187.59168 137.165393 
L 187.9488 136.555649 
L 188.30592 141.712284 
L 188.66304 135.081653 
L 189.02016 138.669608 
L 189.37728 133.269209 
L 189.7344 133.337704 
L 190.09152 132.863608 
L 190.44864 136.409928 
L 191.16288 130.927604 
L 191.52 138.183424 
L 191.87712 131.219717 
L 192.23424 132.539262 
L 192.59136 136.522073 
L 192.94848 135.87741 
L 193.3056 137.360135 
L 193.66272 138.156563 
L 194.01984 139.693682 
L 194.37696 134.653221 
L 194.73408 133.208772 
L 195.0912 138.4151 
L 195.44832 128.957351 
L 195.80544 127.974911 
L 196.16256 134.893626 
L 196.51968 138.202898 
L 196.8768 138.174694 
L 197.23392 128.573911 
L 197.59104 136.106399 
L 197.94816 136.042604 
L 198.30528 132.560079 
L 198.6624 136.426716 
L 199.01952 137.613971 
L 199.73376 127.432991 
L 200.09088 129.845106 
L 200.448 130.22116 
L 200.80512 131.052507 
L 201.16224 129.599328 
L 201.51936 134.59144 
L 201.87648 136.355535 
L 202.2336 130.318531 
L 202.59072 134.667994 
L 202.94784 125.75418 
L 203.30496 124.628034 
L 203.66208 133.55595 
L 204.0192 128.864681 
L 204.37632 134.179796 
L 204.73344 125.10213 
L 205.09056 127.786213 
L 205.44768 125.241136 
L 205.8048 125.688371 
L 206.16192 134.151592 
L 206.51904 128.021246 
L 206.87616 131.333204 
L 207.23328 128.02729 
L 207.94752 132.734004 
L 208.30464 132.890469 
L 209.01888 128.726347 
L 209.73312 124.204302 
L 210.09024 130.6046 
L 210.44736 127.248993 
L 210.80448 127.085141 
L 211.1616 128.152865 
L 211.51872 122.297173 
L 211.87584 124.227134 
L 212.23296 127.902386 
L 212.59008 122.377756 
L 212.9472 123.448837 
L 213.30432 123.297073 
L 213.66144 126.503601 
L 214.01856 119.445881 
L 214.37568 119.862226 
L 214.7328 125.997943 
L 215.08992 124.270111 
L 215.44704 125.117575 
L 215.80416 121.181099 
L 216.16128 123.325948 
L 216.5184 127.336291 
L 216.87552 121.567226 
L 217.23264 119.116162 
L 217.58976 126.553294 
L 217.94688 128.440277 
L 218.304 123.368254 
L 218.66112 124.452766 
L 219.01824 124.735478 
L 219.37536 128.202558 
L 219.73248 125.178684 
L 220.0896 124.619976 
L 220.80384 120.244323 
L 221.16096 120.11069 
L 221.51808 118.169313 
L 221.8752 117.541437 
L 222.23232 123.323934 
L 222.58944 120.214776 
L 222.94656 121.098502 
L 223.30368 123.585828 
L 223.6608 121.500073 
L 224.37504 125.063853 
L 224.73216 118.920748 
L 225.08928 125.822004 
L 225.4464 117.779829 
L 225.80352 115.923735 
L 226.16064 125.451994 
L 226.51776 116.172871 
L 226.87488 113.747997 
L 227.94624 123.863168 
L 228.66048 119.564069 
L 229.0176 113.847382 
L 229.37472 118.694445 
L 229.73184 120.079128 
L 230.08896 116.015734 
L 230.44608 114.66127 
L 230.8032 120.484729 
L 231.16032 120.711704 
L 231.51744 118.905303 
L 231.87456 116.512662 
L 232.5888 113.651969 
L 232.94592 113.85074 
L 233.30304 115.520821 
L 233.66016 115.279744 
L 234.01728 116.367613 
L 234.3744 120.82452 
L 234.73152 111.135095 
L 235.08864 116.301132 
L 235.44576 117.356768 
L 235.80288 117.092188 
L 236.16 119.067812 
L 236.51712 118.503732 
L 237.23136 112.568128 
L 237.58848 118.096788 
L 237.9456 119.662783 
L 238.30272 111.082045 
L 239.01696 118.431879 
L 239.37408 115.570514 
L 239.7312 118.225721 
L 240.08832 113.233609 
L 240.44544 115.190431 
L 240.80256 118.448667 
L 241.15968 111.776401 
L 241.5168 117.172771 
L 241.87392 109.215879 
L 242.23104 118.204904 
L 242.58816 117.879214 
L 242.94528 118.643409 
L 243.3024 112.034938 
L 243.65952 109.040611 
L 244.01664 114.920478 
L 244.37376 117.675071 
L 244.73088 109.284374 
L 245.088 114.819078 
L 245.44512 105.263958 
L 245.80224 113.481401 
L 246.15936 112.778315 
L 246.51648 109.929709 
L 246.8736 116.266213 
L 247.23072 106.005992 
L 247.58784 108.037354 
L 247.94496 104.170045 
L 248.30208 108.786775 
L 248.6592 110.556913 
L 249.01632 106.225581 
L 249.37344 103.789291 
L 249.73056 106.950827 
L 250.08768 107.848655 
L 250.4448 104.435969 
L 250.80192 103.007636 
L 251.15904 113.475358 
L 251.51616 103.829582 
L 251.87328 102.913623 
L 252.2304 105.795134 
L 252.58752 102.884076 
L 252.94464 110.622051 
L 253.30176 113.666742 
L 254.016 101.632354 
L 254.37312 111.396318 
L 254.73024 110.306434 
L 255.08736 112.327051 
L 255.44448 107.917822 
L 255.8016 110.938339 
L 256.15872 102.829682 
L 256.51584 111.421836 
L 256.87296 110.452155 
L 257.23008 102.011766 
L 257.5872 106.933368 
L 257.94432 113.482073 
L 258.30144 103.29572 
L 258.65856 103.088891 
L 259.01568 100.089863 
L 259.3728 109.393161 
L 259.72992 105.320366 
L 260.08704 104.839555 
L 260.44416 111.65687 
L 260.80128 111.167328 
L 261.1584 108.99159 
L 261.51552 105.901235 
L 261.87264 109.834353 
L 262.22976 102.310594 
L 262.58688 104.848956 
L 262.944 104.215709 
L 263.30112 108.437582 
L 263.65824 105.543984 
L 264.01536 100.243642 
L 264.37248 110.687189 
L 265.08672 102.982118 
L 265.44384 97.443386 
L 265.80096 106.116794 
L 266.15808 110.505877 
L 266.5152 105.617851 
L 266.87232 108.896233 
L 267.58656 100.806379 
L 267.94368 107.812393 
L 268.3008 103.187605 
L 268.65792 102.313952 
L 269.01504 100.569331 
L 269.37216 100.142242 
L 269.72928 102.931754 
L 270.0864 103.293034 
L 270.44352 101.63034 
L 270.80064 100.810409 
L 271.15776 103.707365 
L 271.51488 100.309451 
L 271.872 99.416996 
L 272.22912 94.657231 
L 272.58624 94.453088 
L 272.94336 104.407765 
L 273.30048 95.443586 
L 273.6576 98.508423 
L 274.01472 95.688021 
L 274.37184 105.246498 
L 274.72896 101.39262 
L 275.08608 95.065518 
L 275.4432 105.523166 
L 275.80032 103.310494 
L 276.15744 97.640814 
L 276.51456 104.694505 
L 276.87168 101.609523 
L 277.2288 97.125083 
L 277.58592 95.856574 
L 277.94304 99.733955 
L 278.30016 99.435798 
L 278.65728 105.163229 
L 279.0144 97.239242 
L 279.37152 96.067432 
L 279.72864 105.624567 
L 280.08576 97.81541 
L 280.44288 98.476862 
L 280.8 96.859831 
L 281.15712 102.1548 
L 281.51424 96.577791 
L 281.87136 94.282521 
L 282.22848 93.077134 
L 282.5856 92.330399 
L 282.94272 96.877962 
L 283.29984 103.418609 
L 283.65696 94.48062 
L 284.01408 95.550358 
L 284.3712 104.281518 
L 284.72832 103.858458 
L 285.44256 102.433483 
L 285.79968 103.267516 
L 286.1568 90.443416 
L 286.51392 90.127799 
L 286.87104 91.869062 
L 287.22816 95.019183 
L 287.58528 91.559489 
L 287.9424 90.504525 
L 288.29952 99.629197 
L 288.65664 93.056317 
L 289.01376 91.797881 
L 289.37088 99.90788 
L 289.728 90.529371 
L 290.08512 90.797309 
L 290.44224 100.817795 
L 290.79936 89.716155 
L 291.15648 96.056688 
L 291.5136 89.028514 
L 291.87072 89.356218 
L 292.22784 98.909995 
L 292.58496 99.669489 
L 292.94208 95.789421 
L 293.2992 100.619696 
L 293.65632 87.166377 
L 294.01344 87.085123 
L 294.37056 99.813867 
L 294.72768 97.891292 
L 295.0848 100.887634 
L 295.44192 96.156745 
L 295.79904 95.728984 
L 296.15616 94.124041 
L 296.51328 95.050073 
L 296.8704 94.371833 
L 297.22752 87.721728 
L 297.58464 86.183266 
L 297.94176 99.226283 
L 298.29888 93.572719 
L 298.656 99.261874 
L 299.01312 97.239242 
L 299.72736 92.300181 
L 300.08448 87.161005 
L 300.4416 87.484008 
L 300.79872 89.720856 
L 301.15584 89.127228 
L 301.51296 87.315456 
L 301.87008 96.85043 
L 302.2272 88.694767 
L 302.58432 84.932216 
L 302.94144 98.08402 
L 303.29856 88.054804 
L 303.65568 93.641886 
L 304.0128 86.445832 
L 304.36992 84.835516 
L 304.72704 95.563789 
L 305.08416 84.803955 
L 305.44128 96.382377 
L 305.7984 86.253776 
L 306.51264 96.462289 
L 306.86976 89.747045 
L 307.22688 93.855431 
L 307.584 84.463492 
L 307.94112 96.763803 
L 308.65536 81.945947 
L 309.01248 89.548274 
L 309.3696 84.503112 
L 309.72672 88.160233 
L 310.08384 81.604141 
L 310.44096 95.473133 
L 310.79808 83.656319 
L 311.1552 92.809868 
L 311.51232 94.794222 
L 311.86944 81.931845 
L 312.22656 92.005382 
L 312.58368 94.40138 
L 312.9408 91.31304 
L 313.29792 92.985807 
L 313.65504 80.421587 
L 314.01216 94.429584 
L 314.36928 85.654776 
L 314.7264 88.874735 
L 315.08352 81.422829 
L 315.44064 82.080252 
L 315.79776 84.195553 
L 316.15488 81.226073 
L 316.512 80.046205 
L 316.86912 93.280606 
L 317.22624 93.414911 
L 317.58336 85.527186 
L 317.94048 86.024114 
L 318.2976 90.467591 
L 318.65472 80.996412 
L 319.01184 84.80194 
L 319.36896 84.170707 
L 319.72608 92.105439 
L 320.0832 89.781964 
L 320.44032 86.049632 
L 320.79744 91.811311 
L 321.15456 83.164092 
L 321.51168 89.329357 
L 321.8688 79.967636 
L 322.22592 87.058262 
L 322.58304 81.933188 
L 322.94016 80.578052 
L 323.29728 91.241858 
L 323.6544 88.062862 
L 324.01152 81.315386 
L 324.36864 79.773566 
L 324.72576 91.475549 
L 325.08288 80.441061 
L 325.44 81.007156 
L 325.79712 86.642588 
L 326.15424 79.936075 
L 326.51136 89.865233 
L 326.86848 90.70061 
L 327.2256 86.641917 
L 327.58272 86.565363 
L 327.93984 88.544345 
L 328.29696 78.912 
L 328.65408 84.649504 
L 329.0112 88.472492 
L 329.72544 83.131859 
L 330.08256 82.047347 
L 330.43968 85.024886 
L 330.7968 75.032604 
L 331.15392 79.578152 
L 331.51104 78.785082 
L 331.86816 84.239874 
L 332.22528 83.464263 
L 332.5824 85.08398 
L 332.93952 75.965351 
L 333.29664 87.674721 
L 333.65376 88.318041 
L 334.01088 79.593597 
L 334.368 77.348691 
L 334.72512 82.045333 
L 335.08224 78.441933 
L 335.43936 77.333918 
L 335.79648 84.179437 
L 336.1536 80.134174 
L 336.51072 78.071923 
L 336.86784 77.353392 
L 337.22496 78.544676 
L 337.58208 76.197027 
L 337.9392 80.978952 
L 338.29632 79.35252 
L 338.65344 74.47591 
L 339.01056 82.796768 
L 339.36768 85.613813 
L 339.7248 78.188097 
L 340.08192 83.945746 
L 340.43904 72.533862 
L 340.79616 84.808655 
L 341.15328 80.770108 
L 341.5104 79.043619 
L 341.86752 80.451134 
L 342.22464 75.821645 
L 342.58176 83.239303 
L 342.93888 73.620388 
L 343.296 78.281439 
L 343.65312 77.054564 
L 344.01024 83.571707 
L 344.36736 80.164393 
L 344.72448 80.551862 
L 345.0816 71.917403 
L 345.43872 81.691439 
L 345.79584 80.670051 
L 346.15296 71.073296 
L 346.51008 80.813757 
L 346.8672 74.920459 
L 347.22432 79.719844 
L 347.58144 76.076153 
L 347.93856 78.323745 
L 348.29568 72.021489 
L 348.6528 69.132591 
L 349.00992 81.197197 
L 349.36704 70.17614 
L 349.72416 83.622072 
L 350.08128 69.980055 
L 350.4384 72.31293 
L 350.79552 73.611658 
L 351.15264 84.165335 
L 351.50976 71.871067 
L 352.224 77.23789 
L 352.58112 70.870496 
L 352.93824 75.675253 
L 353.29536 78.613172 
L 353.65248 73.598228 
L 354.0096 82.415342 
L 354.36672 79.913243 
L 354.72384 81.032002 
L 355.08096 80.532388 
L 355.43808 73.148978 
L 355.7952 68.809588 
L 356.15232 71.948964 
L 356.50944 72.055065 
L 356.86656 80.825173 
L 357.22368 76.385054 
L 357.5808 74.273781 
L 357.93792 70.985998 
L 358.29504 81.592054 
L 358.65216 77.998727 
L 359.00928 70.469596 
L 359.3664 76.914215 
L 359.72352 70.685155 
L 360.43776 81.024616 
L 360.79488 65.533892 
L 361.152 78.034989 
L 361.50912 68.737735 
L 361.86624 79.311557 
L 362.22336 72.547292 
L 362.58048 72.106772 
L 362.9376 80.20267 
L 363.29472 67.629048 
L 363.65184 69.942449 
L 364.00896 80.238261 
L 364.7232 66.751366 
L 365.08032 78.115572 
L 365.43744 78.490283 
L 365.79456 75.451635 
L 366.15168 75.354264 
L 366.5088 72.393513 
L 366.86592 77.747577 
L 367.22304 78.856935 
L 367.58016 69.720175 
L 367.93728 65.725948 
L 368.2944 63.60326 
L 368.65152 69.651008 
L 369.00864 64.689115 
L 369.36576 64.587714 
L 369.72288 72.376054 
L 370.08 66.265182 
L 370.43712 76.121145 
L 370.79424 74.684754 
L 371.15136 78.041033 
L 371.8656 69.64765 
L 372.22272 75.316659 
L 372.57984 73.3041 
L 373.29408 63.893358 
L 373.6512 63.104317 
L 374.00832 77.43599 
L 374.36544 75.009772 
L 374.72256 65.631263 
L 375.07968 66.32159 
L 375.4368 64.398345 
L 375.79392 67.77074 
L 376.15104 69.319946 
L 376.50816 65.271326 
L 376.86528 67.727091 
L 377.2224 72.244435 
L 377.57952 68.258938 
L 377.93664 66.249066 
L 378.29376 62.73565 
L 378.65088 64.156596 
L 379.008 63.992744 
L 379.36512 65.563439 
L 380.07936 70.397071 
L 380.43648 75.69607 
L 380.7936 60.261083 
L 381.50784 74.67401 
L 381.86496 69.610045 
L 382.22208 62.221263 
L 382.93632 64.81469 
L 383.29344 70.428633 
L 383.65056 73.406843 
L 384.00768 61.254268 
L 384.3648 69.965281 
L 384.72192 67.128762 
L 385.07904 58.534594 
L 385.79328 65.231035 
L 386.1504 64.852966 
L 386.50752 64.091458 
L 386.86464 58.596374 
L 387.22176 69.971325 
L 387.57888 68.778026 
L 387.936 59.339752 
L 388.29312 68.62559 
L 388.65024 66.144979 
L 389.00736 69.710102 
L 389.36448 64.436621 
L 389.7216 57.487016 
L 390.07872 70.471611 
L 390.43584 65.343179 
L 390.79296 66.355166 
L 391.15008 70.315145 
L 391.5072 59.249767 
L 391.86432 69.965953 
L 392.22144 72.558037 
L 392.57856 67.284556 
L 392.93568 64.558167 
L 393.2928 70.945707 
L 393.64992 56.327294 
L 394.00704 65.674241 
L 394.36416 58.505718 
L 394.72128 59.907861 
L 395.43552 64.061239 
L 395.79264 59.171199 
L 396.14976 63.725477 
L 396.50688 57.112977 
L 396.864 57.102904 
L 397.22112 70.852365 
L 397.57824 56.879958 
L 397.93536 56.869885 
L 398.29248 57.433966 
L 398.6496 55.381116 
L 399.00672 64.596444 
L 399.36384 61.970113 
L 399.72096 54.979544 
L 400.4352 60.679443 
L 400.79232 64.853638 
L 401.14944 67.693514 
L 401.50656 56.338038 
L 401.86368 62.769898 
L 402.2208 55.829022 
L 402.57792 56.227908 
L 402.93504 54.234152 
L 403.29216 62.000331 
L 403.64928 63.471641 
L 404.0064 58.693074 
L 404.36352 57.95574 
L 404.72064 62.930392 
L 405.07776 54.115292 
L 405.43488 60.437022 
L 405.792 64.17607 
L 406.14912 61.907661 
L 406.50624 67.115332 
L 406.86336 66.192658 
L 407.22048 66.957524 
L 407.5776 53.568 
L 407.93472 61.340223 
L 408.29184 57.973871 
L 408.64896 63.261454 
L 409.00608 65.513075 
L 409.3632 61.017219 
L 409.72032 68.944564 
L 410.07744 57.778458 
L 410.43456 65.128963 
L 411.50592 54.284516 
L 411.86304 67.042136 
L 412.57728 53.651269 
L 412.9344 56.03048 
L 413.29152 55.717549 
L 413.64864 66.062382 
L 414.00576 63.143937 
L 414.36288 61.424835 
L 414.72 61.681357 
L 414.72 61.681357 
" style="fill:none;stroke:#000080;stroke-linecap:square;stroke-width:0.5;"/>
   </g>
   <g id="patch_3">
    <path d="M 57.6 307.584 
L 57.6 41.472 
" style="fill:none;stroke:#000000;stroke-linecap:square;stroke-linejoin:miter;stroke-width:0.8;"/>
   </g>
   <g id="patch_4">
    <path d="M 414.72 307.584 
L 414.72 41.472 
" style="fill:none;stroke:#000000;stroke-linecap:square;stroke-linejoin:miter;stroke-width:0.8;"/>
   </g>
   <g id="patch_5">
    <path d="M 57.6 307.584 
L 414.72 307.584 
" style="fill:none;stroke:#000000;stroke-linecap:square;stroke-linejoin:miter;stroke-width:0.8;"/>
   </g>
   <g id="patch_6">
    <path d="M 57.6 41.472 
L 414.72 41.472 
" style="fill:none;stroke:#000000;stroke-linecap:square;stroke-linejoin:miter;stroke-width:0.8;"/>
   </g>
   <g id="text_17">
    <!-- Test -->
    <defs>
     <path d="M -0.296875 72.90625 
L 61.375 72.90625 
L 61.375 64.59375 
L 35.5 64.59375 
L 35.5 0 
L 25.59375 0 
L 25.59375 64.59375 
L -0.296875 64.59375 
z
" id="DejaVuSans-54"/>
    </defs>
    <g transform="translate(223.341563 35.472)scale(0.12 -0.12)">
     <use xlink:href="#DejaVuSans-54"/>
     <use x="60.818359" xlink:href="#DejaVuSans-65"/>
     <use x="122.341797" xlink:href="#DejaVuSans-73"/>
     <use x="174.441406" xlink:href="#DejaVuSans-74"/>
    </g>
   </g>
   <g id="legend_1">
    <g id="patch_7">
     <path d="M 64.6 64.150125 
L 306.276563 64.150125 
Q 308.276563 64.150125 308.276563 62.150125 
L 308.276563 48.472 
Q 308.276563 46.472 306.276563 46.472 
L 64.6 46.472 
Q 62.6 46.472 62.6 48.472 
L 62.6 62.150125 
Q 62.6 64.150125 64.6 64.150125 
z
" style="fill:#ffffff;opacity:0.8;stroke:#cccccc;stroke-linejoin:miter;"/>
    </g>
    <g id="line2d_30">
     <path d="M 66.6 54.570438 
L 86.6 54.570438 
" style="fill:none;stroke:#000080;stroke-linecap:square;stroke-width:0.5;"/>
    </g>
    <g id="line2d_31"/>
    <g id="text_18">
     <!-- Successful download requests per second -->
     <g transform="translate(94.6 58.070438)scale(0.1 -0.1)">
      <use xlink:href="#DejaVuSans-53"/>
      <use x="63.476562" xlink:href="#DejaVuSans-75"/>
      <use x="126.855469" xlink:href="#DejaVuSans-63"/>
      <use x="181.835938" xlink:href="#DejaVuSans-63"/>
      <use x="236.816406" xlink:href="#DejaVuSans-65"/>
      <use x="298.339844" xlink:href="#DejaVuSans-73"/>
      <use x="350.439453" xlink:href="#DejaVuSans-73"/>
      <use x="402.539062" xlink:href="#DejaVuSans-66"/>
      <use x="437.744141" xlink:href="#DejaVuSans-75"/>
      <use x="501.123047" xlink:href="#DejaVuSans-6c"/>
      <use x="528.90625" xlink:href="#DejaVuSans-20"/>
      <use x="560.693359" xlink:href="#DejaVuSans-64"/>
      <use x="624.169922" xlink:href="#DejaVuSans-6f"/>
      <use x="685.351562" xlink:href="#DejaVuSans-77"/>
      <use x="767.138672" xlink:href="#DejaVuSans-6e"/>
      <use x="830.517578" xlink:href="#DejaVuSans-6c"/>
      <use x="858.300781" xlink:href="#DejaVuSans-6f"/>
      <use x="919.482422" xlink:href="#DejaVuSans-61"/>
      <use x="980.761719" xlink:href="#DejaVuSans-64"/>
      <use x="1044.238281" xlink:href="#DejaVuSans-20"/>
      <use x="1076.025391" xlink:href="#DejaVuSans-72"/>
      <use x="1117.107422" xlink:href="#DejaVuSans-65"/>
      <use x="1178.630859" xlink:href="#DejaVuSans-71"/>
      <use x="1242.107422" xlink:href="#DejaVuSans-75"/>
      <use x="1305.486328" xlink:href="#DejaVuSans-65"/>
      <use x="1367.009766" xlink:href="#DejaVuSans-73"/>
      <use x="1419.109375" xlink:href="#DejaVuSans-74"/>
      <use x="1458.318359" xlink:href="#DejaVuSans-73"/>
      <use x="1510.417969" xlink:href="#DejaVuSans-20"/>
      <use x="1542.205078" xlink:href="#DejaVuSans-70"/>
      <use x="1605.681641" xlink:href="#DejaVuSans-65"/>
      <use x="1667.205078" xlink:href="#DejaVuSans-72"/>
      <use x="1708.318359" xlink:href="#DejaVuSans-20"/>
      <use x="1740.105469" xlink:href="#DejaVuSans-73"/>
      <use x="1792.205078" xlink:href="#DejaVuSans-65"/>
      <use x="1853.728516" xlink:href="#DejaVuSans-63"/>
      <use x="1908.708984" xlink:href="#DejaVuSans-6f"/>
      <use x="1969.890625" xlink:href="#DejaVuSans-6e"/>
      <use x="2033.269531" xlink:href="#DejaVuSans-64"/>
     </g>
    </g>
   </g>
  </g>
 </g>
 <defs>
  <clipPath id="p9a80890095">
   <rect height="266.112" width="357.12" x="57.6" y="41.472"/>
  </clipPath>
 </defs>
</svg>
