<?xml version="1.0" encoding="utf-8" standalone="no"?>
<!DOCTYPE svg PUBLIC "-//W3C//DTD SVG 1.1//EN"
  "http://www.w3.org/Graphics/SVG/1.1/DTD/svg11.dtd">
<!-- Created with matplotlib (http://matplotlib.org/) -->
<svg height="345pt" version="1.1" viewBox="0 0 460 345" width="460pt" xmlns="http://www.w3.org/2000/svg" xmlns:xlink="http://www.w3.org/1999/xlink">
 <defs>
  <style type="text/css">
*{stroke-linecap:butt;stroke-linejoin:round;}
  </style>
 </defs>
 <g id="figure_1">
  <g id="patch_1">
   <path d="M 0 345.6 
L 460.8 345.6 
L 460.8 0 
L 0 0 
z
" style="fill:#ffffff;"/>
  </g>
  <g id="axes_1">
   <g id="patch_2">
    <path d="M 57.6 307.584 
L 414.72 307.584 
L 414.72 41.472 
L 57.6 41.472 
z
" style="fill:#ffffff;"/>
   </g>
   <g id="matplotlib.axis_1">
    <g id="xtick_1">
     <g id="line2d_1">
      <path clip-path="url(#p5470eca49a)" d="M 57.6 307.584 
L 57.6 41.472 
" style="fill:none;stroke:#b0b0b0;stroke-linecap:square;stroke-width:0.8;"/>
     </g>
     <g id="line2d_2">
      <defs>
       <path d="M 0 0 
L 0 3.5 
" id="m1dfc2608cf" style="stroke:#000000;stroke-width:0.8;"/>
      </defs>
      <g>
       <use style="stroke:#000000;stroke-width:0.8;" x="57.6" xlink:href="#m1dfc2608cf" y="307.584"/>
      </g>
     </g>
     <g id="text_1">
      <!-- 0 -->
      <defs>
       <path d="M 31.78125 66.40625 
Q 24.171875 66.40625 20.328125 58.90625 
Q 16.5 51.421875 16.5 36.375 
Q 16.5 21.390625 20.328125 13.890625 
Q 24.171875 6.390625 31.78125 6.390625 
Q 39.453125 6.390625 43.28125 13.890625 
Q 47.125 21.390625 47.125 36.375 
Q 47.125 51.421875 43.28125 58.90625 
Q 39.453125 66.40625 31.78125 66.40625 
M 31.78125 74.21875 
Q 44.046875 74.21875 50.515625 64.515625 
Q 56.984375 54.828125 56.984375 36.375 
Q 56.984375 17.96875 50.515625 8.265625 
Q 44.046875 -1.421875 31.78125 -1.421875 
Q 19.53125 -1.421875 13.0625 8.265625 
Q 6.59375 17.96875 6.59375 36.375 
Q 6.59375 54.828125 13.0625 64.515625 
Q 19.53125 74.21875 31.78125 74.21875 
" id="DejaVuSans-30"/>
      </defs>
      <g transform="translate(54.41875 322.182437)scale(0.1 -0.1)">
       <use xlink:href="#DejaVuSans-30"/>
      </g>
     </g>
    </g>
    <g id="xtick_2">
     <g id="line2d_3">
      <path clip-path="url(#p5470eca49a)" d="M 129.024 307.584 
L 129.024 41.472 
" style="fill:none;stroke:#b0b0b0;stroke-linecap:square;stroke-width:0.8;"/>
     </g>
     <g id="line2d_4">
      <g>
       <use style="stroke:#000000;stroke-width:0.8;" x="129.024" xlink:href="#m1dfc2608cf" y="307.584"/>
      </g>
     </g>
     <g id="text_2">
      <!-- 200 -->
      <defs>
       <path d="M 19.1875 8.296875 
L 53.609375 8.296875 
L 53.609375 0 
L 7.328125 0 
L 7.328125 8.296875 
Q 12.9375 14.109375 22.625 23.890625 
Q 32.328125 33.6875 34.8125 36.53125 
Q 39.546875 41.84375 41.421875 45.53125 
Q 43.3125 49.21875 43.3125 52.78125 
Q 43.3125 58.59375 39.234375 62.25 
Q 35.15625 65.921875 28.609375 65.921875 
Q 23.96875 65.921875 18.8125 64.3125 
Q 13.671875 62.703125 7.8125 59.421875 
L 7.8125 69.390625 
Q 13.765625 71.78125 18.9375 73 
Q 24.125 74.21875 28.421875 74.21875 
Q 39.75 74.21875 46.484375 68.546875 
Q 53.21875 62.890625 53.21875 53.421875 
Q 53.21875 48.921875 51.53125 44.890625 
Q 49.859375 40.875 45.40625 35.40625 
Q 44.1875 33.984375 37.640625 27.21875 
Q 31.109375 20.453125 19.1875 8.296875 
" id="DejaVuSans-32"/>
      </defs>
      <g transform="translate(119.48025 322.182437)scale(0.1 -0.1)">
       <use xlink:href="#DejaVuSans-32"/>
       <use x="63.623047" xlink:href="#DejaVuSans-30"/>
       <use x="127.246094" xlink:href="#DejaVuSans-30"/>
      </g>
     </g>
    </g>
    <g id="xtick_3">
     <g id="line2d_5">
      <path clip-path="url(#p5470eca49a)" d="M 200.448 307.584 
L 200.448 41.472 
" style="fill:none;stroke:#b0b0b0;stroke-linecap:square;stroke-width:0.8;"/>
     </g>
     <g id="line2d_6">
      <g>
       <use style="stroke:#000000;stroke-width:0.8;" x="200.448" xlink:href="#m1dfc2608cf" y="307.584"/>
      </g>
     </g>
     <g id="text_3">
      <!-- 400 -->
      <defs>
       <path d="M 37.796875 64.3125 
L 12.890625 25.390625 
L 37.796875 25.390625 
z
M 35.203125 72.90625 
L 47.609375 72.90625 
L 47.609375 25.390625 
L 58.015625 25.390625 
L 58.015625 17.1875 
L 47.609375 17.1875 
L 47.609375 0 
L 37.796875 0 
L 37.796875 17.1875 
L 4.890625 17.1875 
L 4.890625 26.703125 
z
" id="DejaVuSans-34"/>
      </defs>
      <g transform="translate(190.90425 322.182437)scale(0.1 -0.1)">
       <use xlink:href="#DejaVuSans-34"/>
       <use x="63.623047" xlink:href="#DejaVuSans-30"/>
       <use x="127.246094" xlink:href="#DejaVuSans-30"/>
      </g>
     </g>
    </g>
    <g id="xtick_4">
     <g id="line2d_7">
      <path clip-path="url(#p5470eca49a)" d="M 271.872 307.584 
L 271.872 41.472 
" style="fill:none;stroke:#b0b0b0;stroke-linecap:square;stroke-width:0.8;"/>
     </g>
     <g id="line2d_8">
      <g>
       <use style="stroke:#000000;stroke-width:0.8;" x="271.872" xlink:href="#m1dfc2608cf" y="307.584"/>
      </g>
     </g>
     <g id="text_4">
      <!-- 600 -->
      <defs>
       <path d="M 33.015625 40.375 
Q 26.375 40.375 22.484375 35.828125 
Q 18.609375 31.296875 18.609375 23.390625 
Q 18.609375 15.53125 22.484375 10.953125 
Q 26.375 6.390625 33.015625 6.390625 
Q 39.65625 6.390625 43.53125 10.953125 
Q 47.40625 15.53125 47.40625 23.390625 
Q 47.40625 31.296875 43.53125 35.828125 
Q 39.65625 40.375 33.015625 40.375 
M 52.59375 71.296875 
L 52.59375 62.3125 
Q 48.875 64.0625 45.09375 64.984375 
Q 41.3125 65.921875 37.59375 65.921875 
Q 27.828125 65.921875 22.671875 59.328125 
Q 17.53125 52.734375 16.796875 39.40625 
Q 19.671875 43.65625 24.015625 45.921875 
Q 28.375 48.1875 33.59375 48.1875 
Q 44.578125 48.1875 50.953125 41.515625 
Q 57.328125 34.859375 57.328125 23.390625 
Q 57.328125 12.15625 50.6875 5.359375 
Q 44.046875 -1.421875 33.015625 -1.421875 
Q 20.359375 -1.421875 13.671875 8.265625 
Q 6.984375 17.96875 6.984375 36.375 
Q 6.984375 53.65625 15.1875 63.9375 
Q 23.390625 74.21875 37.203125 74.21875 
Q 40.921875 74.21875 44.703125 73.484375 
Q 48.484375 72.75 52.59375 71.296875 
" id="DejaVuSans-36"/>
      </defs>
      <g transform="translate(262.32825 322.182437)scale(0.1 -0.1)">
       <use xlink:href="#DejaVuSans-36"/>
       <use x="63.623047" xlink:href="#DejaVuSans-30"/>
       <use x="127.246094" xlink:href="#DejaVuSans-30"/>
      </g>
     </g>
    </g>
    <g id="xtick_5">
     <g id="line2d_9">
      <path clip-path="url(#p5470eca49a)" d="M 343.296 307.584 
L 343.296 41.472 
" style="fill:none;stroke:#b0b0b0;stroke-linecap:square;stroke-width:0.8;"/>
     </g>
     <g id="line2d_10">
      <g>
       <use style="stroke:#000000;stroke-width:0.8;" x="343.296" xlink:href="#m1dfc2608cf" y="307.584"/>
      </g>
     </g>
     <g id="text_5">
      <!-- 800 -->
      <defs>
       <path d="M 31.78125 34.625 
Q 24.75 34.625 20.71875 30.859375 
Q 16.703125 27.09375 16.703125 20.515625 
Q 16.703125 13.921875 20.71875 10.15625 
Q 24.75 6.390625 31.78125 6.390625 
Q 38.8125 6.390625 42.859375 10.171875 
Q 46.921875 13.96875 46.921875 20.515625 
Q 46.921875 27.09375 42.890625 30.859375 
Q 38.875 34.625 31.78125 34.625 
M 21.921875 38.8125 
Q 15.578125 40.375 12.03125 44.71875 
Q 8.5 49.078125 8.5 55.328125 
Q 8.5 64.0625 14.71875 69.140625 
Q 20.953125 74.21875 31.78125 74.21875 
Q 42.671875 74.21875 48.875 69.140625 
Q 55.078125 64.0625 55.078125 55.328125 
Q 55.078125 49.078125 51.53125 44.71875 
Q 48 40.375 41.703125 38.8125 
Q 48.828125 37.15625 52.796875 32.3125 
Q 56.78125 27.484375 56.78125 20.515625 
Q 56.78125 9.90625 50.3125 4.234375 
Q 43.84375 -1.421875 31.78125 -1.421875 
Q 19.734375 -1.421875 13.25 4.234375 
Q 6.78125 9.90625 6.78125 20.515625 
Q 6.78125 27.484375 10.78125 32.3125 
Q 14.796875 37.15625 21.921875 38.8125 
M 18.3125 54.390625 
Q 18.3125 48.734375 21.84375 45.5625 
Q 25.390625 42.390625 31.78125 42.390625 
Q 38.140625 42.390625 41.71875 45.5625 
Q 45.3125 48.734375 45.3125 54.390625 
Q 45.3125 60.0625 41.71875 63.234375 
Q 38.140625 66.40625 31.78125 66.40625 
Q 25.390625 66.40625 21.84375 63.234375 
Q 18.3125 60.0625 18.3125 54.390625 
" id="DejaVuSans-38"/>
      </defs>
      <g transform="translate(333.75225 322.182437)scale(0.1 -0.1)">
       <use xlink:href="#DejaVuSans-38"/>
       <use x="63.623047" xlink:href="#DejaVuSans-30"/>
       <use x="127.246094" xlink:href="#DejaVuSans-30"/>
      </g>
     </g>
    </g>
    <g id="xtick_6">
     <g id="line2d_11">
      <path clip-path="url(#p5470eca49a)" d="M 414.72 307.584 
L 414.72 41.472 
" style="fill:none;stroke:#b0b0b0;stroke-linecap:square;stroke-width:0.8;"/>
     </g>
     <g id="line2d_12">
      <g>
       <use style="stroke:#000000;stroke-width:0.8;" x="414.72" xlink:href="#m1dfc2608cf" y="307.584"/>
      </g>
     </g>
     <g id="text_6">
      <!-- 1000 -->
      <defs>
       <path d="M 12.40625 8.296875 
L 28.515625 8.296875 
L 28.515625 63.921875 
L 10.984375 60.40625 
L 10.984375 69.390625 
L 28.421875 72.90625 
L 38.28125 72.90625 
L 38.28125 8.296875 
L 54.390625 8.296875 
L 54.390625 0 
L 12.40625 0 
z
" id="DejaVuSans-31"/>
      </defs>
      <g transform="translate(401.995 322.182437)scale(0.1 -0.1)">
       <use xlink:href="#DejaVuSans-31"/>
       <use x="63.623047" xlink:href="#DejaVuSans-30"/>
       <use x="127.246094" xlink:href="#DejaVuSans-30"/>
       <use x="190.869141" xlink:href="#DejaVuSans-30"/>
      </g>
     </g>
    </g>
    <g id="text_7">
     <!-- Number of clients -->
     <defs>
      <path d="M 9.8125 72.90625 
L 23.09375 72.90625 
L 55.421875 11.921875 
L 55.421875 72.90625 
L 64.984375 72.90625 
L 64.984375 0 
L 51.703125 0 
L 19.390625 60.984375 
L 19.390625 0 
L 9.8125 0 
z
" id="DejaVuSans-4e"/>
      <path d="M 8.5 21.578125 
L 8.5 54.6875 
L 17.484375 54.6875 
L 17.484375 21.921875 
Q 17.484375 14.15625 20.5 10.265625 
Q 23.53125 6.390625 29.59375 6.390625 
Q 36.859375 6.390625 41.078125 11.03125 
Q 45.3125 15.671875 45.3125 23.6875 
L 45.3125 54.6875 
L 54.296875 54.6875 
L 54.296875 0 
L 45.3125 0 
L 45.3125 8.40625 
Q 42.046875 3.421875 37.71875 1 
Q 33.40625 -1.421875 27.6875 -1.421875 
Q 18.265625 -1.421875 13.375 4.4375 
Q 8.5 10.296875 8.5 21.578125 
M 31.109375 56 
z
" id="DejaVuSans-75"/>
      <path d="M 52 44.1875 
Q 55.375 50.25 60.0625 53.125 
Q 64.75 56 71.09375 56 
Q 79.640625 56 84.28125 50.015625 
Q 88.921875 44.046875 88.921875 33.015625 
L 88.921875 0 
L 79.890625 0 
L 79.890625 32.71875 
Q 79.890625 40.578125 77.09375 44.375 
Q 74.3125 48.1875 68.609375 48.1875 
Q 61.625 48.1875 57.5625 43.546875 
Q 53.515625 38.921875 53.515625 30.90625 
L 53.515625 0 
L 44.484375 0 
L 44.484375 32.71875 
Q 44.484375 40.625 41.703125 44.40625 
Q 38.921875 48.1875 33.109375 48.1875 
Q 26.21875 48.1875 22.15625 43.53125 
Q 18.109375 38.875 18.109375 30.90625 
L 18.109375 0 
L 9.078125 0 
L 9.078125 54.6875 
L 18.109375 54.6875 
L 18.109375 46.1875 
Q 21.1875 51.21875 25.484375 53.609375 
Q 29.78125 56 35.6875 56 
Q 41.65625 56 45.828125 52.96875 
Q 50 49.953125 52 44.1875 
" id="DejaVuSans-6d"/>
      <path d="M 48.6875 27.296875 
Q 48.6875 37.203125 44.609375 42.84375 
Q 40.53125 48.484375 33.40625 48.484375 
Q 26.265625 48.484375 22.1875 42.84375 
Q 18.109375 37.203125 18.109375 27.296875 
Q 18.109375 17.390625 22.1875 11.75 
Q 26.265625 6.109375 33.40625 6.109375 
Q 40.53125 6.109375 44.609375 11.75 
Q 48.6875 17.390625 48.6875 27.296875 
M 18.109375 46.390625 
Q 20.953125 51.265625 25.265625 53.625 
Q 29.59375 56 35.59375 56 
Q 45.5625 56 51.78125 48.09375 
Q 58.015625 40.1875 58.015625 27.296875 
Q 58.015625 14.40625 51.78125 6.484375 
Q 45.5625 -1.421875 35.59375 -1.421875 
Q 29.59375 -1.421875 25.265625 0.953125 
Q 20.953125 3.328125 18.109375 8.203125 
L 18.109375 0 
L 9.078125 0 
L 9.078125 75.984375 
L 18.109375 75.984375 
z
" id="DejaVuSans-62"/>
      <path d="M 56.203125 29.59375 
L 56.203125 25.203125 
L 14.890625 25.203125 
Q 15.484375 15.921875 20.484375 11.0625 
Q 25.484375 6.203125 34.421875 6.203125 
Q 39.59375 6.203125 44.453125 7.46875 
Q 49.3125 8.734375 54.109375 11.28125 
L 54.109375 2.78125 
Q 49.265625 0.734375 44.1875 -0.34375 
Q 39.109375 -1.421875 33.890625 -1.421875 
Q 20.796875 -1.421875 13.15625 6.1875 
Q 5.515625 13.8125 5.515625 26.8125 
Q 5.515625 40.234375 12.765625 48.109375 
Q 20.015625 56 32.328125 56 
Q 43.359375 56 49.78125 48.890625 
Q 56.203125 41.796875 56.203125 29.59375 
M 47.21875 32.234375 
Q 47.125 39.59375 43.09375 43.984375 
Q 39.0625 48.390625 32.421875 48.390625 
Q 24.90625 48.390625 20.390625 44.140625 
Q 15.875 39.890625 15.1875 32.171875 
z
" id="DejaVuSans-65"/>
      <path d="M 41.109375 46.296875 
Q 39.59375 47.171875 37.8125 47.578125 
Q 36.03125 48 33.890625 48 
Q 26.265625 48 22.1875 43.046875 
Q 18.109375 38.09375 18.109375 28.8125 
L 18.109375 0 
L 9.078125 0 
L 9.078125 54.6875 
L 18.109375 54.6875 
L 18.109375 46.1875 
Q 20.953125 51.171875 25.484375 53.578125 
Q 30.03125 56 36.53125 56 
Q 37.453125 56 38.578125 55.875 
Q 39.703125 55.765625 41.0625 55.515625 
z
" id="DejaVuSans-72"/>
      <path id="DejaVuSans-20"/>
      <path d="M 30.609375 48.390625 
Q 23.390625 48.390625 19.1875 42.75 
Q 14.984375 37.109375 14.984375 27.296875 
Q 14.984375 17.484375 19.15625 11.84375 
Q 23.34375 6.203125 30.609375 6.203125 
Q 37.796875 6.203125 41.984375 11.859375 
Q 46.1875 17.53125 46.1875 27.296875 
Q 46.1875 37.015625 41.984375 42.703125 
Q 37.796875 48.390625 30.609375 48.390625 
M 30.609375 56 
Q 42.328125 56 49.015625 48.375 
Q 55.71875 40.765625 55.71875 27.296875 
Q 55.71875 13.875 49.015625 6.21875 
Q 42.328125 -1.421875 30.609375 -1.421875 
Q 18.84375 -1.421875 12.171875 6.21875 
Q 5.515625 13.875 5.515625 27.296875 
Q 5.515625 40.765625 12.171875 48.375 
Q 18.84375 56 30.609375 56 
" id="DejaVuSans-6f"/>
      <path d="M 37.109375 75.984375 
L 37.109375 68.5 
L 28.515625 68.5 
Q 23.6875 68.5 21.796875 66.546875 
Q 19.921875 64.59375 19.921875 59.515625 
L 19.921875 54.6875 
L 34.71875 54.6875 
L 34.71875 47.703125 
L 19.921875 47.703125 
L 19.921875 0 
L 10.890625 0 
L 10.890625 47.703125 
L 2.296875 47.703125 
L 2.296875 54.6875 
L 10.890625 54.6875 
L 10.890625 58.5 
Q 10.890625 67.625 15.140625 71.796875 
Q 19.390625 75.984375 28.609375 75.984375 
z
" id="DejaVuSans-66"/>
      <path d="M 48.78125 52.59375 
L 48.78125 44.1875 
Q 44.96875 46.296875 41.140625 47.34375 
Q 37.3125 48.390625 33.40625 48.390625 
Q 24.65625 48.390625 19.8125 42.84375 
Q 14.984375 37.3125 14.984375 27.296875 
Q 14.984375 17.28125 19.8125 11.734375 
Q 24.65625 6.203125 33.40625 6.203125 
Q 37.3125 6.203125 41.140625 7.25 
Q 44.96875 8.296875 48.78125 10.40625 
L 48.78125 2.09375 
Q 45.015625 0.34375 40.984375 -0.53125 
Q 36.96875 -1.421875 32.421875 -1.421875 
Q 20.0625 -1.421875 12.78125 6.34375 
Q 5.515625 14.109375 5.515625 27.296875 
Q 5.515625 40.671875 12.859375 48.328125 
Q 20.21875 56 33.015625 56 
Q 37.15625 56 41.109375 55.140625 
Q 45.0625 54.296875 48.78125 52.59375 
" id="DejaVuSans-63"/>
      <path d="M 9.421875 75.984375 
L 18.40625 75.984375 
L 18.40625 0 
L 9.421875 0 
z
" id="DejaVuSans-6c"/>
      <path d="M 9.421875 54.6875 
L 18.40625 54.6875 
L 18.40625 0 
L 9.421875 0 
z
M 9.421875 75.984375 
L 18.40625 75.984375 
L 18.40625 64.59375 
L 9.421875 64.59375 
z
" id="DejaVuSans-69"/>
      <path d="M 54.890625 33.015625 
L 54.890625 0 
L 45.90625 0 
L 45.90625 32.71875 
Q 45.90625 40.484375 42.875 44.328125 
Q 39.84375 48.1875 33.796875 48.1875 
Q 26.515625 48.1875 22.3125 43.546875 
Q 18.109375 38.921875 18.109375 30.90625 
L 18.109375 0 
L 9.078125 0 
L 9.078125 54.6875 
L 18.109375 54.6875 
L 18.109375 46.1875 
Q 21.34375 51.125 25.703125 53.5625 
Q 30.078125 56 35.796875 56 
Q 45.21875 56 50.046875 50.171875 
Q 54.890625 44.34375 54.890625 33.015625 
" id="DejaVuSans-6e"/>
      <path d="M 18.3125 70.21875 
L 18.3125 54.6875 
L 36.8125 54.6875 
L 36.8125 47.703125 
L 18.3125 47.703125 
L 18.3125 18.015625 
Q 18.3125 11.328125 20.140625 9.421875 
Q 21.96875 7.515625 27.59375 7.515625 
L 36.8125 7.515625 
L 36.8125 0 
L 27.59375 0 
Q 17.1875 0 13.234375 3.875 
Q 9.28125 7.765625 9.28125 18.015625 
L 9.28125 47.703125 
L 2.6875 47.703125 
L 2.6875 54.6875 
L 9.28125 54.6875 
L 9.28125 70.21875 
z
" id="DejaVuSans-74"/>
      <path d="M 44.28125 53.078125 
L 44.28125 44.578125 
Q 40.484375 46.53125 36.375 47.5 
Q 32.28125 48.484375 27.875 48.484375 
Q 21.1875 48.484375 17.84375 46.4375 
Q 14.5 44.390625 14.5 40.28125 
Q 14.5 37.15625 16.890625 35.375 
Q 19.28125 33.59375 26.515625 31.984375 
L 29.59375 31.296875 
Q 39.15625 29.25 43.1875 25.515625 
Q 47.21875 21.78125 47.21875 15.09375 
Q 47.21875 7.46875 41.1875 3.015625 
Q 35.15625 -1.421875 24.609375 -1.421875 
Q 20.21875 -1.421875 15.453125 -0.5625 
Q 10.6875 0.296875 5.421875 2 
L 5.421875 11.28125 
Q 10.40625 8.6875 15.234375 7.390625 
Q 20.0625 6.109375 24.8125 6.109375 
Q 31.15625 6.109375 34.5625 8.28125 
Q 37.984375 10.453125 37.984375 14.40625 
Q 37.984375 18.0625 35.515625 20.015625 
Q 33.0625 21.96875 24.703125 23.78125 
L 21.578125 24.515625 
Q 13.234375 26.265625 9.515625 29.90625 
Q 5.8125 33.546875 5.8125 39.890625 
Q 5.8125 47.609375 11.28125 51.796875 
Q 16.75 56 26.8125 56 
Q 31.78125 56 36.171875 55.265625 
Q 40.578125 54.546875 44.28125 53.078125 
" id="DejaVuSans-73"/>
     </defs>
     <g transform="translate(191.738906 335.860562)scale(0.1 -0.1)">
      <use xlink:href="#DejaVuSans-4e"/>
      <use x="74.804688" xlink:href="#DejaVuSans-75"/>
      <use x="138.183594" xlink:href="#DejaVuSans-6d"/>
      <use x="235.595703" xlink:href="#DejaVuSans-62"/>
      <use x="299.072266" xlink:href="#DejaVuSans-65"/>
      <use x="360.595703" xlink:href="#DejaVuSans-72"/>
      <use x="401.708984" xlink:href="#DejaVuSans-20"/>
      <use x="433.496094" xlink:href="#DejaVuSans-6f"/>
      <use x="494.677734" xlink:href="#DejaVuSans-66"/>
      <use x="529.882812" xlink:href="#DejaVuSans-20"/>
      <use x="561.669922" xlink:href="#DejaVuSans-63"/>
      <use x="616.650391" xlink:href="#DejaVuSans-6c"/>
      <use x="644.433594" xlink:href="#DejaVuSans-69"/>
      <use x="672.216797" xlink:href="#DejaVuSans-65"/>
      <use x="733.740234" xlink:href="#DejaVuSans-6e"/>
      <use x="797.119141" xlink:href="#DejaVuSans-74"/>
      <use x="836.328125" xlink:href="#DejaVuSans-73"/>
     </g>
    </g>
   </g>
   <g id="matplotlib.axis_2">
    <g id="ytick_1">
     <g id="line2d_13">
      <path clip-path="url(#p5470eca49a)" d="M 57.6 296.031802 
L 414.72 296.031802 
" style="fill:none;stroke:#b0b0b0;stroke-linecap:square;stroke-width:0.8;"/>
     </g>
     <g id="line2d_14">
      <defs>
       <path d="M 0 0 
L -3.5 0 
" id="mde53c5ad20" style="stroke:#000000;stroke-width:0.8;"/>
      </defs>
      <g>
       <use style="stroke:#000000;stroke-width:0.8;" x="57.6" xlink:href="#mde53c5ad20" y="296.031802"/>
      </g>
     </g>
     <g id="text_8">
      <!-- 0 -->
      <g transform="translate(44.2375 299.831021)scale(0.1 -0.1)">
       <use xlink:href="#DejaVuSans-30"/>
      </g>
     </g>
    </g>
    <g id="ytick_2">
     <g id="line2d_15">
      <path clip-path="url(#p5470eca49a)" d="M 57.6 240.371433 
L 414.72 240.371433 
" style="fill:none;stroke:#b0b0b0;stroke-linecap:square;stroke-width:0.8;"/>
     </g>
     <g id="line2d_16">
      <g>
       <use style="stroke:#000000;stroke-width:0.8;" x="57.6" xlink:href="#mde53c5ad20" y="240.371433"/>
      </g>
     </g>
     <g id="text_9">
      <!-- 100 -->
      <g transform="translate(31.5125 244.170652)scale(0.1 -0.1)">
       <use xlink:href="#DejaVuSans-31"/>
       <use x="63.623047" xlink:href="#DejaVuSans-30"/>
       <use x="127.246094" xlink:href="#DejaVuSans-30"/>
      </g>
     </g>
    </g>
    <g id="ytick_3">
     <g id="line2d_17">
      <path clip-path="url(#p5470eca49a)" d="M 57.6 184.711064 
L 414.72 184.711064 
" style="fill:none;stroke:#b0b0b0;stroke-linecap:square;stroke-width:0.8;"/>
     </g>
     <g id="line2d_18">
      <g>
       <use style="stroke:#000000;stroke-width:0.8;" x="57.6" xlink:href="#mde53c5ad20" y="184.711064"/>
      </g>
     </g>
     <g id="text_10">
      <!-- 200 -->
      <g transform="translate(31.5125 188.510283)scale(0.1 -0.1)">
       <use xlink:href="#DejaVuSans-32"/>
       <use x="63.623047" xlink:href="#DejaVuSans-30"/>
       <use x="127.246094" xlink:href="#DejaVuSans-30"/>
      </g>
     </g>
    </g>
    <g id="ytick_4">
     <g id="line2d_19">
      <path clip-path="url(#p5470eca49a)" d="M 57.6 129.050696 
L 414.72 129.050696 
" style="fill:none;stroke:#b0b0b0;stroke-linecap:square;stroke-width:0.8;"/>
     </g>
     <g id="line2d_20">
      <g>
       <use style="stroke:#000000;stroke-width:0.8;" x="57.6" xlink:href="#mde53c5ad20" y="129.050696"/>
      </g>
     </g>
     <g id="text_11">
      <!-- 300 -->
      <defs>
       <path d="M 40.578125 39.3125 
Q 47.65625 37.796875 51.625 33 
Q 55.609375 28.21875 55.609375 21.1875 
Q 55.609375 10.40625 48.1875 4.484375 
Q 40.765625 -1.421875 27.09375 -1.421875 
Q 22.515625 -1.421875 17.65625 -0.515625 
Q 12.796875 0.390625 7.625 2.203125 
L 7.625 11.71875 
Q 11.71875 9.328125 16.59375 8.109375 
Q 21.484375 6.890625 26.8125 6.890625 
Q 36.078125 6.890625 40.9375 10.546875 
Q 45.796875 14.203125 45.796875 21.1875 
Q 45.796875 27.640625 41.28125 31.265625 
Q 36.765625 34.90625 28.71875 34.90625 
L 20.21875 34.90625 
L 20.21875 43.015625 
L 29.109375 43.015625 
Q 36.375 43.015625 40.234375 45.921875 
Q 44.09375 48.828125 44.09375 54.296875 
Q 44.09375 59.90625 40.109375 62.90625 
Q 36.140625 65.921875 28.71875 65.921875 
Q 24.65625 65.921875 20.015625 65.03125 
Q 15.375 64.15625 9.8125 62.3125 
L 9.8125 71.09375 
Q 15.4375 72.65625 20.34375 73.4375 
Q 25.25 74.21875 29.59375 74.21875 
Q 40.828125 74.21875 47.359375 69.109375 
Q 53.90625 64.015625 53.90625 55.328125 
Q 53.90625 49.265625 50.4375 45.09375 
Q 46.96875 40.921875 40.578125 39.3125 
" id="DejaVuSans-33"/>
      </defs>
      <g transform="translate(31.5125 132.849915)scale(0.1 -0.1)">
       <use xlink:href="#DejaVuSans-33"/>
       <use x="63.623047" xlink:href="#DejaVuSans-30"/>
       <use x="127.246094" xlink:href="#DejaVuSans-30"/>
      </g>
     </g>
    </g>
    <g id="ytick_5">
     <g id="line2d_21">
      <path clip-path="url(#p5470eca49a)" d="M 57.6 73.390327 
L 414.72 73.390327 
" style="fill:none;stroke:#b0b0b0;stroke-linecap:square;stroke-width:0.8;"/>
     </g>
     <g id="line2d_22">
      <g>
       <use style="stroke:#000000;stroke-width:0.8;" x="57.6" xlink:href="#mde53c5ad20" y="73.390327"/>
      </g>
     </g>
     <g id="text_12">
      <!-- 400 -->
      <g transform="translate(31.5125 77.189546)scale(0.1 -0.1)">
       <use xlink:href="#DejaVuSans-34"/>
       <use x="63.623047" xlink:href="#DejaVuSans-30"/>
       <use x="127.246094" xlink:href="#DejaVuSans-30"/>
      </g>
     </g>
    </g>
    <g id="text_13">
     <!-- Successful download requests per second -->
     <defs>
      <path d="M 53.515625 70.515625 
L 53.515625 60.890625 
Q 47.90625 63.578125 42.921875 64.890625 
Q 37.9375 66.21875 33.296875 66.21875 
Q 25.25 66.21875 20.875 63.09375 
Q 16.5 59.96875 16.5 54.203125 
Q 16.5 49.359375 19.40625 46.890625 
Q 22.3125 44.4375 30.421875 42.921875 
L 36.375 41.703125 
Q 47.40625 39.59375 52.65625 34.296875 
Q 57.90625 29 57.90625 20.125 
Q 57.90625 9.515625 50.796875 4.046875 
Q 43.703125 -1.421875 29.984375 -1.421875 
Q 24.8125 -1.421875 18.96875 -0.25 
Q 13.140625 0.921875 6.890625 3.21875 
L 6.890625 13.375 
Q 12.890625 10.015625 18.65625 8.296875 
Q 24.421875 6.59375 29.984375 6.59375 
Q 38.421875 6.59375 43.015625 9.90625 
Q 47.609375 13.234375 47.609375 19.390625 
Q 47.609375 24.75 44.3125 27.78125 
Q 41.015625 30.8125 33.5 32.328125 
L 27.484375 33.5 
Q 16.453125 35.6875 11.515625 40.375 
Q 6.59375 45.0625 6.59375 53.421875 
Q 6.59375 63.09375 13.40625 68.65625 
Q 20.21875 74.21875 32.171875 74.21875 
Q 37.3125 74.21875 42.625 73.28125 
Q 47.953125 72.359375 53.515625 70.515625 
" id="DejaVuSans-53"/>
      <path d="M 45.40625 46.390625 
L 45.40625 75.984375 
L 54.390625 75.984375 
L 54.390625 0 
L 45.40625 0 
L 45.40625 8.203125 
Q 42.578125 3.328125 38.25 0.953125 
Q 33.9375 -1.421875 27.875 -1.421875 
Q 17.96875 -1.421875 11.734375 6.484375 
Q 5.515625 14.40625 5.515625 27.296875 
Q 5.515625 40.1875 11.734375 48.09375 
Q 17.96875 56 27.875 56 
Q 33.9375 56 38.25 53.625 
Q 42.578125 51.265625 45.40625 46.390625 
M 14.796875 27.296875 
Q 14.796875 17.390625 18.875 11.75 
Q 22.953125 6.109375 30.078125 6.109375 
Q 37.203125 6.109375 41.296875 11.75 
Q 45.40625 17.390625 45.40625 27.296875 
Q 45.40625 37.203125 41.296875 42.84375 
Q 37.203125 48.484375 30.078125 48.484375 
Q 22.953125 48.484375 18.875 42.84375 
Q 14.796875 37.203125 14.796875 27.296875 
" id="DejaVuSans-64"/>
      <path d="M 4.203125 54.6875 
L 13.1875 54.6875 
L 24.421875 12.015625 
L 35.59375 54.6875 
L 46.1875 54.6875 
L 57.421875 12.015625 
L 68.609375 54.6875 
L 77.59375 54.6875 
L 63.28125 0 
L 52.6875 0 
L 40.921875 44.828125 
L 29.109375 0 
L 18.5 0 
z
" id="DejaVuSans-77"/>
      <path d="M 34.28125 27.484375 
Q 23.390625 27.484375 19.1875 25 
Q 14.984375 22.515625 14.984375 16.5 
Q 14.984375 11.71875 18.140625 8.90625 
Q 21.296875 6.109375 26.703125 6.109375 
Q 34.1875 6.109375 38.703125 11.40625 
Q 43.21875 16.703125 43.21875 25.484375 
L 43.21875 27.484375 
z
M 52.203125 31.203125 
L 52.203125 0 
L 43.21875 0 
L 43.21875 8.296875 
Q 40.140625 3.328125 35.546875 0.953125 
Q 30.953125 -1.421875 24.3125 -1.421875 
Q 15.921875 -1.421875 10.953125 3.296875 
Q 6 8.015625 6 15.921875 
Q 6 25.140625 12.171875 29.828125 
Q 18.359375 34.515625 30.609375 34.515625 
L 43.21875 34.515625 
L 43.21875 35.40625 
Q 43.21875 41.609375 39.140625 45 
Q 35.0625 48.390625 27.6875 48.390625 
Q 23 48.390625 18.546875 47.265625 
Q 14.109375 46.140625 10.015625 43.890625 
L 10.015625 52.203125 
Q 14.9375 54.109375 19.578125 55.046875 
Q 24.21875 56 28.609375 56 
Q 40.484375 56 46.34375 49.84375 
Q 52.203125 43.703125 52.203125 31.203125 
" id="DejaVuSans-61"/>
      <path d="M 14.796875 27.296875 
Q 14.796875 17.390625 18.875 11.75 
Q 22.953125 6.109375 30.078125 6.109375 
Q 37.203125 6.109375 41.296875 11.75 
Q 45.40625 17.390625 45.40625 27.296875 
Q 45.40625 37.203125 41.296875 42.84375 
Q 37.203125 48.484375 30.078125 48.484375 
Q 22.953125 48.484375 18.875 42.84375 
Q 14.796875 37.203125 14.796875 27.296875 
M 45.40625 8.203125 
Q 42.578125 3.328125 38.25 0.953125 
Q 33.9375 -1.421875 27.875 -1.421875 
Q 17.96875 -1.421875 11.734375 6.484375 
Q 5.515625 14.40625 5.515625 27.296875 
Q 5.515625 40.1875 11.734375 48.09375 
Q 17.96875 56 27.875 56 
Q 33.9375 56 38.25 53.625 
Q 42.578125 51.265625 45.40625 46.390625 
L 45.40625 54.6875 
L 54.390625 54.6875 
L 54.390625 -20.796875 
L 45.40625 -20.796875 
z
" id="DejaVuSans-71"/>
      <path d="M 18.109375 8.203125 
L 18.109375 -20.796875 
L 9.078125 -20.796875 
L 9.078125 54.6875 
L 18.109375 54.6875 
L 18.109375 46.390625 
Q 20.953125 51.265625 25.265625 53.625 
Q 29.59375 56 35.59375 56 
Q 45.5625 56 51.78125 48.09375 
Q 58.015625 40.1875 58.015625 27.296875 
Q 58.015625 14.40625 51.78125 6.484375 
Q 45.5625 -1.421875 35.59375 -1.421875 
Q 29.59375 -1.421875 25.265625 0.953125 
Q 20.953125 3.328125 18.109375 8.203125 
M 48.6875 27.296875 
Q 48.6875 37.203125 44.609375 42.84375 
Q 40.53125 48.484375 33.40625 48.484375 
Q 26.265625 48.484375 22.1875 42.84375 
Q 18.109375 37.203125 18.109375 27.296875 
Q 18.109375 17.390625 22.1875 11.75 
Q 26.265625 6.109375 33.40625 6.109375 
Q 40.53125 6.109375 44.609375 11.75 
Q 48.6875 17.390625 48.6875 27.296875 
" id="DejaVuSans-70"/>
     </defs>
     <g transform="translate(25.432812 279.366281)rotate(-90)scale(0.1 -0.1)">
      <use xlink:href="#DejaVuSans-53"/>
      <use x="63.476562" xlink:href="#DejaVuSans-75"/>
      <use x="126.855469" xlink:href="#DejaVuSans-63"/>
      <use x="181.835938" xlink:href="#DejaVuSans-63"/>
      <use x="236.816406" xlink:href="#DejaVuSans-65"/>
      <use x="298.339844" xlink:href="#DejaVuSans-73"/>
      <use x="350.439453" xlink:href="#DejaVuSans-73"/>
      <use x="402.539062" xlink:href="#DejaVuSans-66"/>
      <use x="437.744141" xlink:href="#DejaVuSans-75"/>
      <use x="501.123047" xlink:href="#DejaVuSans-6c"/>
      <use x="528.90625" xlink:href="#DejaVuSans-20"/>
      <use x="560.693359" xlink:href="#DejaVuSans-64"/>
      <use x="624.169922" xlink:href="#DejaVuSans-6f"/>
      <use x="685.351562" xlink:href="#DejaVuSans-77"/>
      <use x="767.138672" xlink:href="#DejaVuSans-6e"/>
      <use x="830.517578" xlink:href="#DejaVuSans-6c"/>
      <use x="858.300781" xlink:href="#DejaVuSans-6f"/>
      <use x="919.482422" xlink:href="#DejaVuSans-61"/>
      <use x="980.761719" xlink:href="#DejaVuSans-64"/>
      <use x="1044.238281" xlink:href="#DejaVuSans-20"/>
      <use x="1076.025391" xlink:href="#DejaVuSans-72"/>
      <use x="1117.107422" xlink:href="#DejaVuSans-65"/>
      <use x="1178.630859" xlink:href="#DejaVuSans-71"/>
      <use x="1242.107422" xlink:href="#DejaVuSans-75"/>
      <use x="1305.486328" xlink:href="#DejaVuSans-65"/>
      <use x="1367.009766" xlink:href="#DejaVuSans-73"/>
      <use x="1419.109375" xlink:href="#DejaVuSans-74"/>
      <use x="1458.318359" xlink:href="#DejaVuSans-73"/>
      <use x="1510.417969" xlink:href="#DejaVuSans-20"/>
      <use x="1542.205078" xlink:href="#DejaVuSans-70"/>
      <use x="1605.681641" xlink:href="#DejaVuSans-65"/>
      <use x="1667.205078" xlink:href="#DejaVuSans-72"/>
      <use x="1708.318359" xlink:href="#DejaVuSans-20"/>
      <use x="1740.105469" xlink:href="#DejaVuSans-73"/>
      <use x="1792.205078" xlink:href="#DejaVuSans-65"/>
      <use x="1853.728516" xlink:href="#DejaVuSans-63"/>
      <use x="1908.708984" xlink:href="#DejaVuSans-6f"/>
      <use x="1969.890625" xlink:href="#DejaVuSans-6e"/>
      <use x="2033.269531" xlink:href="#DejaVuSans-64"/>
     </g>
    </g>
   </g>
   <g id="line2d_23">
    <path clip-path="url(#p5470eca49a)" d="M 57.6 295.488 
L 57.95712 295.478538 
L 59.74272 292.738934 
L 60.09984 292.399963 
L 60.45696 291.840019 
L 61.1712 290.47801 
L 61.52832 290.189133 
L 62.59968 288.673501 
L 62.9568 288.256048 
L 63.31392 287.161209 
L 63.67104 286.896822 
L 64.38528 285.916643 
L 64.7424 284.91587 
L 65.45664 284.445539 
L 65.81376 283.497643 
L 66.17088 283.358492 
L 66.528 282.23137 
L 66.88512 281.572351 
L 67.24224 281.395908 
L 67.59936 280.869361 
L 67.95648 280.7842 
L 68.3136 280.071191 
L 68.67072 279.93037 
L 69.02784 278.650738 
L 69.38496 278.833861 
L 70.0992 277.708408 
L 70.45632 276.267361 
L 70.81344 276.801144 
L 71.8848 274.691616 
L 72.24192 274.124994 
L 72.59904 274.261362 
L 73.31328 272.254249 
L 73.6704 272.078919 
L 74.02752 270.524881 
L 74.38464 269.926532 
L 74.74176 269.769013 
L 75.09888 270.348438 
L 75.81312 268.112004 
L 76.17024 269.102202 
L 76.88448 266.402118 
L 77.2416 267.128486 
L 77.59872 266.315288 
L 77.95584 264.627665 
L 78.31296 264.033769 
L 78.67008 264.054363 
L 79.0272 264.52692 
L 79.38432 262.238166 
L 79.74144 263.232816 
L 80.09856 262.640033 
L 80.45568 261.825722 
L 80.8128 260.546647 
L 81.16992 261.797892 
L 81.52704 259.942732 
L 82.24128 259.454034 
L 82.5984 257.890534 
L 82.95552 259.107826 
L 83.31264 256.365997 
L 83.66976 255.51328 
L 84.02688 256.077119 
L 84.384 255.496582 
L 84.74112 256.004204 
L 85.09824 255.951327 
L 85.45536 253.334176 
L 85.81248 253.894676 
L 86.1696 251.865299 
L 86.88384 251.013139 
L 87.24096 252.650667 
L 87.59808 251.368252 
L 87.9552 251.125016 
L 88.31232 248.998234 
L 88.66944 250.105318 
L 89.02656 247.228791 
L 89.38368 248.044215 
L 89.7408 248.114904 
L 90.09792 247.047338 
L 90.45504 245.351366 
L 90.81216 244.575461 
L 91.16928 245.494413 
L 91.5264 243.650385 
L 91.88352 243.435536 
L 92.24064 243.470046 
L 92.59776 242.920121 
L 92.95488 241.661084 
L 93.66912 240.900763 
L 94.02624 240.959207 
L 94.38336 241.980574 
L 94.74048 242.014527 
L 95.0976 240.906329 
L 95.45472 240.530065 
L 95.81184 237.388037 
L 96.16896 239.735235 
L 96.52608 236.742377 
L 96.8832 236.764085 
L 97.24032 235.555141 
L 97.59744 237.318462 
L 97.95456 235.019689 
L 98.31168 234.626726 
L 98.6688 233.478453 
L 99.02592 235.646424 
L 99.38304 234.920613 
L 99.74016 231.359463 
L 100.09728 233.755642 
L 100.4544 233.713896 
L 100.81152 232.543915 
L 101.16864 232.760434 
L 101.52576 232.069689 
L 102.24 229.198171 
L 102.59712 229.763123 
L 102.95424 229.534359 
L 103.31136 225.783964 
L 103.66848 224.732539 
L 104.0256 224.777624 
L 104.38272 224.647936 
L 104.73984 222.652511 
L 105.09696 225.952058 
L 105.45408 225.884709 
L 105.8112 224.729756 
L 106.16832 222.575143 
L 106.52544 223.363851 
L 106.88256 219.527182 
L 107.23968 220.19121 
L 107.5968 223.332681 
L 107.95392 220.885295 
L 108.31104 221.774191 
L 108.66816 216.621154 
L 109.02528 216.975154 
L 109.73952 219.574493 
L 110.09664 215.316475 
L 110.45376 213.660022 
L 110.81088 213.365022 
L 111.168 213.657796 
L 111.88224 212.476126 
L 112.23936 215.825211 
L 112.59648 211.502626 
L 112.9536 212.300796 
L 113.31072 214.744843 
L 113.66784 208.828702 
L 114.02496 209.042438 
L 114.38208 208.851523 
L 115.09632 207.359268 
L 115.45344 212.073145 
L 115.81056 210.779598 
L 116.16768 205.46459 
L 116.5248 205.381656 
L 116.88192 206.707486 
L 117.23904 208.759127 
L 117.59616 208.432957 
L 117.95328 203.210345 
L 118.3104 204.820599 
L 118.66752 204.050816 
L 119.02464 205.630457 
L 119.73888 200.301534 
L 120.096 200.214704 
L 120.45312 201.669666 
L 120.81024 199.423213 
L 121.16736 198.267147 
L 121.52448 196.59511 
L 121.8816 198.465855 
L 122.23872 202.16226 
L 122.59584 197.488459 
L 122.95296 199.663666 
L 123.31008 198.577732 
L 123.6672 199.561807 
L 124.02432 199.112628 
L 124.38144 198.861043 
L 125.09568 192.689422 
L 125.4528 195.414553 
L 125.80992 192.354903 
L 126.16704 191.348007 
L 126.52416 194.359789 
L 126.88128 189.623092 
L 127.2384 194.491704 
L 127.59552 191.618516 
L 127.95264 192.145063 
L 128.30976 187.127838 
L 128.66688 192.811875 
L 129.024 185.334461 
L 129.38112 187.944932 
L 129.73824 183.786546 
L 130.09536 186.774394 
L 130.45248 188.564988 
L 130.8096 183.5973 
L 131.16672 182.631593 
L 131.52384 185.387895 
L 131.88096 186.879592 
L 132.23808 179.726122 
L 132.5952 181.035254 
L 132.95232 181.054735 
L 133.30944 182.673895 
L 133.66656 185.151895 
L 134.02368 184.989923 
L 134.3808 177.057207 
L 134.73792 176.52899 
L 135.09504 180.380688 
L 135.45216 176.807292 
L 136.1664 179.810726 
L 136.52352 173.375274 
L 136.88064 174.844151 
L 137.23776 173.733727 
L 137.952 178.703641 
L 138.30912 172.326076 
L 138.66624 170.753114 
L 139.7376 174.034849 
L 140.09472 167.816473 
L 140.80896 171.299699 
L 141.16608 166.22403 
L 141.5232 172.042208 
L 141.88032 165.344596 
L 142.23744 165.178728 
L 142.59456 170.505425 
L 142.95168 171.710472 
L 143.3088 169.179595 
L 143.66592 162.911681 
L 144.38016 170.141963 
L 144.73728 168.404803 
L 145.0944 164.804134 
L 145.45152 165.294501 
L 145.80864 167.085652 
L 146.16576 164.653294 
L 146.52288 164.504124 
L 146.88 169.297595 
L 147.23712 164.857011 
L 147.59424 162.724106 
L 147.95136 168.769378 
L 148.30848 167.089548 
L 148.6656 161.937068 
L 149.02272 166.07319 
L 149.73696 161.550228 
L 150.09408 162.663992 
L 150.4512 161.971577 
L 150.80832 161.54021 
L 151.16544 166.737218 
L 151.52256 158.067003 
L 151.87968 157.757531 
L 152.2368 165.772624 
L 152.59392 165.878935 
L 153.66528 159.331606 
L 154.0224 164.112275 
L 154.37952 156.367692 
L 154.73664 158.908587 
L 155.09376 163.645841 
L 155.45088 162.669002 
L 155.808 160.339615 
L 156.16512 156.033729 
L 156.52224 159.397285 
L 156.87936 156.805182 
L 157.23648 162.951757 
L 157.5936 161.240757 
L 157.95072 154.692314 
L 158.30784 158.708767 
L 158.66496 157.157512 
L 159.02208 154.061126 
L 159.3792 161.095483 
L 159.73632 154.360022 
L 160.09344 157.583314 
L 160.45056 152.526569 
L 161.1648 155.332965 
L 161.52192 153.664267 
L 161.87904 155.90738 
L 162.23616 151.990004 
L 162.59328 156.080484 
L 162.9504 151.784617 
L 163.30752 153.724937 
L 163.66464 154.233673 
L 164.02176 153.108777 
L 164.37888 150.961957 
L 164.736 157.704097 
L 165.09312 151.209089 
L 165.45024 153.306371 
L 165.80736 158.053644 
L 166.16448 154.128475 
L 166.5216 157.915606 
L 166.87872 155.636314 
L 167.23584 148.775061 
L 167.59296 155.590673 
L 167.95008 156.123342 
L 168.3072 146.504674 
L 168.66432 149.732419 
L 169.02144 148.183391 
L 169.73568 152.612286 
L 170.0928 149.60941 
L 170.80704 152.87222 
L 171.16416 147.60508 
L 171.52128 155.128692 
L 171.8784 153.046994 
L 172.23552 148.43108 
L 172.59264 153.062579 
L 172.94976 145.771627 
L 173.30688 144.630033 
L 174.02112 149.958957 
L 174.37824 145.028561 
L 174.73536 147.552759 
L 175.09248 152.028966 
L 175.4496 152.505419 
L 175.80672 147.254419 
L 176.16384 150.240598 
L 176.52096 147.166476 
L 176.87808 146.464042 
L 177.2352 147.233268 
L 177.59232 145.240627 
L 177.94944 150.625768 
L 178.30656 144.916684 
L 178.66368 150.403683 
L 179.0208 147.961863 
L 179.37792 146.769061 
L 179.73504 140.144364 
L 180.09216 150.502758 
L 180.8064 140.386486 
L 181.16352 144.045042 
L 181.52064 139.435251 
L 181.87776 141.408411 
L 182.23488 147.916778 
L 182.592 139.390722 
L 182.94912 139.307789 
L 183.30624 144.380118 
L 183.66336 143.772863 
L 184.02048 141.956109 
L 184.3776 146.120618 
L 184.73472 137.900694 
L 185.09184 147.826051 
L 185.44896 140.536769 
L 185.80608 137.88344 
L 186.52032 142.03292 
L 186.87744 141.692279 
L 187.23456 140.196128 
L 187.59168 144.972344 
L 187.9488 144.119071 
L 188.30592 138.269166 
L 188.66304 142.85892 
L 189.02016 141.844788 
L 189.37728 145.039693 
L 189.7344 136.351666 
L 190.09152 135.011921 
L 190.44864 144.103486 
L 190.80576 135.783931 
L 191.16288 135.541808 
L 191.52 141.496354 
L 191.87712 143.549665 
L 192.23424 144.184193 
L 192.59136 138.888666 
L 192.94848 141.074449 
L 193.3056 141.595986 
L 193.66272 143.241307 
L 194.01984 141.727901 
L 194.37696 136.518091 
L 194.73408 134.25995 
L 195.0912 138.126675 
L 195.44832 139.124666 
L 195.80544 140.955335 
L 196.16256 140.310232 
L 196.51968 136.014364 
L 196.8768 140.752175 
L 197.23392 130.719394 
L 197.59104 136.667817 
L 197.94816 140.08926 
L 198.30528 139.036723 
L 198.6624 132.494959 
L 199.01952 134.517101 
L 199.37664 130.765592 
L 199.73376 140.081468 
L 200.09088 132.090309 
L 200.448 138.0276 
L 200.80512 137.589553 
L 201.16224 132.196063 
L 201.51936 129.324545 
L 201.87648 131.800318 
L 202.2336 138.7946 
L 202.59072 134.01727 
L 202.94784 132.927997 
L 203.30496 133.216318 
L 203.66208 136.538685 
L 204.0192 132.733742 
L 204.37632 135.543478 
L 204.73344 136.796949 
L 205.09056 136.489704 
L 205.44768 127.653621 
L 205.8048 134.438063 
L 206.51904 126.97846 
L 206.87616 136.810864 
L 207.23328 132.272318 
L 207.5904 125.613111 
L 207.94752 127.817262 
L 208.30464 132.167676 
L 208.66176 125.082668 
L 209.01888 125.845215 
L 209.376 125.44613 
L 209.73312 128.145102 
L 210.09024 126.823168 
L 210.44736 129.975214 
L 210.80448 134.747535 
L 211.1616 129.452007 
L 211.51872 133.257506 
L 211.87584 130.499535 
L 212.23296 130.638686 
L 212.59008 130.439979 
L 212.9472 131.973978 
L 213.30432 127.363073 
L 213.66144 125.911451 
L 214.01856 129.755913 
L 214.37568 129.509337 
L 214.7328 134.181469 
L 215.08992 127.468828 
L 215.44704 132.661384 
L 215.80416 123.786895 
L 216.16128 124.098593 
L 216.5184 128.888167 
L 216.87552 131.251507 
L 217.23264 123.029914 
L 217.58976 132.888478 
L 217.94688 130.646479 
L 218.304 123.21415 
L 218.66112 128.563111 
L 219.37536 119.990301 
L 219.73248 128.449007 
L 220.0896 123.8843 
L 220.80384 124.034027 
L 221.16096 122.884084 
L 221.51808 122.587414 
L 221.8752 126.943394 
L 222.23232 119.548358 
L 222.58944 127.403149 
L 222.94656 121.476433 
L 223.30368 120.333169 
L 223.6608 130.267988 
L 224.01792 126.362857 
L 224.37504 129.317866 
L 224.73216 119.556707 
L 225.08928 118.284311 
L 225.4464 127.075309 
L 225.80352 125.5953 
L 226.16064 117.001896 
L 226.51776 119.70365 
L 226.87488 128.818592 
L 227.232 128.103913 
L 227.58912 126.696262 
L 227.94624 121.99797 
L 228.30336 123.029357 
L 228.66048 117.79116 
L 229.0176 122.282395 
L 229.37472 123.039933 
L 229.73184 127.430979 
L 230.08896 126.169158 
L 230.44608 119.150943 
L 230.8032 125.936498 
L 231.16032 123.642734 
L 231.51744 126.555998 
L 231.87456 124.679687 
L 232.23168 119.732593 
L 232.5888 120.612584 
L 232.94592 126.404602 
L 233.30304 117.49115 
L 233.66016 122.026357 
L 234.01728 117.058113 
L 234.3744 125.158923 
L 235.08864 114.756 
L 235.44576 121.106291 
L 235.80288 122.807829 
L 236.16 112.844623 
L 236.51712 114.529462 
L 236.87424 123.541989 
L 237.23136 116.041754 
L 237.58848 122.738253 
L 237.9456 120.116093 
L 238.30272 120.344301 
L 238.65984 118.518641 
L 239.01696 121.502037 
L 239.37408 117.331405 
L 239.7312 115.059349 
L 240.08832 115.533019 
L 240.44544 120.978829 
L 240.80256 119.198811 
L 241.15968 118.560386 
L 241.5168 115.371047 
L 241.87392 118.375594 
L 242.23104 116.7325 
L 242.58816 112.883585 
L 242.94528 120.371018 
L 243.3024 111.686331 
L 243.65952 117.512301 
L 244.01664 121.464188 
L 244.37376 117.828452 
L 244.73088 115.484038 
L 245.088 120.638744 
L 245.44512 120.735037 
L 245.80224 112.595821 
L 246.15936 117.327509 
L 246.51648 118.265386 
L 246.8736 117.769452 
L 247.23072 107.903095 
L 247.58784 112.120481 
L 247.94496 120.040952 
L 248.30208 107.776746 
L 248.6592 116.830462 
L 249.01632 112.801208 
L 249.37344 110.857548 
L 249.73056 115.112783 
L 250.08768 115.330971 
L 250.4448 114.328528 
L 250.80192 106.551105 
L 251.15904 107.721086 
L 251.87328 115.059349 
L 252.2304 113.095651 
L 252.58752 109.969208 
L 253.30176 117.603584 
L 253.65888 118.122896 
L 254.37312 105.701171 
L 254.73024 117.651452 
L 255.08736 115.466226 
L 255.44448 107.738341 
L 255.8016 108.469718 
L 256.15872 117.02082 
L 256.51584 116.87332 
L 256.87296 110.012623 
L 257.23008 114.99033 
L 257.5872 106.367426 
L 257.94432 106.347945 
L 258.30144 113.925547 
L 258.65856 106.040143 
L 259.01568 114.305151 
L 259.3728 107.707171 
L 259.72992 110.776284 
L 260.08704 110.924897 
L 260.44416 113.405123 
L 260.80128 108.307746 
L 261.1584 110.939368 
L 261.51552 110.954397 
L 261.87264 105.994501 
L 262.22976 106.468728 
L 262.58688 104.412077 
L 262.944 109.314086 
L 263.30112 110.174595 
L 263.65824 107.080435 
L 264.01536 106.234954 
L 264.37248 110.320425 
L 264.7296 102.859709 
L 265.08672 108.440774 
L 265.44384 105.075549 
L 265.80096 111.735312 
L 266.15808 102.884756 
L 266.5152 109.635246 
L 266.87232 100.771332 
L 267.22944 101.334059 
L 267.58656 100.963361 
L 267.94368 113.085076 
L 268.3008 105.480756 
L 268.65792 103.790351 
L 269.01504 107.129973 
L 269.37216 100.058323 
L 269.72928 110.221906 
L 270.0864 98.79038 
L 270.44352 103.520398 
L 270.80064 110.637133 
L 271.51488 106.473737 
L 271.872 98.149172 
L 272.58624 108.206444 
L 272.94336 101.311794 
L 273.30048 97.967163 
L 273.6576 104.370332 
L 274.01472 98.002786 
L 274.37184 100.486908 
L 274.72896 98.095738 
L 275.08608 96.901823 
L 275.4432 97.171776 
L 275.80032 102.806275 
L 276.15744 102.200691 
L 276.51456 107.106039 
L 276.87168 108.476954 
L 277.2288 106.992492 
L 277.58592 103.221502 
L 278.30016 105.911567 
L 278.65728 104.633049 
L 279.0144 107.948737 
L 279.37152 108.30218 
L 279.72864 105.588737 
L 280.08576 97.295899 
L 280.44288 104.026907 
L 280.8 102.067106 
L 281.15712 95.209748 
L 281.51424 98.480351 
L 281.87136 100.145153 
L 282.22848 104.894096 
L 282.5856 105.575935 
L 282.94272 106.753709 
L 283.29984 95.72405 
L 283.65696 100.993974 
L 284.01408 94.13105 
L 284.3712 103.778662 
L 284.72832 105.287058 
L 285.44256 96.339097 
L 285.79968 104.17886 
L 286.1568 93.33455 
L 286.51392 97.322059 
L 286.87104 105.791341 
L 287.22816 93.616192 
L 287.58528 101.394728 
L 287.9424 103.813171 
L 288.29952 98.832125 
L 288.65664 102.582521 
L 289.01376 95.662824 
L 289.728 100.668361 
L 290.08512 104.731567 
L 290.44224 99.503946 
L 290.79936 102.409974 
L 291.15648 100.90937 
L 291.5136 104.237303 
L 291.87072 96.882899 
L 292.22784 103.652313 
L 292.58496 103.604445 
L 292.94208 90.934475 
L 293.65632 100.764653 
L 294.01344 97.150625 
L 294.37056 89.733325 
L 294.72768 91.253966 
L 295.44192 102.217945 
L 296.15616 100.19803 
L 296.51328 94.438852 
L 296.8704 91.588485 
L 297.22752 99.563502 
L 297.58464 100.446276 
L 297.94176 91.040787 
L 298.29888 89.462259 
L 298.656 101.953002 
L 299.37024 95.891588 
L 299.72736 100.858719 
L 300.4416 98.916729 
L 300.79872 99.733266 
L 301.51296 92.670522 
L 301.87008 89.564674 
L 302.2272 90.847089 
L 302.58432 95.031635 
L 302.94144 97.168993 
L 303.29856 95.643342 
L 303.65568 100.14738 
L 304.0128 88.814372 
L 304.36992 93.584465 
L 304.72704 88.834966 
L 305.08416 90.331117 
L 305.44128 96.376946 
L 305.7984 90.958966 
L 306.15552 96.585116 
L 306.51264 92.178485 
L 306.86976 95.526456 
L 307.22688 92.103343 
L 307.584 86.727665 
L 307.94112 92.265315 
L 308.29824 89.456693 
L 308.65536 97.355455 
L 309.01248 88.77374 
L 309.3696 94.49006 
L 309.72672 96.418691 
L 310.08384 96.571201 
L 310.44096 88.934598 
L 310.79808 87.732334 
L 311.1552 89.870806 
L 311.51232 86.067533 
L 311.86944 96.684191 
L 312.22656 96.511088 
L 312.58368 92.81023 
L 312.9408 97.25304 
L 313.29792 97.125578 
L 313.65504 95.28322 
L 314.01216 96.333531 
L 314.36928 96.668606 
L 314.7264 90.954513 
L 315.08352 94.575777 
L 315.44064 84.757288 
L 315.79776 94.649248 
L 316.15488 90.329447 
L 316.512 92.431739 
L 316.86912 93.307277 
L 317.22624 83.371901 
L 317.58336 84.273599 
L 317.94048 92.233032 
L 318.2976 94.10322 
L 318.65472 88.370202 
L 319.01184 91.383098 
L 319.36896 89.931475 
L 319.72608 87.122853 
L 320.0832 82.383929 
L 320.44032 85.084571 
L 320.79744 91.724296 
L 321.15456 94.373729 
L 321.51168 91.304617 
L 321.8688 81.601345 
L 322.22592 88.375768 
L 322.58304 89.790098 
L 322.94016 93.686881 
L 323.29728 81.997647 
L 323.6544 85.12242 
L 324.01152 91.675871 
L 324.36864 90.428523 
L 324.72576 89.968768 
L 325.08288 85.683476 
L 325.44 87.985032 
L 325.79712 88.617891 
L 326.15424 88.157023 
L 326.51136 81.870184 
L 327.58272 87.712297 
L 327.93984 79.415562 
L 328.29696 79.66659 
L 329.0112 83.818854 
L 329.36832 92.978881 
L 329.72544 78.565628 
L 330.08256 91.464362 
L 330.43968 77.617175 
L 330.7968 87.131202 
L 331.15392 77.617175 
L 331.51104 90.51257 
L 331.86816 78.660807 
L 332.22528 87.827514 
L 332.5824 77.420694 
L 332.93952 86.85791 
L 333.29664 86.180523 
L 333.65376 82.828099 
L 334.01088 81.70209 
L 334.368 89.884721 
L 334.72512 78.015704 
L 335.08224 88.916787 
L 335.43936 79.470109 
L 335.79648 90.538173 
L 336.1536 90.432419 
L 336.51072 83.70475 
L 336.86784 87.379448 
L 337.22496 83.532759 
L 337.58208 88.123627 
L 337.9392 79.062119 
L 338.29632 86.178297 
L 338.65344 77.927204 
L 339.01056 79.969383 
L 339.36768 83.718665 
L 339.7248 74.663836 
L 340.08192 83.363552 
L 340.43904 87.928259 
L 340.79616 79.033175 
L 341.15328 87.205231 
L 341.5104 88.157023 
L 341.86752 73.867336 
L 342.58176 84.293637 
L 342.93888 80.40242 
L 343.296 81.525647 
L 343.65312 79.438383 
L 344.01024 83.807165 
L 344.36736 82.530873 
L 344.72448 77.818109 
L 345.43872 82.29042 
L 345.79584 82.341071 
L 346.15296 79.528553 
L 346.51008 84.415533 
L 346.8672 87.067749 
L 347.22432 83.234977 
L 347.58144 78.05077 
L 347.93856 77.394534 
L 348.29568 74.226902 
L 348.6528 84.214042 
L 349.36704 75.66127 
L 349.72416 78.918515 
L 350.08128 77.176902 
L 350.4384 82.075571 
L 350.79552 85.32558 
L 351.15264 83.20659 
L 351.50976 85.026127 
L 351.86688 71.015299 
L 352.224 72.357827 
L 352.58112 83.220505 
L 352.93824 71.115488 
L 353.29536 84.358203 
L 353.65248 84.525184 
L 354.0096 71.802893 
L 354.36672 72.170252 
L 354.72384 73.693676 
L 355.08096 82.456845 
L 355.43808 73.100893 
L 355.7952 84.123316 
L 356.15232 80.533222 
L 356.50944 79.351553 
L 356.86656 76.406562 
L 357.22368 79.87643 
L 357.93792 69.464601 
L 358.29504 78.678619 
L 358.65216 82.236429 
L 359.00928 68.905215 
L 359.3664 78.96026 
L 359.72352 81.073684 
L 360.08064 68.887403 
L 360.43776 80.552703 
L 360.79488 79.797949 
L 361.152 76.183921 
L 361.50912 81.192798 
L 361.86624 77.033855 
L 362.22336 81.807845 
L 362.58048 75.725836 
L 362.9376 83.241099 
L 363.29472 68.97312 
L 363.65184 72.824261 
L 364.00896 74.484053 
L 364.36608 78.405883 
L 364.7232 78.144836 
L 365.08032 74.450101 
L 365.43744 72.437422 
L 366.5088 79.717798 
L 366.86592 78.621289 
L 367.22304 78.393081 
L 367.58016 78.615723 
L 367.93728 66.29196 
L 368.2944 70.650724 
L 368.65152 73.079186 
L 369.00864 70.607309 
L 369.36576 77.556506 
L 370.08 69.073309 
L 370.43712 74.012053 
L 370.79424 76.417138 
L 371.15136 80.296666 
L 371.50848 80.895015 
L 371.8656 69.775186 
L 372.22272 77.78694 
L 372.57984 76.6036 
L 372.93696 79.01759 
L 373.29408 80.266609 
L 373.6512 66.818507 
L 374.00832 70.01063 
L 374.36544 77.655581 
L 374.72256 75.07294 
L 375.07968 68.14879 
L 375.4368 71.071516 
L 375.79392 72.565997 
L 376.15104 77.251487 
L 376.50816 71.261318 
L 376.86528 74.175138 
L 377.2224 65.375791 
L 377.57952 69.447347 
L 377.93664 63.933074 
L 378.29376 77.586006 
L 378.65088 67.695715 
L 379.008 75.908402 
L 379.36512 70.551092 
L 379.72224 63.162178 
L 380.07936 77.254826 
L 380.43648 72.709601 
L 380.7936 63.217282 
L 381.15072 74.65994 
L 381.50784 77.954477 
L 381.86496 70.272233 
L 382.22208 69.059394 
L 382.5792 75.538261 
L 382.93632 61.872527 
L 383.29344 63.987621 
L 383.65056 76.731062 
L 384.00768 72.265988 
L 384.3648 70.476507 
L 384.72192 72.895506 
L 385.07904 61.184565 
L 385.43616 76.193383 
L 385.79328 66.301979 
L 386.1504 74.802987 
L 386.50752 74.461233 
L 386.86464 61.704433 
L 387.22176 66.354856 
L 387.57888 60.465433 
L 388.29312 65.533309 
L 388.65024 70.871695 
L 389.00736 72.957846 
L 389.36448 69.407828 
L 389.7216 70.536063 
L 390.07872 60.907933 
L 390.43584 61.586989 
L 390.79296 71.410488 
L 391.15008 68.995941 
L 391.5072 67.972347 
L 391.86432 72.254856 
L 392.22144 68.560677 
L 392.57856 71.155007 
L 392.93568 65.099159 
L 393.2928 74.688327 
L 393.64992 68.579601 
L 394.00704 69.399479 
L 394.36416 73.962516 
L 394.72128 61.090499 
L 395.0784 59.395084 
L 395.43552 70.405262 
L 395.79264 68.295734 
L 396.14976 71.385441 
L 396.50688 60.053546 
L 396.864 61.90815 
L 397.22112 63.096499 
L 397.57824 65.304545 
L 397.93536 58.96316 
L 398.29248 57.69633 
L 398.6496 58.016377 
L 399.00672 67.551554 
L 399.36384 61.652669 
L 399.72096 60.301791 
L 400.07808 63.269602 
L 400.4352 63.442706 
L 400.79232 59.225876 
L 401.14944 67.461385 
L 401.50656 71.427186 
L 401.86368 62.695744 
L 402.2208 66.260234 
L 402.57792 60.139263 
L 402.93504 70.206554 
L 403.29216 61.679386 
L 403.64928 64.947206 
L 404.0064 65.392489 
L 404.36352 56.331537 
L 404.72064 65.021791 
L 405.07776 64.79414 
L 405.43488 67.295517 
L 405.792 57.699669 
L 406.14912 60.217188 
L 406.50624 69.702828 
L 406.86336 58.594688 
L 407.22048 64.188555 
L 407.5776 66.004196 
L 407.93472 56.351575 
L 408.29184 69.048818 
L 408.64896 64.834215 
L 409.00608 67.21147 
L 409.3632 61.470103 
L 409.72032 58.110443 
L 410.07744 62.910036 
L 410.43456 65.240536 
L 411.1488 55.565094 
L 411.50592 55.335217 
L 411.86304 56.088858 
L 412.22016 53.568 
L 412.57728 69.585941 
L 412.9344 68.4783 
L 413.29152 64.412866 
L 413.64864 63.76164 
L 414.00576 67.803696 
L 414.36288 60.807744 
L 414.72 64.136791 
L 414.72 64.136791 
" style="fill:none;stroke:#000080;stroke-linecap:square;stroke-width:0.5;"/>
   </g>
   <g id="patch_3">
    <path d="M 57.6 307.584 
L 57.6 41.472 
" style="fill:none;stroke:#000000;stroke-linecap:square;stroke-linejoin:miter;stroke-width:0.8;"/>
   </g>
   <g id="patch_4">
    <path d="M 414.72 307.584 
L 414.72 41.472 
" style="fill:none;stroke:#000000;stroke-linecap:square;stroke-linejoin:miter;stroke-width:0.8;"/>
   </g>
   <g id="patch_5">
    <path d="M 57.6 307.584 
L 414.72 307.584 
" style="fill:none;stroke:#000000;stroke-linecap:square;stroke-linejoin:miter;stroke-width:0.8;"/>
   </g>
   <g id="patch_6">
    <path d="M 57.6 41.472 
L 414.72 41.472 
" style="fill:none;stroke:#000000;stroke-linecap:square;stroke-linejoin:miter;stroke-width:0.8;"/>
   </g>
   <g id="text_14">
    <!-- Test -->
    <defs>
     <path d="M -0.296875 72.90625 
L 61.375 72.90625 
L 61.375 64.59375 
L 35.5 64.59375 
L 35.5 0 
L 25.59375 0 
L 25.59375 64.59375 
L -0.296875 64.59375 
z
" id="DejaVuSans-54"/>
    </defs>
    <g transform="translate(223.341563 35.472)scale(0.12 -0.12)">
     <use xlink:href="#DejaVuSans-54"/>
     <use x="60.818359" xlink:href="#DejaVuSans-65"/>
     <use x="122.341797" xlink:href="#DejaVuSans-73"/>
     <use x="174.441406" xlink:href="#DejaVuSans-74"/>
    </g>
   </g>
   <g id="legend_1">
    <g id="patch_7">
     <path d="M 64.6 64.150125 
L 306.276563 64.150125 
Q 308.276563 64.150125 308.276563 62.150125 
L 308.276563 48.472 
Q 308.276563 46.472 306.276563 46.472 
L 64.6 46.472 
Q 62.6 46.472 62.6 48.472 
L 62.6 62.150125 
Q 62.6 64.150125 64.6 64.150125 
z
" style="fill:#ffffff;opacity:0.8;stroke:#cccccc;stroke-linejoin:miter;"/>
    </g>
    <g id="line2d_24">
     <path d="M 66.6 54.570438 
L 86.6 54.570438 
" style="fill:none;stroke:#000080;stroke-linecap:square;stroke-width:0.5;"/>
    </g>
    <g id="line2d_25"/>
    <g id="text_15">
     <!-- Successful download requests per second -->
     <g transform="translate(94.6 58.070438)scale(0.1 -0.1)">
      <use xlink:href="#DejaVuSans-53"/>
      <use x="63.476562" xlink:href="#DejaVuSans-75"/>
      <use x="126.855469" xlink:href="#DejaVuSans-63"/>
      <use x="181.835938" xlink:href="#DejaVuSans-63"/>
      <use x="236.816406" xlink:href="#DejaVuSans-65"/>
      <use x="298.339844" xlink:href="#DejaVuSans-73"/>
      <use x="350.439453" xlink:href="#DejaVuSans-73"/>
      <use x="402.539062" xlink:href="#DejaVuSans-66"/>
      <use x="437.744141" xlink:href="#DejaVuSans-75"/>
      <use x="501.123047" xlink:href="#DejaVuSans-6c"/>
      <use x="528.90625" xlink:href="#DejaVuSans-20"/>
      <use x="560.693359" xlink:href="#DejaVuSans-64"/>
      <use x="624.169922" xlink:href="#DejaVuSans-6f"/>
      <use x="685.351562" xlink:href="#DejaVuSans-77"/>
      <use x="767.138672" xlink:href="#DejaVuSans-6e"/>
      <use x="830.517578" xlink:href="#DejaVuSans-6c"/>
      <use x="858.300781" xlink:href="#DejaVuSans-6f"/>
      <use x="919.482422" xlink:href="#DejaVuSans-61"/>
      <use x="980.761719" xlink:href="#DejaVuSans-64"/>
      <use x="1044.238281" xlink:href="#DejaVuSans-20"/>
      <use x="1076.025391" xlink:href="#DejaVuSans-72"/>
      <use x="1117.107422" xlink:href="#DejaVuSans-65"/>
      <use x="1178.630859" xlink:href="#DejaVuSans-71"/>
      <use x="1242.107422" xlink:href="#DejaVuSans-75"/>
      <use x="1305.486328" xlink:href="#DejaVuSans-65"/>
      <use x="1367.009766" xlink:href="#DejaVuSans-73"/>
      <use x="1419.109375" xlink:href="#DejaVuSans-74"/>
      <use x="1458.318359" xlink:href="#DejaVuSans-73"/>
      <use x="1510.417969" xlink:href="#DejaVuSans-20"/>
      <use x="1542.205078" xlink:href="#DejaVuSans-70"/>
      <use x="1605.681641" xlink:href="#DejaVuSans-65"/>
      <use x="1667.205078" xlink:href="#DejaVuSans-72"/>
      <use x="1708.318359" xlink:href="#DejaVuSans-20"/>
      <use x="1740.105469" xlink:href="#DejaVuSans-73"/>
      <use x="1792.205078" xlink:href="#DejaVuSans-65"/>
      <use x="1853.728516" xlink:href="#DejaVuSans-63"/>
      <use x="1908.708984" xlink:href="#DejaVuSans-6f"/>
      <use x="1969.890625" xlink:href="#DejaVuSans-6e"/>
      <use x="2033.269531" xlink:href="#DejaVuSans-64"/>
     </g>
    </g>
   </g>
  </g>
 </g>
 <defs>
  <clipPath id="p5470eca49a">
   <rect height="266.112" width="357.12" x="57.6" y="41.472"/>
  </clipPath>
 </defs>
</svg>
