<?xml version="1.0" encoding="utf-8" standalone="no"?>
<!DOCTYPE svg PUBLIC "-//W3C//DTD SVG 1.1//EN"
  "http://www.w3.org/Graphics/SVG/1.1/DTD/svg11.dtd">
<!-- Created with matplotlib (http://matplotlib.org/) -->
<svg height="345pt" version="1.1" viewBox="0 0 460 345" width="460pt" xmlns="http://www.w3.org/2000/svg" xmlns:xlink="http://www.w3.org/1999/xlink">
 <defs>
  <style type="text/css">
*{stroke-linecap:butt;stroke-linejoin:round;}
  </style>
 </defs>
 <g id="figure_1">
  <g id="patch_1">
   <path d="M 0 345.6 
L 460.8 345.6 
L 460.8 0 
L 0 0 
z
" style="fill:#ffffff;"/>
  </g>
  <g id="axes_1">
   <g id="patch_2">
    <path d="M 57.6 307.584 
L 414.72 307.584 
L 414.72 41.472 
L 57.6 41.472 
z
" style="fill:#ffffff;"/>
   </g>
   <g id="matplotlib.axis_1">
    <g id="xtick_1">
     <g id="line2d_1">
      <path clip-path="url(#p805fa60430)" d="M 57.6 307.584 
L 57.6 41.472 
" style="fill:none;stroke:#b0b0b0;stroke-linecap:square;stroke-width:0.8;"/>
     </g>
     <g id="line2d_2">
      <defs>
       <path d="M 0 0 
L 0 3.5 
" id="mec69c83650" style="stroke:#000000;stroke-width:0.8;"/>
      </defs>
      <g>
       <use style="stroke:#000000;stroke-width:0.8;" x="57.6" xlink:href="#mec69c83650" y="307.584"/>
      </g>
     </g>
     <g id="text_1">
      <!-- 0 -->
      <defs>
       <path d="M 31.78125 66.40625 
Q 24.171875 66.40625 20.328125 58.90625 
Q 16.5 51.421875 16.5 36.375 
Q 16.5 21.390625 20.328125 13.890625 
Q 24.171875 6.390625 31.78125 6.390625 
Q 39.453125 6.390625 43.28125 13.890625 
Q 47.125 21.390625 47.125 36.375 
Q 47.125 51.421875 43.28125 58.90625 
Q 39.453125 66.40625 31.78125 66.40625 
M 31.78125 74.21875 
Q 44.046875 74.21875 50.515625 64.515625 
Q 56.984375 54.828125 56.984375 36.375 
Q 56.984375 17.96875 50.515625 8.265625 
Q 44.046875 -1.421875 31.78125 -1.421875 
Q 19.53125 -1.421875 13.0625 8.265625 
Q 6.59375 17.96875 6.59375 36.375 
Q 6.59375 54.828125 13.0625 64.515625 
Q 19.53125 74.21875 31.78125 74.21875 
" id="DejaVuSans-30"/>
      </defs>
      <g transform="translate(54.41875 322.182437)scale(0.1 -0.1)">
       <use xlink:href="#DejaVuSans-30"/>
      </g>
     </g>
    </g>
    <g id="xtick_2">
     <g id="line2d_3">
      <path clip-path="url(#p805fa60430)" d="M 129.024 307.584 
L 129.024 41.472 
" style="fill:none;stroke:#b0b0b0;stroke-linecap:square;stroke-width:0.8;"/>
     </g>
     <g id="line2d_4">
      <g>
       <use style="stroke:#000000;stroke-width:0.8;" x="129.024" xlink:href="#mec69c83650" y="307.584"/>
      </g>
     </g>
     <g id="text_2">
      <!-- 200 -->
      <defs>
       <path d="M 19.1875 8.296875 
L 53.609375 8.296875 
L 53.609375 0 
L 7.328125 0 
L 7.328125 8.296875 
Q 12.9375 14.109375 22.625 23.890625 
Q 32.328125 33.6875 34.8125 36.53125 
Q 39.546875 41.84375 41.421875 45.53125 
Q 43.3125 49.21875 43.3125 52.78125 
Q 43.3125 58.59375 39.234375 62.25 
Q 35.15625 65.921875 28.609375 65.921875 
Q 23.96875 65.921875 18.8125 64.3125 
Q 13.671875 62.703125 7.8125 59.421875 
L 7.8125 69.390625 
Q 13.765625 71.78125 18.9375 73 
Q 24.125 74.21875 28.421875 74.21875 
Q 39.75 74.21875 46.484375 68.546875 
Q 53.21875 62.890625 53.21875 53.421875 
Q 53.21875 48.921875 51.53125 44.890625 
Q 49.859375 40.875 45.40625 35.40625 
Q 44.1875 33.984375 37.640625 27.21875 
Q 31.109375 20.453125 19.1875 8.296875 
" id="DejaVuSans-32"/>
      </defs>
      <g transform="translate(119.48025 322.182437)scale(0.1 -0.1)">
       <use xlink:href="#DejaVuSans-32"/>
       <use x="63.623047" xlink:href="#DejaVuSans-30"/>
       <use x="127.246094" xlink:href="#DejaVuSans-30"/>
      </g>
     </g>
    </g>
    <g id="xtick_3">
     <g id="line2d_5">
      <path clip-path="url(#p805fa60430)" d="M 200.448 307.584 
L 200.448 41.472 
" style="fill:none;stroke:#b0b0b0;stroke-linecap:square;stroke-width:0.8;"/>
     </g>
     <g id="line2d_6">
      <g>
       <use style="stroke:#000000;stroke-width:0.8;" x="200.448" xlink:href="#mec69c83650" y="307.584"/>
      </g>
     </g>
     <g id="text_3">
      <!-- 400 -->
      <defs>
       <path d="M 37.796875 64.3125 
L 12.890625 25.390625 
L 37.796875 25.390625 
z
M 35.203125 72.90625 
L 47.609375 72.90625 
L 47.609375 25.390625 
L 58.015625 25.390625 
L 58.015625 17.1875 
L 47.609375 17.1875 
L 47.609375 0 
L 37.796875 0 
L 37.796875 17.1875 
L 4.890625 17.1875 
L 4.890625 26.703125 
z
" id="DejaVuSans-34"/>
      </defs>
      <g transform="translate(190.90425 322.182437)scale(0.1 -0.1)">
       <use xlink:href="#DejaVuSans-34"/>
       <use x="63.623047" xlink:href="#DejaVuSans-30"/>
       <use x="127.246094" xlink:href="#DejaVuSans-30"/>
      </g>
     </g>
    </g>
    <g id="xtick_4">
     <g id="line2d_7">
      <path clip-path="url(#p805fa60430)" d="M 271.872 307.584 
L 271.872 41.472 
" style="fill:none;stroke:#b0b0b0;stroke-linecap:square;stroke-width:0.8;"/>
     </g>
     <g id="line2d_8">
      <g>
       <use style="stroke:#000000;stroke-width:0.8;" x="271.872" xlink:href="#mec69c83650" y="307.584"/>
      </g>
     </g>
     <g id="text_4">
      <!-- 600 -->
      <defs>
       <path d="M 33.015625 40.375 
Q 26.375 40.375 22.484375 35.828125 
Q 18.609375 31.296875 18.609375 23.390625 
Q 18.609375 15.53125 22.484375 10.953125 
Q 26.375 6.390625 33.015625 6.390625 
Q 39.65625 6.390625 43.53125 10.953125 
Q 47.40625 15.53125 47.40625 23.390625 
Q 47.40625 31.296875 43.53125 35.828125 
Q 39.65625 40.375 33.015625 40.375 
M 52.59375 71.296875 
L 52.59375 62.3125 
Q 48.875 64.0625 45.09375 64.984375 
Q 41.3125 65.921875 37.59375 65.921875 
Q 27.828125 65.921875 22.671875 59.328125 
Q 17.53125 52.734375 16.796875 39.40625 
Q 19.671875 43.65625 24.015625 45.921875 
Q 28.375 48.1875 33.59375 48.1875 
Q 44.578125 48.1875 50.953125 41.515625 
Q 57.328125 34.859375 57.328125 23.390625 
Q 57.328125 12.15625 50.6875 5.359375 
Q 44.046875 -1.421875 33.015625 -1.421875 
Q 20.359375 -1.421875 13.671875 8.265625 
Q 6.984375 17.96875 6.984375 36.375 
Q 6.984375 53.65625 15.1875 63.9375 
Q 23.390625 74.21875 37.203125 74.21875 
Q 40.921875 74.21875 44.703125 73.484375 
Q 48.484375 72.75 52.59375 71.296875 
" id="DejaVuSans-36"/>
      </defs>
      <g transform="translate(262.32825 322.182437)scale(0.1 -0.1)">
       <use xlink:href="#DejaVuSans-36"/>
       <use x="63.623047" xlink:href="#DejaVuSans-30"/>
       <use x="127.246094" xlink:href="#DejaVuSans-30"/>
      </g>
     </g>
    </g>
    <g id="xtick_5">
     <g id="line2d_9">
      <path clip-path="url(#p805fa60430)" d="M 343.296 307.584 
L 343.296 41.472 
" style="fill:none;stroke:#b0b0b0;stroke-linecap:square;stroke-width:0.8;"/>
     </g>
     <g id="line2d_10">
      <g>
       <use style="stroke:#000000;stroke-width:0.8;" x="343.296" xlink:href="#mec69c83650" y="307.584"/>
      </g>
     </g>
     <g id="text_5">
      <!-- 800 -->
      <defs>
       <path d="M 31.78125 34.625 
Q 24.75 34.625 20.71875 30.859375 
Q 16.703125 27.09375 16.703125 20.515625 
Q 16.703125 13.921875 20.71875 10.15625 
Q 24.75 6.390625 31.78125 6.390625 
Q 38.8125 6.390625 42.859375 10.171875 
Q 46.921875 13.96875 46.921875 20.515625 
Q 46.921875 27.09375 42.890625 30.859375 
Q 38.875 34.625 31.78125 34.625 
M 21.921875 38.8125 
Q 15.578125 40.375 12.03125 44.71875 
Q 8.5 49.078125 8.5 55.328125 
Q 8.5 64.0625 14.71875 69.140625 
Q 20.953125 74.21875 31.78125 74.21875 
Q 42.671875 74.21875 48.875 69.140625 
Q 55.078125 64.0625 55.078125 55.328125 
Q 55.078125 49.078125 51.53125 44.71875 
Q 48 40.375 41.703125 38.8125 
Q 48.828125 37.15625 52.796875 32.3125 
Q 56.78125 27.484375 56.78125 20.515625 
Q 56.78125 9.90625 50.3125 4.234375 
Q 43.84375 -1.421875 31.78125 -1.421875 
Q 19.734375 -1.421875 13.25 4.234375 
Q 6.78125 9.90625 6.78125 20.515625 
Q 6.78125 27.484375 10.78125 32.3125 
Q 14.796875 37.15625 21.921875 38.8125 
M 18.3125 54.390625 
Q 18.3125 48.734375 21.84375 45.5625 
Q 25.390625 42.390625 31.78125 42.390625 
Q 38.140625 42.390625 41.71875 45.5625 
Q 45.3125 48.734375 45.3125 54.390625 
Q 45.3125 60.0625 41.71875 63.234375 
Q 38.140625 66.40625 31.78125 66.40625 
Q 25.390625 66.40625 21.84375 63.234375 
Q 18.3125 60.0625 18.3125 54.390625 
" id="DejaVuSans-38"/>
      </defs>
      <g transform="translate(333.75225 322.182437)scale(0.1 -0.1)">
       <use xlink:href="#DejaVuSans-38"/>
       <use x="63.623047" xlink:href="#DejaVuSans-30"/>
       <use x="127.246094" xlink:href="#DejaVuSans-30"/>
      </g>
     </g>
    </g>
    <g id="xtick_6">
     <g id="line2d_11">
      <path clip-path="url(#p805fa60430)" d="M 414.72 307.584 
L 414.72 41.472 
" style="fill:none;stroke:#b0b0b0;stroke-linecap:square;stroke-width:0.8;"/>
     </g>
     <g id="line2d_12">
      <g>
       <use style="stroke:#000000;stroke-width:0.8;" x="414.72" xlink:href="#mec69c83650" y="307.584"/>
      </g>
     </g>
     <g id="text_6">
      <!-- 1000 -->
      <defs>
       <path d="M 12.40625 8.296875 
L 28.515625 8.296875 
L 28.515625 63.921875 
L 10.984375 60.40625 
L 10.984375 69.390625 
L 28.421875 72.90625 
L 38.28125 72.90625 
L 38.28125 8.296875 
L 54.390625 8.296875 
L 54.390625 0 
L 12.40625 0 
z
" id="DejaVuSans-31"/>
      </defs>
      <g transform="translate(401.995 322.182437)scale(0.1 -0.1)">
       <use xlink:href="#DejaVuSans-31"/>
       <use x="63.623047" xlink:href="#DejaVuSans-30"/>
       <use x="127.246094" xlink:href="#DejaVuSans-30"/>
       <use x="190.869141" xlink:href="#DejaVuSans-30"/>
      </g>
     </g>
    </g>
    <g id="text_7">
     <!-- Number of clients -->
     <defs>
      <path d="M 9.8125 72.90625 
L 23.09375 72.90625 
L 55.421875 11.921875 
L 55.421875 72.90625 
L 64.984375 72.90625 
L 64.984375 0 
L 51.703125 0 
L 19.390625 60.984375 
L 19.390625 0 
L 9.8125 0 
z
" id="DejaVuSans-4e"/>
      <path d="M 8.5 21.578125 
L 8.5 54.6875 
L 17.484375 54.6875 
L 17.484375 21.921875 
Q 17.484375 14.15625 20.5 10.265625 
Q 23.53125 6.390625 29.59375 6.390625 
Q 36.859375 6.390625 41.078125 11.03125 
Q 45.3125 15.671875 45.3125 23.6875 
L 45.3125 54.6875 
L 54.296875 54.6875 
L 54.296875 0 
L 45.3125 0 
L 45.3125 8.40625 
Q 42.046875 3.421875 37.71875 1 
Q 33.40625 -1.421875 27.6875 -1.421875 
Q 18.265625 -1.421875 13.375 4.4375 
Q 8.5 10.296875 8.5 21.578125 
M 31.109375 56 
z
" id="DejaVuSans-75"/>
      <path d="M 52 44.1875 
Q 55.375 50.25 60.0625 53.125 
Q 64.75 56 71.09375 56 
Q 79.640625 56 84.28125 50.015625 
Q 88.921875 44.046875 88.921875 33.015625 
L 88.921875 0 
L 79.890625 0 
L 79.890625 32.71875 
Q 79.890625 40.578125 77.09375 44.375 
Q 74.3125 48.1875 68.609375 48.1875 
Q 61.625 48.1875 57.5625 43.546875 
Q 53.515625 38.921875 53.515625 30.90625 
L 53.515625 0 
L 44.484375 0 
L 44.484375 32.71875 
Q 44.484375 40.625 41.703125 44.40625 
Q 38.921875 48.1875 33.109375 48.1875 
Q 26.21875 48.1875 22.15625 43.53125 
Q 18.109375 38.875 18.109375 30.90625 
L 18.109375 0 
L 9.078125 0 
L 9.078125 54.6875 
L 18.109375 54.6875 
L 18.109375 46.1875 
Q 21.1875 51.21875 25.484375 53.609375 
Q 29.78125 56 35.6875 56 
Q 41.65625 56 45.828125 52.96875 
Q 50 49.953125 52 44.1875 
" id="DejaVuSans-6d"/>
      <path d="M 48.6875 27.296875 
Q 48.6875 37.203125 44.609375 42.84375 
Q 40.53125 48.484375 33.40625 48.484375 
Q 26.265625 48.484375 22.1875 42.84375 
Q 18.109375 37.203125 18.109375 27.296875 
Q 18.109375 17.390625 22.1875 11.75 
Q 26.265625 6.109375 33.40625 6.109375 
Q 40.53125 6.109375 44.609375 11.75 
Q 48.6875 17.390625 48.6875 27.296875 
M 18.109375 46.390625 
Q 20.953125 51.265625 25.265625 53.625 
Q 29.59375 56 35.59375 56 
Q 45.5625 56 51.78125 48.09375 
Q 58.015625 40.1875 58.015625 27.296875 
Q 58.015625 14.40625 51.78125 6.484375 
Q 45.5625 -1.421875 35.59375 -1.421875 
Q 29.59375 -1.421875 25.265625 0.953125 
Q 20.953125 3.328125 18.109375 8.203125 
L 18.109375 0 
L 9.078125 0 
L 9.078125 75.984375 
L 18.109375 75.984375 
z
" id="DejaVuSans-62"/>
      <path d="M 56.203125 29.59375 
L 56.203125 25.203125 
L 14.890625 25.203125 
Q 15.484375 15.921875 20.484375 11.0625 
Q 25.484375 6.203125 34.421875 6.203125 
Q 39.59375 6.203125 44.453125 7.46875 
Q 49.3125 8.734375 54.109375 11.28125 
L 54.109375 2.78125 
Q 49.265625 0.734375 44.1875 -0.34375 
Q 39.109375 -1.421875 33.890625 -1.421875 
Q 20.796875 -1.421875 13.15625 6.1875 
Q 5.515625 13.8125 5.515625 26.8125 
Q 5.515625 40.234375 12.765625 48.109375 
Q 20.015625 56 32.328125 56 
Q 43.359375 56 49.78125 48.890625 
Q 56.203125 41.796875 56.203125 29.59375 
M 47.21875 32.234375 
Q 47.125 39.59375 43.09375 43.984375 
Q 39.0625 48.390625 32.421875 48.390625 
Q 24.90625 48.390625 20.390625 44.140625 
Q 15.875 39.890625 15.1875 32.171875 
z
" id="DejaVuSans-65"/>
      <path d="M 41.109375 46.296875 
Q 39.59375 47.171875 37.8125 47.578125 
Q 36.03125 48 33.890625 48 
Q 26.265625 48 22.1875 43.046875 
Q 18.109375 38.09375 18.109375 28.8125 
L 18.109375 0 
L 9.078125 0 
L 9.078125 54.6875 
L 18.109375 54.6875 
L 18.109375 46.1875 
Q 20.953125 51.171875 25.484375 53.578125 
Q 30.03125 56 36.53125 56 
Q 37.453125 56 38.578125 55.875 
Q 39.703125 55.765625 41.0625 55.515625 
z
" id="DejaVuSans-72"/>
      <path id="DejaVuSans-20"/>
      <path d="M 30.609375 48.390625 
Q 23.390625 48.390625 19.1875 42.75 
Q 14.984375 37.109375 14.984375 27.296875 
Q 14.984375 17.484375 19.15625 11.84375 
Q 23.34375 6.203125 30.609375 6.203125 
Q 37.796875 6.203125 41.984375 11.859375 
Q 46.1875 17.53125 46.1875 27.296875 
Q 46.1875 37.015625 41.984375 42.703125 
Q 37.796875 48.390625 30.609375 48.390625 
M 30.609375 56 
Q 42.328125 56 49.015625 48.375 
Q 55.71875 40.765625 55.71875 27.296875 
Q 55.71875 13.875 49.015625 6.21875 
Q 42.328125 -1.421875 30.609375 -1.421875 
Q 18.84375 -1.421875 12.171875 6.21875 
Q 5.515625 13.875 5.515625 27.296875 
Q 5.515625 40.765625 12.171875 48.375 
Q 18.84375 56 30.609375 56 
" id="DejaVuSans-6f"/>
      <path d="M 37.109375 75.984375 
L 37.109375 68.5 
L 28.515625 68.5 
Q 23.6875 68.5 21.796875 66.546875 
Q 19.921875 64.59375 19.921875 59.515625 
L 19.921875 54.6875 
L 34.71875 54.6875 
L 34.71875 47.703125 
L 19.921875 47.703125 
L 19.921875 0 
L 10.890625 0 
L 10.890625 47.703125 
L 2.296875 47.703125 
L 2.296875 54.6875 
L 10.890625 54.6875 
L 10.890625 58.5 
Q 10.890625 67.625 15.140625 71.796875 
Q 19.390625 75.984375 28.609375 75.984375 
z
" id="DejaVuSans-66"/>
      <path d="M 48.78125 52.59375 
L 48.78125 44.1875 
Q 44.96875 46.296875 41.140625 47.34375 
Q 37.3125 48.390625 33.40625 48.390625 
Q 24.65625 48.390625 19.8125 42.84375 
Q 14.984375 37.3125 14.984375 27.296875 
Q 14.984375 17.28125 19.8125 11.734375 
Q 24.65625 6.203125 33.40625 6.203125 
Q 37.3125 6.203125 41.140625 7.25 
Q 44.96875 8.296875 48.78125 10.40625 
L 48.78125 2.09375 
Q 45.015625 0.34375 40.984375 -0.53125 
Q 36.96875 -1.421875 32.421875 -1.421875 
Q 20.0625 -1.421875 12.78125 6.34375 
Q 5.515625 14.109375 5.515625 27.296875 
Q 5.515625 40.671875 12.859375 48.328125 
Q 20.21875 56 33.015625 56 
Q 37.15625 56 41.109375 55.140625 
Q 45.0625 54.296875 48.78125 52.59375 
" id="DejaVuSans-63"/>
      <path d="M 9.421875 75.984375 
L 18.40625 75.984375 
L 18.40625 0 
L 9.421875 0 
z
" id="DejaVuSans-6c"/>
      <path d="M 9.421875 54.6875 
L 18.40625 54.6875 
L 18.40625 0 
L 9.421875 0 
z
M 9.421875 75.984375 
L 18.40625 75.984375 
L 18.40625 64.59375 
L 9.421875 64.59375 
z
" id="DejaVuSans-69"/>
      <path d="M 54.890625 33.015625 
L 54.890625 0 
L 45.90625 0 
L 45.90625 32.71875 
Q 45.90625 40.484375 42.875 44.328125 
Q 39.84375 48.1875 33.796875 48.1875 
Q 26.515625 48.1875 22.3125 43.546875 
Q 18.109375 38.921875 18.109375 30.90625 
L 18.109375 0 
L 9.078125 0 
L 9.078125 54.6875 
L 18.109375 54.6875 
L 18.109375 46.1875 
Q 21.34375 51.125 25.703125 53.5625 
Q 30.078125 56 35.796875 56 
Q 45.21875 56 50.046875 50.171875 
Q 54.890625 44.34375 54.890625 33.015625 
" id="DejaVuSans-6e"/>
      <path d="M 18.3125 70.21875 
L 18.3125 54.6875 
L 36.8125 54.6875 
L 36.8125 47.703125 
L 18.3125 47.703125 
L 18.3125 18.015625 
Q 18.3125 11.328125 20.140625 9.421875 
Q 21.96875 7.515625 27.59375 7.515625 
L 36.8125 7.515625 
L 36.8125 0 
L 27.59375 0 
Q 17.1875 0 13.234375 3.875 
Q 9.28125 7.765625 9.28125 18.015625 
L 9.28125 47.703125 
L 2.6875 47.703125 
L 2.6875 54.6875 
L 9.28125 54.6875 
L 9.28125 70.21875 
z
" id="DejaVuSans-74"/>
      <path d="M 44.28125 53.078125 
L 44.28125 44.578125 
Q 40.484375 46.53125 36.375 47.5 
Q 32.28125 48.484375 27.875 48.484375 
Q 21.1875 48.484375 17.84375 46.4375 
Q 14.5 44.390625 14.5 40.28125 
Q 14.5 37.15625 16.890625 35.375 
Q 19.28125 33.59375 26.515625 31.984375 
L 29.59375 31.296875 
Q 39.15625 29.25 43.1875 25.515625 
Q 47.21875 21.78125 47.21875 15.09375 
Q 47.21875 7.46875 41.1875 3.015625 
Q 35.15625 -1.421875 24.609375 -1.421875 
Q 20.21875 -1.421875 15.453125 -0.5625 
Q 10.6875 0.296875 5.421875 2 
L 5.421875 11.28125 
Q 10.40625 8.6875 15.234375 7.390625 
Q 20.0625 6.109375 24.8125 6.109375 
Q 31.15625 6.109375 34.5625 8.28125 
Q 37.984375 10.453125 37.984375 14.40625 
Q 37.984375 18.0625 35.515625 20.015625 
Q 33.0625 21.96875 24.703125 23.78125 
L 21.578125 24.515625 
Q 13.234375 26.265625 9.515625 29.90625 
Q 5.8125 33.546875 5.8125 39.890625 
Q 5.8125 47.609375 11.28125 51.796875 
Q 16.75 56 26.8125 56 
Q 31.78125 56 36.171875 55.265625 
Q 40.578125 54.546875 44.28125 53.078125 
" id="DejaVuSans-73"/>
     </defs>
     <g transform="translate(191.738906 335.860562)scale(0.1 -0.1)">
      <use xlink:href="#DejaVuSans-4e"/>
      <use x="74.804688" xlink:href="#DejaVuSans-75"/>
      <use x="138.183594" xlink:href="#DejaVuSans-6d"/>
      <use x="235.595703" xlink:href="#DejaVuSans-62"/>
      <use x="299.072266" xlink:href="#DejaVuSans-65"/>
      <use x="360.595703" xlink:href="#DejaVuSans-72"/>
      <use x="401.708984" xlink:href="#DejaVuSans-20"/>
      <use x="433.496094" xlink:href="#DejaVuSans-6f"/>
      <use x="494.677734" xlink:href="#DejaVuSans-66"/>
      <use x="529.882812" xlink:href="#DejaVuSans-20"/>
      <use x="561.669922" xlink:href="#DejaVuSans-63"/>
      <use x="616.650391" xlink:href="#DejaVuSans-6c"/>
      <use x="644.433594" xlink:href="#DejaVuSans-69"/>
      <use x="672.216797" xlink:href="#DejaVuSans-65"/>
      <use x="733.740234" xlink:href="#DejaVuSans-6e"/>
      <use x="797.119141" xlink:href="#DejaVuSans-74"/>
      <use x="836.328125" xlink:href="#DejaVuSans-73"/>
     </g>
    </g>
   </g>
   <g id="matplotlib.axis_2">
    <g id="ytick_1">
     <g id="line2d_13">
      <path clip-path="url(#p805fa60430)" d="M 57.6 295.953075 
L 414.72 295.953075 
" style="fill:none;stroke:#b0b0b0;stroke-linecap:square;stroke-width:0.8;"/>
     </g>
     <g id="line2d_14">
      <defs>
       <path d="M 0 0 
L -3.5 0 
" id="ma9afdebafb" style="stroke:#000000;stroke-width:0.8;"/>
      </defs>
      <g>
       <use style="stroke:#000000;stroke-width:0.8;" x="57.6" xlink:href="#ma9afdebafb" y="295.953075"/>
      </g>
     </g>
     <g id="text_8">
      <!-- 0 -->
      <g transform="translate(44.2375 299.752294)scale(0.1 -0.1)">
       <use xlink:href="#DejaVuSans-30"/>
      </g>
     </g>
    </g>
    <g id="ytick_2">
     <g id="line2d_15">
      <path clip-path="url(#p805fa60430)" d="M 57.6 247.406638 
L 414.72 247.406638 
" style="fill:none;stroke:#b0b0b0;stroke-linecap:square;stroke-width:0.8;"/>
     </g>
     <g id="line2d_16">
      <g>
       <use style="stroke:#000000;stroke-width:0.8;" x="57.6" xlink:href="#ma9afdebafb" y="247.406638"/>
      </g>
     </g>
     <g id="text_9">
      <!-- 100 -->
      <g transform="translate(31.5125 251.205857)scale(0.1 -0.1)">
       <use xlink:href="#DejaVuSans-31"/>
       <use x="63.623047" xlink:href="#DejaVuSans-30"/>
       <use x="127.246094" xlink:href="#DejaVuSans-30"/>
      </g>
     </g>
    </g>
    <g id="ytick_3">
     <g id="line2d_17">
      <path clip-path="url(#p805fa60430)" d="M 57.6 198.860202 
L 414.72 198.860202 
" style="fill:none;stroke:#b0b0b0;stroke-linecap:square;stroke-width:0.8;"/>
     </g>
     <g id="line2d_18">
      <g>
       <use style="stroke:#000000;stroke-width:0.8;" x="57.6" xlink:href="#ma9afdebafb" y="198.860202"/>
      </g>
     </g>
     <g id="text_10">
      <!-- 200 -->
      <g transform="translate(31.5125 202.659421)scale(0.1 -0.1)">
       <use xlink:href="#DejaVuSans-32"/>
       <use x="63.623047" xlink:href="#DejaVuSans-30"/>
       <use x="127.246094" xlink:href="#DejaVuSans-30"/>
      </g>
     </g>
    </g>
    <g id="ytick_4">
     <g id="line2d_19">
      <path clip-path="url(#p805fa60430)" d="M 57.6 150.313766 
L 414.72 150.313766 
" style="fill:none;stroke:#b0b0b0;stroke-linecap:square;stroke-width:0.8;"/>
     </g>
     <g id="line2d_20">
      <g>
       <use style="stroke:#000000;stroke-width:0.8;" x="57.6" xlink:href="#ma9afdebafb" y="150.313766"/>
      </g>
     </g>
     <g id="text_11">
      <!-- 300 -->
      <defs>
       <path d="M 40.578125 39.3125 
Q 47.65625 37.796875 51.625 33 
Q 55.609375 28.21875 55.609375 21.1875 
Q 55.609375 10.40625 48.1875 4.484375 
Q 40.765625 -1.421875 27.09375 -1.421875 
Q 22.515625 -1.421875 17.65625 -0.515625 
Q 12.796875 0.390625 7.625 2.203125 
L 7.625 11.71875 
Q 11.71875 9.328125 16.59375 8.109375 
Q 21.484375 6.890625 26.8125 6.890625 
Q 36.078125 6.890625 40.9375 10.546875 
Q 45.796875 14.203125 45.796875 21.1875 
Q 45.796875 27.640625 41.28125 31.265625 
Q 36.765625 34.90625 28.71875 34.90625 
L 20.21875 34.90625 
L 20.21875 43.015625 
L 29.109375 43.015625 
Q 36.375 43.015625 40.234375 45.921875 
Q 44.09375 48.828125 44.09375 54.296875 
Q 44.09375 59.90625 40.109375 62.90625 
Q 36.140625 65.921875 28.71875 65.921875 
Q 24.65625 65.921875 20.015625 65.03125 
Q 15.375 64.15625 9.8125 62.3125 
L 9.8125 71.09375 
Q 15.4375 72.65625 20.34375 73.4375 
Q 25.25 74.21875 29.59375 74.21875 
Q 40.828125 74.21875 47.359375 69.109375 
Q 53.90625 64.015625 53.90625 55.328125 
Q 53.90625 49.265625 50.4375 45.09375 
Q 46.96875 40.921875 40.578125 39.3125 
" id="DejaVuSans-33"/>
      </defs>
      <g transform="translate(31.5125 154.112984)scale(0.1 -0.1)">
       <use xlink:href="#DejaVuSans-33"/>
       <use x="63.623047" xlink:href="#DejaVuSans-30"/>
       <use x="127.246094" xlink:href="#DejaVuSans-30"/>
      </g>
     </g>
    </g>
    <g id="ytick_5">
     <g id="line2d_21">
      <path clip-path="url(#p805fa60430)" d="M 57.6 101.767329 
L 414.72 101.767329 
" style="fill:none;stroke:#b0b0b0;stroke-linecap:square;stroke-width:0.8;"/>
     </g>
     <g id="line2d_22">
      <g>
       <use style="stroke:#000000;stroke-width:0.8;" x="57.6" xlink:href="#ma9afdebafb" y="101.767329"/>
      </g>
     </g>
     <g id="text_12">
      <!-- 400 -->
      <g transform="translate(31.5125 105.566548)scale(0.1 -0.1)">
       <use xlink:href="#DejaVuSans-34"/>
       <use x="63.623047" xlink:href="#DejaVuSans-30"/>
       <use x="127.246094" xlink:href="#DejaVuSans-30"/>
      </g>
     </g>
    </g>
    <g id="ytick_6">
     <g id="line2d_23">
      <path clip-path="url(#p805fa60430)" d="M 57.6 53.220893 
L 414.72 53.220893 
" style="fill:none;stroke:#b0b0b0;stroke-linecap:square;stroke-width:0.8;"/>
     </g>
     <g id="line2d_24">
      <g>
       <use style="stroke:#000000;stroke-width:0.8;" x="57.6" xlink:href="#ma9afdebafb" y="53.220893"/>
      </g>
     </g>
     <g id="text_13">
      <!-- 500 -->
      <defs>
       <path d="M 10.796875 72.90625 
L 49.515625 72.90625 
L 49.515625 64.59375 
L 19.828125 64.59375 
L 19.828125 46.734375 
Q 21.96875 47.46875 24.109375 47.828125 
Q 26.265625 48.1875 28.421875 48.1875 
Q 40.625 48.1875 47.75 41.5 
Q 54.890625 34.8125 54.890625 23.390625 
Q 54.890625 11.625 47.5625 5.09375 
Q 40.234375 -1.421875 26.90625 -1.421875 
Q 22.3125 -1.421875 17.546875 -0.640625 
Q 12.796875 0.140625 7.71875 1.703125 
L 7.71875 11.625 
Q 12.109375 9.234375 16.796875 8.0625 
Q 21.484375 6.890625 26.703125 6.890625 
Q 35.15625 6.890625 40.078125 11.328125 
Q 45.015625 15.765625 45.015625 23.390625 
Q 45.015625 31 40.078125 35.4375 
Q 35.15625 39.890625 26.703125 39.890625 
Q 22.75 39.890625 18.8125 39.015625 
Q 14.890625 38.140625 10.796875 36.28125 
z
" id="DejaVuSans-35"/>
      </defs>
      <g transform="translate(31.5125 57.020112)scale(0.1 -0.1)">
       <use xlink:href="#DejaVuSans-35"/>
       <use x="63.623047" xlink:href="#DejaVuSans-30"/>
       <use x="127.246094" xlink:href="#DejaVuSans-30"/>
      </g>
     </g>
    </g>
    <g id="text_14">
     <!-- Successful download requests per second -->
     <defs>
      <path d="M 53.515625 70.515625 
L 53.515625 60.890625 
Q 47.90625 63.578125 42.921875 64.890625 
Q 37.9375 66.21875 33.296875 66.21875 
Q 25.25 66.21875 20.875 63.09375 
Q 16.5 59.96875 16.5 54.203125 
Q 16.5 49.359375 19.40625 46.890625 
Q 22.3125 44.4375 30.421875 42.921875 
L 36.375 41.703125 
Q 47.40625 39.59375 52.65625 34.296875 
Q 57.90625 29 57.90625 20.125 
Q 57.90625 9.515625 50.796875 4.046875 
Q 43.703125 -1.421875 29.984375 -1.421875 
Q 24.8125 -1.421875 18.96875 -0.25 
Q 13.140625 0.921875 6.890625 3.21875 
L 6.890625 13.375 
Q 12.890625 10.015625 18.65625 8.296875 
Q 24.421875 6.59375 29.984375 6.59375 
Q 38.421875 6.59375 43.015625 9.90625 
Q 47.609375 13.234375 47.609375 19.390625 
Q 47.609375 24.75 44.3125 27.78125 
Q 41.015625 30.8125 33.5 32.328125 
L 27.484375 33.5 
Q 16.453125 35.6875 11.515625 40.375 
Q 6.59375 45.0625 6.59375 53.421875 
Q 6.59375 63.09375 13.40625 68.65625 
Q 20.21875 74.21875 32.171875 74.21875 
Q 37.3125 74.21875 42.625 73.28125 
Q 47.953125 72.359375 53.515625 70.515625 
" id="DejaVuSans-53"/>
      <path d="M 45.40625 46.390625 
L 45.40625 75.984375 
L 54.390625 75.984375 
L 54.390625 0 
L 45.40625 0 
L 45.40625 8.203125 
Q 42.578125 3.328125 38.25 0.953125 
Q 33.9375 -1.421875 27.875 -1.421875 
Q 17.96875 -1.421875 11.734375 6.484375 
Q 5.515625 14.40625 5.515625 27.296875 
Q 5.515625 40.1875 11.734375 48.09375 
Q 17.96875 56 27.875 56 
Q 33.9375 56 38.25 53.625 
Q 42.578125 51.265625 45.40625 46.390625 
M 14.796875 27.296875 
Q 14.796875 17.390625 18.875 11.75 
Q 22.953125 6.109375 30.078125 6.109375 
Q 37.203125 6.109375 41.296875 11.75 
Q 45.40625 17.390625 45.40625 27.296875 
Q 45.40625 37.203125 41.296875 42.84375 
Q 37.203125 48.484375 30.078125 48.484375 
Q 22.953125 48.484375 18.875 42.84375 
Q 14.796875 37.203125 14.796875 27.296875 
" id="DejaVuSans-64"/>
      <path d="M 4.203125 54.6875 
L 13.1875 54.6875 
L 24.421875 12.015625 
L 35.59375 54.6875 
L 46.1875 54.6875 
L 57.421875 12.015625 
L 68.609375 54.6875 
L 77.59375 54.6875 
L 63.28125 0 
L 52.6875 0 
L 40.921875 44.828125 
L 29.109375 0 
L 18.5 0 
z
" id="DejaVuSans-77"/>
      <path d="M 34.28125 27.484375 
Q 23.390625 27.484375 19.1875 25 
Q 14.984375 22.515625 14.984375 16.5 
Q 14.984375 11.71875 18.140625 8.90625 
Q 21.296875 6.109375 26.703125 6.109375 
Q 34.1875 6.109375 38.703125 11.40625 
Q 43.21875 16.703125 43.21875 25.484375 
L 43.21875 27.484375 
z
M 52.203125 31.203125 
L 52.203125 0 
L 43.21875 0 
L 43.21875 8.296875 
Q 40.140625 3.328125 35.546875 0.953125 
Q 30.953125 -1.421875 24.3125 -1.421875 
Q 15.921875 -1.421875 10.953125 3.296875 
Q 6 8.015625 6 15.921875 
Q 6 25.140625 12.171875 29.828125 
Q 18.359375 34.515625 30.609375 34.515625 
L 43.21875 34.515625 
L 43.21875 35.40625 
Q 43.21875 41.609375 39.140625 45 
Q 35.0625 48.390625 27.6875 48.390625 
Q 23 48.390625 18.546875 47.265625 
Q 14.109375 46.140625 10.015625 43.890625 
L 10.015625 52.203125 
Q 14.9375 54.109375 19.578125 55.046875 
Q 24.21875 56 28.609375 56 
Q 40.484375 56 46.34375 49.84375 
Q 52.203125 43.703125 52.203125 31.203125 
" id="DejaVuSans-61"/>
      <path d="M 14.796875 27.296875 
Q 14.796875 17.390625 18.875 11.75 
Q 22.953125 6.109375 30.078125 6.109375 
Q 37.203125 6.109375 41.296875 11.75 
Q 45.40625 17.390625 45.40625 27.296875 
Q 45.40625 37.203125 41.296875 42.84375 
Q 37.203125 48.484375 30.078125 48.484375 
Q 22.953125 48.484375 18.875 42.84375 
Q 14.796875 37.203125 14.796875 27.296875 
M 45.40625 8.203125 
Q 42.578125 3.328125 38.25 0.953125 
Q 33.9375 -1.421875 27.875 -1.421875 
Q 17.96875 -1.421875 11.734375 6.484375 
Q 5.515625 14.40625 5.515625 27.296875 
Q 5.515625 40.1875 11.734375 48.09375 
Q 17.96875 56 27.875 56 
Q 33.9375 56 38.25 53.625 
Q 42.578125 51.265625 45.40625 46.390625 
L 45.40625 54.6875 
L 54.390625 54.6875 
L 54.390625 -20.796875 
L 45.40625 -20.796875 
z
" id="DejaVuSans-71"/>
      <path d="M 18.109375 8.203125 
L 18.109375 -20.796875 
L 9.078125 -20.796875 
L 9.078125 54.6875 
L 18.109375 54.6875 
L 18.109375 46.390625 
Q 20.953125 51.265625 25.265625 53.625 
Q 29.59375 56 35.59375 56 
Q 45.5625 56 51.78125 48.09375 
Q 58.015625 40.1875 58.015625 27.296875 
Q 58.015625 14.40625 51.78125 6.484375 
Q 45.5625 -1.421875 35.59375 -1.421875 
Q 29.59375 -1.421875 25.265625 0.953125 
Q 20.953125 3.328125 18.109375 8.203125 
M 48.6875 27.296875 
Q 48.6875 37.203125 44.609375 42.84375 
Q 40.53125 48.484375 33.40625 48.484375 
Q 26.265625 48.484375 22.1875 42.84375 
Q 18.109375 37.203125 18.109375 27.296875 
Q 18.109375 17.390625 22.1875 11.75 
Q 26.265625 6.109375 33.40625 6.109375 
Q 40.53125 6.109375 44.609375 11.75 
Q 48.6875 17.390625 48.6875 27.296875 
" id="DejaVuSans-70"/>
     </defs>
     <g transform="translate(25.432812 279.366281)rotate(-90)scale(0.1 -0.1)">
      <use xlink:href="#DejaVuSans-53"/>
      <use x="63.476562" xlink:href="#DejaVuSans-75"/>
      <use x="126.855469" xlink:href="#DejaVuSans-63"/>
      <use x="181.835938" xlink:href="#DejaVuSans-63"/>
      <use x="236.816406" xlink:href="#DejaVuSans-65"/>
      <use x="298.339844" xlink:href="#DejaVuSans-73"/>
      <use x="350.439453" xlink:href="#DejaVuSans-73"/>
      <use x="402.539062" xlink:href="#DejaVuSans-66"/>
      <use x="437.744141" xlink:href="#DejaVuSans-75"/>
      <use x="501.123047" xlink:href="#DejaVuSans-6c"/>
      <use x="528.90625" xlink:href="#DejaVuSans-20"/>
      <use x="560.693359" xlink:href="#DejaVuSans-64"/>
      <use x="624.169922" xlink:href="#DejaVuSans-6f"/>
      <use x="685.351562" xlink:href="#DejaVuSans-77"/>
      <use x="767.138672" xlink:href="#DejaVuSans-6e"/>
      <use x="830.517578" xlink:href="#DejaVuSans-6c"/>
      <use x="858.300781" xlink:href="#DejaVuSans-6f"/>
      <use x="919.482422" xlink:href="#DejaVuSans-61"/>
      <use x="980.761719" xlink:href="#DejaVuSans-64"/>
      <use x="1044.238281" xlink:href="#DejaVuSans-20"/>
      <use x="1076.025391" xlink:href="#DejaVuSans-72"/>
      <use x="1117.107422" xlink:href="#DejaVuSans-65"/>
      <use x="1178.630859" xlink:href="#DejaVuSans-71"/>
      <use x="1242.107422" xlink:href="#DejaVuSans-75"/>
      <use x="1305.486328" xlink:href="#DejaVuSans-65"/>
      <use x="1367.009766" xlink:href="#DejaVuSans-73"/>
      <use x="1419.109375" xlink:href="#DejaVuSans-74"/>
      <use x="1458.318359" xlink:href="#DejaVuSans-73"/>
      <use x="1510.417969" xlink:href="#DejaVuSans-20"/>
      <use x="1542.205078" xlink:href="#DejaVuSans-70"/>
      <use x="1605.681641" xlink:href="#DejaVuSans-65"/>
      <use x="1667.205078" xlink:href="#DejaVuSans-72"/>
      <use x="1708.318359" xlink:href="#DejaVuSans-20"/>
      <use x="1740.105469" xlink:href="#DejaVuSans-73"/>
      <use x="1792.205078" xlink:href="#DejaVuSans-65"/>
      <use x="1853.728516" xlink:href="#DejaVuSans-63"/>
      <use x="1908.708984" xlink:href="#DejaVuSans-6f"/>
      <use x="1969.890625" xlink:href="#DejaVuSans-6e"/>
      <use x="2033.269531" xlink:href="#DejaVuSans-64"/>
     </g>
    </g>
   </g>
   <g id="line2d_25">
    <path clip-path="url(#p805fa60430)" d="M 57.6 295.488 
L 57.95712 295.472465 
L 60.45696 292.334909 
L 60.81408 291.592148 
L 61.52832 290.694039 
L 61.88544 290.519758 
L 62.59968 289.374547 
L 62.9568 289.036179 
L 63.31392 288.257494 
L 63.67104 288.263319 
L 64.38528 287.185588 
L 64.7424 286.3302 
L 65.45664 285.970957 
L 65.81376 284.995173 
L 66.17088 284.586412 
L 66.528 283.902393 
L 66.88512 283.68539 
L 67.24224 283.249443 
L 67.59936 282.997487 
L 68.3136 281.520705 
L 68.67072 281.381862 
L 69.02784 280.466276 
L 69.38496 280.439576 
L 69.74208 279.655065 
L 70.45632 278.97056 
L 70.81344 278.696273 
L 71.17056 277.585531 
L 71.52768 277.457368 
L 71.8848 276.773834 
L 72.24192 276.986953 
L 72.59904 276.026219 
L 72.95616 275.922815 
L 73.31328 275.189279 
L 74.02752 274.462538 
L 74.38464 274.637791 
L 74.74176 272.988669 
L 75.09888 272.280376 
L 75.456 272.740111 
L 75.81312 272.163379 
L 76.17024 272.340088 
L 76.52736 271.552665 
L 76.88448 270.358423 
L 77.2416 270.11035 
L 77.95584 270.021025 
L 78.31296 269.294285 
L 78.67008 267.38107 
L 79.0272 268.758332 
L 79.38432 268.016543 
L 79.74144 267.613607 
L 80.09856 266.028081 
L 80.45568 265.827098 
L 80.8128 265.764959 
L 81.16992 266.085851 
L 81.88416 264.445952 
L 82.24128 263.605128 
L 82.5984 264.121177 
L 82.95552 262.99053 
L 83.31264 262.700222 
L 83.66976 262.248255 
L 84.02688 260.599618 
L 84.384 260.027741 
L 84.74112 260.705449 
L 85.09824 260.919539 
L 85.45536 260.307854 
L 85.81248 258.001413 
L 86.1696 259.350518 
L 86.52672 257.957236 
L 86.88384 258.819906 
L 87.24096 256.119267 
L 87.59808 257.537794 
L 87.9552 256.638229 
L 88.31232 254.232267 
L 89.02656 254.772104 
L 89.38368 254.488593 
L 89.7408 253.139002 
L 90.09792 253.850692 
L 90.45504 252.071951 
L 90.81216 251.702513 
L 91.16928 252.555474 
L 91.5264 252.958894 
L 91.88352 252.604505 
L 92.24064 250.702456 
L 92.59776 251.348124 
L 92.95488 249.752402 
L 93.312 250.631578 
L 93.66912 249.035371 
L 94.02624 246.868744 
L 94.38336 247.283816 
L 94.74048 248.917889 
L 95.0976 246.663393 
L 95.45472 245.722077 
L 95.81184 246.208027 
L 96.16896 244.473463 
L 96.52608 246.100739 
L 96.8832 245.512357 
L 97.24032 244.623957 
L 97.59744 244.43948 
L 97.95456 244.555506 
L 98.31168 244.36035 
L 98.6688 240.394106 
L 99.02592 239.887766 
L 99.38304 240.557222 
L 99.74016 241.55922 
L 100.09728 239.048399 
L 100.4544 240.449934 
L 100.81152 240.932971 
L 101.16864 240.320801 
L 101.52576 240.082438 
L 101.88288 238.705175 
L 102.24 238.812463 
L 102.59712 236.604085 
L 102.95424 235.399648 
L 103.31136 235.322945 
L 103.66848 234.183075 
L 104.0256 233.982578 
L 104.38272 235.754037 
L 104.73984 236.159886 
L 105.09696 232.3854 
L 105.45408 235.181189 
L 105.8112 230.901821 
L 106.16832 231.45525 
L 106.52544 233.07573 
L 106.88256 233.231079 
L 107.23968 232.77183 
L 107.5968 230.718801 
L 107.95392 229.917299 
L 108.31104 231.157661 
L 108.66816 228.791507 
L 109.02528 228.634702 
L 109.3824 228.054087 
L 109.73952 229.996915 
L 110.09664 229.040551 
L 110.45376 226.267093 
L 110.81088 225.148097 
L 111.168 223.480042 
L 111.52512 226.35302 
L 111.88224 226.811298 
L 112.23936 224.843226 
L 112.59648 221.332833 
L 112.9536 224.788368 
L 113.31072 220.257529 
L 113.66784 220.925043 
L 114.02496 222.052291 
L 114.38208 221.222633 
L 114.7392 222.590671 
L 115.45344 219.284173 
L 115.81056 221.137191 
L 116.16768 220.884749 
L 116.5248 217.241825 
L 116.88192 216.951032 
L 117.23904 216.872386 
L 117.59616 219.573025 
L 117.95328 217.929728 
L 118.3104 218.756474 
L 118.66752 215.2922 
L 119.02464 215.352397 
L 119.38176 214.742654 
L 119.73888 215.532505 
L 120.096 214.291172 
L 120.45312 214.895576 
L 120.81024 212.846916 
L 121.16736 215.365505 
L 121.52448 213.92756 
L 121.8816 214.068344 
L 122.23872 209.627802 
L 122.59584 208.668524 
L 122.95296 209.619063 
L 123.31008 208.440841 
L 123.6672 206.607242 
L 124.02432 211.37693 
L 124.38144 205.717872 
L 124.73856 204.922196 
L 125.09568 205.061038 
L 125.80992 209.479735 
L 126.16704 208.270443 
L 126.52416 206.357714 
L 126.88128 207.667011 
L 127.2384 205.555241 
L 127.59552 206.882986 
L 127.95264 200.443787 
L 128.30976 204.507609 
L 128.66688 202.152136 
L 129.024 204.637228 
L 129.38112 203.053643 
L 129.73824 203.017233 
L 130.09536 201.556471 
L 130.45248 198.783013 
L 130.8096 202.02009 
L 131.16672 196.290639 
L 131.52384 199.344696 
L 131.88096 196.312485 
L 132.5952 200.164159 
L 132.95232 200.009296 
L 133.30944 193.94973 
L 133.66656 193.034144 
L 134.02368 196.136262 
L 134.3808 197.335359 
L 134.73792 193.720591 
L 135.09504 191.831649 
L 135.45216 195.241065 
L 135.80928 193.230757 
L 136.1664 192.29818 
L 136.52352 194.688607 
L 136.88064 193.943904 
L 137.23776 194.378395 
L 137.952 188.0693 
L 138.30912 186.867776 
L 138.66624 188.097943 
L 139.02336 186.669706 
L 139.38048 185.886652 
L 139.7376 188.766913 
L 140.09472 186.80952 
L 140.80896 188.714968 
L 141.16608 185.630813 
L 141.5232 189.160139 
L 141.88032 183.685072 
L 142.23744 186.624073 
L 142.59456 185.791016 
L 143.3088 180.39605 
L 143.66592 184.664253 
L 144.02304 179.679505 
L 144.38016 184.302582 
L 144.73728 181.562621 
L 145.0944 182.892308 
L 145.45152 183.492342 
L 145.80864 177.000227 
L 146.16576 180.488289 
L 146.52288 176.316208 
L 146.88 174.646696 
L 147.23712 175.841424 
L 147.59424 176.236592 
L 147.95136 178.469728 
L 148.30848 174.673397 
L 148.6656 180.036807 
L 149.37984 175.634131 
L 149.73696 177.050716 
L 150.09408 177.443942 
L 150.4512 175.395768 
L 150.80832 176.750213 
L 151.16544 175.599177 
L 151.52256 175.488491 
L 151.87968 173.998601 
L 152.2368 175.346736 
L 152.59392 171.339227 
L 152.95104 169.62748 
L 153.30816 166.531674 
L 153.66528 172.319865 
L 154.73664 168.389546 
L 155.09376 163.477132 
L 155.45088 169.872639 
L 155.808 168.776946 
L 156.16512 164.413107 
L 156.52224 162.392605 
L 156.87936 166.530217 
L 157.23648 166.415162 
L 157.5936 169.081333 
L 157.95072 166.814214 
L 158.30784 163.019339 
L 158.66496 165.279176 
L 159.3792 167.077336 
L 159.73632 159.890036 
L 160.09344 162.817871 
L 160.45056 158.654529 
L 160.80768 160.210928 
L 161.1648 158.25305 
L 161.52192 163.00963 
L 161.87904 154.822759 
L 162.23616 163.021766 
L 162.59328 160.69979 
L 162.9504 160.37016 
L 163.30752 160.694936 
L 163.66464 155.423764 
L 164.02176 154.160585 
L 164.37888 160.533276 
L 164.736 156.389838 
L 165.09312 150.782239 
L 165.45024 150.506981 
L 165.80736 153.058096 
L 166.16448 153.761534 
L 166.5216 157.764673 
L 166.87872 149.6647 
L 167.23584 149.730723 
L 167.59296 157.915652 
L 167.95008 154.897035 
L 168.3072 153.918824 
L 168.66432 156.212643 
L 169.02144 151.915798 
L 169.73568 151.039049 
L 170.44992 154.271757 
L 170.80704 152.088623 
L 171.16416 156.88841 
L 171.52128 146.92037 
L 171.8784 148.382103 
L 172.23552 151.172067 
L 172.59264 147.964118 
L 172.94976 147.160189 
L 173.664 150.756995 
L 174.02112 145.365913 
L 174.37824 151.157017 
L 174.73536 145.573692 
L 175.09248 149.938016 
L 175.4496 149.678293 
L 175.80672 144.488193 
L 176.16384 151.995414 
L 176.52096 146.113528 
L 176.87808 147.4437 
L 177.2352 153.713958 
L 177.59232 146.99853 
L 177.94944 152.298344 
L 178.30656 148.843294 
L 178.66368 148.597649 
L 179.0208 143.977485 
L 179.37792 145.086285 
L 179.73504 149.050587 
L 180.09216 146.611614 
L 180.44928 147.199512 
L 180.8064 141.033629 
L 181.16352 141.617643 
L 181.52064 146.172755 
L 181.87776 146.505783 
L 182.23488 144.310999 
L 182.592 150.875933 
L 182.94912 149.524401 
L 183.30624 145.796034 
L 183.66336 146.583458 
L 184.02048 140.233098 
L 184.3776 145.025602 
L 184.73472 147.346122 
L 185.09184 146.6121 
L 185.44896 147.597107 
L 185.80608 146.698027 
L 186.1632 146.228098 
L 186.52032 138.090744 
L 186.87744 138.253375 
L 187.23456 141.234126 
L 187.59168 139.770451 
L 187.9488 140.560301 
L 188.30592 144.302746 
L 188.66304 140.153968 
L 189.02016 139.934538 
L 189.37728 140.564185 
L 189.7344 144.864428 
L 190.09152 143.106562 
L 190.44864 142.186607 
L 190.80576 143.004129 
L 191.16288 136.038201 
L 191.52 138.56213 
L 191.87712 136.880481 
L 192.23424 137.833933 
L 192.59136 135.494481 
L 192.94848 135.794983 
L 193.3056 139.083519 
L 193.66272 139.243236 
L 194.01984 136.443563 
L 194.37696 137.316914 
L 194.73408 141.625895 
L 195.0912 139.037885 
L 195.44832 142.129322 
L 195.80544 142.993449 
L 196.16256 133.537574 
L 196.51968 141.207911 
L 196.8768 135.518268 
L 197.23392 136.759601 
L 197.59104 143.119669 
L 198.30528 137.951901 
L 198.6624 139.123327 
L 199.01952 132.175846 
L 199.37664 133.967695 
L 199.73376 133.432228 
L 200.09088 135.889649 
L 200.448 130.947136 
L 200.80512 137.660137 
L 201.51936 141.391416 
L 201.87648 140.724388 
L 202.2336 136.892618 
L 202.59072 129.803382 
L 202.94784 139.092742 
L 203.30496 135.014842 
L 203.66208 139.98454 
L 204.0192 137.023208 
L 204.37632 131.456388 
L 204.73344 131.563676 
L 205.44768 139.674329 
L 205.8048 138.02909 
L 206.16192 129.200435 
L 206.51904 138.275706 
L 206.87616 137.345071 
L 207.23328 130.473323 
L 207.5904 131.791358 
L 207.94752 136.579008 
L 208.30464 132.684127 
L 208.66176 137.863061 
L 209.01888 126.710974 
L 209.376 134.461898 
L 209.73312 132.977348 
L 210.09024 128.454276 
L 210.44736 130.488858 
L 210.80448 127.648891 
L 211.1616 127.9926 
L 211.51872 128.719825 
L 211.87584 128.551369 
L 212.23296 132.551596 
L 212.59008 130.685956 
L 212.9472 131.997195 
L 213.30432 135.077467 
L 213.66144 130.648575 
L 214.01856 131.664652 
L 214.37568 126.128417 
L 214.7328 123.910815 
L 215.08992 130.055823 
L 215.80416 125.956562 
L 216.16128 130.233989 
L 216.5184 132.496738 
L 216.87552 126.126475 
L 217.23264 123.654976 
L 217.58976 131.595716 
L 217.94688 128.444082 
L 218.304 131.449591 
L 218.66112 124.245786 
L 219.01824 130.316518 
L 219.37536 125.761406 
L 219.73248 125.012334 
L 220.0896 131.898161 
L 220.44672 121.111142 
L 221.16096 131.35881 
L 221.8752 123.622935 
L 222.23232 127.239645 
L 222.58944 124.125391 
L 222.94656 131.276281 
L 223.30368 130.345646 
L 223.6608 123.36127 
L 224.37504 126.222111 
L 224.73216 125.99103 
L 225.08928 130.310207 
L 225.4464 121.049974 
L 225.80352 127.361011 
L 226.16064 122.246644 
L 226.51776 128.110568 
L 226.87488 129.714056 
L 227.232 121.211148 
L 227.58912 121.97624 
L 227.94624 128.387768 
L 228.66048 118.828003 
L 229.0176 120.710149 
L 229.37472 120.87909 
L 229.73184 125.502168 
L 230.08896 127.547914 
L 230.8032 121.600976 
L 231.16032 126.885256 
L 231.51744 124.581242 
L 231.87456 127.645978 
L 232.23168 117.968246 
L 232.5888 119.643584 
L 232.94592 122.270917 
L 233.30304 119.967874 
L 233.66016 127.148377 
L 234.01728 119.813496 
L 234.3744 118.518763 
L 234.73152 117.692017 
L 235.44576 114.356391 
L 235.80288 126.474067 
L 236.16 122.46753 
L 236.51712 120.546062 
L 236.87424 117.741049 
L 237.58848 122.705407 
L 237.9456 118.155635 
L 238.30272 123.628275 
L 238.65984 118.482838 
L 239.01696 116.306016 
L 239.37408 117.785226 
L 239.7312 112.559202 
L 240.08832 124.457934 
L 240.44544 123.619051 
L 240.80256 112.098496 
L 241.15968 111.829549 
L 241.5168 115.173913 
L 241.87392 121.985464 
L 242.23104 116.166688 
L 242.58816 116.846338 
L 242.94528 111.169318 
L 243.3024 122.239847 
L 243.65952 116.053575 
L 244.01664 123.318063 
L 244.37376 122.592294 
L 244.73088 115.273919 
L 245.088 121.060169 
L 245.44512 122.897651 
L 245.80224 117.492006 
L 246.15936 120.191187 
L 246.51648 115.597724 
L 246.8736 120.861128 
L 247.23072 111.881494 
L 247.58784 116.287568 
L 247.94496 109.595442 
L 248.30208 112.054805 
L 249.01632 119.51979 
L 249.37344 120.457222 
L 249.73056 120.581015 
L 250.08768 116.468161 
L 250.4448 115.8657 
L 250.80192 108.14536 
L 251.51616 118.700812 
L 252.2304 107.396774 
L 252.58752 117.411418 
L 252.94464 110.028962 
L 253.30176 113.873354 
L 253.65888 112.604836 
L 254.016 106.795769 
L 254.37312 116.558458 
L 254.73024 117.576476 
L 255.08736 113.674799 
L 255.44448 106.624886 
L 255.8016 115.91279 
L 256.15872 106.254962 
L 256.51584 116.505057 
L 256.87296 108.662865 
L 257.23008 105.606867 
L 257.5872 105.208301 
L 257.94432 117.913389 
L 258.30144 109.500777 
L 258.65856 110.72706 
L 259.01568 117.107518 
L 259.3728 113.844712 
L 259.72992 106.856452 
L 260.08704 116.449228 
L 260.44416 106.35788 
L 260.80128 106.499151 
L 261.1584 104.714098 
L 261.51552 113.108262 
L 261.87264 112.432981 
L 262.58688 104.038817 
L 262.944 112.066456 
L 263.30112 103.322757 
L 263.65824 115.994833 
L 264.01536 104.557779 
L 264.37248 105.068972 
L 264.7296 103.314019 
L 265.08672 102.49407 
L 265.44384 110.999891 
L 265.80096 106.947234 
L 266.5152 104.533991 
L 266.87232 110.762984 
L 267.58656 113.909764 
L 267.94368 109.638649 
L 268.3008 109.176972 
L 268.65792 113.052434 
L 269.01504 100.63911 
L 269.37216 107.584163 
L 269.72928 103.582966 
L 270.0864 111.419332 
L 270.44352 112.647557 
L 270.80064 102.294058 
L 271.15776 104.769926 
L 271.51488 103.988329 
L 271.872 112.322296 
L 272.22912 106.873929 
L 272.58624 106.948205 
L 272.94336 103.683457 
L 273.30048 111.889747 
L 273.6576 111.802849 
L 274.01472 108.79831 
L 274.37184 104.267471 
L 274.72896 108.247308 
L 275.08608 101.687228 
L 275.4432 108.944435 
L 275.80032 101.099816 
L 276.15744 110.463938 
L 276.51456 99.691969 
L 276.87168 105.063632 
L 277.2288 105.392292 
L 277.58592 98.076829 
L 277.94304 101.661984 
L 278.30016 110.299851 
L 278.65728 103.559664 
L 279.0144 107.24094 
L 279.37152 103.019342 
L 279.72864 101.532365 
L 280.08576 102.856226 
L 280.44288 106.618089 
L 280.8 98.53268 
L 281.15712 102.451834 
L 281.51424 97.103473 
L 281.87136 101.785292 
L 282.22848 103.692196 
L 282.5856 100.161899 
L 282.94272 101.100787 
L 283.29984 96.086911 
L 283.65696 105.081109 
L 284.01408 98.809395 
L 284.3712 96.055841 
L 284.72832 107.665236 
L 285.08544 107.343373 
L 285.44256 103.036333 
L 285.79968 95.599019 
L 286.1568 106.999664 
L 286.51392 94.458178 
L 286.87104 105.633082 
L 287.22816 102.92856 
L 287.58528 103.767443 
L 287.9424 106.084078 
L 288.29952 101.514402 
L 289.37088 93.707165 
L 289.728 100.669209 
L 290.08512 94.89995 
L 290.44224 100.360939 
L 290.79936 95.897094 
L 291.15648 102.608639 
L 291.5136 103.842204 
L 292.22784 101.294002 
L 292.58496 102.472709 
L 292.94208 96.935017 
L 293.2992 101.667809 
L 293.65632 103.265958 
L 294.01344 94.160103 
L 294.37056 99.934701 
L 294.72768 92.137658 
L 295.0848 101.240601 
L 295.44192 95.938844 
L 296.15616 91.020605 
L 296.8704 103.298969 
L 297.22752 93.653278 
L 297.94176 100.944953 
L 298.29888 98.047701 
L 298.656 92.774587 
L 299.01312 97.122406 
L 299.37024 97.217072 
L 299.72736 93.514435 
L 300.08448 98.655017 
L 300.4416 91.712877 
L 300.79872 92.32796 
L 301.15584 96.897151 
L 301.51296 93.082372 
L 301.87008 102.284349 
L 302.2272 90.782242 
L 302.58432 89.463235 
L 302.94144 94.395553 
L 303.29856 93.456665 
L 303.65568 97.930704 
L 304.0128 100.614837 
L 304.36992 93.542107 
L 304.72704 92.820707 
L 305.08416 95.082971 
L 305.44128 87.527203 
L 305.7984 97.712731 
L 306.15552 87.248061 
L 306.51264 97.827301 
L 306.86976 86.8961 
L 307.22688 86.286842 
L 307.584 86.397528 
L 308.29824 98.575887 
L 308.65536 97.885071 
L 309.01248 87.299035 
L 309.3696 90.741463 
L 309.72672 92.684291 
L 310.08384 85.735354 
L 310.44096 88.991849 
L 310.79808 88.32385 
L 311.1552 98.324416 
L 311.51232 85.671273 
L 311.86944 95.267447 
L 312.22656 87.068925 
L 312.58368 97.892353 
L 312.9408 95.258223 
L 313.29792 89.981226 
L 313.65504 98.229751 
L 314.01216 97.95255 
L 314.36928 91.688604 
L 314.7264 88.910291 
L 315.08352 89.951127 
L 315.44064 91.722586 
L 315.79776 95.386871 
L 316.15488 91.622095 
L 316.512 85.006672 
L 316.86912 83.916805 
L 317.22624 89.779758 
L 317.58336 89.901124 
L 317.94048 91.053616 
L 318.2976 83.403669 
L 318.65472 90.701655 
L 319.01184 95.568435 
L 319.36896 83.776505 
L 320.0832 88.978256 
L 320.79744 82.277392 
L 321.15456 89.589941 
L 321.8688 82.624499 
L 322.22592 86.521321 
L 322.58304 95.403377 
L 323.29728 87.934022 
L 323.6544 91.270133 
L 324.01152 90.749716 
L 324.36864 89.141858 
L 324.72576 85.011527 
L 325.08288 82.900728 
L 325.44 85.246977 
L 325.79712 88.428225 
L 326.15424 86.392187 
L 326.51136 91.213334 
L 326.86848 89.37391 
L 327.2256 94.581 
L 327.58272 80.731188 
L 327.93984 80.887022 
L 328.29696 88.542795 
L 328.65408 81.564244 
L 329.0112 90.870596 
L 329.36832 83.658052 
L 329.72544 86.023235 
L 330.08256 93.003241 
L 330.43968 84.075066 
L 330.7968 91.199256 
L 331.15392 79.287417 
L 331.51104 87.424285 
L 331.86816 87.343212 
L 332.22528 80.114162 
L 332.5824 87.593226 
L 332.93952 81.824939 
L 333.29664 89.35886 
L 333.65376 85.468349 
L 334.368 92.031827 
L 335.08224 79.790843 
L 335.43936 83.497363 
L 335.79648 83.523579 
L 336.1536 79.048568 
L 336.51072 76.797955 
L 336.86784 90.307458 
L 337.22496 84.660051 
L 337.58208 81.824453 
L 337.9392 85.670787 
L 338.29632 76.422206 
L 338.65344 76.523668 
L 339.01056 86.71405 
L 339.36768 85.786813 
L 339.7248 85.306689 
L 340.08192 89.507898 
L 340.43904 80.898673 
L 340.79616 77.075155 
L 341.15328 90.192888 
L 341.5104 86.10722 
L 341.86752 75.016301 
L 342.22464 78.932057 
L 342.93888 89.289439 
L 343.296 86.482484 
L 343.65312 85.90915 
L 344.01024 74.598802 
L 344.36736 82.647315 
L 344.72448 79.707829 
L 345.0816 81.402585 
L 345.43872 83.877968 
L 345.79584 77.539259 
L 346.15296 79.859779 
L 346.51008 86.814056 
L 346.8672 77.269341 
L 347.58144 81.545797 
L 347.93856 86.375682 
L 348.29568 79.7355 
L 348.6528 85.523206 
L 349.00992 87.686435 
L 349.36704 86.627152 
L 349.72416 81.102568 
L 350.08128 84.427028 
L 350.4384 73.455048 
L 350.79552 83.306091 
L 351.15264 73.13901 
L 351.50976 83.612419 
L 352.224 77.868404 
L 352.58112 82.997821 
L 352.93824 75.780422 
L 353.29536 77.072728 
L 353.65248 83.390561 
L 354.0096 84.594027 
L 354.36672 72.145265 
L 354.72384 81.104995 
L 355.08096 71.231135 
L 355.43808 73.047258 
L 355.7952 81.357437 
L 356.15232 79.767055 
L 356.50944 74.253637 
L 356.86656 84.729472 
L 357.22368 79.530149 
L 357.5808 77.302838 
L 357.93792 82.915777 
L 358.29504 71.701065 
L 358.65216 78.808263 
L 359.00928 83.685238 
L 359.3664 70.058254 
L 359.72352 72.696752 
L 360.08064 84.490138 
L 360.43776 74.993484 
L 360.79488 73.23319 
L 361.152 82.784702 
L 361.50912 78.57524 
L 361.86624 80.223392 
L 362.22336 73.284164 
L 362.58048 68.634387 
L 362.9376 80.552537 
L 363.29472 72.471011 
L 363.65184 73.657972 
L 364.00896 78.471836 
L 364.36608 76.019756 
L 364.7232 79.352954 
L 365.08032 70.948595 
L 365.43744 75.86732 
L 365.79456 82.632266 
L 366.15168 79.680157 
L 366.5088 79.434512 
L 366.86592 67.740647 
L 367.22304 66.847392 
L 367.58016 75.614879 
L 368.2944 73.031237 
L 368.65152 68.861098 
L 369.00864 75.684785 
L 369.36576 68.42418 
L 369.72288 74.819688 
L 370.08 76.826112 
L 370.43712 69.733478 
L 371.15136 77.747038 
L 371.50848 76.468325 
L 371.8656 79.901529 
L 372.22272 66.481838 
L 372.57984 80.429229 
L 372.93696 72.976865 
L 373.29408 75.720224 
L 374.00832 67.135273 
L 374.36544 78.865548 
L 374.72256 67.622679 
L 375.07968 79.70443 
L 375.4368 72.423921 
L 375.79392 70.76509 
L 376.15104 79.603454 
L 376.50816 64.30987 
L 376.86528 71.010249 
L 377.2224 75.539146 
L 377.57952 78.284447 
L 377.93664 69.598519 
L 378.29376 68.259608 
L 378.65088 68.352332 
L 379.008 75.627501 
L 379.36512 71.275798 
L 379.72224 71.077243 
L 380.07936 68.546517 
L 380.43648 74.872604 
L 380.7936 69.387342 
L 381.15072 66.167257 
L 381.50784 77.941224 
L 382.22208 68.949938 
L 382.5792 71.924379 
L 382.93632 64.051117 
L 383.29344 75.884311 
L 383.65056 77.031464 
L 384.00768 76.754749 
L 384.3648 63.131648 
L 384.72192 64.209864 
L 385.07904 72.738988 
L 385.43616 63.775859 
L 385.79328 76.12316 
L 386.1504 62.437919 
L 386.50752 66.95468 
L 386.86464 62.26558 
L 387.22176 74.634726 
L 387.57888 65.106517 
L 387.936 74.441026 
L 388.29312 63.40545 
L 388.65024 72.451593 
L 389.00736 70.65586 
L 389.36448 61.419415 
L 389.7216 60.426155 
L 390.07872 68.265434 
L 390.43584 61.361645 
L 390.79296 61.3097 
L 391.15008 69.788335 
L 391.5072 66.482323 
L 391.86432 66.317265 
L 392.22144 60.755785 
L 392.57856 63.966647 
L 392.93568 68.621764 
L 393.2928 59.292596 
L 393.64992 67.29936 
L 394.00704 64.580274 
L 394.36416 63.369526 
L 394.72128 58.920245 
L 395.0784 74.00071 
L 395.43552 71.629702 
L 395.79264 64.286082 
L 396.14976 68.112512 
L 396.50688 69.8296 
L 396.864 58.498376 
L 397.22112 71.919038 
L 397.57824 61.046093 
L 397.93536 71.713202 
L 398.29248 72.985604 
L 398.6496 64.61814 
L 399.00672 61.850993 
L 399.36384 69.398507 
L 399.72096 63.073878 
L 400.07808 71.146179 
L 400.4352 65.870638 
L 400.79232 67.964931 
L 401.14944 64.255983 
L 401.50656 63.65692 
L 401.86368 66.306099 
L 402.2208 60.582475 
L 402.57792 69.181505 
L 402.93504 67.846478 
L 403.29216 66.997401 
L 403.64928 57.087131 
L 404.0064 61.234939 
L 404.36352 72.791418 
L 404.72064 59.058116 
L 405.07776 59.53193 
L 405.43488 70.21166 
L 405.792 69.563565 
L 406.50624 58.906652 
L 406.86336 63.642842 
L 407.22048 57.954171 
L 407.5776 64.901651 
L 407.93472 64.958936 
L 408.29184 69.334912 
L 408.64896 64.365213 
L 409.00608 71.040833 
L 409.3632 56.070083 
L 409.72032 69.505795 
L 410.07744 60.912105 
L 410.43456 68.087754 
L 410.79168 65.796362 
L 411.1488 69.95048 
L 411.50592 68.081443 
L 411.86304 58.234283 
L 412.22016 61.526703 
L 412.57728 68.347963 
L 412.9344 54.317557 
L 413.29152 65.807042 
L 413.64864 63.016107 
L 414.00576 53.568 
L 414.36288 69.317435 
L 414.72 54.342316 
L 414.72 54.342316 
" style="fill:none;stroke:#000080;stroke-linecap:square;stroke-width:0.5;"/>
   </g>
   <g id="patch_3">
    <path d="M 57.6 307.584 
L 57.6 41.472 
" style="fill:none;stroke:#000000;stroke-linecap:square;stroke-linejoin:miter;stroke-width:0.8;"/>
   </g>
   <g id="patch_4">
    <path d="M 414.72 307.584 
L 414.72 41.472 
" style="fill:none;stroke:#000000;stroke-linecap:square;stroke-linejoin:miter;stroke-width:0.8;"/>
   </g>
   <g id="patch_5">
    <path d="M 57.6 307.584 
L 414.72 307.584 
" style="fill:none;stroke:#000000;stroke-linecap:square;stroke-linejoin:miter;stroke-width:0.8;"/>
   </g>
   <g id="patch_6">
    <path d="M 57.6 41.472 
L 414.72 41.472 
" style="fill:none;stroke:#000000;stroke-linecap:square;stroke-linejoin:miter;stroke-width:0.8;"/>
   </g>
   <g id="text_15">
    <!-- Test -->
    <defs>
     <path d="M -0.296875 72.90625 
L 61.375 72.90625 
L 61.375 64.59375 
L 35.5 64.59375 
L 35.5 0 
L 25.59375 0 
L 25.59375 64.59375 
L -0.296875 64.59375 
z
" id="DejaVuSans-54"/>
    </defs>
    <g transform="translate(223.341563 35.472)scale(0.12 -0.12)">
     <use xlink:href="#DejaVuSans-54"/>
     <use x="60.818359" xlink:href="#DejaVuSans-65"/>
     <use x="122.341797" xlink:href="#DejaVuSans-73"/>
     <use x="174.441406" xlink:href="#DejaVuSans-74"/>
    </g>
   </g>
   <g id="legend_1">
    <g id="patch_7">
     <path d="M 64.6 64.150125 
L 306.276563 64.150125 
Q 308.276563 64.150125 308.276563 62.150125 
L 308.276563 48.472 
Q 308.276563 46.472 306.276563 46.472 
L 64.6 46.472 
Q 62.6 46.472 62.6 48.472 
L 62.6 62.150125 
Q 62.6 64.150125 64.6 64.150125 
z
" style="fill:#ffffff;opacity:0.8;stroke:#cccccc;stroke-linejoin:miter;"/>
    </g>
    <g id="line2d_26">
     <path d="M 66.6 54.570438 
L 86.6 54.570438 
" style="fill:none;stroke:#000080;stroke-linecap:square;stroke-width:0.5;"/>
    </g>
    <g id="line2d_27"/>
    <g id="text_16">
     <!-- Successful download requests per second -->
     <g transform="translate(94.6 58.070438)scale(0.1 -0.1)">
      <use xlink:href="#DejaVuSans-53"/>
      <use x="63.476562" xlink:href="#DejaVuSans-75"/>
      <use x="126.855469" xlink:href="#DejaVuSans-63"/>
      <use x="181.835938" xlink:href="#DejaVuSans-63"/>
      <use x="236.816406" xlink:href="#DejaVuSans-65"/>
      <use x="298.339844" xlink:href="#DejaVuSans-73"/>
      <use x="350.439453" xlink:href="#DejaVuSans-73"/>
      <use x="402.539062" xlink:href="#DejaVuSans-66"/>
      <use x="437.744141" xlink:href="#DejaVuSans-75"/>
      <use x="501.123047" xlink:href="#DejaVuSans-6c"/>
      <use x="528.90625" xlink:href="#DejaVuSans-20"/>
      <use x="560.693359" xlink:href="#DejaVuSans-64"/>
      <use x="624.169922" xlink:href="#DejaVuSans-6f"/>
      <use x="685.351562" xlink:href="#DejaVuSans-77"/>
      <use x="767.138672" xlink:href="#DejaVuSans-6e"/>
      <use x="830.517578" xlink:href="#DejaVuSans-6c"/>
      <use x="858.300781" xlink:href="#DejaVuSans-6f"/>
      <use x="919.482422" xlink:href="#DejaVuSans-61"/>
      <use x="980.761719" xlink:href="#DejaVuSans-64"/>
      <use x="1044.238281" xlink:href="#DejaVuSans-20"/>
      <use x="1076.025391" xlink:href="#DejaVuSans-72"/>
      <use x="1117.107422" xlink:href="#DejaVuSans-65"/>
      <use x="1178.630859" xlink:href="#DejaVuSans-71"/>
      <use x="1242.107422" xlink:href="#DejaVuSans-75"/>
      <use x="1305.486328" xlink:href="#DejaVuSans-65"/>
      <use x="1367.009766" xlink:href="#DejaVuSans-73"/>
      <use x="1419.109375" xlink:href="#DejaVuSans-74"/>
      <use x="1458.318359" xlink:href="#DejaVuSans-73"/>
      <use x="1510.417969" xlink:href="#DejaVuSans-20"/>
      <use x="1542.205078" xlink:href="#DejaVuSans-70"/>
      <use x="1605.681641" xlink:href="#DejaVuSans-65"/>
      <use x="1667.205078" xlink:href="#DejaVuSans-72"/>
      <use x="1708.318359" xlink:href="#DejaVuSans-20"/>
      <use x="1740.105469" xlink:href="#DejaVuSans-73"/>
      <use x="1792.205078" xlink:href="#DejaVuSans-65"/>
      <use x="1853.728516" xlink:href="#DejaVuSans-63"/>
      <use x="1908.708984" xlink:href="#DejaVuSans-6f"/>
      <use x="1969.890625" xlink:href="#DejaVuSans-6e"/>
      <use x="2033.269531" xlink:href="#DejaVuSans-64"/>
     </g>
    </g>
   </g>
  </g>
 </g>
 <defs>
  <clipPath id="p805fa60430">
   <rect height="266.112" width="357.12" x="57.6" y="41.472"/>
  </clipPath>
 </defs>
</svg>
