<?xml version="1.0" encoding="utf-8" standalone="no"?>
<!DOCTYPE svg PUBLIC "-//W3C//DTD SVG 1.1//EN"
  "http://www.w3.org/Graphics/SVG/1.1/DTD/svg11.dtd">
<!-- Created with matplotlib (http://matplotlib.org/) -->
<svg height="345pt" version="1.1" viewBox="0 0 460 345" width="460pt" xmlns="http://www.w3.org/2000/svg" xmlns:xlink="http://www.w3.org/1999/xlink">
 <defs>
  <style type="text/css">
*{stroke-linecap:butt;stroke-linejoin:round;}
  </style>
 </defs>
 <g id="figure_1">
  <g id="patch_1">
   <path d="M 0 345.6 
L 460.8 345.6 
L 460.8 0 
L 0 0 
z
" style="fill:#ffffff;"/>
  </g>
  <g id="axes_1">
   <g id="patch_2">
    <path d="M 57.6 307.584 
L 414.72 307.584 
L 414.72 41.472 
L 57.6 41.472 
z
" style="fill:#ffffff;"/>
   </g>
   <g id="matplotlib.axis_1">
    <g id="xtick_1">
     <g id="line2d_1">
      <path clip-path="url(#p4ed0bbbe24)" d="M 57.6 307.584 
L 57.6 41.472 
" style="fill:none;stroke:#b0b0b0;stroke-linecap:square;stroke-width:0.8;"/>
     </g>
     <g id="line2d_2">
      <defs>
       <path d="M 0 0 
L 0 3.5 
" id="m7b2a14c038" style="stroke:#000000;stroke-width:0.8;"/>
      </defs>
      <g>
       <use style="stroke:#000000;stroke-width:0.8;" x="57.6" xlink:href="#m7b2a14c038" y="307.584"/>
      </g>
     </g>
     <g id="text_1">
      <!-- 0 -->
      <defs>
       <path d="M 31.78125 66.40625 
Q 24.171875 66.40625 20.328125 58.90625 
Q 16.5 51.421875 16.5 36.375 
Q 16.5 21.390625 20.328125 13.890625 
Q 24.171875 6.390625 31.78125 6.390625 
Q 39.453125 6.390625 43.28125 13.890625 
Q 47.125 21.390625 47.125 36.375 
Q 47.125 51.421875 43.28125 58.90625 
Q 39.453125 66.40625 31.78125 66.40625 
M 31.78125 74.21875 
Q 44.046875 74.21875 50.515625 64.515625 
Q 56.984375 54.828125 56.984375 36.375 
Q 56.984375 17.96875 50.515625 8.265625 
Q 44.046875 -1.421875 31.78125 -1.421875 
Q 19.53125 -1.421875 13.0625 8.265625 
Q 6.59375 17.96875 6.59375 36.375 
Q 6.59375 54.828125 13.0625 64.515625 
Q 19.53125 74.21875 31.78125 74.21875 
" id="DejaVuSans-30"/>
      </defs>
      <g transform="translate(54.41875 322.182437)scale(0.1 -0.1)">
       <use xlink:href="#DejaVuSans-30"/>
      </g>
     </g>
    </g>
    <g id="xtick_2">
     <g id="line2d_3">
      <path clip-path="url(#p4ed0bbbe24)" d="M 129.024 307.584 
L 129.024 41.472 
" style="fill:none;stroke:#b0b0b0;stroke-linecap:square;stroke-width:0.8;"/>
     </g>
     <g id="line2d_4">
      <g>
       <use style="stroke:#000000;stroke-width:0.8;" x="129.024" xlink:href="#m7b2a14c038" y="307.584"/>
      </g>
     </g>
     <g id="text_2">
      <!-- 200 -->
      <defs>
       <path d="M 19.1875 8.296875 
L 53.609375 8.296875 
L 53.609375 0 
L 7.328125 0 
L 7.328125 8.296875 
Q 12.9375 14.109375 22.625 23.890625 
Q 32.328125 33.6875 34.8125 36.53125 
Q 39.546875 41.84375 41.421875 45.53125 
Q 43.3125 49.21875 43.3125 52.78125 
Q 43.3125 58.59375 39.234375 62.25 
Q 35.15625 65.921875 28.609375 65.921875 
Q 23.96875 65.921875 18.8125 64.3125 
Q 13.671875 62.703125 7.8125 59.421875 
L 7.8125 69.390625 
Q 13.765625 71.78125 18.9375 73 
Q 24.125 74.21875 28.421875 74.21875 
Q 39.75 74.21875 46.484375 68.546875 
Q 53.21875 62.890625 53.21875 53.421875 
Q 53.21875 48.921875 51.53125 44.890625 
Q 49.859375 40.875 45.40625 35.40625 
Q 44.1875 33.984375 37.640625 27.21875 
Q 31.109375 20.453125 19.1875 8.296875 
" id="DejaVuSans-32"/>
      </defs>
      <g transform="translate(119.48025 322.182437)scale(0.1 -0.1)">
       <use xlink:href="#DejaVuSans-32"/>
       <use x="63.623047" xlink:href="#DejaVuSans-30"/>
       <use x="127.246094" xlink:href="#DejaVuSans-30"/>
      </g>
     </g>
    </g>
    <g id="xtick_3">
     <g id="line2d_5">
      <path clip-path="url(#p4ed0bbbe24)" d="M 200.448 307.584 
L 200.448 41.472 
" style="fill:none;stroke:#b0b0b0;stroke-linecap:square;stroke-width:0.8;"/>
     </g>
     <g id="line2d_6">
      <g>
       <use style="stroke:#000000;stroke-width:0.8;" x="200.448" xlink:href="#m7b2a14c038" y="307.584"/>
      </g>
     </g>
     <g id="text_3">
      <!-- 400 -->
      <defs>
       <path d="M 37.796875 64.3125 
L 12.890625 25.390625 
L 37.796875 25.390625 
z
M 35.203125 72.90625 
L 47.609375 72.90625 
L 47.609375 25.390625 
L 58.015625 25.390625 
L 58.015625 17.1875 
L 47.609375 17.1875 
L 47.609375 0 
L 37.796875 0 
L 37.796875 17.1875 
L 4.890625 17.1875 
L 4.890625 26.703125 
z
" id="DejaVuSans-34"/>
      </defs>
      <g transform="translate(190.90425 322.182437)scale(0.1 -0.1)">
       <use xlink:href="#DejaVuSans-34"/>
       <use x="63.623047" xlink:href="#DejaVuSans-30"/>
       <use x="127.246094" xlink:href="#DejaVuSans-30"/>
      </g>
     </g>
    </g>
    <g id="xtick_4">
     <g id="line2d_7">
      <path clip-path="url(#p4ed0bbbe24)" d="M 271.872 307.584 
L 271.872 41.472 
" style="fill:none;stroke:#b0b0b0;stroke-linecap:square;stroke-width:0.8;"/>
     </g>
     <g id="line2d_8">
      <g>
       <use style="stroke:#000000;stroke-width:0.8;" x="271.872" xlink:href="#m7b2a14c038" y="307.584"/>
      </g>
     </g>
     <g id="text_4">
      <!-- 600 -->
      <defs>
       <path d="M 33.015625 40.375 
Q 26.375 40.375 22.484375 35.828125 
Q 18.609375 31.296875 18.609375 23.390625 
Q 18.609375 15.53125 22.484375 10.953125 
Q 26.375 6.390625 33.015625 6.390625 
Q 39.65625 6.390625 43.53125 10.953125 
Q 47.40625 15.53125 47.40625 23.390625 
Q 47.40625 31.296875 43.53125 35.828125 
Q 39.65625 40.375 33.015625 40.375 
M 52.59375 71.296875 
L 52.59375 62.3125 
Q 48.875 64.0625 45.09375 64.984375 
Q 41.3125 65.921875 37.59375 65.921875 
Q 27.828125 65.921875 22.671875 59.328125 
Q 17.53125 52.734375 16.796875 39.40625 
Q 19.671875 43.65625 24.015625 45.921875 
Q 28.375 48.1875 33.59375 48.1875 
Q 44.578125 48.1875 50.953125 41.515625 
Q 57.328125 34.859375 57.328125 23.390625 
Q 57.328125 12.15625 50.6875 5.359375 
Q 44.046875 -1.421875 33.015625 -1.421875 
Q 20.359375 -1.421875 13.671875 8.265625 
Q 6.984375 17.96875 6.984375 36.375 
Q 6.984375 53.65625 15.1875 63.9375 
Q 23.390625 74.21875 37.203125 74.21875 
Q 40.921875 74.21875 44.703125 73.484375 
Q 48.484375 72.75 52.59375 71.296875 
" id="DejaVuSans-36"/>
      </defs>
      <g transform="translate(262.32825 322.182437)scale(0.1 -0.1)">
       <use xlink:href="#DejaVuSans-36"/>
       <use x="63.623047" xlink:href="#DejaVuSans-30"/>
       <use x="127.246094" xlink:href="#DejaVuSans-30"/>
      </g>
     </g>
    </g>
    <g id="xtick_5">
     <g id="line2d_9">
      <path clip-path="url(#p4ed0bbbe24)" d="M 343.296 307.584 
L 343.296 41.472 
" style="fill:none;stroke:#b0b0b0;stroke-linecap:square;stroke-width:0.8;"/>
     </g>
     <g id="line2d_10">
      <g>
       <use style="stroke:#000000;stroke-width:0.8;" x="343.296" xlink:href="#m7b2a14c038" y="307.584"/>
      </g>
     </g>
     <g id="text_5">
      <!-- 800 -->
      <defs>
       <path d="M 31.78125 34.625 
Q 24.75 34.625 20.71875 30.859375 
Q 16.703125 27.09375 16.703125 20.515625 
Q 16.703125 13.921875 20.71875 10.15625 
Q 24.75 6.390625 31.78125 6.390625 
Q 38.8125 6.390625 42.859375 10.171875 
Q 46.921875 13.96875 46.921875 20.515625 
Q 46.921875 27.09375 42.890625 30.859375 
Q 38.875 34.625 31.78125 34.625 
M 21.921875 38.8125 
Q 15.578125 40.375 12.03125 44.71875 
Q 8.5 49.078125 8.5 55.328125 
Q 8.5 64.0625 14.71875 69.140625 
Q 20.953125 74.21875 31.78125 74.21875 
Q 42.671875 74.21875 48.875 69.140625 
Q 55.078125 64.0625 55.078125 55.328125 
Q 55.078125 49.078125 51.53125 44.71875 
Q 48 40.375 41.703125 38.8125 
Q 48.828125 37.15625 52.796875 32.3125 
Q 56.78125 27.484375 56.78125 20.515625 
Q 56.78125 9.90625 50.3125 4.234375 
Q 43.84375 -1.421875 31.78125 -1.421875 
Q 19.734375 -1.421875 13.25 4.234375 
Q 6.78125 9.90625 6.78125 20.515625 
Q 6.78125 27.484375 10.78125 32.3125 
Q 14.796875 37.15625 21.921875 38.8125 
M 18.3125 54.390625 
Q 18.3125 48.734375 21.84375 45.5625 
Q 25.390625 42.390625 31.78125 42.390625 
Q 38.140625 42.390625 41.71875 45.5625 
Q 45.3125 48.734375 45.3125 54.390625 
Q 45.3125 60.0625 41.71875 63.234375 
Q 38.140625 66.40625 31.78125 66.40625 
Q 25.390625 66.40625 21.84375 63.234375 
Q 18.3125 60.0625 18.3125 54.390625 
" id="DejaVuSans-38"/>
      </defs>
      <g transform="translate(333.75225 322.182437)scale(0.1 -0.1)">
       <use xlink:href="#DejaVuSans-38"/>
       <use x="63.623047" xlink:href="#DejaVuSans-30"/>
       <use x="127.246094" xlink:href="#DejaVuSans-30"/>
      </g>
     </g>
    </g>
    <g id="xtick_6">
     <g id="line2d_11">
      <path clip-path="url(#p4ed0bbbe24)" d="M 414.72 307.584 
L 414.72 41.472 
" style="fill:none;stroke:#b0b0b0;stroke-linecap:square;stroke-width:0.8;"/>
     </g>
     <g id="line2d_12">
      <g>
       <use style="stroke:#000000;stroke-width:0.8;" x="414.72" xlink:href="#m7b2a14c038" y="307.584"/>
      </g>
     </g>
     <g id="text_6">
      <!-- 1000 -->
      <defs>
       <path d="M 12.40625 8.296875 
L 28.515625 8.296875 
L 28.515625 63.921875 
L 10.984375 60.40625 
L 10.984375 69.390625 
L 28.421875 72.90625 
L 38.28125 72.90625 
L 38.28125 8.296875 
L 54.390625 8.296875 
L 54.390625 0 
L 12.40625 0 
z
" id="DejaVuSans-31"/>
      </defs>
      <g transform="translate(401.995 322.182437)scale(0.1 -0.1)">
       <use xlink:href="#DejaVuSans-31"/>
       <use x="63.623047" xlink:href="#DejaVuSans-30"/>
       <use x="127.246094" xlink:href="#DejaVuSans-30"/>
       <use x="190.869141" xlink:href="#DejaVuSans-30"/>
      </g>
     </g>
    </g>
    <g id="text_7">
     <!-- Number of clients -->
     <defs>
      <path d="M 9.8125 72.90625 
L 23.09375 72.90625 
L 55.421875 11.921875 
L 55.421875 72.90625 
L 64.984375 72.90625 
L 64.984375 0 
L 51.703125 0 
L 19.390625 60.984375 
L 19.390625 0 
L 9.8125 0 
z
" id="DejaVuSans-4e"/>
      <path d="M 8.5 21.578125 
L 8.5 54.6875 
L 17.484375 54.6875 
L 17.484375 21.921875 
Q 17.484375 14.15625 20.5 10.265625 
Q 23.53125 6.390625 29.59375 6.390625 
Q 36.859375 6.390625 41.078125 11.03125 
Q 45.3125 15.671875 45.3125 23.6875 
L 45.3125 54.6875 
L 54.296875 54.6875 
L 54.296875 0 
L 45.3125 0 
L 45.3125 8.40625 
Q 42.046875 3.421875 37.71875 1 
Q 33.40625 -1.421875 27.6875 -1.421875 
Q 18.265625 -1.421875 13.375 4.4375 
Q 8.5 10.296875 8.5 21.578125 
M 31.109375 56 
z
" id="DejaVuSans-75"/>
      <path d="M 52 44.1875 
Q 55.375 50.25 60.0625 53.125 
Q 64.75 56 71.09375 56 
Q 79.640625 56 84.28125 50.015625 
Q 88.921875 44.046875 88.921875 33.015625 
L 88.921875 0 
L 79.890625 0 
L 79.890625 32.71875 
Q 79.890625 40.578125 77.09375 44.375 
Q 74.3125 48.1875 68.609375 48.1875 
Q 61.625 48.1875 57.5625 43.546875 
Q 53.515625 38.921875 53.515625 30.90625 
L 53.515625 0 
L 44.484375 0 
L 44.484375 32.71875 
Q 44.484375 40.625 41.703125 44.40625 
Q 38.921875 48.1875 33.109375 48.1875 
Q 26.21875 48.1875 22.15625 43.53125 
Q 18.109375 38.875 18.109375 30.90625 
L 18.109375 0 
L 9.078125 0 
L 9.078125 54.6875 
L 18.109375 54.6875 
L 18.109375 46.1875 
Q 21.1875 51.21875 25.484375 53.609375 
Q 29.78125 56 35.6875 56 
Q 41.65625 56 45.828125 52.96875 
Q 50 49.953125 52 44.1875 
" id="DejaVuSans-6d"/>
      <path d="M 48.6875 27.296875 
Q 48.6875 37.203125 44.609375 42.84375 
Q 40.53125 48.484375 33.40625 48.484375 
Q 26.265625 48.484375 22.1875 42.84375 
Q 18.109375 37.203125 18.109375 27.296875 
Q 18.109375 17.390625 22.1875 11.75 
Q 26.265625 6.109375 33.40625 6.109375 
Q 40.53125 6.109375 44.609375 11.75 
Q 48.6875 17.390625 48.6875 27.296875 
M 18.109375 46.390625 
Q 20.953125 51.265625 25.265625 53.625 
Q 29.59375 56 35.59375 56 
Q 45.5625 56 51.78125 48.09375 
Q 58.015625 40.1875 58.015625 27.296875 
Q 58.015625 14.40625 51.78125 6.484375 
Q 45.5625 -1.421875 35.59375 -1.421875 
Q 29.59375 -1.421875 25.265625 0.953125 
Q 20.953125 3.328125 18.109375 8.203125 
L 18.109375 0 
L 9.078125 0 
L 9.078125 75.984375 
L 18.109375 75.984375 
z
" id="DejaVuSans-62"/>
      <path d="M 56.203125 29.59375 
L 56.203125 25.203125 
L 14.890625 25.203125 
Q 15.484375 15.921875 20.484375 11.0625 
Q 25.484375 6.203125 34.421875 6.203125 
Q 39.59375 6.203125 44.453125 7.46875 
Q 49.3125 8.734375 54.109375 11.28125 
L 54.109375 2.78125 
Q 49.265625 0.734375 44.1875 -0.34375 
Q 39.109375 -1.421875 33.890625 -1.421875 
Q 20.796875 -1.421875 13.15625 6.1875 
Q 5.515625 13.8125 5.515625 26.8125 
Q 5.515625 40.234375 12.765625 48.109375 
Q 20.015625 56 32.328125 56 
Q 43.359375 56 49.78125 48.890625 
Q 56.203125 41.796875 56.203125 29.59375 
M 47.21875 32.234375 
Q 47.125 39.59375 43.09375 43.984375 
Q 39.0625 48.390625 32.421875 48.390625 
Q 24.90625 48.390625 20.390625 44.140625 
Q 15.875 39.890625 15.1875 32.171875 
z
" id="DejaVuSans-65"/>
      <path d="M 41.109375 46.296875 
Q 39.59375 47.171875 37.8125 47.578125 
Q 36.03125 48 33.890625 48 
Q 26.265625 48 22.1875 43.046875 
Q 18.109375 38.09375 18.109375 28.8125 
L 18.109375 0 
L 9.078125 0 
L 9.078125 54.6875 
L 18.109375 54.6875 
L 18.109375 46.1875 
Q 20.953125 51.171875 25.484375 53.578125 
Q 30.03125 56 36.53125 56 
Q 37.453125 56 38.578125 55.875 
Q 39.703125 55.765625 41.0625 55.515625 
z
" id="DejaVuSans-72"/>
      <path id="DejaVuSans-20"/>
      <path d="M 30.609375 48.390625 
Q 23.390625 48.390625 19.1875 42.75 
Q 14.984375 37.109375 14.984375 27.296875 
Q 14.984375 17.484375 19.15625 11.84375 
Q 23.34375 6.203125 30.609375 6.203125 
Q 37.796875 6.203125 41.984375 11.859375 
Q 46.1875 17.53125 46.1875 27.296875 
Q 46.1875 37.015625 41.984375 42.703125 
Q 37.796875 48.390625 30.609375 48.390625 
M 30.609375 56 
Q 42.328125 56 49.015625 48.375 
Q 55.71875 40.765625 55.71875 27.296875 
Q 55.71875 13.875 49.015625 6.21875 
Q 42.328125 -1.421875 30.609375 -1.421875 
Q 18.84375 -1.421875 12.171875 6.21875 
Q 5.515625 13.875 5.515625 27.296875 
Q 5.515625 40.765625 12.171875 48.375 
Q 18.84375 56 30.609375 56 
" id="DejaVuSans-6f"/>
      <path d="M 37.109375 75.984375 
L 37.109375 68.5 
L 28.515625 68.5 
Q 23.6875 68.5 21.796875 66.546875 
Q 19.921875 64.59375 19.921875 59.515625 
L 19.921875 54.6875 
L 34.71875 54.6875 
L 34.71875 47.703125 
L 19.921875 47.703125 
L 19.921875 0 
L 10.890625 0 
L 10.890625 47.703125 
L 2.296875 47.703125 
L 2.296875 54.6875 
L 10.890625 54.6875 
L 10.890625 58.5 
Q 10.890625 67.625 15.140625 71.796875 
Q 19.390625 75.984375 28.609375 75.984375 
z
" id="DejaVuSans-66"/>
      <path d="M 48.78125 52.59375 
L 48.78125 44.1875 
Q 44.96875 46.296875 41.140625 47.34375 
Q 37.3125 48.390625 33.40625 48.390625 
Q 24.65625 48.390625 19.8125 42.84375 
Q 14.984375 37.3125 14.984375 27.296875 
Q 14.984375 17.28125 19.8125 11.734375 
Q 24.65625 6.203125 33.40625 6.203125 
Q 37.3125 6.203125 41.140625 7.25 
Q 44.96875 8.296875 48.78125 10.40625 
L 48.78125 2.09375 
Q 45.015625 0.34375 40.984375 -0.53125 
Q 36.96875 -1.421875 32.421875 -1.421875 
Q 20.0625 -1.421875 12.78125 6.34375 
Q 5.515625 14.109375 5.515625 27.296875 
Q 5.515625 40.671875 12.859375 48.328125 
Q 20.21875 56 33.015625 56 
Q 37.15625 56 41.109375 55.140625 
Q 45.0625 54.296875 48.78125 52.59375 
" id="DejaVuSans-63"/>
      <path d="M 9.421875 75.984375 
L 18.40625 75.984375 
L 18.40625 0 
L 9.421875 0 
z
" id="DejaVuSans-6c"/>
      <path d="M 9.421875 54.6875 
L 18.40625 54.6875 
L 18.40625 0 
L 9.421875 0 
z
M 9.421875 75.984375 
L 18.40625 75.984375 
L 18.40625 64.59375 
L 9.421875 64.59375 
z
" id="DejaVuSans-69"/>
      <path d="M 54.890625 33.015625 
L 54.890625 0 
L 45.90625 0 
L 45.90625 32.71875 
Q 45.90625 40.484375 42.875 44.328125 
Q 39.84375 48.1875 33.796875 48.1875 
Q 26.515625 48.1875 22.3125 43.546875 
Q 18.109375 38.921875 18.109375 30.90625 
L 18.109375 0 
L 9.078125 0 
L 9.078125 54.6875 
L 18.109375 54.6875 
L 18.109375 46.1875 
Q 21.34375 51.125 25.703125 53.5625 
Q 30.078125 56 35.796875 56 
Q 45.21875 56 50.046875 50.171875 
Q 54.890625 44.34375 54.890625 33.015625 
" id="DejaVuSans-6e"/>
      <path d="M 18.3125 70.21875 
L 18.3125 54.6875 
L 36.8125 54.6875 
L 36.8125 47.703125 
L 18.3125 47.703125 
L 18.3125 18.015625 
Q 18.3125 11.328125 20.140625 9.421875 
Q 21.96875 7.515625 27.59375 7.515625 
L 36.8125 7.515625 
L 36.8125 0 
L 27.59375 0 
Q 17.1875 0 13.234375 3.875 
Q 9.28125 7.765625 9.28125 18.015625 
L 9.28125 47.703125 
L 2.6875 47.703125 
L 2.6875 54.6875 
L 9.28125 54.6875 
L 9.28125 70.21875 
z
" id="DejaVuSans-74"/>
      <path d="M 44.28125 53.078125 
L 44.28125 44.578125 
Q 40.484375 46.53125 36.375 47.5 
Q 32.28125 48.484375 27.875 48.484375 
Q 21.1875 48.484375 17.84375 46.4375 
Q 14.5 44.390625 14.5 40.28125 
Q 14.5 37.15625 16.890625 35.375 
Q 19.28125 33.59375 26.515625 31.984375 
L 29.59375 31.296875 
Q 39.15625 29.25 43.1875 25.515625 
Q 47.21875 21.78125 47.21875 15.09375 
Q 47.21875 7.46875 41.1875 3.015625 
Q 35.15625 -1.421875 24.609375 -1.421875 
Q 20.21875 -1.421875 15.453125 -0.5625 
Q 10.6875 0.296875 5.421875 2 
L 5.421875 11.28125 
Q 10.40625 8.6875 15.234375 7.390625 
Q 20.0625 6.109375 24.8125 6.109375 
Q 31.15625 6.109375 34.5625 8.28125 
Q 37.984375 10.453125 37.984375 14.40625 
Q 37.984375 18.0625 35.515625 20.015625 
Q 33.0625 21.96875 24.703125 23.78125 
L 21.578125 24.515625 
Q 13.234375 26.265625 9.515625 29.90625 
Q 5.8125 33.546875 5.8125 39.890625 
Q 5.8125 47.609375 11.28125 51.796875 
Q 16.75 56 26.8125 56 
Q 31.78125 56 36.171875 55.265625 
Q 40.578125 54.546875 44.28125 53.078125 
" id="DejaVuSans-73"/>
     </defs>
     <g transform="translate(191.738906 335.860562)scale(0.1 -0.1)">
      <use xlink:href="#DejaVuSans-4e"/>
      <use x="74.804688" xlink:href="#DejaVuSans-75"/>
      <use x="138.183594" xlink:href="#DejaVuSans-6d"/>
      <use x="235.595703" xlink:href="#DejaVuSans-62"/>
      <use x="299.072266" xlink:href="#DejaVuSans-65"/>
      <use x="360.595703" xlink:href="#DejaVuSans-72"/>
      <use x="401.708984" xlink:href="#DejaVuSans-20"/>
      <use x="433.496094" xlink:href="#DejaVuSans-6f"/>
      <use x="494.677734" xlink:href="#DejaVuSans-66"/>
      <use x="529.882812" xlink:href="#DejaVuSans-20"/>
      <use x="561.669922" xlink:href="#DejaVuSans-63"/>
      <use x="616.650391" xlink:href="#DejaVuSans-6c"/>
      <use x="644.433594" xlink:href="#DejaVuSans-69"/>
      <use x="672.216797" xlink:href="#DejaVuSans-65"/>
      <use x="733.740234" xlink:href="#DejaVuSans-6e"/>
      <use x="797.119141" xlink:href="#DejaVuSans-74"/>
      <use x="836.328125" xlink:href="#DejaVuSans-73"/>
     </g>
    </g>
   </g>
   <g id="matplotlib.axis_2">
    <g id="ytick_1">
     <g id="line2d_13">
      <path clip-path="url(#p4ed0bbbe24)" d="M 57.6 295.906213 
L 414.72 295.906213 
" style="fill:none;stroke:#b0b0b0;stroke-linecap:square;stroke-width:0.8;"/>
     </g>
     <g id="line2d_14">
      <defs>
       <path d="M 0 0 
L -3.5 0 
" id="mdcac88f7b0" style="stroke:#000000;stroke-width:0.8;"/>
      </defs>
      <g>
       <use style="stroke:#000000;stroke-width:0.8;" x="57.6" xlink:href="#mdcac88f7b0" y="295.906213"/>
      </g>
     </g>
     <g id="text_8">
      <!-- 0 -->
      <g transform="translate(44.2375 299.705432)scale(0.1 -0.1)">
       <use xlink:href="#DejaVuSans-30"/>
      </g>
     </g>
    </g>
    <g id="ytick_2">
     <g id="line2d_15">
      <path clip-path="url(#p4ed0bbbe24)" d="M 57.6 252.11424 
L 414.72 252.11424 
" style="fill:none;stroke:#b0b0b0;stroke-linecap:square;stroke-width:0.8;"/>
     </g>
     <g id="line2d_16">
      <g>
       <use style="stroke:#000000;stroke-width:0.8;" x="57.6" xlink:href="#mdcac88f7b0" y="252.11424"/>
      </g>
     </g>
     <g id="text_9">
      <!-- 100 -->
      <g transform="translate(31.5125 255.913458)scale(0.1 -0.1)">
       <use xlink:href="#DejaVuSans-31"/>
       <use x="63.623047" xlink:href="#DejaVuSans-30"/>
       <use x="127.246094" xlink:href="#DejaVuSans-30"/>
      </g>
     </g>
    </g>
    <g id="ytick_3">
     <g id="line2d_17">
      <path clip-path="url(#p4ed0bbbe24)" d="M 57.6 208.322266 
L 414.72 208.322266 
" style="fill:none;stroke:#b0b0b0;stroke-linecap:square;stroke-width:0.8;"/>
     </g>
     <g id="line2d_18">
      <g>
       <use style="stroke:#000000;stroke-width:0.8;" x="57.6" xlink:href="#mdcac88f7b0" y="208.322266"/>
      </g>
     </g>
     <g id="text_10">
      <!-- 200 -->
      <g transform="translate(31.5125 212.121485)scale(0.1 -0.1)">
       <use xlink:href="#DejaVuSans-32"/>
       <use x="63.623047" xlink:href="#DejaVuSans-30"/>
       <use x="127.246094" xlink:href="#DejaVuSans-30"/>
      </g>
     </g>
    </g>
    <g id="ytick_4">
     <g id="line2d_19">
      <path clip-path="url(#p4ed0bbbe24)" d="M 57.6 164.530292 
L 414.72 164.530292 
" style="fill:none;stroke:#b0b0b0;stroke-linecap:square;stroke-width:0.8;"/>
     </g>
     <g id="line2d_20">
      <g>
       <use style="stroke:#000000;stroke-width:0.8;" x="57.6" xlink:href="#mdcac88f7b0" y="164.530292"/>
      </g>
     </g>
     <g id="text_11">
      <!-- 300 -->
      <defs>
       <path d="M 40.578125 39.3125 
Q 47.65625 37.796875 51.625 33 
Q 55.609375 28.21875 55.609375 21.1875 
Q 55.609375 10.40625 48.1875 4.484375 
Q 40.765625 -1.421875 27.09375 -1.421875 
Q 22.515625 -1.421875 17.65625 -0.515625 
Q 12.796875 0.390625 7.625 2.203125 
L 7.625 11.71875 
Q 11.71875 9.328125 16.59375 8.109375 
Q 21.484375 6.890625 26.8125 6.890625 
Q 36.078125 6.890625 40.9375 10.546875 
Q 45.796875 14.203125 45.796875 21.1875 
Q 45.796875 27.640625 41.28125 31.265625 
Q 36.765625 34.90625 28.71875 34.90625 
L 20.21875 34.90625 
L 20.21875 43.015625 
L 29.109375 43.015625 
Q 36.375 43.015625 40.234375 45.921875 
Q 44.09375 48.828125 44.09375 54.296875 
Q 44.09375 59.90625 40.109375 62.90625 
Q 36.140625 65.921875 28.71875 65.921875 
Q 24.65625 65.921875 20.015625 65.03125 
Q 15.375 64.15625 9.8125 62.3125 
L 9.8125 71.09375 
Q 15.4375 72.65625 20.34375 73.4375 
Q 25.25 74.21875 29.59375 74.21875 
Q 40.828125 74.21875 47.359375 69.109375 
Q 53.90625 64.015625 53.90625 55.328125 
Q 53.90625 49.265625 50.4375 45.09375 
Q 46.96875 40.921875 40.578125 39.3125 
" id="DejaVuSans-33"/>
      </defs>
      <g transform="translate(31.5125 168.329511)scale(0.1 -0.1)">
       <use xlink:href="#DejaVuSans-33"/>
       <use x="63.623047" xlink:href="#DejaVuSans-30"/>
       <use x="127.246094" xlink:href="#DejaVuSans-30"/>
      </g>
     </g>
    </g>
    <g id="ytick_5">
     <g id="line2d_21">
      <path clip-path="url(#p4ed0bbbe24)" d="M 57.6 120.738319 
L 414.72 120.738319 
" style="fill:none;stroke:#b0b0b0;stroke-linecap:square;stroke-width:0.8;"/>
     </g>
     <g id="line2d_22">
      <g>
       <use style="stroke:#000000;stroke-width:0.8;" x="57.6" xlink:href="#mdcac88f7b0" y="120.738319"/>
      </g>
     </g>
     <g id="text_12">
      <!-- 400 -->
      <g transform="translate(31.5125 124.537538)scale(0.1 -0.1)">
       <use xlink:href="#DejaVuSans-34"/>
       <use x="63.623047" xlink:href="#DejaVuSans-30"/>
       <use x="127.246094" xlink:href="#DejaVuSans-30"/>
      </g>
     </g>
    </g>
    <g id="ytick_6">
     <g id="line2d_23">
      <path clip-path="url(#p4ed0bbbe24)" d="M 57.6 76.946345 
L 414.72 76.946345 
" style="fill:none;stroke:#b0b0b0;stroke-linecap:square;stroke-width:0.8;"/>
     </g>
     <g id="line2d_24">
      <g>
       <use style="stroke:#000000;stroke-width:0.8;" x="57.6" xlink:href="#mdcac88f7b0" y="76.946345"/>
      </g>
     </g>
     <g id="text_13">
      <!-- 500 -->
      <defs>
       <path d="M 10.796875 72.90625 
L 49.515625 72.90625 
L 49.515625 64.59375 
L 19.828125 64.59375 
L 19.828125 46.734375 
Q 21.96875 47.46875 24.109375 47.828125 
Q 26.265625 48.1875 28.421875 48.1875 
Q 40.625 48.1875 47.75 41.5 
Q 54.890625 34.8125 54.890625 23.390625 
Q 54.890625 11.625 47.5625 5.09375 
Q 40.234375 -1.421875 26.90625 -1.421875 
Q 22.3125 -1.421875 17.546875 -0.640625 
Q 12.796875 0.140625 7.71875 1.703125 
L 7.71875 11.625 
Q 12.109375 9.234375 16.796875 8.0625 
Q 21.484375 6.890625 26.703125 6.890625 
Q 35.15625 6.890625 40.078125 11.328125 
Q 45.015625 15.765625 45.015625 23.390625 
Q 45.015625 31 40.078125 35.4375 
Q 35.15625 39.890625 26.703125 39.890625 
Q 22.75 39.890625 18.8125 39.015625 
Q 14.890625 38.140625 10.796875 36.28125 
z
" id="DejaVuSans-35"/>
      </defs>
      <g transform="translate(31.5125 80.745564)scale(0.1 -0.1)">
       <use xlink:href="#DejaVuSans-35"/>
       <use x="63.623047" xlink:href="#DejaVuSans-30"/>
       <use x="127.246094" xlink:href="#DejaVuSans-30"/>
      </g>
     </g>
    </g>
    <g id="text_14">
     <!-- Successful download requests per second -->
     <defs>
      <path d="M 53.515625 70.515625 
L 53.515625 60.890625 
Q 47.90625 63.578125 42.921875 64.890625 
Q 37.9375 66.21875 33.296875 66.21875 
Q 25.25 66.21875 20.875 63.09375 
Q 16.5 59.96875 16.5 54.203125 
Q 16.5 49.359375 19.40625 46.890625 
Q 22.3125 44.4375 30.421875 42.921875 
L 36.375 41.703125 
Q 47.40625 39.59375 52.65625 34.296875 
Q 57.90625 29 57.90625 20.125 
Q 57.90625 9.515625 50.796875 4.046875 
Q 43.703125 -1.421875 29.984375 -1.421875 
Q 24.8125 -1.421875 18.96875 -0.25 
Q 13.140625 0.921875 6.890625 3.21875 
L 6.890625 13.375 
Q 12.890625 10.015625 18.65625 8.296875 
Q 24.421875 6.59375 29.984375 6.59375 
Q 38.421875 6.59375 43.015625 9.90625 
Q 47.609375 13.234375 47.609375 19.390625 
Q 47.609375 24.75 44.3125 27.78125 
Q 41.015625 30.8125 33.5 32.328125 
L 27.484375 33.5 
Q 16.453125 35.6875 11.515625 40.375 
Q 6.59375 45.0625 6.59375 53.421875 
Q 6.59375 63.09375 13.40625 68.65625 
Q 20.21875 74.21875 32.171875 74.21875 
Q 37.3125 74.21875 42.625 73.28125 
Q 47.953125 72.359375 53.515625 70.515625 
" id="DejaVuSans-53"/>
      <path d="M 45.40625 46.390625 
L 45.40625 75.984375 
L 54.390625 75.984375 
L 54.390625 0 
L 45.40625 0 
L 45.40625 8.203125 
Q 42.578125 3.328125 38.25 0.953125 
Q 33.9375 -1.421875 27.875 -1.421875 
Q 17.96875 -1.421875 11.734375 6.484375 
Q 5.515625 14.40625 5.515625 27.296875 
Q 5.515625 40.1875 11.734375 48.09375 
Q 17.96875 56 27.875 56 
Q 33.9375 56 38.25 53.625 
Q 42.578125 51.265625 45.40625 46.390625 
M 14.796875 27.296875 
Q 14.796875 17.390625 18.875 11.75 
Q 22.953125 6.109375 30.078125 6.109375 
Q 37.203125 6.109375 41.296875 11.75 
Q 45.40625 17.390625 45.40625 27.296875 
Q 45.40625 37.203125 41.296875 42.84375 
Q 37.203125 48.484375 30.078125 48.484375 
Q 22.953125 48.484375 18.875 42.84375 
Q 14.796875 37.203125 14.796875 27.296875 
" id="DejaVuSans-64"/>
      <path d="M 4.203125 54.6875 
L 13.1875 54.6875 
L 24.421875 12.015625 
L 35.59375 54.6875 
L 46.1875 54.6875 
L 57.421875 12.015625 
L 68.609375 54.6875 
L 77.59375 54.6875 
L 63.28125 0 
L 52.6875 0 
L 40.921875 44.828125 
L 29.109375 0 
L 18.5 0 
z
" id="DejaVuSans-77"/>
      <path d="M 34.28125 27.484375 
Q 23.390625 27.484375 19.1875 25 
Q 14.984375 22.515625 14.984375 16.5 
Q 14.984375 11.71875 18.140625 8.90625 
Q 21.296875 6.109375 26.703125 6.109375 
Q 34.1875 6.109375 38.703125 11.40625 
Q 43.21875 16.703125 43.21875 25.484375 
L 43.21875 27.484375 
z
M 52.203125 31.203125 
L 52.203125 0 
L 43.21875 0 
L 43.21875 8.296875 
Q 40.140625 3.328125 35.546875 0.953125 
Q 30.953125 -1.421875 24.3125 -1.421875 
Q 15.921875 -1.421875 10.953125 3.296875 
Q 6 8.015625 6 15.921875 
Q 6 25.140625 12.171875 29.828125 
Q 18.359375 34.515625 30.609375 34.515625 
L 43.21875 34.515625 
L 43.21875 35.40625 
Q 43.21875 41.609375 39.140625 45 
Q 35.0625 48.390625 27.6875 48.390625 
Q 23 48.390625 18.546875 47.265625 
Q 14.109375 46.140625 10.015625 43.890625 
L 10.015625 52.203125 
Q 14.9375 54.109375 19.578125 55.046875 
Q 24.21875 56 28.609375 56 
Q 40.484375 56 46.34375 49.84375 
Q 52.203125 43.703125 52.203125 31.203125 
" id="DejaVuSans-61"/>
      <path d="M 14.796875 27.296875 
Q 14.796875 17.390625 18.875 11.75 
Q 22.953125 6.109375 30.078125 6.109375 
Q 37.203125 6.109375 41.296875 11.75 
Q 45.40625 17.390625 45.40625 27.296875 
Q 45.40625 37.203125 41.296875 42.84375 
Q 37.203125 48.484375 30.078125 48.484375 
Q 22.953125 48.484375 18.875 42.84375 
Q 14.796875 37.203125 14.796875 27.296875 
M 45.40625 8.203125 
Q 42.578125 3.328125 38.25 0.953125 
Q 33.9375 -1.421875 27.875 -1.421875 
Q 17.96875 -1.421875 11.734375 6.484375 
Q 5.515625 14.40625 5.515625 27.296875 
Q 5.515625 40.1875 11.734375 48.09375 
Q 17.96875 56 27.875 56 
Q 33.9375 56 38.25 53.625 
Q 42.578125 51.265625 45.40625 46.390625 
L 45.40625 54.6875 
L 54.390625 54.6875 
L 54.390625 -20.796875 
L 45.40625 -20.796875 
z
" id="DejaVuSans-71"/>
      <path d="M 18.109375 8.203125 
L 18.109375 -20.796875 
L 9.078125 -20.796875 
L 9.078125 54.6875 
L 18.109375 54.6875 
L 18.109375 46.390625 
Q 20.953125 51.265625 25.265625 53.625 
Q 29.59375 56 35.59375 56 
Q 45.5625 56 51.78125 48.09375 
Q 58.015625 40.1875 58.015625 27.296875 
Q 58.015625 14.40625 51.78125 6.484375 
Q 45.5625 -1.421875 35.59375 -1.421875 
Q 29.59375 -1.421875 25.265625 0.953125 
Q 20.953125 3.328125 18.109375 8.203125 
M 48.6875 27.296875 
Q 48.6875 37.203125 44.609375 42.84375 
Q 40.53125 48.484375 33.40625 48.484375 
Q 26.265625 48.484375 22.1875 42.84375 
Q 18.109375 37.203125 18.109375 27.296875 
Q 18.109375 17.390625 22.1875 11.75 
Q 26.265625 6.109375 33.40625 6.109375 
Q 40.53125 6.109375 44.609375 11.75 
Q 48.6875 17.390625 48.6875 27.296875 
" id="DejaVuSans-70"/>
     </defs>
     <g transform="translate(25.432812 279.366281)rotate(-90)scale(0.1 -0.1)">
      <use xlink:href="#DejaVuSans-53"/>
      <use x="63.476562" xlink:href="#DejaVuSans-75"/>
      <use x="126.855469" xlink:href="#DejaVuSans-63"/>
      <use x="181.835938" xlink:href="#DejaVuSans-63"/>
      <use x="236.816406" xlink:href="#DejaVuSans-65"/>
      <use x="298.339844" xlink:href="#DejaVuSans-73"/>
      <use x="350.439453" xlink:href="#DejaVuSans-73"/>
      <use x="402.539062" xlink:href="#DejaVuSans-66"/>
      <use x="437.744141" xlink:href="#DejaVuSans-75"/>
      <use x="501.123047" xlink:href="#DejaVuSans-6c"/>
      <use x="528.90625" xlink:href="#DejaVuSans-20"/>
      <use x="560.693359" xlink:href="#DejaVuSans-64"/>
      <use x="624.169922" xlink:href="#DejaVuSans-6f"/>
      <use x="685.351562" xlink:href="#DejaVuSans-77"/>
      <use x="767.138672" xlink:href="#DejaVuSans-6e"/>
      <use x="830.517578" xlink:href="#DejaVuSans-6c"/>
      <use x="858.300781" xlink:href="#DejaVuSans-6f"/>
      <use x="919.482422" xlink:href="#DejaVuSans-61"/>
      <use x="980.761719" xlink:href="#DejaVuSans-64"/>
      <use x="1044.238281" xlink:href="#DejaVuSans-20"/>
      <use x="1076.025391" xlink:href="#DejaVuSans-72"/>
      <use x="1117.107422" xlink:href="#DejaVuSans-65"/>
      <use x="1178.630859" xlink:href="#DejaVuSans-71"/>
      <use x="1242.107422" xlink:href="#DejaVuSans-75"/>
      <use x="1305.486328" xlink:href="#DejaVuSans-65"/>
      <use x="1367.009766" xlink:href="#DejaVuSans-73"/>
      <use x="1419.109375" xlink:href="#DejaVuSans-74"/>
      <use x="1458.318359" xlink:href="#DejaVuSans-73"/>
      <use x="1510.417969" xlink:href="#DejaVuSans-20"/>
      <use x="1542.205078" xlink:href="#DejaVuSans-70"/>
      <use x="1605.681641" xlink:href="#DejaVuSans-65"/>
      <use x="1667.205078" xlink:href="#DejaVuSans-72"/>
      <use x="1708.318359" xlink:href="#DejaVuSans-20"/>
      <use x="1740.105469" xlink:href="#DejaVuSans-73"/>
      <use x="1792.205078" xlink:href="#DejaVuSans-65"/>
      <use x="1853.728516" xlink:href="#DejaVuSans-63"/>
      <use x="1908.708984" xlink:href="#DejaVuSans-6f"/>
      <use x="1969.890625" xlink:href="#DejaVuSans-6e"/>
      <use x="2033.269531" xlink:href="#DejaVuSans-64"/>
     </g>
    </g>
   </g>
   <g id="line2d_25">
    <path clip-path="url(#p4ed0bbbe24)" d="M 57.6 295.488 
L 57.95712 295.484935 
L 59.74272 293.404378 
L 60.09984 293.031708 
L 60.81408 291.968877 
L 61.52832 291.402209 
L 61.88544 290.676138 
L 62.24256 290.527683 
L 64.02816 288.289475 
L 64.7424 287.642668 
L 65.09952 287.186356 
L 65.45664 286.41912 
L 66.17088 286.12659 
L 66.528 285.20871 
L 66.88512 284.846112 
L 67.24224 284.127924 
L 67.59936 283.734672 
L 67.95648 283.996986 
L 68.3136 282.847885 
L 68.67072 282.727895 
L 69.02784 282.07627 
L 69.38496 282.346029 
L 69.74208 281.098395 
L 70.0992 281.566094 
L 70.45632 280.78791 
L 70.81344 280.279485 
L 71.17056 279.420287 
L 71.52768 279.616475 
L 71.8848 279.549473 
L 72.24192 279.017401 
L 72.59904 278.039964 
L 72.95616 278.346508 
L 73.31328 276.732336 
L 73.6704 276.213839 
L 74.02752 276.780069 
L 74.38464 276.331201 
L 74.74176 275.384857 
L 75.09888 275.248664 
L 75.456 274.385962 
L 75.81312 274.144668 
L 76.17024 274.148171 
L 76.52736 274.312829 
L 76.88448 272.897472 
L 77.2416 273.218468 
L 77.59872 271.64546 
L 77.95584 271.563131 
L 78.31296 271.996672 
L 78.67008 270.316811 
L 79.0272 270.797209 
L 79.38432 269.718613 
L 79.74144 270.074204 
L 80.09856 269.918305 
L 80.45568 268.440325 
L 80.8128 268.643082 
L 81.16992 267.926208 
L 81.52704 268.584401 
L 81.88416 266.513479 
L 82.5984 266.970667 
L 82.95552 265.643332 
L 83.31264 266.223138 
L 83.66976 265.808866 
L 84.02688 265.747995 
L 84.384 264.209583 
L 84.74112 263.815017 
L 85.09824 263.970917 
L 85.45536 262.166687 
L 85.81248 262.441701 
L 86.1696 261.004886 
L 86.52672 262.170191 
L 86.88384 261.268514 
L 87.24096 261.377994 
L 87.59808 260.034894 
L 87.9552 260.423767 
L 88.31232 258.250371 
L 88.66944 260.217944 
L 89.02656 258.539836 
L 89.38368 258.996586 
L 89.7408 258.104544 
L 90.09792 258.027908 
L 90.45504 257.760777 
L 90.81216 258.021777 
L 91.16928 256.796478 
L 91.5264 256.939239 
L 91.88352 256.329217 
L 92.24064 253.918469 
L 92.59776 254.380912 
L 92.95488 255.049616 
L 93.312 253.974961 
L 93.66912 252.084899 
L 94.38336 250.9901 
L 94.74048 251.637783 
L 95.0976 251.241028 
L 95.45472 252.063441 
L 95.81184 251.42364 
L 96.16896 251.703033 
L 96.52608 250.334972 
L 96.8832 248.311783 
L 97.59744 248.249598 
L 97.95456 249.70174 
L 98.31168 248.656863 
L 98.6688 248.126105 
L 99.02592 246.103353 
L 99.38304 247.5209 
L 99.74016 247.407478 
L 100.09728 245.260358 
L 100.4544 246.942408 
L 100.81152 246.389753 
L 101.16864 242.786549 
L 101.52576 242.615323 
L 101.88288 242.839538 
L 102.24 242.83691 
L 102.59712 244.393715 
L 102.95424 243.856387 
L 103.31136 239.911168 
L 103.66848 241.225803 
L 104.0256 241.834074 
L 104.38272 239.598932 
L 104.73984 241.74649 
L 105.09696 239.958464 
L 105.45408 240.27289 
L 106.16832 236.845292 
L 106.52544 238.829944 
L 106.88256 238.776956 
L 107.23968 238.887312 
L 107.5968 238.013662 
L 107.95392 234.851006 
L 108.31104 235.088358 
L 108.66816 235.510513 
L 109.02528 236.606626 
L 109.3824 233.398864 
L 109.73952 232.377197 
L 110.09664 235.069528 
L 110.45376 232.659217 
L 110.81088 234.310175 
L 111.52512 231.627041 
L 112.23936 232.675421 
L 112.59648 229.967763 
L 112.9536 229.102433 
L 113.31072 229.422115 
L 113.66784 231.840308 
L 114.38208 227.052093 
L 114.7392 229.056452 
L 115.09632 227.784733 
L 115.45344 227.14318 
L 115.81056 229.322269 
L 116.16768 224.997374 
L 116.5248 224.509093 
L 117.23904 226.812551 
L 117.59616 226.254641 
L 117.95328 226.922907 
L 118.66752 222.426785 
L 119.02464 224.638718 
L 119.38176 220.713643 
L 119.73888 223.191393 
L 120.096 223.449328 
L 120.45312 221.837345 
L 120.81024 218.682133 
L 121.16736 219.986258 
L 121.52448 222.74778 
L 121.8816 217.660029 
L 122.23872 217.791405 
L 122.59584 221.494016 
L 122.95296 216.546837 
L 123.31008 217.884244 
L 124.02432 217.953873 
L 124.38144 215.196292 
L 124.73856 217.715206 
L 125.09568 217.339909 
L 125.4528 212.701463 
L 125.80992 213.130187 
L 126.16704 215.327668 
L 126.52416 216.795137 
L 126.88128 214.571381 
L 127.2384 213.542707 
L 127.59552 213.174417 
L 127.95264 212.359448 
L 128.30976 215.201109 
L 128.66688 211.657901 
L 129.024 211.105684 
L 129.38112 209.652666 
L 129.73824 209.39079 
L 130.09536 212.540747 
L 130.45248 209.778787 
L 130.8096 209.350064 
L 131.16672 211.94649 
L 131.52384 210.314363 
L 131.88096 207.420151 
L 132.23808 207.340888 
L 132.5952 209.414876 
L 133.30944 207.90887 
L 133.66656 203.26911 
L 134.02368 208.278912 
L 134.3808 206.314404 
L 134.73792 206.175584 
L 135.09504 202.720397 
L 135.80928 200.612689 
L 136.1664 206.139236 
L 136.52352 202.303059 
L 136.88064 204.125243 
L 137.23776 199.261707 
L 137.59488 201.17673 
L 137.952 199.671162 
L 138.30912 198.973118 
L 138.66624 200.965652 
L 139.02336 200.240019 
L 139.38048 202.165115 
L 139.7376 195.403196 
L 140.09472 198.875024 
L 140.45184 199.48636 
L 140.80896 201.013386 
L 141.16608 193.432995 
L 141.5232 199.723274 
L 141.88032 194.431014 
L 142.23744 196.456393 
L 142.59456 193.13302 
L 142.95168 192.10785 
L 143.3088 191.872249 
L 143.66592 191.77109 
L 144.02304 190.441565 
L 144.38016 192.672328 
L 144.73728 195.905052 
L 145.0944 189.945402 
L 145.45152 193.298116 
L 145.80864 189.943213 
L 146.16576 190.996848 
L 146.52288 187.543412 
L 146.88 192.350457 
L 147.23712 188.558073 
L 147.59424 187.365617 
L 147.95136 185.166822 
L 148.30848 191.565267 
L 148.6656 188.567269 
L 149.02272 191.560012 
L 149.37984 184.503374 
L 149.73696 189.724691 
L 150.09408 182.588351 
L 150.4512 183.521558 
L 150.80832 189.394061 
L 151.16544 184.343533 
L 151.52256 185.755824 
L 151.87968 186.122363 
L 152.2368 185.974346 
L 152.59392 184.964503 
L 152.95104 179.161629 
L 153.30816 184.836631 
L 154.0224 177.72569 
L 154.37952 184.008962 
L 154.73664 181.127888 
L 155.09376 183.634979 
L 155.45088 178.6878 
L 155.808 177.686715 
L 156.16512 179.127033 
L 156.52224 177.608327 
L 157.23648 181.45808 
L 157.5936 178.172368 
L 157.95072 180.973741 
L 158.30784 177.651244 
L 158.66496 172.087911 
L 159.02208 176.446964 
L 159.3792 173.93856 
L 159.73632 173.212489 
L 160.09344 178.730716 
L 160.45056 174.446547 
L 160.80768 176.718037 
L 161.1648 169.327265 
L 161.52192 170.291127 
L 161.87904 168.561782 
L 162.23616 167.928112 
L 162.59328 173.222999 
L 162.9504 167.886509 
L 163.30752 173.522974 
L 163.66464 166.572312 
L 164.02176 169.315879 
L 164.736 165.091268 
L 165.09312 169.416163 
L 165.45024 163.98771 
L 165.80736 169.393391 
L 166.16448 168.556526 
L 166.5216 167.267729 
L 166.87872 169.444628 
L 167.23584 167.864175 
L 167.59296 169.278656 
L 167.95008 168.280637 
L 168.3072 162.137061 
L 168.66432 167.731048 
L 169.02144 164.191343 
L 169.37856 164.133537 
L 169.73568 162.471194 
L 170.0928 159.545014 
L 170.44992 165.399125 
L 170.80704 163.013338 
L 171.16416 164.660792 
L 171.52128 163.563366 
L 171.8784 165.385112 
L 172.23552 162.271064 
L 172.59264 163.957493 
L 172.94976 155.151365 
L 173.30688 155.102756 
L 173.664 162.12042 
L 174.37824 153.358084 
L 174.73536 157.899312 
L 175.09248 154.745414 
L 175.4496 159.647487 
L 175.80672 153.420269 
L 176.16384 153.132555 
L 176.52096 155.897581 
L 176.87808 150.798005 
L 177.2352 158.352997 
L 177.59232 157.674659 
L 177.94944 149.794293 
L 178.30656 151.816169 
L 179.0208 156.988001 
L 179.37792 155.91028 
L 179.73504 156.212445 
L 180.09216 156.161646 
L 180.8064 145.754484 
L 181.16352 145.849512 
L 181.52064 152.106509 
L 182.23488 146.313707 
L 182.592 149.511397 
L 182.94912 142.745099 
L 183.30624 149.894577 
L 184.02048 143.530289 
L 184.3776 148.410467 
L 184.73472 145.419475 
L 185.09184 143.683561 
L 185.44896 145.627925 
L 185.80608 142.225726 
L 186.1632 144.567283 
L 186.52032 140.071599 
L 187.23456 139.223349 
L 187.59168 139.56405 
L 187.9488 146.168756 
L 188.30592 144.908423 
L 188.66304 140.696073 
L 189.37728 143.456719 
L 189.7344 147.373035 
L 190.09152 138.997382 
L 190.44864 137.678806 
L 190.80576 144.631658 
L 191.16288 145.282406 
L 191.52 137.091555 
L 191.87712 136.757861 
L 192.23424 138.485454 
L 192.94848 143.377017 
L 193.3056 135.953402 
L 193.66272 141.414261 
L 194.01984 140.543677 
L 194.37696 139.977884 
L 194.73408 135.119165 
L 195.0912 138.810828 
L 195.44832 144.401312 
L 195.80544 137.287744 
L 196.16256 136.125505 
L 196.51968 137.439702 
L 196.8768 140.953132 
L 197.23392 132.878768 
L 197.59104 132.259111 
L 197.94816 133.899121 
L 198.30528 132.522301 
L 198.6624 138.272625 
L 199.01952 141.757152 
L 199.73376 134.595413 
L 200.09088 140.029997 
L 200.448 131.72879 
L 200.80512 137.752376 
L 201.16224 130.521008 
L 201.51936 132.740823 
L 201.87648 138.984683 
L 202.59072 130.297231 
L 202.94784 131.946874 
L 203.30496 137.158557 
L 203.66208 130.856454 
L 204.0192 138.60413 
L 204.37632 136.539777 
L 204.73344 139.239114 
L 205.09056 131.718718 
L 205.44768 136.263011 
L 205.8048 134.812183 
L 206.16192 128.582775 
L 206.51904 128.252584 
L 206.87616 136.811725 
L 207.23328 135.546575 
L 207.5904 129.353076 
L 207.94752 138.675511 
L 208.30464 133.243117 
L 208.66176 130.596768 
L 209.01888 135.015816 
L 209.376 134.504764 
L 209.73312 135.384106 
L 210.09024 130.756171 
L 210.44736 134.517463 
L 210.80448 125.622876 
L 211.1616 133.386317 
L 211.51872 126.839854 
L 211.87584 125.543174 
L 212.23296 134.661539 
L 212.59008 135.804509 
L 212.9472 129.78793 
L 213.30432 129.524302 
L 213.66144 133.348218 
L 214.01856 133.425729 
L 214.37568 134.756567 
L 214.7328 126.794311 
L 215.08992 133.19188 
L 215.44704 126.952838 
L 215.80416 124.378308 
L 216.16128 134.486809 
L 216.5184 134.230626 
L 216.87552 132.628278 
L 217.23264 124.332764 
L 217.58976 130.351095 
L 217.94688 130.104108 
L 218.304 133.193632 
L 219.37536 121.837935 
L 219.73248 131.828636 
L 220.0896 125.013729 
L 220.44672 127.813788 
L 220.80384 131.575518 
L 221.16096 122.668669 
L 221.51808 129.529557 
L 221.8752 121.34221 
L 222.23232 129.963536 
L 222.58944 128.709772 
L 222.94656 123.656616 
L 223.30368 129.060545 
L 223.6608 127.445497 
L 224.01792 129.55014 
L 224.37504 126.820148 
L 224.73216 119.551118 
L 225.08928 131.017609 
L 225.4464 126.929628 
L 225.80352 130.412842 
L 226.16064 120.647669 
L 226.51776 122.352491 
L 226.87488 129.928502 
L 227.232 124.239925 
L 227.58912 122.659473 
L 227.94624 119.327779 
L 228.30336 125.593097 
L 228.66048 120.244345 
L 229.0176 121.913257 
L 229.37472 124.426041 
L 229.73184 127.771748 
L 230.08896 119.141663 
L 230.44608 122.351615 
L 230.8032 118.156344 
L 231.16032 124.885419 
L 231.51744 124.001259 
L 231.87456 115.785884 
L 232.23168 124.123438 
L 232.5888 116.008348 
L 232.94592 122.856537 
L 233.30304 123.538815 
L 233.66016 119.242823 
L 234.01728 123.81777 
L 234.3744 117.38254 
L 234.73152 117.124167 
L 235.08864 120.502718 
L 235.44576 116.187019 
L 235.80288 125.839646 
L 236.16 115.988641 
L 236.51712 124.203578 
L 236.87424 116.506262 
L 237.23136 119.048387 
L 237.58848 117.449979 
L 237.9456 124.37787 
L 238.30272 121.167042 
L 238.65984 116.668731 
L 239.01696 124.577999 
L 239.37408 112.969623 
L 239.7312 121.147336 
L 240.08832 116.828571 
L 240.44544 116.753687 
L 240.80256 111.779795 
L 241.15968 122.295999 
L 241.5168 111.727244 
L 241.87392 123.167022 
L 242.23104 119.696946 
L 242.94528 118.352094 
L 243.3024 115.402705 
L 243.65952 122.845589 
L 244.01664 112.516814 
L 244.37376 112.689792 
L 244.73088 118.406834 
L 245.088 117.00987 
L 245.44512 116.679679 
L 245.80224 110.871111 
L 246.51648 119.543674 
L 247.23072 113.379078 
L 247.58784 116.84565 
L 247.94496 116.765511 
L 248.30208 110.506762 
L 248.6592 111.748265 
L 249.01632 119.208227 
L 249.37344 113.213106 
L 249.73056 120.357767 
L 250.08768 108.282568 
L 250.4448 109.279273 
L 250.80192 110.660472 
L 251.15904 113.549428 
L 251.51616 114.778669 
L 251.87328 112.902183 
L 252.2304 109.778939 
L 252.58752 110.969205 
L 252.94464 108.702095 
L 253.30176 118.318812 
L 253.65888 117.408815 
L 254.016 106.718318 
L 254.37312 117.381226 
L 254.73024 114.992374 
L 255.08736 108.644289 
L 255.44448 113.84371 
L 255.8016 114.835599 
L 256.15872 114.094638 
L 256.51584 108.101707 
L 256.87296 116.874553 
L 257.23008 105.750516 
L 257.5872 114.977923 
L 257.94432 107.20003 
L 258.30144 109.697048 
L 258.65856 106.413526 
L 259.01568 107.732978 
L 259.3728 116.58246 
L 259.72992 111.777605 
L 260.08704 104.259837 
L 260.44416 113.155301 
L 260.80128 111.210061 
L 261.1584 115.213085 
L 261.51552 112.159909 
L 261.87264 103.521066 
L 262.58688 115.994772 
L 262.944 115.358913 
L 263.30112 105.938821 
L 263.65824 104.359245 
L 264.01536 110.311888 
L 264.37248 113.584024 
L 264.7296 113.462282 
L 265.08672 106.878159 
L 265.44384 113.709707 
L 265.80096 105.209247 
L 266.15808 110.563692 
L 266.5152 102.185849 
L 266.87232 109.513122 
L 267.22944 107.053327 
L 267.58656 108.953023 
L 267.94368 107.776332 
L 268.3008 100.476648 
L 268.65792 110.709519 
L 269.01504 102.469621 
L 269.37216 109.356785 
L 269.72928 112.985388 
L 270.0864 108.812451 
L 270.44352 108.677571 
L 271.872 99.021441 
L 272.22912 109.800398 
L 272.58624 106.656134 
L 272.94336 106.825609 
L 273.30048 99.76065 
L 273.6576 108.993749 
L 274.01472 107.988724 
L 274.37184 105.513163 
L 274.72896 99.413817 
L 275.08608 106.022464 
L 275.4432 107.542045 
L 275.80032 105.616512 
L 276.15744 102.297519 
L 276.51456 107.535915 
L 276.87168 97.889419 
L 277.2288 108.737128 
L 277.58592 102.441156 
L 277.94304 109.496481 
L 278.30016 99.769846 
L 278.65728 99.997564 
L 279.0144 98.967139 
L 279.37152 103.059061 
L 279.72864 102.870318 
L 280.08576 98.26603 
L 280.44288 102.99819 
L 280.8 101.055578 
L 281.15712 100.388627 
L 281.51424 97.725199 
L 281.87136 104.62331 
L 282.22848 104.718339 
L 282.5856 107.208789 
L 282.94272 95.325836 
L 283.29984 102.961843 
L 283.65696 102.690333 
L 284.01408 97.913504 
L 284.3712 97.539959 
L 284.72832 107.872237 
L 285.44256 96.886144 
L 285.79968 107.608171 
L 286.1568 98.875176 
L 286.51392 105.41288 
L 286.87104 99.166393 
L 287.22816 95.540855 
L 287.58528 100.611966 
L 287.9424 99.073991 
L 288.29952 95.570196 
L 288.65664 99.868816 
L 289.01376 98.927288 
L 289.37088 102.692084 
L 289.728 96.284443 
L 290.08512 97.996709 
L 290.44224 103.641494 
L 290.79936 92.274412 
L 291.15648 104.449894 
L 291.5136 97.795266 
L 291.87072 94.213082 
L 292.22784 100.836181 
L 292.58496 96.089568 
L 292.94208 103.929208 
L 293.2992 95.889001 
L 293.65632 102.80463 
L 294.01344 95.387145 
L 294.37056 101.923097 
L 294.72768 102.057977 
L 295.0848 91.902618 
L 295.44192 95.565379 
L 295.79904 96.462238 
L 296.15616 98.024736 
L 296.51328 96.771847 
L 296.8704 93.088505 
L 297.22752 95.289489 
L 297.58464 94.134695 
L 297.94176 102.670626 
L 298.29888 91.343394 
L 298.656 102.267302 
L 299.01312 93.814575 
L 299.37024 90.623454 
L 299.72736 93.938945 
L 300.08448 93.710788 
L 300.4416 100.350965 
L 300.79872 88.770616 
L 301.15584 88.801708 
L 301.51296 91.822041 
L 301.87008 100.126313 
L 302.2272 93.743632 
L 302.58432 90.799936 
L 302.94144 97.687976 
L 303.29856 91.423972 
L 303.65568 87.464739 
L 304.0128 99.971727 
L 304.36992 86.798663 
L 304.72704 96.345314 
L 305.08416 86.425118 
L 305.44128 98.141222 
L 305.7984 91.661762 
L 306.15552 91.728326 
L 306.51264 92.633506 
L 306.86976 90.156194 
L 307.22688 93.447161 
L 307.584 95.165996 
L 307.94112 94.985573 
L 308.29824 85.632045 
L 308.65536 85.756414 
L 309.01248 85.526944 
L 309.3696 99.495708 
L 309.72672 87.846605 
L 310.08384 84.911667 
L 310.44096 88.115926 
L 311.1552 97.767239 
L 311.51232 98.064586 
L 311.86944 90.335741 
L 312.22656 97.918759 
L 312.58368 92.884872 
L 312.9408 91.977064 
L 313.29792 85.878156 
L 313.65504 87.301833 
L 314.01216 86.926098 
L 314.36928 93.716044 
L 314.7264 89.498001 
L 315.08352 90.376468 
L 315.44064 87.286506 
L 315.79776 87.612756 
L 316.15488 93.21375 
L 316.512 94.351465 
L 316.86912 92.933043 
L 317.22624 93.593426 
L 317.58336 86.377385 
L 317.94048 82.585 
L 318.2976 82.566607 
L 318.65472 85.804148 
L 319.36896 95.474729 
L 319.72608 94.097472 
L 320.0832 83.847084 
L 320.44032 87.74238 
L 320.79744 82.444865 
L 321.15456 90.652795 
L 321.8688 91.881598 
L 322.22592 87.103018 
L 322.58304 89.385017 
L 322.94016 86.790781 
L 323.29728 81.835719 
L 323.6544 91.710809 
L 324.01152 92.412794 
L 324.36864 84.546442 
L 324.72576 84.427766 
L 325.08288 89.401658 
L 325.44 91.014517 
L 325.79712 80.505757 
L 326.15424 88.355906 
L 326.51136 81.768717 
L 326.86848 91.194502 
L 327.2256 79.644369 
L 327.58272 91.437985 
L 327.93984 92.436004 
L 328.29696 92.246823 
L 328.65408 81.953081 
L 329.0112 87.400803 
L 329.36832 83.562874 
L 329.72544 90.926057 
L 330.08256 80.197023 
L 330.43968 86.192145 
L 330.7968 88.263505 
L 331.15392 79.658382 
L 331.51104 77.580453 
L 331.86816 81.887394 
L 332.22528 90.030949 
L 332.5824 79.078138 
L 332.93952 84.253036 
L 333.29664 79.839681 
L 333.65376 85.819913 
L 334.01088 89.916652 
L 334.72512 85.04786 
L 335.08224 76.730013 
L 335.43936 87.06886 
L 335.79648 78.666494 
L 336.1536 81.957023 
L 336.51072 86.701007 
L 336.86784 86.835887 
L 337.22496 83.21867 
L 337.58208 83.985467 
L 337.9392 77.751242 
L 338.29632 80.867478 
L 338.65344 80.783836 
L 339.01056 89.200653 
L 339.36768 87.541813 
L 339.7248 77.97677 
L 340.08192 79.489783 
L 340.43904 85.565919 
L 340.79616 85.936399 
L 341.15328 78.105957 
L 341.5104 89.040374 
L 341.86752 78.234705 
L 342.22464 85.416151 
L 342.58176 77.414919 
L 342.93888 74.995413 
L 343.296 80.255705 
L 343.65312 77.134213 
L 344.01024 77.488052 
L 344.36736 85.192812 
L 344.72448 75.714915 
L 345.0816 84.785984 
L 345.43872 77.799851 
L 345.79584 86.162366 
L 346.15296 72.88026 
L 346.51008 81.030385 
L 346.8672 72.164262 
L 347.22432 87.18666 
L 347.58144 85.636862 
L 347.93856 71.819181 
L 348.29568 77.181508 
L 348.6528 74.918339 
L 349.00992 84.87532 
L 349.36704 84.107209 
L 349.72416 82.269697 
L 350.08128 73.443863 
L 350.4384 74.920528 
L 350.79552 84.101078 
L 351.15264 79.281771 
L 351.50976 80.244319 
L 351.86688 79.535765 
L 352.224 77.832257 
L 352.58112 79.411833 
L 352.93824 77.501627 
L 353.29536 73.013388 
L 353.65248 85.268134 
L 354.0096 70.226029 
L 354.36672 76.809276 
L 354.72384 72.818952 
L 355.08096 76.55791 
L 355.43808 69.806064 
L 355.7952 73.801206 
L 356.15232 73.13513 
L 356.86656 83.779207 
L 357.22368 70.069254 
L 357.5808 78.353381 
L 357.93792 74.554865 
L 358.29504 73.171915 
L 358.65216 80.260084 
L 359.00928 70.705989 
L 359.3664 73.543709 
L 359.72352 79.335197 
L 360.08064 72.12879 
L 360.43776 82.267508 
L 360.79488 79.543647 
L 361.152 80.061268 
L 361.50912 77.461777 
L 361.86624 68.141969 
L 362.58048 77.286171 
L 362.9376 74.04031 
L 363.29472 74.830317 
L 364.00896 81.851046 
L 364.36608 69.710159 
L 364.7232 75.157005 
L 365.08032 73.171039 
L 365.43744 80.328399 
L 365.79456 81.68814 
L 366.15168 74.538662 
L 366.86592 65.904199 
L 367.22304 79.005006 
L 367.58016 70.906556 
L 367.93728 78.475561 
L 368.2944 79.775307 
L 368.65152 77.767883 
L 369.00864 68.830379 
L 369.36576 70.661321 
L 369.72288 78.119532 
L 370.43712 74.66128 
L 371.15136 66.646035 
L 371.50848 76.599951 
L 371.8656 67.515744 
L 372.22272 69.906347 
L 372.57984 80.184762 
L 372.93696 79.466573 
L 373.29408 76.165972 
L 373.6512 67.33751 
L 374.00832 75.797682 
L 374.72256 64.934645 
L 375.07968 67.773678 
L 375.4368 69.100575 
L 375.79392 72.612691 
L 376.15104 64.945155 
L 376.50816 64.886911 
L 376.86528 63.572714 
L 377.2224 64.918004 
L 377.57952 66.722233 
L 377.93664 67.041477 
L 378.29376 70.287338 
L 378.65088 66.307523 
L 379.008 77.377696 
L 379.36512 72.464675 
L 379.72224 77.373755 
L 380.07936 67.918192 
L 380.43648 77.747738 
L 381.15072 71.395712 
L 381.50784 76.923573 
L 381.86496 75.608938 
L 382.22208 77.529654 
L 382.5792 74.504943 
L 382.93632 67.991324 
L 383.65056 74.664783 
L 384.00768 63.170266 
L 384.3648 76.475143 
L 385.07904 67.884472 
L 385.79328 73.967615 
L 386.1504 69.724173 
L 386.50752 62.800662 
L 386.86464 73.520937 
L 387.22176 76.165972 
L 387.57888 69.335738 
L 387.936 70.575489 
L 388.29312 70.210264 
L 388.65024 64.925886 
L 389.00736 73.887038 
L 389.36448 67.489031 
L 389.7216 74.469909 
L 390.07872 66.208553 
L 390.43584 67.534574 
L 390.79296 67.549901 
L 391.15008 74.693248 
L 391.5072 62.794531 
L 392.22144 67.413708 
L 392.57856 64.634232 
L 392.93568 70.077574 
L 393.2928 67.246861 
L 393.64992 71.529716 
L 394.00704 69.747821 
L 394.36416 61.509237 
L 394.72128 73.905868 
L 395.0784 65.144846 
L 395.43552 69.821391 
L 395.79264 65.913395 
L 396.14976 67.518809 
L 396.50688 57.017932 
L 396.864 64.577302 
L 397.22112 65.447887 
L 397.57824 68.848333 
L 397.93536 61.932267 
L 398.6496 72.645973 
L 399.00672 63.726862 
L 399.36384 59.700628 
L 399.72096 69.538057 
L 400.07808 71.557305 
L 400.4352 63.614317 
L 400.79232 70.878091 
L 401.14944 69.6217 
L 401.50656 57.327541 
L 401.86368 71.953622 
L 402.2208 66.30183 
L 402.57792 67.888851 
L 402.93504 71.196021 
L 403.29216 65.90814 
L 403.64928 56.550671 
L 404.0064 58.019016 
L 404.36352 68.131459 
L 404.72064 62.057074 
L 405.07776 59.609979 
L 405.43488 66.812445 
L 405.792 61.5758 
L 406.14912 71.018226 
L 406.50624 61.006505 
L 406.86336 54.423695 
L 407.93472 68.394649 
L 408.29184 63.652854 
L 408.64896 56.192453 
L 409.00608 54.157878 
L 409.3632 69.068169 
L 410.07744 53.568 
L 410.43456 64.246673 
L 410.79168 55.629288 
L 411.1488 53.845203 
L 411.50592 55.07313 
L 411.86304 58.362783 
L 412.22016 58.94653 
L 412.57728 58.474015 
L 412.9344 56.330398 
L 413.29152 61.690535 
L 413.64864 53.91527 
L 414.00576 53.952931 
L 414.36288 66.321099 
L 414.72 67.064686 
L 414.72 67.064686 
" style="fill:none;stroke:#000080;stroke-linecap:square;stroke-width:0.5;"/>
   </g>
   <g id="patch_3">
    <path d="M 57.6 307.584 
L 57.6 41.472 
" style="fill:none;stroke:#000000;stroke-linecap:square;stroke-linejoin:miter;stroke-width:0.8;"/>
   </g>
   <g id="patch_4">
    <path d="M 414.72 307.584 
L 414.72 41.472 
" style="fill:none;stroke:#000000;stroke-linecap:square;stroke-linejoin:miter;stroke-width:0.8;"/>
   </g>
   <g id="patch_5">
    <path d="M 57.6 307.584 
L 414.72 307.584 
" style="fill:none;stroke:#000000;stroke-linecap:square;stroke-linejoin:miter;stroke-width:0.8;"/>
   </g>
   <g id="patch_6">
    <path d="M 57.6 41.472 
L 414.72 41.472 
" style="fill:none;stroke:#000000;stroke-linecap:square;stroke-linejoin:miter;stroke-width:0.8;"/>
   </g>
   <g id="text_15">
    <!-- Test -->
    <defs>
     <path d="M -0.296875 72.90625 
L 61.375 72.90625 
L 61.375 64.59375 
L 35.5 64.59375 
L 35.5 0 
L 25.59375 0 
L 25.59375 64.59375 
L -0.296875 64.59375 
z
" id="DejaVuSans-54"/>
    </defs>
    <g transform="translate(223.341563 35.472)scale(0.12 -0.12)">
     <use xlink:href="#DejaVuSans-54"/>
     <use x="60.818359" xlink:href="#DejaVuSans-65"/>
     <use x="122.341797" xlink:href="#DejaVuSans-73"/>
     <use x="174.441406" xlink:href="#DejaVuSans-74"/>
    </g>
   </g>
   <g id="legend_1">
    <g id="patch_7">
     <path d="M 64.6 64.150125 
L 306.276563 64.150125 
Q 308.276563 64.150125 308.276563 62.150125 
L 308.276563 48.472 
Q 308.276563 46.472 306.276563 46.472 
L 64.6 46.472 
Q 62.6 46.472 62.6 48.472 
L 62.6 62.150125 
Q 62.6 64.150125 64.6 64.150125 
z
" style="fill:#ffffff;opacity:0.8;stroke:#cccccc;stroke-linejoin:miter;"/>
    </g>
    <g id="line2d_26">
     <path d="M 66.6 54.570438 
L 86.6 54.570438 
" style="fill:none;stroke:#000080;stroke-linecap:square;stroke-width:0.5;"/>
    </g>
    <g id="line2d_27"/>
    <g id="text_16">
     <!-- Successful download requests per second -->
     <g transform="translate(94.6 58.070438)scale(0.1 -0.1)">
      <use xlink:href="#DejaVuSans-53"/>
      <use x="63.476562" xlink:href="#DejaVuSans-75"/>
      <use x="126.855469" xlink:href="#DejaVuSans-63"/>
      <use x="181.835938" xlink:href="#DejaVuSans-63"/>
      <use x="236.816406" xlink:href="#DejaVuSans-65"/>
      <use x="298.339844" xlink:href="#DejaVuSans-73"/>
      <use x="350.439453" xlink:href="#DejaVuSans-73"/>
      <use x="402.539062" xlink:href="#DejaVuSans-66"/>
      <use x="437.744141" xlink:href="#DejaVuSans-75"/>
      <use x="501.123047" xlink:href="#DejaVuSans-6c"/>
      <use x="528.90625" xlink:href="#DejaVuSans-20"/>
      <use x="560.693359" xlink:href="#DejaVuSans-64"/>
      <use x="624.169922" xlink:href="#DejaVuSans-6f"/>
      <use x="685.351562" xlink:href="#DejaVuSans-77"/>
      <use x="767.138672" xlink:href="#DejaVuSans-6e"/>
      <use x="830.517578" xlink:href="#DejaVuSans-6c"/>
      <use x="858.300781" xlink:href="#DejaVuSans-6f"/>
      <use x="919.482422" xlink:href="#DejaVuSans-61"/>
      <use x="980.761719" xlink:href="#DejaVuSans-64"/>
      <use x="1044.238281" xlink:href="#DejaVuSans-20"/>
      <use x="1076.025391" xlink:href="#DejaVuSans-72"/>
      <use x="1117.107422" xlink:href="#DejaVuSans-65"/>
      <use x="1178.630859" xlink:href="#DejaVuSans-71"/>
      <use x="1242.107422" xlink:href="#DejaVuSans-75"/>
      <use x="1305.486328" xlink:href="#DejaVuSans-65"/>
      <use x="1367.009766" xlink:href="#DejaVuSans-73"/>
      <use x="1419.109375" xlink:href="#DejaVuSans-74"/>
      <use x="1458.318359" xlink:href="#DejaVuSans-73"/>
      <use x="1510.417969" xlink:href="#DejaVuSans-20"/>
      <use x="1542.205078" xlink:href="#DejaVuSans-70"/>
      <use x="1605.681641" xlink:href="#DejaVuSans-65"/>
      <use x="1667.205078" xlink:href="#DejaVuSans-72"/>
      <use x="1708.318359" xlink:href="#DejaVuSans-20"/>
      <use x="1740.105469" xlink:href="#DejaVuSans-73"/>
      <use x="1792.205078" xlink:href="#DejaVuSans-65"/>
      <use x="1853.728516" xlink:href="#DejaVuSans-63"/>
      <use x="1908.708984" xlink:href="#DejaVuSans-6f"/>
      <use x="1969.890625" xlink:href="#DejaVuSans-6e"/>
      <use x="2033.269531" xlink:href="#DejaVuSans-64"/>
     </g>
    </g>
   </g>
  </g>
 </g>
 <defs>
  <clipPath id="p4ed0bbbe24">
   <rect height="266.112" width="357.12" x="57.6" y="41.472"/>
  </clipPath>
 </defs>
</svg>
