<?xml version="1.0" encoding="utf-8" standalone="no"?>
<!DOCTYPE svg PUBLIC "-//W3C//DTD SVG 1.1//EN"
  "http://www.w3.org/Graphics/SVG/1.1/DTD/svg11.dtd">
<!-- Created with matplotlib (http://matplotlib.org/) -->
<svg height="345pt" version="1.1" viewBox="0 0 460 345" width="460pt" xmlns="http://www.w3.org/2000/svg" xmlns:xlink="http://www.w3.org/1999/xlink">
 <defs>
  <style type="text/css">
*{stroke-linecap:butt;stroke-linejoin:round;}
  </style>
 </defs>
 <g id="figure_1">
  <g id="patch_1">
   <path d="M 0 345.6 
L 460.8 345.6 
L 460.8 0 
L 0 0 
z
" style="fill:#ffffff;"/>
  </g>
  <g id="axes_1">
   <g id="patch_2">
    <path d="M 57.6 307.584 
L 414.72 307.584 
L 414.72 41.472 
L 57.6 41.472 
z
" style="fill:#ffffff;"/>
   </g>
   <g id="matplotlib.axis_1">
    <g id="xtick_1">
     <g id="line2d_1">
      <path clip-path="url(#p8028657ad4)" d="M 57.6 307.584 
L 57.6 41.472 
" style="fill:none;stroke:#b0b0b0;stroke-linecap:square;stroke-width:0.8;"/>
     </g>
     <g id="line2d_2">
      <defs>
       <path d="M 0 0 
L 0 3.5 
" id="m7e5e7db81a" style="stroke:#000000;stroke-width:0.8;"/>
      </defs>
      <g>
       <use style="stroke:#000000;stroke-width:0.8;" x="57.6" xlink:href="#m7e5e7db81a" y="307.584"/>
      </g>
     </g>
     <g id="text_1">
      <!-- 0 -->
      <defs>
       <path d="M 31.78125 66.40625 
Q 24.171875 66.40625 20.328125 58.90625 
Q 16.5 51.421875 16.5 36.375 
Q 16.5 21.390625 20.328125 13.890625 
Q 24.171875 6.390625 31.78125 6.390625 
Q 39.453125 6.390625 43.28125 13.890625 
Q 47.125 21.390625 47.125 36.375 
Q 47.125 51.421875 43.28125 58.90625 
Q 39.453125 66.40625 31.78125 66.40625 
M 31.78125 74.21875 
Q 44.046875 74.21875 50.515625 64.515625 
Q 56.984375 54.828125 56.984375 36.375 
Q 56.984375 17.96875 50.515625 8.265625 
Q 44.046875 -1.421875 31.78125 -1.421875 
Q 19.53125 -1.421875 13.0625 8.265625 
Q 6.59375 17.96875 6.59375 36.375 
Q 6.59375 54.828125 13.0625 64.515625 
Q 19.53125 74.21875 31.78125 74.21875 
" id="DejaVuSans-30"/>
      </defs>
      <g transform="translate(54.41875 322.182437)scale(0.1 -0.1)">
       <use xlink:href="#DejaVuSans-30"/>
      </g>
     </g>
    </g>
    <g id="xtick_2">
     <g id="line2d_3">
      <path clip-path="url(#p8028657ad4)" d="M 129.024 307.584 
L 129.024 41.472 
" style="fill:none;stroke:#b0b0b0;stroke-linecap:square;stroke-width:0.8;"/>
     </g>
     <g id="line2d_4">
      <g>
       <use style="stroke:#000000;stroke-width:0.8;" x="129.024" xlink:href="#m7e5e7db81a" y="307.584"/>
      </g>
     </g>
     <g id="text_2">
      <!-- 200 -->
      <defs>
       <path d="M 19.1875 8.296875 
L 53.609375 8.296875 
L 53.609375 0 
L 7.328125 0 
L 7.328125 8.296875 
Q 12.9375 14.109375 22.625 23.890625 
Q 32.328125 33.6875 34.8125 36.53125 
Q 39.546875 41.84375 41.421875 45.53125 
Q 43.3125 49.21875 43.3125 52.78125 
Q 43.3125 58.59375 39.234375 62.25 
Q 35.15625 65.921875 28.609375 65.921875 
Q 23.96875 65.921875 18.8125 64.3125 
Q 13.671875 62.703125 7.8125 59.421875 
L 7.8125 69.390625 
Q 13.765625 71.78125 18.9375 73 
Q 24.125 74.21875 28.421875 74.21875 
Q 39.75 74.21875 46.484375 68.546875 
Q 53.21875 62.890625 53.21875 53.421875 
Q 53.21875 48.921875 51.53125 44.890625 
Q 49.859375 40.875 45.40625 35.40625 
Q 44.1875 33.984375 37.640625 27.21875 
Q 31.109375 20.453125 19.1875 8.296875 
" id="DejaVuSans-32"/>
      </defs>
      <g transform="translate(119.48025 322.182437)scale(0.1 -0.1)">
       <use xlink:href="#DejaVuSans-32"/>
       <use x="63.623047" xlink:href="#DejaVuSans-30"/>
       <use x="127.246094" xlink:href="#DejaVuSans-30"/>
      </g>
     </g>
    </g>
    <g id="xtick_3">
     <g id="line2d_5">
      <path clip-path="url(#p8028657ad4)" d="M 200.448 307.584 
L 200.448 41.472 
" style="fill:none;stroke:#b0b0b0;stroke-linecap:square;stroke-width:0.8;"/>
     </g>
     <g id="line2d_6">
      <g>
       <use style="stroke:#000000;stroke-width:0.8;" x="200.448" xlink:href="#m7e5e7db81a" y="307.584"/>
      </g>
     </g>
     <g id="text_3">
      <!-- 400 -->
      <defs>
       <path d="M 37.796875 64.3125 
L 12.890625 25.390625 
L 37.796875 25.390625 
z
M 35.203125 72.90625 
L 47.609375 72.90625 
L 47.609375 25.390625 
L 58.015625 25.390625 
L 58.015625 17.1875 
L 47.609375 17.1875 
L 47.609375 0 
L 37.796875 0 
L 37.796875 17.1875 
L 4.890625 17.1875 
L 4.890625 26.703125 
z
" id="DejaVuSans-34"/>
      </defs>
      <g transform="translate(190.90425 322.182437)scale(0.1 -0.1)">
       <use xlink:href="#DejaVuSans-34"/>
       <use x="63.623047" xlink:href="#DejaVuSans-30"/>
       <use x="127.246094" xlink:href="#DejaVuSans-30"/>
      </g>
     </g>
    </g>
    <g id="xtick_4">
     <g id="line2d_7">
      <path clip-path="url(#p8028657ad4)" d="M 271.872 307.584 
L 271.872 41.472 
" style="fill:none;stroke:#b0b0b0;stroke-linecap:square;stroke-width:0.8;"/>
     </g>
     <g id="line2d_8">
      <g>
       <use style="stroke:#000000;stroke-width:0.8;" x="271.872" xlink:href="#m7e5e7db81a" y="307.584"/>
      </g>
     </g>
     <g id="text_4">
      <!-- 600 -->
      <defs>
       <path d="M 33.015625 40.375 
Q 26.375 40.375 22.484375 35.828125 
Q 18.609375 31.296875 18.609375 23.390625 
Q 18.609375 15.53125 22.484375 10.953125 
Q 26.375 6.390625 33.015625 6.390625 
Q 39.65625 6.390625 43.53125 10.953125 
Q 47.40625 15.53125 47.40625 23.390625 
Q 47.40625 31.296875 43.53125 35.828125 
Q 39.65625 40.375 33.015625 40.375 
M 52.59375 71.296875 
L 52.59375 62.3125 
Q 48.875 64.0625 45.09375 64.984375 
Q 41.3125 65.921875 37.59375 65.921875 
Q 27.828125 65.921875 22.671875 59.328125 
Q 17.53125 52.734375 16.796875 39.40625 
Q 19.671875 43.65625 24.015625 45.921875 
Q 28.375 48.1875 33.59375 48.1875 
Q 44.578125 48.1875 50.953125 41.515625 
Q 57.328125 34.859375 57.328125 23.390625 
Q 57.328125 12.15625 50.6875 5.359375 
Q 44.046875 -1.421875 33.015625 -1.421875 
Q 20.359375 -1.421875 13.671875 8.265625 
Q 6.984375 17.96875 6.984375 36.375 
Q 6.984375 53.65625 15.1875 63.9375 
Q 23.390625 74.21875 37.203125 74.21875 
Q 40.921875 74.21875 44.703125 73.484375 
Q 48.484375 72.75 52.59375 71.296875 
" id="DejaVuSans-36"/>
      </defs>
      <g transform="translate(262.32825 322.182437)scale(0.1 -0.1)">
       <use xlink:href="#DejaVuSans-36"/>
       <use x="63.623047" xlink:href="#DejaVuSans-30"/>
       <use x="127.246094" xlink:href="#DejaVuSans-30"/>
      </g>
     </g>
    </g>
    <g id="xtick_5">
     <g id="line2d_9">
      <path clip-path="url(#p8028657ad4)" d="M 343.296 307.584 
L 343.296 41.472 
" style="fill:none;stroke:#b0b0b0;stroke-linecap:square;stroke-width:0.8;"/>
     </g>
     <g id="line2d_10">
      <g>
       <use style="stroke:#000000;stroke-width:0.8;" x="343.296" xlink:href="#m7e5e7db81a" y="307.584"/>
      </g>
     </g>
     <g id="text_5">
      <!-- 800 -->
      <defs>
       <path d="M 31.78125 34.625 
Q 24.75 34.625 20.71875 30.859375 
Q 16.703125 27.09375 16.703125 20.515625 
Q 16.703125 13.921875 20.71875 10.15625 
Q 24.75 6.390625 31.78125 6.390625 
Q 38.8125 6.390625 42.859375 10.171875 
Q 46.921875 13.96875 46.921875 20.515625 
Q 46.921875 27.09375 42.890625 30.859375 
Q 38.875 34.625 31.78125 34.625 
M 21.921875 38.8125 
Q 15.578125 40.375 12.03125 44.71875 
Q 8.5 49.078125 8.5 55.328125 
Q 8.5 64.0625 14.71875 69.140625 
Q 20.953125 74.21875 31.78125 74.21875 
Q 42.671875 74.21875 48.875 69.140625 
Q 55.078125 64.0625 55.078125 55.328125 
Q 55.078125 49.078125 51.53125 44.71875 
Q 48 40.375 41.703125 38.8125 
Q 48.828125 37.15625 52.796875 32.3125 
Q 56.78125 27.484375 56.78125 20.515625 
Q 56.78125 9.90625 50.3125 4.234375 
Q 43.84375 -1.421875 31.78125 -1.421875 
Q 19.734375 -1.421875 13.25 4.234375 
Q 6.78125 9.90625 6.78125 20.515625 
Q 6.78125 27.484375 10.78125 32.3125 
Q 14.796875 37.15625 21.921875 38.8125 
M 18.3125 54.390625 
Q 18.3125 48.734375 21.84375 45.5625 
Q 25.390625 42.390625 31.78125 42.390625 
Q 38.140625 42.390625 41.71875 45.5625 
Q 45.3125 48.734375 45.3125 54.390625 
Q 45.3125 60.0625 41.71875 63.234375 
Q 38.140625 66.40625 31.78125 66.40625 
Q 25.390625 66.40625 21.84375 63.234375 
Q 18.3125 60.0625 18.3125 54.390625 
" id="DejaVuSans-38"/>
      </defs>
      <g transform="translate(333.75225 322.182437)scale(0.1 -0.1)">
       <use xlink:href="#DejaVuSans-38"/>
       <use x="63.623047" xlink:href="#DejaVuSans-30"/>
       <use x="127.246094" xlink:href="#DejaVuSans-30"/>
      </g>
     </g>
    </g>
    <g id="xtick_6">
     <g id="line2d_11">
      <path clip-path="url(#p8028657ad4)" d="M 414.72 307.584 
L 414.72 41.472 
" style="fill:none;stroke:#b0b0b0;stroke-linecap:square;stroke-width:0.8;"/>
     </g>
     <g id="line2d_12">
      <g>
       <use style="stroke:#000000;stroke-width:0.8;" x="414.72" xlink:href="#m7e5e7db81a" y="307.584"/>
      </g>
     </g>
     <g id="text_6">
      <!-- 1000 -->
      <defs>
       <path d="M 12.40625 8.296875 
L 28.515625 8.296875 
L 28.515625 63.921875 
L 10.984375 60.40625 
L 10.984375 69.390625 
L 28.421875 72.90625 
L 38.28125 72.90625 
L 38.28125 8.296875 
L 54.390625 8.296875 
L 54.390625 0 
L 12.40625 0 
z
" id="DejaVuSans-31"/>
      </defs>
      <g transform="translate(401.995 322.182437)scale(0.1 -0.1)">
       <use xlink:href="#DejaVuSans-31"/>
       <use x="63.623047" xlink:href="#DejaVuSans-30"/>
       <use x="127.246094" xlink:href="#DejaVuSans-30"/>
       <use x="190.869141" xlink:href="#DejaVuSans-30"/>
      </g>
     </g>
    </g>
    <g id="text_7">
     <!-- Number of clients -->
     <defs>
      <path d="M 9.8125 72.90625 
L 23.09375 72.90625 
L 55.421875 11.921875 
L 55.421875 72.90625 
L 64.984375 72.90625 
L 64.984375 0 
L 51.703125 0 
L 19.390625 60.984375 
L 19.390625 0 
L 9.8125 0 
z
" id="DejaVuSans-4e"/>
      <path d="M 8.5 21.578125 
L 8.5 54.6875 
L 17.484375 54.6875 
L 17.484375 21.921875 
Q 17.484375 14.15625 20.5 10.265625 
Q 23.53125 6.390625 29.59375 6.390625 
Q 36.859375 6.390625 41.078125 11.03125 
Q 45.3125 15.671875 45.3125 23.6875 
L 45.3125 54.6875 
L 54.296875 54.6875 
L 54.296875 0 
L 45.3125 0 
L 45.3125 8.40625 
Q 42.046875 3.421875 37.71875 1 
Q 33.40625 -1.421875 27.6875 -1.421875 
Q 18.265625 -1.421875 13.375 4.4375 
Q 8.5 10.296875 8.5 21.578125 
M 31.109375 56 
z
" id="DejaVuSans-75"/>
      <path d="M 52 44.1875 
Q 55.375 50.25 60.0625 53.125 
Q 64.75 56 71.09375 56 
Q 79.640625 56 84.28125 50.015625 
Q 88.921875 44.046875 88.921875 33.015625 
L 88.921875 0 
L 79.890625 0 
L 79.890625 32.71875 
Q 79.890625 40.578125 77.09375 44.375 
Q 74.3125 48.1875 68.609375 48.1875 
Q 61.625 48.1875 57.5625 43.546875 
Q 53.515625 38.921875 53.515625 30.90625 
L 53.515625 0 
L 44.484375 0 
L 44.484375 32.71875 
Q 44.484375 40.625 41.703125 44.40625 
Q 38.921875 48.1875 33.109375 48.1875 
Q 26.21875 48.1875 22.15625 43.53125 
Q 18.109375 38.875 18.109375 30.90625 
L 18.109375 0 
L 9.078125 0 
L 9.078125 54.6875 
L 18.109375 54.6875 
L 18.109375 46.1875 
Q 21.1875 51.21875 25.484375 53.609375 
Q 29.78125 56 35.6875 56 
Q 41.65625 56 45.828125 52.96875 
Q 50 49.953125 52 44.1875 
" id="DejaVuSans-6d"/>
      <path d="M 48.6875 27.296875 
Q 48.6875 37.203125 44.609375 42.84375 
Q 40.53125 48.484375 33.40625 48.484375 
Q 26.265625 48.484375 22.1875 42.84375 
Q 18.109375 37.203125 18.109375 27.296875 
Q 18.109375 17.390625 22.1875 11.75 
Q 26.265625 6.109375 33.40625 6.109375 
Q 40.53125 6.109375 44.609375 11.75 
Q 48.6875 17.390625 48.6875 27.296875 
M 18.109375 46.390625 
Q 20.953125 51.265625 25.265625 53.625 
Q 29.59375 56 35.59375 56 
Q 45.5625 56 51.78125 48.09375 
Q 58.015625 40.1875 58.015625 27.296875 
Q 58.015625 14.40625 51.78125 6.484375 
Q 45.5625 -1.421875 35.59375 -1.421875 
Q 29.59375 -1.421875 25.265625 0.953125 
Q 20.953125 3.328125 18.109375 8.203125 
L 18.109375 0 
L 9.078125 0 
L 9.078125 75.984375 
L 18.109375 75.984375 
z
" id="DejaVuSans-62"/>
      <path d="M 56.203125 29.59375 
L 56.203125 25.203125 
L 14.890625 25.203125 
Q 15.484375 15.921875 20.484375 11.0625 
Q 25.484375 6.203125 34.421875 6.203125 
Q 39.59375 6.203125 44.453125 7.46875 
Q 49.3125 8.734375 54.109375 11.28125 
L 54.109375 2.78125 
Q 49.265625 0.734375 44.1875 -0.34375 
Q 39.109375 -1.421875 33.890625 -1.421875 
Q 20.796875 -1.421875 13.15625 6.1875 
Q 5.515625 13.8125 5.515625 26.8125 
Q 5.515625 40.234375 12.765625 48.109375 
Q 20.015625 56 32.328125 56 
Q 43.359375 56 49.78125 48.890625 
Q 56.203125 41.796875 56.203125 29.59375 
M 47.21875 32.234375 
Q 47.125 39.59375 43.09375 43.984375 
Q 39.0625 48.390625 32.421875 48.390625 
Q 24.90625 48.390625 20.390625 44.140625 
Q 15.875 39.890625 15.1875 32.171875 
z
" id="DejaVuSans-65"/>
      <path d="M 41.109375 46.296875 
Q 39.59375 47.171875 37.8125 47.578125 
Q 36.03125 48 33.890625 48 
Q 26.265625 48 22.1875 43.046875 
Q 18.109375 38.09375 18.109375 28.8125 
L 18.109375 0 
L 9.078125 0 
L 9.078125 54.6875 
L 18.109375 54.6875 
L 18.109375 46.1875 
Q 20.953125 51.171875 25.484375 53.578125 
Q 30.03125 56 36.53125 56 
Q 37.453125 56 38.578125 55.875 
Q 39.703125 55.765625 41.0625 55.515625 
z
" id="DejaVuSans-72"/>
      <path id="DejaVuSans-20"/>
      <path d="M 30.609375 48.390625 
Q 23.390625 48.390625 19.1875 42.75 
Q 14.984375 37.109375 14.984375 27.296875 
Q 14.984375 17.484375 19.15625 11.84375 
Q 23.34375 6.203125 30.609375 6.203125 
Q 37.796875 6.203125 41.984375 11.859375 
Q 46.1875 17.53125 46.1875 27.296875 
Q 46.1875 37.015625 41.984375 42.703125 
Q 37.796875 48.390625 30.609375 48.390625 
M 30.609375 56 
Q 42.328125 56 49.015625 48.375 
Q 55.71875 40.765625 55.71875 27.296875 
Q 55.71875 13.875 49.015625 6.21875 
Q 42.328125 -1.421875 30.609375 -1.421875 
Q 18.84375 -1.421875 12.171875 6.21875 
Q 5.515625 13.875 5.515625 27.296875 
Q 5.515625 40.765625 12.171875 48.375 
Q 18.84375 56 30.609375 56 
" id="DejaVuSans-6f"/>
      <path d="M 37.109375 75.984375 
L 37.109375 68.5 
L 28.515625 68.5 
Q 23.6875 68.5 21.796875 66.546875 
Q 19.921875 64.59375 19.921875 59.515625 
L 19.921875 54.6875 
L 34.71875 54.6875 
L 34.71875 47.703125 
L 19.921875 47.703125 
L 19.921875 0 
L 10.890625 0 
L 10.890625 47.703125 
L 2.296875 47.703125 
L 2.296875 54.6875 
L 10.890625 54.6875 
L 10.890625 58.5 
Q 10.890625 67.625 15.140625 71.796875 
Q 19.390625 75.984375 28.609375 75.984375 
z
" id="DejaVuSans-66"/>
      <path d="M 48.78125 52.59375 
L 48.78125 44.1875 
Q 44.96875 46.296875 41.140625 47.34375 
Q 37.3125 48.390625 33.40625 48.390625 
Q 24.65625 48.390625 19.8125 42.84375 
Q 14.984375 37.3125 14.984375 27.296875 
Q 14.984375 17.28125 19.8125 11.734375 
Q 24.65625 6.203125 33.40625 6.203125 
Q 37.3125 6.203125 41.140625 7.25 
Q 44.96875 8.296875 48.78125 10.40625 
L 48.78125 2.09375 
Q 45.015625 0.34375 40.984375 -0.53125 
Q 36.96875 -1.421875 32.421875 -1.421875 
Q 20.0625 -1.421875 12.78125 6.34375 
Q 5.515625 14.109375 5.515625 27.296875 
Q 5.515625 40.671875 12.859375 48.328125 
Q 20.21875 56 33.015625 56 
Q 37.15625 56 41.109375 55.140625 
Q 45.0625 54.296875 48.78125 52.59375 
" id="DejaVuSans-63"/>
      <path d="M 9.421875 75.984375 
L 18.40625 75.984375 
L 18.40625 0 
L 9.421875 0 
z
" id="DejaVuSans-6c"/>
      <path d="M 9.421875 54.6875 
L 18.40625 54.6875 
L 18.40625 0 
L 9.421875 0 
z
M 9.421875 75.984375 
L 18.40625 75.984375 
L 18.40625 64.59375 
L 9.421875 64.59375 
z
" id="DejaVuSans-69"/>
      <path d="M 54.890625 33.015625 
L 54.890625 0 
L 45.90625 0 
L 45.90625 32.71875 
Q 45.90625 40.484375 42.875 44.328125 
Q 39.84375 48.1875 33.796875 48.1875 
Q 26.515625 48.1875 22.3125 43.546875 
Q 18.109375 38.921875 18.109375 30.90625 
L 18.109375 0 
L 9.078125 0 
L 9.078125 54.6875 
L 18.109375 54.6875 
L 18.109375 46.1875 
Q 21.34375 51.125 25.703125 53.5625 
Q 30.078125 56 35.796875 56 
Q 45.21875 56 50.046875 50.171875 
Q 54.890625 44.34375 54.890625 33.015625 
" id="DejaVuSans-6e"/>
      <path d="M 18.3125 70.21875 
L 18.3125 54.6875 
L 36.8125 54.6875 
L 36.8125 47.703125 
L 18.3125 47.703125 
L 18.3125 18.015625 
Q 18.3125 11.328125 20.140625 9.421875 
Q 21.96875 7.515625 27.59375 7.515625 
L 36.8125 7.515625 
L 36.8125 0 
L 27.59375 0 
Q 17.1875 0 13.234375 3.875 
Q 9.28125 7.765625 9.28125 18.015625 
L 9.28125 47.703125 
L 2.6875 47.703125 
L 2.6875 54.6875 
L 9.28125 54.6875 
L 9.28125 70.21875 
z
" id="DejaVuSans-74"/>
      <path d="M 44.28125 53.078125 
L 44.28125 44.578125 
Q 40.484375 46.53125 36.375 47.5 
Q 32.28125 48.484375 27.875 48.484375 
Q 21.1875 48.484375 17.84375 46.4375 
Q 14.5 44.390625 14.5 40.28125 
Q 14.5 37.15625 16.890625 35.375 
Q 19.28125 33.59375 26.515625 31.984375 
L 29.59375 31.296875 
Q 39.15625 29.25 43.1875 25.515625 
Q 47.21875 21.78125 47.21875 15.09375 
Q 47.21875 7.46875 41.1875 3.015625 
Q 35.15625 -1.421875 24.609375 -1.421875 
Q 20.21875 -1.421875 15.453125 -0.5625 
Q 10.6875 0.296875 5.421875 2 
L 5.421875 11.28125 
Q 10.40625 8.6875 15.234375 7.390625 
Q 20.0625 6.109375 24.8125 6.109375 
Q 31.15625 6.109375 34.5625 8.28125 
Q 37.984375 10.453125 37.984375 14.40625 
Q 37.984375 18.0625 35.515625 20.015625 
Q 33.0625 21.96875 24.703125 23.78125 
L 21.578125 24.515625 
Q 13.234375 26.265625 9.515625 29.90625 
Q 5.8125 33.546875 5.8125 39.890625 
Q 5.8125 47.609375 11.28125 51.796875 
Q 16.75 56 26.8125 56 
Q 31.78125 56 36.171875 55.265625 
Q 40.578125 54.546875 44.28125 53.078125 
" id="DejaVuSans-73"/>
     </defs>
     <g transform="translate(191.738906 335.860562)scale(0.1 -0.1)">
      <use xlink:href="#DejaVuSans-4e"/>
      <use x="74.804688" xlink:href="#DejaVuSans-75"/>
      <use x="138.183594" xlink:href="#DejaVuSans-6d"/>
      <use x="235.595703" xlink:href="#DejaVuSans-62"/>
      <use x="299.072266" xlink:href="#DejaVuSans-65"/>
      <use x="360.595703" xlink:href="#DejaVuSans-72"/>
      <use x="401.708984" xlink:href="#DejaVuSans-20"/>
      <use x="433.496094" xlink:href="#DejaVuSans-6f"/>
      <use x="494.677734" xlink:href="#DejaVuSans-66"/>
      <use x="529.882812" xlink:href="#DejaVuSans-20"/>
      <use x="561.669922" xlink:href="#DejaVuSans-63"/>
      <use x="616.650391" xlink:href="#DejaVuSans-6c"/>
      <use x="644.433594" xlink:href="#DejaVuSans-69"/>
      <use x="672.216797" xlink:href="#DejaVuSans-65"/>
      <use x="733.740234" xlink:href="#DejaVuSans-6e"/>
      <use x="797.119141" xlink:href="#DejaVuSans-74"/>
      <use x="836.328125" xlink:href="#DejaVuSans-73"/>
     </g>
    </g>
   </g>
   <g id="matplotlib.axis_2">
    <g id="ytick_1">
     <g id="line2d_13">
      <path clip-path="url(#p8028657ad4)" d="M 57.6 295.858693 
L 414.72 295.858693 
" style="fill:none;stroke:#b0b0b0;stroke-linecap:square;stroke-width:0.8;"/>
     </g>
     <g id="line2d_14">
      <defs>
       <path d="M 0 0 
L -3.5 0 
" id="m665b1329ec" style="stroke:#000000;stroke-width:0.8;"/>
      </defs>
      <g>
       <use style="stroke:#000000;stroke-width:0.8;" x="57.6" xlink:href="#m665b1329ec" y="295.858693"/>
      </g>
     </g>
     <g id="text_8">
      <!-- 0 -->
      <g transform="translate(44.2375 299.657912)scale(0.1 -0.1)">
       <use xlink:href="#DejaVuSans-30"/>
      </g>
     </g>
    </g>
    <g id="ytick_2">
     <g id="line2d_15">
      <path clip-path="url(#p8028657ad4)" d="M 57.6 256.084788 
L 414.72 256.084788 
" style="fill:none;stroke:#b0b0b0;stroke-linecap:square;stroke-width:0.8;"/>
     </g>
     <g id="line2d_16">
      <g>
       <use style="stroke:#000000;stroke-width:0.8;" x="57.6" xlink:href="#m665b1329ec" y="256.084788"/>
      </g>
     </g>
     <g id="text_9">
      <!-- 100 -->
      <g transform="translate(31.5125 259.884007)scale(0.1 -0.1)">
       <use xlink:href="#DejaVuSans-31"/>
       <use x="63.623047" xlink:href="#DejaVuSans-30"/>
       <use x="127.246094" xlink:href="#DejaVuSans-30"/>
      </g>
     </g>
    </g>
    <g id="ytick_3">
     <g id="line2d_17">
      <path clip-path="url(#p8028657ad4)" d="M 57.6 216.310884 
L 414.72 216.310884 
" style="fill:none;stroke:#b0b0b0;stroke-linecap:square;stroke-width:0.8;"/>
     </g>
     <g id="line2d_18">
      <g>
       <use style="stroke:#000000;stroke-width:0.8;" x="57.6" xlink:href="#m665b1329ec" y="216.310884"/>
      </g>
     </g>
     <g id="text_10">
      <!-- 200 -->
      <g transform="translate(31.5125 220.110103)scale(0.1 -0.1)">
       <use xlink:href="#DejaVuSans-32"/>
       <use x="63.623047" xlink:href="#DejaVuSans-30"/>
       <use x="127.246094" xlink:href="#DejaVuSans-30"/>
      </g>
     </g>
    </g>
    <g id="ytick_4">
     <g id="line2d_19">
      <path clip-path="url(#p8028657ad4)" d="M 57.6 176.53698 
L 414.72 176.53698 
" style="fill:none;stroke:#b0b0b0;stroke-linecap:square;stroke-width:0.8;"/>
     </g>
     <g id="line2d_20">
      <g>
       <use style="stroke:#000000;stroke-width:0.8;" x="57.6" xlink:href="#m665b1329ec" y="176.53698"/>
      </g>
     </g>
     <g id="text_11">
      <!-- 300 -->
      <defs>
       <path d="M 40.578125 39.3125 
Q 47.65625 37.796875 51.625 33 
Q 55.609375 28.21875 55.609375 21.1875 
Q 55.609375 10.40625 48.1875 4.484375 
Q 40.765625 -1.421875 27.09375 -1.421875 
Q 22.515625 -1.421875 17.65625 -0.515625 
Q 12.796875 0.390625 7.625 2.203125 
L 7.625 11.71875 
Q 11.71875 9.328125 16.59375 8.109375 
Q 21.484375 6.890625 26.8125 6.890625 
Q 36.078125 6.890625 40.9375 10.546875 
Q 45.796875 14.203125 45.796875 21.1875 
Q 45.796875 27.640625 41.28125 31.265625 
Q 36.765625 34.90625 28.71875 34.90625 
L 20.21875 34.90625 
L 20.21875 43.015625 
L 29.109375 43.015625 
Q 36.375 43.015625 40.234375 45.921875 
Q 44.09375 48.828125 44.09375 54.296875 
Q 44.09375 59.90625 40.109375 62.90625 
Q 36.140625 65.921875 28.71875 65.921875 
Q 24.65625 65.921875 20.015625 65.03125 
Q 15.375 64.15625 9.8125 62.3125 
L 9.8125 71.09375 
Q 15.4375 72.65625 20.34375 73.4375 
Q 25.25 74.21875 29.59375 74.21875 
Q 40.828125 74.21875 47.359375 69.109375 
Q 53.90625 64.015625 53.90625 55.328125 
Q 53.90625 49.265625 50.4375 45.09375 
Q 46.96875 40.921875 40.578125 39.3125 
" id="DejaVuSans-33"/>
      </defs>
      <g transform="translate(31.5125 180.336199)scale(0.1 -0.1)">
       <use xlink:href="#DejaVuSans-33"/>
       <use x="63.623047" xlink:href="#DejaVuSans-30"/>
       <use x="127.246094" xlink:href="#DejaVuSans-30"/>
      </g>
     </g>
    </g>
    <g id="ytick_5">
     <g id="line2d_21">
      <path clip-path="url(#p8028657ad4)" d="M 57.6 136.763076 
L 414.72 136.763076 
" style="fill:none;stroke:#b0b0b0;stroke-linecap:square;stroke-width:0.8;"/>
     </g>
     <g id="line2d_22">
      <g>
       <use style="stroke:#000000;stroke-width:0.8;" x="57.6" xlink:href="#m665b1329ec" y="136.763076"/>
      </g>
     </g>
     <g id="text_12">
      <!-- 400 -->
      <g transform="translate(31.5125 140.562294)scale(0.1 -0.1)">
       <use xlink:href="#DejaVuSans-34"/>
       <use x="63.623047" xlink:href="#DejaVuSans-30"/>
       <use x="127.246094" xlink:href="#DejaVuSans-30"/>
      </g>
     </g>
    </g>
    <g id="ytick_6">
     <g id="line2d_23">
      <path clip-path="url(#p8028657ad4)" d="M 57.6 96.989171 
L 414.72 96.989171 
" style="fill:none;stroke:#b0b0b0;stroke-linecap:square;stroke-width:0.8;"/>
     </g>
     <g id="line2d_24">
      <g>
       <use style="stroke:#000000;stroke-width:0.8;" x="57.6" xlink:href="#m665b1329ec" y="96.989171"/>
      </g>
     </g>
     <g id="text_13">
      <!-- 500 -->
      <defs>
       <path d="M 10.796875 72.90625 
L 49.515625 72.90625 
L 49.515625 64.59375 
L 19.828125 64.59375 
L 19.828125 46.734375 
Q 21.96875 47.46875 24.109375 47.828125 
Q 26.265625 48.1875 28.421875 48.1875 
Q 40.625 48.1875 47.75 41.5 
Q 54.890625 34.8125 54.890625 23.390625 
Q 54.890625 11.625 47.5625 5.09375 
Q 40.234375 -1.421875 26.90625 -1.421875 
Q 22.3125 -1.421875 17.546875 -0.640625 
Q 12.796875 0.140625 7.71875 1.703125 
L 7.71875 11.625 
Q 12.109375 9.234375 16.796875 8.0625 
Q 21.484375 6.890625 26.703125 6.890625 
Q 35.15625 6.890625 40.078125 11.328125 
Q 45.015625 15.765625 45.015625 23.390625 
Q 45.015625 31 40.078125 35.4375 
Q 35.15625 39.890625 26.703125 39.890625 
Q 22.75 39.890625 18.8125 39.015625 
Q 14.890625 38.140625 10.796875 36.28125 
z
" id="DejaVuSans-35"/>
      </defs>
      <g transform="translate(31.5125 100.78839)scale(0.1 -0.1)">
       <use xlink:href="#DejaVuSans-35"/>
       <use x="63.623047" xlink:href="#DejaVuSans-30"/>
       <use x="127.246094" xlink:href="#DejaVuSans-30"/>
      </g>
     </g>
    </g>
    <g id="ytick_7">
     <g id="line2d_25">
      <path clip-path="url(#p8028657ad4)" d="M 57.6 57.215267 
L 414.72 57.215267 
" style="fill:none;stroke:#b0b0b0;stroke-linecap:square;stroke-width:0.8;"/>
     </g>
     <g id="line2d_26">
      <g>
       <use style="stroke:#000000;stroke-width:0.8;" x="57.6" xlink:href="#m665b1329ec" y="57.215267"/>
      </g>
     </g>
     <g id="text_14">
      <!-- 600 -->
      <g transform="translate(31.5125 61.014486)scale(0.1 -0.1)">
       <use xlink:href="#DejaVuSans-36"/>
       <use x="63.623047" xlink:href="#DejaVuSans-30"/>
       <use x="127.246094" xlink:href="#DejaVuSans-30"/>
      </g>
     </g>
    </g>
    <g id="text_15">
     <!-- Successful download requests per second -->
     <defs>
      <path d="M 53.515625 70.515625 
L 53.515625 60.890625 
Q 47.90625 63.578125 42.921875 64.890625 
Q 37.9375 66.21875 33.296875 66.21875 
Q 25.25 66.21875 20.875 63.09375 
Q 16.5 59.96875 16.5 54.203125 
Q 16.5 49.359375 19.40625 46.890625 
Q 22.3125 44.4375 30.421875 42.921875 
L 36.375 41.703125 
Q 47.40625 39.59375 52.65625 34.296875 
Q 57.90625 29 57.90625 20.125 
Q 57.90625 9.515625 50.796875 4.046875 
Q 43.703125 -1.421875 29.984375 -1.421875 
Q 24.8125 -1.421875 18.96875 -0.25 
Q 13.140625 0.921875 6.890625 3.21875 
L 6.890625 13.375 
Q 12.890625 10.015625 18.65625 8.296875 
Q 24.421875 6.59375 29.984375 6.59375 
Q 38.421875 6.59375 43.015625 9.90625 
Q 47.609375 13.234375 47.609375 19.390625 
Q 47.609375 24.75 44.3125 27.78125 
Q 41.015625 30.8125 33.5 32.328125 
L 27.484375 33.5 
Q 16.453125 35.6875 11.515625 40.375 
Q 6.59375 45.0625 6.59375 53.421875 
Q 6.59375 63.09375 13.40625 68.65625 
Q 20.21875 74.21875 32.171875 74.21875 
Q 37.3125 74.21875 42.625 73.28125 
Q 47.953125 72.359375 53.515625 70.515625 
" id="DejaVuSans-53"/>
      <path d="M 45.40625 46.390625 
L 45.40625 75.984375 
L 54.390625 75.984375 
L 54.390625 0 
L 45.40625 0 
L 45.40625 8.203125 
Q 42.578125 3.328125 38.25 0.953125 
Q 33.9375 -1.421875 27.875 -1.421875 
Q 17.96875 -1.421875 11.734375 6.484375 
Q 5.515625 14.40625 5.515625 27.296875 
Q 5.515625 40.1875 11.734375 48.09375 
Q 17.96875 56 27.875 56 
Q 33.9375 56 38.25 53.625 
Q 42.578125 51.265625 45.40625 46.390625 
M 14.796875 27.296875 
Q 14.796875 17.390625 18.875 11.75 
Q 22.953125 6.109375 30.078125 6.109375 
Q 37.203125 6.109375 41.296875 11.75 
Q 45.40625 17.390625 45.40625 27.296875 
Q 45.40625 37.203125 41.296875 42.84375 
Q 37.203125 48.484375 30.078125 48.484375 
Q 22.953125 48.484375 18.875 42.84375 
Q 14.796875 37.203125 14.796875 27.296875 
" id="DejaVuSans-64"/>
      <path d="M 4.203125 54.6875 
L 13.1875 54.6875 
L 24.421875 12.015625 
L 35.59375 54.6875 
L 46.1875 54.6875 
L 57.421875 12.015625 
L 68.609375 54.6875 
L 77.59375 54.6875 
L 63.28125 0 
L 52.6875 0 
L 40.921875 44.828125 
L 29.109375 0 
L 18.5 0 
z
" id="DejaVuSans-77"/>
      <path d="M 34.28125 27.484375 
Q 23.390625 27.484375 19.1875 25 
Q 14.984375 22.515625 14.984375 16.5 
Q 14.984375 11.71875 18.140625 8.90625 
Q 21.296875 6.109375 26.703125 6.109375 
Q 34.1875 6.109375 38.703125 11.40625 
Q 43.21875 16.703125 43.21875 25.484375 
L 43.21875 27.484375 
z
M 52.203125 31.203125 
L 52.203125 0 
L 43.21875 0 
L 43.21875 8.296875 
Q 40.140625 3.328125 35.546875 0.953125 
Q 30.953125 -1.421875 24.3125 -1.421875 
Q 15.921875 -1.421875 10.953125 3.296875 
Q 6 8.015625 6 15.921875 
Q 6 25.140625 12.171875 29.828125 
Q 18.359375 34.515625 30.609375 34.515625 
L 43.21875 34.515625 
L 43.21875 35.40625 
Q 43.21875 41.609375 39.140625 45 
Q 35.0625 48.390625 27.6875 48.390625 
Q 23 48.390625 18.546875 47.265625 
Q 14.109375 46.140625 10.015625 43.890625 
L 10.015625 52.203125 
Q 14.9375 54.109375 19.578125 55.046875 
Q 24.21875 56 28.609375 56 
Q 40.484375 56 46.34375 49.84375 
Q 52.203125 43.703125 52.203125 31.203125 
" id="DejaVuSans-61"/>
      <path d="M 14.796875 27.296875 
Q 14.796875 17.390625 18.875 11.75 
Q 22.953125 6.109375 30.078125 6.109375 
Q 37.203125 6.109375 41.296875 11.75 
Q 45.40625 17.390625 45.40625 27.296875 
Q 45.40625 37.203125 41.296875 42.84375 
Q 37.203125 48.484375 30.078125 48.484375 
Q 22.953125 48.484375 18.875 42.84375 
Q 14.796875 37.203125 14.796875 27.296875 
M 45.40625 8.203125 
Q 42.578125 3.328125 38.25 0.953125 
Q 33.9375 -1.421875 27.875 -1.421875 
Q 17.96875 -1.421875 11.734375 6.484375 
Q 5.515625 14.40625 5.515625 27.296875 
Q 5.515625 40.1875 11.734375 48.09375 
Q 17.96875 56 27.875 56 
Q 33.9375 56 38.25 53.625 
Q 42.578125 51.265625 45.40625 46.390625 
L 45.40625 54.6875 
L 54.390625 54.6875 
L 54.390625 -20.796875 
L 45.40625 -20.796875 
z
" id="DejaVuSans-71"/>
      <path d="M 18.109375 8.203125 
L 18.109375 -20.796875 
L 9.078125 -20.796875 
L 9.078125 54.6875 
L 18.109375 54.6875 
L 18.109375 46.390625 
Q 20.953125 51.265625 25.265625 53.625 
Q 29.59375 56 35.59375 56 
Q 45.5625 56 51.78125 48.09375 
Q 58.015625 40.1875 58.015625 27.296875 
Q 58.015625 14.40625 51.78125 6.484375 
Q 45.5625 -1.421875 35.59375 -1.421875 
Q 29.59375 -1.421875 25.265625 0.953125 
Q 20.953125 3.328125 18.109375 8.203125 
M 48.6875 27.296875 
Q 48.6875 37.203125 44.609375 42.84375 
Q 40.53125 48.484375 33.40625 48.484375 
Q 26.265625 48.484375 22.1875 42.84375 
Q 18.109375 37.203125 18.109375 27.296875 
Q 18.109375 17.390625 22.1875 11.75 
Q 26.265625 6.109375 33.40625 6.109375 
Q 40.53125 6.109375 44.609375 11.75 
Q 48.6875 17.390625 48.6875 27.296875 
" id="DejaVuSans-70"/>
     </defs>
     <g transform="translate(25.432812 279.366281)rotate(-90)scale(0.1 -0.1)">
      <use xlink:href="#DejaVuSans-53"/>
      <use x="63.476562" xlink:href="#DejaVuSans-75"/>
      <use x="126.855469" xlink:href="#DejaVuSans-63"/>
      <use x="181.835938" xlink:href="#DejaVuSans-63"/>
      <use x="236.816406" xlink:href="#DejaVuSans-65"/>
      <use x="298.339844" xlink:href="#DejaVuSans-73"/>
      <use x="350.439453" xlink:href="#DejaVuSans-73"/>
      <use x="402.539062" xlink:href="#DejaVuSans-66"/>
      <use x="437.744141" xlink:href="#DejaVuSans-75"/>
      <use x="501.123047" xlink:href="#DejaVuSans-6c"/>
      <use x="528.90625" xlink:href="#DejaVuSans-20"/>
      <use x="560.693359" xlink:href="#DejaVuSans-64"/>
      <use x="624.169922" xlink:href="#DejaVuSans-6f"/>
      <use x="685.351562" xlink:href="#DejaVuSans-77"/>
      <use x="767.138672" xlink:href="#DejaVuSans-6e"/>
      <use x="830.517578" xlink:href="#DejaVuSans-6c"/>
      <use x="858.300781" xlink:href="#DejaVuSans-6f"/>
      <use x="919.482422" xlink:href="#DejaVuSans-61"/>
      <use x="980.761719" xlink:href="#DejaVuSans-64"/>
      <use x="1044.238281" xlink:href="#DejaVuSans-20"/>
      <use x="1076.025391" xlink:href="#DejaVuSans-72"/>
      <use x="1117.107422" xlink:href="#DejaVuSans-65"/>
      <use x="1178.630859" xlink:href="#DejaVuSans-71"/>
      <use x="1242.107422" xlink:href="#DejaVuSans-75"/>
      <use x="1305.486328" xlink:href="#DejaVuSans-65"/>
      <use x="1367.009766" xlink:href="#DejaVuSans-73"/>
      <use x="1419.109375" xlink:href="#DejaVuSans-74"/>
      <use x="1458.318359" xlink:href="#DejaVuSans-73"/>
      <use x="1510.417969" xlink:href="#DejaVuSans-20"/>
      <use x="1542.205078" xlink:href="#DejaVuSans-70"/>
      <use x="1605.681641" xlink:href="#DejaVuSans-65"/>
      <use x="1667.205078" xlink:href="#DejaVuSans-72"/>
      <use x="1708.318359" xlink:href="#DejaVuSans-20"/>
      <use x="1740.105469" xlink:href="#DejaVuSans-73"/>
      <use x="1792.205078" xlink:href="#DejaVuSans-65"/>
      <use x="1853.728516" xlink:href="#DejaVuSans-63"/>
      <use x="1908.708984" xlink:href="#DejaVuSans-6f"/>
      <use x="1969.890625" xlink:href="#DejaVuSans-6e"/>
      <use x="2033.269531" xlink:href="#DejaVuSans-64"/>
     </g>
    </g>
   </g>
   <g id="line2d_27">
    <path clip-path="url(#p8028657ad4)" d="M 57.6 295.481238 
L 57.95712 295.488 
L 59.3856 293.931249 
L 60.45696 292.777806 
L 60.81408 292.298531 
L 61.1712 292.131082 
L 62.59968 290.340064 
L 62.9568 290.142387 
L 63.31392 289.557711 
L 63.67104 289.503618 
L 64.02816 288.765017 
L 64.38528 288.315572 
L 65.09952 288.079713 
L 65.81376 287.345486 
L 66.17088 286.421936 
L 66.528 286.291876 
L 67.59936 285.497591 
L 69.38496 282.89598 
L 69.74208 283.225308 
L 70.0992 282.091751 
L 71.17056 281.602532 
L 71.52768 280.608582 
L 71.8848 280.653129 
L 72.24192 279.731568 
L 72.59904 279.591166 
L 72.95616 279.622587 
L 73.31328 278.538351 
L 73.6704 278.378857 
L 74.02752 278.481076 
L 74.74176 277.013021 
L 75.09888 277.388487 
L 75.456 276.371468 
L 75.81312 276.461357 
L 76.17024 275.671448 
L 76.52736 275.782019 
L 77.95584 274.385557 
L 78.67008 273.242853 
L 79.0272 272.386919 
L 79.38432 271.914007 
L 79.74144 271.707978 
L 80.09856 272.153446 
L 80.45568 271.941053 
L 80.8128 271.569167 
L 81.16992 270.164751 
L 81.52704 270.006848 
L 81.88416 269.013296 
L 82.24128 269.048695 
L 82.5984 268.710617 
L 82.95552 268.998977 
L 83.66976 268.535214 
L 84.02688 267.701155 
L 84.384 267.803374 
L 84.74112 266.313841 
L 85.09824 266.761298 
L 85.45536 265.17591 
L 85.81248 265.928432 
L 86.1696 264.788114 
L 86.52672 265.150454 
L 86.88384 265.152841 
L 87.24096 263.463245 
L 87.59808 262.687257 
L 87.9552 263.984284 
L 88.31232 261.746604 
L 88.66944 262.437476 
L 89.02656 262.224686 
L 89.38368 262.811351 
L 89.7408 260.92925 
L 90.09792 259.81916 
L 90.45504 261.382275 
L 90.81216 259.705407 
L 91.16928 259.554664 
L 91.5264 258.33281 
L 91.88352 258.785039 
L 92.24064 259.978654 
L 92.59776 258.743674 
L 92.95488 258.811687 
L 93.312 258.45412 
L 93.66912 256.297181 
L 94.02624 256.677817 
L 94.38336 256.408548 
L 94.74048 255.397098 
L 95.0976 256.961008 
L 95.45472 254.341896 
L 96.16896 254.598835 
L 96.52608 253.813301 
L 96.8832 254.924981 
L 97.24032 253.777107 
L 97.59744 251.985292 
L 97.95456 251.212883 
L 98.31168 251.21169 
L 98.6688 251.444367 
L 99.02592 252.162684 
L 99.74016 252.171434 
L 100.09728 249.581357 
L 100.4544 249.386068 
L 100.81152 249.891594 
L 101.16864 247.521467 
L 101.52576 249.012193 
L 101.88288 247.467772 
L 102.24 248.271205 
L 102.59712 247.434362 
L 102.95424 248.722639 
L 103.66848 244.751612 
L 104.0256 244.876502 
L 104.38272 243.893291 
L 104.73984 245.62107 
L 105.09696 244.233358 
L 105.45408 245.803632 
L 105.8112 242.186593 
L 106.16832 244.359839 
L 106.88256 242.903319 
L 107.23968 243.529758 
L 107.5968 242.603424 
L 107.95392 242.128921 
L 108.31104 240.522453 
L 108.66816 240.55467 
L 109.02528 241.823855 
L 109.3824 239.442194 
L 109.73952 240.227728 
L 110.09664 239.756805 
L 110.45376 240.252786 
L 110.81088 237.852431 
L 111.168 236.582052 
L 111.52512 239.213892 
L 111.88224 238.5087 
L 112.23936 238.727854 
L 112.59648 237.68538 
L 112.9536 237.583957 
L 113.31072 234.046068 
L 113.66784 236.372842 
L 114.02496 233.407299 
L 114.38208 236.070958 
L 114.7392 233.521053 
L 115.09632 232.562501 
L 115.45344 235.777426 
L 115.81056 231.168028 
L 116.16768 231.739182 
L 116.5248 230.741652 
L 116.88192 232.278914 
L 117.23904 230.519714 
L 117.59616 231.648497 
L 117.95328 230.353459 
L 118.3104 232.280505 
L 118.66752 231.61111 
L 119.02464 227.548205 
L 119.38176 231.086094 
L 119.73888 227.509625 
L 120.096 229.206777 
L 120.45312 229.247347 
L 120.81024 225.759573 
L 121.16736 229.412408 
L 121.52448 228.346468 
L 121.8816 225.197965 
L 122.23872 226.972279 
L 122.59584 224.980402 
L 122.95296 226.430161 
L 123.31008 223.391832 
L 123.6672 227.366041 
L 124.02432 222.992502 
L 124.38144 222.153273 
L 124.73856 224.386578 
L 125.09568 222.611866 
L 125.4528 224.31936 
L 125.80992 224.155491 
L 126.16704 224.576299 
L 126.52416 223.60343 
L 126.88128 220.701128 
L 127.2384 221.681952 
L 127.59552 218.016389 
L 127.95264 219.429158 
L 128.30976 217.982979 
L 128.66688 220.714253 
L 129.024 221.372511 
L 129.38112 219.858319 
L 129.73824 216.893174 
L 130.09536 217.751495 
L 130.45248 217.446031 
L 130.8096 216.00025 
L 131.16672 218.535836 
L 131.52384 219.215175 
L 131.88096 215.572681 
L 132.23808 217.776155 
L 132.5952 213.760184 
L 132.95232 212.746347 
L 133.30944 216.873685 
L 133.66656 216.465605 
L 134.3808 213.792798 
L 134.73792 213.356876 
L 135.09504 210.920725 
L 135.45216 214.826522 
L 135.80928 214.27804 
L 136.1664 211.963994 
L 136.52352 208.173541 
L 136.88064 208.277749 
L 137.23776 209.993993 
L 137.59488 208.773332 
L 137.952 211.786205 
L 138.30912 211.733306 
L 138.66624 206.779068 
L 139.02336 208.018025 
L 139.38048 205.04413 
L 139.7376 207.529204 
L 140.09472 208.020014 
L 140.45184 207.671992 
L 140.80896 203.685056 
L 141.16608 206.344737 
L 141.5232 204.987651 
L 141.88032 207.70222 
L 142.23744 204.385872 
L 142.59456 206.458093 
L 142.95168 203.021627 
L 143.3088 201.911538 
L 143.66592 201.828808 
L 144.38016 205.148338 
L 144.73728 201.140322 
L 145.0944 201.870968 
L 145.45152 200.905258 
L 145.80864 202.602808 
L 146.16576 200.195294 
L 146.52288 203.449197 
L 146.88 202.207853 
L 147.23712 197.123157 
L 147.59424 198.483823 
L 147.95136 196.477627 
L 148.30848 198.319556 
L 148.6656 199.192196 
L 149.02272 198.121482 
L 149.37984 193.83306 
L 149.73696 193.938859 
L 150.09408 197.906305 
L 150.4512 199.062931 
L 151.16544 196.99071 
L 151.52256 196.737748 
L 152.2368 191.830046 
L 152.59392 195.747776 
L 152.95104 190.524667 
L 153.30816 189.421338 
L 153.66528 189.211332 
L 154.0224 191.205596 
L 154.37952 188.750353 
L 154.73664 193.807605 
L 155.09376 194.375178 
L 155.45088 194.285687 
L 155.808 186.740577 
L 156.16512 186.689667 
L 156.52224 191.554015 
L 156.87936 187.361448 
L 157.23648 190.148405 
L 157.5936 186.557617 
L 157.95072 186.714724 
L 158.30784 187.676855 
L 158.66496 183.526846 
L 159.02208 188.570177 
L 159.73632 183.228144 
L 160.09344 188.195904 
L 160.45056 181.78276 
L 160.80768 187.180079 
L 161.1648 182.129191 
L 161.52192 182.563522 
L 162.23616 179.655652 
L 162.59328 181.223539 
L 162.9504 184.348972 
L 163.30752 179.281777 
L 163.66464 180.938758 
L 164.02176 180.784037 
L 164.37888 178.508175 
L 164.736 184.513636 
L 165.09312 177.01904 
L 165.45024 177.37263 
L 165.80736 178.329988 
L 166.16448 175.470642 
L 166.5216 179.72804 
L 166.87872 181.187743 
L 167.23584 176.547719 
L 167.59296 176.356406 
L 167.95008 173.103696 
L 168.3072 179.205411 
L 168.66432 172.291911 
L 169.02144 179.747132 
L 169.37856 178.460048 
L 169.73568 178.565847 
L 170.0928 174.675163 
L 170.44992 177.598545 
L 170.80704 170.411003 
L 171.16416 177.983557 
L 171.52128 172.710333 
L 171.8784 176.262142 
L 172.23552 170.96386 
L 172.59264 172.986363 
L 172.94976 167.874621 
L 173.30688 169.616321 
L 173.664 174.755507 
L 174.02112 170.116676 
L 174.37824 168.410774 
L 174.73536 173.993439 
L 175.09248 173.411547 
L 175.80672 164.612366 
L 176.16384 168.24611 
L 176.52096 168.28827 
L 176.87808 168.007466 
L 177.2352 170.758627 
L 177.59232 163.013455 
L 177.94944 165.817515 
L 178.30656 170.805163 
L 178.66368 167.933884 
L 179.0208 160.977826 
L 179.37792 166.182242 
L 180.09216 164.113601 
L 180.44928 168.182869 
L 181.16352 163.722226 
L 181.52064 162.779982 
L 181.87776 165.119085 
L 182.23488 159.224195 
L 182.592 159.086179 
L 182.94912 164.001836 
L 183.30624 158.863048 
L 183.66336 163.201188 
L 184.02048 164.185592 
L 184.3776 163.863025 
L 184.73472 159.169705 
L 185.09184 162.682138 
L 185.80608 157.748185 
L 186.1632 153.544481 
L 186.52032 155.038787 
L 186.87744 158.166209 
L 187.23456 152.207283 
L 187.59168 156.625368 
L 187.9488 159.271128 
L 188.30592 151.417373 
L 189.02016 159.510965 
L 189.37728 152.493655 
L 189.7344 155.751535 
L 190.09152 151.468681 
L 190.44864 149.774313 
L 190.80576 154.688379 
L 191.16288 149.863804 
L 191.52 148.773601 
L 191.87712 153.867048 
L 192.23424 151.788861 
L 192.59136 155.332318 
L 192.94848 150.708204 
L 193.3056 152.134496 
L 193.66272 154.524908 
L 194.01984 147.623738 
L 194.37696 153.345612 
L 194.73408 144.591773 
L 195.0912 150.232508 
L 195.44832 150.53121 
L 195.80544 145.726523 
L 196.16256 150.026877 
L 196.51968 145.232133 
L 196.8768 146.332279 
L 197.23392 141.24639 
L 197.59104 148.174209 
L 197.94816 147.895791 
L 198.30528 149.098952 
L 198.6624 145.152188 
L 199.01952 149.379358 
L 199.37664 138.022715 
L 199.73376 147.852836 
L 200.09088 137.52753 
L 200.448 138.556083 
L 201.16224 146.186309 
L 201.51936 139.676514 
L 201.87648 137.432868 
L 202.2336 139.036552 
L 202.59072 139.994705 
L 202.94784 134.658638 
L 203.30496 143.089115 
L 203.66208 144.297446 
L 204.0192 142.842517 
L 204.37632 137.296841 
L 204.73344 136.578525 
L 205.09056 141.090476 
L 205.44768 133.257801 
L 205.8048 137.879927 
L 206.16192 138.425625 
L 206.51904 131.406326 
L 206.87616 140.671259 
L 207.5904 129.462973 
L 207.94752 137.832596 
L 208.30464 140.032888 
L 208.66176 132.502097 
L 209.01888 137.661966 
L 209.376 129.514679 
L 209.73312 137.472244 
L 210.09024 130.746079 
L 210.44736 130.137936 
L 210.80448 130.261235 
L 211.1616 127.514052 
L 211.51872 136.791713 
L 211.87584 133.513945 
L 212.23296 135.291043 
L 212.59008 137.701342 
L 212.9472 131.126318 
L 213.66144 133.944697 
L 214.01856 133.62571 
L 214.37568 132.316751 
L 214.7328 136.17482 
L 215.08992 132.333456 
L 215.44704 126.846646 
L 215.80416 127.838607 
L 216.16128 129.228705 
L 216.5184 125.235803 
L 217.23264 126.519307 
L 217.58976 133.078421 
L 217.94688 133.02592 
L 218.304 134.023051 
L 218.66112 124.015937 
L 219.01824 133.71719 
L 219.37536 130.462889 
L 219.73248 125.641496 
L 220.0896 131.703437 
L 220.44672 131.62906 
L 220.80384 127.427345 
L 221.16096 125.441831 
L 221.51808 127.843778 
L 221.8752 131.054725 
L 222.23232 123.59672 
L 222.58944 124.163498 
L 222.94656 131.142227 
L 223.30368 126.32879 
L 223.6608 126.473567 
L 224.01792 132.728808 
L 224.37504 124.791528 
L 224.73216 123.280518 
L 225.08928 123.277733 
L 225.4464 132.198225 
L 225.80352 131.466385 
L 226.16064 126.978297 
L 226.51776 124.564817 
L 226.87488 130.117254 
L 227.232 122.850562 
L 227.58912 131.539569 
L 227.94624 120.81016 
L 228.30336 127.050288 
L 228.66048 125.370238 
L 229.0176 119.556487 
L 229.37472 122.399526 
L 229.73184 129.610932 
L 230.08896 120.751295 
L 230.44608 126.555501 
L 230.8032 120.719078 
L 231.16032 129.466155 
L 231.51744 126.044406 
L 231.87456 129.827302 
L 232.23168 120.48481 
L 232.5888 129.014721 
L 232.94592 123.001305 
L 233.30304 123.335406 
L 233.66016 127.37365 
L 234.01728 117.373695 
L 234.3744 128.569651 
L 234.73152 121.461259 
L 235.08864 119.215625 
L 235.44576 124.897327 
L 235.80288 118.764986 
L 236.16 121.43819 
L 236.51712 126.012985 
L 236.87424 120.34759 
L 237.23136 127.158871 
L 237.58848 116.846691 
L 237.9456 122.462766 
L 238.30272 117.627055 
L 238.65984 124.016733 
L 239.01696 121.031701 
L 239.37408 121.262787 
L 239.7312 125.125629 
L 240.08832 115.427956 
L 240.44544 123.224039 
L 240.80256 120.547255 
L 241.15968 114.64441 
L 241.5168 125.634337 
L 241.87392 118.395089 
L 242.23104 120.69243 
L 242.58816 112.731683 
L 242.94528 115.56796 
L 243.3024 120.902834 
L 243.65952 115.521027 
L 244.01664 120.839991 
L 244.37376 121.208297 
L 244.73088 113.919331 
L 245.088 115.52222 
L 245.44512 121.506204 
L 245.80224 114.420483 
L 246.15936 119.068859 
L 246.51648 113.666369 
L 246.8736 122.158098 
L 247.23072 112.859357 
L 247.58784 116.770723 
L 247.94496 115.130049 
L 248.30208 114.396618 
L 248.6592 121.104487 
L 249.01632 118.214515 
L 249.37344 117.874051 
L 249.73056 114.69015 
L 250.08768 109.570055 
L 250.4448 110.777591 
L 250.80192 119.910475 
L 251.15904 111.603695 
L 251.51616 111.180103 
L 251.87328 113.901831 
L 252.2304 113.99172 
L 252.94464 113.805578 
L 253.30176 112.635032 
L 253.65888 109.752219 
L 254.016 117.544723 
L 254.37312 110.115355 
L 254.73024 108.055862 
L 255.08736 107.656532 
L 255.44448 118.961469 
L 255.8016 108.999299 
L 256.15872 112.438151 
L 256.51584 111.115669 
L 256.87296 115.795069 
L 257.23008 112.219395 
L 257.5872 119.416085 
L 257.94432 106.978785 
L 258.30144 109.597101 
L 258.65856 115.133231 
L 259.01568 107.284646 
L 259.72992 117.461198 
L 260.08704 107.315272 
L 260.44416 113.607902 
L 260.80128 115.873821 
L 261.1584 107.751194 
L 261.51552 115.223915 
L 261.87264 117.309659 
L 262.22976 105.980062 
L 262.58688 113.321927 
L 262.944 117.332728 
L 263.30112 109.364026 
L 263.65824 116.659356 
L 264.01536 108.140581 
L 264.37248 107.272317 
L 264.7296 110.8639 
L 265.08672 106.530533 
L 265.44384 114.609011 
L 265.80096 103.275835 
L 266.15808 109.809892 
L 266.87232 113.350962 
L 267.22944 111.576251 
L 267.58656 107.49505 
L 267.94368 113.203401 
L 268.3008 110.556846 
L 268.65792 109.822619 
L 269.01504 112.6231 
L 269.37216 111.441019 
L 269.72928 111.810121 
L 270.0864 106.170182 
L 270.44352 104.913724 
L 270.80064 113.385963 
L 271.51488 103.23964 
L 271.872 102.211485 
L 272.58624 110.560425 
L 272.94336 101.764426 
L 273.30048 104.313536 
L 273.6576 105.342884 
L 274.01472 100.61854 
L 274.37184 100.424046 
L 274.72896 101.495157 
L 275.08608 106.298254 
L 275.4432 99.331059 
L 275.80032 110.192119 
L 276.15744 105.977278 
L 276.51456 107.333568 
L 276.87168 111.386131 
L 277.2288 102.657748 
L 277.58592 101.09702 
L 277.94304 103.977844 
L 278.30016 108.248766 
L 278.65728 108.588833 
L 279.37152 98.998151 
L 279.72864 106.779518 
L 280.08576 98.33512 
L 280.44288 106.113305 
L 280.8 100.051762 
L 281.15712 105.084752 
L 281.51424 98.944854 
L 281.87136 103.25913 
L 282.22848 109.156804 
L 282.5856 101.89051 
L 282.94272 97.508221 
L 283.29984 104.939975 
L 283.65696 109.190612 
L 284.01408 102.53604 
L 284.72832 97.630327 
L 285.08544 98.071022 
L 285.44256 95.760158 
L 285.79968 107.135494 
L 286.1568 103.126285 
L 286.51392 95.861183 
L 286.87104 94.684274 
L 287.22816 96.437507 
L 287.58528 100.43558 
L 287.9424 103.098841 
L 288.29952 102.376944 
L 288.65664 107.899949 
L 289.01376 106.968842 
L 289.37088 106.36229 
L 289.728 100.969346 
L 290.08512 97.468049 
L 290.44224 98.471147 
L 290.79936 104.455131 
L 291.15648 100.595471 
L 291.5136 105.680167 
L 291.87072 104.801562 
L 292.22784 99.569702 
L 292.58496 98.416259 
L 292.94208 99.51203 
L 293.2992 104.058585 
L 293.65632 98.557059 
L 294.01344 96.359153 
L 294.37056 105.111798 
L 294.72768 97.500266 
L 295.0848 103.176798 
L 295.44192 104.554566 
L 295.79904 103.386008 
L 296.15616 96.485634 
L 296.51328 97.661748 
L 296.8704 93.991412 
L 297.22752 101.167818 
L 297.58464 101.804598 
L 297.94176 95.025931 
L 298.29888 92.380967 
L 298.656 100.165913 
L 299.01312 100.704054 
L 299.37024 95.709645 
L 299.72736 96.015108 
L 300.08448 99.076904 
L 300.4416 92.283123 
L 300.79872 89.525598 
L 301.15584 103.806419 
L 301.51296 96.598592 
L 301.87008 96.530976 
L 302.58432 95.716009 
L 302.94144 99.679876 
L 303.29856 98.149774 
L 303.65568 102.948098 
L 304.0128 101.02662 
L 304.36992 91.021097 
L 304.72704 95.199346 
L 305.08416 95.831751 
L 305.44128 95.882661 
L 305.7984 89.974248 
L 306.15552 99.325093 
L 306.51264 87.517414 
L 306.86976 92.878538 
L 307.22688 96.464156 
L 307.584 88.843476 
L 307.94112 97.697147 
L 308.29824 94.298069 
L 308.65536 100.749794 
L 309.01248 96.923942 
L 309.3696 94.501314 
L 309.72672 98.765474 
L 310.08384 87.841969 
L 310.44096 88.332779 
L 310.79808 98.480693 
L 311.1552 97.861413 
L 311.51232 87.57429 
L 311.86944 93.691915 
L 312.22656 86.484088 
L 312.58368 90.028738 
L 312.9408 90.569265 
L 313.29792 90.136525 
L 313.65504 95.123377 
L 314.01216 89.314796 
L 314.36928 98.802464 
L 314.7264 98.803657 
L 315.08352 86.933135 
L 315.44064 90.68978 
L 316.15488 84.040777 
L 316.512 87.862651 
L 316.86912 86.686139 
L 317.22624 95.639643 
L 317.58336 92.846719 
L 318.2976 96.418416 
L 318.65472 85.342179 
L 319.01184 84.206236 
L 319.36896 87.12405 
L 319.72608 93.058714 
L 320.0832 90.895809 
L 320.44032 94.21176 
L 320.79744 85.667529 
L 321.15456 89.164053 
L 321.51168 90.630119 
L 321.8688 94.388356 
L 322.22592 85.226437 
L 322.58304 94.576089 
L 322.94016 94.8203 
L 323.29728 84.277829 
L 323.6544 89.981009 
L 324.01152 85.132173 
L 324.36864 88.829157 
L 324.72576 83.853839 
L 325.08288 92.083458 
L 325.44 82.814547 
L 325.79712 92.981553 
L 326.15424 90.500457 
L 326.51136 80.898638 
L 326.86848 86.103451 
L 327.2256 88.732507 
L 327.58272 80.307996 
L 328.29696 94.688649 
L 328.65408 86.026688 
L 329.0112 87.120072 
L 329.36832 80.459534 
L 329.72544 91.024279 
L 330.08256 79.4453 
L 330.43968 92.085447 
L 330.7968 93.460033 
L 331.15392 83.610423 
L 331.51104 88.508182 
L 331.86816 83.025349 
L 332.22528 92.767171 
L 332.5824 87.098197 
L 332.93952 78.345949 
L 333.29664 89.077744 
L 333.65376 87.027002 
L 334.368 80.538685 
L 334.72512 91.036211 
L 335.08224 83.924637 
L 335.43936 84.879211 
L 336.1536 92.287498 
L 336.51072 90.109081 
L 336.86784 90.07408 
L 337.22496 89.103597 
L 337.58208 91.093485 
L 337.9392 85.349338 
L 338.29632 88.522103 
L 338.65344 83.370189 
L 339.01056 89.697421 
L 339.36768 77.742181 
L 340.08192 85.622983 
L 340.43904 83.291436 
L 340.79616 89.205021 
L 341.15328 88.493068 
L 341.5104 89.848562 
L 341.86752 77.64911 
L 342.22464 76.528679 
L 342.58176 77.092276 
L 342.93888 89.734411 
L 343.296 77.231484 
L 343.65312 86.55926 
L 344.01024 76.875906 
L 344.36736 83.346722 
L 344.72448 76.226398 
L 345.0816 80.516411 
L 345.43872 82.576302 
L 346.15296 88.598866 
L 346.51008 77.56121 
L 346.8672 77.05807 
L 347.58144 83.945319 
L 347.93856 84.551474 
L 348.29568 82.805002 
L 348.6528 75.41143 
L 349.00992 75.359724 
L 349.36704 81.239898 
L 349.72416 74.115994 
L 350.08128 72.782375 
L 350.79552 81.249842 
L 351.15264 80.388339 
L 351.50976 80.214925 
L 351.86688 72.411285 
L 352.224 80.354134 
L 352.58112 78.063554 
L 352.93824 72.161903 
L 353.29536 81.169499 
L 353.65248 78.499476 
L 354.0096 84.659261 
L 354.36672 81.579965 
L 355.08096 78.812497 
L 355.43808 82.419195 
L 355.7952 73.472055 
L 356.15232 84.804038 
L 356.50944 73.153068 
L 356.86656 75.092046 
L 357.22368 75.422965 
L 357.5808 71.078859 
L 357.93792 75.564958 
L 358.29504 85.652813 
L 358.65216 73.682857 
L 359.00928 73.603707 
L 359.3664 77.435524 
L 359.72352 83.219843 
L 360.08064 81.814234 
L 360.43776 79.757127 
L 360.79488 80.506468 
L 361.152 71.668706 
L 361.50912 80.102365 
L 361.86624 80.376805 
L 362.22336 73.100567 
L 362.58048 80.529934 
L 362.9376 77.829684 
L 363.29472 71.751834 
L 363.65184 81.533828 
L 364.00896 76.121395 
L 364.36608 82.742159 
L 365.08032 68.232639 
L 365.43744 74.029685 
L 365.79456 81.717981 
L 366.15168 83.323653 
L 366.5088 76.120201 
L 366.86592 83.293027 
L 367.22304 73.425122 
L 367.58016 67.375909 
L 367.93728 80.740338 
L 368.2944 72.684929 
L 369.00864 81.150407 
L 369.36576 67.818592 
L 369.72288 69.218634 
L 370.08 78.654595 
L 370.43712 71.621375 
L 370.79424 66.977772 
L 371.15136 80.257085 
L 371.50848 77.433138 
L 371.8656 77.699225 
L 372.22272 78.900397 
L 372.57984 73.057213 
L 372.93696 69.063515 
L 373.6512 76.856416 
L 374.00832 68.045701 
L 374.36544 71.0892 
L 374.72256 72.098662 
L 375.07968 66.023596 
L 375.4368 74.217816 
L 375.79392 68.802201 
L 376.15104 70.979424 
L 376.50816 79.625476 
L 376.86528 74.659704 
L 377.2224 79.228134 
L 377.57952 66.012459 
L 377.93664 69.006241 
L 378.29376 65.391589 
L 378.65088 66.892656 
L 379.008 72.981245 
L 379.36512 73.056418 
L 379.72224 70.527991 
L 380.07936 71.970192 
L 380.43648 69.390059 
L 380.7936 78.623969 
L 381.15072 71.560919 
L 381.86496 69.231759 
L 382.22208 76.85045 
L 382.5792 64.318091 
L 382.93632 70.798055 
L 383.29344 66.230818 
L 383.65056 70.198663 
L 384.00768 77.65627 
L 384.3648 71.891042 
L 384.72192 69.151416 
L 385.07904 72.325373 
L 385.43616 65.68154 
L 386.1504 72.725499 
L 386.50752 68.913568 
L 387.22176 77.252565 
L 387.57888 63.359937 
L 387.936 67.531425 
L 388.29312 65.436931 
L 388.65024 67.489662 
L 389.00736 75.885535 
L 389.36448 76.461859 
L 389.7216 74.681977 
L 390.07872 74.104062 
L 390.43584 66.942771 
L 390.79296 72.287588 
L 391.15008 64.243714 
L 391.5072 69.328012 
L 391.86432 70.929707 
L 392.22144 75.972243 
L 392.57856 75.427738 
L 392.93568 67.815013 
L 393.2928 75.479842 
L 394.00704 71.737515 
L 394.36416 59.94853 
L 394.72128 70.129058 
L 395.0784 72.203267 
L 395.43552 62.840093 
L 395.79264 69.481141 
L 396.14976 66.705718 
L 396.50688 68.666572 
L 396.864 72.890958 
L 397.22112 60.496614 
L 397.57824 71.14727 
L 397.93536 66.535486 
L 398.29248 59.304192 
L 398.6496 63.251355 
L 399.00672 72.021501 
L 399.72096 68.43827 
L 400.07808 59.355899 
L 400.4352 60.74003 
L 400.79232 63.88018 
L 401.14944 66.003311 
L 401.50656 58.075577 
L 401.86368 58.59224 
L 402.2208 62.35684 
L 402.57792 67.615745 
L 402.93504 69.879676 
L 403.29216 68.826861 
L 403.64928 56.319559 
L 404.0064 59.119244 
L 404.36352 70.330314 
L 404.72064 63.634775 
L 405.07776 60.309677 
L 405.43488 62.54497 
L 405.792 55.871705 
L 406.14912 61.521588 
L 406.50624 55.936138 
L 406.86336 65.160502 
L 407.22048 61.475052 
L 407.5776 71.130963 
L 407.93472 67.462218 
L 408.29184 60.991004 
L 408.64896 65.733644 
L 409.00608 59.864209 
L 409.3632 59.967223 
L 409.72032 57.148049 
L 410.07744 69.130336 
L 410.43456 58.299504 
L 410.79168 68.973229 
L 411.1488 58.844406 
L 411.50592 64.584974 
L 411.86304 64.91112 
L 412.22016 56.29291 
L 412.57728 59.226633 
L 412.9344 63.383802 
L 413.29152 57.027534 
L 413.64864 53.568 
L 414.00576 57.202142 
L 414.36288 64.643839 
L 414.72 64.292636 
L 414.72 64.292636 
" style="fill:none;stroke:#000080;stroke-linecap:square;stroke-width:0.5;"/>
   </g>
   <g id="patch_3">
    <path d="M 57.6 307.584 
L 57.6 41.472 
" style="fill:none;stroke:#000000;stroke-linecap:square;stroke-linejoin:miter;stroke-width:0.8;"/>
   </g>
   <g id="patch_4">
    <path d="M 414.72 307.584 
L 414.72 41.472 
" style="fill:none;stroke:#000000;stroke-linecap:square;stroke-linejoin:miter;stroke-width:0.8;"/>
   </g>
   <g id="patch_5">
    <path d="M 57.6 307.584 
L 414.72 307.584 
" style="fill:none;stroke:#000000;stroke-linecap:square;stroke-linejoin:miter;stroke-width:0.8;"/>
   </g>
   <g id="patch_6">
    <path d="M 57.6 41.472 
L 414.72 41.472 
" style="fill:none;stroke:#000000;stroke-linecap:square;stroke-linejoin:miter;stroke-width:0.8;"/>
   </g>
   <g id="text_16">
    <!-- Test -->
    <defs>
     <path d="M -0.296875 72.90625 
L 61.375 72.90625 
L 61.375 64.59375 
L 35.5 64.59375 
L 35.5 0 
L 25.59375 0 
L 25.59375 64.59375 
L -0.296875 64.59375 
z
" id="DejaVuSans-54"/>
    </defs>
    <g transform="translate(223.341563 35.472)scale(0.12 -0.12)">
     <use xlink:href="#DejaVuSans-54"/>
     <use x="60.818359" xlink:href="#DejaVuSans-65"/>
     <use x="122.341797" xlink:href="#DejaVuSans-73"/>
     <use x="174.441406" xlink:href="#DejaVuSans-74"/>
    </g>
   </g>
   <g id="legend_1">
    <g id="patch_7">
     <path d="M 64.6 64.150125 
L 306.276563 64.150125 
Q 308.276563 64.150125 308.276563 62.150125 
L 308.276563 48.472 
Q 308.276563 46.472 306.276563 46.472 
L 64.6 46.472 
Q 62.6 46.472 62.6 48.472 
L 62.6 62.150125 
Q 62.6 64.150125 64.6 64.150125 
z
" style="fill:#ffffff;opacity:0.8;stroke:#cccccc;stroke-linejoin:miter;"/>
    </g>
    <g id="line2d_28">
     <path d="M 66.6 54.570438 
L 86.6 54.570438 
" style="fill:none;stroke:#000080;stroke-linecap:square;stroke-width:0.5;"/>
    </g>
    <g id="line2d_29"/>
    <g id="text_17">
     <!-- Successful download requests per second -->
     <g transform="translate(94.6 58.070438)scale(0.1 -0.1)">
      <use xlink:href="#DejaVuSans-53"/>
      <use x="63.476562" xlink:href="#DejaVuSans-75"/>
      <use x="126.855469" xlink:href="#DejaVuSans-63"/>
      <use x="181.835938" xlink:href="#DejaVuSans-63"/>
      <use x="236.816406" xlink:href="#DejaVuSans-65"/>
      <use x="298.339844" xlink:href="#DejaVuSans-73"/>
      <use x="350.439453" xlink:href="#DejaVuSans-73"/>
      <use x="402.539062" xlink:href="#DejaVuSans-66"/>
      <use x="437.744141" xlink:href="#DejaVuSans-75"/>
      <use x="501.123047" xlink:href="#DejaVuSans-6c"/>
      <use x="528.90625" xlink:href="#DejaVuSans-20"/>
      <use x="560.693359" xlink:href="#DejaVuSans-64"/>
      <use x="624.169922" xlink:href="#DejaVuSans-6f"/>
      <use x="685.351562" xlink:href="#DejaVuSans-77"/>
      <use x="767.138672" xlink:href="#DejaVuSans-6e"/>
      <use x="830.517578" xlink:href="#DejaVuSans-6c"/>
      <use x="858.300781" xlink:href="#DejaVuSans-6f"/>
      <use x="919.482422" xlink:href="#DejaVuSans-61"/>
      <use x="980.761719" xlink:href="#DejaVuSans-64"/>
      <use x="1044.238281" xlink:href="#DejaVuSans-20"/>
      <use x="1076.025391" xlink:href="#DejaVuSans-72"/>
      <use x="1117.107422" xlink:href="#DejaVuSans-65"/>
      <use x="1178.630859" xlink:href="#DejaVuSans-71"/>
      <use x="1242.107422" xlink:href="#DejaVuSans-75"/>
      <use x="1305.486328" xlink:href="#DejaVuSans-65"/>
      <use x="1367.009766" xlink:href="#DejaVuSans-73"/>
      <use x="1419.109375" xlink:href="#DejaVuSans-74"/>
      <use x="1458.318359" xlink:href="#DejaVuSans-73"/>
      <use x="1510.417969" xlink:href="#DejaVuSans-20"/>
      <use x="1542.205078" xlink:href="#DejaVuSans-70"/>
      <use x="1605.681641" xlink:href="#DejaVuSans-65"/>
      <use x="1667.205078" xlink:href="#DejaVuSans-72"/>
      <use x="1708.318359" xlink:href="#DejaVuSans-20"/>
      <use x="1740.105469" xlink:href="#DejaVuSans-73"/>
      <use x="1792.205078" xlink:href="#DejaVuSans-65"/>
      <use x="1853.728516" xlink:href="#DejaVuSans-63"/>
      <use x="1908.708984" xlink:href="#DejaVuSans-6f"/>
      <use x="1969.890625" xlink:href="#DejaVuSans-6e"/>
      <use x="2033.269531" xlink:href="#DejaVuSans-64"/>
     </g>
    </g>
   </g>
  </g>
 </g>
 <defs>
  <clipPath id="p8028657ad4">
   <rect height="266.112" width="357.12" x="57.6" y="41.472"/>
  </clipPath>
 </defs>
</svg>
