<?xml version="1.0" encoding="utf-8" standalone="no"?>
<!DOCTYPE svg PUBLIC "-//W3C//DTD SVG 1.1//EN"
  "http://www.w3.org/Graphics/SVG/1.1/DTD/svg11.dtd">
<!-- Created with matplotlib (http://matplotlib.org/) -->
<svg height="345pt" version="1.1" viewBox="0 0 460 345" width="460pt" xmlns="http://www.w3.org/2000/svg" xmlns:xlink="http://www.w3.org/1999/xlink">
 <defs>
  <style type="text/css">
*{stroke-linecap:butt;stroke-linejoin:round;}
  </style>
 </defs>
 <g id="figure_1">
  <g id="patch_1">
   <path d="M 0 345.6 
L 460.8 345.6 
L 460.8 0 
L 0 0 
z
" style="fill:#ffffff;"/>
  </g>
  <g id="axes_1">
   <g id="patch_2">
    <path d="M 57.6 307.584 
L 414.72 307.584 
L 414.72 41.472 
L 57.6 41.472 
z
" style="fill:#ffffff;"/>
   </g>
   <g id="matplotlib.axis_1">
    <g id="xtick_1">
     <g id="line2d_1">
      <path clip-path="url(#p216db7454e)" d="M 57.6 307.584 
L 57.6 41.472 
" style="fill:none;stroke:#b0b0b0;stroke-linecap:square;stroke-width:0.8;"/>
     </g>
     <g id="line2d_2">
      <defs>
       <path d="M 0 0 
L 0 3.5 
" id="mb4394e77eb" style="stroke:#000000;stroke-width:0.8;"/>
      </defs>
      <g>
       <use style="stroke:#000000;stroke-width:0.8;" x="57.6" xlink:href="#mb4394e77eb" y="307.584"/>
      </g>
     </g>
     <g id="text_1">
      <!-- 0 -->
      <defs>
       <path d="M 31.78125 66.40625 
Q 24.171875 66.40625 20.328125 58.90625 
Q 16.5 51.421875 16.5 36.375 
Q 16.5 21.390625 20.328125 13.890625 
Q 24.171875 6.390625 31.78125 6.390625 
Q 39.453125 6.390625 43.28125 13.890625 
Q 47.125 21.390625 47.125 36.375 
Q 47.125 51.421875 43.28125 58.90625 
Q 39.453125 66.40625 31.78125 66.40625 
M 31.78125 74.21875 
Q 44.046875 74.21875 50.515625 64.515625 
Q 56.984375 54.828125 56.984375 36.375 
Q 56.984375 17.96875 50.515625 8.265625 
Q 44.046875 -1.421875 31.78125 -1.421875 
Q 19.53125 -1.421875 13.0625 8.265625 
Q 6.59375 17.96875 6.59375 36.375 
Q 6.59375 54.828125 13.0625 64.515625 
Q 19.53125 74.21875 31.78125 74.21875 
" id="DejaVuSans-30"/>
      </defs>
      <g transform="translate(54.41875 322.182437)scale(0.1 -0.1)">
       <use xlink:href="#DejaVuSans-30"/>
      </g>
     </g>
    </g>
    <g id="xtick_2">
     <g id="line2d_3">
      <path clip-path="url(#p216db7454e)" d="M 129.024 307.584 
L 129.024 41.472 
" style="fill:none;stroke:#b0b0b0;stroke-linecap:square;stroke-width:0.8;"/>
     </g>
     <g id="line2d_4">
      <g>
       <use style="stroke:#000000;stroke-width:0.8;" x="129.024" xlink:href="#mb4394e77eb" y="307.584"/>
      </g>
     </g>
     <g id="text_2">
      <!-- 200 -->
      <defs>
       <path d="M 19.1875 8.296875 
L 53.609375 8.296875 
L 53.609375 0 
L 7.328125 0 
L 7.328125 8.296875 
Q 12.9375 14.109375 22.625 23.890625 
Q 32.328125 33.6875 34.8125 36.53125 
Q 39.546875 41.84375 41.421875 45.53125 
Q 43.3125 49.21875 43.3125 52.78125 
Q 43.3125 58.59375 39.234375 62.25 
Q 35.15625 65.921875 28.609375 65.921875 
Q 23.96875 65.921875 18.8125 64.3125 
Q 13.671875 62.703125 7.8125 59.421875 
L 7.8125 69.390625 
Q 13.765625 71.78125 18.9375 73 
Q 24.125 74.21875 28.421875 74.21875 
Q 39.75 74.21875 46.484375 68.546875 
Q 53.21875 62.890625 53.21875 53.421875 
Q 53.21875 48.921875 51.53125 44.890625 
Q 49.859375 40.875 45.40625 35.40625 
Q 44.1875 33.984375 37.640625 27.21875 
Q 31.109375 20.453125 19.1875 8.296875 
" id="DejaVuSans-32"/>
      </defs>
      <g transform="translate(119.48025 322.182437)scale(0.1 -0.1)">
       <use xlink:href="#DejaVuSans-32"/>
       <use x="63.623047" xlink:href="#DejaVuSans-30"/>
       <use x="127.246094" xlink:href="#DejaVuSans-30"/>
      </g>
     </g>
    </g>
    <g id="xtick_3">
     <g id="line2d_5">
      <path clip-path="url(#p216db7454e)" d="M 200.448 307.584 
L 200.448 41.472 
" style="fill:none;stroke:#b0b0b0;stroke-linecap:square;stroke-width:0.8;"/>
     </g>
     <g id="line2d_6">
      <g>
       <use style="stroke:#000000;stroke-width:0.8;" x="200.448" xlink:href="#mb4394e77eb" y="307.584"/>
      </g>
     </g>
     <g id="text_3">
      <!-- 400 -->
      <defs>
       <path d="M 37.796875 64.3125 
L 12.890625 25.390625 
L 37.796875 25.390625 
z
M 35.203125 72.90625 
L 47.609375 72.90625 
L 47.609375 25.390625 
L 58.015625 25.390625 
L 58.015625 17.1875 
L 47.609375 17.1875 
L 47.609375 0 
L 37.796875 0 
L 37.796875 17.1875 
L 4.890625 17.1875 
L 4.890625 26.703125 
z
" id="DejaVuSans-34"/>
      </defs>
      <g transform="translate(190.90425 322.182437)scale(0.1 -0.1)">
       <use xlink:href="#DejaVuSans-34"/>
       <use x="63.623047" xlink:href="#DejaVuSans-30"/>
       <use x="127.246094" xlink:href="#DejaVuSans-30"/>
      </g>
     </g>
    </g>
    <g id="xtick_4">
     <g id="line2d_7">
      <path clip-path="url(#p216db7454e)" d="M 271.872 307.584 
L 271.872 41.472 
" style="fill:none;stroke:#b0b0b0;stroke-linecap:square;stroke-width:0.8;"/>
     </g>
     <g id="line2d_8">
      <g>
       <use style="stroke:#000000;stroke-width:0.8;" x="271.872" xlink:href="#mb4394e77eb" y="307.584"/>
      </g>
     </g>
     <g id="text_4">
      <!-- 600 -->
      <defs>
       <path d="M 33.015625 40.375 
Q 26.375 40.375 22.484375 35.828125 
Q 18.609375 31.296875 18.609375 23.390625 
Q 18.609375 15.53125 22.484375 10.953125 
Q 26.375 6.390625 33.015625 6.390625 
Q 39.65625 6.390625 43.53125 10.953125 
Q 47.40625 15.53125 47.40625 23.390625 
Q 47.40625 31.296875 43.53125 35.828125 
Q 39.65625 40.375 33.015625 40.375 
M 52.59375 71.296875 
L 52.59375 62.3125 
Q 48.875 64.0625 45.09375 64.984375 
Q 41.3125 65.921875 37.59375 65.921875 
Q 27.828125 65.921875 22.671875 59.328125 
Q 17.53125 52.734375 16.796875 39.40625 
Q 19.671875 43.65625 24.015625 45.921875 
Q 28.375 48.1875 33.59375 48.1875 
Q 44.578125 48.1875 50.953125 41.515625 
Q 57.328125 34.859375 57.328125 23.390625 
Q 57.328125 12.15625 50.6875 5.359375 
Q 44.046875 -1.421875 33.015625 -1.421875 
Q 20.359375 -1.421875 13.671875 8.265625 
Q 6.984375 17.96875 6.984375 36.375 
Q 6.984375 53.65625 15.1875 63.9375 
Q 23.390625 74.21875 37.203125 74.21875 
Q 40.921875 74.21875 44.703125 73.484375 
Q 48.484375 72.75 52.59375 71.296875 
" id="DejaVuSans-36"/>
      </defs>
      <g transform="translate(262.32825 322.182437)scale(0.1 -0.1)">
       <use xlink:href="#DejaVuSans-36"/>
       <use x="63.623047" xlink:href="#DejaVuSans-30"/>
       <use x="127.246094" xlink:href="#DejaVuSans-30"/>
      </g>
     </g>
    </g>
    <g id="xtick_5">
     <g id="line2d_9">
      <path clip-path="url(#p216db7454e)" d="M 343.296 307.584 
L 343.296 41.472 
" style="fill:none;stroke:#b0b0b0;stroke-linecap:square;stroke-width:0.8;"/>
     </g>
     <g id="line2d_10">
      <g>
       <use style="stroke:#000000;stroke-width:0.8;" x="343.296" xlink:href="#mb4394e77eb" y="307.584"/>
      </g>
     </g>
     <g id="text_5">
      <!-- 800 -->
      <defs>
       <path d="M 31.78125 34.625 
Q 24.75 34.625 20.71875 30.859375 
Q 16.703125 27.09375 16.703125 20.515625 
Q 16.703125 13.921875 20.71875 10.15625 
Q 24.75 6.390625 31.78125 6.390625 
Q 38.8125 6.390625 42.859375 10.171875 
Q 46.921875 13.96875 46.921875 20.515625 
Q 46.921875 27.09375 42.890625 30.859375 
Q 38.875 34.625 31.78125 34.625 
M 21.921875 38.8125 
Q 15.578125 40.375 12.03125 44.71875 
Q 8.5 49.078125 8.5 55.328125 
Q 8.5 64.0625 14.71875 69.140625 
Q 20.953125 74.21875 31.78125 74.21875 
Q 42.671875 74.21875 48.875 69.140625 
Q 55.078125 64.0625 55.078125 55.328125 
Q 55.078125 49.078125 51.53125 44.71875 
Q 48 40.375 41.703125 38.8125 
Q 48.828125 37.15625 52.796875 32.3125 
Q 56.78125 27.484375 56.78125 20.515625 
Q 56.78125 9.90625 50.3125 4.234375 
Q 43.84375 -1.421875 31.78125 -1.421875 
Q 19.734375 -1.421875 13.25 4.234375 
Q 6.78125 9.90625 6.78125 20.515625 
Q 6.78125 27.484375 10.78125 32.3125 
Q 14.796875 37.15625 21.921875 38.8125 
M 18.3125 54.390625 
Q 18.3125 48.734375 21.84375 45.5625 
Q 25.390625 42.390625 31.78125 42.390625 
Q 38.140625 42.390625 41.71875 45.5625 
Q 45.3125 48.734375 45.3125 54.390625 
Q 45.3125 60.0625 41.71875 63.234375 
Q 38.140625 66.40625 31.78125 66.40625 
Q 25.390625 66.40625 21.84375 63.234375 
Q 18.3125 60.0625 18.3125 54.390625 
" id="DejaVuSans-38"/>
      </defs>
      <g transform="translate(333.75225 322.182437)scale(0.1 -0.1)">
       <use xlink:href="#DejaVuSans-38"/>
       <use x="63.623047" xlink:href="#DejaVuSans-30"/>
       <use x="127.246094" xlink:href="#DejaVuSans-30"/>
      </g>
     </g>
    </g>
    <g id="xtick_6">
     <g id="line2d_11">
      <path clip-path="url(#p216db7454e)" d="M 414.72 307.584 
L 414.72 41.472 
" style="fill:none;stroke:#b0b0b0;stroke-linecap:square;stroke-width:0.8;"/>
     </g>
     <g id="line2d_12">
      <g>
       <use style="stroke:#000000;stroke-width:0.8;" x="414.72" xlink:href="#mb4394e77eb" y="307.584"/>
      </g>
     </g>
     <g id="text_6">
      <!-- 1000 -->
      <defs>
       <path d="M 12.40625 8.296875 
L 28.515625 8.296875 
L 28.515625 63.921875 
L 10.984375 60.40625 
L 10.984375 69.390625 
L 28.421875 72.90625 
L 38.28125 72.90625 
L 38.28125 8.296875 
L 54.390625 8.296875 
L 54.390625 0 
L 12.40625 0 
z
" id="DejaVuSans-31"/>
      </defs>
      <g transform="translate(401.995 322.182437)scale(0.1 -0.1)">
       <use xlink:href="#DejaVuSans-31"/>
       <use x="63.623047" xlink:href="#DejaVuSans-30"/>
       <use x="127.246094" xlink:href="#DejaVuSans-30"/>
       <use x="190.869141" xlink:href="#DejaVuSans-30"/>
      </g>
     </g>
    </g>
    <g id="text_7">
     <!-- Number of clients -->
     <defs>
      <path d="M 9.8125 72.90625 
L 23.09375 72.90625 
L 55.421875 11.921875 
L 55.421875 72.90625 
L 64.984375 72.90625 
L 64.984375 0 
L 51.703125 0 
L 19.390625 60.984375 
L 19.390625 0 
L 9.8125 0 
z
" id="DejaVuSans-4e"/>
      <path d="M 8.5 21.578125 
L 8.5 54.6875 
L 17.484375 54.6875 
L 17.484375 21.921875 
Q 17.484375 14.15625 20.5 10.265625 
Q 23.53125 6.390625 29.59375 6.390625 
Q 36.859375 6.390625 41.078125 11.03125 
Q 45.3125 15.671875 45.3125 23.6875 
L 45.3125 54.6875 
L 54.296875 54.6875 
L 54.296875 0 
L 45.3125 0 
L 45.3125 8.40625 
Q 42.046875 3.421875 37.71875 1 
Q 33.40625 -1.421875 27.6875 -1.421875 
Q 18.265625 -1.421875 13.375 4.4375 
Q 8.5 10.296875 8.5 21.578125 
M 31.109375 56 
z
" id="DejaVuSans-75"/>
      <path d="M 52 44.1875 
Q 55.375 50.25 60.0625 53.125 
Q 64.75 56 71.09375 56 
Q 79.640625 56 84.28125 50.015625 
Q 88.921875 44.046875 88.921875 33.015625 
L 88.921875 0 
L 79.890625 0 
L 79.890625 32.71875 
Q 79.890625 40.578125 77.09375 44.375 
Q 74.3125 48.1875 68.609375 48.1875 
Q 61.625 48.1875 57.5625 43.546875 
Q 53.515625 38.921875 53.515625 30.90625 
L 53.515625 0 
L 44.484375 0 
L 44.484375 32.71875 
Q 44.484375 40.625 41.703125 44.40625 
Q 38.921875 48.1875 33.109375 48.1875 
Q 26.21875 48.1875 22.15625 43.53125 
Q 18.109375 38.875 18.109375 30.90625 
L 18.109375 0 
L 9.078125 0 
L 9.078125 54.6875 
L 18.109375 54.6875 
L 18.109375 46.1875 
Q 21.1875 51.21875 25.484375 53.609375 
Q 29.78125 56 35.6875 56 
Q 41.65625 56 45.828125 52.96875 
Q 50 49.953125 52 44.1875 
" id="DejaVuSans-6d"/>
      <path d="M 48.6875 27.296875 
Q 48.6875 37.203125 44.609375 42.84375 
Q 40.53125 48.484375 33.40625 48.484375 
Q 26.265625 48.484375 22.1875 42.84375 
Q 18.109375 37.203125 18.109375 27.296875 
Q 18.109375 17.390625 22.1875 11.75 
Q 26.265625 6.109375 33.40625 6.109375 
Q 40.53125 6.109375 44.609375 11.75 
Q 48.6875 17.390625 48.6875 27.296875 
M 18.109375 46.390625 
Q 20.953125 51.265625 25.265625 53.625 
Q 29.59375 56 35.59375 56 
Q 45.5625 56 51.78125 48.09375 
Q 58.015625 40.1875 58.015625 27.296875 
Q 58.015625 14.40625 51.78125 6.484375 
Q 45.5625 -1.421875 35.59375 -1.421875 
Q 29.59375 -1.421875 25.265625 0.953125 
Q 20.953125 3.328125 18.109375 8.203125 
L 18.109375 0 
L 9.078125 0 
L 9.078125 75.984375 
L 18.109375 75.984375 
z
" id="DejaVuSans-62"/>
      <path d="M 56.203125 29.59375 
L 56.203125 25.203125 
L 14.890625 25.203125 
Q 15.484375 15.921875 20.484375 11.0625 
Q 25.484375 6.203125 34.421875 6.203125 
Q 39.59375 6.203125 44.453125 7.46875 
Q 49.3125 8.734375 54.109375 11.28125 
L 54.109375 2.78125 
Q 49.265625 0.734375 44.1875 -0.34375 
Q 39.109375 -1.421875 33.890625 -1.421875 
Q 20.796875 -1.421875 13.15625 6.1875 
Q 5.515625 13.8125 5.515625 26.8125 
Q 5.515625 40.234375 12.765625 48.109375 
Q 20.015625 56 32.328125 56 
Q 43.359375 56 49.78125 48.890625 
Q 56.203125 41.796875 56.203125 29.59375 
M 47.21875 32.234375 
Q 47.125 39.59375 43.09375 43.984375 
Q 39.0625 48.390625 32.421875 48.390625 
Q 24.90625 48.390625 20.390625 44.140625 
Q 15.875 39.890625 15.1875 32.171875 
z
" id="DejaVuSans-65"/>
      <path d="M 41.109375 46.296875 
Q 39.59375 47.171875 37.8125 47.578125 
Q 36.03125 48 33.890625 48 
Q 26.265625 48 22.1875 43.046875 
Q 18.109375 38.09375 18.109375 28.8125 
L 18.109375 0 
L 9.078125 0 
L 9.078125 54.6875 
L 18.109375 54.6875 
L 18.109375 46.1875 
Q 20.953125 51.171875 25.484375 53.578125 
Q 30.03125 56 36.53125 56 
Q 37.453125 56 38.578125 55.875 
Q 39.703125 55.765625 41.0625 55.515625 
z
" id="DejaVuSans-72"/>
      <path id="DejaVuSans-20"/>
      <path d="M 30.609375 48.390625 
Q 23.390625 48.390625 19.1875 42.75 
Q 14.984375 37.109375 14.984375 27.296875 
Q 14.984375 17.484375 19.15625 11.84375 
Q 23.34375 6.203125 30.609375 6.203125 
Q 37.796875 6.203125 41.984375 11.859375 
Q 46.1875 17.53125 46.1875 27.296875 
Q 46.1875 37.015625 41.984375 42.703125 
Q 37.796875 48.390625 30.609375 48.390625 
M 30.609375 56 
Q 42.328125 56 49.015625 48.375 
Q 55.71875 40.765625 55.71875 27.296875 
Q 55.71875 13.875 49.015625 6.21875 
Q 42.328125 -1.421875 30.609375 -1.421875 
Q 18.84375 -1.421875 12.171875 6.21875 
Q 5.515625 13.875 5.515625 27.296875 
Q 5.515625 40.765625 12.171875 48.375 
Q 18.84375 56 30.609375 56 
" id="DejaVuSans-6f"/>
      <path d="M 37.109375 75.984375 
L 37.109375 68.5 
L 28.515625 68.5 
Q 23.6875 68.5 21.796875 66.546875 
Q 19.921875 64.59375 19.921875 59.515625 
L 19.921875 54.6875 
L 34.71875 54.6875 
L 34.71875 47.703125 
L 19.921875 47.703125 
L 19.921875 0 
L 10.890625 0 
L 10.890625 47.703125 
L 2.296875 47.703125 
L 2.296875 54.6875 
L 10.890625 54.6875 
L 10.890625 58.5 
Q 10.890625 67.625 15.140625 71.796875 
Q 19.390625 75.984375 28.609375 75.984375 
z
" id="DejaVuSans-66"/>
      <path d="M 48.78125 52.59375 
L 48.78125 44.1875 
Q 44.96875 46.296875 41.140625 47.34375 
Q 37.3125 48.390625 33.40625 48.390625 
Q 24.65625 48.390625 19.8125 42.84375 
Q 14.984375 37.3125 14.984375 27.296875 
Q 14.984375 17.28125 19.8125 11.734375 
Q 24.65625 6.203125 33.40625 6.203125 
Q 37.3125 6.203125 41.140625 7.25 
Q 44.96875 8.296875 48.78125 10.40625 
L 48.78125 2.09375 
Q 45.015625 0.34375 40.984375 -0.53125 
Q 36.96875 -1.421875 32.421875 -1.421875 
Q 20.0625 -1.421875 12.78125 6.34375 
Q 5.515625 14.109375 5.515625 27.296875 
Q 5.515625 40.671875 12.859375 48.328125 
Q 20.21875 56 33.015625 56 
Q 37.15625 56 41.109375 55.140625 
Q 45.0625 54.296875 48.78125 52.59375 
" id="DejaVuSans-63"/>
      <path d="M 9.421875 75.984375 
L 18.40625 75.984375 
L 18.40625 0 
L 9.421875 0 
z
" id="DejaVuSans-6c"/>
      <path d="M 9.421875 54.6875 
L 18.40625 54.6875 
L 18.40625 0 
L 9.421875 0 
z
M 9.421875 75.984375 
L 18.40625 75.984375 
L 18.40625 64.59375 
L 9.421875 64.59375 
z
" id="DejaVuSans-69"/>
      <path d="M 54.890625 33.015625 
L 54.890625 0 
L 45.90625 0 
L 45.90625 32.71875 
Q 45.90625 40.484375 42.875 44.328125 
Q 39.84375 48.1875 33.796875 48.1875 
Q 26.515625 48.1875 22.3125 43.546875 
Q 18.109375 38.921875 18.109375 30.90625 
L 18.109375 0 
L 9.078125 0 
L 9.078125 54.6875 
L 18.109375 54.6875 
L 18.109375 46.1875 
Q 21.34375 51.125 25.703125 53.5625 
Q 30.078125 56 35.796875 56 
Q 45.21875 56 50.046875 50.171875 
Q 54.890625 44.34375 54.890625 33.015625 
" id="DejaVuSans-6e"/>
      <path d="M 18.3125 70.21875 
L 18.3125 54.6875 
L 36.8125 54.6875 
L 36.8125 47.703125 
L 18.3125 47.703125 
L 18.3125 18.015625 
Q 18.3125 11.328125 20.140625 9.421875 
Q 21.96875 7.515625 27.59375 7.515625 
L 36.8125 7.515625 
L 36.8125 0 
L 27.59375 0 
Q 17.1875 0 13.234375 3.875 
Q 9.28125 7.765625 9.28125 18.015625 
L 9.28125 47.703125 
L 2.6875 47.703125 
L 2.6875 54.6875 
L 9.28125 54.6875 
L 9.28125 70.21875 
z
" id="DejaVuSans-74"/>
      <path d="M 44.28125 53.078125 
L 44.28125 44.578125 
Q 40.484375 46.53125 36.375 47.5 
Q 32.28125 48.484375 27.875 48.484375 
Q 21.1875 48.484375 17.84375 46.4375 
Q 14.5 44.390625 14.5 40.28125 
Q 14.5 37.15625 16.890625 35.375 
Q 19.28125 33.59375 26.515625 31.984375 
L 29.59375 31.296875 
Q 39.15625 29.25 43.1875 25.515625 
Q 47.21875 21.78125 47.21875 15.09375 
Q 47.21875 7.46875 41.1875 3.015625 
Q 35.15625 -1.421875 24.609375 -1.421875 
Q 20.21875 -1.421875 15.453125 -0.5625 
Q 10.6875 0.296875 5.421875 2 
L 5.421875 11.28125 
Q 10.40625 8.6875 15.234375 7.390625 
Q 20.0625 6.109375 24.8125 6.109375 
Q 31.15625 6.109375 34.5625 8.28125 
Q 37.984375 10.453125 37.984375 14.40625 
Q 37.984375 18.0625 35.515625 20.015625 
Q 33.0625 21.96875 24.703125 23.78125 
L 21.578125 24.515625 
Q 13.234375 26.265625 9.515625 29.90625 
Q 5.8125 33.546875 5.8125 39.890625 
Q 5.8125 47.609375 11.28125 51.796875 
Q 16.75 56 26.8125 56 
Q 31.78125 56 36.171875 55.265625 
Q 40.578125 54.546875 44.28125 53.078125 
" id="DejaVuSans-73"/>
     </defs>
     <g transform="translate(191.738906 335.860562)scale(0.1 -0.1)">
      <use xlink:href="#DejaVuSans-4e"/>
      <use x="74.804688" xlink:href="#DejaVuSans-75"/>
      <use x="138.183594" xlink:href="#DejaVuSans-6d"/>
      <use x="235.595703" xlink:href="#DejaVuSans-62"/>
      <use x="299.072266" xlink:href="#DejaVuSans-65"/>
      <use x="360.595703" xlink:href="#DejaVuSans-72"/>
      <use x="401.708984" xlink:href="#DejaVuSans-20"/>
      <use x="433.496094" xlink:href="#DejaVuSans-6f"/>
      <use x="494.677734" xlink:href="#DejaVuSans-66"/>
      <use x="529.882812" xlink:href="#DejaVuSans-20"/>
      <use x="561.669922" xlink:href="#DejaVuSans-63"/>
      <use x="616.650391" xlink:href="#DejaVuSans-6c"/>
      <use x="644.433594" xlink:href="#DejaVuSans-69"/>
      <use x="672.216797" xlink:href="#DejaVuSans-65"/>
      <use x="733.740234" xlink:href="#DejaVuSans-6e"/>
      <use x="797.119141" xlink:href="#DejaVuSans-74"/>
      <use x="836.328125" xlink:href="#DejaVuSans-73"/>
     </g>
    </g>
   </g>
   <g id="matplotlib.axis_2">
    <g id="ytick_1">
     <g id="line2d_13">
      <path clip-path="url(#p216db7454e)" d="M 57.6 295.849923 
L 414.72 295.849923 
" style="fill:none;stroke:#b0b0b0;stroke-linecap:square;stroke-width:0.8;"/>
     </g>
     <g id="line2d_14">
      <defs>
       <path d="M 0 0 
L -3.5 0 
" id="m08ede5c2ce" style="stroke:#000000;stroke-width:0.8;"/>
      </defs>
      <g>
       <use style="stroke:#000000;stroke-width:0.8;" x="57.6" xlink:href="#m08ede5c2ce" y="295.849923"/>
      </g>
     </g>
     <g id="text_8">
      <!-- 0 -->
      <g transform="translate(44.2375 299.649141)scale(0.1 -0.1)">
       <use xlink:href="#DejaVuSans-30"/>
      </g>
     </g>
    </g>
    <g id="ytick_2">
     <g id="line2d_15">
      <path clip-path="url(#p216db7454e)" d="M 57.6 258.881312 
L 414.72 258.881312 
" style="fill:none;stroke:#b0b0b0;stroke-linecap:square;stroke-width:0.8;"/>
     </g>
     <g id="line2d_16">
      <g>
       <use style="stroke:#000000;stroke-width:0.8;" x="57.6" xlink:href="#m08ede5c2ce" y="258.881312"/>
      </g>
     </g>
     <g id="text_9">
      <!-- 100 -->
      <g transform="translate(31.5125 262.680531)scale(0.1 -0.1)">
       <use xlink:href="#DejaVuSans-31"/>
       <use x="63.623047" xlink:href="#DejaVuSans-30"/>
       <use x="127.246094" xlink:href="#DejaVuSans-30"/>
      </g>
     </g>
    </g>
    <g id="ytick_3">
     <g id="line2d_17">
      <path clip-path="url(#p216db7454e)" d="M 57.6 221.912701 
L 414.72 221.912701 
" style="fill:none;stroke:#b0b0b0;stroke-linecap:square;stroke-width:0.8;"/>
     </g>
     <g id="line2d_18">
      <g>
       <use style="stroke:#000000;stroke-width:0.8;" x="57.6" xlink:href="#m08ede5c2ce" y="221.912701"/>
      </g>
     </g>
     <g id="text_10">
      <!-- 200 -->
      <g transform="translate(31.5125 225.71192)scale(0.1 -0.1)">
       <use xlink:href="#DejaVuSans-32"/>
       <use x="63.623047" xlink:href="#DejaVuSans-30"/>
       <use x="127.246094" xlink:href="#DejaVuSans-30"/>
      </g>
     </g>
    </g>
    <g id="ytick_4">
     <g id="line2d_19">
      <path clip-path="url(#p216db7454e)" d="M 57.6 184.944091 
L 414.72 184.944091 
" style="fill:none;stroke:#b0b0b0;stroke-linecap:square;stroke-width:0.8;"/>
     </g>
     <g id="line2d_20">
      <g>
       <use style="stroke:#000000;stroke-width:0.8;" x="57.6" xlink:href="#m08ede5c2ce" y="184.944091"/>
      </g>
     </g>
     <g id="text_11">
      <!-- 300 -->
      <defs>
       <path d="M 40.578125 39.3125 
Q 47.65625 37.796875 51.625 33 
Q 55.609375 28.21875 55.609375 21.1875 
Q 55.609375 10.40625 48.1875 4.484375 
Q 40.765625 -1.421875 27.09375 -1.421875 
Q 22.515625 -1.421875 17.65625 -0.515625 
Q 12.796875 0.390625 7.625 2.203125 
L 7.625 11.71875 
Q 11.71875 9.328125 16.59375 8.109375 
Q 21.484375 6.890625 26.8125 6.890625 
Q 36.078125 6.890625 40.9375 10.546875 
Q 45.796875 14.203125 45.796875 21.1875 
Q 45.796875 27.640625 41.28125 31.265625 
Q 36.765625 34.90625 28.71875 34.90625 
L 20.21875 34.90625 
L 20.21875 43.015625 
L 29.109375 43.015625 
Q 36.375 43.015625 40.234375 45.921875 
Q 44.09375 48.828125 44.09375 54.296875 
Q 44.09375 59.90625 40.109375 62.90625 
Q 36.140625 65.921875 28.71875 65.921875 
Q 24.65625 65.921875 20.015625 65.03125 
Q 15.375 64.15625 9.8125 62.3125 
L 9.8125 71.09375 
Q 15.4375 72.65625 20.34375 73.4375 
Q 25.25 74.21875 29.59375 74.21875 
Q 40.828125 74.21875 47.359375 69.109375 
Q 53.90625 64.015625 53.90625 55.328125 
Q 53.90625 49.265625 50.4375 45.09375 
Q 46.96875 40.921875 40.578125 39.3125 
" id="DejaVuSans-33"/>
      </defs>
      <g transform="translate(31.5125 188.74331)scale(0.1 -0.1)">
       <use xlink:href="#DejaVuSans-33"/>
       <use x="63.623047" xlink:href="#DejaVuSans-30"/>
       <use x="127.246094" xlink:href="#DejaVuSans-30"/>
      </g>
     </g>
    </g>
    <g id="ytick_5">
     <g id="line2d_21">
      <path clip-path="url(#p216db7454e)" d="M 57.6 147.97548 
L 414.72 147.97548 
" style="fill:none;stroke:#b0b0b0;stroke-linecap:square;stroke-width:0.8;"/>
     </g>
     <g id="line2d_22">
      <g>
       <use style="stroke:#000000;stroke-width:0.8;" x="57.6" xlink:href="#m08ede5c2ce" y="147.97548"/>
      </g>
     </g>
     <g id="text_12">
      <!-- 400 -->
      <g transform="translate(31.5125 151.774699)scale(0.1 -0.1)">
       <use xlink:href="#DejaVuSans-34"/>
       <use x="63.623047" xlink:href="#DejaVuSans-30"/>
       <use x="127.246094" xlink:href="#DejaVuSans-30"/>
      </g>
     </g>
    </g>
    <g id="ytick_6">
     <g id="line2d_23">
      <path clip-path="url(#p216db7454e)" d="M 57.6 111.00687 
L 414.72 111.00687 
" style="fill:none;stroke:#b0b0b0;stroke-linecap:square;stroke-width:0.8;"/>
     </g>
     <g id="line2d_24">
      <g>
       <use style="stroke:#000000;stroke-width:0.8;" x="57.6" xlink:href="#m08ede5c2ce" y="111.00687"/>
      </g>
     </g>
     <g id="text_13">
      <!-- 500 -->
      <defs>
       <path d="M 10.796875 72.90625 
L 49.515625 72.90625 
L 49.515625 64.59375 
L 19.828125 64.59375 
L 19.828125 46.734375 
Q 21.96875 47.46875 24.109375 47.828125 
Q 26.265625 48.1875 28.421875 48.1875 
Q 40.625 48.1875 47.75 41.5 
Q 54.890625 34.8125 54.890625 23.390625 
Q 54.890625 11.625 47.5625 5.09375 
Q 40.234375 -1.421875 26.90625 -1.421875 
Q 22.3125 -1.421875 17.546875 -0.640625 
Q 12.796875 0.140625 7.71875 1.703125 
L 7.71875 11.625 
Q 12.109375 9.234375 16.796875 8.0625 
Q 21.484375 6.890625 26.703125 6.890625 
Q 35.15625 6.890625 40.078125 11.328125 
Q 45.015625 15.765625 45.015625 23.390625 
Q 45.015625 31 40.078125 35.4375 
Q 35.15625 39.890625 26.703125 39.890625 
Q 22.75 39.890625 18.8125 39.015625 
Q 14.890625 38.140625 10.796875 36.28125 
z
" id="DejaVuSans-35"/>
      </defs>
      <g transform="translate(31.5125 114.806088)scale(0.1 -0.1)">
       <use xlink:href="#DejaVuSans-35"/>
       <use x="63.623047" xlink:href="#DejaVuSans-30"/>
       <use x="127.246094" xlink:href="#DejaVuSans-30"/>
      </g>
     </g>
    </g>
    <g id="ytick_7">
     <g id="line2d_25">
      <path clip-path="url(#p216db7454e)" d="M 57.6 74.038259 
L 414.72 74.038259 
" style="fill:none;stroke:#b0b0b0;stroke-linecap:square;stroke-width:0.8;"/>
     </g>
     <g id="line2d_26">
      <g>
       <use style="stroke:#000000;stroke-width:0.8;" x="57.6" xlink:href="#m08ede5c2ce" y="74.038259"/>
      </g>
     </g>
     <g id="text_14">
      <!-- 600 -->
      <g transform="translate(31.5125 77.837478)scale(0.1 -0.1)">
       <use xlink:href="#DejaVuSans-36"/>
       <use x="63.623047" xlink:href="#DejaVuSans-30"/>
       <use x="127.246094" xlink:href="#DejaVuSans-30"/>
      </g>
     </g>
    </g>
    <g id="text_15">
     <!-- Successful download requests per second -->
     <defs>
      <path d="M 53.515625 70.515625 
L 53.515625 60.890625 
Q 47.90625 63.578125 42.921875 64.890625 
Q 37.9375 66.21875 33.296875 66.21875 
Q 25.25 66.21875 20.875 63.09375 
Q 16.5 59.96875 16.5 54.203125 
Q 16.5 49.359375 19.40625 46.890625 
Q 22.3125 44.4375 30.421875 42.921875 
L 36.375 41.703125 
Q 47.40625 39.59375 52.65625 34.296875 
Q 57.90625 29 57.90625 20.125 
Q 57.90625 9.515625 50.796875 4.046875 
Q 43.703125 -1.421875 29.984375 -1.421875 
Q 24.8125 -1.421875 18.96875 -0.25 
Q 13.140625 0.921875 6.890625 3.21875 
L 6.890625 13.375 
Q 12.890625 10.015625 18.65625 8.296875 
Q 24.421875 6.59375 29.984375 6.59375 
Q 38.421875 6.59375 43.015625 9.90625 
Q 47.609375 13.234375 47.609375 19.390625 
Q 47.609375 24.75 44.3125 27.78125 
Q 41.015625 30.8125 33.5 32.328125 
L 27.484375 33.5 
Q 16.453125 35.6875 11.515625 40.375 
Q 6.59375 45.0625 6.59375 53.421875 
Q 6.59375 63.09375 13.40625 68.65625 
Q 20.21875 74.21875 32.171875 74.21875 
Q 37.3125 74.21875 42.625 73.28125 
Q 47.953125 72.359375 53.515625 70.515625 
" id="DejaVuSans-53"/>
      <path d="M 45.40625 46.390625 
L 45.40625 75.984375 
L 54.390625 75.984375 
L 54.390625 0 
L 45.40625 0 
L 45.40625 8.203125 
Q 42.578125 3.328125 38.25 0.953125 
Q 33.9375 -1.421875 27.875 -1.421875 
Q 17.96875 -1.421875 11.734375 6.484375 
Q 5.515625 14.40625 5.515625 27.296875 
Q 5.515625 40.1875 11.734375 48.09375 
Q 17.96875 56 27.875 56 
Q 33.9375 56 38.25 53.625 
Q 42.578125 51.265625 45.40625 46.390625 
M 14.796875 27.296875 
Q 14.796875 17.390625 18.875 11.75 
Q 22.953125 6.109375 30.078125 6.109375 
Q 37.203125 6.109375 41.296875 11.75 
Q 45.40625 17.390625 45.40625 27.296875 
Q 45.40625 37.203125 41.296875 42.84375 
Q 37.203125 48.484375 30.078125 48.484375 
Q 22.953125 48.484375 18.875 42.84375 
Q 14.796875 37.203125 14.796875 27.296875 
" id="DejaVuSans-64"/>
      <path d="M 4.203125 54.6875 
L 13.1875 54.6875 
L 24.421875 12.015625 
L 35.59375 54.6875 
L 46.1875 54.6875 
L 57.421875 12.015625 
L 68.609375 54.6875 
L 77.59375 54.6875 
L 63.28125 0 
L 52.6875 0 
L 40.921875 44.828125 
L 29.109375 0 
L 18.5 0 
z
" id="DejaVuSans-77"/>
      <path d="M 34.28125 27.484375 
Q 23.390625 27.484375 19.1875 25 
Q 14.984375 22.515625 14.984375 16.5 
Q 14.984375 11.71875 18.140625 8.90625 
Q 21.296875 6.109375 26.703125 6.109375 
Q 34.1875 6.109375 38.703125 11.40625 
Q 43.21875 16.703125 43.21875 25.484375 
L 43.21875 27.484375 
z
M 52.203125 31.203125 
L 52.203125 0 
L 43.21875 0 
L 43.21875 8.296875 
Q 40.140625 3.328125 35.546875 0.953125 
Q 30.953125 -1.421875 24.3125 -1.421875 
Q 15.921875 -1.421875 10.953125 3.296875 
Q 6 8.015625 6 15.921875 
Q 6 25.140625 12.171875 29.828125 
Q 18.359375 34.515625 30.609375 34.515625 
L 43.21875 34.515625 
L 43.21875 35.40625 
Q 43.21875 41.609375 39.140625 45 
Q 35.0625 48.390625 27.6875 48.390625 
Q 23 48.390625 18.546875 47.265625 
Q 14.109375 46.140625 10.015625 43.890625 
L 10.015625 52.203125 
Q 14.9375 54.109375 19.578125 55.046875 
Q 24.21875 56 28.609375 56 
Q 40.484375 56 46.34375 49.84375 
Q 52.203125 43.703125 52.203125 31.203125 
" id="DejaVuSans-61"/>
      <path d="M 14.796875 27.296875 
Q 14.796875 17.390625 18.875 11.75 
Q 22.953125 6.109375 30.078125 6.109375 
Q 37.203125 6.109375 41.296875 11.75 
Q 45.40625 17.390625 45.40625 27.296875 
Q 45.40625 37.203125 41.296875 42.84375 
Q 37.203125 48.484375 30.078125 48.484375 
Q 22.953125 48.484375 18.875 42.84375 
Q 14.796875 37.203125 14.796875 27.296875 
M 45.40625 8.203125 
Q 42.578125 3.328125 38.25 0.953125 
Q 33.9375 -1.421875 27.875 -1.421875 
Q 17.96875 -1.421875 11.734375 6.484375 
Q 5.515625 14.40625 5.515625 27.296875 
Q 5.515625 40.1875 11.734375 48.09375 
Q 17.96875 56 27.875 56 
Q 33.9375 56 38.25 53.625 
Q 42.578125 51.265625 45.40625 46.390625 
L 45.40625 54.6875 
L 54.390625 54.6875 
L 54.390625 -20.796875 
L 45.40625 -20.796875 
z
" id="DejaVuSans-71"/>
      <path d="M 18.109375 8.203125 
L 18.109375 -20.796875 
L 9.078125 -20.796875 
L 9.078125 54.6875 
L 18.109375 54.6875 
L 18.109375 46.390625 
Q 20.953125 51.265625 25.265625 53.625 
Q 29.59375 56 35.59375 56 
Q 45.5625 56 51.78125 48.09375 
Q 58.015625 40.1875 58.015625 27.296875 
Q 58.015625 14.40625 51.78125 6.484375 
Q 45.5625 -1.421875 35.59375 -1.421875 
Q 29.59375 -1.421875 25.265625 0.953125 
Q 20.953125 3.328125 18.109375 8.203125 
M 48.6875 27.296875 
Q 48.6875 37.203125 44.609375 42.84375 
Q 40.53125 48.484375 33.40625 48.484375 
Q 26.265625 48.484375 22.1875 42.84375 
Q 18.109375 37.203125 18.109375 27.296875 
Q 18.109375 17.390625 22.1875 11.75 
Q 26.265625 6.109375 33.40625 6.109375 
Q 40.53125 6.109375 44.609375 11.75 
Q 48.6875 17.390625 48.6875 27.296875 
" id="DejaVuSans-70"/>
     </defs>
     <g transform="translate(25.432812 279.366281)rotate(-90)scale(0.1 -0.1)">
      <use xlink:href="#DejaVuSans-53"/>
      <use x="63.476562" xlink:href="#DejaVuSans-75"/>
      <use x="126.855469" xlink:href="#DejaVuSans-63"/>
      <use x="181.835938" xlink:href="#DejaVuSans-63"/>
      <use x="236.816406" xlink:href="#DejaVuSans-65"/>
      <use x="298.339844" xlink:href="#DejaVuSans-73"/>
      <use x="350.439453" xlink:href="#DejaVuSans-73"/>
      <use x="402.539062" xlink:href="#DejaVuSans-66"/>
      <use x="437.744141" xlink:href="#DejaVuSans-75"/>
      <use x="501.123047" xlink:href="#DejaVuSans-6c"/>
      <use x="528.90625" xlink:href="#DejaVuSans-20"/>
      <use x="560.693359" xlink:href="#DejaVuSans-64"/>
      <use x="624.169922" xlink:href="#DejaVuSans-6f"/>
      <use x="685.351562" xlink:href="#DejaVuSans-77"/>
      <use x="767.138672" xlink:href="#DejaVuSans-6e"/>
      <use x="830.517578" xlink:href="#DejaVuSans-6c"/>
      <use x="858.300781" xlink:href="#DejaVuSans-6f"/>
      <use x="919.482422" xlink:href="#DejaVuSans-61"/>
      <use x="980.761719" xlink:href="#DejaVuSans-64"/>
      <use x="1044.238281" xlink:href="#DejaVuSans-20"/>
      <use x="1076.025391" xlink:href="#DejaVuSans-72"/>
      <use x="1117.107422" xlink:href="#DejaVuSans-65"/>
      <use x="1178.630859" xlink:href="#DejaVuSans-71"/>
      <use x="1242.107422" xlink:href="#DejaVuSans-75"/>
      <use x="1305.486328" xlink:href="#DejaVuSans-65"/>
      <use x="1367.009766" xlink:href="#DejaVuSans-73"/>
      <use x="1419.109375" xlink:href="#DejaVuSans-74"/>
      <use x="1458.318359" xlink:href="#DejaVuSans-73"/>
      <use x="1510.417969" xlink:href="#DejaVuSans-20"/>
      <use x="1542.205078" xlink:href="#DejaVuSans-70"/>
      <use x="1605.681641" xlink:href="#DejaVuSans-65"/>
      <use x="1667.205078" xlink:href="#DejaVuSans-72"/>
      <use x="1708.318359" xlink:href="#DejaVuSans-20"/>
      <use x="1740.105469" xlink:href="#DejaVuSans-73"/>
      <use x="1792.205078" xlink:href="#DejaVuSans-65"/>
      <use x="1853.728516" xlink:href="#DejaVuSans-63"/>
      <use x="1908.708984" xlink:href="#DejaVuSans-6f"/>
      <use x="1969.890625" xlink:href="#DejaVuSans-6e"/>
      <use x="2033.269531" xlink:href="#DejaVuSans-64"/>
     </g>
    </g>
   </g>
   <g id="line2d_27">
    <path clip-path="url(#p216db7454e)" d="M 57.6 295.482824 
L 57.95712 295.488 
L 60.45696 293.084671 
L 60.81408 292.605188 
L 61.1712 292.344929 
L 61.88544 291.461749 
L 62.24256 291.286148 
L 62.59968 290.839567 
L 62.9568 290.621822 
L 63.31392 290.245112 
L 63.67104 289.59927 
L 64.38528 289.243262 
L 64.7424 288.532726 
L 65.09952 288.210359 
L 65.45664 288.285036 
L 66.17088 287.230321 
L 67.24224 286.055089 
L 67.59936 285.763037 
L 67.95648 285.856938 
L 68.67072 284.907953 
L 69.02784 284.274311 
L 69.74208 283.894644 
L 70.45632 282.646583 
L 70.81344 283.065807 
L 71.17056 282.678007 
L 71.52768 281.491684 
L 71.8848 281.69686 
L 72.24192 280.797783 
L 72.59904 281.034013 
L 72.95616 280.061368 
L 73.31328 280.697229 
L 73.6704 280.072459 
L 74.02752 279.819224 
L 74.74176 278.452864 
L 75.09888 278.405914 
L 75.81312 278.099444 
L 76.17024 277.16192 
L 76.52736 277.023288 
L 76.88448 276.732345 
L 77.2416 276.762659 
L 77.59872 276.051753 
L 78.31296 275.852122 
L 78.67008 274.642879 
L 79.0272 273.839551 
L 79.38432 274.11201 
L 79.74144 273.160438 
L 80.09856 272.74565 
L 80.45568 273.446945 
L 80.8128 272.66321 
L 81.16992 272.398515 
L 81.52704 271.347867 
L 81.88416 271.223283 
L 82.24128 270.905722 
L 82.5984 270.308679 
L 82.95552 270.127533 
L 83.31264 270.760436 
L 83.66976 270.409973 
L 84.02688 268.761173 
L 84.384 269.34232 
L 84.74112 269.645832 
L 85.09824 267.985942 
L 85.45536 267.908677 
L 85.81248 268.566349 
L 86.1696 266.277252 
L 86.52672 266.043611 
L 86.88384 267.411449 
L 87.59808 266.40923 
L 87.9552 265.994812 
L 88.31232 265.272076 
L 88.66944 265.771891 
L 89.38368 264.493147 
L 89.7408 262.734181 
L 90.09792 262.983349 
L 90.45504 263.805161 
L 90.81216 263.85396 
L 91.16928 262.437323 
L 91.5264 263.001464 
L 91.88352 260.608486 
L 92.24064 260.028078 
L 92.59776 260.569299 
L 92.95488 259.438059 
L 93.312 261.326786 
L 93.66912 259.617357 
L 94.02624 260.683902 
L 94.38336 258.833253 
L 94.74048 259.943051 
L 95.0976 257.051736 
L 95.45472 257.442124 
L 95.81184 256.85839 
L 96.16896 258.324565 
L 96.52608 258.04767 
L 96.8832 256.482419 
L 97.24032 256.744896 
L 97.59744 257.30571 
L 97.95456 255.376688 
L 98.31168 254.4314 
L 98.6688 254.350809 
L 99.02592 254.641382 
L 99.38304 252.817721 
L 99.74016 253.53713 
L 100.4544 254.300901 
L 100.81152 251.637683 
L 101.16864 252.885743 
L 101.52576 251.950807 
L 101.88288 252.152286 
L 102.59712 251.437682 
L 102.95424 250.700898 
L 103.31136 250.39184 
L 103.66848 249.682782 
L 104.0256 249.762265 
L 104.38272 248.234722 
L 104.73984 249.02585 
L 105.09696 249.053207 
L 105.8112 246.190358 
L 106.16832 248.817347 
L 106.52544 246.27021 
L 106.88256 247.122336 
L 107.23968 244.506807 
L 107.5968 245.970395 
L 107.95392 244.030652 
L 108.66816 245.005144 
L 109.02528 246.319378 
L 109.3824 242.459486 
L 109.73952 244.8569 
L 110.09664 243.743036 
L 110.45376 244.721225 
L 110.81088 241.152276 
L 111.168 242.671685 
L 111.52512 241.457636 
L 111.88224 243.012906 
L 112.23936 242.380373 
L 112.59648 239.866877 
L 112.9536 239.771868 
L 113.31072 240.548578 
L 113.66784 240.133051 
L 114.02496 238.114195 
L 114.38208 239.629169 
L 114.7392 237.544878 
L 115.09632 238.680185 
L 115.45344 238.170018 
L 115.81056 236.74266 
L 116.16768 239.138595 
L 116.5248 235.180366 
L 116.88192 237.729722 
L 117.23904 237.111606 
L 117.59616 234.529719 
L 117.95328 234.982214 
L 118.3104 234.44617 
L 118.66752 234.66909 
L 119.02464 233.127499 
L 119.38176 233.483507 
L 119.73888 233.393304 
L 120.096 233.13822 
L 120.45312 230.930824 
L 120.81024 231.423246 
L 121.16736 234.481659 
L 121.52448 230.102358 
L 121.8816 232.706796 
L 122.23872 229.278697 
L 122.59584 231.61918 
L 123.31008 230.351157 
L 123.6672 232.111232 
L 124.38144 228.547828 
L 124.73856 228.975924 
L 125.09568 227.842836 
L 125.4528 230.015112 
L 125.80992 227.093483 
L 126.16704 229.391451 
L 126.52416 224.994775 
L 126.88128 225.923056 
L 127.2384 228.433964 
L 127.59552 225.070191 
L 127.95264 227.314185 
L 128.30976 227.519731 
L 128.66688 223.497546 
L 129.38112 221.548191 
L 129.73824 226.16557 
L 130.09536 221.670557 
L 130.45248 224.345606 
L 130.8096 224.663536 
L 131.52384 223.942278 
L 132.23808 220.829891 
L 132.5952 221.416583 
L 132.95232 222.847638 
L 133.30944 221.168523 
L 133.66656 217.834324 
L 134.02368 218.968891 
L 134.3808 216.623233 
L 134.73792 217.562975 
L 135.09504 216.116763 
L 135.45216 217.605119 
L 135.80928 220.317876 
L 136.1664 216.09606 
L 136.52352 217.649481 
L 136.88064 213.90604 
L 137.23776 217.218797 
L 137.59488 217.909371 
L 137.952 217.817688 
L 138.30912 214.172214 
L 138.66624 211.948922 
L 139.02336 214.676835 
L 139.38048 214.385892 
L 139.7376 212.839865 
L 140.09472 215.521568 
L 140.45184 210.316757 
L 140.80896 210.979235 
L 141.16608 209.906406 
L 141.5232 213.771844 
L 141.88032 212.237646 
L 142.23744 212.202526 
L 142.59456 211.048736 
L 142.95168 213.487925 
L 143.3088 212.839126 
L 143.66592 209.917496 
L 144.02304 208.17073 
L 144.73728 210.811397 
L 145.0944 207.755942 
L 145.45152 208.255757 
L 145.80864 206.269804 
L 146.16576 207.556311 
L 146.52288 204.158896 
L 146.88 209.509733 
L 147.23712 208.086071 
L 147.59424 205.995127 
L 147.95136 204.708989 
L 148.30848 205.643555 
L 148.6656 204.411022 
L 149.02272 205.092353 
L 149.37984 201.658709 
L 149.73696 205.792169 
L 150.09408 203.056862 
L 150.4512 203.97701 
L 150.80832 205.386623 
L 151.16544 203.880522 
L 151.52256 204.284959 
L 151.87968 199.762589 
L 152.2368 201.298265 
L 152.59392 200.23246 
L 152.95104 200.570723 
L 153.30816 202.731538 
L 153.66528 198.903438 
L 154.0224 202.323035 
L 154.37952 202.460558 
L 154.73664 201.771093 
L 155.09376 200.803625 
L 155.45088 195.846504 
L 155.808 199.566285 
L 156.16512 194.752233 
L 156.52224 194.722658 
L 156.87936 200.105657 
L 157.23648 197.436524 
L 157.5936 198.373678 
L 158.30784 192.722287 
L 158.66496 191.734116 
L 159.02208 193.717851 
L 159.3792 194.228757 
L 159.73632 192.947056 
L 160.45056 189.395112 
L 160.80768 191.082359 
L 161.1648 189.496406 
L 161.52192 189.942986 
L 161.87904 191.369975 
L 162.23616 189.723023 
L 162.59328 193.864986 
L 162.9504 194.372935 
L 163.30752 193.416187 
L 163.66464 190.972193 
L 164.02176 193.387352 
L 164.37888 188.022097 
L 164.736 189.159622 
L 165.09312 189.73855 
L 165.45024 191.699365 
L 165.80736 191.605465 
L 166.16448 184.134109 
L 166.5216 188.731155 
L 166.87872 185.608417 
L 167.59296 188.721544 
L 167.95008 189.165537 
L 168.66432 188.587717 
L 169.02144 181.307119 
L 169.37856 187.282356 
L 169.73568 183.506382 
L 170.0928 184.330412 
L 170.44992 179.307117 
L 170.80704 183.540393 
L 171.16416 186.436514 
L 171.52128 179.100463 
L 171.8784 184.738176 
L 172.59264 178.477542 
L 172.94976 182.551482 
L 173.30688 180.775141 
L 173.664 180.386601 
L 174.02112 181.195474 
L 174.37824 182.358506 
L 174.73536 177.504158 
L 175.09248 179.008041 
L 175.4496 177.508594 
L 175.80672 177.509703 
L 176.16384 175.889369 
L 176.52096 177.570332 
L 176.87808 174.025781 
L 177.2352 180.518209 
L 177.59232 178.835028 
L 177.94944 173.742602 
L 178.30656 176.817651 
L 179.0208 172.092323 
L 179.37792 178.12597 
L 179.73504 177.736691 
L 180.09216 170.53003 
L 180.44928 169.505629 
L 180.8064 171.397313 
L 181.16352 172.478275 
L 181.52064 168.403965 
L 181.87776 167.235017 
L 182.23488 174.063489 
L 182.592 172.184005 
L 183.30624 165.775127 
L 183.66336 171.078274 
L 184.02048 168.553688 
L 184.3776 164.84093 
L 184.73472 168.866442 
L 185.09184 165.581042 
L 185.44896 170.357756 
L 185.80608 164.256826 
L 186.1632 166.787327 
L 186.52032 168.017273 
L 186.87744 164.937049 
L 187.23456 163.354053 
L 187.59168 169.950362 
L 187.9488 169.897127 
L 188.30592 167.193612 
L 188.66304 161.808765 
L 189.02016 159.929281 
L 189.37728 163.026141 
L 189.7344 163.020596 
L 190.09152 167.970693 
L 190.44864 167.80877 
L 190.80576 165.138527 
L 191.16288 163.762186 
L 191.52 157.906728 
L 191.87712 160.642775 
L 192.23424 156.809869 
L 192.59136 159.972534 
L 192.94848 157.043141 
L 193.3056 156.136301 
L 193.66272 160.254604 
L 194.01984 155.826134 
L 194.37696 162.466806 
L 194.73408 157.427984 
L 195.0912 160.006545 
L 195.80544 152.821326 
L 196.16256 161.026509 
L 196.51968 157.3973 
L 196.8768 156.183621 
L 197.23392 160.348505 
L 197.59104 158.419482 
L 197.94816 157.671977 
L 198.30528 158.962182 
L 198.6624 153.871604 
L 199.01952 154.198776 
L 199.37664 155.002104 
L 199.73376 157.582513 
L 200.09088 149.728901 
L 200.448 152.819847 
L 200.80512 152.493414 
L 201.16224 147.954038 
L 201.51936 154.698592 
L 201.87648 148.483059 
L 202.2336 152.960328 
L 202.59072 153.983989 
L 202.94784 154.424285 
L 203.30496 146.115959 
L 203.66208 150.406166 
L 204.0192 150.739993 
L 204.37632 150.077885 
L 204.73344 146.588418 
L 205.09056 151.81578 
L 205.44768 144.128527 
L 205.8048 150.624281 
L 206.16192 142.52335 
L 206.51904 145.230191 
L 206.87616 145.669748 
L 207.23328 145.635737 
L 207.5904 143.625014 
L 207.94752 142.772148 
L 208.30464 147.017254 
L 208.66176 144.913001 
L 209.01888 148.82428 
L 209.73312 142.541834 
L 210.09024 143.828342 
L 210.44736 138.543679 
L 210.80448 144.73703 
L 211.1616 137.34109 
L 211.51872 143.374737 
L 211.87584 136.682309 
L 212.23296 145.412447 
L 212.59008 137.708558 
L 212.9472 143.231668 
L 213.30432 144.731115 
L 213.66144 138.832034 
L 214.01856 135.366966 
L 214.37568 142.509671 
L 214.7328 139.325195 
L 215.08992 143.614293 
L 215.44704 139.631665 
L 215.80416 137.249408 
L 216.16128 133.386927 
L 216.5184 140.736287 
L 217.23264 131.363635 
L 217.58976 140.478985 
L 217.94688 130.720751 
L 218.304 140.659023 
L 218.66112 133.217981 
L 219.37536 137.080461 
L 219.73248 130.479716 
L 220.0896 132.081566 
L 220.44672 138.28268 
L 220.80384 137.310406 
L 221.16096 129.070102 
L 221.51808 136.212808 
L 221.8752 136.817245 
L 222.23232 128.979529 
L 222.58944 130.183967 
L 222.94656 134.593952 
L 223.30368 127.689695 
L 223.6608 124.980635 
L 224.01792 130.823893 
L 224.37504 131.327776 
L 224.73216 123.224256 
L 225.08928 123.63239 
L 225.4464 126.938123 
L 225.80352 124.982114 
L 226.16064 132.216871 
L 226.51776 130.964374 
L 226.87488 132.749958 
L 227.232 124.428324 
L 227.58912 131.03942 
L 227.94624 120.447913 
L 228.30336 130.235723 
L 228.66048 129.740343 
L 229.0176 130.287849 
L 229.37472 125.559563 
L 229.73184 127.716682 
L 230.08896 124.211318 
L 230.44608 118.966951 
L 230.8032 126.179527 
L 231.16032 118.130351 
L 231.51744 121.19357 
L 231.87456 128.992838 
L 232.23168 117.193197 
L 232.5888 126.959565 
L 232.94592 125.16289 
L 233.30304 117.524066 
L 233.66016 119.638301 
L 234.01728 117.768798 
L 234.3744 121.739227 
L 234.73152 116.491533 
L 235.08864 127.091542 
L 235.80288 125.413537 
L 236.16 117.280813 
L 236.51712 116.742919 
L 236.87424 122.197638 
L 237.23136 121.105955 
L 237.58848 122.170651 
L 237.9456 114.471568 
L 238.65984 126.078603 
L 239.01696 122.376566 
L 239.37408 120.937748 
L 239.7312 117.991349 
L 240.08832 122.651612 
L 240.44544 117.734048 
L 240.80256 118.245324 
L 241.15968 120.691537 
L 241.5168 115.671199 
L 241.87392 114.592825 
L 242.23104 120.368431 
L 242.58816 113.575818 
L 242.94528 115.361772 
L 243.3024 115.645691 
L 243.65952 123.594682 
L 244.01664 118.446803 
L 244.37376 116.077115 
L 244.73088 115.57656 
L 245.088 123.489691 
L 245.44512 117.135526 
L 245.80224 117.840148 
L 246.15936 119.906693 
L 246.51648 123.338489 
L 246.8736 112.058627 
L 247.58784 122.3481 
L 247.94496 115.112973 
L 248.30208 121.461593 
L 248.6592 114.4102 
L 249.01632 119.556231 
L 249.37344 112.296335 
L 249.73056 111.45345 
L 250.08768 121.396528 
L 250.4448 116.739222 
L 250.80192 114.248647 
L 251.15904 119.068245 
L 251.87328 116.391348 
L 252.58752 120.400963 
L 252.94464 119.430537 
L 253.30176 117.286358 
L 253.65888 119.528874 
L 254.016 108.727385 
L 254.37312 116.090423 
L 254.73024 111.34846 
L 255.08736 110.460474 
L 255.44448 111.173228 
L 255.8016 108.311488 
L 256.15872 112.179144 
L 256.51584 108.584686 
L 257.23008 114.905949 
L 257.5872 112.037555 
L 257.94432 110.376185 
L 258.30144 110.843468 
L 258.65856 111.01833 
L 259.01568 116.543289 
L 259.3728 108.967681 
L 259.72992 113.004284 
L 260.08704 109.439401 
L 260.80128 115.859739 
L 261.1584 109.636074 
L 261.51552 106.206865 
L 261.87264 105.322576 
L 262.22976 109.77027 
L 262.58688 110.232747 
L 262.944 106.619805 
L 263.30112 114.485986 
L 263.65824 114.172861 
L 264.01536 115.247909 
L 264.37248 112.519995 
L 264.7296 105.048269 
L 265.08672 102.99799 
L 265.44384 103.650486 
L 265.80096 107.999473 
L 266.15808 105.555109 
L 266.87232 112.595041 
L 267.22944 108.317403 
L 267.58656 110.527756 
L 267.94368 111.504467 
L 268.3008 108.578032 
L 268.65792 101.46712 
L 269.01504 102.658618 
L 269.37216 113.029422 
L 269.72928 103.682649 
L 270.0864 112.103728 
L 270.44352 104.137362 
L 270.80064 106.554001 
L 271.15776 109.754743 
L 271.51488 101.291149 
L 271.872 101.697064 
L 272.22912 110.00502 
L 272.58624 109.979512 
L 272.94336 108.25086 
L 273.30048 104.251965 
L 273.6576 102.819801 
L 274.01472 104.029414 
L 274.37184 105.833482 
L 274.72896 100.9954 
L 275.08608 100.220538 
L 275.80032 109.873782 
L 276.15744 102.412777 
L 276.51456 111.088201 
L 276.87168 102.745864 
L 277.2288 107.139214 
L 277.58592 108.15585 
L 277.94304 108.383577 
L 278.30016 103.321465 
L 278.65728 111.119624 
L 279.0144 103.341428 
L 279.37152 110.914448 
L 279.72864 108.626091 
L 280.08576 107.282652 
L 280.44288 99.244197 
L 280.8 98.925158 
L 281.15712 97.92183 
L 281.87136 108.762505 
L 282.22848 96.62682 
L 282.5856 107.592449 
L 283.29984 97.670813 
L 283.65696 100.396509 
L 284.01408 98.212034 
L 284.3712 107.419805 
L 284.72832 107.641987 
L 285.44256 104.990228 
L 285.79968 103.929969 
L 286.1568 107.535517 
L 286.51392 99.858985 
L 286.87104 97.523678 
L 287.22816 99.465639 
L 287.58528 97.86231 
L 287.9424 104.688564 
L 288.29952 104.318878 
L 288.65664 94.571365 
L 289.01376 102.175438 
L 289.37088 98.740315 
L 289.728 97.586155 
L 290.08512 101.316657 
L 290.44224 100.746232 
L 290.79936 97.771368 
L 291.15648 101.837915 
L 291.87072 94.48264 
L 292.22784 97.372476 
L 292.58496 96.741422 
L 292.94208 98.552145 
L 293.2992 103.408711 
L 293.65632 97.791331 
L 294.01344 99.592811 
L 294.37056 96.958428 
L 294.72768 99.908153 
L 295.0848 100.023495 
L 295.44192 100.397618 
L 295.79904 101.763238 
L 296.15616 97.09743 
L 296.51328 104.054553 
L 296.8704 101.024605 
L 297.22752 102.970633 
L 297.58464 96.869334 
L 297.94176 102.591705 
L 298.29888 102.956955 
L 298.656 90.7843 
L 299.37024 92.066741 
L 299.72736 96.114065 
L 300.08448 91.386149 
L 300.4416 102.836067 
L 300.79872 99.222016 
L 301.15584 92.284487 
L 301.87008 102.31481 
L 302.2272 93.784303 
L 302.58432 89.645667 
L 302.94144 94.139202 
L 303.29856 101.621279 
L 303.65568 92.603526 
L 304.0128 100.444198 
L 304.36992 100.64235 
L 304.72704 91.068219 
L 305.08416 101.083386 
L 305.44128 88.051581 
L 305.7984 99.627192 
L 306.15552 99.563236 
L 306.51264 100.597248 
L 306.86976 88.748809 
L 307.22688 95.81314 
L 307.584 99.441979 
L 307.94112 87.175425 
L 308.29824 97.14438 
L 308.65536 90.515908 
L 309.01248 97.281534 
L 309.3696 89.528107 
L 309.72672 92.976909 
L 310.44096 85.495201 
L 310.79808 89.169881 
L 311.1552 96.1673 
L 311.51232 98.052699 
L 311.86944 92.941419 
L 312.22656 96.881533 
L 312.58368 94.144008 
L 312.9408 87.586515 
L 313.29792 88.807589 
L 313.65504 88.726997 
L 314.01216 90.691879 
L 314.36928 91.843821 
L 314.7264 91.543266 
L 315.08352 85.362854 
L 315.44064 83.70666 
L 315.79776 89.74881 
L 316.15488 83.378748 
L 316.512 93.149182 
L 316.86912 85.06119 
L 317.22624 97.675989 
L 317.58336 92.05676 
L 317.94048 93.129219 
L 318.2976 83.097787 
L 318.65472 83.554349 
L 319.01184 95.399831 
L 319.36896 93.188369 
L 319.72608 88.191322 
L 320.0832 91.707037 
L 320.44032 87.752505 
L 320.79744 85.547327 
L 321.15456 93.507778 
L 321.51168 92.909256 
L 321.8688 88.166183 
L 322.22592 87.729954 
L 322.58304 92.073396 
L 322.94016 93.729959 
L 323.29728 83.980967 
L 323.6544 84.279673 
L 324.01152 88.300749 
L 324.36864 86.914796 
L 324.72576 94.200939 
L 325.08288 90.915169 
L 325.44 82.596862 
L 325.79712 90.271546 
L 326.15424 89.9721 
L 326.51136 84.665256 
L 326.86848 84.832354 
L 327.2256 89.422007 
L 327.58272 88.910361 
L 327.93984 83.68263 
L 328.29696 85.109619 
L 328.65408 81.771723 
L 329.0112 91.918128 
L 329.36832 92.820901 
L 329.72544 83.932168 
L 330.08256 87.692246 
L 330.43968 93.359534 
L 330.7968 79.232719 
L 331.15392 90.297054 
L 331.51104 91.355835 
L 331.86816 84.116272 
L 332.22528 83.722926 
L 332.5824 84.108509 
L 332.93952 88.789104 
L 333.29664 89.315907 
L 333.65376 80.327359 
L 334.01088 78.569502 
L 334.368 82.354718 
L 334.72512 78.205731 
L 335.08224 78.560629 
L 335.43936 80.266361 
L 335.79648 84.215348 
L 336.1536 84.774313 
L 336.51072 82.260817 
L 336.86784 90.907775 
L 337.22496 90.164706 
L 337.58208 90.051952 
L 337.9392 79.728098 
L 338.65344 85.829028 
L 339.01056 84.927733 
L 339.36768 90.369512 
L 339.7248 85.856385 
L 340.08192 78.016451 
L 340.43904 79.846397 
L 340.79616 78.043438 
L 341.15328 88.898901 
L 341.5104 81.524403 
L 341.86752 82.896308 
L 342.22464 78.39464 
L 342.58176 88.204261 
L 342.93888 79.883366 
L 343.296 88.260823 
L 343.65312 87.947699 
L 344.01024 75.339554 
L 344.36736 77.507763 
L 344.72448 77.562477 
L 345.0816 88.811286 
L 345.43872 84.464147 
L 345.79584 73.333637 
L 346.15296 88.294095 
L 346.51008 83.191687 
L 346.8672 75.602031 
L 347.22432 88.042708 
L 347.58144 87.714057 
L 347.93856 72.923655 
L 348.29568 76.560627 
L 348.6528 74.880404 
L 349.36704 87.276349 
L 349.72416 73.027907 
L 350.08128 73.115153 
L 350.4384 79.573939 
L 350.79552 79.602405 
L 351.15264 76.033825 
L 351.50976 80.776158 
L 351.86688 81.733645 
L 352.224 79.451573 
L 352.58112 79.953237 
L 352.93824 79.731425 
L 353.29536 72.654894 
L 353.65248 78.089279 
L 354.0096 76.667836 
L 354.36672 71.694449 
L 354.72384 81.289652 
L 355.08096 70.216074 
L 355.43808 75.821995 
L 355.7952 77.069315 
L 356.15232 71.087794 
L 356.86656 83.718859 
L 357.22368 83.975052 
L 357.5808 71.358404 
L 357.93792 77.351386 
L 358.29504 69.448236 
L 358.65216 81.11516 
L 359.00928 76.892236 
L 359.3664 77.337708 
L 360.08064 81.699634 
L 360.43776 76.704805 
L 360.79488 69.602765 
L 361.152 70.700363 
L 361.50912 74.445283 
L 361.86624 73.010532 
L 362.22336 70.505169 
L 362.58048 75.390201 
L 362.9376 68.203503 
L 363.29472 68.217921 
L 363.65184 73.41349 
L 364.00896 75.478556 
L 364.7232 68.806461 
L 365.08032 77.730314 
L 365.79456 67.908124 
L 366.15168 75.754342 
L 366.5088 69.834558 
L 366.86592 70.028274 
L 367.22304 69.933634 
L 367.58016 74.292233 
L 367.93728 67.556183 
L 368.2944 70.920696 
L 368.65152 78.168762 
L 369.00864 81.058968 
L 369.36576 65.610895 
L 369.72288 72.787241 
L 370.08 72.404246 
L 370.43712 70.471897 
L 370.79424 66.163945 
L 371.15136 74.534378 
L 371.50848 66.765794 
L 372.22272 75.604619 
L 372.57984 77.845656 
L 373.29408 65.143242 
L 373.6512 74.775043 
L 374.00832 78.593531 
L 374.36544 70.66857 
L 375.07968 67.72439 
L 375.4368 67.826793 
L 375.79392 68.465611 
L 376.15104 64.69777 
L 376.50816 65.743242 
L 376.86528 70.371343 
L 377.2224 65.377992 
L 377.57952 66.783909 
L 377.93664 71.273007 
L 378.29376 69.992414 
L 378.65088 74.879295 
L 379.008 65.795368 
L 379.36512 78.673014 
L 379.72224 72.818295 
L 380.07936 77.078927 
L 380.43648 64.233444 
L 381.15072 74.511457 
L 381.50784 70.410899 
L 381.86496 73.222732 
L 382.22208 71.118478 
L 382.5792 67.651192 
L 382.93632 75.750275 
L 383.29344 67.651932 
L 383.65056 66.297402 
L 384.00768 68.409788 
L 384.3648 63.503314 
L 384.72192 61.207933 
L 385.07904 68.998698 
L 385.43616 61.106269 
L 385.79328 71.37541 
L 386.1504 72.063026 
L 386.50752 65.266347 
L 386.86464 73.193157 
L 387.22176 69.674854 
L 387.57888 67.639732 
L 387.936 62.067823 
L 388.29312 73.693712 
L 388.65024 73.70776 
L 389.00736 73.308868 
L 389.36448 71.204985 
L 389.7216 68.420879 
L 390.07872 63.149894 
L 390.43584 64.518842 
L 390.79296 74.376892 
L 391.15008 62.68372 
L 391.5072 68.966166 
L 391.86432 71.918109 
L 392.22144 65.904795 
L 392.57856 67.894446 
L 392.93568 63.170597 
L 393.2928 70.582803 
L 393.64992 72.361363 
L 394.00704 73.276706 
L 394.36416 59.355066 
L 394.72128 68.478919 
L 395.0784 67.493706 
L 395.43552 74.278185 
L 395.79264 64.687049 
L 396.14976 72.778739 
L 396.50688 62.861539 
L 396.864 72.029015 
L 397.22112 70.826426 
L 397.57824 57.735471 
L 397.93536 70.677073 
L 398.29248 59.582793 
L 399.00672 72.069681 
L 399.36384 63.927714 
L 399.72096 59.919577 
L 400.07808 63.019025 
L 400.4352 65.047493 
L 400.79232 63.200171 
L 401.14944 64.962095 
L 401.50656 72.488535 
L 401.86368 72.373932 
L 402.2208 60.841574 
L 402.57792 69.015704 
L 402.93504 57.321053 
L 403.29216 70.888903 
L 403.64928 69.140288 
L 404.0064 60.312184 
L 404.36352 55.202752 
L 404.72064 65.775035 
L 405.07776 71.159144 
L 405.43488 57.236026 
L 405.792 64.006827 
L 406.14912 66.812744 
L 406.50624 58.448226 
L 406.86336 57.58464 
L 407.22048 57.025304 
L 407.5776 67.077809 
L 407.93472 62.526234 
L 408.29184 63.374663 
L 408.64896 66.020507 
L 409.00608 70.024947 
L 409.72032 64.453038 
L 410.07744 69.09038 
L 410.43456 54.116614 
L 410.79168 60.605714 
L 411.1488 63.259321 
L 411.50592 61.443053 
L 411.86304 65.324388 
L 412.22016 60.580576 
L 412.57728 61.196103 
L 412.9344 59.563569 
L 413.29152 64.098878 
L 413.64864 61.307748 
L 414.00576 53.568 
L 414.36288 66.603871 
L 414.72 61.420872 
L 414.72 61.420872 
" style="fill:none;stroke:#000080;stroke-linecap:square;stroke-width:0.5;"/>
   </g>
   <g id="patch_3">
    <path d="M 57.6 307.584 
L 57.6 41.472 
" style="fill:none;stroke:#000000;stroke-linecap:square;stroke-linejoin:miter;stroke-width:0.8;"/>
   </g>
   <g id="patch_4">
    <path d="M 414.72 307.584 
L 414.72 41.472 
" style="fill:none;stroke:#000000;stroke-linecap:square;stroke-linejoin:miter;stroke-width:0.8;"/>
   </g>
   <g id="patch_5">
    <path d="M 57.6 307.584 
L 414.72 307.584 
" style="fill:none;stroke:#000000;stroke-linecap:square;stroke-linejoin:miter;stroke-width:0.8;"/>
   </g>
   <g id="patch_6">
    <path d="M 57.6 41.472 
L 414.72 41.472 
" style="fill:none;stroke:#000000;stroke-linecap:square;stroke-linejoin:miter;stroke-width:0.8;"/>
   </g>
   <g id="text_16">
    <!-- Test -->
    <defs>
     <path d="M -0.296875 72.90625 
L 61.375 72.90625 
L 61.375 64.59375 
L 35.5 64.59375 
L 35.5 0 
L 25.59375 0 
L 25.59375 64.59375 
L -0.296875 64.59375 
z
" id="DejaVuSans-54"/>
    </defs>
    <g transform="translate(223.341563 35.472)scale(0.12 -0.12)">
     <use xlink:href="#DejaVuSans-54"/>
     <use x="60.818359" xlink:href="#DejaVuSans-65"/>
     <use x="122.341797" xlink:href="#DejaVuSans-73"/>
     <use x="174.441406" xlink:href="#DejaVuSans-74"/>
    </g>
   </g>
   <g id="legend_1">
    <g id="patch_7">
     <path d="M 64.6 64.150125 
L 306.276563 64.150125 
Q 308.276563 64.150125 308.276563 62.150125 
L 308.276563 48.472 
Q 308.276563 46.472 306.276563 46.472 
L 64.6 46.472 
Q 62.6 46.472 62.6 48.472 
L 62.6 62.150125 
Q 62.6 64.150125 64.6 64.150125 
z
" style="fill:#ffffff;opacity:0.8;stroke:#cccccc;stroke-linejoin:miter;"/>
    </g>
    <g id="line2d_28">
     <path d="M 66.6 54.570438 
L 86.6 54.570438 
" style="fill:none;stroke:#000080;stroke-linecap:square;stroke-width:0.5;"/>
    </g>
    <g id="line2d_29"/>
    <g id="text_17">
     <!-- Successful download requests per second -->
     <g transform="translate(94.6 58.070438)scale(0.1 -0.1)">
      <use xlink:href="#DejaVuSans-53"/>
      <use x="63.476562" xlink:href="#DejaVuSans-75"/>
      <use x="126.855469" xlink:href="#DejaVuSans-63"/>
      <use x="181.835938" xlink:href="#DejaVuSans-63"/>
      <use x="236.816406" xlink:href="#DejaVuSans-65"/>
      <use x="298.339844" xlink:href="#DejaVuSans-73"/>
      <use x="350.439453" xlink:href="#DejaVuSans-73"/>
      <use x="402.539062" xlink:href="#DejaVuSans-66"/>
      <use x="437.744141" xlink:href="#DejaVuSans-75"/>
      <use x="501.123047" xlink:href="#DejaVuSans-6c"/>
      <use x="528.90625" xlink:href="#DejaVuSans-20"/>
      <use x="560.693359" xlink:href="#DejaVuSans-64"/>
      <use x="624.169922" xlink:href="#DejaVuSans-6f"/>
      <use x="685.351562" xlink:href="#DejaVuSans-77"/>
      <use x="767.138672" xlink:href="#DejaVuSans-6e"/>
      <use x="830.517578" xlink:href="#DejaVuSans-6c"/>
      <use x="858.300781" xlink:href="#DejaVuSans-6f"/>
      <use x="919.482422" xlink:href="#DejaVuSans-61"/>
      <use x="980.761719" xlink:href="#DejaVuSans-64"/>
      <use x="1044.238281" xlink:href="#DejaVuSans-20"/>
      <use x="1076.025391" xlink:href="#DejaVuSans-72"/>
      <use x="1117.107422" xlink:href="#DejaVuSans-65"/>
      <use x="1178.630859" xlink:href="#DejaVuSans-71"/>
      <use x="1242.107422" xlink:href="#DejaVuSans-75"/>
      <use x="1305.486328" xlink:href="#DejaVuSans-65"/>
      <use x="1367.009766" xlink:href="#DejaVuSans-73"/>
      <use x="1419.109375" xlink:href="#DejaVuSans-74"/>
      <use x="1458.318359" xlink:href="#DejaVuSans-73"/>
      <use x="1510.417969" xlink:href="#DejaVuSans-20"/>
      <use x="1542.205078" xlink:href="#DejaVuSans-70"/>
      <use x="1605.681641" xlink:href="#DejaVuSans-65"/>
      <use x="1667.205078" xlink:href="#DejaVuSans-72"/>
      <use x="1708.318359" xlink:href="#DejaVuSans-20"/>
      <use x="1740.105469" xlink:href="#DejaVuSans-73"/>
      <use x="1792.205078" xlink:href="#DejaVuSans-65"/>
      <use x="1853.728516" xlink:href="#DejaVuSans-63"/>
      <use x="1908.708984" xlink:href="#DejaVuSans-6f"/>
      <use x="1969.890625" xlink:href="#DejaVuSans-6e"/>
      <use x="2033.269531" xlink:href="#DejaVuSans-64"/>
     </g>
    </g>
   </g>
  </g>
 </g>
 <defs>
  <clipPath id="p216db7454e">
   <rect height="266.112" width="357.12" x="57.6" y="41.472"/>
  </clipPath>
 </defs>
</svg>
