<?xml version="1.0" encoding="utf-8" standalone="no"?>
<!DOCTYPE svg PUBLIC "-//W3C//DTD SVG 1.1//EN"
  "http://www.w3.org/Graphics/SVG/1.1/DTD/svg11.dtd">
<!-- Created with matplotlib (http://matplotlib.org/) -->
<svg height="345pt" version="1.1" viewBox="0 0 460 345" width="460pt" xmlns="http://www.w3.org/2000/svg" xmlns:xlink="http://www.w3.org/1999/xlink">
 <defs>
  <style type="text/css">
*{stroke-linecap:butt;stroke-linejoin:round;}
  </style>
 </defs>
 <g id="figure_1">
  <g id="patch_1">
   <path d="M 0 345.6 
L 460.8 345.6 
L 460.8 0 
L 0 0 
z
" style="fill:#ffffff;"/>
  </g>
  <g id="axes_1">
   <g id="patch_2">
    <path d="M 57.6 307.584 
L 414.72 307.584 
L 414.72 41.472 
L 57.6 41.472 
z
" style="fill:#ffffff;"/>
   </g>
   <g id="matplotlib.axis_1">
    <g id="xtick_1">
     <g id="line2d_1">
      <path clip-path="url(#p7c4d5f337f)" d="M 57.6 307.584 
L 57.6 41.472 
" style="fill:none;stroke:#b0b0b0;stroke-linecap:square;stroke-width:0.8;"/>
     </g>
     <g id="line2d_2">
      <defs>
       <path d="M 0 0 
L 0 3.5 
" id="m264d675ec4" style="stroke:#000000;stroke-width:0.8;"/>
      </defs>
      <g>
       <use style="stroke:#000000;stroke-width:0.8;" x="57.6" xlink:href="#m264d675ec4" y="307.584"/>
      </g>
     </g>
     <g id="text_1">
      <!-- 0 -->
      <defs>
       <path d="M 31.78125 66.40625 
Q 24.171875 66.40625 20.328125 58.90625 
Q 16.5 51.421875 16.5 36.375 
Q 16.5 21.390625 20.328125 13.890625 
Q 24.171875 6.390625 31.78125 6.390625 
Q 39.453125 6.390625 43.28125 13.890625 
Q 47.125 21.390625 47.125 36.375 
Q 47.125 51.421875 43.28125 58.90625 
Q 39.453125 66.40625 31.78125 66.40625 
M 31.78125 74.21875 
Q 44.046875 74.21875 50.515625 64.515625 
Q 56.984375 54.828125 56.984375 36.375 
Q 56.984375 17.96875 50.515625 8.265625 
Q 44.046875 -1.421875 31.78125 -1.421875 
Q 19.53125 -1.421875 13.0625 8.265625 
Q 6.59375 17.96875 6.59375 36.375 
Q 6.59375 54.828125 13.0625 64.515625 
Q 19.53125 74.21875 31.78125 74.21875 
" id="DejaVuSans-30"/>
      </defs>
      <g transform="translate(54.41875 322.182437)scale(0.1 -0.1)">
       <use xlink:href="#DejaVuSans-30"/>
      </g>
     </g>
    </g>
    <g id="xtick_2">
     <g id="line2d_3">
      <path clip-path="url(#p7c4d5f337f)" d="M 129.024 307.584 
L 129.024 41.472 
" style="fill:none;stroke:#b0b0b0;stroke-linecap:square;stroke-width:0.8;"/>
     </g>
     <g id="line2d_4">
      <g>
       <use style="stroke:#000000;stroke-width:0.8;" x="129.024" xlink:href="#m264d675ec4" y="307.584"/>
      </g>
     </g>
     <g id="text_2">
      <!-- 200 -->
      <defs>
       <path d="M 19.1875 8.296875 
L 53.609375 8.296875 
L 53.609375 0 
L 7.328125 0 
L 7.328125 8.296875 
Q 12.9375 14.109375 22.625 23.890625 
Q 32.328125 33.6875 34.8125 36.53125 
Q 39.546875 41.84375 41.421875 45.53125 
Q 43.3125 49.21875 43.3125 52.78125 
Q 43.3125 58.59375 39.234375 62.25 
Q 35.15625 65.921875 28.609375 65.921875 
Q 23.96875 65.921875 18.8125 64.3125 
Q 13.671875 62.703125 7.8125 59.421875 
L 7.8125 69.390625 
Q 13.765625 71.78125 18.9375 73 
Q 24.125 74.21875 28.421875 74.21875 
Q 39.75 74.21875 46.484375 68.546875 
Q 53.21875 62.890625 53.21875 53.421875 
Q 53.21875 48.921875 51.53125 44.890625 
Q 49.859375 40.875 45.40625 35.40625 
Q 44.1875 33.984375 37.640625 27.21875 
Q 31.109375 20.453125 19.1875 8.296875 
" id="DejaVuSans-32"/>
      </defs>
      <g transform="translate(119.48025 322.182437)scale(0.1 -0.1)">
       <use xlink:href="#DejaVuSans-32"/>
       <use x="63.623047" xlink:href="#DejaVuSans-30"/>
       <use x="127.246094" xlink:href="#DejaVuSans-30"/>
      </g>
     </g>
    </g>
    <g id="xtick_3">
     <g id="line2d_5">
      <path clip-path="url(#p7c4d5f337f)" d="M 200.448 307.584 
L 200.448 41.472 
" style="fill:none;stroke:#b0b0b0;stroke-linecap:square;stroke-width:0.8;"/>
     </g>
     <g id="line2d_6">
      <g>
       <use style="stroke:#000000;stroke-width:0.8;" x="200.448" xlink:href="#m264d675ec4" y="307.584"/>
      </g>
     </g>
     <g id="text_3">
      <!-- 400 -->
      <defs>
       <path d="M 37.796875 64.3125 
L 12.890625 25.390625 
L 37.796875 25.390625 
z
M 35.203125 72.90625 
L 47.609375 72.90625 
L 47.609375 25.390625 
L 58.015625 25.390625 
L 58.015625 17.1875 
L 47.609375 17.1875 
L 47.609375 0 
L 37.796875 0 
L 37.796875 17.1875 
L 4.890625 17.1875 
L 4.890625 26.703125 
z
" id="DejaVuSans-34"/>
      </defs>
      <g transform="translate(190.90425 322.182437)scale(0.1 -0.1)">
       <use xlink:href="#DejaVuSans-34"/>
       <use x="63.623047" xlink:href="#DejaVuSans-30"/>
       <use x="127.246094" xlink:href="#DejaVuSans-30"/>
      </g>
     </g>
    </g>
    <g id="xtick_4">
     <g id="line2d_7">
      <path clip-path="url(#p7c4d5f337f)" d="M 271.872 307.584 
L 271.872 41.472 
" style="fill:none;stroke:#b0b0b0;stroke-linecap:square;stroke-width:0.8;"/>
     </g>
     <g id="line2d_8">
      <g>
       <use style="stroke:#000000;stroke-width:0.8;" x="271.872" xlink:href="#m264d675ec4" y="307.584"/>
      </g>
     </g>
     <g id="text_4">
      <!-- 600 -->
      <defs>
       <path d="M 33.015625 40.375 
Q 26.375 40.375 22.484375 35.828125 
Q 18.609375 31.296875 18.609375 23.390625 
Q 18.609375 15.53125 22.484375 10.953125 
Q 26.375 6.390625 33.015625 6.390625 
Q 39.65625 6.390625 43.53125 10.953125 
Q 47.40625 15.53125 47.40625 23.390625 
Q 47.40625 31.296875 43.53125 35.828125 
Q 39.65625 40.375 33.015625 40.375 
M 52.59375 71.296875 
L 52.59375 62.3125 
Q 48.875 64.0625 45.09375 64.984375 
Q 41.3125 65.921875 37.59375 65.921875 
Q 27.828125 65.921875 22.671875 59.328125 
Q 17.53125 52.734375 16.796875 39.40625 
Q 19.671875 43.65625 24.015625 45.921875 
Q 28.375 48.1875 33.59375 48.1875 
Q 44.578125 48.1875 50.953125 41.515625 
Q 57.328125 34.859375 57.328125 23.390625 
Q 57.328125 12.15625 50.6875 5.359375 
Q 44.046875 -1.421875 33.015625 -1.421875 
Q 20.359375 -1.421875 13.671875 8.265625 
Q 6.984375 17.96875 6.984375 36.375 
Q 6.984375 53.65625 15.1875 63.9375 
Q 23.390625 74.21875 37.203125 74.21875 
Q 40.921875 74.21875 44.703125 73.484375 
Q 48.484375 72.75 52.59375 71.296875 
" id="DejaVuSans-36"/>
      </defs>
      <g transform="translate(262.32825 322.182437)scale(0.1 -0.1)">
       <use xlink:href="#DejaVuSans-36"/>
       <use x="63.623047" xlink:href="#DejaVuSans-30"/>
       <use x="127.246094" xlink:href="#DejaVuSans-30"/>
      </g>
     </g>
    </g>
    <g id="xtick_5">
     <g id="line2d_9">
      <path clip-path="url(#p7c4d5f337f)" d="M 343.296 307.584 
L 343.296 41.472 
" style="fill:none;stroke:#b0b0b0;stroke-linecap:square;stroke-width:0.8;"/>
     </g>
     <g id="line2d_10">
      <g>
       <use style="stroke:#000000;stroke-width:0.8;" x="343.296" xlink:href="#m264d675ec4" y="307.584"/>
      </g>
     </g>
     <g id="text_5">
      <!-- 800 -->
      <defs>
       <path d="M 31.78125 34.625 
Q 24.75 34.625 20.71875 30.859375 
Q 16.703125 27.09375 16.703125 20.515625 
Q 16.703125 13.921875 20.71875 10.15625 
Q 24.75 6.390625 31.78125 6.390625 
Q 38.8125 6.390625 42.859375 10.171875 
Q 46.921875 13.96875 46.921875 20.515625 
Q 46.921875 27.09375 42.890625 30.859375 
Q 38.875 34.625 31.78125 34.625 
M 21.921875 38.8125 
Q 15.578125 40.375 12.03125 44.71875 
Q 8.5 49.078125 8.5 55.328125 
Q 8.5 64.0625 14.71875 69.140625 
Q 20.953125 74.21875 31.78125 74.21875 
Q 42.671875 74.21875 48.875 69.140625 
Q 55.078125 64.0625 55.078125 55.328125 
Q 55.078125 49.078125 51.53125 44.71875 
Q 48 40.375 41.703125 38.8125 
Q 48.828125 37.15625 52.796875 32.3125 
Q 56.78125 27.484375 56.78125 20.515625 
Q 56.78125 9.90625 50.3125 4.234375 
Q 43.84375 -1.421875 31.78125 -1.421875 
Q 19.734375 -1.421875 13.25 4.234375 
Q 6.78125 9.90625 6.78125 20.515625 
Q 6.78125 27.484375 10.78125 32.3125 
Q 14.796875 37.15625 21.921875 38.8125 
M 18.3125 54.390625 
Q 18.3125 48.734375 21.84375 45.5625 
Q 25.390625 42.390625 31.78125 42.390625 
Q 38.140625 42.390625 41.71875 45.5625 
Q 45.3125 48.734375 45.3125 54.390625 
Q 45.3125 60.0625 41.71875 63.234375 
Q 38.140625 66.40625 31.78125 66.40625 
Q 25.390625 66.40625 21.84375 63.234375 
Q 18.3125 60.0625 18.3125 54.390625 
" id="DejaVuSans-38"/>
      </defs>
      <g transform="translate(333.75225 322.182437)scale(0.1 -0.1)">
       <use xlink:href="#DejaVuSans-38"/>
       <use x="63.623047" xlink:href="#DejaVuSans-30"/>
       <use x="127.246094" xlink:href="#DejaVuSans-30"/>
      </g>
     </g>
    </g>
    <g id="xtick_6">
     <g id="line2d_11">
      <path clip-path="url(#p7c4d5f337f)" d="M 414.72 307.584 
L 414.72 41.472 
" style="fill:none;stroke:#b0b0b0;stroke-linecap:square;stroke-width:0.8;"/>
     </g>
     <g id="line2d_12">
      <g>
       <use style="stroke:#000000;stroke-width:0.8;" x="414.72" xlink:href="#m264d675ec4" y="307.584"/>
      </g>
     </g>
     <g id="text_6">
      <!-- 1000 -->
      <defs>
       <path d="M 12.40625 8.296875 
L 28.515625 8.296875 
L 28.515625 63.921875 
L 10.984375 60.40625 
L 10.984375 69.390625 
L 28.421875 72.90625 
L 38.28125 72.90625 
L 38.28125 8.296875 
L 54.390625 8.296875 
L 54.390625 0 
L 12.40625 0 
z
" id="DejaVuSans-31"/>
      </defs>
      <g transform="translate(401.995 322.182437)scale(0.1 -0.1)">
       <use xlink:href="#DejaVuSans-31"/>
       <use x="63.623047" xlink:href="#DejaVuSans-30"/>
       <use x="127.246094" xlink:href="#DejaVuSans-30"/>
       <use x="190.869141" xlink:href="#DejaVuSans-30"/>
      </g>
     </g>
    </g>
    <g id="text_7">
     <!-- Number of clients -->
     <defs>
      <path d="M 9.8125 72.90625 
L 23.09375 72.90625 
L 55.421875 11.921875 
L 55.421875 72.90625 
L 64.984375 72.90625 
L 64.984375 0 
L 51.703125 0 
L 19.390625 60.984375 
L 19.390625 0 
L 9.8125 0 
z
" id="DejaVuSans-4e"/>
      <path d="M 8.5 21.578125 
L 8.5 54.6875 
L 17.484375 54.6875 
L 17.484375 21.921875 
Q 17.484375 14.15625 20.5 10.265625 
Q 23.53125 6.390625 29.59375 6.390625 
Q 36.859375 6.390625 41.078125 11.03125 
Q 45.3125 15.671875 45.3125 23.6875 
L 45.3125 54.6875 
L 54.296875 54.6875 
L 54.296875 0 
L 45.3125 0 
L 45.3125 8.40625 
Q 42.046875 3.421875 37.71875 1 
Q 33.40625 -1.421875 27.6875 -1.421875 
Q 18.265625 -1.421875 13.375 4.4375 
Q 8.5 10.296875 8.5 21.578125 
M 31.109375 56 
z
" id="DejaVuSans-75"/>
      <path d="M 52 44.1875 
Q 55.375 50.25 60.0625 53.125 
Q 64.75 56 71.09375 56 
Q 79.640625 56 84.28125 50.015625 
Q 88.921875 44.046875 88.921875 33.015625 
L 88.921875 0 
L 79.890625 0 
L 79.890625 32.71875 
Q 79.890625 40.578125 77.09375 44.375 
Q 74.3125 48.1875 68.609375 48.1875 
Q 61.625 48.1875 57.5625 43.546875 
Q 53.515625 38.921875 53.515625 30.90625 
L 53.515625 0 
L 44.484375 0 
L 44.484375 32.71875 
Q 44.484375 40.625 41.703125 44.40625 
Q 38.921875 48.1875 33.109375 48.1875 
Q 26.21875 48.1875 22.15625 43.53125 
Q 18.109375 38.875 18.109375 30.90625 
L 18.109375 0 
L 9.078125 0 
L 9.078125 54.6875 
L 18.109375 54.6875 
L 18.109375 46.1875 
Q 21.1875 51.21875 25.484375 53.609375 
Q 29.78125 56 35.6875 56 
Q 41.65625 56 45.828125 52.96875 
Q 50 49.953125 52 44.1875 
" id="DejaVuSans-6d"/>
      <path d="M 48.6875 27.296875 
Q 48.6875 37.203125 44.609375 42.84375 
Q 40.53125 48.484375 33.40625 48.484375 
Q 26.265625 48.484375 22.1875 42.84375 
Q 18.109375 37.203125 18.109375 27.296875 
Q 18.109375 17.390625 22.1875 11.75 
Q 26.265625 6.109375 33.40625 6.109375 
Q 40.53125 6.109375 44.609375 11.75 
Q 48.6875 17.390625 48.6875 27.296875 
M 18.109375 46.390625 
Q 20.953125 51.265625 25.265625 53.625 
Q 29.59375 56 35.59375 56 
Q 45.5625 56 51.78125 48.09375 
Q 58.015625 40.1875 58.015625 27.296875 
Q 58.015625 14.40625 51.78125 6.484375 
Q 45.5625 -1.421875 35.59375 -1.421875 
Q 29.59375 -1.421875 25.265625 0.953125 
Q 20.953125 3.328125 18.109375 8.203125 
L 18.109375 0 
L 9.078125 0 
L 9.078125 75.984375 
L 18.109375 75.984375 
z
" id="DejaVuSans-62"/>
      <path d="M 56.203125 29.59375 
L 56.203125 25.203125 
L 14.890625 25.203125 
Q 15.484375 15.921875 20.484375 11.0625 
Q 25.484375 6.203125 34.421875 6.203125 
Q 39.59375 6.203125 44.453125 7.46875 
Q 49.3125 8.734375 54.109375 11.28125 
L 54.109375 2.78125 
Q 49.265625 0.734375 44.1875 -0.34375 
Q 39.109375 -1.421875 33.890625 -1.421875 
Q 20.796875 -1.421875 13.15625 6.1875 
Q 5.515625 13.8125 5.515625 26.8125 
Q 5.515625 40.234375 12.765625 48.109375 
Q 20.015625 56 32.328125 56 
Q 43.359375 56 49.78125 48.890625 
Q 56.203125 41.796875 56.203125 29.59375 
M 47.21875 32.234375 
Q 47.125 39.59375 43.09375 43.984375 
Q 39.0625 48.390625 32.421875 48.390625 
Q 24.90625 48.390625 20.390625 44.140625 
Q 15.875 39.890625 15.1875 32.171875 
z
" id="DejaVuSans-65"/>
      <path d="M 41.109375 46.296875 
Q 39.59375 47.171875 37.8125 47.578125 
Q 36.03125 48 33.890625 48 
Q 26.265625 48 22.1875 43.046875 
Q 18.109375 38.09375 18.109375 28.8125 
L 18.109375 0 
L 9.078125 0 
L 9.078125 54.6875 
L 18.109375 54.6875 
L 18.109375 46.1875 
Q 20.953125 51.171875 25.484375 53.578125 
Q 30.03125 56 36.53125 56 
Q 37.453125 56 38.578125 55.875 
Q 39.703125 55.765625 41.0625 55.515625 
z
" id="DejaVuSans-72"/>
      <path id="DejaVuSans-20"/>
      <path d="M 30.609375 48.390625 
Q 23.390625 48.390625 19.1875 42.75 
Q 14.984375 37.109375 14.984375 27.296875 
Q 14.984375 17.484375 19.15625 11.84375 
Q 23.34375 6.203125 30.609375 6.203125 
Q 37.796875 6.203125 41.984375 11.859375 
Q 46.1875 17.53125 46.1875 27.296875 
Q 46.1875 37.015625 41.984375 42.703125 
Q 37.796875 48.390625 30.609375 48.390625 
M 30.609375 56 
Q 42.328125 56 49.015625 48.375 
Q 55.71875 40.765625 55.71875 27.296875 
Q 55.71875 13.875 49.015625 6.21875 
Q 42.328125 -1.421875 30.609375 -1.421875 
Q 18.84375 -1.421875 12.171875 6.21875 
Q 5.515625 13.875 5.515625 27.296875 
Q 5.515625 40.765625 12.171875 48.375 
Q 18.84375 56 30.609375 56 
" id="DejaVuSans-6f"/>
      <path d="M 37.109375 75.984375 
L 37.109375 68.5 
L 28.515625 68.5 
Q 23.6875 68.5 21.796875 66.546875 
Q 19.921875 64.59375 19.921875 59.515625 
L 19.921875 54.6875 
L 34.71875 54.6875 
L 34.71875 47.703125 
L 19.921875 47.703125 
L 19.921875 0 
L 10.890625 0 
L 10.890625 47.703125 
L 2.296875 47.703125 
L 2.296875 54.6875 
L 10.890625 54.6875 
L 10.890625 58.5 
Q 10.890625 67.625 15.140625 71.796875 
Q 19.390625 75.984375 28.609375 75.984375 
z
" id="DejaVuSans-66"/>
      <path d="M 48.78125 52.59375 
L 48.78125 44.1875 
Q 44.96875 46.296875 41.140625 47.34375 
Q 37.3125 48.390625 33.40625 48.390625 
Q 24.65625 48.390625 19.8125 42.84375 
Q 14.984375 37.3125 14.984375 27.296875 
Q 14.984375 17.28125 19.8125 11.734375 
Q 24.65625 6.203125 33.40625 6.203125 
Q 37.3125 6.203125 41.140625 7.25 
Q 44.96875 8.296875 48.78125 10.40625 
L 48.78125 2.09375 
Q 45.015625 0.34375 40.984375 -0.53125 
Q 36.96875 -1.421875 32.421875 -1.421875 
Q 20.0625 -1.421875 12.78125 6.34375 
Q 5.515625 14.109375 5.515625 27.296875 
Q 5.515625 40.671875 12.859375 48.328125 
Q 20.21875 56 33.015625 56 
Q 37.15625 56 41.109375 55.140625 
Q 45.0625 54.296875 48.78125 52.59375 
" id="DejaVuSans-63"/>
      <path d="M 9.421875 75.984375 
L 18.40625 75.984375 
L 18.40625 0 
L 9.421875 0 
z
" id="DejaVuSans-6c"/>
      <path d="M 9.421875 54.6875 
L 18.40625 54.6875 
L 18.40625 0 
L 9.421875 0 
z
M 9.421875 75.984375 
L 18.40625 75.984375 
L 18.40625 64.59375 
L 9.421875 64.59375 
z
" id="DejaVuSans-69"/>
      <path d="M 54.890625 33.015625 
L 54.890625 0 
L 45.90625 0 
L 45.90625 32.71875 
Q 45.90625 40.484375 42.875 44.328125 
Q 39.84375 48.1875 33.796875 48.1875 
Q 26.515625 48.1875 22.3125 43.546875 
Q 18.109375 38.921875 18.109375 30.90625 
L 18.109375 0 
L 9.078125 0 
L 9.078125 54.6875 
L 18.109375 54.6875 
L 18.109375 46.1875 
Q 21.34375 51.125 25.703125 53.5625 
Q 30.078125 56 35.796875 56 
Q 45.21875 56 50.046875 50.171875 
Q 54.890625 44.34375 54.890625 33.015625 
" id="DejaVuSans-6e"/>
      <path d="M 18.3125 70.21875 
L 18.3125 54.6875 
L 36.8125 54.6875 
L 36.8125 47.703125 
L 18.3125 47.703125 
L 18.3125 18.015625 
Q 18.3125 11.328125 20.140625 9.421875 
Q 21.96875 7.515625 27.59375 7.515625 
L 36.8125 7.515625 
L 36.8125 0 
L 27.59375 0 
Q 17.1875 0 13.234375 3.875 
Q 9.28125 7.765625 9.28125 18.015625 
L 9.28125 47.703125 
L 2.6875 47.703125 
L 2.6875 54.6875 
L 9.28125 54.6875 
L 9.28125 70.21875 
z
" id="DejaVuSans-74"/>
      <path d="M 44.28125 53.078125 
L 44.28125 44.578125 
Q 40.484375 46.53125 36.375 47.5 
Q 32.28125 48.484375 27.875 48.484375 
Q 21.1875 48.484375 17.84375 46.4375 
Q 14.5 44.390625 14.5 40.28125 
Q 14.5 37.15625 16.890625 35.375 
Q 19.28125 33.59375 26.515625 31.984375 
L 29.59375 31.296875 
Q 39.15625 29.25 43.1875 25.515625 
Q 47.21875 21.78125 47.21875 15.09375 
Q 47.21875 7.46875 41.1875 3.015625 
Q 35.15625 -1.421875 24.609375 -1.421875 
Q 20.21875 -1.421875 15.453125 -0.5625 
Q 10.6875 0.296875 5.421875 2 
L 5.421875 11.28125 
Q 10.40625 8.6875 15.234375 7.390625 
Q 20.0625 6.109375 24.8125 6.109375 
Q 31.15625 6.109375 34.5625 8.28125 
Q 37.984375 10.453125 37.984375 14.40625 
Q 37.984375 18.0625 35.515625 20.015625 
Q 33.0625 21.96875 24.703125 23.78125 
L 21.578125 24.515625 
Q 13.234375 26.265625 9.515625 29.90625 
Q 5.8125 33.546875 5.8125 39.890625 
Q 5.8125 47.609375 11.28125 51.796875 
Q 16.75 56 26.8125 56 
Q 31.78125 56 36.171875 55.265625 
Q 40.578125 54.546875 44.28125 53.078125 
" id="DejaVuSans-73"/>
     </defs>
     <g transform="translate(191.738906 335.860562)scale(0.1 -0.1)">
      <use xlink:href="#DejaVuSans-4e"/>
      <use x="74.804688" xlink:href="#DejaVuSans-75"/>
      <use x="138.183594" xlink:href="#DejaVuSans-6d"/>
      <use x="235.595703" xlink:href="#DejaVuSans-62"/>
      <use x="299.072266" xlink:href="#DejaVuSans-65"/>
      <use x="360.595703" xlink:href="#DejaVuSans-72"/>
      <use x="401.708984" xlink:href="#DejaVuSans-20"/>
      <use x="433.496094" xlink:href="#DejaVuSans-6f"/>
      <use x="494.677734" xlink:href="#DejaVuSans-66"/>
      <use x="529.882812" xlink:href="#DejaVuSans-20"/>
      <use x="561.669922" xlink:href="#DejaVuSans-63"/>
      <use x="616.650391" xlink:href="#DejaVuSans-6c"/>
      <use x="644.433594" xlink:href="#DejaVuSans-69"/>
      <use x="672.216797" xlink:href="#DejaVuSans-65"/>
      <use x="733.740234" xlink:href="#DejaVuSans-6e"/>
      <use x="797.119141" xlink:href="#DejaVuSans-74"/>
      <use x="836.328125" xlink:href="#DejaVuSans-73"/>
     </g>
    </g>
   </g>
   <g id="matplotlib.axis_2">
    <g id="ytick_1">
     <g id="line2d_13">
      <path clip-path="url(#p7c4d5f337f)" d="M 57.6 295.813214 
L 414.72 295.813214 
" style="fill:none;stroke:#b0b0b0;stroke-linecap:square;stroke-width:0.8;"/>
     </g>
     <g id="line2d_14">
      <defs>
       <path d="M 0 0 
L -3.5 0 
" id="m588c50d863" style="stroke:#000000;stroke-width:0.8;"/>
      </defs>
      <g>
       <use style="stroke:#000000;stroke-width:0.8;" x="57.6" xlink:href="#m588c50d863" y="295.813214"/>
      </g>
     </g>
     <g id="text_8">
      <!-- 0 -->
      <g transform="translate(44.2375 299.612433)scale(0.1 -0.1)">
       <use xlink:href="#DejaVuSans-30"/>
      </g>
     </g>
    </g>
    <g id="ytick_2">
     <g id="line2d_15">
      <path clip-path="url(#p7c4d5f337f)" d="M 57.6 261.030955 
L 414.72 261.030955 
" style="fill:none;stroke:#b0b0b0;stroke-linecap:square;stroke-width:0.8;"/>
     </g>
     <g id="line2d_16">
      <g>
       <use style="stroke:#000000;stroke-width:0.8;" x="57.6" xlink:href="#m588c50d863" y="261.030955"/>
      </g>
     </g>
     <g id="text_9">
      <!-- 100 -->
      <g transform="translate(31.5125 264.830174)scale(0.1 -0.1)">
       <use xlink:href="#DejaVuSans-31"/>
       <use x="63.623047" xlink:href="#DejaVuSans-30"/>
       <use x="127.246094" xlink:href="#DejaVuSans-30"/>
      </g>
     </g>
    </g>
    <g id="ytick_3">
     <g id="line2d_17">
      <path clip-path="url(#p7c4d5f337f)" d="M 57.6 226.248697 
L 414.72 226.248697 
" style="fill:none;stroke:#b0b0b0;stroke-linecap:square;stroke-width:0.8;"/>
     </g>
     <g id="line2d_18">
      <g>
       <use style="stroke:#000000;stroke-width:0.8;" x="57.6" xlink:href="#m588c50d863" y="226.248697"/>
      </g>
     </g>
     <g id="text_10">
      <!-- 200 -->
      <g transform="translate(31.5125 230.047916)scale(0.1 -0.1)">
       <use xlink:href="#DejaVuSans-32"/>
       <use x="63.623047" xlink:href="#DejaVuSans-30"/>
       <use x="127.246094" xlink:href="#DejaVuSans-30"/>
      </g>
     </g>
    </g>
    <g id="ytick_4">
     <g id="line2d_19">
      <path clip-path="url(#p7c4d5f337f)" d="M 57.6 191.466438 
L 414.72 191.466438 
" style="fill:none;stroke:#b0b0b0;stroke-linecap:square;stroke-width:0.8;"/>
     </g>
     <g id="line2d_20">
      <g>
       <use style="stroke:#000000;stroke-width:0.8;" x="57.6" xlink:href="#m588c50d863" y="191.466438"/>
      </g>
     </g>
     <g id="text_11">
      <!-- 300 -->
      <defs>
       <path d="M 40.578125 39.3125 
Q 47.65625 37.796875 51.625 33 
Q 55.609375 28.21875 55.609375 21.1875 
Q 55.609375 10.40625 48.1875 4.484375 
Q 40.765625 -1.421875 27.09375 -1.421875 
Q 22.515625 -1.421875 17.65625 -0.515625 
Q 12.796875 0.390625 7.625 2.203125 
L 7.625 11.71875 
Q 11.71875 9.328125 16.59375 8.109375 
Q 21.484375 6.890625 26.8125 6.890625 
Q 36.078125 6.890625 40.9375 10.546875 
Q 45.796875 14.203125 45.796875 21.1875 
Q 45.796875 27.640625 41.28125 31.265625 
Q 36.765625 34.90625 28.71875 34.90625 
L 20.21875 34.90625 
L 20.21875 43.015625 
L 29.109375 43.015625 
Q 36.375 43.015625 40.234375 45.921875 
Q 44.09375 48.828125 44.09375 54.296875 
Q 44.09375 59.90625 40.109375 62.90625 
Q 36.140625 65.921875 28.71875 65.921875 
Q 24.65625 65.921875 20.015625 65.03125 
Q 15.375 64.15625 9.8125 62.3125 
L 9.8125 71.09375 
Q 15.4375 72.65625 20.34375 73.4375 
Q 25.25 74.21875 29.59375 74.21875 
Q 40.828125 74.21875 47.359375 69.109375 
Q 53.90625 64.015625 53.90625 55.328125 
Q 53.90625 49.265625 50.4375 45.09375 
Q 46.96875 40.921875 40.578125 39.3125 
" id="DejaVuSans-33"/>
      </defs>
      <g transform="translate(31.5125 195.265657)scale(0.1 -0.1)">
       <use xlink:href="#DejaVuSans-33"/>
       <use x="63.623047" xlink:href="#DejaVuSans-30"/>
       <use x="127.246094" xlink:href="#DejaVuSans-30"/>
      </g>
     </g>
    </g>
    <g id="ytick_5">
     <g id="line2d_21">
      <path clip-path="url(#p7c4d5f337f)" d="M 57.6 156.68418 
L 414.72 156.68418 
" style="fill:none;stroke:#b0b0b0;stroke-linecap:square;stroke-width:0.8;"/>
     </g>
     <g id="line2d_22">
      <g>
       <use style="stroke:#000000;stroke-width:0.8;" x="57.6" xlink:href="#m588c50d863" y="156.68418"/>
      </g>
     </g>
     <g id="text_12">
      <!-- 400 -->
      <g transform="translate(31.5125 160.483398)scale(0.1 -0.1)">
       <use xlink:href="#DejaVuSans-34"/>
       <use x="63.623047" xlink:href="#DejaVuSans-30"/>
       <use x="127.246094" xlink:href="#DejaVuSans-30"/>
      </g>
     </g>
    </g>
    <g id="ytick_6">
     <g id="line2d_23">
      <path clip-path="url(#p7c4d5f337f)" d="M 57.6 121.901921 
L 414.72 121.901921 
" style="fill:none;stroke:#b0b0b0;stroke-linecap:square;stroke-width:0.8;"/>
     </g>
     <g id="line2d_24">
      <g>
       <use style="stroke:#000000;stroke-width:0.8;" x="57.6" xlink:href="#m588c50d863" y="121.901921"/>
      </g>
     </g>
     <g id="text_13">
      <!-- 500 -->
      <defs>
       <path d="M 10.796875 72.90625 
L 49.515625 72.90625 
L 49.515625 64.59375 
L 19.828125 64.59375 
L 19.828125 46.734375 
Q 21.96875 47.46875 24.109375 47.828125 
Q 26.265625 48.1875 28.421875 48.1875 
Q 40.625 48.1875 47.75 41.5 
Q 54.890625 34.8125 54.890625 23.390625 
Q 54.890625 11.625 47.5625 5.09375 
Q 40.234375 -1.421875 26.90625 -1.421875 
Q 22.3125 -1.421875 17.546875 -0.640625 
Q 12.796875 0.140625 7.71875 1.703125 
L 7.71875 11.625 
Q 12.109375 9.234375 16.796875 8.0625 
Q 21.484375 6.890625 26.703125 6.890625 
Q 35.15625 6.890625 40.078125 11.328125 
Q 45.015625 15.765625 45.015625 23.390625 
Q 45.015625 31 40.078125 35.4375 
Q 35.15625 39.890625 26.703125 39.890625 
Q 22.75 39.890625 18.8125 39.015625 
Q 14.890625 38.140625 10.796875 36.28125 
z
" id="DejaVuSans-35"/>
      </defs>
      <g transform="translate(31.5125 125.70114)scale(0.1 -0.1)">
       <use xlink:href="#DejaVuSans-35"/>
       <use x="63.623047" xlink:href="#DejaVuSans-30"/>
       <use x="127.246094" xlink:href="#DejaVuSans-30"/>
      </g>
     </g>
    </g>
    <g id="ytick_7">
     <g id="line2d_25">
      <path clip-path="url(#p7c4d5f337f)" d="M 57.6 87.119662 
L 414.72 87.119662 
" style="fill:none;stroke:#b0b0b0;stroke-linecap:square;stroke-width:0.8;"/>
     </g>
     <g id="line2d_26">
      <g>
       <use style="stroke:#000000;stroke-width:0.8;" x="57.6" xlink:href="#m588c50d863" y="87.119662"/>
      </g>
     </g>
     <g id="text_14">
      <!-- 600 -->
      <g transform="translate(31.5125 90.918881)scale(0.1 -0.1)">
       <use xlink:href="#DejaVuSans-36"/>
       <use x="63.623047" xlink:href="#DejaVuSans-30"/>
       <use x="127.246094" xlink:href="#DejaVuSans-30"/>
      </g>
     </g>
    </g>
    <g id="ytick_8">
     <g id="line2d_27">
      <path clip-path="url(#p7c4d5f337f)" d="M 57.6 52.337404 
L 414.72 52.337404 
" style="fill:none;stroke:#b0b0b0;stroke-linecap:square;stroke-width:0.8;"/>
     </g>
     <g id="line2d_28">
      <g>
       <use style="stroke:#000000;stroke-width:0.8;" x="57.6" xlink:href="#m588c50d863" y="52.337404"/>
      </g>
     </g>
     <g id="text_15">
      <!-- 700 -->
      <defs>
       <path d="M 8.203125 72.90625 
L 55.078125 72.90625 
L 55.078125 68.703125 
L 28.609375 0 
L 18.3125 0 
L 43.21875 64.59375 
L 8.203125 64.59375 
z
" id="DejaVuSans-37"/>
      </defs>
      <g transform="translate(31.5125 56.136622)scale(0.1 -0.1)">
       <use xlink:href="#DejaVuSans-37"/>
       <use x="63.623047" xlink:href="#DejaVuSans-30"/>
       <use x="127.246094" xlink:href="#DejaVuSans-30"/>
      </g>
     </g>
    </g>
    <g id="text_16">
     <!-- Successful download requests per second -->
     <defs>
      <path d="M 53.515625 70.515625 
L 53.515625 60.890625 
Q 47.90625 63.578125 42.921875 64.890625 
Q 37.9375 66.21875 33.296875 66.21875 
Q 25.25 66.21875 20.875 63.09375 
Q 16.5 59.96875 16.5 54.203125 
Q 16.5 49.359375 19.40625 46.890625 
Q 22.3125 44.4375 30.421875 42.921875 
L 36.375 41.703125 
Q 47.40625 39.59375 52.65625 34.296875 
Q 57.90625 29 57.90625 20.125 
Q 57.90625 9.515625 50.796875 4.046875 
Q 43.703125 -1.421875 29.984375 -1.421875 
Q 24.8125 -1.421875 18.96875 -0.25 
Q 13.140625 0.921875 6.890625 3.21875 
L 6.890625 13.375 
Q 12.890625 10.015625 18.65625 8.296875 
Q 24.421875 6.59375 29.984375 6.59375 
Q 38.421875 6.59375 43.015625 9.90625 
Q 47.609375 13.234375 47.609375 19.390625 
Q 47.609375 24.75 44.3125 27.78125 
Q 41.015625 30.8125 33.5 32.328125 
L 27.484375 33.5 
Q 16.453125 35.6875 11.515625 40.375 
Q 6.59375 45.0625 6.59375 53.421875 
Q 6.59375 63.09375 13.40625 68.65625 
Q 20.21875 74.21875 32.171875 74.21875 
Q 37.3125 74.21875 42.625 73.28125 
Q 47.953125 72.359375 53.515625 70.515625 
" id="DejaVuSans-53"/>
      <path d="M 45.40625 46.390625 
L 45.40625 75.984375 
L 54.390625 75.984375 
L 54.390625 0 
L 45.40625 0 
L 45.40625 8.203125 
Q 42.578125 3.328125 38.25 0.953125 
Q 33.9375 -1.421875 27.875 -1.421875 
Q 17.96875 -1.421875 11.734375 6.484375 
Q 5.515625 14.40625 5.515625 27.296875 
Q 5.515625 40.1875 11.734375 48.09375 
Q 17.96875 56 27.875 56 
Q 33.9375 56 38.25 53.625 
Q 42.578125 51.265625 45.40625 46.390625 
M 14.796875 27.296875 
Q 14.796875 17.390625 18.875 11.75 
Q 22.953125 6.109375 30.078125 6.109375 
Q 37.203125 6.109375 41.296875 11.75 
Q 45.40625 17.390625 45.40625 27.296875 
Q 45.40625 37.203125 41.296875 42.84375 
Q 37.203125 48.484375 30.078125 48.484375 
Q 22.953125 48.484375 18.875 42.84375 
Q 14.796875 37.203125 14.796875 27.296875 
" id="DejaVuSans-64"/>
      <path d="M 4.203125 54.6875 
L 13.1875 54.6875 
L 24.421875 12.015625 
L 35.59375 54.6875 
L 46.1875 54.6875 
L 57.421875 12.015625 
L 68.609375 54.6875 
L 77.59375 54.6875 
L 63.28125 0 
L 52.6875 0 
L 40.921875 44.828125 
L 29.109375 0 
L 18.5 0 
z
" id="DejaVuSans-77"/>
      <path d="M 34.28125 27.484375 
Q 23.390625 27.484375 19.1875 25 
Q 14.984375 22.515625 14.984375 16.5 
Q 14.984375 11.71875 18.140625 8.90625 
Q 21.296875 6.109375 26.703125 6.109375 
Q 34.1875 6.109375 38.703125 11.40625 
Q 43.21875 16.703125 43.21875 25.484375 
L 43.21875 27.484375 
z
M 52.203125 31.203125 
L 52.203125 0 
L 43.21875 0 
L 43.21875 8.296875 
Q 40.140625 3.328125 35.546875 0.953125 
Q 30.953125 -1.421875 24.3125 -1.421875 
Q 15.921875 -1.421875 10.953125 3.296875 
Q 6 8.015625 6 15.921875 
Q 6 25.140625 12.171875 29.828125 
Q 18.359375 34.515625 30.609375 34.515625 
L 43.21875 34.515625 
L 43.21875 35.40625 
Q 43.21875 41.609375 39.140625 45 
Q 35.0625 48.390625 27.6875 48.390625 
Q 23 48.390625 18.546875 47.265625 
Q 14.109375 46.140625 10.015625 43.890625 
L 10.015625 52.203125 
Q 14.9375 54.109375 19.578125 55.046875 
Q 24.21875 56 28.609375 56 
Q 40.484375 56 46.34375 49.84375 
Q 52.203125 43.703125 52.203125 31.203125 
" id="DejaVuSans-61"/>
      <path d="M 14.796875 27.296875 
Q 14.796875 17.390625 18.875 11.75 
Q 22.953125 6.109375 30.078125 6.109375 
Q 37.203125 6.109375 41.296875 11.75 
Q 45.40625 17.390625 45.40625 27.296875 
Q 45.40625 37.203125 41.296875 42.84375 
Q 37.203125 48.484375 30.078125 48.484375 
Q 22.953125 48.484375 18.875 42.84375 
Q 14.796875 37.203125 14.796875 27.296875 
M 45.40625 8.203125 
Q 42.578125 3.328125 38.25 0.953125 
Q 33.9375 -1.421875 27.875 -1.421875 
Q 17.96875 -1.421875 11.734375 6.484375 
Q 5.515625 14.40625 5.515625 27.296875 
Q 5.515625 40.1875 11.734375 48.09375 
Q 17.96875 56 27.875 56 
Q 33.9375 56 38.25 53.625 
Q 42.578125 51.265625 45.40625 46.390625 
L 45.40625 54.6875 
L 54.390625 54.6875 
L 54.390625 -20.796875 
L 45.40625 -20.796875 
z
" id="DejaVuSans-71"/>
      <path d="M 18.109375 8.203125 
L 18.109375 -20.796875 
L 9.078125 -20.796875 
L 9.078125 54.6875 
L 18.109375 54.6875 
L 18.109375 46.390625 
Q 20.953125 51.265625 25.265625 53.625 
Q 29.59375 56 35.59375 56 
Q 45.5625 56 51.78125 48.09375 
Q 58.015625 40.1875 58.015625 27.296875 
Q 58.015625 14.40625 51.78125 6.484375 
Q 45.5625 -1.421875 35.59375 -1.421875 
Q 29.59375 -1.421875 25.265625 0.953125 
Q 20.953125 3.328125 18.109375 8.203125 
M 48.6875 27.296875 
Q 48.6875 37.203125 44.609375 42.84375 
Q 40.53125 48.484375 33.40625 48.484375 
Q 26.265625 48.484375 22.1875 42.84375 
Q 18.109375 37.203125 18.109375 27.296875 
Q 18.109375 17.390625 22.1875 11.75 
Q 26.265625 6.109375 33.40625 6.109375 
Q 40.53125 6.109375 44.609375 11.75 
Q 48.6875 17.390625 48.6875 27.296875 
" id="DejaVuSans-70"/>
     </defs>
     <g transform="translate(25.432812 279.366281)rotate(-90)scale(0.1 -0.1)">
      <use xlink:href="#DejaVuSans-53"/>
      <use x="63.476562" xlink:href="#DejaVuSans-75"/>
      <use x="126.855469" xlink:href="#DejaVuSans-63"/>
      <use x="181.835938" xlink:href="#DejaVuSans-63"/>
      <use x="236.816406" xlink:href="#DejaVuSans-65"/>
      <use x="298.339844" xlink:href="#DejaVuSans-73"/>
      <use x="350.439453" xlink:href="#DejaVuSans-73"/>
      <use x="402.539062" xlink:href="#DejaVuSans-66"/>
      <use x="437.744141" xlink:href="#DejaVuSans-75"/>
      <use x="501.123047" xlink:href="#DejaVuSans-6c"/>
      <use x="528.90625" xlink:href="#DejaVuSans-20"/>
      <use x="560.693359" xlink:href="#DejaVuSans-64"/>
      <use x="624.169922" xlink:href="#DejaVuSans-6f"/>
      <use x="685.351562" xlink:href="#DejaVuSans-77"/>
      <use x="767.138672" xlink:href="#DejaVuSans-6e"/>
      <use x="830.517578" xlink:href="#DejaVuSans-6c"/>
      <use x="858.300781" xlink:href="#DejaVuSans-6f"/>
      <use x="919.482422" xlink:href="#DejaVuSans-61"/>
      <use x="980.761719" xlink:href="#DejaVuSans-64"/>
      <use x="1044.238281" xlink:href="#DejaVuSans-20"/>
      <use x="1076.025391" xlink:href="#DejaVuSans-72"/>
      <use x="1117.107422" xlink:href="#DejaVuSans-65"/>
      <use x="1178.630859" xlink:href="#DejaVuSans-71"/>
      <use x="1242.107422" xlink:href="#DejaVuSans-75"/>
      <use x="1305.486328" xlink:href="#DejaVuSans-65"/>
      <use x="1367.009766" xlink:href="#DejaVuSans-73"/>
      <use x="1419.109375" xlink:href="#DejaVuSans-74"/>
      <use x="1458.318359" xlink:href="#DejaVuSans-73"/>
      <use x="1510.417969" xlink:href="#DejaVuSans-20"/>
      <use x="1542.205078" xlink:href="#DejaVuSans-70"/>
      <use x="1605.681641" xlink:href="#DejaVuSans-65"/>
      <use x="1667.205078" xlink:href="#DejaVuSans-72"/>
      <use x="1708.318359" xlink:href="#DejaVuSans-20"/>
      <use x="1740.105469" xlink:href="#DejaVuSans-73"/>
      <use x="1792.205078" xlink:href="#DejaVuSans-65"/>
      <use x="1853.728516" xlink:href="#DejaVuSans-63"/>
      <use x="1908.708984" xlink:href="#DejaVuSans-6f"/>
      <use x="1969.890625" xlink:href="#DejaVuSans-6e"/>
      <use x="2033.269531" xlink:href="#DejaVuSans-64"/>
     </g>
    </g>
   </g>
   <g id="line2d_29">
    <path clip-path="url(#p7c4d5f337f)" d="M 57.6 295.488 
L 57.95712 295.466435 
L 59.3856 294.141927 
L 60.09984 293.40176 
L 60.45696 293.210458 
L 60.81408 292.778462 
L 61.1712 292.565247 
L 61.88544 291.67343 
L 62.59968 291.226825 
L 62.9568 290.89222 
L 63.31392 290.334661 
L 63.67104 290.279357 
L 64.02816 289.751014 
L 64.38528 289.649102 
L 65.09952 288.653634 
L 65.45664 288.651895 
L 65.81376 287.814338 
L 66.528 287.249126 
L 67.24224 286.546177 
L 67.95648 285.914879 
L 68.3136 286.027921 
L 68.67072 285.099235 
L 69.02784 285.292277 
L 69.38496 285.054018 
L 69.74208 284.494719 
L 70.0992 284.48985 
L 70.81344 282.997691 
L 71.52768 283.029691 
L 72.24192 281.88605 
L 72.59904 281.665878 
L 73.6704 280.509716 
L 74.02752 280.29824 
L 74.38464 280.26311 
L 74.74176 279.695115 
L 75.456 279.231816 
L 75.81312 278.136175 
L 76.17024 278.05061 
L 76.52736 278.16574 
L 76.88448 277.450268 
L 77.2416 277.598789 
L 77.59872 277.361922 
L 78.31296 276.274976 
L 79.38432 274.957076 
L 80.09856 275.135161 
L 80.8128 273.426309 
L 81.16992 273.110834 
L 81.88416 273.629785 
L 82.5984 272.33832 
L 82.95552 272.199887 
L 83.66976 270.782857 
L 84.02688 270.775205 
L 84.384 271.313287 
L 84.74112 270.324427 
L 85.09824 270.669467 
L 85.45536 269.146352 
L 85.81248 268.933485 
L 86.1696 269.880606 
L 86.52672 268.361316 
L 86.88384 268.222187 
L 87.24096 267.222893 
L 87.9552 266.43264 
L 88.31232 266.738028 
L 88.66944 265.815255 
L 89.02656 267.094547 
L 89.38368 265.008655 
L 89.7408 266.139426 
L 90.09792 265.43752 
L 90.45504 265.535954 
L 90.81216 264.948829 
L 91.16928 265.125175 
L 91.5264 263.554061 
L 91.88352 264.677875 
L 92.24064 263.524496 
L 92.59776 263.45667 
L 92.95488 261.87999 
L 93.312 262.430941 
L 93.66912 262.119292 
L 94.02624 260.961043 
L 94.38336 260.338441 
L 94.74048 260.854957 
L 95.0976 259.907836 
L 95.45472 261.264344 
L 95.81184 259.28906 
L 96.16896 259.07654 
L 96.52608 259.875141 
L 96.8832 259.649752 
L 97.24032 257.437253 
L 97.59744 258.793065 
L 97.95456 257.99203 
L 98.31168 258.365243 
L 98.6688 258.496024 
L 99.38304 257.792727 
L 99.74016 256.258482 
L 100.09728 255.45362 
L 100.4544 255.812921 
L 100.81152 254.171546 
L 101.16864 254.807714 
L 101.52576 254.977799 
L 101.88288 254.18685 
L 102.24 252.457129 
L 102.59712 253.076601 
L 102.95424 252.889124 
L 103.66848 251.386879 
L 104.0256 251.368444 
L 104.38272 250.369498 
L 104.73984 253.024427 
L 105.09696 251.495747 
L 105.45408 252.066176 
L 105.8112 249.39629 
L 106.16832 250.396628 
L 106.52544 250.35315 
L 106.88256 249.738895 
L 107.23968 247.465875 
L 107.5968 249.251944 
L 107.95392 246.893706 
L 108.66816 246.847446 
L 109.02528 248.920816 
L 109.3824 246.508667 
L 109.73952 245.05616 
L 110.09664 247.013357 
L 110.45376 246.663448 
L 110.81088 244.480861 
L 111.168 244.622425 
L 111.52512 245.95389 
L 111.88224 244.683642 
L 112.23936 245.245027 
L 112.59648 243.782086 
L 112.9536 243.225222 
L 113.31072 243.129223 
L 113.66784 243.464176 
L 114.02496 244.150082 
L 114.38208 240.702812 
L 114.7392 242.557402 
L 115.09632 240.785942 
L 115.45344 241.9668 
L 115.81056 242.003321 
L 116.16768 240.295512 
L 116.5248 239.535172 
L 116.88192 238.107012 
L 117.23904 240.325077 
L 117.59616 240.135861 
L 117.95328 237.952927 
L 118.3104 237.06424 
L 118.66752 239.720561 
L 119.02464 239.559867 
L 119.38176 239.670823 
L 119.73888 239.507346 
L 120.096 236.235379 
L 120.45312 238.778658 
L 120.81024 236.7352 
L 121.16736 236.574854 
L 121.52448 234.629482 
L 121.8816 236.189814 
L 122.23872 237.215891 
L 122.59584 235.801992 
L 122.95296 235.770688 
L 123.31008 236.21764 
L 123.6672 234.074009 
L 124.02432 234.568961 
L 124.38144 232.031595 
L 124.73856 231.960639 
L 125.09568 230.650044 
L 125.4528 232.992977 
L 125.80992 232.20655 
L 126.16704 229.381883 
L 126.52416 230.487959 
L 126.88128 230.895607 
L 127.2384 232.199246 
L 127.59552 230.803781 
L 127.95264 231.652121 
L 128.30976 230.304308 
L 128.66688 228.122765 
L 129.024 227.237209 
L 129.38112 227.134253 
L 129.73824 227.800681 
L 130.09536 230.063615 
L 130.45248 224.897058 
L 130.8096 225.897048 
L 131.16672 228.565543 
L 131.52384 228.546413 
L 132.23808 225.453922 
L 132.5952 227.009037 
L 132.95232 223.681418 
L 133.30944 222.523865 
L 133.66656 221.861958 
L 134.02368 224.541931 
L 134.3808 223.449769 
L 134.73792 222.971165 
L 135.09504 223.294292 
L 135.45216 221.251182 
L 135.80928 223.335335 
L 136.1664 223.384726 
L 136.52352 219.396244 
L 136.88064 222.374649 
L 137.23776 221.36005 
L 137.59488 222.204216 
L 137.952 222.702646 
L 138.30912 217.590349 
L 138.66624 220.085281 
L 139.02336 219.290854 
L 139.38048 219.273115 
L 139.7376 219.067552 
L 140.09472 216.444969 
L 140.45184 216.259232 
L 140.80896 219.796936 
L 141.16608 214.849855 
L 141.5232 215.368111 
L 141.88032 218.300951 
L 142.23744 215.65263 
L 142.59456 214.700291 
L 142.95168 217.286352 
L 143.3088 217.583045 
L 143.66592 217.509654 
L 144.02304 212.859962 
L 144.38016 215.623065 
L 144.73728 215.506892 
L 145.0944 216.412622 
L 145.45152 213.734736 
L 145.80864 213.930212 
L 146.16576 213.206393 
L 146.52288 209.726776 
L 147.23712 214.162558 
L 147.59424 210.039469 
L 147.95136 213.573694 
L 148.30848 212.580661 
L 148.6656 207.671145 
L 149.02272 206.776893 
L 149.37984 206.685763 
L 149.73696 206.967152 
L 150.4512 210.665202 
L 150.80832 211.144849 
L 151.16544 209.831471 
L 151.52256 207.466973 
L 151.87968 207.169932 
L 152.2368 209.776167 
L 152.59392 207.314279 
L 152.95104 207.293757 
L 153.30816 208.351833 
L 153.66528 208.307312 
L 154.0224 205.812381 
L 154.37952 204.80613 
L 154.73664 205.397428 
L 155.09376 204.958824 
L 155.45088 203.932052 
L 155.808 201.199905 
L 156.16512 204.323352 
L 156.87936 199.64653 
L 157.23648 199.327576 
L 157.5936 203.774488 
L 157.95072 199.49801 
L 158.30784 198.056981 
L 158.66496 200.128612 
L 159.02208 202.964409 
L 159.3792 196.746385 
L 159.73632 196.538039 
L 160.09344 202.899019 
L 160.45056 196.004827 
L 160.80768 199.226012 
L 161.1648 199.512966 
L 161.52192 196.396476 
L 161.87904 196.097348 
L 162.23616 196.119957 
L 162.59328 200.503912 
L 162.9504 197.428813 
L 163.30752 197.174555 
L 163.66464 197.159598 
L 164.02176 193.417375 
L 164.37888 194.369366 
L 164.736 192.072693 
L 165.09312 195.50118 
L 165.45024 192.410429 
L 165.80736 192.687643 
L 166.16448 194.471625 
L 166.5216 189.809064 
L 166.87872 191.174963 
L 167.23584 189.368025 
L 167.59296 191.540872 
L 167.95008 194.806231 
L 168.3072 191.739479 
L 168.66432 191.941216 
L 169.02144 188.333252 
L 169.37856 192.01252 
L 169.73568 188.569424 
L 170.0928 193.818762 
L 171.16416 186.328403 
L 171.52128 186.15484 
L 171.8784 188.989941 
L 172.23552 189.578457 
L 172.59264 183.971209 
L 172.94976 189.915149 
L 173.30688 188.388208 
L 173.664 187.471348 
L 174.37824 182.385834 
L 175.09248 187.723867 
L 175.4496 186.270317 
L 175.80672 188.742987 
L 176.16384 182.95522 
L 176.52096 185.315196 
L 176.87808 182.568093 
L 177.2352 183.167043 
L 177.59232 182.577136 
L 177.94944 182.363225 
L 178.30656 180.635591 
L 178.66368 180.592113 
L 179.0208 183.191043 
L 179.37792 182.93435 
L 179.73504 183.169826 
L 180.09216 182.022012 
L 180.8064 177.275972 
L 181.16352 178.735088 
L 181.52064 181.742362 
L 181.87776 182.023751 
L 182.23488 176.895802 
L 182.592 178.361874 
L 182.94912 177.342406 
L 183.30624 180.364637 
L 183.66336 177.380667 
L 184.02048 180.079075 
L 184.3776 180.149683 
L 184.73472 172.023156 
L 185.09184 172.58802 
L 185.44896 174.326089 
L 185.80608 173.069058 
L 186.1632 174.278437 
L 186.52032 172.015851 
L 186.87744 176.441198 
L 187.23456 169.624223 
L 187.59168 172.112546 
L 187.9488 172.09272 
L 188.30592 171.415162 
L 188.66304 171.182468 
L 189.37728 175.516686 
L 190.09152 172.886451 
L 190.44864 171.830462 
L 190.80576 168.4458 
L 191.16288 173.158101 
L 191.52 167.890675 
L 191.87712 171.394292 
L 192.23424 173.468358 
L 192.59136 167.916414 
L 193.3056 170.404042 
L 193.66272 169.508051 
L 194.37696 164.41558 
L 194.73408 164.633317 
L 195.0912 168.809971 
L 195.44832 164.983922 
L 195.80544 164.908792 
L 196.16256 170.049958 
L 196.51968 166.249649 
L 196.8768 160.893529 
L 197.23392 161.128309 
L 197.59104 165.098008 
L 197.94816 167.443723 
L 198.6624 160.491098 
L 199.37664 166.166171 
L 199.73376 164.705664 
L 200.09088 160.733182 
L 200.448 161.495262 
L 200.80512 164.430189 
L 201.16224 164.308103 
L 201.51936 162.214907 
L 201.87648 163.063594 
L 202.2336 162.557512 
L 202.59072 160.637183 
L 202.94784 160.54188 
L 203.30496 159.325544 
L 203.66208 153.952033 
L 204.0192 159.445195 
L 204.37632 157.070958 
L 204.73344 158.669551 
L 205.09056 154.113423 
L 205.44768 153.568733 
L 205.8048 153.831339 
L 206.51904 158.243816 
L 206.87616 154.65707 
L 207.23328 155.329411 
L 207.5904 150.3312 
L 207.94752 154.546114 
L 208.30464 152.741263 
L 208.66176 158.344685 
L 209.01888 155.686624 
L 209.376 148.123222 
L 209.73312 152.411875 
L 210.09024 154.684895 
L 210.44736 148.132961 
L 210.80448 154.26403 
L 211.1616 152.646307 
L 211.51872 152.827523 
L 211.87584 152.369788 
L 212.23296 149.655033 
L 212.59008 150.162854 
L 212.9472 146.342718 
L 213.30432 151.710317 
L 213.66144 145.102035 
L 214.01856 149.844248 
L 214.37568 145.598726 
L 214.7328 151.566666 
L 215.08992 151.882837 
L 215.44704 150.189984 
L 215.80416 145.546205 
L 216.16128 150.903716 
L 216.5184 145.170904 
L 217.23264 147.018886 
L 217.58976 145.977157 
L 217.94688 140.548342 
L 218.304 144.190392 
L 218.66112 139.988348 
L 219.01824 149.250515 
L 219.37536 143.631789 
L 219.73248 145.385163 
L 220.0896 145.474901 
L 220.44672 142.179978 
L 221.16096 141.439463 
L 221.51808 142.018588 
L 221.8752 137.225941 
L 222.23232 142.066935 
L 222.58944 138.403668 
L 222.94656 144.499954 
L 223.30368 142.885362 
L 223.6608 139.826958 
L 224.01792 141.919806 
L 224.37504 137.609937 
L 225.08928 133.369632 
L 225.4464 134.636749 
L 225.80352 141.289204 
L 226.16064 141.110423 
L 226.51776 135.289264 
L 226.87488 138.989053 
L 227.232 134.309796 
L 227.58912 138.98801 
L 227.94624 133.095547 
L 228.30336 140.354257 
L 228.66048 137.230115 
L 229.0176 131.382869 
L 229.37472 132.129296 
L 229.73184 130.005144 
L 230.08896 139.174791 
L 230.44608 129.894536 
L 230.8032 137.20368 
L 231.16032 127.95473 
L 231.51744 137.154289 
L 231.87456 131.457999 
L 232.23168 129.371063 
L 232.5888 133.039548 
L 232.94592 133.388762 
L 233.30304 132.243382 
L 233.66016 135.884041 
L 234.01728 125.841012 
L 234.3744 125.918924 
L 234.73152 135.031528 
L 235.08864 127.628472 
L 235.80288 131.981472 
L 236.16 129.1575 
L 236.87424 121.829574 
L 237.23136 122.670957 
L 237.58848 130.953308 
L 237.9456 125.437538 
L 238.30272 131.223218 
L 239.01696 125.61284 
L 239.37408 127.446561 
L 239.7312 125.588493 
L 240.08832 126.673003 
L 240.44544 124.310245 
L 240.80256 118.966646 
L 241.15968 117.220229 
L 241.5168 123.104691 
L 241.87392 122.693913 
L 242.23104 124.787805 
L 242.58816 124.343288 
L 242.94528 120.941931 
L 243.65952 124.682415 
L 244.01664 115.241118 
L 244.37376 115.863025 
L 244.73088 120.5075 
L 245.088 113.372615 
L 245.44512 118.929081 
L 245.80224 113.562874 
L 246.15936 124.015639 
L 246.51648 113.450876 
L 246.8736 111.918717 
L 247.23072 116.950319 
L 247.58784 117.818136 
L 247.94496 113.330529 
L 248.30208 121.205232 
L 248.6592 113.961479 
L 249.01632 115.813982 
L 249.37344 109.032485 
L 249.73056 119.936723 
L 250.08768 115.908938 
L 250.4448 109.658914 
L 250.80192 108.992486 
L 251.15904 119.835507 
L 251.51616 117.292576 
L 251.87328 108.968138 
L 252.2304 107.825541 
L 252.58752 118.083872 
L 252.94464 116.722843 
L 253.30176 106.797725 
L 253.65888 114.524952 
L 254.016 117.586486 
L 254.37312 115.333291 
L 254.73024 115.254336 
L 255.08736 106.618597 
L 255.44448 116.506845 
L 255.8016 106.648161 
L 256.15872 116.233108 
L 256.51584 107.86554 
L 256.87296 111.304462 
L 257.23008 116.19137 
L 257.5872 105.57339 
L 257.94432 111.105856 
L 258.30144 111.040465 
L 258.65856 109.233875 
L 259.01568 114.301302 
L 259.3728 107.706238 
L 259.72992 116.983014 
L 260.08704 110.165691 
L 260.44416 106.645727 
L 260.80128 113.859219 
L 261.1584 108.276667 
L 261.51552 108.912834 
L 261.87264 108.970225 
L 262.22976 105.194611 
L 262.58688 111.0589 
L 263.30112 114.332258 
L 263.65824 110.659251 
L 264.01536 108.674228 
L 264.37248 113.575744 
L 264.7296 113.50444 
L 265.08672 108.408144 
L 265.44384 108.795618 
L 265.80096 111.115595 
L 266.15808 109.791086 
L 266.5152 103.465585 
L 266.87232 110.572991 
L 267.22944 114.144434 
L 267.58656 109.638392 
L 267.94368 112.969141 
L 268.3008 100.703178 
L 268.65792 109.985519 
L 269.01504 111.339245 
L 269.37216 113.20253 
L 269.72928 99.996402 
L 270.0864 106.383816 
L 270.44352 110.034214 
L 271.15776 99.401278 
L 271.51488 107.171634 
L 271.872 112.322539 
L 272.22912 99.435712 
L 272.58624 110.342037 
L 272.94336 111.572981 
L 273.30048 103.2315 
L 273.6576 99.952229 
L 274.01472 109.799434 
L 274.37184 105.053047 
L 274.72896 101.990817 
L 275.08608 108.631098 
L 275.4432 107.704499 
L 275.80032 110.970901 
L 276.15744 106.473902 
L 276.51456 106.560162 
L 276.87168 104.002623 
L 277.2288 108.015104 
L 277.58592 105.176872 
L 277.94304 98.095204 
L 278.30016 98.735545 
L 278.65728 98.050335 
L 279.0144 99.964055 
L 279.37152 101.014131 
L 279.72864 105.914604 
L 280.08576 106.830768 
L 280.44288 104.300359 
L 280.8 108.878052 
L 281.15712 97.068432 
L 281.51424 108.600837 
L 281.87136 97.716773 
L 282.22848 95.412101 
L 282.5856 107.292329 
L 282.94272 101.230825 
L 283.29984 99.22041 
L 283.65696 94.993322 
L 284.01408 103.407151 
L 284.3712 107.158069 
L 285.08544 95.652446 
L 285.44256 94.835063 
L 285.79968 104.214447 
L 286.51392 100.121618 
L 286.87104 93.757161 
L 287.58528 100.6437 
L 287.9424 102.387683 
L 288.29952 98.043378 
L 288.65664 106.353904 
L 289.01376 106.467642 
L 289.728 92.797518 
L 290.08512 102.599159 
L 290.44224 100.325442 
L 290.79936 104.912527 
L 291.15648 96.614175 
L 291.5136 97.955032 
L 291.87072 96.533133 
L 292.22784 99.898316 
L 292.58496 95.692793 
L 292.94208 92.946734 
L 293.2992 97.638513 
L 293.65632 99.189106 
L 294.01344 95.318536 
L 294.37056 103.246457 
L 294.72768 97.199213 
L 295.0848 104.18836 
L 295.44192 101.62456 
L 295.79904 92.83717 
L 296.15616 103.203327 
L 296.8704 95.040626 
L 297.22752 93.520294 
L 297.58464 102.887156 
L 297.94176 92.57526 
L 298.29888 93.254905 
L 298.656 100.246835 
L 299.01312 101.542822 
L 299.37024 101.358823 
L 299.72736 96.465307 
L 300.08448 101.616908 
L 300.4416 98.362332 
L 300.79872 91.826745 
L 301.15584 96.651045 
L 301.51296 93.66464 
L 301.87008 97.577644 
L 302.2272 93.698031 
L 302.58432 97.309473 
L 302.94144 98.1039 
L 303.65568 91.133187 
L 304.0128 88.395823 
L 304.36992 100.151879 
L 304.72704 94.454545 
L 305.08416 96.044442 
L 305.44128 96.887912 
L 305.7984 86.241062 
L 306.15552 91.094231 
L 306.51264 97.807207 
L 306.86976 86.670623 
L 307.22688 99.975185 
L 307.584 91.892832 
L 307.94112 90.49702 
L 308.29824 94.575587 
L 308.65536 92.76691 
L 309.01248 85.547504 
L 309.3696 94.392633 
L 309.72672 99.032238 
L 310.44096 92.893169 
L 310.79808 93.954028 
L 311.1552 93.251079 
L 311.51232 90.737365 
L 311.86944 97.205126 
L 312.22656 89.371118 
L 312.58368 96.679566 
L 312.9408 83.94126 
L 313.29792 87.280704 
L 313.65504 94.691064 
L 314.01216 87.2654 
L 314.36928 93.432642 
L 314.7264 92.683085 
L 315.08352 86.154455 
L 315.44064 93.37873 
L 315.79776 83.299527 
L 316.15488 93.613162 
L 316.512 96.066007 
L 316.86912 87.858437 
L 317.22624 90.386064 
L 317.58336 85.734633 
L 317.94048 84.468559 
L 318.2976 93.545337 
L 318.65472 92.493521 
L 319.36896 84.746469 
L 319.72608 84.530819 
L 320.0832 88.41078 
L 320.44032 80.89016 
L 320.79744 85.150291 
L 321.15456 87.258444 
L 321.51168 88.146782 
L 321.8688 93.989854 
L 322.22592 91.75579 
L 322.58304 90.668148 
L 322.94016 90.532845 
L 323.29728 94.303242 
L 323.6544 93.185688 
L 324.01152 83.428569 
L 324.36864 79.28635 
L 324.72576 83.499873 
L 325.08288 90.937363 
L 325.44 89.678941 
L 325.79712 79.117656 
L 326.15424 79.828605 
L 326.51136 84.314473 
L 326.86848 79.122525 
L 327.2256 87.330791 
L 327.58272 85.21429 
L 327.93984 92.15509 
L 328.29696 88.299129 
L 328.65408 85.752372 
L 329.0112 87.221227 
L 329.36832 80.223036 
L 329.72544 88.497388 
L 330.08256 81.431024 
L 330.43968 90.435803 
L 330.7968 83.776739 
L 331.15392 91.229882 
L 331.51104 81.58824 
L 331.86816 87.97461 
L 332.22528 90.191284 
L 332.5824 91.350924 
L 332.93952 86.900186 
L 333.29664 84.982988 
L 333.65376 90.297717 
L 334.01088 89.766592 
L 334.368 80.544772 
L 334.72512 82.798662 
L 335.08224 87.507832 
L 335.43936 83.795522 
L 335.79648 88.186782 
L 336.1536 87.082445 
L 336.51072 89.857374 
L 336.86784 88.907818 
L 337.22496 84.475167 
L 337.58208 76.011252 
L 337.9392 75.548996 
L 338.29632 80.264427 
L 338.65344 74.31353 
L 339.36768 87.145053 
L 339.7248 88.475475 
L 340.43904 78.853659 
L 340.79616 86.282801 
L 341.15328 85.483505 
L 341.5104 84.075867 
L 341.86752 81.045636 
L 342.22464 86.886621 
L 342.58176 86.788883 
L 342.93888 74.450225 
L 343.296 76.111425 
L 343.65312 80.556598 
L 344.01024 83.005269 
L 344.36736 81.106853 
L 344.72448 74.353182 
L 345.0816 74.375095 
L 345.43872 83.048399 
L 345.79584 85.145421 
L 346.15296 83.824391 
L 346.51008 76.113512 
L 346.8672 76.420292 
L 347.58144 85.793067 
L 347.93856 81.528066 
L 348.29568 81.6505 
L 348.6528 71.001564 
L 349.00992 85.772198 
L 349.36704 76.70655 
L 349.72416 79.981995 
L 350.08128 85.644199 
L 350.4384 83.796565 
L 350.79552 83.289788 
L 351.15264 85.059161 
L 351.50976 76.80394 
L 351.86688 82.986834 
L 352.224 81.307895 
L 352.58112 78.328794 
L 352.93824 84.284908 
L 353.29536 70.903478 
L 353.65248 71.769904 
L 354.0096 73.573712 
L 354.36672 80.779204 
L 354.72384 74.041881 
L 355.08096 84.117258 
L 355.43808 84.421255 
L 355.7952 80.747205 
L 356.15232 82.753793 
L 356.86656 74.804308 
L 357.22368 70.273571 
L 357.5808 82.21919 
L 357.93792 79.156612 
L 358.29504 71.331647 
L 358.65216 70.162268 
L 359.00928 76.106208 
L 359.72352 78.362533 
L 360.08064 81.021985 
L 360.43776 81.089114 
L 360.79488 72.629373 
L 361.152 70.720175 
L 361.86624 79.000092 
L 362.22336 77.316631 
L 362.58048 67.661771 
L 362.9376 74.524311 
L 363.29472 79.061309 
L 363.65184 66.239177 
L 364.00896 78.988266 
L 364.36608 70.100355 
L 364.7232 77.530194 
L 365.08032 76.308293 
L 365.43744 81.329112 
L 365.79456 69.148713 
L 366.15168 77.110372 
L 366.5088 78.294012 
L 366.86592 80.853291 
L 367.22304 64.848234 
L 367.58016 72.371289 
L 367.93728 65.348055 
L 368.2944 80.362165 
L 368.65152 66.076396 
L 369.00864 64.374152 
L 369.36576 69.288537 
L 369.72288 77.940972 
L 370.08 77.103067 
L 370.43712 69.815489 
L 370.79424 75.978557 
L 371.15136 70.049225 
L 371.50848 78.122188 
L 371.8656 74.369878 
L 372.22272 74.115271 
L 372.57984 68.468024 
L 372.93696 66.319524 
L 373.29408 74.900655 
L 373.6512 74.662744 
L 374.00832 64.02633 
L 374.36544 72.96224 
L 374.72256 68.916715 
L 375.07968 76.490552 
L 375.4368 77.840451 
L 375.79392 75.820993 
L 376.15104 76.992112 
L 376.50816 65.666661 
L 376.86528 61.901829 
L 377.2224 65.249274 
L 377.57952 65.188057 
L 377.93664 74.858568 
L 378.29376 75.524649 
L 378.65088 63.444422 
L 379.008 63.465292 
L 379.36512 65.55814 
L 379.72224 63.013818 
L 380.07936 66.886127 
L 380.43648 75.80082 
L 380.7936 67.262123 
L 381.15072 72.823458 
L 381.50784 69.898618 
L 381.86496 63.803375 
L 382.22208 61.696962 
L 382.5792 72.6172 
L 382.93632 60.022892 
L 383.29344 70.688523 
L 383.65056 59.784633 
L 384.00768 74.249183 
L 384.3648 65.075362 
L 384.72192 68.858629 
L 385.07904 64.014504 
L 385.43616 74.547267 
L 385.79328 75.24013 
L 386.1504 72.56607 
L 386.50752 71.698948 
L 386.86464 60.651755 
L 387.22176 64.230849 
L 387.57888 70.173746 
L 388.65024 62.703908 
L 389.00736 72.270768 
L 389.7216 64.181458 
L 390.07872 69.194278 
L 390.43584 71.025563 
L 390.79296 69.837401 
L 391.15008 62.370346 
L 391.5072 73.272497 
L 391.86432 57.343962 
L 392.57856 69.9734 
L 392.93568 57.0344 
L 393.2928 73.20015 
L 393.64992 62.646517 
L 394.36416 71.019303 
L 394.72128 61.792613 
L 395.0784 72.728851 
L 395.43552 59.2309 
L 396.14976 67.688206 
L 396.50688 60.995751 
L 396.864 61.007925 
L 397.22112 65.748399 
L 397.57824 68.271504 
L 397.93536 63.62216 
L 398.29248 64.158502 
L 398.6496 65.504576 
L 399.00672 58.032303 
L 399.36384 64.506325 
L 399.72096 63.812419 
L 400.07808 68.488198 
L 400.4352 58.216649 
L 400.79232 58.212823 
L 401.14944 67.221428 
L 401.50656 67.306297 
L 401.86368 70.166789 
L 402.2208 67.764379 
L 402.57792 67.646815 
L 402.93504 65.987353 
L 403.29216 67.394991 
L 403.64928 66.497261 
L 404.0064 62.442693 
L 404.36352 61.81383 
L 404.72064 68.26733 
L 405.07776 56.052845 
L 405.43488 53.568 
L 405.792 56.132148 
L 406.14912 56.622926 
L 406.50624 58.578384 
L 406.86336 53.570783 
L 407.5776 59.359246 
L 407.93472 67.833248 
L 408.29184 56.885184 
L 408.64896 61.014186 
L 409.00608 62.790516 
L 409.3632 57.087617 
L 409.72032 60.812101 
L 410.07744 67.240906 
L 410.43456 58.351952 
L 410.79168 57.702219 
L 411.1488 55.477546 
L 411.50592 67.155689 
L 411.86304 66.475348 
L 412.22016 55.407981 
L 412.9344 67.295862 
L 413.29152 60.76271 
L 413.64864 59.32342 
L 414.00576 59.205508 
L 414.36288 67.112212 
L 414.72 61.410704 
L 414.72 61.410704 
" style="fill:none;stroke:#000080;stroke-linecap:square;stroke-width:0.5;"/>
   </g>
   <g id="patch_3">
    <path d="M 57.6 307.584 
L 57.6 41.472 
" style="fill:none;stroke:#000000;stroke-linecap:square;stroke-linejoin:miter;stroke-width:0.8;"/>
   </g>
   <g id="patch_4">
    <path d="M 414.72 307.584 
L 414.72 41.472 
" style="fill:none;stroke:#000000;stroke-linecap:square;stroke-linejoin:miter;stroke-width:0.8;"/>
   </g>
   <g id="patch_5">
    <path d="M 57.6 307.584 
L 414.72 307.584 
" style="fill:none;stroke:#000000;stroke-linecap:square;stroke-linejoin:miter;stroke-width:0.8;"/>
   </g>
   <g id="patch_6">
    <path d="M 57.6 41.472 
L 414.72 41.472 
" style="fill:none;stroke:#000000;stroke-linecap:square;stroke-linejoin:miter;stroke-width:0.8;"/>
   </g>
   <g id="text_17">
    <!-- Test -->
    <defs>
     <path d="M -0.296875 72.90625 
L 61.375 72.90625 
L 61.375 64.59375 
L 35.5 64.59375 
L 35.5 0 
L 25.59375 0 
L 25.59375 64.59375 
L -0.296875 64.59375 
z
" id="DejaVuSans-54"/>
    </defs>
    <g transform="translate(223.341563 35.472)scale(0.12 -0.12)">
     <use xlink:href="#DejaVuSans-54"/>
     <use x="60.818359" xlink:href="#DejaVuSans-65"/>
     <use x="122.341797" xlink:href="#DejaVuSans-73"/>
     <use x="174.441406" xlink:href="#DejaVuSans-74"/>
    </g>
   </g>
   <g id="legend_1">
    <g id="patch_7">
     <path d="M 64.6 64.150125 
L 306.276563 64.150125 
Q 308.276563 64.150125 308.276563 62.150125 
L 308.276563 48.472 
Q 308.276563 46.472 306.276563 46.472 
L 64.6 46.472 
Q 62.6 46.472 62.6 48.472 
L 62.6 62.150125 
Q 62.6 64.150125 64.6 64.150125 
z
" style="fill:#ffffff;opacity:0.8;stroke:#cccccc;stroke-linejoin:miter;"/>
    </g>
    <g id="line2d_30">
     <path d="M 66.6 54.570438 
L 86.6 54.570438 
" style="fill:none;stroke:#000080;stroke-linecap:square;stroke-width:0.5;"/>
    </g>
    <g id="line2d_31"/>
    <g id="text_18">
     <!-- Successful download requests per second -->
     <g transform="translate(94.6 58.070438)scale(0.1 -0.1)">
      <use xlink:href="#DejaVuSans-53"/>
      <use x="63.476562" xlink:href="#DejaVuSans-75"/>
      <use x="126.855469" xlink:href="#DejaVuSans-63"/>
      <use x="181.835938" xlink:href="#DejaVuSans-63"/>
      <use x="236.816406" xlink:href="#DejaVuSans-65"/>
      <use x="298.339844" xlink:href="#DejaVuSans-73"/>
      <use x="350.439453" xlink:href="#DejaVuSans-73"/>
      <use x="402.539062" xlink:href="#DejaVuSans-66"/>
      <use x="437.744141" xlink:href="#DejaVuSans-75"/>
      <use x="501.123047" xlink:href="#DejaVuSans-6c"/>
      <use x="528.90625" xlink:href="#DejaVuSans-20"/>
      <use x="560.693359" xlink:href="#DejaVuSans-64"/>
      <use x="624.169922" xlink:href="#DejaVuSans-6f"/>
      <use x="685.351562" xlink:href="#DejaVuSans-77"/>
      <use x="767.138672" xlink:href="#DejaVuSans-6e"/>
      <use x="830.517578" xlink:href="#DejaVuSans-6c"/>
      <use x="858.300781" xlink:href="#DejaVuSans-6f"/>
      <use x="919.482422" xlink:href="#DejaVuSans-61"/>
      <use x="980.761719" xlink:href="#DejaVuSans-64"/>
      <use x="1044.238281" xlink:href="#DejaVuSans-20"/>
      <use x="1076.025391" xlink:href="#DejaVuSans-72"/>
      <use x="1117.107422" xlink:href="#DejaVuSans-65"/>
      <use x="1178.630859" xlink:href="#DejaVuSans-71"/>
      <use x="1242.107422" xlink:href="#DejaVuSans-75"/>
      <use x="1305.486328" xlink:href="#DejaVuSans-65"/>
      <use x="1367.009766" xlink:href="#DejaVuSans-73"/>
      <use x="1419.109375" xlink:href="#DejaVuSans-74"/>
      <use x="1458.318359" xlink:href="#DejaVuSans-73"/>
      <use x="1510.417969" xlink:href="#DejaVuSans-20"/>
      <use x="1542.205078" xlink:href="#DejaVuSans-70"/>
      <use x="1605.681641" xlink:href="#DejaVuSans-65"/>
      <use x="1667.205078" xlink:href="#DejaVuSans-72"/>
      <use x="1708.318359" xlink:href="#DejaVuSans-20"/>
      <use x="1740.105469" xlink:href="#DejaVuSans-73"/>
      <use x="1792.205078" xlink:href="#DejaVuSans-65"/>
      <use x="1853.728516" xlink:href="#DejaVuSans-63"/>
      <use x="1908.708984" xlink:href="#DejaVuSans-6f"/>
      <use x="1969.890625" xlink:href="#DejaVuSans-6e"/>
      <use x="2033.269531" xlink:href="#DejaVuSans-64"/>
     </g>
    </g>
   </g>
  </g>
 </g>
 <defs>
  <clipPath id="p7c4d5f337f">
   <rect height="266.112" width="357.12" x="57.6" y="41.472"/>
  </clipPath>
 </defs>
</svg>
