<?xml version="1.0" encoding="utf-8" standalone="no"?>
<!DOCTYPE svg PUBLIC "-//W3C//DTD SVG 1.1//EN"
  "http://www.w3.org/Graphics/SVG/1.1/DTD/svg11.dtd">
<!-- Created with matplotlib (http://matplotlib.org/) -->
<svg height="345pt" version="1.1" viewBox="0 0 460 345" width="460pt" xmlns="http://www.w3.org/2000/svg" xmlns:xlink="http://www.w3.org/1999/xlink">
 <defs>
  <style type="text/css">
*{stroke-linecap:butt;stroke-linejoin:round;}
  </style>
 </defs>
 <g id="figure_1">
  <g id="patch_1">
   <path d="M 0 345.6 
L 460.8 345.6 
L 460.8 0 
L 0 0 
z
" style="fill:#ffffff;"/>
  </g>
  <g id="axes_1">
   <g id="patch_2">
    <path d="M 57.6 307.584 
L 414.72 307.584 
L 414.72 41.472 
L 57.6 41.472 
z
" style="fill:#ffffff;"/>
   </g>
   <g id="matplotlib.axis_1">
    <g id="xtick_1">
     <g id="line2d_1">
      <defs>
       <path d="M 0 0 
L 0 3.5 
" id="m93e9068e82" style="stroke:#000000;stroke-width:0.8;"/>
      </defs>
      <g>
       <use style="stroke:#000000;stroke-width:0.8;" x="57.6" xlink:href="#m93e9068e82" y="307.584"/>
      </g>
     </g>
     <g id="text_1">
      <!-- 0 -->
      <defs>
       <path d="M 31.78125 66.40625 
Q 24.171875 66.40625 20.328125 58.90625 
Q 16.5 51.421875 16.5 36.375 
Q 16.5 21.390625 20.328125 13.890625 
Q 24.171875 6.390625 31.78125 6.390625 
Q 39.453125 6.390625 43.28125 13.890625 
Q 47.125 21.390625 47.125 36.375 
Q 47.125 51.421875 43.28125 58.90625 
Q 39.453125 66.40625 31.78125 66.40625 
M 31.78125 74.21875 
Q 44.046875 74.21875 50.515625 64.515625 
Q 56.984375 54.828125 56.984375 36.375 
Q 56.984375 17.96875 50.515625 8.265625 
Q 44.046875 -1.421875 31.78125 -1.421875 
Q 19.53125 -1.421875 13.0625 8.265625 
Q 6.59375 17.96875 6.59375 36.375 
Q 6.59375 54.828125 13.0625 64.515625 
Q 19.53125 74.21875 31.78125 74.21875 
" id="DejaVuSans-30"/>
      </defs>
      <g transform="translate(54.41875 322.182437)scale(0.1 -0.1)">
       <use xlink:href="#DejaVuSans-30"/>
      </g>
     </g>
    </g>
    <g id="xtick_2">
     <g id="line2d_2">
      <g>
       <use style="stroke:#000000;stroke-width:0.8;" x="129.095495" xlink:href="#m93e9068e82" y="307.584"/>
      </g>
     </g>
     <g id="text_2">
      <!-- 200 -->
      <defs>
       <path d="M 19.1875 8.296875 
L 53.609375 8.296875 
L 53.609375 0 
L 7.328125 0 
L 7.328125 8.296875 
Q 12.9375 14.109375 22.625 23.890625 
Q 32.328125 33.6875 34.8125 36.53125 
Q 39.546875 41.84375 41.421875 45.53125 
Q 43.3125 49.21875 43.3125 52.78125 
Q 43.3125 58.59375 39.234375 62.25 
Q 35.15625 65.921875 28.609375 65.921875 
Q 23.96875 65.921875 18.8125 64.3125 
Q 13.671875 62.703125 7.8125 59.421875 
L 7.8125 69.390625 
Q 13.765625 71.78125 18.9375 73 
Q 24.125 74.21875 28.421875 74.21875 
Q 39.75 74.21875 46.484375 68.546875 
Q 53.21875 62.890625 53.21875 53.421875 
Q 53.21875 48.921875 51.53125 44.890625 
Q 49.859375 40.875 45.40625 35.40625 
Q 44.1875 33.984375 37.640625 27.21875 
Q 31.109375 20.453125 19.1875 8.296875 
" id="DejaVuSans-32"/>
      </defs>
      <g transform="translate(119.551745 322.182437)scale(0.1 -0.1)">
       <use xlink:href="#DejaVuSans-32"/>
       <use x="63.623047" xlink:href="#DejaVuSans-30"/>
       <use x="127.246094" xlink:href="#DejaVuSans-30"/>
      </g>
     </g>
    </g>
    <g id="xtick_3">
     <g id="line2d_3">
      <g>
       <use style="stroke:#000000;stroke-width:0.8;" x="200.590991" xlink:href="#m93e9068e82" y="307.584"/>
      </g>
     </g>
     <g id="text_3">
      <!-- 400 -->
      <defs>
       <path d="M 37.796875 64.3125 
L 12.890625 25.390625 
L 37.796875 25.390625 
z
M 35.203125 72.90625 
L 47.609375 72.90625 
L 47.609375 25.390625 
L 58.015625 25.390625 
L 58.015625 17.1875 
L 47.609375 17.1875 
L 47.609375 0 
L 37.796875 0 
L 37.796875 17.1875 
L 4.890625 17.1875 
L 4.890625 26.703125 
z
" id="DejaVuSans-34"/>
      </defs>
      <g transform="translate(191.047241 322.182437)scale(0.1 -0.1)">
       <use xlink:href="#DejaVuSans-34"/>
       <use x="63.623047" xlink:href="#DejaVuSans-30"/>
       <use x="127.246094" xlink:href="#DejaVuSans-30"/>
      </g>
     </g>
    </g>
    <g id="xtick_4">
     <g id="line2d_4">
      <g>
       <use style="stroke:#000000;stroke-width:0.8;" x="272.086486" xlink:href="#m93e9068e82" y="307.584"/>
      </g>
     </g>
     <g id="text_4">
      <!-- 600 -->
      <defs>
       <path d="M 33.015625 40.375 
Q 26.375 40.375 22.484375 35.828125 
Q 18.609375 31.296875 18.609375 23.390625 
Q 18.609375 15.53125 22.484375 10.953125 
Q 26.375 6.390625 33.015625 6.390625 
Q 39.65625 6.390625 43.53125 10.953125 
Q 47.40625 15.53125 47.40625 23.390625 
Q 47.40625 31.296875 43.53125 35.828125 
Q 39.65625 40.375 33.015625 40.375 
M 52.59375 71.296875 
L 52.59375 62.3125 
Q 48.875 64.0625 45.09375 64.984375 
Q 41.3125 65.921875 37.59375 65.921875 
Q 27.828125 65.921875 22.671875 59.328125 
Q 17.53125 52.734375 16.796875 39.40625 
Q 19.671875 43.65625 24.015625 45.921875 
Q 28.375 48.1875 33.59375 48.1875 
Q 44.578125 48.1875 50.953125 41.515625 
Q 57.328125 34.859375 57.328125 23.390625 
Q 57.328125 12.15625 50.6875 5.359375 
Q 44.046875 -1.421875 33.015625 -1.421875 
Q 20.359375 -1.421875 13.671875 8.265625 
Q 6.984375 17.96875 6.984375 36.375 
Q 6.984375 53.65625 15.1875 63.9375 
Q 23.390625 74.21875 37.203125 74.21875 
Q 40.921875 74.21875 44.703125 73.484375 
Q 48.484375 72.75 52.59375 71.296875 
" id="DejaVuSans-36"/>
      </defs>
      <g transform="translate(262.542736 322.182437)scale(0.1 -0.1)">
       <use xlink:href="#DejaVuSans-36"/>
       <use x="63.623047" xlink:href="#DejaVuSans-30"/>
       <use x="127.246094" xlink:href="#DejaVuSans-30"/>
      </g>
     </g>
    </g>
    <g id="xtick_5">
     <g id="line2d_5">
      <g>
       <use style="stroke:#000000;stroke-width:0.8;" x="343.581982" xlink:href="#m93e9068e82" y="307.584"/>
      </g>
     </g>
     <g id="text_5">
      <!-- 800 -->
      <defs>
       <path d="M 31.78125 34.625 
Q 24.75 34.625 20.71875 30.859375 
Q 16.703125 27.09375 16.703125 20.515625 
Q 16.703125 13.921875 20.71875 10.15625 
Q 24.75 6.390625 31.78125 6.390625 
Q 38.8125 6.390625 42.859375 10.171875 
Q 46.921875 13.96875 46.921875 20.515625 
Q 46.921875 27.09375 42.890625 30.859375 
Q 38.875 34.625 31.78125 34.625 
M 21.921875 38.8125 
Q 15.578125 40.375 12.03125 44.71875 
Q 8.5 49.078125 8.5 55.328125 
Q 8.5 64.0625 14.71875 69.140625 
Q 20.953125 74.21875 31.78125 74.21875 
Q 42.671875 74.21875 48.875 69.140625 
Q 55.078125 64.0625 55.078125 55.328125 
Q 55.078125 49.078125 51.53125 44.71875 
Q 48 40.375 41.703125 38.8125 
Q 48.828125 37.15625 52.796875 32.3125 
Q 56.78125 27.484375 56.78125 20.515625 
Q 56.78125 9.90625 50.3125 4.234375 
Q 43.84375 -1.421875 31.78125 -1.421875 
Q 19.734375 -1.421875 13.25 4.234375 
Q 6.78125 9.90625 6.78125 20.515625 
Q 6.78125 27.484375 10.78125 32.3125 
Q 14.796875 37.15625 21.921875 38.8125 
M 18.3125 54.390625 
Q 18.3125 48.734375 21.84375 45.5625 
Q 25.390625 42.390625 31.78125 42.390625 
Q 38.140625 42.390625 41.71875 45.5625 
Q 45.3125 48.734375 45.3125 54.390625 
Q 45.3125 60.0625 41.71875 63.234375 
Q 38.140625 66.40625 31.78125 66.40625 
Q 25.390625 66.40625 21.84375 63.234375 
Q 18.3125 60.0625 18.3125 54.390625 
" id="DejaVuSans-38"/>
      </defs>
      <g transform="translate(334.038232 322.182437)scale(0.1 -0.1)">
       <use xlink:href="#DejaVuSans-38"/>
       <use x="63.623047" xlink:href="#DejaVuSans-30"/>
       <use x="127.246094" xlink:href="#DejaVuSans-30"/>
      </g>
     </g>
    </g>
    <g id="xtick_6">
     <g id="line2d_6">
      <g>
       <use style="stroke:#000000;stroke-width:0.8;" x="415.077477" xlink:href="#m93e9068e82" y="307.584"/>
      </g>
     </g>
     <g id="text_6">
      <!-- 1000 -->
      <defs>
       <path d="M 12.40625 8.296875 
L 28.515625 8.296875 
L 28.515625 63.921875 
L 10.984375 60.40625 
L 10.984375 69.390625 
L 28.421875 72.90625 
L 38.28125 72.90625 
L 38.28125 8.296875 
L 54.390625 8.296875 
L 54.390625 0 
L 12.40625 0 
z
" id="DejaVuSans-31"/>
      </defs>
      <g transform="translate(402.352477 322.182437)scale(0.1 -0.1)">
       <use xlink:href="#DejaVuSans-31"/>
       <use x="63.623047" xlink:href="#DejaVuSans-30"/>
       <use x="127.246094" xlink:href="#DejaVuSans-30"/>
       <use x="190.869141" xlink:href="#DejaVuSans-30"/>
      </g>
     </g>
    </g>
   </g>
   <g id="matplotlib.axis_2">
    <g id="ytick_1">
     <g id="line2d_7">
      <defs>
       <path d="M 0 0 
L -3.5 0 
" id="m9d1fbe210e" style="stroke:#000000;stroke-width:0.8;"/>
      </defs>
      <g>
       <use style="stroke:#000000;stroke-width:0.8;" x="57.6" xlink:href="#m9d1fbe210e" y="295.491871"/>
      </g>
     </g>
     <g id="text_7">
      <!-- 0.0 -->
      <defs>
       <path d="M 10.6875 12.40625 
L 21 12.40625 
L 21 0 
L 10.6875 0 
z
" id="DejaVuSans-2e"/>
      </defs>
      <g transform="translate(34.696875 299.29109)scale(0.1 -0.1)">
       <use xlink:href="#DejaVuSans-30"/>
       <use x="63.623047" xlink:href="#DejaVuSans-2e"/>
       <use x="95.410156" xlink:href="#DejaVuSans-30"/>
      </g>
     </g>
    </g>
    <g id="ytick_2">
     <g id="line2d_8">
      <g>
       <use style="stroke:#000000;stroke-width:0.8;" x="57.6" xlink:href="#m9d1fbe210e" y="247.107097"/>
      </g>
     </g>
     <g id="text_8">
      <!-- 0.2 -->
      <g transform="translate(34.696875 250.906315)scale(0.1 -0.1)">
       <use xlink:href="#DejaVuSans-30"/>
       <use x="63.623047" xlink:href="#DejaVuSans-2e"/>
       <use x="95.410156" xlink:href="#DejaVuSans-32"/>
      </g>
     </g>
    </g>
    <g id="ytick_3">
     <g id="line2d_9">
      <g>
       <use style="stroke:#000000;stroke-width:0.8;" x="57.6" xlink:href="#m9d1fbe210e" y="198.722322"/>
      </g>
     </g>
     <g id="text_9">
      <!-- 0.4 -->
      <g transform="translate(34.696875 202.521541)scale(0.1 -0.1)">
       <use xlink:href="#DejaVuSans-30"/>
       <use x="63.623047" xlink:href="#DejaVuSans-2e"/>
       <use x="95.410156" xlink:href="#DejaVuSans-34"/>
      </g>
     </g>
    </g>
    <g id="ytick_4">
     <g id="line2d_10">
      <g>
       <use style="stroke:#000000;stroke-width:0.8;" x="57.6" xlink:href="#m9d1fbe210e" y="150.337548"/>
      </g>
     </g>
     <g id="text_10">
      <!-- 0.6 -->
      <g transform="translate(34.696875 154.136767)scale(0.1 -0.1)">
       <use xlink:href="#DejaVuSans-30"/>
       <use x="63.623047" xlink:href="#DejaVuSans-2e"/>
       <use x="95.410156" xlink:href="#DejaVuSans-36"/>
      </g>
     </g>
    </g>
    <g id="ytick_5">
     <g id="line2d_11">
      <g>
       <use style="stroke:#000000;stroke-width:0.8;" x="57.6" xlink:href="#m9d1fbe210e" y="101.952774"/>
      </g>
     </g>
     <g id="text_11">
      <!-- 0.8 -->
      <g transform="translate(34.696875 105.751993)scale(0.1 -0.1)">
       <use xlink:href="#DejaVuSans-30"/>
       <use x="63.623047" xlink:href="#DejaVuSans-2e"/>
       <use x="95.410156" xlink:href="#DejaVuSans-38"/>
      </g>
     </g>
    </g>
    <g id="ytick_6">
     <g id="line2d_12">
      <g>
       <use style="stroke:#000000;stroke-width:0.8;" x="57.6" xlink:href="#m9d1fbe210e" y="53.568"/>
      </g>
     </g>
     <g id="text_12">
      <!-- 1.0 -->
      <g transform="translate(34.696875 57.367219)scale(0.1 -0.1)">
       <use xlink:href="#DejaVuSans-31"/>
       <use x="63.623047" xlink:href="#DejaVuSans-2e"/>
       <use x="95.410156" xlink:href="#DejaVuSans-30"/>
      </g>
     </g>
    </g>
   </g>
   <g id="line2d_13">
    <path clip-path="url(#p21a28a909c)" d="M 57.6 295.488 
L 62.962162 295.375022 
L 64.74955 295.17737 
L 66.179459 294.790533 
L 66.536937 294.502886 
L 66.894414 294.511837 
L 67.251892 293.949848 
L 67.609369 293.612606 
L 67.966847 292.847885 
L 68.324324 292.746277 
L 68.681802 292.111469 
L 69.039279 290.742179 
L 69.396757 289.998747 
L 69.754234 288.63091 
L 70.111712 287.757323 
L 70.469189 286.034099 
L 70.826667 280.959746 
L 71.184144 279.778915 
L 71.541622 272.535957 
L 71.899099 273.51091 
L 72.971532 243.648553 
L 73.686486 221.886775 
L 74.401441 182.048687 
L 74.758919 150.507137 
L 75.116396 134.751361 
L 75.473874 111.501993 
L 76.188829 88.382055 
L 76.546306 82.875383 
L 76.903784 75.154625 
L 77.261261 74.976811 
L 77.618739 68.474623 
L 77.976216 59.294822 
L 78.333694 66.597052 
L 78.691171 59.678513 
L 79.048649 64.270712 
L 79.763604 58.048914 
L 80.121081 59.303047 
L 80.478559 66.636244 
L 80.836036 56.417137 
L 81.193514 61.655757 
L 81.908468 58.071171 
L 82.265946 57.528294 
L 82.623423 59.454734 
L 82.980901 56.882115 
L 83.338378 57.496602 
L 83.695856 55.647578 
L 84.053333 57.745299 
L 84.410811 53.568 
L 85.125766 53.568 
L 85.840721 58.7338 
L 86.198198 53.568 
L 86.555676 53.568 
L 86.913153 58.88718 
L 87.270631 53.568 
L 87.628108 55.836278 
L 87.985586 54.963659 
L 88.343063 53.675172 
L 88.700541 54.316512 
L 89.415495 53.568 
L 89.772973 55.195422 
L 90.13045 53.568 
L 90.487928 54.653029 
L 90.845405 53.568 
L 91.202883 53.576951 
L 91.56036 57.312498 
L 91.917838 54.338528 
L 92.632793 53.568 
L 92.99027 55.256145 
L 93.347748 53.568 
L 94.42018 53.568 
L 94.777658 55.038413 
L 95.492613 53.568 
L 95.85009 54.886243 
L 96.207568 53.568 
L 96.565045 53.723799 
L 96.922523 55.819344 
L 97.637477 53.568 
L 97.994955 54.362236 
L 98.352432 53.568 
L 98.70991 57.195165 
L 99.067387 53.568 
L 100.497297 53.568 
L 100.854775 56.415928 
L 101.212252 53.568 
L 101.56973 57.80699 
L 101.927207 54.365623 
L 102.284685 56.428508 
L 102.642162 54.175713 
L 102.99964 53.568 
L 103.357117 53.568 
L 103.714595 56.134086 
L 104.072072 53.568 
L 104.42955 53.568 
L 104.787027 56.976949 
L 105.144505 53.568 
L 105.501982 53.950965 
L 105.859459 53.934515 
L 106.216937 55.915629 
L 106.574414 58.632434 
L 106.931892 53.568 
L 107.289369 54.505213 
L 107.646847 53.568 
L 108.004324 55.043494 
L 108.361802 53.568 
L 108.719279 53.568 
L 109.076757 53.824681 
L 109.434234 53.568 
L 109.791712 56.118845 
L 110.149189 53.568 
L 110.864144 53.568 
L 111.221622 53.755733 
L 111.579099 53.568 
L 113.009009 53.568 
L 113.366486 57.793926 
L 113.723964 54.038784 
L 114.081441 53.568 
L 114.438919 54.445942 
L 114.796396 53.568 
L 117.656216 53.568 
L 118.013694 54.031526 
L 118.371171 53.568 
L 120.516036 53.568 
L 120.873514 55.552743 
L 121.230991 56.660029 
L 121.588468 58.369221 
L 121.945946 53.568 
L 124.090811 53.568 
L 124.448288 54.403847 
L 124.805766 53.568 
L 125.163243 53.568 
L 125.520721 55.969578 
L 125.878198 53.568 
L 126.235676 55.425975 
L 126.593153 53.568 
L 127.665586 53.576225 
L 128.023063 54.438684 
L 128.380541 53.568 
L 129.81045 53.568 
L 130.167928 58.483409 
L 130.525405 53.568 
L 130.882883 53.568 
L 131.24036 56.157553 
L 131.597838 53.971771 
L 131.955315 55.544276 
L 132.312793 53.568 
L 132.67027 56.501569 
L 133.027748 53.568 
L 133.385225 53.568 
L 133.742703 54.895678 
L 134.10018 53.568 
L 134.815135 53.568 
L 135.172613 56.655674 
L 135.53009 53.568 
L 135.887568 53.633803 
L 136.602523 53.568 
L 136.96 53.712912 
L 137.317477 53.568 
L 138.38991 53.568 
L 138.747387 55.550566 
L 139.104865 54.235226 
L 139.462342 53.568 
L 140.177297 53.568 
L 140.534775 60.292274 
L 140.892252 53.568 
L 141.607207 53.568 
L 141.964685 59.245711 
L 142.322162 53.568 
L 142.67964 53.568 
L 143.037117 54.930999 
L 143.394595 55.134215 
L 143.752072 53.568 
L 144.10955 53.568 
L 144.467027 55.626772 
L 144.824505 56.110136 
L 145.181982 53.568 
L 145.539459 53.568 
L 145.896937 54.150553 
L 146.254414 55.793458 
L 146.611892 55.276224 
L 146.969369 53.568 
L 147.326847 55.065509 
L 147.684324 53.568 
L 148.041802 56.37722 
L 148.399279 53.568 
L 148.756757 53.568 
L 149.114234 55.245258 
L 149.471712 53.568 
L 149.829189 53.568 
L 150.186667 55.046881 
L 150.544144 53.568 
L 150.901622 54.072653 
L 151.259099 53.568 
L 151.616577 56.622531 
L 151.974054 53.568 
L 152.689009 53.574774 
L 153.046486 54.583838 
L 153.403964 56.194567 
L 153.761441 53.568 
L 154.476396 53.568 
L 154.833874 56.01506 
L 155.191351 53.568 
L 155.548829 56.47157 
L 155.906306 53.568 
L 156.263784 55.090427 
L 156.621261 55.548147 
L 156.978739 53.568 
L 157.336216 56.765024 
L 157.693694 57.116297 
L 158.051171 56.941628 
L 158.408649 53.620739 
L 158.766126 54.548517 
L 159.123604 53.568 
L 159.481081 53.568 
L 160.196036 55.980465 
L 160.553514 53.568 
L 162.340901 53.568 
L 162.698378 56.358592 
L 163.055856 56.866874 
L 163.413333 53.568 
L 163.770811 55.35485 
L 164.128288 58.173505 
L 164.485766 54.885759 
L 164.843243 53.568 
L 165.200721 53.568 
L 165.558198 55.436136 
L 165.915676 53.568 
L 166.273153 53.568 
L 166.630631 55.584435 
L 166.988108 53.568 
L 167.345586 58.012383 
L 167.703063 55.985061 
L 168.060541 56.202793 
L 168.418018 53.568 
L 168.775495 53.568 
L 169.132973 58.390269 
L 169.49045 53.568 
L 169.847928 53.568 
L 170.205405 56.399961 
L 170.562883 53.568 
L 170.92036 53.568 
L 171.277838 55.783297 
L 171.635315 53.851293 
L 171.992793 53.734444 
L 172.35027 54.531099 
L 172.707748 53.568 
L 173.065225 53.568 
L 173.422703 55.80628 
L 173.78018 53.568 
L 175.21009 53.568 
L 175.567568 55.32219 
L 175.925045 53.568 
L 176.282523 53.753072 
L 176.64 53.568 
L 176.997477 53.568 
L 177.354955 53.75162 
L 177.712432 54.924225 
L 178.06991 53.568 
L 178.784865 53.568 
L 179.142342 54.080637 
L 179.49982 53.568 
L 179.857297 55.175826 
L 180.214775 55.717494 
L 180.572252 53.568 
L 181.287207 53.568 
L 181.644685 55.850794 
L 182.002162 53.568 
L 182.717117 53.980964 
L 183.074595 53.568 
L 183.78955 53.568 
L 184.147027 56.049171 
L 184.504505 53.568 
L 184.861982 53.568 
L 185.576937 56.151505 
L 185.934414 53.568 
L 186.291892 53.600176 
L 186.649369 57.201213 
L 187.006847 53.568 
L 187.364324 55.677818 
L 187.721802 54.275385 
L 188.079279 53.912983 
L 188.436757 55.044461 
L 188.794234 53.568 
L 190.581622 53.568 
L 190.939099 55.529277 
L 191.296577 54.81294 
L 191.654054 53.568 
L 192.011532 53.976126 
L 192.369009 53.568 
L 192.726486 56.754621 
L 193.441441 57.659417 
L 193.798919 54.331028 
L 194.156396 55.129619 
L 194.513874 53.568 
L 194.871351 58.578243 
L 195.228829 54.457796 
L 195.586306 53.568 
L 195.943784 53.568 
L 196.301261 55.087282 
L 196.658739 53.568 
L 198.446126 53.568 
L 198.803604 57.759089 
L 199.161081 56.722929 
L 199.518559 54.541018 
L 199.876036 53.568 
L 200.590991 53.568 
L 200.948468 55.387751 
L 201.305946 55.092362 
L 201.663423 53.568 
L 202.020901 57.301369 
L 202.378378 53.568 
L 202.735856 53.568 
L 203.093333 55.335012 
L 203.450811 53.568 
L 203.808288 53.568 
L 204.165766 56.043365 
L 204.523243 55.795635 
L 204.880721 54.866163 
L 205.238198 53.568 
L 206.310631 53.568 
L 206.668108 57.780378 
L 207.025586 53.568 
L 207.383063 53.901855 
L 207.740541 53.568 
L 208.098018 55.406863 
L 208.455495 53.568 
L 209.885405 53.568 
L 210.242883 54.699478 
L 210.60036 53.653883 
L 210.957838 53.951449 
L 211.315315 56.855745 
L 211.672793 53.675898 
L 212.03027 54.962449 
L 212.745225 53.568 
L 213.102703 54.689075 
L 213.46018 55.267273 
L 213.817658 53.568 
L 214.175135 57.866503 
L 214.532613 53.568 
L 214.89009 57.455717 
L 215.247568 53.568 
L 215.605045 54.59787 
L 215.962523 53.568 
L 216.32 53.568 
L 216.677477 56.009738 
L 217.034955 54.058864 
L 217.392432 53.568 
L 217.74991 58.657594 
L 218.107387 53.568 
L 218.822342 56.880422 
L 219.537297 54.063702 
L 219.894775 53.568 
L 220.252252 53.675172 
L 220.60973 53.568 
L 220.967207 54.478118 
L 221.324685 56.791878 
L 221.682162 53.568 
L 222.397117 53.568 
L 222.754595 57.492489 
L 223.112072 53.568 
L 223.46955 60.703545 
L 223.827027 53.568 
L 224.184505 53.871856 
L 224.541982 55.206792 
L 224.899459 53.91879 
L 225.256937 53.568 
L 225.614414 59.324579 
L 225.971892 54.231355 
L 226.329369 53.568 
L 226.686847 53.568 
L 227.044324 58.215841 
L 227.401802 53.568 
L 228.116757 53.568 
L 228.474234 57.50894 
L 228.831712 53.568 
L 229.189189 54.876566 
L 229.546667 54.943579 
L 229.904144 53.568 
L 230.619099 53.568 
L 230.976577 53.710735 
L 231.334054 53.568 
L 233.121441 53.568 
L 233.478919 57.555389 
L 233.836396 54.222162 
L 234.193874 53.568 
L 234.908829 53.568 
L 235.266306 57.280806 
L 235.623784 54.103378 
L 235.981261 53.568 
L 238.126126 53.568 
L 238.483604 55.187196 
L 238.841081 53.568 
L 239.556036 53.568 
L 240.270991 57.054607 
L 240.628468 53.61203 
L 241.343423 53.568 
L 241.700901 58.235195 
L 242.058378 53.568 
L 242.415856 55.34227 
L 242.773333 53.568 
L 243.130811 53.568 
L 243.488288 54.954466 
L 243.845766 53.568 
L 244.203243 53.568 
L 244.560721 53.871373 
L 244.918198 53.568 
L 245.633153 53.568 
L 245.990631 55.468312 
L 246.705586 53.568 
L 247.420541 53.568 
L 247.778018 55.564598 
L 248.135495 53.568 
L 248.492973 56.291337 
L 248.85045 53.568 
L 249.207928 53.568 
L 249.565405 54.20426 
L 249.922883 53.568 
L 250.995315 53.568 
L 251.352793 56.304885 
L 251.71027 53.984109 
L 252.067748 53.568 
L 253.497658 53.568 
L 253.855135 54.86955 
L 254.212613 53.568 
L 254.57009 53.568 
L 255.285045 55.171471 
L 255.642523 56.602935 
L 256 55.146795 
L 256.357477 57.767315 
L 256.714955 58.668481 
L 257.072432 57.871584 
L 257.42991 53.568 
L 257.787387 57.111701 
L 258.144865 53.942014 
L 258.502342 54.691736 
L 258.85982 53.568 
L 259.217297 53.568 
L 259.574775 56.206664 
L 259.932252 53.568 
L 260.28973 54.121038 
L 260.647207 53.568 
L 261.004685 53.568 
L 261.362162 56.660271 
L 261.71964 53.568 
L 262.077117 54.704558 
L 262.434595 53.860486 
L 262.792072 56.504472 
L 263.14955 53.931128 
L 263.507027 53.568 
L 263.864505 55.248161 
L 264.221982 56.022318 
L 264.579459 56.11062 
L 264.936937 55.946112 
L 265.294414 54.007818 
L 265.651892 53.568 
L 266.009369 54.561097 
L 266.366847 59.393285 
L 267.796757 53.719928 
L 268.154234 59.213294 
L 268.511712 53.630174 
L 269.226667 53.568 
L 269.941622 53.568 
L 270.299099 56.708656 
L 270.656577 56.04143 
L 271.014054 58.716866 
L 271.371532 53.568 
L 272.086486 53.649044 
L 272.443964 61.078768 
L 272.801441 54.229662 
L 273.158919 53.568 
L 273.516396 53.568 
L 273.873874 53.73904 
L 274.231351 55.588306 
L 274.588829 54.24321 
L 274.946306 53.568 
L 275.303784 56.031995 
L 275.661261 54.879469 
L 276.018739 54.466989 
L 276.376216 53.568 
L 276.733694 54.606579 
L 277.091171 56.194084 
L 277.448649 53.776296 
L 277.806126 53.568 
L 278.163604 55.997158 
L 278.521081 53.568 
L 279.236036 53.568 
L 279.593514 54.044106 
L 279.950991 53.568 
L 280.308468 54.051364 
L 280.665946 53.568 
L 281.380901 53.568 
L 281.738378 54.704558 
L 282.095856 53.568 
L 282.810811 56.146183 
L 283.168288 54.050396 
L 283.525766 55.227598 
L 283.883243 53.568 
L 284.240721 62.768123 
L 284.598198 53.600902 
L 284.955676 57.143635 
L 285.313153 57.54039 
L 285.670631 53.602595 
L 286.028108 56.090782 
L 286.385586 53.568 
L 286.743063 53.568 
L 287.100541 53.801215 
L 287.458018 53.568 
L 287.815495 53.568 
L 288.172973 54.460941 
L 288.53045 58.891535 
L 288.887928 53.568 
L 290.317838 53.568 
L 291.032793 58.599533 
L 291.39027 53.568 
L 291.747748 53.568 
L 292.105225 55.750879 
L 292.462703 53.568 
L 292.82018 54.300787 
L 293.177658 53.568 
L 293.892613 53.568 
L 294.25009 53.831697 
L 294.607568 53.568 
L 294.965045 53.568 
L 295.322523 59.737784 
L 295.68 54.169181 
L 296.037477 59.56626 
L 296.394955 53.568 
L 297.467387 53.568 
L 297.824865 53.704929 
L 298.182342 56.477135 
L 298.53982 53.568 
L 298.897297 53.568 
L 299.254775 54.52239 
L 299.612252 54.523115 
L 299.96973 53.568 
L 300.327207 60.530327 
L 300.684685 53.568 
L 301.757117 53.568 
L 302.114595 53.935966 
L 302.472072 53.815246 
L 302.82955 54.071927 
L 303.187027 55.087282 
L 303.544505 54.668512 
L 303.901982 53.568 
L 304.616937 53.568 
L 304.974414 54.571258 
L 305.331892 53.568 
L 306.046847 53.568 
L 306.404324 55.184293 
L 306.761802 53.870405 
L 307.119279 53.568 
L 307.476757 54.037816 
L 307.834234 54.246113 
L 308.191712 54.844874 
L 308.549189 57.226373 
L 308.906667 53.568 
L 309.264144 54.514164 
L 309.621622 56.716397 
L 309.979099 53.568 
L 310.336577 55.777733 
L 310.694054 53.568 
L 311.051532 55.279128 
L 311.409009 55.117039 
L 311.766486 53.568 
L 312.123964 56.11691 
L 312.481441 53.568 
L 313.196396 53.568 
L 313.553874 58.37285 
L 313.911351 53.568 
L 314.268829 53.948062 
L 314.626306 59.492474 
L 314.983784 53.629207 
L 315.698739 53.568 
L 316.056216 54.581177 
L 316.413694 53.568 
L 316.771171 54.831085 
L 317.128649 53.985803 
L 317.486126 56.762847 
L 317.843604 53.568 
L 318.558559 55.095265 
L 318.916036 53.568 
L 319.273514 53.568 
L 319.630991 53.980964 
L 319.988468 53.568 
L 320.345946 53.568 
L 320.703423 57.156457 
L 321.060901 53.568 
L 321.418378 53.568 
L 321.775856 55.574759 
L 322.133333 53.861212 
L 322.490811 56.95058 
L 322.848288 53.568 
L 323.920721 53.568 
L 324.278198 55.832407 
L 324.635676 53.568 
L 325.708108 53.568 
L 326.065586 55.324851 
L 326.423063 53.568 
L 326.780541 54.285304 
L 327.138018 53.568 
L 327.495495 55.217437 
L 327.852973 55.248887 
L 328.21045 56.532777 
L 328.567928 56.590113 
L 328.925405 58.036818 
L 329.282883 53.568 
L 329.64036 57.033801 
L 329.997838 54.23692 
L 330.355315 53.568 
L 331.07027 53.568 
L 331.427748 53.817665 
L 331.785225 53.568 
L 333.93009 53.568 
L 334.287568 55.485005 
L 334.645045 53.568 
L 335.002523 56.254081 
L 335.36 53.568 
L 335.717477 55.471457 
L 336.074955 56.500117 
L 336.432432 53.568 
L 337.147387 59.095235 
L 337.862342 53.568 
L 338.21982 54.399492 
L 338.577297 53.662108 
L 338.934775 53.568 
L 339.292252 56.529874 
L 339.64973 57.659417 
L 340.007207 56.578501 
L 340.364685 53.622433 
L 340.722162 53.746056 
L 341.07964 53.568 
L 341.437117 58.363173 
L 341.794595 53.568 
L 342.152072 57.228308 
L 342.50955 56.666561 
L 342.867027 53.568 
L 343.224505 53.568 
L 343.581982 53.983625 
L 343.939459 54.911403 
L 344.296937 53.568 
L 345.011892 53.568 
L 345.369369 53.717509 
L 345.726847 56.578017 
L 346.084324 53.568 
L 346.441802 59.528036 
L 346.799279 53.568 
L 347.156757 53.568 
L 347.871712 54.462151 
L 348.229189 55.439765 
L 348.586667 58.019157 
L 348.944144 53.568 
L 349.301622 58.540019 
L 349.659099 53.568 
L 353.948829 53.596547 
L 354.306306 59.686739 
L 354.663784 55.481134 
L 355.021261 53.568 
L 355.378739 53.568 
L 355.736216 54.682785 
L 356.093694 53.568 
L 356.451171 55.792006 
L 356.808649 53.568 
L 357.523604 53.568 
L 357.881081 55.126715 
L 358.238559 53.568 
L 358.596036 54.615047 
L 358.953514 53.568 
L 359.668468 53.568 
L 360.025946 56.920097 
L 360.383423 53.568 
L 360.740901 53.568 
L 361.098378 56.358108 
L 361.455856 53.568 
L 361.813333 53.610337 
L 362.170811 54.989061 
L 362.528288 56.914775 
L 362.885766 53.568 
L 363.243243 57.435637 
L 363.600721 53.792022 
L 363.958198 53.568 
L 364.315676 53.568 
L 365.030631 54.68593 
L 365.388108 60.614517 
L 365.745586 58.268097 
L 366.103063 53.568 
L 366.460541 58.508811 
L 367.175495 53.568 
L 367.89045 53.568 
L 368.247928 53.922418 
L 368.605405 55.53218 
L 368.962883 53.568 
L 369.677838 53.632352 
L 370.035315 55.070347 
L 370.75027 53.568 
L 371.107748 55.795877 
L 371.465225 55.81886 
L 371.822703 53.801698 
L 372.18018 54.773023 
L 372.537658 53.568 
L 372.895135 54.034913 
L 373.252613 53.568 
L 373.61009 53.568 
L 373.967568 58.649127 
L 374.325045 53.568 
L 374.682523 53.568 
L 375.04 55.841842 
L 375.397477 55.67806 
L 375.754955 54.115958 
L 376.112432 53.568 
L 376.46991 54.702139 
L 376.827387 56.301982 
L 377.184865 53.568 
L 377.542342 58.936533 
L 377.89982 53.568 
L 378.257297 53.568 
L 378.614775 55.197599 
L 378.972252 54.292804 
L 379.32973 55.067928 
L 379.687207 55.285176 
L 380.044685 53.568 
L 380.402162 54.177164 
L 380.75964 53.568 
L 381.117117 53.568 
L 381.474595 55.046881 
L 381.832072 53.568 
L 382.18955 55.699591 
L 382.547027 53.568 
L 382.904505 53.568 
L 383.261982 57.345399 
L 383.619459 53.568 
L 383.976937 53.67106 
L 384.334414 53.568 
L 385.049369 54.876082 
L 385.406847 55.20268 
L 385.764324 53.568 
L 386.121802 53.837503 
L 386.479279 53.568 
L 386.836757 53.568 
L 387.194234 55.607176 
L 387.551712 54.757298 
L 387.909189 53.568 
L 388.266667 53.568 
L 388.624144 55.416298 
L 388.981622 53.568 
L 389.339099 53.568 
L 389.696577 56.610193 
L 390.054054 53.568 
L 390.769009 53.568 
L 391.126486 54.047009 
L 391.483964 53.568 
L 391.841441 53.568 
L 392.198919 55.655319 
L 392.556396 53.568 
L 392.913874 54.599805 
L 393.271351 53.568 
L 394.343784 53.622433 
L 394.701261 57.621434 
L 395.058739 57.186213 
L 395.416216 53.568 
L 395.773694 54.826246 
L 396.131171 57.339351 
L 396.488649 53.568 
L 396.846126 54.610208 
L 397.561081 53.568 
L 398.276036 58.59542 
L 398.633514 55.362107 
L 398.990991 55.291708 
L 399.348468 53.568 
L 400.063423 53.568 
L 400.420901 54.77641 
L 400.778378 53.568 
L 401.135856 54.236678 
L 401.493333 53.568 
L 402.208288 53.568 
L 402.565766 58.414461 
L 402.923243 55.496617 
L 403.280721 53.568 
L 403.995676 53.568 
L 404.353153 53.781135 
L 404.710631 53.568 
L 405.068108 54.004189 
L 405.425586 53.568 
L 405.783063 55.949015 
L 406.140541 55.556614 
L 406.498018 53.568 
L 406.855495 57.498053 
L 407.212973 56.532051 
L 407.57045 54.152004 
L 407.927928 53.568 
L 408.285405 53.568 
L 408.642883 56.062235 
L 409.00036 53.568 
L 409.715315 53.648803 
L 410.072793 57.207745 
L 410.43027 57.893357 
L 410.787748 56.780507 
L 411.145225 53.568 
L 411.86018 53.568 
L 412.217658 54.272482 
L 412.575135 53.568 
L 412.932613 55.512342 
L 413.29009 53.568 
L 413.647568 54.765281 
L 414.005045 53.568 
L 414.72 53.568 
L 414.72 53.568 
" style="fill:none;stroke:#1f77b4;stroke-linecap:square;stroke-width:1.5;"/>
   </g>
   <g id="patch_3">
    <path d="M 57.6 307.584 
L 57.6 41.472 
" style="fill:none;stroke:#000000;stroke-linecap:square;stroke-linejoin:miter;stroke-width:0.8;"/>
   </g>
   <g id="patch_4">
    <path d="M 414.72 307.584 
L 414.72 41.472 
" style="fill:none;stroke:#000000;stroke-linecap:square;stroke-linejoin:miter;stroke-width:0.8;"/>
   </g>
   <g id="patch_5">
    <path d="M 57.6 307.584 
L 414.72 307.584 
" style="fill:none;stroke:#000000;stroke-linecap:square;stroke-linejoin:miter;stroke-width:0.8;"/>
   </g>
   <g id="patch_6">
    <path d="M 57.6 41.472 
L 414.72 41.472 
" style="fill:none;stroke:#000000;stroke-linecap:square;stroke-linejoin:miter;stroke-width:0.8;"/>
   </g>
   <g id="legend_1">
    <g id="patch_7">
     <path d="M 277.08875 302.584 
L 407.72 302.584 
Q 409.72 302.584 409.72 300.584 
L 409.72 286.905875 
Q 409.72 284.905875 407.72 284.905875 
L 277.08875 284.905875 
Q 275.08875 284.905875 275.08875 286.905875 
L 275.08875 300.584 
Q 275.08875 302.584 277.08875 302.584 
z
" style="fill:#ffffff;opacity:0.8;stroke:#cccccc;stroke-linejoin:miter;"/>
    </g>
    <g id="line2d_14">
     <path d="M 279.08875 293.004312 
L 299.08875 293.004312 
" style="fill:none;stroke:#1f77b4;stroke-linecap:square;stroke-width:1.5;"/>
    </g>
    <g id="line2d_15"/>
    <g id="text_13">
     <!-- Collision probability -->
     <defs>
      <path d="M 64.40625 67.28125 
L 64.40625 56.890625 
Q 59.421875 61.53125 53.78125 63.8125 
Q 48.140625 66.109375 41.796875 66.109375 
Q 29.296875 66.109375 22.65625 58.46875 
Q 16.015625 50.828125 16.015625 36.375 
Q 16.015625 21.96875 22.65625 14.328125 
Q 29.296875 6.6875 41.796875 6.6875 
Q 48.140625 6.6875 53.78125 8.984375 
Q 59.421875 11.28125 64.40625 15.921875 
L 64.40625 5.609375 
Q 59.234375 2.09375 53.4375 0.328125 
Q 47.65625 -1.421875 41.21875 -1.421875 
Q 24.65625 -1.421875 15.125 8.703125 
Q 5.609375 18.84375 5.609375 36.375 
Q 5.609375 53.953125 15.125 64.078125 
Q 24.65625 74.21875 41.21875 74.21875 
Q 47.75 74.21875 53.53125 72.484375 
Q 59.328125 70.75 64.40625 67.28125 
" id="DejaVuSans-43"/>
      <path d="M 30.609375 48.390625 
Q 23.390625 48.390625 19.1875 42.75 
Q 14.984375 37.109375 14.984375 27.296875 
Q 14.984375 17.484375 19.15625 11.84375 
Q 23.34375 6.203125 30.609375 6.203125 
Q 37.796875 6.203125 41.984375 11.859375 
Q 46.1875 17.53125 46.1875 27.296875 
Q 46.1875 37.015625 41.984375 42.703125 
Q 37.796875 48.390625 30.609375 48.390625 
M 30.609375 56 
Q 42.328125 56 49.015625 48.375 
Q 55.71875 40.765625 55.71875 27.296875 
Q 55.71875 13.875 49.015625 6.21875 
Q 42.328125 -1.421875 30.609375 -1.421875 
Q 18.84375 -1.421875 12.171875 6.21875 
Q 5.515625 13.875 5.515625 27.296875 
Q 5.515625 40.765625 12.171875 48.375 
Q 18.84375 56 30.609375 56 
" id="DejaVuSans-6f"/>
      <path d="M 9.421875 75.984375 
L 18.40625 75.984375 
L 18.40625 0 
L 9.421875 0 
z
" id="DejaVuSans-6c"/>
      <path d="M 9.421875 54.6875 
L 18.40625 54.6875 
L 18.40625 0 
L 9.421875 0 
z
M 9.421875 75.984375 
L 18.40625 75.984375 
L 18.40625 64.59375 
L 9.421875 64.59375 
z
" id="DejaVuSans-69"/>
      <path d="M 44.28125 53.078125 
L 44.28125 44.578125 
Q 40.484375 46.53125 36.375 47.5 
Q 32.28125 48.484375 27.875 48.484375 
Q 21.1875 48.484375 17.84375 46.4375 
Q 14.5 44.390625 14.5 40.28125 
Q 14.5 37.15625 16.890625 35.375 
Q 19.28125 33.59375 26.515625 31.984375 
L 29.59375 31.296875 
Q 39.15625 29.25 43.1875 25.515625 
Q 47.21875 21.78125 47.21875 15.09375 
Q 47.21875 7.46875 41.1875 3.015625 
Q 35.15625 -1.421875 24.609375 -1.421875 
Q 20.21875 -1.421875 15.453125 -0.5625 
Q 10.6875 0.296875 5.421875 2 
L 5.421875 11.28125 
Q 10.40625 8.6875 15.234375 7.390625 
Q 20.0625 6.109375 24.8125 6.109375 
Q 31.15625 6.109375 34.5625 8.28125 
Q 37.984375 10.453125 37.984375 14.40625 
Q 37.984375 18.0625 35.515625 20.015625 
Q 33.0625 21.96875 24.703125 23.78125 
L 21.578125 24.515625 
Q 13.234375 26.265625 9.515625 29.90625 
Q 5.8125 33.546875 5.8125 39.890625 
Q 5.8125 47.609375 11.28125 51.796875 
Q 16.75 56 26.8125 56 
Q 31.78125 56 36.171875 55.265625 
Q 40.578125 54.546875 44.28125 53.078125 
" id="DejaVuSans-73"/>
      <path d="M 54.890625 33.015625 
L 54.890625 0 
L 45.90625 0 
L 45.90625 32.71875 
Q 45.90625 40.484375 42.875 44.328125 
Q 39.84375 48.1875 33.796875 48.1875 
Q 26.515625 48.1875 22.3125 43.546875 
Q 18.109375 38.921875 18.109375 30.90625 
L 18.109375 0 
L 9.078125 0 
L 9.078125 54.6875 
L 18.109375 54.6875 
L 18.109375 46.1875 
Q 21.34375 51.125 25.703125 53.5625 
Q 30.078125 56 35.796875 56 
Q 45.21875 56 50.046875 50.171875 
Q 54.890625 44.34375 54.890625 33.015625 
" id="DejaVuSans-6e"/>
      <path id="DejaVuSans-20"/>
      <path d="M 18.109375 8.203125 
L 18.109375 -20.796875 
L 9.078125 -20.796875 
L 9.078125 54.6875 
L 18.109375 54.6875 
L 18.109375 46.390625 
Q 20.953125 51.265625 25.265625 53.625 
Q 29.59375 56 35.59375 56 
Q 45.5625 56 51.78125 48.09375 
Q 58.015625 40.1875 58.015625 27.296875 
Q 58.015625 14.40625 51.78125 6.484375 
Q 45.5625 -1.421875 35.59375 -1.421875 
Q 29.59375 -1.421875 25.265625 0.953125 
Q 20.953125 3.328125 18.109375 8.203125 
M 48.6875 27.296875 
Q 48.6875 37.203125 44.609375 42.84375 
Q 40.53125 48.484375 33.40625 48.484375 
Q 26.265625 48.484375 22.1875 42.84375 
Q 18.109375 37.203125 18.109375 27.296875 
Q 18.109375 17.390625 22.1875 11.75 
Q 26.265625 6.109375 33.40625 6.109375 
Q 40.53125 6.109375 44.609375 11.75 
Q 48.6875 17.390625 48.6875 27.296875 
" id="DejaVuSans-70"/>
      <path d="M 41.109375 46.296875 
Q 39.59375 47.171875 37.8125 47.578125 
Q 36.03125 48 33.890625 48 
Q 26.265625 48 22.1875 43.046875 
Q 18.109375 38.09375 18.109375 28.8125 
L 18.109375 0 
L 9.078125 0 
L 9.078125 54.6875 
L 18.109375 54.6875 
L 18.109375 46.1875 
Q 20.953125 51.171875 25.484375 53.578125 
Q 30.03125 56 36.53125 56 
Q 37.453125 56 38.578125 55.875 
Q 39.703125 55.765625 41.0625 55.515625 
z
" id="DejaVuSans-72"/>
      <path d="M 48.6875 27.296875 
Q 48.6875 37.203125 44.609375 42.84375 
Q 40.53125 48.484375 33.40625 48.484375 
Q 26.265625 48.484375 22.1875 42.84375 
Q 18.109375 37.203125 18.109375 27.296875 
Q 18.109375 17.390625 22.1875 11.75 
Q 26.265625 6.109375 33.40625 6.109375 
Q 40.53125 6.109375 44.609375 11.75 
Q 48.6875 17.390625 48.6875 27.296875 
M 18.109375 46.390625 
Q 20.953125 51.265625 25.265625 53.625 
Q 29.59375 56 35.59375 56 
Q 45.5625 56 51.78125 48.09375 
Q 58.015625 40.1875 58.015625 27.296875 
Q 58.015625 14.40625 51.78125 6.484375 
Q 45.5625 -1.421875 35.59375 -1.421875 
Q 29.59375 -1.421875 25.265625 0.953125 
Q 20.953125 3.328125 18.109375 8.203125 
L 18.109375 0 
L 9.078125 0 
L 9.078125 75.984375 
L 18.109375 75.984375 
z
" id="DejaVuSans-62"/>
      <path d="M 34.28125 27.484375 
Q 23.390625 27.484375 19.1875 25 
Q 14.984375 22.515625 14.984375 16.5 
Q 14.984375 11.71875 18.140625 8.90625 
Q 21.296875 6.109375 26.703125 6.109375 
Q 34.1875 6.109375 38.703125 11.40625 
Q 43.21875 16.703125 43.21875 25.484375 
L 43.21875 27.484375 
z
M 52.203125 31.203125 
L 52.203125 0 
L 43.21875 0 
L 43.21875 8.296875 
Q 40.140625 3.328125 35.546875 0.953125 
Q 30.953125 -1.421875 24.3125 -1.421875 
Q 15.921875 -1.421875 10.953125 3.296875 
Q 6 8.015625 6 15.921875 
Q 6 25.140625 12.171875 29.828125 
Q 18.359375 34.515625 30.609375 34.515625 
L 43.21875 34.515625 
L 43.21875 35.40625 
Q 43.21875 41.609375 39.140625 45 
Q 35.0625 48.390625 27.6875 48.390625 
Q 23 48.390625 18.546875 47.265625 
Q 14.109375 46.140625 10.015625 43.890625 
L 10.015625 52.203125 
Q 14.9375 54.109375 19.578125 55.046875 
Q 24.21875 56 28.609375 56 
Q 40.484375 56 46.34375 49.84375 
Q 52.203125 43.703125 52.203125 31.203125 
" id="DejaVuSans-61"/>
      <path d="M 18.3125 70.21875 
L 18.3125 54.6875 
L 36.8125 54.6875 
L 36.8125 47.703125 
L 18.3125 47.703125 
L 18.3125 18.015625 
Q 18.3125 11.328125 20.140625 9.421875 
Q 21.96875 7.515625 27.59375 7.515625 
L 36.8125 7.515625 
L 36.8125 0 
L 27.59375 0 
Q 17.1875 0 13.234375 3.875 
Q 9.28125 7.765625 9.28125 18.015625 
L 9.28125 47.703125 
L 2.6875 47.703125 
L 2.6875 54.6875 
L 9.28125 54.6875 
L 9.28125 70.21875 
z
" id="DejaVuSans-74"/>
      <path d="M 32.171875 -5.078125 
Q 28.375 -14.84375 24.75 -17.8125 
Q 21.140625 -20.796875 15.09375 -20.796875 
L 7.90625 -20.796875 
L 7.90625 -13.28125 
L 13.1875 -13.28125 
Q 16.890625 -13.28125 18.9375 -11.515625 
Q 21 -9.765625 23.484375 -3.21875 
L 25.09375 0.875 
L 2.984375 54.6875 
L 12.5 54.6875 
L 29.59375 11.921875 
L 46.6875 54.6875 
L 56.203125 54.6875 
z
" id="DejaVuSans-79"/>
     </defs>
     <g transform="translate(307.08875 296.504312)scale(0.1 -0.1)">
      <use xlink:href="#DejaVuSans-43"/>
      <use x="69.824219" xlink:href="#DejaVuSans-6f"/>
      <use x="131.005859" xlink:href="#DejaVuSans-6c"/>
      <use x="158.789062" xlink:href="#DejaVuSans-6c"/>
      <use x="186.572266" xlink:href="#DejaVuSans-69"/>
      <use x="214.355469" xlink:href="#DejaVuSans-73"/>
      <use x="266.455078" xlink:href="#DejaVuSans-69"/>
      <use x="294.238281" xlink:href="#DejaVuSans-6f"/>
      <use x="355.419922" xlink:href="#DejaVuSans-6e"/>
      <use x="418.798828" xlink:href="#DejaVuSans-20"/>
      <use x="450.585938" xlink:href="#DejaVuSans-70"/>
      <use x="514.0625" xlink:href="#DejaVuSans-72"/>
      <use x="555.144531" xlink:href="#DejaVuSans-6f"/>
      <use x="616.326172" xlink:href="#DejaVuSans-62"/>
      <use x="679.802734" xlink:href="#DejaVuSans-61"/>
      <use x="741.082031" xlink:href="#DejaVuSans-62"/>
      <use x="804.558594" xlink:href="#DejaVuSans-69"/>
      <use x="832.341797" xlink:href="#DejaVuSans-6c"/>
      <use x="860.125" xlink:href="#DejaVuSans-69"/>
      <use x="887.908203" xlink:href="#DejaVuSans-74"/>
      <use x="927.117188" xlink:href="#DejaVuSans-79"/>
     </g>
    </g>
   </g>
  </g>
 </g>
 <defs>
  <clipPath id="p21a28a909c">
   <rect height="266.112" width="357.12" x="57.6" y="41.472"/>
  </clipPath>
 </defs>
</svg>
