<?xml version="1.0" encoding="utf-8" standalone="no"?>
<!DOCTYPE svg PUBLIC "-//W3C//DTD SVG 1.1//EN"
  "http://www.w3.org/Graphics/SVG/1.1/DTD/svg11.dtd">
<!-- Created with matplotlib (http://matplotlib.org/) -->
<svg height="345pt" version="1.1" viewBox="0 0 460 345" width="460pt" xmlns="http://www.w3.org/2000/svg" xmlns:xlink="http://www.w3.org/1999/xlink">
 <defs>
  <style type="text/css">
*{stroke-linecap:butt;stroke-linejoin:round;}
  </style>
 </defs>
 <g id="figure_1">
  <g id="patch_1">
   <path d="M 0 345.6 
L 460.8 345.6 
L 460.8 0 
L 0 0 
z
" style="fill:#ffffff;"/>
  </g>
  <g id="axes_1">
   <g id="patch_2">
    <path d="M 57.6 307.584 
L 414.72 307.584 
L 414.72 41.472 
L 57.6 41.472 
z
" style="fill:#ffffff;"/>
   </g>
   <g id="matplotlib.axis_1">
    <g id="xtick_1">
     <g id="line2d_1">
      <path clip-path="url(#pb8c068054d)" d="M 57.239273 307.584 
L 57.239273 41.472 
" style="fill:none;stroke:#b0b0b0;stroke-linecap:square;stroke-width:0.8;"/>
     </g>
     <g id="line2d_2">
      <defs>
       <path d="M 0 0 
L 0 3.5 
" id="m1779c831f5" style="stroke:#000000;stroke-width:0.8;"/>
      </defs>
      <g>
       <use style="stroke:#000000;stroke-width:0.8;" x="57.239273" xlink:href="#m1779c831f5" y="307.584"/>
      </g>
     </g>
     <g id="text_1">
      <!-- 0 -->
      <defs>
       <path d="M 31.78125 66.40625 
Q 24.171875 66.40625 20.328125 58.90625 
Q 16.5 51.421875 16.5 36.375 
Q 16.5 21.390625 20.328125 13.890625 
Q 24.171875 6.390625 31.78125 6.390625 
Q 39.453125 6.390625 43.28125 13.890625 
Q 47.125 21.390625 47.125 36.375 
Q 47.125 51.421875 43.28125 58.90625 
Q 39.453125 66.40625 31.78125 66.40625 
M 31.78125 74.21875 
Q 44.046875 74.21875 50.515625 64.515625 
Q 56.984375 54.828125 56.984375 36.375 
Q 56.984375 17.96875 50.515625 8.265625 
Q 44.046875 -1.421875 31.78125 -1.421875 
Q 19.53125 -1.421875 13.0625 8.265625 
Q 6.59375 17.96875 6.59375 36.375 
Q 6.59375 54.828125 13.0625 64.515625 
Q 19.53125 74.21875 31.78125 74.21875 
" id="DejaVuSans-30"/>
      </defs>
      <g transform="translate(54.058023 322.182437)scale(0.1 -0.1)">
       <use xlink:href="#DejaVuSans-30"/>
      </g>
     </g>
    </g>
    <g id="xtick_2">
     <g id="line2d_3">
      <path clip-path="url(#pb8c068054d)" d="M 129.384727 307.584 
L 129.384727 41.472 
" style="fill:none;stroke:#b0b0b0;stroke-linecap:square;stroke-width:0.8;"/>
     </g>
     <g id="line2d_4">
      <g>
       <use style="stroke:#000000;stroke-width:0.8;" x="129.384727" xlink:href="#m1779c831f5" y="307.584"/>
      </g>
     </g>
     <g id="text_2">
      <!-- 200 -->
      <defs>
       <path d="M 19.1875 8.296875 
L 53.609375 8.296875 
L 53.609375 0 
L 7.328125 0 
L 7.328125 8.296875 
Q 12.9375 14.109375 22.625 23.890625 
Q 32.328125 33.6875 34.8125 36.53125 
Q 39.546875 41.84375 41.421875 45.53125 
Q 43.3125 49.21875 43.3125 52.78125 
Q 43.3125 58.59375 39.234375 62.25 
Q 35.15625 65.921875 28.609375 65.921875 
Q 23.96875 65.921875 18.8125 64.3125 
Q 13.671875 62.703125 7.8125 59.421875 
L 7.8125 69.390625 
Q 13.765625 71.78125 18.9375 73 
Q 24.125 74.21875 28.421875 74.21875 
Q 39.75 74.21875 46.484375 68.546875 
Q 53.21875 62.890625 53.21875 53.421875 
Q 53.21875 48.921875 51.53125 44.890625 
Q 49.859375 40.875 45.40625 35.40625 
Q 44.1875 33.984375 37.640625 27.21875 
Q 31.109375 20.453125 19.1875 8.296875 
" id="DejaVuSans-32"/>
      </defs>
      <g transform="translate(119.840977 322.182437)scale(0.1 -0.1)">
       <use xlink:href="#DejaVuSans-32"/>
       <use x="63.623047" xlink:href="#DejaVuSans-30"/>
       <use x="127.246094" xlink:href="#DejaVuSans-30"/>
      </g>
     </g>
    </g>
    <g id="xtick_3">
     <g id="line2d_5">
      <path clip-path="url(#pb8c068054d)" d="M 201.530182 307.584 
L 201.530182 41.472 
" style="fill:none;stroke:#b0b0b0;stroke-linecap:square;stroke-width:0.8;"/>
     </g>
     <g id="line2d_6">
      <g>
       <use style="stroke:#000000;stroke-width:0.8;" x="201.530182" xlink:href="#m1779c831f5" y="307.584"/>
      </g>
     </g>
     <g id="text_3">
      <!-- 400 -->
      <defs>
       <path d="M 37.796875 64.3125 
L 12.890625 25.390625 
L 37.796875 25.390625 
z
M 35.203125 72.90625 
L 47.609375 72.90625 
L 47.609375 25.390625 
L 58.015625 25.390625 
L 58.015625 17.1875 
L 47.609375 17.1875 
L 47.609375 0 
L 37.796875 0 
L 37.796875 17.1875 
L 4.890625 17.1875 
L 4.890625 26.703125 
z
" id="DejaVuSans-34"/>
      </defs>
      <g transform="translate(191.986432 322.182437)scale(0.1 -0.1)">
       <use xlink:href="#DejaVuSans-34"/>
       <use x="63.623047" xlink:href="#DejaVuSans-30"/>
       <use x="127.246094" xlink:href="#DejaVuSans-30"/>
      </g>
     </g>
    </g>
    <g id="xtick_4">
     <g id="line2d_7">
      <path clip-path="url(#pb8c068054d)" d="M 273.675636 307.584 
L 273.675636 41.472 
" style="fill:none;stroke:#b0b0b0;stroke-linecap:square;stroke-width:0.8;"/>
     </g>
     <g id="line2d_8">
      <g>
       <use style="stroke:#000000;stroke-width:0.8;" x="273.675636" xlink:href="#m1779c831f5" y="307.584"/>
      </g>
     </g>
     <g id="text_4">
      <!-- 600 -->
      <defs>
       <path d="M 33.015625 40.375 
Q 26.375 40.375 22.484375 35.828125 
Q 18.609375 31.296875 18.609375 23.390625 
Q 18.609375 15.53125 22.484375 10.953125 
Q 26.375 6.390625 33.015625 6.390625 
Q 39.65625 6.390625 43.53125 10.953125 
Q 47.40625 15.53125 47.40625 23.390625 
Q 47.40625 31.296875 43.53125 35.828125 
Q 39.65625 40.375 33.015625 40.375 
M 52.59375 71.296875 
L 52.59375 62.3125 
Q 48.875 64.0625 45.09375 64.984375 
Q 41.3125 65.921875 37.59375 65.921875 
Q 27.828125 65.921875 22.671875 59.328125 
Q 17.53125 52.734375 16.796875 39.40625 
Q 19.671875 43.65625 24.015625 45.921875 
Q 28.375 48.1875 33.59375 48.1875 
Q 44.578125 48.1875 50.953125 41.515625 
Q 57.328125 34.859375 57.328125 23.390625 
Q 57.328125 12.15625 50.6875 5.359375 
Q 44.046875 -1.421875 33.015625 -1.421875 
Q 20.359375 -1.421875 13.671875 8.265625 
Q 6.984375 17.96875 6.984375 36.375 
Q 6.984375 53.65625 15.1875 63.9375 
Q 23.390625 74.21875 37.203125 74.21875 
Q 40.921875 74.21875 44.703125 73.484375 
Q 48.484375 72.75 52.59375 71.296875 
" id="DejaVuSans-36"/>
      </defs>
      <g transform="translate(264.131886 322.182437)scale(0.1 -0.1)">
       <use xlink:href="#DejaVuSans-36"/>
       <use x="63.623047" xlink:href="#DejaVuSans-30"/>
       <use x="127.246094" xlink:href="#DejaVuSans-30"/>
      </g>
     </g>
    </g>
    <g id="xtick_5">
     <g id="line2d_9">
      <path clip-path="url(#pb8c068054d)" d="M 345.821091 307.584 
L 345.821091 41.472 
" style="fill:none;stroke:#b0b0b0;stroke-linecap:square;stroke-width:0.8;"/>
     </g>
     <g id="line2d_10">
      <g>
       <use style="stroke:#000000;stroke-width:0.8;" x="345.821091" xlink:href="#m1779c831f5" y="307.584"/>
      </g>
     </g>
     <g id="text_5">
      <!-- 800 -->
      <defs>
       <path d="M 31.78125 34.625 
Q 24.75 34.625 20.71875 30.859375 
Q 16.703125 27.09375 16.703125 20.515625 
Q 16.703125 13.921875 20.71875 10.15625 
Q 24.75 6.390625 31.78125 6.390625 
Q 38.8125 6.390625 42.859375 10.171875 
Q 46.921875 13.96875 46.921875 20.515625 
Q 46.921875 27.09375 42.890625 30.859375 
Q 38.875 34.625 31.78125 34.625 
M 21.921875 38.8125 
Q 15.578125 40.375 12.03125 44.71875 
Q 8.5 49.078125 8.5 55.328125 
Q 8.5 64.0625 14.71875 69.140625 
Q 20.953125 74.21875 31.78125 74.21875 
Q 42.671875 74.21875 48.875 69.140625 
Q 55.078125 64.0625 55.078125 55.328125 
Q 55.078125 49.078125 51.53125 44.71875 
Q 48 40.375 41.703125 38.8125 
Q 48.828125 37.15625 52.796875 32.3125 
Q 56.78125 27.484375 56.78125 20.515625 
Q 56.78125 9.90625 50.3125 4.234375 
Q 43.84375 -1.421875 31.78125 -1.421875 
Q 19.734375 -1.421875 13.25 4.234375 
Q 6.78125 9.90625 6.78125 20.515625 
Q 6.78125 27.484375 10.78125 32.3125 
Q 14.796875 37.15625 21.921875 38.8125 
M 18.3125 54.390625 
Q 18.3125 48.734375 21.84375 45.5625 
Q 25.390625 42.390625 31.78125 42.390625 
Q 38.140625 42.390625 41.71875 45.5625 
Q 45.3125 48.734375 45.3125 54.390625 
Q 45.3125 60.0625 41.71875 63.234375 
Q 38.140625 66.40625 31.78125 66.40625 
Q 25.390625 66.40625 21.84375 63.234375 
Q 18.3125 60.0625 18.3125 54.390625 
" id="DejaVuSans-38"/>
      </defs>
      <g transform="translate(336.277341 322.182437)scale(0.1 -0.1)">
       <use xlink:href="#DejaVuSans-38"/>
       <use x="63.623047" xlink:href="#DejaVuSans-30"/>
       <use x="127.246094" xlink:href="#DejaVuSans-30"/>
      </g>
     </g>
    </g>
    <g id="text_6">
     <!-- Number of clients -->
     <defs>
      <path d="M 9.8125 72.90625 
L 23.09375 72.90625 
L 55.421875 11.921875 
L 55.421875 72.90625 
L 64.984375 72.90625 
L 64.984375 0 
L 51.703125 0 
L 19.390625 60.984375 
L 19.390625 0 
L 9.8125 0 
z
" id="DejaVuSans-4e"/>
      <path d="M 8.5 21.578125 
L 8.5 54.6875 
L 17.484375 54.6875 
L 17.484375 21.921875 
Q 17.484375 14.15625 20.5 10.265625 
Q 23.53125 6.390625 29.59375 6.390625 
Q 36.859375 6.390625 41.078125 11.03125 
Q 45.3125 15.671875 45.3125 23.6875 
L 45.3125 54.6875 
L 54.296875 54.6875 
L 54.296875 0 
L 45.3125 0 
L 45.3125 8.40625 
Q 42.046875 3.421875 37.71875 1 
Q 33.40625 -1.421875 27.6875 -1.421875 
Q 18.265625 -1.421875 13.375 4.4375 
Q 8.5 10.296875 8.5 21.578125 
M 31.109375 56 
z
" id="DejaVuSans-75"/>
      <path d="M 52 44.1875 
Q 55.375 50.25 60.0625 53.125 
Q 64.75 56 71.09375 56 
Q 79.640625 56 84.28125 50.015625 
Q 88.921875 44.046875 88.921875 33.015625 
L 88.921875 0 
L 79.890625 0 
L 79.890625 32.71875 
Q 79.890625 40.578125 77.09375 44.375 
Q 74.3125 48.1875 68.609375 48.1875 
Q 61.625 48.1875 57.5625 43.546875 
Q 53.515625 38.921875 53.515625 30.90625 
L 53.515625 0 
L 44.484375 0 
L 44.484375 32.71875 
Q 44.484375 40.625 41.703125 44.40625 
Q 38.921875 48.1875 33.109375 48.1875 
Q 26.21875 48.1875 22.15625 43.53125 
Q 18.109375 38.875 18.109375 30.90625 
L 18.109375 0 
L 9.078125 0 
L 9.078125 54.6875 
L 18.109375 54.6875 
L 18.109375 46.1875 
Q 21.1875 51.21875 25.484375 53.609375 
Q 29.78125 56 35.6875 56 
Q 41.65625 56 45.828125 52.96875 
Q 50 49.953125 52 44.1875 
" id="DejaVuSans-6d"/>
      <path d="M 48.6875 27.296875 
Q 48.6875 37.203125 44.609375 42.84375 
Q 40.53125 48.484375 33.40625 48.484375 
Q 26.265625 48.484375 22.1875 42.84375 
Q 18.109375 37.203125 18.109375 27.296875 
Q 18.109375 17.390625 22.1875 11.75 
Q 26.265625 6.109375 33.40625 6.109375 
Q 40.53125 6.109375 44.609375 11.75 
Q 48.6875 17.390625 48.6875 27.296875 
M 18.109375 46.390625 
Q 20.953125 51.265625 25.265625 53.625 
Q 29.59375 56 35.59375 56 
Q 45.5625 56 51.78125 48.09375 
Q 58.015625 40.1875 58.015625 27.296875 
Q 58.015625 14.40625 51.78125 6.484375 
Q 45.5625 -1.421875 35.59375 -1.421875 
Q 29.59375 -1.421875 25.265625 0.953125 
Q 20.953125 3.328125 18.109375 8.203125 
L 18.109375 0 
L 9.078125 0 
L 9.078125 75.984375 
L 18.109375 75.984375 
z
" id="DejaVuSans-62"/>
      <path d="M 56.203125 29.59375 
L 56.203125 25.203125 
L 14.890625 25.203125 
Q 15.484375 15.921875 20.484375 11.0625 
Q 25.484375 6.203125 34.421875 6.203125 
Q 39.59375 6.203125 44.453125 7.46875 
Q 49.3125 8.734375 54.109375 11.28125 
L 54.109375 2.78125 
Q 49.265625 0.734375 44.1875 -0.34375 
Q 39.109375 -1.421875 33.890625 -1.421875 
Q 20.796875 -1.421875 13.15625 6.1875 
Q 5.515625 13.8125 5.515625 26.8125 
Q 5.515625 40.234375 12.765625 48.109375 
Q 20.015625 56 32.328125 56 
Q 43.359375 56 49.78125 48.890625 
Q 56.203125 41.796875 56.203125 29.59375 
M 47.21875 32.234375 
Q 47.125 39.59375 43.09375 43.984375 
Q 39.0625 48.390625 32.421875 48.390625 
Q 24.90625 48.390625 20.390625 44.140625 
Q 15.875 39.890625 15.1875 32.171875 
z
" id="DejaVuSans-65"/>
      <path d="M 41.109375 46.296875 
Q 39.59375 47.171875 37.8125 47.578125 
Q 36.03125 48 33.890625 48 
Q 26.265625 48 22.1875 43.046875 
Q 18.109375 38.09375 18.109375 28.8125 
L 18.109375 0 
L 9.078125 0 
L 9.078125 54.6875 
L 18.109375 54.6875 
L 18.109375 46.1875 
Q 20.953125 51.171875 25.484375 53.578125 
Q 30.03125 56 36.53125 56 
Q 37.453125 56 38.578125 55.875 
Q 39.703125 55.765625 41.0625 55.515625 
z
" id="DejaVuSans-72"/>
      <path id="DejaVuSans-20"/>
      <path d="M 30.609375 48.390625 
Q 23.390625 48.390625 19.1875 42.75 
Q 14.984375 37.109375 14.984375 27.296875 
Q 14.984375 17.484375 19.15625 11.84375 
Q 23.34375 6.203125 30.609375 6.203125 
Q 37.796875 6.203125 41.984375 11.859375 
Q 46.1875 17.53125 46.1875 27.296875 
Q 46.1875 37.015625 41.984375 42.703125 
Q 37.796875 48.390625 30.609375 48.390625 
M 30.609375 56 
Q 42.328125 56 49.015625 48.375 
Q 55.71875 40.765625 55.71875 27.296875 
Q 55.71875 13.875 49.015625 6.21875 
Q 42.328125 -1.421875 30.609375 -1.421875 
Q 18.84375 -1.421875 12.171875 6.21875 
Q 5.515625 13.875 5.515625 27.296875 
Q 5.515625 40.765625 12.171875 48.375 
Q 18.84375 56 30.609375 56 
" id="DejaVuSans-6f"/>
      <path d="M 37.109375 75.984375 
L 37.109375 68.5 
L 28.515625 68.5 
Q 23.6875 68.5 21.796875 66.546875 
Q 19.921875 64.59375 19.921875 59.515625 
L 19.921875 54.6875 
L 34.71875 54.6875 
L 34.71875 47.703125 
L 19.921875 47.703125 
L 19.921875 0 
L 10.890625 0 
L 10.890625 47.703125 
L 2.296875 47.703125 
L 2.296875 54.6875 
L 10.890625 54.6875 
L 10.890625 58.5 
Q 10.890625 67.625 15.140625 71.796875 
Q 19.390625 75.984375 28.609375 75.984375 
z
" id="DejaVuSans-66"/>
      <path d="M 48.78125 52.59375 
L 48.78125 44.1875 
Q 44.96875 46.296875 41.140625 47.34375 
Q 37.3125 48.390625 33.40625 48.390625 
Q 24.65625 48.390625 19.8125 42.84375 
Q 14.984375 37.3125 14.984375 27.296875 
Q 14.984375 17.28125 19.8125 11.734375 
Q 24.65625 6.203125 33.40625 6.203125 
Q 37.3125 6.203125 41.140625 7.25 
Q 44.96875 8.296875 48.78125 10.40625 
L 48.78125 2.09375 
Q 45.015625 0.34375 40.984375 -0.53125 
Q 36.96875 -1.421875 32.421875 -1.421875 
Q 20.0625 -1.421875 12.78125 6.34375 
Q 5.515625 14.109375 5.515625 27.296875 
Q 5.515625 40.671875 12.859375 48.328125 
Q 20.21875 56 33.015625 56 
Q 37.15625 56 41.109375 55.140625 
Q 45.0625 54.296875 48.78125 52.59375 
" id="DejaVuSans-63"/>
      <path d="M 9.421875 75.984375 
L 18.40625 75.984375 
L 18.40625 0 
L 9.421875 0 
z
" id="DejaVuSans-6c"/>
      <path d="M 9.421875 54.6875 
L 18.40625 54.6875 
L 18.40625 0 
L 9.421875 0 
z
M 9.421875 75.984375 
L 18.40625 75.984375 
L 18.40625 64.59375 
L 9.421875 64.59375 
z
" id="DejaVuSans-69"/>
      <path d="M 54.890625 33.015625 
L 54.890625 0 
L 45.90625 0 
L 45.90625 32.71875 
Q 45.90625 40.484375 42.875 44.328125 
Q 39.84375 48.1875 33.796875 48.1875 
Q 26.515625 48.1875 22.3125 43.546875 
Q 18.109375 38.921875 18.109375 30.90625 
L 18.109375 0 
L 9.078125 0 
L 9.078125 54.6875 
L 18.109375 54.6875 
L 18.109375 46.1875 
Q 21.34375 51.125 25.703125 53.5625 
Q 30.078125 56 35.796875 56 
Q 45.21875 56 50.046875 50.171875 
Q 54.890625 44.34375 54.890625 33.015625 
" id="DejaVuSans-6e"/>
      <path d="M 18.3125 70.21875 
L 18.3125 54.6875 
L 36.8125 54.6875 
L 36.8125 47.703125 
L 18.3125 47.703125 
L 18.3125 18.015625 
Q 18.3125 11.328125 20.140625 9.421875 
Q 21.96875 7.515625 27.59375 7.515625 
L 36.8125 7.515625 
L 36.8125 0 
L 27.59375 0 
Q 17.1875 0 13.234375 3.875 
Q 9.28125 7.765625 9.28125 18.015625 
L 9.28125 47.703125 
L 2.6875 47.703125 
L 2.6875 54.6875 
L 9.28125 54.6875 
L 9.28125 70.21875 
z
" id="DejaVuSans-74"/>
      <path d="M 44.28125 53.078125 
L 44.28125 44.578125 
Q 40.484375 46.53125 36.375 47.5 
Q 32.28125 48.484375 27.875 48.484375 
Q 21.1875 48.484375 17.84375 46.4375 
Q 14.5 44.390625 14.5 40.28125 
Q 14.5 37.15625 16.890625 35.375 
Q 19.28125 33.59375 26.515625 31.984375 
L 29.59375 31.296875 
Q 39.15625 29.25 43.1875 25.515625 
Q 47.21875 21.78125 47.21875 15.09375 
Q 47.21875 7.46875 41.1875 3.015625 
Q 35.15625 -1.421875 24.609375 -1.421875 
Q 20.21875 -1.421875 15.453125 -0.5625 
Q 10.6875 0.296875 5.421875 2 
L 5.421875 11.28125 
Q 10.40625 8.6875 15.234375 7.390625 
Q 20.0625 6.109375 24.8125 6.109375 
Q 31.15625 6.109375 34.5625 8.28125 
Q 37.984375 10.453125 37.984375 14.40625 
Q 37.984375 18.0625 35.515625 20.015625 
Q 33.0625 21.96875 24.703125 23.78125 
L 21.578125 24.515625 
Q 13.234375 26.265625 9.515625 29.90625 
Q 5.8125 33.546875 5.8125 39.890625 
Q 5.8125 47.609375 11.28125 51.796875 
Q 16.75 56 26.8125 56 
Q 31.78125 56 36.171875 55.265625 
Q 40.578125 54.546875 44.28125 53.078125 
" id="DejaVuSans-73"/>
     </defs>
     <g transform="translate(191.738906 335.860562)scale(0.1 -0.1)">
      <use xlink:href="#DejaVuSans-4e"/>
      <use x="74.804688" xlink:href="#DejaVuSans-75"/>
      <use x="138.183594" xlink:href="#DejaVuSans-6d"/>
      <use x="235.595703" xlink:href="#DejaVuSans-62"/>
      <use x="299.072266" xlink:href="#DejaVuSans-65"/>
      <use x="360.595703" xlink:href="#DejaVuSans-72"/>
      <use x="401.708984" xlink:href="#DejaVuSans-20"/>
      <use x="433.496094" xlink:href="#DejaVuSans-6f"/>
      <use x="494.677734" xlink:href="#DejaVuSans-66"/>
      <use x="529.882812" xlink:href="#DejaVuSans-20"/>
      <use x="561.669922" xlink:href="#DejaVuSans-63"/>
      <use x="616.650391" xlink:href="#DejaVuSans-6c"/>
      <use x="644.433594" xlink:href="#DejaVuSans-69"/>
      <use x="672.216797" xlink:href="#DejaVuSans-65"/>
      <use x="733.740234" xlink:href="#DejaVuSans-6e"/>
      <use x="797.119141" xlink:href="#DejaVuSans-74"/>
      <use x="836.328125" xlink:href="#DejaVuSans-73"/>
     </g>
    </g>
   </g>
   <g id="matplotlib.axis_2">
    <g id="ytick_1">
     <g id="line2d_11">
      <path clip-path="url(#pb8c068054d)" d="M 57.6 295.491871 
L 414.72 295.491871 
" style="fill:none;stroke:#b0b0b0;stroke-linecap:square;stroke-width:0.8;"/>
     </g>
     <g id="line2d_12">
      <defs>
       <path d="M 0 0 
L -3.5 0 
" id="m0d8a1da678" style="stroke:#000000;stroke-width:0.8;"/>
      </defs>
      <g>
       <use style="stroke:#000000;stroke-width:0.8;" x="57.6" xlink:href="#m0d8a1da678" y="295.491871"/>
      </g>
     </g>
     <g id="text_7">
      <!-- 0.0 -->
      <defs>
       <path d="M 10.6875 12.40625 
L 21 12.40625 
L 21 0 
L 10.6875 0 
z
" id="DejaVuSans-2e"/>
      </defs>
      <g transform="translate(34.696875 299.29109)scale(0.1 -0.1)">
       <use xlink:href="#DejaVuSans-30"/>
       <use x="63.623047" xlink:href="#DejaVuSans-2e"/>
       <use x="95.410156" xlink:href="#DejaVuSans-30"/>
      </g>
     </g>
    </g>
    <g id="ytick_2">
     <g id="line2d_13">
      <path clip-path="url(#pb8c068054d)" d="M 57.6 247.107097 
L 414.72 247.107097 
" style="fill:none;stroke:#b0b0b0;stroke-linecap:square;stroke-width:0.8;"/>
     </g>
     <g id="line2d_14">
      <g>
       <use style="stroke:#000000;stroke-width:0.8;" x="57.6" xlink:href="#m0d8a1da678" y="247.107097"/>
      </g>
     </g>
     <g id="text_8">
      <!-- 0.2 -->
      <g transform="translate(34.696875 250.906315)scale(0.1 -0.1)">
       <use xlink:href="#DejaVuSans-30"/>
       <use x="63.623047" xlink:href="#DejaVuSans-2e"/>
       <use x="95.410156" xlink:href="#DejaVuSans-32"/>
      </g>
     </g>
    </g>
    <g id="ytick_3">
     <g id="line2d_15">
      <path clip-path="url(#pb8c068054d)" d="M 57.6 198.722322 
L 414.72 198.722322 
" style="fill:none;stroke:#b0b0b0;stroke-linecap:square;stroke-width:0.8;"/>
     </g>
     <g id="line2d_16">
      <g>
       <use style="stroke:#000000;stroke-width:0.8;" x="57.6" xlink:href="#m0d8a1da678" y="198.722322"/>
      </g>
     </g>
     <g id="text_9">
      <!-- 0.4 -->
      <g transform="translate(34.696875 202.521541)scale(0.1 -0.1)">
       <use xlink:href="#DejaVuSans-30"/>
       <use x="63.623047" xlink:href="#DejaVuSans-2e"/>
       <use x="95.410156" xlink:href="#DejaVuSans-34"/>
      </g>
     </g>
    </g>
    <g id="ytick_4">
     <g id="line2d_17">
      <path clip-path="url(#pb8c068054d)" d="M 57.6 150.337548 
L 414.72 150.337548 
" style="fill:none;stroke:#b0b0b0;stroke-linecap:square;stroke-width:0.8;"/>
     </g>
     <g id="line2d_18">
      <g>
       <use style="stroke:#000000;stroke-width:0.8;" x="57.6" xlink:href="#m0d8a1da678" y="150.337548"/>
      </g>
     </g>
     <g id="text_10">
      <!-- 0.6 -->
      <g transform="translate(34.696875 154.136767)scale(0.1 -0.1)">
       <use xlink:href="#DejaVuSans-30"/>
       <use x="63.623047" xlink:href="#DejaVuSans-2e"/>
       <use x="95.410156" xlink:href="#DejaVuSans-36"/>
      </g>
     </g>
    </g>
    <g id="ytick_5">
     <g id="line2d_19">
      <path clip-path="url(#pb8c068054d)" d="M 57.6 101.952774 
L 414.72 101.952774 
" style="fill:none;stroke:#b0b0b0;stroke-linecap:square;stroke-width:0.8;"/>
     </g>
     <g id="line2d_20">
      <g>
       <use style="stroke:#000000;stroke-width:0.8;" x="57.6" xlink:href="#m0d8a1da678" y="101.952774"/>
      </g>
     </g>
     <g id="text_11">
      <!-- 0.8 -->
      <g transform="translate(34.696875 105.751993)scale(0.1 -0.1)">
       <use xlink:href="#DejaVuSans-30"/>
       <use x="63.623047" xlink:href="#DejaVuSans-2e"/>
       <use x="95.410156" xlink:href="#DejaVuSans-38"/>
      </g>
     </g>
    </g>
    <g id="ytick_6">
     <g id="line2d_21">
      <path clip-path="url(#pb8c068054d)" d="M 57.6 53.568 
L 414.72 53.568 
" style="fill:none;stroke:#b0b0b0;stroke-linecap:square;stroke-width:0.8;"/>
     </g>
     <g id="line2d_22">
      <g>
       <use style="stroke:#000000;stroke-width:0.8;" x="57.6" xlink:href="#m0d8a1da678" y="53.568"/>
      </g>
     </g>
     <g id="text_12">
      <!-- 1.0 -->
      <defs>
       <path d="M 12.40625 8.296875 
L 28.515625 8.296875 
L 28.515625 63.921875 
L 10.984375 60.40625 
L 10.984375 69.390625 
L 28.421875 72.90625 
L 38.28125 72.90625 
L 38.28125 8.296875 
L 54.390625 8.296875 
L 54.390625 0 
L 12.40625 0 
z
" id="DejaVuSans-31"/>
      </defs>
      <g transform="translate(34.696875 57.367219)scale(0.1 -0.1)">
       <use xlink:href="#DejaVuSans-31"/>
       <use x="63.623047" xlink:href="#DejaVuSans-2e"/>
       <use x="95.410156" xlink:href="#DejaVuSans-30"/>
      </g>
     </g>
    </g>
    <g id="text_13">
     <!-- Collision probability -->
     <defs>
      <path d="M 64.40625 67.28125 
L 64.40625 56.890625 
Q 59.421875 61.53125 53.78125 63.8125 
Q 48.140625 66.109375 41.796875 66.109375 
Q 29.296875 66.109375 22.65625 58.46875 
Q 16.015625 50.828125 16.015625 36.375 
Q 16.015625 21.96875 22.65625 14.328125 
Q 29.296875 6.6875 41.796875 6.6875 
Q 48.140625 6.6875 53.78125 8.984375 
Q 59.421875 11.28125 64.40625 15.921875 
L 64.40625 5.609375 
Q 59.234375 2.09375 53.4375 0.328125 
Q 47.65625 -1.421875 41.21875 -1.421875 
Q 24.65625 -1.421875 15.125 8.703125 
Q 5.609375 18.84375 5.609375 36.375 
Q 5.609375 53.953125 15.125 64.078125 
Q 24.65625 74.21875 41.21875 74.21875 
Q 47.75 74.21875 53.53125 72.484375 
Q 59.328125 70.75 64.40625 67.28125 
" id="DejaVuSans-43"/>
      <path d="M 18.109375 8.203125 
L 18.109375 -20.796875 
L 9.078125 -20.796875 
L 9.078125 54.6875 
L 18.109375 54.6875 
L 18.109375 46.390625 
Q 20.953125 51.265625 25.265625 53.625 
Q 29.59375 56 35.59375 56 
Q 45.5625 56 51.78125 48.09375 
Q 58.015625 40.1875 58.015625 27.296875 
Q 58.015625 14.40625 51.78125 6.484375 
Q 45.5625 -1.421875 35.59375 -1.421875 
Q 29.59375 -1.421875 25.265625 0.953125 
Q 20.953125 3.328125 18.109375 8.203125 
M 48.6875 27.296875 
Q 48.6875 37.203125 44.609375 42.84375 
Q 40.53125 48.484375 33.40625 48.484375 
Q 26.265625 48.484375 22.1875 42.84375 
Q 18.109375 37.203125 18.109375 27.296875 
Q 18.109375 17.390625 22.1875 11.75 
Q 26.265625 6.109375 33.40625 6.109375 
Q 40.53125 6.109375 44.609375 11.75 
Q 48.6875 17.390625 48.6875 27.296875 
" id="DejaVuSans-70"/>
      <path d="M 34.28125 27.484375 
Q 23.390625 27.484375 19.1875 25 
Q 14.984375 22.515625 14.984375 16.5 
Q 14.984375 11.71875 18.140625 8.90625 
Q 21.296875 6.109375 26.703125 6.109375 
Q 34.1875 6.109375 38.703125 11.40625 
Q 43.21875 16.703125 43.21875 25.484375 
L 43.21875 27.484375 
z
M 52.203125 31.203125 
L 52.203125 0 
L 43.21875 0 
L 43.21875 8.296875 
Q 40.140625 3.328125 35.546875 0.953125 
Q 30.953125 -1.421875 24.3125 -1.421875 
Q 15.921875 -1.421875 10.953125 3.296875 
Q 6 8.015625 6 15.921875 
Q 6 25.140625 12.171875 29.828125 
Q 18.359375 34.515625 30.609375 34.515625 
L 43.21875 34.515625 
L 43.21875 35.40625 
Q 43.21875 41.609375 39.140625 45 
Q 35.0625 48.390625 27.6875 48.390625 
Q 23 48.390625 18.546875 47.265625 
Q 14.109375 46.140625 10.015625 43.890625 
L 10.015625 52.203125 
Q 14.9375 54.109375 19.578125 55.046875 
Q 24.21875 56 28.609375 56 
Q 40.484375 56 46.34375 49.84375 
Q 52.203125 43.703125 52.203125 31.203125 
" id="DejaVuSans-61"/>
      <path d="M 32.171875 -5.078125 
Q 28.375 -14.84375 24.75 -17.8125 
Q 21.140625 -20.796875 15.09375 -20.796875 
L 7.90625 -20.796875 
L 7.90625 -13.28125 
L 13.1875 -13.28125 
Q 16.890625 -13.28125 18.9375 -11.515625 
Q 21 -9.765625 23.484375 -3.21875 
L 25.09375 0.875 
L 2.984375 54.6875 
L 12.5 54.6875 
L 29.59375 11.921875 
L 46.6875 54.6875 
L 56.203125 54.6875 
z
" id="DejaVuSans-79"/>
     </defs>
     <g transform="translate(28.617187 223.843625)rotate(-90)scale(0.1 -0.1)">
      <use xlink:href="#DejaVuSans-43"/>
      <use x="69.824219" xlink:href="#DejaVuSans-6f"/>
      <use x="131.005859" xlink:href="#DejaVuSans-6c"/>
      <use x="158.789062" xlink:href="#DejaVuSans-6c"/>
      <use x="186.572266" xlink:href="#DejaVuSans-69"/>
      <use x="214.355469" xlink:href="#DejaVuSans-73"/>
      <use x="266.455078" xlink:href="#DejaVuSans-69"/>
      <use x="294.238281" xlink:href="#DejaVuSans-6f"/>
      <use x="355.419922" xlink:href="#DejaVuSans-6e"/>
      <use x="418.798828" xlink:href="#DejaVuSans-20"/>
      <use x="450.585938" xlink:href="#DejaVuSans-70"/>
      <use x="514.0625" xlink:href="#DejaVuSans-72"/>
      <use x="555.144531" xlink:href="#DejaVuSans-6f"/>
      <use x="616.326172" xlink:href="#DejaVuSans-62"/>
      <use x="679.802734" xlink:href="#DejaVuSans-61"/>
      <use x="741.082031" xlink:href="#DejaVuSans-62"/>
      <use x="804.558594" xlink:href="#DejaVuSans-69"/>
      <use x="832.341797" xlink:href="#DejaVuSans-6c"/>
      <use x="860.125" xlink:href="#DejaVuSans-69"/>
      <use x="887.908203" xlink:href="#DejaVuSans-74"/>
      <use x="927.117188" xlink:href="#DejaVuSans-79"/>
     </g>
    </g>
   </g>
   <g id="line2d_23">
    <path clip-path="url(#pb8c068054d)" d="M 57.6 295.488 
L 61.207273 295.448324 
L 64.814545 295.195272 
L 68.421818 292.324845 
L 72.029091 269.438363 
L 75.636364 118.021116 
L 79.243636 63.060367 
L 82.850909 53.568 
L 86.458182 57.503618 
L 90.065455 56.217308 
L 93.672727 53.568 
L 97.28 54.812698 
L 100.887273 58.375511 
L 104.494545 53.568 
L 108.101818 56.472054 
L 111.709091 54.679398 
L 115.316364 53.568 
L 118.923636 54.184906 
L 122.530909 56.323755 
L 126.138182 55.922887 
L 129.745455 53.568 
L 133.352727 53.568 
L 136.96 53.568 
L 140.567273 53.568 
L 144.174545 55.882486 
L 147.781818 53.868228 
L 151.389091 53.568 
L 154.996364 60.311386 
L 158.603636 53.678559 
L 162.210909 57.874003 
L 165.818182 62.004611 
L 169.425455 55.382671 
L 173.032727 53.568 
L 176.64 53.568 
L 180.247273 57.217905 
L 183.854545 53.568 
L 187.461818 53.998866 
L 191.069091 53.568 
L 194.676364 56.046026 
L 198.283636 53.568 
L 201.890909 54.951079 
L 205.498182 53.568 
L 209.105455 54.374574 
L 212.712727 53.568 
L 216.32 53.969836 
L 219.927273 53.568 
L 223.534545 53.568 
L 227.141818 54.451748 
L 230.749091 53.568 
L 234.356364 53.568 
L 237.963636 54.556743 
L 241.570909 58.828393 
L 245.178182 53.568 
L 248.785455 54.186115 
L 252.392727 56.82236 
L 256 53.568 
L 259.607273 53.568 
L 263.214545 55.083169 
L 266.821818 53.568 
L 270.429091 53.568 
L 274.036364 53.568 
L 277.643636 53.568 
L 281.250909 53.568 
L 284.858182 53.91758 
L 288.465455 53.568 
L 292.072727 56.943564 
L 295.68 57.650223 
L 299.287273 54.108458 
L 302.894545 53.568 
L 306.501818 53.568 
L 310.109091 54.028623 
L 313.716364 56.413509 
L 317.323636 53.568 
L 320.930909 53.568 
L 324.538182 53.568 
L 328.145455 53.568 
L 331.752727 53.568 
L 335.36 53.568 
L 338.967273 53.568 
L 342.574545 53.568 
L 346.181818 57.700544 
L 349.789091 58.189472 
L 353.396364 53.568 
L 357.003636 55.636933 
L 360.610909 56.75317 
L 364.218182 53.717751 
L 367.825455 56.7268 
L 371.432727 55.125748 
L 375.04 56.944531 
L 378.647273 57.997626 
L 382.254545 53.568 
L 385.861818 53.568 
L 389.469091 53.568 
L 393.076364 58.676706 
L 396.683636 53.601385 
L 400.290909 53.568 
L 403.898182 55.946837 
L 407.505455 53.568 
L 411.112727 53.568 
L 414.72 54.728267 
" style="fill:none;stroke:#000080;stroke-linecap:square;"/>
    <defs>
     <path d="M 0 1.5 
C 0.397805 1.5 0.77937 1.341951 1.06066 1.06066 
C 1.341951 0.77937 1.5 0.397805 1.5 0 
C 1.5 -0.397805 1.341951 -0.77937 1.06066 -1.06066 
C 0.77937 -1.341951 0.397805 -1.5 0 -1.5 
C -0.397805 -1.5 -0.77937 -1.341951 -1.06066 -1.06066 
C -1.341951 -0.77937 -1.5 -0.397805 -1.5 0 
C -1.5 0.397805 -1.341951 0.77937 -1.06066 1.06066 
C -0.77937 1.341951 -0.397805 1.5 0 1.5 
z
" id="m4a9120f773" style="stroke:#000080;"/>
    </defs>
    <g clip-path="url(#pb8c068054d)">
     <use style="fill:#000080;stroke:#000080;" x="57.6" xlink:href="#m4a9120f773" y="295.488"/>
     <use style="fill:#000080;stroke:#000080;" x="61.207273" xlink:href="#m4a9120f773" y="295.448324"/>
     <use style="fill:#000080;stroke:#000080;" x="64.814545" xlink:href="#m4a9120f773" y="295.195272"/>
     <use style="fill:#000080;stroke:#000080;" x="68.421818" xlink:href="#m4a9120f773" y="292.324845"/>
     <use style="fill:#000080;stroke:#000080;" x="72.029091" xlink:href="#m4a9120f773" y="269.438363"/>
     <use style="fill:#000080;stroke:#000080;" x="75.636364" xlink:href="#m4a9120f773" y="118.021116"/>
     <use style="fill:#000080;stroke:#000080;" x="79.243636" xlink:href="#m4a9120f773" y="63.060367"/>
     <use style="fill:#000080;stroke:#000080;" x="82.850909" xlink:href="#m4a9120f773" y="53.568"/>
     <use style="fill:#000080;stroke:#000080;" x="86.458182" xlink:href="#m4a9120f773" y="57.503618"/>
     <use style="fill:#000080;stroke:#000080;" x="90.065455" xlink:href="#m4a9120f773" y="56.217308"/>
     <use style="fill:#000080;stroke:#000080;" x="93.672727" xlink:href="#m4a9120f773" y="53.568"/>
     <use style="fill:#000080;stroke:#000080;" x="97.28" xlink:href="#m4a9120f773" y="54.812698"/>
     <use style="fill:#000080;stroke:#000080;" x="100.887273" xlink:href="#m4a9120f773" y="58.375511"/>
     <use style="fill:#000080;stroke:#000080;" x="104.494545" xlink:href="#m4a9120f773" y="53.568"/>
     <use style="fill:#000080;stroke:#000080;" x="108.101818" xlink:href="#m4a9120f773" y="56.472054"/>
     <use style="fill:#000080;stroke:#000080;" x="111.709091" xlink:href="#m4a9120f773" y="54.679398"/>
     <use style="fill:#000080;stroke:#000080;" x="115.316364" xlink:href="#m4a9120f773" y="53.568"/>
     <use style="fill:#000080;stroke:#000080;" x="118.923636" xlink:href="#m4a9120f773" y="54.184906"/>
     <use style="fill:#000080;stroke:#000080;" x="122.530909" xlink:href="#m4a9120f773" y="56.323755"/>
     <use style="fill:#000080;stroke:#000080;" x="126.138182" xlink:href="#m4a9120f773" y="55.922887"/>
     <use style="fill:#000080;stroke:#000080;" x="129.745455" xlink:href="#m4a9120f773" y="53.568"/>
     <use style="fill:#000080;stroke:#000080;" x="133.352727" xlink:href="#m4a9120f773" y="53.568"/>
     <use style="fill:#000080;stroke:#000080;" x="136.96" xlink:href="#m4a9120f773" y="53.568"/>
     <use style="fill:#000080;stroke:#000080;" x="140.567273" xlink:href="#m4a9120f773" y="53.568"/>
     <use style="fill:#000080;stroke:#000080;" x="144.174545" xlink:href="#m4a9120f773" y="55.882486"/>
     <use style="fill:#000080;stroke:#000080;" x="147.781818" xlink:href="#m4a9120f773" y="53.868228"/>
     <use style="fill:#000080;stroke:#000080;" x="151.389091" xlink:href="#m4a9120f773" y="53.568"/>
     <use style="fill:#000080;stroke:#000080;" x="154.996364" xlink:href="#m4a9120f773" y="60.311386"/>
     <use style="fill:#000080;stroke:#000080;" x="158.603636" xlink:href="#m4a9120f773" y="53.678559"/>
     <use style="fill:#000080;stroke:#000080;" x="162.210909" xlink:href="#m4a9120f773" y="57.874003"/>
     <use style="fill:#000080;stroke:#000080;" x="165.818182" xlink:href="#m4a9120f773" y="62.004611"/>
     <use style="fill:#000080;stroke:#000080;" x="169.425455" xlink:href="#m4a9120f773" y="55.382671"/>
     <use style="fill:#000080;stroke:#000080;" x="173.032727" xlink:href="#m4a9120f773" y="53.568"/>
     <use style="fill:#000080;stroke:#000080;" x="176.64" xlink:href="#m4a9120f773" y="53.568"/>
     <use style="fill:#000080;stroke:#000080;" x="180.247273" xlink:href="#m4a9120f773" y="57.217905"/>
     <use style="fill:#000080;stroke:#000080;" x="183.854545" xlink:href="#m4a9120f773" y="53.568"/>
     <use style="fill:#000080;stroke:#000080;" x="187.461818" xlink:href="#m4a9120f773" y="53.998866"/>
     <use style="fill:#000080;stroke:#000080;" x="191.069091" xlink:href="#m4a9120f773" y="53.568"/>
     <use style="fill:#000080;stroke:#000080;" x="194.676364" xlink:href="#m4a9120f773" y="56.046026"/>
     <use style="fill:#000080;stroke:#000080;" x="198.283636" xlink:href="#m4a9120f773" y="53.568"/>
     <use style="fill:#000080;stroke:#000080;" x="201.890909" xlink:href="#m4a9120f773" y="54.951079"/>
     <use style="fill:#000080;stroke:#000080;" x="205.498182" xlink:href="#m4a9120f773" y="53.568"/>
     <use style="fill:#000080;stroke:#000080;" x="209.105455" xlink:href="#m4a9120f773" y="54.374574"/>
     <use style="fill:#000080;stroke:#000080;" x="212.712727" xlink:href="#m4a9120f773" y="53.568"/>
     <use style="fill:#000080;stroke:#000080;" x="216.32" xlink:href="#m4a9120f773" y="53.969836"/>
     <use style="fill:#000080;stroke:#000080;" x="219.927273" xlink:href="#m4a9120f773" y="53.568"/>
     <use style="fill:#000080;stroke:#000080;" x="223.534545" xlink:href="#m4a9120f773" y="53.568"/>
     <use style="fill:#000080;stroke:#000080;" x="227.141818" xlink:href="#m4a9120f773" y="54.451748"/>
     <use style="fill:#000080;stroke:#000080;" x="230.749091" xlink:href="#m4a9120f773" y="53.568"/>
     <use style="fill:#000080;stroke:#000080;" x="234.356364" xlink:href="#m4a9120f773" y="53.568"/>
     <use style="fill:#000080;stroke:#000080;" x="237.963636" xlink:href="#m4a9120f773" y="54.556743"/>
     <use style="fill:#000080;stroke:#000080;" x="241.570909" xlink:href="#m4a9120f773" y="58.828393"/>
     <use style="fill:#000080;stroke:#000080;" x="245.178182" xlink:href="#m4a9120f773" y="53.568"/>
     <use style="fill:#000080;stroke:#000080;" x="248.785455" xlink:href="#m4a9120f773" y="54.186115"/>
     <use style="fill:#000080;stroke:#000080;" x="252.392727" xlink:href="#m4a9120f773" y="56.82236"/>
     <use style="fill:#000080;stroke:#000080;" x="256" xlink:href="#m4a9120f773" y="53.568"/>
     <use style="fill:#000080;stroke:#000080;" x="259.607273" xlink:href="#m4a9120f773" y="53.568"/>
     <use style="fill:#000080;stroke:#000080;" x="263.214545" xlink:href="#m4a9120f773" y="55.083169"/>
     <use style="fill:#000080;stroke:#000080;" x="266.821818" xlink:href="#m4a9120f773" y="53.568"/>
     <use style="fill:#000080;stroke:#000080;" x="270.429091" xlink:href="#m4a9120f773" y="53.568"/>
     <use style="fill:#000080;stroke:#000080;" x="274.036364" xlink:href="#m4a9120f773" y="53.568"/>
     <use style="fill:#000080;stroke:#000080;" x="277.643636" xlink:href="#m4a9120f773" y="53.568"/>
     <use style="fill:#000080;stroke:#000080;" x="281.250909" xlink:href="#m4a9120f773" y="53.568"/>
     <use style="fill:#000080;stroke:#000080;" x="284.858182" xlink:href="#m4a9120f773" y="53.91758"/>
     <use style="fill:#000080;stroke:#000080;" x="288.465455" xlink:href="#m4a9120f773" y="53.568"/>
     <use style="fill:#000080;stroke:#000080;" x="292.072727" xlink:href="#m4a9120f773" y="56.943564"/>
     <use style="fill:#000080;stroke:#000080;" x="295.68" xlink:href="#m4a9120f773" y="57.650223"/>
     <use style="fill:#000080;stroke:#000080;" x="299.287273" xlink:href="#m4a9120f773" y="54.108458"/>
     <use style="fill:#000080;stroke:#000080;" x="302.894545" xlink:href="#m4a9120f773" y="53.568"/>
     <use style="fill:#000080;stroke:#000080;" x="306.501818" xlink:href="#m4a9120f773" y="53.568"/>
     <use style="fill:#000080;stroke:#000080;" x="310.109091" xlink:href="#m4a9120f773" y="54.028623"/>
     <use style="fill:#000080;stroke:#000080;" x="313.716364" xlink:href="#m4a9120f773" y="56.413509"/>
     <use style="fill:#000080;stroke:#000080;" x="317.323636" xlink:href="#m4a9120f773" y="53.568"/>
     <use style="fill:#000080;stroke:#000080;" x="320.930909" xlink:href="#m4a9120f773" y="53.568"/>
     <use style="fill:#000080;stroke:#000080;" x="324.538182" xlink:href="#m4a9120f773" y="53.568"/>
     <use style="fill:#000080;stroke:#000080;" x="328.145455" xlink:href="#m4a9120f773" y="53.568"/>
     <use style="fill:#000080;stroke:#000080;" x="331.752727" xlink:href="#m4a9120f773" y="53.568"/>
     <use style="fill:#000080;stroke:#000080;" x="335.36" xlink:href="#m4a9120f773" y="53.568"/>
     <use style="fill:#000080;stroke:#000080;" x="338.967273" xlink:href="#m4a9120f773" y="53.568"/>
     <use style="fill:#000080;stroke:#000080;" x="342.574545" xlink:href="#m4a9120f773" y="53.568"/>
     <use style="fill:#000080;stroke:#000080;" x="346.181818" xlink:href="#m4a9120f773" y="57.700544"/>
     <use style="fill:#000080;stroke:#000080;" x="349.789091" xlink:href="#m4a9120f773" y="58.189472"/>
     <use style="fill:#000080;stroke:#000080;" x="353.396364" xlink:href="#m4a9120f773" y="53.568"/>
     <use style="fill:#000080;stroke:#000080;" x="357.003636" xlink:href="#m4a9120f773" y="55.636933"/>
     <use style="fill:#000080;stroke:#000080;" x="360.610909" xlink:href="#m4a9120f773" y="56.75317"/>
     <use style="fill:#000080;stroke:#000080;" x="364.218182" xlink:href="#m4a9120f773" y="53.717751"/>
     <use style="fill:#000080;stroke:#000080;" x="367.825455" xlink:href="#m4a9120f773" y="56.7268"/>
     <use style="fill:#000080;stroke:#000080;" x="371.432727" xlink:href="#m4a9120f773" y="55.125748"/>
     <use style="fill:#000080;stroke:#000080;" x="375.04" xlink:href="#m4a9120f773" y="56.944531"/>
     <use style="fill:#000080;stroke:#000080;" x="378.647273" xlink:href="#m4a9120f773" y="57.997626"/>
     <use style="fill:#000080;stroke:#000080;" x="382.254545" xlink:href="#m4a9120f773" y="53.568"/>
     <use style="fill:#000080;stroke:#000080;" x="385.861818" xlink:href="#m4a9120f773" y="53.568"/>
     <use style="fill:#000080;stroke:#000080;" x="389.469091" xlink:href="#m4a9120f773" y="53.568"/>
     <use style="fill:#000080;stroke:#000080;" x="393.076364" xlink:href="#m4a9120f773" y="58.676706"/>
     <use style="fill:#000080;stroke:#000080;" x="396.683636" xlink:href="#m4a9120f773" y="53.601385"/>
     <use style="fill:#000080;stroke:#000080;" x="400.290909" xlink:href="#m4a9120f773" y="53.568"/>
     <use style="fill:#000080;stroke:#000080;" x="403.898182" xlink:href="#m4a9120f773" y="55.946837"/>
     <use style="fill:#000080;stroke:#000080;" x="407.505455" xlink:href="#m4a9120f773" y="53.568"/>
     <use style="fill:#000080;stroke:#000080;" x="411.112727" xlink:href="#m4a9120f773" y="53.568"/>
     <use style="fill:#000080;stroke:#000080;" x="414.72" xlink:href="#m4a9120f773" y="54.728267"/>
    </g>
   </g>
   <g id="patch_3">
    <path d="M 57.6 307.584 
L 57.6 41.472 
" style="fill:none;stroke:#000000;stroke-linecap:square;stroke-linejoin:miter;stroke-width:0.8;"/>
   </g>
   <g id="patch_4">
    <path d="M 414.72 307.584 
L 414.72 41.472 
" style="fill:none;stroke:#000000;stroke-linecap:square;stroke-linejoin:miter;stroke-width:0.8;"/>
   </g>
   <g id="patch_5">
    <path d="M 57.6 307.584 
L 414.72 307.584 
" style="fill:none;stroke:#000000;stroke-linecap:square;stroke-linejoin:miter;stroke-width:0.8;"/>
   </g>
   <g id="patch_6">
    <path d="M 57.6 41.472 
L 414.72 41.472 
" style="fill:none;stroke:#000000;stroke-linecap:square;stroke-linejoin:miter;stroke-width:0.8;"/>
   </g>
   <g id="text_14">
    <!-- Test -->
    <defs>
     <path d="M -0.296875 72.90625 
L 61.375 72.90625 
L 61.375 64.59375 
L 35.5 64.59375 
L 35.5 0 
L 25.59375 0 
L 25.59375 64.59375 
L -0.296875 64.59375 
z
" id="DejaVuSans-54"/>
    </defs>
    <g transform="translate(223.341563 35.472)scale(0.12 -0.12)">
     <use xlink:href="#DejaVuSans-54"/>
     <use x="60.818359" xlink:href="#DejaVuSans-65"/>
     <use x="122.341797" xlink:href="#DejaVuSans-73"/>
     <use x="174.441406" xlink:href="#DejaVuSans-74"/>
    </g>
   </g>
   <g id="legend_1">
    <g id="patch_7">
     <path d="M 277.08875 302.584 
L 407.72 302.584 
Q 409.72 302.584 409.72 300.584 
L 409.72 286.905875 
Q 409.72 284.905875 407.72 284.905875 
L 277.08875 284.905875 
Q 275.08875 284.905875 275.08875 286.905875 
L 275.08875 300.584 
Q 275.08875 302.584 277.08875 302.584 
z
" style="fill:#ffffff;opacity:0.8;stroke:#cccccc;stroke-linejoin:miter;"/>
    </g>
    <g id="line2d_24">
     <path d="M 279.08875 293.004312 
L 299.08875 293.004312 
" style="fill:none;stroke:#000080;stroke-linecap:square;"/>
    </g>
    <g id="line2d_25">
     <g>
      <use style="fill:#000080;stroke:#000080;" x="289.08875" xlink:href="#m4a9120f773" y="293.004312"/>
     </g>
    </g>
    <g id="text_15">
     <!-- Collision probability -->
     <g transform="translate(307.08875 296.504312)scale(0.1 -0.1)">
      <use xlink:href="#DejaVuSans-43"/>
      <use x="69.824219" xlink:href="#DejaVuSans-6f"/>
      <use x="131.005859" xlink:href="#DejaVuSans-6c"/>
      <use x="158.789062" xlink:href="#DejaVuSans-6c"/>
      <use x="186.572266" xlink:href="#DejaVuSans-69"/>
      <use x="214.355469" xlink:href="#DejaVuSans-73"/>
      <use x="266.455078" xlink:href="#DejaVuSans-69"/>
      <use x="294.238281" xlink:href="#DejaVuSans-6f"/>
      <use x="355.419922" xlink:href="#DejaVuSans-6e"/>
      <use x="418.798828" xlink:href="#DejaVuSans-20"/>
      <use x="450.585938" xlink:href="#DejaVuSans-70"/>
      <use x="514.0625" xlink:href="#DejaVuSans-72"/>
      <use x="555.144531" xlink:href="#DejaVuSans-6f"/>
      <use x="616.326172" xlink:href="#DejaVuSans-62"/>
      <use x="679.802734" xlink:href="#DejaVuSans-61"/>
      <use x="741.082031" xlink:href="#DejaVuSans-62"/>
      <use x="804.558594" xlink:href="#DejaVuSans-69"/>
      <use x="832.341797" xlink:href="#DejaVuSans-6c"/>
      <use x="860.125" xlink:href="#DejaVuSans-69"/>
      <use x="887.908203" xlink:href="#DejaVuSans-74"/>
      <use x="927.117188" xlink:href="#DejaVuSans-79"/>
     </g>
    </g>
   </g>
  </g>
 </g>
 <defs>
  <clipPath id="pb8c068054d">
   <rect height="266.112" width="357.12" x="57.6" y="41.472"/>
  </clipPath>
 </defs>
</svg>
