<?xml version="1.0" encoding="utf-8" standalone="no"?>
<!DOCTYPE svg PUBLIC "-//W3C//DTD SVG 1.1//EN"
  "http://www.w3.org/Graphics/SVG/1.1/DTD/svg11.dtd">
<!-- Created with matplotlib (http://matplotlib.org/) -->
<svg height="345pt" version="1.1" viewBox="0 0 460 345" width="460pt" xmlns="http://www.w3.org/2000/svg" xmlns:xlink="http://www.w3.org/1999/xlink">
 <defs>
  <style type="text/css">
*{stroke-linecap:butt;stroke-linejoin:round;}
  </style>
 </defs>
 <g id="figure_1">
  <g id="patch_1">
   <path d="M 0 345.6 
L 460.8 345.6 
L 460.8 0 
L 0 0 
z
" style="fill:#ffffff;"/>
  </g>
  <g id="axes_1">
   <g id="patch_2">
    <path d="M 57.6 307.584 
L 414.72 307.584 
L 414.72 41.472 
L 57.6 41.472 
z
" style="fill:#ffffff;"/>
   </g>
   <g id="matplotlib.axis_1">
    <g id="xtick_1">
     <g id="line2d_1">
      <path clip-path="url(#pea9afe79f2)" d="M 57.239273 307.584 
L 57.239273 41.472 
" style="fill:none;stroke:#b0b0b0;stroke-linecap:square;stroke-width:0.8;"/>
     </g>
     <g id="line2d_2">
      <defs>
       <path d="M 0 0 
L 0 3.5 
" id="m448307a888" style="stroke:#000000;stroke-width:0.8;"/>
      </defs>
      <g>
       <use style="stroke:#000000;stroke-width:0.8;" x="57.239273" xlink:href="#m448307a888" y="307.584"/>
      </g>
     </g>
     <g id="text_1">
      <!-- 0 -->
      <defs>
       <path d="M 31.78125 66.40625 
Q 24.171875 66.40625 20.328125 58.90625 
Q 16.5 51.421875 16.5 36.375 
Q 16.5 21.390625 20.328125 13.890625 
Q 24.171875 6.390625 31.78125 6.390625 
Q 39.453125 6.390625 43.28125 13.890625 
Q 47.125 21.390625 47.125 36.375 
Q 47.125 51.421875 43.28125 58.90625 
Q 39.453125 66.40625 31.78125 66.40625 
M 31.78125 74.21875 
Q 44.046875 74.21875 50.515625 64.515625 
Q 56.984375 54.828125 56.984375 36.375 
Q 56.984375 17.96875 50.515625 8.265625 
Q 44.046875 -1.421875 31.78125 -1.421875 
Q 19.53125 -1.421875 13.0625 8.265625 
Q 6.59375 17.96875 6.59375 36.375 
Q 6.59375 54.828125 13.0625 64.515625 
Q 19.53125 74.21875 31.78125 74.21875 
" id="DejaVuSans-30"/>
      </defs>
      <g transform="translate(54.058023 322.182437)scale(0.1 -0.1)">
       <use xlink:href="#DejaVuSans-30"/>
      </g>
     </g>
    </g>
    <g id="xtick_2">
     <g id="line2d_3">
      <path clip-path="url(#pea9afe79f2)" d="M 129.384727 307.584 
L 129.384727 41.472 
" style="fill:none;stroke:#b0b0b0;stroke-linecap:square;stroke-width:0.8;"/>
     </g>
     <g id="line2d_4">
      <g>
       <use style="stroke:#000000;stroke-width:0.8;" x="129.384727" xlink:href="#m448307a888" y="307.584"/>
      </g>
     </g>
     <g id="text_2">
      <!-- 200 -->
      <defs>
       <path d="M 19.1875 8.296875 
L 53.609375 8.296875 
L 53.609375 0 
L 7.328125 0 
L 7.328125 8.296875 
Q 12.9375 14.109375 22.625 23.890625 
Q 32.328125 33.6875 34.8125 36.53125 
Q 39.546875 41.84375 41.421875 45.53125 
Q 43.3125 49.21875 43.3125 52.78125 
Q 43.3125 58.59375 39.234375 62.25 
Q 35.15625 65.921875 28.609375 65.921875 
Q 23.96875 65.921875 18.8125 64.3125 
Q 13.671875 62.703125 7.8125 59.421875 
L 7.8125 69.390625 
Q 13.765625 71.78125 18.9375 73 
Q 24.125 74.21875 28.421875 74.21875 
Q 39.75 74.21875 46.484375 68.546875 
Q 53.21875 62.890625 53.21875 53.421875 
Q 53.21875 48.921875 51.53125 44.890625 
Q 49.859375 40.875 45.40625 35.40625 
Q 44.1875 33.984375 37.640625 27.21875 
Q 31.109375 20.453125 19.1875 8.296875 
" id="DejaVuSans-32"/>
      </defs>
      <g transform="translate(119.840977 322.182437)scale(0.1 -0.1)">
       <use xlink:href="#DejaVuSans-32"/>
       <use x="63.623047" xlink:href="#DejaVuSans-30"/>
       <use x="127.246094" xlink:href="#DejaVuSans-30"/>
      </g>
     </g>
    </g>
    <g id="xtick_3">
     <g id="line2d_5">
      <path clip-path="url(#pea9afe79f2)" d="M 201.530182 307.584 
L 201.530182 41.472 
" style="fill:none;stroke:#b0b0b0;stroke-linecap:square;stroke-width:0.8;"/>
     </g>
     <g id="line2d_6">
      <g>
       <use style="stroke:#000000;stroke-width:0.8;" x="201.530182" xlink:href="#m448307a888" y="307.584"/>
      </g>
     </g>
     <g id="text_3">
      <!-- 400 -->
      <defs>
       <path d="M 37.796875 64.3125 
L 12.890625 25.390625 
L 37.796875 25.390625 
z
M 35.203125 72.90625 
L 47.609375 72.90625 
L 47.609375 25.390625 
L 58.015625 25.390625 
L 58.015625 17.1875 
L 47.609375 17.1875 
L 47.609375 0 
L 37.796875 0 
L 37.796875 17.1875 
L 4.890625 17.1875 
L 4.890625 26.703125 
z
" id="DejaVuSans-34"/>
      </defs>
      <g transform="translate(191.986432 322.182437)scale(0.1 -0.1)">
       <use xlink:href="#DejaVuSans-34"/>
       <use x="63.623047" xlink:href="#DejaVuSans-30"/>
       <use x="127.246094" xlink:href="#DejaVuSans-30"/>
      </g>
     </g>
    </g>
    <g id="xtick_4">
     <g id="line2d_7">
      <path clip-path="url(#pea9afe79f2)" d="M 273.675636 307.584 
L 273.675636 41.472 
" style="fill:none;stroke:#b0b0b0;stroke-linecap:square;stroke-width:0.8;"/>
     </g>
     <g id="line2d_8">
      <g>
       <use style="stroke:#000000;stroke-width:0.8;" x="273.675636" xlink:href="#m448307a888" y="307.584"/>
      </g>
     </g>
     <g id="text_4">
      <!-- 600 -->
      <defs>
       <path d="M 33.015625 40.375 
Q 26.375 40.375 22.484375 35.828125 
Q 18.609375 31.296875 18.609375 23.390625 
Q 18.609375 15.53125 22.484375 10.953125 
Q 26.375 6.390625 33.015625 6.390625 
Q 39.65625 6.390625 43.53125 10.953125 
Q 47.40625 15.53125 47.40625 23.390625 
Q 47.40625 31.296875 43.53125 35.828125 
Q 39.65625 40.375 33.015625 40.375 
M 52.59375 71.296875 
L 52.59375 62.3125 
Q 48.875 64.0625 45.09375 64.984375 
Q 41.3125 65.921875 37.59375 65.921875 
Q 27.828125 65.921875 22.671875 59.328125 
Q 17.53125 52.734375 16.796875 39.40625 
Q 19.671875 43.65625 24.015625 45.921875 
Q 28.375 48.1875 33.59375 48.1875 
Q 44.578125 48.1875 50.953125 41.515625 
Q 57.328125 34.859375 57.328125 23.390625 
Q 57.328125 12.15625 50.6875 5.359375 
Q 44.046875 -1.421875 33.015625 -1.421875 
Q 20.359375 -1.421875 13.671875 8.265625 
Q 6.984375 17.96875 6.984375 36.375 
Q 6.984375 53.65625 15.1875 63.9375 
Q 23.390625 74.21875 37.203125 74.21875 
Q 40.921875 74.21875 44.703125 73.484375 
Q 48.484375 72.75 52.59375 71.296875 
" id="DejaVuSans-36"/>
      </defs>
      <g transform="translate(264.131886 322.182437)scale(0.1 -0.1)">
       <use xlink:href="#DejaVuSans-36"/>
       <use x="63.623047" xlink:href="#DejaVuSans-30"/>
       <use x="127.246094" xlink:href="#DejaVuSans-30"/>
      </g>
     </g>
    </g>
    <g id="xtick_5">
     <g id="line2d_9">
      <path clip-path="url(#pea9afe79f2)" d="M 345.821091 307.584 
L 345.821091 41.472 
" style="fill:none;stroke:#b0b0b0;stroke-linecap:square;stroke-width:0.8;"/>
     </g>
     <g id="line2d_10">
      <g>
       <use style="stroke:#000000;stroke-width:0.8;" x="345.821091" xlink:href="#m448307a888" y="307.584"/>
      </g>
     </g>
     <g id="text_5">
      <!-- 800 -->
      <defs>
       <path d="M 31.78125 34.625 
Q 24.75 34.625 20.71875 30.859375 
Q 16.703125 27.09375 16.703125 20.515625 
Q 16.703125 13.921875 20.71875 10.15625 
Q 24.75 6.390625 31.78125 6.390625 
Q 38.8125 6.390625 42.859375 10.171875 
Q 46.921875 13.96875 46.921875 20.515625 
Q 46.921875 27.09375 42.890625 30.859375 
Q 38.875 34.625 31.78125 34.625 
M 21.921875 38.8125 
Q 15.578125 40.375 12.03125 44.71875 
Q 8.5 49.078125 8.5 55.328125 
Q 8.5 64.0625 14.71875 69.140625 
Q 20.953125 74.21875 31.78125 74.21875 
Q 42.671875 74.21875 48.875 69.140625 
Q 55.078125 64.0625 55.078125 55.328125 
Q 55.078125 49.078125 51.53125 44.71875 
Q 48 40.375 41.703125 38.8125 
Q 48.828125 37.15625 52.796875 32.3125 
Q 56.78125 27.484375 56.78125 20.515625 
Q 56.78125 9.90625 50.3125 4.234375 
Q 43.84375 -1.421875 31.78125 -1.421875 
Q 19.734375 -1.421875 13.25 4.234375 
Q 6.78125 9.90625 6.78125 20.515625 
Q 6.78125 27.484375 10.78125 32.3125 
Q 14.796875 37.15625 21.921875 38.8125 
M 18.3125 54.390625 
Q 18.3125 48.734375 21.84375 45.5625 
Q 25.390625 42.390625 31.78125 42.390625 
Q 38.140625 42.390625 41.71875 45.5625 
Q 45.3125 48.734375 45.3125 54.390625 
Q 45.3125 60.0625 41.71875 63.234375 
Q 38.140625 66.40625 31.78125 66.40625 
Q 25.390625 66.40625 21.84375 63.234375 
Q 18.3125 60.0625 18.3125 54.390625 
" id="DejaVuSans-38"/>
      </defs>
      <g transform="translate(336.277341 322.182437)scale(0.1 -0.1)">
       <use xlink:href="#DejaVuSans-38"/>
       <use x="63.623047" xlink:href="#DejaVuSans-30"/>
       <use x="127.246094" xlink:href="#DejaVuSans-30"/>
      </g>
     </g>
    </g>
    <g id="text_6">
     <!-- Number of clients -->
     <defs>
      <path d="M 9.8125 72.90625 
L 23.09375 72.90625 
L 55.421875 11.921875 
L 55.421875 72.90625 
L 64.984375 72.90625 
L 64.984375 0 
L 51.703125 0 
L 19.390625 60.984375 
L 19.390625 0 
L 9.8125 0 
z
" id="DejaVuSans-4e"/>
      <path d="M 8.5 21.578125 
L 8.5 54.6875 
L 17.484375 54.6875 
L 17.484375 21.921875 
Q 17.484375 14.15625 20.5 10.265625 
Q 23.53125 6.390625 29.59375 6.390625 
Q 36.859375 6.390625 41.078125 11.03125 
Q 45.3125 15.671875 45.3125 23.6875 
L 45.3125 54.6875 
L 54.296875 54.6875 
L 54.296875 0 
L 45.3125 0 
L 45.3125 8.40625 
Q 42.046875 3.421875 37.71875 1 
Q 33.40625 -1.421875 27.6875 -1.421875 
Q 18.265625 -1.421875 13.375 4.4375 
Q 8.5 10.296875 8.5 21.578125 
M 31.109375 56 
z
" id="DejaVuSans-75"/>
      <path d="M 52 44.1875 
Q 55.375 50.25 60.0625 53.125 
Q 64.75 56 71.09375 56 
Q 79.640625 56 84.28125 50.015625 
Q 88.921875 44.046875 88.921875 33.015625 
L 88.921875 0 
L 79.890625 0 
L 79.890625 32.71875 
Q 79.890625 40.578125 77.09375 44.375 
Q 74.3125 48.1875 68.609375 48.1875 
Q 61.625 48.1875 57.5625 43.546875 
Q 53.515625 38.921875 53.515625 30.90625 
L 53.515625 0 
L 44.484375 0 
L 44.484375 32.71875 
Q 44.484375 40.625 41.703125 44.40625 
Q 38.921875 48.1875 33.109375 48.1875 
Q 26.21875 48.1875 22.15625 43.53125 
Q 18.109375 38.875 18.109375 30.90625 
L 18.109375 0 
L 9.078125 0 
L 9.078125 54.6875 
L 18.109375 54.6875 
L 18.109375 46.1875 
Q 21.1875 51.21875 25.484375 53.609375 
Q 29.78125 56 35.6875 56 
Q 41.65625 56 45.828125 52.96875 
Q 50 49.953125 52 44.1875 
" id="DejaVuSans-6d"/>
      <path d="M 48.6875 27.296875 
Q 48.6875 37.203125 44.609375 42.84375 
Q 40.53125 48.484375 33.40625 48.484375 
Q 26.265625 48.484375 22.1875 42.84375 
Q 18.109375 37.203125 18.109375 27.296875 
Q 18.109375 17.390625 22.1875 11.75 
Q 26.265625 6.109375 33.40625 6.109375 
Q 40.53125 6.109375 44.609375 11.75 
Q 48.6875 17.390625 48.6875 27.296875 
M 18.109375 46.390625 
Q 20.953125 51.265625 25.265625 53.625 
Q 29.59375 56 35.59375 56 
Q 45.5625 56 51.78125 48.09375 
Q 58.015625 40.1875 58.015625 27.296875 
Q 58.015625 14.40625 51.78125 6.484375 
Q 45.5625 -1.421875 35.59375 -1.421875 
Q 29.59375 -1.421875 25.265625 0.953125 
Q 20.953125 3.328125 18.109375 8.203125 
L 18.109375 0 
L 9.078125 0 
L 9.078125 75.984375 
L 18.109375 75.984375 
z
" id="DejaVuSans-62"/>
      <path d="M 56.203125 29.59375 
L 56.203125 25.203125 
L 14.890625 25.203125 
Q 15.484375 15.921875 20.484375 11.0625 
Q 25.484375 6.203125 34.421875 6.203125 
Q 39.59375 6.203125 44.453125 7.46875 
Q 49.3125 8.734375 54.109375 11.28125 
L 54.109375 2.78125 
Q 49.265625 0.734375 44.1875 -0.34375 
Q 39.109375 -1.421875 33.890625 -1.421875 
Q 20.796875 -1.421875 13.15625 6.1875 
Q 5.515625 13.8125 5.515625 26.8125 
Q 5.515625 40.234375 12.765625 48.109375 
Q 20.015625 56 32.328125 56 
Q 43.359375 56 49.78125 48.890625 
Q 56.203125 41.796875 56.203125 29.59375 
M 47.21875 32.234375 
Q 47.125 39.59375 43.09375 43.984375 
Q 39.0625 48.390625 32.421875 48.390625 
Q 24.90625 48.390625 20.390625 44.140625 
Q 15.875 39.890625 15.1875 32.171875 
z
" id="DejaVuSans-65"/>
      <path d="M 41.109375 46.296875 
Q 39.59375 47.171875 37.8125 47.578125 
Q 36.03125 48 33.890625 48 
Q 26.265625 48 22.1875 43.046875 
Q 18.109375 38.09375 18.109375 28.8125 
L 18.109375 0 
L 9.078125 0 
L 9.078125 54.6875 
L 18.109375 54.6875 
L 18.109375 46.1875 
Q 20.953125 51.171875 25.484375 53.578125 
Q 30.03125 56 36.53125 56 
Q 37.453125 56 38.578125 55.875 
Q 39.703125 55.765625 41.0625 55.515625 
z
" id="DejaVuSans-72"/>
      <path id="DejaVuSans-20"/>
      <path d="M 30.609375 48.390625 
Q 23.390625 48.390625 19.1875 42.75 
Q 14.984375 37.109375 14.984375 27.296875 
Q 14.984375 17.484375 19.15625 11.84375 
Q 23.34375 6.203125 30.609375 6.203125 
Q 37.796875 6.203125 41.984375 11.859375 
Q 46.1875 17.53125 46.1875 27.296875 
Q 46.1875 37.015625 41.984375 42.703125 
Q 37.796875 48.390625 30.609375 48.390625 
M 30.609375 56 
Q 42.328125 56 49.015625 48.375 
Q 55.71875 40.765625 55.71875 27.296875 
Q 55.71875 13.875 49.015625 6.21875 
Q 42.328125 -1.421875 30.609375 -1.421875 
Q 18.84375 -1.421875 12.171875 6.21875 
Q 5.515625 13.875 5.515625 27.296875 
Q 5.515625 40.765625 12.171875 48.375 
Q 18.84375 56 30.609375 56 
" id="DejaVuSans-6f"/>
      <path d="M 37.109375 75.984375 
L 37.109375 68.5 
L 28.515625 68.5 
Q 23.6875 68.5 21.796875 66.546875 
Q 19.921875 64.59375 19.921875 59.515625 
L 19.921875 54.6875 
L 34.71875 54.6875 
L 34.71875 47.703125 
L 19.921875 47.703125 
L 19.921875 0 
L 10.890625 0 
L 10.890625 47.703125 
L 2.296875 47.703125 
L 2.296875 54.6875 
L 10.890625 54.6875 
L 10.890625 58.5 
Q 10.890625 67.625 15.140625 71.796875 
Q 19.390625 75.984375 28.609375 75.984375 
z
" id="DejaVuSans-66"/>
      <path d="M 48.78125 52.59375 
L 48.78125 44.1875 
Q 44.96875 46.296875 41.140625 47.34375 
Q 37.3125 48.390625 33.40625 48.390625 
Q 24.65625 48.390625 19.8125 42.84375 
Q 14.984375 37.3125 14.984375 27.296875 
Q 14.984375 17.28125 19.8125 11.734375 
Q 24.65625 6.203125 33.40625 6.203125 
Q 37.3125 6.203125 41.140625 7.25 
Q 44.96875 8.296875 48.78125 10.40625 
L 48.78125 2.09375 
Q 45.015625 0.34375 40.984375 -0.53125 
Q 36.96875 -1.421875 32.421875 -1.421875 
Q 20.0625 -1.421875 12.78125 6.34375 
Q 5.515625 14.109375 5.515625 27.296875 
Q 5.515625 40.671875 12.859375 48.328125 
Q 20.21875 56 33.015625 56 
Q 37.15625 56 41.109375 55.140625 
Q 45.0625 54.296875 48.78125 52.59375 
" id="DejaVuSans-63"/>
      <path d="M 9.421875 75.984375 
L 18.40625 75.984375 
L 18.40625 0 
L 9.421875 0 
z
" id="DejaVuSans-6c"/>
      <path d="M 9.421875 54.6875 
L 18.40625 54.6875 
L 18.40625 0 
L 9.421875 0 
z
M 9.421875 75.984375 
L 18.40625 75.984375 
L 18.40625 64.59375 
L 9.421875 64.59375 
z
" id="DejaVuSans-69"/>
      <path d="M 54.890625 33.015625 
L 54.890625 0 
L 45.90625 0 
L 45.90625 32.71875 
Q 45.90625 40.484375 42.875 44.328125 
Q 39.84375 48.1875 33.796875 48.1875 
Q 26.515625 48.1875 22.3125 43.546875 
Q 18.109375 38.921875 18.109375 30.90625 
L 18.109375 0 
L 9.078125 0 
L 9.078125 54.6875 
L 18.109375 54.6875 
L 18.109375 46.1875 
Q 21.34375 51.125 25.703125 53.5625 
Q 30.078125 56 35.796875 56 
Q 45.21875 56 50.046875 50.171875 
Q 54.890625 44.34375 54.890625 33.015625 
" id="DejaVuSans-6e"/>
      <path d="M 18.3125 70.21875 
L 18.3125 54.6875 
L 36.8125 54.6875 
L 36.8125 47.703125 
L 18.3125 47.703125 
L 18.3125 18.015625 
Q 18.3125 11.328125 20.140625 9.421875 
Q 21.96875 7.515625 27.59375 7.515625 
L 36.8125 7.515625 
L 36.8125 0 
L 27.59375 0 
Q 17.1875 0 13.234375 3.875 
Q 9.28125 7.765625 9.28125 18.015625 
L 9.28125 47.703125 
L 2.6875 47.703125 
L 2.6875 54.6875 
L 9.28125 54.6875 
L 9.28125 70.21875 
z
" id="DejaVuSans-74"/>
      <path d="M 44.28125 53.078125 
L 44.28125 44.578125 
Q 40.484375 46.53125 36.375 47.5 
Q 32.28125 48.484375 27.875 48.484375 
Q 21.1875 48.484375 17.84375 46.4375 
Q 14.5 44.390625 14.5 40.28125 
Q 14.5 37.15625 16.890625 35.375 
Q 19.28125 33.59375 26.515625 31.984375 
L 29.59375 31.296875 
Q 39.15625 29.25 43.1875 25.515625 
Q 47.21875 21.78125 47.21875 15.09375 
Q 47.21875 7.46875 41.1875 3.015625 
Q 35.15625 -1.421875 24.609375 -1.421875 
Q 20.21875 -1.421875 15.453125 -0.5625 
Q 10.6875 0.296875 5.421875 2 
L 5.421875 11.28125 
Q 10.40625 8.6875 15.234375 7.390625 
Q 20.0625 6.109375 24.8125 6.109375 
Q 31.15625 6.109375 34.5625 8.28125 
Q 37.984375 10.453125 37.984375 14.40625 
Q 37.984375 18.0625 35.515625 20.015625 
Q 33.0625 21.96875 24.703125 23.78125 
L 21.578125 24.515625 
Q 13.234375 26.265625 9.515625 29.90625 
Q 5.8125 33.546875 5.8125 39.890625 
Q 5.8125 47.609375 11.28125 51.796875 
Q 16.75 56 26.8125 56 
Q 31.78125 56 36.171875 55.265625 
Q 40.578125 54.546875 44.28125 53.078125 
" id="DejaVuSans-73"/>
     </defs>
     <g transform="translate(191.738906 335.860562)scale(0.1 -0.1)">
      <use xlink:href="#DejaVuSans-4e"/>
      <use x="74.804688" xlink:href="#DejaVuSans-75"/>
      <use x="138.183594" xlink:href="#DejaVuSans-6d"/>
      <use x="235.595703" xlink:href="#DejaVuSans-62"/>
      <use x="299.072266" xlink:href="#DejaVuSans-65"/>
      <use x="360.595703" xlink:href="#DejaVuSans-72"/>
      <use x="401.708984" xlink:href="#DejaVuSans-20"/>
      <use x="433.496094" xlink:href="#DejaVuSans-6f"/>
      <use x="494.677734" xlink:href="#DejaVuSans-66"/>
      <use x="529.882812" xlink:href="#DejaVuSans-20"/>
      <use x="561.669922" xlink:href="#DejaVuSans-63"/>
      <use x="616.650391" xlink:href="#DejaVuSans-6c"/>
      <use x="644.433594" xlink:href="#DejaVuSans-69"/>
      <use x="672.216797" xlink:href="#DejaVuSans-65"/>
      <use x="733.740234" xlink:href="#DejaVuSans-6e"/>
      <use x="797.119141" xlink:href="#DejaVuSans-74"/>
      <use x="836.328125" xlink:href="#DejaVuSans-73"/>
     </g>
    </g>
   </g>
   <g id="matplotlib.axis_2">
    <g id="ytick_1">
     <g id="line2d_11">
      <path clip-path="url(#pea9afe79f2)" d="M 57.6 295.796666 
L 414.72 295.796666 
" style="fill:none;stroke:#b0b0b0;stroke-linecap:square;stroke-width:0.8;"/>
     </g>
     <g id="line2d_12">
      <defs>
       <path d="M 0 0 
L -3.5 0 
" id="m9313f25fc7" style="stroke:#000000;stroke-width:0.8;"/>
      </defs>
      <g>
       <use style="stroke:#000000;stroke-width:0.8;" x="57.6" xlink:href="#m9313f25fc7" y="295.796666"/>
      </g>
     </g>
     <g id="text_7">
      <!-- 0 -->
      <g transform="translate(44.2375 299.595884)scale(0.1 -0.1)">
       <use xlink:href="#DejaVuSans-30"/>
      </g>
     </g>
    </g>
    <g id="ytick_2">
     <g id="line2d_13">
      <path clip-path="url(#pea9afe79f2)" d="M 57.6 263.463814 
L 414.72 263.463814 
" style="fill:none;stroke:#b0b0b0;stroke-linecap:square;stroke-width:0.8;"/>
     </g>
     <g id="line2d_14">
      <g>
       <use style="stroke:#000000;stroke-width:0.8;" x="57.6" xlink:href="#m9313f25fc7" y="263.463814"/>
      </g>
     </g>
     <g id="text_8">
      <!-- 20 -->
      <g transform="translate(37.875 267.263033)scale(0.1 -0.1)">
       <use xlink:href="#DejaVuSans-32"/>
       <use x="63.623047" xlink:href="#DejaVuSans-30"/>
      </g>
     </g>
    </g>
    <g id="ytick_3">
     <g id="line2d_15">
      <path clip-path="url(#pea9afe79f2)" d="M 57.6 231.130963 
L 414.72 231.130963 
" style="fill:none;stroke:#b0b0b0;stroke-linecap:square;stroke-width:0.8;"/>
     </g>
     <g id="line2d_16">
      <g>
       <use style="stroke:#000000;stroke-width:0.8;" x="57.6" xlink:href="#m9313f25fc7" y="231.130963"/>
      </g>
     </g>
     <g id="text_9">
      <!-- 40 -->
      <g transform="translate(37.875 234.930182)scale(0.1 -0.1)">
       <use xlink:href="#DejaVuSans-34"/>
       <use x="63.623047" xlink:href="#DejaVuSans-30"/>
      </g>
     </g>
    </g>
    <g id="ytick_4">
     <g id="line2d_17">
      <path clip-path="url(#pea9afe79f2)" d="M 57.6 198.798112 
L 414.72 198.798112 
" style="fill:none;stroke:#b0b0b0;stroke-linecap:square;stroke-width:0.8;"/>
     </g>
     <g id="line2d_18">
      <g>
       <use style="stroke:#000000;stroke-width:0.8;" x="57.6" xlink:href="#m9313f25fc7" y="198.798112"/>
      </g>
     </g>
     <g id="text_10">
      <!-- 60 -->
      <g transform="translate(37.875 202.59733)scale(0.1 -0.1)">
       <use xlink:href="#DejaVuSans-36"/>
       <use x="63.623047" xlink:href="#DejaVuSans-30"/>
      </g>
     </g>
    </g>
    <g id="ytick_5">
     <g id="line2d_19">
      <path clip-path="url(#pea9afe79f2)" d="M 57.6 166.46526 
L 414.72 166.46526 
" style="fill:none;stroke:#b0b0b0;stroke-linecap:square;stroke-width:0.8;"/>
     </g>
     <g id="line2d_20">
      <g>
       <use style="stroke:#000000;stroke-width:0.8;" x="57.6" xlink:href="#m9313f25fc7" y="166.46526"/>
      </g>
     </g>
     <g id="text_11">
      <!-- 80 -->
      <g transform="translate(37.875 170.264479)scale(0.1 -0.1)">
       <use xlink:href="#DejaVuSans-38"/>
       <use x="63.623047" xlink:href="#DejaVuSans-30"/>
      </g>
     </g>
    </g>
    <g id="ytick_6">
     <g id="line2d_21">
      <path clip-path="url(#pea9afe79f2)" d="M 57.6 134.132409 
L 414.72 134.132409 
" style="fill:none;stroke:#b0b0b0;stroke-linecap:square;stroke-width:0.8;"/>
     </g>
     <g id="line2d_22">
      <g>
       <use style="stroke:#000000;stroke-width:0.8;" x="57.6" xlink:href="#m9313f25fc7" y="134.132409"/>
      </g>
     </g>
     <g id="text_12">
      <!-- 100 -->
      <defs>
       <path d="M 12.40625 8.296875 
L 28.515625 8.296875 
L 28.515625 63.921875 
L 10.984375 60.40625 
L 10.984375 69.390625 
L 28.421875 72.90625 
L 38.28125 72.90625 
L 38.28125 8.296875 
L 54.390625 8.296875 
L 54.390625 0 
L 12.40625 0 
z
" id="DejaVuSans-31"/>
      </defs>
      <g transform="translate(31.5125 137.931628)scale(0.1 -0.1)">
       <use xlink:href="#DejaVuSans-31"/>
       <use x="63.623047" xlink:href="#DejaVuSans-30"/>
       <use x="127.246094" xlink:href="#DejaVuSans-30"/>
      </g>
     </g>
    </g>
    <g id="ytick_7">
     <g id="line2d_23">
      <path clip-path="url(#pea9afe79f2)" d="M 57.6 101.799558 
L 414.72 101.799558 
" style="fill:none;stroke:#b0b0b0;stroke-linecap:square;stroke-width:0.8;"/>
     </g>
     <g id="line2d_24">
      <g>
       <use style="stroke:#000000;stroke-width:0.8;" x="57.6" xlink:href="#m9313f25fc7" y="101.799558"/>
      </g>
     </g>
     <g id="text_13">
      <!-- 120 -->
      <g transform="translate(31.5125 105.598776)scale(0.1 -0.1)">
       <use xlink:href="#DejaVuSans-31"/>
       <use x="63.623047" xlink:href="#DejaVuSans-32"/>
       <use x="127.246094" xlink:href="#DejaVuSans-30"/>
      </g>
     </g>
    </g>
    <g id="ytick_8">
     <g id="line2d_25">
      <path clip-path="url(#pea9afe79f2)" d="M 57.6 69.466706 
L 414.72 69.466706 
" style="fill:none;stroke:#b0b0b0;stroke-linecap:square;stroke-width:0.8;"/>
     </g>
     <g id="line2d_26">
      <g>
       <use style="stroke:#000000;stroke-width:0.8;" x="57.6" xlink:href="#m9313f25fc7" y="69.466706"/>
      </g>
     </g>
     <g id="text_14">
      <!-- 140 -->
      <g transform="translate(31.5125 73.265925)scale(0.1 -0.1)">
       <use xlink:href="#DejaVuSans-31"/>
       <use x="63.623047" xlink:href="#DejaVuSans-34"/>
       <use x="127.246094" xlink:href="#DejaVuSans-30"/>
      </g>
     </g>
    </g>
    <g id="text_15">
     <!-- Delay -->
     <defs>
      <path d="M 19.671875 64.796875 
L 19.671875 8.109375 
L 31.59375 8.109375 
Q 46.6875 8.109375 53.6875 14.9375 
Q 60.6875 21.78125 60.6875 36.53125 
Q 60.6875 51.171875 53.6875 57.984375 
Q 46.6875 64.796875 31.59375 64.796875 
z
M 9.8125 72.90625 
L 30.078125 72.90625 
Q 51.265625 72.90625 61.171875 64.09375 
Q 71.09375 55.28125 71.09375 36.53125 
Q 71.09375 17.671875 61.125 8.828125 
Q 51.171875 0 30.078125 0 
L 9.8125 0 
z
" id="DejaVuSans-44"/>
      <path d="M 34.28125 27.484375 
Q 23.390625 27.484375 19.1875 25 
Q 14.984375 22.515625 14.984375 16.5 
Q 14.984375 11.71875 18.140625 8.90625 
Q 21.296875 6.109375 26.703125 6.109375 
Q 34.1875 6.109375 38.703125 11.40625 
Q 43.21875 16.703125 43.21875 25.484375 
L 43.21875 27.484375 
z
M 52.203125 31.203125 
L 52.203125 0 
L 43.21875 0 
L 43.21875 8.296875 
Q 40.140625 3.328125 35.546875 0.953125 
Q 30.953125 -1.421875 24.3125 -1.421875 
Q 15.921875 -1.421875 10.953125 3.296875 
Q 6 8.015625 6 15.921875 
Q 6 25.140625 12.171875 29.828125 
Q 18.359375 34.515625 30.609375 34.515625 
L 43.21875 34.515625 
L 43.21875 35.40625 
Q 43.21875 41.609375 39.140625 45 
Q 35.0625 48.390625 27.6875 48.390625 
Q 23 48.390625 18.546875 47.265625 
Q 14.109375 46.140625 10.015625 43.890625 
L 10.015625 52.203125 
Q 14.9375 54.109375 19.578125 55.046875 
Q 24.21875 56 28.609375 56 
Q 40.484375 56 46.34375 49.84375 
Q 52.203125 43.703125 52.203125 31.203125 
" id="DejaVuSans-61"/>
      <path d="M 32.171875 -5.078125 
Q 28.375 -14.84375 24.75 -17.8125 
Q 21.140625 -20.796875 15.09375 -20.796875 
L 7.90625 -20.796875 
L 7.90625 -13.28125 
L 13.1875 -13.28125 
Q 16.890625 -13.28125 18.9375 -11.515625 
Q 21 -9.765625 23.484375 -3.21875 
L 25.09375 0.875 
L 2.984375 54.6875 
L 12.5 54.6875 
L 29.59375 11.921875 
L 46.6875 54.6875 
L 56.203125 54.6875 
z
" id="DejaVuSans-79"/>
     </defs>
     <g transform="translate(25.432812 188.867063)rotate(-90)scale(0.1 -0.1)">
      <use xlink:href="#DejaVuSans-44"/>
      <use x="77.001953" xlink:href="#DejaVuSans-65"/>
      <use x="138.525391" xlink:href="#DejaVuSans-6c"/>
      <use x="166.308594" xlink:href="#DejaVuSans-61"/>
      <use x="227.587891" xlink:href="#DejaVuSans-79"/>
     </g>
    </g>
   </g>
   <g id="line2d_27">
    <path clip-path="url(#pea9afe79f2)" d="M 57.6 295.488 
L 61.207273 295.294637 
L 64.814545 295.371746 
L 68.421818 294.891823 
L 72.029091 294.613408 
L 75.636364 293.113283 
L 79.243636 293.395098 
L 82.850909 292.968099 
L 86.458182 292.18139 
L 90.065455 292.344566 
L 93.672727 291.589756 
L 97.28 287.98629 
L 100.887273 293.415459 
L 104.494545 290.134921 
L 108.101818 288.046627 
L 111.709091 289.207835 
L 115.316364 288.133659 
L 118.923636 285.028652 
L 122.530909 281.532955 
L 126.138182 287.161201 
L 129.745455 280.777801 
L 133.352727 283.545224 
L 136.96 281.96302 
L 140.567273 285.608241 
L 144.174545 281.583366 
L 147.781818 273.688126 
L 151.389091 280.191163 
L 154.996364 281.58893 
L 158.603636 281.18929 
L 162.210909 271.829249 
L 165.818182 276.322234 
L 169.425455 275.595262 
L 173.032727 265.462015 
L 176.64 261.504173 
L 180.247273 267.770818 
L 183.854545 259.09864 
L 187.461818 257.012481 
L 191.069091 259.173125 
L 194.676364 271.323263 
L 198.283636 261.713104 
L 201.890909 252.494363 
L 205.498182 261.387177 
L 209.105455 264.139865 
L 212.712727 253.824045 
L 216.32 247.622904 
L 219.927273 250.066896 
L 223.534545 254.883148 
L 227.141818 241.647289 
L 230.749091 257.968765 
L 234.356364 238.923473 
L 237.963636 230.430048 
L 241.570909 232.946857 
L 245.178182 253.857713 
L 248.785455 232.666107 
L 252.392727 219.569597 
L 256 218.630646 
L 259.607273 220.630281 
L 263.214545 197.924462 
L 266.821818 207.003132 
L 270.429091 216.192857 
L 274.036364 197.543523 
L 277.643636 217.008693 
L 281.250909 229.19752 
L 284.858182 231.356468 
L 288.465455 183.788772 
L 292.072727 228.415414 
L 295.68 218.228343 
L 299.287273 150.060461 
L 302.894545 178.12218 
L 306.501818 146.450086 
L 310.109091 202.67769 
L 313.716364 209.616128 
L 317.323636 182.896584 
L 320.930909 201.001248 
L 324.538182 157.998282 
L 328.145455 161.713237 
L 331.752727 192.797062 
L 335.36 167.527934 
L 338.967273 165.485046 
L 342.574545 120.071858 
L 346.181818 175.909639 
L 349.789091 152.862631 
L 353.396364 137.917972 
L 357.003636 102.667289 
L 360.610909 149.816606 
L 364.218182 169.396513 
L 367.825455 88.756691 
L 371.432727 121.352103 
L 375.04 81.735454 
L 378.647273 78.537235 
L 382.254545 161.171655 
L 385.861818 154.901314 
L 389.469091 53.568 
L 393.076364 123.079154 
L 396.683636 120.912533 
L 400.290909 83.113575 
L 403.898182 126.710662 
L 407.505455 147.220707 
L 411.112727 62.567571 
L 414.72 55.232261 
" style="fill:none;stroke:#000080;stroke-linecap:square;"/>
    <defs>
     <path d="M 0 1.5 
C 0.397805 1.5 0.77937 1.341951 1.06066 1.06066 
C 1.341951 0.77937 1.5 0.397805 1.5 0 
C 1.5 -0.397805 1.341951 -0.77937 1.06066 -1.06066 
C 0.77937 -1.341951 0.397805 -1.5 0 -1.5 
C -0.397805 -1.5 -0.77937 -1.341951 -1.06066 -1.06066 
C -1.341951 -0.77937 -1.5 -0.397805 -1.5 0 
C -1.5 0.397805 -1.341951 0.77937 -1.06066 1.06066 
C -0.77937 1.341951 -0.397805 1.5 0 1.5 
z
" id="m48ea00fcc0" style="stroke:#000080;"/>
    </defs>
    <g clip-path="url(#pea9afe79f2)">
     <use style="fill:#000080;stroke:#000080;" x="57.6" xlink:href="#m48ea00fcc0" y="295.488"/>
     <use style="fill:#000080;stroke:#000080;" x="61.207273" xlink:href="#m48ea00fcc0" y="295.294637"/>
     <use style="fill:#000080;stroke:#000080;" x="64.814545" xlink:href="#m48ea00fcc0" y="295.371746"/>
     <use style="fill:#000080;stroke:#000080;" x="68.421818" xlink:href="#m48ea00fcc0" y="294.891823"/>
     <use style="fill:#000080;stroke:#000080;" x="72.029091" xlink:href="#m48ea00fcc0" y="294.613408"/>
     <use style="fill:#000080;stroke:#000080;" x="75.636364" xlink:href="#m48ea00fcc0" y="293.113283"/>
     <use style="fill:#000080;stroke:#000080;" x="79.243636" xlink:href="#m48ea00fcc0" y="293.395098"/>
     <use style="fill:#000080;stroke:#000080;" x="82.850909" xlink:href="#m48ea00fcc0" y="292.968099"/>
     <use style="fill:#000080;stroke:#000080;" x="86.458182" xlink:href="#m48ea00fcc0" y="292.18139"/>
     <use style="fill:#000080;stroke:#000080;" x="90.065455" xlink:href="#m48ea00fcc0" y="292.344566"/>
     <use style="fill:#000080;stroke:#000080;" x="93.672727" xlink:href="#m48ea00fcc0" y="291.589756"/>
     <use style="fill:#000080;stroke:#000080;" x="97.28" xlink:href="#m48ea00fcc0" y="287.98629"/>
     <use style="fill:#000080;stroke:#000080;" x="100.887273" xlink:href="#m48ea00fcc0" y="293.415459"/>
     <use style="fill:#000080;stroke:#000080;" x="104.494545" xlink:href="#m48ea00fcc0" y="290.134921"/>
     <use style="fill:#000080;stroke:#000080;" x="108.101818" xlink:href="#m48ea00fcc0" y="288.046627"/>
     <use style="fill:#000080;stroke:#000080;" x="111.709091" xlink:href="#m48ea00fcc0" y="289.207835"/>
     <use style="fill:#000080;stroke:#000080;" x="115.316364" xlink:href="#m48ea00fcc0" y="288.133659"/>
     <use style="fill:#000080;stroke:#000080;" x="118.923636" xlink:href="#m48ea00fcc0" y="285.028652"/>
     <use style="fill:#000080;stroke:#000080;" x="122.530909" xlink:href="#m48ea00fcc0" y="281.532955"/>
     <use style="fill:#000080;stroke:#000080;" x="126.138182" xlink:href="#m48ea00fcc0" y="287.161201"/>
     <use style="fill:#000080;stroke:#000080;" x="129.745455" xlink:href="#m48ea00fcc0" y="280.777801"/>
     <use style="fill:#000080;stroke:#000080;" x="133.352727" xlink:href="#m48ea00fcc0" y="283.545224"/>
     <use style="fill:#000080;stroke:#000080;" x="136.96" xlink:href="#m48ea00fcc0" y="281.96302"/>
     <use style="fill:#000080;stroke:#000080;" x="140.567273" xlink:href="#m48ea00fcc0" y="285.608241"/>
     <use style="fill:#000080;stroke:#000080;" x="144.174545" xlink:href="#m48ea00fcc0" y="281.583366"/>
     <use style="fill:#000080;stroke:#000080;" x="147.781818" xlink:href="#m48ea00fcc0" y="273.688126"/>
     <use style="fill:#000080;stroke:#000080;" x="151.389091" xlink:href="#m48ea00fcc0" y="280.191163"/>
     <use style="fill:#000080;stroke:#000080;" x="154.996364" xlink:href="#m48ea00fcc0" y="281.58893"/>
     <use style="fill:#000080;stroke:#000080;" x="158.603636" xlink:href="#m48ea00fcc0" y="281.18929"/>
     <use style="fill:#000080;stroke:#000080;" x="162.210909" xlink:href="#m48ea00fcc0" y="271.829249"/>
     <use style="fill:#000080;stroke:#000080;" x="165.818182" xlink:href="#m48ea00fcc0" y="276.322234"/>
     <use style="fill:#000080;stroke:#000080;" x="169.425455" xlink:href="#m48ea00fcc0" y="275.595262"/>
     <use style="fill:#000080;stroke:#000080;" x="173.032727" xlink:href="#m48ea00fcc0" y="265.462015"/>
     <use style="fill:#000080;stroke:#000080;" x="176.64" xlink:href="#m48ea00fcc0" y="261.504173"/>
     <use style="fill:#000080;stroke:#000080;" x="180.247273" xlink:href="#m48ea00fcc0" y="267.770818"/>
     <use style="fill:#000080;stroke:#000080;" x="183.854545" xlink:href="#m48ea00fcc0" y="259.09864"/>
     <use style="fill:#000080;stroke:#000080;" x="187.461818" xlink:href="#m48ea00fcc0" y="257.012481"/>
     <use style="fill:#000080;stroke:#000080;" x="191.069091" xlink:href="#m48ea00fcc0" y="259.173125"/>
     <use style="fill:#000080;stroke:#000080;" x="194.676364" xlink:href="#m48ea00fcc0" y="271.323263"/>
     <use style="fill:#000080;stroke:#000080;" x="198.283636" xlink:href="#m48ea00fcc0" y="261.713104"/>
     <use style="fill:#000080;stroke:#000080;" x="201.890909" xlink:href="#m48ea00fcc0" y="252.494363"/>
     <use style="fill:#000080;stroke:#000080;" x="205.498182" xlink:href="#m48ea00fcc0" y="261.387177"/>
     <use style="fill:#000080;stroke:#000080;" x="209.105455" xlink:href="#m48ea00fcc0" y="264.139865"/>
     <use style="fill:#000080;stroke:#000080;" x="212.712727" xlink:href="#m48ea00fcc0" y="253.824045"/>
     <use style="fill:#000080;stroke:#000080;" x="216.32" xlink:href="#m48ea00fcc0" y="247.622904"/>
     <use style="fill:#000080;stroke:#000080;" x="219.927273" xlink:href="#m48ea00fcc0" y="250.066896"/>
     <use style="fill:#000080;stroke:#000080;" x="223.534545" xlink:href="#m48ea00fcc0" y="254.883148"/>
     <use style="fill:#000080;stroke:#000080;" x="227.141818" xlink:href="#m48ea00fcc0" y="241.647289"/>
     <use style="fill:#000080;stroke:#000080;" x="230.749091" xlink:href="#m48ea00fcc0" y="257.968765"/>
     <use style="fill:#000080;stroke:#000080;" x="234.356364" xlink:href="#m48ea00fcc0" y="238.923473"/>
     <use style="fill:#000080;stroke:#000080;" x="237.963636" xlink:href="#m48ea00fcc0" y="230.430048"/>
     <use style="fill:#000080;stroke:#000080;" x="241.570909" xlink:href="#m48ea00fcc0" y="232.946857"/>
     <use style="fill:#000080;stroke:#000080;" x="245.178182" xlink:href="#m48ea00fcc0" y="253.857713"/>
     <use style="fill:#000080;stroke:#000080;" x="248.785455" xlink:href="#m48ea00fcc0" y="232.666107"/>
     <use style="fill:#000080;stroke:#000080;" x="252.392727" xlink:href="#m48ea00fcc0" y="219.569597"/>
     <use style="fill:#000080;stroke:#000080;" x="256" xlink:href="#m48ea00fcc0" y="218.630646"/>
     <use style="fill:#000080;stroke:#000080;" x="259.607273" xlink:href="#m48ea00fcc0" y="220.630281"/>
     <use style="fill:#000080;stroke:#000080;" x="263.214545" xlink:href="#m48ea00fcc0" y="197.924462"/>
     <use style="fill:#000080;stroke:#000080;" x="266.821818" xlink:href="#m48ea00fcc0" y="207.003132"/>
     <use style="fill:#000080;stroke:#000080;" x="270.429091" xlink:href="#m48ea00fcc0" y="216.192857"/>
     <use style="fill:#000080;stroke:#000080;" x="274.036364" xlink:href="#m48ea00fcc0" y="197.543523"/>
     <use style="fill:#000080;stroke:#000080;" x="277.643636" xlink:href="#m48ea00fcc0" y="217.008693"/>
     <use style="fill:#000080;stroke:#000080;" x="281.250909" xlink:href="#m48ea00fcc0" y="229.19752"/>
     <use style="fill:#000080;stroke:#000080;" x="284.858182" xlink:href="#m48ea00fcc0" y="231.356468"/>
     <use style="fill:#000080;stroke:#000080;" x="288.465455" xlink:href="#m48ea00fcc0" y="183.788772"/>
     <use style="fill:#000080;stroke:#000080;" x="292.072727" xlink:href="#m48ea00fcc0" y="228.415414"/>
     <use style="fill:#000080;stroke:#000080;" x="295.68" xlink:href="#m48ea00fcc0" y="218.228343"/>
     <use style="fill:#000080;stroke:#000080;" x="299.287273" xlink:href="#m48ea00fcc0" y="150.060461"/>
     <use style="fill:#000080;stroke:#000080;" x="302.894545" xlink:href="#m48ea00fcc0" y="178.12218"/>
     <use style="fill:#000080;stroke:#000080;" x="306.501818" xlink:href="#m48ea00fcc0" y="146.450086"/>
     <use style="fill:#000080;stroke:#000080;" x="310.109091" xlink:href="#m48ea00fcc0" y="202.67769"/>
     <use style="fill:#000080;stroke:#000080;" x="313.716364" xlink:href="#m48ea00fcc0" y="209.616128"/>
     <use style="fill:#000080;stroke:#000080;" x="317.323636" xlink:href="#m48ea00fcc0" y="182.896584"/>
     <use style="fill:#000080;stroke:#000080;" x="320.930909" xlink:href="#m48ea00fcc0" y="201.001248"/>
     <use style="fill:#000080;stroke:#000080;" x="324.538182" xlink:href="#m48ea00fcc0" y="157.998282"/>
     <use style="fill:#000080;stroke:#000080;" x="328.145455" xlink:href="#m48ea00fcc0" y="161.713237"/>
     <use style="fill:#000080;stroke:#000080;" x="331.752727" xlink:href="#m48ea00fcc0" y="192.797062"/>
     <use style="fill:#000080;stroke:#000080;" x="335.36" xlink:href="#m48ea00fcc0" y="167.527934"/>
     <use style="fill:#000080;stroke:#000080;" x="338.967273" xlink:href="#m48ea00fcc0" y="165.485046"/>
     <use style="fill:#000080;stroke:#000080;" x="342.574545" xlink:href="#m48ea00fcc0" y="120.071858"/>
     <use style="fill:#000080;stroke:#000080;" x="346.181818" xlink:href="#m48ea00fcc0" y="175.909639"/>
     <use style="fill:#000080;stroke:#000080;" x="349.789091" xlink:href="#m48ea00fcc0" y="152.862631"/>
     <use style="fill:#000080;stroke:#000080;" x="353.396364" xlink:href="#m48ea00fcc0" y="137.917972"/>
     <use style="fill:#000080;stroke:#000080;" x="357.003636" xlink:href="#m48ea00fcc0" y="102.667289"/>
     <use style="fill:#000080;stroke:#000080;" x="360.610909" xlink:href="#m48ea00fcc0" y="149.816606"/>
     <use style="fill:#000080;stroke:#000080;" x="364.218182" xlink:href="#m48ea00fcc0" y="169.396513"/>
     <use style="fill:#000080;stroke:#000080;" x="367.825455" xlink:href="#m48ea00fcc0" y="88.756691"/>
     <use style="fill:#000080;stroke:#000080;" x="371.432727" xlink:href="#m48ea00fcc0" y="121.352103"/>
     <use style="fill:#000080;stroke:#000080;" x="375.04" xlink:href="#m48ea00fcc0" y="81.735454"/>
     <use style="fill:#000080;stroke:#000080;" x="378.647273" xlink:href="#m48ea00fcc0" y="78.537235"/>
     <use style="fill:#000080;stroke:#000080;" x="382.254545" xlink:href="#m48ea00fcc0" y="161.171655"/>
     <use style="fill:#000080;stroke:#000080;" x="385.861818" xlink:href="#m48ea00fcc0" y="154.901314"/>
     <use style="fill:#000080;stroke:#000080;" x="389.469091" xlink:href="#m48ea00fcc0" y="53.568"/>
     <use style="fill:#000080;stroke:#000080;" x="393.076364" xlink:href="#m48ea00fcc0" y="123.079154"/>
     <use style="fill:#000080;stroke:#000080;" x="396.683636" xlink:href="#m48ea00fcc0" y="120.912533"/>
     <use style="fill:#000080;stroke:#000080;" x="400.290909" xlink:href="#m48ea00fcc0" y="83.113575"/>
     <use style="fill:#000080;stroke:#000080;" x="403.898182" xlink:href="#m48ea00fcc0" y="126.710662"/>
     <use style="fill:#000080;stroke:#000080;" x="407.505455" xlink:href="#m48ea00fcc0" y="147.220707"/>
     <use style="fill:#000080;stroke:#000080;" x="411.112727" xlink:href="#m48ea00fcc0" y="62.567571"/>
     <use style="fill:#000080;stroke:#000080;" x="414.72" xlink:href="#m48ea00fcc0" y="55.232261"/>
    </g>
   </g>
   <g id="patch_3">
    <path d="M 57.6 307.584 
L 57.6 41.472 
" style="fill:none;stroke:#000000;stroke-linecap:square;stroke-linejoin:miter;stroke-width:0.8;"/>
   </g>
   <g id="patch_4">
    <path d="M 414.72 307.584 
L 414.72 41.472 
" style="fill:none;stroke:#000000;stroke-linecap:square;stroke-linejoin:miter;stroke-width:0.8;"/>
   </g>
   <g id="patch_5">
    <path d="M 57.6 307.584 
L 414.72 307.584 
" style="fill:none;stroke:#000000;stroke-linecap:square;stroke-linejoin:miter;stroke-width:0.8;"/>
   </g>
   <g id="patch_6">
    <path d="M 57.6 41.472 
L 414.72 41.472 
" style="fill:none;stroke:#000000;stroke-linecap:square;stroke-linejoin:miter;stroke-width:0.8;"/>
   </g>
   <g id="text_16">
    <!-- Test -->
    <defs>
     <path d="M -0.296875 72.90625 
L 61.375 72.90625 
L 61.375 64.59375 
L 35.5 64.59375 
L 35.5 0 
L 25.59375 0 
L 25.59375 64.59375 
L -0.296875 64.59375 
z
" id="DejaVuSans-54"/>
    </defs>
    <g transform="translate(223.341563 35.472)scale(0.12 -0.12)">
     <use xlink:href="#DejaVuSans-54"/>
     <use x="60.818359" xlink:href="#DejaVuSans-65"/>
     <use x="122.341797" xlink:href="#DejaVuSans-73"/>
     <use x="174.441406" xlink:href="#DejaVuSans-74"/>
    </g>
   </g>
   <g id="legend_1">
    <g id="patch_7">
     <path d="M 64.6 64.150125 
L 125.278125 64.150125 
Q 127.278125 64.150125 127.278125 62.150125 
L 127.278125 48.472 
Q 127.278125 46.472 125.278125 46.472 
L 64.6 46.472 
Q 62.6 46.472 62.6 48.472 
L 62.6 62.150125 
Q 62.6 64.150125 64.6 64.150125 
z
" style="fill:#ffffff;opacity:0.8;stroke:#cccccc;stroke-linejoin:miter;"/>
    </g>
    <g id="line2d_28">
     <path d="M 66.6 54.570438 
L 86.6 54.570438 
" style="fill:none;stroke:#000080;stroke-linecap:square;"/>
    </g>
    <g id="line2d_29">
     <g>
      <use style="fill:#000080;stroke:#000080;" x="76.6" xlink:href="#m48ea00fcc0" y="54.570438"/>
     </g>
    </g>
    <g id="text_17">
     <!-- Delay -->
     <g transform="translate(94.6 58.070438)scale(0.1 -0.1)">
      <use xlink:href="#DejaVuSans-44"/>
      <use x="77.001953" xlink:href="#DejaVuSans-65"/>
      <use x="138.525391" xlink:href="#DejaVuSans-6c"/>
      <use x="166.308594" xlink:href="#DejaVuSans-61"/>
      <use x="227.587891" xlink:href="#DejaVuSans-79"/>
     </g>
    </g>
   </g>
  </g>
 </g>
 <defs>
  <clipPath id="pea9afe79f2">
   <rect height="266.112" width="357.12" x="57.6" y="41.472"/>
  </clipPath>
 </defs>
</svg>
