<?xml version="1.0" encoding="utf-8" standalone="no"?>
<!DOCTYPE svg PUBLIC "-//W3C//DTD SVG 1.1//EN"
  "http://www.w3.org/Graphics/SVG/1.1/DTD/svg11.dtd">
<!-- Created with matplotlib (http://matplotlib.org/) -->
<svg height="345pt" version="1.1" viewBox="0 0 460 345" width="460pt" xmlns="http://www.w3.org/2000/svg" xmlns:xlink="http://www.w3.org/1999/xlink">
 <defs>
  <style type="text/css">
*{stroke-linecap:butt;stroke-linejoin:round;}
  </style>
 </defs>
 <g id="figure_1">
  <g id="patch_1">
   <path d="M 0 345.6 
L 460.8 345.6 
L 460.8 0 
L 0 0 
z
" style="fill:#ffffff;"/>
  </g>
  <g id="axes_1">
   <g id="patch_2">
    <path d="M 57.6 307.584 
L 414.72 307.584 
L 414.72 41.472 
L 57.6 41.472 
z
" style="fill:#ffffff;"/>
   </g>
   <g id="matplotlib.axis_1">
    <g id="xtick_1">
     <g id="line2d_1">
      <defs>
       <path d="M 0 0 
L 0 3.5 
" id="m119dd57931" style="stroke:#000000;stroke-width:0.8;"/>
      </defs>
      <g>
       <use style="stroke:#000000;stroke-width:0.8;" x="57.6" xlink:href="#m119dd57931" y="307.584"/>
      </g>
     </g>
     <g id="text_1">
      <!-- 0 -->
      <defs>
       <path d="M 31.78125 66.40625 
Q 24.171875 66.40625 20.328125 58.90625 
Q 16.5 51.421875 16.5 36.375 
Q 16.5 21.390625 20.328125 13.890625 
Q 24.171875 6.390625 31.78125 6.390625 
Q 39.453125 6.390625 43.28125 13.890625 
Q 47.125 21.390625 47.125 36.375 
Q 47.125 51.421875 43.28125 58.90625 
Q 39.453125 66.40625 31.78125 66.40625 
M 31.78125 74.21875 
Q 44.046875 74.21875 50.515625 64.515625 
Q 56.984375 54.828125 56.984375 36.375 
Q 56.984375 17.96875 50.515625 8.265625 
Q 44.046875 -1.421875 31.78125 -1.421875 
Q 19.53125 -1.421875 13.0625 8.265625 
Q 6.59375 17.96875 6.59375 36.375 
Q 6.59375 54.828125 13.0625 64.515625 
Q 19.53125 74.21875 31.78125 74.21875 
" id="DejaVuSans-30"/>
      </defs>
      <g transform="translate(54.41875 322.182437)scale(0.1 -0.1)">
       <use xlink:href="#DejaVuSans-30"/>
      </g>
     </g>
    </g>
    <g id="xtick_2">
     <g id="line2d_2">
      <g>
       <use style="stroke:#000000;stroke-width:0.8;" x="129.095495" xlink:href="#m119dd57931" y="307.584"/>
      </g>
     </g>
     <g id="text_2">
      <!-- 200 -->
      <defs>
       <path d="M 19.1875 8.296875 
L 53.609375 8.296875 
L 53.609375 0 
L 7.328125 0 
L 7.328125 8.296875 
Q 12.9375 14.109375 22.625 23.890625 
Q 32.328125 33.6875 34.8125 36.53125 
Q 39.546875 41.84375 41.421875 45.53125 
Q 43.3125 49.21875 43.3125 52.78125 
Q 43.3125 58.59375 39.234375 62.25 
Q 35.15625 65.921875 28.609375 65.921875 
Q 23.96875 65.921875 18.8125 64.3125 
Q 13.671875 62.703125 7.8125 59.421875 
L 7.8125 69.390625 
Q 13.765625 71.78125 18.9375 73 
Q 24.125 74.21875 28.421875 74.21875 
Q 39.75 74.21875 46.484375 68.546875 
Q 53.21875 62.890625 53.21875 53.421875 
Q 53.21875 48.921875 51.53125 44.890625 
Q 49.859375 40.875 45.40625 35.40625 
Q 44.1875 33.984375 37.640625 27.21875 
Q 31.109375 20.453125 19.1875 8.296875 
" id="DejaVuSans-32"/>
      </defs>
      <g transform="translate(119.551745 322.182437)scale(0.1 -0.1)">
       <use xlink:href="#DejaVuSans-32"/>
       <use x="63.623047" xlink:href="#DejaVuSans-30"/>
       <use x="127.246094" xlink:href="#DejaVuSans-30"/>
      </g>
     </g>
    </g>
    <g id="xtick_3">
     <g id="line2d_3">
      <g>
       <use style="stroke:#000000;stroke-width:0.8;" x="200.590991" xlink:href="#m119dd57931" y="307.584"/>
      </g>
     </g>
     <g id="text_3">
      <!-- 400 -->
      <defs>
       <path d="M 37.796875 64.3125 
L 12.890625 25.390625 
L 37.796875 25.390625 
z
M 35.203125 72.90625 
L 47.609375 72.90625 
L 47.609375 25.390625 
L 58.015625 25.390625 
L 58.015625 17.1875 
L 47.609375 17.1875 
L 47.609375 0 
L 37.796875 0 
L 37.796875 17.1875 
L 4.890625 17.1875 
L 4.890625 26.703125 
z
" id="DejaVuSans-34"/>
      </defs>
      <g transform="translate(191.047241 322.182437)scale(0.1 -0.1)">
       <use xlink:href="#DejaVuSans-34"/>
       <use x="63.623047" xlink:href="#DejaVuSans-30"/>
       <use x="127.246094" xlink:href="#DejaVuSans-30"/>
      </g>
     </g>
    </g>
    <g id="xtick_4">
     <g id="line2d_4">
      <g>
       <use style="stroke:#000000;stroke-width:0.8;" x="272.086486" xlink:href="#m119dd57931" y="307.584"/>
      </g>
     </g>
     <g id="text_4">
      <!-- 600 -->
      <defs>
       <path d="M 33.015625 40.375 
Q 26.375 40.375 22.484375 35.828125 
Q 18.609375 31.296875 18.609375 23.390625 
Q 18.609375 15.53125 22.484375 10.953125 
Q 26.375 6.390625 33.015625 6.390625 
Q 39.65625 6.390625 43.53125 10.953125 
Q 47.40625 15.53125 47.40625 23.390625 
Q 47.40625 31.296875 43.53125 35.828125 
Q 39.65625 40.375 33.015625 40.375 
M 52.59375 71.296875 
L 52.59375 62.3125 
Q 48.875 64.0625 45.09375 64.984375 
Q 41.3125 65.921875 37.59375 65.921875 
Q 27.828125 65.921875 22.671875 59.328125 
Q 17.53125 52.734375 16.796875 39.40625 
Q 19.671875 43.65625 24.015625 45.921875 
Q 28.375 48.1875 33.59375 48.1875 
Q 44.578125 48.1875 50.953125 41.515625 
Q 57.328125 34.859375 57.328125 23.390625 
Q 57.328125 12.15625 50.6875 5.359375 
Q 44.046875 -1.421875 33.015625 -1.421875 
Q 20.359375 -1.421875 13.671875 8.265625 
Q 6.984375 17.96875 6.984375 36.375 
Q 6.984375 53.65625 15.1875 63.9375 
Q 23.390625 74.21875 37.203125 74.21875 
Q 40.921875 74.21875 44.703125 73.484375 
Q 48.484375 72.75 52.59375 71.296875 
" id="DejaVuSans-36"/>
      </defs>
      <g transform="translate(262.542736 322.182437)scale(0.1 -0.1)">
       <use xlink:href="#DejaVuSans-36"/>
       <use x="63.623047" xlink:href="#DejaVuSans-30"/>
       <use x="127.246094" xlink:href="#DejaVuSans-30"/>
      </g>
     </g>
    </g>
    <g id="xtick_5">
     <g id="line2d_5">
      <g>
       <use style="stroke:#000000;stroke-width:0.8;" x="343.581982" xlink:href="#m119dd57931" y="307.584"/>
      </g>
     </g>
     <g id="text_5">
      <!-- 800 -->
      <defs>
       <path d="M 31.78125 34.625 
Q 24.75 34.625 20.71875 30.859375 
Q 16.703125 27.09375 16.703125 20.515625 
Q 16.703125 13.921875 20.71875 10.15625 
Q 24.75 6.390625 31.78125 6.390625 
Q 38.8125 6.390625 42.859375 10.171875 
Q 46.921875 13.96875 46.921875 20.515625 
Q 46.921875 27.09375 42.890625 30.859375 
Q 38.875 34.625 31.78125 34.625 
M 21.921875 38.8125 
Q 15.578125 40.375 12.03125 44.71875 
Q 8.5 49.078125 8.5 55.328125 
Q 8.5 64.0625 14.71875 69.140625 
Q 20.953125 74.21875 31.78125 74.21875 
Q 42.671875 74.21875 48.875 69.140625 
Q 55.078125 64.0625 55.078125 55.328125 
Q 55.078125 49.078125 51.53125 44.71875 
Q 48 40.375 41.703125 38.8125 
Q 48.828125 37.15625 52.796875 32.3125 
Q 56.78125 27.484375 56.78125 20.515625 
Q 56.78125 9.90625 50.3125 4.234375 
Q 43.84375 -1.421875 31.78125 -1.421875 
Q 19.734375 -1.421875 13.25 4.234375 
Q 6.78125 9.90625 6.78125 20.515625 
Q 6.78125 27.484375 10.78125 32.3125 
Q 14.796875 37.15625 21.921875 38.8125 
M 18.3125 54.390625 
Q 18.3125 48.734375 21.84375 45.5625 
Q 25.390625 42.390625 31.78125 42.390625 
Q 38.140625 42.390625 41.71875 45.5625 
Q 45.3125 48.734375 45.3125 54.390625 
Q 45.3125 60.0625 41.71875 63.234375 
Q 38.140625 66.40625 31.78125 66.40625 
Q 25.390625 66.40625 21.84375 63.234375 
Q 18.3125 60.0625 18.3125 54.390625 
" id="DejaVuSans-38"/>
      </defs>
      <g transform="translate(334.038232 322.182437)scale(0.1 -0.1)">
       <use xlink:href="#DejaVuSans-38"/>
       <use x="63.623047" xlink:href="#DejaVuSans-30"/>
       <use x="127.246094" xlink:href="#DejaVuSans-30"/>
      </g>
     </g>
    </g>
    <g id="xtick_6">
     <g id="line2d_6">
      <g>
       <use style="stroke:#000000;stroke-width:0.8;" x="415.077477" xlink:href="#m119dd57931" y="307.584"/>
      </g>
     </g>
     <g id="text_6">
      <!-- 1000 -->
      <defs>
       <path d="M 12.40625 8.296875 
L 28.515625 8.296875 
L 28.515625 63.921875 
L 10.984375 60.40625 
L 10.984375 69.390625 
L 28.421875 72.90625 
L 38.28125 72.90625 
L 38.28125 8.296875 
L 54.390625 8.296875 
L 54.390625 0 
L 12.40625 0 
z
" id="DejaVuSans-31"/>
      </defs>
      <g transform="translate(402.352477 322.182437)scale(0.1 -0.1)">
       <use xlink:href="#DejaVuSans-31"/>
       <use x="63.623047" xlink:href="#DejaVuSans-30"/>
       <use x="127.246094" xlink:href="#DejaVuSans-30"/>
       <use x="190.869141" xlink:href="#DejaVuSans-30"/>
      </g>
     </g>
    </g>
   </g>
   <g id="matplotlib.axis_2">
    <g id="ytick_1">
     <g id="line2d_7">
      <defs>
       <path d="M 0 0 
L -3.5 0 
" id="m9181904495" style="stroke:#000000;stroke-width:0.8;"/>
      </defs>
      <g>
       <use style="stroke:#000000;stroke-width:0.8;" x="57.6" xlink:href="#m9181904495" y="295.634287"/>
      </g>
     </g>
     <g id="text_7">
      <!-- 0 -->
      <g transform="translate(44.2375 299.433506)scale(0.1 -0.1)">
       <use xlink:href="#DejaVuSans-30"/>
      </g>
     </g>
    </g>
    <g id="ytick_2">
     <g id="line2d_8">
      <g>
       <use style="stroke:#000000;stroke-width:0.8;" x="57.6" xlink:href="#m9181904495" y="263.197589"/>
      </g>
     </g>
     <g id="text_8">
      <!-- 25 -->
      <defs>
       <path d="M 10.796875 72.90625 
L 49.515625 72.90625 
L 49.515625 64.59375 
L 19.828125 64.59375 
L 19.828125 46.734375 
Q 21.96875 47.46875 24.109375 47.828125 
Q 26.265625 48.1875 28.421875 48.1875 
Q 40.625 48.1875 47.75 41.5 
Q 54.890625 34.8125 54.890625 23.390625 
Q 54.890625 11.625 47.5625 5.09375 
Q 40.234375 -1.421875 26.90625 -1.421875 
Q 22.3125 -1.421875 17.546875 -0.640625 
Q 12.796875 0.140625 7.71875 1.703125 
L 7.71875 11.625 
Q 12.109375 9.234375 16.796875 8.0625 
Q 21.484375 6.890625 26.703125 6.890625 
Q 35.15625 6.890625 40.078125 11.328125 
Q 45.015625 15.765625 45.015625 23.390625 
Q 45.015625 31 40.078125 35.4375 
Q 35.15625 39.890625 26.703125 39.890625 
Q 22.75 39.890625 18.8125 39.015625 
Q 14.890625 38.140625 10.796875 36.28125 
z
" id="DejaVuSans-35"/>
      </defs>
      <g transform="translate(37.875 266.996807)scale(0.1 -0.1)">
       <use xlink:href="#DejaVuSans-32"/>
       <use x="63.623047" xlink:href="#DejaVuSans-35"/>
      </g>
     </g>
    </g>
    <g id="ytick_3">
     <g id="line2d_9">
      <g>
       <use style="stroke:#000000;stroke-width:0.8;" x="57.6" xlink:href="#m9181904495" y="230.76089"/>
      </g>
     </g>
     <g id="text_9">
      <!-- 50 -->
      <g transform="translate(37.875 234.560109)scale(0.1 -0.1)">
       <use xlink:href="#DejaVuSans-35"/>
       <use x="63.623047" xlink:href="#DejaVuSans-30"/>
      </g>
     </g>
    </g>
    <g id="ytick_4">
     <g id="line2d_10">
      <g>
       <use style="stroke:#000000;stroke-width:0.8;" x="57.6" xlink:href="#m9181904495" y="198.324192"/>
      </g>
     </g>
     <g id="text_10">
      <!-- 75 -->
      <defs>
       <path d="M 8.203125 72.90625 
L 55.078125 72.90625 
L 55.078125 68.703125 
L 28.609375 0 
L 18.3125 0 
L 43.21875 64.59375 
L 8.203125 64.59375 
z
" id="DejaVuSans-37"/>
      </defs>
      <g transform="translate(37.875 202.123411)scale(0.1 -0.1)">
       <use xlink:href="#DejaVuSans-37"/>
       <use x="63.623047" xlink:href="#DejaVuSans-35"/>
      </g>
     </g>
    </g>
    <g id="ytick_5">
     <g id="line2d_11">
      <g>
       <use style="stroke:#000000;stroke-width:0.8;" x="57.6" xlink:href="#m9181904495" y="165.887493"/>
      </g>
     </g>
     <g id="text_11">
      <!-- 100 -->
      <g transform="translate(31.5125 169.686712)scale(0.1 -0.1)">
       <use xlink:href="#DejaVuSans-31"/>
       <use x="63.623047" xlink:href="#DejaVuSans-30"/>
       <use x="127.246094" xlink:href="#DejaVuSans-30"/>
      </g>
     </g>
    </g>
    <g id="ytick_6">
     <g id="line2d_12">
      <g>
       <use style="stroke:#000000;stroke-width:0.8;" x="57.6" xlink:href="#m9181904495" y="133.450795"/>
      </g>
     </g>
     <g id="text_12">
      <!-- 125 -->
      <g transform="translate(31.5125 137.250014)scale(0.1 -0.1)">
       <use xlink:href="#DejaVuSans-31"/>
       <use x="63.623047" xlink:href="#DejaVuSans-32"/>
       <use x="127.246094" xlink:href="#DejaVuSans-35"/>
      </g>
     </g>
    </g>
    <g id="ytick_7">
     <g id="line2d_13">
      <g>
       <use style="stroke:#000000;stroke-width:0.8;" x="57.6" xlink:href="#m9181904495" y="101.014097"/>
      </g>
     </g>
     <g id="text_13">
      <!-- 150 -->
      <g transform="translate(31.5125 104.813316)scale(0.1 -0.1)">
       <use xlink:href="#DejaVuSans-31"/>
       <use x="63.623047" xlink:href="#DejaVuSans-35"/>
       <use x="127.246094" xlink:href="#DejaVuSans-30"/>
      </g>
     </g>
    </g>
    <g id="ytick_8">
     <g id="line2d_14">
      <g>
       <use style="stroke:#000000;stroke-width:0.8;" x="57.6" xlink:href="#m9181904495" y="68.577398"/>
      </g>
     </g>
     <g id="text_14">
      <!-- 175 -->
      <g transform="translate(31.5125 72.376617)scale(0.1 -0.1)">
       <use xlink:href="#DejaVuSans-31"/>
       <use x="63.623047" xlink:href="#DejaVuSans-37"/>
       <use x="127.246094" xlink:href="#DejaVuSans-35"/>
      </g>
     </g>
    </g>
   </g>
   <g id="line2d_15">
    <path clip-path="url(#p65a86a55c4)" d="M 57.6 295.384851 
L 57.957477 295.488 
L 58.314955 295.357586 
L 58.672432 295.466161 
L 59.387387 295.31955 
L 60.45982 295.360294 
L 61.174775 295.341779 
L 61.532252 295.409041 
L 61.88973 295.263447 
L 62.247207 295.32386 
L 62.962162 295.197184 
L 64.74955 295.157352 
L 65.107027 295.07622 
L 66.179459 295.334973 
L 66.536937 295.366384 
L 66.894414 294.953129 
L 67.251892 295.093199 
L 67.609369 294.992897 
L 68.324324 295.111262 
L 68.681802 294.985493 
L 69.039279 295.073917 
L 69.396757 294.67178 
L 69.754234 295.183056 
L 70.111712 294.855691 
L 70.469189 295.066126 
L 70.826667 294.543761 
L 71.184144 294.494472 
L 71.541622 295.214585 
L 71.899099 294.433192 
L 72.971532 294.384531 
L 73.329009 294.869092 
L 73.686486 294.367762 
L 74.043964 294.714425 
L 74.401441 294.156296 
L 74.758919 294.438094 
L 75.473874 294.102914 
L 75.831351 293.804962 
L 76.188829 294.106612 
L 76.546306 294.763983 
L 76.903784 294.224757 
L 77.261261 294.136364 
L 77.618739 293.75928 
L 77.976216 294.301075 
L 78.333694 293.54444 
L 79.406126 293.140887 
L 79.763604 292.697515 
L 80.121081 293.979902 
L 80.478559 293.478619 
L 80.836036 293.509225 
L 81.193514 293.811272 
L 81.550991 293.691813 
L 81.908468 293.890162 
L 82.265946 293.932239 
L 82.980901 292.944907 
L 83.338378 292.005268 
L 83.695856 293.26757 
L 84.053333 293.330578 
L 84.410811 292.768134 
L 84.768288 293.443706 
L 85.125766 292.645418 
L 85.483243 292.275982 
L 85.840721 293.057618 
L 86.198198 293.364372 
L 86.555676 293.180645 
L 86.913153 293.297249 
L 87.270631 293.291365 
L 87.628108 292.168873 
L 87.985586 292.542617 
L 88.343063 292.353927 
L 89.058018 292.687427 
L 89.415495 293.157981 
L 90.13045 292.971687 
L 90.487928 293.982449 
L 90.845405 291.475269 
L 91.202883 293.28871 
L 91.56036 292.928023 
L 91.917838 293.313291 
L 92.275315 291.150871 
L 92.632793 292.214834 
L 92.99027 292.396066 
L 93.347748 291.456885 
L 93.705225 291.19548 
L 94.062703 291.95008 
L 94.42018 291.326508 
L 94.777658 293.0509 
L 95.135135 291.489725 
L 95.492613 292.605553 
L 95.85009 291.383522 
L 96.207568 293.575041 
L 96.565045 291.781138 
L 96.922523 292.062713 
L 97.28 291.055537 
L 97.637477 290.607678 
L 97.994955 291.849694 
L 98.352432 291.539217 
L 98.70991 292.489434 
L 99.067387 290.884594 
L 99.424865 291.260136 
L 99.782342 289.971884 
L 100.13982 291.67059 
L 100.497297 290.43091 
L 101.212252 292.137901 
L 101.56973 290.619184 
L 101.927207 291.304886 
L 102.284685 290.547685 
L 102.642162 291.447272 
L 102.99964 290.692221 
L 103.357117 291.475771 
L 103.714595 290.475544 
L 104.072072 290.138727 
L 104.42955 293.209073 
L 104.787027 289.366127 
L 105.144505 291.581007 
L 105.501982 290.505578 
L 105.859459 292.244233 
L 106.216937 290.205296 
L 106.574414 289.466913 
L 106.931892 289.025617 
L 107.289369 291.465031 
L 107.646847 292.836313 
L 108.004324 290.90621 
L 108.361802 290.42886 
L 108.719279 290.287235 
L 109.076757 292.194622 
L 109.434234 290.271042 
L 109.791712 290.354174 
L 110.149189 288.948967 
L 110.506667 290.387031 
L 110.864144 290.668832 
L 111.221622 288.671094 
L 111.579099 289.405892 
L 111.936577 289.79439 
L 112.294054 287.818048 
L 112.651532 289.963395 
L 113.009009 288.277004 
L 113.366486 289.275613 
L 113.723964 289.153137 
L 114.081441 287.883159 
L 114.438919 288.107195 
L 114.796396 287.575095 
L 115.153874 290.118025 
L 115.511351 289.232082 
L 115.868829 290.153396 
L 116.226306 286.735786 
L 116.583784 287.167931 
L 116.941261 289.374831 
L 117.298739 289.249685 
L 117.656216 287.117949 
L 118.013694 289.453861 
L 118.371171 289.529785 
L 118.728649 289.334111 
L 119.086126 287.137618 
L 119.443604 287.628457 
L 119.801081 287.357429 
L 120.158559 285.720604 
L 120.516036 287.893921 
L 120.873514 287.583536 
L 121.230991 291.703656 
L 121.588468 286.224059 
L 121.945946 287.188636 
L 122.303423 287.149645 
L 122.660901 288.652573 
L 123.018378 285.164408 
L 123.375856 287.518987 
L 123.733333 287.814961 
L 124.090811 286.640322 
L 124.448288 286.580474 
L 124.805766 287.441535 
L 125.163243 287.524848 
L 125.520721 287.045377 
L 125.878198 289.002612 
L 126.950631 285.594149 
L 127.308108 286.779288 
L 127.665586 284.5493 
L 128.023063 289.332873 
L 128.380541 285.887315 
L 128.738018 287.553341 
L 129.095495 282.923057 
L 129.452973 285.277477 
L 129.81045 286.847953 
L 130.167928 287.890906 
L 131.24036 283.526293 
L 131.597838 285.938075 
L 131.955315 286.86579 
L 132.312793 284.990942 
L 132.67027 287.494933 
L 133.027748 287.125382 
L 133.385225 285.463985 
L 133.742703 285.170317 
L 134.10018 284.548223 
L 134.457658 286.732363 
L 134.815135 285.523167 
L 135.172613 281.906636 
L 135.53009 286.621504 
L 135.887568 283.815287 
L 136.245045 287.02287 
L 136.602523 282.889069 
L 136.96 288.924672 
L 137.317477 284.465187 
L 137.674955 285.308493 
L 138.032432 280.467603 
L 138.38991 286.968833 
L 138.747387 287.075239 
L 139.104865 283.235966 
L 139.462342 282.118336 
L 139.81982 283.802761 
L 140.177297 286.150686 
L 140.534775 282.983929 
L 140.892252 289.550338 
L 141.24973 283.739908 
L 141.607207 281.767092 
L 141.964685 282.392131 
L 142.322162 284.537643 
L 142.67964 280.291105 
L 143.037117 283.359885 
L 143.394595 281.568844 
L 143.752072 282.48483 
L 144.10955 285.770623 
L 144.467027 283.216566 
L 144.824505 281.935557 
L 145.181982 281.405004 
L 145.539459 283.193124 
L 145.896937 281.674754 
L 146.254414 286.298194 
L 146.611892 281.531793 
L 146.969369 281.173283 
L 147.326847 280.166055 
L 147.684324 276.046157 
L 148.041802 285.453209 
L 148.399279 280.95566 
L 148.756757 282.040321 
L 149.114234 282.760045 
L 149.471712 281.796184 
L 149.829189 284.814544 
L 150.186667 281.722981 
L 150.544144 280.388865 
L 150.901622 286.075721 
L 151.259099 282.063827 
L 151.616577 283.038854 
L 151.974054 282.880202 
L 152.331532 284.850459 
L 152.689009 279.486192 
L 153.046486 285.945901 
L 153.403964 282.19135 
L 153.761441 275.238183 
L 154.118919 286.063151 
L 154.476396 279.136448 
L 154.833874 277.041848 
L 155.548829 283.376171 
L 155.906306 282.281209 
L 156.263784 278.512782 
L 156.621261 279.556067 
L 156.978739 283.103979 
L 157.336216 282.857678 
L 157.693694 276.194574 
L 158.051171 278.397669 
L 158.408649 278.123817 
L 158.766126 278.935472 
L 159.123604 278.305304 
L 159.481081 282.250441 
L 159.838559 276.756825 
L 160.196036 278.489757 
L 160.553514 276.526143 
L 160.910991 277.790417 
L 161.268468 277.531683 
L 161.625946 275.364646 
L 161.983423 275.962226 
L 162.340901 282.301269 
L 162.698378 276.35959 
L 163.413333 279.582587 
L 163.770811 278.166776 
L 164.128288 275.829768 
L 164.485766 276.509573 
L 164.843243 274.851778 
L 165.200721 275.409183 
L 165.558198 273.513336 
L 165.915676 278.766922 
L 166.273153 280.57623 
L 166.988108 275.453635 
L 167.345586 277.817674 
L 167.703063 273.221463 
L 168.060541 278.934747 
L 168.418018 272.989968 
L 168.775495 271.653087 
L 169.132973 275.865549 
L 169.49045 269.91999 
L 169.847928 274.534292 
L 170.205405 275.482534 
L 170.562883 273.280643 
L 170.92036 280.241395 
L 171.277838 270.756211 
L 171.635315 274.193645 
L 171.992793 273.267948 
L 172.35027 278.464479 
L 172.707748 272.408002 
L 173.065225 273.299461 
L 173.422703 278.846066 
L 173.78018 274.71021 
L 174.137658 277.281145 
L 174.495135 275.667431 
L 174.852613 277.927153 
L 175.21009 271.228426 
L 175.567568 277.837572 
L 175.925045 277.628709 
L 176.64 273.07402 
L 176.997477 274.435925 
L 177.354955 278.443387 
L 177.712432 274.301616 
L 178.06991 273.567076 
L 178.427387 274.749698 
L 178.784865 274.786717 
L 179.142342 269.052176 
L 179.49982 273.60259 
L 179.857297 272.836566 
L 180.214775 273.981371 
L 180.572252 273.652689 
L 180.92973 268.283097 
L 181.287207 269.139179 
L 181.644685 271.545788 
L 182.002162 278.718829 
L 182.35964 273.018597 
L 182.717117 276.665041 
L 183.074595 276.775819 
L 183.432072 270.764078 
L 183.78955 268.279698 
L 184.147027 266.976897 
L 184.504505 277.396813 
L 184.861982 272.427251 
L 185.219459 280.01525 
L 185.576937 272.027356 
L 185.934414 274.603336 
L 186.291892 281.217376 
L 186.649369 269.536388 
L 187.006847 266.484449 
L 187.364324 269.762693 
L 187.721802 263.756121 
L 188.079279 269.733424 
L 188.436757 269.767818 
L 188.794234 264.014354 
L 189.151712 263.667735 
L 189.509189 265.894264 
L 189.866667 261.647602 
L 190.224144 267.993746 
L 190.581622 271.684102 
L 190.939099 277.126426 
L 191.296577 268.303086 
L 192.011532 263.270401 
L 192.369009 263.380042 
L 192.726486 272.347601 
L 193.083964 277.814958 
L 193.441441 272.436801 
L 193.798919 263.545207 
L 194.156396 274.535249 
L 194.513874 261.67965 
L 195.228829 271.347447 
L 195.586306 266.836897 
L 196.301261 277.623469 
L 196.658739 275.703957 
L 197.016216 262.47258 
L 197.731171 268.355484 
L 198.088649 268.817996 
L 198.446126 261.119285 
L 198.803604 257.263623 
L 199.161081 276.345594 
L 199.876036 268.353264 
L 200.233514 266.178737 
L 200.590991 257.472703 
L 200.948468 258.799009 
L 201.305946 262.204505 
L 201.663423 257.437953 
L 202.020901 264.289237 
L 202.378378 273.45832 
L 202.735856 265.478105 
L 203.093333 266.895202 
L 203.450811 263.787895 
L 203.808288 270.635247 
L 204.165766 262.968862 
L 204.523243 264.438527 
L 204.880721 263.760486 
L 205.238198 269.107194 
L 205.595676 250.28294 
L 205.953153 269.215257 
L 206.310631 272.574629 
L 206.668108 272.970672 
L 207.383063 269.01287 
L 207.740541 267.830365 
L 208.098018 264.335373 
L 208.455495 256.975459 
L 208.812973 259.372443 
L 209.17045 266.042643 
L 209.527928 260.060648 
L 209.885405 260.921552 
L 210.242883 278.001539 
L 210.60036 259.565667 
L 210.957838 262.569375 
L 211.315315 268.68596 
L 211.672793 252.425679 
L 212.03027 259.227991 
L 212.387748 269.183365 
L 212.745225 265.176535 
L 213.102703 257.51999 
L 213.46018 264.516871 
L 213.817658 264.622978 
L 214.175135 256.752239 
L 214.532613 264.861592 
L 214.89009 276.731451 
L 215.247568 259.879506 
L 215.605045 259.166877 
L 215.962523 257.715293 
L 216.32 253.894768 
L 216.677477 270.453478 
L 217.034955 260.916268 
L 217.392432 268.604944 
L 217.74991 254.380148 
L 218.107387 260.219561 
L 218.464865 253.319235 
L 218.822342 261.483597 
L 219.17982 261.088606 
L 219.537297 273.572455 
L 219.894775 274.942324 
L 220.252252 262.306337 
L 220.60973 264.918972 
L 220.967207 262.497471 
L 221.324685 249.193271 
L 221.682162 267.743792 
L 222.03964 272.025379 
L 222.397117 253.373749 
L 222.754595 256.804509 
L 223.112072 245.450394 
L 223.46955 259.224124 
L 223.827027 248.267175 
L 224.184505 250.277703 
L 224.541982 257.912528 
L 224.899459 257.439258 
L 225.256937 261.429067 
L 225.971892 250.413749 
L 226.329369 246.43819 
L 226.686847 258.858208 
L 227.044324 245.453621 
L 227.401802 259.331185 
L 227.759279 246.228064 
L 228.116757 262.605481 
L 228.474234 255.764654 
L 228.831712 259.747393 
L 229.189189 266.76121 
L 229.546667 251.227781 
L 229.904144 250.409481 
L 230.261622 252.217496 
L 230.619099 248.561034 
L 230.976577 255.161705 
L 231.334054 242.71711 
L 231.691532 271.569881 
L 232.049009 257.024352 
L 232.406486 263.304953 
L 232.763964 255.829315 
L 233.121441 250.98649 
L 233.478919 259.947437 
L 233.836396 265.907179 
L 234.193874 251.493278 
L 234.551351 244.522152 
L 234.908829 234.119972 
L 235.266306 268.76817 
L 235.623784 253.498851 
L 235.981261 246.174356 
L 236.338739 259.998906 
L 236.696216 257.063622 
L 237.053694 256.017241 
L 237.411171 238.358019 
L 237.768649 254.090753 
L 238.126126 249.102569 
L 238.483604 269.892859 
L 238.841081 266.273491 
L 239.198559 238.38979 
L 239.556036 255.269164 
L 239.913514 249.93039 
L 240.270991 249.13495 
L 240.628468 250.859324 
L 240.985946 257.55288 
L 241.343423 252.108118 
L 241.700901 254.597861 
L 242.058378 244.086859 
L 242.773333 260.292824 
L 243.130811 258.818027 
L 243.488288 243.647944 
L 243.845766 246.021106 
L 244.203243 241.261088 
L 244.560721 255.546545 
L 244.918198 248.662448 
L 245.275676 251.685944 
L 245.633153 248.049504 
L 245.990631 249.975574 
L 246.348108 241.520759 
L 246.705586 248.422608 
L 247.063063 235.13199 
L 247.420541 241.530955 
L 247.778018 242.189638 
L 248.135495 233.723815 
L 248.492973 232.486251 
L 248.85045 235.24035 
L 249.207928 230.731534 
L 249.565405 247.343306 
L 249.922883 243.078209 
L 250.28036 259.9844 
L 250.637838 246.660518 
L 250.995315 252.546064 
L 251.71027 247.400983 
L 252.067748 241.63 
L 252.425225 246.63857 
L 252.782703 259.495972 
L 253.497658 248.41779 
L 253.855135 230.95884 
L 254.212613 237.573862 
L 254.57009 264.835949 
L 254.927568 227.324116 
L 255.285045 238.723259 
L 255.642523 218.962721 
L 256 239.608779 
L 256.357477 241.838735 
L 256.714955 225.930991 
L 257.072432 251.436164 
L 257.42991 235.467459 
L 257.787387 241.874082 
L 258.144865 215.984141 
L 258.502342 237.702564 
L 258.85982 225.37541 
L 259.217297 246.61349 
L 259.574775 253.516572 
L 259.932252 234.040814 
L 260.28973 250.280342 
L 260.647207 253.574739 
L 261.004685 273.283231 
L 261.362162 235.566359 
L 261.71964 242.769252 
L 262.077117 227.59767 
L 262.434595 234.090979 
L 262.792072 249.49339 
L 263.14955 256.719329 
L 263.507027 229.836186 
L 263.864505 249.440868 
L 264.221982 247.031228 
L 264.579459 230.802683 
L 264.936937 236.156267 
L 265.294414 221.970183 
L 265.651892 227.471286 
L 266.009369 228.443297 
L 266.366847 243.230879 
L 266.724324 243.68275 
L 267.081802 229.687162 
L 267.439279 236.940873 
L 267.796757 213.768547 
L 268.154234 229.877634 
L 268.511712 237.337391 
L 268.869189 241.029646 
L 269.226667 217.236559 
L 269.584144 232.000718 
L 269.941622 230.17434 
L 270.299099 236.071618 
L 270.656577 247.812879 
L 271.014054 221.708879 
L 271.371532 208.374655 
L 271.729009 227.441405 
L 272.086486 226.415575 
L 272.443964 232.877578 
L 272.801441 214.948889 
L 273.158919 239.563677 
L 273.516396 218.626208 
L 273.873874 207.405909 
L 274.231351 216.500403 
L 274.588829 237.140164 
L 274.946306 248.528398 
L 275.303784 247.706282 
L 275.661261 251.28008 
L 276.018739 237.250665 
L 276.376216 258.428981 
L 276.733694 249.723714 
L 277.091171 204.914477 
L 277.448649 210.716605 
L 277.806126 204.997002 
L 278.163604 230.788526 
L 278.521081 241.979508 
L 278.878559 249.175696 
L 279.236036 212.577743 
L 279.593514 247.84311 
L 279.950991 225.056156 
L 280.308468 216.035431 
L 280.665946 223.555778 
L 281.023423 210.470966 
L 281.738378 226.872745 
L 282.095856 210.919409 
L 282.453333 229.748013 
L 282.810811 220.654304 
L 283.168288 207.389648 
L 283.525766 200.933175 
L 283.883243 205.734061 
L 284.240721 225.693257 
L 284.598198 237.271705 
L 284.955676 230.867344 
L 285.313153 215.826613 
L 285.670631 213.193993 
L 286.028108 237.947465 
L 286.385586 194.227656 
L 286.743063 228.701775 
L 287.100541 204.245846 
L 287.458018 262.832419 
L 287.815495 203.120471 
L 288.53045 252.191904 
L 288.887928 247.573186 
L 289.245405 215.231855 
L 289.602883 205.060944 
L 289.96036 200.237747 
L 290.317838 229.390349 
L 290.675315 218.440568 
L 291.032793 247.462406 
L 291.39027 225.169446 
L 291.747748 215.608052 
L 292.105225 227.920272 
L 292.462703 225.851785 
L 292.82018 199.238322 
L 293.177658 227.942299 
L 293.535135 216.543191 
L 293.892613 216.97169 
L 294.25009 247.699757 
L 294.607568 225.290014 
L 294.965045 213.093119 
L 295.322523 247.692917 
L 295.68 222.084912 
L 296.037477 224.893391 
L 296.394955 216.381252 
L 296.752432 198.390456 
L 297.10991 195.982994 
L 297.467387 236.664203 
L 297.824865 226.919071 
L 298.182342 241.164935 
L 298.53982 202.418147 
L 298.897297 216.143596 
L 299.254775 219.540103 
L 299.612252 225.406685 
L 299.96973 217.746229 
L 300.327207 215.092242 
L 300.684685 209.730645 
L 301.042162 200.773791 
L 301.39964 220.941764 
L 301.757117 206.55294 
L 302.114595 224.892134 
L 302.472072 193.952269 
L 302.82955 185.947928 
L 303.187027 199.374792 
L 303.544505 220.243723 
L 304.259459 192.176839 
L 304.616937 198.947024 
L 304.974414 256.854623 
L 305.331892 199.166836 
L 305.689369 214.343653 
L 306.761802 182.573819 
L 307.119279 217.110945 
L 307.476757 219.903083 
L 307.834234 237.552307 
L 308.191712 230.443313 
L 308.906667 183.196079 
L 309.264144 222.771234 
L 309.621622 199.605297 
L 310.336577 222.443835 
L 310.694054 194.966729 
L 311.051532 206.247119 
L 311.409009 173.913604 
L 311.766486 245.488446 
L 312.123964 210.758781 
L 312.481441 213.275434 
L 312.838919 228.569425 
L 313.196396 205.227738 
L 313.553874 225.513203 
L 313.911351 220.464208 
L 314.268829 192.299204 
L 314.626306 190.504546 
L 314.983784 201.379209 
L 315.341261 203.568719 
L 315.698739 200.372027 
L 316.056216 213.539197 
L 316.413694 193.36829 
L 316.771171 205.692778 
L 317.128649 204.030199 
L 317.486126 214.208963 
L 317.843604 171.563848 
L 318.201081 208.8437 
L 318.558559 231.035546 
L 318.916036 190.26352 
L 319.273514 229.778244 
L 319.630991 203.331563 
L 319.988468 168.481746 
L 320.345946 194.721746 
L 320.703423 197.088149 
L 321.060901 200.897064 
L 321.418378 209.600794 
L 321.775856 184.079685 
L 322.133333 212.908228 
L 322.490811 202.836742 
L 322.848288 174.065652 
L 323.205766 222.774518 
L 323.563243 194.882379 
L 323.920721 188.823552 
L 324.278198 187.262546 
L 324.635676 174.629931 
L 324.993153 205.658589 
L 325.708108 210.227923 
L 326.065586 193.202184 
L 326.423063 184.38292 
L 326.780541 158.697592 
L 327.138018 222.554168 
L 327.495495 207.024306 
L 327.852973 204.065978 
L 328.21045 225.076059 
L 328.567928 212.459752 
L 328.925405 211.056014 
L 329.282883 216.747262 
L 329.64036 187.805464 
L 329.997838 182.119142 
L 330.355315 219.435865 
L 330.712793 205.868557 
L 331.07027 203.910027 
L 331.785225 191.19654 
L 332.142703 217.60807 
L 332.50018 183.454086 
L 332.857658 188.271332 
L 333.215135 170.791314 
L 333.572613 180.296321 
L 333.93009 142.420955 
L 334.287568 196.127435 
L 334.645045 148.369403 
L 335.002523 177.734171 
L 335.36 175.966489 
L 335.717477 182.972493 
L 336.074955 193.879355 
L 336.432432 169.417317 
L 337.147387 225.358345 
L 337.862342 171.954255 
L 338.577297 227.668218 
L 339.292252 195.172475 
L 340.007207 181.432435 
L 340.364685 196.576226 
L 340.722162 191.209101 
L 341.07964 203.73522 
L 341.794595 182.87596 
L 342.152072 188.976308 
L 342.50955 176.079092 
L 342.867027 223.264819 
L 343.224505 226.712308 
L 343.581982 178.711107 
L 343.939459 201.378953 
L 344.296937 182.506969 
L 344.654414 205.454734 
L 345.011892 163.873363 
L 345.369369 200.27355 
L 345.726847 172.113316 
L 346.084324 210.467552 
L 346.441802 187.837551 
L 346.799279 182.792909 
L 347.156757 201.98096 
L 347.514234 188.046934 
L 347.871712 205.463008 
L 348.586667 155.788407 
L 348.944144 207.126598 
L 349.301622 169.603735 
L 349.659099 172.850092 
L 350.374054 203.664419 
L 350.731532 160.925017 
L 351.089009 146.888582 
L 351.446486 185.780675 
L 351.803964 175.786783 
L 352.161441 215.529328 
L 352.518919 132.86274 
L 352.876396 220.03727 
L 353.233874 159.411738 
L 353.591351 194.590903 
L 353.948829 192.168423 
L 354.306306 164.150611 
L 354.663784 161.809473 
L 355.021261 182.513785 
L 355.378739 132.482647 
L 355.736216 135.672953 
L 356.093694 118.873939 
L 356.451171 207.670527 
L 356.808649 185.386987 
L 357.166126 173.908134 
L 357.523604 185.149793 
L 358.238559 122.947542 
L 358.596036 175.117868 
L 358.953514 188.365749 
L 359.310991 156.553992 
L 359.668468 154.136391 
L 360.025946 167.460468 
L 360.383423 204.651552 
L 360.740901 131.539341 
L 361.098378 198.462495 
L 361.455856 158.739045 
L 361.813333 150.068367 
L 362.170811 182.164104 
L 362.528288 165.170701 
L 362.885766 203.269854 
L 363.243243 169.356369 
L 363.958198 137.185999 
L 364.315676 169.746373 
L 364.673153 179.087635 
L 365.030631 172.426875 
L 365.388108 163.025988 
L 365.745586 168.550482 
L 366.103063 197.400569 
L 366.460541 179.554952 
L 366.818018 215.10481 
L 367.175495 136.725669 
L 367.532973 130.854426 
L 368.605405 179.341193 
L 368.962883 158.991922 
L 369.32036 173.280293 
L 369.677838 165.904957 
L 370.035315 211.265749 
L 370.392793 123.749621 
L 370.75027 201.601083 
L 371.465225 150.458354 
L 371.822703 144.590434 
L 372.18018 188.136524 
L 372.895135 134.220514 
L 373.252613 194.370429 
L 373.61009 164.066508 
L 373.967568 172.211412 
L 374.325045 200.816205 
L 374.682523 149.674604 
L 375.04 163.469226 
L 375.397477 162.097245 
L 375.754955 187.212887 
L 376.112432 168.627571 
L 376.46991 191.42194 
L 376.827387 155.614565 
L 377.184865 189.452642 
L 377.542342 163.845995 
L 377.89982 172.940211 
L 378.257297 175.23814 
L 378.972252 138.84408 
L 379.32973 164.947218 
L 379.687207 127.182077 
L 380.044685 201.906733 
L 380.402162 157.021573 
L 380.75964 127.850299 
L 381.117117 128.390098 
L 381.474595 129.578906 
L 381.832072 193.414568 
L 382.18955 159.974915 
L 382.547027 160.465415 
L 382.904505 160.232105 
L 383.261982 170.061539 
L 383.619459 144.50138 
L 383.976937 156.476284 
L 384.334414 133.663638 
L 384.691892 143.478144 
L 385.049369 172.218512 
L 385.406847 185.186455 
L 385.764324 94.754886 
L 386.121802 87.933654 
L 386.479279 123.37695 
L 386.836757 173.172654 
L 387.909189 118.79512 
L 388.266667 159.80186 
L 388.624144 164.083882 
L 388.981622 177.295546 
L 389.339099 99.57966 
L 390.411532 180.866316 
L 390.769009 91.094194 
L 391.126486 105.818649 
L 391.483964 88.676172 
L 391.841441 142.45177 
L 392.198919 132.597375 
L 392.556396 114.862294 
L 392.913874 143.931476 
L 393.271351 160.26263 
L 393.628829 125.368786 
L 393.986306 134.756192 
L 394.343784 120.318463 
L 394.701261 153.938101 
L 395.058739 103.982653 
L 395.416216 114.149412 
L 395.773694 85.742219 
L 396.131171 116.977739 
L 396.488649 115.533931 
L 396.846126 137.361037 
L 397.203604 110.252549 
L 397.561081 103.625613 
L 397.918559 153.275305 
L 398.276036 152.897383 
L 398.633514 151.607861 
L 398.990991 129.618324 
L 399.348468 136.472889 
L 399.705946 63.324568 
L 400.063423 127.676312 
L 400.420901 149.641969 
L 400.778378 130.083182 
L 401.135856 129.719353 
L 401.493333 115.5675 
L 401.850811 158.050907 
L 402.208288 116.136668 
L 402.565766 102.727231 
L 402.923243 132.209508 
L 403.280721 69.336172 
L 403.638198 168.34137 
L 403.995676 59.374332 
L 404.353153 140.825539 
L 404.710631 118.074866 
L 405.068108 139.999414 
L 405.425586 137.605647 
L 405.783063 89.244306 
L 406.140541 123.709118 
L 406.855495 164.300887 
L 407.212973 101.147283 
L 407.927928 128.93687 
L 408.285405 166.950182 
L 408.642883 74.037141 
L 409.00036 109.789914 
L 409.357838 131.599804 
L 409.715315 125.732466 
L 410.072793 123.757365 
L 410.43027 136.17283 
L 411.145225 116.533456 
L 411.502703 155.939415 
L 411.86018 91.678373 
L 412.217658 129.21835 
L 412.575135 96.968504 
L 412.932613 95.198485 
L 413.29009 55.995634 
L 413.647568 158.463357 
L 414.005045 53.568 
L 414.362523 110.756157 
L 414.72 123.086813 
L 414.72 123.086813 
" style="fill:none;stroke:#1f77b4;stroke-linecap:square;stroke-width:1.5;"/>
   </g>
   <g id="patch_3">
    <path d="M 57.6 307.584 
L 57.6 41.472 
" style="fill:none;stroke:#000000;stroke-linecap:square;stroke-linejoin:miter;stroke-width:0.8;"/>
   </g>
   <g id="patch_4">
    <path d="M 414.72 307.584 
L 414.72 41.472 
" style="fill:none;stroke:#000000;stroke-linecap:square;stroke-linejoin:miter;stroke-width:0.8;"/>
   </g>
   <g id="patch_5">
    <path d="M 57.6 307.584 
L 414.72 307.584 
" style="fill:none;stroke:#000000;stroke-linecap:square;stroke-linejoin:miter;stroke-width:0.8;"/>
   </g>
   <g id="patch_6">
    <path d="M 57.6 41.472 
L 414.72 41.472 
" style="fill:none;stroke:#000000;stroke-linecap:square;stroke-linejoin:miter;stroke-width:0.8;"/>
   </g>
   <g id="legend_1">
    <g id="patch_7">
     <path d="M 64.6 64.150125 
L 125.278125 64.150125 
Q 127.278125 64.150125 127.278125 62.150125 
L 127.278125 48.472 
Q 127.278125 46.472 125.278125 46.472 
L 64.6 46.472 
Q 62.6 46.472 62.6 48.472 
L 62.6 62.150125 
Q 62.6 64.150125 64.6 64.150125 
z
" style="fill:#ffffff;opacity:0.8;stroke:#cccccc;stroke-linejoin:miter;"/>
    </g>
    <g id="line2d_16">
     <path d="M 66.6 54.570438 
L 86.6 54.570438 
" style="fill:none;stroke:#1f77b4;stroke-linecap:square;stroke-width:1.5;"/>
    </g>
    <g id="line2d_17"/>
    <g id="text_15">
     <!-- Delay -->
     <defs>
      <path d="M 19.671875 64.796875 
L 19.671875 8.109375 
L 31.59375 8.109375 
Q 46.6875 8.109375 53.6875 14.9375 
Q 60.6875 21.78125 60.6875 36.53125 
Q 60.6875 51.171875 53.6875 57.984375 
Q 46.6875 64.796875 31.59375 64.796875 
z
M 9.8125 72.90625 
L 30.078125 72.90625 
Q 51.265625 72.90625 61.171875 64.09375 
Q 71.09375 55.28125 71.09375 36.53125 
Q 71.09375 17.671875 61.125 8.828125 
Q 51.171875 0 30.078125 0 
L 9.8125 0 
z
" id="DejaVuSans-44"/>
      <path d="M 56.203125 29.59375 
L 56.203125 25.203125 
L 14.890625 25.203125 
Q 15.484375 15.921875 20.484375 11.0625 
Q 25.484375 6.203125 34.421875 6.203125 
Q 39.59375 6.203125 44.453125 7.46875 
Q 49.3125 8.734375 54.109375 11.28125 
L 54.109375 2.78125 
Q 49.265625 0.734375 44.1875 -0.34375 
Q 39.109375 -1.421875 33.890625 -1.421875 
Q 20.796875 -1.421875 13.15625 6.1875 
Q 5.515625 13.8125 5.515625 26.8125 
Q 5.515625 40.234375 12.765625 48.109375 
Q 20.015625 56 32.328125 56 
Q 43.359375 56 49.78125 48.890625 
Q 56.203125 41.796875 56.203125 29.59375 
M 47.21875 32.234375 
Q 47.125 39.59375 43.09375 43.984375 
Q 39.0625 48.390625 32.421875 48.390625 
Q 24.90625 48.390625 20.390625 44.140625 
Q 15.875 39.890625 15.1875 32.171875 
z
" id="DejaVuSans-65"/>
      <path d="M 9.421875 75.984375 
L 18.40625 75.984375 
L 18.40625 0 
L 9.421875 0 
z
" id="DejaVuSans-6c"/>
      <path d="M 34.28125 27.484375 
Q 23.390625 27.484375 19.1875 25 
Q 14.984375 22.515625 14.984375 16.5 
Q 14.984375 11.71875 18.140625 8.90625 
Q 21.296875 6.109375 26.703125 6.109375 
Q 34.1875 6.109375 38.703125 11.40625 
Q 43.21875 16.703125 43.21875 25.484375 
L 43.21875 27.484375 
z
M 52.203125 31.203125 
L 52.203125 0 
L 43.21875 0 
L 43.21875 8.296875 
Q 40.140625 3.328125 35.546875 0.953125 
Q 30.953125 -1.421875 24.3125 -1.421875 
Q 15.921875 -1.421875 10.953125 3.296875 
Q 6 8.015625 6 15.921875 
Q 6 25.140625 12.171875 29.828125 
Q 18.359375 34.515625 30.609375 34.515625 
L 43.21875 34.515625 
L 43.21875 35.40625 
Q 43.21875 41.609375 39.140625 45 
Q 35.0625 48.390625 27.6875 48.390625 
Q 23 48.390625 18.546875 47.265625 
Q 14.109375 46.140625 10.015625 43.890625 
L 10.015625 52.203125 
Q 14.9375 54.109375 19.578125 55.046875 
Q 24.21875 56 28.609375 56 
Q 40.484375 56 46.34375 49.84375 
Q 52.203125 43.703125 52.203125 31.203125 
" id="DejaVuSans-61"/>
      <path d="M 32.171875 -5.078125 
Q 28.375 -14.84375 24.75 -17.8125 
Q 21.140625 -20.796875 15.09375 -20.796875 
L 7.90625 -20.796875 
L 7.90625 -13.28125 
L 13.1875 -13.28125 
Q 16.890625 -13.28125 18.9375 -11.515625 
Q 21 -9.765625 23.484375 -3.21875 
L 25.09375 0.875 
L 2.984375 54.6875 
L 12.5 54.6875 
L 29.59375 11.921875 
L 46.6875 54.6875 
L 56.203125 54.6875 
z
" id="DejaVuSans-79"/>
     </defs>
     <g transform="translate(94.6 58.070438)scale(0.1 -0.1)">
      <use xlink:href="#DejaVuSans-44"/>
      <use x="77.001953" xlink:href="#DejaVuSans-65"/>
      <use x="138.525391" xlink:href="#DejaVuSans-6c"/>
      <use x="166.308594" xlink:href="#DejaVuSans-61"/>
      <use x="227.587891" xlink:href="#DejaVuSans-79"/>
     </g>
    </g>
   </g>
  </g>
 </g>
 <defs>
  <clipPath id="p65a86a55c4">
   <rect height="266.112" width="357.12" x="57.6" y="41.472"/>
  </clipPath>
 </defs>
</svg>
