<?xml version="1.0" encoding="utf-8" standalone="no"?>
<!DOCTYPE svg PUBLIC "-//W3C//DTD SVG 1.1//EN"
  "http://www.w3.org/Graphics/SVG/1.1/DTD/svg11.dtd">
<!-- Created with matplotlib (http://matplotlib.org/) -->
<svg height="345pt" version="1.1" viewBox="0 0 460 345" width="460pt" xmlns="http://www.w3.org/2000/svg" xmlns:xlink="http://www.w3.org/1999/xlink">
 <defs>
  <style type="text/css">
*{stroke-linecap:butt;stroke-linejoin:round;}
  </style>
 </defs>
 <g id="figure_1">
  <g id="patch_1">
   <path d="M 0 345.6 
L 460.8 345.6 
L 460.8 0 
L 0 0 
z
" style="fill:#ffffff;"/>
  </g>
  <g id="axes_1">
   <g id="patch_2">
    <path d="M 57.6 307.584 
L 414.72 307.584 
L 414.72 41.472 
L 57.6 41.472 
z
" style="fill:#ffffff;"/>
   </g>
   <g id="matplotlib.axis_1">
    <g id="xtick_1">
     <g id="line2d_1">
      <defs>
       <path d="M 0 0 
L 0 3.5 
" id="m3f15e63adc" style="stroke:#000000;stroke-width:0.8;"/>
      </defs>
      <g>
       <use style="stroke:#000000;stroke-width:0.8;" x="57.6" xlink:href="#m3f15e63adc" y="307.584"/>
      </g>
     </g>
     <g id="text_1">
      <!-- 0 -->
      <defs>
       <path d="M 31.78125 66.40625 
Q 24.171875 66.40625 20.328125 58.90625 
Q 16.5 51.421875 16.5 36.375 
Q 16.5 21.390625 20.328125 13.890625 
Q 24.171875 6.390625 31.78125 6.390625 
Q 39.453125 6.390625 43.28125 13.890625 
Q 47.125 21.390625 47.125 36.375 
Q 47.125 51.421875 43.28125 58.90625 
Q 39.453125 66.40625 31.78125 66.40625 
M 31.78125 74.21875 
Q 44.046875 74.21875 50.515625 64.515625 
Q 56.984375 54.828125 56.984375 36.375 
Q 56.984375 17.96875 50.515625 8.265625 
Q 44.046875 -1.421875 31.78125 -1.421875 
Q 19.53125 -1.421875 13.0625 8.265625 
Q 6.59375 17.96875 6.59375 36.375 
Q 6.59375 54.828125 13.0625 64.515625 
Q 19.53125 74.21875 31.78125 74.21875 
" id="DejaVuSans-30"/>
      </defs>
      <g transform="translate(54.41875 322.182437)scale(0.1 -0.1)">
       <use xlink:href="#DejaVuSans-30"/>
      </g>
     </g>
    </g>
    <g id="xtick_2">
     <g id="line2d_2">
      <g>
       <use style="stroke:#000000;stroke-width:0.8;" x="129.095495" xlink:href="#m3f15e63adc" y="307.584"/>
      </g>
     </g>
     <g id="text_2">
      <!-- 200 -->
      <defs>
       <path d="M 19.1875 8.296875 
L 53.609375 8.296875 
L 53.609375 0 
L 7.328125 0 
L 7.328125 8.296875 
Q 12.9375 14.109375 22.625 23.890625 
Q 32.328125 33.6875 34.8125 36.53125 
Q 39.546875 41.84375 41.421875 45.53125 
Q 43.3125 49.21875 43.3125 52.78125 
Q 43.3125 58.59375 39.234375 62.25 
Q 35.15625 65.921875 28.609375 65.921875 
Q 23.96875 65.921875 18.8125 64.3125 
Q 13.671875 62.703125 7.8125 59.421875 
L 7.8125 69.390625 
Q 13.765625 71.78125 18.9375 73 
Q 24.125 74.21875 28.421875 74.21875 
Q 39.75 74.21875 46.484375 68.546875 
Q 53.21875 62.890625 53.21875 53.421875 
Q 53.21875 48.921875 51.53125 44.890625 
Q 49.859375 40.875 45.40625 35.40625 
Q 44.1875 33.984375 37.640625 27.21875 
Q 31.109375 20.453125 19.1875 8.296875 
" id="DejaVuSans-32"/>
      </defs>
      <g transform="translate(119.551745 322.182437)scale(0.1 -0.1)">
       <use xlink:href="#DejaVuSans-32"/>
       <use x="63.623047" xlink:href="#DejaVuSans-30"/>
       <use x="127.246094" xlink:href="#DejaVuSans-30"/>
      </g>
     </g>
    </g>
    <g id="xtick_3">
     <g id="line2d_3">
      <g>
       <use style="stroke:#000000;stroke-width:0.8;" x="200.590991" xlink:href="#m3f15e63adc" y="307.584"/>
      </g>
     </g>
     <g id="text_3">
      <!-- 400 -->
      <defs>
       <path d="M 37.796875 64.3125 
L 12.890625 25.390625 
L 37.796875 25.390625 
z
M 35.203125 72.90625 
L 47.609375 72.90625 
L 47.609375 25.390625 
L 58.015625 25.390625 
L 58.015625 17.1875 
L 47.609375 17.1875 
L 47.609375 0 
L 37.796875 0 
L 37.796875 17.1875 
L 4.890625 17.1875 
L 4.890625 26.703125 
z
" id="DejaVuSans-34"/>
      </defs>
      <g transform="translate(191.047241 322.182437)scale(0.1 -0.1)">
       <use xlink:href="#DejaVuSans-34"/>
       <use x="63.623047" xlink:href="#DejaVuSans-30"/>
       <use x="127.246094" xlink:href="#DejaVuSans-30"/>
      </g>
     </g>
    </g>
    <g id="xtick_4">
     <g id="line2d_4">
      <g>
       <use style="stroke:#000000;stroke-width:0.8;" x="272.086486" xlink:href="#m3f15e63adc" y="307.584"/>
      </g>
     </g>
     <g id="text_4">
      <!-- 600 -->
      <defs>
       <path d="M 33.015625 40.375 
Q 26.375 40.375 22.484375 35.828125 
Q 18.609375 31.296875 18.609375 23.390625 
Q 18.609375 15.53125 22.484375 10.953125 
Q 26.375 6.390625 33.015625 6.390625 
Q 39.65625 6.390625 43.53125 10.953125 
Q 47.40625 15.53125 47.40625 23.390625 
Q 47.40625 31.296875 43.53125 35.828125 
Q 39.65625 40.375 33.015625 40.375 
M 52.59375 71.296875 
L 52.59375 62.3125 
Q 48.875 64.0625 45.09375 64.984375 
Q 41.3125 65.921875 37.59375 65.921875 
Q 27.828125 65.921875 22.671875 59.328125 
Q 17.53125 52.734375 16.796875 39.40625 
Q 19.671875 43.65625 24.015625 45.921875 
Q 28.375 48.1875 33.59375 48.1875 
Q 44.578125 48.1875 50.953125 41.515625 
Q 57.328125 34.859375 57.328125 23.390625 
Q 57.328125 12.15625 50.6875 5.359375 
Q 44.046875 -1.421875 33.015625 -1.421875 
Q 20.359375 -1.421875 13.671875 8.265625 
Q 6.984375 17.96875 6.984375 36.375 
Q 6.984375 53.65625 15.1875 63.9375 
Q 23.390625 74.21875 37.203125 74.21875 
Q 40.921875 74.21875 44.703125 73.484375 
Q 48.484375 72.75 52.59375 71.296875 
" id="DejaVuSans-36"/>
      </defs>
      <g transform="translate(262.542736 322.182437)scale(0.1 -0.1)">
       <use xlink:href="#DejaVuSans-36"/>
       <use x="63.623047" xlink:href="#DejaVuSans-30"/>
       <use x="127.246094" xlink:href="#DejaVuSans-30"/>
      </g>
     </g>
    </g>
    <g id="xtick_5">
     <g id="line2d_5">
      <g>
       <use style="stroke:#000000;stroke-width:0.8;" x="343.581982" xlink:href="#m3f15e63adc" y="307.584"/>
      </g>
     </g>
     <g id="text_5">
      <!-- 800 -->
      <defs>
       <path d="M 31.78125 34.625 
Q 24.75 34.625 20.71875 30.859375 
Q 16.703125 27.09375 16.703125 20.515625 
Q 16.703125 13.921875 20.71875 10.15625 
Q 24.75 6.390625 31.78125 6.390625 
Q 38.8125 6.390625 42.859375 10.171875 
Q 46.921875 13.96875 46.921875 20.515625 
Q 46.921875 27.09375 42.890625 30.859375 
Q 38.875 34.625 31.78125 34.625 
M 21.921875 38.8125 
Q 15.578125 40.375 12.03125 44.71875 
Q 8.5 49.078125 8.5 55.328125 
Q 8.5 64.0625 14.71875 69.140625 
Q 20.953125 74.21875 31.78125 74.21875 
Q 42.671875 74.21875 48.875 69.140625 
Q 55.078125 64.0625 55.078125 55.328125 
Q 55.078125 49.078125 51.53125 44.71875 
Q 48 40.375 41.703125 38.8125 
Q 48.828125 37.15625 52.796875 32.3125 
Q 56.78125 27.484375 56.78125 20.515625 
Q 56.78125 9.90625 50.3125 4.234375 
Q 43.84375 -1.421875 31.78125 -1.421875 
Q 19.734375 -1.421875 13.25 4.234375 
Q 6.78125 9.90625 6.78125 20.515625 
Q 6.78125 27.484375 10.78125 32.3125 
Q 14.796875 37.15625 21.921875 38.8125 
M 18.3125 54.390625 
Q 18.3125 48.734375 21.84375 45.5625 
Q 25.390625 42.390625 31.78125 42.390625 
Q 38.140625 42.390625 41.71875 45.5625 
Q 45.3125 48.734375 45.3125 54.390625 
Q 45.3125 60.0625 41.71875 63.234375 
Q 38.140625 66.40625 31.78125 66.40625 
Q 25.390625 66.40625 21.84375 63.234375 
Q 18.3125 60.0625 18.3125 54.390625 
" id="DejaVuSans-38"/>
      </defs>
      <g transform="translate(334.038232 322.182437)scale(0.1 -0.1)">
       <use xlink:href="#DejaVuSans-38"/>
       <use x="63.623047" xlink:href="#DejaVuSans-30"/>
       <use x="127.246094" xlink:href="#DejaVuSans-30"/>
      </g>
     </g>
    </g>
    <g id="xtick_6">
     <g id="line2d_6">
      <g>
       <use style="stroke:#000000;stroke-width:0.8;" x="415.077477" xlink:href="#m3f15e63adc" y="307.584"/>
      </g>
     </g>
     <g id="text_6">
      <!-- 1000 -->
      <defs>
       <path d="M 12.40625 8.296875 
L 28.515625 8.296875 
L 28.515625 63.921875 
L 10.984375 60.40625 
L 10.984375 69.390625 
L 28.421875 72.90625 
L 38.28125 72.90625 
L 38.28125 8.296875 
L 54.390625 8.296875 
L 54.390625 0 
L 12.40625 0 
z
" id="DejaVuSans-31"/>
      </defs>
      <g transform="translate(402.352477 322.182437)scale(0.1 -0.1)">
       <use xlink:href="#DejaVuSans-31"/>
       <use x="63.623047" xlink:href="#DejaVuSans-30"/>
       <use x="127.246094" xlink:href="#DejaVuSans-30"/>
       <use x="190.869141" xlink:href="#DejaVuSans-30"/>
      </g>
     </g>
    </g>
   </g>
   <g id="matplotlib.axis_2">
    <g id="ytick_1">
     <g id="line2d_7">
      <defs>
       <path d="M 0 0 
L -3.5 0 
" id="m6cd6f2457c" style="stroke:#000000;stroke-width:0.8;"/>
      </defs>
      <g>
       <use style="stroke:#000000;stroke-width:0.8;" x="57.6" xlink:href="#m6cd6f2457c" y="295.782019"/>
      </g>
     </g>
     <g id="text_7">
      <!-- 0 -->
      <g transform="translate(44.2375 299.581238)scale(0.1 -0.1)">
       <use xlink:href="#DejaVuSans-30"/>
      </g>
     </g>
    </g>
    <g id="ytick_2">
     <g id="line2d_8">
      <g>
       <use style="stroke:#000000;stroke-width:0.8;" x="57.6" xlink:href="#m6cd6f2457c" y="262.59698"/>
      </g>
     </g>
     <g id="text_8">
      <!-- 250 -->
      <defs>
       <path d="M 10.796875 72.90625 
L 49.515625 72.90625 
L 49.515625 64.59375 
L 19.828125 64.59375 
L 19.828125 46.734375 
Q 21.96875 47.46875 24.109375 47.828125 
Q 26.265625 48.1875 28.421875 48.1875 
Q 40.625 48.1875 47.75 41.5 
Q 54.890625 34.8125 54.890625 23.390625 
Q 54.890625 11.625 47.5625 5.09375 
Q 40.234375 -1.421875 26.90625 -1.421875 
Q 22.3125 -1.421875 17.546875 -0.640625 
Q 12.796875 0.140625 7.71875 1.703125 
L 7.71875 11.625 
Q 12.109375 9.234375 16.796875 8.0625 
Q 21.484375 6.890625 26.703125 6.890625 
Q 35.15625 6.890625 40.078125 11.328125 
Q 45.015625 15.765625 45.015625 23.390625 
Q 45.015625 31 40.078125 35.4375 
Q 35.15625 39.890625 26.703125 39.890625 
Q 22.75 39.890625 18.8125 39.015625 
Q 14.890625 38.140625 10.796875 36.28125 
z
" id="DejaVuSans-35"/>
      </defs>
      <g transform="translate(31.5125 266.396199)scale(0.1 -0.1)">
       <use xlink:href="#DejaVuSans-32"/>
       <use x="63.623047" xlink:href="#DejaVuSans-35"/>
       <use x="127.246094" xlink:href="#DejaVuSans-30"/>
      </g>
     </g>
    </g>
    <g id="ytick_3">
     <g id="line2d_9">
      <g>
       <use style="stroke:#000000;stroke-width:0.8;" x="57.6" xlink:href="#m6cd6f2457c" y="229.41194"/>
      </g>
     </g>
     <g id="text_9">
      <!-- 500 -->
      <g transform="translate(31.5125 233.211159)scale(0.1 -0.1)">
       <use xlink:href="#DejaVuSans-35"/>
       <use x="63.623047" xlink:href="#DejaVuSans-30"/>
       <use x="127.246094" xlink:href="#DejaVuSans-30"/>
      </g>
     </g>
    </g>
    <g id="ytick_4">
     <g id="line2d_10">
      <g>
       <use style="stroke:#000000;stroke-width:0.8;" x="57.6" xlink:href="#m6cd6f2457c" y="196.226901"/>
      </g>
     </g>
     <g id="text_10">
      <!-- 750 -->
      <defs>
       <path d="M 8.203125 72.90625 
L 55.078125 72.90625 
L 55.078125 68.703125 
L 28.609375 0 
L 18.3125 0 
L 43.21875 64.59375 
L 8.203125 64.59375 
z
" id="DejaVuSans-37"/>
      </defs>
      <g transform="translate(31.5125 200.02612)scale(0.1 -0.1)">
       <use xlink:href="#DejaVuSans-37"/>
       <use x="63.623047" xlink:href="#DejaVuSans-35"/>
       <use x="127.246094" xlink:href="#DejaVuSans-30"/>
      </g>
     </g>
    </g>
    <g id="ytick_5">
     <g id="line2d_11">
      <g>
       <use style="stroke:#000000;stroke-width:0.8;" x="57.6" xlink:href="#m6cd6f2457c" y="163.041861"/>
      </g>
     </g>
     <g id="text_11">
      <!-- 1000 -->
      <g transform="translate(25.15 166.84108)scale(0.1 -0.1)">
       <use xlink:href="#DejaVuSans-31"/>
       <use x="63.623047" xlink:href="#DejaVuSans-30"/>
       <use x="127.246094" xlink:href="#DejaVuSans-30"/>
       <use x="190.869141" xlink:href="#DejaVuSans-30"/>
      </g>
     </g>
    </g>
    <g id="ytick_6">
     <g id="line2d_12">
      <g>
       <use style="stroke:#000000;stroke-width:0.8;" x="57.6" xlink:href="#m6cd6f2457c" y="129.856822"/>
      </g>
     </g>
     <g id="text_12">
      <!-- 1250 -->
      <g transform="translate(25.15 133.656041)scale(0.1 -0.1)">
       <use xlink:href="#DejaVuSans-31"/>
       <use x="63.623047" xlink:href="#DejaVuSans-32"/>
       <use x="127.246094" xlink:href="#DejaVuSans-35"/>
       <use x="190.869141" xlink:href="#DejaVuSans-30"/>
      </g>
     </g>
    </g>
    <g id="ytick_7">
     <g id="line2d_13">
      <g>
       <use style="stroke:#000000;stroke-width:0.8;" x="57.6" xlink:href="#m6cd6f2457c" y="96.671782"/>
      </g>
     </g>
     <g id="text_13">
      <!-- 1500 -->
      <g transform="translate(25.15 100.471001)scale(0.1 -0.1)">
       <use xlink:href="#DejaVuSans-31"/>
       <use x="63.623047" xlink:href="#DejaVuSans-35"/>
       <use x="127.246094" xlink:href="#DejaVuSans-30"/>
       <use x="190.869141" xlink:href="#DejaVuSans-30"/>
      </g>
     </g>
    </g>
    <g id="ytick_8">
     <g id="line2d_14">
      <g>
       <use style="stroke:#000000;stroke-width:0.8;" x="57.6" xlink:href="#m6cd6f2457c" y="63.486743"/>
      </g>
     </g>
     <g id="text_14">
      <!-- 1750 -->
      <g transform="translate(25.15 67.285962)scale(0.1 -0.1)">
       <use xlink:href="#DejaVuSans-31"/>
       <use x="63.623047" xlink:href="#DejaVuSans-37"/>
       <use x="127.246094" xlink:href="#DejaVuSans-35"/>
       <use x="190.869141" xlink:href="#DejaVuSans-30"/>
      </g>
     </g>
    </g>
   </g>
   <g id="line2d_15">
    <path clip-path="url(#pe4bdf7bd03)" d="M 57.6 294.825759 
L 57.957477 293.682999 
L 58.314955 295.407692 
L 58.672432 290.71254 
L 59.02991 295.488 
L 59.387387 293.733972 
L 59.744865 289.138773 
L 60.102342 289.06112 
L 60.45982 289.129879 
L 60.817297 290.693027 
L 61.174775 285.818676 
L 61.532252 289.247752 
L 61.88973 288.851125 
L 62.604685 281.44064 
L 62.962162 287.00378 
L 63.31964 284.104337 
L 64.034595 282.990249 
L 64.392072 283.643994 
L 64.74955 280.776541 
L 65.107027 279.290382 
L 65.464505 279.321311 
L 65.821982 280.376728 
L 66.179459 279.512855 
L 66.536937 280.634111 
L 66.894414 277.553477 
L 67.251892 277.042295 
L 67.609369 276.321383 
L 67.966847 274.889117 
L 68.681802 279.438786 
L 69.039279 275.19349 
L 69.396757 268.002823 
L 69.754234 272.069981 
L 70.469189 269.031692 
L 70.826667 270.223566 
L 71.184144 278.11457 
L 71.541622 270.898417 
L 71.899099 266.393216 
L 72.256577 269.937776 
L 72.614054 267.648672 
L 72.971532 260.559949 
L 73.329009 269.734153 
L 73.686486 265.080548 
L 74.043964 265.017762 
L 74.401441 262.64928 
L 74.758919 265.973359 
L 75.116396 267.734024 
L 75.473874 260.444067 
L 75.831351 266.289546 
L 76.188829 255.04672 
L 76.546306 257.298657 
L 76.903784 257.367549 
L 77.261261 252.680759 
L 77.618739 255.477727 
L 78.333694 263.974557 
L 78.691171 251.229776 
L 79.048649 254.286517 
L 79.406126 264.341717 
L 79.763604 258.13492 
L 80.121081 254.683543 
L 80.478559 250.073875 
L 80.836036 264.051148 
L 81.193514 253.441493 
L 81.550991 250.7993 
L 81.908468 245.107004 
L 82.265946 253.206808 
L 82.623423 264.492908 
L 82.980901 253.786219 
L 83.338378 256.808845 
L 83.695856 240.476231 
L 84.053333 251.648306 
L 84.410811 250.089008 
L 84.768288 247.183591 
L 85.125766 258.039479 
L 85.483243 243.180546 
L 85.840721 253.080174 
L 86.198198 251.905291 
L 86.555676 248.694439 
L 86.913153 255.055613 
L 87.270631 244.478745 
L 87.628108 251.460612 
L 87.985586 244.566752 
L 88.343063 256.584382 
L 89.058018 247.683225 
L 89.415495 249.359733 
L 89.772973 244.682899 
L 90.13045 253.100085 
L 90.487928 241.848897 
L 90.845405 251.797639 
L 91.202883 232.393019 
L 91.56036 248.536744 
L 91.917838 253.723964 
L 92.275315 247.821938 
L 92.632793 239.843724 
L 93.347748 248.687802 
L 93.705225 241.771775 
L 94.062703 244.239016 
L 94.42018 248.367766 
L 94.777658 238.298098 
L 95.135135 240.067524 
L 95.492613 231.592463 
L 95.85009 241.456915 
L 96.207568 246.800768 
L 96.565045 246.037114 
L 96.922523 246.576172 
L 97.637477 227.927109 
L 97.994955 240.669766 
L 98.352432 236.110009 
L 98.70991 227.244559 
L 99.067387 233.328837 
L 99.424865 233.923247 
L 99.782342 222.652546 
L 100.13982 234.297176 
L 100.497297 232.498149 
L 100.854775 223.946497 
L 101.212252 231.381406 
L 101.56973 241.179621 
L 101.927207 238.108412 
L 102.284685 228.528953 
L 102.642162 234.512348 
L 103.357117 239.083521 
L 103.714595 237.067065 
L 104.072072 228.827353 
L 104.42955 234.448102 
L 104.787027 238.148234 
L 105.144505 243.440186 
L 105.501982 231.471935 
L 105.859459 233.697191 
L 106.216937 226.86917 
L 106.574414 226.834923 
L 106.931892 232.774249 
L 107.289369 216.735919 
L 107.646847 237.29737 
L 108.004324 231.251719 
L 108.361802 237.638113 
L 108.719279 234.518587 
L 109.076757 238.859987 
L 109.434234 234.449828 
L 109.791712 231.453484 
L 110.149189 238.37814 
L 110.506667 228.741072 
L 110.864144 238.732822 
L 111.221622 232.638057 
L 111.579099 220.111767 
L 112.294054 232.469477 
L 112.651532 214.511725 
L 113.009009 212.503632 
L 113.366486 225.414205 
L 114.081441 220.358796 
L 114.438919 230.659831 
L 114.796396 217.920359 
L 115.153874 231.886881 
L 115.868829 223.192002 
L 116.226306 217.551607 
L 116.583784 227.31438 
L 116.941261 218.003853 
L 117.298739 219.857968 
L 117.656216 225.33841 
L 118.371171 216.684283 
L 118.728649 223.254257 
L 119.086126 213.11198 
L 119.443604 218.371411 
L 119.801081 219.125242 
L 120.158559 218.147345 
L 120.516036 217.549749 
L 120.873514 221.625535 
L 121.230991 215.175293 
L 121.588468 212.944064 
L 121.945946 218.245706 
L 122.303423 228.075513 
L 122.660901 215.840188 
L 123.018378 210.610093 
L 123.375856 213.894085 
L 123.733333 238.642956 
L 124.090811 210.634385 
L 124.448288 223.924993 
L 124.805766 213.788822 
L 125.163243 216.060272 
L 125.520721 224.71639 
L 125.878198 212.595223 
L 126.235676 212.829774 
L 126.593153 214.47323 
L 126.950631 199.053337 
L 127.665586 225.431992 
L 128.023063 224.834794 
L 128.380541 213.004062 
L 128.738018 225.79424 
L 129.095495 223.689512 
L 129.452973 206.449619 
L 129.81045 228.062504 
L 130.167928 210.453726 
L 130.525405 207.790958 
L 130.882883 210.949776 
L 131.24036 218.273448 
L 131.597838 207.61375 
L 131.955315 205.79813 
L 132.312793 219.190417 
L 132.67027 217.154449 
L 133.027748 234.618673 
L 133.385225 206.845184 
L 133.742703 220.516093 
L 134.10018 205.350132 
L 134.457658 209.042698 
L 134.815135 215.407057 
L 135.172613 209.160836 
L 135.53009 220.634763 
L 135.887568 199.70018 
L 136.245045 203.658226 
L 136.602523 213.639489 
L 136.96 218.897062 
L 137.317477 200.760641 
L 137.674955 218.841709 
L 138.032432 209.546579 
L 138.38991 217.422982 
L 138.747387 212.604647 
L 139.104865 220.619365 
L 139.462342 219.166922 
L 139.81982 202.019549 
L 140.177297 206.291525 
L 140.534775 217.784566 
L 141.24973 196.904805 
L 141.607207 218.689854 
L 142.322162 200.573477 
L 142.67964 209.016548 
L 143.037117 211.045481 
L 143.752072 192.136911 
L 144.10955 218.691978 
L 144.824505 187.972454 
L 145.539459 201.914684 
L 145.896937 203.979723 
L 146.254414 221.345852 
L 146.611892 214.461549 
L 146.969369 209.924889 
L 147.326847 210.548237 
L 147.684324 195.258296 
L 148.041802 191.928642 
L 148.399279 198.055131 
L 148.756757 216.506942 
L 149.114234 197.621336 
L 149.471712 205.78167 
L 149.829189 183.745211 
L 150.544144 213.295427 
L 151.259099 198.39999 
L 151.616577 198.494368 
L 151.974054 201.871543 
L 152.331532 202.989348 
L 152.689009 202.734885 
L 153.046486 197.901418 
L 153.403964 194.775918 
L 153.761441 204.10264 
L 154.118919 201.311778 
L 154.476396 205.28708 
L 154.833874 194.767157 
L 155.191351 202.243083 
L 155.548829 204.071579 
L 155.906306 204.592186 
L 156.263784 198.46344 
L 156.621261 216.395839 
L 156.978739 194.56818 
L 157.336216 202.615817 
L 157.693694 192.639598 
L 158.051171 192.103195 
L 158.766126 206.261791 
L 159.123604 179.737786 
L 159.481081 202.920854 
L 159.838559 197.959293 
L 160.196036 196.610122 
L 160.553514 199.895706 
L 160.910991 197.187674 
L 161.268468 197.250858 
L 161.625946 202.463432 
L 161.983423 195.607004 
L 162.340901 212.378591 
L 162.698378 192.202485 
L 163.055856 197.302893 
L 163.413333 191.766832 
L 163.770811 204.235778 
L 164.128288 191.653206 
L 164.485766 186.515631 
L 164.843243 193.045252 
L 165.200721 188.326339 
L 165.558198 191.891342 
L 165.915676 188.582661 
L 166.273153 193.060783 
L 166.630631 185.784764 
L 166.988108 185.554592 
L 167.345586 192.893132 
L 167.703063 183.566277 
L 168.060541 192.032843 
L 168.418018 195.207324 
L 168.775495 179.528985 
L 169.132973 209.243268 
L 169.49045 183.263364 
L 169.847928 202.750549 
L 170.205405 185.933698 
L 170.562883 180.97134 
L 171.277838 199.254306 
L 171.635315 187.725823 
L 171.992793 190.090722 
L 172.35027 200.550646 
L 172.707748 201.934197 
L 173.065225 193.329847 
L 173.78018 184.716073 
L 174.137658 183.016999 
L 174.495135 195.062637 
L 174.852613 193.840366 
L 175.21009 193.638601 
L 175.567568 172.761759 
L 175.925045 203.494557 
L 176.282523 184.237943 
L 176.997477 175.458641 
L 177.354955 193.167904 
L 177.712432 191.919483 
L 178.06991 190.090456 
L 178.427387 177.663721 
L 178.784865 177.233775 
L 179.142342 179.887782 
L 179.49982 190.571108 
L 179.857297 184.983146 
L 180.214775 175.609301 
L 180.572252 189.793649 
L 180.92973 184.397231 
L 181.287207 180.967889 
L 181.644685 193.693953 
L 182.002162 181.631988 
L 182.35964 165.168093 
L 182.717117 189.203885 
L 183.074595 170.432966 
L 183.432072 185.96768 
L 183.78955 173.830185 
L 184.147027 185.189689 
L 184.504505 181.7934 
L 184.861982 181.819682 
L 185.219459 174.293315 
L 185.576937 186.533285 
L 185.934414 167.377686 
L 186.291892 194.860341 
L 186.649369 201.593984 
L 187.364324 172.523225 
L 187.721802 185.342473 
L 188.079279 183.763927 
L 188.436757 186.577621 
L 188.794234 182.439977 
L 189.151712 188.797036 
L 189.509189 165.442733 
L 189.866667 170.786851 
L 190.224144 183.173234 
L 190.581622 184.383691 
L 190.939099 171.377412 
L 191.296577 179.438855 
L 191.654054 178.307909 
L 192.011532 186.126039 
L 192.369009 166.361693 
L 192.726486 175.187851 
L 193.083964 193.057199 
L 193.441441 183.706451 
L 193.798919 161.884102 
L 194.156396 179.642611 
L 194.513874 190.513101 
L 194.871351 167.311847 
L 195.228829 168.850836 
L 195.586306 186.782173 
L 195.943784 172.570215 
L 196.301261 163.156416 
L 196.658739 166.229749 
L 197.016216 200.054596 
L 197.373694 160.850852 
L 197.731171 169.920987 
L 198.088649 175.39705 
L 198.446126 171.566036 
L 198.803604 168.991541 
L 199.161081 170.051471 
L 200.233514 184.702666 
L 200.948468 163.773658 
L 201.305946 165.133315 
L 202.020901 193.832667 
L 202.378378 183.720654 
L 202.735856 170.275669 
L 203.093333 188.280411 
L 203.450811 167.740332 
L 203.808288 175.447358 
L 204.165766 165.898828 
L 204.523243 176.40468 
L 204.880721 177.830177 
L 205.238198 166.60036 
L 205.595676 164.673902 
L 205.953153 170.712119 
L 206.310631 170.394073 
L 206.668108 182.381571 
L 207.025586 158.940721 
L 207.383063 171.288078 
L 207.740541 158.29056 
L 208.098018 179.245585 
L 208.812973 173.728904 
L 209.17045 182.265026 
L 209.527928 161.933216 
L 209.885405 159.888088 
L 210.242883 162.921599 
L 210.60036 172.703221 
L 210.957838 170.421418 
L 211.315315 169.614358 
L 211.672793 158.46299 
L 212.03027 163.937725 
L 212.387748 175.720936 
L 212.745225 173.913679 
L 213.102703 162.014984 
L 213.46018 171.897887 
L 213.817658 162.575678 
L 214.175135 184.598332 
L 214.89009 167.080348 
L 215.247568 173.079407 
L 215.605045 155.64558 
L 216.32 170.053727 
L 216.677477 154.809051 
L 217.034955 177.630137 
L 217.392432 152.379243 
L 217.74991 166.538901 
L 218.107387 152.635166 
L 218.464865 155.022232 
L 218.822342 178.056101 
L 219.17982 170.853885 
L 219.537297 161.378627 
L 219.894775 160.287238 
L 220.252252 164.785138 
L 220.60973 183.047662 
L 220.967207 150.747733 
L 221.682162 186.88425 
L 222.03964 159.865788 
L 222.397117 163.30628 
L 222.754595 134.43795 
L 223.112072 162.046974 
L 223.46955 144.436735 
L 223.827027 177.285411 
L 224.184505 161.289957 
L 224.899459 171.008793 
L 225.256937 164.648283 
L 225.614414 167.778428 
L 225.971892 167.467551 
L 226.686847 174.29743 
L 227.044324 155.945705 
L 227.759279 145.23238 
L 228.116757 160.085738 
L 228.474234 160.207063 
L 228.831712 143.454724 
L 229.189189 169.565907 
L 229.546667 142.286478 
L 229.904144 152.727022 
L 230.261622 154.866262 
L 230.619099 178.86847 
L 230.976577 151.300331 
L 231.334054 160.20016 
L 231.691532 144.343419 
L 232.049009 142.899472 
L 232.406486 154.533483 
L 232.763964 144.772302 
L 233.121441 164.350812 
L 233.478919 154.910067 
L 233.836396 167.549717 
L 234.193874 161.364424 
L 234.551351 132.530341 
L 234.908829 145.955415 
L 235.266306 168.799997 
L 235.623784 162.73271 
L 235.981261 159.756144 
L 236.338739 166.816195 
L 236.696216 159.783356 
L 237.053694 156.596265 
L 237.411171 168.282045 
L 237.768649 144.651111 
L 238.483604 154.181854 
L 238.841081 135.816457 
L 239.198559 152.74534 
L 239.556036 164.107101 
L 239.913514 154.339284 
L 240.270991 154.826838 
L 240.628468 159.254254 
L 241.343423 143.992056 
L 241.700901 167.187337 
L 242.058378 149.580549 
L 242.415856 139.130049 
L 242.773333 148.771896 
L 243.130811 153.7389 
L 243.488288 133.714516 
L 243.845766 151.777133 
L 244.203243 143.354903 
L 244.560721 150.885518 
L 244.918198 148.779462 
L 245.275676 126.879991 
L 245.990631 155.240988 
L 246.705586 151.000736 
L 247.063063 150.911933 
L 247.420541 137.629555 
L 247.778018 142.720936 
L 248.135495 153.850004 
L 248.492973 159.245493 
L 248.85045 152.401543 
L 249.207928 154.351629 
L 249.565405 158.270782 
L 249.922883 164.347228 
L 250.28036 154.10367 
L 250.637838 136.630552 
L 250.995315 141.927415 
L 251.352793 151.597801 
L 251.71027 144.463814 
L 252.067748 148.463541 
L 252.425225 148.597077 
L 252.782703 151.366303 
L 253.14018 144.512795 
L 253.497658 142.636115 
L 253.855135 163.732641 
L 254.57009 131.511561 
L 254.927568 161.267524 
L 255.642523 133.322402 
L 256 135.820439 
L 256.357477 143.952499 
L 256.714955 140.593244 
L 257.072432 144.287668 
L 257.42991 150.988391 
L 257.787387 146.187445 
L 258.144865 131.325326 
L 258.502342 151.895272 
L 258.85982 141.638971 
L 259.217297 149.141445 
L 259.574775 140.90067 
L 259.932252 135.605798 
L 260.647207 144.793275 
L 261.004685 154.862944 
L 261.71964 129.715719 
L 262.077117 160.937797 
L 262.434595 127.592408 
L 262.792072 120.869782 
L 263.14955 142.82527 
L 263.507027 157.333371 
L 263.864505 160.813818 
L 264.221982 144.061744 
L 264.579459 136.766744 
L 264.936937 132.147121 
L 265.294414 144.425718 
L 265.651892 131.693149 
L 266.009369 139.447697 
L 266.366847 119.623219 
L 266.724324 142.199267 
L 267.081802 144.038648 
L 267.796757 114.835415 
L 268.154234 148.369826 
L 268.511712 135.783803 
L 268.869189 118.439974 
L 269.226667 150.549287 
L 269.584144 143.985021 
L 269.941622 131.86757 
L 270.656577 164.316963 
L 271.014054 138.383651 
L 271.371532 126.079435 
L 271.729009 145.683298 
L 272.086486 135.1428 
L 272.443964 132.731575 
L 272.801441 134.496489 
L 273.158919 141.446896 
L 273.516396 139.920119 
L 273.873874 109.122942 
L 274.231351 133.939245 
L 274.588829 145.681042 
L 274.946306 124.935879 
L 275.303784 151.115291 
L 275.661261 141.276059 
L 276.018739 122.716729 
L 276.733694 155.825443 
L 277.091171 125.891077 
L 277.448649 134.941035 
L 277.806126 137.525354 
L 278.163604 124.946631 
L 278.521081 127.604221 
L 278.878559 133.657836 
L 279.236036 141.658484 
L 279.593514 138.257548 
L 279.950991 133.498017 
L 280.308468 135.2101 
L 280.665946 123.82856 
L 281.023423 132.629366 
L 281.380901 135.222577 
L 281.738378 130.731049 
L 282.095856 120.234621 
L 282.453333 114.089946 
L 282.810811 130.71512 
L 283.168288 129.63727 
L 283.525766 122.176078 
L 284.240721 140.764081 
L 284.598198 106.134828 
L 284.955676 119.8364 
L 285.313153 126.49916 
L 285.670631 135.958223 
L 286.028108 113.674735 
L 286.385586 134.397597 
L 286.743063 128.154297 
L 287.100541 118.580678 
L 287.458018 122.894202 
L 287.815495 146.023777 
L 288.172973 121.610605 
L 288.53045 124.647036 
L 288.887928 132.823432 
L 289.245405 122.177538 
L 289.602883 131.355989 
L 289.96036 112.83502 
L 290.675315 125.342329 
L 291.032793 127.383342 
L 291.39027 134.833118 
L 291.747748 114.025169 
L 292.105225 112.643078 
L 292.462703 104.193105 
L 292.82018 124.393104 
L 293.177658 128.163456 
L 293.535135 142.734874 
L 293.892613 143.792813 
L 294.25009 111.723454 
L 294.607568 130.548929 
L 294.965045 130.875337 
L 295.322523 125.176537 
L 295.68 131.919073 
L 296.037477 117.196862 
L 296.394955 138.576656 
L 296.752432 111.290456 
L 297.10991 115.423454 
L 297.467387 111.189441 
L 297.824865 130.320218 
L 298.182342 97.198363 
L 298.53982 130.433843 
L 298.897297 120.612797 
L 299.254775 129.618288 
L 299.612252 119.871709 
L 299.96973 127.335423 
L 300.327207 103.081805 
L 300.684685 137.908176 
L 301.042162 119.278759 
L 301.39964 133.334349 
L 301.757117 128.27801 
L 302.114595 111.613811 
L 302.472072 125.992358 
L 302.82955 131.184622 
L 303.187027 114.461353 
L 303.544505 133.168556 
L 303.901982 101.285963 
L 304.259459 114.933775 
L 304.616937 141.74596 
L 304.974414 99.216942 
L 305.331892 112.765863 
L 305.689369 136.853556 
L 306.046847 103.337728 
L 306.404324 123.860816 
L 306.761802 104.391552 
L 307.119279 143.603791 
L 307.476757 117.445352 
L 307.834234 125.069017 
L 308.191712 116.32091 
L 308.549189 136.600951 
L 308.906667 118.24604 
L 309.264144 125.868378 
L 309.621622 94.124366 
L 309.979099 125.587898 
L 310.336577 129.729922 
L 310.694054 121.110706 
L 311.051532 100.782347 
L 311.409009 116.189762 
L 311.766486 97.853302 
L 312.123964 93.739818 
L 312.481441 117.84397 
L 312.838919 125.409097 
L 313.196396 120.447005 
L 313.553874 92.559094 
L 313.911351 128.731716 
L 314.268829 112.34136 
L 314.626306 128.029123 
L 314.983784 128.630967 
L 315.341261 104.833709 
L 315.698739 108.799985 
L 316.056216 108.736934 
L 316.413694 92.497104 
L 316.771171 132.594189 
L 317.128649 116.695635 
L 317.486126 117.162748 
L 317.843604 135.332221 
L 318.201081 104.07417 
L 318.558559 110.705205 
L 318.916036 109.171525 
L 319.273514 115.914592 
L 319.630991 136.467149 
L 319.988468 121.045265 
L 320.345946 121.439503 
L 320.703423 134.700908 
L 321.060901 96.134848 
L 321.418378 98.004759 
L 321.775856 137.803179 
L 322.133333 116.712095 
L 322.490811 106.917066 
L 323.205766 130.830471 
L 323.563243 98.504393 
L 323.920721 111.718543 
L 324.278198 116.107331 
L 324.635676 112.90378 
L 324.993153 102.10935 
L 325.350631 103.124812 
L 325.708108 107.665588 
L 326.065586 142.128251 
L 326.423063 131.850845 
L 326.780541 96.158874 
L 327.138018 105.17963 
L 327.495495 105.355776 
L 327.852973 120.902038 
L 328.21045 100.640182 
L 328.567928 102.577657 
L 328.925405 106.825873 
L 329.282883 109.099049 
L 329.64036 108.404552 
L 329.997838 91.787077 
L 330.355315 99.629233 
L 330.712793 111.033736 
L 331.07027 130.75534 
L 331.427748 94.260557 
L 331.785225 107.835495 
L 332.142703 116.503693 
L 332.50018 100.95398 
L 332.857658 112.499453 
L 333.215135 112.003669 
L 333.572613 124.594206 
L 333.93009 110.708523 
L 334.287568 117.726893 
L 334.645045 119.849276 
L 335.002523 85.043214 
L 335.36 98.328778 
L 335.717477 107.20405 
L 336.074955 102.390096 
L 336.432432 122.001259 
L 336.78991 115.579556 
L 337.147387 95.651143 
L 337.504865 99.9798 
L 337.862342 123.750642 
L 338.21982 87.789209 
L 338.577297 89.271651 
L 338.934775 97.366279 
L 339.292252 112.704006 
L 339.64973 94.59493 
L 340.007207 96.304358 
L 340.364685 109.533905 
L 341.07964 85.307234 
L 341.437117 106.405618 
L 341.794595 99.37623 
L 342.152072 106.532916 
L 342.50955 85.379312 
L 342.867027 108.757508 
L 343.224505 109.205374 
L 343.581982 104.932601 
L 343.939459 97.058322 
L 344.296937 106.092882 
L 345.011892 92.758337 
L 345.369369 96.101 
L 345.726847 122.273642 
L 346.084324 97.993343 
L 346.441802 92.859087 
L 346.799279 112.591708 
L 347.156757 110.24818 
L 347.514234 102.802254 
L 347.871712 108.74596 
L 348.229189 89.582131 
L 348.586667 89.197582 
L 349.301622 105.664663 
L 349.659099 108.017216 
L 350.016577 84.826582 
L 350.374054 90.971256 
L 351.089009 116.561169 
L 351.446486 100.686243 
L 351.803964 107.56205 
L 352.161441 100.628368 
L 352.518919 104.628227 
L 352.876396 77.127387 
L 353.233874 97.05726 
L 353.591351 85.70864 
L 353.948829 97.251591 
L 354.306306 118.34533 
L 354.663784 101.452817 
L 355.021261 99.964402 
L 355.378739 106.557606 
L 355.736216 91.454165 
L 356.093694 93.288103 
L 356.451171 104.400578 
L 356.808649 88.514767 
L 357.166126 96.018037 
L 357.523604 84.579818 
L 358.238559 101.488524 
L 358.596036 93.212043 
L 358.953514 108.946398 
L 359.310991 98.85496 
L 359.668468 93.587299 
L 360.025946 114.687144 
L 360.383423 81.102955 
L 360.740901 113.983223 
L 361.098378 112.944266 
L 361.455856 82.281555 
L 361.813333 115.000676 
L 362.170811 114.203041 
L 362.528288 94.057598 
L 363.243243 109.113783 
L 363.600721 94.728466 
L 363.958198 86.478533 
L 364.315676 106.242746 
L 364.673153 98.081085 
L 365.030631 102.224701 
L 365.388108 92.740019 
L 366.103063 108.022924 
L 366.818018 90.654671 
L 367.175495 91.686726 
L 367.532973 107.611961 
L 367.89045 108.06779 
L 368.247928 103.459185 
L 368.605405 78.374083 
L 368.962883 91.769157 
L 369.32036 96.149848 
L 369.677838 77.195615 
L 370.035315 68.499144 
L 370.392793 106.422609 
L 370.75027 102.641771 
L 371.107748 87.106792 
L 371.465225 100.228555 
L 371.822703 84.417078 
L 372.18018 86.102215 
L 372.537658 78.141655 
L 372.895135 91.636152 
L 373.61009 101.648476 
L 373.967568 111.180414 
L 374.325045 108.778216 
L 374.682523 105.075694 
L 375.04 96.381612 
L 375.397477 69.650001 
L 375.754955 74.448691 
L 376.112432 85.547361 
L 376.46991 72.081934 
L 377.184865 99.667064 
L 377.542342 85.302721 
L 378.257297 99.866174 
L 378.614775 65.599966 
L 378.972252 96.766957 
L 379.32973 68.20539 
L 379.687207 70.24096 
L 380.044685 92.893732 
L 380.402162 97.162788 
L 380.75964 117.527252 
L 381.117117 92.329454 
L 381.474595 80.198861 
L 381.832072 78.062674 
L 382.18955 80.001742 
L 382.547027 79.939222 
L 382.904505 85.485769 
L 383.261982 76.363202 
L 383.619459 81.903378 
L 383.976937 94.934745 
L 384.334414 58.516155 
L 384.691892 72.39228 
L 385.049369 67.008472 
L 385.406847 84.744814 
L 385.764324 64.010934 
L 386.121802 92.736037 
L 386.479279 95.178323 
L 386.836757 86.611008 
L 387.194234 97.987901 
L 387.551712 70.297375 
L 387.909189 76.316079 
L 388.266667 74.793549 
L 388.624144 71.07802 
L 389.339099 85.385019 
L 389.696577 91.317841 
L 390.054054 101.475914 
L 390.411532 92.828026 
L 390.769009 72.0745 
L 391.126486 66.165572 
L 391.483964 95.623268 
L 391.841441 83.442367 
L 392.198919 60.046649 
L 392.556396 95.665214 
L 392.913874 74.652447 
L 393.271351 62.438892 
L 394.701261 93.33735 
L 395.058739 69.905791 
L 395.416216 94.793642 
L 395.773694 71.786719 
L 396.488649 85.770762 
L 396.846126 81.453123 
L 397.561081 64.690962 
L 398.276036 90.596 
L 398.990991 80.052051 
L 399.348468 76.870402 
L 399.705946 85.316127 
L 400.063423 87.76213 
L 400.420901 75.164425 
L 400.778378 75.146373 
L 401.135856 53.568 
L 401.493333 57.658255 
L 401.850811 80.168597 
L 402.208288 74.101177 
L 402.565766 61.237594 
L 402.923243 75.940424 
L 403.280721 83.491747 
L 403.638198 86.439242 
L 403.995676 67.986103 
L 404.353153 83.276177 
L 404.710631 84.280223 
L 405.068108 81.013886 
L 405.425586 87.542976 
L 406.498018 55.511449 
L 406.855495 78.874778 
L 407.212973 93.681943 
L 407.57045 55.785292 
L 407.927928 66.62618 
L 408.285405 63.525636 
L 408.642883 77.968296 
L 409.00036 73.32093 
L 409.357838 64.021553 
L 409.715315 85.474619 
L 410.072793 78.455054 
L 410.787748 86.284865 
L 411.145225 75.126727 
L 411.502703 73.263454 
L 411.86018 72.366927 
L 412.217658 73.261197 
L 412.575135 78.664385 
L 412.932613 90.278884 
L 413.29009 65.340194 
L 413.647568 74.021002 
L 414.005045 69.910437 
L 414.362523 77.365656 
L 414.72 70.964527 
L 414.72 70.964527 
" style="fill:none;stroke:#1f77b4;stroke-linecap:square;stroke-width:1.5;"/>
   </g>
   <g id="patch_3">
    <path d="M 57.6 307.584 
L 57.6 41.472 
" style="fill:none;stroke:#000000;stroke-linecap:square;stroke-linejoin:miter;stroke-width:0.8;"/>
   </g>
   <g id="patch_4">
    <path d="M 414.72 307.584 
L 414.72 41.472 
" style="fill:none;stroke:#000000;stroke-linecap:square;stroke-linejoin:miter;stroke-width:0.8;"/>
   </g>
   <g id="patch_5">
    <path d="M 57.6 307.584 
L 414.72 307.584 
" style="fill:none;stroke:#000000;stroke-linecap:square;stroke-linejoin:miter;stroke-width:0.8;"/>
   </g>
   <g id="patch_6">
    <path d="M 57.6 41.472 
L 414.72 41.472 
" style="fill:none;stroke:#000000;stroke-linecap:square;stroke-linejoin:miter;stroke-width:0.8;"/>
   </g>
   <g id="legend_1">
    <g id="patch_7">
     <path d="M 64.6 64.150125 
L 193.953125 64.150125 
Q 195.953125 64.150125 195.953125 62.150125 
L 195.953125 48.472 
Q 195.953125 46.472 193.953125 46.472 
L 64.6 46.472 
Q 62.6 46.472 62.6 48.472 
L 62.6 62.150125 
Q 62.6 64.150125 64.6 64.150125 
z
" style="fill:#ffffff;opacity:0.8;stroke:#cccccc;stroke-linejoin:miter;"/>
    </g>
    <g id="line2d_16">
     <path d="M 66.6 54.570438 
L 86.6 54.570438 
" style="fill:none;stroke:#1f77b4;stroke-linecap:square;stroke-width:1.5;"/>
    </g>
    <g id="line2d_17"/>
    <g id="text_15">
     <!-- Packets per second -->
     <defs>
      <path d="M 19.671875 64.796875 
L 19.671875 37.40625 
L 32.078125 37.40625 
Q 38.96875 37.40625 42.71875 40.96875 
Q 46.484375 44.53125 46.484375 51.125 
Q 46.484375 57.671875 42.71875 61.234375 
Q 38.96875 64.796875 32.078125 64.796875 
z
M 9.8125 72.90625 
L 32.078125 72.90625 
Q 44.34375 72.90625 50.609375 67.359375 
Q 56.890625 61.8125 56.890625 51.125 
Q 56.890625 40.328125 50.609375 34.8125 
Q 44.34375 29.296875 32.078125 29.296875 
L 19.671875 29.296875 
L 19.671875 0 
L 9.8125 0 
z
" id="DejaVuSans-50"/>
      <path d="M 34.28125 27.484375 
Q 23.390625 27.484375 19.1875 25 
Q 14.984375 22.515625 14.984375 16.5 
Q 14.984375 11.71875 18.140625 8.90625 
Q 21.296875 6.109375 26.703125 6.109375 
Q 34.1875 6.109375 38.703125 11.40625 
Q 43.21875 16.703125 43.21875 25.484375 
L 43.21875 27.484375 
z
M 52.203125 31.203125 
L 52.203125 0 
L 43.21875 0 
L 43.21875 8.296875 
Q 40.140625 3.328125 35.546875 0.953125 
Q 30.953125 -1.421875 24.3125 -1.421875 
Q 15.921875 -1.421875 10.953125 3.296875 
Q 6 8.015625 6 15.921875 
Q 6 25.140625 12.171875 29.828125 
Q 18.359375 34.515625 30.609375 34.515625 
L 43.21875 34.515625 
L 43.21875 35.40625 
Q 43.21875 41.609375 39.140625 45 
Q 35.0625 48.390625 27.6875 48.390625 
Q 23 48.390625 18.546875 47.265625 
Q 14.109375 46.140625 10.015625 43.890625 
L 10.015625 52.203125 
Q 14.9375 54.109375 19.578125 55.046875 
Q 24.21875 56 28.609375 56 
Q 40.484375 56 46.34375 49.84375 
Q 52.203125 43.703125 52.203125 31.203125 
" id="DejaVuSans-61"/>
      <path d="M 48.78125 52.59375 
L 48.78125 44.1875 
Q 44.96875 46.296875 41.140625 47.34375 
Q 37.3125 48.390625 33.40625 48.390625 
Q 24.65625 48.390625 19.8125 42.84375 
Q 14.984375 37.3125 14.984375 27.296875 
Q 14.984375 17.28125 19.8125 11.734375 
Q 24.65625 6.203125 33.40625 6.203125 
Q 37.3125 6.203125 41.140625 7.25 
Q 44.96875 8.296875 48.78125 10.40625 
L 48.78125 2.09375 
Q 45.015625 0.34375 40.984375 -0.53125 
Q 36.96875 -1.421875 32.421875 -1.421875 
Q 20.0625 -1.421875 12.78125 6.34375 
Q 5.515625 14.109375 5.515625 27.296875 
Q 5.515625 40.671875 12.859375 48.328125 
Q 20.21875 56 33.015625 56 
Q 37.15625 56 41.109375 55.140625 
Q 45.0625 54.296875 48.78125 52.59375 
" id="DejaVuSans-63"/>
      <path d="M 9.078125 75.984375 
L 18.109375 75.984375 
L 18.109375 31.109375 
L 44.921875 54.6875 
L 56.390625 54.6875 
L 27.390625 29.109375 
L 57.625 0 
L 45.90625 0 
L 18.109375 26.703125 
L 18.109375 0 
L 9.078125 0 
z
" id="DejaVuSans-6b"/>
      <path d="M 56.203125 29.59375 
L 56.203125 25.203125 
L 14.890625 25.203125 
Q 15.484375 15.921875 20.484375 11.0625 
Q 25.484375 6.203125 34.421875 6.203125 
Q 39.59375 6.203125 44.453125 7.46875 
Q 49.3125 8.734375 54.109375 11.28125 
L 54.109375 2.78125 
Q 49.265625 0.734375 44.1875 -0.34375 
Q 39.109375 -1.421875 33.890625 -1.421875 
Q 20.796875 -1.421875 13.15625 6.1875 
Q 5.515625 13.8125 5.515625 26.8125 
Q 5.515625 40.234375 12.765625 48.109375 
Q 20.015625 56 32.328125 56 
Q 43.359375 56 49.78125 48.890625 
Q 56.203125 41.796875 56.203125 29.59375 
M 47.21875 32.234375 
Q 47.125 39.59375 43.09375 43.984375 
Q 39.0625 48.390625 32.421875 48.390625 
Q 24.90625 48.390625 20.390625 44.140625 
Q 15.875 39.890625 15.1875 32.171875 
z
" id="DejaVuSans-65"/>
      <path d="M 18.3125 70.21875 
L 18.3125 54.6875 
L 36.8125 54.6875 
L 36.8125 47.703125 
L 18.3125 47.703125 
L 18.3125 18.015625 
Q 18.3125 11.328125 20.140625 9.421875 
Q 21.96875 7.515625 27.59375 7.515625 
L 36.8125 7.515625 
L 36.8125 0 
L 27.59375 0 
Q 17.1875 0 13.234375 3.875 
Q 9.28125 7.765625 9.28125 18.015625 
L 9.28125 47.703125 
L 2.6875 47.703125 
L 2.6875 54.6875 
L 9.28125 54.6875 
L 9.28125 70.21875 
z
" id="DejaVuSans-74"/>
      <path d="M 44.28125 53.078125 
L 44.28125 44.578125 
Q 40.484375 46.53125 36.375 47.5 
Q 32.28125 48.484375 27.875 48.484375 
Q 21.1875 48.484375 17.84375 46.4375 
Q 14.5 44.390625 14.5 40.28125 
Q 14.5 37.15625 16.890625 35.375 
Q 19.28125 33.59375 26.515625 31.984375 
L 29.59375 31.296875 
Q 39.15625 29.25 43.1875 25.515625 
Q 47.21875 21.78125 47.21875 15.09375 
Q 47.21875 7.46875 41.1875 3.015625 
Q 35.15625 -1.421875 24.609375 -1.421875 
Q 20.21875 -1.421875 15.453125 -0.5625 
Q 10.6875 0.296875 5.421875 2 
L 5.421875 11.28125 
Q 10.40625 8.6875 15.234375 7.390625 
Q 20.0625 6.109375 24.8125 6.109375 
Q 31.15625 6.109375 34.5625 8.28125 
Q 37.984375 10.453125 37.984375 14.40625 
Q 37.984375 18.0625 35.515625 20.015625 
Q 33.0625 21.96875 24.703125 23.78125 
L 21.578125 24.515625 
Q 13.234375 26.265625 9.515625 29.90625 
Q 5.8125 33.546875 5.8125 39.890625 
Q 5.8125 47.609375 11.28125 51.796875 
Q 16.75 56 26.8125 56 
Q 31.78125 56 36.171875 55.265625 
Q 40.578125 54.546875 44.28125 53.078125 
" id="DejaVuSans-73"/>
      <path id="DejaVuSans-20"/>
      <path d="M 18.109375 8.203125 
L 18.109375 -20.796875 
L 9.078125 -20.796875 
L 9.078125 54.6875 
L 18.109375 54.6875 
L 18.109375 46.390625 
Q 20.953125 51.265625 25.265625 53.625 
Q 29.59375 56 35.59375 56 
Q 45.5625 56 51.78125 48.09375 
Q 58.015625 40.1875 58.015625 27.296875 
Q 58.015625 14.40625 51.78125 6.484375 
Q 45.5625 -1.421875 35.59375 -1.421875 
Q 29.59375 -1.421875 25.265625 0.953125 
Q 20.953125 3.328125 18.109375 8.203125 
M 48.6875 27.296875 
Q 48.6875 37.203125 44.609375 42.84375 
Q 40.53125 48.484375 33.40625 48.484375 
Q 26.265625 48.484375 22.1875 42.84375 
Q 18.109375 37.203125 18.109375 27.296875 
Q 18.109375 17.390625 22.1875 11.75 
Q 26.265625 6.109375 33.40625 6.109375 
Q 40.53125 6.109375 44.609375 11.75 
Q 48.6875 17.390625 48.6875 27.296875 
" id="DejaVuSans-70"/>
      <path d="M 41.109375 46.296875 
Q 39.59375 47.171875 37.8125 47.578125 
Q 36.03125 48 33.890625 48 
Q 26.265625 48 22.1875 43.046875 
Q 18.109375 38.09375 18.109375 28.8125 
L 18.109375 0 
L 9.078125 0 
L 9.078125 54.6875 
L 18.109375 54.6875 
L 18.109375 46.1875 
Q 20.953125 51.171875 25.484375 53.578125 
Q 30.03125 56 36.53125 56 
Q 37.453125 56 38.578125 55.875 
Q 39.703125 55.765625 41.0625 55.515625 
z
" id="DejaVuSans-72"/>
      <path d="M 30.609375 48.390625 
Q 23.390625 48.390625 19.1875 42.75 
Q 14.984375 37.109375 14.984375 27.296875 
Q 14.984375 17.484375 19.15625 11.84375 
Q 23.34375 6.203125 30.609375 6.203125 
Q 37.796875 6.203125 41.984375 11.859375 
Q 46.1875 17.53125 46.1875 27.296875 
Q 46.1875 37.015625 41.984375 42.703125 
Q 37.796875 48.390625 30.609375 48.390625 
M 30.609375 56 
Q 42.328125 56 49.015625 48.375 
Q 55.71875 40.765625 55.71875 27.296875 
Q 55.71875 13.875 49.015625 6.21875 
Q 42.328125 -1.421875 30.609375 -1.421875 
Q 18.84375 -1.421875 12.171875 6.21875 
Q 5.515625 13.875 5.515625 27.296875 
Q 5.515625 40.765625 12.171875 48.375 
Q 18.84375 56 30.609375 56 
" id="DejaVuSans-6f"/>
      <path d="M 54.890625 33.015625 
L 54.890625 0 
L 45.90625 0 
L 45.90625 32.71875 
Q 45.90625 40.484375 42.875 44.328125 
Q 39.84375 48.1875 33.796875 48.1875 
Q 26.515625 48.1875 22.3125 43.546875 
Q 18.109375 38.921875 18.109375 30.90625 
L 18.109375 0 
L 9.078125 0 
L 9.078125 54.6875 
L 18.109375 54.6875 
L 18.109375 46.1875 
Q 21.34375 51.125 25.703125 53.5625 
Q 30.078125 56 35.796875 56 
Q 45.21875 56 50.046875 50.171875 
Q 54.890625 44.34375 54.890625 33.015625 
" id="DejaVuSans-6e"/>
      <path d="M 45.40625 46.390625 
L 45.40625 75.984375 
L 54.390625 75.984375 
L 54.390625 0 
L 45.40625 0 
L 45.40625 8.203125 
Q 42.578125 3.328125 38.25 0.953125 
Q 33.9375 -1.421875 27.875 -1.421875 
Q 17.96875 -1.421875 11.734375 6.484375 
Q 5.515625 14.40625 5.515625 27.296875 
Q 5.515625 40.1875 11.734375 48.09375 
Q 17.96875 56 27.875 56 
Q 33.9375 56 38.25 53.625 
Q 42.578125 51.265625 45.40625 46.390625 
M 14.796875 27.296875 
Q 14.796875 17.390625 18.875 11.75 
Q 22.953125 6.109375 30.078125 6.109375 
Q 37.203125 6.109375 41.296875 11.75 
Q 45.40625 17.390625 45.40625 27.296875 
Q 45.40625 37.203125 41.296875 42.84375 
Q 37.203125 48.484375 30.078125 48.484375 
Q 22.953125 48.484375 18.875 42.84375 
Q 14.796875 37.203125 14.796875 27.296875 
" id="DejaVuSans-64"/>
     </defs>
     <g transform="translate(94.6 58.070438)scale(0.1 -0.1)">
      <use xlink:href="#DejaVuSans-50"/>
      <use x="60.240234" xlink:href="#DejaVuSans-61"/>
      <use x="121.519531" xlink:href="#DejaVuSans-63"/>
      <use x="176.5" xlink:href="#DejaVuSans-6b"/>
      <use x="234.363281" xlink:href="#DejaVuSans-65"/>
      <use x="295.886719" xlink:href="#DejaVuSans-74"/>
      <use x="335.095703" xlink:href="#DejaVuSans-73"/>
      <use x="387.195312" xlink:href="#DejaVuSans-20"/>
      <use x="418.982422" xlink:href="#DejaVuSans-70"/>
      <use x="482.458984" xlink:href="#DejaVuSans-65"/>
      <use x="543.982422" xlink:href="#DejaVuSans-72"/>
      <use x="585.095703" xlink:href="#DejaVuSans-20"/>
      <use x="616.882812" xlink:href="#DejaVuSans-73"/>
      <use x="668.982422" xlink:href="#DejaVuSans-65"/>
      <use x="730.505859" xlink:href="#DejaVuSans-63"/>
      <use x="785.486328" xlink:href="#DejaVuSans-6f"/>
      <use x="846.667969" xlink:href="#DejaVuSans-6e"/>
      <use x="910.046875" xlink:href="#DejaVuSans-64"/>
     </g>
    </g>
   </g>
  </g>
 </g>
 <defs>
  <clipPath id="pe4bdf7bd03">
   <rect height="266.112" width="357.12" x="57.6" y="41.472"/>
  </clipPath>
 </defs>
</svg>
