<?xml version="1.0" encoding="utf-8" standalone="no"?>
<!DOCTYPE svg PUBLIC "-//W3C//DTD SVG 1.1//EN"
  "http://www.w3.org/Graphics/SVG/1.1/DTD/svg11.dtd">
<!-- Created with matplotlib (http://matplotlib.org/) -->
<svg height="345pt" version="1.1" viewBox="0 0 460 345" width="460pt" xmlns="http://www.w3.org/2000/svg" xmlns:xlink="http://www.w3.org/1999/xlink">
 <defs>
  <style type="text/css">
*{stroke-linecap:butt;stroke-linejoin:round;}
  </style>
 </defs>
 <g id="figure_1">
  <g id="patch_1">
   <path d="M 0 345.6 
L 460.8 345.6 
L 460.8 0 
L 0 0 
z
" style="fill:#ffffff;"/>
  </g>
  <g id="axes_1">
   <g id="patch_2">
    <path d="M 57.6 307.584 
L 414.72 307.584 
L 414.72 41.472 
L 57.6 41.472 
z
" style="fill:#ffffff;"/>
   </g>
   <g id="matplotlib.axis_1">
    <g id="xtick_1">
     <g id="line2d_1">
      <defs>
       <path d="M 0 0 
L 0 3.5 
" id="m598c96fb76" style="stroke:#000000;stroke-width:0.8;"/>
      </defs>
      <g>
       <use style="stroke:#000000;stroke-width:0.8;" x="57.6" xlink:href="#m598c96fb76" y="307.584"/>
      </g>
     </g>
     <g id="text_1">
      <!-- 0 -->
      <defs>
       <path d="M 31.78125 66.40625 
Q 24.171875 66.40625 20.328125 58.90625 
Q 16.5 51.421875 16.5 36.375 
Q 16.5 21.390625 20.328125 13.890625 
Q 24.171875 6.390625 31.78125 6.390625 
Q 39.453125 6.390625 43.28125 13.890625 
Q 47.125 21.390625 47.125 36.375 
Q 47.125 51.421875 43.28125 58.90625 
Q 39.453125 66.40625 31.78125 66.40625 
M 31.78125 74.21875 
Q 44.046875 74.21875 50.515625 64.515625 
Q 56.984375 54.828125 56.984375 36.375 
Q 56.984375 17.96875 50.515625 8.265625 
Q 44.046875 -1.421875 31.78125 -1.421875 
Q 19.53125 -1.421875 13.0625 8.265625 
Q 6.59375 17.96875 6.59375 36.375 
Q 6.59375 54.828125 13.0625 64.515625 
Q 19.53125 74.21875 31.78125 74.21875 
" id="DejaVuSans-30"/>
      </defs>
      <g transform="translate(54.41875 322.182437)scale(0.1 -0.1)">
       <use xlink:href="#DejaVuSans-30"/>
      </g>
     </g>
    </g>
    <g id="xtick_2">
     <g id="line2d_2">
      <g>
       <use style="stroke:#000000;stroke-width:0.8;" x="129.095495" xlink:href="#m598c96fb76" y="307.584"/>
      </g>
     </g>
     <g id="text_2">
      <!-- 200 -->
      <defs>
       <path d="M 19.1875 8.296875 
L 53.609375 8.296875 
L 53.609375 0 
L 7.328125 0 
L 7.328125 8.296875 
Q 12.9375 14.109375 22.625 23.890625 
Q 32.328125 33.6875 34.8125 36.53125 
Q 39.546875 41.84375 41.421875 45.53125 
Q 43.3125 49.21875 43.3125 52.78125 
Q 43.3125 58.59375 39.234375 62.25 
Q 35.15625 65.921875 28.609375 65.921875 
Q 23.96875 65.921875 18.8125 64.3125 
Q 13.671875 62.703125 7.8125 59.421875 
L 7.8125 69.390625 
Q 13.765625 71.78125 18.9375 73 
Q 24.125 74.21875 28.421875 74.21875 
Q 39.75 74.21875 46.484375 68.546875 
Q 53.21875 62.890625 53.21875 53.421875 
Q 53.21875 48.921875 51.53125 44.890625 
Q 49.859375 40.875 45.40625 35.40625 
Q 44.1875 33.984375 37.640625 27.21875 
Q 31.109375 20.453125 19.1875 8.296875 
" id="DejaVuSans-32"/>
      </defs>
      <g transform="translate(119.551745 322.182437)scale(0.1 -0.1)">
       <use xlink:href="#DejaVuSans-32"/>
       <use x="63.623047" xlink:href="#DejaVuSans-30"/>
       <use x="127.246094" xlink:href="#DejaVuSans-30"/>
      </g>
     </g>
    </g>
    <g id="xtick_3">
     <g id="line2d_3">
      <g>
       <use style="stroke:#000000;stroke-width:0.8;" x="200.590991" xlink:href="#m598c96fb76" y="307.584"/>
      </g>
     </g>
     <g id="text_3">
      <!-- 400 -->
      <defs>
       <path d="M 37.796875 64.3125 
L 12.890625 25.390625 
L 37.796875 25.390625 
z
M 35.203125 72.90625 
L 47.609375 72.90625 
L 47.609375 25.390625 
L 58.015625 25.390625 
L 58.015625 17.1875 
L 47.609375 17.1875 
L 47.609375 0 
L 37.796875 0 
L 37.796875 17.1875 
L 4.890625 17.1875 
L 4.890625 26.703125 
z
" id="DejaVuSans-34"/>
      </defs>
      <g transform="translate(191.047241 322.182437)scale(0.1 -0.1)">
       <use xlink:href="#DejaVuSans-34"/>
       <use x="63.623047" xlink:href="#DejaVuSans-30"/>
       <use x="127.246094" xlink:href="#DejaVuSans-30"/>
      </g>
     </g>
    </g>
    <g id="xtick_4">
     <g id="line2d_4">
      <g>
       <use style="stroke:#000000;stroke-width:0.8;" x="272.086486" xlink:href="#m598c96fb76" y="307.584"/>
      </g>
     </g>
     <g id="text_4">
      <!-- 600 -->
      <defs>
       <path d="M 33.015625 40.375 
Q 26.375 40.375 22.484375 35.828125 
Q 18.609375 31.296875 18.609375 23.390625 
Q 18.609375 15.53125 22.484375 10.953125 
Q 26.375 6.390625 33.015625 6.390625 
Q 39.65625 6.390625 43.53125 10.953125 
Q 47.40625 15.53125 47.40625 23.390625 
Q 47.40625 31.296875 43.53125 35.828125 
Q 39.65625 40.375 33.015625 40.375 
M 52.59375 71.296875 
L 52.59375 62.3125 
Q 48.875 64.0625 45.09375 64.984375 
Q 41.3125 65.921875 37.59375 65.921875 
Q 27.828125 65.921875 22.671875 59.328125 
Q 17.53125 52.734375 16.796875 39.40625 
Q 19.671875 43.65625 24.015625 45.921875 
Q 28.375 48.1875 33.59375 48.1875 
Q 44.578125 48.1875 50.953125 41.515625 
Q 57.328125 34.859375 57.328125 23.390625 
Q 57.328125 12.15625 50.6875 5.359375 
Q 44.046875 -1.421875 33.015625 -1.421875 
Q 20.359375 -1.421875 13.671875 8.265625 
Q 6.984375 17.96875 6.984375 36.375 
Q 6.984375 53.65625 15.1875 63.9375 
Q 23.390625 74.21875 37.203125 74.21875 
Q 40.921875 74.21875 44.703125 73.484375 
Q 48.484375 72.75 52.59375 71.296875 
" id="DejaVuSans-36"/>
      </defs>
      <g transform="translate(262.542736 322.182437)scale(0.1 -0.1)">
       <use xlink:href="#DejaVuSans-36"/>
       <use x="63.623047" xlink:href="#DejaVuSans-30"/>
       <use x="127.246094" xlink:href="#DejaVuSans-30"/>
      </g>
     </g>
    </g>
    <g id="xtick_5">
     <g id="line2d_5">
      <g>
       <use style="stroke:#000000;stroke-width:0.8;" x="343.581982" xlink:href="#m598c96fb76" y="307.584"/>
      </g>
     </g>
     <g id="text_5">
      <!-- 800 -->
      <defs>
       <path d="M 31.78125 34.625 
Q 24.75 34.625 20.71875 30.859375 
Q 16.703125 27.09375 16.703125 20.515625 
Q 16.703125 13.921875 20.71875 10.15625 
Q 24.75 6.390625 31.78125 6.390625 
Q 38.8125 6.390625 42.859375 10.171875 
Q 46.921875 13.96875 46.921875 20.515625 
Q 46.921875 27.09375 42.890625 30.859375 
Q 38.875 34.625 31.78125 34.625 
M 21.921875 38.8125 
Q 15.578125 40.375 12.03125 44.71875 
Q 8.5 49.078125 8.5 55.328125 
Q 8.5 64.0625 14.71875 69.140625 
Q 20.953125 74.21875 31.78125 74.21875 
Q 42.671875 74.21875 48.875 69.140625 
Q 55.078125 64.0625 55.078125 55.328125 
Q 55.078125 49.078125 51.53125 44.71875 
Q 48 40.375 41.703125 38.8125 
Q 48.828125 37.15625 52.796875 32.3125 
Q 56.78125 27.484375 56.78125 20.515625 
Q 56.78125 9.90625 50.3125 4.234375 
Q 43.84375 -1.421875 31.78125 -1.421875 
Q 19.734375 -1.421875 13.25 4.234375 
Q 6.78125 9.90625 6.78125 20.515625 
Q 6.78125 27.484375 10.78125 32.3125 
Q 14.796875 37.15625 21.921875 38.8125 
M 18.3125 54.390625 
Q 18.3125 48.734375 21.84375 45.5625 
Q 25.390625 42.390625 31.78125 42.390625 
Q 38.140625 42.390625 41.71875 45.5625 
Q 45.3125 48.734375 45.3125 54.390625 
Q 45.3125 60.0625 41.71875 63.234375 
Q 38.140625 66.40625 31.78125 66.40625 
Q 25.390625 66.40625 21.84375 63.234375 
Q 18.3125 60.0625 18.3125 54.390625 
" id="DejaVuSans-38"/>
      </defs>
      <g transform="translate(334.038232 322.182437)scale(0.1 -0.1)">
       <use xlink:href="#DejaVuSans-38"/>
       <use x="63.623047" xlink:href="#DejaVuSans-30"/>
       <use x="127.246094" xlink:href="#DejaVuSans-30"/>
      </g>
     </g>
    </g>
    <g id="xtick_6">
     <g id="line2d_6">
      <g>
       <use style="stroke:#000000;stroke-width:0.8;" x="415.077477" xlink:href="#m598c96fb76" y="307.584"/>
      </g>
     </g>
     <g id="text_6">
      <!-- 1000 -->
      <defs>
       <path d="M 12.40625 8.296875 
L 28.515625 8.296875 
L 28.515625 63.921875 
L 10.984375 60.40625 
L 10.984375 69.390625 
L 28.421875 72.90625 
L 38.28125 72.90625 
L 38.28125 8.296875 
L 54.390625 8.296875 
L 54.390625 0 
L 12.40625 0 
z
" id="DejaVuSans-31"/>
      </defs>
      <g transform="translate(402.352477 322.182437)scale(0.1 -0.1)">
       <use xlink:href="#DejaVuSans-31"/>
       <use x="63.623047" xlink:href="#DejaVuSans-30"/>
       <use x="127.246094" xlink:href="#DejaVuSans-30"/>
       <use x="190.869141" xlink:href="#DejaVuSans-30"/>
      </g>
     </g>
    </g>
   </g>
   <g id="matplotlib.axis_2">
    <g id="ytick_1">
     <g id="line2d_7">
      <defs>
       <path d="M 0 0 
L -3.5 0 
" id="m2a2553c1dc" style="stroke:#000000;stroke-width:0.8;"/>
      </defs>
      <g>
       <use style="stroke:#000000;stroke-width:0.8;" x="57.6" xlink:href="#m2a2553c1dc" y="296.852635"/>
      </g>
     </g>
     <g id="text_7">
      <!-- 0 -->
      <g transform="translate(44.2375 300.651854)scale(0.1 -0.1)">
       <use xlink:href="#DejaVuSans-30"/>
      </g>
     </g>
    </g>
    <g id="ytick_2">
     <g id="line2d_8">
      <g>
       <use style="stroke:#000000;stroke-width:0.8;" x="57.6" xlink:href="#m2a2553c1dc" y="262.217229"/>
      </g>
     </g>
     <g id="text_8">
      <!-- 25 -->
      <defs>
       <path d="M 10.796875 72.90625 
L 49.515625 72.90625 
L 49.515625 64.59375 
L 19.828125 64.59375 
L 19.828125 46.734375 
Q 21.96875 47.46875 24.109375 47.828125 
Q 26.265625 48.1875 28.421875 48.1875 
Q 40.625 48.1875 47.75 41.5 
Q 54.890625 34.8125 54.890625 23.390625 
Q 54.890625 11.625 47.5625 5.09375 
Q 40.234375 -1.421875 26.90625 -1.421875 
Q 22.3125 -1.421875 17.546875 -0.640625 
Q 12.796875 0.140625 7.71875 1.703125 
L 7.71875 11.625 
Q 12.109375 9.234375 16.796875 8.0625 
Q 21.484375 6.890625 26.703125 6.890625 
Q 35.15625 6.890625 40.078125 11.328125 
Q 45.015625 15.765625 45.015625 23.390625 
Q 45.015625 31 40.078125 35.4375 
Q 35.15625 39.890625 26.703125 39.890625 
Q 22.75 39.890625 18.8125 39.015625 
Q 14.890625 38.140625 10.796875 36.28125 
z
" id="DejaVuSans-35"/>
      </defs>
      <g transform="translate(37.875 266.016448)scale(0.1 -0.1)">
       <use xlink:href="#DejaVuSans-32"/>
       <use x="63.623047" xlink:href="#DejaVuSans-35"/>
      </g>
     </g>
    </g>
    <g id="ytick_3">
     <g id="line2d_9">
      <g>
       <use style="stroke:#000000;stroke-width:0.8;" x="57.6" xlink:href="#m2a2553c1dc" y="227.581823"/>
      </g>
     </g>
     <g id="text_9">
      <!-- 50 -->
      <g transform="translate(37.875 231.381041)scale(0.1 -0.1)">
       <use xlink:href="#DejaVuSans-35"/>
       <use x="63.623047" xlink:href="#DejaVuSans-30"/>
      </g>
     </g>
    </g>
    <g id="ytick_4">
     <g id="line2d_10">
      <g>
       <use style="stroke:#000000;stroke-width:0.8;" x="57.6" xlink:href="#m2a2553c1dc" y="192.946416"/>
      </g>
     </g>
     <g id="text_10">
      <!-- 75 -->
      <defs>
       <path d="M 8.203125 72.90625 
L 55.078125 72.90625 
L 55.078125 68.703125 
L 28.609375 0 
L 18.3125 0 
L 43.21875 64.59375 
L 8.203125 64.59375 
z
" id="DejaVuSans-37"/>
      </defs>
      <g transform="translate(37.875 196.745635)scale(0.1 -0.1)">
       <use xlink:href="#DejaVuSans-37"/>
       <use x="63.623047" xlink:href="#DejaVuSans-35"/>
      </g>
     </g>
    </g>
    <g id="ytick_5">
     <g id="line2d_11">
      <g>
       <use style="stroke:#000000;stroke-width:0.8;" x="57.6" xlink:href="#m2a2553c1dc" y="158.31101"/>
      </g>
     </g>
     <g id="text_11">
      <!-- 100 -->
      <g transform="translate(31.5125 162.110229)scale(0.1 -0.1)">
       <use xlink:href="#DejaVuSans-31"/>
       <use x="63.623047" xlink:href="#DejaVuSans-30"/>
       <use x="127.246094" xlink:href="#DejaVuSans-30"/>
      </g>
     </g>
    </g>
    <g id="ytick_6">
     <g id="line2d_12">
      <g>
       <use style="stroke:#000000;stroke-width:0.8;" x="57.6" xlink:href="#m2a2553c1dc" y="123.675604"/>
      </g>
     </g>
     <g id="text_12">
      <!-- 125 -->
      <g transform="translate(31.5125 127.474823)scale(0.1 -0.1)">
       <use xlink:href="#DejaVuSans-31"/>
       <use x="63.623047" xlink:href="#DejaVuSans-32"/>
       <use x="127.246094" xlink:href="#DejaVuSans-35"/>
      </g>
     </g>
    </g>
    <g id="ytick_7">
     <g id="line2d_13">
      <g>
       <use style="stroke:#000000;stroke-width:0.8;" x="57.6" xlink:href="#m2a2553c1dc" y="89.040198"/>
      </g>
     </g>
     <g id="text_13">
      <!-- 150 -->
      <g transform="translate(31.5125 92.839416)scale(0.1 -0.1)">
       <use xlink:href="#DejaVuSans-31"/>
       <use x="63.623047" xlink:href="#DejaVuSans-35"/>
       <use x="127.246094" xlink:href="#DejaVuSans-30"/>
      </g>
     </g>
    </g>
    <g id="ytick_8">
     <g id="line2d_14">
      <g>
       <use style="stroke:#000000;stroke-width:0.8;" x="57.6" xlink:href="#m2a2553c1dc" y="54.404791"/>
      </g>
     </g>
     <g id="text_14">
      <!-- 175 -->
      <g transform="translate(31.5125 58.20401)scale(0.1 -0.1)">
       <use xlink:href="#DejaVuSans-31"/>
       <use x="63.623047" xlink:href="#DejaVuSans-37"/>
       <use x="127.246094" xlink:href="#DejaVuSans-35"/>
      </g>
     </g>
    </g>
   </g>
   <g id="line2d_15">
    <path clip-path="url(#p2998bdb387)" d="M 57.6 295.488 
L 59.02991 290.252512 
L 60.102342 286.013138 
L 60.45982 285.130628 
L 60.817297 283.451504 
L 61.174775 282.429066 
L 61.532252 280.380036 
L 62.247207 277.938932 
L 62.604685 277.326578 
L 64.034595 272.17283 
L 64.392072 270.362091 
L 64.74955 267.936227 
L 65.107027 267.352967 
L 65.464505 267.135456 
L 65.821982 265.287311 
L 66.179459 264.231624 
L 66.536937 261.877802 
L 66.894414 261.126906 
L 67.251892 259.856479 
L 67.609369 257.890574 
L 67.966847 257.170157 
L 68.324324 254.493533 
L 68.681802 255.039387 
L 69.039279 253.5847 
L 69.396757 250.543711 
L 69.754234 251.485795 
L 70.826667 247.19239 
L 71.899099 240.448183 
L 72.256577 242.56787 
L 72.614054 237.59284 
L 73.329009 238.519684 
L 74.043964 233.83005 
L 74.758919 232.160623 
L 75.116396 230.30278 
L 75.473874 227.616458 
L 75.831351 227.569354 
L 76.188829 225.995521 
L 76.546306 225.617302 
L 76.903784 221.124397 
L 77.261261 221.778314 
L 77.618739 220.078408 
L 77.976216 220.823762 
L 78.333694 216.251888 
L 78.691171 217.108076 
L 79.048649 213.882827 
L 79.406126 213.7429 
L 79.763604 217.253544 
L 80.478559 211.484671 
L 80.836036 212.739858 
L 81.193514 213.303723 
L 81.550991 209.741818 
L 81.908468 209.996734 
L 82.265946 212.939358 
L 82.623423 210.683901 
L 82.980901 210.039682 
L 83.338378 210.337546 
L 84.053333 209.312338 
L 84.410811 210.56614 
L 84.768288 210.071547 
L 85.125766 204.545121 
L 85.483243 203.727726 
L 86.198198 208.145818 
L 86.555676 202.417122 
L 87.270631 205.415163 
L 87.985586 199.590873 
L 88.343063 201.656528 
L 88.700541 202.141424 
L 89.058018 204.381642 
L 89.415495 198.331529 
L 89.772973 203.733267 
L 90.13045 197.083269 
L 90.845405 200.927799 
L 91.202883 200.83082 
L 91.56036 195.516363 
L 91.917838 201.389143 
L 92.275315 195.025926 
L 92.632793 195.898738 
L 92.99027 198.554581 
L 93.347748 198.141727 
L 93.705225 197.255061 
L 94.062703 198.658488 
L 94.42018 196.432124 
L 94.777658 193.287229 
L 95.135135 197.6028 
L 95.492613 191.178625 
L 96.207568 195.020384 
L 96.565045 190.987438 
L 96.922523 191.059479 
L 97.28 192.96027 
L 97.637477 191.87826 
L 97.994955 194.245937 
L 98.70991 188.04897 
L 99.067387 189.309699 
L 99.424865 189.241813 
L 99.782342 191.191094 
L 100.13982 192.389479 
L 100.497297 185.129898 
L 100.854775 185.358492 
L 101.212252 183.815138 
L 101.56973 187.932595 
L 101.927207 188.603136 
L 102.284685 188.416105 
L 102.642162 183.105805 
L 102.99964 185.395898 
L 103.357117 184.294492 
L 103.714595 185.351564 
L 104.072072 180.883597 
L 104.42955 182.518388 
L 104.787027 182.181732 
L 105.144505 179.417827 
L 105.501982 186.113543 
L 105.859459 185.589856 
L 106.216937 178.802702 
L 106.574414 180.328045 
L 106.931892 182.634763 
L 107.289369 180.81017 
L 107.646847 181.340784 
L 108.004324 183.025451 
L 108.361802 183.691836 
L 109.076757 178.001931 
L 109.434234 181.569378 
L 109.791712 177.0169 
L 110.149189 180.11192 
L 110.506667 180.768607 
L 110.864144 180.274014 
L 111.221622 177.964525 
L 111.579099 181.058159 
L 111.936577 176.839567 
L 112.294054 176.803546 
L 112.651532 172.198423 
L 113.009009 177.410359 
L 113.366486 176.268776 
L 113.723964 172.076506 
L 114.081441 175.38488 
L 114.438919 172.662537 
L 114.796396 173.632328 
L 115.153874 177.104182 
L 115.511351 175.20339 
L 115.868829 171.962902 
L 116.226306 171.714912 
L 116.583784 176.658077 
L 117.298739 171.080392 
L 117.656216 174.126922 
L 118.013694 171.261881 
L 118.371171 175.585765 
L 118.728649 173.499328 
L 119.086126 169.092319 
L 119.443604 167.719372 
L 119.801081 173.68636 
L 120.158559 174.165714 
L 120.516036 166.182945 
L 120.873514 165.829664 
L 121.230991 165.308748 
L 121.588468 171.583298 
L 121.945946 164.212883 
L 122.303423 167.249716 
L 122.660901 164.575862 
L 123.018378 164.284925 
L 123.375856 170.807465 
L 123.733333 162.348113 
L 124.090811 169.277965 
L 124.448288 164.822466 
L 124.805766 162.833009 
L 125.163243 163.640706 
L 125.520721 166.386601 
L 125.878198 165.444518 
L 126.235676 167.483851 
L 126.950631 160.380822 
L 127.308108 165.997299 
L 127.665586 159.72552 
L 128.023063 160.576166 
L 128.380541 160.959926 
L 128.738018 161.65679 
L 129.095495 166.673383 
L 129.452973 164.798914 
L 129.81045 160.966853 
L 130.167928 166.926914 
L 130.525405 161.561197 
L 130.882883 165.6648 
L 131.24036 163.946883 
L 131.597838 158.637968 
L 131.955315 164.028623 
L 132.312793 161.867374 
L 132.67027 158.373354 
L 133.027748 158.847166 
L 133.385225 158.092114 
L 133.742703 156.508584 
L 134.10018 158.754343 
L 134.457658 156.300771 
L 134.815135 160.179937 
L 135.172613 154.170001 
L 135.53009 154.122897 
L 135.887568 158.629656 
L 136.245045 154.093803 
L 136.602523 157.923094 
L 136.96 156.09573 
L 137.317477 155.268636 
L 137.674955 159.156114 
L 138.032432 157.409104 
L 138.38991 152.557376 
L 138.747387 160.754884 
L 139.104865 156.151146 
L 139.462342 155.633 
L 139.81982 156.418532 
L 140.177297 158.423229 
L 140.534775 157.632156 
L 140.892252 153.51747 
L 141.24973 154.528824 
L 141.607207 156.818917 
L 141.964685 157.384167 
L 142.322162 156.832771 
L 142.67964 154.720011 
L 143.394595 157.386937 
L 143.752072 154.474793 
L 144.10955 153.658782 
L 144.467027 148.319388 
L 144.824505 146.864701 
L 145.181982 154.918126 
L 145.539459 151.679023 
L 145.896937 153.372001 
L 146.254414 153.761303 
L 146.611892 154.692303 
L 146.969369 153.611678 
L 147.326847 153.942793 
L 147.684324 153.478678 
L 148.041802 150.275596 
L 148.399279 153.40248 
L 148.756757 152.404981 
L 149.114234 147.391159 
L 149.471712 153.35122 
L 149.829189 153.427418 
L 150.186667 144.804587 
L 150.544144 144.739473 
L 150.901622 151.094377 
L 151.616577 149.411096 
L 151.974054 150.47371 
L 152.331532 152.625262 
L 152.689009 151.591741 
L 153.046486 151.871595 
L 153.403964 143.819556 
L 153.761441 142.346859 
L 154.118919 144.213014 
L 154.476396 141.512838 
L 154.833874 145.775764 
L 155.548829 144.560754 
L 155.906306 148.045076 
L 156.263784 143.057577 
L 156.621261 148.493951 
L 156.978739 139.096672 
L 157.336216 149.048117 
L 157.693694 147.517232 
L 158.051171 145.261774 
L 158.408649 139.247683 
L 159.123604 148.157294 
L 159.481081 140.507026 
L 159.838559 142.957827 
L 160.196036 141.870275 
L 160.553514 142.414744 
L 160.910991 137.827631 
L 161.268468 140.279818 
L 161.625946 136.647256 
L 161.983423 141.188651 
L 162.340901 141.652765 
L 162.698378 145.198045 
L 163.055856 136.505944 
L 163.413333 135.225819 
L 163.770811 135.74535 
L 164.128288 142.6184 
L 164.485766 144.422212 
L 164.843243 143.775223 
L 165.200721 137.730652 
L 165.915676 134.718757 
L 166.273153 142.037911 
L 166.630631 139.900214 
L 166.988108 134.781101 
L 167.345586 138.631172 
L 167.703063 144.042608 
L 168.060541 141.050109 
L 168.418018 136.900787 
L 168.775495 142.389807 
L 169.132973 138.44137 
L 169.49045 132.38156 
L 169.847928 142.341317 
L 170.205405 134.466611 
L 170.562883 134.494319 
L 171.277838 133.075653 
L 171.635315 133.453872 
L 171.992793 141.954786 
L 172.35027 140.537505 
L 172.707748 135.088663 
L 173.065225 139.718724 
L 173.422703 138.179527 
L 173.78018 131.891122 
L 174.137658 135.796611 
L 174.495135 131.149925 
L 174.852613 134.959819 
L 175.21009 132.244403 
L 175.567568 135.853413 
L 175.925045 138.268193 
L 176.282523 136.082006 
L 176.64 134.743694 
L 176.997477 131.805226 
L 177.354955 137.678006 
L 177.712432 129.623196 
L 178.06991 136.32861 
L 178.427387 134.332226 
L 178.784865 127.630967 
L 179.142342 137.183412 
L 179.49982 126.85652 
L 179.857297 133.575788 
L 180.214775 134.068997 
L 180.572252 133.043789 
L 180.92973 134.486007 
L 181.287207 128.686654 
L 181.644685 136.023819 
L 182.002162 127.175165 
L 182.35964 125.358885 
L 182.717117 125.65952 
L 183.074595 132.377403 
L 183.432072 132.69882 
L 183.78955 135.041559 
L 184.504505 132.464685 
L 184.861982 129.78529 
L 185.219459 131.541997 
L 185.576937 124.620458 
L 185.934414 123.775354 
L 186.291892 123.951302 
L 186.649369 133.229434 
L 187.364324 124.607989 
L 187.721802 128.870915 
L 188.079279 129.154925 
L 188.436757 126.905009 
L 188.794234 125.975395 
L 189.151712 127.707165 
L 189.509189 127.305394 
L 189.866667 133.186486 
L 190.224144 121.126438 
L 190.581622 127.456405 
L 190.939099 123.000906 
L 191.296577 127.655905 
L 191.654054 125.254978 
L 192.011532 125.063791 
L 192.369009 126.668103 
L 192.726486 123.208719 
L 193.083964 124.070447 
L 193.441441 131.377133 
L 193.798919 128.460832 
L 194.156396 127.554769 
L 194.513874 129.311477 
L 194.871351 123.39575 
L 195.228829 124.62877 
L 195.586306 120.009792 
L 195.943784 120.881219 
L 196.301261 128.996988 
L 196.658739 119.012293 
L 197.016216 124.222843 
L 197.373694 125.153843 
L 197.731171 125.55977 
L 198.088649 126.244166 
L 198.446126 129.4708 
L 198.803604 123.502427 
L 199.161081 124.540104 
L 199.518559 120.259167 
L 199.876036 128.341686 
L 200.233514 119.358647 
L 200.590991 119.577543 
L 200.948468 127.442551 
L 201.305946 125.516822 
L 201.663423 120.012563 
L 202.020901 125.756499 
L 202.378378 123.598021 
L 202.735856 125.947687 
L 203.450811 124.321208 
L 203.808288 117.158606 
L 204.165766 120.522396 
L 204.523243 125.170468 
L 205.238198 120.676178 
L 205.595676 117.654585 
L 205.953153 123.215646 
L 206.310631 113.729701 
L 206.668108 119.693918 
L 207.025586 113.671513 
L 207.383063 125.099812 
L 207.740541 114.671784 
L 208.098018 118.895918 
L 208.455495 118.564803 
L 208.812973 124.516552 
L 209.17045 112.582576 
L 209.527928 114.547096 
L 209.885405 118.494147 
L 210.242883 123.717166 
L 210.60036 119.246428 
L 210.957838 119.603866 
L 211.315315 122.999521 
L 211.672793 119.024762 
L 212.03027 119.749334 
L 212.387748 116.625221 
L 212.745225 121.463094 
L 213.102703 116.95495 
L 213.46018 122.54649 
L 213.817658 119.441772 
L 214.175135 123.060479 
L 214.89009 117.101804 
L 215.247568 119.732709 
L 215.605045 109.946129 
L 215.962523 118.242001 
L 216.32 118.348678 
L 216.677477 113.544055 
L 217.034955 118.183814 
L 217.392432 118.411022 
L 217.74991 119.705001 
L 218.107387 111.69868 
L 218.464865 121.562844 
L 218.822342 118.732439 
L 219.17982 108.463733 
L 219.537297 120.530709 
L 219.894775 110.23291 
L 220.252252 111.704222 
L 220.60973 110.130389 
L 220.967207 113.154753 
L 221.324685 114.407169 
L 221.682162 112.859659 
L 222.03964 117.795897 
L 222.397117 109.106567 
L 222.754595 118.215678 
L 223.112072 118.665939 
L 223.46955 118.117314 
L 223.827027 110.404702 
L 224.184505 115.257815 
L 224.541982 109.429369 
L 224.899459 112.525774 
L 225.256937 113.659044 
L 225.614414 111.526889 
L 225.971892 117.244502 
L 226.329369 116.186044 
L 226.686847 112.456503 
L 227.044324 105.202464 
L 227.401802 106.996578 
L 227.759279 107.622786 
L 228.116757 117.042231 
L 228.474234 111.939743 
L 228.831712 113.866857 
L 229.189189 108.607817 
L 229.546667 112.805628 
L 229.904144 104.728651 
L 230.261622 112.309649 
L 230.619099 111.810899 
L 230.976577 108.049494 
L 231.334054 107.38588 
L 231.691532 113.568992 
L 232.049009 115.419908 
L 232.406486 111.691753 
L 232.763964 103.707599 
L 233.121441 105.692901 
L 233.478919 110.645764 
L 233.836396 102.780756 
L 234.193874 112.100451 
L 234.551351 107.431598 
L 234.908829 106.316338 
L 235.266306 110.088827 
L 235.981261 103.484547 
L 236.338739 105.198307 
L 236.696216 102.888818 
L 237.053694 110.08467 
L 237.411171 114.659315 
L 237.768649 105.65688 
L 238.126126 112.651847 
L 238.483604 106.13762 
L 238.841081 112.194659 
L 239.198559 103.994381 
L 239.556036 100.986642 
L 239.913514 111.612785 
L 240.270991 101.672423 
L 240.628468 108.300254 
L 241.343423 111.086326 
L 241.700901 103.262881 
L 242.058378 106.12238 
L 242.415856 112.417711 
L 242.773333 101.339923 
L 243.130811 101.112715 
L 243.488288 105.185839 
L 243.845766 100.550236 
L 244.203243 110.43241 
L 244.560721 110.462889 
L 244.918198 98.938997 
L 245.275676 98.920986 
L 245.633153 103.902943 
L 245.990631 99.695434 
L 246.348108 100.263455 
L 246.705586 102.703173 
L 247.063063 106.766599 
L 247.420541 99.324142 
L 247.778018 97.70182 
L 248.135495 109.210473 
L 248.85045 99.728684 
L 249.207928 103.539964 
L 249.565405 103.501172 
L 249.922883 102.117142 
L 250.28036 109.545744 
L 250.995315 102.563246 
L 251.352793 98.840632 
L 251.71027 100.208038 
L 252.067748 106.873276 
L 252.425225 102.527225 
L 252.782703 107.876317 
L 253.14018 103.950047 
L 253.497658 96.941227 
L 253.855135 95.742841 
L 254.212613 108.454036 
L 254.57009 101.94535 
L 254.927568 100.990798 
L 255.285045 101.464611 
L 255.642523 107.977452 
L 256.357477 96.878883 
L 256.714955 94.940685 
L 257.072432 105.286974 
L 257.787387 95.910477 
L 258.144865 107.559057 
L 258.502342 94.045707 
L 258.85982 100.990798 
L 259.217297 102.898516 
L 259.574775 93.581592 
L 259.932252 98.598184 
L 260.28973 105.90764 
L 260.647207 99.091393 
L 261.004685 94.570779 
L 261.362162 106.33989 
L 261.71964 105.497557 
L 262.077117 97.564664 
L 262.434595 92.789134 
L 262.792072 93.042665 
L 263.14955 104.116297 
L 263.507027 94.900508 
L 263.864505 97.167049 
L 264.221982 93.328061 
L 264.579459 104.817318 
L 264.936937 98.907132 
L 265.294414 101.902402 
L 265.651892 101.617006 
L 266.009369 99.775788 
L 266.366847 102.157319 
L 266.724324 91.856749 
L 267.081802 97.053445 
L 267.439279 98.355737 
L 267.796757 104.603964 
L 268.154234 104.350433 
L 268.511712 103.156204 
L 268.869189 104.292245 
L 269.226667 102.372058 
L 269.584144 93.592675 
L 270.299099 103.988839 
L 271.014054 91.291499 
L 271.371532 102.807079 
L 271.729009 97.025737 
L 272.086486 100.102746 
L 272.443964 98.829549 
L 272.801441 102.12961 
L 273.158919 97.428893 
L 273.516396 100.266226 
L 273.873874 101.734767 
L 274.588829 88.224187 
L 274.946306 95.843977 
L 275.303784 100.575173 
L 275.661261 92.200332 
L 276.018739 98.195028 
L 276.376216 90.776124 
L 276.733694 94.38929 
L 277.091171 99.809038 
L 277.448649 97.647789 
L 277.806126 96.822081 
L 278.163604 94.408686 
L 278.521081 94.652519 
L 278.878559 99.779944 
L 279.236036 99.61508 
L 279.593514 96.860872 
L 279.950991 89.477989 
L 280.308468 88.292073 
L 280.665946 93.283728 
L 281.023423 88.824073 
L 281.380901 93.792175 
L 281.738378 87.33475 
L 282.095856 95.159581 
L 282.453333 99.770246 
L 282.810811 89.328364 
L 283.168288 98.365434 
L 283.525766 89.110854 
L 283.883243 98.232434 
L 284.240721 96.855331 
L 284.598198 99.168976 
L 284.955676 91.781936 
L 285.313153 87.474677 
L 285.670631 97.837591 
L 286.028108 86.381584 
L 286.385586 92.651978 
L 286.743063 96.297008 
L 287.100541 95.83705 
L 287.458018 95.928487 
L 287.815495 86.409292 
L 288.172973 91.118322 
L 288.53045 93.190905 
L 288.887928 93.745071 
L 289.245405 84.669209 
L 289.602883 87.505156 
L 289.96036 89.133021 
L 290.317838 92.093655 
L 290.675315 89.46275 
L 291.032793 83.343366 
L 291.39027 87.53425 
L 291.747748 85.392397 
L 292.105225 85.961803 
L 292.462703 95.424196 
L 292.82018 88.303156 
L 293.177658 84.597168 
L 293.535135 82.298762 
L 293.892613 95.942341 
L 294.25009 91.889999 
L 294.607568 93.864217 
L 294.965045 84.856241 
L 295.322523 84.918584 
L 296.037477 94.929602 
L 296.394955 86.115584 
L 296.752432 95.924331 
L 297.10991 90.273218 
L 297.467387 89.448895 
L 297.824865 84.166303 
L 298.182342 83.247772 
L 298.53982 92.369353 
L 298.897297 83.027491 
L 299.254775 82.273825 
L 299.612252 82.95822 
L 299.96973 87.128323 
L 300.327207 89.681645 
L 300.684685 82.636804 
L 301.042162 82.808595 
L 301.39964 81.022794 
L 301.757117 81.740439 
L 302.114595 94.674686 
L 302.472072 94.518133 
L 302.82955 82.074325 
L 303.187027 93.598217 
L 303.544505 93.014957 
L 303.901982 87.025802 
L 304.259459 87.186511 
L 304.616937 94.314477 
L 304.974414 83.698033 
L 305.331892 86.83323 
L 306.046847 90.058479 
L 306.404324 81.529856 
L 306.761802 83.034418 
L 307.119279 79.8632 
L 307.476757 81.139169 
L 307.834234 80.198471 
L 308.191712 88.078719 
L 308.549189 80.076555 
L 308.906667 82.261356 
L 309.264144 92.254363 
L 309.621622 82.005054 
L 309.979099 82.07571 
L 310.336577 81.534012 
L 310.694054 90.285687 
L 311.051532 80.09318 
L 311.409009 83.916928 
L 311.766486 80.683367 
L 312.123964 83.97096 
L 312.481441 89.543104 
L 312.838919 86.79998 
L 313.196396 86.104501 
L 313.553874 82.309846 
L 313.911351 87.074292 
L 314.268829 79.742669 
L 314.626306 91.719593 
L 314.983784 85.63623 
L 315.341261 82.14221 
L 315.698739 80.331471 
L 316.056216 87.025802 
L 316.413694 89.192593 
L 316.771171 75.989577 
L 317.128649 85.262168 
L 317.486126 90.964541 
L 317.843604 81.682252 
L 318.201081 81.712731 
L 318.916036 77.925003 
L 319.273514 88.031615 
L 319.630991 80.468627 
L 319.988468 88.922437 
L 320.345946 78.18269 
L 320.703423 88.602406 
L 321.060901 78.274128 
L 321.418378 76.747399 
L 321.775856 79.659544 
L 322.490811 89.558343 
L 322.848288 74.17191 
L 323.205766 85.029418 
L 323.563243 84.471095 
L 323.920721 79.508534 
L 324.278198 87.523167 
L 324.635676 85.262168 
L 324.993153 80.217867 
L 325.350631 88.008063 
L 325.708108 80.832992 
L 326.423063 74.230098 
L 326.780541 88.346104 
L 327.138018 79.372763 
L 327.495495 87.717125 
L 327.852973 80.524044 
L 328.21045 87.44974 
L 328.567928 82.699147 
L 328.925405 80.458929 
L 329.282883 82.600783 
L 329.64036 83.470824 
L 329.997838 77.627139 
L 330.712793 83.914158 
L 331.07027 73.419629 
L 331.427748 80.337013 
L 331.785225 81.524314 
L 332.142703 83.975116 
L 332.50018 77.343128 
L 332.857658 74.728848 
L 333.215135 83.335054 
L 333.572613 76.96491 
L 333.93009 73.00539 
L 334.287568 85.240001 
L 334.645045 85.392397 
L 335.002523 72.164442 
L 335.36 73.624671 
L 335.717477 85.041886 
L 336.074955 81.140554 
L 336.432432 71.73912 
L 336.78991 81.585273 
L 337.147387 75.141702 
L 337.504865 82.983158 
L 337.862342 82.422064 
L 338.21982 70.416047 
L 338.577297 83.077366 
L 338.934775 77.591118 
L 339.292252 74.580608 
L 339.64973 81.964877 
L 340.007207 84.821605 
L 340.364685 74.825827 
L 340.722162 74.946358 
L 341.07964 72.708911 
L 341.437117 75.806702 
L 341.794595 74.047223 
L 342.152072 79.890909 
L 342.50955 78.227024 
L 342.867027 83.517928 
L 343.224505 74.73716 
L 343.581982 83.319814 
L 343.939459 71.640755 
L 344.296937 70.420203 
L 344.654414 76.022827 
L 345.011892 75.16941 
L 345.369369 79.547326 
L 345.726847 73.127307 
L 346.084324 76.211243 
L 346.441802 68.727225 
L 346.799279 75.432639 
L 347.156757 73.825556 
L 347.514234 78.903107 
L 347.871712 79.220367 
L 348.229189 69.879891 
L 348.586667 74.78565 
L 348.944144 81.863741 
L 349.301622 74.713608 
L 349.659099 70.241485 
L 350.016577 67.889048 
L 350.374054 80.122273 
L 350.731532 75.712493 
L 351.089009 69.304943 
L 351.446486 78.944669 
L 351.803964 69.874349 
L 352.161441 72.078547 
L 352.518919 77.909763 
L 352.876396 73.635754 
L 353.233874 76.05192 
L 353.591351 67.756048 
L 353.948829 67.848871 
L 354.306306 74.950514 
L 354.663784 66.5161 
L 355.021261 79.472513 
L 355.378739 68.382256 
L 356.093694 76.335931 
L 356.451171 68.890704 
L 356.808649 67.900131 
L 357.166126 80.903648 
L 357.523604 66.485621 
L 357.881081 68.621933 
L 358.238559 78.738242 
L 358.596036 67.092433 
L 358.953514 79.212055 
L 359.310991 68.07885 
L 359.668468 70.041985 
L 360.025946 78.016441 
L 360.383423 78.132816 
L 360.740901 67.69786 
L 361.098378 72.65765 
L 361.455856 72.592536 
L 361.813333 67.352892 
L 362.170811 68.655183 
L 362.885766 65.184715 
L 363.243243 73.249223 
L 363.600721 71.751588 
L 363.958198 74.933889 
L 364.315676 75.68617 
L 364.673153 68.802037 
L 365.030631 75.888441 
L 365.388108 74.829983 
L 365.745586 70.32461 
L 366.103063 77.844649 
L 366.460541 77.83218 
L 366.818018 68.089933 
L 367.175495 79.41294 
L 367.532973 67.977714 
L 367.89045 69.419933 
L 368.247928 67.965246 
L 368.605405 67.000996 
L 368.962883 74.163598 
L 369.32036 66.086621 
L 369.677838 72.713067 
L 370.035315 63.710632 
L 370.392793 73.214588 
L 370.75027 69.935308 
L 371.465225 75.972952 
L 371.822703 63.455716 
L 372.18018 69.14562 
L 372.537658 69.54462 
L 372.895135 72.049453 
L 373.252613 68.235402 
L 373.967568 74.403275 
L 374.325045 70.884318 
L 374.682523 75.80116 
L 375.04 73.516609 
L 375.397477 65.162549 
L 375.754955 67.161704 
L 376.112432 70.417432 
L 376.46991 74.879858 
L 376.827387 62.817039 
L 377.184865 69.874349 
L 377.542342 74.473931 
L 377.89982 73.473661 
L 378.257297 61.327716 
L 378.614775 68.046985 
L 378.972252 71.462036 
L 379.32973 61.4053 
L 379.687207 64.041747 
L 380.402162 73.876817 
L 380.75964 75.841337 
L 381.117117 74.491942 
L 381.474595 60.784633 
L 381.832072 64.555736 
L 382.18955 64.147038 
L 382.547027 75.608587 
L 382.904505 61.868029 
L 383.261982 68.933652 
L 383.619459 66.366475 
L 383.976937 72.873775 
L 384.334414 66.347079 
L 384.691892 68.634402 
L 385.049369 68.243714 
L 385.406847 73.078817 
L 385.764324 69.126224 
L 386.121802 68.885162 
L 386.479279 59.997717 
L 386.836757 67.887662 
L 387.194234 67.445715 
L 387.551712 63.519445 
L 387.909189 71.002078 
L 388.266667 70.461766 
L 388.624144 60.188904 
L 388.981622 67.509444 
L 389.339099 67.201881 
L 389.696577 68.03036 
L 390.054054 58.696811 
L 390.411532 66.596454 
L 390.769009 65.736111 
L 391.126486 74.412973 
L 391.483964 58.408644 
L 391.841441 65.096049 
L 392.198919 62.309977 
L 392.556396 63.810382 
L 392.913874 61.222425 
L 393.271351 66.344309 
L 393.628829 62.096622 
L 393.986306 60.193061 
L 394.343784 72.618859 
L 394.701261 65.902361 
L 395.058739 73.233984 
L 395.416216 66.88185 
L 395.773694 70.623859 
L 396.131171 58.721748 
L 396.488649 60.362081 
L 396.846126 72.513567 
L 397.203604 63.191101 
L 397.561081 65.995184 
L 397.918559 70.215162 
L 398.276036 64.875767 
L 398.633514 66.437132 
L 398.990991 69.717797 
L 399.348468 56.805718 
L 399.705946 61.013227 
L 400.063423 60.8733 
L 400.420901 60.395331 
L 400.778378 57.268447 
L 401.135856 65.263684 
L 401.493333 64.904861 
L 401.850811 69.259224 
L 402.208288 69.915912 
L 402.565766 66.787642 
L 402.923243 67.69786 
L 403.280721 62.841976 
L 403.638198 55.920437 
L 404.353153 70.820589 
L 404.710631 69.498901 
L 405.425586 58.976665 
L 405.783063 60.734758 
L 406.140541 56.832041 
L 406.498018 63.728643 
L 406.855495 56.161499 
L 407.212973 57.819842 
L 407.57045 57.001061 
L 407.927928 57.014916 
L 408.285405 64.414424 
L 408.642883 59.027925 
L 409.00036 66.36509 
L 409.357838 59.684613 
L 409.715315 58.203603 
L 410.072793 67.588412 
L 410.43027 65.00184 
L 410.787748 70.055839 
L 411.145225 64.012653 
L 411.502703 65.187486 
L 411.86018 56.449666 
L 412.217658 59.564082 
L 412.575135 56.324978 
L 413.29009 66.499475 
L 413.647568 64.112403 
L 414.005045 53.568 
L 414.362523 65.222121 
L 414.72 66.348465 
L 414.72 66.348465 
" style="fill:none;stroke:#1f77b4;stroke-linecap:square;stroke-width:1.5;"/>
   </g>
   <g id="patch_3">
    <path d="M 57.6 307.584 
L 57.6 41.472 
" style="fill:none;stroke:#000000;stroke-linecap:square;stroke-linejoin:miter;stroke-width:0.8;"/>
   </g>
   <g id="patch_4">
    <path d="M 414.72 307.584 
L 414.72 41.472 
" style="fill:none;stroke:#000000;stroke-linecap:square;stroke-linejoin:miter;stroke-width:0.8;"/>
   </g>
   <g id="patch_5">
    <path d="M 57.6 307.584 
L 414.72 307.584 
" style="fill:none;stroke:#000000;stroke-linecap:square;stroke-linejoin:miter;stroke-width:0.8;"/>
   </g>
   <g id="patch_6">
    <path d="M 57.6 41.472 
L 414.72 41.472 
" style="fill:none;stroke:#000000;stroke-linecap:square;stroke-linejoin:miter;stroke-width:0.8;"/>
   </g>
   <g id="legend_1">
    <g id="patch_7">
     <path d="M 64.6 64.150125 
L 125.246875 64.150125 
Q 127.246875 64.150125 127.246875 62.150125 
L 127.246875 48.472 
Q 127.246875 46.472 125.246875 46.472 
L 64.6 46.472 
Q 62.6 46.472 62.6 48.472 
L 62.6 62.150125 
Q 62.6 64.150125 64.6 64.150125 
z
" style="fill:#ffffff;opacity:0.8;stroke:#cccccc;stroke-linejoin:miter;"/>
    </g>
    <g id="line2d_16">
     <path d="M 66.6 54.570438 
L 86.6 54.570438 
" style="fill:none;stroke:#1f77b4;stroke-linecap:square;stroke-width:1.5;"/>
    </g>
    <g id="line2d_17"/>
    <g id="text_15">
     <!-- Theta -->
     <defs>
      <path d="M -0.296875 72.90625 
L 61.375 72.90625 
L 61.375 64.59375 
L 35.5 64.59375 
L 35.5 0 
L 25.59375 0 
L 25.59375 64.59375 
L -0.296875 64.59375 
z
" id="DejaVuSans-54"/>
      <path d="M 54.890625 33.015625 
L 54.890625 0 
L 45.90625 0 
L 45.90625 32.71875 
Q 45.90625 40.484375 42.875 44.328125 
Q 39.84375 48.1875 33.796875 48.1875 
Q 26.515625 48.1875 22.3125 43.546875 
Q 18.109375 38.921875 18.109375 30.90625 
L 18.109375 0 
L 9.078125 0 
L 9.078125 75.984375 
L 18.109375 75.984375 
L 18.109375 46.1875 
Q 21.34375 51.125 25.703125 53.5625 
Q 30.078125 56 35.796875 56 
Q 45.21875 56 50.046875 50.171875 
Q 54.890625 44.34375 54.890625 33.015625 
" id="DejaVuSans-68"/>
      <path d="M 56.203125 29.59375 
L 56.203125 25.203125 
L 14.890625 25.203125 
Q 15.484375 15.921875 20.484375 11.0625 
Q 25.484375 6.203125 34.421875 6.203125 
Q 39.59375 6.203125 44.453125 7.46875 
Q 49.3125 8.734375 54.109375 11.28125 
L 54.109375 2.78125 
Q 49.265625 0.734375 44.1875 -0.34375 
Q 39.109375 -1.421875 33.890625 -1.421875 
Q 20.796875 -1.421875 13.15625 6.1875 
Q 5.515625 13.8125 5.515625 26.8125 
Q 5.515625 40.234375 12.765625 48.109375 
Q 20.015625 56 32.328125 56 
Q 43.359375 56 49.78125 48.890625 
Q 56.203125 41.796875 56.203125 29.59375 
M 47.21875 32.234375 
Q 47.125 39.59375 43.09375 43.984375 
Q 39.0625 48.390625 32.421875 48.390625 
Q 24.90625 48.390625 20.390625 44.140625 
Q 15.875 39.890625 15.1875 32.171875 
z
" id="DejaVuSans-65"/>
      <path d="M 18.3125 70.21875 
L 18.3125 54.6875 
L 36.8125 54.6875 
L 36.8125 47.703125 
L 18.3125 47.703125 
L 18.3125 18.015625 
Q 18.3125 11.328125 20.140625 9.421875 
Q 21.96875 7.515625 27.59375 7.515625 
L 36.8125 7.515625 
L 36.8125 0 
L 27.59375 0 
Q 17.1875 0 13.234375 3.875 
Q 9.28125 7.765625 9.28125 18.015625 
L 9.28125 47.703125 
L 2.6875 47.703125 
L 2.6875 54.6875 
L 9.28125 54.6875 
L 9.28125 70.21875 
z
" id="DejaVuSans-74"/>
      <path d="M 34.28125 27.484375 
Q 23.390625 27.484375 19.1875 25 
Q 14.984375 22.515625 14.984375 16.5 
Q 14.984375 11.71875 18.140625 8.90625 
Q 21.296875 6.109375 26.703125 6.109375 
Q 34.1875 6.109375 38.703125 11.40625 
Q 43.21875 16.703125 43.21875 25.484375 
L 43.21875 27.484375 
z
M 52.203125 31.203125 
L 52.203125 0 
L 43.21875 0 
L 43.21875 8.296875 
Q 40.140625 3.328125 35.546875 0.953125 
Q 30.953125 -1.421875 24.3125 -1.421875 
Q 15.921875 -1.421875 10.953125 3.296875 
Q 6 8.015625 6 15.921875 
Q 6 25.140625 12.171875 29.828125 
Q 18.359375 34.515625 30.609375 34.515625 
L 43.21875 34.515625 
L 43.21875 35.40625 
Q 43.21875 41.609375 39.140625 45 
Q 35.0625 48.390625 27.6875 48.390625 
Q 23 48.390625 18.546875 47.265625 
Q 14.109375 46.140625 10.015625 43.890625 
L 10.015625 52.203125 
Q 14.9375 54.109375 19.578125 55.046875 
Q 24.21875 56 28.609375 56 
Q 40.484375 56 46.34375 49.84375 
Q 52.203125 43.703125 52.203125 31.203125 
" id="DejaVuSans-61"/>
     </defs>
     <g transform="translate(94.6 58.070438)scale(0.1 -0.1)">
      <use xlink:href="#DejaVuSans-54"/>
      <use x="61.083984" xlink:href="#DejaVuSans-68"/>
      <use x="124.462891" xlink:href="#DejaVuSans-65"/>
      <use x="185.986328" xlink:href="#DejaVuSans-74"/>
      <use x="225.195312" xlink:href="#DejaVuSans-61"/>
     </g>
    </g>
   </g>
  </g>
 </g>
 <defs>
  <clipPath id="p2998bdb387">
   <rect height="266.112" width="357.12" x="57.6" y="41.472"/>
  </clipPath>
 </defs>
</svg>
