<?xml version="1.0" encoding="utf-8" standalone="no"?>
<!DOCTYPE svg PUBLIC "-//W3C//DTD SVG 1.1//EN"
  "http://www.w3.org/Graphics/SVG/1.1/DTD/svg11.dtd">
<!-- Created with matplotlib (http://matplotlib.org/) -->
<svg height="345pt" version="1.1" viewBox="0 0 460 345" width="460pt" xmlns="http://www.w3.org/2000/svg" xmlns:xlink="http://www.w3.org/1999/xlink">
 <defs>
  <style type="text/css">
*{stroke-linecap:butt;stroke-linejoin:round;}
  </style>
 </defs>
 <g id="figure_1">
  <g id="patch_1">
   <path d="M 0 345.6 
L 460.8 345.6 
L 460.8 0 
L 0 0 
z
" style="fill:#ffffff;"/>
  </g>
  <g id="axes_1">
   <g id="patch_2">
    <path d="M 57.6 307.584 
L 414.72 307.584 
L 414.72 41.472 
L 57.6 41.472 
z
" style="fill:#ffffff;"/>
   </g>
   <g id="matplotlib.axis_1">
    <g id="xtick_1">
     <g id="line2d_1">
      <defs>
       <path d="M 0 0 
L 0 3.5 
" id="m09eab2cf03" style="stroke:#000000;stroke-width:0.8;"/>
      </defs>
      <g>
       <use style="stroke:#000000;stroke-width:0.8;" x="57.6" xlink:href="#m09eab2cf03" y="307.584"/>
      </g>
     </g>
     <g id="text_1">
      <!-- 0 -->
      <defs>
       <path d="M 31.78125 66.40625 
Q 24.171875 66.40625 20.328125 58.90625 
Q 16.5 51.421875 16.5 36.375 
Q 16.5 21.390625 20.328125 13.890625 
Q 24.171875 6.390625 31.78125 6.390625 
Q 39.453125 6.390625 43.28125 13.890625 
Q 47.125 21.390625 47.125 36.375 
Q 47.125 51.421875 43.28125 58.90625 
Q 39.453125 66.40625 31.78125 66.40625 
M 31.78125 74.21875 
Q 44.046875 74.21875 50.515625 64.515625 
Q 56.984375 54.828125 56.984375 36.375 
Q 56.984375 17.96875 50.515625 8.265625 
Q 44.046875 -1.421875 31.78125 -1.421875 
Q 19.53125 -1.421875 13.0625 8.265625 
Q 6.59375 17.96875 6.59375 36.375 
Q 6.59375 54.828125 13.0625 64.515625 
Q 19.53125 74.21875 31.78125 74.21875 
" id="DejaVuSans-30"/>
      </defs>
      <g transform="translate(54.41875 322.182437)scale(0.1 -0.1)">
       <use xlink:href="#DejaVuSans-30"/>
      </g>
     </g>
    </g>
    <g id="xtick_2">
     <g id="line2d_2">
      <g>
       <use style="stroke:#000000;stroke-width:0.8;" x="129.095495" xlink:href="#m09eab2cf03" y="307.584"/>
      </g>
     </g>
     <g id="text_2">
      <!-- 200 -->
      <defs>
       <path d="M 19.1875 8.296875 
L 53.609375 8.296875 
L 53.609375 0 
L 7.328125 0 
L 7.328125 8.296875 
Q 12.9375 14.109375 22.625 23.890625 
Q 32.328125 33.6875 34.8125 36.53125 
Q 39.546875 41.84375 41.421875 45.53125 
Q 43.3125 49.21875 43.3125 52.78125 
Q 43.3125 58.59375 39.234375 62.25 
Q 35.15625 65.921875 28.609375 65.921875 
Q 23.96875 65.921875 18.8125 64.3125 
Q 13.671875 62.703125 7.8125 59.421875 
L 7.8125 69.390625 
Q 13.765625 71.78125 18.9375 73 
Q 24.125 74.21875 28.421875 74.21875 
Q 39.75 74.21875 46.484375 68.546875 
Q 53.21875 62.890625 53.21875 53.421875 
Q 53.21875 48.921875 51.53125 44.890625 
Q 49.859375 40.875 45.40625 35.40625 
Q 44.1875 33.984375 37.640625 27.21875 
Q 31.109375 20.453125 19.1875 8.296875 
" id="DejaVuSans-32"/>
      </defs>
      <g transform="translate(119.551745 322.182437)scale(0.1 -0.1)">
       <use xlink:href="#DejaVuSans-32"/>
       <use x="63.623047" xlink:href="#DejaVuSans-30"/>
       <use x="127.246094" xlink:href="#DejaVuSans-30"/>
      </g>
     </g>
    </g>
    <g id="xtick_3">
     <g id="line2d_3">
      <g>
       <use style="stroke:#000000;stroke-width:0.8;" x="200.590991" xlink:href="#m09eab2cf03" y="307.584"/>
      </g>
     </g>
     <g id="text_3">
      <!-- 400 -->
      <defs>
       <path d="M 37.796875 64.3125 
L 12.890625 25.390625 
L 37.796875 25.390625 
z
M 35.203125 72.90625 
L 47.609375 72.90625 
L 47.609375 25.390625 
L 58.015625 25.390625 
L 58.015625 17.1875 
L 47.609375 17.1875 
L 47.609375 0 
L 37.796875 0 
L 37.796875 17.1875 
L 4.890625 17.1875 
L 4.890625 26.703125 
z
" id="DejaVuSans-34"/>
      </defs>
      <g transform="translate(191.047241 322.182437)scale(0.1 -0.1)">
       <use xlink:href="#DejaVuSans-34"/>
       <use x="63.623047" xlink:href="#DejaVuSans-30"/>
       <use x="127.246094" xlink:href="#DejaVuSans-30"/>
      </g>
     </g>
    </g>
    <g id="xtick_4">
     <g id="line2d_4">
      <g>
       <use style="stroke:#000000;stroke-width:0.8;" x="272.086486" xlink:href="#m09eab2cf03" y="307.584"/>
      </g>
     </g>
     <g id="text_4">
      <!-- 600 -->
      <defs>
       <path d="M 33.015625 40.375 
Q 26.375 40.375 22.484375 35.828125 
Q 18.609375 31.296875 18.609375 23.390625 
Q 18.609375 15.53125 22.484375 10.953125 
Q 26.375 6.390625 33.015625 6.390625 
Q 39.65625 6.390625 43.53125 10.953125 
Q 47.40625 15.53125 47.40625 23.390625 
Q 47.40625 31.296875 43.53125 35.828125 
Q 39.65625 40.375 33.015625 40.375 
M 52.59375 71.296875 
L 52.59375 62.3125 
Q 48.875 64.0625 45.09375 64.984375 
Q 41.3125 65.921875 37.59375 65.921875 
Q 27.828125 65.921875 22.671875 59.328125 
Q 17.53125 52.734375 16.796875 39.40625 
Q 19.671875 43.65625 24.015625 45.921875 
Q 28.375 48.1875 33.59375 48.1875 
Q 44.578125 48.1875 50.953125 41.515625 
Q 57.328125 34.859375 57.328125 23.390625 
Q 57.328125 12.15625 50.6875 5.359375 
Q 44.046875 -1.421875 33.015625 -1.421875 
Q 20.359375 -1.421875 13.671875 8.265625 
Q 6.984375 17.96875 6.984375 36.375 
Q 6.984375 53.65625 15.1875 63.9375 
Q 23.390625 74.21875 37.203125 74.21875 
Q 40.921875 74.21875 44.703125 73.484375 
Q 48.484375 72.75 52.59375 71.296875 
" id="DejaVuSans-36"/>
      </defs>
      <g transform="translate(262.542736 322.182437)scale(0.1 -0.1)">
       <use xlink:href="#DejaVuSans-36"/>
       <use x="63.623047" xlink:href="#DejaVuSans-30"/>
       <use x="127.246094" xlink:href="#DejaVuSans-30"/>
      </g>
     </g>
    </g>
    <g id="xtick_5">
     <g id="line2d_5">
      <g>
       <use style="stroke:#000000;stroke-width:0.8;" x="343.581982" xlink:href="#m09eab2cf03" y="307.584"/>
      </g>
     </g>
     <g id="text_5">
      <!-- 800 -->
      <defs>
       <path d="M 31.78125 34.625 
Q 24.75 34.625 20.71875 30.859375 
Q 16.703125 27.09375 16.703125 20.515625 
Q 16.703125 13.921875 20.71875 10.15625 
Q 24.75 6.390625 31.78125 6.390625 
Q 38.8125 6.390625 42.859375 10.171875 
Q 46.921875 13.96875 46.921875 20.515625 
Q 46.921875 27.09375 42.890625 30.859375 
Q 38.875 34.625 31.78125 34.625 
M 21.921875 38.8125 
Q 15.578125 40.375 12.03125 44.71875 
Q 8.5 49.078125 8.5 55.328125 
Q 8.5 64.0625 14.71875 69.140625 
Q 20.953125 74.21875 31.78125 74.21875 
Q 42.671875 74.21875 48.875 69.140625 
Q 55.078125 64.0625 55.078125 55.328125 
Q 55.078125 49.078125 51.53125 44.71875 
Q 48 40.375 41.703125 38.8125 
Q 48.828125 37.15625 52.796875 32.3125 
Q 56.78125 27.484375 56.78125 20.515625 
Q 56.78125 9.90625 50.3125 4.234375 
Q 43.84375 -1.421875 31.78125 -1.421875 
Q 19.734375 -1.421875 13.25 4.234375 
Q 6.78125 9.90625 6.78125 20.515625 
Q 6.78125 27.484375 10.78125 32.3125 
Q 14.796875 37.15625 21.921875 38.8125 
M 18.3125 54.390625 
Q 18.3125 48.734375 21.84375 45.5625 
Q 25.390625 42.390625 31.78125 42.390625 
Q 38.140625 42.390625 41.71875 45.5625 
Q 45.3125 48.734375 45.3125 54.390625 
Q 45.3125 60.0625 41.71875 63.234375 
Q 38.140625 66.40625 31.78125 66.40625 
Q 25.390625 66.40625 21.84375 63.234375 
Q 18.3125 60.0625 18.3125 54.390625 
" id="DejaVuSans-38"/>
      </defs>
      <g transform="translate(334.038232 322.182437)scale(0.1 -0.1)">
       <use xlink:href="#DejaVuSans-38"/>
       <use x="63.623047" xlink:href="#DejaVuSans-30"/>
       <use x="127.246094" xlink:href="#DejaVuSans-30"/>
      </g>
     </g>
    </g>
    <g id="xtick_6">
     <g id="line2d_6">
      <g>
       <use style="stroke:#000000;stroke-width:0.8;" x="415.077477" xlink:href="#m09eab2cf03" y="307.584"/>
      </g>
     </g>
     <g id="text_6">
      <!-- 1000 -->
      <defs>
       <path d="M 12.40625 8.296875 
L 28.515625 8.296875 
L 28.515625 63.921875 
L 10.984375 60.40625 
L 10.984375 69.390625 
L 28.421875 72.90625 
L 38.28125 72.90625 
L 38.28125 8.296875 
L 54.390625 8.296875 
L 54.390625 0 
L 12.40625 0 
z
" id="DejaVuSans-31"/>
      </defs>
      <g transform="translate(402.352477 322.182437)scale(0.1 -0.1)">
       <use xlink:href="#DejaVuSans-31"/>
       <use x="63.623047" xlink:href="#DejaVuSans-30"/>
       <use x="127.246094" xlink:href="#DejaVuSans-30"/>
       <use x="190.869141" xlink:href="#DejaVuSans-30"/>
      </g>
     </g>
    </g>
   </g>
   <g id="matplotlib.axis_2">
    <g id="ytick_1">
     <g id="line2d_7">
      <defs>
       <path d="M 0 0 
L -3.5 0 
" id="m9d69653a0a" style="stroke:#000000;stroke-width:0.8;"/>
      </defs>
      <g>
       <use style="stroke:#000000;stroke-width:0.8;" x="57.6" xlink:href="#m9d69653a0a" y="285.288497"/>
      </g>
     </g>
     <g id="text_7">
      <!-- 0.075 -->
      <defs>
       <path d="M 10.6875 12.40625 
L 21 12.40625 
L 21 0 
L 10.6875 0 
z
" id="DejaVuSans-2e"/>
       <path d="M 8.203125 72.90625 
L 55.078125 72.90625 
L 55.078125 68.703125 
L 28.609375 0 
L 18.3125 0 
L 43.21875 64.59375 
L 8.203125 64.59375 
z
" id="DejaVuSans-37"/>
       <path d="M 10.796875 72.90625 
L 49.515625 72.90625 
L 49.515625 64.59375 
L 19.828125 64.59375 
L 19.828125 46.734375 
Q 21.96875 47.46875 24.109375 47.828125 
Q 26.265625 48.1875 28.421875 48.1875 
Q 40.625 48.1875 47.75 41.5 
Q 54.890625 34.8125 54.890625 23.390625 
Q 54.890625 11.625 47.5625 5.09375 
Q 40.234375 -1.421875 26.90625 -1.421875 
Q 22.3125 -1.421875 17.546875 -0.640625 
Q 12.796875 0.140625 7.71875 1.703125 
L 7.71875 11.625 
Q 12.109375 9.234375 16.796875 8.0625 
Q 21.484375 6.890625 26.703125 6.890625 
Q 35.15625 6.890625 40.078125 11.328125 
Q 45.015625 15.765625 45.015625 23.390625 
Q 45.015625 31 40.078125 35.4375 
Q 35.15625 39.890625 26.703125 39.890625 
Q 22.75 39.890625 18.8125 39.015625 
Q 14.890625 38.140625 10.796875 36.28125 
z
" id="DejaVuSans-35"/>
      </defs>
      <g transform="translate(21.971875 289.087716)scale(0.1 -0.1)">
       <use xlink:href="#DejaVuSans-30"/>
       <use x="63.623047" xlink:href="#DejaVuSans-2e"/>
       <use x="95.410156" xlink:href="#DejaVuSans-30"/>
       <use x="159.033203" xlink:href="#DejaVuSans-37"/>
       <use x="222.65625" xlink:href="#DejaVuSans-35"/>
      </g>
     </g>
    </g>
    <g id="ytick_2">
     <g id="line2d_8">
      <g>
       <use style="stroke:#000000;stroke-width:0.8;" x="57.6" xlink:href="#m9d69653a0a" y="252.382628"/>
      </g>
     </g>
     <g id="text_8">
      <!-- 0.100 -->
      <g transform="translate(21.971875 256.181847)scale(0.1 -0.1)">
       <use xlink:href="#DejaVuSans-30"/>
       <use x="63.623047" xlink:href="#DejaVuSans-2e"/>
       <use x="95.410156" xlink:href="#DejaVuSans-31"/>
       <use x="159.033203" xlink:href="#DejaVuSans-30"/>
       <use x="222.65625" xlink:href="#DejaVuSans-30"/>
      </g>
     </g>
    </g>
    <g id="ytick_3">
     <g id="line2d_9">
      <g>
       <use style="stroke:#000000;stroke-width:0.8;" x="57.6" xlink:href="#m9d69653a0a" y="219.476759"/>
      </g>
     </g>
     <g id="text_9">
      <!-- 0.125 -->
      <g transform="translate(21.971875 223.275978)scale(0.1 -0.1)">
       <use xlink:href="#DejaVuSans-30"/>
       <use x="63.623047" xlink:href="#DejaVuSans-2e"/>
       <use x="95.410156" xlink:href="#DejaVuSans-31"/>
       <use x="159.033203" xlink:href="#DejaVuSans-32"/>
       <use x="222.65625" xlink:href="#DejaVuSans-35"/>
      </g>
     </g>
    </g>
    <g id="ytick_4">
     <g id="line2d_10">
      <g>
       <use style="stroke:#000000;stroke-width:0.8;" x="57.6" xlink:href="#m9d69653a0a" y="186.57089"/>
      </g>
     </g>
     <g id="text_10">
      <!-- 0.150 -->
      <g transform="translate(21.971875 190.370109)scale(0.1 -0.1)">
       <use xlink:href="#DejaVuSans-30"/>
       <use x="63.623047" xlink:href="#DejaVuSans-2e"/>
       <use x="95.410156" xlink:href="#DejaVuSans-31"/>
       <use x="159.033203" xlink:href="#DejaVuSans-35"/>
       <use x="222.65625" xlink:href="#DejaVuSans-30"/>
      </g>
     </g>
    </g>
    <g id="ytick_5">
     <g id="line2d_11">
      <g>
       <use style="stroke:#000000;stroke-width:0.8;" x="57.6" xlink:href="#m9d69653a0a" y="153.665021"/>
      </g>
     </g>
     <g id="text_11">
      <!-- 0.175 -->
      <g transform="translate(21.971875 157.46424)scale(0.1 -0.1)">
       <use xlink:href="#DejaVuSans-30"/>
       <use x="63.623047" xlink:href="#DejaVuSans-2e"/>
       <use x="95.410156" xlink:href="#DejaVuSans-31"/>
       <use x="159.033203" xlink:href="#DejaVuSans-37"/>
       <use x="222.65625" xlink:href="#DejaVuSans-35"/>
      </g>
     </g>
    </g>
    <g id="ytick_6">
     <g id="line2d_12">
      <g>
       <use style="stroke:#000000;stroke-width:0.8;" x="57.6" xlink:href="#m9d69653a0a" y="120.759152"/>
      </g>
     </g>
     <g id="text_12">
      <!-- 0.200 -->
      <g transform="translate(21.971875 124.558371)scale(0.1 -0.1)">
       <use xlink:href="#DejaVuSans-30"/>
       <use x="63.623047" xlink:href="#DejaVuSans-2e"/>
       <use x="95.410156" xlink:href="#DejaVuSans-32"/>
       <use x="159.033203" xlink:href="#DejaVuSans-30"/>
       <use x="222.65625" xlink:href="#DejaVuSans-30"/>
      </g>
     </g>
    </g>
    <g id="ytick_7">
     <g id="line2d_13">
      <g>
       <use style="stroke:#000000;stroke-width:0.8;" x="57.6" xlink:href="#m9d69653a0a" y="87.853283"/>
      </g>
     </g>
     <g id="text_13">
      <!-- 0.225 -->
      <g transform="translate(21.971875 91.652502)scale(0.1 -0.1)">
       <use xlink:href="#DejaVuSans-30"/>
       <use x="63.623047" xlink:href="#DejaVuSans-2e"/>
       <use x="95.410156" xlink:href="#DejaVuSans-32"/>
       <use x="159.033203" xlink:href="#DejaVuSans-32"/>
       <use x="222.65625" xlink:href="#DejaVuSans-35"/>
      </g>
     </g>
    </g>
    <g id="ytick_8">
     <g id="line2d_14">
      <g>
       <use style="stroke:#000000;stroke-width:0.8;" x="57.6" xlink:href="#m9d69653a0a" y="54.947414"/>
      </g>
     </g>
     <g id="text_14">
      <!-- 0.250 -->
      <g transform="translate(21.971875 58.746633)scale(0.1 -0.1)">
       <use xlink:href="#DejaVuSans-30"/>
       <use x="63.623047" xlink:href="#DejaVuSans-2e"/>
       <use x="95.410156" xlink:href="#DejaVuSans-32"/>
       <use x="159.033203" xlink:href="#DejaVuSans-35"/>
       <use x="222.65625" xlink:href="#DejaVuSans-30"/>
      </g>
     </g>
    </g>
   </g>
   <g id="line2d_15">
    <path clip-path="url(#pd6065c9e5f)" d="M 57.6 187.408015 
L 57.957477 215.703114 
L 58.314955 209.672126 
L 58.672432 149.209566 
L 59.02991 239.949474 
L 59.387387 148.538287 
L 59.744865 211.657008 
L 60.102342 202.45916 
L 60.45982 162.150786 
L 60.817297 96.968209 
L 61.174775 142.703418 
L 61.532252 110.743922 
L 62.247207 190.178689 
L 62.604685 295.488 
L 62.962162 121.935866 
L 63.31964 179.531666 
L 64.034595 216.504701 
L 64.392072 169.039959 
L 64.74955 260.753881 
L 65.107027 146.107201 
L 65.464505 282.329601 
L 65.821982 204.150521 
L 66.179459 220.561336 
L 66.536937 262.285978 
L 66.894414 187.385639 
L 67.251892 243.646778 
L 67.609369 153.765055 
L 67.966847 225.885506 
L 68.324324 181.182225 
L 68.681802 208.827103 
L 69.039279 161.665096 
L 69.396757 176.620155 
L 69.754234 170.343032 
L 70.111712 234.766142 
L 70.826667 159.287976 
L 71.184144 204.488794 
L 71.541622 168.849105 
L 71.899099 235.94154 
L 72.256577 224.15729 
L 72.614054 128.376203 
L 72.971532 165.742791 
L 73.329009 157.955946 
L 73.686486 190.635423 
L 74.043964 156.075047 
L 74.401441 195.750311 
L 75.116396 155.58804 
L 75.473874 198.307755 
L 75.831351 271.926082 
L 76.188829 181.016379 
L 76.546306 140.8291 
L 76.903784 237.746097 
L 77.261261 184.454384 
L 77.618739 170.919542 
L 77.976216 148.929208 
L 78.333694 174.991973 
L 78.691171 184.779494 
L 79.048649 187.667313 
L 79.406126 144.109157 
L 79.763604 186.016755 
L 80.121081 243.517787 
L 80.478559 193.037551 
L 80.836036 171.573711 
L 81.193514 183.66596 
L 81.550991 209.24435 
L 81.908468 199.497631 
L 82.265946 110.489888 
L 82.623423 154.866743 
L 82.980901 167.881673 
L 83.338378 213.052217 
L 84.053333 146.273047 
L 84.410811 173.050526 
L 84.768288 128.659193 
L 85.125766 218.031533 
L 85.483243 231.199146 
L 85.840721 221.086514 
L 86.198198 233.297224 
L 86.555676 91.390006 
L 86.913153 205.691832 
L 87.270631 167.409144 
L 87.628108 226.104001 
L 87.985586 200.662499 
L 88.343063 123.787808 
L 88.700541 119.24285 
L 89.058018 126.334722 
L 89.415495 189.257325 
L 89.772973 160.235665 
L 90.13045 278.482247 
L 90.487928 169.000472 
L 90.845405 108.037743 
L 91.56036 267.489054 
L 91.917838 231.329453 
L 92.275315 162.982647 
L 92.632793 196.438702 
L 93.347748 161.823044 
L 93.705225 167.193282 
L 94.062703 111.199339 
L 94.42018 139.736625 
L 94.777658 217.72485 
L 95.135135 201.412753 
L 95.492613 162.947108 
L 95.85009 203.812249 
L 96.207568 180.355629 
L 96.565045 106.396398 
L 96.922523 177.040034 
L 97.28 105.66852 
L 97.637477 172.351606 
L 97.994955 217.524783 
L 98.352432 155.585407 
L 98.70991 152.450136 
L 99.067387 197.523279 
L 99.424865 105.223633 
L 99.782342 162.919468 
L 100.13982 179.098625 
L 100.497297 124.988214 
L 100.854775 107.844257 
L 101.212252 243.799461 
L 101.56973 176.650429 
L 101.927207 257.211893 
L 102.284685 165.046503 
L 102.642162 197.861552 
L 102.99964 255.735078 
L 103.357117 263.150744 
L 103.714595 222.47909 
L 104.072072 142.879793 
L 104.42955 212.237468 
L 104.787027 231.86516 
L 105.144505 174.108779 
L 105.501982 234.691116 
L 105.859459 127.778632 
L 106.216937 224.423169 
L 106.574414 153.024015 
L 106.931892 204.125513 
L 107.289369 163.091894 
L 107.646847 181.444156 
L 108.004324 145.554382 
L 108.361802 126.97178 
L 108.719279 170.337767 
L 109.076757 172.991296 
L 109.434234 154.441599 
L 109.791712 202.460476 
L 110.149189 185.56397 
L 110.506667 117.951623 
L 110.864144 197.844441 
L 111.221622 170.25616 
L 111.579099 236.702323 
L 111.936577 223.3636 
L 112.294054 262.759823 
L 112.651532 59.621364 
L 113.009009 166.266653 
L 113.366486 197.899722 
L 113.723964 141.941318 
L 114.081441 234.505527 
L 114.438919 223.247771 
L 114.796396 156.026346 
L 115.153874 153.339911 
L 115.511351 226.139539 
L 115.868829 190.806533 
L 116.226306 135.76028 
L 116.583784 193.175756 
L 116.941261 156.760805 
L 117.298739 187.080273 
L 117.656216 173.287449 
L 118.013694 144.315805 
L 118.371171 223.583411 
L 118.728649 202.723723 
L 119.086126 197.102084 
L 119.443604 150.423135 
L 119.801081 226.072411 
L 120.158559 206.576342 
L 120.516036 170.328553 
L 120.873514 198.274849 
L 121.230991 265.498907 
L 121.588468 179.65276 
L 121.945946 66.863287 
L 122.303423 215.572807 
L 122.660901 127.291625 
L 123.018378 208.437498 
L 123.733333 132.00901 
L 124.090811 232.473261 
L 124.448288 171.976479 
L 124.805766 210.6672 
L 125.163243 145.53069 
L 125.878198 173.653362 
L 126.235676 180.800517 
L 126.593153 142.021608 
L 126.950631 206.19595 
L 127.308108 197.758885 
L 128.023063 133.185724 
L 128.380541 178.585294 
L 128.738018 84.269176 
L 129.095495 211.900512 
L 129.452973 197.661484 
L 129.81045 154.898333 
L 130.167928 128.605227 
L 130.525405 143.17463 
L 130.882883 183.215808 
L 131.24036 173.40591 
L 131.597838 213.64189 
L 131.955315 159.619667 
L 132.312793 179.913375 
L 132.67027 224.979936 
L 133.027748 114.214833 
L 133.385225 175.220998 
L 133.742703 160.110623 
L 134.10018 221.97234 
L 134.457658 160.55551 
L 134.815135 187.485673 
L 135.172613 159.361685 
L 135.53009 163.80661 
L 135.887568 132.676341 
L 136.245045 137.633282 
L 137.317477 232.009946 
L 137.674955 88.710152 
L 138.032432 169.022848 
L 138.38991 211.874187 
L 138.747387 212.119007 
L 139.81982 134.053123 
L 140.177297 172.038342 
L 140.534775 280.78829 
L 141.24973 191.652872 
L 141.607207 222.914764 
L 141.964685 98.742493 
L 142.322162 153.089826 
L 142.67964 236.873434 
L 143.037117 153.663705 
L 143.394595 223.628163 
L 144.10955 167.764528 
L 144.467027 180.865012 
L 144.824505 150.95621 
L 145.181982 157.43735 
L 145.539459 195.780585 
L 145.896937 196.309711 
L 146.254414 175.84226 
L 146.611892 177.975877 
L 146.969369 206.596086 
L 147.326847 190.374808 
L 147.684324 158.973396 
L 148.041802 150.756142 
L 148.399279 189.990468 
L 148.756757 173.133449 
L 149.114234 117.175045 
L 149.471712 207.255519 
L 149.829189 203.267328 
L 150.186667 173.570439 
L 150.544144 89.080014 
L 150.901622 223.19249 
L 151.616577 111.191442 
L 151.974054 147.365521 
L 152.331532 146.107201 
L 152.689009 140.660622 
L 153.046486 112.464241 
L 153.403964 179.067036 
L 153.761441 131.976105 
L 154.118919 173.151877 
L 154.476396 177.040034 
L 154.833874 191.750274 
L 155.191351 153.757157 
L 155.548829 143.94726 
L 155.906306 175.074896 
L 156.263784 169.150523 
L 156.621261 224.47187 
L 156.978739 191.789761 
L 157.336216 189.660093 
L 157.693694 87.021423 
L 158.051171 217.24969 
L 158.408649 148.901567 
L 158.766126 236.76287 
L 159.123604 152.719964 
L 159.481081 224.78645 
L 159.838559 160.592364 
L 160.196036 212.707364 
L 160.553514 209.091667 
L 160.910991 279.108775 
L 161.268468 175.75144 
L 161.625946 179.049925 
L 161.983423 125.885886 
L 162.340901 207.227878 
L 162.698378 106.376655 
L 163.055856 174.748469 
L 163.413333 126.100433 
L 163.770811 138.603347 
L 164.128288 166.897129 
L 164.485766 185.033528 
L 164.843243 177.602066 
L 165.200721 191.204036 
L 165.558198 179.53035 
L 165.915676 212.263792 
L 166.273153 131.510157 
L 166.630631 194.972416 
L 166.988108 149.546522 
L 167.345586 161.503199 
L 167.703063 182.377366 
L 168.060541 195.414671 
L 168.418018 267.510114 
L 169.132973 150.586348 
L 169.49045 115.71534 
L 169.847928 181.840342 
L 170.205405 152.705486 
L 170.562883 197.858919 
L 170.92036 143.756406 
L 171.277838 154.702214 
L 171.635315 191.360668 
L 171.992793 146.245406 
L 172.35027 214.451375 
L 172.707748 194.643358 
L 173.065225 119.063842 
L 173.422703 182.014085 
L 173.78018 164.194899 
L 174.137658 174.262779 
L 174.495135 219.484656 
L 175.21009 123.508766 
L 175.567568 188.924318 
L 175.925045 173.297979 
L 176.282523 112.835419 
L 176.64 182.727484 
L 176.997477 215.224004 
L 177.712432 122.454462 
L 178.06991 171.940941 
L 178.427387 130.957339 
L 178.784865 153.612372 
L 179.142342 205.10874 
L 179.49982 152.702853 
L 179.857297 132.374924 
L 180.214775 232.9629 
L 180.572252 145.630724 
L 180.92973 181.298053 
L 181.287207 124.921086 
L 181.644685 181.282259 
L 182.002162 158.489021 
L 182.35964 206.314411 
L 182.717117 213.949889 
L 183.074595 187.209264 
L 183.432072 200.064929 
L 183.78955 167.040599 
L 184.147027 73.216752 
L 184.504505 217.524783 
L 184.861982 176.936051 
L 185.219459 198.447276 
L 185.576937 119.881223 
L 185.934414 159.259019 
L 186.291892 171.228858 
L 186.649369 114.380678 
L 187.006847 245.26443 
L 187.364324 178.798524 
L 187.721802 214.523768 
L 188.079279 196.580855 
L 188.436757 151.427422 
L 188.794234 154.416591 
L 189.151712 224.175717 
L 189.509189 163.698679 
L 189.866667 193.907582 
L 190.224144 163.368304 
L 190.581622 214.747527 
L 190.939099 210.546106 
L 191.296577 110.99269 
L 191.654054 163.165603 
L 192.011532 186.677505 
L 192.369009 159.466984 
L 192.726486 211.526701 
L 193.083964 146.865352 
L 193.441441 142.804768 
L 193.798919 161.154397 
L 194.156396 191.551522 
L 194.513874 206.680325 
L 194.871351 185.211219 
L 195.586306 271.786561 
L 195.943784 199.387068 
L 196.301261 157.717708 
L 196.658739 158.837824 
L 197.016216 162.141573 
L 197.731171 229.505152 
L 198.088649 216.149317 
L 198.446126 150.361272 
L 198.803604 201.973469 
L 199.161081 205.907695 
L 199.518559 161.462396 
L 199.876036 171.67901 
L 200.233514 241.151197 
L 200.948468 131.245594 
L 201.305946 165.828346 
L 201.663423 122.537385 
L 202.020901 143.945943 
L 202.378378 89.765772 
L 202.735856 53.568 
L 203.093333 177.62181 
L 203.450811 228.458745 
L 203.808288 144.964709 
L 204.165766 253.430351 
L 204.523243 236.431179 
L 204.880721 179.051241 
L 205.238198 220.365217 
L 205.953153 137.950494 
L 206.668108 146.790327 
L 207.025586 159.299822 
L 207.383063 221.008856 
L 207.740541 214.193393 
L 208.098018 221.041762 
L 208.455495 172.421366 
L 208.812973 204.741511 
L 209.17045 160.730569 
L 209.527928 238.721427 
L 209.885405 216.504701 
L 210.242883 170.19693 
L 210.60036 155.774945 
L 210.957838 280.060412 
L 211.315315 140.771185 
L 211.672793 195.645012 
L 212.03027 148.181587 
L 212.387748 211.491163 
L 212.745225 228.803598 
L 213.102703 127.798375 
L 213.46018 169.293992 
L 214.175135 97.361763 
L 214.89009 214.755425 
L 215.247568 167.406512 
L 215.605045 179.411889 
L 215.962523 159.813154 
L 216.32 157.279402 
L 216.677477 158.639072 
L 217.034955 195.991182 
L 217.392432 264.29192 
L 217.74991 163.360406 
L 218.107387 239.501955 
L 218.464865 165.372929 
L 218.822342 205.719473 
L 219.17982 108.618203 
L 219.537297 134.254507 
L 219.894775 242.442423 
L 220.252252 222.230322 
L 220.60973 115.885135 
L 220.967207 167.074821 
L 221.324685 183.7989 
L 221.682162 166.907659 
L 222.03964 104.27726 
L 222.397117 161.865164 
L 222.754595 201.198207 
L 223.112072 194.276128 
L 223.46955 100.602333 
L 223.827027 204.61252 
L 224.184505 178.129876 
L 224.541982 138.525689 
L 225.256937 215.196363 
L 225.614414 176.187114 
L 225.971892 160.954329 
L 226.329369 127.260035 
L 226.686847 151.24973 
L 227.044324 191.265899 
L 227.759279 223.61895 
L 228.116757 214.909424 
L 228.474234 91.912551 
L 228.831712 202.740834 
L 229.189189 126.333406 
L 229.546667 219.545203 
L 229.904144 152.800255 
L 230.261622 156.569951 
L 230.619099 197.698339 
L 231.334054 151.811762 
L 231.691532 170.382519 
L 232.049009 158.025707 
L 232.406486 217.272066 
L 232.763964 134.051807 
L 233.121441 205.910327 
L 233.478919 202.188015 
L 233.836396 146.005851 
L 234.193874 211.341112 
L 234.551351 253.344795 
L 234.908829 280.833042 
L 235.266306 167.926425 
L 235.623784 150.378383 
L 235.981261 182.407639 
L 236.338739 157.974374 
L 236.696216 154.129652 
L 237.053694 173.126868 
L 237.411171 162.533811 
L 238.483604 199.313359 
L 238.841081 218.484318 
L 239.198559 176.571454 
L 239.556036 173.291397 
L 239.913514 126.08727 
L 240.270991 154.808829 
L 240.628468 210.257851 
L 240.985946 142.10848 
L 241.343423 148.693602 
L 241.700901 194.822366 
L 242.058378 258.797956 
L 242.415856 131.440397 
L 242.773333 241.209111 
L 243.130811 203.148867 
L 243.488288 213.110131 
L 243.845766 196.913863 
L 244.203243 167.141949 
L 244.560721 214.023598 
L 244.918198 81.951286 
L 245.275676 191.043456 
L 245.633153 186.622223 
L 245.990631 211.242394 
L 246.348108 108.8288 
L 246.705586 162.757571 
L 247.063063 171.967265 
L 247.420541 160.161956 
L 247.778018 183.272406 
L 248.135495 175.167032 
L 248.492973 206.905401 
L 248.85045 165.170229 
L 249.207928 229.472246 
L 249.565405 174.287787 
L 249.922883 185.773252 
L 250.28036 212.754748 
L 250.637838 252.56032 
L 250.995315 202.060341 
L 251.352793 112.749863 
L 251.71027 191.225096 
L 252.067748 152.471196 
L 252.425225 148.148681 
L 252.782703 282.824505 
L 253.14018 175.611919 
L 253.497658 247.565209 
L 253.855135 191.862154 
L 254.212613 219.72816 
L 254.57009 227.794046 
L 254.927568 154.47977 
L 255.285045 185.370484 
L 255.642523 141.221338 
L 256 135.050829 
L 256.357477 167.056393 
L 256.714955 214.298691 
L 257.072432 210.023561 
L 257.42991 116.037818 
L 257.787387 222.467244 
L 258.144865 143.118032 
L 258.502342 203.165978 
L 258.85982 231.87569 
L 259.217297 198.417003 
L 259.574775 201.915555 
L 260.28973 138.163724 
L 261.004685 238.250215 
L 261.362162 227.846696 
L 261.71964 221.869674 
L 262.077117 239.825748 
L 262.434595 149.063464 
L 262.792072 187.352733 
L 263.14955 158.914165 
L 263.507027 235.37161 
L 263.864505 273.954399 
L 264.221982 118.828236 
L 264.579459 177.063726 
L 264.936937 255.865385 
L 265.294414 175.044622 
L 265.651892 199.983322 
L 266.009369 196.636137 
L 266.366847 227.33468 
L 266.724324 183.061808 
L 267.081802 165.280793 
L 267.439279 263.461376 
L 267.796757 174.173275 
L 268.154234 174.565513 
L 268.511712 193.606165 
L 268.869189 188.070081 
L 269.226667 225.603832 
L 269.584144 146.374397 
L 269.941622 194.249804 
L 270.299099 208.445395 
L 270.656577 121.988515 
L 271.371532 205.31144 
L 271.729009 177.411212 
L 272.086486 132.723726 
L 272.443964 183.958164 
L 272.801441 196.566377 
L 273.158919 176.641215 
L 273.516396 165.315015 
L 273.873874 219.324076 
L 274.231351 212.578373 
L 274.588829 210.650089 
L 274.946306 189.249428 
L 275.303784 260.897351 
L 275.661261 181.615266 
L 276.018739 235.334755 
L 276.376216 228.144165 
L 276.733694 195.154057 
L 277.091171 91.979679 
L 277.448649 279.528654 
L 277.806126 180.62809 
L 278.163604 180.301664 
L 278.521081 217.87885 
L 278.878559 167.181436 
L 279.236036 184.857152 
L 279.593514 195.502859 
L 279.950991 114.876899 
L 280.308468 234.802996 
L 281.023423 101.743508 
L 281.380901 151.05756 
L 281.738378 230.050073 
L 282.095856 229.586758 
L 282.453333 199.123821 
L 282.810811 157.432085 
L 283.168288 220.513952 
L 283.525766 151.528772 
L 283.883243 104.379927 
L 284.598198 249.586945 
L 284.955676 179.081514 
L 285.313153 207.156802 
L 285.670631 175.893594 
L 286.028108 172.341076 
L 286.385586 189.331034 
L 286.743063 190.743354 
L 287.100541 281.035742 
L 287.458018 97.861932 
L 288.172973 268.835562 
L 288.53045 161.996787 
L 288.887928 181.652121 
L 289.245405 156.752908 
L 289.602883 263.974707 
L 289.96036 150.100657 
L 290.675315 209.593152 
L 291.032793 140.286811 
L 291.39027 228.259993 
L 292.105225 175.138075 
L 292.462703 104.65502 
L 292.82018 175.410535 
L 293.535135 136.790891 
L 293.892613 218.502745 
L 294.25009 197.991859 
L 294.607568 228.071772 
L 294.965045 101.668483 
L 295.322523 188.309636 
L 295.68 173.73102 
L 296.037477 152.988476 
L 296.752432 184.118745 
L 297.10991 133.84779 
L 297.467387 215.742601 
L 297.824865 166.107388 
L 298.182342 221.193129 
L 298.897297 91.977047 
L 299.254775 189.228368 
L 299.612252 224.752228 
L 299.96973 284.941011 
L 300.684685 196.662462 
L 301.042162 187.810783 
L 301.39964 182.522152 
L 301.757117 197.082341 
L 302.114595 192.725604 
L 302.472072 228.578522 
L 302.82955 241.973843 
L 303.187027 155.330058 
L 303.544505 211.965007 
L 303.901982 171.034055 
L 304.259459 225.451148 
L 304.616937 191.642342 
L 304.974414 182.841997 
L 305.331892 163.397261 
L 305.689369 247.962712 
L 306.046847 209.845869 
L 306.404324 217.863055 
L 306.761802 169.652008 
L 307.119279 167.685554 
L 307.476757 210.194671 
L 307.834234 171.79089 
L 308.191712 192.325468 
L 308.549189 97.199866 
L 308.906667 219.118743 
L 309.264144 189.887802 
L 309.621622 176.051542 
L 309.979099 208.072901 
L 310.336577 189.003292 
L 311.051532 138.95873 
L 311.409009 193.395567 
L 311.766486 166.575968 
L 312.123964 224.692997 
L 312.481441 109.805446 
L 312.838919 208.476985 
L 313.196396 143.444458 
L 313.553874 143.144357 
L 313.911351 155.593305 
L 314.268829 275.566787 
L 314.626306 150.237546 
L 314.983784 108.012735 
L 315.341261 217.93808 
L 315.698739 94.477893 
L 316.056216 153.106937 
L 316.413694 162.137624 
L 317.128649 221.401094 
L 317.486126 246.870237 
L 317.843604 228.940487 
L 318.558559 117.760769 
L 318.916036 145.971629 
L 319.273514 204.146573 
L 319.630991 196.711163 
L 319.988468 164.573975 
L 320.345946 185.903559 
L 320.703423 245.493455 
L 321.060901 164.725342 
L 321.418378 171.276242 
L 321.775856 146.408619 
L 322.133333 174.78664 
L 322.490811 227.522902 
L 322.848288 126.665097 
L 323.205766 164.956999 
L 323.920721 113.923945 
L 324.278198 212.786338 
L 324.635676 178.358901 
L 324.993153 231.638768 
L 325.350631 215.700481 
L 325.708108 227.201741 
L 326.065586 123.0494 
L 326.423063 112.82094 
L 326.780541 202.20381 
L 327.138018 134.842864 
L 327.495495 168.155449 
L 327.852973 246.551708 
L 328.567928 102.835983 
L 328.925405 177.028188 
L 329.282883 131.754977 
L 329.64036 181.678445 
L 329.997838 249.914688 
L 330.355315 189.825938 
L 330.712793 228.84835 
L 331.07027 182.4774 
L 331.427748 105.181514 
L 331.785225 177.802134 
L 332.142703 197.005999 
L 332.50018 184.378043 
L 332.857658 240.310123 
L 333.215135 219.262213 
L 333.572613 179.46059 
L 333.93009 176.571454 
L 334.645045 139.145635 
L 335.002523 220.523166 
L 335.36 187.831843 
L 335.717477 141.347696 
L 336.074955 184.933494 
L 336.432432 186.453745 
L 336.78991 85.289258 
L 337.147387 215.680738 
L 337.504865 143.913038 
L 337.862342 144.70936 
L 338.21982 225.781523 
L 338.577297 237.971174 
L 338.934775 212.29275 
L 339.292252 164.879341 
L 339.64973 220.484995 
L 340.007207 159.922401 
L 340.364685 192.845381 
L 340.722162 178.368115 
L 341.07964 158.678559 
L 341.437117 160.812176 
L 341.794595 148.473791 
L 342.152072 184.496504 
L 342.50955 206.447351 
L 342.867027 210.064364 
L 343.224505 165.992876 
L 343.581982 204.890245 
L 343.939459 170.286433 
L 344.296937 160.804278 
L 344.654414 185.095391 
L 345.011892 159.540693 
L 345.369369 180.817628 
L 345.726847 224.329716 
L 346.084324 229.803937 
L 346.441802 139.073242 
L 346.799279 136.539491 
L 347.156757 185.546859 
L 347.514234 133.392373 
L 348.229189 210.731695 
L 348.586667 206.051164 
L 348.944144 129.45025 
L 349.301622 143.104869 
L 350.016577 201.21795 
L 350.374054 170.953765 
L 350.731532 171.1512 
L 351.089009 182.909125 
L 351.446486 91.759868 
L 352.161441 185.699543 
L 352.518919 150.500793 
L 352.876396 152.989793 
L 353.233874 145.42934 
L 353.591351 158.683824 
L 353.948829 161.311029 
L 354.306306 149.399104 
L 354.663784 227.364954 
L 355.021261 132.69082 
L 355.378739 242.474013 
L 355.736216 176.092345 
L 356.093694 156.806873 
L 356.451171 185.115134 
L 356.808649 202.301212 
L 357.166126 193.173123 
L 357.523604 169.670436 
L 357.881081 174.174591 
L 358.238559 233.798709 
L 358.953514 146.79954 
L 359.668468 249.003853 
L 360.025946 162.417982 
L 360.383423 255.041422 
L 360.740901 247.021604 
L 361.098378 140.896228 
L 361.455856 206.417078 
L 362.170811 129.966214 
L 362.528288 206.701384 
L 362.885766 176.571454 
L 363.243243 127.127096 
L 363.600721 103.378272 
L 363.958198 125.002693 
L 364.673153 193.274474 
L 365.030631 193.348183 
L 365.388108 148.011793 
L 366.103063 203.073841 
L 366.460541 156.294858 
L 366.818018 221.274736 
L 367.175495 205.632602 
L 367.532973 196.074105 
L 367.89045 261.261948 
L 368.247928 165.188656 
L 368.605405 223.526813 
L 368.962883 170.647082 
L 369.32036 210.805404 
L 369.677838 179.485598 
L 370.035315 181.889043 
L 370.392793 197.731244 
L 370.75027 175.217049 
L 371.107748 194.359051 
L 371.465225 239.695441 
L 371.822703 170.45886 
L 372.18018 188.579464 
L 372.537658 135.730006 
L 372.895135 167.713195 
L 373.252613 238.551633 
L 373.61009 201.57465 
L 374.325045 187.509365 
L 374.682523 143.5695 
L 375.04 225.12209 
L 375.397477 226.027659 
L 375.754955 128.611809 
L 376.112432 240.899796 
L 376.46991 102.248943 
L 376.827387 169.24924 
L 377.184865 274.741508 
L 377.542342 183.293465 
L 378.257297 127.323215 
L 378.614775 204.5217 
L 378.972252 134.644112 
L 379.32973 148.826542 
L 380.044685 200.318962 
L 380.402162 177.375674 
L 380.75964 174.129839 
L 381.117117 166.471985 
L 381.474595 211.553026 
L 381.832072 213.726129 
L 382.18955 153.609739 
L 382.547027 131.906344 
L 382.904505 154.47977 
L 383.261982 231.050411 
L 383.619459 141.616208 
L 383.976937 109.460593 
L 384.334414 196.27154 
L 384.691892 191.637078 
L 385.049369 128.914543 
L 385.406847 201.223215 
L 385.764324 173.29403 
L 386.121802 217.855158 
L 386.479279 135.510195 
L 386.836757 152.962152 
L 387.194234 90.433103 
L 387.551712 239.884979 
L 387.909189 190.031271 
L 388.266667 169.250557 
L 388.624144 178.312833 
L 388.981622 148.569876 
L 389.339099 158.947071 
L 389.696577 236.548324 
L 390.054054 161.894121 
L 390.411532 214.898894 
L 390.769009 114.166132 
L 391.126486 207.152853 
L 391.483964 264.114228 
L 392.198919 128.806611 
L 392.556396 168.083057 
L 392.913874 186.244464 
L 393.628829 169.983699 
L 393.986306 179.517188 
L 394.343784 185.313886 
L 394.701261 233.355138 
L 395.058739 148.003895 
L 395.416216 150.341528 
L 395.773694 179.702777 
L 396.131171 160.388348 
L 396.488649 117.111865 
L 396.846126 232.431141 
L 397.203604 194.727597 
L 397.561081 220.645575 
L 397.918559 183.093398 
L 398.276036 259.448176 
L 398.633514 216.594205 
L 398.990991 209.845869 
L 399.348468 194.875015 
L 399.705946 208.524369 
L 400.063423 201.306138 
L 400.778378 162.502221 
L 401.135856 152.747605 
L 401.493333 148.377706 
L 401.850811 173.845532 
L 402.208288 210.85937 
L 402.565766 192.683484 
L 402.923243 234.391015 
L 403.280721 210.356568 
L 403.638198 229.426177 
L 403.995676 163.239313 
L 404.353153 191.167182 
L 404.710631 160.776637 
L 405.068108 178.17068 
L 405.425586 175.434228 
L 405.783063 168.155449 
L 406.140541 151.57484 
L 406.498018 167.215658 
L 406.855495 142.582324 
L 407.212973 172.817553 
L 407.57045 176.671488 
L 408.285405 233.519668 
L 408.642883 197.627262 
L 409.00036 150.06117 
L 409.357838 152.579127 
L 409.715315 212.104528 
L 410.072793 154.369207 
L 410.787748 261.852937 
L 411.145225 151.852566 
L 411.502703 193.757532 
L 411.86018 152.481726 
L 412.217658 95.916537 
L 412.575135 139.085089 
L 412.932613 162.851023 
L 413.29009 141.087082 
L 413.647568 246.05812 
L 414.005045 170.769492 
L 414.362523 209.098248 
L 414.72 232.195535 
L 414.72 232.195535 
" style="fill:none;stroke:#1f77b4;stroke-linecap:square;stroke-width:1.5;"/>
   </g>
   <g id="patch_3">
    <path d="M 57.6 307.584 
L 57.6 41.472 
" style="fill:none;stroke:#000000;stroke-linecap:square;stroke-linejoin:miter;stroke-width:0.8;"/>
   </g>
   <g id="patch_4">
    <path d="M 414.72 307.584 
L 414.72 41.472 
" style="fill:none;stroke:#000000;stroke-linecap:square;stroke-linejoin:miter;stroke-width:0.8;"/>
   </g>
   <g id="patch_5">
    <path d="M 57.6 307.584 
L 414.72 307.584 
" style="fill:none;stroke:#000000;stroke-linecap:square;stroke-linejoin:miter;stroke-width:0.8;"/>
   </g>
   <g id="patch_6">
    <path d="M 57.6 41.472 
L 414.72 41.472 
" style="fill:none;stroke:#000000;stroke-linecap:square;stroke-linejoin:miter;stroke-width:0.8;"/>
   </g>
   <g id="legend_1">
    <g id="patch_7">
     <path d="M 347.041875 64.150125 
L 407.72 64.150125 
Q 409.72 64.150125 409.72 62.150125 
L 409.72 48.472 
Q 409.72 46.472 407.72 46.472 
L 347.041875 46.472 
Q 345.041875 46.472 345.041875 48.472 
L 345.041875 62.150125 
Q 345.041875 64.150125 347.041875 64.150125 
z
" style="fill:#ffffff;opacity:0.8;stroke:#cccccc;stroke-linejoin:miter;"/>
    </g>
    <g id="line2d_16">
     <path d="M 349.041875 54.570438 
L 369.041875 54.570438 
" style="fill:none;stroke:#1f77b4;stroke-linecap:square;stroke-width:1.5;"/>
    </g>
    <g id="line2d_17"/>
    <g id="text_15">
     <!-- Delay -->
     <defs>
      <path d="M 19.671875 64.796875 
L 19.671875 8.109375 
L 31.59375 8.109375 
Q 46.6875 8.109375 53.6875 14.9375 
Q 60.6875 21.78125 60.6875 36.53125 
Q 60.6875 51.171875 53.6875 57.984375 
Q 46.6875 64.796875 31.59375 64.796875 
z
M 9.8125 72.90625 
L 30.078125 72.90625 
Q 51.265625 72.90625 61.171875 64.09375 
Q 71.09375 55.28125 71.09375 36.53125 
Q 71.09375 17.671875 61.125 8.828125 
Q 51.171875 0 30.078125 0 
L 9.8125 0 
z
" id="DejaVuSans-44"/>
      <path d="M 56.203125 29.59375 
L 56.203125 25.203125 
L 14.890625 25.203125 
Q 15.484375 15.921875 20.484375 11.0625 
Q 25.484375 6.203125 34.421875 6.203125 
Q 39.59375 6.203125 44.453125 7.46875 
Q 49.3125 8.734375 54.109375 11.28125 
L 54.109375 2.78125 
Q 49.265625 0.734375 44.1875 -0.34375 
Q 39.109375 -1.421875 33.890625 -1.421875 
Q 20.796875 -1.421875 13.15625 6.1875 
Q 5.515625 13.8125 5.515625 26.8125 
Q 5.515625 40.234375 12.765625 48.109375 
Q 20.015625 56 32.328125 56 
Q 43.359375 56 49.78125 48.890625 
Q 56.203125 41.796875 56.203125 29.59375 
M 47.21875 32.234375 
Q 47.125 39.59375 43.09375 43.984375 
Q 39.0625 48.390625 32.421875 48.390625 
Q 24.90625 48.390625 20.390625 44.140625 
Q 15.875 39.890625 15.1875 32.171875 
z
" id="DejaVuSans-65"/>
      <path d="M 9.421875 75.984375 
L 18.40625 75.984375 
L 18.40625 0 
L 9.421875 0 
z
" id="DejaVuSans-6c"/>
      <path d="M 34.28125 27.484375 
Q 23.390625 27.484375 19.1875 25 
Q 14.984375 22.515625 14.984375 16.5 
Q 14.984375 11.71875 18.140625 8.90625 
Q 21.296875 6.109375 26.703125 6.109375 
Q 34.1875 6.109375 38.703125 11.40625 
Q 43.21875 16.703125 43.21875 25.484375 
L 43.21875 27.484375 
z
M 52.203125 31.203125 
L 52.203125 0 
L 43.21875 0 
L 43.21875 8.296875 
Q 40.140625 3.328125 35.546875 0.953125 
Q 30.953125 -1.421875 24.3125 -1.421875 
Q 15.921875 -1.421875 10.953125 3.296875 
Q 6 8.015625 6 15.921875 
Q 6 25.140625 12.171875 29.828125 
Q 18.359375 34.515625 30.609375 34.515625 
L 43.21875 34.515625 
L 43.21875 35.40625 
Q 43.21875 41.609375 39.140625 45 
Q 35.0625 48.390625 27.6875 48.390625 
Q 23 48.390625 18.546875 47.265625 
Q 14.109375 46.140625 10.015625 43.890625 
L 10.015625 52.203125 
Q 14.9375 54.109375 19.578125 55.046875 
Q 24.21875 56 28.609375 56 
Q 40.484375 56 46.34375 49.84375 
Q 52.203125 43.703125 52.203125 31.203125 
" id="DejaVuSans-61"/>
      <path d="M 32.171875 -5.078125 
Q 28.375 -14.84375 24.75 -17.8125 
Q 21.140625 -20.796875 15.09375 -20.796875 
L 7.90625 -20.796875 
L 7.90625 -13.28125 
L 13.1875 -13.28125 
Q 16.890625 -13.28125 18.9375 -11.515625 
Q 21 -9.765625 23.484375 -3.21875 
L 25.09375 0.875 
L 2.984375 54.6875 
L 12.5 54.6875 
L 29.59375 11.921875 
L 46.6875 54.6875 
L 56.203125 54.6875 
z
" id="DejaVuSans-79"/>
     </defs>
     <g transform="translate(377.041875 58.070438)scale(0.1 -0.1)">
      <use xlink:href="#DejaVuSans-44"/>
      <use x="77.001953" xlink:href="#DejaVuSans-65"/>
      <use x="138.525391" xlink:href="#DejaVuSans-6c"/>
      <use x="166.308594" xlink:href="#DejaVuSans-61"/>
      <use x="227.587891" xlink:href="#DejaVuSans-79"/>
     </g>
    </g>
   </g>
  </g>
 </g>
 <defs>
  <clipPath id="pd6065c9e5f">
   <rect height="266.112" width="357.12" x="57.6" y="41.472"/>
  </clipPath>
 </defs>
</svg>
