<?xml version="1.0" encoding="utf-8" standalone="no"?>
<!DOCTYPE svg PUBLIC "-//W3C//DTD SVG 1.1//EN"
  "http://www.w3.org/Graphics/SVG/1.1/DTD/svg11.dtd">
<!-- Created with matplotlib (http://matplotlib.org/) -->
<svg height="345pt" version="1.1" viewBox="0 0 460 345" width="460pt" xmlns="http://www.w3.org/2000/svg" xmlns:xlink="http://www.w3.org/1999/xlink">
 <defs>
  <style type="text/css">
*{stroke-linecap:butt;stroke-linejoin:round;}
  </style>
 </defs>
 <g id="figure_1">
  <g id="patch_1">
   <path d="M 0 345.6 
L 460.8 345.6 
L 460.8 0 
L 0 0 
z
" style="fill:#ffffff;"/>
  </g>
  <g id="axes_1">
   <g id="patch_2">
    <path d="M 57.6 307.584 
L 414.72 307.584 
L 414.72 41.472 
L 57.6 41.472 
z
" style="fill:#ffffff;"/>
   </g>
   <g id="matplotlib.axis_1">
    <g id="xtick_1">
     <g id="line2d_1">
      <defs>
       <path d="M 0 0 
L 0 3.5 
" id="mfb078e9707" style="stroke:#000000;stroke-width:0.8;"/>
      </defs>
      <g>
       <use style="stroke:#000000;stroke-width:0.8;" x="57.6" xlink:href="#mfb078e9707" y="307.584"/>
      </g>
     </g>
     <g id="text_1">
      <!-- 0 -->
      <defs>
       <path d="M 31.78125 66.40625 
Q 24.171875 66.40625 20.328125 58.90625 
Q 16.5 51.421875 16.5 36.375 
Q 16.5 21.390625 20.328125 13.890625 
Q 24.171875 6.390625 31.78125 6.390625 
Q 39.453125 6.390625 43.28125 13.890625 
Q 47.125 21.390625 47.125 36.375 
Q 47.125 51.421875 43.28125 58.90625 
Q 39.453125 66.40625 31.78125 66.40625 
M 31.78125 74.21875 
Q 44.046875 74.21875 50.515625 64.515625 
Q 56.984375 54.828125 56.984375 36.375 
Q 56.984375 17.96875 50.515625 8.265625 
Q 44.046875 -1.421875 31.78125 -1.421875 
Q 19.53125 -1.421875 13.0625 8.265625 
Q 6.59375 17.96875 6.59375 36.375 
Q 6.59375 54.828125 13.0625 64.515625 
Q 19.53125 74.21875 31.78125 74.21875 
" id="DejaVuSans-30"/>
      </defs>
      <g transform="translate(54.41875 322.182437)scale(0.1 -0.1)">
       <use xlink:href="#DejaVuSans-30"/>
      </g>
     </g>
    </g>
    <g id="xtick_2">
     <g id="line2d_2">
      <g>
       <use style="stroke:#000000;stroke-width:0.8;" x="129.095495" xlink:href="#mfb078e9707" y="307.584"/>
      </g>
     </g>
     <g id="text_2">
      <!-- 200 -->
      <defs>
       <path d="M 19.1875 8.296875 
L 53.609375 8.296875 
L 53.609375 0 
L 7.328125 0 
L 7.328125 8.296875 
Q 12.9375 14.109375 22.625 23.890625 
Q 32.328125 33.6875 34.8125 36.53125 
Q 39.546875 41.84375 41.421875 45.53125 
Q 43.3125 49.21875 43.3125 52.78125 
Q 43.3125 58.59375 39.234375 62.25 
Q 35.15625 65.921875 28.609375 65.921875 
Q 23.96875 65.921875 18.8125 64.3125 
Q 13.671875 62.703125 7.8125 59.421875 
L 7.8125 69.390625 
Q 13.765625 71.78125 18.9375 73 
Q 24.125 74.21875 28.421875 74.21875 
Q 39.75 74.21875 46.484375 68.546875 
Q 53.21875 62.890625 53.21875 53.421875 
Q 53.21875 48.921875 51.53125 44.890625 
Q 49.859375 40.875 45.40625 35.40625 
Q 44.1875 33.984375 37.640625 27.21875 
Q 31.109375 20.453125 19.1875 8.296875 
" id="DejaVuSans-32"/>
      </defs>
      <g transform="translate(119.551745 322.182437)scale(0.1 -0.1)">
       <use xlink:href="#DejaVuSans-32"/>
       <use x="63.623047" xlink:href="#DejaVuSans-30"/>
       <use x="127.246094" xlink:href="#DejaVuSans-30"/>
      </g>
     </g>
    </g>
    <g id="xtick_3">
     <g id="line2d_3">
      <g>
       <use style="stroke:#000000;stroke-width:0.8;" x="200.590991" xlink:href="#mfb078e9707" y="307.584"/>
      </g>
     </g>
     <g id="text_3">
      <!-- 400 -->
      <defs>
       <path d="M 37.796875 64.3125 
L 12.890625 25.390625 
L 37.796875 25.390625 
z
M 35.203125 72.90625 
L 47.609375 72.90625 
L 47.609375 25.390625 
L 58.015625 25.390625 
L 58.015625 17.1875 
L 47.609375 17.1875 
L 47.609375 0 
L 37.796875 0 
L 37.796875 17.1875 
L 4.890625 17.1875 
L 4.890625 26.703125 
z
" id="DejaVuSans-34"/>
      </defs>
      <g transform="translate(191.047241 322.182437)scale(0.1 -0.1)">
       <use xlink:href="#DejaVuSans-34"/>
       <use x="63.623047" xlink:href="#DejaVuSans-30"/>
       <use x="127.246094" xlink:href="#DejaVuSans-30"/>
      </g>
     </g>
    </g>
    <g id="xtick_4">
     <g id="line2d_4">
      <g>
       <use style="stroke:#000000;stroke-width:0.8;" x="272.086486" xlink:href="#mfb078e9707" y="307.584"/>
      </g>
     </g>
     <g id="text_4">
      <!-- 600 -->
      <defs>
       <path d="M 33.015625 40.375 
Q 26.375 40.375 22.484375 35.828125 
Q 18.609375 31.296875 18.609375 23.390625 
Q 18.609375 15.53125 22.484375 10.953125 
Q 26.375 6.390625 33.015625 6.390625 
Q 39.65625 6.390625 43.53125 10.953125 
Q 47.40625 15.53125 47.40625 23.390625 
Q 47.40625 31.296875 43.53125 35.828125 
Q 39.65625 40.375 33.015625 40.375 
M 52.59375 71.296875 
L 52.59375 62.3125 
Q 48.875 64.0625 45.09375 64.984375 
Q 41.3125 65.921875 37.59375 65.921875 
Q 27.828125 65.921875 22.671875 59.328125 
Q 17.53125 52.734375 16.796875 39.40625 
Q 19.671875 43.65625 24.015625 45.921875 
Q 28.375 48.1875 33.59375 48.1875 
Q 44.578125 48.1875 50.953125 41.515625 
Q 57.328125 34.859375 57.328125 23.390625 
Q 57.328125 12.15625 50.6875 5.359375 
Q 44.046875 -1.421875 33.015625 -1.421875 
Q 20.359375 -1.421875 13.671875 8.265625 
Q 6.984375 17.96875 6.984375 36.375 
Q 6.984375 53.65625 15.1875 63.9375 
Q 23.390625 74.21875 37.203125 74.21875 
Q 40.921875 74.21875 44.703125 73.484375 
Q 48.484375 72.75 52.59375 71.296875 
" id="DejaVuSans-36"/>
      </defs>
      <g transform="translate(262.542736 322.182437)scale(0.1 -0.1)">
       <use xlink:href="#DejaVuSans-36"/>
       <use x="63.623047" xlink:href="#DejaVuSans-30"/>
       <use x="127.246094" xlink:href="#DejaVuSans-30"/>
      </g>
     </g>
    </g>
    <g id="xtick_5">
     <g id="line2d_5">
      <g>
       <use style="stroke:#000000;stroke-width:0.8;" x="343.581982" xlink:href="#mfb078e9707" y="307.584"/>
      </g>
     </g>
     <g id="text_5">
      <!-- 800 -->
      <defs>
       <path d="M 31.78125 34.625 
Q 24.75 34.625 20.71875 30.859375 
Q 16.703125 27.09375 16.703125 20.515625 
Q 16.703125 13.921875 20.71875 10.15625 
Q 24.75 6.390625 31.78125 6.390625 
Q 38.8125 6.390625 42.859375 10.171875 
Q 46.921875 13.96875 46.921875 20.515625 
Q 46.921875 27.09375 42.890625 30.859375 
Q 38.875 34.625 31.78125 34.625 
M 21.921875 38.8125 
Q 15.578125 40.375 12.03125 44.71875 
Q 8.5 49.078125 8.5 55.328125 
Q 8.5 64.0625 14.71875 69.140625 
Q 20.953125 74.21875 31.78125 74.21875 
Q 42.671875 74.21875 48.875 69.140625 
Q 55.078125 64.0625 55.078125 55.328125 
Q 55.078125 49.078125 51.53125 44.71875 
Q 48 40.375 41.703125 38.8125 
Q 48.828125 37.15625 52.796875 32.3125 
Q 56.78125 27.484375 56.78125 20.515625 
Q 56.78125 9.90625 50.3125 4.234375 
Q 43.84375 -1.421875 31.78125 -1.421875 
Q 19.734375 -1.421875 13.25 4.234375 
Q 6.78125 9.90625 6.78125 20.515625 
Q 6.78125 27.484375 10.78125 32.3125 
Q 14.796875 37.15625 21.921875 38.8125 
M 18.3125 54.390625 
Q 18.3125 48.734375 21.84375 45.5625 
Q 25.390625 42.390625 31.78125 42.390625 
Q 38.140625 42.390625 41.71875 45.5625 
Q 45.3125 48.734375 45.3125 54.390625 
Q 45.3125 60.0625 41.71875 63.234375 
Q 38.140625 66.40625 31.78125 66.40625 
Q 25.390625 66.40625 21.84375 63.234375 
Q 18.3125 60.0625 18.3125 54.390625 
" id="DejaVuSans-38"/>
      </defs>
      <g transform="translate(334.038232 322.182437)scale(0.1 -0.1)">
       <use xlink:href="#DejaVuSans-38"/>
       <use x="63.623047" xlink:href="#DejaVuSans-30"/>
       <use x="127.246094" xlink:href="#DejaVuSans-30"/>
      </g>
     </g>
    </g>
    <g id="xtick_6">
     <g id="line2d_6">
      <g>
       <use style="stroke:#000000;stroke-width:0.8;" x="415.077477" xlink:href="#mfb078e9707" y="307.584"/>
      </g>
     </g>
     <g id="text_6">
      <!-- 1000 -->
      <defs>
       <path d="M 12.40625 8.296875 
L 28.515625 8.296875 
L 28.515625 63.921875 
L 10.984375 60.40625 
L 10.984375 69.390625 
L 28.421875 72.90625 
L 38.28125 72.90625 
L 38.28125 8.296875 
L 54.390625 8.296875 
L 54.390625 0 
L 12.40625 0 
z
" id="DejaVuSans-31"/>
      </defs>
      <g transform="translate(402.352477 322.182437)scale(0.1 -0.1)">
       <use xlink:href="#DejaVuSans-31"/>
       <use x="63.623047" xlink:href="#DejaVuSans-30"/>
       <use x="127.246094" xlink:href="#DejaVuSans-30"/>
       <use x="190.869141" xlink:href="#DejaVuSans-30"/>
      </g>
     </g>
    </g>
   </g>
   <g id="matplotlib.axis_2">
    <g id="ytick_1">
     <g id="line2d_7">
      <defs>
       <path d="M 0 0 
L -3.5 0 
" id="mf6b8b200df" style="stroke:#000000;stroke-width:0.8;"/>
      </defs>
      <g>
       <use style="stroke:#000000;stroke-width:0.8;" x="57.6" xlink:href="#mf6b8b200df" y="295.488"/>
      </g>
     </g>
     <g id="text_7">
      <!-- 0 -->
      <g transform="translate(44.2375 299.287219)scale(0.1 -0.1)">
       <use xlink:href="#DejaVuSans-30"/>
      </g>
     </g>
    </g>
    <g id="ytick_2">
     <g id="line2d_8">
      <g>
       <use style="stroke:#000000;stroke-width:0.8;" x="57.6" xlink:href="#mf6b8b200df" y="242.140554"/>
      </g>
     </g>
     <g id="text_8">
      <!-- 5 -->
      <defs>
       <path d="M 10.796875 72.90625 
L 49.515625 72.90625 
L 49.515625 64.59375 
L 19.828125 64.59375 
L 19.828125 46.734375 
Q 21.96875 47.46875 24.109375 47.828125 
Q 26.265625 48.1875 28.421875 48.1875 
Q 40.625 48.1875 47.75 41.5 
Q 54.890625 34.8125 54.890625 23.390625 
Q 54.890625 11.625 47.5625 5.09375 
Q 40.234375 -1.421875 26.90625 -1.421875 
Q 22.3125 -1.421875 17.546875 -0.640625 
Q 12.796875 0.140625 7.71875 1.703125 
L 7.71875 11.625 
Q 12.109375 9.234375 16.796875 8.0625 
Q 21.484375 6.890625 26.703125 6.890625 
Q 35.15625 6.890625 40.078125 11.328125 
Q 45.015625 15.765625 45.015625 23.390625 
Q 45.015625 31 40.078125 35.4375 
Q 35.15625 39.890625 26.703125 39.890625 
Q 22.75 39.890625 18.8125 39.015625 
Q 14.890625 38.140625 10.796875 36.28125 
z
" id="DejaVuSans-35"/>
      </defs>
      <g transform="translate(44.2375 245.939772)scale(0.1 -0.1)">
       <use xlink:href="#DejaVuSans-35"/>
      </g>
     </g>
    </g>
    <g id="ytick_3">
     <g id="line2d_9">
      <g>
       <use style="stroke:#000000;stroke-width:0.8;" x="57.6" xlink:href="#mf6b8b200df" y="188.793107"/>
      </g>
     </g>
     <g id="text_9">
      <!-- 10 -->
      <g transform="translate(37.875 192.592326)scale(0.1 -0.1)">
       <use xlink:href="#DejaVuSans-31"/>
       <use x="63.623047" xlink:href="#DejaVuSans-30"/>
      </g>
     </g>
    </g>
    <g id="ytick_4">
     <g id="line2d_10">
      <g>
       <use style="stroke:#000000;stroke-width:0.8;" x="57.6" xlink:href="#mf6b8b200df" y="135.445661"/>
      </g>
     </g>
     <g id="text_10">
      <!-- 15 -->
      <g transform="translate(37.875 139.24488)scale(0.1 -0.1)">
       <use xlink:href="#DejaVuSans-31"/>
       <use x="63.623047" xlink:href="#DejaVuSans-35"/>
      </g>
     </g>
    </g>
    <g id="ytick_5">
     <g id="line2d_11">
      <g>
       <use style="stroke:#000000;stroke-width:0.8;" x="57.6" xlink:href="#mf6b8b200df" y="82.098214"/>
      </g>
     </g>
     <g id="text_11">
      <!-- 20 -->
      <g transform="translate(37.875 85.897433)scale(0.1 -0.1)">
       <use xlink:href="#DejaVuSans-32"/>
       <use x="63.623047" xlink:href="#DejaVuSans-30"/>
      </g>
     </g>
    </g>
   </g>
   <g id="line2d_12">
    <path clip-path="url(#p1a0dbdb6c4)" d="M 57.6 295.488 
L 57.957477 245.480104 
L 58.314955 255.338712 
L 58.672432 150.574997 
L 59.02991 273.007386 
L 59.744865 243.997045 
L 60.102342 237.467317 
L 60.45982 242.972774 
L 60.817297 295.488 
L 61.174775 279.494436 
L 62.247207 148.323734 
L 62.604685 280.710757 
L 62.962162 278.56619 
L 63.31964 246.973832 
L 63.677117 280.828122 
L 64.034595 244.135748 
L 64.392072 121.618003 
L 64.74955 213.279585 
L 65.464505 270.457378 
L 65.821982 259.489143 
L 66.179459 226.12565 
L 66.536937 295.488 
L 66.894414 262.113838 
L 67.251892 207.283332 
L 67.609369 256.341644 
L 67.966847 229.47587 
L 68.324324 295.488 
L 68.681802 253.524899 
L 69.039279 253.343517 
L 69.396757 162.258087 
L 69.754234 260.001279 
L 70.111712 220.054711 
L 70.469189 199.857368 
L 70.826667 262.775346 
L 71.184144 194.607979 
L 71.541622 208.392959 
L 71.899099 247.155214 
L 72.256577 202.055282 
L 72.614054 197.595436 
L 72.971532 247.955425 
L 73.329009 281.07352 
L 73.686486 238.534266 
L 74.043964 295.488 
L 74.758919 204.914705 
L 75.116396 213.055526 
L 75.473874 170.484264 
L 75.831351 255.253356 
L 76.188829 259.425126 
L 76.546306 197.061961 
L 76.903784 252.372594 
L 77.261261 198.064893 
L 77.618739 253.866322 
L 77.976216 282.129799 
L 78.333694 295.488 
L 78.691171 295.488 
L 79.048649 207.688773 
L 79.406126 200.764274 
L 79.763604 295.488 
L 80.121081 209.769323 
L 80.478559 197.947529 
L 80.836036 293.684856 
L 81.193514 195.269487 
L 81.550991 238.235521 
L 81.908468 166.941993 
L 82.265946 228.921056 
L 82.623423 127.166137 
L 82.980901 172.532806 
L 83.338378 160.198876 
L 83.695856 295.488 
L 84.053333 174.090551 
L 84.410811 250.590789 
L 84.768288 189.273234 
L 85.125766 295.488 
L 85.483243 295.253271 
L 85.840721 203.645036 
L 86.198198 287.741951 
L 86.555676 295.488 
L 86.913153 267.790006 
L 87.270631 251.881797 
L 87.628108 218.166211 
L 87.985586 295.488 
L 88.343063 206.781866 
L 88.700541 224.685269 
L 89.058018 226.75515 
L 89.415495 191.684539 
L 89.772973 209.908026 
L 90.13045 176.4165 
L 90.487928 253.066111 
L 90.845405 270.564073 
L 91.202883 277.477902 
L 91.56036 247.955425 
L 91.917838 172.308746 
L 92.275315 200.145444 
L 92.632793 207.966179 
L 92.99027 183.543718 
L 93.347748 295.488 
L 93.705225 278.086063 
L 94.062703 197.819495 
L 94.42018 286.899061 
L 94.777658 295.488 
L 95.492613 141.996727 
L 95.85009 211.359077 
L 96.207568 170.526942 
L 96.565045 143.117024 
L 96.922523 295.488 
L 97.28 229.177124 
L 97.637477 242.780723 
L 97.994955 218.518304 
L 98.352432 295.488 
L 98.70991 225.602845 
L 99.067387 248.403544 
L 99.424865 295.488 
L 99.782342 278.182088 
L 100.13982 210.206772 
L 100.497297 248.680951 
L 100.854775 249.075722 
L 101.212252 286.50429 
L 101.927207 237.371292 
L 102.284685 295.488 
L 102.642162 273.807598 
L 102.99964 186.957955 
L 103.357117 268.024735 
L 103.714595 283.068714 
L 104.072072 187.960887 
L 104.42955 277.829995 
L 104.787027 295.488 
L 105.144505 222.850117 
L 105.501982 181.655219 
L 106.216937 295.488 
L 106.574414 290.217272 
L 107.289369 231.9832 
L 107.646847 139.692117 
L 108.004324 252.617992 
L 108.361802 238.235521 
L 108.719279 240.902893 
L 109.076757 284.957214 
L 109.434234 259.627847 
L 109.791712 259.56383 
L 110.149189 169.52401 
L 110.506667 204.167841 
L 110.864144 179.74538 
L 111.221622 174.367958 
L 111.579099 182.316727 
L 111.936577 95.328381 
L 112.294054 146.32854 
L 112.651532 256.555034 
L 113.009009 233.050149 
L 113.366486 151.364539 
L 113.723964 176.981983 
L 114.081441 262.988736 
L 114.438919 236.069614 
L 114.796396 250.003967 
L 115.153874 237.883427 
L 115.511351 197.318029 
L 115.868829 227.875446 
L 116.226306 123.55985 
L 116.583784 207.464713 
L 117.298739 269.027667 
L 117.656216 157.286105 
L 118.013694 288.648857 
L 118.371171 223.575642 
L 118.728649 194.501284 
L 119.086126 214.762644 
L 119.443604 214.794653 
L 119.801081 268.54754 
L 120.516036 191.727217 
L 120.873514 269.7852 
L 121.230991 265.549413 
L 121.588468 289.150323 
L 121.945946 176.83261 
L 122.303423 224.621252 
L 122.660901 231.236336 
L 123.375856 193.306301 
L 123.733333 250.15334 
L 124.090811 189.689344 
L 124.448288 295.488 
L 124.805766 278.76891 
L 125.163243 295.488 
L 125.520721 122.706291 
L 125.878198 241.575071 
L 126.235676 145.325608 
L 126.950631 295.488 
L 127.308108 198.886444 
L 128.023063 246.81379 
L 128.380541 244.775917 
L 128.738018 195.856309 
L 129.095495 179.606677 
L 129.452973 293.930255 
L 129.81045 252.04184 
L 130.167928 282.236494 
L 130.525405 240.049334 
L 130.882883 286.333578 
L 131.24036 295.488 
L 131.597838 247.966095 
L 131.955315 159.057241 
L 132.312793 263.383507 
L 132.67027 152.570191 
L 133.027748 259.158389 
L 133.385225 216.587127 
L 133.742703 253.428873 
L 134.10018 276.699029 
L 134.457658 147.544862 
L 134.815135 177.931567 
L 135.172613 220.396134 
L 135.53009 129.481416 
L 135.887568 295.488 
L 136.245045 268.558209 
L 136.602523 204.423909 
L 136.96 241.692435 
L 137.317477 295.488 
L 138.032432 295.488 
L 138.38991 280.998834 
L 138.747387 295.488 
L 139.104865 229.027751 
L 139.462342 243.954367 
L 139.81982 295.488 
L 140.177297 239.654563 
L 140.534775 164.829434 
L 140.892252 277.051123 
L 141.24973 237.926105 
L 141.607207 210.985645 
L 141.964685 295.488 
L 142.322162 295.488 
L 142.67964 277.829995 
L 143.037117 295.488 
L 143.394595 173.290339 
L 143.752072 199.153181 
L 144.10955 149.636082 
L 144.467027 254.677203 
L 144.824505 261.761744 
L 145.181982 213.589 
L 145.539459 258.827635 
L 145.896937 220.993626 
L 146.254414 255.616119 
L 146.611892 209.566603 
L 146.969369 221.857854 
L 147.326847 265.517405 
L 147.684324 246.675087 
L 148.041802 178.849143 
L 148.399279 230.628175 
L 148.756757 248.200823 
L 149.114234 235.824216 
L 149.471712 242.738045 
L 149.829189 278.907614 
L 150.186667 185.634938 
L 150.901622 295.488 
L 151.259099 295.488 
L 151.616577 269.465116 
L 151.974054 219.329185 
L 152.331532 273.316801 
L 152.689009 295.488 
L 153.046486 250.878865 
L 153.403964 284.498426 
L 153.761441 183.661083 
L 154.118919 225.453472 
L 154.476396 295.488 
L 154.833874 281.041512 
L 155.191351 203.517002 
L 155.548829 295.488 
L 155.906306 236.667106 
L 156.263784 208.15823 
L 156.621261 222.444676 
L 157.336216 283.538172 
L 157.693694 257.163194 
L 158.051171 286.664332 
L 158.408649 245.35207 
L 158.766126 230.585497 
L 159.123604 172.138034 
L 159.481081 287.315171 
L 159.838559 196.997944 
L 160.553514 236.485724 
L 160.910991 166.099103 
L 161.268468 247.144544 
L 161.625946 268.803607 
L 161.983423 270.681437 
L 162.340901 155.237563 
L 162.698378 295.125237 
L 163.055856 246.355002 
L 163.413333 236.709784 
L 163.770811 295.488 
L 164.128288 201.425782 
L 164.485766 226.445735 
L 164.843243 139.265338 
L 165.200721 197.648783 
L 165.558198 213.194229 
L 165.915676 204.583951 
L 166.273153 179.777389 
L 166.630631 243.292858 
L 166.988108 180.630948 
L 167.345586 208.200908 
L 168.060541 231.449725 
L 168.418018 295.488 
L 168.775495 228.408921 
L 169.132973 226.95787 
L 169.49045 202.684782 
L 169.847928 256.117585 
L 170.205405 276.026852 
L 170.562883 220.385465 
L 170.92036 286.792366 
L 171.277838 158.566444 
L 171.635315 295.488 
L 171.992793 295.488 
L 172.35027 215.914949 
L 172.707748 273.284793 
L 173.065225 295.488 
L 173.422703 263.586227 
L 173.78018 258.944999 
L 174.495135 147.267455 
L 174.852613 183.906481 
L 175.21009 178.529058 
L 175.567568 259.947931 
L 175.925045 215.562856 
L 176.282523 249.32112 
L 176.64 166.493875 
L 176.997477 199.889376 
L 177.354955 295.488 
L 177.712432 271.161564 
L 178.06991 295.488 
L 178.427387 200.785613 
L 178.784865 262.89271 
L 179.142342 246.6004 
L 179.49982 194.117182 
L 179.857297 288.296764 
L 180.214775 295.488 
L 180.572252 280.838791 
L 180.92973 227.779421 
L 181.287207 228.248879 
L 181.644685 284.103655 
L 182.002162 236.645767 
L 182.35964 295.488 
L 182.717117 280.23063 
L 183.074595 235.728191 
L 183.432072 173.151636 
L 183.78955 228.825031 
L 184.147027 175.712313 
L 184.861982 251.102925 
L 185.219459 265.858828 
L 185.576937 239.526529 
L 185.934414 295.488 
L 186.291892 183.799786 
L 186.649369 225.250752 
L 187.006847 193.53036 
L 187.364324 277.787317 
L 187.721802 295.488 
L 188.079279 284.231689 
L 188.436757 175.168169 
L 188.794234 254.581178 
L 189.151712 230.382776 
L 189.509189 215.498839 
L 189.866667 278.043385 
L 190.224144 282.705952 
L 190.581622 270.542734 
L 190.939099 295.263941 
L 191.654054 92.554314 
L 192.011532 198.395648 
L 192.369009 240.230715 
L 192.726486 178.123618 
L 193.083964 266.04021 
L 193.441441 295.488 
L 194.156396 210.45217 
L 194.513874 241.233647 
L 194.871351 295.488 
L 195.228829 240.625486 
L 195.586306 233.551615 
L 195.943784 181.00438 
L 196.301261 235.557479 
L 196.658739 245.917553 
L 197.016216 191.897929 
L 197.373694 228.323565 
L 197.731171 295.488 
L 198.088649 295.488 
L 198.446126 182.434092 
L 198.803604 249.822586 
L 199.161081 206.002993 
L 199.876036 295.488 
L 200.233514 228.195531 
L 200.590991 295.488 
L 200.948468 244.10374 
L 201.305946 159.985486 
L 201.663423 281.126867 
L 202.020901 282.311181 
L 202.378378 295.488 
L 202.735856 273.423496 
L 203.093333 135.861771 
L 203.450811 293.247407 
L 203.808288 295.488 
L 204.165766 184.930752 
L 204.523243 295.488 
L 204.880721 295.488 
L 205.238198 220.28944 
L 205.595676 266.893769 
L 205.953153 173.269 
L 206.310631 295.488 
L 206.668108 216.661813 
L 207.025586 295.488 
L 207.383063 196.165724 
L 208.098018 233.370233 
L 208.455495 279.942554 
L 208.812973 291.422925 
L 209.17045 295.488 
L 209.527928 226.659125 
L 209.885405 244.135748 
L 210.242883 177.568804 
L 210.60036 235.194716 
L 210.957838 230.222734 
L 211.315315 244.274451 
L 211.672793 295.488 
L 212.03027 270.468048 
L 212.387748 295.488 
L 212.745225 207.52873 
L 213.46018 180.556261 
L 214.175135 295.488 
L 214.532613 259.329101 
L 214.89009 284.957214 
L 215.247568 226.435065 
L 215.605045 294.719797 
L 215.962523 295.488 
L 216.32 147.928963 
L 216.677477 258.390186 
L 217.034955 210.921628 
L 217.74991 266.136235 
L 218.107387 281.06285 
L 218.464865 244.50918 
L 218.822342 295.488 
L 219.17982 208.072874 
L 219.537297 295.488 
L 219.894775 231.129641 
L 220.252252 295.488 
L 220.967207 198.13958 
L 221.324685 259.521152 
L 221.682162 242.503316 
L 222.397117 259.958601 
L 222.754595 261.697727 
L 223.112072 150.062861 
L 223.46955 174.389297 
L 223.827027 227.352641 
L 224.184505 256.384322 
L 224.541982 248.90501 
L 224.899459 286.845714 
L 225.256937 156.219156 
L 225.971892 252.650001 
L 226.329369 172.127365 
L 226.686847 215.424152 
L 227.044324 92.404941 
L 227.401802 227.352641 
L 227.759279 295.263941 
L 228.116757 261.260278 
L 228.474234 197.552758 
L 228.831712 269.230387 
L 229.189189 219.137135 
L 229.546667 220.097389 
L 229.904144 181.740575 
L 230.261622 180.449567 
L 230.619099 229.358505 
L 230.976577 245.13868 
L 231.334054 281.606994 
L 231.691532 259.286423 
L 232.049009 247.8594 
L 232.406486 220.321448 
L 232.763964 241.158961 
L 233.121441 295.488 
L 233.478919 278.555521 
L 233.836396 213.898415 
L 234.193874 244.434494 
L 234.551351 243.442231 
L 234.908829 244.007714 
L 235.266306 243.068799 
L 235.623784 172.095356 
L 235.981261 217.237966 
L 236.338739 295.488 
L 236.696216 281.372266 
L 237.053694 240.230715 
L 237.411171 145.453642 
L 237.768649 283.698214 
L 238.126126 213.653017 
L 238.483604 295.488 
L 238.841081 274.127682 
L 239.198559 174.94411 
L 239.556036 188.387667 
L 239.913514 284.338384 
L 240.270991 274.511784 
L 240.628468 228.611641 
L 240.985946 256.405661 
L 241.343423 122.108799 
L 241.700901 252.575314 
L 242.058378 289.406391 
L 242.415856 163.954536 
L 242.773333 295.488 
L 243.130811 240.380088 
L 243.488288 215.829593 
L 243.845766 295.488 
L 244.203243 210.174764 
L 244.560721 228.494277 
L 244.918198 234.159776 
L 245.275676 176.651228 
L 245.633153 263.362168 
L 245.990631 191.193742 
L 246.348108 229.923988 
L 246.705586 181.932626 
L 247.063063 273.487513 
L 247.420541 268.611556 
L 247.778018 295.488 
L 248.135495 295.488 
L 248.492973 266.082888 
L 248.85045 291.988408 
L 249.207928 171.508535 
L 249.565405 212.169958 
L 249.922883 205.736256 
L 250.28036 192.900861 
L 250.637838 228.099506 
L 250.995315 248.190154 
L 251.71027 155.120199 
L 252.067748 159.932139 
L 252.425225 268.312811 
L 252.782703 295.488 
L 253.14018 264.621168 
L 253.497658 253.802305 
L 253.855135 205.405502 
L 254.212613 275.696097 
L 254.57009 235.888233 
L 254.927568 218.347592 
L 255.285045 161.180469 
L 255.642523 288.318103 
L 256 295.488 
L 256.714955 124.477426 
L 257.072432 279.462427 
L 257.42991 295.488 
L 258.144865 170.55895 
L 258.502342 238.288868 
L 258.85982 205.938976 
L 259.217297 154.960157 
L 259.574775 291.839035 
L 259.932252 218.518304 
L 260.28973 295.488 
L 260.647207 264.066354 
L 261.004685 263.063422 
L 261.362162 231.108302 
L 261.71964 235.152038 
L 262.077117 231.716463 
L 262.434595 257.707338 
L 262.792072 179.361279 
L 263.507027 295.488 
L 263.864505 211.785857 
L 264.221982 188.686412 
L 264.579459 153.466428 
L 264.936937 264.034346 
L 265.294414 246.088265 
L 265.651892 200.476198 
L 266.009369 242.449969 
L 266.366847 223.255558 
L 266.724324 214.751975 
L 267.081802 243.943697 
L 267.439279 257.707338 
L 267.796757 152.559522 
L 268.154234 165.085502 
L 268.511712 219.745296 
L 268.869189 246.952493 
L 269.226667 143.682506 
L 269.584144 174.805407 
L 270.299099 294.207661 
L 270.656577 284.434409 
L 271.014054 234.298479 
L 271.371532 220.844253 
L 271.729009 232.783411 
L 272.086486 179.777389 
L 272.443964 224.386523 
L 272.801441 217.963491 
L 273.158919 295.488 
L 273.516396 245.448095 
L 274.231351 214.901347 
L 274.588829 225.058701 
L 274.946306 240.774859 
L 275.303784 295.488 
L 275.661261 170.036145 
L 276.018739 271.05487 
L 276.376216 287.816637 
L 276.733694 295.488 
L 277.091171 217.931482 
L 277.448649 215.424152 
L 277.806126 199.622639 
L 278.163604 295.488 
L 278.521081 223.511625 
L 278.878559 246.365671 
L 279.236036 288.190069 
L 279.593514 295.488 
L 279.950991 286.93107 
L 280.308468 172.084687 
L 280.665946 175.754991 
L 281.023423 282.812647 
L 281.380901 53.568 
L 281.738378 287.96601 
L 282.095856 210.377484 
L 282.453333 258.784957 
L 282.810811 190.20148 
L 283.168288 253.727619 
L 283.525766 233.700988 
L 283.883243 180.545592 
L 284.240721 278.096732 
L 284.598198 295.488 
L 284.955676 276.080199 
L 285.313153 228.579633 
L 285.670631 295.488 
L 286.028108 285.45868 
L 286.385586 295.488 
L 286.743063 249.673213 
L 287.100541 241.692435 
L 287.458018 295.488 
L 287.815495 142.914303 
L 288.172973 180.38555 
L 288.53045 267.49126 
L 288.887928 295.488 
L 289.245405 235.546809 
L 289.602883 295.488 
L 289.96036 281.233562 
L 290.317838 295.488 
L 290.675315 169.918781 
L 291.032793 295.488 
L 291.39027 295.488 
L 291.747748 272.548598 
L 292.462703 295.488 
L 292.82018 295.488 
L 293.177658 189.35859 
L 293.535135 295.488 
L 293.892613 295.488 
L 294.25009 186.403142 
L 294.607568 271.737717 
L 294.965045 248.403544 
L 295.322523 148.00365 
L 295.68 182.007312 
L 296.037477 295.488 
L 296.394955 286.835044 
L 296.752432 222.530032 
L 297.10991 283.132731 
L 297.467387 194.138521 
L 297.824865 254.687873 
L 298.182342 283.36746 
L 298.53982 278.832927 
L 298.897297 252.137865 
L 299.254775 281.831054 
L 299.612252 188.238294 
L 299.96973 213.695695 
L 300.327207 122.823655 
L 300.684685 188.857124 
L 301.042162 286.354917 
L 301.39964 234.106428 
L 301.757117 295.488 
L 302.114595 181.62321 
L 302.472072 254.517161 
L 302.82955 220.513499 
L 303.187027 295.488 
L 303.544505 287.315171 
L 303.901982 221.591117 
L 304.259459 212.063263 
L 304.616937 211.50845 
L 304.974414 295.488 
L 306.046847 222.498024 
L 306.404324 186.307116 
L 306.761802 207.678103 
L 307.119279 277.029784 
L 307.476757 295.488 
L 307.834234 164.669392 
L 308.191712 292.959331 
L 308.549189 249.758569 
L 308.906667 227.299294 
L 309.264144 184.162549 
L 309.621622 199.003808 
L 309.979099 187.960887 
L 310.694054 295.488 
L 311.051532 244.29579 
L 311.409009 264.407778 
L 311.766486 255.317373 
L 312.123964 168.26501 
L 312.481441 295.488 
L 312.838919 295.488 
L 313.196396 279.643808 
L 313.553874 134.62411 
L 313.911351 249.886603 
L 314.268829 284.797172 
L 314.626306 295.488 
L 314.983784 295.488 
L 315.341261 256.170932 
L 315.698739 288.958273 
L 316.056216 295.488 
L 316.413694 206.035002 
L 316.771171 267.69398 
L 317.128649 259.062364 
L 317.486126 191.097717 
L 317.843604 201.532477 
L 318.201081 219.85199 
L 318.558559 223.895727 
L 318.916036 186.157743 
L 319.273514 253.07678 
L 319.630991 189.443946 
L 319.988468 203.677045 
L 320.345946 295.488 
L 320.703423 259.35044 
L 321.060901 288.723544 
L 321.418378 230.350768 
L 321.775856 228.793022 
L 322.133333 291.166857 
L 322.490811 295.488 
L 323.205766 191.87659 
L 323.563243 275.311996 
L 323.920721 295.488 
L 324.278198 163.954536 
L 324.635676 252.489958 
L 324.993153 295.488 
L 325.350631 295.488 
L 325.708108 209.097145 
L 326.065586 208.57434 
L 326.423063 295.488 
L 326.780541 267.69398 
L 327.138018 282.471223 
L 327.495495 270.393361 
L 327.852973 241.351011 
L 328.21045 295.488 
L 328.567928 295.488 
L 329.282883 221.74049 
L 329.64036 126.728688 
L 329.997838 228.814361 
L 330.355315 168.499739 
L 330.712793 248.019442 
L 331.07027 274.938564 
L 331.427748 226.584438 
L 331.785225 267.725989 
L 332.142703 241.38302 
L 332.50018 295.488 
L 332.857658 223.116854 
L 333.215135 253.2795 
L 333.572613 295.488 
L 333.93009 174.94411 
L 334.287568 289.363713 
L 334.645045 184.952091 
L 335.002523 214.22917 
L 335.36 258.784957 
L 335.717477 255.904195 
L 336.074955 267.373896 
L 336.432432 136.000474 
L 336.78991 283.079384 
L 337.147387 227.160591 
L 337.504865 196.325767 
L 337.862342 228.782353 
L 338.21982 220.257431 
L 338.577297 184.226566 
L 339.292252 250.313382 
L 339.64973 266.520337 
L 340.007207 258.859643 
L 340.364685 214.751975 
L 340.722162 211.956568 
L 341.07964 268.131429 
L 341.437117 263.1061 
L 341.794595 195.173462 
L 342.152072 295.488 
L 342.50955 173.06628 
L 342.867027 222.434007 
L 343.224505 223.842379 
L 343.581982 171.028408 
L 343.939459 156.005767 
L 344.296937 215.178754 
L 344.654414 246.525714 
L 345.011892 182.412753 
L 345.369369 208.542332 
L 345.726847 295.488 
L 346.441802 295.488 
L 346.799279 224.727947 
L 347.156757 240.198707 
L 347.514234 245.245375 
L 347.871712 283.068714 
L 348.229189 252.938077 
L 348.586667 254.762559 
L 348.944144 272.484581 
L 349.301622 238.022131 
L 349.659099 295.488 
L 350.016577 258.752948 
L 350.374054 259.425126 
L 351.089009 246.525714 
L 351.446486 147.320802 
L 351.803964 291.412255 
L 352.161441 235.130699 
L 352.518919 256.309635 
L 352.876396 245.75751 
L 353.233874 202.183316 
L 353.591351 196.240411 
L 353.948829 217.462025 
L 354.306306 248.808984 
L 354.663784 214.357203 
L 355.021261 225.144057 
L 355.378739 295.488 
L 355.736216 264.546481 
L 356.093694 257.109847 
L 356.451171 295.488 
L 356.808649 256.864449 
L 357.166126 130.644391 
L 357.523604 223.479617 
L 357.881081 275.578733 
L 358.238559 122.983697 
L 358.596036 221.505761 
L 358.953514 191.908598 
L 359.310991 225.869582 
L 359.668468 178.016923 
L 360.383423 289.502417 
L 360.740901 295.488 
L 361.455856 295.488 
L 361.813333 210.985645 
L 362.170811 279.995902 
L 362.528288 295.488 
L 362.885766 174.94411 
L 363.243243 147.022057 
L 363.600721 284.605121 
L 363.958198 279.633139 
L 364.315676 221.697812 
L 364.673153 295.488 
L 365.030631 257.984745 
L 365.388108 204.327884 
L 365.745586 217.504703 
L 366.103063 295.488 
L 366.460541 283.239426 
L 366.818018 278.13941 
L 367.175495 295.488 
L 367.532973 294.698458 
L 367.89045 295.488 
L 368.247928 228.825031 
L 368.605405 191.012361 
L 368.962883 235.034674 
L 369.32036 217.792779 
L 370.035315 295.488 
L 370.392793 284.978553 
L 370.75027 250.526772 
L 371.107748 249.193086 
L 371.465225 295.488 
L 372.537658 170.505603 
L 372.895135 173.333017 
L 373.252613 295.488 
L 373.61009 229.145116 
L 373.967568 265.784142 
L 374.325045 235.53614 
L 374.682523 295.488 
L 375.04 226.018955 
L 375.397477 253.887661 
L 375.754955 216.160347 
L 376.112432 106.990133 
L 376.46991 201.180384 
L 376.827387 190.148132 
L 377.184865 265.506735 
L 377.542342 221.53777 
L 377.89982 246.856468 
L 378.257297 173.386365 
L 378.972252 204.413239 
L 379.32973 270.862819 
L 379.687207 253.556907 
L 380.044685 192.868852 
L 380.402162 208.126222 
L 380.75964 168.05162 
L 381.474595 265.506735 
L 381.832072 240.96691 
L 382.547027 212.383348 
L 382.904505 295.488 
L 383.261982 264.311752 
L 383.619459 295.488 
L 383.976937 233.668979 
L 384.334414 295.488 
L 384.691892 270.862819 
L 385.049369 295.488 
L 385.406847 295.488 
L 385.764324 167.806222 
L 386.121802 222.434007 
L 386.479279 250.110662 
L 386.836757 167.027349 
L 387.194234 283.719553 
L 387.551712 206.429773 
L 387.909189 242.257918 
L 388.266667 178.454372 
L 388.624144 270.382692 
L 388.981622 244.893282 
L 389.339099 197.222004 
L 389.696577 295.488 
L 390.054054 218.155542 
L 390.411532 233.02881 
L 390.769009 242.567333 
L 391.126486 183.08493 
L 391.483964 243.292858 
L 391.841441 281.660342 
L 392.198919 261.164253 
L 392.556396 252.906068 
L 392.913874 276.624343 
L 393.271351 264.013007 
L 393.628829 177.686169 
L 393.986306 209.876018 
L 394.343784 295.488 
L 394.701261 210.612213 
L 395.058739 202.556748 
L 395.416216 257.685999 
L 395.773694 266.957786 
L 396.131171 251.839119 
L 396.488649 183.917151 
L 396.846126 194.458606 
L 397.203604 252.67134 
L 397.918559 195.354843 
L 398.276036 295.488 
L 398.633514 217.067254 
L 398.990991 222.498024 
L 399.348468 56.214033 
L 399.705946 295.488 
L 400.063423 248.969027 
L 400.420901 137.600898 
L 400.778378 295.488 
L 401.135856 168.211662 
L 401.493333 267.896701 
L 401.850811 147.054065 
L 402.208288 295.488 
L 402.923243 295.488 
L 403.280721 201.489799 
L 403.638198 176.523194 
L 403.995676 295.488 
L 404.353153 259.649185 
L 404.710631 264.898574 
L 405.068108 291.913721 
L 405.425586 190.862988 
L 405.783063 295.488 
L 406.140541 199.099834 
L 406.498018 289.257018 
L 406.855495 216.93922 
L 407.212973 216.437754 
L 407.57045 241.254986 
L 407.927928 254.357119 
L 408.285405 159.06791 
L 408.642883 279.046317 
L 409.00036 236.144301 
L 409.357838 250.014637 
L 409.715315 153.829191 
L 410.072793 209.502586 
L 410.43027 295.488 
L 410.787748 269.006328 
L 411.145225 289.459739 
L 411.502703 207.902162 
L 411.86018 282.087121 
L 412.217658 189.582649 
L 412.575135 238.961046 
L 412.932613 198.907783 
L 413.29009 216.885872 
L 413.647568 243.602274 
L 414.005045 144.194642 
L 414.362523 228.825031 
L 414.72 222.252626 
L 414.72 222.252626 
" style="fill:none;stroke:#1f77b4;stroke-linecap:square;stroke-width:1.5;"/>
   </g>
   <g id="patch_3">
    <path d="M 57.6 307.584 
L 57.6 41.472 
" style="fill:none;stroke:#000000;stroke-linecap:square;stroke-linejoin:miter;stroke-width:0.8;"/>
   </g>
   <g id="patch_4">
    <path d="M 414.72 307.584 
L 414.72 41.472 
" style="fill:none;stroke:#000000;stroke-linecap:square;stroke-linejoin:miter;stroke-width:0.8;"/>
   </g>
   <g id="patch_5">
    <path d="M 57.6 307.584 
L 414.72 307.584 
" style="fill:none;stroke:#000000;stroke-linecap:square;stroke-linejoin:miter;stroke-width:0.8;"/>
   </g>
   <g id="patch_6">
    <path d="M 57.6 41.472 
L 414.72 41.472 
" style="fill:none;stroke:#000000;stroke-linecap:square;stroke-linejoin:miter;stroke-width:0.8;"/>
   </g>
   <g id="legend_1">
    <g id="patch_7">
     <path d="M 64.6 64.150125 
L 193.953125 64.150125 
Q 195.953125 64.150125 195.953125 62.150125 
L 195.953125 48.472 
Q 195.953125 46.472 193.953125 46.472 
L 64.6 46.472 
Q 62.6 46.472 62.6 48.472 
L 62.6 62.150125 
Q 62.6 64.150125 64.6 64.150125 
z
" style="fill:#ffffff;opacity:0.8;stroke:#cccccc;stroke-linejoin:miter;"/>
    </g>
    <g id="line2d_13">
     <path d="M 66.6 54.570438 
L 86.6 54.570438 
" style="fill:none;stroke:#1f77b4;stroke-linecap:square;stroke-width:1.5;"/>
    </g>
    <g id="line2d_14"/>
    <g id="text_12">
     <!-- Packets per second -->
     <defs>
      <path d="M 19.671875 64.796875 
L 19.671875 37.40625 
L 32.078125 37.40625 
Q 38.96875 37.40625 42.71875 40.96875 
Q 46.484375 44.53125 46.484375 51.125 
Q 46.484375 57.671875 42.71875 61.234375 
Q 38.96875 64.796875 32.078125 64.796875 
z
M 9.8125 72.90625 
L 32.078125 72.90625 
Q 44.34375 72.90625 50.609375 67.359375 
Q 56.890625 61.8125 56.890625 51.125 
Q 56.890625 40.328125 50.609375 34.8125 
Q 44.34375 29.296875 32.078125 29.296875 
L 19.671875 29.296875 
L 19.671875 0 
L 9.8125 0 
z
" id="DejaVuSans-50"/>
      <path d="M 34.28125 27.484375 
Q 23.390625 27.484375 19.1875 25 
Q 14.984375 22.515625 14.984375 16.5 
Q 14.984375 11.71875 18.140625 8.90625 
Q 21.296875 6.109375 26.703125 6.109375 
Q 34.1875 6.109375 38.703125 11.40625 
Q 43.21875 16.703125 43.21875 25.484375 
L 43.21875 27.484375 
z
M 52.203125 31.203125 
L 52.203125 0 
L 43.21875 0 
L 43.21875 8.296875 
Q 40.140625 3.328125 35.546875 0.953125 
Q 30.953125 -1.421875 24.3125 -1.421875 
Q 15.921875 -1.421875 10.953125 3.296875 
Q 6 8.015625 6 15.921875 
Q 6 25.140625 12.171875 29.828125 
Q 18.359375 34.515625 30.609375 34.515625 
L 43.21875 34.515625 
L 43.21875 35.40625 
Q 43.21875 41.609375 39.140625 45 
Q 35.0625 48.390625 27.6875 48.390625 
Q 23 48.390625 18.546875 47.265625 
Q 14.109375 46.140625 10.015625 43.890625 
L 10.015625 52.203125 
Q 14.9375 54.109375 19.578125 55.046875 
Q 24.21875 56 28.609375 56 
Q 40.484375 56 46.34375 49.84375 
Q 52.203125 43.703125 52.203125 31.203125 
" id="DejaVuSans-61"/>
      <path d="M 48.78125 52.59375 
L 48.78125 44.1875 
Q 44.96875 46.296875 41.140625 47.34375 
Q 37.3125 48.390625 33.40625 48.390625 
Q 24.65625 48.390625 19.8125 42.84375 
Q 14.984375 37.3125 14.984375 27.296875 
Q 14.984375 17.28125 19.8125 11.734375 
Q 24.65625 6.203125 33.40625 6.203125 
Q 37.3125 6.203125 41.140625 7.25 
Q 44.96875 8.296875 48.78125 10.40625 
L 48.78125 2.09375 
Q 45.015625 0.34375 40.984375 -0.53125 
Q 36.96875 -1.421875 32.421875 -1.421875 
Q 20.0625 -1.421875 12.78125 6.34375 
Q 5.515625 14.109375 5.515625 27.296875 
Q 5.515625 40.671875 12.859375 48.328125 
Q 20.21875 56 33.015625 56 
Q 37.15625 56 41.109375 55.140625 
Q 45.0625 54.296875 48.78125 52.59375 
" id="DejaVuSans-63"/>
      <path d="M 9.078125 75.984375 
L 18.109375 75.984375 
L 18.109375 31.109375 
L 44.921875 54.6875 
L 56.390625 54.6875 
L 27.390625 29.109375 
L 57.625 0 
L 45.90625 0 
L 18.109375 26.703125 
L 18.109375 0 
L 9.078125 0 
z
" id="DejaVuSans-6b"/>
      <path d="M 56.203125 29.59375 
L 56.203125 25.203125 
L 14.890625 25.203125 
Q 15.484375 15.921875 20.484375 11.0625 
Q 25.484375 6.203125 34.421875 6.203125 
Q 39.59375 6.203125 44.453125 7.46875 
Q 49.3125 8.734375 54.109375 11.28125 
L 54.109375 2.78125 
Q 49.265625 0.734375 44.1875 -0.34375 
Q 39.109375 -1.421875 33.890625 -1.421875 
Q 20.796875 -1.421875 13.15625 6.1875 
Q 5.515625 13.8125 5.515625 26.8125 
Q 5.515625 40.234375 12.765625 48.109375 
Q 20.015625 56 32.328125 56 
Q 43.359375 56 49.78125 48.890625 
Q 56.203125 41.796875 56.203125 29.59375 
M 47.21875 32.234375 
Q 47.125 39.59375 43.09375 43.984375 
Q 39.0625 48.390625 32.421875 48.390625 
Q 24.90625 48.390625 20.390625 44.140625 
Q 15.875 39.890625 15.1875 32.171875 
z
" id="DejaVuSans-65"/>
      <path d="M 18.3125 70.21875 
L 18.3125 54.6875 
L 36.8125 54.6875 
L 36.8125 47.703125 
L 18.3125 47.703125 
L 18.3125 18.015625 
Q 18.3125 11.328125 20.140625 9.421875 
Q 21.96875 7.515625 27.59375 7.515625 
L 36.8125 7.515625 
L 36.8125 0 
L 27.59375 0 
Q 17.1875 0 13.234375 3.875 
Q 9.28125 7.765625 9.28125 18.015625 
L 9.28125 47.703125 
L 2.6875 47.703125 
L 2.6875 54.6875 
L 9.28125 54.6875 
L 9.28125 70.21875 
z
" id="DejaVuSans-74"/>
      <path d="M 44.28125 53.078125 
L 44.28125 44.578125 
Q 40.484375 46.53125 36.375 47.5 
Q 32.28125 48.484375 27.875 48.484375 
Q 21.1875 48.484375 17.84375 46.4375 
Q 14.5 44.390625 14.5 40.28125 
Q 14.5 37.15625 16.890625 35.375 
Q 19.28125 33.59375 26.515625 31.984375 
L 29.59375 31.296875 
Q 39.15625 29.25 43.1875 25.515625 
Q 47.21875 21.78125 47.21875 15.09375 
Q 47.21875 7.46875 41.1875 3.015625 
Q 35.15625 -1.421875 24.609375 -1.421875 
Q 20.21875 -1.421875 15.453125 -0.5625 
Q 10.6875 0.296875 5.421875 2 
L 5.421875 11.28125 
Q 10.40625 8.6875 15.234375 7.390625 
Q 20.0625 6.109375 24.8125 6.109375 
Q 31.15625 6.109375 34.5625 8.28125 
Q 37.984375 10.453125 37.984375 14.40625 
Q 37.984375 18.0625 35.515625 20.015625 
Q 33.0625 21.96875 24.703125 23.78125 
L 21.578125 24.515625 
Q 13.234375 26.265625 9.515625 29.90625 
Q 5.8125 33.546875 5.8125 39.890625 
Q 5.8125 47.609375 11.28125 51.796875 
Q 16.75 56 26.8125 56 
Q 31.78125 56 36.171875 55.265625 
Q 40.578125 54.546875 44.28125 53.078125 
" id="DejaVuSans-73"/>
      <path id="DejaVuSans-20"/>
      <path d="M 18.109375 8.203125 
L 18.109375 -20.796875 
L 9.078125 -20.796875 
L 9.078125 54.6875 
L 18.109375 54.6875 
L 18.109375 46.390625 
Q 20.953125 51.265625 25.265625 53.625 
Q 29.59375 56 35.59375 56 
Q 45.5625 56 51.78125 48.09375 
Q 58.015625 40.1875 58.015625 27.296875 
Q 58.015625 14.40625 51.78125 6.484375 
Q 45.5625 -1.421875 35.59375 -1.421875 
Q 29.59375 -1.421875 25.265625 0.953125 
Q 20.953125 3.328125 18.109375 8.203125 
M 48.6875 27.296875 
Q 48.6875 37.203125 44.609375 42.84375 
Q 40.53125 48.484375 33.40625 48.484375 
Q 26.265625 48.484375 22.1875 42.84375 
Q 18.109375 37.203125 18.109375 27.296875 
Q 18.109375 17.390625 22.1875 11.75 
Q 26.265625 6.109375 33.40625 6.109375 
Q 40.53125 6.109375 44.609375 11.75 
Q 48.6875 17.390625 48.6875 27.296875 
" id="DejaVuSans-70"/>
      <path d="M 41.109375 46.296875 
Q 39.59375 47.171875 37.8125 47.578125 
Q 36.03125 48 33.890625 48 
Q 26.265625 48 22.1875 43.046875 
Q 18.109375 38.09375 18.109375 28.8125 
L 18.109375 0 
L 9.078125 0 
L 9.078125 54.6875 
L 18.109375 54.6875 
L 18.109375 46.1875 
Q 20.953125 51.171875 25.484375 53.578125 
Q 30.03125 56 36.53125 56 
Q 37.453125 56 38.578125 55.875 
Q 39.703125 55.765625 41.0625 55.515625 
z
" id="DejaVuSans-72"/>
      <path d="M 30.609375 48.390625 
Q 23.390625 48.390625 19.1875 42.75 
Q 14.984375 37.109375 14.984375 27.296875 
Q 14.984375 17.484375 19.15625 11.84375 
Q 23.34375 6.203125 30.609375 6.203125 
Q 37.796875 6.203125 41.984375 11.859375 
Q 46.1875 17.53125 46.1875 27.296875 
Q 46.1875 37.015625 41.984375 42.703125 
Q 37.796875 48.390625 30.609375 48.390625 
M 30.609375 56 
Q 42.328125 56 49.015625 48.375 
Q 55.71875 40.765625 55.71875 27.296875 
Q 55.71875 13.875 49.015625 6.21875 
Q 42.328125 -1.421875 30.609375 -1.421875 
Q 18.84375 -1.421875 12.171875 6.21875 
Q 5.515625 13.875 5.515625 27.296875 
Q 5.515625 40.765625 12.171875 48.375 
Q 18.84375 56 30.609375 56 
" id="DejaVuSans-6f"/>
      <path d="M 54.890625 33.015625 
L 54.890625 0 
L 45.90625 0 
L 45.90625 32.71875 
Q 45.90625 40.484375 42.875 44.328125 
Q 39.84375 48.1875 33.796875 48.1875 
Q 26.515625 48.1875 22.3125 43.546875 
Q 18.109375 38.921875 18.109375 30.90625 
L 18.109375 0 
L 9.078125 0 
L 9.078125 54.6875 
L 18.109375 54.6875 
L 18.109375 46.1875 
Q 21.34375 51.125 25.703125 53.5625 
Q 30.078125 56 35.796875 56 
Q 45.21875 56 50.046875 50.171875 
Q 54.890625 44.34375 54.890625 33.015625 
" id="DejaVuSans-6e"/>
      <path d="M 45.40625 46.390625 
L 45.40625 75.984375 
L 54.390625 75.984375 
L 54.390625 0 
L 45.40625 0 
L 45.40625 8.203125 
Q 42.578125 3.328125 38.25 0.953125 
Q 33.9375 -1.421875 27.875 -1.421875 
Q 17.96875 -1.421875 11.734375 6.484375 
Q 5.515625 14.40625 5.515625 27.296875 
Q 5.515625 40.1875 11.734375 48.09375 
Q 17.96875 56 27.875 56 
Q 33.9375 56 38.25 53.625 
Q 42.578125 51.265625 45.40625 46.390625 
M 14.796875 27.296875 
Q 14.796875 17.390625 18.875 11.75 
Q 22.953125 6.109375 30.078125 6.109375 
Q 37.203125 6.109375 41.296875 11.75 
Q 45.40625 17.390625 45.40625 27.296875 
Q 45.40625 37.203125 41.296875 42.84375 
Q 37.203125 48.484375 30.078125 48.484375 
Q 22.953125 48.484375 18.875 42.84375 
Q 14.796875 37.203125 14.796875 27.296875 
" id="DejaVuSans-64"/>
     </defs>
     <g transform="translate(94.6 58.070438)scale(0.1 -0.1)">
      <use xlink:href="#DejaVuSans-50"/>
      <use x="60.240234" xlink:href="#DejaVuSans-61"/>
      <use x="121.519531" xlink:href="#DejaVuSans-63"/>
      <use x="176.5" xlink:href="#DejaVuSans-6b"/>
      <use x="234.363281" xlink:href="#DejaVuSans-65"/>
      <use x="295.886719" xlink:href="#DejaVuSans-74"/>
      <use x="335.095703" xlink:href="#DejaVuSans-73"/>
      <use x="387.195312" xlink:href="#DejaVuSans-20"/>
      <use x="418.982422" xlink:href="#DejaVuSans-70"/>
      <use x="482.458984" xlink:href="#DejaVuSans-65"/>
      <use x="543.982422" xlink:href="#DejaVuSans-72"/>
      <use x="585.095703" xlink:href="#DejaVuSans-20"/>
      <use x="616.882812" xlink:href="#DejaVuSans-73"/>
      <use x="668.982422" xlink:href="#DejaVuSans-65"/>
      <use x="730.505859" xlink:href="#DejaVuSans-63"/>
      <use x="785.486328" xlink:href="#DejaVuSans-6f"/>
      <use x="846.667969" xlink:href="#DejaVuSans-6e"/>
      <use x="910.046875" xlink:href="#DejaVuSans-64"/>
     </g>
    </g>
   </g>
  </g>
 </g>
 <defs>
  <clipPath id="p1a0dbdb6c4">
   <rect height="266.112" width="357.12" x="57.6" y="41.472"/>
  </clipPath>
 </defs>
</svg>
