<?xml version="1.0" encoding="utf-8" standalone="no"?>
<!DOCTYPE svg PUBLIC "-//W3C//DTD SVG 1.1//EN"
  "http://www.w3.org/Graphics/SVG/1.1/DTD/svg11.dtd">
<!-- Created with matplotlib (http://matplotlib.org/) -->
<svg height="345pt" version="1.1" viewBox="0 0 460 345" width="460pt" xmlns="http://www.w3.org/2000/svg" xmlns:xlink="http://www.w3.org/1999/xlink">
 <defs>
  <style type="text/css">
*{stroke-linecap:butt;stroke-linejoin:round;}
  </style>
 </defs>
 <g id="figure_1">
  <g id="patch_1">
   <path d="M 0 345.6 
L 460.8 345.6 
L 460.8 0 
L 0 0 
z
" style="fill:#ffffff;"/>
  </g>
  <g id="axes_1">
   <g id="patch_2">
    <path d="M 57.6 307.584 
L 414.72 307.584 
L 414.72 41.472 
L 57.6 41.472 
z
" style="fill:#ffffff;"/>
   </g>
   <g id="matplotlib.axis_1">
    <g id="xtick_1">
     <g id="line2d_1">
      <defs>
       <path d="M 0 0 
L 0 3.5 
" id="m86b934ca46" style="stroke:#000000;stroke-width:0.8;"/>
      </defs>
      <g>
       <use style="stroke:#000000;stroke-width:0.8;" x="57.6" xlink:href="#m86b934ca46" y="307.584"/>
      </g>
     </g>
     <g id="text_1">
      <!-- 0 -->
      <defs>
       <path d="M 31.78125 66.40625 
Q 24.171875 66.40625 20.328125 58.90625 
Q 16.5 51.421875 16.5 36.375 
Q 16.5 21.390625 20.328125 13.890625 
Q 24.171875 6.390625 31.78125 6.390625 
Q 39.453125 6.390625 43.28125 13.890625 
Q 47.125 21.390625 47.125 36.375 
Q 47.125 51.421875 43.28125 58.90625 
Q 39.453125 66.40625 31.78125 66.40625 
M 31.78125 74.21875 
Q 44.046875 74.21875 50.515625 64.515625 
Q 56.984375 54.828125 56.984375 36.375 
Q 56.984375 17.96875 50.515625 8.265625 
Q 44.046875 -1.421875 31.78125 -1.421875 
Q 19.53125 -1.421875 13.0625 8.265625 
Q 6.59375 17.96875 6.59375 36.375 
Q 6.59375 54.828125 13.0625 64.515625 
Q 19.53125 74.21875 31.78125 74.21875 
" id="DejaVuSans-30"/>
      </defs>
      <g transform="translate(54.41875 322.182437)scale(0.1 -0.1)">
       <use xlink:href="#DejaVuSans-30"/>
      </g>
     </g>
    </g>
    <g id="xtick_2">
     <g id="line2d_2">
      <g>
       <use style="stroke:#000000;stroke-width:0.8;" x="129.095495" xlink:href="#m86b934ca46" y="307.584"/>
      </g>
     </g>
     <g id="text_2">
      <!-- 200 -->
      <defs>
       <path d="M 19.1875 8.296875 
L 53.609375 8.296875 
L 53.609375 0 
L 7.328125 0 
L 7.328125 8.296875 
Q 12.9375 14.109375 22.625 23.890625 
Q 32.328125 33.6875 34.8125 36.53125 
Q 39.546875 41.84375 41.421875 45.53125 
Q 43.3125 49.21875 43.3125 52.78125 
Q 43.3125 58.59375 39.234375 62.25 
Q 35.15625 65.921875 28.609375 65.921875 
Q 23.96875 65.921875 18.8125 64.3125 
Q 13.671875 62.703125 7.8125 59.421875 
L 7.8125 69.390625 
Q 13.765625 71.78125 18.9375 73 
Q 24.125 74.21875 28.421875 74.21875 
Q 39.75 74.21875 46.484375 68.546875 
Q 53.21875 62.890625 53.21875 53.421875 
Q 53.21875 48.921875 51.53125 44.890625 
Q 49.859375 40.875 45.40625 35.40625 
Q 44.1875 33.984375 37.640625 27.21875 
Q 31.109375 20.453125 19.1875 8.296875 
" id="DejaVuSans-32"/>
      </defs>
      <g transform="translate(119.551745 322.182437)scale(0.1 -0.1)">
       <use xlink:href="#DejaVuSans-32"/>
       <use x="63.623047" xlink:href="#DejaVuSans-30"/>
       <use x="127.246094" xlink:href="#DejaVuSans-30"/>
      </g>
     </g>
    </g>
    <g id="xtick_3">
     <g id="line2d_3">
      <g>
       <use style="stroke:#000000;stroke-width:0.8;" x="200.590991" xlink:href="#m86b934ca46" y="307.584"/>
      </g>
     </g>
     <g id="text_3">
      <!-- 400 -->
      <defs>
       <path d="M 37.796875 64.3125 
L 12.890625 25.390625 
L 37.796875 25.390625 
z
M 35.203125 72.90625 
L 47.609375 72.90625 
L 47.609375 25.390625 
L 58.015625 25.390625 
L 58.015625 17.1875 
L 47.609375 17.1875 
L 47.609375 0 
L 37.796875 0 
L 37.796875 17.1875 
L 4.890625 17.1875 
L 4.890625 26.703125 
z
" id="DejaVuSans-34"/>
      </defs>
      <g transform="translate(191.047241 322.182437)scale(0.1 -0.1)">
       <use xlink:href="#DejaVuSans-34"/>
       <use x="63.623047" xlink:href="#DejaVuSans-30"/>
       <use x="127.246094" xlink:href="#DejaVuSans-30"/>
      </g>
     </g>
    </g>
    <g id="xtick_4">
     <g id="line2d_4">
      <g>
       <use style="stroke:#000000;stroke-width:0.8;" x="272.086486" xlink:href="#m86b934ca46" y="307.584"/>
      </g>
     </g>
     <g id="text_4">
      <!-- 600 -->
      <defs>
       <path d="M 33.015625 40.375 
Q 26.375 40.375 22.484375 35.828125 
Q 18.609375 31.296875 18.609375 23.390625 
Q 18.609375 15.53125 22.484375 10.953125 
Q 26.375 6.390625 33.015625 6.390625 
Q 39.65625 6.390625 43.53125 10.953125 
Q 47.40625 15.53125 47.40625 23.390625 
Q 47.40625 31.296875 43.53125 35.828125 
Q 39.65625 40.375 33.015625 40.375 
M 52.59375 71.296875 
L 52.59375 62.3125 
Q 48.875 64.0625 45.09375 64.984375 
Q 41.3125 65.921875 37.59375 65.921875 
Q 27.828125 65.921875 22.671875 59.328125 
Q 17.53125 52.734375 16.796875 39.40625 
Q 19.671875 43.65625 24.015625 45.921875 
Q 28.375 48.1875 33.59375 48.1875 
Q 44.578125 48.1875 50.953125 41.515625 
Q 57.328125 34.859375 57.328125 23.390625 
Q 57.328125 12.15625 50.6875 5.359375 
Q 44.046875 -1.421875 33.015625 -1.421875 
Q 20.359375 -1.421875 13.671875 8.265625 
Q 6.984375 17.96875 6.984375 36.375 
Q 6.984375 53.65625 15.1875 63.9375 
Q 23.390625 74.21875 37.203125 74.21875 
Q 40.921875 74.21875 44.703125 73.484375 
Q 48.484375 72.75 52.59375 71.296875 
" id="DejaVuSans-36"/>
      </defs>
      <g transform="translate(262.542736 322.182437)scale(0.1 -0.1)">
       <use xlink:href="#DejaVuSans-36"/>
       <use x="63.623047" xlink:href="#DejaVuSans-30"/>
       <use x="127.246094" xlink:href="#DejaVuSans-30"/>
      </g>
     </g>
    </g>
    <g id="xtick_5">
     <g id="line2d_5">
      <g>
       <use style="stroke:#000000;stroke-width:0.8;" x="343.581982" xlink:href="#m86b934ca46" y="307.584"/>
      </g>
     </g>
     <g id="text_5">
      <!-- 800 -->
      <defs>
       <path d="M 31.78125 34.625 
Q 24.75 34.625 20.71875 30.859375 
Q 16.703125 27.09375 16.703125 20.515625 
Q 16.703125 13.921875 20.71875 10.15625 
Q 24.75 6.390625 31.78125 6.390625 
Q 38.8125 6.390625 42.859375 10.171875 
Q 46.921875 13.96875 46.921875 20.515625 
Q 46.921875 27.09375 42.890625 30.859375 
Q 38.875 34.625 31.78125 34.625 
M 21.921875 38.8125 
Q 15.578125 40.375 12.03125 44.71875 
Q 8.5 49.078125 8.5 55.328125 
Q 8.5 64.0625 14.71875 69.140625 
Q 20.953125 74.21875 31.78125 74.21875 
Q 42.671875 74.21875 48.875 69.140625 
Q 55.078125 64.0625 55.078125 55.328125 
Q 55.078125 49.078125 51.53125 44.71875 
Q 48 40.375 41.703125 38.8125 
Q 48.828125 37.15625 52.796875 32.3125 
Q 56.78125 27.484375 56.78125 20.515625 
Q 56.78125 9.90625 50.3125 4.234375 
Q 43.84375 -1.421875 31.78125 -1.421875 
Q 19.734375 -1.421875 13.25 4.234375 
Q 6.78125 9.90625 6.78125 20.515625 
Q 6.78125 27.484375 10.78125 32.3125 
Q 14.796875 37.15625 21.921875 38.8125 
M 18.3125 54.390625 
Q 18.3125 48.734375 21.84375 45.5625 
Q 25.390625 42.390625 31.78125 42.390625 
Q 38.140625 42.390625 41.71875 45.5625 
Q 45.3125 48.734375 45.3125 54.390625 
Q 45.3125 60.0625 41.71875 63.234375 
Q 38.140625 66.40625 31.78125 66.40625 
Q 25.390625 66.40625 21.84375 63.234375 
Q 18.3125 60.0625 18.3125 54.390625 
" id="DejaVuSans-38"/>
      </defs>
      <g transform="translate(334.038232 322.182437)scale(0.1 -0.1)">
       <use xlink:href="#DejaVuSans-38"/>
       <use x="63.623047" xlink:href="#DejaVuSans-30"/>
       <use x="127.246094" xlink:href="#DejaVuSans-30"/>
      </g>
     </g>
    </g>
    <g id="xtick_6">
     <g id="line2d_6">
      <g>
       <use style="stroke:#000000;stroke-width:0.8;" x="415.077477" xlink:href="#m86b934ca46" y="307.584"/>
      </g>
     </g>
     <g id="text_6">
      <!-- 1000 -->
      <defs>
       <path d="M 12.40625 8.296875 
L 28.515625 8.296875 
L 28.515625 63.921875 
L 10.984375 60.40625 
L 10.984375 69.390625 
L 28.421875 72.90625 
L 38.28125 72.90625 
L 38.28125 8.296875 
L 54.390625 8.296875 
L 54.390625 0 
L 12.40625 0 
z
" id="DejaVuSans-31"/>
      </defs>
      <g transform="translate(402.352477 322.182437)scale(0.1 -0.1)">
       <use xlink:href="#DejaVuSans-31"/>
       <use x="63.623047" xlink:href="#DejaVuSans-30"/>
       <use x="127.246094" xlink:href="#DejaVuSans-30"/>
       <use x="190.869141" xlink:href="#DejaVuSans-30"/>
      </g>
     </g>
    </g>
   </g>
   <g id="matplotlib.axis_2">
    <g id="ytick_1">
     <g id="line2d_7">
      <defs>
       <path d="M 0 0 
L -3.5 0 
" id="mdd792ac4f0" style="stroke:#000000;stroke-width:0.8;"/>
      </defs>
      <g>
       <use style="stroke:#000000;stroke-width:0.8;" x="57.6" xlink:href="#mdd792ac4f0" y="295.488"/>
      </g>
     </g>
     <g id="text_7">
      <!-- 0.93 -->
      <defs>
       <path d="M 10.6875 12.40625 
L 21 12.40625 
L 21 0 
L 10.6875 0 
z
" id="DejaVuSans-2e"/>
       <path d="M 10.984375 1.515625 
L 10.984375 10.5 
Q 14.703125 8.734375 18.5 7.8125 
Q 22.3125 6.890625 25.984375 6.890625 
Q 35.75 6.890625 40.890625 13.453125 
Q 46.046875 20.015625 46.78125 33.40625 
Q 43.953125 29.203125 39.59375 26.953125 
Q 35.25 24.703125 29.984375 24.703125 
Q 19.046875 24.703125 12.671875 31.3125 
Q 6.296875 37.9375 6.296875 49.421875 
Q 6.296875 60.640625 12.9375 67.421875 
Q 19.578125 74.21875 30.609375 74.21875 
Q 43.265625 74.21875 49.921875 64.515625 
Q 56.59375 54.828125 56.59375 36.375 
Q 56.59375 19.140625 48.40625 8.859375 
Q 40.234375 -1.421875 26.421875 -1.421875 
Q 22.703125 -1.421875 18.890625 -0.6875 
Q 15.09375 0.046875 10.984375 1.515625 
M 30.609375 32.421875 
Q 37.25 32.421875 41.125 36.953125 
Q 45.015625 41.5 45.015625 49.421875 
Q 45.015625 57.28125 41.125 61.84375 
Q 37.25 66.40625 30.609375 66.40625 
Q 23.96875 66.40625 20.09375 61.84375 
Q 16.21875 57.28125 16.21875 49.421875 
Q 16.21875 41.5 20.09375 36.953125 
Q 23.96875 32.421875 30.609375 32.421875 
" id="DejaVuSans-39"/>
       <path d="M 40.578125 39.3125 
Q 47.65625 37.796875 51.625 33 
Q 55.609375 28.21875 55.609375 21.1875 
Q 55.609375 10.40625 48.1875 4.484375 
Q 40.765625 -1.421875 27.09375 -1.421875 
Q 22.515625 -1.421875 17.65625 -0.515625 
Q 12.796875 0.390625 7.625 2.203125 
L 7.625 11.71875 
Q 11.71875 9.328125 16.59375 8.109375 
Q 21.484375 6.890625 26.8125 6.890625 
Q 36.078125 6.890625 40.9375 10.546875 
Q 45.796875 14.203125 45.796875 21.1875 
Q 45.796875 27.640625 41.28125 31.265625 
Q 36.765625 34.90625 28.71875 34.90625 
L 20.21875 34.90625 
L 20.21875 43.015625 
L 29.109375 43.015625 
Q 36.375 43.015625 40.234375 45.921875 
Q 44.09375 48.828125 44.09375 54.296875 
Q 44.09375 59.90625 40.109375 62.90625 
Q 36.140625 65.921875 28.71875 65.921875 
Q 24.65625 65.921875 20.015625 65.03125 
Q 15.375 64.15625 9.8125 62.3125 
L 9.8125 71.09375 
Q 15.4375 72.65625 20.34375 73.4375 
Q 25.25 74.21875 29.59375 74.21875 
Q 40.828125 74.21875 47.359375 69.109375 
Q 53.90625 64.015625 53.90625 55.328125 
Q 53.90625 49.265625 50.4375 45.09375 
Q 46.96875 40.921875 40.578125 39.3125 
" id="DejaVuSans-33"/>
      </defs>
      <g transform="translate(28.334375 299.287219)scale(0.1 -0.1)">
       <use xlink:href="#DejaVuSans-30"/>
       <use x="63.623047" xlink:href="#DejaVuSans-2e"/>
       <use x="95.410156" xlink:href="#DejaVuSans-39"/>
       <use x="159.033203" xlink:href="#DejaVuSans-33"/>
      </g>
     </g>
    </g>
    <g id="ytick_2">
     <g id="line2d_8">
      <g>
       <use style="stroke:#000000;stroke-width:0.8;" x="57.6" xlink:href="#mdd792ac4f0" y="260.928"/>
      </g>
     </g>
     <g id="text_8">
      <!-- 0.94 -->
      <g transform="translate(28.334375 264.727219)scale(0.1 -0.1)">
       <use xlink:href="#DejaVuSans-30"/>
       <use x="63.623047" xlink:href="#DejaVuSans-2e"/>
       <use x="95.410156" xlink:href="#DejaVuSans-39"/>
       <use x="159.033203" xlink:href="#DejaVuSans-34"/>
      </g>
     </g>
    </g>
    <g id="ytick_3">
     <g id="line2d_9">
      <g>
       <use style="stroke:#000000;stroke-width:0.8;" x="57.6" xlink:href="#mdd792ac4f0" y="226.368"/>
      </g>
     </g>
     <g id="text_9">
      <!-- 0.95 -->
      <defs>
       <path d="M 10.796875 72.90625 
L 49.515625 72.90625 
L 49.515625 64.59375 
L 19.828125 64.59375 
L 19.828125 46.734375 
Q 21.96875 47.46875 24.109375 47.828125 
Q 26.265625 48.1875 28.421875 48.1875 
Q 40.625 48.1875 47.75 41.5 
Q 54.890625 34.8125 54.890625 23.390625 
Q 54.890625 11.625 47.5625 5.09375 
Q 40.234375 -1.421875 26.90625 -1.421875 
Q 22.3125 -1.421875 17.546875 -0.640625 
Q 12.796875 0.140625 7.71875 1.703125 
L 7.71875 11.625 
Q 12.109375 9.234375 16.796875 8.0625 
Q 21.484375 6.890625 26.703125 6.890625 
Q 35.15625 6.890625 40.078125 11.328125 
Q 45.015625 15.765625 45.015625 23.390625 
Q 45.015625 31 40.078125 35.4375 
Q 35.15625 39.890625 26.703125 39.890625 
Q 22.75 39.890625 18.8125 39.015625 
Q 14.890625 38.140625 10.796875 36.28125 
z
" id="DejaVuSans-35"/>
      </defs>
      <g transform="translate(28.334375 230.167219)scale(0.1 -0.1)">
       <use xlink:href="#DejaVuSans-30"/>
       <use x="63.623047" xlink:href="#DejaVuSans-2e"/>
       <use x="95.410156" xlink:href="#DejaVuSans-39"/>
       <use x="159.033203" xlink:href="#DejaVuSans-35"/>
      </g>
     </g>
    </g>
    <g id="ytick_4">
     <g id="line2d_10">
      <g>
       <use style="stroke:#000000;stroke-width:0.8;" x="57.6" xlink:href="#mdd792ac4f0" y="191.808"/>
      </g>
     </g>
     <g id="text_10">
      <!-- 0.96 -->
      <g transform="translate(28.334375 195.607219)scale(0.1 -0.1)">
       <use xlink:href="#DejaVuSans-30"/>
       <use x="63.623047" xlink:href="#DejaVuSans-2e"/>
       <use x="95.410156" xlink:href="#DejaVuSans-39"/>
       <use x="159.033203" xlink:href="#DejaVuSans-36"/>
      </g>
     </g>
    </g>
    <g id="ytick_5">
     <g id="line2d_11">
      <g>
       <use style="stroke:#000000;stroke-width:0.8;" x="57.6" xlink:href="#mdd792ac4f0" y="157.248"/>
      </g>
     </g>
     <g id="text_11">
      <!-- 0.97 -->
      <defs>
       <path d="M 8.203125 72.90625 
L 55.078125 72.90625 
L 55.078125 68.703125 
L 28.609375 0 
L 18.3125 0 
L 43.21875 64.59375 
L 8.203125 64.59375 
z
" id="DejaVuSans-37"/>
      </defs>
      <g transform="translate(28.334375 161.047219)scale(0.1 -0.1)">
       <use xlink:href="#DejaVuSans-30"/>
       <use x="63.623047" xlink:href="#DejaVuSans-2e"/>
       <use x="95.410156" xlink:href="#DejaVuSans-39"/>
       <use x="159.033203" xlink:href="#DejaVuSans-37"/>
      </g>
     </g>
    </g>
    <g id="ytick_6">
     <g id="line2d_12">
      <g>
       <use style="stroke:#000000;stroke-width:0.8;" x="57.6" xlink:href="#mdd792ac4f0" y="122.688"/>
      </g>
     </g>
     <g id="text_12">
      <!-- 0.98 -->
      <g transform="translate(28.334375 126.487219)scale(0.1 -0.1)">
       <use xlink:href="#DejaVuSans-30"/>
       <use x="63.623047" xlink:href="#DejaVuSans-2e"/>
       <use x="95.410156" xlink:href="#DejaVuSans-39"/>
       <use x="159.033203" xlink:href="#DejaVuSans-38"/>
      </g>
     </g>
    </g>
    <g id="ytick_7">
     <g id="line2d_13">
      <g>
       <use style="stroke:#000000;stroke-width:0.8;" x="57.6" xlink:href="#mdd792ac4f0" y="88.128"/>
      </g>
     </g>
     <g id="text_13">
      <!-- 0.99 -->
      <g transform="translate(28.334375 91.927219)scale(0.1 -0.1)">
       <use xlink:href="#DejaVuSans-30"/>
       <use x="63.623047" xlink:href="#DejaVuSans-2e"/>
       <use x="95.410156" xlink:href="#DejaVuSans-39"/>
       <use x="159.033203" xlink:href="#DejaVuSans-39"/>
      </g>
     </g>
    </g>
    <g id="ytick_8">
     <g id="line2d_14">
      <g>
       <use style="stroke:#000000;stroke-width:0.8;" x="57.6" xlink:href="#mdd792ac4f0" y="53.568"/>
      </g>
     </g>
     <g id="text_14">
      <!-- 1.00 -->
      <g transform="translate(28.334375 57.367219)scale(0.1 -0.1)">
       <use xlink:href="#DejaVuSans-31"/>
       <use x="63.623047" xlink:href="#DejaVuSans-2e"/>
       <use x="95.410156" xlink:href="#DejaVuSans-30"/>
       <use x="159.033203" xlink:href="#DejaVuSans-30"/>
      </g>
     </g>
    </g>
   </g>
   <g id="line2d_15">
    <path clip-path="url(#p2a627f2cb5)" d="M 57.6 267.84 
L 57.957477 254.016 
L 58.314955 160.704 
L 58.672432 288.576 
L 59.02991 160.704 
L 59.387387 133.056 
L 59.744865 174.528 
L 60.102342 164.16 
L 60.45982 188.352 
L 60.817297 260.928 
L 61.174775 105.408 
L 61.532252 295.488 
L 61.88973 236.736 
L 62.247207 226.368 
L 62.604685 205.632 
L 63.31964 60.48 
L 63.677117 77.76 
L 64.034595 153.792 
L 64.392072 257.472 
L 64.74955 84.672 
L 65.107027 146.88 
L 65.464505 295.488 
L 65.821982 216 
L 66.179459 285.12 
L 66.536937 95.04 
L 66.894414 181.44 
L 67.251892 101.952 
L 67.609369 129.6 
L 67.966847 281.664 
L 68.324324 233.28 
L 68.681802 84.672 
L 69.039279 115.776 
L 69.396757 157.248 
L 69.754234 143.424 
L 70.111712 171.072 
L 70.469189 126.144 
L 70.826667 146.88 
L 71.184144 229.824 
L 71.541622 281.664 
L 71.899099 60.48 
L 72.256577 101.952 
L 72.614054 243.648 
L 72.971532 98.496 
L 73.686486 260.928 
L 74.043964 171.072 
L 74.401441 115.776 
L 74.758919 174.528 
L 75.116396 84.672 
L 75.473874 98.496 
L 75.831351 243.648 
L 76.188829 254.016 
L 76.546306 267.84 
L 76.903784 257.472 
L 77.261261 243.648 
L 77.618739 274.752 
L 77.976216 119.232 
L 78.333694 122.688 
L 78.691171 209.088 
L 79.048649 191.808 
L 79.406126 195.264 
L 79.763604 77.76 
L 80.121081 105.408 
L 80.478559 91.584 
L 80.836036 229.824 
L 81.193514 63.936 
L 81.550991 264.384 
L 81.908468 88.128 
L 82.265946 164.16 
L 82.623423 174.528 
L 82.980901 146.88 
L 83.338378 247.104 
L 83.695856 153.792 
L 84.053333 188.352 
L 84.410811 274.752 
L 84.768288 167.616 
L 85.125766 146.88 
L 85.483243 70.848 
L 85.840721 281.664 
L 86.198198 122.688 
L 86.555676 101.952 
L 86.913153 285.12 
L 87.270631 264.384 
L 87.628108 160.704 
L 88.343063 292.032 
L 88.700541 288.576 
L 89.058018 264.384 
L 89.772973 188.352 
L 90.13045 271.296 
L 90.487928 250.56 
L 90.845405 188.352 
L 91.202883 288.576 
L 91.56036 164.16 
L 91.917838 188.352 
L 92.275315 191.808 
L 92.632793 285.12 
L 92.99027 236.736 
L 93.705225 88.128 
L 94.062703 236.736 
L 94.42018 95.04 
L 94.777658 274.752 
L 95.135135 81.216 
L 95.492613 88.128 
L 95.85009 81.216 
L 96.207568 95.04 
L 96.565045 67.392 
L 96.922523 212.544 
L 97.28 150.336 
L 97.637477 260.928 
L 97.994955 292.032 
L 98.352432 188.352 
L 98.70991 171.072 
L 99.067387 98.496 
L 99.424865 219.456 
L 100.13982 157.248 
L 100.854775 285.12 
L 101.212252 219.456 
L 101.56973 222.912 
L 101.927207 115.776 
L 102.284685 160.704 
L 102.642162 74.304 
L 102.99964 229.824 
L 103.714595 112.32 
L 104.072072 171.072 
L 104.42955 74.304 
L 104.787027 129.6 
L 105.144505 143.424 
L 105.501982 139.968 
L 105.859459 236.736 
L 106.216937 129.6 
L 106.574414 77.76 
L 106.931892 122.688 
L 107.289369 129.6 
L 107.646847 129.6 
L 108.004324 139.968 
L 108.361802 188.352 
L 108.719279 63.936 
L 109.076757 184.896 
L 109.434234 202.176 
L 109.791712 105.408 
L 110.149189 126.144 
L 110.506667 288.576 
L 110.864144 77.76 
L 111.221622 209.088 
L 111.579099 288.576 
L 111.936577 191.808 
L 112.294054 160.704 
L 113.009009 295.488 
L 113.366486 129.6 
L 113.723964 243.648 
L 114.081441 191.808 
L 114.438919 188.352 
L 114.796396 243.648 
L 115.153874 139.968 
L 115.511351 240.192 
L 115.868829 126.144 
L 116.226306 222.912 
L 116.583784 222.912 
L 116.941261 229.824 
L 117.298739 63.936 
L 117.656216 233.28 
L 118.371171 115.776 
L 118.728649 74.304 
L 119.086126 91.584 
L 119.443604 150.336 
L 119.801081 63.936 
L 120.158559 81.216 
L 120.516036 212.544 
L 120.873514 70.848 
L 121.230991 267.84 
L 121.588468 250.56 
L 122.303423 243.648 
L 122.660901 247.104 
L 123.018378 115.776 
L 123.375856 160.704 
L 123.733333 95.04 
L 124.090811 115.776 
L 124.448288 122.688 
L 124.805766 167.616 
L 125.163243 164.16 
L 125.520721 60.48 
L 125.878198 267.84 
L 126.235676 74.304 
L 126.593153 181.44 
L 126.950631 236.736 
L 127.308108 198.72 
L 127.665586 98.496 
L 128.023063 236.736 
L 128.380541 243.648 
L 128.738018 84.672 
L 129.095495 101.952 
L 129.452973 143.424 
L 129.81045 133.056 
L 130.167928 119.232 
L 130.525405 177.984 
L 130.882883 278.208 
L 131.24036 198.72 
L 131.955315 267.84 
L 132.312793 81.216 
L 132.67027 139.968 
L 133.027748 247.104 
L 133.385225 260.928 
L 133.742703 184.896 
L 134.10018 63.936 
L 134.457658 188.352 
L 134.815135 257.472 
L 135.172613 278.208 
L 135.53009 139.968 
L 135.887568 274.752 
L 136.602523 115.776 
L 136.96 288.576 
L 137.317477 257.472 
L 137.674955 119.232 
L 138.38991 285.12 
L 138.747387 267.84 
L 139.104865 77.76 
L 139.81982 198.72 
L 140.177297 129.6 
L 140.534775 150.336 
L 140.892252 129.6 
L 141.24973 133.056 
L 141.607207 236.736 
L 141.964685 257.472 
L 142.322162 167.616 
L 142.67964 264.384 
L 143.037117 67.392 
L 143.394595 95.04 
L 144.10955 219.456 
L 144.467027 195.264 
L 144.824505 285.12 
L 145.181982 84.672 
L 145.539459 205.632 
L 145.896937 195.264 
L 146.254414 171.072 
L 146.611892 202.176 
L 146.969369 281.664 
L 147.326847 264.384 
L 147.684324 53.568 
L 148.041802 95.04 
L 148.399279 274.752 
L 148.756757 146.88 
L 149.114234 129.6 
L 149.471712 264.384 
L 149.829189 292.032 
L 150.186667 101.952 
L 150.544144 133.056 
L 150.901622 60.48 
L 151.259099 139.968 
L 151.616577 63.936 
L 151.974054 160.704 
L 152.331532 88.128 
L 152.689009 77.76 
L 153.046486 254.016 
L 153.403964 226.368 
L 153.761441 157.248 
L 154.118919 133.056 
L 154.476396 212.544 
L 154.833874 205.632 
L 155.191351 188.352 
L 155.906306 292.032 
L 156.263784 139.968 
L 156.621261 254.016 
L 156.978739 243.648 
L 157.336216 129.6 
L 157.693694 209.088 
L 158.051171 209.088 
L 158.408649 153.792 
L 158.766126 77.76 
L 159.123604 122.688 
L 159.481081 136.512 
L 159.838559 133.056 
L 160.196036 98.496 
L 160.553514 243.648 
L 160.910991 191.808 
L 161.268468 292.032 
L 161.625946 209.088 
L 161.983423 219.456 
L 162.340901 112.32 
L 162.698378 115.776 
L 163.055856 254.016 
L 163.413333 115.776 
L 163.770811 167.616 
L 164.128288 98.496 
L 164.485766 243.648 
L 164.843243 108.864 
L 165.200721 240.192 
L 165.558198 271.296 
L 166.273153 105.408 
L 166.630631 139.968 
L 166.988108 60.48 
L 167.345586 174.528 
L 167.703063 216 
L 168.060541 198.72 
L 168.418018 53.568 
L 168.775495 295.488 
L 169.132973 139.968 
L 169.49045 278.208 
L 169.847928 247.104 
L 170.205405 63.936 
L 170.562883 108.864 
L 171.277838 229.824 
L 171.635315 174.528 
L 171.992793 57.024 
L 172.707748 216 
L 173.065225 143.424 
L 173.422703 195.264 
L 173.78018 143.424 
L 174.137658 233.28 
L 174.495135 63.936 
L 174.852613 264.384 
L 175.567568 115.776 
L 175.925045 212.544 
L 176.64 74.304 
L 176.997477 191.808 
L 177.354955 205.632 
L 177.712432 60.48 
L 178.06991 281.664 
L 178.427387 167.616 
L 178.784865 191.808 
L 179.142342 295.488 
L 179.49982 81.216 
L 179.857297 139.968 
L 180.214775 153.792 
L 180.572252 222.912 
L 180.92973 184.896 
L 181.287207 240.192 
L 181.644685 112.32 
L 182.002162 160.704 
L 182.35964 243.648 
L 182.717117 67.392 
L 183.074595 115.776 
L 183.432072 219.456 
L 183.78955 271.296 
L 184.147027 84.672 
L 184.504505 292.032 
L 185.576937 222.912 
L 185.934414 143.424 
L 186.291892 101.952 
L 186.649369 250.56 
L 187.006847 143.424 
L 187.364324 126.144 
L 187.721802 88.128 
L 188.079279 108.864 
L 188.436757 91.584 
L 188.794234 240.192 
L 189.151712 153.792 
L 189.866667 292.032 
L 190.224144 271.296 
L 190.581622 292.032 
L 190.939099 74.304 
L 191.296577 105.408 
L 191.654054 240.192 
L 192.369009 105.408 
L 192.726486 205.632 
L 193.441441 167.616 
L 193.798919 126.144 
L 194.156396 98.496 
L 194.513874 267.84 
L 194.871351 247.104 
L 195.228829 205.632 
L 195.586306 216 
L 195.943784 98.496 
L 196.301261 205.632 
L 196.658739 101.952 
L 197.016216 60.48 
L 197.731171 181.44 
L 198.446126 88.128 
L 198.803604 143.424 
L 199.161081 171.072 
L 199.876036 98.496 
L 200.233514 271.296 
L 200.590991 88.128 
L 200.948468 74.304 
L 201.305946 167.616 
L 201.663423 184.896 
L 202.020901 195.264 
L 202.378378 153.792 
L 202.735856 157.248 
L 203.093333 84.672 
L 203.450811 222.912 
L 203.808288 105.408 
L 204.165766 98.496 
L 204.523243 202.176 
L 204.880721 98.496 
L 205.238198 229.824 
L 205.595676 264.384 
L 205.953153 219.456 
L 206.310631 236.736 
L 206.668108 181.44 
L 207.025586 101.952 
L 207.740541 295.488 
L 208.098018 243.648 
L 208.455495 143.424 
L 208.812973 105.408 
L 209.17045 160.704 
L 209.527928 292.032 
L 209.885405 153.792 
L 210.242883 63.936 
L 210.60036 167.616 
L 210.957838 236.736 
L 211.315315 67.392 
L 211.672793 139.968 
L 212.03027 105.408 
L 212.387748 233.28 
L 212.745225 57.024 
L 213.102703 164.16 
L 213.46018 136.512 
L 213.817658 53.568 
L 214.175135 278.208 
L 214.89009 77.76 
L 215.247568 240.192 
L 215.605045 143.424 
L 215.962523 150.336 
L 216.32 146.88 
L 216.677477 191.808 
L 217.034955 281.664 
L 217.392432 84.672 
L 217.74991 257.472 
L 218.107387 264.384 
L 218.464865 57.024 
L 218.822342 254.016 
L 219.537297 60.48 
L 219.894775 285.12 
L 220.252252 226.368 
L 220.60973 136.512 
L 220.967207 139.968 
L 221.324685 174.528 
L 221.682162 233.28 
L 222.03964 139.968 
L 222.754595 229.824 
L 223.112072 195.264 
L 223.46955 264.384 
L 223.827027 167.616 
L 224.184505 191.808 
L 224.541982 115.776 
L 224.899459 236.736 
L 225.256937 250.56 
L 225.614414 274.752 
L 225.971892 139.968 
L 226.329369 247.104 
L 227.044324 84.672 
L 227.401802 119.232 
L 227.759279 139.968 
L 228.116757 292.032 
L 228.474234 105.408 
L 228.831712 150.336 
L 229.189189 233.28 
L 229.546667 205.632 
L 229.904144 81.216 
L 230.261622 198.72 
L 230.619099 101.952 
L 230.976577 57.024 
L 231.334054 233.28 
L 231.691532 129.6 
L 232.049009 115.776 
L 232.406486 184.896 
L 232.763964 133.056 
L 233.478919 236.736 
L 233.836396 112.32 
L 234.193874 216 
L 234.551351 157.248 
L 234.908829 257.472 
L 235.266306 136.512 
L 235.623784 115.776 
L 235.981261 219.456 
L 236.696216 57.024 
L 237.053694 53.568 
L 237.411171 150.336 
L 237.768649 209.088 
L 238.126126 119.232 
L 238.483604 247.104 
L 238.841081 271.296 
L 239.198559 81.216 
L 239.556036 216 
L 239.913514 281.664 
L 240.270991 67.392 
L 240.628468 278.208 
L 240.985946 260.928 
L 241.343423 233.28 
L 241.700901 274.752 
L 242.058378 136.512 
L 242.415856 233.28 
L 243.130811 77.76 
L 243.488288 77.76 
L 243.845766 254.016 
L 244.203243 129.6 
L 244.560721 254.016 
L 244.918198 292.032 
L 245.275676 146.88 
L 245.633153 198.72 
L 245.990631 139.968 
L 246.348108 174.528 
L 246.705586 112.32 
L 247.063063 143.424 
L 247.420541 254.016 
L 247.778018 181.44 
L 248.135495 271.296 
L 248.492973 70.848 
L 248.85045 157.248 
L 249.207928 122.688 
L 249.565405 112.32 
L 249.922883 222.912 
L 250.28036 122.688 
L 250.637838 63.936 
L 250.995315 292.032 
L 251.352793 115.776 
L 251.71027 67.392 
L 252.067748 202.176 
L 252.425225 105.408 
L 252.782703 108.864 
L 253.14018 274.752 
L 253.497658 247.104 
L 253.855135 274.752 
L 254.212613 81.216 
L 254.57009 216 
L 254.927568 77.76 
L 255.285045 195.264 
L 256 60.48 
L 256.357477 274.752 
L 257.072432 198.72 
L 257.787387 63.936 
L 258.144865 233.28 
L 258.502342 122.688 
L 258.85982 198.72 
L 259.217297 70.848 
L 259.574775 285.12 
L 259.932252 264.384 
L 260.28973 198.72 
L 260.647207 191.808 
L 261.004685 198.72 
L 261.362162 292.032 
L 261.71964 181.44 
L 262.077117 202.176 
L 262.434595 292.032 
L 262.792072 67.392 
L 263.14955 247.104 
L 263.507027 119.232 
L 263.864505 184.896 
L 264.221982 191.808 
L 264.579459 122.688 
L 264.936937 219.456 
L 265.294414 143.424 
L 265.651892 157.248 
L 266.009369 150.336 
L 266.366847 177.984 
L 266.724324 278.208 
L 267.439279 108.864 
L 267.796757 177.984 
L 268.154234 191.808 
L 268.511712 67.392 
L 268.869189 184.896 
L 269.226667 119.232 
L 269.941622 216 
L 270.299099 95.04 
L 270.656577 81.216 
L 271.371532 281.664 
L 271.729009 247.104 
L 272.086486 267.84 
L 272.443964 274.752 
L 272.801441 174.528 
L 273.516396 115.776 
L 273.873874 188.352 
L 274.231351 191.808 
L 274.588829 136.512 
L 274.946306 240.192 
L 275.303784 115.776 
L 275.661261 146.88 
L 276.018739 281.664 
L 276.376216 247.104 
L 276.733694 67.392 
L 277.091171 243.648 
L 277.448649 240.192 
L 277.806126 122.688 
L 278.163604 67.392 
L 278.521081 212.544 
L 278.878559 133.056 
L 279.236036 153.792 
L 279.593514 243.648 
L 279.950991 129.6 
L 280.308468 233.28 
L 280.665946 250.56 
L 281.380901 81.216 
L 281.738378 63.936 
L 282.095856 171.072 
L 282.453333 219.456 
L 282.810811 98.496 
L 283.168288 119.232 
L 283.525766 150.336 
L 283.883243 216 
L 284.240721 126.144 
L 284.598198 278.208 
L 284.955676 247.104 
L 285.313153 77.76 
L 286.028108 292.032 
L 286.385586 219.456 
L 286.743063 177.984 
L 287.100541 264.384 
L 287.458018 243.648 
L 287.815495 184.896 
L 288.172973 150.336 
L 288.53045 198.72 
L 288.887928 84.672 
L 289.245405 101.952 
L 289.602883 57.024 
L 289.96036 219.456 
L 290.317838 84.672 
L 290.675315 274.752 
L 291.032793 81.216 
L 291.39027 271.296 
L 291.747748 226.368 
L 292.105225 209.088 
L 292.462703 143.424 
L 292.82018 101.952 
L 293.177658 101.952 
L 293.535135 250.56 
L 293.892613 209.088 
L 294.25009 209.088 
L 294.607568 57.024 
L 294.965045 212.544 
L 295.322523 267.84 
L 295.68 191.808 
L 296.037477 285.12 
L 296.394955 191.808 
L 296.752432 63.936 
L 297.10991 129.6 
L 297.467387 91.584 
L 297.824865 216 
L 298.182342 164.16 
L 298.53982 285.12 
L 298.897297 250.56 
L 299.612252 105.408 
L 299.96973 91.584 
L 300.327207 219.456 
L 300.684685 281.664 
L 301.042162 264.384 
L 301.39964 226.368 
L 301.757117 60.48 
L 302.114595 267.84 
L 302.472072 188.352 
L 302.82955 143.424 
L 303.187027 164.16 
L 303.544505 74.304 
L 303.901982 216 
L 304.259459 229.824 
L 304.616937 126.144 
L 304.974414 88.128 
L 305.331892 157.248 
L 305.689369 198.72 
L 306.046847 136.512 
L 306.404324 198.72 
L 306.761802 205.632 
L 307.119279 257.472 
L 307.476757 191.808 
L 307.834234 67.392 
L 308.191712 219.456 
L 308.549189 119.232 
L 308.906667 115.776 
L 309.264144 292.032 
L 309.621622 160.704 
L 309.979099 205.632 
L 310.336577 216 
L 310.694054 222.912 
L 311.051532 222.912 
L 311.409009 57.024 
L 312.481441 219.456 
L 312.838919 202.176 
L 313.196396 60.48 
L 313.553874 126.144 
L 313.911351 240.192 
L 314.626306 95.04 
L 314.983784 247.104 
L 315.341261 226.368 
L 315.698739 292.032 
L 316.056216 95.04 
L 316.413694 195.264 
L 316.771171 247.104 
L 317.128649 63.936 
L 317.486126 198.72 
L 317.843604 177.984 
L 318.201081 122.688 
L 318.558559 129.6 
L 318.916036 191.808 
L 319.273514 226.368 
L 319.630991 184.896 
L 320.345946 60.48 
L 321.060901 292.032 
L 321.418378 153.792 
L 321.775856 171.072 
L 322.133333 260.928 
L 322.490811 198.72 
L 322.848288 281.664 
L 323.563243 205.632 
L 323.920721 205.632 
L 324.278198 257.472 
L 324.635676 236.736 
L 324.993153 257.472 
L 325.350631 219.456 
L 325.708108 195.264 
L 326.065586 184.896 
L 326.423063 219.456 
L 326.780541 53.568 
L 327.138018 67.392 
L 327.495495 226.368 
L 327.852973 195.264 
L 328.21045 60.48 
L 328.567928 288.576 
L 328.925405 115.776 
L 329.282883 226.368 
L 329.64036 212.544 
L 329.997838 254.016 
L 330.355315 171.072 
L 330.712793 247.104 
L 331.07027 198.72 
L 331.427748 240.192 
L 332.142703 136.512 
L 332.50018 181.44 
L 332.857658 160.704 
L 333.215135 191.808 
L 333.572613 285.12 
L 333.93009 81.216 
L 334.287568 101.952 
L 334.645045 171.072 
L 335.002523 53.568 
L 335.36 150.336 
L 335.717477 167.616 
L 336.074955 295.488 
L 336.78991 108.864 
L 337.147387 177.984 
L 337.504865 184.896 
L 337.862342 271.296 
L 338.21982 260.928 
L 338.577297 233.28 
L 338.934775 150.336 
L 339.292252 202.176 
L 339.64973 95.04 
L 340.007207 226.368 
L 340.364685 129.6 
L 341.07964 98.496 
L 341.437117 285.12 
L 341.794595 233.28 
L 342.152072 243.648 
L 342.50955 150.336 
L 342.867027 105.408 
L 343.224505 205.632 
L 343.581982 157.248 
L 343.939459 153.792 
L 344.296937 88.128 
L 344.654414 95.04 
L 345.011892 143.424 
L 345.369369 88.128 
L 345.726847 53.568 
L 346.084324 77.76 
L 346.441802 70.848 
L 346.799279 195.264 
L 347.156757 70.848 
L 347.514234 171.072 
L 347.871712 209.088 
L 348.229189 177.984 
L 348.586667 257.472 
L 348.944144 98.496 
L 349.301622 112.32 
L 349.659099 236.736 
L 350.016577 219.456 
L 350.374054 150.336 
L 350.731532 254.016 
L 351.089009 77.76 
L 351.446486 278.208 
L 351.803964 212.544 
L 352.161441 292.032 
L 353.233874 77.76 
L 353.948829 288.576 
L 354.306306 243.648 
L 354.663784 143.424 
L 355.021261 150.336 
L 355.378739 247.104 
L 355.736216 95.04 
L 356.093694 271.296 
L 356.451171 60.48 
L 356.808649 184.896 
L 357.166126 63.936 
L 357.523604 77.76 
L 357.881081 115.776 
L 358.238559 233.28 
L 358.596036 126.144 
L 358.953514 126.144 
L 359.310991 95.04 
L 359.668468 98.496 
L 360.025946 81.216 
L 360.383423 205.632 
L 360.740901 285.12 
L 361.098378 274.752 
L 361.455856 233.28 
L 361.813333 260.928 
L 362.170811 112.32 
L 362.528288 195.264 
L 362.885766 81.216 
L 363.243243 74.304 
L 363.600721 129.6 
L 363.958198 205.632 
L 364.315676 129.6 
L 364.673153 264.384 
L 365.388108 53.568 
L 365.745586 88.128 
L 366.103063 84.672 
L 366.460541 157.248 
L 366.818018 88.128 
L 367.175495 67.392 
L 367.532973 115.776 
L 367.89045 108.864 
L 368.247928 112.32 
L 368.605405 198.72 
L 368.962883 198.72 
L 369.32036 181.44 
L 369.677838 202.176 
L 370.035315 257.472 
L 370.392793 229.824 
L 370.75027 67.392 
L 371.107748 157.248 
L 371.465225 57.024 
L 371.822703 202.176 
L 372.18018 91.584 
L 372.537658 122.688 
L 372.895135 274.752 
L 373.252613 257.472 
L 373.967568 70.848 
L 374.325045 250.56 
L 374.682523 136.512 
L 375.04 260.928 
L 375.397477 60.48 
L 375.754955 222.912 
L 376.112432 177.984 
L 376.46991 222.912 
L 376.827387 129.6 
L 377.184865 184.896 
L 377.542342 209.088 
L 377.89982 181.44 
L 378.257297 181.44 
L 378.614775 60.48 
L 378.972252 63.936 
L 379.32973 98.496 
L 379.687207 247.104 
L 380.044685 184.896 
L 380.402162 229.824 
L 380.75964 63.936 
L 381.117117 202.176 
L 381.474595 139.968 
L 382.18955 285.12 
L 382.547027 112.32 
L 382.904505 84.672 
L 383.619459 226.368 
L 383.976937 160.704 
L 384.334414 254.016 
L 384.691892 98.496 
L 385.049369 288.576 
L 385.406847 84.672 
L 385.764324 222.912 
L 386.121802 101.952 
L 386.479279 57.024 
L 386.836757 105.408 
L 387.194234 188.352 
L 387.551712 222.912 
L 387.909189 288.576 
L 388.266667 274.752 
L 388.624144 236.736 
L 388.981622 129.6 
L 389.339099 236.736 
L 389.696577 126.144 
L 390.411532 84.672 
L 390.769009 143.424 
L 391.126486 243.648 
L 391.483964 105.408 
L 391.841441 285.12 
L 392.198919 250.56 
L 392.556396 146.88 
L 392.913874 212.544 
L 393.271351 98.496 
L 393.628829 167.616 
L 393.986306 150.336 
L 394.343784 202.176 
L 394.701261 153.792 
L 395.058739 157.248 
L 395.416216 254.016 
L 395.773694 136.512 
L 396.131171 250.56 
L 396.488649 70.848 
L 397.203604 243.648 
L 397.561081 91.584 
L 397.918559 219.456 
L 398.276036 177.984 
L 398.633514 88.128 
L 398.990991 136.512 
L 399.348468 91.584 
L 399.705946 150.336 
L 400.063423 285.12 
L 400.420901 292.032 
L 400.778378 136.512 
L 401.135856 60.48 
L 401.493333 226.368 
L 401.850811 57.024 
L 402.208288 122.688 
L 402.565766 257.472 
L 402.923243 133.056 
L 403.280721 229.824 
L 403.995676 84.672 
L 404.353153 74.304 
L 404.710631 53.568 
L 405.068108 88.128 
L 405.425586 229.824 
L 405.783063 105.408 
L 406.140541 233.28 
L 406.498018 202.176 
L 406.855495 188.352 
L 407.212973 216 
L 407.57045 67.392 
L 407.927928 229.824 
L 408.285405 146.88 
L 408.642883 257.472 
L 409.00036 129.6 
L 409.357838 292.032 
L 409.715315 101.952 
L 410.072793 281.664 
L 410.43027 63.936 
L 410.787748 81.216 
L 411.145225 146.88 
L 411.502703 167.616 
L 411.86018 63.936 
L 412.217658 195.264 
L 412.575135 133.056 
L 412.932613 295.488 
L 413.29009 177.984 
L 413.647568 184.896 
L 414.005045 88.128 
L 414.362523 219.456 
L 414.72 74.304 
L 414.72 74.304 
" style="fill:none;stroke:#1f77b4;stroke-linecap:square;stroke-width:1.5;"/>
   </g>
   <g id="patch_3">
    <path d="M 57.6 307.584 
L 57.6 41.472 
" style="fill:none;stroke:#000000;stroke-linecap:square;stroke-linejoin:miter;stroke-width:0.8;"/>
   </g>
   <g id="patch_4">
    <path d="M 414.72 307.584 
L 414.72 41.472 
" style="fill:none;stroke:#000000;stroke-linecap:square;stroke-linejoin:miter;stroke-width:0.8;"/>
   </g>
   <g id="patch_5">
    <path d="M 57.6 307.584 
L 414.72 307.584 
" style="fill:none;stroke:#000000;stroke-linecap:square;stroke-linejoin:miter;stroke-width:0.8;"/>
   </g>
   <g id="patch_6">
    <path d="M 57.6 41.472 
L 414.72 41.472 
" style="fill:none;stroke:#000000;stroke-linecap:square;stroke-linejoin:miter;stroke-width:0.8;"/>
   </g>
   <g id="legend_1">
    <g id="patch_7">
     <path d="M 64.6 64.150125 
L 125.246875 64.150125 
Q 127.246875 64.150125 127.246875 62.150125 
L 127.246875 48.472 
Q 127.246875 46.472 125.246875 46.472 
L 64.6 46.472 
Q 62.6 46.472 62.6 48.472 
L 62.6 62.150125 
Q 62.6 64.150125 64.6 64.150125 
z
" style="fill:#ffffff;opacity:0.8;stroke:#cccccc;stroke-linejoin:miter;"/>
    </g>
    <g id="line2d_16">
     <path d="M 66.6 54.570438 
L 86.6 54.570438 
" style="fill:none;stroke:#1f77b4;stroke-linecap:square;stroke-width:1.5;"/>
    </g>
    <g id="line2d_17"/>
    <g id="text_15">
     <!-- Theta -->
     <defs>
      <path d="M -0.296875 72.90625 
L 61.375 72.90625 
L 61.375 64.59375 
L 35.5 64.59375 
L 35.5 0 
L 25.59375 0 
L 25.59375 64.59375 
L -0.296875 64.59375 
z
" id="DejaVuSans-54"/>
      <path d="M 54.890625 33.015625 
L 54.890625 0 
L 45.90625 0 
L 45.90625 32.71875 
Q 45.90625 40.484375 42.875 44.328125 
Q 39.84375 48.1875 33.796875 48.1875 
Q 26.515625 48.1875 22.3125 43.546875 
Q 18.109375 38.921875 18.109375 30.90625 
L 18.109375 0 
L 9.078125 0 
L 9.078125 75.984375 
L 18.109375 75.984375 
L 18.109375 46.1875 
Q 21.34375 51.125 25.703125 53.5625 
Q 30.078125 56 35.796875 56 
Q 45.21875 56 50.046875 50.171875 
Q 54.890625 44.34375 54.890625 33.015625 
" id="DejaVuSans-68"/>
      <path d="M 56.203125 29.59375 
L 56.203125 25.203125 
L 14.890625 25.203125 
Q 15.484375 15.921875 20.484375 11.0625 
Q 25.484375 6.203125 34.421875 6.203125 
Q 39.59375 6.203125 44.453125 7.46875 
Q 49.3125 8.734375 54.109375 11.28125 
L 54.109375 2.78125 
Q 49.265625 0.734375 44.1875 -0.34375 
Q 39.109375 -1.421875 33.890625 -1.421875 
Q 20.796875 -1.421875 13.15625 6.1875 
Q 5.515625 13.8125 5.515625 26.8125 
Q 5.515625 40.234375 12.765625 48.109375 
Q 20.015625 56 32.328125 56 
Q 43.359375 56 49.78125 48.890625 
Q 56.203125 41.796875 56.203125 29.59375 
M 47.21875 32.234375 
Q 47.125 39.59375 43.09375 43.984375 
Q 39.0625 48.390625 32.421875 48.390625 
Q 24.90625 48.390625 20.390625 44.140625 
Q 15.875 39.890625 15.1875 32.171875 
z
" id="DejaVuSans-65"/>
      <path d="M 18.3125 70.21875 
L 18.3125 54.6875 
L 36.8125 54.6875 
L 36.8125 47.703125 
L 18.3125 47.703125 
L 18.3125 18.015625 
Q 18.3125 11.328125 20.140625 9.421875 
Q 21.96875 7.515625 27.59375 7.515625 
L 36.8125 7.515625 
L 36.8125 0 
L 27.59375 0 
Q 17.1875 0 13.234375 3.875 
Q 9.28125 7.765625 9.28125 18.015625 
L 9.28125 47.703125 
L 2.6875 47.703125 
L 2.6875 54.6875 
L 9.28125 54.6875 
L 9.28125 70.21875 
z
" id="DejaVuSans-74"/>
      <path d="M 34.28125 27.484375 
Q 23.390625 27.484375 19.1875 25 
Q 14.984375 22.515625 14.984375 16.5 
Q 14.984375 11.71875 18.140625 8.90625 
Q 21.296875 6.109375 26.703125 6.109375 
Q 34.1875 6.109375 38.703125 11.40625 
Q 43.21875 16.703125 43.21875 25.484375 
L 43.21875 27.484375 
z
M 52.203125 31.203125 
L 52.203125 0 
L 43.21875 0 
L 43.21875 8.296875 
Q 40.140625 3.328125 35.546875 0.953125 
Q 30.953125 -1.421875 24.3125 -1.421875 
Q 15.921875 -1.421875 10.953125 3.296875 
Q 6 8.015625 6 15.921875 
Q 6 25.140625 12.171875 29.828125 
Q 18.359375 34.515625 30.609375 34.515625 
L 43.21875 34.515625 
L 43.21875 35.40625 
Q 43.21875 41.609375 39.140625 45 
Q 35.0625 48.390625 27.6875 48.390625 
Q 23 48.390625 18.546875 47.265625 
Q 14.109375 46.140625 10.015625 43.890625 
L 10.015625 52.203125 
Q 14.9375 54.109375 19.578125 55.046875 
Q 24.21875 56 28.609375 56 
Q 40.484375 56 46.34375 49.84375 
Q 52.203125 43.703125 52.203125 31.203125 
" id="DejaVuSans-61"/>
     </defs>
     <g transform="translate(94.6 58.070438)scale(0.1 -0.1)">
      <use xlink:href="#DejaVuSans-54"/>
      <use x="61.083984" xlink:href="#DejaVuSans-68"/>
      <use x="124.462891" xlink:href="#DejaVuSans-65"/>
      <use x="185.986328" xlink:href="#DejaVuSans-74"/>
      <use x="225.195312" xlink:href="#DejaVuSans-61"/>
     </g>
    </g>
   </g>
  </g>
 </g>
 <defs>
  <clipPath id="p2a627f2cb5">
   <rect height="266.112" width="357.12" x="57.6" y="41.472"/>
  </clipPath>
 </defs>
</svg>
